<?xml version="1.0" encoding="utf-8"?>
<!-- Generator: Adobe Illustrator 24.0.3, SVG Export Plug-In . SVG Version: 6.00 Build 0)  -->
<svg version="1.1" id="Layer_1" xmlns="http://www.w3.org/2000/svg" xmlns:xlink="http://www.w3.org/1999/xlink" x="0px" y="0px"
	 viewBox="0 0 300 250" style="enable-background:new 0 0 300 250;" xml:space="preserve">
<style type="text/css">
	.st0{clip-path:url(#SVGID_2_);}
	.st1{enable-background:new    ;}
	.st2{fill:#263845;}
</style>
<title>Artboard 1 copy 7</title>
<g>
	<defs>
		<rect id="SVGID_1_" y="0" width="300" height="250"/>
	</defs>
	<clipPath id="SVGID_2_">
		<use xlink:href="#SVGID_1_"  style="overflow:visible;"/>
	</clipPath>
	<g class="st0">
		<g class="st1">
			<path class="st2" d="M39.1,57.3v0.2H28.8v-0.2c1.9,0,2.4-0.8,2.4-1.6V37.6c0-0.9-0.5-1.6-2.4-1.6v-0.2h7.8v19.9
				C36.7,56.6,37.2,57.3,39.1,57.3z M51.6,55.2c-0.5,1.8-2.4,2.6-4.7,2.6c-4.2,0-5.1-2.9-5.3-5.6c-0.2-2.6-0.4-4.7-3.3-5.1V47
				c2.9,0,4.3-2.6,4.3-5.8c0-3.6-1.3-5.3-4.3-5.3v-0.2c6.5,0,9.7,1.4,9.7,5.5c0,3.5-2.6,5.6-7.3,5.9c5.8,0.3,6.7,2.5,7,5.2
				c0.3,2.6,1,4.4,2.1,4.4c0.6,0,1.1-0.5,1.6-1.4H51.6z"/>
		</g>
		<g class="st1">
			<path class="st2" d="M52.3,49.5c0-5.4,4.1-8.2,7.8-8.3v0.2c-1.9,0.2-2.4,1.8-2.4,7.9c0,4.6,2,7.1,4.9,7.1c1.8,0,3.2-0.5,4.7-1.7
				V55c-1.7,2.1-4.7,2.9-6.8,2.9C56.4,57.8,52.3,54.8,52.3,49.5z M59.5,48.1c2.8,0,4-0.9,4-3.6c0-1.5-0.6-2.9-2.1-3.1v-0.2
				c4.2,0,6.3,3,6.3,5.4c0,0.5-0.1,1.2-0.2,1.7h-8V48.1z"/>
			<path class="st2" d="M70,53.7c0-2.8,2.6-4.4,6.1-4.4h3.5v0.2h-1c-2.3,0-3.4,1.5-3.4,3.5c0,1.8,0.5,3.1,2,3.1
				c0.9,0,1.6-0.5,2.3-1.1v0.2c-1.1,1.2-2.8,2.6-5.1,2.6C71.8,57.8,69.9,56.3,70,53.7z M71.2,44.7c0-1.6,1.5-3.3,5.8-3.5v0.2
				c-1.3,0.2-2,1.2-2,2.3c0,1.2,0.8,1.9,2.1,2c-0.5,0.9-1.8,1.5-3.1,1.5C72.3,47.2,71.2,46,71.2,44.7z M80.5,54.2v-9.8
				c0-1.6-0.6-2.8-2.2-3v-0.2c5.3,0.2,7.4,2.2,7.4,6.4v7.8c0,0.9,0.3,1.3,0.9,1.3c0.5,0,1-0.5,1.5-1.4h0.2c-0.5,1.8-2.2,2.6-4.2,2.6
				C81.7,57.8,80.5,56.9,80.5,54.2z"/>
			<path class="st2" d="M89.2,35.2c3,0,5.4-0.3,7.6-1.2v21.7c0,0.8,0.5,1.6,2.4,1.6v0.2H89.2v-0.2c1.9,0,2.4-0.8,2.4-1.6V37.1
				c0-1.2-0.5-1.7-2.4-1.7V35.2z"/>
		</g>
		<g class="st1">
			<path class="st2" d="M35.1,75.6l4.2,8.7l-2.8,5.2h-0.2L29,74.8c-0.3-0.7-0.8-1.1-1.8-1.1v-0.2h9v0.2C35,73.7,34.6,74.5,35.1,75.6
				z M45.7,75.6l4.2,8.7l-2.8,5.2h-0.2l-5-10l-1,1.9l-0.2-0.3c0.5-1.1,0.7-2.6,0.3-3.6l-1.4-2.8c-0.3-0.7-0.8-1.1-1.8-1.1v-0.2h9
				v0.2C45.6,73.7,45.1,74.5,45.7,75.6z M56.8,73.5v0.2c-1.1,0-1.5,0.4-2.1,1.5l-3.3,6.3l-0.2-0.3c0.5-1,0.9-2.4,0.9-4.1
				c0-1.8-1-3.4-3.3-3.4v-0.2H56.8z"/>
		</g>
		<g class="st1">
			<path class="st2" d="M65,73.4c-1.9,0.2-2.5,1.8-2.5,8.1c0,6,0.6,8,2.5,8.2v0.2c-3.7,0-8-3-8-8.4s4.2-8.2,8-8.3V73.4z M74.2,81.5
				c0,5.3-4.3,8.4-7.9,8.4v-0.2c1.9-0.2,2.5-2.2,2.5-8.2c0-6.3-0.6-7.9-2.5-8.1v-0.2C70,73.2,74.2,76,74.2,81.5z"/>
			<path class="st2" d="M84,87.7c0,0.8,0.5,1.6,2.4,1.6v0.2H76.4v-0.2c1.9,0,2.4-0.8,2.4-1.6V76.3c0-1.2-0.5-1.7-2.4-1.7v-0.2
				c3,0,5.4-0.3,7.6-1.2V87.7z M92.7,76.7c0,2.2-1.6,3.6-3.3,3.6c-0.8,0-1.4-0.2-1.8-0.7c0.6-0.3,1.2-1,1.2-2.2
				c0-0.9-0.7-1.7-1.8-1.7c-0.8,0-1.5,0.5-1.9,1.2v-0.3c0.6-2,2.2-3.5,4.2-3.5C91.5,73.2,92.7,74.7,92.7,76.7z"/>
			<path class="st2" d="M93.9,67.2c3,0,5.4-0.3,7.6-1.2v21.7c0,0.8,0.5,1.6,2.4,1.6v0.2H93.8v-0.2c1.9,0,2.4-0.8,2.4-1.6V69.1
				c0-1.2-0.5-1.7-2.4-1.7V67.2z"/>
			<path class="st2" d="M117.2,75.8V76c-0.7-0.8-1.7-1.2-2.7-1.2c-1.6,0-3.1,0.7-3.1,6.5c0,5.8,1.6,6.8,3.1,6.8c1,0,1.9-0.5,2.7-1.1
				v0.2c-0.8,1.3-2.8,2.6-4.6,2.6c-3,0-6.6-1.8-6.6-8.5c0-6.4,3.5-8.2,6.6-8.2C114.4,73.2,116.4,74.4,117.2,75.8z M123.4,87.4
				c0,0.9,0.3,1.3,0.9,1.3c0.5,0,1-0.5,1.5-1.4h0.2c-0.5,1.8-2.2,2.6-4.2,2.6c-2.6,0-3.7-0.9-3.7-3.6V69.1c0-1.2-0.5-1.7-2.4-1.7
				v-0.2c3,0,5-0.3,7.6-1.2V87.4z"/>
		</g>
		<g class="st1">
			<path class="st2" d="M146.3,89.3v0.2H136v-0.2c1.9,0,2.4-0.8,2.4-1.6V69.6c0-0.9-0.5-1.6-2.4-1.6v-0.2h7.8v19.9
				C143.9,88.6,144.4,89.3,146.3,89.3z M158.8,87.2c-0.5,1.8-2.4,2.6-4.7,2.6c-4.2,0-5.1-2.9-5.3-5.6c-0.2-2.6-0.4-4.7-3.3-5.1V79
				c2.9,0,4.3-2.6,4.3-5.8c0-3.6-1.3-5.3-4.3-5.3v-0.2c6.5,0,9.7,1.4,9.7,5.5c0,3.5-2.6,5.6-7.3,5.9c5.8,0.3,6.7,2.5,7,5.2
				c0.3,2.6,1,4.4,2.1,4.4c0.6,0,1.1-0.5,1.6-1.4H158.8z"/>
		</g>
		<g class="st1">
			<path class="st2" d="M159.3,69.6c-0.6-1.2-1.3-1.7-2.9-1.7v-0.2H168V68c-1.5,0-2.8,1-2,2.6l6,12.7l-2.9,6.5h-0.4L159.3,69.6z
				 M173.3,80.4c1.9-4.3,2.3-6.9,2.3-8.9c0-2.3-2-3.5-3.6-3.5v-0.2h9.2v0.1c-1.5,0-2.4,1.4-3.4,3.6l-4.4,9.2L173.3,80.4z"/>
		</g>
		<g class="st1">
			<path class="st2" d="M28.3,106.4c3,0,5.4-0.3,7.6-1.2v14.5c0,0.8,0.5,1.6,2.4,1.6v0.2H28.3v-0.2c1.9,0,2.4-0.8,2.4-1.6v-11.4
				c0-1.2-0.5-1.7-2.4-1.7V106.4z M29.9,100.4c0-1.7,1.3-2.8,3.3-2.8s3.3,1.1,3.3,2.8c0,1.7-1.3,2.8-3.3,2.8S29.9,102.1,29.9,100.4z
				"/>
			<path class="st2" d="M39.7,121.3c1.9,0,2.4-0.8,2.4-1.6v-11.4c0-1.2-0.5-1.7-2.4-1.7v-0.2c3,0,5.4-0.3,7.6-1.2v14.5
				c0,0.8,0.5,1.6,2.4,1.6v0.2H39.7V121.3z M50.9,121.3c1.9,0,2.4-0.8,2.4-1.6v-10c0-1.8-0.9-2.7-2.5-2.7c-0.9,0-1.7,0.3-2.4,1v-0.2
				c0.9-1.3,2.9-2.6,5.3-2.6c2.9,0,4.9,1.3,4.9,4.5v10c0,0.8,0.5,1.6,2.4,1.6v0.2h-10V121.3z"/>
			<path class="st2" d="M68.3,117.7c-1.1,0-1.8,0.6-1.8,1.6c0,0.9,0.6,2.1,2.8,2.3v0.2c-4.3-0.2-6.6-1.3-6.6-3.2
				c0-1.5,1.3-2.4,2.7-2.4C66.8,116.3,67.8,116.9,68.3,117.7z M69.3,105.4c-1.2,0.2-2.3,0.8-2.3,2.1c0.1,3.7,10.5,4.3,10.5,9.4
				c0,3.1-2.6,4.7-6.8,4.9v-0.2c1.3-0.2,2.8-0.7,2.8-2.4c0-3.3-10.5-4.5-10.5-9.4c0-2.8,2.7-4.5,6.2-4.7V105.4z M76.9,108.5
				c0,1-0.8,2-2.4,2c-1.3,0-2.3-0.6-2.7-1.5c1-0.1,1.5-0.7,1.4-1.5c0-1-1.2-1.9-2.5-2v-0.2C74.4,105.4,76.9,106.7,76.9,108.5z"/>
			<path class="st2" d="M86.9,117.3c0,1.8,0.6,2.7,2.2,2.7c0.8,0,1.5-0.3,2.2-1v0.2c-0.7,1.4-2.4,2.6-5,2.6c-2.9,0-4.7-1.3-4.7-4.5
				v-9c0-1.2-0.5-1.7-2.4-1.7v-0.2c3,0,5.4-0.3,7.6-1.2V117.3z M97.6,119.4c0,0.9,0.3,1.3,0.9,1.3c0.5,0,1-0.5,1.5-1.4h0.2
				c-0.5,1.8-2.2,2.6-4.4,2.6c-2.2,0-3.5-1.3-3.5-3.1v-10.4c0-1.2-0.5-1.7-2.3-1.7v-0.2c2.9,0,4.9-0.3,7.6-1.2V119.4z"/>
		</g>
		<g class="st1">
			<path class="st2" d="M109.2,119.7c0,0.8,0.5,1.6,2.4,1.6v0.2h-10.1v-0.2c1.9,0,2.4-0.8,2.4-1.6v-11.4c0-1.2-0.5-1.7-2.4-1.7v-0.2
				c3,0,5.4-0.3,7.6-1.2V119.7z M117.8,108.7c0,2.2-1.6,3.6-3.3,3.6c-0.8,0-1.4-0.2-1.8-0.7c0.6-0.3,1.2-1,1.2-2.2
				c0-0.9-0.7-1.7-1.8-1.7c-0.8,0-1.5,0.5-1.9,1.2v-0.3c0.6-2,2.2-3.5,4.2-3.5C116.6,105.2,117.8,106.7,117.8,108.7z"/>
		</g>
		<g class="st1">
			<path class="st2" d="M119.2,117.7c0-2.8,2.6-4.4,6.1-4.4h3.5v0.2h-1c-2.3,0-3.4,1.5-3.4,3.5c0,1.8,0.5,3.1,2,3.1
				c0.9,0,1.6-0.5,2.3-1.1v0.2c-1.1,1.2-2.8,2.6-5.1,2.6C121,121.8,119.1,120.3,119.2,117.7z M120.5,108.7c0-1.6,1.5-3.3,5.8-3.5
				v0.2c-1.3,0.2-2,1.2-2,2.3c0,1.2,0.8,1.9,2.1,2c-0.5,0.9-1.8,1.5-3.1,1.5C121.5,111.2,120.5,110,120.5,108.7z M129.7,118.2v-9.8
				c0-1.6-0.6-2.8-2.2-3v-0.2c5.3,0.2,7.4,2.2,7.4,6.4v7.8c0,0.9,0.3,1.3,0.9,1.3c0.5,0,1-0.5,1.5-1.4h0.2c-0.5,1.8-2.2,2.6-4.2,2.6
				C130.9,121.8,129.7,120.9,129.7,118.2z"/>
			<path class="st2" d="M138.6,121.3c1.9,0,2.4-0.8,2.4-1.6v-11.4c0-1.2-0.5-1.7-2.4-1.7v-0.2c3,0,5.4-0.3,7.6-1.2v14.5
				c0,0.8,0.5,1.6,2.4,1.6v0.2h-10.1V121.3z M149.9,121.3c1.9,0,2.4-0.8,2.4-1.6v-10c0-1.8-0.9-2.7-2.5-2.7c-0.9,0-1.7,0.3-2.4,1
				v-0.2c0.9-1.3,2.9-2.6,5.3-2.6c2.9,0,4.9,1.3,4.9,4.5v10c0,0.8,0.5,1.6,2.4,1.6v0.2h-10V121.3z"/>
			<path class="st2" d="M169.8,105.4c-1.9,0.2-2.7,1.8-2.7,7.9c0,4.6,2.3,7.1,5.2,7.1c1.8,0,3.2-0.5,4.7-1.7v0.2
				c-1.7,2.1-4.7,2.9-6.8,2.9c-4.1,0-8.5-3-8.5-8.4s4.4-8.2,8.2-8.3V105.4z M176.9,108.8c0,1.7-1.2,3.1-3.2,3.1c-1.6,0-2.6-1-2.8-2
				c0.9-0.4,1.5-1.5,1.5-2.3c0-0.7-0.2-1.9-1.4-2.1v-0.2C175.3,105.2,176.9,107,176.9,108.8z"/>
			<path class="st2" d="M179.3,113.5c0-5.4,4.1-8.2,7.8-8.3v0.2c-1.9,0.2-2.4,1.8-2.4,7.9c0,4.6,2,7.1,4.9,7.1
				c1.8,0,3.2-0.5,4.7-1.7v0.2c-1.7,2.1-4.7,2.9-6.8,2.9C183.5,121.8,179.3,118.8,179.3,113.5z M186.5,112.1c2.8,0,4-0.9,4-3.6
				c0-1.5-0.6-2.9-2.1-3.1v-0.2c4.2,0,6.3,3,6.3,5.4c0,0.5-0.1,1.2-0.2,1.7h-8V112.1z"/>
		</g>
	</g>
</g>
</svg>
