<?xml version="1.0" encoding="utf-8"?>
<!-- Generator: Adobe Illustrator 24.0.3, SVG Export Plug-In . SVG Version: 6.00 Build 0)  -->
<svg version="1.1" id="Layer_1" xmlns="http://www.w3.org/2000/svg" xmlns:xlink="http://www.w3.org/1999/xlink" x="0px" y="0px"
	 viewBox="0 0 300 250" style="enable-background:new 0 0 300 250;" xml:space="preserve">
<style type="text/css">
	.st0{enable-background:new    ;}
	.st1{fill:#FFFFFF;}
	.st2{fill:none;}
</style>
<title>Artboard 1 copy 5</title>
<g class="st0">
	<path class="st1" d="M48.2,83.8l0.1,0.2c-1.5,2.3-4,3.4-6.7,3.4c-4.6,0-10.2-3.2-10.2-9.8c0-7.1,5.5-9.7,9.6-9.8V68
		c-2,0.4-4.1,2.3-4.1,9.5c0,7.1,2.9,8.8,6,8.8C45.4,86.3,47.2,85,48.2,83.8z M48.5,67.8v6.8h-0.2c-1.1-3.7-3.2-5.9-5.9-6.6v-0.2
		c2.4,0.1,3.9,0.5,5.1,1.3l0.8-1.3H48.5z"/>
	<path class="st1" d="M56.9,85.5c0,0.7,0.4,1.4,2.1,1.4v0.2h-8.8V87c1.7,0,2.1-0.7,2.1-1.4V69.3c0-1-0.5-1.5-2.1-1.5v-0.2
		c2.6,0,4.7-0.3,6.7-1.1V85.5z M66.7,76.8v8.7c0,0.7,0.4,1.4,2.1,1.4v0.2H60V87c1.7,0,2.1-0.7,2.1-1.4v-8.7c0-1.6-0.8-2.4-2.2-2.4
		c-0.8,0-1.5,0.3-2.1,0.9v-0.2c0.8-1.2,2.6-2.3,4.6-2.3C64.9,72.9,66.7,74,66.7,76.8z"/>
	<path class="st1" d="M77.3,73c-1.7,0.2-2.2,1.6-2.2,7.1c0,5.3,0.6,7,2.2,7.2v0.2c-3.2,0-7-2.6-7-7.3s3.7-7.2,7-7.2V73z M85.4,80.1
		c0,4.7-3.7,7.3-6.9,7.3v-0.2c1.7-0.2,2.2-1.9,2.2-7.2c0-5.5-0.6-6.9-2.2-7.1v-0.2C81.7,72.9,85.4,75.4,85.4,80.1z"/>
	<path class="st1" d="M94.7,73c-1.7,0.2-2.2,1.6-2.2,7.1c0,5.3,0.6,7,2.2,7.2v0.2c-3.2,0-7-2.6-7-7.3s3.7-7.2,7-7.2V73z M102.7,80.1
		c0,4.7-3.7,7.3-6.9,7.3v-0.2c1.7-0.2,2.2-1.9,2.2-7.2c0-5.5-0.6-6.9-2.2-7.1v-0.2C99,72.9,102.7,75.4,102.7,80.1z"/>
	<path class="st1" d="M110,83.8c-0.9,0-1.6,0.6-1.6,1.4c0,0.8,0.6,1.8,2.5,2v0.2c-3.7-0.1-5.8-1.1-5.8-2.8c0-1.3,1.1-2.1,2.4-2.1
		C108.6,82.6,109.5,83.1,110,83.8z M110.9,73c-1,0.2-2,0.7-2,1.9c0.1,3.2,9.2,3.8,9.2,8.2c0,2.7-2.3,4.1-5.9,4.3v-0.2
		c1.2-0.2,2.5-0.6,2.5-2.1c0-2.9-9.2-4-9.2-8.2c0-2.5,2.3-3.9,5.5-4.1V73z M117.5,75.7c0,0.9-0.7,1.7-2.1,1.7c-1.2,0-2-0.5-2.4-1.3
		c0.8-0.1,1.3-0.6,1.3-1.3c0-0.8-1.1-1.7-2.2-1.8v-0.2C115.3,73,117.5,74.2,117.5,75.7z"/>
	<path class="st1" d="M120.4,80.1c0-4.7,3.6-7.2,6.9-7.2V73c-1.7,0.2-2.1,1.6-2.1,6.9c0,4,1.8,6.2,4.3,6.2c1.6,0,2.8-0.4,4.1-1.5
		v0.2c-1.5,1.8-4.1,2.5-5.9,2.5C124,87.4,120.4,84.8,120.4,80.1z M126.7,78.9c2.5,0,3.5-0.8,3.5-3.1c0-1.3-0.6-2.6-1.8-2.7v-0.2
		c3.7,0,5.5,2.6,5.5,4.8c0,0.4-0.1,1-0.1,1.5h-7V78.9z"/>
</g>
<g class="st0">
	<path class="st1" d="M150.4,87.3v0.2c-2.2-0.1-4-0.5-5.4-1.4l-0.9,1.4h-0.2v-6.8h0.2C145,83.8,147,86.1,150.4,87.3z M158.6,81.7
		c0,3.6-2.7,5.6-7,5.7v-0.2c1.5-0.3,3.1-1.2,3.1-2.9c0-4.9-10.7-5.3-10.7-11c0-3.4,2.7-5.3,6.4-5.5V68c-1.3,0.2-2.5,1-2.5,2.6
		C147.9,75.5,158.6,76,158.6,81.7z M151.6,68v-0.2c2.1,0.1,3.8,0.6,5,1.5l1-1.5h0.2v6.2h-0.2C156.8,71.1,154.3,68.7,151.6,68z"/>
</g>
<g class="st0">
	<path class="st1" d="M171.4,85v0.2c-0.9,1.3-2.7,2.3-4.8,2.3c-2.5,0-4.3-1.1-4.3-3.9v-9.2h-1.5l0.3-0.4h1.1v-3
		c1.7,0,3.4-0.5,4.6-1.6v4.6h3.8l-0.3,0.4h-3.5v9.3c0,1.4,0.5,2.9,1.8,2.9C169.5,86.4,170.5,85.9,171.4,85z"/>
	<path class="st1" d="M172.3,83.8c0-2.4,2.2-3.8,5.4-3.8h3v0.2h-0.8c-2,0-3,1.3-3,3.1c0,1.5,0.4,2.7,1.8,2.7c0.8,0,1.4-0.4,2-1v0.2
		c-0.9,1.1-2.4,2.3-4.5,2.3C173.9,87.4,172.3,86.1,172.3,83.8z M173.4,75.9c0-1.4,1.3-2.9,5.1-3.1V73c-1.1,0.2-1.8,1.1-1.8,2
		c0,1,0.7,1.6,1.8,1.7c-0.4,0.8-1.6,1.3-2.7,1.3C174.3,78.1,173.4,77.1,173.4,75.9z M181.5,84.3v-8.6c0-1.4-0.5-2.5-1.9-2.7v-0.2
		c4.6,0.2,6.5,1.9,6.5,5.6v6.8c0,0.8,0.3,1.1,0.8,1.1c0.4,0,0.9-0.4,1.3-1.3h0.2c-0.4,1.5-2,2.3-3.6,2.3
		C182.5,87.4,181.5,86.6,181.5,84.3z"/>
</g>
<g class="st0">
	<path class="st1" d="M196,85.5c0,0.7,0.4,1.4,2.1,1.4v0.2h-8.8V87c1.7,0,2.1-0.7,2.1-1.4v-9.9c0-1-0.5-1.5-2.1-1.5V74
		c2.6,0,4.7-0.3,6.7-1.1V85.5z M203.6,75.9c0,1.9-1.4,3.2-2.9,3.2c-0.7,0-1.3-0.2-1.6-0.6c0.5-0.3,1.1-0.9,1.1-1.9
		c0-0.8-0.6-1.5-1.6-1.5c-0.7,0-1.3,0.4-1.7,1.1v-0.2c0.5-1.8,1.9-3,3.6-3C202.5,72.9,203.6,74.2,203.6,75.9z"/>
</g>
<g class="st0">
	<path class="st1" d="M48.2,113.8l0.1,0.2c-1.5,2.3-4,3.4-6.7,3.4c-4.6,0-10.2-3.2-10.2-9.8c0-7.1,5.5-9.7,9.6-9.8V98
		c-2,0.4-4.1,2.3-4.1,9.5c0,7.1,2.9,8.8,6,8.8C45.4,116.3,47.2,115,48.2,113.8z M48.5,97.8v6.8h-0.2c-1.1-3.7-3.2-5.9-5.9-6.6v-0.2
		c2.4,0.1,3.9,0.5,5.1,1.3l0.8-1.3H48.5z"/>
	<path class="st1" d="M50.6,113.8c0-2.4,2.2-3.8,5.4-3.8h3v0.2h-0.8c-2,0-3,1.3-3,3.1c0,1.5,0.4,2.7,1.8,2.7c0.8,0,1.4-0.4,2-1v0.2
		c-0.9,1.1-2.4,2.3-4.5,2.3C52.1,117.4,50.6,116.1,50.6,113.8z M51.7,105.9c0-1.4,1.3-2.9,5.1-3.1v0.2c-1.1,0.2-1.8,1.1-1.8,2
		c0,1,0.7,1.6,1.8,1.7c-0.4,0.8-1.6,1.3-2.7,1.3C52.6,108.1,51.7,107.1,51.7,105.9z M59.8,114.3v-8.6c0-1.4-0.5-2.5-1.9-2.7v-0.2
		c4.6,0.2,6.5,1.9,6.5,5.6v6.8c0,0.8,0.3,1.1,0.8,1.1c0.4,0,0.9-0.4,1.3-1.3h0.2c-0.4,1.5-2,2.3-3.6,2.3
		C60.8,117.4,59.8,116.6,59.8,114.3z"/>
	<path class="st1" d="M74.3,115.5c0,0.7,0.4,1.4,2.1,1.4v0.2h-8.8V117c1.7,0,2.1-0.7,2.1-1.4v-9.9c0-1-0.5-1.5-2.1-1.5V104
		c2.6,0,4.7-0.3,6.7-1.1V115.5z M83.6,106.8v8.7c0,0.7,0.4,1.4,2.1,1.4v0.2h-8.8V117c1.7,0,2.1-0.7,2.1-1.4v-8.7
		c0-1.6-0.6-2.4-2-2.4c-0.8,0-1.5,0.4-1.8,0.8v-0.2c0.6-1.2,2-2.2,4.1-2.2C81.9,102.9,83.6,104,83.6,106.8z M92.9,106.8v8.7
		c0,0.7,0.4,1.4,2.1,1.4v0.2h-8.8V117c1.7,0,2.1-0.7,2.1-1.4v-8.7c0-1.6-0.6-2.4-2-2.4c-0.8,0-1.5,0.4-1.8,0.8v-0.2
		c0.6-1.2,2-2.2,4.1-2.2C91.2,102.9,92.9,104,92.9,106.8z"/>
	<path class="st1" d="M102.4,121.4c0,1,0.5,1.5,2.1,1.5v0.2c-2.6,0-4.3,0.3-6.7,1.1v-18.6c0-1-0.5-1.5-2.1-1.5v-0.2
		c2.6,0,4.3-0.3,6.7-1.1V121.4z M113.1,110c0,5.9-3.1,7.4-5.7,7.4c-1.6,0-3.4-1.1-4.1-2.3V115c0.7,0.5,1.5,1,2.4,1
		c1.3,0,2.7-0.9,2.7-6c0-5.1-1.3-5.7-2.7-5.7c-0.9,0-1.7,0.3-2.4,1v-0.2c0.7-1.2,2.5-2.2,4.1-2.2C110.1,102.9,113.1,104.4,113.1,110
		z"/>
	<path class="st1" d="M115.6,110.1c0-4.7,3.6-7.2,6.9-7.2v0.2c-1.7,0.2-2.1,1.6-2.1,6.9c0,4,1.8,6.2,4.3,6.2c1.6,0,2.8-0.4,4.1-1.5
		v0.2c-1.5,1.8-4.1,2.5-5.9,2.5C119.2,117.4,115.6,114.8,115.6,110.1z M121.9,108.9c2.5,0,3.5-0.8,3.5-3.1c0-1.3-0.6-2.6-1.8-2.7
		v-0.2c3.7,0,5.5,2.6,5.5,4.8c0,0.4-0.1,1-0.1,1.5h-7V108.9z"/>
	<path class="st1" d="M137.5,115.5c0,0.7,0.4,1.4,2.1,1.4v0.2h-8.8V117c1.7,0,2.1-0.7,2.1-1.4v-9.9c0-1-0.5-1.5-2.1-1.5V104
		c2.6,0,4.7-0.3,6.7-1.1V115.5z M145.1,105.9c0,1.9-1.4,3.2-2.9,3.2c-0.7,0-1.3-0.2-1.6-0.6c0.5-0.3,1.1-0.9,1.1-1.9
		c0-0.8-0.6-1.5-1.6-1.5c-0.7,0-1.3,0.4-1.7,1.1v-0.2c0.5-1.8,1.9-3,3.6-3C144,102.9,145.1,104.2,145.1,105.9z"/>
	<path class="st1" d="M163.8,113.8l0.1,0.2c-1.5,2.3-4,3.4-6.7,3.4c-4.6,0-10.2-3.2-10.2-9.8c0-7.1,5.5-9.7,9.6-9.8V98
		c-2,0.4-4.1,2.3-4.1,9.5c0,7.1,2.9,8.8,6,8.8C161,116.3,162.9,115,163.8,113.8z M164.1,97.8v6.8h-0.2c-1.1-3.7-3.2-5.9-5.9-6.6
		v-0.2c2.4,0.1,3.9,0.5,5.1,1.3l0.8-1.3H164.1z"/>
	<path class="st1" d="M166.2,113.8c0-2.4,2.2-3.8,5.4-3.8h3v0.2h-0.8c-2,0-3,1.3-3,3.1c0,1.5,0.4,2.7,1.8,2.7c0.8,0,1.4-0.4,2-1v0.2
		c-0.9,1.1-2.4,2.3-4.5,2.3C167.8,117.4,166.2,116.1,166.2,113.8z M167.3,105.9c0-1.4,1.3-2.9,5.1-3.1v0.2c-1.1,0.2-1.8,1.1-1.8,2
		c0,1,0.7,1.6,1.8,1.7c-0.4,0.8-1.6,1.3-2.7,1.3C168.2,108.1,167.3,107.1,167.3,105.9z M175.4,114.3v-8.6c0-1.4-0.5-2.5-1.9-2.7
		v-0.2c4.6,0.2,6.5,1.9,6.5,5.6v6.8c0,0.8,0.3,1.1,0.8,1.1c0.4,0,0.9-0.4,1.3-1.3h0.2c-0.4,1.5-2,2.3-3.6,2.3
		C176.4,117.4,175.4,116.6,175.4,114.3z"/>
</g>
<g class="st0">
	<path class="st1" d="M189.9,115.5c0,0.7,0.4,1.4,2.1,1.4v0.2h-8.8V117c1.7,0,2.1-0.7,2.1-1.4v-9.9c0-1-0.5-1.5-2.1-1.5V104
		c2.6,0,4.7-0.3,6.7-1.1V115.5z M197.5,105.9c0,1.9-1.4,3.2-2.9,3.2c-0.7,0-1.3-0.2-1.6-0.6c0.5-0.3,1.1-0.9,1.1-1.9
		c0-0.8-0.6-1.5-1.6-1.5c-0.7,0-1.3,0.4-1.7,1.1v-0.2c0.5-1.8,1.9-3,3.6-3C196.4,102.9,197.5,104.2,197.5,105.9z"/>
</g>
<g class="st0">
	<path class="st1" d="M199,110.1c0-4.7,3.6-7.2,6.9-7.2v0.2c-1.7,0.2-2.1,1.6-2.1,6.9c0,4,1.8,6.2,4.3,6.2c1.6,0,2.8-0.4,4.1-1.5
		v0.2c-1.5,1.8-4.1,2.5-5.9,2.5C202.6,117.4,199,114.8,199,110.1z M205.3,108.9c2.5,0,3.5-0.8,3.5-3.1c0-1.3-0.6-2.6-1.8-2.7v-0.2
		c3.7,0,5.5,2.6,5.5,4.8c0,0.4-0.1,1-0.1,1.5h-7V108.9z"/>
</g>
<rect y="0" class="st2" width="300" height="250"/>
</svg>
