<?xml version="1.0" encoding="utf-8"?>
<!-- Generator: Adobe Illustrator 24.0.3, SVG Export Plug-In . SVG Version: 6.00 Build 0)  -->
<svg version="1.1" id="Layer_1" xmlns="http://www.w3.org/2000/svg" xmlns:xlink="http://www.w3.org/1999/xlink" x="0px" y="0px"
	 viewBox="0 0 300 250" style="enable-background:new 0 0 300 250;" xml:space="preserve">
<style type="text/css">
	.st0{clip-path:url(#SVGID_2_);}
	.st1{enable-background:new    ;}
	.st2{fill:#FFFFFF;}
</style>
<title>Artboard 1 copy 2</title>
<g>
	<defs>
		<rect id="SVGID_1_" y="0" width="300" height="250"/>
	</defs>
	<clipPath id="SVGID_2_">
		<use xlink:href="#SVGID_1_"  style="overflow:visible;"/>
	</clipPath>
	<g class="st0">
		<g class="st1">
			<path class="st2" d="M28.9,56.9c1.9,0,2.4-0.7,2.4-1.6V37.2c0-0.9-0.5-1.6-2.4-1.6v-0.2h7.8v19.9c0,0.9,0.5,1.6,2.4,1.6v0.2H28.9
				V56.9z M38.3,35.6v-0.2h8.8v6.4h-0.3C45.4,37.2,43.2,35.9,38.3,35.6z M40.1,46.5l-1.8-0.2v-0.2l1.8-0.2c1.9-0.2,3.2-0.9,4.2-2.8
				h0.3v6h-0.3C43.2,47.3,42,46.6,40.1,46.5z"/>
		</g>
		<g class="st1">
			<path class="st2" d="M56.4,41c-1.9,0.2-2.5,1.8-2.5,8.1c0,6,0.6,8,2.5,8.2v0.2c-3.7,0-8-3-8-8.4s4.2-8.2,8-8.3V41z M65.6,49.1
				c0,5.3-4.3,8.4-7.9,8.4v-0.2c1.9-0.2,2.5-2.2,2.5-8.2c0-6.3-0.6-7.9-2.5-8.1v-0.2C61.4,40.8,65.6,43.7,65.6,49.1z"/>
		</g>
		<g class="st1">
			<path class="st2" d="M75.4,55.3c0,0.8,0.5,1.6,2.4,1.6v0.2H67.7v-0.2c1.9,0,2.4-0.8,2.4-1.6V44c0-1.2-0.5-1.7-2.4-1.7v-0.2
				c3,0,5.4-0.3,7.6-1.2V55.3z M84.1,44.3c0,2.2-1.6,3.6-3.3,3.6c-0.8,0-1.4-0.2-1.8-0.7c0.6-0.3,1.2-1,1.2-2.2
				c0-0.9-0.7-1.7-1.8-1.7c-0.8,0-1.5,0.5-1.9,1.2v-0.3c0.6-2,2.2-3.5,4.2-3.5C82.9,40.8,84.1,42.4,84.1,44.3z"/>
		</g>
		<g class="st1">
			<path class="st2" d="M100.4,55.3c0,0.8,0.5,1.6,2.4,1.6v0.2H92.7v-0.2c1.9,0,2.4-0.8,2.4-1.6V44c0-1.2-0.5-1.7-2.4-1.7v-0.2
				c3,0,5.4-0.3,7.6-1.2V55.3z M111,45.3v10c0,0.8,0.4,1.6,2.4,1.6v0.2h-10v-0.2c1.9,0,2.4-0.8,2.4-1.6v-10c0-1.8-0.7-2.7-2.2-2.7
				c-0.9,0-1.7,0.4-2.1,1v-0.2c0.7-1.3,2.3-2.6,4.7-2.6C109.1,40.8,111,42.2,111,45.3z M121.6,45.3v10c0,0.8,0.5,1.6,2.4,1.6v0.2
				h-10.1v-0.2c1.9,0,2.4-0.8,2.4-1.6v-10c0-1.8-0.7-2.7-2.2-2.7c-0.9,0-1.7,0.4-2.1,1v-0.2c0.7-1.3,2.3-2.6,4.7-2.6
				C119.7,40.8,121.6,42.2,121.6,45.3z"/>
			<path class="st2" d="M133.7,41c-1.9,0.2-2.5,1.8-2.5,8.1c0,6,0.6,8,2.5,8.2v0.2c-3.7,0-8-3-8-8.4s4.2-8.2,8-8.3V41z M142.9,49.1
				c0,5.3-4.3,8.4-7.9,8.4v-0.2c1.9-0.2,2.5-2.2,2.5-8.2c0-6.3-0.6-7.9-2.5-8.1v-0.2C138.7,40.8,142.9,43.7,142.9,49.1z"/>
		</g>
		<g class="st1">
			<path class="st2" d="M152.7,55.3c0,0.8,0.5,1.6,2.4,1.6v0.2H145v-0.2c1.9,0,2.4-0.8,2.4-1.6V44c0-1.2-0.5-1.7-2.4-1.7v-0.2
				c3,0,5.4-0.3,7.6-1.2V55.3z M161.3,44.3c0,2.2-1.6,3.6-3.3,3.6c-0.8,0-1.4-0.2-1.8-0.7c0.6-0.3,1.2-1,1.2-2.2
				c0-0.9-0.7-1.7-1.8-1.7c-0.8,0-1.5,0.5-1.9,1.2v-0.3c0.6-2,2.2-3.5,4.2-3.5C160.1,40.8,161.3,42.4,161.3,44.3z"/>
		</g>
		<g class="st1">
			<path class="st2" d="M163.1,49.1c0-5.4,4.1-8.2,7.8-8.3V41c-1.9,0.2-2.4,1.8-2.4,7.9c0,4.6,2,7.1,4.9,7.1c1.8,0,3.2-0.5,4.7-1.7
				v0.2c-1.7,2.1-4.7,2.9-6.8,2.9C167.2,57.5,163.1,54.5,163.1,49.1z M170.3,47.7c2.8,0,4-0.9,4-3.6c0-1.5-0.6-2.9-2.1-3.1v-0.2
				c4.2,0,6.3,3,6.3,5.4c0,0.5-0.1,1.2-0.2,1.7h-8V47.7z"/>
		</g>
		<g class="st1">
			<path class="st2" d="M28.8,81.1c0-5.4,4.1-8.2,7.8-8.3V73c-1.9,0.2-2.4,1.8-2.4,7.9c0,4.6,2,7.1,4.9,7.1c1.8,0,3.2-0.5,4.7-1.7
				v0.2c-1.7,2.1-4.7,2.9-6.8,2.9C33,89.5,28.8,86.5,28.8,81.1z M36,79.7c2.8,0,4-0.9,4-3.6c0-1.5-0.6-2.9-2.1-3.1v-0.2
				c4.2,0,6.3,3,6.3,5.4c0,0.5-0.1,1.2-0.2,1.7h-8V79.7z"/>
		</g>
		<g class="st1">
			<path class="st2" d="M46.9,74.5c-0.3-0.7-0.8-1.1-1.8-1.1v-0.2h9v0.2c-1.1,0-1.6,0.8-1,1.9l4.2,8.7l-2.8,5.2h-0.2L46.9,74.5z
				 M58.6,80.8c0.5-1,0.9-2.4,0.9-4.1c0-1.8-1-3.4-3.3-3.4v-0.2h8v0.2c-1.1,0-1.5,0.4-2.1,1.5l-3.3,6.3L58.6,80.8z"/>
		</g>
		<g class="st1">
			<path class="st2" d="M64.4,81.1c0-5.4,4.1-8.2,7.8-8.3V73c-1.9,0.2-2.4,1.8-2.4,7.9c0,4.6,2,7.1,4.9,7.1c1.8,0,3.2-0.5,4.7-1.7
				v0.2c-1.7,2.1-4.7,2.9-6.8,2.9C68.5,89.5,64.4,86.5,64.4,81.1z M71.6,79.7c2.8,0,4-0.9,4-3.6c0-1.5-0.6-2.9-2.1-3.1v-0.2
				c4.2,0,6.3,3,6.3,5.4c0,0.5-0.1,1.2-0.2,1.7h-8V79.7z"/>
			<path class="st2" d="M89.5,87.3c0,0.8,0.5,1.6,2.4,1.6v0.2H81.9v-0.2c1.9,0,2.4-0.8,2.4-1.6V76c0-1.2-0.5-1.7-2.4-1.7v-0.2
				c3,0,5.4-0.3,7.6-1.2V87.3z M98.2,76.3c0,2.2-1.6,3.6-3.3,3.6c-0.8,0-1.4-0.2-1.8-0.7c0.6-0.3,1.2-1,1.2-2.2
				c0-0.9-0.7-1.7-1.8-1.7c-0.8,0-1.5,0.5-1.9,1.2v-0.3c0.6-2,2.2-3.5,4.2-3.5C97,72.8,98.2,74.4,98.2,76.3z"/>
			<path class="st2" d="M100.3,74.5c-0.3-0.7-0.8-1.1-1.8-1.1v-0.2h9v0.2c-1.1,0-1.6,0.8-1,1.9l4.2,8.7l-2.8,5.2h-0.2L100.3,74.5z
				 M98.9,94.3c0-1.4,1.1-2.5,2.8-3c-0.1,0.3-0.1,0.5-0.1,0.8c0,1.2,0.6,2.1,1.9,2.1c1.1,0,2-1.2,3.2-3.2h0.2
				c-1.8,3.3-3,6.1-5.2,6.1C100,97.1,98.9,95.9,98.9,94.3z M112.1,80.8c0.5-1,0.9-2.4,0.9-4.1c0-1.8-1-3.4-3.3-3.4v-0.2h8v0.2
				c-1.1,0-1.5,0.4-2.1,1.5l-3.3,6.3L112.1,80.8z"/>
			<path class="st2" d="M130.2,86.7v0.2c-1,1.5-3.1,2.6-5.5,2.6c-2.9,0-4.9-1.3-4.9-4.5V74.5h-1.7l0.4-0.5h1.3v-3.5
				c2,0,3.9-0.6,5.2-1.8V74h4.3l-0.4,0.5h-4V85c0,1.6,0.6,3.3,2.1,3.3C128.1,88.3,129.1,87.7,130.2,86.7z"/>
			<path class="st2" d="M138.5,87.3c0,0.8,0.5,1.6,2.4,1.6v0.2h-10.1v-0.2c1.9,0,2.4-0.8,2.4-1.6V68.8c0-1.2-0.5-1.7-2.4-1.7v-0.2
				c3,0,5.4-0.3,7.6-1.2V87.3z M149.7,77.3v10c0,0.8,0.5,1.6,2.4,1.6v0.2h-10v-0.2c1.9,0,2.4-0.8,2.4-1.6v-10c0-1.8-0.9-2.7-2.5-2.7
				c-0.9,0-1.7,0.3-2.4,1v-0.2c0.9-1.3,2.9-2.6,5.3-2.6C147.6,72.8,149.7,74.2,149.7,77.3z"/>
			<path class="st2" d="M153.3,74c3,0,5.4-0.3,7.6-1.2v14.5c0,0.8,0.5,1.6,2.4,1.6v0.2h-10.1v-0.2c1.9,0,2.4-0.8,2.4-1.6V75.9
				c0-1.2-0.5-1.7-2.4-1.7V74z M154.9,68c0-1.7,1.3-2.8,3.3-2.8s3.3,1.1,3.3,2.8c0,1.7-1.3,2.8-3.3,2.8S154.9,69.7,154.9,68z"/>
			<path class="st2" d="M164.7,88.9c1.9,0,2.4-0.8,2.4-1.6V76c0-1.2-0.5-1.7-2.4-1.7v-0.2c3,0,5.4-0.3,7.6-1.2v14.5
				c0,0.8,0.5,1.6,2.4,1.6v0.2h-10.1V88.9z M175.9,88.9c1.9,0,2.4-0.8,2.4-1.6v-10c0-1.8-0.9-2.7-2.5-2.7c-0.9,0-1.7,0.3-2.4,1v-0.2
				c0.9-1.3,2.9-2.6,5.3-2.6c2.9,0,4.9,1.3,4.9,4.5v10c0,0.8,0.5,1.6,2.4,1.6v0.2h-10V88.9z"/>
			<path class="st2" d="M187.9,78.6c0-4.2,3.9-5.7,7.2-5.8V73c-1.4,0.1-2,1.8-2,5.5c0,3.9,0.6,5.4,2,5.6v0.2
				C191.8,84.3,187.9,82.7,187.9,78.6z M196.4,96.9c3.2-0.4,4.2-2.1,4.2-3.3c0-4.4-12.5-0.5-12.5-6.2c0-1.3,0.7-2.3,2.1-3.3l0.1,0.2
				c-0.2,0.1-0.3,0.4-0.3,0.6c0,3.6,14.6-0.6,14.6,6.4c0,3.3-2.8,5.4-8.3,5.8V96.9z M188.1,94.3c0-1.9,2.3-2.5,4.9-2.5
				c-0.6,0.3-1.4,1.2-1.4,2.3c0,1.5,1.7,2.6,3.5,2.9v0.2C191.7,97.1,188.1,96.4,188.1,94.3z M196.4,84.1c1.6-0.1,2.2-1.7,2.2-5.6
				c0-3.7-0.7-5.4-2.2-5.5v-0.2c3.4,0.1,7.3,1.6,7.3,5.8c0,4.1-3.9,5.7-7.3,5.7V84.1z M198.1,72.2c0.5-1.6,2-3.8,4.2-3.8
				c1.7,0,2.7,0.9,2.7,2.4c0,1.6-1.4,2.5-2.6,2.5c0-1.3-0.7-2.1-1.7-2.1c-1,0-2,0.6-2.5,1.2L198.1,72.2z"/>
		</g>
		<g class="st1">
			<path class="st2" d="M40.7,118.7v0.2c-1,1.5-3.1,2.6-5.5,2.6c-2.9,0-4.9-1.3-4.9-4.5v-10.5h-1.7L29,106h1.3v-3.5
				c2,0,3.9-0.6,5.2-1.8v5.2h4.3l-0.4,0.5h-4V117c0,1.6,0.6,3.3,2.1,3.3C38.5,120.3,39.6,119.7,40.7,118.7z"/>
			<path class="st2" d="M48.9,119.3c0,0.8,0.5,1.6,2.4,1.6v0.2H41.2v-0.2c1.9,0,2.4-0.8,2.4-1.6v-18.6c0-1.2-0.5-1.7-2.4-1.7v-0.2
				c3,0,5.4-0.3,7.6-1.2V119.3z M60.1,109.3v10c0,0.8,0.5,1.6,2.4,1.6v0.2h-10v-0.2c1.9,0,2.4-0.8,2.4-1.6v-10
				c0-1.8-0.9-2.7-2.5-2.7c-0.9,0-1.7,0.3-2.4,1v-0.2c0.9-1.3,2.9-2.6,5.3-2.6C58.1,104.8,60.1,106.2,60.1,109.3z"/>
			<path class="st2" d="M63.9,117.4c0-2.8,2.6-4.4,6.1-4.4h3.5v0.2h-1c-2.3,0-3.4,1.5-3.4,3.5c0,1.8,0.5,3.1,2,3.1
				c0.9,0,1.6-0.5,2.3-1.1v0.2c-1.1,1.2-2.8,2.6-5.1,2.6C65.7,121.5,63.9,119.9,63.9,117.4z M65.2,108.3c0-1.6,1.5-3.3,5.8-3.5v0.2
				c-1.3,0.2-2,1.2-2,2.3c0,1.2,0.8,1.9,2.1,2c-0.5,0.9-1.8,1.5-3.1,1.5C66.2,110.8,65.2,109.7,65.2,108.3z M74.5,117.8v-9.8
				c0-1.6-0.6-2.8-2.2-3v-0.2c5.3,0.2,7.4,2.2,7.4,6.4v7.8c0,0.9,0.3,1.3,0.9,1.3c0.5,0,1-0.5,1.5-1.4h0.2c-0.5,1.8-2.2,2.6-4.2,2.6
				C75.6,121.5,74.5,120.6,74.5,117.8z"/>
			<path class="st2" d="M83.4,120.9c1.9,0,2.4-0.8,2.4-1.6V108c0-1.2-0.5-1.7-2.4-1.7v-0.2c3,0,5.4-0.3,7.6-1.2v14.5
				c0,0.8,0.5,1.6,2.4,1.6v0.2H83.4V120.9z M94.6,120.9c1.9,0,2.4-0.8,2.4-1.6v-10c0-1.8-0.9-2.7-2.5-2.7c-0.9,0-1.7,0.3-2.4,1v-0.2
				c0.9-1.3,2.9-2.6,5.3-2.6c2.9,0,4.9,1.3,4.9,4.5v10c0,0.8,0.5,1.6,2.4,1.6v0.2h-10V120.9z"/>
			<path class="st2" d="M114.2,117.4c0-2.8,2.6-4.4,6.1-4.4h3.5v0.2h-1c-2.3,0-3.4,1.5-3.4,3.5c0,1.8,0.5,3.1,2,3.1
				c0.9,0,1.6-0.5,2.3-1.1v0.2c-1.1,1.2-2.8,2.6-5.1,2.6C116,121.5,114.2,119.9,114.2,117.4z M115.5,108.3c0-1.6,1.5-3.3,5.8-3.5
				v0.2c-1.3,0.2-2,1.2-2,2.3c0,1.2,0.8,1.9,2.1,2c-0.5,0.9-1.8,1.5-3.1,1.5C116.5,110.8,115.5,109.7,115.5,108.3z M124.8,117.8
				v-9.8c0-1.6-0.6-2.8-2.2-3v-0.2c5.3,0.2,7.4,2.2,7.4,6.4v7.8c0,0.9,0.3,1.3,0.9,1.3c0.5,0,1-0.5,1.5-1.4h0.2
				c-0.5,1.8-2.2,2.6-4.2,2.6C125.9,121.5,124.8,120.6,124.8,117.8z"/>
		</g>
		<g class="st1">
			<path class="st2" d="M133.6,120.9c1.9,0,2.4-0.8,2.4-1.6V108c0-1.2-0.5-1.7-2.4-1.7v-0.2c3,0,5.4-0.3,7.6-1.2v14.5
				c0,0.8,0.5,1.6,2.4,1.6v0.2h-10.1V120.9z M144.9,120.9c1.9,0,2.4-0.8,2.4-1.6v-10c0-1.8-0.9-2.7-2.5-2.7c-0.9,0-1.7,0.3-2.4,1
				v-0.2c0.9-1.3,2.9-2.6,5.3-2.6c2.9,0,4.9,1.3,4.9,4.5v10c0,0.8,0.5,1.6,2.4,1.6v0.2h-10V120.9z"/>
		</g>
		<g class="st1">
			<path class="st2" d="M156.2,106.5c-0.3-0.7-0.8-1.1-1.8-1.1v-0.2h9v0.2c-1.1,0-1.6,0.8-1,1.9l4.2,8.7l-2.8,5.2h-0.2L156.2,106.5z
				 M154.8,126.3c0-1.4,1.1-2.5,2.8-3c-0.1,0.3-0.1,0.5-0.1,0.8c0,1.2,0.6,2.1,1.9,2.1c1.1,0,2-1.2,3.2-3.2h0.2
				c-1.8,3.3-3,6.1-5.2,6.1C155.8,129.1,154.8,127.9,154.8,126.3z M167.9,112.8c0.5-1,0.9-2.4,0.9-4.1c0-1.8-1-3.4-3.3-3.4v-0.2h8
				v0.2c-1.1,0-1.5,0.4-2.1,1.5l-3.3,6.3L167.9,112.8z"/>
		</g>
		<g class="st1">
			<path class="st2" d="M181.6,105c-1.9,0.2-2.5,1.8-2.5,8.1c0,6,0.6,8,2.5,8.2v0.2c-3.7,0-8-3-8-8.4s4.2-8.2,8-8.3V105z
				 M190.8,113.1c0,5.3-4.3,8.4-7.9,8.4v-0.2c1.9-0.2,2.5-2.2,2.5-8.2c0-6.3-0.6-7.9-2.5-8.1v-0.2
				C186.6,104.8,190.8,107.7,190.8,113.1z"/>
			<path class="st2" d="M193,120.9c1.9,0,2.4-0.8,2.4-1.6V108c0-1.2-0.5-1.7-2.4-1.7v-0.2c3,0,5.4-0.3,7.6-1.2v14.5
				c0,0.8,0.5,1.6,2.4,1.6v0.2H193V120.9z M204.2,120.9c1.9,0,2.4-0.8,2.4-1.6v-10c0-1.8-0.9-2.7-2.5-2.7c-0.9,0-1.7,0.3-2.4,1v-0.2
				c0.9-1.3,2.9-2.6,5.3-2.6c2.9,0,4.9,1.3,4.9,4.5v10c0,0.8,0.5,1.6,2.4,1.6v0.2h-10V120.9z"/>
			<path class="st2" d="M216,113.1c0-5.4,4.1-8.2,7.8-8.3v0.2c-1.9,0.2-2.4,1.8-2.4,7.9c0,4.6,2,7.1,4.9,7.1c1.8,0,3.2-0.5,4.7-1.7
				v0.2c-1.7,2.1-4.7,2.9-6.8,2.9C220.1,121.5,216,118.5,216,113.1z M223.2,111.7c2.8,0,4-0.9,4-3.6c0-1.5-0.6-2.9-2.1-3.1v-0.2
				c4.2,0,6.3,3,6.3,5.4c0,0.5-0.1,1.2-0.2,1.7h-8V111.7z"/>
		</g>
		<g class="st1">
			<path class="st2" d="M28.8,145.1c0-5.4,4.1-8.2,7.8-8.3v0.2c-1.9,0.2-2.4,1.8-2.4,7.9c0,4.6,2,7.1,4.9,7.1c1.8,0,3.2-0.5,4.7-1.7
				v0.2c-1.7,2.1-4.7,2.9-6.8,2.9C33,153.5,28.8,150.5,28.8,145.1z M36,143.7c2.8,0,4-0.9,4-3.6c0-1.5-0.6-2.9-2.1-3.1v-0.2
				c4.2,0,6.3,3,6.3,5.4c0,0.5-0.1,1.2-0.2,1.7h-8V143.7z"/>
			<path class="st2" d="M46.1,130.9c3,0,5.4-0.3,7.6-1.2v21.7c0,0.8,0.5,1.6,2.4,1.6v0.2H46.1v-0.2c1.9,0,2.4-0.8,2.4-1.6v-18.6
				c0-1.2-0.5-1.7-2.4-1.7V130.9z"/>
			<path class="st2" d="M63.6,149.3c-1.1,0-1.8,0.6-1.8,1.6c0,0.9,0.6,2.1,2.8,2.3v0.2c-4.3-0.2-6.6-1.3-6.6-3.2
				c0-1.5,1.3-2.4,2.7-2.4C62.1,147.9,63.2,148.5,63.6,149.3z M64.7,137c-1.2,0.2-2.3,0.8-2.3,2.1c0.1,3.7,10.5,4.3,10.5,9.4
				c0,3.1-2.6,4.7-6.8,4.9v-0.2c1.3-0.2,2.8-0.7,2.8-2.4c0-3.3-10.5-4.5-10.5-9.4c0-2.8,2.7-4.5,6.2-4.7V137z M72.3,140.1
				c0,1-0.8,2-2.4,2c-1.3,0-2.3-0.6-2.7-1.5c1-0.1,1.5-0.7,1.4-1.5c0-1-1.2-1.9-2.5-2v-0.2C69.7,137,72.3,138.3,72.3,140.1z"/>
			<path class="st2" d="M75.6,145.1c0-5.4,4.1-8.2,7.8-8.3v0.2c-1.9,0.2-2.4,1.8-2.4,7.9c0,4.6,2,7.1,4.9,7.1c1.8,0,3.2-0.5,4.7-1.7
				v0.2c-1.7,2.1-4.7,2.9-6.8,2.9C79.7,153.5,75.6,150.5,75.6,145.1z M82.8,143.7c2.8,0,4-0.9,4-3.6c0-1.5-0.6-2.9-2.1-3.1v-0.2
				c4.2,0,6.3,3,6.3,5.4c0,0.5-0.1,1.2-0.2,1.7h-8V143.7z"/>
		</g>
	</g>
</g>
</svg>
