<?xml version="1.0" encoding="utf-8"?>
<!-- Generator: Adobe Illustrator 24.0.3, SVG Export Plug-In . SVG Version: 6.00 Build 0)  -->
<svg version="1.1" id="Layer_1" xmlns="http://www.w3.org/2000/svg" xmlns:xlink="http://www.w3.org/1999/xlink" x="0px" y="0px"
	 viewBox="0 0 300 250" style="enable-background:new 0 0 300 250;" xml:space="preserve">
<style type="text/css">
	.st0{enable-background:new    ;}
	.st1{fill:#263845;}
	.st2{fill:none;}
</style>
<title>Artboard 1 copy 7</title>
<g class="st0">
	<path class="st1" d="M40.4,57v0.2h-9V57c1.7,0,2.1-0.7,2.1-1.4V39.7c0-0.8-0.4-1.4-2.1-1.4v-0.2h6.9v17.4
		C38.3,56.3,38.7,57,40.4,57z M51.3,55.2c-0.4,1.5-2.1,2.3-4.1,2.3c-3.6,0-4.5-2.5-4.6-4.9c-0.2-2.3-0.4-4.1-2.9-4.5v-0.2
		c2.6,0,3.7-2.2,3.7-5c0-3.1-1.1-4.6-3.7-4.6v-0.2c5.7,0,8.5,1.3,8.5,4.8c0,3-2.2,4.9-6.4,5.1c5.1,0.2,5.9,2.2,6.2,4.5
		c0.3,2.3,0.9,3.9,1.8,3.9c0.5,0,1-0.4,1.4-1.3H51.3z"/>
</g>
<g class="st0">
	<path class="st1" d="M51.9,50.1c0-4.7,3.6-7.2,6.9-7.2V43c-1.7,0.2-2.1,1.6-2.1,6.9c0,4,1.8,6.2,4.3,6.2c1.6,0,2.8-0.4,4.1-1.5v0.2
		c-1.5,1.8-4.1,2.5-5.9,2.5C55.5,57.4,51.9,54.8,51.9,50.1z M58.2,48.9c2.5,0,3.5-0.8,3.5-3.1c0-1.3-0.6-2.6-1.8-2.7v-0.2
		c3.7,0,5.5,2.6,5.5,4.8c0,0.4-0.1,1-0.1,1.5h-7V48.9z"/>
	<path class="st1" d="M67.4,53.8c0-2.4,2.2-3.8,5.4-3.8h3v0.2H75c-2,0-3,1.3-3,3.1c0,1.5,0.4,2.7,1.8,2.7c0.8,0,1.4-0.4,2-1v0.2
		c-0.9,1.1-2.4,2.3-4.5,2.3C69,57.4,67.4,56.1,67.4,53.8z M68.5,45.9c0-1.4,1.3-2.9,5.1-3.1V43c-1.1,0.2-1.8,1.1-1.8,2
		c0,1,0.7,1.6,1.8,1.7c-0.4,0.8-1.6,1.3-2.7,1.3C69.4,48.1,68.5,47.1,68.5,45.9z M76.6,54.3v-8.6c0-1.4-0.5-2.5-1.9-2.7v-0.2
		c4.6,0.2,6.5,1.9,6.5,5.6v6.8c0,0.8,0.3,1.1,0.8,1.1c0.4,0,0.9-0.4,1.3-1.3h0.2c-0.4,1.5-2,2.3-3.6,2.3
		C77.6,57.4,76.6,56.6,76.6,54.3z"/>
	<path class="st1" d="M84.3,37.7c2.6,0,4.7-0.3,6.7-1.1v19c0,0.7,0.4,1.4,2.1,1.4v0.2h-8.8V57c1.7,0,2.1-0.7,2.1-1.4V39.3
		c0-1-0.5-1.5-2.1-1.5V37.7z"/>
</g>
<g class="st0">
	<path class="st1" d="M36.9,75l3.7,7.6l-2.4,4.5H38l-6.5-12.9c-0.3-0.6-0.7-1-1.5-1v-0.2h7.8v0.2C36.9,73.3,36.5,74,36.9,75z
		 M46.2,75l3.7,7.6l-2.4,4.5h-0.2l-4.4-8.7L42,80.1l-0.2-0.3c0.4-0.9,0.6-2.3,0.2-3.1l-1.3-2.5c-0.3-0.6-0.7-1-1.5-1v-0.2H47v0.2
		C46.1,73.3,45.7,74,46.2,75z M55.9,73.1v0.2c-0.9,0-1.3,0.4-1.8,1.3l-2.9,5.5L51,79.9c0.5-0.9,0.8-2.1,0.8-3.6
		c0-1.5-0.9-2.9-2.9-2.9v-0.2H55.9z"/>
</g>
<g class="st0">
	<path class="st1" d="M63.1,73c-1.7,0.2-2.2,1.6-2.2,7.1c0,5.3,0.6,7,2.2,7.2v0.2c-3.2,0-7-2.6-7-7.3s3.7-7.2,7-7.2V73z M71.2,80.1
		c0,4.7-3.7,7.3-6.9,7.3v-0.2c1.7-0.2,2.2-1.9,2.2-7.2c0-5.5-0.6-6.9-2.2-7.1v-0.2C67.5,72.9,71.2,75.4,71.2,80.1z"/>
	<path class="st1" d="M79.7,85.5c0,0.7,0.4,1.4,2.1,1.4v0.2H73V87c1.7,0,2.1-0.7,2.1-1.4v-9.9c0-1-0.5-1.5-2.1-1.5V74
		c2.6,0,4.7-0.3,6.7-1.1V85.5z M87.3,75.9c0,1.9-1.4,3.2-2.9,3.2c-0.7,0-1.3-0.2-1.6-0.6c0.5-0.3,1.1-0.9,1.1-1.9
		c0-0.8-0.6-1.5-1.6-1.5c-0.7,0-1.3,0.4-1.7,1.1v-0.2c0.5-1.8,1.9-3,3.6-3C86.2,72.9,87.3,74.2,87.3,75.9z"/>
	<path class="st1" d="M88.3,67.7c2.6,0,4.7-0.3,6.7-1.1v19c0,0.7,0.4,1.4,2.1,1.4v0.2h-8.8V87c1.7,0,2.1-0.7,2.1-1.4V69.3
		c0-1-0.5-1.5-2.1-1.5V67.7z"/>
	<path class="st1" d="M108.7,75.1v0.2c-0.6-0.7-1.5-1-2.3-1c-1.4,0-2.7,0.6-2.7,5.7c0,5,1.4,6,2.7,6c0.9,0,1.6-0.4,2.3-1v0.2
		c-0.7,1.2-2.5,2.3-4.1,2.3c-2.7,0-5.8-1.6-5.8-7.4c0-5.6,3.1-7.1,5.8-7.1C106.3,72.9,108,73.9,108.7,75.1z M114.2,85.3
		c0,0.8,0.3,1.1,0.8,1.1c0.4,0,0.9-0.4,1.3-1.3h0.2c-0.4,1.5-2,2.3-3.6,2.3c-2.2,0-3.2-0.8-3.2-3.2v-15c0-1-0.5-1.5-2.1-1.5v-0.2
		c2.6,0,4.3-0.3,6.7-1.1V85.3z"/>
</g>
<g class="st0">
	<path class="st1" d="M134.2,87v0.2h-9V87c1.7,0,2.1-0.7,2.1-1.4V69.7c0-0.8-0.4-1.4-2.1-1.4v-0.2h6.9v17.4
		C132.1,86.3,132.5,87,134.2,87z M145.1,85.2c-0.4,1.5-2.1,2.3-4.1,2.3c-3.6,0-4.5-2.5-4.6-4.9c-0.2-2.3-0.4-4.1-2.9-4.5v-0.2
		c2.6,0,3.7-2.2,3.7-5c0-3.1-1.1-4.6-3.7-4.6v-0.2c5.7,0,8.5,1.3,8.5,4.8c0,3-2.2,4.9-6.4,5.1c5.1,0.2,5.9,2.2,6.2,4.5
		c0.3,2.3,0.9,3.9,1.8,3.9c0.5,0,1-0.4,1.4-1.3H145.1z"/>
</g>
<g class="st0">
	<path class="st1" d="M145.6,69.7c-0.5-1.1-1.1-1.5-2.5-1.5v-0.2h10.1v0.2c-1.3,0-2.4,0.8-1.7,2.3l5.3,11.1l-2.5,5.7h-0.3
		L145.6,69.7z M157.8,79.1c1.6-3.8,2-6,2-7.8c0-2-1.7-3.1-3.2-3.1v-0.2h8.1v0.1c-1.3,0-2.1,1.2-3,3.1l-3.8,8.1L157.8,79.1z"/>
</g>
<g class="st0">
	<path class="st1" d="M30.9,103.9c2.6,0,4.7-0.3,6.7-1.1v12.7c0,0.7,0.4,1.4,2.1,1.4v0.2h-8.8V117c1.7,0,2.1-0.7,2.1-1.4v-10
		c0-1-0.5-1.5-2.1-1.5V103.9z M32.4,98.7c0-1.5,1.2-2.4,2.9-2.4c1.7,0,2.9,1,2.9,2.4c0,1.5-1.2,2.5-2.9,2.5
		C33.6,101.1,32.4,100.1,32.4,98.7z"/>
	<path class="st1" d="M40.9,117c1.7,0,2.1-0.7,2.1-1.4v-9.9c0-1-0.5-1.5-2.1-1.5V104c2.6,0,4.7-0.3,6.7-1.1v12.7
		c0,0.7,0.4,1.4,2.1,1.4v0.2h-8.8V117z M50.8,117c1.7,0,2.1-0.7,2.1-1.4v-8.7c0-1.6-0.8-2.4-2.2-2.4c-0.8,0-1.5,0.3-2.1,0.9v-0.2
		c0.8-1.2,2.6-2.3,4.6-2.3c2.5,0,4.3,1.2,4.3,3.9v8.7c0,0.7,0.4,1.4,2.1,1.4v0.2h-8.8V117z"/>
	<path class="st1" d="M65.9,113.8c-0.9,0-1.6,0.6-1.6,1.4c0,0.8,0.6,1.8,2.5,2v0.2c-3.7-0.1-5.8-1.1-5.8-2.8c0-1.3,1.1-2.1,2.4-2.1
		C64.6,112.6,65.5,113.1,65.9,113.8z M66.9,103c-1,0.2-2,0.7-2,1.9c0.1,3.2,9.2,3.8,9.2,8.2c0,2.7-2.3,4.1-5.9,4.3v-0.2
		c1.2-0.2,2.5-0.6,2.5-2.1c0-2.9-9.2-4-9.2-8.2c0-2.5,2.3-3.9,5.5-4.1V103z M73.5,105.7c0,0.9-0.7,1.7-2.1,1.7c-1.2,0-2-0.5-2.4-1.3
		c0.8-0.1,1.3-0.6,1.3-1.3c0-0.8-1.1-1.7-2.2-1.8v-0.2C71.3,103,73.5,104.2,73.5,105.7z"/>
	<path class="st1" d="M82.3,113.5c0,1.6,0.5,2.4,1.9,2.4c0.7,0,1.3-0.2,1.9-0.9v0.2c-0.6,1.2-2.1,2.3-4.3,2.3
		c-2.5,0-4.1-1.2-4.1-3.9v-7.9c0-1-0.5-1.5-2.1-1.5V104c2.6,0,4.7-0.3,6.7-1.1V113.5z M91.6,115.3c0,0.8,0.3,1.1,0.8,1.1
		c0.4,0,0.9-0.4,1.3-1.3h0.2c-0.4,1.5-2,2.3-3.8,2.3c-2,0-3.1-1.1-3.1-2.7v-9.1c0-1-0.5-1.5-2-1.5V104c2.5,0,4.3-0.3,6.6-1.1V115.3z
		"/>
</g>
<g class="st0">
	<path class="st1" d="M101.7,115.5c0,0.7,0.4,1.4,2.1,1.4v0.2H95V117c1.7,0,2.1-0.7,2.1-1.4v-9.9c0-1-0.5-1.5-2.1-1.5V104
		c2.6,0,4.7-0.3,6.7-1.1V115.5z M109.3,105.9c0,1.9-1.4,3.2-2.9,3.2c-0.7,0-1.3-0.2-1.6-0.6c0.5-0.3,1.1-0.9,1.1-1.9
		c0-0.8-0.6-1.5-1.6-1.5c-0.7,0-1.3,0.4-1.7,1.1v-0.2c0.5-1.8,1.9-3,3.6-3C108.2,102.9,109.3,104.2,109.3,105.9z"/>
</g>
<g class="st0">
	<path class="st1" d="M110.5,113.8c0-2.4,2.2-3.8,5.4-3.8h3v0.2H118c-2,0-3,1.3-3,3.1c0,1.5,0.4,2.7,1.8,2.7c0.8,0,1.4-0.4,2-1v0.2
		c-0.9,1.1-2.4,2.3-4.5,2.3C112,117.4,110.4,116.1,110.5,113.8z M111.6,105.9c0-1.4,1.3-2.9,5.1-3.1v0.2c-1.1,0.2-1.8,1.1-1.8,2
		c0,1,0.7,1.6,1.8,1.7c-0.4,0.8-1.6,1.3-2.7,1.3C112.5,108.1,111.6,107.1,111.6,105.9z M119.7,114.3v-8.6c0-1.4-0.5-2.5-1.9-2.7
		v-0.2c4.6,0.2,6.5,1.9,6.5,5.6v6.8c0,0.8,0.3,1.1,0.8,1.1c0.4,0,0.9-0.4,1.3-1.3h0.2c-0.4,1.5-2,2.3-3.6,2.3
		C120.7,117.4,119.7,116.6,119.7,114.3z"/>
	<path class="st1" d="M127.5,117c1.7,0,2.1-0.7,2.1-1.4v-9.9c0-1-0.5-1.5-2.1-1.5V104c2.6,0,4.7-0.3,6.7-1.1v12.7
		c0,0.7,0.4,1.4,2.1,1.4v0.2h-8.8V117z M137.3,117c1.7,0,2.1-0.7,2.1-1.4v-8.7c0-1.6-0.8-2.4-2.2-2.4c-0.8,0-1.5,0.3-2.1,0.9v-0.2
		c0.8-1.2,2.6-2.3,4.6-2.3c2.5,0,4.3,1.2,4.3,3.9v8.7c0,0.7,0.4,1.4,2.1,1.4v0.2h-8.8V117z"/>
	<path class="st1" d="M154.8,103c-1.7,0.2-2.4,1.6-2.4,6.9c0,4,2,6.2,4.5,6.2c1.6,0,2.8-0.4,4.1-1.5v0.2c-1.5,1.8-4.1,2.5-5.9,2.5
		c-3.6,0-7.5-2.6-7.5-7.3s3.9-7.2,7.2-7.2V103z M161,106c0,1.5-1,2.7-2.8,2.7c-1.4,0-2.3-0.9-2.4-1.8c0.8-0.3,1.3-1.3,1.3-2
		c0-0.6-0.2-1.7-1.2-1.8v-0.2C159.6,102.9,161,104.4,161,106z"/>
	<path class="st1" d="M163.1,110.1c0-4.7,3.6-7.2,6.9-7.2v0.2c-1.7,0.2-2.1,1.6-2.1,6.9c0,4,1.8,6.2,4.3,6.2c1.6,0,2.8-0.4,4.1-1.5
		v0.2c-1.5,1.8-4.1,2.5-5.9,2.5C166.7,117.4,163.1,114.8,163.1,110.1z M169.4,108.9c2.5,0,3.5-0.8,3.5-3.1c0-1.3-0.6-2.6-1.8-2.7
		v-0.2c3.7,0,5.5,2.6,5.5,4.8c0,0.4-0.1,1-0.1,1.5h-7V108.9z"/>
</g>
<rect y="0" class="st2" width="300" height="250"/>
</svg>
