<?xml version="1.0" encoding="utf-8"?>
<!-- Generator: Adobe Illustrator 24.0.3, SVG Export Plug-In . SVG Version: 6.00 Build 0)  -->
<svg version="1.1" id="Layer_1" xmlns="http://www.w3.org/2000/svg" xmlns:xlink="http://www.w3.org/1999/xlink" x="0px" y="0px"
	 viewBox="0 0 300 250" style="enable-background:new 0 0 300 250;" xml:space="preserve">
<style type="text/css">
	.st0{enable-background:new    ;}
	.st1{fill:#FFFFFF;}
	.st2{fill:none;}
</style>
<title>Artboard 1 copy 2</title>
<g class="st0">
	<path class="st1" d="M31.2,57c1.7,0,2.1-0.6,2.1-1.4V39.7c0-0.8-0.4-1.4-2.1-1.4v-0.2h6.9v17.4c0,0.8,0.4,1.4,2.1,1.4v0.2h-9V57z
		 M39.5,38.3v-0.2h7.7v5.6h-0.2C45.7,39.7,43.7,38.5,39.5,38.3z M41,47.8l-1.5-0.1v-0.2l1.5-0.1c1.7-0.1,2.8-0.8,3.7-2.4h0.2v5.2
		h-0.2C43.8,48.5,42.7,47.9,41,47.8z"/>
</g>
<g class="st0">
	<path class="st1" d="M55.3,43c-1.7,0.2-2.2,1.6-2.2,7.1c0,5.3,0.6,7,2.2,7.2v0.2c-3.2,0-7-2.6-7-7.3s3.7-7.2,7-7.2V43z M63.4,50.1
		c0,4.7-3.7,7.3-6.9,7.3v-0.2c1.7-0.2,2.2-1.9,2.2-7.2c0-5.5-0.6-6.9-2.2-7.1v-0.2C59.7,42.9,63.4,45.4,63.4,50.1z"/>
</g>
<g class="st0">
	<path class="st1" d="M71.9,55.5c0,0.7,0.4,1.4,2.1,1.4v0.2h-8.8V57c1.7,0,2.1-0.7,2.1-1.4v-9.9c0-1-0.5-1.5-2.1-1.5V44
		c2.6,0,4.7-0.3,6.7-1.1V55.5z M79.5,45.9c0,1.9-1.4,3.2-2.9,3.2c-0.7,0-1.3-0.2-1.6-0.6c0.5-0.3,1.1-0.9,1.1-1.9
		c0-0.8-0.6-1.5-1.6-1.5c-0.7,0-1.3,0.4-1.7,1.1v-0.2c0.5-1.8,1.9-3,3.6-3C78.4,42.9,79.5,44.2,79.5,45.9z"/>
</g>
<g class="st0">
	<path class="st1" d="M93.8,55.5c0,0.7,0.4,1.4,2.1,1.4v0.2h-8.8V57c1.7,0,2.1-0.7,2.1-1.4v-9.9c0-1-0.5-1.5-2.1-1.5V44
		c2.6,0,4.7-0.3,6.7-1.1V55.5z M103.1,46.8v8.7c0,0.7,0.4,1.4,2.1,1.4v0.2h-8.8V57c1.7,0,2.1-0.7,2.1-1.4v-8.7c0-1.6-0.6-2.4-2-2.4
		c-0.8,0-1.5,0.4-1.8,0.8v-0.2c0.6-1.2,2-2.2,4.1-2.2C101.4,42.9,103.1,44,103.1,46.8z M112.3,46.8v8.7c0,0.7,0.4,1.4,2.1,1.4v0.2
		h-8.8V57c1.7,0,2.1-0.7,2.1-1.4v-8.7c0-1.6-0.6-2.4-2-2.4c-0.8,0-1.5,0.4-1.8,0.8v-0.2c0.6-1.2,2-2.2,4.1-2.2
		C110.7,42.9,112.3,44,112.3,46.8z"/>
	<path class="st1" d="M122.9,43c-1.7,0.2-2.2,1.6-2.2,7.1c0,5.3,0.6,7,2.2,7.2v0.2c-3.2,0-7-2.6-7-7.3s3.7-7.2,7-7.2V43z M131,50.1
		c0,4.7-3.7,7.3-6.9,7.3v-0.2c1.7-0.2,2.2-1.9,2.2-7.2c0-5.5-0.6-6.9-2.2-7.1v-0.2C127.3,42.9,131,45.4,131,50.1z"/>
</g>
<g class="st0">
	<path class="st1" d="M139.6,55.5c0,0.7,0.4,1.4,2.1,1.4v0.2h-8.8V57c1.7,0,2.1-0.7,2.1-1.4v-9.9c0-1-0.5-1.5-2.1-1.5V44
		c2.6,0,4.7-0.3,6.7-1.1V55.5z M147.1,45.9c0,1.9-1.4,3.2-2.9,3.2c-0.7,0-1.3-0.2-1.6-0.6c0.5-0.3,1.1-0.9,1.1-1.9
		c0-0.8-0.6-1.5-1.6-1.5c-0.7,0-1.3,0.4-1.7,1.1v-0.2c0.5-1.8,1.9-3,3.6-3C146.1,42.9,147.1,44.2,147.1,45.9z"/>
</g>
<g class="st0">
	<path class="st1" d="M148.6,50.1c0-4.7,3.6-7.2,6.9-7.2V43c-1.7,0.2-2.1,1.6-2.1,6.9c0,4,1.8,6.2,4.3,6.2c1.6,0,2.8-0.4,4.1-1.5
		v0.2c-1.5,1.8-4.1,2.5-5.9,2.5C152.2,57.4,148.6,54.8,148.6,50.1z M154.9,48.9c2.5,0,3.5-0.8,3.5-3.1c0-1.3-0.6-2.6-1.8-2.7v-0.2
		c3.7,0,5.5,2.6,5.5,4.8c0,0.4-0.1,1-0.1,1.5h-7V48.9z"/>
</g>
<g class="st0">
	<path class="st1" d="M31.2,80.1c0-4.7,3.6-7.2,6.9-7.2V73c-1.7,0.2-2.1,1.6-2.1,6.9c0,4,1.8,6.2,4.3,6.2c1.6,0,2.8-0.4,4.1-1.5v0.2
		c-1.5,1.8-4.1,2.5-5.9,2.5C34.8,87.4,31.2,84.8,31.2,80.1z M37.5,78.9c2.5,0,3.5-0.8,3.5-3.1c0-1.3-0.6-2.6-1.8-2.7v-0.2
		c3.7,0,5.5,2.6,5.5,4.8c0,0.4-0.1,1-0.1,1.5h-7V78.9z"/>
</g>
<g class="st0">
	<path class="st1" d="M46.9,74.3c-0.3-0.6-0.7-1-1.5-1v-0.2h7.8v0.2c-1,0-1.4,0.7-0.9,1.7l3.7,7.6l-2.4,4.5h-0.2L46.9,74.3z
		 M57.2,79.9c0.5-0.9,0.8-2.1,0.8-3.6c0-1.5-0.9-2.9-2.9-2.9v-0.2h7v0.2c-0.9,0-1.3,0.4-1.8,1.3l-2.9,5.5L57.2,79.9z"/>
</g>
<g class="st0">
	<path class="st1" d="M62.3,80.1c0-4.7,3.6-7.2,6.9-7.2V73c-1.7,0.2-2.1,1.6-2.1,6.9c0,4,1.8,6.2,4.3,6.2c1.6,0,2.8-0.4,4.1-1.5v0.2
		c-1.5,1.8-4.1,2.5-5.9,2.5C65.9,87.4,62.3,84.8,62.3,80.1z M68.6,78.9c2.5,0,3.5-0.8,3.5-3.1c0-1.3-0.6-2.6-1.8-2.7v-0.2
		c3.7,0,5.5,2.6,5.5,4.8c0,0.4-0.1,1-0.1,1.5h-7V78.9z"/>
	<path class="st1" d="M84.3,85.5c0,0.7,0.4,1.4,2.1,1.4v0.2h-8.8V87c1.7,0,2.1-0.7,2.1-1.4v-9.9c0-1-0.5-1.5-2.1-1.5V74
		c2.6,0,4.7-0.3,6.7-1.1V85.5z M91.9,75.9c0,1.9-1.4,3.2-2.9,3.2c-0.7,0-1.3-0.2-1.6-0.6c0.5-0.3,1.1-0.9,1.1-1.9
		c0-0.8-0.6-1.5-1.6-1.5c-0.7,0-1.3,0.4-1.7,1.1v-0.2c0.5-1.8,1.9-3,3.6-3C90.8,72.9,91.9,74.2,91.9,75.9z"/>
	<path class="st1" d="M93.8,74.3c-0.3-0.6-0.7-1-1.5-1v-0.2h7.8v0.2c-1,0-1.4,0.7-0.9,1.7l3.7,7.6l-2.4,4.5h-0.2L93.8,74.3z
		 M92.5,91.6c0-1.2,1-2.2,2.5-2.6c-0.1,0.3-0.1,0.5-0.1,0.7c0,1.1,0.6,1.9,1.7,1.9c1,0,1.8-1,2.8-2.8h0.2C98,91.6,97,94.1,95,94.1
		C93.4,94.1,92.5,93.1,92.5,91.6z M104,79.9c0.5-0.9,0.8-2.1,0.8-3.6c0-1.5-0.9-2.9-2.9-2.9v-0.2h7v0.2c-0.9,0-1.3,0.4-1.8,1.3
		l-2.9,5.5L104,79.9z"/>
	<path class="st1" d="M119.9,85v0.2c-0.9,1.3-2.7,2.3-4.8,2.3c-2.5,0-4.3-1.1-4.3-3.9v-9.2h-1.5l0.3-0.4h1.1v-3
		c1.7,0,3.4-0.5,4.6-1.6v4.6h3.8l-0.3,0.4h-3.5v9.3c0,1.4,0.5,2.9,1.8,2.9C118,86.4,119,85.9,119.9,85z"/>
	<path class="st1" d="M127.1,85.5c0,0.7,0.4,1.4,2.1,1.4v0.2h-8.8V87c1.7,0,2.1-0.7,2.1-1.4V69.3c0-1-0.5-1.5-2.1-1.5v-0.2
		c2.6,0,4.7-0.3,6.7-1.1V85.5z M136.9,76.8v8.7c0,0.7,0.4,1.4,2.1,1.4v0.2h-8.8V87c1.7,0,2.1-0.7,2.1-1.4v-8.7
		c0-1.6-0.8-2.4-2.2-2.4c-0.8,0-1.5,0.3-2.1,0.9v-0.2c0.8-1.2,2.6-2.3,4.6-2.3C135.1,72.9,136.9,74,136.9,76.8z"/>
	<path class="st1" d="M140.1,73.9c2.6,0,4.7-0.3,6.7-1.1v12.7c0,0.7,0.4,1.4,2.1,1.4v0.2H140V87c1.7,0,2.1-0.7,2.1-1.4v-10
		c0-1-0.5-1.5-2.1-1.5V73.9z M141.5,68.7c0-1.5,1.2-2.4,2.9-2.4c1.7,0,2.9,1,2.9,2.4c0,1.5-1.2,2.5-2.9,2.5
		C142.7,71.1,141.5,70.1,141.5,68.7z"/>
	<path class="st1" d="M150,87c1.7,0,2.1-0.7,2.1-1.4v-9.9c0-1-0.5-1.5-2.1-1.5V74c2.6,0,4.7-0.3,6.7-1.1v12.7c0,0.7,0.4,1.4,2.1,1.4
		v0.2H150V87z M159.9,87c1.7,0,2.1-0.7,2.1-1.4v-8.7c0-1.6-0.8-2.4-2.2-2.4c-0.8,0-1.5,0.3-2.1,0.9v-0.2c0.8-1.2,2.6-2.3,4.6-2.3
		c2.5,0,4.3,1.2,4.3,3.9v8.7c0,0.7,0.4,1.4,2.1,1.4v0.2h-8.8V87z"/>
	<path class="st1" d="M170.3,77.9c0-3.6,3.4-5,6.3-5.1V73c-1.2,0.1-1.8,1.6-1.8,4.8c0,3.4,0.6,4.8,1.8,4.9v0.2
		C173.8,82.9,170.3,81.5,170.3,77.9z M177.8,94c2.8-0.3,3.7-1.8,3.7-2.9c0-3.9-10.9-0.4-10.9-5.4c0-1.1,0.6-2,1.9-2.9l0.1,0.1
		c-0.2,0.1-0.3,0.3-0.3,0.5c0,3.1,12.8-0.5,12.8,5.6c0,2.9-2.5,4.8-7.3,5V94z M170.6,91.6c0-1.7,2-2.2,4.3-2.2c-0.5,0.2-1.2,1-1.2,2
		c0,1.3,1.5,2.3,3.1,2.5v0.2C173.7,94.1,170.6,93.5,170.6,91.6z M177.8,82.7c1.4-0.1,1.9-1.5,1.9-4.9c0-3.2-0.6-4.7-1.9-4.8v-0.2
		c3,0.1,6.4,1.4,6.4,5.1c0,3.6-3.4,5-6.4,5V82.7z M179.3,72.4c0.5-1.4,1.8-3.4,3.7-3.4c1.5,0,2.4,0.8,2.4,2.1c0,1.4-1.2,2.2-2.3,2.2
		c0-1.2-0.6-1.9-1.5-1.9c-0.8,0-1.8,0.5-2.2,1L179.3,72.4z"/>
</g>
<g class="st0">
	<path class="st1" d="M41.5,115v0.2c-0.9,1.3-2.7,2.3-4.8,2.3c-2.5,0-4.3-1.1-4.3-3.9v-9.2H31l0.3-0.4h1.1v-3c1.7,0,3.4-0.5,4.6-1.6
		v4.6h3.8l-0.3,0.4H37v9.3c0,1.4,0.5,2.9,1.8,2.9C39.7,116.4,40.6,115.9,41.5,115z"/>
	<path class="st1" d="M48.8,115.5c0,0.7,0.4,1.4,2.1,1.4v0.2H42V117c1.7,0,2.1-0.7,2.1-1.4V99.3c0-1-0.5-1.5-2.1-1.5v-0.2
		c2.6,0,4.7-0.3,6.7-1.1V115.5z M58.6,106.8v8.7c0,0.7,0.4,1.4,2.1,1.4v0.2h-8.8V117c1.7,0,2.1-0.7,2.1-1.4v-8.7
		c0-1.6-0.8-2.4-2.2-2.4c-0.8,0-1.5,0.3-2.1,0.9v-0.2c0.8-1.2,2.6-2.3,4.6-2.3C56.8,102.9,58.6,104,58.6,106.8z"/>
	<path class="st1" d="M61.9,113.8c0-2.4,2.2-3.8,5.4-3.8h3v0.2h-0.8c-2,0-3,1.3-3,3.1c0,1.5,0.4,2.7,1.8,2.7c0.8,0,1.4-0.4,2-1v0.2
		c-0.9,1.1-2.4,2.3-4.5,2.3C63.5,117.4,61.9,116.1,61.9,113.8z M63,105.9c0-1.4,1.3-2.9,5.1-3.1v0.2c-1.1,0.2-1.8,1.1-1.8,2
		c0,1,0.7,1.6,1.8,1.7c-0.4,0.8-1.6,1.3-2.7,1.3C63.9,108.1,63,107.1,63,105.9z M71.1,114.3v-8.6c0-1.4-0.5-2.5-1.9-2.7v-0.2
		c4.6,0.2,6.5,1.9,6.5,5.6v6.8c0,0.8,0.3,1.1,0.8,1.1c0.4,0,0.9-0.4,1.3-1.3H78c-0.4,1.5-2,2.3-3.6,2.3
		C72.1,117.4,71.1,116.6,71.1,114.3z"/>
	<path class="st1" d="M78.9,117c1.7,0,2.1-0.7,2.1-1.4v-9.9c0-1-0.5-1.5-2.1-1.5V104c2.6,0,4.7-0.3,6.7-1.1v12.7
		c0,0.7,0.4,1.4,2.1,1.4v0.2h-8.8V117z M88.7,117c1.7,0,2.1-0.7,2.1-1.4v-8.7c0-1.6-0.8-2.4-2.2-2.4c-0.8,0-1.5,0.3-2.1,0.9v-0.2
		c0.8-1.2,2.6-2.3,4.6-2.3c2.5,0,4.3,1.2,4.3,3.9v8.7c0,0.7,0.4,1.4,2.1,1.4v0.2h-8.8V117z"/>
	<path class="st1" d="M105.9,113.8c0-2.4,2.2-3.8,5.4-3.8h3v0.2h-0.8c-2,0-3,1.3-3,3.1c0,1.5,0.4,2.7,1.8,2.7c0.8,0,1.4-0.4,2-1v0.2
		c-0.9,1.1-2.4,2.3-4.5,2.3C107.4,117.4,105.9,116.1,105.9,113.8z M107,105.9c0-1.4,1.3-2.9,5.1-3.1v0.2c-1.1,0.2-1.8,1.1-1.8,2
		c0,1,0.7,1.6,1.8,1.7c-0.4,0.8-1.6,1.3-2.7,1.3C107.9,108.1,107,107.1,107,105.9z M115.1,114.3v-8.6c0-1.4-0.5-2.5-1.9-2.7v-0.2
		c4.6,0.2,6.5,1.9,6.5,5.6v6.8c0,0.8,0.3,1.1,0.8,1.1c0.4,0,0.9-0.4,1.3-1.3h0.2c-0.4,1.5-2,2.3-3.6,2.3
		C116.1,117.4,115.1,116.6,115.1,114.3z"/>
</g>
<g class="st0">
	<path class="st1" d="M122.9,117c1.7,0,2.1-0.7,2.1-1.4v-9.9c0-1-0.5-1.5-2.1-1.5V104c2.6,0,4.7-0.3,6.7-1.1v12.7
		c0,0.7,0.4,1.4,2.1,1.4v0.2h-8.8V117z M132.7,117c1.7,0,2.1-0.7,2.1-1.4v-8.7c0-1.6-0.8-2.4-2.2-2.4c-0.8,0-1.5,0.3-2.1,0.9v-0.2
		c0.8-1.2,2.6-2.3,4.6-2.3c2.5,0,4.3,1.2,4.3,3.9v8.7c0,0.7,0.4,1.4,2.1,1.4v0.2h-8.8V117z"/>
</g>
<g class="st0">
	<path class="st1" d="M142.6,104.3c-0.3-0.6-0.7-1-1.5-1v-0.2h7.8v0.2c-1,0-1.4,0.7-0.9,1.7l3.7,7.6l-2.4,4.5h-0.2L142.6,104.3z
		 M141.4,121.6c0-1.2,1-2.2,2.5-2.6c-0.1,0.3-0.1,0.5-0.1,0.7c0,1.1,0.6,1.9,1.7,1.9c1,0,1.8-1,2.8-2.8h0.2
		c-1.5,2.9-2.6,5.4-4.6,5.4C142.3,124.1,141.4,123.1,141.4,121.6z M152.9,109.9c0.5-0.9,0.8-2.1,0.8-3.6c0-1.5-0.9-2.9-2.9-2.9v-0.2
		h7v0.2c-0.9,0-1.3,0.4-1.8,1.3l-2.9,5.5L152.9,109.9z"/>
</g>
<g class="st0">
	<path class="st1" d="M164.9,103c-1.7,0.2-2.2,1.6-2.2,7.1c0,5.3,0.6,7,2.2,7.2v0.2c-3.2,0-7-2.6-7-7.3s3.7-7.2,7-7.2V103z
		 M172.9,110.1c0,4.7-3.7,7.3-6.9,7.3v-0.2c1.7-0.2,2.2-1.9,2.2-7.2c0-5.5-0.6-6.9-2.2-7.1v-0.2
		C169.2,102.9,172.9,105.4,172.9,110.1z"/>
	<path class="st1" d="M174.8,117c1.7,0,2.1-0.7,2.1-1.4v-9.9c0-1-0.5-1.5-2.1-1.5V104c2.6,0,4.7-0.3,6.7-1.1v12.7
		c0,0.7,0.4,1.4,2.1,1.4v0.2h-8.8V117z M184.6,117c1.7,0,2.1-0.7,2.1-1.4v-8.7c0-1.6-0.8-2.4-2.2-2.4c-0.8,0-1.5,0.3-2.1,0.9v-0.2
		c0.8-1.2,2.6-2.3,4.6-2.3c2.5,0,4.3,1.2,4.3,3.9v8.7c0,0.7,0.4,1.4,2.1,1.4v0.2h-8.8V117z"/>
	<path class="st1" d="M194.9,110.1c0-4.7,3.6-7.2,6.9-7.2v0.2c-1.7,0.2-2.1,1.6-2.1,6.9c0,4,1.8,6.2,4.3,6.2c1.6,0,2.8-0.4,4.1-1.5
		v0.2c-1.5,1.8-4.1,2.5-5.9,2.5C198.6,117.4,194.9,114.8,194.9,110.1z M201.2,108.9c2.5,0,3.5-0.8,3.5-3.1c0-1.3-0.6-2.6-1.8-2.7
		v-0.2c3.7,0,5.5,2.6,5.5,4.8c0,0.4-0.1,1-0.1,1.5h-7V108.9z"/>
</g>
<g class="st0">
	<path class="st1" d="M31.2,140.1c0-4.7,3.6-7.2,6.9-7.2v0.2c-1.7,0.2-2.1,1.6-2.1,6.9c0,4,1.8,6.2,4.3,6.2c1.6,0,2.8-0.4,4.1-1.5
		v0.2c-1.5,1.8-4.1,2.5-5.9,2.5C34.8,147.4,31.2,144.8,31.2,140.1z M37.5,138.9c2.5,0,3.5-0.8,3.5-3.1c0-1.3-0.6-2.6-1.8-2.7v-0.2
		c3.7,0,5.5,2.6,5.5,4.8c0,0.4-0.1,1-0.1,1.5h-7V138.9z"/>
	<path class="st1" d="M46.3,127.7c2.6,0,4.7-0.3,6.7-1.1v19c0,0.7,0.4,1.4,2.1,1.4v0.2h-8.8V147c1.7,0,2.1-0.7,2.1-1.4v-16.2
		c0-1-0.5-1.5-2.1-1.5V127.7z"/>
	<path class="st1" d="M61.6,143.8c-0.9,0-1.6,0.6-1.6,1.4c0,0.8,0.6,1.8,2.5,2v0.2c-3.7-0.1-5.8-1.1-5.8-2.8c0-1.3,1.1-2.1,2.4-2.1
		C60.3,142.6,61.2,143.1,61.6,143.8z M62.6,133c-1,0.2-2,0.7-2,1.9c0.1,3.2,9.2,3.8,9.2,8.2c0,2.7-2.3,4.1-5.9,4.3v-0.2
		c1.2-0.2,2.5-0.6,2.5-2.1c0-2.9-9.2-4-9.2-8.2c0-2.5,2.3-3.9,5.5-4.1V133z M69.2,135.7c0,0.9-0.7,1.7-2.1,1.7c-1.2,0-2-0.5-2.4-1.3
		c0.8-0.1,1.3-0.6,1.3-1.3c0-0.8-1.1-1.7-2.2-1.8v-0.2C67,133,69.2,134.2,69.2,135.7z"/>
	<path class="st1" d="M72.1,140.1c0-4.7,3.6-7.2,6.9-7.2v0.2c-1.7,0.2-2.1,1.6-2.1,6.9c0,4,1.8,6.2,4.3,6.2c1.6,0,2.8-0.4,4.1-1.5
		v0.2c-1.5,1.8-4.1,2.5-5.9,2.5C75.7,147.4,72.1,144.8,72.1,140.1z M78.4,138.9c2.5,0,3.5-0.8,3.5-3.1c0-1.3-0.6-2.6-1.8-2.7v-0.2
		c3.7,0,5.5,2.6,5.5,4.8c0,0.4-0.1,1-0.1,1.5h-7V138.9z"/>
</g>
<rect y="0" class="st2" width="300" height="250"/>
</svg>
