<svg id="Layer_1" data-name="Layer 1" xmlns="http://www.w3.org/2000/svg" viewBox="0 0 300 250"><defs><style>.cls-1{fill:#fb0010;}.cls-2{fill:#fff;}.cls-3{fill:none;}</style></defs><title>Artboard 1 copy 6</title><path class="cls-1" d="M35.94,216H150.21a9.77,9.77,0,0,0,8.68-5.28l12.88-24.82a9.76,9.76,0,0,0,0-9l-12.88-24.82a9.78,9.78,0,0,0-8.68-5.28H35.94A5.94,5.94,0,0,0,30,152.77V210.1A5.94,5.94,0,0,0,35.94,216Z"/><path class="cls-2" d="M81.59,172.92l.24-.35c.17-.25.36-.26.64-.1A2.75,2.75,0,0,0,84,173c.73,0,1.17-.37,1.17-.89,0-1.48-3.63-1.17-3.63-3.6a2.36,2.36,0,0,1,2.62-2.25,3.61,3.61,0,0,1,2,.59.43.43,0,0,1,.15.62l-.2.36c-.17.32-.4.28-.63.16a2.48,2.48,0,0,0-1.35-.43c-.72,0-1.18.35-1.18.88,0,1.45,3.63,1.08,3.63,3.56a2.33,2.33,0,0,1-2.58,2.3,4.14,4.14,0,0,1-2.39-.79A.4.4,0,0,1,81.59,172.92Z"/><path class="cls-2" d="M89.75,167.64H87.66a.4.4,0,0,1-.46-.45v-.3a.41.41,0,0,1,.46-.46h5.59a.4.4,0,0,1,.45.46v.3a.4.4,0,0,1-.45.45H91.16v6.11a.41.41,0,0,1-.46.46h-.5a.4.4,0,0,1-.45-.46Z"/><path class="cls-2" d="M95.55,166.8a.5.5,0,0,1,.52-.37h.7a.48.48,0,0,1,.51.37l2.44,6.88c.11.32,0,.53-.38.53h-.5a.5.5,0,0,1-.52-.37l-.54-1.63H95.05l-.54,1.62a.49.49,0,0,1-.52.38h-.5c-.34,0-.48-.21-.37-.53Zm1.88,4.26-.7-2.08c-.13-.44-.3-1.2-.3-1.2h0s-.18.76-.31,1.2l-.7,2.08Z"/><path class="cls-2" d="M100.7,166.89a.4.4,0,0,1,.45-.46h2.1a3.43,3.43,0,0,1,1.48.21,2.15,2.15,0,0,1,1.31,2.12,2.26,2.26,0,0,1-1.3,2.13v0a2.88,2.88,0,0,1,.26.41l1.28,2.34c.18.32,0,.55-.32.55h-.59a.56.56,0,0,1-.54-.32l-1.37-2.59H102.1v2.45a.4.4,0,0,1-.45.46h-.5a.4.4,0,0,1-.45-.46Zm2.67,3.19a1.14,1.14,0,0,0,1.23-1.24,1,1,0,0,0-.61-1.06,1.92,1.92,0,0,0-.85-.14h-1v2.44Z"/><path class="cls-2" d="M82.1,176.4a.25.25,0,0,1,.27-.28h.23a.25.25,0,0,1,.26.28v7.15a.25.25,0,0,1-.26.28h-.23a.25.25,0,0,1-.27-.28Z"/><path class="cls-2" d="M84.68,178.59a.25.25,0,0,1,.28-.28h.19a.25.25,0,0,1,.27.28v.63a1.66,1.66,0,0,1,0,.4h0a2.41,2.41,0,0,1,2.22-1.44c1.37,0,1.85.78,1.85,2.14v3.23a.25.25,0,0,1-.27.28H89c-.17,0-.26-.1-.26-.28v-3c0-.87-.14-1.64-1.21-1.64a2.14,2.14,0,0,0-2.09,2.25v2.42c0,.18-.09.28-.26.28H85a.25.25,0,0,1-.28-.28Z"/><path class="cls-2" d="M90.66,183l.09-.11c.09-.13.21-.14.37,0a2.41,2.41,0,0,0,1.46.5c.61,0,1.11-.31,1.11-.89,0-1.24-2.94-.86-2.94-2.68,0-1,.86-1.55,1.87-1.55a2.56,2.56,0,0,1,1.51.45.23.23,0,0,1,.08.36l-.08.12a.23.23,0,0,1-.37.08,2.08,2.08,0,0,0-1.18-.35c-.58,0-1.09.25-1.09.85,0,1.28,2.94.87,2.94,2.71A1.67,1.67,0,0,1,92.56,184a2.89,2.89,0,0,1-1.86-.64A.24.24,0,0,1,90.66,183Z"/><path class="cls-2" d="M95.53,178.59a.25.25,0,0,1,.27-.28H96a.25.25,0,0,1,.27.28v3c0,.87.13,1.64,1.19,1.64a2.14,2.14,0,0,0,2-2.3v-2.37a.25.25,0,0,1,.28-.28H100c.17,0,.26.1.26.28v5c0,.18-.09.28-.26.28h-.2c-.18,0-.26-.1-.26-.28v-.63a2.72,2.72,0,0,1,0-.4h0A2.4,2.4,0,0,1,97.38,184c-1.31,0-1.85-.7-1.85-2.14Z"/><path class="cls-2" d="M101.87,178.59a.25.25,0,0,1,.28-.28h.2a.25.25,0,0,1,.26.28v.74a2,2,0,0,1,0,.44h0a2,2,0,0,1,1.77-1.49c.2,0,.29.09.29.26v.2a.27.27,0,0,1-.31.28c-1.16,0-1.72,1.32-1.72,2.47v2.06c0,.18-.09.28-.26.28h-.21a.25.25,0,0,1-.28-.28Z"/><path class="cls-2" d="M108.44,180.45h.32v-.17c0-1.07-.58-1.43-1.36-1.43a2.68,2.68,0,0,0-1.34.38.25.25,0,0,1-.37-.08l-.06-.11a.25.25,0,0,1,.07-.38,3.44,3.44,0,0,1,1.76-.48,1.88,1.88,0,0,1,2.05,2.12v3.25a.25.25,0,0,1-.27.28h-.17a.25.25,0,0,1-.28-.28v-.44a1.86,1.86,0,0,1,0-.41h0a2,2,0,0,1-1.86,1.26,1.69,1.69,0,0,1-1.86-1.61C105.08,180.55,107.38,180.45,108.44,180.45Zm-1.37,2.88a1.91,1.91,0,0,0,1.69-2.06V181h-.31c-.86,0-2.61,0-2.61,1.27A1.1,1.1,0,0,0,107.07,183.33Z"/><path class="cls-2" d="M111.07,178.59a.25.25,0,0,1,.27-.28h.2c.17,0,.26.1.26.28v.63a2.06,2.06,0,0,1,0,.4h0a2.43,2.43,0,0,1,2.23-1.44c1.37,0,1.85.78,1.85,2.14v3.23a.25.25,0,0,1-.27.28h-.21a.25.25,0,0,1-.27-.28v-3c0-.87-.14-1.64-1.2-1.64a2.15,2.15,0,0,0-2.1,2.25v2.42c0,.18-.08.28-.26.28h-.21a.25.25,0,0,1-.27-.28Z"/><path class="cls-2" d="M120,178.18a2.85,2.85,0,0,1,1.83.63.24.24,0,0,1,0,.37l-.08.12c-.1.15-.22.15-.37,0a2.34,2.34,0,0,0-1.4-.5,2.22,2.22,0,0,0,0,4.44,2.4,2.4,0,0,0,1.55-.58.22.22,0,0,1,.36.06l.08.11a.26.26,0,0,1-.07.38,3,3,0,0,1-2,.7,2.89,2.89,0,1,1,0-5.78Z"/><path class="cls-2" d="M125.41,178.18c1.47,0,2.3,1.07,2.3,2.63a.27.27,0,0,1-.28.28h-4a2.1,2.1,0,0,0,2.14,2.2,2.38,2.38,0,0,0,1.44-.5c.16-.1.28-.08.37.06l.08.13a.25.25,0,0,1-.07.36,3.16,3.16,0,0,1-1.84.62,2.79,2.79,0,0,1-2.89-2.88A2.7,2.7,0,0,1,125.41,178.18Zm1.55,2.35a1.59,1.59,0,0,0-1.57-1.73,1.9,1.9,0,0,0-1.9,1.73Z"/><path class="cls-2" d="M85.48,186.27a4.29,4.29,0,0,1,2.54.78.42.42,0,0,1,.09.63l-.2.32c-.15.25-.36.28-.62.11a3.26,3.26,0,0,0-1.76-.55,2.51,2.51,0,0,0-2.6,2.68A2.6,2.6,0,0,0,85.54,193a3.21,3.21,0,0,0,1.91-.68.41.41,0,0,1,.64.08l.22.3a.42.42,0,0,1-.07.63,4.37,4.37,0,0,1-2.75,1,4,4,0,0,1,0-8Z"/><path class="cls-2" d="M92.37,190.73h.23v-.13a.92.92,0,0,0-1-1,2.54,2.54,0,0,0-1.16.32c-.27.12-.48.08-.61-.18l-.11-.21a.42.42,0,0,1,.17-.62,4.05,4.05,0,0,1,1.83-.46A2.08,2.08,0,0,1,94,190.69v3a.41.41,0,0,1-.46.46h-.38a.4.4,0,0,1-.45-.46v-.22a.83.83,0,0,1,0-.24h0A2,2,0,0,1,91,194.32a1.71,1.71,0,0,1-1.85-1.68C89.11,191,91.12,190.73,92.37,190.73Zm-1,2.52a1.43,1.43,0,0,0,1.29-1.47v-.2h-.23c-.71,0-1.9.11-1.9.94A.75.75,0,0,0,91.33,193.25Z"/><path class="cls-2" d="M95.31,189.05a.41.41,0,0,1,.45-.46h.43a.41.41,0,0,1,.45.46v.34a2.17,2.17,0,0,1,0,.26h0a2.14,2.14,0,0,1,1.83-1.19,1.56,1.56,0,0,1,1.63,1.15h0a2.24,2.24,0,0,1,1.91-1.15c1.16,0,1.83.66,1.83,2.13v3.13a.41.41,0,0,1-.46.46h-.47a.4.4,0,0,1-.46-.46v-2.87c0-.63-.12-1.12-.77-1.12-.94,0-1.42,1-1.42,1.94v2.05a.4.4,0,0,1-.45.46h-.48a.41.41,0,0,1-.46-.46v-2.87c0-.6-.09-1.12-.75-1.12-1,0-1.45,1-1.45,1.94v2.05a.4.4,0,0,1-.45.46h-.48a.4.4,0,0,1-.45-.46Z"/><path class="cls-2" d="M105.2,189.05a.42.42,0,0,1,.46-.46H106a.4.4,0,0,1,.45.39v.25c0,.12,0,.22,0,.22h0a2,2,0,0,1,1.8-1c1.51,0,2.48,1.2,2.48,2.93a2.63,2.63,0,0,1-2.56,2.93,1.82,1.82,0,0,1-1.61-.86h0a2.7,2.7,0,0,1,0,.48v2a.41.41,0,0,1-.46.46h-.47a.41.41,0,0,1-.46-.46Zm2.74,4.09c.76,0,1.4-.62,1.4-1.73s-.57-1.75-1.38-1.75-1.42.52-1.42,1.76A1.54,1.54,0,0,0,107.94,193.14Z"/><path class="cls-2" d="M114.35,188.46a2.41,2.41,0,0,1,2.48,2.67.49.49,0,0,1-.49.47h-3.4a1.59,1.59,0,0,0,1.67,1.53,2.34,2.34,0,0,0,1.21-.36c.27-.13.47-.1.61.15l.13.22a.42.42,0,0,1-.15.62,3.53,3.53,0,0,1-1.9.56,2.87,2.87,0,0,1-3-2.93A2.76,2.76,0,0,1,114.35,188.46Zm1.1,2.29a1.15,1.15,0,0,0-1.13-1.24,1.36,1.36,0,0,0-1.35,1.24Z"/><path class="cls-2" d="M117.87,189.05a.41.41,0,0,1,.45-.46h.43a.42.42,0,0,1,.46.46v.53a2.44,2.44,0,0,1,0,.38h0a1.93,1.93,0,0,1,1.62-1.41c.31,0,.42.15.42.46v.43a.43.43,0,0,1-.47.46c-1,0-1.51,1-1.51,2v1.79a.4.4,0,0,1-.45.46h-.49a.4.4,0,0,1-.45-.46Z"/><path class="cls-2" d="M125.87,186.27a4.31,4.31,0,0,1,2.54.78.42.42,0,0,1,.09.63l-.2.32c-.15.25-.36.28-.63.11a3.22,3.22,0,0,0-1.75-.55,2.51,2.51,0,0,0-2.61,2.68,2.6,2.6,0,0,0,2.62,2.78,3.21,3.21,0,0,0,1.91-.68.4.4,0,0,1,.63.08l.22.3a.41.41,0,0,1-.06.63,4.37,4.37,0,0,1-2.75,1,4,4,0,1,1,0-8Z"/><path class="cls-2" d="M132.76,190.73H133v-.13a.92.92,0,0,0-1-1,2.54,2.54,0,0,0-1.16.32c-.28.12-.48.08-.62-.18l-.11-.21a.42.42,0,0,1,.18-.62,4.05,4.05,0,0,1,1.83-.46,2.07,2.07,0,0,1,2.31,2.23v3a.4.4,0,0,1-.46.46h-.37a.4.4,0,0,1-.45-.46v-.22a1.22,1.22,0,0,1,0-.24h0a2,2,0,0,1-1.75,1.06,1.72,1.72,0,0,1-1.86-1.68C129.49,191,131.51,190.73,132.76,190.73Zm-1,2.52a1.42,1.42,0,0,0,1.28-1.47v-.2h-.23c-.7,0-1.89.11-1.89.94A.75.75,0,0,0,131.72,193.25Z"/><path class="cls-2" d="M135.7,189.05a.41.41,0,0,1,.45-.46h.43a.42.42,0,0,1,.46.46v.53a1.85,1.85,0,0,1,0,.38h0a1.91,1.91,0,0,1,1.62-1.41c.3,0,.41.15.41.46v.43a.42.42,0,0,1-.47.46c-1,0-1.51,1-1.51,2v1.79a.4.4,0,0,1-.45.46h-.48a.4.4,0,0,1-.45-.46Z"/><path class="cls-2" d="M142.23,188.46a2.41,2.41,0,0,1,2.48,2.67.48.48,0,0,1-.48.47h-3.41a1.6,1.6,0,0,0,1.68,1.53,2.34,2.34,0,0,0,1.2-.36c.28-.13.47-.1.62.15l.13.22a.43.43,0,0,1-.16.62,3.52,3.52,0,0,1-1.89.56,2.87,2.87,0,0,1-3-2.93A2.77,2.77,0,0,1,142.23,188.46Zm1.1,2.29a1.14,1.14,0,0,0-1.13-1.24,1.37,1.37,0,0,0-1.35,1.24Z"/><path class="cls-2" d="M55.67,190.69a.73.73,0,0,1-.35-.09.76.76,0,0,1-.38-.93l8.11-25a1.71,1.71,0,0,1,1.65-1.2h0a1.72,1.72,0,0,1,1.65,1.2l1.64,5a.58.58,0,0,1-.37.74.59.59,0,0,1-.75-.37l-1.64-5a.55.55,0,0,0-.53-.39h0a.54.54,0,0,0-.53.39l-7.34,22.58L67.17,173.5a3.22,3.22,0,0,1,2.59-1.31h6.89a1.73,1.73,0,0,1,1,3.13l-6.3,4.57a.13.13,0,0,1-.07.06l2.44,7.49a1.73,1.73,0,0,1-2.67,1.93l-5.44-4a1.73,1.73,0,0,1,0-2.81l4.56-3.3.07-.06L77,174.37a.53.53,0,0,0,.21-.62.55.55,0,0,0-.53-.39H69.76a2,2,0,0,0-1.65.84L56.3,190.37A.77.77,0,0,1,55.67,190.69Zm14.63-10-4,2.88a.57.57,0,0,0,0,.91l5.44,3.95a.54.54,0,0,0,.66,0,.53.53,0,0,0,.2-.62Z"/><path class="cls-2" d="M56.09,178.28a.62.62,0,0,1-.34-.11l-4-2.85a1.72,1.72,0,0,1,1-3.13h4.92a.59.59,0,1,1,0,1.17H52.75a.56.56,0,0,0-.33,1l4,2.84a.59.59,0,0,1-.34,1.07Z"/><path class="cls-2" d="M61.56,199a1.87,1.87,0,0,1-.94-.25l-10.26-5.82a.59.59,0,0,1-.3-.52V179.87a.59.59,0,0,1,1.17,0v12.18l10,5.66a.75.75,0,0,0,.75,0l7.28-4.56a.59.59,0,1,1,.62,1l-7.28,4.56A1.94,1.94,0,0,1,61.56,199Z"/><rect class="cls-3" width="300" height="250"/></svg>