<svg id="Layer_1" data-name="Layer 1" xmlns="http://www.w3.org/2000/svg" xmlns:xlink="http://www.w3.org/1999/xlink" viewBox="0 0 300 250"><defs><style>.cls-1{fill:none;}.cls-2{clip-path:url(#clip-path);}.cls-3{fill:#fb0010;}.cls-4{fill:#fff;}</style><clipPath id="clip-path"><rect class="cls-1" width="300" height="250"/></clipPath></defs><title>Artboard 1 copy 6</title><g class="cls-2"><path class="cls-3" d="M36,216H150.22a9.77,9.77,0,0,0,8.69-5.28l12.88-24.82a9.81,9.81,0,0,0,0-9l-12.88-24.82a9.79,9.79,0,0,0-8.69-5.28H36A5.94,5.94,0,0,0,30,152.77V210.1A5.94,5.94,0,0,0,36,216Z"/><path class="cls-4" d="M81.6,172.92l.24-.35c.18-.25.37-.26.64-.1a2.76,2.76,0,0,0,1.58.57c.72,0,1.16-.37,1.16-.89,0-1.48-3.63-1.17-3.63-3.6a2.36,2.36,0,0,1,2.62-2.25,3.65,3.65,0,0,1,2,.59.43.43,0,0,1,.14.62l-.2.36c-.16.32-.39.28-.62.16a2.54,2.54,0,0,0-1.35-.43c-.72,0-1.18.35-1.18.88,0,1.45,3.62,1.08,3.62,3.56a2.33,2.33,0,0,1-2.57,2.3,4.08,4.08,0,0,1-2.39-.79A.4.4,0,0,1,81.6,172.92Z"/><path class="cls-4" d="M89.77,167.64H87.68a.4.4,0,0,1-.46-.45v-.3a.41.41,0,0,1,.46-.46h5.59a.41.41,0,0,1,.45.46v.3a.4.4,0,0,1-.45.45h-2.1v6.11a.4.4,0,0,1-.46.46h-.49a.4.4,0,0,1-.45-.46Z"/><path class="cls-4" d="M95.56,166.8a.51.51,0,0,1,.52-.37h.7a.5.5,0,0,1,.52.37l2.43,6.88c.11.32,0,.53-.37.53h-.51a.48.48,0,0,1-.51-.37l-.55-1.63H95.06l-.54,1.62a.48.48,0,0,1-.51.38H93.5c-.34,0-.48-.21-.37-.53Zm1.88,4.26L96.75,169c-.13-.44-.31-1.2-.31-1.2h0s-.18.76-.31,1.2l-.7,2.08Z"/><path class="cls-4" d="M100.71,166.89a.41.41,0,0,1,.45-.46h2.11a3.46,3.46,0,0,1,1.48.21,2.15,2.15,0,0,1,1.3,2.12,2.26,2.26,0,0,1-1.29,2.13v0a2.49,2.49,0,0,1,.25.41l1.28,2.34c.19.32,0,.55-.32.55h-.59a.55.55,0,0,1-.53-.32l-1.38-2.59h-1.35v2.45a.4.4,0,0,1-.45.46h-.51a.4.4,0,0,1-.45-.46Zm2.68,3.19a1.14,1.14,0,0,0,1.22-1.24,1,1,0,0,0-.61-1.06,1.9,1.9,0,0,0-.84-.14h-1v2.44Z"/><path class="cls-4" d="M82.12,176.4c0-.18.09-.28.26-.28h.23a.25.25,0,0,1,.26.28v7.15a.25.25,0,0,1-.26.28h-.23c-.17,0-.26-.1-.26-.28Z"/><path class="cls-4" d="M84.7,178.59a.25.25,0,0,1,.27-.28h.2a.25.25,0,0,1,.26.28v.63a2.06,2.06,0,0,1,0,.4h0a2.43,2.43,0,0,1,2.23-1.44c1.37,0,1.85.78,1.85,2.14v3.23a.25.25,0,0,1-.28.28H89a.25.25,0,0,1-.27-.28v-3c0-.87-.14-1.64-1.2-1.64a2.14,2.14,0,0,0-2.1,2.25v2.42c0,.18-.08.28-.26.28H85a.25.25,0,0,1-.27-.28Z"/><path class="cls-4" d="M90.67,183l.09-.11a.24.24,0,0,1,.37,0,2.44,2.44,0,0,0,1.46.5c.61,0,1.12-.31,1.12-.89,0-1.24-2.95-.86-2.95-2.68,0-1,.87-1.55,1.87-1.55a2.6,2.6,0,0,1,1.52.45.23.23,0,0,1,.07.36l-.07.12c-.09.16-.22.17-.38.08a2.05,2.05,0,0,0-1.18-.35c-.58,0-1.08.25-1.08.85,0,1.28,2.93.87,2.93,2.71A1.66,1.66,0,0,1,92.58,184a2.84,2.84,0,0,1-1.86-.64A.24.24,0,0,1,90.67,183Z"/><path class="cls-4" d="M95.55,178.59c0-.18.09-.28.26-.28H96a.25.25,0,0,1,.27.28v3c0,.87.14,1.64,1.2,1.64a2.14,2.14,0,0,0,2-2.3v-2.37a.25.25,0,0,1,.27-.28H100c.18,0,.26.1.26.28v5c0,.18-.08.28-.26.28h-.2c-.17,0-.26-.1-.26-.28v-.63a2.72,2.72,0,0,1,0-.4h0A2.38,2.38,0,0,1,97.39,184c-1.3,0-1.84-.7-1.84-2.14Z"/><path class="cls-4" d="M101.89,178.59a.25.25,0,0,1,.27-.28h.2a.25.25,0,0,1,.26.28v.74a2.51,2.51,0,0,1,0,.44h0a2,2,0,0,1,1.78-1.49c.19,0,.28.09.28.26v.2a.27.27,0,0,1-.31.28c-1.16,0-1.72,1.32-1.72,2.47v2.06c0,.18-.08.28-.26.28h-.21a.25.25,0,0,1-.27-.28Z"/><path class="cls-4" d="M108.46,180.45h.31v-.17c0-1.07-.58-1.43-1.35-1.43a2.61,2.61,0,0,0-1.34.38.25.25,0,0,1-.37-.08l-.07-.11a.25.25,0,0,1,.08-.38,3.4,3.4,0,0,1,1.75-.48,1.88,1.88,0,0,1,2,2.12v3.25c0,.18-.09.28-.26.28h-.18a.25.25,0,0,1-.27-.28v-.44a2.45,2.45,0,0,1,0-.41h0A2.05,2.05,0,0,1,107,184a1.69,1.69,0,0,1-1.86-1.61C105.09,180.55,107.39,180.45,108.46,180.45Zm-1.37,2.88a1.91,1.91,0,0,0,1.68-2.06V181h-.3c-.87,0-2.61,0-2.61,1.27A1.1,1.1,0,0,0,107.09,183.33Z"/><path class="cls-4" d="M111.08,178.59a.25.25,0,0,1,.28-.28h.19a.25.25,0,0,1,.27.28v.63a1.66,1.66,0,0,1,0,.4h0a2.41,2.41,0,0,1,2.22-1.44c1.37,0,1.85.78,1.85,2.14v3.23a.25.25,0,0,1-.27.28h-.21c-.17,0-.26-.1-.26-.28v-3c0-.87-.14-1.64-1.21-1.64a2.14,2.14,0,0,0-2.09,2.25v2.42c0,.18-.09.28-.26.28h-.21a.25.25,0,0,1-.28-.28Z"/><path class="cls-4" d="M120,178.18a2.9,2.9,0,0,1,1.83.63.23.23,0,0,1,0,.37l-.08.12c-.1.15-.22.15-.37,0a2.3,2.3,0,0,0-1.39-.5,2.22,2.22,0,0,0,0,4.44,2.43,2.43,0,0,0,1.56-.58.22.22,0,0,1,.36.06l.07.11a.27.27,0,0,1-.06.38,3.07,3.07,0,0,1-2,.7,2.89,2.89,0,1,1,0-5.78Z"/><path class="cls-4" d="M125.43,178.18c1.46,0,2.3,1.07,2.3,2.63a.28.28,0,0,1-.29.28h-4a2.11,2.11,0,0,0,2.14,2.2,2.42,2.42,0,0,0,1.45-.5.23.23,0,0,1,.36.06l.09.13a.26.26,0,0,1-.08.36,3.11,3.11,0,0,1-1.84.62,2.79,2.79,0,0,1-2.88-2.88A2.69,2.69,0,0,1,125.43,178.18Zm1.54,2.35a1.58,1.58,0,0,0-1.57-1.73,1.89,1.89,0,0,0-1.89,1.73Z"/><path class="cls-4" d="M85.49,186.27a4.35,4.35,0,0,1,2.55.78.41.41,0,0,1,.08.63l-.19.32c-.16.25-.36.28-.63.11a3.22,3.22,0,0,0-1.75-.55,2.51,2.51,0,0,0-2.61,2.68A2.6,2.6,0,0,0,85.56,193a3.24,3.24,0,0,0,1.91-.68.4.4,0,0,1,.63.08l.22.3a.41.41,0,0,1-.06.63,4.38,4.38,0,0,1-2.76,1,4,4,0,0,1,0-8Z"/><path class="cls-4" d="M92.39,190.73h.23v-.13a.92.92,0,0,0-1-1,2.54,2.54,0,0,0-1.16.32c-.28.12-.49.08-.62-.18l-.11-.21a.41.41,0,0,1,.18-.62,4,4,0,0,1,1.83-.46A2.07,2.07,0,0,1,94,190.69v3a.4.4,0,0,1-.46.46h-.37a.4.4,0,0,1-.45-.46v-.22a1.22,1.22,0,0,1,0-.24h0A2,2,0,0,1,91,194.32a1.72,1.72,0,0,1-1.85-1.68C89.12,191,91.14,190.73,92.39,190.73Zm-1,2.52a1.42,1.42,0,0,0,1.28-1.47v-.2H92.4c-.7,0-1.9.11-1.9.94A.76.76,0,0,0,91.35,193.25Z"/><path class="cls-4" d="M95.33,189.05a.41.41,0,0,1,.45-.46h.42a.41.41,0,0,1,.45.46v.34a2.17,2.17,0,0,1,0,.26h0a2.17,2.17,0,0,1,1.83-1.19,1.56,1.56,0,0,1,1.64,1.15h0a2.22,2.22,0,0,1,1.91-1.15c1.16,0,1.83.66,1.83,2.13v3.13a.41.41,0,0,1-.46.46H103a.41.41,0,0,1-.47-.46v-2.87c0-.63-.12-1.12-.76-1.12-1,0-1.43,1-1.43,1.94v2.05a.4.4,0,0,1-.45.46h-.48a.41.41,0,0,1-.46-.46v-2.87c0-.6-.09-1.12-.74-1.12-1,0-1.45,1-1.45,1.94v2.05a.4.4,0,0,1-.45.46h-.48a.4.4,0,0,1-.45-.46Z"/><path class="cls-4" d="M105.21,189.05a.42.42,0,0,1,.46-.46H106c.3,0,.45.17.45.39v.25c0,.12,0,.22,0,.22h0a2,2,0,0,1,1.8-1c1.51,0,2.49,1.2,2.49,2.93a2.64,2.64,0,0,1-2.57,2.93,1.82,1.82,0,0,1-1.61-.86h0a3.58,3.58,0,0,1,0,.48v2a.41.41,0,0,1-.46.46h-.47a.41.41,0,0,1-.46-.46Zm2.74,4.09c.77,0,1.4-.62,1.4-1.73s-.57-1.75-1.38-1.75-1.41.52-1.41,1.76C106.56,192.29,107,193.14,108,193.14Z"/><path class="cls-4" d="M114.36,188.46a2.41,2.41,0,0,1,2.48,2.67.48.48,0,0,1-.48.47H113a1.6,1.6,0,0,0,1.68,1.53,2.34,2.34,0,0,0,1.2-.36c.28-.13.47-.1.62.15l.13.22a.42.42,0,0,1-.16.62,3.52,3.52,0,0,1-1.89.56,2.87,2.87,0,0,1-3-2.93A2.77,2.77,0,0,1,114.36,188.46Zm1.1,2.29a1.14,1.14,0,0,0-1.13-1.24,1.37,1.37,0,0,0-1.35,1.24Z"/><path class="cls-4" d="M117.89,189.05a.41.41,0,0,1,.45-.46h.43a.42.42,0,0,1,.46.46v.53a1.85,1.85,0,0,1,0,.38h0a1.94,1.94,0,0,1,1.63-1.41c.3,0,.41.15.41.46v.43a.42.42,0,0,1-.47.46c-1,0-1.51,1-1.51,2v1.79a.4.4,0,0,1-.45.46h-.48a.4.4,0,0,1-.45-.46Z"/><path class="cls-4" d="M125.88,186.27a4.29,4.29,0,0,1,2.54.78.42.42,0,0,1,.09.63l-.2.32c-.15.25-.36.28-.62.11a3.26,3.26,0,0,0-1.76-.55,2.51,2.51,0,0,0-2.6,2.68A2.6,2.6,0,0,0,126,193a3.2,3.2,0,0,0,1.9-.68.41.41,0,0,1,.64.08l.22.3a.42.42,0,0,1-.07.63,4.37,4.37,0,0,1-2.75,1,4,4,0,0,1,0-8Z"/><path class="cls-4" d="M132.77,190.73H133v-.13a.92.92,0,0,0-1-1,2.58,2.58,0,0,0-1.16.32c-.27.12-.48.08-.61-.18l-.11-.21a.42.42,0,0,1,.17-.62,4.09,4.09,0,0,1,1.83-.46,2.08,2.08,0,0,1,2.32,2.23v3a.41.41,0,0,1-.46.46h-.38a.4.4,0,0,1-.45-.46v-.22a.83.83,0,0,1,0-.24h0a2,2,0,0,1-1.75,1.06,1.71,1.71,0,0,1-1.85-1.68C129.51,191,131.53,190.73,132.77,190.73Zm-1,2.52a1.43,1.43,0,0,0,1.29-1.47v-.2h-.23c-.71,0-1.9.11-1.9.94A.75.75,0,0,0,131.73,193.25Z"/><path class="cls-4" d="M135.71,189.05a.41.41,0,0,1,.45-.46h.43a.42.42,0,0,1,.46.46v.53a2.44,2.44,0,0,1,0,.38h0a1.93,1.93,0,0,1,1.62-1.41c.31,0,.42.15.42.46v.43a.43.43,0,0,1-.47.46c-1,0-1.52,1-1.52,2v1.79a.4.4,0,0,1-.45.46h-.48a.4.4,0,0,1-.45-.46Z"/><path class="cls-4" d="M142.25,188.46a2.41,2.41,0,0,1,2.47,2.67.48.48,0,0,1-.48.47h-3.41a1.61,1.61,0,0,0,1.68,1.53,2.38,2.38,0,0,0,1.21-.36c.27-.13.47-.1.61.15l.13.22a.42.42,0,0,1-.15.62,3.53,3.53,0,0,1-1.9.56,2.87,2.87,0,0,1-3-2.93A2.76,2.76,0,0,1,142.25,188.46Zm1.09,2.29a1.14,1.14,0,0,0-1.13-1.24,1.36,1.36,0,0,0-1.34,1.24Z"/><path class="cls-4" d="M55.69,190.69a.8.8,0,0,1-.36-.09.76.76,0,0,1-.38-.93l8.11-25a1.72,1.72,0,0,1,1.65-1.2h0a1.71,1.71,0,0,1,1.65,1.2l1.64,5a.59.59,0,1,1-1.11.37l-1.65-5a.54.54,0,0,0-.53-.39h0a.55.55,0,0,0-.53.39l-7.34,22.58L67.18,173.5a3.22,3.22,0,0,1,2.59-1.31h6.89a1.73,1.73,0,0,1,1,3.13l-6.3,4.57a.17.17,0,0,1-.06.06l2.43,7.49a1.73,1.73,0,0,1-2.67,1.93l-5.44-4a1.75,1.75,0,0,1,0-2.81l4.57-3.3s0-.05.07-.06L77,174.37a.56.56,0,0,0-.33-1H69.77a2,2,0,0,0-1.64.84L56.31,190.37A.75.75,0,0,1,55.69,190.69Zm14.63-10-4,2.88a.57.57,0,0,0,0,.91l5.45,3.95a.53.53,0,0,0,.65,0,.52.52,0,0,0,.2-.62Z"/><path class="cls-4" d="M56.11,178.28a.6.6,0,0,1-.34-.11l-4-2.85a1.73,1.73,0,0,1,1-3.13h4.93a.59.59,0,0,1,0,1.17H52.76a.55.55,0,0,0-.53.39.53.53,0,0,0,.21.62l4,2.84a.6.6,0,0,1,.14.82A.61.61,0,0,1,56.11,178.28Z"/><path class="cls-4" d="M61.57,199a1.87,1.87,0,0,1-.94-.25l-10.26-5.82a.61.61,0,0,1-.3-.52V179.87a.59.59,0,0,1,1.18,0v12.18l10,5.66a.75.75,0,0,0,.75,0l7.28-4.56a.59.59,0,0,1,.63,1l-7.28,4.56A2,2,0,0,1,61.57,199Z"/></g></svg>