<?xml version="1.0" encoding="utf-8"?>
<!-- Generator: Adobe Illustrator 24.0.3, SVG Export Plug-In . SVG Version: 6.00 Build 0)  -->
<svg version="1.1" id="Layer_1" xmlns="http://www.w3.org/2000/svg" xmlns:xlink="http://www.w3.org/1999/xlink" x="0px" y="0px"
	 viewBox="0 0 320 480" style="enable-background:new 0 0 320 480;" xml:space="preserve">
<style type="text/css">
	.st0{clip-path:url(#SVGID_2_);}
	.st1{enable-background:new    ;}
	.st2{fill:#FFFFFF;}
</style>
<title>Artboard 1 copy 2</title>
<g>
	<defs>
		<rect id="SVGID_1_" x="0.7" y="0" width="320" height="480"/>
	</defs>
	<clipPath id="SVGID_2_">
		<use xlink:href="#SVGID_1_"  style="overflow:visible;"/>
	</clipPath>
	<g class="st0">
		<g class="st1">
			<path class="st2" d="M29.8,55.1v0.2H17.4v-0.2c2.3,0,2.9-0.9,2.9-2v-22c0-1.1-0.6-1.9-2.9-1.9V29h9.5v24.1
				C26.9,54.2,27.5,55.1,29.8,55.1z M44.9,52.6c-0.6,2.1-2.9,3.1-5.7,3.1c-5,0-6.2-3.5-6.4-6.7c-0.2-3.2-0.5-5.7-4-6.2v-0.2
				c3.6,0,5.2-3.1,5.2-7c0-4.3-1.6-6.4-5.2-6.4V29c7.9,0,11.7,1.7,11.7,6.6c0,4.2-3.1,6.7-8.9,7.1c7.1,0.3,8.1,3.1,8.5,6.3
				c0.4,3.1,1.2,5.3,2.6,5.3c0.7,0,1.3-0.6,1.9-1.7H44.9z"/>
		</g>
		<g class="st1">
			<path class="st2" d="M45.7,45.6c0-6.5,5-10,9.5-10v0.2c-2.3,0.3-2.9,2.2-2.9,9.6c0,5.6,2.5,8.6,5.9,8.6c2.2,0,3.8-0.6,5.7-2.1
				v0.2c-2,2.6-5.7,3.5-8.2,3.5C50.7,55.7,45.7,52.1,45.7,45.6z M54.5,44c3.4,0,4.8-1.1,4.8-4.3c0-1.9-0.8-3.6-2.5-3.8v-0.2
				c5.1,0,7.6,3.6,7.6,6.6c0,0.6-0.1,1.4-0.2,2h-9.7V44z"/>
			<path class="st2" d="M67.2,50.8c0-3.4,3.1-5.3,7.4-5.3h4.2v0.2h-1.2c-2.8,0-4.1,1.8-4.1,4.2c0,2.1,0.6,3.8,2.4,3.8
				c1.1,0,2-0.6,2.8-1.4v0.2c-1.3,1.5-3.3,3.1-6.2,3.1C69.4,55.7,67.1,53.9,67.2,50.8z M68.7,39.8c0-2,1.8-4,7.1-4.2v0.2
				c-1.6,0.2-2.5,1.5-2.5,2.8c0,1.4,1,2.2,2.5,2.4c-0.6,1.1-2.2,1.9-3.7,1.9C70,42.9,68.7,41.4,68.7,39.8z M80,51.4V39.5
				c0-1.9-0.7-3.4-2.6-3.7v-0.2c6.4,0.2,9,2.7,9,7.8v9.4c0,1.1,0.4,1.6,1.1,1.6c0.6,0,1.2-0.6,1.9-1.7h0.2c-0.6,2.1-2.7,3.1-5,3.1
				C81.4,55.7,80,54.7,80,51.4z"/>
		</g>
		<g class="st1">
			<path class="st2" d="M105.2,38.7V39c-0.9-1-2-1.4-3.2-1.4c-1.9,0-3.8,0.9-3.8,7.9c0,7,2,8.3,3.8,8.3c1.2,0,2.2-0.6,3.2-1.4v0.2
				c-1,1.6-3.4,3.1-5.6,3.1c-3.7,0-8-2.2-8-10.3c0-7.7,4.2-9.9,8-9.9C101.8,35.6,104.2,37.1,105.2,38.7z M112.7,52.8
				c0,1.1,0.3,1.6,1,1.6c0.6,0,1.2-0.6,1.9-1.7h0.2c-0.6,2.1-2.7,3.1-5,3.1c-3.1,0-4.5-1.1-4.5-4.4V30.7c0-1.4-0.7-2.1-2.9-2.1v-0.2
				c3.6,0,6-0.4,9.3-1.5V52.8z"/>
		</g>
		<g class="st1">
			<path class="st2" d="M118.1,37.6c-0.4-0.8-0.9-1.4-2.1-1.4V36h10.9v0.2c-1.4,0-1.9,0.9-1.2,2.3l5.1,10.6l-3.3,6.3h-0.2
				L118.1,37.6z M116.4,61.6c0-1.7,1.3-3.1,3.4-3.6c-0.1,0.3-0.2,0.7-0.2,1c0,1.5,0.8,2.6,2.3,2.6c1.4,0,2.4-1.4,3.9-3.9h0.3
				c-2.1,4-3.6,7.4-6.3,7.4C117.6,65,116.4,63.6,116.4,61.6z M132.3,45.3c0.7-1.2,1.1-2.9,1.1-5c0-2.1-1.2-4.1-4-4.1V36h9.7v0.2
				c-1.3,0-1.8,0.5-2.5,1.8l-4,7.6L132.3,45.3z"/>
		</g>
		<g class="st1">
			<path class="st2" d="M161.3,37l-0.4,0.6H157v15.6c0,1,0.6,2,2.9,2v0.2h-12.2v-0.2c2.3,0,2.9-1,2.9-2V37.6h-2.5l0.4-0.6h2.1v-1.7
				c0-5.5,2.9-7.8,6.4-8.4v0.2c-1.3,0.5-2.3,1.7-2.3,4.1C154.8,33.5,156.3,37,161.3,37z M164.6,31c0,2.2-1.6,3.4-3.4,3.4
				c-2.1,0-3.3-1.2-3.9-2.6c1.7,0,2.8-0.9,2.8-2.5c0-1.1-0.5-2.1-1.4-2.3v-0.2C162.7,27,164.6,28.8,164.6,31z"/>
		</g>
		<g class="st1">
			<path class="st2" d="M172.7,35.8c-2.3,0.3-3.1,2.2-3.1,9.8c0,7.3,0.8,9.7,3.1,9.9v0.2c-4.5,0-9.7-3.6-9.7-10.2
				c0-6.5,5.1-10,9.7-10V35.8z M183.9,45.6c0,6.5-5.2,10.2-9.6,10.2v-0.2c2.3-0.2,3-2.7,3-9.9c0-7.6-0.8-9.5-3-9.8v-0.2
				C178.8,35.6,183.9,39,183.9,45.6z"/>
		</g>
		<g class="st1">
			<path class="st2" d="M195.8,53.1c0,1,0.6,2,2.9,2v0.2h-12.2v-0.2c2.3,0,2.9-1,2.9-2V39.4c0-1.4-0.7-2.1-2.9-2.1v-0.2
				c3.6,0,6.5-0.4,9.3-1.5V53.1z M206.2,39.8c0,2.7-1.9,4.4-4,4.4c-0.9,0-1.7-0.2-2.2-0.9c0.7-0.4,1.5-1.2,1.5-2.6
				c0-1.1-0.8-2.1-2.2-2.1c-1,0-1.8,0.6-2.3,1.5v-0.3c0.7-2.5,2.6-4.2,5-4.2C204.8,35.6,206.2,37.4,206.2,39.8z"/>
		</g>
		<g class="st1">
			<path class="st2" d="M31.7,91.1v0.2c-1.2,1.8-3.7,3.1-6.6,3.1c-3.5,0-6-1.6-6-5.5V76.3h-2l0.4-0.6h1.6v-4.2
				c2.4,0,4.7-0.7,6.4-2.2v6.4h5.2l-0.4,0.6h-4.8v12.8c0,1.9,0.7,4,2.6,4C29.1,93.1,30.4,92.4,31.7,91.1z"/>
			<path class="st2" d="M41.7,91.9c0,1,0.6,2,2.9,2v0.2H32.4v-0.2c2.3,0,2.9-1,2.9-2V69.4c0-1.4-0.7-2.1-2.9-2.1v-0.2
				c3.6,0,6.5-0.4,9.3-1.5V91.9z M55.2,79.8v12.1c0,1,0.6,2,2.9,2v0.2H46v-0.2c2.3,0,2.9-1,2.9-2V79.8c0-2.2-1.1-3.3-3.1-3.3
				c-1.1,0-2,0.3-2.9,1.2v-0.2c1-1.6,3.6-3.1,6.4-3.1C52.8,74.3,55.2,76,55.2,79.8z"/>
			<path class="st2" d="M60.2,84.3c0-6.5,5-10,9.5-10v0.2c-2.3,0.3-2.9,2.2-2.9,9.6c0,5.6,2.5,8.6,5.9,8.6c2.2,0,3.8-0.6,5.7-2.1V91
				c-2,2.6-5.7,3.5-8.2,3.5C65.2,94.5,60.2,90.9,60.2,84.3z M69,82.7c3.4,0,4.8-1.1,4.8-4.3c0-1.9-0.8-3.6-2.5-3.8v-0.2
				c5.1,0,7.6,3.6,7.6,6.6c0,0.6-0.1,1.4-0.2,2H69V82.7z"/>
		</g>
		<g class="st1">
			<path class="st2" d="M101.8,94.3v0.2c-3.1-0.1-5.5-0.7-7.5-1.9L93,94.5h-0.3V85H93C94.3,89.4,97,92.7,101.8,94.3z M113.2,86.6
				c0,5-3.7,7.7-9.7,7.9v-0.2c2.1-0.4,4.2-1.6,4.2-4c0-6.8-14.8-7.4-14.8-15.3c0-4.7,3.8-7.3,8.9-7.7v0.2c-1.8,0.3-3.4,1.4-3.4,3.6
				C98.4,77.9,113.2,78.7,113.2,86.6z M103.5,67.6v-0.2c2.9,0.1,5.2,0.8,7,2.1l1.4-2.1h0.3V76h-0.3
				C110.6,71.9,107.3,68.5,103.5,67.6z"/>
		</g>
		<g class="st1">
			<path class="st2" d="M130.9,91.1v0.2c-1.2,1.8-3.7,3.1-6.6,3.1c-3.5,0-6-1.6-6-5.5V76.3h-2l0.4-0.6h1.6v-4.2
				c2.4,0,4.7-0.7,6.4-2.2v6.4h5.2l-0.4,0.6h-4.8v12.8c0,1.9,0.7,4,2.6,4C128.3,93.1,129.6,92.4,130.9,91.1z"/>
			<path class="st2" d="M132.1,89.5c0-3.4,3.1-5.3,7.4-5.3h4.2v0.2h-1.2c-2.8,0-4.1,1.8-4.1,4.2c0,2.1,0.6,3.8,2.4,3.8
				c1.1,0,2-0.6,2.8-1.4v0.2c-1.3,1.5-3.3,3.1-6.2,3.1C134.3,94.5,132.1,92.6,132.1,89.5z M133.7,78.6c0-2,1.8-4,7.1-4.2v0.2
				c-1.6,0.2-2.5,1.5-2.5,2.8c0,1.4,1,2.2,2.5,2.4c-0.6,1.1-2.2,1.9-3.7,1.9C134.9,81.6,133.7,80.2,133.7,78.6z M144.9,90.1V78.3
				c0-1.9-0.7-3.4-2.6-3.7v-0.2c6.4,0.2,9,2.7,9,7.8v9.4c0,1.1,0.4,1.6,1.1,1.6c0.6,0,1.2-0.6,1.9-1.7h0.2c-0.6,2.1-2.7,3.1-5,3.1
				C146.3,94.5,144.9,93.4,144.9,90.1z"/>
		</g>
		<g class="st1">
			<path class="st2" d="M165,91.9c0,1,0.6,2,2.9,2v0.2h-12.2v-0.2c2.3,0,2.9-1,2.9-2V78.1c0-1.4-0.7-2.1-2.9-2.1v-0.2
				c3.6,0,6.5-0.4,9.3-1.5V91.9z M175.4,78.5c0,2.7-1.9,4.4-4,4.4c-0.9,0-1.7-0.2-2.2-0.9c0.7-0.4,1.5-1.2,1.5-2.6
				c0-1.1-0.8-2.1-2.2-2.1c-1,0-1.8,0.6-2.3,1.5v-0.3c0.7-2.5,2.6-4.2,5-4.2C173.9,74.3,175.4,76.2,175.4,78.5z"/>
		</g>
		<g class="st1">
			<path class="st2" d="M31.7,129.9v0.2c-1.2,1.8-3.7,3.1-6.6,3.1c-3.5,0-6-1.6-6-5.5v-12.7h-2l0.4-0.6h1.6v-4.2
				c2.4,0,4.7-0.7,6.4-2.2v6.4h5.2l-0.4,0.6h-4.8v12.8c0,1.9,0.7,4,2.6,4C29.1,131.9,30.4,131.2,31.7,129.9z"/>
		</g>
		<g class="st1">
			<path class="st2" d="M41.9,130.7c0,1,0.6,2,2.9,2v0.2H32.6v-0.2c2.3,0,2.9-1,2.9-2v-13.8c0-1.4-0.7-2.1-2.9-2.1v-0.2
				c3.6,0,6.5-0.4,9.3-1.5V130.7z M52.4,117.3c0,2.7-1.9,4.4-4,4.4c-0.9,0-1.7-0.2-2.2-0.9c0.7-0.4,1.5-1.2,1.5-2.6
				c0-1.1-0.8-2.1-2.2-2.1c-1,0-1.8,0.6-2.3,1.5v-0.3c0.7-2.5,2.6-4.2,5-4.2C50.9,113.1,52.4,115,52.4,117.3z"/>
		</g>
		<g class="st1">
			<path class="st2" d="M54.5,123.1c0-6.5,5-10,9.5-10v0.2c-2.3,0.3-2.9,2.2-2.9,9.6c0,5.6,2.5,8.6,5.9,8.6c2.2,0,3.8-0.6,5.7-2.1
				v0.2c-2,2.6-5.7,3.5-8.2,3.5C59.5,133.3,54.5,129.6,54.5,123.1z M63.2,121.5c3.4,0,4.8-1.1,4.8-4.3c0-1.9-0.8-3.6-2.5-3.8v-0.2
				c5.1,0,7.6,3.6,7.6,6.6c0,0.6-0.1,1.4-0.2,2h-9.7V121.5z"/>
			<path class="st2" d="M75.9,128.3c0-3.4,3.1-5.3,7.4-5.3h4.2v0.2h-1.2c-2.8,0-4.1,1.8-4.1,4.2c0,2.1,0.6,3.8,2.4,3.8
				c1.1,0,2-0.6,2.8-1.4v0.2c-1.3,1.5-3.3,3.1-6.2,3.1C78.1,133.3,75.9,131.4,75.9,128.3z M77.5,117.3c0-2,1.8-4,7.1-4.2v0.2
				c-1.6,0.2-2.5,1.5-2.5,2.8c0,1.4,1,2.2,2.5,2.4c-0.6,1.1-2.2,1.9-3.7,1.9C78.7,120.4,77.5,119,77.5,117.3z M88.7,128.9V117
				c0-1.9-0.7-3.4-2.6-3.7v-0.2c6.4,0.2,9,2.7,9,7.8v9.4c0,1.1,0.4,1.6,1.1,1.6c0.6,0,1.2-0.6,1.9-1.7h0.2c-0.6,2.1-2.7,3.1-5,3.1
				C90.1,133.3,88.7,132.2,88.7,128.9z"/>
			<path class="st2" d="M114.5,129.9v0.2c-1.2,1.8-3.7,3.1-6.6,3.1c-3.5,0-6-1.6-6-5.5v-12.7h-2l0.4-0.6h1.6v-4.2
				c2.4,0,4.7-0.7,6.4-2.2v6.4h5.2l-0.4,0.6h-4.8v12.8c0,1.9,0.7,4,2.6,4C111.9,131.9,113.2,131.2,114.5,129.9z"/>
			<path class="st2" d="M124.7,130.7c0,1,0.6,2,2.9,2v0.2h-12.2v-0.2c2.3,0,2.9-1,2.9-2v-13.8c0-1.4-0.7-2.1-2.9-2.1v-0.2
				c3.6,0,6.5-0.4,9.3-1.5V130.7z M137.6,118.6v12.1c0,1,0.5,2,2.9,2v0.2h-12.2v-0.2c2.3,0,2.9-1,2.9-2v-12.1c0-2.2-0.9-3.3-2.7-3.3
				c-1.1,0-2.1,0.5-2.6,1.2v-0.2c0.9-1.6,2.8-3.1,5.7-3.1C135.3,113.1,137.6,114.7,137.6,118.6z M150.4,118.6v12.1c0,1,0.6,2,2.9,2
				v0.2h-12.2v-0.2c2.3,0,2.9-1,2.9-2v-12.1c0-2.2-0.9-3.3-2.7-3.3c-1.1,0-2.1,0.5-2.6,1.2v-0.2c0.9-1.6,2.8-3.1,5.7-3.1
				C148.1,113.1,150.4,114.7,150.4,118.6z"/>
			<path class="st2" d="M155.4,123.1c0-6.5,5-10,9.5-10v0.2c-2.3,0.3-2.9,2.2-2.9,9.6c0,5.6,2.5,8.6,5.9,8.6c2.2,0,3.8-0.6,5.7-2.1
				v0.2c-2,2.6-5.7,3.5-8.2,3.5C160.4,133.3,155.4,129.6,155.4,123.1z M164.1,121.5c3.4,0,4.8-1.1,4.8-4.3c0-1.9-0.8-3.6-2.5-3.8
				v-0.2c5.1,0,7.6,3.6,7.6,6.6c0,0.6-0.1,1.4-0.2,2h-9.7V121.5z"/>
			<path class="st2" d="M176.5,132.6c2.3,0,2.9-1,2.9-2v-13.8c0-1.4-0.7-2.1-2.9-2.1v-0.2c3.6,0,6.5-0.4,9.3-1.5v17.6
				c0,1,0.6,2,2.9,2v0.2h-12.2V132.6z M190.2,132.6c2.3,0,2.9-1,2.9-2v-12.1c0-2.2-1.1-3.3-3.1-3.3c-1.1,0-2,0.3-2.9,1.2v-0.2
				c1-1.6,3.6-3.1,6.4-3.1c3.5,0,6,1.6,6,5.5v12.1c0,1,0.6,2,2.9,2v0.2h-12.2V132.6z"/>
			<path class="st2" d="M218.8,129.9v0.2c-1.2,1.8-3.7,3.1-6.6,3.1c-3.5,0-6-1.6-6-5.5v-12.7h-2l0.4-0.6h1.6v-4.2
				c2.4,0,4.7-0.7,6.4-2.2v6.4h5.2l-0.4,0.6h-4.8v12.8c0,1.9,0.7,4,2.6,4C216.2,131.9,217.5,131.2,218.8,129.9z"/>
			<path class="st2" d="M220,111.4c0-3.4,4.7-5.1,8.2-5.2v0.2c-1.9,0.5-2.8,2.2-2.8,3.8c0,1.4,0.5,2.7,2.2,3.3
				c-0.7,0.9-1.9,1.5-3.6,1.5C222,115,220,113.9,220,111.4z M225.7,132c0-2.1,1.7-3.5,4.1-3.5s4.1,1.4,4.1,3.5
				c0,2.2-1.7,3.6-4.1,3.6S225.7,134.1,225.7,132z M226.7,121.1c0-4.3,6.2-5.6,6.2-10.6c0-2.1-0.8-3.4-2.8-4.1v-0.2
				c5.3,0.3,9.4,2.1,9.4,6.4c0,5.3-8.4,6.9-8.4,10.3c0,1,0.3,1.7,1.4,2.2l0,0.2C228.5,125.4,226.7,123.4,226.7,121.1z"/>
		</g>
	</g>
</g>
</svg>
