<?xml version="1.0" encoding="utf-8"?>
<!-- Generator: Adobe Illustrator 24.0.3, SVG Export Plug-In . SVG Version: 6.00 Build 0)  -->
<svg version="1.1" id="Layer_1" xmlns="http://www.w3.org/2000/svg" xmlns:xlink="http://www.w3.org/1999/xlink" x="0px" y="0px"
	 viewBox="0 0 320 480" style="enable-background:new 0 0 320 480;" xml:space="preserve">
<style type="text/css">
	.st0{enable-background:new    ;}
	.st1{fill:#263845;}
	.st2{fill:none;}
</style>
<title>Artboard 1</title>
<g class="st0">
	<path class="st1" d="M20.4,67.4l0.3,0.5L21,85.1c0,1.8,1.3,3.4,4,3.4v0.2h-9v-0.2c2.7,0,4-1.7,4-3.4L20.4,67.4z M42.1,88.8h-4.6
		L20.4,63.2c-1.1-1.6-2.3-2.1-4.4-2.1v-0.2h11l15.1,22.6V88.8z M42.1,79.4l-0.3-0.5l-0.5-14.3c0-1.8-1.3-3.4-4-3.4v-0.2h9v0.2
		c-2.7,0-4,1.7-4,3.4L42.1,79.4z"/>
	<path class="st1" d="M64.6,60.9h7.8L56.1,88.8h-7.8L64.6,60.9z M49.5,60.9h12.4l-0.1,0.2c-6.1,0.3-10.9,4.5-11.9,9.6h-0.3V60.9z
		 M58.9,88.6c6.2-0.5,11.1-4.4,12.8-11h0.3v11.2H58.8L58.9,88.6z"/>
</g>
<g class="st0">
	<path class="st1" d="M83.9,62.2c0,2.4-2.5,5.5-6.7,7.2l-0.1-0.4c1.2-0.9,2.3-2.5,2.3-4c0-1.8-1.3-2.7-2.8-2.7
		c0.3-2.4,1.8-3.7,3.9-3.7C82.3,58.6,83.9,59.9,83.9,62.2z"/>
</g>
<g class="st0">
	<path class="st1" d="M92.3,83.9C91,84,90,84.8,90,86c0,1.2,0.8,2.7,3.7,3v0.2c-5.5-0.2-8.5-1.7-8.5-4.1c0-1.9,1.6-3,3.5-3
		C90.3,82.1,91.7,82.9,92.3,83.9z M93.7,68.1c-1.5,0.3-3,1.1-3,2.8c0.1,4.8,13.4,5.5,13.4,12.1c0,4-3.4,6.1-8.7,6.3V89
		c1.7-0.3,3.7-0.9,3.7-3c0-4.3-13.5-5.8-13.5-12.1c0-3.6,3.4-5.8,8-6V68.1z M103.4,72.1c0,1.3-1,2.5-3,2.5c-1.7,0-3-0.7-3.5-2
		c1.2-0.1,1.9-0.9,1.8-1.9c0-1.2-1.6-2.4-3.2-2.6v-0.2C100.1,68.1,103.4,69.8,103.4,72.1z"/>
	<path class="st1" d="M117.1,60.2c3.8,0,6.9-0.4,9.8-1.6v27.8c0,1,0.6,2.1,3.1,2.1v0.2H117v-0.2c2.5,0,3.1-1.1,3.1-2.1V62.7
		c0-1.5-0.7-2.2-3-2.2V60.2z"/>
	<path class="st1" d="M132.4,78.5c0-6.9,5.3-10.6,10.1-10.6v0.2c-2.4,0.3-3.1,2.3-3.1,10.2c0,5.9,2.6,9.2,6.3,9.2
		c2.3,0,4.1-0.7,6-2.2v0.2c-2.1,2.7-6,3.7-8.7,3.7C137.7,89.2,132.4,85.4,132.4,78.5z M141.7,76.7c3.6,0,5.1-1.1,5.1-4.6
		c0-2-0.8-3.8-2.7-4v-0.2c5.4,0,8,3.9,8,7c0,0.7-0.1,1.5-0.2,2.1h-10.3V76.7z"/>
	<path class="st1" d="M155.1,84c0-3.6,3.3-5.6,7.9-5.6h4.4v0.2h-1.2c-3,0-4.4,1.9-4.4,4.5c0,2.3,0.7,4,2.6,4c1.1,0,2.1-0.6,3-1.4
		v0.2c-1.4,1.6-3.5,3.3-6.5,3.3C157.4,89.2,155.1,87.3,155.1,84z M156.8,72.4c0-2.1,1.9-4.2,7.5-4.5v0.2c-1.6,0.2-2.6,1.6-2.6,3
		c0,1.5,1,2.4,2.7,2.5c-0.6,1.1-2.3,2-3.9,2C158.1,75.6,156.8,74.1,156.8,72.4z M168.7,84.6V72c0-2-0.8-3.6-2.8-3.9v-0.2
		c6.8,0.2,9.5,2.8,9.5,8.2v10c0,1.2,0.4,1.7,1.2,1.7c0.6,0,1.3-0.6,2-1.8h0.2c-0.7,2.3-2.9,3.3-5.3,3.3
		C170.2,89.2,168.7,88.1,168.7,84.6z"/>
	<path class="st1" d="M195.4,71.2v0.3c-0.9-1-2.1-1.5-3.4-1.5c-2.1,0-4,0.9-4,8.4c0,7.4,2.1,8.7,4,8.7c1.3,0,2.4-0.7,3.4-1.4v0.2
		c-1,1.7-3.6,3.3-6,3.3c-3.9,0-8.5-2.3-8.5-10.9c0-8.2,4.5-10.5,8.5-10.5C191.8,67.9,194.4,69.4,195.4,71.2z M203.4,86.1
		c0,1.2,0.4,1.7,1.1,1.7c0.6,0,1.3-0.6,2-1.8h0.2c-0.7,2.3-2.9,3.3-5.3,3.3c-3.3,0-4.8-1.1-4.8-4.6V62.7c0-1.5-0.7-2.2-3-2.2v-0.2
		c3.8,0,6.4-0.4,9.8-1.6V86.1z"/>
	<path class="st1" d="M208.4,69.4c3.8,0,6.9-0.4,9.8-1.6v18.6c0,1,0.6,2.1,3.1,2.1v0.2h-12.9v-0.2c2.5,0,3.1-1.1,3.1-2.1V71.9
		c0-1.5-0.7-2.2-3-2.2V69.4z M210.5,61.7c0-2.1,1.7-3.6,4.2-3.6c2.5,0,4.2,1.4,4.2,3.6c0,2.2-1.7,3.6-4.2,3.6
		C212.3,65.3,210.5,63.9,210.5,61.7z"/>
	<path class="st1" d="M223.1,88.6c2.5,0,3.1-1.1,3.1-2.1V71.9c0-1.5-0.7-2.2-3-2.2v-0.2c3.8,0,6.9-0.4,9.8-1.6v18.6
		c0,1,0.6,2.1,3.1,2.1v0.2h-12.9V88.6z M237.5,88.6c2.4,0,3-1.1,3-2.1V73.7c0-2.3-1.2-3.5-3.2-3.5c-1.1,0-2.1,0.4-3.1,1.3v-0.2
		c1.1-1.7,3.8-3.3,6.8-3.3c3.7,0,6.3,1.7,6.3,5.8v12.8c0,1,0.6,2.1,3.1,2.1v0.2h-12.9V88.6z"/>
	<path class="st1" d="M252.8,75.3c0-5.3,5-7.4,9.2-7.4v0.2c-1.8,0.2-2.6,2.3-2.6,7.1c0,5,0.8,7,2.6,7.1v0.2
		C257.9,82.6,252.8,80.6,252.8,75.3z M263.7,98.8c4.1-0.5,5.4-2.7,5.4-4.2c0-5.7-16-0.6-16-8c0-1.7,0.9-3,2.8-4.2l0.1,0.2
		c-0.2,0.2-0.4,0.5-0.4,0.8c0,4.6,18.7-0.7,18.7,8.2c0,4.2-3.7,7-10.6,7.4V98.8z M253.1,95.4c0-2.4,3-3.2,6.2-3.2
		c-0.7,0.3-1.8,1.5-1.8,2.9c0,1.9,2.1,3.3,4.5,3.7v0.2C257.7,99,253.1,98.1,253.1,95.4z M263.7,82.3c2-0.2,2.8-2.2,2.8-7.1
		c0-4.8-0.9-6.9-2.8-7.1v-0.2c4.4,0.1,9.4,2.1,9.4,7.4c0,5.3-5.1,7.3-9.4,7.3V82.3z M266,67.1c0.7-2.1,2.6-4.9,5.4-4.9
		c2.2,0,3.5,1.1,3.5,3.1c0,2-1.8,3.2-3.3,3.2c0-1.7-0.9-2.8-2.2-2.8c-1.2,0-2.6,0.7-3.2,1.5L266,67.1z"/>
</g>
<g class="st0">
	<path class="st1" d="M29.9,129.6v0.2H16.8v-0.2c2.5,0,3.1-1,3.1-2.1v-23.3c0-1.2-0.6-2.1-3.1-2.1V102h10.1v25.6
		C26.8,128.6,27.4,129.6,29.9,129.6z M46,127c-0.7,2.3-3.1,3.3-6.1,3.3c-5.3,0-6.6-3.7-6.8-7.1c-0.2-3.4-0.6-6-4.2-6.5v-0.2
		c3.8,0,5.5-3.3,5.5-7.4c0-4.6-1.7-6.8-5.5-6.8V102c8.3,0,12.4,1.8,12.4,7c0,4.4-3.3,7.1-9.4,7.5c7.5,0.3,8.6,3.2,9,6.7
		c0.4,3.3,1.3,5.7,2.7,5.7c0.7,0,1.4-0.6,2.1-1.8H46z"/>
</g>
<g class="st0">
	<path class="st1" d="M46.6,104.3c-0.7-1.6-1.7-2.1-3.7-2.1V102h14.8v0.2c-1.9,0-3.6,1.2-2.5,3.4l7.8,16.3l-3.7,8.4h-0.5L46.6,104.3
		z M64.5,118.1c2.4-5.5,2.9-8.9,2.9-11.5c0-3-2.5-4.5-4.7-4.5V102h11.8v0.2c-1.9,0-3,1.8-4.4,4.6l-5.6,11.8L64.5,118.1z"/>
</g>
<g class="st0">
	<path class="st1" d="M83.5,110.5c3.8,0,6.9-0.4,9.8-1.6v18.6c0,1,0.6,2.1,3.1,2.1v0.2H83.5v-0.2c2.5,0,3.1-1.1,3.1-2.1v-14.6
		c0-1.5-0.7-2.2-3-2.2V110.5z M85.6,102.8c0-2.1,1.7-3.6,4.2-3.6c2.5,0,4.2,1.4,4.2,3.6c0,2.2-1.7,3.6-4.2,3.6
		C87.3,106.4,85.6,105,85.6,102.8z"/>
	<path class="st1" d="M98.1,129.6c2.5,0,3.1-1.1,3.1-2.1V113c0-1.5-0.7-2.2-3-2.2v-0.2c3.8,0,6.9-0.4,9.8-1.6v18.6
		c0,1,0.6,2.1,3.1,2.1v0.2H98.1V129.6z M112.6,129.6c2.4,0,3-1.1,3-2.1v-12.8c0-2.3-1.2-3.5-3.2-3.5c-1.1,0-2.1,0.4-3.1,1.3v-0.2
		c1.1-1.7,3.8-3.3,6.8-3.3c3.7,0,6.3,1.7,6.3,5.8v12.8c0,1,0.6,2.1,3.1,2.1v0.2h-12.9V129.6z"/>
	<path class="st1" d="M134.9,125c-1.4,0-2.3,0.8-2.3,2.1c0,1.2,0.8,2.7,3.7,3v0.2c-5.5-0.2-8.5-1.7-8.5-4.1c0-1.9,1.6-3,3.5-3
		C132.9,123.2,134.2,124,134.9,125z M136.2,109.2c-1.5,0.3-3,1.1-3,2.8c0.1,4.8,13.4,5.5,13.4,12.1c0,4-3.4,6.1-8.7,6.3V130
		c1.7-0.3,3.7-0.9,3.7-3c0-4.3-13.5-5.8-13.5-12.1c0-3.6,3.4-5.8,8-6V109.2z M145.9,113.2c0,1.3-1,2.5-3,2.5c-1.7,0-3-0.7-3.5-2
		c1.2-0.1,1.9-0.9,1.8-1.9c0-1.2-1.6-2.4-3.2-2.6v-0.2C142.7,109.2,145.9,110.9,145.9,113.2z"/>
	<path class="st1" d="M158.8,124.5c0,2.3,0.8,3.5,2.8,3.5c1.1,0,1.9-0.3,2.8-1.3v0.2c-0.9,1.8-3,3.3-6.4,3.3c-3.7,0-6.1-1.7-6.1-5.8
		V113c0-1.5-0.7-2.2-3-2.2v-0.2c3.8,0,6.9-0.4,9.8-1.6V124.5z M172.5,127.1c0,1.2,0.4,1.7,1.1,1.7c0.6,0,1.3-0.6,2-1.8h0.2
		c-0.7,2.3-2.9,3.3-5.6,3.3c-2.9,0-4.5-1.6-4.5-4V113c0-1.5-0.7-2.2-2.9-2.2v-0.2c3.7,0,6.2-0.4,9.7-1.6V127.1z"/>
</g>
<g class="st0">
	<path class="st1" d="M187.3,127.5c0,1,0.6,2.1,3.1,2.1v0.2h-12.9v-0.2c2.5,0,3.1-1.1,3.1-2.1V113c0-1.5-0.7-2.2-3-2.2v-0.2
		c3.8,0,6.9-0.4,9.8-1.6V127.5z M198.4,113.4c0,2.8-2,4.7-4.2,4.7c-1,0-1.8-0.2-2.3-0.9c0.8-0.4,1.6-1.3,1.6-2.8
		c0-1.2-0.9-2.2-2.3-2.2c-1.1,0-1.9,0.6-2.5,1.6v-0.3c0.8-2.6,2.8-4.4,5.3-4.4C196.8,108.9,198.4,110.9,198.4,113.4z"/>
</g>
<g class="st0">
	<path class="st1" d="M200.1,125c0-3.6,3.3-5.6,7.9-5.6h4.4v0.2h-1.2c-3,0-4.4,1.9-4.4,4.5c0,2.3,0.7,4,2.6,4c1.1,0,2.1-0.6,3-1.4
		v0.2c-1.4,1.6-3.5,3.3-6.5,3.3C202.4,130.3,200.1,128.3,200.1,125z M201.8,113.4c0-2.1,1.9-4.2,7.5-4.5v0.2c-1.6,0.2-2.6,1.6-2.6,3
		c0,1.5,1,2.4,2.7,2.5c-0.6,1.1-2.3,2-3.9,2C203.1,116.7,201.8,115.1,201.8,113.4z M213.7,125.7v-12.6c0-2-0.8-3.6-2.8-3.9v-0.2
		c6.8,0.2,9.5,2.8,9.5,8.2v10c0,1.2,0.4,1.7,1.2,1.7c0.6,0,1.3-0.6,2-1.8h0.2c-0.7,2.3-2.9,3.3-5.3,3.3
		C215.2,130.3,213.7,129.1,213.7,125.7z"/>
	<path class="st1" d="M225.1,129.6c2.5,0,3.1-1.1,3.1-2.1V113c0-1.5-0.7-2.2-3-2.2v-0.2c3.8,0,6.9-0.4,9.8-1.6v18.6
		c0,1,0.6,2.1,3.1,2.1v0.2h-12.9V129.6z M239.5,129.6c2.4,0,3-1.1,3-2.1v-12.8c0-2.3-1.2-3.5-3.2-3.5c-1.2,0-2.1,0.4-3.1,1.3v-0.2
		c1.1-1.7,3.8-3.3,6.8-3.3c3.7,0,6.3,1.7,6.3,5.8v12.8c0,1,0.6,2.1,3.1,2.1v0.2h-12.9V129.6z"/>
	<path class="st1" d="M265.1,109.2c-2.4,0.3-3.5,2.3-3.5,10.2c0,5.9,3,9.2,6.7,9.2c2.3,0,4.1-0.7,6-2.2v0.2c-2.1,2.7-6,3.7-8.7,3.7
		c-5.3,0-11-3.9-11-10.8s5.7-10.6,10.5-10.6V109.2z M274.2,113.6c0,2.2-1.5,3.9-4.1,3.9c-2,0-3.3-1.3-3.6-2.6c1.2-0.5,2-1.9,2-3
		c0-0.9-0.2-2.4-1.8-2.7v-0.3C272.2,108.9,274.2,111.2,274.2,113.6z"/>
	<path class="st1" d="M277.3,119.5c0-6.9,5.3-10.6,10.1-10.6v0.2c-2.4,0.3-3.1,2.3-3.1,10.2c0,5.9,2.6,9.2,6.3,9.2
		c2.3,0,4.1-0.7,6-2.2v0.2c-2.1,2.7-6,3.7-8.7,3.7C282.6,130.3,277.3,126.4,277.3,119.5z M286.6,117.8c3.6,0,5.1-1.1,5.1-4.6
		c0-2-0.8-3.8-2.7-4v-0.2c5.4,0,8,3.9,8,7c0,0.7-0.1,1.5-0.2,2.1h-10.3V117.8z"/>
</g>
<g class="st0">
	<path class="st1" d="M25.5,177.2c0,1.5,0.7,2.2,3,2.2v0.2c-3.8,0-6.4,0.4-9.8,1.6V154c0-1.5-0.7-2.2-3-2.2v-0.2
		c3.8,0,6.4-0.4,9.8-1.6V177.2z M41.1,160.5c0,8.6-4.5,10.9-8.4,10.9c-2.3,0-5-1.6-6-3.3v-0.2c1,0.8,2.1,1.4,3.4,1.4
		c1.9,0,4-1.4,4-8.7c0-7.4-1.9-8.4-4-8.4c-1.3,0-2.5,0.5-3.4,1.5v-0.3c1-1.7,3.7-3.3,6-3.3C36.7,150,41.1,152.3,41.1,160.5z"/>
	<path class="st1" d="M55,150.2c-2.4,0.3-3.2,2.3-3.2,10.3c0,7.7,0.8,10.3,3.2,10.5v0.2c-4.7,0-10.2-3.9-10.2-10.8S50.1,150,55,150
		V150.2z M66.8,160.6c0,6.9-5.5,10.8-10.2,10.8v-0.2c2.4-0.2,3.2-2.8,3.2-10.5c0-8-0.8-10.1-3.2-10.3V150
		C61.4,150,66.8,153.7,66.8,160.6z"/>
	<path class="st1" d="M69.3,142.4c3.8,0,6.9-0.4,9.8-1.6v27.8c0,1,0.6,2.1,3.1,2.1v0.2H69.2v-0.2c2.5,0,3.1-1.1,3.1-2.1v-23.8
		c0-1.5-0.7-2.2-3-2.2V142.4z"/>
	<path class="st1" d="M84,151.6c3.8,0,6.9-0.4,9.8-1.6v18.6c0,1,0.6,2.1,3.1,2.1v0.2H83.9v-0.2c2.5,0,3.1-1.1,3.1-2.1V154
		c0-1.5-0.7-2.2-3-2.2V151.6z M86.1,143.8c0-2.1,1.7-3.6,4.2-3.6c2.5,0,4.2,1.4,4.2,3.6c0,2.2-1.7,3.6-4.2,3.6
		C87.8,147.5,86.1,146,86.1,143.8z"/>
	<path class="st1" d="M109.8,150.2c-2.4,0.3-3.5,2.3-3.5,10.2c0,5.9,3,9.2,6.7,9.2c2.3,0,4.1-0.7,6-2.2v0.2c-2.1,2.7-6,3.7-8.7,3.7
		c-5.3,0-11-3.9-11-10.8S105,150,109.8,150V150.2z M119,154.6c0,2.2-1.5,3.9-4.1,3.9c-2,0-3.3-1.3-3.6-2.6c1.1-0.5,2-1.9,2-3
		c0-0.9-0.2-2.4-1.8-2.7V150C116.9,150,119,152.3,119,154.6z"/>
</g>
<g class="st0">
	<path class="st1" d="M122.4,152.1c-0.4-0.9-1-1.4-2.3-1.4v-0.2h11.5v0.2c-1.4,0-2,1-1.3,2.4l5.4,11.2l-3.5,6.7h-0.2L122.4,152.1z
		 M120.6,177.6c0-1.8,1.4-3.2,3.6-3.9c-0.1,0.4-0.2,0.7-0.2,1c0,1.6,0.8,2.8,2.4,2.8c1.4,0,2.6-1.5,4.1-4.1h0.3
		c-2.3,4.2-3.8,7.9-6.7,7.9C121.9,181.2,120.6,179.6,120.6,177.6z M137.4,160.3c0.7-1.3,1.1-3.1,1.1-5.3c0-2.3-1.3-4.3-4.2-4.3v-0.2
		h10.2v0.2c-1.4,0-1.9,0.5-2.7,1.9l-4.3,8L137.4,160.3z"/>
</g>
<rect x="0.6" y="0" class="st2" width="320" height="480"/>
</svg>
