<?xml version="1.0" encoding="utf-8"?>
<!-- Generator: Adobe Illustrator 24.0.3, SVG Export Plug-In . SVG Version: 6.00 Build 0)  -->
<svg version="1.1" id="Layer_1" xmlns="http://www.w3.org/2000/svg" xmlns:xlink="http://www.w3.org/1999/xlink" x="0px" y="0px"
	 viewBox="0 0 320 480" style="enable-background:new 0 0 320 480;" xml:space="preserve">
<style type="text/css">
	.st0{clip-path:url(#SVGID_2_);}
	.st1{enable-background:new    ;}
	.st2{fill:#FFFFFF;}
</style>
<title>Artboard 1 copy</title>
<g>
	<defs>
		<rect id="SVGID_1_" y="0" width="320" height="480"/>
	</defs>
	<clipPath id="SVGID_2_">
		<use xlink:href="#SVGID_1_"  style="overflow:visible;"/>
	</clipPath>
	<g class="st0">
		<g class="st1">
			<path class="st2" d="M37.7,34.9l-8.7,20.4h-0.5L17.3,31.2c-0.6-1.3-2.1-2-4.1-2V29h10.4l8.1,17.5l6-12.4V34.9z M21.7,55.1v0.2
				h-8.5v-0.2c2.6,0,3.8-1.6,3.8-3.3l0.3-16.7l0.3,0.7l0.3,16C18,53.5,19.2,55.1,21.7,55.1z M45.8,31.2v21.9c0,1,0.6,2,2.9,2v0.2
				H36.3v-0.2c2.3,0,2.9-0.9,2.9-2V29h9.5v0.2C46.4,29.2,45.8,30.2,45.8,31.2z"/>
		</g>
		<g class="st1">
			<path class="st2" d="M61,35.8c-2.3,0.3-3.1,2.2-3.1,9.8c0,7.3,0.8,9.7,3.1,9.9v0.2c-4.5,0-9.7-3.6-9.7-10.2c0-6.5,5.1-10,9.7-10
				V35.8z M72.1,45.6c0,6.5-5.2,10.2-9.6,10.2v-0.2c2.3-0.2,3-2.7,3-9.9c0-7.6-0.8-9.5-3-9.8v-0.2C67,35.6,72.1,39,72.1,45.6z"/>
		</g>
		<g class="st1">
			<path class="st2" d="M84,53.1c0,1,0.6,2,2.9,2v0.2H74.7v-0.2c2.3,0,2.9-1,2.9-2V39.4c0-1.4-0.7-2.1-2.9-2.1v-0.2
				c3.6,0,6.5-0.4,9.3-1.5V53.1z M94.5,39.8c0,2.7-1.9,4.4-4,4.4c-0.9,0-1.7-0.2-2.2-0.9c0.7-0.4,1.5-1.2,1.5-2.6
				c0-1.1-0.8-2.1-2.2-2.1c-1,0-1.8,0.6-2.3,1.5v-0.3c0.7-2.5,2.6-4.2,5-4.2C93,35.6,94.5,37.4,94.5,39.8z"/>
		</g>
		<g class="st1">
			<path class="st2" d="M96.5,45.6c0-6.5,5-10,9.5-10v0.2c-2.3,0.3-2.9,2.2-2.9,9.6c0,5.6,2.5,8.6,5.9,8.6c2.2,0,3.8-0.6,5.7-2.1
				v0.2c-2,2.6-5.7,3.5-8.2,3.5C101.5,55.7,96.5,52.1,96.5,45.6z M105.3,44c3.4,0,4.8-1.1,4.8-4.3c0-1.9-0.8-3.6-2.5-3.8v-0.2
				c5.1,0,7.6,3.6,7.6,6.6c0,0.6-0.1,1.4-0.2,2h-9.7V44z"/>
		</g>
		<g class="st1">
			<path class="st2" d="M13.9,84.3c0-6.5,5-10,9.5-10v0.2c-2.3,0.3-2.9,2.2-2.9,9.6c0,5.6,2.5,8.6,5.9,8.6c2.2,0,3.8-0.6,5.7-2.1V91
				c-2,2.6-5.7,3.5-8.2,3.5C18.9,94.5,13.9,90.9,13.9,84.3z M22.6,82.7c3.4,0,4.8-1.1,4.8-4.3c0-1.9-0.8-3.6-2.5-3.8v-0.2
				c5.1,0,7.6,3.6,7.6,6.6c0,0.6-0.1,1.4-0.2,2h-9.7V82.7z"/>
		</g>
		<g class="st1">
			<path class="st2" d="M35.7,76.3c-0.4-0.8-0.9-1.4-2.1-1.4v-0.2h10.9V75c-1.4,0-1.9,0.9-1.2,2.3l5.1,10.6l-3.3,6.3h-0.2L35.7,76.3
				z M49.9,84c0.7-1.2,1.1-2.9,1.1-5c0-2.1-1.2-4.1-4-4.1v-0.2h9.7V75c-1.3,0-1.8,0.5-2.5,1.8l-4,7.6L49.9,84z"/>
		</g>
		<g class="st1">
			<path class="st2" d="M57,84.3c0-6.5,5-10,9.5-10v0.2c-2.3,0.3-2.9,2.2-2.9,9.6c0,5.6,2.5,8.6,5.9,8.6c2.2,0,3.8-0.6,5.7-2.1V91
				c-2,2.6-5.7,3.5-8.2,3.5C62,94.5,57,90.9,57,84.3z M65.7,82.7c3.4,0,4.8-1.1,4.8-4.3c0-1.9-0.8-3.6-2.5-3.8v-0.2
				c5.1,0,7.6,3.6,7.6,6.6c0,0.6-0.1,1.4-0.2,2h-9.7V82.7z"/>
			<path class="st2" d="M87.4,91.9c0,1,0.6,2,2.9,2v0.2H78.1v-0.2c2.3,0,2.9-1,2.9-2V78.1c0-1.4-0.7-2.1-2.9-2.1v-0.2
				c3.6,0,6.5-0.4,9.3-1.5V91.9z M97.9,78.5c0,2.7-1.9,4.4-4,4.4c-0.9,0-1.7-0.2-2.2-0.9c0.7-0.4,1.5-1.2,1.5-2.6
				c0-1.1-0.8-2.1-2.2-2.1c-1,0-1.8,0.6-2.3,1.5v-0.3c0.7-2.5,2.6-4.2,5-4.2C96.4,74.3,97.9,76.2,97.9,78.5z"/>
			<path class="st2" d="M100.5,76.3c-0.4-0.8-0.9-1.4-2.1-1.4v-0.2h10.9V75c-1.4,0-1.9,0.9-1.2,2.3l5.1,10.6l-3.3,6.3h-0.2
				L100.5,76.3z M98.8,100.4c0-1.7,1.3-3.1,3.4-3.6c-0.1,0.3-0.2,0.7-0.2,1c0,1.5,0.8,2.6,2.3,2.6c1.4,0,2.4-1.4,3.9-3.9h0.3
				c-2.1,4-3.6,7.4-6.3,7.4C100,103.8,98.8,102.3,98.8,100.4z M114.7,84c0.7-1.2,1.1-2.9,1.1-5c0-2.1-1.2-4.1-4-4.1v-0.2h9.7V75
				c-1.3,0-1.8,0.5-2.5,1.8l-4,7.6L114.7,84z"/>
			<path class="st2" d="M136.7,91.1v0.2c-1.2,1.8-3.7,3.1-6.6,3.1c-3.5,0-6-1.6-6-5.5V76.3h-2l0.4-0.6h1.6v-4.2
				c2.4,0,4.7-0.7,6.4-2.2v6.4h5.2l-0.4,0.6h-4.8v12.8c0,1.9,0.7,4,2.6,4C134.1,93.1,135.4,92.4,136.7,91.1z"/>
			<path class="st2" d="M146.7,91.9c0,1,0.6,2,2.9,2v0.2h-12.2v-0.2c2.3,0,2.9-1,2.9-2V69.4c0-1.4-0.7-2.1-2.9-2.1v-0.2
				c3.6,0,6.5-0.4,9.3-1.5V91.9z M160.2,79.8v12.1c0,1,0.6,2,2.9,2v0.2H151v-0.2c2.3,0,2.9-1,2.9-2V79.8c0-2.2-1.1-3.3-3.1-3.3
				c-1.1,0-2,0.3-2.9,1.2v-0.2c1-1.6,3.6-3.1,6.4-3.1C157.8,74.3,160.2,76,160.2,79.8z"/>
			<path class="st2" d="M164.6,75.8c3.6,0,6.5-0.4,9.3-1.5v17.6c0,1,0.6,2,2.9,2v0.2h-12.2v-0.2c2.3,0,2.9-1,2.9-2V78.1
				c0-1.4-0.7-2.1-2.9-2.1V75.8z M166.6,68.5c0-2,1.6-3.4,4-3.4c2.3,0,4,1.4,4,3.4c0,2.1-1.6,3.4-4,3.4
				C168.2,71.9,166.6,70.6,166.6,68.5z"/>
			<path class="st2" d="M178.4,93.9c2.3,0,2.9-1,2.9-2V78.1c0-1.4-0.7-2.1-2.9-2.1v-0.2c3.6,0,6.5-0.4,9.3-1.5v17.6c0,1,0.6,2,2.9,2
				v0.2h-12.2V93.9z M192.1,93.9c2.3,0,2.9-1,2.9-2V79.8c0-2.2-1.1-3.3-3.1-3.3c-1.1,0-2,0.3-2.9,1.2v-0.2c1-1.6,3.6-3.1,6.4-3.1
				c3.5,0,6,1.6,6,5.5v12.1c0,1,0.6,2,2.9,2v0.2h-12.2V93.9z"/>
			<path class="st2" d="M206.5,81.4c0-5,4.7-6.9,8.7-7v0.2c-1.7,0.2-2.4,2.2-2.4,6.7c0,4.7,0.8,6.6,2.4,6.7v0.2
				C211.3,88.2,206.5,86.4,206.5,81.4z M216.8,103.6c3.9-0.5,5.1-2.6,5.1-4c0-5.4-15.1-0.6-15.1-7.5c0-1.6,0.8-2.8,2.6-4l0.1,0.2
				c-0.2,0.2-0.3,0.5-0.3,0.7c0,4.3,17.7-0.7,17.7,7.8c0,4-3.4,6.6-10,7V103.6z M206.8,100.3c0-2.3,2.8-3,5.9-3
				c-0.7,0.3-1.7,1.4-1.7,2.8c0,1.8,2,3.1,4.2,3.5v0.2C211.1,103.7,206.8,102.9,206.8,100.3z M216.8,88c1.9-0.2,2.7-2.1,2.7-6.7
				c0-4.5-0.8-6.5-2.7-6.7v-0.2c4.1,0.1,8.9,2,8.9,7c0,5-4.8,6.9-8.9,6.9V88z M218.9,73.6c0.7-2,2.4-4.7,5.1-4.7
				c2.1,0,3.3,1.1,3.3,2.9c0,1.9-1.7,3-3.1,3c0-1.6-0.9-2.6-2.1-2.6c-1.2,0-2.4,0.7-3,1.4L218.9,73.6z"/>
		</g>
		<g class="st1">
			<path class="st2" d="M28.2,129.9v0.2c-1.2,1.8-3.7,3.1-6.6,3.1c-3.5,0-6-1.6-6-5.5v-12.7h-2l0.4-0.6h1.6v-4.2
				c2.4,0,4.7-0.7,6.4-2.2v6.4h5.2l-0.4,0.6H22v12.8c0,1.9,0.7,4,2.6,4C25.6,131.9,26.9,131.2,28.2,129.9z"/>
			<path class="st2" d="M38.2,130.7c0,1,0.6,2,2.9,2v0.2H28.9v-0.2c2.3,0,2.9-1,2.9-2v-22.5c0-1.4-0.7-2.1-2.9-2.1v-0.2
				c3.6,0,6.5-0.4,9.3-1.5V130.7z M51.8,118.6v12.1c0,1,0.6,2,2.9,2v0.2H42.5v-0.2c2.3,0,2.9-1,2.9-2v-12.1c0-2.2-1.1-3.3-3.1-3.3
				c-1.1,0-2,0.3-2.9,1.2v-0.2c1-1.6,3.6-3.1,6.4-3.1C49.3,113.1,51.8,114.7,51.8,118.6z"/>
			<path class="st2" d="M56.4,128.3c0-3.4,3.1-5.3,7.4-5.3H68v0.2h-1.2c-2.8,0-4.1,1.8-4.1,4.2c0,2.1,0.6,3.8,2.4,3.8
				c1.1,0,2-0.6,2.8-1.4v0.2c-1.3,1.5-3.3,3.1-6.2,3.1C58.6,133.3,56.3,131.4,56.4,128.3z M57.9,117.3c0-2,1.8-4,7.1-4.2v0.2
				c-1.5,0.2-2.5,1.5-2.5,2.8c0,1.4,1,2.2,2.5,2.4c-0.6,1.1-2.2,1.9-3.7,1.9C59.2,120.4,57.9,119,57.9,117.3z M69.2,128.9V117
				c0-1.9-0.7-3.4-2.6-3.7v-0.2c6.4,0.2,9,2.7,9,7.8v9.4c0,1.1,0.4,1.6,1.1,1.6c0.6,0,1.2-0.6,1.9-1.7h0.2c-0.6,2.1-2.7,3.1-5,3.1
				C70.6,133.3,69.2,132.2,69.2,128.9z"/>
			<path class="st2" d="M79.9,132.6c2.3,0,2.9-1,2.9-2v-13.8c0-1.4-0.7-2.1-2.9-2.1v-0.2c3.6,0,6.5-0.4,9.3-1.5v17.6
				c0,1,0.6,2,2.9,2v0.2H79.9V132.6z M93.6,132.6c2.3,0,2.9-1,2.9-2v-12.1c0-2.2-1.1-3.3-3.1-3.3c-1.1,0-2,0.3-2.9,1.2v-0.2
				c1-1.6,3.6-3.1,6.4-3.1c3.5,0,6,1.6,6,5.5v12.1c0,1,0.6,2,2.9,2v0.2H93.6V132.6z"/>
			<path class="st2" d="M117.3,128.3c0-3.4,3.1-5.3,7.4-5.3h4.2v0.2h-1.2c-2.8,0-4.1,1.8-4.1,4.2c0,2.1,0.6,3.8,2.4,3.8
				c1.1,0,2-0.6,2.8-1.4v0.2c-1.3,1.5-3.3,3.1-6.2,3.1C119.4,133.3,117.2,131.4,117.3,128.3z M118.8,117.3c0-2,1.8-4,7.1-4.2v0.2
				c-1.5,0.2-2.5,1.5-2.5,2.8c0,1.4,1,2.2,2.5,2.4c-0.6,1.1-2.2,1.9-3.7,1.9C120.1,120.4,118.8,119,118.8,117.3z M130.1,128.9V117
				c0-1.9-0.7-3.4-2.6-3.7v-0.2c6.4,0.2,9,2.7,9,7.8v9.4c0,1.1,0.4,1.6,1.1,1.6c0.6,0,1.2-0.6,1.9-1.7h0.2c-0.6,2.1-2.7,3.1-5,3.1
				C131.5,133.3,130.1,132.2,130.1,128.9z"/>
		</g>
		<g class="st1">
			<path class="st2" d="M140.8,132.6c2.3,0,2.9-1,2.9-2v-13.8c0-1.4-0.7-2.1-2.9-2.1v-0.2c3.6,0,6.5-0.4,9.3-1.5v17.6
				c0,1,0.6,2,2.9,2v0.2h-12.2V132.6z M154.5,132.6c2.3,0,2.9-1,2.9-2v-12.1c0-2.2-1.1-3.3-3.1-3.3c-1.1,0-2,0.3-2.9,1.2v-0.2
				c1-1.6,3.6-3.1,6.4-3.1c3.5,0,6,1.6,6,5.5v12.1c0,1,0.6,2,2.9,2v0.2h-12.2V132.6z"/>
		</g>
		<g class="st1">
			<path class="st2" d="M168.1,115.1c-0.4-0.8-0.9-1.4-2.1-1.4v-0.2h10.9v0.2c-1.4,0-1.9,0.9-1.2,2.3l5.1,10.6l-3.3,6.3h-0.2
				L168.1,115.1z M166.4,139.1c0-1.7,1.3-3.1,3.4-3.6c-0.1,0.3-0.2,0.7-0.2,1c0,1.5,0.8,2.6,2.3,2.6c1.4,0,2.4-1.4,3.9-3.9h0.3
				c-2.1,4-3.6,7.4-6.3,7.4C167.7,142.6,166.4,141.1,166.4,139.1z M182.3,122.8c0.7-1.2,1.1-2.9,1.1-5c0-2.1-1.2-4.1-4-4.1v-0.2h9.7
				v0.2c-1.3,0-1.8,0.5-2.5,1.8l-4,7.6L182.3,122.8z"/>
		</g>
		<g class="st1">
			<path class="st2" d="M199,113.3c-2.3,0.3-3.1,2.2-3.1,9.8c0,7.3,0.8,9.7,3.1,9.9v0.2c-4.5,0-9.7-3.6-9.7-10.2
				c0-6.5,5.1-10,9.7-10V113.3z M210.1,123.1c0,6.5-5.2,10.2-9.6,10.2V133c2.3-0.2,3-2.7,3-9.9c0-7.6-0.8-9.5-3-9.8v-0.2
				C205,113.1,210.1,116.6,210.1,123.1z"/>
			<path class="st2" d="M212.7,132.6c2.3,0,2.9-1,2.9-2v-13.8c0-1.4-0.7-2.1-2.9-2.1v-0.2c3.6,0,6.5-0.4,9.3-1.5v17.6
				c0,1,0.6,2,2.9,2v0.2h-12.2V132.6z M226.3,132.6c2.3,0,2.9-1,2.9-2v-12.1c0-2.2-1.1-3.3-3.1-3.3c-1.1,0-2,0.3-2.9,1.2v-0.2
				c1-1.6,3.6-3.1,6.4-3.1c3.5,0,6,1.6,6,5.5v12.1c0,1,0.6,2,2.9,2v0.2h-12.2V132.6z"/>
			<path class="st2" d="M240.6,123.1c0-6.5,5-10,9.5-10v0.2c-2.3,0.3-2.9,2.2-2.9,9.6c0,5.6,2.5,8.6,5.9,8.6c2.2,0,3.8-0.6,5.7-2.1
				v0.2c-2,2.6-5.7,3.5-8.2,3.5C245.6,133.3,240.6,129.6,240.6,123.1z M249.3,121.5c3.4,0,4.8-1.1,4.8-4.3c0-1.9-0.8-3.6-2.5-3.8
				v-0.2c5.1,0,7.6,3.6,7.6,6.6c0,0.6-0.1,1.4-0.2,2h-9.7V121.5z"/>
		</g>
		<g class="st1">
			<path class="st2" d="M13.9,161.9c0-6.5,5-10,9.5-10v0.2c-2.3,0.3-2.9,2.2-2.9,9.6c0,5.6,2.5,8.6,5.9,8.6c2.2,0,3.8-0.6,5.7-2.1
				v0.2c-2,2.6-5.7,3.5-8.2,3.5C18.9,172,13.9,168.4,13.9,161.9z M22.6,160.2c3.4,0,4.8-1.1,4.8-4.3c0-1.9-0.8-3.6-2.5-3.8v-0.2
				c5.1,0,7.6,3.6,7.6,6.6c0,0.6-0.1,1.4-0.2,2h-9.7V160.2z"/>
			<path class="st2" d="M34.8,144.7c3.6,0,6.5-0.4,9.3-1.5v26.3c0,1,0.6,2,2.9,2v0.2H34.8v-0.2c2.3,0,2.9-1,2.9-2V147
				c0-1.4-0.7-2.1-2.9-2.1V144.7z"/>
			<path class="st2" d="M56,167c-1.3,0-2.2,0.8-2.2,1.9c0,1.1,0.8,2.6,3.4,2.8v0.2c-5.2-0.2-8-1.6-8-3.8c0-1.8,1.5-2.9,3.3-2.9
				C54.2,165.3,55.5,166.1,56,167z M57.3,152.1c-1.4,0.3-2.8,1-2.8,2.6c0.1,4.5,12.7,5.2,12.7,11.4c0,3.8-3.2,5.7-8.2,5.9v-0.2
				c1.6-0.3,3.4-0.9,3.4-2.9c0-4-12.7-5.5-12.7-11.4c0-3.4,3.2-5.5,7.6-5.7V152.1z M66.5,155.9c0,1.2-0.9,2.4-2.9,2.4
				c-1.6,0-2.8-0.7-3.3-1.9c1.2-0.1,1.8-0.9,1.7-1.8c0-1.2-1.5-2.3-3-2.5v-0.2C63.4,152.1,66.5,153.7,66.5,155.9z"/>
			<path class="st2" d="M70.5,161.9c0-6.5,5-10,9.5-10v0.2c-2.3,0.3-2.9,2.2-2.9,9.6c0,5.6,2.5,8.6,5.9,8.6c2.2,0,3.8-0.6,5.7-2.1
				v0.2c-2,2.6-5.7,3.5-8.2,3.5C75.5,172,70.5,168.4,70.5,161.9z M79.2,160.2c3.4,0,4.8-1.1,4.8-4.3c0-1.9-0.8-3.6-2.5-3.8v-0.2
				c5.1,0,7.6,3.6,7.6,6.6c0,0.6-0.1,1.4-0.2,2h-9.7V160.2z"/>
		</g>
	</g>
</g>
</svg>
