<svg id="Layer_1" data-name="Layer 1" xmlns="http://www.w3.org/2000/svg" viewBox="0 0 320 480"><defs><style>.cls-1{fill:#fff;}.cls-2{fill:none;}</style></defs><title>Artboard 1 copy</title><path class="cls-1" d="M53,36.91,45.09,55.35H44.6l-10-21.8c-.57-1.19-1.93-1.79-3.72-1.79v-.21h9.42l7.28,15.82L53,36.21ZM38.58,55.14v.21H30.87v-.21c2.32,0,3.4-1.47,3.44-2.94l.28-15.12.28.63.28,14.49C35.18,53.71,36.27,55.14,38.58,55.14ZM60.31,33.55V53.36c0,.94.53,1.78,2.63,1.78v.21H51.74v-.21c2.1,0,2.62-.84,2.62-1.78V31.55h8.58v.21C60.84,31.76,60.31,32.6,60.31,33.55Z"/><path class="cls-1" d="M74,37.71c-2.07.25-2.77,2-2.77,8.82,0,6.58.7,8.75,2.77,9v.21a8.92,8.92,0,0,1-8.72-9.17,8.78,8.78,0,0,1,8.72-9Zm10.08,8.82A8.92,8.92,0,0,1,75.4,55.7v-.21c2.06-.21,2.73-2.41,2.73-9,0-6.86-.7-8.61-2.73-8.82V37.5A8.72,8.72,0,0,1,84.08,46.53Z"/><path class="cls-1" d="M94.78,53.36c0,.87.53,1.78,2.63,1.78v.21h-11v-.21c2.1,0,2.63-.91,2.63-1.78V40.93c0-1.26-.6-1.85-2.59-1.85v-.21a21.3,21.3,0,0,0,8.36-1.37Zm9.46-12.08a3.75,3.75,0,0,1-3.61,4,2.37,2.37,0,0,1-2-.77A2.56,2.56,0,0,0,100,42.12a1.86,1.86,0,0,0-2-1.89,2.42,2.42,0,0,0-2.1,1.33v-.28a4.85,4.85,0,0,1,4.55-3.78A3.55,3.55,0,0,1,104.24,41.28Z"/><path class="cls-1" d="M106.12,46.53a8.67,8.67,0,0,1,8.58-9v.21c-2.06.25-2.63,2-2.63,8.68,0,5,2.24,7.81,5.36,7.81a7.58,7.58,0,0,0,5.11-1.86v.21c-1.82,2.31-5.14,3.15-7.42,3.15A8.87,8.87,0,0,1,106.12,46.53ZM114,45.06c3.08,0,4.38-1,4.38-3.92,0-1.68-.7-3.22-2.28-3.43V37.5c4.62,0,6.86,3.29,6.86,6a10.8,10.8,0,0,1-.17,1.82H114Z"/><path class="cls-1" d="M31.47,85.53a8.67,8.67,0,0,1,8.58-9v.21c-2.07.25-2.63,2-2.63,8.68,0,5,2.24,7.81,5.36,7.81a7.62,7.62,0,0,0,5.11-1.86v.21c-1.82,2.31-5.15,3.15-7.42,3.15A8.87,8.87,0,0,1,31.47,85.53Zm7.88-1.47c3.08,0,4.37-1,4.37-3.92,0-1.68-.7-3.22-2.27-3.43V76.5c4.62,0,6.86,3.29,6.86,6a9.85,9.85,0,0,1-.18,1.82H39.35Z"/><path class="cls-1" d="M51.17,78.29a1.89,1.89,0,0,0-1.92-1.23v-.21h9.8v.21c-1.22,0-1.71.84-1.12,2.07l4.59,9.55-3,5.67H59.3Zm12.82,7a9.64,9.64,0,0,0,1-4.51,3.39,3.39,0,0,0-3.57-3.68v-.21h8.71v.21c-1.15,0-1.61.46-2.27,1.65L64.2,85.57Z"/><path class="cls-1" d="M70.39,85.53a8.67,8.67,0,0,1,8.58-9v.21c-2.07.25-2.63,2-2.63,8.68,0,5,2.24,7.81,5.36,7.81a7.62,7.62,0,0,0,5.11-1.86v.21C85,93.86,81.66,94.7,79.39,94.7A8.87,8.87,0,0,1,70.39,85.53Zm7.88-1.47c3.08,0,4.37-1,4.37-3.92,0-1.68-.7-3.22-2.27-3.43V76.5c4.62,0,6.86,3.29,6.86,6a9.85,9.85,0,0,1-.18,1.82H78.27Z"/><path class="cls-1" d="M97.86,92.36c0,.87.53,1.78,2.63,1.78v.21h-11v-.21c2.1,0,2.63-.91,2.63-1.78V79.93c0-1.26-.6-1.85-2.59-1.85v-.21a21.3,21.3,0,0,0,8.36-1.37Zm9.46-12.08a3.75,3.75,0,0,1-3.61,4,2.37,2.37,0,0,1-2-.77,2.56,2.56,0,0,0,1.36-2.38,1.86,1.86,0,0,0-2-1.89A2.42,2.42,0,0,0,99,80.56v-.28a4.85,4.85,0,0,1,4.55-3.78A3.55,3.55,0,0,1,107.32,80.28Z"/><path class="cls-1" d="M109.69,78.29a1.89,1.89,0,0,0-1.92-1.23v-.21h9.8v.21c-1.22,0-1.71.84-1.12,2.07L121,88.68l-3,5.67h-.21ZM108.15,100c0-1.51,1.19-2.77,3.08-3.29a2.77,2.77,0,0,0-.14.87,2.06,2.06,0,0,0,2.07,2.35c1.22,0,2.2-1.3,3.53-3.54h.25c-1.92,3.61-3.25,6.72-5.71,6.72A2.91,2.91,0,0,1,108.15,100Zm14.36-14.74a9.64,9.64,0,0,0,1-4.51,3.39,3.39,0,0,0-3.57-3.68v-.21h8.71v.21c-1.15,0-1.61.46-2.27,1.65l-3.64,6.86Z"/><path class="cls-1" d="M142.35,91.66v.21a7.32,7.32,0,0,1-6,2.83c-3.15,0-5.39-1.43-5.39-4.93V78.29h-1.82l.39-.53H131V74a8.84,8.84,0,0,0,5.75-2v5.74h4.72l-.38.53h-4.34V89.87c0,1.75.66,3.57,2.3,3.57A5.15,5.15,0,0,0,142.35,91.66Z"/><path class="cls-1" d="M151.38,92.36c0,.87.52,1.78,2.62,1.78v.21H143v-.21c2.1,0,2.62-.91,2.62-1.78V72.06c0-1.26-.59-1.86-2.59-1.86V70a21.54,21.54,0,0,0,8.37-1.36Zm12.25-10.92V92.36c0,.87.53,1.78,2.63,1.78v.21h-11v-.21c2.06,0,2.59-.91,2.59-1.78V81.44c0-2-1-3-2.77-3a3.74,3.74,0,0,0-2.66,1.09v-.21a7.14,7.14,0,0,1,5.81-2.84C161.39,76.5,163.63,78,163.63,81.44Z"/><path class="cls-1" d="M167.58,77.83A21.54,21.54,0,0,0,176,76.47V92.36c0,.87.52,1.78,2.62,1.78v.21h-11v-.21c2.1,0,2.62-.91,2.62-1.78V79.9c0-1.26-.59-1.86-2.59-1.86Zm1.79-6.58c0-1.82,1.47-3,3.57-3s3.57,1.22,3.57,3-1.47,3.08-3.57,3.08S169.37,73.11,169.37,71.25Z"/><path class="cls-1" d="M180,94.14c2.1,0,2.63-.91,2.63-1.78V79.93c0-1.26-.6-1.85-2.59-1.85v-.21a21.3,21.3,0,0,0,8.36-1.37V92.36c0,.87.53,1.78,2.63,1.78v.21H180Zm12.32,0c2.07,0,2.59-.91,2.59-1.78V81.44c0-2-1-3-2.76-3a3.74,3.74,0,0,0-2.66,1.09v-.21a7.14,7.14,0,0,1,5.81-2.84c3.15,0,5.39,1.47,5.39,4.94V92.36c0,.87.53,1.78,2.63,1.78v.21h-11Z"/><path class="cls-1" d="M205.42,82.84c0-4.55,4.27-6.27,7.84-6.34v.21c-1.51.14-2.21,2-2.21,6,0,4.24.7,6,2.21,6.09V89C209.72,89,205.42,87.35,205.42,82.84Zm9.31,20.06c3.5-.42,4.62-2.32,4.62-3.58,0-4.86-13.65-.52-13.65-6.79,0-1.43.73-2.55,2.34-3.57l.11.18a.81.81,0,0,0-.32.66c0,3.92,16-.63,16,7,0,3.61-3.11,6-9.06,6.3Zm-9-3c0-2.06,2.55-2.69,5.32-2.69a2.94,2.94,0,0,0-1.51,2.48c0,1.61,1.82,2.84,3.82,3.16v.2C209.58,103,205.7,102.27,205.7,100Zm9-11.13c1.71-.14,2.41-1.85,2.41-6.09,0-4.06-.73-5.88-2.41-6V76.5c3.71.07,8,1.79,8,6.34s-4.3,6.19-8,6.19Zm1.89-12.95c.59-1.78,2.2-4.2,4.62-4.2,1.85,0,3,1,3,2.66a2.79,2.79,0,0,1-2.83,2.73c0-1.47-.77-2.34-1.89-2.34a3.8,3.8,0,0,0-2.7,1.26Z"/><path class="cls-1" d="M44.42,130.66v.21a7.32,7.32,0,0,1-6,2.83c-3.15,0-5.39-1.43-5.39-4.93V117.29H31.23l.38-.53h1.44V113a8.84,8.84,0,0,0,5.74-2v5.74h4.72l-.38.53H38.79v11.58c0,1.75.66,3.57,2.31,3.57A5.15,5.15,0,0,0,44.42,130.66Z"/><path class="cls-1" d="M53.45,131.36c0,.87.53,1.78,2.63,1.78v.21h-11v-.21c2.1,0,2.62-.91,2.62-1.78v-20.3c0-1.26-.59-1.86-2.59-1.86V109a21.51,21.51,0,0,0,8.37-1.36ZM65.7,120.44v10.92c0,.87.53,1.78,2.63,1.78v.21h-11v-.21c2.06,0,2.59-.91,2.59-1.78V120.44c0-2-1-3-2.77-3a3.74,3.74,0,0,0-2.66,1.09v-.21a7.16,7.16,0,0,1,5.81-2.84C63.46,115.5,65.7,117,65.7,120.44Z"/><path class="cls-1" d="M69.86,129.22c0-3,2.8-4.76,6.72-4.76h3.78v.21h-1c-2.52,0-3.7,1.65-3.7,3.82,0,1.92.55,3.39,2.2,3.39a3.8,3.8,0,0,0,2.55-1.22v.21a7.41,7.41,0,0,1-5.56,2.83C71.82,133.7,69.83,132,69.86,129.22Zm1.4-9.9c0-1.79,1.61-3.61,6.38-3.82v.21a2.55,2.55,0,0,0-2.24,2.56c0,1.26.87,2,2.27,2.13a3.93,3.93,0,0,1-3.36,1.68A2.8,2.8,0,0,1,71.26,119.32Zm10.16,10.43V119c0-1.72-.67-3.08-2.39-3.33v-.21c5.82.21,8.13,2.42,8.13,7V131c0,1,.35,1.43,1,1.43s1.12-.52,1.68-1.57H90c-.56,1.92-2.45,2.83-4.55,2.83C82.68,133.7,81.42,132.72,81.42,129.75Z"/><path class="cls-1" d="M91.11,133.14c2.1,0,2.62-.91,2.62-1.78V118.93c0-1.26-.59-1.85-2.59-1.85v-.21a21.36,21.36,0,0,0,8.37-1.37v15.86c0,.87.52,1.78,2.63,1.78v.21h-11Zm12.32,0c2.07,0,2.59-.91,2.59-1.78V120.44c0-2-1-3-2.76-3a3.72,3.72,0,0,0-2.66,1.09v-.21a7.13,7.13,0,0,1,5.81-2.84c3.15,0,5.39,1.47,5.39,4.94v10.92c0,.87.52,1.78,2.62,1.78v.21h-11Z"/><path class="cls-1" d="M124.85,129.22c0-3,2.8-4.76,6.72-4.76h3.78v.21h-1c-2.52,0-3.71,1.65-3.71,3.82,0,1.92.56,3.39,2.2,3.39a3.84,3.84,0,0,0,2.56-1.22v.21a7.45,7.45,0,0,1-5.57,2.83C126.81,133.7,124.81,132,124.85,129.22Zm1.4-9.9c0-1.79,1.61-3.61,6.37-3.82v.21a2.56,2.56,0,0,0-2.24,2.56c0,1.26.87,2,2.27,2.13a3.93,3.93,0,0,1-3.36,1.68A2.8,2.8,0,0,1,126.25,119.32Zm10.15,10.43V119c0-1.72-.67-3.08-2.38-3.33v-.21c5.81.21,8.12,2.42,8.12,7V131c0,1,.35,1.43,1,1.43s1.12-.52,1.68-1.57H145c-.56,1.92-2.45,2.83-4.55,2.83C137.66,133.7,136.4,132.72,136.4,129.75Z"/><path class="cls-1" d="M146.09,133.14c2.1,0,2.63-.91,2.63-1.78V118.93c0-1.26-.6-1.85-2.59-1.85v-.21a21.3,21.3,0,0,0,8.36-1.37v15.86c0,.87.53,1.78,2.63,1.78v.21h-11Zm12.32,0c2.07,0,2.59-.91,2.59-1.78V120.44c0-2-1-3-2.76-3a3.74,3.74,0,0,0-2.66,1.09v-.21a7.14,7.14,0,0,1,5.81-2.84c3.15,0,5.39,1.47,5.39,4.94v10.92c0,.87.53,1.78,2.63,1.78v.21h-11Z"/><path class="cls-1" d="M170.77,117.29a1.89,1.89,0,0,0-1.93-1.23v-.21h9.8v.21c-1.22,0-1.71.84-1.12,2.07l4.59,9.55-3,5.67h-.21ZM169.23,139c0-1.51,1.19-2.77,3.08-3.29a2.51,2.51,0,0,0-.14.87,2,2,0,0,0,2.06,2.35c1.23,0,2.21-1.3,3.54-3.54H178c-1.92,3.61-3.25,6.72-5.7,6.72A2.91,2.91,0,0,1,169.23,139Zm14.35-14.74a9.51,9.51,0,0,0,1-4.51,3.38,3.38,0,0,0-3.57-3.68v-.21h8.72v.21c-1.16,0-1.61.46-2.28,1.65l-3.64,6.86Z"/><path class="cls-1" d="M198.59,115.71c-2.06.25-2.76,2-2.76,8.82,0,6.58.7,8.75,2.76,9v.21a8.92,8.92,0,0,1-8.71-9.17,8.77,8.77,0,0,1,8.71-9Zm10.09,8.82A8.92,8.92,0,0,1,200,133.7v-.21c2.07-.21,2.73-2.41,2.73-9,0-6.86-.7-8.61-2.73-8.82v-.21A8.73,8.73,0,0,1,208.68,124.53Z"/><path class="cls-1" d="M211,133.14c2.1,0,2.63-.91,2.63-1.78V118.93c0-1.26-.6-1.85-2.59-1.85v-.21a21.3,21.3,0,0,0,8.36-1.37v15.86c0,.87.53,1.78,2.63,1.78v.21H211Zm12.32,0c2.07,0,2.59-.91,2.59-1.78V120.44c0-2-1-3-2.76-3a3.74,3.74,0,0,0-2.66,1.09v-.21a7.14,7.14,0,0,1,5.81-2.84c3.15,0,5.39,1.47,5.39,4.94v10.92c0,.87.52,1.78,2.63,1.78v.21h-11Z"/><path class="cls-1" d="M236.18,124.53a8.67,8.67,0,0,1,8.58-9v.21c-2.07.25-2.63,2-2.63,8.68,0,5,2.24,7.81,5.36,7.81a7.62,7.62,0,0,0,5.11-1.86v.21c-1.82,2.31-5.15,3.15-7.42,3.15A8.87,8.87,0,0,1,236.18,124.53Zm7.88-1.47c3.08,0,4.37-1,4.37-3.92,0-1.68-.7-3.22-2.27-3.43v-.21c4.62,0,6.86,3.29,6.86,6a9.85,9.85,0,0,1-.18,1.82h-8.78Z"/><path class="cls-1" d="M31.47,163.53a8.67,8.67,0,0,1,8.58-9v.21c-2.07.25-2.63,2-2.63,8.68,0,5,2.24,7.81,5.36,7.81a7.62,7.62,0,0,0,5.11-1.86v.21c-1.82,2.31-5.15,3.15-7.42,3.15A8.87,8.87,0,0,1,31.47,163.53Zm7.88-1.47c3.08,0,4.37-1,4.37-3.92,0-1.68-.7-3.22-2.27-3.43v-.21c4.62,0,6.86,3.29,6.86,5.95a9.85,9.85,0,0,1-.18,1.82H39.35Z"/><path class="cls-1" d="M50.37,148a21.49,21.49,0,0,0,8.36-1.36v23.73c0,.87.53,1.78,2.63,1.78v.21h-11v-.21c2.11,0,2.63-.91,2.63-1.78v-20.3c0-1.26-.6-1.86-2.59-1.86Z"/><path class="cls-1" d="M69.55,168.19a1.79,1.79,0,0,0-2,1.75c0,1,.7,2.31,3.12,2.55v.21c-4.66-.17-7.22-1.43-7.22-3.46a2.73,2.73,0,0,1,3-2.59A3.56,3.56,0,0,1,69.55,168.19Zm1.16-13.48c-1.3.25-2.56.91-2.52,2.35.1,4.06,11.44,4.72,11.44,10.29,0,3.39-2.87,5.18-7.38,5.35v-.21c1.47-.24,3.11-.77,3.11-2.59,0-3.64-11.48-5-11.48-10.29,0-3.08,2.9-4.93,6.83-5.11Zm8.26,3.4a2.29,2.29,0,0,1-2.59,2.17,3,3,0,0,1-3-1.68A1.57,1.57,0,0,0,75,157c0-1-1.33-2.06-2.73-2.24v-.21C76.2,154.71,79,156.15,79,158.11Z"/><path class="cls-1" d="M82.57,163.53a8.67,8.67,0,0,1,8.58-9v.21c-2.07.25-2.63,2-2.63,8.68,0,5,2.24,7.81,5.36,7.81A7.62,7.62,0,0,0,99,169.34v.21c-1.82,2.31-5.15,3.15-7.43,3.15A8.87,8.87,0,0,1,82.57,163.53Zm7.87-1.47c3.08,0,4.38-1,4.38-3.92,0-1.68-.7-3.22-2.27-3.43v-.21c4.62,0,6.86,3.29,6.86,5.95a9.85,9.85,0,0,1-.18,1.82H90.44Z"/><rect class="cls-2" width="320" height="480"/></svg>