<svg id="Layer_1" data-name="Layer 1" xmlns="http://www.w3.org/2000/svg" viewBox="0 0 300 150"><defs><style>.cls-1{fill:#fff;}.cls-2{fill:none;}</style></defs><title>Artboard 9</title><path class="cls-1" d="M17.42,88.35v.15a9.48,9.48,0,0,1-4.85-1.22l-.82,1.22h-.2V82.4h.2A8.36,8.36,0,0,0,17.42,88.35Zm7.35-5c0,3.22-2.4,5-6.27,5.12v-.15c1.37-.25,2.72-1,2.72-2.55,0-4.37-9.55-4.77-9.55-9.85,0-3,2.43-4.72,5.75-5v.15a2.37,2.37,0,0,0-2.2,2.3C15.22,77.83,24.77,78.3,24.77,83.38ZM18.5,71.15V71A8.08,8.08,0,0,1,23,72.33L23.9,71h.2v5.58h-.2A8,8,0,0,0,18.5,71.15Z"/><path class="cls-1" d="M36.17,86.33v.15a5.25,5.25,0,0,1-4.27,2c-2.25,0-3.85-1-3.85-3.52v-8.2h-1.3L27,76.4h1V73.7a6.31,6.31,0,0,0,4.1-1.4v4.1h3.37l-.27.38h-3.1v8.27c0,1.25.47,2.55,1.65,2.55A3.68,3.68,0,0,0,36.17,86.33Z"/><path class="cls-1" d="M37,85.3c0-2.17,2-3.4,4.8-3.4h2.7v.15h-.75a2.48,2.48,0,0,0-2.65,2.73c0,1.37.4,2.42,1.58,2.42a2.72,2.72,0,0,0,1.82-.87v.15a5.34,5.34,0,0,1-4,2C38.37,88.5,37,87.3,37,85.3Zm1-7.07c0-1.28,1.15-2.58,4.55-2.73v.15a1.83,1.83,0,0,0-1.6,1.83c0,.9.63,1.45,1.63,1.52a2.82,2.82,0,0,1-2.4,1.2A2,2,0,0,1,38,78.23Zm7.25,7.45V78c0-1.23-.47-2.2-1.7-2.38V75.5c4.15.15,5.8,1.73,5.8,5v6.08c0,.72.25,1,.7,1s.8-.37,1.2-1.12h.15a3.12,3.12,0,0,1-3.25,2C46.12,88.5,45.22,87.8,45.22,85.68Z"/><path class="cls-1" d="M58.15,86.83c0,.62.37,1.27,1.87,1.27v.15H52.15V88.1c1.5,0,1.87-.65,1.87-1.27V78c0-.9-.42-1.32-1.85-1.32v-.15a15.23,15.23,0,0,0,6-1ZM64.9,78.2a2.68,2.68,0,0,1-2.58,2.85,1.69,1.69,0,0,1-1.42-.55,1.83,1.83,0,0,0,1-1.7,1.33,1.33,0,0,0-1.4-1.35,1.73,1.73,0,0,0-1.5,1v-.2a3.46,3.46,0,0,1,3.25-2.7A2.54,2.54,0,0,1,64.9,78.2Z"/><path class="cls-1" d="M11.07,115.25v-.15c1.5,0,1.88-.57,1.88-1.27V99.7c0-.7-.38-1.3-1.88-1.3v-.15H17.2v17Zm14-17v4.63h-.2c-1.08-3.15-2.6-4.23-6.4-4.48v-.15Zm-6.6,8.28v-.15l1.37-.13a3.82,3.82,0,0,0,3.3-2.15h.2v4.65h-.2a3.8,3.8,0,0,0-3.3-2.1Zm0,8.57c3.8-.25,5.57-1.32,6.92-4.47h.2v4.62H18.45Z"/><path class="cls-1" d="M27.42,115.1c1.5,0,1.88-.65,1.88-1.27V105c0-.9-.43-1.32-1.85-1.32v-.15a15.18,15.18,0,0,0,6-1v11.33c0,.62.38,1.27,1.88,1.27v.15H27.42Zm8.8,0c1.48,0,1.85-.65,1.85-1.27V106c0-1.4-.72-2.13-2-2.13a2.67,2.67,0,0,0-1.9.78v-.15a5.1,5.1,0,0,1,4.15-2c2.25,0,3.85,1,3.85,3.53v7.8c0,.62.37,1.27,1.87,1.27v.15H36.22Z"/><path class="cls-1" d="M54.67,113.33v.15a5.25,5.25,0,0,1-4.27,2c-2.25,0-3.85-1-3.85-3.52v-8.2h-1.3l.27-.38h1v-2.7a6.31,6.31,0,0,0,4.1-1.4v4.1H54l-.27.38h-3.1v8.27c0,1.25.47,2.55,1.65,2.55A3.68,3.68,0,0,0,54.67,113.33Z"/><path class="cls-1" d="M61.12,113.83c0,.62.38,1.27,1.88,1.27v.15H55.12v-.15c1.5,0,1.88-.65,1.88-1.27V99.33c0-.9-.43-1.33-1.85-1.33v-.15a15.37,15.37,0,0,0,6-1Zm8.75-7.8v7.8c0,.62.38,1.27,1.87,1.27v.15H63.9v-.15c1.47,0,1.85-.65,1.85-1.27V106a1.86,1.86,0,0,0-2-2.13,2.67,2.67,0,0,0-1.9.78v-.15a5.12,5.12,0,0,1,4.15-2C68.27,102.5,69.87,103.55,69.87,106Z"/><path class="cls-1" d="M78.37,112c0,1.39.48,2.12,1.73,2.12a2.21,2.21,0,0,0,1.72-.77v.15a4.16,4.16,0,0,1-3.87,2c-2.25,0-3.7-1-3.7-3.52v-7c0-.9-.43-1.32-1.85-1.32v-.15a15.18,15.18,0,0,0,6-1Zm8.33,1.6c0,.72.22,1,.67,1s.8-.37,1.2-1.12h.15c-.4,1.37-1.75,2-3.4,2s-2.75-1-2.75-2.45V105c0-.9-.42-1.32-1.77-1.32v-.15a16.15,16.15,0,0,0,5.9-1Z"/><path class="cls-1" d="M94.52,112.28a1.28,1.28,0,0,0-1.4,1.25c0,.72.5,1.64,2.23,1.82v.15c-3.33-.13-5.15-1-5.15-2.47a2,2,0,0,1,2.12-1.85A2.53,2.53,0,0,1,94.52,112.28Zm.83-9.63c-.93.18-1.83.65-1.8,1.68.07,2.9,8.17,3.37,8.17,7.35,0,2.42-2,3.69-5.27,3.82v-.15c1-.18,2.22-.55,2.22-1.85,0-2.6-8.2-3.55-8.2-7.35,0-2.2,2.08-3.52,4.88-3.65Zm5.9,2.43a1.64,1.64,0,0,1-1.85,1.55,2.16,2.16,0,0,1-2.13-1.2,1.12,1.12,0,0,0,1.13-1.18c0-.75-1-1.47-2-1.6v-.15C99.27,102.65,101.25,103.68,101.25,105.08Z"/><path class="cls-1" d="M103.42,103.45a15.42,15.42,0,0,0,6-1v11.35c0,.62.37,1.27,1.87,1.27v.15H103.4v-.15c1.5,0,1.87-.65,1.87-1.27v-8.9c0-.9-.42-1.33-1.85-1.33Zm1.28-4.7a2.58,2.58,0,1,1,2.55,2.2A2.27,2.27,0,0,1,104.7,98.75Z"/><path class="cls-1" d="M112.52,112.3c0-2.17,2-3.4,4.8-3.4H120v.15h-.75a2.48,2.48,0,0,0-2.65,2.73c0,1.37.4,2.42,1.58,2.42a2.72,2.72,0,0,0,1.82-.87v.15a5.34,5.34,0,0,1-4,2C113.92,115.5,112.5,114.3,112.52,112.3Zm1-7.07c0-1.28,1.15-2.58,4.55-2.73v.15a1.83,1.83,0,0,0-1.6,1.83c0,.9.63,1.45,1.63,1.52a2.82,2.82,0,0,1-2.4,1.2A2,2,0,0,1,113.52,105.23Zm7.25,7.45V105c0-1.23-.47-2.2-1.7-2.38v-.15c4.15.15,5.8,1.73,5.8,5v6.08c0,.72.25,1,.7,1s.8-.37,1.2-1.12h.15a3.12,3.12,0,0,1-3.25,2C121.67,115.5,120.77,114.8,120.77,112.68Z"/><path class="cls-1" d="M132.5,112.28a1.27,1.27,0,0,0-1.4,1.25c0,.72.5,1.64,2.22,1.82v.15c-3.32-.13-5.15-1-5.15-2.47a2,2,0,0,1,2.13-1.85A2.54,2.54,0,0,1,132.5,112.28Zm.82-9.63c-.92.18-1.82.65-1.8,1.68.08,2.9,8.17,3.37,8.17,7.35,0,2.42-2,3.69-5.27,3.82v-.15c1.05-.18,2.23-.55,2.23-1.85,0-2.6-8.2-3.55-8.2-7.35,0-2.2,2.07-3.52,4.87-3.65Zm5.9,2.43a1.64,1.64,0,0,1-1.85,1.55,2.13,2.13,0,0,1-2.12-1.2,1.11,1.11,0,0,0,1.12-1.18c0-.75-1-1.47-2-1.6v-.15C137.25,102.65,139.22,103.68,139.22,105.08Z"/><path class="cls-1" d="M151.05,113.33v.15a5.26,5.26,0,0,1-4.28,2c-2.25,0-3.85-1-3.85-3.52v-8.2h-1.3l.28-.38h1v-2.7a6.27,6.27,0,0,0,4.1-1.4v4.1h3.38l-.28.38H147v8.27c0,1.25.48,2.55,1.65,2.55A3.72,3.72,0,0,0,151.05,113.33Z"/><path class="cls-1" d="M11.07,142.1c1.5,0,1.88-.6,1.88-1.27V126.68c0-.68-.38-1.28-1.88-1.28v-.15h8v.15c-1.5,0-1.87.6-1.87,1.28v14.15c0,.67.37,1.27,1.87,1.27v.15h-8Z"/><path class="cls-1" d="M20.75,142.1c1.5,0,1.87-.65,1.87-1.27V132c0-.9-.42-1.32-1.85-1.32v-.15a15.23,15.23,0,0,0,6-1v11.33c0,.62.37,1.27,1.87,1.27v.15H20.75Zm8.8,0c1.47,0,1.85-.65,1.85-1.27V133a1.86,1.86,0,0,0-2-2.13,2.67,2.67,0,0,0-1.9.78v-.15a5.12,5.12,0,0,1,4.15-2c2.25,0,3.85,1.05,3.85,3.53v7.8c0,.62.38,1.27,1.88,1.27v.15H29.55Z"/><path class="cls-1" d="M43.1,139.28a1.27,1.27,0,0,0-1.4,1.25c0,.72.5,1.64,2.22,1.82v.15c-3.32-.13-5.15-1-5.15-2.47a2,2,0,0,1,2.13-1.85A2.54,2.54,0,0,1,43.1,139.28Zm.82-9.63c-.92.18-1.82.65-1.8,1.68.08,2.9,8.18,3.37,8.18,7.35,0,2.42-2,3.69-5.28,3.82v-.15c1-.18,2.23-.55,2.23-1.85,0-2.6-8.2-3.55-8.2-7.35,0-2.2,2.07-3.52,4.87-3.65Zm5.9,2.43A1.64,1.64,0,0,1,48,133.63a2.13,2.13,0,0,1-2.12-1.2A1.11,1.11,0,0,0,47,131.25c0-.75-.95-1.47-1.95-1.6v-.15C47.85,129.65,49.82,130.68,49.82,132.08Z"/><path class="cls-1" d="M57.67,139c0,1.39.48,2.12,1.73,2.12a2.21,2.21,0,0,0,1.72-.77v.15a4.16,4.16,0,0,1-3.87,2c-2.25,0-3.7-1.05-3.7-3.52v-7c0-.9-.43-1.32-1.85-1.32v-.15a15.18,15.18,0,0,0,6-1Zm8.33,1.6c0,.72.22,1,.67,1s.8-.37,1.2-1.12H68c-.4,1.37-1.75,2-3.4,2s-2.75-1-2.75-2.45V132c0-.9-.42-1.32-1.77-1.32v-.15a16.15,16.15,0,0,0,5.9-1Z"/><path class="cls-1" d="M75,140.83c0,.62.38,1.27,1.88,1.27v.15H69v-.15c1.5,0,1.88-.65,1.88-1.27V132c0-.9-.43-1.32-1.85-1.32v-.15a15.18,15.18,0,0,0,6-1Zm6.75-8.63a2.67,2.67,0,0,1-2.57,2.85,1.71,1.71,0,0,1-1.43-.55,1.82,1.82,0,0,0,1-1.7,1.33,1.33,0,0,0-1.4-1.35,1.72,1.72,0,0,0-1.5,1v-.2a3.46,3.46,0,0,1,3.25-2.7A2.54,2.54,0,0,1,81.77,132.2Z"/><path class="cls-1" d="M82.85,139.3c0-2.17,2-3.4,4.8-3.4h2.7v.15H89.6A2.48,2.48,0,0,0,87,138.78c0,1.37.4,2.42,1.57,2.42a2.75,2.75,0,0,0,1.83-.87v.15a5.36,5.36,0,0,1-4,2C84.25,142.5,82.82,141.3,82.85,139.3Zm1-7.07c0-1.28,1.15-2.58,4.55-2.73v.15a1.83,1.83,0,0,0-1.6,1.83c0,.9.62,1.45,1.62,1.52a2.8,2.8,0,0,1-2.4,1.2A2,2,0,0,1,83.85,132.23Zm7.25,7.45V132c0-1.23-.48-2.2-1.7-2.38v-.15c4.15.15,5.8,1.73,5.8,5v6.08c0,.72.25,1,.7,1s.8-.37,1.2-1.12h.15a3.12,3.12,0,0,1-3.25,2C92,142.5,91.1,141.8,91.1,139.68Z"/><path class="cls-1" d="M98,142.1c1.5,0,1.88-.65,1.88-1.27V132c0-.9-.43-1.32-1.85-1.32v-.15a15.18,15.18,0,0,0,6-1v11.33c0,.62.38,1.27,1.88,1.27v.15H98Zm8.8,0c1.48,0,1.85-.65,1.85-1.27V133c0-1.4-.72-2.13-2-2.13a2.67,2.67,0,0,0-1.9.78v-.15a5.1,5.1,0,0,1,4.15-2c2.25,0,3.85,1.05,3.85,3.53v7.8c0,.62.37,1.27,1.87,1.27v.15h-7.85Z"/><path class="cls-1" d="M122.42,129.65c-1.47.18-2.12,1.43-2.12,6.2,0,3.6,1.82,5.57,4,5.57A5.43,5.43,0,0,0,128,140.1v.15a7,7,0,0,1-5.3,2.25A6.54,6.54,0,0,1,116,136a6.41,6.41,0,0,1,6.4-6.45Zm5.55,2.68a2.33,2.33,0,0,1-2.5,2.4,2.12,2.12,0,0,1-2.17-1.58,2.14,2.14,0,0,0,1.2-1.82,1.48,1.48,0,0,0-1.08-1.65v-.18C126.7,129.5,128,130.9,128,132.33Z"/><path class="cls-1" d="M129.85,136A6.19,6.19,0,0,1,136,129.5v.15c-1.47.18-1.87,1.43-1.87,6.2,0,3.6,1.6,5.57,3.82,5.57a5.39,5.39,0,0,0,3.65-1.32v.15a7,7,0,0,1-5.3,2.25A6.33,6.33,0,0,1,129.85,136Zm5.62-1c2.2,0,3.13-.7,3.13-2.8,0-1.2-.5-2.3-1.63-2.45v-.15c3.3,0,4.9,2.35,4.9,4.25a7.85,7.85,0,0,1-.12,1.3h-6.28Z"/><rect class="cls-2" width="300" height="150"/></svg>