<?xml version="1.0" encoding="utf-8"?>
<!-- Generator: Adobe Illustrator 24.0.3, SVG Export Plug-In . SVG Version: 6.00 Build 0)  -->
<svg version="1.1" id="Layer_1" xmlns="http://www.w3.org/2000/svg" xmlns:xlink="http://www.w3.org/1999/xlink" x="0px" y="0px"
	 viewBox="0 0 300 250" style="enable-background:new 0 0 300 250;" xml:space="preserve">
<style type="text/css">
	.st0{clip-path:url(#SVGID_2_);}
	.st1{enable-background:new    ;}
	.st2{fill:#FFFFFF;}
</style>
<title>Artboard 1 copy</title>
<g>
	<defs>
		<rect id="SVGID_1_" y="0" width="300" height="250"/>
	</defs>
	<clipPath id="SVGID_2_">
		<use xlink:href="#SVGID_1_"  style="overflow:visible;"/>
	</clipPath>
	<g class="st0">
		<g class="st1">
			<path class="st2" d="M24.8,54.6c1.9,0,2.4-0.7,2.4-1.6V34.9c0-0.9-0.5-1.6-2.4-1.6v-0.2h7.8V53c0,0.9,0.5,1.6,2.4,1.6v0.2H24.8
				V54.6z M34.3,33.3v-0.2h8.8v6.4h-0.3C41.3,34.9,39.1,33.6,34.3,33.3z M36,44.1L34.3,44v-0.2l1.8-0.2c1.9-0.2,3.2-0.9,4.2-2.8h0.3
				v6h-0.3C39.2,45,37.9,44.3,36,44.1z"/>
		</g>
		<g class="st1">
			<path class="st2" d="M52.4,38.7c-1.9,0.2-2.5,1.8-2.5,8.1c0,6,0.6,8,2.5,8.2v0.2c-3.7,0-8-3-8-8.4s4.2-8.2,8-8.3V38.7z
				 M61.6,46.8c0,5.3-4.3,8.4-7.9,8.4V55c1.9-0.2,2.5-2.2,2.5-8.2c0-6.3-0.6-7.9-2.5-8.1v-0.2C57.4,38.5,61.6,41.4,61.6,46.8z"/>
		</g>
		<g class="st1">
			<path class="st2" d="M71.4,53c0,0.8,0.5,1.6,2.4,1.6v0.2H63.7v-0.2c1.9,0,2.4-0.8,2.4-1.6V41.6c0-1.2-0.5-1.7-2.4-1.7v-0.2
				c3,0,5.4-0.3,7.6-1.2V53z M80,42c0,2.2-1.6,3.6-3.3,3.6c-0.8,0-1.4-0.2-1.8-0.7c0.6-0.3,1.2-1,1.2-2.2c0-0.9-0.7-1.7-1.8-1.7
				c-0.8,0-1.5,0.5-1.9,1.2V42c0.6-2,2.2-3.5,4.2-3.5C78.8,38.5,80,40,80,42z"/>
		</g>
		<g class="st1">
			<path class="st2" d="M101.1,52.4v0.2c-1,1.5-3.1,2.6-5.5,2.6c-2.9,0-4.9-1.3-4.9-4.5V40.1H89l0.4-0.5h1.3v-3.5
				c2,0,3.9-0.6,5.2-1.8v5.2h4.3l-0.4,0.5h-4v10.6c0,1.6,0.6,3.3,2.1,3.3C98.9,54,100,53.4,101.1,52.4z"/>
			<path class="st2" d="M109.3,53c0,0.8,0.5,1.6,2.4,1.6v0.2h-10.1v-0.2c1.9,0,2.4-0.8,2.4-1.6V34.4c0-1.2-0.5-1.7-2.4-1.7v-0.2
				c3,0,5.4-0.3,7.6-1.2V53z M120.5,43v10c0,0.8,0.5,1.6,2.4,1.6v0.2h-10v-0.2c1.9,0,2.4-0.8,2.4-1.6V43c0-1.8-0.9-2.7-2.5-2.7
				c-0.9,0-1.7,0.3-2.4,1v-0.2c0.9-1.3,2.9-2.6,5.3-2.6C118.5,38.5,120.5,39.9,120.5,43z"/>
			<path class="st2" d="M124.7,46.8c0-5.4,4.1-8.2,7.8-8.3v0.2c-1.9,0.2-2.4,1.8-2.4,7.9c0,4.6,2,7.1,4.9,7.1c1.8,0,3.2-0.5,4.7-1.7
				v0.2c-1.7,2.1-4.7,2.9-6.8,2.9C128.8,55.2,124.7,52.1,124.7,46.8z M131.9,45.4c2.8,0,4-0.9,4-3.6c0-1.5-0.6-2.9-2.1-3.1v-0.2
				c4.2,0,6.3,3,6.3,5.4c0,0.5-0.1,1.2-0.2,1.7h-8V45.4z"/>
			<path class="st2" d="M157.4,50.8c0,3-2.1,4.4-5.3,4.4V34.4c0-1.2-0.6-1.7-2.4-1.7v-0.2c3,0,5-0.3,7.7-1.2V50.8z M169.6,46.7
				c0,6.7-3.6,8.5-6.6,8.5c-1.8,0-3.8-1.2-4.6-2.6v-0.2c0.8,0.6,1.6,1.1,2.7,1.1c1.5,0,3.1-1.1,3.1-6.8c0-5.8-1.5-6.5-3.1-6.5
				c-1,0-1.9,0.4-2.7,1.2v-0.3c0.8-1.3,2.8-2.6,4.6-2.6C166.1,38.5,169.6,40.3,169.6,46.7z"/>
			<path class="st2" d="M172.4,46.8c0-5.4,4.1-8.2,7.8-8.3v0.2c-1.9,0.2-2.4,1.8-2.4,7.9c0,4.6,2,7.1,4.9,7.1c1.8,0,3.2-0.5,4.7-1.7
				v0.2c-1.7,2.1-4.7,2.9-6.8,2.9C176.5,55.2,172.4,52.1,172.4,46.8z M179.6,45.4c2.8,0,4-0.9,4-3.6c0-1.5-0.6-2.9-2.1-3.1v-0.2
				c4.2,0,6.3,3,6.3,5.4c0,0.5-0.1,1.2-0.2,1.7h-8V45.4z"/>
			<path class="st2" d="M196,51c-1.1,0-1.8,0.6-1.8,1.6c0,0.9,0.6,2.1,2.8,2.3v0.2c-4.3-0.2-6.6-1.3-6.6-3.2c0-1.5,1.3-2.4,2.7-2.4
				C194.4,49.6,195.5,50.2,196,51z M197,38.7c-1.2,0.2-2.3,0.8-2.3,2.1c0.1,3.7,10.5,4.3,10.5,9.4c0,3.1-2.6,4.7-6.8,4.9V55
				c1.3-0.2,2.8-0.7,2.8-2.4c0-3.3-10.5-4.5-10.5-9.4c0-2.8,2.7-4.5,6.2-4.7V38.7z M204.6,41.8c0,1-0.8,2-2.4,2
				c-1.3,0-2.3-0.6-2.7-1.5c1-0.1,1.5-0.7,1.4-1.5c0-1-1.2-1.9-2.5-2v-0.2C202,38.7,204.6,40,204.6,41.8z"/>
			<path class="st2" d="M219.7,52.4v0.2c-1,1.5-3.1,2.6-5.5,2.6c-2.9,0-4.9-1.3-4.9-4.5V40.1h-1.7l0.4-0.5h1.3v-3.5
				c2,0,3.9-0.6,5.2-1.8v5.2h4.3l-0.4,0.5h-4v10.6c0,1.6,0.6,3.3,2.1,3.3C217.6,54,218.6,53.4,219.7,52.4z"/>
		</g>
		<g class="st1">
			<path class="st2" d="M30.4,83c-1.1,0-1.8,0.6-1.8,1.6c0,0.9,0.6,2.1,2.8,2.3v0.2c-4.3-0.2-6.6-1.3-6.6-3.2c0-1.5,1.3-2.4,2.7-2.4
				C28.8,81.6,29.9,82.2,30.4,83z M31.4,70.7c-1.2,0.2-2.3,0.8-2.3,2.1c0.1,3.7,10.5,4.3,10.5,9.4c0,3.1-2.6,4.7-6.8,4.9V87
				c1.3-0.2,2.8-0.7,2.8-2.4c0-3.3-10.5-4.5-10.5-9.4c0-2.8,2.7-4.5,6.2-4.7V70.7z M39,73.8c0,1-0.8,2-2.4,2c-1.3,0-2.3-0.6-2.7-1.5
				c1-0.1,1.5-0.7,1.4-1.5c0-1-1.2-1.9-2.5-2v-0.2C36.4,70.7,39,72,39,73.8z"/>
			<path class="st2" d="M49.1,91.7c0,1.2,0.5,1.7,2.4,1.7v0.2c-3,0-5,0.3-7.6,1.2V73.6c0-1.2-0.5-1.7-2.4-1.7v-0.2
				c3,0,5-0.3,7.6-1.2V91.7z M61.3,78.7c0,6.7-3.5,8.5-6.6,8.5c-1.8,0-3.9-1.2-4.7-2.6v-0.2c0.8,0.6,1.7,1.1,2.7,1.1
				c1.5,0,3.1-1.1,3.1-6.8c0-5.8-1.5-6.5-3.1-6.5c-1,0-2,0.4-2.7,1.2v-0.3c0.8-1.3,2.8-2.6,4.7-2.6C57.8,70.5,61.3,72.3,61.3,78.7z"
				/>
			<path class="st2" d="M64.1,78.8c0-5.4,4.1-8.2,7.8-8.3v0.2c-1.9,0.2-2.4,1.8-2.4,7.9c0,4.6,2,7.1,4.9,7.1c1.8,0,3.2-0.5,4.7-1.7
				v0.2c-1.7,2.1-4.7,2.9-6.8,2.9C68.2,87.2,64.1,84.1,64.1,78.8z M71.3,77.4c2.8,0,4-0.9,4-3.6c0-1.5-0.6-2.9-2.1-3.1v-0.2
				c4.2,0,6.3,3,6.3,5.4c0,0.5-0.1,1.2-0.2,1.7h-8V77.4z"/>
			<path class="st2" d="M90.3,70.7c-1.9,0.2-2.7,1.8-2.7,7.9c0,4.6,2.3,7.1,5.2,7.1c1.8,0,3.2-0.5,4.7-1.7v0.2
				c-1.7,2.1-4.7,2.9-6.8,2.9c-4.1,0-8.5-3-8.5-8.4s4.4-8.2,8.2-8.3V70.7z M97.4,74.1c0,1.7-1.2,3.1-3.2,3.1c-1.6,0-2.6-1-2.8-2
				c0.9-0.4,1.5-1.5,1.5-2.3c0-0.7-0.2-1.9-1.4-2.1v-0.2C95.8,70.5,97.4,72.3,97.4,74.1z"/>
			<path class="st2" d="M99.3,71.7c3,0,5.4-0.3,7.6-1.2V85c0,0.8,0.5,1.6,2.4,1.6v0.2H99.3v-0.2c1.9,0,2.4-0.8,2.4-1.6V73.6
				c0-1.2-0.5-1.7-2.4-1.7V71.7z M100.9,65.7c0-1.7,1.3-2.8,3.3-2.8s3.3,1.1,3.3,2.8c0,1.7-1.3,2.8-3.3,2.8S100.9,67.4,100.9,65.7z"
				/>
			<path class="st2" d="M110.9,83.1c0-2.8,2.6-4.4,6.1-4.4h3.5v0.2h-1c-2.3,0-3.4,1.5-3.4,3.5c0,1.8,0.5,3.1,2,3.1
				c0.9,0,1.6-0.5,2.3-1.1v0.2c-1.1,1.2-2.8,2.6-5.1,2.6C112.7,87.2,110.9,85.6,110.9,83.1z M112.2,74c0-1.6,1.5-3.3,5.8-3.5v0.2
				c-1.3,0.2-2,1.2-2,2.3c0,1.2,0.8,1.9,2.1,2c-0.5,0.9-1.8,1.5-3.1,1.5C113.2,76.5,112.2,75.3,112.2,74z M121.5,83.5v-9.8
				c0-1.6-0.6-2.8-2.2-3v-0.2c5.3,0.2,7.4,2.2,7.4,6.4v7.8c0,0.9,0.3,1.3,0.9,1.3c0.5,0,1-0.5,1.5-1.4h0.2c-0.5,1.8-2.2,2.6-4.2,2.6
				C122.6,87.2,121.5,86.3,121.5,83.5z"/>
			<path class="st2" d="M130.2,64.6c3,0,5.4-0.3,7.6-1.2V85c0,0.8,0.5,1.6,2.4,1.6v0.2h-10.1v-0.2c1.9,0,2.4-0.8,2.4-1.6V66.4
				c0-1.2-0.5-1.7-2.4-1.7V64.6z"/>
			<path class="st2" d="M141.7,71.7c3,0,5.4-0.3,7.6-1.2V85c0,0.8,0.5,1.6,2.4,1.6v0.2h-10.1v-0.2c1.9,0,2.4-0.8,2.4-1.6V73.6
				c0-1.2-0.5-1.7-2.4-1.7V71.7z M143.3,65.7c0-1.7,1.3-2.8,3.3-2.8s3.3,1.1,3.3,2.8c0,1.7-1.3,2.8-3.3,2.8S143.3,67.4,143.3,65.7z"
				/>
			<path class="st2" d="M159.2,83c-1.1,0-1.8,0.6-1.8,1.6c0,0.9,0.6,2.1,2.8,2.3v0.2c-4.3-0.2-6.6-1.3-6.6-3.2
				c0-1.5,1.3-2.4,2.7-2.4C157.7,81.6,158.7,82.2,159.2,83z M160.2,70.7c-1.2,0.2-2.3,0.8-2.3,2.1c0.1,3.7,10.5,4.3,10.5,9.4
				c0,3.1-2.6,4.7-6.8,4.9V87c1.3-0.2,2.8-0.7,2.8-2.4c0-3.3-10.5-4.5-10.5-9.4c0-2.8,2.7-4.5,6.2-4.7V70.7z M167.8,73.8
				c0,1-0.8,2-2.4,2c-1.3,0-2.3-0.6-2.7-1.5c1-0.1,1.5-0.7,1.4-1.5c0-1-1.2-1.9-2.5-2v-0.2C165.3,70.7,167.8,72,167.8,73.8z"/>
			<path class="st2" d="M182.9,84.4v0.2c-1,1.5-3.1,2.6-5.5,2.6c-2.9,0-4.9-1.3-4.9-4.5V72.1h-1.7l0.4-0.5h1.3v-3.5
				c2,0,3.9-0.6,5.2-1.8v5.2h4.3l-0.4,0.5h-4v10.6c0,1.6,0.6,3.3,2.1,3.3C180.8,86,181.9,85.4,182.9,84.4z"/>
		</g>
		<g class="st1">
			<path class="st2" d="M24.3,103.7c3,0,5.4-0.3,7.6-1.2V117c0,0.8,0.5,1.6,2.4,1.6v0.2H24.2v-0.2c1.9,0,2.4-0.8,2.4-1.6v-11.4
				c0-1.2-0.5-1.7-2.4-1.7V103.7z M25.9,97.7c0-1.7,1.3-2.8,3.3-2.8s3.3,1.1,3.3,2.8c0,1.7-1.3,2.8-3.3,2.8S25.9,99.4,25.9,97.7z"/>
			<path class="st2" d="M35.7,118.6c1.9,0,2.4-0.8,2.4-1.6v-11.4c0-1.2-0.5-1.7-2.4-1.7v-0.2c3,0,5.4-0.3,7.6-1.2V117
				c0,0.8,0.5,1.6,2.4,1.6v0.2H35.7V118.6z M46.9,118.6c1.9,0,2.4-0.8,2.4-1.6v-10c0-1.8-0.9-2.7-2.5-2.7c-0.9,0-1.7,0.3-2.4,1v-0.2
				c0.9-1.3,2.9-2.6,5.3-2.6c2.9,0,4.9,1.3,4.9,4.5v10c0,0.8,0.5,1.6,2.4,1.6v0.2h-10V118.6z"/>
			<path class="st2" d="M64.3,115c-1.1,0-1.8,0.6-1.8,1.6c0,0.9,0.6,2.1,2.8,2.3v0.2c-4.3-0.2-6.6-1.3-6.6-3.2
				c0-1.5,1.3-2.4,2.7-2.4C62.7,113.6,63.8,114.2,64.3,115z M65.3,102.7c-1.2,0.2-2.3,0.8-2.3,2.1c0.1,3.7,10.5,4.3,10.5,9.4
				c0,3.1-2.6,4.7-6.8,4.9V119c1.3-0.2,2.8-0.7,2.8-2.4c0-3.3-10.5-4.5-10.5-9.4c0-2.8,2.7-4.5,6.2-4.7V102.7z M72.9,105.8
				c0,1-0.8,2-2.4,2c-1.3,0-2.3-0.6-2.7-1.5c1-0.1,1.5-0.7,1.4-1.5c0-1-1.2-1.9-2.5-2v-0.2C70.4,102.7,72.9,104,72.9,105.8z"/>
			<path class="st2" d="M82.9,114.6c0,1.8,0.6,2.7,2.2,2.7c0.8,0,1.5-0.3,2.2-1v0.2c-0.7,1.4-2.4,2.6-5,2.6c-2.9,0-4.7-1.3-4.7-4.5
				v-9c0-1.2-0.5-1.7-2.4-1.7v-0.2c3,0,5.4-0.3,7.6-1.2V114.6z M93.6,116.7c0,0.9,0.3,1.3,0.9,1.3c0.5,0,1-0.5,1.5-1.4h0.2
				c-0.5,1.8-2.2,2.6-4.4,2.6c-2.2,0-3.5-1.3-3.5-3.1v-10.4c0-1.2-0.5-1.7-2.3-1.7v-0.2c2.9,0,4.9-0.3,7.6-1.2V116.7z"/>
		</g>
		<g class="st1">
			<path class="st2" d="M105.1,117c0,0.8,0.5,1.6,2.4,1.6v0.2H97.5v-0.2c1.9,0,2.4-0.8,2.4-1.6v-11.4c0-1.2-0.5-1.7-2.4-1.7v-0.2
				c3,0,5.4-0.3,7.6-1.2V117z M113.8,106c0,2.2-1.6,3.6-3.3,3.6c-0.8,0-1.4-0.2-1.8-0.7c0.6-0.3,1.2-1,1.2-2.2
				c0-0.9-0.7-1.7-1.8-1.7c-0.8,0-1.5,0.5-1.9,1.2V106c0.6-2,2.2-3.5,4.2-3.5C112.6,102.5,113.8,104,113.8,106z"/>
		</g>
		<g class="st1">
			<path class="st2" d="M115.2,115.1c0-2.8,2.6-4.4,6.1-4.4h3.5v0.2h-1c-2.3,0-3.4,1.5-3.4,3.5c0,1.8,0.5,3.1,2,3.1
				c0.9,0,1.6-0.5,2.3-1.1v0.2c-1.1,1.2-2.8,2.6-5.1,2.6C117,119.2,115.1,117.6,115.2,115.1z M116.4,106c0-1.6,1.5-3.3,5.8-3.5v0.2
				c-1.3,0.2-2,1.2-2,2.3c0,1.2,0.8,1.9,2.1,2c-0.5,0.9-1.8,1.5-3.1,1.5C117.5,108.5,116.4,107.3,116.4,106z M125.7,115.5v-9.8
				c0-1.6-0.6-2.8-2.2-3v-0.2c5.3,0.2,7.4,2.2,7.4,6.4v7.8c0,0.9,0.3,1.3,0.9,1.3c0.5,0,1-0.5,1.5-1.4h0.2c-0.5,1.8-2.2,2.6-4.2,2.6
				C126.9,119.2,125.7,118.3,125.7,115.5z"/>
			<path class="st2" d="M134.6,118.6c1.9,0,2.4-0.8,2.4-1.6v-11.4c0-1.2-0.5-1.7-2.4-1.7v-0.2c3,0,5.4-0.3,7.6-1.2V117
				c0,0.8,0.5,1.6,2.4,1.6v0.2h-10.1V118.6z M145.9,118.6c1.9,0,2.4-0.8,2.4-1.6v-10c0-1.8-0.9-2.7-2.5-2.7c-0.9,0-1.7,0.3-2.4,1
				v-0.2c0.9-1.3,2.9-2.6,5.3-2.6c2.9,0,4.9,1.3,4.9,4.5v10c0,0.8,0.5,1.6,2.4,1.6v0.2h-10V118.6z"/>
			<path class="st2" d="M165.8,102.7c-1.9,0.2-2.7,1.8-2.7,7.9c0,4.6,2.3,7.1,5.2,7.1c1.8,0,3.2-0.5,4.7-1.7v0.2
				c-1.7,2.1-4.7,2.9-6.8,2.9c-4.1,0-8.5-3-8.5-8.4s4.4-8.2,8.2-8.3V102.7z M172.9,106.1c0,1.7-1.2,3.1-3.2,3.1c-1.6,0-2.6-1-2.8-2
				c0.9-0.4,1.5-1.5,1.5-2.3c0-0.7-0.2-1.9-1.4-2.1v-0.2C171.3,102.5,172.9,104.3,172.9,106.1z"/>
			<path class="st2" d="M175.3,110.8c0-5.4,4.1-8.2,7.8-8.3v0.2c-1.9,0.2-2.4,1.8-2.4,7.9c0,4.6,2,7.1,4.9,7.1
				c1.8,0,3.2-0.5,4.7-1.7v0.2c-1.7,2.1-4.7,2.9-6.8,2.9C179.5,119.2,175.3,116.1,175.3,110.8z M182.5,109.4c2.8,0,4-0.9,4-3.6
				c0-1.5-0.6-2.9-2.1-3.1v-0.2c4.2,0,6.3,3,6.3,5.4c0,0.5-0.1,1.2-0.2,1.7h-8V109.4z"/>
		</g>
	</g>
</g>
</svg>
