<?xml version="1.0" encoding="utf-8"?>
<!-- Generator: Adobe Illustrator 24.0.3, SVG Export Plug-In . SVG Version: 6.00 Build 0)  -->
<svg version="1.1" id="Layer_1" xmlns="http://www.w3.org/2000/svg" xmlns:xlink="http://www.w3.org/1999/xlink" x="0px" y="0px"
	 viewBox="0 0 300 250" style="enable-background:new 0 0 300 250;" xml:space="preserve">
<style type="text/css">
	.st0{clip-path:url(#SVGID_2_);}
	.st1{enable-background:new    ;}
	.st2{fill:#FFFFFF;}
</style>
<title>Artboard 1</title>
<g>
	<defs>
		<rect id="SVGID_1_" y="0" width="300" height="250"/>
	</defs>
	<clipPath id="SVGID_2_">
		<use xlink:href="#SVGID_1_"  style="overflow:visible;"/>
	</clipPath>
	<g class="st0">
		<g class="st1">
			<path class="st2" d="M33,53v0.2c-2.5-0.1-4.5-0.5-6.2-1.6l-1.1,1.6h-0.3v-7.8h0.3C26.7,49,29,51.6,33,53z M42.4,46.6
				c0,4.1-3.1,6.4-8,6.6V53c1.8-0.3,3.5-1.3,3.5-3.3c0-5.6-12.2-6.1-12.2-12.6c0-3.8,3.1-6,7.4-6.3v0.2c-1.5,0.3-2.8,1.2-2.8,2.9
				C30.1,39.5,42.4,40.1,42.4,46.6z M34.3,30.9v-0.2c2.4,0.1,4.3,0.6,5.8,1.7l1.2-1.7h0.3v7.1h-0.3C40.2,34.5,37.5,31.7,34.3,30.9z"
				/>
		</g>
		<g class="st1">
			<path class="st2" d="M57,50.4v0.2c-1,1.5-3.1,2.6-5.5,2.6c-2.9,0-4.9-1.3-4.9-4.5V38.1h-1.7l0.4-0.5h1.3v-3.5
				c2,0,3.9-0.6,5.2-1.8v5.2h4.3l-0.4,0.5h-4v10.6c0,1.6,0.6,3.3,2.1,3.3C54.8,52,55.9,51.4,57,50.4z"/>
			<path class="st2" d="M58,49.1c0-2.8,2.6-4.4,6.1-4.4h3.5v0.2h-1c-2.3,0-3.4,1.5-3.4,3.5c0,1.8,0.5,3.1,2,3.1
				c0.9,0,1.6-0.5,2.3-1.1v0.2c-1.1,1.2-2.8,2.6-5.1,2.6C59.8,53.2,57.9,51.6,58,49.1z M59.3,40c0-1.6,1.5-3.3,5.8-3.5v0.2
				c-1.3,0.2-2,1.2-2,2.3c0,1.2,0.8,1.9,2.1,2c-0.5,0.9-1.8,1.5-3.1,1.5C60.3,42.5,59.3,41.3,59.3,40z M68.5,49.5v-9.8
				c0-1.6-0.6-2.8-2.2-3v-0.2c5.3,0.2,7.4,2.2,7.4,6.4v7.8c0,0.9,0.3,1.3,0.9,1.3c0.5,0,1-0.5,1.5-1.4h0.2c-0.5,1.8-2.2,2.6-4.2,2.6
				C69.7,53.2,68.5,52.3,68.5,49.5z"/>
		</g>
		<g class="st1">
			<path class="st2" d="M85.1,51c0,0.8,0.5,1.6,2.4,1.6v0.2H77.4v-0.2c1.9,0,2.4-0.8,2.4-1.6V39.6c0-1.2-0.5-1.7-2.4-1.7v-0.2
				c3,0,5.4-0.3,7.6-1.2V51z M93.7,40c0,2.2-1.6,3.6-3.3,3.6c-0.8,0-1.4-0.2-1.8-0.7c0.6-0.3,1.2-1,1.2-2.2c0-0.9-0.7-1.7-1.8-1.7
				c-0.8,0-1.5,0.5-1.9,1.2V40c0.6-2,2.2-3.5,4.2-3.5C92.5,36.5,93.7,38,93.7,40z"/>
		</g>
		<g class="st1">
			<path class="st2" d="M24.8,84.8v-0.2c1.9,0,2.4-0.7,2.4-1.6V64.9c0-0.9-0.5-1.7-2.4-1.7v-0.2h7.8v21.8H24.8z M42.7,63.1V69h-0.3
				c-1.4-4-3.3-5.4-8.2-5.7v-0.2H42.7z M34.3,73.7v-0.2l1.8-0.2c1.9-0.2,3.2-0.9,4.2-2.8h0.3v6h-0.3c-1.1-1.8-2.3-2.5-4.2-2.7
				L34.3,73.7z M34.3,84.6c4.9-0.3,7.1-1.7,8.9-5.7h0.3v5.9h-9.1V84.6z"/>
			<path class="st2" d="M45.8,84.6c1.9,0,2.4-0.8,2.4-1.6V71.6c0-1.2-0.5-1.7-2.4-1.7v-0.2c3,0,5.4-0.3,7.6-1.2V83
				c0,0.8,0.5,1.6,2.4,1.6v0.2H45.8V84.6z M57,84.6c1.9,0,2.4-0.8,2.4-1.6V73c0-1.8-0.9-2.7-2.5-2.7c-0.9,0-1.7,0.3-2.4,1v-0.2
				c0.9-1.3,2.9-2.6,5.3-2.6c2.9,0,4.9,1.3,4.9,4.5v10c0,0.8,0.5,1.6,2.4,1.6v0.2H57V84.6z"/>
			<path class="st2" d="M80.6,82.4v0.2c-1,1.5-3.1,2.6-5.5,2.6c-2.9,0-4.9-1.3-4.9-4.5V70.1h-1.7l0.4-0.5h1.3v-3.5
				c2,0,3.9-0.6,5.2-1.8v5.2h4.3l-0.4,0.5h-4v10.6c0,1.6,0.6,3.3,2.1,3.3C78.5,84,79.6,83.4,80.6,82.4z"/>
			<path class="st2" d="M88.9,83c0,0.8,0.5,1.6,2.4,1.6v0.2H81.2v-0.2c1.9,0,2.4-0.8,2.4-1.6V64.4c0-1.2-0.5-1.7-2.4-1.7v-0.2
				c3,0,5.4-0.3,7.6-1.2V83z M100.1,73v10c0,0.8,0.5,1.6,2.4,1.6v0.2h-10v-0.2c1.9,0,2.4-0.8,2.4-1.6V73c0-1.8-0.9-2.7-2.5-2.7
				c-0.9,0-1.7,0.3-2.4,1v-0.2c0.9-1.3,2.9-2.6,5.3-2.6C98,68.5,100.1,69.9,100.1,73z"/>
			<path class="st2" d="M111,80.6c0,1.8,0.6,2.7,2.2,2.7c0.8,0,1.5-0.3,2.2-1v0.2c-0.7,1.4-2.4,2.6-5,2.6c-2.9,0-4.7-1.3-4.7-4.5v-9
				c0-1.2-0.5-1.7-2.4-1.7v-0.2c3,0,5.4-0.3,7.6-1.2V80.6z M121.6,82.7c0,0.9,0.3,1.3,0.9,1.3c0.5,0,1-0.5,1.5-1.4h0.2
				c-0.5,1.8-2.2,2.6-4.4,2.6c-2.2,0-3.5-1.3-3.5-3.1V71.6c0-1.2-0.5-1.7-2.3-1.7v-0.2c2.9,0,4.9-0.3,7.6-1.2V82.7z"/>
			<path class="st2" d="M131.6,81c-1.1,0-1.8,0.6-1.8,1.6c0,0.9,0.6,2.1,2.8,2.3v0.2c-4.3-0.2-6.6-1.3-6.6-3.2
				c0-1.5,1.3-2.4,2.7-2.4C130.1,79.6,131.2,80.2,131.6,81z M132.7,68.7c-1.2,0.2-2.3,0.8-2.3,2.1c0.1,3.7,10.5,4.3,10.5,9.4
				c0,3.1-2.6,4.7-6.8,4.9V85c1.3-0.2,2.8-0.7,2.8-2.4c0-3.3-10.5-4.5-10.5-9.4c0-2.8,2.7-4.5,6.2-4.7V68.7z M140.2,71.8
				c0,1-0.8,2-2.4,2c-1.3,0-2.3-0.6-2.7-1.5c1-0.1,1.5-0.7,1.4-1.5c0-1-1.2-1.9-2.5-2v-0.2C137.7,68.7,140.2,70,140.2,71.8z"/>
			<path class="st2" d="M143,69.7c3,0,5.4-0.3,7.6-1.2V83c0,0.8,0.5,1.6,2.4,1.6v0.2H143v-0.2c1.9,0,2.4-0.8,2.4-1.6V71.6
				c0-1.2-0.5-1.7-2.4-1.7V69.7z M144.7,63.7c0-1.7,1.3-2.8,3.3-2.8s3.3,1.1,3.3,2.8c0,1.7-1.3,2.8-3.3,2.8S144.7,65.4,144.7,63.7z"
				/>
			<path class="st2" d="M154.7,81.1c0-2.8,2.6-4.4,6.1-4.4h3.5v0.2h-1c-2.3,0-3.4,1.5-3.4,3.5c0,1.8,0.5,3.1,2,3.1
				c0.9,0,1.6-0.5,2.3-1.1v0.2c-1.1,1.2-2.8,2.6-5.1,2.6C156.5,85.2,154.6,83.6,154.7,81.1z M156,72c0-1.6,1.5-3.3,5.8-3.5v0.2
				c-1.3,0.2-2,1.2-2,2.3c0,1.2,0.8,1.9,2.1,2c-0.5,0.9-1.8,1.5-3.1,1.5C157,74.5,156,73.3,156,72z M165.2,81.5v-9.8
				c0-1.6-0.6-2.8-2.2-3v-0.2c5.3,0.2,7.4,2.2,7.4,6.4v7.8c0,0.9,0.3,1.3,0.9,1.3c0.5,0,1-0.5,1.5-1.4h0.2c-0.5,1.8-2.2,2.6-4.2,2.6
				C166.4,85.2,165.2,84.3,165.2,81.5z"/>
			<path class="st2" d="M180.2,81c-1.1,0-1.8,0.6-1.8,1.6c0,0.9,0.6,2.1,2.8,2.3v0.2c-4.3-0.2-6.6-1.3-6.6-3.2
				c0-1.5,1.3-2.4,2.7-2.4C178.7,79.6,179.8,80.2,180.2,81z M181.3,68.7c-1.2,0.2-2.3,0.8-2.3,2.1c0.1,3.7,10.5,4.3,10.5,9.4
				c0,3.1-2.6,4.7-6.8,4.9V85c1.3-0.2,2.8-0.7,2.8-2.4c0-3.3-10.5-4.5-10.5-9.4c0-2.8,2.7-4.5,6.2-4.7V68.7z M188.9,71.8
				c0,1-0.8,2-2.4,2c-1.3,0-2.3-0.6-2.7-1.5c1-0.1,1.5-0.7,1.4-1.5c0-1-1.2-1.9-2.5-2v-0.2C186.3,68.7,188.9,70,188.9,71.8z"/>
			<path class="st2" d="M204,82.4v0.2c-1,1.5-3.1,2.6-5.5,2.6c-2.9,0-4.9-1.3-4.9-4.5V70.1h-1.7l0.4-0.5h1.3v-3.5
				c2,0,3.9-0.6,5.2-1.8v5.2h4.3l-0.4,0.5h-4v10.6c0,1.6,0.6,3.3,2.1,3.3C201.8,84,202.9,83.4,204,82.4z"/>
		</g>
		<g class="st1">
			<path class="st2" d="M24.8,116.6c1.9,0,2.4-0.8,2.4-1.6V96.9c0-0.9-0.5-1.6-2.4-1.6v-0.2h10.2v0.2c-1.9,0-2.4,0.8-2.4,1.6V115
				c0,0.9,0.5,1.6,2.4,1.6v0.2H24.8V116.6z"/>
			<path class="st2" d="M37.2,116.6c1.9,0,2.4-0.8,2.4-1.6v-11.4c0-1.2-0.5-1.7-2.4-1.7v-0.2c3,0,5.4-0.3,7.6-1.2V115
				c0,0.8,0.5,1.6,2.4,1.6v0.2H37.2V116.6z M48.5,116.6c1.9,0,2.4-0.8,2.4-1.6v-10c0-1.8-0.9-2.7-2.5-2.7c-0.9,0-1.7,0.3-2.4,1v-0.2
				c0.9-1.3,2.9-2.6,5.3-2.6c2.9,0,4.9,1.3,4.9,4.5v10c0,0.8,0.5,1.6,2.4,1.6v0.2h-10V116.6z"/>
			<path class="st2" d="M65.8,113c-1.1,0-1.8,0.6-1.8,1.6c0,0.9,0.6,2.1,2.8,2.3v0.2c-4.3-0.2-6.6-1.3-6.6-3.2
				c0-1.5,1.3-2.4,2.7-2.4C64.3,111.6,65.3,112.2,65.8,113z M66.9,100.7c-1.2,0.2-2.3,0.8-2.3,2.1c0.1,3.7,10.5,4.3,10.5,9.4
				c0,3.1-2.6,4.7-6.8,4.9V117c1.3-0.2,2.8-0.7,2.8-2.4c0-3.3-10.5-4.5-10.5-9.4c0-2.8,2.7-4.5,6.2-4.7V100.7z M74.4,103.8
				c0,1-0.8,2-2.4,2c-1.3,0-2.3-0.6-2.7-1.5c1-0.1,1.5-0.7,1.4-1.5c0-1-1.2-1.9-2.5-2v-0.2C71.9,100.7,74.4,102,74.4,103.8z"/>
			<path class="st2" d="M84.5,112.6c0,1.8,0.6,2.7,2.2,2.7c0.8,0,1.5-0.3,2.2-1v0.2c-0.7,1.4-2.4,2.6-5,2.6c-2.9,0-4.7-1.3-4.7-4.5
				v-9c0-1.2-0.5-1.7-2.4-1.7v-0.2c3,0,5.4-0.3,7.6-1.2V112.6z M95.1,114.7c0,0.9,0.3,1.3,0.9,1.3c0.5,0,1-0.5,1.5-1.4h0.2
				c-0.5,1.8-2.2,2.6-4.4,2.6c-2.2,0-3.5-1.3-3.5-3.1v-10.4c0-1.2-0.5-1.7-2.3-1.7v-0.2c2.9,0,4.9-0.3,7.6-1.2V114.7z"/>
		</g>
		<g class="st1">
			<path class="st2" d="M106.7,115c0,0.8,0.5,1.6,2.4,1.6v0.2H99v-0.2c1.9,0,2.4-0.8,2.4-1.6v-11.4c0-1.2-0.5-1.7-2.4-1.7v-0.2
				c3,0,5.4-0.3,7.6-1.2V115z M115.3,104c0,2.2-1.6,3.6-3.3,3.6c-0.8,0-1.4-0.2-1.8-0.7c0.6-0.3,1.2-1,1.2-2.2
				c0-0.9-0.7-1.7-1.8-1.7c-0.8,0-1.5,0.5-1.9,1.2V104c0.6-2,2.2-3.5,4.2-3.5C114.1,100.5,115.3,102,115.3,104z"/>
		</g>
		<g class="st1">
			<path class="st2" d="M116.7,113.1c0-2.8,2.6-4.4,6.1-4.4h3.5v0.2h-1c-2.3,0-3.4,1.5-3.4,3.5c0,1.8,0.5,3.1,2,3.1
				c0.9,0,1.6-0.5,2.3-1.1v0.2c-1.1,1.2-2.8,2.6-5.1,2.6C118.5,117.2,116.7,115.6,116.7,113.1z M118,104c0-1.6,1.5-3.3,5.8-3.5v0.2
				c-1.3,0.2-2,1.2-2,2.3c0,1.2,0.8,1.9,2.1,2c-0.5,0.9-1.8,1.5-3.1,1.5C119,106.5,118,105.3,118,104z M127.3,113.5v-9.8
				c0-1.6-0.6-2.8-2.2-3v-0.2c5.3,0.2,7.4,2.2,7.4,6.4v7.8c0,0.9,0.3,1.3,0.9,1.3c0.5,0,1-0.5,1.5-1.4h0.2c-0.5,1.8-2.2,2.6-4.2,2.6
				C128.4,117.2,127.3,116.3,127.3,113.5z"/>
			<path class="st2" d="M136.1,116.6c1.9,0,2.4-0.8,2.4-1.6v-11.4c0-1.2-0.5-1.7-2.4-1.7v-0.2c3,0,5.4-0.3,7.6-1.2V115
				c0,0.8,0.5,1.6,2.4,1.6v0.2h-10.1V116.6z M147.4,116.6c1.9,0,2.4-0.8,2.4-1.6v-10c0-1.8-0.9-2.7-2.5-2.7c-0.9,0-1.7,0.3-2.4,1
				v-0.2c0.9-1.3,2.9-2.6,5.3-2.6c2.9,0,4.9,1.3,4.9,4.5v10c0,0.8,0.5,1.6,2.4,1.6v0.2h-10V116.6z"/>
			<path class="st2" d="M167.3,100.7c-1.9,0.2-2.7,1.8-2.7,7.9c0,4.6,2.3,7.1,5.2,7.1c1.8,0,3.2-0.5,4.7-1.7v0.2
				c-1.7,2.1-4.7,2.9-6.8,2.9c-4.1,0-8.5-3-8.5-8.4s4.4-8.2,8.2-8.3V100.7z M174.5,104.1c0,1.7-1.2,3.1-3.2,3.1c-1.6,0-2.6-1-2.8-2
				c0.9-0.4,1.5-1.5,1.5-2.3c0-0.7-0.2-1.9-1.4-2.1v-0.2C172.8,100.5,174.5,102.3,174.5,104.1z"/>
			<path class="st2" d="M176.9,108.8c0-5.4,4.1-8.2,7.8-8.3v0.2c-1.9,0.2-2.4,1.8-2.4,7.9c0,4.6,2,7.1,4.9,7.1
				c1.8,0,3.2-0.5,4.7-1.7v0.2c-1.7,2.1-4.7,2.9-6.8,2.9C181,117.2,176.9,114.1,176.9,108.8z M184.1,107.4c2.8,0,4-0.9,4-3.6
				c0-1.5-0.6-2.9-2.1-3.1v-0.2c4.2,0,6.3,3,6.3,5.4c0,0.5-0.1,1.2-0.2,1.7h-8V107.4z"/>
		</g>
	</g>
</g>
</svg>
