<?xml version="1.0" encoding="utf-8"?>
<!-- Generator: Adobe Illustrator 24.0.3, SVG Export Plug-In . SVG Version: 6.00 Build 0)  -->
<svg version="1.1" id="Layer_1" xmlns="http://www.w3.org/2000/svg" xmlns:xlink="http://www.w3.org/1999/xlink" x="0px" y="0px"
	 viewBox="0 0 300 250" style="enable-background:new 0 0 300 250;" xml:space="preserve">
<style type="text/css">
	.st0{clip-path:url(#SVGID_2_);}
	.st1{enable-background:new    ;}
	.st2{fill:#263845;}
</style>
<title>Artboard 8 copy</title>
<g>
	<defs>
		<rect id="SVGID_1_" y="0" width="300" height="250"/>
	</defs>
	<clipPath id="SVGID_2_">
		<use xlink:href="#SVGID_1_"  style="overflow:visible;"/>
	</clipPath>
	<g class="st0">
		<g class="st1">
			<path class="st2" d="M30.3,29v0.2c-2.3,0.3-3.9,2.6-3.9,10.8c0,8.3,1.6,10.9,3.9,11.2v0.2c-4.6-0.3-10.2-3.7-10.2-11.2
				C20.2,33,26,29.3,30.3,29z M31.9,29.2V29c3.3,0.2,5.1,0.6,6.6,1.5l1-1.5h0.3v7.8h-0.3C38.6,33,35.7,30,31.9,29.2z M42.7,41.9v0.2
				c-1.5,0-2.4,0.6-2.4,1.9v7.4h-0.3L39,49.5c-1.6,1.2-3.8,1.8-7,1.9v-0.2c2.2-0.2,3.4-1.3,3.4-3.9V44c0-1.3-0.6-1.9-2.4-1.9v-0.2
				H42.7z"/>
			<path class="st2" d="M52.7,35c-1.9,0.2-2.5,1.8-2.5,8.1c0,6,0.6,8,2.5,8.2v0.2c-3.7,0-8-3-8-8.4s4.2-8.2,8-8.3V35z M61.9,43
				c0,5.3-4.3,8.4-7.9,8.4v-0.2c1.9-0.2,2.5-2.2,2.5-8.2c0-6.3-0.6-7.9-2.5-8.1v-0.2C57.7,34.8,61.9,37.6,61.9,43z"/>
			<path class="st2" d="M76.4,48.6v0.2c-1,1.5-3.1,2.6-5.5,2.6c-2.9,0-4.9-1.3-4.9-4.5V36.4h-1.7l0.4-0.5H66v-3.5
				c2,0,3.9-0.6,5.2-1.8v5.2h4.3l-0.4,0.5h-4V47c0,1.6,0.6,3.3,2.1,3.3C74.3,50.3,75.4,49.7,76.4,48.6z"/>
			<path class="st2" d="M85.6,47.3c0-2.8,2.6-4.4,6.1-4.4h3.5v0.2h-1c-2.3,0-3.4,1.5-3.4,3.5c0,1.8,0.5,3.1,2,3.1
				c0.9,0,1.6-0.5,2.3-1.1v0.2c-1.1,1.2-2.8,2.6-5.1,2.6C87.4,51.4,85.5,49.9,85.6,47.3z M86.8,38.3c0-1.6,1.5-3.3,5.8-3.5V35
				c-1.3,0.2-2,1.2-2,2.3c0,1.2,0.8,1.9,2.1,2c-0.5,0.9-1.8,1.5-3.1,1.5C87.9,40.8,86.8,39.6,86.8,38.3z M96.1,47.8V38
				c0-1.6-0.6-2.8-2.2-3v-0.2c5.3,0.2,7.4,2.2,7.4,6.4v7.8c0,0.9,0.3,1.3,0.9,1.3c0.5,0,1-0.5,1.5-1.4h0.2c-0.5,1.8-2.2,2.6-4.2,2.6
				C97.3,51.4,96.1,50.5,96.1,47.8z"/>
		</g>
		<g class="st1">
			<path class="st2" d="M25.5,79.3c-1.1,0-1.8,0.6-1.8,1.6c0,0.9,0.6,2.1,2.8,2.3v0.2c-4.3-0.2-6.6-1.3-6.6-3.2
				c0-1.5,1.3-2.4,2.7-2.4C24,77.9,25.1,78.5,25.5,79.3z M26.6,67c-1.2,0.2-2.3,0.8-2.3,2.1c0.1,3.7,10.5,4.3,10.5,9.4
				c0,3.1-2.6,4.7-6.8,4.9v-0.2c1.3-0.2,2.8-0.7,2.8-2.4c0-3.3-10.5-4.5-10.5-9.4c0-2.8,2.7-4.5,6.2-4.7V67z M34.1,70.1
				c0,1-0.8,2-2.4,2c-1.3,0-2.3-0.6-2.7-1.5c1-0.1,1.5-0.7,1.4-1.5c0-1-1.2-1.9-2.5-2v-0.2C31.6,67,34.1,68.3,34.1,70.1z"/>
			<path class="st2" d="M44.3,88c0,1.2,0.5,1.7,2.4,1.7v0.2c-3,0-5,0.3-7.6,1.2V69.9c0-1.2-0.5-1.7-2.4-1.7V68c3,0,5-0.3,7.6-1.2V88
				z M56.4,74.9c0,6.7-3.5,8.5-6.6,8.5c-1.8,0-3.9-1.2-4.7-2.6v-0.2c0.8,0.6,1.7,1.1,2.7,1.1c1.5,0,3.1-1.1,3.1-6.8
				c0-5.8-1.5-6.5-3.1-6.5c-1,0-2,0.4-2.7,1.2v-0.3c0.8-1.3,2.8-2.6,4.7-2.6C53,66.8,56.4,68.6,56.4,74.9z"/>
			<path class="st2" d="M59.3,75c0-5.4,4.1-8.2,7.8-8.3V67c-1.9,0.2-2.4,1.8-2.4,7.9c0,4.6,2,7.1,4.9,7.1c1.8,0,3.2-0.5,4.7-1.7v0.2
				c-1.7,2.1-4.7,2.9-6.8,2.9C63.4,83.4,59.3,80.4,59.3,75z M66.5,73.7c2.8,0,4-0.9,4-3.6c0-1.5-0.6-2.9-2.1-3.1v-0.2
				c4.2,0,6.3,3,6.3,5.4c0,0.5-0.1,1.2-0.2,1.7h-8V73.7z"/>
			<path class="st2" d="M85.5,67c-1.9,0.2-2.7,1.8-2.7,7.9c0,4.6,2.3,7.1,5.2,7.1c1.8,0,3.2-0.5,4.7-1.7v0.2
				c-1.7,2.1-4.7,2.9-6.8,2.9c-4.1,0-8.5-3-8.5-8.4s4.4-8.2,8.2-8.3V67z M92.6,70.4c0,1.7-1.2,3.1-3.2,3.1c-1.6,0-2.6-1-2.8-2
				c0.9-0.4,1.5-1.5,1.5-2.3c0-0.7-0.2-1.9-1.4-2.1v-0.2C90.9,66.8,92.6,68.6,92.6,70.4z"/>
			<path class="st2" d="M94.5,68c3,0,5.4-0.3,7.6-1.2v14.5c0,0.8,0.5,1.6,2.4,1.6v0.2H94.4v-0.2c1.9,0,2.4-0.8,2.4-1.6V69.9
				c0-1.2-0.5-1.7-2.4-1.7V68z M96.1,62c0-1.7,1.3-2.8,3.3-2.8s3.3,1.1,3.3,2.8c0,1.7-1.3,2.8-3.3,2.8S96.1,63.7,96.1,62z"/>
			<path class="st2" d="M106.1,79.3c0-2.8,2.6-4.4,6.1-4.4h3.5v0.2h-1c-2.3,0-3.4,1.5-3.4,3.5c0,1.8,0.5,3.1,2,3.1
				c0.9,0,1.6-0.5,2.3-1.1v0.2c-1.1,1.2-2.8,2.6-5.1,2.6C107.9,83.4,106.1,81.9,106.1,79.3z M107.4,70.3c0-1.6,1.5-3.3,5.8-3.5V67
				c-1.3,0.2-2,1.2-2,2.3c0,1.2,0.8,1.9,2.1,2c-0.5,0.9-1.8,1.5-3.1,1.5C108.4,72.8,107.4,71.6,107.4,70.3z M116.7,79.8V70
				c0-1.6-0.6-2.8-2.2-3v-0.2c5.3,0.2,7.4,2.2,7.4,6.4v7.8c0,0.9,0.3,1.3,0.9,1.3c0.5,0,1-0.5,1.5-1.4h0.2c-0.5,1.8-2.2,2.6-4.2,2.6
				C117.8,83.4,116.7,82.5,116.7,79.8z"/>
			<path class="st2" d="M125.4,60.8c3,0,5.4-0.3,7.6-1.2v21.7c0,0.8,0.5,1.6,2.4,1.6v0.2h-10.1v-0.2c1.9,0,2.4-0.8,2.4-1.6V62.7
				c0-1.2-0.5-1.7-2.4-1.7V60.8z"/>
		</g>
		<g class="st1">
			<path class="st2" d="M20.1,100.4c-0.3-0.7-0.8-1.1-1.8-1.1v-0.2h9v0.2c-1.1,0-1.6,0.8-1,1.9l4.2,8.7l-2.8,5.2h-0.2L20.1,100.4z
				 M31.8,106.8c0.5-1,0.9-2.4,0.9-4.1c0-1.8-1-3.4-3.3-3.4v-0.2h8v0.2c-1.1,0-1.5,0.4-2.1,1.5l-3.3,6.3L31.8,106.8z"/>
		</g>
		<g class="st1">
			<path class="st2" d="M37.7,107c0-5.4,4.1-8.2,7.8-8.3V99c-1.9,0.2-2.4,1.8-2.4,7.9c0,4.6,2,7.1,4.9,7.1c1.8,0,3.2-0.5,4.7-1.7
				v0.2c-1.7,2.1-4.7,2.9-6.8,2.9C41.8,115.4,37.7,112.4,37.7,107z M44.9,105.7c2.8,0,4-0.9,4-3.6c0-1.5-0.6-2.9-2.1-3.1v-0.2
				c4.2,0,6.3,3,6.3,5.4c0,0.5-0.1,1.2-0.2,1.7h-8V105.7z"/>
			<path class="st2" d="M62.6,113.3c0,0.8,0.5,1.6,2.4,1.6v0.2H54.9v-0.2c1.9,0,2.4-0.8,2.4-1.6V94.7c0-1.2-0.5-1.7-2.4-1.7v-0.2
				c3,0,5.4-0.3,7.6-1.2V113.3z M73.8,103.3v10c0,0.8,0.5,1.6,2.4,1.6v0.2h-10v-0.2c1.9,0,2.4-0.8,2.4-1.6v-10
				c0-1.8-0.9-2.7-2.5-2.7c-0.9,0-1.7,0.3-2.4,1v-0.2c0.9-1.3,2.9-2.6,5.3-2.6C71.8,98.8,73.8,100.1,73.8,103.3z"/>
			<path class="st2" d="M77.4,100c3,0,5.4-0.3,7.6-1.2v14.5c0,0.8,0.5,1.6,2.4,1.6v0.2H77.4v-0.2c1.9,0,2.4-0.8,2.4-1.6v-11.4
				c0-1.2-0.5-1.7-2.4-1.7V100z M79.1,94c0-1.7,1.3-2.8,3.3-2.8s3.3,1.1,3.3,2.8c0,1.7-1.3,2.8-3.3,2.8S79.1,95.7,79.1,94z"/>
			<path class="st2" d="M97.6,99c-1.9,0.2-2.7,1.8-2.7,7.9c0,4.6,2.3,7.1,5.2,7.1c1.8,0,3.2-0.5,4.7-1.7v0.2
				c-1.7,2.1-4.7,2.9-6.8,2.9c-4.1,0-8.5-3-8.5-8.4s4.4-8.2,8.2-8.3V99z M104.7,102.4c0,1.7-1.2,3.1-3.2,3.1c-1.6,0-2.6-1-2.8-2
				c0.9-0.4,1.5-1.5,1.5-2.3c0-0.7-0.2-1.9-1.4-2.1v-0.2C103.1,98.8,104.7,100.6,104.7,102.4z"/>
			<path class="st2" d="M106.4,92.8c3,0,5.4-0.3,7.6-1.2v21.7c0,0.8,0.5,1.6,2.4,1.6v0.2h-10.1v-0.2c1.9,0,2.4-0.8,2.4-1.6V94.7
				c0-1.2-0.5-1.7-2.4-1.7V92.8z"/>
			<path class="st2" d="M118.3,107c0-5.4,4.1-8.2,7.8-8.3V99c-1.9,0.2-2.4,1.8-2.4,7.9c0,4.6,2,7.1,4.9,7.1c1.8,0,3.2-0.5,4.7-1.7
				v0.2c-1.7,2.1-4.7,2.9-6.8,2.9C122.5,115.4,118.3,112.4,118.3,107z M125.5,105.7c2.8,0,4-0.9,4-3.6c0-1.5-0.6-2.9-2.1-3.1v-0.2
				c4.2,0,6.3,3,6.3,5.4c0,0.5-0.1,1.2-0.2,1.7h-8V105.7z"/>
			<path class="st2" d="M136,97.3c0-2.8,3.8-4.2,6.8-4.3v0.2c-1.5,0.4-2.3,1.8-2.3,3.1c0,1.2,0.4,2.2,1.8,2.8
				c-0.5,0.8-1.6,1.3-2.9,1.3C137.7,100.3,136,99.4,136,97.3z M140.7,114.3c0-1.8,1.4-2.9,3.4-2.9c2,0,3.4,1.2,3.4,2.9
				c0,1.8-1.4,2.9-3.4,2.9C142.1,117.3,140.7,116.1,140.7,114.3z M141.6,105.3c0-3.6,5.1-4.6,5.1-8.7c0-1.7-0.6-2.8-2.3-3.4V93
				c4.4,0.3,7.7,1.7,7.7,5.3c0,4.4-6.9,5.7-6.9,8.5c0,0.8,0.3,1.4,1.2,1.9l0,0.2C143.1,108.9,141.6,107.3,141.6,105.3z"/>
		</g>
	</g>
</g>
</svg>
