<?xml version="1.0" encoding="utf-8"?>
<!-- Generator: Adobe Illustrator 24.0.3, SVG Export Plug-In . SVG Version: 6.00 Build 0)  -->
<svg version="1.1" id="Layer_1" xmlns="http://www.w3.org/2000/svg" xmlns:xlink="http://www.w3.org/1999/xlink" x="0px" y="0px"
	 viewBox="0 0 970 250" style="enable-background:new 0 0 970 250;" xml:space="preserve">
<style type="text/css">
	.st0{enable-background:new    ;}
	.st1{fill:#263845;}
	.st2{fill:none;}
</style>
<title>Artboard 1 copy 6</title>
<g class="st0">
	<path class="st1" d="M58.6,88.7V89H42.1v-0.3c3.1,0,3.9-1.2,3.9-2.6V56.8c0-1.5-0.8-2.6-3.9-2.6v-0.3h12.6V86
		C54.7,87.4,55.5,88.7,58.6,88.7z M78.7,85.3c-0.8,2.8-3.9,4.2-7.6,4.2c-6.7,0-8.2-4.6-8.6-9c-0.3-4.2-0.7-7.5-5.3-8.2V72
		c4.7,0,6.9-4.1,6.9-9.3c0-5.8-2.1-8.5-6.9-8.5v-0.3c10.5,0,15.6,2.3,15.6,8.8c0,5.6-4.1,9-11.8,9.4c9.4,0.4,10.8,4.1,11.3,8.3
		c0.5,4.2,1.6,7.1,3.4,7.1c0.9,0,1.8-0.8,2.6-2.3H78.7z"/>
</g>
<g class="st0">
	<path class="st1" d="M79.8,76c0-8.7,6.6-13.2,12.6-13.3V63c-3,0.4-3.9,2.9-3.9,12.8c0,7.4,3.3,11.5,7.9,11.5c2.9,0,5.1-0.8,7.5-2.7
		v0.3c-2.7,3.4-7.6,4.6-10.9,4.6C86.4,89.5,79.8,84.6,79.8,76z M91.4,73.8c4.5,0,6.4-1.4,6.4-5.8c0-2.5-1-4.7-3.3-5v-0.3
		c6.8,0,10.1,4.8,10.1,8.8c0,0.8-0.1,1.9-0.3,2.7H91.4V73.8z"/>
	<path class="st1" d="M108.3,82.9c0.1-4.5,4.1-7,9.9-7h5.6v0.3h-1.5c-3.7,0-5.5,2.4-5.5,5.6c0,2.8,0.8,5,3.2,5
		c1.4,0,2.6-0.8,3.8-1.8v0.3c-1.7,2-4.4,4.2-8.2,4.2C111.2,89.5,108.2,87,108.3,82.9z M110.3,68.3c0-2.6,2.4-5.3,9.4-5.6V63
		c-2.1,0.3-3.3,2-3.3,3.8c0,1.9,1.3,3,3.3,3.1c-0.8,1.4-2.9,2.5-4.9,2.5C112,72.4,110.3,70.5,110.3,68.3z M125.3,83.7V67.9
		c0-2.5-1-4.5-3.5-4.9v-0.3c8.6,0.3,12,3.6,12,10.3v12.5c0,1.5,0.5,2.1,1.4,2.1c0.8,0,1.6-0.8,2.5-2.3h0.3c-0.8,2.8-3.6,4.2-6.7,4.2
		C127.1,89.5,125.3,88,125.3,83.7z"/>
	<path class="st1" d="M139.3,53.1c4.8,0,8.7-0.5,12.3-2V86c0,1.3,0.8,2.6,3.9,2.6V89h-16.2v-0.3c3.1,0,3.9-1.3,3.9-2.6V56.1
		c0-1.9-0.9-2.7-3.8-2.7V53.1z"/>
</g>
<g class="st0">
	<path class="st1" d="M52.2,118.1l6.7,14.1l-4.4,8.3h-0.3l-12-23.6c-0.5-1.1-1.2-1.8-2.8-1.8v-0.3h14.4v0.3
		C52.1,115,51.4,116.3,52.2,118.1z M69.2,118.1l6.7,14.1l-4.4,8.3h-0.3l-8.1-16l-1.6,3.1l-0.3-0.5c0.8-1.7,1.1-4.2,0.4-5.7l-2.3-4.5
		c-0.5-1.1-1.2-1.8-2.8-1.8v-0.3h14.4v0.3C69,115,68.3,116.3,69.2,118.1z M87.1,114.7v0.3c-1.7,0-2.4,0.7-3.3,2.4l-5.4,10.1
		l-0.3-0.5c0.9-1.6,1.4-3.9,1.4-6.6c0-2.8-1.6-5.4-5.3-5.4v-0.3H87.1z"/>
</g>
<g class="st0">
	<path class="st1" d="M100.4,114.5c-3,0.4-4.1,2.9-4.1,13c0,9.7,1,12.9,4.1,13.2v0.3c-5.9,0-12.8-4.8-12.8-13.5s6.8-13.2,12.8-13.3
		V114.5z M115.2,127.5c0,8.6-6.9,13.5-12.8,13.5v-0.3c3-0.3,4-3.6,4-13.2c0-10.1-1-12.7-4-13v-0.3
		C108.4,114.2,115.2,118.8,115.2,127.5z"/>
	<path class="st1" d="M131,137.5c0,1.3,0.8,2.6,3.9,2.6v0.3h-16.2v-0.3c3.1,0,3.9-1.3,3.9-2.6v-18.3c0-1.9-0.9-2.7-3.8-2.7v-0.3
		c4.8,0,8.7-0.5,12.3-2V137.5z M144.9,119.8c0,3.6-2.5,5.9-5.3,5.9c-1.2,0-2.3-0.3-2.9-1.1c1-0.5,2-1.6,2-3.5c0-1.5-1.1-2.8-2.9-2.8
		c-1.3,0-2.4,0.8-3.1,2v-0.4c1-3.3,3.5-5.6,6.7-5.6C142.9,114.2,144.9,116.7,144.9,119.8z"/>
	<path class="st1" d="M146.8,104.6c4.8,0,8.7-0.5,12.3-2v34.9c0,1.3,0.8,2.6,3.9,2.6v0.3h-16.2v-0.3c3.1,0,3.9-1.3,3.9-2.6v-29.9
		c0-1.9-0.9-2.7-3.8-2.7V104.6z"/>
	<path class="st1" d="M184.3,118.3v0.4c-1.2-1.3-2.7-1.9-4.3-1.9c-2.6,0-5,1.2-5,10.5c0,9.3,2.6,11,5,11c1.6,0,3-0.8,4.3-1.8v0.3
		c-1.3,2.2-4.5,4.2-7.5,4.2c-4.9,0-10.6-2.9-10.6-13.7c0-10.3,5.6-13.1,10.6-13.1C179.8,114.2,183,116.2,184.3,118.3z M194.4,137
		c0,1.5,0.5,2.1,1.4,2.1c0.8,0,1.6-0.8,2.5-2.3h0.3c-0.8,2.8-3.6,4.2-6.7,4.2c-4.1,0-6-1.4-6-5.8v-27.5c0-1.9-0.9-2.7-3.8-2.7v-0.3
		c4.8,0,8-0.5,12.3-2V137z"/>
</g>
<g class="st0">
	<path class="st1" d="M231.2,140.2v0.3h-16.5v-0.3c3.1,0,3.9-1.2,3.9-2.6v-29.2c0-1.5-0.8-2.6-3.9-2.6v-0.3h12.6v32.1
		C227.3,138.9,228,140.2,231.2,140.2z M251.3,136.8c-0.8,2.8-3.9,4.2-7.6,4.2c-6.7,0-8.2-4.6-8.6-9c-0.3-4.2-0.7-7.5-5.3-8.2v-0.3
		c4.7,0,6.9-4.1,6.9-9.3c0-5.8-2.1-8.5-6.9-8.5v-0.3c10.5,0,15.6,2.3,15.6,8.8c0,5.6-4.1,9-11.8,9.4c9.4,0.4,10.8,4.1,11.3,8.3
		c0.5,4.2,1.6,7.1,3.4,7.1c0.9,0,1.8-0.8,2.6-2.3H251.3z"/>
</g>
<g class="st0">
	<path class="st1" d="M252.1,108.4c-0.9-2-2.1-2.7-4.6-2.7v-0.3h18.6v0.3c-2.4,0-4.5,1.5-3.2,4.2l9.7,20.5l-4.7,10.5h-0.6
		L252.1,108.4z M274.6,125.7c3-6.9,3.7-11.1,3.7-14.4c0-3.8-3.1-5.6-5.9-5.6v-0.3h14.8v0.2c-2.4,0-3.8,2.2-5.5,5.7l-7,14.8
		L274.6,125.7z"/>
</g>
<g class="st0">
	<path class="st1" d="M41.2,167.7c4.8,0,8.7-0.5,12.3-2V189c0,1.3,0.8,2.6,3.9,2.6v0.3H41.2v-0.3c3.1,0,3.9-1.3,3.9-2.6v-18.3
		c0-1.9-0.9-2.7-3.8-2.7V167.7z M43.8,158c0-2.7,2.2-4.5,5.3-4.5s5.3,1.8,5.3,4.5c0,2.7-2.2,4.5-5.3,4.5S43.8,160.7,43.8,158z"/>
	<path class="st1" d="M59.6,191.7c3.1,0,3.9-1.3,3.9-2.6v-18.3c0-1.9-0.9-2.7-3.8-2.7v-0.3c4.8,0,8.7-0.5,12.3-2V189
		c0,1.3,0.8,2.6,3.9,2.6v0.3H59.6V191.7z M77.7,191.7c3,0,3.8-1.3,3.8-2.6V173c0-2.9-1.5-4.4-4.1-4.4c-1.4,0-2.7,0.5-3.9,1.6v-0.3
		c1.4-2.2,4.7-4.2,8.6-4.2c4.6,0,7.9,2.2,7.9,7.3V189c0,1.3,0.8,2.6,3.9,2.6v0.3H77.7V191.7z"/>
	<path class="st1" d="M105.6,185.8c-1.7,0.1-2.9,1-2.9,2.6c0,1.5,1,3.4,4.6,3.8v0.3c-6.9-0.3-10.6-2.1-10.6-5.1
		c0-2.4,2.1-3.8,4.4-3.8C103.1,183.6,104.8,184.6,105.6,185.8z M107.3,166c-1.9,0.4-3.8,1.3-3.7,3.5c0.2,6,16.8,7,16.8,15.1
		c0,5-4.2,7.6-10.9,7.9v-0.3c2.2-0.4,4.6-1.1,4.6-3.8c0-5.4-16.9-7.3-16.9-15.1c0-4.5,4.3-7.3,10-7.5V166z M119.5,171
		c0,1.6-1.2,3.2-3.8,3.2c-2.2,0-3.7-0.9-4.4-2.5c1.5-0.1,2.4-1.2,2.3-2.4c0-1.5-2-3-4-3.3v-0.3C115.4,166,119.5,168.1,119.5,171z"/>
	<path class="st1" d="M135.6,185.2c0,2.9,1,4.4,3.6,4.4c1.3,0,2.4-0.4,3.6-1.6v0.3c-1.2,2.2-3.8,4.2-8,4.2c-4.6,0-7.6-2.2-7.6-7.3
		v-14.5c0-1.9-0.9-2.7-3.8-2.7v-0.3c4.8,0,8.7-0.5,12.3-2V185.2z M152.8,188.5c0,1.5,0.5,2.1,1.4,2.1c0.8,0,1.6-0.8,2.5-2.3h0.3
		c-0.8,2.8-3.6,4.2-7,4.2c-3.6,0-5.7-2.1-5.7-5v-16.7c0-1.9-0.9-2.7-3.7-2.7v-0.3c4.6,0,7.8-0.5,12.2-2V188.5z"/>
</g>
<g class="st0">
	<path class="st1" d="M171.4,189c0,1.3,0.8,2.6,3.9,2.6v0.3H159v-0.3c3.1,0,3.9-1.3,3.9-2.6v-18.3c0-1.9-0.9-2.7-3.8-2.7v-0.3
		c4.8,0,8.7-0.5,12.3-2V189z M185.3,171.3c0,3.6-2.5,5.9-5.3,5.9c-1.2,0-2.3-0.3-2.9-1.1c1-0.5,2-1.6,2-3.5c0-1.5-1.1-2.8-2.9-2.8
		c-1.3,0-2.4,0.8-3.1,2v-0.4c1-3.3,3.5-5.6,6.7-5.6C183.3,165.7,185.3,168.2,185.3,171.3z"/>
</g>
<g class="st0">
	<path class="st1" d="M187.5,185.9c0.1-4.5,4.1-7,9.9-7h5.6v0.3h-1.5c-3.7,0-5.5,2.4-5.5,5.6c0,2.8,0.8,5,3.2,5
		c1.4,0,2.6-0.8,3.8-1.8v0.3c-1.7,2-4.4,4.2-8.2,4.2C190.4,192.5,187.5,190,187.5,185.9z M189.6,171.3c0-2.6,2.4-5.3,9.4-5.6v0.3
		c-2.1,0.3-3.3,2-3.3,3.8c0,1.9,1.3,3,3.3,3.1c-0.8,1.4-2.9,2.5-4.9,2.5C191.2,175.4,189.6,173.5,189.6,171.3z M204.5,186.7v-15.8
		c0-2.5-1-4.5-3.5-4.9v-0.3c8.6,0.3,12,3.6,12,10.3v12.5c0,1.5,0.5,2.1,1.4,2.1c0.8,0,1.6-0.8,2.5-2.3h0.3c-0.8,2.8-3.6,4.2-6.7,4.2
		C206.4,192.5,204.5,191.1,204.5,186.7z"/>
	<path class="st1" d="M218.8,191.7c3.1,0,3.9-1.3,3.9-2.6v-18.3c0-1.9-0.9-2.7-3.8-2.7v-0.3c4.8,0,8.7-0.5,12.3-2V189
		c0,1.3,0.8,2.6,3.9,2.6v0.3h-16.2V191.7z M236.9,191.7c3,0,3.8-1.3,3.8-2.6V173c0-2.9-1.5-4.4-4.1-4.4c-1.4,0-2.7,0.5-3.9,1.6v-0.3
		c1.4-2.2,4.7-4.2,8.6-4.2c4.6,0,7.9,2.2,7.9,7.3V189c0,1.3,0.8,2.6,3.9,2.6v0.3h-16.2V191.7z"/>
	<path class="st1" d="M269,166c-3,0.4-4.4,2.9-4.4,12.8c0,7.4,3.8,11.5,8.3,11.5c2.9,0,5.1-0.8,7.5-2.7v0.3
		c-2.7,3.4-7.6,4.6-10.9,4.6c-6.6,0-13.8-4.8-13.8-13.5s7.2-13.2,13.2-13.3V166z M280.5,171.5c0,2.7-1.9,4.9-5.2,4.9
		c-2.5,0-4.2-1.6-4.5-3.2c1.4-0.6,2.5-2.4,2.5-3.8c0-1.2-0.3-3-2.2-3.4v-0.4C277.9,165.7,280.5,168.6,280.5,171.5z"/>
	<path class="st1" d="M284.3,179c0-8.7,6.6-13.2,12.6-13.3v0.3c-3,0.4-3.9,2.9-3.9,12.8c0,7.4,3.3,11.5,7.9,11.5
		c2.9,0,5.1-0.8,7.5-2.7v0.3c-2.7,3.4-7.6,4.6-10.9,4.6C291,192.5,284.3,187.7,284.3,179z M295.9,176.8c4.5,0,6.4-1.4,6.4-5.8
		c0-2.5-1-4.7-3.3-5v-0.3c6.8,0,10.1,4.8,10.1,8.8c0,0.8-0.1,1.9-0.3,2.7h-12.9V176.8z"/>
</g>
<rect x="2.3" y="0" class="st2" width="970" height="250"/>
</svg>
