<?xml version="1.0" encoding="utf-8"?>
<!-- Generator: Adobe Illustrator 24.0.3, SVG Export Plug-In . SVG Version: 6.00 Build 0)  -->
<svg version="1.1" id="Layer_1" xmlns="http://www.w3.org/2000/svg" xmlns:xlink="http://www.w3.org/1999/xlink" x="0px" y="0px"
	 viewBox="0 0 970 250" style="enable-background:new 0 0 970 250;" xml:space="preserve">
<style type="text/css">
	.st0{clip-path:url(#SVGID_2_);}
	.st1{enable-background:new    ;}
	.st2{fill:#FFFFFF;}
</style>
<title>Artboard 1 copy</title>
<g>
	<defs>
		<rect id="SVGID_1_" y="0" width="970" height="250"/>
	</defs>
	<clipPath id="SVGID_2_">
		<use xlink:href="#SVGID_1_"  style="overflow:visible;"/>
	</clipPath>
	<g class="st0">
		<g class="st1">
			<path class="st2" d="M46.4,84.6c3.1,0,3.9-1.2,3.9-2.6V52.9c0-1.4-0.8-2.6-3.9-2.6v-0.3H59V82c0,1.4,0.8,2.6,3.9,2.6v0.3H46.4
				V84.6z M61.6,50.2v-0.3h14.2v10.3h-0.4C72.9,52.9,69.4,50.7,61.6,50.2z M64.4,67.7l-2.8-0.3v-0.3l2.8-0.3c3-0.3,5.1-1.5,6.8-4.4
				h0.4v9.6h-0.4C69.5,69.1,67.4,68,64.4,67.7z"/>
		</g>
		<g class="st1">
			<path class="st2" d="M90.7,59c-3,0.4-4.1,2.9-4.1,13c0,9.7,1,12.9,4.1,13.2v0.3c-5.9,0-12.8-4.8-12.8-13.5s6.8-13.2,12.8-13.3V59
				z M105.5,72c0,8.6-6.9,13.5-12.8,13.5v-0.3c3-0.3,4-3.6,4-13.2c0-10.1-1-12.7-4-13v-0.3C98.7,58.7,105.5,63.3,105.5,72z"/>
		</g>
		<g class="st1">
			<path class="st2" d="M121.3,82c0,1.3,0.8,2.6,3.9,2.6v0.3h-16.2v-0.3c3.1,0,3.9-1.3,3.9-2.6V63.7c0-1.9-0.9-2.7-3.8-2.7v-0.3
				c4.8,0,8.7-0.5,12.3-2V82z M135.2,64.2c0,3.6-2.5,5.9-5.3,5.9c-1.2,0-2.3-0.3-2.9-1.1c1-0.5,2-1.6,2-3.5c0-1.5-1.1-2.8-2.9-2.8
				c-1.3,0-2.4,0.8-3.1,2v-0.4c1-3.3,3.5-5.6,6.7-5.6C133.3,58.7,135.2,61.2,135.2,64.2z"/>
		</g>
		<g class="st1">
			<path class="st2" d="M161.5,82c0,1.3,0.8,2.6,3.9,2.6v0.3h-16.2v-0.3c3.1,0,3.9-1.3,3.9-2.6V63.7c0-1.9-0.9-2.7-3.8-2.7v-0.3
				c4.8,0,8.7-0.5,12.3-2V82z M178.6,65.9V82c0,1.3,0.7,2.6,3.8,2.6v0.3h-16.2v-0.3c3,0,3.9-1.3,3.9-2.6V65.9c0-2.9-1.1-4.4-3.6-4.4
				c-1.4,0-2.7,0.7-3.4,1.5v-0.3c1.2-2.2,3.8-4.1,7.5-4.1C175.5,58.7,178.6,60.8,178.6,65.9z M195.6,65.9V82c0,1.3,0.8,2.6,3.9,2.6
				v0.3h-16.2v-0.3c3,0,3.9-1.3,3.9-2.6V65.9c0-2.9-1.1-4.4-3.6-4.4c-1.4,0-2.7,0.7-3.4,1.5v-0.3c1.2-2.2,3.8-4.1,7.5-4.1
				C192.5,58.7,195.6,60.8,195.6,65.9z"/>
			<path class="st2" d="M215.1,59c-3,0.4-4.1,2.9-4.1,13c0,9.7,1,12.9,4.1,13.2v0.3c-5.9,0-12.8-4.8-12.8-13.5s6.8-13.2,12.8-13.3
				V59z M229.9,72c0,8.6-6.9,13.5-12.8,13.5v-0.3c3-0.3,4-3.6,4-13.2c0-10.1-1-12.7-4-13v-0.3C223.1,58.7,229.9,63.3,229.9,72z"/>
		</g>
		<g class="st1">
			<path class="st2" d="M245.7,82c0,1.3,0.8,2.6,3.9,2.6v0.3h-16.2v-0.3c3.1,0,3.9-1.3,3.9-2.6V63.7c0-1.9-0.9-2.7-3.8-2.7v-0.3
				c4.8,0,8.7-0.5,12.3-2V82z M259.6,64.2c0,3.6-2.5,5.9-5.3,5.9c-1.2,0-2.3-0.3-2.9-1.1c1-0.5,2-1.6,2-3.5c0-1.5-1.1-2.8-2.9-2.8
				c-1.3,0-2.4,0.8-3.1,2v-0.4c1-3.3,3.5-5.6,6.7-5.6C257.7,58.7,259.6,61.2,259.6,64.2z"/>
		</g>
		<g class="st1">
			<path class="st2" d="M262.4,72c0-8.7,6.6-13.2,12.6-13.3V59c-3,0.4-3.9,2.9-3.9,12.8c0,7.4,3.3,11.5,7.9,11.5
				c2.9,0,5.1-0.8,7.5-2.7v0.3c-2.7,3.4-7.6,4.6-10.9,4.6C269,85.5,262.4,80.6,262.4,72z M274,69.8c4.5,0,6.4-1.4,6.4-5.8
				c0-2.5-1-4.7-3.3-5v-0.3c6.8,0,10.1,4.8,10.1,8.8c0,0.8-0.1,1.9-0.3,2.7H274V69.8z"/>
		</g>
		<g class="st1">
			<path class="st2" d="M46.3,123.5c0-8.7,6.6-13.2,12.6-13.3v0.3c-3,0.4-3.9,2.9-3.9,12.8c0,7.4,3.3,11.5,7.9,11.5
				c2.9,0,5.1-0.8,7.5-2.7v0.3c-2.7,3.4-7.6,4.6-10.9,4.6C52.9,137,46.3,132.1,46.3,123.5z M57.9,121.3c4.5,0,6.4-1.4,6.4-5.8
				c0-2.5-1-4.7-3.3-5v-0.3c6.8,0,10.1,4.8,10.1,8.8c0,0.8-0.1,1.9-0.3,2.7H57.9V121.3z"/>
		</g>
		<g class="st1">
			<path class="st2" d="M75.3,112.8c-0.5-1.1-1.2-1.8-2.8-1.8v-0.3h14.4v0.3c-1.8,0-2.5,1.2-1.6,3l6.7,14.1l-4.4,8.3h-0.3
				L75.3,112.8z M94.2,123.1c0.9-1.6,1.4-3.9,1.4-6.6c0-2.8-1.6-5.4-5.3-5.4v-0.3h12.8v0.3c-1.7,0-2.4,0.7-3.3,2.4l-5.4,10.1
				L94.2,123.1z"/>
		</g>
		<g class="st1">
			<path class="st2" d="M103.6,123.5c0-8.7,6.6-13.2,12.6-13.3v0.3c-3,0.4-3.9,2.9-3.9,12.8c0,7.4,3.3,11.5,7.9,11.5
				c2.9,0,5.1-0.8,7.5-2.7v0.3c-2.7,3.4-7.6,4.6-10.9,4.6C110.2,137,103.6,132.1,103.6,123.5z M115.2,121.3c4.5,0,6.4-1.4,6.4-5.8
				c0-2.5-1-4.7-3.3-5v-0.3c6.8,0,10.1,4.8,10.1,8.8c0,0.8-0.1,1.9-0.3,2.7h-12.9V121.3z"/>
			<path class="st2" d="M144,133.5c0,1.3,0.8,2.6,3.9,2.6v0.3h-16.2v-0.3c3.1,0,3.9-1.3,3.9-2.6v-18.3c0-1.9-0.9-2.7-3.8-2.7v-0.3
				c4.8,0,8.7-0.5,12.3-2V133.5z M157.9,115.8c0,3.6-2.5,5.9-5.3,5.9c-1.2,0-2.3-0.3-2.9-1.1c1-0.5,2-1.6,2-3.5
				c0-1.5-1.1-2.8-2.9-2.8c-1.3,0-2.4,0.8-3.1,2v-0.4c1-3.3,3.5-5.6,6.7-5.6C156,110.2,157.9,112.7,157.9,115.8z"/>
			<path class="st2" d="M161.4,112.8c-0.5-1.1-1.2-1.8-2.8-1.8v-0.3H173v0.3c-1.8,0-2.5,1.2-1.6,3l6.7,14.1l-4.4,8.3h-0.3
				L161.4,112.8z M159.2,144.8c0-2.2,1.8-4.1,4.5-4.8c-0.2,0.5-0.2,0.9-0.2,1.3c-0.1,2,1,3.5,3,3.5c1.8,0,3.2-1.9,5.2-5.2h0.4
				c-2.8,5.3-4.8,9.9-8.4,9.9C160.8,149.3,159.2,147.4,159.2,144.8z M180.3,123.1c0.9-1.6,1.4-3.9,1.4-6.6c0-2.8-1.6-5.4-5.3-5.4
				v-0.3h12.8v0.3c-1.7,0-2.4,0.7-3.3,2.4l-5.4,10.1L180.3,123.1z"/>
			<path class="st2" d="M209.5,132.5v0.3c-1.6,2.4-4.9,4.2-8.8,4.2c-4.6,0-7.9-2.1-7.9-7.3v-16.9h-2.7l0.6-0.8h2.1v-5.6
				c3.1,0,6.2-1,8.4-2.9v8.4h7l-0.6,0.8h-6.4v17.1c0,2.6,1,5.3,3.4,5.3C206,135.1,207.8,134.2,209.5,132.5z"/>
			<path class="st2" d="M222.8,133.5c0,1.3,0.8,2.6,3.9,2.6v0.3h-16.2v-0.3c3.1,0,3.9-1.3,3.9-2.6v-29.9c0-1.9-0.9-2.7-3.8-2.7v-0.3
				c4.8,0,8.7-0.5,12.3-2V133.5z M240.8,117.5v16.1c0,1.3,0.8,2.6,3.9,2.6v0.3h-16.2v-0.3c3,0,3.8-1.3,3.8-2.6v-16.1
				c0-2.9-1.5-4.4-4.1-4.4c-1.4,0-2.7,0.5-3.9,1.6v-0.3c1.4-2.2,4.7-4.2,8.6-4.2C237.5,110.2,240.8,112.4,240.8,117.5z"/>
			<path class="st2" d="M246.6,112.1c4.8,0,8.7-0.5,12.3-2v23.4c0,1.3,0.8,2.6,3.9,2.6v0.3h-16.2v-0.3c3.1,0,3.9-1.3,3.9-2.6v-18.3
				c0-1.9-0.9-2.7-3.8-2.7V112.1z M249.3,102.5c0-2.7,2.2-4.5,5.3-4.5s5.3,1.8,5.3,4.5c0,2.7-2.2,4.5-5.3,4.5
				S249.3,105.2,249.3,102.5z"/>
			<path class="st2" d="M265,136.2c3.1,0,3.9-1.3,3.9-2.6v-18.3c0-1.9-0.9-2.7-3.8-2.7v-0.3c4.8,0,8.7-0.5,12.3-2v23.3
				c0,1.3,0.8,2.6,3.9,2.6v0.3H265V136.2z M283.1,136.2c3,0,3.8-1.3,3.8-2.6v-16.1c0-2.9-1.5-4.4-4.1-4.4c-1.4,0-2.7,0.5-3.9,1.6
				v-0.3c1.4-2.2,4.7-4.2,8.6-4.2c4.6,0,7.9,2.2,7.9,7.3v16.1c0,1.3,0.8,2.6,3.9,2.6v0.3h-16.2V136.2z"/>
			<path class="st2" d="M302.3,119.5c0-6.7,6.3-9.2,11.5-9.3v0.3c-2.2,0.2-3.2,2.9-3.2,8.9c0,6.2,1,8.8,3.2,9v0.3
				C308.6,128.6,302.3,126.2,302.3,119.5z M316,149c5.2-0.6,6.8-3.4,6.8-5.3c0-7.2-20.1-0.8-20.1-10c0-2.1,1.1-3.8,3.5-5.3l0.2,0.3
				c-0.3,0.2-0.5,0.6-0.5,1c0,5.8,23.5-0.9,23.5,10.3c0,5.3-4.6,8.8-13.3,9.3V149z M302.7,144.7c0-3,3.8-4,7.8-4
				c-0.9,0.4-2.2,1.9-2.2,3.7c0,2.4,2.7,4.2,5.6,4.6v0.3C308.4,149.2,302.7,148.1,302.7,144.7z M316,128.3c2.5-0.2,3.6-2.7,3.6-9
				c0-6-1.1-8.7-3.6-8.9v-0.3c5.5,0.1,11.8,2.6,11.8,9.3c0,6.6-6.3,9.1-11.8,9.1V128.3z M318.8,109.3c0.9-2.6,3.2-6.2,6.8-6.2
				c2.7,0,4.4,1.4,4.4,3.9c0,2.5-2.2,4-4.2,4c0-2.2-1.1-3.5-2.8-3.5c-1.5,0-3.2,0.9-4,1.9L318.8,109.3z"/>
		</g>
		<g class="st1">
			<path class="st2" d="M65.4,184v0.3c-1.6,2.4-4.9,4.2-8.8,4.2c-4.6,0-7.9-2.1-7.9-7.3v-16.9h-2.7l0.6-0.8h2.1V158
				c3.1,0,6.2-1,8.4-2.9v8.4h7l-0.6,0.8h-6.4v17.1c0,2.6,1,5.3,3.4,5.3C61.9,186.6,63.7,185.7,65.4,184z"/>
			<path class="st2" d="M78.7,185c0,1.3,0.8,2.6,3.9,2.6v0.3H66.3v-0.3c3.1,0,3.9-1.3,3.9-2.6v-29.9c0-1.9-0.9-2.7-3.8-2.7v-0.3
				c4.8,0,8.7-0.5,12.3-2V185z M96.7,169V185c0,1.3,0.8,2.6,3.9,2.6v0.3H84.4v-0.3c3,0,3.8-1.3,3.8-2.6V169c0-2.9-1.5-4.4-4.1-4.4
				c-1.4,0-2.7,0.5-3.9,1.6v-0.3c1.4-2.2,4.7-4.2,8.6-4.2C93.4,161.7,96.7,163.9,96.7,169z"/>
			<path class="st2" d="M102.8,181.9c0.1-4.5,4.1-7,9.9-7h5.6v0.3h-1.5c-3.7,0-5.5,2.4-5.5,5.6c0,2.8,0.8,5,3.2,5
				c1.4,0,2.6-0.8,3.8-1.8v0.3c-1.7,2-4.4,4.2-8.2,4.2C105.7,188.5,102.8,186,102.8,181.9z M104.9,167.3c0-2.6,2.4-5.3,9.4-5.6v0.3
				c-2.1,0.3-3.3,2-3.3,3.8c0,1.9,1.3,3,3.3,3.1c-0.8,1.4-2.9,2.5-4.9,2.5C106.5,171.4,104.9,169.5,104.9,167.3z M119.8,182.7v-15.8
				c0-2.5-1-4.5-3.5-4.9v-0.3c8.6,0.3,12,3.6,12,10.3v12.5c0,1.5,0.5,2.1,1.4,2.1c0.8,0,1.6-0.8,2.5-2.3h0.3
				c-0.8,2.8-3.6,4.2-6.7,4.2C121.7,188.5,119.8,187,119.8,182.7z"/>
			<path class="st2" d="M134.1,187.7c3.1,0,3.9-1.3,3.9-2.6v-18.3c0-1.9-0.9-2.7-3.8-2.7v-0.3c4.8,0,8.7-0.5,12.3-2V185
				c0,1.3,0.8,2.6,3.9,2.6v0.3h-16.2V187.7z M152.2,187.7c3,0,3.8-1.3,3.8-2.6V169c0-2.9-1.5-4.4-4.1-4.4c-1.4,0-2.7,0.5-3.9,1.6
				v-0.3c1.4-2.2,4.7-4.2,8.6-4.2c4.6,0,7.9,2.2,7.9,7.3V185c0,1.3,0.8,2.6,3.9,2.6v0.3h-16.2V187.7z"/>
			<path class="st2" d="M183.7,181.9c0.1-4.5,4.1-7,9.9-7h5.6v0.3h-1.5c-3.7,0-5.5,2.4-5.5,5.6c0,2.8,0.8,5,3.2,5
				c1.4,0,2.6-0.8,3.8-1.8v0.3c-1.7,2-4.4,4.2-8.2,4.2C186.6,188.5,183.7,186,183.7,181.9z M185.8,167.3c0-2.6,2.4-5.3,9.4-5.6v0.3
				c-2.1,0.3-3.3,2-3.3,3.8c0,1.9,1.3,3,3.3,3.1c-0.8,1.4-2.9,2.5-4.9,2.5C187.4,171.4,185.8,169.5,185.8,167.3z M200.7,182.7v-15.8
				c0-2.5-1-4.5-3.5-4.9v-0.3c8.6,0.3,12,3.6,12,10.3v12.5c0,1.5,0.5,2.1,1.4,2.1c0.8,0,1.6-0.8,2.5-2.3h0.3
				c-0.8,2.8-3.6,4.2-6.7,4.2C202.6,188.5,200.7,187,200.7,182.7z"/>
		</g>
		<g class="st1">
			<path class="st2" d="M215,187.7c3.1,0,3.9-1.3,3.9-2.6v-18.3c0-1.9-0.9-2.7-3.8-2.7v-0.3c4.8,0,8.7-0.5,12.3-2V185
				c0,1.3,0.8,2.6,3.9,2.6v0.3H215V187.7z M233.1,187.7c3,0,3.8-1.3,3.8-2.6V169c0-2.9-1.5-4.4-4.1-4.4c-1.4,0-2.7,0.5-3.9,1.6v-0.3
				c1.4-2.2,4.7-4.2,8.6-4.2c4.6,0,7.9,2.2,7.9,7.3V185c0,1.3,0.8,2.6,3.9,2.6v0.3h-16.2V187.7z"/>
		</g>
		<g class="st1">
			<path class="st2" d="M251.3,164.3c-0.5-1.1-1.2-1.8-2.8-1.8v-0.3h14.4v0.3c-1.8,0-2.5,1.2-1.6,3l6.7,14.1l-4.4,8.3h-0.3
				L251.3,164.3z M249,196.3c0-2.2,1.8-4.1,4.5-4.8c-0.2,0.5-0.2,0.9-0.2,1.3c-0.1,2,1,3.5,3,3.5c1.8,0,3.2-1.9,5.2-5.2h0.4
				c-2.8,5.3-4.8,9.9-8.4,9.9C250.7,200.8,249,198.9,249,196.3z M270.2,174.6c0.9-1.6,1.4-3.9,1.4-6.6c0-2.8-1.6-5.4-5.3-5.4v-0.3
				h12.8v0.3c-1.7,0-2.4,0.7-3.3,2.4l-5.4,10.1L270.2,174.6z"/>
		</g>
		<g class="st1">
			<path class="st2" d="M292.3,162c-3,0.4-4.1,2.9-4.1,13c0,9.7,1,12.9,4.1,13.2v0.3c-5.9,0-12.8-4.8-12.8-13.5s6.8-13.2,12.8-13.3
				V162z M307.1,175c0,8.6-6.9,13.5-12.8,13.5v-0.3c3-0.3,4-3.6,4-13.2c0-10.1-1-12.7-4-13v-0.3C300.3,161.7,307.1,166.3,307.1,175z
				"/>
			<path class="st2" d="M310.5,187.7c3.1,0,3.9-1.3,3.9-2.6v-18.3c0-1.9-0.9-2.7-3.8-2.7v-0.3c4.8,0,8.7-0.5,12.3-2V185
				c0,1.3,0.8,2.6,3.9,2.6v0.3h-16.2V187.7z M328.6,187.7c3,0,3.8-1.3,3.8-2.6V169c0-2.9-1.5-4.4-4.1-4.4c-1.4,0-2.7,0.5-3.9,1.6
				v-0.3c1.4-2.2,4.7-4.2,8.6-4.2c4.6,0,7.9,2.2,7.9,7.3V185c0,1.3,0.8,2.6,3.9,2.6v0.3h-16.2V187.7z"/>
			<path class="st2" d="M347.6,175c0-8.7,6.6-13.2,12.6-13.3v0.3c-3,0.4-3.9,2.9-3.9,12.8c0,7.4,3.3,11.5,7.9,11.5
				c2.9,0,5.1-0.8,7.5-2.7v0.3c-2.7,3.4-7.6,4.6-10.9,4.6C354.2,188.5,347.6,183.6,347.6,175z M359.2,172.8c4.5,0,6.4-1.4,6.4-5.8
				c0-2.5-1-4.7-3.3-5v-0.3c6.8,0,10.1,4.8,10.1,8.8c0,0.8-0.1,1.9-0.3,2.7h-12.9V172.8z"/>
			<path class="st2" d="M389.7,175c0-8.7,6.6-13.2,12.6-13.3v0.3c-3,0.4-3.9,2.9-3.9,12.8c0,7.4,3.3,11.5,7.9,11.5
				c2.9,0,5.1-0.8,7.5-2.7v0.3c-2.7,3.4-7.6,4.6-10.9,4.6C396.3,188.5,389.7,183.6,389.7,175z M401.3,172.8c4.5,0,6.4-1.4,6.4-5.8
				c0-2.5-1-4.7-3.3-5v-0.3c6.8,0,10.1,4.8,10.1,8.8c0,0.8-0.1,1.9-0.3,2.7h-12.9V172.8z"/>
			<path class="st2" d="M417.5,152.1c4.8,0,8.7-0.5,12.3-2V185c0,1.3,0.8,2.6,3.9,2.6v0.3h-16.2v-0.3c3.1,0,3.9-1.3,3.9-2.6v-29.9
				c0-1.9-0.9-2.7-3.8-2.7V152.1z"/>
			<path class="st2" d="M445.7,181.8c-1.7,0.1-2.9,1-2.9,2.6c0,1.5,1,3.4,4.6,3.8v0.3c-6.9-0.3-10.6-2.1-10.6-5.1
				c0-2.4,2.1-3.8,4.4-3.8C443.2,179.6,444.9,180.6,445.7,181.8z M447.4,162c-1.9,0.4-3.8,1.3-3.7,3.5c0.2,6,16.8,7,16.8,15.1
				c0,5-4.2,7.6-10.9,7.9v-0.3c2.2-0.4,4.6-1.1,4.6-3.8c0-5.4-16.9-7.3-16.9-15.1c0-4.5,4.3-7.3,10-7.5V162z M459.6,167
				c0,1.6-1.2,3.2-3.8,3.2c-2.2,0-3.7-0.9-4.4-2.5c1.5-0.1,2.4-1.2,2.3-2.4c0-1.5-2-3-4-3.3v-0.3C455.5,162,459.6,164.1,459.6,167z"
				/>
			<path class="st2" d="M464.9,175c0-8.7,6.6-13.2,12.6-13.3v0.3c-3,0.4-3.9,2.9-3.9,12.8c0,7.4,3.3,11.5,7.9,11.5
				c2.9,0,5.1-0.8,7.5-2.7v0.3c-2.7,3.4-7.6,4.6-10.9,4.6C471.5,188.5,464.9,183.6,464.9,175z M476.5,172.8c4.5,0,6.4-1.4,6.4-5.8
				c0-2.5-1-4.7-3.3-5v-0.3c6.8,0,10.1,4.8,10.1,8.8c0,0.8-0.1,1.9-0.3,2.7h-12.9V172.8z"/>
		</g>
	</g>
</g>
</svg>
