<svg id="Layer_1" data-name="Layer 1" xmlns="http://www.w3.org/2000/svg" viewBox="0 0 970 250"><defs><style>.cls-1{fill:none;}.cls-2{fill:#263845;}</style></defs><title>Artboard 1 copy 6</title><rect class="cls-1" width="970" height="250"/><path class="cls-2" d="M66.38,113.66v.26H51.93v-.26c2.71,0,3.38-1.08,3.38-2.3V85.85c0-1.31-.67-2.25-3.38-2.25v-.27H63v28C63,112.58,63.63,113.66,66.38,113.66Zm17.55-2.93c-.72,2.47-3.38,3.64-6.66,3.64-5.85,0-7.2-4-7.47-7.83s-.63-6.56-4.59-7.15v-.27c4.14,0,6-3.6,6-8.1,0-5-1.84-7.42-6-7.42v-.27c9.13,0,13.63,2,13.63,7.69,0,4.86-3.6,7.83-10.3,8.24,8.19.36,9.45,3.55,9.9,7.28s1.44,6.21,3,6.21c.81,0,1.53-.67,2.25-2Z"/><path class="cls-2" d="M84.88,102.58A11.13,11.13,0,0,1,95.9,91v.27c-2.66.31-3.38,2.56-3.38,11.16,0,6.47,2.88,10,6.89,10a9.79,9.79,0,0,0,6.57-2.39v.28c-2.34,3-6.62,4-9.54,4A11.4,11.4,0,0,1,84.88,102.58ZM95,100.7c4,0,5.62-1.26,5.62-5,0-2.16-.9-4.14-2.92-4.41V91c5.94,0,8.82,4.23,8.82,7.64a12.91,12.91,0,0,1-.23,2.35H95Z"/><path class="cls-2" d="M109.76,108.62c0-3.92,3.6-6.13,8.64-6.13h4.86v.28h-1.35c-3.24,0-4.77,2.11-4.77,4.9,0,2.47.72,4.37,2.83,4.37a5,5,0,0,0,3.29-1.58v.27a9.58,9.58,0,0,1-7.16,3.64C112.28,114.37,109.71,112.21,109.76,108.62Zm1.8-12.74c0-2.29,2.07-4.63,8.19-4.9v.27a3.28,3.28,0,0,0-2.88,3.28c0,1.62,1.12,2.61,2.92,2.75a5,5,0,0,1-4.32,2.16A3.61,3.61,0,0,1,111.56,95.88Zm13,13.41V95.52c0-2.2-.86-4-3.06-4.27V91c7.47.27,10.44,3.1,10.44,9v10.93c0,1.3.45,1.84,1.26,1.84s1.44-.67,2.16-2h.27c-.72,2.47-3.15,3.64-5.85,3.64C126.23,114.37,124.61,113.12,124.61,109.29Z"/><path class="cls-2" d="M136.85,82.61a27.42,27.42,0,0,0,10.75-1.76v30.51c0,1.13.68,2.3,3.38,2.3v.26H136.8v-.26c2.7,0,3.38-1.17,3.38-2.3V85.26c0-1.62-.77-2.38-3.33-2.38Z"/><path class="cls-2" d="M172.53,94.35l5.9,12.28-3.87,7.29h-.27L163.85,93.27a2.44,2.44,0,0,0-2.48-1.57v-.27H174v.27C172.4,91.7,171.77,92.78,172.53,94.35Zm14.81,0,5.89,12.28-3.87,7.29h-.27l-7.06-14-1.44,2.7-.27-.4a6.76,6.76,0,0,0,.36-5l-2-4a2.43,2.43,0,0,0-2.47-1.57v-.27h12.6v.27C187.2,91.7,186.57,92.78,187.34,94.35ZM203,91.43v.27c-1.49,0-2.12.58-2.93,2.11l-4.68,8.82-.27-.4a12.3,12.3,0,0,0,1.26-5.81c0-2.47-1.39-4.72-4.59-4.72v-.27Z"/><path class="cls-2" d="M214.56,91.25c-2.65.31-3.55,2.56-3.55,11.33,0,8.46.9,11.25,3.55,11.52v.27a11.47,11.47,0,0,1-11.2-11.79A11.27,11.27,0,0,1,214.56,91Zm13,11.33a11.46,11.46,0,0,1-11.16,11.79v-.27c2.66-.27,3.51-3.1,3.51-11.52,0-8.81-.9-11.06-3.51-11.33V91A11.21,11.21,0,0,1,227.52,102.58Z"/><path class="cls-2" d="M241.29,111.36c0,1.13.68,2.3,3.38,2.3v.26H230.49v-.26c2.7,0,3.38-1.17,3.38-2.3v-16c0-1.62-.77-2.39-3.33-2.39v-.27A27.61,27.61,0,0,0,241.29,91Zm12.15-15.52a4.81,4.81,0,0,1-4.63,5.13,3.07,3.07,0,0,1-2.57-1A3.29,3.29,0,0,0,248,96.91a2.39,2.39,0,0,0-2.52-2.42,3.07,3.07,0,0,0-2.7,1.71v-.36c.85-2.88,3.06-4.86,5.85-4.86A4.57,4.57,0,0,1,253.44,95.84Z"/><path class="cls-2" d="M255.11,82.61a27.42,27.42,0,0,0,10.75-1.76v30.51c0,1.13.68,2.3,3.38,2.3v.26H255.06v-.26c2.7,0,3.38-1.17,3.38-2.3V85.26c0-1.62-.77-2.38-3.33-2.38Z"/><path class="cls-2" d="M287.91,94.58v.36a4.94,4.94,0,0,0-3.73-1.67c-2.25,0-4.41,1-4.41,9.18s2.29,9.59,4.41,9.59a6.2,6.2,0,0,0,3.73-1.58v.27a8.33,8.33,0,0,1-6.52,3.64c-4.28,0-9.27-2.52-9.27-11.92,0-9,4.9-11.47,9.27-11.47A8.3,8.3,0,0,1,287.91,94.58Zm8.78,16.33c0,1.3.4,1.84,1.21,1.84s1.44-.67,2.16-2h.27c-.72,2.47-3.15,3.64-5.85,3.64-3.6,0-5.22-1.25-5.22-5.08v-24c0-1.62-.76-2.38-3.33-2.38v-.27a29.41,29.41,0,0,0,10.76-1.76Z"/><path class="cls-2" d="M66.38,159.66v.26H51.93v-.26c2.71,0,3.38-1.08,3.38-2.3V131.85c0-1.31-.67-2.25-3.38-2.25v-.27H63v28C63,158.58,63.63,159.66,66.38,159.66Zm17.55-2.93c-.72,2.47-3.38,3.64-6.66,3.64-5.85,0-7.2-4-7.47-7.83s-.63-6.56-4.59-7.15v-.27c4.14,0,6-3.6,6-8.1,0-5-1.84-7.42-6-7.42v-.27c9.13,0,13.63,2,13.63,7.69,0,4.86-3.6,7.83-10.3,8.24,8.19.36,9.45,3.55,9.9,7.28s1.44,6.21,3,6.21c.81,0,1.53-.67,2.25-2Z"/><path class="cls-2" d="M84.65,131.94c-.81-1.76-1.85-2.34-4.05-2.34v-.27H96.84v.27c-2.07,0-3.91,1.35-2.79,3.69l8.51,17.91-4.1,9.17H98Zm19.62,15.12c2.61-6,3.19-9.72,3.19-12.56a4.92,4.92,0,0,0-5.13-4.9v-.27h13v.18c-2.07,0-3.33,1.93-4.77,5l-6.12,13Z"/><path class="cls-2" d="M125.1,138.69a27.48,27.48,0,0,0,10.76-1.76v20.43c0,1.13.67,2.3,3.37,2.3v.26H125.06v-.26c2.7,0,3.37-1.17,3.37-2.3v-16c0-1.62-.76-2.38-3.33-2.38Zm2.3-8.46c0-2.34,1.89-3.92,4.59-3.92s4.59,1.58,4.59,3.92-1.89,4-4.59,4S127.4,132.61,127.4,130.23Z"/><path class="cls-2" d="M141.12,159.66c2.7,0,3.38-1.17,3.38-2.3v-16c0-1.62-.77-2.39-3.33-2.39v-.27A27.61,27.61,0,0,0,151.92,137v20.38c0,1.13.68,2.3,3.38,2.3v.26H141.12Zm15.84,0c2.66,0,3.33-1.17,3.33-2.3v-14c0-2.52-1.3-3.82-3.55-3.82a4.79,4.79,0,0,0-3.42,1.39v-.27a9.18,9.18,0,0,1,7.47-3.64c4.05,0,6.93,1.89,6.93,6.34v14c0,1.13.67,2.3,3.37,2.3v.26H157Z"/><path class="cls-2" d="M181.35,154.57a2.31,2.31,0,0,0-2.52,2.25c0,1.3.9,3,4,3.28v.27c-6-.22-9.27-1.84-9.27-4.45,0-2.07,1.8-3.33,3.82-3.33A4.59,4.59,0,0,1,181.35,154.57Zm1.49-17.32c-1.67.31-3.29,1.17-3.24,3,.13,5.22,14.71,6.07,14.71,13.23,0,4.36-3.69,6.66-9.49,6.88v-.27c1.89-.31,4-1,4-3.32,0-4.69-14.76-6.4-14.76-13.23,0-4,3.74-6.35,8.78-6.57Zm10.62,4.36c0,1.4-1.08,2.79-3.33,2.79a3.87,3.87,0,0,1-3.83-2.16,2,2,0,0,0,2-2.11c0-1.35-1.71-2.66-3.51-2.88V137C189.9,137.25,193.46,139.09,193.46,141.61Z"/><path class="cls-2" d="M207.59,154c0,2.52.85,3.82,3.1,3.82a4,4,0,0,0,3.11-1.39v.27c-1,1.93-3.33,3.64-7,3.64-4,0-6.66-1.88-6.66-6.34V141.39c0-1.62-.76-2.39-3.33-2.39v-.27A27.66,27.66,0,0,0,207.59,137Zm15,2.88c0,1.3.41,1.84,1.22,1.84s1.44-.67,2.16-2h.27c-.72,2.47-3.15,3.64-6.12,3.64-3.15,0-4.95-1.79-4.95-4.41V141.39c0-1.62-.77-2.39-3.2-2.39v-.27A29.36,29.36,0,0,0,222.57,137Z"/><path class="cls-2" d="M238.82,157.36c0,1.13.67,2.3,3.37,2.3v.26H228v-.26c2.7,0,3.37-1.17,3.37-2.3v-16c0-1.62-.76-2.39-3.33-2.39v-.27A27.66,27.66,0,0,0,238.82,137ZM251,141.84a4.82,4.82,0,0,1-4.64,5.13,3,3,0,0,1-2.56-1,3.3,3.3,0,0,0,1.75-3.07,2.38,2.38,0,0,0-2.52-2.42,3.09,3.09,0,0,0-2.7,1.71v-.36c.86-2.88,3.06-4.86,5.85-4.86A4.57,4.57,0,0,1,251,141.84Z"/><path class="cls-2" d="M252.9,154.62c0-3.92,3.6-6.13,8.64-6.13h4.86v.28h-1.35c-3.24,0-4.77,2.11-4.77,4.9,0,2.47.72,4.37,2.84,4.37a4.93,4.93,0,0,0,3.28-1.58v.27a9.56,9.56,0,0,1-7.15,3.64C255.42,160.37,252.86,158.21,252.9,154.62Zm1.8-12.74c0-2.29,2.07-4.63,8.19-4.9v.27a3.28,3.28,0,0,0-2.88,3.28c0,1.62,1.13,2.61,2.93,2.75a5.06,5.06,0,0,1-4.32,2.16A3.61,3.61,0,0,1,254.7,141.88Zm13.05,13.41V141.52c0-2.2-.85-4-3.06-4.27V137c7.47.27,10.44,3.1,10.44,9v10.93c0,1.3.45,1.84,1.26,1.84s1.44-.67,2.16-2h.27c-.72,2.47-3.15,3.64-5.85,3.64C269.37,160.37,267.75,159.12,267.75,155.29Z"/><path class="cls-2" d="M280.22,159.66c2.7,0,3.37-1.17,3.37-2.3v-16c0-1.62-.76-2.39-3.33-2.39v-.27A27.66,27.66,0,0,0,291,137v20.38c0,1.13.67,2.3,3.37,2.3v.26H280.22Zm15.84,0c2.65,0,3.33-1.17,3.33-2.3v-14c0-2.52-1.31-3.82-3.56-3.82a4.79,4.79,0,0,0-3.42,1.39v-.27a9.19,9.19,0,0,1,7.47-3.64c4.05,0,6.93,1.89,6.93,6.34v14c0,1.13.68,2.3,3.38,2.3v.26H296.06Z"/><path class="cls-2" d="M324.14,137.25c-2.66.31-3.83,2.56-3.83,11.16,0,6.47,3.29,10,7.29,10a9.76,9.76,0,0,0,6.57-2.39v.28c-2.34,3-6.61,4-9.54,4-5.76,0-12-4.23-12-11.79A11.52,11.52,0,0,1,324.14,137Zm10,4.81a4.18,4.18,0,0,1-4.5,4.32,3.83,3.83,0,0,1-3.92-2.83,3.9,3.9,0,0,0,2.16-3.29c0-1-.27-2.65-1.93-3V137C331.83,137,334.13,139.5,334.13,142.06Z"/><path class="cls-2" d="M337.5,148.58a11.13,11.13,0,0,1,11-11.6v.27c-2.66.31-3.38,2.56-3.38,11.16,0,6.47,2.88,10,6.89,10a9.79,9.79,0,0,0,6.57-2.39v.28c-2.34,3-6.62,4-9.54,4A11.41,11.41,0,0,1,337.5,148.58Zm10.13-1.88c4,0,5.62-1.26,5.62-5,0-2.16-.9-4.14-2.92-4.41V137c5.94,0,8.82,4.23,8.82,7.64a12.91,12.91,0,0,1-.23,2.35H347.63Z"/></svg>