<svg id="Layer_1" data-name="Layer 1" xmlns="http://www.w3.org/2000/svg" viewBox="0 0 970 250"><defs><style>.cls-1{fill:#fff;}.cls-2{fill:none;}</style></defs><title>Artboard 1 copy</title><path class="cls-1" d="M51.94,86.66c2.69,0,3.37-1,3.37-2.3V58.89c0-1.26-.68-2.29-3.37-2.29v-.27H63v28c0,1.26.67,2.3,3.37,2.3v.26H51.94ZM65.21,56.6v-.27H77.58v9h-.36C75.15,58.94,72.05,57.05,65.21,56.6Zm2.47,15.3-2.47-.23V71.4l2.47-.22a6.93,6.93,0,0,0,5.94-3.87H74v8.36h-.36A6.81,6.81,0,0,0,67.68,71.9Z"/><path class="cls-1" d="M90.68,64.25c-2.66.31-3.56,2.56-3.56,11.33,0,8.46.9,11.25,3.56,11.52v.27A11.47,11.47,0,0,1,79.47,75.58,11.27,11.27,0,0,1,90.68,64Zm13,11.33A11.46,11.46,0,0,1,92.48,87.37V87.1C95.13,86.83,96,84,96,75.58c0-8.81-.9-11.06-3.51-11.33V64A11.21,11.21,0,0,1,103.64,75.58Z"/><path class="cls-1" d="M117.41,84.36c0,1.13.67,2.3,3.37,2.3v.26H106.61v-.26c2.7,0,3.37-1.17,3.37-2.3v-16c0-1.62-.76-2.39-3.33-2.39v-.27A27.66,27.66,0,0,0,117.41,64Zm12.15-15.52A4.82,4.82,0,0,1,124.92,74a3,3,0,0,1-2.56-1,3.3,3.3,0,0,0,1.75-3.07,2.38,2.38,0,0,0-2.52-2.42,3.09,3.09,0,0,0-2.7,1.71v-.36C119.75,66,122,64,124.74,64A4.57,4.57,0,0,1,129.56,68.84Z"/><path class="cls-1" d="M152.51,84.36c0,1.13.67,2.3,3.37,2.3v.26H141.71v-.26c2.7,0,3.37-1.17,3.37-2.3v-16c0-1.62-.76-2.39-3.33-2.39v-.27A27.66,27.66,0,0,0,152.51,64Zm14.94-14v14c0,1.13.63,2.3,3.33,2.3v.26H156.65v-.26c2.65,0,3.37-1.17,3.37-2.3v-14c0-2.52-1-3.82-3.15-3.82a4,4,0,0,0-3,1.35v-.27a7.29,7.29,0,0,1,6.57-3.6C164.75,64,167.45,65.87,167.45,70.32Zm14.89,0v14c0,1.13.68,2.3,3.38,2.3v.26H171.54v-.26c2.66,0,3.38-1.17,3.38-2.3v-14c0-2.52-1-3.82-3.15-3.82a3.94,3.94,0,0,0-3,1.35v-.27a7.27,7.27,0,0,1,6.57-3.6C179.64,64,182.34,65.87,182.34,70.32Z"/><path class="cls-1" d="M199.35,64.25c-2.65.31-3.55,2.56-3.55,11.33,0,8.46.9,11.25,3.55,11.52v.27a11.47,11.47,0,0,1-11.2-11.79A11.27,11.27,0,0,1,199.35,64Zm13,11.33a11.46,11.46,0,0,1-11.16,11.79V87.1c2.66-.27,3.51-3.1,3.51-11.52,0-8.81-.9-11.06-3.51-11.33V64A11.21,11.21,0,0,1,212.31,75.58Z"/><path class="cls-1" d="M226.08,84.36c0,1.13.68,2.3,3.38,2.3v.26H215.28v-.26c2.7,0,3.38-1.17,3.38-2.3v-16c0-1.62-.77-2.39-3.33-2.39v-.27A27.61,27.61,0,0,0,226.08,64Zm12.15-15.52A4.81,4.81,0,0,1,233.6,74,3.07,3.07,0,0,1,231,73a3.29,3.29,0,0,0,1.76-3.07,2.39,2.39,0,0,0-2.52-2.42,3.07,3.07,0,0,0-2.7,1.71v-.36c.85-2.88,3.06-4.86,5.85-4.86A4.57,4.57,0,0,1,238.23,68.84Z"/><path class="cls-1" d="M240.66,75.58a11.13,11.13,0,0,1,11-11.6v.27c-2.66.31-3.38,2.56-3.38,11.16,0,6.47,2.88,10,6.89,10a9.79,9.79,0,0,0,6.57-2.39v.28c-2.34,3-6.62,4-9.54,4A11.41,11.41,0,0,1,240.66,75.58Zm10.13-1.88c4,0,5.62-1.26,5.62-5,0-2.16-.9-4.14-2.92-4.41V64c5.94,0,8.82,4.23,8.82,7.64a12.91,12.91,0,0,1-.23,2.35H250.79Z"/><path class="cls-1" d="M51.89,125.58a11.13,11.13,0,0,1,11-11.6v.27c-2.65.31-3.37,2.56-3.37,11.16,0,6.47,2.88,10,6.88,10A9.76,9.76,0,0,0,73,133.05v.28c-2.34,3-6.61,4-9.54,4A11.4,11.4,0,0,1,51.89,125.58ZM62,123.7c4,0,5.63-1.26,5.63-5,0-2.16-.9-4.14-2.93-4.41V114c5.94,0,8.82,4.23,8.82,7.64a13.87,13.87,0,0,1-.22,2.35H62Z"/><path class="cls-1" d="M77.23,116.27a2.45,2.45,0,0,0-2.48-1.57v-.27h12.6v.27c-1.58,0-2.21,1.08-1.44,2.65l5.89,12.28-3.87,7.29h-.27Zm16.46,9A12.3,12.3,0,0,0,95,119.42c0-2.47-1.39-4.72-4.59-4.72v-.27h11.21v.27c-1.49,0-2.07.58-2.93,2.11L94,125.63Z"/><path class="cls-1" d="M101.93,125.58A11.13,11.13,0,0,1,113,114v.27c-2.65.31-3.37,2.56-3.37,11.16,0,6.47,2.88,10,6.88,10a9.76,9.76,0,0,0,6.57-2.39v.28c-2.34,3-6.61,4-9.54,4A11.4,11.4,0,0,1,101.93,125.58Zm10.12-1.88c4,0,5.63-1.26,5.63-5,0-2.16-.9-4.14-2.93-4.41V114c5.94,0,8.82,4.23,8.82,7.64a13.87,13.87,0,0,1-.22,2.35h-11.3Z"/><path class="cls-1" d="M137.25,134.36c0,1.13.68,2.3,3.38,2.3v.26H126.45v-.26c2.7,0,3.38-1.17,3.38-2.3v-16c0-1.62-.77-2.39-3.33-2.39v-.27A27.61,27.61,0,0,0,137.25,114Zm12.15-15.52a4.81,4.81,0,0,1-4.63,5.13,3.07,3.07,0,0,1-2.57-1,3.29,3.29,0,0,0,1.76-3.07,2.39,2.39,0,0,0-2.52-2.42,3.07,3.07,0,0,0-2.7,1.71v-.36c.85-2.88,3.06-4.86,5.85-4.86A4.57,4.57,0,0,1,149.4,118.84Z"/><path class="cls-1" d="M152.46,116.27A2.43,2.43,0,0,0,150,114.7v-.27h12.6v.27c-1.58,0-2.21,1.08-1.44,2.65L167,129.63l-3.87,7.29h-.27Zm-2,27.9c0-1.94,1.53-3.56,4-4.23a3.58,3.58,0,0,0-.18,1.12c0,1.71.9,3,2.66,3,1.57,0,2.83-1.67,4.54-4.54h.32c-2.48,4.63-4.19,8.63-7.34,8.63A3.74,3.74,0,0,1,150.48,144.17Zm18.45-18.94a12.3,12.3,0,0,0,1.26-5.81c0-2.47-1.39-4.72-4.59-4.72v-.27h11.21v.27c-1.49,0-2.07.58-2.93,2.11l-4.68,8.82Z"/><path class="cls-1" d="M194.45,133.46v.27a9.41,9.41,0,0,1-7.7,3.64c-4.05,0-6.93-1.84-6.93-6.34V116.27h-2.34l.5-.67h1.84v-4.86a11.38,11.38,0,0,0,7.38-2.52v7.38h6.08l-.5.67H187.2v14.89c0,2.25.86,4.59,3,4.59A6.62,6.62,0,0,0,194.45,133.46Z"/><path class="cls-1" d="M206.06,134.36c0,1.13.67,2.3,3.37,2.3v.26H195.26v-.26c2.7,0,3.37-1.17,3.37-2.3v-26.1c0-1.62-.76-2.38-3.33-2.38v-.27a27.48,27.48,0,0,0,10.76-1.76Zm15.75-14v14c0,1.13.67,2.3,3.37,2.3v.26H211.05v-.26c2.66,0,3.33-1.17,3.33-2.3v-14c0-2.52-1.3-3.82-3.55-3.82a4.79,4.79,0,0,0-3.42,1.39v-.27a9.18,9.18,0,0,1,7.47-3.64C218.93,114,221.81,115.87,221.81,120.32Z"/><path class="cls-1" d="M226.89,115.69a27.48,27.48,0,0,0,10.76-1.76v20.43c0,1.13.67,2.3,3.37,2.3v.26H226.85v-.26c2.7,0,3.37-1.17,3.37-2.3v-16c0-1.62-.76-2.38-3.33-2.38Zm2.3-8.46c0-2.34,1.89-3.92,4.59-3.92s4.59,1.58,4.59,3.92-1.89,4-4.59,4S229.19,109.61,229.19,107.23Z"/><path class="cls-1" d="M242.91,136.66c2.7,0,3.38-1.17,3.38-2.3v-16c0-1.62-.77-2.39-3.33-2.39v-.27A27.61,27.61,0,0,0,253.71,114v20.38c0,1.13.68,2.3,3.38,2.3v.26H242.91Zm15.84,0c2.66,0,3.33-1.17,3.33-2.3v-14c0-2.52-1.3-3.82-3.55-3.82a4.79,4.79,0,0,0-3.42,1.39v-.27a9.18,9.18,0,0,1,7.47-3.64c4.05,0,6.93,1.89,6.93,6.34v14c0,1.13.67,2.3,3.37,2.3v.26H258.75Z"/><path class="cls-1" d="M275.54,122.12c0-5.85,5.49-8.05,10.08-8.14v.27c-1.94.18-2.84,2.52-2.84,7.74,0,5.44.9,7.64,2.84,7.83v.26C281.07,130.08,275.54,127.92,275.54,122.12Zm12,25.78c4.5-.54,5.94-3,5.94-4.59,0-6.25-17.55-.67-17.55-8.73,0-1.84.94-3.28,3-4.58l.14.22a1.05,1.05,0,0,0-.41.86c0,5,20.52-.82,20.52,9,0,4.64-4,7.65-11.65,8.1Zm-11.61-3.78c0-2.65,3.28-3.46,6.84-3.46a3.78,3.78,0,0,0-1.94,3.19c0,2.07,2.34,3.65,4.91,4.05v.27C280.89,148.08,275.9,147.09,275.9,144.12Zm11.61-14.3c2.2-.19,3.1-2.39,3.1-7.83,0-5.22-.94-7.56-3.1-7.74V114c4.77.09,10.3,2.29,10.3,8.14s-5.53,8-10.3,8Zm2.43-16.65c.76-2.3,2.83-5.4,5.94-5.4,2.38,0,3.82,1.26,3.82,3.42a3.59,3.59,0,0,1-3.64,3.51c0-1.89-1-3-2.43-3a4.89,4.89,0,0,0-3.47,1.62Z"/><path class="cls-1" d="M68.54,183.46v.27a9.41,9.41,0,0,1-7.7,3.64c-4.05,0-6.93-1.84-6.93-6.34V166.27H51.57l.5-.67h1.84v-4.86a11.38,11.38,0,0,0,7.38-2.52v7.38h6.08l-.5.67H61.29v14.89c0,2.25.86,4.59,3,4.59A6.62,6.62,0,0,0,68.54,183.46Z"/><path class="cls-1" d="M80.15,184.36c0,1.13.67,2.3,3.37,2.3v.26H69.35v-.26c2.7,0,3.37-1.17,3.37-2.3v-26.1c0-1.62-.76-2.38-3.33-2.38v-.27a27.48,27.48,0,0,0,10.76-1.76Zm15.75-14v14c0,1.13.67,2.3,3.37,2.3v.26H85.14v-.26c2.66,0,3.33-1.17,3.33-2.3v-14c0-2.52-1.3-3.82-3.55-3.82a4.79,4.79,0,0,0-3.42,1.39v-.27A9.18,9.18,0,0,1,89,164C93,164,95.9,165.87,95.9,170.32Z"/><path class="cls-1" d="M101.25,181.62c0-3.92,3.6-6.12,8.64-6.12h4.86v.27H113.4c-3.24,0-4.77,2.11-4.77,4.9,0,2.47.72,4.37,2.84,4.37a4.93,4.93,0,0,0,3.28-1.58v.27a9.56,9.56,0,0,1-7.15,3.64C103.77,187.37,101.21,185.21,101.25,181.62Zm1.8-12.74c0-2.29,2.07-4.63,8.19-4.9v.27a3.28,3.28,0,0,0-2.88,3.28c0,1.62,1.13,2.61,2.93,2.75a5.06,5.06,0,0,1-4.32,2.16A3.61,3.61,0,0,1,103.05,168.88Zm13,13.41V168.52c0-2.2-.85-4-3.06-4.27V164c7.47.27,10.44,3.1,10.44,9v10.93c0,1.3.45,1.84,1.26,1.84s1.44-.67,2.16-2h.27c-.72,2.48-3.15,3.64-5.85,3.64C117.72,187.37,116.1,186.12,116.1,182.29Z"/><path class="cls-1" d="M128.57,186.66c2.7,0,3.37-1.17,3.37-2.3v-16c0-1.62-.76-2.39-3.33-2.39v-.27A27.66,27.66,0,0,0,139.37,164v20.38c0,1.13.67,2.3,3.37,2.3v.26H128.57Zm15.84,0c2.65,0,3.33-1.17,3.33-2.3v-14c0-2.52-1.31-3.82-3.56-3.82a4.79,4.79,0,0,0-3.42,1.39v-.27a9.19,9.19,0,0,1,7.47-3.64c4.05,0,6.93,1.89,6.93,6.34v14c0,1.13.68,2.3,3.38,2.3v.26H144.41Z"/><path class="cls-1" d="M172,181.62c0-3.92,3.6-6.12,8.64-6.12h4.86v.27H184.1c-3.24,0-4.77,2.11-4.77,4.9,0,2.47.72,4.37,2.83,4.37a5,5,0,0,0,3.29-1.58v.27a9.58,9.58,0,0,1-7.16,3.64C174.47,187.37,171.9,185.21,172,181.62Zm1.8-12.74c0-2.29,2.07-4.63,8.19-4.9v.27a3.28,3.28,0,0,0-2.88,3.28c0,1.62,1.12,2.61,2.92,2.75a5,5,0,0,1-4.32,2.16A3.61,3.61,0,0,1,173.75,168.88Zm13.05,13.41V168.52c0-2.2-.86-4-3.06-4.27V164c7.47.27,10.44,3.1,10.44,9v10.93c0,1.3.45,1.84,1.26,1.84s1.44-.67,2.16-2h.27c-.72,2.48-3.15,3.64-5.85,3.64C188.42,187.37,186.8,186.12,186.8,182.29Z"/><path class="cls-1" d="M199.26,186.66c2.7,0,3.38-1.17,3.38-2.3v-16c0-1.62-.77-2.39-3.33-2.39v-.27A27.61,27.61,0,0,0,210.06,164v20.38c0,1.13.68,2.3,3.38,2.3v.26H199.26Zm15.84,0c2.66,0,3.33-1.17,3.33-2.3v-14c0-2.52-1.3-3.82-3.55-3.82a4.79,4.79,0,0,0-3.42,1.39v-.27a9.18,9.18,0,0,1,7.47-3.64c4,0,6.93,1.89,6.93,6.34v14c0,1.13.67,2.3,3.37,2.3v.26H215.1Z"/><path class="cls-1" d="M231,166.27a2.44,2.44,0,0,0-2.48-1.57v-.27h12.6v.27c-1.57,0-2.2,1.08-1.44,2.65l5.9,12.28-3.87,7.29h-.27Zm-2,27.9c0-1.94,1.53-3.56,4-4.23a3.31,3.31,0,0,0-.18,1.12c0,1.71.9,3,2.65,3,1.58,0,2.84-1.67,4.55-4.54h.31c-2.47,4.63-4.18,8.63-7.33,8.63A3.74,3.74,0,0,1,229,194.17Zm18.45-18.94a12.42,12.42,0,0,0,1.26-5.81c0-2.47-1.4-4.72-4.59-4.72v-.27h11.2v.27c-1.48,0-2.07.58-2.92,2.11l-4.68,8.82Z"/><path class="cls-1" d="M266.76,164.25c-2.65.31-3.55,2.56-3.55,11.33,0,8.46.9,11.25,3.55,11.52v.27a11.47,11.47,0,0,1-11.2-11.79,11.27,11.27,0,0,1,11.2-11.6Zm13,11.33a11.46,11.46,0,0,1-11.16,11.79v-.27c2.66-.27,3.51-3.1,3.51-11.52,0-8.81-.9-11.06-3.51-11.33V164A11.21,11.21,0,0,1,279.72,175.58Z"/><path class="cls-1" d="M282.69,186.66c2.7,0,3.38-1.17,3.38-2.3v-16c0-1.62-.77-2.39-3.33-2.39v-.27A27.61,27.61,0,0,0,293.49,164v20.38c0,1.13.68,2.3,3.38,2.3v.26H282.69Zm15.84,0c2.66,0,3.33-1.17,3.33-2.3v-14c0-2.52-1.3-3.82-3.55-3.82a4.79,4.79,0,0,0-3.42,1.39v-.27a9.18,9.18,0,0,1,7.47-3.64c4.05,0,6.93,1.89,6.93,6.34v14c0,1.13.67,2.3,3.37,2.3v.26H298.53Z"/><path class="cls-1" d="M315.09,175.58a11.13,11.13,0,0,1,11-11.6v.27c-2.66.31-3.38,2.56-3.38,11.16,0,6.47,2.88,10,6.89,10a9.79,9.79,0,0,0,6.57-2.39v.28c-2.34,3-6.62,4-9.54,4A11.41,11.41,0,0,1,315.09,175.58Zm10.13-1.88c4,0,5.62-1.26,5.62-5,0-2.16-.9-4.14-2.92-4.41V164c5.94,0,8.82,4.23,8.82,7.64a12.91,12.91,0,0,1-.23,2.35H325.22Z"/><path class="cls-1" d="M351.86,175.58a11.13,11.13,0,0,1,11-11.6v.27c-2.65.31-3.37,2.56-3.37,11.16,0,6.47,2.88,10,6.88,10a9.76,9.76,0,0,0,6.57-2.39v.28c-2.34,3-6.61,4-9.54,4A11.4,11.4,0,0,1,351.86,175.58ZM362,173.7c4,0,5.63-1.26,5.63-5,0-2.16-.9-4.14-2.93-4.41V164c5.94,0,8.82,4.23,8.82,7.64a13.87,13.87,0,0,1-.22,2.35H362Z"/><path class="cls-1" d="M376.16,155.61a27.42,27.42,0,0,0,10.75-1.76v30.51c0,1.13.68,2.3,3.38,2.3v.26H376.11v-.26c2.7,0,3.38-1.17,3.38-2.3v-26.1c0-1.62-.77-2.38-3.33-2.38Z"/><path class="cls-1" d="M400.82,181.57a2.3,2.3,0,0,0-2.52,2.25c0,1.3.9,3,4,3.28v.27c-6-.22-9.27-1.84-9.27-4.45,0-2.07,1.8-3.33,3.83-3.33A4.6,4.6,0,0,1,400.82,181.57Zm1.48-17.32c-1.66.31-3.28,1.17-3.24,3,.14,5.22,14.71,6.07,14.71,13.23,0,4.36-3.68,6.66-9.49,6.88v-.27c1.89-.31,4-1,4-3.32,0-4.69-14.76-6.4-14.76-13.23,0-4,3.73-6.35,8.77-6.57Zm10.62,4.36c0,1.4-1.08,2.79-3.33,2.79a3.85,3.85,0,0,1-3.82-2.16,2,2,0,0,0,2-2.11c0-1.35-1.71-2.66-3.51-2.88V164C409.37,164.25,412.92,166.09,412.92,168.61Z"/><path class="cls-1" d="M417.56,175.58a11.13,11.13,0,0,1,11-11.6v.27c-2.65.31-3.37,2.56-3.37,11.16,0,6.47,2.88,10,6.88,10a9.79,9.79,0,0,0,6.57-2.39v.28c-2.34,3-6.62,4-9.54,4A11.4,11.4,0,0,1,417.56,175.58Zm10.12-1.88c4,0,5.62-1.26,5.62-5,0-2.16-.9-4.14-2.92-4.41V164c5.94,0,8.82,4.23,8.82,7.64A12.91,12.91,0,0,1,439,174H427.68Z"/><rect class="cls-2" width="970" height="250"/></svg>