<?xml version="1.0" encoding="utf-8"?>
<!-- Generator: Adobe Illustrator 24.0.3, SVG Export Plug-In . SVG Version: 6.00 Build 0)  -->
<svg version="1.1" id="Layer_1" xmlns="http://www.w3.org/2000/svg" xmlns:xlink="http://www.w3.org/1999/xlink" x="0px" y="0px"
	 viewBox="0 0 970 250" style="enable-background:new 0 0 970 250;" xml:space="preserve">
<style type="text/css">
	.st0{clip-path:url(#SVGID_2_);}
	.st1{enable-background:new    ;}
	.st2{fill:#FFFFFF;}
</style>
<title>Artboard 1 copy 3</title>
<g>
	<defs>
		<rect id="SVGID_1_" y="0" width="970" height="250"/>
	</defs>
	<clipPath id="SVGID_2_">
		<use xlink:href="#SVGID_1_"  style="overflow:visible;"/>
	</clipPath>
	<g class="st0">
		<g class="st1">
			<path class="st2" d="M77.7,84.8l0.2,0.4c-2.7,4.3-7.4,6.2-12.4,6.2c-8.4,0-18.9-6-18.9-18c0-13,10.2-17.9,17.6-18.1v0.3
				c-3.6,0.8-7.5,4.2-7.5,17.4c0,13.1,5.3,16.3,11.1,16.3C72.5,89.4,75.9,87,77.7,84.8z M78.1,55.4v12.5h-0.4
				c-2-6.9-5.8-10.8-10.9-12.2v-0.3c4.5,0.2,7.2,1,9.3,2.4l1.5-2.4H78.1z"/>
			<path class="st2" d="M93.6,88c0,1.3,0.8,2.6,3.9,2.6V91H81.3v-0.3c3.1,0,3.9-1.3,3.9-2.6V58.1c0-1.9-0.9-2.7-3.8-2.7v-0.3
				c4.8,0,8.7-0.5,12.3-2V88z M111.7,72V88c0,1.3,0.8,2.6,3.9,2.6V91H99.4v-0.3c3,0,3.8-1.3,3.8-2.6V72c0-2.9-1.5-4.4-4.1-4.4
				c-1.4,0-2.7,0.5-3.9,1.6v-0.3c1.4-2.2,4.7-4.2,8.6-4.2C108.4,64.7,111.7,66.9,111.7,72z"/>
			<path class="st2" d="M131.1,65c-3,0.4-4.1,2.9-4.1,13c0,9.7,1,12.9,4.1,13.2v0.3c-5.9,0-12.8-4.8-12.8-13.5s6.8-13.2,12.8-13.3
				V65z M146,78c0,8.6-6.9,13.5-12.8,13.5v-0.3c3-0.3,4-3.6,4-13.2c0-10.1-1-12.7-4-13v-0.3C139.2,64.7,146,69.3,146,78z"/>
			<path class="st2" d="M163.1,65c-3,0.4-4.1,2.9-4.1,13c0,9.7,1,12.9,4.1,13.2v0.3c-5.9,0-12.8-4.8-12.8-13.5s6.8-13.2,12.8-13.3
				V65z M178,78c0,8.6-6.9,13.5-12.8,13.5v-0.3c3-0.3,4-3.6,4-13.2c0-10.1-1-12.7-4-13v-0.3C171.2,64.7,178,69.3,178,78z"/>
			<path class="st2" d="M191.3,84.8c-1.7,0.1-2.9,1-2.9,2.6c0,1.5,1,3.4,4.6,3.8v0.3c-6.9-0.3-10.6-2.1-10.6-5.1
				c0-2.4,2.1-3.8,4.4-3.8C188.8,82.6,190.5,83.5,191.3,84.8z M193,65c-1.9,0.4-3.8,1.3-3.7,3.5c0.2,6,16.8,7,16.8,15.1
				c0,5-4.2,7.6-10.9,7.9v-0.3c2.2-0.4,4.6-1.1,4.6-3.8c0-5.4-16.9-7.3-16.9-15.1c0-4.5,4.3-7.3,10-7.5V65z M205.1,70
				c0,1.6-1.2,3.2-3.8,3.2c-2.2,0-3.7-0.9-4.4-2.5c1.5-0.1,2.4-1.2,2.3-2.4c0-1.5-2-3-4-3.3v-0.3C201,65,205.1,67.1,205.1,70z"/>
			<path class="st2" d="M210.4,78c0-8.7,6.6-13.2,12.6-13.3V65c-3,0.4-3.9,2.9-3.9,12.8c0,7.4,3.3,11.5,7.9,11.5
				c2.9,0,5.1-0.8,7.5-2.7v0.3c-2.7,3.4-7.6,4.6-10.9,4.6C217.1,91.5,210.4,86.6,210.4,78z M222,75.8c4.5,0,6.4-1.4,6.4-5.8
				c0-2.5-1-4.7-3.3-5v-0.3c6.8,0,10.1,4.8,10.1,8.8c0,0.8-0.1,1.9-0.3,2.7H222V75.8z"/>
		</g>
		<g class="st1">
			<path class="st2" d="M265.6,91.2v0.3c-4.1-0.1-7.3-0.9-10-2.5l-1.7,2.5h-0.4V78.9h0.4C255.6,84.7,259.3,89.1,265.6,91.2z
				 M280.8,80.9c0,6.6-4.9,10.3-12.9,10.6v-0.3c2.8-0.5,5.6-2.2,5.6-5.3c0-9-19.7-9.8-19.7-20.3c0-6.2,5-9.7,11.8-10.2v0.3
				c-2.4,0.4-4.5,1.9-4.5,4.7C261.1,69.5,280.8,70.5,280.8,80.9z M267.9,55.7v-0.3c3.9,0.2,6.9,1,9.3,2.7l1.9-2.7h0.4v11.5H279
				C277.3,61.4,272.9,57,267.9,55.7z"/>
		</g>
		<g class="st1">
			<path class="st2" d="M304.3,87v0.3c-1.6,2.4-4.9,4.2-8.8,4.2c-4.6,0-7.9-2.1-7.9-7.3V67.3h-2.7l0.6-0.8h2.1V61
				c3.1,0,6.2-1,8.4-2.9v8.4h7l-0.6,0.8H296v17.1c0,2.6,1,5.3,3.4,5.3C300.8,89.6,302.6,88.7,304.3,87z"/>
			<path class="st2" d="M305.9,84.9c0.1-4.5,4.1-7,9.9-7h5.6v0.3h-1.5c-3.7,0-5.5,2.4-5.5,5.6c0,2.8,0.8,5,3.2,5
				c1.4,0,2.6-0.8,3.8-1.8v0.3c-1.7,2-4.4,4.2-8.2,4.2C308.8,91.5,305.9,89,305.9,84.9z M308,70.3c0-2.6,2.4-5.3,9.4-5.6V65
				c-2.1,0.3-3.3,2-3.3,3.8c0,1.9,1.3,3,3.3,3.1c-0.8,1.4-2.9,2.5-4.9,2.5C309.6,74.4,308,72.5,308,70.3z M322.9,85.7V69.9
				c0-2.5-1-4.5-3.5-4.9v-0.3c8.6,0.3,12,3.6,12,10.3v12.5c0,1.5,0.5,2.1,1.4,2.1c0.8,0,1.6-0.8,2.5-2.3h0.3
				c-0.8,2.8-3.6,4.2-6.7,4.2C324.8,91.5,322.9,90,322.9,85.7z"/>
		</g>
		<g class="st1">
			<path class="st2" d="M349.5,88c0,1.3,0.8,2.6,3.9,2.6V91h-16.2v-0.3c3.1,0,3.9-1.3,3.9-2.6V69.7c0-1.9-0.9-2.7-3.8-2.7v-0.3
				c4.8,0,8.7-0.5,12.3-2V88z M363.5,70.3c0,3.6-2.5,5.9-5.3,5.9c-1.2,0-2.3-0.3-2.9-1.1c1-0.5,2-1.6,2-3.5c0-1.5-1.1-2.8-2.9-2.8
				c-1.3,0-2.4,0.8-3.1,2v-0.4c1-3.3,3.5-5.6,6.7-5.6C361.5,64.7,363.5,67.2,363.5,70.3z"/>
		</g>
		<g class="st1">
			<path class="st2" d="M77.7,136.3l0.2,0.4c-2.7,4.3-7.4,6.2-12.4,6.2c-8.4,0-18.9-6-18.9-18c0-13,10.2-17.9,17.6-18.1v0.3
				c-3.6,0.8-7.5,4.2-7.5,17.4c0,13.1,5.3,16.3,11.1,16.3C72.5,140.9,75.9,138.6,77.7,136.3z M78.1,106.9v12.5h-0.4
				c-2-6.9-5.8-10.8-10.9-12.2v-0.3c4.5,0.2,7.2,1,9.3,2.4l1.5-2.4H78.1z"/>
			<path class="st2" d="M82,136.4c0.1-4.5,4.1-7,9.9-7h5.6v0.3h-1.5c-3.7,0-5.5,2.4-5.5,5.6c0,2.8,0.8,5,3.2,5
				c1.4,0,2.6-0.8,3.8-1.8v0.3c-1.7,2-4.4,4.2-8.2,4.2C84.9,143,81.9,140.5,82,136.4z M84.1,121.8c0-2.6,2.4-5.3,9.4-5.6v0.3
				c-2.1,0.3-3.3,2-3.3,3.8c0,1.9,1.3,3,3.3,3.1c-0.8,1.4-2.9,2.5-4.9,2.5C85.7,125.9,84.1,124,84.1,121.8z M99,137.2v-15.8
				c0-2.5-1-4.5-3.5-4.9v-0.3c8.6,0.3,12,3.6,12,10.3V139c0,1.5,0.5,2.1,1.4,2.1c0.8,0,1.6-0.8,2.5-2.3h0.3
				c-0.8,2.8-3.6,4.2-6.7,4.2C100.9,143,99,141.5,99,137.2z"/>
			<path class="st2" d="M125.6,139.5c0,1.3,0.8,2.6,3.9,2.6v0.3h-16.2v-0.3c3.1,0,3.9-1.3,3.9-2.6v-18.3c0-1.9-0.9-2.7-3.8-2.7v-0.3
				c4.8,0,8.7-0.5,12.3-2V139.5z M142.7,123.5v16.1c0,1.3,0.7,2.6,3.8,2.6v0.3h-16.2v-0.3c3,0,3.9-1.3,3.9-2.6v-16.1
				c0-2.9-1.1-4.4-3.6-4.4c-1.4,0-2.7,0.7-3.4,1.5v-0.3c1.2-2.2,3.8-4.1,7.5-4.1C139.6,116.2,142.7,118.4,142.7,123.5z M159.8,123.5
				v16.1c0,1.3,0.8,2.6,3.9,2.6v0.3h-16.2v-0.3c3,0,3.9-1.3,3.9-2.6v-16.1c0-2.9-1.1-4.4-3.6-4.4c-1.4,0-2.7,0.7-3.4,1.5v-0.3
				c1.2-2.2,3.8-4.1,7.5-4.1C156.7,116.2,159.8,118.4,159.8,123.5z"/>
			<path class="st2" d="M177.4,150.3c0,1.9,0.9,2.7,3.8,2.7v0.3c-4.8,0-8,0.5-12.3,2v-34.2c0-1.9-0.9-2.7-3.8-2.7v-0.3
				c4.8,0,8-0.5,12.3-2V150.3z M197,129.3c0,10.8-5.7,13.7-10.6,13.7c-2.9,0-6.2-2-7.5-4.2v-0.3c1.3,1,2.7,1.8,4.3,1.8
				c2.4,0,5-1.7,5-11c0-9.3-2.4-10.5-5-10.5c-1.6,0-3.1,0.6-4.3,1.9v-0.4c1.3-2.2,4.6-4.1,7.5-4.1C191.5,116.2,197,119.1,197,129.3z
				"/>
			<path class="st2" d="M201.6,129.5c0-8.7,6.6-13.2,12.6-13.3v0.3c-3,0.4-3.9,2.9-3.9,12.8c0,7.4,3.3,11.5,7.9,11.5
				c2.9,0,5.1-0.8,7.5-2.7v0.3c-2.7,3.4-7.6,4.6-10.9,4.6C208.2,143,201.6,138.1,201.6,129.5z M213.1,127.3c4.5,0,6.4-1.4,6.4-5.8
				c0-2.5-1-4.7-3.3-5v-0.3c6.8,0,10.1,4.8,10.1,8.8c0,0.8-0.1,1.9-0.3,2.7h-12.9V127.3z"/>
			<path class="st2" d="M242,139.5c0,1.3,0.8,2.6,3.9,2.6v0.3h-16.2v-0.3c3.1,0,3.9-1.3,3.9-2.6v-18.3c0-1.9-0.9-2.7-3.8-2.7v-0.3
				c4.8,0,8.7-0.5,12.3-2V139.5z M255.9,121.8c0,3.6-2.5,5.9-5.3,5.9c-1.2,0-2.3-0.3-2.9-1.1c1-0.5,2-1.6,2-3.5
				c0-1.5-1.1-2.8-2.9-2.8c-1.3,0-2.4,0.8-3.1,2v-0.4c1-3.3,3.5-5.6,6.7-5.6C253.9,116.2,255.9,118.7,255.9,121.8z"/>
			<path class="st2" d="M290.4,136.3l0.2,0.4c-2.7,4.3-7.4,6.2-12.4,6.2c-8.4,0-18.9-6-18.9-18c0-13,10.2-17.9,17.6-18.1v0.3
				c-3.6,0.8-7.5,4.2-7.5,17.4c0,13.1,5.3,16.3,11.1,16.3C285.2,140.9,288.6,138.6,290.4,136.3z M290.8,106.9v12.5h-0.4
				c-2-6.9-5.8-10.8-10.9-12.2v-0.3c4.5,0.2,7.2,1,9.3,2.4l1.5-2.4H290.8z"/>
			<path class="st2" d="M294.7,136.4c0.1-4.5,4.1-7,9.9-7h5.6v0.3h-1.5c-3.7,0-5.5,2.4-5.5,5.6c0,2.8,0.8,5,3.2,5
				c1.4,0,2.6-0.8,3.8-1.8v0.3c-1.7,2-4.4,4.2-8.2,4.2C297.6,143,294.6,140.5,294.7,136.4z M296.7,121.8c0-2.6,2.4-5.3,9.4-5.6v0.3
				c-2.1,0.3-3.3,2-3.3,3.8c0,1.9,1.3,3,3.3,3.1c-0.8,1.4-2.9,2.5-4.9,2.5C298.4,125.9,296.7,124,296.7,121.8z M311.7,137.2v-15.8
				c0-2.5-1-4.5-3.5-4.9v-0.3c8.6,0.3,12,3.6,12,10.3V139c0,1.5,0.5,2.1,1.4,2.1c0.8,0,1.6-0.8,2.5-2.3h0.3
				c-0.8,2.8-3.6,4.2-6.7,4.2C313.5,143,311.7,141.5,311.7,137.2z"/>
		</g>
		<g class="st1">
			<path class="st2" d="M338.3,139.5c0,1.3,0.8,2.6,3.9,2.6v0.3H326v-0.3c3.1,0,3.9-1.3,3.9-2.6v-18.3c0-1.9-0.9-2.7-3.8-2.7v-0.3
				c4.8,0,8.7-0.5,12.3-2V139.5z M352.2,121.8c0,3.6-2.5,5.9-5.3,5.9c-1.2,0-2.3-0.3-2.9-1.1c1-0.5,2-1.6,2-3.5
				c0-1.5-1.1-2.8-2.9-2.8c-1.3,0-2.4,0.8-3.1,2v-0.4c1-3.3,3.5-5.6,6.7-5.6C350.3,116.2,352.2,118.7,352.2,121.8z"/>
		</g>
		<g class="st1">
			<path class="st2" d="M355,129.5c0-8.7,6.6-13.2,12.6-13.3v0.3c-3,0.4-3.9,2.9-3.9,12.8c0,7.4,3.3,11.5,7.9,11.5
				c2.9,0,5.1-0.8,7.5-2.7v0.3c-2.7,3.4-7.6,4.6-10.9,4.6C361.7,143,355,138.1,355,129.5z M366.6,127.3c4.5,0,6.4-1.4,6.4-5.8
				c0-2.5-1-4.7-3.3-5v-0.3c6.8,0,10.1,4.8,10.1,8.8c0,0.8-0.1,1.9-0.3,2.7h-12.9V127.3z"/>
		</g>
	</g>
</g>
</svg>
