<svg id="Layer_1" data-name="Layer 1" xmlns="http://www.w3.org/2000/svg" viewBox="0 0 320 600"><defs><style>.cls-1{fill:#74503e;}.cls-2{fill:#fff;}.cls-3{fill:none;}</style></defs><title>Artboard 1 copy</title><path class="cls-1" d="M27.26,229.71v48.63a17.35,17.35,0,0,0,9.35,15.4l72.89,37.81a21.67,21.67,0,0,0,20,0l72.88-37.81a17.34,17.34,0,0,0,9.36-15.4V229.71a8.1,8.1,0,0,0-8.1-8.09H35.36A8.1,8.1,0,0,0,27.26,229.71Z"/><path class="cls-2" d="M109.69,256.32l.33-.48c.24-.33.49-.34.87-.13a3.72,3.72,0,0,0,2.16.78c1,0,1.59-.5,1.59-1.22,0-2-5-1.6-5-4.92,0-1.88,1.56-3.09,3.59-3.09a4.93,4.93,0,0,1,2.74.81.58.58,0,0,1,.2.85l-.27.5c-.23.43-.54.37-.86.21a3.42,3.42,0,0,0-1.84-.59c-1,0-1.62.48-1.62,1.2,0,2,5,1.49,5,4.88,0,1.73-1.3,3.15-3.53,3.15a5.58,5.58,0,0,1-3.27-1.08A.56.56,0,0,1,109.69,256.32Z"/><path class="cls-2" d="M120.87,249.1H118a.55.55,0,0,1-.63-.61v-.42a.56.56,0,0,1,.63-.63h7.66a.55.55,0,0,1,.61.63v.42a.54.54,0,0,1-.61.61h-2.87v8.36a.56.56,0,0,1-.63.63h-.68a.55.55,0,0,1-.61-.63Z"/><path class="cls-2" d="M128.81,248a.67.67,0,0,1,.7-.51h1a.67.67,0,0,1,.71.51l3.33,9.42c.15.44,0,.72-.51.72h-.69a.67.67,0,0,1-.71-.51l-.75-2.22h-3.73l-.74,2.21a.66.66,0,0,1-.71.52H126c-.46,0-.66-.28-.51-.72Zm2.56,5.84-.94-2.86c-.18-.6-.42-1.65-.42-1.65h0s-.24,1.05-.42,1.65l-1,2.86Z"/><path class="cls-2" d="M135.86,248.07a.55.55,0,0,1,.61-.63h2.88a5,5,0,0,1,2,.28,3,3,0,0,1,1.79,2.91,3.08,3.08,0,0,1-1.78,2.92v0a3.27,3.27,0,0,1,.35.55l1.76,3.21c.25.44.06.75-.44.75h-.81a.76.76,0,0,1-.74-.43l-1.87-3.54h-1.86v3.34a.55.55,0,0,1-.62.63h-.69a.55.55,0,0,1-.61-.63Zm3.66,4.37a1.57,1.57,0,0,0,1.68-1.7,1.44,1.44,0,0,0-.84-1.46,2.7,2.7,0,0,0-1.16-.18h-1.42v3.34Z"/><path class="cls-2" d="M110.39,261.09a.33.33,0,0,1,.36-.38h.32a.34.34,0,0,1,.36.38v9.8a.33.33,0,0,1-.36.37h-.32a.33.33,0,0,1-.36-.37Z"/><path class="cls-2" d="M113.92,264.09a.35.35,0,0,1,.38-.38h.27a.34.34,0,0,1,.36.38V265a2.48,2.48,0,0,1-.06.54h0a3.35,3.35,0,0,1,3-2c1.87,0,2.53,1.07,2.53,2.93v4.43a.33.33,0,0,1-.37.37h-.29a.33.33,0,0,1-.36-.37v-4.16c0-1.18-.19-2.23-1.65-2.23a2.92,2.92,0,0,0-2.86,3.07v3.32a.33.33,0,0,1-.37.37h-.28a.34.34,0,0,1-.38-.37Z"/><path class="cls-2" d="M122.11,270.06l.12-.15c.13-.18.3-.19.51-.06a3.23,3.23,0,0,0,2,.69c.84,0,1.53-.42,1.53-1.21,0-1.7-4-1.19-4-3.68,0-1.4,1.18-2.12,2.56-2.12a3.43,3.43,0,0,1,2.07.62.33.33,0,0,1,.11.5l-.11.16a.33.33,0,0,1-.51.11,2.76,2.76,0,0,0-1.62-.48c-.79,0-1.48.34-1.48,1.17,0,1.74,4,1.18,4,3.7a2.27,2.27,0,0,1-2.55,2.13,3.9,3.9,0,0,1-2.55-.87A.33.33,0,0,1,122.11,270.06Z"/><path class="cls-2" d="M128.78,264.09a.33.33,0,0,1,.36-.38h.29a.34.34,0,0,1,.37.38v4.16c0,1.18.18,2.23,1.64,2.23a2.92,2.92,0,0,0,2.79-3.15v-3.24a.35.35,0,0,1,.38-.38h.28a.33.33,0,0,1,.36.38v6.8a.33.33,0,0,1-.36.37h-.27a.33.33,0,0,1-.36-.37V270a3,3,0,0,1,.05-.54h0a3.29,3.29,0,0,1-3,2c-1.79,0-2.53-1-2.53-2.92Z"/><path class="cls-2" d="M137.47,264.09a.34.34,0,0,1,.37-.38h.27a.34.34,0,0,1,.36.38v1a3.08,3.08,0,0,1-.06.6h0a2.7,2.7,0,0,1,2.43-2c.27,0,.39.12.39.36v.27a.37.37,0,0,1-.42.38c-1.59,0-2.35,1.81-2.35,3.39v2.82a.33.33,0,0,1-.36.37h-.29a.33.33,0,0,1-.37-.37Z"/><path class="cls-2" d="M146.46,266.64h.44v-.24a1.7,1.7,0,0,0-1.87-1.95,3.55,3.55,0,0,0-1.83.53.36.36,0,0,1-.51-.12l-.09-.15a.35.35,0,0,1,.11-.52,4.6,4.6,0,0,1,2.4-.66,2.57,2.57,0,0,1,2.81,2.9v4.46a.33.33,0,0,1-.36.37h-.24a.34.34,0,0,1-.38-.37v-.6a2.83,2.83,0,0,1,.05-.57h0a2.83,2.83,0,0,1-2.56,1.72,2.32,2.32,0,0,1-2.55-2.2C141.85,266.78,145,266.64,146.46,266.64Zm-1.88,3.95c1.46,0,2.32-1.5,2.32-2.82v-.36h-.42c-1.19,0-3.58,0-3.58,1.74A1.52,1.52,0,0,0,144.58,270.59Z"/><path class="cls-2" d="M150.06,264.09a.34.34,0,0,1,.37-.38h.27a.34.34,0,0,1,.36.38V265a2.48,2.48,0,0,1-.06.54h0a3.35,3.35,0,0,1,3.05-2c1.88,0,2.54,1.07,2.54,2.93v4.43a.34.34,0,0,1-.38.37H156a.33.33,0,0,1-.36-.37v-4.16c0-1.18-.2-2.23-1.65-2.23a2.93,2.93,0,0,0-2.87,3.07v3.32a.33.33,0,0,1-.36.37h-.29a.33.33,0,0,1-.37-.37Z"/><path class="cls-2" d="M162.26,263.53a4,4,0,0,1,2.51.86.33.33,0,0,1,0,.51l-.11.17c-.13.21-.3.21-.51.07a3.15,3.15,0,0,0-1.91-.69,3,3,0,0,0,0,6.08,3.3,3.3,0,0,0,2.13-.8.3.3,0,0,1,.5.09l.1.15a.36.36,0,0,1-.09.51,4.17,4.17,0,0,1-2.69,1,3.81,3.81,0,0,1-4-3.94A3.85,3.85,0,0,1,162.26,263.53Z"/><path class="cls-2" d="M169.7,263.53c2,0,3.15,1.46,3.15,3.61a.37.37,0,0,1-.39.37H167a2.87,2.87,0,0,0,2.92,3,3.21,3.21,0,0,0,2-.69.31.31,0,0,1,.5.09l.12.18a.35.35,0,0,1-.11.49,4.27,4.27,0,0,1-2.52.84A3.81,3.81,0,0,1,166,267.5,3.69,3.69,0,0,1,169.7,263.53Zm2.11,3.22a2.17,2.17,0,0,0-2.14-2.37,2.6,2.6,0,0,0-2.6,2.37Z"/><path class="cls-2" d="M110.15,275.42a.56.56,0,0,1,.62-.63h5.13a.57.57,0,0,1,.63.63v.42a.56.56,0,0,1-.63.62h-3.83v2.79h3a.55.55,0,0,1,.63.61v.42a.56.56,0,0,1-.63.64h-3v2.86h4.07a.56.56,0,0,1,.63.62v.42a.56.56,0,0,1-.63.63h-5.37a.55.55,0,0,1-.62-.63Z"/><path class="cls-2" d="M118.14,278.42a.56.56,0,0,1,.61-.63h.59a.57.57,0,0,1,.62.63v.47a2.43,2.43,0,0,1,0,.34h0a3,3,0,0,1,2.71-1.62c1.7,0,2.67.89,2.67,2.92v4.29a.56.56,0,0,1-.63.63h-.64a.56.56,0,0,1-.63-.63v-3.9c0-.94-.24-1.57-1.2-1.57a2.3,2.3,0,0,0-2.21,2.51v3a.55.55,0,0,1-.62.63h-.66a.55.55,0,0,1-.61-.63Z"/><path class="cls-2" d="M127.38,279.41H127a.55.55,0,0,1-.62-.63v-.25a.56.56,0,0,1,.64-.63h.43v-1.56a.57.57,0,0,1,.63-.63h.6a.57.57,0,0,1,.63.63v1.56h1.11a.57.57,0,0,1,.63.63v.25a.55.55,0,0,1-.61.63h-1.13v3a1.25,1.25,0,0,0,1.23,1.42c.47.05.63.2.63.62v.46c0,.45-.25.63-.78.63a2.73,2.73,0,0,1-3-2.8Z"/><path class="cls-2" d="M132.38,275.42a.57.57,0,0,1,.63-.63h.64a.57.57,0,0,1,.63.63v3.09a4.91,4.91,0,0,1,0,.65h0a3,3,0,0,1,2.65-1.55c1.7,0,2.68.89,2.68,2.92v4.29a.57.57,0,0,1-.63.63h-.65a.56.56,0,0,1-.63-.63v-3.9c0-.94-.24-1.57-1.2-1.57a2.28,2.28,0,0,0-2.21,2.54v2.93a.56.56,0,0,1-.63.63H133a.56.56,0,0,1-.63-.63Z"/><path class="cls-2" d="M141.32,278.42a.57.57,0,0,1,.63-.63h.64a.57.57,0,0,1,.63.63v3.91c0,.93.24,1.56,1.19,1.56a2.31,2.31,0,0,0,2.15-2.58v-2.89a.57.57,0,0,1,.63-.63h.64a.57.57,0,0,1,.63.63v6.4a.56.56,0,0,1-.63.63h-.58a.55.55,0,0,1-.62-.63v-.45a2.29,2.29,0,0,1,0-.35h0a3,3,0,0,1-2.66,1.61c-1.63,0-2.65-.83-2.65-2.91Z"/><path class="cls-2" d="M150,284l.18-.27c.23-.31.48-.34.86-.15a3.38,3.38,0,0,0,1.71.53c.66,0,1.06-.3,1.06-.78,0-1.25-3.79-.78-3.79-3.41,0-1.5,1.32-2.3,2.92-2.3a4.19,4.19,0,0,1,2.13.56.56.56,0,0,1,.23.84l-.15.27c-.18.36-.47.4-.84.24a3.43,3.43,0,0,0-1.46-.38c-.66,0-1,.27-1,.75,0,1.27,3.8.77,3.8,3.38,0,1.35-1.15,2.36-2.92,2.36a4.53,4.53,0,0,1-2.55-.78A.55.55,0,0,1,150,284Z"/><path class="cls-2" d="M157.05,275.87v-.45a.56.56,0,0,1,.61-.63h.66a.57.57,0,0,1,.63.63v.45a.56.56,0,0,1-.63.62h-.66A.55.55,0,0,1,157.05,275.87Zm0,2.55a.56.56,0,0,1,.61-.63h.66a.56.56,0,0,1,.62.63v6.4a.55.55,0,0,1-.62.63h-.66a.55.55,0,0,1-.61-.63Z"/><path class="cls-2" d="M164.72,280.72H165v-.18a1.25,1.25,0,0,0-1.43-1.35,3.5,3.5,0,0,0-1.59.43c-.38.17-.66.11-.84-.25l-.15-.29a.56.56,0,0,1,.24-.84,5.46,5.46,0,0,1,2.51-.63,2.84,2.84,0,0,1,3.16,3.05v4.16a.56.56,0,0,1-.63.63h-.51a.55.55,0,0,1-.61-.63v-.3a1.5,1.5,0,0,1,0-.33h0a2.79,2.79,0,0,1-2.41,1.44,2.35,2.35,0,0,1-2.53-2.3C160.25,281.1,163,280.72,164.72,280.72Zm-1.43,3.45a1.94,1.94,0,0,0,1.76-2v-.28h-.31c-1,0-2.6.15-2.6,1.29A1,1,0,0,0,163.29,284.17Z"/><path class="cls-2" d="M168.38,284l.18-.27c.22-.31.48-.34.85-.15a3.39,3.39,0,0,0,1.72.53c.66,0,1.06-.3,1.06-.78,0-1.25-3.8-.78-3.8-3.41,0-1.5,1.32-2.3,2.93-2.3a4.19,4.19,0,0,1,2.13.56.57.57,0,0,1,.23.84l-.15.27c-.18.36-.47.4-.84.24a3.43,3.43,0,0,0-1.46-.38c-.66,0-1,.27-1,.75,0,1.27,3.8.77,3.8,3.38,0,1.35-1.14,2.36-2.91,2.36a4.5,4.5,0,0,1-2.55-.78A.54.54,0,0,1,168.38,284Z"/><path class="cls-2" d="M175.77,279.41h-.41a.55.55,0,0,1-.61-.63v-.25a.56.56,0,0,1,.63-.63h.43v-1.56a.57.57,0,0,1,.63-.63h.6a.57.57,0,0,1,.63.63v1.56h1.12a.57.57,0,0,1,.63.63v.25a.56.56,0,0,1-.62.63h-1.13v3a1.25,1.25,0,0,0,1.24,1.42c.46.05.63.2.63.62v.46c0,.45-.26.63-.78.63a2.74,2.74,0,0,1-3-2.8Z"/><path class="cls-2" d="M74.2,280.66a1.07,1.07,0,0,1-.49-.12,1.06,1.06,0,0,1-.52-1.27l11.11-34.2a2.33,2.33,0,0,1,2.26-1.63h0a2.33,2.33,0,0,1,2.25,1.64l2.25,6.77a.8.8,0,1,1-1.52.51l-2.26-6.78a.74.74,0,0,0-.72-.54h0a.75.75,0,0,0-.73.53l-10,30.93,14.16-19.37a4.41,4.41,0,0,1,3.55-1.81h9.43a2.37,2.37,0,0,1,1.39,4.3l-8.62,6.26a.34.34,0,0,1-.09.08l3.34,10.25a2.38,2.38,0,0,1-3.66,2.65l-7.45-5.42a2.37,2.37,0,0,1,0-3.84l6.25-4.53.1-.08,9.19-6.68a.72.72,0,0,0,.27-.85.74.74,0,0,0-.72-.53H93.49a2.78,2.78,0,0,0-2.25,1.15L75.05,280.23A1.07,1.07,0,0,1,74.2,280.66Zm20-13.71-5.46,4a.77.77,0,0,0-.31.61.75.75,0,0,0,.32.62l7.45,5.42a.76.76,0,0,0,1.17-.86Z"/><path class="cls-2" d="M74.77,263.66a.79.79,0,0,1-.46-.15l-5.5-3.89a2.37,2.37,0,0,1,1.38-4.3h6.75a.81.81,0,0,1,0,1.61H70.19a.77.77,0,0,0-.45,1.38l5.5,3.89a.8.8,0,0,1,.19,1.12A.82.82,0,0,1,74.77,263.66Z"/><path class="cls-2" d="M82.26,292a2.57,2.57,0,0,1-1.29-.34l-14-8a.8.8,0,0,1-.41-.7V265.85a.81.81,0,0,1,1.61,0v16.68l13.64,7.74a1,1,0,0,0,1,0l10-6.24a.8.8,0,0,1,.86,1.36l-10,6.24A2.6,2.6,0,0,1,82.26,292Z"/><rect class="cls-3" width="320" height="600"/></svg>