<?xml version="1.0" encoding="utf-8"?>
<!-- Generator: Adobe Illustrator 24.0.3, SVG Export Plug-In . SVG Version: 6.00 Build 0)  -->
<svg version="1.1" id="Layer_1" xmlns="http://www.w3.org/2000/svg" xmlns:xlink="http://www.w3.org/1999/xlink" x="0px" y="0px"
	 viewBox="0 0 320 480" style="enable-background:new 0 0 320 480;" xml:space="preserve">
<style type="text/css">
	.st0{enable-background:new    ;}
	.st1{fill:#FFFFFF;}
	.st2{fill:none;}
</style>
<title>Artboard 1 copy 2</title>
<g class="st0">
	<path class="st1" d="M22.9,39.6c3.8,0,6.9-0.4,9.8-1.6v18.6c0,1,0.6,2.1,3.1,2.1V59H22.9v-0.2c2.5,0,3.1-1.1,3.1-2.1V42.1
		c0-1.5-0.7-2.2-3-2.2V39.6z M25,31.9c0-2.1,1.7-3.6,4.2-3.6c2.5,0,4.2,1.4,4.2,3.6c0,2.2-1.7,3.6-4.2,3.6
		C26.8,35.5,25,34.1,25,31.9z"/>
	<path class="st1" d="M45.4,54.1c-1.4,0-2.3,0.8-2.3,2.1c0,1.2,0.8,2.7,3.7,3v0.2c-5.5-0.2-8.5-1.7-8.5-4.1c0-1.9,1.6-3,3.5-3
		C43.5,52.3,44.8,53.1,45.4,54.1z M46.8,38.3c-1.5,0.3-3,1.1-3,2.8c0.1,4.8,13.4,5.5,13.4,12.1c0,4-3.4,6.1-8.7,6.3v-0.2
		c1.7-0.3,3.7-0.9,3.7-3c0-4.3-13.5-5.8-13.5-12.1c0-3.6,3.4-5.8,8-6V38.3z M56.5,42.3c0,1.3-1,2.5-3,2.5c-1.7,0-3-0.7-3.5-2
		c1.2-0.1,1.9-0.9,1.8-1.9c0-1.2-1.6-2.4-3.2-2.6v-0.2C53.2,38.3,56.5,40,56.5,42.3z"/>
	<path class="st1" d="M71.1,48.7c0-6.9,5.3-10.6,10.1-10.6v0.2c-2.4,0.3-3.1,2.3-3.1,10.2c0,5.9,2.6,9.2,6.3,9.2
		c2.3,0,4.1-0.7,6-2.2v0.2c-2.1,2.7-6,3.7-8.7,3.7C76.4,59.4,71.1,55.6,71.1,48.7z M80.4,47c3.6,0,5.1-1.1,5.1-4.6
		c0-2-0.8-3.8-2.7-4v-0.2c5.4,0,8,3.9,8,7c0,0.7-0.1,1.5-0.2,2.1H80.4V47z"/>
	<path class="st1" d="M93.8,54.2c0-3.6,3.3-5.6,7.9-5.6h4.4v0.2h-1.2c-3,0-4.4,1.9-4.4,4.5c0,2.3,0.7,4,2.6,4c1.1,0,2.1-0.6,3-1.4
		v0.2c-1.4,1.6-3.5,3.3-6.5,3.3C96.1,59.4,93.8,57.5,93.8,54.2z M95.5,42.6c0-2.1,1.9-4.2,7.5-4.5v0.2c-1.6,0.2-2.6,1.6-2.6,3
		c0,1.5,1,2.4,2.7,2.5c-0.6,1.1-2.3,2-3.9,2C96.8,45.8,95.5,44.3,95.5,42.6z M107.4,54.8V42.2c0-2-0.8-3.6-2.8-3.9v-0.2
		c6.8,0.2,9.5,2.8,9.5,8.2v10c0,1.2,0.4,1.7,1.1,1.7c0.6,0,1.3-0.6,2-1.8h0.2c-0.7,2.3-2.9,3.3-5.3,3.3
		C108.9,59.4,107.4,58.3,107.4,54.8z"/>
</g>
<g class="st0">
	<path class="st1" d="M126.6,54.1c-1.4,0-2.3,0.8-2.3,2.1c0,1.2,0.8,2.7,3.7,3v0.2c-5.5-0.2-8.5-1.7-8.5-4.1c0-1.9,1.6-3,3.5-3
		C124.7,52.3,126,53.1,126.6,54.1z M128,38.3c-1.5,0.3-3,1.1-3,2.8c0.1,4.8,13.4,5.5,13.4,12.1c0,4-3.4,6.1-8.7,6.3v-0.2
		c1.7-0.3,3.7-0.9,3.7-3c0-4.3-13.5-5.8-13.5-12.1c0-3.6,3.4-5.8,8-6V38.3z M137.7,42.3c0,1.3-1,2.5-3,2.5c-1.7,0-3-0.7-3.5-2
		c1.2-0.1,1.9-0.9,1.8-1.9c0-1.2-1.6-2.4-3.2-2.6v-0.2C134.5,38.3,137.7,40,137.7,42.3z"/>
</g>
<g class="st0">
	<path class="st1" d="M141.9,40.2c-0.4-0.9-1-1.4-2.3-1.4v-0.2h11.5v0.2c-1.4,0-2,1-1.3,2.4l5.4,11.2l-3.5,6.7h-0.2L141.9,40.2z
		 M140.1,65.6c0-1.8,1.4-3.2,3.6-3.9c-0.1,0.4-0.2,0.7-0.2,1c0,1.6,0.8,2.8,2.4,2.8c1.4,0,2.6-1.5,4.1-4.1h0.3
		c-2.3,4.2-3.8,7.9-6.7,7.9C141.4,69.3,140.1,67.7,140.1,65.6z M157,48.4c0.7-1.3,1.1-3.1,1.1-5.3c0-2.3-1.3-4.3-4.2-4.3v-0.2h10.2
		v0.2c-1.4,0-1.9,0.5-2.7,1.9l-4.3,8L157,48.4z"/>
</g>
<g class="st0">
	<path class="st1" d="M31.7,82.2l5.4,11.2l-3.5,6.7h-0.2l-9.5-18.8c-0.4-0.9-1-1.4-2.3-1.4v-0.2H33v0.2C31.6,79.8,31,80.8,31.7,82.2
		z M45.2,82.2l5.4,11.2l-3.5,6.7h-0.2l-6.4-12.8l-1.3,2.5l-0.2-0.4c0.7-1.4,0.9-3.4,0.3-4.6l-1.8-3.6c-0.4-0.9-1-1.4-2.3-1.4v-0.2
		h11.5v0.2C45.1,79.8,44.5,80.8,45.2,82.2z M59.5,79.6v0.2c-1.4,0-1.9,0.5-2.7,1.9l-4.3,8l-0.2-0.4c0.7-1.3,1.1-3.1,1.1-5.3
		c0-2.3-1.3-4.3-4.2-4.3v-0.2H59.5z"/>
	<path class="st1" d="M59.9,80.7c3.8,0,6.9-0.4,9.8-1.6v18.6c0,1,0.6,2.1,3.1,2.1v0.2H59.9v-0.2c2.5,0,3.1-1.1,3.1-2.1V83.1
		c0-1.5-0.7-2.2-3-2.2V80.7z M62,73c0-2.1,1.7-3.6,4.2-3.6c2.5,0,4.2,1.4,4.2,3.6c0,2.2-1.7,3.6-4.2,3.6C63.7,76.6,62,75.2,62,73z"
		/>
	<path class="st1" d="M90.4,96.9v0.2c-1.3,1.9-3.9,3.3-7,3.3c-3.7,0-6.3-1.7-6.3-5.8V81.2H75l0.5-0.6h1.7v-4.4c2.5,0,5-0.8,6.7-2.3
		v6.7h5.5l-0.5,0.6h-5.1v13.6c0,2.1,0.8,4.2,2.7,4.2C87.7,99,89.1,98.3,90.4,96.9z"/>
	<path class="st1" d="M101,97.7c0,1,0.6,2.1,3.1,2.1v0.2H91.2v-0.2c2.5,0,3.1-1.1,3.1-2.1V73.9c0-1.5-0.7-2.2-3-2.2v-0.2
		c3.8,0,6.9-0.4,9.8-1.6V97.7z M115.4,84.9v12.8c0,1,0.6,2.1,3.1,2.1v0.2h-12.9v-0.2c2.4,0,3-1.1,3-2.1V84.9c0-2.3-1.2-3.5-3.2-3.5
		c-1.1,0-2.1,0.4-3.1,1.3v-0.2c1.1-1.7,3.8-3.3,6.8-3.3C112.8,79.1,115.4,80.9,115.4,84.9z"/>
</g>
<g class="st0">
	<path class="st1" d="M141.6,100.3v0.2c-3.2-0.1-5.8-0.7-8-2l-1.4,2h-0.3v-10h0.3C133.6,95.1,136.5,98.6,141.6,100.3z M153.7,92.1
		c0,5.3-3.9,8.2-10.3,8.4v-0.2c2.3-0.4,4.5-1.7,4.5-4.2c0-7.2-15.7-7.8-15.7-16.2c0-4.9,4-7.8,9.4-8.1V72c-1.9,0.3-3.6,1.5-3.6,3.8
		C138,83,153.7,83.7,153.7,92.1z M143.4,72v-0.2c3.1,0.1,5.5,0.8,7.4,2.2l1.5-2.2h0.3v9.2h-0.3C150.9,76.6,147.4,73,143.4,72z"/>
</g>
<g class="st0">
	<path class="st1" d="M172.4,96.9v0.2c-1.3,1.9-3.9,3.3-7,3.3c-3.7,0-6.3-1.7-6.3-5.8V81.2h-2.1l0.5-0.6h1.7v-4.4
		c2.5,0,5-0.8,6.7-2.3v6.7h5.5l-0.5,0.6h-5.1v13.6c0,2.1,0.8,4.2,2.7,4.2C169.6,99,171,98.3,172.4,96.9z"/>
	<path class="st1" d="M173.7,95.2c0-3.6,3.3-5.6,7.9-5.6h4.4v0.2h-1.2c-3,0-4.4,1.9-4.4,4.5c0,2.3,0.7,4,2.6,4c1.2,0,2.1-0.6,3-1.4
		v0.2c-1.4,1.6-3.5,3.3-6.5,3.3C176,100.5,173.7,98.5,173.7,95.2z M175.3,83.6c0-2.1,1.9-4.2,7.5-4.5v0.2c-1.6,0.2-2.6,1.6-2.6,3
		c0,1.5,1,2.4,2.7,2.5c-0.6,1.1-2.3,2-3.9,2C176.7,86.9,175.3,85.3,175.3,83.6z M187.2,95.9V83.3c0-2-0.8-3.6-2.8-3.9v-0.2
		c6.8,0.2,9.5,2.8,9.5,8.2v10c0,1.2,0.4,1.7,1.1,1.7c0.6,0,1.3-0.6,2-1.8h0.2c-0.7,2.3-2.9,3.3-5.3,3.3
		C188.7,100.5,187.2,99.4,187.2,95.9z"/>
</g>
<g class="st0">
	<path class="st1" d="M208.5,97.7c0,1,0.6,2.1,3.1,2.1v0.2h-12.9v-0.2c2.5,0,3.1-1.1,3.1-2.1V83.2c0-1.5-0.7-2.2-3-2.2v-0.2
		c3.8,0,6.9-0.4,9.8-1.6V97.7z M219.6,83.6c0,2.8-2,4.7-4.2,4.7c-1,0-1.8-0.2-2.3-0.9c0.8-0.4,1.6-1.3,1.6-2.8
		c0-1.2-0.9-2.2-2.3-2.2c-1.1,0-1.9,0.6-2.5,1.6v-0.3c0.8-2.6,2.8-4.4,5.3-4.4C218,79.1,219.6,81.1,219.6,83.6z"/>
</g>
<g class="st0">
	<path class="st1" d="M23.6,140.9c2.5,0,3.1-1,3.1-2.1v-23.2c0-1.1-0.6-2.1-3.1-2.1v-0.2h13.1v0.2c-2.5,0-3.1,1-3.1,2.1v23.2
		c0,1.1,0.6,2.1,3.1,2.1v0.2H23.6V140.9z"/>
	<path class="st1" d="M39.5,140.9c2.5,0,3.1-1.1,3.1-2.1v-14.6c0-1.5-0.7-2.2-3-2.2v-0.2c3.8,0,6.9-0.4,9.8-1.6v18.6
		c0,1,0.6,2.1,3.1,2.1v0.2H39.5V140.9z M54,140.9c2.4,0,3-1.1,3-2.1V126c0-2.3-1.2-3.5-3.2-3.5c-1.1,0-2.1,0.4-3.1,1.3v-0.2
		c1.1-1.7,3.8-3.3,6.8-3.3c3.7,0,6.3,1.7,6.3,5.8v12.8c0,1,0.6,2.1,3.1,2.1v0.2H54V140.9z"/>
	<path class="st1" d="M76.2,136.3c-1.4,0-2.3,0.8-2.3,2.1c0,1.2,0.8,2.7,3.7,3v0.2c-5.5-0.2-8.5-1.7-8.5-4.1c0-1.9,1.6-3,3.5-3
		C74.3,134.5,75.6,135.2,76.2,136.3z M77.6,120.5c-1.5,0.3-3,1.1-3,2.8c0.1,4.8,13.4,5.5,13.4,12.1c0,4-3.4,6.1-8.7,6.3v-0.2
		c1.7-0.3,3.7-0.9,3.7-3c0-4.3-13.5-5.8-13.5-12.1c0-3.6,3.4-5.8,8-6V120.5z M87.3,124.4c0,1.3-1,2.5-3,2.5c-1.7,0-3-0.7-3.5-2
		c1.2-0.1,1.9-0.9,1.8-1.9c0-1.2-1.6-2.4-3.2-2.6v-0.2C84,120.5,87.3,122.1,87.3,124.4z"/>
	<path class="st1" d="M100.2,135.8c0,2.3,0.8,3.5,2.8,3.5c1.1,0,1.9-0.3,2.8-1.3v0.2c-0.9,1.8-3,3.3-6.4,3.3c-3.7,0-6.1-1.7-6.1-5.8
		v-11.5c0-1.5-0.7-2.2-3-2.2v-0.2c3.8,0,6.9-0.4,9.8-1.6V135.8z M113.8,138.4c0,1.2,0.4,1.7,1.1,1.7c0.6,0,1.3-0.6,2-1.8h0.2
		c-0.7,2.3-2.9,3.3-5.6,3.3c-2.9,0-4.5-1.6-4.5-4v-13.3c0-1.5-0.7-2.2-2.9-2.2v-0.2c3.7,0,6.2-0.4,9.7-1.6V138.4z"/>
</g>
<g class="st0">
	<path class="st1" d="M128.7,138.8c0,1,0.6,2.1,3.1,2.1v0.2h-12.9v-0.2c2.5,0,3.1-1.1,3.1-2.1v-14.6c0-1.5-0.7-2.2-3-2.2v-0.2
		c3.8,0,6.9-0.4,9.8-1.6V138.8z M139.7,124.6c0,2.8-2,4.7-4.2,4.7c-1,0-1.8-0.2-2.3-0.9c0.8-0.4,1.6-1.3,1.6-2.8
		c0-1.2-0.9-2.2-2.3-2.2c-1.1,0-1.9,0.6-2.5,1.6v-0.3c0.8-2.6,2.8-4.4,5.3-4.4C138.2,120.2,139.7,122.2,139.7,124.6z"/>
</g>
<g class="st0">
	<path class="st1" d="M141.5,136.3c0-3.6,3.3-5.6,7.9-5.6h4.4v0.2h-1.2c-3,0-4.4,1.9-4.4,4.5c0,2.3,0.7,4,2.6,4c1.1,0,2.1-0.6,3-1.4
		v0.2c-1.4,1.6-3.5,3.3-6.5,3.3C143.8,141.6,141.5,139.6,141.5,136.3z M143.2,124.7c0-2.1,1.9-4.2,7.5-4.5v0.2
		c-1.6,0.2-2.6,1.6-2.6,3c0,1.5,1,2.4,2.7,2.5c-0.6,1.1-2.3,2-3.9,2C144.5,127.9,143.2,126.4,143.2,124.7z M155.1,136.9v-12.6
		c0-2-0.8-3.6-2.8-3.9v-0.2c6.8,0.2,9.5,2.8,9.5,8.2v10c0,1.2,0.4,1.7,1.2,1.7c0.6,0,1.3-0.6,2-1.8h0.2c-0.7,2.3-2.9,3.3-5.3,3.3
		C156.5,141.6,155.1,140.4,155.1,136.9z"/>
	<path class="st1" d="M166.4,140.9c2.5,0,3.1-1.1,3.1-2.1v-14.6c0-1.5-0.7-2.2-3-2.2v-0.2c3.8,0,6.9-0.4,9.8-1.6v18.6
		c0,1,0.6,2.1,3.1,2.1v0.2h-12.9V140.9z M180.9,140.9c2.4,0,3-1.1,3-2.1V126c0-2.3-1.2-3.5-3.2-3.5c-1.2,0-2.1,0.4-3.1,1.3v-0.2
		c1.1-1.7,3.8-3.3,6.8-3.3c3.7,0,6.3,1.7,6.3,5.8v12.8c0,1,0.6,2.1,3.1,2.1v0.2h-12.9V140.9z"/>
	<path class="st1" d="M206.5,120.5c-2.4,0.3-3.5,2.3-3.5,10.2c0,5.9,3,9.2,6.7,9.2c2.3,0,4.1-0.7,6-2.2v0.2c-2.1,2.7-6,3.7-8.7,3.7
		c-5.3,0-11-3.9-11-10.8c0-6.9,5.7-10.6,10.5-10.6V120.5z M215.6,124.8c0,2.2-1.5,3.9-4.1,3.9c-2,0-3.3-1.3-3.6-2.6
		c1.2-0.5,2-1.9,2-3c0-0.9-0.2-2.4-1.8-2.7v-0.3C213.5,120.2,215.6,122.5,215.6,124.8z"/>
	<path class="st1" d="M218.7,130.8c0-6.9,5.3-10.6,10.1-10.6v0.2c-2.4,0.3-3.1,2.3-3.1,10.2c0,5.9,2.6,9.2,6.3,9.2
		c2.3,0,4.1-0.7,6-2.2v0.2c-2.1,2.7-6,3.7-8.7,3.7C224,141.6,218.7,137.7,218.7,130.8z M227.9,129.1c3.6,0,5.1-1.1,5.1-4.6
		c0-2-0.8-3.8-2.7-4v-0.2c5.4,0,8,3.9,8,7c0,0.7-0.1,1.5-0.2,2.1h-10.3V129.1z"/>
</g>
<g class="st0">
	<path class="st1" d="M48.8,160.6l-9.2,21.6H39l-11.7-25.6c-0.7-1.4-2.3-2.1-4.4-2.1v-0.2h11l8.5,18.6l6.3-13.1V160.6z M31.9,182
		v0.2h-9V182c2.7,0,4-1.7,4-3.4l0.3-17.7l0.3,0.7l0.3,17C27.9,180.3,29.2,182,31.9,182z M57.4,156.6v23.2c0,1.1,0.6,2.1,3.1,2.1v0.2
		H47.4V182c2.5,0,3.1-1,3.1-2.1v-25.6h10.1v0.2C58,154.5,57.4,155.5,57.4,156.6z"/>
</g>
<g class="st0">
	<path class="st1" d="M73.5,161.5c-2.4,0.3-3.2,2.3-3.2,10.3c0,7.7,0.8,10.3,3.2,10.5v0.2c-4.7,0-10.2-3.9-10.2-10.8
		s5.4-10.6,10.2-10.6V161.5z M85.3,171.9c0,6.9-5.5,10.8-10.2,10.8v-0.2c2.4-0.2,3.2-2.8,3.2-10.5c0-8-0.8-10.1-3.2-10.3v-0.2
		C79.9,161.3,85.3,164.9,85.3,171.9z"/>
</g>
<g class="st0">
	<path class="st1" d="M103.9,179v0.2c-1.3,1.9-3.9,3.3-7,3.3c-3.7,0-6.3-1.7-6.3-5.8v-13.5h-2.1l0.5-0.6h1.7v-4.4
		c2.5,0,5-0.8,6.7-2.3v6.7h5.5l-0.5,0.6h-5.1V177c0,2.1,0.8,4.2,2.7,4.2C101.2,181.1,102.6,180.4,103.9,179z"/>
</g>
<g class="st0">
	<path class="st1" d="M115.7,161.5c-2.4,0.3-3.2,2.3-3.2,10.3c0,7.7,0.8,10.3,3.2,10.5v0.2c-4.7,0-10.2-3.9-10.2-10.8
		s5.4-10.6,10.2-10.6V161.5z M127.5,171.9c0,6.9-5.5,10.8-10.2,10.8v-0.2c2.4-0.2,3.2-2.8,3.2-10.5c0-8-0.8-10.1-3.2-10.3v-0.2
		C122.1,161.3,127.5,164.9,127.5,171.9z"/>
</g>
<g class="st0">
	<path class="st1" d="M140.1,179.9c0,1,0.6,2.1,3.1,2.1v0.2h-12.9V182c2.5,0,3.1-1.1,3.1-2.1v-14.6c0-1.5-0.7-2.2-3-2.2v-0.2
		c3.8,0,6.9-0.4,9.8-1.6V179.9z M151.2,165.7c0,2.8-2,4.7-4.2,4.7c-1,0-1.8-0.2-2.3-0.9c0.8-0.4,1.6-1.3,1.6-2.8
		c0-1.2-0.9-2.2-2.3-2.2c-1.1,0-1.9,0.6-2.5,1.6v-0.3c0.8-2.6,2.8-4.4,5.3-4.4C149.6,161.3,151.2,163.2,151.2,165.7z"/>
</g>
<g class="st0">
	<path class="st1" d="M163.9,161.5c-2.4,0.3-3.5,2.3-3.5,10.2c0,5.9,3,9.2,6.7,9.2c2.3,0,4.1-0.7,6-2.2v0.2c-2.1,2.7-6,3.7-8.7,3.7
		c-5.3,0-11-3.9-11-10.8s5.7-10.6,10.5-10.6V161.5z M173,165.9c0,2.2-1.5,3.9-4.1,3.9c-2,0-3.3-1.3-3.6-2.6c1.2-0.5,2-1.9,2-3
		c0-0.9-0.2-2.4-1.8-2.7v-0.3C170.9,161.3,173,163.6,173,165.9z"/>
</g>
<g class="st0">
	<path class="st1" d="M176.4,163.4c-0.4-0.9-1-1.4-2.3-1.4v-0.2h11.5v0.2c-1.4,0-2,1-1.3,2.4l5.4,11.2l-3.5,6.7h-0.2L176.4,163.4z
		 M174.6,188.8c0-1.8,1.4-3.2,3.6-3.9c-0.1,0.4-0.2,0.7-0.2,1c0,1.6,0.8,2.8,2.4,2.8c1.4,0,2.6-1.5,4.1-4.1h0.3
		c-2.3,4.2-3.8,7.9-6.7,7.9C175.9,192.5,174.6,190.9,174.6,188.8z M191.4,171.5c0.7-1.3,1.2-3.1,1.2-5.3c0-2.3-1.3-4.3-4.2-4.3v-0.2
		h10.2v0.2c-1.4,0-1.9,0.5-2.7,1.9l-4.3,8L191.4,171.5z"/>
</g>
<g class="st0">
	<path class="st1" d="M209.3,161.5c-2.4,0.3-3.5,2.3-3.5,10.2c0,5.9,3,9.2,6.7,9.2c2.3,0,4.1-0.7,6-2.2v0.2c-2.1,2.7-6,3.7-8.7,3.7
		c-5.3,0-11-3.9-11-10.8s5.7-10.6,10.5-10.6V161.5z M218.5,165.9c0,2.2-1.5,3.9-4.1,3.9c-2,0-3.3-1.3-3.6-2.6c1.2-0.5,2-1.9,2-3
		c0-0.9-0.2-2.4-1.8-2.7v-0.3C216.4,161.3,218.5,163.6,218.5,165.9z"/>
	<path class="st1" d="M220.6,153.6c3.8,0,6.9-0.4,9.8-1.6v27.8c0,1,0.6,2.1,3.1,2.1v0.2h-12.9V182c2.5,0,3.1-1.1,3.1-2.1v-23.8
		c0-1.5-0.7-2.2-3-2.2V153.6z"/>
	<path class="st1" d="M236,171.9c0-6.9,5.3-10.6,10.1-10.6v0.2c-2.4,0.3-3.1,2.3-3.1,10.2c0,5.9,2.6,9.2,6.3,9.2
		c2.3,0,4.1-0.7,6-2.2v0.2c-2.1,2.7-6,3.7-8.7,3.7C241.2,182.6,236,178.8,236,171.9z M245.2,170.1c3.6,0,5.1-1.1,5.1-4.6
		c0-2-0.8-3.8-2.7-4v-0.2c5.4,0,8,3.9,8,7c0,0.7-0.1,1.5-0.2,2.1h-10.3V170.1z"/>
</g>
<rect x="0.1" y="0" class="st2" width="320" height="480"/>
</svg>
