<svg id="Layer_1" data-name="Layer 1" xmlns="http://www.w3.org/2000/svg" viewBox="0 0 320 480"><defs><style>.cls-1{fill:#263845;}.cls-2{fill:none;}</style></defs><title>Artboard 1 copy 3</title><path class="cls-1" d="M28.54,79.76l.28.42.28,14.7c0,1.51,1.12,2.94,3.43,2.94V98h-7.7v-.21c2.31,0,3.39-1.47,3.43-2.94ZM47.09,98H43.2L28.57,76.22a3.81,3.81,0,0,0-3.71-1.78v-.21h9.35L47.09,93.52ZM47,90l-.28-.38-.42-12.22c0-1.51-1.12-2.94-3.43-2.94v-.21h7.7v.21c-2.31,0-3.43,1.47-3.43,2.94Z"/><path class="cls-1" d="M66.23,74.23h6.69L59,98H52.37Zm-12.84,0H64l-.11.21c-5.18.28-9.31,3.85-10.18,8.23h-.28Zm8,23.59a12,12,0,0,0,10.92-9.34h.28V98H61.3Z"/><path class="cls-1" d="M82.68,75.35c0,2-2.17,4.72-5.67,6.16l-.1-.32a4.87,4.87,0,0,0,2-3.39,2.19,2.19,0,0,0-2.38-2.31c.28-2.07,1.51-3.19,3.33-3.19A2.82,2.82,0,0,1,82.68,75.35Z"/><path class="cls-1" d="M89.86,93.87a1.79,1.79,0,0,0-2,1.75c0,1,.7,2.31,3.11,2.55v.21c-4.65-.17-7.21-1.43-7.21-3.46a2.73,2.73,0,0,1,3-2.59A3.56,3.56,0,0,1,89.86,93.87ZM91,80.39c-1.29.24-2.55.91-2.52,2.34C88.6,86.8,99.94,87.46,99.94,93c0,3.39-2.87,5.18-7.39,5.35v-.21c1.47-.24,3.12-.77,3.12-2.59,0-3.64-11.48-5-11.48-10.29,0-3.08,2.9-4.94,6.82-5.11Zm8.26,3.4A2.29,2.29,0,0,1,96.68,86a3,3,0,0,1-3-1.69,1.54,1.54,0,0,0,1.57-1.64c0-1-1.33-2.07-2.73-2.24v-.21C96.51,80.39,99.27,81.82,99.27,83.79Z"/><path class="cls-1" d="M111,73.67a21.36,21.36,0,0,0,8.37-1.37V96c0,.87.52,1.78,2.62,1.78V98h-11v-.21c2.1,0,2.62-.91,2.62-1.78V75.73c0-1.26-.59-1.85-2.59-1.85Z"/><path class="cls-1" d="M124.05,89.21a8.67,8.67,0,0,1,8.58-9v.21c-2.07.24-2.63,2-2.63,8.68,0,5,2.24,7.81,5.36,7.81A7.62,7.62,0,0,0,140.47,95v.21c-1.82,2.31-5.15,3.15-7.42,3.15A8.87,8.87,0,0,1,124.05,89.21Zm7.88-1.47c3.08,0,4.37-1,4.37-3.92,0-1.68-.7-3.22-2.27-3.43v-.21c4.62,0,6.86,3.29,6.86,5.95a9.85,9.85,0,0,1-.18,1.82h-8.78Z"/><path class="cls-1" d="M143.41,93.9c0-3,2.79-4.76,6.72-4.76h3.78v.21h-1c-2.52,0-3.71,1.65-3.71,3.82,0,1.92.56,3.39,2.2,3.39a3.84,3.84,0,0,0,2.56-1.22v.21a7.45,7.45,0,0,1-5.57,2.83C145.37,98.38,143.37,96.7,143.41,93.9ZM144.8,84c0-1.79,1.61-3.61,6.38-3.82v.21a2.55,2.55,0,0,0-2.24,2.55c0,1.27.87,2,2.27,2.14a3.93,3.93,0,0,1-3.36,1.68A2.81,2.81,0,0,1,144.8,84ZM155,94.43V83.72c0-1.72-.67-3.09-2.38-3.33v-.21c5.81.21,8.12,2.41,8.12,7v8.51c0,1,.35,1.43,1,1.43s1.12-.52,1.68-1.57h.21c-.56,1.92-2.45,2.83-4.55,2.83C156.22,98.38,155,97.4,155,94.43Z"/><path class="cls-1" d="M177.71,83v.28A3.85,3.85,0,0,0,174.8,82c-1.75,0-3.43.8-3.43,7.14s1.79,7.45,3.43,7.45a4.86,4.86,0,0,0,2.91-1.22v.21a6.5,6.5,0,0,1-5.08,2.83c-3.33,0-7.21-2-7.21-9.27,0-7,3.82-8.93,7.21-8.93A6.47,6.47,0,0,1,177.71,83Zm6.82,12.71c0,1,.32,1.43.95,1.43s1.12-.52,1.68-1.57h.21c-.56,1.92-2.45,2.83-4.55,2.83-2.8,0-4.06-1-4.06-3.95V75.73c0-1.26-.6-1.85-2.59-1.85v-.21a22.83,22.83,0,0,0,8.36-1.37Z"/><path class="cls-1" d="M188.83,81.51a21.32,21.32,0,0,0,8.37-1.37V96c0,.87.53,1.78,2.63,1.78V98h-11v-.21c2.1,0,2.62-.91,2.62-1.78V83.58c0-1.27-.59-1.86-2.59-1.86Zm1.79-6.58c0-1.82,1.47-3.05,3.57-3.05s3.57,1.23,3.57,3.05S196.29,78,194.19,78,190.62,76.78,190.62,74.93Z"/><path class="cls-1" d="M201.29,97.82c2.1,0,2.63-.91,2.63-1.78V83.61c0-1.26-.6-1.85-2.59-1.85v-.21a21.57,21.57,0,0,0,8.37-1.37V96c0,.87.52,1.78,2.62,1.78V98h-11Zm12.33,0c2.06,0,2.59-.91,2.59-1.78V85.12c0-2-1-3-2.77-3a3.77,3.77,0,0,0-2.66,1.08V83a7.18,7.18,0,0,1,5.81-2.83c3.15,0,5.39,1.47,5.39,4.94V96c0,.87.53,1.78,2.63,1.78V98h-11Z"/><path class="cls-1" d="M226.67,86.51c0-4.54,4.27-6.26,7.84-6.33v.21c-1.51.14-2.21,2-2.21,6,0,4.24.7,6,2.21,6.09v.21C231,92.71,226.67,91,226.67,86.51ZM236,106.57c3.5-.42,4.62-2.31,4.62-3.57,0-4.86-13.65-.52-13.65-6.79,0-1.43.73-2.55,2.34-3.57l.11.18a.81.81,0,0,0-.32.66c0,3.92,16-.63,16,7,0,3.61-3.12,6-9.07,6.3Zm-9-2.94c0-2.06,2.55-2.69,5.32-2.69a2.94,2.94,0,0,0-1.51,2.48c0,1.61,1.82,2.84,3.82,3.15v.21C230.83,106.71,227,105.94,227,103.63Zm9-11.13c1.72-.14,2.42-1.85,2.42-6.09,0-4.06-.74-5.88-2.42-6v-.21c3.71.07,8,1.79,8,6.33s-4.31,6.2-8,6.2Zm1.89-13c.6-1.79,2.21-4.2,4.62-4.2,1.86,0,3,1,3,2.66a2.8,2.8,0,0,1-2.84,2.73c0-1.47-.77-2.35-1.89-2.35a3.76,3.76,0,0,0-2.69,1.26Z"/><path class="cls-1" d="M24.86,120.51a21.36,21.36,0,0,0,8.37-1.37V135c0,.87.52,1.78,2.62,1.78V137h-11v-.21c2.1,0,2.62-.91,2.62-1.78V122.58c0-1.27-.59-1.86-2.59-1.86Zm1.79-6.58c0-1.82,1.47-3.05,3.57-3.05s3.57,1.23,3.57,3.05S32.32,117,30.22,117,26.65,115.78,26.65,113.93Z"/><path class="cls-1" d="M37.32,136.82c2.1,0,2.63-.91,2.63-1.78V122.61c0-1.26-.6-1.85-2.59-1.85v-.21a21.49,21.49,0,0,0,8.36-1.37V135c0,.87.53,1.78,2.63,1.78V137h-11Zm12.32,0c2.07,0,2.59-.91,2.59-1.78V124.12c0-2-1-3-2.76-3a3.77,3.77,0,0,0-2.66,1.08V122a7.16,7.16,0,0,1,5.81-2.83c3.15,0,5.39,1.47,5.39,4.94V135c0,.87.52,1.78,2.62,1.78V137h-11Z"/><path class="cls-1" d="M68.61,132.87a1.79,1.79,0,0,0-2,1.75c0,1,.7,2.31,3.12,2.55v.21c-4.66-.17-7.21-1.43-7.21-3.46a2.73,2.73,0,0,1,3-2.59A3.55,3.55,0,0,1,68.61,132.87Zm1.16-13.48c-1.3.24-2.56.91-2.52,2.34.1,4.07,11.44,4.73,11.44,10.3,0,3.39-2.87,5.18-7.38,5.35v-.21c1.47-.24,3.11-.77,3.11-2.59,0-3.64-11.48-5-11.48-10.29,0-3.08,2.91-4.94,6.83-5.11Zm8.26,3.4A2.29,2.29,0,0,1,75.44,125a3,3,0,0,1-3-1.69A1.55,1.55,0,0,0,74,121.63c0-1-1.33-2.07-2.73-2.24v-.21C75.26,119.39,78,120.82,78,122.79Z"/><path class="cls-1" d="M89,132.45c0,2,.66,3,2.41,3a3.11,3.11,0,0,0,2.42-1.08v.21a5.85,5.85,0,0,1-5.43,2.83c-3.15,0-5.18-1.47-5.18-4.93v-9.84c0-1.26-.59-1.85-2.59-1.85v-.21A21.54,21.54,0,0,0,89,119.18Zm11.65,2.24c0,1,.32,1.43,1,1.43s1.12-.52,1.68-1.57h.21c-.56,1.92-2.45,2.83-4.76,2.83S94.9,136,94.9,134V122.61c0-1.26-.6-1.85-2.49-1.85v-.21a22.86,22.86,0,0,0,8.26-1.37Z"/><path class="cls-1" d="M113.31,135c0,.87.52,1.78,2.62,1.78V137h-11v-.21c2.1,0,2.62-.91,2.62-1.78V122.61c0-1.26-.59-1.85-2.59-1.85v-.21a21.54,21.54,0,0,0,8.37-1.37ZM122.76,123a3.75,3.75,0,0,1-3.61,4,2.37,2.37,0,0,1-2-.77,2.57,2.57,0,0,0,1.36-2.38,1.86,1.86,0,0,0-2-1.89,2.4,2.4,0,0,0-2.1,1.33V123a4.85,4.85,0,0,1,4.55-3.78A3.55,3.55,0,0,1,122.76,123Z"/><path class="cls-1" d="M124.26,132.9c0-3,2.8-4.76,6.72-4.76h3.78v.21h-1c-2.52,0-3.71,1.65-3.71,3.82,0,1.92.56,3.39,2.21,3.39a3.82,3.82,0,0,0,2.55-1.22v.21a7.43,7.43,0,0,1-5.56,2.83C126.22,137.38,124.23,135.7,124.26,132.9Zm1.4-9.9c0-1.79,1.61-3.61,6.37-3.82v.21a2.55,2.55,0,0,0-2.24,2.55c0,1.27.88,2,2.28,2.14a3.94,3.94,0,0,1-3.36,1.68A2.8,2.8,0,0,1,125.66,123Zm10.15,10.43V122.72c0-1.72-.66-3.09-2.38-3.33v-.21c5.81.21,8.12,2.41,8.12,7v8.51c0,1,.35,1.43,1,1.43s1.12-.52,1.68-1.57h.21c-.56,1.92-2.45,2.83-4.55,2.83C137.07,137.38,135.81,136.4,135.81,133.43Z"/><path class="cls-1" d="M145.5,136.82c2.1,0,2.63-.91,2.63-1.78V122.61c0-1.26-.6-1.85-2.59-1.85v-.21a21.57,21.57,0,0,0,8.37-1.37V135c0,.87.52,1.78,2.62,1.78V137h-11Zm12.33,0c2.06,0,2.59-.91,2.59-1.78V124.12c0-2-1-3-2.77-3a3.77,3.77,0,0,0-2.66,1.08V122a7.18,7.18,0,0,1,5.81-2.83c3.15,0,5.39,1.47,5.39,4.94V135c0,.87.53,1.78,2.63,1.78V137h-11Z"/><path class="cls-1" d="M179.67,119.39c-2.07.24-3,2-3,8.68,0,5,2.56,7.81,5.67,7.81a7.58,7.58,0,0,0,5.11-1.86v.21c-1.82,2.31-5.14,3.15-7.42,3.15a9.15,9.15,0,0,1-9.35-9.17,9,9,0,0,1,9-9Zm7.77,3.74a3.26,3.26,0,0,1-3.5,3.37,3,3,0,0,1-3.05-2.21,3,3,0,0,0,1.68-2.56,2.07,2.07,0,0,0-1.5-2.3v-.25C185.65,119.18,187.44,121.14,187.44,123.13Z"/><path class="cls-1" d="M190.06,128.21a8.67,8.67,0,0,1,8.58-9v.21c-2.07.24-2.63,2-2.63,8.68,0,5,2.24,7.81,5.36,7.81a7.62,7.62,0,0,0,5.11-1.86v.21c-1.82,2.31-5.15,3.15-7.42,3.15A8.87,8.87,0,0,1,190.06,128.21Zm7.88-1.47c3.08,0,4.37-1,4.37-3.92,0-1.68-.7-3.22-2.27-3.43v-.21c4.62,0,6.86,3.29,6.86,5.95a9.85,9.85,0,0,1-.18,1.82h-8.78Z"/><path class="cls-1" d="M31.51,171.87a1.79,1.79,0,0,0-2,1.75c0,1,.7,2.31,3.12,2.55v.21c-4.66-.17-7.21-1.43-7.21-3.46a2.73,2.73,0,0,1,3-2.59A3.55,3.55,0,0,1,31.51,171.87Zm1.16-13.48c-1.3.24-2.56.91-2.52,2.34.1,4.07,11.44,4.73,11.44,10.3,0,3.39-2.87,5.18-7.38,5.35v-.21c1.47-.24,3.11-.77,3.11-2.59,0-3.64-11.48-5-11.48-10.29,0-3.08,2.91-4.94,6.83-5.11Zm8.26,3.4A2.29,2.29,0,0,1,38.34,164a3,3,0,0,1-3-1.69,1.55,1.55,0,0,0,1.58-1.64c0-1-1.33-2.07-2.73-2.24v-.21C38.16,158.39,40.93,159.82,40.93,161.79Z"/><path class="cls-1" d="M52,181.35c0,1.26.59,1.86,2.59,1.86v.21a23.06,23.06,0,0,0-8.37,1.36v-23.2c0-1.27-.59-1.86-2.59-1.86v-.21A22.85,22.85,0,0,0,52,158.14Zm13.33-14.24c0,7.31-3.85,9.27-7.17,9.27A6.54,6.54,0,0,1,53,173.55v-.21A4.92,4.92,0,0,0,56,174.56c1.64,0,3.39-1.15,3.39-7.45S57.73,160,56,160A3.9,3.9,0,0,0,53,161.26V161a6.51,6.51,0,0,1,5.11-2.8C61.54,158.18,65.32,160.14,65.32,167.11Z"/><path class="cls-1" d="M68.4,167.21a8.67,8.67,0,0,1,8.58-9v.21c-2.07.24-2.63,2-2.63,8.68,0,5,2.24,7.81,5.36,7.81A7.62,7.62,0,0,0,84.82,173v.21c-1.82,2.31-5.15,3.15-7.42,3.15A8.87,8.87,0,0,1,68.4,167.21Zm7.88-1.47c3.08,0,4.37-1,4.37-3.92,0-1.68-.7-3.22-2.27-3.43v-.21c4.62,0,6.86,3.29,6.86,5.95a9.85,9.85,0,0,1-.18,1.82H76.28Z"/><path class="cls-1" d="M97.07,158.39c-2.07.24-3,2-3,8.68,0,5,2.56,7.81,5.67,7.81a7.58,7.58,0,0,0,5.11-1.86v.21c-1.82,2.31-5.14,3.15-7.42,3.15a9.15,9.15,0,0,1-9.34-9.17,9,9,0,0,1,9-9Zm7.77,3.74a3.26,3.26,0,0,1-3.5,3.37,3,3,0,0,1-3-2.21,3,3,0,0,0,1.68-2.56,2.07,2.07,0,0,0-1.5-2.3v-.25C103.05,158.18,104.84,160.14,104.84,162.13Z"/><path class="cls-1" d="M106.9,159.51a21.36,21.36,0,0,0,8.37-1.37V174c0,.87.52,1.78,2.62,1.78V176h-11v-.21c2.1,0,2.62-.91,2.62-1.78V161.58c0-1.27-.59-1.86-2.59-1.86Zm1.79-6.58c0-1.82,1.47-3.05,3.57-3.05s3.57,1.23,3.57,3.05-1.47,3.08-3.57,3.08S108.69,154.78,108.69,152.93Z"/><path class="cls-1" d="M119.64,171.9c0-3,2.8-4.76,6.72-4.76h3.78v.21h-1c-2.52,0-3.71,1.65-3.71,3.82,0,1.92.56,3.39,2.21,3.39a3.82,3.82,0,0,0,2.55-1.22v.21a7.43,7.43,0,0,1-5.56,2.83C121.6,176.38,119.6,174.7,119.64,171.9ZM121,162c0-1.79,1.61-3.61,6.37-3.82v.21a2.55,2.55,0,0,0-2.24,2.55c0,1.27.88,2,2.28,2.14a3.94,3.94,0,0,1-3.37,1.68A2.8,2.8,0,0,1,121,162Zm10.15,10.43V161.72c0-1.72-.66-3.09-2.38-3.33v-.21c5.81.21,8.12,2.41,8.12,7v8.51c0,1,.35,1.43,1,1.43s1.12-.52,1.68-1.57h.21c-.56,1.92-2.45,2.83-4.55,2.83C132.45,176.38,131.19,175.4,131.19,172.43Z"/><path class="cls-1" d="M140.71,151.67a21.39,21.39,0,0,0,8.37-1.37V174c0,.87.52,1.78,2.62,1.78V176h-11v-.21c2.1,0,2.63-.91,2.63-1.78V153.73c0-1.26-.6-1.85-2.59-1.85Z"/><path class="cls-1" d="M153.24,159.51a21.3,21.3,0,0,0,8.36-1.37V174c0,.87.53,1.78,2.63,1.78V176h-11v-.21c2.1,0,2.63-.91,2.63-1.78V161.58c0-1.27-.6-1.86-2.59-1.86Zm1.78-6.58c0-1.82,1.47-3.05,3.57-3.05s3.57,1.23,3.57,3.05S160.7,156,158.59,156,155,154.78,155,152.93Z"/><path class="cls-1" d="M172.42,171.87a1.79,1.79,0,0,0-2,1.75c0,1,.7,2.31,3.11,2.55v.21c-4.65-.17-7.21-1.43-7.21-3.46a2.73,2.73,0,0,1,3-2.59A3.56,3.56,0,0,1,172.42,171.87Zm1.15-13.48c-1.29.24-2.55.91-2.52,2.34.11,4.07,11.45,4.73,11.45,10.3,0,3.39-2.87,5.18-7.39,5.35v-.21c1.47-.24,3.12-.77,3.12-2.59,0-3.64-11.48-5-11.48-10.29,0-3.08,2.9-4.94,6.82-5.11Zm8.27,3.4a2.3,2.3,0,0,1-2.6,2.17,3,3,0,0,1-3-1.69,1.54,1.54,0,0,0,1.57-1.64c0-1-1.33-2.07-2.73-2.24v-.21C179.07,158.39,181.84,159.82,181.84,161.79Z"/><path class="cls-1" d="M198.39,173.34v.21a7.32,7.32,0,0,1-6,2.83c-3.15,0-5.39-1.43-5.39-4.93V160h-1.82l.39-.53H187v-3.78a8.85,8.85,0,0,0,5.74-2v5.74h4.73l-.39.53h-4.34v11.58c0,1.75.67,3.57,2.31,3.57A5.2,5.2,0,0,0,198.39,173.34Z"/><rect class="cls-2" x="-0.2" width="320" height="480"/></svg>