<svg id="Layer_1" data-name="Layer 1" xmlns="http://www.w3.org/2000/svg" viewBox="0 0 320 480"><defs><style>.cls-1{fill:#fff;}.cls-2{fill:none;}</style></defs><title>Artboard 1 copy 2</title><path class="cls-1" d="M22.78,42.51a21.36,21.36,0,0,0,8.37-1.37V57c0,.87.52,1.78,2.62,1.78V59h-11v-.21c2.1,0,2.62-.91,2.62-1.78V44.58c0-1.27-.59-1.86-2.59-1.86Zm1.79-6.58c0-1.82,1.47-3,3.57-3s3.57,1.23,3.57,3S30.24,39,28.14,39,24.57,37.78,24.57,35.93Z"/><path class="cls-1" d="M42,54.87a1.79,1.79,0,0,0-2,1.75c0,1,.7,2.31,3.12,2.55v.21c-4.66-.17-7.21-1.43-7.21-3.46a2.73,2.73,0,0,1,3-2.59A3.55,3.55,0,0,1,42,54.87Zm1.16-13.48c-1.3.24-2.56.91-2.52,2.34C40.7,47.79,52,48.46,52,54c0,3.39-2.87,5.18-7.38,5.35v-.21c1.47-.24,3.11-.77,3.11-2.59,0-3.64-11.48-5-11.48-10.29,0-3.08,2.91-4.94,6.83-5.11Zm8.26,3.4A2.29,2.29,0,0,1,48.79,47a3,3,0,0,1-3-1.69,1.55,1.55,0,0,0,1.58-1.64c0-1.05-1.33-2.07-2.73-2.24v-.21C48.61,41.39,51.38,42.82,51.38,44.79Z"/><path class="cls-1" d="M63.87,50.21a8.66,8.66,0,0,1,8.58-9v.21c-2.07.24-2.63,2-2.63,8.68,0,5,2.24,7.81,5.36,7.81A7.62,7.62,0,0,0,80.29,56v.21c-1.82,2.31-5.15,3.15-7.42,3.15A8.87,8.87,0,0,1,63.87,50.21Zm7.88-1.47c3.08,0,4.37-1,4.37-3.92,0-1.68-.7-3.22-2.27-3.43v-.21c4.62,0,6.86,3.29,6.86,6A9.94,9.94,0,0,1,80.53,49H71.75Z"/><path class="cls-1" d="M83.22,54.9c0-3,2.8-4.76,6.73-4.76h3.78v.21h-1C90.16,50.35,89,52,89,54.17c0,1.92.56,3.39,2.2,3.39a3.84,3.84,0,0,0,2.56-1.22v.21a7.45,7.45,0,0,1-5.57,2.83C85.18,59.38,83.19,57.7,83.22,54.9Zm1.4-9.9c0-1.79,1.62-3.61,6.38-3.82v.21a2.55,2.55,0,0,0-2.24,2.55c0,1.27.87,2,2.27,2.14a3.93,3.93,0,0,1-3.36,1.68A2.81,2.81,0,0,1,84.62,45ZM94.78,55.43V44.71c0-1.71-.67-3.08-2.38-3.32v-.21c5.81.21,8.12,2.41,8.12,7v8.51c0,1,.35,1.43,1,1.43s1.12-.52,1.68-1.57h.21c-.56,1.92-2.45,2.83-4.55,2.83C96,59.38,94.78,58.4,94.78,55.43Z"/><path class="cls-1" d="M111.19,54.87a1.79,1.79,0,0,0-2,1.75c0,1,.7,2.31,3.11,2.55v.21c-4.65-.17-7.21-1.43-7.21-3.46a2.73,2.73,0,0,1,3-2.59A3.55,3.55,0,0,1,111.19,54.87Zm1.15-13.48c-1.29.24-2.55.91-2.51,2.34.1,4.06,11.44,4.73,11.44,10.3,0,3.39-2.87,5.18-7.39,5.35v-.21c1.47-.24,3.12-.77,3.12-2.59,0-3.64-11.48-5-11.48-10.29,0-3.08,2.9-4.94,6.82-5.11Zm8.27,3.4A2.29,2.29,0,0,1,118,47a3,3,0,0,1-3-1.69,1.55,1.55,0,0,0,1.58-1.64c0-1.05-1.33-2.07-2.74-2.24v-.21C117.84,41.39,120.61,42.82,120.61,44.79Z"/><path class="cls-1" d="M124.21,43a1.9,1.9,0,0,0-1.93-1.22v-.21h9.81v.21c-1.23,0-1.72.84-1.12,2.06l4.58,9.56-3,5.67h-.21Zm-1.54,21.71c0-1.51,1.19-2.77,3.08-3.29a2.51,2.51,0,0,0-.14.87,2,2,0,0,0,2.06,2.35c1.23,0,2.21-1.3,3.54-3.54h.25c-1.93,3.61-3.26,6.72-5.71,6.72A2.91,2.91,0,0,1,122.67,64.67ZM137,49.93a9.54,9.54,0,0,0,1-4.51,3.38,3.38,0,0,0-3.57-3.68v-.21h8.72v.21c-1.16,0-1.61.45-2.28,1.64l-3.64,6.87Z"/><path class="cls-1" d="M30.27,82.8l4.59,9.56-3,5.67h-.21L23.52,82a1.9,1.9,0,0,0-1.93-1.22v-.21h9.8v.21C30.17,80.74,29.68,81.58,30.27,82.8Zm11.52,0,4.58,9.56-3,5.67h-.21L37.66,87.15l-1.12,2.1-.21-.32A5.26,5.26,0,0,0,36.61,85L35,82a1.89,1.89,0,0,0-1.92-1.22v-.21h9.8v.21C41.68,80.74,41.19,81.58,41.79,82.8ZM54,80.53v.21c-1.16,0-1.65.45-2.28,1.64l-3.64,6.87-.21-.32a9.54,9.54,0,0,0,1-4.51,3.38,3.38,0,0,0-3.57-3.68v-.21Z"/><path class="cls-1" d="M54.28,81.51a21.36,21.36,0,0,0,8.37-1.37V96c0,.87.52,1.78,2.62,1.78V98h-11v-.21c2.1,0,2.62-.91,2.62-1.78V83.58c0-1.27-.59-1.86-2.59-1.86Zm1.79-6.58c0-1.82,1.47-3.05,3.57-3.05s3.57,1.23,3.57,3.05S61.74,78,59.64,78,56.07,76.78,56.07,74.93Z"/><path class="cls-1" d="M80.32,95.34v.21a7.32,7.32,0,0,1-6,2.83C71.19,98.38,69,97,69,93.45V82H67.13l.38-.52H69V77.66a8.89,8.89,0,0,0,5.74-2v5.74h4.72L79,82H74.69V93.55c0,1.75.66,3.57,2.31,3.57A5.15,5.15,0,0,0,80.32,95.34Z"/><path class="cls-1" d="M89.35,96c0,.87.53,1.78,2.63,1.78V98H81v-.21c2.1,0,2.63-.91,2.63-1.78V75.73c0-1.26-.6-1.85-2.6-1.85v-.21a21.32,21.32,0,0,0,8.37-1.37ZM101.6,85.12V96c0,.87.53,1.78,2.63,1.78V98h-11v-.21c2.06,0,2.59-.91,2.59-1.78V85.12c0-2-1-3-2.77-3a3.77,3.77,0,0,0-2.66,1.08V83a7.15,7.15,0,0,1,5.81-2.83C99.36,80.18,101.6,81.65,101.6,85.12Z"/><path class="cls-1" d="M123.93,98.17v.21a13.27,13.27,0,0,1-6.79-1.71L116,98.38h-.28V89.84H116A11.75,11.75,0,0,0,123.93,98.17Zm10.29-7c0,4.51-3.36,7-8.78,7.17v-.21c1.92-.35,3.81-1.47,3.81-3.57,0-6.12-13.37-6.68-13.37-13.79,0-4.2,3.39-6.62,8.05-6.93v.21c-1.61.28-3.08,1.29-3.08,3.22C120.85,83.43,134.22,84.1,134.22,91.21Zm-8.78-17.12v-.21a11.3,11.3,0,0,1,6.3,1.85L133,73.88h.28v7.8H133A11.13,11.13,0,0,0,125.44,74.09Z"/><path class="cls-1" d="M150.18,95.34v.21a7.32,7.32,0,0,1-6,2.83c-3.15,0-5.39-1.43-5.39-4.93V82H137l.39-.52h1.43V77.66a8.9,8.9,0,0,0,5.75-2v5.74h4.72l-.38.52h-4.34V93.55c0,1.75.66,3.57,2.3,3.57A5.15,5.15,0,0,0,150.18,95.34Z"/><path class="cls-1" d="M151.3,93.9c0-3,2.8-4.76,6.72-4.76h3.78v.21h-1.05c-2.52,0-3.71,1.65-3.71,3.82,0,1.92.56,3.39,2.21,3.39a3.84,3.84,0,0,0,2.55-1.22v.21a7.43,7.43,0,0,1-5.57,2.83C153.26,98.38,151.26,96.7,151.3,93.9Zm1.4-9.9c0-1.79,1.61-3.61,6.37-3.82v.21a2.55,2.55,0,0,0-2.24,2.55c0,1.27.87,2,2.27,2.14a3.93,3.93,0,0,1-3.36,1.68A2.8,2.8,0,0,1,152.7,84Zm10.15,10.43V83.71c0-1.71-.67-3.08-2.38-3.32v-.21c5.81.21,8.12,2.41,8.12,7v8.51c0,1,.35,1.43,1,1.43s1.12-.52,1.68-1.57h.21c-.56,1.92-2.45,2.83-4.55,2.83C164.11,98.38,162.85,97.4,162.85,94.43Z"/><path class="cls-1" d="M180.94,96c0,.87.53,1.78,2.63,1.78V98h-11v-.21c2.1,0,2.63-.91,2.63-1.78V83.61c0-1.26-.6-1.86-2.59-1.86v-.21a21.49,21.49,0,0,0,8.36-1.36ZM190.4,84a3.75,3.75,0,0,1-3.61,4,2.39,2.39,0,0,1-2-.77,2.56,2.56,0,0,0,1.37-2.38,1.86,1.86,0,0,0-2-1.89,2.39,2.39,0,0,0-2.1,1.33V84a4.84,4.84,0,0,1,4.55-3.78A3.55,3.55,0,0,1,190.4,84Z"/><path class="cls-1" d="M23.38,136.82c2.1,0,2.62-.84,2.62-1.78V115.22c0-.94-.52-1.78-2.62-1.78v-.21h11.2v.21c-2.1,0-2.63.84-2.63,1.78V135c0,.94.53,1.78,2.63,1.78V137H23.38Z"/><path class="cls-1" d="M36.92,136.82c2.1,0,2.63-.91,2.63-1.78V122.61c0-1.26-.6-1.86-2.59-1.86v-.21a21.49,21.49,0,0,0,8.36-1.36V135c0,.87.53,1.78,2.63,1.78V137h-11Zm12.32,0c2.07,0,2.59-.91,2.59-1.78V124.12c0-2-1-3-2.76-3a3.77,3.77,0,0,0-2.66,1.08V122a7.14,7.14,0,0,1,5.81-2.83c3.15,0,5.39,1.47,5.39,4.94V135c0,.87.52,1.78,2.62,1.78V137h-11Z"/><path class="cls-1" d="M68.21,132.87a1.79,1.79,0,0,0-2,1.75c0,1,.7,2.31,3.12,2.55v.21c-4.66-.17-7.21-1.43-7.21-3.46a2.73,2.73,0,0,1,3-2.59A3.55,3.55,0,0,1,68.21,132.87Zm1.16-13.48c-1.3.24-2.56.91-2.52,2.34.1,4.06,11.44,4.73,11.44,10.3,0,3.39-2.87,5.18-7.38,5.35v-.21c1.47-.24,3.11-.77,3.11-2.59,0-3.64-11.48-5-11.48-10.29,0-3.08,2.91-4.94,6.83-5.11Zm8.26,3.4A2.29,2.29,0,0,1,75,125a3,3,0,0,1-3-1.69,1.55,1.55,0,0,0,1.58-1.64c0-1-1.33-2.07-2.73-2.24v-.21C74.86,119.39,77.63,120.82,77.63,122.79Z"/><path class="cls-1" d="M88.62,132.45c0,2,.66,3,2.41,3a3.11,3.11,0,0,0,2.42-1.08v.21A5.85,5.85,0,0,1,88,137.38c-3.15,0-5.18-1.47-5.18-4.93v-9.84c0-1.26-.59-1.86-2.59-1.86v-.21a21.54,21.54,0,0,0,8.37-1.36Zm11.65,2.24c0,1,.32,1.43,1,1.43s1.12-.52,1.68-1.57h.21c-.56,1.92-2.45,2.83-4.76,2.83S94.5,136,94.5,134V122.61c0-1.26-.6-1.86-2.49-1.86v-.21a22.86,22.86,0,0,0,8.26-1.36Z"/><path class="cls-1" d="M112.91,135c0,.87.52,1.78,2.62,1.78V137h-11v-.21c2.09,0,2.62-.91,2.62-1.78V122.61c0-1.26-.6-1.86-2.59-1.86v-.21a21.54,21.54,0,0,0,8.37-1.36ZM122.36,123a3.75,3.75,0,0,1-3.61,4,2.37,2.37,0,0,1-2-.77,2.57,2.57,0,0,0,1.36-2.38,1.86,1.86,0,0,0-2-1.89,2.4,2.4,0,0,0-2.1,1.33V123a4.85,4.85,0,0,1,4.55-3.78A3.55,3.55,0,0,1,122.36,123Z"/><path class="cls-1" d="M123.86,132.9c0-3,2.8-4.76,6.72-4.76h3.78v.21h-1.05c-2.52,0-3.71,1.65-3.71,3.82,0,1.92.56,3.39,2.21,3.39a3.82,3.82,0,0,0,2.55-1.22v.21a7.43,7.43,0,0,1-5.56,2.83C125.82,137.38,123.83,135.7,123.86,132.9Zm1.4-9.9c0-1.79,1.61-3.61,6.37-3.82v.21a2.55,2.55,0,0,0-2.24,2.55c0,1.27.88,2,2.28,2.14a3.94,3.94,0,0,1-3.36,1.68A2.81,2.81,0,0,1,125.26,123Zm10.15,10.43V122.71c0-1.71-.66-3.08-2.38-3.32v-.21c5.81.21,8.12,2.41,8.12,7v8.51c0,1,.35,1.43,1,1.43s1.12-.52,1.68-1.57H144c-.56,1.92-2.45,2.83-4.55,2.83C136.67,137.38,135.41,136.4,135.41,133.43Z"/><path class="cls-1" d="M145.1,136.82c2.1,0,2.63-.91,2.63-1.78V122.61c0-1.26-.6-1.86-2.59-1.86v-.21a21.58,21.58,0,0,0,8.37-1.36V135c0,.87.52,1.78,2.62,1.78V137h-11Zm12.32,0c2.07,0,2.6-.91,2.6-1.78V124.12c0-2-1-3-2.77-3a3.77,3.77,0,0,0-2.66,1.08V122a7.15,7.15,0,0,1,5.81-2.83c3.15,0,5.39,1.47,5.39,4.94V135c0,.87.53,1.78,2.63,1.78V137h-11Z"/><path class="cls-1" d="M179.26,119.39c-2.06.24-3,2-3,8.68,0,5,2.55,7.81,5.67,7.81a7.58,7.58,0,0,0,5.11-1.86v.21c-1.82,2.31-5.15,3.15-7.42,3.15a9.15,9.15,0,0,1-9.35-9.17,9,9,0,0,1,9-9Zm7.78,3.74a3.26,3.26,0,0,1-3.5,3.37,3,3,0,0,1-3-2.21,3,3,0,0,0,1.68-2.56,2.08,2.08,0,0,0-1.5-2.31v-.24C185.25,119.18,187,121.14,187,123.13Z"/><path class="cls-1" d="M189.66,128.21a8.66,8.66,0,0,1,8.58-9v.21c-2.07.24-2.63,2-2.63,8.68,0,5,2.24,7.81,5.36,7.81a7.62,7.62,0,0,0,5.11-1.86v.21c-1.82,2.31-5.15,3.15-7.42,3.15A8.87,8.87,0,0,1,189.66,128.21Zm7.88-1.47c3.08,0,4.37-1,4.37-3.92,0-1.68-.7-3.22-2.27-3.43v-.21c4.62,0,6.86,3.29,6.86,5.95a9.94,9.94,0,0,1-.18,1.82h-8.78Z"/><path class="cls-1" d="M44.83,157.58,37,176h-.49l-10-21.81c-.56-1.19-1.93-1.78-3.71-1.78v-.21h9.41l7.28,15.82,5.39-11.17ZM30.45,175.82V176h-7.7v-.21c2.31,0,3.39-1.47,3.43-2.94l.28-15.12.28.63L27,172.88C27.05,174.39,28.14,175.82,30.45,175.82Zm21.73-21.6V174c0,.94.53,1.78,2.63,1.78V176H43.61v-.21c2.1,0,2.62-.84,2.62-1.78V152.23h8.58v.21C52.71,152.44,52.18,153.28,52.18,154.22Z"/><path class="cls-1" d="M65.87,158.39c-2.07.24-2.77,2-2.77,8.82,0,6.58.7,8.75,2.77,9v.21a8.92,8.92,0,0,1-8.72-9.17,8.77,8.77,0,0,1,8.72-9ZM76,167.21a8.92,8.92,0,0,1-8.68,9.17v-.21c2.06-.21,2.73-2.41,2.73-9,0-6.86-.7-8.61-2.73-8.82v-.21A8.72,8.72,0,0,1,76,167.21Z"/><path class="cls-1" d="M91.84,173.34v.21a7.32,7.32,0,0,1-6,2.83c-3.15,0-5.39-1.43-5.39-4.93V160H78.64l.39-.52h1.43v-3.78a8.85,8.85,0,0,0,5.74-2v5.74h4.73l-.39.52H86.2v11.59c0,1.75.67,3.57,2.31,3.57A5.2,5.2,0,0,0,91.84,173.34Z"/><path class="cls-1" d="M101.85,158.39c-2.07.24-2.77,2-2.77,8.82,0,6.58.7,8.75,2.77,9v.21a8.92,8.92,0,0,1-8.72-9.17,8.77,8.77,0,0,1,8.72-9Zm10.08,8.82a8.92,8.92,0,0,1-8.68,9.17v-.21c2.06-.21,2.73-2.41,2.73-9,0-6.86-.7-8.61-2.73-8.82v-.21A8.72,8.72,0,0,1,111.93,167.21Z"/><path class="cls-1" d="M122.64,174c0,.87.52,1.78,2.62,1.78V176h-11v-.21c2.1,0,2.62-.91,2.62-1.78V161.61c0-1.26-.6-1.86-2.59-1.86v-.21a21.58,21.58,0,0,0,8.37-1.36ZM132.09,162a3.75,3.75,0,0,1-3.61,4,2.37,2.37,0,0,1-2-.77,2.57,2.57,0,0,0,1.36-2.38,1.86,1.86,0,0,0-2-1.89,2.4,2.4,0,0,0-2.1,1.33V162a4.85,4.85,0,0,1,4.55-3.78A3.55,3.55,0,0,1,132.09,162Z"/><path class="cls-1" d="M142.94,158.39c-2.07.24-3,2-3,8.68,0,5,2.56,7.81,5.67,7.81a7.58,7.58,0,0,0,5.11-1.86v.21c-1.82,2.31-5.14,3.15-7.42,3.15a9.15,9.15,0,0,1-9.35-9.17,9,9,0,0,1,9-9Zm7.77,3.74a3.26,3.26,0,0,1-3.5,3.37,3,3,0,0,1-3.05-2.21,3,3,0,0,0,1.68-2.56,2.08,2.08,0,0,0-1.5-2.31v-.24C148.92,158.18,150.71,160.14,150.71,162.13Z"/><path class="cls-1" d="M153.61,160a1.9,1.9,0,0,0-1.93-1.22v-.21h9.81v.21c-1.23,0-1.72.84-1.12,2.06l4.58,9.56-3,5.67h-.21Zm-1.54,21.71c0-1.51,1.19-2.77,3.08-3.29a2.77,2.77,0,0,0-.14.87,2.05,2.05,0,0,0,2.07,2.35c1.22,0,2.2-1.3,3.53-3.54h.25c-1.93,3.61-3.26,6.72-5.71,6.72A2.91,2.91,0,0,1,152.07,181.67Zm14.35-14.74a9.54,9.54,0,0,0,1-4.51,3.38,3.38,0,0,0-3.57-3.68v-.21h8.72v.21c-1.16,0-1.61.45-2.28,1.64l-3.64,6.87Z"/><path class="cls-1" d="M181.68,158.39c-2.07.24-3,2-3,8.68,0,5,2.56,7.81,5.68,7.81a7.62,7.62,0,0,0,5.11-1.86v.21c-1.82,2.31-5.15,3.15-7.42,3.15a9.15,9.15,0,0,1-9.35-9.17,9,9,0,0,1,9-9Zm7.77,3.74a3.26,3.26,0,0,1-3.5,3.37,3,3,0,0,1-3-2.21,3,3,0,0,0,1.68-2.56,2.08,2.08,0,0,0-1.51-2.31v-.24C187.67,158.18,189.45,160.14,189.45,162.13Z"/><path class="cls-1" d="M191.27,151.67a21.3,21.3,0,0,0,8.36-1.37V174c0,.87.53,1.78,2.63,1.78V176h-11v-.21c2.11,0,2.63-.91,2.63-1.78V153.73c0-1.26-.6-1.85-2.59-1.85Z"/><path class="cls-1" d="M204.36,167.21a8.66,8.66,0,0,1,8.57-9v.21c-2.06.24-2.62,2-2.62,8.68,0,5,2.24,7.81,5.36,7.81a7.62,7.62,0,0,0,5.11-1.86v.21c-1.82,2.31-5.15,3.15-7.43,3.15A8.87,8.87,0,0,1,204.36,167.21Zm7.88-1.47c3.08,0,4.37-1,4.37-3.92,0-1.68-.7-3.22-2.27-3.43v-.21c4.62,0,6.86,3.29,6.86,5.95A9.94,9.94,0,0,1,221,166h-8.78Z"/><rect class="cls-2" x="0.06" width="320" height="480"/></svg>