<svg id="Layer_1" data-name="Layer 1" xmlns="http://www.w3.org/2000/svg" viewBox="0 0 320 480"><defs><style>.cls-1{fill:#fff;}.cls-2{fill:none;}</style></defs><title>Artboard 1</title><path class="cls-1" d="M45.13,93.87l.14.28a9.61,9.61,0,0,1-8.43,4.23C31.13,98.38,24,94.32,24,86.17,24,77.31,31,74,36,73.88v.21c-2.45.52-5.11,2.83-5.11,11.83S34.49,97,38.45,97A8.58,8.58,0,0,0,45.13,93.87Zm.28-20v8.5h-.28c-1.36-4.65-4-7.35-7.38-8.29v-.21c3,.14,4.9.66,6.33,1.61l1.05-1.61Z"/><path class="cls-1" d="M56,96c0,.87.53,1.78,2.63,1.78V98h-11v-.21c2.1,0,2.63-.91,2.63-1.78V75.73c0-1.26-.6-1.85-2.59-1.85v-.21A21.3,21.3,0,0,0,56,72.3ZM68.23,85.12V96c0,.87.53,1.78,2.63,1.78V98h-11v-.21c2.06,0,2.59-.91,2.59-1.78V85.12c0-2-1-3-2.77-3A3.77,3.77,0,0,0,57,83.22V83a7.15,7.15,0,0,1,5.81-2.83C66,80.18,68.23,81.65,68.23,85.12Z"/><path class="cls-1" d="M72.4,93.9c0-3,2.8-4.76,6.72-4.76H82.9v.21H81.85c-2.52,0-3.71,1.65-3.71,3.82,0,1.92.56,3.39,2.2,3.39a3.84,3.84,0,0,0,2.56-1.22v.21a7.45,7.45,0,0,1-5.57,2.83C74.36,98.38,72.36,96.7,72.4,93.9ZM73.8,84c0-1.79,1.61-3.61,6.37-3.82v.21a2.55,2.55,0,0,0-2.24,2.55c0,1.27.87,2,2.27,2.14a3.93,3.93,0,0,1-3.36,1.68A2.8,2.8,0,0,1,73.8,84ZM84,94.43V83.71c0-1.71-.67-3.08-2.38-3.32v-.21c5.81.21,8.12,2.41,8.12,7v8.51c0,1,.35,1.43,1,1.43s1.12-.52,1.68-1.57h.21C92,97.47,90.11,98.38,88,98.38,85.21,98.38,84,97.4,84,94.43Z"/><path class="cls-1" d="M93.64,97.82c2.1,0,2.63-.91,2.63-1.78V83.61c0-1.26-.6-1.86-2.59-1.86v-.21A21.49,21.49,0,0,0,102,80.18V96c0,.87.53,1.78,2.63,1.78V98h-11Zm12.32,0c2.07,0,2.59-.91,2.59-1.78V85.12c0-2-1-3-2.76-3a3.77,3.77,0,0,0-2.66,1.08V83a7.14,7.14,0,0,1,5.81-2.83c3.15,0,5.39,1.47,5.39,4.94V96c0,.87.52,1.78,2.62,1.78V98H106Z"/><path class="cls-1" d="M119,86.51c0-4.55,4.27-6.26,7.84-6.33v.21c-1.51.14-2.21,2-2.21,6,0,4.24.7,6,2.21,6.09v.21C123.32,92.71,119,91,119,86.51Zm9.31,20.06c3.5-.42,4.62-2.31,4.62-3.57,0-4.86-13.65-.52-13.65-6.79,0-1.43.73-2.55,2.34-3.57l.11.18a.81.81,0,0,0-.32.66c0,3.92,16-.63,16,7,0,3.61-3.11,6-9.06,6.3Zm-9-2.94c0-2.06,2.55-2.69,5.32-2.69a2.94,2.94,0,0,0-1.51,2.48c0,1.61,1.82,2.84,3.82,3.15v.21C123.18,106.71,119.3,105.94,119.3,103.63Zm9-11.13c1.71-.14,2.41-1.85,2.41-6.09,0-4.06-.73-5.88-2.41-6v-.21c3.71.07,8,1.78,8,6.33s-4.3,6.2-8,6.2Zm1.89-13c.59-1.79,2.2-4.2,4.62-4.2,1.85,0,3,1,3,2.66A2.79,2.79,0,0,1,135,80.74c0-1.47-.77-2.35-1.89-2.35a3.8,3.8,0,0,0-2.7,1.26Z"/><path class="cls-1" d="M138.82,81.51a21.32,21.32,0,0,0,8.37-1.37V96c0,.87.53,1.78,2.63,1.78V98h-11v-.21c2.1,0,2.63-.91,2.63-1.78V83.58c0-1.27-.6-1.86-2.6-1.86Zm1.79-6.58c0-1.82,1.47-3.05,3.57-3.05s3.57,1.23,3.57,3.05S146.28,78,144.18,78,140.61,76.78,140.61,74.93Z"/><path class="cls-1" d="M151.28,97.82c2.1,0,2.63-.91,2.63-1.78V83.61c0-1.26-.6-1.86-2.59-1.86v-.21a21.58,21.58,0,0,0,8.37-1.36V96c0,.87.52,1.78,2.62,1.78V98h-11Zm12.33,0c2.06,0,2.59-.91,2.59-1.78V85.12c0-2-1-3-2.77-3a3.77,3.77,0,0,0-2.66,1.08V83a7.14,7.14,0,0,1,5.81-2.83c3.15,0,5.39,1.47,5.39,4.94V96c0,.87.53,1.78,2.63,1.78V98h-11Z"/><path class="cls-1" d="M176.66,86.51c0-4.55,4.27-6.26,7.84-6.33v.21c-1.5.14-2.21,2-2.21,6,0,4.24.71,6,2.21,6.09v.21C181,92.71,176.66,91,176.66,86.51ZM186,106.57c3.5-.42,4.62-2.31,4.62-3.57,0-4.86-13.65-.52-13.65-6.79,0-1.43.73-2.55,2.35-3.57l.1.18a.81.81,0,0,0-.32.66c0,3.92,16-.63,16,7,0,3.61-3.12,6-9.07,6.3Zm-9-2.94c0-2.06,2.55-2.69,5.32-2.69a2.94,2.94,0,0,0-1.51,2.48c0,1.61,1.82,2.84,3.82,3.15v.21C180.82,106.71,176.94,105.94,176.94,103.63Zm9-11.13c1.72-.14,2.42-1.85,2.42-6.09,0-4.06-.74-5.88-2.42-6v-.21c3.71.07,8,1.78,8,6.33s-4.31,6.2-8,6.2Zm1.89-13c.6-1.79,2.21-4.2,4.62-4.2,1.86,0,3,1,3,2.66a2.8,2.8,0,0,1-2.84,2.73c0-1.47-.77-2.35-1.89-2.35A3.78,3.78,0,0,0,188,79.65Z"/><path class="cls-1" d="M31.59,135c0,.87.52,1.78,2.62,1.78V137h-11v-.21c2.1,0,2.62-.91,2.62-1.78V122.61c0-1.26-.59-1.86-2.59-1.86v-.21a21.54,21.54,0,0,0,8.37-1.36Zm11.62-10.92V135c0,.87.49,1.78,2.59,1.78V137h-11v-.21c2.06,0,2.62-.91,2.62-1.78V124.12c0-2-.77-3-2.45-3a3.08,3.08,0,0,0-2.31,1V122a5.67,5.67,0,0,1,5.11-2.8C41.11,119.18,43.21,120.65,43.21,124.12Zm11.58,0V135c0,.87.53,1.78,2.63,1.78V137h-11v-.21c2.07,0,2.63-.91,2.63-1.78V124.12c0-2-.77-3-2.45-3a3.07,3.07,0,0,0-2.31,1V122a5.65,5.65,0,0,1,5.11-2.8C52.69,119.18,54.79,120.65,54.79,124.12Z"/><path class="cls-1" d="M68,119.39c-2.06.24-2.76,2-2.76,8.82,0,6.58.7,8.75,2.76,9v.21a8.92,8.92,0,0,1-8.71-9.17,8.77,8.77,0,0,1,8.71-9Zm10.08,8.82a8.91,8.91,0,0,1-8.68,9.17v-.21c2.07-.21,2.73-2.41,2.73-9,0-6.86-.7-8.61-2.73-8.82v-.21A8.72,8.72,0,0,1,78.1,128.21Z"/><path class="cls-1" d="M94,134.34v.21a7.32,7.32,0,0,1-6,2.83c-3.15,0-5.39-1.43-5.39-4.93V121H80.8l.38-.52h1.44v-3.78a8.89,8.89,0,0,0,5.74-2v5.74h4.72l-.38.52H88.36v11.59c0,1.75.66,3.57,2.31,3.57A5.15,5.15,0,0,0,94,134.34Z"/><path class="cls-1" d="M104,119.39c-2.06.24-2.76,2-2.76,8.82,0,6.58.7,8.75,2.76,9v.21a8.92,8.92,0,0,1-8.71-9.17,8.77,8.77,0,0,1,8.71-9Zm10.08,8.82a8.91,8.91,0,0,1-8.68,9.17v-.21c2.07-.21,2.73-2.41,2.73-9,0-6.86-.7-8.61-2.73-8.82v-.21A8.72,8.72,0,0,1,114.08,128.21Z"/><path class="cls-1" d="M124.79,135c0,.87.53,1.78,2.63,1.78V137h-11v-.21c2.1,0,2.63-.91,2.63-1.78V122.61c0-1.26-.6-1.86-2.6-1.86v-.21a21.51,21.51,0,0,0,8.37-1.36ZM134.24,123a3.74,3.74,0,0,1-3.6,4,2.39,2.39,0,0,1-2-.77A2.56,2.56,0,0,0,130,123.8a1.86,1.86,0,0,0-2-1.89,2.39,2.39,0,0,0-2.1,1.33V123a4.84,4.84,0,0,1,4.55-3.78A3.55,3.55,0,0,1,134.24,123Z"/><path class="cls-1" d="M145.09,119.39c-2.06.24-3,2-3,8.68,0,5,2.55,7.81,5.67,7.81A7.62,7.62,0,0,0,152.9,134v.21c-1.82,2.31-5.15,3.15-7.42,3.15a9.15,9.15,0,0,1-9.35-9.17,9,9,0,0,1,9-9Zm7.77,3.74a3.26,3.26,0,0,1-3.5,3.37,3,3,0,0,1-3-2.21,3,3,0,0,0,1.68-2.56,2.08,2.08,0,0,0-1.51-2.31v-.24C151.08,119.18,152.86,121.14,152.86,123.13Z"/><path class="cls-1" d="M155.76,121a1.89,1.89,0,0,0-1.92-1.22v-.21h9.8v.21c-1.22,0-1.72.84-1.12,2.06l4.59,9.56-3,5.67h-.22Zm-1.54,21.71c0-1.51,1.19-2.77,3.08-3.29a2.77,2.77,0,0,0-.14.87,2.06,2.06,0,0,0,2.07,2.35c1.22,0,2.21-1.3,3.54-3.54H163c-1.93,3.61-3.26,6.72-5.71,6.72A2.91,2.91,0,0,1,154.22,142.67Zm14.36-14.74a9.67,9.67,0,0,0,1-4.51,3.39,3.39,0,0,0-3.57-3.68v-.21h8.71v.21c-1.15,0-1.61.45-2.27,1.64l-3.64,6.87Z"/><path class="cls-1" d="M183.84,119.39c-2.07.24-3,2-3,8.68,0,5,2.56,7.81,5.67,7.81a7.58,7.58,0,0,0,5.11-1.86v.21c-1.82,2.31-5.14,3.15-7.42,3.15a9.15,9.15,0,0,1-9.34-9.17,9,9,0,0,1,9-9Zm7.77,3.74a3.26,3.26,0,0,1-3.5,3.37,3,3,0,0,1-3.05-2.21,3,3,0,0,0,1.68-2.56,2.08,2.08,0,0,0-1.5-2.31v-.24C189.82,119.18,191.61,121.14,191.61,123.13Z"/><path class="cls-1" d="M193.42,112.67a21.36,21.36,0,0,0,8.37-1.37V135c0,.87.53,1.78,2.63,1.78V137h-11v-.21c2.1,0,2.62-.91,2.62-1.78V114.73c0-1.26-.59-1.85-2.59-1.85Z"/><path class="cls-1" d="M206.51,128.21a8.66,8.66,0,0,1,8.58-9v.21c-2.06.24-2.63,2-2.63,8.68,0,5,2.25,7.81,5.36,7.81a7.58,7.58,0,0,0,5.11-1.86v.21c-1.82,2.31-5.14,3.15-7.42,3.15A8.87,8.87,0,0,1,206.51,128.21Zm7.88-1.47c3.08,0,4.38-1,4.38-3.92,0-1.68-.7-3.22-2.28-3.43v-.21c4.62,0,6.86,3.29,6.86,5.95a10.9,10.9,0,0,1-.17,1.82h-8.79Z"/><path class="cls-1" d="M23.26,159.51a21.3,21.3,0,0,0,8.36-1.37V174c0,.87.53,1.78,2.63,1.78V176h-11v-.21c2.1,0,2.63-.91,2.63-1.78V161.58c0-1.27-.6-1.86-2.59-1.86ZM25,152.93c0-1.82,1.47-3.05,3.57-3.05s3.57,1.23,3.57,3.05S30.71,156,28.61,156,25,154.78,25,152.93Z"/><path class="cls-1" d="M35.72,175.82c2.1,0,2.62-.91,2.62-1.78V161.61c0-1.26-.59-1.86-2.59-1.86v-.21a21.54,21.54,0,0,0,8.37-1.36V174c0,.87.52,1.78,2.62,1.78V176h-11Zm12.32,0c2.06,0,2.59-.91,2.59-1.78V163.12c0-2-1-3-2.77-3a3.77,3.77,0,0,0-2.66,1.08V161A7.15,7.15,0,0,1,51,158.18c3.15,0,5.39,1.47,5.39,4.94V174c0,.87.53,1.78,2.63,1.78V176H48Z"/><path class="cls-1" d="M67,171.87a1.79,1.79,0,0,0-2,1.75c0,1,.7,2.31,3.11,2.55v.21C63.51,176.21,61,175,61,172.92a2.73,2.73,0,0,1,3-2.59A3.56,3.56,0,0,1,67,171.87Zm1.15-13.48c-1.29.24-2.55.91-2.52,2.34.11,4.06,11.45,4.73,11.45,10.3,0,3.39-2.87,5.18-7.39,5.35v-.21c1.47-.24,3.12-.77,3.12-2.59,0-3.64-11.48-5-11.48-10.29,0-3.08,2.9-4.94,6.82-5.11Zm8.26,3.4A2.29,2.29,0,0,1,73.83,164a3,3,0,0,1-3-1.69,1.54,1.54,0,0,0,1.57-1.64c0-1-1.33-2.07-2.73-2.24v-.21C73.66,158.39,76.42,159.82,76.42,161.79Z"/><path class="cls-1" d="M87.41,171.45c0,2,.67,3,2.42,3a3.09,3.09,0,0,0,2.41-1.08v.21a5.83,5.83,0,0,1-5.42,2.83c-3.15,0-5.18-1.47-5.18-4.93v-9.84c0-1.26-.6-1.86-2.59-1.86v-.21a21.49,21.49,0,0,0,8.36-1.36Zm11.66,2.24c0,1,.31,1.43.94,1.43s1.12-.52,1.68-1.57h.21c-.56,1.92-2.45,2.83-4.76,2.83S93.29,175,93.29,173V161.61c0-1.26-.59-1.86-2.48-1.86v-.21a22.86,22.86,0,0,0,8.26-1.36Z"/><path class="cls-1" d="M111.7,174c0,.87.53,1.78,2.63,1.78V176h-11v-.21c2.1,0,2.63-.91,2.63-1.78V161.61c0-1.26-.6-1.86-2.6-1.86v-.21a21.51,21.51,0,0,0,8.37-1.36ZM121.15,162a3.74,3.74,0,0,1-3.6,4,2.39,2.39,0,0,1-2-.77,2.56,2.56,0,0,0,1.37-2.38,1.86,1.86,0,0,0-2-1.89,2.39,2.39,0,0,0-2.1,1.33V162a4.84,4.84,0,0,1,4.55-3.78A3.55,3.55,0,0,1,121.15,162Z"/><path class="cls-1" d="M122.66,171.9c0-3,2.8-4.76,6.72-4.76h3.78v.21h-1c-2.52,0-3.71,1.65-3.71,3.82,0,1.92.56,3.39,2.2,3.39a3.84,3.84,0,0,0,2.56-1.22v.21a7.45,7.45,0,0,1-5.57,2.83C124.62,176.38,122.62,174.7,122.66,171.9Zm1.4-9.9c0-1.79,1.61-3.61,6.37-3.82v.21a2.55,2.55,0,0,0-2.24,2.55c0,1.27.87,2,2.27,2.14a3.93,3.93,0,0,1-3.36,1.68A2.8,2.8,0,0,1,124.06,162Zm10.15,10.43V161.71c0-1.71-.67-3.08-2.38-3.32v-.21c5.81.21,8.12,2.41,8.12,7v8.51c0,1,.35,1.43,1,1.43s1.12-.52,1.68-1.57h.21c-.56,1.92-2.45,2.83-4.55,2.83C135.47,176.38,134.21,175.4,134.21,172.43Z"/><path class="cls-1" d="M143.9,175.82c2.1,0,2.62-.91,2.62-1.78V161.61c0-1.26-.59-1.86-2.59-1.86v-.21a21.51,21.51,0,0,0,8.37-1.36V174c0,.87.53,1.78,2.63,1.78V176h-11Zm12.32,0c2.07,0,2.59-.91,2.59-1.78V163.12c0-2-1-3-2.76-3a3.77,3.77,0,0,0-2.66,1.08V161a7.14,7.14,0,0,1,5.81-2.83c3.15,0,5.39,1.47,5.39,4.94V174c0,.87.52,1.78,2.62,1.78V176h-11Z"/><path class="cls-1" d="M178.06,158.39c-2.06.24-3,2-3,8.68,0,5,2.56,7.81,5.68,7.81a7.62,7.62,0,0,0,5.11-1.86v.21c-1.82,2.31-5.15,3.15-7.42,3.15a9.15,9.15,0,0,1-9.35-9.17,9,9,0,0,1,9-9Zm7.77,3.74a3.26,3.26,0,0,1-3.5,3.37,3,3,0,0,1-3-2.21,3,3,0,0,0,1.68-2.56,2.08,2.08,0,0,0-1.51-2.31v-.24C184.05,158.18,185.83,160.14,185.83,162.13Z"/><path class="cls-1" d="M188.46,167.21a8.66,8.66,0,0,1,8.57-9v.21c-2.07.24-2.62,2-2.62,8.68,0,5,2.24,7.81,5.35,7.81a7.58,7.58,0,0,0,5.11-1.86v.21c-1.82,2.31-5.14,3.15-7.42,3.15A8.87,8.87,0,0,1,188.46,167.21Zm7.87-1.47c3.08,0,4.38-1,4.38-3.92,0-1.68-.7-3.22-2.28-3.43v-.21c4.62,0,6.86,3.29,6.86,5.95a10.9,10.9,0,0,1-.17,1.82h-8.79Z"/><rect class="cls-2" width="320" height="480"/></svg>