<?xml version="1.0" encoding="utf-8"?>
<!-- Generator: Adobe Illustrator 24.0.3, SVG Export Plug-In . SVG Version: 6.00 Build 0)  -->
<svg version="1.1" id="Layer_1" xmlns="http://www.w3.org/2000/svg" xmlns:xlink="http://www.w3.org/1999/xlink" x="0px" y="0px"
	 viewBox="0 0 320 480" style="enable-background:new 0 0 320 480;" xml:space="preserve">
<style type="text/css">
	.st0{enable-background:new    ;}
	.st1{fill:#263845;}
	.st2{fill:none;}
</style>
<title>Artboard 1 copy 3</title>
<g class="st0">
	<path class="st1" d="M29.5,35.8l0.3,0.5l0.3,17.2c0,1.8,1.3,3.4,4,3.4v0.2h-9V57c2.7,0,4-1.7,4-3.4L29.5,35.8z M51.3,57.3h-4.6
		L29.6,31.7c-1.1-1.6-2.3-2.1-4.4-2.1v-0.2h11L51.3,52V57.3z M51.2,47.8l-0.3-0.5l-0.5-14.3c0-1.8-1.3-3.4-4-3.4v-0.2h9v0.2
		c-2.7,0-4,1.7-4,3.4L51.2,47.8z"/>
	<path class="st1" d="M73.8,29.4h7.8L65.3,57.3h-7.8L73.8,29.4z M58.7,29.4h12.4L71,29.6C64.9,29.9,60,34.1,59,39.3h-0.3V29.4z
		 M68.1,57c6.2-0.5,11.1-4.4,12.8-11h0.3v11.2H68L68.1,57z"/>
</g>
<g class="st0">
	<path class="st1" d="M93,30.7c0,2.4-2.5,5.5-6.7,7.2l-0.1-0.4c1.2-0.9,2.3-2.5,2.3-4c0-1.8-1.3-2.7-2.8-2.7
		c0.3-2.4,1.8-3.7,3.9-3.7C91.5,27.1,93,28.4,93,30.7z"/>
</g>
<g class="st0">
	<path class="st1" d="M101.5,52.4c-1.4,0-2.3,0.8-2.3,2.1c0,1.2,0.8,2.7,3.7,3v0.2c-5.5-0.2-8.5-1.7-8.5-4.1c0-1.9,1.6-3,3.5-3
		C99.5,50.6,100.9,51.4,101.5,52.4z M102.8,36.6c-1.5,0.3-3,1.1-3,2.8c0.1,4.8,13.4,5.5,13.4,12.1c0,4-3.4,6.1-8.7,6.3v-0.2
		c1.7-0.3,3.7-0.9,3.7-3c0-4.3-13.5-5.8-13.5-12.1c0-3.6,3.4-5.8,8-6V36.6z M112.5,40.6c0,1.3-1,2.5-3,2.5c-1.7,0-3-0.7-3.5-2
		c1.2-0.1,1.9-0.9,1.8-1.9c0-1.2-1.6-2.4-3.2-2.6v-0.2C109.3,36.6,112.5,38.3,112.5,40.6z"/>
	<path class="st1" d="M126.2,28.7c3.8,0,6.9-0.4,9.8-1.6v27.8c0,1,0.6,2.1,3.1,2.1v0.2h-12.9V57c2.5,0,3.1-1.1,3.1-2.1V31.1
		c0-1.5-0.7-2.2-3-2.2V28.7z"/>
	<path class="st1" d="M141.6,46.9c0-6.9,5.3-10.6,10.1-10.6v0.2c-2.4,0.3-3.1,2.3-3.1,10.2c0,5.9,2.6,9.2,6.3,9.2
		c2.3,0,4.1-0.7,6-2.2V54c-2.1,2.7-6,3.7-8.7,3.7C146.9,57.7,141.6,53.8,141.6,46.9z M150.8,45.2c3.6,0,5.1-1.1,5.1-4.6
		c0-2-0.8-3.8-2.7-4v-0.2c5.4,0,8,3.9,8,7c0,0.7-0.1,1.5-0.2,2.1h-10.3V45.2z"/>
	<path class="st1" d="M164.3,52.4c0-3.6,3.3-5.6,7.9-5.6h4.4v0.2h-1.2c-3,0-4.4,1.9-4.4,4.5c0,2.3,0.7,4,2.6,4c1.2,0,2.1-0.6,3-1.4
		v0.2c-1.4,1.6-3.5,3.3-6.5,3.3C166.6,57.7,164.2,55.7,164.3,52.4z M165.9,40.8c0-2.1,1.9-4.2,7.5-4.5v0.2c-1.6,0.2-2.6,1.6-2.6,3
		c0,1.5,1,2.4,2.7,2.5c-0.6,1.1-2.3,2-3.9,2C167.2,44.1,165.9,42.5,165.9,40.8z M177.8,53.1V40.5c0-2-0.8-3.6-2.8-3.9v-0.2
		c6.8,0.2,9.5,2.8,9.5,8.2v10c0,1.2,0.4,1.7,1.1,1.7c0.6,0,1.3-0.6,2-1.8h0.2c-0.7,2.3-2.9,3.3-5.3,3.3
		C179.3,57.7,177.8,56.5,177.8,53.1z"/>
	<path class="st1" d="M204.5,39.6V40c-0.9-1-2.1-1.5-3.4-1.5c-2.1,0-4,0.9-4,8.4c0,7.4,2.1,8.7,4,8.7c1.3,0,2.4-0.7,3.4-1.4v0.2
		c-1,1.7-3.6,3.3-6,3.3c-3.9,0-8.5-2.3-8.5-10.9c0-8.2,4.5-10.5,8.5-10.5C200.9,36.3,203.5,37.9,204.5,39.6z M212.5,54.5
		c0,1.2,0.4,1.7,1.1,1.7c0.6,0,1.3-0.6,2-1.8h0.2c-0.7,2.3-2.9,3.3-5.3,3.3c-3.3,0-4.8-1.1-4.8-4.6V31.1c0-1.5-0.7-2.2-3-2.2v-0.2
		c3.8,0,6.4-0.4,9.8-1.6V54.5z"/>
	<path class="st1" d="M217.6,37.9c3.8,0,6.9-0.4,9.8-1.6v18.6c0,1,0.6,2.1,3.1,2.1v0.2h-12.9V57c2.5,0,3.1-1.1,3.1-2.1V40.3
		c0-1.5-0.7-2.2-3-2.2V37.9z M219.7,30.2c0-2.1,1.7-3.6,4.2-3.6s4.2,1.4,4.2,3.6c0,2.2-1.7,3.6-4.2,3.6S219.7,32.4,219.7,30.2z"/>
	<path class="st1" d="M232.2,57c2.5,0,3.1-1.1,3.1-2.1V40.4c0-1.5-0.7-2.2-3-2.2v-0.2c3.8,0,6.9-0.4,9.8-1.6v18.6
		c0,1,0.6,2.1,3.1,2.1v0.2h-12.9V57z M246.7,57c2.4,0,3-1.1,3-2.1V42.1c0-2.3-1.2-3.5-3.2-3.5c-1.2,0-2.1,0.4-3.1,1.3v-0.2
		c1.1-1.7,3.8-3.3,6.8-3.3c3.7,0,6.3,1.7,6.3,5.8v12.8c0,1,0.6,2.1,3.1,2.1v0.2h-12.9V57z"/>
	<path class="st1" d="M262,43.8c0-5.3,5-7.4,9.2-7.4v0.2c-1.8,0.2-2.6,2.3-2.6,7.1c0,5,0.8,7,2.6,7.1V51C267,51,262,49.1,262,43.8z
		 M272.9,67.3c4.1-0.5,5.4-2.7,5.4-4.2c0-5.7-16-0.6-16-8c0-1.7,0.9-3,2.8-4.2l0.1,0.2c-0.2,0.2-0.4,0.5-0.4,0.8
		c0,4.6,18.7-0.7,18.7,8.2c0,4.2-3.7,7-10.6,7.4V67.3z M262.3,63.9c0-2.4,3-3.2,6.2-3.2c-0.7,0.3-1.8,1.5-1.8,2.9
		c0,1.9,2.1,3.3,4.5,3.7v0.2C266.9,67.5,262.3,66.6,262.3,63.9z M272.9,50.8c2-0.2,2.8-2.2,2.8-7.1c0-4.8-0.9-6.9-2.8-7.1v-0.2
		c4.4,0.1,9.4,2.1,9.4,7.4c0,5.3-5.1,7.3-9.4,7.3V50.8z M275.1,35.6c0.7-2.1,2.6-4.9,5.4-4.9c2.2,0,3.5,1.1,3.5,3.1
		c0,2-1.8,3.2-3.3,3.2c0-1.7-0.9-2.8-2.2-2.8c-1.2,0-2.6,0.7-3.2,1.5L275.1,35.6z"/>
</g>
<g class="st0">
	<path class="st1" d="M25.2,79c3.8,0,6.9-0.4,9.8-1.6V96c0,1,0.6,2.1,3.1,2.1v0.2H25.2v-0.2c2.5,0,3.1-1.1,3.1-2.1V81.4
		c0-1.5-0.7-2.2-3-2.2V79z M27.3,71.2c0-2.1,1.7-3.6,4.2-3.6c2.5,0,4.2,1.4,4.2,3.6c0,2.2-1.7,3.6-4.2,3.6
		C29,74.9,27.3,73.4,27.3,71.2z"/>
	<path class="st1" d="M39.8,98.1c2.5,0,3.1-1.1,3.1-2.1V81.4c0-1.5-0.7-2.2-3-2.2V79c3.8,0,6.9-0.4,9.8-1.6V96c0,1,0.6,2.1,3.1,2.1
		v0.2H39.8V98.1z M54.3,98.1c2.4,0,3-1.1,3-2.1V83.2c0-2.3-1.2-3.5-3.2-3.5c-1.1,0-2.1,0.4-3.1,1.3v-0.2c1.1-1.7,3.8-3.3,6.8-3.3
		c3.7,0,6.3,1.7,6.3,5.8V96c0,1,0.6,2.1,3.1,2.1v0.2H54.3V98.1z"/>
	<path class="st1" d="M76.5,93.5c-1.4,0-2.3,0.8-2.3,2.1c0,1.2,0.8,2.7,3.7,3v0.2c-5.5-0.2-8.5-1.7-8.5-4.1c0-1.9,1.6-3,3.5-3
		C74.6,91.6,75.9,92.4,76.5,93.5z M77.9,77.6c-1.5,0.3-3,1.1-3,2.8c0.1,4.8,13.4,5.5,13.4,12.1c0,4-3.4,6.1-8.7,6.3v-0.2
		c1.7-0.3,3.7-0.9,3.7-3c0-4.3-13.5-5.8-13.5-12.1c0-3.6,3.4-5.8,8-6V77.6z M87.6,81.6c0,1.3-1,2.5-3,2.5c-1.7,0-3-0.7-3.5-2
		c1.2-0.1,1.9-0.9,1.8-1.9c0-1.2-1.6-2.4-3.2-2.6v-0.2C84.3,77.6,87.6,79.3,87.6,81.6z"/>
	<path class="st1" d="M100.5,93c0,2.3,0.8,3.5,2.8,3.5c1.1,0,1.9-0.3,2.8-1.3v0.2c-0.9,1.8-3,3.3-6.4,3.3c-3.7,0-6.1-1.7-6.1-5.8
		V81.4c0-1.5-0.7-2.2-3-2.2V79c3.8,0,6.9-0.4,9.8-1.6V93z M114.2,95.6c0,1.2,0.4,1.7,1.1,1.7c0.6,0,1.3-0.6,2-1.8h0.2
		c-0.7,2.3-2.9,3.3-5.6,3.3c-2.9,0-4.5-1.6-4.5-4V81.4c0-1.5-0.7-2.2-2.9-2.2V79c3.7,0,6.2-0.4,9.7-1.6V95.6z"/>
</g>
<g class="st0">
	<path class="st1" d="M129,96c0,1,0.6,2.1,3.1,2.1v0.2h-12.9v-0.2c2.5,0,3.1-1.1,3.1-2.1V81.4c0-1.5-0.7-2.2-3-2.2V79
		c3.8,0,6.9-0.4,9.8-1.6V96z M140.1,81.8c0,2.8-2,4.7-4.2,4.7c-1,0-1.8-0.2-2.3-0.9c0.8-0.4,1.6-1.3,1.6-2.8c0-1.2-0.9-2.2-2.3-2.2
		c-1.1,0-1.9,0.6-2.5,1.6v-0.3c0.8-2.6,2.8-4.4,5.3-4.4C138.5,77.4,140.1,79.4,140.1,81.8z"/>
</g>
<g class="st0">
	<path class="st1" d="M141.8,93.5c0-3.6,3.3-5.6,7.9-5.6h4.4v0.2h-1.2c-3,0-4.4,1.9-4.4,4.5c0,2.3,0.7,4,2.6,4c1.2,0,2.1-0.6,3-1.4
		v0.2c-1.4,1.6-3.5,3.3-6.5,3.3C144.1,98.8,141.8,96.8,141.8,93.5z M143.5,81.9c0-2.1,1.9-4.2,7.5-4.5v0.2c-1.6,0.2-2.6,1.6-2.6,3
		c0,1.5,1,2.4,2.7,2.5c-0.6,1.1-2.3,2-3.9,2C144.8,85.1,143.5,83.6,143.5,81.9z M155.4,94.1V81.5c0-2-0.8-3.6-2.8-3.9v-0.2
		c6.8,0.2,9.5,2.8,9.5,8.2v10c0,1.2,0.4,1.7,1.1,1.7c0.6,0,1.3-0.6,2-1.8h0.2c-0.7,2.3-2.9,3.3-5.3,3.3
		C156.9,98.8,155.4,97.6,155.4,94.1z"/>
	<path class="st1" d="M166.7,98.1c2.5,0,3.1-1.1,3.1-2.1V81.4c0-1.5-0.7-2.2-3-2.2V79c3.8,0,6.9-0.4,9.8-1.6V96c0,1,0.6,2.1,3.1,2.1
		v0.2h-12.9V98.1z M181.2,98.1c2.4,0,3-1.1,3-2.1V83.2c0-2.3-1.2-3.5-3.2-3.5c-1.1,0-2.1,0.4-3.1,1.3v-0.2c1.1-1.7,3.8-3.3,6.8-3.3
		c3.7,0,6.3,1.7,6.3,5.8V96c0,1,0.6,2.1,3.1,2.1v0.2h-12.9V98.1z"/>
	<path class="st1" d="M206.8,77.6c-2.4,0.3-3.5,2.3-3.5,10.2c0,5.9,3,9.2,6.7,9.2c2.3,0,4.1-0.7,6-2.2v0.2c-2.1,2.7-6,3.7-8.7,3.7
		c-5.3,0-11-3.9-11-10.8s5.7-10.6,10.5-10.6V77.6z M215.9,82c0,2.2-1.5,3.9-4.1,3.9c-2,0-3.3-1.3-3.6-2.6c1.1-0.5,2-1.9,2-3
		c0-0.9-0.2-2.4-1.8-2.7v-0.3C213.8,77.4,215.9,79.7,215.9,82z"/>
	<path class="st1" d="M219,88c0-6.9,5.3-10.6,10.1-10.6v0.2c-2.4,0.3-3.1,2.3-3.1,10.2c0,5.9,2.6,9.2,6.3,9.2c2.3,0,4.1-0.7,6-2.2
		v0.2c-2.1,2.7-6,3.7-8.7,3.7C224.3,98.8,219,94.9,219,88z M228.3,86.3c3.6,0,5.1-1.1,5.1-4.6c0-2-0.8-3.8-2.7-4v-0.2
		c5.4,0,8,3.9,8,7c0,0.7-0.1,1.5-0.2,2.1h-10.3V86.3z"/>
</g>
<g class="st0">
	<path class="st1" d="M33,134.5c-1.4,0-2.3,0.8-2.3,2.1c0,1.2,0.8,2.7,3.7,3v0.2c-5.5-0.2-8.5-1.7-8.5-4.1c0-1.9,1.6-3,3.5-3
		C31,132.7,32.4,133.5,33,134.5z M34.4,118.7c-1.5,0.3-3,1.1-3,2.8c0.1,4.8,13.4,5.5,13.4,12.1c0,4-3.4,6.1-8.7,6.3v-0.2
		c1.7-0.3,3.7-0.9,3.7-3c0-4.3-13.5-5.8-13.5-12.1c0-3.6,3.4-5.8,8-6V118.7z M44.1,122.7c0,1.3-1,2.5-3,2.5c-1.7,0-3-0.7-3.5-2
		c1.2-0.1,1.9-0.9,1.8-1.9c0-1.2-1.6-2.4-3.2-2.6v-0.2C40.8,118.7,44.1,120.4,44.1,122.7z"/>
	<path class="st1" d="M57,145.6c0,1.5,0.7,2.2,3,2.2v0.2c-3.8,0-6.4,0.4-9.8,1.6v-27.2c0-1.5-0.7-2.2-3-2.2V120
		c3.8,0,6.4-0.4,9.8-1.6V145.6z M72.7,128.9c0,8.6-4.5,10.9-8.4,10.9c-2.3,0-5-1.6-6-3.3v-0.2c1,0.8,2.1,1.4,3.4,1.4
		c1.9,0,4-1.4,4-8.7c0-7.4-1.9-8.4-4-8.4c-1.3,0-2.5,0.5-3.4,1.5v-0.3c1-1.7,3.7-3.3,6-3.3C68.2,118.5,72.7,120.8,72.7,128.9z"/>
	<path class="st1" d="M76.3,129.1c0-6.9,5.3-10.6,10.1-10.6v0.2c-2.4,0.3-3.1,2.3-3.1,10.2c0,5.9,2.6,9.2,6.3,9.2
		c2.3,0,4.1-0.7,6-2.2v0.2c-2.1,2.7-6,3.7-8.7,3.7C81.6,139.8,76.3,136,76.3,129.1z M85.5,127.3c3.6,0,5.1-1.1,5.1-4.6
		c0-2-0.8-3.8-2.7-4v-0.2c5.4,0,8,3.9,8,7c0,0.7-0.1,1.5-0.2,2.1H85.5V127.3z"/>
	<path class="st1" d="M109.9,118.7c-2.4,0.3-3.5,2.3-3.5,10.2c0,5.9,3,9.2,6.7,9.2c2.3,0,4.1-0.7,6-2.2v0.2c-2.1,2.7-6,3.7-8.7,3.7
		c-5.3,0-11-3.9-11-10.8c0-6.9,5.7-10.6,10.5-10.6V118.7z M119,123.1c0,2.2-1.5,3.9-4.1,3.9c-2,0-3.3-1.3-3.6-2.6c1.1-0.5,2-1.9,2-3
		c0-0.9-0.2-2.4-1.8-2.7v-0.3C116.9,118.5,119,120.8,119,123.1z"/>
	<path class="st1" d="M121.5,120c3.8,0,6.9-0.4,9.8-1.6v18.6c0,1,0.6,2.1,3.1,2.1v0.2h-12.9v-0.2c2.5,0,3.1-1.1,3.1-2.1v-14.6
		c0-1.5-0.7-2.2-3-2.2V120z M123.6,112.3c0-2.1,1.7-3.6,4.2-3.6c2.5,0,4.2,1.4,4.2,3.6c0,2.2-1.7,3.6-4.2,3.6
		C125.3,115.9,123.6,114.5,123.6,112.3z"/>
	<path class="st1" d="M136.4,134.6c0-3.6,3.3-5.6,7.9-5.6h4.4v0.2h-1.2c-3,0-4.4,1.9-4.4,4.5c0,2.3,0.7,4,2.6,4c1.1,0,2.1-0.6,3-1.4
		v0.2c-1.4,1.6-3.5,3.3-6.5,3.3C138.7,139.8,136.4,137.8,136.4,134.6z M138,122.9c0-2.1,1.9-4.2,7.5-4.5v0.2c-1.6,0.2-2.6,1.6-2.6,3
		c0,1.5,1,2.4,2.7,2.5c-0.6,1.1-2.3,2-3.9,2C139.4,126.2,138,124.7,138,122.9z M150,135.2v-12.6c0-2-0.8-3.6-2.8-3.9v-0.2
		c6.8,0.2,9.5,2.8,9.5,8.2v10c0,1.2,0.4,1.7,1.1,1.7c0.6,0,1.3-0.6,2-1.8h0.2c-0.7,2.3-2.9,3.3-5.3,3.3
		C151.4,139.8,150,138.7,150,135.2z"/>
	<path class="st1" d="M161.1,110.8c3.8,0,6.9-0.4,9.8-1.6v27.8c0,1,0.6,2.1,3.1,2.1v0.2h-12.9v-0.2c2.5,0,3.1-1.1,3.1-2.1v-23.8
		c0-1.5-0.7-2.2-3-2.2V110.8z"/>
	<path class="st1" d="M175.8,120c3.8,0,6.9-0.4,9.8-1.6v18.6c0,1,0.6,2.1,3.1,2.1v0.2h-12.9v-0.2c2.5,0,3.1-1.1,3.1-2.1v-14.6
		c0-1.5-0.7-2.2-3-2.2V120z M177.9,112.3c0-2.1,1.7-3.6,4.2-3.6s4.2,1.4,4.2,3.6c0,2.2-1.7,3.6-4.2,3.6S177.9,114.5,177.9,112.3z"/>
	<path class="st1" d="M198.3,134.5c-1.4,0-2.3,0.8-2.3,2.1c0,1.2,0.8,2.7,3.7,3v0.2c-5.5-0.2-8.5-1.7-8.5-4.1c0-1.9,1.6-3,3.5-3
		C196.4,132.7,197.7,133.5,198.3,134.5z M199.7,118.7c-1.5,0.3-3,1.1-3,2.8c0.1,4.8,13.4,5.5,13.4,12.1c0,4-3.4,6.1-8.7,6.3v-0.2
		c1.7-0.3,3.7-0.9,3.7-3c0-4.3-13.5-5.8-13.5-12.1c0-3.6,3.4-5.8,8-6V118.7z M209.4,122.7c0,1.3-1,2.5-3,2.5c-1.7,0-3-0.7-3.5-2
		c1.2-0.1,1.9-0.9,1.8-1.9c0-1.2-1.6-2.4-3.2-2.6v-0.2C206.1,118.7,209.4,120.4,209.4,122.7z"/>
	<path class="st1" d="M228.8,136.2v0.2c-1.3,1.9-3.9,3.3-7,3.3c-3.7,0-6.3-1.7-6.3-5.8v-13.5h-2.1l0.5-0.6h1.7v-4.4
		c2.5,0,5-0.8,6.7-2.3v6.7h5.5l-0.5,0.6h-5.1v13.6c0,2.1,0.8,4.2,2.7,4.2C226,138.3,227.4,137.6,228.8,136.2z"/>
</g>
<rect y="0" class="st2" width="320" height="480"/>
</svg>
