<svg id="Layer_1" data-name="Layer 1" xmlns="http://www.w3.org/2000/svg" viewBox="0 0 320 480"><defs><style>.cls-1{fill:#ffac00;}.cls-2{fill:#fff;}.cls-3{fill:none;}</style></defs><title>Artboard 1 copy</title><path class="cls-1" d="M24.44,205.06v51.51a18.37,18.37,0,0,0,9.91,16.31l77.21,40.06a23,23,0,0,0,21.15,0l77.21-40.06a18.37,18.37,0,0,0,9.91-16.31V205.06a8.58,8.58,0,0,0-8.58-8.58H33A8.58,8.58,0,0,0,24.44,205.06Z"/><path class="cls-2" d="M106.84,233.25l.35-.51c.25-.35.52-.37.92-.15a3.88,3.88,0,0,0,2.29.83c1,0,1.68-.52,1.68-1.29,0-2.14-5.26-1.7-5.26-5.21,0-2,1.65-3.28,3.8-3.28a5.24,5.24,0,0,1,2.91.86.63.63,0,0,1,.21.91l-.29.52c-.24.46-.57.4-.91.22a3.68,3.68,0,0,0-2-.62c-1,0-1.72.51-1.72,1.28,0,2.11,5.26,1.57,5.26,5.16,0,1.83-1.36,3.34-3.73,3.34a6,6,0,0,1-3.47-1.14A.59.59,0,0,1,106.84,233.25Z"/><path class="cls-2" d="M118.68,225.6h-3A.59.59,0,0,1,115,225v-.45a.6.6,0,0,1,.67-.67h8.11a.6.6,0,0,1,.65.67V225a.59.59,0,0,1-.65.65h-3v8.85a.59.59,0,0,1-.67.67h-.72a.59.59,0,0,1-.65-.67Z"/><path class="cls-2" d="M127.09,224.37a.73.73,0,0,1,.75-.54h1a.71.71,0,0,1,.74.54l3.53,10c.16.46,0,.76-.54.76h-.73a.71.71,0,0,1-.75-.54l-.79-2.35h-4l-.78,2.34a.71.71,0,0,1-.75.55h-.73c-.49,0-.7-.3-.54-.76Zm2.72,6.19-1-3c-.19-.64-.45-1.75-.45-1.75h0s-.25,1.11-.44,1.75l-1,3Z"/><path class="cls-2" d="M134.56,224.5a.59.59,0,0,1,.65-.67h3a5.3,5.3,0,0,1,2.15.3,3.15,3.15,0,0,1,1.89,3.09,3.25,3.25,0,0,1-1.87,3.08v0a3.93,3.93,0,0,1,.36.58l1.86,3.41c.27.46.07.79-.46.79h-.86a.81.81,0,0,1-.78-.46l-2-3.75h-2v3.54a.58.58,0,0,1-.65.67h-.73a.58.58,0,0,1-.65-.67Zm3.88,4.63a1.66,1.66,0,0,0,1.78-1.8,1.52,1.52,0,0,0-.89-1.54,2.79,2.79,0,0,0-1.23-.19h-1.51v3.53Z"/><path class="cls-2" d="M107.58,238.29a.35.35,0,0,1,.38-.39h.34a.35.35,0,0,1,.38.39v10.39a.35.35,0,0,1-.38.39H108a.35.35,0,0,1-.38-.39Z"/><path class="cls-2" d="M111.33,241.47a.35.35,0,0,1,.39-.39H112a.35.35,0,0,1,.38.39v.93a2.83,2.83,0,0,1-.06.57h0a3.53,3.53,0,0,1,3.23-2.08c2,0,2.68,1.12,2.68,3.1v4.69a.35.35,0,0,1-.39.39h-.31a.35.35,0,0,1-.38-.39v-4.41c0-1.25-.2-2.37-1.75-2.37a3.1,3.1,0,0,0-3,3.26v3.52a.35.35,0,0,1-.38.39h-.31a.35.35,0,0,1-.39-.39Z"/><path class="cls-2" d="M120,247.8l.13-.16c.14-.19.32-.2.54-.06a3.46,3.46,0,0,0,2.12.73c.89,0,1.62-.44,1.62-1.29,0-1.79-4.28-1.25-4.28-3.89,0-1.48,1.26-2.24,2.72-2.24a3.67,3.67,0,0,1,2.19.65.34.34,0,0,1,.11.52l-.11.18c-.12.22-.31.24-.54.11a3,3,0,0,0-1.71-.51c-.85,0-1.58.36-1.58,1.24,0,1.84,4.26,1.26,4.26,3.93,0,1.32-1.11,2.25-2.7,2.25a4.11,4.11,0,0,1-2.7-.92A.36.36,0,0,1,120,247.8Z"/><path class="cls-2" d="M127.07,241.47a.34.34,0,0,1,.38-.39h.3a.36.36,0,0,1,.4.39v4.41c0,1.25.19,2.37,1.73,2.37a3.11,3.11,0,0,0,3-3.34v-3.44a.36.36,0,0,1,.4-.39h.3a.35.35,0,0,1,.38.39v7.21a.35.35,0,0,1-.38.39h-.29a.35.35,0,0,1-.38-.39v-.93a3.38,3.38,0,0,1,0-.57h0a3.48,3.48,0,0,1-3.15,2.08c-1.89,0-2.67-1-2.67-3.1Z"/><path class="cls-2" d="M136.26,241.47a.36.36,0,0,1,.4-.39H137a.35.35,0,0,1,.38.39v1.08a3,3,0,0,1-.07.64h0a2.85,2.85,0,0,1,2.57-2.16c.29,0,.42.13.42.38v.29c0,.25-.18.39-.45.39-1.68,0-2.5,1.93-2.5,3.6v3a.34.34,0,0,1-.38.39h-.3a.36.36,0,0,1-.4-.39Z"/><path class="cls-2" d="M145.79,244.18h.46v-.26c0-1.54-.84-2.06-2-2.06a3.8,3.8,0,0,0-1.94.55.37.37,0,0,1-.54-.13l-.09-.15a.37.37,0,0,1,.11-.55,4.91,4.91,0,0,1,2.54-.69c1.91,0,3,1.06,3,3.06v4.73a.34.34,0,0,1-.38.39h-.25a.35.35,0,0,1-.4-.39V248a3.11,3.11,0,0,1,0-.6h0a3,3,0,0,1-2.71,1.82,2.45,2.45,0,0,1-2.7-2.33C140.91,244.32,144.25,244.18,145.79,244.18Zm-2,4.18c1.55,0,2.45-1.59,2.45-3V245h-.44c-1.26,0-3.79,0-3.79,1.84A1.6,1.6,0,0,0,143.8,248.36Z"/><path class="cls-2" d="M149.6,241.47a.36.36,0,0,1,.4-.39h.29a.35.35,0,0,1,.38.39v.93a2.45,2.45,0,0,1-.07.57h0a3.53,3.53,0,0,1,3.22-2.08c2,0,2.69,1.12,2.69,3.1v4.69a.36.36,0,0,1-.4.39h-.3a.35.35,0,0,1-.38-.39v-4.41c0-1.25-.21-2.37-1.75-2.37a3.11,3.11,0,0,0-3,3.26v3.52a.34.34,0,0,1-.38.39H150a.36.36,0,0,1-.4-.39Z"/><path class="cls-2" d="M162.53,240.89a4.2,4.2,0,0,1,2.66.9.34.34,0,0,1,.05.54l-.12.18c-.14.22-.31.22-.54.08a3.28,3.28,0,0,0-2-.73,3.22,3.22,0,0,0,0,6.43,3.5,3.5,0,0,0,2.26-.84.31.31,0,0,1,.52.1l.12.16a.4.4,0,0,1-.1.54,4.47,4.47,0,0,1-2.85,1,4.19,4.19,0,1,1,0-8.37Z"/><path class="cls-2" d="M170.41,240.89c2.13,0,3.34,1.54,3.34,3.81a.41.41,0,0,1-.42.4h-5.75a3,3,0,0,0,3.1,3.19,3.42,3.42,0,0,0,2.1-.73c.22-.14.4-.11.52.1l.13.19a.37.37,0,0,1-.11.52,4.54,4.54,0,0,1-2.67.89,4,4,0,0,1-4.18-4.18A3.9,3.9,0,0,1,170.41,240.89Zm2.24,3.4a2.29,2.29,0,0,0-2.27-2.51,2.75,2.75,0,0,0-2.75,2.51Z"/><path class="cls-2" d="M107.77,253.45a.63.63,0,0,1,.69-.64h1a.72.72,0,0,1,.75.54l2,5c.25.67.57,1.65.57,1.65h0s.3-1,.56-1.65l2-5a.71.71,0,0,1,.76-.54h1a.62.62,0,0,1,.68.64l.81,10a.58.58,0,0,1-.64.68h-.71a.63.63,0,0,1-.69-.64l-.43-5.67c0-.75,0-1.75,0-1.75h0s-.35,1.09-.61,1.75l-1.63,3.84a.73.73,0,0,1-.75.53h-.67a.72.72,0,0,1-.76-.53l-1.63-3.84c-.25-.66-.62-1.77-.62-1.77h0s0,1,0,1.77l-.43,5.67a.62.62,0,0,1-.69.64h-.71a.58.58,0,0,1-.64-.68Z"/><path class="cls-2" d="M124.57,255.8a4.25,4.25,0,1,1-4.45,4.24A4.27,4.27,0,0,1,124.57,255.8Zm0,6.77a2.53,2.53,0,1,0-2.4-2.53A2.41,2.41,0,0,0,124.57,262.57Z"/><path class="cls-2" d="M130.71,257.71h-.43a.59.59,0,0,1-.65-.67v-.27a.6.6,0,0,1,.67-.67h.46v-1.65a.61.61,0,0,1,.67-.67h.63a.61.61,0,0,1,.67.67v1.65h1.18a.61.61,0,0,1,.67.67V257a.6.6,0,0,1-.66.67h-1.19v3.15a1.34,1.34,0,0,0,1.31,1.51c.49,0,.66.2.66.65v.49c0,.48-.27.67-.82.67a2.91,2.91,0,0,1-3.17-3Z"/><path class="cls-2" d="M139.73,255.8a4.25,4.25,0,1,1-4.45,4.24A4.28,4.28,0,0,1,139.73,255.8Zm0,6.77a2.53,2.53,0,1,0-2.4-2.53A2.41,2.41,0,0,0,139.73,262.57Z"/><path class="cls-2" d="M145.68,256.66a.59.59,0,0,1,.65-.67H147a.61.61,0,0,1,.67.67v.76a3.33,3.33,0,0,1-.05.56h0a2.79,2.79,0,0,1,2.36-2.05c.44,0,.6.22.6.66v.62a.61.61,0,0,1-.68.67c-1.48,0-2.2,1.46-2.2,2.94v2.61a.58.58,0,0,1-.65.67h-.7a.58.58,0,0,1-.65-.67Z"/><path class="cls-2" d="M155.41,255.8a4.53,4.53,0,0,1,2.65.81.6.6,0,0,1,.13.91l-.21.31c-.23.37-.5.37-.89.18a2.83,2.83,0,0,0-1.57-.49,2.41,2.41,0,0,0-2.46,2.51,2.45,2.45,0,0,0,2.52,2.54,3.18,3.18,0,0,0,1.82-.62c.39-.22.7-.17.9.21l.16.3a.63.63,0,0,1-.17.89,4.81,4.81,0,0,1-2.88.94,4.25,4.25,0,1,1,0-8.49Z"/><path class="cls-2" d="M160.17,265.63a1.4,1.4,0,0,0,.57.14,1.55,1.55,0,0,0,1.29-1.08l.3-.72-3.08-7.2c-.21-.46,0-.78.51-.78h.86a.7.7,0,0,1,.74.54l1.53,4.13c.14.43.3,1.1.3,1.1h0s.15-.63.27-1.06l1.44-4.15a.69.69,0,0,1,.74-.56h.8c.49,0,.7.3.54.76l-3.34,8.56a3.06,3.06,0,0,1-2.93,2.13,3.21,3.21,0,0,1-1.13-.24.58.58,0,0,1-.3-.86l.15-.35A.57.57,0,0,1,160.17,265.63Z"/><path class="cls-2" d="M171.86,255.8a4.53,4.53,0,0,1,2.65.81.6.6,0,0,1,.13.91l-.21.31c-.23.37-.51.37-.89.18a2.83,2.83,0,0,0-1.57-.49A2.41,2.41,0,0,0,169.5,260a2.46,2.46,0,0,0,2.53,2.54,3.21,3.21,0,0,0,1.82-.62c.39-.22.7-.17.9.21l.16.3a.63.63,0,0,1-.17.89,4.81,4.81,0,0,1-2.88.94,4.25,4.25,0,1,1,0-8.49Z"/><path class="cls-2" d="M176.26,253.48a.6.6,0,0,1,.66-.67h.7a.6.6,0,0,1,.65.67v7.93c0,.8.33.94.63,1a.52.52,0,0,1,.5.57v.55a.6.6,0,0,1-.67.68c-1.08,0-2.47-.29-2.47-2.61Z"/><path class="cls-2" d="M184.18,255.8c2.3,0,3.59,1.64,3.59,3.86a.71.71,0,0,1-.7.69h-4.94a2.32,2.32,0,0,0,2.43,2.22,3.33,3.33,0,0,0,1.75-.52c.4-.19.68-.14.89.22l.19.32a.61.61,0,0,1-.22.89,5.18,5.18,0,0,1-2.75.81,4.16,4.16,0,0,1-4.36-4.25A4,4,0,0,1,184.18,255.8Zm1.59,3.32a1.65,1.65,0,0,0-1.64-1.79,2,2,0,0,0-2,1.79Z"/><path class="cls-2" d="M69.24,259a1,1,0,0,1-.51-.13,1.1,1.1,0,0,1-.56-1.34l11.77-36.23a2.49,2.49,0,0,1,2.39-1.74h0a2.48,2.48,0,0,1,2.39,1.74l2.39,7.18a.85.85,0,1,1-1.62.54l-2.39-7.19a.78.78,0,0,0-.77-.56h0a.79.79,0,0,0-.77.56L70.92,254.62l15-20.52a4.69,4.69,0,0,1,3.77-1.91h10a2.51,2.51,0,0,1,1.47,4.54L92,243.37l-.1.09,3.54,10.85a2.52,2.52,0,0,1-3.87,2.81l-7.9-5.74a2.53,2.53,0,0,1,0-4.07l6.62-4.79.11-.09,9.73-7.08a.79.79,0,0,0,.3-.9.8.8,0,0,0-.77-.56h-10a3,3,0,0,0-2.39,1.21L70.14,258.57A1.09,1.09,0,0,1,69.24,259Zm21.22-14.52-5.78,4.18a.82.82,0,0,0-.33.66.79.79,0,0,0,.33.65l7.9,5.74a.79.79,0,0,0,1,0,.81.81,0,0,0,.3-.91Z"/><path class="cls-2" d="M69.85,241a.82.82,0,0,1-.49-.16l-5.83-4.12A2.51,2.51,0,0,1,65,232.19h7.14a.85.85,0,1,1,0,1.7H65a.81.81,0,0,0-.48,1.46l5.82,4.12a.85.85,0,0,1-.49,1.55Z"/><path class="cls-2" d="M77.78,271.05a2.81,2.81,0,0,1-1.37-.36l-14.88-8.45a.84.84,0,0,1-.43-.74V243.34a.85.85,0,1,1,1.7,0V261l14.46,8.2a1.09,1.09,0,0,0,1.09,0l10.56-6.62a.85.85,0,0,1,1.17.27.86.86,0,0,1-.27,1.18l-10.56,6.61A2.78,2.78,0,0,1,77.78,271.05Z"/><rect class="cls-3" x="-0.2" width="320" height="480"/></svg>