<svg id="Layer_1" data-name="Layer 1" xmlns="http://www.w3.org/2000/svg" xmlns:xlink="http://www.w3.org/1999/xlink" viewBox="0 0 300 600"><defs><style>.cls-1{fill:none;}.cls-2{clip-path:url(#clip-path);}.cls-3{fill:#fb0010;}.cls-4{fill:#fff;}</style><clipPath id="clip-path"><rect class="cls-1" width="300" height="600"/></clipPath></defs><title>Artboard 1 copy</title><g class="cls-2"><path class="cls-3" d="M20.31,195.38V243.9a17.32,17.32,0,0,0,9.33,15.36L102.36,297a21.63,21.63,0,0,0,19.92,0L195,259.26a17.32,17.32,0,0,0,9.33-15.36V195.38a8.08,8.08,0,0,0-8.08-8.08H28.39A8.08,8.08,0,0,0,20.31,195.38Z"/><path class="cls-4" d="M94.21,221.93l.33-.48c.24-.33.49-.34.87-.13a3.68,3.68,0,0,0,2.15.78c1,0,1.59-.5,1.59-1.22,0-2-5-1.6-5-4.91,0-1.87,1.56-3.08,3.58-3.08a4.94,4.94,0,0,1,2.74.8.6.6,0,0,1,.2.86l-.27.49c-.23.44-.54.38-.86.21a3.48,3.48,0,0,0-1.84-.58c-1,0-1.62.48-1.62,1.2,0,2,5,1.48,5,4.86a3.19,3.19,0,0,1-3.52,3.15,5.65,5.65,0,0,1-3.26-1.08A.56.56,0,0,1,94.21,221.93Z"/><path class="cls-4" d="M105.37,214.73h-2.86a.55.55,0,0,1-.63-.62v-.42a.56.56,0,0,1,.63-.62h7.63a.55.55,0,0,1,.62.62v.42a.55.55,0,0,1-.62.62h-2.86v8.34a.56.56,0,0,1-.63.63H106a.55.55,0,0,1-.61-.63Z"/><path class="cls-4" d="M113.28,213.57a.68.68,0,0,1,.71-.5h1a.66.66,0,0,1,.7.5L119,223a.49.49,0,0,1-.51.72h-.69a.68.68,0,0,1-.71-.51l-.75-2.22H112.6l-.74,2.2a.66.66,0,0,1-.7.53h-.69A.49.49,0,0,1,110,223Zm2.57,5.83-.95-2.85c-.18-.59-.42-1.64-.42-1.64h0s-.24,1.05-.42,1.64l-1,2.85Z"/><path class="cls-4" d="M120.32,213.69a.55.55,0,0,1,.61-.62h2.88a4.78,4.78,0,0,1,2,.28,3,3,0,0,1,1.78,2.9,3.08,3.08,0,0,1-1.77,2.91v0a3.27,3.27,0,0,1,.35.55l1.75,3.21c.26.43.06.75-.43.75h-.81a.77.77,0,0,1-.74-.44l-1.87-3.53h-1.86v3.34c0,.42-.2.63-.61.63h-.69a.55.55,0,0,1-.61-.63Zm3.65,4.36a1.56,1.56,0,0,0,1.68-1.69,1.44,1.44,0,0,0-.84-1.45,2.62,2.62,0,0,0-1.15-.18h-1.43v3.32Z"/><path class="cls-4" d="M94.91,226.68a.33.33,0,0,1,.36-.37h.32a.33.33,0,0,1,.36.37v9.78a.34.34,0,0,1-.36.38h-.32a.33.33,0,0,1-.36-.38Z"/><path class="cls-4" d="M98.44,229.68a.33.33,0,0,1,.37-.37h.27a.33.33,0,0,1,.36.37v.87a2.48,2.48,0,0,1-.06.54h0a3.33,3.33,0,0,1,3-2c1.87,0,2.53,1.06,2.53,2.92v4.41a.34.34,0,0,1-.37.38h-.29a.33.33,0,0,1-.36-.38v-4.14c0-1.19-.19-2.24-1.64-2.24a2.92,2.92,0,0,0-2.86,3.07v3.31a.33.33,0,0,1-.36.38h-.29a.34.34,0,0,1-.37-.38Z"/><path class="cls-4" d="M106.6,235.64l.12-.15c.13-.18.3-.19.51-.06a3.23,3.23,0,0,0,2,.69c.84,0,1.53-.42,1.53-1.21,0-1.7-4-1.19-4-3.67,0-1.4,1.18-2.11,2.56-2.11a3.47,3.47,0,0,1,2.07.61.32.32,0,0,1,.1.49l-.1.17c-.12.21-.3.22-.51.1a2.9,2.9,0,0,0-1.62-.48c-.79,0-1.48.35-1.48,1.17,0,1.74,4,1.19,4,3.7a2.27,2.27,0,0,1-2.54,2.13,4,4,0,0,1-2.55-.87A.34.34,0,0,1,106.6,235.64Z"/><path class="cls-4" d="M113.26,229.68a.33.33,0,0,1,.36-.37h.29a.33.33,0,0,1,.37.37v4.15c0,1.18.18,2.23,1.63,2.23a2.92,2.92,0,0,0,2.79-3.15v-3.23a.33.33,0,0,1,.37-.37h.29a.33.33,0,0,1,.36.37v6.78a.33.33,0,0,1-.36.38h-.27a.33.33,0,0,1-.36-.38v-.86a3.66,3.66,0,0,1,0-.54h0a3.26,3.26,0,0,1-3,2c-1.78,0-2.52-1-2.52-2.92Z"/><path class="cls-4" d="M121.92,229.68a.34.34,0,0,1,.38-.37h.27a.33.33,0,0,1,.36.37v1a3.08,3.08,0,0,1-.06.6h0a2.68,2.68,0,0,1,2.42-2c.27,0,.39.12.39.36v.27c0,.24-.16.37-.42.37-1.58,0-2.35,1.82-2.35,3.39v2.81a.33.33,0,0,1-.36.38h-.28a.35.35,0,0,1-.38-.38Z"/><path class="cls-4" d="M130.9,232.23h.43V232c0-1.46-.79-2-1.85-2a3.53,3.53,0,0,0-1.83.52.35.35,0,0,1-.51-.12l-.09-.15a.34.34,0,0,1,.1-.51,4.62,4.62,0,0,1,2.4-.65,2.56,2.56,0,0,1,2.8,2.89v4.44a.33.33,0,0,1-.36.38h-.24a.33.33,0,0,1-.37-.38v-.6a3.45,3.45,0,0,1,0-.56h0a2.79,2.79,0,0,1-2.54,1.72,2.32,2.32,0,0,1-2.55-2.2C126.3,232.36,129.45,232.23,130.9,232.23ZM129,236.16c1.45,0,2.3-1.49,2.3-2.81V233h-.42c-1.18,0-3.56,0-3.56,1.74A1.5,1.5,0,0,0,129,236.16Z"/><path class="cls-4" d="M134.49,229.68a.33.33,0,0,1,.37-.37h.27a.33.33,0,0,1,.36.37v.87a2.48,2.48,0,0,1-.06.54h0a3.33,3.33,0,0,1,3-2c1.87,0,2.53,1.06,2.53,2.92v4.41a.34.34,0,0,1-.37.38h-.29a.33.33,0,0,1-.36-.38v-4.14c0-1.19-.19-2.24-1.64-2.24a2.92,2.92,0,0,0-2.86,3.07v3.31a.33.33,0,0,1-.36.38h-.29a.34.34,0,0,1-.37-.38Z"/><path class="cls-4" d="M146.67,229.13a4,4,0,0,1,2.5.85c.18.13.19.31,0,.51l-.1.16c-.14.21-.3.21-.51.08a3.08,3.08,0,0,0-1.9-.69,3,3,0,0,0,0,6.06,3.3,3.3,0,0,0,2.13-.79.3.3,0,0,1,.49.09l.11.15a.37.37,0,0,1-.09.51,4.22,4.22,0,0,1-2.68,1,3.95,3.95,0,1,1,0-7.89Z"/><path class="cls-4" d="M154.08,229.13c2,0,3.15,1.45,3.15,3.59a.37.37,0,0,1-.39.37h-5.42a2.86,2.86,0,0,0,2.92,3,3.2,3.2,0,0,0,2-.68.31.31,0,0,1,.5.09l.12.18a.35.35,0,0,1-.11.49,4.26,4.26,0,0,1-2.51.84,3.81,3.81,0,0,1-3.94-3.94A3.68,3.68,0,0,1,154.08,229.13Zm2.11,3.2a2.16,2.16,0,0,0-2.14-2.37,2.6,2.6,0,0,0-2.59,2.37Z"/><path class="cls-4" d="M99.52,240.18a6,6,0,0,1,3.48,1.06.59.59,0,0,1,.12.87l-.27.43c-.21.35-.49.38-.85.15a4.46,4.46,0,0,0-2.4-.75A3.43,3.43,0,0,0,96,245.6a3.56,3.56,0,0,0,3.57,3.8,4.45,4.45,0,0,0,2.61-.93.54.54,0,0,1,.87.11l.3.4a.59.59,0,0,1-.09.87,6,6,0,0,1-3.76,1.32,5.5,5.5,0,0,1,0-11Z"/><path class="cls-4" d="M109,246.27h.31v-.18a1.25,1.25,0,0,0-1.42-1.35,3.38,3.38,0,0,0-1.59.44.57.57,0,0,1-.84-.26l-.15-.28a.56.56,0,0,1,.24-.84,5.45,5.45,0,0,1,2.5-.63,2.84,2.84,0,0,1,3.16,3v4.15a.56.56,0,0,1-.63.63H110a.55.55,0,0,1-.61-.63v-.3a1.5,1.5,0,0,1,0-.33h0a2.79,2.79,0,0,1-2.4,1.44,2.34,2.34,0,0,1-2.53-2.29C104.48,246.65,107.24,246.27,109,246.27Zm-1.43,3.45a1.94,1.94,0,0,0,1.75-2v-.29H109c-1,0-2.59.15-2.59,1.29A1,1,0,0,0,107.52,249.72Z"/><path class="cls-4" d="M113,244a.56.56,0,0,1,.61-.63h.59a.56.56,0,0,1,.61.63v.46a2.47,2.47,0,0,1,0,.35h0a3,3,0,0,1,2.5-1.62,2.11,2.11,0,0,1,2.23,1.57h0a3,3,0,0,1,2.61-1.57c1.59,0,2.5.9,2.5,2.91v4.28a.56.56,0,0,1-.63.63h-.64a.56.56,0,0,1-.63-.63v-3.92c0-.87-.17-1.53-1-1.53-1.29,0-2,1.32-2,2.65v2.8a.55.55,0,0,1-.61.63h-.66a.57.57,0,0,1-.63-.63v-3.92c0-.83-.12-1.53-1-1.53-1.34,0-2,1.38-2,2.65v2.8a.55.55,0,0,1-.62.63h-.66a.55.55,0,0,1-.61-.63Z"/><path class="cls-4" d="M126.46,244a.57.57,0,0,1,.63-.63h.48c.41,0,.62.23.62.53v.34a2.39,2.39,0,0,1,0,.3h0a2.74,2.74,0,0,1,2.46-1.35c2.06,0,3.4,1.63,3.4,4s-1.5,4-3.51,4a2.47,2.47,0,0,1-2.2-1.17h0a5,5,0,0,1,0,.66v2.7a.55.55,0,0,1-.62.62h-.65a.56.56,0,0,1-.63-.62Zm3.75,5.59c1,0,1.91-.86,1.91-2.37s-.77-2.4-1.88-2.4-1.94.72-1.94,2.42A2.1,2.1,0,0,0,130.21,249.57Z"/><path class="cls-4" d="M139,243.17c2.17,0,3.38,1.54,3.38,3.64a.66.66,0,0,1-.66.64H137a2.2,2.2,0,0,0,2.29,2.1,3.23,3.23,0,0,0,1.65-.49c.37-.18.64-.14.83.21l.18.3a.57.57,0,0,1-.21.84,4.85,4.85,0,0,1-2.59.76,3.91,3.91,0,0,1-4.1-4A3.77,3.77,0,0,1,139,243.17Zm1.5,3.13a1.56,1.56,0,0,0-1.55-1.69,1.86,1.86,0,0,0-1.84,1.69Z"/><path class="cls-4" d="M143.78,244a.56.56,0,0,1,.62-.63H145a.57.57,0,0,1,.63.63v.72a3.55,3.55,0,0,1,0,.52h0a2.62,2.62,0,0,1,2.21-1.93c.42,0,.57.21.57.63v.58a.58.58,0,0,1-.64.63c-1.39,0-2.07,1.38-2.07,2.77v2.46a.55.55,0,0,1-.61.63h-.66a.55.55,0,0,1-.62-.63Z"/><path class="cls-4" d="M154.7,240.18a6,6,0,0,1,3.48,1.06.59.59,0,0,1,.12.87l-.27.43c-.21.35-.5.38-.86.15a4.39,4.39,0,0,0-2.39-.75,3.44,3.44,0,0,0-3.57,3.66,3.56,3.56,0,0,0,3.58,3.8,4.48,4.48,0,0,0,2.61-.93.54.54,0,0,1,.87.11l.3.4a.59.59,0,0,1-.09.87,6,6,0,0,1-3.76,1.32,5.5,5.5,0,0,1,0-11Z"/><path class="cls-4" d="M164.12,246.27h.32v-.18a1.25,1.25,0,0,0-1.42-1.35,3.38,3.38,0,0,0-1.59.44c-.38.16-.66.1-.84-.26l-.15-.28a.56.56,0,0,1,.24-.84,5.45,5.45,0,0,1,2.5-.63,2.84,2.84,0,0,1,3.16,3v4.15a.56.56,0,0,1-.63.63h-.51a.55.55,0,0,1-.61-.63v-.3a1.5,1.5,0,0,1,0-.33h0a2.79,2.79,0,0,1-2.4,1.44,2.34,2.34,0,0,1-2.53-2.29C159.66,246.65,162.42,246.27,164.12,246.27Zm-1.42,3.45a1.94,1.94,0,0,0,1.75-2v-.29h-.31c-1,0-2.59.15-2.59,1.29A1,1,0,0,0,162.7,249.72Z"/><path class="cls-4" d="M168.14,244a.56.56,0,0,1,.61-.63h.59a.57.57,0,0,1,.63.63v.72a2.86,2.86,0,0,1-.05.52h0a2.63,2.63,0,0,1,2.22-1.93c.42,0,.57.21.57.63v.58a.58.58,0,0,1-.65.63c-1.39,0-2.06,1.38-2.06,2.77v2.46a.55.55,0,0,1-.62.63h-.66a.55.55,0,0,1-.61-.63Z"/><path class="cls-4" d="M177.07,243.17c2.17,0,3.38,1.54,3.38,3.64a.66.66,0,0,1-.66.64h-4.66a2.2,2.2,0,0,0,2.29,2.1,3.19,3.19,0,0,0,1.65-.49c.38-.18.65-.14.84.21l.18.3a.57.57,0,0,1-.21.84,4.85,4.85,0,0,1-2.59.76,3.91,3.91,0,0,1-4.1-4A3.77,3.77,0,0,1,177.07,243.17Zm1.49,3.13a1.55,1.55,0,0,0-1.54-1.69,1.86,1.86,0,0,0-1.84,1.69Z"/><path class="cls-4" d="M58.8,246.21a1.16,1.16,0,0,1-.48-.11,1.06,1.06,0,0,1-.53-1.27l11.09-34.12a2.33,2.33,0,0,1,2.25-1.64h0a2.32,2.32,0,0,1,2.25,1.64l2.25,6.76a.8.8,0,0,1-1.52.51l-2.25-6.77a.75.75,0,0,0-.73-.53h0a.74.74,0,0,0-.72.52l-10,30.86L74.5,222.73a4.44,4.44,0,0,1,3.55-1.8h9.41a2.33,2.33,0,0,1,2.25,1.64,2.35,2.35,0,0,1-.86,2.65l-8.6,6.25-.1.08,3.33,10.22a2.36,2.36,0,0,1-3.64,2.64L72.4,239a2.38,2.38,0,0,1,0-3.83l6.24-4.52.1-.08,9.16-6.66a.76.76,0,0,0-.44-1.38H78.05a2.8,2.8,0,0,0-2.25,1.14l-16.15,22.1A1,1,0,0,1,58.8,246.21Zm20-13.67-5.44,3.94a.75.75,0,0,0,0,1.23l7.43,5.4a.73.73,0,0,0,.9,0,.75.75,0,0,0,.28-.85Z"/><path class="cls-4" d="M59.37,229.25a.78.78,0,0,1-.46-.14l-5.49-3.89a2.37,2.37,0,0,1,1.39-4.29h6.72a.81.81,0,1,1,0,1.61H54.81a.76.76,0,0,0-.45,1.38l5.48,3.88a.79.79,0,0,1,.19,1.11A.78.78,0,0,1,59.37,229.25Z"/><path class="cls-4" d="M66.84,257.54a2.56,2.56,0,0,1-1.28-.34l-14-8a.81.81,0,0,1-.41-.7v-17.1a.81.81,0,1,1,1.61,0v16.64l13.61,7.72a1,1,0,0,0,1,0l9.94-6.23a.81.81,0,0,1,1.11.26.8.8,0,0,1-.25,1.1l-10,6.23A2.55,2.55,0,0,1,66.84,257.54Z"/></g></svg>