<svg id="Layer_1" data-name="Layer 1" xmlns="http://www.w3.org/2000/svg" viewBox="0 0 300 250"><defs><style>.cls-1{fill:#fff;}.cls-2{fill:none;}</style></defs><title>Artboard 1</title><path class="cls-1" d="M30.89,43.26l3.67,7.64-2.41,4.54H32l-6.5-12.86a1.51,1.51,0,0,0-1.54-1v-.16h7.84v.16C30.81,41.6,30.42,42.27,30.89,43.26Zm9.22,0,3.66,7.64-2.4,4.54H41.2l-4.4-8.71-.89,1.68-.17-.26a4.12,4.12,0,0,0,.22-3.1L34.7,42.58a1.51,1.51,0,0,0-1.54-1v-.16H41v.16C40,41.6,39.63,42.27,40.11,43.26Zm9.74-1.82v.16c-.92,0-1.32.37-1.82,1.32l-2.91,5.49L45,48.15a7.58,7.58,0,0,0,.78-3.61,2.7,2.7,0,0,0-2.85-2.94v-.16Z"/><path class="cls-1" d="M50.1,42.22a17.12,17.12,0,0,0,6.69-1.09V53.84c0,.7.42,1.43,2.1,1.43v.17H50.07v-.17c1.68,0,2.1-.73,2.1-1.43v-10c0-1-.47-1.48-2.07-1.48ZM51.53,37c0-1.46,1.18-2.44,2.86-2.44s2.85,1,2.85,2.44-1.17,2.46-2.85,2.46S51.53,38.44,51.53,37Z"/><path class="cls-1" d="M70.93,53.28v.17a5.86,5.86,0,0,1-4.78,2.27c-2.52,0-4.32-1.15-4.32-3.95V42.58H60.38l.31-.42h1.14v-3a7.09,7.09,0,0,0,4.6-1.57v4.59h3.78l-.31.42H66.43v9.27c0,1.4.53,2.86,1.84,2.86A4.13,4.13,0,0,0,70.93,53.28Z"/><path class="cls-1" d="M78.16,53.84c0,.7.42,1.43,2.1,1.43v.17H71.44v-.17c1.68,0,2.1-.73,2.1-1.43V37.6c0-1-.48-1.49-2.07-1.49V36a17,17,0,0,0,6.69-1.1ZM88,45.1v8.74c0,.7.42,1.43,2.1,1.43v.17H81.27v-.17c1.65,0,2.07-.73,2.07-1.43V45.1c0-1.57-.81-2.38-2.21-2.38a3,3,0,0,0-2.13.87v-.17a5.72,5.72,0,0,1,4.65-2.27C86.17,41.15,88,42.33,88,45.1Z"/><path class="cls-1" d="M98.54,41.32c-1.65.2-2.21,1.6-2.21,7.06,0,5.26.56,7,2.21,7.17v.17a7.14,7.14,0,0,1-7-7.34,7,7,0,0,1,7-7.23Zm8.07,7.06a7.14,7.14,0,0,1-7,7.34v-.17c1.65-.17,2.19-1.94,2.19-7.17,0-5.49-.56-6.89-2.19-7.06v-.17A7,7,0,0,1,106.61,48.38Z"/><path class="cls-1" d="M114.87,51.77c0,1.57.53,2.38,1.93,2.38a2.49,2.49,0,0,0,1.93-.87v.17a4.68,4.68,0,0,1-4.34,2.27c-2.52,0-4.14-1.18-4.14-3.95V43.9c0-1-.48-1.48-2.08-1.48v-.17a17,17,0,0,0,6.7-1.1Zm9.32,1.79c0,.81.25,1.15.76,1.15s.89-.42,1.34-1.26h.17c-.45,1.54-2,2.27-3.81,2.27s-3.08-1.12-3.08-2.75V43.9c0-1-.48-1.48-2-1.48v-.17a18,18,0,0,0,6.61-1.1Z"/><path class="cls-1" d="M138.44,53.28v.17a5.88,5.88,0,0,1-4.79,2.27c-2.52,0-4.31-1.15-4.31-3.95V42.58h-1.45l.3-.42h1.15v-3a7,7,0,0,0,4.59-1.57v4.59h3.78l-.3.42h-3.48v9.27c0,1.4.54,2.86,1.85,2.86A4.13,4.13,0,0,0,138.44,53.28Z"/><path class="cls-1" d="M157.09,53.28v.17a5.89,5.89,0,0,1-4.79,2.27c-2.52,0-4.31-1.15-4.31-3.95V42.58h-1.46l.31-.42H148v-3a7,7,0,0,0,4.59-1.57v4.59h3.78l-.31.42h-3.47v9.27c0,1.4.53,2.86,1.85,2.86A4.15,4.15,0,0,0,157.09,53.28Z"/><path class="cls-1" d="M164.31,53.84c0,.7.42,1.43,2.1,1.43v.17h-8.82v-.17c1.68,0,2.1-.73,2.1-1.43V37.6c0-1-.47-1.49-2.07-1.49V36a17,17,0,0,0,6.69-1.1Zm9.8-8.74v8.74c0,.7.42,1.43,2.1,1.43v.17h-8.79v-.17c1.65,0,2.07-.73,2.07-1.43V45.1c0-1.57-.81-2.38-2.21-2.38a3,3,0,0,0-2.13.87v-.17a5.75,5.75,0,0,1,4.65-2.27C172.32,41.15,174.11,42.33,174.11,45.1Z"/><path class="cls-1" d="M177.72,48.38a6.94,6.94,0,0,1,6.86-7.23v.17c-1.65.2-2.1,1.6-2.1,7,0,4,1.8,6.24,4.29,6.24A6.14,6.14,0,0,0,190.86,53v.16a7.87,7.87,0,0,1-5.94,2.53A7.11,7.11,0,0,1,177.72,48.38ZM184,47.2c2.47,0,3.5-.78,3.5-3.13,0-1.35-.56-2.58-1.82-2.75v-.17c3.7,0,5.49,2.64,5.49,4.77a7.75,7.75,0,0,1-.14,1.45h-7Z"/><path class="cls-1" d="M25.35,78.38a6.94,6.94,0,0,1,6.86-7.23v.17c-1.65.2-2.1,1.6-2.1,7,0,4,1.79,6.24,4.28,6.24A6.11,6.11,0,0,0,38.48,83v.16a7.83,7.83,0,0,1-5.93,2.53A7.1,7.1,0,0,1,25.35,78.38Zm6.3-1.18c2.46,0,3.5-.78,3.5-3.13,0-1.35-.56-2.58-1.82-2.75v-.17c3.7,0,5.49,2.64,5.49,4.77a8.69,8.69,0,0,1-.14,1.45h-7Z"/><path class="cls-1" d="M39.32,85.27a3.81,3.81,0,0,0,2.94-1.85l2.49-3.75.17.25a6,6,0,0,0-.89,3,2.2,2.2,0,0,0,2.07,2.35v.17H39.32Zm8.15,0c1.12,0,1.57-.37,1.57-1a3.06,3.06,0,0,0-.56-1.45L41.9,72.58c-.37-.56-.81-1-2.16-1v-.16h8.49v.16c-.87,0-1.26.17-1.26.62A3.6,3.6,0,0,0,47.78,74L54.3,84.29a1.91,1.91,0,0,0,1.65,1v.17H47.47Zm3.72-8.51a5.89,5.89,0,0,0,.65-2.8A2.15,2.15,0,0,0,49.6,71.6v-.16h5.93v.16a2.59,2.59,0,0,0-2,1.6L51.36,77Z"/><path class="cls-1" d="M63.85,71.32c-1.65.2-2.38,1.6-2.38,7,0,4,2,6.24,4.54,6.24A6.1,6.1,0,0,0,70.09,83v.16a7.83,7.83,0,0,1-5.93,2.53,7.33,7.33,0,0,1-7.48-7.34,7.18,7.18,0,0,1,7.17-7.23Zm6.22,3A2.61,2.61,0,0,1,67.27,77a2.39,2.39,0,0,1-2.44-1.77,2.4,2.4,0,0,0,1.34-2A1.66,1.66,0,0,0,65,71.35v-.2C68.64,71.15,70.07,72.72,70.07,74.32Z"/><path class="cls-1" d="M72.17,78.38A6.94,6.94,0,0,1,79,71.15v.17c-1.66.2-2.1,1.6-2.1,7,0,4,1.79,6.24,4.28,6.24A6.13,6.13,0,0,0,85.3,83v.16a7.87,7.87,0,0,1-5.94,2.53A7.1,7.1,0,0,1,72.17,78.38Zm6.3-1.18c2.46,0,3.5-.78,3.5-3.13,0-1.35-.56-2.58-1.82-2.75v-.17c3.69,0,5.48,2.64,5.48,4.77a7.75,7.75,0,0,1-.14,1.45h-7Z"/><path class="cls-1" d="M92.8,82.1a1.44,1.44,0,0,0-1.57,1.4c0,.81.56,1.85,2.5,2v.17C90,85.57,88,84.57,88,82.94a2.18,2.18,0,0,1,2.38-2.07A2.84,2.84,0,0,1,92.8,82.1Zm.93-10.78c-1,.2-2,.73-2,1.88.08,3.25,9.16,3.78,9.16,8.23,0,2.72-2.3,4.14-5.91,4.29v-.17c1.17-.2,2.49-.62,2.49-2.07,0-2.92-9.18-4-9.18-8.24,0-2.46,2.32-3.94,5.46-4.09Zm6.6,2.72a1.82,1.82,0,0,1-2.07,1.73,2.41,2.41,0,0,1-2.38-1.34,1.24,1.24,0,0,0,1.26-1.32c0-.84-1.06-1.65-2.18-1.79v-.17C98.12,71.32,100.33,72.47,100.33,74Z"/><path class="cls-1" d="M108.09,82.1a1.44,1.44,0,0,0-1.57,1.4c0,.81.56,1.85,2.49,2v.17c-3.72-.15-5.76-1.15-5.76-2.78a2.18,2.18,0,0,1,2.38-2.07A2.84,2.84,0,0,1,108.09,82.1ZM109,71.32c-1,.2-2,.73-2,1.88.08,3.25,9.15,3.78,9.15,8.23,0,2.72-2.29,4.14-5.9,4.29v-.17c1.17-.2,2.49-.62,2.49-2.07,0-2.92-9.19-4-9.19-8.24,0-2.46,2.33-3.94,5.46-4.09ZM115.62,74a1.82,1.82,0,0,1-2.07,1.73,2.39,2.39,0,0,1-2.38-1.34,1.24,1.24,0,0,0,1.26-1.32c0-.84-1.06-1.65-2.18-1.79v-.17C113.41,71.32,115.62,72.47,115.62,74Z"/><path class="cls-1" d="M118.06,72.22a17.19,17.19,0,0,0,6.69-1.09V83.84c0,.7.42,1.43,2.1,1.43v.17H118v-.17c1.68,0,2.1-.73,2.1-1.43v-10c0-1-.48-1.48-2.07-1.48ZM119.49,67c0-1.46,1.17-2.44,2.85-2.44s2.86,1,2.86,2.44-1.18,2.46-2.86,2.46S119.49,68.44,119.49,67Z"/><path class="cls-1" d="M128.67,72.58a1.51,1.51,0,0,0-1.54-1v-.16H135v.16c-1,0-1.37.67-.9,1.66l3.67,7.64-2.41,4.54h-.16Zm10.25,5.57a7.7,7.7,0,0,0,.78-3.61,2.71,2.71,0,0,0-2.85-2.94v-.16h7v.16c-.93,0-1.29.37-1.82,1.32l-2.91,5.49Z"/><path class="cls-1" d="M144,78.38a6.94,6.94,0,0,1,6.86-7.23v.17c-1.65.2-2.1,1.6-2.1,7,0,4,1.79,6.24,4.28,6.24A6.11,6.11,0,0,0,157.17,83v.16a7.83,7.83,0,0,1-5.93,2.53A7.1,7.1,0,0,1,144,78.38Zm6.3-1.18c2.47,0,3.5-.78,3.5-3.13,0-1.35-.56-2.58-1.82-2.75v-.17c3.7,0,5.49,2.64,5.49,4.77a8.69,8.69,0,0,1-.14,1.45h-7Z"/><path class="cls-1" d="M31.31,119.69c0,1,.48,1.49,2.08,1.49v.16a18.24,18.24,0,0,0-6.7,1.1V103.87c0-1-.47-1.48-2.07-1.48v-.17a18.36,18.36,0,0,0,6.69-1.09ZM42,108.3c0,5.85-3.08,7.42-5.74,7.42a5.28,5.28,0,0,1-4.09-2.27v-.17a4,4,0,0,0,2.36,1c1.31,0,2.71-.92,2.71-6s-1.31-5.72-2.71-5.72a3.18,3.18,0,0,0-2.36,1v-.22a5.23,5.23,0,0,1,4.09-2.25C39,101.15,42,102.72,42,108.3Z"/><path class="cls-1" d="M50.66,113.84c0,.7.42,1.43,2.1,1.43v.17H43.94v-.17c1.68,0,2.1-.73,2.1-1.43V103.9c0-1-.47-1.48-2.07-1.48v-.17a17,17,0,0,0,6.69-1.1Zm7.56-9.66a3,3,0,0,1-2.88,3.19,1.94,1.94,0,0,1-1.6-.61,2.05,2.05,0,0,0,1.09-1.91,1.48,1.48,0,0,0-1.56-1.51,1.92,1.92,0,0,0-1.68,1.06v-.22a3.88,3.88,0,0,1,3.64-3A2.84,2.84,0,0,1,58.22,104.18Z"/><path class="cls-1" d="M59.73,108.38a6.94,6.94,0,0,1,6.86-7.23v.17c-1.65.2-2.1,1.6-2.1,7,0,4,1.8,6.24,4.29,6.24A6.14,6.14,0,0,0,72.87,113v.16a7.87,7.87,0,0,1-5.94,2.53A7.11,7.11,0,0,1,59.73,108.38ZM66,107.2c2.47,0,3.5-.78,3.5-3.13,0-1.35-.56-2.58-1.82-2.75v-.17c3.7,0,5.49,2.64,5.49,4.77a7.75,7.75,0,0,1-.14,1.45H66Z"/><path class="cls-1" d="M81.71,113.84c0,.7.42,1.43,2.1,1.43v.17H75v-.17c1.68,0,2.1-.73,2.1-1.43V103.9c0-1-.47-1.48-2.07-1.48v-.17a16.94,16.94,0,0,0,6.69-1.1ZM91,105.1v8.74c0,.7.39,1.43,2.07,1.43v.17H84.29v-.17c1.65,0,2.1-.73,2.1-1.43V105.1c0-1.57-.62-2.38-2-2.38a2.47,2.47,0,0,0-1.85.84v-.16a4.54,4.54,0,0,1,4.09-2.25C89.33,101.15,91,102.33,91,105.1Zm9.27,0v8.74c0,.7.42,1.43,2.1,1.43v.17H93.56v-.17c1.65,0,2.1-.73,2.1-1.43V105.1c0-1.57-.62-2.38-2-2.38a2.44,2.44,0,0,0-1.85.84v-.16a4.52,4.52,0,0,1,4.09-2.25C98.6,101.15,100.28,102.33,100.28,105.1Z"/><path class="cls-1" d="M103.44,102.22a17.12,17.12,0,0,0,6.69-1.09v12.71c0,.7.42,1.43,2.1,1.43v.17h-8.82v-.17c1.68,0,2.1-.73,2.1-1.43v-10c0-1-.47-1.48-2.07-1.48ZM104.87,97c0-1.46,1.18-2.44,2.86-2.44s2.85,1,2.85,2.44-1.17,2.46-2.85,2.46S104.87,98.44,104.87,97Z"/><path class="cls-1" d="M119.82,111.77c0,1.57.53,2.38,1.93,2.38a2.51,2.51,0,0,0,1.94-.87v.17a4.69,4.69,0,0,1-4.34,2.27c-2.52,0-4.15-1.18-4.15-4V103.9c0-1-.47-1.48-2.07-1.48v-.17a17,17,0,0,0,6.69-1.1Zm9.33,1.79c0,.81.25,1.15.75,1.15s.9-.42,1.35-1.26h.16c-.44,1.54-2,2.27-3.8,2.27s-3.08-1.12-3.08-2.75V103.9c0-1-.48-1.48-2-1.48v-.17a18.08,18.08,0,0,0,6.61-1.1Z"/><path class="cls-1" d="M139.25,113.84c0,.7.42,1.43,2.1,1.43v.17h-8.82v-.17c1.68,0,2.1-.73,2.1-1.43V103.9c0-1-.47-1.48-2.07-1.48v-.17a16.94,16.94,0,0,0,6.69-1.1Zm9.3-8.74v8.74c0,.7.39,1.43,2.07,1.43v.17h-8.79v-.17c1.65,0,2.1-.73,2.1-1.43V105.1c0-1.57-.62-2.38-2-2.38a2.47,2.47,0,0,0-1.85.84v-.16a4.54,4.54,0,0,1,4.09-2.25C146.87,101.15,148.55,102.33,148.55,105.1Zm9.27,0v8.74c0,.7.42,1.43,2.1,1.43v.17H151.1v-.17c1.65,0,2.1-.73,2.1-1.43V105.1c0-1.57-.62-2.38-2-2.38a2.44,2.44,0,0,0-1.85.84v-.16a4.52,4.52,0,0,1,4.09-2.25C156.14,101.15,157.82,102.33,157.82,105.1Z"/><path class="cls-1" d="M166.3,112.1a1.44,1.44,0,0,0-1.57,1.4c0,.81.56,1.85,2.5,2v.17c-3.73-.15-5.77-1.15-5.77-2.78a2.18,2.18,0,0,1,2.38-2.07A2.84,2.84,0,0,1,166.3,112.1Zm.93-10.78c-1,.2-2,.73-2,1.88.08,3.25,9.16,3.78,9.16,8.23,0,2.72-2.3,4.14-5.91,4.29v-.17c1.17-.2,2.49-.62,2.49-2.07,0-2.92-9.18-4-9.18-8.24,0-2.46,2.32-3.94,5.46-4.09Zm6.6,2.72a1.82,1.82,0,0,1-2.07,1.73,2.4,2.4,0,0,1-2.38-1.34,1.24,1.24,0,0,0,1.26-1.32c0-.84-1.06-1.65-2.18-1.79v-.17C171.62,101.32,173.83,102.47,173.83,104Z"/><rect class="cls-2" width="300" height="250"/></svg>