<svg id="Layer_1" data-name="Layer 1" xmlns="http://www.w3.org/2000/svg" viewBox="0 0 300 250"><defs><style>.cls-1{fill:#fff;}.cls-2{fill:none;}</style></defs><title>Artboard 1 copy</title><path class="cls-1" d="M25.32,57.27c1.68,0,2.1-.65,2.1-1.43V40c0-.78-.42-1.43-2.1-1.43v-.17h6.86V55.84c0,.78.42,1.43,2.1,1.43v.16h-9Zm8.26-18.71v-.17h7.7V44h-.22C39.77,40,37.84,38.84,33.58,38.56Zm1.54,9.52-1.54-.14v-.17l1.54-.13a4.33,4.33,0,0,0,3.7-2.41H39v5.2h-.22A4.25,4.25,0,0,0,35.12,48.08Z"/><path class="cls-1" d="M49.43,55.84c0,.7.42,1.43,2.1,1.43v.16H42.71v-.16c1.68,0,2.1-.73,2.1-1.43V45.9c0-1-.47-1.48-2.07-1.48v-.17a17,17,0,0,0,6.69-1.1ZM57,46.18a3,3,0,0,1-2.88,3.19,1.94,1.94,0,0,1-1.6-.61,2.06,2.06,0,0,0,1.09-1.91A1.48,1.48,0,0,0,52,45.34a1.92,1.92,0,0,0-1.68,1.06v-.22a3.88,3.88,0,0,1,3.64-3A2.84,2.84,0,0,1,57,46.18Z"/><path class="cls-1" d="M65.48,43.32c-1.66.2-2.22,1.6-2.22,7.06,0,5.26.56,7,2.22,7.17v.17a7.15,7.15,0,0,1-7-7.34,7,7,0,0,1,7-7.23Zm8.06,7.06a7.14,7.14,0,0,1-6.94,7.34v-.17c1.65-.17,2.18-1.94,2.18-7.17,0-5.49-.56-6.89-2.18-7.06v-.17A7,7,0,0,1,73.54,50.38Z"/><path class="cls-1" d="M82.11,55.84c0,.7.42,1.43,2.1,1.43v.16H75.39v-.16c1.68,0,2.1-.73,2.1-1.43V45.9c0-1-.48-1.48-2.07-1.48v-.17a17,17,0,0,0,6.69-1.1ZM91.4,47.1v8.74c0,.7.39,1.43,2.07,1.43v.16H84.68v-.16c1.65,0,2.1-.73,2.1-1.43V47.1c0-1.57-.61-2.38-2-2.38a2.47,2.47,0,0,0-1.85.84v-.17a4.56,4.56,0,0,1,4.09-2.24C89.72,43.15,91.4,44.33,91.4,47.1Zm9.27,0v8.74c0,.7.42,1.43,2.1,1.43v.16H94v-.16c1.65,0,2.1-.73,2.1-1.43V47.1c0-1.57-.62-2.38-2-2.38a2.47,2.47,0,0,0-1.85.84v-.17a4.56,4.56,0,0,1,4.09-2.24C99,43.15,100.67,44.33,100.67,47.1Z"/><path class="cls-1" d="M113.89,42.82l.22.33.22,11.77a2.45,2.45,0,0,0,2.75,2.35v.16h-6.16v-.16a2.46,2.46,0,0,0,2.74-2.35Zm14.84,14.61h-3.11L113.92,40a3.05,3.05,0,0,0-3-1.43v-.17h7.47l10.31,15.43ZM128.67,51l-.22-.3-.34-9.77a2.45,2.45,0,0,0-2.74-2.36v-.17h6.16v.17a2.45,2.45,0,0,0-2.75,2.36Z"/><path class="cls-1" d="M144,38.39h5.35l-11.12,19H133Zm-10.27,0h8.45l-.08.17A8.63,8.63,0,0,0,134,45.14h-.22Zm6.41,18.88a9.57,9.57,0,0,0,8.73-7.48h.23v7.64h-9Z"/><path class="cls-1" d="M157.2,39.29c0,1.63-1.73,3.78-4.53,4.93l-.09-.25a3.93,3.93,0,0,0,1.6-2.72,1.77,1.77,0,0,0-1.91-1.85,2.6,2.6,0,0,1,2.66-2.55A2.25,2.25,0,0,1,157.2,39.29Z"/><path class="cls-1" d="M162.94,54.1a1.43,1.43,0,0,0-1.56,1.4c0,.81.55,1.85,2.49,2v.17c-3.73-.15-5.77-1.15-5.77-2.78a2.18,2.18,0,0,1,2.38-2.07A2.84,2.84,0,0,1,162.94,54.1Zm.93-10.78c-1,.2-2.05.73-2,1.88.08,3.25,9.16,3.78,9.16,8.23,0,2.72-2.3,4.14-5.91,4.29v-.17c1.17-.2,2.49-.62,2.49-2.08,0-2.91-9.18-4-9.18-8.23,0-2.46,2.32-3.94,5.46-4.09Zm6.6,2.72a1.82,1.82,0,0,1-2.07,1.73A2.41,2.41,0,0,1,166,46.43a1.24,1.24,0,0,0,1.26-1.32c0-.84-1.06-1.65-2.18-1.79v-.17C168.26,43.32,170.47,44.47,170.47,46Z"/><path class="cls-1" d="M24.65,68a16.94,16.94,0,0,0,6.69-1.1v19c0,.7.42,1.43,2.1,1.43v.16H24.62v-.16c1.68,0,2.1-.73,2.1-1.43V69.6c0-1-.47-1.49-2.07-1.49Z"/><path class="cls-1" d="M35.12,80.38A6.94,6.94,0,0,1,42,73.15v.17c-1.65.2-2.1,1.6-2.1,7,0,4,1.8,6.24,4.29,6.24A6.14,6.14,0,0,0,48.26,85v.16a7.87,7.87,0,0,1-5.94,2.53A7.11,7.11,0,0,1,35.12,80.38Zm6.3-1.18c2.47,0,3.5-.78,3.5-3.13,0-1.35-.56-2.58-1.82-2.75v-.17c3.7,0,5.49,2.64,5.49,4.77a7.75,7.75,0,0,1-.14,1.45h-7Z"/><path class="cls-1" d="M50.61,84.13c0-2.44,2.24-3.81,5.37-3.81h3v.17h-.84a2.77,2.77,0,0,0-3,3.05c0,1.54.45,2.72,1.76,2.72a3.08,3.08,0,0,0,2-1v.17a6,6,0,0,1-4.45,2.27C52.18,87.72,50.58,86.37,50.61,84.13Zm1.12-7.92c0-1.43,1.29-2.89,5.09-3.06v.17A2.05,2.05,0,0,0,55,75.37c0,1,.7,1.62,1.82,1.7a3.14,3.14,0,0,1-2.69,1.35A2.24,2.24,0,0,1,51.73,76.21Zm8.12,8.34V76c0-1.37-.53-2.46-1.91-2.66v-.17c4.65.17,6.5,1.94,6.5,5.61v6.8c0,.81.28,1.15.78,1.15s.9-.42,1.35-1.26h.17c-.45,1.54-2,2.27-3.64,2.27C60.86,87.72,59.85,86.93,59.85,84.55Z"/><path class="cls-1" d="M78.05,75.39v.23a3.11,3.11,0,0,0-2.33-1c-1.4,0-2.74.65-2.74,5.72s1.43,6,2.74,6a3.87,3.87,0,0,0,2.33-1v.17A5.22,5.22,0,0,1,74,87.72c-2.66,0-5.77-1.57-5.77-7.42,0-5.58,3-7.15,5.77-7.15A5.2,5.2,0,0,1,78.05,75.39Zm5.46,10.17c0,.81.25,1.15.75,1.15s.9-.42,1.35-1.26h.17c-.45,1.54-2,2.27-3.64,2.27-2.24,0-3.25-.79-3.25-3.17v-15c0-1-.48-1.49-2.07-1.49V68a18.19,18.19,0,0,0,6.69-1.1Z"/><path class="cls-1" d="M87,74.22a17.15,17.15,0,0,0,6.69-1.09V85.84c0,.7.42,1.43,2.1,1.43v.16H86.92v-.16c1.68,0,2.1-.73,2.1-1.43v-10c0-1-.47-1.48-2.07-1.48ZM88.38,69c0-1.46,1.17-2.44,2.86-2.44s2.85,1,2.85,2.44-1.17,2.46-2.85,2.46S88.38,70.44,88.38,69Z"/><path class="cls-1" d="M96.92,87.27c1.68,0,2.1-.73,2.1-1.43V75.9c0-1-.48-1.48-2.07-1.48v-.17a17,17,0,0,0,6.69-1.1V85.84c0,.7.42,1.43,2.1,1.43v.16H96.92Zm9.85,0c1.66,0,2.08-.73,2.08-1.43V77.1a2.07,2.07,0,0,0-2.22-2.38,3,3,0,0,0-2.12.87v-.17a5.71,5.71,0,0,1,4.64-2.27c2.52,0,4.32,1.18,4.32,3.95v8.74c0,.7.42,1.43,2.1,1.43v.16h-8.8Z"/><path class="cls-1" d="M117.22,78.22c0-3.64,3.41-5,6.27-5.07v.17c-1.2.11-1.76,1.57-1.76,4.82s.56,4.76,1.76,4.87v.17C120.66,83.18,117.22,81.84,117.22,78.22Zm7.45,16c2.8-.34,3.69-1.85,3.69-2.86,0-3.89-10.92-.42-10.92-5.43a3.3,3.3,0,0,1,1.88-2.86l.08.14a.66.66,0,0,0-.25.54c0,3.13,12.77-.51,12.77,5.59,0,2.89-2.49,4.76-7.25,5Zm-7.23-2.36c0-1.65,2-2.15,4.26-2.15a2.35,2.35,0,0,0-1.21,2c0,1.28,1.46,2.26,3.06,2.52v.16C120.55,94.38,117.44,93.76,117.44,91.91Zm7.23-8.9c1.37-.11,1.93-1.48,1.93-4.87s-.59-4.71-1.93-4.82v-.17c3,.06,6.41,1.43,6.41,5.07s-3.45,5-6.41,5Zm1.51-10.36c.47-1.43,1.76-3.36,3.7-3.36,1.48,0,2.37.78,2.37,2.13A2.23,2.23,0,0,1,130,73.6c0-1.17-.62-1.87-1.52-1.87a3,3,0,0,0-2.15,1Z"/><path class="cls-1" d="M31.51,115.84c0,.7.42,1.43,2.1,1.43v.16H24.79v-.16c1.68,0,2.1-.73,2.1-1.43V105.9c0-1-.47-1.48-2.07-1.48v-.17a17,17,0,0,0,6.69-1.1Zm9.3-8.74v8.74c0,.7.39,1.43,2.07,1.43v.16H34.09v-.16c1.65,0,2.1-.73,2.1-1.43V107.1c0-1.57-.62-2.38-2-2.38a2.44,2.44,0,0,0-1.85.84v-.17a4.53,4.53,0,0,1,4.09-2.24C39.13,103.15,40.81,104.33,40.81,107.1Zm9.27,0v8.74c0,.7.42,1.43,2.1,1.43v.16H43.36v-.16c1.65,0,2.1-.73,2.1-1.43V107.1c0-1.57-.62-2.38-2-2.38a2.44,2.44,0,0,0-1.85.84v-.17a4.53,4.53,0,0,1,4.09-2.24C48.4,103.15,50.08,104.33,50.08,107.1Z"/><path class="cls-1" d="M60.66,103.32c-1.65.2-2.21,1.6-2.21,7.06,0,5.26.56,7,2.21,7.17v.17a7.14,7.14,0,0,1-7-7.34,7,7,0,0,1,7-7.23Zm8.06,7.06a7.14,7.14,0,0,1-6.94,7.34v-.17c1.65-.17,2.18-1.94,2.18-7.17,0-5.49-.56-6.89-2.18-7.06v-.17A7,7,0,0,1,68.72,110.38Z"/><path class="cls-1" d="M81.44,115.28v.17a5.89,5.89,0,0,1-4.79,2.27c-2.52,0-4.32-1.15-4.32-4v-9.19H70.88l.31-.42h1.14v-3a7.09,7.09,0,0,0,4.6-1.57v4.59h3.78l-.31.42H76.93v9.27c0,1.4.53,2.86,1.85,2.86A4.17,4.17,0,0,0,81.44,115.28Z"/><path class="cls-1" d="M89.44,103.32c-1.65.2-2.21,1.6-2.21,7.06,0,5.26.56,7,2.21,7.17v.17a7.14,7.14,0,0,1-7-7.34,7,7,0,0,1,7-7.23Zm8.07,7.06a7.15,7.15,0,0,1-7,7.34v-.17c1.65-.17,2.19-1.94,2.19-7.17,0-5.49-.56-6.89-2.19-7.06v-.17A7,7,0,0,1,97.51,110.38Z"/><path class="cls-1" d="M106.08,115.84c0,.7.42,1.43,2.09,1.43v.16H99.35v-.16c1.69,0,2.11-.73,2.11-1.43V105.9c0-1-.48-1.48-2.08-1.48v-.17a17,17,0,0,0,6.7-1.1Zm7.55-9.66a3,3,0,0,1-2.88,3.19,1.91,1.91,0,0,1-1.59-.61,2.06,2.06,0,0,0,1.09-1.91,1.49,1.49,0,0,0-1.57-1.51A1.92,1.92,0,0,0,107,106.4v-.22a3.88,3.88,0,0,1,3.64-3A2.84,2.84,0,0,1,113.63,106.18Z"/><path class="cls-1" d="M122.31,103.32c-1.65.2-2.38,1.6-2.38,7,0,4,2,6.24,4.54,6.24a6.13,6.13,0,0,0,4.09-1.48v.16a7.87,7.87,0,0,1-5.94,2.53,7.32,7.32,0,0,1-7.47-7.34,7.18,7.18,0,0,1,7.16-7.23Zm6.22,3a2.61,2.61,0,0,1-2.8,2.69,2.39,2.39,0,0,1-2.44-1.77,2.41,2.41,0,0,0,1.35-2,1.66,1.66,0,0,0-1.21-1.85v-.2C127.1,103.15,128.53,104.72,128.53,106.32Z"/><path class="cls-1" d="M130.85,104.58a1.51,1.51,0,0,0-1.54-1v-.17h7.84v.17c-1,0-1.37.67-.89,1.66l3.67,7.64-2.41,4.53h-.17Zm-1.23,17.36a2.93,2.93,0,0,1,2.47-2.63,2,2,0,0,0-.12.7,1.65,1.65,0,0,0,1.66,1.88c1,0,1.76-1,2.82-2.83h.2c-1.54,2.88-2.6,5.37-4.56,5.37A2.33,2.33,0,0,1,129.62,121.94Zm11.48-11.79a7.6,7.6,0,0,0,.79-3.61A2.71,2.71,0,0,0,139,103.6v-.17h7v.17c-.92,0-1.29.37-1.82,1.32l-2.91,5.49Z"/><path class="cls-1" d="M153.31,103.32c-1.65.2-2.38,1.6-2.38,7,0,4,2,6.24,4.54,6.24a6.1,6.1,0,0,0,4.08-1.48v.16a7.83,7.83,0,0,1-5.93,2.53,7.33,7.33,0,0,1-7.48-7.34,7.18,7.18,0,0,1,7.17-7.23Zm6.22,3a2.61,2.61,0,0,1-2.8,2.69,2.38,2.38,0,0,1-2.44-1.77,2.41,2.41,0,0,0,1.34-2,1.66,1.66,0,0,0-1.2-1.85v-.2C158.1,103.15,159.53,104.72,159.53,106.32Z"/><path class="cls-1" d="M161,98a16.94,16.94,0,0,0,6.69-1.1v19c0,.7.42,1.43,2.1,1.43v.16H161v-.16c1.68,0,2.1-.73,2.1-1.43V99.6c0-1-.47-1.49-2.07-1.49Z"/><path class="cls-1" d="M171.45,110.38a6.94,6.94,0,0,1,6.86-7.23v.17c-1.65.2-2.1,1.6-2.1,7,0,4,1.8,6.24,4.29,6.24a6.14,6.14,0,0,0,4.09-1.48v.16a7.87,7.87,0,0,1-5.94,2.53A7.11,7.11,0,0,1,171.45,110.38Zm6.3-1.18c2.47,0,3.5-.78,3.5-3.13,0-1.35-.56-2.58-1.82-2.75v-.17c3.7,0,5.49,2.64,5.49,4.77a7.75,7.75,0,0,1-.14,1.45h-7Z"/><path class="cls-1" d="M30.17,144.1a1.43,1.43,0,0,0-1.57,1.4c0,.81.56,1.85,2.49,2.05v.17c-3.72-.15-5.77-1.15-5.77-2.78a2.18,2.18,0,0,1,2.38-2.07A2.86,2.86,0,0,1,30.17,144.1Zm.92-10.78c-1,.2-2,.73-2,1.88.08,3.25,9.15,3.78,9.15,8.23,0,2.72-2.29,4.14-5.91,4.29v-.17c1.18-.2,2.5-.62,2.5-2.08,0-2.91-9.19-4-9.19-8.23,0-2.46,2.33-3.94,5.46-4.09ZM37.7,136a1.82,1.82,0,0,1-2.07,1.73,2.39,2.39,0,0,1-2.38-1.34,1.24,1.24,0,0,0,1.26-1.32c0-.84-1.07-1.65-2.19-1.79v-.17C35.49,133.32,37.7,134.47,37.7,136Z"/><path class="cls-1" d="M46.55,151.69c0,1,.47,1.49,2.07,1.49v.16a18.39,18.39,0,0,0-6.69,1.09V135.87c0-1-.48-1.48-2.07-1.48v-.17a18.39,18.39,0,0,0,6.69-1.09ZM57.22,140.3c0,5.85-3.08,7.42-5.74,7.42a5.26,5.26,0,0,1-4.09-2.27v-.17a3.92,3.92,0,0,0,2.35,1c1.32,0,2.72-.92,2.72-6s-1.32-5.72-2.72-5.72a3.14,3.14,0,0,0-2.35,1v-.23a5.24,5.24,0,0,1,4.09-2.24C54.19,133.15,57.22,134.72,57.22,140.3Z"/><path class="cls-1" d="M59.68,140.38a6.94,6.94,0,0,1,6.86-7.23v.17c-1.65.2-2.1,1.6-2.1,7,0,4,1.79,6.24,4.28,6.24A6.11,6.11,0,0,0,72.81,145v.16a7.83,7.83,0,0,1-5.93,2.53A7.1,7.1,0,0,1,59.68,140.38ZM66,139.2c2.46,0,3.5-.78,3.5-3.13,0-1.35-.56-2.58-1.82-2.75v-.17c3.7,0,5.49,2.64,5.49,4.77a8.69,8.69,0,0,1-.14,1.45H66Z"/><path class="cls-1" d="M82.61,133.32c-1.65.2-2.38,1.6-2.38,7,0,4,2,6.24,4.54,6.24A6.1,6.1,0,0,0,88.85,145v.16a7.83,7.83,0,0,1-5.93,2.53,7.33,7.33,0,0,1-7.48-7.34,7.18,7.18,0,0,1,7.17-7.23Zm6.22,3A2.61,2.61,0,0,1,86,139a2.39,2.39,0,0,1-2.44-1.77,2.39,2.39,0,0,0,1.34-2,1.66,1.66,0,0,0-1.2-1.85v-.2C87.4,133.15,88.83,134.72,88.83,136.32Z"/><path class="cls-1" d="M90.48,134.22a17.19,17.19,0,0,0,6.69-1.09v12.71c0,.7.42,1.43,2.1,1.43v.16H90.45v-.16c1.68,0,2.1-.73,2.1-1.43v-10c0-1-.47-1.48-2.07-1.48ZM91.91,129c0-1.46,1.17-2.44,2.85-2.44s2.86,1,2.86,2.44-1.18,2.46-2.86,2.46S91.91,130.44,91.91,129Z"/><path class="cls-1" d="M100.67,144.13c0-2.44,2.24-3.81,5.38-3.81h3v.17h-.84a2.77,2.77,0,0,0-3,3c0,1.54.45,2.72,1.77,2.72a3.06,3.06,0,0,0,2-1v.17a6,6,0,0,1-4.45,2.27C102.24,147.72,100.64,146.37,100.67,144.13Zm1.12-7.92c0-1.43,1.29-2.89,5.1-3.06v.17a2.06,2.06,0,0,0-1.8,2.05c0,1,.7,1.62,1.83,1.7a3.14,3.14,0,0,1-2.69,1.35A2.25,2.25,0,0,1,101.79,136.21Zm8.12,8.34V136c0-1.37-.53-2.46-1.9-2.66v-.17c4.64.17,6.49,1.94,6.49,5.61v6.8c0,.81.28,1.15.79,1.15s.89-.42,1.34-1.26h.17c-.45,1.54-2,2.27-3.64,2.27C110.92,147.72,109.91,146.93,109.91,144.55Z"/><path class="cls-1" d="M117.53,128a17,17,0,0,0,6.69-1.1v19c0,.7.42,1.43,2.1,1.43v.16H117.5v-.16c1.68,0,2.1-.73,2.1-1.43V129.6c0-1-.48-1.49-2.07-1.49Z"/><path class="cls-1" d="M127.55,134.22a17.19,17.19,0,0,0,6.69-1.09v12.71c0,.7.42,1.43,2.1,1.43v.16h-8.82v-.16c1.68,0,2.1-.73,2.1-1.43v-10c0-1-.47-1.48-2.07-1.48ZM129,129c0-1.46,1.17-2.44,2.85-2.44s2.86,1,2.86,2.44-1.18,2.46-2.86,2.46S129,130.44,129,129Z"/><path class="cls-1" d="M142.89,144.1a1.43,1.43,0,0,0-1.56,1.4c0,.81.56,1.85,2.49,2.05v.17c-3.73-.15-5.77-1.15-5.77-2.78a2.18,2.18,0,0,1,2.38-2.07A2.84,2.84,0,0,1,142.89,144.1Zm.93-10.78c-1,.2-2,.73-2,1.88.09,3.25,9.16,3.78,9.16,8.23,0,2.72-2.3,4.14-5.91,4.29v-.17c1.18-.2,2.49-.62,2.49-2.08,0-2.91-9.18-4-9.18-8.23,0-2.46,2.32-3.94,5.46-4.09Zm6.61,2.72a1.83,1.83,0,0,1-2.08,1.73,2.41,2.41,0,0,1-2.38-1.34,1.24,1.24,0,0,0,1.26-1.32c0-.84-1.06-1.65-2.18-1.79v-.17C148.21,133.32,150.43,134.47,150.43,136Z"/><path class="cls-1" d="M163.67,145.28v.17a5.89,5.89,0,0,1-4.79,2.27c-2.52,0-4.31-1.15-4.31-3.95v-9.19h-1.46l.31-.42h1.15v-3a7,7,0,0,0,4.59-1.57v4.59h3.78l-.31.42h-3.47v9.27c0,1.4.53,2.86,1.85,2.86A4.15,4.15,0,0,0,163.67,145.28Z"/><rect class="cls-2" width="300" height="250"/></svg>