<svg id="Layer_1" data-name="Layer 1" xmlns="http://www.w3.org/2000/svg" viewBox="0 0 300 250"><defs><style>.cls-1{fill:#263845;}.cls-2{fill:none;}</style></defs><title>Artboard 8 copy</title><path class="cls-1" d="M20.5,53.86c1.68,0,2.1-.67,2.1-1.43V36.58c0-.75-.42-1.42-2.1-1.42V35h6.86V52.43c0,.76.42,1.43,2.1,1.43V54h-9Zm8.26-7.28c2.58,0,3.72-2.52,3.72-5.94s-1.14-5.48-3.72-5.48V35c5.54,0,8.48,1.43,8.48,5.65s-3.13,6.11-8.48,6.11Z"/><path class="cls-1" d="M45.36,52.43c0,.7.42,1.43,2.1,1.43V54H38.64v-.17c1.68,0,2.1-.73,2.1-1.43V42.49c0-1-.47-1.48-2.07-1.48v-.17a17.12,17.12,0,0,0,6.69-1.09Zm7.56-9.66A3,3,0,0,1,50,46a1.91,1.91,0,0,1-1.6-.61,2,2,0,0,0,1.1-1.91A1.49,1.49,0,0,0,48,41.93,1.91,1.91,0,0,0,46.29,43v-.23a3.87,3.87,0,0,1,3.64-3A2.84,2.84,0,0,1,52.92,42.77Z"/><path class="cls-1" d="M54.44,47a6.93,6.93,0,0,1,6.86-7.22v.17c-1.66.19-2.1,1.59-2.1,6.94,0,4,1.79,6.24,4.28,6.24a6.08,6.08,0,0,0,4.09-1.48v.17a7.86,7.86,0,0,1-5.94,2.52A7.09,7.09,0,0,1,54.44,47Zm6.3-1.17c2.46,0,3.5-.79,3.5-3.14,0-1.34-.56-2.58-1.82-2.74v-.17c3.69,0,5.48,2.63,5.48,4.76A7.67,7.67,0,0,1,67.76,46h-7Z"/><path class="cls-1" d="M76.42,52.43c0,.7.42,1.43,2.1,1.43V54H69.7v-.17c1.68,0,2.1-.73,2.1-1.43V42.49c0-1-.48-1.48-2.08-1.48v-.17a17.21,17.21,0,0,0,6.7-1.09Zm9.29-8.73v8.73c0,.7.39,1.43,2.07,1.43V54H79v-.17c1.65,0,2.1-.73,2.1-1.43V43.7c0-1.57-.61-2.38-2-2.38a2.47,2.47,0,0,0-1.85.84V42a4.54,4.54,0,0,1,4.09-2.24C84,39.75,85.71,40.92,85.71,43.7Zm9.27,0v8.73c0,.7.42,1.43,2.1,1.43V54H88.26v-.17c1.65,0,2.1-.73,2.1-1.43V43.7c0-1.57-.62-2.38-2-2.38a2.47,2.47,0,0,0-1.85.84V42a4.54,4.54,0,0,1,4.09-2.24C93.3,39.75,95,40.92,95,43.7Z"/><path class="cls-1" d="M98.14,40.81a17.21,17.21,0,0,0,6.7-1.09V52.43c0,.7.42,1.43,2.1,1.43V54H98.12v-.17c1.68,0,2.1-.73,2.1-1.43v-10c0-1-.48-1.48-2.08-1.48Zm1.43-5.26c0-1.46,1.18-2.44,2.86-2.44s2.85,1,2.85,2.44S104.11,38,102.43,38,99.57,37,99.57,35.55Z"/><path class="cls-1" d="M114.52,50.36c0,1.57.53,2.38,1.94,2.38a2.47,2.47,0,0,0,1.93-.87V52a4.69,4.69,0,0,1-4.34,2.27c-2.52,0-4.15-1.18-4.15-4V42.49c0-1-.47-1.48-2.07-1.48v-.17a17.12,17.12,0,0,0,6.69-1.09Zm9.33,1.79c0,.81.25,1.15.75,1.15s.9-.42,1.35-1.26h.16c-.44,1.54-2,2.27-3.8,2.27s-3.08-1.12-3.08-2.75V42.49c0-1-.48-1.48-2-1.48v-.17a18.25,18.25,0,0,0,6.61-1.09Z"/><path class="cls-1" d="M134,52.43c0,.7.41,1.43,2.1,1.43V54h-8.83v-.17c1.69,0,2.1-.73,2.1-1.43V42.49c0-1-.47-1.48-2.07-1.48v-.17a17.21,17.21,0,0,0,6.7-1.09Zm9.29-8.73v8.73c0,.7.39,1.43,2.07,1.43V54h-8.79v-.17c1.65,0,2.1-.73,2.1-1.43V43.7c0-1.57-.61-2.38-2-2.38a2.47,2.47,0,0,0-1.85.84V42a4.54,4.54,0,0,1,4.09-2.24C141.57,39.75,143.25,40.92,143.25,43.7Zm9.27,0v8.73c0,.7.42,1.43,2.1,1.43V54H145.8v-.17c1.65,0,2.1-.73,2.1-1.43V43.7c0-1.57-.62-2.38-2-2.38a2.46,2.46,0,0,0-1.85.84V42a4.51,4.51,0,0,1,4.09-2.24C150.84,39.75,152.52,40.92,152.52,43.7Z"/><path class="cls-1" d="M26.69,82.43c0,.7.42,1.43,2.1,1.43V84H20v-.17c1.68,0,2.1-.73,2.1-1.43V72.49c0-1-.48-1.48-2.07-1.48v-.17a17.19,17.19,0,0,0,6.69-1.09ZM36,73.7v8.73c0,.7.4,1.43,2.08,1.43V84h-8.8v-.17c1.66,0,2.1-.73,2.1-1.43V73.7c0-1.57-.61-2.38-2-2.38a2.43,2.43,0,0,0-1.84.84V72a4.51,4.51,0,0,1,4.08-2.24C34.3,69.75,36,70.92,36,73.7Zm9.27,0v8.73c0,.7.42,1.43,2.1,1.43V84H38.53v-.17c1.65,0,2.1-.73,2.1-1.43V73.7c0-1.57-.61-2.38-2-2.38a2.47,2.47,0,0,0-1.85.84V72a4.54,4.54,0,0,1,4.09-2.24C43.57,69.75,45.25,70.92,45.25,73.7Z"/><path class="cls-1" d="M55.84,69.92c-1.66.19-2.22,1.59-2.22,7,0,5.27.56,7,2.22,7.17v.17a7.14,7.14,0,0,1-7-7.34,7,7,0,0,1,7-7.22Zm8.06,7A7.13,7.13,0,0,1,57,84.31v-.17c1.65-.17,2.18-1.93,2.18-7.17,0-5.49-.56-6.89-2.18-7v-.17A7,7,0,0,1,63.9,77Z"/><path class="cls-1" d="M76.61,81.87V82a5.85,5.85,0,0,1-4.79,2.27c-2.52,0-4.31-1.15-4.31-4V71.18H66.06l.3-.42h1.15v-3a7,7,0,0,0,4.59-1.57v4.6h3.78l-.3.42H72.1v9.26c0,1.4.54,2.86,1.85,2.86A4.08,4.08,0,0,0,76.61,81.87Z"/><path class="cls-1" d="M84.62,69.92c-1.65.19-2.21,1.59-2.21,7,0,5.27.56,7,2.21,7.17v.17a7.13,7.13,0,0,1-7-7.34,7,7,0,0,1,7-7.22Zm8.06,7a7.13,7.13,0,0,1-6.94,7.34v-.17c1.65-.17,2.18-1.93,2.18-7.17,0-5.49-.56-6.89-2.18-7v-.17A7,7,0,0,1,92.68,77Z"/><path class="cls-1" d="M101.25,82.43c0,.7.42,1.43,2.1,1.43V84H94.53v-.17c1.68,0,2.1-.73,2.1-1.43V72.49c0-1-.47-1.48-2.07-1.48v-.17a17.19,17.19,0,0,0,6.69-1.09Zm7.56-9.66A3,3,0,0,1,105.93,76a1.91,1.91,0,0,1-1.6-.61,2.05,2.05,0,0,0,1.09-1.91,1.48,1.48,0,0,0-1.56-1.51A1.91,1.91,0,0,0,102.18,73v-.23a3.87,3.87,0,0,1,3.64-3A2.84,2.84,0,0,1,108.81,72.77Z"/><path class="cls-1" d="M117.49,69.92c-1.65.19-2.38,1.59-2.38,6.94,0,4,2,6.24,4.54,6.24a6.05,6.05,0,0,0,4.08-1.48v.17a7.82,7.82,0,0,1-5.93,2.52A7.32,7.32,0,0,1,110.32,77a7.17,7.17,0,0,1,7.17-7.22Zm6.22,3a2.6,2.6,0,0,1-2.8,2.69,2.4,2.4,0,0,1-2.44-1.76,2.43,2.43,0,0,0,1.34-2,1.66,1.66,0,0,0-1.2-1.85v-.19C122.28,69.75,123.71,71.32,123.71,72.91Z"/><path class="cls-1" d="M126,71.18a1.51,1.51,0,0,0-1.54-1V70h7.84v.17c-1,0-1.37.67-.89,1.65l3.66,7.64L132.69,84h-.16ZM124.8,88.54a2.93,2.93,0,0,1,2.46-2.64,2.31,2.31,0,0,0-.11.7,1.64,1.64,0,0,0,1.65,1.88c1,0,1.77-1,2.83-2.83h.2c-1.54,2.89-2.61,5.38-4.57,5.38A2.33,2.33,0,0,1,124.8,88.54Zm11.48-11.79a7.76,7.76,0,0,0,.78-3.61,2.71,2.71,0,0,0-2.85-2.94V70h7v.17c-.93,0-1.29.36-1.82,1.31L136.45,77Z"/><path class="cls-1" d="M148.49,69.92c-1.66.19-2.38,1.59-2.38,6.94,0,4,2,6.24,4.53,6.24a6.06,6.06,0,0,0,4.09-1.48v.17a7.84,7.84,0,0,1-5.94,2.52A7.32,7.32,0,0,1,141.32,77a7.17,7.17,0,0,1,7.17-7.22Zm6.21,3a2.6,2.6,0,0,1-2.8,2.69,2.38,2.38,0,0,1-2.43-1.76,2.43,2.43,0,0,0,1.34-2,1.67,1.67,0,0,0-1.2-1.85v-.19C153.27,69.75,154.7,71.32,154.7,72.91Z"/><path class="cls-1" d="M156.16,64.54a17.19,17.19,0,0,0,6.69-1.09v19c0,.7.42,1.43,2.1,1.43V84h-8.82v-.17c1.68,0,2.1-.73,2.1-1.43V66.19c0-1-.48-1.48-2.07-1.48Z"/><path class="cls-1" d="M166.63,77a6.93,6.93,0,0,1,6.86-7.22v.17c-1.65.19-2.1,1.59-2.1,6.94,0,4,1.79,6.24,4.28,6.24a6.06,6.06,0,0,0,4.09-1.48v.17a7.82,7.82,0,0,1-5.93,2.52A7.1,7.1,0,0,1,166.63,77Zm6.3-1.17c2.46,0,3.5-.79,3.5-3.14,0-1.34-.56-2.58-1.82-2.74v-.17c3.7,0,5.49,2.63,5.49,4.76A8.59,8.59,0,0,1,180,76h-7Z"/><path class="cls-1" d="M20,100.81a17.21,17.21,0,0,0,6.7-1.09v12.71c0,.7.42,1.43,2.1,1.43V114H20v-.17c1.68,0,2.1-.73,2.1-1.43v-10c0-1-.48-1.48-2.08-1.48Zm1.43-5.26c0-1.46,1.18-2.44,2.86-2.44s2.85,1,2.85,2.44S26,98,24.31,98,21.45,97,21.45,95.55Z"/><path class="cls-1" d="M30,113.86c1.68,0,2.1-.73,2.1-1.43v-9.94c0-1-.47-1.48-2.07-1.48v-.17a17.19,17.19,0,0,0,6.69-1.09v12.68c0,.7.42,1.43,2.1,1.43V114H30Zm9.86,0c1.65,0,2.07-.73,2.07-1.43V103.7c0-1.57-.81-2.38-2.21-2.38a3,3,0,0,0-2.13.86V102a5.72,5.72,0,0,1,4.65-2.27c2.52,0,4.31,1.17,4.31,4v8.73c0,.7.42,1.43,2.1,1.43V114H39.85Z"/><path class="cls-1" d="M55,110.7a1.42,1.42,0,0,0-1.56,1.4c0,.81.56,1.84,2.49,2v.17c-3.73-.14-5.77-1.15-5.77-2.77a2.19,2.19,0,0,1,2.38-2.08A2.85,2.85,0,0,1,55,110.7ZM56,99.92c-1,.19-2.05.72-2,1.87.09,3.25,9.16,3.78,9.16,8.23,0,2.72-2.3,4.15-5.91,4.29v-.17c1.18-.2,2.49-.62,2.49-2.07,0-2.91-9.18-4-9.18-8.23,0-2.47,2.32-4,5.46-4.09Zm6.61,2.71a1.84,1.84,0,0,1-2.08,1.74A2.42,2.42,0,0,1,58.1,103a1.24,1.24,0,0,0,1.26-1.31c0-.84-1.06-1.65-2.18-1.79v-.17C60.34,99.92,62.56,101.06,62.56,102.63Z"/><path class="cls-1" d="M71.35,110.36c0,1.57.53,2.38,1.93,2.38a2.44,2.44,0,0,0,1.93-.87V112a4.67,4.67,0,0,1-4.34,2.27c-2.52,0-4.14-1.18-4.14-4v-7.87c0-1-.48-1.48-2.07-1.48v-.17a17.19,17.19,0,0,0,6.69-1.09Zm9.32,1.79c0,.81.25,1.15.76,1.15s.89-.42,1.34-1.26h.17c-.45,1.54-2,2.27-3.81,2.27s-3.08-1.12-3.08-2.75v-9.07c0-1-.47-1.48-2-1.48v-.17a18.25,18.25,0,0,0,6.61-1.09Z"/><path class="cls-1" d="M90.78,112.43c0,.7.42,1.43,2.1,1.43V114H84.06v-.17c1.68,0,2.1-.73,2.1-1.43v-9.94c0-1-.48-1.48-2.07-1.48v-.17a17.19,17.19,0,0,0,6.69-1.09Zm7.56-9.66A3,3,0,0,1,95.46,106a1.9,1.9,0,0,1-1.6-.61A2.05,2.05,0,0,0,95,103.44a1.49,1.49,0,0,0-1.57-1.51A1.93,1.93,0,0,0,91.7,103v-.23a3.89,3.89,0,0,1,3.64-3A2.84,2.84,0,0,1,98.34,102.77Z"/><path class="cls-1" d="M99.54,110.72c0-2.43,2.24-3.8,5.38-3.8h3v.16h-.84a2.77,2.77,0,0,0-3,3.06c0,1.54.44,2.71,1.76,2.71a3.06,3.06,0,0,0,2-1V112a6,6,0,0,1-4.45,2.27C101.11,114.31,99.52,113,99.54,110.72Zm1.12-7.92c0-1.43,1.29-2.88,5.1-3v.17a2,2,0,0,0-1.79,2c0,1,.7,1.62,1.82,1.71A3.16,3.16,0,0,1,103.1,105,2.24,2.24,0,0,1,100.66,102.8Zm8.12,8.34v-8.56c0-1.38-.53-2.47-1.9-2.66v-.17c4.65.17,6.5,1.93,6.5,5.6v6.8c0,.81.28,1.15.78,1.15s.9-.42,1.34-1.26h.17c-.45,1.54-2,2.27-3.64,2.27C109.79,114.31,108.78,113.52,108.78,111.14Z"/><path class="cls-1" d="M116.54,113.86c1.68,0,2.1-.73,2.1-1.43v-9.94c0-1-.48-1.48-2.07-1.48v-.17a17.19,17.19,0,0,0,6.69-1.09v12.68c0,.7.42,1.43,2.1,1.43V114h-8.82Zm9.86,0c1.65,0,2.07-.73,2.07-1.43V103.7c0-1.57-.81-2.38-2.21-2.38a3,3,0,0,0-2.13.86V102a5.69,5.69,0,0,1,4.64-2.27c2.52,0,4.32,1.17,4.32,4v8.73c0,.7.42,1.43,2.1,1.43V114H126.4Z"/><path class="cls-1" d="M143.87,99.92c-1.66.19-2.38,1.59-2.38,6.94,0,4,2,6.24,4.53,6.24a6.08,6.08,0,0,0,4.09-1.48v.17a7.84,7.84,0,0,1-5.94,2.52A7.32,7.32,0,0,1,136.7,107a7.17,7.17,0,0,1,7.17-7.22Zm6.21,3a2.6,2.6,0,0,1-2.8,2.69,2.38,2.38,0,0,1-2.43-1.76,2.43,2.43,0,0,0,1.34-2,1.67,1.67,0,0,0-1.2-1.85v-.19C148.65,99.75,150.08,101.32,150.08,102.91Z"/><path class="cls-1" d="M152.18,107A6.94,6.94,0,0,1,159,99.75v.17c-1.65.19-2.1,1.59-2.1,6.94,0,4,1.79,6.24,4.29,6.24a6.05,6.05,0,0,0,4.08-1.48v.17a7.82,7.82,0,0,1-5.93,2.52A7.1,7.1,0,0,1,152.18,107Zm6.3-1.17c2.47,0,3.5-.79,3.5-3.14,0-1.34-.56-2.58-1.82-2.74v-.17c3.7,0,5.49,2.63,5.49,4.76a8.59,8.59,0,0,1-.14,1.45h-7Z"/><rect class="cls-2" width="300" height="250"/></svg>