<?xml version="1.0" encoding="utf-8"?>
<!-- Generator: Adobe Illustrator 24.0.3, SVG Export Plug-In . SVG Version: 6.00 Build 0)  -->
<svg version="1.1" id="Layer_1" xmlns="http://www.w3.org/2000/svg" xmlns:xlink="http://www.w3.org/1999/xlink" x="0px" y="0px"
	 viewBox="0 0 320 50" style="enable-background:new 0 0 320 50;" xml:space="preserve">
<style type="text/css">
	.st0{clip-path:url(#SVGID_2_);}
	.st1{enable-background:new    ;}
	.st2{fill:#FFFFFF;}
</style>
<title>Artboard 1 copy 2</title>
<g>
	<defs>
		<rect id="SVGID_1_" y="0" width="320" height="50"/>
	</defs>
	<clipPath id="SVGID_2_">
		<use xlink:href="#SVGID_1_"  style="overflow:visible;"/>
	</clipPath>
	<g class="st0">
		<g class="st1">
			<path class="st2" d="M22.2,10.4l-4.3,10.1h-0.3L12.2,8.6c-0.3-0.7-1.1-1-2-1V7.5h5.1l4,8.6l2.9-6.1V10.4z M14.3,20.4v0.1h-4.2
				v-0.1c1.3,0,1.9-0.8,1.9-1.6l0.2-8.3l0.2,0.3l0.2,7.9C12.5,19.6,13.1,20.4,14.3,20.4z M26.2,8.6v10.8c0,0.5,0.3,1,1.4,1v0.1h-6.1
				v-0.1c1.1,0,1.4-0.5,1.4-1V7.5h4.7v0.1C26.5,7.6,26.2,8.1,26.2,8.6z"/>
		</g>
		<g class="st1">
			<path class="st2" d="M33.7,10.9c-1.1,0.1-1.5,1.1-1.5,4.8c0,3.6,0.4,4.8,1.5,4.9v0.1c-2.2,0-4.8-1.8-4.8-5c0-3.2,2.5-4.9,4.8-4.9
				V10.9z M39.2,15.7c0,3.2-2.5,5-4.7,5v-0.1c1.1-0.1,1.5-1.3,1.5-4.9c0-3.7-0.4-4.7-1.5-4.8v-0.1C36.6,10.8,39.2,12.5,39.2,15.7z"
				/>
		</g>
		<g class="st1">
			<path class="st2" d="M45,19.4c0,0.5,0.3,1,1.4,1v0.1h-6v-0.1c1.1,0,1.4-0.5,1.4-1v-6.8c0-0.7-0.3-1-1.4-1v-0.1
				c1.8,0,3.2-0.2,4.6-0.7V19.4z M50.2,12.8c0,1.3-0.9,2.2-2,2.2c-0.5,0-0.9-0.1-1.1-0.4c0.4-0.2,0.7-0.6,0.7-1.3c0-0.6-0.4-1-1.1-1
				c-0.5,0-0.9,0.3-1.1,0.7v-0.2c0.4-1.2,1.3-2.1,2.5-2.1C49.5,10.8,50.2,11.7,50.2,12.8z"/>
		</g>
		<g class="st1">
			<path class="st2" d="M51.2,15.7c0-3.2,2.4-4.9,4.7-4.9v0.1c-1.1,0.1-1.4,1.1-1.4,4.7c0,2.8,1.2,4.3,2.9,4.3c1.1,0,1.9-0.3,2.8-1
				V19c-1,1.3-2.8,1.7-4.1,1.7C53.7,20.7,51.2,18.9,51.2,15.7z M55.5,14.9c1.7,0,2.4-0.5,2.4-2.1c0-0.9-0.4-1.8-1.2-1.9v-0.1
				c2.5,0,3.7,1.8,3.7,3.2c0,0.3,0,0.7-0.1,1h-4.8V14.9z"/>
		</g>
		<g class="st1">
			<path class="st2" d="M66.8,15.7c0-3.2,2.4-4.9,4.7-4.9v0.1c-1.1,0.1-1.4,1.1-1.4,4.7c0,2.8,1.2,4.3,2.9,4.3c1.1,0,1.9-0.3,2.8-1
				V19c-1,1.3-2.8,1.7-4.1,1.7C69.3,20.7,66.8,18.9,66.8,15.7z M71.1,14.9c1.7,0,2.4-0.5,2.4-2.1c0-0.9-0.4-1.8-1.2-1.9v-0.1
				c2.5,0,3.7,1.8,3.7,3.2c0,0.3,0,0.7-0.1,1h-4.8V14.9z"/>
		</g>
		<g class="st1">
			<path class="st2" d="M77.6,11.7c-0.2-0.4-0.5-0.7-1.1-0.7v-0.1h5.3v0.1c-0.7,0-0.9,0.5-0.6,1.1l2.5,5.2l-1.6,3.1H82L77.6,11.7z
				 M84.6,15.5c0.3-0.6,0.5-1.4,0.5-2.5c0-1.1-0.6-2-1.9-2v-0.1h4.8v0.1c-0.6,0-0.9,0.2-1.2,0.9l-2,3.7L84.6,15.5z"/>
		</g>
		<g class="st1">
			<path class="st2" d="M88.1,15.7c0-3.2,2.4-4.9,4.7-4.9v0.1c-1.1,0.1-1.4,1.1-1.4,4.7c0,2.8,1.2,4.3,2.9,4.3c1.1,0,1.9-0.3,2.8-1
				V19c-1,1.3-2.8,1.7-4,1.7C90.5,20.7,88.1,18.9,88.1,15.7z M92.4,14.9c1.7,0,2.4-0.5,2.4-2.1c0-0.9-0.4-1.8-1.2-1.9v-0.1
				c2.5,0,3.7,1.8,3.7,3.2c0,0.3,0,0.7-0.1,1h-4.8V14.9z"/>
			<path class="st2" d="M103.1,19.4c0,0.5,0.3,1,1.4,1v0.1h-6v-0.1c1.1,0,1.4-0.5,1.4-1v-6.8c0-0.7-0.3-1-1.4-1v-0.1
				c1.8,0,3.2-0.2,4.6-0.7V19.4z M108.2,12.8c0,1.3-0.9,2.2-2,2.2c-0.5,0-0.9-0.1-1.1-0.4c0.4-0.2,0.7-0.6,0.7-1.3
				c0-0.6-0.4-1-1.1-1c-0.5,0-0.9,0.3-1.1,0.7v-0.2c0.4-1.2,1.3-2.1,2.5-2.1C107.5,10.8,108.2,11.7,108.2,12.8z"/>
			<path class="st2" d="M109.5,11.7c-0.2-0.4-0.5-0.7-1.1-0.7v-0.1h5.3v0.1c-0.7,0-0.9,0.5-0.6,1.1l2.5,5.2l-1.6,3.1H114L109.5,11.7
				z M108.7,23.6c0-0.8,0.6-1.5,1.7-1.8c-0.1,0.2-0.1,0.3-0.1,0.5c0,0.7,0.4,1.3,1.1,1.3c0.7,0,1.2-0.7,1.9-1.9h0.1
				c-1.1,2-1.8,3.7-3.1,3.7C109.3,25.3,108.7,24.5,108.7,23.6z M116.5,15.5c0.3-0.6,0.5-1.4,0.5-2.5c0-1.1-0.6-2-1.9-2v-0.1h4.8v0.1
				c-0.6,0-0.9,0.2-1.2,0.9l-2,3.7L116.5,15.5z"/>
			<path class="st2" d="M127.4,19v0.1c-0.6,0.9-1.8,1.5-3.3,1.5c-1.7,0-2.9-0.8-2.9-2.7v-6.3h-1l0.2-0.3h0.8V9.4
				c1.2,0,2.3-0.4,3.1-1.1v3.1h2.6l-0.2,0.3h-2.4v6.3c0,1,0.4,1.9,1.3,1.9C126.1,20,126.7,19.7,127.4,19z"/>
			<path class="st2" d="M132.3,19.4c0,0.5,0.3,1,1.4,1v0.1h-6v-0.1c1.1,0,1.4-0.5,1.4-1V8.3c0-0.7-0.3-1-1.4-1V7.2
				c1.8,0,3.2-0.2,4.6-0.7V19.4z M139,13.5v6c0,0.5,0.3,1,1.4,1v0.1h-6v-0.1c1.1,0,1.4-0.5,1.4-1v-6c0-1.1-0.6-1.6-1.5-1.6
				c-0.5,0-1,0.2-1.5,0.6v-0.1c0.5-0.8,1.8-1.5,3.2-1.5C137.8,10.8,139,11.6,139,13.5z"/>
			<path class="st2" d="M141.2,11.5c1.8,0,3.2-0.2,4.6-0.7v8.7c0,0.5,0.3,1,1.4,1v0.1h-6v-0.1c1.1,0,1.4-0.5,1.4-1v-6.8
				c0-0.7-0.3-1-1.4-1V11.5z M142.1,7.9c0-1,0.8-1.7,1.9-1.7s1.9,0.7,1.9,1.7c0,1-0.8,1.7-1.9,1.7S142.1,8.9,142.1,7.9z"/>
			<path class="st2" d="M148,20.4c1.1,0,1.4-0.5,1.4-1v-6.8c0-0.7-0.3-1-1.4-1v-0.1c1.8,0,3.2-0.2,4.6-0.7v8.7c0,0.5,0.3,1,1.4,1
				v0.1h-6V20.4z M154.7,20.4c1.1,0,1.4-0.5,1.4-1v-6c0-1.1-0.6-1.6-1.5-1.6c-0.5,0-1,0.2-1.5,0.6v-0.1c0.5-0.8,1.8-1.5,3.2-1.5
				c1.7,0,2.9,0.8,2.9,2.7v6c0,0.5,0.3,1,1.4,1v0.1h-6V20.4z"/>
			<path class="st2" d="M161.8,14.2c0-2.5,2.3-3.4,4.3-3.5v0.1c-0.8,0.1-1.2,1.1-1.2,3.3c0,2.3,0.4,3.2,1.2,3.3v0.1
				C164.2,17.6,161.8,16.7,161.8,14.2z M166.9,25.2c1.9-0.2,2.5-1.3,2.5-1.9c0-2.7-7.5-0.3-7.5-3.7c0-0.8,0.4-1.4,1.3-1.9l0.1,0.1
				c-0.1,0.1-0.2,0.2-0.2,0.4c0,2.1,8.7-0.3,8.7,3.8c0,2-1.7,3.2-4.9,3.4V25.2z M162,23.6c0-1.1,1.4-1.5,2.9-1.5
				c-0.3,0.2-0.8,0.7-0.8,1.4c0,0.9,1,1.5,2.1,1.7v0.1C164.1,25.2,162,24.8,162,23.6z M166.9,17.5c0.9-0.1,1.3-1,1.3-3.3
				c0-2.2-0.4-3.2-1.3-3.3v-0.1c2,0,4.4,1,4.4,3.5c0,2.5-2.3,3.4-4.4,3.4V17.5z M167.9,10.4c0.3-1,1.2-2.3,2.5-2.3
				c1,0,1.6,0.5,1.6,1.5c0,0.9-0.8,1.5-1.5,1.5c0-0.8-0.4-1.3-1-1.3C168.9,9.8,168.3,10.1,167.9,10.4L167.9,10.4z"/>
		</g>
		<g class="st1">
			<path class="st2" d="M17.5,39.2v0.1c-0.6,0.9-1.8,1.5-3.3,1.5c-1.7,0-2.9-0.8-2.9-2.7v-6.3h-1l0.2-0.3h0.8v-2.1
				c1.2,0,2.3-0.4,3.1-1.1v3.1H17l-0.2,0.3h-2.4v6.3c0,1,0.4,1.9,1.3,1.9C16.2,40.2,16.9,39.8,17.5,39.2z"/>
			<path class="st2" d="M22.5,39.6c0,0.5,0.3,1,1.4,1v0.1h-6v-0.1c1.1,0,1.4-0.5,1.4-1V28.5c0-0.7-0.3-1-1.4-1v-0.1
				c1.8,0,3.2-0.2,4.6-0.7V39.6z M29.1,33.6v6c0,0.5,0.3,1,1.4,1v0.1h-6v-0.1c1.1,0,1.4-0.5,1.4-1v-6c0-1.1-0.6-1.6-1.5-1.6
				c-0.5,0-1,0.2-1.5,0.6v-0.1c0.5-0.8,1.8-1.5,3.2-1.5C27.9,30.9,29.1,31.7,29.1,33.6z"/>
			<path class="st2" d="M31.4,38.4c0-1.7,1.5-2.6,3.7-2.6h2.1v0.1h-0.6c-1.4,0-2,0.9-2,2.1c0,1.1,0.3,1.9,1.2,1.9
				c0.5,0,1-0.3,1.4-0.7v0.1c-0.6,0.7-1.6,1.5-3,1.5C32.5,40.9,31.4,40,31.4,38.4z M32.2,33c0-1,0.9-2,3.5-2.1v0.1
				c-0.8,0.1-1.2,0.7-1.2,1.4c0,0.7,0.5,1.1,1.2,1.2c-0.3,0.5-1.1,0.9-1.8,0.9C32.8,34.5,32.2,33.8,32.2,33z M37.7,38.7v-5.8
				c0-0.9-0.4-1.7-1.3-1.8v-0.1c3.2,0.1,4.4,1.3,4.4,3.8v4.6c0,0.6,0.2,0.8,0.5,0.8c0.3,0,0.6-0.3,0.9-0.9h0.1
				c-0.3,1.1-1.3,1.5-2.5,1.5C38.4,40.9,37.7,40.3,37.7,38.7z"/>
			<path class="st2" d="M43,40.6c1.1,0,1.4-0.5,1.4-1v-6.8c0-0.7-0.3-1-1.4-1v-0.1c1.8,0,3.2-0.2,4.6-0.7v8.7c0,0.5,0.3,1,1.4,1v0.1
				h-6V40.6z M49.7,40.6c1.1,0,1.4-0.5,1.4-1v-6c0-1.1-0.6-1.6-1.5-1.6c-0.5,0-1,0.2-1.5,0.6v-0.1c0.5-0.8,1.8-1.5,3.2-1.5
				c1.7,0,2.9,0.8,2.9,2.7v6c0,0.5,0.3,1,1.4,1v0.1h-6V40.6z"/>
			<path class="st2" d="M61.4,38.4c0-1.7,1.5-2.6,3.7-2.6h2.1v0.1h-0.6c-1.4,0-2,0.9-2,2.1c0,1.1,0.3,1.9,1.2,1.9
				c0.5,0,1-0.3,1.4-0.7v0.1c-0.6,0.7-1.6,1.5-3,1.5C62.5,40.9,61.4,40,61.4,38.4z M62.2,33c0-1,0.9-2,3.5-2.1v0.1
				c-0.8,0.1-1.2,0.7-1.2,1.4c0,0.7,0.5,1.1,1.2,1.2c-0.3,0.5-1.1,0.9-1.8,0.9C62.8,34.5,62.2,33.8,62.2,33z M67.7,38.7v-5.8
				c0-0.9-0.4-1.7-1.3-1.8v-0.1c3.2,0.1,4.4,1.3,4.4,3.8v4.6c0,0.6,0.2,0.8,0.5,0.8c0.3,0,0.6-0.3,0.9-0.9h0.1
				c-0.3,1.1-1.3,1.5-2.5,1.5C68.4,40.9,67.7,40.3,67.7,38.7z"/>
		</g>
		<g class="st1">
			<path class="st2" d="M73,40.6c1.1,0,1.4-0.5,1.4-1v-6.8c0-0.7-0.3-1-1.4-1v-0.1c1.8,0,3.2-0.2,4.6-0.7v8.7c0,0.5,0.3,1,1.4,1v0.1
				h-6V40.6z M79.8,40.6c1.1,0,1.4-0.5,1.4-1v-6c0-1.1-0.6-1.6-1.5-1.6c-0.5,0-1,0.2-1.5,0.6v-0.1c0.5-0.8,1.8-1.5,3.2-1.5
				c1.7,0,2.9,0.8,2.9,2.7v6c0,0.5,0.3,1,1.4,1v0.1h-6V40.6z"/>
		</g>
		<g class="st1">
			<path class="st2" d="M86.5,31.9c-0.2-0.4-0.5-0.7-1.1-0.7v-0.1h5.3v0.1c-0.7,0-0.9,0.5-0.6,1.1l2.5,5.2l-1.6,3.1h-0.1L86.5,31.9z
				 M85.7,43.8c0-0.8,0.6-1.5,1.7-1.8c-0.1,0.2-0.1,0.3-0.1,0.5c0,0.7,0.4,1.3,1.1,1.3c0.7,0,1.2-0.7,1.9-1.9h0.1
				c-1.1,2-1.8,3.7-3.1,3.7C86.3,45.5,85.7,44.7,85.7,43.8z M93.5,35.7c0.3-0.6,0.5-1.4,0.5-2.5c0-1.1-0.6-2-1.9-2v-0.1h4.8v0.1
				c-0.6,0-0.9,0.2-1.2,0.9l-2,3.7L93.5,35.7z"/>
		</g>
		<g class="st1">
			<path class="st2" d="M101.7,31.1c-1.1,0.1-1.5,1.1-1.5,4.8c0,3.6,0.4,4.8,1.5,4.9v0.1c-2.2,0-4.8-1.8-4.8-5
				c0-3.2,2.5-4.9,4.8-4.9V31.1z M107.2,35.9c0,3.2-2.5,5-4.7,5v-0.1c1.1-0.1,1.5-1.3,1.5-4.9c0-3.7-0.4-4.7-1.5-4.8v-0.1
				C104.7,30.9,107.2,32.6,107.2,35.9z"/>
			<path class="st2" d="M108.5,40.6c1.1,0,1.4-0.5,1.4-1v-6.8c0-0.7-0.3-1-1.4-1v-0.1c1.8,0,3.2-0.2,4.6-0.7v8.7c0,0.5,0.3,1,1.4,1
				v0.1h-6V40.6z M115.2,40.6c1.1,0,1.4-0.5,1.4-1v-6c0-1.1-0.6-1.6-1.5-1.6c-0.5,0-1,0.2-1.5,0.6v-0.1c0.5-0.8,1.8-1.5,3.2-1.5
				c1.7,0,2.9,0.8,2.9,2.7v6c0,0.5,0.3,1,1.4,1v0.1h-6V40.6z"/>
			<path class="st2" d="M122.2,35.9c0-3.2,2.4-4.9,4.7-4.9v0.1c-1.1,0.1-1.4,1.1-1.4,4.7c0,2.8,1.2,4.3,2.9,4.3c1.1,0,1.9-0.3,2.8-1
				v0.1c-1,1.3-2.8,1.7-4.1,1.7C124.7,40.9,122.2,39.1,122.2,35.9z M126.5,35.1c1.7,0,2.4-0.5,2.4-2.1c0-0.9-0.4-1.8-1.2-1.9v-0.1
				c2.5,0,3.7,1.8,3.7,3.2c0,0.3,0,0.7-0.1,1h-4.8V35.1z"/>
			<path class="st2" d="M137.8,35.9c0-3.2,2.4-4.9,4.7-4.9v0.1c-1.1,0.1-1.4,1.1-1.4,4.7c0,2.8,1.2,4.3,2.9,4.3c1.1,0,1.9-0.3,2.8-1
				v0.1c-1,1.3-2.8,1.7-4.1,1.7C140.3,40.9,137.8,39.1,137.8,35.9z M142.1,35.1c1.7,0,2.4-0.5,2.4-2.1c0-0.9-0.4-1.8-1.2-1.9v-0.1
				c2.5,0,3.7,1.8,3.7,3.2c0,0.3,0,0.7-0.1,1h-4.8V35.1z"/>
			<path class="st2" d="M148.2,27.4c1.8,0,3.2-0.2,4.6-0.7v13c0,0.5,0.3,1,1.4,1v0.1h-6v-0.1c1.1,0,1.4-0.5,1.4-1V28.5
				c0-0.7-0.3-1-1.4-1V27.4z"/>
			<path class="st2" d="M158.6,38.4c-0.6,0-1.1,0.4-1.1,1c0,0.6,0.4,1.3,1.7,1.4v0.1c-2.5-0.1-3.9-0.8-3.9-1.9
				c0-0.9,0.8-1.4,1.6-1.4C157.7,37.6,158.3,37.9,158.6,38.4z M159.3,31.1c-0.7,0.1-1.4,0.5-1.4,1.3c0.1,2.2,6.2,2.6,6.2,5.6
				c0,1.9-1.6,2.8-4,2.9v-0.1c0.8-0.1,1.7-0.4,1.7-1.4c0-2-6.3-2.7-6.3-5.6c0-1.7,1.6-2.7,3.7-2.8V31.1z M163.8,32.9
				c0,0.6-0.5,1.2-1.4,1.2c-0.8,0-1.4-0.3-1.6-0.9c0.6,0,0.9-0.4,0.9-0.9c0-0.6-0.7-1.1-1.5-1.2v-0.1
				C162.3,31.1,163.8,31.8,163.8,32.9z"/>
			<path class="st2" d="M165.7,35.9c0-3.2,2.4-4.9,4.7-4.9v0.1c-1.1,0.1-1.4,1.1-1.4,4.7c0,2.8,1.2,4.3,2.9,4.3c1.1,0,1.9-0.3,2.8-1
				v0.1c-1,1.3-2.8,1.7-4.1,1.7C168.2,40.9,165.7,39.1,165.7,35.9z M170,35.1c1.7,0,2.4-0.5,2.4-2.1c0-0.9-0.4-1.8-1.2-1.9v-0.1
				c2.5,0,3.7,1.8,3.7,3.2c0,0.3,0,0.7-0.1,1H170V35.1z"/>
		</g>
	</g>
</g>
</svg>
