<svg id="Layer_1" data-name="Layer 1" xmlns="http://www.w3.org/2000/svg" viewBox="0 0 320 50"><defs><style>.cls-1{fill:#fff;}.cls-2{fill:none;}</style></defs><title>Artboard 1 copy 2</title><path class="cls-1" d="M20.1,11.8l-3.6,8.44h-.23l-4.57-10A1.73,1.73,0,0,0,10,9.45V9.36h4.31l3.33,7.23,2.46-5.11Zm-6.58,8.34v.1H10v-.1a1.41,1.41,0,0,0,1.57-1.34l.13-6.91.12.28L12,18.8A1.4,1.4,0,0,0,13.52,20.14Zm9.94-9.87v9.06c0,.43.24.81,1.2.81v.1H19.54v-.1c1,0,1.2-.38,1.2-.81v-10h3.92v.09C23.7,9.45,23.46,9.84,23.46,10.27Z"/><path class="cls-1" d="M29.71,12.17c-.94.12-1.26.92-1.26,4s.32,4,1.26,4.09v.1a4.07,4.07,0,0,1-4-4.19,4,4,0,0,1,4-4.13Zm4.61,4a4.08,4.08,0,0,1-4,4.19v-.1c.95-.09,1.25-1.1,1.25-4.09,0-3.14-.32-3.94-1.25-4v-.09A4,4,0,0,1,34.32,16.21Z"/><path class="cls-1" d="M39.22,19.33c0,.4.24.81,1.2.81v.1h-5v-.1c1,0,1.2-.41,1.2-.81V13.65c0-.58-.28-.85-1.19-.85v-.1a9.91,9.91,0,0,0,3.83-.62Zm4.32-5.52a1.71,1.71,0,0,1-1.65,1.82,1.1,1.1,0,0,1-.91-.35,1.18,1.18,0,0,0,.62-1.09.84.84,0,0,0-.89-.86,1.09,1.09,0,0,0-1,.6v-.12a2.2,2.2,0,0,1,2.08-1.73A1.63,1.63,0,0,1,43.54,13.81Z"/><path class="cls-1" d="M44.4,16.21a4,4,0,0,1,3.92-4.13v.09c-.94.12-1.2.92-1.2,4,0,2.31,1,3.57,2.45,3.57a3.47,3.47,0,0,0,2.34-.85V19a4.5,4.5,0,0,1-3.4,1.44A4,4,0,0,1,44.4,16.21Zm3.6-.68c1.41,0,2-.44,2-1.79,0-.77-.32-1.47-1-1.57v-.09A2.89,2.89,0,0,1,52.1,14.8a4.58,4.58,0,0,1-.08.83H48Z"/><path class="cls-1" d="M57.47,16.21a4,4,0,0,1,3.92-4.13v.09c-.94.12-1.2.92-1.2,4,0,2.31,1,3.57,2.45,3.57A3.46,3.46,0,0,0,65,18.86V19a4.47,4.47,0,0,1-3.39,1.44A4.06,4.06,0,0,1,57.47,16.21Zm3.6-.68c1.41,0,2-.44,2-1.79,0-.77-.32-1.47-1-1.57v-.09a2.89,2.89,0,0,1,3.14,2.72,4.58,4.58,0,0,1-.08.83h-4Z"/><path class="cls-1" d="M66.48,12.89a.87.87,0,0,0-.88-.56v-.09h4.48v.09c-.56,0-.78.39-.51.95l2.1,4.37-1.38,2.59h-.1Zm5.86,3.19A4.41,4.41,0,0,0,72.79,14a1.55,1.55,0,0,0-1.64-1.68v-.09h4v.09c-.53,0-.74.21-1,.76l-1.67,3.13Z"/><path class="cls-1" d="M75.26,16.21a4,4,0,0,1,3.93-4.13v.09c-1,.12-1.21.92-1.21,4,0,2.31,1,3.57,2.45,3.57a3.44,3.44,0,0,0,2.34-.85V19a4.47,4.47,0,0,1-3.39,1.44A4.06,4.06,0,0,1,75.26,16.21Zm3.6-.68c1.41,0,2-.44,2-1.79,0-.77-.32-1.47-1-1.57v-.09A2.88,2.88,0,0,1,83,14.8a4.58,4.58,0,0,1-.08.83h-4Z"/><path class="cls-1" d="M87.82,19.33c0,.4.24.81,1.21.81v.1H84v-.1c1,0,1.2-.41,1.2-.81V13.65c0-.58-.27-.85-1.18-.85v-.1a9.82,9.82,0,0,0,3.82-.62Zm4.33-5.52a1.71,1.71,0,0,1-1.65,1.82,1.09,1.09,0,0,1-.91-.35,1.18,1.18,0,0,0,.62-1.09.85.85,0,0,0-.9-.86,1.12,1.12,0,0,0-1,.6v-.12a2.22,2.22,0,0,1,2.08-1.73A1.63,1.63,0,0,1,92.15,13.81Z"/><path class="cls-1" d="M93.23,12.89a.87.87,0,0,0-.88-.56v-.09h4.48v.09c-.56,0-.78.39-.51.95l2.1,4.37L97,20.24h-.1Zm-.7,9.93a1.67,1.67,0,0,1,1.41-1.51,1.25,1.25,0,0,0-.07.4,1,1,0,0,0,.95,1.08c.56,0,1-.6,1.61-1.62h.11c-.88,1.65-1.48,3.07-2.6,3.07A1.33,1.33,0,0,1,92.53,22.82Zm6.56-6.74A4.41,4.41,0,0,0,99.54,14a1.55,1.55,0,0,0-1.64-1.68v-.09h4v.09c-.53,0-.74.21-1,.76l-1.66,3.13Z"/><path class="cls-1" d="M108.16,19v.09a3.34,3.34,0,0,1-2.74,1.3c-1.44,0-2.46-.66-2.46-2.26V12.89h-.83l.17-.24H103V10.93a4,4,0,0,0,2.62-.9v2.62h2.17l-.18.24h-2v5.3c0,.8.31,1.63,1.06,1.63A2.34,2.34,0,0,0,108.16,19Z"/><path class="cls-1" d="M112.29,19.33c0,.4.24.81,1.2.81v.1h-5v-.1c1,0,1.2-.41,1.2-.81V10c0-.57-.27-.84-1.19-.84V9.1a9.91,9.91,0,0,0,3.83-.62Zm5.6-5v5c0,.4.24.81,1.2.81v.1h-5v-.1c1,0,1.19-.41,1.19-.81v-5A1.19,1.19,0,0,0,114,13a1.71,1.71,0,0,0-1.21.5v-.1a3.27,3.27,0,0,1,2.66-1.29C116.87,12.08,117.89,12.75,117.89,14.33Z"/><path class="cls-1" d="M119.69,12.69a9.72,9.72,0,0,0,3.83-.63v7.27c0,.4.24.81,1.2.81v.1h-5v-.1c1,0,1.2-.41,1.2-.81v-5.7c0-.58-.27-.85-1.19-.85Zm.82-3a1.65,1.65,0,0,1,3.27,0,1.65,1.65,0,0,1-3.27,0Z"/><path class="cls-1" d="M125.39,20.14c1,0,1.2-.41,1.2-.81V13.65c0-.58-.27-.85-1.18-.85v-.1a9.82,9.82,0,0,0,3.82-.62v7.25c0,.4.24.81,1.2.81v.1h-5Zm5.63,0c.95,0,1.19-.41,1.19-.81v-5A1.19,1.19,0,0,0,130.94,13a1.71,1.71,0,0,0-1.21.5v-.1a3.27,3.27,0,0,1,2.66-1.29c1.44,0,2.46.67,2.46,2.25v5c0,.4.24.81,1.2.81v.1h-5Z"/><path class="cls-1" d="M137,15c0-2.08,1.95-2.86,3.59-2.89v.09c-.69.07-1,.9-1,2.76s.32,2.72,1,2.78v.1C139,17.81,137,17,137,15Zm4.26,9.18c1.6-.2,2.11-1.06,2.11-1.64,0-2.22-6.24-.24-6.24-3.1a1.86,1.86,0,0,1,1.07-1.63l.05.08a.35.35,0,0,0-.14.3c0,1.79,7.29-.29,7.29,3.2,0,1.65-1.42,2.72-4.14,2.88Zm-4.13-1.35c0-.94,1.17-1.23,2.43-1.23a1.34,1.34,0,0,0-.69,1.14c0,.73.84,1.29,1.75,1.44v.09C138.9,24.21,137.12,23.86,137.12,22.8Zm4.13-5.09c.78-.06,1.1-.85,1.1-2.78s-.33-2.69-1.1-2.76v-.09c1.69,0,3.66.81,3.66,2.89s-2,2.84-3.66,2.84Zm.86-5.92c.27-.82,1-1.92,2.12-1.92a1.19,1.19,0,0,1,1.36,1.22,1.28,1.28,0,0,1-1.3,1.24c0-.67-.35-1.07-.86-1.07a1.74,1.74,0,0,0-1.24.58Z"/><path class="cls-1" d="M16.19,37v.09a3.32,3.32,0,0,1-2.73,1.3C12,38.4,11,37.74,11,36.14V30.89h-.83l.18-.24H11V28.93a4.07,4.07,0,0,0,2.63-.9v2.62h2.16l-.18.24h-2v5.3c0,.8.3,1.63,1.05,1.63A2.32,2.32,0,0,0,16.19,37Z"/><path class="cls-1" d="M20.32,37.33c0,.4.24.81,1.2.81v.1h-5v-.1c1,0,1.2-.41,1.2-.81V28c0-.57-.27-.84-1.18-.84v-.1a9.86,9.86,0,0,0,3.82-.62Zm5.6-5v5c0,.4.24.81,1.2.81v.1h-5v-.1c.94,0,1.18-.41,1.18-.81v-5c0-.89-.46-1.36-1.26-1.36a1.73,1.73,0,0,0-1.22.5v-.1a3.27,3.27,0,0,1,2.66-1.29C24.9,30.08,25.92,30.75,25.92,32.33Z"/><path class="cls-1" d="M27.82,36.35c0-1.39,1.28-2.17,3.08-2.17h1.73v.09h-.48A1.58,1.58,0,0,0,30.45,36c0,.88.25,1.55,1,1.55A1.77,1.77,0,0,0,32.63,37v.09a3.41,3.41,0,0,1-2.55,1.3A2,2,0,0,1,27.82,36.35Zm.64-4.53c0-.81.74-1.65,2.92-1.74v.09a1.18,1.18,0,0,0-1,1.17c0,.58.4.93,1,1a1.78,1.78,0,0,1-1.53.77A1.29,1.29,0,0,1,28.46,31.82Zm4.65,4.77v-4.9c0-.78-.31-1.4-1.09-1.52v-.09c2.65.09,3.71,1.1,3.71,3.2v3.89c0,.46.16.65.45.65s.51-.24.77-.72H37A2,2,0,0,1,35,38.4C33.68,38.4,33.11,38,33.11,36.59Z"/><path class="cls-1" d="M37.54,38.14c1,0,1.2-.41,1.2-.81V31.65c0-.58-.28-.85-1.19-.85v-.1a9.91,9.91,0,0,0,3.83-.62v7.25c0,.4.24.81,1.2.81v.1h-5Zm5.63,0c.94,0,1.18-.41,1.18-.81v-5c0-.89-.46-1.36-1.26-1.36a1.73,1.73,0,0,0-1.22.5v-.1a3.3,3.3,0,0,1,2.66-1.29c1.44,0,2.47.67,2.47,2.25v5c0,.4.24.81,1.2.81v.1h-5Z"/><path class="cls-1" d="M53,36.35C53,35,54.24,34.18,56,34.18h1.73v.09h-.48A1.59,1.59,0,0,0,55.58,36c0,.88.26,1.55,1,1.55A1.75,1.75,0,0,0,57.76,37v.09a3.41,3.41,0,0,1-2.54,1.3A2,2,0,0,1,53,36.35Zm.64-4.53c0-.81.74-1.65,2.91-1.74v.09a1.17,1.17,0,0,0-1,1.17c0,.58.4.93,1,1a1.8,1.8,0,0,1-1.54.77A1.29,1.29,0,0,1,53.6,31.82Zm4.64,4.77v-4.9c0-.78-.3-1.4-1.09-1.52v-.09c2.66.09,3.72,1.1,3.72,3.2v3.89c0,.46.16.65.44.65s.52-.24.77-.72h.1a2,2,0,0,1-2.08,1.3C58.82,38.4,58.24,38,58.24,36.59Z"/><path class="cls-1" d="M62.67,38.14c1,0,1.2-.41,1.2-.81V31.65c0-.58-.27-.85-1.18-.85v-.1a9.82,9.82,0,0,0,3.82-.62v7.25c0,.4.24.81,1.2.81v.1h-5Zm5.64,0c.94,0,1.18-.41,1.18-.81v-5c0-.89-.46-1.36-1.26-1.36a1.72,1.72,0,0,0-1.22.5v-.1a3.27,3.27,0,0,1,2.66-1.29c1.44,0,2.46.67,2.46,2.25v5c0,.4.24.81,1.2.81v.1h-5Z"/><path class="cls-1" d="M74,30.89a.87.87,0,0,0-.88-.56v-.09h4.48v.09c-.56,0-.78.39-.51,1l2.1,4.37-1.38,2.59h-.09Zm-.7,9.93a1.67,1.67,0,0,1,1.41-1.51,1.25,1.25,0,0,0-.07.4,1,1,0,0,0,1,1.08c.56,0,1-.6,1.61-1.62h.12c-.89,1.65-1.49,3.07-2.61,3.07A1.33,1.33,0,0,1,73.25,40.82Zm6.56-6.74A4.41,4.41,0,0,0,80.26,32a1.55,1.55,0,0,0-1.63-1.68v-.09h4v.09c-.53,0-.74.21-1,.76l-1.66,3.13Z"/><path class="cls-1" d="M86.67,30.17c-.94.12-1.26.92-1.26,4s.32,4,1.26,4.09v.1a4.07,4.07,0,0,1-4-4.19,4,4,0,0,1,4-4.13Zm4.61,4a4.08,4.08,0,0,1-4,4.19v-.1c1-.09,1.25-1.1,1.25-4.09s-.32-3.94-1.25-4v-.09A4,4,0,0,1,91.28,34.21Z"/><path class="cls-1" d="M92.33,38.14c1,0,1.21-.41,1.21-.81V31.65c0-.58-.28-.85-1.19-.85v-.1a9.91,9.91,0,0,0,3.83-.62v7.25c0,.4.24.81,1.2.81v.1h-5Zm5.64,0c.94,0,1.18-.41,1.18-.81v-5c0-.89-.46-1.36-1.26-1.36a1.73,1.73,0,0,0-1.22.5v-.1a3.28,3.28,0,0,1,2.66-1.29c1.44,0,2.46.67,2.46,2.25v5c0,.4.24.81,1.21.81v.1H98Z"/><path class="cls-1" d="M103.85,34.21a4,4,0,0,1,3.93-4.13v.09c-1,.12-1.2.92-1.2,4,0,2.31,1,3.57,2.44,3.57a3.44,3.44,0,0,0,2.34-.85V37A4.47,4.47,0,0,1,108,38.4,4.06,4.06,0,0,1,103.85,34.21Zm3.61-.68c1.41,0,2-.44,2-1.79,0-.77-.32-1.47-1-1.57v-.09a2.88,2.88,0,0,1,3.13,2.72,4.58,4.58,0,0,1-.08.83h-4Z"/><path class="cls-1" d="M116.93,34.21a4,4,0,0,1,3.92-4.13v.09c-.95.12-1.2.92-1.2,4,0,2.31,1,3.57,2.45,3.57a3.43,3.43,0,0,0,2.33-.85V37A4.47,4.47,0,0,1,121,38.4,4,4,0,0,1,116.93,34.21Zm3.6-.68c1.41,0,2-.44,2-1.79,0-.77-.32-1.47-1-1.57v-.09a2.89,2.89,0,0,1,3.14,2.72,5.69,5.69,0,0,1-.08.83h-4Z"/><path class="cls-1" d="M125.57,27.1a9.82,9.82,0,0,0,3.82-.62V37.33c0,.4.24.81,1.2.81v.1h-5v-.1c1,0,1.2-.41,1.2-.81V28c0-.57-.27-.84-1.18-.84Z"/><path class="cls-1" d="M134.34,36.34a.82.82,0,0,0-.9.8c0,.46.32,1,1.42,1.16v.1c-2.13-.08-3.29-.66-3.29-1.58a1.25,1.25,0,0,1,1.36-1.19A1.64,1.64,0,0,1,134.34,36.34Zm.52-6.17c-.59.12-1.16.42-1.15,1.08,0,1.85,5.24,2.16,5.24,4.7,0,1.55-1.32,2.37-3.38,2.45v-.1c.67-.11,1.42-.35,1.42-1.18,0-1.66-5.25-2.27-5.25-4.71,0-1.4,1.33-2.25,3.12-2.33Zm3.78,1.56a1,1,0,0,1-1.18,1A1.36,1.36,0,0,1,136.1,32a.71.71,0,0,0,.72-.75c0-.48-.61-.95-1.25-1v-.09C137.38,30.17,138.64,30.83,138.64,31.73Z"/><path class="cls-1" d="M140.29,34.21a4,4,0,0,1,3.92-4.13v.09c-1,.12-1.2.92-1.2,4,0,2.31,1,3.57,2.45,3.57a3.43,3.43,0,0,0,2.33-.85V37a4.47,4.47,0,0,1-3.39,1.44A4,4,0,0,1,140.29,34.21Zm3.6-.68c1.41,0,2-.44,2-1.79,0-.77-.32-1.47-1-1.57v-.09A2.89,2.89,0,0,1,148,32.8a5.69,5.69,0,0,1-.08.83h-4Z"/><rect class="cls-2" width="320" height="50"/></svg>