<?xml version="1.0" encoding="utf-8"?>
<!-- Generator: Adobe Illustrator 24.0.3, SVG Export Plug-In . SVG Version: 6.00 Build 0)  -->
<svg version="1.1" id="Layer_1" xmlns="http://www.w3.org/2000/svg" xmlns:xlink="http://www.w3.org/1999/xlink" x="0px" y="0px"
	 viewBox="0 0 320 50" style="enable-background:new 0 0 320 50;" xml:space="preserve">
<style type="text/css">
	.st0{clip-path:url(#SVGID_2_);}
	.st1{enable-background:new    ;}
	.st2{fill:#263845;}
</style>
<title>Artboard 1 copy</title>
<g>
	<defs>
		<rect id="SVGID_1_" y="0" width="320" height="50"/>
	</defs>
	<clipPath id="SVGID_2_">
		<use xlink:href="#SVGID_1_"  style="overflow:visible;"/>
	</clipPath>
	<g class="st0">
		<g class="st1">
			<path class="st2" d="M12.2,11.5l0.2,0.2l0.2,8c0,0.8,0.6,1.6,1.9,1.6v0.1h-4.2v-0.1c1.3,0,1.9-0.8,1.9-1.6L12.2,11.5z M22.3,21.5
				h-2.1l-8-11.9c-0.5-0.7-1.1-1-2-1V8.5h5.1l7,10.5V21.5z M22.2,17.1l-0.2-0.2l-0.2-6.7c0-0.8-0.6-1.6-1.9-1.6V8.5h4.2v0.1
				c-1.3,0-1.9,0.8-1.9,1.6L22.2,17.1z"/>
			<path class="st2" d="M32.7,8.5h3.6l-7.6,13h-3.6L32.7,8.5z M25.7,8.5h5.8l-0.1,0.1c-2.8,0.2-5.1,2.1-5.6,4.5h-0.2V8.5z
				 M30.1,21.4c2.9-0.2,5.2-2,6-5.1h0.2v5.2H30L30.1,21.4z"/>
		</g>
		<g class="st1">
			<path class="st2" d="M41.7,9.1c0,1.1-1.2,2.6-3.1,3.4l-0.1-0.2c0.6-0.4,1.1-1.2,1.1-1.9c0-0.9-0.6-1.2-1.3-1.3
				c0.2-1.1,0.8-1.7,1.8-1.7C41,7.5,41.7,8.1,41.7,9.1z"/>
		</g>
		<g class="st1">
			<path class="st2" d="M45.6,19.2c-0.6,0-1.1,0.4-1.1,1c0,0.6,0.4,1.3,1.7,1.4v0.1c-2.5-0.1-3.9-0.8-3.9-1.9c0-0.9,0.8-1.4,1.6-1.4
				C44.7,18.4,45.3,18.7,45.6,19.2z M46.3,11.9c-0.7,0.1-1.4,0.5-1.4,1.3c0.1,2.2,6.2,2.6,6.2,5.6c0,1.9-1.6,2.8-4,2.9v-0.1
				c0.8-0.1,1.7-0.4,1.7-1.4c0-2-6.3-2.7-6.3-5.6c0-1.7,1.6-2.7,3.7-2.8V11.9z M50.8,13.7c0,0.6-0.5,1.2-1.4,1.2
				c-0.8,0-1.4-0.3-1.6-0.9c0.6,0,0.9-0.4,0.9-0.9c0-0.6-0.7-1.1-1.5-1.2v-0.1C49.3,11.9,50.8,12.7,50.8,13.7z"/>
			<path class="st2" d="M57.2,8.2c1.8,0,3.2-0.2,4.6-0.7v13c0,0.5,0.3,1,1.4,1v0.1h-6v-0.1c1.1,0,1.4-0.5,1.4-1V9.3
				c0-0.7-0.3-1-1.4-1V8.2z"/>
			<path class="st2" d="M64.3,16.7c0-3.2,2.4-4.9,4.7-4.9v0.1c-1.1,0.1-1.4,1.1-1.4,4.7c0,2.8,1.2,4.3,2.9,4.3c1.1,0,1.9-0.3,2.8-1
				V20c-1,1.3-2.8,1.7-4.1,1.7C66.8,21.7,64.3,19.9,64.3,16.7z M68.6,15.9c1.7,0,2.4-0.5,2.4-2.1c0-0.9-0.4-1.8-1.2-1.9v-0.1
				c2.5,0,3.7,1.8,3.7,3.2c0,0.3,0,0.7-0.1,1h-4.8V15.9z"/>
			<path class="st2" d="M74.9,19.2c0-1.7,1.5-2.6,3.7-2.6h2.1v0.1H80c-1.4,0-2,0.9-2,2.1c0,1.1,0.3,1.9,1.2,1.9c0.5,0,1-0.3,1.4-0.7
				v0.1c-0.6,0.7-1.6,1.5-3,1.5C75.9,21.7,74.9,20.8,74.9,19.2z M75.6,13.8c0-1,0.9-2,3.5-2.1v0.1c-0.8,0.1-1.2,0.7-1.2,1.4
				c0,0.7,0.5,1.1,1.2,1.2c-0.3,0.5-1.1,0.9-1.8,0.9C76.3,15.3,75.6,14.6,75.6,13.8z M81.2,19.5v-5.8c0-0.9-0.4-1.7-1.3-1.8v-0.1
				c3.2,0.1,4.4,1.3,4.4,3.8v4.6c0,0.6,0.2,0.8,0.5,0.8c0.3,0,0.6-0.3,0.9-0.9h0.1c-0.3,1.1-1.3,1.5-2.5,1.5
				C81.9,21.7,81.2,21.2,81.2,19.5z"/>
			<path class="st2" d="M93.6,13.3v0.2c-0.4-0.5-1-0.7-1.6-0.7c-1,0-1.9,0.4-1.9,3.9c0,3.4,1,4.1,1.9,4.1c0.6,0,1.1-0.3,1.6-0.7v0.1
				c-0.5,0.8-1.7,1.5-2.8,1.5c-1.8,0-3.9-1.1-3.9-5.1c0-3.8,2.1-4.9,3.9-4.9C91.9,11.8,93.1,12.5,93.6,13.3z M97.3,20.2
				c0,0.6,0.2,0.8,0.5,0.8c0.3,0,0.6-0.3,0.9-0.9h0.1c-0.3,1.1-1.3,1.5-2.5,1.5c-1.5,0-2.2-0.5-2.2-2.2V9.3c0-0.7-0.3-1-1.4-1V8.2
				c1.8,0,3-0.2,4.6-0.7V20.2z"/>
			<path class="st2" d="M99.7,12.5c1.8,0,3.2-0.2,4.6-0.7v8.7c0,0.5,0.3,1,1.4,1v0.1h-6v-0.1c1.1,0,1.4-0.5,1.4-1v-6.8
				c0-0.7-0.3-1-1.4-1V12.5z M100.7,8.9c0-1,0.8-1.7,1.9-1.7c1.1,0,1.9,0.7,1.9,1.7c0,1-0.8,1.7-1.9,1.7
				C101.5,10.6,100.7,9.9,100.7,8.9z"/>
			<path class="st2" d="M106.5,21.4c1.1,0,1.4-0.5,1.4-1v-6.8c0-0.7-0.3-1-1.4-1v-0.1c1.8,0,3.2-0.2,4.6-0.7v8.7c0,0.5,0.3,1,1.4,1
				v0.1h-6V21.4z M113.2,21.4c1.1,0,1.4-0.5,1.4-1v-6c0-1.1-0.6-1.6-1.5-1.6c-0.5,0-1,0.2-1.5,0.6v-0.1c0.5-0.8,1.8-1.5,3.2-1.5
				c1.7,0,2.9,0.8,2.9,2.7v6c0,0.5,0.3,1,1.4,1v0.1h-6V21.4z"/>
			<path class="st2" d="M120.3,15.2c0-2.5,2.3-3.4,4.3-3.5v0.1c-0.8,0.1-1.2,1.1-1.2,3.3c0,2.3,0.4,3.2,1.2,3.3v0.1
				C122.7,18.6,120.3,17.7,120.3,15.2z M125.4,26.2c1.9-0.2,2.5-1.3,2.5-1.9c0-2.7-7.5-0.3-7.5-3.7c0-0.8,0.4-1.4,1.3-1.9l0.1,0.1
				c-0.1,0.1-0.2,0.2-0.2,0.4c0,2.1,8.7-0.3,8.7,3.8c0,2-1.7,3.2-4.9,3.4V26.2z M120.5,24.6c0-1.1,1.4-1.5,2.9-1.5
				c-0.3,0.2-0.8,0.7-0.8,1.4c0,0.9,1,1.5,2.1,1.7v0.1C122.6,26.2,120.5,25.8,120.5,24.6z M125.4,18.5c0.9-0.1,1.3-1,1.3-3.3
				c0-2.2-0.4-3.2-1.3-3.3v-0.1c2,0,4.4,1,4.4,3.5c0,2.5-2.4,3.4-4.4,3.4V18.5z M126.5,11.4c0.3-1,1.2-2.3,2.5-2.3
				c1,0,1.6,0.5,1.6,1.5c0,0.9-0.8,1.5-1.5,1.5c0-0.8-0.4-1.3-1-1.3C127.4,10.8,126.8,11.1,126.5,11.4L126.5,11.4z"/>
		</g>
		<g class="st1">
			<path class="st2" d="M142.5,21.4v0.1h-6.1v-0.1c1.1,0,1.4-0.5,1.4-1V9.6c0-0.6-0.3-1-1.4-1V8.5h4.7v11.9
				C141,20.9,141.3,21.4,142.5,21.4z M149.9,20.1c-0.3,1.1-1.4,1.5-2.8,1.5c-2.5,0-3.1-1.7-3.2-3.3c-0.1-1.6-0.3-2.8-1.9-3v-0.1
				c1.8,0,2.5-1.5,2.5-3.4c0-2.1-0.8-3.2-2.5-3.2V8.5c3.9,0,5.8,0.9,5.8,3.3c0,2.1-1.5,3.3-4.4,3.5c3.5,0.2,4,1.5,4.2,3.1
				c0.2,1.5,0.6,2.6,1.3,2.6c0.3,0,0.6-0.3,1-0.9H149.9z"/>
		</g>
		<g class="st1">
			<path class="st2" d="M150.2,9.6c-0.3-0.7-0.8-1-1.7-1V8.5h6.9v0.1c-0.9,0-1.7,0.6-1.2,1.6l3.6,7.6l-1.7,3.9h-0.2L150.2,9.6z
				 M158.6,16c1.1-2.6,1.4-4.1,1.4-5.3c0-1.4-1.2-2.1-2.2-2.1V8.5h5.5v0.1c-0.9,0-1.4,0.8-2,2.1l-2.6,5.5L158.6,16z"/>
		</g>
		<g class="st1">
			<path class="st2" d="M10.1,32.7c1.8,0,3.2-0.2,4.6-0.7v8.7c0,0.5,0.3,1,1.4,1v0.1h-6v-0.1c1.1,0,1.4-0.5,1.4-1v-6.8
				c0-0.7-0.3-1-1.4-1V32.7z M11.1,29.1c0-1,0.8-1.7,1.9-1.7c1.1,0,1.9,0.7,1.9,1.7c0,1-0.8,1.7-1.9,1.7
				C11.9,30.8,11.1,30.1,11.1,29.1z"/>
			<path class="st2" d="M16.9,41.6c1.1,0,1.4-0.5,1.4-1v-6.8c0-0.7-0.3-1-1.4-1v-0.1c1.8,0,3.2-0.2,4.6-0.7v8.7c0,0.5,0.3,1,1.4,1
				v0.1h-6V41.6z M23.7,41.6c1.1,0,1.4-0.5,1.4-1v-6c0-1.1-0.6-1.6-1.5-1.6c-0.5,0-1,0.2-1.5,0.6v-0.1c0.5-0.8,1.8-1.5,3.2-1.5
				c1.7,0,2.9,0.8,2.9,2.7v6c0,0.5,0.3,1,1.4,1v0.1h-6V41.6z"/>
			<path class="st2" d="M34,39.4c-0.6,0-1.1,0.4-1.1,1c0,0.6,0.4,1.3,1.7,1.4v0.1c-2.5-0.1-3.9-0.8-3.9-1.9c0-0.9,0.8-1.4,1.6-1.4
				C33.1,38.6,33.7,38.9,34,39.4z M34.7,32.1c-0.7,0.1-1.4,0.5-1.4,1.3c0.1,2.2,6.2,2.6,6.2,5.6c0,1.9-1.6,2.8-4,2.9v-0.1
				c0.8-0.1,1.7-0.4,1.7-1.4c0-2-6.3-2.7-6.3-5.6c0-1.7,1.6-2.7,3.7-2.8V32.1z M39.2,33.9c0,0.6-0.5,1.2-1.4,1.2
				c-0.8,0-1.4-0.3-1.6-0.9c0.6,0,0.9-0.4,0.9-0.9c0-0.6-0.7-1.1-1.5-1.2v-0.1C37.7,32.1,39.2,32.8,39.2,33.9z"/>
			<path class="st2" d="M45.2,39.2c0,1.1,0.4,1.6,1.3,1.6c0.5,0,0.9-0.2,1.3-0.6v0.1c-0.4,0.8-1.4,1.5-3,1.5c-1.7,0-2.8-0.8-2.8-2.7
				v-5.4c0-0.7-0.3-1-1.4-1v-0.1c1.8,0,3.2-0.2,4.6-0.7V39.2z M51.5,40.4c0,0.6,0.2,0.8,0.5,0.8c0.3,0,0.6-0.3,0.9-0.9h0.1
				c-0.3,1.1-1.3,1.5-2.6,1.5c-1.3,0-2.1-0.8-2.1-1.9v-6.2c0-0.7-0.3-1-1.4-1v-0.1c1.7,0,2.9-0.2,4.5-0.7V40.4z"/>
		</g>
		<g class="st1">
			<path class="st2" d="M58.4,40.6c0,0.5,0.3,1,1.4,1v0.1h-6v-0.1c1.1,0,1.4-0.5,1.4-1v-6.8c0-0.7-0.3-1-1.4-1v-0.1
				c1.8,0,3.2-0.2,4.6-0.7V40.6z M63.6,34c0,1.3-0.9,2.2-2,2.2c-0.5,0-0.9-0.1-1.1-0.4c0.4-0.2,0.7-0.6,0.7-1.3c0-0.6-0.4-1-1.1-1
				c-0.5,0-0.9,0.3-1.1,0.7V34c0.4-1.2,1.3-2.1,2.5-2.1C62.9,31.9,63.6,32.9,63.6,34z"/>
		</g>
		<g class="st1">
			<path class="st2" d="M64.4,39.4c0-1.7,1.5-2.6,3.7-2.6h2.1v0.1h-0.6c-1.4,0-2,0.9-2,2.1c0,1.1,0.3,1.9,1.2,1.9
				c0.5,0,1-0.3,1.4-0.7v0.1c-0.6,0.7-1.6,1.5-3,1.5C65.5,41.9,64.4,41,64.4,39.4z M65.2,34c0-1,0.9-2,3.5-2.1v0.1
				c-0.8,0.1-1.2,0.7-1.2,1.4c0,0.7,0.5,1.1,1.2,1.2c-0.3,0.5-1.1,0.9-1.8,0.9C65.8,35.5,65.2,34.8,65.2,34z M70.7,39.7v-5.8
				c0-0.9-0.4-1.7-1.3-1.8v-0.1c3.2,0.1,4.4,1.3,4.4,3.8v4.6c0,0.6,0.2,0.8,0.5,0.8c0.3,0,0.6-0.3,0.9-0.9h0.1
				c-0.3,1.1-1.3,1.5-2.5,1.5C71.4,41.9,70.7,41.3,70.7,39.7z"/>
			<path class="st2" d="M76,41.6c1.1,0,1.4-0.5,1.4-1v-6.8c0-0.7-0.3-1-1.4-1v-0.1c1.8,0,3.2-0.2,4.6-0.7v8.7c0,0.5,0.3,1,1.4,1v0.1
				h-6V41.6z M82.7,41.6c1.1,0,1.4-0.5,1.4-1v-6c0-1.1-0.6-1.6-1.5-1.6c-0.5,0-1,0.2-1.5,0.6v-0.1c0.5-0.8,1.8-1.5,3.2-1.5
				c1.7,0,2.9,0.8,2.9,2.7v6c0,0.5,0.3,1,1.4,1v0.1h-6V41.6z"/>
			<path class="st2" d="M94.7,32.1c-1.1,0.1-1.6,1.1-1.6,4.7c0,2.8,1.4,4.3,3.1,4.3c1.1,0,1.9-0.3,2.8-1v0.1c-1,1.3-2.8,1.7-4,1.7
				c-2.4,0-5.1-1.8-5.1-5c0-3.2,2.7-4.9,4.9-4.9V32.1z M98.9,34.1c0,1-0.7,1.8-1.9,1.8c-0.9,0-1.5-0.6-1.7-1.2
				c0.5-0.2,0.9-0.9,0.9-1.4c0-0.4-0.1-1.1-0.8-1.3v-0.1C97.9,31.9,98.9,33,98.9,34.1z"/>
			<path class="st2" d="M100.3,36.9c0-3.2,2.4-4.9,4.7-4.9v0.1c-1.1,0.1-1.4,1.1-1.4,4.7c0,2.8,1.2,4.3,2.9,4.3c1.1,0,1.9-0.3,2.8-1
				v0.1c-1,1.3-2.8,1.7-4.1,1.7C102.8,41.9,100.3,40.1,100.3,36.9z M104.6,36.1c1.7,0,2.4-0.5,2.4-2.1c0-0.9-0.4-1.8-1.2-1.9v-0.1
				c2.5,0,3.7,1.8,3.7,3.2c0,0.3,0,0.7-0.1,1h-4.8V36.1z"/>
			<path class="st2" d="M120,44.6c0,0.7,0.3,1,1.4,1v0.1c-1.8,0-3,0.2-4.6,0.7V33.8c0-0.7-0.3-1-1.4-1v-0.1c1.8,0,3-0.2,4.6-0.7
				V44.6z M127.3,36.8c0,4-2.1,5.1-3.9,5.1c-1.1,0-2.3-0.7-2.8-1.5v-0.1c0.5,0.4,1,0.7,1.6,0.7c0.9,0,1.9-0.6,1.9-4.1
				c0-3.5-0.9-3.9-1.9-3.9c-0.6,0-1.2,0.2-1.6,0.7v-0.2c0.5-0.8,1.7-1.5,2.8-1.5C125.2,31.9,127.3,33,127.3,36.8z"/>
			<path class="st2" d="M133.8,32.1c-1.1,0.1-1.5,1.1-1.5,4.8c0,3.6,0.4,4.8,1.5,4.9v0.1c-2.2,0-4.8-1.8-4.8-5
				c0-3.2,2.5-4.9,4.8-4.9V32.1z M139.3,36.9c0,3.2-2.5,5-4.7,5v-0.1c1.1-0.1,1.5-1.3,1.5-4.9c0-3.7-0.4-4.7-1.5-4.8v-0.1
				C136.7,31.9,139.3,33.6,139.3,36.9z"/>
			<path class="st2" d="M140.4,28.4c1.8,0,3.2-0.2,4.6-0.7v13c0,0.5,0.3,1,1.4,1v0.1h-6v-0.1c1.1,0,1.4-0.5,1.4-1V29.5
				c0-0.7-0.3-1-1.4-1V28.4z"/>
			<path class="st2" d="M147.3,32.7c1.8,0,3.2-0.2,4.6-0.7v8.7c0,0.5,0.3,1,1.4,1v0.1h-6v-0.1c1.1,0,1.4-0.5,1.4-1v-6.8
				c0-0.7-0.3-1-1.4-1V32.7z M148.2,29.1c0-1,0.8-1.7,1.9-1.7c1.1,0,1.9,0.7,1.9,1.7c0,1-0.8,1.7-1.9,1.7
				C149,30.8,148.2,30.1,148.2,29.1z"/>
			<path class="st2" d="M159.3,32.1c-1.1,0.1-1.6,1.1-1.6,4.7c0,2.8,1.4,4.3,3.1,4.3c1.1,0,1.9-0.3,2.8-1v0.1c-1,1.3-2.8,1.7-4,1.7
				c-2.4,0-5.1-1.8-5.1-5c0-3.2,2.7-4.9,4.9-4.9V32.1z M163.5,34.1c0,1-0.7,1.8-1.9,1.8c-0.9,0-1.5-0.6-1.7-1.2
				c0.5-0.2,0.9-0.9,0.9-1.4c0-0.4-0.1-1.1-0.8-1.3v-0.1C162.6,31.9,163.5,33,163.5,34.1z"/>
		</g>
		<g class="st1">
			<path class="st2" d="M165.1,32.9c-0.2-0.4-0.5-0.7-1.1-0.7v-0.1h5.3v0.1c-0.7,0-0.9,0.5-0.6,1.1l2.5,5.2l-1.6,3.1h-0.1
				L165.1,32.9z M164.3,44.8c0-0.8,0.6-1.5,1.7-1.8c-0.1,0.2-0.1,0.3-0.1,0.5c0,0.7,0.4,1.3,1.1,1.3c0.7,0,1.2-0.7,1.9-1.9h0.1
				c-1.1,2-1.8,3.7-3.1,3.7C164.9,46.5,164.3,45.7,164.3,44.8z M172.1,36.7c0.3-0.6,0.5-1.4,0.5-2.5c0-1.1-0.6-2-1.9-2v-0.1h4.8v0.1
				c-0.6,0-0.9,0.2-1.2,0.9l-2,3.7L172.1,36.7z"/>
		</g>
	</g>
</g>
</svg>
