<?xml version="1.0" encoding="utf-8"?>
<!-- Generator: Adobe Illustrator 24.0.3, SVG Export Plug-In . SVG Version: 6.00 Build 0)  -->
<svg version="1.1" id="Layer_1" xmlns="http://www.w3.org/2000/svg" xmlns:xlink="http://www.w3.org/1999/xlink" x="0px" y="0px"
	 viewBox="0 0 320 50" style="enable-background:new 0 0 320 50;" xml:space="preserve">
<style type="text/css">
	.st0{clip-path:url(#SVGID_2_);}
	.st1{enable-background:new    ;}
	.st2{fill:#FFFFFF;}
</style>
<title>Artboard 1 copy 3</title>
<g>
	<defs>
		<rect id="SVGID_1_" y="0" width="320" height="50"/>
	</defs>
	<clipPath id="SVGID_2_">
		<use xlink:href="#SVGID_1_"  style="overflow:visible;"/>
	</clipPath>
	<g class="st0">
		<g class="st1">
			<path class="st2" d="M20.9,20.6v0.1h-6.1v-0.1c1.1,0,1.4-0.5,1.4-1V8.8c0-0.6-0.3-1-1.4-1V7.8h4.7v11.9
				C19.5,20.2,19.7,20.6,20.9,20.6z M28.4,19.4c-0.3,1.1-1.4,1.5-2.8,1.5c-2.5,0-3.1-1.7-3.2-3.3c-0.1-1.6-0.3-2.8-1.9-3v-0.1
				c1.8,0,2.5-1.5,2.5-3.4c0-2.1-0.8-3.2-2.5-3.2V7.8c3.9,0,5.8,0.9,5.8,3.3c0,2.1-1.5,3.3-4.4,3.5c3.5,0.2,4,1.5,4.2,3.1
				c0.2,1.5,0.6,2.6,1.3,2.6c0.3,0,0.6-0.3,1-0.9H28.4z"/>
		</g>
		<g class="st1">
			<path class="st2" d="M28.8,15.9c0-3.2,2.4-4.9,4.7-4.9v0.1c-1.1,0.1-1.4,1.1-1.4,4.7c0,2.8,1.2,4.3,2.9,4.3c1.1,0,1.9-0.3,2.8-1
				v0.1c-1,1.3-2.8,1.7-4.1,1.7C31.2,20.9,28.8,19.1,28.8,15.9z M33.1,15.1c1.7,0,2.4-0.5,2.4-2.1c0-0.9-0.4-1.8-1.2-1.9V11
				c2.5,0,3.7,1.8,3.7,3.2c0,0.3,0,0.7-0.1,1h-4.8V15.1z"/>
			<path class="st2" d="M39.3,18.5c0-1.7,1.5-2.6,3.7-2.6h2.1V16h-0.6c-1.4,0-2,0.9-2,2.1c0,1.1,0.3,1.9,1.2,1.9
				c0.5,0,1-0.3,1.4-0.7v0.1c-0.6,0.7-1.6,1.5-3,1.5C40.4,20.9,39.3,20,39.3,18.5z M40.1,13.1c0-1,0.9-2,3.5-2.1v0.1
				c-0.8,0.1-1.2,0.7-1.2,1.4c0,0.7,0.5,1.1,1.2,1.2c-0.3,0.5-1.1,0.9-1.8,0.9C40.7,14.6,40.1,13.9,40.1,13.1z M45.6,18.8v-5.8
				c0-0.9-0.4-1.7-1.3-1.8V11c3.2,0.1,4.4,1.3,4.4,3.8v4.6c0,0.6,0.2,0.8,0.5,0.8c0.3,0,0.6-0.3,0.9-0.9h0.1
				c-0.3,1.1-1.3,1.5-2.5,1.5C46.3,20.9,45.6,20.4,45.6,18.8z"/>
		</g>
		<g class="st1">
			<path class="st2" d="M58.1,12.5v0.2c-0.4-0.5-1-0.7-1.6-0.7c-1,0-1.9,0.4-1.9,3.9c0,3.4,1,4.1,1.9,4.1c0.6,0,1.1-0.3,1.6-0.7v0.1
				c-0.5,0.8-1.7,1.5-2.8,1.5c-1.8,0-3.9-1.1-3.9-5.1c0-3.8,2.1-4.9,3.9-4.9C56.4,11,57.6,11.7,58.1,12.5z M61.8,19.5
				c0,0.6,0.2,0.8,0.5,0.8c0.3,0,0.6-0.3,0.9-0.9h0.1c-0.3,1.1-1.3,1.5-2.5,1.5c-1.5,0-2.2-0.5-2.2-2.2V8.6c0-0.7-0.3-1-1.4-1V7.5
				c1.8,0,3-0.2,4.6-0.7V19.5z"/>
		</g>
		<g class="st1">
			<path class="st2" d="M64.4,12c-0.2-0.4-0.5-0.7-1.1-0.7v-0.1h5.3v0.1c-0.7,0-0.9,0.5-0.6,1.1l2.5,5.2L69,20.8h-0.1L64.4,12z
				 M63.6,23.8c0-0.8,0.6-1.5,1.7-1.8c-0.1,0.2-0.1,0.3-0.1,0.5c0,0.7,0.4,1.3,1.1,1.3c0.7,0,1.2-0.7,1.9-1.9h0.1
				c-1.1,2-1.8,3.7-3.1,3.7C64.2,25.5,63.6,24.8,63.6,23.8z M71.4,15.8c0.3-0.6,0.5-1.4,0.5-2.5c0-1.1-0.6-2-1.9-2v-0.1h4.8v0.1
				c-0.6,0-0.9,0.2-1.2,0.9l-2,3.7L71.4,15.8z"/>
		</g>
		<g class="st1">
			<path class="st2" d="M85.7,11.7L85.5,12h-1.9v7.7c0,0.5,0.3,1,1.5,1v0.1h-6v-0.1c1.1,0,1.4-0.5,1.4-1V12h-1.2l0.2-0.3h1v-0.9
				c0-2.7,1.4-3.9,3.2-4.1v0.1c-0.6,0.2-1.1,0.9-1.1,2C82.5,10,83.3,11.7,85.7,11.7z M87.3,8.8c0,1.1-0.8,1.7-1.7,1.7
				c-1,0-1.6-0.6-1.9-1.3c0.8,0,1.4-0.5,1.4-1.2c0-0.5-0.3-1-0.7-1.1V6.7C86.4,6.8,87.3,7.7,87.3,8.8z"/>
		</g>
		<g class="st1">
			<path class="st2" d="M91.4,11.1c-1.1,0.1-1.5,1.1-1.5,4.8c0,3.6,0.4,4.8,1.5,4.9v0.1c-2.2,0-4.8-1.8-4.8-5c0-3.2,2.5-4.9,4.8-4.9
				V11.1z M96.9,15.9c0,3.2-2.5,5-4.7,5v-0.1c1.1-0.1,1.5-1.3,1.5-4.9c0-3.7-0.4-4.7-1.5-4.8V11C94.3,11,96.9,12.7,96.9,15.9z"/>
		</g>
		<g class="st1">
			<path class="st2" d="M102.7,19.7c0,0.5,0.3,1,1.4,1v0.1h-6v-0.1c1.1,0,1.4-0.5,1.4-1v-6.8c0-0.7-0.3-1-1.4-1v-0.1
				c1.8,0,3.2-0.2,4.6-0.7V19.7z M107.9,13.1c0,1.3-0.9,2.2-2,2.2c-0.5,0-0.9-0.1-1.1-0.4c0.4-0.2,0.7-0.6,0.7-1.3
				c0-0.6-0.4-1-1.1-1c-0.5,0-0.9,0.3-1.1,0.7v-0.2c0.4-1.2,1.3-2.1,2.5-2.1C107.1,11,107.9,11.9,107.9,13.1z"/>
		</g>
		<g class="st1">
			<path class="st2" d="M120.4,19.3v0.1c-0.6,0.9-1.8,1.5-3.3,1.5c-1.7,0-2.9-0.8-2.9-2.7V12h-1l0.2-0.3h0.8V9.6
				c1.2,0,2.3-0.4,3.1-1.1v3.1h2.6l-0.2,0.3h-2.4v6.3c0,1,0.4,1.9,1.3,1.9C119.2,20.3,119.8,19.9,120.4,19.3z"/>
			<path class="st2" d="M125.4,19.7c0,0.5,0.3,1,1.4,1v0.1h-6v-0.1c1.1,0,1.4-0.5,1.4-1V8.6c0-0.7-0.3-1-1.4-1V7.5
				c1.8,0,3.2-0.2,4.6-0.7V19.7z M132.1,13.7v6c0,0.5,0.3,1,1.4,1v0.1h-6v-0.1c1.1,0,1.4-0.5,1.4-1v-6c0-1.1-0.6-1.6-1.5-1.6
				c-0.5,0-1,0.2-1.5,0.6v-0.1c0.5-0.8,1.8-1.5,3.2-1.5C130.8,11,132.1,11.8,132.1,13.7z"/>
			<path class="st2" d="M134.5,15.9c0-3.2,2.4-4.9,4.7-4.9v0.1c-1.1,0.1-1.4,1.1-1.4,4.7c0,2.8,1.2,4.3,2.9,4.3c1.1,0,1.9-0.3,2.8-1
				v0.1c-1,1.3-2.8,1.7-4,1.7C137,20.9,134.5,19.1,134.5,15.9z M138.8,15.1c1.7,0,2.4-0.5,2.4-2.1c0-0.9-0.4-1.8-1.2-1.9V11
				c2.5,0,3.7,1.8,3.7,3.2c0,0.3,0,0.7-0.1,1h-4.8V15.1z"/>
		</g>
		<g class="st1">
			<path class="st2" d="M19.6,41v0.1c-1.5,0-2.7-0.3-3.7-0.9l-0.6,0.9h-0.2v-4.7h0.2C15.9,38.6,17.3,40.2,19.6,41z M25.2,37.2
				c0,2.5-1.8,3.8-4.8,3.9V41c1.1-0.2,2.1-0.8,2.1-1.9c0-3.3-7.3-3.6-7.3-7.5c0-2.3,1.9-3.6,4.4-3.8v0.1c-0.9,0.2-1.7,0.7-1.7,1.8
				C17.9,33,25.2,33.3,25.2,37.2z M20.4,27.9v-0.1c1.4,0.1,2.6,0.4,3.4,1l0.7-1h0.2V32h-0.2C24,30,22.3,28.3,20.4,27.9z"/>
		</g>
		<g class="st1">
			<path class="st2" d="M34,39.5v0.1c-0.6,0.9-1.8,1.5-3.3,1.5c-1.7,0-2.9-0.8-2.9-2.7v-6.3h-1l0.2-0.3h0.8v-2.1
				c1.2,0,2.3-0.4,3.1-1.1v3.1h2.6l-0.2,0.3h-2.4v6.3c0,1,0.4,1.9,1.3,1.9C32.7,40.4,33.3,40.1,34,39.5z"/>
			<path class="st2" d="M34.6,38.7c0-1.7,1.5-2.6,3.7-2.6h2.1v0.1h-0.6c-1.4,0-2,0.9-2,2.1c0,1.1,0.3,1.9,1.2,1.9
				c0.5,0,1-0.3,1.4-0.7v0.1c-0.6,0.7-1.6,1.5-3,1.5C35.6,41.1,34.5,40.2,34.6,38.7z M35.3,33.3c0-1,0.9-2,3.5-2.1v0.1
				c-0.8,0.1-1.2,0.7-1.2,1.4c0,0.7,0.5,1.1,1.2,1.2c-0.3,0.5-1.1,0.9-1.8,0.9C35.9,34.8,35.3,34.1,35.3,33.3z M40.9,39v-5.8
				c0-0.9-0.4-1.7-1.3-1.8v-0.1c3.2,0.1,4.4,1.3,4.4,3.8v4.6c0,0.6,0.2,0.8,0.5,0.8c0.3,0,0.6-0.3,0.9-0.9h0.1
				c-0.3,1.1-1.3,1.5-2.5,1.5C41.6,41.1,40.9,40.6,40.9,39z"/>
		</g>
		<g class="st1">
			<path class="st2" d="M50.8,39.8c0,0.5,0.3,1,1.4,1v0.1h-6v-0.1c1.1,0,1.4-0.5,1.4-1v-6.8c0-0.7-0.3-1-1.4-1v-0.1
				c1.8,0,3.2-0.2,4.6-0.7V39.8z M55.9,33.3c0,1.3-0.9,2.2-2,2.2c-0.5,0-0.9-0.1-1.1-0.4c0.4-0.2,0.7-0.6,0.7-1.3c0-0.6-0.4-1-1.1-1
				c-0.5,0-0.9,0.3-1.1,0.7v-0.2c0.4-1.2,1.3-2.1,2.5-2.1C55.2,31.2,55.9,32.1,55.9,33.3z"/>
		</g>
		<g class="st1">
			<path class="st2" d="M68.5,39.5v0.1c-0.6,0.9-1.8,1.5-3.3,1.5c-1.7,0-2.9-0.8-2.9-2.7v-6.3h-1l0.2-0.3h0.8v-2.1
				c1.2,0,2.3-0.4,3.1-1.1v3.1H68l-0.2,0.3h-2.4v6.3c0,1,0.4,1.9,1.3,1.9C67.2,40.4,67.9,40.1,68.5,39.5z"/>
		</g>
		<g class="st1">
			<path class="st2" d="M73.5,39.8c0,0.5,0.3,1,1.4,1v0.1h-6v-0.1c1.1,0,1.4-0.5,1.4-1v-6.8c0-0.7-0.3-1-1.4-1v-0.1
				c1.8,0,3.2-0.2,4.6-0.7V39.8z M78.7,33.3c0,1.3-0.9,2.2-2,2.2c-0.5,0-0.9-0.1-1.1-0.4c0.4-0.2,0.7-0.6,0.7-1.3c0-0.6-0.4-1-1.1-1
				c-0.5,0-0.9,0.3-1.1,0.7v-0.2c0.4-1.2,1.3-2.1,2.5-2.1C78,31.2,78.7,32.1,78.7,33.3z"/>
		</g>
		<g class="st1">
			<path class="st2" d="M79.7,36.1c0-3.2,2.4-4.9,4.7-4.9v0.1C83.3,31.4,83,32.4,83,36c0,2.8,1.2,4.3,2.9,4.3c1.1,0,1.9-0.3,2.8-1
				v0.1c-1,1.3-2.8,1.7-4.1,1.7C82.2,41.1,79.7,39.3,79.7,36.1z M84,35.3c1.7,0,2.4-0.5,2.4-2.1c0-0.9-0.4-1.8-1.2-1.9v-0.1
				c2.5,0,3.7,1.8,3.7,3.2c0,0.3,0,0.7-0.1,1H84V35.3z"/>
			<path class="st2" d="M90.3,38.7c0-1.7,1.5-2.6,3.7-2.6H96v0.1h-0.6c-1.4,0-2,0.9-2,2.1c0,1.1,0.3,1.9,1.2,1.9
				c0.5,0,1-0.3,1.4-0.7v0.1c-0.6,0.7-1.6,1.5-3,1.5C91.4,41.1,90.3,40.2,90.3,38.7z M91.1,33.3c0-1,0.9-2,3.5-2.1v0.1
				c-0.8,0.1-1.2,0.7-1.2,1.4c0,0.7,0.5,1.1,1.2,1.2c-0.3,0.5-1.1,0.9-1.8,0.9C91.7,34.8,91.1,34.1,91.1,33.3z M96.6,39v-5.8
				c0-0.9-0.4-1.7-1.3-1.8v-0.1c3.2,0.1,4.4,1.3,4.4,3.8v4.6c0,0.6,0.2,0.8,0.5,0.8c0.3,0,0.6-0.3,0.9-0.9h0.1
				c-0.3,1.1-1.3,1.5-2.5,1.5C97.3,41.1,96.6,40.6,96.6,39z"/>
			<path class="st2" d="M109.3,39.5v0.1c-0.6,0.9-1.8,1.5-3.3,1.5c-1.7,0-2.9-0.8-2.9-2.7v-6.3h-1l0.2-0.3h0.8v-2.1
				c1.2,0,2.3-0.4,3.1-1.1v3.1h2.6l-0.2,0.3h-2.4v6.3c0,1,0.4,1.9,1.3,1.9C108,40.4,108.7,40.1,109.3,39.5z"/>
			<path class="st2" d="M114.3,39.8c0,0.5,0.3,1,1.4,1v0.1h-6v-0.1c1.1,0,1.4-0.5,1.4-1v-6.8c0-0.7-0.3-1-1.4-1v-0.1
				c1.8,0,3.2-0.2,4.6-0.7V39.8z M120.7,33.9v6c0,0.5,0.3,1,1.4,1v0.1h-6v-0.1c1.1,0,1.4-0.5,1.4-1v-6c0-1.1-0.4-1.6-1.3-1.6
				c-0.5,0-1,0.3-1.3,0.6v-0.1c0.4-0.8,1.4-1.5,2.8-1.5C119.5,31.2,120.7,32,120.7,33.9z M127,33.9v6c0,0.5,0.3,1,1.4,1v0.1h-6v-0.1
				c1.1,0,1.4-0.5,1.4-1v-6c0-1.1-0.4-1.6-1.3-1.6c-0.5,0-1,0.3-1.3,0.6v-0.1c0.4-0.8,1.4-1.5,2.8-1.5C125.9,31.2,127,32,127,33.9z"
				/>
			<path class="st2" d="M129.5,36.1c0-3.2,2.4-4.9,4.7-4.9v0.1c-1.1,0.1-1.4,1.1-1.4,4.7c0,2.8,1.2,4.3,2.9,4.3c1.1,0,1.9-0.3,2.8-1
				v0.1c-1,1.3-2.8,1.7-4.1,1.7C131.9,41.1,129.5,39.3,129.5,36.1z M133.8,35.3c1.7,0,2.4-0.5,2.4-2.1c0-0.9-0.4-1.8-1.2-1.9v-0.1
				c2.5,0,3.7,1.8,3.7,3.2c0,0.3,0,0.7-0.1,1h-4.8V35.3z"/>
			<path class="st2" d="M139.9,40.8c1.1,0,1.4-0.5,1.4-1v-6.8c0-0.7-0.3-1-1.4-1v-0.1c1.8,0,3.2-0.2,4.6-0.7v8.7c0,0.5,0.3,1,1.4,1
				v0.1h-6V40.8z M146.6,40.8c1.1,0,1.4-0.5,1.4-1v-6c0-1.1-0.6-1.6-1.5-1.6c-0.5,0-1,0.2-1.5,0.6v-0.1c0.5-0.8,1.8-1.5,3.2-1.5
				c1.7,0,2.9,0.8,2.9,2.7v6c0,0.5,0.3,1,1.4,1v0.1h-6V40.8z"/>
			<path class="st2" d="M160.7,39.5v0.1c-0.6,0.9-1.8,1.5-3.3,1.5c-1.7,0-2.9-0.8-2.9-2.7v-6.3h-1l0.2-0.3h0.8v-2.1
				c1.2,0,2.3-0.4,3.1-1.1v3.1h2.6l-0.2,0.3h-2.4v6.3c0,1,0.4,1.9,1.3,1.9C159.4,40.4,160.1,40.1,160.7,39.5z"/>
			<path class="st2" d="M161.3,30.3c0-1.7,2.3-2.5,4-2.6v0.1c-0.9,0.3-1.4,1.1-1.4,1.9c0,0.7,0.3,1.3,1.1,1.6
				c-0.3,0.5-1,0.8-1.8,0.8C162.3,32.1,161.3,31.6,161.3,30.3z M164.1,40.5c0-1,0.8-1.7,2-1.7c1.2,0,2,0.7,2,1.7
				c0,1.1-0.8,1.8-2,1.8C165,42.2,164.1,41.5,164.1,40.5z M164.6,35.1c0-2.1,3-2.8,3-5.2c0-1-0.4-1.7-1.4-2v-0.1
				c2.6,0.2,4.6,1,4.6,3.2c0,2.6-4.1,3.4-4.1,5.1c0,0.5,0.2,0.8,0.7,1.1l0,0.1C165.5,37.2,164.6,36.3,164.6,35.1z"/>
		</g>
	</g>
</g>
</svg>
