<svg id="Layer_1" data-name="Layer 1" xmlns="http://www.w3.org/2000/svg" viewBox="0 0 320 50"><defs><style>.cls-1{fill:#263845;}.cls-2{fill:none;}</style></defs><title>Artboard 1 copy</title><path class="cls-1" d="M11.7,11.88l.12.2L12,18.8a1.4,1.4,0,0,0,1.57,1.34v.1H10v-.1a1.41,1.41,0,0,0,1.57-1.34Zm8.48,8.36H18.4l-6.69-10A1.72,1.72,0,0,0,10,9.45V9.36h4.27l5.89,8.82Zm0-3.68L20,16.38l-.19-5.58a1.4,1.4,0,0,0-1.57-1.35V9.36h3.52v.09a1.4,1.4,0,0,0-1.57,1.35Z"/><path class="cls-1" d="M28.93,9.36H32L25.63,20.24h-3Zm-5.87,0h4.83l-.05.09a4.94,4.94,0,0,0-4.66,3.76h-.12Zm3.66,10.78a5.47,5.47,0,0,0,5-4.27h.12v4.37H26.67Z"/><path class="cls-1" d="M36.45,9.87c0,.93-1,2.16-2.59,2.82l0-.15A2.25,2.25,0,0,0,34.72,11a1,1,0,0,0-1.09-1.06,1.48,1.48,0,0,1,1.52-1.45A1.29,1.29,0,0,1,36.45,9.87Z"/><path class="cls-1" d="M39.73,18.34a.82.82,0,0,0-.9.8c0,.46.32,1.05,1.43,1.16v.1c-2.13-.08-3.3-.66-3.3-1.58a1.25,1.25,0,0,1,1.36-1.19A1.64,1.64,0,0,1,39.73,18.34Zm.53-6.17c-.59.12-1.17.42-1.16,1.08,0,1.85,5.24,2.16,5.24,4.7,0,1.55-1.31,2.37-3.38,2.45v-.1c.67-.11,1.43-.35,1.43-1.18,0-1.66-5.25-2.27-5.25-4.71,0-1.4,1.32-2.25,3.12-2.33ZM44,13.73a1,1,0,0,1-1.18,1A1.38,1.38,0,0,1,41.49,14a.71.71,0,0,0,.72-.75c0-.48-.61-.95-1.25-1v-.09C42.77,12.17,44,12.83,44,13.73Z"/><path class="cls-1" d="M49.38,9.1a9.89,9.89,0,0,0,3.82-.62V19.33c0,.4.24.81,1.2.81v.1h-5v-.1c1,0,1.2-.41,1.2-.81V10c0-.57-.27-.84-1.18-.84Z"/><path class="cls-1" d="M55.36,16.21a4,4,0,0,1,3.92-4.13v.09c-.94.12-1.2.92-1.2,4,0,2.31,1,3.57,2.45,3.57a3.47,3.47,0,0,0,2.34-.85V19a4.5,4.5,0,0,1-3.4,1.44A4,4,0,0,1,55.36,16.21Zm3.6-.68c1.41,0,2-.44,2-1.79,0-.77-.32-1.47-1-1.57v-.09a2.89,2.89,0,0,1,3.14,2.72,4.58,4.58,0,0,1-.08.83H59Z"/><path class="cls-1" d="M64.21,18.35c0-1.39,1.28-2.18,3.07-2.18H69v.1h-.48A1.59,1.59,0,0,0,66.83,18c0,.88.26,1.55,1,1.55A1.75,1.75,0,0,0,69,19v.09a3.41,3.41,0,0,1-2.55,1.3A2,2,0,0,1,64.21,18.35Zm.64-4.53c0-.81.73-1.65,2.91-1.74v.09a1.17,1.17,0,0,0-1,1.17c0,.58.4.93,1,1a1.8,1.8,0,0,1-1.54.77A1.29,1.29,0,0,1,64.85,13.82Zm4.64,4.77v-4.9c0-.78-.3-1.4-1.09-1.52v-.09c2.66.09,3.71,1.1,3.71,3.2v3.89c0,.46.16.65.45.65s.52-.24.77-.72h.1a2,2,0,0,1-2.08,1.3C70.07,20.4,69.49,20,69.49,18.59Z"/><path class="cls-1" d="M79.89,13.36v.13a1.77,1.77,0,0,0-1.33-.6c-.8,0-1.57.37-1.57,3.27s.82,3.41,1.57,3.41A2.23,2.23,0,0,0,79.89,19v.09a3,3,0,0,1-2.32,1.3c-1.52,0-3.3-.9-3.3-4.24,0-3.19,1.75-4.08,3.3-4.08A3,3,0,0,1,79.89,13.36ZM83,19.17c0,.46.14.65.43.65s.52-.24.77-.72h.1a2,2,0,0,1-2.08,1.3c-1.28,0-1.86-.45-1.86-1.81V10c0-.57-.27-.84-1.18-.84V9.1A10.56,10.56,0,0,0,83,8.48Z"/><path class="cls-1" d="M85,12.69a9.7,9.7,0,0,0,3.82-.63v7.27c0,.4.24.81,1.2.81v.1H85v-.1c1,0,1.2-.41,1.2-.81v-5.7c0-.58-.27-.85-1.18-.85Zm.81-3a1.65,1.65,0,0,1,3.27,0,1.65,1.65,0,0,1-3.27,0Z"/><path class="cls-1" d="M90.67,20.14c1,0,1.2-.41,1.2-.81V13.65c0-.58-.27-.85-1.18-.85v-.1a9.82,9.82,0,0,0,3.82-.62v7.25c0,.4.24.81,1.2.81v.1h-5Zm5.64,0c.94,0,1.18-.41,1.18-.81v-5c0-.89-.46-1.36-1.26-1.36a1.72,1.72,0,0,0-1.22.5v-.1a3.27,3.27,0,0,1,2.66-1.29c1.44,0,2.46.67,2.46,2.25v5c0,.4.24.81,1.2.81v.1h-5Z"/><path class="cls-1" d="M102.27,15c0-2.08,2-2.86,3.59-2.89v.09c-.69.07-1,.9-1,2.76s.32,2.72,1,2.78v.1C104.24,17.81,102.27,17,102.27,15Zm4.26,9.18c1.6-.2,2.11-1.06,2.11-1.64,0-2.22-6.24-.24-6.24-3.1a1.88,1.88,0,0,1,1.07-1.63l0,.08a.35.35,0,0,0-.14.3c0,1.79,7.29-.29,7.29,3.2,0,1.65-1.42,2.72-4.14,2.88ZM102.4,22.8c0-.94,1.17-1.23,2.43-1.23a1.34,1.34,0,0,0-.69,1.14c0,.73.84,1.29,1.75,1.44v.09C104.18,24.21,102.4,23.86,102.4,22.8Zm4.13-5.09c.78-.06,1.1-.85,1.1-2.78s-.33-2.69-1.1-2.76v-.09c1.7,0,3.66.81,3.66,2.89s-2,2.84-3.66,2.84Zm.86-5.92c.28-.82,1-1.92,2.12-1.92a1.19,1.19,0,0,1,1.36,1.22,1.28,1.28,0,0,1-1.3,1.24c0-.67-.35-1.07-.86-1.07a1.76,1.76,0,0,0-1.24.58Z"/><path class="cls-1" d="M120.8,20.14v.1h-5.14v-.1c1,0,1.2-.38,1.2-.81V10.25c0-.46-.24-.8-1.2-.8V9.36h3.92v10C119.58,19.76,119.82,20.14,120.8,20.14Zm6.24-1c-.25.88-1.2,1.3-2.37,1.3-2.08,0-2.56-1.44-2.65-2.78s-.23-2.34-1.64-2.55V15c1.48,0,2.13-1.28,2.13-2.88,0-1.79-.65-2.64-2.13-2.64V9.36c3.25,0,4.85.72,4.85,2.73,0,1.73-1.28,2.79-3.66,2.93,2.91.13,3.36,1.27,3.52,2.6s.51,2.2,1.06,2.2c.29,0,.54-.24.8-.72Z"/><path class="cls-1" d="M127.29,10.28a1.31,1.31,0,0,0-1.44-.83V9.36h5.78v.09c-.73,0-1.39.48-1,1.31l3,6.37-1.46,3.27H132Zm7,5.38a11,11,0,0,0,1.14-4.46,1.75,1.75,0,0,0-1.82-1.75V9.36h4.61v.06c-.74,0-1.19.69-1.7,1.78l-2.18,4.61Z"/><path class="cls-1" d="M10,30.69a9.67,9.67,0,0,0,3.82-.63v7.27c0,.4.24.81,1.2.81v.1H10v-.1c1,0,1.2-.41,1.2-.81v-5.7c0-.58-.27-.85-1.18-.85Zm.81-3a1.46,1.46,0,0,1,1.64-1.4,1.42,1.42,0,1,1,0,2.81A1.46,1.46,0,0,1,10.83,27.68Z"/><path class="cls-1" d="M15.71,38.14c1,0,1.2-.41,1.2-.81V31.65c0-.58-.27-.85-1.18-.85v-.1a9.82,9.82,0,0,0,3.82-.62v7.25c0,.4.24.81,1.2.81v.1h-5Zm5.64,0c.94,0,1.18-.41,1.18-.81v-5c0-.89-.46-1.36-1.26-1.36a1.72,1.72,0,0,0-1.22.5v-.1a3.27,3.27,0,0,1,2.66-1.29c1.44,0,2.46.67,2.46,2.25v5c0,.4.24.81,1.2.81v.1h-5Z"/><path class="cls-1" d="M30,36.34a.82.82,0,0,0-.9.8c0,.46.32,1,1.43,1.16v.1c-2.13-.08-3.3-.66-3.3-1.58a1.25,1.25,0,0,1,1.36-1.19A1.64,1.64,0,0,1,30,36.34Zm.53-6.17c-.6.12-1.17.42-1.16,1.08.05,1.85,5.24,2.16,5.24,4.7,0,1.55-1.32,2.37-3.38,2.45v-.1c.67-.11,1.42-.35,1.42-1.18,0-1.66-5.25-2.27-5.25-4.71,0-1.4,1.33-2.25,3.13-2.33Zm3.77,1.56a1,1,0,0,1-1.18,1A1.38,1.38,0,0,1,31.78,32a.71.71,0,0,0,.72-.75c0-.48-.61-.95-1.25-1v-.09C33.06,30.17,34.32,30.83,34.32,31.73Z"/><path class="cls-1" d="M39.35,36.14c0,.9.3,1.36,1.1,1.36a1.38,1.38,0,0,0,1.1-.49v.09a2.65,2.65,0,0,1-2.48,1.3,2.07,2.07,0,0,1-2.37-2.26V31.65c0-.58-.27-.85-1.18-.85v-.1a9.91,9.91,0,0,0,3.83-.62Zm5.33,1c0,.46.14.65.43.65s.51-.24.77-.72H46a2,2,0,0,1-2.18,1.3A1.55,1.55,0,0,1,42,36.83V31.65c0-.58-.27-.85-1.13-.85v-.1a10.53,10.53,0,0,0,3.78-.62Z"/><path class="cls-1" d="M50.45,37.33c0,.4.24.81,1.2.81v.1h-5v-.1c1,0,1.2-.41,1.2-.81V31.65c0-.58-.27-.85-1.19-.85v-.1a9.91,9.91,0,0,0,3.83-.62Zm4.32-5.52a1.71,1.71,0,0,1-1.65,1.82,1.1,1.1,0,0,1-.91-.35,1.18,1.18,0,0,0,.62-1.09.84.84,0,0,0-.89-.86,1.1,1.1,0,0,0-1,.6v-.12a2.21,2.21,0,0,1,2.08-1.73A1.63,1.63,0,0,1,54.77,31.81Z"/><path class="cls-1" d="M55.46,36.35c0-1.39,1.28-2.18,3.07-2.18h1.73v.1h-.48A1.58,1.58,0,0,0,58.08,36c0,.88.26,1.55,1,1.55A1.75,1.75,0,0,0,60.26,37v.09a3.41,3.41,0,0,1-2.55,1.3A2,2,0,0,1,55.46,36.35Zm.64-4.53c0-.81.73-1.65,2.91-1.74v.09a1.18,1.18,0,0,0-1,1.17c0,.58.4.93,1,1a1.78,1.78,0,0,1-1.53.77A1.29,1.29,0,0,1,56.1,31.82Zm4.64,4.77v-4.9c0-.78-.31-1.4-1.09-1.52v-.09c2.66.09,3.71,1.1,3.71,3.2v3.89c0,.46.16.65.45.65s.51-.24.77-.72h.1a2,2,0,0,1-2.09,1.3C61.31,38.4,60.74,38,60.74,36.59Z"/><path class="cls-1" d="M65.17,38.14c1,0,1.2-.41,1.2-.81V31.65c0-.58-.27-.85-1.19-.85v-.1A9.91,9.91,0,0,0,69,30.08v7.25c0,.4.24.81,1.2.81v.1h-5Zm5.63,0c1,0,1.19-.41,1.19-.81v-5A1.19,1.19,0,0,0,70.72,31a1.69,1.69,0,0,0-1.21.5v-.1a3.26,3.26,0,0,1,2.65-1.29c1.44,0,2.47.67,2.47,2.25v5c0,.4.24.81,1.2.81v.1h-5Z"/><path class="cls-1" d="M80.79,30.17c-1,.12-1.37.92-1.37,4,0,2.31,1.17,3.57,2.6,3.57a3.43,3.43,0,0,0,2.33-.85V37A4.47,4.47,0,0,1,81,38.4a4.18,4.18,0,0,1-4.27-4.19,4.09,4.09,0,0,1,4.1-4.13Zm3.55,1.72a1.49,1.49,0,0,1-1.6,1.53,1.35,1.35,0,0,1-1.39-1,1.38,1.38,0,0,0,.76-1.16c0-.37-.09-.95-.68-1.06v-.11C83.52,30.08,84.34,31,84.34,31.89Z"/><path class="cls-1" d="M85.54,34.21a4,4,0,0,1,3.92-4.13v.09c-.95.12-1.2.92-1.2,4,0,2.31,1,3.57,2.45,3.57A3.43,3.43,0,0,0,93,36.86V37a4.47,4.47,0,0,1-3.39,1.44A4,4,0,0,1,85.54,34.21Zm3.6-.68c1.41,0,2-.44,2-1.79,0-.77-.32-1.47-1-1.57v-.09a2.88,2.88,0,0,1,3.13,2.72,4.58,4.58,0,0,1-.08.83h-4Z"/><path class="cls-1" d="M102,40.67c0,.58.27.85,1.18.85v.1a10.53,10.53,0,0,0-3.82.62V31.63c0-.58-.28-.85-1.19-.85v-.09a10.41,10.41,0,0,0,3.83-.63Zm6.09-6.51c0,3.34-1.76,4.24-3.28,4.24a3,3,0,0,1-2.33-1.3V37a2.26,2.26,0,0,0,1.34.56c.75,0,1.55-.53,1.55-3.41s-.75-3.27-1.55-3.27a1.8,1.8,0,0,0-1.34.6v-.13a3,3,0,0,1,2.33-1.28C106.39,30.08,108.11,31,108.11,34.16Z"/><path class="cls-1" d="M113.5,30.17c-.94.12-1.26.92-1.26,4s.32,4,1.26,4.09v.1a4.07,4.07,0,0,1-4-4.19,4,4,0,0,1,4-4.13Zm4.61,4a4.07,4.07,0,0,1-4,4.19v-.1c.94-.09,1.24-1.1,1.24-4.09s-.32-3.94-1.24-4v-.09A4,4,0,0,1,118.11,34.21Z"/><path class="cls-1" d="M119.09,27.1a9.82,9.82,0,0,0,3.82-.62V37.33c0,.4.24.81,1.2.81v.1h-5v-.1c1,0,1.2-.41,1.2-.81V28c0-.57-.27-.84-1.18-.84Z"/><path class="cls-1" d="M124.81,30.69a9.72,9.72,0,0,0,3.83-.63v7.27c0,.4.24.81,1.2.81v.1h-5v-.1c1,0,1.2-.41,1.2-.81v-5.7c0-.58-.27-.85-1.19-.85Zm.82-3a1.65,1.65,0,0,1,3.27,0,1.65,1.65,0,0,1-3.27,0Z"/><path class="cls-1" d="M134.9,30.17c-1,.12-1.36.92-1.36,4,0,2.31,1.16,3.57,2.59,3.57a3.47,3.47,0,0,0,2.34-.85V37a4.5,4.5,0,0,1-3.4,1.44,4.18,4.18,0,0,1-4.27-4.19,4.09,4.09,0,0,1,4.1-4.13Zm3.55,1.72a1.49,1.49,0,0,1-1.6,1.53,1.35,1.35,0,0,1-1.39-1,1.38,1.38,0,0,0,.76-1.16c0-.37-.09-.95-.68-1.06v-.11C137.63,30.08,138.45,31,138.45,31.89Z"/><path class="cls-1" d="M139.77,30.89a.87.87,0,0,0-.88-.56v-.09h4.49v.09c-.56,0-.79.39-.52,1l2.1,4.37-1.38,2.59h-.09Zm-.7,9.93a1.67,1.67,0,0,1,1.41-1.51,1.25,1.25,0,0,0-.07.4,1,1,0,0,0,1,1.08c.56,0,1-.6,1.62-1.62h.11c-.88,1.65-1.49,3.07-2.61,3.07A1.33,1.33,0,0,1,139.07,40.82Zm6.56-6.74a4.41,4.41,0,0,0,.45-2.07,1.55,1.55,0,0,0-1.63-1.68v-.09h4v.09c-.52,0-.73.21-1,.76l-1.66,3.13Z"/><rect class="cls-2" width="320" height="50"/></svg>