<svg id="Layer_1" data-name="Layer 1" xmlns="http://www.w3.org/2000/svg" viewBox="0 0 320 50"><defs><style>.cls-1{fill:#fff;}.cls-2{fill:none;}</style></defs><title>Artboard 1 copy 3</title><path class="cls-1" d="M15.14,20.14v.1H10v-.1c1,0,1.2-.38,1.2-.81V10.25c0-.46-.24-.8-1.2-.8v-.1h3.92v10C13.92,19.76,14.16,20.14,15.14,20.14Zm6.24-1c-.26.88-1.2,1.3-2.37,1.3-2.08,0-2.56-1.44-2.66-2.79s-.22-2.33-1.63-2.54V15c1.47,0,2.13-1.28,2.13-2.88,0-1.79-.66-2.64-2.13-2.64v-.1c3.25,0,4.85.73,4.85,2.74,0,1.73-1.28,2.79-3.66,2.93,2.91.13,3.36,1.27,3.52,2.59s.51,2.21,1.05,2.21c.29,0,.55-.24.8-.72Z"/><path class="cls-1" d="M21.71,16.21a4,4,0,0,1,3.92-4.13v.09c-.94.11-1.2.91-1.2,4,0,2.31,1,3.57,2.45,3.57a3.46,3.46,0,0,0,2.34-.85V19a4.47,4.47,0,0,1-3.39,1.44A4.06,4.06,0,0,1,21.71,16.21Zm3.6-.68c1.41,0,2-.44,2-1.79,0-.77-.32-1.47-1-1.57v-.09a2.89,2.89,0,0,1,3.14,2.72,4.58,4.58,0,0,1-.08.83h-4Z"/><path class="cls-1" d="M30.56,18.35c0-1.39,1.28-2.18,3.07-2.18h1.73v.1h-.48A1.58,1.58,0,0,0,33.19,18c0,.87.25,1.55,1,1.55A1.75,1.75,0,0,0,35.36,19v.09a3.39,3.39,0,0,1-2.54,1.3A2,2,0,0,1,30.56,18.35Zm.64-4.53c0-.82.74-1.65,2.91-1.74v.09a1.17,1.17,0,0,0-1,1.17c0,.58.4.93,1,1a1.8,1.8,0,0,1-1.54.77A1.29,1.29,0,0,1,31.2,13.82Zm4.64,4.77v-4.9c0-.78-.3-1.41-1.09-1.52v-.09c2.66.09,3.72,1.1,3.72,3.2v3.89c0,.46.16.65.45.65s.51-.24.76-.72h.1a2,2,0,0,1-2.08,1.3C36.42,20.4,35.84,20,35.84,18.59Z"/><path class="cls-1" d="M46.24,13.36v.12a1.76,1.76,0,0,0-1.33-.59c-.8,0-1.57.37-1.57,3.27s.82,3.41,1.57,3.41A2.21,2.21,0,0,0,46.24,19v.09a3,3,0,0,1-2.32,1.3c-1.52,0-3.3-.9-3.3-4.24,0-3.19,1.75-4.08,3.3-4.08A2.94,2.94,0,0,1,46.24,13.36Zm3.12,5.81c0,.46.15.65.44.65s.51-.24.76-.72h.1a2,2,0,0,1-2.08,1.3c-1.28,0-1.86-.45-1.86-1.81V10c0-.57-.27-.85-1.18-.85V9.1a10.33,10.33,0,0,0,3.82-.63Z"/><path class="cls-1" d="M51.57,12.89a.88.88,0,0,0-.88-.56v-.09h4.48v.09c-.56,0-.79.39-.51.95l2.09,4.37-1.37,2.59h-.1Zm-.71,9.93a1.69,1.69,0,0,1,1.41-1.51,1.18,1.18,0,0,0-.06.4.93.93,0,0,0,.94,1.07c.56,0,1-.59,1.62-1.61h.11c-.88,1.65-1.49,3.07-2.61,3.07A1.34,1.34,0,0,1,50.86,22.82Zm6.57-6.74A4.42,4.42,0,0,0,57.87,14a1.54,1.54,0,0,0-1.63-1.68v-.09h4v.09c-.53,0-.74.21-1,.75l-1.67,3.14Z"/><path class="cls-1" d="M69.39,12.65l-.17.24H67.65v6.44c0,.4.26.81,1.22.81v.1H63.81v-.1c1,0,1.2-.41,1.2-.81V12.89H64l.17-.24H65v-.72c0-2.27,1.18-3.23,2.66-3.46v.1a1.61,1.61,0,0,0-1,1.7A2.4,2.4,0,0,0,69.39,12.65Zm1.36-2.45a1.35,1.35,0,0,1-1.39,1.41,1.65,1.65,0,0,1-1.61-1.07,1,1,0,0,0,1.13-1,.94.94,0,0,0-.57-.95v-.1C70,8.54,70.75,9.29,70.75,10.2Z"/><path class="cls-1" d="M74.13,12.17c-.94.11-1.26.91-1.26,4s.32,4,1.26,4.09v.1a4.09,4.09,0,0,1-4-4.19,4,4,0,0,1,4-4.13Zm4.61,4a4.08,4.08,0,0,1-4,4.19v-.1c.94-.09,1.25-1.1,1.25-4.09,0-3.14-.32-3.94-1.25-4v-.09A4,4,0,0,1,78.74,16.21Z"/><path class="cls-1" d="M83.63,19.33c0,.4.24.81,1.2.81v.1h-5v-.1c1,0,1.2-.41,1.2-.81V13.64c0-.57-.27-.84-1.18-.84v-.1a9.82,9.82,0,0,0,3.82-.62ZM88,13.81a1.71,1.71,0,0,1-1.65,1.82,1.12,1.12,0,0,1-.92-.35A1.17,1.17,0,0,0,86,14.19a.85.85,0,0,0-.9-.87,1.11,1.11,0,0,0-1,.61v-.12a2.21,2.21,0,0,1,2.08-1.73A1.63,1.63,0,0,1,88,13.81Z"/><path class="cls-1" d="M98.48,19v.09a3.32,3.32,0,0,1-2.73,1.3c-1.45,0-2.47-.66-2.47-2.26V12.89h-.83l.17-.24h.66V10.92A4.06,4.06,0,0,0,95.91,10v2.62h2.16l-.18.24h-2v5.3c0,.8.3,1.63,1,1.63A2.34,2.34,0,0,0,98.48,19Z"/><path class="cls-1" d="M102.61,19.33c0,.4.24.81,1.2.81v.1h-5v-.1c1,0,1.2-.41,1.2-.81V10c0-.57-.27-.85-1.19-.85V9.1a9.72,9.72,0,0,0,3.83-.63Zm5.6-5v5c0,.4.24.81,1.2.81v.1h-5v-.1c.94,0,1.18-.41,1.18-.81v-5c0-.89-.46-1.36-1.26-1.36a1.72,1.72,0,0,0-1.22.5v-.1a3.27,3.27,0,0,1,2.66-1.29C107.19,12.08,108.21,12.75,108.21,14.33Z"/><path class="cls-1" d="M110.27,16.21a4,4,0,0,1,3.92-4.13v.09c-.94.11-1.2.91-1.2,4,0,2.31,1,3.57,2.45,3.57a3.46,3.46,0,0,0,2.34-.85V19a4.49,4.49,0,0,1-3.4,1.44A4.06,4.06,0,0,1,110.27,16.21Zm3.6-.68c1.41,0,2-.44,2-1.79,0-.77-.32-1.47-1-1.57v-.09A2.89,2.89,0,0,1,118,14.8a4.58,4.58,0,0,1-.08.83h-4Z"/><path class="cls-1" d="M14.07,38.3v.1A6.06,6.06,0,0,1,11,37.62l-.53.78H10.3V34.49h.13A5.37,5.37,0,0,0,14.07,38.3Zm4.7-3.18c0,2.06-1.54,3.18-4,3.28v-.1c.88-.16,1.75-.67,1.75-1.63,0-2.8-6.12-3.06-6.12-6.31,0-1.92,1.56-3,3.69-3.17v.1a1.51,1.51,0,0,0-1.41,1.47C12.66,31.56,18.77,31.87,18.77,35.12Zm-4-7.83v-.1a5.23,5.23,0,0,1,2.88.85l.58-.85h.13v3.58h-.13A5.1,5.1,0,0,0,14.75,27.29Z"/><path class="cls-1" d="M26.07,37v.09a3.36,3.36,0,0,1-2.74,1.3c-1.44,0-2.47-.66-2.47-2.26V30.89H20l.18-.24h.65V28.92A4.06,4.06,0,0,0,23.49,28v2.62h2.16l-.18.24h-2v5.3c0,.8.3,1.63,1.06,1.63A2.36,2.36,0,0,0,26.07,37Z"/><path class="cls-1" d="M26.58,36.35c0-1.39,1.28-2.18,3.07-2.18h1.73v.1H30.9A1.59,1.59,0,0,0,29.2,36c0,.87.26,1.55,1,1.55A1.75,1.75,0,0,0,31.38,37v.09a3.41,3.41,0,0,1-2.55,1.3A2,2,0,0,1,26.58,36.35Zm.64-4.53c0-.82.73-1.65,2.91-1.74v.09a1.18,1.18,0,0,0-1,1.17c0,.58.4.93,1,1a1.8,1.8,0,0,1-1.54.77A1.29,1.29,0,0,1,27.22,31.82Zm4.64,4.77v-4.9c0-.78-.31-1.41-1.09-1.52v-.09c2.66.09,3.71,1.1,3.71,3.2v3.89c0,.46.16.65.45.65s.51-.24.77-.72h.1a2,2,0,0,1-2.09,1.3C32.43,38.4,31.86,38,31.86,36.59Z"/><path class="cls-1" d="M40.13,37.33c0,.4.24.81,1.2.81v.1h-5v-.1c1,0,1.2-.41,1.2-.81V31.64c0-.57-.27-.84-1.19-.84v-.1a9.91,9.91,0,0,0,3.83-.62Zm4.32-5.52a1.71,1.71,0,0,1-1.65,1.82,1.1,1.1,0,0,1-.91-.35,1.18,1.18,0,0,0,.62-1.09.85.85,0,0,0-.89-.87,1.09,1.09,0,0,0-1,.61v-.12a2.21,2.21,0,0,1,2.08-1.73A1.63,1.63,0,0,1,44.45,31.81Z"/><path class="cls-1" d="M55,37v.09a3.36,3.36,0,0,1-2.74,1.3c-1.44,0-2.46-.66-2.46-2.26V30.89h-.84l.18-.24h.66V28.92A4.05,4.05,0,0,0,52.4,28v2.62h2.16l-.18.24h-2v5.3c0,.8.3,1.63,1.06,1.63A2.34,2.34,0,0,0,55,37Z"/><path class="cls-1" d="M59.2,37.33c0,.4.24.81,1.2.81v.1h-5v-.1c1,0,1.2-.41,1.2-.81V31.64c0-.57-.27-.84-1.18-.84v-.1a9.89,9.89,0,0,0,3.82-.62Zm4.32-5.52a1.71,1.71,0,0,1-1.65,1.82,1.1,1.1,0,0,1-.91-.35,1.16,1.16,0,0,0,.62-1.09.85.85,0,0,0-.89-.87,1.09,1.09,0,0,0-1,.61v-.12a2.21,2.21,0,0,1,2.08-1.73A1.63,1.63,0,0,1,63.52,31.81Z"/><path class="cls-1" d="M64.38,34.21a4,4,0,0,1,3.92-4.13v.09c-.94.11-1.2.91-1.2,4,0,2.31,1,3.57,2.45,3.57a3.44,3.44,0,0,0,2.34-.85V37A4.47,4.47,0,0,1,68.5,38.4,4.06,4.06,0,0,1,64.38,34.21Zm3.6-.68c1.41,0,2-.44,2-1.79,0-.77-.32-1.47-1-1.57v-.09a2.88,2.88,0,0,1,3.13,2.72,4.58,4.58,0,0,1-.08.83H68Z"/><path class="cls-1" d="M73.23,36.35c0-1.39,1.28-2.18,3.07-2.18H78v.1h-.48A1.58,1.58,0,0,0,75.86,36c0,.87.25,1.55,1,1.55A1.75,1.75,0,0,0,78,37v.09a3.39,3.39,0,0,1-2.54,1.3A2,2,0,0,1,73.23,36.35Zm.64-4.53c0-.82.74-1.65,2.91-1.74v.09a1.17,1.17,0,0,0-1,1.17c0,.58.4.93,1,1a1.8,1.8,0,0,1-1.54.77A1.29,1.29,0,0,1,73.87,31.82Zm4.64,4.77v-4.9c0-.78-.3-1.41-1.09-1.52v-.09c2.66.09,3.72,1.1,3.72,3.2v3.89c0,.46.16.65.45.65s.51-.24.76-.72h.1a2,2,0,0,1-2.08,1.3C79.09,38.4,78.51,38,78.51,36.59Z"/><path class="cls-1" d="M89.15,37v.09a3.32,3.32,0,0,1-2.73,1.3C85,38.4,84,37.74,84,36.14V30.89h-.83l.17-.24H84V28.92A4.06,4.06,0,0,0,86.58,28v2.62h2.16l-.18.24h-2v5.3c0,.8.3,1.63,1,1.63A2.34,2.34,0,0,0,89.15,37Z"/><path class="cls-1" d="M93.38,37.33c0,.4.24.81,1.2.81v.1h-5v-.1c1,0,1.21-.41,1.21-.81V31.64c0-.57-.28-.84-1.19-.84v-.1a9.91,9.91,0,0,0,3.83-.62Zm5.31-5v5c0,.4.22.81,1.19.81v.1h-5v-.1c.94,0,1.2-.41,1.2-.81v-5c0-.89-.35-1.36-1.12-1.36a1.44,1.44,0,0,0-1.06.48v-.09a2.58,2.58,0,0,1,2.34-1.28C97.73,30.08,98.69,30.75,98.69,32.33Zm5.3,0v5c0,.4.24.81,1.2.81v.1h-5v-.1c.94,0,1.2-.41,1.2-.81v-5c0-.89-.35-1.36-1.12-1.36a1.44,1.44,0,0,0-1.06.48v-.09a2.58,2.58,0,0,1,2.34-1.28C103,30.08,104,30.75,104,32.33Z"/><path class="cls-1" d="M106.05,34.21A4,4,0,0,1,110,30.08v.09c-1,.11-1.2.91-1.2,4,0,2.31,1,3.57,2.45,3.57a3.43,3.43,0,0,0,2.33-.85V37a4.47,4.47,0,0,1-3.39,1.44A4.06,4.06,0,0,1,106.05,34.21Zm3.6-.68c1.41,0,2-.44,2-1.79,0-.77-.32-1.47-1-1.57v-.09a2.89,2.89,0,0,1,3.14,2.72,5.69,5.69,0,0,1-.08.83h-4Z"/><path class="cls-1" d="M114.77,38.14c1,0,1.2-.41,1.2-.81V31.64c0-.57-.28-.84-1.19-.84v-.1a9.91,9.91,0,0,0,3.83-.62v7.25c0,.4.24.81,1.2.81v.1h-5Zm5.63,0c.94,0,1.18-.41,1.18-.81v-5c0-.89-.46-1.36-1.26-1.36a1.73,1.73,0,0,0-1.22.5v-.1a3.3,3.3,0,0,1,2.66-1.29c1.44,0,2.47.67,2.47,2.25v5c0,.4.24.81,1.2.81v.1h-5Z"/><path class="cls-1" d="M132.21,37v.09a3.34,3.34,0,0,1-2.74,1.3c-1.44,0-2.46-.66-2.46-2.26V30.89h-.84l.18-.24H127V28.92a4.05,4.05,0,0,0,2.62-.89v2.62h2.16l-.17.24h-2v5.3c0,.8.31,1.63,1.06,1.63A2.34,2.34,0,0,0,132.21,37Z"/><path class="cls-1" d="M132.7,29.36c0-1.43,1.92-2.12,3.38-2.17v.1a1.59,1.59,0,0,0-1.14,1.55,1.37,1.37,0,0,0,.9,1.38,1.77,1.77,0,0,1-1.47.64A1.51,1.51,0,0,1,132.7,29.36Zm2.36,8.5a1.73,1.73,0,1,1,1.71,1.47A1.51,1.51,0,0,1,135.06,37.86Zm.43-4.5c0-1.8,2.54-2.32,2.54-4.37a1.58,1.58,0,0,0-1.15-1.7v-.1c2.21.15,3.87.87,3.87,2.65,0,2.17-3.47,2.86-3.47,4.27a.94.94,0,0,0,.58.93l0,.09C136.24,35.13,135.49,34.33,135.49,33.36Z"/><rect class="cls-2" width="320" height="50"/></svg>