<svg id="Layer_1" data-name="Layer 1" xmlns="http://www.w3.org/2000/svg" viewBox="0 0 300 600"><defs><style>.cls-1{fill:#263845;}.cls-2{fill:none;}</style></defs><title>Artboard 3</title><path class="cls-1" d="M34.58,103.3l.29.42.28,14.7c0,1.5,1.12,2.94,3.43,2.94v.21H30.87v-.21c2.32,0,3.4-1.47,3.44-2.94Zm18.56,18.27H49.25L34.62,99.76A3.81,3.81,0,0,0,30.91,98v-.21h9.35l12.88,19.28Zm-.07-8-.28-.39-.42-12.21c0-1.51-1.12-2.94-3.43-2.94v-.21h7.7V98c-2.31,0-3.43,1.47-3.43,2.94Z"/><path class="cls-1" d="M72.28,97.77H79l-13.9,23.8H58.42Zm-12.85,0H70L69.9,98c-5.18.28-9.31,3.85-10.19,8.22h-.28Zm8,23.59A12,12,0,0,0,78.37,112h.28v9.56H67.35Z"/><path class="cls-1" d="M88.73,98.89c0,2-2.17,4.72-5.67,6.16l-.11-.32a4.85,4.85,0,0,0,2-3.39A2.2,2.2,0,0,0,82.57,99c.28-2.07,1.51-3.19,3.32-3.19A2.82,2.82,0,0,1,88.73,98.89Z"/><path class="cls-1" d="M95.91,117.41a1.78,1.78,0,0,0-2,1.75c0,1,.7,2.3,3.11,2.55v.21c-4.65-.17-7.21-1.43-7.21-3.46a2.73,2.73,0,0,1,3-2.6A3.57,3.57,0,0,1,95.91,117.41Zm1.15-13.48c-1.29.24-2.56.91-2.52,2.34C94.65,110.33,106,111,106,116.56c0,3.4-2.87,5.19-7.39,5.36v-.21c1.47-.25,3.12-.77,3.12-2.59,0-3.64-11.48-5-11.48-10.29,0-3.08,2.9-4.94,6.82-5.11Zm8.26,3.39c0,1.09-.84,2.17-2.59,2.17a3,3,0,0,1-3-1.68,1.55,1.55,0,0,0,1.57-1.64c0-1-1.33-2.07-2.73-2.24v-.21C102.56,103.93,105.32,105.36,105.32,107.32Z"/><path class="cls-1" d="M117,97.21a21.3,21.3,0,0,0,8.36-1.37v23.74c0,.87.53,1.78,2.63,1.78v.21H117v-.21c2.11,0,2.63-.91,2.63-1.78V99.27c0-1.26-.6-1.85-2.59-1.85Z"/><path class="cls-1" d="M130.1,112.75a8.66,8.66,0,0,1,8.57-9v.21c-2.06.24-2.62,2-2.62,8.68,0,5,2.24,7.81,5.36,7.81a7.62,7.62,0,0,0,5.11-1.86v.21c-1.82,2.31-5.15,3.15-7.42,3.15A8.87,8.87,0,0,1,130.1,112.75Zm7.88-1.47c3.08,0,4.37-1,4.37-3.92,0-1.68-.7-3.22-2.27-3.43v-.21c4.62,0,6.86,3.29,6.86,6a9.94,9.94,0,0,1-.18,1.82H138Z"/><path class="cls-1" d="M149.45,117.44c0-3,2.8-4.76,6.72-4.76H160v.21h-1.05c-2.53,0-3.72,1.64-3.72,3.82,0,1.92.56,3.39,2.21,3.39a3.86,3.86,0,0,0,2.56-1.22v.2a7.44,7.44,0,0,1-5.57,2.84C151.41,121.92,149.42,120.24,149.45,117.44Zm1.4-9.91c0-1.78,1.61-3.6,6.38-3.81v.21a2.55,2.55,0,0,0-2.24,2.55c0,1.26.87,2,2.27,2.14a3.93,3.93,0,0,1-3.36,1.68A2.81,2.81,0,0,1,150.85,107.53ZM161,118V107.25c0-1.71-.66-3.08-2.38-3.32v-.21c5.82.21,8.13,2.41,8.13,7v8.5c0,1,.35,1.44,1,1.44s1.12-.53,1.68-1.58h.21c-.56,1.93-2.45,2.84-4.55,2.84C162.27,121.92,161,120.94,161,118Z"/><path class="cls-1" d="M183.75,106.52v.28a3.84,3.84,0,0,0-2.9-1.3c-1.75,0-3.43.81-3.43,7.14s1.78,7.46,3.43,7.46a4.81,4.81,0,0,0,2.9-1.22v.2a6.46,6.46,0,0,1-5.07,2.84c-3.33,0-7.21-2-7.21-9.28,0-7,3.81-8.92,7.21-8.92A6.45,6.45,0,0,1,183.75,106.52Zm6.83,12.7c0,1,.32,1.44.95,1.44s1.12-.53,1.68-1.58h.21c-.56,1.93-2.45,2.84-4.55,2.84-2.8,0-4.06-1-4.06-4V99.27c0-1.26-.6-1.85-2.6-1.85v-.21a22.85,22.85,0,0,0,8.37-1.37Z"/><path class="cls-1" d="M194.88,105.05a21.36,21.36,0,0,0,8.37-1.37v15.9c0,.87.52,1.78,2.62,1.78v.21h-11v-.21c2.1,0,2.62-.91,2.62-1.78V107.11c0-1.26-.59-1.85-2.59-1.85Zm1.79-6.58c0-1.82,1.47-3,3.57-3s3.57,1.23,3.57,3-1.47,3.08-3.57,3.08S196.67,100.32,196.67,98.47Z"/><path class="cls-1" d="M207.34,121.36c2.1,0,2.63-.91,2.63-1.78V107.15c0-1.26-.6-1.86-2.59-1.86v-.21a21.49,21.49,0,0,0,8.36-1.36v15.86c0,.87.53,1.78,2.63,1.78v.21h-11Zm12.32,0c2.07,0,2.59-.91,2.59-1.78V108.65c0-2-1-3-2.76-3a3.72,3.72,0,0,0-2.66,1.08v-.21a7.14,7.14,0,0,1,5.81-2.83c3.15,0,5.39,1.47,5.39,4.93v10.93c0,.87.53,1.78,2.63,1.78v.21h-11Z"/><path class="cls-1" d="M232.72,110.05c0-4.55,4.27-6.26,7.84-6.33v.21c-1.51.14-2.21,2-2.21,6,0,4.23.7,6,2.21,6.09v.21C237,116.25,232.72,114.57,232.72,110.05ZM242,130.11c3.5-.42,4.62-2.31,4.62-3.57,0-4.86-13.65-.52-13.65-6.79,0-1.43.73-2.55,2.34-3.57l.11.17a.83.83,0,0,0-.32.67c0,3.92,16-.63,16,7,0,3.61-3.11,6-9.06,6.3Zm-9-2.94c0-2.06,2.55-2.69,5.32-2.69a2.94,2.94,0,0,0-1.51,2.48c0,1.61,1.82,2.84,3.82,3.15v.21C236.88,130.25,233,129.48,233,127.17ZM242,116c1.71-.14,2.41-1.86,2.41-6.09,0-4.06-.73-5.88-2.41-6v-.21c3.71.07,8,1.78,8,6.33s-4.3,6.2-8,6.2Zm1.89-13c.59-1.79,2.2-4.2,4.62-4.2,1.85,0,3,1,3,2.66a2.79,2.79,0,0,1-2.83,2.73c0-1.47-.77-2.35-1.89-2.35a3.8,3.8,0,0,0-2.7,1.26Z"/><path class="cls-1" d="M30.91,140.05a21.36,21.36,0,0,0,8.37-1.37v15.9c0,.87.52,1.78,2.62,1.78v.21h-11v-.21c2.11,0,2.63-.91,2.63-1.78V142.11c0-1.26-.59-1.85-2.59-1.85Zm1.79-6.58c0-1.82,1.47-3.05,3.57-3.05s3.57,1.23,3.57,3.05-1.47,3.08-3.57,3.08S32.7,135.32,32.7,133.47Z"/><path class="cls-1" d="M43.37,156.36c2.1,0,2.63-.91,2.63-1.78V142.15c0-1.26-.6-1.86-2.6-1.86v-.21a21.51,21.51,0,0,0,8.37-1.36v15.86c0,.87.53,1.78,2.63,1.78v.21h-11Zm12.32,0c2.07,0,2.59-.91,2.59-1.78V143.65c0-2-1-3-2.76-3a3.72,3.72,0,0,0-2.66,1.08v-.21a7.14,7.14,0,0,1,5.81-2.83c3.15,0,5.39,1.47,5.39,4.93v10.93c0,.87.52,1.78,2.62,1.78v.21h-11Z"/><path class="cls-1" d="M74.66,152.41a1.78,1.78,0,0,0-2,1.75c0,1,.7,2.3,3.12,2.55v.21c-4.66-.17-7.22-1.43-7.22-3.46a2.73,2.73,0,0,1,3-2.6A3.55,3.55,0,0,1,74.66,152.41Zm1.16-13.48c-1.3.24-2.56.91-2.52,2.34.1,4.06,11.44,4.73,11.44,10.29,0,3.4-2.87,5.19-7.38,5.36v-.21c1.47-.25,3.11-.77,3.11-2.59,0-3.64-11.48-5-11.48-10.29,0-3.08,2.91-4.94,6.83-5.11Zm8.26,3.39c0,1.09-.84,2.17-2.59,2.17a3,3,0,0,1-3-1.68,1.56,1.56,0,0,0,1.58-1.64c0-1-1.33-2.07-2.73-2.24v-.21C81.31,138.93,84.08,140.36,84.08,142.32Z"/><path class="cls-1" d="M95.07,152c0,2,.66,3,2.41,3a3.11,3.11,0,0,0,2.42-1.08v.2a5.84,5.84,0,0,1-5.43,2.84c-3.15,0-5.18-1.47-5.18-4.94v-9.83c0-1.26-.6-1.86-2.59-1.86v-.21a21.58,21.58,0,0,0,8.37-1.36Zm11.65,2.24c0,1,.32,1.44,1,1.44s1.12-.53,1.68-1.58h.21c-.56,1.93-2.45,2.84-4.76,2.84s-3.85-1.4-3.85-3.43V142.15c0-1.26-.6-1.86-2.49-1.86v-.21a22.86,22.86,0,0,0,8.26-1.36Z"/><path class="cls-1" d="M119.35,154.58c0,.87.53,1.78,2.63,1.78v.21H111v-.21c2.1,0,2.63-.91,2.63-1.78V142.15c0-1.26-.6-1.86-2.59-1.86v-.21a21.49,21.49,0,0,0,8.36-1.36Zm9.46-12.08a3.75,3.75,0,0,1-3.61,4,2.36,2.36,0,0,1-2-.77,2.57,2.57,0,0,0,1.36-2.38,1.86,1.86,0,0,0-2-1.89,2.39,2.39,0,0,0-2.1,1.33v-.28a4.84,4.84,0,0,1,4.55-3.78A3.55,3.55,0,0,1,128.81,142.5Z"/><path class="cls-1" d="M130.31,152.44c0-3.05,2.8-4.76,6.72-4.76h3.78v.21h-1.05c-2.52,0-3.71,1.64-3.71,3.82,0,1.92.56,3.39,2.2,3.39a3.82,3.82,0,0,0,2.56-1.22v.2a7.4,7.4,0,0,1-5.56,2.84C132.27,156.92,130.27,155.24,130.31,152.44Zm1.4-9.91c0-1.78,1.61-3.6,6.37-3.81v.21a2.55,2.55,0,0,0-2.24,2.55c0,1.26.87,2,2.27,2.14a3.91,3.91,0,0,1-3.36,1.68A2.81,2.81,0,0,1,131.71,142.53ZM141.86,153V142.25c0-1.71-.66-3.08-2.38-3.32v-.21c5.81.21,8.12,2.41,8.12,7v8.5c0,1,.35,1.44,1,1.44s1.12-.53,1.68-1.58h.21c-.56,1.93-2.45,2.84-4.55,2.84C143.12,156.92,141.86,155.94,141.86,153Z"/><path class="cls-1" d="M151.55,156.36c2.1,0,2.63-.91,2.63-1.78V142.15c0-1.26-.6-1.86-2.59-1.86v-.21a21.49,21.49,0,0,0,8.36-1.36v15.86c0,.87.53,1.78,2.63,1.78v.21h-11Zm12.32,0c2.07,0,2.59-.91,2.59-1.78V143.65c0-2-1-3-2.76-3a3.72,3.72,0,0,0-2.66,1.08v-.21a7.14,7.14,0,0,1,5.81-2.83c3.15,0,5.39,1.47,5.39,4.93v10.93c0,.87.53,1.78,2.63,1.78v.21h-11Z"/><path class="cls-1" d="M185.71,138.93c-2.06.24-3,2-3,8.68,0,5,2.55,7.81,5.67,7.81a7.6,7.6,0,0,0,5.11-1.86v.21c-1.82,2.31-5.15,3.15-7.42,3.15a9.15,9.15,0,0,1-9.35-9.17,9,9,0,0,1,9-9Zm7.78,3.74A3.25,3.25,0,0,1,190,146a3,3,0,0,1-3.05-2.2,3,3,0,0,0,1.68-2.56,2.08,2.08,0,0,0-1.51-2.31v-.24C191.7,138.72,193.49,140.68,193.49,142.67Z"/><path class="cls-1" d="M196.11,147.75a8.66,8.66,0,0,1,8.57-9v.21c-2.06.24-2.62,2-2.62,8.68,0,5,2.24,7.81,5.36,7.81a7.57,7.57,0,0,0,5.1-1.86v.21c-1.81,2.31-5.14,3.15-7.42,3.15A8.87,8.87,0,0,1,196.11,147.75Zm7.87-1.47c3.08,0,4.38-1,4.38-3.92,0-1.68-.7-3.22-2.28-3.43v-.21c4.63,0,6.87,3.29,6.87,5.95a10.9,10.9,0,0,1-.18,1.82H204Z"/><path class="cls-1" d="M37.56,187.41a1.79,1.79,0,0,0-2,1.75c0,1,.7,2.3,3.12,2.55v.21c-4.66-.17-7.22-1.43-7.22-3.46a2.74,2.74,0,0,1,3-2.6A3.55,3.55,0,0,1,37.56,187.41Zm1.16-13.48c-1.3.24-2.56.91-2.52,2.34.1,4.06,11.44,4.73,11.44,10.29,0,3.4-2.87,5.19-7.38,5.36v-.21c1.47-.25,3.11-.77,3.11-2.59,0-3.64-11.48-5-11.48-10.29,0-3.08,2.91-4.94,6.83-5.11ZM47,177.32c0,1.09-.84,2.17-2.59,2.17a3,3,0,0,1-3-1.68A1.56,1.56,0,0,0,43,176.17c0-1-1.33-2.07-2.73-2.24v-.21C44.21,173.93,47,175.36,47,177.32Z"/><path class="cls-1" d="M58,196.89c0,1.26.59,1.86,2.59,1.86V199a23.06,23.06,0,0,0-8.37,1.36V177.11c0-1.26-.59-1.85-2.59-1.85v-.21A22.89,22.89,0,0,0,58,173.68Zm13.33-14.25c0,7.32-3.85,9.28-7.17,9.28a6.52,6.52,0,0,1-5.11-2.84v-.2A4.92,4.92,0,0,0,62,190.1c1.64,0,3.39-1.15,3.39-7.46S63.78,175.5,62,175.5a3.91,3.91,0,0,0-2.94,1.3v-.28a6.51,6.51,0,0,1,5.11-2.8C67.59,173.72,71.37,175.68,71.37,182.64Z"/><path class="cls-1" d="M74.45,182.75a8.66,8.66,0,0,1,8.58-9v.21c-2.07.24-2.63,2-2.63,8.68,0,5,2.24,7.81,5.36,7.81a7.62,7.62,0,0,0,5.11-1.86v.21c-1.82,2.31-5.15,3.15-7.42,3.15A8.87,8.87,0,0,1,74.45,182.75Zm7.88-1.47c3.08,0,4.37-1,4.37-3.92,0-1.68-.7-3.22-2.27-3.43v-.21c4.62,0,6.86,3.29,6.86,5.95a9.94,9.94,0,0,1-.18,1.82H82.33Z"/><path class="cls-1" d="M103.12,173.93c-2.07.24-3,2-3,8.68,0,5,2.56,7.81,5.67,7.81a7.58,7.58,0,0,0,5.11-1.86v.21c-1.82,2.31-5.14,3.15-7.42,3.15a9.15,9.15,0,0,1-9.35-9.17,9,9,0,0,1,9-9Zm7.77,3.74a3.25,3.25,0,0,1-3.5,3.36,3,3,0,0,1-3-2.2,3,3,0,0,0,1.68-2.56,2.08,2.08,0,0,0-1.51-2.31v-.24C109.1,173.72,110.89,175.68,110.89,177.67Z"/><path class="cls-1" d="M113,175.05a21.3,21.3,0,0,0,8.36-1.37v15.9c0,.87.53,1.78,2.63,1.78v.21h-11v-.21c2.1,0,2.63-.91,2.63-1.78V177.11c0-1.26-.6-1.85-2.59-1.85Zm1.78-6.58c0-1.82,1.47-3.05,3.57-3.05s3.57,1.23,3.57,3.05-1.47,3.08-3.57,3.08S114.73,170.32,114.73,168.47Z"/><path class="cls-1" d="M125.69,187.44c0-3.05,2.8-4.76,6.72-4.76h3.78v.21h-1.05c-2.52,0-3.71,1.64-3.71,3.82,0,1.92.56,3.39,2.2,3.39a3.84,3.84,0,0,0,2.56-1.22v.2a7.43,7.43,0,0,1-5.57,2.84C127.65,191.92,125.65,190.24,125.69,187.44Zm1.4-9.91c0-1.78,1.61-3.6,6.37-3.81v.21a2.55,2.55,0,0,0-2.24,2.55c0,1.26.87,2,2.27,2.14a3.93,3.93,0,0,1-3.36,1.68A2.81,2.81,0,0,1,127.09,177.53ZM137.24,188V177.25c0-1.71-.66-3.08-2.38-3.32v-.21c5.81.21,8.12,2.41,8.12,7v8.5c0,1,.35,1.44,1,1.44s1.12-.53,1.68-1.58h.21c-.56,1.93-2.45,2.84-4.55,2.84C138.5,191.92,137.24,190.94,137.24,188Z"/><path class="cls-1" d="M146.76,167.21a21.3,21.3,0,0,0,8.36-1.37v23.74c0,.87.53,1.78,2.63,1.78v.21h-11v-.21c2.1,0,2.63-.91,2.63-1.78V169.27c0-1.26-.6-1.85-2.59-1.85Z"/><path class="cls-1" d="M159.29,175.05a21.3,21.3,0,0,0,8.36-1.37v15.9c0,.87.53,1.78,2.63,1.78v.21h-11v-.21c2.1,0,2.63-.91,2.63-1.78V177.11c0-1.26-.6-1.85-2.59-1.85Zm1.78-6.58c0-1.82,1.47-3.05,3.57-3.05s3.57,1.23,3.57,3.05-1.47,3.08-3.57,3.08S161.07,170.32,161.07,168.47Z"/><path class="cls-1" d="M178.47,187.41a1.78,1.78,0,0,0-2,1.75c0,1,.7,2.3,3.11,2.55v.21c-4.65-.17-7.21-1.43-7.21-3.46a2.73,2.73,0,0,1,3-2.6A3.57,3.57,0,0,1,178.47,187.41Zm1.15-13.48c-1.29.24-2.55.91-2.52,2.34.11,4.06,11.45,4.73,11.45,10.29,0,3.4-2.87,5.19-7.39,5.36v-.21c1.47-.25,3.12-.77,3.12-2.59,0-3.64-11.48-5-11.48-10.29,0-3.08,2.9-4.94,6.82-5.11Zm8.26,3.39c0,1.09-.84,2.17-2.59,2.17a3,3,0,0,1-3-1.68,1.55,1.55,0,0,0,1.57-1.64c0-1-1.33-2.07-2.73-2.24v-.21C185.12,173.93,187.88,175.36,187.88,177.32Z"/><path class="cls-1" d="M204.44,188.88v.2a7.3,7.3,0,0,1-6,2.84c-3.15,0-5.39-1.43-5.39-4.94V175.5h-1.82l.39-.52h1.43V171.2a8.85,8.85,0,0,0,5.74-2V175h4.73l-.39.52H198.8v11.59c0,1.75.67,3.57,2.31,3.57A5.2,5.2,0,0,0,204.44,188.88Z"/><rect class="cls-2" y="0.48" width="300" height="600"/></svg>