<svg id="Layer_1" data-name="Layer 1" xmlns="http://www.w3.org/2000/svg" viewBox="0 0 300 600"><defs><style>.cls-1{fill:#fff;}.cls-2{fill:none;}</style></defs><title>Artboard 2</title><path class="cls-1" d="M31.19,58.05a21.36,21.36,0,0,0,8.37-1.37v15.9c0,.87.52,1.78,2.62,1.78v.21h-11v-.21c2.1,0,2.62-.91,2.62-1.78V60.11c0-1.26-.6-1.85-2.59-1.85ZM33,51.47c0-1.82,1.47-3,3.57-3s3.57,1.23,3.57,3-1.47,3.08-3.57,3.08S33,53.32,33,51.47Z"/><path class="cls-1" d="M50.37,70.41a1.79,1.79,0,0,0-2,1.75c0,1,.7,2.3,3.11,2.55v.21c-4.65-.17-7.21-1.43-7.21-3.46a2.73,2.73,0,0,1,3-2.6A3.55,3.55,0,0,1,50.37,70.41Zm1.15-13.48c-1.29.24-2.55.91-2.51,2.34.1,4.06,11.44,4.73,11.44,10.29,0,3.4-2.87,5.19-7.38,5.36v-.21c1.47-.25,3.11-.77,3.11-2.59,0-3.64-11.48-5-11.48-10.29,0-3.08,2.9-4.94,6.82-5.11Zm8.27,3.39c0,1.09-.84,2.17-2.59,2.17a3,3,0,0,1-3-1.68,1.56,1.56,0,0,0,1.58-1.64c0-1.05-1.33-2.07-2.73-2.24v-.21C57,56.93,59.79,58.36,59.79,60.32Z"/><path class="cls-1" d="M72.28,65.75a8.66,8.66,0,0,1,8.57-9v.21c-2.06.24-2.62,2-2.62,8.68,0,5,2.24,7.81,5.36,7.81a7.62,7.62,0,0,0,5.11-1.86v.21c-1.82,2.31-5.15,3.15-7.42,3.15A8.87,8.87,0,0,1,72.28,65.75Zm7.88-1.47c3.08,0,4.37-1,4.37-3.92,0-1.68-.7-3.22-2.27-3.43v-.21c4.62,0,6.86,3.29,6.86,6a9.94,9.94,0,0,1-.18,1.82H80.16Z"/><path class="cls-1" d="M91.63,70.44c0-3,2.8-4.76,6.72-4.76h3.79v.21h-1c-2.53,0-3.72,1.64-3.72,3.82,0,1.92.56,3.39,2.21,3.39a3.86,3.86,0,0,0,2.56-1.22v.2a7.44,7.44,0,0,1-5.57,2.84C93.6,74.92,91.6,73.24,91.63,70.44ZM93,60.53c0-1.78,1.61-3.6,6.38-3.81v.21a2.55,2.55,0,0,0-2.24,2.55c0,1.26.87,2,2.27,2.14a3.93,3.93,0,0,1-3.36,1.68A2.81,2.81,0,0,1,93,60.53ZM103.18,71V60.25c0-1.71-.66-3.08-2.38-3.32v-.21c5.82.21,8.13,2.41,8.13,7v8.5c0,1,.35,1.44,1,1.44s1.12-.53,1.68-1.58h.21c-.56,1.93-2.45,2.84-4.55,2.84C104.45,74.92,103.18,73.94,103.18,71Z"/><path class="cls-1" d="M119.6,70.41a1.78,1.78,0,0,0-2,1.75c0,1,.7,2.3,3.11,2.55v.21c-4.65-.17-7.21-1.43-7.21-3.46a2.73,2.73,0,0,1,3-2.6A3.57,3.57,0,0,1,119.6,70.41Zm1.15-13.48c-1.29.24-2.55.91-2.52,2.34.11,4.06,11.45,4.73,11.45,10.29,0,3.4-2.87,5.19-7.39,5.36v-.21c1.47-.25,3.12-.77,3.12-2.59,0-3.64-11.48-5-11.48-10.29,0-3.08,2.9-4.94,6.82-5.11ZM129,60.32c0,1.09-.83,2.17-2.58,2.17a3,3,0,0,1-3-1.68A1.55,1.55,0,0,0,125,59.17c0-1.05-1.33-2.07-2.73-2.24v-.21C126.25,56.93,129,58.36,129,60.32Z"/><path class="cls-1" d="M132.62,58.5a1.9,1.9,0,0,0-1.93-1.22v-.21h9.8v.21c-1.22,0-1.71.84-1.12,2.06L144,68.9l-3,5.67h-.21Zm-1.54,21.71c0-1.51,1.19-2.77,3.08-3.29a2.51,2.51,0,0,0-.14.87,2,2,0,0,0,2.06,2.35c1.23,0,2.21-1.3,3.54-3.54h.24c-1.92,3.61-3.25,6.72-5.7,6.72A2.91,2.91,0,0,1,131.08,80.21Zm14.35-14.74a9.68,9.68,0,0,0,1-4.52,3.38,3.38,0,0,0-3.57-3.67v-.21h8.72v.21c-1.16,0-1.61.45-2.28,1.64l-3.64,6.86Z"/><path class="cls-1" d="M38.68,98.34l4.59,9.56-3,5.67h-.21L31.93,97.5A1.9,1.9,0,0,0,30,96.28v-.21h9.8v.21C38.58,96.28,38.09,97.12,38.68,98.34Zm11.52,0,4.58,9.56-3,5.67h-.21l-5.49-10.89L45,104.78l-.21-.31a5.26,5.26,0,0,0,.28-3.89L43.44,97.5a1.89,1.89,0,0,0-1.92-1.22v-.21h9.8v.21C50.09,96.28,49.6,97.12,50.2,98.34Zm12.18-2.27v.21c-1.16,0-1.65.45-2.28,1.64l-3.64,6.86-.21-.31a9.56,9.56,0,0,0,1-4.52,3.38,3.38,0,0,0-3.57-3.67v-.21Z"/><path class="cls-1" d="M62.69,97.05a21.36,21.36,0,0,0,8.37-1.37v15.9c0,.87.52,1.78,2.62,1.78v.21h-11v-.21c2.1,0,2.62-.91,2.62-1.78V99.11c0-1.26-.6-1.85-2.59-1.85Zm1.79-6.58c0-1.82,1.47-3,3.57-3s3.57,1.23,3.57,3-1.47,3.08-3.57,3.08S64.48,92.32,64.48,90.47Z"/><path class="cls-1" d="M88.73,110.88v.2a7.29,7.29,0,0,1-6,2.84c-3.15,0-5.4-1.43-5.4-4.94V97.5H75.53l.39-.52h1.43V93.2a8.9,8.9,0,0,0,5.75-2V97h4.72l-.38.52H83.1v11.59c0,1.75.66,3.57,2.31,3.57A5.15,5.15,0,0,0,88.73,110.88Z"/><path class="cls-1" d="M97.76,111.58c0,.87.52,1.78,2.63,1.78v.21h-11v-.21c2.1,0,2.62-.91,2.62-1.78V91.27c0-1.26-.59-1.85-2.59-1.85v-.21a21.36,21.36,0,0,0,8.37-1.37ZM110,100.65v10.93c0,.87.53,1.78,2.63,1.78v.21h-11v-.21c2.06,0,2.59-.91,2.59-1.78V100.65c0-2-1-3-2.77-3a3.72,3.72,0,0,0-2.66,1.08v-.21a7.15,7.15,0,0,1,5.81-2.83C107.77,95.72,110,97.19,110,100.65Z"/><path class="cls-1" d="M132.34,113.71v.21a13.24,13.24,0,0,1-6.79-1.71l-1.16,1.71h-.28v-8.54h.28A11.75,11.75,0,0,0,132.34,113.71Zm10.29-7c0,4.52-3.36,7-8.78,7.18v-.21c1.92-.35,3.81-1.47,3.81-3.57,0-6.13-13.37-6.69-13.37-13.79,0-4.2,3.39-6.62,8-6.93v.21c-1.61.28-3.08,1.29-3.08,3.22C129.26,99,142.63,99.64,142.63,106.74Zm-8.78-17.11v-.21a11.3,11.3,0,0,1,6.3,1.85l1.26-1.85h.28v7.8h-.28A11.14,11.14,0,0,0,133.85,89.63Z"/><path class="cls-1" d="M158.59,110.88v.2a7.3,7.3,0,0,1-6,2.84c-3.15,0-5.39-1.43-5.39-4.94V97.5h-1.82l.39-.52h1.43V93.2a8.85,8.85,0,0,0,5.74-2V97h4.73l-.39.52H153v11.59c0,1.75.67,3.57,2.31,3.57A5.2,5.2,0,0,0,158.59,110.88Z"/><path class="cls-1" d="M159.71,109.44c0-3,2.8-4.76,6.72-4.76h3.78v.21h-1.05c-2.52,0-3.71,1.64-3.71,3.82,0,1.92.56,3.39,2.2,3.39a3.84,3.84,0,0,0,2.56-1.22v.2a7.43,7.43,0,0,1-5.57,2.84C161.67,113.92,159.67,112.24,159.71,109.44Zm1.4-9.91c0-1.78,1.61-3.6,6.37-3.81v.21a2.55,2.55,0,0,0-2.24,2.55c0,1.26.87,2,2.27,2.14a3.93,3.93,0,0,1-3.36,1.68A2.81,2.81,0,0,1,161.11,99.53ZM171.26,110V99.25c0-1.71-.66-3.08-2.38-3.32v-.21c5.81.21,8.12,2.41,8.12,7v8.5c0,1,.35,1.44,1,1.44s1.12-.53,1.68-1.58h.21c-.56,1.93-2.45,2.84-4.55,2.84C172.52,113.92,171.26,112.94,171.26,110Z"/><path class="cls-1" d="M189.35,111.58c0,.87.53,1.78,2.63,1.78v.21H181v-.21c2.1,0,2.63-.91,2.63-1.78V99.15c0-1.26-.6-1.86-2.59-1.86v-.21a21.49,21.49,0,0,0,8.36-1.36ZM198.8,99.5a3.74,3.74,0,0,1-3.6,4,2.39,2.39,0,0,1-2-.77,2.56,2.56,0,0,0,1.37-2.38,1.86,1.86,0,0,0-2-1.89,2.39,2.39,0,0,0-2.1,1.33V99.5a4.84,4.84,0,0,1,4.55-3.78A3.55,3.55,0,0,1,198.8,99.5Z"/><path class="cls-1" d="M31.79,152.36c2.1,0,2.62-.84,2.62-1.78V130.76c0-.94-.52-1.78-2.62-1.78v-.21H43V129c-2.1,0-2.63.84-2.63,1.78v19.82c0,.94.53,1.78,2.63,1.78v.21H31.79Z"/><path class="cls-1" d="M45.33,152.36c2.1,0,2.62-.91,2.62-1.78V138.15c0-1.26-.59-1.86-2.59-1.86v-.21a21.51,21.51,0,0,0,8.37-1.36v15.86c0,.87.53,1.78,2.63,1.78v.21h-11Zm12.32,0c2.07,0,2.59-.91,2.59-1.78V139.65c0-2-1-3-2.76-3a3.72,3.72,0,0,0-2.66,1.08v-.21a7.14,7.14,0,0,1,5.81-2.83c3.15,0,5.39,1.47,5.39,4.93v10.93c0,.87.52,1.78,2.62,1.78v.21h-11Z"/><path class="cls-1" d="M76.62,148.41a1.79,1.79,0,0,0-2,1.75c0,1,.7,2.3,3.11,2.55v.21c-4.65-.17-7.21-1.43-7.21-3.46a2.73,2.73,0,0,1,3-2.6A3.55,3.55,0,0,1,76.62,148.41Zm1.15-13.48c-1.29.24-2.55.91-2.51,2.34.1,4.06,11.44,4.73,11.44,10.29,0,3.4-2.87,5.19-7.38,5.36v-.21c1.47-.25,3.11-.77,3.11-2.59,0-3.64-11.48-5-11.48-10.29,0-3.08,2.9-4.94,6.82-5.11ZM86,138.32c0,1.09-.84,2.17-2.59,2.17a3,3,0,0,1-3-1.68,1.56,1.56,0,0,0,1.58-1.64c0-1-1.33-2.07-2.73-2.24v-.21C83.27,134.93,86,136.36,86,138.32Z"/><path class="cls-1" d="M97,148c0,2,.67,3,2.42,3a3.11,3.11,0,0,0,2.42-1.08v.2a5.85,5.85,0,0,1-5.43,2.84c-3.15,0-5.18-1.47-5.18-4.94v-9.83c0-1.26-.6-1.86-2.59-1.86v-.21A21.46,21.46,0,0,0,97,134.72Zm11.66,2.24c0,1,.32,1.44.95,1.44s1.12-.53,1.68-1.58h.21c-.56,1.93-2.45,2.84-4.76,2.84s-3.85-1.4-3.85-3.43V138.15c0-1.26-.6-1.86-2.49-1.86v-.21a22.86,22.86,0,0,0,8.26-1.36Z"/><path class="cls-1" d="M121.32,150.58c0,.87.52,1.78,2.62,1.78v.21h-11v-.21c2.1,0,2.63-.91,2.63-1.78V138.15c0-1.26-.6-1.86-2.59-1.86v-.21a21.58,21.58,0,0,0,8.37-1.36Zm9.45-12.08a3.75,3.75,0,0,1-3.61,4,2.37,2.37,0,0,1-2-.77,2.57,2.57,0,0,0,1.36-2.38,1.85,1.85,0,0,0-2-1.89,2.4,2.4,0,0,0-2.1,1.33v-.28a4.85,4.85,0,0,1,4.55-3.78A3.55,3.55,0,0,1,130.77,138.5Z"/><path class="cls-1" d="M132.27,148.44c0-3.05,2.8-4.76,6.72-4.76h3.78v.21h-1.05c-2.52,0-3.71,1.64-3.71,3.82,0,1.92.56,3.39,2.21,3.39a3.84,3.84,0,0,0,2.55-1.22v.2a7.41,7.41,0,0,1-5.57,2.84C134.23,152.92,132.23,151.24,132.27,148.44Zm1.4-9.91c0-1.78,1.61-3.6,6.37-3.81v.21a2.55,2.55,0,0,0-2.24,2.55c0,1.26.88,2,2.28,2.14a4,4,0,0,1-3.37,1.68A2.81,2.81,0,0,1,133.67,138.53ZM143.82,149V138.25c0-1.71-.66-3.08-2.38-3.32v-.21c5.81.21,8.12,2.41,8.12,7v8.5c0,1,.35,1.44,1,1.44s1.12-.53,1.68-1.58h.21c-.56,1.93-2.45,2.84-4.55,2.84C145.08,152.92,143.82,151.94,143.82,149Z"/><path class="cls-1" d="M153.51,152.36c2.1,0,2.63-.91,2.63-1.78V138.15c0-1.26-.6-1.86-2.59-1.86v-.21a21.58,21.58,0,0,0,8.37-1.36v15.86c0,.87.52,1.78,2.62,1.78v.21h-11Zm12.33,0c2.06,0,2.59-.91,2.59-1.78V139.65c0-2-1-3-2.77-3a3.72,3.72,0,0,0-2.66,1.08v-.21a7.14,7.14,0,0,1,5.81-2.83c3.15,0,5.39,1.47,5.39,4.93v10.93c0,.87.53,1.78,2.63,1.78v.21h-11Z"/><path class="cls-1" d="M187.68,134.93c-2.07.24-3,2-3,8.68,0,5,2.56,7.81,5.67,7.81a7.6,7.6,0,0,0,5.11-1.86v.21c-1.82,2.31-5.14,3.15-7.42,3.15a9.15,9.15,0,0,1-9.35-9.17,9,9,0,0,1,9-9Zm7.76,3.74a3.25,3.25,0,0,1-3.5,3.36,3,3,0,0,1-3-2.2,3,3,0,0,0,1.68-2.56,2.08,2.08,0,0,0-1.51-2.31v-.24C193.66,134.72,195.44,136.68,195.44,138.67Z"/><path class="cls-1" d="M198.07,143.75a8.66,8.66,0,0,1,8.57-9v.21c-2.06.24-2.62,2-2.62,8.68,0,5,2.24,7.81,5.35,7.81a7.62,7.62,0,0,0,5.12-1.86v.21c-1.82,2.31-5.15,3.15-7.43,3.15A8.87,8.87,0,0,1,198.07,143.75Zm7.87-1.47c3.08,0,4.38-1,4.38-3.92,0-1.68-.7-3.22-2.28-3.43v-.21c4.63,0,6.87,3.29,6.87,5.95a9.94,9.94,0,0,1-.18,1.82h-8.79Z"/><path class="cls-1" d="M31.79,191.57v-.21c2.1,0,2.62-.8,2.62-1.78V169.8c0-1-.52-1.82-2.62-1.82v-.21h8.57v23.8Zm19.56-23.8v6.47h-.28c-1.5-4.41-3.64-5.91-9-6.26v-.21Zm-9.24,11.58v-.21L44,179a5.42,5.42,0,0,0,4.62-3h.28v6.51h-.28A5.31,5.31,0,0,0,44,179.53Zm0,12c5.32-.35,7.81-1.86,9.7-6.27h.28v6.48h-10Z"/><path class="cls-1" d="M54.68,191.36c2.09,0,2.62-.91,2.62-1.78V177.15c0-1.26-.6-1.86-2.59-1.86v-.21a21.54,21.54,0,0,0,8.37-1.36v15.86c0,.87.52,1.78,2.62,1.78v.21h-11Zm12.32,0c2.06,0,2.59-.91,2.59-1.78V178.65c0-2-1-3-2.77-3a3.72,3.72,0,0,0-2.66,1.08v-.21A7.15,7.15,0,0,1,70,173.72c3.15,0,5.39,1.47,5.39,4.93v10.93c0,.87.53,1.78,2.63,1.78v.21H67Z"/><path class="cls-1" d="M92.83,188.88v.2a7.3,7.3,0,0,1-6,2.84c-3.15,0-5.39-1.43-5.39-4.94V175.5H79.63L80,175h1.44V171.2a8.87,8.87,0,0,0,5.74-2V175h4.73l-.39.52H87.19v11.59c0,1.75.67,3.57,2.31,3.57A5.2,5.2,0,0,0,92.83,188.88Z"/><path class="cls-1" d="M101.85,189.58c0,.87.53,1.78,2.63,1.78v.21h-11v-.21c2.1,0,2.63-.91,2.63-1.78V169.27c0-1.26-.6-1.85-2.59-1.85v-.21a21.3,21.3,0,0,0,8.36-1.37Zm12.26-10.93v10.93c0,.87.52,1.78,2.62,1.78v.21h-11v-.21c2.07,0,2.59-.91,2.59-1.78V178.65c0-2-1-3-2.76-3a3.72,3.72,0,0,0-2.66,1.08v-.21a7.14,7.14,0,0,1,5.81-2.83C111.87,173.72,114.11,175.19,114.11,178.65Z"/><path class="cls-1" d="M126,187c0,2,.66,3,2.41,3a3.11,3.11,0,0,0,2.42-1.08v.2a5.84,5.84,0,0,1-5.43,2.84c-3.15,0-5.18-1.47-5.18-4.94v-9.83c0-1.26-.6-1.86-2.59-1.86v-.21a21.58,21.58,0,0,0,8.37-1.36Zm11.65,2.24c0,1,.32,1.44,1,1.44s1.12-.53,1.68-1.58h.21c-.56,1.93-2.45,2.84-4.76,2.84s-3.85-1.4-3.85-3.43V177.15c0-1.26-.6-1.86-2.49-1.86v-.21a22.86,22.86,0,0,0,8.26-1.36Z"/><path class="cls-1" d="M148.61,187.41a1.79,1.79,0,0,0-2,1.75c0,1,.7,2.3,3.12,2.55v.21c-4.66-.17-7.21-1.43-7.21-3.46a2.73,2.73,0,0,1,3-2.6A3.55,3.55,0,0,1,148.61,187.41Zm1.16-13.48c-1.3.24-2.56.91-2.52,2.34.1,4.06,11.45,4.73,11.45,10.29,0,3.4-2.87,5.19-7.39,5.36v-.21c1.47-.25,3.12-.77,3.12-2.59,0-3.64-11.49-5-11.49-10.29,0-3.08,2.91-4.94,6.83-5.11Zm8.26,3.39c0,1.09-.84,2.17-2.59,2.17a3,3,0,0,1-3-1.68,1.55,1.55,0,0,0,1.57-1.64c0-1-1.33-2.07-2.73-2.24v-.21C155.26,173.93,158,175.36,158,177.32Z"/><path class="cls-1" d="M161.07,175.05a21.36,21.36,0,0,0,8.37-1.37v15.9c0,.87.52,1.78,2.62,1.78v.21H161v-.21c2.1,0,2.62-.91,2.62-1.78V177.11c0-1.26-.59-1.85-2.59-1.85Zm1.79-6.58c0-1.82,1.47-3.05,3.57-3.05s3.57,1.23,3.57,3.05-1.47,3.08-3.57,3.08S162.86,170.32,162.86,168.47Z"/><path class="cls-1" d="M173.81,187.44c0-3.05,2.8-4.76,6.72-4.76h3.78v.21h-1.05c-2.52,0-3.71,1.64-3.71,3.82,0,1.92.56,3.39,2.21,3.39a3.82,3.82,0,0,0,2.55-1.22v.2a7.4,7.4,0,0,1-5.56,2.84C175.77,191.92,173.78,190.24,173.81,187.44Zm1.4-9.91c0-1.78,1.61-3.6,6.37-3.81v.21a2.55,2.55,0,0,0-2.24,2.55c0,1.26.88,2,2.28,2.14a3.94,3.94,0,0,1-3.36,1.68A2.81,2.81,0,0,1,175.21,177.53ZM185.36,188V177.25c0-1.71-.66-3.08-2.38-3.32v-.21c5.81.21,8.12,2.41,8.12,7v8.5c0,1,.35,1.44,1,1.44s1.12-.53,1.67-1.58H194c-.56,1.93-2.46,2.84-4.55,2.84C186.62,191.92,185.36,190.94,185.36,188Z"/><path class="cls-1" d="M201.78,187.41a1.78,1.78,0,0,0-2,1.75c0,1,.7,2.3,3.11,2.55v.21c-4.65-.17-7.21-1.43-7.21-3.46a2.73,2.73,0,0,1,3-2.6A3.57,3.57,0,0,1,201.78,187.41Zm1.15-13.48c-1.29.24-2.55.91-2.52,2.34.11,4.06,11.45,4.73,11.45,10.29,0,3.4-2.87,5.19-7.39,5.36v-.21c1.47-.25,3.12-.77,3.12-2.59,0-3.64-11.48-5-11.48-10.29,0-3.08,2.9-4.94,6.82-5.11Zm8.26,3.39c0,1.09-.84,2.17-2.59,2.17a3,3,0,0,1-3-1.68,1.55,1.55,0,0,0,1.57-1.64c0-1-1.33-2.07-2.73-2.24v-.21C208.43,173.93,211.19,175.36,211.19,177.32Z"/><path class="cls-1" d="M227.75,188.88v.2a7.3,7.3,0,0,1-6,2.84c-3.15,0-5.39-1.43-5.39-4.94V175.5h-1.82l.39-.52h1.43V171.2a8.85,8.85,0,0,0,5.74-2V175h4.73l-.39.52h-4.34v11.59c0,1.75.67,3.57,2.31,3.57A5.2,5.2,0,0,0,227.75,188.88Z"/><rect class="cls-2" y="0.48" width="300" height="600"/></svg>