<?xml version="1.0" encoding="utf-8"?>
<!-- Generator: Adobe Illustrator 24.0.3, SVG Export Plug-In . SVG Version: 6.00 Build 0)  -->
<svg version="1.1" id="Layer_1" xmlns="http://www.w3.org/2000/svg" xmlns:xlink="http://www.w3.org/1999/xlink" x="0px" y="0px"
	 viewBox="0 0 300 600" style="enable-background:new 0 0 300 600;" xml:space="preserve">
<style type="text/css">
	.st0{clip-path:url(#SVGID_2_);}
	.st1{enable-background:new    ;}
	.st2{fill:#FFFFFF;}
</style>
<title>Artboard 1 copy 4</title>
<g>
	<defs>
		<rect id="SVGID_1_" y="0.5" width="300" height="599.5"/>
	</defs>
	<clipPath id="SVGID_2_">
		<use xlink:href="#SVGID_1_"  style="overflow:visible;"/>
	</clipPath>
	<g class="st0">
		<g class="st1">
			<path class="st2" d="M21.6,125c3.6,0,6.5-0.4,9.2-1.5V141c0,1,0.6,2,2.9,2v0.2H21.6V143c2.3,0,2.9-1,2.9-2v-13.7
				c0-1.4-0.7-2-2.8-2V125z M23.6,117.8c0-2,1.6-3.3,3.9-3.3c2.3,0,3.9,1.3,3.9,3.3c0,2-1.6,3.4-3.9,3.4
				C25.2,121.2,23.6,119.8,23.6,117.8z"/>
			<path class="st2" d="M42.7,138.6c-1.3,0-2.2,0.8-2.2,1.9c0,1.1,0.8,2.5,3.4,2.8v0.2c-5.1-0.2-7.9-1.6-7.9-3.8
				c0-1.8,1.5-2.8,3.3-2.8C40.9,136.9,42.2,137.6,42.7,138.6z M44,123.8c-1.4,0.3-2.8,1-2.8,2.6c0.1,4.5,12.6,5.2,12.6,11.3
				c0,3.7-3.2,5.7-8.1,5.9v-0.2c1.6-0.3,3.4-0.8,3.4-2.8c0-4-12.6-5.5-12.6-11.3c0-3.4,3.2-5.4,7.5-5.6V123.8z M53.1,127.5
				c0,1.2-0.9,2.4-2.8,2.4c-1.6,0-2.8-0.7-3.3-1.8c1.2-0.1,1.8-0.9,1.7-1.8c0-1.2-1.5-2.3-3-2.5v-0.2
				C50,123.8,53.1,125.4,53.1,127.5z"/>
			<path class="st2" d="M66.8,133.5c0-6.5,4.9-9.9,9.4-9.9v0.2c-2.3,0.3-2.9,2.2-2.9,9.5c0,5.5,2.5,8.6,5.9,8.6c2.2,0,3.8-0.6,5.6-2
				v0.2c-2,2.5-5.7,3.5-8.2,3.5C71.8,143.6,66.8,140,66.8,133.5z M75.5,131.9c3.4,0,4.8-1.1,4.8-4.3c0-1.8-0.8-3.5-2.5-3.8v-0.2
				c5.1,0,7.5,3.6,7.5,6.5c0,0.6-0.1,1.4-0.2,2h-9.7V131.9z"/>
			<path class="st2" d="M88.1,138.6c0-3.3,3.1-5.2,7.4-5.2h4.2v0.2h-1.2c-2.8,0-4.1,1.8-4.1,4.2c0,2.1,0.6,3.7,2.4,3.7
				c1.1,0,2-0.6,2.8-1.3v0.2c-1.3,1.5-3.3,3.1-6.1,3.1C90.3,143.6,88.1,141.7,88.1,138.6z M89.7,127.8c0-2,1.8-4,7-4.2v0.2
				c-1.5,0.2-2.5,1.5-2.5,2.8c0,1.4,1,2.2,2.5,2.3c-0.6,1.1-2.2,1.8-3.7,1.8C90.9,130.8,89.7,129.4,89.7,127.8z M100.8,139.2v-11.8
				c0-1.9-0.7-3.4-2.6-3.7v-0.2c6.4,0.2,8.9,2.7,8.9,7.7v9.4c0,1.1,0.4,1.6,1.1,1.6c0.6,0,1.2-0.6,1.8-1.7h0.2
				c-0.6,2.1-2.7,3.1-5,3.1C102.2,143.6,100.8,142.5,100.8,139.2z"/>
		</g>
		<g class="st1">
			<path class="st2" d="M118.9,138.6c-1.3,0-2.2,0.8-2.2,1.9c0,1.1,0.8,2.5,3.4,2.8v0.2c-5.1-0.2-7.9-1.6-7.9-3.8
				c0-1.8,1.5-2.8,3.3-2.8C117,136.9,118.3,137.6,118.9,138.6z M120.1,123.8c-1.4,0.3-2.8,1-2.8,2.6c0.1,4.5,12.6,5.2,12.6,11.3
				c0,3.7-3.2,5.7-8.1,5.9v-0.2c1.6-0.3,3.4-0.8,3.4-2.8c0-4-12.6-5.5-12.6-11.3c0-3.4,3.2-5.4,7.5-5.6V123.8z M129.2,127.5
				c0,1.2-0.9,2.4-2.8,2.4c-1.6,0-2.8-0.7-3.3-1.8c1.2-0.1,1.8-0.9,1.7-1.8c0-1.2-1.5-2.3-3-2.5v-0.2
				C126.2,123.8,129.2,125.4,129.2,127.5z"/>
		</g>
		<g class="st1">
			<path class="st2" d="M133.2,125.5c-0.4-0.8-0.9-1.3-2.1-1.3v-0.2h10.8v0.2c-1.3,0-1.9,0.9-1.2,2.3l5,10.5l-3.3,6.2h-0.2
				L133.2,125.5z M131.5,149.4c0-1.7,1.3-3,3.4-3.6c-0.1,0.3-0.2,0.7-0.2,1c0,1.5,0.8,2.6,2.3,2.6c1.3,0,2.4-1.4,3.9-3.9h0.3
				c-2.1,4-3.6,7.4-6.3,7.4C132.7,152.8,131.5,151.3,131.5,149.4z M147.3,133.2c0.7-1.2,1.1-2.9,1.1-5c0-2.1-1.2-4-3.9-4v-0.2h9.6
				v0.2c-1.3,0-1.8,0.5-2.5,1.8l-4,7.5L147.3,133.2z"/>
		</g>
		<g class="st1">
			<path class="st2" d="M29.9,164.9l5,10.5l-3.3,6.2h-0.2L22.4,164c-0.4-0.8-0.9-1.3-2.1-1.3v-0.2h10.8v0.2
				C29.8,162.7,29.2,163.6,29.9,164.9z M42.5,164.9l5,10.5l-3.3,6.2H44l-6-12l-1.2,2.3l-0.2-0.3c0.6-1.3,0.8-3.2,0.3-4.3l-1.7-3.4
				c-0.4-0.8-0.9-1.3-2.1-1.3v-0.2h10.8v0.2C42.4,162.7,41.9,163.6,42.5,164.9z M55.9,162.4v0.2c-1.3,0-1.8,0.5-2.5,1.8l-4,7.5
				l-0.2-0.3c0.7-1.2,1.1-2.9,1.1-5c0-2.1-1.2-4-3.9-4v-0.2H55.9z"/>
			<path class="st2" d="M56.3,163.5c3.6,0,6.5-0.4,9.2-1.5v17.5c0,1,0.6,2,2.9,2v0.2H56.2v-0.2c2.3,0,2.9-1,2.9-2v-13.7
				c0-1.4-0.7-2-2.8-2V163.5z M58.2,156.3c0-2,1.6-3.3,3.9-3.3c2.3,0,3.9,1.3,3.9,3.3c0,2-1.6,3.4-3.9,3.4
				C59.9,159.7,58.2,158.3,58.2,156.3z"/>
			<path class="st2" d="M84.9,178.7v0.2c-1.2,1.8-3.7,3.1-6.6,3.1c-3.5,0-5.9-1.6-5.9-5.4V164h-2l0.4-0.6h1.6v-4.2
				c2.3,0,4.7-0.7,6.3-2.2v6.3h5.2l-0.4,0.6h-4.8v12.7c0,1.9,0.7,3.9,2.5,3.9C82.3,180.7,83.6,180,84.9,178.7z"/>
			<path class="st2" d="M94.8,179.5c0,1,0.6,2,2.9,2v0.2H85.6v-0.2c2.3,0,2.9-1,2.9-2v-22.3c0-1.4-0.7-2-2.8-2v-0.2
				c3.6,0,6.5-0.4,9.2-1.5V179.5z M108.3,167.5v12c0,1,0.6,2,2.9,2v0.2H99.1v-0.2c2.3,0,2.8-1,2.8-2v-12c0-2.2-1.1-3.3-3-3.3
				c-1.1,0-2,0.3-2.9,1.2v-0.2c1-1.6,3.5-3.1,6.4-3.1C105.9,162.1,108.3,163.7,108.3,167.5z"/>
		</g>
		<g class="st1">
			<path class="st2" d="M132.9,181.8v0.2c-3-0.1-5.5-0.7-7.5-1.9l-1.3,1.9h-0.3v-9.4h0.3C125.4,177,128.1,180.3,132.9,181.8z
				 M144.2,174.2c0,5-3.7,7.7-9.7,7.9v-0.2c2.1-0.4,4.2-1.6,4.2-3.9c0-6.7-14.7-7.3-14.7-15.2c0-4.6,3.7-7.3,8.9-7.6v0.2
				c-1.8,0.3-3.4,1.4-3.4,3.5C129.5,165.6,144.2,166.4,144.2,174.2z M134.5,155.4v-0.2c2.9,0.1,5.2,0.8,6.9,2l1.4-2h0.3v8.6h-0.3
				C141.6,159.6,138.3,156.3,134.5,155.4z"/>
		</g>
		<g class="st1">
			<path class="st2" d="M161.7,178.7v0.2c-1.2,1.8-3.7,3.1-6.6,3.1c-3.5,0-5.9-1.6-5.9-5.4V164h-2l0.4-0.6h1.6v-4.2
				c2.3,0,4.7-0.7,6.3-2.2v6.3h5.2l-0.4,0.6h-4.8v12.7c0,1.9,0.7,3.9,2.5,3.9C159.2,180.7,160.5,180,161.7,178.7z"/>
			<path class="st2" d="M163,177.1c0-3.3,3.1-5.2,7.4-5.2h4.2v0.2h-1.2c-2.8,0-4.1,1.8-4.1,4.2c0,2.1,0.6,3.7,2.4,3.7
				c1.1,0,2-0.6,2.8-1.3v0.2c-1.3,1.5-3.3,3.1-6.1,3.1C165.1,182.1,162.9,180.2,163,177.1z M164.5,166.2c0-2,1.8-4,7-4.2v0.2
				c-1.5,0.2-2.5,1.5-2.5,2.8c0,1.4,1,2.2,2.5,2.3c-0.6,1.1-2.2,1.8-3.7,1.8C165.7,169.3,164.5,167.9,164.5,166.2z M175.7,177.7
				v-11.8c0-1.9-0.7-3.4-2.6-3.7v-0.2c6.4,0.2,8.9,2.7,8.9,7.7v9.4c0,1.1,0.4,1.6,1.1,1.6c0.6,0,1.2-0.6,1.8-1.7h0.2
				c-0.6,2.1-2.7,3.1-5,3.1C177.1,182.1,175.7,181,175.7,177.7z"/>
		</g>
		<g class="st1">
			<path class="st2" d="M195.6,179.5c0,1,0.6,2,2.9,2v0.2h-12.1v-0.2c2.3,0,2.9-1,2.9-2v-13.7c0-1.4-0.7-2-2.8-2v-0.2
				c3.6,0,6.5-0.4,9.2-1.5V179.5z M206,166.2c0,2.7-1.9,4.4-4,4.4c-0.9,0-1.7-0.2-2.2-0.8c0.7-0.4,1.5-1.2,1.5-2.6
				c0-1.1-0.8-2.1-2.2-2.1c-1,0-1.8,0.6-2.3,1.5v-0.3c0.7-2.5,2.6-4.2,5-4.2C204.5,162.1,206,163.9,206,166.2z"/>
		</g>
		<g class="st1">
			<path class="st2" d="M22.3,219.9c2.3,0,2.9-0.9,2.9-2v-21.8c0-1-0.6-2-2.9-2V194h12.3v0.2c-2.3,0-2.9,0.9-2.9,2V218
				c0,1,0.6,2,2.9,2v0.2H22.3V219.9z"/>
			<path class="st2" d="M37.2,219.9c2.3,0,2.9-1,2.9-2v-13.7c0-1.4-0.7-2-2.8-2v-0.2c3.6,0,6.5-0.4,9.2-1.5V218c0,1,0.6,2,2.9,2v0.2
				H37.2V219.9z M50.7,219.9c2.3,0,2.8-1,2.8-2v-12c0-2.2-1.1-3.3-3-3.3c-1.1,0-2,0.3-2.9,1.2v-0.2c1-1.6,3.5-3.1,6.4-3.1
				c3.5,0,5.9,1.6,5.9,5.4v12c0,1,0.6,2,2.9,2v0.2H50.7V219.9z"/>
			<path class="st2" d="M71.6,215.6c-1.3,0-2.2,0.8-2.2,1.9c0,1.1,0.8,2.5,3.4,2.8v0.2c-5.1-0.2-7.9-1.6-7.9-3.8
				c0-1.8,1.5-2.8,3.3-2.8C69.8,213.9,71,214.6,71.6,215.6z M72.9,200.8c-1.4,0.3-2.8,1-2.8,2.6c0.1,4.5,12.6,5.2,12.6,11.3
				c0,3.7-3.2,5.7-8.1,5.9v-0.2c1.6-0.3,3.4-0.8,3.4-2.8c0-4-12.6-5.5-12.6-11.3c0-3.4,3.2-5.4,7.5-5.6V200.8z M82,204.5
				c0,1.2-0.9,2.4-2.8,2.4c-1.6,0-2.8-0.7-3.3-1.8c1.2-0.1,1.8-0.9,1.7-1.8c0-1.2-1.5-2.3-3-2.5v-0.2C78.9,200.8,82,202.4,82,204.5z
				"/>
			<path class="st2" d="M94,215.1c0,2.2,0.7,3.3,2.7,3.3c1,0,1.8-0.3,2.7-1.2v0.2c-0.9,1.7-2.8,3.1-6,3.1c-3.5,0-5.7-1.6-5.7-5.4
				v-10.8c0-1.4-0.7-2-2.8-2v-0.2c3.6,0,6.5-0.4,9.2-1.5V215.1z M106.9,217.6c0,1.1,0.3,1.6,1,1.6c0.6,0,1.2-0.6,1.8-1.7h0.2
				c-0.6,2.1-2.7,3.1-5.2,3.1c-2.7,0-4.2-1.5-4.2-3.8v-12.5c0-1.4-0.7-2-2.7-2v-0.2c3.5,0,5.8-0.4,9.1-1.5V217.6z"/>
		</g>
		<g class="st1">
			<path class="st2" d="M120.8,218c0,1,0.6,2,2.9,2v0.2h-12.1v-0.2c2.3,0,2.9-1,2.9-2v-13.7c0-1.4-0.7-2-2.8-2v-0.2
				c3.6,0,6.5-0.4,9.2-1.5V218z M131.1,204.7c0,2.7-1.9,4.4-4,4.4c-0.9,0-1.7-0.2-2.2-0.8c0.7-0.4,1.5-1.2,1.5-2.6
				c0-1.1-0.8-2.1-2.2-2.1c-1,0-1.8,0.6-2.3,1.5v-0.3c0.7-2.5,2.6-4.2,5-4.2C129.7,200.6,131.1,202.4,131.1,204.7z"/>
		</g>
		<g class="st1">
			<path class="st2" d="M132.8,215.6c0-3.3,3.1-5.2,7.4-5.2h4.2v0.2h-1.2c-2.8,0-4.1,1.8-4.1,4.2c0,2.1,0.6,3.7,2.4,3.7
				c1.1,0,2-0.6,2.8-1.3v0.2c-1.3,1.5-3.3,3.1-6.1,3.1C135,220.6,132.8,218.7,132.8,215.6z M134.4,204.7c0-2,1.8-4,7-4.2v0.2
				c-1.5,0.2-2.5,1.5-2.5,2.8c0,1.4,1,2.2,2.5,2.3c-0.6,1.1-2.2,1.8-3.7,1.8C135.6,207.8,134.4,206.4,134.4,204.7z M145.5,216.2
				v-11.8c0-1.9-0.7-3.4-2.6-3.7v-0.2c6.4,0.2,8.9,2.7,8.9,7.7v9.4c0,1.1,0.4,1.6,1.1,1.6c0.6,0,1.2-0.6,1.8-1.7h0.2
				c-0.6,2.1-2.7,3.1-5,3.1C146.9,220.6,145.5,219.5,145.5,216.2z"/>
			<path class="st2" d="M156.2,219.9c2.3,0,2.9-1,2.9-2v-13.7c0-1.4-0.7-2-2.8-2v-0.2c3.6,0,6.5-0.4,9.2-1.5V218c0,1,0.6,2,2.9,2
				v0.2h-12.1V219.9z M169.7,219.9c2.3,0,2.8-1,2.8-2v-12c0-2.2-1.1-3.3-3-3.3c-1.1,0-2,0.3-2.9,1.2v-0.2c1-1.6,3.5-3.1,6.4-3.1
				c3.5,0,5.9,1.6,5.9,5.4v12c0,1,0.6,2,2.9,2v0.2h-12.1V219.9z"/>
			<path class="st2" d="M193.7,200.8c-2.3,0.3-3.3,2.2-3.3,9.5c0,5.5,2.8,8.6,6.2,8.6c2.2,0,3.8-0.6,5.6-2v0.2
				c-2,2.5-5.7,3.5-8.2,3.5c-4.9,0-10.3-3.6-10.3-10.1c0-6.5,5.3-9.9,9.9-9.9V200.8z M202.3,204.9c0,2-1.4,3.7-3.8,3.7
				c-1.9,0-3.1-1.2-3.3-2.4c1.1-0.4,1.8-1.8,1.8-2.8c0-0.9-0.2-2.3-1.7-2.5v-0.3C200.3,200.6,202.3,202.7,202.3,204.9z"/>
			<path class="st2" d="M205.2,210.5c0-6.5,4.9-9.9,9.4-9.9v0.2c-2.3,0.3-2.9,2.2-2.9,9.5c0,5.5,2.5,8.6,5.9,8.6
				c2.2,0,3.8-0.6,5.6-2v0.2c-2,2.5-5.7,3.5-8.2,3.5C210.1,220.6,205.2,216.9,205.2,210.5z M213.8,208.9c3.4,0,4.8-1.1,4.8-4.3
				c0-1.8-0.8-3.5-2.5-3.8v-0.2c5.1,0,7.5,3.6,7.5,6.5c0,0.6-0.1,1.4-0.2,2h-9.7V208.9z"/>
		</g>
		<g class="st1">
			<path class="st2" d="M45.9,238.4l-8.7,20.3h-0.5l-11-24c-0.6-1.3-2.1-2-4.1-2v-0.2H32l8,17.4l5.9-12.3V238.4z M30.1,258.4v0.2
				h-8.5v-0.2c2.5,0,3.7-1.6,3.8-3.2l0.3-16.6l0.3,0.7l0.3,15.9C26.3,256.9,27.5,258.4,30.1,258.4z M54,234.7v21.8c0,1,0.6,2,2.9,2
				v0.2H44.5v-0.2c2.3,0,2.9-0.9,2.9-2v-24h9.4v0.2C54.5,232.7,54,233.7,54,234.7z"/>
		</g>
		<g class="st1">
			<path class="st2" d="M69,239.3c-2.3,0.3-3,2.2-3,9.7c0,7.2,0.8,9.6,3,9.9v0.2c-4.4,0-9.6-3.6-9.6-10.1c0-6.5,5.1-9.9,9.6-9.9
				V239.3z M80.1,249c0,6.4-5.1,10.1-9.5,10.1v-0.2c2.3-0.2,3-2.7,3-9.9c0-7.5-0.8-9.5-3-9.7V239C75,239,80.1,242.5,80.1,249z"/>
		</g>
		<g class="st1">
			<path class="st2" d="M97.6,255.7v0.2c-1.2,1.8-3.7,3.1-6.6,3.1c-3.5,0-5.9-1.6-5.9-5.4V241h-2l0.4-0.6h1.6v-4.2
				c2.3,0,4.7-0.7,6.3-2.2v6.3h5.2l-0.4,0.6h-4.8v12.7c0,1.9,0.7,3.9,2.5,3.9C95,257.7,96.3,257,97.6,255.7z"/>
		</g>
		<g class="st1">
			<path class="st2" d="M108.6,239.3c-2.3,0.3-3,2.2-3,9.7c0,7.2,0.8,9.6,3,9.9v0.2c-4.4,0-9.6-3.6-9.6-10.1c0-6.5,5.1-9.9,9.6-9.9
				V239.3z M119.7,249c0,6.4-5.1,10.1-9.5,10.1v-0.2c2.3-0.2,3-2.7,3-9.9c0-7.5-0.8-9.5-3-9.7V239C114.6,239,119.7,242.5,119.7,249z
				"/>
		</g>
		<g class="st1">
			<path class="st2" d="M131.5,256.5c0,1,0.6,2,2.9,2v0.2h-12.1v-0.2c2.3,0,2.9-1,2.9-2v-13.7c0-1.4-0.7-2-2.8-2v-0.2
				c3.6,0,6.5-0.4,9.2-1.5V256.5z M141.8,243.2c0,2.7-1.9,4.4-4,4.4c-0.9,0-1.7-0.2-2.2-0.8c0.7-0.4,1.5-1.2,1.5-2.6
				c0-1.1-0.8-2.1-2.2-2.1c-1,0-1.8,0.6-2.3,1.5v-0.3c0.7-2.5,2.6-4.2,5-4.2C140.4,239,141.8,240.9,141.8,243.2z"/>
		</g>
		<g class="st1">
			<path class="st2" d="M153.8,239.3c-2.3,0.3-3.3,2.2-3.3,9.5c0,5.5,2.8,8.6,6.2,8.6c2.2,0,3.8-0.6,5.6-2v0.2
				c-2,2.5-5.7,3.5-8.2,3.5c-4.9,0-10.3-3.6-10.3-10.1c0-6.5,5.3-9.9,9.9-9.9V239.3z M162.3,243.4c0,2-1.4,3.7-3.8,3.7
				c-1.9,0-3.1-1.2-3.3-2.4c1.1-0.4,1.8-1.8,1.8-2.8c0-0.9-0.2-2.3-1.7-2.5V239C160.4,239,162.3,241.2,162.3,243.4z"/>
		</g>
		<g class="st1">
			<path class="st2" d="M165.5,241c-0.4-0.8-0.9-1.3-2.1-1.3v-0.2h10.8v0.2c-1.3,0-1.9,0.9-1.2,2.3l5,10.5l-3.3,6.2h-0.2L165.5,241z
				 M163.8,264.9c0-1.7,1.3-3,3.4-3.6c-0.1,0.3-0.2,0.7-0.2,1c0,1.5,0.8,2.6,2.3,2.6c1.3,0,2.4-1.4,3.9-3.9h0.3
				c-2.1,4-3.6,7.4-6.3,7.4C165.1,268.3,163.8,266.8,163.8,264.9z M179.6,248.7c0.7-1.2,1.1-2.9,1.1-5c0-2.1-1.2-4-3.9-4v-0.2h9.6
				v0.2c-1.3,0-1.8,0.5-2.5,1.8l-4,7.5L179.6,248.7z"/>
		</g>
		<g class="st1">
			<path class="st2" d="M196.4,239.3c-2.3,0.3-3.3,2.2-3.3,9.5c0,5.5,2.8,8.6,6.2,8.6c2.2,0,3.8-0.6,5.6-2v0.2
				c-2,2.5-5.7,3.5-8.2,3.5c-4.9,0-10.3-3.6-10.3-10.1c0-6.5,5.3-9.9,9.9-9.9V239.3z M204.9,243.4c0,2-1.4,3.7-3.8,3.7
				c-1.9,0-3.1-1.2-3.3-2.4c1.1-0.4,1.8-1.8,1.8-2.8c0-0.9-0.2-2.3-1.7-2.5V239C203,239,204.9,241.2,204.9,243.4z"/>
			<path class="st2" d="M206.9,231.9c3.6,0,6.5-0.4,9.2-1.5v26.1c0,1,0.6,2,2.9,2v0.2h-12.1v-0.2c2.3,0,2.9-1,2.9-2v-22.3
				c0-1.4-0.7-2-2.8-2V231.9z"/>
			<path class="st2" d="M221.3,249c0-6.5,4.9-9.9,9.4-9.9v0.2c-2.3,0.3-2.9,2.2-2.9,9.5c0,5.5,2.5,8.6,5.9,8.6c2.2,0,3.8-0.6,5.6-2
				v0.2c-2,2.5-5.7,3.5-8.2,3.5C226.3,259.1,221.3,255.4,221.3,249z M230,247.4c3.4,0,4.8-1.1,4.8-4.3c0-1.8-0.8-3.5-2.5-3.8V239
				c5.1,0,7.5,3.6,7.5,6.5c0,0.6-0.1,1.4-0.2,2H230V247.4z"/>
		</g>
	</g>
</g>
</svg>
