<?xml version="1.0" encoding="utf-8"?>
<!-- Generator: Adobe Illustrator 24.0.3, SVG Export Plug-In . SVG Version: 6.00 Build 0)  -->
<svg version="1.1" id="Layer_1" xmlns="http://www.w3.org/2000/svg" xmlns:xlink="http://www.w3.org/1999/xlink" x="0px" y="0px"
	 viewBox="0 0 300 600" style="enable-background:new 0 0 300 600;" xml:space="preserve">
<style type="text/css">
	.st0{enable-background:new    ;}
	.st1{fill:#263845;}
</style>
<title>Artboard 1 copy 3</title>
<g class="st0">
	<path class="st1" d="M26.2,52l0.3,0.5l0.3,16.4c0,1.7,1.2,3.3,3.8,3.3v0.2h-8.6v-0.2c2.6,0,3.8-1.6,3.8-3.3L26.2,52z M46.9,72.4
		h-4.3L26.2,48.1c-1-1.5-2.1-2-4.1-2v-0.2h10.4l14.4,21.5V72.4z M46.8,63.4L46.5,63L46,49.3c0-1.7-1.2-3.3-3.8-3.3v-0.2h8.6v0.2
		c-2.6,0-3.8,1.6-3.8,3.3L46.8,63.4z"/>
	<path class="st1" d="M68.2,45.8h7.5L60.2,72.4h-7.4L68.2,45.8z M53.9,45.8h11.8l-0.1,0.2c-5.8,0.3-10.4,4.3-11.4,9.2h-0.3V45.8z
		 M62.8,72.1C68.7,71.6,73.4,68,75,61.7h0.3v10.7H62.7L62.8,72.1z"/>
</g>
<g class="st0">
	<path class="st1" d="M86.5,47.1c0,2.3-2.4,5.3-6.3,6.9l-0.1-0.4c1.1-0.9,2.2-2.4,2.2-3.8c0-1.8-1.2-2.5-2.7-2.6
		c0.3-2.3,1.7-3.6,3.7-3.6C85.1,43.7,86.5,44.9,86.5,47.1z"/>
</g>
<g class="st0">
	<path class="st1" d="M94.5,67.7c-1.3,0-2.2,0.8-2.2,2c0,1.1,0.8,2.6,3.5,2.8v0.2c-5.2-0.2-8-1.6-8-3.9c0-1.8,1.6-2.9,3.3-2.9
		C92.7,66,93.9,66.7,94.5,67.7z M95.8,52.7c-1.4,0.3-2.8,1-2.8,2.6c0.1,4.5,12.8,5.3,12.8,11.5c0,3.8-3.2,5.8-8.2,6v-0.2
		c1.6-0.3,3.5-0.9,3.5-2.9c0-4.1-12.8-5.5-12.8-11.5c0-3.4,3.2-5.5,7.6-5.7V52.7z M105,56.5c0,1.2-0.9,2.4-2.9,2.4
		c-1.6,0-2.8-0.7-3.3-1.9c1.2-0.1,1.8-0.9,1.8-1.8c0-1.2-1.5-2.3-3-2.5v-0.2C101.9,52.7,105,54.3,105,56.5z"/>
	<path class="st1" d="M118,45.2c3.6,0,6.6-0.4,9.3-1.5v26.5c0,1,0.6,2,2.9,2v0.2H118v-0.2c2.3,0,2.9-1,2.9-2V47.5
		c0-1.4-0.7-2.1-2.9-2.1V45.2z"/>
	<path class="st1" d="M132.6,62.5c0-6.6,5-10,9.6-10.1v0.2c-2.3,0.3-2.9,2.2-2.9,9.7c0,5.6,2.5,8.7,6,8.7c2.2,0,3.9-0.6,5.7-2.1v0.2
		c-2,2.6-5.7,3.5-8.3,3.5C137.7,72.8,132.6,69.1,132.6,62.5z M141.4,60.9c3.4,0,4.9-1.1,4.9-4.4c0-1.9-0.8-3.6-2.5-3.8v-0.2
		c5.2,0,7.6,3.7,7.6,6.6c0,0.6-0.1,1.4-0.2,2h-9.8V60.9z"/>
	<path class="st1" d="M154.2,67.8c0-3.4,3.1-5.3,7.5-5.3h4.2v0.2h-1.2c-2.8,0-4.1,1.8-4.1,4.3c0,2.1,0.6,3.8,2.5,3.8
		c1.1,0,2-0.6,2.8-1.4v0.2c-1.3,1.5-3.4,3.2-6.2,3.2C156.4,72.8,154.2,70.9,154.2,67.8z M155.8,56.7c0-2,1.8-4,7.1-4.3v0.2
		c-1.6,0.2-2.5,1.5-2.5,2.8c0,1.4,1,2.3,2.5,2.4c-0.6,1.1-2.2,1.9-3.7,1.9C157,59.8,155.8,58.4,155.8,56.7z M167.1,68.3V56.4
		c0-1.9-0.7-3.4-2.7-3.7v-0.2c6.5,0.2,9.1,2.7,9.1,7.8v9.5c0,1.1,0.4,1.6,1.1,1.6c0.6,0,1.2-0.6,1.9-1.8h0.2
		c-0.6,2.1-2.7,3.2-5.1,3.2C168.5,72.8,167.1,71.7,167.1,68.3z"/>
	<path class="st1" d="M192.4,55.6v0.3c-0.9-1-2-1.4-3.2-1.4c-2,0-3.8,0.9-3.8,8c0,7,2,8.3,3.8,8.3c1.2,0,2.3-0.6,3.2-1.4v0.2
		c-1,1.6-3.4,3.2-5.7,3.2c-3.7,0-8-2.2-8-10.3c0-7.8,4.3-9.9,8-9.9C189,52.5,191.5,53.9,192.4,55.6z M200.1,69.7
		c0,1.1,0.4,1.6,1.1,1.6c0.6,0,1.2-0.6,1.9-1.8h0.2c-0.6,2.1-2.7,3.2-5.1,3.2c-3.1,0-4.5-1.1-4.5-4.4V47.5c0-1.4-0.7-2.1-2.9-2.1
		v-0.2c3.6,0,6-0.4,9.3-1.5V69.7z"/>
	<path class="st1" d="M204.8,53.9c3.6,0,6.6-0.4,9.3-1.5v17.7c0,1,0.6,2,2.9,2v0.2h-12.3v-0.2c2.3,0,2.9-1,2.9-2V56.2
		c0-1.4-0.7-2.1-2.9-2.1V53.9z M206.8,46.6c0-2,1.6-3.4,4-3.4s4,1.4,4,3.4c0,2.1-1.6,3.4-4,3.4S206.8,48.7,206.8,46.6z"/>
	<path class="st1" d="M218.7,72.1c2.3,0,2.9-1,2.9-2V56.3c0-1.4-0.7-2.1-2.9-2.1V54c3.6,0,6.6-0.4,9.3-1.5v17.7c0,1,0.6,2,2.9,2v0.2
		h-12.3V72.1z M232.5,72.1c2.3,0,2.9-1,2.9-2V58c0-2.2-1.1-3.3-3.1-3.3c-1.1,0-2,0.4-3,1.2v-0.2c1.1-1.6,3.6-3.2,6.5-3.2
		c3.5,0,6,1.6,6,5.5v12.2c0,1,0.6,2,2.9,2v0.2h-12.3V72.1z"/>
	<path class="st1" d="M247,59.5c0-5.1,4.8-7,8.7-7.1v0.2c-1.7,0.2-2.5,2.2-2.5,6.7c0,4.7,0.8,6.6,2.5,6.8v0.2
		C251.8,66.4,247,64.6,247,59.5z M257.4,81.9c3.9-0.5,5.2-2.6,5.2-4c0-5.4-15.2-0.6-15.2-7.6c0-1.6,0.8-2.8,2.6-4l0.1,0.2
		c-0.2,0.2-0.4,0.5-0.4,0.7c0,4.4,17.8-0.7,17.8,7.8c0,4-3.5,6.6-10.1,7V81.9z M247.3,78.6c0-2.3,2.8-3,5.9-3
		c-0.7,0.3-1.7,1.4-1.7,2.8c0,1.8,2,3.2,4.3,3.5v0.2C251.7,82,247.3,81.2,247.3,78.6z M257.4,66.2c1.9-0.2,2.7-2.1,2.7-6.8
		c0-4.5-0.8-6.6-2.7-6.7v-0.2c4.1,0.1,8.9,2,8.9,7.1c0,5-4.8,6.9-8.9,6.9V66.2z M259.5,51.8c0.7-2,2.5-4.7,5.1-4.7
		c2.1,0,3.3,1.1,3.3,3c0,1.9-1.7,3-3.2,3c0-1.6-0.9-2.6-2.1-2.6c-1.2,0-2.5,0.7-3,1.4L259.5,51.8z"/>
</g>
<g class="st0">
	<path class="st1" d="M35.3,111.1v0.2H22.8v-0.2c2.3,0,2.9-0.9,2.9-2V87c0-1.1-0.6-2-2.9-2v-0.2h9.6v24.3
		C32.3,110.2,32.9,111.1,35.3,111.1z M50.5,108.6c-0.6,2.1-2.9,3.2-5.8,3.2c-5.1,0-6.2-3.5-6.5-6.8c-0.2-3.2-0.5-5.7-4-6.2v-0.2
		c3.6,0,5.2-3.1,5.2-7c0-4.4-1.6-6.4-5.2-6.4v-0.2c7.9,0,11.8,1.8,11.8,6.7c0,4.2-3.1,6.8-8.9,7.1c7.1,0.3,8.2,3.1,8.6,6.3
		c0.4,3.2,1.2,5.4,2.6,5.4c0.7,0,1.3-0.6,2-1.8H50.5z"/>
</g>
<g class="st0">
	<path class="st1" d="M51.1,87.1c-0.7-1.5-1.6-2-3.5-2v-0.2h14.1v0.2c-1.8,0-3.4,1.2-2.4,3.2l7.4,15.5l-3.5,8h-0.4L51.1,87.1z
		 M68.1,100.2c2.3-5.2,2.8-8.4,2.8-10.9c0-2.8-2.4-4.3-4.4-4.3v-0.2h11.2V85c-1.8,0-2.9,1.7-4.1,4.3l-5.3,11.2L68.1,100.2z"/>
</g>
<g class="st0">
	<path class="st1" d="M86.2,93c3.6,0,6.6-0.4,9.3-1.5v17.7c0,1,0.6,2,2.9,2v0.2H86.1v-0.2c2.3,0,2.9-1,2.9-2V95.3
		c0-1.4-0.7-2.1-2.9-2.1V93z M88.2,85.6c0-2,1.6-3.4,4-3.4s4,1.4,4,3.4c0,2.1-1.6,3.4-4,3.4S88.2,87.7,88.2,85.6z"/>
	<path class="st1" d="M100.1,111.1c2.3,0,2.9-1,2.9-2V95.3c0-1.4-0.7-2.1-2.9-2.1V93c3.6,0,6.6-0.4,9.3-1.5v17.7c0,1,0.6,2,2.9,2
		v0.2h-12.3V111.1z M113.8,111.1c2.3,0,2.9-1,2.9-2V97c0-2.2-1.1-3.3-3.1-3.3c-1.1,0-2,0.4-3,1.2v-0.2c1.1-1.6,3.6-3.2,6.5-3.2
		c3.5,0,6,1.6,6,5.5v12.2c0,1,0.6,2,2.9,2v0.2h-12.3V111.1z"/>
	<path class="st1" d="M134.9,106.7c-1.3,0-2.2,0.8-2.2,2c0,1.1,0.8,2.6,3.5,2.8v0.2c-5.2-0.2-8-1.6-8-3.9c0-1.8,1.6-2.9,3.3-2.9
		C133.1,105,134.4,105.8,134.9,106.7z M136.2,91.7c-1.4,0.3-2.8,1-2.8,2.6c0.1,4.5,12.8,5.3,12.8,11.5c0,3.8-3.2,5.8-8.2,6v-0.2
		c1.6-0.3,3.5-0.9,3.5-2.9c0-4.1-12.8-5.5-12.8-11.5c0-3.4,3.2-5.5,7.6-5.7V91.7z M145.4,95.5c0,1.2-0.9,2.4-2.9,2.4
		c-1.6,0-2.8-0.7-3.3-1.9c1.2-0.1,1.8-0.9,1.8-1.8c0-1.2-1.5-2.3-3-2.5v-0.2C142.4,91.7,145.4,93.3,145.4,95.5z"/>
	<path class="st1" d="M157.7,106.3c0,2.2,0.7,3.3,2.7,3.3c1,0,1.8-0.3,2.7-1.2v0.2c-0.9,1.7-2.9,3.2-6,3.2c-3.5,0-5.8-1.6-5.8-5.5
		v-11c0-1.4-0.7-2.1-2.9-2.1V93c3.6,0,6.6-0.4,9.3-1.5V106.3z M170.7,108.8c0,1.1,0.4,1.6,1.1,1.6c0.6,0,1.2-0.6,1.9-1.8h0.2
		c-0.6,2.1-2.7,3.2-5.3,3.2c-2.7,0-4.3-1.6-4.3-3.8V95.3c0-1.4-0.7-2.1-2.8-2.1V93c3.5,0,5.9-0.4,9.2-1.5V108.8z"/>
</g>
<g class="st0">
	<path class="st1" d="M184.8,109.1c0,1,0.6,2,2.9,2v0.2h-12.3v-0.2c2.3,0,2.9-1,2.9-2V95.3c0-1.4-0.7-2.1-2.9-2.1V93
		c3.6,0,6.6-0.4,9.3-1.5V109.1z M195.3,95.7c0,2.7-1.9,4.4-4,4.4c-0.9,0-1.8-0.2-2.2-0.9c0.7-0.4,1.5-1.2,1.5-2.7
		c0-1.1-0.8-2.1-2.2-2.1c-1,0-1.8,0.6-2.3,1.5v-0.3c0.7-2.5,2.7-4.2,5.1-4.2C193.8,91.5,195.3,93.3,195.3,95.7z"/>
</g>
<g class="st0">
	<path class="st1" d="M197,106.8c0-3.4,3.1-5.3,7.5-5.3h4.2v0.2h-1.2c-2.8,0-4.1,1.8-4.1,4.3c0,2.1,0.6,3.8,2.5,3.8
		c1.1,0,2-0.6,2.8-1.4v0.2c-1.3,1.5-3.4,3.2-6.2,3.2C199.1,111.8,196.9,109.9,197,106.8z M198.5,95.7c0-2,1.8-4,7.1-4.3v0.2
		c-1.6,0.2-2.5,1.5-2.5,2.8c0,1.4,1,2.3,2.5,2.4c-0.6,1.1-2.2,1.9-3.7,1.9C199.8,98.8,198.5,97.4,198.5,95.7z M209.8,107.4V95.4
		c0-1.9-0.7-3.4-2.7-3.7v-0.2c6.5,0.2,9.1,2.7,9.1,7.8v9.5c0,1.1,0.4,1.6,1.1,1.6c0.6,0,1.2-0.6,1.9-1.8h0.2
		c-0.6,2.1-2.7,3.2-5.1,3.2C211.2,111.8,209.8,110.7,209.8,107.4z"/>
	<path class="st1" d="M220.6,111.1c2.3,0,2.9-1,2.9-2V95.3c0-1.4-0.7-2.1-2.9-2.1V93c3.6,0,6.6-0.4,9.3-1.5v17.7c0,1,0.6,2,2.9,2
		v0.2h-12.3V111.1z M234.4,111.1c2.3,0,2.9-1,2.9-2V97c0-2.2-1.1-3.3-3.1-3.3c-1.1,0-2,0.4-3,1.2v-0.2c1.1-1.6,3.6-3.2,6.5-3.2
		c3.5,0,6,1.6,6,5.5v12.2c0,1,0.6,2,2.9,2v0.2h-12.3V111.1z"/>
	<path class="st1" d="M258.7,91.7c-2.3,0.3-3.3,2.2-3.3,9.7c0,5.6,2.8,8.7,6.3,8.7c2.2,0,3.9-0.6,5.7-2.1v0.2
		c-2,2.6-5.7,3.5-8.3,3.5c-5,0-10.4-3.7-10.4-10.2s5.4-10,10-10.1V91.7z M267.4,95.9c0,2.1-1.4,3.7-3.9,3.7c-1.9,0-3.2-1.2-3.4-2.5
		c1.1-0.4,1.9-1.8,1.9-2.8c0-0.9-0.2-2.3-1.7-2.6v-0.3C265.4,91.5,267.4,93.7,267.4,95.9z"/>
	<path class="st1" d="M270.3,101.5c0-6.6,5-10,9.6-10.1v0.2c-2.3,0.3-2.9,2.2-2.9,9.7c0,5.6,2.5,8.7,6,8.7c2.2,0,3.9-0.6,5.7-2.1
		v0.2c-2,2.6-5.7,3.5-8.3,3.5C275.3,111.8,270.3,108.1,270.3,101.5z M279.1,99.9c3.4,0,4.9-1.1,4.9-4.4c0-1.9-0.8-3.6-2.5-3.8v-0.2
		c5.2,0,7.6,3.7,7.6,6.6c0,0.6-0.1,1.4-0.2,2h-9.8V99.9z"/>
</g>
<g class="st0">
	<path class="st1" d="M31,156.3c0,1.4,0.7,2.1,2.9,2.1v0.2c-3.6,0-6,0.4-9.3,1.5v-25.9c0-1.4-0.7-2.1-2.9-2.1V132
		c3.6,0,6-0.4,9.3-1.5V156.3z M45.9,140.4c0,8.2-4.3,10.3-8,10.3c-2.2,0-4.7-1.5-5.7-3.2v-0.2c1,0.7,2,1.4,3.3,1.4
		c1.8,0,3.8-1.3,3.8-8.3c0-7.1-1.8-8-3.8-8c-1.2,0-2.4,0.5-3.3,1.4v-0.3c1-1.6,3.5-3.1,5.7-3.1C41.7,130.5,45.9,132.7,45.9,140.4z"
		/>
	<path class="st1" d="M59,130.7c-2.3,0.3-3.1,2.2-3.1,9.8c0,7.3,0.8,9.8,3.1,10v0.2c-4.5,0-9.7-3.7-9.7-10.2s5.2-10,9.7-10.1V130.7z
		 M70.3,140.5c0,6.5-5.2,10.2-9.7,10.2v-0.2c2.3-0.2,3-2.7,3-10c0-7.6-0.8-9.6-3-9.8v-0.2C65.1,130.5,70.3,133.9,70.3,140.5z"/>
	<path class="st1" d="M72.7,123.2c3.6,0,6.6-0.4,9.3-1.5v26.5c0,1,0.6,2,2.9,2v0.2H72.6v-0.2c2.3,0,2.9-1,2.9-2v-22.6
		c0-1.4-0.7-2.1-2.9-2.1V123.2z"/>
	<path class="st1" d="M86.6,132c3.6,0,6.6-0.4,9.3-1.5v17.7c0,1,0.6,2,2.9,2v0.2H86.6v-0.2c2.3,0,2.9-1,2.9-2v-13.9
		c0-1.4-0.7-2.1-2.9-2.1V132z M88.6,124.6c0-2,1.6-3.4,4-3.4c2.3,0,4,1.4,4,3.4c0,2.1-1.6,3.4-4,3.4
		C90.2,128.1,88.6,126.7,88.6,124.6z"/>
	<path class="st1" d="M111.2,130.7c-2.3,0.3-3.3,2.2-3.3,9.7c0,5.6,2.8,8.7,6.3,8.7c2.2,0,3.9-0.6,5.7-2.1v0.2
		c-2,2.6-5.7,3.5-8.3,3.5c-5,0-10.4-3.7-10.4-10.2s5.4-10,10-10.1V130.7z M119.9,134.9c0,2.1-1.4,3.7-3.9,3.7
		c-1.9,0-3.2-1.2-3.4-2.5c1.1-0.4,1.9-1.8,1.9-2.8c0-0.9-0.2-2.3-1.7-2.6v-0.3C117.9,130.5,119.9,132.7,119.9,134.9z"/>
</g>
<g class="st0">
	<path class="st1" d="M123.1,132.5c-0.4-0.8-0.9-1.4-2.1-1.4v-0.2h10.9v0.2c-1.4,0-1.9,0.9-1.2,2.3l5.1,10.7l-3.4,6.3h-0.2
		L123.1,132.5z M121.4,156.7c0-1.7,1.3-3.1,3.4-3.7c-0.1,0.4-0.2,0.7-0.2,1c0,1.5,0.8,2.6,2.3,2.6c1.4,0,2.5-1.4,3.9-3.9h0.3
		c-2.1,4-3.6,7.5-6.4,7.5C122.6,160.1,121.4,158.6,121.4,156.7z M137.4,140.2c0.7-1.2,1.1-2.9,1.1-5c0-2.1-1.2-4.1-4-4.1v-0.2h9.7
		v0.2c-1.3,0-1.8,0.5-2.5,1.8l-4.1,7.6L137.4,140.2z"/>
</g>
</svg>
