<svg id="Layer_1" data-name="Layer 1" xmlns="http://www.w3.org/2000/svg" viewBox="0 0 300 600"><defs><style>.cls-1{fill:#fff;}</style></defs><title>Artboard 1 copy 2</title><path class="cls-1" d="M31.5,72.64c2.1,0,2.63-.81,2.63-1.79V51c0-1-.53-1.79-2.63-1.79V49h8.58V70.85c0,1,.53,1.79,2.63,1.79v.21H31.5ZM41.83,49.25V49h9.63v7h-.28C49.57,51.07,47.15,49.6,41.83,49.25Zm1.93,11.9L41.83,61v-.21l1.93-.18a5.38,5.38,0,0,0,4.62-3h.28v6.51h-.28A5.35,5.35,0,0,0,43.76,61.15Z"/><path class="cls-1" d="M61.64,70.85c0,.88.53,1.79,2.63,1.79v.21h-11v-.21c2.1,0,2.63-.91,2.63-1.79V58.42c0-1.26-.6-1.85-2.6-1.85v-.21A21.32,21.32,0,0,0,61.64,55Zm9.45-12.08a3.74,3.74,0,0,1-3.6,4,2.39,2.39,0,0,1-2-.77,2.55,2.55,0,0,0,1.37-2.38,1.86,1.86,0,0,0-2-1.89,2.41,2.41,0,0,0-2.1,1.33v-.28A4.84,4.84,0,0,1,67.35,55,3.55,3.55,0,0,1,71.09,58.77Z"/><path class="cls-1" d="M81.7,55.2c-2.07.25-2.77,2-2.77,8.82,0,6.59.7,8.76,2.77,9v.21A8.92,8.92,0,0,1,73,64a8.78,8.78,0,0,1,8.72-9ZM91.78,64A8.93,8.93,0,0,1,83.1,73.2V73c2.06-.21,2.73-2.42,2.73-9,0-6.86-.7-8.61-2.73-8.82V55A8.72,8.72,0,0,1,91.78,64Z"/><path class="cls-1" d="M102.48,70.85c0,.88.53,1.79,2.63,1.79v.21h-11v-.21c2.1,0,2.63-.91,2.63-1.79V58.42c0-1.26-.6-1.85-2.59-1.85v-.21A21.3,21.3,0,0,0,102.48,55Zm11.63-10.92V70.85c0,.88.49,1.79,2.59,1.79v.21h-11v-.21c2.07,0,2.63-.91,2.63-1.79V59.93c0-2-.77-3-2.45-3a3.07,3.07,0,0,0-2.31,1v-.21a5.65,5.65,0,0,1,5.11-2.8C112,55,114.11,56.46,114.11,59.93Zm11.58,0V70.85c0,.88.53,1.79,2.63,1.79v.21h-11v-.21c2.07,0,2.63-.91,2.63-1.79V59.93c0-2-.77-3-2.45-3a3.07,3.07,0,0,0-2.31,1v-.21a5.65,5.65,0,0,1,5.11-2.8C123.59,55,125.69,56.46,125.69,59.93Z"/><path class="cls-1" d="M37.56,107.68a1.79,1.79,0,0,0-2,1.75c0,1,.7,2.31,3.12,2.56v.21c-4.66-.18-7.22-1.44-7.22-3.47a2.73,2.73,0,0,1,3-2.59A3.57,3.57,0,0,1,37.56,107.68ZM38.72,94.2c-1.3.25-2.56.91-2.53,2.35.11,4.06,11.45,4.72,11.45,10.29,0,3.4-2.87,5.18-7.38,5.36V112c1.47-.25,3.11-.77,3.11-2.59,0-3.65-11.48-5-11.48-10.3,0-3.08,2.91-4.93,6.83-5.11ZM47,97.6a2.29,2.29,0,0,1-2.59,2.17,3,3,0,0,1-3-1.68A1.57,1.57,0,0,0,43,96.44c0-1-1.33-2.06-2.73-2.24V94C44.21,94.2,47,95.64,47,97.6Z"/><path class="cls-1" d="M58,117.17c0,1.26.6,1.85,2.6,1.85v.21a22.85,22.85,0,0,0-8.37,1.37V97.39c0-1.26-.6-1.86-2.59-1.86v-.21A23,23,0,0,0,58,94Zm13.34-14.25c0,7.32-3.85,9.28-7.17,9.28a6.58,6.58,0,0,1-5.12-2.84v-.21A4.9,4.9,0,0,0,62,110.38c1.65,0,3.4-1.16,3.4-7.46s-1.64-7.14-3.4-7.14a4,4,0,0,0-2.94,1.29v-.28A6.55,6.55,0,0,1,64.2,94C67.59,94,71.37,96,71.37,102.92Z"/><path class="cls-1" d="M74.45,103A8.67,8.67,0,0,1,83,94v.21c-2.06.25-2.62,2-2.62,8.68,0,5.05,2.24,7.81,5.36,7.81a7.66,7.66,0,0,0,5.11-1.85v.21c-1.82,2.31-5.15,3.15-7.43,3.15A8.87,8.87,0,0,1,74.45,103Zm7.87-1.47c3.09,0,4.38-1,4.38-3.92,0-1.68-.7-3.22-2.27-3.43V94c4.62,0,6.86,3.29,6.86,6a9.85,9.85,0,0,1-.18,1.82H82.32Z"/><path class="cls-1" d="M103.11,94.2c-2.06.25-3,2-3,8.68,0,5.05,2.55,7.81,5.67,7.81a7.66,7.66,0,0,0,5.11-1.85v.21c-1.82,2.31-5.15,3.15-7.42,3.15A9.16,9.16,0,0,1,94.15,103a9,9,0,0,1,9-9ZM110.89,98a3.26,3.26,0,0,1-3.51,3.36,3,3,0,0,1-3-2.21A3,3,0,0,0,106,96.55a2.07,2.07,0,0,0-1.51-2.31V94C109.1,94,110.89,96,110.89,98Z"/><path class="cls-1" d="M113,95.32A21.49,21.49,0,0,0,121.31,94v15.89c0,.88.53,1.79,2.63,1.79v.21h-11v-.21c2.1,0,2.63-.91,2.63-1.79V97.39c0-1.26-.6-1.86-2.59-1.86Zm1.78-6.58c0-1.82,1.47-3,3.57-3s3.57,1.22,3.57,3-1.47,3.08-3.57,3.08S114.73,90.6,114.73,88.74Z"/><path class="cls-1" d="M125.69,107.72c0-3,2.8-4.77,6.72-4.77h3.78v.21h-1.05c-2.52,0-3.71,1.65-3.71,3.82,0,1.93.56,3.4,2.2,3.4a3.86,3.86,0,0,0,2.56-1.23v.21a7.46,7.46,0,0,1-5.57,2.84C127.65,112.2,125.65,110.52,125.69,107.72Zm1.4-9.91c0-1.79,1.61-3.61,6.37-3.82v.21a2.56,2.56,0,0,0-2.24,2.56c0,1.26.87,2,2.27,2.13a3.93,3.93,0,0,1-3.36,1.68A2.8,2.8,0,0,1,127.09,97.81Zm10.15,10.43V97.53c0-1.72-.67-3.08-2.38-3.33V94c5.81.21,8.12,2.42,8.12,7v8.51c0,1,.35,1.44,1,1.44s1.12-.53,1.68-1.58h.21c-.56,1.93-2.45,2.84-4.55,2.84C138.5,112.2,137.24,111.22,137.24,108.24Z"/><path class="cls-1" d="M146.76,87.48a21.49,21.49,0,0,0,8.36-1.36v23.73c0,.88.53,1.79,2.63,1.79v.21h-11v-.21c2.1,0,2.63-.91,2.63-1.79V89.55c0-1.26-.6-1.86-2.59-1.86Z"/><path class="cls-1" d="M159.29,95.32A21.49,21.49,0,0,0,167.65,94v15.89c0,.88.53,1.79,2.63,1.79v.21h-11v-.21c2.1,0,2.63-.91,2.63-1.79V97.39c0-1.26-.6-1.86-2.59-1.86Zm1.78-6.58c0-1.82,1.47-3,3.57-3s3.57,1.22,3.57,3-1.47,3.08-3.57,3.08S161.07,90.6,161.07,88.74Z"/><path class="cls-1" d="M178.47,107.68a1.79,1.79,0,0,0-2,1.75c0,1,.7,2.31,3.11,2.56v.21c-4.65-.18-7.21-1.44-7.21-3.47a2.73,2.73,0,0,1,3-2.59A3.58,3.58,0,0,1,178.47,107.68Zm1.15-13.48c-1.29.25-2.55.91-2.52,2.35.11,4.06,11.45,4.72,11.45,10.29,0,3.4-2.87,5.18-7.39,5.36V112c1.47-.25,3.12-.77,3.12-2.59,0-3.65-11.48-5-11.48-10.3,0-3.08,2.9-4.93,6.82-5.11Zm8.26,3.4a2.29,2.29,0,0,1-2.59,2.17,3,3,0,0,1-3-1.68,1.55,1.55,0,0,0,1.57-1.65c0-1-1.33-2.06-2.73-2.24V94C185.12,94.2,187.88,95.64,187.88,97.6Z"/><path class="cls-1" d="M204.44,109.15v.21a7.33,7.33,0,0,1-6,2.84c-3.15,0-5.39-1.44-5.39-4.94V95.78h-1.82l.39-.53h1.43V91.47a8.8,8.8,0,0,0,5.74-2v5.74h4.73l-.39.53H198.8v11.59c0,1.75.67,3.57,2.31,3.57A5.17,5.17,0,0,0,204.44,109.15Z"/><path class="cls-1" d="M212,107.68a1.79,1.79,0,0,0-2,1.75c0,1,.7,2.31,3.11,2.56v.21c-4.65-.18-7.21-1.44-7.21-3.47a2.73,2.73,0,0,1,3-2.59A3.58,3.58,0,0,1,212,107.68Zm1.15-13.48c-1.29.25-2.55.91-2.52,2.35.11,4.06,11.45,4.72,11.45,10.29,0,3.4-2.87,5.18-7.39,5.36V112c1.47-.25,3.12-.77,3.12-2.59,0-3.65-11.48-5-11.48-10.3,0-3.08,2.9-4.93,6.82-5.11Zm8.26,3.4a2.29,2.29,0,0,1-2.59,2.17,3,3,0,0,1-3-1.68,1.55,1.55,0,0,0,1.57-1.65c0-1-1.33-2.06-2.73-2.24V94C218.65,94.2,221.41,95.64,221.41,97.6Z"/><path class="cls-1" d="M232.65,109.12c0,2.45-2.63,5.7-6.9,7.45l-.14-.35a5.93,5.93,0,0,0,2.45-4.16,2.68,2.68,0,0,0-2.9-2.8c.35-2.49,1.82-3.86,4-3.86A3.42,3.42,0,0,1,232.65,109.12Z"/><path class="cls-1" d="M40.4,151v.21a13.31,13.31,0,0,1-6.8-1.72l-1.15,1.72h-.28v-8.55h.28A11.74,11.74,0,0,0,40.4,151Zm10.29-7c0,4.52-3.36,7-8.79,7.18V151c1.93-.35,3.82-1.47,3.82-3.57,0-6.13-13.37-6.69-13.37-13.8,0-4.2,3.39-6.61,8-6.93v.21c-1.61.28-3.09,1.3-3.09,3.22C37.31,136.25,50.69,136.91,50.69,144ZM41.9,126.9v-.21a11.28,11.28,0,0,1,6.3,1.86l1.26-1.86h.28v7.81h-.28A11.14,11.14,0,0,0,41.9,126.9Z"/><path class="cls-1" d="M66.65,148.15v.21a7.33,7.33,0,0,1-6,2.84c-3.15,0-5.39-1.44-5.39-4.94V134.78H53.45l.38-.53h1.44v-3.78a8.82,8.82,0,0,0,5.74-2v5.74h4.73l-.39.53H61v11.59c0,1.75.67,3.57,2.31,3.57A5.17,5.17,0,0,0,66.65,148.15Z"/><path class="cls-1" d="M67.76,146.72c0-3.05,2.8-4.77,6.72-4.77h3.78v.21h-1A3.47,3.47,0,0,0,73.5,146c0,1.93.56,3.4,2.21,3.4a3.81,3.81,0,0,0,2.55-1.23v.21a7.42,7.42,0,0,1-5.56,2.84C69.72,151.2,67.73,149.52,67.76,146.72Zm1.4-9.91c0-1.79,1.61-3.61,6.37-3.82v.21a2.57,2.57,0,0,0-2.24,2.56c0,1.26.88,2,2.28,2.13a3.94,3.94,0,0,1-3.36,1.68A2.8,2.8,0,0,1,69.16,136.81Zm10.15,10.43V136.53c0-1.72-.66-3.08-2.38-3.33V133c5.82.21,8.13,2.42,8.13,7v8.51c0,1,.35,1.44,1,1.44s1.12-.53,1.68-1.58h.21c-.56,1.93-2.45,2.84-4.55,2.84C80.58,151.2,79.31,150.22,79.31,147.24Z"/><path class="cls-1" d="M97.41,148.85c0,.88.52,1.79,2.62,1.79v.21H89v-.21c2.1,0,2.62-.91,2.62-1.79V136.42c0-1.26-.59-1.85-2.59-1.85v-.21A21.36,21.36,0,0,0,97.41,133Zm9.45-12.08a3.74,3.74,0,0,1-3.6,4,2.38,2.38,0,0,1-2-.77,2.54,2.54,0,0,0,1.36-2.38,1.86,1.86,0,0,0-2-1.89,2.42,2.42,0,0,0-2.1,1.33v-.28a4.85,4.85,0,0,1,4.55-3.78A3.55,3.55,0,0,1,106.86,136.77Z"/><path class="cls-1" d="M52.79,185.68l.14.28a9.61,9.61,0,0,1-8.44,4.24c-5.7,0-12.81-4.06-12.81-12.22,0-8.86,6.93-12.15,12-12.29v.21c-2.45.53-5.11,2.84-5.11,11.83s3.61,11.07,7.56,11.07A8.58,8.58,0,0,0,52.79,185.68Zm.28-20v8.51h-.28c-1.37-4.66-4-7.35-7.39-8.3v-.21c3.05.14,4.9.67,6.34,1.61l1-1.61Z"/><path class="cls-1" d="M55.72,185.72c0-3.05,2.8-4.77,6.72-4.77h3.78v.21h-1A3.47,3.47,0,0,0,61.46,185c0,1.93.56,3.4,2.21,3.4a3.81,3.81,0,0,0,2.55-1.23v.21a7.42,7.42,0,0,1-5.56,2.84C57.68,190.2,55.69,188.52,55.72,185.72Zm1.4-9.91c0-1.79,1.61-3.61,6.37-3.82v.21a2.57,2.57,0,0,0-2.24,2.56c0,1.26.88,2,2.28,2.13a3.93,3.93,0,0,1-3.36,1.68A2.8,2.8,0,0,1,57.12,175.81Zm10.15,10.43V175.53c0-1.72-.66-3.08-2.38-3.33V172c5.82.21,8.13,2.42,8.13,7v8.51c0,1,.35,1.44,1,1.44s1.12-.53,1.68-1.58h.21c-.56,1.93-2.45,2.84-4.55,2.84C68.54,190.2,67.27,189.22,67.27,186.24Z"/><path class="cls-1" d="M85.37,187.85c0,.88.52,1.79,2.62,1.79v.21H77v-.21c2.1,0,2.62-.91,2.62-1.79V175.42c0-1.26-.59-1.85-2.59-1.85v-.21A21.36,21.36,0,0,0,85.37,172ZM97,176.93v10.92c0,.88.49,1.79,2.59,1.79v.21h-11v-.21c2.06,0,2.63-.91,2.63-1.79V176.93c0-2-.78-3-2.46-3A3.08,3.08,0,0,0,86.45,175v-.21a5.67,5.67,0,0,1,5.11-2.8C94.89,172,97,173.46,97,176.93Zm11.59,0v10.92c0,.88.52,1.79,2.62,1.79v.21h-11v-.21c2.06,0,2.62-.91,2.62-1.79V176.93c0-2-.77-3-2.45-3A3.08,3.08,0,0,0,98,175v-.21a5.67,5.67,0,0,1,5.11-2.8C106.48,172,108.58,173.46,108.58,176.93Z"/><path class="cls-1" d="M120.54,195.17c0,1.26.6,1.85,2.6,1.85v.21a22.85,22.85,0,0,0-8.37,1.37V175.39c0-1.26-.6-1.86-2.59-1.86v-.21a23,23,0,0,0,8.36-1.36Zm13.34-14.25c0,7.32-3.85,9.28-7.17,9.28a6.58,6.58,0,0,1-5.12-2.84v-.21a4.9,4.9,0,0,0,2.94,1.23c1.65,0,3.4-1.16,3.4-7.46s-1.64-7.14-3.4-7.14a4,4,0,0,0-2.94,1.29v-.28a6.55,6.55,0,0,1,5.12-2.8C130.1,172,133.88,174,133.88,180.92Z"/><path class="cls-1" d="M137,181a8.67,8.67,0,0,1,8.57-9v.21c-2.06.25-2.62,2-2.62,8.68,0,5.05,2.24,7.81,5.35,7.81a7.62,7.62,0,0,0,5.11-1.85v.21c-1.82,2.31-5.14,3.15-7.42,3.15A8.87,8.87,0,0,1,137,181Zm7.87-1.47c3.08,0,4.38-1,4.38-3.92,0-1.68-.7-3.22-2.28-3.43V172c4.62,0,6.86,3.29,6.86,5.95a10.8,10.8,0,0,1-.17,1.82h-8.79Z"/><path class="cls-1" d="M164.43,187.85c0,.88.53,1.79,2.63,1.79v.21H156v-.21c2.1,0,2.63-.91,2.63-1.79V175.42c0-1.26-.6-1.85-2.59-1.85v-.21a21.3,21.3,0,0,0,8.36-1.37Zm9.46-12.08a3.75,3.75,0,0,1-3.61,4,2.39,2.39,0,0,1-2-.77,2.55,2.55,0,0,0,1.37-2.38,1.86,1.86,0,0,0-2-1.89,2.41,2.41,0,0,0-2.1,1.33v-.28a4.84,4.84,0,0,1,4.55-3.78A3.56,3.56,0,0,1,173.89,175.77Z"/><path class="cls-1" d="M197.3,185.68l.14.28A9.61,9.61,0,0,1,189,190.2c-5.7,0-12.81-4.06-12.81-12.22,0-8.86,6.93-12.15,12-12.29v.21c-2.45.53-5.11,2.84-5.11,11.83s3.61,11.07,7.56,11.07A8.58,8.58,0,0,0,197.3,185.68Zm.28-20v8.51h-.28c-1.37-4.66-4-7.35-7.39-8.3v-.21c3.05.14,4.9.67,6.34,1.61l1.05-1.61Z"/><path class="cls-1" d="M200.24,185.72c0-3.05,2.8-4.77,6.72-4.77h3.78v.21h-1.05c-2.52,0-3.71,1.65-3.71,3.82,0,1.93.56,3.4,2.2,3.4a3.86,3.86,0,0,0,2.56-1.23v.21a7.46,7.46,0,0,1-5.57,2.84C202.2,190.2,200.2,188.52,200.24,185.72Zm1.4-9.91c0-1.79,1.61-3.61,6.37-3.82v.21a2.56,2.56,0,0,0-2.24,2.56c0,1.26.87,2,2.27,2.13a3.93,3.93,0,0,1-3.36,1.68A2.8,2.8,0,0,1,201.64,175.81Zm10.15,10.43V175.53c0-1.72-.67-3.08-2.38-3.33V172c5.81.21,8.12,2.42,8.12,7v8.51c0,1,.35,1.44,1,1.44s1.12-.53,1.68-1.58h.21c-.56,1.93-2.45,2.84-4.55,2.84C213.05,190.2,211.79,189.22,211.79,186.24Z"/><path class="cls-1" d="M229.88,187.85c0,.88.53,1.79,2.63,1.79v.21h-11v-.21c2.1,0,2.63-.91,2.63-1.79V175.42c0-1.26-.6-1.85-2.59-1.85v-.21a21.3,21.3,0,0,0,8.36-1.37Zm9.45-12.08a3.74,3.74,0,0,1-3.6,4,2.39,2.39,0,0,1-2-.77,2.55,2.55,0,0,0,1.37-2.38,1.86,1.86,0,0,0-2-1.89,2.41,2.41,0,0,0-2.1,1.33v-.28a4.84,4.84,0,0,1,4.55-3.78A3.55,3.55,0,0,1,239.33,175.77Z"/><path class="cls-1" d="M241.22,181a8.67,8.67,0,0,1,8.58-9v.21c-2.07.25-2.63,2-2.63,8.68,0,5.05,2.24,7.81,5.36,7.81a7.66,7.66,0,0,0,5.11-1.85v.21c-1.82,2.31-5.15,3.15-7.42,3.15A8.88,8.88,0,0,1,241.22,181Zm7.88-1.47c3.08,0,4.37-1,4.37-3.92,0-1.68-.7-3.22-2.27-3.43V172c4.62,0,6.86,3.29,6.86,5.95a9.85,9.85,0,0,1-.18,1.82H249.1Z"/></svg>