<svg id="Layer_1" data-name="Layer 1" xmlns="http://www.w3.org/2000/svg" viewBox="0 0 300 600"><defs><style>.cls-1{fill:#fff;}</style></defs><title>Artboard 1 copy 4</title><path class="cls-1" d="M52.79,107.68l.14.28a9.61,9.61,0,0,1-8.44,4.24c-5.7,0-12.81-4.06-12.81-12.22,0-8.86,6.93-12.15,12-12.29v.21c-2.45.53-5.11,2.84-5.11,11.83s3.61,11.07,7.56,11.07A8.58,8.58,0,0,0,52.79,107.68Zm.28-20V96.2h-.28c-1.37-4.66-4-7.35-7.39-8.3v-.21c3.05.14,4.9.67,6.34,1.61l1-1.61Z"/><path class="cls-1" d="M55.72,107.72c0-3,2.8-4.77,6.73-4.77h3.78v.21h-1A3.48,3.48,0,0,0,61.46,107c0,1.93.57,3.4,2.21,3.4a3.86,3.86,0,0,0,2.56-1.23v.21a7.46,7.46,0,0,1-5.57,2.84C57.68,112.2,55.69,110.52,55.72,107.72Zm1.4-9.91c0-1.79,1.62-3.61,6.38-3.82v.21a2.57,2.57,0,0,0-2.25,2.56c0,1.26.88,2,2.28,2.13a3.94,3.94,0,0,1-3.36,1.68A2.81,2.81,0,0,1,57.12,97.81Zm10.16,10.43V97.53c0-1.72-.67-3.08-2.38-3.33V94c5.81.21,8.12,2.42,8.12,7v8.51c0,1,.35,1.44,1,1.44s1.12-.53,1.68-1.58h.21c-.56,1.93-2.45,2.84-4.55,2.84C68.54,112.2,67.28,111.22,67.28,108.24Z"/><path class="cls-1" d="M76.79,87.48a21.54,21.54,0,0,0,8.37-1.36v23.73c0,.88.52,1.79,2.63,1.79v.21h-11v-.21c2.1,0,2.62-.91,2.62-1.79V89.55c0-1.26-.59-1.86-2.59-1.86Z"/><path class="cls-1" d="M89.08,87.48a21.58,21.58,0,0,0,8.37-1.36v23.73c0,.88.52,1.79,2.62,1.79v.21H89v-.21c2.1,0,2.63-.91,2.63-1.79V89.55c0-1.26-.6-1.86-2.59-1.86Z"/><path class="cls-1" d="M110.18,95.78a1.89,1.89,0,0,0-1.92-1.23v-.21h9.8v.21c-1.23,0-1.71.84-1.12,2.07l4.59,9.56-3,5.67h-.21Zm-1.54,21.7c0-1.5,1.19-2.76,3.08-3.29a2.87,2.87,0,0,0-.14.88,2.05,2.05,0,0,0,2.07,2.34c1.22,0,2.21-1.29,3.54-3.53h.24c-1.93,3.6-3.26,6.72-5.71,6.72A2.91,2.91,0,0,1,108.64,117.48ZM123,102.74a9.64,9.64,0,0,0,1-4.51,3.39,3.39,0,0,0-3.57-3.68v-.21h8.71v.21c-1.15,0-1.61.46-2.27,1.65l-3.64,6.86Z"/><path class="cls-1" d="M138,94.2c-2.06.25-2.76,2-2.76,8.82,0,6.59.7,8.76,2.76,9v.21a8.93,8.93,0,0,1-8.72-9.18A8.78,8.78,0,0,1,138,94ZM148.09,103a8.92,8.92,0,0,1-8.68,9.18V112c2.07-.21,2.73-2.42,2.73-9,0-6.86-.7-8.61-2.73-8.82V94A8.72,8.72,0,0,1,148.09,103Z"/><path class="cls-1" d="M158.41,107.26c0,2,.67,3,2.42,3a3.1,3.1,0,0,0,2.42-1.09v.21a5.85,5.85,0,0,1-5.43,2.84c-3.15,0-5.18-1.47-5.18-4.94V97.42c0-1.26-.6-1.85-2.59-1.85v-.21A21.3,21.3,0,0,0,158.41,94Zm11.66,2.24c0,1,.32,1.44,1,1.44s1.12-.53,1.68-1.58h.21c-.56,1.93-2.45,2.84-4.76,2.84s-3.86-1.4-3.86-3.43V97.42c0-1.26-.59-1.85-2.48-1.85v-.21A22.65,22.65,0,0,0,170.07,94Z"/><path class="cls-1" d="M182.71,109.85c0,.88.52,1.79,2.62,1.79v.21h-11v-.21c2.1,0,2.63-.91,2.63-1.79V97.42c0-1.26-.6-1.85-2.59-1.85v-.21A21.39,21.39,0,0,0,182.71,94Zm9.45-12.08a3.75,3.75,0,0,1-3.61,4,2.37,2.37,0,0,1-2-.77,2.56,2.56,0,0,0,1.36-2.38,1.86,1.86,0,0,0-2-1.89,2.42,2.42,0,0,0-2.1,1.33v-.28A4.85,4.85,0,0,1,188.41,94,3.55,3.55,0,0,1,192.16,97.77Z"/><path class="cls-1" d="M38.65,146.44c0,3.32-2.28,4.76-5.78,4.76V128.55c0-1.26-.63-1.86-2.62-1.86v-.21a23.26,23.26,0,0,0,8.4-1.36ZM52,141.92c0,7.32-3.88,9.28-7.21,9.28a6.49,6.49,0,0,1-5.07-2.84v-.21a4.76,4.76,0,0,0,2.9,1.23c1.65,0,3.43-1.16,3.43-7.46s-1.68-7.14-3.43-7.14a3.86,3.86,0,0,0-2.9,1.29v-.28a6.45,6.45,0,0,1,5.07-2.8C48.17,133,52,135,52,141.92Z"/><path class="cls-1" d="M62.83,148.85c0,.88.53,1.79,2.63,1.79v.21h-11v-.21c2.1,0,2.63-.91,2.63-1.79V136.42c0-1.26-.6-1.85-2.6-1.85v-.21A21.32,21.32,0,0,0,62.83,133Zm9.45-12.08a3.74,3.74,0,0,1-3.6,4,2.39,2.39,0,0,1-2-.77,2.55,2.55,0,0,0,1.37-2.38,1.86,1.86,0,0,0-2-1.89,2.41,2.41,0,0,0-2.1,1.33v-.28A4.84,4.84,0,0,1,68.54,133,3.55,3.55,0,0,1,72.28,136.77Z"/><path class="cls-1" d="M82.89,133.2c-2.07.25-2.77,2-2.77,8.82,0,6.59.7,8.76,2.77,9v.21A8.92,8.92,0,0,1,74.17,142a8.78,8.78,0,0,1,8.72-9ZM93,142a8.93,8.93,0,0,1-8.68,9.18V151c2.06-.21,2.73-2.42,2.73-9,0-6.86-.7-8.61-2.73-8.82V133A8.72,8.72,0,0,1,93,142Z"/><path class="cls-1" d="M106.09,150.64v.21h-11v-.21c2.1,0,2.63-.91,2.63-1.79v-20.3c0-1.26-.6-1.86-2.59-1.86v-.21a21.49,21.49,0,0,0,8.36-1.36v23.73C103.46,149.73,104,150.64,106.09,150.64Zm11.87,0v.21a13.81,13.81,0,0,1-3.5.35,6.61,6.61,0,0,1-6.34-3.4l-3.29-5.5c2.76-2.41,5.36-5.35,5.36-7.14,0-.94-.46-1.61-2.07-1.61v-.21h9v.21a3.17,3.17,0,0,0-2,.63l-6.41,5.08,6.06,9.38A3.63,3.63,0,0,0,118,150.64Z"/><path class="cls-1" d="M118.16,142a8.67,8.67,0,0,1,8.58-9v.21c-2.07.25-2.62,2-2.62,8.68,0,5.05,2.24,7.81,5.35,7.81a7.62,7.62,0,0,0,5.11-1.85v.21c-1.82,2.31-5.14,3.15-7.42,3.15A8.88,8.88,0,0,1,118.16,142Zm7.88-1.47c3.08,0,4.38-1,4.38-3.92,0-1.68-.7-3.22-2.28-3.43V133c4.62,0,6.86,3.29,6.86,5.95a10.8,10.8,0,0,1-.17,1.82H126Z"/><path class="cls-1" d="M145.64,148.85c0,.88.52,1.79,2.62,1.79v.21h-11v-.21c2.1,0,2.62-.91,2.62-1.79V136.42c0-1.26-.59-1.85-2.59-1.85v-.21a21.36,21.36,0,0,0,8.37-1.37Zm9.45-12.08a3.74,3.74,0,0,1-3.6,4,2.38,2.38,0,0,1-2-.77,2.54,2.54,0,0,0,1.36-2.38,1.86,1.86,0,0,0-2-1.89,2.42,2.42,0,0,0-2.1,1.33v-.28a4.85,4.85,0,0,1,4.55-3.78A3.55,3.55,0,0,1,155.09,136.77Z"/><path class="cls-1" d="M176.72,134.25l-.39.53H172.9v14.07c0,.88.56,1.79,2.66,1.79v.21H164.5v-.21c2.1,0,2.63-.91,2.63-1.79V134.78h-2.28l.39-.53h1.89v-1.57c0-5,2.59-7.07,5.81-7.56v.21c-1.19.45-2.07,1.57-2.07,3.71S172.24,134.25,176.72,134.25Zm3-5.35a3,3,0,0,1-3,3.08,3.64,3.64,0,0,1-3.54-2.35,2.21,2.21,0,0,0,2.49-2.24,2,2,0,0,0-1.26-2.06v-.21C178.05,125.26,179.7,126.9,179.7,128.9Z"/><path class="cls-1" d="M187.08,133.2c-2.07.25-2.77,2-2.77,8.82,0,6.59.7,8.76,2.77,9v.21a8.92,8.92,0,0,1-8.72-9.18,8.78,8.78,0,0,1,8.72-9ZM197.16,142a8.93,8.93,0,0,1-8.68,9.18V151c2.06-.21,2.73-2.42,2.73-9,0-6.86-.7-8.61-2.73-8.82V133A8.72,8.72,0,0,1,197.16,142Z"/><path class="cls-1" d="M207.87,148.85c0,.88.52,1.79,2.62,1.79v.21h-11v-.21c2.1,0,2.62-.91,2.62-1.79V136.42c0-1.26-.59-1.85-2.59-1.85v-.21a21.36,21.36,0,0,0,8.37-1.37Zm9.45-12.08a3.75,3.75,0,0,1-3.61,4,2.37,2.37,0,0,1-2-.77,2.56,2.56,0,0,0,1.36-2.38,1.86,1.86,0,0,0-2-1.89,2.42,2.42,0,0,0-2.1,1.33v-.28a4.85,4.85,0,0,1,4.55-3.78A3.55,3.55,0,0,1,217.32,136.77Z"/><path class="cls-1" d="M31.12,185.72c0-3.05,2.8-4.77,6.72-4.77h3.78v.21h-1c-2.52,0-3.71,1.65-3.71,3.82,0,1.93.56,3.4,2.21,3.4a3.83,3.83,0,0,0,2.55-1.23v.21a7.44,7.44,0,0,1-5.56,2.84C33.08,190.2,31.08,188.52,31.12,185.72Zm1.4-9.91c0-1.79,1.61-3.61,6.37-3.82v.21a2.56,2.56,0,0,0-2.24,2.56c0,1.26.88,2,2.28,2.13a3.94,3.94,0,0,1-3.36,1.68A2.8,2.8,0,0,1,32.52,175.81Zm10.15,10.43V175.53c0-1.72-.66-3.08-2.38-3.33V172c5.81.21,8.12,2.42,8.12,7v8.51c0,1,.35,1.44,1,1.44s1.12-.53,1.68-1.58h.21c-.56,1.93-2.45,2.84-4.55,2.84C43.93,190.2,42.67,189.22,42.67,186.24Z"/><path class="cls-1" d="M74.31,174.79v.28a3.93,3.93,0,0,0-2.94-1.29c-1.75,0-3.39.8-3.39,7.14s1.75,7.46,3.39,7.46a4.87,4.87,0,0,0,2.94-1.23v.21a6.55,6.55,0,0,1-5.11,2.84c-3.32,0-7.17-2-7.17-9.28,0-7,3.78-8.93,7.17-8.93A6.51,6.51,0,0,1,74.31,174.79Zm6.83,20.38c0,1.26.59,1.85,2.59,1.85v.21a22.85,22.85,0,0,0-8.37,1.37V173.29A22.57,22.57,0,0,0,81.14,172Z"/><path class="cls-1" d="M92.86,185.26c0,2,.67,3,2.42,3a3.07,3.07,0,0,0,2.41-1.09v.21a5.82,5.82,0,0,1-5.42,2.84c-3.15,0-5.19-1.47-5.19-4.94v-9.84c0-1.26-.59-1.85-2.58-1.85v-.21A21.3,21.3,0,0,0,92.86,172Zm11.66,2.24c0,1,.31,1.44.94,1.44s1.12-.53,1.68-1.58h.21c-.56,1.93-2.45,2.84-4.76,2.84s-3.85-1.4-3.85-3.43V175.42c0-1.26-.59-1.85-2.48-1.85v-.21a22.65,22.65,0,0,0,8.26-1.37Z"/><path class="cls-1" d="M118.1,172.2c-2.07.25-2.77,2-2.77,8.82,0,6.59.7,8.76,2.77,9v.21a8.92,8.92,0,0,1-8.72-9.18,8.78,8.78,0,0,1,8.72-9ZM128.18,181a8.93,8.93,0,0,1-8.68,9.18V190c2.06-.21,2.73-2.42,2.73-9,0-6.86-.7-8.61-2.73-8.82V172A8.72,8.72,0,0,1,128.18,181Z"/><path class="cls-1" d="M144.07,187.15v.21a7.33,7.33,0,0,1-6,2.84c-3.15,0-5.39-1.44-5.39-4.94V173.78h-1.82l.38-.53h1.44v-3.78a8.84,8.84,0,0,0,5.74-2v5.74h4.73l-.39.53h-4.34v11.59c0,1.75.66,3.57,2.31,3.57A5.17,5.17,0,0,0,144.07,187.15Z"/><path class="cls-1" d="M145.36,181a8.67,8.67,0,0,1,8.57-9v.21c-2.06.25-2.62,2-2.62,8.68,0,5.05,2.24,7.81,5.36,7.81a7.66,7.66,0,0,0,5.11-1.85v.21c-1.82,2.31-5.15,3.15-7.43,3.15A8.87,8.87,0,0,1,145.36,181Zm7.87-1.47c3.09,0,4.38-1,4.38-3.92,0-1.68-.7-3.22-2.28-3.43V172c4.63,0,6.87,3.29,6.87,5.95a9.85,9.85,0,0,1-.18,1.82h-8.79Z"/></svg>