<?xml version="1.0" encoding="utf-8"?>
<!-- Generator: Adobe Illustrator 24.0.3, SVG Export Plug-In . SVG Version: 6.00 Build 0)  -->
<svg version="1.1" id="Layer_1" xmlns="http://www.w3.org/2000/svg" xmlns:xlink="http://www.w3.org/1999/xlink" x="0px" y="0px"
	 viewBox="0 0 300 600" style="enable-background:new 0 0 300 600;" xml:space="preserve">
<style type="text/css">
	.st0{enable-background:new    ;}
	.st1{fill:#FFFFFF;}
</style>
<title>Artboard 1 copy 2</title>
<g class="st0">
	<path class="st1" d="M45.7,51.6L37.4,71h-0.5L26.4,48.1c-0.6-1.3-2-1.9-3.9-1.9V46h9.9L40,62.6l5.7-11.8V51.6z M30.6,70.8V71h-8.1
		v-0.2c2.4,0,3.6-1.5,3.6-3.1l0.3-15.9l0.3,0.7l0.3,15.2C27,69.3,28.1,70.8,30.6,70.8z M53.4,48.1v20.8c0,1,0.6,1.9,2.8,1.9V71H44.4
		v-0.2c2.2,0,2.8-0.9,2.8-1.9V46h9v0.2C54,46.2,53.4,47.1,53.4,48.1z"/>
</g>
<g class="st0">
	<path class="st1" d="M67.8,52.4c-2.2,0.3-2.9,2.1-2.9,9.3c0,6.9,0.7,9.2,2.9,9.4v0.2c-4.2,0-9.2-3.5-9.2-9.7s4.9-9.5,9.2-9.5V52.4z
		 M78.4,61.7c0,6.2-4.9,9.7-9.1,9.7v-0.2c2.2-0.2,2.9-2.5,2.9-9.4c0-7.2-0.7-9.1-2.9-9.3v-0.2C73.6,52.2,78.4,55.5,78.4,61.7z"/>
</g>
<g class="st0">
	<path class="st1" d="M89.7,68.9c0,0.9,0.6,1.9,2.8,1.9V71H80.9v-0.2c2.2,0,2.8-1,2.8-1.9V55.8c0-1.3-0.6-2-2.7-2v-0.2
		c3.4,0,6.2-0.4,8.8-1.4V68.9z M99.6,56.2c0,2.5-1.8,4.2-3.8,4.2c-0.9,0-1.7-0.2-2.1-0.8c0.7-0.4,1.4-1.1,1.4-2.5c0-1.1-0.8-2-2.1-2
		c-1,0-1.7,0.6-2.2,1.4v-0.3c0.7-2.4,2.5-4,4.8-4C98.2,52.2,99.6,54,99.6,56.2z"/>
</g>
<g class="st0">
	<path class="st1" d="M101.6,61.7c0-6.2,4.7-9.5,9-9.5v0.2c-2.2,0.3-2.8,2.1-2.8,9.1c0,5.3,2.4,8.2,5.6,8.2c2.1,0,3.6-0.6,5.4-2v0.2
		c-1.9,2.4-5.4,3.3-7.8,3.3C106.4,71.4,101.6,67.9,101.6,61.7z M109.9,60.2c3.2,0,4.6-1,4.6-4.1c0-1.8-0.7-3.4-2.4-3.6v-0.2
		c4.9,0,7.2,3.5,7.2,6.3c0,0.6-0.1,1.4-0.2,1.9h-9.2V60.2z"/>
</g>
<g class="st0">
	<path class="st1" d="M23.1,98.6c0-6.2,4.7-9.5,9-9.5v0.2c-2.2,0.3-2.8,2.1-2.8,9.1c0,5.3,2.4,8.2,5.6,8.2c2.1,0,3.6-0.6,5.4-2v0.2
		c-1.9,2.4-5.4,3.3-7.8,3.3C27.8,108.2,23.1,104.7,23.1,98.6z M31.4,97c3.2,0,4.6-1,4.6-4.1c0-1.8-0.7-3.4-2.4-3.6v-0.2
		c4.9,0,7.2,3.5,7.2,6.3c0,0.6-0.1,1.4-0.2,1.9h-9.2V97z"/>
</g>
<g class="st0">
	<path class="st1" d="M43.8,90.9c-0.4-0.8-0.9-1.3-2-1.3v-0.2h10.3v0.2c-1.3,0-1.8,0.9-1.2,2.2l4.8,10.1l-3.2,6h-0.2L43.8,90.9z
		 M57.3,98.3c0.6-1.2,1-2.8,1-4.8c0-2-1.1-3.9-3.8-3.9v-0.2h9.2v0.2c-1.2,0-1.7,0.5-2.4,1.7l-3.8,7.2L57.3,98.3z"/>
</g>
<g class="st0">
	<path class="st1" d="M64,98.6c0-6.2,4.7-9.5,9-9.5v0.2c-2.2,0.3-2.8,2.1-2.8,9.1c0,5.3,2.4,8.2,5.6,8.2c2.1,0,3.6-0.6,5.4-2v0.2
		c-1.9,2.4-5.4,3.3-7.8,3.3C68.8,108.2,64,104.7,64,98.6z M72.3,97c3.2,0,4.6-1,4.6-4.1c0-1.8-0.7-3.4-2.4-3.6v-0.2
		c4.9,0,7.2,3.5,7.2,6.3c0,0.6-0.1,1.4-0.2,1.9h-9.2V97z"/>
	<path class="st1" d="M92.9,105.7c0,0.9,0.6,1.9,2.8,1.9v0.2H84.1v-0.2c2.2,0,2.8-1,2.8-1.9V92.7c0-1.3-0.6-2-2.7-2v-0.2
		c3.4,0,6.2-0.4,8.8-1.4V105.7z M102.9,93c0,2.5-1.8,4.2-3.8,4.2c-0.9,0-1.7-0.2-2.1-0.8c0.7-0.4,1.4-1.1,1.4-2.5c0-1.1-0.8-2-2.1-2
		c-1,0-1.7,0.6-2.2,1.4V93c0.7-2.4,2.5-4,4.8-4C101.5,89.1,102.9,90.8,102.9,93z"/>
	<path class="st1" d="M105.4,90.9c-0.4-0.8-0.9-1.3-2-1.3v-0.2h10.3v0.2c-1.3,0-1.8,0.9-1.2,2.2l4.8,10.1l-3.2,6h-0.2L105.4,90.9z
		 M103.8,113.8c0-1.6,1.3-2.9,3.2-3.5c-0.1,0.3-0.1,0.6-0.1,0.9c0,1.4,0.7,2.5,2.2,2.5c1.3,0,2.3-1.4,3.7-3.7h0.3
		c-2,3.8-3.4,7.1-6,7.1C104.9,117,103.8,115.6,103.8,113.8z M118.9,98.3c0.6-1.2,1-2.8,1-4.8c0-2-1.1-3.9-3.8-3.9v-0.2h9.2v0.2
		c-1.2,0-1.7,0.5-2.4,1.7l-3.8,7.2L118.9,98.3z"/>
	<path class="st1" d="M139.8,105v0.2c-1.2,1.7-3.5,3-6.3,3c-3.3,0-5.7-1.5-5.7-5.2V90.9h-1.9l0.4-0.6h1.5v-4c2.2,0,4.5-0.7,6-2.1v6
		h5l-0.4,0.6h-4.6v12.2c0,1.8,0.7,3.8,2.4,3.8C137.3,106.9,138.5,106.2,139.8,105z"/>
	<path class="st1" d="M149.3,105.7c0,0.9,0.6,1.9,2.8,1.9v0.2h-11.6v-0.2c2.2,0,2.8-1,2.8-1.9V84.4c0-1.3-0.6-2-2.7-2v-0.2
		c3.4,0,6.2-0.4,8.8-1.4V105.7z M162.1,94.2v11.5c0,0.9,0.6,1.9,2.8,1.9v0.2h-11.6v-0.2c2.2,0,2.7-1,2.7-1.9V94.2
		c0-2.1-1.1-3.1-2.9-3.1c-1,0-1.9,0.3-2.8,1.1V92c1-1.5,3.4-3,6.1-3C159.8,89.1,162.1,90.6,162.1,94.2z"/>
	<path class="st1" d="M166.3,90.5c3.4,0,6.2-0.4,8.8-1.4v16.7c0,0.9,0.6,1.9,2.8,1.9v0.2h-11.6v-0.2c2.2,0,2.8-1,2.8-1.9V92.6
		c0-1.3-0.6-2-2.7-2V90.5z M168.2,83.5c0-1.9,1.5-3.2,3.8-3.2c2.2,0,3.8,1.3,3.8,3.2c0,2-1.5,3.2-3.8,3.2
		C169.7,86.8,168.2,85.5,168.2,83.5z"/>
	<path class="st1" d="M179.4,107.6c2.2,0,2.8-1,2.8-1.9V92.7c0-1.3-0.6-2-2.7-2v-0.2c3.4,0,6.2-0.4,8.8-1.4v16.7
		c0,0.9,0.6,1.9,2.8,1.9v0.2h-11.6V107.6z M192.4,107.6c2.2,0,2.7-1,2.7-1.9V94.2c0-2.1-1.1-3.1-2.9-3.1c-1,0-1.9,0.3-2.8,1.1V92
		c1-1.5,3.4-3,6.1-3c3.3,0,5.7,1.5,5.7,5.2v11.5c0,0.9,0.6,1.9,2.8,1.9v0.2h-11.6V107.6z"/>
	<path class="st1" d="M206.1,95.7c0-4.8,4.5-6.6,8.3-6.7v0.2c-1.6,0.1-2.3,2.1-2.3,6.3c0,4.5,0.7,6.3,2.3,6.4v0.2
		C210.6,102.2,206.1,100.5,206.1,95.7z M215.9,116.8c3.7-0.4,4.9-2.4,4.9-3.8c0-5.1-14.4-0.6-14.4-7.1c0-1.5,0.8-2.7,2.5-3.8
		l0.1,0.2c-0.2,0.1-0.3,0.4-0.3,0.7c0,4.1,16.8-0.7,16.8,7.4c0,3.8-3.3,6.3-9.5,6.6V116.8z M206.4,113.7c0-2.2,2.7-2.8,5.6-2.8
		c-0.7,0.3-1.6,1.4-1.6,2.6c0,1.7,1.9,3,4,3.3v0.2C210.5,117,206.4,116.2,206.4,113.7z M215.9,102c1.8-0.1,2.5-2,2.5-6.4
		c0-4.3-0.8-6.2-2.5-6.3v-0.2c3.9,0.1,8.4,1.9,8.4,6.7c0,4.8-4.5,6.5-8.4,6.5V102z M217.9,88.4c0.6-1.9,2.3-4.4,4.9-4.4
		c2,0,3.1,1,3.1,2.8c0,1.8-1.6,2.9-3,2.9c0-1.5-0.8-2.5-2-2.5c-1.1,0-2.3,0.7-2.8,1.3L217.9,88.4z"/>
</g>
<g class="st0">
	<path class="st1" d="M36.7,141.8v0.2c-1.2,1.7-3.5,3-6.3,3c-3.3,0-5.7-1.5-5.7-5.2v-12.1h-1.9l0.4-0.6h1.5v-4c2.2,0,4.5-0.7,6-2.1
		v6h5l-0.4,0.6h-4.6v12.2c0,1.8,0.7,3.8,2.4,3.8C34.2,143.7,35.5,143,36.7,141.8z"/>
	<path class="st1" d="M46.2,142.6c0,0.9,0.6,1.9,2.8,1.9v0.2H37.4v-0.2c2.2,0,2.8-1,2.8-1.9v-21.4c0-1.3-0.6-2-2.7-2V119
		c3.4,0,6.2-0.4,8.8-1.4V142.6z M59.1,131.1v11.5c0,0.9,0.6,1.9,2.8,1.9v0.2H50.3v-0.2c2.2,0,2.7-1,2.7-1.9v-11.5
		c0-2.1-1.1-3.1-2.9-3.1c-1,0-1.9,0.3-2.8,1.1v-0.2c1-1.5,3.4-3,6.1-3C56.7,125.9,59.1,127.4,59.1,131.1z"/>
	<path class="st1" d="M63.5,140.3c0-3.2,2.9-5,7.1-5h4v0.2h-1.1c-2.7,0-3.9,1.7-3.9,4c0,2,0.6,3.6,2.3,3.6c1,0,1.9-0.6,2.7-1.3v0.2
		c-1.2,1.4-3.2,3-5.9,3C65.5,145,63.4,143.3,63.5,140.3z M65,129.9c0-1.9,1.7-3.8,6.7-4v0.2c-1.5,0.2-2.4,1.4-2.4,2.7
		c0,1.3,0.9,2.1,2.4,2.2c-0.6,1-2.1,1.8-3.5,1.8C66.1,132.8,65,131.4,65,129.9z M75.6,140.9v-11.3c0-1.8-0.7-3.2-2.5-3.5v-0.2
		c6.1,0.2,8.5,2.5,8.5,7.4v9c0,1.1,0.4,1.5,1,1.5c0.6,0,1.2-0.6,1.8-1.7h0.2c-0.6,2-2.6,3-4.8,3C77,145,75.6,144,75.6,140.9z"/>
	<path class="st1" d="M85.8,144.4c2.2,0,2.8-1,2.8-1.9v-13.1c0-1.3-0.6-2-2.7-2v-0.2c3.4,0,6.2-0.4,8.8-1.4v16.7
		c0,0.9,0.6,1.9,2.8,1.9v0.2H85.8V144.4z M98.8,144.4c2.2,0,2.7-1,2.7-1.9v-11.5c0-2.1-1.1-3.1-2.9-3.1c-1,0-1.9,0.3-2.8,1.1v-0.2
		c1-1.5,3.4-3,6.1-3c3.3,0,5.7,1.5,5.7,5.2v11.5c0,0.9,0.6,1.9,2.8,1.9v0.2H98.8V144.4z"/>
	<path class="st1" d="M121.3,140.3c0-3.2,2.9-5,7.1-5h4v0.2h-1.1c-2.7,0-3.9,1.7-3.9,4c0,2,0.6,3.6,2.3,3.6c1,0,1.9-0.6,2.7-1.3v0.2
		c-1.2,1.4-3.2,3-5.9,3C123.4,145,121.3,143.3,121.3,140.3z M122.8,129.9c0-1.9,1.7-3.8,6.7-4v0.2c-1.5,0.2-2.4,1.4-2.4,2.7
		c0,1.3,0.9,2.1,2.4,2.2c-0.6,1-2.1,1.8-3.5,1.8C124,132.8,122.8,131.4,122.8,129.9z M133.5,140.9v-11.3c0-1.8-0.7-3.2-2.5-3.5v-0.2
		c6.1,0.2,8.5,2.5,8.5,7.4v9c0,1.1,0.4,1.5,1,1.5c0.6,0,1.2-0.6,1.8-1.7h0.2c-0.6,2-2.6,3-4.8,3C134.8,145,133.5,144,133.5,140.9z"
		/>
</g>
<g class="st0">
	<path class="st1" d="M143.7,144.4c2.2,0,2.8-1,2.8-1.9v-13.1c0-1.3-0.6-2-2.7-2v-0.2c3.4,0,6.2-0.4,8.8-1.4v16.7
		c0,0.9,0.6,1.9,2.8,1.9v0.2h-11.6V144.4z M156.6,144.4c2.2,0,2.7-1,2.7-1.9v-11.5c0-2.1-1.1-3.1-2.9-3.1c-1,0-1.9,0.3-2.8,1.1v-0.2
		c1-1.5,3.4-3,6.1-3c3.3,0,5.7,1.5,5.7,5.2v11.5c0,0.9,0.6,1.9,2.8,1.9v0.2h-11.6V144.4z"/>
</g>
<g class="st0">
	<path class="st1" d="M169.6,127.8c-0.4-0.8-0.9-1.3-2-1.3v-0.2h10.3v0.2c-1.3,0-1.8,0.9-1.2,2.2l4.8,10.1l-3.2,6h-0.2L169.6,127.8z
		 M168,150.6c0-1.6,1.3-2.9,3.2-3.5c-0.1,0.3-0.1,0.6-0.1,0.9c0,1.4,0.7,2.5,2.2,2.5c1.3,0,2.3-1.4,3.7-3.7h0.3
		c-2,3.8-3.4,7.1-6,7.1C169.2,153.9,168,152.5,168,150.6z M183.1,135.1c0.6-1.2,1-2.8,1-4.8c0-2-1.1-3.9-3.8-3.9v-0.2h9.2v0.2
		c-1.2,0-1.7,0.5-2.4,1.7l-3.8,7.2L183.1,135.1z"/>
</g>
<g class="st0">
	<path class="st1" d="M198.9,126.1c-2.2,0.3-2.9,2.1-2.9,9.3c0,6.9,0.7,9.2,2.9,9.4v0.2c-4.2,0-9.2-3.5-9.2-9.7s4.9-9.5,9.2-9.5
		V126.1z M209.5,135.4c0,6.2-4.9,9.7-9.1,9.7v-0.2c2.2-0.2,2.9-2.5,2.9-9.4c0-7.2-0.7-9.1-2.9-9.3v-0.2
		C204.7,125.9,209.5,129.2,209.5,135.4z"/>
	<path class="st1" d="M212,144.4c2.2,0,2.8-1,2.8-1.9v-13.1c0-1.3-0.6-2-2.7-2v-0.2c3.4,0,6.2-0.4,8.8-1.4v16.7
		c0,0.9,0.6,1.9,2.8,1.9v0.2H212V144.4z M224.9,144.4c2.2,0,2.7-1,2.7-1.9v-11.5c0-2.1-1.1-3.1-2.9-3.1c-1,0-1.9,0.3-2.8,1.1v-0.2
		c1-1.5,3.4-3,6.1-3c3.3,0,5.7,1.5,5.7,5.2v11.5c0,0.9,0.6,1.9,2.8,1.9v0.2h-11.6V144.4z"/>
	<path class="st1" d="M238.5,135.4c0-6.2,4.7-9.5,9-9.5v0.2c-2.2,0.3-2.8,2.1-2.8,9.1c0,5.3,2.4,8.2,5.6,8.2c2.1,0,3.6-0.6,5.4-2
		v0.2c-1.9,2.4-5.4,3.3-7.8,3.3C243.2,145,238.5,141.6,238.5,135.4z M246.8,133.8c3.2,0,4.6-1,4.6-4.1c0-1.8-0.7-3.4-2.4-3.6v-0.2
		c4.9,0,7.2,3.5,7.2,6.3c0,0.6-0.1,1.4-0.2,1.9h-9.2V133.8z"/>
</g>
<g class="st0">
	<path class="st1" d="M23.1,172.2c0-6.2,4.7-9.5,9-9.5v0.2c-2.2,0.3-2.8,2.1-2.8,9.1c0,5.3,2.4,8.2,5.6,8.2c2.1,0,3.6-0.6,5.4-2v0.2
		c-1.9,2.4-5.4,3.3-7.8,3.3C27.8,181.9,23.1,178.4,23.1,172.2z M31.4,170.7c3.2,0,4.6-1,4.6-4.1c0-1.8-0.7-3.4-2.4-3.6v-0.2
		c4.9,0,7.2,3.5,7.2,6.3c0,0.6-0.1,1.4-0.2,1.9h-9.2V170.7z"/>
	<path class="st1" d="M43,155.9c3.4,0,6.2-0.4,8.8-1.4v25c0,0.9,0.6,1.9,2.8,1.9v0.2H42.9v-0.2c2.2,0,2.8-1,2.8-1.9V158
		c0-1.3-0.6-2-2.7-2V155.9z"/>
	<path class="st1" d="M63.1,177.1c-1.2,0-2.1,0.7-2.1,1.8c0,1.1,0.7,2.4,3.3,2.7v0.2c-4.9-0.2-7.6-1.5-7.6-3.6
		c0-1.7,1.5-2.7,3.1-2.7C61.4,175.5,62.6,176.2,63.1,177.1z M64.4,162.9c-1.4,0.3-2.7,1-2.7,2.5c0.1,4.3,12,5,12,10.8
		c0,3.6-3,5.5-7.8,5.6v-0.2c1.5-0.3,3.3-0.8,3.3-2.7c0-3.8-12.1-5.2-12.1-10.8c0-3.2,3.1-5.2,7.2-5.4V162.9z M73.1,166.5
		c0,1.1-0.9,2.3-2.7,2.3c-1.5,0-2.7-0.7-3.1-1.8c1.1-0.1,1.7-0.8,1.7-1.7c0-1.1-1.4-2.2-2.9-2.4v-0.2
		C70.1,162.9,73.1,164.4,73.1,166.5z"/>
	<path class="st1" d="M76.8,172.2c0-6.2,4.7-9.5,9-9.5v0.2c-2.2,0.3-2.8,2.1-2.8,9.1c0,5.3,2.4,8.2,5.6,8.2c2.1,0,3.6-0.6,5.4-2v0.2
		c-1.9,2.4-5.4,3.3-7.8,3.3C81.6,181.9,76.8,178.4,76.8,172.2z M85.1,170.7c3.2,0,4.6-1,4.6-4.1c0-1.8-0.7-3.4-2.4-3.6v-0.2
		c4.9,0,7.2,3.5,7.2,6.3c0,0.6-0.1,1.4-0.2,1.9h-9.2V170.7z"/>
</g>
</svg>
