<?xml version="1.0" encoding="utf-8"?>
<!-- Generator: Adobe Illustrator 24.0.3, SVG Export Plug-In . SVG Version: 6.00 Build 0)  -->
<svg version="1.1" id="Layer_1" xmlns="http://www.w3.org/2000/svg" xmlns:xlink="http://www.w3.org/1999/xlink" x="0px" y="0px"
	 viewBox="0 0 300 600" style="enable-background:new 0 0 300 600;" xml:space="preserve">
<style type="text/css">
	.st0{enable-background:new    ;}
	.st1{fill:#FFFFFF;}
</style>
<title>Artboard 1 copy 4</title>
<g class="st0">
	<path class="st1" d="M34,70.8V71H22.2v-0.2c2.2,0,2.8-0.9,2.8-1.9V48c0-1.1-0.6-1.8-2.8-1.8V46h9v22.9C31.2,69.9,31.8,70.8,34,70.8
		z M48.4,68.4c-0.6,2-2.8,3-5.5,3c-4.8,0-5.9-3.3-6.1-6.4c-0.2-3-0.5-5.4-3.8-5.9v-0.2c3.4,0,4.9-2.9,4.9-6.6c0-4.1-1.5-6.1-4.9-6.1
		V46c7.5,0,11.2,1.7,11.2,6.3c0,4-2.9,6.4-8.4,6.7c6.7,0.3,7.7,2.9,8.1,6c0.4,3,1.2,5.1,2.4,5.1c0.7,0,1.3-0.6,1.8-1.7H48.4z"/>
</g>
<g class="st0">
	<path class="st1" d="M49.2,61.7c0-6.2,4.7-9.5,9-9.5v0.2c-2.2,0.3-2.8,2.1-2.8,9.1c0,5.3,2.4,8.2,5.6,8.2c2.1,0,3.6-0.6,5.4-2v0.2
		c-1.9,2.4-5.4,3.3-7.8,3.3C53.9,71.4,49.2,67.9,49.2,61.7z M57.5,60.2c3.2,0,4.6-1,4.6-4.1c0-1.8-0.7-3.4-2.4-3.6v-0.2
		c4.9,0,7.2,3.5,7.2,6.3c0,0.6-0.1,1.4-0.2,1.9h-9.2V60.2z"/>
	<path class="st1" d="M69.5,66.7c0-3.2,2.9-5,7.1-5h4v0.2h-1.1c-2.7,0-3.9,1.7-3.9,4c0,2,0.6,3.6,2.3,3.6c1,0,1.9-0.6,2.7-1.3v0.2
		c-1.2,1.4-3.2,3-5.9,3C71.6,71.4,69.5,69.6,69.5,66.7z M71,56.2c0-1.9,1.7-3.8,6.7-4v0.2c-1.5,0.2-2.4,1.4-2.4,2.7
		c0,1.3,0.9,2.1,2.4,2.2c-0.6,1-2.1,1.8-3.5,1.8C72.2,59.1,71,57.8,71,56.2z M81.7,67.2V55.9c0-1.8-0.7-3.2-2.5-3.5v-0.2
		c6.1,0.2,8.5,2.5,8.5,7.4v9c0,1.1,0.4,1.5,1,1.5c0.6,0,1.2-0.6,1.8-1.7h0.2c-0.6,2-2.6,3-4.8,3C83,71.4,81.7,70.3,81.7,67.2z"/>
</g>
<g class="st0">
	<path class="st1" d="M105.6,55.2v0.3c-0.8-0.9-1.9-1.4-3.1-1.4c-1.8,0-3.6,0.8-3.6,7.5c0,6.6,1.9,7.8,3.6,7.8
		c1.2,0,2.1-0.6,3.1-1.3v0.2c-0.9,1.5-3.2,3-5.3,3c-3.5,0-7.6-2.1-7.6-9.8c0-7.3,4-9.4,7.6-9.4C102.4,52.2,104.7,53.6,105.6,55.2z
		 M112.8,68.5c0,1.1,0.3,1.5,1,1.5c0.6,0,1.2-0.6,1.8-1.7h0.2c-0.6,2-2.6,3-4.8,3c-2.9,0-4.3-1-4.3-4.2V47.5c0-1.3-0.6-2-2.7-2v-0.2
		c3.4,0,5.7-0.4,8.8-1.4V68.5z"/>
</g>
<g class="st0">
	<path class="st1" d="M117.9,54.1c-0.4-0.8-0.9-1.3-2-1.3v-0.2h10.3v0.2c-1.3,0-1.8,0.9-1.2,2.2l4.8,10.1l-3.2,6h-0.2L117.9,54.1z
		 M116.3,76.9c0-1.6,1.3-2.9,3.2-3.5c-0.1,0.3-0.1,0.6-0.1,0.9c0,1.4,0.7,2.5,2.2,2.5c1.3,0,2.3-1.4,3.7-3.7h0.3
		c-2,3.8-3.4,7.1-6,7.1C117.5,80.2,116.3,78.8,116.3,76.9z M131.4,61.4c0.6-1.2,1-2.8,1-4.8c0-2-1.1-3.9-3.8-3.9v-0.2h9.2v0.2
		c-1.2,0-1.7,0.5-2.4,1.7l-3.8,7.2L131.4,61.4z"/>
</g>
<g class="st0">
	<path class="st1" d="M158.9,53.5l-0.4,0.6h-3.6v14.8c0,0.9,0.6,1.9,2.8,1.9V71h-11.6v-0.2c2.2,0,2.8-1,2.8-1.9V54.1h-2.4l0.4-0.6h2
		v-1.7c0-5.2,2.7-7.4,6.1-8v0.2c-1.3,0.5-2.2,1.7-2.2,3.9C152.8,50.2,154.2,53.5,158.9,53.5z M162.1,47.9c0,2.1-1.5,3.2-3.2,3.2
		c-2,0-3.2-1.1-3.7-2.5c1.6,0,2.6-0.9,2.6-2.4c0-1-0.5-2-1.3-2.2v-0.2C160.3,44.1,162.1,45.8,162.1,47.9z"/>
</g>
<g class="st0">
	<path class="st1" d="M169.8,52.4c-2.2,0.3-2.9,2.1-2.9,9.3c0,6.9,0.7,9.2,2.9,9.4v0.2c-4.2,0-9.2-3.5-9.2-9.7s4.9-9.5,9.2-9.5V52.4
		z M180.4,61.7c0,6.2-4.9,9.7-9.1,9.7v-0.2c2.2-0.2,2.9-2.5,2.9-9.4c0-7.2-0.7-9.1-2.9-9.3v-0.2C175.6,52.2,180.4,55.5,180.4,61.7z"
		/>
</g>
<g class="st0">
	<path class="st1" d="M191.7,68.9c0,0.9,0.6,1.9,2.8,1.9V71h-11.6v-0.2c2.2,0,2.8-1,2.8-1.9V55.8c0-1.3-0.6-2-2.7-2v-0.2
		c3.4,0,6.2-0.4,8.8-1.4V68.9z M201.7,56.2c0,2.5-1.8,4.2-3.8,4.2c-0.9,0-1.7-0.2-2.1-0.8c0.7-0.4,1.4-1.1,1.4-2.5
		c0-1.1-0.8-2-2.1-2c-1,0-1.7,0.6-2.2,1.4v-0.3c0.7-2.4,2.5-4,4.8-4C200.2,52.2,201.7,54,201.7,56.2z"/>
</g>
<g class="st0">
	<path class="st1" d="M35.8,105v0.2c-1.2,1.7-3.5,3-6.3,3c-3.3,0-5.7-1.5-5.7-5.2V90.9h-1.9l0.4-0.6h1.5v-4c2.2,0,4.5-0.7,6-2.1v6h5
		l-0.4,0.6h-4.6v12.2c0,1.8,0.7,3.8,2.4,3.8C33.3,106.9,34.6,106.2,35.8,105z"/>
	<path class="st1" d="M45.3,105.7c0,0.9,0.6,1.9,2.8,1.9v0.2H36.5v-0.2c2.2,0,2.8-1,2.8-1.9V84.4c0-1.3-0.6-2-2.7-2v-0.2
		c3.4,0,6.2-0.4,8.8-1.4V105.7z M58.2,94.2v11.5c0,0.9,0.6,1.9,2.8,1.9v0.2H49.4v-0.2c2.2,0,2.7-1,2.7-1.9V94.2
		c0-2.1-1.1-3.1-2.9-3.1c-1,0-1.9,0.3-2.8,1.1V92c1-1.5,3.4-3,6.1-3C55.9,89.1,58.2,90.6,58.2,94.2z"/>
	<path class="st1" d="M63,98.6c0-6.2,4.7-9.5,9-9.5v0.2c-2.2,0.3-2.8,2.1-2.8,9.1c0,5.3,2.4,8.2,5.6,8.2c2.1,0,3.6-0.6,5.4-2v0.2
		c-1.9,2.4-5.4,3.3-7.8,3.3C67.7,108.2,63,104.7,63,98.6z M71.2,97c3.2,0,4.6-1,4.6-4.1c0-1.8-0.7-3.4-2.4-3.6v-0.2
		c4.9,0,7.2,3.5,7.2,6.3c0,0.6-0.1,1.4-0.2,1.9h-9.2V97z"/>
</g>
<g class="st0">
	<path class="st1" d="M102.4,108v0.2c-2.9-0.1-5.2-0.6-7.1-1.8l-1.2,1.8h-0.3v-9h0.3C95.3,103.4,97.9,106.5,102.4,108z M113.3,100.7
		c0,4.8-3.5,7.3-9.2,7.6V108c2-0.4,4-1.5,4-3.8c0-6.4-14.1-7-14.1-14.5c0-4.4,3.6-7,8.5-7.3v0.2c-1.7,0.3-3.2,1.4-3.2,3.4
		C99.2,92.5,113.3,93.2,113.3,100.7z M104,82.6v-0.2c2.8,0.1,4.9,0.7,6.6,2l1.3-2h0.3v8.2H112C110.8,86.7,107.6,83.5,104,82.6z"/>
</g>
<g class="st0">
	<path class="st1" d="M130.1,105v0.2c-1.2,1.7-3.5,3-6.3,3c-3.3,0-5.7-1.5-5.7-5.2V90.9h-1.9l0.4-0.6h1.5v-4c2.2,0,4.5-0.7,6-2.1v6
		h5l-0.4,0.6h-4.6v12.2c0,1.8,0.7,3.8,2.4,3.8C127.6,106.9,128.8,106.2,130.1,105z"/>
	<path class="st1" d="M131.2,103.5c0-3.2,2.9-5,7.1-5h4v0.2h-1.1c-2.7,0-3.9,1.7-3.9,4c0,2,0.6,3.6,2.3,3.6c1,0,1.9-0.6,2.7-1.3v0.2
		c-1.2,1.4-3.2,3-5.9,3C133.3,108.2,131.2,106.4,131.2,103.5z M132.7,93.1c0-1.9,1.7-3.8,6.7-4v0.2c-1.5,0.2-2.4,1.4-2.4,2.7
		c0,1.3,0.9,2.1,2.4,2.2c-0.6,1-2.1,1.8-3.5,1.8C133.9,96,132.7,94.6,132.7,93.1z M143.4,104V92.8c0-1.8-0.7-3.2-2.5-3.5v-0.2
		c6.1,0.2,8.5,2.5,8.5,7.4v9c0,1.1,0.4,1.5,1,1.5c0.6,0,1.2-0.6,1.8-1.7h0.2c-0.6,2-2.6,3-4.8,3C144.7,108.2,143.4,107.2,143.4,104z
		"/>
</g>
<g class="st0">
	<path class="st1" d="M162.4,105.7c0,0.9,0.6,1.9,2.8,1.9v0.2h-11.6v-0.2c2.2,0,2.8-1,2.8-1.9V92.7c0-1.3-0.6-2-2.7-2v-0.2
		c3.4,0,6.2-0.4,8.8-1.4V105.7z M172.4,93c0,2.5-1.8,4.2-3.8,4.2c-0.9,0-1.7-0.2-2.1-0.8c0.7-0.4,1.4-1.1,1.4-2.5c0-1.1-0.8-2-2.1-2
		c-1,0-1.7,0.6-2.2,1.4V93c0.7-2.4,2.5-4,4.8-4C171,89.1,172.4,90.8,172.4,93z"/>
</g>
<g class="st0">
	<path class="st1" d="M35.8,141.8v0.2c-1.2,1.7-3.5,3-6.3,3c-3.3,0-5.7-1.5-5.7-5.2v-12.1h-1.9l0.4-0.6h1.5v-4c2.2,0,4.5-0.7,6-2.1
		v6h5l-0.4,0.6h-4.6v12.2c0,1.8,0.7,3.8,2.4,3.8C33.3,143.7,34.6,143,35.8,141.8z"/>
</g>
<g class="st0">
	<path class="st1" d="M45.5,142.6c0,0.9,0.6,1.9,2.8,1.9v0.2H36.7v-0.2c2.2,0,2.8-1,2.8-1.9v-13.1c0-1.3-0.6-2-2.7-2v-0.2
		c3.4,0,6.2-0.4,8.8-1.4V142.6z M55.5,129.9c0,2.5-1.8,4.2-3.8,4.2c-0.9,0-1.7-0.2-2.1-0.8c0.7-0.4,1.4-1.1,1.4-2.5
		c0-1.1-0.8-2-2.1-2c-1,0-1.7,0.6-2.2,1.4v-0.3c0.7-2.4,2.5-4,4.8-4C54.1,125.9,55.5,127.6,55.5,129.9z"/>
</g>
<g class="st0">
	<path class="st1" d="M57.5,135.4c0-6.2,4.7-9.5,9-9.5v0.2c-2.2,0.3-2.8,2.1-2.8,9.1c0,5.3,2.4,8.2,5.6,8.2c2.1,0,3.6-0.6,5.4-2v0.2
		c-1.9,2.4-5.4,3.3-7.8,3.3C62.2,145,57.5,141.6,57.5,135.4z M65.8,133.8c3.2,0,4.6-1,4.6-4.1c0-1.8-0.7-3.4-2.4-3.6v-0.2
		c4.9,0,7.2,3.5,7.2,6.3c0,0.6-0.1,1.4-0.2,1.9h-9.2V133.8z"/>
	<path class="st1" d="M77.8,140.3c0-3.2,2.9-5,7.1-5h4v0.2h-1.1c-2.7,0-3.9,1.7-3.9,4c0,2,0.6,3.6,2.3,3.6c1,0,1.9-0.6,2.7-1.3v0.2
		c-1.2,1.4-3.2,3-5.9,3C79.9,145,77.8,143.3,77.8,140.3z M79.3,129.9c0-1.9,1.7-3.8,6.7-4v0.2c-1.5,0.2-2.4,1.4-2.4,2.7
		c0,1.3,0.9,2.1,2.4,2.2c-0.6,1-2.1,1.8-3.5,1.8C80.5,132.8,79.3,131.4,79.3,129.9z M90,140.9v-11.3c0-1.8-0.7-3.2-2.5-3.5v-0.2
		c6.1,0.2,8.5,2.5,8.5,7.4v9c0,1.1,0.4,1.5,1,1.5c0.6,0,1.2-0.6,1.8-1.7h0.2c-0.6,2-2.6,3-4.8,3C91.3,145,90,144,90,140.9z"/>
	<path class="st1" d="M114.5,141.8v0.2c-1.2,1.7-3.5,3-6.3,3c-3.3,0-5.7-1.5-5.7-5.2v-12.1h-1.9l0.4-0.6h1.5v-4c2.2,0,4.5-0.7,6-2.1
		v6h5l-0.4,0.6h-4.6v12.2c0,1.8,0.7,3.8,2.4,3.8C112,143.7,113.3,143,114.5,141.8z"/>
	<path class="st1" d="M124.2,142.6c0,0.9,0.6,1.9,2.8,1.9v0.2h-11.6v-0.2c2.2,0,2.8-1,2.8-1.9v-13.1c0-1.3-0.6-2-2.7-2v-0.2
		c3.4,0,6.2-0.4,8.8-1.4V142.6z M136.4,131.1v11.5c0,0.9,0.5,1.9,2.7,1.9v0.2h-11.6v-0.2c2.2,0,2.8-1,2.8-1.9v-11.5
		c0-2.1-0.8-3.1-2.6-3.1c-1,0-2,0.5-2.4,1.1v-0.2c0.8-1.5,2.7-2.9,5.4-2.9C134.2,125.9,136.4,127.4,136.4,131.1z M148.6,131.1v11.5
		c0,0.9,0.6,1.9,2.8,1.9v0.2h-11.6v-0.2c2.2,0,2.8-1,2.8-1.9v-11.5c0-2.1-0.8-3.1-2.6-3.1c-1,0-2,0.5-2.4,1.1v-0.2
		c0.8-1.5,2.7-2.9,5.4-2.9C146.4,125.9,148.6,127.4,148.6,131.1z"/>
	<path class="st1" d="M153.4,135.4c0-6.2,4.7-9.5,9-9.5v0.2c-2.2,0.3-2.8,2.1-2.8,9.1c0,5.3,2.4,8.2,5.6,8.2c2.1,0,3.6-0.6,5.4-2
		v0.2c-1.9,2.4-5.4,3.3-7.8,3.3C158.1,145,153.4,141.6,153.4,135.4z M161.7,133.8c3.2,0,4.6-1,4.6-4.1c0-1.8-0.7-3.4-2.4-3.6v-0.2
		c4.9,0,7.2,3.5,7.2,6.3c0,0.6-0.1,1.4-0.2,1.9h-9.2V133.8z"/>
	<path class="st1" d="M173.4,144.4c2.2,0,2.8-1,2.8-1.9v-13.1c0-1.3-0.6-2-2.7-2v-0.2c3.4,0,6.2-0.4,8.8-1.4v16.7
		c0,0.9,0.6,1.9,2.8,1.9v0.2h-11.6V144.4z M186.4,144.4c2.2,0,2.7-1,2.7-1.9v-11.5c0-2.1-1.1-3.1-2.9-3.1c-1,0-1.9,0.3-2.8,1.1v-0.2
		c1-1.5,3.4-3,6.1-3c3.3,0,5.7,1.5,5.7,5.2v11.5c0,0.9,0.6,1.9,2.8,1.9v0.2h-11.6V144.4z"/>
	<path class="st1" d="M213.6,141.8v0.2c-1.2,1.7-3.5,3-6.3,3c-3.3,0-5.7-1.5-5.7-5.2v-12.1h-1.9l0.4-0.6h1.5v-4c2.2,0,4.5-0.7,6-2.1
		v6h5l-0.4,0.6h-4.6v12.2c0,1.8,0.7,3.8,2.4,3.8C211.1,143.7,212.4,143,213.6,141.8z"/>
	<path class="st1" d="M214.7,124.2c0-3.3,4.4-4.9,7.8-5v0.2c-1.8,0.5-2.6,2.1-2.6,3.6c0,1.3,0.5,2.5,2.1,3.2
		c-0.6,0.9-1.8,1.5-3.4,1.5C216.6,127.7,214.7,126.6,214.7,124.2z M220.1,143.8c0-2,1.6-3.4,3.9-3.4c2.3,0,3.9,1.3,3.9,3.4
		c0,2.1-1.6,3.4-3.9,3.4C221.8,147.2,220.1,145.8,220.1,143.8z M221.1,133.4c0-4.1,5.9-5.3,5.9-10.1c0-2-0.7-3.2-2.7-3.9v-0.2
		c5.1,0.3,8.9,2,8.9,6.1c0,5-8,6.6-8,9.8c0,1,0.3,1.6,1.3,2.1l0,0.2C222.9,137.5,221.1,135.7,221.1,133.4z"/>
</g>
</svg>
