<?xml version="1.0" encoding="utf-8"?>
<!-- Generator: Adobe Illustrator 24.0.3, SVG Export Plug-In . SVG Version: 6.00 Build 0)  -->
<svg version="1.1" id="Layer_1" xmlns="http://www.w3.org/2000/svg" xmlns:xlink="http://www.w3.org/1999/xlink" x="0px" y="0px"
	 viewBox="0 0 320 480" style="enable-background:new 0 0 320 480;" xml:space="preserve">
<style type="text/css">
	.st0{clip-path:url(#SVGID_2_);}
	.st1{fill:none;}
	.st2{enable-background:new    ;}
	.st3{fill:#FFFFFF;}
</style>
<title>Artboard 1 copy 2</title>
<g>
	<g>
		<defs>
			<rect id="SVGID_1_" x="0.4" y="0" width="320" height="480"/>
		</defs>
		<clipPath id="SVGID_2_">
			<use xlink:href="#SVGID_1_"  style="overflow:visible;"/>
		</clipPath>
		<g class="st0">
			<rect x="0.4" y="0" class="st1" width="320" height="480"/>
			<g class="st2">
				<path class="st3" d="M37.4,30.7v0.2c-3,0.4-5,3.3-5,13.9c0,10.6,2.1,14,5,14.4v0.2c-5.9-0.3-13.1-4.7-13.1-14.4
					C24.4,35.8,31.9,31,37.4,30.7z M39.4,30.9v-0.2c4.2,0.2,6.6,0.8,8.4,1.9l1.3-1.9h0.3v10h-0.3C48,35.8,44.3,31.9,39.4,30.9z
					 M53.3,47.2v0.2c-1.9,0-3,0.7-3,2.4v9.5H50L48.5,57c-2.1,1.5-4.9,2.3-9,2.5v-0.2c2.8-0.2,4.4-1.7,4.4-5v-4.3
					c0-1.7-0.7-2.4-3.1-2.4v-0.2H53.3z"/>
				<path class="st3" d="M55.8,48.7c0-6.9,5.3-10.6,10.1-10.6v0.2c-2.4,0.3-3.1,2.3-3.1,10.2c0,5.9,2.6,9.2,6.3,9.2
					c2.3,0,4.1-0.7,6-2.2v0.2c-2.1,2.7-6,3.7-8.7,3.7C61.1,59.4,55.8,55.6,55.8,48.7z M65.1,47c3.6,0,5.1-1.1,5.1-4.6
					c0-2-0.8-3.8-2.7-4v-0.2c5.4,0,8,3.9,8,7c0,0.7-0.1,1.5-0.2,2.1H65.1V47z"/>
				<path class="st3" d="M94.2,55.9v0.2c-1.3,1.9-3.9,3.3-7,3.3c-3.7,0-6.3-1.7-6.3-5.8V40.2h-2.1l0.5-0.6h1.7v-4.4
					c2.5,0,5-0.8,6.7-2.3v6.7h5.5l-0.5,0.6h-5.1v13.6c0,2.1,0.8,4.2,2.7,4.2C91.4,58,92.8,57.2,94.2,55.9z"/>
				<path class="st3" d="M105.9,54.2c0-3.6,3.3-5.6,7.9-5.6h4.4v0.2H117c-3,0-4.4,1.9-4.4,4.5c0,2.3,0.7,4,2.6,4
					c1.1,0,2.1-0.6,3-1.4v0.2c-1.4,1.6-3.5,3.3-6.5,3.3C108.2,59.4,105.9,57.5,105.9,54.2z M107.5,42.6c0-2.1,1.9-4.2,7.5-4.5v0.2
					c-1.6,0.2-2.6,1.6-2.6,3c0,1.5,1,2.4,2.7,2.5c-0.6,1.1-2.3,2-3.9,2C108.9,45.8,107.5,44.3,107.5,42.6z M119.4,54.8V42.2
					c0-2-0.8-3.6-2.8-3.9v-0.2c6.8,0.2,9.5,2.8,9.5,8.2v10c0,1.2,0.4,1.7,1.1,1.7c0.6,0,1.3-0.6,2-1.8h0.2c-0.7,2.3-2.9,3.3-5.3,3.3
					C120.9,59.4,119.4,58.3,119.4,54.8z"/>
			</g>
			<g class="st2">
				<path class="st3" d="M152.5,59.2v0.2c-3.2-0.1-5.8-0.7-8-2l-1.4,2h-0.3v-10h0.3C144.5,54.1,147.4,57.5,152.5,59.2z M164.5,51
					c0,5.3-3.9,8.2-10.3,8.4v-0.2c2.3-0.4,4.5-1.7,4.5-4.2c0-7.2-15.7-7.8-15.7-16.2c0-4.9,4-7.8,9.4-8.1v0.2
					c-1.9,0.3-3.6,1.5-3.6,3.8C148.8,41.9,164.5,42.7,164.5,51z M154.2,30.9v-0.2c3.1,0.1,5.5,0.8,7.4,2.2l1.5-2.2h0.3v9.2h-0.3
					C161.8,35.5,158.2,31.9,154.2,30.9z"/>
			</g>
			<g class="st2">
				<path class="st3" d="M183.2,55.9v0.2c-1.3,1.9-3.9,3.3-7,3.3c-3.7,0-6.3-1.7-6.3-5.8V40.2h-2.1l0.5-0.6h1.7v-4.4
					c2.5,0,5-0.8,6.7-2.3v6.7h5.5l-0.5,0.6h-5.1v13.6c0,2.1,0.8,4.2,2.7,4.2C180.5,58,181.9,57.2,183.2,55.9z"/>
				<path class="st3" d="M184.6,54.2c0-3.6,3.3-5.6,7.9-5.6h4.4v0.2h-1.2c-3,0-4.4,1.9-4.4,4.5c0,2.3,0.7,4,2.6,4
					c1.1,0,2.1-0.6,3-1.4v0.2c-1.4,1.6-3.5,3.3-6.5,3.3C186.9,59.4,184.5,57.5,184.6,54.2z M186.2,42.6c0-2.1,1.9-4.2,7.5-4.5v0.2
					c-1.6,0.2-2.6,1.6-2.6,3c0,1.5,1,2.4,2.7,2.5c-0.6,1.1-2.3,2-3.9,2C187.5,45.8,186.2,44.3,186.2,42.6z M198.1,54.8V42.2
					c0-2-0.8-3.6-2.8-3.9v-0.2c6.8,0.2,9.5,2.8,9.5,8.2v10c0,1.2,0.4,1.7,1.2,1.7c0.6,0,1.3-0.6,2-1.8h0.2c-0.7,2.3-2.9,3.3-5.3,3.3
					C199.6,59.4,198.1,58.3,198.1,54.8z"/>
			</g>
			<g class="st2">
				<path class="st3" d="M219.3,56.7c0,1,0.6,2.1,3.1,2.1V59h-12.9v-0.2c2.5,0,3.1-1.1,3.1-2.1V42.1c0-1.5-0.7-2.2-3-2.2v-0.2
					c3.8,0,6.9-0.4,9.8-1.6V56.7z M230.4,42.5c0,2.8-2,4.7-4.2,4.7c-1,0-1.8-0.2-2.3-0.9c0.8-0.4,1.6-1.3,1.6-2.8
					c0-1.2-0.9-2.2-2.3-2.2c-1.1,0-1.9,0.6-2.5,1.6v-0.3c0.8-2.6,2.8-4.4,5.3-4.4C228.9,38.1,230.4,40.1,230.4,42.5z"/>
			</g>
			<g class="st2">
				<path class="st3" d="M24.1,100.1v-0.2c2.5,0,3.1-0.9,3.1-2.1V74.5c0-1.1-0.6-2.1-3.1-2.1v-0.2h10.1v27.9H24.1z M47.1,72.2v7.6
					h-0.3c-1.8-5.2-4.3-6.9-10.5-7.4v-0.2H47.1z M36.3,85.8v-0.2l2.3-0.2c2.4-0.2,4.1-1.2,5.4-3.5h0.3v7.6h-0.3
					c-1.4-2.3-3-3.2-5.4-3.4L36.3,85.8z M36.3,99.8c6.2-0.4,9.2-2.2,11.4-7.4H48v7.6H36.3V99.8z"/>
				<path class="st3" d="M51,99.8c2.5,0,3.1-1.1,3.1-2.1V83.2c0-1.5-0.7-2.2-3-2.2v-0.2c3.8,0,6.9-0.4,9.8-1.6v18.6
					c0,1,0.6,2.1,3.1,2.1v0.2H51V99.8z M65.5,99.8c2.4,0,3-1.1,3-2.1V84.9c0-2.3-1.2-3.5-3.2-3.5c-1.1,0-2.1,0.4-3.1,1.3v-0.2
					c1.1-1.7,3.8-3.3,6.8-3.3c3.7,0,6.3,1.7,6.3,5.8v12.8c0,1,0.6,2.1,3.1,2.1v0.2H65.5V99.8z"/>
				<path class="st3" d="M95.8,96.9v0.2c-1.3,1.9-3.9,3.3-7,3.3c-3.7,0-6.3-1.7-6.3-5.8V81.2h-2.1l0.5-0.6h1.7v-4.4
					c2.5,0,5-0.8,6.7-2.3v6.7h5.5l-0.5,0.6h-5.1v13.6c0,2.1,0.8,4.2,2.7,4.2C93,99,94.4,98.3,95.8,96.9z"/>
				<path class="st3" d="M106.3,97.7c0,1,0.6,2.1,3.1,2.1v0.2H96.5v-0.2c2.5,0,3.1-1.1,3.1-2.1V73.9c0-1.5-0.7-2.2-3-2.2v-0.2
					c3.8,0,6.9-0.4,9.8-1.6V97.7z M120.7,84.9v12.8c0,1,0.6,2.1,3.1,2.1v0.2h-12.9v-0.2c2.4,0,3-1.1,3-2.1V84.9
					c0-2.3-1.2-3.5-3.2-3.5c-1.1,0-2.1,0.4-3.1,1.3v-0.2c1.1-1.7,3.8-3.3,6.8-3.3C118.1,79.1,120.7,80.9,120.7,84.9z"/>
				<path class="st3" d="M134.7,94.7c0,2.3,0.8,3.5,2.8,3.5c1.1,0,1.9-0.3,2.8-1.3v0.2c-0.9,1.8-3,3.3-6.4,3.3
					c-3.7,0-6.1-1.7-6.1-5.8V83.2c0-1.5-0.7-2.2-3-2.2v-0.2c3.8,0,6.9-0.4,9.8-1.6V94.7z M148.4,97.3c0,1.2,0.4,1.7,1.1,1.7
					c0.6,0,1.3-0.6,2-1.8h0.2c-0.7,2.3-2.9,3.3-5.6,3.3c-2.9,0-4.5-1.6-4.5-4V83.2c0-1.5-0.7-2.2-2.9-2.2v-0.2
					c3.7,0,6.2-0.4,9.7-1.6V97.3z"/>
				<path class="st3" d="M161.2,95.2c-1.4,0-2.3,0.8-2.3,2.1c0,1.2,0.8,2.7,3.7,3v0.2c-5.5-0.2-8.5-1.7-8.5-4.1c0-1.9,1.6-3,3.5-3
					C159.2,93.4,160.6,94.2,161.2,95.2z M162.6,79.4c-1.5,0.3-3,1.1-3,2.8c0.1,4.8,13.4,5.5,13.4,12.1c0,4-3.4,6.1-8.7,6.3v-0.2
					c1.7-0.3,3.7-0.9,3.7-3c0-4.3-13.5-5.8-13.5-12.1c0-3.6,3.4-5.8,8-6V79.4z M172.2,83.4c0,1.3-1,2.5-3,2.5c-1.7,0-3-0.7-3.5-2
					c1.2-0.1,1.9-0.9,1.8-1.9c0-1.2-1.6-2.4-3.2-2.6v-0.2C169,79.4,172.2,81.1,172.2,83.4z"/>
				<path class="st3" d="M175.8,80.7c3.8,0,6.9-0.4,9.8-1.6v18.6c0,1,0.6,2.1,3.1,2.1v0.2h-12.9v-0.2c2.5,0,3.1-1.1,3.1-2.1V83.1
					c0-1.5-0.7-2.2-3-2.2V80.7z M177.9,73c0-2.1,1.7-3.6,4.2-3.6s4.2,1.4,4.2,3.6c0,2.2-1.7,3.6-4.2,3.6S177.9,75.2,177.9,73z"/>
				<path class="st3" d="M190.8,95.2c0-3.6,3.3-5.6,7.9-5.6h4.4v0.2h-1.2c-3,0-4.4,1.9-4.4,4.5c0,2.3,0.7,4,2.6,4
					c1.1,0,2.1-0.6,3-1.4v0.2c-1.4,1.6-3.5,3.3-6.5,3.3C193.1,100.5,190.7,98.5,190.8,95.2z M192.4,83.6c0-2.1,1.9-4.2,7.5-4.5v0.2
					c-1.6,0.2-2.6,1.6-2.6,3c0,1.5,1,2.4,2.7,2.5c-0.6,1.1-2.3,2-3.9,2C193.7,86.9,192.4,85.3,192.4,83.6z M204.3,95.9V83.3
					c0-2-0.8-3.6-2.8-3.9v-0.2c6.8,0.2,9.5,2.8,9.5,8.2v10c0,1.2,0.4,1.7,1.2,1.7c0.6,0,1.3-0.6,2-1.8h0.2c-0.7,2.3-2.9,3.3-5.3,3.3
					C205.8,100.5,204.3,99.4,204.3,95.9z"/>
				<path class="st3" d="M223.6,95.2c-1.4,0-2.3,0.8-2.3,2.1c0,1.2,0.8,2.7,3.7,3v0.2c-5.5-0.2-8.5-1.7-8.5-4.1c0-1.9,1.6-3,3.5-3
					C221.6,93.4,223,94.2,223.6,95.2z M224.9,79.4c-1.5,0.3-3,1.1-3,2.8c0.1,4.8,13.4,5.5,13.4,12.1c0,4-3.4,6.1-8.7,6.3v-0.2
					c1.7-0.3,3.7-0.9,3.7-3c0-4.3-13.5-5.8-13.5-12.1c0-3.6,3.4-5.8,8-6V79.4z M234.6,83.4c0,1.3-1,2.5-3,2.5c-1.7,0-3-0.7-3.5-2
					c1.2-0.1,1.9-0.9,1.8-1.9c0-1.2-1.6-2.4-3.2-2.6v-0.2C231.4,79.4,234.6,81.1,234.6,83.4z"/>
				<path class="st3" d="M254,96.9v0.2c-1.3,1.9-3.9,3.3-7,3.3c-3.7,0-6.3-1.7-6.3-5.8V81.2h-2.1l0.5-0.6h1.7v-4.4
					c2.5,0,5-0.8,6.7-2.3v6.7h5.5l-0.5,0.6h-5.1v13.6c0,2.1,0.8,4.2,2.7,4.2C251.3,99,252.7,98.3,254,96.9z"/>
			</g>
			<g class="st2">
				<path class="st3" d="M38.7,123.5v0.3c-0.9-1-2.2-1.5-3.4-1.5c-2.1,0-4,0.9-4,8.4c0,7.4,2.1,8.7,4,8.7c1.3,0,2.4-0.7,3.4-1.4v0.2
					c-1,1.7-3.7,3.3-6,3.3c-3.9,0-8.4-2.3-8.4-10.9c0-8.2,4.4-10.5,8.4-10.5C35,120.2,37.7,121.8,38.7,123.5z M46.7,147.4
					c0,1.5,0.7,2.2,3,2.2v0.2c-3.8,0-6.4,0.4-9.8,1.6v-29.7c2.1-0.2,4.9-0.8,6.8-1.6V147.4z"/>
				<path class="st3" d="M60.4,135.8c0,2.3,0.8,3.5,2.8,3.5c1.1,0,1.9-0.3,2.8-1.3v0.2c-0.9,1.8-3,3.3-6.4,3.3
					c-3.7,0-6.1-1.7-6.1-5.8v-11.5c0-1.5-0.7-2.2-3-2.2v-0.2c3.8,0,6.9-0.4,9.8-1.6V135.8z M74.1,138.4c0,1.2,0.4,1.7,1.1,1.7
					c0.6,0,1.3-0.6,2-1.8h0.2c-0.7,2.3-2.9,3.3-5.6,3.3c-2.9,0-4.5-1.6-4.5-4v-13.3c0-1.5-0.7-2.2-2.9-2.2v-0.2
					c3.7,0,6.2-0.4,9.7-1.6V138.4z"/>
				<path class="st3" d="M90,120.5c-2.4,0.3-3.2,2.3-3.2,10.3c0,7.7,0.8,10.3,3.2,10.5v0.2c-4.7,0-10.2-3.9-10.2-10.8
					c0-6.9,5.4-10.6,10.2-10.6V120.5z M101.9,130.8c0,6.9-5.5,10.8-10.2,10.8v-0.2c2.4-0.2,3.2-2.8,3.2-10.5c0-8-0.8-10.1-3.2-10.3
					v-0.2C96.5,120.2,101.9,123.9,101.9,130.8z"/>
			</g>
			<g class="st2">
				<path class="st3" d="M120.5,138v0.2c-1.3,1.9-3.9,3.3-7,3.3c-3.7,0-6.3-1.7-6.3-5.8v-13.5H105l0.5-0.6h1.7v-4.4
					c2.5,0,5-0.8,6.7-2.3v6.7h5.5l-0.5,0.6h-5.1v13.6c0,2.1,0.8,4.2,2.7,4.2C117.8,140.1,119.2,139.3,120.5,138z"/>
			</g>
			<g class="st2">
				<path class="st3" d="M122,130.8c0-6.9,5.3-10.6,10.1-10.6v0.2c-2.4,0.3-3.1,2.3-3.1,10.2c0,5.9,2.6,9.2,6.3,9.2
					c2.3,0,4.1-0.7,6-2.2v0.2c-2.1,2.7-6,3.7-8.7,3.7C127.3,141.6,122,137.7,122,130.8z M131.3,129.1c3.6,0,5.1-1.1,5.1-4.6
					c0-2-0.8-3.8-2.7-4v-0.2c5.4,0,8,3.9,8,7c0,0.7-0.1,1.5-0.2,2.1h-10.3V129.1z"/>
			</g>
		</g>
	</g>
</g>
</svg>
