<?xml version="1.0" encoding="utf-8"?>
<!-- Generator: Adobe Illustrator 24.0.3, SVG Export Plug-In . SVG Version: 6.00 Build 0)  -->
<svg version="1.1" id="Layer_1" xmlns="http://www.w3.org/2000/svg" xmlns:xlink="http://www.w3.org/1999/xlink" x="0px" y="0px"
	 viewBox="0 0 320 480" style="enable-background:new 0 0 320 480;" xml:space="preserve">
<style type="text/css">
	.st0{enable-background:new    ;}
	.st1{fill:#263845;}
	.st2{fill:none;}
</style>
<title>Artboard 1</title>
<g class="st0">
	<path class="st1" d="M26.9,57c2.5,0,3.1-1,3.1-2.1V31.7c0-1.1-0.6-2.1-3.1-2.1v-0.2H40v0.2c-2.5,0-3.1,1-3.1,2.1v23.2
		C37,56,37.6,57,40,57v0.2H26.9V57z"/>
</g>
<g class="st0">
	<path class="st1" d="M50.1,52.4c-1.4,0-2.3,0.8-2.3,2.1c0,1.2,0.8,2.7,3.7,3v0.2C46,57.5,43,56,43,53.6c0-1.9,1.6-3,3.5-3
		C48.1,50.6,49.5,51.4,50.1,52.4z M51.5,36.6c-1.5,0.3-3,1.1-3,2.8c0.1,4.8,13.4,5.5,13.4,12.1c0,4-3.4,6.1-8.7,6.3v-0.2
		c1.7-0.3,3.7-0.9,3.7-3c0-4.3-13.5-5.8-13.5-12.1c0-3.6,3.4-5.8,8-6V36.6z M61.1,40.6c0,1.3-1,2.5-3,2.5c-1.7,0-3-0.7-3.5-2
		c1.2-0.1,1.9-0.9,1.8-1.9c0-1.2-1.6-2.4-3.2-2.6v-0.2C57.9,36.6,61.1,38.3,61.1,40.6z"/>
</g>
<g class="st0">
	<path class="st1" d="M74.8,38.4c-0.4-0.9-1-1.4-2.3-1.4v-0.2H84V37c-1.4,0-2,1-1.3,2.4l5.4,11.2l-3.5,6.7h-0.2L74.8,38.4z M73,63.9
		c0-1.8,1.4-3.2,3.6-3.9c-0.1,0.4-0.2,0.7-0.2,1c0,1.6,0.8,2.8,2.4,2.8c1.4,0,2.6-1.5,4.1-4.1h0.3c-2.3,4.2-3.8,7.9-6.7,7.9
		C74.3,67.5,73,66,73,63.9z M89.8,46.6c0.7-1.3,1.1-3.1,1.1-5.3c0-2.3-1.3-4.3-4.2-4.3v-0.2H97V37c-1.4,0-1.9,0.5-2.7,1.9l-4.3,8
		L89.8,46.6z"/>
</g>
<g class="st0">
	<path class="st1" d="M107.4,36.6c-2.4,0.3-3.2,2.3-3.2,10.3c0,7.7,0.8,10.3,3.2,10.5v0.2c-4.7,0-10.2-3.9-10.2-10.8
		s5.4-10.6,10.2-10.6V36.6z M119.2,46.9c0,6.9-5.5,10.8-10.2,10.8v-0.2c2.4-0.2,3.2-2.8,3.2-10.5c0-8-0.8-10.1-3.2-10.3v-0.2
		C113.8,36.3,119.2,40,119.2,46.9z"/>
	<path class="st1" d="M131.4,51.9c0,2.3,0.8,3.5,2.8,3.5c1.1,0,1.9-0.3,2.8-1.3v0.2c-0.9,1.8-3,3.3-6.4,3.3c-3.7,0-6.1-1.7-6.1-5.8
		V40.4c0-1.5-0.7-2.2-3-2.2v-0.2c3.8,0,6.9-0.4,9.8-1.6V51.9z M145,54.5c0,1.2,0.4,1.7,1.1,1.7c0.6,0,1.3-0.6,2-1.8h0.2
		c-0.7,2.3-2.9,3.3-5.6,3.3c-2.9,0-4.5-1.6-4.5-4V40.4c0-1.5-0.7-2.2-2.9-2.2v-0.2c3.7,0,6.2-0.4,9.7-1.6V54.5z"/>
</g>
<g class="st0">
	<path class="st1" d="M159.9,54.9c0,1,0.6,2.1,3.1,2.1v0.2H150V57c2.5,0,3.1-1.1,3.1-2.1V40.4c0-1.5-0.7-2.2-3-2.2v-0.2
		c3.8,0,6.9-0.4,9.8-1.6V54.9z M170.9,40.8c0,2.8-2,4.7-4.2,4.7c-1,0-1.8-0.2-2.3-0.9c0.8-0.4,1.6-1.3,1.6-2.8
		c0-1.2-0.9-2.2-2.3-2.2c-1.1,0-1.9,0.6-2.5,1.6v-0.3c0.8-2.6,2.8-4.4,5.3-4.4C169.4,36.3,170.9,38.3,170.9,40.8z"/>
</g>
<g class="st0">
	<path class="st1" d="M37.4,77.6c-2.4,0.3-3.5,2.3-3.5,10.2c0,5.9,3,9.2,6.7,9.2c2.3,0,4.1-0.7,6-2.2v0.2c-2.1,2.7-6,3.7-8.7,3.7
		c-5.3,0-11-3.9-11-10.8s5.7-10.6,10.5-10.6V77.6z M46.5,82c0,2.2-1.5,3.9-4.1,3.9c-2,0-3.3-1.3-3.6-2.6c1.1-0.5,2-1.9,2-3
		c0-0.9-0.2-2.4-1.8-2.7v-0.3C44.4,77.4,46.5,79.7,46.5,82z"/>
	<path class="st1" d="M49.2,93.5c0-3.6,3.3-5.6,7.9-5.6h4.4v0.2h-1.2c-3,0-4.4,1.9-4.4,4.5c0,2.3,0.7,4,2.6,4c1.1,0,2.1-0.6,3-1.4
		v0.2c-1.4,1.6-3.5,3.3-6.5,3.3C51.5,98.8,49.1,96.8,49.2,93.5z M50.8,81.9c0-2.1,1.9-4.2,7.5-4.5v0.2c-1.6,0.2-2.6,1.6-2.6,3
		c0,1.5,1,2.4,2.7,2.5c-0.6,1.1-2.3,2-3.9,2C52.1,85.1,50.8,83.6,50.8,81.9z M62.7,94.1V81.5c0-2-0.8-3.6-2.8-3.9v-0.2
		c6.8,0.2,9.5,2.8,9.5,8.2v10c0,1.2,0.4,1.7,1.1,1.7c0.6,0,1.3-0.6,2-1.8h0.2c-0.7,2.3-2.9,3.3-5.3,3.3
		C64.2,98.8,62.7,97.6,62.7,94.1z"/>
	<path class="st1" d="M83.9,96c0,1,0.6,2.1,3.1,2.1v0.2H74.1v-0.2c2.5,0,3.1-1.1,3.1-2.1V81.4c0-1.5-0.7-2.2-3-2.2V79
		c3.8,0,6.9-0.4,9.8-1.6V96z M95,81.8c0,2.8-2,4.7-4.2,4.7c-1,0-1.8-0.2-2.3-0.9c0.8-0.4,1.6-1.3,1.6-2.8c0-1.2-0.9-2.2-2.3-2.2
		c-1.1,0-1.9,0.6-2.5,1.6v-0.3c0.8-2.6,2.8-4.4,5.3-4.4C93.5,77.4,95,79.4,95,81.8z"/>
	<path class="st1" d="M114,93.5c-1.4,0-2.3,0.8-2.3,2.1c0,1.2,0.8,2.7,3.7,3v0.2c-5.5-0.2-8.5-1.7-8.5-4.1c0-1.9,1.6-3,3.5-3
		C112,91.6,113.4,92.4,114,93.5z M115.3,77.6c-1.5,0.3-3,1.1-3,2.8c0.1,4.8,13.4,5.5,13.4,12.1c0,4-3.4,6.1-8.7,6.3v-0.2
		c1.7-0.3,3.7-0.9,3.7-3c0-4.3-13.5-5.8-13.5-12.1c0-3.6,3.4-5.8,8-6V77.6z M125,81.6c0,1.3-1,2.5-3,2.5c-1.7,0-3-0.7-3.5-2
		c1.2-0.1,1.9-0.9,1.8-1.9c0-1.2-1.6-2.4-3.2-2.6v-0.2C121.8,77.6,125,79.3,125,81.6z"/>
	<path class="st1" d="M138,104.6c0,1.5,0.7,2.2,3,2.2v0.2c-3.8,0-6.4,0.4-9.8,1.6V81.4c0-1.5-0.7-2.2-3-2.2V79
		c3.8,0,6.4-0.4,9.8-1.6V104.6z M153.7,87.9c0,8.6-4.5,10.9-8.4,10.9c-2.3,0-5-1.6-6-3.3v-0.2c1,0.8,2.1,1.4,3.4,1.4
		c1.9,0,4-1.4,4-8.7c0-7.4-1.9-8.4-4-8.4c-1.3,0-2.5,0.5-3.4,1.5v-0.3c1-1.7,3.7-3.3,6-3.3C149.2,77.4,153.7,79.7,153.7,87.9z"/>
	<path class="st1" d="M157.3,88c0-6.9,5.3-10.6,10.1-10.6v0.2c-2.4,0.3-3.1,2.3-3.1,10.2c0,5.9,2.6,9.2,6.3,9.2c2.3,0,4.1-0.7,6-2.2
		v0.2c-2.1,2.7-6,3.7-8.7,3.7C162.6,98.8,157.3,94.9,157.3,88z M166.5,86.3c3.6,0,5.1-1.1,5.1-4.6c0-2-0.8-3.8-2.7-4v-0.2
		c5.4,0,8,3.9,8,7c0,0.7-0.1,1.5-0.2,2.1h-10.3V86.3z"/>
	<path class="st1" d="M190.9,77.6c-2.4,0.3-3.5,2.3-3.5,10.2c0,5.9,3,9.2,6.7,9.2c2.3,0,4.1-0.7,6-2.2v0.2c-2.1,2.7-6,3.7-8.7,3.7
		c-5.3,0-11-3.9-11-10.8s5.7-10.6,10.5-10.6V77.6z M200,82c0,2.2-1.5,3.9-4.1,3.9c-2,0-3.3-1.3-3.6-2.6c1.1-0.5,2-1.9,2-3
		c0-0.9-0.2-2.4-1.8-2.7v-0.3C197.9,77.4,200,79.7,200,82z"/>
	<path class="st1" d="M202.4,79c3.8,0,6.9-0.4,9.8-1.6V96c0,1,0.6,2.1,3.1,2.1v0.2h-12.9v-0.2c2.5,0,3.1-1.1,3.1-2.1V81.4
		c0-1.5-0.7-2.2-3-2.2V79z M204.5,71.2c0-2.1,1.7-3.6,4.2-3.6s4.2,1.4,4.2,3.6c0,2.2-1.7,3.6-4.2,3.6S204.5,73.4,204.5,71.2z"/>
	<path class="st1" d="M217.4,93.5c0-3.6,3.3-5.6,7.9-5.6h4.4v0.2h-1.2c-3,0-4.4,1.9-4.4,4.5c0,2.3,0.7,4,2.6,4c1.1,0,2.1-0.6,3-1.4
		v0.2c-1.4,1.6-3.5,3.3-6.5,3.3C219.7,98.8,217.3,96.8,217.4,93.5z M219,81.9c0-2.1,1.9-4.2,7.5-4.5v0.2c-1.6,0.2-2.6,1.6-2.6,3
		c0,1.5,1,2.4,2.7,2.5c-0.6,1.1-2.3,2-3.9,2C220.3,85.1,219,83.6,219,81.9z M230.9,94.1V81.5c0-2-0.8-3.6-2.8-3.9v-0.2
		c6.8,0.2,9.5,2.8,9.5,8.2v10c0,1.2,0.4,1.7,1.2,1.7c0.6,0,1.3-0.6,2-1.8h0.2c-0.7,2.3-2.9,3.3-5.3,3.3
		C232.4,98.8,230.9,97.6,230.9,94.1z"/>
	<path class="st1" d="M242.1,69.8c3.8,0,6.9-0.4,9.8-1.6V96c0,1,0.6,2.1,3.1,2.1v0.2h-12.9v-0.2c2.5,0,3.1-1.1,3.1-2.1V72.2
		c0-1.5-0.7-2.2-3-2.2V69.8z"/>
	<path class="st1" d="M257,75.6c0-3.7,4.9-5.4,8.7-5.5v0.2c-2,0.6-2.9,2.3-2.9,4c0,1.5,0.6,2.8,2.3,3.5c-0.7,1-2.1,1.6-3.8,1.6
		C259.1,79.4,257,78.2,257,75.6z M263,97.4c0-2.3,1.8-3.7,4.4-3.7s4.4,1.5,4.4,3.7c0,2.3-1.8,3.8-4.4,3.8S263,99.7,263,97.4z
		 M264.1,85.8c0-4.6,6.5-6,6.5-11.2c0-2.2-0.8-3.6-3-4.4V70c5.7,0.4,9.9,2.2,9.9,6.8c0,5.6-8.9,7.4-8.9,11c0,1.1,0.4,1.8,1.5,2.4
		l0,0.2C266.1,90.4,264.1,88.3,264.1,85.8z"/>
</g>
<rect x="1" y="0" class="st2" width="320" height="480"/>
</svg>
