<svg id="Layer_1" data-name="Layer 1" xmlns="http://www.w3.org/2000/svg" viewBox="0 0 320 480"><defs><style>.cls-1{fill:#fff;}.cls-2{fill:none;}</style></defs><title>Artboard 1 copy</title><path class="cls-1" d="M24.15,58.82c2.1,0,2.62-.84,2.62-1.78V37.22c0-.94-.52-1.78-2.62-1.78v-.21h11.2v.21c-2.1,0-2.63.84-2.63,1.78V57c0,.94.53,1.78,2.63,1.78V59H24.15Z"/><path class="cls-1" d="M50.64,56.34v.21a7.32,7.32,0,0,1-6,2.83c-3.15,0-5.39-1.43-5.39-4.93V43H37.45l.38-.52h1.44V38.66a8.89,8.89,0,0,0,5.74-2v5.74h4.72l-.38.52H45V54.55c0,1.75.66,3.57,2.31,3.57A5.15,5.15,0,0,0,50.64,56.34Z"/><path class="cls-1" d="M60.37,58.82c2.1,0,2.63-.91,2.63-1.78V44.61c0-1.26-.6-1.86-2.6-1.86v-.21a21.51,21.51,0,0,0,8.37-1.36V57c0,.87.53,1.78,2.63,1.78V59h-11Zm12.32,0c2.07,0,2.59-.91,2.59-1.78V46.12c0-2-1-3-2.76-3a3.77,3.77,0,0,0-2.66,1.08V44a7.14,7.14,0,0,1,5.81-2.83c3.15,0,5.39,1.47,5.39,4.94V57c0,.87.52,1.78,2.62,1.78V59h-11Z"/><path class="cls-1" d="M85.57,50.21a8.66,8.66,0,0,1,8.58-9v.21c-2.07.24-2.63,2-2.63,8.68,0,5,2.24,7.81,5.36,7.81A7.62,7.62,0,0,0,102,56v.21c-1.82,2.31-5.15,3.15-7.42,3.15A8.87,8.87,0,0,1,85.57,50.21Zm7.88-1.47c3.08,0,4.37-1,4.37-3.92,0-1.68-.7-3.22-2.27-3.43v-.21c4.62,0,6.86,3.29,6.86,6a9.94,9.94,0,0,1-.18,1.82H93.45Z"/><path class="cls-1" d="M105.27,50.21a8.67,8.67,0,0,1,8.58-9v.21c-2.06.24-2.62,2-2.62,8.68,0,5,2.24,7.81,5.35,7.81A7.58,7.58,0,0,0,121.69,56v.21c-1.82,2.31-5.14,3.15-7.42,3.15A8.87,8.87,0,0,1,105.27,50.21Zm7.88-1.47c3.08,0,4.38-1,4.38-3.92,0-1.68-.7-3.22-2.28-3.43v-.21c4.62,0,6.86,3.29,6.86,6a10.9,10.9,0,0,1-.17,1.82h-8.79Z"/><path class="cls-1" d="M137.41,44v.28A3.86,3.86,0,0,0,134.5,43c-1.75,0-3.43.81-3.43,7.15s1.79,7.45,3.43,7.45a4.86,4.86,0,0,0,2.91-1.22v.21a6.51,6.51,0,0,1-5.08,2.83c-3.33,0-7.21-2-7.21-9.27,0-7,3.82-8.93,7.21-8.93A6.49,6.49,0,0,1,137.41,44Zm6.82,12.71c0,1,.32,1.43,1,1.43s1.12-.52,1.68-1.57h.21c-.56,1.92-2.45,2.83-4.55,2.83-2.8,0-4.06-1-4.06-4V36.73c0-1.26-.6-1.85-2.59-1.85v-.21a22.83,22.83,0,0,0,8.36-1.37Z"/><path class="cls-1" d="M155.18,54.87a1.79,1.79,0,0,0-2,1.75c0,1,.7,2.31,3.12,2.55v.21c-4.66-.17-7.21-1.43-7.21-3.46a2.73,2.73,0,0,1,3-2.59A3.55,3.55,0,0,1,155.18,54.87Zm1.16-13.48c-1.3.24-2.56.91-2.52,2.34.1,4.06,11.45,4.73,11.45,10.3,0,3.39-2.87,5.18-7.39,5.35v-.21c1.47-.24,3.12-.77,3.12-2.59,0-3.64-11.49-5-11.49-10.29,0-3.08,2.91-4.94,6.83-5.11Zm8.26,3.4A2.29,2.29,0,0,1,162,47a3,3,0,0,1-3-1.69,1.54,1.54,0,0,0,1.58-1.64c0-1.05-1.33-2.07-2.73-2.24v-.21C161.84,41.39,164.6,42.82,164.6,44.79Z"/><path class="cls-1" d="M30.2,93.87a1.79,1.79,0,0,0-2,1.75c0,1,.7,2.31,3.12,2.55v.21c-4.66-.17-7.21-1.43-7.21-3.46a2.73,2.73,0,0,1,3-2.59A3.55,3.55,0,0,1,30.2,93.87Zm1.16-13.48c-1.3.24-2.56.91-2.52,2.34.1,4.06,11.44,4.73,11.44,10.3,0,3.39-2.87,5.18-7.38,5.35v-.21c1.47-.24,3.11-.77,3.11-2.59,0-3.64-11.48-5-11.48-10.29,0-3.08,2.91-4.94,6.83-5.11Zm8.26,3.4A2.29,2.29,0,0,1,37,86a3,3,0,0,1-3-1.69,1.55,1.55,0,0,0,1.58-1.64c0-1-1.33-2.07-2.73-2.24v-.21C36.85,80.39,39.62,81.82,39.62,83.79Z"/><path class="cls-1" d="M50.68,103.35c0,1.26.59,1.86,2.59,1.86v.21a23.06,23.06,0,0,0-8.37,1.36V83.58c0-1.27-.59-1.86-2.59-1.86v-.21a22.85,22.85,0,0,0,8.37-1.37ZM64,89.11c0,7.31-3.85,9.27-7.17,9.27a6.54,6.54,0,0,1-5.11-2.83v-.21a4.92,4.92,0,0,0,2.94,1.22c1.64,0,3.39-1.15,3.39-7.45S56.42,82,54.67,82a3.91,3.91,0,0,0-2.94,1.3V83a6.51,6.51,0,0,1,5.11-2.8C60.23,80.18,64,82.14,64,89.11Z"/><path class="cls-1" d="M67.09,89.21a8.66,8.66,0,0,1,8.58-9v.21c-2.07.24-2.63,2-2.63,8.68,0,5,2.24,7.81,5.36,7.81A7.62,7.62,0,0,0,83.51,95v.21c-1.82,2.31-5.15,3.15-7.42,3.15A8.87,8.87,0,0,1,67.09,89.21ZM75,87.74c3.08,0,4.37-1,4.37-3.92,0-1.68-.7-3.22-2.27-3.43v-.21c4.62,0,6.86,3.29,6.86,5.95A9.94,9.94,0,0,1,83.75,88H75Z"/><path class="cls-1" d="M95.76,80.39c-2.07.24-3,2-3,8.68,0,5,2.56,7.81,5.67,7.81A7.58,7.58,0,0,0,103.56,95v.21c-1.82,2.31-5.14,3.15-7.42,3.15a9.15,9.15,0,0,1-9.35-9.17,9,9,0,0,1,9-9Zm7.77,3.74A3.26,3.26,0,0,1,100,87.5a3,3,0,0,1-3-2.21,3,3,0,0,0,1.68-2.56,2.08,2.08,0,0,0-1.5-2.31v-.24C101.74,80.18,103.53,82.14,103.53,84.13Z"/><path class="cls-1" d="M105.59,81.51A21.3,21.3,0,0,0,114,80.14V96c0,.87.53,1.78,2.63,1.78V98h-11v-.21c2.1,0,2.63-.91,2.63-1.78V83.58c0-1.27-.6-1.86-2.59-1.86Zm1.78-6.58c0-1.82,1.47-3.05,3.57-3.05s3.58,1.23,3.58,3.05S113,78,110.94,78,107.37,76.78,107.37,74.93Z"/><path class="cls-1" d="M118.33,93.9c0-3,2.8-4.76,6.72-4.76h3.78v.21h-1.05c-2.52,0-3.71,1.65-3.71,3.82,0,1.92.56,3.39,2.2,3.39a3.84,3.84,0,0,0,2.56-1.22v.21a7.43,7.43,0,0,1-5.57,2.83C120.29,98.38,118.29,96.7,118.33,93.9Zm1.4-9.9c0-1.79,1.61-3.61,6.37-3.82v.21a2.55,2.55,0,0,0-2.24,2.55c0,1.27.87,2,2.27,2.14a3.93,3.93,0,0,1-3.36,1.68A2.8,2.8,0,0,1,119.73,84Zm10.15,10.43V83.71c0-1.71-.66-3.08-2.38-3.32v-.21c5.81.21,8.12,2.41,8.12,7v8.51c0,1,.35,1.43,1,1.43s1.12-.52,1.68-1.57h.21c-.56,1.92-2.45,2.83-4.55,2.83C131.14,98.38,129.88,97.4,129.88,94.43Z"/><path class="cls-1" d="M139.4,73.67a21.3,21.3,0,0,0,8.36-1.37V96c0,.87.53,1.78,2.63,1.78V98h-11v-.21c2.1,0,2.63-.91,2.63-1.78V75.73c0-1.26-.6-1.85-2.59-1.85Z"/><path class="cls-1" d="M151.93,81.51a21.3,21.3,0,0,0,8.36-1.37V96c0,.87.53,1.78,2.63,1.78V98h-11v-.21c2.1,0,2.63-.91,2.63-1.78V83.58c0-1.27-.6-1.86-2.59-1.86Zm1.78-6.58c0-1.82,1.47-3.05,3.57-3.05s3.57,1.23,3.57,3.05S159.38,78,157.28,78,153.71,76.78,153.71,74.93Z"/><path class="cls-1" d="M171.11,93.87a1.79,1.79,0,0,0-2,1.75c0,1,.7,2.31,3.11,2.55v.21c-4.65-.17-7.21-1.43-7.21-3.46a2.73,2.73,0,0,1,3-2.59A3.56,3.56,0,0,1,171.11,93.87Zm1.15-13.48c-1.29.24-2.55.91-2.52,2.34.11,4.06,11.45,4.73,11.45,10.3,0,3.39-2.87,5.18-7.39,5.35v-.21c1.47-.24,3.12-.77,3.12-2.59,0-3.64-11.48-5-11.48-10.29,0-3.08,2.9-4.94,6.82-5.11Zm8.26,3.4A2.29,2.29,0,0,1,177.93,86a3,3,0,0,1-3-1.69,1.54,1.54,0,0,0,1.57-1.64c0-1-1.33-2.07-2.73-2.24v-.21C177.76,80.39,180.52,81.82,180.52,83.79Z"/><path class="cls-1" d="M197.08,95.34v.21a7.32,7.32,0,0,1-6,2.83c-3.15,0-5.39-1.43-5.39-4.93V82h-1.82l.39-.52h1.43V77.66a8.85,8.85,0,0,0,5.74-2v5.74h4.73l-.39.52h-4.34V93.55c0,1.75.67,3.57,2.31,3.57A5.2,5.2,0,0,0,197.08,95.34Z"/><path class="cls-1" d="M23.55,120.51a21.36,21.36,0,0,0,8.37-1.37V135c0,.87.52,1.78,2.62,1.78V137h-11v-.21c2.1,0,2.62-.91,2.62-1.78V122.58c0-1.27-.59-1.86-2.59-1.86Zm1.79-6.58c0-1.82,1.47-3.05,3.57-3.05s3.57,1.23,3.57,3.05S31,117,28.91,117,25.34,115.78,25.34,113.93Z"/><path class="cls-1" d="M36,136.82c2.1,0,2.63-.91,2.63-1.78V122.61c0-1.26-.6-1.86-2.6-1.86v-.21a21.51,21.51,0,0,0,8.37-1.36V135c0,.87.53,1.78,2.63,1.78V137H36Zm12.32,0c2.07,0,2.59-.91,2.59-1.78V124.12c0-2-1-3-2.76-3a3.77,3.77,0,0,0-2.66,1.08V122a7.14,7.14,0,0,1,5.81-2.83c3.15,0,5.39,1.47,5.39,4.94V135c0,.87.52,1.78,2.62,1.78V137h-11Z"/><path class="cls-1" d="M67.3,132.87a1.79,1.79,0,0,0-2,1.75c0,1,.7,2.31,3.12,2.55v.21c-4.66-.17-7.21-1.43-7.21-3.46a2.73,2.73,0,0,1,3-2.59A3.55,3.55,0,0,1,67.3,132.87Zm1.16-13.48c-1.3.24-2.56.91-2.52,2.34.1,4.06,11.44,4.73,11.44,10.3,0,3.39-2.87,5.18-7.38,5.35v-.21c1.47-.24,3.11-.77,3.11-2.59,0-3.64-11.48-5-11.48-10.29,0-3.08,2.91-4.94,6.83-5.11Zm8.26,3.4A2.29,2.29,0,0,1,74.13,125a3,3,0,0,1-3-1.69,1.55,1.55,0,0,0,1.58-1.64c0-1-1.33-2.07-2.73-2.24v-.21C74,119.39,76.72,120.82,76.72,122.79Z"/><path class="cls-1" d="M87.71,132.45c0,2,.66,3,2.41,3a3.11,3.11,0,0,0,2.42-1.08v.21a5.85,5.85,0,0,1-5.43,2.83c-3.15,0-5.18-1.47-5.18-4.93v-9.84c0-1.26-.6-1.86-2.59-1.86v-.21a21.54,21.54,0,0,0,8.37-1.36Zm11.65,2.24c0,1,.32,1.43,1,1.43s1.12-.52,1.68-1.57h.21c-.56,1.92-2.45,2.83-4.76,2.83S93.59,136,93.59,134V122.61c0-1.26-.6-1.86-2.49-1.86v-.21a22.86,22.86,0,0,0,8.26-1.36Z"/><path class="cls-1" d="M112,135c0,.87.53,1.78,2.63,1.78V137h-11v-.21c2.1,0,2.63-.91,2.63-1.78V122.61c0-1.26-.6-1.86-2.59-1.86v-.21a21.49,21.49,0,0,0,8.36-1.36ZM121.45,123a3.75,3.75,0,0,1-3.61,4,2.37,2.37,0,0,1-2-.77,2.57,2.57,0,0,0,1.36-2.38,1.86,1.86,0,0,0-2-1.89,2.4,2.4,0,0,0-2.1,1.33V123a4.84,4.84,0,0,1,4.55-3.78A3.55,3.55,0,0,1,121.45,123Z"/><path class="cls-1" d="M123,132.9c0-3,2.8-4.76,6.72-4.76h3.78v.21h-1c-2.52,0-3.71,1.65-3.71,3.82,0,1.92.56,3.39,2.21,3.39a3.82,3.82,0,0,0,2.55-1.22v.21a7.43,7.43,0,0,1-5.56,2.83C124.91,137.38,122.91,135.7,123,132.9Zm1.4-9.9c0-1.79,1.61-3.61,6.37-3.82v.21a2.55,2.55,0,0,0-2.24,2.55c0,1.27.88,2,2.28,2.14a3.94,3.94,0,0,1-3.36,1.68A2.81,2.81,0,0,1,124.35,123Zm10.15,10.43V122.71c0-1.71-.66-3.08-2.38-3.32v-.21c5.81.21,8.12,2.41,8.12,7v8.51c0,1,.35,1.43,1,1.43s1.12-.52,1.68-1.57h.21c-.56,1.92-2.45,2.83-4.55,2.83C135.76,137.38,134.5,136.4,134.5,133.43Z"/><path class="cls-1" d="M144.19,136.82c2.1,0,2.63-.91,2.63-1.78V122.61c0-1.26-.6-1.86-2.59-1.86v-.21a21.49,21.49,0,0,0,8.36-1.36V135c0,.87.53,1.78,2.63,1.78V137h-11Zm12.33,0c2.06,0,2.59-.91,2.59-1.78V124.12c0-2-1-3-2.77-3a3.77,3.77,0,0,0-2.66,1.08V122a7.14,7.14,0,0,1,5.81-2.83c3.15,0,5.39,1.47,5.39,4.94V135c0,.87.53,1.78,2.63,1.78V137h-11Z"/><path class="cls-1" d="M178.36,119.39c-2.07.24-3,2-3,8.68,0,5,2.56,7.81,5.67,7.81a7.58,7.58,0,0,0,5.11-1.86v.21c-1.82,2.31-5.14,3.15-7.42,3.15a9.15,9.15,0,0,1-9.35-9.17,9,9,0,0,1,9-9Zm7.77,3.74a3.26,3.26,0,0,1-3.5,3.37,3,3,0,0,1-3-2.21,3,3,0,0,0,1.68-2.56,2.08,2.08,0,0,0-1.51-2.31v-.24C184.34,119.18,186.13,121.14,186.13,123.13Z"/><path class="cls-1" d="M188.75,128.21a8.66,8.66,0,0,1,8.57-9v.21c-2.06.24-2.62,2-2.62,8.68,0,5,2.24,7.81,5.36,7.81a7.62,7.62,0,0,0,5.11-1.86v.21c-1.82,2.31-5.15,3.15-7.43,3.15A8.87,8.87,0,0,1,188.75,128.21Zm7.87-1.47c3.08,0,4.38-1,4.38-3.92,0-1.68-.7-3.22-2.27-3.43v-.21c4.62,0,6.86,3.29,6.86,5.95a9.94,9.94,0,0,1-.18,1.82h-8.79Z"/><rect class="cls-2" x="0.62" width="320" height="480"/></svg>