<?xml version="1.0" encoding="utf-8"?>
<!-- Generator: Adobe Illustrator 24.0.3, SVG Export Plug-In . SVG Version: 6.00 Build 0)  -->
<svg version="1.1" id="Layer_1" xmlns="http://www.w3.org/2000/svg" xmlns:xlink="http://www.w3.org/1999/xlink" x="0px" y="0px"
	 viewBox="0 0 320 480" style="enable-background:new 0 0 320 480;" xml:space="preserve">
<style type="text/css">
	.st0{enable-background:new    ;}
	.st1{fill:#FFFFFF;}
	.st2{fill:none;}
</style>
<title>Artboard 1 copy</title>
<g class="st0">
	<path class="st1" d="M24.4,58.8c2.5,0,3.1-1,3.1-2.1V33.4c0-1.1-0.6-2.1-3.1-2.1v-0.2h13.1v0.2c-2.5,0-3.1,1-3.1,2.1v23.2
		c0,1.1,0.6,2.1,3.1,2.1V59H24.4V58.8z"/>
</g>
<g class="st0">
	<path class="st1" d="M55.5,55.9v0.2c-1.3,1.9-3.9,3.3-7,3.3c-3.7,0-6.3-1.7-6.3-5.8V40.2H40l0.5-0.6h1.7v-4.4c2.5,0,5-0.8,6.7-2.3
		v6.7h5.5L54,40.2h-5.1v13.6c0,2.1,0.8,4.2,2.7,4.2C52.7,58,54.1,57.2,55.5,55.9z"/>
	<path class="st1" d="M66.9,58.8c2.5,0,3.1-1.1,3.1-2.1V42.1c0-1.5-0.7-2.2-3-2.2v-0.2c3.8,0,6.9-0.4,9.8-1.6v18.6
		c0,1,0.6,2.1,3.1,2.1V59H66.9V58.8z M81.4,58.8c2.4,0,3-1.1,3-2.1V43.9c0-2.3-1.2-3.5-3.2-3.5c-1.1,0-2.1,0.4-3.1,1.3v-0.2
		c1.1-1.7,3.8-3.3,6.8-3.3c3.7,0,6.3,1.7,6.3,5.8v12.8c0,1,0.6,2.1,3.1,2.1V59H81.4V58.8z"/>
	<path class="st1" d="M96.5,48.7c0-6.9,5.3-10.6,10.1-10.6v0.2c-2.4,0.3-3.1,2.3-3.1,10.2c0,5.9,2.6,9.2,6.3,9.2
		c2.3,0,4.1-0.7,6-2.2v0.2c-2.1,2.7-6,3.7-8.7,3.7C101.8,59.4,96.5,55.6,96.5,48.7z M105.7,47c3.6,0,5.1-1.1,5.1-4.6
		c0-2-0.8-3.8-2.7-4v-0.2c5.4,0,8,3.9,8,7c0,0.7-0.1,1.5-0.2,2.1h-10.3V47z"/>
	<path class="st1" d="M119.6,48.7c0-6.9,5.3-10.6,10.1-10.6v0.2c-2.4,0.3-3.1,2.3-3.1,10.2c0,5.9,2.6,9.2,6.3,9.2
		c2.3,0,4.1-0.7,6-2.2v0.2c-2.1,2.7-6,3.7-8.7,3.7C124.9,59.4,119.6,55.6,119.6,48.7z M128.8,47c3.6,0,5.1-1.1,5.1-4.6
		c0-2-0.8-3.8-2.7-4v-0.2c5.4,0,8,3.9,8,7c0,0.7-0.1,1.5-0.2,2.1h-10.3V47z"/>
	<path class="st1" d="M157.3,41.4v0.3c-0.9-1-2.1-1.5-3.4-1.5c-2.1,0-4,0.9-4,8.4c0,7.4,2.1,8.7,4,8.7c1.3,0,2.4-0.7,3.4-1.4v0.2
		c-1,1.7-3.6,3.3-6,3.3c-3.9,0-8.5-2.3-8.5-10.9c0-8.2,4.5-10.5,8.5-10.5C153.7,38.1,156.2,39.6,157.3,41.4z M165.3,56.3
		c0,1.2,0.4,1.7,1.1,1.7c0.6,0,1.3-0.6,2-1.8h0.2c-0.7,2.3-2.9,3.3-5.3,3.3c-3.3,0-4.8-1.1-4.8-4.6V32.9c0-1.5-0.7-2.2-3-2.2v-0.2
		c3.8,0,6.4-0.4,9.8-1.6V56.3z"/>
	<path class="st1" d="M178.1,54.1c-1.4,0-2.3,0.8-2.3,2.1c0,1.2,0.8,2.7,3.7,3v0.2c-5.5-0.2-8.5-1.7-8.5-4.1c0-1.9,1.6-3,3.5-3
		C176.2,52.3,177.5,53.1,178.1,54.1z M179.5,38.3c-1.5,0.3-3,1.1-3,2.8c0.1,4.8,13.4,5.5,13.4,12.1c0,4-3.4,6.1-8.7,6.3v-0.2
		c1.7-0.3,3.7-0.9,3.7-3c0-4.3-13.5-5.8-13.5-12.1c0-3.6,3.4-5.8,8-6V38.3z M189.2,42.3c0,1.3-1,2.5-3,2.5c-1.7,0-3-0.7-3.5-2
		c1.2-0.1,1.9-0.9,1.8-1.9c0-1.2-1.6-2.4-3.2-2.6v-0.2C185.9,38.3,189.2,40,189.2,42.3z"/>
</g>
<g class="st0">
	<path class="st1" d="M31.5,95.2c-1.4,0-2.3,0.8-2.3,2.1c0,1.2,0.8,2.7,3.7,3v0.2c-5.5-0.2-8.5-1.7-8.5-4.1c0-1.9,1.6-3,3.5-3
		C29.5,93.4,30.9,94.2,31.5,95.2z M32.9,79.4c-1.5,0.3-3,1.1-3,2.8c0.1,4.8,13.4,5.5,13.4,12.1c0,4-3.4,6.1-8.7,6.3v-0.2
		c1.7-0.3,3.7-0.9,3.7-3c0-4.3-13.5-5.8-13.5-12.1c0-3.6,3.4-5.8,8-6V79.4z M42.6,83.4c0,1.3-1,2.5-3,2.5c-1.7,0-3-0.7-3.5-2
		c1.2-0.1,1.9-0.9,1.8-1.9c0-1.2-1.6-2.4-3.2-2.6v-0.2C39.3,79.4,42.6,81.1,42.6,83.4z"/>
	<path class="st1" d="M55.5,106.3c0,1.5,0.7,2.2,3,2.2v0.2c-3.8,0-6.4,0.4-9.8,1.6V83.1c0-1.5-0.7-2.2-3-2.2v-0.2
		c3.8,0,6.4-0.4,9.8-1.6V106.3z M71.2,89.6c0,8.6-4.5,10.9-8.4,10.9c-2.3,0-5-1.6-6-3.3v-0.2c1,0.8,2.1,1.4,3.4,1.4
		c1.9,0,4-1.4,4-8.7c0-7.4-1.9-8.4-4-8.4c-1.3,0-2.5,0.5-3.4,1.5v-0.3c1-1.7,3.7-3.3,6-3.3C66.7,79.1,71.2,81.4,71.2,89.6z"/>
	<path class="st1" d="M74.8,89.7c0-6.9,5.3-10.6,10.1-10.6v0.2c-2.4,0.3-3.1,2.3-3.1,10.2c0,5.9,2.6,9.2,6.3,9.2
		c2.3,0,4.1-0.7,6-2.2v0.2c-2.1,2.7-6,3.7-8.7,3.7C80.1,100.5,74.8,96.6,74.8,89.7z M84,88c3.6,0,5.1-1.1,5.1-4.6c0-2-0.8-3.8-2.7-4
		v-0.2c5.4,0,8,3.9,8,7c0,0.7-0.1,1.5-0.2,2.1H84V88z"/>
	<path class="st1" d="M108.4,79.4c-2.4,0.3-3.5,2.3-3.5,10.2c0,5.9,3,9.2,6.7,9.2c2.3,0,4.1-0.7,6-2.2v0.2c-2.1,2.7-6,3.7-8.7,3.7
		c-5.3,0-11-3.9-11-10.8s5.7-10.6,10.5-10.6V79.4z M117.5,83.8c0,2.2-1.5,3.9-4.1,3.9c-2,0-3.3-1.3-3.6-2.6c1.1-0.5,2-1.9,2-3
		c0-0.9-0.2-2.4-1.8-2.7v-0.3C115.4,79.1,117.5,81.4,117.5,83.8z"/>
	<path class="st1" d="M120,80.7c3.8,0,6.9-0.4,9.8-1.6v18.6c0,1,0.6,2.1,3.1,2.1v0.2h-12.9v-0.2c2.5,0,3.1-1.1,3.1-2.1V83.1
		c0-1.5-0.7-2.2-3-2.2V80.7z M122,73c0-2.1,1.7-3.6,4.2-3.6c2.5,0,4.2,1.4,4.2,3.6c0,2.2-1.7,3.6-4.2,3.6
		C123.8,76.6,122,75.2,122,73z"/>
	<path class="st1" d="M134.9,95.2c0-3.6,3.3-5.6,7.9-5.6h4.4v0.2H146c-3,0-4.4,1.9-4.4,4.5c0,2.3,0.7,4,2.6,4c1.1,0,2.1-0.6,3-1.4
		v0.2c-1.4,1.6-3.5,3.3-6.5,3.3C137.2,100.5,134.9,98.5,134.9,95.2z M136.5,83.6c0-2.1,1.9-4.2,7.5-4.5v0.2c-1.6,0.2-2.6,1.6-2.6,3
		c0,1.5,1,2.4,2.7,2.5c-0.6,1.1-2.3,2-3.9,2C137.9,86.9,136.5,85.3,136.5,83.6z M148.4,95.9V83.3c0-2-0.8-3.6-2.8-3.9v-0.2
		c6.8,0.2,9.5,2.8,9.5,8.2v10c0,1.2,0.4,1.7,1.1,1.7c0.6,0,1.3-0.6,2-1.8h0.2c-0.7,2.3-2.9,3.3-5.3,3.3
		C149.9,100.5,148.4,99.4,148.4,95.9z"/>
	<path class="st1" d="M159.6,71.5c3.8,0,6.9-0.4,9.8-1.6v27.8c0,1,0.6,2.1,3.1,2.1v0.2h-12.9v-0.2c2.5,0,3.1-1.1,3.1-2.1V73.9
		c0-1.5-0.7-2.2-3-2.2V71.5z"/>
	<path class="st1" d="M174.3,80.7c3.8,0,6.9-0.4,9.8-1.6v18.6c0,1,0.6,2.1,3.1,2.1v0.2h-12.9v-0.2c2.5,0,3.1-1.1,3.1-2.1V83.1
		c0-1.5-0.7-2.2-3-2.2V80.7z M176.4,73c0-2.1,1.7-3.6,4.2-3.6c2.5,0,4.2,1.4,4.2,3.6c0,2.2-1.7,3.6-4.2,3.6
		C178.1,76.6,176.4,75.2,176.4,73z"/>
	<path class="st1" d="M196.8,95.2c-1.4,0-2.3,0.8-2.3,2.1c0,1.2,0.8,2.7,3.7,3v0.2c-5.5-0.2-8.5-1.7-8.5-4.1c0-1.9,1.6-3,3.5-3
		C194.8,93.4,196.2,94.2,196.8,95.2z M198.2,79.4c-1.5,0.3-3,1.1-3,2.8c0.1,4.8,13.4,5.5,13.4,12.1c0,4-3.4,6.1-8.7,6.3v-0.2
		c1.7-0.3,3.7-0.9,3.7-3c0-4.3-13.5-5.8-13.5-12.1c0-3.6,3.4-5.8,8-6V79.4z M207.9,83.4c0,1.3-1,2.5-3,2.5c-1.7,0-3-0.7-3.5-2
		c1.2-0.1,1.9-0.9,1.8-1.9c0-1.2-1.6-2.4-3.2-2.6v-0.2C204.6,79.4,207.9,81.1,207.9,83.4z"/>
	<path class="st1" d="M227.3,96.9v0.2c-1.3,1.9-3.9,3.3-7,3.3c-3.7,0-6.3-1.7-6.3-5.8V81.2h-2.1l0.5-0.6h1.7v-4.4
		c2.5,0,5-0.8,6.7-2.3v6.7h5.5l-0.5,0.6h-5.1v13.6c0,2.1,0.8,4.2,2.7,4.2C224.5,99,225.9,98.3,227.3,96.9z"/>
</g>
<g class="st0">
	<path class="st1" d="M23.7,121.8c3.8,0,6.9-0.4,9.8-1.6v18.6c0,1,0.6,2.1,3.1,2.1v0.2H23.7v-0.2c2.5,0,3.1-1.1,3.1-2.1v-14.6
		c0-1.5-0.7-2.2-3-2.2V121.8z M25.8,114c0-2.1,1.7-3.6,4.2-3.6c2.5,0,4.2,1.4,4.2,3.6c0,2.2-1.7,3.6-4.2,3.6
		C27.5,117.7,25.8,116.2,25.8,114z"/>
	<path class="st1" d="M38.3,140.9c2.5,0,3.1-1.1,3.1-2.1v-14.6c0-1.5-0.7-2.2-3-2.2v-0.2c3.8,0,6.9-0.4,9.8-1.6v18.6
		c0,1,0.6,2.1,3.1,2.1v0.2H38.3V140.9z M52.8,140.9c2.4,0,3-1.1,3-2.1V126c0-2.3-1.2-3.5-3.2-3.5c-1.1,0-2.1,0.4-3.1,1.3v-0.2
		c1.1-1.7,3.8-3.3,6.8-3.3c3.7,0,6.3,1.7,6.3,5.8v12.8c0,1,0.6,2.1,3.1,2.1v0.2H52.8V140.9z"/>
	<path class="st1" d="M75,136.3c-1.4,0-2.3,0.8-2.3,2.1c0,1.2,0.8,2.7,3.7,3v0.2c-5.5-0.2-8.5-1.7-8.5-4.1c0-1.9,1.6-3,3.5-3
		C73.1,134.5,74.4,135.2,75,136.3z M76.4,120.5c-1.5,0.3-3,1.1-3,2.8c0.1,4.8,13.4,5.5,13.4,12.1c0,4-3.4,6.1-8.7,6.3v-0.2
		c1.7-0.3,3.7-0.9,3.7-3c0-4.3-13.5-5.8-13.5-12.1c0-3.6,3.4-5.8,8-6V120.5z M86.1,124.4c0,1.3-1,2.5-3,2.5c-1.7,0-3-0.7-3.5-2
		c1.2-0.1,1.9-0.9,1.8-1.9c0-1.2-1.6-2.4-3.2-2.6v-0.2C82.8,120.5,86.1,122.1,86.1,124.4z"/>
	<path class="st1" d="M99,135.8c0,2.3,0.8,3.5,2.8,3.5c1.1,0,1.9-0.3,2.8-1.3v0.2c-0.9,1.8-3,3.3-6.4,3.3c-3.7,0-6.1-1.7-6.1-5.8
		v-11.5c0-1.5-0.7-2.2-3-2.2v-0.2c3.8,0,6.9-0.4,9.8-1.6V135.8z M112.6,138.4c0,1.2,0.4,1.7,1.1,1.7c0.6,0,1.3-0.6,2-1.8h0.2
		c-0.7,2.3-2.9,3.3-5.6,3.3c-2.9,0-4.5-1.6-4.5-4v-13.3c0-1.5-0.7-2.2-2.9-2.2v-0.2c3.7,0,6.2-0.4,9.7-1.6V138.4z"/>
</g>
<g class="st0">
	<path class="st1" d="M127.5,138.8c0,1,0.6,2.1,3.1,2.1v0.2h-12.9v-0.2c2.5,0,3.1-1.1,3.1-2.1v-14.6c0-1.5-0.7-2.2-3-2.2v-0.2
		c3.8,0,6.9-0.4,9.8-1.6V138.8z M138.5,124.6c0,2.8-2,4.7-4.2,4.7c-1,0-1.8-0.2-2.3-0.9c0.8-0.4,1.6-1.3,1.6-2.8
		c0-1.2-0.9-2.2-2.3-2.2c-1.1,0-1.9,0.6-2.5,1.6v-0.3c0.8-2.6,2.8-4.4,5.3-4.4C137,120.2,138.5,122.2,138.5,124.6z"/>
</g>
<g class="st0">
	<path class="st1" d="M140.3,136.3c0-3.6,3.3-5.6,7.9-5.6h4.4v0.2h-1.2c-3,0-4.4,1.9-4.4,4.5c0,2.3,0.7,4,2.6,4c1.1,0,2.1-0.6,3-1.4
		v0.2c-1.4,1.6-3.5,3.3-6.5,3.3C142.6,141.6,140.3,139.6,140.3,136.3z M142,124.7c0-2.1,1.9-4.2,7.5-4.5v0.2c-1.6,0.2-2.6,1.6-2.6,3
		c0,1.5,1,2.4,2.7,2.5c-0.6,1.1-2.3,2-3.9,2C143.3,127.9,142,126.4,142,124.7z M153.9,136.9v-12.6c0-2-0.8-3.6-2.8-3.9v-0.2
		c6.8,0.2,9.5,2.8,9.5,8.2v10c0,1.2,0.4,1.7,1.1,1.7c0.6,0,1.3-0.6,2-1.8h0.2c-0.7,2.3-2.9,3.3-5.3,3.3
		C155.3,141.6,153.9,140.4,153.9,136.9z"/>
	<path class="st1" d="M165.2,140.9c2.5,0,3.1-1.1,3.1-2.1v-14.6c0-1.5-0.7-2.2-3-2.2v-0.2c3.8,0,6.9-0.4,9.8-1.6v18.6
		c0,1,0.6,2.1,3.1,2.1v0.2h-12.9V140.9z M179.7,140.9c2.4,0,3-1.1,3-2.1V126c0-2.3-1.2-3.5-3.2-3.5c-1.1,0-2.1,0.4-3.1,1.3v-0.2
		c1.1-1.7,3.8-3.3,6.8-3.3c3.7,0,6.3,1.7,6.3,5.8v12.8c0,1,0.6,2.1,3.1,2.1v0.2h-12.9V140.9z"/>
	<path class="st1" d="M205.3,120.5c-2.4,0.3-3.5,2.3-3.5,10.2c0,5.9,3,9.2,6.7,9.2c2.3,0,4.1-0.7,6-2.2v0.2c-2.1,2.7-6,3.7-8.7,3.7
		c-5.3,0-11-3.9-11-10.8c0-6.9,5.7-10.6,10.5-10.6V120.5z M214.4,124.8c0,2.2-1.5,3.9-4.1,3.9c-2,0-3.3-1.3-3.6-2.6
		c1.2-0.5,2-1.9,2-3c0-0.9-0.2-2.4-1.8-2.7v-0.3C212.3,120.2,214.4,122.5,214.4,124.8z"/>
	<path class="st1" d="M217.5,130.8c0-6.9,5.3-10.6,10.1-10.6v0.2c-2.4,0.3-3.1,2.3-3.1,10.2c0,5.9,2.6,9.2,6.3,9.2
		c2.3,0,4.1-0.7,6-2.2v0.2c-2.1,2.7-6,3.7-8.7,3.7C222.8,141.6,217.5,137.7,217.5,130.8z M226.7,129.1c3.6,0,5.1-1.1,5.1-4.6
		c0-2-0.8-3.8-2.7-4v-0.2c5.4,0,8,3.9,8,7c0,0.7-0.1,1.5-0.2,2.1h-10.3V129.1z"/>
</g>
<rect x="0.6" y="0" class="st2" width="320" height="480"/>
</svg>
