<svg id="Layer_1" data-name="Layer 1" xmlns="http://www.w3.org/2000/svg" viewBox="0 0 320 480"><defs><style>.cls-1{fill:#263845;}.cls-2{fill:none;}</style></defs><title>Artboard 1</title><path class="cls-1" d="M26.64,101.82c2.1,0,2.63-.84,2.63-1.78V80.22c0-.94-.53-1.78-2.63-1.78v-.21H37.85v.21c-2.11,0-2.63.84-2.63,1.78V100c0,.94.52,1.78,2.63,1.78V102H26.64Z"/><path class="cls-1" d="M46.42,97.87a1.79,1.79,0,0,0-2,1.75c0,1,.7,2.31,3.12,2.55v.21c-4.66-.17-7.22-1.43-7.22-3.46a2.73,2.73,0,0,1,3-2.59A3.56,3.56,0,0,1,46.42,97.87Zm1.16-13.48c-1.3.24-2.56.91-2.53,2.34C45.16,90.79,56.5,91.46,56.5,97c0,3.39-2.87,5.18-7.38,5.35v-.21c1.47-.24,3.11-.77,3.11-2.59,0-3.64-11.48-5-11.48-10.29,0-3.08,2.9-4.94,6.83-5.11Zm8.26,3.4A2.29,2.29,0,0,1,53.25,90a3,3,0,0,1-3-1.69,1.55,1.55,0,0,0,1.58-1.64c0-1-1.33-2.07-2.73-2.24v-.21C53.07,84.39,55.84,85.82,55.84,87.79Z"/><path class="cls-1" d="M67.45,86a1.89,1.89,0,0,0-1.92-1.22v-.21h9.8v.21c-1.23,0-1.71.84-1.12,2.06l4.59,9.56-3,5.67h-.2Zm-1.54,21.71c0-1.51,1.19-2.77,3.08-3.29a2.77,2.77,0,0,0-.14.87,2.06,2.06,0,0,0,2.07,2.35c1.22,0,2.2-1.3,3.53-3.54h.25c-1.93,3.61-3.26,6.72-5.71,6.72A2.91,2.91,0,0,1,65.91,107.67ZM80.27,92.93a9.67,9.67,0,0,0,1-4.51,3.39,3.39,0,0,0-3.57-3.68v-.21h8.71v.21c-1.15,0-1.61.45-2.27,1.64l-3.64,6.87Z"/><path class="cls-1" d="M95.28,84.39c-2.07.24-2.77,2-2.77,8.82,0,6.58.7,8.75,2.77,9v.21a8.92,8.92,0,0,1-8.72-9.17,8.77,8.77,0,0,1,8.72-9Zm10.08,8.82a8.91,8.91,0,0,1-8.68,9.17v-.21c2.06-.21,2.73-2.41,2.73-9,0-6.86-.7-8.61-2.73-8.82v-.21A8.72,8.72,0,0,1,105.36,93.21Z"/><path class="cls-1" d="M115.68,97.45c0,2,.67,3,2.42,3a3.09,3.09,0,0,0,2.41-1.08v.21a5.83,5.83,0,0,1-5.42,2.83c-3.15,0-5.18-1.47-5.18-4.93V87.61c0-1.26-.6-1.86-2.59-1.86v-.21a21.49,21.49,0,0,0,8.36-1.36Zm11.66,2.24c0,1,.32,1.43.95,1.43s1.12-.52,1.68-1.57h.21c-.56,1.92-2.45,2.83-4.76,2.83s-3.85-1.4-3.85-3.43V87.61c0-1.26-.6-1.86-2.49-1.86v-.21a22.86,22.86,0,0,0,8.26-1.36Z"/><path class="cls-1" d="M140,100c0,.87.53,1.78,2.63,1.78V102h-11v-.21c2.1,0,2.63-.91,2.63-1.78V87.61c0-1.26-.6-1.86-2.59-1.86v-.21A21.49,21.49,0,0,0,140,84.18ZM149.43,88a3.75,3.75,0,0,1-3.61,4,2.36,2.36,0,0,1-2-.77,2.57,2.57,0,0,0,1.36-2.38,1.86,1.86,0,0,0-2-1.89,2.39,2.39,0,0,0-2.1,1.33V88a4.84,4.84,0,0,1,4.55-3.78A3.55,3.55,0,0,1,149.43,88Z"/><path class="cls-1" d="M35.57,119.39c-2.07.24-3,2-3,8.68,0,5,2.56,7.81,5.68,7.81A7.62,7.62,0,0,0,43.38,134v.21c-1.82,2.31-5.15,3.15-7.43,3.15a9.15,9.15,0,0,1-9.34-9.17,9,9,0,0,1,9-9Zm7.77,3.74a3.26,3.26,0,0,1-3.5,3.37,3,3,0,0,1-3-2.21,3,3,0,0,0,1.68-2.56A2.08,2.08,0,0,0,37,119.42v-.24C41.56,119.18,43.34,121.14,43.34,123.13Z"/><path class="cls-1" d="M45.61,132.9c0-3,2.8-4.76,6.72-4.76h3.79v.21H55.06c-2.52,0-3.71,1.65-3.71,3.82,0,1.92.56,3.39,2.21,3.39a3.86,3.86,0,0,0,2.56-1.22v.21a7.47,7.47,0,0,1-5.57,2.83C47.57,137.38,45.58,135.7,45.61,132.9ZM47,123c0-1.79,1.61-3.61,6.37-3.82v.21a2.55,2.55,0,0,0-2.24,2.55c0,1.27.88,2,2.28,2.14a3.94,3.94,0,0,1-3.36,1.68A2.81,2.81,0,0,1,47,123Zm10.15,10.43V122.71c0-1.71-.66-3.08-2.38-3.32v-.21c5.82.21,8.13,2.41,8.13,7v8.51c0,1,.35,1.43,1,1.43s1.12-.52,1.68-1.57h.21c-.56,1.92-2.45,2.83-4.55,2.83C58.43,137.38,57.16,136.4,57.16,133.43Z"/><path class="cls-1" d="M75.26,135c0,.87.52,1.78,2.62,1.78V137h-11v-.21c2.1,0,2.62-.91,2.62-1.78V122.61c0-1.26-.59-1.86-2.59-1.86v-.21a21.54,21.54,0,0,0,8.37-1.36ZM84.71,123a3.74,3.74,0,0,1-3.6,4,2.38,2.38,0,0,1-2-.77,2.57,2.57,0,0,0,1.36-2.38,1.86,1.86,0,0,0-2-1.89,2.4,2.4,0,0,0-2.1,1.33V123A4.85,4.85,0,0,1,81,119.18,3.55,3.55,0,0,1,84.71,123Z"/><path class="cls-1" d="M100.88,132.87a1.79,1.79,0,0,0-2,1.75c0,1,.7,2.31,3.11,2.55v.21c-4.65-.17-7.21-1.43-7.21-3.46a2.73,2.73,0,0,1,3-2.59A3.56,3.56,0,0,1,100.88,132.87ZM102,119.39c-1.29.24-2.55.91-2.52,2.34.11,4.06,11.45,4.73,11.45,10.3,0,3.39-2.87,5.18-7.39,5.35v-.21c1.47-.24,3.12-.77,3.12-2.59,0-3.64-11.48-5-11.48-10.29,0-3.08,2.9-4.94,6.82-5.11Zm8.27,3.4a2.3,2.3,0,0,1-2.6,2.17,3,3,0,0,1-3-1.69,1.54,1.54,0,0,0,1.57-1.64c0-1-1.33-2.07-2.73-2.24v-.21C107.53,119.39,110.3,120.82,110.3,122.79Z"/><path class="cls-1" d="M121.35,142.35c0,1.26.6,1.86,2.59,1.86v.21a23,23,0,0,0-8.36,1.36v-23.2c0-1.27-.6-1.86-2.59-1.86v-.21a22.83,22.83,0,0,0,8.36-1.37Zm13.34-14.24c0,7.31-3.85,9.27-7.18,9.27a6.57,6.57,0,0,1-5.11-2.83v-.21a5,5,0,0,0,2.94,1.22c1.65,0,3.4-1.15,3.4-7.45s-1.65-7.15-3.4-7.15a3.94,3.94,0,0,0-2.94,1.3V122a6.54,6.54,0,0,1,5.11-2.8C130.91,119.18,134.69,121.14,134.69,128.11Z"/><path class="cls-1" d="M137.77,128.21a8.66,8.66,0,0,1,8.57-9v.21c-2.06.24-2.62,2-2.62,8.68,0,5,2.24,7.81,5.35,7.81a7.58,7.58,0,0,0,5.11-1.86v.21c-1.82,2.31-5.14,3.15-7.42,3.15A8.87,8.87,0,0,1,137.77,128.21Zm7.87-1.47c3.08,0,4.38-1,4.38-3.92,0-1.68-.7-3.22-2.28-3.43v-.21c4.62,0,6.86,3.29,6.86,5.95a10.9,10.9,0,0,1-.17,1.82h-8.79Z"/><path class="cls-1" d="M166.43,119.39c-2.06.24-3,2-3,8.68,0,5,2.55,7.81,5.67,7.81a7.62,7.62,0,0,0,5.11-1.86v.21c-1.82,2.31-5.15,3.15-7.42,3.15a9.15,9.15,0,0,1-9.35-9.17,9,9,0,0,1,9-9Zm7.77,3.74a3.26,3.26,0,0,1-3.5,3.37,3,3,0,0,1-3-2.21,3,3,0,0,0,1.68-2.56,2.08,2.08,0,0,0-1.51-2.31v-.24C172.42,119.18,174.2,121.14,174.2,123.13Z"/><path class="cls-1" d="M176.27,120.51a21.3,21.3,0,0,0,8.36-1.37V135c0,.87.53,1.78,2.63,1.78V137h-11v-.21c2.1,0,2.63-.91,2.63-1.78V122.58c0-1.27-.6-1.86-2.59-1.86Zm1.78-6.58c0-1.82,1.47-3.05,3.57-3.05s3.57,1.23,3.57,3.05-1.47,3.08-3.57,3.08S178.05,115.78,178.05,113.93Z"/><path class="cls-1" d="M189,132.9c0-3,2.8-4.76,6.72-4.76h3.78v.21h-1c-2.52,0-3.71,1.65-3.71,3.82,0,1.92.56,3.39,2.2,3.39a3.84,3.84,0,0,0,2.56-1.22v.21a7.45,7.45,0,0,1-5.57,2.83C191,137.38,189,135.7,189,132.9Zm1.4-9.9c0-1.79,1.61-3.61,6.37-3.82v.21a2.55,2.55,0,0,0-2.24,2.55c0,1.27.87,2,2.27,2.14a3.93,3.93,0,0,1-3.36,1.68A2.8,2.8,0,0,1,190.41,123Zm10.15,10.43V122.71c0-1.71-.67-3.08-2.38-3.32v-.21c5.81.21,8.12,2.41,8.12,7v8.51c0,1,.35,1.43,1,1.43s1.12-.52,1.68-1.57h.21c-.56,1.92-2.45,2.83-4.55,2.83C201.82,137.38,200.56,136.4,200.56,133.43Z"/><path class="cls-1" d="M210.08,112.67a21.3,21.3,0,0,0,8.36-1.37V135c0,.87.53,1.78,2.63,1.78V137H210v-.21c2.1,0,2.63-.91,2.63-1.78V114.73c0-1.26-.6-1.85-2.59-1.85Z"/><path class="cls-1" d="M222.78,117.6c0-3.11,4.2-4.62,7.39-4.72v.21a3.47,3.47,0,0,0-2.49,3.39,3,3,0,0,0,2,3,3.84,3.84,0,0,1-3.22,1.4C224.6,120.89,222.78,119.88,222.78,117.6Zm5.15,18.59c0-1.92,1.54-3.18,3.74-3.18s3.75,1.26,3.75,3.18-1.54,3.22-3.75,3.22S227.93,138.15,227.93,136.19Zm.94-9.83c0-3.93,5.57-5.08,5.57-9.56a3.44,3.44,0,0,0-2.52-3.71v-.21c4.83.31,8.47,1.89,8.47,5.77,0,4.77-7.6,6.27-7.6,9.35a2.08,2.08,0,0,0,1.26,2l0,.21C230.52,130.24,228.87,128.49,228.87,126.36Z"/><rect class="cls-2" x="0.98" width="320" height="480"/></svg>