<svg id="Layer_1" data-name="Layer 1" xmlns="http://www.w3.org/2000/svg" xmlns:xlink="http://www.w3.org/1999/xlink" viewBox="0 0 320 480"><defs><style>.cls-1{fill:none;}.cls-2{clip-path:url(#clip-path);}.cls-3{fill:#fff;}</style><clipPath id="clip-path"><rect class="cls-1" x="0.36" width="320" height="480"/></clipPath></defs><title>Artboard 1 copy 2</title><g class="cls-2"><rect class="cls-1" x="0.36" width="320" height="480"/><path class="cls-3" d="M35.19,34.88v.21c-2.52.31-4.27,2.83-4.27,11.83s1.75,11.94,4.27,12.25v.21c-5-.28-11.13-4-11.13-12.25A12.13,12.13,0,0,1,35.19,34.88Zm1.71.21v-.21c3.61.17,5.6.7,7.18,1.64l1.09-1.64h.27v8.5h-.27A10.79,10.79,0,0,0,36.9,35.09ZM48.77,49v.21c-1.65,0-2.59.63-2.59,2.06v8.12H45.9l-1.26-2.1c-1.75,1.26-4.17,2-7.7,2.1v-.21c2.38-.17,3.74-1.43,3.74-4.27V51.26c0-1.43-.63-2.06-2.62-2.06V49Z"/><path class="cls-3" d="M50.9,50.21a8.66,8.66,0,0,1,8.58-9v.21c-2.07.24-2.63,2-2.63,8.68,0,5,2.24,7.81,5.36,7.81A7.62,7.62,0,0,0,67.32,56v.21c-1.82,2.31-5.15,3.15-7.42,3.15A8.87,8.87,0,0,1,50.9,50.21Zm7.88-1.47c3.08,0,4.37-1,4.37-3.92,0-1.68-.7-3.22-2.27-3.43v-.21c4.62,0,6.86,3.29,6.86,6A9.94,9.94,0,0,1,67.56,49H58.78Z"/><path class="cls-3" d="M83.56,56.34v.21a7.32,7.32,0,0,1-6,2.83c-3.15,0-5.39-1.43-5.39-4.93V43H70.36l.39-.52h1.43V38.66a8.85,8.85,0,0,0,5.74-2v5.74h4.73l-.39.52H77.92V54.55c0,1.75.67,3.57,2.31,3.57A5.2,5.2,0,0,0,83.56,56.34Z"/><path class="cls-3" d="M93.57,54.9c0-3,2.8-4.76,6.72-4.76h3.78v.21h-1c-2.52,0-3.71,1.65-3.71,3.82,0,1.92.56,3.39,2.2,3.39a3.84,3.84,0,0,0,2.56-1.22v.21a7.45,7.45,0,0,1-5.57,2.83C95.53,59.38,93.53,57.7,93.57,54.9ZM95,45c0-1.79,1.61-3.61,6.37-3.82v.21a2.55,2.55,0,0,0-2.24,2.55c0,1.27.87,2,2.27,2.14A3.93,3.93,0,0,1,98,47.76,2.8,2.8,0,0,1,95,45Zm10.15,10.43V44.71c0-1.71-.67-3.08-2.38-3.32v-.21c5.81.21,8.12,2.41,8.12,7v8.51c0,1,.35,1.43,1,1.43s1.12-.52,1.68-1.57h.21c-.56,1.92-2.45,2.83-4.55,2.83C106.38,59.38,105.12,58.4,105.12,55.43Z"/><path class="cls-3" d="M133.26,59.17v.21a13.24,13.24,0,0,1-6.79-1.71l-1.16,1.71H125V50.84h.28A11.73,11.73,0,0,0,133.26,59.17Zm10.29-7c0,4.51-3.36,7-8.79,7.17v-.21c1.93-.35,3.82-1.47,3.82-3.57,0-6.12-13.37-6.68-13.37-13.79,0-4.2,3.39-6.62,8-6.93v.21c-1.61.28-3.08,1.29-3.08,3.22C130.18,44.43,143.55,45.1,143.55,52.21Zm-8.79-17.12v-.21a11.28,11.28,0,0,1,6.3,1.85l1.26-1.85h.28v7.8h-.28A11.13,11.13,0,0,0,134.76,35.09Z"/><path class="cls-3" d="M159.51,56.34v.21a7.32,7.32,0,0,1-6,2.83c-3.15,0-5.39-1.43-5.39-4.93V43h-1.82l.39-.52h1.43V38.66a8.85,8.85,0,0,0,5.74-2v5.74h4.73l-.39.52h-4.34V54.55c0,1.75.67,3.57,2.31,3.57A5.2,5.2,0,0,0,159.51,56.34Z"/><path class="cls-3" d="M160.63,54.9c0-3,2.8-4.76,6.72-4.76h3.78v.21h-1c-2.52,0-3.71,1.65-3.71,3.82,0,1.92.56,3.39,2.2,3.39a3.84,3.84,0,0,0,2.56-1.22v.21a7.45,7.45,0,0,1-5.57,2.83C162.59,59.38,160.59,57.7,160.63,54.9ZM162,45c0-1.79,1.61-3.61,6.37-3.82v.21a2.55,2.55,0,0,0-2.24,2.55c0,1.27.87,2,2.27,2.14a3.93,3.93,0,0,1-3.36,1.68A2.8,2.8,0,0,1,162,45Zm10.15,10.43V44.71c0-1.71-.67-3.08-2.38-3.32v-.21c5.81.21,8.12,2.41,8.12,7v8.51c0,1,.35,1.43,1,1.43s1.12-.52,1.68-1.57h.21c-.56,1.92-2.45,2.83-4.55,2.83C173.44,59.38,172.18,58.4,172.18,55.43Z"/><path class="cls-3" d="M190.27,57c0,.87.53,1.78,2.63,1.78V59h-11v-.21c2.1,0,2.63-.91,2.63-1.78V44.61c0-1.26-.6-1.86-2.6-1.86v-.21a21.51,21.51,0,0,0,8.37-1.36ZM199.72,45a3.74,3.74,0,0,1-3.6,4,2.39,2.39,0,0,1-2-.77,2.56,2.56,0,0,0,1.37-2.38,1.86,1.86,0,0,0-2-1.89,2.39,2.39,0,0,0-2.1,1.33V45A4.84,4.84,0,0,1,196,41.18,3.55,3.55,0,0,1,199.72,45Z"/><path class="cls-3" d="M23.88,98v-.21c2.1,0,2.63-.8,2.63-1.78V76.26c0-1-.53-1.82-2.63-1.82v-.21h8.58V98Zm19.57-23.8V80.7h-.28c-1.51-4.41-3.64-5.91-9-6.26v-.21ZM34.21,85.82V85.6l1.92-.17a5.38,5.38,0,0,0,4.62-3H41v6.51h-.28A5.32,5.32,0,0,0,36.13,86Zm0,12C39.53,97.47,42,96,43.9,91.56h.28V98h-10Z"/><path class="cls-3" d="M46.77,97.82c2.1,0,2.63-.91,2.63-1.78V83.61c0-1.26-.6-1.86-2.59-1.86v-.21a21.49,21.49,0,0,0,8.36-1.36V96c0,.87.53,1.78,2.63,1.78V98h-11Zm12.32,0c2.07,0,2.59-.91,2.59-1.78V85.12c0-2-1-3-2.76-3a3.77,3.77,0,0,0-2.66,1.08V83a7.14,7.14,0,0,1,5.81-2.83c3.15,0,5.39,1.47,5.39,4.94V96c0,.87.52,1.78,2.62,1.78V98h-11Z"/><path class="cls-3" d="M84.92,95.34v.21a7.32,7.32,0,0,1-6,2.83c-3.15,0-5.39-1.43-5.39-4.93V82H71.73l.38-.52h1.44V77.66a8.89,8.89,0,0,0,5.74-2v5.74H84l-.38.52H79.29V93.55c0,1.75.66,3.57,2.31,3.57A5.15,5.15,0,0,0,84.92,95.34Z"/><path class="cls-3" d="M94,96c0,.87.53,1.78,2.63,1.78V98h-11v-.21c2.1,0,2.63-.91,2.63-1.78V75.73c0-1.26-.6-1.85-2.59-1.85v-.21A21.3,21.3,0,0,0,94,72.3ZM106.2,85.12V96c0,.87.53,1.78,2.63,1.78V98h-11v-.21c2.06,0,2.59-.91,2.59-1.78V85.12c0-2-1-3-2.77-3A3.77,3.77,0,0,0,95,83.22V83a7.15,7.15,0,0,1,5.81-2.83C104,80.18,106.2,81.65,106.2,85.12Z"/><path class="cls-3" d="M118.1,93.45c0,2,.67,3,2.42,3a3.09,3.09,0,0,0,2.41-1.08v.21a5.83,5.83,0,0,1-5.42,2.83c-3.15,0-5.18-1.47-5.18-4.93V83.61c0-1.26-.6-1.86-2.59-1.86v-.21a21.49,21.49,0,0,0,8.36-1.36Zm11.66,2.24c0,1,.31,1.43.94,1.43s1.12-.52,1.68-1.57h.21c-.56,1.92-2.45,2.83-4.76,2.83S124,97,124,95V83.61c0-1.26-.59-1.86-2.48-1.86v-.21a22.86,22.86,0,0,0,8.26-1.36Z"/><path class="cls-3" d="M140.71,93.87a1.79,1.79,0,0,0-2,1.75c0,1,.7,2.31,3.12,2.55v.21c-4.66-.17-7.21-1.43-7.21-3.46a2.73,2.73,0,0,1,3-2.59A3.55,3.55,0,0,1,140.71,93.87Zm1.16-13.48c-1.3.24-2.56.91-2.52,2.34.1,4.06,11.44,4.73,11.44,10.3,0,3.39-2.87,5.18-7.38,5.35v-.21c1.47-.24,3.11-.77,3.11-2.59,0-3.64-11.48-5-11.48-10.29,0-3.08,2.91-4.94,6.83-5.11Zm8.26,3.4A2.29,2.29,0,0,1,147.54,86a3,3,0,0,1-3-1.69,1.55,1.55,0,0,0,1.58-1.64c0-1-1.33-2.07-2.73-2.24v-.21C147.36,80.39,150.13,81.82,150.13,83.79Z"/><path class="cls-3" d="M153.17,81.51a21.36,21.36,0,0,0,8.37-1.37V96c0,.87.52,1.78,2.62,1.78V98h-11v-.21c2.1,0,2.62-.91,2.62-1.78V83.58c0-1.27-.59-1.86-2.59-1.86ZM155,74.93c0-1.82,1.47-3.05,3.57-3.05s3.57,1.23,3.57,3.05S160.63,78,158.53,78,155,76.78,155,74.93Z"/><path class="cls-3" d="M165.91,93.9c0-3,2.8-4.76,6.72-4.76h3.78v.21h-1c-2.52,0-3.71,1.65-3.71,3.82,0,1.92.56,3.39,2.21,3.39a3.82,3.82,0,0,0,2.55-1.22v.21a7.43,7.43,0,0,1-5.56,2.83C167.87,98.38,165.88,96.7,165.91,93.9Zm1.4-9.9c0-1.79,1.61-3.61,6.37-3.82v.21a2.55,2.55,0,0,0-2.24,2.55c0,1.27.88,2,2.28,2.14a3.94,3.94,0,0,1-3.36,1.68A2.81,2.81,0,0,1,167.31,84Zm10.15,10.43V83.71c0-1.71-.66-3.08-2.38-3.32v-.21c5.81.21,8.12,2.41,8.12,7v8.51c0,1,.35,1.43,1,1.43s1.12-.52,1.68-1.57h.21c-.56,1.92-2.45,2.83-4.55,2.83C178.72,98.38,177.46,97.4,177.46,94.43Z"/><path class="cls-3" d="M193.88,93.87a1.79,1.79,0,0,0-2,1.75c0,1,.7,2.31,3.11,2.55v.21c-4.65-.17-7.21-1.43-7.21-3.46a2.73,2.73,0,0,1,3-2.59A3.56,3.56,0,0,1,193.88,93.87ZM195,80.39c-1.29.24-2.55.91-2.52,2.34C192.62,86.79,204,87.46,204,93c0,3.39-2.87,5.18-7.39,5.35v-.21c1.47-.24,3.12-.77,3.12-2.59,0-3.64-11.49-5-11.49-10.29,0-3.08,2.91-4.94,6.83-5.11Zm8.26,3.4A2.29,2.29,0,0,1,200.7,86a3,3,0,0,1-3-1.69,1.54,1.54,0,0,0,1.57-1.64c0-1-1.33-2.07-2.73-2.24v-.21C200.53,80.39,203.29,81.82,203.29,83.79Z"/><path class="cls-3" d="M219.85,95.34v.21a7.32,7.32,0,0,1-6,2.83c-3.15,0-5.39-1.43-5.39-4.93V82h-1.82l.38-.52h1.44V77.66a8.87,8.87,0,0,0,5.74-2v5.74h4.73l-.39.52h-4.34V93.55c0,1.75.67,3.57,2.31,3.57A5.2,5.2,0,0,0,219.85,95.34Z"/><path class="cls-3" d="M36.27,122v.28a3.91,3.91,0,0,0-2.94-1.3c-1.75,0-3.39.81-3.39,7.15s1.75,7.45,3.39,7.45a4.92,4.92,0,0,0,2.94-1.22v.21a6.54,6.54,0,0,1-5.11,2.83c-3.32,0-7.17-2-7.17-9.27,0-7,3.78-8.93,7.17-8.93A6.51,6.51,0,0,1,36.27,122Zm6.83,20.37c0,1.26.59,1.86,2.59,1.86v.21a23.06,23.06,0,0,0-8.37,1.36V120.47a21.77,21.77,0,0,0,5.78-1.33Z"/><path class="cls-3" d="M54.82,132.45c0,2,.67,3,2.42,3a3.09,3.09,0,0,0,2.41-1.08v.21a5.83,5.83,0,0,1-5.42,2.83c-3.15,0-5.18-1.47-5.18-4.93v-9.84c0-1.26-.6-1.86-2.59-1.86v-.21a21.49,21.49,0,0,0,8.36-1.36Zm11.66,2.24c0,1,.31,1.43.94,1.43s1.12-.52,1.68-1.57h.21c-.55,1.92-2.45,2.83-4.76,2.83S60.7,136,60.7,134V122.61c0-1.26-.59-1.86-2.48-1.86v-.21a22.86,22.86,0,0,0,8.26-1.36Z"/><path class="cls-3" d="M80.06,119.39c-2.07.24-2.77,2-2.77,8.82,0,6.58.7,8.75,2.77,9v.21a8.92,8.92,0,0,1-8.72-9.17,8.77,8.77,0,0,1,8.72-9Zm10.08,8.82a8.92,8.92,0,0,1-8.68,9.17v-.21c2.06-.21,2.73-2.41,2.73-9,0-6.86-.7-8.61-2.73-8.82v-.21A8.72,8.72,0,0,1,90.14,128.21Z"/><path class="cls-3" d="M106,134.34v.21a7.32,7.32,0,0,1-6,2.83c-3.15,0-5.39-1.43-5.39-4.93V121H92.83l.39-.52h1.43v-3.78a8.85,8.85,0,0,0,5.74-2v5.74h4.73l-.39.52h-4.34v11.59c0,1.75.67,3.57,2.31,3.57A5.2,5.2,0,0,0,106,134.34Z"/><path class="cls-3" d="M107.32,128.21a8.66,8.66,0,0,1,8.58-9v.21c-2.07.24-2.63,2-2.63,8.68,0,5,2.24,7.81,5.36,7.81a7.62,7.62,0,0,0,5.11-1.86v.21c-1.82,2.31-5.15,3.15-7.42,3.15A8.87,8.87,0,0,1,107.32,128.21Zm7.88-1.47c3.08,0,4.37-1,4.37-3.92,0-1.68-.7-3.22-2.27-3.43v-.21c4.62,0,6.86,3.29,6.86,5.95A9.94,9.94,0,0,1,124,127H115.2Z"/></g></svg>