<svg id="Layer_1" data-name="Layer 1" xmlns="http://www.w3.org/2000/svg" viewBox="0 0 320 480"><defs><style>.cls-1{fill:none;}.cls-2{fill:#74503e;}.cls-3{fill:#fff;}</style></defs><title>Artboard 1 copy 3</title><rect class="cls-1" x="0.62" width="320" height="480"/><path class="cls-2" d="M22.49,178.25v51.4a18.31,18.31,0,0,0,9.89,16.26l77,40a22.92,22.92,0,0,0,21.1,0l77-40a18.33,18.33,0,0,0,9.89-16.26v-51.4a8.56,8.56,0,0,0-8.56-8.56H31.05A8.56,8.56,0,0,0,22.49,178.25Z"/><path class="cls-3" d="M109.6,206.37l.35-.5c.26-.35.53-.37.92-.15a3.94,3.94,0,0,0,2.29.83c1,0,1.68-.53,1.68-1.29,0-2.14-5.25-1.7-5.25-5.2,0-2,1.65-3.27,3.79-3.27a5.2,5.2,0,0,1,2.9.86.62.62,0,0,1,.21.9l-.29.53c-.24.46-.57.39-.9.22a3.68,3.68,0,0,0-2-.62c-1,0-1.72.51-1.72,1.27,0,2.11,5.25,1.57,5.25,5.15,0,1.83-1.36,3.34-3.72,3.34a5.93,5.93,0,0,1-3.46-1.15A.59.59,0,0,1,109.6,206.37Z"/><path class="cls-3" d="M121.42,198.74h-3a.58.58,0,0,1-.66-.65v-.44a.59.59,0,0,1,.66-.67h8.09a.59.59,0,0,1,.65.67v.44a.58.58,0,0,1-.65.65h-3v8.84a.58.58,0,0,1-.66.66h-.72a.58.58,0,0,1-.65-.66Z"/><path class="cls-3" d="M129.81,197.52a.73.73,0,0,1,.75-.54h1a.72.72,0,0,1,.75.54l3.52,10c.16.46-.05.76-.54.76h-.73a.72.72,0,0,1-.75-.53l-.79-2.35h-3.95l-.78,2.33a.7.7,0,0,1-.74.55h-.73c-.49,0-.7-.3-.54-.76Zm2.71,6.17-1-3c-.19-.64-.44-1.75-.44-1.75h0s-.26,1.11-.45,1.75l-1,3Z"/><path class="cls-3" d="M137.26,197.65a.59.59,0,0,1,.65-.67H141a5.28,5.28,0,0,1,2.14.3,3.15,3.15,0,0,1,1.89,3.08,3.27,3.27,0,0,1-1.87,3.08v0a3.8,3.8,0,0,1,.36.59l1.86,3.39c.27.46.06.79-.46.79H144a.8.8,0,0,1-.78-.46l-2-3.74h-2v3.54a.58.58,0,0,1-.65.66h-.73a.58.58,0,0,1-.65-.66Zm3.87,4.61a1.65,1.65,0,0,0,1.78-1.79,1.53,1.53,0,0,0-.89-1.54,2.93,2.93,0,0,0-1.22-.19h-1.51v3.52Z"/><path class="cls-3" d="M110.35,211.41a.35.35,0,0,1,.38-.4h.33a.35.35,0,0,1,.38.4v10.36a.35.35,0,0,1-.38.39h-.33a.35.35,0,0,1-.38-.39Z"/><path class="cls-3" d="M114.08,214.58a.37.37,0,0,1,.4-.4h.29a.36.36,0,0,1,.38.4v.92a2.34,2.34,0,0,1-.07.57h0a3.54,3.54,0,0,1,3.22-2.08c2,0,2.69,1.13,2.69,3.1v4.68a.36.36,0,0,1-.4.39h-.3a.34.34,0,0,1-.38-.39v-4.4c0-1.25-.21-2.36-1.75-2.36a3.09,3.09,0,0,0-3,3.25v3.51a.35.35,0,0,1-.38.39h-.3a.36.36,0,0,1-.4-.39Z"/><path class="cls-3" d="M122.73,220.9l.13-.16c.14-.19.31-.21.54-.07a3.43,3.43,0,0,0,2.11.73c.88,0,1.61-.44,1.61-1.28,0-1.79-4.26-1.26-4.26-3.89,0-1.47,1.25-2.24,2.71-2.24a3.74,3.74,0,0,1,2.19.65.35.35,0,0,1,.11.53l-.11.17a.35.35,0,0,1-.54.11,3,3,0,0,0-1.71-.5c-.84,0-1.57.36-1.57,1.23,0,1.84,4.25,1.26,4.25,3.92,0,1.32-1.11,2.25-2.7,2.25a4.14,4.14,0,0,1-2.7-.92A.35.35,0,0,1,122.73,220.9Z"/><path class="cls-3" d="M129.79,214.58a.35.35,0,0,1,.38-.4h.3a.37.37,0,0,1,.4.4V219c0,1.25.19,2.36,1.73,2.36a3.1,3.1,0,0,0,3-3.33v-3.43a.36.36,0,0,1,.39-.4h.3a.36.36,0,0,1,.39.4v7.19a.35.35,0,0,1-.39.39H136a.34.34,0,0,1-.38-.39v-.92a3.23,3.23,0,0,1,0-.57h0a3.46,3.46,0,0,1-3.14,2.07c-1.89,0-2.66-1-2.66-3.09Z"/><path class="cls-3" d="M139,214.58a.37.37,0,0,1,.4-.4h.28a.37.37,0,0,1,.39.4v1.08a2.89,2.89,0,0,1-.07.63h0a2.85,2.85,0,0,1,2.57-2.15c.29,0,.42.12.42.38v.28c0,.26-.18.4-.45.4-1.68,0-2.49,1.92-2.49,3.59v3a.35.35,0,0,1-.38.39h-.3a.36.36,0,0,1-.4-.39Z"/><path class="cls-3" d="M148.47,217.28h.46V217a1.79,1.79,0,0,0-2-2.06,3.72,3.72,0,0,0-1.93.56.37.37,0,0,1-.54-.13l-.1-.16a.37.37,0,0,1,.11-.54A4.92,4.92,0,0,1,147,214c1.91,0,3,1.07,3,3.07v4.71a.35.35,0,0,1-.38.39h-.26a.34.34,0,0,1-.39-.39v-.64a3.24,3.24,0,0,1,.05-.6h0a3,3,0,0,1-2.69,1.82,2.45,2.45,0,0,1-2.7-2.33C143.6,217.42,146.93,217.28,148.47,217.28Zm-2,4.17c1.54,0,2.44-1.59,2.44-3v-.38h-.44c-1.26,0-3.78,0-3.78,1.84A1.6,1.6,0,0,0,146.49,221.45Z"/><path class="cls-3" d="M152.27,214.58a.36.36,0,0,1,.4-.4H153a.36.36,0,0,1,.38.4v.92a2.71,2.71,0,0,1-.06.57h0a3.53,3.53,0,0,1,3.22-2.08c2,0,2.68,1.13,2.68,3.1v4.68a.35.35,0,0,1-.39.39h-.3a.34.34,0,0,1-.38-.39v-4.4c0-1.25-.21-2.36-1.75-2.36a3.09,3.09,0,0,0-3,3.25v3.51a.35.35,0,0,1-.38.39h-.3a.36.36,0,0,1-.4-.39Z"/><path class="cls-3" d="M165.17,214a4.16,4.16,0,0,1,2.65.91.34.34,0,0,1,.05.54l-.11.17c-.14.22-.32.22-.54.08a3.3,3.3,0,0,0-2-.73,3.22,3.22,0,0,0,0,6.43,3.52,3.52,0,0,0,2.25-.84.32.32,0,0,1,.53.09l.11.16a.39.39,0,0,1-.1.54,4.44,4.44,0,0,1-2.84,1,4.18,4.18,0,1,1,0-8.36Z"/><path class="cls-3" d="M173,214c2.13,0,3.33,1.54,3.33,3.81a.4.4,0,0,1-.41.4h-5.74a3,3,0,0,0,3.09,3.19,3.43,3.43,0,0,0,2.09-.73.33.33,0,0,1,.53.09l.12.19a.38.38,0,0,1-.11.53,4.61,4.61,0,0,1-2.66.88,4,4,0,0,1-4.18-4.17A3.9,3.9,0,0,1,173,214Zm2.24,3.4a2.3,2.3,0,0,0-2.27-2.51,2.76,2.76,0,0,0-2.75,2.51Z"/><path class="cls-3" d="M110.09,226.56a.6.6,0,0,1,.65-.67h5.43a.61.61,0,0,1,.67.67V227a.59.59,0,0,1-.67.65h-4v2.95h3.14a.59.59,0,0,1,.66.65v.45a.59.59,0,0,1-.66.66h-3.14v3h4.29a.6.6,0,0,1,.67.65v.45a.59.59,0,0,1-.67.66h-5.68a.58.58,0,0,1-.65-.66Z"/><path class="cls-3" d="M118.54,229.73a.59.59,0,0,1,.65-.67h.62a.6.6,0,0,1,.65.67v.49a2.08,2.08,0,0,1,0,.37h0a3.14,3.14,0,0,1,2.87-1.72c1.79,0,2.82.94,2.82,3.08v4.54a.58.58,0,0,1-.66.66h-.69a.59.59,0,0,1-.66-.66v-4.13c0-1-.26-1.65-1.27-1.65a2.42,2.42,0,0,0-2.33,2.65v3.13a.58.58,0,0,1-.65.66h-.7a.58.58,0,0,1-.65-.66Z"/><path class="cls-3" d="M128.3,230.78h-.43a.58.58,0,0,1-.65-.67v-.27a.6.6,0,0,1,.67-.67h.46v-1.64a.6.6,0,0,1,.66-.67h.64a.6.6,0,0,1,.66.67v1.64h1.18a.6.6,0,0,1,.66.67v.27a.59.59,0,0,1-.65.67h-1.19v3.14a1.34,1.34,0,0,0,1.3,1.51c.5,0,.67.2.67.65v.49c0,.47-.27.66-.82.66a2.89,2.89,0,0,1-3.16-3Z"/><path class="cls-3" d="M133.58,226.56a.61.61,0,0,1,.67-.67h.68a.6.6,0,0,1,.67.67v3.27a4.43,4.43,0,0,1,0,.68h0a3.19,3.19,0,0,1,2.81-1.64c1.79,0,2.82.94,2.82,3.08v4.54a.59.59,0,0,1-.66.66h-.68a.59.59,0,0,1-.67-.66v-4.13c0-1-.25-1.65-1.27-1.65a2.42,2.42,0,0,0-2.33,2.69v3.09a.59.59,0,0,1-.67.66h-.68a.59.59,0,0,1-.67-.66Z"/><path class="cls-3" d="M143,229.73a.61.61,0,0,1,.67-.67h.68a.6.6,0,0,1,.67.67v4.13c0,1,.25,1.64,1.25,1.64,1.46,0,2.27-1.28,2.27-2.72v-3.05a.6.6,0,0,1,.67-.67h.68a.61.61,0,0,1,.67.67v6.76a.59.59,0,0,1-.67.66h-.62a.58.58,0,0,1-.65-.66V236a2.33,2.33,0,0,1,0-.36h0a3.15,3.15,0,0,1-2.81,1.7c-1.73,0-2.81-.88-2.81-3.08Z"/><path class="cls-3" d="M152.22,235.62l.19-.29c.24-.33.51-.36.91-.16a3.58,3.58,0,0,0,1.81.56c.69,0,1.12-.32,1.12-.83,0-1.31-4-.82-4-3.6,0-1.59,1.39-2.43,3.09-2.43a4.44,4.44,0,0,1,2.25.59.6.6,0,0,1,.24.89l-.16.28c-.19.39-.49.43-.88.26a3.62,3.62,0,0,0-1.54-.4c-.7,0-1.1.29-1.1.79,0,1.34,4,.81,4,3.57,0,1.43-1.21,2.5-3.08,2.5a4.76,4.76,0,0,1-2.7-.83A.57.57,0,0,1,152.22,235.62Z"/><path class="cls-3" d="M159.66,227v-.47a.59.59,0,0,1,.65-.67h.7a.6.6,0,0,1,.66.67V227a.58.58,0,0,1-.66.65h-.7A.58.58,0,0,1,159.66,227Zm0,2.7a.59.59,0,0,1,.65-.67h.7a.59.59,0,0,1,.65.67v6.76a.58.58,0,0,1-.65.66h-.7a.58.58,0,0,1-.65-.66Z"/><path class="cls-3" d="M167.77,232.16h.33V232a1.32,1.32,0,0,0-1.5-1.43,3.62,3.62,0,0,0-1.69.46.6.6,0,0,1-.89-.27l-.15-.3a.59.59,0,0,1,.25-.89,5.71,5.71,0,0,1,2.65-.67,3,3,0,0,1,3.35,3.22v4.4a.59.59,0,0,1-.67.66h-.54a.58.58,0,0,1-.65-.66v-.32a1.72,1.72,0,0,1,0-.35h0a2.94,2.94,0,0,1-2.54,1.53,2.49,2.49,0,0,1-2.68-2.43C163,232.55,166,232.16,167.77,232.16Zm-1.51,3.65a2.06,2.06,0,0,0,1.86-2.13v-.3h-.34c-1,0-2.74.16-2.74,1.36A1.1,1.1,0,0,0,166.26,235.81Z"/><path class="cls-3" d="M171.63,235.62l.19-.29c.24-.33.51-.36.91-.16a3.58,3.58,0,0,0,1.81.56c.7,0,1.12-.32,1.12-.83,0-1.31-4-.82-4-3.6,0-1.59,1.4-2.43,3.09-2.43a4.51,4.51,0,0,1,2.26.59.6.6,0,0,1,.23.89l-.15.28c-.19.39-.5.43-.89.26a3.57,3.57,0,0,0-1.54-.4c-.7,0-1.1.29-1.1.79,0,1.34,4,.81,4,3.57,0,1.43-1.21,2.5-3.08,2.5a4.76,4.76,0,0,1-2.7-.83A.57.57,0,0,1,171.63,235.62Z"/><path class="cls-3" d="M179.44,230.78H179a.58.58,0,0,1-.65-.67v-.27a.59.59,0,0,1,.66-.67h.46v-1.64a.61.61,0,0,1,.67-.67h.63a.61.61,0,0,1,.67.67v1.64h1.17a.61.61,0,0,1,.67.67v.27a.59.59,0,0,1-.65.67h-1.19v3.14a1.33,1.33,0,0,0,1.3,1.51c.49,0,.67.2.67.65v.49c0,.47-.27.66-.83.66a2.89,2.89,0,0,1-3.16-3Z"/><path class="cls-3" d="M72.1,232.1a1.21,1.21,0,0,1-.52-.13,1.11,1.11,0,0,1-.55-1.34l11.74-36.15a2.47,2.47,0,0,1,2.39-1.73h0a2.47,2.47,0,0,1,2.38,1.73l2.38,7.17a.85.85,0,0,1-1.61.53L85.93,195a.78.78,0,0,0-.77-.57h0a.78.78,0,0,0-.77.56L73.77,227.69l15-20.47a4.67,4.67,0,0,1,3.76-1.9h10a2.5,2.5,0,0,1,1.48,4.53l-9.11,6.62-.1.09,3.52,10.83a2.51,2.51,0,0,1-3.86,2.8l-7.88-5.72a2.52,2.52,0,0,1,0-4.06l6.61-4.79.1-.08,9.72-7.06a.79.79,0,0,0,.29-.91.77.77,0,0,0-.77-.55h-10a3,3,0,0,0-2.39,1.21L73,231.63A1.13,1.13,0,0,1,72.1,232.1Zm21.17-14.49-5.77,4.17a.82.82,0,0,0-.33.66.79.79,0,0,0,.33.65l7.88,5.72a.79.79,0,0,0,1,0,.78.78,0,0,0,.29-.9Z"/><path class="cls-3" d="M72.7,214.13a.82.82,0,0,1-.49-.16l-5.81-4.11a2.51,2.51,0,0,1,1.46-4.54H75a.85.85,0,1,1,0,1.7H67.86a.81.81,0,0,0-.47,1.46l5.8,4.11a.84.84,0,0,1,.21,1.18A.87.87,0,0,1,72.7,214.13Z"/><path class="cls-3" d="M80.62,244.09a2.81,2.81,0,0,1-1.37-.36L64.4,235.3a.84.84,0,0,1-.43-.74V216.44a.85.85,0,0,1,1.7,0v17.63l14.42,8.18a1,1,0,0,0,1.09,0l10.54-6.6a.85.85,0,1,1,.9,1.44l-10.54,6.6A2.75,2.75,0,0,1,80.62,244.09Z"/><rect class="cls-1" x="0.62" width="320" height="480"/></svg>