<svg id="Layer_1" data-name="Layer 1" xmlns="http://www.w3.org/2000/svg" xmlns:xlink="http://www.w3.org/1999/xlink" viewBox="0 0 300 250"><defs><style>.cls-1{fill:none;}.cls-2{clip-path:url(#clip-path);}.cls-3{fill:#fff;}</style><clipPath id="clip-path"><rect class="cls-1" width="300" height="250"/></clipPath></defs><title>Artboard 1 copy 2</title><g class="cls-2"><path class="cls-3" d="M45.72,53.81l.11.22a7.68,7.68,0,0,1-6.74,3.39c-4.57,0-10.25-3.25-10.25-9.77,0-7.09,5.54-9.72,9.57-9.83V38c-2,.42-4.08,2.26-4.08,9.46s2.88,8.85,6,8.85A6.88,6.88,0,0,0,45.72,53.81Zm.23-16v6.8h-.23c-1.09-3.72-3.16-5.88-5.91-6.63v-.17a9.57,9.57,0,0,1,5.07,1.29l.84-1.29Z"/><path class="cls-3" d="M54.4,55.54c0,.7.42,1.43,2.1,1.43v.17H47.68V57c1.68,0,2.1-.73,2.1-1.43V39.3c0-1-.47-1.48-2.07-1.48v-.17a17.19,17.19,0,0,0,6.69-1.09Zm9.8-8.73v8.73c0,.7.42,1.43,2.1,1.43v.17H57.51V57c1.65,0,2.07-.73,2.07-1.43V46.81c0-1.57-.81-2.38-2.21-2.38a3,3,0,0,0-2.13.86v-.16a5.72,5.72,0,0,1,4.65-2.27C62.41,42.86,64.2,44,64.2,46.81Z"/><path class="cls-3" d="M67.53,53.83c0-2.43,2.24-3.8,5.38-3.8h3v.16h-.84a2.77,2.77,0,0,0-3,3.06c0,1.54.44,2.71,1.76,2.71a3.06,3.06,0,0,0,2-1v.17a6,6,0,0,1-4.45,2.27C69.1,57.42,67.51,56.07,67.53,53.83Zm1.12-7.92c0-1.43,1.29-2.88,5.1-3V43a2,2,0,0,0-1.79,2c0,1,.7,1.62,1.82,1.71a3.16,3.16,0,0,1-2.69,1.34A2.24,2.24,0,0,1,68.65,45.91Zm8.12,8.34V45.69c0-1.38-.53-2.47-1.9-2.66v-.17c4.65.17,6.5,1.93,6.5,5.6v6.8c0,.81.28,1.15.78,1.15s.9-.42,1.34-1.26h.17c-.45,1.54-2,2.27-3.64,2.27C77.78,57.42,76.77,56.63,76.77,54.25Z"/><path class="cls-3" d="M84.53,57c1.68,0,2.1-.73,2.1-1.43V45.6c0-1-.48-1.48-2.07-1.48V44a17.19,17.19,0,0,0,6.69-1.09V55.54c0,.7.42,1.43,2.1,1.43v.17H84.53Zm9.86,0c1.65,0,2.07-.73,2.07-1.43V46.81c0-1.57-.81-2.38-2.21-2.38a3,3,0,0,0-2.13.86v-.16a5.69,5.69,0,0,1,4.65-2.27c2.52,0,4.31,1.17,4.31,4v8.73c0,.7.42,1.43,2.1,1.43v.17H94.39Z"/><path class="cls-3" d="M104.83,47.93c0-3.64,3.42-5,6.27-5.07V43c-1.2.11-1.76,1.56-1.76,4.81s.56,4.76,1.76,4.87v.17C108.27,52.88,104.83,51.54,104.83,47.93Zm7.45,16c2.8-.34,3.69-1.85,3.69-2.86,0-3.89-10.92-.42-10.92-5.43a3.29,3.29,0,0,1,1.88-2.85L107,53a.66.66,0,0,0-.25.53c0,3.13,12.77-.51,12.77,5.6,0,2.88-2.49,4.76-7.25,5Zm-7.23-2.35c0-1.65,2-2.16,4.26-2.16a2.37,2.37,0,0,0-1.2,2c0,1.29,1.45,2.27,3,2.52v.17C108.16,64.08,105.05,63.47,105.05,61.62Zm7.23-8.91c1.37-.11,1.93-1.48,1.93-4.87s-.59-4.7-1.93-4.81v-.17c3,0,6.41,1.43,6.41,5.07s-3.44,5-6.41,5Zm1.51-10.36c.48-1.42,1.76-3.36,3.7-3.36,1.48,0,2.38.79,2.38,2.13a2.25,2.25,0,0,1-2.27,2.19c0-1.18-.62-1.88-1.51-1.88a3,3,0,0,0-2.16,1Z"/><path class="cls-3" d="M120.68,43.92a17.19,17.19,0,0,0,6.69-1.09V55.54c0,.7.42,1.43,2.1,1.43v.17h-8.82V57c1.68,0,2.1-.73,2.1-1.43v-10c0-1-.48-1.48-2.07-1.48Zm1.42-5.26c0-1.46,1.18-2.44,2.86-2.44s2.86,1,2.86,2.44-1.18,2.46-2.86,2.46S122.1,40.14,122.1,38.66Z"/><path class="cls-3" d="M130.64,57c1.69,0,2.11-.73,2.11-1.43V45.6c0-1-.48-1.48-2.08-1.48V44a17.21,17.21,0,0,0,6.7-1.09V55.54c0,.7.42,1.43,2.1,1.43v.17h-8.83Zm9.86,0c1.65,0,2.07-.73,2.07-1.43V46.81c0-1.57-.81-2.38-2.21-2.38a3,3,0,0,0-2.13.86v-.16a5.72,5.72,0,0,1,4.65-2.27c2.52,0,4.31,1.17,4.31,4v8.73c0,.7.42,1.43,2.1,1.43v.17H140.5Z"/><path class="cls-3" d="M150.94,47.93c0-3.64,3.42-5,6.28-5.07V43c-1.21.11-1.77,1.56-1.77,4.81s.56,4.76,1.77,4.87v.17C154.39,52.88,150.94,51.54,150.94,47.93Zm7.45,16c2.8-.34,3.7-1.85,3.7-2.86,0-3.89-10.92-.42-10.92-5.43A3.3,3.3,0,0,1,153,52.83l.09.14a.63.63,0,0,0-.25.53c0,3.13,12.76-.51,12.76,5.6,0,2.88-2.49,4.76-7.25,5Zm-7.22-2.35c0-1.65,2-2.16,4.25-2.16a2.37,2.37,0,0,0-1.2,2c0,1.29,1.46,2.27,3.05,2.52v.17C154.28,64.08,151.17,63.47,151.17,61.62Zm7.22-8.91c1.37-.11,1.93-1.48,1.93-4.87s-.58-4.7-1.93-4.81v-.17c3,0,6.41,1.43,6.41,5.07s-3.44,5-6.41,5Zm1.51-10.36c.48-1.42,1.77-3.36,3.7-3.36,1.48,0,2.38.79,2.38,2.13a2.24,2.24,0,0,1-2.27,2.19c0-1.18-.61-1.88-1.51-1.88a3,3,0,0,0-2.16,1Z"/><path class="cls-3" d="M28.81,74.29a1.51,1.51,0,0,0-1.54-1v-.17h7.84v.17c-1,0-1.37.67-.9,1.65l3.67,7.64-2.41,4.54h-.16Zm10.25,5.57a7.76,7.76,0,0,0,.78-3.61A2.71,2.71,0,0,0,37,73.31v-.17h7v.17c-.93,0-1.29.36-1.82,1.31l-2.91,5.49Z"/><path class="cls-3" d="M44.18,80.08A6.94,6.94,0,0,1,51,72.86V73c-1.65.19-2.1,1.59-2.1,6.94,0,4,1.79,6.24,4.29,6.24a6.05,6.05,0,0,0,4.08-1.48v.17a7.82,7.82,0,0,1-5.93,2.52A7.1,7.1,0,0,1,44.18,80.08Zm6.3-1.17c2.47,0,3.5-.79,3.5-3.14,0-1.34-.56-2.58-1.82-2.74v-.17c3.7,0,5.49,2.63,5.49,4.76a8.59,8.59,0,0,1-.14,1.45h-7Z"/><path class="cls-3" d="M66,85.54c0,.7.42,1.43,2.1,1.43v.17H59.27V87c1.68,0,2.1-.73,2.1-1.43V69.3c0-1-.47-1.48-2.07-1.48v-.17A17.12,17.12,0,0,0,66,66.56Zm9.8-8.73v8.73c0,.7.42,1.43,2.1,1.43v.17H69.1V87c1.65,0,2.07-.73,2.07-1.43V76.81c0-1.57-.81-2.38-2.21-2.38a3,3,0,0,0-2.13.86v-.16a5.72,5.72,0,0,1,4.65-2.27C74,72.86,75.79,74,75.79,76.81Z"/><path class="cls-3" d="M79,73.92a17.19,17.19,0,0,0,6.69-1.09V85.54c0,.7.42,1.43,2.1,1.43v.17H78.93V87c1.68,0,2.1-.73,2.1-1.43v-10c0-1-.48-1.48-2.07-1.48Zm1.43-5.26c0-1.46,1.17-2.44,2.85-2.44s2.86,1,2.86,2.44-1.18,2.46-2.86,2.46S80.39,70.14,80.39,68.66Z"/><path class="cls-3" d="M96.6,73c-1.65.19-2.38,1.59-2.38,6.94,0,4,2,6.24,4.53,6.24a6.06,6.06,0,0,0,4.09-1.48v.17a7.82,7.82,0,0,1-5.93,2.52,7.32,7.32,0,0,1-7.48-7.34,7.17,7.17,0,0,1,7.17-7.22Zm6.21,3a2.6,2.6,0,0,1-2.8,2.69A2.38,2.38,0,0,1,97.58,77a2.43,2.43,0,0,0,1.34-2,1.67,1.67,0,0,0-1.2-1.85v-.19C101.39,72.86,102.81,74.43,102.81,76Z"/><path class="cls-3" d="M104.27,67.65A17.19,17.19,0,0,0,111,66.56v19c0,.7.42,1.43,2.1,1.43v.17h-8.82V87c1.68,0,2.1-.73,2.1-1.43V69.3c0-1-.47-1.48-2.07-1.48Z"/><path class="cls-3" d="M114.74,80.08a6.94,6.94,0,0,1,6.86-7.22V73c-1.65.19-2.1,1.59-2.1,6.94,0,4,1.79,6.24,4.29,6.24a6.05,6.05,0,0,0,4.08-1.48v.17a7.82,7.82,0,0,1-5.93,2.52A7.1,7.1,0,0,1,114.74,80.08Zm6.3-1.17c2.47,0,3.5-.79,3.5-3.14,0-1.34-.56-2.58-1.82-2.74v-.17c3.7,0,5.49,2.63,5.49,4.76a8.59,8.59,0,0,1-.14,1.45h-7Z"/><path class="cls-3" d="M28.22,103.92a17.12,17.12,0,0,0,6.69-1.09v12.71c0,.7.42,1.43,2.1,1.43v.17H28.19V117c1.68,0,2.1-.73,2.1-1.43v-10c0-1-.47-1.48-2.07-1.48Zm1.43-5.26c0-1.46,1.18-2.44,2.86-2.44s2.85,1,2.85,2.44-1.17,2.46-2.85,2.46S29.65,100.14,29.65,98.66Z"/><path class="cls-3" d="M38.19,117c1.68,0,2.1-.73,2.1-1.43V105.6c0-1-.48-1.48-2.07-1.48V104a17.19,17.19,0,0,0,6.69-1.09v12.68c0,.7.42,1.43,2.1,1.43v.17H38.19Zm9.86,0c1.65,0,2.07-.73,2.07-1.43v-8.73c0-1.57-.81-2.38-2.21-2.38a3,3,0,0,0-2.13.86v-.16a5.69,5.69,0,0,1,4.65-2.27c2.52,0,4.31,1.17,4.31,4v8.73c0,.7.42,1.43,2.1,1.43v.17H48.05Z"/><path class="cls-3" d="M63.22,113.81a1.43,1.43,0,0,0-1.57,1.4c0,.81.56,1.84,2.5,2v.17c-3.73-.14-5.77-1.15-5.77-2.77a2.19,2.19,0,0,1,2.38-2.08A2.85,2.85,0,0,1,63.22,113.81ZM64.15,103c-1,.19-2.05.72-2,1.87.08,3.25,9.16,3.78,9.16,8.23,0,2.72-2.3,4.15-5.91,4.29v-.17c1.17-.2,2.49-.62,2.49-2.07,0-2.91-9.18-4-9.18-8.23,0-2.47,2.32-4,5.46-4.09Zm6.6,2.71a1.83,1.83,0,0,1-2.07,1.74,2.42,2.42,0,0,1-2.38-1.35,1.24,1.24,0,0,0,1.26-1.31c0-.84-1.06-1.65-2.18-1.79v-.17C68.54,103,70.75,104.17,70.75,105.74Z"/><path class="cls-3" d="M79.55,113.47c0,1.57.53,2.38,1.93,2.38a2.45,2.45,0,0,0,1.93-.87v.17a4.67,4.67,0,0,1-4.34,2.27c-2.52,0-4.14-1.18-4.14-4V105.6c0-1-.48-1.48-2.08-1.48V104a17.21,17.21,0,0,0,6.7-1.09Zm9.32,1.79c0,.81.25,1.15.76,1.15s.89-.42,1.34-1.26h.17c-.45,1.54-2,2.27-3.81,2.27s-3.08-1.12-3.08-2.75V105.6c0-1-.48-1.48-2-1.48V104a18.25,18.25,0,0,0,6.61-1.09Z"/><path class="cls-3" d="M99,115.54c0,.7.42,1.43,2.1,1.43v.17H92.26V117c1.68,0,2.1-.73,2.1-1.43V105.6c0-1-.48-1.48-2.07-1.48V104A17.19,17.19,0,0,0,99,102.86Zm7.56-9.66a3,3,0,0,1-2.89,3.19,1.88,1.88,0,0,1-1.59-.61,2.05,2.05,0,0,0,1.09-1.91,1.49,1.49,0,0,0-1.57-1.51,1.92,1.92,0,0,0-1.68,1.07v-.23a3.88,3.88,0,0,1,3.64-3A2.84,2.84,0,0,1,106.54,105.88Z"/><path class="cls-3" d="M107.74,113.83c0-2.43,2.24-3.8,5.38-3.8h3v.16h-.84a2.78,2.78,0,0,0-3,3.06c0,1.54.45,2.71,1.77,2.71a3.06,3.06,0,0,0,2-1v.17a6,6,0,0,1-4.45,2.27C109.31,117.42,107.71,116.07,107.74,113.83Zm1.12-7.92c0-1.43,1.29-2.88,5.1-3V103a2,2,0,0,0-1.79,2c0,1,.7,1.62,1.82,1.71a3.16,3.16,0,0,1-2.69,1.34A2.24,2.24,0,0,1,108.86,105.91Zm8.12,8.34v-8.56c0-1.38-.53-2.47-1.9-2.66v-.17c4.65.17,6.49,1.93,6.49,5.6v6.8c0,.81.28,1.15.79,1.15s.89-.42,1.34-1.26h.17c-.45,1.54-2,2.27-3.64,2.27C118,117.42,117,116.63,117,114.25Z"/><path class="cls-3" d="M124.74,117c1.68,0,2.1-.73,2.1-1.43V105.6c0-1-.48-1.48-2.07-1.48V104a17.19,17.19,0,0,0,6.69-1.09v12.68c0,.7.42,1.43,2.1,1.43v.17h-8.82Zm9.85,0c1.66,0,2.08-.73,2.08-1.43v-8.73a2.08,2.08,0,0,0-2.22-2.38,3,3,0,0,0-2.12.86v-.16a5.69,5.69,0,0,1,4.64-2.27c2.52,0,4.32,1.17,4.32,4v8.73c0,.7.42,1.43,2.1,1.43v.17h-8.8Z"/><path class="cls-3" d="M152.06,103c-1.65.19-2.37,1.59-2.37,6.94,0,4,2,6.24,4.53,6.24a6.08,6.08,0,0,0,4.09-1.48v.17a7.86,7.86,0,0,1-5.94,2.52,7.32,7.32,0,0,1-7.47-7.34,7.17,7.17,0,0,1,7.16-7.22Zm6.22,3a2.6,2.6,0,0,1-2.8,2.69A2.4,2.4,0,0,1,153,107a2.42,2.42,0,0,0,1.35-2,1.67,1.67,0,0,0-1.2-1.85v-.19C156.85,102.86,158.28,104.43,158.28,106Z"/><path class="cls-3" d="M160.38,110.08a6.93,6.93,0,0,1,6.86-7.22V103c-1.65.19-2.1,1.59-2.1,6.94,0,4,1.79,6.24,4.28,6.24a6.06,6.06,0,0,0,4.09-1.48v.17a7.82,7.82,0,0,1-5.93,2.52A7.1,7.1,0,0,1,160.38,110.08Zm6.3-1.17c2.46,0,3.5-.79,3.5-3.14,0-1.34-.56-2.58-1.82-2.74v-.17c3.7,0,5.49,2.63,5.49,4.76a8.59,8.59,0,0,1-.14,1.45h-7Z"/></g></svg>