<svg id="Layer_1" data-name="Layer 1" xmlns="http://www.w3.org/2000/svg" xmlns:xlink="http://www.w3.org/1999/xlink" viewBox="0 0 300 250"><defs><style>.cls-1{fill:none;}.cls-2{clip-path:url(#clip-path);}.cls-3{fill:#263845;}</style><clipPath id="clip-path"><rect class="cls-1" width="300" height="250"/></clipPath></defs><title>Artboard 1 copy 7</title><g class="cls-2"><path class="cls-3" d="M31.13,42.9l.23.34L31.58,55a2.45,2.45,0,0,0,2.74,2.35v.17H28.16v-.17A2.47,2.47,0,0,0,30.91,55ZM46,57.52H42.86L31.16,40.07a3,3,0,0,0-3-1.42v-.17h7.48L46,53.91Zm0-6.44-.23-.31L45.36,41a2.45,2.45,0,0,0-2.75-2.35v-.17h6.16v.17A2.44,2.44,0,0,0,46,41Z"/><path class="cls-3" d="M61.29,38.48h5.35l-11.12,19H50.2ZM51,38.48h8.46l-.09.17a8.62,8.62,0,0,0-8.14,6.58H51Zm6.41,18.87a9.56,9.56,0,0,0,8.74-7.48h.22v7.65h-9Z"/><path class="cls-3" d="M74.45,39.37c0,1.63-1.74,3.78-4.54,4.93l-.08-.25a3.9,3.9,0,0,0,1.59-2.72,1.75,1.75,0,0,0-1.9-1.84,2.58,2.58,0,0,1,2.66-2.55A2.26,2.26,0,0,1,74.45,39.37Z"/><path class="cls-3" d="M80.19,54.19a1.43,1.43,0,0,0-1.57,1.4c0,.81.56,1.85,2.49,2v.17c-3.72-.14-5.77-1.15-5.77-2.77A2.19,2.19,0,0,1,77.72,53,2.87,2.87,0,0,1,80.19,54.19Zm.92-10.78c-1,.19-2,.73-2,1.87.08,3.25,9.15,3.78,9.15,8.24,0,2.71-2.29,4.14-5.91,4.28v-.17c1.18-.19,2.5-.61,2.5-2.07,0-2.91-9.19-4-9.19-8.23,0-2.47,2.33-3.95,5.46-4.09Zm6.61,2.71a1.83,1.83,0,0,1-2.07,1.74,2.39,2.39,0,0,1-2.38-1.34,1.25,1.25,0,0,0,1.26-1.32c0-.84-1.07-1.65-2.19-1.79v-.17C85.51,43.41,87.72,44.56,87.72,46.12Z"/><path class="cls-3" d="M97.07,38a17.12,17.12,0,0,0,6.69-1.09v19c0,.7.42,1.43,2.1,1.43v.17H97v-.17c1.68,0,2.1-.73,2.1-1.43V39.68c0-1-.47-1.48-2.07-1.48Z"/><path class="cls-3" d="M107.54,50.46a6.94,6.94,0,0,1,6.86-7.22v.17c-1.65.19-2.1,1.59-2.1,6.94,0,4,1.8,6.25,4.29,6.25a6.1,6.1,0,0,0,4.09-1.49v.17a7.86,7.86,0,0,1-5.94,2.52A7.1,7.1,0,0,1,107.54,50.46Zm6.3-1.17c2.47,0,3.5-.79,3.5-3.14,0-1.34-.56-2.58-1.82-2.74v-.17c3.7,0,5.49,2.63,5.49,4.76a7.67,7.67,0,0,1-.14,1.45h-7Z"/><path class="cls-3" d="M123,54.21c0-2.43,2.24-3.8,5.37-3.8h3v.16h-.84a2.78,2.78,0,0,0-3,3.06c0,1.54.45,2.71,1.76,2.71a3.08,3.08,0,0,0,2.05-1v.17A6,6,0,0,1,127,57.8C124.6,57.8,123,56.45,123,54.21Zm1.12-7.92c0-1.43,1.29-2.88,5.09-3v.17a2,2,0,0,0-1.79,2c0,1,.7,1.62,1.82,1.71a3.16,3.16,0,0,1-2.69,1.34A2.23,2.23,0,0,1,124.15,46.29Zm8.12,8.35V46.07c0-1.37-.53-2.47-1.91-2.66v-.17c4.65.17,6.5,1.93,6.5,5.6v6.8c0,.81.28,1.15.78,1.15s.9-.42,1.35-1.26h.17c-.45,1.54-2,2.27-3.64,2.27C133.28,57.8,132.27,57,132.27,54.64Z"/><path class="cls-3" d="M150.47,45.48v.22a3.1,3.1,0,0,0-2.33-1c-1.4,0-2.74.64-2.74,5.71s1.43,6,2.74,6a3.81,3.81,0,0,0,2.33-1v.17a5.2,5.2,0,0,1-4.06,2.27c-2.66,0-5.77-1.57-5.77-7.42,0-5.57,3.05-7.14,5.77-7.14A5.17,5.17,0,0,1,150.47,45.48Zm5.46,10.16c0,.81.25,1.15.75,1.15s.9-.42,1.35-1.26h.17c-.45,1.54-2,2.27-3.65,2.27-2.24,0-3.24-.78-3.24-3.16v-15c0-1-.48-1.48-2.08-1.48V38a18.41,18.41,0,0,0,6.7-1.09Z"/><path class="cls-3" d="M159.37,44.3a17.15,17.15,0,0,0,6.69-1.09V55.92c0,.7.42,1.43,2.1,1.43v.17h-8.82v-.17c1.68,0,2.1-.73,2.1-1.43V46c0-1-.47-1.48-2.07-1.48ZM160.8,39c0-1.46,1.17-2.44,2.86-2.44s2.85,1,2.85,2.44-1.18,2.46-2.85,2.46S160.8,40.52,160.8,39Z"/><path class="cls-3" d="M169.34,57.35c1.68,0,2.1-.73,2.1-1.43V46c0-1-.48-1.48-2.07-1.48v-.17a17.19,17.19,0,0,0,6.69-1.09V55.92c0,.7.42,1.43,2.1,1.43v.17h-8.82Zm9.85,0c1.66,0,2.08-.73,2.08-1.43V47.19a2.07,2.07,0,0,0-2.22-2.38,3,3,0,0,0-2.12.87v-.17a5.69,5.69,0,0,1,4.64-2.27c2.52,0,4.32,1.17,4.32,3.95v8.73c0,.7.42,1.43,2.1,1.43v.17h-8.8Z"/><path class="cls-3" d="M189.64,48.31c0-3.64,3.41-5,6.27-5.07v.17c-1.2.11-1.76,1.57-1.76,4.81s.56,4.76,1.76,4.88v.16C193.08,53.26,189.64,51.92,189.64,48.31Zm7.45,16c2.8-.33,3.69-1.85,3.69-2.86,0-3.89-10.92-.42-10.92-5.43a3.29,3.29,0,0,1,1.88-2.85l.08.14a.63.63,0,0,0-.25.53c0,3.14,12.77-.51,12.77,5.6,0,2.88-2.49,4.76-7.25,5ZM189.86,62c0-1.65,2-2.16,4.26-2.16a2.36,2.36,0,0,0-1.21,2c0,1.29,1.46,2.27,3.06,2.52v.17C193,64.46,189.86,63.85,189.86,62Zm7.23-8.9c1.37-.12,1.93-1.49,1.93-4.88s-.59-4.7-1.93-4.81v-.17c3,0,6.41,1.43,6.41,5.07s-3.45,4.95-6.41,4.95Zm1.51-10.36c.47-1.43,1.76-3.37,3.69-3.37,1.49,0,2.38.79,2.38,2.13a2.24,2.24,0,0,1-2.26,2.19c0-1.18-.62-1.88-1.52-1.88a3,3,0,0,0-2.15,1Z"/><path class="cls-3" d="M28.19,74.3a17.12,17.12,0,0,0,6.69-1.09V85.92c0,.7.42,1.43,2.1,1.43v.17H28.16v-.17c1.68,0,2.1-.73,2.1-1.43V76c0-1-.47-1.49-2.07-1.49ZM29.62,69c0-1.46,1.18-2.44,2.86-2.44s2.85,1,2.85,2.44-1.17,2.46-2.85,2.46S29.62,70.52,29.62,69Z"/><path class="cls-3" d="M38.16,87.35c1.68,0,2.1-.73,2.1-1.43V76c0-1-.48-1.48-2.07-1.48v-.17a17.19,17.19,0,0,0,6.69-1.09V85.92c0,.7.42,1.43,2.1,1.43v.17H38.16Zm9.86,0c1.65,0,2.07-.73,2.07-1.43V77.19c0-1.57-.81-2.38-2.21-2.38a3,3,0,0,0-2.13.87v-.17a5.69,5.69,0,0,1,4.65-2.27c2.52,0,4.31,1.18,4.31,4v8.73c0,.7.42,1.43,2.1,1.43v.17H48Z"/><path class="cls-3" d="M63.19,84.19a1.44,1.44,0,0,0-1.57,1.4c0,.81.56,1.85,2.5,2v.17c-3.73-.14-5.77-1.15-5.77-2.77A2.19,2.19,0,0,1,60.73,83,2.85,2.85,0,0,1,63.19,84.19Zm.93-10.78c-1,.19-2.05.73-2,1.87.08,3.25,9.16,3.78,9.16,8.24,0,2.71-2.3,4.14-5.91,4.28v-.17c1.17-.19,2.49-.61,2.49-2.07,0-2.91-9.18-4-9.18-8.23,0-2.47,2.32-4,5.46-4.09Zm6.6,2.71a1.83,1.83,0,0,1-2.07,1.74,2.41,2.41,0,0,1-2.38-1.34,1.25,1.25,0,0,0,1.26-1.32c0-.84-1.06-1.65-2.18-1.79v-.17C68.51,73.41,70.72,74.56,70.72,76.12Z"/><path class="cls-3" d="M79.52,83.85c0,1.57.53,2.38,1.93,2.38a2.45,2.45,0,0,0,1.93-.87v.17A4.65,4.65,0,0,1,79,87.8c-2.52,0-4.14-1.18-4.14-4V76c0-1-.48-1.48-2.08-1.48v-.17a17.21,17.21,0,0,0,6.7-1.09Zm9.32,1.79c0,.81.25,1.15.76,1.15s.89-.42,1.34-1.26h.17c-.45,1.54-2,2.27-3.81,2.27s-3.08-1.12-3.08-2.74V76c0-1-.48-1.48-2-1.48v-.17a18.25,18.25,0,0,0,6.61-1.09Z"/><path class="cls-3" d="M99,85.92c0,.7.42,1.43,2.1,1.43v.17H92.23v-.17c1.68,0,2.1-.73,2.1-1.43V76c0-1-.48-1.48-2.07-1.48v-.17A17.19,17.19,0,0,0,99,73.24Zm7.56-9.66a3,3,0,0,1-2.89,3.19,1.88,1.88,0,0,1-1.59-.61,2,2,0,0,0,1.09-1.9,1.49,1.49,0,0,0-1.57-1.52,1.92,1.92,0,0,0-1.68,1.07v-.23a3.88,3.88,0,0,1,3.64-3A2.84,2.84,0,0,1,106.51,76.26Z"/><path class="cls-3" d="M107.71,84.22c0-2.44,2.24-3.81,5.38-3.81h3v.16h-.84a2.78,2.78,0,0,0-3,3.06c0,1.54.45,2.71,1.77,2.71a3.06,3.06,0,0,0,2-1v.17a5.93,5.93,0,0,1-4.45,2.27C109.28,87.8,107.68,86.45,107.71,84.22Zm1.12-7.93c0-1.43,1.29-2.88,5.1-3.05v.17a2,2,0,0,0-1.8,2c0,1,.71,1.62,1.83,1.71a3.16,3.16,0,0,1-2.69,1.34A2.24,2.24,0,0,1,108.83,76.29ZM117,84.64V76.07c0-1.37-.53-2.47-1.9-2.66v-.17c4.65.17,6.49,1.93,6.49,5.6v6.8c0,.81.28,1.15.79,1.15s.89-.42,1.34-1.26h.17c-.45,1.54-2,2.27-3.64,2.27C118,87.8,117,87,117,84.64Z"/><path class="cls-3" d="M124.71,87.35c1.68,0,2.1-.73,2.1-1.43V76c0-1-.48-1.48-2.07-1.48v-.17a17.19,17.19,0,0,0,6.69-1.09V85.92c0,.7.42,1.43,2.1,1.43v.17h-8.82Zm9.85,0c1.65,0,2.07-.73,2.07-1.43V77.19c0-1.57-.81-2.38-2.21-2.38a3,3,0,0,0-2.13.87v-.17a5.72,5.72,0,0,1,4.65-2.27c2.52,0,4.31,1.18,4.31,4v8.73c0,.7.43,1.43,2.11,1.43v.17h-8.8Z"/><path class="cls-3" d="M152,73.41c-1.66.19-2.39,1.59-2.39,6.94,0,4,2,6.25,4.54,6.25a6.09,6.09,0,0,0,4.09-1.49v.17a7.86,7.86,0,0,1-5.94,2.52,7.32,7.32,0,0,1-7.47-7.34A7.17,7.17,0,0,1,152,73.24Zm6.21,3a2.6,2.6,0,0,1-2.8,2.69A2.38,2.38,0,0,1,153,77.33a2.42,2.42,0,0,0,1.35-2,1.65,1.65,0,0,0-1.21-1.84v-.2C156.82,73.24,158.25,74.81,158.25,76.4Z"/><path class="cls-3" d="M160.35,80.46a6.93,6.93,0,0,1,6.86-7.22v.17c-1.65.19-2.1,1.59-2.1,6.94,0,4,1.79,6.25,4.28,6.25a6.07,6.07,0,0,0,4.09-1.49v.17a7.82,7.82,0,0,1-5.93,2.52A7.1,7.1,0,0,1,160.35,80.46Zm6.3-1.17c2.47,0,3.5-.79,3.5-3.14,0-1.34-.56-2.58-1.82-2.74v-.17c3.7,0,5.49,2.63,5.49,4.76a8.59,8.59,0,0,1-.14,1.45h-7Z"/><path class="cls-3" d="M33.51,114.19a1.44,1.44,0,0,0-1.57,1.4c0,.81.56,1.85,2.5,2v.17c-3.73-.14-5.77-1.15-5.77-2.77A2.19,2.19,0,0,1,31.05,113,2.85,2.85,0,0,1,33.51,114.19Zm.93-10.78c-1,.19-2,.73-2,1.87.08,3.25,9.16,3.78,9.16,8.24,0,2.71-2.3,4.14-5.91,4.28v-.17c1.17-.19,2.49-.61,2.49-2.07,0-2.91-9.18-4-9.18-8.23,0-2.47,2.32-4,5.46-4.09Zm6.6,2.71A1.83,1.83,0,0,1,39,107.86a2.41,2.41,0,0,1-2.38-1.34,1.25,1.25,0,0,0,1.26-1.32c0-.84-1.06-1.65-2.18-1.79v-.17C38.83,103.41,41,104.56,41,106.12Z"/><path class="cls-3" d="M49.89,121.78c0,1,.48,1.48,2.07,1.48v.17a18.39,18.39,0,0,0-6.69,1.09V106c0-1-.47-1.49-2.07-1.49v-.17a18.39,18.39,0,0,0,6.69-1.09Zm10.67-11.4c0,5.85-3.08,7.42-5.74,7.42a5.24,5.24,0,0,1-4.09-2.27v-.17a3.89,3.89,0,0,0,2.35,1c1.32,0,2.72-.92,2.72-6s-1.32-5.71-2.72-5.71a3.16,3.16,0,0,0-2.35,1v-.22a5.21,5.21,0,0,1,4.09-2.24C57.54,103.24,60.56,104.81,60.56,110.38Z"/><path class="cls-3" d="M63,110.46a6.94,6.94,0,0,1,6.86-7.22v.17c-1.65.19-2.1,1.59-2.1,6.94,0,4,1.8,6.25,4.29,6.25a6.1,6.1,0,0,0,4.09-1.49v.17a7.86,7.86,0,0,1-5.94,2.52A7.1,7.1,0,0,1,63,110.46Zm6.3-1.17c2.47,0,3.5-.79,3.5-3.14,0-1.34-.56-2.58-1.82-2.74v-.17c3.7,0,5.49,2.63,5.49,4.76a7.67,7.67,0,0,1-.14,1.45h-7Z"/><path class="cls-3" d="M86,103.41c-1.66.19-2.38,1.59-2.38,6.94,0,4,2,6.25,4.53,6.25a6.09,6.09,0,0,0,4.09-1.49v.17a7.86,7.86,0,0,1-5.94,2.52,7.32,7.32,0,0,1-7.47-7.34A7.17,7.17,0,0,1,86,103.24Zm6.21,3a2.6,2.6,0,0,1-2.8,2.69,2.36,2.36,0,0,1-2.43-1.76,2.43,2.43,0,0,0,1.34-2,1.65,1.65,0,0,0-1.2-1.84v-.2C90.74,103.24,92.17,104.81,92.17,106.4Z"/><path class="cls-3" d="M93.82,104.3a17.21,17.21,0,0,0,6.7-1.09v12.71c0,.7.42,1.43,2.1,1.43v.17H93.79v-.17c1.68,0,2.1-.73,2.1-1.43V106c0-1-.47-1.49-2.07-1.49ZM95.25,99c0-1.46,1.18-2.44,2.86-2.44S101,97.58,101,99s-1.17,2.46-2.85,2.46S95.25,100.52,95.25,99Z"/><path class="cls-3" d="M104,114.22c0-2.44,2.23-3.81,5.37-3.81h3v.16h-.84a2.78,2.78,0,0,0-3,3.06c0,1.54.44,2.71,1.76,2.71a3.08,3.08,0,0,0,2-1v.17A6,6,0,0,1,108,117.8C105.58,117.8,104,116.45,104,114.22Zm1.11-7.93c0-1.43,1.29-2.88,5.1-3.05v.17a2,2,0,0,0-1.79,2c0,1,.7,1.62,1.82,1.71a3.16,3.16,0,0,1-2.69,1.34A2.24,2.24,0,0,1,105.13,106.29Zm8.12,8.35v-8.57c0-1.37-.53-2.47-1.9-2.66v-.17c4.65.17,6.5,1.93,6.5,5.6v6.8c0,.81.28,1.15.78,1.15s.9-.42,1.34-1.26h.17c-.44,1.54-2,2.27-3.64,2.27C114.26,117.8,113.25,117,113.25,114.64Z"/><path class="cls-3" d="M120.87,98a17.19,17.19,0,0,0,6.69-1.09v19c0,.7.42,1.43,2.1,1.43v.17h-8.82v-.17c1.68,0,2.1-.73,2.1-1.43V99.68c0-1-.47-1.48-2.07-1.48Z"/><path class="cls-3" d="M130.89,104.3a17.21,17.21,0,0,0,6.7-1.09v12.71c0,.7.42,1.43,2.1,1.43v.17h-8.82v-.17c1.68,0,2.1-.73,2.1-1.43V106c0-1-.48-1.49-2.08-1.49ZM132.32,99c0-1.46,1.18-2.44,2.86-2.44S138,97.58,138,99s-1.18,2.46-2.86,2.46S132.32,100.52,132.32,99Z"/><path class="cls-3" d="M146.24,114.19a1.43,1.43,0,0,0-1.57,1.4c0,.81.56,1.85,2.49,2v.17c-3.72-.14-5.77-1.15-5.77-2.77a2.19,2.19,0,0,1,2.38-2.08A2.87,2.87,0,0,1,146.24,114.19Zm.92-10.78c-1,.19-2,.73-2,1.87.08,3.25,9.15,3.78,9.15,8.24,0,2.71-2.29,4.14-5.91,4.28v-.17c1.18-.19,2.5-.61,2.5-2.07,0-2.91-9.19-4-9.19-8.23,0-2.47,2.33-4,5.46-4.09Zm6.61,2.71a1.83,1.83,0,0,1-2.07,1.74,2.39,2.39,0,0,1-2.38-1.34,1.25,1.25,0,0,0,1.26-1.32c0-.84-1.07-1.65-2.19-1.79v-.17C151.56,103.41,153.77,104.56,153.77,106.12Z"/><path class="cls-3" d="M167,115.36v.17a5.83,5.83,0,0,1-4.78,2.27c-2.52,0-4.32-1.15-4.32-4v-9.18h-1.45l.31-.42h1.14v-3a7.09,7.09,0,0,0,4.6-1.57v4.6h3.78l-.31.42h-3.47v9.27c0,1.4.53,2.85,1.84,2.85A4.08,4.08,0,0,0,167,115.36Z"/></g></svg>