<?xml version="1.0" encoding="utf-8"?>
<!-- Generator: Adobe Illustrator 24.0.3, SVG Export Plug-In . SVG Version: 6.00 Build 0)  -->
<svg version="1.1" id="Layer_1" xmlns="http://www.w3.org/2000/svg" xmlns:xlink="http://www.w3.org/1999/xlink" x="0px" y="0px"
	 viewBox="0 0 300 250" style="enable-background:new 0 0 300 250;" xml:space="preserve">
<style type="text/css">
	.st0{clip-path:url(#SVGID_2_);}
	.st1{enable-background:new    ;}
	.st2{fill:#FFFFFF;}
</style>
<title>Artboard 1 copy 5</title>
<g>
	<defs>
		<rect id="SVGID_1_" y="0" width="300" height="250"/>
	</defs>
	<clipPath id="SVGID_2_">
		<use xlink:href="#SVGID_1_"  style="overflow:visible;"/>
	</clipPath>
	<g class="st0">
		<g class="st1">
			<path class="st2" d="M28.3,42.4c3,0,5.4-0.3,7.6-1.2v14.5c0,0.8,0.5,1.6,2.4,1.6v0.2H28.3v-0.2c1.9,0,2.4-0.8,2.4-1.6V44.3
				c0-1.2-0.5-1.7-2.4-1.7V42.4z M29.9,36.4c0-1.7,1.3-2.8,3.3-2.8s3.3,1.1,3.3,2.8c0,1.7-1.3,2.8-3.3,2.8S29.9,38.1,29.9,36.4z"/>
			<path class="st2" d="M45.8,53.7c-1.1,0-1.8,0.6-1.8,1.6c0,0.9,0.6,2.1,2.8,2.3v0.2c-4.3-0.2-6.6-1.3-6.6-3.2
				c0-1.5,1.3-2.4,2.7-2.4C44.3,52.3,45.3,52.9,45.8,53.7z M46.9,41.4c-1.2,0.2-2.3,0.8-2.3,2.1c0.1,3.7,10.5,4.3,10.5,9.4
				c0,3.1-2.6,4.7-6.8,4.9v-0.2c1.3-0.2,2.8-0.7,2.8-2.4c0-3.3-10.5-4.5-10.5-9.4c0-2.8,2.7-4.5,6.2-4.7V41.4z M54.4,44.5
				c0,1-0.8,2-2.4,2c-1.3,0-2.3-0.6-2.7-1.5c1-0.1,1.5-0.7,1.4-1.5c0-1-1.2-1.9-2.5-2v-0.2C51.9,41.4,54.4,42.7,54.4,44.5z"/>
			<path class="st2" d="M65.9,49.5c0-5.4,4.1-8.2,7.8-8.3v0.2c-1.9,0.2-2.4,1.8-2.4,7.9c0,4.6,2,7.1,4.9,7.1c1.8,0,3.2-0.5,4.7-1.7
				V55c-1.7,2.1-4.7,2.9-6.8,2.9C70,57.8,65.9,54.8,65.9,49.5z M73.1,48.1c2.8,0,4-0.9,4-3.6c0-1.5-0.6-2.9-2.1-3.1v-0.2
				c4.2,0,6.3,3,6.3,5.4c0,0.5-0.1,1.2-0.2,1.7h-8V48.1z"/>
			<path class="st2" d="M83.6,53.7c0-2.8,2.6-4.4,6.1-4.4h3.5v0.2h-1c-2.3,0-3.4,1.5-3.4,3.5c0,1.8,0.5,3.1,2,3.1
				c0.9,0,1.6-0.5,2.3-1.1v0.2c-1.1,1.2-2.8,2.6-5.1,2.6C85.3,57.8,83.5,56.3,83.6,53.7z M84.8,44.7c0-1.6,1.5-3.3,5.8-3.5v0.2
				c-1.3,0.2-2,1.2-2,2.3c0,1.2,0.8,1.9,2.1,2c-0.5,0.9-1.8,1.5-3.1,1.5C85.9,47.2,84.8,46,84.8,44.7z M94.1,54.2v-9.8
				c0-1.6-0.6-2.8-2.2-3v-0.2c5.3,0.2,7.4,2.2,7.4,6.4v7.8c0,0.9,0.3,1.3,0.9,1.3c0.5,0,1-0.5,1.5-1.4h0.2c-0.5,1.8-2.2,2.6-4.2,2.6
				C95.3,57.8,94.1,56.9,94.1,54.2z"/>
		</g>
		<g class="st1">
			<path class="st2" d="M109.1,53.7c-1.1,0-1.8,0.6-1.8,1.6c0,0.9,0.6,2.1,2.8,2.3v0.2c-4.3-0.2-6.6-1.3-6.6-3.2
				c0-1.5,1.3-2.4,2.7-2.4C107.6,52.3,108.6,52.9,109.1,53.7z M110.2,41.4c-1.2,0.2-2.3,0.8-2.3,2.1c0.1,3.7,10.5,4.3,10.5,9.4
				c0,3.1-2.6,4.7-6.8,4.9v-0.2c1.3-0.2,2.8-0.7,2.8-2.4c0-3.3-10.5-4.5-10.5-9.4c0-2.8,2.7-4.5,6.2-4.7V41.4z M117.7,44.5
				c0,1-0.8,2-2.4,2c-1.3,0-2.3-0.6-2.7-1.5c1-0.1,1.5-0.7,1.4-1.5c0-1-1.2-1.9-2.5-2v-0.2C115.2,41.4,117.7,42.7,117.7,44.5z"/>
		</g>
		<g class="st1">
			<path class="st2" d="M121,42.8c-0.3-0.7-0.8-1.1-1.8-1.1v-0.2h9v0.2c-1.1,0-1.6,0.8-1,1.9l4.2,8.7l-2.8,5.2h-0.2L121,42.8z
				 M119.6,62.7c0-1.4,1.1-2.5,2.8-3c-0.1,0.3-0.1,0.5-0.1,0.8c0,1.2,0.6,2.1,1.9,2.1c1.1,0,2-1.2,3.2-3.2h0.2
				c-1.8,3.3-3,6.1-5.2,6.1C120.6,65.5,119.6,64.3,119.6,62.7z M132.7,49.2c0.5-1,0.9-2.4,0.9-4.1c0-1.8-1-3.4-3.3-3.4v-0.2h8v0.2
				c-1.1,0-1.5,0.4-2.1,1.5l-3.3,6.3L132.7,49.2z"/>
		</g>
		<g class="st1">
			<path class="st2" d="M151.4,43.6l4.2,8.7l-2.8,5.2h-0.2l-7.4-14.7c-0.3-0.7-0.8-1.1-1.8-1.1v-0.2h9v0.2
				C151.3,41.7,150.8,42.5,151.4,43.6z M161.9,43.6l4.2,8.7l-2.8,5.2h-0.2l-5-10l-1,1.9l-0.2-0.3c0.5-1.1,0.7-2.6,0.3-3.6l-1.4-2.8
				c-0.3-0.7-0.8-1.1-1.8-1.1v-0.2h9v0.2C161.8,41.7,161.4,42.5,161.9,43.6z M173.1,41.5v0.2c-1.1,0-1.5,0.4-2.1,1.5l-3.3,6.3
				l-0.2-0.3c0.5-1,0.9-2.4,0.9-4.1c0-1.8-1-3.4-3.3-3.4v-0.2H173.1z"/>
			<path class="st2" d="M173.3,42.4c3,0,5.4-0.3,7.6-1.2v14.5c0,0.8,0.5,1.6,2.4,1.6v0.2h-10.1v-0.2c1.9,0,2.4-0.8,2.4-1.6V44.3
				c0-1.2-0.5-1.7-2.4-1.7V42.4z M175,36.4c0-1.7,1.3-2.8,3.3-2.8s3.3,1.1,3.3,2.8c0,1.7-1.3,2.8-3.3,2.8S175,38.1,175,36.4z"/>
			<path class="st2" d="M197.1,55.1v0.2c-1,1.5-3.1,2.6-5.5,2.6c-2.9,0-4.9-1.3-4.9-4.5V42.8h-1.7l0.4-0.5h1.3v-3.5
				c2,0,3.9-0.6,5.2-1.8v5.2h4.3l-0.4,0.5h-4v10.6c0,1.6,0.6,3.3,2.1,3.3C195,56.7,196.1,56.1,197.1,55.1z"/>
			<path class="st2" d="M205.4,55.7c0,0.8,0.5,1.6,2.4,1.6v0.2h-10.1v-0.2c1.9,0,2.4-0.8,2.4-1.6V37.1c0-1.2-0.5-1.7-2.4-1.7v-0.2
				c3,0,5.4-0.3,7.6-1.2V55.7z M216.6,45.7v10c0,0.8,0.5,1.6,2.4,1.6v0.2h-10v-0.2c1.9,0,2.4-0.8,2.4-1.6v-10c0-1.8-0.9-2.7-2.5-2.7
				c-0.9,0-1.7,0.3-2.4,1v-0.2c0.9-1.3,2.9-2.6,5.3-2.6C214.6,41.2,216.6,42.5,216.6,45.7z"/>
		</g>
		<g class="st1">
			<path class="st2" d="M37,89.6v0.2c-2.5-0.1-4.5-0.5-6.2-1.6l-1.1,1.6h-0.3V82h0.3C30.8,85.6,33,88.3,37,89.6z M46.4,83.3
				c0,4.1-3.1,6.4-8,6.6v-0.2c1.8-0.3,3.5-1.3,3.5-3.3c0-5.6-12.2-6.1-12.2-12.6c0-3.8,3.1-6,7.4-6.3v0.2c-1.5,0.3-2.8,1.2-2.8,2.9
				C34.1,76.2,46.4,76.8,46.4,83.3z M38.3,67.6v-0.2c2.4,0.1,4.3,0.6,5.8,1.7l1.2-1.7h0.3v7.1h-0.3C44.2,71.2,41.5,68.4,38.3,67.6z"
				/>
		</g>
		<g class="st1">
			<path class="st2" d="M61,87.1v0.2c-1,1.5-3.1,2.6-5.5,2.6c-2.9,0-4.9-1.3-4.9-4.5V74.8h-1.7l0.4-0.5h1.3v-3.5
				c2,0,3.9-0.6,5.2-1.8v5.2h4.3l-0.4,0.5h-4v10.6c0,1.6,0.6,3.3,2.1,3.3C58.8,88.7,59.9,88.1,61,87.1z"/>
			<path class="st2" d="M62,85.7c0-2.8,2.6-4.4,6.1-4.4h3.5v0.2h-1c-2.3,0-3.4,1.5-3.4,3.5c0,1.8,0.5,3.1,2,3.1
				c0.9,0,1.6-0.5,2.3-1.1v0.2c-1.1,1.2-2.8,2.6-5.1,2.6C63.8,89.8,62,88.3,62,85.7z M63.3,76.7c0-1.6,1.5-3.3,5.8-3.5v0.2
				c-1.3,0.2-2,1.2-2,2.3c0,1.2,0.8,1.9,2.1,2c-0.5,0.9-1.8,1.5-3.1,1.5C64.3,79.2,63.3,78,63.3,76.7z M72.5,86.2v-9.8
				c0-1.6-0.6-2.8-2.2-3v-0.2c5.3,0.2,7.4,2.2,7.4,6.4v7.8c0,0.9,0.3,1.3,0.9,1.3c0.5,0,1-0.5,1.5-1.4h0.2c-0.5,1.8-2.2,2.6-4.2,2.6
				C73.7,89.8,72.5,88.9,72.5,86.2z"/>
		</g>
		<g class="st1">
			<path class="st2" d="M89.1,87.7c0,0.8,0.5,1.6,2.4,1.6v0.2H81.4v-0.2c1.9,0,2.4-0.8,2.4-1.6V76.3c0-1.2-0.5-1.7-2.4-1.7v-0.2
				c3,0,5.4-0.3,7.6-1.2V87.7z M97.7,76.7c0,2.2-1.6,3.6-3.3,3.6c-0.8,0-1.4-0.2-1.8-0.7c0.6-0.3,1.2-1,1.2-2.2
				c0-0.9-0.7-1.7-1.8-1.7c-0.8,0-1.5,0.5-1.9,1.2v-0.3c0.6-2,2.2-3.5,4.2-3.5C96.5,73.2,97.7,74.7,97.7,76.7z"/>
		</g>
		<g class="st1">
			<path class="st2" d="M107,89.3c1.9,0,2.4-0.8,2.4-1.6V69.6c0-0.9-0.5-1.6-2.4-1.6v-0.2h10.2V68c-1.9,0-2.4,0.8-2.4,1.6v18.1
				c0,0.9,0.5,1.6,2.4,1.6v0.2H107V89.3z"/>
			<path class="st2" d="M119.4,89.3c1.9,0,2.4-0.8,2.4-1.6V76.3c0-1.2-0.5-1.7-2.4-1.7v-0.2c3,0,5.4-0.3,7.6-1.2v14.5
				c0,0.8,0.5,1.6,2.4,1.6v0.2h-10.1V89.3z M130.6,89.3c1.9,0,2.4-0.8,2.4-1.6v-10c0-1.8-0.9-2.7-2.5-2.7c-0.9,0-1.7,0.3-2.4,1v-0.2
				c0.9-1.3,2.9-2.6,5.3-2.6c2.9,0,4.9,1.3,4.9,4.5v10c0,0.8,0.5,1.6,2.4,1.6v0.2h-10V89.3z"/>
			<path class="st2" d="M148,85.7c-1.1,0-1.8,0.6-1.8,1.6c0,0.9,0.6,2.1,2.8,2.3v0.2c-4.3-0.2-6.6-1.3-6.6-3.2
				c0-1.5,1.3-2.4,2.7-2.4C146.4,84.3,147.5,84.9,148,85.7z M149,73.4c-1.2,0.2-2.3,0.8-2.3,2.1c0.1,3.7,10.5,4.3,10.5,9.4
				c0,3.1-2.6,4.7-6.8,4.9v-0.2c1.3-0.2,2.8-0.7,2.8-2.4c0-3.3-10.5-4.5-10.5-9.4c0-2.8,2.7-4.5,6.2-4.7V73.4z M156.6,76.5
				c0,1-0.8,2-2.4,2c-1.3,0-2.3-0.6-2.7-1.5c1-0.1,1.5-0.7,1.4-1.5c0-1-1.2-1.9-2.5-2v-0.2C154.1,73.4,156.6,74.7,156.6,76.5z"/>
			<path class="st2" d="M166.6,85.3c0,1.8,0.6,2.7,2.2,2.7c0.8,0,1.5-0.3,2.2-1v0.2c-0.7,1.4-2.4,2.6-5,2.6c-2.9,0-4.7-1.3-4.7-4.5
				v-9c0-1.2-0.5-1.7-2.4-1.7v-0.2c3,0,5.4-0.3,7.6-1.2V85.3z M177.3,87.4c0,0.9,0.3,1.3,0.9,1.3c0.5,0,1-0.5,1.5-1.4h0.2
				c-0.5,1.8-2.2,2.6-4.4,2.6c-2.2,0-3.5-1.3-3.5-3.1V76.3c0-1.2-0.5-1.7-2.3-1.7v-0.2c2.9,0,4.9-0.3,7.6-1.2V87.4z"/>
		</g>
		<g class="st1">
			<path class="st2" d="M188.8,87.7c0,0.8,0.5,1.6,2.4,1.6v0.2h-10.1v-0.2c1.9,0,2.4-0.8,2.4-1.6V76.3c0-1.2-0.5-1.7-2.4-1.7v-0.2
				c3,0,5.4-0.3,7.6-1.2V87.7z M197.5,76.7c0,2.2-1.6,3.6-3.3,3.6c-0.8,0-1.4-0.2-1.8-0.7c0.6-0.3,1.2-1,1.2-2.2
				c0-0.9-0.7-1.7-1.8-1.7c-0.8,0-1.5,0.5-1.9,1.2v-0.3c0.6-2,2.2-3.5,4.2-3.5C196.3,73.2,197.5,74.7,197.5,76.7z"/>
		</g>
		<g class="st1">
			<path class="st2" d="M198.9,85.7c0-2.8,2.6-4.4,6.1-4.4h3.5v0.2h-1c-2.3,0-3.4,1.5-3.4,3.5c0,1.8,0.5,3.1,2,3.1
				c0.9,0,1.6-0.5,2.3-1.1v0.2c-1.1,1.2-2.8,2.6-5.1,2.6C200.6,89.8,198.8,88.3,198.9,85.7z M200.1,76.7c0-1.6,1.5-3.3,5.8-3.5v0.2
				c-1.3,0.2-2,1.2-2,2.3c0,1.2,0.8,1.9,2.1,2c-0.5,0.9-1.8,1.5-3.1,1.5C201.2,79.2,200.1,78,200.1,76.7z M209.4,86.2v-9.8
				c0-1.6-0.6-2.8-2.2-3v-0.2c5.3,0.2,7.4,2.2,7.4,6.4v7.8c0,0.9,0.3,1.3,0.9,1.3c0.5,0,1-0.5,1.5-1.4h0.2c-0.5,1.8-2.2,2.6-4.2,2.6
				C210.6,89.8,209.4,88.9,209.4,86.2z"/>
			<path class="st2" d="M218.3,89.3c1.9,0,2.4-0.8,2.4-1.6V76.3c0-1.2-0.5-1.7-2.4-1.7v-0.2c3,0,5.4-0.3,7.6-1.2v14.5
				c0,0.8,0.5,1.6,2.4,1.6v0.2h-10.1V89.3z M229.5,89.3c1.9,0,2.4-0.8,2.4-1.6v-10c0-1.8-0.9-2.7-2.5-2.7c-0.9,0-1.7,0.3-2.4,1v-0.2
				c0.9-1.3,2.9-2.6,5.3-2.6c2.9,0,4.9,1.3,4.9,4.5v10c0,0.8,0.5,1.6,2.4,1.6v0.2h-10V89.3z"/>
			<path class="st2" d="M249.5,73.4c-1.9,0.2-2.7,1.8-2.7,7.9c0,4.6,2.3,7.1,5.2,7.1c1.8,0,3.2-0.5,4.7-1.7V87
				c-1.7,2.1-4.7,2.9-6.8,2.9c-4.1,0-8.5-3-8.5-8.4s4.4-8.2,8.2-8.3V73.4z M256.6,76.8c0,1.7-1.2,3.1-3.2,3.1c-1.6,0-2.6-1-2.8-2
				c0.9-0.4,1.5-1.5,1.5-2.3c0-0.7-0.2-1.9-1.4-2.1v-0.2C255,73.2,256.6,75,256.6,76.8z"/>
			<path class="st2" d="M259,81.5c0-5.4,4.1-8.2,7.8-8.3v0.2c-1.9,0.2-2.4,1.8-2.4,7.9c0,4.6,2,7.1,4.9,7.1c1.8,0,3.2-0.5,4.7-1.7
				V87c-1.7,2.1-4.7,2.9-6.8,2.9C263.1,89.8,259,86.8,259,81.5z M266.2,80.1c2.8,0,4-0.9,4-3.6c0-1.5-0.6-2.9-2.1-3.1v-0.2
				c4.2,0,6.3,3,6.3,5.4c0,0.5-0.1,1.2-0.2,1.7h-8V80.1z"/>
		</g>
		<g class="st1">
			<path class="st2" d="M28.8,121.5v-0.2c1.9,0,2.4-0.7,2.4-1.6v-18.1c0-0.9-0.5-1.7-2.4-1.7v-0.2h7.8v21.8H28.8z M46.7,99.8v5.9
				h-0.3c-1.4-4-3.3-5.4-8.2-5.7v-0.2H46.7z M38.3,110.4v-0.2L40,110c1.9-0.2,3.2-0.9,4.2-2.8h0.3v6h-0.3c-1.1-1.8-2.3-2.5-4.2-2.7
				L38.3,110.4z M38.3,121.3c4.9-0.3,7.1-1.7,8.9-5.7h0.3v5.9h-9.1V121.3z"/>
			<path class="st2" d="M49.8,121.3c1.9,0,2.4-0.8,2.4-1.6v-11.4c0-1.2-0.5-1.7-2.4-1.7v-0.2c3,0,5.4-0.3,7.6-1.2v14.5
				c0,0.8,0.5,1.6,2.4,1.6v0.2H49.8V121.3z M61,121.3c1.9,0,2.4-0.8,2.4-1.6v-10c0-1.8-0.9-2.7-2.5-2.7c-0.9,0-1.7,0.3-2.4,1v-0.2
				c0.9-1.3,2.9-2.6,5.3-2.6c2.9,0,4.9,1.3,4.9,4.5v10c0,0.8,0.5,1.6,2.4,1.6v0.2H61V121.3z"/>
			<path class="st2" d="M84.6,119.1v0.2c-1,1.5-3.1,2.6-5.5,2.6c-2.9,0-4.9-1.3-4.9-4.5v-10.5h-1.7l0.4-0.5h1.3v-3.5
				c2,0,3.9-0.6,5.2-1.8v5.2h4.3l-0.4,0.5h-4v10.6c0,1.6,0.6,3.3,2.1,3.3C82.5,120.7,83.6,120.1,84.6,119.1z"/>
			<path class="st2" d="M92.9,119.7c0,0.8,0.5,1.6,2.4,1.6v0.2H85.2v-0.2c1.9,0,2.4-0.8,2.4-1.6v-18.6c0-1.2-0.5-1.7-2.4-1.7v-0.2
				c3,0,5.4-0.3,7.6-1.2V119.7z M104.1,109.7v10c0,0.8,0.5,1.6,2.4,1.6v0.2h-10v-0.2c1.9,0,2.4-0.8,2.4-1.6v-10
				c0-1.8-0.9-2.7-2.5-2.7c-0.9,0-1.7,0.3-2.4,1v-0.2c0.9-1.3,2.9-2.6,5.3-2.6C102,105.2,104.1,106.5,104.1,109.7z"/>
			<path class="st2" d="M115,117.3c0,1.8,0.6,2.7,2.2,2.7c0.8,0,1.5-0.3,2.2-1v0.2c-0.7,1.4-2.4,2.6-5,2.6c-2.9,0-4.7-1.3-4.7-4.5
				v-9c0-1.2-0.5-1.7-2.4-1.7v-0.2c3,0,5.4-0.3,7.6-1.2V117.3z M125.6,119.4c0,0.9,0.3,1.3,0.9,1.3c0.5,0,1-0.5,1.5-1.4h0.2
				c-0.5,1.8-2.2,2.6-4.4,2.6c-2.2,0-3.5-1.3-3.5-3.1v-10.4c0-1.2-0.5-1.7-2.3-1.7v-0.2c2.9,0,4.9-0.3,7.6-1.2V119.4z"/>
			<path class="st2" d="M135.7,117.7c-1.1,0-1.8,0.6-1.8,1.6c0,0.9,0.6,2.1,2.8,2.3v0.2c-4.3-0.2-6.6-1.3-6.6-3.2
				c0-1.5,1.3-2.4,2.7-2.4C134.1,116.3,135.2,116.9,135.7,117.7z M136.7,105.4c-1.2,0.2-2.3,0.8-2.3,2.1c0.1,3.7,10.5,4.3,10.5,9.4
				c0,3.1-2.6,4.7-6.8,4.9v-0.2c1.3-0.2,2.8-0.7,2.8-2.4c0-3.3-10.5-4.5-10.5-9.4c0-2.8,2.7-4.5,6.2-4.7V105.4z M144.3,108.5
				c0,1-0.8,2-2.4,2c-1.3,0-2.3-0.6-2.7-1.5c1-0.1,1.5-0.7,1.4-1.5c0-1-1.2-1.9-2.5-2v-0.2C141.7,105.4,144.3,106.7,144.3,108.5z"/>
			<path class="st2" d="M147,106.4c3,0,5.4-0.3,7.6-1.2v14.5c0,0.8,0.5,1.6,2.4,1.6v0.2H147v-0.2c1.9,0,2.4-0.8,2.4-1.6v-11.4
				c0-1.2-0.5-1.7-2.4-1.7V106.4z M148.7,100.4c0-1.7,1.3-2.8,3.3-2.8c1.9,0,3.3,1.1,3.3,2.8c0,1.7-1.3,2.8-3.3,2.8
				C150,103.2,148.7,102.1,148.7,100.4z"/>
			<path class="st2" d="M158.7,117.7c0-2.8,2.6-4.4,6.1-4.4h3.5v0.2h-1c-2.3,0-3.4,1.5-3.4,3.5c0,1.8,0.5,3.1,2,3.1
				c0.9,0,1.6-0.5,2.3-1.1v0.2c-1.1,1.2-2.8,2.6-5.1,2.6C160.5,121.8,158.7,120.3,158.7,117.7z M160,108.7c0-1.6,1.5-3.3,5.8-3.5
				v0.2c-1.3,0.2-2,1.2-2,2.3c0,1.2,0.8,1.9,2.1,2c-0.5,0.9-1.8,1.5-3.1,1.5C161,111.2,160,110,160,108.7z M169.2,118.2v-9.8
				c0-1.6-0.6-2.8-2.2-3v-0.2c5.3,0.2,7.4,2.2,7.4,6.4v7.8c0,0.9,0.3,1.3,0.9,1.3c0.5,0,1-0.5,1.5-1.4h0.2c-0.5,1.8-2.2,2.6-4.2,2.6
				C170.4,121.8,169.2,120.9,169.2,118.2z"/>
			<path class="st2" d="M184.3,117.7c-1.1,0-1.8,0.6-1.8,1.6c0,0.9,0.6,2.1,2.8,2.3v0.2c-4.3-0.2-6.6-1.3-6.6-3.2
				c0-1.5,1.3-2.4,2.7-2.4C182.7,116.3,183.8,116.9,184.3,117.7z M185.3,105.4c-1.2,0.2-2.3,0.8-2.3,2.1c0.1,3.7,10.5,4.3,10.5,9.4
				c0,3.1-2.6,4.7-6.8,4.9v-0.2c1.3-0.2,2.8-0.7,2.8-2.4c0-3.3-10.5-4.5-10.5-9.4c0-2.8,2.7-4.5,6.2-4.7V105.4z M192.9,108.5
				c0,1-0.8,2-2.4,2c-1.3,0-2.3-0.6-2.7-1.5c1-0.1,1.5-0.7,1.4-1.5c0-1-1.2-1.9-2.5-2v-0.2C190.3,105.4,192.9,106.7,192.9,108.5z"/>
			<path class="st2" d="M208,119.1v0.2c-1,1.5-3.1,2.6-5.5,2.6c-2.9,0-4.9-1.3-4.9-4.5v-10.5h-1.7l0.4-0.5h1.3v-3.5
				c2,0,3.9-0.6,5.2-1.8v5.2h4.3l-0.4,0.5h-4v10.6c0,1.6,0.6,3.3,2.1,3.3C205.9,120.7,206.9,120.1,208,119.1z"/>
		</g>
	</g>
</g>
</svg>
