<?xml version="1.0" encoding="utf-8"?>
<!-- Generator: Adobe Illustrator 24.0.3, SVG Export Plug-In . SVG Version: 6.00 Build 0)  -->
<svg version="1.1" id="Layer_1" xmlns="http://www.w3.org/2000/svg" xmlns:xlink="http://www.w3.org/1999/xlink" x="0px" y="0px"
	 viewBox="0 0 300 250" style="enable-background:new 0 0 300 250;" xml:space="preserve">
<style type="text/css">
	.st0{clip-path:url(#SVGID_2_);}
	.st1{enable-background:new    ;}
	.st2{fill:#FFFFFF;}
</style>
<title>Artboard 1 copy 2</title>
<g>
	<defs>
		<rect id="SVGID_1_" y="0" width="300" height="250"/>
	</defs>
	<clipPath id="SVGID_2_">
		<use xlink:href="#SVGID_1_"  style="overflow:visible;"/>
	</clipPath>
	<g class="st0">
		<g class="st1">
			<path class="st2" d="M48.3,53.3l0.1,0.3c-1.7,2.7-4.6,3.9-7.7,3.9c-5.2,0-11.7-3.7-11.7-11.2c0-8.1,6.3-11.1,10.9-11.2v0.2
				c-2.2,0.5-4.7,2.6-4.7,10.8c0,8.2,3.3,10.1,6.9,10.1C45.1,56.2,47.2,54.7,48.3,53.3z M48.6,35.1v7.8h-0.3
				c-1.2-4.3-3.6-6.7-6.8-7.6v-0.2c2.8,0.1,4.5,0.6,5.8,1.5l1-1.5H48.6z"/>
			<path class="st2" d="M58.2,55.3c0,0.8,0.5,1.6,2.4,1.6v0.2H50.6v-0.2c1.9,0,2.4-0.8,2.4-1.6V36.8c0-1.2-0.5-1.7-2.4-1.7v-0.2
				c3,0,5.4-0.3,7.6-1.2V55.3z M69.4,45.3v10c0,0.8,0.5,1.6,2.4,1.6v0.2h-10v-0.2c1.9,0,2.4-0.8,2.4-1.6v-10c0-1.8-0.9-2.7-2.5-2.7
				c-0.9,0-1.7,0.3-2.4,1v-0.2c0.9-1.3,2.9-2.6,5.3-2.6C67.4,40.8,69.4,42.2,69.4,45.3z"/>
			<path class="st2" d="M73.2,53.4c0-2.8,2.6-4.4,6.1-4.4h3.5v0.2h-1c-2.3,0-3.4,1.5-3.4,3.5c0,1.8,0.5,3.1,2,3.1
				c0.9,0,1.6-0.5,2.3-1.1v0.2c-1.1,1.2-2.8,2.6-5.1,2.6C75,57.5,73.2,55.9,73.2,53.4z M74.5,44.3c0-1.6,1.5-3.3,5.8-3.5V41
				c-1.3,0.2-2,1.2-2,2.3c0,1.2,0.8,1.9,2.1,2c-0.5,0.9-1.8,1.5-3.1,1.5C75.6,46.8,74.5,45.7,74.5,44.3z M83.8,53.8v-9.8
				c0-1.6-0.6-2.8-2.2-3v-0.2c5.3,0.2,7.4,2.2,7.4,6.4V55c0,0.9,0.3,1.3,0.9,1.3c0.5,0,1-0.5,1.5-1.4h0.2c-0.5,1.8-2.2,2.6-4.2,2.6
				C85,57.5,83.8,56.6,83.8,53.8z"/>
			<path class="st2" d="M92.7,56.9c1.9,0,2.4-0.8,2.4-1.6V44c0-1.2-0.5-1.7-2.4-1.7v-0.2c3,0,5.4-0.3,7.6-1.2v14.5
				c0,0.8,0.5,1.6,2.4,1.6v0.2H92.7V56.9z M103.9,56.9c1.9,0,2.4-0.8,2.4-1.6v-10c0-1.8-0.9-2.7-2.5-2.7c-0.9,0-1.7,0.3-2.4,1v-0.2
				c0.9-1.3,2.9-2.6,5.3-2.6c2.9,0,4.9,1.3,4.9,4.5v10c0,0.8,0.5,1.6,2.4,1.6v0.2h-10V56.9z"/>
			<path class="st2" d="M115.9,46.6c0-4.2,3.9-5.7,7.2-5.8V41c-1.4,0.1-2,1.8-2,5.5c0,3.9,0.6,5.4,2,5.6v0.2
				C119.8,52.3,115.9,50.7,115.9,46.6z M124.4,64.9c3.2-0.4,4.2-2.1,4.2-3.3c0-4.4-12.5-0.5-12.5-6.2c0-1.3,0.7-2.3,2.1-3.3l0.1,0.2
				c-0.2,0.1-0.3,0.4-0.3,0.6c0,3.6,14.6-0.6,14.6,6.4c0,3.3-2.8,5.4-8.3,5.8V64.9z M116.1,62.3c0-1.9,2.3-2.5,4.9-2.5
				c-0.6,0.3-1.4,1.2-1.4,2.3c0,1.5,1.7,2.6,3.5,2.9v0.2C119.7,65.1,116.1,64.4,116.1,62.3z M124.4,52.1c1.6-0.1,2.2-1.7,2.2-5.6
				c0-3.7-0.7-5.4-2.2-5.5v-0.2c3.4,0.1,7.3,1.6,7.3,5.8c0,4.1-3.9,5.7-7.3,5.7V52.1z M126.1,40.2c0.5-1.6,2-3.8,4.2-3.8
				c1.7,0,2.7,0.9,2.7,2.4c0,1.6-1.4,2.5-2.6,2.5c0-1.3-0.7-2.1-1.7-2.1c-1,0-2,0.6-2.5,1.2L126.1,40.2z"/>
			<path class="st2" d="M134,42c3,0,5.4-0.3,7.6-1.2v14.5c0,0.8,0.5,1.6,2.4,1.6v0.2H134v-0.2c1.9,0,2.4-0.8,2.4-1.6V43.9
				c0-1.2-0.5-1.7-2.4-1.7V42z M135.6,36c0-1.7,1.3-2.8,3.3-2.8s3.3,1.1,3.3,2.8c0,1.7-1.3,2.8-3.3,2.8S135.6,37.7,135.6,36z"/>
			<path class="st2" d="M145.4,56.9c1.9,0,2.4-0.8,2.4-1.6V44c0-1.2-0.5-1.7-2.4-1.7v-0.2c3,0,5.4-0.3,7.6-1.2v14.5
				c0,0.8,0.5,1.6,2.4,1.6v0.2h-10.1V56.9z M156.6,56.9c1.9,0,2.4-0.8,2.4-1.6v-10c0-1.8-0.9-2.7-2.5-2.7c-0.9,0-1.7,0.3-2.4,1v-0.2
				c0.9-1.3,2.9-2.6,5.3-2.6c2.9,0,4.9,1.3,4.9,4.5v10c0,0.8,0.5,1.6,2.4,1.6v0.2h-10V56.9z"/>
			<path class="st2" d="M168.6,46.6c0-4.2,3.9-5.7,7.2-5.8V41c-1.4,0.1-2,1.8-2,5.5c0,3.9,0.6,5.4,2,5.6v0.2
				C172.5,52.3,168.6,50.7,168.6,46.6z M177.1,64.9c3.2-0.4,4.2-2.1,4.2-3.3c0-4.4-12.5-0.5-12.5-6.2c0-1.3,0.7-2.3,2.1-3.3l0.1,0.2
				c-0.2,0.1-0.3,0.4-0.3,0.6c0,3.6,14.6-0.6,14.6,6.4c0,3.3-2.8,5.4-8.3,5.8V64.9z M168.8,62.3c0-1.9,2.3-2.5,4.9-2.5
				c-0.6,0.3-1.4,1.2-1.4,2.3c0,1.5,1.7,2.6,3.5,2.9v0.2C172.4,65.1,168.8,64.4,168.8,62.3z M177.1,52.1c1.6-0.1,2.2-1.7,2.2-5.6
				c0-3.7-0.7-5.4-2.2-5.5v-0.2c3.4,0.1,7.3,1.6,7.3,5.8c0,4.1-3.9,5.7-7.3,5.7V52.1z M178.8,40.2c0.5-1.6,2-3.8,4.2-3.8
				c1.7,0,2.7,0.9,2.7,2.4c0,1.6-1.4,2.5-2.6,2.5c0-1.3-0.7-2.1-1.7-2.1c-1,0-2,0.6-2.5,1.2L178.8,40.2z"/>
		</g>
		<g class="st1">
			<path class="st2" d="M29,74.5c-0.3-0.7-0.8-1.1-1.8-1.1v-0.2h9v0.2c-1.1,0-1.6,0.8-1,1.9l4.2,8.7l-2.8,5.2h-0.2L29,74.5z
				 M40.7,80.8c0.5-1,0.9-2.4,0.9-4.1c0-1.8-1-3.4-3.3-3.4v-0.2h8v0.2c-1.1,0-1.5,0.4-2.1,1.5l-3.3,6.3L40.7,80.8z"/>
		</g>
		<g class="st1">
			<path class="st2" d="M46.6,81.1c0-5.4,4.1-8.2,7.8-8.3V73c-1.9,0.2-2.4,1.8-2.4,7.9c0,4.6,2,7.1,4.9,7.1c1.8,0,3.2-0.5,4.7-1.7
				v0.2c-1.7,2.1-4.7,2.9-6.8,2.9C50.7,89.5,46.6,86.5,46.6,81.1z M53.8,79.7c2.8,0,4-0.9,4-3.6c0-1.5-0.6-2.9-2.1-3.1v-0.2
				c4.2,0,6.3,3,6.3,5.4c0,0.5-0.1,1.2-0.2,1.7h-8V79.7z"/>
			<path class="st2" d="M71.5,87.3c0,0.8,0.5,1.6,2.4,1.6v0.2H63.8v-0.2c1.9,0,2.4-0.8,2.4-1.6V68.8c0-1.2-0.5-1.7-2.4-1.7v-0.2
				c3,0,5.4-0.3,7.6-1.2V87.3z M82.7,77.3v10c0,0.8,0.5,1.6,2.4,1.6v0.2H75v-0.2c1.9,0,2.4-0.8,2.4-1.6v-10c0-1.8-0.9-2.7-2.5-2.7
				c-0.9,0-1.7,0.3-2.4,1v-0.2c0.9-1.3,2.9-2.6,5.3-2.6C80.6,72.8,82.7,74.2,82.7,77.3z"/>
			<path class="st2" d="M86.3,74c3,0,5.4-0.3,7.6-1.2v14.5c0,0.8,0.5,1.6,2.4,1.6v0.2H86.3v-0.2c1.9,0,2.4-0.8,2.4-1.6V75.9
				c0-1.2-0.5-1.7-2.4-1.7V74z M87.9,68c0-1.7,1.3-2.8,3.3-2.8s3.3,1.1,3.3,2.8c0,1.7-1.3,2.8-3.3,2.8S87.9,69.7,87.9,68z"/>
			<path class="st2" d="M106.5,73c-1.9,0.2-2.7,1.8-2.7,7.9c0,4.6,2.3,7.1,5.2,7.1c1.8,0,3.2-0.5,4.7-1.7v0.2
				c-1.7,2.1-4.7,2.9-6.8,2.9c-4.1,0-8.5-3-8.5-8.4s4.4-8.2,8.2-8.3V73z M113.6,76.4c0,1.7-1.2,3.1-3.2,3.1c-1.6,0-2.6-1-2.8-2
				c0.9-0.4,1.5-1.5,1.5-2.3c0-0.7-0.2-1.9-1.4-2.1v-0.2C111.9,72.8,113.6,74.6,113.6,76.4z"/>
			<path class="st2" d="M115.2,66.9c3,0,5.4-0.3,7.6-1.2v21.7c0,0.8,0.5,1.6,2.4,1.6v0.2h-10.1v-0.2c1.9,0,2.4-0.8,2.4-1.6V68.8
				c0-1.2-0.5-1.7-2.4-1.7V66.9z"/>
			<path class="st2" d="M127.2,81.1c0-5.4,4.1-8.2,7.8-8.3V73c-1.9,0.2-2.4,1.8-2.4,7.9c0,4.6,2,7.1,4.9,7.1c1.8,0,3.2-0.5,4.7-1.7
				v0.2c-1.7,2.1-4.7,2.9-6.8,2.9C131.3,89.5,127.2,86.5,127.2,81.1z M134.4,79.7c2.8,0,4-0.9,4-3.6c0-1.5-0.6-2.9-2.1-3.1v-0.2
				c4.2,0,6.3,3,6.3,5.4c0,0.5-0.1,1.2-0.2,1.7h-8V79.7z"/>
		</g>
		<g class="st1">
			<path class="st2" d="M28.3,106c3,0,5.4-0.3,7.6-1.2v14.5c0,0.8,0.5,1.6,2.4,1.6v0.2H28.3v-0.2c1.9,0,2.4-0.8,2.4-1.6v-11.4
				c0-1.2-0.5-1.7-2.4-1.7V106z M30,100c0-1.7,1.3-2.8,3.3-2.8s3.3,1.1,3.3,2.8c0,1.7-1.3,2.8-3.3,2.8S30,101.7,30,100z"/>
			<path class="st2" d="M39.7,120.9c1.9,0,2.4-0.8,2.4-1.6V108c0-1.2-0.5-1.7-2.4-1.7v-0.2c3,0,5.4-0.3,7.6-1.2v14.5
				c0,0.8,0.5,1.6,2.4,1.6v0.2H39.7V120.9z M51,120.9c1.9,0,2.4-0.8,2.4-1.6v-10c0-1.8-0.9-2.7-2.5-2.7c-0.9,0-1.7,0.3-2.4,1v-0.2
				c0.9-1.3,2.9-2.6,5.3-2.6c2.9,0,4.9,1.3,4.9,4.5v10c0,0.8,0.5,1.6,2.4,1.6v0.2H51V120.9z"/>
			<path class="st2" d="M68.3,117.3c-1.1,0-1.8,0.6-1.8,1.6c0,0.9,0.6,2.1,2.8,2.3v0.2c-4.3-0.2-6.6-1.3-6.6-3.2
				c0-1.5,1.3-2.4,2.7-2.4C66.8,115.9,67.8,116.5,68.3,117.3z M69.4,105c-1.2,0.2-2.3,0.8-2.3,2.1c0.1,3.7,10.5,4.3,10.5,9.4
				c0,3.1-2.6,4.7-6.8,4.9v-0.2c1.3-0.2,2.8-0.7,2.8-2.4c0-3.3-10.5-4.5-10.5-9.4c0-2.8,2.7-4.5,6.2-4.7V105z M76.9,108.1
				c0,1-0.8,2-2.4,2c-1.3,0-2.3-0.6-2.7-1.5c1-0.1,1.5-0.7,1.4-1.5c0-1-1.2-1.9-2.5-2v-0.2C74.4,105,76.9,106.3,76.9,108.1z"/>
			<path class="st2" d="M87,116.9c0,1.8,0.6,2.7,2.2,2.7c0.8,0,1.5-0.3,2.2-1v0.2c-0.7,1.4-2.4,2.6-5,2.6c-2.9,0-4.7-1.3-4.7-4.5v-9
				c0-1.2-0.5-1.7-2.4-1.7v-0.2c3,0,5.4-0.3,7.6-1.2V116.9z M97.6,119c0,0.9,0.3,1.3,0.9,1.3c0.5,0,1-0.5,1.5-1.4h0.2
				c-0.5,1.8-2.2,2.6-4.4,2.6c-2.2,0-3.5-1.3-3.5-3.1V108c0-1.2-0.5-1.7-2.3-1.7v-0.2c2.9,0,4.9-0.3,7.6-1.2V119z"/>
		</g>
		<g class="st1">
			<path class="st2" d="M109.2,119.3c0,0.8,0.5,1.6,2.4,1.6v0.2h-10.1v-0.2c1.9,0,2.4-0.8,2.4-1.6V108c0-1.2-0.5-1.7-2.4-1.7v-0.2
				c3,0,5.4-0.3,7.6-1.2V119.3z M117.8,108.3c0,2.2-1.6,3.6-3.3,3.6c-0.8,0-1.4-0.2-1.8-0.7c0.6-0.3,1.2-1,1.2-2.2
				c0-0.9-0.7-1.7-1.8-1.7c-0.8,0-1.5,0.5-1.9,1.2v-0.3c0.6-2,2.2-3.5,4.2-3.5C116.6,104.8,117.8,106.4,117.8,108.3z"/>
		</g>
		<g class="st1">
			<path class="st2" d="M119.2,117.4c0-2.8,2.6-4.4,6.1-4.4h3.5v0.2h-1c-2.3,0-3.4,1.5-3.4,3.5c0,1.8,0.5,3.1,2,3.1
				c0.9,0,1.6-0.5,2.3-1.1v0.2c-1.1,1.2-2.8,2.6-5.1,2.6C121,121.5,119.2,119.9,119.2,117.4z M120.5,108.3c0-1.6,1.5-3.3,5.8-3.5
				v0.2c-1.3,0.2-2,1.2-2,2.3c0,1.2,0.8,1.9,2.1,2c-0.5,0.9-1.8,1.5-3.1,1.5C121.5,110.8,120.5,109.7,120.5,108.3z M129.8,117.8
				v-9.8c0-1.6-0.6-2.8-2.2-3v-0.2c5.3,0.2,7.4,2.2,7.4,6.4v7.8c0,0.9,0.3,1.3,0.9,1.3c0.5,0,1-0.5,1.5-1.4h0.2
				c-0.5,1.8-2.2,2.6-4.2,2.6C130.9,121.5,129.8,120.6,129.8,117.8z"/>
			<path class="st2" d="M138.6,120.9c1.9,0,2.4-0.8,2.4-1.6V108c0-1.2-0.5-1.7-2.4-1.7v-0.2c3,0,5.4-0.3,7.6-1.2v14.5
				c0,0.8,0.5,1.6,2.4,1.6v0.2h-10.1V120.9z M149.9,120.9c1.9,0,2.4-0.8,2.4-1.6v-10c0-1.8-0.9-2.7-2.5-2.7c-0.9,0-1.7,0.3-2.4,1
				v-0.2c0.9-1.3,2.9-2.6,5.3-2.6c2.9,0,4.9,1.3,4.9,4.5v10c0,0.8,0.5,1.6,2.4,1.6v0.2h-10V120.9z"/>
			<path class="st2" d="M169.9,105c-1.9,0.2-2.7,1.8-2.7,7.9c0,4.6,2.3,7.1,5.2,7.1c1.8,0,3.2-0.5,4.7-1.7v0.2
				c-1.7,2.1-4.7,2.9-6.8,2.9c-4.1,0-8.5-3-8.5-8.4s4.4-8.2,8.2-8.3V105z M177,108.4c0,1.7-1.2,3.1-3.2,3.1c-1.6,0-2.6-1-2.8-2
				c0.9-0.4,1.5-1.5,1.5-2.3c0-0.7-0.2-1.9-1.4-2.1v-0.2C175.3,104.8,177,106.6,177,108.4z"/>
			<path class="st2" d="M179.4,113.1c0-5.4,4.1-8.2,7.8-8.3v0.2c-1.9,0.2-2.4,1.8-2.4,7.9c0,4.6,2,7.1,4.9,7.1
				c1.8,0,3.2-0.5,4.7-1.7v0.2c-1.7,2.1-4.7,2.9-6.8,2.9C183.5,121.5,179.4,118.5,179.4,113.1z M186.6,111.7c2.8,0,4-0.9,4-3.6
				c0-1.5-0.6-2.9-2.1-3.1v-0.2c4.2,0,6.3,3,6.3,5.4c0,0.5-0.1,1.2-0.2,1.7h-8V111.7z"/>
		</g>
	</g>
</g>
</svg>
