<svg id="Layer_1" data-name="Layer 1" xmlns="http://www.w3.org/2000/svg" viewBox="0 0 300 250"><defs><style>.cls-1{fill:none;}.cls-2{fill:#74503e;}.cls-3{fill:#fff;}</style></defs><title>Artboard 1 copy 6</title><rect class="cls-1" width="300" height="250"/><path class="cls-2" d="M35.91,216H137.63a9.71,9.71,0,0,0,8.62-5.24L159,186.18a9.73,9.73,0,0,0,0-8.94l-12.78-24.63a9.71,9.71,0,0,0-8.62-5.24H35.91a5.9,5.9,0,0,0-5.9,5.9v56.88A5.9,5.9,0,0,0,35.91,216Z"/><path class="cls-3" d="M81.2,173.25l.24-.35c.17-.23.36-.25.63-.09a2.73,2.73,0,0,0,1.57.56c.71,0,1.15-.36,1.15-.88,0-1.47-3.6-1.16-3.6-3.57a2.34,2.34,0,0,1,2.6-2.24,3.6,3.6,0,0,1,2,.59.43.43,0,0,1,.14.62l-.2.36c-.16.32-.39.27-.62.15a2.55,2.55,0,0,0-1.33-.42c-.72,0-1.18.35-1.18.87,0,1.44,3.6,1.07,3.6,3.53a2.31,2.31,0,0,1-2.55,2.29,4.1,4.1,0,0,1-2.38-.79A.4.4,0,0,1,81.2,173.25Z"/><path class="cls-3" d="M89.3,168H87.23c-.31,0-.46-.15-.46-.44v-.31a.41.41,0,0,1,.46-.46h5.54a.41.41,0,0,1,.45.46v.31a.39.39,0,0,1-.45.44H90.69v6.06a.4.4,0,0,1-.45.46h-.49a.41.41,0,0,1-.45-.46Z"/><path class="cls-3" d="M95.05,167.18a.49.49,0,0,1,.51-.37h.7a.48.48,0,0,1,.51.37L99.19,174c.11.32,0,.53-.37.53h-.5a.5.5,0,0,1-.52-.37l-.54-1.61H94.55l-.53,1.6a.49.49,0,0,1-.51.38H93c-.34,0-.48-.21-.37-.53Zm1.86,4.23-.68-2.06c-.13-.44-.31-1.2-.31-1.2h0s-.17.76-.3,1.2l-.7,2.06Z"/><path class="cls-3" d="M100.16,167.27a.41.41,0,0,1,.45-.46h2.08a3.51,3.51,0,0,1,1.47.21,2.15,2.15,0,0,1,1.3,2.11,2.24,2.24,0,0,1-1.29,2.11v0a2.62,2.62,0,0,1,.25.4L105.7,174c.18.32,0,.55-.32.55h-.59a.55.55,0,0,1-.53-.32l-1.36-2.57h-1.35v2.43a.4.4,0,0,1-.44.46h-.5a.4.4,0,0,1-.45-.46Zm2.65,3.17a1.13,1.13,0,0,0,1.22-1.23,1,1,0,0,0-.61-1.06,1.85,1.85,0,0,0-.83-.13h-1v2.42Z"/><path class="cls-3" d="M81.71,176.7a.24.24,0,0,1,.26-.27h.23a.24.24,0,0,1,.26.27v7.11a.24.24,0,0,1-.26.27H82a.24.24,0,0,1-.26-.27Z"/><path class="cls-3" d="M84.27,178.88a.25.25,0,0,1,.27-.27h.2a.24.24,0,0,1,.26.27v.63a1.89,1.89,0,0,1,0,.39h0a2.4,2.4,0,0,1,2.21-1.42c1.36,0,1.83.77,1.83,2.12v3.21a.24.24,0,0,1-.27.27h-.2a.24.24,0,0,1-.27-.27v-3c0-.85-.14-1.62-1.19-1.62A2.12,2.12,0,0,0,85,181.4v2.41a.24.24,0,0,1-.26.27h-.21a.25.25,0,0,1-.27-.27Z"/><path class="cls-3" d="M90.2,183.21l.09-.11c.09-.13.21-.14.37,0a2.37,2.37,0,0,0,1.44.5c.61,0,1.11-.31,1.11-.88,0-1.23-2.92-.86-2.92-2.67,0-1,.86-1.53,1.86-1.53a2.56,2.56,0,0,1,1.5.44.23.23,0,0,1,.07.36l-.07.12a.24.24,0,0,1-.37.08,2.08,2.08,0,0,0-1.18-.35c-.57,0-1.07.25-1.07.85,0,1.26,2.91.86,2.91,2.68a1.65,1.65,0,0,1-1.85,1.55,2.84,2.84,0,0,1-1.85-.63A.24.24,0,0,1,90.2,183.21Z"/><path class="cls-3" d="M95,178.88a.24.24,0,0,1,.26-.27h.2a.25.25,0,0,1,.28.27v3c0,.86.13,1.62,1.18,1.62a2.13,2.13,0,0,0,2-2.28v-2.35a.24.24,0,0,1,.27-.27h.2a.24.24,0,0,1,.26.27v4.93a.24.24,0,0,1-.26.27h-.19a.24.24,0,0,1-.26-.27v-.63a2.72,2.72,0,0,1,0-.4h0a2.37,2.37,0,0,1-2.16,1.43c-1.29,0-1.82-.7-1.82-2.12Z"/><path class="cls-3" d="M101.33,178.88a.24.24,0,0,1,.27-.27h.19a.25.25,0,0,1,.27.27v.74a1.88,1.88,0,0,1,0,.43h0a2,2,0,0,1,1.77-1.47c.19,0,.28.08.28.26V179c0,.18-.12.27-.31.27-1.15,0-1.7,1.32-1.7,2.46v2.05a.24.24,0,0,1-.26.27h-.21a.24.24,0,0,1-.27-.27Z"/><path class="cls-3" d="M107.84,180.73h.32v-.18a1.23,1.23,0,0,0-1.35-1.41,2.6,2.6,0,0,0-1.33.38.25.25,0,0,1-.37-.09l-.06-.1a.24.24,0,0,1,.08-.37,3.26,3.26,0,0,1,1.74-.48,1.86,1.86,0,0,1,2,2.1v3.23a.24.24,0,0,1-.26.27h-.18a.24.24,0,0,1-.27-.27v-.44a1.86,1.86,0,0,1,0-.41h0a2,2,0,0,1-1.85,1.25,1.68,1.68,0,0,1-1.84-1.6C104.51,180.83,106.79,180.73,107.84,180.73Zm-1.35,2.86a1.91,1.91,0,0,0,1.67-2.05v-.26h-.3c-.86,0-2.59,0-2.59,1.27A1.09,1.09,0,0,0,106.49,183.59Z"/><path class="cls-3" d="M110.45,178.88a.25.25,0,0,1,.27-.27h.2a.24.24,0,0,1,.26.27v.63a1.89,1.89,0,0,1,0,.39h0a2.4,2.4,0,0,1,2.21-1.42c1.36,0,1.83.77,1.83,2.12v3.21a.24.24,0,0,1-.27.27h-.2a.24.24,0,0,1-.27-.27v-3c0-.85-.14-1.62-1.19-1.62a2.12,2.12,0,0,0-2.08,2.23v2.41a.24.24,0,0,1-.26.27h-.21a.25.25,0,0,1-.27-.27Z"/><path class="cls-3" d="M119.29,178.48a2.85,2.85,0,0,1,1.82.62.23.23,0,0,1,0,.37l-.07.12c-.1.15-.22.15-.37,0a2.29,2.29,0,0,0-1.38-.5,2.21,2.21,0,0,0,0,4.41,2.36,2.36,0,0,0,1.54-.58.22.22,0,0,1,.36.06l.08.11a.27.27,0,0,1-.07.37,3,3,0,0,1-1.95.7,2.87,2.87,0,1,1,0-5.73Z"/><path class="cls-3" d="M124.68,178.48c1.46,0,2.29,1.05,2.29,2.61a.27.27,0,0,1-.29.27h-3.93a2.09,2.09,0,0,0,2.12,2.19,2.38,2.38,0,0,0,1.43-.5.23.23,0,0,1,.36.06l.09.13a.26.26,0,0,1-.08.36,3.08,3.08,0,0,1-1.83.61,2.77,2.77,0,0,1-2.86-2.86A2.67,2.67,0,0,1,124.68,178.48Zm1.53,2.33a1.56,1.56,0,0,0-1.55-1.72,1.88,1.88,0,0,0-1.88,1.72Z"/><path class="cls-3" d="M81.54,187.09a.41.41,0,0,1,.44-.46H85.7a.42.42,0,0,1,.46.46v.3a.4.4,0,0,1-.46.45H82.93v2h2.15a.41.41,0,0,1,.46.45v.3a.41.41,0,0,1-.46.46H82.93v2.08h2.95a.4.4,0,0,1,.45.44v.31a.41.41,0,0,1-.45.46H82a.4.4,0,0,1-.44-.46Z"/><path class="cls-3" d="M87.32,189.27a.41.41,0,0,1,.45-.46h.42a.4.4,0,0,1,.45.46v.33a1.91,1.91,0,0,1,0,.25h0a2.16,2.16,0,0,1,2-1.17c1.23,0,1.93.64,1.93,2.11v3.11a.4.4,0,0,1-.45.46h-.47a.42.42,0,0,1-.46-.46v-2.83c0-.67-.17-1.13-.87-1.13a1.66,1.66,0,0,0-1.6,1.82v2.14a.4.4,0,0,1-.44.46h-.48a.41.41,0,0,1-.45-.46Z"/><path class="cls-3" d="M94,190h-.3a.39.39,0,0,1-.44-.45v-.19a.41.41,0,0,1,.45-.46h.32v-1.13a.41.41,0,0,1,.46-.45h.43a.41.41,0,0,1,.46.45v1.13h.8a.42.42,0,0,1,.46.46v.19a.4.4,0,0,1-.45.45H95.4v2.16a.91.91,0,0,0,.89,1c.34,0,.46.14.46.45V194c0,.33-.19.46-.57.46a2,2,0,0,1-2.16-2Z"/><path class="cls-3" d="M97.64,187.09a.42.42,0,0,1,.46-.46h.46a.41.41,0,0,1,.46.46v2.24a3.51,3.51,0,0,1,0,.47h0a2.19,2.19,0,0,1,1.92-1.12c1.23,0,1.94.64,1.94,2.11v3.11a.41.41,0,0,1-.46.46H102a.41.41,0,0,1-.46-.46v-2.83c0-.67-.17-1.13-.87-1.13a1.65,1.65,0,0,0-1.6,1.84v2.12a.41.41,0,0,1-.46.46H98.1a.41.41,0,0,1-.46-.46Z"/><path class="cls-3" d="M104.12,189.27a.41.41,0,0,1,.46-.46H105a.41.41,0,0,1,.46.46v2.82c0,.68.17,1.13.86,1.13a1.66,1.66,0,0,0,1.55-1.87v-2.08a.41.41,0,0,1,.46-.46h.47a.42.42,0,0,1,.46.46v4.63a.42.42,0,0,1-.46.46h-.43a.4.4,0,0,1-.44-.46v-.33a1.72,1.72,0,0,1,0-.25h0a2.15,2.15,0,0,1-1.93,1.17c-1.18,0-1.92-.6-1.92-2.11Z"/><path class="cls-3" d="M110.42,193.3l.13-.2c.16-.22.35-.25.62-.1a2.48,2.48,0,0,0,1.24.38c.48,0,.77-.22.77-.57,0-.9-2.75-.56-2.75-2.47,0-1.09,1-1.66,2.12-1.66a3.09,3.09,0,0,1,1.54.4.42.42,0,0,1,.17.61l-.11.2c-.13.26-.34.29-.61.17a2.47,2.47,0,0,0-1.06-.27c-.47,0-.75.19-.75.54,0,.91,2.76.56,2.76,2.45,0,1-.83,1.71-2.11,1.71a3.19,3.19,0,0,1-1.85-.57A.39.39,0,0,1,110.42,193.3Z"/><path class="cls-3" d="M115.52,187.42v-.33a.41.41,0,0,1,.44-.46h.48a.42.42,0,0,1,.46.46v.33a.41.41,0,0,1-.46.44H116A.39.39,0,0,1,115.52,187.42Zm0,1.85a.4.4,0,0,1,.44-.46h.48a.41.41,0,0,1,.45.46v4.63a.41.41,0,0,1-.45.46H116a.4.4,0,0,1-.44-.46Z"/><path class="cls-3" d="M121.08,190.93h.22v-.13a.9.9,0,0,0-1-1,2.38,2.38,0,0,0-1.15.32.41.41,0,0,1-.61-.19l-.11-.21a.41.41,0,0,1,.17-.61,4,4,0,0,1,1.82-.45,2.05,2.05,0,0,1,2.29,2.21v3a.4.4,0,0,1-.45.46h-.37a.4.4,0,0,1-.45-.46v-.22a1.22,1.22,0,0,1,0-.24h0a2,2,0,0,1-1.74,1.05,1.71,1.71,0,0,1-1.84-1.67C117.83,191.2,119.84,190.93,121.08,190.93Zm-1,2.5a1.41,1.41,0,0,0,1.27-1.46v-.2h-.22c-.7,0-1.89.11-1.89.93A.76.76,0,0,0,120,193.43Z"/><path class="cls-3" d="M123.73,193.3l.13-.2c.16-.22.34-.25.62-.1a2.48,2.48,0,0,0,1.24.38c.47,0,.77-.22.77-.57,0-.9-2.75-.56-2.75-2.47,0-1.09,1-1.66,2.12-1.66a3.09,3.09,0,0,1,1.54.4.41.41,0,0,1,.16.61l-.1.2c-.13.26-.34.29-.61.17a2.47,2.47,0,0,0-1.06-.27c-.48,0-.75.19-.75.54,0,.91,2.75.56,2.75,2.45,0,1-.82,1.71-2.11,1.71a3.25,3.25,0,0,1-1.85-.57A.39.39,0,0,1,123.73,193.3Z"/><path class="cls-3" d="M129.08,190h-.29a.4.4,0,0,1-.45-.45v-.19a.41.41,0,0,1,.46-.46h.31v-1.13a.41.41,0,0,1,.46-.45H130a.41.41,0,0,1,.46.45v1.13h.81a.41.41,0,0,1,.45.46v.19a.4.4,0,0,1-.44.45h-.82v2.16a.91.91,0,0,0,.89,1c.34,0,.46.14.46.45V194c0,.33-.19.46-.57.46a2,2,0,0,1-2.16-2Z"/><path class="cls-3" d="M55.49,190.89a.73.73,0,0,1-.35-.09.76.76,0,0,1-.38-.92l8.05-24.78a1.69,1.69,0,0,1,1.63-1.19h0a1.71,1.71,0,0,1,1.64,1.19L67.71,170a.59.59,0,0,1-.37.74.58.58,0,0,1-.74-.37L65,165.47a.54.54,0,0,0-.53-.39h0a.53.53,0,0,0-.52.38l-7.29,22.41,10.26-14a3.2,3.2,0,0,1,2.57-1.31H76.3a1.72,1.72,0,0,1,1,3.11l-6.25,4.54-.07.06,2.42,7.42a1.72,1.72,0,0,1-2.65,1.92l-5.4-3.92a1.74,1.74,0,0,1,0-2.79l4.53-3.28.07-.06,6.66-4.84a.52.52,0,0,0,.2-.61.54.54,0,0,0-.52-.39H69.46a2,2,0,0,0-1.63.83l-11.73,16A.74.74,0,0,1,55.49,190.89ZM70,181l-4,2.87a.55.55,0,0,0,0,.89l5.4,3.93a.54.54,0,0,0,.65,0,.53.53,0,0,0,.2-.62Z"/><path class="cls-3" d="M55.9,178.57a.52.52,0,0,1-.33-.11l-4-2.82a1.72,1.72,0,0,1,1-3.11h4.88a.58.58,0,0,1,0,1.16H52.59a.54.54,0,0,0-.53.39.52.52,0,0,0,.2.61l4,2.82a.58.58,0,0,1-.34,1.06Z"/><path class="cls-3" d="M61.33,199.11a1.87,1.87,0,0,1-.94-.25l-10.18-5.77a.6.6,0,0,1-.29-.51V180.16a.58.58,0,1,1,1.16,0v12.08L61,197.85a.7.7,0,0,0,.74,0l7.23-4.52a.58.58,0,0,1,.8.19.58.58,0,0,1-.18.8l-7.23,4.52A1.88,1.88,0,0,1,61.33,199.11Z"/></svg>