<?xml version="1.0" encoding="utf-8"?>
<!-- Generator: Adobe Illustrator 24.0.3, SVG Export Plug-In . SVG Version: 6.00 Build 0)  -->
<svg version="1.1" id="Layer_1" xmlns="http://www.w3.org/2000/svg" xmlns:xlink="http://www.w3.org/1999/xlink" x="0px" y="0px"
	 viewBox="0 0 300 600" style="enable-background:new 0 0 300 600;" xml:space="preserve">
<style type="text/css">
	.st0{enable-background:new    ;}
	.st1{fill:#FFFFFF;}
</style>
<title>Artboard 1 copy 2</title>
<g class="st0">
	<path class="st1" d="M23.2,70.8c2.3,0,2.9-0.9,2.9-2V46.9c0-1.1-0.6-2-2.9-2v-0.2h9.5v24.1c0,1.1,0.6,2,2.9,2V71H23.2V70.8z
		 M34.6,44.9v-0.2h10.7v7.8H45C43.2,46.9,40.5,45.3,34.6,44.9z M36.8,58.1l-2.1-0.2v-0.2l2.1-0.2c2.3-0.2,3.8-1.1,5.1-3.3h0.3v7.2
		h-0.3C40.6,59.1,39,58.3,36.8,58.1z"/>
</g>
<g class="st0">
	<path class="st1" d="M56.6,68.8c0,1,0.6,2,2.9,2V71H47.3v-0.2c2.3,0,2.9-1,2.9-2V55c0-1.4-0.7-2.1-2.9-2.1v-0.2
		c3.6,0,6.5-0.4,9.3-1.5V68.8z M67,55.4c0,2.7-1.9,4.4-4,4.4c-0.9,0-1.7-0.2-2.2-0.9c0.7-0.4,1.5-1.2,1.5-2.6c0-1.1-0.8-2.1-2.2-2.1
		c-1,0-1.8,0.6-2.3,1.5v-0.3c0.7-2.5,2.6-4.2,5-4.2C65.6,51.2,67,53.1,67,55.4z"/>
</g>
<g class="st0">
	<path class="st1" d="M78.8,51.5c-2.3,0.3-3.1,2.2-3.1,9.8c0,7.3,0.8,9.7,3.1,9.9v0.2c-4.5,0-9.7-3.6-9.7-10.2c0-6.5,5.1-10,9.7-10
		V51.5z M89.9,61.2c0,6.5-5.2,10.2-9.6,10.2v-0.2c2.3-0.2,3-2.7,3-9.9c0-7.6-0.8-9.5-3-9.8v-0.2C84.8,51.2,89.9,54.7,89.9,61.2z"/>
	<path class="st1" d="M101.8,68.8c0,1,0.6,2,2.9,2V71H92.5v-0.2c2.3,0,2.9-1,2.9-2V55c0-1.4-0.7-2.1-2.9-2.1v-0.2
		c3.6,0,6.5-0.4,9.3-1.5V68.8z M114.7,56.7v12.1c0,1,0.5,2,2.9,2V71h-12.2v-0.2c2.3,0,2.9-1,2.9-2V56.7c0-2.2-0.9-3.3-2.7-3.3
		c-1.1,0-2.1,0.5-2.6,1.2v-0.2c0.9-1.6,2.8-3.1,5.7-3.1C112.3,51.2,114.7,52.9,114.7,56.7z M127.5,56.7v12.1c0,1,0.6,2,2.9,2V71
		h-12.2v-0.2c2.3,0,2.9-1,2.9-2V56.7c0-2.2-0.9-3.3-2.7-3.3c-1.1,0-2.1,0.5-2.6,1.2v-0.2c0.9-1.6,2.8-3.1,5.7-3.1
		C125.2,51.2,127.5,52.9,127.5,56.7z"/>
</g>
<g class="st0">
	<path class="st1" d="M29.9,105.2c-1.3,0-2.2,0.8-2.2,1.9c0,1.1,0.8,2.6,3.4,2.8v0.2c-5.2-0.2-8-1.6-8-3.8c0-1.8,1.6-2.9,3.3-2.9
		C28,103.5,29.3,104.2,29.9,105.2z M31.2,90.2c-1.4,0.3-2.8,1-2.8,2.6c0.1,4.5,12.7,5.2,12.7,11.4c0,3.8-3.2,5.7-8.2,5.9v-0.2
		c1.6-0.3,3.4-0.9,3.4-2.9c0-4-12.7-5.5-12.7-11.4c0-3.4,3.2-5.5,7.6-5.7V90.2z M40.3,94c0,1.2-0.9,2.4-2.9,2.4
		c-1.6,0-2.8-0.7-3.3-1.9c1.2-0.1,1.8-0.9,1.7-1.8c0-1.2-1.5-2.3-3-2.5V90C37.3,90.2,40.3,91.8,40.3,94z"/>
	<path class="st1" d="M52.6,115.7c0,1.4,0.7,2.1,2.9,2.1v0.2c-3.6,0-6,0.4-9.3,1.5V93.8c0-1.4-0.7-2.1-2.9-2.1v-0.2
		c3.6,0,6-0.4,9.3-1.5V115.7z M67.3,99.9c0,8.1-4.3,10.3-7.9,10.3c-2.2,0-4.7-1.5-5.7-3.1v-0.2c1,0.7,2,1.4,3.3,1.4
		c1.8,0,3.8-1.3,3.8-8.3c0-7-1.8-7.9-3.8-7.9c-1.2,0-2.4,0.5-3.3,1.4v-0.3c1-1.6,3.4-3.1,5.7-3.1C63.2,90,67.3,92.2,67.3,99.9z"/>
	<path class="st1" d="M70.8,100c0-6.5,5-10,9.5-10v0.2c-2.3,0.3-2.9,2.2-2.9,9.6c0,5.6,2.5,8.6,5.9,8.6c2.2,0,3.8-0.6,5.7-2.1v0.2
		c-2,2.6-5.7,3.5-8.2,3.5C75.8,110.2,70.8,106.5,70.8,100z M79.5,98.4c3.4,0,4.8-1.1,4.8-4.3c0-1.9-0.8-3.6-2.5-3.8V90
		c5.1,0,7.6,3.6,7.6,6.6c0,0.6-0.1,1.4-0.2,2h-9.7V98.4z"/>
	<path class="st1" d="M102.5,90.2c-2.3,0.3-3.3,2.2-3.3,9.6c0,5.6,2.8,8.6,6.3,8.6c2.2,0,3.8-0.6,5.7-2.1v0.2
		c-2,2.6-5.7,3.5-8.2,3.5c-5,0-10.3-3.6-10.3-10.2c0-6.5,5.4-10,9.9-10V90.2z M111.1,94.4c0,2.1-1.4,3.7-3.9,3.7
		c-1.9,0-3.1-1.2-3.4-2.4c1.1-0.4,1.9-1.8,1.9-2.8c0-0.9-0.2-2.3-1.7-2.6V90C109.1,90,111.1,92.2,111.1,94.4z"/>
	<path class="st1" d="M113.4,91.5c3.6,0,6.5-0.4,9.3-1.5v17.6c0,1,0.6,2,2.9,2v0.2h-12.2v-0.2c2.3,0,2.9-1,2.9-2V93.8
		c0-1.4-0.7-2.1-2.9-2.1V91.5z M115.4,84.2c0-2,1.6-3.4,4-3.4c2.3,0,4,1.4,4,3.4c0,2.1-1.6,3.4-4,3.4
		C117,87.6,115.4,86.2,115.4,84.2z"/>
	<path class="st1" d="M127.5,105.2c0-3.4,3.1-5.3,7.4-5.3h4.2v0.2H138c-2.8,0-4.1,1.8-4.1,4.2c0,2.1,0.6,3.8,2.4,3.8
		c1.1,0,2-0.6,2.8-1.4v0.2c-1.3,1.5-3.3,3.1-6.2,3.1C129.7,110.2,127.5,108.3,127.5,105.2z M129,94.2c0-2,1.8-4,7.1-4.2v0.2
		c-1.6,0.2-2.5,1.5-2.5,2.8c0,1.4,1,2.2,2.5,2.4c-0.6,1.1-2.2,1.9-3.7,1.9C130.3,97.3,129,95.9,129,94.2z M140.3,105.8V93.9
		c0-1.9-0.7-3.4-2.6-3.7V90c6.4,0.2,9,2.7,9,7.8v9.4c0,1.1,0.4,1.6,1.1,1.6c0.6,0,1.2-0.6,1.9-1.7h0.2c-0.6,2.1-2.7,3.1-5,3.1
		C141.7,110.2,140.3,109.1,140.3,105.8z"/>
	<path class="st1" d="M150.8,82.8c3.6,0,6.5-0.4,9.3-1.5v26.3c0,1,0.6,2,2.9,2v0.2h-12.2v-0.2c2.3,0,2.9-1,2.9-2V85.1
		c0-1.4-0.7-2.1-2.9-2.1V82.8z"/>
	<path class="st1" d="M164.7,91.5c3.6,0,6.5-0.4,9.3-1.5v17.6c0,1,0.6,2,2.9,2v0.2h-12.2v-0.2c2.3,0,2.9-1,2.9-2V93.8
		c0-1.4-0.7-2.1-2.9-2.1V91.5z M166.7,84.2c0-2,1.6-3.4,4-3.4c2.3,0,4,1.4,4,3.4c0,2.1-1.6,3.4-4,3.4
		C168.3,87.6,166.7,86.2,166.7,84.2z"/>
	<path class="st1" d="M185.9,105.2c-1.3,0-2.2,0.8-2.2,1.9c0,1.1,0.8,2.6,3.4,2.8v0.2c-5.2-0.2-8-1.6-8-3.8c0-1.8,1.6-2.9,3.3-2.9
		C184.1,103.5,185.4,104.2,185.9,105.2z M187.2,90.2c-1.4,0.3-2.8,1-2.8,2.6c0.1,4.5,12.7,5.2,12.7,11.4c0,3.8-3.2,5.7-8.2,5.9v-0.2
		c1.6-0.3,3.4-0.9,3.4-2.9c0-4-12.7-5.5-12.7-11.4c0-3.4,3.2-5.5,7.6-5.7V90.2z M196.4,94c0,1.2-0.9,2.4-2.9,2.4
		c-1.6,0-2.8-0.7-3.3-1.9c1.2-0.1,1.8-0.9,1.7-1.8c0-1.2-1.5-2.3-3-2.5V90C193.3,90.2,196.4,91.8,196.4,94z"/>
	<path class="st1" d="M214.7,106.8v0.2c-1.2,1.8-3.7,3.1-6.6,3.1c-3.5,0-6-1.6-6-5.5V92h-2l0.4-0.6h1.6v-4.2c2.4,0,4.7-0.7,6.4-2.2
		v6.4h5.2l-0.4,0.6h-4.8v12.8c0,1.9,0.7,4,2.6,4C212.1,108.8,213.4,108.1,214.7,106.8z"/>
	<path class="st1" d="M223.1,105.2c-1.3,0-2.2,0.8-2.2,1.9c0,1.1,0.8,2.6,3.4,2.8v0.2c-5.2-0.2-8-1.6-8-3.8c0-1.8,1.6-2.9,3.3-2.9
		C221.2,103.5,222.5,104.2,223.1,105.2z M224.4,90.2c-1.4,0.3-2.8,1-2.8,2.6c0.1,4.5,12.7,5.2,12.7,11.4c0,3.8-3.2,5.7-8.2,5.9v-0.2
		c1.6-0.3,3.4-0.9,3.4-2.9c0-4-12.7-5.5-12.7-11.4c0-3.4,3.2-5.5,7.6-5.7V90.2z M233.5,94c0,1.2-0.9,2.4-2.9,2.4
		c-1.6,0-2.8-0.7-3.3-1.9c1.2-0.1,1.8-0.9,1.7-1.8c0-1.2-1.5-2.3-3-2.5V90C230.4,90.2,233.5,91.8,233.5,94z"/>
</g>
<g class="st0">
	<path class="st1" d="M246,106.7c0,2.7-2.9,6.3-7.6,8.3l-0.2-0.4c1.4-1.1,2.7-2.9,2.7-4.6c0-2.1-1.5-3.1-3.2-3.1
		c0.4-2.8,2-4.3,4.5-4.3C244.2,102.6,246,104.1,246,106.7z"/>
</g>
<g class="st0">
	<path class="st1" d="M33,148.7v0.2c-3.1-0.1-5.5-0.7-7.5-1.9l-1.3,1.9h-0.3v-9.5h0.3C25.5,143.9,28.3,147.1,33,148.7z M44.4,141
		c0,5-3.7,7.7-9.7,7.9v-0.2c2.1-0.4,4.2-1.6,4.2-4c0-6.8-14.8-7.4-14.8-15.3c0-4.7,3.8-7.3,8.9-7.7v0.2c-1.8,0.3-3.4,1.4-3.4,3.6
		C29.6,132.4,44.4,133.1,44.4,141z M34.7,122v-0.2c2.9,0.1,5.2,0.8,7,2.1l1.4-2.1h0.3v8.6h-0.3C41.8,126.3,38.5,123,34.7,122z"/>
</g>
<g class="st0">
	<path class="st1" d="M62.1,145.6v0.2c-1.2,1.8-3.7,3.1-6.6,3.1c-3.5,0-6-1.6-6-5.5v-12.7h-2l0.4-0.6h1.6V126c2.4,0,4.7-0.7,6.4-2.2
		v6.4h5.2l-0.4,0.6h-4.8v12.8c0,1.9,0.7,4,2.6,4C59.5,147.5,60.8,146.8,62.1,145.6z"/>
	<path class="st1" d="M63.4,144c0-3.4,3.1-5.3,7.4-5.3H75v0.2h-1.2c-2.8,0-4.1,1.8-4.1,4.2c0,2.1,0.6,3.8,2.4,3.8
		c1.1,0,2-0.6,2.8-1.4v0.2c-1.3,1.5-3.3,3.1-6.2,3.1C65.5,148.9,63.3,147.1,63.4,144z M64.9,133c0-2,1.8-4,7.1-4.2v0.2
		c-1.6,0.2-2.5,1.5-2.5,2.8c0,1.4,1,2.2,2.5,2.4c-0.6,1.1-2.2,1.9-3.7,1.9C66.1,136.1,64.9,134.6,64.9,133z M76.1,144.5v-11.9
		c0-1.9-0.7-3.4-2.6-3.7v-0.2c6.4,0.2,9,2.7,9,7.8v9.4c0,1.1,0.4,1.6,1.1,1.6c0.6,0,1.2-0.6,1.9-1.7h0.2c-0.6,2.1-2.7,3.1-5,3.1
		C77.5,148.9,76.1,147.8,76.1,144.5z"/>
</g>
<g class="st0">
	<path class="st1" d="M96.2,146.3c0,1,0.6,2,2.9,2v0.2H86.9v-0.2c2.3,0,2.9-1,2.9-2v-13.8c0-1.4-0.7-2.1-2.9-2.1v-0.2
		c3.6,0,6.5-0.4,9.3-1.5V146.3z M106.7,133c0,2.7-1.9,4.4-4,4.4c-0.9,0-1.7-0.2-2.2-0.9c0.7-0.4,1.5-1.2,1.5-2.6
		c0-1.1-0.8-2.1-2.2-2.1c-1,0-1.8,0.6-2.3,1.5V133c0.7-2.5,2.6-4.2,5-4.2C105.2,128.8,106.7,130.6,106.7,133z"/>
</g>
<g class="st0">
	<path class="st1" d="M46.8,182.7l0.2,0.3c-2,3.2-5.6,4.7-9.3,4.7c-6.3,0-14.2-4.5-14.2-13.5c0-9.8,7.7-13.4,13.3-13.6v0.2
		c-2.7,0.6-5.7,3.1-5.7,13.1c0,9.9,4,12.2,8.4,12.2C42.9,186.1,45.4,184.4,46.8,182.7z M47.1,160.6v9.4h-0.3
		c-1.5-5.2-4.4-8.1-8.2-9.2v-0.2c3.4,0.2,5.4,0.7,7,1.8l1.2-1.8H47.1z"/>
	<path class="st1" d="M50,182.7c0-3.4,3.1-5.3,7.4-5.3h4.2v0.2h-1.2c-2.8,0-4.1,1.8-4.1,4.2c0,2.1,0.6,3.8,2.4,3.8
		c1.1,0,2-0.6,2.8-1.4v0.2c-1.3,1.5-3.3,3.1-6.2,3.1C52.2,187.7,50,185.8,50,182.7z M51.6,171.8c0-2,1.8-4,7.1-4.2v0.2
		c-1.6,0.2-2.5,1.5-2.5,2.8c0,1.4,1,2.2,2.5,2.4c-0.6,1.1-2.2,1.9-3.7,1.9C52.8,174.8,51.6,173.4,51.6,171.8z M62.8,183.3v-11.9
		c0-1.9-0.7-3.4-2.6-3.7v-0.2c6.4,0.2,9,2.7,9,7.8v9.4c0,1.1,0.4,1.6,1.1,1.6c0.6,0,1.2-0.6,1.9-1.7h0.2c-0.6,2.1-2.7,3.1-5,3.1
		C64.2,187.7,62.8,186.6,62.8,183.3z"/>
	<path class="st1" d="M82.8,185.1c0,1,0.6,2,2.9,2v0.2H73.5v-0.2c2.3,0,2.9-1,2.9-2v-13.8c0-1.4-0.7-2.1-2.9-2.1V169
		c3.6,0,6.5-0.4,9.3-1.5V185.1z M95.7,173v12.1c0,1,0.5,2,2.9,2v0.2H86.4v-0.2c2.3,0,2.9-1,2.9-2V173c0-2.2-0.9-3.3-2.7-3.3
		c-1.1,0-2.1,0.5-2.6,1.2v-0.2c0.9-1.6,2.8-3.1,5.7-3.1C93.4,167.5,95.7,169.2,95.7,173z M108.5,173v12.1c0,1,0.6,2,2.9,2v0.2H99.2
		v-0.2c2.3,0,2.9-1,2.9-2V173c0-2.2-0.9-3.3-2.7-3.3c-1.1,0-2.1,0.5-2.6,1.2v-0.2c0.9-1.6,2.8-3.1,5.7-3.1
		C106.2,167.5,108.5,169.2,108.5,173z"/>
	<path class="st1" d="M121.8,193.2c0,1.4,0.7,2.1,2.9,2.1v0.2c-3.6,0-6,0.4-9.3,1.5v-25.7c0-1.4-0.7-2.1-2.9-2.1V169
		c3.6,0,6-0.4,9.3-1.5V193.2z M136.6,177.4c0,8.1-4.3,10.3-7.9,10.3c-2.2,0-4.7-1.5-5.7-3.1v-0.2c1,0.7,2,1.4,3.3,1.4
		c1.8,0,3.8-1.3,3.8-8.3c0-7-1.8-7.9-3.8-7.9c-1.2,0-2.4,0.5-3.3,1.4v-0.3c1-1.6,3.4-3.1,5.7-3.1
		C132.4,167.5,136.6,169.7,136.6,177.4z"/>
	<path class="st1" d="M140,177.5c0-6.5,5-10,9.5-10v0.2c-2.3,0.3-2.9,2.2-2.9,9.6c0,5.6,2.5,8.6,5.9,8.6c2.2,0,3.8-0.6,5.7-2.1v0.2
		c-2,2.6-5.7,3.5-8.2,3.5C145,187.7,140,184,140,177.5z M148.7,175.9c3.4,0,4.8-1.1,4.8-4.3c0-1.9-0.8-3.6-2.5-3.8v-0.2
		c5.1,0,7.6,3.6,7.6,6.6c0,0.6-0.1,1.4-0.2,2h-9.7V175.9z"/>
	<path class="st1" d="M170.4,185.1c0,1,0.6,2,2.9,2v0.2h-12.2v-0.2c2.3,0,2.9-1,2.9-2v-13.8c0-1.4-0.7-2.1-2.9-2.1V169
		c3.6,0,6.5-0.4,9.3-1.5V185.1z M180.9,171.7c0,2.7-1.9,4.4-4,4.4c-0.9,0-1.7-0.2-2.2-0.9c0.7-0.4,1.5-1.2,1.5-2.6
		c0-1.1-0.8-2.1-2.2-2.1c-1,0-1.8,0.6-2.3,1.5v-0.3c0.7-2.5,2.6-4.2,5-4.2C179.4,167.5,180.9,169.4,180.9,171.7z"/>
	<path class="st1" d="M206.8,182.7l0.2,0.3c-2,3.2-5.6,4.7-9.3,4.7c-6.3,0-14.2-4.5-14.2-13.5c0-9.8,7.7-13.4,13.3-13.6v0.2
		c-2.7,0.6-5.7,3.1-5.7,13.1c0,9.9,4,12.2,8.4,12.2C202.9,186.1,205.4,184.4,206.8,182.7z M207.1,160.6v9.4h-0.3
		c-1.5-5.2-4.4-8.1-8.2-9.2v-0.2c3.4,0.2,5.4,0.7,7,1.8l1.2-1.8H207.1z"/>
	<path class="st1" d="M210.1,182.7c0-3.4,3.1-5.3,7.4-5.3h4.2v0.2h-1.2c-2.8,0-4.1,1.8-4.1,4.2c0,2.1,0.6,3.8,2.4,3.8
		c1.1,0,2-0.6,2.8-1.4v0.2c-1.3,1.5-3.3,3.1-6.2,3.1C212.2,187.7,210,185.8,210.1,182.7z M211.6,171.8c0-2,1.8-4,7.1-4.2v0.2
		c-1.5,0.2-2.5,1.5-2.5,2.8c0,1.4,1,2.2,2.5,2.4c-0.6,1.1-2.2,1.9-3.7,1.9C212.8,174.8,211.6,173.4,211.6,171.8z M222.8,183.3v-11.9
		c0-1.9-0.7-3.4-2.6-3.7v-0.2c6.4,0.2,9,2.7,9,7.8v9.4c0,1.1,0.4,1.6,1.1,1.6c0.6,0,1.2-0.6,1.9-1.7h0.2c-0.6,2.1-2.7,3.1-5,3.1
		C224.2,187.7,222.8,186.6,222.8,183.3z"/>
</g>
<g class="st0">
	<path class="st1" d="M242.9,185.1c0,1,0.6,2,2.9,2v0.2h-12.2v-0.2c2.3,0,2.9-1,2.9-2v-13.8c0-1.4-0.7-2.1-2.9-2.1V169
		c3.6,0,6.5-0.4,9.3-1.5V185.1z M253.4,171.7c0,2.7-1.9,4.4-4,4.4c-0.9,0-1.7-0.2-2.2-0.9c0.7-0.4,1.5-1.2,1.5-2.6
		c0-1.1-0.8-2.1-2.2-2.1c-1,0-1.8,0.6-2.3,1.5v-0.3c0.7-2.5,2.6-4.2,5-4.2C251.9,167.5,253.4,169.4,253.4,171.7z"/>
</g>
<g class="st0">
	<path class="st1" d="M255.5,177.5c0-6.5,5-10,9.5-10v0.2c-2.3,0.3-2.9,2.2-2.9,9.6c0,5.6,2.5,8.6,5.9,8.6c2.2,0,3.8-0.6,5.7-2.1
		v0.2c-2,2.6-5.7,3.5-8.2,3.5C260.5,187.7,255.5,184,255.5,177.5z M264.2,175.9c3.4,0,4.8-1.1,4.8-4.3c0-1.9-0.8-3.6-2.5-3.8v-0.2
		c5.1,0,7.6,3.6,7.6,6.6c0,0.6-0.1,1.4-0.2,2h-9.7V175.9z"/>
</g>
</svg>
