<?xml version="1.0" encoding="utf-8"?>
<!-- Generator: Adobe Illustrator 24.0.3, SVG Export Plug-In . SVG Version: 6.00 Build 0)  -->
<svg version="1.1" id="Layer_1" xmlns="http://www.w3.org/2000/svg" xmlns:xlink="http://www.w3.org/1999/xlink" x="0px" y="0px"
	 viewBox="0 0 300 600" style="enable-background:new 0 0 300 600;" xml:space="preserve">
<style type="text/css">
	.st0{enable-background:new    ;}
	.st1{fill:#263845;}
</style>
<title>Artboard 1 copy 3</title>
<g class="st0">
	<path class="st1" d="M26.5,50.9l0.3,0.5l0.3,17.2c0,1.8,1.3,3.4,4,3.4v0.2h-9v-0.2c2.7,0,4-1.7,4-3.4L26.5,50.9z M48.2,72.4h-4.6
		L26.5,46.8c-1.1-1.6-2.3-2.1-4.4-2.1v-0.2h11l15.1,22.6V72.4z M48.1,62.9l-0.3-0.5l-0.5-14.3c0-1.8-1.3-3.4-4-3.4v-0.2h9v0.2
		c-2.7,0-4,1.7-4,3.4L48.1,62.9z"/>
	<path class="st1" d="M70.7,44.4h7.8L62.2,72.4h-7.8L70.7,44.4z M55.6,44.4H68l-0.1,0.2C61.8,45,57,49.2,55.9,54.3h-0.3V44.4z
		 M65,72.1c6.2-0.5,11.1-4.4,12.8-11h0.3v11.2H64.9L65,72.1z"/>
</g>
<g class="st0">
	<path class="st1" d="M90,45.8c0,2.4-2.5,5.5-6.7,7.2l-0.1-0.4c1.2-0.9,2.3-2.5,2.3-4c0-1.8-1.3-2.7-2.8-2.7
		c0.3-2.4,1.8-3.7,3.9-3.7C88.4,42.2,90,43.5,90,45.8z"/>
</g>
<g class="st0">
	<path class="st1" d="M98.4,67.5c-1.4,0-2.3,0.8-2.3,2.1c0,1.2,0.8,2.7,3.7,3v0.2c-5.5-0.2-8.5-1.7-8.5-4.1c0-1.9,1.6-3,3.5-3
		C96.4,65.7,97.8,66.4,98.4,67.5z M99.8,51.7c-1.5,0.3-3,1.1-3,2.8c0.1,4.8,13.4,5.5,13.4,12.1c0,4-3.4,6.1-8.7,6.3v-0.2
		c1.7-0.3,3.7-0.9,3.7-3c0-4.3-13.5-5.8-13.5-12.1c0-3.6,3.4-5.8,8-6V51.7z M109.4,55.6c0,1.3-1,2.5-3,2.5c-1.7,0-3-0.7-3.5-2
		c1.2-0.1,1.9-0.9,1.8-1.9c0-1.2-1.6-2.4-3.2-2.6v-0.2C106.2,51.7,109.4,53.3,109.4,55.6z"/>
</g>
<g class="st0">
	<path class="st1" d="M21.9,84.8c3.8,0,6.9-0.4,9.8-1.6v27.8c0,1,0.6,2.1,3.1,2.1v0.2H21.8v-0.2c2.5,0,3.1-1.1,3.1-2.1V87.3
		c0-1.5-0.7-2.2-3-2.2V84.8z"/>
	<path class="st1" d="M37.2,103.1c0-6.9,5.3-10.6,10.1-10.6v0.2c-2.4,0.3-3.1,2.3-3.1,10.2c0,5.9,2.6,9.2,6.3,9.2
		c2.3,0,4.1-0.7,6-2.2v0.2c-2.1,2.7-6,3.7-8.7,3.7C42.5,113.8,37.2,110,37.2,103.1z M46.5,101.3c3.6,0,5.1-1.1,5.1-4.6
		c0-2-0.8-3.8-2.7-4v-0.2c5.4,0,8,3.9,8,7c0,0.7-0.1,1.5-0.2,2.1H46.5V101.3z"/>
	<path class="st1" d="M59.9,108.6c0-3.6,3.3-5.6,7.9-5.6h4.4v0.2H71c-3,0-4.4,1.9-4.4,4.5c0,2.3,0.7,4,2.6,4c1.1,0,2.1-0.6,3-1.4
		v0.2c-1.4,1.6-3.5,3.3-6.5,3.3C62.2,113.8,59.9,111.9,59.9,108.6z M61.6,97c0-2.1,1.9-4.2,7.5-4.5v0.2c-1.6,0.2-2.6,1.6-2.6,3
		c0,1.5,1,2.4,2.7,2.5c-0.6,1.1-2.3,2-3.9,2C62.9,100.2,61.6,98.7,61.6,97z M73.5,109.2V96.6c0-2-0.8-3.6-2.8-3.9v-0.2
		c6.8,0.2,9.5,2.8,9.5,8.2v10c0,1.2,0.4,1.7,1.1,1.7c0.6,0,1.3-0.6,2-1.8h0.2c-0.7,2.3-2.9,3.3-5.3,3.3
		C75,113.8,73.5,112.7,73.5,109.2z"/>
	<path class="st1" d="M100.2,95.8v0.3c-0.9-1-2.1-1.5-3.4-1.5c-2.1,0-4,0.9-4,8.4c0,7.4,2.1,8.7,4,8.7c1.3,0,2.4-0.7,3.4-1.4v0.2
		c-1,1.7-3.6,3.3-6,3.3c-3.9,0-8.5-2.3-8.5-10.9c0-8.2,4.5-10.5,8.5-10.5C96.5,92.5,99.1,94,100.2,95.8z M108.2,110.7
		c0,1.2,0.4,1.7,1.1,1.7c0.6,0,1.3-0.6,2-1.8h0.2c-0.7,2.3-2.9,3.3-5.3,3.3c-3.3,0-4.8-1.1-4.8-4.6V87.3c0-1.5-0.7-2.2-3-2.2v-0.2
		c3.8,0,6.4-0.4,9.8-1.6V110.7z"/>
	<path class="st1" d="M113.2,94c3.8,0,6.9-0.4,9.8-1.6v18.6c0,1,0.6,2.1,3.1,2.1v0.2h-12.9v-0.2c2.5,0,3.1-1.1,3.1-2.1V96.5
		c0-1.5-0.7-2.2-3-2.2V94z M115.3,86.3c0-2.1,1.7-3.6,4.2-3.6c2.5,0,4.2,1.4,4.2,3.6c0,2.2-1.7,3.6-4.2,3.6
		C117,89.9,115.3,88.5,115.3,86.3z"/>
	<path class="st1" d="M127.8,113.2c2.5,0,3.1-1.1,3.1-2.1V96.5c0-1.5-0.7-2.2-3-2.2v-0.2c3.8,0,6.9-0.4,9.8-1.6v18.6
		c0,1,0.6,2.1,3.1,2.1v0.2h-12.9V113.2z M142.3,113.2c2.4,0,3-1.1,3-2.1V98.3c0-2.3-1.2-3.5-3.2-3.5c-1.1,0-2.1,0.4-3.1,1.3v-0.2
		c1.1-1.7,3.8-3.3,6.8-3.3c3.7,0,6.3,1.7,6.3,5.8v12.8c0,1,0.6,2.1,3.1,2.1v0.2h-12.9V113.2z"/>
	<path class="st1" d="M157.6,99.9c0-5.3,5-7.4,9.2-7.4v0.2c-1.8,0.2-2.6,2.3-2.6,7.1c0,5,0.8,7,2.6,7.1v0.2
		C162.7,107.2,157.6,105.2,157.6,99.9z M168.5,123.4c4.1-0.5,5.4-2.7,5.4-4.2c0-5.7-16-0.6-16-8c0-1.7,0.9-3,2.8-4.2l0.1,0.2
		c-0.2,0.2-0.4,0.5-0.4,0.8c0,4.6,18.7-0.7,18.7,8.2c0,4.2-3.7,7-10.6,7.4V123.4z M157.9,120c0-2.4,3-3.2,6.2-3.2
		c-0.7,0.3-1.8,1.5-1.8,2.9c0,1.9,2.1,3.3,4.5,3.7v0.2C162.5,123.6,157.9,122.7,157.9,120z M168.5,106.9c2-0.2,2.8-2.2,2.8-7.1
		c0-4.8-0.9-6.9-2.8-7.1v-0.2c4.4,0.1,9.4,2.1,9.4,7.4c0,5.3-5.1,7.3-9.4,7.3V106.9z M170.7,91.7c0.7-2.1,2.6-4.9,5.4-4.9
		c2.2,0,3.5,1.1,3.5,3.1c0,2-1.8,3.2-3.3,3.2c0-1.7-0.9-2.8-2.2-2.8c-1.2,0-2.6,0.7-3.2,1.5L170.7,91.7z"/>
</g>
<g class="st0">
	<path class="st1" d="M205.1,113.2v0.2H192v-0.2c2.5,0,3.1-1,3.1-2.1V87.8c0-1.2-0.6-2.1-3.1-2.1v-0.2H202v25.6
		C202,112.2,202.6,113.2,205.1,113.2z M221.2,110.5c-0.7,2.3-3.1,3.3-6.1,3.3c-5.3,0-6.6-3.7-6.8-7.1c-0.2-3.4-0.6-6-4.2-6.5v-0.2
		c3.8,0,5.5-3.3,5.5-7.4c0-4.6-1.7-6.8-5.5-6.8v-0.2c8.3,0,12.4,1.8,12.4,7c0,4.4-3.3,7.1-9.4,7.5c7.5,0.3,8.6,3.2,9,6.7
		c0.4,3.3,1.3,5.7,2.7,5.7c0.7,0,1.4-0.6,2.1-1.8H221.2z"/>
</g>
<g class="st0">
	<path class="st1" d="M221.8,87.9c-0.7-1.6-1.7-2.1-3.7-2.1v-0.2h14.8v0.2c-1.9,0-3.6,1.2-2.5,3.4l7.8,16.3l-3.7,8.4H234L221.8,87.9
		z M239.7,101.7c2.4-5.5,2.9-8.9,2.9-11.5c0-3-2.5-4.5-4.7-4.5v-0.2h11.8v0.2c-1.9,0-3,1.8-4.4,4.6l-5.6,11.8L239.7,101.7z"/>
</g>
<g class="st0">
	<path class="st1" d="M22.1,135.1c3.8,0,6.9-0.4,9.8-1.6v18.6c0,1,0.6,2.1,3.1,2.1v0.2H22.1v-0.2c2.5,0,3.1-1.1,3.1-2.1v-14.6
		c0-1.5-0.7-2.2-3-2.2V135.1z M24.2,127.4c0-2.1,1.7-3.6,4.2-3.6c2.5,0,4.2,1.4,4.2,3.6c0,2.2-1.7,3.6-4.2,3.6
		C26,131,24.2,129.6,24.2,127.4z"/>
	<path class="st1" d="M36.8,154.2c2.5,0,3.1-1.1,3.1-2.1v-14.6c0-1.5-0.7-2.2-3-2.2v-0.2c3.8,0,6.9-0.4,9.8-1.6v18.6
		c0,1,0.6,2.1,3.1,2.1v0.2H36.8V154.2z M51.2,154.2c2.4,0,3-1.1,3-2.1v-12.8c0-2.3-1.2-3.5-3.2-3.5c-1.1,0-2.1,0.4-3.1,1.3v-0.2
		c1.1-1.7,3.8-3.3,6.8-3.3c3.7,0,6.3,1.7,6.3,5.8v12.8c0,1,0.6,2.1,3.1,2.1v0.2H51.2V154.2z"/>
	<path class="st1" d="M73.5,149.6c-1.4,0-2.3,0.8-2.3,2.1c0,1.2,0.8,2.7,3.7,3v0.2c-5.5-0.2-8.5-1.7-8.5-4.1c0-1.9,1.6-3,3.5-3
		C71.5,147.8,72.9,148.6,73.5,149.6z M74.8,133.8c-1.5,0.3-3,1.1-3,2.8c0.1,4.8,13.4,5.5,13.4,12.1c0,4-3.4,6.1-8.7,6.3v-0.2
		c1.7-0.3,3.7-0.9,3.7-3c0-4.3-13.5-5.8-13.5-12.1c0-3.6,3.4-5.8,8-6V133.8z M84.5,137.8c0,1.3-1,2.5-3,2.5c-1.7,0-3-0.7-3.5-2
		c1.2-0.1,1.9-0.9,1.8-1.9c0-1.2-1.6-2.4-3.2-2.6v-0.2C81.3,133.8,84.5,135.5,84.5,137.8z"/>
	<path class="st1" d="M97.4,149.1c0,2.3,0.8,3.5,2.8,3.5c1.1,0,1.9-0.3,2.8-1.3v0.2c-0.9,1.8-3,3.3-6.4,3.3c-3.7,0-6.1-1.7-6.1-5.8
		v-11.5c0-1.5-0.7-2.2-3-2.2v-0.2c3.8,0,6.9-0.4,9.8-1.6V149.1z M111.1,151.7c0,1.2,0.4,1.7,1.1,1.7c0.6,0,1.3-0.6,2-1.8h0.2
		c-0.7,2.3-2.9,3.3-5.6,3.3c-2.9,0-4.5-1.6-4.5-4v-13.3c0-1.5-0.7-2.2-2.9-2.2v-0.2c3.7,0,6.2-0.4,9.7-1.6V151.7z"/>
</g>
<g class="st0">
	<path class="st1" d="M125.9,152.1c0,1,0.6,2.1,3.1,2.1v0.2H116v-0.2c2.5,0,3.1-1.1,3.1-2.1v-14.6c0-1.5-0.7-2.2-3-2.2v-0.2
		c3.8,0,6.9-0.4,9.8-1.6V152.1z M137,138c0,2.8-2,4.7-4.2,4.7c-1,0-1.8-0.2-2.3-0.9c0.8-0.4,1.6-1.3,1.6-2.8c0-1.2-0.9-2.2-2.3-2.2
		c-1.1,0-1.9,0.6-2.5,1.6V138c0.8-2.6,2.8-4.4,5.3-4.4C135.4,133.5,137,135.5,137,138z"/>
</g>
<g class="st0">
	<path class="st1" d="M138.8,149.6c0-3.6,3.3-5.6,7.9-5.6h4.4v0.2h-1.2c-3,0-4.4,1.9-4.4,4.5c0,2.3,0.7,4,2.6,4c1.1,0,2.1-0.6,3-1.4
		v0.2c-1.4,1.6-3.5,3.3-6.5,3.3C141.1,154.9,138.7,152.9,138.8,149.6z M140.4,138c0-2.1,1.9-4.2,7.5-4.5v0.2c-1.6,0.2-2.6,1.6-2.6,3
		c0,1.5,1,2.4,2.7,2.5c-0.6,1.1-2.3,2-3.9,2C141.7,141.3,140.4,139.7,140.4,138z M152.3,150.3v-12.6c0-2-0.8-3.6-2.8-3.9v-0.2
		c6.8,0.2,9.5,2.8,9.5,8.2v10c0,1.2,0.4,1.7,1.2,1.7c0.6,0,1.3-0.6,2-1.8h0.2c-0.7,2.3-2.9,3.3-5.3,3.3
		C153.8,154.9,152.3,153.7,152.3,150.3z"/>
	<path class="st1" d="M163.7,154.2c2.5,0,3.1-1.1,3.1-2.1v-14.6c0-1.5-0.7-2.2-3-2.2v-0.2c3.8,0,6.9-0.4,9.8-1.6v18.6
		c0,1,0.6,2.1,3.1,2.1v0.2h-12.9V154.2z M178.1,154.2c2.4,0,3-1.1,3-2.1v-12.8c0-2.3-1.2-3.5-3.2-3.5c-1.2,0-2.1,0.4-3.1,1.3v-0.2
		c1.1-1.7,3.8-3.3,6.8-3.3c3.7,0,6.3,1.7,6.3,5.8v12.8c0,1,0.6,2.1,3.1,2.1v0.2h-12.9V154.2z"/>
	<path class="st1" d="M203.8,133.8c-2.4,0.3-3.5,2.3-3.5,10.2c0,5.9,3,9.2,6.7,9.2c2.3,0,4.1-0.7,6-2.2v0.2c-2.1,2.7-6,3.7-8.7,3.7
		c-5.3,0-11-3.9-11-10.8s5.7-10.6,10.5-10.6V133.8z M212.9,138.2c0,2.2-1.5,3.9-4.1,3.9c-2,0-3.3-1.3-3.6-2.6c1.2-0.5,2-1.9,2-3
		c0-0.9-0.2-2.4-1.8-2.7v-0.3C210.8,133.5,212.9,135.8,212.9,138.2z"/>
	<path class="st1" d="M215.9,144.1c0-6.9,5.3-10.6,10.1-10.6v0.2c-2.4,0.3-3.1,2.3-3.1,10.2c0,5.9,2.6,9.2,6.3,9.2
		c2.3,0,4.1-0.7,6-2.2v0.2c-2.1,2.7-6,3.7-8.7,3.7C221.2,154.9,215.9,151,215.9,144.1z M225.2,142.4c3.6,0,5.1-1.1,5.1-4.6
		c0-2-0.8-3.8-2.7-4v-0.2c5.4,0,8,3.9,8,7c0,0.7-0.1,1.5-0.2,2.1h-10.3V142.4z"/>
</g>
</svg>
