<?xml version="1.0" encoding="utf-8"?>
<!-- Generator: Adobe Illustrator 24.0.3, SVG Export Plug-In . SVG Version: 6.00 Build 0)  -->
<svg version="1.1" id="Layer_1" xmlns="http://www.w3.org/2000/svg" xmlns:xlink="http://www.w3.org/1999/xlink" x="0px" y="0px"
	 viewBox="0 0 300 600" style="enable-background:new 0 0 300 600;" xml:space="preserve">
<style type="text/css">
	.st0{enable-background:new    ;}
	.st1{fill:#FFFFFF;}
</style>
<title>Artboard 1 copy 4</title>
<g class="st0">
	<path class="st1" d="M45.9,66.4l0.2,0.3c-2,3.2-5.6,4.7-9.3,4.7c-6.3,0-14.2-4.5-14.2-13.5c0-9.8,7.7-13.4,13.3-13.6v0.2
		c-2.7,0.6-5.7,3.1-5.7,13.1c0,9.9,4,12.2,8.4,12.2C42,69.8,44.5,68.1,45.9,66.4z M46.2,44.3v9.4h-0.3c-1.5-5.2-4.4-8.1-8.2-9.2
		v-0.2c3.4,0.2,5.4,0.7,7,1.8l1.2-1.8H46.2z"/>
	<path class="st1" d="M49.1,66.4c0-3.4,3.1-5.3,7.4-5.3h4.2v0.2h-1.2c-2.8,0-4.1,1.8-4.1,4.2c0,2.1,0.6,3.8,2.4,3.8
		c1.1,0,2-0.6,2.8-1.4v0.2c-1.3,1.5-3.3,3.1-6.2,3.1C51.3,71.4,49.1,69.5,49.1,66.4z M50.7,55.5c0-2,1.8-4,7.1-4.2v0.2
		c-1.6,0.2-2.5,1.5-2.5,2.8c0,1.4,1,2.2,2.5,2.4c-0.6,1.1-2.2,1.9-3.7,1.9C51.9,58.5,50.7,57.1,50.7,55.5z M61.9,67V55.2
		c0-1.9-0.7-3.4-2.6-3.7v-0.2c6.4,0.2,9,2.7,9,7.8v9.4c0,1.1,0.4,1.6,1.1,1.6c0.6,0,1.2-0.6,1.9-1.7h0.2c-0.6,2.1-2.7,3.1-5,3.1
		C63.3,71.4,61.9,70.3,61.9,67z"/>
	<path class="st1" d="M72.5,44c3.6,0,6.5-0.4,9.3-1.5v26.3c0,1,0.6,2,2.9,2V71H72.4v-0.2c2.3,0,2.9-1,2.9-2V46.3
		c0-1.4-0.7-2.1-2.9-2.1V44z"/>
	<path class="st1" d="M86.1,44c3.6,0,6.5-0.4,9.3-1.5v26.3c0,1,0.6,2,2.9,2V71H86v-0.2c2.3,0,2.9-1,2.9-2V46.3
		c0-1.4-0.7-2.1-2.9-2.1V44z"/>
</g>
<g class="st0">
	<path class="st1" d="M109.4,53.2c-0.4-0.8-0.9-1.4-2.1-1.4v-0.2h10.9v0.2c-1.4,0-1.9,0.9-1.2,2.3l5.1,10.6l-3.3,6.3h-0.2
		L109.4,53.2z M107.7,77.3c0-1.7,1.3-3.1,3.4-3.6c-0.1,0.3-0.2,0.7-0.2,1c0,1.5,0.8,2.6,2.3,2.6c1.4,0,2.4-1.4,3.9-3.9h0.3
		c-2.1,4-3.6,7.4-6.3,7.4C109,80.7,107.7,79.2,107.7,77.3z M123.6,60.9c0.7-1.2,1.1-2.9,1.1-5c0-2.1-1.2-4.1-4-4.1v-0.2h9.7v0.2
		c-1.3,0-1.8,0.5-2.5,1.8l-4,7.6L123.6,60.9z"/>
</g>
<g class="st0">
	<path class="st1" d="M140.3,51.5c-2.3,0.3-3.1,2.2-3.1,9.8c0,7.3,0.8,9.7,3.1,9.9v0.2c-4.5,0-9.7-3.6-9.7-10.2c0-6.5,5.1-10,9.7-10
		V51.5z M151.4,61.2c0,6.5-5.2,10.2-9.6,10.2v-0.2c2.3-0.2,3-2.7,3-9.9c0-7.6-0.8-9.5-3-9.8v-0.2C146.3,51.2,151.4,54.7,151.4,61.2z
		"/>
	<path class="st1" d="M162.9,65.9c0,2.2,0.7,3.3,2.7,3.3c1,0,1.8-0.3,2.7-1.2v0.2c-0.9,1.7-2.9,3.1-6,3.1c-3.5,0-5.7-1.6-5.7-5.5V55
		c0-1.4-0.7-2.1-2.9-2.1v-0.2c3.6,0,6.5-0.4,9.3-1.5V65.9z M175.8,68.4c0,1.1,0.3,1.6,1,1.6c0.6,0,1.2-0.6,1.9-1.7h0.2
		c-0.6,2.1-2.7,3.1-5.3,3.1c-2.7,0-4.3-1.6-4.3-3.8V55c0-1.4-0.7-2.1-2.8-2.1v-0.2c3.5,0,5.9-0.4,9.1-1.5V68.4z"/>
</g>
<g class="st0">
	<path class="st1" d="M189.8,68.8c0,1,0.6,2,2.9,2V71h-12.2v-0.2c2.3,0,2.9-1,2.9-2V55c0-1.4-0.7-2.1-2.9-2.1v-0.2
		c3.6,0,6.5-0.4,9.3-1.5V68.8z M200.2,55.4c0,2.7-1.9,4.4-4,4.4c-0.9,0-1.7-0.2-2.2-0.9c0.7-0.4,1.5-1.2,1.5-2.6
		c0-1.1-0.8-2.1-2.2-2.1c-1,0-1.8,0.6-2.3,1.5v-0.3c0.7-2.5,2.6-4.2,5-4.2C198.8,51.2,200.2,53.1,200.2,55.4z"/>
</g>
<g class="st0">
	<path class="st1" d="M30.2,104.9c0,3.7-2.5,5.3-6.4,5.3V85.1c0-1.4-0.7-2.1-2.9-2.1v-0.2c3.6,0,6-0.4,9.3-1.5V104.9z M45,99.9
		c0,8.1-4.3,10.3-8,10.3c-2.2,0-4.7-1.5-5.6-3.1v-0.2c1,0.7,2,1.4,3.2,1.4c1.8,0,3.8-1.3,3.8-8.3c0-7-1.9-7.9-3.8-7.9
		c-1.2,0-2.3,0.5-3.2,1.4v-0.3c1-1.6,3.4-3.1,5.6-3.1C40.8,90,45,92.2,45,99.9z"/>
</g>
<g class="st0">
	<path class="st1" d="M57,107.6c0,1,0.6,2,2.9,2v0.2H47.7v-0.2c2.3,0,2.9-1,2.9-2V93.8c0-1.4-0.7-2.1-2.9-2.1v-0.2
		c3.6,0,6.5-0.4,9.3-1.5V107.6z M67.5,94.2c0,2.7-1.9,4.4-4,4.4c-0.9,0-1.7-0.2-2.2-0.9c0.7-0.4,1.5-1.2,1.5-2.6
		c0-1.1-0.8-2.1-2.2-2.1c-1,0-1.8,0.6-2.3,1.5v-0.3c0.7-2.5,2.6-4.2,5-4.2C66,90,67.5,91.9,67.5,94.2z"/>
</g>
<g class="st0">
	<path class="st1" d="M79.2,90.2c-2.3,0.3-3.1,2.2-3.1,9.8c0,7.3,0.8,9.7,3.1,9.9v0.2c-4.5,0-9.7-3.6-9.7-10.2c0-6.5,5.1-10,9.7-10
		V90.2z M90.4,100c0,6.5-5.2,10.2-9.6,10.2v-0.2c2.3-0.2,3-2.7,3-9.9c0-7.6-0.8-9.5-3-9.8V90C85.3,90,90.4,93.5,90.4,100z"/>
</g>
<g class="st0">
	<path class="st1" d="M104.9,109.5v0.2H92.7v-0.2c2.3,0,2.9-1,2.9-2V85.1c0-1.4-0.7-2.1-2.9-2.1v-0.2c3.6,0,6.5-0.4,9.3-1.5v26.3
		C102,108.5,102.6,109.5,104.9,109.5z M118.1,109.5v0.2c-1.1,0.3-2.6,0.4-3.9,0.4c-2.4,0-5-0.4-7-3.8l-3.6-6.1
		c3.1-2.7,5.9-5.9,5.9-7.9c0-1-0.5-1.8-2.3-1.8v-0.2h9.9v0.2c-0.9,0-1.6,0.3-2.2,0.7l-7.1,5.6l6.7,10.4
		C115.8,109.3,116.8,109.4,118.1,109.5z"/>
</g>
<g class="st0">
	<path class="st1" d="M118.3,100c0-6.5,5-10,9.5-10v0.2c-2.3,0.3-2.9,2.2-2.9,9.6c0,5.6,2.5,8.6,5.9,8.6c2.2,0,3.8-0.6,5.7-2.1v0.2
		c-2,2.6-5.7,3.5-8.2,3.5C123.3,110.2,118.3,106.5,118.3,100z M127,98.4c3.4,0,4.8-1.1,4.8-4.3c0-1.9-0.8-3.6-2.5-3.8V90
		c5.1,0,7.6,3.6,7.6,6.6c0,0.6-0.1,1.4-0.2,2H127V98.4z"/>
</g>
<g class="st0">
	<path class="st1" d="M148.7,107.6c0,1,0.6,2,2.9,2v0.2h-12.2v-0.2c2.3,0,2.9-1,2.9-2V93.8c0-1.4-0.7-2.1-2.9-2.1v-0.2
		c3.6,0,6.5-0.4,9.3-1.5V107.6z M159.2,94.2c0,2.7-1.9,4.4-4,4.4c-0.9,0-1.7-0.2-2.2-0.9c0.7-0.4,1.5-1.2,1.5-2.6
		c0-1.1-0.8-2.1-2.2-2.1c-1,0-1.8,0.6-2.3,1.5v-0.3c0.7-2.5,2.6-4.2,5-4.2C157.7,90,159.2,91.9,159.2,94.2z"/>
</g>
<g class="st0">
	<path class="st1" d="M183.1,91.4l-0.4,0.6h-3.8v15.6c0,1,0.6,2,2.9,2v0.2h-12.2v-0.2c2.3,0,2.9-1,2.9-2V92H170l0.4-0.6h2.1v-1.7
		c0-5.5,2.9-7.8,6.4-8.4v0.2c-1.3,0.5-2.3,1.7-2.3,4.1C176.7,87.9,178.2,91.4,183.1,91.4z M186.4,85.5c0,2.2-1.6,3.4-3.4,3.4
		c-2.1,0-3.3-1.2-3.9-2.6c1.7,0,2.8-0.9,2.8-2.5c0-1.1-0.5-2.1-1.4-2.3v-0.2C184.6,81.4,186.4,83.3,186.4,85.5z"/>
</g>
<g class="st0">
	<path class="st1" d="M194.6,90.2c-2.3,0.3-3.1,2.2-3.1,9.8c0,7.3,0.8,9.7,3.1,9.9v0.2c-4.5,0-9.7-3.6-9.7-10.2c0-6.5,5.1-10,9.7-10
		V90.2z M205.8,100c0,6.5-5.2,10.2-9.6,10.2v-0.2c2.3-0.2,3-2.7,3-9.9c0-7.6-0.8-9.5-3-9.8V90C200.7,90,205.8,93.5,205.8,100z"/>
</g>
<g class="st0">
	<path class="st1" d="M217.6,107.6c0,1,0.6,2,2.9,2v0.2h-12.2v-0.2c2.3,0,2.9-1,2.9-2V93.8c0-1.4-0.7-2.1-2.9-2.1v-0.2
		c3.6,0,6.5-0.4,9.3-1.5V107.6z M228.1,94.2c0,2.7-1.9,4.4-4,4.4c-0.9,0-1.7-0.2-2.2-0.9c0.7-0.4,1.5-1.2,1.5-2.6
		c0-1.1-0.8-2.1-2.2-2.1c-1,0-1.8,0.6-2.3,1.5v-0.3c0.7-2.5,2.6-4.2,5-4.2C226.6,90,228.1,91.9,228.1,94.2z"/>
</g>
<g class="st0">
	<path class="st1" d="M21.9,144c0-3.4,3.1-5.3,7.4-5.3h4.2v0.2h-1.2c-2.8,0-4.1,1.8-4.1,4.2c0,2.1,0.6,3.8,2.4,3.8
		c1.1,0,2-0.6,2.8-1.4v0.2c-1.3,1.5-3.3,3.1-6.2,3.1C24.1,148.9,21.8,147.1,21.9,144z M23.4,133c0-2,1.8-4,7.1-4.2v0.2
		c-1.6,0.2-2.5,1.5-2.5,2.8c0,1.4,1,2.2,2.5,2.4c-0.6,1.1-2.2,1.9-3.7,1.9C24.7,136.1,23.4,134.6,23.4,133z M34.7,144.5v-11.9
		c0-1.9-0.7-3.4-2.6-3.7v-0.2c6.4,0.2,9,2.7,9,7.8v9.4c0,1.1,0.4,1.6,1.1,1.6c0.6,0,1.2-0.6,1.9-1.7h0.2c-0.6,2.1-2.7,3.1-5,3.1
		C36.1,148.9,34.7,147.8,34.7,144.5z"/>
	<path class="st1" d="M69.7,131.9v0.3c-0.9-1-2.1-1.4-3.3-1.4c-1.9,0-3.8,0.9-3.8,7.9c0,7,1.9,8.3,3.8,8.3c1.2,0,2.3-0.6,3.3-1.4
		v0.2c-1,1.6-3.4,3.1-5.7,3.1c-3.7,0-7.9-2.2-7.9-10.3c0-7.7,4.2-9.9,7.9-9.9C66.3,128.8,68.7,130.2,69.7,131.9z M77.3,154.4
		c0,1.4,0.7,2.1,2.9,2.1v0.2c-3.6,0-6,0.4-9.3,1.5v-28c2-0.2,4.7-0.7,6.4-1.5V154.4z"/>
	<path class="st1" d="M90.3,143.5c0,2.2,0.7,3.3,2.7,3.3c1,0,1.8-0.3,2.7-1.2v0.2c-0.9,1.7-2.9,3.1-6,3.1c-3.5,0-5.7-1.6-5.7-5.5
		v-10.9c0-1.4-0.7-2.1-2.9-2.1v-0.2c3.6,0,6.5-0.4,9.3-1.5V143.5z M103.2,145.9c0,1.1,0.3,1.6,1,1.6c0.6,0,1.2-0.6,1.9-1.7h0.2
		c-0.6,2.1-2.7,3.1-5.3,3.1c-2.7,0-4.3-1.6-4.3-3.8v-12.6c0-1.4-0.7-2.1-2.8-2.1v-0.2c3.5,0,5.9-0.4,9.1-1.5V145.9z"/>
	<path class="st1" d="M118.2,129c-2.3,0.3-3.1,2.2-3.1,9.8c0,7.3,0.8,9.7,3.1,9.9v0.2c-4.5,0-9.7-3.6-9.7-10.2c0-6.5,5.1-10,9.7-10
		V129z M129.4,138.8c0,6.5-5.2,10.2-9.6,10.2v-0.2c2.3-0.2,3-2.7,3-9.9c0-7.6-0.8-9.5-3-9.8v-0.2
		C124.2,128.8,129.4,132.2,129.4,138.8z"/>
</g>
<g class="st0">
	<path class="st1" d="M147,145.6v0.2c-1.2,1.8-3.7,3.1-6.6,3.1c-3.5,0-6-1.6-6-5.5v-12.7h-2l0.4-0.6h1.6V126c2.4,0,4.7-0.7,6.4-2.2
		v6.4h5.2l-0.4,0.6h-4.8v12.8c0,1.9,0.7,4,2.6,4C144.4,147.5,145.7,146.8,147,145.6z"/>
</g>
<g class="st0">
	<path class="st1" d="M148.4,138.8c0-6.5,5-10,9.5-10v0.2c-2.3,0.3-2.9,2.2-2.9,9.6c0,5.6,2.5,8.6,5.9,8.6c2.2,0,3.8-0.6,5.7-2.1
		v0.2c-2,2.6-5.7,3.5-8.2,3.5C153.4,148.9,148.4,145.3,148.4,138.8z M157.1,137.1c3.4,0,4.8-1.1,4.8-4.3c0-1.9-0.8-3.6-2.5-3.8v-0.2
		c5.1,0,7.6,3.6,7.6,6.6c0,0.6-0.1,1.4-0.2,2h-9.7V137.1z"/>
</g>
</svg>
