<svg id="Layer_1" data-name="Layer 1" xmlns="http://www.w3.org/2000/svg" xmlns:xlink="http://www.w3.org/1999/xlink" viewBox="0 0 320 50"><defs><style>.cls-1{fill:none;}.cls-2{clip-path:url(#clip-path);}.cls-3{fill:#fff;}</style><clipPath id="clip-path"><rect class="cls-1" width="320" height="50"/></clipPath></defs><title>Artboard 1 copy</title><g class="cls-2"><path class="cls-3" d="M8.36,12.69a9.72,9.72,0,0,0,3.83-.63v7.27c0,.4.24.81,1.2.81v.1h-5v-.1c1,0,1.2-.41,1.2-.81v-5.7c0-.58-.27-.85-1.19-.85Zm.82-3a1.45,1.45,0,0,1,1.63-1.4,1.42,1.42,0,1,1,0,2.81A1.45,1.45,0,0,1,9.18,9.68Z"/><path class="cls-3" d="M17.13,18.34a.81.81,0,0,0-.89.8c0,.46.32,1.05,1.42,1.16v.1c-2.13-.08-3.3-.66-3.3-1.58a1.25,1.25,0,0,1,1.36-1.19A1.64,1.64,0,0,1,17.13,18.34Zm.53-6.17c-.59.11-1.17.42-1.15,1.08,0,1.85,5.23,2.16,5.23,4.7,0,1.55-1.31,2.37-3.38,2.45v-.1c.68-.11,1.43-.35,1.43-1.18,0-1.67-5.25-2.27-5.25-4.71,0-1.4,1.33-2.25,3.12-2.33Zm3.78,1.56a1.05,1.05,0,0,1-1.19,1A1.38,1.38,0,0,1,18.89,14a.71.71,0,0,0,.72-.75c0-.48-.61-.95-1.25-1v-.09C20.17,12.17,21.44,12.83,21.44,13.73Z"/><path class="cls-3" d="M27.15,16.21a4,4,0,0,1,3.92-4.13v.09c-.95.11-1.2.92-1.2,4,0,2.31,1,3.57,2.45,3.57a3.43,3.43,0,0,0,2.33-.85V19a4.47,4.47,0,0,1-3.39,1.44A4,4,0,0,1,27.15,16.21Zm3.6-.68c1.41,0,2-.44,2-1.79,0-.77-.32-1.47-1-1.57v-.09a2.89,2.89,0,0,1,3.14,2.72,5.69,5.69,0,0,1-.08.83h-4Z"/><path class="cls-3" d="M36,18.35c0-1.39,1.29-2.17,3.08-2.17H40.8v.09h-.48A1.58,1.58,0,0,0,38.62,18c0,.88.26,1.55,1,1.55A1.77,1.77,0,0,0,40.8,19v.09a3.41,3.41,0,0,1-2.55,1.3A2,2,0,0,1,36,18.35Zm.64-4.53c0-.81.74-1.65,2.92-1.74v.09a1.18,1.18,0,0,0-1,1.17c0,.58.4.93,1,1a1.78,1.78,0,0,1-1.53.77A1.29,1.29,0,0,1,36.63,13.82Zm4.65,4.77v-4.9c0-.78-.31-1.41-1.09-1.52v-.09c2.66.09,3.71,1.1,3.71,3.2v3.89c0,.46.16.65.45.65s.51-.24.77-.72h.09a2,2,0,0,1-2.08,1.3C41.85,20.4,41.28,20,41.28,18.59Z"/><path class="cls-3" d="M48.78,18.34a.82.82,0,0,0-.9.8c0,.46.32,1.05,1.43,1.16v.1c-2.13-.08-3.3-.66-3.3-1.58a1.25,1.25,0,0,1,1.36-1.19A1.64,1.64,0,0,1,48.78,18.34Zm.53-6.17c-.59.11-1.17.42-1.15,1.08,0,1.85,5.23,2.16,5.23,4.7,0,1.55-1.31,2.37-3.38,2.45v-.1c.67-.11,1.43-.35,1.43-1.18,0-1.67-5.25-2.27-5.25-4.71,0-1.4,1.33-2.25,3.12-2.33Zm3.77,1.56a1,1,0,0,1-1.18,1A1.38,1.38,0,0,1,50.54,14a.71.71,0,0,0,.72-.75c0-.48-.61-.95-1.25-1v-.09C51.82,12.17,53.08,12.83,53.08,13.73Z"/><path class="cls-3" d="M54.73,12.89a.87.87,0,0,0-.88-.56v-.09h4.48v.09c-.56,0-.78.39-.51.95l2.1,4.37-1.38,2.59h-.1ZM54,22.82a1.67,1.67,0,0,1,1.41-1.51,1.25,1.25,0,0,0-.07.4.94.94,0,0,0,1,1.07c.56,0,1-.59,1.61-1.61H58c-.88,1.65-1.48,3.07-2.6,3.07A1.33,1.33,0,0,1,54,22.82Zm6.56-6.74A4.41,4.41,0,0,0,61,14a1.55,1.55,0,0,0-1.63-1.68v-.09h4v.09c-.53,0-.74.21-1,.76l-1.66,3.13Z"/><path class="cls-3" d="M69.92,13.28,72,17.65l-1.37,2.59h-.1l-3.71-7.35a.88.88,0,0,0-.88-.56v-.09h4.48v.09C69.87,12.33,69.64,12.72,69.92,13.28Zm5.26,0,2.1,4.37L75.9,20.24h-.09l-2.52-5-.51,1-.1-.14a2.37,2.37,0,0,0,.13-1.78l-.72-1.41a.87.87,0,0,0-.88-.56v-.09h4.48v.09C75.13,12.33,74.91,12.72,75.18,13.28Zm5.57-1v.09c-.53,0-.75.21-1,.76l-1.66,3.13-.1-.14A4.41,4.41,0,0,0,78.4,14a1.55,1.55,0,0,0-1.63-1.68v-.09Z"/><path class="cls-3" d="M80.89,12.69a9.72,9.72,0,0,0,3.83-.63v7.27c0,.4.24.81,1.2.81v.1h-5v-.1c1,0,1.2-.41,1.2-.81v-5.7c0-.58-.28-.85-1.19-.85Zm.82-3a1.65,1.65,0,1,1,1.63,1.41A1.45,1.45,0,0,1,81.71,9.68Z"/><path class="cls-3" d="M92.8,19v.09a3.36,3.36,0,0,1-2.74,1.3c-1.44,0-2.47-.66-2.47-2.26V12.89h-.83l.18-.24h.65V10.93a4.07,4.07,0,0,0,2.63-.9v2.62h2.16l-.18.24h-2v5.3c0,.8.3,1.63,1.06,1.63A2.36,2.36,0,0,0,92.8,19Z"/><path class="cls-3" d="M96.92,19.33c0,.4.24.81,1.2.81v.1h-5v-.1c1,0,1.2-.41,1.2-.81V10c0-.57-.27-.84-1.18-.84V9.1a9.82,9.82,0,0,0,3.82-.62Zm5.61-5v5c0,.4.24.81,1.2.81v.1h-5v-.1c.94,0,1.18-.41,1.18-.81v-5c0-.89-.46-1.36-1.26-1.36a1.73,1.73,0,0,0-1.22.5v-.1a3.3,3.3,0,0,1,2.66-1.29C101.5,12.08,102.53,12.75,102.53,14.33Z"/><path class="cls-3" d="M112.73,20.3v.1a6,6,0,0,1-3.1-.78l-.53.78H109V16.5h.13A5.36,5.36,0,0,0,112.73,20.3Zm4.71-3.18c0,2.06-1.54,3.18-4,3.28v-.1c.88-.16,1.75-.67,1.75-1.63,0-2.8-6.12-3.05-6.12-6.3,0-1.92,1.55-3,3.68-3.17v.09a1.52,1.52,0,0,0-1.41,1.48C111.32,13.57,117.44,13.87,117.44,17.12Zm-4-7.83V9.2a5.14,5.14,0,0,1,2.88.84l.58-.84H117v3.57h-.13A5.1,5.1,0,0,0,113.42,9.29Z"/><path class="cls-3" d="M124.73,19v.09A3.32,3.32,0,0,1,122,20.4c-1.45,0-2.47-.66-2.47-2.26V12.89h-.83l.17-.24h.66V10.93a4.07,4.07,0,0,0,2.63-.9v2.62h2.16l-.18.24h-2v5.3c0,.8.3,1.63,1,1.63A2.34,2.34,0,0,0,124.73,19Z"/><path class="cls-3" d="M125.24,18.35c0-1.39,1.28-2.17,3.07-2.17H130v.09h-.48A1.58,1.58,0,0,0,127.87,18c0,.88.25,1.55,1,1.55A1.75,1.75,0,0,0,130,19v.09a3.37,3.37,0,0,1-2.54,1.3A2,2,0,0,1,125.24,18.35Zm.64-4.53c0-.81.74-1.65,2.91-1.74v.09a1.18,1.18,0,0,0-1,1.17c0,.58.4.93,1,1a1.79,1.79,0,0,1-1.54.77A1.29,1.29,0,0,1,125.88,13.82Zm4.64,4.77v-4.9c0-.78-.3-1.41-1.08-1.52v-.09c2.65.09,3.71,1.1,3.71,3.2v3.89c0,.46.16.65.45.65s.51-.24.77-.72h.09a2,2,0,0,1-2.08,1.3C131.1,20.4,130.52,20,130.52,18.59Z"/><path class="cls-3" d="M138.79,19.33c0,.4.25.81,1.21.81v.1H135v-.1c1,0,1.2-.41,1.2-.81V13.65c0-.58-.27-.85-1.18-.85v-.1a9.82,9.82,0,0,0,3.82-.62Zm4.33-5.52a1.71,1.71,0,0,1-1.65,1.82,1.09,1.09,0,0,1-.91-.35,1.18,1.18,0,0,0,.62-1.09.85.85,0,0,0-.9-.86,1.12,1.12,0,0,0-1,.6v-.12a2.22,2.22,0,0,1,2.08-1.73A1.63,1.63,0,0,1,143.12,13.81Z"/><path class="cls-3" d="M8.64,38.14c1,0,1.2-.38,1.2-.81V28.27c0-.43-.24-.82-1.2-.82v-.09h5.12v.09c-1,0-1.2.39-1.2.82v9.06c0,.43.24.81,1.2.81v.1H8.64Z"/><path class="cls-3" d="M14.83,38.14c1,0,1.2-.41,1.2-.81V31.65c0-.58-.27-.85-1.19-.85v-.1a9.91,9.91,0,0,0,3.83-.62v7.25c0,.4.24.81,1.2.81v.1h-5Zm5.63,0c.95,0,1.19-.41,1.19-.81v-5A1.19,1.19,0,0,0,20.38,31a1.69,1.69,0,0,0-1.21.5v-.1a3.26,3.26,0,0,1,2.65-1.29c1.44,0,2.47.67,2.47,2.25v5c0,.4.24.81,1.2.81v.1h-5Z"/><path class="cls-3" d="M29.13,36.34a.81.81,0,0,0-.89.8c0,.46.32,1,1.42,1.16v.1c-2.13-.08-3.3-.66-3.3-1.58a1.25,1.25,0,0,1,1.36-1.19A1.64,1.64,0,0,1,29.13,36.34Zm.53-6.17c-.59.11-1.17.42-1.15,1.08,0,1.85,5.23,2.16,5.23,4.7,0,1.55-1.31,2.37-3.38,2.45v-.1c.68-.11,1.43-.35,1.43-1.18,0-1.67-5.25-2.27-5.25-4.71,0-1.4,1.33-2.25,3.12-2.33Zm3.78,1.56a1.05,1.05,0,0,1-1.19,1A1.38,1.38,0,0,1,30.89,32a.71.71,0,0,0,.72-.75c0-.48-.61-.95-1.25-1v-.09C32.17,30.17,33.44,30.83,33.44,31.73Z"/><path class="cls-3" d="M38.46,36.14c0,.9.3,1.36,1.11,1.36a1.4,1.4,0,0,0,1.1-.49v.09a2.66,2.66,0,0,1-2.48,1.3,2.07,2.07,0,0,1-2.37-2.26V31.65c0-.58-.27-.85-1.19-.85v-.1a9.91,9.91,0,0,0,3.83-.62Zm5.33,1c0,.46.14.65.43.65s.52-.24.77-.72h.1a2.05,2.05,0,0,1-2.18,1.3,1.55,1.55,0,0,1-1.76-1.57V31.65c0-.58-.27-.85-1.14-.85v-.1a10.49,10.49,0,0,0,3.78-.62Z"/><path class="cls-3" d="M49.56,37.33c0,.4.24.81,1.2.81v.1h-5v-.1c1,0,1.2-.41,1.2-.81V31.65c0-.58-.27-.85-1.18-.85v-.1a9.82,9.82,0,0,0,3.82-.62Zm4.33-5.52a1.71,1.71,0,0,1-1.65,1.82,1.09,1.09,0,0,1-.91-.35A1.18,1.18,0,0,0,52,32.19a.85.85,0,0,0-.9-.86,1.12,1.12,0,0,0-1,.6v-.12a2.22,2.22,0,0,1,2.08-1.73A1.63,1.63,0,0,1,53.89,31.81Z"/><path class="cls-3" d="M54.57,36.35c0-1.39,1.28-2.17,3.07-2.17h1.73v.09h-.48A1.58,1.58,0,0,0,57.2,36c0,.88.25,1.55,1,1.55A1.75,1.75,0,0,0,59.37,37v.09a3.39,3.39,0,0,1-2.54,1.3A2,2,0,0,1,54.57,36.35Zm.64-4.53c0-.81.74-1.65,2.91-1.74v.09a1.17,1.17,0,0,0-1,1.17c0,.58.4.93,1,1a1.8,1.8,0,0,1-1.54.77A1.29,1.29,0,0,1,55.21,31.82Zm4.64,4.77v-4.9c0-.78-.3-1.41-1.09-1.52v-.09c2.66.09,3.72,1.1,3.72,3.2v3.89c0,.46.16.65.45.65s.51-.24.76-.72h.1a2,2,0,0,1-2.08,1.3C60.43,38.4,59.85,38,59.85,36.59Z"/><path class="cls-3" d="M64.28,38.14c1,0,1.2-.41,1.2-.81V31.65c0-.58-.27-.85-1.18-.85v-.1a9.82,9.82,0,0,0,3.82-.62v7.25c0,.4.24.81,1.2.81v.1h-5Zm5.64,0c.94,0,1.18-.41,1.18-.81v-5c0-.89-.46-1.36-1.26-1.36a1.72,1.72,0,0,0-1.22.5v-.1a3.27,3.27,0,0,1,2.66-1.29c1.44,0,2.46.67,2.46,2.25v5c0,.4.24.81,1.2.81v.1h-5Z"/><path class="cls-3" d="M79.9,30.17c-.94.11-1.36.92-1.36,4,0,2.31,1.17,3.57,2.59,3.57a3.44,3.44,0,0,0,2.34-.85V37a4.47,4.47,0,0,1-3.39,1.44,4.19,4.19,0,0,1-4.28-4.19,4.1,4.1,0,0,1,4.1-4.13Zm3.55,1.72a1.48,1.48,0,0,1-1.6,1.53,1.36,1.36,0,0,1-1.39-1,1.37,1.37,0,0,0,.77-1.16,1,1,0,0,0-.69-1.06v-.11C82.64,30.08,83.45,31,83.45,31.89Z"/><path class="cls-3" d="M84.65,34.21a4,4,0,0,1,3.92-4.13v.09c-.94.11-1.2.92-1.2,4,0,2.31,1,3.57,2.45,3.57a3.46,3.46,0,0,0,2.34-.85V37a4.49,4.49,0,0,1-3.4,1.44A4.05,4.05,0,0,1,84.65,34.21Zm3.6-.68c1.41,0,2-.44,2-1.79,0-.77-.32-1.47-1-1.57v-.09a2.89,2.89,0,0,1,3.14,2.72,4.58,4.58,0,0,1-.08.83h-4Z"/><path class="cls-3" d="M97.74,38.24v-.1c1,0,1.2-.36,1.2-.81v-9c0-.44-.24-.83-1.2-.83v-.09h3.92V38.24Zm9-10.88v3h-.13c-.69-2-1.67-2.71-4.1-2.87v-.09Zm-4.23,5.29v-.09l.88-.08a2.45,2.45,0,0,0,2.11-1.38h.13v3h-.13a2.42,2.42,0,0,0-2.11-1.35Zm0,5.49c2.43-.16,3.57-.84,4.43-2.86H107v3h-4.56Z"/><path class="cls-3" d="M108.2,38.14c1,0,1.2-.41,1.2-.81V31.65c0-.58-.27-.85-1.18-.85v-.1a9.82,9.82,0,0,0,3.82-.62v7.25c0,.4.24.81,1.2.81v.1h-5Zm5.64,0c.94,0,1.18-.41,1.18-.81v-5c0-.89-.46-1.36-1.26-1.36a1.72,1.72,0,0,0-1.22.5v-.1a3.27,3.27,0,0,1,2.66-1.29c1.44,0,2.46.67,2.46,2.25v5c0,.4.24.81,1.2.81v.1h-5Z"/><path class="cls-3" d="M125.64,37v.09a3.32,3.32,0,0,1-2.73,1.3c-1.44,0-2.47-.66-2.47-2.26V30.89h-.83l.18-.24h.65V28.93a4.07,4.07,0,0,0,2.63-.9v2.62h2.16l-.18.24h-2v5.3c0,.8.3,1.63,1.05,1.63A2.32,2.32,0,0,0,125.64,37Z"/><path class="cls-3" d="M129.77,37.33c0,.4.24.81,1.2.81v.1h-5v-.1c1,0,1.2-.41,1.2-.81V28c0-.57-.27-.84-1.18-.84v-.1a9.89,9.89,0,0,0,3.82-.62Zm5.6-5v5c0,.4.24.81,1.2.81v.1h-5v-.1c.94,0,1.18-.41,1.18-.81v-5c0-.89-.46-1.36-1.26-1.36a1.73,1.73,0,0,0-1.22.5v-.1a3.27,3.27,0,0,1,2.66-1.29C134.35,30.08,135.37,30.75,135.37,32.33Z"/><path class="cls-3" d="M140.81,36.14c0,.9.31,1.36,1.11,1.36A1.4,1.4,0,0,0,143,37v.09a2.66,2.66,0,0,1-2.48,1.3,2.07,2.07,0,0,1-2.37-2.26V31.65c0-.58-.27-.85-1.18-.85v-.1a9.89,9.89,0,0,0,3.82-.62Zm5.33,1c0,.46.15.65.43.65s.52-.24.77-.72h.1a2.05,2.05,0,0,1-2.18,1.3,1.55,1.55,0,0,1-1.76-1.57V31.65c0-.58-.27-.85-1.14-.85v-.1a10.49,10.49,0,0,0,3.78-.62Z"/><path class="cls-3" d="M151.15,36.34a.82.82,0,0,0-.9.8c0,.46.32,1,1.42,1.16v.1c-2.12-.08-3.29-.66-3.29-1.58a1.25,1.25,0,0,1,1.36-1.19A1.64,1.64,0,0,1,151.15,36.34Zm.52-6.17c-.59.11-1.16.42-1.15,1.08,0,1.85,5.24,2.16,5.24,4.7,0,1.55-1.32,2.37-3.38,2.45v-.1c.67-.11,1.42-.35,1.42-1.18,0-1.67-5.25-2.27-5.25-4.71,0-1.4,1.33-2.25,3.12-2.33Zm3.78,1.56a1,1,0,0,1-1.18,1,1.38,1.38,0,0,1-1.36-.77.71.71,0,0,0,.72-.75c0-.48-.61-.95-1.25-1v-.09C154.19,30.17,155.45,30.83,155.45,31.73Z"/><path class="cls-3" d="M156.84,30.69a9.72,9.72,0,0,0,3.83-.63v7.27c0,.4.24.81,1.2.81v.1h-5v-.1c1,0,1.2-.41,1.2-.81v-5.7c0-.58-.28-.85-1.19-.85Zm.82-3a1.65,1.65,0,1,1,1.63,1.41A1.45,1.45,0,0,1,157.66,27.68Z"/><path class="cls-3" d="M162.67,36.35c0-1.39,1.28-2.17,3.07-2.17h1.73v.09H167a1.58,1.58,0,0,0-1.7,1.75c0,.88.26,1.55,1,1.55a1.75,1.75,0,0,0,1.17-.56v.09a3.41,3.41,0,0,1-2.55,1.3A2,2,0,0,1,162.67,36.35Zm.64-4.53c0-.81.73-1.65,2.91-1.74v.09a1.18,1.18,0,0,0-1,1.17c0,.58.4.93,1.05,1a1.8,1.8,0,0,1-1.54.77A1.29,1.29,0,0,1,163.31,31.82ZM168,36.59v-4.9c0-.78-.31-1.41-1.09-1.52v-.09c2.66.09,3.71,1.1,3.71,3.2v3.89c0,.46.16.65.45.65s.51-.24.77-.72h.09a2,2,0,0,1-2.08,1.3C168.52,38.4,168,38,168,36.59Z"/><path class="cls-3" d="M175.45,36.34a.82.82,0,0,0-.9.8c0,.46.32,1,1.43,1.16v.1c-2.13-.08-3.3-.66-3.3-1.58A1.25,1.25,0,0,1,174,35.63,1.64,1.64,0,0,1,175.45,36.34Zm.53-6.17c-.59.11-1.17.42-1.15,1.08,0,1.85,5.23,2.16,5.23,4.7,0,1.55-1.31,2.37-3.38,2.45v-.1c.68-.11,1.43-.35,1.43-1.18,0-1.67-5.25-2.27-5.25-4.71,0-1.4,1.33-2.25,3.12-2.33Zm3.78,1.56a1.05,1.05,0,0,1-1.19,1,1.38,1.38,0,0,1-1.36-.77.71.71,0,0,0,.72-.75c0-.48-.61-.95-1.25-1v-.09C178.49,30.17,179.76,30.83,179.76,31.73Z"/><path class="cls-3" d="M187.32,37v.09a3.32,3.32,0,0,1-2.73,1.3c-1.44,0-2.47-.66-2.47-2.26V30.89h-.83l.17-.24h.66V28.93a4.07,4.07,0,0,0,2.63-.9v2.62h2.16l-.18.24h-2v5.3c0,.8.3,1.63,1.05,1.63A2.34,2.34,0,0,0,187.32,37Z"/></g></svg>