<?xml version="1.0" encoding="utf-8"?>
<!-- Generator: Adobe Illustrator 24.0.3, SVG Export Plug-In . SVG Version: 6.00 Build 0)  -->
<svg version="1.1" id="Layer_1" xmlns="http://www.w3.org/2000/svg" xmlns:xlink="http://www.w3.org/1999/xlink" x="0px" y="0px"
	 viewBox="0 0 320 50" style="enable-background:new 0 0 320 50;" xml:space="preserve">
<style type="text/css">
	.st0{clip-path:url(#SVGID_2_);}
	.st1{enable-background:new    ;}
	.st2{fill:#FFFFFF;}
</style>
<title>Artboard 1 copy</title>
<g>
	<defs>
		<rect id="SVGID_1_" y="0" width="320" height="50"/>
	</defs>
	<clipPath id="SVGID_2_">
		<use xlink:href="#SVGID_1_"  style="overflow:visible;"/>
	</clipPath>
	<g class="st0">
		<g class="st1">
			<path class="st2" d="M8.4,11.7c1.8,0,3.2-0.2,4.6-0.7v8.7c0,0.5,0.3,1,1.4,1v0.1h-6v-0.1c1.1,0,1.4-0.5,1.4-1v-6.8
				c0-0.7-0.3-1-1.4-1V11.7z M9.4,8.1c0-1,0.8-1.7,1.9-1.7c1.1,0,1.9,0.7,1.9,1.7c0,1-0.8,1.7-1.9,1.7C10.2,9.8,9.4,9.2,9.4,8.1z"/>
			<path class="st2" d="M18.9,18.5c-0.6,0-1.1,0.4-1.1,1c0,0.6,0.4,1.3,1.7,1.4v0.1c-2.5-0.1-3.9-0.8-3.9-1.9c0-0.9,0.8-1.4,1.6-1.4
				C18,17.6,18.6,18,18.9,18.5z M19.5,11.1c-0.7,0.1-1.4,0.5-1.4,1.3c0.1,2.2,6.2,2.6,6.2,5.6c0,1.9-1.6,2.8-4,2.9v-0.1
				c0.8-0.1,1.7-0.4,1.7-1.4c0-2-6.3-2.7-6.3-5.6c0-1.7,1.6-2.7,3.7-2.8V11.1z M24.1,13c0,0.6-0.5,1.2-1.4,1.2
				c-0.8,0-1.4-0.3-1.6-0.9c0.6,0,0.9-0.4,0.9-0.9c0-0.6-0.7-1.1-1.5-1.2V11C22.5,11.1,24.1,11.9,24.1,13z"/>
			<path class="st2" d="M30.9,15.9c0-3.2,2.4-4.9,4.7-4.9v0.1c-1.1,0.1-1.4,1.1-1.4,4.7c0,2.8,1.2,4.3,2.9,4.3c1.1,0,1.9-0.3,2.8-1
				v0.1c-1,1.3-2.8,1.7-4.1,1.7C33.3,20.9,30.9,19.1,30.9,15.9z M35.2,15.1c1.7,0,2.4-0.5,2.4-2.1c0-0.9-0.4-1.8-1.2-1.9V11
				c2.5,0,3.7,1.8,3.7,3.2c0,0.3,0,0.7-0.1,1h-4.8V15.1z"/>
			<path class="st2" d="M41.4,18.5c0-1.7,1.5-2.6,3.7-2.6h2.1V16h-0.6c-1.4,0-2,0.9-2,2.1c0,1.1,0.3,1.9,1.2,1.9
				c0.5,0,1-0.3,1.4-0.7v0.1c-0.6,0.7-1.6,1.5-3,1.5C42.5,20.9,41.4,20,41.4,18.5z M42.2,13.1c0-1,0.9-2,3.5-2.1v0.1
				c-0.8,0.1-1.2,0.7-1.2,1.4c0,0.7,0.5,1.1,1.2,1.2c-0.3,0.5-1.1,0.9-1.8,0.9C42.8,14.6,42.2,13.9,42.2,13.1z M47.8,18.8v-5.8
				c0-0.9-0.4-1.7-1.3-1.8V11c3.2,0.1,4.4,1.3,4.4,3.8v4.6c0,0.6,0.2,0.8,0.5,0.8c0.3,0,0.6-0.3,0.9-0.9h0.1
				c-0.3,1.1-1.3,1.5-2.5,1.5C48.4,20.9,47.8,20.4,47.8,18.8z"/>
		</g>
		<g class="st1">
			<path class="st2" d="M56.7,18.5c-0.6,0-1.1,0.4-1.1,1c0,0.6,0.4,1.3,1.7,1.4v0.1c-2.5-0.1-3.9-0.8-3.9-1.9c0-0.9,0.8-1.4,1.6-1.4
				C55.8,17.6,56.4,18,56.7,18.5z M57.3,11.1c-0.7,0.1-1.4,0.5-1.4,1.3c0.1,2.2,6.2,2.6,6.2,5.6c0,1.9-1.6,2.8-4,2.9v-0.1
				c0.8-0.1,1.7-0.4,1.7-1.4c0-2-6.3-2.7-6.3-5.6c0-1.7,1.6-2.7,3.7-2.8V11.1z M61.9,13c0,0.6-0.5,1.2-1.4,1.2
				c-0.8,0-1.4-0.3-1.6-0.9c0.6,0,0.9-0.4,0.9-0.9c0-0.6-0.7-1.1-1.5-1.2V11C60.3,11.1,61.9,11.9,61.9,13z"/>
		</g>
		<g class="st1">
			<path class="st2" d="M63.8,12c-0.2-0.4-0.5-0.7-1.1-0.7v-0.1h5.3v0.1c-0.7,0-0.9,0.5-0.6,1.1l2.5,5.2l-1.6,3.1h-0.1L63.8,12z
				 M63,23.8c0-0.8,0.6-1.5,1.7-1.8c-0.1,0.2-0.1,0.3-0.1,0.5c0,0.7,0.4,1.3,1.1,1.3c0.7,0,1.2-0.7,1.9-1.9h0.1
				c-1.1,2-1.8,3.7-3.1,3.7C63.6,25.5,63,24.8,63,23.8z M70.8,15.8c0.3-0.6,0.5-1.4,0.5-2.5c0-1.1-0.6-2-1.9-2v-0.1h4.8v0.1
				c-0.6,0-0.9,0.2-1.2,0.9l-2,3.7L70.8,15.8z"/>
		</g>
		<g class="st1">
			<path class="st2" d="M82,12.4l2.5,5.2l-1.6,3.1h-0.1L78.3,12c-0.2-0.4-0.5-0.7-1.1-0.7v-0.1h5.3v0.1C81.9,11.3,81.6,11.8,82,12.4
				z M88.2,12.4l2.5,5.2l-1.6,3.1H89l-3-5.9L85.4,16l-0.1-0.2c0.3-0.6,0.4-1.6,0.2-2.1L84.6,12c-0.2-0.4-0.5-0.7-1.1-0.7v-0.1h5.3
				v0.1C88.2,11.3,87.9,11.8,88.2,12.4z M94.9,11.2v0.1c-0.6,0-0.9,0.2-1.2,0.9l-2,3.7l-0.1-0.2c0.3-0.6,0.5-1.4,0.5-2.5
				c0-1.1-0.6-2-1.9-2v-0.1H94.9z"/>
			<path class="st2" d="M95.1,11.7c1.8,0,3.2-0.2,4.6-0.7v8.7c0,0.5,0.3,1,1.4,1v0.1h-6v-0.1c1.1,0,1.4-0.5,1.4-1v-6.8
				c0-0.7-0.3-1-1.4-1V11.7z M96,8.1c0-1,0.8-1.7,1.9-1.7c1.1,0,1.9,0.7,1.9,1.7c0,1-0.8,1.7-1.9,1.7C96.9,9.8,96,9.2,96,8.1z"/>
			<path class="st2" d="M109.3,19.3v0.1c-0.6,0.9-1.8,1.5-3.3,1.5c-1.7,0-2.9-0.8-2.9-2.7V12h-1l0.2-0.3h0.8V9.6
				c1.2,0,2.3-0.4,3.1-1.1v3.1h2.6l-0.2,0.3h-2.4v6.3c0,1,0.4,1.9,1.3,1.9C108,20.3,108.7,19.9,109.3,19.3z"/>
			<path class="st2" d="M114.2,19.7c0,0.5,0.3,1,1.4,1v0.1h-6v-0.1c1.1,0,1.4-0.5,1.4-1V8.6c0-0.7-0.3-1-1.4-1V7.5
				c1.8,0,3.2-0.2,4.6-0.7V19.7z M120.9,13.7v6c0,0.5,0.3,1,1.4,1v0.1h-6v-0.1c1.1,0,1.4-0.5,1.4-1v-6c0-1.1-0.6-1.6-1.5-1.6
				c-0.5,0-1,0.2-1.5,0.6v-0.1c0.5-0.8,1.8-1.5,3.2-1.5C119.7,11,120.9,11.8,120.9,13.7z"/>
		</g>
		<g class="st1">
			<path class="st2" d="M133.1,20.8v0.1c-1.5,0-2.7-0.3-3.7-0.9l-0.6,0.9h-0.2v-4.7h0.2C129.4,18.4,130.8,20,133.1,20.8z M138.7,17
				c0,2.5-1.8,3.8-4.8,3.9v-0.1c1.1-0.2,2.1-0.8,2.1-1.9c0-3.3-7.3-3.6-7.3-7.5c0-2.3,1.9-3.6,4.4-3.8v0.1c-0.9,0.2-1.7,0.7-1.7,1.8
				C131.4,12.8,138.7,13.1,138.7,17z M133.9,7.7V7.6c1.4,0.1,2.6,0.4,3.4,1l0.7-1h0.2v4.3h-0.2C137.4,9.8,135.8,8.1,133.9,7.7z"/>
		</g>
		<g class="st1">
			<path class="st2" d="M147.4,19.3v0.1c-0.6,0.9-1.8,1.5-3.3,1.5c-1.7,0-2.9-0.8-2.9-2.7V12h-1l0.2-0.3h0.8V9.6
				c1.2,0,2.3-0.4,3.1-1.1v3.1h2.6l-0.2,0.3h-2.4v6.3c0,1,0.4,1.9,1.3,1.9C146.2,20.3,146.8,19.9,147.4,19.3z"/>
			<path class="st2" d="M148,18.5c0-1.7,1.5-2.6,3.7-2.6h2.1V16h-0.6c-1.4,0-2,0.9-2,2.1c0,1.1,0.3,1.9,1.2,1.9c0.5,0,1-0.3,1.4-0.7
				v0.1c-0.6,0.7-1.6,1.5-3,1.5C149.1,20.9,148,20,148,18.5z M148.8,13.1c0-1,0.9-2,3.5-2.1v0.1c-0.8,0.1-1.2,0.7-1.2,1.4
				c0,0.7,0.5,1.1,1.2,1.2c-0.3,0.5-1.1,0.9-1.8,0.9C149.4,14.6,148.8,13.9,148.8,13.1z M154.3,18.8v-5.8c0-0.9-0.4-1.7-1.3-1.8V11
				c3.2,0.1,4.4,1.3,4.4,3.8v4.6c0,0.6,0.2,0.8,0.5,0.8c0.3,0,0.6-0.3,0.9-0.9h0.1c-0.3,1.1-1.3,1.5-2.5,1.5
				C155,20.9,154.3,20.4,154.3,18.8z"/>
		</g>
		<g class="st1">
			<path class="st2" d="M164.2,19.7c0,0.5,0.3,1,1.4,1v0.1h-6v-0.1c1.1,0,1.4-0.5,1.4-1v-6.8c0-0.7-0.3-1-1.4-1v-0.1
				c1.8,0,3.2-0.2,4.6-0.7V19.7z M169.4,13.1c0,1.3-0.9,2.2-2,2.2c-0.5,0-0.9-0.1-1.1-0.4c0.4-0.2,0.7-0.6,0.7-1.3
				c0-0.6-0.4-1-1.1-1c-0.5,0-0.9,0.3-1.1,0.7v-0.2c0.4-1.2,1.3-2.1,2.5-2.1C168.7,11,169.4,11.9,169.4,13.1z"/>
		</g>
		<g class="st1">
			<path class="st2" d="M8.8,40.8c1.1,0,1.4-0.5,1.4-1V29c0-0.5-0.3-1-1.4-1v-0.1h6.1v0.1c-1.1,0-1.4,0.5-1.4,1v10.8
				c0,0.5,0.3,1,1.4,1v0.1H8.8V40.8z"/>
			<path class="st2" d="M16.2,40.8c1.1,0,1.4-0.5,1.4-1v-6.8c0-0.7-0.3-1-1.4-1v-0.1c1.8,0,3.2-0.2,4.6-0.7v8.7c0,0.5,0.3,1,1.4,1
				v0.1h-6V40.8z M22.9,40.8c1.1,0,1.4-0.5,1.4-1v-6c0-1.1-0.6-1.6-1.5-1.6c-0.5,0-1,0.2-1.5,0.6v-0.1c0.5-0.8,1.8-1.5,3.2-1.5
				c1.7,0,2.9,0.8,2.9,2.7v6c0,0.5,0.3,1,1.4,1v0.1h-6V40.8z"/>
			<path class="st2" d="M33.3,38.7c-0.6,0-1.1,0.4-1.1,1c0,0.6,0.4,1.3,1.7,1.4v0.1c-2.5-0.1-3.9-0.8-3.9-1.9c0-0.9,0.8-1.4,1.6-1.4
				C32.3,37.8,33,38.2,33.3,38.7z M33.9,31.3c-0.7,0.1-1.4,0.5-1.4,1.3c0.1,2.2,6.2,2.6,6.2,5.6c0,1.9-1.6,2.8-4,2.9V41
				c0.8-0.1,1.7-0.4,1.7-1.4c0-2-6.3-2.7-6.3-5.6c0-1.7,1.6-2.7,3.7-2.8V31.3z M38.4,33.2c0,0.6-0.5,1.2-1.4,1.2
				c-0.8,0-1.4-0.3-1.6-0.9c0.6,0,0.9-0.4,0.9-0.9c0-0.6-0.7-1.1-1.5-1.2v-0.1C36.9,31.3,38.4,32.1,38.4,33.2z"/>
			<path class="st2" d="M44.4,38.4c0,1.1,0.4,1.6,1.3,1.6c0.5,0,0.9-0.2,1.3-0.6v0.1c-0.4,0.8-1.4,1.5-3,1.5c-1.7,0-2.8-0.8-2.8-2.7
				v-5.4c0-0.7-0.3-1-1.4-1v-0.1c1.8,0,3.2-0.2,4.6-0.7V38.4z M50.8,39.6c0,0.6,0.2,0.8,0.5,0.8c0.3,0,0.6-0.3,0.9-0.9h0.1
				c-0.3,1.1-1.3,1.5-2.6,1.5c-1.3,0-2.1-0.8-2.1-1.9v-6.2c0-0.7-0.3-1-1.4-1v-0.1c1.7,0,2.9-0.2,4.5-0.7V39.6z"/>
		</g>
		<g class="st1">
			<path class="st2" d="M57.7,39.8c0,0.5,0.3,1,1.4,1v0.1h-6v-0.1c1.1,0,1.4-0.5,1.4-1v-6.8c0-0.7-0.3-1-1.4-1v-0.1
				c1.8,0,3.2-0.2,4.6-0.7V39.8z M62.8,33.3c0,1.3-0.9,2.2-2,2.2c-0.5,0-0.9-0.1-1.1-0.4c0.4-0.2,0.7-0.6,0.7-1.3c0-0.6-0.4-1-1.1-1
				c-0.5,0-0.9,0.3-1.1,0.7v-0.2c0.4-1.2,1.3-2.1,2.5-2.1C62.1,31.2,62.8,32.1,62.8,33.3z"/>
		</g>
		<g class="st1">
			<path class="st2" d="M63.6,38.7c0-1.7,1.5-2.6,3.7-2.6h2.1v0.1h-0.6c-1.4,0-2,0.9-2,2.1c0,1.1,0.3,1.9,1.2,1.9
				c0.5,0,1-0.3,1.4-0.7v0.1c-0.6,0.7-1.6,1.5-3,1.5C64.7,41.1,63.6,40.2,63.6,38.7z M64.4,33.3c0-1,0.9-2,3.5-2.1v0.1
				c-0.8,0.1-1.2,0.7-1.2,1.4c0,0.7,0.5,1.1,1.2,1.2c-0.3,0.5-1.1,0.9-1.8,0.9C65,34.8,64.4,34.1,64.4,33.3z M69.9,39v-5.8
				c0-0.9-0.4-1.7-1.3-1.8v-0.1c3.2,0.1,4.4,1.3,4.4,3.8v4.6c0,0.6,0.2,0.8,0.5,0.8c0.3,0,0.6-0.3,0.9-0.9h0.1
				c-0.3,1.1-1.3,1.5-2.5,1.5C70.6,41.1,69.9,40.6,69.9,39z"/>
			<path class="st2" d="M75.2,40.8c1.1,0,1.4-0.5,1.4-1v-6.8c0-0.7-0.3-1-1.4-1v-0.1c1.8,0,3.2-0.2,4.6-0.7v8.7c0,0.5,0.3,1,1.4,1
				v0.1h-6V40.8z M82,40.8c1.1,0,1.4-0.5,1.4-1v-6c0-1.1-0.6-1.6-1.5-1.6c-0.5,0-1,0.2-1.5,0.6v-0.1c0.5-0.8,1.8-1.5,3.2-1.5
				c1.7,0,2.9,0.8,2.9,2.7v6c0,0.5,0.3,1,1.4,1v0.1h-6V40.8z"/>
			<path class="st2" d="M93.9,31.3c-1.1,0.1-1.6,1.1-1.6,4.7c0,2.8,1.4,4.3,3.1,4.3c1.1,0,1.9-0.3,2.8-1v0.1c-1,1.3-2.8,1.7-4,1.7
				c-2.4,0-5.1-1.8-5.1-5c0-3.2,2.7-4.9,4.9-4.9V31.3z M98.1,33.3c0,1-0.7,1.8-1.9,1.8c-0.9,0-1.5-0.6-1.7-1.2
				c0.5-0.2,0.9-0.9,0.9-1.4c0-0.4-0.1-1.1-0.8-1.3v-0.1C97.2,31.2,98.1,32.3,98.1,33.3z"/>
			<path class="st2" d="M99.6,36.1c0-3.2,2.4-4.9,4.7-4.9v0.1c-1.1,0.1-1.4,1.1-1.4,4.7c0,2.8,1.2,4.3,2.9,4.3c1.1,0,1.9-0.3,2.8-1
				v0.1c-1,1.3-2.8,1.7-4.1,1.7C102,41.1,99.6,39.3,99.6,36.1z M103.9,35.3c1.7,0,2.4-0.5,2.4-2.1c0-0.9-0.4-1.8-1.2-1.9v-0.1
				c2.5,0,3.7,1.8,3.7,3.2c0,0.3,0,0.7-0.1,1h-4.8V35.3z"/>
			<path class="st2" d="M115.2,40.9v-0.1c1.1,0,1.4-0.4,1.4-1V29c0-0.5-0.3-1-1.4-1v-0.1h4.7v13H115.2z M125.9,27.9v3.5h-0.2
				c-0.8-2.4-2-3.2-4.9-3.4v-0.1H125.9z M120.8,34.3v-0.1l1.1-0.1c1.1-0.1,1.9-0.6,2.5-1.6h0.2V36h-0.2c-0.6-1.1-1.4-1.5-2.5-1.6
				L120.8,34.3z M120.8,40.8c2.9-0.2,4.3-1,5.3-3.4h0.2v3.5h-5.4V40.8z"/>
			<path class="st2" d="M127.7,40.8c1.1,0,1.4-0.5,1.4-1v-6.8c0-0.7-0.3-1-1.4-1v-0.1c1.8,0,3.2-0.2,4.6-0.7v8.7c0,0.5,0.3,1,1.4,1
				v0.1h-6V40.8z M134.4,40.8c1.1,0,1.4-0.5,1.4-1v-6c0-1.1-0.6-1.6-1.5-1.6c-0.5,0-1,0.2-1.5,0.6v-0.1c0.5-0.8,1.8-1.5,3.2-1.5
				c1.7,0,2.9,0.8,2.9,2.7v6c0,0.5,0.3,1,1.4,1v0.1h-6V40.8z"/>
			<path class="st2" d="M148.5,39.5v0.1c-0.6,0.9-1.8,1.5-3.3,1.5c-1.7,0-2.9-0.8-2.9-2.7v-6.3h-1l0.2-0.3h0.8v-2.1
				c1.2,0,2.3-0.4,3.1-1.1v3.1h2.6l-0.2,0.3h-2.4v6.3c0,1,0.4,1.9,1.3,1.9C147.2,40.4,147.9,40.1,148.5,39.5z"/>
			<path class="st2" d="M153.5,39.8c0,0.5,0.3,1,1.4,1v0.1h-6v-0.1c1.1,0,1.4-0.5,1.4-1V28.8c0-0.7-0.3-1-1.4-1v-0.1
				c1.8,0,3.2-0.2,4.6-0.7V39.8z M160.1,33.9v6c0,0.5,0.3,1,1.4,1v0.1h-6v-0.1c1.1,0,1.4-0.5,1.4-1v-6c0-1.1-0.6-1.6-1.5-1.6
				c-0.5,0-1,0.2-1.5,0.6v-0.1c0.5-0.8,1.8-1.5,3.2-1.5C158.9,31.2,160.1,32,160.1,33.9z"/>
			<path class="st2" d="M166.6,38.4c0,1.1,0.4,1.6,1.3,1.6c0.5,0,0.9-0.2,1.3-0.6v0.1c-0.4,0.8-1.4,1.5-3,1.5
				c-1.7,0-2.8-0.8-2.8-2.7v-5.4c0-0.7-0.3-1-1.4-1v-0.1c1.8,0,3.2-0.2,4.6-0.7V38.4z M173,39.6c0,0.6,0.2,0.8,0.5,0.8
				c0.3,0,0.6-0.3,0.9-0.9h0.1c-0.3,1.1-1.3,1.5-2.6,1.5c-1.3,0-2.1-0.8-2.1-1.9v-6.2c0-0.7-0.3-1-1.4-1v-0.1c1.7,0,2.9-0.2,4.5-0.7
				V39.6z"/>
			<path class="st2" d="M179,38.7c-0.6,0-1.1,0.4-1.1,1c0,0.6,0.4,1.3,1.7,1.4v0.1c-2.5-0.1-3.9-0.8-3.9-1.9c0-0.9,0.8-1.4,1.6-1.4
				C178.1,37.8,178.7,38.2,179,38.7z M179.6,31.3c-0.7,0.1-1.4,0.5-1.4,1.3c0.1,2.2,6.2,2.6,6.2,5.6c0,1.9-1.6,2.8-4,2.9V41
				c0.8-0.1,1.7-0.4,1.7-1.4c0-2-6.3-2.7-6.3-5.6c0-1.7,1.6-2.7,3.7-2.8V31.3z M184.1,33.2c0,0.6-0.5,1.2-1.4,1.2
				c-0.8,0-1.4-0.3-1.6-0.9c0.6,0,0.9-0.4,0.9-0.9c0-0.6-0.7-1.1-1.5-1.2v-0.1C182.6,31.3,184.1,32.1,184.1,33.2z"/>
			<path class="st2" d="M185.8,31.9c1.8,0,3.2-0.2,4.6-0.7v8.7c0,0.5,0.3,1,1.4,1v0.1h-6v-0.1c1.1,0,1.4-0.5,1.4-1V33
				c0-0.7-0.3-1-1.4-1V31.9z M186.8,28.3c0-1,0.8-1.7,1.9-1.7s1.9,0.7,1.9,1.7c0,1-0.8,1.7-1.9,1.7S186.8,29.3,186.8,28.3z"/>
			<path class="st2" d="M192.7,38.7c0-1.7,1.5-2.6,3.7-2.6h2.1v0.1h-0.6c-1.4,0-2,0.9-2,2.1c0,1.1,0.3,1.9,1.2,1.9
				c0.5,0,1-0.3,1.4-0.7v0.1c-0.6,0.7-1.6,1.5-3,1.5C193.8,41.1,192.7,40.2,192.7,38.7z M193.5,33.3c0-1,0.9-2,3.5-2.1v0.1
				c-0.8,0.1-1.2,0.7-1.2,1.4c0,0.7,0.5,1.1,1.2,1.2c-0.3,0.5-1.1,0.9-1.8,0.9C194.1,34.8,193.5,34.1,193.5,33.3z M199.1,39v-5.8
				c0-0.9-0.4-1.7-1.3-1.8v-0.1c3.2,0.1,4.4,1.3,4.4,3.8v4.6c0,0.6,0.2,0.8,0.5,0.8c0.3,0,0.6-0.3,0.9-0.9h0.1
				c-0.3,1.1-1.3,1.5-2.5,1.5C199.7,41.1,199.1,40.6,199.1,39z"/>
			<path class="st2" d="M208,38.7c-0.6,0-1.1,0.4-1.1,1c0,0.6,0.4,1.3,1.7,1.4v0.1c-2.5-0.1-3.9-0.8-3.9-1.9c0-0.9,0.8-1.4,1.6-1.4
				C207.1,37.8,207.7,38.2,208,38.7z M208.6,31.3c-0.7,0.1-1.4,0.5-1.4,1.3c0.1,2.2,6.2,2.6,6.2,5.6c0,1.9-1.6,2.8-4,2.9V41
				c0.8-0.1,1.7-0.4,1.7-1.4c0-2-6.3-2.7-6.3-5.6c0-1.7,1.6-2.7,3.7-2.8V31.3z M213.2,33.2c0,0.6-0.5,1.2-1.4,1.2
				c-0.8,0-1.4-0.3-1.6-0.9c0.6,0,0.9-0.4,0.9-0.9c0-0.6-0.7-1.1-1.5-1.2v-0.1C211.6,31.3,213.2,32.1,213.2,33.2z"/>
			<path class="st2" d="M222.2,39.5v0.1c-0.6,0.9-1.8,1.5-3.3,1.5c-1.7,0-2.9-0.8-2.9-2.7v-6.3h-1l0.2-0.3h0.8v-2.1
				c1.2,0,2.3-0.4,3.1-1.1v3.1h2.6l-0.2,0.3h-2.4v6.3c0,1,0.4,1.9,1.3,1.9C220.9,40.4,221.6,40.1,222.2,39.5z"/>
		</g>
	</g>
</g>
</svg>
