<?xml version="1.0" encoding="utf-8"?>
<!-- Generator: Adobe Illustrator 24.0.3, SVG Export Plug-In . SVG Version: 6.00 Build 0)  -->
<svg version="1.1" id="Layer_1" xmlns="http://www.w3.org/2000/svg" xmlns:xlink="http://www.w3.org/1999/xlink" x="0px" y="0px"
	 viewBox="0 0 320 50" style="enable-background:new 0 0 320 50;" xml:space="preserve">
<style type="text/css">
	.st0{clip-path:url(#SVGID_2_);}
	.st1{enable-background:new    ;}
	.st2{fill:#FFFFFF;}
</style>
<title>Artboard 1</title>
<g>
	<defs>
		<rect id="SVGID_1_" y="0" width="320" height="50"/>
	</defs>
	<clipPath id="SVGID_2_">
		<use xlink:href="#SVGID_1_"  style="overflow:visible;"/>
	</clipPath>
	<g class="st0">
		<g class="st1">
			<path class="st2" d="M20.4,18.5l0.1,0.2c-1,1.6-2.8,2.3-4.6,2.3c-3.1,0-7-2.2-7-6.7c0-4.8,3.8-6.6,6.5-6.7v0.1
				c-1.3,0.3-2.8,1.5-2.8,6.5c0,4.9,2,6,4.1,6C18.5,20.2,19.7,19.3,20.4,18.5z M20.5,7.6v4.6h-0.2c-0.7-2.5-2.2-4-4-4.5V7.6
				C18,7.6,19,7.9,19.8,8.4l0.6-0.9H20.5z"/>
			<path class="st2" d="M26.3,19.7c0,0.5,0.3,1,1.4,1v0.1h-6v-0.1c1.1,0,1.4-0.5,1.4-1V8.6c0-0.7-0.3-1-1.4-1V7.5
				c1.8,0,3.2-0.2,4.6-0.7V19.7z M33,13.7v6c0,0.5,0.3,1,1.4,1v0.1h-6v-0.1c1.1,0,1.4-0.5,1.4-1v-6c0-1.1-0.6-1.6-1.5-1.6
				c-0.5,0-1,0.2-1.5,0.6v-0.1c0.5-0.8,1.8-1.5,3.2-1.5C31.8,11,33,11.8,33,13.7z"/>
			<path class="st2" d="M35.3,18.5c0-1.7,1.5-2.6,3.7-2.6H41V16h-0.6c-1.4,0-2,0.9-2,2.1c0,1.1,0.3,1.9,1.2,1.9c0.5,0,1-0.3,1.4-0.7
				v0.1c-0.6,0.7-1.6,1.5-3,1.5C36.3,20.9,35.3,20,35.3,18.5z M36,13.1c0-1,0.9-2,3.5-2.1v0.1c-0.8,0.1-1.2,0.7-1.2,1.4
				c0,0.7,0.5,1.1,1.2,1.2c-0.3,0.5-1.1,0.9-1.8,0.9C36.7,14.6,36,13.9,36,13.1z M41.6,18.8v-5.8c0-0.9-0.4-1.7-1.3-1.8V11
				c3.2,0.1,4.4,1.3,4.4,3.8v4.6c0,0.6,0.2,0.8,0.5,0.8c0.3,0,0.6-0.3,0.9-0.9h0.1c-0.3,1.1-1.3,1.5-2.5,1.5
				C42.3,20.9,41.6,20.4,41.6,18.8z"/>
			<path class="st2" d="M46.9,20.6c1.1,0,1.4-0.5,1.4-1v-6.8c0-0.7-0.3-1-1.4-1v-0.1c1.8,0,3.2-0.2,4.6-0.7v8.7c0,0.5,0.3,1,1.4,1
				v0.1h-6V20.6z M53.6,20.6c1.1,0,1.4-0.5,1.4-1v-6c0-1.1-0.6-1.6-1.5-1.6c-0.5,0-1,0.2-1.5,0.6v-0.1c0.5-0.8,1.8-1.5,3.2-1.5
				c1.7,0,2.9,0.8,2.9,2.7v6c0,0.5,0.3,1,1.4,1v0.1h-6V20.6z"/>
			<path class="st2" d="M60.7,14.5c0-2.5,2.3-3.4,4.3-3.5v0.1c-0.8,0.1-1.2,1.1-1.2,3.3c0,2.3,0.4,3.2,1.2,3.3v0.1
				C63.1,17.8,60.7,16.9,60.7,14.5z M65.8,25.4c1.9-0.2,2.5-1.3,2.5-1.9c0-2.7-7.5-0.3-7.5-3.7c0-0.8,0.4-1.4,1.3-1.9l0.1,0.1
				C62.1,18,62,18.1,62,18.3c0,2.1,8.7-0.3,8.7,3.8c0,2-1.7,3.2-4.9,3.4V25.4z M60.9,23.8c0-1.1,1.4-1.5,2.9-1.5
				C63.4,22.5,63,23,63,23.7c0,0.9,1,1.5,2.1,1.7v0.1C63,25.5,60.9,25.1,60.9,23.8z M65.8,17.7c0.9-0.1,1.3-1,1.3-3.3
				c0-2.2-0.4-3.2-1.3-3.3V11c2,0,4.4,1,4.4,3.5c0,2.5-2.4,3.4-4.4,3.4V17.7z M66.8,10.7c0.3-1,1.2-2.3,2.5-2.3c1,0,1.6,0.5,1.6,1.5
				c0,0.9-0.8,1.5-1.5,1.5c0-0.8-0.4-1.3-1-1.3C67.8,10,67.2,10.4,66.8,10.7L66.8,10.7z"/>
			<path class="st2" d="M71.5,11.7c1.8,0,3.2-0.2,4.6-0.7v8.7c0,0.5,0.3,1,1.4,1v0.1h-6v-0.1c1.1,0,1.4-0.5,1.4-1v-6.8
				c0-0.7-0.3-1-1.4-1V11.7z M72.5,8.1c0-1,0.8-1.7,1.9-1.7c1.1,0,1.9,0.7,1.9,1.7c0,1-0.8,1.7-1.9,1.7C73.3,9.8,72.5,9.2,72.5,8.1z
				"/>
			<path class="st2" d="M78.4,20.6c1.1,0,1.4-0.5,1.4-1v-6.8c0-0.7-0.3-1-1.4-1v-0.1c1.8,0,3.2-0.2,4.6-0.7v8.7c0,0.5,0.3,1,1.4,1
				v0.1h-6V20.6z M85.1,20.6c1.1,0,1.4-0.5,1.4-1v-6c0-1.1-0.6-1.6-1.5-1.6c-0.5,0-1,0.2-1.5,0.6v-0.1c0.5-0.8,1.8-1.5,3.2-1.5
				c1.7,0,2.9,0.8,2.9,2.7v6c0,0.5,0.3,1,1.4,1v0.1h-6V20.6z"/>
			<path class="st2" d="M92.2,14.5c0-2.5,2.3-3.4,4.3-3.5v0.1c-0.8,0.1-1.2,1.1-1.2,3.3c0,2.3,0.4,3.2,1.2,3.3v0.1
				C94.6,17.8,92.2,16.9,92.2,14.5z M97.3,25.4c1.9-0.2,2.5-1.3,2.5-1.9c0-2.7-7.5-0.3-7.5-3.7c0-0.8,0.4-1.4,1.3-1.9l0.1,0.1
				c-0.1,0.1-0.2,0.2-0.2,0.4c0,2.1,8.7-0.3,8.7,3.8c0,2-1.7,3.2-4.9,3.4V25.4z M92.4,23.8c0-1.1,1.4-1.5,2.9-1.5
				c-0.3,0.2-0.8,0.7-0.8,1.4c0,0.9,1,1.5,2.1,1.7v0.1C94.5,25.5,92.4,25.1,92.4,23.8z M97.3,17.7c0.9-0.1,1.3-1,1.3-3.3
				c0-2.2-0.4-3.2-1.3-3.3V11c2,0,4.4,1,4.4,3.5c0,2.5-2.4,3.4-4.4,3.4V17.7z M98.3,10.7c0.3-1,1.2-2.3,2.5-2.3c1,0,1.6,0.5,1.6,1.5
				c0,0.9-0.8,1.5-1.5,1.5c0-0.8-0.4-1.3-1-1.3C99.3,10,98.7,10.4,98.3,10.7L98.3,10.7z"/>
		</g>
		<g class="st1">
			<path class="st2" d="M107.6,12c-0.2-0.4-0.5-0.7-1.1-0.7v-0.1h5.3v0.1c-0.7,0-0.9,0.5-0.6,1.1l2.5,5.2l-1.6,3.1h-0.1L107.6,12z
				 M114.6,15.8c0.3-0.6,0.5-1.4,0.5-2.5c0-1.1-0.6-2-1.9-2v-0.1h4.8v0.1c-0.6,0-0.9,0.2-1.2,0.9l-2,3.7L114.6,15.8z"/>
		</g>
		<g class="st1">
			<path class="st2" d="M118.1,15.9c0-3.2,2.4-4.9,4.7-4.9v0.1c-1.1,0.1-1.4,1.1-1.4,4.7c0,2.8,1.2,4.3,2.9,4.3c1.1,0,1.9-0.3,2.8-1
				v0.1c-1,1.3-2.8,1.7-4.1,1.7C120.6,20.9,118.1,19.1,118.1,15.9z M122.4,15.1c1.7,0,2.4-0.5,2.4-2.1c0-0.9-0.4-1.8-1.2-1.9V11
				c2.5,0,3.7,1.8,3.7,3.2c0,0.3,0,0.7-0.1,1h-4.8V15.1z"/>
			<path class="st2" d="M133,19.7c0,0.5,0.3,1,1.4,1v0.1h-6v-0.1c1.1,0,1.4-0.5,1.4-1V8.6c0-0.7-0.3-1-1.4-1V7.5
				c1.8,0,3.2-0.2,4.6-0.7V19.7z M139.7,13.7v6c0,0.5,0.3,1,1.4,1v0.1h-6v-0.1c1.1,0,1.4-0.5,1.4-1v-6c0-1.1-0.6-1.6-1.5-1.6
				c-0.5,0-1,0.2-1.5,0.6v-0.1c0.5-0.8,1.8-1.5,3.2-1.5C138.5,11,139.7,11.8,139.7,13.7z"/>
			<path class="st2" d="M141.9,11.7c1.8,0,3.2-0.2,4.6-0.7v8.7c0,0.5,0.3,1,1.4,1v0.1h-6v-0.1c1.1,0,1.4-0.5,1.4-1v-6.8
				c0-0.7-0.3-1-1.4-1V11.7z M142.9,8.1c0-1,0.8-1.7,1.9-1.7c1.1,0,1.9,0.7,1.9,1.7c0,1-0.8,1.7-1.9,1.7
				C143.7,9.8,142.9,9.2,142.9,8.1z"/>
			<path class="st2" d="M153.9,11.1c-1.1,0.1-1.6,1.1-1.6,4.7c0,2.8,1.4,4.3,3.1,4.3c1.1,0,1.9-0.3,2.8-1v0.1c-1,1.3-2.8,1.7-4,1.7
				c-2.4,0-5.1-1.8-5.1-5c0-3.2,2.7-4.9,4.9-4.9V11.1z M158.2,13.2c0,1-0.7,1.8-1.9,1.8c-0.9,0-1.5-0.6-1.7-1.2
				c0.5-0.2,0.9-0.9,0.9-1.4c0-0.4-0.1-1.1-0.8-1.3V11C157.2,11,158.2,12.1,158.2,13.2z"/>
			<path class="st2" d="M159.2,7.5c1.8,0,3.2-0.2,4.6-0.7v13c0,0.5,0.3,1,1.4,1v0.1h-6v-0.1c1.1,0,1.4-0.5,1.4-1V8.6
				c0-0.7-0.3-1-1.4-1V7.5z"/>
			<path class="st2" d="M166.3,15.9c0-3.2,2.4-4.9,4.7-4.9v0.1c-1.1,0.1-1.4,1.1-1.4,4.7c0,2.8,1.2,4.3,2.9,4.3c1.1,0,1.9-0.3,2.8-1
				v0.1c-1,1.3-2.8,1.7-4.1,1.7C168.8,20.9,166.3,19.1,166.3,15.9z M170.6,15.1c1.7,0,2.4-0.5,2.4-2.1c0-0.9-0.4-1.8-1.2-1.9V11
				c2.5,0,3.7,1.8,3.7,3.2c0,0.3,0,0.7-0.1,1h-4.8V15.1z"/>
		</g>
		<g class="st1">
			<path class="st2" d="M8.4,31.9c1.8,0,3.2-0.2,4.6-0.7v8.7c0,0.5,0.3,1,1.4,1v0.1h-6v-0.1c1.1,0,1.4-0.5,1.4-1V33
				c0-0.7-0.3-1-1.4-1V31.9z M9.4,28.3c0-1,0.8-1.7,1.9-1.7c1.1,0,1.9,0.7,1.9,1.7c0,1-0.8,1.7-1.9,1.7C10.2,30,9.4,29.3,9.4,28.3z"
				/>
			<path class="st2" d="M15.2,40.8c1.1,0,1.4-0.5,1.4-1v-6.8c0-0.7-0.3-1-1.4-1v-0.1c1.8,0,3.2-0.2,4.6-0.7v8.7c0,0.5,0.3,1,1.4,1
				v0.1h-6V40.8z M22,40.8c1.1,0,1.4-0.5,1.4-1v-6c0-1.1-0.6-1.6-1.5-1.6c-0.5,0-1,0.2-1.5,0.6v-0.1c0.5-0.8,1.8-1.5,3.2-1.5
				c1.7,0,2.9,0.8,2.9,2.7v6c0,0.5,0.3,1,1.4,1v0.1h-6V40.8z"/>
			<path class="st2" d="M32.3,38.7c-0.6,0-1.1,0.4-1.1,1c0,0.6,0.4,1.3,1.7,1.4v0.1C30.4,41,29,40.3,29,39.2c0-0.9,0.8-1.4,1.6-1.4
				C31.4,37.8,32,38.2,32.3,38.7z M33,31.3c-0.7,0.1-1.4,0.5-1.4,1.3c0.1,2.2,6.2,2.6,6.2,5.6c0,1.9-1.6,2.8-4,2.9V41
				c0.8-0.1,1.7-0.4,1.7-1.4c0-2-6.3-2.7-6.3-5.6c0-1.7,1.6-2.7,3.7-2.8V31.3z M37.5,33.2c0,0.6-0.5,1.2-1.4,1.2
				c-0.8,0-1.4-0.3-1.6-0.9c0.6,0,0.9-0.4,0.9-0.9c0-0.6-0.7-1.1-1.5-1.2v-0.1C36,31.3,37.5,32.1,37.5,33.2z"/>
			<path class="st2" d="M43.5,38.4c0,1.1,0.4,1.6,1.3,1.6c0.5,0,0.9-0.2,1.3-0.6v0.1c-0.4,0.8-1.4,1.5-3,1.5c-1.7,0-2.8-0.8-2.8-2.7
				v-5.4c0-0.7-0.3-1-1.4-1v-0.1c1.8,0,3.2-0.2,4.6-0.7V38.4z M49.8,39.6c0,0.6,0.2,0.8,0.5,0.8c0.3,0,0.6-0.3,0.9-0.9h0.1
				c-0.3,1.1-1.3,1.5-2.6,1.5c-1.3,0-2.1-0.8-2.1-1.9v-6.2c0-0.7-0.3-1-1.4-1v-0.1c1.7,0,2.9-0.2,4.5-0.7V39.6z"/>
		</g>
		<g class="st1">
			<path class="st2" d="M56.7,39.8c0,0.5,0.3,1,1.4,1v0.1h-6v-0.1c1.1,0,1.4-0.5,1.4-1v-6.8c0-0.7-0.3-1-1.4-1v-0.1
				c1.8,0,3.2-0.2,4.6-0.7V39.8z M61.9,33.3c0,1.3-0.9,2.2-2,2.2c-0.5,0-0.9-0.1-1.1-0.4c0.4-0.2,0.7-0.6,0.7-1.3c0-0.6-0.4-1-1.1-1
				c-0.5,0-0.9,0.3-1.1,0.7v-0.2c0.4-1.2,1.3-2.1,2.5-2.1C61.2,31.2,61.9,32.1,61.9,33.3z"/>
		</g>
		<g class="st1">
			<path class="st2" d="M62.7,38.7c0-1.7,1.5-2.6,3.7-2.6h2.1v0.1h-0.6c-1.4,0-2,0.9-2,2.1c0,1.1,0.3,1.9,1.2,1.9
				c0.5,0,1-0.3,1.4-0.7v0.1c-0.6,0.7-1.6,1.5-3,1.5C63.8,41.1,62.7,40.2,62.7,38.7z M63.5,33.3c0-1,0.9-2,3.5-2.1v0.1
				c-0.8,0.1-1.2,0.7-1.2,1.4c0,0.7,0.5,1.1,1.2,1.2c-0.3,0.5-1.1,0.9-1.8,0.9C64.1,34.8,63.5,34.1,63.5,33.3z M69,39v-5.8
				c0-0.9-0.4-1.7-1.3-1.8v-0.1c3.2,0.1,4.4,1.3,4.4,3.8v4.6c0,0.6,0.2,0.8,0.5,0.8c0.3,0,0.6-0.3,0.9-0.9h0.1
				c-0.3,1.1-1.3,1.5-2.5,1.5C69.7,41.1,69,40.6,69,39z"/>
			<path class="st2" d="M74.3,40.8c1.1,0,1.4-0.5,1.4-1v-6.8c0-0.7-0.3-1-1.4-1v-0.1c1.8,0,3.2-0.2,4.6-0.7v8.7c0,0.5,0.3,1,1.4,1
				v0.1h-6V40.8z M81,40.8c1.1,0,1.4-0.5,1.4-1v-6c0-1.1-0.6-1.6-1.5-1.6c-0.5,0-1,0.2-1.5,0.6v-0.1c0.5-0.8,1.8-1.5,3.2-1.5
				c1.7,0,2.9,0.8,2.9,2.7v6c0,0.5,0.3,1,1.4,1v0.1h-6V40.8z"/>
			<path class="st2" d="M93,31.3c-1.1,0.1-1.6,1.1-1.6,4.7c0,2.8,1.4,4.3,3.1,4.3c1.1,0,1.9-0.3,2.8-1v0.1c-1,1.3-2.8,1.7-4,1.7
				c-2.4,0-5.1-1.8-5.1-5c0-3.2,2.7-4.9,4.9-4.9V31.3z M97.2,33.3c0,1-0.7,1.8-1.9,1.8c-0.9,0-1.5-0.6-1.7-1.2
				c0.5-0.2,0.9-0.9,0.9-1.4c0-0.4-0.1-1.1-0.8-1.3v-0.1C96.2,31.2,97.2,32.3,97.2,33.3z"/>
			<path class="st2" d="M98.6,36.1c0-3.2,2.4-4.9,4.7-4.9v0.1c-1.1,0.1-1.4,1.1-1.4,4.7c0,2.8,1.2,4.3,2.9,4.3c1.1,0,1.9-0.3,2.8-1
				v0.1c-1,1.3-2.8,1.7-4.1,1.7C101.1,41.1,98.6,39.3,98.6,36.1z M102.9,35.3c1.7,0,2.4-0.5,2.4-2.1c0-0.9-0.4-1.8-1.2-1.9v-0.1
				c2.5,0,3.7,1.8,3.7,3.2c0,0.3,0,0.7-0.1,1h-4.8V35.3z"/>
		</g>
	</g>
</g>
</svg>
