<svg id="Layer_1" data-name="Layer 1" xmlns="http://www.w3.org/2000/svg" xmlns:xlink="http://www.w3.org/1999/xlink" viewBox="0 0 320 50"><defs><style>.cls-1{fill:none;}.cls-2{clip-path:url(#clip-path);}.cls-3{fill:#fff;}</style><clipPath id="clip-path"><rect class="cls-1" width="320" height="50"/></clipPath></defs><title>Artboard 1</title><g class="cls-2"><path class="cls-3" d="M18.37,18.34l.06.12a4.39,4.39,0,0,1-3.86,1.94,5.68,5.68,0,0,1-5.85-5.59A5.4,5.4,0,0,1,14.19,9.2v.09c-1.12.24-2.34,1.3-2.34,5.41s1.65,5.06,3.46,5.06A4,4,0,0,0,18.37,18.34ZM18.5,9.2v3.88h-.13C17.74,11,16.56,9.72,15,9.29V9.2a5.52,5.52,0,0,1,2.9.73l.48-.73Z"/><path class="cls-3" d="M23.33,19.33c0,.4.24.81,1.2.81v.1H19.48v-.1c1,0,1.2-.41,1.2-.81V10c0-.57-.27-.84-1.18-.84V9.1a9.91,9.91,0,0,0,3.83-.62Zm5.6-5v5c0,.4.24.81,1.2.81v.1h-5v-.1c.95,0,1.19-.41,1.19-.81v-5A1.19,1.19,0,0,0,25,13a1.73,1.73,0,0,0-1.22.5v-.1a3.3,3.3,0,0,1,2.66-1.29C27.9,12.08,28.93,12.75,28.93,14.33Z"/><path class="cls-3" d="M30.83,18.35c0-1.39,1.28-2.18,3.07-2.18h1.73v.1h-.48A1.59,1.59,0,0,0,33.45,18c0,.88.26,1.55,1,1.55A1.75,1.75,0,0,0,35.63,19v.09a3.41,3.41,0,0,1-2.55,1.3A2,2,0,0,1,30.83,18.35Zm.64-4.53c0-.82.73-1.65,2.91-1.74v.09a1.17,1.17,0,0,0-1,1.17c0,.58.4.93,1,1a1.8,1.8,0,0,1-1.54.77A1.29,1.29,0,0,1,31.47,13.82Zm4.64,4.77v-4.9c0-.78-.31-1.41-1.09-1.52v-.09c2.66.09,3.71,1.1,3.71,3.2v3.89c0,.46.16.65.45.65s.51-.24.77-.72h.1A2,2,0,0,1,38,20.4C36.68,20.4,36.11,20,36.11,18.59Z"/><path class="cls-3" d="M40.54,20.14c1,0,1.2-.41,1.2-.81V13.65c0-.58-.27-.85-1.19-.85v-.1a9.91,9.91,0,0,0,3.83-.62v7.25c0,.4.24.81,1.2.81v.1h-5Zm5.63,0c.95,0,1.19-.41,1.19-.81v-5A1.19,1.19,0,0,0,46.09,13a1.69,1.69,0,0,0-1.21.5v-.1a3.26,3.26,0,0,1,2.65-1.29c1.44,0,2.47.67,2.47,2.25v5c0,.4.24.81,1.2.81v.1h-5Z"/><path class="cls-3" d="M52.14,15c0-2.08,2-2.86,3.58-2.89v.09c-.68.07-1,.9-1,2.76s.32,2.72,1,2.78v.1C54.11,17.81,52.14,17,52.14,15Zm4.26,9.18c1.6-.2,2.11-1.06,2.11-1.64,0-2.22-6.24-.24-6.24-3.1a1.86,1.86,0,0,1,1.07-1.63l0,.08a.36.36,0,0,0-.15.3c0,1.79,7.3-.29,7.3,3.2,0,1.65-1.42,2.72-4.14,2.88ZM52.27,22.8c0-.94,1.17-1.23,2.43-1.23A1.34,1.34,0,0,0,54,22.7c0,.74.83,1.3,1.75,1.45v.09C54,24.21,52.27,23.86,52.27,22.8Zm4.13-5.09c.78-.06,1.1-.85,1.1-2.78s-.33-2.69-1.1-2.76v-.09c1.69,0,3.66.81,3.66,2.89s-2,2.84-3.66,2.84Zm.86-5.92c.27-.82,1-1.92,2.11-1.92.85,0,1.36.45,1.36,1.21a1.27,1.27,0,0,1-1.29,1.25c0-.67-.35-1.07-.87-1.07a1.74,1.74,0,0,0-1.23.58Z"/><path class="cls-3" d="M61.19,12.69A9.72,9.72,0,0,0,65,12.06v7.27c0,.4.24.81,1.2.81v.1h-5v-.1c1,0,1.2-.41,1.2-.81v-5.7c0-.58-.27-.85-1.19-.85Zm.82-3a1.65,1.65,0,1,1,1.63,1.4A1.45,1.45,0,0,1,62,9.68Z"/><path class="cls-3" d="M66.89,20.14c1,0,1.2-.41,1.2-.81V13.65c0-.58-.27-.85-1.18-.85v-.1a9.89,9.89,0,0,0,3.82-.62v7.25c0,.4.24.81,1.2.81v.1h-5Zm5.63,0c1,0,1.19-.41,1.19-.81v-5A1.19,1.19,0,0,0,72.44,13a1.71,1.71,0,0,0-1.21.5v-.1a3.26,3.26,0,0,1,2.65-1.29c1.45,0,2.47.67,2.47,2.25v5c0,.4.24.81,1.2.81v.1h-5Z"/><path class="cls-3" d="M78.49,15c0-2.08,2-2.86,3.59-2.89v.09c-.69.07-1,.9-1,2.76s.32,2.72,1,2.78v.1C80.46,17.81,78.49,17,78.49,15Zm4.26,9.18c1.6-.2,2.11-1.06,2.11-1.64,0-2.22-6.24-.24-6.24-3.1a1.88,1.88,0,0,1,1.07-1.63l0,.08a.36.36,0,0,0-.15.3c0,1.79,7.3-.29,7.3,3.2,0,1.65-1.42,2.72-4.14,2.88ZM78.62,22.8c0-.94,1.17-1.23,2.43-1.23a1.34,1.34,0,0,0-.69,1.13c0,.74.84,1.3,1.75,1.45v.09C80.4,24.21,78.62,23.86,78.62,22.8Zm4.13-5.09c.78-.06,1.1-.85,1.1-2.78s-.33-2.69-1.1-2.76v-.09c1.7,0,3.66.81,3.66,2.89s-2,2.84-3.66,2.84Zm.86-5.92c.27-.82,1-1.92,2.12-1.92.84,0,1.36.45,1.36,1.21a1.28,1.28,0,0,1-1.3,1.25c0-.67-.35-1.07-.87-1.07a1.75,1.75,0,0,0-1.23.58Z"/><path class="cls-3" d="M91.42,12.89a.88.88,0,0,0-.88-.56v-.09H95v.09c-.56,0-.78.39-.51.95l2.09,4.37-1.37,2.59h-.1Zm5.86,3.19A4.42,4.42,0,0,0,97.72,14a1.54,1.54,0,0,0-1.63-1.68v-.09h4v.09c-.53,0-.74.21-1,.75l-1.67,3.14Z"/><path class="cls-3" d="M100.2,16.21a4,4,0,0,1,3.92-4.13v.09c-.94.11-1.2.91-1.2,4,0,2.31,1,3.57,2.45,3.57a3.44,3.44,0,0,0,2.34-.85V19a4.47,4.47,0,0,1-3.39,1.44A4.06,4.06,0,0,1,100.2,16.21Zm3.6-.68c1.41,0,2-.44,2-1.79,0-.77-.32-1.47-1-1.57v-.09a2.89,2.89,0,0,1,3.14,2.72,4.58,4.58,0,0,1-.08.83h-4Z"/><path class="cls-3" d="M112.67,19.33c0,.4.24.81,1.2.81v.1h-5v-.1c1,0,1.2-.41,1.2-.81V10c0-.57-.28-.84-1.19-.84V9.1a9.91,9.91,0,0,0,3.83-.62Zm5.6-5v5c0,.4.24.81,1.2.81v.1h-5v-.1c1,0,1.19-.41,1.19-.81v-5A1.19,1.19,0,0,0,114.36,13a1.71,1.71,0,0,0-1.21.5v-.1a3.26,3.26,0,0,1,2.65-1.29C117.25,12.08,118.27,12.75,118.27,14.33Z"/><path class="cls-3" d="M120.07,12.69a9.72,9.72,0,0,0,3.83-.63v7.27c0,.4.24.81,1.2.81v.1h-5v-.1c1,0,1.2-.41,1.2-.81v-5.7c0-.58-.27-.85-1.19-.85Zm.82-3a1.65,1.65,0,1,1,1.63,1.4A1.45,1.45,0,0,1,120.89,9.68Z"/><path class="cls-3" d="M130.16,12.17c-.95.11-1.37.91-1.37,4,0,2.31,1.17,3.57,2.6,3.57a3.47,3.47,0,0,0,2.34-.85V19a4.5,4.5,0,0,1-3.4,1.44,4.18,4.18,0,0,1-4.27-4.19,4.09,4.09,0,0,1,4.1-4.13Zm3.55,1.72a1.49,1.49,0,0,1-1.6,1.53,1.35,1.35,0,0,1-1.39-1,1.38,1.38,0,0,0,.76-1.17.94.94,0,0,0-.68-1.05v-.11C132.89,12.08,133.71,13,133.71,13.89Z"/><path class="cls-3" d="M134.54,9.1a9.82,9.82,0,0,0,3.82-.62V19.33c0,.4.24.81,1.2.81v.1h-5v-.1c1,0,1.2-.41,1.2-.81V10c0-.57-.27-.84-1.18-.84Z"/><path class="cls-3" d="M140.52,16.21a4,4,0,0,1,3.92-4.13v.09c-.94.11-1.2.91-1.2,4,0,2.31,1,3.57,2.45,3.57a3.46,3.46,0,0,0,2.34-.85V19a4.47,4.47,0,0,1-3.39,1.44A4.06,4.06,0,0,1,140.52,16.21Zm3.6-.68c1.41,0,2-.44,2-1.79,0-.77-.32-1.47-1-1.57v-.09a2.89,2.89,0,0,1,3.14,2.72,4.58,4.58,0,0,1-.08.83h-4Z"/><path class="cls-3" d="M8.36,30.69a9.72,9.72,0,0,0,3.83-.63v7.27c0,.4.24.81,1.2.81v.1h-5v-.1c1,0,1.2-.41,1.2-.81v-5.7c0-.58-.27-.85-1.19-.85Zm.82-3a1.45,1.45,0,0,1,1.63-1.4,1.42,1.42,0,1,1,0,2.8A1.45,1.45,0,0,1,9.18,27.68Z"/><path class="cls-3" d="M14.06,38.14c1,0,1.2-.41,1.2-.81V31.65c0-.58-.27-.85-1.18-.85v-.1a9.89,9.89,0,0,0,3.82-.62v7.25c0,.4.24.81,1.2.81v.1h-5Zm5.63,0c.95,0,1.19-.41,1.19-.81v-5A1.19,1.19,0,0,0,19.61,31a1.71,1.71,0,0,0-1.21.5v-.1a3.26,3.26,0,0,1,2.65-1.29c1.44,0,2.47.67,2.47,2.25v5c0,.4.24.81,1.2.81v.1h-5Z"/><path class="cls-3" d="M28.36,36.34a.81.81,0,0,0-.89.8c0,.46.32,1,1.42,1.16v.1c-2.13-.08-3.29-.66-3.29-1.58A1.25,1.25,0,0,1,27,35.63,1.62,1.62,0,0,1,28.36,36.34Zm.53-6.17c-.59.11-1.17.42-1.15,1.07C27.79,33.1,33,33.41,33,36c0,1.55-1.31,2.37-3.37,2.45v-.1C30.27,38.19,31,38,31,37.12c0-1.67-5.25-2.27-5.25-4.71,0-1.41,1.33-2.25,3.12-2.33Zm3.78,1.56a1,1,0,0,1-1.18,1A1.38,1.38,0,0,1,30.12,32a.72.72,0,0,0,.73-.75c0-.48-.61-.95-1.25-1v-.09C31.41,30.17,32.67,30.83,32.67,31.73Z"/><path class="cls-3" d="M37.69,36.14c0,.9.31,1.36,1.11,1.36A1.4,1.4,0,0,0,39.9,37v.09a2.66,2.66,0,0,1-2.48,1.3,2.07,2.07,0,0,1-2.37-2.26V31.65c0-.58-.27-.85-1.18-.85v-.1a9.82,9.82,0,0,0,3.82-.62Zm5.33,1c0,.46.15.65.43.65s.52-.24.77-.72h.1a2.05,2.05,0,0,1-2.18,1.3,1.55,1.55,0,0,1-1.76-1.57V31.65c0-.58-.27-.85-1.13-.85v-.1A10.44,10.44,0,0,0,43,30.08Z"/><path class="cls-3" d="M48.8,37.33c0,.4.24.81,1.2.81v.1H45v-.1c1,0,1.21-.41,1.21-.81V31.65c0-.58-.28-.85-1.19-.85v-.1a9.91,9.91,0,0,0,3.83-.62Zm4.32-5.52a1.71,1.71,0,0,1-1.65,1.82,1.09,1.09,0,0,1-.91-.35,1.18,1.18,0,0,0,.62-1.09.86.86,0,0,0-.9-.87,1.13,1.13,0,0,0-1,.61v-.12a2.22,2.22,0,0,1,2.09-1.73A1.63,1.63,0,0,1,53.12,31.81Z"/><path class="cls-3" d="M53.8,36.35c0-1.39,1.28-2.18,3.08-2.18h1.73v.1h-.49A1.58,1.58,0,0,0,56.43,36c0,.88.25,1.55,1,1.55A1.79,1.79,0,0,0,58.61,37v.09a3.41,3.41,0,0,1-2.55,1.3A2,2,0,0,1,53.8,36.35Zm.64-4.53c0-.82.74-1.65,2.92-1.74v.09a1.18,1.18,0,0,0-1,1.17c0,.58.4.93,1,1a1.78,1.78,0,0,1-1.53.77A1.29,1.29,0,0,1,54.44,31.82Zm4.64,4.77v-4.9c0-.78-.3-1.41-1.08-1.52v-.09c2.65.09,3.71,1.1,3.71,3.2v3.89c0,.46.16.65.45.65s.51-.24.77-.72H63a2,2,0,0,1-2.08,1.3C59.66,38.4,59.08,38,59.08,36.59Z"/><path class="cls-3" d="M63.51,38.14c1,0,1.21-.41,1.21-.81V31.65c0-.58-.28-.85-1.19-.85v-.1a9.91,9.91,0,0,0,3.83-.62v7.25c0,.4.24.81,1.2.81v.1H63.51Zm5.64,0c.94,0,1.18-.41,1.18-.81v-5c0-.89-.46-1.36-1.26-1.36a1.73,1.73,0,0,0-1.22.5v-.1a3.3,3.3,0,0,1,2.66-1.29c1.44,0,2.46.67,2.46,2.25v5c0,.4.24.81,1.21.81v.1h-5Z"/><path class="cls-3" d="M79.13,30.17c-.94.11-1.36.91-1.36,4,0,2.31,1.17,3.57,2.59,3.57a3.44,3.44,0,0,0,2.34-.85V37a4.47,4.47,0,0,1-3.39,1.44A4.19,4.19,0,0,1,75,34.21a4.1,4.1,0,0,1,4.1-4.13Zm3.56,1.72a1.49,1.49,0,0,1-1.61,1.53,1.36,1.36,0,0,1-1.39-1,1.37,1.37,0,0,0,.77-1.17,1,1,0,0,0-.69-1v-.11C81.87,30.08,82.69,31,82.69,31.89Z"/><path class="cls-3" d="M83.88,34.21a4,4,0,0,1,3.92-4.13v.09c-.94.11-1.2.91-1.2,4,0,2.31,1,3.57,2.45,3.57a3.44,3.44,0,0,0,2.34-.85V37A4.47,4.47,0,0,1,88,38.4,4.06,4.06,0,0,1,83.88,34.21Zm3.6-.68c1.41,0,2-.44,2-1.79,0-.77-.32-1.47-1-1.57v-.09a2.88,2.88,0,0,1,3.13,2.72,4.58,4.58,0,0,1-.08.83h-4Z"/></g></svg>