<?xml version="1.0" encoding="utf-8"?>
<!-- Generator: Adobe Illustrator 24.0.3, SVG Export Plug-In . SVG Version: 6.00 Build 0)  -->
<svg version="1.1" id="Layer_1" xmlns="http://www.w3.org/2000/svg" xmlns:xlink="http://www.w3.org/1999/xlink" x="0px" y="0px"
	 viewBox="0 0 320 480" style="enable-background:new 0 0 320 480;" xml:space="preserve">
<style type="text/css">
	.st0{fill:none;}
	.st1{enable-background:new    ;}
	.st2{fill:#263845;}
</style>
<title>Artboard 1</title>
<rect x="0.6" y="0" class="st0" width="320" height="480"/>
<g class="st1">
	<path class="st2" d="M16.8,88.6c2.5,0,3.1-0.9,3.1-2.1V63.2c0-1.2-0.6-2.1-3.1-2.1v-0.2h10.1v25.6c0,1.2,0.6,2.1,3.1,2.1v0.2H16.8
		V88.6z M28.9,61.1v-0.2h11.3v8.2h-0.3C38,63.3,35.1,61.6,28.9,61.1z M31.1,75.1l-2.3-0.2v-0.2l2.3-0.2c2.4-0.2,4.1-1.2,5.4-3.5h0.3
		v7.6h-0.3C35.2,76.2,33.6,75.3,31.1,75.1z"/>
	<path class="st2" d="M51.9,83.4c0,2.3,0.8,3.5,2.8,3.5c1.1,0,1.9-0.3,2.8-1.3v0.2c-0.9,1.8-3,3.3-6.4,3.3c-3.7,0-6.1-1.7-6.1-5.8
		V71.9c0-1.5-0.7-2.2-3-2.2v-0.2c3.8,0,6.9-0.4,9.8-1.6V83.4z M65.5,86.1c0,1.2,0.4,1.7,1.1,1.7c0.6,0,1.3-0.6,2-1.8h0.2
		c-0.7,2.3-2.9,3.3-5.6,3.3c-2.9,0-4.5-1.6-4.5-4V71.9c0-1.5-0.7-2.2-2.9-2.2v-0.2c3.7,0,6.2-0.4,9.7-1.6V86.1z"/>
	<path class="st2" d="M70.3,60.2c3.8,0,6.9-0.4,9.8-1.6v27.8c0,1,0.6,2.1,3.1,2.1v0.2H70.3v-0.2c2.5,0,3.1-1.1,3.1-2.1V62.7
		c0-1.5-0.7-2.2-3-2.2V60.2z"/>
</g>
<g class="st1">
	<path class="st2" d="M84.7,60.2c3.8,0,6.9-0.4,9.8-1.6v27.8c0,1,0.6,2.1,3.1,2.1v0.2H84.7v-0.2c2.5,0,3.1-1.1,3.1-2.1V62.7
		c0-1.5-0.7-2.2-3-2.2V60.2z"/>
</g>
<g class="st1">
	<path class="st2" d="M100.2,70c-0.4-0.9-1-1.4-2.3-1.4v-0.2h11.5v0.2c-1.4,0-2,1-1.3,2.4l5.4,11.2l-3.5,6.7h-0.2L100.2,70z
		 M98.4,95.4c0-1.8,1.4-3.2,3.6-3.9c-0.1,0.4-0.2,0.7-0.2,1c0,1.6,0.8,2.8,2.4,2.8c1.4,0,2.6-1.5,4.1-4.1h0.3
		c-2.3,4.2-3.8,7.9-6.7,7.9C99.7,99.1,98.4,97.5,98.4,95.4z M115.2,78.1c0.7-1.3,1.1-3.1,1.1-5.3c0-2.3-1.3-4.3-4.2-4.3v-0.2h10.2
		v0.2c-1.4,0-1.9,0.5-2.7,1.9l-4.3,8L115.2,78.1z"/>
</g>
<g class="st1">
	<path class="st2" d="M26.9,109.2c-2.4,0.3-3.2,2.3-3.2,10.3c0,7.7,0.8,10.3,3.2,10.5v0.2c-4.7,0-10.2-3.9-10.2-10.8
		s5.4-10.6,10.2-10.6V109.2z M38.8,119.5c0,6.9-5.5,10.8-10.2,10.8V130c2.4-0.2,3.2-2.8,3.2-10.5c0-8-0.8-10.1-3.2-10.3v-0.2
		C33.4,108.9,38.8,112.6,38.8,119.5z"/>
	<path class="st2" d="M51,136.1c0,1.5,0.7,2.2,3,2.2v0.2c-3.8,0-6.4,0.4-9.8,1.6v-27.2c0-1.5-0.7-2.2-3-2.2v-0.2
		c3.8,0,6.4-0.4,9.8-1.6V136.1z M66.6,119.4c0,8.6-4.5,10.9-8.4,10.9c-2.3,0-5-1.6-6-3.3v-0.2c1,0.8,2.1,1.4,3.4,1.4
		c1.9,0,4-1.4,4-8.7c0-7.4-1.9-8.4-4-8.4c-1.3,0-2.5,0.5-3.4,1.5v-0.3c1-1.7,3.7-3.3,6-3.3C62.2,108.9,66.6,111.2,66.6,119.4z"/>
	<path class="st2" d="M85.4,126.7v0.2c-1.3,1.9-3.9,3.3-7,3.3c-3.7,0-6.3-1.7-6.3-5.8V111h-2.1l0.5-0.6h1.7V106c2.5,0,5-0.8,6.7-2.3
		v6.7h5.5l-0.5,0.6h-5.1v13.6c0,2.1,0.8,4.2,2.7,4.2C82.7,128.8,84.1,128.1,85.4,126.7z"/>
	<path class="st2" d="M86.5,110.5c3.8,0,6.9-0.4,9.8-1.6v18.6c0,1,0.6,2.1,3.1,2.1v0.2H86.4v-0.2c2.5,0,3.1-1.1,3.1-2.1v-14.6
		c0-1.5-0.7-2.2-3-2.2V110.5z M88.6,102.8c0-2.1,1.7-3.6,4.2-3.6c2.5,0,4.2,1.4,4.2,3.6c0,2.2-1.7,3.6-4.2,3.6
		C90.3,106.4,88.6,105,88.6,102.8z"/>
	<path class="st2" d="M112.1,109.2c-2.4,0.3-3.2,2.3-3.2,10.3c0,7.7,0.8,10.3,3.2,10.5v0.2c-4.7,0-10.2-3.9-10.2-10.8
		s5.4-10.6,10.2-10.6V109.2z M123.9,119.5c0,6.9-5.5,10.8-10.2,10.8V130c2.4-0.2,3.2-2.8,3.2-10.5c0-8-0.8-10.1-3.2-10.3v-0.2
		C118.5,108.9,123.9,112.6,123.9,119.5z"/>
	<path class="st2" d="M126.6,129.6c2.5,0,3.1-1.1,3.1-2.1V113c0-1.5-0.7-2.2-3-2.2v-0.2c3.8,0,6.9-0.4,9.8-1.6v18.6
		c0,1,0.6,2.1,3.1,2.1v0.2h-12.9V129.6z M141.1,129.6c2.4,0,3-1.1,3-2.1v-12.8c0-2.3-1.2-3.5-3.2-3.5c-1.1,0-2.1,0.4-3.1,1.3v-0.2
		c1.1-1.7,3.8-3.3,6.8-3.3c3.7,0,6.3,1.7,6.3,5.8v12.8c0,1,0.6,2.1,3.1,2.1v0.2h-12.9V129.6z"/>
	<path class="st2" d="M156.2,119.5c0-6.9,5.3-10.6,10.1-10.6v0.2c-2.4,0.3-3.1,2.3-3.1,10.2c0,5.9,2.6,9.2,6.3,9.2
		c2.3,0,4.1-0.7,6-2.2v0.2c-2.1,2.7-6,3.7-8.7,3.7C161.5,130.3,156.2,126.4,156.2,119.5z M165.4,117.8c3.6,0,5.1-1.1,5.1-4.6
		c0-2-0.8-3.8-2.7-4v-0.2c5.4,0,8,3.9,8,7c0,0.7-0.1,1.5-0.2,2.1h-10.3V117.8z"/>
	<path class="st2" d="M193.9,112.2v0.3c-0.9-1-2.1-1.5-3.4-1.5c-2.1,0-4,0.9-4,8.4c0,7.4,2.1,8.7,4,8.7c1.3,0,2.4-0.7,3.4-1.4v0.2
		c-1,1.7-3.6,3.3-6,3.3c-3.9,0-8.5-2.3-8.5-10.9c0-8.2,4.5-10.5,8.5-10.5C190.2,108.9,192.8,110.5,193.9,112.2z M201.9,127.1
		c0,1.2,0.4,1.7,1.1,1.7c0.6,0,1.3-0.6,2-1.8h0.2c-0.7,2.3-2.9,3.3-5.3,3.3c-3.3,0-4.8-1.1-4.8-4.6v-21.9c0-1.5-0.7-2.2-3-2.2v-0.2
		c3.8,0,6.4-0.4,9.8-1.6V127.1z"/>
</g>
<g class="st1">
	<path class="st2" d="M231.2,129.6v0.2H218v-0.2c2.5,0,3.1-1,3.1-2.1v-23.3c0-1.2-0.6-2.1-3.1-2.1V102h10.1v25.6
		C228.1,128.6,228.7,129.6,231.2,129.6z M247.2,127c-0.7,2.3-3.1,3.3-6.1,3.3c-5.3,0-6.6-3.7-6.8-7.1c-0.2-3.4-0.6-6-4.2-6.5v-0.2
		c3.8,0,5.5-3.3,5.5-7.4c0-4.6-1.7-6.8-5.5-6.8V102c8.3,0,12.4,1.8,12.4,7c0,4.4-3.3,7.1-9.4,7.5c7.5,0.3,8.6,3.2,9,6.7
		c0.4,3.3,1.3,5.7,2.7,5.7c0.7,0,1.4-0.6,2.1-1.8H247.2z"/>
</g>
<g class="st1">
	<path class="st2" d="M247.9,104.3c-0.7-1.6-1.7-2.1-3.7-2.1V102H259v0.2c-1.9,0-3.6,1.2-2.5,3.4l7.8,16.3l-3.7,8.4H260L247.9,104.3
		z M265.8,118.1c2.4-5.5,2.9-8.9,2.9-11.5c0-3-2.5-4.5-4.7-4.5V102h11.8v0.2c-1.9,0-3,1.8-4.4,4.6l-5.6,11.8L265.8,118.1z"/>
</g>
<g class="st1">
	<path class="st2" d="M16.1,151.6c3.8,0,6.9-0.4,9.8-1.6v18.6c0,1,0.6,2.1,3.1,2.1v0.2H16v-0.2c2.5,0,3.1-1.1,3.1-2.1V154
		c0-1.5-0.7-2.2-3-2.2V151.6z M18.2,143.8c0-2.1,1.7-3.6,4.2-3.6c2.5,0,4.2,1.4,4.2,3.6c0,2.2-1.7,3.6-4.2,3.6
		C19.9,147.5,18.2,146,18.2,143.8z"/>
	<path class="st2" d="M30.7,170.7c2.5,0,3.1-1.1,3.1-2.1V154c0-1.5-0.7-2.2-3-2.2v-0.2c3.8,0,6.9-0.4,9.8-1.6v18.6
		c0,1,0.6,2.1,3.1,2.1v0.2H30.7V170.7z M45.1,170.7c2.4,0,3-1.1,3-2.1v-12.8c0-2.3-1.2-3.5-3.2-3.5c-1.1,0-2.1,0.4-3.1,1.3v-0.2
		c1.1-1.7,3.8-3.3,6.8-3.3c3.7,0,6.3,1.7,6.3,5.8v12.8c0,1,0.6,2.1,3.1,2.1v0.2H45.1V170.7z"/>
	<path class="st2" d="M67.4,166.1c-1.4,0-2.3,0.8-2.3,2.1c0,1.2,0.8,2.7,3.7,3v0.2c-5.5-0.2-8.5-1.7-8.5-4.1c0-1.9,1.6-3,3.5-3
		C65.4,164.2,66.8,165,67.4,166.1z M68.7,150.2c-1.5,0.3-3,1.1-3,2.8c0.1,4.8,13.4,5.5,13.4,12.1c0,4-3.4,6.1-8.7,6.3v-0.2
		c1.7-0.3,3.7-0.9,3.7-3c0-4.3-13.5-5.8-13.5-12.1c0-3.6,3.4-5.8,8-6V150.2z M78.4,154.2c0,1.3-1,2.5-3,2.5c-1.7,0-3-0.7-3.5-2
		c1.2-0.1,1.9-0.9,1.8-1.9c0-1.2-1.6-2.4-3.2-2.6V150C75.2,150.2,78.4,151.9,78.4,154.2z"/>
	<path class="st2" d="M91.3,165.6c0,2.3,0.8,3.5,2.8,3.5c1.1,0,1.9-0.3,2.8-1.3v0.2c-0.9,1.8-3,3.3-6.4,3.3c-3.7,0-6.1-1.7-6.1-5.8
		V154c0-1.5-0.7-2.2-3-2.2v-0.2c3.8,0,6.9-0.4,9.8-1.6V165.6z M105,168.2c0,1.2,0.4,1.7,1.1,1.7c0.6,0,1.3-0.6,2-1.8h0.2
		c-0.7,2.3-2.9,3.3-5.6,3.3c-2.9,0-4.5-1.6-4.5-4V154c0-1.5-0.7-2.2-2.9-2.2v-0.2c3.7,0,6.2-0.4,9.7-1.6V168.2z"/>
</g>
<g class="st1">
	<path class="st2" d="M119.8,168.6c0,1,0.6,2.1,3.1,2.1v0.2H110v-0.2c2.5,0,3.1-1.1,3.1-2.1V154c0-1.5-0.7-2.2-3-2.2v-0.2
		c3.8,0,6.9-0.4,9.8-1.6V168.6z M130.9,154.4c0,2.8-2,4.7-4.2,4.7c-1,0-1.8-0.2-2.3-0.9c0.8-0.4,1.6-1.3,1.6-2.8
		c0-1.2-0.9-2.2-2.3-2.2c-1.1,0-1.9,0.6-2.5,1.6v-0.3c0.8-2.6,2.8-4.4,5.3-4.4C129.3,150,130.9,152,130.9,154.4z"/>
</g>
<g class="st1">
	<path class="st2" d="M132.7,166.1c0-3.6,3.3-5.6,7.9-5.6h4.4v0.2h-1.2c-3,0-4.4,1.9-4.4,4.5c0,2.3,0.7,4,2.6,4c1.1,0,2.1-0.6,3-1.4
		v0.2c-1.4,1.6-3.5,3.3-6.5,3.3C135,171.4,132.6,169.4,132.7,166.1z M134.3,154.5c0-2.1,1.9-4.2,7.5-4.5v0.2c-1.6,0.2-2.6,1.6-2.6,3
		c0,1.5,1,2.4,2.7,2.5c-0.6,1.1-2.3,2-3.9,2C135.6,157.7,134.3,156.2,134.3,154.5z M146.2,166.7v-12.6c0-2-0.8-3.6-2.8-3.9V150
		c6.8,0.2,9.5,2.8,9.5,8.2v10c0,1.2,0.4,1.7,1.1,1.7c0.6,0,1.3-0.6,2-1.8h0.2c-0.7,2.3-2.9,3.3-5.3,3.3
		C147.7,171.4,146.2,170.2,146.2,166.7z"/>
	<path class="st2" d="M157.6,170.7c2.5,0,3.1-1.1,3.1-2.1V154c0-1.5-0.7-2.2-3-2.2v-0.2c3.8,0,6.9-0.4,9.8-1.6v18.6
		c0,1,0.6,2.1,3.1,2.1v0.2h-12.9V170.7z M172.1,170.7c2.4,0,3-1.1,3-2.1v-12.8c0-2.3-1.2-3.5-3.2-3.5c-1.2,0-2.1,0.4-3.1,1.3v-0.2
		c1.1-1.7,3.8-3.3,6.8-3.3c3.7,0,6.3,1.7,6.3,5.8v12.8c0,1,0.6,2.1,3.1,2.1v0.2h-12.9V170.7z"/>
	<path class="st2" d="M197.7,150.2c-2.4,0.3-3.5,2.3-3.5,10.2c0,5.9,3,9.2,6.7,9.2c2.3,0,4.1-0.7,6-2.2v0.2c-2.1,2.7-6,3.7-8.7,3.7
		c-5.3,0-11-3.9-11-10.8s5.7-10.6,10.5-10.6V150.2z M206.8,154.6c0,2.2-1.5,3.9-4.1,3.9c-2,0-3.3-1.3-3.6-2.6c1.2-0.5,2-1.9,2-3
		c0-0.9-0.2-2.4-1.8-2.7V150C204.7,150,206.8,152.3,206.8,154.6z"/>
	<path class="st2" d="M209.9,160.6c0-6.9,5.3-10.6,10.1-10.6v0.2c-2.4,0.3-3.1,2.3-3.1,10.2c0,5.9,2.6,9.2,6.3,9.2
		c2.3,0,4.1-0.7,6-2.2v0.2c-2.1,2.7-6,3.7-8.7,3.7C215.2,171.4,209.9,167.5,209.9,160.6z M219.1,158.9c3.6,0,5.1-1.1,5.1-4.6
		c0-2-0.8-3.8-2.7-4V150c5.4,0,8,3.9,8,7c0,0.7-0.1,1.5-0.2,2.1h-10.3V158.9z"/>
</g>
</svg>
