<?xml version="1.0" encoding="utf-8"?>
<!-- Generator: Adobe Illustrator 24.0.3, SVG Export Plug-In . SVG Version: 6.00 Build 0)  -->
<svg version="1.1" id="Layer_1" xmlns="http://www.w3.org/2000/svg" xmlns:xlink="http://www.w3.org/1999/xlink" x="0px" y="0px"
	 viewBox="0 0 320 480" style="enable-background:new 0 0 320 480;" xml:space="preserve">
<style type="text/css">
	.st0{enable-background:new    ;}
	.st1{fill:#FFFFFF;}
</style>
<title>Artboard 1 copy 2</title>
<g class="st0">
	<path class="st1" d="M29.9,60.1v0.2c-2.8,0.3-4.7,3.1-4.7,13.1c0,10,1.9,13.2,4.7,13.6v0.2c-5.5-0.3-12.3-4.5-12.3-13.6
		C17.6,65,24.7,60.5,29.9,60.1z M31.8,60.4v-0.2c4,0.2,6.2,0.8,7.9,1.8l1.2-1.8h0.3v9.4h-0.3C39.9,65,36.4,61.3,31.8,60.4z
		 M44.9,75.8V76c-1.8,0-2.9,0.7-2.9,2.3v9h-0.3L40.4,85c-1.9,1.4-4.6,2.2-8.5,2.3V87c2.6-0.2,4.1-1.6,4.1-4.7v-4
		c0-1.6-0.7-2.3-2.9-2.3v-0.2H44.9z"/>
	<path class="st1" d="M47.3,77.1c0-6.5,5-10,9.5-10v0.2c-2.3,0.3-2.9,2.2-2.9,9.6c0,5.6,2.5,8.6,5.9,8.6c2.2,0,3.8-0.6,5.7-2.1v0.2
		c-2,2.6-5.7,3.5-8.2,3.5C52.3,87.3,47.3,83.6,47.3,77.1z M56,75.5c3.4,0,4.8-1.1,4.8-4.3c0-1.9-0.8-3.6-2.5-3.8v-0.2
		c5.1,0,7.6,3.6,7.6,6.6c0,0.6-0.1,1.4-0.2,2H56V75.5z"/>
	<path class="st1" d="M83.5,83.9v0.2c-1.2,1.8-3.7,3.1-6.6,3.1c-3.5,0-6-1.6-6-5.5V69.1h-2l0.4-0.6h1.6v-4.2c2.4,0,4.7-0.7,6.4-2.2
		v6.4h5.2L82,69.1h-4.8v12.8c0,1.9,0.7,4,2.6,4C80.9,85.9,82.2,85.2,83.5,83.9z"/>
	<path class="st1" d="M94.5,82.3c0-3.4,3.1-5.3,7.4-5.3h4.2v0.2H105c-2.8,0-4.1,1.8-4.1,4.2c0,2.1,0.6,3.8,2.4,3.8
		c1.1,0,2-0.6,2.8-1.4v0.2c-1.3,1.5-3.3,3.1-6.2,3.1C96.7,87.3,94.5,85.4,94.5,82.3z M96.1,71.3c0-2,1.8-4,7.1-4.2v0.2
		c-1.6,0.2-2.5,1.5-2.5,2.8c0,1.4,1,2.2,2.5,2.4c-0.6,1.1-2.2,1.9-3.7,1.9C97.3,74.4,96.1,73,96.1,71.3z M107.3,82.9V71
		c0-1.9-0.7-3.4-2.6-3.7v-0.2c6.4,0.2,9,2.7,9,7.8v9.4c0,1.1,0.4,1.6,1.1,1.6c0.6,0,1.2-0.6,1.9-1.7h0.2c-0.6,2.1-2.7,3.1-5,3.1
		C108.7,87.3,107.3,86.2,107.3,82.9z"/>
</g>
<g class="st0">
	<path class="st1" d="M138.5,87v0.2c-3.1-0.1-5.5-0.7-7.5-1.9l-1.3,1.9h-0.3v-9.5h0.3C131,82.2,133.7,85.5,138.5,87z M149.9,79.3
		c0,5-3.7,7.7-9.7,7.9V87c2.1-0.4,4.2-1.6,4.2-4c0-6.8-14.8-7.4-14.8-15.3c0-4.7,3.8-7.3,8.9-7.7v0.2c-1.8,0.3-3.4,1.4-3.4,3.6
		C135.1,70.7,149.9,71.5,149.9,79.3z M140.2,60.4v-0.2c2.9,0.1,5.2,0.8,7,2.1l1.4-2.1h0.3v8.6h-0.3C147.3,64.7,144,61.3,140.2,60.4z
		"/>
</g>
<g class="st0">
	<path class="st1" d="M167.6,83.9v0.2c-1.2,1.8-3.7,3.1-6.6,3.1c-3.5,0-6-1.6-6-5.5V69.1h-2l0.4-0.6h1.6v-4.2c2.4,0,4.7-0.7,6.4-2.2
		v6.4h5.2l-0.4,0.6h-4.8v12.8c0,1.9,0.7,4,2.6,4C165,85.9,166.3,85.2,167.6,83.9z"/>
	<path class="st1" d="M168.8,82.3c0-3.4,3.1-5.3,7.4-5.3h4.2v0.2h-1.2c-2.8,0-4.1,1.8-4.1,4.2c0,2.1,0.6,3.8,2.4,3.8
		c1.1,0,2-0.6,2.8-1.4v0.2c-1.3,1.5-3.3,3.1-6.2,3.1C171,87.3,168.8,85.4,168.8,82.3z M170.4,71.3c0-2,1.8-4,7.1-4.2v0.2
		c-1.5,0.2-2.5,1.5-2.5,2.8c0,1.4,1,2.2,2.5,2.4c-0.6,1.1-2.2,1.9-3.7,1.9C171.6,74.4,170.4,73,170.4,71.3z M181.6,82.9V71
		c0-1.9-0.7-3.4-2.6-3.7v-0.2c6.4,0.2,9,2.7,9,7.8v9.4c0,1.1,0.4,1.6,1.1,1.6c0.6,0,1.2-0.6,1.9-1.7h0.2c-0.6,2.1-2.7,3.1-5,3.1
		C183,87.3,181.6,86.2,181.6,82.9z"/>
</g>
<g class="st0">
	<path class="st1" d="M201.7,84.7c0,1,0.6,2,2.9,2v0.2h-12.2v-0.2c2.3,0,2.9-1,2.9-2V70.9c0-1.4-0.7-2.1-2.9-2.1v-0.2
		c3.6,0,6.5-0.4,9.3-1.5V84.7z M212.1,71.3c0,2.7-1.9,4.4-4,4.4c-0.9,0-1.7-0.2-2.2-0.9c0.7-0.4,1.5-1.2,1.5-2.6
		c0-1.1-0.8-2.1-2.2-2.1c-1,0-1.8,0.6-2.3,1.5v-0.3c0.7-2.5,2.6-4.2,5-4.2C210.7,67.1,212.1,69,212.1,71.3z"/>
</g>
<g class="st0">
	<path class="st1" d="M40.9,121l0.2,0.3c-2,3.2-5.6,4.7-9.3,4.7c-6.3,0-14.2-4.5-14.2-13.5c0-9.8,7.7-13.4,13.3-13.6v0.2
		c-2.7,0.6-5.7,3.1-5.7,13.1c0,9.9,4,12.2,8.4,12.2C37.1,124.5,39.6,122.7,40.9,121z M41.3,98.9v9.4h-0.3c-1.5-5.2-4.4-8.1-8.2-9.2
		v-0.2c3.4,0.2,5.4,0.7,7,1.8l1.2-1.8H41.3z"/>
	<path class="st1" d="M44.2,121.1c0-3.4,3.1-5.3,7.4-5.3h4.2v0.2h-1.2c-2.8,0-4.1,1.8-4.1,4.2c0,2.1,0.6,3.8,2.4,3.8
		c1.1,0,2-0.6,2.8-1.4v0.2c-1.3,1.5-3.3,3.1-6.2,3.1C46.4,126,44.2,124.2,44.2,121.1z M45.7,110.1c0-2,1.8-4,7.1-4.2v0.2
		c-1.6,0.2-2.5,1.5-2.5,2.8c0,1.4,1,2.2,2.5,2.4c-0.6,1.1-2.2,1.9-3.7,1.9C47,113.2,45.7,111.7,45.7,110.1z M57,121.7v-11.9
		c0-1.9-0.7-3.4-2.6-3.7v-0.2c6.4,0.2,9,2.7,9,7.8v9.4c0,1.1,0.4,1.6,1.1,1.6c0.6,0,1.2-0.6,1.9-1.7h0.2c-0.6,2.1-2.7,3.1-5,3.1
		C58.4,126,57,125,57,121.7z"/>
	<path class="st1" d="M77,123.4c0,1,0.6,2,2.9,2v0.2H67.7v-0.2c2.3,0,2.9-1,2.9-2v-13.8c0-1.4-0.7-2.1-2.9-2.1v-0.2
		c3.6,0,6.5-0.4,9.3-1.5V123.4z M89.9,111.3v12.1c0,1,0.5,2,2.9,2v0.2H80.6v-0.2c2.3,0,2.9-1,2.9-2v-12.1c0-2.2-0.9-3.3-2.7-3.3
		c-1.1,0-2.1,0.5-2.6,1.2V109c0.9-1.6,2.8-3.1,5.7-3.1C87.6,105.9,89.9,107.5,89.9,111.3z M102.7,111.3v12.1c0,1,0.6,2,2.9,2v0.2
		H93.4v-0.2c2.3,0,2.9-1,2.9-2v-12.1c0-2.2-0.9-3.3-2.7-3.3c-1.1,0-2.1,0.5-2.6,1.2V109c0.9-1.6,2.8-3.1,5.7-3.1
		C100.4,105.9,102.7,107.5,102.7,111.3z"/>
	<path class="st1" d="M116,131.5c0,1.4,0.7,2.1,2.9,2.1v0.2c-3.6,0-6,0.4-9.3,1.5v-25.7c0-1.4-0.7-2.1-2.9-2.1v-0.2
		c3.6,0,6-0.4,9.3-1.5V131.5z M130.7,115.8c0,8.1-4.3,10.3-7.9,10.3c-2.2,0-4.7-1.5-5.7-3.1v-0.2c1,0.7,2,1.4,3.3,1.4
		c1.8,0,3.8-1.3,3.8-8.3c0-7-1.8-7.9-3.8-7.9c-1.2,0-2.4,0.5-3.3,1.4V109c1-1.6,3.4-3.1,5.7-3.1
		C126.6,105.9,130.7,108.1,130.7,115.8z"/>
	<path class="st1" d="M134.2,115.9c0-6.5,5-10,9.5-10v0.2c-2.3,0.3-2.9,2.2-2.9,9.6c0,5.6,2.5,8.6,5.9,8.6c2.2,0,3.8-0.6,5.7-2.1
		v0.2c-2,2.6-5.7,3.5-8.2,3.5C139.2,126,134.2,122.4,134.2,115.9z M142.9,114.3c3.4,0,4.8-1.1,4.8-4.3c0-1.9-0.8-3.6-2.5-3.8v-0.2
		c5.1,0,7.6,3.6,7.6,6.6c0,0.6-0.1,1.4-0.2,2h-9.7V114.3z"/>
	<path class="st1" d="M164.6,123.4c0,1,0.6,2,2.9,2v0.2h-12.2v-0.2c2.3,0,2.9-1,2.9-2v-13.8c0-1.4-0.7-2.1-2.9-2.1v-0.2
		c3.6,0,6.5-0.4,9.3-1.5V123.4z M175,110.1c0,2.7-1.9,4.4-4,4.4c-0.9,0-1.7-0.2-2.2-0.9c0.7-0.4,1.5-1.2,1.5-2.6
		c0-1.1-0.8-2.1-2.2-2.1c-1,0-1.8,0.6-2.3,1.5v-0.3c0.7-2.5,2.6-4.2,5-4.2C173.6,105.9,175,107.7,175,110.1z"/>
	<path class="st1" d="M201,121l0.2,0.3c-2,3.2-5.6,4.7-9.3,4.7c-6.3,0-14.2-4.5-14.2-13.5c0-9.8,7.7-13.4,13.3-13.6v0.2
		c-2.7,0.6-5.7,3.1-5.7,13.1c0,9.9,4,12.2,8.4,12.2C197.1,124.5,199.6,122.7,201,121z M201.3,98.9v9.4H201c-1.5-5.2-4.4-8.1-8.2-9.2
		v-0.2c3.4,0.2,5.4,0.7,7,1.8l1.2-1.8H201.3z"/>
	<path class="st1" d="M204.2,121.1c0-3.4,3.1-5.3,7.4-5.3h4.2v0.2h-1.2c-2.8,0-4.1,1.8-4.1,4.2c0,2.1,0.6,3.8,2.4,3.8
		c1.1,0,2-0.6,2.8-1.4v0.2c-1.3,1.5-3.3,3.1-6.2,3.1C206.4,126,204.2,124.2,204.2,121.1z M205.8,110.1c0-2,1.8-4,7.1-4.2v0.2
		c-1.6,0.2-2.5,1.5-2.5,2.8c0,1.4,1,2.2,2.5,2.4c-0.6,1.1-2.2,1.9-3.7,1.9C207,113.2,205.8,111.7,205.8,110.1z M217,121.7v-11.9
		c0-1.9-0.7-3.4-2.6-3.7v-0.2c6.4,0.2,9,2.7,9,7.8v9.4c0,1.1,0.4,1.6,1.1,1.6c0.6,0,1.2-0.6,1.9-1.7h0.2c-0.6,2.1-2.7,3.1-5,3.1
		C218.4,126,217,125,217,121.7z"/>
</g>
<g class="st0">
	<path class="st1" d="M237.1,123.4c0,1,0.6,2,2.9,2v0.2h-12.2v-0.2c2.3,0,2.9-1,2.9-2v-13.8c0-1.4-0.7-2.1-2.9-2.1v-0.2
		c3.6,0,6.5-0.4,9.3-1.5V123.4z M247.6,110.1c0,2.7-1.9,4.4-4,4.4c-0.9,0-1.7-0.2-2.2-0.9c0.7-0.4,1.5-1.2,1.5-2.6
		c0-1.1-0.8-2.1-2.2-2.1c-1,0-1.8,0.6-2.3,1.5v-0.3c0.7-2.5,2.6-4.2,5-4.2C246.1,105.9,247.6,107.7,247.6,110.1z"/>
</g>
<g class="st0">
	<path class="st1" d="M249.6,115.9c0-6.5,5-10,9.5-10v0.2c-2.3,0.3-2.9,2.2-2.9,9.6c0,5.6,2.5,8.6,5.9,8.6c2.2,0,3.8-0.6,5.7-2.1
		v0.2c-2,2.6-5.7,3.5-8.2,3.5C254.6,126,249.6,122.4,249.6,115.9z M258.4,114.3c3.4,0,4.8-1.1,4.8-4.3c0-1.9-0.8-3.6-2.5-3.8v-0.2
		c5.1,0,7.6,3.6,7.6,6.6c0,0.6-0.1,1.4-0.2,2h-9.7V114.3z"/>
</g>
<g class="st0">
	<path class="st1" d="M31.1,147.8v0.3c-0.9-1-2.1-1.4-3.3-1.4c-1.9,0-3.8,0.9-3.8,7.9c0,7,1.9,8.3,3.8,8.3c1.2,0,2.3-0.6,3.3-1.4
		v0.2c-1,1.6-3.4,3.1-5.7,3.1c-3.7,0-7.9-2.2-7.9-10.3c0-7.7,4.2-9.9,7.9-9.9C27.6,144.7,30.1,146.1,31.1,147.8z M38.7,170.3
		c0,1.4,0.7,2.1,2.9,2.1v0.2c-3.6,0-6,0.4-9.3,1.5v-28c2-0.2,4.7-0.7,6.4-1.5V170.3z"/>
	<path class="st1" d="M51.6,159.3c0,2.2,0.7,3.3,2.7,3.3c1,0,1.8-0.3,2.7-1.2v0.2c-0.9,1.7-2.9,3.1-6,3.1c-3.5,0-5.7-1.6-5.7-5.5
		v-10.9c0-1.4-0.7-2.1-2.9-2.1v-0.2c3.6,0,6.5-0.4,9.3-1.5V159.3z M64.5,161.8c0,1.1,0.3,1.6,1,1.6c0.6,0,1.2-0.6,1.9-1.7h0.2
		c-0.6,2.1-2.7,3.1-5.3,3.1c-2.7,0-4.3-1.6-4.3-3.8v-12.6c0-1.4-0.7-2.1-2.8-2.1v-0.2c3.5,0,5.9-0.4,9.1-1.5V161.8z"/>
	<path class="st1" d="M79.6,144.9c-2.3,0.3-3.1,2.2-3.1,9.8c0,7.3,0.8,9.7,3.1,9.9v0.2c-4.5,0-9.7-3.6-9.7-10.2c0-6.5,5.1-10,9.7-10
		V144.9z M90.7,154.7c0,6.5-5.2,10.2-9.6,10.2v-0.2c2.3-0.2,3-2.7,3-9.9c0-7.6-0.8-9.5-3-9.8v-0.2C85.6,144.7,90.7,148.1,90.7,154.7
		z"/>
</g>
<g class="st0">
	<path class="st1" d="M108.4,161.4v0.2c-1.2,1.8-3.7,3.1-6.6,3.1c-3.5,0-6-1.6-6-5.5v-12.7h-2l0.4-0.6h1.6v-4.2
		c2.4,0,4.7-0.7,6.4-2.2v6.4h5.2l-0.4,0.6h-4.8v12.8c0,1.9,0.7,4,2.6,4C105.8,163.4,107.1,162.7,108.4,161.4z"/>
</g>
<g class="st0">
	<path class="st1" d="M109.8,154.7c0-6.5,5-10,9.5-10v0.2c-2.3,0.3-2.9,2.2-2.9,9.6c0,5.6,2.5,8.6,5.9,8.6c2.2,0,3.8-0.6,5.7-2.1
		v0.2c-2,2.6-5.7,3.5-8.2,3.5C114.8,164.8,109.8,161.2,109.8,154.7z M118.5,153c3.4,0,4.8-1.1,4.8-4.3c0-1.9-0.8-3.6-2.5-3.8v-0.2
		c5.1,0,7.6,3.6,7.6,6.6c0,0.6-0.1,1.4-0.2,2h-9.7V153z"/>
</g>
</svg>
