<svg id="Layer_1" data-name="Layer 1" xmlns="http://www.w3.org/2000/svg" viewBox="0 0 320 480"><defs><style>.cls-1{fill:#fff;}</style></defs><title>Artboard 1 copy 2</title><path class="cls-1" d="M42.81,62.74V63c-2.52.31-4.27,2.83-4.27,11.83S40.29,86.72,42.81,87v.21c-5-.28-11.13-4-11.13-12.25A12.13,12.13,0,0,1,42.81,62.74Zm1.72.21v-.21c3.6.17,5.6.7,7.17,1.64l1.09-1.64h.28v8.51h-.28A10.79,10.79,0,0,0,44.53,63Zm11.86,13.9v.21c-1.64,0-2.59.63-2.59,2.06v8.12h-.28l-1.26-2.1c-1.75,1.26-4.16,2-7.7,2.1V87c2.38-.17,3.75-1.43,3.75-4.27V79.12c0-1.43-.63-2.06-2.63-2.06v-.21Z"/><path class="cls-1" d="M58.52,78.07a8.67,8.67,0,0,1,8.58-9v.21c-2.06.25-2.62,2-2.62,8.68,0,5,2.24,7.81,5.35,7.81a7.58,7.58,0,0,0,5.11-1.86v.21c-1.82,2.31-5.14,3.15-7.42,3.15A8.87,8.87,0,0,1,58.52,78.07ZM66.4,76.6c3.08,0,4.38-1,4.38-3.92,0-1.68-.7-3.22-2.28-3.43V69c4.62,0,6.86,3.29,6.86,5.95a10.8,10.8,0,0,1-.17,1.82H66.4Z"/><path class="cls-1" d="M91.18,84.2v.21a7.32,7.32,0,0,1-6,2.83c-3.15,0-5.39-1.43-5.39-4.93V70.83H78l.39-.53H79.8V66.52a8.9,8.9,0,0,0,5.75-2V70.3h4.72l-.38.53H85.55V82.41c0,1.75.66,3.57,2.3,3.57A5.15,5.15,0,0,0,91.18,84.2Z"/><path class="cls-1" d="M101.19,82.76c0-3,2.8-4.76,6.72-4.76h3.78v.21h-1c-2.52,0-3.71,1.65-3.71,3.82,0,1.92.56,3.39,2.2,3.39a3.84,3.84,0,0,0,2.56-1.22v.21a7.45,7.45,0,0,1-5.57,2.83C103.15,87.24,101.15,85.56,101.19,82.76Zm1.4-9.9c0-1.79,1.61-3.61,6.37-3.82v.21a2.56,2.56,0,0,0-2.24,2.56c0,1.26.88,2,2.27,2.13a3.93,3.93,0,0,1-3.36,1.68A2.8,2.8,0,0,1,102.59,72.86Zm10.15,10.43V72.58c0-1.72-.66-3.08-2.38-3.33V69c5.81.21,8.12,2.42,8.12,7v8.51c0,1,.35,1.43,1,1.43s1.12-.52,1.68-1.57h.21c-.56,1.92-2.45,2.83-4.55,2.83C114,87.24,112.74,86.26,112.74,83.29Z"/><path class="cls-1" d="M140.88,87v.21a13.24,13.24,0,0,1-6.79-1.71l-1.16,1.71h-.28V78.7h.28A11.73,11.73,0,0,0,140.88,87Zm10.29-7c0,4.51-3.36,7-8.79,7.17V87c1.93-.35,3.82-1.47,3.82-3.57,0-6.12-13.37-6.68-13.37-13.79,0-4.2,3.39-6.62,8-6.93V63c-1.61.28-3.08,1.29-3.08,3.22C137.8,72.3,151.17,73,151.17,80.07ZM142.38,63v-.21a11.17,11.17,0,0,1,6.3,1.86l1.26-1.86h.29v7.81h-.29A11.12,11.12,0,0,0,142.38,63Z"/><path class="cls-1" d="M167.13,84.2v.21a7.32,7.32,0,0,1-6,2.83c-3.15,0-5.39-1.43-5.39-4.93V70.83h-1.82l.39-.53h1.43V66.52a8.85,8.85,0,0,0,5.74-2V70.3h4.73l-.38.53h-4.35V82.41c0,1.75.67,3.57,2.31,3.57A5.2,5.2,0,0,0,167.13,84.2Z"/><path class="cls-1" d="M168.25,82.76c0-3,2.8-4.76,6.72-4.76h3.78v.21H177.7c-2.52,0-3.71,1.65-3.71,3.82,0,1.92.56,3.39,2.2,3.39a3.84,3.84,0,0,0,2.56-1.22v.21a7.45,7.45,0,0,1-5.57,2.83C170.21,87.24,168.21,85.56,168.25,82.76Zm1.4-9.9c0-1.79,1.61-3.61,6.37-3.82v.21a2.56,2.56,0,0,0-2.24,2.56c0,1.26.87,2,2.27,2.13a3.93,3.93,0,0,1-3.36,1.68A2.8,2.8,0,0,1,169.65,72.86ZM179.8,83.29V72.58c0-1.72-.67-3.08-2.38-3.33V69c5.81.21,8.12,2.42,8.12,7v8.51c0,1,.35,1.43,1,1.43s1.12-.52,1.68-1.57h.21c-.56,1.92-2.45,2.83-4.55,2.83C181.06,87.24,179.8,86.26,179.8,83.29Z"/><path class="cls-1" d="M197.89,84.9c0,.87.53,1.78,2.63,1.78v.21h-11v-.21c2.1,0,2.63-.91,2.63-1.78V72.47c0-1.26-.6-1.85-2.59-1.85v-.21A21.3,21.3,0,0,0,197.89,69Zm9.45-12.08a3.74,3.74,0,0,1-3.6,4,2.39,2.39,0,0,1-2-.77,2.55,2.55,0,0,0,1.37-2.38,1.86,1.86,0,0,0-2-1.89,2.41,2.41,0,0,0-2.1,1.33v-.28A4.84,4.84,0,0,1,203.6,69,3.55,3.55,0,0,1,207.34,72.82Z"/><path class="cls-1" d="M52.79,121.73l.14.28a9.62,9.62,0,0,1-8.44,4.23c-5.7,0-12.81-4.06-12.81-12.21,0-8.86,6.93-12.15,12-12.29V102c-2.45.53-5.11,2.83-5.11,11.83s3.61,11.06,7.56,11.06A8.61,8.61,0,0,0,52.79,121.73Zm.28-20v8.51h-.28c-1.37-4.66-4-7.35-7.39-8.3v-.21c3.05.14,4.9.66,6.34,1.61l1-1.61Z"/><path class="cls-1" d="M55.72,121.76c0-3,2.8-4.76,6.72-4.76h3.79v.21h-1c-2.52,0-3.71,1.65-3.71,3.82,0,1.92.55,3.39,2.2,3.39a3.84,3.84,0,0,0,2.56-1.22v.21a7.45,7.45,0,0,1-5.57,2.83C57.68,126.24,55.69,124.56,55.72,121.76Zm1.4-9.9c0-1.79,1.61-3.61,6.38-3.82v.21a2.56,2.56,0,0,0-2.24,2.56c0,1.26.87,2,2.27,2.13a3.93,3.93,0,0,1-3.36,1.68A2.81,2.81,0,0,1,57.12,111.86Zm10.16,10.43V111.58c0-1.72-.67-3.08-2.38-3.33V108c5.81.21,8.12,2.42,8.12,7v8.51c0,1,.35,1.43,1,1.43s1.12-.52,1.68-1.57h.21c-.56,1.92-2.45,2.83-4.55,2.83C68.54,126.24,67.28,125.26,67.28,122.29Z"/><path class="cls-1" d="M85.37,123.9c0,.87.53,1.78,2.63,1.78v.21H77v-.21c2.1,0,2.63-.91,2.63-1.78V111.47c0-1.26-.6-1.85-2.6-1.85v-.21A21.32,21.32,0,0,0,85.37,108ZM97,113V123.9c0,.87.49,1.78,2.59,1.78v.21h-11v-.21c2.07,0,2.63-.91,2.63-1.78V113c0-2-.77-3-2.45-3a3.07,3.07,0,0,0-2.31,1v-.21a5.65,5.65,0,0,1,5.11-2.8C94.89,108,97,109.51,97,113Zm11.59,0V123.9c0,.87.52,1.78,2.62,1.78v.21h-11v-.21c2.06,0,2.62-.91,2.62-1.78V113c0-2-.77-3-2.45-3a3.08,3.08,0,0,0-2.31,1v-.21a5.67,5.67,0,0,1,5.11-2.8C106.48,108,108.58,109.51,108.58,113Z"/><path class="cls-1" d="M120.54,131.21c0,1.26.6,1.86,2.6,1.86v.21a23.06,23.06,0,0,0-8.37,1.36v-23.2c0-1.26-.6-1.86-2.59-1.86v-.21a23,23,0,0,0,8.36-1.36ZM133.88,117c0,7.31-3.85,9.27-7.17,9.27a6.54,6.54,0,0,1-5.11-2.83v-.21a4.92,4.92,0,0,0,2.94,1.22c1.64,0,3.39-1.15,3.39-7.45s-1.64-7.14-3.39-7.14a3.93,3.93,0,0,0-2.94,1.29v-.28a6.51,6.51,0,0,1,5.11-2.8C130.1,108,133.88,110,133.88,117Z"/><path class="cls-1" d="M137,117.07a8.67,8.67,0,0,1,8.57-9v.21c-2.06.25-2.62,2-2.62,8.68,0,5,2.24,7.81,5.36,7.81a7.62,7.62,0,0,0,5.11-1.86v.21c-1.82,2.31-5.15,3.15-7.43,3.15A8.87,8.87,0,0,1,137,117.07Zm7.88-1.47c3.08,0,4.37-1,4.37-3.92,0-1.68-.7-3.22-2.28-3.43V108c4.63,0,6.87,3.29,6.87,5.95a9.85,9.85,0,0,1-.18,1.82h-8.78Z"/><path class="cls-1" d="M164.43,123.9c0,.87.53,1.78,2.63,1.78v.21H156v-.21c2.1,0,2.63-.91,2.63-1.78V111.47c0-1.26-.6-1.85-2.59-1.85v-.21a21.3,21.3,0,0,0,8.36-1.37Zm9.46-12.08a3.75,3.75,0,0,1-3.61,4,2.39,2.39,0,0,1-2-.77,2.55,2.55,0,0,0,1.37-2.38,1.86,1.86,0,0,0-2-1.89,2.41,2.41,0,0,0-2.1,1.33v-.28a4.84,4.84,0,0,1,4.55-3.78A3.55,3.55,0,0,1,173.89,111.82Z"/><path class="cls-1" d="M197.3,121.73l.14.28a9.62,9.62,0,0,1-8.44,4.23c-5.7,0-12.81-4.06-12.81-12.21,0-8.86,6.93-12.15,12-12.29V102c-2.45.53-5.11,2.83-5.11,11.83s3.61,11.06,7.56,11.06A8.59,8.59,0,0,0,197.3,121.73Zm.28-20v8.51h-.28c-1.37-4.66-4-7.35-7.39-8.3v-.21c3.05.14,4.9.66,6.34,1.61l1.05-1.61Z"/><path class="cls-1" d="M200.24,121.76c0-3,2.8-4.76,6.72-4.76h3.78v.21h-1.05c-2.52,0-3.71,1.65-3.71,3.82,0,1.92.56,3.39,2.2,3.39a3.84,3.84,0,0,0,2.56-1.22v.21a7.45,7.45,0,0,1-5.57,2.83C202.2,126.24,200.2,124.56,200.24,121.76Zm1.4-9.9c0-1.79,1.61-3.61,6.37-3.82v.21a2.56,2.56,0,0,0-2.24,2.56c0,1.26.87,2,2.27,2.13a3.93,3.93,0,0,1-3.36,1.68A2.8,2.8,0,0,1,201.64,111.86Zm10.15,10.43V111.58c0-1.72-.67-3.08-2.38-3.33V108c5.81.21,8.12,2.42,8.12,7v8.51c0,1,.35,1.43,1,1.43s1.12-.52,1.68-1.57h.21c-.56,1.92-2.45,2.83-4.55,2.83C213.05,126.24,211.79,125.26,211.79,122.29Z"/><path class="cls-1" d="M229.88,123.9c0,.87.53,1.78,2.63,1.78v.21h-11v-.21c2.1,0,2.63-.91,2.63-1.78V111.47c0-1.26-.6-1.85-2.59-1.85v-.21a21.3,21.3,0,0,0,8.36-1.37Zm9.45-12.08a3.74,3.74,0,0,1-3.6,4,2.39,2.39,0,0,1-2-.77,2.55,2.55,0,0,0,1.37-2.38,1.86,1.86,0,0,0-2-1.89,2.41,2.41,0,0,0-2.1,1.33v-.28a4.84,4.84,0,0,1,4.55-3.78A3.55,3.55,0,0,1,239.33,111.82Z"/><path class="cls-1" d="M241.22,117.07a8.67,8.67,0,0,1,8.58-9v.21c-2.07.25-2.63,2-2.63,8.68,0,5,2.24,7.81,5.36,7.81a7.62,7.62,0,0,0,5.11-1.86v.21c-1.82,2.31-5.15,3.15-7.42,3.15A8.87,8.87,0,0,1,241.22,117.07Zm7.88-1.47c3.08,0,4.37-1,4.37-3.92,0-1.68-.7-3.22-2.27-3.43V108c4.62,0,6.86,3.29,6.86,5.95a9.85,9.85,0,0,1-.18,1.82H249.1Z"/><path class="cls-1" d="M43.9,149.84v.28A4,4,0,0,0,41,148.83c-1.75,0-3.4.8-3.4,7.14s1.75,7.45,3.4,7.45a5,5,0,0,0,2.94-1.22v.21a6.57,6.57,0,0,1-5.11,2.83c-3.33,0-7.18-2-7.18-9.27,0-7,3.78-8.93,7.18-8.93A6.54,6.54,0,0,1,43.9,149.84Zm6.82,20.37c0,1.26.6,1.86,2.59,1.86v.21A23,23,0,0,0,45,173.64v-25.3A22.4,22.4,0,0,0,50.72,147Z"/><path class="cls-1" d="M62.45,160.31c0,2,.66,3,2.41,3a3.11,3.11,0,0,0,2.42-1.08v.21a5.85,5.85,0,0,1-5.43,2.83c-3.15,0-5.18-1.47-5.18-4.93v-9.84c0-1.26-.59-1.85-2.59-1.85v-.21A21.36,21.36,0,0,0,62.45,147Zm11.65,2.24c0,1,.32,1.43,1,1.43s1.12-.52,1.68-1.57h.21c-.56,1.92-2.45,2.83-4.76,2.83s-3.85-1.4-3.85-3.43V150.47c0-1.26-.6-1.85-2.49-1.85v-.21A22.65,22.65,0,0,0,74.1,147Z"/><path class="cls-1" d="M87.68,147.25c-2.07.25-2.76,2-2.76,8.82,0,6.58.69,8.75,2.76,9v.21A8.93,8.93,0,0,1,79,156.07a8.78,8.78,0,0,1,8.72-9Zm10.08,8.82a8.91,8.91,0,0,1-8.68,9.17V165c2.07-.21,2.73-2.41,2.73-9,0-6.86-.7-8.61-2.73-8.82V147A8.72,8.72,0,0,1,97.76,156.07Z"/><path class="cls-1" d="M113.65,162.2v.21a7.32,7.32,0,0,1-6,2.83c-3.15,0-5.4-1.43-5.4-4.93V148.83h-1.82l.39-.53h1.43v-3.78a8.9,8.9,0,0,0,5.75-2v5.74h4.72l-.38.53H108v11.58c0,1.75.66,3.57,2.31,3.57A5.15,5.15,0,0,0,113.65,162.2Z"/><path class="cls-1" d="M114.94,156.07a8.67,8.67,0,0,1,8.58-9v.21c-2.07.25-2.63,2-2.63,8.68,0,5,2.25,7.81,5.36,7.81a7.58,7.58,0,0,0,5.11-1.86v.21c-1.82,2.31-5.14,3.15-7.42,3.15A8.87,8.87,0,0,1,114.94,156.07Zm7.88-1.47c3.08,0,4.37-1,4.37-3.92,0-1.68-.69-3.22-2.27-3.43V147c4.62,0,6.86,3.29,6.86,6a10.8,10.8,0,0,1-.17,1.82h-8.79Z"/></svg>