<?xml version="1.0" encoding="utf-8"?>
<!-- Generator: Adobe Illustrator 24.0.3, SVG Export Plug-In . SVG Version: 6.00 Build 0)  -->
<svg version="1.1" id="Layer_1" xmlns="http://www.w3.org/2000/svg" xmlns:xlink="http://www.w3.org/1999/xlink" x="0px" y="0px"
	 viewBox="0 0 320 480" style="enable-background:new 0 0 320 480;" xml:space="preserve">
<style type="text/css">
	.st0{enable-background:new    ;}
	.st1{fill:#FFFFFF;}
</style>
<title>Artboard 1 copy</title>
<g class="st0">
	<path class="st1" d="M37.5,82.3l0.2,0.3c-2,3.2-5.6,4.7-9.3,4.7c-6.3,0-14.2-4.5-14.2-13.5c0-9.8,7.7-13.4,13.3-13.6v0.2
		c-2.7,0.6-5.7,3.1-5.7,13.1c0,9.9,4,12.2,8.4,12.2C33.6,85.7,36.1,83.9,37.5,82.3z M37.8,60.1v9.4h-0.3c-1.5-5.2-4.4-8.1-8.2-9.2
		v-0.2c3.4,0.2,5.4,0.7,7,1.8l1.2-1.8H37.8z"/>
	<path class="st1" d="M49.3,81.8c0,2.2,0.7,3.3,2.7,3.3c1,0,1.8-0.3,2.7-1.2v0.2c-0.9,1.7-2.9,3.1-6,3.1c-3.5,0-5.7-1.6-5.7-5.5
		V70.9c0-1.4-0.7-2.1-2.9-2.1v-0.2c3.6,0,6.5-0.4,9.3-1.5V81.8z M62.2,84.3c0,1.1,0.3,1.6,1,1.6c0.6,0,1.2-0.6,1.9-1.7h0.2
		c-0.6,2.1-2.7,3.1-5.3,3.1c-2.7,0-4.3-1.6-4.3-3.8V70.9c0-1.4-0.7-2.1-2.8-2.1v-0.2c3.5,0,5.9-0.4,9.1-1.5V84.3z"/>
	<path class="st1" d="M74.3,82.3c-1.3,0-2.2,0.8-2.2,1.9c0,1.1,0.8,2.6,3.4,2.8v0.2c-5.2-0.2-8-1.6-8-3.8c0-1.8,1.6-2.9,3.3-2.9
		C72.5,80.6,73.8,81.3,74.3,82.3z M75.6,67.4c-1.4,0.3-2.8,1-2.8,2.6c0.1,4.5,12.7,5.2,12.7,11.4c0,3.8-3.2,5.7-8.2,5.9V87
		c1.6-0.3,3.4-0.9,3.4-2.9c0-4-12.7-5.5-12.7-11.4c0-3.4,3.2-5.5,7.6-5.7V67.4z M84.8,71.1c0,1.2-0.9,2.4-2.9,2.4
		c-1.6,0-2.8-0.7-3.3-1.9c1.2-0.1,1.8-0.9,1.7-1.8c0-1.2-1.5-2.3-3-2.5v-0.2C81.7,67.4,84.8,68.9,84.8,71.1z"/>
</g>
<g class="st0">
	<path class="st1" d="M103.1,83.9v0.2c-1.2,1.8-3.7,3.1-6.6,3.1c-3.5,0-6-1.6-6-5.5V69.1h-2l0.4-0.6h1.6v-4.2c2.4,0,4.7-0.7,6.4-2.2
		v6.4h5.2l-0.4,0.6h-4.8v12.8c0,1.9,0.7,4,2.6,4C100.5,85.9,101.8,85.2,103.1,83.9z"/>
</g>
<g class="st0">
	<path class="st1" d="M114.2,67.4c-2.3,0.3-3.1,2.2-3.1,9.8c0,7.3,0.8,9.7,3.1,9.9v0.2c-4.5,0-9.7-3.6-9.7-10.2c0-6.5,5.1-10,9.7-10
		V67.4z M125.4,77.1c0,6.5-5.2,10.2-9.6,10.2V87c2.3-0.2,3-2.7,3-9.9c0-7.6-0.8-9.5-3-9.8v-0.2C120.2,67.1,125.4,70.6,125.4,77.1z"
		/>
	<path class="st1" d="M137.2,84.7c0,1,0.6,2,2.9,2v0.2h-12.2v-0.2c2.3,0,2.9-1,2.9-2V70.9c0-1.4-0.7-2.1-2.9-2.1v-0.2
		c3.6,0,6.5-0.4,9.3-1.5V84.7z M150.1,72.6v12.1c0,1,0.5,2,2.9,2v0.2h-12.2v-0.2c2.3,0,2.9-1,2.9-2V72.6c0-2.2-0.9-3.3-2.7-3.3
		c-1.1,0-2.1,0.5-2.6,1.2v-0.2c0.9-1.6,2.8-3.1,5.7-3.1C147.8,67.1,150.1,68.8,150.1,72.6z M162.9,72.6v12.1c0,1,0.6,2,2.9,2v0.2
		h-12.2v-0.2c2.3,0,2.9-1,2.9-2V72.6c0-2.2-0.9-3.3-2.7-3.3c-1.1,0-2.1,0.5-2.6,1.2v-0.2c0.9-1.6,2.8-3.1,5.7-3.1
		C160.6,67.1,162.9,68.8,162.9,72.6z"/>
	<path class="st1" d="M167.3,68.6c3.6,0,6.5-0.4,9.3-1.5v17.6c0,1,0.6,2,2.9,2v0.2h-12.2v-0.2c2.3,0,2.9-1,2.9-2V70.9
		c0-1.4-0.7-2.1-2.9-2.1V68.6z M169.3,61.3c0-2,1.6-3.4,4-3.4c2.3,0,4,1.4,4,3.4c0,2.1-1.6,3.4-4,3.4
		C170.9,64.7,169.3,63.4,169.3,61.3z"/>
	<path class="st1" d="M188.5,82.3c-1.3,0-2.2,0.8-2.2,1.9c0,1.1,0.8,2.6,3.4,2.8v0.2c-5.2-0.2-8-1.6-8-3.8c0-1.8,1.5-2.9,3.3-2.9
		C186.7,80.6,187.9,81.3,188.5,82.3z M189.8,67.4c-1.4,0.3-2.8,1-2.8,2.6c0.1,4.5,12.7,5.2,12.7,11.4c0,3.8-3.2,5.7-8.2,5.9V87
		c1.6-0.3,3.4-0.9,3.4-2.9c0-4-12.7-5.5-12.7-11.4c0-3.4,3.2-5.5,7.6-5.7V67.4z M199,71.1c0,1.2-0.9,2.4-2.9,2.4
		c-1.6,0-2.8-0.7-3.3-1.9c1.2-0.1,1.8-0.9,1.7-1.8c0-1.2-1.5-2.3-3-2.5v-0.2C195.9,67.4,199,68.9,199,71.1z"/>
	<path class="st1" d="M202.9,77.1c0-6.5,5-10,9.5-10v0.2c-2.3,0.3-2.9,2.2-2.9,9.6c0,5.6,2.5,8.6,5.9,8.6c2.2,0,3.8-0.6,5.7-2.1v0.2
		c-2,2.6-5.7,3.5-8.2,3.5C207.9,87.3,202.9,83.6,202.9,77.1z M211.7,75.5c3.4,0,4.8-1.1,4.8-4.3c0-1.9-0.8-3.6-2.5-3.8v-0.2
		c5.1,0,7.6,3.6,7.6,6.6c0,0.6-0.1,1.4-0.2,2h-9.7V75.5z"/>
	<path class="st1" d="M238.5,70.2v0.3c-0.9-1-2-1.4-3.2-1.4c-1.9,0-3.8,0.9-3.8,7.9c0,7,2,8.3,3.8,8.3c1.2,0,2.2-0.6,3.2-1.4v0.2
		c-1,1.6-3.4,3.1-5.6,3.1c-3.7,0-8-2.2-8-10.3c0-7.7,4.2-9.9,8-9.9C235.1,67.1,237.6,68.6,238.5,70.2z M246.1,84.3
		c0,1.1,0.3,1.6,1,1.6c0.6,0,1.2-0.6,1.9-1.7h0.2c-0.6,2.1-2.7,3.1-5,3.1c-3.1,0-4.5-1.1-4.5-4.4V62.2c0-1.4-0.7-2.1-2.9-2.1v-0.2
		c3.6,0,6-0.4,9.3-1.5V84.3z"/>
</g>
<g class="st0">
	<path class="st1" d="M28.2,122.7v0.2c-1.2,1.8-3.7,3.1-6.6,3.1c-3.5,0-6-1.6-6-5.5v-12.7h-2l0.4-0.6h1.6v-4.2
		c2.4,0,4.7-0.7,6.4-2.2v6.4h5.2l-0.4,0.6H22v12.8c0,1.9,0.7,4,2.6,4C25.6,124.6,26.9,123.9,28.2,122.7z"/>
</g>
<g class="st0">
	<path class="st1" d="M39.3,106.1c-2.3,0.3-3.1,2.2-3.1,9.8c0,7.3,0.8,9.7,3.1,9.9v0.2c-4.5,0-9.7-3.6-9.7-10.2c0-6.5,5.1-10,9.7-10
		V106.1z M50.5,115.9c0,6.5-5.2,10.2-9.6,10.2v-0.2c2.3-0.2,3-2.7,3-9.9c0-7.6-0.8-9.5-3-9.8v-0.2C45.3,105.9,50.5,109.3,50.5,115.9
		z"/>
</g>
<g class="st0">
	<path class="st1" d="M62.6,107.9c-0.4-0.8-0.9-1.4-2.1-1.4v-0.2h10.9v0.2c-1.4,0-1.9,0.9-1.2,2.3l5.1,10.6l-3.3,6.3h-0.2
		L62.6,107.9z M60.9,131.9c0-1.7,1.3-3.1,3.4-3.6c-0.1,0.3-0.2,0.7-0.2,1c0,1.5,0.8,2.6,2.3,2.6c1.4,0,2.4-1.4,3.9-3.9h0.3
		c-2.1,4-3.6,7.4-6.3,7.4C62.1,135.3,60.9,133.9,60.9,131.9z M76.8,115.6c0.7-1.2,1.1-2.9,1.1-5c0-2.1-1.2-4.1-4-4.1v-0.2h9.7v0.2
		c-1.3,0-1.8,0.5-2.5,1.8l-4,7.6L76.8,115.6z"/>
</g>
<g class="st0">
	<path class="st1" d="M93.4,106.1c-2.3,0.3-3.1,2.2-3.1,9.8c0,7.3,0.8,9.7,3.1,9.9v0.2c-4.5,0-9.7-3.6-9.7-10.2c0-6.5,5.1-10,9.7-10
		V106.1z M104.6,115.9c0,6.5-5.2,10.2-9.6,10.2v-0.2c2.3-0.2,3-2.7,3-9.9c0-7.6-0.8-9.5-3-9.8v-0.2
		C99.5,105.9,104.6,109.3,104.6,115.9z"/>
	<path class="st1" d="M116,120.6c0,2.2,0.7,3.3,2.7,3.3c1,0,1.8-0.3,2.7-1.2v0.2c-0.9,1.7-2.9,3.1-6,3.1c-3.5,0-5.7-1.6-5.7-5.5
		v-10.9c0-1.4-0.7-2.1-2.9-2.1v-0.2c3.6,0,6.5-0.4,9.3-1.5V120.6z M128.9,123.1c0,1.1,0.3,1.6,1,1.6c0.6,0,1.2-0.6,1.9-1.7h0.2
		c-0.6,2.1-2.7,3.1-5.3,3.1c-2.7,0-4.3-1.6-4.3-3.8v-12.6c0-1.4-0.7-2.1-2.8-2.1v-0.2c3.5,0,5.9-0.4,9.1-1.5V123.1z"/>
</g>
<g class="st0">
	<path class="st1" d="M142.9,123.4c0,1,0.6,2,2.9,2v0.2h-12.2v-0.2c2.3,0,2.9-1,2.9-2v-13.8c0-1.4-0.7-2.1-2.9-2.1v-0.2
		c3.6,0,6.5-0.4,9.3-1.5V123.4z M153.4,110.1c0,2.7-1.9,4.4-4,4.4c-0.9,0-1.7-0.2-2.2-0.9c0.7-0.4,1.5-1.2,1.5-2.6
		c0-1.1-0.8-2.1-2.2-2.1c-1,0-1.8,0.6-2.3,1.5v-0.3c0.7-2.5,2.6-4.2,5-4.2C151.9,105.9,153.4,107.7,153.4,110.1z"/>
</g>
<g class="st0">
	<path class="st1" d="M13.2,164.2c2.3,0,2.9-1,2.9-2v-13.8c0-1.4-0.7-2.1-2.9-2.1v-0.2c3.6,0,6.5-0.4,9.3-1.5v17.6c0,1,0.6,2,2.9,2
		v0.2H13.2V164.2z M26.8,164.2c2.3,0,2.9-1,2.9-2v-12.1c0-2.2-1.1-3.3-3.1-3.3c-1.1,0-2,0.3-2.9,1.2v-0.2c1-1.6,3.6-3.1,6.4-3.1
		c3.5,0,6,1.6,6,5.5v12.1c0,1,0.6,2,2.9,2v0.2H26.8V164.2z"/>
	<path class="st1" d="M41.1,154.7c0-6.5,5-10,9.5-10v0.2c-2.3,0.3-2.9,2.2-2.9,9.6c0,5.6,2.5,8.6,5.9,8.6c2.2,0,3.8-0.6,5.7-2.1v0.2
		c-2,2.6-5.7,3.5-8.2,3.5C46.1,164.8,41.1,161.2,41.1,154.7z M49.8,153c3.4,0,4.8-1.1,4.8-4.3c0-1.9-0.8-3.6-2.5-3.8v-0.2
		c5.1,0,7.6,3.6,7.6,6.6c0,0.6-0.1,1.4-0.2,2h-9.7V153z"/>
	<path class="st1" d="M62.9,154.7c0-6.5,5-10,9.5-10v0.2c-2.3,0.3-2.9,2.2-2.9,9.6c0,5.6,2.5,8.6,5.9,8.6c2.2,0,3.8-0.6,5.7-2.1v0.2
		c-2,2.6-5.7,3.5-8.2,3.5C67.9,164.8,62.9,161.2,62.9,154.7z M71.6,153c3.4,0,4.8-1.1,4.8-4.3c0-1.9-0.8-3.6-2.5-3.8v-0.2
		c5.1,0,7.6,3.6,7.6,6.6c0,0.6-0.1,1.4-0.2,2h-9.7V153z"/>
	<path class="st1" d="M98.5,147.8v0.3c-0.9-1-2-1.4-3.2-1.4c-1.9,0-3.8,0.9-3.8,7.9c0,7,2,8.3,3.8,8.3c1.2,0,2.2-0.6,3.2-1.4v0.2
		c-1,1.6-3.4,3.1-5.6,3.1c-3.7,0-8-2.2-8-10.3c0-7.7,4.2-9.9,8-9.9C95.1,144.7,97.5,146.1,98.5,147.8z M106,161.8
		c0,1.1,0.3,1.6,1,1.6c0.6,0,1.2-0.6,1.9-1.7h0.2c-0.6,2.1-2.7,3.1-5,3.1c-3.1,0-4.5-1.1-4.5-4.4v-20.7c0-1.4-0.7-2.1-2.9-2.1v-0.2
		c3.6,0,6-0.4,9.3-1.5V161.8z"/>
	<path class="st1" d="M118.2,159.8c-1.3,0-2.2,0.8-2.2,1.9c0,1.1,0.8,2.6,3.4,2.8v0.2c-5.2-0.2-8-1.6-8-3.8c0-1.8,1.6-2.9,3.3-2.9
		C116.3,158.1,117.6,158.8,118.2,159.8z M119.4,144.9c-1.4,0.3-2.8,1-2.8,2.6c0.1,4.5,12.7,5.2,12.7,11.4c0,3.8-3.2,5.7-8.2,5.9
		v-0.2c1.6-0.3,3.4-0.9,3.4-2.9c0-4-12.7-5.5-12.7-11.4c0-3.4,3.2-5.5,7.6-5.7V144.9z M128.6,148.6c0,1.2-0.9,2.4-2.9,2.4
		c-1.6,0-2.8-0.7-3.3-1.9c1.2-0.1,1.8-0.9,1.7-1.8c0-1.2-1.5-2.3-3-2.5v-0.2C125.5,144.9,128.6,146.5,128.6,148.6z"/>
</g>
</svg>
