<svg id="Layer_1" data-name="Layer 1" xmlns="http://www.w3.org/2000/svg" viewBox="0 0 320 480"><defs><style>.cls-1{fill:none;}.cls-2{fill:#263845;}</style></defs><title>Artboard 1</title><rect class="cls-1" x="0.62" width="320" height="480"/><path class="cls-2" d="M31.5,86.68c2.11,0,2.63-.8,2.63-1.78V65.08c0-1-.52-1.78-2.63-1.78v-.21h8.58V84.9c0,1,.53,1.78,2.63,1.78v.21H31.5ZM41.83,63.3v-.21h9.63v7h-.28C49.57,65.12,47.15,63.65,41.83,63.3Zm1.93,11.9L41.83,75v-.21l1.93-.18a5.38,5.38,0,0,0,4.62-3h.28v6.51h-.28A5.35,5.35,0,0,0,43.76,75.2Z"/><path class="cls-2" d="M61.43,82.31c0,2,.67,3,2.42,3a3.09,3.09,0,0,0,2.41-1.08v.21a5.83,5.83,0,0,1-5.42,2.83c-3.15,0-5.18-1.47-5.18-4.93V72.47c0-1.26-.6-1.85-2.6-1.85v-.21A21.32,21.32,0,0,0,61.43,69Zm11.66,2.24c0,1,.31,1.43.94,1.43s1.12-.52,1.68-1.57h.21c-.56,1.92-2.45,2.83-4.76,2.83s-3.85-1.4-3.85-3.43V72.47c0-1.26-.59-1.85-2.48-1.85v-.21A22.65,22.65,0,0,0,73.09,69Z"/><path class="cls-2" d="M77.14,62.53a21.32,21.32,0,0,0,8.37-1.37V84.9c0,.87.52,1.78,2.63,1.78v.21h-11v-.21c2.1,0,2.62-.91,2.62-1.78V64.6c0-1.27-.59-1.86-2.59-1.86Z"/><path class="cls-2" d="M89.43,62.53a21.39,21.39,0,0,0,8.37-1.37V84.9c0,.87.52,1.78,2.62,1.78v.21h-11v-.21c2.1,0,2.63-.91,2.63-1.78V64.6c0-1.27-.6-1.86-2.59-1.86Z"/><path class="cls-2" d="M102.62,70.83a1.89,1.89,0,0,0-1.92-1.23v-.21h9.8v.21c-1.22,0-1.71.84-1.12,2.07L114,81.22l-3,5.67h-.21Zm-1.54,21.7c0-1.51,1.19-2.77,3.08-3.29a2.74,2.74,0,0,0-.13.87,2,2,0,0,0,2.06,2.35c1.23,0,2.21-1.3,3.54-3.54h.24c-1.92,3.61-3.25,6.72-5.71,6.72A2.91,2.91,0,0,1,101.08,92.53Zm14.36-14.74a9.64,9.64,0,0,0,1-4.51,3.39,3.39,0,0,0-3.57-3.68v-.21h8.71v.21c-1.15,0-1.61.46-2.27,1.65l-3.64,6.86Z"/><path class="cls-2" d="M40.19,108.25c-2.07.25-2.77,2-2.77,8.82,0,6.58.7,8.75,2.77,9v.21a8.92,8.92,0,0,1-8.72-9.17,8.78,8.78,0,0,1,8.72-9Zm10.08,8.82a8.92,8.92,0,0,1-8.68,9.17V126c2.06-.21,2.73-2.41,2.73-9,0-6.86-.7-8.61-2.73-8.82V108A8.72,8.72,0,0,1,50.27,117.07Z"/><path class="cls-2" d="M60.66,131.21c0,1.26.6,1.86,2.59,1.86v.21a23.13,23.13,0,0,0-8.37,1.36v-23.2c0-1.26-.59-1.86-2.59-1.86v-.21A23.06,23.06,0,0,0,60.66,108ZM74,117c0,7.31-3.85,9.27-7.18,9.27a6.57,6.57,0,0,1-5.11-2.83v-.21a5,5,0,0,0,2.94,1.22c1.65,0,3.4-1.15,3.4-7.45s-1.65-7.14-3.4-7.14a4,4,0,0,0-2.94,1.29v-.28a6.54,6.54,0,0,1,5.11-2.8C70.22,108,74,110,74,117Z"/><path class="cls-2" d="M90,123.2v.21a7.32,7.32,0,0,1-6,2.83c-3.15,0-5.39-1.43-5.39-4.93V109.83H76.83l.38-.53h1.44v-3.78a8.89,8.89,0,0,0,5.74-2v5.74h4.73l-.39.53H84.39v11.58c0,1.75.66,3.57,2.31,3.57A5.2,5.2,0,0,0,90,123.2Z"/><path class="cls-2" d="M90.93,109.37A21.54,21.54,0,0,0,99.3,108V123.9c0,.87.53,1.78,2.63,1.78v.21h-11v-.21c2.1,0,2.62-.91,2.62-1.78V111.44c0-1.26-.59-1.86-2.59-1.86Zm1.79-6.58c0-1.82,1.47-3.05,3.57-3.05s3.57,1.23,3.57,3.05-1.47,3.08-3.57,3.08S92.72,104.65,92.72,102.79Z"/><path class="cls-2" d="M112.74,108.25c-2.07.25-2.77,2-2.77,8.82,0,6.58.7,8.75,2.77,9v.21a8.92,8.92,0,0,1-8.72-9.17,8.78,8.78,0,0,1,8.72-9Zm10.08,8.82a8.92,8.92,0,0,1-8.68,9.17V126c2.06-.21,2.73-2.41,2.73-9,0-6.86-.7-8.61-2.73-8.82V108A8.72,8.72,0,0,1,122.82,117.07Z"/><path class="cls-2" d="M125.13,125.68c2.1,0,2.62-.91,2.62-1.78V111.47c0-1.26-.59-1.85-2.59-1.85v-.21a21.36,21.36,0,0,0,8.37-1.37V123.9c0,.87.52,1.78,2.62,1.78v.21h-11Zm12.32,0c2.06,0,2.59-.91,2.59-1.78V113c0-2-1-3-2.77-3a3.74,3.74,0,0,0-2.66,1.09v-.21a7.16,7.16,0,0,1,5.81-2.84c3.16,0,5.4,1.47,5.4,4.94V123.9c0,.87.52,1.78,2.62,1.78v.21h-11Z"/><path class="cls-2" d="M150.33,117.07a8.67,8.67,0,0,1,8.57-9v.21c-2.06.25-2.62,2-2.62,8.68,0,5,2.24,7.81,5.35,7.81a7.58,7.58,0,0,0,5.11-1.86v.21c-1.82,2.31-5.14,3.15-7.42,3.15A8.87,8.87,0,0,1,150.33,117.07Zm7.87-1.47c3.08,0,4.38-1,4.38-3.92,0-1.68-.7-3.22-2.28-3.43V108c4.62,0,6.86,3.29,6.86,5.95a10.8,10.8,0,0,1-.17,1.82H158.2Z"/><path class="cls-2" d="M182.46,110.84v.28a3.88,3.88,0,0,0-2.91-1.29c-1.75,0-3.43.8-3.43,7.14s1.79,7.45,3.43,7.45a4.86,4.86,0,0,0,2.91-1.22v.21a6.5,6.5,0,0,1-5.08,2.83c-3.32,0-7.21-2-7.21-9.27,0-7,3.82-8.93,7.21-8.93A6.47,6.47,0,0,1,182.46,110.84Zm6.82,12.71c0,1,.32,1.43.95,1.43s1.12-.52,1.68-1.57h.21c-.56,1.92-2.45,2.83-4.55,2.83-2.8,0-4.06-1-4.06-3.95V103.6c0-1.27-.6-1.86-2.59-1.86v-.21a22.83,22.83,0,0,0,8.36-1.37Z"/><path class="cls-2" d="M214.31,125.68v.21H203.07v-.21c2.1,0,2.63-.84,2.63-1.78V104.05c0-1-.53-1.75-2.63-1.75v-.21h8.58V123.9C211.65,124.84,212.17,125.68,214.31,125.68ZM228,123.41c-.56,1.92-2.63,2.83-5.18,2.83-4.55,0-5.6-3.15-5.81-6.09s-.49-5.11-3.57-5.56v-.21c3.22,0,4.65-2.8,4.65-6.3,0-3.93-1.43-5.78-4.65-5.78v-.21c7.1,0,10.6,1.57,10.6,6,0,3.78-2.8,6.09-8,6.4,6.37.28,7.35,2.77,7.7,5.67S224.81,125,226,125c.63,0,1.19-.52,1.75-1.57Z"/><path class="cls-2" d="M228.52,104.12c-.63-1.37-1.44-1.82-3.15-1.82v-.21H238v.21c-1.61,0-3,1-2.17,2.87l6.62,13.93-3.19,7.14h-.38Zm15.26,11.76c2-4.69,2.48-7.56,2.48-9.77a3.82,3.82,0,0,0-4-3.81v-.21h10.08v.14c-1.61,0-2.59,1.5-3.71,3.88l-4.76,10.09Z"/><path class="cls-2" d="M30.91,148.37A21.54,21.54,0,0,0,39.28,147V162.9c0,.87.52,1.78,2.62,1.78v.21h-11v-.21c2.11,0,2.63-.91,2.63-1.78V150.44c0-1.26-.59-1.86-2.59-1.86Zm1.79-6.58c0-1.82,1.47-3,3.57-3s3.57,1.23,3.57,3-1.47,3.08-3.57,3.08S32.7,143.65,32.7,141.79Z"/><path class="cls-2" d="M43.37,164.68c2.1,0,2.62-.91,2.62-1.78V150.47c0-1.26-.59-1.85-2.59-1.85v-.21A21.36,21.36,0,0,0,51.77,147V162.9c0,.87.53,1.78,2.63,1.78v.21h-11Zm12.32,0c2.07,0,2.59-.91,2.59-1.78V152c0-2-1-3-2.76-3a3.74,3.74,0,0,0-2.66,1.09v-.21A7.14,7.14,0,0,1,58.67,147c3.15,0,5.39,1.47,5.39,4.94V162.9c0,.87.52,1.78,2.62,1.78v.21h-11Z"/><path class="cls-2" d="M74.66,160.73a1.79,1.79,0,0,0-2,1.75c0,1,.7,2.31,3.12,2.55v.21c-4.66-.17-7.22-1.43-7.22-3.46a2.73,2.73,0,0,1,3-2.59A3.56,3.56,0,0,1,74.66,160.73Zm1.16-13.48c-1.3.25-2.56.91-2.53,2.35.11,4.06,11.45,4.72,11.45,10.29,0,3.39-2.87,5.18-7.38,5.35V165c1.47-.24,3.11-.77,3.11-2.59,0-3.64-11.48-5-11.48-10.29,0-3.08,2.9-4.93,6.83-5.11Zm8.26,3.4a2.29,2.29,0,0,1-2.59,2.17,3,3,0,0,1-3-1.68,1.57,1.57,0,0,0,1.58-1.65c0-1.05-1.33-2.06-2.73-2.24V147C81.31,147.25,84.08,148.69,84.08,150.65Z"/><path class="cls-2" d="M95.06,160.31c0,2,.67,3,2.42,3a3.13,3.13,0,0,0,2.42-1.08v.21a5.86,5.86,0,0,1-5.43,2.83c-3.15,0-5.18-1.47-5.18-4.93v-9.84c0-1.26-.6-1.85-2.59-1.85v-.21A21.3,21.3,0,0,0,95.06,147Zm11.66,2.24c0,1,.32,1.43,1,1.43s1.12-.52,1.68-1.57h.21c-.56,1.92-2.45,2.83-4.76,2.83s-3.85-1.4-3.85-3.43V150.47c0-1.26-.6-1.85-2.49-1.85v-.21a22.65,22.65,0,0,0,8.26-1.37Z"/><path class="cls-2" d="M119.35,162.9c0,.87.53,1.78,2.63,1.78v.21H111v-.21c2.1,0,2.63-.91,2.63-1.78V150.47c0-1.26-.6-1.85-2.59-1.85v-.21a21.3,21.3,0,0,0,8.36-1.37Zm9.46-12.08a3.75,3.75,0,0,1-3.61,4,2.4,2.4,0,0,1-2-.77,2.55,2.55,0,0,0,1.37-2.38,1.86,1.86,0,0,0-2-1.89,2.41,2.41,0,0,0-2.1,1.33v-.28a4.85,4.85,0,0,1,4.55-3.78A3.55,3.55,0,0,1,128.81,150.82Z"/><path class="cls-2" d="M130.31,160.76c0-3,2.8-4.76,6.72-4.76h3.78v.21h-1.05c-2.52,0-3.71,1.65-3.71,3.82,0,1.92.56,3.39,2.2,3.39a3.82,3.82,0,0,0,2.56-1.22v.21a7.43,7.43,0,0,1-5.57,2.83C132.27,165.24,130.27,163.56,130.31,160.76Zm1.4-9.9c0-1.79,1.61-3.61,6.37-3.82v.21a2.56,2.56,0,0,0-2.24,2.56c0,1.26.87,2,2.28,2.13a4,4,0,0,1-3.37,1.68A2.8,2.8,0,0,1,131.71,150.86Zm10.15,10.43V150.58c0-1.72-.66-3.08-2.38-3.33V147c5.81.21,8.12,2.42,8.12,7v8.51c0,1,.35,1.43,1,1.43s1.12-.52,1.68-1.57h.21c-.56,1.92-2.45,2.83-4.55,2.83C143.12,165.24,141.86,164.26,141.86,161.29Z"/><path class="cls-2" d="M151.55,164.68c2.1,0,2.63-.91,2.63-1.78V150.47c0-1.26-.6-1.85-2.59-1.85v-.21A21.3,21.3,0,0,0,160,147V162.9c0,.87.53,1.78,2.63,1.78v.21h-11Zm12.32,0c2.07,0,2.6-.91,2.6-1.78V152c0-2-1-3-2.77-3a3.74,3.74,0,0,0-2.66,1.09v-.21a7.14,7.14,0,0,1,5.81-2.84c3.15,0,5.39,1.47,5.39,4.94V162.9c0,.87.53,1.78,2.63,1.78v.21h-11Z"/><path class="cls-2" d="M185.71,147.25c-2.06.25-3,2-3,8.68,0,5,2.55,7.81,5.67,7.81a7.6,7.6,0,0,0,5.11-1.86v.21c-1.82,2.31-5.15,3.15-7.42,3.15a9.15,9.15,0,0,1-9.35-9.17,9,9,0,0,1,9-9Zm7.78,3.75a3.26,3.26,0,0,1-3.51,3.36,3,3,0,0,1-3-2.21,3,3,0,0,0,1.68-2.55,2.07,2.07,0,0,0-1.51-2.31V147C191.7,147,193.49,149,193.49,151Z"/><path class="cls-2" d="M196.11,156.07a8.67,8.67,0,0,1,8.57-9v.21c-2.06.25-2.62,2-2.62,8.68,0,5,2.24,7.81,5.35,7.81a7.62,7.62,0,0,0,5.12-1.86v.21c-1.83,2.31-5.15,3.15-7.43,3.15A8.87,8.87,0,0,1,196.11,156.07ZM204,154.6c3.08,0,4.38-1,4.38-3.92,0-1.68-.7-3.22-2.28-3.43V147c4.62,0,6.87,3.29,6.87,6a10.8,10.8,0,0,1-.18,1.82H204Z"/></svg>