<svg id="Layer_1" data-name="Layer 1" xmlns="http://www.w3.org/2000/svg" viewBox="0 0 320 480"><defs><style>.cls-1{fill:#fff;}</style></defs><title>Artboard 1 copy</title><path class="cls-1" d="M52.79,82.73l.14.28a9.62,9.62,0,0,1-8.44,4.23c-5.7,0-12.81-4.06-12.81-12.21,0-8.86,6.93-12.15,12-12.29V63c-2.45.53-5.11,2.83-5.11,11.83s3.61,11.06,7.56,11.06A8.61,8.61,0,0,0,52.79,82.73Zm.28-20v8.51h-.28c-1.37-4.66-4-7.35-7.39-8.3v-.21c3.05.14,4.9.66,6.34,1.61l1-1.61Z"/><path class="cls-1" d="M63.46,82.31c0,2,.67,3,2.42,3a3.09,3.09,0,0,0,2.41-1.08v.21a5.83,5.83,0,0,1-5.42,2.83c-3.16,0-5.19-1.47-5.19-4.93V72.47c0-1.26-.59-1.85-2.59-1.85v-.21A21.32,21.32,0,0,0,63.46,69Zm11.66,2.24c0,1,.31,1.43.94,1.43s1.12-.52,1.68-1.57H78c-.56,1.92-2.45,2.83-4.76,2.83s-3.85-1.4-3.85-3.43V72.47c0-1.26-.59-1.85-2.48-1.85v-.21A22.65,22.65,0,0,0,75.12,69Z"/><path class="cls-1" d="M86.07,82.73a1.79,1.79,0,0,0-2,1.75c0,1,.7,2.31,3.12,2.55v.21C82.57,87.07,80,85.81,80,83.78a2.73,2.73,0,0,1,3-2.59A3.55,3.55,0,0,1,86.07,82.73Zm1.16-13.48c-1.3.25-2.56.91-2.52,2.35.1,4.06,11.44,4.72,11.44,10.29,0,3.39-2.87,5.18-7.38,5.35V87c1.47-.24,3.11-.77,3.11-2.59,0-3.64-11.48-5-11.48-10.29,0-3.08,2.91-4.93,6.83-5.11Zm8.26,3.4a2.29,2.29,0,0,1-2.59,2.17,3,3,0,0,1-3-1.68,1.57,1.57,0,0,0,1.58-1.65c0-1-1.33-2.06-2.73-2.24V69C92.72,69.25,95.49,70.69,95.49,72.65Z"/><path class="cls-1" d="M112,84.2v.21a7.32,7.32,0,0,1-6,2.83c-3.16,0-5.4-1.43-5.4-4.93V70.83H98.84l.39-.53h1.43V66.52a8.9,8.9,0,0,0,5.75-2V70.3h4.72l-.38.53h-4.34V82.41c0,1.75.66,3.57,2.31,3.57A5.15,5.15,0,0,0,112,84.2Z"/><path class="cls-1" d="M122.05,69.25c-2.06.25-2.76,2-2.76,8.82,0,6.58.7,8.75,2.76,9v.21a8.92,8.92,0,0,1-8.72-9.17,8.78,8.78,0,0,1,8.72-9Zm10.08,8.82a8.91,8.91,0,0,1-8.68,9.17V87c2.07-.21,2.73-2.41,2.73-9,0-6.86-.7-8.61-2.73-8.82V69A8.72,8.72,0,0,1,132.13,78.07Z"/><path class="cls-1" d="M142.84,84.9c0,.87.52,1.78,2.62,1.78v.21h-11v-.21c2.1,0,2.62-.91,2.62-1.78V72.47c0-1.26-.59-1.85-2.59-1.85v-.21A21.36,21.36,0,0,0,142.84,69ZM154.46,74V84.9c0,.87.49,1.78,2.59,1.78v.21h-11v-.21c2.07,0,2.63-.91,2.63-1.78V74c0-2-.77-3-2.46-3a3.08,3.08,0,0,0-2.31,1v-.21A5.68,5.68,0,0,1,149,69C152.36,69,154.46,70.51,154.46,74Zm11.59,0V84.9c0,.87.52,1.78,2.62,1.78v.21h-11v-.21c2.06,0,2.62-.91,2.62-1.78V74c0-2-.77-3-2.45-3a3.08,3.08,0,0,0-2.31,1v-.21a5.67,5.67,0,0,1,5.11-2.8C164,69,166.05,70.51,166.05,74Z"/><path class="cls-1" d="M170,70.37A21.49,21.49,0,0,0,178.36,69V84.9c0,.87.53,1.78,2.63,1.78v.21H170v-.21c2.1,0,2.63-.91,2.63-1.78V72.44c0-1.26-.6-1.86-2.59-1.86Zm1.78-6.58c0-1.82,1.47-3,3.57-3s3.57,1.23,3.57,3-1.47,3.08-3.57,3.08S171.78,65.65,171.78,63.79Z"/><path class="cls-1" d="M189.18,82.73a1.79,1.79,0,0,0-2,1.75c0,1,.7,2.31,3.11,2.55v.21c-4.65-.17-7.21-1.43-7.21-3.46a2.73,2.73,0,0,1,3-2.59A3.56,3.56,0,0,1,189.18,82.73Zm1.15-13.48c-1.29.25-2.55.91-2.52,2.35.11,4.06,11.45,4.72,11.45,10.29,0,3.39-2.87,5.18-7.39,5.35V87c1.47-.24,3.12-.77,3.12-2.59,0-3.64-11.48-5-11.48-10.29,0-3.08,2.9-4.93,6.82-5.11Zm8.26,3.4A2.29,2.29,0,0,1,196,74.82a3,3,0,0,1-3-1.68,1.55,1.55,0,0,0,1.57-1.65c0-1-1.33-2.06-2.73-2.24V69C195.83,69.25,198.59,70.69,198.59,72.65Z"/><path class="cls-1" d="M202.2,78.07a8.67,8.67,0,0,1,8.57-9v.21c-2.06.25-2.62,2-2.62,8.68,0,5,2.24,7.81,5.35,7.81a7.58,7.58,0,0,0,5.11-1.86v.21c-1.82,2.31-5.14,3.15-7.42,3.15A8.87,8.87,0,0,1,202.2,78.07Zm7.87-1.47c3.08,0,4.38-1,4.38-3.92,0-1.68-.7-3.22-2.28-3.43V69C216.79,69,219,72.33,219,75a10.8,10.8,0,0,1-.17,1.82h-8.79Z"/><path class="cls-1" d="M234.33,71.84v.28a3.88,3.88,0,0,0-2.91-1.29c-1.75,0-3.43.8-3.43,7.14s1.79,7.45,3.43,7.45a4.86,4.86,0,0,0,2.91-1.22v.21a6.5,6.5,0,0,1-5.08,2.83c-3.32,0-7.21-2-7.21-9.27,0-7,3.82-8.93,7.21-8.93A6.47,6.47,0,0,1,234.33,71.84Zm6.82,12.71c0,1,.32,1.43.95,1.43s1.12-.52,1.68-1.57H244c-.56,1.92-2.45,2.83-4.55,2.83-2.8,0-4.06-1-4.06-3.95V64.6c0-1.27-.6-1.86-2.59-1.86v-.21a22.83,22.83,0,0,0,8.36-1.37Z"/><path class="cls-1" d="M44.42,123.2v.21a7.32,7.32,0,0,1-6,2.83c-3.15,0-5.39-1.43-5.39-4.93V109.83H31.23l.38-.53h1.44v-3.78a8.89,8.89,0,0,0,5.74-2v5.74h4.72l-.38.53H38.79v11.58c0,1.75.66,3.57,2.31,3.57A5.15,5.15,0,0,0,44.42,123.2Z"/><path class="cls-1" d="M54.43,108.25c-2.06.25-2.76,2-2.76,8.82,0,6.58.7,8.75,2.76,9v.21a8.92,8.92,0,0,1-8.71-9.17,8.77,8.77,0,0,1,8.71-9Zm10.08,8.82a8.91,8.91,0,0,1-8.68,9.17V126c2.07-.21,2.73-2.41,2.73-9,0-6.86-.7-8.61-2.73-8.82V108A8.72,8.72,0,0,1,64.51,117.07Z"/><path class="cls-1" d="M75.46,109.83a1.87,1.87,0,0,0-1.92-1.23v-.21h9.8v.21c-1.22,0-1.71.84-1.12,2.07l4.59,9.55-3,5.67h-.21Zm-1.54,21.7c0-1.51,1.2-2.77,3.09-3.29a2.51,2.51,0,0,0-.14.87,2,2,0,0,0,2.06,2.35c1.23,0,2.21-1.3,3.54-3.54h.24c-1.92,3.61-3.25,6.72-5.7,6.72A2.91,2.91,0,0,1,73.92,131.53Zm14.36-14.74a9.64,9.64,0,0,0,1-4.51,3.39,3.39,0,0,0-3.57-3.68v-.21H94.4v.21c-1.15,0-1.61.46-2.27,1.65l-3.64,6.86Z"/><path class="cls-1" d="M103.29,108.25c-2.06.25-2.76,2-2.76,8.82,0,6.58.7,8.75,2.76,9v.21a8.92,8.92,0,0,1-8.71-9.17,8.77,8.77,0,0,1,8.71-9Zm10.08,8.82a8.91,8.91,0,0,1-8.68,9.17V126c2.07-.21,2.73-2.41,2.73-9,0-6.86-.7-8.61-2.73-8.82V108A8.72,8.72,0,0,1,113.37,117.07Z"/><path class="cls-1" d="M123.7,121.31c0,2,.66,3,2.41,3a3.11,3.11,0,0,0,2.42-1.08v.21a5.85,5.85,0,0,1-5.43,2.83c-3.15,0-5.18-1.47-5.18-4.93v-9.84c0-1.26-.6-1.85-2.59-1.85v-.21A21.36,21.36,0,0,0,123.7,108Zm11.65,2.24c0,1,.32,1.43,1,1.43s1.12-.52,1.68-1.57h.21c-.56,1.92-2.45,2.83-4.76,2.83s-3.85-1.4-3.85-3.43V111.47c0-1.26-.6-1.85-2.49-1.85v-.21a22.65,22.65,0,0,0,8.26-1.37Z"/><path class="cls-1" d="M148,123.9c0,.87.52,1.78,2.62,1.78v.21h-11v-.21c2.1,0,2.63-.91,2.63-1.78V111.47c0-1.26-.6-1.85-2.59-1.85v-.21A21.39,21.39,0,0,0,148,108Zm9.45-12.08a3.75,3.75,0,0,1-3.61,4,2.37,2.37,0,0,1-2-.77,2.56,2.56,0,0,0,1.36-2.38,1.86,1.86,0,0,0-2-1.89,2.42,2.42,0,0,0-2.1,1.33v-.28a4.85,4.85,0,0,1,4.55-3.78A3.55,3.55,0,0,1,157.44,111.82Z"/><path class="cls-1" d="M30.84,164.68c2.1,0,2.63-.91,2.63-1.78V150.47c0-1.26-.6-1.85-2.59-1.85v-.21A21.3,21.3,0,0,0,39.24,147V162.9c0,.87.53,1.78,2.63,1.78v.21h-11Zm12.32,0c2.07,0,2.59-.91,2.59-1.78V152c0-2-1-3-2.76-3a3.74,3.74,0,0,0-2.66,1.09v-.21A7.14,7.14,0,0,1,46.14,147c3.15,0,5.39,1.47,5.39,4.94V162.9c0,.87.52,1.78,2.62,1.78v.21h-11Z"/><path class="cls-1" d="M56,156.07a8.67,8.67,0,0,1,8.58-9v.21c-2.07.25-2.63,2-2.63,8.68,0,5,2.24,7.81,5.36,7.81a7.62,7.62,0,0,0,5.11-1.86v.21c-1.82,2.31-5.15,3.15-7.42,3.15A8.87,8.87,0,0,1,56,156.07Zm7.88-1.47c3.08,0,4.37-1,4.37-3.92,0-1.68-.7-3.22-2.27-3.43V147c4.62,0,6.86,3.29,6.86,6a9.85,9.85,0,0,1-.18,1.82H63.92Z"/><path class="cls-1" d="M75.74,156.07a8.67,8.67,0,0,1,8.58-9v.21c-2.06.25-2.62,2-2.62,8.68,0,5,2.24,7.81,5.35,7.81a7.58,7.58,0,0,0,5.11-1.86v.21c-1.82,2.31-5.14,3.15-7.42,3.15A8.87,8.87,0,0,1,75.74,156.07Zm7.88-1.47c3.08,0,4.38-1,4.38-3.92,0-1.68-.7-3.22-2.28-3.43V147c4.62,0,6.86,3.29,6.86,6a10.8,10.8,0,0,1-.17,1.82H83.62Z"/><path class="cls-1" d="M107.88,149.84v.28a3.88,3.88,0,0,0-2.91-1.29c-1.75,0-3.43.8-3.43,7.14s1.79,7.45,3.43,7.45a4.86,4.86,0,0,0,2.91-1.22v.21a6.51,6.51,0,0,1-5.08,2.83c-3.33,0-7.21-2-7.21-9.27,0-7,3.81-8.93,7.21-8.93A6.49,6.49,0,0,1,107.88,149.84Zm6.82,12.71c0,1,.32,1.43,1,1.43s1.12-.52,1.68-1.57h.21c-.56,1.92-2.45,2.83-4.55,2.83-2.8,0-4.06-1-4.06-4V142.6c0-1.27-.6-1.86-2.59-1.86v-.21a22.83,22.83,0,0,0,8.36-1.37Z"/><path class="cls-1" d="M125.65,160.73a1.79,1.79,0,0,0-2,1.75c0,1,.7,2.31,3.12,2.55v.21c-4.66-.17-7.21-1.43-7.21-3.46a2.73,2.73,0,0,1,3-2.59A3.55,3.55,0,0,1,125.65,160.73Zm1.16-13.48c-1.3.25-2.56.91-2.52,2.35.1,4.06,11.45,4.72,11.45,10.29,0,3.39-2.87,5.18-7.39,5.35V165c1.47-.24,3.12-.77,3.12-2.59,0-3.64-11.49-5-11.49-10.29,0-3.08,2.91-4.93,6.83-5.11Zm8.26,3.4a2.29,2.29,0,0,1-2.59,2.17,3,3,0,0,1-3-1.68,1.56,1.56,0,0,0,1.58-1.65c0-1.05-1.33-2.06-2.73-2.24V147C132.31,147.25,135.07,148.69,135.07,150.65Z"/></svg>