<svg id="Layer_1" data-name="Layer 1" xmlns="http://www.w3.org/2000/svg" xmlns:xlink="http://www.w3.org/1999/xlink" viewBox="0 0 300 600"><defs><style>.cls-1{fill:none;}.cls-2{clip-path:url(#clip-path);}.cls-3{fill:#263845;}</style><clipPath id="clip-path"><rect class="cls-1" width="300" height="600"/></clipPath></defs><title>Artboard 1 copy 3</title><g class="cls-2"><path class="cls-3" d="M24.69,87.46c0-.95-.53-1.79-2.63-1.79v-.21h11.2v.21c-2.1,0-2.62.84-2.62,1.79v15.26c0,3.36.94,6.41,3.32,6.69v.21c-7.31,0-9.27-3.54-9.27-7Zm18.37,15.16c0,3.46-2.06,7-7.35,7v-.21a6.41,6.41,0,0,0,6.65-6.69V90.05c0-2.24-1.19-4.38-3.5-4.38v-.21h7.7v.21c-2.31,0-3.5,2.17-3.5,4.38Z"/><path class="cls-3" d="M47.19,109.06c2.1,0,2.63-.91,2.63-1.79V94.84c0-1.26-.6-1.85-2.59-1.85v-.21a21.3,21.3,0,0,0,8.36-1.37v15.86c0,.88.53,1.79,2.63,1.79v.21h-11Zm12.32,0c2.07,0,2.59-.91,2.59-1.79V96.35c0-2-1-3-2.76-3a3.74,3.74,0,0,0-2.66,1.09v-.21a7.14,7.14,0,0,1,5.81-2.84c3.15,0,5.39,1.47,5.39,4.94v10.92c0,.88.52,1.79,2.62,1.79v.21h-11Z"/><path class="cls-3" d="M79.57,104.86c0,3.32-2.28,4.76-5.78,4.76V87c0-1.26-.63-1.86-2.62-1.86V84.9a23.26,23.26,0,0,0,8.4-1.36Zm13.33-4.52c0,7.32-3.88,9.28-7.21,9.28a6.49,6.49,0,0,1-5.07-2.84v-.21a4.76,4.76,0,0,0,2.9,1.23c1.65,0,3.43-1.16,3.43-7.46s-1.68-7.14-3.43-7.14a3.86,3.86,0,0,0-2.9,1.29v-.28a6.45,6.45,0,0,1,5.07-2.8C89.09,91.41,92.9,93.37,92.9,100.34Z"/><path class="cls-3" d="M96,100.44a8.67,8.67,0,0,1,8.58-9v.21c-2.07.25-2.63,2-2.63,8.69,0,5,2.24,7.8,5.36,7.8a7.66,7.66,0,0,0,5.11-1.85v.21c-1.82,2.31-5.15,3.15-7.42,3.15A8.88,8.88,0,0,1,96,100.44ZM103.86,99c3.08,0,4.37-1,4.37-3.92,0-1.68-.7-3.22-2.27-3.43v-.21c4.62,0,6.86,3.29,6.86,6a9.77,9.77,0,0,1-.18,1.82h-8.78Z"/><path class="cls-3" d="M115.34,105.14c0-3,2.8-4.76,6.72-4.76h3.78v.21h-1a3.46,3.46,0,0,0-3.71,3.81c0,1.93.56,3.4,2.2,3.4a3.86,3.86,0,0,0,2.56-1.23v.21a7.46,7.46,0,0,1-5.57,2.84C117.3,109.62,115.3,107.94,115.34,105.14Zm1.4-9.91c0-1.79,1.61-3.61,6.37-3.82v.21a2.56,2.56,0,0,0-2.24,2.56c0,1.26.87,2,2.27,2.13A3.93,3.93,0,0,1,119.78,98,2.8,2.8,0,0,1,116.74,95.23Zm10.15,10.43V95c0-1.72-.67-3.08-2.38-3.33v-.21c5.81.21,8.12,2.42,8.12,7v8.51c0,1,.35,1.44,1,1.44s1.12-.53,1.68-1.58h.21c-.56,1.93-2.45,2.84-4.55,2.84C128.15,109.62,126.89,108.64,126.89,105.66Z"/><path class="cls-3" d="M150.16,106.57v.21a7.32,7.32,0,0,1-6,2.84c-3.15,0-5.39-1.44-5.39-4.94V93.2H137l.38-.53h1.44V88.89a8.84,8.84,0,0,0,5.74-2v5.74h4.72l-.38.53h-4.34v11.59c0,1.75.66,3.57,2.31,3.57A5.13,5.13,0,0,0,150.16,106.57Z"/><path class="cls-3" d="M151.28,105.14c0-3,2.8-4.76,6.72-4.76h3.78v.21h-1.05A3.46,3.46,0,0,0,157,104.4c0,1.93.56,3.4,2.21,3.4a3.83,3.83,0,0,0,2.55-1.23v.21a7.44,7.44,0,0,1-5.56,2.84C153.24,109.62,151.24,107.94,151.28,105.14Zm1.4-9.91c0-1.79,1.61-3.61,6.37-3.82v.21a2.56,2.56,0,0,0-2.24,2.56c0,1.26.88,2,2.28,2.13A3.94,3.94,0,0,1,155.73,98,2.8,2.8,0,0,1,152.68,95.23Zm10.15,10.43V95c0-1.72-.66-3.08-2.38-3.33v-.21c5.81.21,8.12,2.42,8.12,7v8.51c0,1,.35,1.44,1,1.44s1.12-.53,1.68-1.58h.21c-.56,1.93-2.45,2.84-4.55,2.84C164.09,109.62,162.83,108.64,162.83,105.66Z"/><path class="cls-3" d="M180.33,104.86c0,3.32-2.27,4.76-5.77,4.76V87c0-1.26-.63-1.86-2.63-1.86V84.9a23.22,23.22,0,0,0,8.4-1.36Zm13.34-4.52c0,7.32-3.89,9.28-7.21,9.28a6.51,6.51,0,0,1-5.08-2.84v-.21a4.81,4.81,0,0,0,2.91,1.23c1.64,0,3.43-1.16,3.43-7.46S186,93.2,184.29,93.2a3.88,3.88,0,0,0-2.91,1.29v-.28a6.47,6.47,0,0,1,5.08-2.8C189.85,91.41,193.67,93.37,193.67,100.34Z"/><path class="cls-3" d="M195.94,84.9a21.58,21.58,0,0,0,8.37-1.36v23.73c0,.88.52,1.79,2.62,1.79v.21h-11v-.21c2.11,0,2.63-.91,2.63-1.79V87c0-1.26-.59-1.86-2.59-1.86Z"/><path class="cls-3" d="M209,100.44a8.67,8.67,0,0,1,8.58-9v.21c-2.07.25-2.63,2-2.63,8.69,0,5,2.24,7.8,5.36,7.8a7.66,7.66,0,0,0,5.11-1.85v.21c-1.82,2.31-5.15,3.15-7.42,3.15A8.87,8.87,0,0,1,209,100.44ZM216.9,99c3.09,0,4.38-1,4.38-3.92,0-1.68-.7-3.22-2.27-3.43v-.21c4.62,0,6.86,3.29,6.86,6a9.77,9.77,0,0,1-.18,1.82H216.9Z"/><path class="cls-3" d="M30.32,146.27c0,.88.53,1.79,2.63,1.79v.21h-11v-.21c2.1,0,2.63-.91,2.63-1.79V133.84c0-1.26-.6-1.85-2.59-1.85v-.21a21.3,21.3,0,0,0,8.36-1.37Zm11.62-10.92v10.92c0,.88.49,1.79,2.59,1.79v.21h-11v-.21c2.07,0,2.63-.91,2.63-1.79V135.35c0-2-.77-3-2.45-3a3.07,3.07,0,0,0-2.31,1v-.21a5.65,5.65,0,0,1,5.11-2.8C39.84,130.41,41.94,131.88,41.94,135.35Zm11.59,0v10.92c0,.88.53,1.79,2.62,1.79v.21h-11v-.21c2.06,0,2.62-.91,2.62-1.79V135.35c0-2-.77-3-2.45-3a3.08,3.08,0,0,0-2.31,1v-.21a5.67,5.67,0,0,1,5.11-2.8C51.43,130.41,53.53,131.88,53.53,135.35Z"/><path class="cls-3" d="M66.76,130.62c-2.07.25-2.77,2-2.77,8.82,0,6.59.7,8.76,2.77,9v.21A8.92,8.92,0,0,1,58,139.44a8.78,8.78,0,0,1,8.72-9Zm10.08,8.82a8.93,8.93,0,0,1-8.68,9.18v-.21c2.06-.21,2.73-2.42,2.73-9,0-6.86-.7-8.61-2.73-8.82v-.21A8.72,8.72,0,0,1,76.84,139.44Z"/><path class="cls-3" d="M92.73,145.57v.21a7.33,7.33,0,0,1-6,2.84c-3.15,0-5.39-1.44-5.39-4.94V132.2H79.53l.39-.53h1.43v-3.78a8.8,8.8,0,0,0,5.74-2v5.74h4.73l-.39.53H87.09v11.59c0,1.75.67,3.57,2.31,3.57A5.17,5.17,0,0,0,92.73,145.57Z"/><path class="cls-3" d="M102.74,130.62c-2.07.25-2.77,2-2.77,8.82,0,6.59.7,8.76,2.77,9v.21A8.92,8.92,0,0,1,94,139.44a8.78,8.78,0,0,1,8.72-9Zm10.08,8.82a8.93,8.93,0,0,1-8.68,9.18v-.21c2.06-.21,2.73-2.42,2.73-9,0-6.86-.7-8.61-2.73-8.82v-.21A8.72,8.72,0,0,1,112.82,139.44Z"/><path class="cls-3" d="M123.53,146.27c0,.88.52,1.79,2.62,1.79v.21h-11v-.21c2.1,0,2.62-.91,2.62-1.79V133.84c0-1.26-.59-1.85-2.59-1.85v-.21a21.36,21.36,0,0,0,8.37-1.37ZM133,134.19a3.75,3.75,0,0,1-3.61,4,2.37,2.37,0,0,1-2-.77,2.56,2.56,0,0,0,1.36-2.38,1.86,1.86,0,0,0-2-1.89,2.42,2.42,0,0,0-2.1,1.33v-.28a4.85,4.85,0,0,1,4.55-3.78A3.55,3.55,0,0,1,133,134.19Z"/><path class="cls-3" d="M143.83,130.62c-2.07.25-3,2-3,8.69,0,5,2.56,7.8,5.67,7.8a7.62,7.62,0,0,0,5.11-1.85v.21c-1.82,2.31-5.14,3.15-7.42,3.15a9.16,9.16,0,0,1-9.35-9.18,9,9,0,0,1,9-9Zm7.77,3.75a3.26,3.26,0,0,1-3.5,3.36,3,3,0,0,1-3-2.21,3,3,0,0,0,1.68-2.55,2.07,2.07,0,0,0-1.5-2.31v-.25C149.81,130.41,151.6,132.37,151.6,134.37Z"/><path class="cls-3" d="M154.5,132.2a1.89,1.89,0,0,0-1.93-1.23v-.21h9.81V131c-1.23,0-1.72.84-1.12,2.07l4.58,9.56-3,5.67h-.21ZM153,153.9c0-1.5,1.19-2.76,3.08-3.29a2.87,2.87,0,0,0-.14.88,2,2,0,0,0,2.07,2.34c1.22,0,2.2-1.29,3.53-3.53h.25c-1.93,3.6-3.26,6.72-5.71,6.72A2.91,2.91,0,0,1,153,153.9Zm14.35-14.73a9.56,9.56,0,0,0,1-4.52,3.38,3.38,0,0,0-3.57-3.68v-.21h8.72V131c-1.16,0-1.61.46-2.28,1.65l-3.64,6.86Z"/><path class="cls-3" d="M182.57,130.62c-2.06.25-3,2-3,8.69,0,5,2.55,7.8,5.67,7.8a7.66,7.66,0,0,0,5.11-1.85v.21c-1.82,2.31-5.15,3.15-7.42,3.15a9.16,9.16,0,0,1-9.35-9.18,9,9,0,0,1,9-9Zm7.77,3.75a3.26,3.26,0,0,1-3.5,3.36,3,3,0,0,1-3-2.21,3,3,0,0,0,1.68-2.55,2.07,2.07,0,0,0-1.51-2.31v-.25C188.56,130.41,190.34,132.37,190.34,134.37Z"/><path class="cls-3" d="M192.16,123.9a21.54,21.54,0,0,0,8.37-1.36v23.73c0,.88.52,1.79,2.62,1.79v.21h-11v-.21c2.11,0,2.63-.91,2.63-1.79V126c0-1.26-.6-1.86-2.59-1.86Z"/><path class="cls-3" d="M205.25,139.44a8.67,8.67,0,0,1,8.58-9v.21c-2.07.25-2.63,2-2.63,8.69,0,5,2.24,7.8,5.36,7.8a7.66,7.66,0,0,0,5.11-1.85v.21c-1.82,2.31-5.15,3.15-7.42,3.15A8.88,8.88,0,0,1,205.25,139.44Zm7.88-1.47c3.08,0,4.37-1,4.37-3.92,0-1.68-.7-3.22-2.27-3.43v-.21c4.62,0,6.86,3.29,6.86,6a9.77,9.77,0,0,1-.18,1.82h-8.78Z"/><path class="cls-3" d="M22,170.74a21.54,21.54,0,0,0,8.37-1.36v15.89c0,.88.52,1.79,2.62,1.79v.21H22v-.21c2.1,0,2.62-.91,2.62-1.79V172.81c0-1.26-.59-1.86-2.59-1.86Zm1.79-6.58c0-1.82,1.47-3,3.57-3s3.57,1.22,3.57,3-1.47,3.08-3.57,3.08S23.78,166,23.78,164.16Z"/><path class="cls-3" d="M34.45,187.06c2.1,0,2.63-.91,2.63-1.79V172.84c0-1.26-.6-1.85-2.59-1.85v-.21a21.3,21.3,0,0,0,8.36-1.37v15.86c0,.88.53,1.79,2.63,1.79v.21h-11Zm12.32,0c2.07,0,2.59-.91,2.59-1.79V174.35c0-2-1-3-2.76-3a3.74,3.74,0,0,0-2.66,1.09v-.21a7.14,7.14,0,0,1,5.81-2.84c3.15,0,5.39,1.47,5.39,4.94v10.92c0,.88.52,1.79,2.62,1.79v.21h-11Z"/><path class="cls-3" d="M65.74,183.1a1.8,1.8,0,0,0-2,1.75c0,1,.7,2.31,3.12,2.56v.21c-4.66-.18-7.21-1.44-7.21-3.47a2.73,2.73,0,0,1,3-2.59A3.55,3.55,0,0,1,65.74,183.1Zm1.16-13.48c-1.3.25-2.56.91-2.52,2.35.1,4.06,11.44,4.72,11.44,10.29,0,3.4-2.87,5.18-7.38,5.36v-.21c1.47-.25,3.11-.77,3.11-2.59,0-3.64-11.48-5-11.48-10.3,0-3.08,2.91-4.93,6.83-5.11Zm8.26,3.4a2.29,2.29,0,0,1-2.59,2.17,3,3,0,0,1-3-1.68,1.57,1.57,0,0,0,1.58-1.65c0-1.05-1.33-2.06-2.73-2.24v-.21C72.39,169.62,75.16,171.06,75.16,173Z"/><path class="cls-3" d="M86.15,182.68c0,2,.66,3,2.41,3A3.09,3.09,0,0,0,91,184.57v.21a5.84,5.84,0,0,1-5.43,2.84c-3.15,0-5.18-1.47-5.18-4.94v-9.84c0-1.26-.59-1.85-2.59-1.85v-.21a21.36,21.36,0,0,0,8.37-1.37Zm11.65,2.24c0,1,.32,1.44,1,1.44s1.12-.53,1.68-1.58h.21c-.56,1.93-2.45,2.84-4.76,2.84S92,186.22,92,184.19V172.84c0-1.26-.6-1.85-2.49-1.85v-.21a22.65,22.65,0,0,0,8.26-1.37Z"/><path class="cls-3" d="M110.44,185.27c0,.88.52,1.79,2.62,1.79v.21H102v-.21c2.1,0,2.62-.91,2.62-1.79V172.84c0-1.26-.59-1.85-2.59-1.85v-.21a21.36,21.36,0,0,0,8.37-1.37Zm9.45-12.08a3.75,3.75,0,0,1-3.61,4,2.37,2.37,0,0,1-2-.77,2.56,2.56,0,0,0,1.36-2.38,1.86,1.86,0,0,0-2-1.89,2.42,2.42,0,0,0-2.1,1.33v-.28a4.85,4.85,0,0,1,4.55-3.78A3.55,3.55,0,0,1,119.89,173.19Z"/><path class="cls-3" d="M121.39,183.14c0-3,2.8-4.76,6.72-4.76h3.78v.21h-1a3.46,3.46,0,0,0-3.71,3.81c0,1.93.56,3.4,2.21,3.4a3.83,3.83,0,0,0,2.55-1.23v.21a7.44,7.44,0,0,1-5.56,2.84C123.35,187.62,121.36,185.94,121.39,183.14Zm1.4-9.91c0-1.79,1.61-3.61,6.37-3.82v.21a2.56,2.56,0,0,0-2.24,2.56c0,1.26.88,2,2.28,2.13a3.94,3.94,0,0,1-3.36,1.68A2.8,2.8,0,0,1,122.79,173.23Zm10.15,10.43V173c0-1.72-.66-3.08-2.38-3.33v-.21c5.81.21,8.12,2.42,8.12,7v8.51c0,1,.35,1.44,1,1.44s1.12-.53,1.68-1.58h.21c-.56,1.93-2.45,2.84-4.55,2.84C134.2,187.62,132.94,186.64,132.94,183.66Z"/><path class="cls-3" d="M142.64,187.06c2.1,0,2.62-.91,2.62-1.79V172.84c0-1.26-.59-1.85-2.59-1.85v-.21a21.36,21.36,0,0,0,8.37-1.37v15.86c0,.88.52,1.79,2.62,1.79v.21h-11Zm12.32,0c2.06,0,2.59-.91,2.59-1.79V174.35c0-2-1-3-2.77-3a3.74,3.74,0,0,0-2.66,1.09v-.21a7.16,7.16,0,0,1,5.81-2.84c3.15,0,5.39,1.47,5.39,4.94v10.92c0,.88.53,1.79,2.63,1.79v.21H155Z"/><path class="cls-3" d="M176.8,169.62c-2.07.25-3,2-3,8.69,0,5,2.56,7.8,5.67,7.8a7.62,7.62,0,0,0,5.11-1.85v.21c-1.82,2.31-5.14,3.15-7.42,3.15a9.16,9.16,0,0,1-9.35-9.18,9,9,0,0,1,9-9Zm7.77,3.75a3.26,3.26,0,0,1-3.5,3.36,3,3,0,0,1-3-2.21A3,3,0,0,0,179.7,172a2.07,2.07,0,0,0-1.5-2.31v-.25C182.78,169.41,184.57,171.37,184.57,173.37Z"/><path class="cls-3" d="M187.19,178.44a8.67,8.67,0,0,1,8.58-9v.21c-2.07.25-2.63,2-2.63,8.69,0,5,2.24,7.8,5.36,7.8a7.66,7.66,0,0,0,5.11-1.85v.21c-1.82,2.31-5.15,3.15-7.42,3.15A8.88,8.88,0,0,1,187.19,178.44Zm7.88-1.47c3.08,0,4.37-1,4.37-3.92,0-1.68-.7-3.22-2.27-3.43v-.21c4.62,0,6.86,3.29,6.86,6a9.77,9.77,0,0,1-.18,1.82h-8.78Z"/></g></svg>