<svg id="Layer_1" data-name="Layer 1" xmlns="http://www.w3.org/2000/svg" xmlns:xlink="http://www.w3.org/1999/xlink" viewBox="0 0 300 600"><defs><style>.cls-1{fill:none;}.cls-2{clip-path:url(#clip-path);}.cls-3{fill:#fff;}</style><clipPath id="clip-path"><rect class="cls-1" x="0.89" y="0.51" width="300" height="599.49"/></clipPath></defs><title>Artboard 1 copy 2</title><g class="cls-2"><path class="cls-3" d="M22.2,85.39A21.3,21.3,0,0,0,30.56,84v23.73c0,.88.53,1.79,2.63,1.79v.21h-11v-.21c2.1,0,2.63-.91,2.63-1.79V87.45c0-1.26-.6-1.85-2.59-1.85Z"/><path class="cls-3" d="M34.73,93.23a21.3,21.3,0,0,0,8.36-1.37v15.89c0,.88.53,1.79,2.63,1.79v.21h-11v-.21c2.1,0,2.63-.91,2.63-1.79V95.29c0-1.26-.6-1.85-2.59-1.85Zm1.78-6.58c0-1.82,1.47-3.05,3.57-3.05s3.57,1.23,3.57,3.05-1.47,3.08-3.57,3.08S36.51,88.5,36.51,86.65Z"/><path class="cls-3" d="M48,93.68a1.9,1.9,0,0,0-1.93-1.22v-.21h9.81v.21c-1.23,0-1.72.84-1.12,2.06l4.58,9.56-3,5.67h-.21Zm12.81,7a9.56,9.56,0,0,0,1-4.52,3.38,3.38,0,0,0-3.57-3.67v-.21h8.72v.21c-1.16,0-1.61.45-2.28,1.64L61,101Z"/><path class="cls-3" d="M67.2,100.93a8.66,8.66,0,0,1,8.58-9v.21c-2.06.24-2.62,2-2.62,8.68,0,5,2.24,7.8,5.35,7.8a7.62,7.62,0,0,0,5.11-1.85V107c-1.82,2.31-5.14,3.15-7.42,3.15A8.87,8.87,0,0,1,67.2,100.93Zm7.88-1.47c3.08,0,4.38-1,4.38-3.92,0-1.68-.7-3.22-2.28-3.43V91.9c4.62,0,6.86,3.29,6.86,5.95a10.9,10.9,0,0,1-.17,1.82H75.08Z"/><path class="cls-3" d="M93,105.58a1.8,1.8,0,0,0-2,1.75c0,1,.7,2.31,3.12,2.56v.21c-4.66-.18-7.22-1.44-7.22-3.47a2.73,2.73,0,0,1,3-2.59A3.57,3.57,0,0,1,93,105.58Zm1.16-13.47c-1.3.24-2.56.91-2.52,2.34.1,4.06,11.44,4.73,11.44,10.29,0,3.4-2.87,5.18-7.38,5.36v-.21c1.47-.25,3.11-.77,3.11-2.59,0-3.64-11.48-5-11.48-10.29,0-3.08,2.91-4.94,6.83-5.11Zm8.26,3.39c0,1.09-.84,2.17-2.59,2.17a3,3,0,0,1-3-1.68,1.56,1.56,0,0,0,1.58-1.64c0-1-1.33-2.07-2.73-2.24V91.9C99.65,92.11,102.42,93.54,102.42,95.5Z"/><path class="cls-3" d="M114.56,105.62c0-3.05,2.8-4.76,6.72-4.76h3.78v.21h-1a3.46,3.46,0,0,0-3.71,3.81c0,1.93.56,3.4,2.21,3.4a3.86,3.86,0,0,0,2.55-1.23v.21a7.46,7.46,0,0,1-5.57,2.84C116.52,110.1,114.52,108.42,114.56,105.62Zm1.4-9.91c0-1.78,1.61-3.6,6.37-3.81v.21a2.55,2.55,0,0,0-2.24,2.55c0,1.26.87,2,2.27,2.14A3.93,3.93,0,0,1,119,98.48,2.81,2.81,0,0,1,116,95.71Zm10.15,10.43V95.43c0-1.71-.67-3.08-2.38-3.32V91.9c5.81.21,8.12,2.41,8.12,7v8.5c0,1,.35,1.44,1,1.44s1.12-.53,1.68-1.58h.21c-.56,1.93-2.45,2.84-4.55,2.84C127.37,110.1,126.11,109.12,126.11,106.14Z"/><path class="cls-3" d="M149.39,107.05v.21a7.33,7.33,0,0,1-6,2.84c-3.15,0-5.39-1.44-5.39-4.94V93.68h-1.82l.38-.52H138V89.38a8.87,8.87,0,0,0,5.74-2v5.74h4.73l-.39.52h-4.34v11.59c0,1.75.67,3.57,2.31,3.57A5.17,5.17,0,0,0,149.39,107.05Z"/><path class="cls-3" d="M168.67,109.89v.21a13.24,13.24,0,0,1-6.79-1.72l-1.16,1.72h-.28v-8.54h.28A11.76,11.76,0,0,0,168.67,109.89Zm10.29-7c0,4.52-3.36,7-8.78,7.18v-.21c1.92-.35,3.81-1.47,3.81-3.57,0-6.13-13.37-6.69-13.37-13.79,0-4.2,3.39-6.62,8-6.93v.21c-1.61.28-3.08,1.29-3.08,3.22C165.59,95.15,179,95.82,179,102.92Zm-8.78-17.11V85.6a11.3,11.3,0,0,1,6.3,1.85l1.26-1.85H178v7.8h-.28A11.13,11.13,0,0,0,170.18,85.81Z"/><path class="cls-3" d="M194.92,107.05v.21a7.33,7.33,0,0,1-6,2.84c-3.15,0-5.39-1.44-5.39-4.94V93.68h-1.82l.39-.52h1.43V89.38a8.85,8.85,0,0,0,5.74-2v5.74H194l-.39.52h-4.34v11.59c0,1.75.67,3.57,2.31,3.57A5.17,5.17,0,0,0,194.92,107.05Z"/><path class="cls-3" d="M196,105.62c0-3.05,2.8-4.76,6.72-4.76h3.78v.21h-1a3.46,3.46,0,0,0-3.71,3.81c0,1.93.56,3.4,2.2,3.4a3.86,3.86,0,0,0,2.56-1.23v.21A7.46,7.46,0,0,1,201,110.1C198,110.1,196,108.42,196,105.62Zm1.4-9.91c0-1.78,1.61-3.6,6.37-3.81v.21a2.55,2.55,0,0,0-2.24,2.55c0,1.26.87,2,2.27,2.14a3.93,3.93,0,0,1-3.36,1.68A2.81,2.81,0,0,1,197.44,95.71Zm10.15,10.43V95.43c0-1.71-.67-3.08-2.38-3.32V91.9c5.81.21,8.12,2.41,8.12,7v8.5c0,1,.35,1.44,1,1.44s1.12-.53,1.68-1.58h.21c-.56,1.93-2.45,2.84-4.55,2.84C208.85,110.1,207.59,109.12,207.59,106.14Z"/><path class="cls-3" d="M225.68,107.75c0,.88.53,1.79,2.63,1.79v.21h-11v-.21c2.1,0,2.63-.91,2.63-1.79V95.33c0-1.26-.6-1.86-2.59-1.86v-.21a21.49,21.49,0,0,0,8.36-1.36Zm9.46-12.07a3.75,3.75,0,0,1-3.61,4,2.39,2.39,0,0,1-2-.77,2.56,2.56,0,0,0,1.37-2.38,1.86,1.86,0,0,0-2-1.89,2.39,2.39,0,0,0-2.1,1.33v-.28a4.84,4.84,0,0,1,4.55-3.78A3.56,3.56,0,0,1,235.14,95.68Z"/><path class="cls-3" d="M23,148.54c2.1,0,2.62-.84,2.62-1.79V126.94c0-.94-.52-1.78-2.62-1.78V125h11.2v.21c-2.1,0-2.63.84-2.63,1.78v19.81c0,.95.53,1.79,2.63,1.79v.21H23Z"/><path class="cls-3" d="M36.58,148.54c2.1,0,2.63-.91,2.63-1.79V134.33c0-1.26-.6-1.86-2.59-1.86v-.21A21.49,21.49,0,0,0,45,130.9v15.85c0,.88.53,1.79,2.63,1.79v.21h-11Zm12.32,0c2.07,0,2.59-.91,2.59-1.79V135.83c0-2-1-3-2.76-3a3.72,3.72,0,0,0-2.66,1.08v-.21a7.14,7.14,0,0,1,5.81-2.83c3.15,0,5.39,1.47,5.39,4.93v10.92c0,.88.52,1.79,2.62,1.79v.21h-11Z"/><path class="cls-3" d="M67.87,144.58a1.8,1.8,0,0,0-2,1.75c0,1,.7,2.31,3.12,2.56v.21c-4.66-.18-7.22-1.44-7.22-3.47a2.73,2.73,0,0,1,3-2.59A3.57,3.57,0,0,1,67.87,144.58ZM69,131.11c-1.3.24-2.56.91-2.52,2.34.1,4.06,11.44,4.73,11.44,10.29,0,3.4-2.87,5.18-7.38,5.36v-.21c1.47-.25,3.11-.77,3.11-2.59,0-3.64-11.48-5-11.48-10.29,0-3.08,2.91-4.94,6.83-5.11Zm8.26,3.39c0,1.09-.84,2.17-2.59,2.17a3,3,0,0,1-3-1.68,1.56,1.56,0,0,0,1.58-1.64c0-1-1.33-2.07-2.73-2.24v-.21C74.52,131.11,77.29,132.54,77.29,134.5Z"/><path class="cls-3" d="M88.28,144.16c0,2,.66,3,2.41,3a3.09,3.09,0,0,0,2.42-1.09v.21a5.84,5.84,0,0,1-5.43,2.84c-3.15,0-5.18-1.47-5.18-4.94v-9.83c0-1.26-.59-1.86-2.59-1.86v-.21a21.54,21.54,0,0,0,8.37-1.36Zm11.65,2.24c0,1,.32,1.44.95,1.44s1.12-.53,1.68-1.58h.21c-.56,1.93-2.45,2.84-4.76,2.84s-3.85-1.4-3.85-3.43V134.33c0-1.26-.6-1.86-2.49-1.86v-.21a22.86,22.86,0,0,0,8.26-1.36Z"/><path class="cls-3" d="M112.57,146.75c0,.88.52,1.79,2.62,1.79v.21h-11v-.21c2.1,0,2.63-.91,2.63-1.79V134.33c0-1.26-.6-1.86-2.59-1.86v-.21a21.54,21.54,0,0,0,8.37-1.36ZM122,134.68a3.75,3.75,0,0,1-3.61,4,2.37,2.37,0,0,1-2-.77,2.57,2.57,0,0,0,1.36-2.38,1.85,1.85,0,0,0-2-1.89,2.4,2.4,0,0,0-2.1,1.33v-.28a4.85,4.85,0,0,1,4.55-3.78A3.55,3.55,0,0,1,122,134.68Z"/><path class="cls-3" d="M123.52,144.62c0-3.05,2.8-4.76,6.72-4.76H134v.21H133a3.46,3.46,0,0,0-3.71,3.81c0,1.93.56,3.4,2.21,3.4a3.83,3.83,0,0,0,2.55-1.23v.21a7.44,7.44,0,0,1-5.56,2.84C125.48,149.1,123.48,147.42,123.52,144.62Zm1.4-9.91c0-1.78,1.61-3.6,6.37-3.81v.21a2.55,2.55,0,0,0-2.24,2.55c0,1.26.88,2,2.28,2.14a3.94,3.94,0,0,1-3.36,1.68A2.81,2.81,0,0,1,124.92,134.71Zm10.15,10.43V134.43c0-1.71-.66-3.08-2.38-3.32v-.21c5.81.21,8.12,2.41,8.12,7v8.5c0,1,.35,1.44,1,1.44s1.12-.53,1.68-1.58h.21c-.56,1.93-2.45,2.84-4.55,2.84C136.33,149.1,135.07,148.12,135.07,145.14Z"/><path class="cls-3" d="M144.76,148.54c2.1,0,2.63-.91,2.63-1.79V134.33c0-1.26-.6-1.86-2.59-1.86v-.21a21.58,21.58,0,0,0,8.37-1.36v15.85c0,.88.52,1.79,2.62,1.79v.21h-11Zm12.33,0c2.06,0,2.59-.91,2.59-1.79V135.83c0-2-1-3-2.77-3a3.72,3.72,0,0,0-2.66,1.08v-.21a7.15,7.15,0,0,1,5.81-2.83c3.15,0,5.39,1.47,5.39,4.93v10.92c0,.88.53,1.79,2.63,1.79v.21h-11Z"/><path class="cls-3" d="M178.93,131.11c-2.07.24-3,2-3,8.68,0,5,2.56,7.8,5.67,7.8a7.62,7.62,0,0,0,5.11-1.85V146c-1.82,2.31-5.14,3.15-7.42,3.15a9.15,9.15,0,0,1-9.35-9.17,9,9,0,0,1,9-9Zm7.77,3.74a3.25,3.25,0,0,1-3.5,3.36,3,3,0,0,1-3-2.2,3,3,0,0,0,1.68-2.56,2.08,2.08,0,0,0-1.5-2.31v-.24C184.91,130.9,186.7,132.86,186.7,134.85Z"/><path class="cls-3" d="M189.32,139.93a8.66,8.66,0,0,1,8.57-9v.21c-2.06.24-2.62,2-2.62,8.68,0,5,2.24,7.8,5.36,7.8a7.66,7.66,0,0,0,5.11-1.85V146c-1.82,2.31-5.15,3.15-7.43,3.15A8.87,8.87,0,0,1,189.32,139.93Zm7.87-1.47c3.09,0,4.38-1,4.38-3.92,0-1.68-.7-3.22-2.27-3.43v-.21c4.62,0,6.86,3.29,6.86,5.95a9.94,9.94,0,0,1-.18,1.82h-8.79Z"/><path class="cls-3" d="M31.93,187.89v.21a13.24,13.24,0,0,1-6.79-1.72L24,188.1H23.7v-8.54H24A11.76,11.76,0,0,0,31.93,187.89Zm10.29-7c0,4.52-3.36,7-8.79,7.18v-.21c1.93-.35,3.82-1.47,3.82-3.57,0-6.13-13.37-6.69-13.37-13.79,0-4.2,3.39-6.62,8.05-6.93v.21c-1.61.28-3.08,1.29-3.08,3.22C28.85,173.15,42.22,173.82,42.22,180.92Zm-8.79-17.11v-.21a11.28,11.28,0,0,1,6.3,1.85L41,163.6h.28v7.8H41A11.13,11.13,0,0,0,33.43,163.81Z"/><path class="cls-3" d="M53,193.07c0,1.26.6,1.85,2.59,1.85v.21a22.83,22.83,0,0,0-8.36,1.37V173.29c0-1.26-.6-1.85-2.59-1.85v-.21A22.83,22.83,0,0,0,53,169.86ZM66.3,178.82c0,7.32-3.85,9.28-7.18,9.28A6.58,6.58,0,0,1,54,185.26v-.21A4.9,4.9,0,0,0,57,186.28c1.65,0,3.4-1.16,3.4-7.46s-1.65-7.14-3.4-7.14A3.94,3.94,0,0,0,54,173v-.28a6.54,6.54,0,0,1,5.11-2.8C62.52,169.9,66.3,171.86,66.3,178.82Z"/><path class="cls-3" d="M69.37,178.93a8.66,8.66,0,0,1,8.58-9v.21c-2.06.24-2.62,2-2.62,8.68,0,5,2.24,7.8,5.35,7.8a7.62,7.62,0,0,0,5.11-1.85V185c-1.82,2.31-5.14,3.15-7.42,3.15A8.87,8.87,0,0,1,69.37,178.93Zm7.88-1.47c3.08,0,4.38-1,4.38-3.92,0-1.68-.7-3.22-2.28-3.43v-.21c4.62,0,6.86,3.29,6.86,5.95a10.9,10.9,0,0,1-.17,1.82H77.25Z"/><path class="cls-3" d="M98,170.11c-2.06.24-3,2-3,8.68,0,5,2.55,7.8,5.67,7.8a7.66,7.66,0,0,0,5.11-1.85V185c-1.82,2.31-5.15,3.15-7.42,3.15a9.15,9.15,0,0,1-9.35-9.17,9,9,0,0,1,9-9Zm7.77,3.74a3.25,3.25,0,0,1-3.5,3.36,3,3,0,0,1-3-2.2,3,3,0,0,0,1.68-2.56,2.08,2.08,0,0,0-1.51-2.31v-.24C104,169.9,105.81,171.86,105.81,173.85Z"/><path class="cls-3" d="M107.87,171.23a21.32,21.32,0,0,0,8.37-1.37v15.89c0,.88.52,1.79,2.63,1.79v.21h-11v-.21c2.1,0,2.62-.91,2.62-1.79V173.29c0-1.26-.59-1.85-2.59-1.85Zm1.79-6.58c0-1.82,1.47-3.05,3.57-3.05s3.57,1.23,3.57,3.05-1.47,3.08-3.57,3.08S109.66,166.5,109.66,164.65Z"/><path class="cls-3" d="M120.61,183.62c0-3.05,2.8-4.76,6.72-4.76h3.78v.21h-1.05a3.46,3.46,0,0,0-3.71,3.81c0,1.93.56,3.4,2.21,3.4a3.81,3.81,0,0,0,2.55-1.23v.21a7.44,7.44,0,0,1-5.56,2.84C122.57,188.1,120.58,186.42,120.61,183.62Zm1.4-9.91c0-1.78,1.61-3.6,6.37-3.81v.21a2.55,2.55,0,0,0-2.24,2.55c0,1.26.88,2,2.28,2.14a3.94,3.94,0,0,1-3.36,1.68A2.81,2.81,0,0,1,122,173.71Zm10.15,10.43V173.43c0-1.71-.66-3.08-2.38-3.32v-.21c5.82.21,8.13,2.41,8.13,7v8.5c0,1,.35,1.44,1,1.44s1.12-.53,1.68-1.58h.21c-.56,1.93-2.45,2.84-4.56,2.84C133.43,188.1,132.16,187.12,132.16,184.14Z"/><path class="cls-3" d="M141.68,163.39a21.36,21.36,0,0,0,8.37-1.37v23.73c0,.88.52,1.79,2.63,1.79v.21h-11v-.21c2.1,0,2.62-.91,2.62-1.79v-20.3c0-1.26-.59-1.85-2.59-1.85Z"/><path class="cls-3" d="M154.21,171.23a21.36,21.36,0,0,0,8.37-1.37v15.89c0,.88.52,1.79,2.62,1.79v.21h-11v-.21c2.1,0,2.62-.91,2.62-1.79V173.29c0-1.26-.59-1.85-2.59-1.85Zm1.79-6.58c0-1.82,1.47-3.05,3.57-3.05s3.57,1.23,3.57,3.05-1.47,3.08-3.57,3.08S156,166.5,156,164.65Z"/><path class="cls-3" d="M173.39,183.58a1.8,1.8,0,0,0-2,1.75c0,1,.7,2.31,3.12,2.56v.21c-4.66-.18-7.21-1.44-7.21-3.47a2.73,2.73,0,0,1,3-2.59A3.57,3.57,0,0,1,173.39,183.58Zm1.16-13.47c-1.3.24-2.56.91-2.52,2.34.1,4.06,11.44,4.73,11.44,10.29,0,3.4-2.87,5.18-7.38,5.36v-.21c1.47-.25,3.11-.77,3.11-2.59,0-3.64-11.48-5-11.48-10.29,0-3.08,2.91-4.94,6.83-5.11Zm8.26,3.39c0,1.09-.84,2.17-2.59,2.17a3,3,0,0,1-3-1.68,1.56,1.56,0,0,0,1.58-1.64c0-1-1.33-2.07-2.73-2.24v-.21C180.05,170.11,182.81,171.54,182.81,173.5Z"/><path class="cls-3" d="M199.36,185.05v.21a7.32,7.32,0,0,1-6,2.84c-3.15,0-5.39-1.44-5.39-4.94V171.68h-1.82l.38-.52H188v-3.78a8.89,8.89,0,0,0,5.74-2v5.74h4.72l-.38.52h-4.34v11.59c0,1.75.66,3.57,2.31,3.57A5.13,5.13,0,0,0,199.36,185.05Z"/><path class="cls-3" d="M206.92,183.58a1.8,1.8,0,0,0-2,1.75c0,1,.7,2.31,3.12,2.56v.21c-4.66-.18-7.21-1.44-7.21-3.47a2.73,2.73,0,0,1,3-2.59A3.57,3.57,0,0,1,206.92,183.58Zm1.16-13.47c-1.3.24-2.56.91-2.52,2.34.1,4.06,11.44,4.73,11.44,10.29,0,3.4-2.87,5.18-7.38,5.36v-.21c1.47-.25,3.11-.77,3.11-2.59,0-3.64-11.48-5-11.48-10.29,0-3.08,2.91-4.94,6.83-5.11Zm8.26,3.39c0,1.09-.84,2.17-2.59,2.17a3,3,0,0,1-3-1.68,1.56,1.56,0,0,0,1.58-1.64c0-1-1.33-2.07-2.73-2.24v-.21C213.57,170.11,216.34,171.54,216.34,173.5Z"/></g></svg>