<?xml version="1.0" encoding="utf-8"?>
<!-- Generator: Adobe Illustrator 24.0.3, SVG Export Plug-In . SVG Version: 6.00 Build 0)  -->
<svg version="1.1" id="Layer_1" xmlns="http://www.w3.org/2000/svg" xmlns:xlink="http://www.w3.org/1999/xlink" x="0px" y="0px"
	 viewBox="0 0 300 600" style="enable-background:new 0 0 300 600;" xml:space="preserve">
<style type="text/css">
	.st0{enable-background:new    ;}
	.st1{fill:#263845;}
</style>
<title>Artboard 1 copy 3</title>
<g class="st0">
	<path class="st1" d="M25.3,50.2c0-1.1-0.6-2.1-3.1-2.1v-0.2h13.1v0.2c-2.5,0-3.1,1-3.1,2.1v17.9c0,3.9,1.1,7.5,3.9,7.8v0.2
		c-8.6,0-10.9-4.1-10.9-8.2V50.2z M46.9,68c0,4.1-2.4,8.2-8.6,8.2V76c5.3-0.1,7.8-3.9,7.8-7.8V53.3c0-2.6-1.4-5.1-4.1-5.1v-0.2h9
		v0.2c-2.7,0-4.1,2.5-4.1,5.1V68z"/>
</g>
<g class="st0">
	<path class="st1" d="M51.7,75.6c2.5,0,3.1-1.1,3.1-2.1V58.9c0-1.5-0.7-2.2-3-2.2v-0.2c3.8,0,6.9-0.4,9.8-1.6v18.6
		c0,1,0.6,2.1,3.1,2.1v0.2H51.7V75.6z M66.2,75.6c2.4,0,3-1.1,3-2.1V60.7c0-2.3-1.2-3.5-3.2-3.5c-1.1,0-2.1,0.4-3.1,1.3v-0.2
		c1.1-1.7,3.8-3.3,6.8-3.3c3.7,0,6.3,1.7,6.3,5.8v12.8c0,1,0.6,2.1,3.1,2.1v0.2H66.2V75.6z"/>
	<path class="st1" d="M89.7,70.6c0,3.9-2.7,5.6-6.8,5.6V49.7c0-1.5-0.7-2.2-3.1-2.2v-0.2c3.8,0,6.4-0.4,9.9-1.6V70.6z M105.3,65.3
		c0,8.6-4.6,10.9-8.5,10.9c-2.3,0-4.9-1.6-6-3.3v-0.2c1,0.8,2.1,1.4,3.4,1.4c1.9,0,4-1.4,4-8.7c0-7.4-2-8.4-4-8.4
		c-1.3,0-2.5,0.5-3.4,1.5v-0.3c1-1.7,3.6-3.3,6-3.3C100.9,54.9,105.3,57.2,105.3,65.3z"/>
	<path class="st1" d="M108.9,65.5c0-6.9,5.3-10.6,10.1-10.6v0.2c-2.4,0.3-3.1,2.3-3.1,10.2c0,5.9,2.6,9.2,6.3,9.2
		c2.3,0,4.1-0.7,6-2.2v0.2c-2.1,2.7-6,3.7-8.7,3.7C114.2,76.2,108.9,72.4,108.9,65.5z M118.2,63.7c3.6,0,5.1-1.1,5.1-4.6
		c0-2-0.8-3.8-2.7-4v-0.2c5.4,0,8,3.9,8,7c0,0.7-0.1,1.5-0.2,2.1h-10.3V63.7z"/>
	<path class="st1" d="M131.6,71c0-3.6,3.3-5.6,7.9-5.6h4.4v0.2h-1.2c-3,0-4.4,1.9-4.4,4.5c0,2.3,0.7,4,2.6,4c1.1,0,2.1-0.6,3-1.4
		v0.2c-1.4,1.6-3.5,3.3-6.5,3.3C133.9,76.2,131.6,74.2,131.6,71z M133.3,59.3c0-2.1,1.9-4.2,7.5-4.5v0.2c-1.6,0.2-2.6,1.6-2.6,3
		c0,1.5,1,2.4,2.7,2.5c-0.6,1.1-2.3,2-3.9,2C134.6,62.6,133.3,61.1,133.3,59.3z M145.2,71.6V59c0-2-0.8-3.6-2.8-3.9v-0.2
		c6.8,0.2,9.5,2.8,9.5,8.2v10c0,1.2,0.4,1.7,1.1,1.7c0.6,0,1.3-0.6,2-1.8h0.2c-0.7,2.3-2.9,3.3-5.3,3.3
		C146.7,76.2,145.2,75.1,145.2,71.6z"/>
	<path class="st1" d="M172.5,72.6v0.2c-1.3,1.9-3.9,3.3-7,3.3c-3.7,0-6.3-1.7-6.3-5.8V57H157l0.5-0.6h1.7v-4.4c2.5,0,5-0.8,6.7-2.3
		v6.7h5.5L171,57h-5.1v13.6c0,2.1,0.8,4.2,2.7,4.2C169.8,74.7,171.1,74,172.5,72.6z"/>
	<path class="st1" d="M173.8,71c0-3.6,3.3-5.6,7.9-5.6h4.4v0.2h-1.2c-3,0-4.4,1.9-4.4,4.5c0,2.3,0.7,4,2.6,4c1.2,0,2.1-0.6,3-1.4
		v0.2c-1.4,1.6-3.5,3.3-6.5,3.3C176.1,76.2,173.8,74.2,173.8,71z M175.5,59.3c0-2.1,1.9-4.2,7.5-4.5v0.2c-1.6,0.2-2.6,1.6-2.6,3
		c0,1.5,1,2.4,2.7,2.5c-0.6,1.1-2.3,2-3.9,2C176.8,62.6,175.5,61.1,175.5,59.3z M187.4,71.6V59c0-2-0.8-3.6-2.8-3.9v-0.2
		c6.8,0.2,9.5,2.8,9.5,8.2v10c0,1.2,0.4,1.7,1.1,1.7c0.6,0,1.3-0.6,2-1.8h0.2c-0.7,2.3-2.9,3.3-5.3,3.3
		C188.8,76.2,187.4,75.1,187.4,71.6z"/>
	<path class="st1" d="M207.9,70.6c0,3.9-2.7,5.6-6.8,5.6V49.7c0-1.5-0.7-2.2-3.1-2.2v-0.2c3.8,0,6.4-0.4,9.9-1.6V70.6z M223.5,65.3
		c0,8.6-4.6,10.9-8.5,10.9c-2.3,0-4.9-1.6-6-3.3v-0.2c1,0.8,2.1,1.4,3.4,1.4c1.9,0,4-1.4,4-8.7c0-7.4-2-8.4-4-8.4
		c-1.3,0-2.5,0.5-3.4,1.5v-0.3c1-1.7,3.6-3.3,6-3.3C219.1,54.9,223.5,57.2,223.5,65.3z"/>
	<path class="st1" d="M226.2,47.2c3.8,0,6.9-0.4,9.8-1.6v27.8c0,1,0.6,2.1,3.1,2.1v0.2h-12.9v-0.2c2.5,0,3.1-1.1,3.1-2.1V49.7
		c0-1.5-0.7-2.2-3-2.2V47.2z"/>
	<path class="st1" d="M241.6,65.5c0-6.9,5.3-10.6,10.1-10.6v0.2c-2.4,0.3-3.1,2.3-3.1,10.2c0,5.9,2.6,9.2,6.3,9.2
		c2.3,0,4.1-0.7,6-2.2v0.2c-2.1,2.7-6,3.7-8.7,3.7C246.9,76.2,241.6,72.4,241.6,65.5z M250.8,63.7c3.6,0,5.1-1.1,5.1-4.6
		c0-2-0.8-3.8-2.7-4v-0.2c5.4,0,8,3.9,8,7c0,0.7-0.1,1.5-0.2,2.1h-10.3V63.7z"/>
</g>
<g class="st0">
	<path class="st1" d="M31.9,114.5c0,1,0.6,2.1,3.1,2.1v0.2H22.1v-0.2c2.5,0,3.1-1.1,3.1-2.1V100c0-1.5-0.7-2.2-3-2.2v-0.2
		c3.8,0,6.9-0.4,9.8-1.6V114.5z M45.6,101.7v12.8c0,1,0.6,2.1,3,2.1v0.2H35.7v-0.2c2.4,0,3.1-1.1,3.1-2.1v-12.8
		c0-2.3-0.9-3.5-2.9-3.5c-1.1,0-2.2,0.6-2.7,1.2v-0.2c0.9-1.7,3-3.3,6-3.3C43.1,95.9,45.6,97.7,45.6,101.7z M59.1,101.7v12.8
		c0,1,0.6,2.1,3.1,2.1v0.2H49.3v-0.2c2.4,0,3.1-1.1,3.1-2.1v-12.8c0-2.3-0.9-3.5-2.9-3.5c-1.1,0-2.2,0.6-2.7,1.2v-0.2
		c0.9-1.7,3-3.3,6-3.3C56.7,95.9,59.1,97.7,59.1,101.7z"/>
	<path class="st1" d="M74.7,96.2c-2.4,0.3-3.2,2.3-3.2,10.3c0,7.7,0.8,10.3,3.2,10.5v0.2c-4.7,0-10.2-3.9-10.2-10.8
		S69.9,96,74.7,95.9V96.2z M86.5,106.5c0,6.9-5.5,10.8-10.2,10.8V117c2.4-0.2,3.2-2.8,3.2-10.5c0-8-0.8-10.1-3.2-10.3v-0.2
		C81.1,95.9,86.5,99.6,86.5,106.5z"/>
</g>
<g class="st0">
	<path class="st1" d="M105.1,113.7v0.2c-1.3,1.9-3.9,3.3-7,3.3c-3.7,0-6.3-1.7-6.3-5.8V98h-2.1l0.5-0.6h1.7V93c2.5,0,5-0.8,6.7-2.3
		v6.7h5.5l-0.5,0.6h-5.1v13.6c0,2.1,0.8,4.2,2.7,4.2C102.4,115.8,103.8,115.1,105.1,113.7z"/>
</g>
<g class="st0">
	<path class="st1" d="M116.9,96.2c-2.4,0.3-3.2,2.3-3.2,10.3c0,7.7,0.8,10.3,3.2,10.5v0.2c-4.7,0-10.2-3.9-10.2-10.8
		s5.4-10.6,10.2-10.6V96.2z M128.7,106.5c0,6.9-5.5,10.8-10.2,10.8V117c2.4-0.2,3.2-2.8,3.2-10.5c0-8-0.8-10.1-3.2-10.3v-0.2
		C123.3,95.9,128.7,99.6,128.7,106.5z"/>
</g>
<g class="st0">
	<path class="st1" d="M141.3,114.5c0,1,0.6,2.1,3.1,2.1v0.2h-12.9v-0.2c2.5,0,3.1-1.1,3.1-2.1V100c0-1.5-0.7-2.2-3-2.2v-0.2
		c3.8,0,6.9-0.4,9.8-1.6V114.5z M152.3,100.4c0,2.8-2,4.7-4.2,4.7c-1,0-1.8-0.2-2.3-0.9c0.8-0.4,1.6-1.3,1.6-2.8
		c0-1.2-0.9-2.2-2.3-2.2c-1.1,0-1.9,0.6-2.5,1.6v-0.3c0.8-2.6,2.8-4.4,5.3-4.4C150.8,95.9,152.3,97.9,152.3,100.4z"/>
</g>
<g class="st0">
	<path class="st1" d="M165.1,96.2c-2.4,0.3-3.5,2.3-3.5,10.2c0,5.9,3,9.2,6.7,9.2c2.3,0,4.1-0.7,6-2.2v0.2c-2.1,2.7-6,3.7-8.7,3.7
		c-5.3,0-11-3.9-11-10.8s5.7-10.6,10.5-10.6V96.2z M174.2,100.6c0,2.2-1.5,3.9-4.1,3.9c-2,0-3.3-1.3-3.6-2.6c1.1-0.5,2-1.9,2-3
		c0-0.9-0.2-2.4-1.8-2.7v-0.3C172.1,95.9,174.2,98.2,174.2,100.6z"/>
</g>
<g class="st0">
	<path class="st1" d="M177.6,98c-0.4-0.9-1-1.4-2.3-1.4v-0.2h11.5v0.2c-1.4,0-2,1-1.3,2.4l5.4,11.2l-3.5,6.7h-0.2L177.6,98z
		 M175.8,123.5c0-1.8,1.4-3.2,3.6-3.9c-0.1,0.4-0.2,0.7-0.2,1c0,1.6,0.8,2.8,2.4,2.8c1.4,0,2.6-1.5,4.1-4.1h0.3
		c-2.3,4.2-3.8,7.9-6.7,7.9C177.1,127.1,175.8,125.6,175.8,123.5z M192.6,106.2c0.7-1.3,1.2-3.1,1.2-5.3c0-2.3-1.3-4.3-4.2-4.3v-0.2
		h10.2v0.2c-1.4,0-1.9,0.5-2.7,1.9l-4.3,8L192.6,106.2z"/>
</g>
<g class="st0">
	<path class="st1" d="M210.5,96.2c-2.4,0.3-3.5,2.3-3.5,10.2c0,5.9,3,9.2,6.7,9.2c2.3,0,4.1-0.7,6-2.2v0.2c-2.1,2.7-6,3.7-8.7,3.7
		c-5.3,0-11-3.9-11-10.8s5.7-10.6,10.5-10.6V96.2z M219.6,100.6c0,2.2-1.5,3.9-4.1,3.9c-2,0-3.3-1.3-3.6-2.6c1.2-0.5,2-1.9,2-3
		c0-0.9-0.2-2.4-1.8-2.7v-0.3C217.5,95.9,219.6,98.2,219.6,100.6z"/>
	<path class="st1" d="M221.8,88.3c3.8,0,6.9-0.4,9.8-1.6v27.8c0,1,0.6,2.1,3.1,2.1v0.2h-12.9v-0.2c2.5,0,3.1-1.1,3.1-2.1V90.7
		c0-1.5-0.7-2.2-3-2.2V88.3z"/>
	<path class="st1" d="M237.1,106.5c0-6.9,5.3-10.6,10.1-10.6v0.2c-2.4,0.3-3.1,2.3-3.1,10.2c0,5.9,2.6,9.2,6.3,9.2
		c2.3,0,4.1-0.7,6-2.2v0.2c-2.1,2.7-6,3.7-8.7,3.7C242.4,117.3,237.1,113.4,237.1,106.5z M246.4,104.8c3.6,0,5.1-1.1,5.1-4.6
		c0-2-0.8-3.8-2.7-4v-0.2c5.4,0,8,3.9,8,7c0,0.7-0.1,1.5-0.2,2.1h-10.3V104.8z"/>
</g>
<g class="st0">
	<path class="st1" d="M22.1,138.5c3.8,0,6.9-0.4,9.8-1.6v18.6c0,1,0.6,2.1,3.1,2.1v0.2H22.1v-0.2c2.5,0,3.1-1.1,3.1-2.1V141
		c0-1.5-0.7-2.2-3-2.2V138.5z M24.2,130.8c0-2.1,1.7-3.6,4.2-3.6c2.5,0,4.2,1.4,4.2,3.6c0,2.2-1.7,3.6-4.2,3.6
		C26,134.4,24.2,133,24.2,130.8z"/>
	<path class="st1" d="M36.8,157.7c2.5,0,3.1-1.1,3.1-2.1V141c0-1.5-0.7-2.2-3-2.2v-0.2c3.8,0,6.9-0.4,9.8-1.6v18.6
		c0,1,0.6,2.1,3.1,2.1v0.2H36.8V157.7z M51.2,157.7c2.4,0,3-1.1,3-2.1v-12.8c0-2.3-1.2-3.5-3.2-3.5c-1.1,0-2.1,0.4-3.1,1.3v-0.2
		c1.1-1.7,3.8-3.3,6.8-3.3c3.7,0,6.3,1.7,6.3,5.8v12.8c0,1,0.6,2.1,3.1,2.1v0.2H51.2V157.7z"/>
	<path class="st1" d="M73.5,153c-1.4,0-2.3,0.8-2.3,2.1c0,1.2,0.8,2.7,3.7,3v0.2c-5.5-0.2-8.5-1.7-8.5-4.1c0-1.9,1.6-3,3.5-3
		C71.5,151.2,72.9,152,73.5,153z M74.8,137.2c-1.5,0.3-3,1.1-3,2.8c0.1,4.8,13.4,5.5,13.4,12.1c0,4-3.4,6.1-8.7,6.3v-0.2
		c1.7-0.3,3.7-0.9,3.7-3c0-4.3-13.5-5.8-13.5-12.1c0-3.6,3.4-5.8,8-6V137.2z M84.5,141.2c0,1.3-1,2.5-3,2.5c-1.7,0-3-0.7-3.5-2
		c1.2-0.1,1.9-0.9,1.8-1.9c0-1.2-1.6-2.4-3.2-2.6V137C81.3,137.2,84.5,138.9,84.5,141.2z"/>
	<path class="st1" d="M97.4,152.6c0,2.3,0.8,3.5,2.8,3.5c1.1,0,1.9-0.3,2.8-1.3v0.2c-0.9,1.8-3,3.3-6.4,3.3c-3.7,0-6.1-1.7-6.1-5.8
		V141c0-1.5-0.7-2.2-3-2.2v-0.2c3.8,0,6.9-0.4,9.8-1.6V152.6z M111.1,155.2c0,1.2,0.4,1.7,1.1,1.7c0.6,0,1.3-0.6,2-1.8h0.2
		c-0.7,2.3-2.9,3.3-5.6,3.3c-2.9,0-4.5-1.6-4.5-4V141c0-1.5-0.7-2.2-2.9-2.2v-0.2c3.7,0,6.2-0.4,9.7-1.6V155.2z"/>
</g>
<g class="st0">
	<path class="st1" d="M125.9,155.6c0,1,0.6,2.1,3.1,2.1v0.2H116v-0.2c2.5,0,3.1-1.1,3.1-2.1V141c0-1.5-0.7-2.2-3-2.2v-0.2
		c3.8,0,6.9-0.4,9.8-1.6V155.6z M137,141.4c0,2.8-2,4.7-4.2,4.7c-1,0-1.8-0.2-2.3-0.9c0.8-0.4,1.6-1.3,1.6-2.8
		c0-1.2-0.9-2.2-2.3-2.2c-1.1,0-1.9,0.6-2.5,1.6v-0.3c0.8-2.6,2.8-4.4,5.3-4.4C135.4,137,137,139,137,141.4z"/>
</g>
<g class="st0">
	<path class="st1" d="M138.8,153.1c0-3.6,3.3-5.6,7.9-5.6h4.4v0.2h-1.2c-3,0-4.4,1.9-4.4,4.5c0,2.3,0.7,4,2.6,4c1.1,0,2.1-0.6,3-1.4
		v0.2c-1.4,1.6-3.5,3.3-6.5,3.3C141.1,158.3,138.7,156.4,138.8,153.1z M140.4,141.5c0-2.1,1.9-4.2,7.5-4.5v0.2
		c-1.6,0.2-2.6,1.6-2.6,3c0,1.5,1,2.4,2.7,2.5c-0.6,1.1-2.3,2-3.9,2C141.7,144.7,140.4,143.2,140.4,141.5z M152.3,153.7v-12.6
		c0-2-0.8-3.6-2.8-3.9V137c6.8,0.2,9.5,2.8,9.5,8.2v10c0,1.2,0.4,1.7,1.2,1.7c0.6,0,1.3-0.6,2-1.8h0.2c-0.7,2.3-2.9,3.3-5.3,3.3
		C153.8,158.3,152.3,157.2,152.3,153.7z"/>
	<path class="st1" d="M163.7,157.7c2.5,0,3.1-1.1,3.1-2.1V141c0-1.5-0.7-2.2-3-2.2v-0.2c3.8,0,6.9-0.4,9.8-1.6v18.6
		c0,1,0.6,2.1,3.1,2.1v0.2h-12.9V157.7z M178.1,157.7c2.4,0,3-1.1,3-2.1v-12.8c0-2.3-1.2-3.5-3.2-3.5c-1.2,0-2.1,0.4-3.1,1.3v-0.2
		c1.1-1.7,3.8-3.3,6.8-3.3c3.7,0,6.3,1.7,6.3,5.8v12.8c0,1,0.6,2.1,3.1,2.1v0.2h-12.9V157.7z"/>
	<path class="st1" d="M203.8,137.2c-2.4,0.3-3.5,2.3-3.5,10.2c0,5.9,3,9.2,6.7,9.2c2.3,0,4.1-0.7,6-2.2v0.2c-2.1,2.7-6,3.7-8.7,3.7
		c-5.3,0-11-3.9-11-10.8s5.7-10.6,10.5-10.6V137.2z M212.9,141.6c0,2.2-1.5,3.9-4.1,3.9c-2,0-3.3-1.3-3.6-2.6c1.2-0.5,2-1.9,2-3
		c0-0.9-0.2-2.4-1.8-2.7V137C210.8,137,212.9,139.3,212.9,141.6z"/>
	<path class="st1" d="M215.9,147.6c0-6.9,5.3-10.6,10.1-10.6v0.2c-2.4,0.3-3.1,2.3-3.1,10.2c0,5.9,2.6,9.2,6.3,9.2
		c2.3,0,4.1-0.7,6-2.2v0.2c-2.1,2.7-6,3.7-8.7,3.7C221.2,158.3,215.9,154.5,215.9,147.6z M225.2,145.9c3.6,0,5.1-1.1,5.1-4.6
		c0-2-0.8-3.8-2.7-4V137c5.4,0,8,3.9,8,7c0,0.7-0.1,1.5-0.2,2.1h-10.3V145.9z"/>
</g>
</svg>
