<svg id="Layer_1" data-name="Layer 1" xmlns="http://www.w3.org/2000/svg" xmlns:xlink="http://www.w3.org/1999/xlink" viewBox="0 0 300 600"><defs><style>.cls-1{fill:none;}.cls-2{clip-path:url(#clip-path);}.cls-3{fill:#fff;}</style><clipPath id="clip-path"><rect class="cls-1" y="0.51" width="300" height="599.49"/></clipPath></defs><title>Artboard 1 copy 4</title><g class="cls-2"><path class="cls-3" d="M43.43,105.58l.14.28a9.61,9.61,0,0,1-8.44,4.24c-5.7,0-12.81-4.06-12.81-12.22,0-8.85,6.93-12.14,12-12.28v.21c-2.45.52-5.11,2.83-5.11,11.83s3.61,11.06,7.56,11.06A8.58,8.58,0,0,0,43.43,105.58Zm.28-20v8.5h-.28c-1.37-4.65-4-7.35-7.39-8.29V85.6c3.05.14,4.9.66,6.34,1.61l1-1.61Z"/><path class="cls-3" d="M54.87,92.11c-2.06.24-2.76,2-2.76,8.82,0,6.58.7,8.75,2.76,9v.21a8.92,8.92,0,0,1-8.71-9.17,8.77,8.77,0,0,1,8.71-9ZM65,100.93a8.92,8.92,0,0,1-8.68,9.17v-.21c2.07-.21,2.73-2.42,2.73-9,0-6.86-.7-8.61-2.73-8.82V91.9A8.72,8.72,0,0,1,65,100.93Z"/><path class="cls-3" d="M67.26,109.54c2.1,0,2.63-.91,2.63-1.79V95.33c0-1.26-.6-1.86-2.59-1.86v-.21a21.49,21.49,0,0,0,8.36-1.36v15.85c0,.88.53,1.79,2.63,1.79v.21h-11Zm12.32,0c2.07,0,2.59-.91,2.59-1.79V96.83c0-2-1-3-2.76-3a3.72,3.72,0,0,0-2.66,1.08v-.21a7.14,7.14,0,0,1,5.81-2.83c3.15,0,5.39,1.47,5.39,4.93v10.92c0,.88.52,1.79,2.62,1.79v.21h-11Z"/><path class="cls-3" d="M105.41,107.05v.21a7.32,7.32,0,0,1-6,2.84c-3.15,0-5.39-1.44-5.39-4.94V93.68H92.22l.38-.52H94V89.38a8.89,8.89,0,0,0,5.74-2v5.74h4.72l-.38.52H99.78v11.59c0,1.75.66,3.57,2.31,3.57A5.13,5.13,0,0,0,105.41,107.05Z"/><path class="cls-3" d="M106.53,105.62c0-3.05,2.8-4.76,6.72-4.76H117v.21h-1a3.46,3.46,0,0,0-3.71,3.81c0,1.93.56,3.4,2.21,3.4a3.83,3.83,0,0,0,2.55-1.23v.21a7.44,7.44,0,0,1-5.56,2.84C108.49,110.1,106.5,108.42,106.53,105.62Zm1.4-9.91c0-1.78,1.61-3.6,6.37-3.81v.21a2.55,2.55,0,0,0-2.24,2.55c0,1.26.88,2,2.28,2.14A3.94,3.94,0,0,1,111,98.48,2.81,2.81,0,0,1,107.93,95.71Zm10.15,10.43V95.43c0-1.71-.66-3.08-2.38-3.32V91.9c5.81.21,8.12,2.41,8.12,7v8.5c0,1,.35,1.44,1,1.44s1.12-.53,1.68-1.58h.21c-.56,1.93-2.45,2.84-4.55,2.84C119.34,110.1,118.08,109.12,118.08,106.14Z"/><path class="cls-3" d="M137.37,92.11c-2.07.24-3,2-3,8.68,0,5,2.56,7.8,5.67,7.8a7.62,7.62,0,0,0,5.11-1.85V107c-1.82,2.31-5.14,3.15-7.42,3.15a9.15,9.15,0,0,1-9.34-9.17,9,9,0,0,1,9-9Zm7.77,3.74a3.25,3.25,0,0,1-3.5,3.36,3,3,0,0,1-3-2.2,3,3,0,0,0,1.68-2.56,2.08,2.08,0,0,0-1.5-2.31V91.9C143.35,91.9,145.14,93.86,145.14,95.85Z"/><path class="cls-3" d="M160.71,107.05v.21a7.32,7.32,0,0,1-6,2.84c-3.15,0-5.4-1.44-5.4-4.94V93.68h-1.81l.38-.52h1.43V89.38a8.9,8.9,0,0,0,5.75-2v5.74h4.72l-.38.52h-4.34v11.59c0,1.75.66,3.57,2.31,3.57A5.13,5.13,0,0,0,160.71,107.05Z"/><path class="cls-3" d="M22.39,132.68a1.89,1.89,0,0,0-1.92-1.22v-.21h9.8v.21c-1.23,0-1.72.84-1.12,2.06l4.58,9.56-3,5.67h-.21Zm-1.54,21.7c0-1.5,1.19-2.76,3.08-3.29a2.87,2.87,0,0,0-.14.88,2,2,0,0,0,2.07,2.34c1.22,0,2.2-1.29,3.53-3.53h.25c-1.93,3.6-3.26,6.72-5.71,6.72A2.91,2.91,0,0,1,20.85,154.38ZM35.2,139.65a9.56,9.56,0,0,0,1-4.52,3.38,3.38,0,0,0-3.57-3.67v-.21h8.72v.21c-1.16,0-1.61.45-2.28,1.64L35.41,140Z"/><path class="cls-3" d="M50.22,131.11c-2.07.24-2.77,2-2.77,8.82,0,6.58.7,8.75,2.77,9v.21a8.92,8.92,0,0,1-8.72-9.17,8.77,8.77,0,0,1,8.72-9Zm10.08,8.82a8.92,8.92,0,0,1-8.68,9.17v-.21c2.06-.21,2.73-2.42,2.73-9,0-6.86-.7-8.61-2.73-8.82v-.21A8.72,8.72,0,0,1,60.3,139.93Z"/><path class="cls-3" d="M70.62,144.16c0,2,.67,3,2.42,3a3.07,3.07,0,0,0,2.41-1.09v.21A5.82,5.82,0,0,1,70,149.1c-3.15,0-5.18-1.47-5.18-4.94v-9.83c0-1.26-.6-1.86-2.59-1.86v-.21a21.49,21.49,0,0,0,8.36-1.36Zm11.66,2.24c0,1,.31,1.44.94,1.44s1.12-.53,1.68-1.58h.21c-.56,1.93-2.45,2.84-4.76,2.84s-3.85-1.4-3.85-3.43V134.33c0-1.26-.59-1.86-2.48-1.86v-.21a22.86,22.86,0,0,0,8.26-1.36Z"/><path class="cls-3" d="M94.91,146.75c0,.88.53,1.79,2.63,1.79v.21h-11v-.21c2.1,0,2.63-.91,2.63-1.79V134.33c0-1.26-.6-1.86-2.59-1.86v-.21a21.49,21.49,0,0,0,8.36-1.36Zm9.45-12.07a3.74,3.74,0,0,1-3.6,4,2.39,2.39,0,0,1-2-.77,2.56,2.56,0,0,0,1.37-2.38,1.86,1.86,0,0,0-2-1.89,2.39,2.39,0,0,0-2.1,1.33v-.28a4.84,4.84,0,0,1,4.55-3.78A3.55,3.55,0,0,1,104.36,134.68Z"/><path class="cls-3" d="M121.62,144.34c0,3.32-2.28,4.76-5.78,4.76V126.45c0-1.26-.63-1.85-2.62-1.85v-.21a23,23,0,0,0,8.4-1.37ZM135,139.82c0,7.32-3.88,9.28-7.21,9.28a6.49,6.49,0,0,1-5.07-2.84v-.21a4.76,4.76,0,0,0,2.9,1.23c1.65,0,3.43-1.16,3.43-7.46s-1.68-7.14-3.43-7.14a3.84,3.84,0,0,0-2.9,1.3v-.28a6.45,6.45,0,0,1,5.07-2.8C131.14,130.9,135,132.86,135,139.82Z"/><path class="cls-3" d="M145.8,146.75c0,.88.53,1.79,2.63,1.79v.21h-11v-.21c2.1,0,2.63-.91,2.63-1.79V134.33c0-1.26-.6-1.86-2.59-1.86v-.21a21.49,21.49,0,0,0,8.36-1.36Zm9.45-12.07a3.74,3.74,0,0,1-3.6,4,2.39,2.39,0,0,1-2-.77,2.56,2.56,0,0,0,1.37-2.38,1.86,1.86,0,0,0-2-1.89A2.39,2.39,0,0,0,147,135v-.28a4.84,4.84,0,0,1,4.55-3.78A3.55,3.55,0,0,1,155.25,134.68Z"/><path class="cls-3" d="M165.86,131.11c-2.07.24-2.77,2-2.77,8.82,0,6.58.7,8.75,2.77,9v.21a8.92,8.92,0,0,1-8.72-9.17,8.77,8.77,0,0,1,8.72-9Zm10.08,8.82a8.92,8.92,0,0,1-8.68,9.17v-.21c2.06-.21,2.73-2.42,2.73-9,0-6.86-.7-8.61-2.73-8.82v-.21A8.72,8.72,0,0,1,175.94,139.93Z"/><path class="cls-3" d="M189.06,148.54v.21H178v-.21c2.1,0,2.62-.91,2.62-1.79v-20.3c0-1.26-.59-1.85-2.59-1.85v-.21a21.36,21.36,0,0,0,8.37-1.37v23.73C186.44,147.63,187,148.54,189.06,148.54Zm11.87,0v.21a13.81,13.81,0,0,1-3.5.35,6.61,6.61,0,0,1-6.34-3.4l-3.29-5.49c2.77-2.42,5.36-5.36,5.36-7.14,0-.95-.46-1.61-2.07-1.61v-.21h9v.21a3.11,3.11,0,0,0-2,.63l-6.4,5.07,6.05,9.38A3.63,3.63,0,0,0,200.93,148.54Z"/><path class="cls-3" d="M201.13,139.93a8.67,8.67,0,0,1,8.58-9v.21c-2.06.24-2.62,2-2.62,8.68,0,5,2.24,7.8,5.35,7.8a7.62,7.62,0,0,0,5.11-1.85V146c-1.82,2.31-5.14,3.15-7.42,3.15A8.87,8.87,0,0,1,201.13,139.93Zm7.88-1.47c3.08,0,4.38-1,4.38-3.92,0-1.68-.7-3.22-2.28-3.43v-.21c4.62,0,6.86,3.29,6.86,5.95a10.9,10.9,0,0,1-.17,1.82H209Z"/><path class="cls-3" d="M228.61,146.75c0,.88.53,1.79,2.63,1.79v.21h-11v-.21c2.1,0,2.63-.91,2.63-1.79V134.33c0-1.26-.6-1.86-2.59-1.86v-.21a21.49,21.49,0,0,0,8.36-1.36Zm9.45-12.07a3.74,3.74,0,0,1-3.6,4,2.39,2.39,0,0,1-2-.77,2.56,2.56,0,0,0,1.37-2.38,1.86,1.86,0,0,0-2-1.89,2.39,2.39,0,0,0-2.1,1.33v-.28a4.84,4.84,0,0,1,4.55-3.78A3.55,3.55,0,0,1,238.06,134.68Z"/><path class="cls-3" d="M35.06,185.05v.21a7.32,7.32,0,0,1-6,2.84c-3.15,0-5.39-1.44-5.39-4.94V171.68H21.87l.38-.52h1.44v-3.78a8.89,8.89,0,0,0,5.74-2v5.74h4.72l-.38.52H29.43v11.59c0,1.75.66,3.57,2.31,3.57A5.13,5.13,0,0,0,35.06,185.05Z"/><path class="cls-3" d="M45.07,170.11c-2.06.24-2.76,2-2.76,8.82,0,6.58.7,8.75,2.76,9v.21a8.92,8.92,0,0,1-8.71-9.17,8.77,8.77,0,0,1,8.71-9Zm10.08,8.82a8.92,8.92,0,0,1-8.68,9.17v-.21c2.07-.21,2.73-2.42,2.73-9,0-6.86-.7-8.61-2.73-8.82v-.21A8.72,8.72,0,0,1,55.15,178.93Z"/><path class="cls-3" d="M70.52,172.7V173a3.86,3.86,0,0,0-2.91-1.3c-1.75,0-3.43.81-3.43,7.14s1.79,7.46,3.43,7.46a4.81,4.81,0,0,0,2.91-1.23v.21a6.51,6.51,0,0,1-5.08,2.84c-3.32,0-7.21-2-7.21-9.28,0-7,3.82-8.92,7.21-8.92A6.47,6.47,0,0,1,70.52,172.7Zm6.82,12.7c0,1,.32,1.44,1,1.44s1.12-.53,1.68-1.58h.21c-.56,1.93-2.45,2.84-4.55,2.84-2.8,0-4.06-1-4.06-4V165.45c0-1.26-.6-1.85-2.59-1.85v-.21A22.83,22.83,0,0,0,77.34,162Z"/><path class="cls-3" d="M81.86,183.62c0-3.05,2.8-4.76,6.72-4.76h3.78v.21h-1a3.46,3.46,0,0,0-3.71,3.81c0,1.93.56,3.4,2.2,3.4a3.86,3.86,0,0,0,2.56-1.23v.21a7.46,7.46,0,0,1-5.57,2.84C83.82,188.1,81.82,186.42,81.86,183.62Zm1.4-9.91c0-1.78,1.61-3.6,6.37-3.81v.21a2.55,2.55,0,0,0-2.24,2.55c0,1.26.87,2,2.27,2.14a3.93,3.93,0,0,1-3.36,1.68A2.81,2.81,0,0,1,83.26,173.71Zm10.15,10.43V173.43c0-1.71-.67-3.08-2.38-3.32v-.21c5.81.21,8.12,2.41,8.12,7v8.5c0,1,.35,1.44,1,1.44s1.12-.53,1.68-1.58H102c-.56,1.93-2.45,2.84-4.55,2.84C94.67,188.1,93.41,187.12,93.41,184.14Z"/><path class="cls-3" d="M103.14,171.68a1.9,1.9,0,0,0-1.93-1.22v-.21H111v.21c-1.22,0-1.71.84-1.12,2.06l4.59,9.56-3,5.67h-.21Zm-1.54,21.7c0-1.5,1.19-2.76,3.08-3.29a2.6,2.6,0,0,0-.14.88,2,2,0,0,0,2.06,2.34c1.23,0,2.21-1.29,3.54-3.53h.24c-1.92,3.6-3.25,6.72-5.7,6.72A2.91,2.91,0,0,1,101.6,193.38ZM116,178.65a9.68,9.68,0,0,0,1-4.52,3.38,3.38,0,0,0-3.57-3.67v-.21h8.71v.21c-1.15,0-1.61.45-2.27,1.64L116.16,179Z"/></g></svg>