<?xml version="1.0" encoding="utf-8"?>
<!-- Generator: Adobe Illustrator 24.0.3, SVG Export Plug-In . SVG Version: 6.00 Build 0)  -->
<svg version="1.1" id="Layer_1" xmlns="http://www.w3.org/2000/svg" xmlns:xlink="http://www.w3.org/1999/xlink" x="0px" y="0px"
	 viewBox="0 0 300 600" style="enable-background:new 0 0 300 600;" xml:space="preserve">
<style type="text/css">
	.st0{enable-background:new    ;}
	.st1{fill:#FFFFFF;}
</style>
<title>Artboard 1 copy 4</title>
<g class="st0">
	<path class="st1" d="M47.6,71.4l0.2,0.3c-2.1,3.4-5.9,5-9.9,5c-6.7,0-15-4.8-15-14.3c0-10.4,8.1-14.2,14-14.4v0.2
		c-2.9,0.6-6,3.3-6,13.9c0,10.5,4.2,13,8.9,13C43.5,75.1,46.1,73.2,47.6,71.4z M47.9,48v10h-0.3c-1.6-5.5-4.6-8.6-8.7-9.7V48
		c3.6,0.2,5.7,0.8,7.4,1.9l1.2-1.9H47.9z"/>
</g>
<g class="st0">
	<path class="st1" d="M61,55.6c-2.4,0.3-3.2,2.3-3.2,10.3c0,7.7,0.8,10.3,3.2,10.5v0.2c-4.7,0-10.2-3.9-10.2-10.8S56.2,55.4,61,55.3
		V55.6z M72.8,65.9c0,6.9-5.5,10.8-10.2,10.8v-0.2c2.4-0.2,3.2-2.8,3.2-10.5c0-8-0.8-10.1-3.2-10.3v-0.2
		C67.4,55.3,72.8,59,72.8,65.9z"/>
	<path class="st1" d="M75.5,76c2.5,0,3.1-1.1,3.1-2.1V59.4c0-1.5-0.7-2.2-3-2.2V57c3.8,0,6.9-0.4,9.8-1.6v18.6c0,1,0.6,2.1,3.1,2.1
		v0.2H75.5V76z M90,76c2.4,0,3-1.1,3-2.1V61.1c0-2.3-1.2-3.5-3.2-3.5c-1.1,0-2.1,0.4-3.1,1.3v-0.2c1.1-1.7,3.8-3.3,6.8-3.3
		c3.7,0,6.3,1.7,6.3,5.8v12.8c0,1,0.6,2.1,3.1,2.1v0.2H90V76z"/>
	<path class="st1" d="M120.3,73.1v0.2c-1.3,1.9-3.9,3.3-7,3.3c-3.7,0-6.3-1.7-6.3-5.8V57.4h-2.1l0.5-0.6h1.7v-4.4
		c2.5,0,5-0.8,6.7-2.3v6.7h5.5l-0.5,0.6h-5.1V71c0,2.1,0.8,4.2,2.7,4.2C117.5,75.2,118.9,74.5,120.3,73.1z"/>
	<path class="st1" d="M121.6,71.4c0-3.6,3.3-5.6,7.9-5.6h4.4v0.2h-1.2c-3,0-4.4,1.9-4.4,4.5c0,2.3,0.7,4,2.6,4c1.1,0,2.1-0.6,3-1.4
		v0.2c-1.4,1.6-3.5,3.3-6.5,3.3C123.9,76.7,121.6,74.7,121.6,71.4z M123.3,59.8c0-2.1,1.9-4.2,7.5-4.5v0.2c-1.6,0.2-2.6,1.6-2.6,3
		c0,1.5,1,2.4,2.7,2.5c-0.6,1.1-2.3,2-3.9,2C124.6,63.1,123.3,61.5,123.3,59.8z M135.2,72.1V59.5c0-2-0.8-3.6-2.8-3.9v-0.2
		c6.8,0.2,9.5,2.8,9.5,8.2v10c0,1.2,0.4,1.7,1.1,1.7c0.6,0,1.3-0.6,2-1.8h0.2c-0.7,2.3-2.9,3.3-5.3,3.3
		C136.6,76.7,135.2,75.6,135.2,72.1z"/>
	<path class="st1" d="M157.8,55.6c-2.4,0.3-3.5,2.3-3.5,10.2c0,5.9,3,9.2,6.7,9.2c2.3,0,4.1-0.7,6-2.2V73c-2.1,2.7-6,3.7-8.7,3.7
		c-5.3,0-11-3.9-11-10.8s5.7-10.6,10.5-10.6V55.6z M166.9,60c0,2.2-1.5,3.9-4.1,3.9c-2,0-3.3-1.3-3.6-2.6c1.1-0.5,2-1.9,2-3
		c0-0.9-0.2-2.4-1.8-2.7v-0.3C164.8,55.3,166.9,57.6,166.9,60z"/>
	<path class="st1" d="M185.2,73.1v0.2c-1.3,1.9-3.9,3.3-7,3.3c-3.7,0-6.3-1.7-6.3-5.8V57.4h-2.1l0.5-0.6h1.7v-4.4
		c2.5,0,5-0.8,6.7-2.3v6.7h5.5l-0.5,0.6h-5.1V71c0,2.1,0.8,4.2,2.7,4.2C182.4,75.2,183.8,74.5,185.2,73.1z"/>
</g>
<g class="st0">
	<path class="st1" d="M22.9,98.5c-0.4-0.9-1-1.4-2.3-1.4v-0.2h11.5v0.2c-1.4,0-2,1-1.3,2.4l5.4,11.2l-3.5,6.7h-0.2L22.9,98.5z
		 M21.1,124c0-1.8,1.4-3.2,3.6-3.9c-0.1,0.4-0.2,0.7-0.2,1c0,1.6,0.8,2.8,2.4,2.8c1.4,0,2.6-1.5,4.1-4.1h0.3
		c-2.3,4.2-3.8,7.9-6.7,7.9C22.4,127.6,21.1,126.1,21.1,124z M37.9,106.7c0.7-1.3,1.1-3.1,1.1-5.3c0-2.3-1.3-4.3-4.2-4.3v-0.2h10.2
		v0.2c-1.4,0-1.9,0.5-2.7,1.9l-4.3,8L37.9,106.7z"/>
</g>
<g class="st0">
	<path class="st1" d="M55.5,96.7c-2.4,0.3-3.2,2.3-3.2,10.3c0,7.7,0.8,10.3,3.2,10.5v0.2c-4.7,0-10.2-3.9-10.2-10.8
		s5.4-10.6,10.2-10.6V96.7z M67.4,107c0,6.9-5.5,10.8-10.2,10.8v-0.2c2.4-0.2,3.2-2.8,3.2-10.5c0-8-0.8-10.1-3.2-10.3v-0.2
		C62,96.4,67.4,100.1,67.4,107z"/>
	<path class="st1" d="M79.5,112c0,2.3,0.8,3.5,2.8,3.5c1.1,0,1.9-0.3,2.8-1.3v0.2c-0.9,1.8-3,3.3-6.4,3.3c-3.7,0-6.1-1.7-6.1-5.8
		v-11.5c0-1.5-0.7-2.2-3-2.2V98c3.8,0,6.9-0.4,9.8-1.6V112z M93.2,114.6c0,1.2,0.4,1.7,1.1,1.7c0.6,0,1.3-0.6,2-1.8h0.2
		c-0.7,2.3-2.9,3.3-5.6,3.3c-2.9,0-4.5-1.6-4.5-4v-13.3c0-1.5-0.7-2.2-2.9-2.2V98c3.7,0,6.2-0.4,9.7-1.6V114.6z"/>
</g>
<g class="st0">
	<path class="st1" d="M108,115c0,1,0.6,2.1,3.1,2.1v0.2H98.1v-0.2c2.5,0,3.1-1.1,3.1-2.1v-14.6c0-1.5-0.7-2.2-3-2.2V98
		c3.8,0,6.9-0.4,9.8-1.6V115z M119.1,100.8c0,2.8-2,4.7-4.2,4.7c-1,0-1.8-0.2-2.3-0.9c0.8-0.4,1.6-1.3,1.6-2.8
		c0-1.2-0.9-2.2-2.3-2.2c-1.1,0-1.9,0.6-2.5,1.6v-0.3c0.8-2.6,2.8-4.4,5.3-4.4C117.5,96.4,119.1,98.4,119.1,100.8z"/>
</g>
<g class="st0">
	<path class="st1" d="M31,153.2c0,3.9-2.7,5.6-6.8,5.6v-26.6c0-1.5-0.7-2.2-3.1-2.2v-0.2c3.8,0,6.4-0.4,9.9-1.6V153.2z M46.6,147.9
		c0,8.6-4.6,10.9-8.5,10.9c-2.3,0-4.9-1.6-6-3.3v-0.2c1,0.8,2.1,1.4,3.4,1.4c1.9,0,4-1.4,4-8.7c0-7.4-2-8.4-4-8.4
		c-1.3,0-2.5,0.5-3.4,1.5v-0.3c1-1.7,3.6-3.3,6-3.3C42.2,137.5,46.6,139.8,46.6,147.9z"/>
</g>
<g class="st0">
	<path class="st1" d="M59.4,156.1c0,1,0.6,2.1,3.1,2.1v0.2H49.5v-0.2c2.5,0,3.1-1.1,3.1-2.1v-14.6c0-1.5-0.7-2.2-3-2.2v-0.2
		c3.8,0,6.9-0.4,9.8-1.6V156.1z M70.4,141.9c0,2.8-2,4.7-4.2,4.7c-1,0-1.8-0.2-2.3-0.9c0.8-0.4,1.6-1.3,1.6-2.8
		c0-1.2-0.9-2.2-2.3-2.2c-1.1,0-1.9,0.6-2.5,1.6v-0.3c0.8-2.6,2.8-4.4,5.3-4.4C68.9,137.5,70.4,139.4,70.4,141.9z"/>
</g>
<g class="st0">
	<path class="st1" d="M82.9,137.7c-2.4,0.3-3.2,2.3-3.2,10.3c0,7.7,0.8,10.3,3.2,10.5v0.2c-4.7,0-10.2-3.9-10.2-10.8
		s5.4-10.6,10.2-10.6V137.7z M94.7,148.1c0,6.9-5.5,10.8-10.2,10.8v-0.2c2.4-0.2,3.2-2.8,3.2-10.5c0-8-0.8-10.1-3.2-10.3v-0.2
		C89.3,137.5,94.7,141.1,94.7,148.1z"/>
</g>
<g class="st0">
	<path class="st1" d="M110.1,158.2v0.2H97.2v-0.2c2.5,0,3.1-1.1,3.1-2.1v-23.8c0-1.5-0.7-2.2-3-2.2v-0.2c3.8,0,6.9-0.4,9.8-1.6v27.8
		C107,157.1,107.6,158.2,110.1,158.2z M124,158.2v0.2c-1.1,0.3-2.7,0.4-4.1,0.4c-2.5,0-5.3-0.5-7.4-4l-3.9-6.4
		c3.2-2.8,6.3-6.3,6.3-8.4c0-1.1-0.5-1.9-2.4-1.9v-0.2H123v0.2c-0.9,0-1.7,0.3-2.3,0.7l-7.5,6l7.1,11
		C121.7,157.9,122.7,158,124,158.2z"/>
</g>
<g class="st0">
	<path class="st1" d="M124.3,148.1c0-6.9,5.3-10.6,10.1-10.6v0.2c-2.4,0.3-3.1,2.3-3.1,10.2c0,5.9,2.6,9.2,6.3,9.2
		c2.3,0,4.1-0.7,6-2.2v0.2c-2.1,2.7-6,3.7-8.7,3.7C129.6,158.8,124.3,155,124.3,148.1z M133.5,146.3c3.6,0,5.1-1.1,5.1-4.6
		c0-2-0.8-3.8-2.7-4v-0.2c5.4,0,8,3.9,8,7c0,0.7-0.1,1.5-0.2,2.1h-10.3V146.3z"/>
</g>
<g class="st0">
	<path class="st1" d="M156.5,156.1c0,1,0.6,2.1,3.1,2.1v0.2h-12.9v-0.2c2.5,0,3.1-1.1,3.1-2.1v-14.6c0-1.5-0.7-2.2-3-2.2v-0.2
		c3.8,0,6.9-0.4,9.8-1.6V156.1z M167.6,141.9c0,2.8-2,4.7-4.2,4.7c-1,0-1.8-0.2-2.3-0.9c0.8-0.4,1.6-1.3,1.6-2.8
		c0-1.2-0.9-2.2-2.3-2.2c-1.1,0-1.9,0.6-2.5,1.6v-0.3c0.8-2.6,2.8-4.4,5.3-4.4C166,137.5,167.6,139.4,167.6,141.9z"/>
</g>
<g class="st0">
	<path class="st1" d="M37.8,196.3v0.2c-1.3,1.9-3.9,3.3-7,3.3c-3.7,0-6.3-1.7-6.3-5.8v-13.5h-2.1l0.5-0.6h1.7v-4.4
		c2.5,0,5-0.8,6.7-2.3v6.7h5.5l-0.5,0.6h-5.1v13.6c0,2.1,0.8,4.2,2.7,4.2C35,198.4,36.4,197.7,37.8,196.3z"/>
</g>
<g class="st0">
	<path class="st1" d="M49.5,178.8c-2.4,0.3-3.2,2.3-3.2,10.3c0,7.7,0.8,10.3,3.2,10.5v0.2c-4.7,0-10.2-3.9-10.2-10.8
		s5.4-10.6,10.2-10.6V178.8z M61.3,189.1c0,6.9-5.5,10.8-10.2,10.8v-0.2c2.4-0.2,3.2-2.8,3.2-10.5c0-8-0.8-10.1-3.2-10.3v-0.2
		C55.9,178.5,61.3,182.2,61.3,189.1z"/>
	<path class="st1" d="M79.4,181.8v0.3c-0.9-1-2.1-1.5-3.4-1.5c-2.1,0-4,0.9-4,8.4c0,7.4,2.1,8.7,4,8.7c1.3,0,2.4-0.7,3.4-1.4v0.2
		c-1,1.7-3.6,3.3-6,3.3c-3.9,0-8.5-2.3-8.5-10.9c0-8.2,4.5-10.5,8.5-10.5C75.7,178.5,78.3,180.1,79.4,181.8z M87.4,196.7
		c0,1.2,0.4,1.7,1.1,1.7c0.6,0,1.3-0.6,2-1.8h0.2c-0.7,2.3-2.9,3.3-5.3,3.3c-3.3,0-4.8-1.1-4.8-4.6v-21.9c0-1.5-0.7-2.2-3-2.2v-0.2
		c3.8,0,6.4-0.4,9.8-1.6V196.7z"/>
</g>
<g class="st0">
	<path class="st1" d="M92.7,194.6c0-3.6,3.3-5.6,7.9-5.6h4.4v0.2h-1.2c-3,0-4.4,1.9-4.4,4.5c0,2.3,0.7,4,2.6,4c1.1,0,2.1-0.6,3-1.4
		v0.2c-1.4,1.6-3.5,3.3-6.5,3.3C95,199.9,92.6,197.9,92.7,194.6z M94.3,183c0-2.1,1.9-4.2,7.5-4.5v0.2c-1.6,0.2-2.6,1.6-2.6,3
		c0,1.5,1,2.4,2.7,2.5c-0.6,1.1-2.3,2-3.9,2C95.6,186.2,94.3,184.7,94.3,183z M106.2,195.2v-12.6c0-2-0.8-3.6-2.8-3.9v-0.2
		c6.8,0.2,9.5,2.8,9.5,8.2v10c0,1.2,0.4,1.7,1.1,1.7c0.6,0,1.3-0.6,2-1.8h0.2c-0.7,2.3-2.9,3.3-5.3,3.3
		C107.7,199.9,106.2,198.7,106.2,195.2z"/>
</g>
<g class="st0">
	<path class="st1" d="M117.6,180.6c-0.4-0.9-1-1.4-2.3-1.4v-0.2h11.5v0.2c-1.4,0-2,1-1.3,2.4l5.4,11.2l-3.5,6.7h-0.2L117.6,180.6z
		 M115.8,206.1c0-1.8,1.4-3.2,3.6-3.9c-0.1,0.4-0.2,0.7-0.2,1c0,1.6,0.8,2.8,2.4,2.8c1.4,0,2.6-1.5,4.1-4.1h0.3
		c-2.3,4.2-3.8,7.9-6.7,7.9C117.1,209.7,115.8,208.2,115.8,206.1z M132.7,188.8c0.7-1.3,1.1-3.1,1.1-5.3c0-2.3-1.3-4.3-4.2-4.3v-0.2
		h10.2v0.2c-1.4,0-1.9,0.5-2.7,1.9l-4.3,8L132.7,188.8z"/>
</g>
</svg>
