<?xml version="1.0" encoding="utf-8"?>
<!-- Generator: Adobe Illustrator 24.0.3, SVG Export Plug-In . SVG Version: 6.00 Build 0)  -->
<svg version="1.1" id="Layer_1" xmlns="http://www.w3.org/2000/svg" xmlns:xlink="http://www.w3.org/1999/xlink" x="0px" y="0px"
	 viewBox="0 0 300 600" style="enable-background:new 0 0 300 600;" xml:space="preserve">
<style type="text/css">
	.st0{enable-background:new    ;}
	.st1{fill:#FFFFFF;}
</style>
<title>Artboard 1 copy 2</title>
<g class="st0">
	<path class="st1" d="M22,47.7c3.8,0,6.9-0.4,9.8-1.6V74c0,1,0.6,2.1,3.1,2.1v0.2H22v-0.2c2.5,0,3.1-1.1,3.1-2.1V50.1
		c0-1.5-0.7-2.2-3-2.2V47.7z"/>
	<path class="st1" d="M36.7,56.9c3.8,0,6.9-0.4,9.8-1.6V74c0,1,0.6,2.1,3.1,2.1v0.2H36.7v-0.2c2.5,0,3.1-1.1,3.1-2.1V59.3
		c0-1.5-0.7-2.2-3-2.2V56.9z M38.8,49.2c0-2.1,1.7-3.6,4.2-3.6c2.5,0,4.2,1.4,4.2,3.6c0,2.2-1.7,3.6-4.2,3.6
		C40.5,52.8,38.8,51.4,38.8,49.2z"/>
</g>
<g class="st0">
	<path class="st1" d="M52.3,57.5c-0.4-0.9-1-1.4-2.3-1.4v-0.2h11.5V56c-1.4,0-2,1-1.3,2.4l5.4,11.2L62,76.3h-0.2L52.3,57.5z
		 M67.3,65.6c0.7-1.3,1.1-3.1,1.1-5.3c0-2.3-1.3-4.3-4.2-4.3v-0.2h10.2V56c-1.4,0-1.9,0.5-2.7,1.9l-4.3,8L67.3,65.6z"/>
</g>
<g class="st0">
	<path class="st1" d="M74.8,66c0-6.9,5.3-10.6,10.1-10.6v0.2c-2.4,0.3-3.1,2.3-3.1,10.2c0,5.9,2.6,9.2,6.3,9.2c2.3,0,4.1-0.7,6-2.2
		V73c-2.1,2.7-6,3.7-8.7,3.7C80.1,76.7,74.8,72.9,74.8,66z M84,64.2c3.6,0,5.1-1.1,5.1-4.6c0-2-0.8-3.8-2.7-4v-0.2c5.4,0,8,3.9,8,7
		c0,0.7-0.1,1.5-0.2,2.1H84V64.2z"/>
	<path class="st1" d="M105.1,71.4c-1.4,0-2.3,0.8-2.3,2.1c0,1.2,0.8,2.7,3.7,3v0.2C101,76.5,98,75,98,72.6c0-1.9,1.6-3,3.5-3
		C103.1,69.6,104.4,70.4,105.1,71.4z M106.4,55.6c-1.5,0.3-3,1.1-3,2.8c0.1,4.8,13.4,5.5,13.4,12.1c0,4-3.4,6.1-8.7,6.3v-0.2
		c1.7-0.3,3.7-0.9,3.7-3c0-4.3-13.5-5.8-13.5-12.1c0-3.6,3.4-5.8,8-6V55.6z M116.1,59.6c0,1.3-1,2.5-3,2.5c-1.7,0-3-0.7-3.5-2
		c1.2-0.1,1.9-0.9,1.8-1.9c0-1.2-1.6-2.4-3.2-2.6v-0.2C112.9,55.6,116.1,57.3,116.1,59.6z"/>
	<path class="st1" d="M130.4,71.5c0-3.6,3.3-5.6,7.9-5.6h4.4v0.2h-1.2c-3,0-4.4,1.9-4.4,4.5c0,2.3,0.7,4,2.6,4c1.1,0,2.1-0.6,3-1.4
		v0.2c-1.4,1.6-3.5,3.3-6.5,3.3C132.7,76.7,130.3,74.7,130.4,71.5z M132,59.8c0-2.1,1.9-4.2,7.5-4.5v0.2c-1.6,0.2-2.6,1.6-2.6,3
		c0,1.5,1,2.4,2.7,2.5c-0.6,1.1-2.3,2-3.9,2C133.3,63.1,132,61.6,132,59.8z M143.9,72.1V59.5c0-2-0.8-3.6-2.8-3.9v-0.2
		c6.8,0.2,9.5,2.8,9.5,8.2v10c0,1.2,0.4,1.7,1.1,1.7c0.6,0,1.3-0.6,2-1.8h0.2c-0.7,2.3-2.9,3.3-5.3,3.3
		C145.4,76.7,143.9,75.6,143.9,72.1z"/>
	<path class="st1" d="M171.2,73.1v0.2c-1.3,1.9-3.9,3.3-7,3.3c-3.7,0-6.3-1.7-6.3-5.8V57.5h-2.1l0.5-0.6h1.7v-4.4
		c2.5,0,5-0.8,6.7-2.3v6.7h5.5l-0.5,0.6h-5.1V71c0,2.1,0.8,4.2,2.7,4.2C168.5,75.2,169.9,74.5,171.2,73.1z"/>
</g>
<g class="st0">
	<path class="st1" d="M193.8,76.5v0.2c-3.2-0.1-5.8-0.7-8-2l-1.4,2h-0.3v-10h0.3C185.9,71.3,188.8,74.8,193.8,76.5z M205.9,68.3
		c0,5.3-3.9,8.2-10.3,8.4v-0.2c2.3-0.4,4.5-1.7,4.5-4.2c0-7.2-15.7-7.8-15.7-16.2c0-4.9,4-7.8,9.4-8.1v0.2c-1.9,0.3-3.6,1.5-3.6,3.8
		C190.2,59.2,205.9,60,205.9,68.3z M195.6,48.2V48c3.1,0.1,5.5,0.8,7.4,2.2l1.5-2.2h0.3v9.2h-0.3C203.1,52.8,199.6,49.2,195.6,48.2z
		"/>
</g>
<g class="st0">
	<path class="st1" d="M224.6,73.1v0.2c-1.3,1.9-3.9,3.3-7,3.3c-3.7,0-6.3-1.7-6.3-5.8V57.5h-2.1l0.5-0.6h1.7v-4.4
		c2.5,0,5-0.8,6.7-2.3v6.7h5.5l-0.5,0.6H218V71c0,2.1,0.8,4.2,2.7,4.2C221.9,75.2,223.3,74.5,224.6,73.1z"/>
	<path class="st1" d="M225.9,71.5c0-3.6,3.3-5.6,7.9-5.6h4.4v0.2H237c-3,0-4.4,1.9-4.4,4.5c0,2.3,0.7,4,2.6,4c1.2,0,2.1-0.6,3-1.4
		v0.2c-1.4,1.6-3.5,3.3-6.5,3.3C228.2,76.7,225.9,74.7,225.9,71.5z M227.6,59.8c0-2.1,1.9-4.2,7.5-4.5v0.2c-1.6,0.2-2.6,1.6-2.6,3
		c0,1.5,1,2.4,2.7,2.5c-0.6,1.1-2.3,2-3.9,2C228.9,63.1,227.6,61.6,227.6,59.8z M239.5,72.1V59.5c0-2-0.8-3.6-2.8-3.9v-0.2
		c6.8,0.2,9.5,2.8,9.5,8.2v10c0,1.2,0.4,1.7,1.1,1.7c0.6,0,1.3-0.6,2-1.8h0.2c-0.7,2.3-2.9,3.3-5.3,3.3
		C241,76.7,239.5,75.6,239.5,72.1z"/>
</g>
<g class="st0">
	<path class="st1" d="M260.7,74c0,1,0.6,2.1,3.1,2.1v0.2h-12.9v-0.2c2.5,0,3.1-1.1,3.1-2.1V59.4c0-1.5-0.7-2.2-3-2.2V57
		c3.8,0,6.9-0.4,9.8-1.6V74z M271.8,59.8c0,2.8-2,4.7-4.2,4.7c-1,0-1.8-0.2-2.3-0.9c0.8-0.4,1.6-1.3,1.6-2.8c0-1.2-0.9-2.2-2.3-2.2
		c-1.1,0-1.9,0.6-2.5,1.6v-0.3c0.8-2.6,2.8-4.4,5.3-4.4C270.2,55.4,271.8,57.3,271.8,59.8z"/>
</g>
<g class="st0">
	<path class="st1" d="M23,117.1c2.5,0,3.1-1,3.1-2.1V91.8c0-1.1-0.6-2.1-3.1-2.1v-0.2h13.1v0.2c-2.5,0-3.1,1-3.1,2.1V115
		c0,1.1,0.6,2.1,3.1,2.1v0.2H23V117.1z"/>
	<path class="st1" d="M38.9,117.1c2.5,0,3.1-1.1,3.1-2.1v-14.6c0-1.5-0.7-2.2-3-2.2V98c3.8,0,6.9-0.4,9.8-1.6V115
		c0,1,0.6,2.1,3.1,2.1v0.2H38.9V117.1z M53.3,117.1c2.4,0,3-1.1,3-2.1v-12.8c0-2.3-1.2-3.5-3.2-3.5c-1.1,0-2.1,0.4-3.1,1.3v-0.2
		c1.1-1.7,3.8-3.3,6.8-3.3c3.7,0,6.3,1.7,6.3,5.8V115c0,1,0.6,2.1,3.1,2.1v0.2H53.3V117.1z"/>
	<path class="st1" d="M75.6,112.5c-1.4,0-2.3,0.8-2.3,2.1c0,1.2,0.8,2.7,3.7,3v0.2c-5.5-0.2-8.5-1.7-8.5-4.1c0-1.9,1.6-3,3.5-3
		C73.6,110.7,75,111.4,75.6,112.5z M76.9,96.7c-1.5,0.3-3,1.1-3,2.8c0.1,4.8,13.4,5.5,13.4,12.1c0,4-3.4,6.1-8.7,6.3v-0.2
		c1.7-0.3,3.7-0.9,3.7-3c0-4.3-13.5-5.8-13.5-12.1c0-3.6,3.4-5.8,8-6V96.7z M86.6,100.6c0,1.3-1,2.5-3,2.5c-1.7,0-3-0.7-3.5-2
		c1.2-0.1,1.9-0.9,1.8-1.9c0-1.2-1.6-2.4-3.2-2.6v-0.2C83.4,96.7,86.6,98.3,86.6,100.6z"/>
	<path class="st1" d="M99.5,112c0,2.3,0.8,3.5,2.8,3.5c1.1,0,1.9-0.3,2.8-1.3v0.2c-0.9,1.8-3,3.3-6.4,3.3c-3.7,0-6.1-1.7-6.1-5.8
		v-11.5c0-1.5-0.7-2.2-3-2.2V98c3.8,0,6.9-0.4,9.8-1.6V112z M113.2,114.6c0,1.2,0.4,1.7,1.1,1.7c0.6,0,1.3-0.6,2-1.8h0.2
		c-0.7,2.3-2.9,3.3-5.6,3.3c-2.9,0-4.5-1.6-4.5-4v-13.3c0-1.5-0.7-2.2-2.9-2.2V98c3.7,0,6.2-0.4,9.7-1.6V114.6z"/>
</g>
<g class="st0">
	<path class="st1" d="M128,115c0,1,0.6,2.1,3.1,2.1v0.2h-12.9v-0.2c2.5,0,3.1-1.1,3.1-2.1v-14.6c0-1.5-0.7-2.2-3-2.2V98
		c3.8,0,6.9-0.4,9.8-1.6V115z M139.1,100.9c0,2.8-2,4.7-4.2,4.7c-1,0-1.8-0.2-2.3-0.9c0.8-0.4,1.6-1.3,1.6-2.8
		c0-1.2-0.9-2.2-2.3-2.2c-1.1,0-1.9,0.6-2.5,1.6v-0.3c0.8-2.6,2.8-4.4,5.3-4.4C137.5,96.4,139.1,98.4,139.1,100.9z"/>
</g>
<g class="st0">
	<path class="st1" d="M140.9,112.5c0-3.6,3.3-5.6,7.9-5.6h4.4v0.2H152c-3,0-4.4,1.9-4.4,4.5c0,2.3,0.7,4,2.6,4c1.2,0,2.1-0.6,3-1.4
		v0.2c-1.4,1.6-3.5,3.3-6.5,3.3C143.2,117.8,140.8,115.8,140.9,112.5z M142.5,100.9c0-2.1,1.9-4.2,7.5-4.5v0.2
		c-1.6,0.2-2.6,1.6-2.6,3c0,1.5,1,2.4,2.7,2.5c-0.6,1.1-2.3,2-3.9,2C143.8,104.1,142.5,102.6,142.5,100.9z M154.4,113.1v-12.6
		c0-2-0.8-3.6-2.8-3.9v-0.2c6.8,0.2,9.5,2.8,9.5,8.2v10c0,1.2,0.4,1.7,1.1,1.7c0.6,0,1.3-0.6,2-1.8h0.2c-0.7,2.3-2.9,3.3-5.3,3.3
		C155.9,117.8,154.4,116.6,154.4,113.1z"/>
	<path class="st1" d="M165.8,117.1c2.5,0,3.1-1.1,3.1-2.1v-14.6c0-1.5-0.7-2.2-3-2.2V98c3.8,0,6.9-0.4,9.8-1.6V115
		c0,1,0.6,2.1,3.1,2.1v0.2h-12.9V117.1z M180.2,117.1c2.4,0,3-1.1,3-2.1v-12.8c0-2.3-1.2-3.5-3.2-3.5c-1.1,0-2.1,0.4-3.1,1.3v-0.2
		c1.1-1.7,3.8-3.3,6.8-3.3c3.7,0,6.3,1.7,6.3,5.8V115c0,1,0.6,2.1,3.1,2.1v0.2h-12.9V117.1z"/>
	<path class="st1" d="M205.9,96.7c-2.4,0.3-3.5,2.3-3.5,10.2c0,5.9,3,9.2,6.7,9.2c2.3,0,4.1-0.7,6-2.2v0.2c-2.1,2.7-6,3.7-8.7,3.7
		c-5.3,0-11-3.9-11-10.8s5.7-10.6,10.5-10.6V96.7z M215,101.1c0,2.2-1.5,3.9-4.1,3.9c-2,0-3.3-1.3-3.6-2.6c1.1-0.5,2-1.9,2-3
		c0-0.9-0.2-2.4-1.8-2.7v-0.3C212.9,96.4,215,98.7,215,101.1z"/>
	<path class="st1" d="M218.1,107c0-6.9,5.3-10.6,10.1-10.6v0.2c-2.4,0.3-3.1,2.3-3.1,10.2c0,5.9,2.6,9.2,6.3,9.2
		c2.3,0,4.1-0.7,6-2.2v0.2c-2.1,2.7-6,3.7-8.7,3.7C223.4,117.8,218.1,113.9,218.1,107z M227.3,105.3c3.6,0,5.1-1.1,5.1-4.6
		c0-2-0.8-3.8-2.7-4v-0.2c5.4,0,8,3.9,8,7c0,0.7-0.1,1.5-0.2,2.1h-10.3V105.3z"/>
</g>
<g class="st0">
	<path class="st1" d="M33.4,158.6v0.2c-3.2-0.1-5.8-0.7-8-2l-1.4,2h-0.3v-10h0.3C25.4,153.5,28.4,156.9,33.4,158.6z M45.5,150.4
		c0,5.3-3.9,8.2-10.3,8.4v-0.2c2.3-0.4,4.5-1.7,4.5-4.2c0-7.2-15.7-7.8-15.7-16.2c0-4.9,4-7.8,9.4-8.1v0.2c-1.9,0.3-3.6,1.5-3.6,3.8
		C29.8,141.3,45.5,142.1,45.5,150.4z M35.2,130.3v-0.2c3.1,0.1,5.5,0.8,7.4,2.2l1.5-2.2h0.3v9.2h-0.3
		C42.7,134.9,39.2,131.3,35.2,130.3z"/>
	<path class="st1" d="M58.1,164.7c0,1.5,0.7,2.2,3,2.2v0.2c-3.8,0-6.4,0.4-9.8,1.6v-27.2c0-1.5-0.7-2.2-3-2.2V139
		c3.8,0,6.4-0.4,9.8-1.6V164.7z M73.7,147.9c0,8.6-4.5,10.9-8.4,10.9c-2.3,0-5-1.6-6-3.3v-0.2c1,0.8,2.1,1.4,3.4,1.4
		c1.9,0,4-1.4,4-8.7c0-7.4-1.9-8.4-4-8.4c-1.3,0-2.5,0.5-3.4,1.5v-0.3c1-1.7,3.7-3.3,6-3.3C69.3,137.5,73.7,139.8,73.7,147.9z"/>
	<path class="st1" d="M77.3,148.1c0-6.9,5.3-10.6,10.1-10.6v0.2c-2.4,0.3-3.1,2.3-3.1,10.2c0,5.9,2.6,9.2,6.3,9.2
		c2.3,0,4.1-0.7,6-2.2v0.2c-2.1,2.7-6,3.7-8.7,3.7C82.6,158.8,77.3,155,77.3,148.1z M86.6,146.3c3.6,0,5.1-1.1,5.1-4.6
		c0-2-0.8-3.8-2.7-4v-0.2c5.4,0,8,3.9,8,7c0,0.7-0.1,1.5-0.2,2.1H86.6V146.3z"/>
	<path class="st1" d="M111,137.7c-2.4,0.3-3.5,2.3-3.5,10.2c0,5.9,3,9.2,6.7,9.2c2.3,0,4.1-0.7,6-2.2v0.2c-2.1,2.7-6,3.7-8.7,3.7
		c-5.3,0-11-3.9-11-10.8s5.7-10.6,10.5-10.6V137.7z M120.1,142.1c0,2.2-1.5,3.9-4.1,3.9c-2,0-3.3-1.3-3.6-2.6c1.1-0.5,2-1.9,2-3
		c0-0.9-0.2-2.4-1.8-2.7v-0.3C118,137.5,120.1,139.8,120.1,142.1z"/>
	<path class="st1" d="M122.5,139c3.8,0,6.9-0.4,9.8-1.6v18.6c0,1,0.6,2.1,3.1,2.1v0.2h-12.9v-0.2c2.5,0,3.1-1.1,3.1-2.1v-14.6
		c0-1.5-0.7-2.2-3-2.2V139z M124.6,131.3c0-2.1,1.7-3.6,4.2-3.6c2.5,0,4.2,1.4,4.2,3.6c0,2.2-1.7,3.6-4.2,3.6
		C126.3,134.9,124.6,133.5,124.6,131.3z"/>
	<path class="st1" d="M137.5,153.6c0-3.6,3.3-5.6,7.9-5.6h4.4v0.2h-1.2c-3,0-4.4,1.9-4.4,4.5c0,2.3,0.7,4,2.6,4c1.1,0,2.1-0.6,3-1.4
		v0.2c-1.4,1.6-3.5,3.3-6.5,3.3C139.8,158.8,137.4,156.9,137.5,153.6z M139.1,142c0-2.1,1.9-4.2,7.5-4.5v0.2c-1.6,0.2-2.6,1.6-2.6,3
		c0,1.5,1,2.4,2.7,2.5c-0.6,1.1-2.3,2-3.9,2C140.4,145.2,139.1,143.7,139.1,142z M151,154.2v-12.6c0-2-0.8-3.6-2.8-3.9v-0.2
		c6.8,0.2,9.5,2.8,9.5,8.2v10c0,1.2,0.4,1.7,1.1,1.7c0.6,0,1.3-0.6,2-1.8h0.2c-0.7,2.3-2.9,3.3-5.3,3.3
		C152.5,158.8,151,157.7,151,154.2z"/>
	<path class="st1" d="M162.2,129.8c3.8,0,6.9-0.4,9.8-1.6v27.8c0,1,0.6,2.1,3.1,2.1v0.2h-12.9v-0.2c2.5,0,3.1-1.1,3.1-2.1v-23.8
		c0-1.5-0.7-2.2-3-2.2V129.8z"/>
	<path class="st1" d="M176.9,139c3.8,0,6.9-0.4,9.8-1.6v18.6c0,1,0.6,2.1,3.1,2.1v0.2h-12.9v-0.2c2.5,0,3.1-1.1,3.1-2.1v-14.6
		c0-1.5-0.7-2.2-3-2.2V139z M179,131.3c0-2.1,1.7-3.6,4.2-3.6s4.2,1.4,4.2,3.6c0,2.2-1.7,3.6-4.2,3.6S179,133.5,179,131.3z"/>
	<path class="st1" d="M199.4,153.5c-1.4,0-2.3,0.8-2.3,2.1c0,1.2,0.8,2.7,3.7,3v0.2c-5.5-0.2-8.5-1.7-8.5-4.1c0-1.9,1.6-3,3.5-3
		C197.4,151.7,198.8,152.5,199.4,153.5z M200.7,137.7c-1.5,0.3-3,1.1-3,2.8c0.1,4.8,13.4,5.5,13.4,12.1c0,4-3.4,6.1-8.7,6.3v-0.2
		c1.7-0.3,3.7-0.9,3.7-3c0-4.3-13.5-5.8-13.5-12.1c0-3.6,3.4-5.8,8-6V137.7z M210.4,141.7c0,1.3-1,2.5-3,2.5c-1.7,0-3-0.7-3.5-2
		c1.2-0.1,1.9-0.9,1.8-1.9c0-1.2-1.6-2.4-3.2-2.6v-0.2C207.2,137.7,210.4,139.4,210.4,141.7z"/>
	<path class="st1" d="M229.8,155.3v0.2c-1.3,1.9-3.9,3.3-7,3.3c-3.7,0-6.3-1.7-6.3-5.8v-13.5h-2.1l0.5-0.6h1.7v-4.4
		c2.5,0,5-0.8,6.7-2.3v6.7h5.5l-0.5,0.6h-5.1v13.6c0,2.1,0.8,4.2,2.7,4.2C227.1,157.4,228.5,156.6,229.8,155.3z"/>
	<path class="st1" d="M238.7,153.5c-1.4,0-2.3,0.8-2.3,2.1c0,1.2,0.8,2.7,3.7,3v0.2c-5.5-0.2-8.5-1.7-8.5-4.1c0-1.9,1.6-3,3.5-3
		C236.7,151.7,238.1,152.5,238.7,153.5z M240.1,137.7c-1.5,0.3-3,1.1-3,2.8c0.1,4.8,13.4,5.5,13.4,12.1c0,4-3.4,6.1-8.7,6.3v-0.2
		c1.7-0.3,3.7-0.9,3.7-3c0-4.3-13.5-5.8-13.5-12.1c0-3.6,3.4-5.8,8-6V137.7z M249.8,141.7c0,1.3-1,2.5-3,2.5c-1.7,0-3-0.7-3.5-2
		c1.2-0.1,1.9-0.9,1.8-1.9c0-1.2-1.6-2.4-3.2-2.6v-0.2C246.5,137.7,249.8,139.4,249.8,141.7z"/>
</g>
</svg>
