<svg id="Layer_1" data-name="Layer 1" xmlns="http://www.w3.org/2000/svg" viewBox="0 0 300 600"><defs><style>.cls-1{fill:none;}.cls-2{fill:#ffac00;}.cls-3{fill:#fff;}</style></defs><title>Artboard 1 copy</title><rect class="cls-1" width="300" height="600"/><path class="cls-2" d="M17.26,225.4V274a17.34,17.34,0,0,0,9.35,15.39L99.5,327.24a21.67,21.67,0,0,0,20,0l72.88-37.82A17.33,17.33,0,0,0,201.71,274V225.4a8.1,8.1,0,0,0-8.1-8.1H25.36A8.1,8.1,0,0,0,17.26,225.4Z"/><path class="cls-3" d="M95,252l.33-.48c.24-.33.5-.35.87-.14a3.71,3.71,0,0,0,2.17.79c1,0,1.59-.5,1.59-1.22,0-2-5-1.61-5-4.92,0-1.88,1.56-3.1,3.59-3.1a4.93,4.93,0,0,1,2.74.81.6.6,0,0,1,.2.86l-.27.5c-.23.43-.54.37-.86.21a3.42,3.42,0,0,0-1.84-.59c-1,0-1.63.48-1.63,1.2,0,2,5,1.49,5,4.88A3.19,3.19,0,0,1,98.41,254a5.65,5.65,0,0,1-3.28-1.08A.56.56,0,0,1,95,252Z"/><path class="cls-3" d="M106.23,244.79h-2.87a.55.55,0,0,1-.63-.62v-.42a.57.57,0,0,1,.63-.63H111a.56.56,0,0,1,.61.63v.42a.55.55,0,0,1-.61.62h-2.87v8.36a.56.56,0,0,1-.63.63h-.68a.55.55,0,0,1-.61-.63Z"/><path class="cls-3" d="M114.16,243.63a.69.69,0,0,1,.71-.51h1a.68.68,0,0,1,.71.51l3.33,9.43c.15.44-.05.72-.51.72h-.69a.67.67,0,0,1-.71-.51l-.75-2.22h-3.74l-.73,2.21a.67.67,0,0,1-.71.52h-.69c-.46,0-.66-.28-.51-.72Zm2.57,5.84-.94-2.85c-.19-.6-.43-1.65-.43-1.65h0s-.24,1.05-.42,1.65l-1,2.85Z"/><path class="cls-3" d="M121.21,243.75a.56.56,0,0,1,.62-.63h2.88a4.8,4.8,0,0,1,2,.29,3,3,0,0,1,1.78,2.91,3.08,3.08,0,0,1-1.77,2.91v0a3.81,3.81,0,0,1,.35.56l1.75,3.21c.26.44.06.75-.43.75h-.81a.76.76,0,0,1-.74-.43L125,249.8h-1.87v3.35a.55.55,0,0,1-.61.63h-.69a.55.55,0,0,1-.62-.63Zm3.67,4.37a1.56,1.56,0,0,0,1.68-1.69,1.44,1.44,0,0,0-.84-1.46,2.7,2.7,0,0,0-1.16-.18h-1.43v3.33Z"/><path class="cls-3" d="M95.75,256.77a.33.33,0,0,1,.36-.37h.31a.33.33,0,0,1,.36.37v9.81a.33.33,0,0,1-.36.37h-.31a.33.33,0,0,1-.36-.37Z"/><path class="cls-3" d="M99.28,259.78a.35.35,0,0,1,.38-.38h.27a.34.34,0,0,1,.36.38v.87a2.48,2.48,0,0,1-.06.54h0a3.33,3.33,0,0,1,3-2c1.87,0,2.53,1.07,2.53,2.93v4.43a.33.33,0,0,1-.37.37h-.29a.33.33,0,0,1-.36-.37v-4.16c0-1.19-.19-2.24-1.65-2.24a2.93,2.93,0,0,0-2.87,3.08v3.32a.33.33,0,0,1-.36.37h-.28a.34.34,0,0,1-.38-.37Z"/><path class="cls-3" d="M107.46,265.75l.12-.15c.14-.18.3-.19.51-.06a3.24,3.24,0,0,0,2,.69c.84,0,1.53-.42,1.53-1.21,0-1.7-4-1.19-4-3.68,0-1.4,1.19-2.12,2.57-2.12a3.43,3.43,0,0,1,2.07.62.32.32,0,0,1,.11.49l-.11.17c-.12.21-.3.22-.51.1a2.84,2.84,0,0,0-1.62-.48c-.79,0-1.49.35-1.49,1.17,0,1.74,4,1.19,4,3.71a2.27,2.27,0,0,1-2.55,2.13,3.93,3.93,0,0,1-2.56-.87A.34.34,0,0,1,107.46,265.75Z"/><path class="cls-3" d="M114.14,259.78a.33.33,0,0,1,.36-.38h.29a.34.34,0,0,1,.37.38v4.15c0,1.19.18,2.24,1.64,2.24a2.93,2.93,0,0,0,2.79-3.15v-3.24a.35.35,0,0,1,.38-.38h.28a.33.33,0,0,1,.36.38v6.8a.33.33,0,0,1-.36.37H120a.33.33,0,0,1-.36-.37v-.87a3,3,0,0,1,0-.54h0a3.29,3.29,0,0,1-3,2c-1.78,0-2.52-1-2.52-2.92Z"/><path class="cls-3" d="M122.82,259.78a.35.35,0,0,1,.38-.38h.27a.34.34,0,0,1,.36.38v1a3.08,3.08,0,0,1-.06.6h0a2.69,2.69,0,0,1,2.43-2c.27,0,.39.12.39.36V260c0,.24-.16.37-.42.37-1.59,0-2.36,1.82-2.36,3.39v2.83a.33.33,0,0,1-.36.37h-.28a.34.34,0,0,1-.38-.37Z"/><path class="cls-3" d="M131.82,262.33h.43v-.24c0-1.46-.79-1.95-1.86-1.95a3.56,3.56,0,0,0-1.83.52.35.35,0,0,1-.51-.12l-.09-.15a.34.34,0,0,1,.11-.51,4.6,4.6,0,0,1,2.4-.66,2.57,2.57,0,0,1,2.8,2.9v4.46a.33.33,0,0,1-.36.37h-.24a.33.33,0,0,1-.37-.37V266a3.52,3.52,0,0,1,0-.57h0a2.79,2.79,0,0,1-2.55,1.72,2.32,2.32,0,0,1-2.55-2.2C127.21,262.46,130.36,262.33,131.82,262.33Zm-1.88,3.95c1.46,0,2.31-1.5,2.31-2.83v-.36h-.42c-1.18,0-3.57.05-3.57,1.75A1.52,1.52,0,0,0,129.94,266.28Z"/><path class="cls-3" d="M135.42,259.78a.34.34,0,0,1,.37-.38h.27a.34.34,0,0,1,.36.38v.87a2.48,2.48,0,0,1-.06.54h0a3.35,3.35,0,0,1,3.05-2c1.87,0,2.54,1.07,2.54,2.93v4.43a.34.34,0,0,1-.38.37h-.29a.33.33,0,0,1-.36-.37v-4.16c0-1.19-.19-2.24-1.65-2.24a2.93,2.93,0,0,0-2.86,3.08v3.32a.33.33,0,0,1-.36.37h-.29a.33.33,0,0,1-.37-.37Z"/><path class="cls-3" d="M147.62,259.22a4,4,0,0,1,2.51.86c.18.13.19.31,0,.51l-.1.16c-.14.21-.3.21-.51.08a3.09,3.09,0,0,0-1.91-.69,3,3,0,0,0,0,6.08,3.3,3.3,0,0,0,2.13-.8.3.3,0,0,1,.49.09l.11.15a.37.37,0,0,1-.09.51,4.17,4.17,0,0,1-2.69,1,4,4,0,1,1,0-7.91Z"/><path class="cls-3" d="M155.06,259.22c2,0,3.15,1.46,3.15,3.6a.38.38,0,0,1-.39.38h-5.44a2.89,2.89,0,0,0,2.93,3,3.21,3.21,0,0,0,2-.69.31.31,0,0,1,.5.09l.12.18a.35.35,0,0,1-.11.49,4.27,4.27,0,0,1-2.52.84,3.82,3.82,0,0,1-3.95-3.95A3.69,3.69,0,0,1,155.06,259.22Zm2.11,3.21a2.17,2.17,0,0,0-2.14-2.37,2.6,2.6,0,0,0-2.6,2.37Z"/><path class="cls-3" d="M95.93,271.08a.59.59,0,0,1,.64-.6h1a.68.68,0,0,1,.71.51l1.9,4.76c.24.63.54,1.56.54,1.56h0s.29-.93.53-1.56l1.9-4.76a.68.68,0,0,1,.72-.51h.94a.58.58,0,0,1,.64.6l.77,9.41a.54.54,0,0,1-.6.65h-.68a.59.59,0,0,1-.65-.6l-.4-5.36c-.05-.71,0-1.65,0-1.65h0s-.33,1-.57,1.65l-1.54,3.63a.68.68,0,0,1-.71.49h-.63a.69.69,0,0,1-.72-.49l-1.53-3.63c-.24-.62-.58-1.67-.58-1.67h0s0,1,0,1.67l-.41,5.36a.58.58,0,0,1-.64.6h-.68a.54.54,0,0,1-.6-.65Z"/><path class="cls-3" d="M111.79,273.3a4,4,0,1,1-4.21,4A4,4,0,0,1,111.79,273.3Zm0,6.39a2.39,2.39,0,1,0-2.27-2.38A2.28,2.28,0,0,0,111.79,279.69Z"/><path class="cls-3" d="M117.58,275.1h-.4a.55.55,0,0,1-.62-.63v-.25a.56.56,0,0,1,.63-.63h.44V272a.57.57,0,0,1,.63-.63h.6a.57.57,0,0,1,.63.63v1.57h1.11a.57.57,0,0,1,.63.63v.25a.55.55,0,0,1-.61.63h-1.13v3a1.26,1.26,0,0,0,1.23,1.43c.47,0,.63.19.63.61v.47c0,.45-.25.63-.78.63a2.74,2.74,0,0,1-3-2.81Z"/><path class="cls-3" d="M126.1,273.3a4,4,0,1,1-4.21,4A4,4,0,0,1,126.1,273.3Zm0,6.39a2.39,2.39,0,1,0-2.27-2.38A2.28,2.28,0,0,0,126.1,279.69Z"/><path class="cls-3" d="M131.71,274.11a.56.56,0,0,1,.62-.63h.58a.57.57,0,0,1,.63.63v.72a3.6,3.6,0,0,1,0,.53h0a2.63,2.63,0,0,1,2.22-1.94c.42,0,.57.21.57.63v.59a.58.58,0,0,1-.65.63c-1.39,0-2.07,1.38-2.07,2.77v2.47a.55.55,0,0,1-.61.63h-.66a.55.55,0,0,1-.62-.63Z"/><path class="cls-3" d="M140.9,273.3a4.22,4.22,0,0,1,2.5.77.55.55,0,0,1,.12.85l-.19.3c-.23.35-.48.35-.84.17a2.71,2.71,0,0,0-1.49-.47,2.28,2.28,0,0,0-2.33,2.37,2.32,2.32,0,0,0,2.39,2.4,3,3,0,0,0,1.71-.58c.38-.21.66-.17.86.19l.15.29a.59.59,0,0,1-.17.84,4.48,4.48,0,0,1-2.71.89,4,4,0,1,1,0-8Z"/><path class="cls-3" d="M145.39,282.58a1.34,1.34,0,0,0,.54.13,1.46,1.46,0,0,0,1.22-1l.28-.67-2.91-6.8c-.19-.44,0-.74.48-.74h.81a.68.68,0,0,1,.71.51l1.44,3.9c.13.41.28,1,.28,1h0s.14-.6.26-1l1.35-3.91a.66.66,0,0,1,.71-.53h.75a.49.49,0,0,1,.51.72l-3.16,8.08a2.89,2.89,0,0,1-2.76,2,2.82,2.82,0,0,1-1.06-.23.54.54,0,0,1-.29-.81l.14-.33A.54.54,0,0,1,145.39,282.58Z"/><path class="cls-3" d="M156.42,273.3a4.26,4.26,0,0,1,2.51.77.55.55,0,0,1,.12.85l-.19.3c-.23.35-.48.35-.85.17a2.64,2.64,0,0,0-1.48-.47,2.28,2.28,0,0,0-2.33,2.37,2.32,2.32,0,0,0,2.39,2.4,3,3,0,0,0,1.71-.58c.38-.21.66-.17.86.19l.15.29a.59.59,0,0,1-.17.84,4.51,4.51,0,0,1-2.72.89,4,4,0,1,1,0-8Z"/><path class="cls-3" d="M160.58,271.11a.56.56,0,0,1,.62-.63h.66a.55.55,0,0,1,.61.63v7.49c0,.75.32.88.6.91a.49.49,0,0,1,.47.54v.52a.56.56,0,0,1-.63.64c-1,0-2.33-.27-2.33-2.46Z"/><path class="cls-3" d="M168.05,273.3c2.18,0,3.4,1.55,3.4,3.65a.66.66,0,0,1-.66.64h-4.67a2.2,2.2,0,0,0,2.29,2.1,3.19,3.19,0,0,0,1.65-.49c.38-.18.65-.14.85.21l.18.3a.57.57,0,0,1-.21.84,4.82,4.82,0,0,1-2.6.77,3.92,3.92,0,0,1-4.11-4A3.77,3.77,0,0,1,168.05,273.3Zm1.5,3.14a1.55,1.55,0,0,0-1.54-1.7,1.87,1.87,0,0,0-1.85,1.7Z"/><path class="cls-3" d="M59.55,276.35a1.07,1.07,0,0,1-.48-.12,1,1,0,0,1-.52-1.27l11.11-34.2a2.34,2.34,0,0,1,2.25-1.64h0a2.34,2.34,0,0,1,2.26,1.64l2.25,6.78a.81.81,0,1,1-1.53.51l-2.25-6.79a.75.75,0,0,0-.73-.53h0a.74.74,0,0,0-.72.53l-10,30.92,14.15-19.37a4.43,4.43,0,0,1,3.56-1.8h9.43a2.37,2.37,0,0,1,1.39,4.29l-8.62,6.27-.09.08,3.33,10.24a2.37,2.37,0,0,1-3.65,2.66l-7.45-5.42a2.37,2.37,0,0,1,0-3.84l6.25-4.53.09-.08,9.2-6.68a.74.74,0,0,0,.27-.85.73.73,0,0,0-.72-.53H78.85a2.83,2.83,0,0,0-2.26,1.14L60.41,275.91A1.08,1.08,0,0,1,59.55,276.35Zm20-13.71-5.46,3.95a.78.78,0,0,0,0,1.24l7.46,5.41a.71.71,0,0,0,.89,0,.72.72,0,0,0,.28-.85Z"/><path class="cls-3" d="M60.13,259.35a.84.84,0,0,1-.47-.15l-5.5-3.89a2.37,2.37,0,0,1,1.39-4.3h6.74a.81.81,0,1,1,0,1.61H55.55a.73.73,0,0,0-.72.53.74.74,0,0,0,.27.85l5.49,3.89a.8.8,0,0,1,.2,1.12A.82.82,0,0,1,60.13,259.35Z"/><path class="cls-3" d="M67.62,287.7a2.57,2.57,0,0,1-1.29-.34l-14.06-8a.8.8,0,0,1-.4-.7V261.54a.81.81,0,1,1,1.61,0v16.68L67.12,286a1,1,0,0,0,1,0l10-6.24a.8.8,0,0,1,1.11.25.81.81,0,0,1-.26,1.11L69,287.3A2.54,2.54,0,0,1,67.62,287.7Z"/></svg>