<svg id="Layer_1" data-name="Layer 1" xmlns="http://www.w3.org/2000/svg" viewBox="0 0 300 150"><defs><style>.cls-1{fill:none;}.cls-2{fill:#fff;}</style></defs><title>Artboard 1 copy 2</title><rect class="cls-1" width="300" height="150"/><rect class="cls-1" width="300" height="150"/><rect class="cls-1" width="300" height="150"/><path class="cls-2" d="M13.27,48.2l.2.3.2,10.5a2.18,2.18,0,0,0,2.45,2.1v.15H10.63V61.1A2.19,2.19,0,0,0,13.07,59Zm13.25,13H23.75L13.3,45.68a2.71,2.71,0,0,0-2.65-1.27v-.16h6.67L26.52,58Zm-.05-5.75-.2-.27L26,46.5a2.18,2.18,0,0,0-2.45-2.09v-.16H29v.16a2.18,2.18,0,0,0-2.45,2.09Z"/><path class="cls-2" d="M40.2,44.25H45l-9.92,17H30.3Zm-9.18,0h7.55l-.07.16a7.71,7.71,0,0,0-7.28,5.87H31ZM36.75,61.1a8.54,8.54,0,0,0,7.8-6.67h.2v6.82H36.67Z"/><path class="cls-2" d="M52,45.05c0,1.45-1.55,3.38-4.05,4.4l-.08-.22a3.49,3.49,0,0,0,1.43-2.43,1.57,1.57,0,0,0-1.7-1.64,2.31,2.31,0,0,1,2.37-2.28A2,2,0,0,1,52,45.05Z"/><path class="cls-2" d="M57.07,58.28a1.28,1.28,0,0,0-1.4,1.25c0,.72.5,1.65,2.23,1.82v.15c-3.33-.12-5.15-1-5.15-2.47a2,2,0,0,1,2.12-1.85A2.53,2.53,0,0,1,57.07,58.28Zm.83-9.63c-.93.18-1.83.65-1.8,1.68.07,2.9,8.17,3.37,8.17,7.35,0,2.42-2,3.7-5.27,3.82v-.15c1-.17,2.22-.55,2.22-1.85,0-2.6-8.2-3.55-8.2-7.35,0-2.2,2.08-3.52,4.88-3.65Zm5.9,2.43A1.64,1.64,0,0,1,62,52.63a2.16,2.16,0,0,1-2.13-1.2A1.12,1.12,0,0,0,61,50.25c0-.75-1-1.47-2-1.6V48.5C61.82,48.65,63.8,49.68,63.8,51.08Z"/><path class="cls-2" d="M10.48,70.86a15.22,15.22,0,0,0,6-1v17c0,.62.37,1.27,1.87,1.27v.15H10.45V88.1c1.5,0,1.87-.65,1.87-1.27V72.33c0-.9-.42-1.33-1.84-1.33Z"/><path class="cls-2" d="M19.82,82A6.19,6.19,0,0,1,26,75.5v.15c-1.48.18-1.88,1.43-1.88,6.2,0,3.6,1.6,5.58,3.83,5.58a5.44,5.44,0,0,0,3.65-1.33v.15a7,7,0,0,1-5.3,2.25A6.34,6.34,0,0,1,19.82,82Zm5.63-1c2.2,0,3.12-.7,3.12-2.8,0-1.2-.5-2.3-1.62-2.45V75.5c3.3,0,4.9,2.35,4.9,4.25a6.9,6.9,0,0,1-.13,1.3H25.45Z"/><path class="cls-2" d="M33.65,85.3c0-2.17,2-3.4,4.8-3.4h2.7v.15H40.4a2.48,2.48,0,0,0-2.65,2.73c0,1.37.4,2.42,1.57,2.42a2.75,2.75,0,0,0,1.83-.87v.15a5.32,5.32,0,0,1-4,2C35.05,88.5,33.62,87.3,33.65,85.3Zm1-7.07c0-1.28,1.15-2.58,4.55-2.73v.15a1.83,1.83,0,0,0-1.6,1.83c0,.9.62,1.45,1.62,1.52a2.8,2.8,0,0,1-2.4,1.2A2,2,0,0,1,34.65,78.23Zm7.25,7.45V78c0-1.23-.48-2.2-1.7-2.38V75.5c4.15.15,5.8,1.73,5.8,5v6.08c0,.72.25,1,.7,1s.8-.37,1.2-1.12h.15a3.12,3.12,0,0,1-3.25,2C42.8,88.5,41.9,87.8,41.9,85.68Z"/><path class="cls-2" d="M58.15,77.5v.2a2.78,2.78,0,0,0-2.08-.92c-1.25,0-2.45.57-2.45,5.1s1.28,5.32,2.45,5.32a3.49,3.49,0,0,0,2.08-.87v.15a4.64,4.64,0,0,1-3.63,2c-2.37,0-5.15-1.4-5.15-6.62,0-5,2.73-6.38,5.15-6.38A4.63,4.63,0,0,1,58.15,77.5ZM63,86.58c0,.72.23,1,.68,1s.8-.37,1.2-1.12h.15a3.12,3.12,0,0,1-3.25,2c-2,0-2.9-.7-2.9-2.82V72.33c0-.9-.43-1.33-1.85-1.33v-.14a16.28,16.28,0,0,0,6-1Z"/><path class="cls-2" d="M66.1,76.45a15.37,15.37,0,0,0,6-1V86.83c0,.62.38,1.27,1.88,1.27v.15H66.07V88.1c1.5,0,1.88-.65,1.88-1.27v-8.9c0-.9-.43-1.33-1.85-1.33Zm1.27-4.7A2.58,2.58,0,1,1,69.92,74,2.27,2.27,0,0,1,67.37,71.75Z"/><path class="cls-2" d="M75,88.1c1.5,0,1.87-.65,1.87-1.27V78c0-.9-.42-1.32-1.85-1.32v-.15a15.23,15.23,0,0,0,6-1V86.83c0,.62.37,1.27,1.87,1.27v.15H75Zm8.8,0c1.47,0,1.85-.65,1.85-1.27V79a1.86,1.86,0,0,0-2-2.13,2.67,2.67,0,0,0-1.9.78v-.15a5.12,5.12,0,0,1,4.15-2c2.25,0,3.85,1,3.85,3.53v7.8c0,.62.37,1.27,1.87,1.27v.15H83.8Z"/><path class="cls-2" d="M93.12,80c0-3.25,3-4.48,5.6-4.53v.15c-1.07.1-1.57,1.4-1.57,4.3s.5,4.25,1.57,4.35v.15C96.2,84.45,93.12,83.25,93.12,80Zm6.65,14.32c2.5-.3,3.3-1.65,3.3-2.55,0-3.47-9.75-.38-9.75-4.85A3,3,0,0,1,95,84.4l.07.13a.57.57,0,0,0-.22.47c0,2.8,11.4-.45,11.4,5,0,2.57-2.23,4.25-6.48,4.5Zm-6.45-2.1c0-1.47,1.83-1.93,3.8-1.93a2.12,2.12,0,0,0-1.07,1.78c0,1.15,1.3,2,2.72,2.25v.15C96.1,94.45,93.32,93.9,93.32,92.25Zm6.45-8C101,84.2,101.5,83,101.5,80s-.53-4.2-1.73-4.3V75.5c2.65,0,5.73,1.28,5.73,4.53s-3.08,4.42-5.73,4.42Zm1.35-9.25c.43-1.27,1.58-3,3.3-3,1.33,0,2.13.7,2.13,1.9a2,2,0,0,1-2,2c0-1.05-.55-1.67-1.35-1.67a2.7,2.7,0,0,0-1.92.9Z"/><path class="cls-2" d="M16.6,113.83c0,.62.37,1.27,1.87,1.27v.15H10.6v-.15c1.5,0,1.88-.65,1.88-1.27V105c0-.9-.43-1.32-1.85-1.32v-.15a15.22,15.22,0,0,0,6-1Zm8.3-7.8v7.8c0,.62.35,1.27,1.85,1.27v.15H18.9v-.15c1.47,0,1.87-.65,1.87-1.27V106c0-1.4-.55-2.13-1.75-2.13a2.2,2.2,0,0,0-1.65.75v-.15a4.06,4.06,0,0,1,3.65-2C23.4,102.5,24.9,103.55,24.9,106Zm8.27,0v7.8c0,.62.37,1.27,1.87,1.27v.15H27.17v-.15c1.48,0,1.88-.65,1.88-1.27V106c0-1.4-.55-2.13-1.75-2.13a2.19,2.19,0,0,0-1.65.75v-.15a4,4,0,0,1,3.65-2C31.67,102.5,33.17,103.55,33.17,106Z"/><path class="cls-2" d="M42.62,102.65c-1.47.18-2,1.43-2,6.3,0,4.7.5,6.25,2,6.4v.15A6.37,6.37,0,0,1,36.4,109a6.27,6.27,0,0,1,6.22-6.45Zm7.2,6.3a6.36,6.36,0,0,1-6.2,6.55v-.15c1.48-.15,2-1.72,2-6.4,0-4.9-.5-6.15-2-6.3v-.15A6.23,6.23,0,0,1,49.82,109Z"/><path class="cls-2" d="M61.17,113.33v.15a5.22,5.22,0,0,1-4.27,2c-2.25,0-3.85-1-3.85-3.52v-8.2h-1.3l.27-.38h1v-2.7a6.31,6.31,0,0,0,4.1-1.4v4.1h3.37l-.27.38h-3.1v8.27c0,1.25.47,2.55,1.65,2.55A3.68,3.68,0,0,0,61.17,113.33Z"/><path class="cls-2" d="M68.32,102.65c-1.47.18-2,1.43-2,6.3,0,4.7.5,6.25,2,6.4v.15A6.37,6.37,0,0,1,62.1,109a6.27,6.27,0,0,1,6.22-6.45Zm7.2,6.3a6.36,6.36,0,0,1-6.2,6.55v-.15c1.48-.15,2-1.72,2-6.4,0-4.9-.5-6.15-2-6.3v-.15A6.23,6.23,0,0,1,75.52,109Z"/><path class="cls-2" d="M83.17,113.83c0,.62.38,1.27,1.88,1.27v.15H77.17v-.15c1.5,0,1.88-.65,1.88-1.27V105c0-.9-.43-1.32-1.85-1.32v-.15a15.18,15.18,0,0,0,6-1Zm6.75-8.63a2.67,2.67,0,0,1-2.57,2.85,1.71,1.71,0,0,1-1.43-.55,1.82,1.82,0,0,0,1-1.7,1.33,1.33,0,0,0-1.4-1.35,1.72,1.72,0,0,0-1.5,1v-.2a3.46,3.46,0,0,1,3.25-2.7A2.54,2.54,0,0,1,89.92,105.2Z"/><path class="cls-2" d="M97.67,102.65c-1.47.18-2.12,1.43-2.12,6.2,0,3.6,1.82,5.58,4,5.58a5.44,5.44,0,0,0,3.65-1.33v.15A7,7,0,0,1,98,115.5,6.54,6.54,0,0,1,91.27,109a6.41,6.41,0,0,1,6.4-6.45Zm5.55,2.68a2.33,2.33,0,0,1-2.5,2.4,2.12,2.12,0,0,1-2.17-1.58,2.14,2.14,0,0,0,1.2-1.82,1.48,1.48,0,0,0-1.08-1.65v-.18C102,102.5,103.22,103.9,103.22,105.33Z"/><path class="cls-2" d="M105.3,103.78a1.35,1.35,0,0,0-1.38-.88v-.15h7v.15c-.87,0-1.22.6-.8,1.48l3.28,6.82-2.15,4h-.15Zm-1.1,15.5a2.61,2.61,0,0,1,2.2-2.35,1.75,1.75,0,0,0-.1.62,1.46,1.46,0,0,0,1.47,1.67c.88,0,1.58-.92,2.53-2.52h.17c-1.37,2.58-2.32,4.8-4.07,4.8A2.08,2.08,0,0,1,104.2,119.28Zm10.25-10.53a6.89,6.89,0,0,0,.7-3.22,2.42,2.42,0,0,0-2.55-2.63v-.15h6.22v.15c-.82,0-1.15.33-1.62,1.18l-2.6,4.9Z"/><path class="cls-2" d="M125.35,102.65c-1.48.18-2.13,1.43-2.13,6.2,0,3.6,1.83,5.58,4,5.58a5.4,5.4,0,0,0,3.65-1.33v.15a7,7,0,0,1-5.3,2.25A6.53,6.53,0,0,1,119,109a6.4,6.4,0,0,1,6.4-6.45Zm5.55,2.68a2.33,2.33,0,0,1-2.5,2.4,2.13,2.13,0,0,1-2.18-1.58,2.14,2.14,0,0,0,1.2-1.82,1.48,1.48,0,0,0-1.07-1.65v-.18C129.62,102.5,130.9,103.9,130.9,105.33Z"/><path class="cls-2" d="M132.2,97.86a15.18,15.18,0,0,0,6-1v17c0,.62.38,1.27,1.88,1.27v.15h-7.88v-.15c1.5,0,1.88-.65,1.88-1.27V99.33c0-.9-.43-1.33-1.85-1.33Z"/><path class="cls-2" d="M141.55,109a6.19,6.19,0,0,1,6.12-6.45v.15c-1.47.18-1.87,1.43-1.87,6.2,0,3.6,1.6,5.58,3.82,5.58a5.4,5.4,0,0,0,3.65-1.33v.15a7,7,0,0,1-5.3,2.25A6.33,6.33,0,0,1,141.55,109Zm5.62-1c2.2,0,3.13-.7,3.13-2.8,0-1.2-.5-2.3-1.63-2.45v-.15c3.3,0,4.9,2.35,4.9,4.25a7.85,7.85,0,0,1-.12,1.3h-6.28Z"/><path class="cls-2" d="M10.65,130.45a15.37,15.37,0,0,0,6-1v11.35c0,.62.38,1.27,1.88,1.27v.15H10.63v-.15c1.49,0,1.87-.65,1.87-1.27v-8.9c0-.9-.43-1.33-1.85-1.33Zm1.27-4.7a2.27,2.27,0,0,1,2.55-2.17,2.21,2.21,0,1,1,0,4.37A2.27,2.27,0,0,1,11.92,125.75Z"/><path class="cls-2" d="M19.55,142.1c1.5,0,1.87-.65,1.87-1.27V132c0-.9-.42-1.32-1.85-1.32v-.15a15.23,15.23,0,0,0,6-1v11.33c0,.62.37,1.27,1.87,1.27v.15H19.55Zm8.8,0c1.47,0,1.85-.65,1.85-1.27V133a1.86,1.86,0,0,0-2-2.13,2.67,2.67,0,0,0-1.9.78v-.15a5.12,5.12,0,0,1,4.15-2c2.25,0,3.85,1.05,3.85,3.53v7.8c0,.62.38,1.27,1.88,1.27v.15H28.35Z"/><path class="cls-2" d="M41.9,139.28a1.27,1.27,0,0,0-1.4,1.25c0,.72.5,1.65,2.22,1.82v.15c-3.32-.12-5.15-1-5.15-2.47a2,2,0,0,1,2.13-1.85A2.54,2.54,0,0,1,41.9,139.28Zm.82-9.63c-.92.18-1.82.65-1.8,1.68.08,2.9,8.18,3.37,8.18,7.35,0,2.42-2.05,3.7-5.28,3.82v-.15c1-.17,2.23-.55,2.23-1.85,0-2.6-8.2-3.55-8.2-7.35,0-2.2,2.07-3.52,4.87-3.65Zm5.9,2.43a1.64,1.64,0,0,1-1.85,1.55,2.13,2.13,0,0,1-2.12-1.2,1.11,1.11,0,0,0,1.12-1.18c0-.75-1-1.47-2-1.6v-.15C46.65,129.65,48.62,130.68,48.62,132.08Z"/><path class="cls-2" d="M56.47,139c0,1.4.48,2.12,1.73,2.12a2.21,2.21,0,0,0,1.72-.77v.15a4.16,4.16,0,0,1-3.87,2c-2.25,0-3.7-1.05-3.7-3.52v-7c0-.9-.43-1.32-1.85-1.32v-.15a15.18,15.18,0,0,0,6-1Zm8.33,1.6c0,.72.22,1,.67,1s.8-.37,1.2-1.12h.15c-.4,1.37-1.75,2-3.4,2s-2.75-1-2.75-2.45V132c0-.9-.42-1.32-1.77-1.32v-.15a16.15,16.15,0,0,0,5.9-1Z"/><path class="cls-2" d="M73.82,140.83c0,.62.38,1.27,1.88,1.27v.15H67.82v-.15c1.5,0,1.88-.65,1.88-1.27V132c0-.9-.43-1.32-1.85-1.32v-.15a15.18,15.18,0,0,0,6-1Zm6.75-8.63A2.67,2.67,0,0,1,78,135.05a1.71,1.71,0,0,1-1.43-.55,1.82,1.82,0,0,0,1-1.7,1.33,1.33,0,0,0-1.4-1.35,1.72,1.72,0,0,0-1.5,1v-.2a3.46,3.46,0,0,1,3.25-2.7A2.54,2.54,0,0,1,80.57,132.2Z"/><path class="cls-2" d="M81.65,139.3c0-2.17,2-3.4,4.8-3.4h2.7v.15H88.4a2.48,2.48,0,0,0-2.65,2.73c0,1.37.4,2.42,1.57,2.42a2.75,2.75,0,0,0,1.83-.87v.15a5.32,5.32,0,0,1-4,2C83.05,142.5,81.62,141.3,81.65,139.3Zm1-7.07c0-1.28,1.15-2.58,4.55-2.73v.15a1.83,1.83,0,0,0-1.6,1.83c0,.9.62,1.45,1.62,1.52a2.8,2.8,0,0,1-2.4,1.2A2,2,0,0,1,82.65,132.23Zm7.25,7.45V132c0-1.23-.48-2.2-1.7-2.38v-.15c4.15.15,5.8,1.73,5.8,5v6.08c0,.72.25,1,.7,1s.8-.37,1.2-1.12h.15a3.12,3.12,0,0,1-3.25,2C90.8,142.5,89.9,141.8,89.9,139.68Z"/><path class="cls-2" d="M96.82,142.1c1.5,0,1.88-.65,1.88-1.27V132c0-.9-.43-1.32-1.85-1.32v-.15a15.18,15.18,0,0,0,6-1v11.33c0,.62.38,1.27,1.88,1.27v.15H96.82Zm8.8,0c1.48,0,1.85-.65,1.85-1.27V133c0-1.4-.72-2.13-2-2.13a2.67,2.67,0,0,0-1.9.78v-.15a5.1,5.1,0,0,1,4.15-2c2.25,0,3.85,1.05,3.85,3.53v7.8c0,.62.37,1.27,1.87,1.27v.15h-7.85Z"/><path class="cls-2" d="M121.22,129.65c-1.47.18-2.12,1.43-2.12,6.2,0,3.6,1.82,5.58,4.05,5.58a5.44,5.44,0,0,0,3.65-1.33v.15a7,7,0,0,1-5.3,2.25,6.54,6.54,0,0,1-6.68-6.55,6.41,6.41,0,0,1,6.4-6.45Zm5.55,2.68a2.33,2.33,0,0,1-2.5,2.4,2.12,2.12,0,0,1-2.17-1.58,2.14,2.14,0,0,0,1.2-1.82,1.48,1.48,0,0,0-1.08-1.65v-.18C125.5,129.5,126.77,130.9,126.77,132.33Z"/><path class="cls-2" d="M128.65,136a6.19,6.19,0,0,1,6.12-6.45v.15c-1.47.18-1.87,1.43-1.87,6.2,0,3.6,1.6,5.58,3.82,5.58a5.4,5.4,0,0,0,3.65-1.33v.15a7,7,0,0,1-5.3,2.25A6.33,6.33,0,0,1,128.65,136Zm5.62-1c2.2,0,3.13-.7,3.13-2.8,0-1.2-.5-2.3-1.63-2.45v-.15c3.3,0,4.9,2.35,4.9,4.25a7.85,7.85,0,0,1-.12,1.3h-6.28Z"/></svg>