<?xml version="1.0" encoding="utf-8"?>
<!-- Generator: Adobe Illustrator 24.0.3, SVG Export Plug-In . SVG Version: 6.00 Build 0)  -->
<svg version="1.1" id="Layer_1" xmlns="http://www.w3.org/2000/svg" xmlns:xlink="http://www.w3.org/1999/xlink" x="0px" y="0px"
	 viewBox="0 0 300 150" style="enable-background:new 0 0 300 150;" xml:space="preserve">
<style type="text/css">
	.st0{fill:none;}
	.st1{enable-background:new    ;}
	.st2{fill:#FFFFFF;}
</style>
<title>Artboard 1 copy 2</title>
<rect y="0" class="st0" width="300" height="150"/>
<g class="st1">
	<path class="st2" d="M21.2,50.9l0.2,0.3l0.2,10.5c0,1.1,0.8,2.1,2.4,2.1v0.2h-5.5v-0.2c1.6,0,2.4-1,2.4-2.1L21.2,50.9z M34.5,63.9
		h-2.8L21.2,48.3c-0.6-1-1.4-1.3-2.6-1.3v-0.2h6.7l9.2,13.8V63.9z M34.4,58.2l-0.2-0.3l-0.3-8.7c0-1.1-0.8-2.1-2.4-2.1v-0.2H37v0.2
		c-1.6,0-2.4,1-2.4,2.1L34.4,58.2z"/>
	<path class="st2" d="M48.1,46.9h4.8l-9.9,17h-4.7L48.1,46.9z M39,46.9h7.5l-0.1,0.2c-3.7,0.2-6.6,2.7-7.3,5.9H39V46.9z M44.7,63.8
		c3.7-0.3,6.8-2.7,7.8-6.7h0.2v6.8h-8.1L44.7,63.8z"/>
</g>
<g class="st1">
	<path class="st2" d="M59.9,47.7c0,1.5-1.5,3.4-4,4.4l-0.1-0.2c0.7-0.6,1.4-1.5,1.4-2.4c0-1.1-0.8-1.6-1.7-1.6
		c0.2-1.5,1.1-2.3,2.4-2.3C58.9,45.5,59.9,46.3,59.9,47.7z"/>
</g>
<g class="st1">
	<path class="st2" d="M65,60.9c-0.8,0-1.4,0.5-1.4,1.2c0,0.7,0.5,1.6,2.2,1.8v0.2c-3.3-0.1-5.1-1-5.1-2.5c0-1.1,1-1.8,2.1-1.8
		C63.8,59.8,64.6,60.3,65,60.9z M65.8,51.3C64.9,51.5,64,52,64,53c0.1,2.9,8.2,3.4,8.2,7.3c0,2.4-2,3.7-5.3,3.8V64
		c1-0.2,2.2-0.5,2.2-1.8c0-2.6-8.2-3.5-8.2-7.3c0-2.2,2.1-3.5,4.9-3.6V51.3z M71.7,53.7c0,0.8-0.6,1.5-1.8,1.5c-1,0-1.8-0.5-2.1-1.2
		c0.8-0.1,1.1-0.6,1.1-1.2c0-0.8-1-1.5-1.9-1.6v-0.2C69.8,51.3,71.7,52.3,71.7,53.7z"/>
</g>
<g class="st1">
	<path class="st2" d="M18.4,70.5c2.3,0,4.2-0.2,6-1v16.9c0,0.6,0.4,1.3,1.9,1.3v0.2h-7.9v-0.2c1.5,0,1.9-0.6,1.9-1.3V72
		c0-0.9-0.4-1.3-1.8-1.3V70.5z"/>
	<path class="st2" d="M27.8,81.6c0-4.2,3.2-6.4,6.1-6.4v0.2c-1.5,0.2-1.9,1.4-1.9,6.2c0,3.6,1.6,5.6,3.8,5.6c1.4,0,2.5-0.4,3.6-1.3
		v0.1c-1.3,1.7-3.7,2.2-5.3,2.2C31,88.2,27.8,85.8,27.8,81.6z M33.4,80.6c2.2,0,3.1-0.7,3.1-2.8c0-1.2-0.5-2.3-1.6-2.4v-0.2
		c3.3,0,4.9,2.4,4.9,4.2c0,0.4,0,0.9-0.1,1.3h-6.3V80.6z"/>
	<path class="st2" d="M41.6,85c0-2.2,2-3.4,4.8-3.4h2.7v0.2h-0.7c-1.8,0-2.6,1.2-2.6,2.7c0,1.4,0.4,2.4,1.6,2.4
		c0.7,0,1.3-0.4,1.8-0.9v0.2c-0.8,0.9-2.1,2-4,2C43,88.2,41.6,87,41.6,85z M42.6,77.9c0-1.3,1.1-2.6,4.5-2.7v0.2
		c-1,0.1-1.6,0.9-1.6,1.8c0,0.9,0.6,1.5,1.6,1.5c-0.4,0.7-1.4,1.2-2.4,1.2C43.4,79.9,42.6,78.9,42.6,77.9z M49.8,85.3v-7.6
		c0-1.2-0.5-2.2-1.7-2.4v-0.2c4.1,0.2,5.8,1.7,5.8,5v6.1c0,0.7,0.2,1,0.7,1c0.4,0,0.8-0.4,1.2-1.1H56c-0.4,1.4-1.7,2-3.2,2
		C50.7,88.2,49.8,87.5,49.8,85.3z"/>
	<path class="st2" d="M66.1,77.2v0.2c-0.6-0.6-1.3-0.9-2.1-0.9c-1.2,0-2.4,0.6-2.4,5.1c0,4.5,1.3,5.3,2.4,5.3c0.8,0,1.4-0.4,2.1-0.9
		v0.2c-0.6,1-2.2,2-3.6,2c-2.4,0-5.1-1.4-5.1-6.6c0-5,2.7-6.4,5.1-6.4C63.9,75.2,65.5,76.1,66.1,77.2z M71,86.2c0,0.7,0.2,1,0.7,1
		c0.4,0,0.8-0.4,1.2-1.1H73c-0.4,1.4-1.7,2-3.2,2c-2,0-2.9-0.7-2.9-2.8V72c0-0.9-0.4-1.3-1.8-1.3v-0.1c2.3,0,3.9-0.2,6-1V86.2z"/>
	<path class="st2" d="M74,76.1c2.3,0,4.2-0.3,6-1v11.3c0,0.6,0.4,1.3,1.9,1.3v0.2H74v-0.2c1.5,0,1.9-0.6,1.9-1.3v-8.9
		c0-0.9-0.4-1.3-1.8-1.3V76.1z M75.3,71.4c0-1.3,1-2.2,2.5-2.2c1.5,0,2.5,0.9,2.5,2.2c0,1.3-1,2.2-2.5,2.2
		C76.4,73.6,75.3,72.7,75.3,71.4z"/>
	<path class="st2" d="M82.9,87.8c1.5,0,1.9-0.6,1.9-1.3v-8.9c0-0.9-0.4-1.3-1.8-1.3v-0.2c2.3,0,4.2-0.3,6-1v11.3
		c0,0.6,0.4,1.3,1.9,1.3v0.2h-7.9V87.8z M91.7,87.8c1.5,0,1.8-0.6,1.8-1.3v-7.8c0-1.4-0.7-2.1-2-2.1c-0.7,0-1.3,0.2-1.9,0.8v-0.2
		c0.7-1,2.3-2,4.1-2c2.2,0,3.8,1.1,3.8,3.5v7.8c0,0.6,0.4,1.3,1.9,1.3v0.2h-7.8V87.8z"/>
	<path class="st2" d="M101.1,79.7c0-3.2,3-4.5,5.6-4.5v0.2c-1.1,0.1-1.6,1.4-1.6,4.3c0,3,0.5,4.2,1.6,4.3v0.2
		C104.1,84.1,101.1,82.9,101.1,79.7z M107.7,94c2.5-0.3,3.3-1.6,3.3-2.5c0-3.5-9.7-0.4-9.7-4.8c0-1,0.5-1.8,1.7-2.5l0.1,0.1
		c-0.1,0.1-0.2,0.3-0.2,0.5c0,2.8,11.4-0.5,11.4,5c0,2.6-2.2,4.2-6.5,4.5V94z M101.3,91.9c0-1.5,1.8-1.9,3.8-1.9
		c-0.5,0.2-1.1,0.9-1.1,1.8c0,1.2,1.3,2,2.7,2.2v0.1C104,94.1,101.3,93.6,101.3,91.9z M107.7,84c1.2-0.1,1.7-1.3,1.7-4.3
		c0-2.9-0.5-4.2-1.7-4.3v-0.2c2.6,0,5.7,1.3,5.7,4.5c0,3.2-3.1,4.4-5.7,4.4V84z M109.1,74.7c0.4-1.3,1.6-3,3.3-3
		c1.3,0,2.1,0.7,2.1,1.9c0,1.2-1.1,2-2,2c0-1-0.5-1.7-1.3-1.7c-0.7,0-1.6,0.5-1.9,0.9L109.1,74.7z"/>
</g>
<g class="st1">
	<path class="st2" d="M24.5,110.5c0,0.6,0.4,1.3,1.9,1.3v0.2h-7.9v-0.2c1.5,0,1.9-0.6,1.9-1.3v-8.9c0-0.9-0.4-1.3-1.8-1.3v-0.2
		c2.3,0,4.2-0.2,6-1V110.5z M32.8,102.7v7.8c0,0.6,0.3,1.3,1.8,1.3v0.2h-7.8v-0.2c1.5,0,1.9-0.6,1.9-1.3v-7.8c0-1.4-0.5-2.1-1.7-2.1
		c-0.7,0-1.3,0.4-1.6,0.8v-0.1c0.6-1,1.8-2,3.6-2C31.3,99.2,32.8,100.2,32.8,102.7z M41.1,102.7v7.8c0,0.6,0.4,1.3,1.9,1.3v0.2h-7.9
		v-0.2c1.5,0,1.9-0.6,1.9-1.3v-7.8c0-1.4-0.5-2.1-1.7-2.1c-0.7,0-1.3,0.4-1.6,0.8v-0.1c0.6-1,1.8-2,3.6-2
		C39.6,99.2,41.1,100.2,41.1,102.7z"/>
	<path class="st2" d="M50.6,99.3c-1.5,0.2-2,1.4-2,6.3c0,4.7,0.5,6.2,2,6.4v0.2c-2.9,0-6.2-2.3-6.2-6.5c0-4.2,3.3-6.4,6.2-6.4V99.3z
		 M57.8,105.6c0,4.2-3.3,6.5-6.2,6.5V112c1.5-0.1,1.9-1.7,1.9-6.4c0-4.9-0.5-6.1-1.9-6.3v-0.2C54.5,99.2,57.8,101.4,57.8,105.6z"/>
</g>
<g class="st1">
	<path class="st2" d="M69.1,110v0.2c-0.8,1.1-2.4,2-4.3,2c-2.2,0-3.8-1-3.8-3.5v-8.2h-1.3l0.3-0.4h1v-2.7c1.5,0,3-0.5,4.1-1.4v4.1
		h3.4l-0.3,0.4h-3.1v8.3c0,1.2,0.5,2.5,1.6,2.5C67.4,111.3,68.3,110.8,69.1,110z"/>
</g>
<g class="st1">
	<path class="st2" d="M76.3,99.3c-1.5,0.2-2,1.4-2,6.3c0,4.7,0.5,6.2,2,6.4v0.2c-2.9,0-6.2-2.3-6.2-6.5c0-4.2,3.3-6.4,6.2-6.4V99.3z
		 M83.5,105.6c0,4.2-3.3,6.5-6.2,6.5V112c1.5-0.1,1.9-1.7,1.9-6.4c0-4.9-0.5-6.1-1.9-6.3v-0.2C80.2,99.2,83.5,101.4,83.5,105.6z"/>
</g>
<g class="st1">
	<path class="st2" d="M91.1,110.5c0,0.6,0.4,1.3,1.9,1.3v0.2h-7.9v-0.2c1.5,0,1.9-0.6,1.9-1.3v-8.9c0-0.9-0.4-1.3-1.8-1.3v-0.2
		c2.3,0,4.2-0.2,6-1V110.5z M97.9,101.9c0,1.7-1.2,2.8-2.6,2.8c-0.6,0-1.1-0.2-1.4-0.5c0.5-0.2,1-0.8,1-1.7c0-0.7-0.5-1.3-1.4-1.3
		c-0.6,0-1.2,0.4-1.5,0.9v-0.2c0.5-1.6,1.7-2.7,3.2-2.7C96.9,99.2,97.9,100.4,97.9,101.9z"/>
</g>
<g class="st1">
	<path class="st2" d="M105.6,99.3c-1.5,0.2-2.1,1.4-2.1,6.2c0,3.6,1.8,5.6,4,5.6c1.4,0,2.5-0.4,3.6-1.3v0.1
		c-1.3,1.7-3.7,2.2-5.3,2.2c-3.2,0-6.7-2.3-6.7-6.5c0-4.2,3.5-6.4,6.4-6.4V99.3z M111.2,102c0,1.3-0.9,2.4-2.5,2.4
		c-1.2,0-2-0.8-2.2-1.6c0.7-0.3,1.2-1.2,1.2-1.8c0-0.6-0.1-1.5-1.1-1.7v-0.2C109.9,99.2,111.2,100.6,111.2,102z"/>
</g>
<g class="st1">
	<path class="st2" d="M113.2,100.4c-0.2-0.5-0.6-0.9-1.4-0.9v-0.2h7v0.2c-0.9,0-1.2,0.6-0.8,1.5l3.3,6.8l-2.1,4H119L113.2,100.4z
		 M112.1,115.9c0-1.1,0.9-2,2.2-2.3c-0.1,0.2-0.1,0.4-0.1,0.6c0,0.9,0.5,1.7,1.5,1.7c0.9,0,1.6-0.9,2.5-2.5h0.2
		c-1.4,2.6-2.3,4.8-4.1,4.8C112.9,118.2,112.1,117.2,112.1,115.9z M122.4,105.4c0.4-0.8,0.7-1.9,0.7-3.2c0-1.4-0.8-2.6-2.5-2.6v-0.2
		h6.2v0.2c-0.8,0-1.1,0.3-1.6,1.2l-2.6,4.9L122.4,105.4z"/>
</g>
<g class="st1">
	<path class="st2" d="M133.3,99.3c-1.5,0.2-2.1,1.4-2.1,6.2c0,3.6,1.8,5.6,4,5.6c1.4,0,2.5-0.4,3.6-1.3v0.1
		c-1.3,1.7-3.7,2.2-5.3,2.2c-3.2,0-6.7-2.3-6.7-6.5c0-4.2,3.5-6.4,6.4-6.4V99.3z M138.8,102c0,1.3-0.9,2.4-2.5,2.4
		c-1.2,0-2-0.8-2.2-1.6c0.7-0.3,1.2-1.2,1.2-1.8c0-0.6-0.1-1.5-1.1-1.7v-0.2C137.6,99.2,138.8,100.6,138.8,102z"/>
	<path class="st2" d="M140.1,94.5c2.3,0,4.2-0.2,6-1v16.9c0,0.6,0.4,1.3,1.9,1.3v0.2h-7.9v-0.2c1.5,0,1.9-0.6,1.9-1.3V96
		c0-0.9-0.4-1.3-1.8-1.3V94.5z"/>
	<path class="st2" d="M149.5,105.6c0-4.2,3.2-6.4,6.1-6.4v0.2c-1.5,0.2-1.9,1.4-1.9,6.2c0,3.6,1.6,5.6,3.8,5.6
		c1.4,0,2.5-0.4,3.6-1.3v0.1c-1.3,1.7-3.7,2.2-5.3,2.2C152.7,112.2,149.5,109.8,149.5,105.6z M155.1,104.6c2.2,0,3.1-0.7,3.1-2.8
		c0-1.2-0.5-2.3-1.6-2.4v-0.2c3.3,0,4.9,2.3,4.9,4.2c0,0.4,0,0.9-0.1,1.3h-6.3V104.6z"/>
</g>
<g class="st1">
	<path class="st2" d="M18.6,124.1c2.3,0,4.2-0.2,6-1v11.3c0,0.6,0.4,1.3,1.9,1.3v0.2h-7.9v-0.2c1.5,0,1.9-0.6,1.9-1.3v-8.9
		c0-0.9-0.4-1.3-1.8-1.3V124.1z M19.9,119.4c0-1.3,1-2.2,2.5-2.2c1.5,0,2.5,0.9,2.5,2.2c0,1.3-1,2.2-2.5,2.2
		C20.9,121.6,19.9,120.7,19.9,119.4z"/>
	<path class="st2" d="M27.5,135.8c1.5,0,1.9-0.6,1.9-1.3v-8.9c0-0.9-0.4-1.3-1.8-1.3v-0.2c2.3,0,4.2-0.2,6-1v11.3
		c0,0.6,0.4,1.3,1.9,1.3v0.2h-7.9V135.8z M36.3,135.8c1.5,0,1.8-0.6,1.8-1.3v-7.8c0-1.4-0.7-2.1-2-2.1c-0.7,0-1.3,0.2-1.9,0.8v-0.2
		c0.7-1,2.3-2,4.1-2c2.2,0,3.8,1,3.8,3.5v7.8c0,0.6,0.4,1.3,1.9,1.3v0.2h-7.8V135.8z"/>
	<path class="st2" d="M49.8,132.9c-0.8,0-1.4,0.5-1.4,1.2c0,0.7,0.5,1.6,2.2,1.8v0.2c-3.3-0.1-5.1-1-5.1-2.5c0-1.1,1-1.8,2.1-1.8
		C48.6,131.8,49.5,132.3,49.8,132.9z M50.7,123.3c-0.9,0.2-1.8,0.6-1.8,1.7c0.1,2.9,8.2,3.4,8.2,7.3c0,2.4-2,3.7-5.3,3.8V136
		c1-0.2,2.2-0.5,2.2-1.8c0-2.6-8.2-3.5-8.2-7.3c0-2.2,2.1-3.5,4.9-3.6V123.3z M56.6,125.7c0,0.8-0.6,1.5-1.8,1.5
		c-1,0-1.8-0.5-2.1-1.2c0.8-0.1,1.1-0.6,1.1-1.2c0-0.8-1-1.5-1.9-1.6v-0.2C54.6,123.3,56.6,124.3,56.6,125.7z"/>
	<path class="st2" d="M64.4,132.6c0,1.4,0.5,2.1,1.7,2.1c0.6,0,1.2-0.2,1.7-0.8v0.2c-0.6,1.1-1.8,2-3.9,2c-2.2,0-3.7-1-3.7-3.5v-7
		c0-0.9-0.4-1.3-1.8-1.3v-0.2c2.3,0,4.2-0.2,6-1V132.6z M72.7,134.2c0,0.7,0.2,1,0.7,1c0.4,0,0.8-0.4,1.2-1.1h0.1
		c-0.4,1.4-1.7,2-3.4,2c-1.8,0-2.7-1-2.7-2.4v-8.1c0-0.9-0.4-1.3-1.8-1.3v-0.2c2.2,0,3.8-0.2,5.9-1V134.2z"/>
</g>
<g class="st1">
	<path class="st2" d="M81.8,134.5c0,0.6,0.4,1.3,1.9,1.3v0.2h-7.9v-0.2c1.5,0,1.9-0.6,1.9-1.3v-8.9c0-0.9-0.4-1.3-1.8-1.3v-0.2
		c2.3,0,4.2-0.2,6-1V134.5z M88.5,125.9c0,1.7-1.2,2.8-2.6,2.8c-0.6,0-1.1-0.2-1.4-0.5c0.5-0.3,1-0.8,1-1.7c0-0.7-0.5-1.3-1.4-1.3
		c-0.6,0-1.2,0.4-1.5,0.9v-0.2c0.5-1.6,1.7-2.7,3.2-2.7C87.6,123.2,88.5,124.4,88.5,125.9z"/>
</g>
<g class="st1">
	<path class="st2" d="M89.6,133c0-2.2,2-3.4,4.8-3.4h2.7v0.2h-0.7c-1.8,0-2.6,1.2-2.6,2.7c0,1.4,0.4,2.4,1.6,2.4
		c0.7,0,1.3-0.4,1.8-0.9v0.2c-0.8,0.9-2.1,2-4,2C91,136.2,89.6,135,89.6,133z M90.6,125.9c0-1.3,1.1-2.6,4.5-2.7v0.2
		c-1,0.1-1.6,0.9-1.6,1.8c0,0.9,0.6,1.5,1.6,1.5c-0.4,0.7-1.4,1.2-2.4,1.2C91.4,127.9,90.6,126.9,90.6,125.9z M97.8,133.3v-7.6
		c0-1.2-0.5-2.2-1.7-2.4v-0.2c4.1,0.2,5.8,1.7,5.8,5v6.1c0,0.7,0.2,1,0.7,1c0.4,0,0.8-0.4,1.2-1.1h0.1c-0.4,1.4-1.7,2-3.2,2
		C98.7,136.2,97.8,135.5,97.8,133.3z"/>
	<path class="st2" d="M104.8,135.8c1.5,0,1.9-0.6,1.9-1.3v-8.9c0-0.9-0.4-1.3-1.8-1.3v-0.2c2.3,0,4.2-0.2,6-1v11.3
		c0,0.6,0.4,1.3,1.9,1.3v0.2h-7.9V135.8z M113.6,135.8c1.5,0,1.8-0.6,1.8-1.3v-7.8c0-1.4-0.7-2.1-2-2.1c-0.7,0-1.3,0.2-1.9,0.8v-0.2
		c0.7-1,2.3-2,4.1-2c2.2,0,3.8,1,3.8,3.5v7.8c0,0.6,0.4,1.3,1.9,1.3v0.2h-7.8V135.8z"/>
	<path class="st2" d="M129.2,123.3c-1.5,0.2-2.1,1.4-2.1,6.2c0,3.6,1.8,5.6,4,5.6c1.4,0,2.5-0.4,3.6-1.3v0.1
		c-1.3,1.7-3.7,2.2-5.3,2.2c-3.2,0-6.7-2.3-6.7-6.5c0-4.2,3.5-6.4,6.4-6.4V123.3z M134.7,126c0,1.3-0.9,2.4-2.5,2.4
		c-1.2,0-2-0.8-2.2-1.6c0.7-0.3,1.2-1.2,1.2-1.8c0-0.6-0.1-1.5-1.1-1.7v-0.2C133.4,123.2,134.7,124.6,134.7,126z"/>
	<path class="st2" d="M136.6,129.6c0-4.2,3.2-6.4,6.1-6.4v0.2c-1.5,0.2-1.9,1.4-1.9,6.2c0,3.6,1.6,5.6,3.8,5.6
		c1.4,0,2.5-0.4,3.6-1.3v0.1c-1.3,1.7-3.7,2.2-5.3,2.2C139.8,136.2,136.6,133.8,136.6,129.6z M142.2,128.6c2.2,0,3.1-0.7,3.1-2.8
		c0-1.2-0.5-2.3-1.6-2.4v-0.2c3.3,0,4.9,2.3,4.9,4.2c0,0.4,0,0.9-0.1,1.3h-6.3V128.6z"/>
</g>
</svg>
