<?xml version="1.0" encoding="utf-8"?>
<!-- Generator: Adobe Illustrator 24.0.3, SVG Export Plug-In . SVG Version: 6.00 Build 0)  -->
<svg version="1.1" id="Layer_1" xmlns="http://www.w3.org/2000/svg" xmlns:xlink="http://www.w3.org/1999/xlink" x="0px" y="0px"
	 viewBox="0 0 300 150" style="enable-background:new 0 0 300 150;" xml:space="preserve">
<style type="text/css">
	.st0{clip-path:url(#SVGID_2_);}
	.st1{enable-background:new    ;}
	.st2{fill:#263845;}
</style>
<title>Artboard 1 copy 7</title>
<g>
	<defs>
		<rect id="SVGID_1_" y="0" width="300" height="150"/>
	</defs>
	<clipPath id="SVGID_2_">
		<use xlink:href="#SVGID_1_"  style="overflow:visible;"/>
	</clipPath>
	<g class="st0">
		<g class="st1">
			<path class="st2" d="M11.5,75.3c0-0.7-0.4-1.3-1.9-1.3v-0.2h8v0.2c-1.5,0-1.9,0.6-1.9,1.3v10.9c0,2.4,0.7,4.6,2.4,4.8v0.2
				c-5.2,0-6.6-2.5-6.6-5V75.3z M24.6,86.2c0,2.5-1.5,5-5.2,5V91c3.2-0.1,4.7-2.4,4.7-4.8v-9c0-1.6-0.8-3.1-2.5-3.1v-0.2h5.5v0.2
				c-1.6,0-2.5,1.5-2.5,3.1V86.2z"/>
		</g>
		<g class="st1">
			<path class="st2" d="M27.6,90.8c1.5,0,1.9-0.6,1.9-1.3v-8.9c0-0.9-0.4-1.3-1.8-1.3v-0.2c2.3,0,4.2-0.2,6-1v11.3
				c0,0.6,0.4,1.3,1.9,1.3v0.2h-7.9V90.8z M36.4,90.8c1.5,0,1.8-0.6,1.8-1.3v-7.8c0-1.4-0.7-2.1-2-2.1c-0.7,0-1.3,0.2-1.9,0.8v-0.2
				c0.7-1,2.3-2,4.1-2c2.2,0,3.8,1,3.8,3.5v7.8c0,0.6,0.4,1.3,1.9,1.3v0.2h-7.8V90.8z"/>
			<path class="st2" d="M50.7,87.8c0,2.4-1.6,3.4-4.1,3.4V75c0-0.9-0.4-1.3-1.9-1.3v-0.1c2.3,0,3.9-0.2,6-1V87.8z M60.2,84.5
				c0,5.2-2.8,6.6-5.1,6.6c-1.4,0-3-1-3.6-2V89c0.6,0.5,1.3,0.9,2.1,0.9c1.2,0,2.4-0.8,2.4-5.3c0-4.5-1.2-5.1-2.4-5.1
				c-0.8,0-1.5,0.3-2.1,0.9v-0.2c0.6-1,2.2-2,3.6-2C57.5,78.2,60.2,79.6,60.2,84.5z"/>
			<path class="st2" d="M62.4,84.6c0-4.2,3.2-6.4,6.1-6.4v0.2c-1.5,0.2-1.9,1.4-1.9,6.2c0,3.6,1.6,5.6,3.8,5.6
				c1.4,0,2.5-0.4,3.6-1.3v0.1c-1.3,1.7-3.7,2.2-5.3,2.2C65.7,91.2,62.4,88.8,62.4,84.6z M68.1,83.6c2.2,0,3.1-0.7,3.1-2.8
				c0-1.2-0.5-2.3-1.6-2.4v-0.2c3.3,0,4.9,2.3,4.9,4.2c0,0.4,0,0.9-0.1,1.3h-6.3V83.6z"/>
			<path class="st2" d="M76.3,88c0-2.2,2-3.4,4.8-3.4h2.7v0.2H83c-1.8,0-2.6,1.2-2.6,2.7c0,1.4,0.4,2.4,1.6,2.4
				c0.7,0,1.3-0.4,1.8-0.9v0.2c-0.8,0.9-2.1,2-4,2C77.7,91.2,76.2,90,76.3,88z M77.3,80.9c0-1.3,1.1-2.6,4.5-2.7v0.2
				c-1,0.1-1.6,0.9-1.6,1.8c0,0.9,0.6,1.5,1.6,1.5c-0.4,0.7-1.4,1.2-2.4,1.2C78.1,82.9,77.3,81.9,77.3,80.9z M84.5,88.3v-7.6
				c0-1.2-0.5-2.2-1.7-2.4v-0.2c4.1,0.2,5.8,1.7,5.8,5v6.1c0,0.7,0.2,1,0.7,1c0.4,0,0.8-0.4,1.2-1.1h0.1c-0.4,1.4-1.7,2-3.2,2
				C85.4,91.2,84.5,90.5,84.5,88.3z"/>
			<path class="st2" d="M101.1,89v0.2c-0.8,1.1-2.4,2-4.3,2c-2.2,0-3.8-1-3.8-3.5v-8.2h-1.3l0.3-0.4h1v-2.7c1.5,0,3-0.5,4.1-1.4v4.1
				h3.4l-0.3,0.4h-3.1v8.3c0,1.2,0.5,2.5,1.6,2.5C99.5,90.3,100.3,89.8,101.1,89z"/>
			<path class="st2" d="M101.9,88c0-2.2,2-3.4,4.8-3.4h2.7v0.2h-0.7c-1.8,0-2.6,1.2-2.6,2.7c0,1.4,0.4,2.4,1.6,2.4
				c0.7,0,1.3-0.4,1.8-0.9v0.2c-0.8,0.9-2.1,2-4,2C103.3,91.2,101.9,90,101.9,88z M102.9,80.9c0-1.3,1.1-2.6,4.5-2.7v0.2
				c-1,0.1-1.6,0.9-1.6,1.8c0,0.9,0.6,1.5,1.6,1.5c-0.4,0.7-1.4,1.2-2.4,1.2C103.7,82.9,102.9,81.9,102.9,80.9z M110.2,88.3v-7.6
				c0-1.2-0.5-2.2-1.7-2.4v-0.2c4.1,0.2,5.8,1.7,5.8,5v6.1c0,0.7,0.2,1,0.7,1c0.4,0,0.8-0.4,1.2-1.1h0.1c-0.4,1.4-1.7,2-3.2,2
				C111.1,91.2,110.2,90.5,110.2,88.3z"/>
			<path class="st2" d="M122.7,87.8c0,2.4-1.6,3.4-4.1,3.4V75c0-0.9-0.4-1.3-1.9-1.3v-0.1c2.3,0,3.9-0.2,6-1V87.8z M132.2,84.5
				c0,5.2-2.8,6.6-5.1,6.6c-1.4,0-3-1-3.6-2V89c0.6,0.5,1.3,0.9,2.1,0.9c1.2,0,2.4-0.8,2.4-5.3c0-4.5-1.2-5.1-2.4-5.1
				c-0.8,0-1.5,0.3-2.1,0.9v-0.2c0.6-1,2.2-2,3.6-2C129.5,78.2,132.2,79.6,132.2,84.5z"/>
			<path class="st2" d="M133.8,73.5c2.3,0,4.2-0.2,6-1v16.9c0,0.6,0.4,1.3,1.9,1.3v0.2h-7.9v-0.2c1.5,0,1.9-0.6,1.9-1.3V75
				c0-0.9-0.4-1.3-1.8-1.3V73.5z"/>
			<path class="st2" d="M143.2,84.6c0-4.2,3.2-6.4,6.1-6.4v0.2c-1.5,0.2-1.9,1.4-1.9,6.2c0,3.6,1.6,5.6,3.8,5.6
				c1.4,0,2.5-0.4,3.6-1.3v0.1c-1.3,1.7-3.7,2.2-5.3,2.2C146.4,91.2,143.2,88.8,143.2,84.6z M148.8,83.6c2.2,0,3.1-0.7,3.1-2.8
				c0-1.2-0.5-2.3-1.6-2.4v-0.2c3.3,0,4.9,2.3,4.9,4.2c0,0.4-0.1,0.9-0.1,1.3h-6.3V83.6z"/>
		</g>
		<g class="st1">
			<path class="st2" d="M15.5,113.5c0,0.6,0.4,1.3,1.9,1.3v0.2H9.5v-0.2c1.5,0,1.9-0.6,1.9-1.3v-8.9c0-0.9-0.4-1.3-1.8-1.3v-0.2
				c2.3,0,4.2-0.2,6-1V113.5z M23.8,105.7v7.8c0,0.6,0.3,1.3,1.8,1.3v0.2h-7.8v-0.2c1.5,0,1.9-0.6,1.9-1.3v-7.8
				c0-1.4-0.5-2.1-1.7-2.1c-0.7,0-1.3,0.4-1.6,0.8v-0.1c0.6-1,1.8-2,3.6-2C22.3,102.2,23.8,103.2,23.8,105.7z M32.1,105.7v7.8
				c0,0.6,0.4,1.3,1.9,1.3v0.2h-7.9v-0.2c1.5,0,1.9-0.6,1.9-1.3v-7.8c0-1.4-0.5-2.1-1.7-2.1c-0.7,0-1.3,0.4-1.6,0.8v-0.1
				c0.6-1,1.8-2,3.6-2C30.6,102.2,32.1,103.2,32.1,105.7z"/>
			<path class="st2" d="M41.6,102.3c-1.5,0.2-2,1.4-2,6.3c0,4.7,0.5,6.2,2,6.4v0.2c-2.9,0-6.2-2.3-6.2-6.5c0-4.2,3.3-6.4,6.2-6.4
				V102.3z M48.8,108.6c0,4.2-3.3,6.5-6.2,6.5V115c1.5-0.1,1.9-1.7,1.9-6.4c0-4.9-0.5-6.1-1.9-6.3v-0.2
				C45.5,102.2,48.8,104.4,48.8,108.6z"/>
		</g>
		<g class="st1">
			<path class="st2" d="M60.1,113v0.2c-0.8,1.1-2.4,2-4.3,2c-2.2,0-3.8-1-3.8-3.5v-8.2h-1.3l0.3-0.4h1v-2.7c1.5,0,3-0.5,4.1-1.4v4.1
				h3.4l-0.3,0.4h-3.1v8.3c0,1.2,0.5,2.5,1.6,2.5C58.4,114.3,59.3,113.8,60.1,113z"/>
		</g>
		<g class="st1">
			<path class="st2" d="M67.3,102.3c-1.5,0.2-2,1.4-2,6.3c0,4.7,0.5,6.2,2,6.4v0.2c-2.9,0-6.2-2.3-6.2-6.5c0-4.2,3.3-6.4,6.2-6.4
				V102.3z M74.5,108.6c0,4.2-3.3,6.5-6.2,6.5V115c1.5-0.1,1.9-1.7,1.9-6.4c0-4.9-0.5-6.1-1.9-6.3v-0.2
				C71.2,102.2,74.5,104.4,74.5,108.6z"/>
		</g>
		<g class="st1">
			<path class="st2" d="M82.1,113.5c0,0.6,0.4,1.3,1.9,1.3v0.2h-7.9v-0.2c1.5,0,1.9-0.6,1.9-1.3v-8.9c0-0.9-0.4-1.3-1.8-1.3v-0.2
				c2.3,0,4.2-0.2,6-1V113.5z M88.9,104.9c0,1.7-1.2,2.8-2.6,2.8c-0.6,0-1.1-0.2-1.4-0.5c0.5-0.2,1-0.8,1-1.7c0-0.7-0.5-1.3-1.4-1.3
				c-0.6,0-1.2,0.4-1.5,0.9v-0.2c0.5-1.6,1.7-2.7,3.2-2.7C87.9,102.2,88.9,103.4,88.9,104.9z"/>
		</g>
		<g class="st1">
			<path class="st2" d="M96.6,102.3c-1.5,0.2-2.1,1.4-2.1,6.2c0,3.6,1.8,5.6,4,5.6c1.4,0,2.5-0.4,3.6-1.3v0.1
				c-1.3,1.7-3.7,2.2-5.3,2.2c-3.2,0-6.7-2.3-6.7-6.5c0-4.2,3.5-6.4,6.4-6.4V102.3z M102.2,105c0,1.3-0.9,2.4-2.5,2.4
				c-1.2,0-2-0.8-2.2-1.6c0.7-0.3,1.2-1.2,1.2-1.8c0-0.6-0.1-1.5-1.1-1.7v-0.2C100.9,102.2,102.2,103.6,102.2,105z"/>
		</g>
		<g class="st1">
			<path class="st2" d="M104.2,103.4c-0.2-0.5-0.6-0.9-1.4-0.9v-0.2h7v0.2c-0.9,0-1.2,0.6-0.8,1.5l3.3,6.8l-2.1,4H110L104.2,103.4z
				 M103.1,118.9c0-1.1,0.9-2,2.2-2.3c-0.1,0.2-0.1,0.4-0.1,0.6c0,0.9,0.5,1.7,1.5,1.7c0.9,0,1.6-0.9,2.5-2.5h0.2
				c-1.4,2.6-2.3,4.8-4.1,4.8C103.9,121.2,103.1,120.2,103.1,118.9z M113.4,108.4c0.4-0.8,0.7-1.9,0.7-3.2c0-1.4-0.8-2.6-2.5-2.6
				v-0.2h6.2v0.2c-0.8,0-1.1,0.3-1.6,1.2l-2.6,4.9L113.4,108.4z"/>
		</g>
		<g class="st1">
			<path class="st2" d="M124.3,102.3c-1.5,0.2-2.1,1.4-2.1,6.2c0,3.6,1.8,5.6,4,5.6c1.4,0,2.5-0.4,3.6-1.3v0.1
				c-1.3,1.7-3.7,2.2-5.3,2.2c-3.2,0-6.7-2.3-6.7-6.5c0-4.2,3.5-6.4,6.4-6.4V102.3z M129.8,105c0,1.3-0.9,2.4-2.5,2.4
				c-1.2,0-2-0.8-2.2-1.6c0.7-0.3,1.2-1.2,1.2-1.8c0-0.6-0.1-1.5-1.1-1.7v-0.2C128.6,102.2,129.8,103.6,129.8,105z"/>
			<path class="st2" d="M131.1,97.5c2.3,0,4.2-0.2,6-1v16.9c0,0.6,0.4,1.3,1.9,1.3v0.2h-7.9v-0.2c1.5,0,1.9-0.6,1.9-1.3V99
				c0-0.9-0.4-1.3-1.8-1.3V97.5z"/>
			<path class="st2" d="M140.5,108.6c0-4.2,3.2-6.4,6.1-6.4v0.2c-1.5,0.2-1.9,1.4-1.9,6.2c0,3.6,1.6,5.6,3.8,5.6
				c1.4,0,2.5-0.4,3.6-1.3v0.1c-1.3,1.7-3.7,2.2-5.3,2.2C143.7,115.2,140.5,112.8,140.5,108.6z M146.1,107.6c2.2,0,3.1-0.7,3.1-2.8
				c0-1.2-0.5-2.3-1.6-2.4v-0.2c3.3,0,4.9,2.3,4.9,4.2c0,0.4,0,0.9-0.1,1.3h-6.3V107.6z"/>
		</g>
		<g class="st1">
			<path class="st2" d="M9.6,127.1c2.3,0,4.2-0.2,6-1v11.3c0,0.6,0.4,1.3,1.9,1.3v0.2H9.6v-0.2c1.5,0,1.9-0.6,1.9-1.3v-8.9
				c0-0.9-0.4-1.3-1.8-1.3V127.1z M10.9,122.4c0-1.3,1-2.2,2.5-2.2c1.5,0,2.5,0.9,2.5,2.2c0,1.3-1,2.2-2.5,2.2
				C11.9,124.6,10.9,123.7,10.9,122.4z"/>
			<path class="st2" d="M18.5,138.8c1.5,0,1.9-0.6,1.9-1.3v-8.9c0-0.9-0.4-1.3-1.8-1.3v-0.2c2.3,0,4.2-0.2,6-1v11.3
				c0,0.6,0.4,1.3,1.9,1.3v0.2h-7.9V138.8z M27.3,138.8c1.5,0,1.8-0.6,1.8-1.3v-7.8c0-1.4-0.7-2.1-2-2.1c-0.7,0-1.3,0.2-1.9,0.8
				v-0.2c0.7-1,2.3-2,4.1-2c2.2,0,3.8,1,3.8,3.5v7.8c0,0.6,0.4,1.3,1.9,1.3v0.2h-7.8V138.8z"/>
			<path class="st2" d="M40.8,135.9c-0.8,0-1.4,0.5-1.4,1.2c0,0.7,0.5,1.6,2.2,1.8v0.2c-3.3-0.1-5.1-1-5.1-2.5c0-1.1,1-1.8,2.1-1.8
				C39.6,134.8,40.5,135.3,40.8,135.9z M41.7,126.3c-0.9,0.2-1.8,0.6-1.8,1.7c0.1,2.9,8.2,3.4,8.2,7.3c0,2.4-2,3.7-5.3,3.8V139
				c1-0.2,2.2-0.5,2.2-1.8c0-2.6-8.2-3.5-8.2-7.3c0-2.2,2.1-3.5,4.9-3.6V126.3z M47.6,128.7c0,0.8-0.6,1.5-1.8,1.5
				c-1,0-1.8-0.5-2.1-1.2c0.8-0.1,1.1-0.6,1.1-1.2c0-0.8-1-1.5-1.9-1.6v-0.2C45.6,126.3,47.6,127.3,47.6,128.7z"/>
			<path class="st2" d="M55.4,135.6c0,1.4,0.5,2.1,1.7,2.1c0.6,0,1.2-0.2,1.7-0.8v0.2c-0.6,1.1-1.8,2-3.9,2c-2.2,0-3.7-1-3.7-3.5v-7
				c0-0.9-0.4-1.3-1.8-1.3v-0.2c2.3,0,4.2-0.2,6-1V135.6z M63.7,137.2c0,0.7,0.2,1,0.7,1c0.4,0,0.8-0.4,1.2-1.1h0.1
				c-0.4,1.4-1.7,2-3.4,2c-1.8,0-2.7-1-2.7-2.4v-8.1c0-0.9-0.4-1.3-1.8-1.3v-0.2c2.2,0,3.8-0.2,5.9-1V137.2z"/>
		</g>
		<g class="st1">
			<path class="st2" d="M72.8,137.5c0,0.6,0.4,1.3,1.9,1.3v0.2h-7.9v-0.2c1.5,0,1.9-0.6,1.9-1.3v-8.9c0-0.9-0.4-1.3-1.8-1.3v-0.2
				c2.3,0,4.2-0.2,6-1V137.5z M79.5,128.9c0,1.7-1.2,2.8-2.6,2.8c-0.6,0-1.1-0.2-1.4-0.5c0.5-0.2,1-0.8,1-1.7c0-0.7-0.5-1.3-1.4-1.3
				c-0.6,0-1.2,0.4-1.5,0.9v-0.2c0.5-1.6,1.7-2.7,3.2-2.7C78.6,126.2,79.5,127.4,79.5,128.9z"/>
		</g>
		<g class="st1">
			<path class="st2" d="M80.6,136c0-2.2,2-3.4,4.8-3.4h2.7v0.2h-0.7c-1.8,0-2.6,1.2-2.6,2.7c0,1.4,0.4,2.4,1.6,2.4
				c0.7,0,1.3-0.4,1.8-0.9v0.2c-0.8,0.9-2.1,2-4,2C82,139.2,80.6,138,80.6,136z M81.6,128.9c0-1.3,1.1-2.6,4.5-2.7v0.2
				c-1,0.1-1.6,0.9-1.6,1.8c0,0.9,0.6,1.5,1.6,1.5c-0.4,0.7-1.4,1.2-2.4,1.2C82.4,130.9,81.6,129.9,81.6,128.9z M88.8,136.3v-7.6
				c0-1.2-0.5-2.2-1.7-2.4v-0.2c4.1,0.2,5.8,1.7,5.8,5v6.1c0,0.7,0.2,1,0.7,1c0.4,0,0.8-0.4,1.2-1.1H95c-0.4,1.4-1.7,2-3.2,2
				C89.7,139.2,88.8,138.5,88.8,136.3z"/>
			<path class="st2" d="M95.8,138.8c1.5,0,1.9-0.6,1.9-1.3v-8.9c0-0.9-0.4-1.3-1.8-1.3v-0.2c2.3,0,4.2-0.2,6-1v11.3
				c0,0.6,0.4,1.3,1.9,1.3v0.2h-7.9V138.8z M104.6,138.8c1.5,0,1.8-0.6,1.8-1.3v-7.8c0-1.4-0.7-2.1-2-2.1c-0.7,0-1.3,0.2-1.9,0.8
				v-0.2c0.7-1,2.3-2,4.1-2c2.2,0,3.8,1,3.8,3.5v7.8c0,0.6,0.4,1.3,1.9,1.3v0.2h-7.8V138.8z"/>
			<path class="st2" d="M120.2,126.3c-1.5,0.2-2.1,1.4-2.1,6.2c0,3.6,1.8,5.6,4,5.6c1.4,0,2.5-0.4,3.6-1.3v0.1
				c-1.3,1.7-3.7,2.2-5.3,2.2c-3.2,0-6.7-2.3-6.7-6.5c0-4.2,3.5-6.4,6.4-6.4V126.3z M125.7,129c0,1.3-0.9,2.4-2.5,2.4
				c-1.2,0-2-0.8-2.2-1.6c0.7-0.3,1.2-1.2,1.2-1.8c0-0.6-0.1-1.5-1.1-1.7v-0.2C124.4,126.2,125.7,127.6,125.7,129z"/>
			<path class="st2" d="M127.6,132.6c0-4.2,3.2-6.4,6.1-6.4v0.2c-1.5,0.2-1.9,1.4-1.9,6.2c0,3.6,1.6,5.6,3.8,5.6
				c1.4,0,2.5-0.4,3.6-1.3v0.1c-1.3,1.7-3.7,2.2-5.3,2.2C130.8,139.2,127.6,136.8,127.6,132.6z M133.2,131.6c2.2,0,3.1-0.7,3.1-2.8
				c0-1.2-0.5-2.3-1.6-2.4v-0.2c3.3,0,4.9,2.3,4.9,4.2c0,0.4,0,0.9-0.1,1.3h-6.3V131.6z"/>
		</g>
	</g>
</g>
</svg>
