<?xml version="1.0" encoding="utf-8"?>
<!-- Generator: Adobe Illustrator 24.0.3, SVG Export Plug-In . SVG Version: 6.00 Build 0)  -->
<svg version="1.1" id="Layer_1" xmlns="http://www.w3.org/2000/svg" xmlns:xlink="http://www.w3.org/1999/xlink" x="0px" y="0px"
	 viewBox="0 0 320 480" style="enable-background:new 0 0 320 480;" xml:space="preserve">
<style type="text/css">
	.st0{fill:none;}
	.st1{enable-background:new    ;}
	.st2{fill:#FFFFFF;}
</style>
<title>Artboard 1</title>
<rect x="0.6" y="0" class="st0" width="320" height="480"/>
<g class="st1">
	<path class="st2" d="M41.7,50.5l0.2,0.3c-2.1,3.4-5.9,5-9.9,5c-6.7,0-15-4.8-15-14.3C17,31,25.1,27.2,31,27v0.2
		c-2.9,0.6-6,3.3-6,13.9c0,10.5,4.2,13,8.9,13C37.6,54.1,40.3,52.2,41.7,50.5z M42.1,27v10h-0.3c-1.6-5.5-4.6-8.6-8.7-9.7V27
		c3.6,0.2,5.7,0.8,7.4,1.9l1.2-1.9H42.1z"/>
	<path class="st2" d="M54.5,53c0,1,0.6,2.1,3.1,2.1v0.2H44.6v-0.2c2.5,0,3.1-1.1,3.1-2.1V29.2c0-1.5-0.7-2.2-3-2.2v-0.2
		c3.8,0,6.9-0.4,9.8-1.6V53z M68.8,40.2V53c0,1,0.6,2.1,3.1,2.1v0.2H59v-0.2c2.4,0,3-1.1,3-2.1V40.2c0-2.3-1.2-3.5-3.2-3.5
		c-1.1,0-2.1,0.4-3.1,1.3v-0.2c1.1-1.7,3.8-3.3,6.8-3.3C66.2,34.4,68.8,36.1,68.8,40.2z"/>
	<path class="st2" d="M73.7,50.5c0-3.6,3.3-5.6,7.9-5.6H86v0.2h-1.2c-3,0-4.4,1.9-4.4,4.5c0,2.3,0.7,4,2.6,4c1.1,0,2.1-0.6,3-1.4
		v0.2c-1.4,1.6-3.5,3.3-6.5,3.3C76,55.8,73.7,53.8,73.7,50.5z M75.4,38.9c0-2.1,1.9-4.2,7.5-4.5v0.2c-1.6,0.2-2.6,1.6-2.6,3
		c0,1.5,1,2.4,2.7,2.5c-0.6,1.1-2.3,2-3.9,2C76.7,42.1,75.4,40.6,75.4,38.9z M87.3,51.1V38.6c0-2-0.8-3.6-2.8-3.9v-0.2
		c6.8,0.2,9.5,2.8,9.5,8.2v10c0,1.2,0.4,1.7,1.1,1.7c0.6,0,1.3-0.6,2-1.8h0.2c-0.7,2.3-2.9,3.3-5.3,3.3
		C88.7,55.8,87.3,54.6,87.3,51.1z"/>
	<path class="st2" d="M98.6,55.1c2.5,0,3.1-1.1,3.1-2.1V38.4c0-1.5-0.7-2.2-3-2.2V36c3.8,0,6.9-0.4,9.8-1.6V53c0,1,0.6,2.1,3.1,2.1
		v0.2H98.6V55.1z M113.1,55.1c2.4,0,3-1.1,3-2.1V40.2c0-2.3-1.2-3.5-3.2-3.5c-1.1,0-2.1,0.4-3.1,1.3v-0.2c1.1-1.7,3.8-3.3,6.8-3.3
		c3.7,0,6.3,1.7,6.3,5.8V53c0,1,0.6,2.1,3.1,2.1v0.2h-12.9V55.1z"/>
	<path class="st2" d="M128.4,41.8c0-5.3,5-7.4,9.2-7.4v0.2c-1.8,0.2-2.6,2.3-2.6,7.1c0,5,0.8,7,2.6,7.1v0.2
		C133.5,49.1,128.4,47.1,128.4,41.8z M139.3,65.4c4.1-0.5,5.4-2.7,5.4-4.2c0-5.7-16-0.6-16-8c0-1.7,0.9-3,2.8-4.2l0.1,0.2
		c-0.2,0.2-0.4,0.5-0.4,0.8c0,4.6,18.7-0.7,18.7,8.2c0,4.2-3.7,7-10.6,7.4V65.4z M128.7,61.9c0-2.4,3-3.2,6.2-3.2
		c-0.7,0.3-1.8,1.5-1.8,2.9c0,1.9,2.1,3.3,4.5,3.7v0.2C133.3,65.5,128.7,64.6,128.7,61.9z M139.3,48.9c2-0.2,2.8-2.2,2.8-7.1
		c0-4.8-0.9-6.9-2.8-7.1v-0.2c4.4,0.1,9.4,2.1,9.4,7.4c0,5.3-5.1,7.3-9.4,7.3V48.9z M141.5,33.7c0.7-2.1,2.6-4.9,5.4-4.9
		c2.2,0,3.5,1.1,3.5,3.1c0,2-1.8,3.2-3.3,3.2c0-1.7-0.9-2.8-2.2-2.8c-1.2,0-2.6,0.7-3.2,1.5L141.5,33.7z"/>
	<path class="st2" d="M151.6,36c3.8,0,6.9-0.4,9.8-1.6V53c0,1,0.6,2.1,3.1,2.1v0.2h-12.9v-0.2c2.5,0,3.1-1.1,3.1-2.1V38.4
		c0-1.5-0.7-2.2-3-2.2V36z M153.7,28.2c0-2.1,1.7-3.6,4.2-3.6c2.5,0,4.2,1.4,4.2,3.6c0,2.2-1.7,3.6-4.2,3.6
		C155.5,31.9,153.7,30.4,153.7,28.2z"/>
	<path class="st2" d="M166.3,55.1c2.5,0,3.1-1.1,3.1-2.1V38.4c0-1.5-0.7-2.2-3-2.2V36c3.8,0,6.9-0.4,9.8-1.6V53c0,1,0.6,2.1,3.1,2.1
		v0.2h-12.9V55.1z M180.7,55.1c2.4,0,3-1.1,3-2.1V40.2c0-2.3-1.2-3.5-3.2-3.5c-1.2,0-2.1,0.4-3.1,1.3v-0.2c1.1-1.7,3.8-3.3,6.8-3.3
		c3.7,0,6.3,1.7,6.3,5.8V53c0,1,0.6,2.1,3.1,2.1v0.2h-12.9V55.1z"/>
	<path class="st2" d="M196,41.8c0-5.3,5-7.4,9.2-7.4v0.2c-1.8,0.2-2.6,2.3-2.6,7.1c0,5,0.8,7,2.6,7.1v0.2
		C201.1,49.1,196,47.1,196,41.8z M207,65.4c4.1-0.5,5.4-2.7,5.4-4.2c0-5.7-16-0.6-16-8c0-1.7,0.9-3,2.8-4.2l0.1,0.2
		c-0.2,0.2-0.4,0.5-0.4,0.8c0,4.6,18.7-0.7,18.7,8.2c0,4.2-3.7,7-10.6,7.4V65.4z M196.4,61.9c0-2.4,3-3.2,6.2-3.2
		c-0.7,0.3-1.8,1.5-1.8,2.9c0,1.9,2.1,3.3,4.5,3.7v0.2C200.9,65.5,196.4,64.6,196.4,61.9z M207,48.9c2-0.2,2.8-2.2,2.8-7.1
		c0-4.8-0.9-6.9-2.8-7.1v-0.2c4.4,0.1,9.4,2.1,9.4,7.4c0,5.3-5.1,7.3-9.4,7.3V48.9z M209.2,33.7c0.7-2.1,2.6-4.9,5.4-4.9
		c2.2,0,3.5,1.1,3.5,3.1c0,2-1.8,3.2-3.3,3.2c0-1.7-0.9-2.8-2.2-2.8c-1.2,0-2.6,0.7-3.2,1.5L209.2,33.7z"/>
</g>
<g class="st1">
	<path class="st2" d="M16.9,77.6c-0.4-0.9-1-1.4-2.3-1.4v-0.2h11.5v0.2c-1.4,0-2,1-1.3,2.4l5.4,11.2l-3.5,6.7h-0.2L16.9,77.6z
		 M32,85.7c0.7-1.3,1.1-3.1,1.1-5.3c0-2.3-1.3-4.3-4.2-4.3v-0.2h10.2v0.2c-1.4,0-1.9,0.5-2.7,1.9l-4.3,8L32,85.7z"/>
</g>
<g class="st1">
	<path class="st2" d="M39.5,86.1c0-6.9,5.3-10.6,10.1-10.6v0.2c-2.4,0.3-3.1,2.3-3.1,10.2c0,5.9,2.6,9.2,6.3,9.2
		c2.3,0,4.1-0.7,6-2.2v0.2c-2.1,2.7-6,3.7-8.7,3.7C44.8,96.8,39.5,93,39.5,86.1z M48.7,84.3c3.6,0,5.1-1.1,5.1-4.6
		c0-2-0.8-3.8-2.7-4v-0.2c5.4,0,8,3.9,8,7c0,0.7-0.1,1.5-0.2,2.1H48.7V84.3z"/>
	<path class="st2" d="M71.5,94.1c0,1,0.6,2.1,3.1,2.1v0.2H61.6v-0.2c2.5,0,3.1-1.1,3.1-2.1V70.3c0-1.5-0.7-2.2-3-2.2v-0.2
		c3.8,0,6.9-0.4,9.8-1.6V94.1z M85.8,81.3v12.8c0,1,0.6,2.1,3.1,2.1v0.2H76v-0.2c2.4,0,3-1.1,3-2.1V81.3c0-2.3-1.2-3.5-3.2-3.5
		c-1.1,0-2.1,0.4-3.1,1.3v-0.2c1.1-1.7,3.8-3.3,6.8-3.3C83.2,75.5,85.8,77.2,85.8,81.3z"/>
	<path class="st2" d="M90.5,77c3.8,0,6.9-0.4,9.8-1.6v18.6c0,1,0.6,2.1,3.1,2.1v0.2H90.4v-0.2c2.5,0,3.1-1.1,3.1-2.1V79.5
		c0-1.5-0.7-2.2-3-2.2V77z M92.6,69.3c0-2.1,1.7-3.6,4.2-3.6c2.5,0,4.2,1.4,4.2,3.6c0,2.2-1.7,3.6-4.2,3.6
		C94.3,72.9,92.6,71.5,92.6,69.3z"/>
	<path class="st2" d="M116.3,75.7c-2.4,0.3-3.5,2.3-3.5,10.2c0,5.9,3,9.2,6.7,9.2c2.3,0,4.1-0.7,6-2.2v0.2c-2.1,2.7-6,3.7-8.7,3.7
		c-5.3,0-11-3.9-11-10.8s5.7-10.6,10.5-10.6V75.7z M125.5,80.1c0,2.2-1.5,3.9-4.1,3.9c-2,0-3.3-1.3-3.6-2.6c1.1-0.5,2-1.9,2-3
		c0-0.9-0.2-2.4-1.8-2.7v-0.3C123.4,75.5,125.5,77.8,125.5,80.1z"/>
	<path class="st2" d="M127.6,67.8c3.8,0,6.9-0.4,9.8-1.6v27.8c0,1,0.6,2.1,3.1,2.1v0.2h-12.9v-0.2c2.5,0,3.1-1.1,3.1-2.1V70.3
		c0-1.5-0.7-2.2-3-2.2V67.8z"/>
	<path class="st2" d="M142.9,86.1c0-6.9,5.3-10.6,10.1-10.6v0.2c-2.4,0.3-3.1,2.3-3.1,10.2c0,5.9,2.6,9.2,6.3,9.2
		c2.3,0,4.1-0.7,6-2.2v0.2c-2.1,2.7-6,3.7-8.7,3.7C148.2,96.8,142.9,93,142.9,86.1z M152.2,84.3c3.6,0,5.1-1.1,5.1-4.6
		c0-2-0.8-3.8-2.7-4v-0.2c5.4,0,8,3.9,8,7c0,0.7-0.1,1.5-0.2,2.1h-10.3V84.3z"/>
</g>
<g class="st1">
	<path class="st2" d="M16.1,118.1c3.8,0,6.9-0.4,9.8-1.6v18.6c0,1,0.6,2.1,3.1,2.1v0.2H16v-0.2c2.5,0,3.1-1.1,3.1-2.1v-14.6
		c0-1.5-0.7-2.2-3-2.2V118.1z M18.2,110.4c0-2.1,1.7-3.6,4.2-3.6c2.5,0,4.2,1.4,4.2,3.6c0,2.2-1.7,3.6-4.2,3.6
		C19.9,114,18.2,112.5,18.2,110.4z"/>
	<path class="st2" d="M30.7,137.2c2.5,0,3.1-1.1,3.1-2.1v-14.6c0-1.5-0.7-2.2-3-2.2v-0.2c3.8,0,6.9-0.4,9.8-1.6v18.6
		c0,1,0.6,2.1,3.1,2.1v0.2H30.7V137.2z M45.1,137.2c2.4,0,3-1.1,3-2.1v-12.8c0-2.3-1.2-3.5-3.2-3.5c-1.1,0-2.1,0.4-3.1,1.3v-0.2
		c1.1-1.7,3.8-3.3,6.8-3.3c3.7,0,6.3,1.7,6.3,5.8v12.8c0,1,0.6,2.1,3.1,2.1v0.2H45.1V137.2z"/>
	<path class="st2" d="M67.4,132.6c-1.4,0-2.3,0.8-2.3,2.1c0,1.2,0.8,2.7,3.7,3v0.2c-5.5-0.2-8.5-1.7-8.5-4.1c0-1.9,1.6-3,3.5-3
		C65.4,130.8,66.8,131.6,67.4,132.6z M68.7,116.8c-1.5,0.3-3,1.1-3,2.8c0.1,4.8,13.4,5.5,13.4,12.1c0,4-3.4,6.1-8.7,6.3v-0.2
		c1.7-0.3,3.7-0.9,3.7-3c0-4.3-13.5-5.8-13.5-12.1c0-3.6,3.4-5.8,8-6V116.8z M78.4,120.8c0,1.3-1,2.5-3,2.5c-1.7,0-3-0.7-3.5-2
		c1.2-0.1,1.9-0.9,1.8-1.9c0-1.2-1.6-2.4-3.2-2.6v-0.2C75.2,116.8,78.4,118.5,78.4,120.8z"/>
	<path class="st2" d="M91.3,132.1c0,2.3,0.8,3.5,2.8,3.5c1.1,0,1.9-0.3,2.8-1.3v0.2c-0.9,1.8-3,3.3-6.4,3.3c-3.7,0-6.1-1.7-6.1-5.8
		v-11.5c0-1.5-0.7-2.2-3-2.2v-0.2c3.8,0,6.9-0.4,9.8-1.6V132.1z M105,134.7c0,1.2,0.4,1.7,1.1,1.7c0.6,0,1.3-0.6,2-1.8h0.2
		c-0.7,2.3-2.9,3.3-5.6,3.3c-2.9,0-4.5-1.6-4.5-4v-13.3c0-1.5-0.7-2.2-2.9-2.2v-0.2c3.7,0,6.2-0.4,9.7-1.6V134.7z"/>
</g>
<g class="st1">
	<path class="st2" d="M119.8,135.1c0,1,0.6,2.1,3.1,2.1v0.2H110v-0.2c2.5,0,3.1-1.1,3.1-2.1v-14.6c0-1.5-0.7-2.2-3-2.2v-0.2
		c3.8,0,6.9-0.4,9.8-1.6V135.1z M130.9,121c0,2.8-2,4.7-4.2,4.7c-1,0-1.8-0.2-2.3-0.9c0.8-0.4,1.6-1.3,1.6-2.8
		c0-1.2-0.9-2.2-2.3-2.2c-1.1,0-1.9,0.6-2.5,1.6V121c0.8-2.6,2.8-4.4,5.3-4.4C129.3,116.5,130.9,118.5,130.9,121z"/>
</g>
<g class="st1">
	<path class="st2" d="M132.7,132.6c0-3.6,3.3-5.6,7.9-5.6h4.4v0.2h-1.2c-3,0-4.4,1.9-4.4,4.5c0,2.3,0.7,4,2.6,4c1.1,0,2.1-0.6,3-1.4
		v0.2c-1.4,1.6-3.5,3.3-6.5,3.3C135,137.9,132.6,135.9,132.7,132.6z M134.3,121c0-2.1,1.9-4.2,7.5-4.5v0.2c-1.6,0.2-2.6,1.6-2.6,3
		c0,1.5,1,2.4,2.7,2.5c-0.6,1.1-2.3,2-3.9,2C135.6,124.2,134.3,122.7,134.3,121z M146.2,133.2v-12.6c0-2-0.8-3.6-2.8-3.9v-0.2
		c6.8,0.2,9.5,2.8,9.5,8.2v10c0,1.2,0.4,1.7,1.1,1.7c0.6,0,1.3-0.6,2-1.8h0.2c-0.7,2.3-2.9,3.3-5.3,3.3
		C147.7,137.9,146.2,136.7,146.2,133.2z"/>
	<path class="st2" d="M157.6,137.2c2.5,0,3.1-1.1,3.1-2.1v-14.6c0-1.5-0.7-2.2-3-2.2v-0.2c3.8,0,6.9-0.4,9.8-1.6v18.6
		c0,1,0.6,2.1,3.1,2.1v0.2h-12.9V137.2z M172.1,137.2c2.4,0,3-1.1,3-2.1v-12.8c0-2.3-1.2-3.5-3.2-3.5c-1.2,0-2.1,0.4-3.1,1.3v-0.2
		c1.1-1.7,3.8-3.3,6.8-3.3c3.7,0,6.3,1.7,6.3,5.8v12.8c0,1,0.6,2.1,3.1,2.1v0.2h-12.9V137.2z"/>
	<path class="st2" d="M197.7,116.8c-2.4,0.3-3.5,2.3-3.5,10.2c0,5.9,3,9.2,6.7,9.2c2.3,0,4.1-0.7,6-2.2v0.2c-2.1,2.7-6,3.7-8.7,3.7
		c-5.3,0-11-3.9-11-10.8c0-6.9,5.7-10.6,10.5-10.6V116.8z M206.8,121.2c0,2.2-1.5,3.9-4.1,3.9c-2,0-3.3-1.3-3.6-2.6
		c1.2-0.5,2-1.9,2-3c0-0.9-0.2-2.4-1.8-2.7v-0.3C204.7,116.5,206.8,118.8,206.8,121.2z"/>
	<path class="st2" d="M209.9,127.1c0-6.9,5.3-10.6,10.1-10.6v0.2c-2.4,0.3-3.1,2.3-3.1,10.2c0,5.9,2.6,9.2,6.3,9.2
		c2.3,0,4.1-0.7,6-2.2v0.2c-2.1,2.7-6,3.7-8.7,3.7C215.2,137.9,209.9,134,209.9,127.1z M219.1,125.4c3.6,0,5.1-1.1,5.1-4.6
		c0-2-0.8-3.8-2.7-4v-0.2c5.4,0,8,3.9,8,7c0,0.7-0.1,1.5-0.2,2.1h-10.3V125.4z"/>
</g>
</svg>
