<?xml version="1.0" encoding="utf-8"?>
<!-- Generator: Adobe Illustrator 24.0.3, SVG Export Plug-In . SVG Version: 6.00 Build 0)  -->
<svg version="1.1" id="Layer_1" xmlns="http://www.w3.org/2000/svg" xmlns:xlink="http://www.w3.org/1999/xlink" x="0px" y="0px"
	 viewBox="0 0 320 480" style="enable-background:new 0 0 320 480;" xml:space="preserve">
<style type="text/css">
	.st0{enable-background:new    ;}
	.st1{fill:#FFFFFF;}
</style>
<title>Artboard 1 copy</title>
<g class="st0">
	<path class="st1" d="M13.3,36c3.8,0,6.9-0.4,9.8-1.6V53c0,1,0.6,2.1,3.1,2.1v0.2H13.3v-0.2c2.5,0,3.1-1.1,3.1-2.1V38.4
		c0-1.5-0.7-2.2-3-2.2V36z M15.4,28.2c0-2.1,1.7-3.6,4.2-3.6s4.2,1.4,4.2,3.6c0,2.2-1.7,3.6-4.2,3.6S15.4,30.4,15.4,28.2z"/>
	<path class="st1" d="M35.8,50.5c-1.4,0-2.3,0.8-2.3,2.1c0,1.2,0.8,2.7,3.7,3v0.2c-5.5-0.2-8.5-1.7-8.5-4.1c0-1.9,1.6-3,3.5-3
		C33.8,48.7,35.2,49.4,35.8,50.5z M37.2,34.7c-1.5,0.3-3,1.1-3,2.8c0.1,4.8,13.4,5.5,13.4,12.1c0,4-3.4,6.1-8.7,6.3v-0.2
		c1.7-0.3,3.7-0.9,3.7-3c0-4.3-13.5-5.8-13.5-12.1c0-3.6,3.4-5.8,8-6V34.7z M46.9,38.6c0,1.3-1,2.5-3,2.5c-1.7,0-3-0.7-3.5-2
		c1.2-0.1,1.9-0.9,1.8-1.9c0-1.2-1.6-2.4-3.2-2.6v-0.2C43.6,34.7,46.9,36.3,46.9,38.6z"/>
	<path class="st1" d="M61.5,45c0-6.9,5.3-10.6,10.1-10.6v0.2c-2.4,0.3-3.1,2.3-3.1,10.2c0,5.9,2.6,9.2,6.3,9.2c2.3,0,4.1-0.7,6-2.2
		v0.2c-2.1,2.7-6,3.7-8.7,3.7C66.8,55.8,61.5,51.9,61.5,45z M70.8,43.3c3.6,0,5.1-1.1,5.1-4.6c0-2-0.8-3.8-2.7-4v-0.2
		c5.4,0,8,3.9,8,7c0,0.7-0.1,1.5-0.2,2.1H70.8V43.3z"/>
	<path class="st1" d="M84.2,50.5c0-3.6,3.3-5.6,7.9-5.6h4.4v0.2h-1.2c-3,0-4.4,1.9-4.4,4.5c0,2.3,0.7,4,2.6,4c1.2,0,2.1-0.6,3-1.4
		v0.2C95.2,54,93,55.8,90,55.8C86.5,55.8,84.2,53.8,84.2,50.5z M85.9,38.9c0-2.1,1.9-4.2,7.5-4.5v0.2c-1.6,0.2-2.6,1.6-2.6,3
		c0,1.5,1,2.4,2.7,2.5c-0.6,1.1-2.3,2-3.9,2C87.2,42.1,85.9,40.6,85.9,38.9z M97.8,51.1V38.6c0-2-0.8-3.6-2.8-3.9v-0.2
		c6.8,0.2,9.5,2.8,9.5,8.2v10c0,1.2,0.4,1.7,1.1,1.7c0.6,0,1.3-0.6,2-1.8h0.2c-0.7,2.3-2.9,3.3-5.3,3.3
		C99.2,55.8,97.8,54.6,97.8,51.1z"/>
</g>
<g class="st0">
	<path class="st1" d="M117,50.5c-1.4,0-2.3,0.8-2.3,2.1c0,1.2,0.8,2.7,3.7,3v0.2c-5.5-0.2-8.5-1.7-8.5-4.1c0-1.9,1.6-3,3.5-3
		C115,48.7,116.4,49.4,117,50.5z M118.4,34.7c-1.5,0.3-3,1.1-3,2.8c0.1,4.8,13.4,5.5,13.4,12.1c0,4-3.4,6.1-8.7,6.3v-0.2
		c1.7-0.3,3.7-0.9,3.7-3c0-4.3-13.5-5.8-13.5-12.1c0-3.6,3.4-5.8,8-6V34.7z M128.1,38.6c0,1.3-1,2.5-3,2.5c-1.7,0-3-0.7-3.5-2
		c1.2-0.1,1.9-0.9,1.8-1.9c0-1.2-1.6-2.4-3.2-2.6v-0.2C124.8,34.7,128.1,36.3,128.1,38.6z"/>
</g>
<g class="st0">
	<path class="st1" d="M132.3,36.5c-0.4-0.9-1-1.4-2.3-1.4v-0.2h11.5v0.2c-1.4,0-2,1-1.3,2.4l5.4,11.2l-3.5,6.7h-0.2L132.3,36.5z
		 M130.5,62c0-1.8,1.4-3.2,3.6-3.9c-0.1,0.4-0.2,0.7-0.2,1c0,1.6,0.8,2.8,2.4,2.8c1.4,0,2.6-1.5,4.1-4.1h0.3
		c-2.3,4.2-3.8,7.9-6.7,7.9C131.8,65.6,130.5,64.1,130.5,62z M147.3,44.7c0.7-1.3,1.2-3.1,1.2-5.3c0-2.3-1.3-4.3-4.2-4.3v-0.2h10.2
		v0.2c-1.4,0-1.9,0.5-2.7,1.9l-4.3,8L147.3,44.7z"/>
</g>
<g class="st0">
	<path class="st1" d="M22.1,78.5l5.4,11.2l-3.5,6.7h-0.2l-9.5-18.8c-0.4-0.9-1-1.4-2.3-1.4v-0.2h11.5v0.2
		C22,76.1,21.4,77.1,22.1,78.5z M35.6,78.5L41,89.8l-3.5,6.7h-0.2l-6.4-12.8l-1.3,2.5l-0.2-0.4c0.7-1.4,0.9-3.4,0.3-4.6l-1.8-3.6
		c-0.4-0.9-1-1.4-2.3-1.4v-0.2h11.5v0.2C35.5,76.1,34.9,77.1,35.6,78.5z M49.9,75.9v0.2c-1.4,0-1.9,0.5-2.7,1.9l-4.3,8l-0.2-0.4
		c0.7-1.3,1.1-3.1,1.1-5.3c0-2.3-1.3-4.3-4.2-4.3v-0.2H49.9z"/>
	<path class="st1" d="M50.3,77c3.8,0,6.9-0.4,9.8-1.6v18.6c0,1,0.6,2.1,3.1,2.1v0.2H50.2v-0.2c2.5,0,3.1-1.1,3.1-2.1V79.5
		c0-1.5-0.7-2.2-3-2.2V77z M52.4,69.3c0-2.1,1.7-3.6,4.2-3.6c2.5,0,4.2,1.4,4.2,3.6c0,2.2-1.7,3.6-4.2,3.6
		C54.1,72.9,52.4,71.5,52.4,69.3z"/>
	<path class="st1" d="M80.8,93.2v0.2c-1.3,1.9-3.9,3.3-7,3.3c-3.7,0-6.3-1.7-6.3-5.8V77.6h-2.1l0.5-0.6h1.7v-4.4
		c2.5,0,5-0.8,6.7-2.3v6.7h5.5l-0.5,0.6h-5.1v13.6c0,2.1,0.8,4.2,2.7,4.2C78.1,95.3,79.5,94.6,80.8,93.2z"/>
	<path class="st1" d="M91.4,94.1c0,1,0.6,2.1,3.1,2.1v0.2H81.5v-0.2c2.5,0,3.1-1.1,3.1-2.1V70.3c0-1.5-0.7-2.2-3-2.2v-0.2
		c3.8,0,6.9-0.4,9.8-1.6V94.1z M105.8,81.3v12.8c0,1,0.6,2.1,3.1,2.1v0.2H96v-0.2c2.4,0,3-1.1,3-2.1V81.3c0-2.3-1.2-3.5-3.2-3.5
		c-1.1,0-2.1,0.4-3.1,1.3v-0.2c1.1-1.7,3.8-3.3,6.8-3.3C103.1,75.5,105.8,77.2,105.8,81.3z"/>
</g>
<g class="st0">
	<path class="st1" d="M132,96.6v0.2c-3.2-0.1-5.8-0.7-8-2l-1.4,2h-0.3v-10h0.3C124,91.4,126.9,94.9,132,96.6z M144,88.4
		c0,5.3-3.9,8.2-10.3,8.4v-0.2c2.3-0.4,4.5-1.7,4.5-4.2c0-7.2-15.7-7.8-15.7-16.2c0-4.9,4-7.8,9.4-8.1v0.2c-1.9,0.3-3.6,1.5-3.6,3.8
		C128.4,79.3,144,80.1,144,88.4z M133.7,68.3v-0.2c3.1,0.1,5.5,0.8,7.4,2.2l1.5-2.2h0.3v9.2h-0.3C141.3,72.9,137.8,69.3,133.7,68.3z
		"/>
</g>
<g class="st0">
	<path class="st1" d="M162.8,93.2v0.2c-1.3,1.9-3.9,3.3-7,3.3c-3.7,0-6.3-1.7-6.3-5.8V77.6h-2.1l0.5-0.6h1.7v-4.4
		c2.5,0,5-0.8,6.7-2.3v6.7h5.5l-0.5,0.6h-5.1v13.6c0,2.1,0.8,4.2,2.7,4.2C160,95.3,161.4,94.6,162.8,93.2z"/>
	<path class="st1" d="M164.1,91.6c0-3.6,3.3-5.6,7.9-5.6h4.4v0.2h-1.2c-3,0-4.4,1.9-4.4,4.5c0,2.3,0.7,4,2.6,4c1.2,0,2.1-0.6,3-1.4
		v0.2c-1.4,1.6-3.5,3.3-6.5,3.3C166.4,96.8,164,94.8,164.1,91.6z M165.7,79.9c0-2.1,1.9-4.2,7.5-4.5v0.2c-1.6,0.2-2.6,1.6-2.6,3
		c0,1.5,1,2.4,2.7,2.5c-0.6,1.1-2.3,2-3.9,2C167,83.2,165.7,81.7,165.7,79.9z M177.6,92.2V79.6c0-2-0.8-3.6-2.8-3.9v-0.2
		c6.8,0.2,9.5,2.8,9.5,8.2v10c0,1.2,0.4,1.7,1.1,1.7c0.6,0,1.3-0.6,2-1.8h0.2c-0.7,2.3-2.9,3.3-5.3,3.3
		C179.1,96.8,177.6,95.7,177.6,92.2z"/>
</g>
<g class="st0">
	<path class="st1" d="M198.9,94.1c0,1,0.6,2.1,3.1,2.1v0.2H189v-0.2c2.5,0,3.1-1.1,3.1-2.1V79.5c0-1.5-0.7-2.2-3-2.2v-0.2
		c3.8,0,6.9-0.4,9.8-1.6V94.1z M209.9,79.9c0,2.8-2,4.7-4.2,4.7c-1,0-1.8-0.2-2.3-0.9c0.8-0.4,1.6-1.3,1.6-2.8
		c0-1.2-0.9-2.2-2.3-2.2c-1.1,0-1.9,0.6-2.5,1.6v-0.3c0.8-2.6,2.8-4.4,5.3-4.4C208.4,75.5,209.9,77.4,209.9,79.9z"/>
</g>
<g class="st0">
	<path class="st1" d="M14,137.2c2.5,0,3.1-1,3.1-2.1v-23.2c0-1.1-0.6-2.1-3.1-2.1v-0.2h13.1v0.2c-2.5,0-3.1,1-3.1,2.1v23.2
		c0,1.1,0.6,2.1,3.1,2.1v0.2H14V137.2z"/>
	<path class="st1" d="M29.9,137.2c2.5,0,3.1-1.1,3.1-2.1v-14.6c0-1.5-0.7-2.2-3-2.2v-0.2c3.8,0,6.9-0.4,9.8-1.6v18.6
		c0,1,0.6,2.1,3.1,2.1v0.2H29.9V137.2z M44.3,137.2c2.4,0,3-1.1,3-2.1v-12.8c0-2.3-1.2-3.5-3.2-3.5c-1.1,0-2.1,0.4-3.1,1.3v-0.2
		c1.1-1.7,3.8-3.3,6.8-3.3c3.7,0,6.3,1.7,6.3,5.8v12.8c0,1,0.6,2.1,3.1,2.1v0.2H44.3V137.2z"/>
	<path class="st1" d="M66.6,132.6c-1.4,0-2.3,0.8-2.3,2.1c0,1.2,0.8,2.7,3.7,3v0.2c-5.5-0.2-8.5-1.7-8.5-4.1c0-1.9,1.6-3,3.5-3
		C64.6,130.8,66,131.6,66.6,132.6z M68,116.8c-1.5,0.3-3,1.1-3,2.8c0.1,4.8,13.4,5.5,13.4,12.1c0,4-3.4,6.1-8.7,6.3v-0.2
		c1.7-0.3,3.7-0.9,3.7-3c0-4.3-13.5-5.8-13.5-12.1c0-3.6,3.4-5.8,8-6V116.8z M77.6,120.8c0,1.3-1,2.5-3,2.5c-1.7,0-3-0.7-3.5-2
		c1.2-0.1,1.9-0.9,1.8-1.9c0-1.2-1.6-2.4-3.2-2.6v-0.2C74.4,116.8,77.6,118.5,77.6,120.8z"/>
	<path class="st1" d="M90.5,132.1c0,2.3,0.8,3.5,2.8,3.5c1.1,0,1.9-0.3,2.8-1.3v0.2c-0.9,1.8-3,3.3-6.4,3.3c-3.7,0-6.1-1.7-6.1-5.8
		v-11.5c0-1.5-0.7-2.2-3-2.2v-0.2c3.8,0,6.9-0.4,9.8-1.6V132.1z M104.2,134.7c0,1.2,0.4,1.7,1.1,1.7c0.6,0,1.3-0.6,2-1.8h0.2
		c-0.7,2.3-2.9,3.3-5.6,3.3c-2.9,0-4.5-1.6-4.5-4v-13.3c0-1.5-0.7-2.2-2.9-2.2v-0.2c3.7,0,6.2-0.4,9.7-1.6V134.7z"/>
</g>
<g class="st0">
	<path class="st1" d="M119,135.1c0,1,0.6,2.1,3.1,2.1v0.2h-12.9v-0.2c2.5,0,3.1-1.1,3.1-2.1v-14.6c0-1.5-0.7-2.2-3-2.2v-0.2
		c3.8,0,6.9-0.4,9.8-1.6V135.1z M130.1,121c0,2.8-2,4.7-4.2,4.7c-1,0-1.8-0.2-2.3-0.9c0.8-0.4,1.6-1.3,1.6-2.8
		c0-1.2-0.9-2.2-2.3-2.2c-1.1,0-1.9,0.6-2.5,1.6V121c0.8-2.6,2.8-4.4,5.3-4.4C128.6,116.5,130.1,118.5,130.1,121z"/>
</g>
<g class="st0">
	<path class="st1" d="M131.9,132.6c0-3.6,3.3-5.6,7.9-5.6h4.4v0.2H143c-3,0-4.4,1.9-4.4,4.5c0,2.3,0.7,4,2.6,4c1.1,0,2.1-0.6,3-1.4
		v0.2c-1.4,1.6-3.5,3.3-6.5,3.3C134.2,137.9,131.8,135.9,131.9,132.6z M133.5,121c0-2.1,1.9-4.2,7.5-4.5v0.2c-1.6,0.2-2.6,1.6-2.6,3
		c0,1.5,1,2.4,2.7,2.5c-0.6,1.1-2.3,2-3.9,2C134.8,124.2,133.5,122.7,133.5,121z M145.4,133.2v-12.6c0-2-0.8-3.6-2.8-3.9v-0.2
		c6.8,0.2,9.5,2.8,9.5,8.2v10c0,1.2,0.4,1.7,1.1,1.7c0.6,0,1.3-0.6,2-1.8h0.2c-0.7,2.3-2.9,3.3-5.3,3.3
		C146.9,137.9,145.4,136.7,145.4,133.2z"/>
	<path class="st1" d="M156.8,137.2c2.5,0,3.1-1.1,3.1-2.1v-14.6c0-1.5-0.7-2.2-3-2.2v-0.2c3.8,0,6.9-0.4,9.8-1.6v18.6
		c0,1,0.6,2.1,3.1,2.1v0.2h-12.9V137.2z M171.3,137.2c2.4,0,3-1.1,3-2.1v-12.8c0-2.3-1.2-3.5-3.2-3.5c-1.2,0-2.1,0.4-3.1,1.3v-0.2
		c1.1-1.7,3.8-3.3,6.8-3.3c3.7,0,6.3,1.7,6.3,5.8v12.8c0,1,0.6,2.1,3.1,2.1v0.2h-12.9V137.2z"/>
	<path class="st1" d="M196.9,116.8c-2.4,0.3-3.5,2.3-3.5,10.2c0,5.9,3,9.2,6.7,9.2c2.3,0,4.1-0.7,6-2.2v0.2c-2.1,2.7-6,3.7-8.7,3.7
		c-5.3,0-11-3.9-11-10.8c0-6.9,5.7-10.6,10.5-10.6V116.8z M206,121.2c0,2.2-1.5,3.9-4.1,3.9c-2,0-3.3-1.3-3.6-2.6c1.2-0.5,2-1.9,2-3
		c0-0.9-0.2-2.4-1.8-2.7v-0.3C203.9,116.5,206,118.8,206,121.2z"/>
	<path class="st1" d="M209.1,127.1c0-6.9,5.3-10.6,10.1-10.6v0.2c-2.4,0.3-3.1,2.3-3.1,10.2c0,5.9,2.6,9.2,6.3,9.2
		c2.3,0,4.1-0.7,6-2.2v0.2c-2.1,2.7-6,3.7-8.7,3.7C214.4,137.9,209.1,134,209.1,127.1z M218.3,125.4c3.6,0,5.1-1.1,5.1-4.6
		c0-2-0.8-3.8-2.7-4v-0.2c5.4,0,8,3.9,8,7c0,0.7-0.1,1.5-0.2,2.1h-10.3V125.4z"/>
</g>
<g class="st0">
	<path class="st1" d="M14,178.5v-0.2c2.5,0,3.1-0.9,3.1-2.1V153c0-1.1-0.6-2.1-3.1-2.1v-0.2h10.1v27.9H14z M37,150.6v7.6h-0.3
		c-1.8-5.2-4.3-6.9-10.5-7.4v-0.2H37z M26.1,164.2V164l2.3-0.2c2.4-0.2,4.1-1.2,5.4-3.5h0.3v7.6h-0.3c-1.4-2.3-3-3.2-5.4-3.4
		L26.1,164.2z M26.1,178.3c6.2-0.4,9.2-2.2,11.4-7.4h0.3v7.6H26.1V178.3z"/>
	<path class="st1" d="M40.9,178.3c2.5,0,3.1-1.1,3.1-2.1v-14.6c0-1.5-0.7-2.2-3-2.2v-0.2c3.8,0,6.9-0.4,9.8-1.6v18.6
		c0,1,0.6,2.1,3.1,2.1v0.2H40.9V178.3z M55.3,178.3c2.4,0,3-1.1,3-2.1v-12.8c0-2.3-1.2-3.5-3.2-3.5c-1.1,0-2.1,0.4-3.1,1.3v-0.2
		c1.1-1.7,3.8-3.3,6.8-3.3c3.7,0,6.3,1.7,6.3,5.8v12.8c0,1,0.6,2.1,3.1,2.1v0.2H55.3V178.3z"/>
	<path class="st1" d="M85.6,175.4v0.2c-1.3,1.9-3.9,3.3-7,3.3c-3.7,0-6.3-1.7-6.3-5.8v-13.5h-2.1l0.5-0.6h1.7v-4.4
		c2.5,0,5-0.8,6.7-2.3v6.7h5.5l-0.5,0.6H79v13.6c0,2.1,0.8,4.2,2.7,4.2C82.9,177.5,84.3,176.7,85.6,175.4z"/>
	<path class="st1" d="M96.2,176.2c0,1,0.6,2.1,3.1,2.1v0.2H86.4v-0.2c2.5,0,3.1-1.1,3.1-2.1v-23.8c0-1.5-0.7-2.2-3-2.2V150
		c3.8,0,6.9-0.4,9.8-1.6V176.2z M110.6,163.4v12.8c0,1,0.6,2.1,3.1,2.1v0.2h-12.9v-0.2c2.4,0,3-1.1,3-2.1v-12.8
		c0-2.3-1.2-3.5-3.2-3.5c-1.1,0-2.1,0.4-3.1,1.3v-0.2c1.1-1.7,3.8-3.3,6.8-3.3C108,157.6,110.6,159.3,110.6,163.4z"/>
	<path class="st1" d="M124.5,173.2c0,2.3,0.8,3.5,2.8,3.5c1.1,0,1.9-0.3,2.8-1.3v0.2c-0.9,1.8-3,3.3-6.4,3.3c-3.7,0-6.1-1.7-6.1-5.8
		v-11.5c0-1.5-0.7-2.2-3-2.2v-0.2c3.8,0,6.9-0.4,9.8-1.6V173.2z M138.2,175.8c0,1.2,0.4,1.7,1.1,1.7c0.6,0,1.3-0.6,2-1.8h0.2
		c-0.7,2.3-2.9,3.3-5.6,3.3c-2.9,0-4.5-1.6-4.5-4v-13.3c0-1.5-0.7-2.2-2.9-2.2v-0.2c3.7,0,6.2-0.4,9.7-1.6V175.8z"/>
	<path class="st1" d="M151.1,173.6c-1.4,0-2.3,0.8-2.3,2.1c0,1.2,0.8,2.7,3.7,3v0.2c-5.5-0.2-8.5-1.7-8.5-4.1c0-1.9,1.6-3,3.5-3
		C149.1,171.8,150.4,172.6,151.1,173.6z M152.4,157.8c-1.5,0.3-3,1.1-3,2.8c0.1,4.8,13.4,5.5,13.4,12.1c0,4-3.4,6.1-8.7,6.3v-0.2
		c1.7-0.3,3.7-0.9,3.7-3c0-4.3-13.5-5.8-13.5-12.1c0-3.6,3.4-5.8,8-6V157.8z M162.1,161.8c0,1.3-1,2.5-3,2.5c-1.7,0-3-0.7-3.5-2
		c1.2-0.1,1.9-0.9,1.8-1.9c0-1.2-1.6-2.4-3.2-2.6v-0.2C158.9,157.8,162.1,159.5,162.1,161.8z"/>
	<path class="st1" d="M165.7,159.1c3.8,0,6.9-0.4,9.8-1.6v18.6c0,1,0.6,2.1,3.1,2.1v0.2h-12.9v-0.2c2.5,0,3.1-1.1,3.1-2.1v-14.6
		c0-1.5-0.7-2.2-3-2.2V159.1z M167.8,151.4c0-2.1,1.7-3.6,4.2-3.6c2.5,0,4.2,1.4,4.2,3.6c0,2.2-1.7,3.6-4.2,3.6
		C169.5,155,167.8,153.6,167.8,151.4z"/>
	<path class="st1" d="M180.6,173.7c0-3.6,3.3-5.6,7.9-5.6h4.4v0.2h-1.2c-3,0-4.4,1.9-4.4,4.5c0,2.3,0.7,4,2.6,4c1.2,0,2.1-0.6,3-1.4
		v0.2c-1.4,1.6-3.5,3.3-6.5,3.3C182.9,178.9,180.6,177,180.6,173.7z M182.3,162.1c0-2.1,1.9-4.2,7.5-4.5v0.2c-1.6,0.2-2.6,1.6-2.6,3
		c0,1.5,1,2.4,2.7,2.5c-0.6,1.1-2.3,2-3.9,2C183.6,165.3,182.3,163.8,182.3,162.1z M194.2,174.3v-12.6c0-2-0.8-3.6-2.8-3.9v-0.2
		c6.8,0.2,9.5,2.8,9.5,8.2v10c0,1.2,0.4,1.7,1.1,1.7c0.6,0,1.3-0.6,2-1.8h0.2c-0.7,2.3-2.9,3.3-5.3,3.3
		C195.7,178.9,194.2,177.8,194.2,174.3z"/>
	<path class="st1" d="M213.4,173.6c-1.4,0-2.3,0.8-2.3,2.1c0,1.2,0.8,2.7,3.7,3v0.2c-5.5-0.2-8.5-1.7-8.5-4.1c0-1.9,1.6-3,3.5-3
		C211.5,171.8,212.8,172.6,213.4,173.6z M214.8,157.8c-1.5,0.3-3,1.1-3,2.8c0.1,4.8,13.4,5.5,13.4,12.1c0,4-3.4,6.1-8.7,6.3v-0.2
		c1.7-0.3,3.7-0.9,3.7-3c0-4.3-13.5-5.8-13.5-12.1c0-3.6,3.4-5.8,8-6V157.8z M224.5,161.8c0,1.3-1,2.5-3,2.5c-1.7,0-3-0.7-3.5-2
		c1.2-0.1,1.9-0.9,1.8-1.9c0-1.2-1.6-2.4-3.2-2.6v-0.2C221.2,157.8,224.5,159.5,224.5,161.8z"/>
	<path class="st1" d="M243.9,175.4v0.2c-1.3,1.9-3.9,3.3-7,3.3c-3.7,0-6.3-1.7-6.3-5.8v-13.5h-2.1l0.5-0.6h1.7v-4.4
		c2.5,0,5-0.8,6.7-2.3v6.7h5.5l-0.5,0.6h-5.1v13.6c0,2.1,0.8,4.2,2.7,4.2C241.1,177.5,242.5,176.7,243.9,175.4z"/>
</g>
</svg>
