<svg id="Layer_1" data-name="Layer 1" xmlns="http://www.w3.org/2000/svg" viewBox="0 0 320 480"><defs><style>.cls-1{fill:#263845;}</style></defs><title>Artboard 1 copy 2</title><path class="cls-1" d="M24.59,76.08l.28.42.28,14.7c0,1.51,1.12,2.94,3.43,2.94v.21H20.87v-.21c2.31,0,3.4-1.47,3.44-2.94ZM43.14,94.35H39.25L24.62,72.55a3.81,3.81,0,0,0-3.71-1.79v-.21h9.35L43.14,89.84Zm-.07-8-.28-.38L42.37,73.7c0-1.5-1.12-2.94-3.43-2.94v-.21h7.7v.21c-2.31,0-3.43,1.47-3.43,2.94Z"/><path class="cls-1" d="M62.28,70.55H69l-13.9,23.8H48.42Zm-12.85,0H60l-.11.21C54.72,71,50.59,74.61,49.71,79h-.28Zm8,23.59A12,12,0,0,0,68.37,84.8h.28v9.55H57.35Z"/><path class="cls-1" d="M78.73,71.67c0,2-2.17,4.73-5.67,6.16L73,77.52a4.89,4.89,0,0,0,2-3.4,2.21,2.21,0,0,0-2.38-2.31c.28-2.06,1.5-3.18,3.32-3.18A2.81,2.81,0,0,1,78.73,71.67Z"/><path class="cls-1" d="M85.91,90.19a1.79,1.79,0,0,0-2,1.75c0,1,.71,2.31,3.12,2.55v.21c-4.65-.17-7.21-1.43-7.21-3.46a2.73,2.73,0,0,1,3-2.59A3.56,3.56,0,0,1,85.91,90.19Zm1.15-13.48c-1.29.25-2.55.91-2.52,2.35C84.65,83.12,96,83.78,96,89.35c0,3.39-2.87,5.18-7.39,5.35v-.21c1.47-.24,3.12-.77,3.12-2.59,0-3.64-11.49-5-11.49-10.29,0-3.08,2.91-4.93,6.83-5.11Zm8.26,3.4a2.29,2.29,0,0,1-2.59,2.17,3,3,0,0,1-3-1.68A1.55,1.55,0,0,0,91.33,79c0-1-1.33-2.06-2.73-2.24V76.5C92.56,76.71,95.32,78.15,95.32,80.11Z"/><path class="cls-1" d="M107,70a21.46,21.46,0,0,0,8.36-1.36V92.36c0,.87.53,1.78,2.63,1.78v.21H107v-.21c2.1,0,2.63-.91,2.63-1.78V72.06c0-1.26-.6-1.86-2.59-1.86Z"/><path class="cls-1" d="M120.1,85.53a8.67,8.67,0,0,1,8.58-9v.21c-2.07.25-2.63,2-2.63,8.68,0,5,2.24,7.81,5.36,7.81a7.62,7.62,0,0,0,5.11-1.86v.21c-1.82,2.31-5.15,3.15-7.42,3.15A8.87,8.87,0,0,1,120.1,85.53ZM128,84.06c3.08,0,4.37-1,4.37-3.92,0-1.68-.7-3.22-2.27-3.43V76.5c4.62,0,6.86,3.29,6.86,6a9.85,9.85,0,0,1-.18,1.82H128Z"/><path class="cls-1" d="M139.45,90.22c0-3,2.8-4.76,6.73-4.76H150v.21h-1a3.47,3.47,0,0,0-3.72,3.82c0,1.92.57,3.39,2.21,3.39A3.82,3.82,0,0,0,150,91.66v.21a7.43,7.43,0,0,1-5.56,2.83C141.41,94.7,139.42,93,139.45,90.22Zm1.4-9.9c0-1.79,1.61-3.61,6.37-3.82v.21A2.56,2.56,0,0,0,145,79.27c0,1.26.88,2,2.28,2.13a3.94,3.94,0,0,1-3.36,1.68A2.8,2.8,0,0,1,140.85,80.32ZM151,90.75V80c0-1.72-.67-3.08-2.39-3.33V76.5c5.81.21,8.13,2.42,8.13,7V92c0,1,.35,1.43,1,1.43s1.12-.52,1.68-1.57h.21c-.56,1.92-2.45,2.83-4.55,2.83C152.27,94.7,151,93.72,151,90.75Z"/><path class="cls-1" d="M173.76,79.3v.28a3.9,3.9,0,0,0-2.91-1.29c-1.75,0-3.43.8-3.43,7.14s1.78,7.45,3.43,7.45a4.86,4.86,0,0,0,2.91-1.22v.21a6.51,6.51,0,0,1-5.08,2.83c-3.33,0-7.21-2-7.21-9.27,0-7,3.81-8.93,7.21-8.93A6.49,6.49,0,0,1,173.76,79.3ZM180.58,92c0,1,.32,1.43.95,1.43s1.12-.52,1.68-1.57h.21c-.56,1.92-2.45,2.83-4.56,2.83-2.8,0-4.05-1-4.05-4V72.06c0-1.26-.6-1.86-2.6-1.86V70a23.06,23.06,0,0,0,8.37-1.36Z"/><path class="cls-1" d="M184.88,77.83a21.54,21.54,0,0,0,8.37-1.36V92.36c0,.87.52,1.78,2.62,1.78v.21h-11v-.21c2.1,0,2.62-.91,2.62-1.78V79.9c0-1.26-.59-1.86-2.59-1.86Zm1.79-6.58c0-1.82,1.47-3,3.57-3s3.57,1.22,3.57,3-1.47,3.08-3.57,3.08S186.67,73.11,186.67,71.25Z"/><path class="cls-1" d="M197.34,94.14c2.1,0,2.63-.91,2.63-1.78V79.93c0-1.26-.6-1.85-2.59-1.85v-.21a21.3,21.3,0,0,0,8.36-1.37V92.36c0,.87.53,1.78,2.63,1.78v.21h-11Zm12.32,0c2.07,0,2.59-.91,2.59-1.78V81.44c0-2-1-3-2.76-3a3.74,3.74,0,0,0-2.66,1.09v-.21a7.14,7.14,0,0,1,5.81-2.84c3.15,0,5.39,1.47,5.39,4.94V92.36c0,.87.53,1.78,2.63,1.78v.21h-11Z"/><path class="cls-1" d="M222.72,82.84c0-4.55,4.27-6.27,7.84-6.34v.21c-1.51.14-2.21,2-2.21,6,0,4.24.7,6,2.21,6.09V89C227,89,222.72,87.35,222.72,82.84ZM232,102.9c3.5-.42,4.62-2.32,4.62-3.58,0-4.86-13.65-.52-13.65-6.79,0-1.43.73-2.55,2.34-3.57l.11.18a.81.81,0,0,0-.32.66c0,3.92,16-.63,16,7,0,3.61-3.12,6-9.07,6.3Zm-9-3c0-2.06,2.55-2.69,5.32-2.69a2.94,2.94,0,0,0-1.51,2.48c0,1.61,1.82,2.84,3.82,3.16v.2C226.88,103,223,102.27,223,100Zm9-11.13c1.71-.14,2.41-1.85,2.41-6.09,0-4.06-.73-5.88-2.41-6V76.5c3.71.07,8,1.79,8,6.34S235.74,89,232,89Zm1.89-12.95c.59-1.78,2.2-4.2,4.62-4.2,1.85,0,3,1,3,2.66a2.79,2.79,0,0,1-2.84,2.73c0-1.47-.77-2.34-1.89-2.34a3.8,3.8,0,0,0-2.7,1.26Z"/><path class="cls-1" d="M20.91,116.83a21.54,21.54,0,0,0,8.37-1.36v15.89c0,.87.52,1.78,2.62,1.78v.21h-11v-.21c2.1,0,2.63-.91,2.63-1.78V118.9c0-1.26-.59-1.86-2.59-1.86Zm1.78-6.58c0-1.82,1.48-3,3.58-3s3.57,1.22,3.57,3-1.47,3.08-3.57,3.08S22.69,112.11,22.69,110.25Z"/><path class="cls-1" d="M33.37,133.14c2.1,0,2.62-.91,2.62-1.78V118.93c0-1.26-.59-1.85-2.59-1.85v-.21a21.36,21.36,0,0,0,8.37-1.37v15.86c0,.87.53,1.78,2.63,1.78v.21h-11Zm12.32,0c2.07,0,2.59-.91,2.59-1.78V120.44c0-2-1-3-2.76-3a3.76,3.76,0,0,0-2.67,1.09v-.21a7.18,7.18,0,0,1,5.82-2.84c3.15,0,5.39,1.47,5.39,4.94v10.92c0,.87.52,1.78,2.62,1.78v.21h-11Z"/><path class="cls-1" d="M64.66,129.19a1.79,1.79,0,0,0-2,1.75c0,1,.7,2.31,3.12,2.55v.21c-4.66-.17-7.22-1.43-7.22-3.46a2.73,2.73,0,0,1,3-2.59A3.55,3.55,0,0,1,64.66,129.19Zm1.16-13.48c-1.3.25-2.56.91-2.52,2.35.1,4.06,11.44,4.72,11.44,10.29,0,3.39-2.87,5.18-7.39,5.35v-.21c1.48-.24,3.12-.77,3.12-2.59,0-3.64-11.48-5-11.48-10.29,0-3.08,2.9-4.93,6.83-5.11Zm8.26,3.4a2.29,2.29,0,0,1-2.59,2.17,3,3,0,0,1-3-1.68A1.57,1.57,0,0,0,70.09,118c0-1-1.33-2.06-2.74-2.24v-.21C71.31,115.71,74.08,117.15,74.08,119.11Z"/><path class="cls-1" d="M85.06,128.77c0,2,.67,3,2.42,3a3.11,3.11,0,0,0,2.42-1.08v.21a5.85,5.85,0,0,1-5.43,2.83c-3.15,0-5.18-1.47-5.18-4.93v-9.84c0-1.26-.6-1.85-2.59-1.85v-.21a21.3,21.3,0,0,0,8.36-1.37ZM96.72,131c0,1,.32,1.43,1,1.43s1.12-.52,1.68-1.57h.21c-.56,1.92-2.45,2.83-4.76,2.83s-3.86-1.4-3.86-3.43V118.93c0-1.26-.59-1.85-2.48-1.85v-.21a22.65,22.65,0,0,0,8.26-1.37Z"/><path class="cls-1" d="M109.35,131.36c0,.87.53,1.78,2.63,1.78v.21H101v-.21c2.1,0,2.63-.91,2.63-1.78V118.93c0-1.26-.6-1.85-2.59-1.85v-.21a21.3,21.3,0,0,0,8.36-1.37Zm9.46-12.08a3.75,3.75,0,0,1-3.61,4,2.39,2.39,0,0,1-2-.77,2.55,2.55,0,0,0,1.37-2.38,1.86,1.86,0,0,0-2-1.89,2.41,2.41,0,0,0-2.1,1.33v-.28a4.85,4.85,0,0,1,4.55-3.78A3.55,3.55,0,0,1,118.81,119.28Z"/><path class="cls-1" d="M120.31,129.22c0-3,2.8-4.76,6.72-4.76h3.78v.21h-1.05c-2.52,0-3.71,1.65-3.71,3.82,0,1.92.56,3.39,2.21,3.39a3.84,3.84,0,0,0,2.55-1.22v.21a7.43,7.43,0,0,1-5.57,2.83C122.27,133.7,120.27,132,120.31,129.22Zm1.4-9.9c0-1.79,1.61-3.61,6.37-3.82v.21a2.56,2.56,0,0,0-2.24,2.56c0,1.26.87,2,2.27,2.13a3.93,3.93,0,0,1-3.36,1.68A2.8,2.8,0,0,1,121.71,119.32Zm10.15,10.43V119c0-1.72-.67-3.08-2.38-3.33v-.21c5.81.21,8.12,2.42,8.12,7V131c0,1,.35,1.43,1,1.43s1.12-.52,1.68-1.57h.21c-.56,1.92-2.45,2.83-4.55,2.83C133.12,133.7,131.86,132.72,131.86,129.75Z"/><path class="cls-1" d="M141.55,133.14c2.1,0,2.63-.91,2.63-1.78V118.93c0-1.26-.6-1.85-2.59-1.85v-.21A21.3,21.3,0,0,0,150,115.5v15.86c0,.87.53,1.78,2.63,1.78v.21h-11Zm12.32,0c2.07,0,2.59-.91,2.59-1.78V120.44c0-2-1-3-2.76-3a3.74,3.74,0,0,0-2.66,1.09v-.21a7.14,7.14,0,0,1,5.81-2.84c3.15,0,5.39,1.47,5.39,4.94v10.92c0,.87.53,1.78,2.63,1.78v.21h-11Z"/><path class="cls-1" d="M175.71,115.71c-2.06.25-3,2-3,8.68,0,5,2.55,7.81,5.67,7.81a7.62,7.62,0,0,0,5.11-1.86v.21c-1.82,2.31-5.15,3.15-7.42,3.15a9.15,9.15,0,0,1-9.35-9.17,9,9,0,0,1,9-9Zm7.78,3.75a3.26,3.26,0,0,1-3.51,3.36,3,3,0,0,1-3-2.21,3,3,0,0,0,1.68-2.55,2.07,2.07,0,0,0-1.51-2.31v-.25C181.7,115.5,183.49,117.46,183.49,119.46Z"/><path class="cls-1" d="M186.11,124.53a8.67,8.67,0,0,1,8.57-9v.21c-2.06.25-2.62,2-2.62,8.68,0,5,2.24,7.81,5.35,7.81a7.58,7.58,0,0,0,5.11-1.86v.21c-1.82,2.31-5.14,3.15-7.42,3.15A8.87,8.87,0,0,1,186.11,124.53Zm7.87-1.47c3.08,0,4.38-1,4.38-3.92,0-1.68-.7-3.22-2.28-3.43v-.21c4.62,0,6.86,3.29,6.86,6a10.8,10.8,0,0,1-.17,1.82H194Z"/><path class="cls-1" d="M27.56,168.19a1.79,1.79,0,0,0-2,1.75c0,1,.7,2.31,3.12,2.55v.21c-4.66-.17-7.21-1.43-7.21-3.46a2.73,2.73,0,0,1,3-2.59A3.55,3.55,0,0,1,27.56,168.19Zm1.16-13.48c-1.3.25-2.56.91-2.52,2.35.1,4.06,11.44,4.72,11.44,10.29,0,3.39-2.87,5.18-7.38,5.35v-.21c1.47-.24,3.11-.77,3.11-2.59,0-3.64-11.48-5-11.48-10.29,0-3.08,2.91-4.93,6.83-5.11Zm8.26,3.4a2.29,2.29,0,0,1-2.59,2.17,3,3,0,0,1-3-1.68A1.57,1.57,0,0,0,33,157c0-1-1.33-2.06-2.73-2.24v-.21C34.21,154.71,37,156.15,37,158.11Z"/><path class="cls-1" d="M48,177.67c0,1.27.59,1.86,2.59,1.86v.21a23.06,23.06,0,0,0-8.37,1.36V157.9c0-1.26-.59-1.86-2.59-1.86v-.21A23.06,23.06,0,0,0,48,154.47Zm13.33-14.24c0,7.31-3.85,9.27-7.17,9.27a6.54,6.54,0,0,1-5.11-2.83v-.21A4.92,4.92,0,0,0,52,170.88c1.64,0,3.39-1.15,3.39-7.45s-1.64-7.14-3.39-7.14a3.93,3.93,0,0,0-2.94,1.29v-.28a6.51,6.51,0,0,1,5.11-2.8C57.59,154.5,61.37,156.46,61.37,163.43Z"/><path class="cls-1" d="M64.45,163.53a8.67,8.67,0,0,1,8.57-9v.21c-2.06.25-2.62,2-2.62,8.68,0,5,2.24,7.81,5.36,7.81a7.62,7.62,0,0,0,5.11-1.86v.21c-1.82,2.31-5.15,3.15-7.42,3.15A8.87,8.87,0,0,1,64.45,163.53Zm7.88-1.47c3.08,0,4.37-1,4.37-3.92,0-1.68-.7-3.22-2.27-3.43v-.21c4.62,0,6.86,3.29,6.86,5.95a9.85,9.85,0,0,1-.18,1.82H72.33Z"/><path class="cls-1" d="M93.11,154.71c-2.06.25-3,2-3,8.68,0,5,2.55,7.81,5.67,7.81a7.58,7.58,0,0,0,5.11-1.86v.21c-1.82,2.31-5.15,3.15-7.42,3.15a9.15,9.15,0,0,1-9.35-9.17,9,9,0,0,1,9-9Zm7.78,3.75a3.26,3.26,0,0,1-3.5,3.36,3,3,0,0,1-3-2.21A3,3,0,0,0,96,157.06a2.07,2.07,0,0,0-1.5-2.31v-.25C99.1,154.5,100.89,156.46,100.89,158.46Z"/><path class="cls-1" d="M103,155.83a21.49,21.49,0,0,0,8.36-1.36v15.89c0,.87.53,1.78,2.63,1.78v.21h-11v-.21c2.1,0,2.63-.91,2.63-1.78V157.9c0-1.26-.6-1.86-2.59-1.86Zm1.78-6.58c0-1.82,1.47-3,3.57-3s3.57,1.22,3.57,3-1.47,3.08-3.57,3.08S104.73,151.11,104.73,149.25Z"/><path class="cls-1" d="M115.69,168.22c0-3,2.8-4.76,6.72-4.76h3.78v.21h-1c-2.52,0-3.71,1.65-3.71,3.82,0,1.92.56,3.39,2.2,3.39a3.84,3.84,0,0,0,2.56-1.22v.21a7.45,7.45,0,0,1-5.57,2.83C117.65,172.7,115.65,171,115.69,168.22Zm1.4-9.9c0-1.79,1.61-3.61,6.37-3.82v.21a2.56,2.56,0,0,0-2.24,2.56c0,1.26.87,2,2.27,2.13a3.93,3.93,0,0,1-3.36,1.68A2.8,2.8,0,0,1,117.09,158.32Zm10.15,10.43V158c0-1.72-.67-3.08-2.38-3.33v-.21c5.81.21,8.12,2.42,8.12,7V170c0,1,.35,1.43,1,1.43s1.12-.52,1.68-1.57h.21c-.56,1.92-2.45,2.83-4.55,2.83C128.5,172.7,127.24,171.72,127.24,168.75Z"/><path class="cls-1" d="M136.76,148a21.49,21.49,0,0,0,8.36-1.36v23.73c0,.87.53,1.78,2.63,1.78v.21h-11v-.21c2.1,0,2.63-.91,2.63-1.78v-20.3c0-1.26-.6-1.86-2.59-1.86Z"/><path class="cls-1" d="M149.29,155.83a21.49,21.49,0,0,0,8.36-1.36v15.89c0,.87.53,1.78,2.63,1.78v.21h-11v-.21c2.1,0,2.63-.91,2.63-1.78V157.9c0-1.26-.6-1.86-2.59-1.86Zm1.78-6.58c0-1.82,1.47-3,3.57-3s3.57,1.22,3.57,3-1.47,3.08-3.57,3.08S151.07,151.11,151.07,149.25Z"/><path class="cls-1" d="M168.47,168.19a1.79,1.79,0,0,0-2,1.75c0,1,.7,2.31,3.11,2.55v.21c-4.65-.17-7.21-1.43-7.21-3.46a2.73,2.73,0,0,1,3-2.59A3.56,3.56,0,0,1,168.47,168.19Zm1.15-13.48c-1.29.25-2.55.91-2.52,2.35.11,4.06,11.45,4.72,11.45,10.29,0,3.39-2.87,5.18-7.39,5.35v-.21c1.47-.24,3.12-.77,3.12-2.59,0-3.64-11.48-5-11.48-10.29,0-3.08,2.9-4.93,6.82-5.11Zm8.26,3.4a2.29,2.29,0,0,1-2.59,2.17,3,3,0,0,1-3-1.68,1.55,1.55,0,0,0,1.57-1.65c0-1-1.33-2.06-2.73-2.24v-.21C175.12,154.71,177.88,156.15,177.88,158.11Z"/><path class="cls-1" d="M194.44,169.66v.21a7.32,7.32,0,0,1-6,2.83c-3.15,0-5.39-1.43-5.39-4.93V156.29h-1.82l.39-.53h1.43V152a8.8,8.8,0,0,0,5.74-2v5.74h4.73l-.39.53H188.8v11.58c0,1.75.67,3.57,2.31,3.57A5.2,5.2,0,0,0,194.44,169.66Z"/></svg>