<svg id="Layer_1" data-name="Layer 1" xmlns="http://www.w3.org/2000/svg" viewBox="0 0 320 480"><defs><style>.cls-1{fill:#fff;}</style></defs><title>Artboard 1 copy</title><path class="cls-1" d="M21.19,38.83a21.54,21.54,0,0,0,8.37-1.36V53.36c0,.87.52,1.78,2.62,1.78v.21h-11v-.21c2.1,0,2.63-.91,2.63-1.78V40.9c0-1.26-.59-1.86-2.59-1.86ZM23,32.25c0-1.82,1.47-3,3.57-3s3.57,1.22,3.57,3-1.47,3.08-3.57,3.08S23,34.11,23,32.25Z"/><path class="cls-1" d="M40.37,51.19a1.79,1.79,0,0,0-2,1.75c0,1,.7,2.31,3.11,2.55v.21c-4.65-.17-7.21-1.43-7.21-3.46a2.73,2.73,0,0,1,3-2.59A3.56,3.56,0,0,1,40.37,51.19Zm1.15-13.48C40.23,38,39,38.62,39,40.06c.11,4.06,11.45,4.72,11.45,10.29,0,3.39-2.87,5.18-7.39,5.35v-.21c1.48-.24,3.12-.77,3.12-2.59,0-3.64-11.48-5-11.48-10.29,0-3.08,2.9-4.93,6.82-5.11Zm8.27,3.4a2.29,2.29,0,0,1-2.59,2.17,3,3,0,0,1-3-1.68A1.57,1.57,0,0,0,45.8,40c0-1.05-1.33-2.06-2.74-2.24V37.5C47,37.71,49.79,39.15,49.79,41.11Z"/><path class="cls-1" d="M62.28,46.53a8.67,8.67,0,0,1,8.58-9v.21c-2.07.25-2.63,2-2.63,8.68,0,5,2.24,7.81,5.36,7.81a7.62,7.62,0,0,0,5.11-1.86v.21c-1.82,2.31-5.15,3.15-7.42,3.15A8.87,8.87,0,0,1,62.28,46.53Zm7.88-1.47c3.08,0,4.37-1,4.37-3.92,0-1.68-.7-3.22-2.27-3.43V37.5c4.62,0,6.86,3.29,6.86,6a9.85,9.85,0,0,1-.18,1.82H70.16Z"/><path class="cls-1" d="M81.63,51.22c0-3,2.8-4.76,6.72-4.76h3.78v.21h-1a3.47,3.47,0,0,0-3.72,3.82c0,1.92.56,3.39,2.21,3.39a3.82,3.82,0,0,0,2.55-1.22v.21a7.43,7.43,0,0,1-5.56,2.83C83.59,55.7,81.6,54,81.63,51.22Zm1.4-9.9c0-1.79,1.61-3.61,6.37-3.82v.21a2.56,2.56,0,0,0-2.24,2.56c0,1.26.88,2,2.28,2.13a3.94,3.94,0,0,1-3.36,1.68A2.8,2.8,0,0,1,83,41.32ZM93.19,51.75V41c0-1.72-.67-3.08-2.39-3.33V37.5c5.82.21,8.13,2.42,8.13,7V53c0,1,.35,1.43,1,1.43s1.12-.52,1.68-1.57h.21c-.56,1.92-2.45,2.83-4.55,2.83C94.45,55.7,93.19,54.72,93.19,51.75Z"/><path class="cls-1" d="M109.6,51.19a1.79,1.79,0,0,0-2,1.75c0,1,.7,2.31,3.11,2.55v.21c-4.65-.17-7.21-1.43-7.21-3.46a2.73,2.73,0,0,1,3-2.59A3.56,3.56,0,0,1,109.6,51.19Zm1.15-13.48c-1.29.25-2.55.91-2.52,2.35.11,4.06,11.45,4.72,11.45,10.29,0,3.39-2.87,5.18-7.39,5.35v-.21c1.47-.24,3.12-.77,3.12-2.59,0-3.64-11.48-5-11.48-10.29,0-3.08,2.9-4.93,6.82-5.11Zm8.26,3.4a2.29,2.29,0,0,1-2.59,2.17,3,3,0,0,1-3-1.68A1.55,1.55,0,0,0,115,40c0-1.05-1.33-2.06-2.73-2.24V37.5C116.25,37.71,119,39.15,119,41.11Z"/><path class="cls-1" d="M122.62,39.29a1.89,1.89,0,0,0-1.93-1.23v-.21h9.8v.21c-1.22,0-1.71.84-1.12,2.07L134,49.68l-3,5.67h-.21ZM121.08,61c0-1.51,1.19-2.77,3.08-3.29a2.51,2.51,0,0,0-.14.87,2,2,0,0,0,2.06,2.35c1.23,0,2.21-1.3,3.54-3.54h.24c-1.92,3.61-3.25,6.72-5.7,6.72A2.91,2.91,0,0,1,121.08,61Zm14.35-14.74a9.64,9.64,0,0,0,1-4.51,3.39,3.39,0,0,0-3.57-3.68v-.21h8.72v.21c-1.16,0-1.61.46-2.28,1.65l-3.64,6.86Z"/><path class="cls-1" d="M28.68,79.13l4.59,9.55-3,5.67h-.21L21.92,78.29A1.88,1.88,0,0,0,20,77.06v-.21h9.8v.21C28.58,77.06,28.09,77.9,28.68,79.13Zm11.52,0,4.58,9.55-3,5.67h-.21L36.07,83.47,35,85.57l-.21-.32A5.24,5.24,0,0,0,35,81.37l-1.58-3.08a1.89,1.89,0,0,0-1.92-1.23v-.21h9.8v.21C40.09,77.06,39.6,77.9,40.2,79.13Zm12.18-2.28v.21c-1.16,0-1.65.46-2.28,1.65l-3.64,6.86-.21-.32a9.51,9.51,0,0,0,1-4.51,3.38,3.38,0,0,0-3.57-3.68v-.21Z"/><path class="cls-1" d="M52.69,77.83a21.54,21.54,0,0,0,8.37-1.36V92.36c0,.87.52,1.78,2.62,1.78v.21h-11v-.21c2.1,0,2.63-.91,2.63-1.78V79.9c0-1.26-.59-1.86-2.59-1.86Zm1.79-6.58c0-1.82,1.47-3,3.57-3s3.57,1.22,3.57,3-1.47,3.08-3.57,3.08S54.48,73.11,54.48,71.25Z"/><path class="cls-1" d="M78.73,91.66v.21a7.32,7.32,0,0,1-6,2.83c-3.16,0-5.4-1.43-5.4-4.93V78.29H65.53l.39-.53h1.43V74a8.84,8.84,0,0,0,5.75-2v5.74h4.72l-.38.53H73.1V89.87c0,1.75.66,3.57,2.31,3.57A5.15,5.15,0,0,0,78.73,91.66Z"/><path class="cls-1" d="M87.76,92.36c0,.87.52,1.78,2.62,1.78v.21h-11v-.21c2.1,0,2.62-.91,2.62-1.78V72.06c0-1.26-.59-1.86-2.59-1.86V70a21.54,21.54,0,0,0,8.37-1.36ZM100,81.44V92.36c0,.87.53,1.78,2.63,1.78v.21h-11v-.21c2.06,0,2.59-.91,2.59-1.78V81.44c0-2-1-3-2.77-3a3.74,3.74,0,0,0-2.66,1.09v-.21a7.14,7.14,0,0,1,5.81-2.84C97.77,76.5,100,78,100,81.44Z"/><path class="cls-1" d="M122.34,94.49v.21A13.24,13.24,0,0,1,115.55,93l-1.16,1.71h-.28V86.16h.28A11.73,11.73,0,0,0,122.34,94.49Zm10.29-7c0,4.51-3.36,7-8.79,7.17v-.21c1.93-.35,3.82-1.47,3.82-3.57,0-6.12-13.37-6.68-13.37-13.79,0-4.2,3.39-6.61,8-6.93v.21a3.31,3.31,0,0,0-3.08,3.22C119.26,79.76,132.63,80.42,132.63,87.53Zm-8.79-17.12V70.2a11.31,11.31,0,0,1,6.31,1.86l1.26-1.86h.28V78h-.28A11.15,11.15,0,0,0,123.84,70.41Z"/><path class="cls-1" d="M148.59,91.66v.21a7.32,7.32,0,0,1-6,2.83c-3.15,0-5.39-1.43-5.39-4.93V78.29h-1.82l.39-.53h1.43V74A8.8,8.8,0,0,0,143,72v5.74h4.73l-.39.53H143V89.87c0,1.75.67,3.57,2.31,3.57A5.2,5.2,0,0,0,148.59,91.66Z"/><path class="cls-1" d="M149.71,90.22c0-3,2.8-4.76,6.72-4.76h3.78v.21h-1.05c-2.52,0-3.71,1.65-3.71,3.82,0,1.92.56,3.39,2.2,3.39a3.84,3.84,0,0,0,2.56-1.22v.21a7.45,7.45,0,0,1-5.57,2.83C151.67,94.7,149.67,93,149.71,90.22Zm1.4-9.9c0-1.79,1.61-3.61,6.37-3.82v.21a2.56,2.56,0,0,0-2.24,2.56c0,1.26.87,2,2.27,2.13a3.93,3.93,0,0,1-3.36,1.68A2.8,2.8,0,0,1,151.11,80.32Zm10.15,10.43V80c0-1.72-.67-3.08-2.38-3.33V76.5c5.81.21,8.12,2.42,8.12,7V92c0,1,.35,1.43,1,1.43s1.12-.52,1.68-1.57h.21c-.56,1.92-2.45,2.83-4.55,2.83C162.52,94.7,161.26,93.72,161.26,90.75Z"/><path class="cls-1" d="M179.35,92.36c0,.87.53,1.78,2.63,1.78v.21H171v-.21c2.1,0,2.63-.91,2.63-1.78V79.93c0-1.26-.6-1.85-2.59-1.85v-.21a21.3,21.3,0,0,0,8.36-1.37Zm9.45-12.08a3.74,3.74,0,0,1-3.6,4,2.39,2.39,0,0,1-2-.77,2.55,2.55,0,0,0,1.37-2.38,1.86,1.86,0,0,0-2-1.89,2.41,2.41,0,0,0-2.1,1.33v-.28a4.84,4.84,0,0,1,4.55-3.78A3.55,3.55,0,0,1,188.8,80.28Z"/><path class="cls-1" d="M21.79,133.14c2.1,0,2.62-.84,2.62-1.78V111.55c0-1-.52-1.79-2.62-1.79v-.21H33v.21c-2.1,0-2.63.84-2.63,1.79v19.81c0,.94.53,1.78,2.63,1.78v.21H21.79Z"/><path class="cls-1" d="M35.33,133.14c2.1,0,2.62-.91,2.62-1.78V118.93c0-1.26-.59-1.85-2.59-1.85v-.21a21.32,21.32,0,0,0,8.37-1.37v15.86c0,.87.53,1.78,2.63,1.78v.21h-11Zm12.32,0c2.07,0,2.59-.91,2.59-1.78V120.44c0-2-1-3-2.76-3a3.74,3.74,0,0,0-2.66,1.09v-.21a7.14,7.14,0,0,1,5.81-2.84c3.15,0,5.39,1.47,5.39,4.94v10.92c0,.87.52,1.78,2.62,1.78v.21h-11Z"/><path class="cls-1" d="M66.62,129.19a1.79,1.79,0,0,0-2,1.75c0,1,.7,2.31,3.11,2.55v.21c-4.65-.17-7.21-1.43-7.21-3.46a2.73,2.73,0,0,1,3-2.59A3.56,3.56,0,0,1,66.62,129.19Zm1.15-13.48c-1.29.25-2.55.91-2.52,2.35.11,4.06,11.45,4.72,11.45,10.29,0,3.39-2.87,5.18-7.39,5.35v-.21c1.48-.24,3.12-.77,3.12-2.59,0-3.64-11.48-5-11.48-10.29,0-3.08,2.9-4.93,6.82-5.11Zm8.27,3.4a2.29,2.29,0,0,1-2.59,2.17,3,3,0,0,1-3-1.68A1.57,1.57,0,0,0,72.05,118c0-1-1.33-2.06-2.74-2.24v-.21C73.27,115.71,76,117.15,76,119.11Z"/><path class="cls-1" d="M87,128.77c0,2,.67,3,2.42,3a3.11,3.11,0,0,0,2.42-1.08v.21a5.85,5.85,0,0,1-5.43,2.83c-3.15,0-5.18-1.47-5.18-4.93v-9.84c0-1.26-.6-1.85-2.59-1.85v-.21A21.3,21.3,0,0,0,87,115.5ZM98.68,131c0,1,.32,1.43.95,1.43s1.12-.52,1.68-1.57h.21c-.56,1.92-2.45,2.83-4.76,2.83s-3.85-1.4-3.85-3.43V118.93c0-1.26-.6-1.85-2.49-1.85v-.21a22.65,22.65,0,0,0,8.26-1.37Z"/><path class="cls-1" d="M111.31,131.36c0,.87.53,1.78,2.63,1.78v.21h-11v-.21c2.1,0,2.63-.91,2.63-1.78V118.93c0-1.26-.6-1.85-2.59-1.85v-.21a21.3,21.3,0,0,0,8.36-1.37Zm9.46-12.08a3.75,3.75,0,0,1-3.61,4,2.37,2.37,0,0,1-2-.77,2.56,2.56,0,0,0,1.36-2.38,1.86,1.86,0,0,0-2-1.89,2.41,2.41,0,0,0-2.1,1.33v-.28A4.84,4.84,0,0,1,117,115.5,3.55,3.55,0,0,1,120.77,119.28Z"/><path class="cls-1" d="M122.27,129.22c0-3,2.8-4.76,6.72-4.76h3.78v.21h-1.05c-2.52,0-3.71,1.65-3.71,3.82,0,1.92.56,3.39,2.2,3.39a3.84,3.84,0,0,0,2.56-1.22v.21a7.43,7.43,0,0,1-5.57,2.83C124.23,133.7,122.23,132,122.27,129.22Zm1.4-9.9c0-1.79,1.61-3.61,6.37-3.82v.21a2.56,2.56,0,0,0-2.24,2.56c0,1.26.87,2,2.27,2.13a3.93,3.93,0,0,1-3.36,1.68A2.8,2.8,0,0,1,123.67,119.32Zm10.15,10.43V119c0-1.72-.66-3.08-2.38-3.33v-.21c5.81.21,8.12,2.42,8.12,7V131c0,1,.35,1.43,1,1.43s1.12-.52,1.68-1.57h.21c-.56,1.92-2.45,2.83-4.55,2.83C135.08,133.7,133.82,132.72,133.82,129.75Z"/><path class="cls-1" d="M143.51,133.14c2.1,0,2.63-.91,2.63-1.78V118.93c0-1.26-.6-1.85-2.59-1.85v-.21a21.3,21.3,0,0,0,8.36-1.37v15.86c0,.87.53,1.78,2.63,1.78v.21h-11Zm12.32,0c2.07,0,2.59-.91,2.59-1.78V120.44c0-2-1-3-2.76-3a3.74,3.74,0,0,0-2.66,1.09v-.21a7.14,7.14,0,0,1,5.81-2.84c3.15,0,5.39,1.47,5.39,4.94v10.92c0,.87.53,1.78,2.63,1.78v.21h-11Z"/><path class="cls-1" d="M177.67,115.71c-2.06.25-3,2-3,8.68,0,5,2.55,7.81,5.67,7.81a7.6,7.6,0,0,0,5.11-1.86v.21c-1.82,2.31-5.15,3.15-7.42,3.15a9.15,9.15,0,0,1-9.35-9.17,9,9,0,0,1,9-9Zm7.77,3.75a3.25,3.25,0,0,1-3.5,3.36,3,3,0,0,1-3-2.21,3,3,0,0,0,1.68-2.55,2.07,2.07,0,0,0-1.51-2.31v-.25C183.66,115.5,185.44,117.46,185.44,119.46Z"/><path class="cls-1" d="M188.07,124.53a8.67,8.67,0,0,1,8.57-9v.21c-2.06.25-2.62,2-2.62,8.68,0,5,2.24,7.81,5.35,7.81a7.58,7.58,0,0,0,5.11-1.86v.21c-1.82,2.31-5.14,3.15-7.42,3.15A8.87,8.87,0,0,1,188.07,124.53Zm7.87-1.47c3.08,0,4.38-1,4.38-3.92,0-1.68-.7-3.22-2.28-3.43v-.21c4.62,0,6.86,3.29,6.86,6a10.8,10.8,0,0,1-.17,1.82h-8.79Z"/><path class="cls-1" d="M21.79,172.35v-.21c2.1,0,2.62-.8,2.62-1.78V150.58c0-1-.52-1.82-2.62-1.82v-.21h8.57v23.8Zm19.56-23.8V155h-.28c-1.5-4.41-3.64-5.92-9-6.27v-.21Zm-9.24,11.59v-.21l1.93-.18a5.38,5.38,0,0,0,4.62-3h.28v6.51h-.28A5.35,5.35,0,0,0,34,160.31Zm0,12c5.32-.35,7.81-1.85,9.7-6.26h.28v6.47h-10Z"/><path class="cls-1" d="M44.67,172.14c2.1,0,2.63-.91,2.63-1.78V157.93c0-1.26-.6-1.85-2.59-1.85v-.21a21.39,21.39,0,0,0,8.37-1.37v15.86c0,.87.52,1.78,2.62,1.78v.21h-11Zm12.33,0c2.06,0,2.59-.91,2.59-1.78V159.44c0-2-1-3-2.77-3a3.74,3.74,0,0,0-2.66,1.09v-.21A7.16,7.16,0,0,1,60,154.5c3.15,0,5.39,1.47,5.39,4.94v10.92c0,.87.53,1.78,2.63,1.78v.21H57Z"/><path class="cls-1" d="M82.83,169.66v.21a7.32,7.32,0,0,1-6,2.83c-3.15,0-5.39-1.43-5.39-4.93V156.29H69.63l.38-.53h1.44V152a8.8,8.8,0,0,0,5.74-2v5.74h4.73l-.39.53H77.19v11.58c0,1.75.67,3.57,2.31,3.57A5.2,5.2,0,0,0,82.83,169.66Z"/><path class="cls-1" d="M91.85,170.36c0,.87.53,1.78,2.63,1.78v.21h-11v-.21c2.1,0,2.63-.91,2.63-1.78v-20.3c0-1.26-.6-1.86-2.59-1.86V148a21.49,21.49,0,0,0,8.36-1.36Zm12.26-10.92v10.92c0,.87.52,1.78,2.62,1.78v.21h-11v-.21c2.07,0,2.59-.91,2.59-1.78V159.44c0-2-1-3-2.77-3a3.75,3.75,0,0,0-2.66,1.09v-.21a7.18,7.18,0,0,1,5.82-2.84C101.87,154.5,104.11,156,104.11,159.44Z"/><path class="cls-1" d="M116,167.77c0,2,.67,3,2.42,3a3.13,3.13,0,0,0,2.42-1.08v.21a5.86,5.86,0,0,1-5.43,2.83c-3.15,0-5.18-1.47-5.18-4.93v-9.84c0-1.26-.6-1.85-2.59-1.85v-.21A21.3,21.3,0,0,0,116,154.5ZM127.66,170c0,1,.32,1.43,1,1.43s1.12-.52,1.68-1.57h.21c-.56,1.92-2.45,2.83-4.76,2.83s-3.86-1.4-3.86-3.43V157.93c0-1.26-.59-1.85-2.48-1.85v-.21a22.65,22.65,0,0,0,8.26-1.37Z"/><path class="cls-1" d="M138.61,168.19a1.79,1.79,0,0,0-2,1.75c0,1,.7,2.31,3.12,2.55v.21c-4.66-.17-7.21-1.43-7.21-3.46a2.73,2.73,0,0,1,3-2.59A3.55,3.55,0,0,1,138.61,168.19Zm1.16-13.48c-1.3.25-2.56.91-2.52,2.35.1,4.06,11.45,4.72,11.45,10.29,0,3.39-2.87,5.18-7.39,5.35v-.21c1.47-.24,3.12-.77,3.12-2.59,0-3.64-11.49-5-11.49-10.29,0-3.08,2.91-4.93,6.83-5.11Zm8.26,3.4a2.29,2.29,0,0,1-2.59,2.17,3,3,0,0,1-3-1.68A1.56,1.56,0,0,0,144,157c0-1-1.33-2.06-2.73-2.24v-.21C145.27,154.71,148,156.15,148,158.11Z"/><path class="cls-1" d="M151.07,155.83a21.54,21.54,0,0,0,8.37-1.36v15.89c0,.87.52,1.78,2.62,1.78v.21H151v-.21c2.1,0,2.62-.91,2.62-1.78V157.9c0-1.26-.59-1.86-2.59-1.86Zm1.79-6.58c0-1.82,1.47-3,3.57-3s3.57,1.22,3.57,3-1.47,3.08-3.57,3.08S152.86,151.11,152.86,149.25Z"/><path class="cls-1" d="M163.81,168.22c0-3,2.8-4.76,6.72-4.76h3.78v.21h-1.05c-2.52,0-3.71,1.65-3.71,3.82,0,1.92.56,3.39,2.21,3.39a3.82,3.82,0,0,0,2.55-1.22v.21a7.43,7.43,0,0,1-5.56,2.83C165.77,172.7,163.78,171,163.81,168.22Zm1.4-9.9c0-1.79,1.61-3.61,6.37-3.82v.21a2.56,2.56,0,0,0-2.24,2.56c0,1.26.88,2,2.28,2.13a3.94,3.94,0,0,1-3.36,1.68A2.8,2.8,0,0,1,165.21,158.32Zm10.15,10.43V158c0-1.72-.66-3.08-2.38-3.33v-.21c5.81.21,8.13,2.42,8.13,7V170c0,1,.34,1.43,1,1.43s1.12-.52,1.68-1.57H184c-.56,1.92-2.46,2.83-4.56,2.83C176.62,172.7,175.36,171.72,175.36,168.75Z"/><path class="cls-1" d="M191.78,168.19a1.79,1.79,0,0,0-2,1.75c0,1,.7,2.31,3.11,2.55v.21c-4.65-.17-7.21-1.43-7.21-3.46a2.73,2.73,0,0,1,3-2.59A3.56,3.56,0,0,1,191.78,168.19Zm1.15-13.48c-1.29.25-2.55.91-2.52,2.35.11,4.06,11.45,4.72,11.45,10.29,0,3.39-2.87,5.18-7.39,5.35v-.21c1.47-.24,3.12-.77,3.12-2.59,0-3.64-11.48-5-11.48-10.29,0-3.08,2.9-4.93,6.82-5.11Zm8.26,3.4a2.29,2.29,0,0,1-2.59,2.17,3,3,0,0,1-3-1.68A1.55,1.55,0,0,0,197.2,157c0-1-1.33-2.06-2.73-2.24v-.21C198.43,154.71,201.19,156.15,201.19,158.11Z"/><path class="cls-1" d="M217.75,169.66v.21a7.32,7.32,0,0,1-6,2.83c-3.15,0-5.39-1.43-5.39-4.93V156.29h-1.82l.39-.53h1.43V152a8.8,8.8,0,0,0,5.74-2v5.74h4.73l-.39.53h-4.34v11.58c0,1.75.67,3.57,2.31,3.57A5.2,5.2,0,0,0,217.75,169.66Z"/></svg>