<svg id="Layer_1" data-name="Layer 1" xmlns="http://www.w3.org/2000/svg" viewBox="0 0 320 480"><defs><style>.cls-1{fill:none;}.cls-2{fill:#fff;}</style></defs><title>Artboard 1</title><rect class="cls-1" x="0.62" width="320" height="480"/><path class="cls-2" d="M43.07,90.19l.14.28a9.62,9.62,0,0,1-8.44,4.23C29.07,94.7,22,90.64,22,82.49c0-8.86,6.93-12.15,12-12.29v.21c-2.45.53-5.11,2.84-5.11,11.83S32.43,93.3,36.38,93.3A8.61,8.61,0,0,0,43.07,90.19Zm.28-20v8.51h-.28c-1.37-4.66-4-7.35-7.39-8.3V70.2c3,.14,4.9.67,6.34,1.61l1-1.61Z"/><path class="cls-2" d="M53.91,92.36c0,.87.53,1.78,2.63,1.78v.21h-11v-.21c2.1,0,2.63-.91,2.63-1.78V72.06c0-1.26-.6-1.86-2.59-1.86V70a21.49,21.49,0,0,0,8.36-1.36ZM66.17,81.44V92.36c0,.87.52,1.78,2.62,1.78v.21h-11v-.21c2.07,0,2.59-.91,2.59-1.78V81.44c0-2-1-3-2.76-3A3.74,3.74,0,0,0,55,79.55v-.21a7.14,7.14,0,0,1,5.81-2.84C63.93,76.5,66.17,78,66.17,81.44Z"/><path class="cls-2" d="M70.33,90.22c0-3,2.8-4.76,6.72-4.76h3.78v.21h-1c-2.52,0-3.71,1.65-3.71,3.82,0,1.92.56,3.39,2.2,3.39a3.84,3.84,0,0,0,2.56-1.22v.21a7.45,7.45,0,0,1-5.57,2.83C72.29,94.7,70.29,93,70.33,90.22Zm1.4-9.9c0-1.79,1.61-3.61,6.37-3.82v.21a2.56,2.56,0,0,0-2.24,2.56c0,1.26.87,2,2.27,2.13a3.93,3.93,0,0,1-3.36,1.68A2.8,2.8,0,0,1,71.73,80.32ZM81.88,90.75V80c0-1.72-.66-3.08-2.38-3.33V76.5c5.81.21,8.12,2.42,8.12,7V92c0,1,.35,1.43,1,1.43s1.12-.52,1.68-1.57h.21c-.56,1.92-2.45,2.83-4.55,2.83C83.14,94.7,81.88,93.72,81.88,90.75Z"/><path class="cls-2" d="M91.57,94.14c2.1,0,2.63-.91,2.63-1.78V79.93c0-1.26-.6-1.85-2.59-1.85v-.21A21.3,21.3,0,0,0,100,76.5V92.36c0,.87.53,1.78,2.63,1.78v.21h-11Zm12.32,0c2.07,0,2.6-.91,2.6-1.78V81.44c0-2-1-3-2.77-3a3.74,3.74,0,0,0-2.66,1.09v-.21a7.14,7.14,0,0,1,5.81-2.84c3.15,0,5.39,1.47,5.39,4.94V92.36c0,.87.53,1.78,2.63,1.78v.21h-11Z"/><path class="cls-2" d="M117,82.84c0-4.55,4.27-6.27,7.84-6.34v.21c-1.51.14-2.21,2-2.21,6,0,4.24.7,6,2.21,6.09V89C121.25,89,117,87.35,117,82.84Zm9.31,20.06c3.5-.42,4.62-2.32,4.62-3.58,0-4.86-13.65-.52-13.65-6.79,0-1.43.73-2.55,2.34-3.57l.11.18a.81.81,0,0,0-.32.66c0,3.92,16-.63,16,7,0,3.61-3.12,6-9.07,6.3Zm-9-3c0-2.06,2.55-2.69,5.32-2.69A2.94,2.94,0,0,0,121,99.74c0,1.61,1.82,2.84,3.82,3.16v.2C121.11,103,117.23,102.27,117.23,100Zm9-11.13c1.71-.14,2.41-1.85,2.41-6.09,0-4.06-.73-5.88-2.41-6V76.5c3.71.07,8,1.79,8,6.34S130,89,126.26,89Zm1.89-12.95c.59-1.78,2.21-4.2,4.62-4.2,1.86,0,3,1,3,2.66a2.79,2.79,0,0,1-2.84,2.73c0-1.47-.77-2.34-1.89-2.34A3.78,3.78,0,0,0,128.33,76Z"/><path class="cls-2" d="M136.76,77.83a21.49,21.49,0,0,0,8.36-1.36V92.36c0,.87.53,1.78,2.63,1.78v.21h-11v-.21c2.1,0,2.63-.91,2.63-1.78V79.9c0-1.26-.6-1.86-2.59-1.86Zm1.78-6.58c0-1.82,1.47-3,3.57-3s3.57,1.22,3.57,3-1.47,3.08-3.57,3.08S138.54,73.11,138.54,71.25Z"/><path class="cls-2" d="M149.22,94.14c2.1,0,2.62-.91,2.62-1.78V79.93c0-1.26-.59-1.85-2.59-1.85v-.21a21.36,21.36,0,0,0,8.37-1.37V92.36c0,.87.52,1.78,2.62,1.78v.21h-11Zm12.32,0c2.06,0,2.59-.91,2.59-1.78V81.44c0-2-1-3-2.77-3a3.74,3.74,0,0,0-2.66,1.09v-.21a7.16,7.16,0,0,1,5.81-2.84c3.15,0,5.4,1.47,5.4,4.94V92.36c0,.87.52,1.78,2.62,1.78v.21h-11Z"/><path class="cls-2" d="M174.59,82.84c0-4.55,4.27-6.27,7.84-6.34v.21c-1.5.14-2.2,2-2.2,6,0,4.24.7,6,2.2,6.09V89C178.9,89,174.59,87.35,174.59,82.84Zm9.31,20.06c3.5-.42,4.62-2.32,4.62-3.58,0-4.86-13.65-.52-13.65-6.79,0-1.43.74-2.55,2.35-3.57l.1.18a.81.81,0,0,0-.31.66c0,3.92,16-.63,16,7,0,3.61-3.12,6-9.07,6.3Zm-9-3c0-2.06,2.56-2.69,5.32-2.69a2.93,2.93,0,0,0-1.5,2.48c0,1.61,1.82,2.84,3.81,3.16v.2C178.76,103,174.87,102.27,174.87,100Zm9-11.13c1.72-.14,2.42-1.85,2.42-6.09,0-4.06-.74-5.88-2.42-6V76.5c3.71.07,8,1.79,8,6.34s-4.31,6.19-8,6.19Zm1.89-12.95c.6-1.78,2.21-4.2,4.62-4.2,1.86,0,3,1,3,2.66a2.79,2.79,0,0,1-2.84,2.73c0-1.47-.77-2.34-1.89-2.34A3.78,3.78,0,0,0,186,76Z"/><path class="cls-2" d="M21.92,117.29A1.88,1.88,0,0,0,20,116.06v-.21h9.8v.21c-1.22,0-1.71.84-1.12,2.07l4.59,9.55-3,5.67h-.21Zm12.82,7a9.64,9.64,0,0,0,1-4.51,3.39,3.39,0,0,0-3.57-3.68v-.21h8.71v.21c-1.15,0-1.61.46-2.27,1.65L35,124.57Z"/><path class="cls-2" d="M41.14,124.53a8.67,8.67,0,0,1,8.58-9v.21c-2.07.25-2.63,2-2.63,8.68,0,5,2.24,7.81,5.36,7.81a7.62,7.62,0,0,0,5.11-1.86v.21c-1.82,2.31-5.15,3.15-7.42,3.15A8.87,8.87,0,0,1,41.14,124.53ZM49,123.06c3.08,0,4.37-1,4.37-3.92,0-1.68-.7-3.22-2.27-3.43v-.21c4.62,0,6.86,3.29,6.86,6a9.85,9.85,0,0,1-.18,1.82H49Z"/><path class="cls-2" d="M68.41,131.36c0,.87.52,1.78,2.62,1.78v.21H60v-.21c2.1,0,2.63-.91,2.63-1.78v-20.3c0-1.26-.6-1.86-2.59-1.86V109a21.58,21.58,0,0,0,8.37-1.36Zm12.25-10.92v10.92c0,.87.52,1.78,2.62,1.78v.21h-11v-.21c2.07,0,2.59-.91,2.59-1.78V120.44c0-2-1-3-2.76-3a3.74,3.74,0,0,0-2.66,1.09v-.21a7.14,7.14,0,0,1,5.81-2.84C78.42,115.5,80.66,117,80.66,120.44Z"/><path class="cls-2" d="M84.61,116.83A21.49,21.49,0,0,0,93,115.47v15.89c0,.87.53,1.78,2.63,1.78v.21h-11v-.21c2.1,0,2.63-.91,2.63-1.78V118.9c0-1.26-.6-1.86-2.59-1.86Zm1.78-6.58c0-1.82,1.47-3,3.57-3s3.57,1.22,3.57,3-1.46,3.08-3.57,3.08S86.39,112.11,86.39,110.25Z"/><path class="cls-2" d="M106.66,115.71c-2.07.25-3,2-3,8.68,0,5,2.56,7.81,5.68,7.81a7.62,7.62,0,0,0,5.11-1.86v.21c-1.82,2.31-5.15,3.15-7.43,3.15a9.15,9.15,0,0,1-9.34-9.17,9,9,0,0,1,9-9Zm7.77,3.75a3.26,3.26,0,0,1-3.5,3.36,3,3,0,0,1-3.05-2.21,3,3,0,0,0,1.69-2.55,2.07,2.07,0,0,0-1.51-2.31v-.25C112.65,115.5,114.43,117.46,114.43,119.46Z"/><path class="cls-2" d="M116.25,109a21.49,21.49,0,0,0,8.36-1.36v23.73c0,.87.53,1.78,2.63,1.78v.21h-11v-.21c2.1,0,2.63-.91,2.63-1.78v-20.3c0-1.26-.6-1.86-2.59-1.86Z"/><path class="cls-2" d="M129.34,124.53a8.67,8.67,0,0,1,8.57-9v.21c-2.06.25-2.62,2-2.62,8.68,0,5,2.24,7.81,5.35,7.81a7.62,7.62,0,0,0,5.12-1.86v.21c-1.83,2.31-5.15,3.15-7.43,3.15A8.87,8.87,0,0,1,129.34,124.53Zm7.87-1.47c3.08,0,4.38-1,4.38-3.92,0-1.68-.7-3.22-2.28-3.43v-.21c4.62,0,6.87,3.29,6.87,6a9.85,9.85,0,0,1-.18,1.82h-8.79Z"/><path class="cls-2" d="M21.19,155.83a21.54,21.54,0,0,0,8.37-1.36v15.89c0,.87.52,1.78,2.62,1.78v.21h-11v-.21c2.1,0,2.63-.91,2.63-1.78V157.9c0-1.26-.6-1.86-2.59-1.86ZM23,149.25c0-1.82,1.48-3,3.58-3s3.57,1.22,3.57,3-1.47,3.08-3.57,3.08S23,151.11,23,149.25Z"/><path class="cls-2" d="M33.65,172.14c2.1,0,2.62-.91,2.62-1.78V157.93c0-1.26-.59-1.85-2.59-1.85v-.21a21.36,21.36,0,0,0,8.37-1.37v15.86c0,.87.53,1.78,2.63,1.78v.21h-11Zm12.32,0c2.07,0,2.59-.91,2.59-1.78V159.44c0-2-1-3-2.76-3a3.74,3.74,0,0,0-2.66,1.09v-.21A7.14,7.14,0,0,1,49,154.5c3.15,0,5.39,1.47,5.39,4.94v10.92c0,.87.52,1.78,2.62,1.78v.21H46Z"/><path class="cls-2" d="M64.94,168.19a1.79,1.79,0,0,0-2,1.75c0,1,.7,2.31,3.11,2.55v.21c-4.65-.17-7.21-1.43-7.21-3.46a2.73,2.73,0,0,1,3-2.59A3.56,3.56,0,0,1,64.94,168.19Zm1.15-13.48c-1.29.25-2.55.91-2.52,2.35.11,4.06,11.45,4.72,11.45,10.29,0,3.39-2.87,5.18-7.38,5.35v-.21c1.47-.24,3.11-.77,3.11-2.59,0-3.64-11.48-5-11.48-10.29,0-3.08,2.9-4.93,6.82-5.11Zm8.27,3.4a2.29,2.29,0,0,1-2.59,2.17,3,3,0,0,1-3-1.68A1.57,1.57,0,0,0,70.37,157c0-1-1.34-2.06-2.73-2.24v-.21C71.59,154.71,74.36,156.15,74.36,158.11Z"/><path class="cls-2" d="M85.34,167.77c0,2,.67,3,2.42,3a3.11,3.11,0,0,0,2.42-1.08v.21a5.86,5.86,0,0,1-5.43,2.83c-3.15,0-5.18-1.47-5.18-4.93v-9.84c0-1.26-.6-1.85-2.59-1.85v-.21a21.3,21.3,0,0,0,8.36-1.37ZM97,170c0,1,.32,1.43,1,1.43s1.12-.52,1.68-1.57h.21c-.56,1.92-2.45,2.83-4.76,2.83s-3.85-1.4-3.85-3.43V157.93c0-1.26-.6-1.85-2.49-1.85v-.21A22.65,22.65,0,0,0,97,154.5Z"/><path class="cls-2" d="M109.63,170.36c0,.87.53,1.78,2.63,1.78v.21h-11v-.21c2.1,0,2.63-.91,2.63-1.78V157.93c0-1.26-.6-1.85-2.59-1.85v-.21a21.3,21.3,0,0,0,8.36-1.37Zm9.46-12.08a3.75,3.75,0,0,1-3.61,4,2.37,2.37,0,0,1-2-.77,2.56,2.56,0,0,0,1.36-2.38,1.86,1.86,0,0,0-2-1.89,2.41,2.41,0,0,0-2.1,1.33v-.28a4.84,4.84,0,0,1,4.55-3.78A3.55,3.55,0,0,1,119.09,158.28Z"/><path class="cls-2" d="M120.59,168.22c0-3,2.8-4.76,6.72-4.76h3.78v.21H130c-2.52,0-3.71,1.65-3.71,3.82,0,1.92.56,3.39,2.2,3.39a3.84,3.84,0,0,0,2.56-1.22v.21a7.45,7.45,0,0,1-5.57,2.83C122.55,172.7,120.55,171,120.59,168.22Zm1.4-9.9c0-1.79,1.61-3.61,6.37-3.82v.21a2.56,2.56,0,0,0-2.24,2.56c0,1.26.87,2,2.27,2.13a3.93,3.93,0,0,1-3.36,1.68A2.8,2.8,0,0,1,122,158.32Zm10.15,10.43V158c0-1.72-.67-3.08-2.38-3.33v-.21c5.81.21,8.12,2.42,8.12,7V170c0,1,.35,1.43,1,1.43s1.12-.52,1.68-1.57h.21c-.56,1.92-2.45,2.83-4.55,2.83C133.4,172.7,132.14,171.72,132.14,168.75Z"/><path class="cls-2" d="M141.83,172.14c2.1,0,2.63-.91,2.63-1.78V157.93c0-1.26-.6-1.85-2.59-1.85v-.21a21.3,21.3,0,0,0,8.36-1.37v15.86c0,.87.53,1.78,2.63,1.78v.21h-11Zm12.32,0c2.07,0,2.59-.91,2.59-1.78V159.44c0-2-1-3-2.76-3a3.74,3.74,0,0,0-2.66,1.09v-.21a7.14,7.14,0,0,1,5.81-2.84c3.15,0,5.39,1.47,5.39,4.94v10.92c0,.87.53,1.78,2.63,1.78v.21h-11Z"/><path class="cls-2" d="M176,154.71c-2.06.25-3,2-3,8.68,0,5,2.55,7.81,5.67,7.81a7.6,7.6,0,0,0,5.11-1.86v.21c-1.82,2.31-5.15,3.15-7.42,3.15a9.15,9.15,0,0,1-9.35-9.17,9,9,0,0,1,9-9Zm7.77,3.75a3.26,3.26,0,0,1-3.5,3.36,3,3,0,0,1-3-2.21,3,3,0,0,0,1.68-2.55,2.07,2.07,0,0,0-1.51-2.31v-.25C182,154.5,183.76,156.46,183.76,158.46Z"/><path class="cls-2" d="M186.39,163.53a8.67,8.67,0,0,1,8.57-9v.21c-2.06.25-2.62,2-2.62,8.68,0,5,2.24,7.81,5.35,7.81a7.58,7.58,0,0,0,5.11-1.86v.21c-1.82,2.31-5.14,3.15-7.42,3.15A8.87,8.87,0,0,1,186.39,163.53Zm7.87-1.47c3.08,0,4.38-1,4.38-3.92,0-1.68-.7-3.22-2.28-3.43v-.21c4.62,0,6.86,3.29,6.86,5.95a10.8,10.8,0,0,1-.17,1.82h-8.79Z"/></svg>