<?xml version="1.0" encoding="utf-8"?>
<!-- Generator: Adobe Illustrator 24.0.3, SVG Export Plug-In . SVG Version: 6.00 Build 0)  -->
<svg version="1.1" id="Layer_1" xmlns="http://www.w3.org/2000/svg" xmlns:xlink="http://www.w3.org/1999/xlink" x="0px" y="0px"
	 viewBox="0 0 320 480" style="enable-background:new 0 0 320 480;" xml:space="preserve">
<style type="text/css">
	.st0{enable-background:new    ;}
	.st1{fill:#263845;}
</style>
<title>Artboard 1 copy 2</title>
<g class="st0">
	<path class="st1" d="M21.1,33.9l0.3,0.5l0.3,17.2c0,1.8,1.3,3.4,4,3.4v0.2h-9v-0.2c2.7,0,4-1.7,4-3.4L21.1,33.9z M42.9,55.3h-4.6
		L21.1,29.8c-1.1-1.6-2.3-2.1-4.4-2.1v-0.2h11l15.1,22.6V55.3z M42.8,45.9l-0.3-0.5l-0.5-14.3c0-1.8-1.3-3.4-4-3.4v-0.2h9v0.2
		c-2.7,0-4,1.7-4,3.4L42.8,45.9z"/>
	<path class="st1" d="M65.3,27.4h7.8L56.9,55.3h-7.8L65.3,27.4z M50.2,27.4h12.4l-0.1,0.2c-6.1,0.3-10.9,4.5-11.9,9.6h-0.3V27.4z
		 M59.6,55.1c6.2-0.5,11.1-4.4,12.8-11h0.3v11.2H59.5L59.6,55.1z"/>
</g>
<g class="st0">
	<path class="st1" d="M84.6,28.7c0,2.4-2.5,5.5-6.7,7.2l-0.1-0.4c1.2-0.9,2.3-2.5,2.3-4c0-1.8-1.3-2.7-2.8-2.7
		c0.3-2.4,1.8-3.7,3.9-3.7C83,25.2,84.6,26.4,84.6,28.7z"/>
</g>
<g class="st0">
	<path class="st1" d="M93,50.5c-1.4,0-2.3,0.8-2.3,2.1c0,1.2,0.8,2.7,3.7,3v0.2c-5.5-0.2-8.5-1.7-8.5-4.1c0-1.9,1.6-3,3.5-3
		C91,48.7,92.4,49.4,93,50.5z M94.4,34.7c-1.5,0.3-3,1.1-3,2.8c0.1,4.8,13.4,5.5,13.4,12.1c0,4-3.4,6.1-8.7,6.3v-0.2
		c1.7-0.3,3.7-0.9,3.7-3c0-4.3-13.5-5.8-13.5-12.1c0-3.6,3.4-5.8,8-6V34.7z M104.1,38.6c0,1.3-1,2.5-3,2.5c-1.7,0-3-0.7-3.5-2
		c1.2-0.1,1.9-0.9,1.8-1.9c0-1.2-1.6-2.4-3.2-2.6v-0.2C100.8,34.7,104.1,36.3,104.1,38.6z"/>
	<path class="st1" d="M117.8,26.8c3.8,0,6.9-0.4,9.8-1.6V53c0,1,0.6,2.1,3.1,2.1v0.2h-12.9v-0.2c2.5,0,3.1-1.1,3.1-2.1V29.2
		c0-1.5-0.7-2.2-3-2.2V26.8z"/>
	<path class="st1" d="M133.1,45c0-6.9,5.3-10.6,10.1-10.6v0.2c-2.4,0.3-3.1,2.3-3.1,10.2c0,5.9,2.6,9.2,6.3,9.2c2.3,0,4.1-0.7,6-2.2
		v0.2c-2.1,2.7-6,3.7-8.7,3.7C138.4,55.8,133.1,51.9,133.1,45z M142.4,43.3c3.6,0,5.1-1.1,5.1-4.6c0-2-0.8-3.8-2.7-4v-0.2
		c5.4,0,8,3.9,8,7c0,0.7-0.1,1.5-0.2,2.1h-10.3V43.3z"/>
	<path class="st1" d="M155.8,50.5c0-3.6,3.3-5.6,7.9-5.6h4.4v0.2h-1.2c-3,0-4.4,1.9-4.4,4.5c0,2.3,0.7,4,2.6,4c1.1,0,2.1-0.6,3-1.4
		v0.2c-1.4,1.6-3.5,3.3-6.5,3.3C158.1,55.8,155.8,53.8,155.8,50.5z M157.5,38.9c0-2.1,1.9-4.2,7.5-4.5v0.2c-1.6,0.2-2.6,1.6-2.6,3
		c0,1.5,1,2.4,2.7,2.5c-0.6,1.1-2.3,2-3.9,2C158.8,42.1,157.5,40.6,157.5,38.9z M169.4,51.1V38.6c0-2-0.8-3.6-2.8-3.9v-0.2
		c6.8,0.2,9.5,2.8,9.5,8.2v10c0,1.2,0.4,1.7,1.2,1.7c0.6,0,1.3-0.6,2-1.8h0.2c-0.7,2.3-2.9,3.3-5.3,3.3
		C170.9,55.8,169.4,54.6,169.4,51.1z"/>
	<path class="st1" d="M196.1,37.7V38c-0.9-1-2.1-1.5-3.4-1.5c-2.1,0-4,0.9-4,8.4c0,7.4,2.1,8.7,4,8.7c1.3,0,2.4-0.7,3.4-1.4v0.2
		c-1,1.7-3.6,3.3-6,3.3c-3.9,0-8.5-2.3-8.5-10.9c0-8.2,4.5-10.5,8.5-10.5C192.5,34.4,195.1,36,196.1,37.7z M204.1,52.6
		c0,1.2,0.4,1.7,1.1,1.7c0.6,0,1.3-0.6,2-1.8h0.2c-0.7,2.3-2.9,3.3-5.3,3.3c-3.3,0-4.8-1.1-4.8-4.6V29.2c0-1.5-0.7-2.2-3-2.2v-0.2
		c3.8,0,6.4-0.4,9.8-1.6V52.6z"/>
	<path class="st1" d="M209.1,36c3.8,0,6.9-0.4,9.8-1.6V53c0,1,0.6,2.1,3.1,2.1v0.2h-12.9v-0.2c2.5,0,3.1-1.1,3.1-2.1V38.4
		c0-1.5-0.7-2.2-3-2.2V36z M211.2,28.2c0-2.1,1.7-3.6,4.2-3.6c2.5,0,4.2,1.4,4.2,3.6c0,2.2-1.7,3.6-4.2,3.6
		C213,31.9,211.2,30.4,211.2,28.2z"/>
	<path class="st1" d="M223.8,55.1c2.5,0,3.1-1.1,3.1-2.1V38.4c0-1.5-0.7-2.2-3-2.2V36c3.8,0,6.9-0.4,9.8-1.6V53c0,1,0.6,2.1,3.1,2.1
		v0.2h-12.9V55.1z M238.2,55.1c2.4,0,3-1.1,3-2.1V40.2c0-2.3-1.2-3.5-3.2-3.5c-1.1,0-2.1,0.4-3.1,1.3v-0.2c1.1-1.7,3.8-3.3,6.8-3.3
		c3.7,0,6.3,1.7,6.3,5.8V53c0,1,0.6,2.1,3.1,2.1v0.2h-12.9V55.1z"/>
	<path class="st1" d="M253.5,41.8c0-5.3,5-7.4,9.2-7.4v0.2c-1.8,0.2-2.6,2.3-2.6,7.1c0,5,0.8,7,2.6,7.1v0.2
		C258.6,49.1,253.5,47.1,253.5,41.8z M264.4,65.4c4.1-0.5,5.4-2.7,5.4-4.2c0-5.7-16-0.6-16-8c0-1.7,0.9-3,2.8-4.2l0.1,0.2
		c-0.2,0.2-0.4,0.5-0.4,0.8c0,4.6,18.7-0.7,18.7,8.2c0,4.2-3.7,7-10.6,7.4V65.4z M253.8,61.9c0-2.4,3-3.2,6.2-3.2
		c-0.7,0.3-1.8,1.5-1.8,2.9c0,1.9,2.1,3.3,4.5,3.7v0.2C258.4,65.5,253.8,64.6,253.8,61.9z M264.4,48.9c2-0.2,2.8-2.2,2.8-7.1
		c0-4.8-0.9-6.9-2.8-7.1v-0.2c4.4,0.1,9.4,2.1,9.4,7.4c0,5.3-5.1,7.3-9.4,7.3V48.9z M266.7,33.7c0.7-2.1,2.6-4.9,5.4-4.9
		c2.2,0,3.5,1.1,3.5,3.1c0,2-1.8,3.2-3.3,3.2c0-1.7-0.9-2.8-2.2-2.8c-1.2,0-2.6,0.7-3.2,1.5L266.7,33.7z"/>
</g>
<g class="st0">
	<path class="st1" d="M16.8,77c3.8,0,6.9-0.4,9.8-1.6v18.6c0,1,0.6,2.1,3.1,2.1v0.2H16.7v-0.2c2.5,0,3.1-1.1,3.1-2.1V79.5
		c0-1.5-0.7-2.2-3-2.2V77z M18.9,69.3c0-2.1,1.7-3.6,4.2-3.6c2.5,0,4.2,1.4,4.2,3.6c0,2.2-1.7,3.6-4.2,3.6
		C20.6,72.9,18.9,71.5,18.9,69.3z"/>
	<path class="st1" d="M31.4,96.2c2.5,0,3.1-1.1,3.1-2.1V79.5c0-1.5-0.7-2.2-3-2.2v-0.2c3.8,0,6.9-0.4,9.8-1.6v18.6
		c0,1,0.6,2.1,3.1,2.1v0.2H31.4V96.2z M45.8,96.2c2.4,0,3-1.1,3-2.1V81.3c0-2.3-1.2-3.5-3.2-3.5c-1.1,0-2.1,0.4-3.1,1.3v-0.2
		c1.1-1.7,3.8-3.3,6.8-3.3c3.7,0,6.3,1.7,6.3,5.8v12.8c0,1,0.6,2.1,3.1,2.1v0.2H45.8V96.2z"/>
	<path class="st1" d="M68.1,91.5c-1.4,0-2.3,0.8-2.3,2.1c0,1.2,0.8,2.7,3.7,3v0.2C64,96.6,61,95.1,61,92.8c0-1.9,1.6-3,3.5-3
		C66.1,89.7,67.5,90.5,68.1,91.5z M69.5,75.7c-1.5,0.3-3,1.1-3,2.8c0.1,4.8,13.4,5.5,13.4,12.1c0,4-3.4,6.1-8.7,6.3v-0.2
		c1.7-0.3,3.7-0.9,3.7-3c0-4.3-13.5-5.8-13.5-12.1c0-3.6,3.4-5.8,8-6V75.7z M79.1,79.7c0,1.3-1,2.5-3,2.5c-1.7,0-3-0.7-3.5-2
		c1.2-0.1,1.9-0.9,1.8-1.9c0-1.2-1.6-2.4-3.2-2.6v-0.2C75.9,75.7,79.1,77.4,79.1,79.7z"/>
	<path class="st1" d="M92,91c0,2.3,0.8,3.5,2.8,3.5c1.1,0,1.9-0.3,2.8-1.3v0.2c-0.9,1.8-3,3.3-6.4,3.3c-3.7,0-6.1-1.7-6.1-5.8V79.5
		c0-1.5-0.7-2.2-3-2.2v-0.2c3.8,0,6.9-0.4,9.8-1.6V91z M105.7,93.7c0,1.2,0.4,1.7,1.1,1.7c0.6,0,1.3-0.6,2-1.8h0.2
		c-0.7,2.3-2.9,3.3-5.6,3.3c-2.9,0-4.5-1.6-4.5-4V79.5c0-1.5-0.7-2.2-2.9-2.2v-0.2c3.7,0,6.2-0.4,9.7-1.6V93.7z"/>
</g>
<g class="st0">
	<path class="st1" d="M120.5,94.1c0,1,0.6,2.1,3.1,2.1v0.2h-12.9v-0.2c2.5,0,3.1-1.1,3.1-2.1V79.5c0-1.5-0.7-2.2-3-2.2v-0.2
		c3.8,0,6.9-0.4,9.8-1.6V94.1z M131.6,79.9c0,2.8-2,4.7-4.2,4.7c-1,0-1.8-0.2-2.3-0.9c0.8-0.4,1.6-1.3,1.6-2.8
		c0-1.2-0.9-2.2-2.3-2.2c-1.1,0-1.9,0.6-2.5,1.6v-0.3c0.8-2.6,2.8-4.4,5.3-4.4C130.1,75.5,131.6,77.4,131.6,79.9z"/>
</g>
<g class="st0">
	<path class="st1" d="M133.4,91.6c0-3.6,3.3-5.6,7.9-5.6h4.4v0.2h-1.2c-3,0-4.4,1.9-4.4,4.5c0,2.3,0.7,4,2.6,4c1.1,0,2.1-0.6,3-1.4
		v0.2c-1.4,1.6-3.5,3.3-6.5,3.3C135.7,96.8,133.3,94.8,133.4,91.6z M135,79.9c0-2.1,1.9-4.2,7.5-4.5v0.2c-1.6,0.2-2.6,1.6-2.6,3
		c0,1.5,1,2.4,2.7,2.5c-0.6,1.1-2.3,2-3.9,2C136.3,83.2,135,81.7,135,79.9z M146.9,92.2V79.6c0-2-0.8-3.6-2.8-3.9v-0.2
		c6.8,0.2,9.5,2.8,9.5,8.2v10c0,1.2,0.4,1.7,1.1,1.7c0.6,0,1.3-0.6,2-1.8h0.2c-0.7,2.3-2.9,3.3-5.3,3.3
		C148.4,96.8,146.9,95.7,146.9,92.2z"/>
	<path class="st1" d="M158.3,96.2c2.5,0,3.1-1.1,3.1-2.1V79.5c0-1.5-0.7-2.2-3-2.2v-0.2c3.8,0,6.9-0.4,9.8-1.6v18.6
		c0,1,0.6,2.1,3.1,2.1v0.2h-12.9V96.2z M172.8,96.2c2.4,0,3-1.1,3-2.1V81.3c0-2.3-1.2-3.5-3.2-3.5c-1.2,0-2.1,0.4-3.1,1.3v-0.2
		c1.1-1.7,3.8-3.3,6.8-3.3c3.7,0,6.3,1.7,6.3,5.8v12.8c0,1,0.6,2.1,3.1,2.1v0.2h-12.9V96.2z"/>
	<path class="st1" d="M198.4,75.7c-2.4,0.3-3.5,2.3-3.5,10.2c0,5.9,3,9.2,6.7,9.2c2.3,0,4.1-0.7,6-2.2v0.2c-2.1,2.7-6,3.7-8.7,3.7
		c-5.3,0-11-3.9-11-10.8s5.7-10.6,10.5-10.6V75.7z M207.5,80.1c0,2.2-1.5,3.9-4.1,3.9c-2,0-3.3-1.3-3.6-2.6c1.2-0.5,2-1.9,2-3
		c0-0.9-0.2-2.4-1.8-2.7v-0.3C205.4,75.5,207.5,77.8,207.5,80.1z"/>
	<path class="st1" d="M210.6,86.1c0-6.9,5.3-10.6,10.1-10.6v0.2c-2.4,0.3-3.1,2.3-3.1,10.2c0,5.9,2.6,9.2,6.3,9.2
		c2.3,0,4.1-0.7,6-2.2v0.2c-2.1,2.7-6,3.7-8.7,3.7C215.9,96.8,210.6,93,210.6,86.1z M219.8,84.3c3.6,0,5.1-1.1,5.1-4.6
		c0-2-0.8-3.8-2.7-4v-0.2c5.4,0,8,3.9,8,7c0,0.7-0.1,1.5-0.2,2.1h-10.3V84.3z"/>
</g>
<g class="st0">
	<path class="st1" d="M24.6,132.6c-1.4,0-2.3,0.8-2.3,2.1c0,1.2,0.8,2.7,3.7,3v0.2c-5.5-0.2-8.5-1.7-8.5-4.1c0-1.9,1.6-3,3.5-3
		C22.6,130.8,24,131.6,24.6,132.6z M25.9,116.8c-1.5,0.3-3,1.1-3,2.8c0.1,4.8,13.4,5.5,13.4,12.1c0,4-3.4,6.1-8.7,6.3v-0.2
		c1.7-0.3,3.7-0.9,3.7-3c0-4.3-13.5-5.8-13.5-12.1c0-3.6,3.4-5.8,8-6V116.8z M35.6,120.8c0,1.3-1,2.5-3,2.5c-1.7,0-3-0.7-3.5-2
		c1.2-0.1,1.9-0.9,1.8-1.9c0-1.2-1.6-2.4-3.2-2.6v-0.2C32.4,116.8,35.6,118.5,35.6,120.8z"/>
	<path class="st1" d="M48.6,143.7c0,1.5,0.7,2.2,3,2.2v0.2c-3.8,0-6.4,0.4-9.8,1.6v-27.2c0-1.5-0.7-2.2-3-2.2v-0.2
		c3.8,0,6.4-0.4,9.8-1.6V143.7z M64.2,127c0,8.6-4.5,10.9-8.4,10.9c-2.3,0-5-1.6-6-3.3v-0.2c1,0.8,2.1,1.4,3.4,1.4
		c1.9,0,4-1.4,4-8.7c0-7.4-1.9-8.4-4-8.4c-1.3,0-2.5,0.5-3.4,1.5v-0.3c1-1.7,3.7-3.3,6-3.3C59.8,116.5,64.2,118.8,64.2,127z"/>
	<path class="st1" d="M67.9,127.1c0-6.9,5.3-10.6,10.1-10.6v0.2c-2.4,0.3-3.1,2.3-3.1,10.2c0,5.9,2.6,9.2,6.3,9.2
		c2.3,0,4.1-0.7,6-2.2v0.2c-2.1,2.7-6,3.7-8.7,3.7C73.2,137.9,67.9,134,67.9,127.1z M77.1,125.4c3.6,0,5.1-1.1,5.1-4.6
		c0-2-0.8-3.8-2.7-4v-0.2c5.4,0,8,3.9,8,7c0,0.7-0.1,1.5-0.2,2.1H77.1V125.4z"/>
	<path class="st1" d="M101.5,116.8c-2.4,0.3-3.5,2.3-3.5,10.2c0,5.9,3,9.2,6.7,9.2c2.3,0,4.1-0.7,6-2.2v0.2c-2.1,2.7-6,3.7-8.7,3.7
		c-5.3,0-11-3.9-11-10.8c0-6.9,5.7-10.6,10.5-10.6V116.8z M110.6,121.2c0,2.2-1.5,3.9-4.1,3.9c-2,0-3.3-1.3-3.6-2.6
		c1.1-0.5,2-1.9,2-3c0-0.9-0.2-2.4-1.8-2.7v-0.3C108.5,116.5,110.6,118.8,110.6,121.2z"/>
	<path class="st1" d="M113,118.1c3.8,0,6.9-0.4,9.8-1.6v18.6c0,1,0.6,2.1,3.1,2.1v0.2H113v-0.2c2.5,0,3.1-1.1,3.1-2.1v-14.6
		c0-1.5-0.7-2.2-3-2.2V118.1z M115.1,110.4c0-2.1,1.7-3.6,4.2-3.6c2.5,0,4.2,1.4,4.2,3.6c0,2.2-1.7,3.6-4.2,3.6
		C116.8,114,115.1,112.5,115.1,110.4z"/>
	<path class="st1" d="M128,132.6c0-3.6,3.3-5.6,7.9-5.6h4.4v0.2h-1.2c-3,0-4.4,1.9-4.4,4.5c0,2.3,0.7,4,2.6,4c1.1,0,2.1-0.6,3-1.4
		v0.2c-1.4,1.6-3.5,3.3-6.5,3.3C130.3,137.9,127.9,135.9,128,132.6z M129.6,121c0-2.1,1.9-4.2,7.5-4.5v0.2c-1.6,0.2-2.6,1.6-2.6,3
		c0,1.5,1,2.4,2.7,2.5c-0.6,1.1-2.3,2-3.9,2C130.9,124.2,129.6,122.7,129.6,121z M141.5,133.2v-12.6c0-2-0.8-3.6-2.8-3.9v-0.2
		c6.8,0.2,9.5,2.8,9.5,8.2v10c0,1.2,0.4,1.7,1.1,1.7c0.6,0,1.3-0.6,2-1.8h0.2c-0.7,2.3-2.9,3.3-5.3,3.3
		C143,137.9,141.5,136.7,141.5,133.2z"/>
	<path class="st1" d="M152.7,108.9c3.8,0,6.9-0.4,9.8-1.6v27.8c0,1,0.6,2.1,3.1,2.1v0.2h-12.9v-0.2c2.5,0,3.1-1.1,3.1-2.1v-23.8
		c0-1.5-0.7-2.2-3-2.2V108.9z"/>
	<path class="st1" d="M167.4,118.1c3.8,0,6.9-0.4,9.8-1.6v18.6c0,1,0.6,2.1,3.1,2.1v0.2h-12.9v-0.2c2.5,0,3.1-1.1,3.1-2.1v-14.6
		c0-1.5-0.7-2.2-3-2.2V118.1z M169.5,110.4c0-2.1,1.7-3.6,4.2-3.6c2.5,0,4.2,1.4,4.2,3.6c0,2.2-1.7,3.6-4.2,3.6
		C171.2,114,169.5,112.5,169.5,110.4z"/>
	<path class="st1" d="M189.9,132.6c-1.4,0-2.3,0.8-2.3,2.1c0,1.2,0.8,2.7,3.7,3v0.2c-5.5-0.2-8.5-1.7-8.5-4.1c0-1.9,1.6-3,3.5-3
		C187.9,130.8,189.3,131.6,189.9,132.6z M191.2,116.8c-1.5,0.3-3,1.1-3,2.8c0.1,4.8,13.4,5.5,13.4,12.1c0,4-3.4,6.1-8.7,6.3v-0.2
		c1.7-0.3,3.7-0.9,3.7-3c0-4.3-13.5-5.8-13.5-12.1c0-3.6,3.4-5.8,8-6V116.8z M200.9,120.8c0,1.3-1,2.5-3,2.5c-1.7,0-3-0.7-3.5-2
		c1.2-0.1,1.9-0.9,1.8-1.9c0-1.2-1.6-2.4-3.2-2.6v-0.2C197.7,116.8,200.9,118.5,200.9,120.8z"/>
	<path class="st1" d="M220.4,134.3v0.2c-1.3,1.9-3.9,3.3-7,3.3c-3.7,0-6.3-1.7-6.3-5.8v-13.5h-2.1l0.5-0.6h1.7v-4.4
		c2.5,0,5-0.8,6.7-2.3v6.7h5.5l-0.5,0.6h-5.1v13.6c0,2.1,0.8,4.2,2.7,4.2C217.6,136.4,219,135.7,220.4,134.3z"/>
</g>
</svg>
