<svg id="Layer_1" data-name="Layer 1" xmlns="http://www.w3.org/2000/svg" viewBox="0 0 320 480"><defs><style>.cls-1{fill:#74503e;}.cls-2{fill:#fff;}.cls-3{fill:none;}</style></defs><title>Artboard 1 copy 3</title><path class="cls-1" d="M20,200.69v51.4a18.34,18.34,0,0,0,9.89,16.27l77,40a22.92,22.92,0,0,0,21.1,0l77-40a18.34,18.34,0,0,0,9.89-16.27v-51.4a8.56,8.56,0,0,0-8.56-8.56H28.56A8.56,8.56,0,0,0,20,200.69Z"/><path class="cls-2" d="M107.11,228.81l.35-.5c.26-.35.53-.37.92-.15a3.94,3.94,0,0,0,2.29.83c1,0,1.68-.53,1.68-1.29,0-2.14-5.25-1.69-5.25-5.2,0-2,1.65-3.27,3.79-3.27a5.2,5.2,0,0,1,2.9.86.62.62,0,0,1,.21.9l-.29.53c-.23.46-.57.39-.9.22a3.68,3.68,0,0,0-2-.62c-1,0-1.72.51-1.72,1.27,0,2.11,5.26,1.57,5.26,5.15,0,1.83-1.37,3.34-3.73,3.34a6,6,0,0,1-3.46-1.15A.6.6,0,0,1,107.11,228.81Z"/><path class="cls-2" d="M118.93,221.18h-3a.58.58,0,0,1-.66-.65v-.44a.59.59,0,0,1,.66-.67H124a.6.6,0,0,1,.66.67v.44a.58.58,0,0,1-.66.65h-3V230a.59.59,0,0,1-.66.67h-.72a.59.59,0,0,1-.65-.67Z"/><path class="cls-2" d="M127.32,220a.73.73,0,0,1,.75-.54h1a.72.72,0,0,1,.75.54l3.52,10c.16.46,0,.77-.54.77h-.73a.71.71,0,0,1-.74-.54l-.8-2.35h-3.95l-.77,2.33a.72.72,0,0,1-.75.56h-.73c-.49,0-.7-.31-.54-.77Zm2.72,6.17-1-3c-.19-.64-.45-1.75-.45-1.75h0s-.25,1.11-.44,1.75l-1,3Z"/><path class="cls-2" d="M134.77,220.09a.59.59,0,0,1,.65-.67h3.05a5.24,5.24,0,0,1,2.14.3,3.15,3.15,0,0,1,1.89,3.08,3.27,3.27,0,0,1-1.87,3.08v0a4.62,4.62,0,0,1,.36.59l1.86,3.39c.27.46.06.8-.46.8h-.86a.83.83,0,0,1-.78-.46l-2-3.75h-2V230a.59.59,0,0,1-.65.67h-.73a.59.59,0,0,1-.65-.67Zm3.87,4.61a1.65,1.65,0,0,0,1.78-1.79,1.53,1.53,0,0,0-.89-1.54,2.93,2.93,0,0,0-1.22-.19H136.8v3.52Z"/><path class="cls-2" d="M107.86,233.85a.35.35,0,0,1,.38-.4h.33a.36.36,0,0,1,.38.4v10.36a.36.36,0,0,1-.38.4h-.33a.35.35,0,0,1-.38-.4Z"/><path class="cls-2" d="M111.59,237a.36.36,0,0,1,.4-.39h.29a.35.35,0,0,1,.38.39v.92a2.34,2.34,0,0,1-.07.57h0a3.51,3.51,0,0,1,3.22-2.07c2,0,2.68,1.12,2.68,3.09v4.68a.37.37,0,0,1-.4.4h-.3a.35.35,0,0,1-.38-.4v-4.4c0-1.25-.21-2.36-1.75-2.36a3.1,3.1,0,0,0-3,3.25v3.51a.35.35,0,0,1-.38.4H112a.37.37,0,0,1-.4-.4Z"/><path class="cls-2" d="M120.24,243.34l.13-.16c.14-.19.31-.21.54-.07a3.46,3.46,0,0,0,2.11.73c.89,0,1.62-.44,1.62-1.28,0-1.79-4.27-1.25-4.27-3.89,0-1.47,1.25-2.23,2.71-2.23a3.67,3.67,0,0,1,2.19.65.33.33,0,0,1,.11.52l-.11.17c-.13.23-.32.24-.54.11a3,3,0,0,0-1.71-.5c-.84,0-1.57.36-1.57,1.23,0,1.84,4.25,1.26,4.25,3.92,0,1.32-1.11,2.26-2.7,2.26a4.22,4.22,0,0,1-2.7-.92A.36.36,0,0,1,120.24,243.34Z"/><path class="cls-2" d="M127.3,237a.35.35,0,0,1,.38-.39h.3a.36.36,0,0,1,.4.39v4.4c0,1.25.19,2.36,1.73,2.36a3.1,3.1,0,0,0,2.95-3.33V237a.35.35,0,0,1,.39-.39h.31a.35.35,0,0,1,.38.39v7.19a.35.35,0,0,1-.38.4h-.29a.35.35,0,0,1-.38-.4v-.92a3.23,3.23,0,0,1,0-.57h0A3.45,3.45,0,0,1,130,244.8c-1.88,0-2.66-1-2.66-3.1Z"/><path class="cls-2" d="M136.47,237a.36.36,0,0,1,.4-.39h.29a.35.35,0,0,1,.38.39v1.08a3,3,0,0,1-.07.64h0a2.87,2.87,0,0,1,2.58-2.16c.28,0,.41.13.41.38v.28c0,.26-.18.4-.45.4-1.68,0-2.49,1.92-2.49,3.59v3a.35.35,0,0,1-.38.4h-.3a.37.37,0,0,1-.4-.4Z"/><path class="cls-2" d="M146,239.72h.46v-.25c0-1.54-.84-2.07-2-2.07a3.75,3.75,0,0,0-1.93.56.37.37,0,0,1-.54-.13l-.1-.16a.37.37,0,0,1,.11-.54,5,5,0,0,1,2.54-.69c1.91,0,3,1.06,3,3.06v4.71a.35.35,0,0,1-.38.4h-.25a.35.35,0,0,1-.4-.4v-.64a3.24,3.24,0,0,1,0-.6h0a3,3,0,0,1-2.69,1.83,2.46,2.46,0,0,1-2.7-2.34C141.11,239.86,144.44,239.72,146,239.72Zm-2,4.17c1.54,0,2.44-1.58,2.44-3v-.38H146c-1.26,0-3.78.05-3.78,1.84A1.6,1.6,0,0,0,144,243.89Z"/><path class="cls-2" d="M149.78,237a.36.36,0,0,1,.4-.39h.28a.36.36,0,0,1,.39.39v.92a2.34,2.34,0,0,1-.07.57h0a3.53,3.53,0,0,1,3.22-2.07c2,0,2.69,1.12,2.69,3.09v4.68a.37.37,0,0,1-.4.4H156a.35.35,0,0,1-.38-.4v-4.4c0-1.25-.21-2.36-1.75-2.36a3.09,3.09,0,0,0-3,3.25v3.51a.35.35,0,0,1-.38.4h-.3a.37.37,0,0,1-.4-.4Z"/><path class="cls-2" d="M162.68,236.44a4.14,4.14,0,0,1,2.65.9.34.34,0,0,1,0,.54l-.11.17c-.14.23-.32.23-.54.08a3.3,3.3,0,0,0-2-.73,3.22,3.22,0,0,0,0,6.43A3.52,3.52,0,0,0,165,243a.32.32,0,0,1,.53.09l.11.16a.38.38,0,0,1-.1.54,4.43,4.43,0,0,1-2.84,1,4.18,4.18,0,1,1,0-8.36Z"/><path class="cls-2" d="M170.54,236.44c2.13,0,3.33,1.53,3.33,3.8a.4.4,0,0,1-.41.4h-5.74a3,3,0,0,0,3.09,3.19,3.43,3.43,0,0,0,2.09-.73c.23-.14.4-.11.53.09l.12.19a.37.37,0,0,1-.11.53,4.57,4.57,0,0,1-2.66.89,4,4,0,0,1-4.17-4.18A3.89,3.89,0,0,1,170.54,236.44Zm2.24,3.39a2.3,2.3,0,0,0-2.27-2.51,2.76,2.76,0,0,0-2.75,2.51Z"/><path class="cls-2" d="M107.61,249a.59.59,0,0,1,.65-.67h5.42a.61.61,0,0,1,.67.67v.44a.59.59,0,0,1-.67.65h-4V253h3.14a.59.59,0,0,1,.66.65v.45a.59.59,0,0,1-.66.66h-3.14v3h4.3a.59.59,0,0,1,.66.65v.44a.6.6,0,0,1-.66.67h-5.68a.59.59,0,0,1-.65-.67Z"/><path class="cls-2" d="M116.05,252.17a.58.58,0,0,1,.65-.66h.62a.58.58,0,0,1,.65.66v.49a2.75,2.75,0,0,1,0,.37h0a3.15,3.15,0,0,1,2.87-1.72c1.79,0,2.82.94,2.82,3.08v4.54a.59.59,0,0,1-.66.67h-.69a.6.6,0,0,1-.66-.67V254.8c0-1-.26-1.65-1.27-1.65a2.42,2.42,0,0,0-2.33,2.65v3.13a.59.59,0,0,1-.65.67h-.7a.59.59,0,0,1-.65-.67Z"/><path class="cls-2" d="M125.81,253.22h-.43a.58.58,0,0,1-.65-.67v-.27a.59.59,0,0,1,.67-.66h.46V250a.6.6,0,0,1,.66-.67h.64a.6.6,0,0,1,.66.67v1.65H129a.6.6,0,0,1,.67.66v.27a.59.59,0,0,1-.66.67h-1.19v3.14a1.33,1.33,0,0,0,1.31,1.51c.49,0,.66.2.66.65V259c0,.47-.27.67-.82.67a2.9,2.9,0,0,1-3.16-3Z"/><path class="cls-2" d="M131.09,249a.61.61,0,0,1,.67-.67h.68a.6.6,0,0,1,.67.67v3.27a4.43,4.43,0,0,1-.05.68h0a3.2,3.2,0,0,1,2.81-1.64c1.79,0,2.83.94,2.83,3.08v4.54a.6.6,0,0,1-.67.67h-.68a.59.59,0,0,1-.67-.67V254.8c0-1-.25-1.65-1.27-1.65a2.42,2.42,0,0,0-2.33,2.69v3.09a.59.59,0,0,1-.67.67h-.68a.6.6,0,0,1-.67-.67Z"/><path class="cls-2" d="M140.55,252.17a.59.59,0,0,1,.66-.66h.68a.59.59,0,0,1,.67.66v4.13c0,1,.25,1.65,1.25,1.65,1.46,0,2.27-1.29,2.27-2.73v-3.05a.59.59,0,0,1,.67-.66h.68a.6.6,0,0,1,.67.66v6.76a.6.6,0,0,1-.67.67h-.62a.59.59,0,0,1-.65-.67v-.48a2.33,2.33,0,0,1,0-.36h0a3.15,3.15,0,0,1-2.81,1.7c-1.73,0-2.8-.88-2.8-3.08Z"/><path class="cls-2" d="M149.73,258.06l.19-.29c.24-.33.51-.36.91-.16a3.58,3.58,0,0,0,1.81.56c.69,0,1.12-.32,1.12-.83,0-1.31-4-.82-4-3.6,0-1.58,1.4-2.43,3.09-2.43a4.51,4.51,0,0,1,2.26.59.6.6,0,0,1,.23.89l-.15.29c-.2.38-.5.42-.89.25a3.62,3.62,0,0,0-1.54-.4c-.7,0-1.1.29-1.1.8,0,1.33,4,.81,4,3.57,0,1.42-1.21,2.49-3.08,2.49a4.76,4.76,0,0,1-2.7-.83A.57.57,0,0,1,149.73,258.06Z"/><path class="cls-2" d="M157.17,249.47V249a.59.59,0,0,1,.65-.67h.7a.61.61,0,0,1,.67.67v.47a.59.59,0,0,1-.67.65h-.7A.58.58,0,0,1,157.17,249.47Zm0,2.7a.58.58,0,0,1,.65-.66h.7a.58.58,0,0,1,.65.66v6.76a.59.59,0,0,1-.65.67h-.7a.59.59,0,0,1-.65-.67Z"/><path class="cls-2" d="M165.28,254.6h.33v-.19a1.32,1.32,0,0,0-1.5-1.43,3.65,3.65,0,0,0-1.69.46.59.59,0,0,1-.88-.27l-.16-.3a.59.59,0,0,1,.25-.89,5.71,5.71,0,0,1,2.65-.67,3,3,0,0,1,3.35,3.23v4.39a.59.59,0,0,1-.67.67h-.54a.59.59,0,0,1-.65-.67v-.32a1.72,1.72,0,0,1,0-.35h0a2.94,2.94,0,0,1-2.54,1.53,2.49,2.49,0,0,1-2.68-2.43C160.55,255,163.47,254.6,165.28,254.6Zm-1.51,3.65a2.06,2.06,0,0,0,1.86-2.13v-.3h-.33c-1,0-2.75.16-2.75,1.36A1.1,1.1,0,0,0,163.77,258.25Z"/><path class="cls-2" d="M169.15,258.06l.19-.29c.23-.33.5-.36.9-.16a3.58,3.58,0,0,0,1.81.56c.7,0,1.13-.32,1.13-.83,0-1.31-4-.82-4-3.6,0-1.58,1.4-2.43,3.09-2.43a4.51,4.51,0,0,1,2.26.59.61.61,0,0,1,.24.89l-.16.29c-.19.38-.49.42-.89.25a3.57,3.57,0,0,0-1.54-.4c-.7,0-1.09.29-1.09.8,0,1.33,4,.81,4,3.57,0,1.42-1.21,2.49-3.08,2.49a4.79,4.79,0,0,1-2.7-.83A.57.57,0,0,1,169.15,258.06Z"/><path class="cls-2" d="M177,253.22h-.43a.58.58,0,0,1-.65-.67v-.27a.59.59,0,0,1,.66-.66H177V250a.61.61,0,0,1,.67-.67h.63a.61.61,0,0,1,.67.67v1.65h1.17a.6.6,0,0,1,.67.66v.27a.59.59,0,0,1-.65.67H179v3.14a1.33,1.33,0,0,0,1.3,1.51c.49,0,.67.2.67.65V259c0,.47-.27.67-.83.67a2.89,2.89,0,0,1-3.15-3Z"/><path class="cls-2" d="M69.61,254.54a1.08,1.08,0,0,1-.52-.13,1.11,1.11,0,0,1-.55-1.34l11.74-36.14a2.48,2.48,0,0,1,2.39-1.74h0a2.46,2.46,0,0,1,2.38,1.74l2.38,7.16a.85.85,0,0,1-1.61.53l-2.38-7.16a.78.78,0,0,0-.77-.57h0a.78.78,0,0,0-.77.56L71.28,250.14l15-20.48a4.67,4.67,0,0,1,3.76-1.9h10a2.5,2.5,0,0,1,1.48,4.53l-9.11,6.62-.1.09,3.52,10.83a2.51,2.51,0,0,1-3.86,2.8L84,246.91a2.52,2.52,0,0,1,0-4.06l6.61-4.79.1-.08,9.72-7.06a.78.78,0,0,0,.29-.9.77.77,0,0,0-.77-.56H90a3,3,0,0,0-2.39,1.21l-17.1,23.41A1.15,1.15,0,0,1,69.61,254.54Zm21.17-14.49L85,244.23a.81.81,0,0,0,0,1.3l7.88,5.72a.8.8,0,0,0,1.24-.9Z"/><path class="cls-2" d="M70.21,236.57a.82.82,0,0,1-.49-.16l-5.81-4.11a2.51,2.51,0,0,1,1.47-4.54H72.5a.85.85,0,1,1,0,1.7H65.38a.77.77,0,0,0-.77.56.78.78,0,0,0,.29.9L70.71,235a.85.85,0,0,1-.5,1.54Z"/><path class="cls-2" d="M78.13,266.53a2.81,2.81,0,0,1-1.37-.36l-14.85-8.42a.88.88,0,0,1-.43-.74V238.88a.85.85,0,1,1,1.7,0v17.63l14.42,8.18a1,1,0,0,0,1.09,0l10.54-6.6a.85.85,0,0,1,1.17.27.86.86,0,0,1-.27,1.18l-10.54,6.59A2.72,2.72,0,0,1,78.13,266.53Z"/><rect class="cls-3" x="0.62" width="320" height="480"/></svg>