<svg id="Layer_1" data-name="Layer 1" xmlns="http://www.w3.org/2000/svg" viewBox="0 0 300 150"><defs><style>.cls-1{fill:#263845;}.cls-2{fill:none;}</style></defs><title>Artboard 1 copy</title><path class="cls-1" d="M11.08,117.1c1.49,0,1.87-.6,1.87-1.27V101.68c0-.68-.38-1.28-1.87-1.28v-.15h8v.15c-1.5,0-1.87.6-1.87,1.28v14.15c0,.67.37,1.27,1.87,1.27v.15h-8Z"/><path class="cls-1" d="M25.2,114.28a1.27,1.27,0,0,0-1.4,1.25c0,.72.5,1.65,2.22,1.82v.15c-3.32-.12-5.15-1-5.15-2.47A2,2,0,0,1,23,113.18,2.54,2.54,0,0,1,25.2,114.28Zm.82-9.63c-.92.18-1.82.65-1.8,1.68.08,2.9,8.18,3.37,8.18,7.35,0,2.42-2,3.7-5.28,3.82v-.15c1.05-.17,2.23-.55,2.23-1.85,0-2.6-8.2-3.55-8.2-7.35,0-2.2,2.07-3.52,4.87-3.65Zm5.9,2.43a1.64,1.64,0,0,1-1.85,1.55,2.13,2.13,0,0,1-2.12-1.2,1.11,1.11,0,0,0,1.12-1.18c0-.75-.95-1.47-1.95-1.6v-.15C30,104.65,31.92,105.68,31.92,107.08Z"/><path class="cls-1" d="M40.22,105.78a1.33,1.33,0,0,0-1.37-.88v-.15h7v.15c-.88,0-1.23.6-.8,1.48l3.27,6.82-2.15,4H46Zm-1.09,15.49a2.61,2.61,0,0,1,2.2-2.34,1.77,1.77,0,0,0-.11.62,1.46,1.46,0,0,0,1.48,1.67c.87,0,1.57-.92,2.52-2.52h.18c-1.38,2.57-2.33,4.8-4.07,4.8A2.08,2.08,0,0,1,39.13,121.27Zm10.24-10.52a6.77,6.77,0,0,0,.7-3.22,2.41,2.41,0,0,0-2.55-2.63v-.15h6.23v.15c-.83,0-1.15.33-1.63,1.18l-2.6,4.9Z"/><path class="cls-1" d="M60.1,104.65c-1.48.18-2,1.43-2,6.3,0,4.7.5,6.25,2,6.4v.15A6.37,6.37,0,0,1,53.87,111a6.27,6.27,0,0,1,6.23-6.45Zm7.2,6.3a6.37,6.37,0,0,1-6.2,6.55v-.15c1.47-.15,1.95-1.72,1.95-6.4,0-4.9-.5-6.15-1.95-6.3v-.15A6.23,6.23,0,0,1,67.3,111Z"/><path class="cls-1" d="M74.67,114c0,1.4.48,2.12,1.73,2.12a2.21,2.21,0,0,0,1.72-.77v.15a4.16,4.16,0,0,1-3.87,2c-2.25,0-3.7-1-3.7-3.52v-7c0-.9-.43-1.32-1.85-1.32v-.15a15.18,15.18,0,0,0,6-1Zm8.33,1.6c0,.72.22,1,.67,1s.8-.37,1.2-1.12H85c-.4,1.37-1.75,2-3.4,2s-2.75-1-2.75-2.45V107c0-.9-.42-1.32-1.77-1.32v-.15a16.15,16.15,0,0,0,5.9-1Z"/><path class="cls-1" d="M92,115.83c0,.62.38,1.27,1.88,1.27v.15H86v-.15c1.49,0,1.87-.65,1.87-1.27V107c0-.9-.43-1.32-1.85-1.32v-.15a15.18,15.18,0,0,0,6-1Zm6.75-8.63a2.67,2.67,0,0,1-2.57,2.85,1.71,1.71,0,0,1-1.43-.55,1.82,1.82,0,0,0,1-1.7,1.33,1.33,0,0,0-1.4-1.35,1.72,1.72,0,0,0-1.5,1v-.2a3.46,3.46,0,0,1,3.25-2.7A2.54,2.54,0,0,1,98.77,107.2Z"/><path class="cls-1" d="M17.45,129.65c-1.48.18-2.13,1.43-2.13,6.2,0,3.6,1.83,5.58,4.05,5.58A5.4,5.4,0,0,0,23,140.1v.15a7,7,0,0,1-5.3,2.25A6.53,6.53,0,0,1,11.05,136a6.4,6.4,0,0,1,6.4-6.45ZM23,132.33a2.33,2.33,0,0,1-2.5,2.4,2.13,2.13,0,0,1-2.18-1.58,2.14,2.14,0,0,0,1.2-1.82,1.48,1.48,0,0,0-1.07-1.65v-.18C21.72,129.5,23,130.9,23,132.33Z"/><path class="cls-1" d="M24.62,139.3c0-2.17,2-3.4,4.8-3.4h2.7v.15h-.75a2.48,2.48,0,0,0-2.65,2.73c0,1.37.4,2.42,1.58,2.42a2.72,2.72,0,0,0,1.82-.87v.15a5.3,5.3,0,0,1-4,2C26,142.5,24.6,141.3,24.62,139.3Zm1-7.07c0-1.28,1.15-2.58,4.55-2.73v.15a1.83,1.83,0,0,0-1.6,1.83c0,.9.63,1.45,1.63,1.52a2.82,2.82,0,0,1-2.4,1.2A2,2,0,0,1,25.62,132.23Zm7.25,7.45V132c0-1.23-.47-2.2-1.7-2.38v-.15c4.15.15,5.8,1.73,5.8,5v6.08c0,.72.25,1,.7,1s.8-.37,1.2-1.12H39a3.12,3.12,0,0,1-3.25,2C33.77,142.5,32.87,141.8,32.87,139.68Z"/><path class="cls-1" d="M45.8,140.83c0,.62.37,1.27,1.87,1.27v.15H39.8v-.15c1.5,0,1.87-.65,1.87-1.27V132c0-.9-.42-1.32-1.84-1.32v-.15a15.22,15.22,0,0,0,6-1Zm6.75-8.63A2.68,2.68,0,0,1,50,135.05a1.69,1.69,0,0,1-1.42-.55,1.83,1.83,0,0,0,1-1.7,1.33,1.33,0,0,0-1.4-1.35,1.73,1.73,0,0,0-1.5,1v-.2a3.46,3.46,0,0,1,3.25-2.7A2.54,2.54,0,0,1,52.55,132.2Z"/><path class="cls-1" d="M64.1,139.28a1.27,1.27,0,0,0-1.4,1.25c0,.72.5,1.65,2.22,1.82v.15c-3.32-.12-5.15-1-5.15-2.47a2,2,0,0,1,2.13-1.85A2.54,2.54,0,0,1,64.1,139.28Zm.82-9.63c-.92.18-1.82.65-1.8,1.68.08,2.9,8.18,3.37,8.18,7.35,0,2.42-2,3.7-5.28,3.82v-.15c1-.17,2.23-.55,2.23-1.85,0-2.6-8.2-3.55-8.2-7.35,0-2.2,2.07-3.52,4.87-3.65Zm5.9,2.43A1.64,1.64,0,0,1,69,133.63a2.13,2.13,0,0,1-2.12-1.2A1.11,1.11,0,0,0,68,131.25c0-.75-1-1.47-2-1.6v-.15C68.85,129.65,70.82,130.68,70.82,132.08Z"/><path class="cls-1" d="M78.72,146.05c0,.9.43,1.32,1.85,1.32v.15a16.28,16.28,0,0,0-6,1V131.93c0-.9-.43-1.33-1.85-1.33v-.15a16.48,16.48,0,0,0,6-1Zm9.53-10.17c0,5.22-2.75,6.62-5.13,6.62a4.7,4.7,0,0,1-3.65-2v-.15a3.54,3.54,0,0,0,2.1.87c1.18,0,2.43-.82,2.43-5.32s-1.18-5.1-2.43-5.1a2.84,2.84,0,0,0-2.1.92v-.2a4.68,4.68,0,0,1,3.65-2C85.55,129.5,88.25,130.9,88.25,135.88Z"/><path class="cls-1" d="M90.45,136a6.19,6.19,0,0,1,6.12-6.45v.15c-1.47.18-1.87,1.43-1.87,6.2,0,3.6,1.6,5.58,3.82,5.58a5.4,5.4,0,0,0,3.65-1.33v.15a7,7,0,0,1-5.3,2.25A6.33,6.33,0,0,1,90.45,136Zm5.62-1c2.2,0,3.13-.7,3.13-2.8,0-1.2-.5-2.3-1.63-2.45v-.15c3.3,0,4.9,2.35,4.9,4.25a7.85,7.85,0,0,1-.12,1.3H96.07Z"/><path class="cls-1" d="M110.92,129.65c-1.47.18-2.12,1.43-2.12,6.2,0,3.6,1.82,5.58,4,5.58a5.44,5.44,0,0,0,3.65-1.33v.15a7,7,0,0,1-5.3,2.25,6.54,6.54,0,0,1-6.68-6.55,6.41,6.41,0,0,1,6.4-6.45Zm5.55,2.68a2.33,2.33,0,0,1-2.5,2.4,2.12,2.12,0,0,1-2.17-1.58,2.14,2.14,0,0,0,1.2-1.82,1.48,1.48,0,0,0-1.08-1.65v-.18C115.2,129.5,116.47,130.9,116.47,132.33Z"/><path class="cls-1" d="M118,130.45a15.37,15.37,0,0,0,6-1v11.35c0,.62.38,1.27,1.88,1.27v.15h-7.88v-.15c1.5,0,1.88-.65,1.88-1.27v-8.9c0-.9-.43-1.33-1.85-1.33Zm1.27-4.7a2.58,2.58,0,1,1,2.55,2.2A2.27,2.27,0,0,1,119.22,125.75Z"/><path class="cls-1" d="M127.05,139.3c0-2.17,2-3.4,4.8-3.4h2.7v.15h-.75a2.48,2.48,0,0,0-2.65,2.73c0,1.37.4,2.42,1.57,2.42a2.75,2.75,0,0,0,1.83-.87v.15a5.32,5.32,0,0,1-4,2C128.45,142.5,127,141.3,127.05,139.3Zm1-7.07c0-1.28,1.15-2.58,4.55-2.73v.15a1.83,1.83,0,0,0-1.6,1.83c0,.9.62,1.45,1.62,1.52a2.8,2.8,0,0,1-2.4,1.2A2,2,0,0,1,128.05,132.23Zm7.25,7.45V132c0-1.23-.48-2.2-1.7-2.38v-.15c4.15.15,5.8,1.73,5.8,5v6.08c0,.72.25,1,.7,1s.8-.37,1.2-1.12h.15a3.12,3.12,0,0,1-3.25,2C136.2,142.5,135.3,141.8,135.3,139.68Z"/><path class="cls-1" d="M142.1,124.85a15.37,15.37,0,0,0,6-1v17c0,.62.38,1.27,1.88,1.27v.15h-7.88v-.15c1.5,0,1.88-.65,1.88-1.27v-14.5c0-.9-.43-1.33-1.85-1.33Z"/><path class="cls-1" d="M151.17,128.38c0-2.23,3-3.3,5.28-3.38v.15a2.49,2.49,0,0,0-1.78,2.43,2.14,2.14,0,0,0,1.4,2.15,2.74,2.74,0,0,1-2.3,1A2.36,2.36,0,0,1,151.17,128.38Zm3.68,13.27c0-1.37,1.1-2.27,2.67-2.27s2.68.9,2.68,2.27-1.1,2.3-2.68,2.3A2.37,2.37,0,0,1,154.85,141.65Zm.67-7c0-2.8,4-3.63,4-6.83a2.46,2.46,0,0,0-1.8-2.65V125c3.45.23,6,1.35,6,4.13,0,3.4-5.42,4.47-5.42,6.67a1.49,1.49,0,0,0,.9,1.45l0,.15C156.7,137.4,155.52,136.15,155.52,134.63Z"/><rect class="cls-2" width="300" height="150"/></svg>