<svg id="Layer_1" data-name="Layer 1" xmlns="http://www.w3.org/2000/svg" viewBox="0 0 300 150"><defs><style>.cls-1{fill:#fff;}.cls-2{fill:none;}</style></defs><title>Artboard 10</title><path class="cls-1" d="M19.15,71v.15c-1.8.23-3,2-3,8.45s1.25,8.52,3,8.75v.15a8.35,8.35,0,0,1-7.95-8.75A8.66,8.66,0,0,1,19.15,71Zm1.22.15V71a10.54,10.54,0,0,1,5.13,1.18L26.27,71h.2v6.08h-.2A7.7,7.7,0,0,0,20.37,71.15Zm8.48,9.93v.15c-1.18,0-1.85.45-1.85,1.47v5.8h-.2L25.9,87a9.84,9.84,0,0,1-5.5,1.5v-.15c1.7-.13,2.67-1,2.67-3V82.7c0-1-.45-1.47-1.87-1.47v-.15Z"/><path class="cls-1" d="M30.37,82A6.19,6.19,0,0,1,36.5,75.5v.15c-1.48.18-1.88,1.43-1.88,6.2,0,3.6,1.6,5.57,3.83,5.57A5.43,5.43,0,0,0,42.1,86.1v.15a7,7,0,0,1-5.3,2.25A6.34,6.34,0,0,1,30.37,82Zm5.63-1c2.2,0,3.12-.7,3.12-2.8,0-1.2-.5-2.3-1.62-2.45V75.5c3.3,0,4.9,2.35,4.9,4.25a6.9,6.9,0,0,1-.13,1.3H36Z"/><path class="cls-1" d="M53.7,86.33v.15a5.26,5.26,0,0,1-4.28,2c-2.25,0-3.85-1-3.85-3.52v-8.2h-1.3l.28-.38h1V73.7a6.27,6.27,0,0,0,4.1-1.4v4.1h3.38l-.28.38h-3.1v8.27c0,1.25.48,2.55,1.65,2.55A3.72,3.72,0,0,0,53.7,86.33Z"/><path class="cls-1" d="M10.8,112.3c0-2.17,2-3.4,4.8-3.4h2.7v.15h-.75a2.48,2.48,0,0,0-2.65,2.73c0,1.37.4,2.42,1.57,2.42a2.75,2.75,0,0,0,1.83-.87v.15a5.36,5.36,0,0,1-4,2C12.2,115.5,10.77,114.3,10.8,112.3Zm1-7.07c0-1.28,1.15-2.58,4.55-2.73v.15a1.83,1.83,0,0,0-1.6,1.83c0,.9.62,1.45,1.62,1.52a2.8,2.8,0,0,1-2.4,1.2A2,2,0,0,1,11.8,105.23Zm7.25,7.45V105c0-1.23-.48-2.2-1.7-2.38v-.15c4.15.15,5.8,1.73,5.8,5v6.08c0,.72.25,1,.7,1s.8-.37,1.2-1.12h.15a3.12,3.12,0,0,1-3.25,2C20,115.5,19.05,114.8,19.05,112.68Z"/><path class="cls-1" d="M39.15,115.35v.15a9.46,9.46,0,0,1-4.85-1.22l-.83,1.22h-.2v-6.1h.2A8.38,8.38,0,0,0,39.15,115.35Zm7.35-5c0,3.22-2.4,5-6.28,5.12v-.15c1.38-.25,2.73-1,2.73-2.55,0-4.37-9.55-4.77-9.55-9.85,0-3,2.42-4.72,5.75-5v.15a2.37,2.37,0,0,0-2.2,2.3C37,104.83,46.5,105.3,46.5,110.38ZM40.22,98.15V98a8.05,8.05,0,0,1,4.5,1.33l.9-1.33h.2v5.58h-.2A8,8,0,0,0,40.22,98.15Z"/><path class="cls-1" d="M57.9,113.33v.15a5.26,5.26,0,0,1-4.28,2c-2.25,0-3.85-1-3.85-3.52v-8.2h-1.3l.28-.38h1v-2.7a6.27,6.27,0,0,0,4.1-1.4v4.1h3.38l-.28.38h-3.1v8.27c0,1.25.48,2.55,1.65,2.55A3.72,3.72,0,0,0,57.9,113.33Z"/><path class="cls-1" d="M58.7,112.3c0-2.17,2-3.4,4.8-3.4h2.7v.15h-.75a2.48,2.48,0,0,0-2.65,2.73c0,1.37.4,2.42,1.57,2.42a2.75,2.75,0,0,0,1.83-.87v.15a5.36,5.36,0,0,1-4,2C60.1,115.5,58.67,114.3,58.7,112.3Zm1-7.07c0-1.28,1.15-2.58,4.55-2.73v.15a1.83,1.83,0,0,0-1.6,1.83c0,.9.62,1.45,1.62,1.52a2.8,2.8,0,0,1-2.4,1.2A2,2,0,0,1,59.7,105.23ZM67,112.68V105c0-1.23-.48-2.2-1.7-2.38v-.15c4.15.15,5.8,1.73,5.8,5v6.08c0,.72.25,1,.7,1s.8-.37,1.2-1.12h.15a3.12,3.12,0,0,1-3.25,2C67.85,115.5,67,114.8,67,112.68Z"/><path class="cls-1" d="M79.87,113.83c0,.62.38,1.27,1.88,1.27v.15H73.87v-.15c1.5,0,1.88-.65,1.88-1.27V105c0-.9-.43-1.32-1.85-1.32v-.15a15.18,15.18,0,0,0,6-1Zm6.75-8.63a2.67,2.67,0,0,1-2.57,2.85,1.71,1.71,0,0,1-1.43-.55,1.82,1.82,0,0,0,1-1.7,1.33,1.33,0,0,0-1.4-1.35,1.72,1.72,0,0,0-1.5,1v-.2A3.46,3.46,0,0,1,84,102.5,2.54,2.54,0,0,1,86.62,105.2Z"/><path class="cls-1" d="M11.07,142.25v-.15c1.5,0,1.88-.58,1.88-1.27V126.7c0-.7-.38-1.3-1.88-1.3v-.15H17.2v17Zm14-17v4.63h-.2c-1.08-3.15-2.6-4.23-6.4-4.48v-.15Zm-6.6,8.28v-.15l1.37-.13a3.82,3.82,0,0,0,3.3-2.15h.2v4.65h-.2a3.8,3.8,0,0,0-3.3-2.1Zm0,8.57c3.8-.25,5.57-1.32,6.92-4.47h.2v4.62H18.45Z"/><path class="cls-1" d="M27.42,142.1c1.5,0,1.88-.65,1.88-1.27V132c0-.9-.43-1.32-1.85-1.32v-.15a15.18,15.18,0,0,0,6-1v11.33c0,.62.38,1.27,1.88,1.27v.15H27.42Zm8.8,0c1.48,0,1.85-.65,1.85-1.27V133c0-1.4-.72-2.13-2-2.13a2.67,2.67,0,0,0-1.9.78v-.15a5.1,5.1,0,0,1,4.15-2c2.25,0,3.85,1.05,3.85,3.53v7.8c0,.62.37,1.27,1.87,1.27v.15H36.22Z"/><path class="cls-1" d="M54.67,140.33v.15a5.25,5.25,0,0,1-4.27,2c-2.25,0-3.85-1-3.85-3.52v-8.2h-1.3l.27-.38h1v-2.7a6.31,6.31,0,0,0,4.1-1.4v4.1H54l-.27.38h-3.1v8.27c0,1.25.47,2.55,1.65,2.55A3.68,3.68,0,0,0,54.67,140.33Z"/><path class="cls-1" d="M61.12,140.83c0,.62.38,1.27,1.88,1.27v.15H55.12v-.15c1.5,0,1.88-.65,1.88-1.27v-14.5c0-.9-.43-1.33-1.85-1.33v-.15a15.37,15.37,0,0,0,6-1Zm8.75-7.8v7.8c0,.62.38,1.27,1.87,1.27v.15H63.9v-.15c1.47,0,1.85-.65,1.85-1.27V133a1.86,1.86,0,0,0-2-2.13,2.67,2.67,0,0,0-1.9.78v-.15a5.12,5.12,0,0,1,4.15-2C68.27,129.5,69.87,130.55,69.87,133Z"/><path class="cls-1" d="M78.37,139c0,1.39.48,2.12,1.73,2.12a2.21,2.21,0,0,0,1.72-.77v.15a4.16,4.16,0,0,1-3.87,2c-2.25,0-3.7-1.05-3.7-3.52v-7c0-.9-.43-1.32-1.85-1.32v-.15a15.18,15.18,0,0,0,6-1Zm8.33,1.6c0,.72.22,1,.67,1s.8-.37,1.2-1.12h.15c-.4,1.37-1.75,2-3.4,2s-2.75-1-2.75-2.45V132c0-.9-.42-1.32-1.77-1.32v-.15a16.15,16.15,0,0,0,5.9-1Z"/><path class="cls-1" d="M94.52,139.28a1.28,1.28,0,0,0-1.4,1.25c0,.72.5,1.64,2.23,1.82v.15c-3.33-.13-5.15-1-5.15-2.47a2,2,0,0,1,2.12-1.85A2.53,2.53,0,0,1,94.52,139.28Zm.83-9.63c-.93.18-1.83.65-1.8,1.68.07,2.9,8.17,3.37,8.17,7.35,0,2.42-2,3.69-5.27,3.82v-.15c1-.18,2.22-.55,2.22-1.85,0-2.6-8.2-3.55-8.2-7.35,0-2.2,2.08-3.52,4.88-3.65Zm5.9,2.43a1.64,1.64,0,0,1-1.85,1.55,2.16,2.16,0,0,1-2.13-1.2,1.12,1.12,0,0,0,1.13-1.18c0-.75-1-1.47-2-1.6v-.15C99.27,129.65,101.25,130.68,101.25,132.08Z"/><path class="cls-1" d="M103.42,130.45a15.42,15.42,0,0,0,6-1v11.35c0,.62.37,1.27,1.87,1.27v.15H103.4v-.15c1.5,0,1.87-.65,1.87-1.27v-8.9c0-.9-.42-1.33-1.85-1.33Zm1.28-4.7a2.58,2.58,0,1,1,2.55,2.2A2.27,2.27,0,0,1,104.7,125.75Z"/><path class="cls-1" d="M112.52,139.3c0-2.17,2-3.4,4.8-3.4H120v.15h-.75a2.48,2.48,0,0,0-2.65,2.73c0,1.37.4,2.42,1.58,2.42a2.72,2.72,0,0,0,1.82-.87v.15a5.34,5.34,0,0,1-4,2C113.92,142.5,112.5,141.3,112.52,139.3Zm1-7.07c0-1.28,1.15-2.58,4.55-2.73v.15a1.83,1.83,0,0,0-1.6,1.83c0,.9.63,1.45,1.63,1.52a2.82,2.82,0,0,1-2.4,1.2A2,2,0,0,1,113.52,132.23Zm7.25,7.45V132c0-1.23-.47-2.2-1.7-2.38v-.15c4.15.15,5.8,1.73,5.8,5v6.08c0,.72.25,1,.7,1s.8-.37,1.2-1.12h.15a3.12,3.12,0,0,1-3.25,2C121.67,142.5,120.77,141.8,120.77,139.68Z"/><path class="cls-1" d="M132.5,139.28a1.27,1.27,0,0,0-1.4,1.25c0,.72.5,1.64,2.22,1.82v.15c-3.32-.13-5.15-1-5.15-2.47a2,2,0,0,1,2.13-1.85A2.54,2.54,0,0,1,132.5,139.28Zm.82-9.63c-.92.18-1.82.65-1.8,1.68.08,2.9,8.17,3.37,8.17,7.35,0,2.42-2,3.69-5.27,3.82v-.15c1.05-.18,2.23-.55,2.23-1.85,0-2.6-8.2-3.55-8.2-7.35,0-2.2,2.07-3.52,4.87-3.65Zm5.9,2.43a1.64,1.64,0,0,1-1.85,1.55,2.13,2.13,0,0,1-2.12-1.2,1.11,1.11,0,0,0,1.12-1.18c0-.75-1-1.47-2-1.6v-.15C137.25,129.65,139.22,130.68,139.22,132.08Z"/><path class="cls-1" d="M151.05,140.33v.15a5.26,5.26,0,0,1-4.28,2c-2.25,0-3.85-1-3.85-3.52v-8.2h-1.3l.28-.38h1v-2.7a6.27,6.27,0,0,0,4.1-1.4v4.1h3.38l-.28.38H147v8.27c0,1.25.48,2.55,1.65,2.55A3.72,3.72,0,0,0,151.05,140.33Z"/><path class="cls-1" d="M167.32,131.5v.2a2.82,2.82,0,0,0-2.1-.92c-1.25,0-2.42.57-2.42,5.1s1.25,5.32,2.42,5.32a3.52,3.52,0,0,0,2.1-.87v.15a4.69,4.69,0,0,1-3.65,2c-2.37,0-5.12-1.4-5.12-6.62,0-5,2.7-6.38,5.12-6.38A4.65,4.65,0,0,1,167.32,131.5Zm4.87,14.55c0,.9.43,1.32,1.85,1.32v.15a16.28,16.28,0,0,0-6,1V130.43a16.09,16.09,0,0,0,4.12-1Z"/><path class="cls-1" d="M180.57,139c0,1.39.48,2.12,1.73,2.12a2.21,2.21,0,0,0,1.72-.77v.15a4.16,4.16,0,0,1-3.87,2c-2.25,0-3.7-1.05-3.7-3.52v-7c0-.9-.43-1.32-1.85-1.32v-.15a15.18,15.18,0,0,0,6-1Zm8.32,1.6c0,.72.23,1,.68,1s.8-.37,1.2-1.12h.15c-.4,1.37-1.75,2-3.4,2s-2.75-1-2.75-2.45V132c0-.9-.42-1.32-1.77-1.32v-.15a16.13,16.13,0,0,0,5.89-1Z"/><path class="cls-1" d="M198.6,129.65c-1.48.18-2,1.43-2,6.3,0,4.7.5,6.25,2,6.4v.15a6.37,6.37,0,0,1-6.23-6.55,6.27,6.27,0,0,1,6.23-6.45Zm7.19,6.3a6.36,6.36,0,0,1-6.19,6.55v-.15c1.47-.15,1.94-1.73,1.94-6.4,0-4.9-.5-6.15-1.94-6.3v-.15A6.23,6.23,0,0,1,205.79,136Z"/><path class="cls-1" d="M217.14,140.33v.15a5.25,5.25,0,0,1-4.27,2c-2.25,0-3.85-1-3.85-3.52v-8.2h-1.3l.28-.38h1v-2.7a6.27,6.27,0,0,0,4.1-1.4v4.1h3.37l-.27.38h-3.1v8.27c0,1.25.48,2.55,1.65,2.55A3.68,3.68,0,0,0,217.14,140.33Z"/><path class="cls-1" d="M218.07,136a6.19,6.19,0,0,1,6.13-6.45v.15c-1.48.18-1.88,1.43-1.88,6.2,0,3.6,1.6,5.57,3.82,5.57a5.39,5.39,0,0,0,3.65-1.32v.15a7,7,0,0,1-5.3,2.25A6.34,6.34,0,0,1,218.07,136Zm5.63-1c2.19,0,3.12-.7,3.12-2.8,0-1.2-.5-2.3-1.63-2.45v-.15c3.3,0,4.9,2.35,4.9,4.25a7.85,7.85,0,0,1-.12,1.3H223.7Z"/><rect class="cls-2" width="300" height="150"/></svg>