<?xml version="1.0" encoding="utf-8"?>
<!-- Generator: Adobe Illustrator 24.0.3, SVG Export Plug-In . SVG Version: 6.00 Build 0)  -->
<svg version="1.1" id="Layer_1" xmlns="http://www.w3.org/2000/svg" xmlns:xlink="http://www.w3.org/1999/xlink" x="0px" y="0px"
	 viewBox="0 0 300 150" style="enable-background:new 0 0 300 150;" xml:space="preserve">
<style type="text/css">
	.st0{enable-background:new    ;}
	.st1{fill:#263845;}
	.st2{fill:none;}
</style>
<title>Artboard 1 copy</title>
<g class="st0">
	<path class="st1" d="M10.7,93.1c1.5,0,1.9-0.6,1.9-1.3V77.7c0-0.7-0.4-1.3-1.9-1.3v-0.2h8v0.2c-1.5,0-1.9,0.6-1.9,1.3v14.1
		c0,0.7,0.4,1.3,1.9,1.3v0.2h-8V93.1z"/>
</g>
<g class="st0">
	<path class="st1" d="M24.9,90.3c-0.8,0-1.4,0.5-1.4,1.2c0,0.7,0.5,1.6,2.2,1.8v0.2c-3.3-0.1-5.1-1-5.1-2.5c0-1.1,1-1.8,2.1-1.8
		C23.7,89.2,24.5,89.7,24.9,90.3z M25.7,80.7c-0.9,0.2-1.8,0.6-1.8,1.7c0.1,2.9,8.2,3.4,8.2,7.3c0,2.4-2,3.7-5.3,3.8v-0.2
		c1-0.2,2.2-0.5,2.2-1.8c0-2.6-8.2-3.5-8.2-7.3c0-2.2,2.1-3.5,4.9-3.6V80.7z M31.6,83.1c0,0.8-0.6,1.5-1.8,1.5c-1,0-1.8-0.5-2.1-1.2
		c0.8-0.1,1.1-0.6,1.1-1.2c0-0.8-1-1.5-1.9-1.6v-0.2C29.6,80.7,31.6,81.7,31.6,83.1z"/>
</g>
<g class="st0">
	<path class="st1" d="M39.9,81.8c-0.2-0.5-0.6-0.9-1.4-0.9v-0.2h7v0.2c-0.9,0-1.2,0.6-0.8,1.5l3.3,6.8l-2.1,4h-0.1L39.9,81.8z
		 M38.8,97.3c0-1.1,0.9-2,2.2-2.3c-0.1,0.2-0.1,0.4-0.1,0.6c0,0.9,0.5,1.7,1.5,1.7c0.9,0,1.6-0.9,2.5-2.5h0.2
		c-1.4,2.6-2.3,4.8-4.1,4.8C39.6,99.5,38.8,98.6,38.8,97.3z M49,86.8c0.4-0.8,0.7-1.9,0.7-3.2c0-1.4-0.8-2.6-2.5-2.6v-0.2h6.2v0.2
		c-0.8,0-1.1,0.3-1.6,1.2L49.2,87L49,86.8z"/>
</g>
<g class="st0">
	<path class="st1" d="M59.8,80.7c-1.5,0.2-2,1.4-2,6.3c0,4.7,0.5,6.2,2,6.4v0.2c-2.9,0-6.2-2.3-6.2-6.5c0-4.2,3.3-6.4,6.2-6.4V80.7z
		 M67,87c0,4.2-3.3,6.5-6.2,6.5v-0.2c1.5-0.1,1.9-1.7,1.9-6.4c0-4.9-0.5-6.1-1.9-6.3v-0.2C63.7,80.5,67,82.7,67,87z"/>
	<path class="st1" d="M74.3,90c0,1.4,0.5,2.1,1.7,2.1c0.6,0,1.2-0.2,1.7-0.8v0.2c-0.6,1.1-1.8,2-3.9,2c-2.2,0-3.7-1-3.7-3.5v-7
		c0-0.9-0.4-1.3-1.8-1.3v-0.2c2.3,0,4.2-0.2,6-1V90z M82.7,91.6c0,0.7,0.2,1,0.7,1c0.4,0,0.8-0.4,1.2-1.1h0.1c-0.4,1.4-1.7,2-3.4,2
		c-1.8,0-2.7-1-2.7-2.4V83c0-0.9-0.4-1.3-1.8-1.3v-0.2c2.2,0,3.8-0.2,5.9-1V91.6z"/>
</g>
<g class="st0">
	<path class="st1" d="M91.7,91.8c0,0.6,0.4,1.3,1.9,1.3v0.2h-7.9v-0.2c1.5,0,1.9-0.6,1.9-1.3V83c0-0.9-0.4-1.3-1.8-1.3v-0.2
		c2.3,0,4.2-0.2,6-1V91.8z M98.4,83.2c0,1.7-1.2,2.8-2.6,2.8c-0.6,0-1.1-0.2-1.4-0.5c0.5-0.2,1-0.8,1-1.7c0-0.7-0.5-1.3-1.4-1.3
		c-0.6,0-1.2,0.4-1.5,0.9v-0.2c0.5-1.6,1.7-2.7,3.2-2.7C97.5,80.5,98.4,81.7,98.4,83.2z"/>
</g>
<g class="st0">
	<path class="st1" d="M17.1,104.7c-1.5,0.2-2.1,1.4-2.1,6.2c0,3.6,1.8,5.6,4,5.6c1.4,0,2.5-0.4,3.6-1.3v0.1
		c-1.3,1.7-3.7,2.2-5.3,2.2c-3.2,0-6.7-2.3-6.7-6.5c0-4.2,3.5-6.4,6.4-6.4V104.7z M22.7,107.3c0,1.3-0.9,2.4-2.5,2.4
		c-1.2,0-2-0.8-2.2-1.6c0.7-0.3,1.2-1.2,1.2-1.8c0-0.6-0.1-1.5-1.1-1.7v-0.2C21.4,104.5,22.7,105.9,22.7,107.3z"/>
	<path class="st1" d="M24.3,114.3c0-2.2,2-3.4,4.8-3.4h2.7v0.2H31c-1.8,0-2.6,1.2-2.6,2.7c0,1.4,0.4,2.4,1.6,2.4
		c0.7,0,1.3-0.4,1.8-0.9v0.2c-0.8,0.9-2.1,2-4,2C25.7,117.5,24.3,116.3,24.3,114.3z M25.3,107.2c0-1.3,1.1-2.6,4.5-2.7v0.2
		c-1,0.1-1.6,0.9-1.6,1.8c0,0.9,0.6,1.5,1.6,1.5c-0.4,0.7-1.4,1.2-2.4,1.2C26.1,109.2,25.3,108.3,25.3,107.2z M32.5,114.7V107
		c0-1.2-0.5-2.2-1.7-2.4v-0.2c4.1,0.2,5.8,1.7,5.8,5v6.1c0,0.7,0.2,1,0.7,1c0.4,0,0.8-0.4,1.2-1.1h0.1c-0.4,1.4-1.7,2-3.2,2
		C33.4,117.5,32.5,116.8,32.5,114.7z"/>
</g>
<g class="st0">
	<path class="st1" d="M45.5,115.8c0,0.6,0.4,1.3,1.9,1.3v0.2h-7.9v-0.2c1.5,0,1.9-0.6,1.9-1.3V107c0-0.9-0.4-1.3-1.8-1.3v-0.2
		c2.3,0,4.2-0.2,6-1V115.8z M52.2,107.2c0,1.7-1.2,2.8-2.6,2.8c-0.6,0-1.1-0.2-1.4-0.5c0.5-0.2,1-0.8,1-1.7c0-0.7-0.5-1.3-1.4-1.3
		c-0.6,0-1.2,0.4-1.5,0.9v-0.2c0.5-1.6,1.7-2.7,3.2-2.7C51.3,104.5,52.2,105.7,52.2,107.2z"/>
</g>
<g class="st0">
	<path class="st1" d="M15.1,138.3c-0.8,0-1.4,0.5-1.4,1.2c0,0.7,0.5,1.6,2.2,1.8v0.2c-3.3-0.1-5.1-1-5.1-2.5c0-1.1,1-1.8,2.1-1.8
		C13.9,137.2,14.7,137.7,15.1,138.3z M15.9,128.7c-0.9,0.2-1.8,0.6-1.8,1.7c0.1,2.9,8.2,3.4,8.2,7.3c0,2.4-2,3.7-5.3,3.8v-0.2
		c1-0.2,2.2-0.5,2.2-1.8c0-2.6-8.2-3.5-8.2-7.3c0-2.2,2.1-3.5,4.9-3.6V128.7z M21.8,131.1c0,0.8-0.6,1.5-1.8,1.5
		c-1,0-1.8-0.5-2.1-1.2c0.8-0.1,1.1-0.6,1.1-1.2c0-0.8-1-1.5-1.9-1.6v-0.2C19.8,128.7,21.8,129.7,21.8,131.1z"/>
	<path class="st1" d="M29.7,145.1c0,0.9,0.4,1.3,1.8,1.3v0.1c-2.3,0-3.9,0.2-6,1v-16.6c0-0.9-0.4-1.3-1.8-1.3v-0.1
		c2.3,0,3.9-0.2,6-1V145.1z M39.2,134.9c0,5.2-2.7,6.6-5.1,6.6c-1.4,0-3-1-3.6-2v-0.2c0.6,0.5,1.3,0.9,2.1,0.9
		c1.2,0,2.4-0.8,2.4-5.3c0-4.5-1.2-5.1-2.4-5.1c-0.8,0-1.5,0.3-2.1,0.9v-0.2c0.6-1,2.2-2,3.6-2C36.5,128.5,39.2,129.9,39.2,134.9z"
		/>
	<path class="st1" d="M41.4,135c0-4.2,3.2-6.4,6.1-6.4v0.2c-1.5,0.2-1.9,1.4-1.9,6.2c0,3.6,1.6,5.6,3.8,5.6c1.4,0,2.5-0.4,3.6-1.3
		v0.1c-1.3,1.7-3.7,2.2-5.3,2.2C44.6,141.5,41.4,139.2,41.4,135z M47,133.9c2.2,0,3.1-0.7,3.1-2.8c0-1.2-0.5-2.3-1.6-2.4v-0.2
		c3.3,0,4.9,2.3,4.9,4.2c0,0.4,0,0.9-0.1,1.3H47V133.9z"/>
	<path class="st1" d="M61.9,128.7c-1.5,0.2-2.1,1.4-2.1,6.2c0,3.6,1.8,5.6,4,5.6c1.4,0,2.5-0.4,3.6-1.3v0.1
		c-1.3,1.7-3.7,2.2-5.3,2.2c-3.2,0-6.7-2.3-6.7-6.5c0-4.2,3.5-6.4,6.4-6.4V128.7z M67.4,131.3c0,1.3-0.9,2.4-2.5,2.4
		c-1.2,0-2-0.8-2.2-1.6c0.7-0.3,1.2-1.2,1.2-1.8c0-0.6-0.1-1.5-1.1-1.7v-0.2C66.2,128.5,67.4,129.9,67.4,131.3z"/>
	<path class="st1" d="M68.9,129.5c2.3,0,4.2-0.2,6-1v11.3c0,0.6,0.4,1.3,1.9,1.3v0.2h-7.9v-0.2c1.5,0,1.9-0.6,1.9-1.3v-8.9
		c0-0.9-0.4-1.3-1.8-1.3V129.5z M70.2,124.8c0-1.3,1-2.2,2.5-2.2c1.5,0,2.5,0.9,2.5,2.2c0,1.3-1,2.2-2.5,2.2
		C71.2,127,70.2,126.1,70.2,124.8z"/>
	<path class="st1" d="M78,138.3c0-2.2,2-3.4,4.8-3.4h2.7v0.2h-0.7c-1.8,0-2.6,1.2-2.6,2.7c0,1.4,0.4,2.4,1.6,2.4
		c0.7,0,1.3-0.4,1.8-0.9v0.2c-0.8,0.9-2.1,2-4,2C79.4,141.5,78,140.3,78,138.3z M79,131.2c0-1.3,1.1-2.6,4.5-2.7v0.2
		c-1,0.1-1.6,0.9-1.6,1.8c0,0.9,0.6,1.5,1.6,1.5c-0.4,0.7-1.4,1.2-2.4,1.2C79.8,133.2,79,132.3,79,131.2z M86.3,138.7V131
		c0-1.2-0.5-2.2-1.7-2.4v-0.2c4.1,0.2,5.8,1.7,5.8,5v6.1c0,0.7,0.2,1,0.7,1c0.4,0,0.8-0.4,1.2-1.1h0.1c-0.4,1.4-1.7,2-3.2,2
		C87.2,141.5,86.3,140.8,86.3,138.7z"/>
	<path class="st1" d="M93.1,123.9c2.3,0,4.2-0.2,6-1v16.9c0,0.6,0.4,1.3,1.9,1.3v0.2H93v-0.2c1.5,0,1.9-0.6,1.9-1.3v-14.5
		c0-0.9-0.4-1.3-1.8-1.3V123.9z"/>
	<path class="st1" d="M102.1,127.4c0-2.2,3-3.3,5.3-3.4v0.2c-1.2,0.3-1.8,1.4-1.8,2.4c0,0.9,0.4,1.7,1.4,2.2c-0.4,0.6-1.2,1-2.3,1
		C103.4,129.7,102.1,129,102.1,127.4z M105.8,140.7c0-1.4,1.1-2.3,2.7-2.3c1.6,0,2.7,0.9,2.7,2.3c0,1.4-1.1,2.3-2.7,2.3
		C106.9,143,105.8,142.1,105.8,140.7z M106.5,133.6c0-2.8,4-3.6,4-6.8c0-1.3-0.5-2.2-1.8-2.6V124c3.4,0.2,6,1.3,6,4.1
		c0,3.4-5.4,4.5-5.4,6.7c0,0.6,0.2,1.1,0.9,1.4l0,0.2C107.7,136.4,106.5,135.2,106.5,133.6z"/>
</g>
<rect y="0" class="st2" width="300" height="150"/>
</svg>
