<svg id="Layer_1" data-name="Layer 1" xmlns="http://www.w3.org/2000/svg" viewBox="0 0 300 250"><defs><style>.cls-1{fill:#fff;}.cls-2{fill:none;}</style></defs><title>Artboard 1 copy</title><path class="cls-1" d="M27.12,40.22l.22.33.22,11.76a2.45,2.45,0,0,0,2.75,2.35v.17H24.15v-.17a2.45,2.45,0,0,0,2.74-2.35ZM42,54.83H38.85L27.14,37.39a3,3,0,0,0-3-1.43v-.17h7.47L42,51.22Zm-.06-6.44-.22-.31-.34-9.77A2.45,2.45,0,0,0,38.6,36v-.17h6.16V36A2.45,2.45,0,0,0,42,38.31Z"/><path class="cls-1" d="M57.27,35.79h5.35l-11.12,19H46.18ZM47,35.79h8.45l-.08.17a8.62,8.62,0,0,0-8.15,6.58H47Zm6.41,18.87a9.55,9.55,0,0,0,8.73-7.47h.23v7.64h-9Z"/><path class="cls-1" d="M70.43,36.69c0,1.62-1.73,3.78-4.53,4.93l-.09-.26a3.89,3.89,0,0,0,1.6-2.71A1.77,1.77,0,0,0,65.5,36.8a2.6,2.6,0,0,1,2.66-2.55A2.25,2.25,0,0,1,70.43,36.69Z"/><path class="cls-1" d="M76.17,51.5a1.44,1.44,0,0,0-1.57,1.4c0,.81.56,1.85,2.5,2v.17C73.37,55,71.33,54,71.33,52.34a2.18,2.18,0,0,1,2.38-2.07A2.84,2.84,0,0,1,76.17,51.5Zm.93-10.78c-1,.2-2,.73-2,1.88.08,3.24,9.16,3.78,9.16,8.23,0,2.71-2.3,4.14-5.91,4.28v-.17c1.17-.19,2.49-.61,2.49-2.07,0-2.91-9.18-4-9.18-8.23,0-2.46,2.32-4,5.46-4.09Zm6.6,2.72a1.83,1.83,0,0,1-2.07,1.73,2.41,2.41,0,0,1-2.38-1.34,1.25,1.25,0,0,0,1.26-1.32c0-.84-1.06-1.65-2.18-1.79v-.17C81.49,40.72,83.7,41.87,83.7,43.44Z"/><path class="cls-1" d="M93.06,35.34a17.19,17.19,0,0,0,6.69-1.09v19c0,.7.42,1.42,2.1,1.42v.17H93v-.17c1.68,0,2.1-.72,2.1-1.42V37c0-1-.48-1.49-2.07-1.49Z"/><path class="cls-1" d="M103.53,47.78a6.93,6.93,0,0,1,6.86-7.23v.17c-1.66.2-2.1,1.6-2.1,6.94,0,4,1.79,6.25,4.28,6.25a6.09,6.09,0,0,0,4.09-1.49v.17a7.86,7.86,0,0,1-5.94,2.52A7.09,7.09,0,0,1,103.53,47.78Zm6.3-1.18c2.46,0,3.5-.78,3.5-3.14,0-1.34-.56-2.57-1.82-2.74v-.17c3.69,0,5.49,2.63,5.49,4.76a7.77,7.77,0,0,1-.15,1.46h-7Z"/><path class="cls-1" d="M119,51.53c0-2.44,2.24-3.81,5.38-3.81h3v.17h-.84a2.77,2.77,0,0,0-3,3c0,1.54.45,2.72,1.77,2.72a3.08,3.08,0,0,0,2-1v.16A5.93,5.93,0,0,1,123,55.11C120.58,55.11,119,53.77,119,51.53Zm1.12-7.93c0-1.42,1.29-2.88,5.1-3.05v.17a2,2,0,0,0-1.8,2c0,1,.7,1.63,1.82,1.71a3.12,3.12,0,0,1-2.68,1.35A2.25,2.25,0,0,1,120.13,43.6ZM128.25,52V43.38c0-1.37-.53-2.46-1.9-2.66v-.17c4.64.17,6.49,1.93,6.49,5.6V53c0,.81.28,1.14.79,1.14s.89-.42,1.34-1.26h.17c-.45,1.54-2,2.27-3.64,2.27C129.26,55.11,128.25,54.33,128.25,52Z"/><path class="cls-1" d="M146.45,42.79V43a3.12,3.12,0,0,0-2.32-1c-1.4,0-2.75.64-2.75,5.71s1.43,6,2.75,6a3.87,3.87,0,0,0,2.32-1v.16a5.18,5.18,0,0,1-4.06,2.27c-2.66,0-5.77-1.57-5.77-7.42,0-5.57,3-7.14,5.77-7.14A5.18,5.18,0,0,1,146.45,42.79ZM151.91,53c0,.81.25,1.14.76,1.14s.89-.42,1.34-1.26h.17c-.45,1.54-2,2.27-3.64,2.27-2.24,0-3.25-.78-3.25-3.16V37c0-1-.48-1.49-2.07-1.49v-.17a18.39,18.39,0,0,0,6.69-1.09Z"/><path class="cls-1" d="M155.35,41.62a17,17,0,0,0,6.7-1.1V53.24c0,.7.42,1.42,2.1,1.42v.17h-8.82v-.17c1.68,0,2.1-.72,2.1-1.42v-10c0-1-.48-1.49-2.08-1.49Zm1.43-5.27c0-1.45,1.18-2.43,2.86-2.43s2.85,1,2.85,2.43-1.17,2.47-2.85,2.47S156.78,37.84,156.78,36.35Z"/><path class="cls-1" d="M165.32,54.66c1.68,0,2.1-.72,2.1-1.42V43.3c0-1-.47-1.49-2.07-1.49v-.17A17.19,17.19,0,0,0,172,40.55V53.24c0,.7.42,1.42,2.1,1.42v.17h-8.82Zm9.86,0c1.65,0,2.07-.72,2.07-1.42V44.5c0-1.57-.81-2.38-2.21-2.38a3,3,0,0,0-2.13.87v-.17a5.72,5.72,0,0,1,4.65-2.27c2.52,0,4.31,1.18,4.31,4v8.74c0,.7.42,1.42,2.1,1.42v.17h-8.79Z"/><path class="cls-1" d="M185.62,45.62c0-3.64,3.42-5,6.27-5.07v.17c-1.2.11-1.76,1.57-1.76,4.82s.56,4.76,1.76,4.87v.17C189.07,50.58,185.62,49.23,185.62,45.62Zm7.45,16c2.8-.33,3.7-1.84,3.7-2.85,0-3.89-10.92-.42-10.92-5.43a3.29,3.29,0,0,1,1.87-2.86l.09.14a.65.65,0,0,0-.26.53c0,3.14,12.77-.5,12.77,5.6,0,2.89-2.49,4.76-7.25,5Zm-7.22-2.35c0-1.65,2-2.15,4.25-2.15a2.34,2.34,0,0,0-1.2,2c0,1.29,1.45,2.27,3,2.52v.17C189,61.78,185.85,61.16,185.85,59.31Zm7.22-8.9c1.37-.11,1.93-1.49,1.93-4.87s-.59-4.71-1.93-4.82v-.17c3,.06,6.41,1.43,6.41,5.07s-3.44,5-6.41,5Zm1.51-10.36c.48-1.43,1.77-3.36,3.7-3.36,1.48,0,2.38.78,2.38,2.13A2.24,2.24,0,0,1,198.39,41c0-1.18-.62-1.88-1.51-1.88a3.06,3.06,0,0,0-2.16,1Z"/><path class="cls-1" d="M30.84,83.24c0,.7.42,1.42,2.1,1.42v.17H24.12v-.17c1.68,0,2.1-.72,2.1-1.42V73.3c0-1-.48-1.49-2.07-1.49v-.17a17.19,17.19,0,0,0,6.69-1.09Zm9.3-8.74v8.74c0,.7.39,1.42,2.07,1.42v.17H33.42v-.17c1.65,0,2.1-.72,2.1-1.42V74.5c0-1.57-.62-2.38-2-2.38a2.44,2.44,0,0,0-1.85.84v-.17a4.53,4.53,0,0,1,4.09-2.24C38.46,70.55,40.14,71.73,40.14,74.5Zm9.26,0v8.74c0,.7.42,1.42,2.1,1.42v.17H42.68v-.17c1.66,0,2.1-.72,2.1-1.42V74.5c0-1.57-.61-2.38-2-2.38A2.43,2.43,0,0,0,41,73v-.17a4.53,4.53,0,0,1,4.08-2.24C47.72,70.55,49.4,71.73,49.4,74.5Z"/><path class="cls-1" d="M60,70.72c-1.65.2-2.21,1.6-2.21,7.06,0,5.26.56,7,2.21,7.16v.17a7.13,7.13,0,0,1-7-7.33,7,7,0,0,1,7-7.23Zm8.06,7.06a7.13,7.13,0,0,1-6.94,7.33v-.17c1.65-.16,2.18-1.93,2.18-7.16,0-5.49-.56-6.89-2.18-7.06v-.17A7,7,0,0,1,68.05,77.78Z"/><path class="cls-1" d="M80.76,82.68v.16A5.83,5.83,0,0,1,76,85.11c-2.52,0-4.32-1.15-4.32-4V72H70.21l.31-.42h1.14v-3A7.09,7.09,0,0,0,76.25,67v4.59H80l-.31.42H76.25v9.27c0,1.4.54,2.85,1.85,2.85A4.11,4.11,0,0,0,80.76,82.68Z"/><path class="cls-1" d="M88.77,70.72c-1.65.2-2.21,1.6-2.21,7.06,0,5.26.56,7,2.21,7.16v.17a7.13,7.13,0,0,1-7-7.33,7,7,0,0,1,7-7.23Zm8.06,7.06a7.13,7.13,0,0,1-6.94,7.33v-.17c1.65-.16,2.19-1.93,2.19-7.16,0-5.49-.56-6.89-2.19-7.06v-.17A7,7,0,0,1,96.83,77.78Z"/><path class="cls-1" d="M105.4,83.24c0,.7.42,1.42,2.1,1.42v.17H98.68v-.17c1.68,0,2.1-.72,2.1-1.42V73.3c0-1-.47-1.49-2.07-1.49v-.17a17.19,17.19,0,0,0,6.69-1.09ZM113,73.58a3,3,0,0,1-2.88,3.19,1.92,1.92,0,0,1-1.6-.62,2,2,0,0,0,1.09-1.9A1.48,1.48,0,0,0,108,72.74a1.92,1.92,0,0,0-1.68,1.06v-.22a3.87,3.87,0,0,1,3.64-3A2.84,2.84,0,0,1,113,73.58Z"/><path class="cls-1" d="M121.64,70.72c-1.65.2-2.38,1.6-2.38,6.94,0,4,2,6.25,4.54,6.25a6.1,6.1,0,0,0,4.09-1.49v.17A7.86,7.86,0,0,1,122,85.11a7.32,7.32,0,0,1-7.48-7.33,7.18,7.18,0,0,1,7.17-7.23Zm6.22,3a2.6,2.6,0,0,1-2.8,2.68,2.38,2.38,0,0,1-2.44-1.76,2.42,2.42,0,0,0,1.35-2,1.66,1.66,0,0,0-1.21-1.85v-.2C126.43,70.55,127.86,72.12,127.86,73.72Z"/><path class="cls-1" d="M130.18,72a1.51,1.51,0,0,0-1.54-1v-.17h7.84V71c-1,0-1.37.67-.89,1.65l3.66,7.65-2.4,4.53h-.17ZM129,89.34a2.93,2.93,0,0,1,2.46-2.63,2.22,2.22,0,0,0-.11.7A1.63,1.63,0,0,0,133,89.28c1,0,1.77-1,2.83-2.82h.2c-1.54,2.88-2.61,5.37-4.57,5.37A2.33,2.33,0,0,1,129,89.34Zm11.48-11.79a7.61,7.61,0,0,0,.78-3.61A2.7,2.7,0,0,0,138.36,71v-.17h7V71c-.92,0-1.29.36-1.82,1.32L140.6,77.8Z"/><path class="cls-1" d="M152.64,70.72c-1.65.2-2.38,1.6-2.38,6.94,0,4,2,6.25,4.53,6.25a6.07,6.07,0,0,0,4.09-1.49v.17A7.82,7.82,0,0,1,153,85.11a7.32,7.32,0,0,1-7.48-7.33,7.18,7.18,0,0,1,7.17-7.23Zm6.21,3a2.59,2.59,0,0,1-2.8,2.68,2.37,2.37,0,0,1-2.43-1.76,2.43,2.43,0,0,0,1.34-2,1.66,1.66,0,0,0-1.2-1.85v-.2C157.43,70.55,158.85,72.12,158.85,73.72Z"/><path class="cls-1" d="M160.31,65.34A17.19,17.19,0,0,0,167,64.25v19c0,.7.42,1.42,2.1,1.42v.17h-8.82v-.17c1.68,0,2.1-.72,2.1-1.42V67c0-1-.47-1.49-2.07-1.49Z"/><path class="cls-1" d="M170.78,77.78a6.94,6.94,0,0,1,6.86-7.23v.17c-1.65.2-2.1,1.6-2.1,6.94,0,4,1.79,6.25,4.29,6.25a6.06,6.06,0,0,0,4.08-1.49v.17A7.82,7.82,0,0,1,178,85.11,7.09,7.09,0,0,1,170.78,77.78Zm6.3-1.18c2.47,0,3.5-.78,3.5-3.14,0-1.34-.56-2.57-1.82-2.74v-.17c3.7,0,5.49,2.63,5.49,4.76a8.71,8.71,0,0,1-.14,1.46h-7Z"/><path class="cls-1" d="M24.18,101.62a17,17,0,0,0,6.69-1.1v12.72c0,.7.42,1.42,2.1,1.42v.17H24.15v-.17c1.68,0,2.1-.72,2.1-1.42v-10c0-1-.48-1.49-2.07-1.49Zm1.42-5.27c0-1.45,1.18-2.43,2.86-2.43s2.86,1,2.86,2.43-1.18,2.47-2.86,2.47S25.6,97.84,25.6,96.35Z"/><path class="cls-1" d="M34.14,114.66c1.68,0,2.1-.72,2.1-1.42V103.3c0-1-.47-1.49-2.07-1.49v-.17a17.12,17.12,0,0,0,6.69-1.09v12.69c0,.7.42,1.42,2.1,1.42v.17H34.14Zm9.86,0c1.65,0,2.07-.72,2.07-1.42V104.5c0-1.57-.81-2.38-2.21-2.38a3,3,0,0,0-2.13.87v-.17a5.72,5.72,0,0,1,4.65-2.27c2.52,0,4.31,1.18,4.31,4v8.74c0,.7.42,1.42,2.1,1.42v.17H44Z"/><path class="cls-1" d="M59.18,111.5a1.43,1.43,0,0,0-1.57,1.4c0,.81.56,1.85,2.49,2v.17c-3.72-.14-5.77-1.15-5.77-2.77a2.18,2.18,0,0,1,2.38-2.07A2.86,2.86,0,0,1,59.18,111.5Zm.92-10.78c-1,.2-2,.73-2,1.88.09,3.24,9.16,3.78,9.16,8.23,0,2.71-2.3,4.14-5.91,4.28v-.17c1.18-.19,2.49-.61,2.49-2.07,0-2.91-9.18-4-9.18-8.23,0-2.46,2.32-4,5.46-4.09Zm6.61,2.72a1.83,1.83,0,0,1-2.07,1.73,2.39,2.39,0,0,1-2.38-1.34,1.26,1.26,0,0,0,1.26-1.32c0-.84-1.07-1.65-2.19-1.79v-.17C64.5,100.72,66.71,101.87,66.71,103.44Z"/><path class="cls-1" d="M75.5,111.16c0,1.57.53,2.38,1.93,2.38a2.46,2.46,0,0,0,1.93-.86v.16A4.65,4.65,0,0,1,75,115.11c-2.52,0-4.14-1.17-4.14-4V103.3c0-1-.48-1.49-2.07-1.49v-.17a17.19,17.19,0,0,0,6.69-1.09Zm9.32,1.8c0,.81.26,1.14.76,1.14s.9-.42,1.34-1.26h.17c-.45,1.54-2,2.27-3.81,2.27S80.2,114,80.2,112.37V103.3c0-1-.47-1.49-2-1.49v-.17a18.25,18.25,0,0,0,6.61-1.09Z"/><path class="cls-1" d="M94.93,113.24c0,.7.42,1.42,2.1,1.42v.17H88.21v-.17c1.68,0,2.1-.72,2.1-1.42V103.3c0-1-.48-1.49-2.07-1.49v-.17a17.19,17.19,0,0,0,6.69-1.09Zm7.56-9.66a3,3,0,0,1-2.88,3.19,1.92,1.92,0,0,1-1.6-.62,2,2,0,0,0,1.09-1.9,1.48,1.48,0,0,0-1.56-1.51,2,2,0,0,0-1.69,1.06v-.22a3.89,3.89,0,0,1,3.65-3A2.84,2.84,0,0,1,102.49,103.58Z"/><path class="cls-1" d="M103.69,111.53c0-2.44,2.25-3.81,5.38-3.81h3v.17h-.84a2.77,2.77,0,0,0-3,3c0,1.54.44,2.72,1.76,2.72a3.06,3.06,0,0,0,2-1v.16a5.92,5.92,0,0,1-4.45,2.27C105.26,115.11,103.67,113.77,103.69,111.53Zm1.12-7.93c0-1.42,1.29-2.88,5.1-3v.17a2,2,0,0,0-1.79,2c0,1,.7,1.63,1.82,1.71a3.14,3.14,0,0,1-2.69,1.35A2.25,2.25,0,0,1,104.81,103.6Zm8.12,8.35v-8.57c0-1.37-.53-2.46-1.9-2.66v-.17c4.65.17,6.5,1.93,6.5,5.6V113c0,.81.28,1.14.78,1.14s.9-.42,1.34-1.26h.17c-.45,1.54-2,2.27-3.64,2.27C113.94,115.11,112.93,114.33,112.93,112Z"/><path class="cls-1" d="M120.69,114.66c1.68,0,2.1-.72,2.1-1.42V103.3c0-1-.48-1.49-2.07-1.49v-.17a17.19,17.19,0,0,0,6.69-1.09v12.69c0,.7.42,1.42,2.1,1.42v.17h-8.82Zm9.86,0c1.65,0,2.07-.72,2.07-1.42V104.5c0-1.57-.81-2.38-2.21-2.38a3,3,0,0,0-2.13.87v-.17a5.69,5.69,0,0,1,4.65-2.27c2.52,0,4.31,1.18,4.31,4v8.74c0,.7.42,1.42,2.1,1.42v.17h-8.79Z"/><path class="cls-1" d="M148,100.72c-1.65.2-2.38,1.6-2.38,6.94,0,4,2,6.25,4.53,6.25a6.07,6.07,0,0,0,4.09-1.49v.17a7.82,7.82,0,0,1-5.93,2.52,7.32,7.32,0,0,1-7.48-7.33,7.18,7.18,0,0,1,7.17-7.23Zm6.21,3a2.59,2.59,0,0,1-2.8,2.68,2.37,2.37,0,0,1-2.43-1.76,2.43,2.43,0,0,0,1.34-2,1.66,1.66,0,0,0-1.2-1.85v-.2C152.81,100.55,154.23,102.12,154.23,103.72Z"/><path class="cls-1" d="M156.33,107.78a6.94,6.94,0,0,1,6.86-7.23v.17c-1.65.2-2.1,1.6-2.1,6.94,0,4,1.8,6.25,4.29,6.25a6.1,6.1,0,0,0,4.09-1.49v.17a7.86,7.86,0,0,1-5.94,2.52A7.1,7.1,0,0,1,156.33,107.78Zm6.3-1.18c2.47,0,3.5-.78,3.5-3.14,0-1.34-.56-2.57-1.82-2.74v-.17c3.7,0,5.49,2.63,5.49,4.76a7.77,7.77,0,0,1-.14,1.46h-7Z"/><rect class="cls-2" width="300" height="250"/></svg>