<?xml version="1.0" encoding="utf-8"?>
<!-- Generator: Adobe Illustrator 24.0.3, SVG Export Plug-In . SVG Version: 6.00 Build 0)  -->
<svg version="1.1" id="Layer_1" xmlns="http://www.w3.org/2000/svg" xmlns:xlink="http://www.w3.org/1999/xlink" x="0px" y="0px"
	 viewBox="0 0 300 250" style="enable-background:new 0 0 300 250;" xml:space="preserve">
<style type="text/css">
	.st0{enable-background:new    ;}
	.st1{fill:#FFFFFF;}
	.st2{fill:none;}
</style>
<title>Artboard 1</title>
<g class="st0">
	<path class="st1" d="M24.1,30.6c3,0,5.4-0.3,7.6-1.2V51c0,0.8,0.5,1.6,2.4,1.6v0.2H24v-0.2c1.9,0,2.4-0.8,2.4-1.6V32.4
		c0-1.2-0.5-1.7-2.4-1.7V30.6z"/>
	<path class="st1" d="M35.5,37.7c3,0,5.4-0.3,7.6-1.2V51c0,0.8,0.5,1.6,2.4,1.6v0.2H35.5v-0.2c1.9,0,2.4-0.8,2.4-1.6V39.6
		c0-1.2-0.5-1.7-2.4-1.7V37.7z M37.1,31.7c0-1.7,1.3-2.8,3.3-2.8s3.3,1.1,3.3,2.8c0,1.7-1.3,2.8-3.3,2.8S37.1,33.4,37.1,31.7z"/>
</g>
<g class="st0">
	<path class="st1" d="M47.6,38.1c-0.3-0.7-0.8-1.1-1.8-1.1v-0.2h9V37c-1.1,0-1.6,0.8-1,1.9l4.2,8.7l-2.8,5.2h-0.2L47.6,38.1z
		 M59.4,44.5c0.5-1,0.9-2.4,0.9-4.1c0-1.8-1-3.4-3.3-3.4v-0.2h8V37c-1.1,0-1.5,0.4-2.1,1.5l-3.3,6.3L59.4,44.5z"/>
</g>
<g class="st0">
	<path class="st1" d="M65.2,44.8c0-5.4,4.1-8.2,7.8-8.3v0.2c-1.9,0.2-2.4,1.8-2.4,7.9c0,4.6,2,7.1,4.9,7.1c1.8,0,3.2-0.5,4.7-1.7
		v0.2c-1.7,2.1-4.7,2.9-6.8,2.9C69.3,53.2,65.2,50.1,65.2,44.8z M72.4,43.4c2.8,0,4-0.9,4-3.6c0-1.5-0.6-2.9-2.1-3.1v-0.2
		c4.2,0,6.3,3,6.3,5.4c0,0.5-0.1,1.2-0.2,1.7h-8V43.4z"/>
	<path class="st1" d="M88.8,49c-1.1,0-1.8,0.6-1.8,1.6c0,0.9,0.6,2.1,2.8,2.3v0.2c-4.3-0.2-6.6-1.3-6.6-3.2c0-1.5,1.3-2.4,2.7-2.4
		C87.3,47.6,88.3,48.2,88.8,49z M89.9,36.7c-1.2,0.2-2.3,0.8-2.3,2.1c0.1,3.7,10.5,4.3,10.5,9.4c0,3.1-2.6,4.7-6.8,4.9V53
		c1.3-0.2,2.8-0.7,2.8-2.4c0-3.3-10.5-4.5-10.5-9.4c0-2.8,2.7-4.5,6.2-4.7V36.7z M97.4,39.8c0,1-0.8,2-2.4,2c-1.3,0-2.3-0.6-2.7-1.5
		c1-0.1,1.5-0.7,1.4-1.5c0-1-1.2-1.9-2.5-2v-0.2C94.9,36.7,97.4,38,97.4,39.8z"/>
	<path class="st1" d="M108.5,49.1c0-2.8,2.6-4.4,6.1-4.4h3.5v0.2h-1c-2.3,0-3.4,1.5-3.4,3.5c0,1.8,0.5,3.1,2,3.1
		c0.9,0,1.6-0.5,2.3-1.1v0.2c-1.1,1.2-2.8,2.6-5.1,2.6C110.3,53.2,108.5,51.6,108.5,49.1z M109.8,40c0-1.6,1.5-3.3,5.8-3.5v0.2
		c-1.3,0.2-2,1.2-2,2.3c0,1.2,0.8,1.9,2.1,2c-0.5,0.9-1.8,1.5-3.1,1.5C110.8,42.5,109.8,41.3,109.8,40z M119.1,49.5v-9.8
		c0-1.6-0.6-2.8-2.2-3v-0.2c5.3,0.2,7.4,2.2,7.4,6.4v7.8c0,0.9,0.3,1.3,0.9,1.3c0.5,0,1-0.5,1.5-1.4h0.2c-0.5,1.8-2.2,2.6-4.2,2.6
		C120.2,53.2,119.1,52.3,119.1,49.5z"/>
	<path class="st1" d="M140.3,50.4v0.2c-1,1.5-3.1,2.6-5.5,2.6c-2.9,0-4.9-1.3-4.9-4.5V38.1h-1.7l0.4-0.5h1.3v-3.5
		c2,0,3.9-0.6,5.2-1.8v5.2h4.3l-0.4,0.5h-4v10.6c0,1.6,0.6,3.3,2.1,3.3C138.2,52,139.3,51.4,140.3,50.4z"/>
</g>
<g class="st0">
	<path class="st1" d="M158,53v0.2c-2.5-0.1-4.5-0.5-6.2-1.6l-1.1,1.6h-0.3v-7.8h0.3C151.8,49,154,51.6,158,53z M167.4,46.6
		c0,4.1-3.1,6.4-8,6.6V53c1.8-0.3,3.5-1.3,3.5-3.3c0-5.6-12.2-6.1-12.2-12.6c0-3.8,3.1-6,7.4-6.3v0.2c-1.5,0.3-2.8,1.2-2.8,2.9
		C155.2,39.5,167.4,40.1,167.4,46.6z M159.3,30.9v-0.2c2.4,0.1,4.3,0.6,5.8,1.7l1.2-1.7h0.3v7.1h-0.3
		C165.2,34.5,162.5,31.7,159.3,30.9z"/>
</g>
<g class="st0">
	<path class="st1" d="M182,50.4v0.2c-1,1.5-3.1,2.6-5.5,2.6c-2.9,0-4.9-1.3-4.9-4.5V38.1h-1.7l0.4-0.5h1.3v-3.5c2,0,3.9-0.6,5.2-1.8
		v5.2h4.3l-0.4,0.5h-4v10.6c0,1.6,0.6,3.3,2.1,3.3C179.8,52,180.9,51.4,182,50.4z"/>
	<path class="st1" d="M183,49.1c0-2.8,2.6-4.4,6.1-4.4h3.5v0.2h-1c-2.3,0-3.4,1.5-3.4,3.5c0,1.8,0.5,3.1,2,3.1
		c0.9,0,1.6-0.5,2.3-1.1v0.2c-1.1,1.2-2.8,2.6-5.1,2.6C184.8,53.2,183,51.6,183,49.1z M184.3,40c0-1.6,1.5-3.3,5.8-3.5v0.2
		c-1.3,0.2-2,1.2-2,2.3c0,1.2,0.8,1.9,2.1,2c-0.5,0.9-1.8,1.5-3.1,1.5C185.3,42.5,184.3,41.3,184.3,40z M193.6,49.5v-9.8
		c0-1.6-0.6-2.8-2.2-3v-0.2c5.3,0.2,7.4,2.2,7.4,6.4v7.8c0,0.9,0.3,1.3,0.9,1.3c0.5,0,1-0.5,1.5-1.4h0.2c-0.5,1.8-2.2,2.6-4.2,2.6
		C194.7,53.2,193.6,52.3,193.6,49.5z"/>
</g>
<g class="st0">
	<path class="st1" d="M210.1,51c0,0.8,0.5,1.6,2.4,1.6v0.2h-10.1v-0.2c1.9,0,2.4-0.8,2.4-1.6V39.6c0-1.2-0.5-1.7-2.4-1.7v-0.2
		c3,0,5.4-0.3,7.6-1.2V51z M218.7,40c0,2.2-1.6,3.6-3.3,3.6c-0.8,0-1.4-0.2-1.8-0.7c0.6-0.3,1.2-1,1.2-2.2c0-0.9-0.7-1.7-1.8-1.7
		c-0.8,0-1.5,0.5-1.9,1.2V40c0.6-2,2.2-3.5,4.2-3.5C217.5,36.5,218.7,38,218.7,40z"/>
</g>
<g class="st0">
	<path class="st1" d="M24.8,84.6c1.9,0,2.4-0.8,2.4-1.6V64.9c0-0.9-0.5-1.6-2.4-1.6v-0.2h10.2v0.2c-1.9,0-2.4,0.8-2.4,1.6V83
		c0,0.9,0.5,1.6,2.4,1.6v0.2H24.8V84.6z"/>
	<path class="st1" d="M37.2,84.6c1.9,0,2.4-0.8,2.4-1.6V71.6c0-1.2-0.5-1.7-2.4-1.7v-0.2c3,0,5.4-0.3,7.6-1.2V83
		c0,0.8,0.5,1.6,2.4,1.6v0.2H37.2V84.6z M48.5,84.6c1.9,0,2.4-0.8,2.4-1.6V73c0-1.8-0.9-2.7-2.5-2.7c-0.9,0-1.7,0.3-2.4,1v-0.2
		c0.9-1.3,2.9-2.6,5.3-2.6c2.9,0,4.9,1.3,4.9,4.5v10c0,0.8,0.5,1.6,2.4,1.6v0.2h-10V84.6z"/>
	<path class="st1" d="M65.8,81c-1.1,0-1.8,0.6-1.8,1.6c0,0.9,0.6,2.1,2.8,2.3v0.2c-4.3-0.2-6.6-1.3-6.6-3.2c0-1.5,1.3-2.4,2.7-2.4
		C64.3,79.6,65.3,80.2,65.8,81z M66.9,68.7c-1.2,0.2-2.3,0.8-2.3,2.1c0.1,3.7,10.5,4.3,10.5,9.4c0,3.1-2.6,4.7-6.8,4.9V85
		c1.3-0.2,2.8-0.7,2.8-2.4c0-3.3-10.5-4.5-10.5-9.4c0-2.8,2.7-4.5,6.2-4.7V68.7z M74.4,71.8c0,1-0.8,2-2.4,2c-1.3,0-2.3-0.6-2.7-1.5
		c1-0.1,1.5-0.7,1.4-1.5c0-1-1.2-1.9-2.5-2v-0.2C71.9,68.7,74.4,70,74.4,71.8z"/>
	<path class="st1" d="M84.5,80.6c0,1.8,0.6,2.7,2.2,2.7c0.8,0,1.5-0.3,2.2-1v0.2c-0.7,1.4-2.4,2.6-5,2.6c-2.9,0-4.7-1.3-4.7-4.5v-9
		c0-1.2-0.5-1.7-2.4-1.7v-0.2c3,0,5.4-0.3,7.6-1.2V80.6z M95.1,82.7c0,0.9,0.3,1.3,0.9,1.3c0.5,0,1-0.5,1.5-1.4h0.2
		c-0.5,1.8-2.2,2.6-4.4,2.6c-2.2,0-3.5-1.3-3.5-3.1V71.6c0-1.2-0.5-1.7-2.3-1.7v-0.2c2.9,0,4.9-0.3,7.6-1.2V82.7z"/>
</g>
<g class="st0">
	<path class="st1" d="M106.7,83c0,0.8,0.5,1.6,2.4,1.6v0.2H99v-0.2c1.9,0,2.4-0.8,2.4-1.6V71.6c0-1.2-0.5-1.7-2.4-1.7v-0.2
		c3,0,5.4-0.3,7.6-1.2V83z M115.3,72c0,2.2-1.6,3.6-3.3,3.6c-0.8,0-1.4-0.2-1.8-0.7c0.6-0.3,1.2-1,1.2-2.2c0-0.9-0.7-1.7-1.8-1.7
		c-0.8,0-1.5,0.5-1.9,1.2V72c0.6-2,2.2-3.5,4.2-3.5C114.1,68.5,115.3,70,115.3,72z"/>
</g>
<g class="st0">
	<path class="st1" d="M116.7,81.1c0-2.8,2.6-4.4,6.1-4.4h3.5v0.2h-1c-2.3,0-3.4,1.5-3.4,3.5c0,1.8,0.5,3.1,2,3.1
		c0.9,0,1.6-0.5,2.3-1.1v0.2c-1.1,1.2-2.8,2.6-5.1,2.6C118.5,85.2,116.7,83.6,116.7,81.1z M118,72c0-1.6,1.5-3.3,5.8-3.5v0.2
		c-1.3,0.2-2,1.2-2,2.3c0,1.2,0.8,1.9,2.1,2c-0.5,0.9-1.8,1.5-3.1,1.5C119,74.5,118,73.3,118,72z M127.3,81.5v-9.8
		c0-1.6-0.6-2.8-2.2-3v-0.2c5.3,0.2,7.4,2.2,7.4,6.4v7.8c0,0.9,0.3,1.3,0.9,1.3c0.5,0,1-0.5,1.5-1.4h0.2c-0.5,1.8-2.2,2.6-4.2,2.6
		C128.4,85.2,127.3,84.3,127.3,81.5z"/>
	<path class="st1" d="M136.1,84.6c1.9,0,2.4-0.8,2.4-1.6V71.6c0-1.2-0.5-1.7-2.4-1.7v-0.2c3,0,5.4-0.3,7.6-1.2V83
		c0,0.8,0.5,1.6,2.4,1.6v0.2h-10.1V84.6z M147.4,84.6c1.9,0,2.4-0.8,2.4-1.6V73c0-1.8-0.9-2.7-2.5-2.7c-0.9,0-1.7,0.3-2.4,1v-0.2
		c0.9-1.3,2.9-2.6,5.3-2.6c2.9,0,4.9,1.3,4.9,4.5v10c0,0.8,0.5,1.6,2.4,1.6v0.2h-10V84.6z"/>
	<path class="st1" d="M167.3,68.7c-1.9,0.2-2.7,1.8-2.7,7.9c0,4.6,2.3,7.1,5.2,7.1c1.8,0,3.2-0.5,4.7-1.7v0.2
		c-1.7,2.1-4.7,2.9-6.8,2.9c-4.1,0-8.5-3-8.5-8.4s4.4-8.2,8.2-8.3V68.7z M174.5,72.1c0,1.7-1.2,3.1-3.2,3.1c-1.6,0-2.6-1-2.8-2
		c0.9-0.4,1.5-1.5,1.5-2.3c0-0.7-0.2-1.9-1.4-2.1v-0.2C172.8,68.5,174.5,70.3,174.5,72.1z"/>
	<path class="st1" d="M176.9,76.8c0-5.4,4.1-8.2,7.8-8.3v0.2c-1.9,0.2-2.4,1.8-2.4,7.9c0,4.6,2,7.1,4.9,7.1c1.8,0,3.2-0.5,4.7-1.7
		v0.2c-1.7,2.1-4.7,2.9-6.8,2.9C181,85.2,176.9,82.1,176.9,76.8z M184.1,75.4c2.8,0,4-0.9,4-3.6c0-1.5-0.6-2.9-2.1-3.1v-0.2
		c4.2,0,6.3,3,6.3,5.4c0,0.5-0.1,1.2-0.2,1.7h-8V75.4z"/>
</g>
<g class="st0">
	<path class="st1" d="M33,117v0.2c-2.5-0.1-4.5-0.5-6.2-1.6l-1.1,1.6h-0.3v-7.8h0.3C26.7,113,29,115.6,33,117z M42.4,110.6
		c0,4.1-3.1,6.4-8,6.6V117c1.8-0.3,3.5-1.3,3.5-3.3c0-5.6-12.2-6.1-12.2-12.6c0-3.8,3.1-6,7.4-6.3v0.2c-1.5,0.3-2.8,1.2-2.8,2.9
		C30.1,103.5,42.4,104.1,42.4,110.6z M34.3,94.9v-0.2c2.4,0.1,4.3,0.6,5.8,1.7l1.2-1.7h0.3v7.1h-0.3C40.2,98.5,37.5,95.7,34.3,94.9z
		"/>
	<path class="st1" d="M52.2,121.7c0,1.2,0.5,1.7,2.4,1.7v0.2c-3,0-5,0.3-7.6,1.2v-21.2c0-1.2-0.5-1.7-2.4-1.7v-0.2
		c3,0,5-0.3,7.6-1.2V121.7z M64.4,108.7c0,6.7-3.5,8.5-6.6,8.5c-1.8,0-3.9-1.2-4.7-2.6v-0.2c0.8,0.6,1.7,1.1,2.7,1.1
		c1.5,0,3.1-1.1,3.1-6.8c0-5.8-1.5-6.5-3.1-6.5c-1,0-2,0.4-2.7,1.2v-0.3c0.8-1.3,2.8-2.6,4.7-2.6C60.9,100.5,64.4,102.3,64.4,108.7z
		"/>
	<path class="st1" d="M67.2,108.8c0-5.4,4.1-8.2,7.8-8.3v0.2c-1.9,0.2-2.4,1.8-2.4,7.9c0,4.6,2,7.1,4.9,7.1c1.8,0,3.2-0.5,4.7-1.7
		v0.2c-1.7,2.1-4.7,2.9-6.8,2.9C71.3,117.2,67.2,114.1,67.2,108.8z M74.4,107.4c2.8,0,4-0.9,4-3.6c0-1.5-0.6-2.9-2.1-3.1v-0.2
		c4.2,0,6.3,3,6.3,5.4c0,0.5-0.1,1.2-0.2,1.7h-8V107.4z"/>
	<path class="st1" d="M93.4,100.7c-1.9,0.2-2.7,1.8-2.7,7.9c0,4.6,2.3,7.1,5.2,7.1c1.8,0,3.2-0.5,4.7-1.7v0.2
		c-1.7,2.1-4.7,2.9-6.8,2.9c-4.1,0-8.5-3-8.5-8.4s4.4-8.2,8.2-8.3V100.7z M100.5,104.1c0,1.7-1.2,3.1-3.2,3.1c-1.6,0-2.6-1-2.8-2
		c0.9-0.4,1.5-1.5,1.5-2.3c0-0.7-0.2-1.9-1.4-2.1v-0.2C98.9,100.5,100.5,102.3,100.5,104.1z"/>
	<path class="st1" d="M102.4,101.7c3,0,5.4-0.3,7.6-1.2V115c0,0.8,0.5,1.6,2.4,1.6v0.2h-10.1v-0.2c1.9,0,2.4-0.8,2.4-1.6v-11.4
		c0-1.2-0.5-1.7-2.4-1.7V101.7z M104,95.7c0-1.7,1.3-2.8,3.3-2.8s3.3,1.1,3.3,2.8c0,1.7-1.3,2.8-3.3,2.8S104,97.4,104,95.7z"/>
	<path class="st1" d="M114,113.1c0-2.8,2.6-4.4,6.1-4.4h3.5v0.2h-1c-2.3,0-3.4,1.5-3.4,3.5c0,1.8,0.5,3.1,2,3.1
		c0.9,0,1.6-0.5,2.3-1.1v0.2c-1.1,1.2-2.8,2.6-5.1,2.6C115.8,117.2,114,115.6,114,113.1z M115.3,104c0-1.6,1.5-3.3,5.8-3.5v0.2
		c-1.3,0.2-2,1.2-2,2.3c0,1.2,0.8,1.9,2.1,2c-0.5,0.9-1.8,1.5-3.1,1.5C116.3,106.5,115.3,105.3,115.3,104z M124.6,113.5v-9.8
		c0-1.6-0.6-2.8-2.2-3v-0.2c5.3,0.2,7.4,2.2,7.4,6.4v7.8c0,0.9,0.3,1.3,0.9,1.3c0.5,0,1-0.5,1.5-1.4h0.2c-0.5,1.8-2.2,2.6-4.2,2.6
		C125.8,117.2,124.6,116.3,124.6,113.5z"/>
	<path class="st1" d="M133.3,94.6c3,0,5.4-0.3,7.6-1.2V115c0,0.8,0.5,1.6,2.4,1.6v0.2h-10.1v-0.2c1.9,0,2.4-0.8,2.4-1.6V96.4
		c0-1.2-0.5-1.7-2.4-1.7V94.6z"/>
	<path class="st1" d="M144.8,101.7c3,0,5.4-0.3,7.6-1.2V115c0,0.8,0.5,1.6,2.4,1.6v0.2h-10.1v-0.2c1.9,0,2.4-0.8,2.4-1.6v-11.4
		c0-1.2-0.5-1.7-2.4-1.7V101.7z M146.4,95.7c0-1.7,1.3-2.8,3.3-2.8c1.9,0,3.3,1.1,3.3,2.8c0,1.7-1.3,2.8-3.3,2.8
		C147.7,98.5,146.4,97.4,146.4,95.7z"/>
	<path class="st1" d="M162.3,113c-1.1,0-1.8,0.6-1.8,1.6c0,0.9,0.6,2.1,2.8,2.3v0.2c-4.3-0.2-6.6-1.3-6.6-3.2c0-1.5,1.3-2.4,2.7-2.4
		C160.8,111.6,161.8,112.2,162.3,113z M163.4,100.7c-1.2,0.2-2.3,0.8-2.3,2.1c0.1,3.7,10.5,4.3,10.5,9.4c0,3.1-2.6,4.7-6.8,4.9V117
		c1.3-0.2,2.8-0.7,2.8-2.4c0-3.3-10.5-4.5-10.5-9.4c0-2.8,2.7-4.5,6.2-4.7V100.7z M170.9,103.8c0,1-0.8,2-2.4,2
		c-1.3,0-2.3-0.6-2.7-1.5c1-0.1,1.5-0.7,1.4-1.5c0-1-1.2-1.9-2.5-2v-0.2C168.4,100.7,170.9,102,170.9,103.8z"/>
	<path class="st1" d="M186,114.4v0.2c-1,1.5-3.1,2.6-5.5,2.6c-2.9,0-4.9-1.3-4.9-4.5v-10.5H174l0.4-0.5h1.3v-3.5
		c2,0,3.9-0.6,5.2-1.8v5.2h4.3l-0.4,0.5h-4v10.6c0,1.6,0.6,3.3,2.1,3.3C183.9,116,185,115.4,186,114.4z"/>
	<path class="st1" d="M193,113c-1.1,0-1.8,0.6-1.8,1.6c0,0.9,0.6,2.1,2.8,2.3v0.2c-4.3-0.2-6.6-1.3-6.6-3.2c0-1.5,1.3-2.4,2.7-2.4
		C191.4,111.6,192.5,112.2,193,113z M194,100.7c-1.2,0.2-2.3,0.8-2.3,2.1c0.1,3.7,10.5,4.3,10.5,9.4c0,3.1-2.6,4.7-6.8,4.9V117
		c1.3-0.2,2.8-0.7,2.8-2.4c0-3.3-10.5-4.5-10.5-9.4c0-2.8,2.7-4.5,6.2-4.7V100.7z M201.6,103.8c0,1-0.8,2-2.4,2
		c-1.3,0-2.3-0.6-2.7-1.5c1-0.1,1.5-0.7,1.4-1.5c0-1-1.2-1.9-2.5-2v-0.2C199,100.7,201.6,102,201.6,103.8z"/>
</g>
<rect y="0" class="st2" width="300" height="250"/>
</svg>
