<svg id="Layer_1" data-name="Layer 1" xmlns="http://www.w3.org/2000/svg" viewBox="0 0 300 250"><defs><style>.cls-1{fill:#263845;}.cls-2{fill:none;}</style></defs><title>Artboard 8 copy</title><path class="cls-1" d="M21.51,33.64c0-.75-.42-1.42-2.1-1.42v-.17h9v.17c-1.68,0-2.1.67-2.1,1.42V45.85c0,2.69.75,5.13,2.66,5.35v.17c-5.85,0-7.42-2.83-7.42-5.6Zm14.7,12.13c0,2.77-1.65,5.6-5.88,5.6V51.2a5.12,5.12,0,0,0,5.32-5.35V35.72c0-1.8-.95-3.5-2.8-3.5v-.17H39v.17c-1.85,0-2.8,1.73-2.8,3.5Z"/><path class="cls-1" d="M39.51,50.92c1.68,0,2.1-.73,2.1-1.43V39.55c0-1-.47-1.48-2.07-1.48V37.9a17.19,17.19,0,0,0,6.69-1.09V49.49c0,.7.42,1.43,2.1,1.43v.17H39.51Zm9.86,0c1.65,0,2.07-.73,2.07-1.43V40.76c0-1.57-.81-2.38-2.21-2.38a3,3,0,0,0-2.13.86v-.16a5.72,5.72,0,0,1,4.65-2.27c2.52,0,4.31,1.17,4.31,3.95v8.73c0,.7.42,1.43,2.1,1.43v.17H49.37Z"/><path class="cls-1" d="M65.41,47.56c0,2.66-1.82,3.81-4.62,3.81V33.25c0-1-.5-1.48-2.1-1.48V31.6a18.52,18.52,0,0,0,6.72-1.09ZM76.08,44c0,5.85-3.11,7.42-5.77,7.42a5.2,5.2,0,0,1-4.06-2.27v-.17a3.87,3.87,0,0,0,2.33,1c1.31,0,2.74-.92,2.74-6S70,38.24,68.58,38.24a3.1,3.1,0,0,0-2.33,1v-.22a5.17,5.17,0,0,1,4.06-2.24C73,36.81,76.08,38.38,76.08,44Z"/><path class="cls-1" d="M78.54,44a6.94,6.94,0,0,1,6.86-7.22V37c-1.65.19-2.1,1.59-2.1,6.94,0,4,1.8,6.24,4.29,6.24a6.09,6.09,0,0,0,4.09-1.48v.17a7.86,7.86,0,0,1-5.94,2.52A7.1,7.1,0,0,1,78.54,44Zm6.3-1.17c2.47,0,3.5-.79,3.5-3.14,0-1.34-.56-2.58-1.82-2.74v-.17c3.7,0,5.49,2.63,5.49,4.76A7.67,7.67,0,0,1,91.87,43h-7Z"/><path class="cls-1" d="M94,47.78c0-2.43,2.24-3.8,5.37-3.8h3v.16h-.84a2.78,2.78,0,0,0-3,3.06c0,1.54.45,2.71,1.76,2.71a3.08,3.08,0,0,0,2.05-1v.17A6,6,0,0,1,98,51.37C95.6,51.37,94,50,94,47.78Zm1.12-7.92c0-1.43,1.29-2.88,5.09-3V37a2,2,0,0,0-1.79,2c0,1,.7,1.62,1.82,1.71a3.16,3.16,0,0,1-2.69,1.34A2.23,2.23,0,0,1,95.15,39.86Zm8.12,8.34V39.64c0-1.38-.53-2.47-1.91-2.66v-.17c4.65.17,6.5,1.93,6.5,5.6v6.8c0,.81.28,1.15.78,1.15s.9-.42,1.35-1.26h.17c-.45,1.54-2,2.27-3.64,2.27C104.28,51.37,103.27,50.58,103.27,48.2Z"/><path class="cls-1" d="M121.89,48.93v.17a5.86,5.86,0,0,1-4.79,2.27c-2.52,0-4.31-1.15-4.31-3.95V38.24h-1.46l.31-.42h1.15v-3a7,7,0,0,0,4.59-1.57v4.6h3.78l-.31.42h-3.47V47.5c0,1.4.53,2.86,1.85,2.86A4.13,4.13,0,0,0,121.89,48.93Z"/><path class="cls-1" d="M122.78,47.78c0-2.43,2.24-3.8,5.38-3.8h3v.16h-.84a2.78,2.78,0,0,0-3,3.06c0,1.54.45,2.71,1.77,2.71a3.06,3.06,0,0,0,2-1v.17a6,6,0,0,1-4.45,2.27C124.35,51.37,122.76,50,122.78,47.78Zm1.12-7.92c0-1.43,1.29-2.88,5.1-3V37a2,2,0,0,0-1.79,2c0,1,.7,1.62,1.82,1.71a3.16,3.16,0,0,1-2.69,1.34A2.24,2.24,0,0,1,123.9,39.86ZM132,48.2V39.64c0-1.38-.53-2.47-1.9-2.66v-.17c4.65.17,6.5,1.93,6.5,5.6v6.8c0,.81.28,1.15.78,1.15s.89-.42,1.34-1.26h.17c-.45,1.54-2,2.27-3.64,2.27C133,51.37,132,50.58,132,48.2Z"/><path class="cls-1" d="M146,47.56c0,2.66-1.82,3.81-4.62,3.81V33.25c0-1-.5-1.48-2.1-1.48V31.6A18.52,18.52,0,0,0,146,30.51ZM156.69,44c0,5.85-3.11,7.42-5.77,7.42a5.2,5.2,0,0,1-4.06-2.27v-.17a3.87,3.87,0,0,0,2.33,1c1.31,0,2.74-.92,2.74-6s-1.34-5.71-2.74-5.71a3.1,3.1,0,0,0-2.33,1v-.22a5.17,5.17,0,0,1,4.06-2.24C153.64,36.81,156.69,38.38,156.69,44Z"/><path class="cls-1" d="M158.51,31.6a17.15,17.15,0,0,0,6.69-1.09v19c0,.7.42,1.43,2.1,1.43v.17h-8.82v-.17c1.68,0,2.1-.73,2.1-1.43V33.25c0-1-.47-1.48-2.07-1.48Z"/><path class="cls-1" d="M169,44a6.94,6.94,0,0,1,6.86-7.22V37c-1.65.19-2.1,1.59-2.1,6.94,0,4,1.79,6.24,4.29,6.24a6.05,6.05,0,0,0,4.08-1.48v.17a7.82,7.82,0,0,1-5.93,2.52A7.1,7.1,0,0,1,169,44Zm6.3-1.17c2.47,0,3.5-.79,3.5-3.14,0-1.34-.56-2.58-1.82-2.74v-.17c3.7,0,5.49,2.63,5.49,4.76a8.59,8.59,0,0,1-.14,1.45h-7Z"/><path class="cls-1" d="M26,79.49c0,.7.42,1.43,2.1,1.43v.17H19.3v-.17c1.68,0,2.1-.73,2.1-1.43V69.55c0-1-.48-1.48-2.08-1.48V67.9A17.21,17.21,0,0,0,26,66.81Zm9.29-8.73v8.73c0,.7.39,1.43,2.07,1.43v.17H28.59v-.17c1.65,0,2.1-.73,2.1-1.43V70.76c0-1.57-.61-2.38-2-2.38a2.47,2.47,0,0,0-1.85.84v-.17A4.54,4.54,0,0,1,31,66.81C33.63,66.81,35.31,68,35.31,70.76Zm9.27,0v8.73c0,.7.42,1.43,2.1,1.43v.17H37.86v-.17c1.65,0,2.1-.73,2.1-1.43V70.76c0-1.57-.62-2.38-2-2.38a2.47,2.47,0,0,0-1.85.84v-.17a4.54,4.54,0,0,1,4.09-2.24C42.9,66.81,44.58,68,44.58,70.76Z"/><path class="cls-1" d="M55.16,67c-1.65.19-2.21,1.59-2.21,7,0,5.27.56,7,2.21,7.17v.17a7.13,7.13,0,0,1-7-7.34,7,7,0,0,1,7-7.22Zm8.07,7a7.14,7.14,0,0,1-6.95,7.34V81.2c1.66-.17,2.19-1.93,2.19-7.17,0-5.49-.56-6.89-2.19-7v-.17A7,7,0,0,1,63.23,74Z"/><path class="cls-1" d="M75.94,78.93v.17a5.86,5.86,0,0,1-4.79,2.27c-2.52,0-4.31-1.15-4.31-4V68.24H65.38l.31-.42h1.15v-3a7,7,0,0,0,4.59-1.57v4.6h3.78l-.31.42H71.43V77.5c0,1.4.53,2.86,1.85,2.86A4.11,4.11,0,0,0,75.94,78.93Z"/><path class="cls-1" d="M84,67c-1.65.19-2.21,1.59-2.21,7,0,5.27.56,7,2.21,7.17v.17A7.13,7.13,0,0,1,77,74a7,7,0,0,1,7-7.22ZM92,74a7.13,7.13,0,0,1-6.94,7.34V81.2c1.65-.17,2.18-1.93,2.18-7.17,0-5.49-.56-6.89-2.18-7v-.17A7,7,0,0,1,92,74Z"/><path class="cls-1" d="M100.58,79.49c0,.7.42,1.43,2.1,1.43v.17H93.86v-.17c1.68,0,2.1-.73,2.1-1.43V69.55c0-1-.48-1.48-2.07-1.48V67.9a17.19,17.19,0,0,0,6.69-1.09Zm7.56-9.66A3,3,0,0,1,105.26,73a1.9,1.9,0,0,1-1.6-.61,2.05,2.05,0,0,0,1.09-1.91A1.49,1.49,0,0,0,103.18,69a1.93,1.93,0,0,0-1.68,1.07v-.23a3.89,3.89,0,0,1,3.64-3A2.84,2.84,0,0,1,108.14,69.83Z"/><path class="cls-1" d="M116.82,67c-1.65.19-2.38,1.59-2.38,6.94,0,4,2,6.24,4.54,6.24a6.05,6.05,0,0,0,4.08-1.48v.17a7.82,7.82,0,0,1-5.93,2.52A7.32,7.32,0,0,1,109.65,74a7.17,7.17,0,0,1,7.17-7.22ZM123,70a2.6,2.6,0,0,1-2.81,2.69,2.38,2.38,0,0,1-2.43-1.76,2.43,2.43,0,0,0,1.34-2.05,1.66,1.66,0,0,0-1.2-1.85v-.19C121.61,66.81,123,68.38,123,70Z"/><path class="cls-1" d="M125.36,68.24a1.51,1.51,0,0,0-1.54-1v-.17h7.84v.17c-1,0-1.37.67-.9,1.65l3.67,7.64L132,81.09h-.17ZM124.13,85.6A2.93,2.93,0,0,1,126.59,83a2.31,2.31,0,0,0-.11.7,1.64,1.64,0,0,0,1.65,1.88c1,0,1.77-1,2.83-2.83h.19c-1.54,2.89-2.6,5.38-4.56,5.38A2.33,2.33,0,0,1,124.13,85.6Zm11.48-11.79a7.76,7.76,0,0,0,.78-3.61,2.71,2.71,0,0,0-2.85-2.94v-.17h7v.17c-.93,0-1.29.36-1.82,1.31l-2.92,5.49Z"/><path class="cls-1" d="M147.81,67c-1.65.19-2.37,1.59-2.37,6.94,0,4,2,6.24,4.53,6.24a6.08,6.08,0,0,0,4.09-1.48v.17a7.86,7.86,0,0,1-5.94,2.52A7.32,7.32,0,0,1,140.65,74a7.17,7.17,0,0,1,7.16-7.22ZM154,70a2.6,2.6,0,0,1-2.8,2.69,2.4,2.4,0,0,1-2.44-1.76,2.42,2.42,0,0,0,1.35-2.05,1.67,1.67,0,0,0-1.2-1.85v-.19C152.6,66.81,154,68.38,154,70Z"/><path class="cls-1" d="M155.49,61.6a17.19,17.19,0,0,0,6.69-1.09v19c0,.7.42,1.43,2.1,1.43v.17h-8.82v-.17c1.68,0,2.1-.73,2.1-1.43V63.25c0-1-.48-1.48-2.07-1.48Z"/><path class="cls-1" d="M166,74a6.93,6.93,0,0,1,6.86-7.22V67c-1.65.19-2.1,1.59-2.1,6.94,0,4,1.79,6.24,4.28,6.24a6.08,6.08,0,0,0,4.09-1.48v.17a7.86,7.86,0,0,1-5.94,2.52A7.09,7.09,0,0,1,166,74Zm6.3-1.17c2.46,0,3.5-.79,3.5-3.14,0-1.34-.56-2.58-1.82-2.74v-.17c3.69,0,5.49,2.63,5.49,4.76a8.59,8.59,0,0,1-.14,1.45h-7Z"/><path class="cls-1" d="M19.35,97.87A17.12,17.12,0,0,0,26,96.78v12.71c0,.7.42,1.43,2.1,1.43v.17H19.32v-.17c1.68,0,2.1-.73,2.1-1.43v-10c0-1-.47-1.48-2.07-1.48Zm1.43-5.26c0-1.46,1.18-2.44,2.86-2.44s2.85,1,2.85,2.44-1.17,2.46-2.85,2.46S20.78,94.09,20.78,92.61Z"/><path class="cls-1" d="M29.32,110.92c1.68,0,2.1-.73,2.1-1.43V99.55c0-1-.48-1.48-2.07-1.48V97.9A17.19,17.19,0,0,0,36,96.81v12.68c0,.7.42,1.43,2.1,1.43v.17H29.32Zm9.86,0c1.65,0,2.07-.73,2.07-1.43v-8.73c0-1.57-.81-2.38-2.21-2.38a3,3,0,0,0-2.13.86v-.16a5.69,5.69,0,0,1,4.65-2.27c2.52,0,4.31,1.17,4.31,4v8.73c0,.7.42,1.43,2.1,1.43v.17H39.18Z"/><path class="cls-1" d="M54.35,107.76a1.43,1.43,0,0,0-1.57,1.4c0,.81.56,1.84,2.5,2v.17c-3.73-.14-5.77-1.15-5.77-2.77a2.19,2.19,0,0,1,2.38-2.08A2.85,2.85,0,0,1,54.35,107.76ZM55.28,97c-1,.19-2.05.72-2,1.87.08,3.25,9.16,3.78,9.16,8.23,0,2.72-2.3,4.15-5.91,4.29v-.17c1.17-.2,2.49-.62,2.49-2.07,0-2.91-9.18-4-9.18-8.23,0-2.47,2.32-4,5.46-4.09Zm6.6,2.71a1.83,1.83,0,0,1-2.07,1.74,2.42,2.42,0,0,1-2.38-1.35,1.24,1.24,0,0,0,1.26-1.31c0-.84-1.06-1.65-2.18-1.79v-.17C59.67,97,61.88,98.12,61.88,99.69Z"/><path class="cls-1" d="M70.68,107.42c0,1.57.53,2.38,1.93,2.38a2.45,2.45,0,0,0,1.93-.87v.17a4.67,4.67,0,0,1-4.34,2.27c-2.52,0-4.14-1.18-4.14-4V99.55c0-1-.48-1.48-2.08-1.48V97.9a17.21,17.21,0,0,0,6.7-1.09ZM80,109.21c0,.81.25,1.15.76,1.15s.89-.42,1.34-1.26h.17c-.45,1.54-2,2.27-3.81,2.27s-3.08-1.12-3.08-2.75V99.55c0-1-.48-1.48-2-1.48V97.9A18.25,18.25,0,0,0,80,96.81Z"/><path class="cls-1" d="M90.11,109.49c0,.7.42,1.43,2.1,1.43v.17H83.39v-.17c1.68,0,2.1-.73,2.1-1.43V99.55c0-1-.48-1.48-2.07-1.48V97.9a17.19,17.19,0,0,0,6.69-1.09Zm7.56-9.66A3,3,0,0,1,94.78,103a1.88,1.88,0,0,1-1.59-.61,2.05,2.05,0,0,0,1.09-1.91A1.49,1.49,0,0,0,92.71,99,1.92,1.92,0,0,0,91,100.06v-.23a3.88,3.88,0,0,1,3.64-3A2.84,2.84,0,0,1,97.67,99.83Z"/><path class="cls-1" d="M98.87,107.78c0-2.43,2.24-3.8,5.38-3.8h3v.16h-.84a2.78,2.78,0,0,0-3,3.06c0,1.54.45,2.71,1.77,2.71a3.06,3.06,0,0,0,2-1v.17a6,6,0,0,1-4.45,2.27C100.44,111.37,98.84,110,98.87,107.78ZM100,99.86c0-1.43,1.29-2.88,5.1-3V97a2,2,0,0,0-1.79,2c0,1,.7,1.62,1.82,1.71a3.16,3.16,0,0,1-2.69,1.34A2.24,2.24,0,0,1,100,99.86Zm8.12,8.34V99.64c0-1.38-.53-2.47-1.9-2.66v-.17c4.65.17,6.49,1.93,6.49,5.6v6.8c0,.81.28,1.15.79,1.15s.89-.42,1.34-1.26H115c-.45,1.54-2,2.27-3.64,2.27C109.12,111.37,108.11,110.58,108.11,108.2Z"/><path class="cls-1" d="M115.87,110.92c1.68,0,2.1-.73,2.1-1.43V99.55c0-1-.48-1.48-2.07-1.48V97.9a17.19,17.19,0,0,0,6.69-1.09v12.68c0,.7.42,1.43,2.1,1.43v.17h-8.82Zm9.85,0c1.66,0,2.08-.73,2.08-1.43v-8.73a2.08,2.08,0,0,0-2.22-2.38,3,3,0,0,0-2.12.86v-.16a5.69,5.69,0,0,1,4.64-2.27c2.52,0,4.32,1.17,4.32,4v8.73c0,.7.42,1.43,2.1,1.43v.17h-8.8Z"/><path class="cls-1" d="M143.19,97c-1.65.19-2.38,1.59-2.38,6.94,0,4,2.05,6.24,4.54,6.24a6.08,6.08,0,0,0,4.09-1.48v.17a7.86,7.86,0,0,1-5.94,2.52A7.32,7.32,0,0,1,136,104a7.17,7.17,0,0,1,7.16-7.22Zm6.22,3a2.6,2.6,0,0,1-2.8,2.69,2.4,2.4,0,0,1-2.44-1.76,2.42,2.42,0,0,0,1.35-2.05A1.67,1.67,0,0,0,144.31,97v-.19C148,96.81,149.41,98.38,149.41,100Z"/><path class="cls-1" d="M151.51,104a6.93,6.93,0,0,1,6.86-7.22V97c-1.65.19-2.1,1.59-2.1,6.94,0,4,1.79,6.24,4.28,6.24a6.06,6.06,0,0,0,4.09-1.48v.17a7.82,7.82,0,0,1-5.93,2.52A7.1,7.1,0,0,1,151.51,104Zm6.3-1.17c2.46,0,3.5-.79,3.5-3.14,0-1.34-.56-2.58-1.82-2.74v-.17c3.7,0,5.49,2.63,5.49,4.76a8.59,8.59,0,0,1-.14,1.45h-7Z"/><rect class="cls-2" width="300" height="250"/></svg>