<?xml version="1.0" encoding="utf-8"?>
<!-- Generator: Adobe Illustrator 24.0.3, SVG Export Plug-In . SVG Version: 6.00 Build 0)  -->
<svg version="1.1" id="Layer_1" xmlns="http://www.w3.org/2000/svg" xmlns:xlink="http://www.w3.org/1999/xlink" x="0px" y="0px"
	 viewBox="0 0 300 250" style="enable-background:new 0 0 300 250;" xml:space="preserve">
<style type="text/css">
	.st0{enable-background:new    ;}
	.st1{fill:#263845;}
	.st2{fill:none;}
</style>
<title>Artboard 8 copy</title>
<g class="st0">
	<path class="st1" d="M21.9,31.2c0-0.9-0.5-1.6-2.4-1.6v-0.2h10.2v0.2c-1.9,0-2.4,0.8-2.4,1.6v14c0,3.1,0.9,5.9,3,6.1v0.2
		c-6.7,0-8.5-3.2-8.5-6.4V31.2z M38.7,45c0,3.2-1.9,6.4-6.7,6.4v-0.2c4.1-0.1,6.1-3,6.1-6.1V33.5c0-2-1.1-4-3.2-4v-0.2h7v0.2
		c-2.1,0-3.2,2-3.2,4V45z"/>
</g>
<g class="st0">
	<path class="st1" d="M42.5,50.9c1.9,0,2.4-0.8,2.4-1.6V37.9c0-1.2-0.5-1.7-2.4-1.7V36c3,0,5.4-0.3,7.6-1.2v14.5
		c0,0.8,0.5,1.6,2.4,1.6v0.2H42.5V50.9z M53.8,50.9c1.9,0,2.4-0.8,2.4-1.6v-10c0-1.8-0.9-2.7-2.5-2.7c-0.9,0-1.7,0.3-2.4,1v-0.2
		c0.9-1.3,2.9-2.6,5.3-2.6c2.9,0,4.9,1.3,4.9,4.5v10c0,0.8,0.5,1.6,2.4,1.6v0.2h-10V50.9z"/>
	<path class="st1" d="M72.1,47.1c0,3-2.1,4.4-5.3,4.4V30.7c0-1.2-0.6-1.7-2.4-1.7v-0.2c3,0,5-0.3,7.7-1.2V47.1z M84.3,42.9
		c0,6.7-3.6,8.5-6.6,8.5c-1.8,0-3.8-1.2-4.6-2.6v-0.2c0.8,0.6,1.6,1.1,2.7,1.1c1.5,0,3.1-1.1,3.1-6.8c0-5.8-1.5-6.5-3.1-6.5
		c-1,0-1.9,0.4-2.7,1.2v-0.3c0.8-1.3,2.8-2.6,4.6-2.6C80.8,34.8,84.3,36.6,84.3,42.9z"/>
	<path class="st1" d="M87.1,43c0-5.4,4.1-8.2,7.8-8.3V35c-1.9,0.2-2.4,1.8-2.4,7.9c0,4.6,2,7.1,4.9,7.1c1.8,0,3.2-0.5,4.7-1.7v0.2
		c-1.7,2.1-4.7,2.9-6.8,2.9C91.2,51.4,87.1,48.4,87.1,43z M94.3,41.7c2.8,0,4-0.9,4-3.6c0-1.5-0.6-2.9-2.1-3.1v-0.2
		c4.2,0,6.3,3,6.3,5.4c0,0.5-0.1,1.2-0.2,1.7h-8V41.7z"/>
	<path class="st1" d="M104.8,47.3c0-2.8,2.6-4.4,6.1-4.4h3.5v0.2h-1c-2.3,0-3.4,1.5-3.4,3.5c0,1.8,0.5,3.1,2,3.1
		c0.9,0,1.6-0.5,2.3-1.1v0.2c-1.1,1.2-2.8,2.6-5.1,2.6C106.6,51.4,104.8,49.9,104.8,47.3z M106.1,38.3c0-1.6,1.5-3.3,5.8-3.5V35
		c-1.3,0.2-2,1.2-2,2.3c0,1.2,0.8,1.9,2.1,2c-0.5,0.9-1.8,1.5-3.1,1.5C107.1,40.8,106.1,39.6,106.1,38.3z M115.4,47.8V38
		c0-1.6-0.6-2.8-2.2-3v-0.2c5.3,0.2,7.4,2.2,7.4,6.4v7.8c0,0.9,0.3,1.3,0.9,1.3c0.5,0,1-0.5,1.5-1.4h0.2c-0.5,1.8-2.2,2.6-4.2,2.6
		C116.5,51.4,115.4,50.5,115.4,47.8z"/>
	<path class="st1" d="M136.6,48.6v0.2c-1,1.5-3.1,2.6-5.5,2.6c-2.9,0-4.9-1.3-4.9-4.5V36.4h-1.7l0.4-0.5h1.3v-3.5
		c2,0,3.9-0.6,5.2-1.8v5.2h4.3l-0.4,0.5h-4V47c0,1.6,0.6,3.3,2.1,3.3C134.5,50.3,135.6,49.7,136.6,48.6z"/>
	<path class="st1" d="M137.7,47.3c0-2.8,2.6-4.4,6.1-4.4h3.5v0.2h-1c-2.3,0-3.4,1.5-3.4,3.5c0,1.8,0.5,3.1,2,3.1
		c0.9,0,1.6-0.5,2.3-1.1v0.2c-1.1,1.2-2.8,2.6-5.1,2.6C139.4,51.4,137.6,49.9,137.7,47.3z M138.9,38.3c0-1.6,1.5-3.3,5.8-3.5V35
		c-1.3,0.2-2,1.2-2,2.3c0,1.2,0.8,1.9,2.1,2c-0.5,0.9-1.8,1.5-3.1,1.5C140,40.8,138.9,39.6,138.9,38.3z M148.2,47.8V38
		c0-1.6-0.6-2.8-2.2-3v-0.2c5.3,0.2,7.4,2.2,7.4,6.4v7.8c0,0.9,0.3,1.3,0.9,1.3c0.5,0,1-0.5,1.5-1.4h0.2c-0.5,1.8-2.2,2.6-4.2,2.6
		C149.4,51.4,148.2,50.5,148.2,47.8z"/>
	<path class="st1" d="M164.2,47.1c0,3-2.1,4.4-5.3,4.4V30.7c0-1.2-0.6-1.7-2.4-1.7v-0.2c3,0,5-0.3,7.7-1.2V47.1z M176.4,42.9
		c0,6.7-3.6,8.5-6.6,8.5c-1.8,0-3.8-1.2-4.6-2.6v-0.2c0.8,0.6,1.6,1.1,2.7,1.1c1.5,0,3.1-1.1,3.1-6.8c0-5.8-1.5-6.5-3.1-6.5
		c-1,0-1.9,0.4-2.7,1.2v-0.3c0.8-1.3,2.8-2.6,4.6-2.6C172.9,34.8,176.4,36.6,176.4,42.9z"/>
	<path class="st1" d="M178.5,28.8c3,0,5.4-0.3,7.6-1.2v21.7c0,0.8,0.5,1.6,2.4,1.6v0.2h-10.1v-0.2c1.9,0,2.4-0.8,2.4-1.6V30.7
		c0-1.2-0.5-1.7-2.4-1.7V28.8z"/>
	<path class="st1" d="M190.5,43c0-5.4,4.1-8.2,7.8-8.3V35c-1.9,0.2-2.4,1.8-2.4,7.9c0,4.6,2,7.1,4.9,7.1c1.8,0,3.2-0.5,4.7-1.7v0.2
		c-1.7,2.1-4.7,2.9-6.8,2.9C194.6,51.4,190.5,48.4,190.5,43z M197.7,41.7c2.8,0,4-0.9,4-3.6c0-1.5-0.6-2.9-2.1-3.1v-0.2
		c4.2,0,6.3,3,6.3,5.4c0,0.5-0.1,1.2-0.2,1.7h-8V41.7z"/>
</g>
<g class="st0">
	<path class="st1" d="M27.1,81.3c0,0.8,0.5,1.6,2.4,1.6v0.2H19.4v-0.2c1.9,0,2.4-0.8,2.4-1.6V69.9c0-1.2-0.5-1.7-2.4-1.7V68
		c3,0,5.4-0.3,7.6-1.2V81.3z M37.7,71.3v10c0,0.8,0.4,1.6,2.4,1.6v0.2H30v-0.2c1.9,0,2.4-0.8,2.4-1.6v-10c0-1.8-0.7-2.7-2.2-2.7
		c-0.9,0-1.7,0.4-2.1,1v-0.2c0.7-1.3,2.3-2.6,4.7-2.6C35.8,66.8,37.7,68.1,37.7,71.3z M48.3,71.3v10c0,0.8,0.5,1.6,2.4,1.6v0.2H40.6
		v-0.2c1.9,0,2.4-0.8,2.4-1.6v-10c0-1.8-0.7-2.7-2.2-2.7c-0.9,0-1.7,0.4-2.1,1v-0.2c0.7-1.3,2.3-2.6,4.7-2.6
		C46.4,66.8,48.3,68.1,48.3,71.3z"/>
	<path class="st1" d="M60.4,67c-1.9,0.2-2.5,1.8-2.5,8.1c0,6,0.6,8,2.5,8.2v0.2c-3.7,0-8-3-8-8.4s4.2-8.2,8-8.3V67z M69.6,75
		c0,5.3-4.3,8.4-7.9,8.4v-0.2c1.9-0.2,2.5-2.2,2.5-8.2c0-6.3-0.6-7.9-2.5-8.1v-0.2C65.4,66.8,69.6,69.6,69.6,75z"/>
</g>
<g class="st0">
	<path class="st1" d="M84.1,80.6v0.2c-1,1.5-3.1,2.6-5.5,2.6c-2.9,0-4.9-1.3-4.9-4.5V68.4h-1.7l0.4-0.5h1.3v-3.5
		c2,0,3.9-0.6,5.2-1.8v5.2h4.3l-0.4,0.5h-4V79c0,1.6,0.6,3.3,2.1,3.3C82,82.3,83.1,81.7,84.1,80.6z"/>
</g>
<g class="st0">
	<path class="st1" d="M93.3,67c-1.9,0.2-2.5,1.8-2.5,8.1c0,6,0.6,8,2.5,8.2v0.2c-3.7,0-8-3-8-8.4s4.2-8.2,8-8.3V67z M102.5,75
		c0,5.3-4.3,8.4-7.9,8.4v-0.2C96.4,83,97,81,97,75c0-6.3-0.6-7.9-2.5-8.1v-0.2C98.3,66.8,102.5,69.6,102.5,75z"/>
</g>
<g class="st0">
	<path class="st1" d="M112.3,81.3c0,0.8,0.5,1.6,2.4,1.6v0.2h-10.1v-0.2c1.9,0,2.4-0.8,2.4-1.6V69.9c0-1.2-0.5-1.7-2.4-1.7V68
		c3,0,5.4-0.3,7.6-1.2V81.3z M120.9,70.2c0,2.2-1.6,3.6-3.3,3.6c-0.8,0-1.4-0.2-1.8-0.7c0.6-0.3,1.2-1,1.2-2.2
		c0-0.9-0.7-1.7-1.8-1.7c-0.8,0-1.5,0.5-1.9,1.2v-0.3c0.6-2,2.2-3.5,4.2-3.5C119.7,66.8,120.9,68.3,120.9,70.2z"/>
</g>
<g class="st0">
	<path class="st1" d="M130.8,67c-1.9,0.2-2.7,1.8-2.7,7.9c0,4.6,2.3,7.1,5.2,7.1c1.8,0,3.2-0.5,4.7-1.7v0.2
		c-1.7,2.1-4.7,2.9-6.8,2.9c-4.1,0-8.5-3-8.5-8.4s4.4-8.2,8.2-8.3V67z M137.9,70.4c0,1.7-1.2,3.1-3.2,3.1c-1.6,0-2.6-1-2.8-2
		c0.9-0.4,1.5-1.5,1.5-2.3c0-0.7-0.2-1.9-1.4-2.1v-0.2C136.3,66.8,137.9,68.6,137.9,70.4z"/>
</g>
<g class="st0">
	<path class="st1" d="M140.6,68.4c-0.3-0.7-0.8-1.1-1.8-1.1v-0.2h9v0.2c-1.1,0-1.6,0.8-1,1.9l4.2,8.7l-2.8,5.2H148L140.6,68.4z
		 M139.2,88.2c0-1.4,1.1-2.5,2.8-3c-0.1,0.3-0.1,0.5-0.1,0.8c0,1.2,0.6,2.1,1.9,2.1c1.1,0,2-1.2,3.2-3.2h0.2c-1.8,3.3-3,6.1-5.2,6.1
		C140.2,91.1,139.2,89.9,139.2,88.2z M152.3,74.8c0.5-1,0.9-2.4,0.9-4.1c0-1.8-1-3.4-3.3-3.4v-0.2h8v0.2c-1.1,0-1.5,0.4-2.1,1.5
		l-3.3,6.3L152.3,74.8z"/>
</g>
<g class="st0">
	<path class="st1" d="M166.3,67c-1.9,0.2-2.7,1.8-2.7,7.9c0,4.6,2.3,7.1,5.2,7.1c1.8,0,3.2-0.5,4.7-1.7v0.2
		c-1.7,2.1-4.7,2.9-6.8,2.9c-4.1,0-8.5-3-8.5-8.4s4.4-8.2,8.2-8.3V67z M173.4,70.4c0,1.7-1.2,3.1-3.2,3.1c-1.6,0-2.6-1-2.8-2
		c0.9-0.4,1.5-1.5,1.5-2.3c0-0.7-0.2-1.9-1.4-2.1v-0.2C171.7,66.8,173.4,68.6,173.4,70.4z"/>
	<path class="st1" d="M175,60.8c3,0,5.4-0.3,7.6-1.2v21.7c0,0.8,0.5,1.6,2.4,1.6v0.2H175v-0.2c1.9,0,2.4-0.8,2.4-1.6V62.7
		c0-1.2-0.5-1.7-2.4-1.7V60.8z"/>
	<path class="st1" d="M187,75c0-5.4,4.1-8.2,7.8-8.3V67c-1.9,0.2-2.4,1.8-2.4,7.9c0,4.6,2,7.1,4.9,7.1c1.8,0,3.2-0.5,4.7-1.7v0.2
		c-1.7,2.1-4.7,2.9-6.8,2.9C191.1,83.4,187,80.4,187,75z M194.2,73.7c2.8,0,4-0.9,4-3.6c0-1.5-0.6-2.9-2.1-3.1v-0.2
		c4.2,0,6.3,3,6.3,5.4c0,0.5-0.1,1.2-0.2,1.7h-8V73.7z"/>
</g>
<g class="st0">
	<path class="st1" d="M19.5,100c3,0,5.4-0.3,7.6-1.2v14.5c0,0.8,0.5,1.6,2.4,1.6v0.2H19.4v-0.2c1.9,0,2.4-0.8,2.4-1.6v-11.4
		c0-1.2-0.5-1.7-2.4-1.7V100z M21.1,94c0-1.7,1.3-2.8,3.3-2.8s3.3,1.1,3.3,2.8c0,1.7-1.3,2.8-3.3,2.8S21.1,95.7,21.1,94z"/>
	<path class="st1" d="M30.8,114.9c1.9,0,2.4-0.8,2.4-1.6v-11.4c0-1.2-0.5-1.7-2.4-1.7V100c3,0,5.4-0.3,7.6-1.2v14.5
		c0,0.8,0.5,1.6,2.4,1.6v0.2H30.8V114.9z M42.1,114.9c1.9,0,2.4-0.8,2.4-1.6v-10c0-1.8-0.9-2.7-2.5-2.7c-0.9,0-1.7,0.3-2.4,1v-0.2
		c0.9-1.3,2.9-2.6,5.3-2.6c2.9,0,4.9,1.3,4.9,4.5v10c0,0.8,0.5,1.6,2.4,1.6v0.2h-10V114.9z"/>
	<path class="st1" d="M59.5,111.3c-1.1,0-1.8,0.6-1.8,1.6c0,0.9,0.6,2.1,2.8,2.3v0.2c-4.3-0.2-6.6-1.3-6.6-3.2
		c0-1.5,1.3-2.4,2.7-2.4C57.9,109.9,59,110.5,59.5,111.3z M60.5,99c-1.2,0.2-2.3,0.8-2.3,2.1c0.1,3.7,10.5,4.3,10.5,9.4
		c0,3.1-2.6,4.7-6.8,4.9v-0.2c1.3-0.2,2.8-0.7,2.8-2.4c0-3.3-10.5-4.5-10.5-9.4c0-2.8,2.7-4.5,6.2-4.7V99z M68.1,102.1
		c0,1-0.8,2-2.4,2c-1.3,0-2.3-0.6-2.7-1.5c1-0.1,1.5-0.7,1.4-1.5c0-1-1.2-1.9-2.5-2v-0.2C65.5,99,68.1,100.3,68.1,102.1z"/>
	<path class="st1" d="M78.1,110.9c0,1.8,0.6,2.7,2.2,2.7c0.8,0,1.5-0.3,2.2-1v0.2c-0.7,1.4-2.4,2.6-5,2.6c-2.9,0-4.7-1.3-4.7-4.5v-9
		c0-1.2-0.5-1.7-2.4-1.7V100c3,0,5.4-0.3,7.6-1.2V110.9z M88.8,112.9c0,0.9,0.3,1.3,0.9,1.3c0.5,0,1-0.5,1.5-1.4h0.2
		c-0.5,1.8-2.2,2.6-4.4,2.6c-2.2,0-3.5-1.3-3.5-3.1v-10.4c0-1.2-0.5-1.7-2.3-1.7V100c2.9,0,4.9-0.3,7.6-1.2V112.9z"/>
</g>
<g class="st0">
	<path class="st1" d="M100.3,113.3c0,0.8,0.5,1.6,2.4,1.6v0.2H92.6v-0.2c1.9,0,2.4-0.8,2.4-1.6v-11.4c0-1.2-0.5-1.7-2.4-1.7V100
		c3,0,5.4-0.3,7.6-1.2V113.3z M109,102.2c0,2.2-1.6,3.6-3.3,3.6c-0.8,0-1.4-0.2-1.8-0.7c0.6-0.3,1.2-1,1.2-2.2
		c0-0.9-0.7-1.7-1.8-1.7c-0.8,0-1.5,0.5-1.9,1.2v-0.3c0.6-2,2.2-3.5,4.2-3.5C107.7,98.8,109,100.3,109,102.2z"/>
</g>
<g class="st0">
	<path class="st1" d="M110.3,111.3c0-2.8,2.6-4.4,6.1-4.4h3.5v0.2h-1c-2.3,0-3.4,1.5-3.4,3.5c0,1.8,0.5,3.1,2,3.1
		c0.9,0,1.6-0.5,2.3-1.1v0.2c-1.1,1.2-2.8,2.6-5.1,2.6C112.1,115.4,110.3,113.9,110.3,111.3z M111.6,102.3c0-1.6,1.5-3.3,5.8-3.5V99
		c-1.3,0.2-2,1.2-2,2.3c0,1.2,0.8,1.9,2.1,2c-0.5,0.9-1.8,1.5-3.1,1.5C112.6,104.8,111.6,103.6,111.6,102.3z M120.9,111.8V102
		c0-1.6-0.6-2.8-2.2-3v-0.2c5.3,0.2,7.4,2.2,7.4,6.4v7.8c0,0.9,0.3,1.3,0.9,1.3c0.5,0,1-0.5,1.5-1.4h0.2c-0.5,1.8-2.2,2.6-4.2,2.6
		C122,115.4,120.9,114.5,120.9,111.8z"/>
	<path class="st1" d="M129.8,114.9c1.9,0,2.4-0.8,2.4-1.6v-11.4c0-1.2-0.5-1.7-2.4-1.7V100c3,0,5.4-0.3,7.6-1.2v14.5
		c0,0.8,0.5,1.6,2.4,1.6v0.2h-10.1V114.9z M141,114.9c1.9,0,2.4-0.8,2.4-1.6v-10c0-1.8-0.9-2.7-2.5-2.7c-0.9,0-1.7,0.3-2.4,1v-0.2
		c0.9-1.3,2.9-2.6,5.3-2.6c2.9,0,4.9,1.3,4.9,4.5v10c0,0.8,0.5,1.6,2.4,1.6v0.2h-10V114.9z"/>
	<path class="st1" d="M161,99c-1.9,0.2-2.7,1.8-2.7,7.9c0,4.6,2.3,7.1,5.2,7.1c1.8,0,3.2-0.5,4.7-1.7v0.2c-1.7,2.1-4.7,2.9-6.8,2.9
		c-4.1,0-8.5-3-8.5-8.4s4.4-8.2,8.2-8.3V99z M168.1,102.4c0,1.7-1.2,3.1-3.2,3.1c-1.6,0-2.6-1-2.8-2c0.9-0.4,1.5-1.5,1.5-2.3
		c0-0.7-0.2-1.9-1.4-2.1v-0.2C166.5,98.8,168.1,100.6,168.1,102.4z"/>
	<path class="st1" d="M170.5,107c0-5.4,4.1-8.2,7.8-8.3V99c-1.9,0.2-2.4,1.8-2.4,7.9c0,4.6,2,7.1,4.9,7.1c1.8,0,3.2-0.5,4.7-1.7v0.2
		c-1.7,2.1-4.7,2.9-6.8,2.9C174.6,115.4,170.5,112.4,170.5,107z M177.7,105.7c2.8,0,4-0.9,4-3.6c0-1.5-0.6-2.9-2.1-3.1v-0.2
		c4.2,0,6.3,3,6.3,5.4c0,0.5-0.1,1.2-0.2,1.7h-8V105.7z"/>
</g>
<rect y="0" class="st2" width="300" height="250"/>
</svg>
