<svg id="Layer_1" data-name="Layer 1" xmlns="http://www.w3.org/2000/svg" viewBox="0 0 300.25 250.25"><defs><style>.cls-1{fill:none;}.cls-2{fill:#ffac00;}.cls-3{fill:#fff;}</style></defs><title>Artboard 6</title><rect class="cls-1" x="-0.11" y="0.18" width="300" height="250"/><rect class="cls-1" x="0.13" y="0.13" width="300" height="250"/><path class="cls-2" d="M27.64,222.74h135a12.11,12.11,0,0,0,10.75-6.53l15.93-30.71a12.09,12.09,0,0,0,0-11.16l-15.93-30.71a12.11,12.11,0,0,0-10.75-6.53h-135a7.36,7.36,0,0,0-7.36,7.35v70.94A7.36,7.36,0,0,0,27.64,222.74Z"/><path class="cls-3" d="M84.13,169.38l.29-.44c.22-.3.45-.31.79-.12a3.37,3.37,0,0,0,2,.7c.9,0,1.44-.44,1.44-1.09,0-1.84-4.49-1.46-4.49-4.45,0-1.7,1.41-2.8,3.24-2.8a4.59,4.59,0,0,1,2.49.73.54.54,0,0,1,.17.78l-.24.45c-.2.39-.49.33-.77.19a3.2,3.2,0,0,0-1.67-.53c-.9,0-1.47.43-1.47,1.08,0,1.81,4.49,1.34,4.49,4.41a2.88,2.88,0,0,1-3.19,2.85,5,5,0,0,1-3-1A.49.49,0,0,1,84.13,169.38Z"/><path class="cls-3" d="M94.23,162.85H91.64a.5.5,0,0,1-.57-.56v-.38a.5.5,0,0,1,.57-.56h6.92a.5.5,0,0,1,.56.56v.38a.5.5,0,0,1-.56.56H96v7.56a.5.5,0,0,1-.57.57h-.61a.5.5,0,0,1-.56-.57Z"/><path class="cls-3" d="M101.41,161.81a.6.6,0,0,1,.63-.46h.87a.6.6,0,0,1,.64.46l3,8.51c.14.4,0,.66-.46.66h-.63a.6.6,0,0,1-.63-.46l-.68-2h-3.38l-.66,2a.61.61,0,0,1-.64.48h-.62c-.43,0-.6-.26-.47-.66Zm2.31,5.27-.85-2.57c-.16-.55-.38-1.5-.38-1.5h0s-.21,1-.38,1.5l-.86,2.57Z"/><path class="cls-3" d="M107.78,161.91a.5.5,0,0,1,.55-.56h2.61a4.55,4.55,0,0,1,1.83.25,2.69,2.69,0,0,1,1.61,2.63,2.79,2.79,0,0,1-1.6,2.64v0a3.74,3.74,0,0,1,.31.5l1.59,2.91c.23.39,0,.68-.39.68h-.74a.69.69,0,0,1-.66-.4l-1.7-3.2h-1.68v3a.5.5,0,0,1-.55.57h-.63a.5.5,0,0,1-.55-.57Zm3.31,4a1.41,1.41,0,0,0,1.51-1.53,1.31,1.31,0,0,0-.75-1.32,2.44,2.44,0,0,0-1-.16h-1.29v3Z"/><path class="cls-3" d="M84.76,173.68a.3.3,0,0,1,.33-.34h.28a.3.3,0,0,1,.33.34v8.86a.3.3,0,0,1-.33.34h-.28a.3.3,0,0,1-.33-.34Z"/><path class="cls-3" d="M88,176.39a.3.3,0,0,1,.34-.33h.24a.3.3,0,0,1,.33.33v.79a2.07,2.07,0,0,1-.06.49h0a3,3,0,0,1,2.75-1.78c1.7,0,2.29,1,2.29,2.65v4a.3.3,0,0,1-.33.34h-.26a.3.3,0,0,1-.33-.34v-3.76c0-1.07-.17-2-1.49-2a2.64,2.64,0,0,0-2.59,2.78v3a.3.3,0,0,1-.33.34H88.3a.31.31,0,0,1-.34-.34Z"/><path class="cls-3" d="M95.35,181.79l.11-.13c.12-.17.27-.18.46-.06a3,3,0,0,0,1.8.63c.76,0,1.39-.38,1.39-1.1,0-1.53-3.65-1.07-3.65-3.33,0-1.26,1.07-1.91,2.32-1.91a3.1,3.1,0,0,1,1.87.56.3.3,0,0,1,.1.45l-.1.15c-.11.19-.27.2-.46.09a2.56,2.56,0,0,0-1.47-.43c-.71,0-1.34.31-1.34,1,0,1.58,3.64,1.08,3.64,3.35A2.06,2.06,0,0,1,97.71,183a3.56,3.56,0,0,1-2.31-.79A.3.3,0,0,1,95.35,181.79Z"/><path class="cls-3" d="M101.39,176.39a.29.29,0,0,1,.32-.33H102a.3.3,0,0,1,.34.33v3.76c0,1.07.16,2,1.48,2a2.65,2.65,0,0,0,2.52-2.85v-2.93a.3.3,0,0,1,.34-.33h.26a.29.29,0,0,1,.32.33v6.15a.3.3,0,0,1-.32.34h-.25c-.22,0-.32-.12-.32-.34v-.79a3.06,3.06,0,0,1,0-.49h0a3,3,0,0,1-2.69,1.78c-1.61,0-2.27-.87-2.27-2.64Z"/><path class="cls-3" d="M109.23,176.39a.3.3,0,0,1,.34-.33h.24a.3.3,0,0,1,.33.33v.93a2.59,2.59,0,0,1-.06.54h0a2.44,2.44,0,0,1,2.2-1.85c.24,0,.35.11.35.33v.24c0,.22-.15.34-.38.34-1.44,0-2.13,1.64-2.13,3.07v2.55a.3.3,0,0,1-.32.34h-.26a.31.31,0,0,1-.34-.34Z"/><path class="cls-3" d="M117.36,178.7h.39v-.22a1.53,1.53,0,0,0-1.68-1.76,3.18,3.18,0,0,0-1.65.47.33.33,0,0,1-.47-.1l-.08-.14a.3.3,0,0,1,.1-.46,4.11,4.11,0,0,1,2.17-.6,2.32,2.32,0,0,1,2.54,2.62v4a.3.3,0,0,1-.33.34h-.22a.31.31,0,0,1-.34-.34V182a2.92,2.92,0,0,1,0-.52h0A2.55,2.55,0,0,1,115.5,183a2.1,2.1,0,0,1-2.31-2C113.19,178.82,116,178.7,117.36,178.7Zm-1.7,3.57a2.37,2.37,0,0,0,2.09-2.55v-.33h-.38c-1.07,0-3.23,0-3.23,1.58A1.37,1.37,0,0,0,115.66,182.27Z"/><path class="cls-3" d="M120.61,176.39a.3.3,0,0,1,.34-.33h.24a.3.3,0,0,1,.33.33v.79a2.07,2.07,0,0,1-.06.49h0a3,3,0,0,1,2.76-1.78c1.69,0,2.29,1,2.29,2.65v4a.31.31,0,0,1-.34.34h-.26c-.22,0-.32-.12-.32-.34v-3.76c0-1.07-.18-2-1.5-2a2.64,2.64,0,0,0-2.59,2.78v3a.3.3,0,0,1-.32.34H121a.31.31,0,0,1-.34-.34Z"/><path class="cls-3" d="M131.64,175.89a3.53,3.53,0,0,1,2.27.78.3.3,0,0,1,0,.46l-.1.15c-.12.19-.27.19-.46.06a2.81,2.81,0,0,0-1.72-.62,2.75,2.75,0,0,0,0,5.49,3,3,0,0,0,1.93-.72.28.28,0,0,1,.45.09l.09.13a.32.32,0,0,1-.08.46,3.76,3.76,0,0,1-2.43.87,3.58,3.58,0,1,1,0-7.15Z"/><path class="cls-3" d="M138.36,175.89c1.82,0,2.85,1.32,2.85,3.26a.34.34,0,0,1-.36.34h-4.91a2.6,2.6,0,0,0,2.65,2.72,3,3,0,0,0,1.79-.62c.19-.12.34-.1.45.08l.11.16a.33.33,0,0,1-.1.45,3.91,3.91,0,0,1-2.28.76,3.45,3.45,0,0,1-3.57-3.57A3.34,3.34,0,0,1,138.36,175.89Zm1.91,2.91a2,2,0,0,0-1.94-2.15A2.36,2.36,0,0,0,136,178.8Z"/><path class="cls-3" d="M84.93,186.61a.54.54,0,0,1,.58-.55h.85a.61.61,0,0,1,.64.47l1.72,4.3c.22.57.49,1.41.49,1.41h0s.26-.84.47-1.41l1.73-4.3a.62.62,0,0,1,.65-.47h.84a.53.53,0,0,1,.58.55l.69,8.5a.49.49,0,0,1-.54.59h-.61a.53.53,0,0,1-.58-.55l-.37-4.84c0-.64,0-1.49,0-1.49h0s-.3.93-.51,1.49l-1.4,3.28a.62.62,0,0,1-.64.45h-.57a.62.62,0,0,1-.65-.45l-1.38-3.28c-.22-.56-.53-1.51-.53-1.51h0s0,.87,0,1.51L86,195.15a.53.53,0,0,1-.58.55h-.61a.5.5,0,0,1-.55-.59Z"/><path class="cls-3" d="M99.26,188.61a3.63,3.63,0,1,1-3.8,3.63A3.65,3.65,0,0,1,99.26,188.61Zm0,5.78a2.16,2.16,0,1,0-2.05-2.15A2.05,2.05,0,0,0,99.26,194.39Z"/><path class="cls-3" d="M104.5,190.24h-.37a.5.5,0,0,1-.56-.57v-.23a.51.51,0,0,1,.57-.57h.4v-1.41a.52.52,0,0,1,.57-.57h.54a.52.52,0,0,1,.57.57v1.41h1a.52.52,0,0,1,.57.57v.23a.5.5,0,0,1-.55.57h-1v2.69a1.14,1.14,0,0,0,1.11,1.29c.42,0,.57.17.57.55v.42c0,.41-.23.57-.71.57a2.47,2.47,0,0,1-2.69-2.53Z"/><path class="cls-3" d="M112.19,188.61a3.63,3.63,0,1,1-3.8,3.63A3.65,3.65,0,0,1,112.19,188.61Zm0,5.78a2.16,2.16,0,1,0-2-2.15A2.05,2.05,0,0,0,112.19,194.39Z"/><path class="cls-3" d="M117.26,189.35a.5.5,0,0,1,.56-.57h.53a.52.52,0,0,1,.57.57V190a2.8,2.8,0,0,1,0,.47h0a2.39,2.39,0,0,1,2-1.75c.38,0,.52.19.52.57v.53a.53.53,0,0,1-.59.57c-1.26,0-1.87,1.25-1.87,2.51v2.23a.5.5,0,0,1-.56.57h-.59a.5.5,0,0,1-.56-.57Z"/><path class="cls-3" d="M125.56,188.61a3.83,3.83,0,0,1,2.27.7.51.51,0,0,1,.11.77l-.18.27c-.2.31-.43.31-.76.15a2.41,2.41,0,0,0-1.34-.42,2,2,0,0,0-2.1,2.14,2.09,2.09,0,0,0,2.15,2.17,2.73,2.73,0,0,0,1.55-.53c.34-.19.6-.14.77.18l.14.26a.53.53,0,0,1-.15.76,4.12,4.12,0,0,1-2.46.8,3.63,3.63,0,1,1,0-7.25Z"/><path class="cls-3" d="M129.63,197a1.2,1.2,0,0,0,.48.12,1.3,1.3,0,0,0,1.1-.92l.26-.61-2.63-6.15c-.18-.39,0-.66.43-.66H130a.6.6,0,0,1,.63.46l1.3,3.53c.13.36.26.93.26.93h0s.12-.54.23-.91l1.22-3.54a.6.6,0,0,1,.64-.47H135c.42,0,.59.26.46.65l-2.85,7.3a2.61,2.61,0,0,1-2.5,1.81,2.54,2.54,0,0,1-1-.2.48.48,0,0,1-.26-.73l.12-.3A.5.5,0,0,1,129.63,197Z"/><path class="cls-3" d="M139.6,188.61a3.82,3.82,0,0,1,2.26.7.5.5,0,0,1,.11.77l-.18.27c-.2.31-.43.31-.76.15a2.38,2.38,0,0,0-1.34-.42,2,2,0,0,0-2.1,2.14,2.09,2.09,0,0,0,2.15,2.17,2.7,2.7,0,0,0,1.55-.53c.34-.19.6-.14.77.18l.14.26a.53.53,0,0,1-.15.76,4.11,4.11,0,0,1-2.45.8,3.63,3.63,0,1,1,0-7.25Z"/><path class="cls-3" d="M143.35,186.63a.51.51,0,0,1,.56-.57h.6a.51.51,0,0,1,.55.57v6.77c0,.68.29.8.55.83a.45.45,0,0,1,.42.49v.46a.51.51,0,0,1-.57.58c-.93,0-2.11-.24-2.11-2.22Z"/><path class="cls-3" d="M150.1,188.61a3,3,0,0,1,3.07,3.3.6.6,0,0,1-.6.58h-4.22a2,2,0,0,0,2.08,1.9,2.86,2.86,0,0,0,1.49-.44c.34-.17.59-.13.76.19l.16.27a.51.51,0,0,1-.19.76,4.38,4.38,0,0,1-2.34.69,3.55,3.55,0,0,1-3.72-3.62A3.42,3.42,0,0,1,150.1,188.61Zm1.36,2.84a1.41,1.41,0,0,0-1.4-1.53,1.68,1.68,0,0,0-1.66,1.53Z"/><path class="cls-3" d="M52.06,191.37a1,1,0,0,1-.44-.11,1,1,0,0,1-.48-1.15l10-30.9a2.12,2.12,0,0,1,2-1.48h0a2.11,2.11,0,0,1,2,1.48l2,6.12a.73.73,0,1,1-1.38.46l-2-6.13a.68.68,0,0,0-.66-.48h0a.67.67,0,0,0-.65.48l-9.08,28L66.28,170.1a4,4,0,0,1,3.21-1.63H78a2.14,2.14,0,0,1,1.26,3.88L71.48,178l-.08.08,3,9.25a2.15,2.15,0,0,1-3.3,2.4l-6.73-4.89a2.14,2.14,0,0,1,0-3.47l5.64-4.1.09-.07,8.31-6a.69.69,0,0,0,.25-.77.67.67,0,0,0-.66-.47H69.49a2.54,2.54,0,0,0-2,1L52.83,191A1,1,0,0,1,52.06,191.37ZM70.16,179l-4.93,3.57a.7.7,0,0,0,0,1.12L72,188.56a.66.66,0,0,0,.81,0,.68.68,0,0,0,.25-.77Z"/><path class="cls-3" d="M52.57,176a.75.75,0,0,1-.42-.14l-5-3.51A2.13,2.13,0,0,1,46.4,170a2.11,2.11,0,0,1,2-1.48h6.09a.73.73,0,1,1,0,1.46H48.44a.67.67,0,0,0-.66.47.69.69,0,0,0,.25.77l5,3.52a.73.73,0,0,1-.43,1.32Z"/><path class="cls-3" d="M59.34,201.63a2.36,2.36,0,0,1-1.17-.31l-12.69-7.21a.72.72,0,0,1-.37-.63V178a.73.73,0,0,1,1.45,0v15.08l12.33,7a.89.89,0,0,0,.93,0l9-5.64a.73.73,0,0,1,.77,1.24l-9,5.64A2.39,2.39,0,0,1,59.34,201.63Z"/></svg>