<?xml version="1.0" encoding="utf-8"?>
<!-- Generator: Adobe Illustrator 24.0.3, SVG Export Plug-In . SVG Version: 6.00 Build 0)  -->
<svg version="1.1" id="Layer_1" xmlns="http://www.w3.org/2000/svg" xmlns:xlink="http://www.w3.org/1999/xlink" x="0px" y="0px"
	 viewBox="0 0 300 600" style="enable-background:new 0 0 300 600;" xml:space="preserve">
<style type="text/css">
	.st0{clip-path:url(#SVGID_2_);}
	.st1{enable-background:new    ;}
	.st2{fill:#FFFFFF;}
</style>
<title>Artboard 1 copy 3</title>
<g>
	<defs>
		<rect id="SVGID_1_" y="0" width="300" height="600"/>
	</defs>
	<clipPath id="SVGID_2_">
		<use xlink:href="#SVGID_1_"  style="overflow:visible;"/>
	</clipPath>
	<g class="st0">
		<g class="st1">
			<path class="st2" d="M22.8,87.6c2.5,0,3.1-0.9,3.1-2.1V62.3c0-1.2-0.6-2.1-3.1-2.1v-0.2h10.1v25.6c0,1.2,0.6,2.1,3.1,2.1v0.2
				H22.8V87.6z M35,60.2v-0.2h11.3v8.2h-0.3C44,62.3,41.2,60.6,35,60.2z M37.2,74.1L35,73.9v-0.2l2.3-0.2c2.4-0.2,4.1-1.2,5.4-3.5
				H43v7.6h-0.3C41.3,75.2,39.6,74.3,37.2,74.1z"/>
		</g>
		<g class="st1">
			<path class="st2" d="M58.2,67.1c-2.4,0.3-3.2,2.3-3.2,10.3c0,7.7,0.8,10.3,3.2,10.5v0.2c-4.7,0-10.2-3.9-10.2-10.8
				s5.4-10.6,10.2-10.6V67.1z M70,77.5c0,6.9-5.5,10.8-10.2,10.8V88c2.4-0.2,3.2-2.8,3.2-10.5c0-8-0.8-10.1-3.2-10.3v-0.2
				C64.6,66.9,70,70.6,70,77.5z"/>
		</g>
		<g class="st1">
			<path class="st2" d="M82.6,85.5c0,1,0.6,2.1,3.1,2.1v0.2H72.7v-0.2c2.5,0,3.1-1.1,3.1-2.1V70.9c0-1.5-0.7-2.2-3-2.2v-0.2
				c3.8,0,6.9-0.4,9.8-1.6V85.5z M93.7,71.3c0,2.8-2,4.7-4.2,4.7c-1,0-1.8-0.2-2.3-0.9c0.8-0.4,1.6-1.3,1.6-2.8
				c0-1.2-0.9-2.2-2.3-2.2c-1.1,0-1.9,0.6-2.5,1.6v-0.3c0.8-2.6,2.8-4.4,5.3-4.4C92.1,66.9,93.7,68.9,93.7,71.3z"/>
		</g>
		<g class="st1">
			<path class="st2" d="M114.6,85.5c0,1,0.6,2.1,3.1,2.1v0.2h-12.9v-0.2c2.5,0,3.1-1.1,3.1-2.1V70.9c0-1.5-0.7-2.2-3-2.2v-0.2
				c3.8,0,6.9-0.4,9.8-1.6V85.5z M128.2,72.7v12.8c0,1,0.6,2.1,3,2.1v0.2h-12.9v-0.2c2.4,0,3.1-1.1,3.1-2.1V72.7
				c0-2.3-0.9-3.5-2.9-3.5c-1.1,0-2.2,0.6-2.7,1.2v-0.2c0.9-1.7,3-3.3,6-3.3C125.8,66.9,128.2,68.6,128.2,72.7z M141.8,72.7v12.8
				c0,1,0.6,2.1,3.1,2.1v0.2H132v-0.2c2.4,0,3.1-1.1,3.1-2.1V72.7c0-2.3-0.9-3.5-2.9-3.5c-1.1,0-2.2,0.6-2.7,1.2v-0.2
				c0.9-1.7,3-3.3,6-3.3C139.4,66.9,141.8,68.6,141.8,72.7z"/>
			<path class="st2" d="M157.4,67.1c-2.4,0.3-3.2,2.3-3.2,10.3c0,7.7,0.8,10.3,3.2,10.5v0.2c-4.7,0-10.2-3.9-10.2-10.8
				s5.4-10.6,10.2-10.6V67.1z M169.2,77.5c0,6.9-5.5,10.8-10.2,10.8V88c2.4-0.2,3.2-2.8,3.2-10.5c0-8-0.8-10.1-3.2-10.3v-0.2
				C163.8,66.9,169.2,70.6,169.2,77.5z"/>
		</g>
		<g class="st1">
			<path class="st2" d="M181.7,85.5c0,1,0.6,2.1,3.1,2.1v0.2h-12.9v-0.2c2.5,0,3.1-1.1,3.1-2.1V70.9c0-1.5-0.7-2.2-3-2.2v-0.2
				c3.8,0,6.9-0.4,9.8-1.6V85.5z M192.8,71.3c0,2.8-2,4.7-4.2,4.7c-1,0-1.8-0.2-2.3-0.9c0.8-0.4,1.6-1.3,1.6-2.8
				c0-1.2-0.9-2.2-2.3-2.2c-1.1,0-1.9,0.6-2.5,1.6v-0.3c0.8-2.6,2.8-4.4,5.3-4.4C191.3,66.9,192.8,68.9,192.8,71.3z"/>
		</g>
		<g class="st1">
			<path class="st2" d="M195,77.5c0-6.9,5.3-10.6,10.1-10.6v0.2c-2.4,0.3-3.1,2.3-3.1,10.2c0,5.9,2.6,9.2,6.3,9.2
				c2.3,0,4.1-0.7,6-2.2v0.2c-2.1,2.7-6,3.7-8.7,3.7C200.3,88.3,195,84.4,195,77.5z M204.3,75.8c3.6,0,5.1-1.1,5.1-4.6
				c0-2-0.8-3.8-2.7-4v-0.2c5.4,0,8,3.9,8,7c0,0.7-0.1,1.5-0.2,2.1h-10.3V75.8z"/>
		</g>
		<g class="st1">
			<path class="st2" d="M22.8,118.6c0-6.9,5.3-10.6,10.1-10.6v0.2c-2.4,0.3-3.1,2.3-3.1,10.2c0,5.9,2.6,9.2,6.3,9.2
				c2.3,0,4.1-0.7,6-2.2v0.2c-2.1,2.7-6,3.7-8.7,3.7C28.1,129.3,22.8,125.5,22.8,118.6z M32,116.8c3.6,0,5.1-1.1,5.1-4.6
				c0-2-0.8-3.8-2.7-4V108c5.4,0,8,3.9,8,7c0,0.7-0.1,1.5-0.2,2.1H32V116.8z"/>
		</g>
		<g class="st1">
			<path class="st2" d="M45.9,110.1c-0.4-0.9-1-1.4-2.3-1.4v-0.2h11.5v0.2c-1.4,0-2,1-1.3,2.4l5.4,11.2l-3.5,6.7h-0.2L45.9,110.1z
				 M60.9,118.2c0.7-1.3,1.1-3.1,1.1-5.3c0-2.3-1.3-4.3-4.2-4.3v-0.2h10.2v0.2c-1.4,0-1.9,0.5-2.7,1.9l-4.3,8L60.9,118.2z"/>
		</g>
		<g class="st1">
			<path class="st2" d="M68.5,118.6c0-6.9,5.3-10.6,10.1-10.6v0.2c-2.4,0.3-3.1,2.3-3.1,10.2c0,5.9,2.6,9.2,6.3,9.2
				c2.3,0,4.1-0.7,6-2.2v0.2c-2.1,2.7-6,3.7-8.7,3.7C73.8,129.3,68.5,125.5,68.5,118.6z M77.7,116.8c3.6,0,5.1-1.1,5.1-4.6
				c0-2-0.8-3.8-2.7-4V108c5.4,0,8,3.9,8,7c0,0.7-0.1,1.5-0.2,2.1H77.7V116.8z"/>
			<path class="st2" d="M100.7,126.6c0,1,0.6,2.1,3.1,2.1v0.2H90.8v-0.2c2.5,0,3.1-1.1,3.1-2.1V112c0-1.5-0.7-2.2-3-2.2v-0.2
				c3.8,0,6.9-0.4,9.8-1.6V126.6z M111.8,112.4c0,2.8-2,4.7-4.2,4.7c-1,0-1.8-0.2-2.3-0.9c0.8-0.4,1.6-1.3,1.6-2.8
				c0-1.2-0.9-2.2-2.3-2.2c-1.1,0-1.9,0.6-2.5,1.6v-0.3c0.8-2.6,2.8-4.4,5.3-4.4C110.2,108,111.8,109.9,111.8,112.4z"/>
			<path class="st2" d="M114.6,110.1c-0.4-0.9-1-1.4-2.3-1.4v-0.2h11.5v0.2c-1.4,0-2,1-1.3,2.4l5.4,11.2l-3.5,6.7h-0.2L114.6,110.1z
				 M112.8,135.5c0-1.8,1.4-3.2,3.6-3.9c-0.1,0.4-0.2,0.7-0.2,1c0,1.6,0.8,2.8,2.4,2.8c1.4,0,2.6-1.5,4.1-4.1h0.3
				c-2.3,4.2-3.8,7.9-6.7,7.9C114.1,139.2,112.8,137.6,112.8,135.5z M129.6,118.2c0.7-1.3,1.1-3.1,1.1-5.3c0-2.3-1.3-4.3-4.2-4.3
				v-0.2h10.2v0.2c-1.4,0-1.9,0.5-2.7,1.9l-4.3,8L129.6,118.2z"/>
			<path class="st2" d="M152.9,125.7v0.2c-1.3,1.9-3.9,3.3-7,3.3c-3.7,0-6.3-1.7-6.3-5.8v-13.5h-2.1l0.5-0.6h1.7V105
				c2.5,0,5-0.8,6.7-2.3v6.7h5.5l-0.5,0.6h-5.1v13.6c0,2.1,0.8,4.2,2.7,4.2C150.1,127.8,151.5,127.1,152.9,125.7z"/>
			<path class="st2" d="M163.5,126.6c0,1,0.6,2.1,3.1,2.1v0.2h-12.9v-0.2c2.5,0,3.1-1.1,3.1-2.1v-23.8c0-1.5-0.7-2.2-3-2.2v-0.2
				c3.8,0,6.9-0.4,9.8-1.6V126.6z M177.8,113.7v12.8c0,1,0.6,2.1,3.1,2.1v0.2H168v-0.2c2.4,0,3-1.1,3-2.1v-12.8
				c0-2.3-1.2-3.5-3.2-3.5c-1.1,0-2.1,0.4-3.1,1.3v-0.2c1.1-1.7,3.8-3.3,6.8-3.3C175.2,108,177.8,109.7,177.8,113.7z"/>
			<path class="st2" d="M182.5,109.5c3.8,0,6.9-0.4,9.8-1.6v18.6c0,1,0.6,2.1,3.1,2.1v0.2h-12.9v-0.2c2.5,0,3.1-1.1,3.1-2.1v-14.6
				c0-1.5-0.7-2.2-3-2.2V109.5z M184.6,101.8c0-2.1,1.7-3.6,4.2-3.6s4.2,1.4,4.2,3.6c0,2.2-1.7,3.6-4.2,3.6S184.6,104,184.6,101.8z"
				/>
			<path class="st2" d="M197.1,128.7c2.5,0,3.1-1.1,3.1-2.1V112c0-1.5-0.7-2.2-3-2.2v-0.2c3.8,0,6.9-0.4,9.8-1.6v18.6
				c0,1,0.6,2.1,3.1,2.1v0.2h-12.9V128.7z M211.6,128.7c2.4,0,3-1.1,3-2.1v-12.8c0-2.3-1.2-3.5-3.2-3.5c-1.2,0-2.1,0.4-3.1,1.3v-0.2
				c1.1-1.7,3.8-3.3,6.8-3.3c3.7,0,6.3,1.7,6.3,5.8v12.8c0,1,0.6,2.1,3.1,2.1v0.2h-12.9V128.7z"/>
			<path class="st2" d="M226.9,115.4c0-5.3,5-7.4,9.2-7.4v0.2c-1.8,0.2-2.6,2.3-2.6,7.1c0,5,0.8,7,2.6,7.1v0.2
				C231.9,122.7,226.9,120.7,226.9,115.4z M237.8,138.9c4.1-0.5,5.4-2.7,5.4-4.2c0-5.7-16-0.6-16-8c0-1.7,0.9-3,2.8-4.2l0.1,0.2
				c-0.2,0.2-0.4,0.5-0.4,0.8c0,4.6,18.7-0.7,18.7,8.2c0,4.2-3.7,7-10.6,7.4V138.9z M227.2,135.5c0-2.4,3-3.2,6.2-3.2
				c-0.7,0.3-1.8,1.5-1.8,2.9c0,1.9,2.1,3.3,4.5,3.7v0.2C231.8,139.1,227.2,138.2,227.2,135.5z M237.8,122.4c2-0.2,2.8-2.2,2.8-7.1
				c0-4.8-0.9-6.9-2.8-7.1V108c4.4,0.1,9.4,2.1,9.4,7.4c0,5.3-5.1,7.3-9.4,7.3V122.4z M240,107.2c0.7-2.1,2.6-4.9,5.4-4.9
				c2.2,0,3.5,1.1,3.5,3.1c0,2-1.8,3.2-3.3,3.2c0-1.7-0.9-2.8-2.2-2.8c-1.2,0-2.6,0.7-3.2,1.5L240,107.2z"/>
		</g>
		<g class="st1">
			<path class="st2" d="M38,166.8v0.2c-1.3,1.9-3.9,3.3-7,3.3c-3.7,0-6.3-1.7-6.3-5.8v-13.5h-2.1l0.5-0.6h1.7v-4.4
				c2.5,0,5-0.8,6.7-2.3v6.7h5.5l-0.5,0.6h-5.1v13.6c0,2.1,0.8,4.2,2.7,4.2C35.2,168.9,36.6,168.2,38,166.8z"/>
			<path class="st2" d="M48.6,167.6c0,1,0.6,2.1,3.1,2.1v0.2H38.7v-0.2c2.5,0,3.1-1.1,3.1-2.1v-23.8c0-1.5-0.7-2.2-3-2.2v-0.2
				c3.8,0,6.9-0.4,9.8-1.6V167.6z M63,154.8v12.8c0,1,0.6,2.1,3.1,2.1v0.2H53.1v-0.2c2.4,0,3-1.1,3-2.1v-12.8c0-2.3-1.2-3.5-3.2-3.5
				c-1.1,0-2.1,0.4-3.1,1.3v-0.2c1.1-1.7,3.8-3.3,6.8-3.3C60.3,149,63,150.7,63,154.8z"/>
			<path class="st2" d="M67.8,165.1c0-3.6,3.3-5.6,7.9-5.6h4.4v0.2h-1.2c-3,0-4.4,1.9-4.4,4.5c0,2.3,0.7,4,2.6,4
				c1.1,0,2.1-0.6,3-1.4v0.2c-1.4,1.6-3.5,3.3-6.5,3.3C70.1,170.4,67.8,168.4,67.8,165.1z M69.5,153.5c0-2.1,1.9-4.2,7.5-4.5v0.2
				c-1.6,0.2-2.6,1.6-2.6,3c0,1.5,1,2.4,2.7,2.5c-0.6,1.1-2.3,2-3.9,2C70.8,156.7,69.5,155.2,69.5,153.5z M81.4,165.7v-12.6
				c0-2-0.8-3.6-2.8-3.9V149c6.8,0.2,9.5,2.8,9.5,8.2v10c0,1.2,0.4,1.7,1.1,1.7c0.6,0,1.3-0.6,2-1.8h0.2c-0.7,2.3-2.9,3.3-5.3,3.3
				C82.9,170.4,81.4,169.2,81.4,165.7z"/>
			<path class="st2" d="M92.8,169.7c2.5,0,3.1-1.1,3.1-2.1V153c0-1.5-0.7-2.2-3-2.2v-0.2c3.8,0,6.9-0.4,9.8-1.6v18.6
				c0,1,0.6,2.1,3.1,2.1v0.2H92.8V169.7z M107.2,169.7c2.4,0,3-1.1,3-2.1v-12.8c0-2.3-1.2-3.5-3.2-3.5c-1.1,0-2.1,0.4-3.1,1.3v-0.2
				c1.1-1.7,3.8-3.3,6.8-3.3c3.7,0,6.3,1.7,6.3,5.8v12.8c0,1,0.6,2.1,3.1,2.1v0.2h-12.9V169.7z"/>
			<path class="st2" d="M132.4,165.1c0-3.6,3.3-5.6,7.9-5.6h4.4v0.2h-1.2c-3,0-4.4,1.9-4.4,4.5c0,2.3,0.7,4,2.6,4
				c1.1,0,2.1-0.6,3-1.4v0.2c-1.4,1.6-3.5,3.3-6.5,3.3C134.7,170.4,132.3,168.4,132.4,165.1z M134,153.5c0-2.1,1.9-4.2,7.5-4.5v0.2
				c-1.6,0.2-2.6,1.6-2.6,3c0,1.5,1,2.4,2.7,2.5c-0.6,1.1-2.3,2-3.9,2C135.3,156.7,134,155.2,134,153.5z M145.9,165.7v-12.6
				c0-2-0.8-3.6-2.8-3.9V149c6.8,0.2,9.5,2.8,9.5,8.2v10c0,1.2,0.4,1.7,1.2,1.7c0.6,0,1.3-0.6,2-1.8h0.2c-0.7,2.3-2.9,3.3-5.3,3.3
				C147.4,170.4,145.9,169.2,145.9,165.7z"/>
		</g>
		<g class="st1">
			<path class="st2" d="M157.3,169.7c2.5,0,3.1-1.1,3.1-2.1V153c0-1.5-0.7-2.2-3-2.2v-0.2c3.8,0,6.9-0.4,9.8-1.6v18.6
				c0,1,0.6,2.1,3.1,2.1v0.2h-12.9V169.7z M171.7,169.7c2.4,0,3-1.1,3-2.1v-12.8c0-2.3-1.2-3.5-3.2-3.5c-1.1,0-2.1,0.4-3.1,1.3v-0.2
				c1.1-1.7,3.8-3.3,6.8-3.3c3.7,0,6.3,1.7,6.3,5.8v12.8c0,1,0.6,2.1,3.1,2.1v0.2h-12.9V169.7z"/>
		</g>
		<g class="st1">
			<path class="st2" d="M186.2,151.1c-0.4-0.9-1-1.4-2.3-1.4v-0.2h11.5v0.2c-1.4,0-2,1-1.3,2.4l5.4,11.2L196,170h-0.2L186.2,151.1z
				 M184.4,176.6c0-1.8,1.4-3.2,3.6-3.9c-0.1,0.4-0.2,0.7-0.2,1c0,1.6,0.8,2.8,2.4,2.8c1.4,0,2.6-1.5,4.1-4.1h0.3
				c-2.3,4.2-3.8,7.9-6.7,7.9C185.7,180.2,184.4,178.7,184.4,176.6z M201.2,159.3c0.7-1.3,1.2-3.1,1.2-5.3c0-2.3-1.3-4.3-4.2-4.3
				v-0.2h10.2v0.2c-1.4,0-1.9,0.5-2.7,1.9l-4.3,8L201.2,159.3z"/>
		</g>
		<g class="st1">
			<path class="st2" d="M218.9,149.3c-2.4,0.3-3.2,2.3-3.2,10.3c0,7.7,0.8,10.3,3.2,10.5v0.2c-4.7,0-10.2-3.9-10.2-10.8
				s5.4-10.6,10.2-10.6V149.3z M230.7,159.6c0,6.9-5.5,10.8-10.2,10.8v-0.2c2.4-0.2,3.2-2.8,3.2-10.5c0-8-0.8-10.1-3.2-10.3V149
				C225.3,149,230.7,152.7,230.7,159.6z"/>
			<path class="st2" d="M233.4,169.7c2.5,0,3.1-1.1,3.1-2.1V153c0-1.5-0.7-2.2-3-2.2v-0.2c3.8,0,6.9-0.4,9.8-1.6v18.6
				c0,1,0.6,2.1,3.1,2.1v0.2h-12.9V169.7z M247.8,169.7c2.4,0,3-1.1,3-2.1v-12.8c0-2.3-1.2-3.5-3.2-3.5c-1.2,0-2.1,0.4-3.1,1.3v-0.2
				c1.1-1.7,3.8-3.3,6.8-3.3c3.7,0,6.3,1.7,6.3,5.8v12.8c0,1,0.6,2.1,3.1,2.1v0.2h-12.9V169.7z"/>
			<path class="st2" d="M263,159.6c0-6.9,5.3-10.6,10.1-10.6v0.2c-2.4,0.3-3.1,2.3-3.1,10.2c0,5.9,2.6,9.2,6.3,9.2
				c2.3,0,4.1-0.7,6-2.2v0.2c-2.1,2.7-6,3.7-8.7,3.7C268.3,170.4,263,166.5,263,159.6z M272.2,157.9c3.6,0,5.1-1.1,5.1-4.6
				c0-2-0.8-3.8-2.7-4V149c5.4,0,8,3.9,8,7c0,0.7-0.1,1.5-0.2,2.1h-10.3V157.9z"/>
		</g>
		<g class="st1">
			<path class="st2" d="M22.8,200.7c0-6.9,5.3-10.6,10.1-10.6v0.2c-2.4,0.3-3.1,2.3-3.1,10.2c0,5.9,2.6,9.2,6.3,9.2
				c2.3,0,4.1-0.7,6-2.2v0.2c-2.1,2.7-6,3.7-8.7,3.7C28.1,211.4,22.8,207.6,22.8,200.7z M32,198.9c3.6,0,5.1-1.1,5.1-4.6
				c0-2-0.8-3.8-2.7-4v-0.2c5.4,0,8,3.9,8,7c0,0.7-0.1,1.5-0.2,2.1H32V198.9z"/>
			<path class="st2" d="M45,182.4c3.8,0,6.9-0.4,9.8-1.6v27.8c0,1,0.6,2.1,3.1,2.1v0.2H44.9v-0.2c2.5,0,3.1-1.1,3.1-2.1v-23.8
				c0-1.5-0.7-2.2-3-2.2V182.4z"/>
			<path class="st2" d="M67.5,206.1c-1.4,0-2.3,0.8-2.3,2.1c0,1.2,0.8,2.7,3.7,3v0.2c-5.5-0.2-8.5-1.7-8.5-4.1c0-1.9,1.6-3,3.5-3
				C65.5,204.3,66.9,205.1,67.5,206.1z M68.8,190.3c-1.5,0.3-3,1.1-3,2.8c0.1,4.8,13.4,5.5,13.4,12.1c0,4-3.4,6.1-8.7,6.3v-0.2
				c1.7-0.3,3.7-0.9,3.7-3c0-4.3-13.5-5.8-13.5-12.1c0-3.6,3.4-5.8,8-6V190.3z M78.5,194.3c0,1.3-1,2.5-3,2.5c-1.7,0-3-0.7-3.5-2
				c1.2-0.1,1.9-0.9,1.8-1.9c0-1.2-1.6-2.4-3.2-2.6v-0.2C75.3,190.3,78.5,192,78.5,194.3z"/>
			<path class="st2" d="M82.8,200.7c0-6.9,5.3-10.6,10.1-10.6v0.2c-2.4,0.3-3.1,2.3-3.1,10.2c0,5.9,2.6,9.2,6.3,9.2
				c2.3,0,4.1-0.7,6-2.2v0.2c-2.1,2.7-6,3.7-8.7,3.7C88,211.4,82.8,207.6,82.8,200.7z M92,198.9c3.6,0,5.1-1.1,5.1-4.6
				c0-2-0.8-3.8-2.7-4v-0.2c5.4,0,8,3.9,8,7c0,0.7-0.1,1.5-0.2,2.1H92V198.9z"/>
		</g>
	</g>
</g>
</svg>
