<?xml version="1.0" encoding="utf-8"?>
<!-- Generator: Adobe Illustrator 24.0.3, SVG Export Plug-In . SVG Version: 6.00 Build 0)  -->
<svg version="1.1" id="Layer_1" xmlns="http://www.w3.org/2000/svg" xmlns:xlink="http://www.w3.org/1999/xlink" x="0px" y="0px"
	 viewBox="0 0 300 600" style="enable-background:new 0 0 300 600;" xml:space="preserve">
<style type="text/css">
	.st0{clip-path:url(#SVGID_2_);}
	.st1{enable-background:new    ;}
	.st2{fill:#FFFFFF;}
</style>
<title>Artboard 1 copy 4</title>
<g>
	<defs>
		<rect id="SVGID_1_" y="0.3" width="300" height="600"/>
	</defs>
	<clipPath id="SVGID_2_">
		<use xlink:href="#SVGID_1_"  style="overflow:visible;"/>
	</clipPath>
	<g class="st0">
		<g class="st1">
			<path class="st2" d="M47.4,83.3l0.2,0.3c-2.1,3.4-5.9,5-9.9,5c-6.7,0-15-4.8-15-14.3c0-10.4,8.1-14.2,14-14.4v0.2
				c-2.9,0.6-6,3.3-6,13.9c0,10.5,4.2,13,8.9,13C43.3,87,45.9,85.1,47.4,83.3z M47.7,59.9v10h-0.3c-1.6-5.5-4.6-8.6-8.7-9.7v-0.2
				c3.6,0.2,5.7,0.8,7.4,1.9l1.2-1.9H47.7z"/>
			<path class="st2" d="M60.1,85.8c0,1,0.6,2.1,3.1,2.1v0.2H50.2v-0.2c2.5,0,3.1-1.1,3.1-2.1V62c0-1.5-0.7-2.2-3-2.2v-0.2
				c3.8,0,6.9-0.4,9.8-1.6V85.8z M74.5,73v12.8c0,1,0.6,2.1,3.1,2.1v0.2H64.7v-0.2c2.4,0,3-1.1,3-2.1V73c0-2.3-1.2-3.5-3.2-3.5
				c-1.1,0-2.1,0.4-3.1,1.3v-0.2c1.1-1.7,3.8-3.3,6.8-3.3C71.8,67.2,74.5,69,74.5,73z"/>
			<path class="st2" d="M90,67.5c-2.4,0.3-3.2,2.3-3.2,10.3c0,7.7,0.8,10.3,3.2,10.5v0.2c-4.7,0-10.2-3.9-10.2-10.8
				S85.2,67.3,90,67.2V67.5z M101.8,77.8c0,6.9-5.5,10.8-10.2,10.8v-0.2c2.4-0.2,3.2-2.8,3.2-10.5c0-8-0.8-10.1-3.2-10.3v-0.2
				C96.4,67.2,101.8,70.9,101.8,77.8z"/>
			<path class="st2" d="M115.5,67.5c-2.4,0.3-3.2,2.3-3.2,10.3c0,7.7,0.8,10.3,3.2,10.5v0.2c-4.7,0-10.2-3.9-10.2-10.8
				s5.4-10.6,10.2-10.6V67.5z M127.3,77.8c0,6.9-5.5,10.8-10.2,10.8v-0.2c2.4-0.2,3.2-2.8,3.2-10.5c0-8-0.8-10.1-3.2-10.3v-0.2
				C121.9,67.2,127.3,70.9,127.3,77.8z"/>
			<path class="st2" d="M137.9,83.3c-1.4,0-2.3,0.8-2.3,2.1c0,1.2,0.8,2.7,3.7,3v0.2c-5.5-0.2-8.5-1.7-8.5-4.1c0-1.9,1.6-3,3.5-3
				C135.9,81.5,137.3,82.3,137.9,83.3z M139.3,67.5c-1.5,0.3-3,1.1-3,2.8c0.1,4.8,13.4,5.5,13.4,12.1c0,4-3.4,6.1-8.7,6.3v-0.2
				c1.7-0.3,3.7-0.9,3.7-3c0-4.3-13.5-5.8-13.5-12.1c0-3.6,3.4-5.8,8-6V67.5z M149,71.5c0,1.3-1,2.5-3,2.5c-1.7,0-3-0.7-3.5-2
				c1.2-0.1,1.9-0.9,1.8-1.9c0-1.2-1.6-2.4-3.2-2.6v-0.2C145.7,67.5,149,69.2,149,71.5z"/>
			<path class="st2" d="M153.2,77.8c0-6.9,5.3-10.6,10.1-10.6v0.2c-2.4,0.3-3.1,2.3-3.1,10.2c0,5.9,2.6,9.2,6.3,9.2
				c2.3,0,4.1-0.7,6-2.2v0.2c-2.1,2.7-6,3.7-8.7,3.7C158.5,88.6,153.2,84.7,153.2,77.8z M162.4,76.1c3.6,0,5.1-1.1,5.1-4.6
				c0-2-0.8-3.8-2.7-4v-0.2c5.4,0,8,3.9,8,7c0,0.7-0.1,1.5-0.2,2.1h-10.3V76.1z"/>
		</g>
		<g class="st1">
			<path class="st2" d="M32.8,129.4v0.2c-3.2-0.1-5.8-0.7-8-2l-1.4,2h-0.3v-10h0.3C24.9,124.3,27.8,127.7,32.8,129.4z M44.9,121.2
				c0,5.3-3.9,8.2-10.3,8.4v-0.2c2.3-0.4,4.5-1.7,4.5-4.2c0-7.2-15.7-7.8-15.7-16.2c0-4.9,4-7.8,9.4-8.1v0.2
				c-1.9,0.3-3.6,1.5-3.6,3.8C29.2,112.1,44.9,112.9,44.9,121.2z M34.6,101.2v-0.2c3.1,0.1,5.5,0.8,7.4,2.2l1.5-2.2h0.3v9.2h-0.3
				C42.2,105.7,38.6,102.1,34.6,101.2z"/>
		</g>
		<g class="st1">
			<path class="st2" d="M63.6,126.1v0.2c-1.3,1.9-3.9,3.3-7,3.3c-3.7,0-6.3-1.7-6.3-5.8v-13.5h-2.1l0.5-0.6h1.7v-4.4
				c2.5,0,5-0.8,6.7-2.3v6.7h5.5l-0.5,0.6H57V124c0,2.1,0.8,4.2,2.7,4.2C60.9,128.2,62.3,127.4,63.6,126.1z"/>
			<path class="st2" d="M64.9,124.4c0-3.6,3.3-5.6,7.9-5.6h4.4v0.2H76c-3,0-4.4,1.9-4.4,4.5c0,2.3,0.7,4,2.6,4c1.1,0,2.1-0.6,3-1.4
				v0.2c-1.4,1.6-3.5,3.3-6.5,3.3C67.2,129.7,64.9,127.7,64.9,124.4z M66.6,112.8c0-2.1,1.9-4.2,7.5-4.5v0.2c-1.6,0.2-2.6,1.6-2.6,3
				c0,1.5,1,2.4,2.7,2.5c-0.6,1.1-2.3,2-3.9,2C67.9,116,66.6,114.5,66.6,112.8z M78.5,125v-12.6c0-2-0.8-3.6-2.8-3.9v-0.2
				c6.8,0.2,9.5,2.8,9.5,8.2v10c0,1.2,0.4,1.7,1.1,1.7c0.6,0,1.3-0.6,2-1.8h0.2c-0.7,2.3-2.9,3.3-5.3,3.3
				C80,129.7,78.5,128.5,78.5,125z"/>
		</g>
		<g class="st1">
			<path class="st2" d="M99.7,126.9c0,1,0.6,2.1,3.1,2.1v0.2H89.9V129c2.5,0,3.1-1.1,3.1-2.1v-14.6c0-1.5-0.7-2.2-3-2.2v-0.2
				c3.8,0,6.9-0.4,9.8-1.6V126.9z M110.8,112.7c0,2.8-2,4.7-4.2,4.7c-1,0-1.8-0.2-2.3-0.9c0.8-0.4,1.6-1.3,1.6-2.8
				c0-1.2-0.9-2.2-2.3-2.2c-1.1,0-1.9,0.6-2.5,1.6v-0.3c0.8-2.6,2.8-4.4,5.3-4.4C109.2,108.3,110.8,110.3,110.8,112.7z"/>
		</g>
		<g class="st1">
			<path class="st2" d="M47.4,165.4l0.2,0.3c-2.1,3.4-5.9,5-9.9,5c-6.7,0-15-4.8-15-14.3c0-10.4,8.1-14.2,14-14.4v0.2
				c-2.9,0.6-6,3.3-6,13.9c0,10.5,4.2,13,8.9,13C43.3,169.1,45.9,167.2,47.4,165.4z M47.7,142v10h-0.3c-1.6-5.5-4.6-8.6-8.7-9.7V142
				c3.6,0.2,5.7,0.8,7.4,1.9l1.2-1.9H47.7z"/>
			<path class="st2" d="M50.8,165.5c0-3.6,3.3-5.6,7.9-5.6h4.4v0.2h-1.2c-3,0-4.4,1.9-4.4,4.5c0,2.3,0.7,4,2.6,4
				c1.1,0,2.1-0.6,3-1.4v0.2c-1.4,1.6-3.5,3.3-6.5,3.3C53.1,170.7,50.8,168.7,50.8,165.5z M52.5,153.8c0-2.1,1.9-4.2,7.5-4.5v0.2
				c-1.6,0.2-2.6,1.6-2.6,3c0,1.5,1,2.4,2.7,2.5c-0.6,1.1-2.3,2-3.9,2C53.8,157.1,52.5,155.6,52.5,153.8z M64.4,166.1v-12.6
				c0-2-0.8-3.6-2.8-3.9v-0.2c6.8,0.2,9.5,2.8,9.5,8.2v10c0,1.2,0.4,1.7,1.1,1.7c0.6,0,1.3-0.6,2-1.8h0.2c-0.7,2.3-2.9,3.3-5.3,3.3
				C65.8,170.7,64.4,169.6,64.4,166.1z"/>
			<path class="st2" d="M85.6,168c0,1,0.6,2.1,3.1,2.1v0.2H75.7v-0.2c2.5,0,3.1-1.1,3.1-2.1v-14.6c0-1.5-0.7-2.2-3-2.2V151
				c3.8,0,6.9-0.4,9.8-1.6V168z M99.2,155.2V168c0,1,0.6,2.1,3,2.1v0.2H89.4v-0.2c2.4,0,3.1-1.1,3.1-2.1v-12.8
				c0-2.3-0.9-3.5-2.9-3.5c-1.1,0-2.2,0.6-2.7,1.2v-0.2c0.9-1.7,3-3.3,6-3.3C96.8,149.4,99.2,151.1,99.2,155.2z M112.8,155.2V168
				c0,1,0.6,2.1,3.1,2.1v0.2H103v-0.2c2.4,0,3.1-1.1,3.1-2.1v-12.8c0-2.3-0.9-3.5-2.9-3.5c-1.1,0-2.2,0.6-2.7,1.2v-0.2
				c0.9-1.7,3-3.3,6-3.3C110.4,149.4,112.8,151.1,112.8,155.2z"/>
			<path class="st2" d="M126.9,176.6c0,1.5,0.7,2.2,3,2.2v0.2c-3.8,0-6.4,0.4-9.8,1.6v-27.2c0-1.5-0.7-2.2-3-2.2v-0.2
				c3.8,0,6.4-0.4,9.8-1.6V176.6z M142.5,159.8c0,8.6-4.5,10.9-8.4,10.9c-2.3,0-5-1.6-6-3.3v-0.2c1,0.8,2.1,1.4,3.4,1.4
				c1.9,0,4-1.4,4-8.7c0-7.4-1.9-8.4-4-8.4c-1.3,0-2.5,0.5-3.4,1.5v-0.3c1-1.7,3.7-3.3,6-3.3C138.1,149.4,142.5,151.7,142.5,159.8z"
				/>
			<path class="st2" d="M146.1,160c0-6.9,5.3-10.6,10.1-10.6v0.2c-2.4,0.3-3.1,2.3-3.1,10.2c0,5.9,2.6,9.2,6.3,9.2
				c2.3,0,4.1-0.7,6-2.2v0.2c-2.1,2.7-6,3.7-8.7,3.7C151.4,170.7,146.1,166.9,146.1,160z M155.4,158.2c3.6,0,5.1-1.1,5.1-4.6
				c0-2-0.8-3.8-2.7-4v-0.2c5.4,0,8,3.9,8,7c0,0.7-0.1,1.5-0.2,2.1h-10.3V158.2z"/>
			<path class="st2" d="M178.3,168c0,1,0.6,2.1,3.1,2.1v0.2h-12.9v-0.2c2.5,0,3.1-1.1,3.1-2.1v-14.6c0-1.5-0.7-2.2-3-2.2V151
				c3.8,0,6.9-0.4,9.8-1.6V168z M189.4,153.8c0,2.8-2,4.7-4.2,4.7c-1,0-1.8-0.2-2.3-0.9c0.8-0.4,1.6-1.3,1.6-2.8
				c0-1.2-0.9-2.2-2.3-2.2c-1.1,0-1.9,0.6-2.5,1.6v-0.3c0.8-2.6,2.8-4.4,5.3-4.4C187.9,149.4,189.4,151.3,189.4,153.8z"/>
			<path class="st2" d="M216.9,165.4l0.2,0.3c-2.1,3.4-5.9,5-9.9,5c-6.7,0-15-4.8-15-14.3c0-10.4,8.1-14.2,14-14.4v0.2
				c-2.9,0.6-6,3.3-6,13.9c0,10.5,4.2,13,8.9,13C212.8,169.1,215.5,167.2,216.9,165.4z M217.2,142v10h-0.3c-1.6-5.5-4.6-8.6-8.7-9.7
				V142c3.6,0.2,5.7,0.8,7.4,1.9l1.2-1.9H217.2z"/>
			<path class="st2" d="M220.4,165.5c0-3.6,3.3-5.6,7.9-5.6h4.4v0.2h-1.2c-3,0-4.4,1.9-4.4,4.5c0,2.3,0.7,4,2.6,4
				c1.1,0,2.1-0.6,3-1.4v0.2c-1.4,1.6-3.5,3.3-6.5,3.3C222.7,170.7,220.3,168.7,220.4,165.5z M222,153.8c0-2.1,1.9-4.2,7.5-4.5v0.2
				c-1.6,0.2-2.6,1.6-2.6,3c0,1.5,1,2.4,2.7,2.5c-0.6,1.1-2.3,2-3.9,2C223.3,157.1,222,155.6,222,153.8z M233.9,166.1v-12.6
				c0-2-0.8-3.6-2.8-3.9v-0.2c6.8,0.2,9.5,2.8,9.5,8.2v10c0,1.2,0.4,1.7,1.2,1.7c0.6,0,1.3-0.6,2-1.8h0.2c-0.7,2.3-2.9,3.3-5.3,3.3
				C235.4,170.7,233.9,169.6,233.9,166.1z"/>
		</g>
		<g class="st1">
			<path class="st2" d="M255.1,168c0,1,0.6,2.1,3.1,2.1v0.2h-12.9v-0.2c2.5,0,3.1-1.1,3.1-2.1v-14.6c0-1.5-0.7-2.2-3-2.2V151
				c3.8,0,6.9-0.4,9.8-1.6V168z M266.2,153.8c0,2.8-2,4.7-4.2,4.7c-1,0-1.8-0.2-2.3-0.9c0.8-0.4,1.6-1.3,1.6-2.8
				c0-1.2-0.9-2.2-2.3-2.2c-1.1,0-1.9,0.6-2.5,1.6v-0.3c0.8-2.6,2.8-4.4,5.3-4.4C264.6,149.4,266.2,151.3,266.2,153.8z"/>
		</g>
		<g class="st1">
			<path class="st2" d="M268.4,160c0-6.9,5.3-10.6,10.1-10.6v0.2c-2.4,0.3-3.1,2.3-3.1,10.2c0,5.9,2.6,9.2,6.3,9.2
				c2.3,0,4.1-0.7,6-2.2v0.2c-2.1,2.7-6,3.7-8.7,3.7C273.7,170.7,268.4,166.9,268.4,160z M277.7,158.2c3.6,0,5.1-1.1,5.1-4.6
				c0-2-0.8-3.8-2.7-4v-0.2c5.4,0,8,3.9,8,7c0,0.7-0.1,1.5-0.2,2.1h-10.3V158.2z"/>
		</g>
	</g>
</g>
</svg>
