<?xml version="1.0" encoding="utf-8"?>
<!-- Generator: Adobe Illustrator 24.0.3, SVG Export Plug-In . SVG Version: 6.00 Build 0)  -->
<svg version="1.1" id="Layer_1" xmlns="http://www.w3.org/2000/svg" xmlns:xlink="http://www.w3.org/1999/xlink" x="0px" y="0px"
	 viewBox="0 0 300 600" style="enable-background:new 0 0 300 600;" xml:space="preserve">
<style type="text/css">
	.st0{clip-path:url(#SVGID_2_);}
	.st1{enable-background:new    ;}
	.st2{fill:#263845;}
</style>
<title>Artboard 1 copy 2</title>
<g>
	<defs>
		<rect id="SVGID_1_" x="0.9" y="0.3" width="300" height="600"/>
	</defs>
	<clipPath id="SVGID_2_">
		<use xlink:href="#SVGID_1_"  style="overflow:visible;"/>
	</clipPath>
	<g class="st0">
		<g class="st1">
			<path class="st2" d="M36.5,87.9v0.2H23.3v-0.2c2.5,0,3.1-1,3.1-2.1V62.6c0-1.2-0.6-2.1-3.1-2.1v-0.2h10.1v25.6
				C33.4,87,34,87.9,36.5,87.9z M52.5,85.3c-0.7,2.3-3.1,3.3-6.1,3.3c-5.3,0-6.6-3.7-6.8-7.1c-0.2-3.4-0.6-6-4.2-6.5v-0.2
				c3.8,0,5.5-3.3,5.5-7.4c0-4.6-1.7-6.8-5.5-6.8v-0.2c8.3,0,12.4,1.8,12.4,7c0,4.4-3.3,7.1-9.4,7.5c7.5,0.3,8.6,3.2,9,6.7
				c0.4,3.3,1.3,5.7,2.7,5.7c0.7,0,1.4-0.6,2.1-1.8H52.5z"/>
		</g>
		<g class="st1">
			<path class="st2" d="M53.4,77.8c0-6.9,5.3-10.6,10.1-10.6v0.2c-2.4,0.3-3.1,2.3-3.1,10.2c0,5.9,2.6,9.2,6.3,9.2
				c2.3,0,4.1-0.7,6-2.2v0.2c-2.1,2.7-6,3.7-8.7,3.7C58.7,88.6,53.4,84.7,53.4,77.8z M62.6,76.1c3.6,0,5.1-1.1,5.1-4.6
				c0-2-0.8-3.8-2.7-4v-0.2c5.4,0,8,3.9,8,7c0,0.7-0.1,1.5-0.2,2.1H62.6V76.1z"/>
			<path class="st2" d="M76.1,83.3c0-3.6,3.3-5.6,7.9-5.6h4.4V78h-1.2c-3,0-4.4,1.9-4.4,4.5c0,2.3,0.7,4,2.6,4c1.1,0,2.1-0.6,3-1.4
				v0.2c-1.4,1.6-3.5,3.3-6.5,3.3C78.4,88.6,76,86.6,76.1,83.3z M77.7,71.7c0-2.1,1.9-4.2,7.5-4.5v0.2c-1.6,0.2-2.6,1.6-2.6,3
				c0,1.5,1,2.4,2.7,2.5c-0.6,1.1-2.3,2-3.9,2C79,75,77.7,73.4,77.7,71.7z M89.6,84V71.4c0-2-0.8-3.6-2.8-3.9v-0.2
				c6.8,0.2,9.5,2.8,9.5,8.2v10c0,1.2,0.4,1.7,1.1,1.7c0.6,0,1.3-0.6,2-1.8h0.2c-0.7,2.3-2.9,3.3-5.3,3.3
				C91.1,88.6,89.6,87.5,89.6,84z"/>
			<path class="st2" d="M100.8,59.6c3.8,0,6.9-0.4,9.8-1.6v27.8c0,1,0.6,2.1,3.1,2.1v0.2h-12.9v-0.2c2.5,0,3.1-1.1,3.1-2.1V62
				c0-1.5-0.7-2.2-3-2.2V59.6z"/>
		</g>
		<g class="st1">
			<path class="st2" d="M31.4,111.4l5.4,11.2l-3.5,6.7H33l-9.5-18.8c-0.4-0.9-1-1.4-2.3-1.4v-0.2h11.5v0.2
				C31.3,109,30.7,110,31.4,111.4z M44.9,111.4l5.4,11.2l-3.5,6.7h-0.2L40,116.5l-1.3,2.5l-0.2-0.4c0.7-1.4,0.9-3.4,0.3-4.6
				l-1.8-3.6c-0.4-0.9-1-1.4-2.3-1.4v-0.2h11.5v0.2C44.8,109,44.2,110,44.9,111.4z M59.2,108.7v0.2c-1.4,0-1.9,0.5-2.7,1.9l-4.3,8
				l-0.2-0.4c0.7-1.3,1.1-3.1,1.1-5.3c0-2.3-1.3-4.3-4.2-4.3v-0.2H59.2z"/>
		</g>
		<g class="st1">
			<path class="st2" d="M69.7,108.6c-2.4,0.3-3.2,2.3-3.2,10.3c0,7.7,0.8,10.3,3.2,10.5v0.2c-4.7,0-10.2-3.9-10.2-10.8
				s5.4-10.6,10.2-10.6V108.6z M81.6,118.9c0,6.9-5.5,10.8-10.2,10.8v-0.2c2.4-0.2,3.2-2.8,3.2-10.5c0-8-0.8-10.1-3.2-10.3v-0.2
				C76.1,108.3,81.6,112,81.6,118.9z"/>
			<path class="st2" d="M94.1,126.9c0,1,0.6,2.1,3.1,2.1v0.2H84.3V129c2.5,0,3.1-1.1,3.1-2.1v-14.6c0-1.5-0.7-2.2-3-2.2v-0.2
				c3.8,0,6.9-0.4,9.8-1.6V126.9z M105.2,112.7c0,2.8-2,4.7-4.2,4.7c-1,0-1.8-0.2-2.3-0.9c0.8-0.4,1.6-1.3,1.6-2.8
				c0-1.2-0.9-2.2-2.3-2.2c-1.1,0-1.9,0.6-2.5,1.6v-0.3c0.8-2.6,2.8-4.4,5.3-4.4C103.6,108.3,105.2,110.3,105.2,112.7z"/>
			<path class="st2" d="M106.7,100.7c3.8,0,6.9-0.4,9.8-1.6v27.8c0,1,0.6,2.1,3.1,2.1v0.2h-12.9V129c2.5,0,3.1-1.1,3.1-2.1v-23.8
				c0-1.5-0.7-2.2-3-2.2V100.7z"/>
			<path class="st2" d="M136.7,111.6v0.3c-0.9-1-2.1-1.5-3.4-1.5c-2.1,0-4,0.9-4,8.4c0,7.4,2.1,8.7,4,8.7c1.3,0,2.4-0.7,3.4-1.4v0.2
				c-1,1.7-3.6,3.3-6,3.3c-3.9,0-8.5-2.3-8.5-10.9c0-8.2,4.5-10.5,8.5-10.5C133,108.3,135.6,109.9,136.7,111.6z M144.7,126.5
				c0,1.2,0.4,1.7,1.1,1.7c0.6,0,1.3-0.6,2-1.8h0.2c-0.7,2.3-2.9,3.3-5.3,3.3c-3.3,0-4.8-1.1-4.8-4.6v-21.9c0-1.5-0.7-2.2-3-2.2
				v-0.2c3.8,0,6.4-0.4,9.8-1.6V126.5z"/>
		</g>
		<g class="st1">
			<path class="st2" d="M174,129v0.2h-13.2V129c2.5,0,3.1-1,3.1-2.1v-23.3c0-1.2-0.6-2.1-3.1-2.1v-0.2h10.1v25.6
				C170.9,128,171.5,129,174,129z M190,126.3c-0.7,2.3-3.1,3.3-6.1,3.3c-5.3,0-6.6-3.7-6.8-7.1c-0.2-3.4-0.6-6-4.2-6.5v-0.2
				c3.8,0,5.5-3.3,5.5-7.4c0-4.6-1.7-6.8-5.5-6.8v-0.2c8.3,0,12.4,1.8,12.4,7c0,4.4-3.3,7.1-9.4,7.5c7.5,0.3,8.6,3.2,9,6.7
				c0.4,3.3,1.3,5.7,2.7,5.7c0.7,0,1.4-0.6,2.1-1.8H190z"/>
		</g>
		<g class="st1">
			<path class="st2" d="M190.7,103.7c-0.7-1.6-1.7-2.1-3.7-2.1v-0.2h14.8v0.2c-1.9,0-3.6,1.2-2.5,3.4l7.8,16.3l-3.7,8.4h-0.5
				L190.7,103.7z M208.6,117.5c2.4-5.5,2.9-8.9,2.9-11.5c0-3-2.5-4.5-4.7-4.5v-0.2h11.8v0.2c-1.9,0-3,1.8-4.4,4.6l-5.6,11.8
				L208.6,117.5z"/>
		</g>
		<g class="st1">
			<path class="st2" d="M22.6,150.9c3.8,0,6.9-0.4,9.8-1.6V168c0,1,0.6,2.1,3.1,2.1v0.2H22.6v-0.2c2.5,0,3.1-1.1,3.1-2.1v-14.6
				c0-1.5-0.7-2.2-3-2.2V150.9z M24.7,143.2c0-2.1,1.7-3.6,4.2-3.6c2.5,0,4.2,1.4,4.2,3.6c0,2.2-1.7,3.6-4.2,3.6
				C26.4,146.8,24.7,145.4,24.7,143.2z"/>
			<path class="st2" d="M37.2,170.1c2.5,0,3.1-1.1,3.1-2.1v-14.6c0-1.5-0.7-2.2-3-2.2V151c3.8,0,6.9-0.4,9.8-1.6V168
				c0,1,0.6,2.1,3.1,2.1v0.2H37.2V170.1z M51.7,170.1c2.4,0,3-1.1,3-2.1v-12.8c0-2.3-1.2-3.5-3.2-3.5c-1.1,0-2.1,0.4-3.1,1.3v-0.2
				c1.1-1.7,3.8-3.3,6.8-3.3c3.7,0,6.3,1.7,6.3,5.8V168c0,1,0.6,2.1,3.1,2.1v0.2H51.7V170.1z"/>
			<path class="st2" d="M73.9,165.4c-1.4,0-2.3,0.8-2.3,2.1c0,1.2,0.8,2.7,3.7,3v0.2c-5.5-0.2-8.5-1.7-8.5-4.1c0-1.9,1.6-3,3.5-3
				C72,163.6,73.3,164.4,73.9,165.4z M75.3,149.6c-1.5,0.3-3,1.1-3,2.8c0.1,4.8,13.4,5.5,13.4,12.1c0,4-3.4,6.1-8.7,6.3v-0.2
				c1.7-0.3,3.7-0.9,3.7-3c0-4.3-13.5-5.8-13.5-12.1c0-3.6,3.4-5.8,8-6V149.6z M85,153.6c0,1.3-1,2.5-3,2.5c-1.7,0-3-0.7-3.5-2
				c1.2-0.1,1.9-0.9,1.8-1.9c0-1.2-1.6-2.4-3.2-2.6v-0.2C81.7,149.6,85,151.3,85,153.6z"/>
			<path class="st2" d="M97.9,164.9c0,2.3,0.8,3.5,2.8,3.5c1.1,0,1.9-0.3,2.8-1.3v0.2c-0.9,1.8-3,3.3-6.4,3.3
				c-3.7,0-6.1-1.7-6.1-5.8v-11.5c0-1.5-0.7-2.2-3-2.2V151c3.8,0,6.9-0.4,9.8-1.6V164.9z M111.5,167.6c0,1.2,0.4,1.7,1.1,1.7
				c0.6,0,1.3-0.6,2-1.8h0.2c-0.7,2.3-2.9,3.3-5.6,3.3c-2.9,0-4.5-1.6-4.5-4v-13.3c0-1.5-0.7-2.2-2.9-2.2V151c3.7,0,6.2-0.4,9.7-1.6
				V167.6z"/>
		</g>
		<g class="st1">
			<path class="st2" d="M126.4,168c0,1,0.6,2.1,3.1,2.1v0.2h-12.9v-0.2c2.5,0,3.1-1.1,3.1-2.1v-14.6c0-1.5-0.7-2.2-3-2.2V151
				c3.8,0,6.9-0.4,9.8-1.6V168z M137.4,153.8c0,2.8-2,4.7-4.2,4.7c-1,0-1.8-0.2-2.3-0.9c0.8-0.4,1.6-1.3,1.6-2.8
				c0-1.2-0.9-2.2-2.3-2.2c-1.1,0-1.9,0.6-2.5,1.6v-0.3c0.8-2.6,2.8-4.4,5.3-4.4C135.9,149.4,137.4,151.3,137.4,153.8z"/>
		</g>
		<g class="st1">
			<path class="st2" d="M139.2,165.5c0-3.6,3.3-5.6,7.9-5.6h4.4v0.2h-1.2c-3,0-4.4,1.9-4.4,4.5c0,2.3,0.7,4,2.6,4
				c1.1,0,2.1-0.6,3-1.4v0.2c-1.4,1.6-3.5,3.3-6.5,3.3C141.5,170.7,139.2,168.7,139.2,165.5z M140.8,153.8c0-2.1,1.9-4.2,7.5-4.5
				v0.2c-1.6,0.2-2.6,1.6-2.6,3c0,1.5,1,2.4,2.7,2.5c-0.6,1.1-2.3,2-3.9,2C142.2,157.1,140.8,155.6,140.8,153.8z M152.8,166.1v-12.6
				c0-2-0.8-3.6-2.8-3.9v-0.2c6.8,0.2,9.5,2.8,9.5,8.2v10c0,1.2,0.4,1.7,1.1,1.7c0.6,0,1.3-0.6,2-1.8h0.2c-0.7,2.3-2.9,3.3-5.3,3.3
				C154.2,170.7,152.8,169.6,152.8,166.1z"/>
			<path class="st2" d="M164.1,170.1c2.5,0,3.1-1.1,3.1-2.1v-14.6c0-1.5-0.7-2.2-3-2.2V151c3.8,0,6.9-0.4,9.8-1.6V168
				c0,1,0.6,2.1,3.1,2.1v0.2h-12.9V170.1z M178.6,170.1c2.4,0,3-1.1,3-2.1v-12.8c0-2.3-1.2-3.5-3.2-3.5c-1.1,0-2.1,0.4-3.1,1.3v-0.2
				c1.1-1.7,3.8-3.3,6.8-3.3c3.7,0,6.3,1.7,6.3,5.8V168c0,1,0.6,2.1,3.1,2.1v0.2h-12.9V170.1z"/>
			<path class="st2" d="M204.2,149.6c-2.4,0.3-3.5,2.3-3.5,10.2c0,5.9,3,9.2,6.7,9.2c2.3,0,4.1-0.7,6-2.2v0.2
				c-2.1,2.7-6,3.7-8.7,3.7c-5.3,0-11-3.9-11-10.8s5.7-10.6,10.5-10.6V149.6z M213.3,154c0,2.2-1.5,3.9-4.1,3.9
				c-2,0-3.3-1.3-3.6-2.6c1.1-0.5,2-1.9,2-3c0-0.9-0.2-2.4-1.8-2.7v-0.3C211.2,149.4,213.3,151.7,213.3,154z"/>
			<path class="st2" d="M216.4,160c0-6.9,5.3-10.6,10.1-10.6v0.2c-2.4,0.3-3.1,2.3-3.1,10.2c0,5.9,2.6,9.2,6.3,9.2
				c2.3,0,4.1-0.7,6-2.2v0.2c-2.1,2.7-6,3.7-8.7,3.7C221.7,170.7,216.4,166.9,216.4,160z M225.6,158.2c3.6,0,5.1-1.1,5.1-4.6
				c0-2-0.8-3.8-2.7-4v-0.2c5.4,0,8,3.9,8,7c0,0.7-0.1,1.5-0.2,2.1h-10.3V158.2z"/>
		</g>
	</g>
</g>
</svg>
