<svg id="Layer_1" data-name="Layer 1" xmlns="http://www.w3.org/2000/svg" viewBox="0 0 300 600"><defs><style>.cls-1{fill:#263845;}.cls-2{fill:none;}</style></defs><title>Artboard 1 copy 4</title><path class="cls-1" d="M43,126.63v.21H31.79v-.21c2.1,0,2.62-.84,2.62-1.78V105c0-1-.52-1.75-2.62-1.75V103h8.57v21.81C40.36,125.79,40.89,126.63,43,126.63Zm13.65-2.27c-.56,1.92-2.62,2.83-5.18,2.83-4.55,0-5.6-3.15-5.81-6.09s-.49-5.11-3.57-5.57v-.21c3.22,0,4.66-2.8,4.66-6.3,0-3.92-1.44-5.77-4.66-5.77V103c7.11,0,10.61,1.57,10.61,6,0,3.78-2.8,6.09-8,6.41,6.37.28,7.35,2.76,7.7,5.67s1.12,4.83,2.31,4.83c.63,0,1.19-.52,1.75-1.57Z"/><path class="cls-1" d="M57.41,118A8.66,8.66,0,0,1,66,109v.21c-2.06.24-2.62,2-2.62,8.68,0,5,2.24,7.81,5.35,7.81a7.58,7.58,0,0,0,5.11-1.86V124c-1.82,2.31-5.14,3.15-7.42,3.15A8.87,8.87,0,0,1,57.41,118Zm7.87-1.47c3.08,0,4.38-1,4.38-3.92,0-1.68-.7-3.22-2.28-3.43V109c4.62,0,6.86,3.29,6.86,6a10.9,10.9,0,0,1-.17,1.82H65.28Z"/><path class="cls-1" d="M76.76,122.71c0-3,2.8-4.76,6.72-4.76h3.78v.21H86.21c-2.52,0-3.71,1.65-3.71,3.82,0,1.92.56,3.39,2.21,3.39a3.82,3.82,0,0,0,2.55-1.22v.21a7.43,7.43,0,0,1-5.56,2.83C78.72,127.19,76.72,125.51,76.76,122.71Zm1.4-9.91c0-1.78,1.61-3.6,6.37-3.81v.21a2.55,2.55,0,0,0-2.24,2.55c0,1.26.88,2,2.28,2.14a3.94,3.94,0,0,1-3.36,1.68A2.81,2.81,0,0,1,78.16,112.8Zm10.15,10.44V112.52c0-1.71-.66-3.08-2.38-3.32V109c5.81.21,8.12,2.41,8.12,7v8.51c0,1,.35,1.43,1,1.43s1.12-.52,1.68-1.57h.21c-.56,1.92-2.45,2.83-4.55,2.83C89.57,127.19,88.31,126.21,88.31,123.24Z"/><path class="cls-1" d="M97.83,102.48a21.39,21.39,0,0,0,8.37-1.37v23.74c0,.87.52,1.78,2.62,1.78v.21h-11v-.21c2.11,0,2.63-.91,2.63-1.78V104.54c0-1.26-.59-1.85-2.59-1.85Z"/><path class="cls-1" d="M38.68,150.61l4.59,9.56-3,5.67h-.21l-8.12-16.07A1.91,1.91,0,0,0,30,148.55v-.21h9.8v.21C38.58,148.55,38.09,149.39,38.68,150.61Zm11.52,0,4.58,9.56-3,5.67h-.21L46.07,155,45,157.05l-.21-.31a5.26,5.26,0,0,0,.28-3.89l-1.58-3.08a1.89,1.89,0,0,0-1.92-1.22v-.21h9.8v.21C50.09,148.55,49.6,149.39,50.2,150.61Zm12.18-2.27v.21c-1.16,0-1.65.45-2.28,1.64l-3.64,6.86-.21-.31a9.56,9.56,0,0,0,1-4.52,3.38,3.38,0,0,0-3.57-3.67v-.21Z"/><path class="cls-1" d="M71.37,148.2c-2.06.24-2.76,2-2.76,8.82,0,6.58.7,8.75,2.76,9v.21A8.92,8.92,0,0,1,62.66,157a8.77,8.77,0,0,1,8.71-9ZM81.45,157a8.91,8.91,0,0,1-8.68,9.17V166c2.07-.21,2.73-2.41,2.73-9,0-6.86-.7-8.61-2.73-8.82V148A8.72,8.72,0,0,1,81.45,157Z"/><path class="cls-1" d="M92.16,163.85c0,.87.53,1.78,2.63,1.78v.21h-11v-.21c2.1,0,2.63-.91,2.63-1.78V151.42c0-1.26-.6-1.86-2.6-1.86v-.21A21.51,21.51,0,0,0,92.16,148Zm9.45-12.08a3.74,3.74,0,0,1-3.6,4,2.39,2.39,0,0,1-2-.77,2.56,2.56,0,0,0,1.37-2.38,1.86,1.86,0,0,0-2-1.89,2.39,2.39,0,0,0-2.1,1.33v-.28A4.84,4.84,0,0,1,97.87,148,3.55,3.55,0,0,1,101.61,151.77Z"/><path class="cls-1" d="M102.9,141.48a21.32,21.32,0,0,0,8.37-1.37v23.74c0,.87.52,1.78,2.63,1.78v.21h-11v-.21c2.1,0,2.62-.91,2.62-1.78V143.54c0-1.26-.59-1.85-2.59-1.85Z"/><path class="cls-1" d="M128.42,150.79v.28a3.84,3.84,0,0,0-2.9-1.3c-1.75,0-3.44.81-3.44,7.15s1.79,7.45,3.44,7.45a4.81,4.81,0,0,0,2.9-1.22v.21a6.48,6.48,0,0,1-5.07,2.83c-3.33,0-7.22-2-7.22-9.27,0-7,3.82-8.93,7.22-8.93A6.45,6.45,0,0,1,128.42,150.79Zm6.83,12.71c0,1,.31,1.43.94,1.43s1.12-.52,1.68-1.57h.21c-.56,1.92-2.45,2.83-4.55,2.83-2.8,0-4.06-1-4.06-3.95v-18.7c0-1.26-.59-1.85-2.59-1.85v-.21a22.85,22.85,0,0,0,8.37-1.37Z"/><path class="cls-1" d="M160.27,165.63v.21H149v-.21c2.1,0,2.63-.84,2.63-1.78V144c0-1-.53-1.75-2.63-1.75V142h8.58v21.81C157.61,164.79,158.14,165.63,160.27,165.63Zm13.65-2.27c-.56,1.92-2.62,2.83-5.18,2.83-4.55,0-5.6-3.15-5.81-6.09s-.49-5.11-3.57-5.57v-.21c3.22,0,4.66-2.8,4.66-6.3,0-3.92-1.44-5.77-4.66-5.77V142c7.11,0,10.61,1.57,10.61,6,0,3.78-2.8,6.09-8,6.41,6.37.28,7.35,2.76,7.7,5.67s1.12,4.83,2.31,4.83c.63,0,1.19-.52,1.75-1.57Z"/><path class="cls-1" d="M174.48,144.07c-.63-1.37-1.44-1.82-3.15-1.82V142H184v.21c-1.61,0-3,1.05-2.17,2.87l6.62,13.93-3.18,7.14h-.39Zm15.26,11.76c2-4.69,2.49-7.56,2.49-9.77a3.83,3.83,0,0,0-4-3.81V142h10.08v.14c-1.61,0-2.59,1.5-3.71,3.88l-4.76,10.09Z"/><path class="cls-1" d="M31.19,188.32A21.36,21.36,0,0,0,39.56,187v15.9c0,.87.52,1.78,2.62,1.78v.21h-11v-.21c2.1,0,2.62-.91,2.62-1.78V190.38c0-1.26-.59-1.85-2.59-1.85ZM33,181.74c0-1.82,1.47-3.05,3.57-3.05s3.57,1.23,3.57,3.05-1.47,3.08-3.57,3.08S33,183.59,33,181.74Z"/><path class="cls-1" d="M43.65,204.63c2.1,0,2.63-.91,2.63-1.78V190.42c0-1.26-.6-1.86-2.6-1.86v-.21A21.51,21.51,0,0,0,52.05,187v15.86c0,.87.53,1.78,2.63,1.78v.21h-11Zm12.32,0c2.07,0,2.59-.91,2.59-1.78V191.92c0-2-1-3-2.76-3A3.72,3.72,0,0,0,53.14,190v-.21A7.14,7.14,0,0,1,59,187c3.15,0,5.39,1.47,5.39,4.93v10.93c0,.87.52,1.78,2.62,1.78v.21H56Z"/><path class="cls-1" d="M74.94,200.68a1.79,1.79,0,0,0-2,1.75c0,1,.7,2.31,3.12,2.55v.21c-4.66-.17-7.22-1.43-7.22-3.46a2.73,2.73,0,0,1,3-2.59A3.55,3.55,0,0,1,74.94,200.68ZM76.1,187.2c-1.3.24-2.56.91-2.52,2.34.1,4.06,11.44,4.73,11.44,10.3,0,3.39-2.87,5.18-7.38,5.35V205c1.47-.24,3.11-.77,3.11-2.59,0-3.64-11.48-5-11.48-10.29,0-3.08,2.91-4.94,6.83-5.11Zm8.26,3.39c0,1.09-.84,2.17-2.59,2.17a3,3,0,0,1-3-1.68,1.56,1.56,0,0,0,1.58-1.64c0-1.05-1.33-2.07-2.73-2.24V187C81.59,187.2,84.36,188.63,84.36,190.59Z"/><path class="cls-1" d="M95.34,200.26c0,2,.67,3,2.42,3a3.11,3.11,0,0,0,2.42-1.08v.21a5.86,5.86,0,0,1-5.43,2.83c-3.15,0-5.18-1.47-5.18-4.93v-9.84c0-1.26-.6-1.86-2.59-1.86v-.21A21.49,21.49,0,0,0,95.34,187ZM107,202.5c0,1,.32,1.43,1,1.43s1.12-.52,1.68-1.57h.21c-.56,1.92-2.45,2.83-4.76,2.83s-3.85-1.4-3.85-3.43V190.42c0-1.26-.6-1.86-2.49-1.86v-.21A22.86,22.86,0,0,0,107,187Z"/><path class="cls-1" d="M119.64,202.85c0,.87.52,1.78,2.62,1.78v.21h-11v-.21c2.1,0,2.63-.91,2.63-1.78V190.42c0-1.26-.6-1.86-2.59-1.86v-.21a21.54,21.54,0,0,0,8.37-1.36Zm9.45-12.08a3.75,3.75,0,0,1-3.61,4,2.37,2.37,0,0,1-2-.77,2.57,2.57,0,0,0,1.36-2.38,1.85,1.85,0,0,0-2-1.89,2.4,2.4,0,0,0-2.1,1.33v-.28a4.85,4.85,0,0,1,4.55-3.78A3.55,3.55,0,0,1,129.09,190.77Z"/><path class="cls-1" d="M130.59,200.71c0-3,2.8-4.76,6.72-4.76h3.78v.21H140c-2.52,0-3.71,1.65-3.71,3.82,0,1.92.56,3.39,2.21,3.39a3.84,3.84,0,0,0,2.55-1.22v.21a7.45,7.45,0,0,1-5.57,2.83C132.55,205.19,130.55,203.51,130.59,200.71Zm1.4-9.91c0-1.78,1.61-3.6,6.37-3.81v.21a2.55,2.55,0,0,0-2.24,2.55c0,1.26.87,2,2.27,2.14a3.93,3.93,0,0,1-3.36,1.68A2.81,2.81,0,0,1,132,190.8Zm10.15,10.44V190.52c0-1.71-.67-3.08-2.38-3.32V187c5.81.21,8.12,2.41,8.12,7v8.51c0,1,.35,1.43,1,1.43s1.12-.52,1.68-1.57h.21c-.56,1.92-2.45,2.83-4.55,2.83C143.4,205.19,142.14,204.21,142.14,201.24Z"/><path class="cls-1" d="M151.83,204.63c2.1,0,2.63-.91,2.63-1.78V190.42c0-1.26-.6-1.86-2.59-1.86v-.21a21.58,21.58,0,0,0,8.37-1.36v15.86c0,.87.52,1.78,2.62,1.78v.21h-11Zm12.33,0c2.06,0,2.59-.91,2.59-1.78V191.92c0-2-1-3-2.77-3a3.72,3.72,0,0,0-2.66,1.08v-.21a7.15,7.15,0,0,1,5.81-2.83c3.15,0,5.39,1.47,5.39,4.93v10.93c0,.87.53,1.78,2.63,1.78v.21h-11Z"/><path class="cls-1" d="M186,187.2c-2.06.24-3,2-3,8.68,0,5,2.55,7.81,5.67,7.81a7.6,7.6,0,0,0,5.11-1.86V202c-1.82,2.31-5.14,3.15-7.42,3.15A9.15,9.15,0,0,1,177,196a9,9,0,0,1,9-9Zm7.78,3.74a3.26,3.26,0,0,1-3.51,3.36,3,3,0,0,1-3-2.2,3,3,0,0,0,1.68-2.56,2.08,2.08,0,0,0-1.51-2.31V187C192,187,193.77,189,193.77,190.94Z"/><path class="cls-1" d="M196.39,196a8.66,8.66,0,0,1,8.57-9v.21c-2.06.24-2.62,2-2.62,8.68,0,5,2.24,7.81,5.36,7.81a7.62,7.62,0,0,0,5.11-1.86V202c-1.82,2.31-5.15,3.15-7.43,3.15A8.87,8.87,0,0,1,196.39,196Zm7.87-1.47c3.09,0,4.38-1,4.38-3.92,0-1.68-.7-3.22-2.27-3.43V187c4.62,0,6.86,3.29,6.86,5.95a9.94,9.94,0,0,1-.18,1.82h-8.79Z"/><rect class="cls-2" y="0.26" width="300" height="600"/></svg>