<svg id="Layer_1" data-name="Layer 1" xmlns="http://www.w3.org/2000/svg" viewBox="0 0 300 600"><defs><style>.cls-1{fill:#fff;}.cls-2{fill:none;}</style></defs><title>Artboard 1 copy 2</title><path class="cls-1" d="M52.79,161.68l.14.28a9.62,9.62,0,0,1-8.44,4.23c-5.7,0-12.81-4.06-12.81-12.22,0-8.85,6.93-12.14,12-12.28v.21c-2.45.52-5.11,2.83-5.11,11.83s3.61,11.06,7.56,11.06A8.61,8.61,0,0,0,52.79,161.68Zm.28-20v8.5h-.28c-1.37-4.65-4-7.35-7.39-8.29v-.21c3.05.14,4.9.66,6.34,1.61l1-1.61Z"/><path class="cls-1" d="M63.64,163.85c0,.87.52,1.78,2.62,1.78v.21h-11v-.21c2.1,0,2.63-.91,2.63-1.78V143.54c0-1.26-.6-1.85-2.59-1.85v-.21a21.39,21.39,0,0,0,8.37-1.37Zm12.25-10.93v10.93c0,.87.52,1.78,2.62,1.78v.21h-11v-.21c2.07,0,2.59-.91,2.59-1.78V152.92c0-2-1-3-2.76-3A3.73,3.73,0,0,0,64.68,151v-.21A7.17,7.17,0,0,1,70.5,148C73.65,148,75.89,149.46,75.89,152.92Z"/><path class="cls-1" d="M89.12,148.2c-2.07.24-2.77,2-2.77,8.82,0,6.58.7,8.75,2.77,9v.21A8.92,8.92,0,0,1,80.4,157a8.77,8.77,0,0,1,8.72-9ZM99.2,157a8.92,8.92,0,0,1-8.69,9.17V166c2.07-.21,2.74-2.41,2.74-9,0-6.86-.7-8.61-2.74-8.82V148A8.72,8.72,0,0,1,99.2,157Z"/><path class="cls-1" d="M110.85,148.2c-2.07.24-2.77,2-2.77,8.82,0,6.58.7,8.75,2.77,9v.21a8.92,8.92,0,0,1-8.72-9.17,8.77,8.77,0,0,1,8.72-9ZM120.93,157a8.92,8.92,0,0,1-8.68,9.17V166c2.06-.21,2.73-2.41,2.73-9,0-6.86-.7-8.61-2.73-8.82V148A8.72,8.72,0,0,1,120.93,157Z"/><path class="cls-1" d="M130,161.68a1.79,1.79,0,0,0-2,1.75c0,1,.7,2.31,3.11,2.55v.21c-4.65-.17-7.21-1.43-7.21-3.46a2.73,2.73,0,0,1,3-2.59A3.56,3.56,0,0,1,130,161.68Zm1.15-13.48c-1.29.24-2.55.91-2.52,2.34.11,4.06,11.45,4.73,11.45,10.3,0,3.39-2.87,5.18-7.39,5.35V166c1.47-.24,3.12-.77,3.12-2.59,0-3.64-11.48-5-11.48-10.29,0-3.08,2.9-4.94,6.82-5.11Zm8.26,3.39c0,1.09-.84,2.17-2.59,2.17a3,3,0,0,1-3-1.68,1.55,1.55,0,0,0,1.57-1.64c0-1.05-1.33-2.07-2.73-2.24V148C136.61,148.2,139.37,149.63,139.37,151.59Z"/><path class="cls-1" d="M143,157a8.66,8.66,0,0,1,8.57-9v.21c-2.06.24-2.62,2-2.62,8.68,0,5,2.24,7.81,5.35,7.81a7.58,7.58,0,0,0,5.11-1.86V163c-1.82,2.31-5.14,3.15-7.42,3.15A8.87,8.87,0,0,1,143,157Zm7.87-1.47c3.08,0,4.38-1,4.38-3.92,0-1.68-.7-3.22-2.28-3.43V148c4.62,0,6.86,3.29,6.86,5.95a10.9,10.9,0,0,1-.17,1.82h-8.79Z"/><path class="cls-1" d="M180.5,166v.21a13.24,13.24,0,0,1-6.79-1.71l-1.16,1.71h-.28v-8.54h.28A11.73,11.73,0,0,0,180.5,166Zm10.29-7c0,4.51-3.36,7-8.79,7.17V166c1.93-.35,3.82-1.47,3.82-3.57,0-6.13-13.37-6.69-13.37-13.79,0-4.2,3.39-6.62,8.05-6.93v.21c-1.61.28-3.08,1.29-3.08,3.22C177.42,151.24,190.79,151.91,190.79,159ZM182,141.9v-.21a11.28,11.28,0,0,1,6.3,1.85l1.26-1.85h.28v7.8h-.28A11.13,11.13,0,0,0,182,141.9Z"/><path class="cls-1" d="M206.75,163.15v.21a7.32,7.32,0,0,1-6,2.83c-3.15,0-5.39-1.43-5.39-4.93V149.77h-1.82l.39-.52h1.43v-3.78a8.85,8.85,0,0,0,5.74-2v5.74h4.73l-.39.52h-4.34v11.59c0,1.75.67,3.57,2.31,3.57A5.2,5.2,0,0,0,206.75,163.15Z"/><path class="cls-1" d="M207.87,161.71c0-3,2.8-4.76,6.72-4.76h3.78v.21h-1.05c-2.52,0-3.71,1.65-3.71,3.82,0,1.92.56,3.39,2.2,3.39a3.84,3.84,0,0,0,2.56-1.22v.21a7.45,7.45,0,0,1-5.57,2.83C209.83,166.19,207.83,164.51,207.87,161.71Zm1.4-9.91c0-1.78,1.61-3.6,6.37-3.81v.21a2.55,2.55,0,0,0-2.24,2.55c0,1.26.87,2,2.27,2.14a3.93,3.93,0,0,1-3.36,1.68A2.81,2.81,0,0,1,209.27,151.8Zm10.15,10.44V151.52c0-1.71-.67-3.08-2.38-3.32V148c5.81.21,8.12,2.41,8.12,7v8.51c0,1,.35,1.43,1,1.43s1.12-.52,1.68-1.57H228c-.56,1.92-2.45,2.83-4.55,2.83C220.68,166.19,219.42,165.21,219.42,162.24Z"/><path class="cls-1" d="M237.51,163.85c0,.87.53,1.78,2.63,1.78v.21h-11v-.21c2.1,0,2.63-.91,2.63-1.78V151.42c0-1.26-.6-1.86-2.59-1.86v-.21a21.49,21.49,0,0,0,8.36-1.36ZM247,151.77a3.74,3.74,0,0,1-3.6,4,2.39,2.39,0,0,1-2-.77,2.56,2.56,0,0,0,1.37-2.38,1.86,1.86,0,0,0-2-1.89,2.39,2.39,0,0,0-2.1,1.33v-.28a4.84,4.84,0,0,1,4.55-3.78A3.55,3.55,0,0,1,247,151.77Z"/><path class="cls-1" d="M52.79,200.68l.14.28a9.62,9.62,0,0,1-8.44,4.23c-5.7,0-12.81-4.06-12.81-12.22,0-8.85,6.93-12.14,12-12.28v.21c-2.45.52-5.11,2.83-5.11,11.83s3.61,11.06,7.56,11.06A8.61,8.61,0,0,0,52.79,200.68Zm.28-20v8.5h-.28c-1.37-4.65-4-7.35-7.39-8.29v-.21c3.05.14,4.9.66,6.34,1.61l1-1.61Z"/><path class="cls-1" d="M55.72,200.71c0-3,2.8-4.76,6.72-4.76h3.78v.21h-1A3.47,3.47,0,0,0,61.46,200c0,1.92.56,3.39,2.21,3.39a3.8,3.8,0,0,0,2.55-1.22v.21a7.41,7.41,0,0,1-5.56,2.83C57.68,205.19,55.69,203.51,55.72,200.71Zm1.4-9.91c0-1.78,1.61-3.6,6.37-3.81v.21a2.56,2.56,0,0,0-2.24,2.55c0,1.26.88,2,2.28,2.14a3.93,3.93,0,0,1-3.36,1.68A2.81,2.81,0,0,1,57.12,190.8Zm10.15,10.44V190.52c0-1.71-.66-3.08-2.38-3.32V187c5.82.21,8.13,2.41,8.13,7v8.51c0,1,.35,1.43,1,1.43s1.12-.52,1.68-1.57h.21c-.56,1.92-2.45,2.83-4.55,2.83C68.54,205.19,67.27,204.21,67.27,201.24Z"/><path class="cls-1" d="M85.37,202.85c0,.87.52,1.78,2.62,1.78v.21H77v-.21c2.1,0,2.62-.91,2.62-1.78V190.42c0-1.26-.59-1.86-2.59-1.86v-.21A21.54,21.54,0,0,0,85.37,187ZM97,191.92v10.93c0,.87.49,1.78,2.59,1.78v.21h-11v-.21c2.06,0,2.63-.91,2.63-1.78V191.92c0-2-.78-3-2.46-3A3.08,3.08,0,0,0,86.45,190v-.21a5.67,5.67,0,0,1,5.11-2.8C94.89,187,97,188.46,97,191.92Zm11.59,0v10.93c0,.87.52,1.78,2.62,1.78v.21h-11v-.21c2.06,0,2.62-.91,2.62-1.78V191.92c0-2-.77-3-2.45-3A3.08,3.08,0,0,0,98,190v-.21a5.67,5.67,0,0,1,5.11-2.8C106.48,187,108.58,188.46,108.58,191.92Z"/><path class="cls-1" d="M120.54,210.16c0,1.26.6,1.86,2.6,1.86v.21a23.06,23.06,0,0,0-8.37,1.36V190.38c0-1.26-.6-1.85-2.59-1.85v-.21a22.83,22.83,0,0,0,8.36-1.37Zm13.34-14.24c0,7.31-3.85,9.27-7.17,9.27a6.58,6.58,0,0,1-5.12-2.83v-.21a5,5,0,0,0,2.94,1.22c1.65,0,3.4-1.15,3.4-7.45s-1.64-7.15-3.4-7.15a3.94,3.94,0,0,0-2.94,1.3v-.28a6.55,6.55,0,0,1,5.12-2.8C130.1,187,133.88,189,133.88,195.92Z"/><path class="cls-1" d="M137,196a8.66,8.66,0,0,1,8.57-9v.21c-2.06.24-2.62,2-2.62,8.68,0,5,2.24,7.81,5.35,7.81a7.58,7.58,0,0,0,5.11-1.86V202c-1.82,2.31-5.14,3.15-7.42,3.15A8.87,8.87,0,0,1,137,196Zm7.87-1.47c3.08,0,4.38-1,4.38-3.92,0-1.68-.7-3.22-2.28-3.43V187c4.62,0,6.86,3.29,6.86,5.95a10.9,10.9,0,0,1-.17,1.82h-8.79Z"/><path class="cls-1" d="M164.43,202.85c0,.87.53,1.78,2.63,1.78v.21H156v-.21c2.1,0,2.63-.91,2.63-1.78V190.42c0-1.26-.6-1.86-2.59-1.86v-.21a21.49,21.49,0,0,0,8.36-1.36Zm9.46-12.08a3.75,3.75,0,0,1-3.61,4,2.39,2.39,0,0,1-2-.77,2.56,2.56,0,0,0,1.37-2.38,1.86,1.86,0,0,0-2-1.89,2.39,2.39,0,0,0-2.1,1.33v-.28a4.84,4.84,0,0,1,4.55-3.78A3.56,3.56,0,0,1,173.89,190.77Z"/><path class="cls-1" d="M197.3,200.68l.14.28a9.62,9.62,0,0,1-8.44,4.23c-5.7,0-12.81-4.06-12.81-12.22,0-8.85,6.93-12.14,12-12.28v.21c-2.45.52-5.11,2.83-5.11,11.83s3.61,11.06,7.56,11.06A8.61,8.61,0,0,0,197.3,200.68Zm.28-20v8.5h-.28c-1.37-4.65-4-7.35-7.39-8.29v-.21c3.05.14,4.9.66,6.34,1.61l1.05-1.61Z"/><path class="cls-1" d="M200.24,200.71c0-3,2.8-4.76,6.72-4.76h3.78v.21h-1.05c-2.52,0-3.71,1.65-3.71,3.82,0,1.92.56,3.39,2.2,3.39a3.84,3.84,0,0,0,2.56-1.22v.21a7.45,7.45,0,0,1-5.57,2.83C202.2,205.19,200.2,203.51,200.24,200.71Zm1.4-9.91c0-1.78,1.61-3.6,6.37-3.81v.21a2.55,2.55,0,0,0-2.24,2.55c0,1.26.87,2,2.27,2.14a3.93,3.93,0,0,1-3.36,1.68A2.81,2.81,0,0,1,201.64,190.8Zm10.15,10.44V190.52c0-1.71-.67-3.08-2.38-3.32V187c5.81.21,8.12,2.41,8.12,7v8.51c0,1,.35,1.43,1,1.43s1.12-.52,1.68-1.57h.21c-.56,1.92-2.45,2.83-4.55,2.83C213.05,205.19,211.79,204.21,211.79,201.24Z"/><path class="cls-1" d="M229.88,202.85c0,.87.53,1.78,2.63,1.78v.21h-11v-.21c2.1,0,2.63-.91,2.63-1.78V190.42c0-1.26-.6-1.86-2.59-1.86v-.21a21.49,21.49,0,0,0,8.36-1.36Zm9.45-12.08a3.74,3.74,0,0,1-3.6,4,2.39,2.39,0,0,1-2-.77,2.56,2.56,0,0,0,1.37-2.38,1.86,1.86,0,0,0-2-1.89,2.39,2.39,0,0,0-2.1,1.33v-.28a4.84,4.84,0,0,1,4.55-3.78A3.55,3.55,0,0,1,239.33,190.77Z"/><path class="cls-1" d="M241.22,196a8.66,8.66,0,0,1,8.58-9v.21c-2.07.24-2.63,2-2.63,8.68,0,5,2.24,7.81,5.36,7.81a7.62,7.62,0,0,0,5.11-1.86V202c-1.82,2.31-5.15,3.15-7.42,3.15A8.87,8.87,0,0,1,241.22,196Zm7.88-1.47c3.08,0,4.37-1,4.37-3.92,0-1.68-.7-3.22-2.27-3.43V187c4.62,0,6.86,3.29,6.86,5.95a9.94,9.94,0,0,1-.18,1.82H249.1Z"/><rect class="cls-2" y="0.26" width="300" height="600"/></svg>