<svg id="Layer_1" data-name="Layer 1" xmlns="http://www.w3.org/2000/svg" viewBox="0 0 300 600"><defs><style>.cls-1{fill:#fb0010;}.cls-2{fill:#fff;}.cls-3{fill:none;}</style></defs><title>Artboard 1 copy</title><path class="cls-1" d="M30,251.76v48.52a17.3,17.3,0,0,0,9.33,15.36l72.72,37.73a21.63,21.63,0,0,0,19.92,0l72.72-37.73A17.3,17.3,0,0,0,214,300.28V251.76a8.07,8.07,0,0,0-8.08-8.07H38.08A8.07,8.07,0,0,0,30,251.76Z"/><path class="cls-2" d="M103.9,278.31l.33-.48c.24-.33.49-.34.87-.13a3.68,3.68,0,0,0,2.15.78c1,0,1.59-.5,1.59-1.22,0-2-5-1.6-5-4.91,0-1.87,1.56-3.08,3.58-3.08a4.93,4.93,0,0,1,2.74.81.59.59,0,0,1,.2.85l-.27.49c-.23.44-.54.38-.86.21a3.48,3.48,0,0,0-1.84-.58c-1,0-1.62.48-1.62,1.2,0,2,5,1.48,5,4.86a3.19,3.19,0,0,1-3.52,3.15,5.58,5.58,0,0,1-3.26-1.08A.56.56,0,0,1,103.9,278.31Z"/><path class="cls-2" d="M115.06,271.11H112.2a.55.55,0,0,1-.63-.61v-.42a.56.56,0,0,1,.63-.63h7.63a.56.56,0,0,1,.62.63v.42a.55.55,0,0,1-.62.61H117v8.34a.56.56,0,0,1-.63.63h-.67a.55.55,0,0,1-.61-.63Z"/><path class="cls-2" d="M123,270a.68.68,0,0,1,.71-.51h1a.66.66,0,0,1,.7.51l3.33,9.4c.15.44,0,.72-.51.72h-.69a.67.67,0,0,1-.71-.51l-.75-2.22h-3.72l-.74,2.21a.65.65,0,0,1-.7.52h-.69c-.46,0-.66-.28-.51-.72Zm2.57,5.82-1-2.84c-.18-.6-.42-1.65-.42-1.65h0s-.24,1-.42,1.65l-1,2.84Z"/><path class="cls-2" d="M130,270.08a.55.55,0,0,1,.61-.63h2.88a5,5,0,0,1,2,.28,3,3,0,0,1,1.78,2.91,3.07,3.07,0,0,1-1.77,2.9v0a3.81,3.81,0,0,1,.35.56l1.75,3.2c.26.44.06.75-.43.75h-.81a.76.76,0,0,1-.74-.43l-1.87-3.54h-1.86v3.34c0,.42-.2.63-.61.63h-.69a.55.55,0,0,1-.61-.63Zm3.65,4.35a1.56,1.56,0,0,0,1.68-1.69,1.44,1.44,0,0,0-.84-1.45,2.62,2.62,0,0,0-1.15-.18h-1.43v3.32Z"/><path class="cls-2" d="M104.6,283.07a.33.33,0,0,1,.36-.38h.32a.34.34,0,0,1,.36.38v9.78a.33.33,0,0,1-.36.37H105a.33.33,0,0,1-.36-.37Z"/><path class="cls-2" d="M108.13,286.06a.33.33,0,0,1,.37-.37h.27a.33.33,0,0,1,.36.37v.87a2.48,2.48,0,0,1-.06.54h0a3.33,3.33,0,0,1,3-2c1.87,0,2.53,1.06,2.53,2.92v4.42a.33.33,0,0,1-.37.37H114a.33.33,0,0,1-.36-.37V288.7c0-1.19-.19-2.23-1.64-2.23a2.91,2.91,0,0,0-2.86,3.07v3.31a.33.33,0,0,1-.36.37h-.29a.33.33,0,0,1-.37-.37Z"/><path class="cls-2" d="M116.29,292l.12-.15c.13-.18.3-.19.51-.06a3.23,3.23,0,0,0,2,.69c.84,0,1.53-.42,1.53-1.21,0-1.69-4-1.18-4-3.67,0-1.39,1.18-2.11,2.56-2.11a3.54,3.54,0,0,1,2.07.61.33.33,0,0,1,.1.5l-.1.16a.33.33,0,0,1-.51.11,2.82,2.82,0,0,0-1.62-.48c-.79,0-1.48.34-1.48,1.16,0,1.74,4,1.19,4,3.7a2.26,2.26,0,0,1-2.54,2.13,3.9,3.9,0,0,1-2.55-.87A.34.34,0,0,1,116.29,292Z"/><path class="cls-2" d="M123,286.06a.33.33,0,0,1,.36-.37h.29a.33.33,0,0,1,.37.37v4.15c0,1.18.18,2.23,1.63,2.23a2.92,2.92,0,0,0,2.79-3.14v-3.24a.33.33,0,0,1,.37-.37h.29a.33.33,0,0,1,.36.37v6.79a.33.33,0,0,1-.36.37h-.27a.33.33,0,0,1-.36-.37V292a3.66,3.66,0,0,1,0-.54h0a3.26,3.26,0,0,1-3,2c-1.78,0-2.52-1-2.52-2.92Z"/><path class="cls-2" d="M131.61,286.06a.34.34,0,0,1,.38-.37h.27a.33.33,0,0,1,.36.37v1a3.08,3.08,0,0,1-.06.6h0a2.7,2.7,0,0,1,2.42-2c.27,0,.39.12.39.36v.27a.37.37,0,0,1-.42.38c-1.58,0-2.35,1.81-2.35,3.38v2.82a.33.33,0,0,1-.36.37H132a.34.34,0,0,1-.38-.37Z"/><path class="cls-2" d="M140.59,288.61H141v-.24c0-1.45-.79-1.95-1.85-1.95a3.52,3.52,0,0,0-1.83.53.36.36,0,0,1-.51-.12l-.09-.15a.34.34,0,0,1,.1-.51,4.6,4.6,0,0,1,2.4-.66,2.56,2.56,0,0,1,2.8,2.89v4.45a.33.33,0,0,1-.36.37h-.24a.33.33,0,0,1-.37-.37v-.6a3.52,3.52,0,0,1,0-.57h0a2.79,2.79,0,0,1-2.54,1.72,2.32,2.32,0,0,1-2.55-2.2C136,288.74,139.14,288.61,140.59,288.61Zm-1.87,3.94c1.45,0,2.3-1.5,2.3-2.82v-.36h-.42c-1.18,0-3.56.05-3.56,1.74A1.51,1.51,0,0,0,138.72,292.55Z"/><path class="cls-2" d="M144.18,286.06a.33.33,0,0,1,.37-.37h.27a.33.33,0,0,1,.36.37v.87a2.48,2.48,0,0,1-.06.54h0a3.33,3.33,0,0,1,3-2c1.87,0,2.53,1.06,2.53,2.92v4.42a.33.33,0,0,1-.37.37h-.29a.33.33,0,0,1-.36-.37V288.7c0-1.19-.19-2.23-1.64-2.23a2.91,2.91,0,0,0-2.86,3.07v3.31a.33.33,0,0,1-.36.37h-.29a.33.33,0,0,1-.37-.37Z"/><path class="cls-2" d="M156.36,285.51a4,4,0,0,1,2.5.85.32.32,0,0,1,0,.51l-.1.16c-.14.21-.3.21-.51.08a3.14,3.14,0,0,0-1.9-.69,3,3,0,0,0,0,6.07,3.3,3.3,0,0,0,2.13-.8.3.3,0,0,1,.49.09l.11.15a.37.37,0,0,1-.09.51,4.16,4.16,0,0,1-2.68,1,3.95,3.95,0,1,1,0-7.89Z"/><path class="cls-2" d="M163.77,285.51c2,0,3.15,1.45,3.15,3.59a.38.38,0,0,1-.39.38h-5.42a2.87,2.87,0,0,0,2.92,3,3.2,3.2,0,0,0,2-.69.31.31,0,0,1,.5.09l.12.18a.35.35,0,0,1-.11.49,4.26,4.26,0,0,1-2.51.84,3.81,3.81,0,0,1-3.94-3.94A3.68,3.68,0,0,1,163.77,285.51Zm2.11,3.2a2.15,2.15,0,0,0-2.14-2.36,2.59,2.59,0,0,0-2.59,2.36Z"/><path class="cls-2" d="M109.21,296.56a6,6,0,0,1,3.48,1.06.59.59,0,0,1,.12.87l-.27.43c-.21.35-.49.38-.85.15a4.47,4.47,0,0,0-2.4-.74,3.43,3.43,0,0,0-3.56,3.65,3.56,3.56,0,0,0,3.57,3.8,4.52,4.52,0,0,0,2.61-.92.55.55,0,0,1,.87.1l.3.4a.59.59,0,0,1-.09.87,6,6,0,0,1-3.76,1.32,5.5,5.5,0,0,1,0-11Z"/><path class="cls-2" d="M118.64,302.65H119v-.18a1.24,1.24,0,0,0-1.42-1.34,3.5,3.5,0,0,0-1.59.43.56.56,0,0,1-.84-.25L115,301a.56.56,0,0,1,.24-.84,5.45,5.45,0,0,1,2.5-.63,2.84,2.84,0,0,1,3.16,3v4.15a.56.56,0,0,1-.63.63h-.51a.55.55,0,0,1-.61-.63v-.3a1.5,1.5,0,0,1,0-.33h0a2.79,2.79,0,0,1-2.4,1.44,2.34,2.34,0,0,1-2.53-2.29C114.17,303,116.93,302.65,118.64,302.65Zm-1.43,3.45a1.94,1.94,0,0,0,1.75-2v-.28h-.31c-1,0-2.59.15-2.59,1.28A1,1,0,0,0,117.21,306.1Z"/><path class="cls-2" d="M122.65,300.36a.56.56,0,0,1,.61-.63h.59a.56.56,0,0,1,.61.63v.47a2.43,2.43,0,0,1,0,.34h0a3,3,0,0,1,2.5-1.62,2.11,2.11,0,0,1,2.23,1.58h0a3,3,0,0,1,2.61-1.58c1.59,0,2.5.9,2.5,2.91v4.28a.56.56,0,0,1-.63.63h-.64a.56.56,0,0,1-.63-.63v-3.92c0-.87-.17-1.53-1.05-1.53-1.29,0-1.95,1.32-1.95,2.65v2.8a.55.55,0,0,1-.61.63h-.66a.57.57,0,0,1-.63-.63v-3.92c0-.83-.12-1.53-1-1.53-1.34,0-2,1.38-2,2.65v2.8a.55.55,0,0,1-.62.63h-.66a.55.55,0,0,1-.61-.63Z"/><path class="cls-2" d="M136.15,300.36a.57.57,0,0,1,.63-.63h.48c.41,0,.62.23.62.53v.34a2.19,2.19,0,0,1,0,.3h0a2.74,2.74,0,0,1,2.46-1.35c2.06,0,3.4,1.64,3.4,4s-1.5,4-3.51,4a2.47,2.47,0,0,1-2.2-1.17h0a5,5,0,0,1,0,.66v2.7a.55.55,0,0,1-.62.63h-.65a.57.57,0,0,1-.63-.63ZM139.9,306c1,0,1.91-.86,1.91-2.37s-.77-2.39-1.88-2.39-1.94.71-1.94,2.41A2.1,2.1,0,0,0,139.9,306Z"/><path class="cls-2" d="M148.66,299.55c2.17,0,3.38,1.55,3.38,3.64a.66.66,0,0,1-.66.65h-4.65a2.2,2.2,0,0,0,2.29,2.09,3.23,3.23,0,0,0,1.65-.49c.37-.18.64-.14.83.21l.18.3a.57.57,0,0,1-.21.84,4.85,4.85,0,0,1-2.59.76,3.91,3.91,0,0,1-4.1-4A3.77,3.77,0,0,1,148.66,299.55Zm1.5,3.13a1.56,1.56,0,0,0-1.55-1.69,1.87,1.87,0,0,0-1.84,1.69Z"/><path class="cls-2" d="M153.47,300.36a.56.56,0,0,1,.62-.63h.58a.57.57,0,0,1,.63.63v.72a3.6,3.6,0,0,1,0,.53h0a2.62,2.62,0,0,1,2.21-1.94c.42,0,.57.21.57.63v.59a.58.58,0,0,1-.64.63c-1.39,0-2.07,1.37-2.07,2.77v2.45a.55.55,0,0,1-.61.63h-.66a.55.55,0,0,1-.62-.63Z"/><path class="cls-2" d="M164.39,296.56a6,6,0,0,1,3.48,1.06.59.59,0,0,1,.12.87l-.27.43c-.21.35-.5.38-.86.15a4.4,4.4,0,0,0-2.39-.74A3.43,3.43,0,0,0,160.9,302a3.56,3.56,0,0,0,3.58,3.8,4.55,4.55,0,0,0,2.61-.92.55.55,0,0,1,.87.1l.3.4a.59.59,0,0,1-.09.87,6,6,0,0,1-3.76,1.32,5.5,5.5,0,0,1,0-11Z"/><path class="cls-2" d="M173.81,302.65h.32v-.18a1.25,1.25,0,0,0-1.42-1.34,3.5,3.5,0,0,0-1.59.43c-.38.17-.66.11-.84-.25l-.15-.29a.56.56,0,0,1,.24-.84,5.45,5.45,0,0,1,2.5-.63,2.84,2.84,0,0,1,3.16,3v4.15a.56.56,0,0,1-.63.63h-.51a.55.55,0,0,1-.61-.63v-.3a1.5,1.5,0,0,1,0-.33h0a2.79,2.79,0,0,1-2.4,1.44,2.34,2.34,0,0,1-2.53-2.29C169.35,303,172.11,302.65,173.81,302.65Zm-1.42,3.45a1.94,1.94,0,0,0,1.75-2v-.28h-.31c-1,0-2.59.15-2.59,1.28A1,1,0,0,0,172.39,306.1Z"/><path class="cls-2" d="M177.83,300.36a.56.56,0,0,1,.61-.63H179a.57.57,0,0,1,.63.63v.72a2.9,2.9,0,0,1,0,.53h0a2.63,2.63,0,0,1,2.22-1.94c.42,0,.57.21.57.63v.59a.58.58,0,0,1-.65.63c-1.39,0-2.06,1.37-2.06,2.77v2.45a.55.55,0,0,1-.62.63h-.66a.55.55,0,0,1-.61-.63Z"/><path class="cls-2" d="M186.76,299.55c2.17,0,3.38,1.55,3.38,3.64a.66.66,0,0,1-.66.65h-4.66a2.2,2.2,0,0,0,2.29,2.09,3.19,3.19,0,0,0,1.65-.49c.38-.18.65-.14.84.21l.18.3a.57.57,0,0,1-.21.84,4.85,4.85,0,0,1-2.59.76,3.91,3.91,0,0,1-4.1-4A3.77,3.77,0,0,1,186.76,299.55Zm1.49,3.13a1.55,1.55,0,0,0-1.54-1.69,1.87,1.87,0,0,0-1.84,1.69Z"/><path class="cls-2" d="M68.49,302.59a1,1,0,0,1-.48-.11,1.05,1.05,0,0,1-.53-1.27l11.09-34.12a2.34,2.34,0,0,1,2.25-1.64h0a2.33,2.33,0,0,1,2.25,1.64l2.25,6.76a.81.81,0,0,1-.51,1,.8.8,0,0,1-1-.51l-2.25-6.77a.75.75,0,0,0-.73-.53h0a.74.74,0,0,0-.72.53l-10,30.85,14.12-19.33a4.44,4.44,0,0,1,3.55-1.8h9.41a2.37,2.37,0,0,1,1.39,4.29l-8.6,6.25-.1.08,3.33,10.22a2.37,2.37,0,0,1-3.64,2.65l-7.44-5.41a2.38,2.38,0,0,1,0-3.83L88.33,287l.1-.08,9.16-6.66a.76.76,0,0,0-.44-1.38H87.74a2.8,2.8,0,0,0-2.25,1.14l-16.15,22.1A1,1,0,0,1,68.49,302.59Zm20-13.67L83,292.86a.77.77,0,0,0-.32.62.75.75,0,0,0,.32.61l7.43,5.41a.77.77,0,0,0,1.18-.85Z"/><path class="cls-2" d="M69.06,285.64a.79.79,0,0,1-.46-.15l-5.49-3.89a2.37,2.37,0,0,1,1.39-4.29h6.72a.81.81,0,1,1,0,1.61H64.5a.76.76,0,0,0-.45,1.38l5.48,3.88a.8.8,0,0,1-.47,1.46Z"/><path class="cls-2" d="M76.53,313.92a2.56,2.56,0,0,1-1.28-.34l-14-8a.8.8,0,0,1-.41-.69V287.82a.81.81,0,0,1,1.61,0v16.64L76,312.18a1,1,0,0,0,1,0L87,305.93a.81.81,0,0,1,1.11.26.8.8,0,0,1-.25,1.1l-10,6.23A2.55,2.55,0,0,1,76.53,313.92Z"/><rect class="cls-3" width="300" height="600"/></svg>