<svg id="Layer_1" data-name="Layer 1" xmlns="http://www.w3.org/2000/svg" xmlns:xlink="http://www.w3.org/1999/xlink" viewBox="0 0 320 480"><defs><style>.cls-1{fill:none;}.cls-2{clip-path:url(#clip-path);}.cls-3{fill:#263845;}</style><clipPath id="clip-path"><rect class="cls-1" width="320" height="480"/></clipPath></defs><title>Artboard 1 copy 3</title><g class="cls-2"><path class="cls-3" d="M27.76,35.47c0-.94-.52-1.78-2.62-1.78v-.21h11.2v.21c-2.1,0-2.63.84-2.63,1.78V50.73c0,3.36.95,6.41,3.33,6.69v.21c-7.32,0-9.28-3.54-9.28-7ZM46.14,50.63c0,3.46-2.07,7-7.35,7v-.21a6.41,6.41,0,0,0,6.65-6.69V38.06c0-2.24-1.19-4.37-3.5-4.37v-.21h7.7v.21c-2.31,0-3.5,2.17-3.5,4.37Z"/><path class="cls-3" d="M50.27,57.07c2.1,0,2.62-.91,2.62-1.78V42.86c0-1.26-.59-1.86-2.59-1.86v-.21a21.54,21.54,0,0,0,8.37-1.36V55.29c0,.87.52,1.78,2.62,1.78v.21h-11Zm12.32,0c2.06,0,2.59-.91,2.59-1.78V44.36c0-2-1-3-2.77-3a3.72,3.72,0,0,0-2.66,1.08v-.21a7.15,7.15,0,0,1,5.81-2.83c3.15,0,5.39,1.47,5.39,4.93V55.29c0,.87.53,1.78,2.63,1.78v.21h-11Z"/><path class="cls-3" d="M82.64,52.87c0,3.33-2.27,4.76-5.77,4.76V35c0-1.26-.63-1.85-2.63-1.85v-.21a23,23,0,0,0,8.4-1.37ZM96,48.35c0,7.32-3.89,9.28-7.21,9.28a6.5,6.5,0,0,1-5.08-2.83v-.21a4.86,4.86,0,0,0,2.91,1.22c1.64,0,3.43-1.15,3.43-7.46s-1.68-7.14-3.43-7.14a3.86,3.86,0,0,0-2.91,1.3v-.28a6.47,6.47,0,0,1,5.08-2.8C92.16,39.43,96,41.39,96,48.35Z"/><path class="cls-3" d="M99.05,48.46a8.67,8.67,0,0,1,8.58-9v.21c-2.06.24-2.62,2-2.62,8.68,0,5,2.24,7.81,5.35,7.81a7.58,7.58,0,0,0,5.11-1.86v.21c-1.82,2.31-5.14,3.15-7.42,3.15A8.87,8.87,0,0,1,99.05,48.46ZM106.93,47c3.08,0,4.38-1,4.38-3.92,0-1.68-.7-3.22-2.28-3.43v-.21c4.62,0,6.86,3.29,6.86,6a10.9,10.9,0,0,1-.17,1.82h-8.79Z"/><path class="cls-3" d="M118.41,53.15c0-3,2.8-4.76,6.72-4.76h3.78v.21h-1c-2.52,0-3.71,1.64-3.71,3.82,0,1.92.56,3.39,2.21,3.39a3.82,3.82,0,0,0,2.55-1.22v.21a7.43,7.43,0,0,1-5.56,2.83C120.37,57.63,118.37,56,118.41,53.15Zm1.4-9.91c0-1.78,1.61-3.6,6.37-3.81v.21a2.55,2.55,0,0,0-2.24,2.55c0,1.26.88,2,2.28,2.14A3.94,3.94,0,0,1,122.86,46,2.81,2.81,0,0,1,119.81,43.24ZM130,53.68V43c0-1.71-.66-3.08-2.38-3.32v-.21c5.81.21,8.12,2.41,8.12,7v8.5c0,1,.35,1.44,1,1.44s1.12-.53,1.68-1.57h.21c-.56,1.92-2.45,2.83-4.55,2.83C131.22,57.63,130,56.65,130,53.68Z"/><path class="cls-3" d="M153.24,54.59v.21a7.32,7.32,0,0,1-6,2.83c-3.15,0-5.39-1.43-5.39-4.94V41.21H140l.38-.52h1.44V36.91a8.89,8.89,0,0,0,5.74-2v5.74h4.73l-.39.52H147.6V52.8c0,1.75.66,3.57,2.31,3.57A5.2,5.2,0,0,0,153.24,54.59Z"/><path class="cls-3" d="M154.35,53.15c0-3,2.8-4.76,6.72-4.76h3.78v.21h-1c-2.52,0-3.71,1.64-3.71,3.82,0,1.92.56,3.39,2.21,3.39a3.82,3.82,0,0,0,2.55-1.22v.21a7.43,7.43,0,0,1-5.56,2.83C156.31,57.63,154.32,56,154.35,53.15Zm1.4-9.91c0-1.78,1.61-3.6,6.37-3.81v.21a2.55,2.55,0,0,0-2.24,2.55c0,1.26.88,2,2.28,2.14A3.94,3.94,0,0,1,158.8,46,2.81,2.81,0,0,1,155.75,43.24Zm10.16,10.44V43c0-1.71-.67-3.08-2.39-3.32v-.21c5.82.21,8.13,2.41,8.13,7v8.5c0,1,.35,1.44,1,1.44s1.12-.53,1.68-1.57h.21c-.56,1.92-2.45,2.83-4.55,2.83C167.16,57.63,165.91,56.65,165.91,53.68Z"/><path class="cls-3" d="M183.4,52.87c0,3.33-2.27,4.76-5.77,4.76V35c0-1.26-.63-1.85-2.63-1.85v-.21a23,23,0,0,0,8.4-1.37Zm13.34-4.52c0,7.32-3.88,9.28-7.21,9.28a6.5,6.5,0,0,1-5.08-2.83v-.21a4.86,4.86,0,0,0,2.91,1.22c1.64,0,3.43-1.15,3.43-7.46s-1.68-7.14-3.43-7.14a3.86,3.86,0,0,0-2.91,1.3v-.28a6.47,6.47,0,0,1,5.08-2.8C192.93,39.43,196.74,41.39,196.74,48.35Z"/><path class="cls-3" d="M199,32.92a21.36,21.36,0,0,0,8.37-1.37V55.29c0,.87.52,1.78,2.62,1.78v.21H199v-.21c2.1,0,2.62-.91,2.62-1.78V35c0-1.26-.59-1.85-2.59-1.85Z"/><path class="cls-3" d="M212.1,48.46a8.66,8.66,0,0,1,8.58-9v.21c-2.07.24-2.63,2-2.63,8.68,0,5,2.24,7.81,5.36,7.81a7.62,7.62,0,0,0,5.11-1.86v.21c-1.82,2.31-5.15,3.15-7.42,3.15A8.87,8.87,0,0,1,212.1,48.46ZM220,47c3.08,0,4.37-1,4.37-3.92,0-1.68-.7-3.22-2.27-3.43v-.21c4.62,0,6.86,3.29,6.86,6a9.94,9.94,0,0,1-.18,1.82H220Z"/><path class="cls-3" d="M33.4,94.29c0,.87.52,1.78,2.62,1.78v.21H25v-.21c2.11,0,2.63-.91,2.63-1.78V81.86C27.62,80.6,27,80,25,80v-.21a21.54,21.54,0,0,0,8.37-1.36ZM45,83.36V94.29c0,.87.49,1.78,2.59,1.78v.21h-11v-.21c2.06,0,2.62-.91,2.62-1.78V83.36c0-2-.77-3-2.45-3a3.08,3.08,0,0,0-2.31,1v-.21a5.67,5.67,0,0,1,5.11-2.8C42.92,78.43,45,79.9,45,83.36Zm11.58,0V94.29c0,.87.53,1.78,2.63,1.78v.21h-11v-.21c2.07,0,2.63-.91,2.63-1.78V83.36c0-2-.77-3-2.45-3a3.07,3.07,0,0,0-2.31,1v-.21a5.65,5.65,0,0,1,5.11-2.8C54.5,78.43,56.6,79.9,56.6,83.36Z"/><path class="cls-3" d="M69.83,78.64c-2.06.24-2.76,2-2.76,8.82,0,6.58.7,8.75,2.76,9v.21a8.92,8.92,0,0,1-8.71-9.17,8.77,8.77,0,0,1,8.71-9Zm10.08,8.82a8.92,8.92,0,0,1-8.68,9.17v-.21C73.3,96.21,74,94,74,87.46c0-6.86-.7-8.61-2.73-8.82v-.21A8.72,8.72,0,0,1,79.91,87.46Z"/><path class="cls-3" d="M95.8,93.59v.21a7.32,7.32,0,0,1-6,2.83c-3.16,0-5.4-1.43-5.4-4.94V80.21H82.6l.39-.52h1.43V75.91a8.9,8.9,0,0,0,5.75-2v5.74h4.72l-.38.52H90.17V91.8c0,1.75.66,3.57,2.31,3.57A5.15,5.15,0,0,0,95.8,93.59Z"/><path class="cls-3" d="M105.81,78.64c-2.07.24-2.76,2-2.76,8.82,0,6.58.69,8.75,2.76,9v.21a8.92,8.92,0,0,1-8.72-9.17,8.77,8.77,0,0,1,8.72-9Zm10.08,8.82a8.92,8.92,0,0,1-8.68,9.17v-.21c2.07-.21,2.73-2.41,2.73-9,0-6.86-.7-8.61-2.73-8.82v-.21A8.72,8.72,0,0,1,115.89,87.46Z"/><path class="cls-3" d="M126.6,94.29c0,.87.52,1.78,2.62,1.78v.21h-11v-.21c2.1,0,2.62-.91,2.62-1.78V81.86c0-1.26-.59-1.86-2.59-1.86v-.21a21.54,21.54,0,0,0,8.37-1.36Zm9.45-12.08a3.74,3.74,0,0,1-3.6,4,2.39,2.39,0,0,1-2-.77,2.56,2.56,0,0,0,1.37-2.38,1.86,1.86,0,0,0-2-1.89,2.41,2.41,0,0,0-2.11,1.33v-.28a4.86,4.86,0,0,1,4.56-3.78A3.55,3.55,0,0,1,136.05,82.21Z"/><path class="cls-3" d="M146.9,78.64c-2.07.24-3,2-3,8.68,0,5,2.56,7.81,5.68,7.81a7.62,7.62,0,0,0,5.11-1.86v.21c-1.82,2.31-5.15,3.15-7.43,3.15a9.15,9.15,0,0,1-9.34-9.17,9,9,0,0,1,9-9Zm7.77,3.74a3.25,3.25,0,0,1-3.5,3.36,3,3,0,0,1-3-2.2A3,3,0,0,0,149.8,81a2.07,2.07,0,0,0-1.5-2.31v-.24C152.89,78.43,154.67,80.39,154.67,82.38Z"/><path class="cls-3" d="M157.57,80.21A1.89,1.89,0,0,0,155.65,79v-.21h9.8V79c-1.23,0-1.72.84-1.12,2.06l4.58,9.56-3,5.67h-.21ZM156,101.92c0-1.51,1.19-2.77,3.08-3.29a2.77,2.77,0,0,0-.14.87,2.06,2.06,0,0,0,2.07,2.35c1.22,0,2.2-1.3,3.53-3.54h.25c-1.93,3.61-3.26,6.72-5.71,6.72A2.91,2.91,0,0,1,156,101.92Zm14.35-14.74a9.55,9.55,0,0,0,1-4.52A3.39,3.39,0,0,0,167.79,79v-.21h8.72V79c-1.15,0-1.61.45-2.27,1.64l-3.65,6.86Z"/><path class="cls-3" d="M185.64,78.64c-2.06.24-3,2-3,8.68,0,5,2.55,7.81,5.67,7.81a7.62,7.62,0,0,0,5.11-1.86v.21c-1.82,2.31-5.15,3.15-7.42,3.15a9.15,9.15,0,0,1-9.35-9.17,9,9,0,0,1,9-9Zm7.77,3.74a3.24,3.24,0,0,1-3.5,3.36,3,3,0,0,1-3-2.2A3,3,0,0,0,188.55,81,2.08,2.08,0,0,0,187,78.67v-.24C191.63,78.43,193.41,80.39,193.41,82.38Z"/><path class="cls-3" d="M195.23,71.92a21.36,21.36,0,0,0,8.37-1.37V94.29c0,.87.52,1.78,2.62,1.78v.21h-11v-.21c2.1,0,2.62-.91,2.62-1.78V74c0-1.26-.59-1.85-2.59-1.85Z"/><path class="cls-3" d="M208.32,87.46a8.66,8.66,0,0,1,8.58-9v.21c-2.07.24-2.63,2-2.63,8.68,0,5,2.24,7.81,5.36,7.81a7.62,7.62,0,0,0,5.11-1.86v.21c-1.82,2.31-5.15,3.15-7.42,3.15A8.87,8.87,0,0,1,208.32,87.46ZM216.2,86c3.08,0,4.37-1,4.37-3.92,0-1.68-.7-3.22-2.27-3.43v-.21c4.62,0,6.86,3.29,6.86,5.95A10.9,10.9,0,0,1,225,86.2H216.2Z"/><path class="cls-3" d="M25.07,118.76a21.3,21.3,0,0,0,8.36-1.37v15.9c0,.87.53,1.78,2.63,1.78v.21H25v-.21c2.1,0,2.63-.91,2.63-1.78V120.82c0-1.26-.6-1.85-2.59-1.85Zm1.78-6.58c0-1.82,1.47-3.05,3.57-3.05S34,110.36,34,112.18s-1.47,3.08-3.57,3.08S26.85,114,26.85,112.18Z"/><path class="cls-3" d="M37.52,135.07c2.1,0,2.63-.91,2.63-1.78V120.86c0-1.26-.6-1.86-2.59-1.86v-.21a21.54,21.54,0,0,0,8.37-1.36v15.86c0,.87.52,1.78,2.62,1.78v.21h-11Zm12.33,0c2.06,0,2.59-.91,2.59-1.78V122.36c0-2-1-3-2.77-3A3.72,3.72,0,0,0,47,120.47v-.21a7.15,7.15,0,0,1,5.81-2.83c3.15,0,5.39,1.47,5.39,4.93v10.93c0,.87.53,1.78,2.63,1.78v.21h-11Z"/><path class="cls-3" d="M68.82,131.12a1.78,1.78,0,0,0-2,1.75c0,1,.69,2.31,3.11,2.55v.21c-4.66-.17-7.21-1.43-7.21-3.46a2.73,2.73,0,0,1,3-2.6A3.57,3.57,0,0,1,68.82,131.12ZM70,117.64c-1.29.24-2.56.91-2.52,2.34.1,4.06,11.45,4.73,11.45,10.29,0,3.4-2.87,5.19-7.39,5.36v-.21c1.47-.24,3.12-.77,3.12-2.59,0-3.64-11.49-5-11.49-10.29,0-3.08,2.91-4.94,6.83-5.11ZM78.23,121c0,1.09-.84,2.17-2.59,2.17a3,3,0,0,1-3-1.68,1.55,1.55,0,0,0,1.57-1.64c0-1-1.33-2.07-2.73-2.24v-.21C75.47,117.64,78.23,119.07,78.23,121Z"/><path class="cls-3" d="M89.22,130.69c0,2,.67,3,2.42,3a3.09,3.09,0,0,0,2.41-1.08v.21a5.84,5.84,0,0,1-5.43,2.83c-3.15,0-5.18-1.47-5.18-4.94v-9.83c0-1.26-.59-1.86-2.59-1.86v-.21a21.54,21.54,0,0,0,8.37-1.36Zm11.66,2.24c0,1,.31,1.44.94,1.44s1.12-.53,1.68-1.57h.21c-.56,1.92-2.45,2.83-4.76,2.83s-3.85-1.4-3.85-3.43V120.86c0-1.26-.59-1.86-2.48-1.86v-.21a22.86,22.86,0,0,0,8.26-1.36Z"/><path class="cls-3" d="M113.51,133.29c0,.87.52,1.78,2.63,1.78v.21h-11v-.21c2.1,0,2.62-.91,2.62-1.78V120.86c0-1.26-.59-1.86-2.59-1.86v-.21a21.54,21.54,0,0,0,8.37-1.36ZM123,121.21a3.74,3.74,0,0,1-3.6,4,2.39,2.39,0,0,1-2-.77,2.56,2.56,0,0,0,1.37-2.38,1.86,1.86,0,0,0-2-1.89,2.41,2.41,0,0,0-2.11,1.33v-.28a4.86,4.86,0,0,1,4.56-3.78A3.55,3.55,0,0,1,123,121.21Z"/><path class="cls-3" d="M124.46,131.15c0-3.05,2.8-4.76,6.72-4.76H135v.21h-1.06c-2.52,0-3.71,1.64-3.71,3.82,0,1.92.56,3.39,2.21,3.39a3.84,3.84,0,0,0,2.56-1.22v.21a7.47,7.47,0,0,1-5.57,2.83C126.42,135.63,124.43,134,124.46,131.15Zm1.4-9.91c0-1.78,1.61-3.6,6.38-3.81v.21a2.56,2.56,0,0,0-2.25,2.55c0,1.26.88,2,2.28,2.14a3.94,3.94,0,0,1-3.36,1.68A2.81,2.81,0,0,1,125.86,121.24ZM136,131.68V121c0-1.71-.67-3.08-2.38-3.32v-.21c5.81.21,8.12,2.41,8.12,7v8.5c0,1,.35,1.44,1,1.44s1.12-.53,1.68-1.57h.21c-.56,1.92-2.45,2.83-4.55,2.83C137.28,135.63,136,134.65,136,131.68Z"/><path class="cls-3" d="M145.71,135.07c2.1,0,2.62-.91,2.62-1.78V120.86c0-1.26-.59-1.86-2.59-1.86v-.21a21.54,21.54,0,0,0,8.37-1.36v15.86c0,.87.52,1.78,2.63,1.78v.21h-11Zm12.32,0c2.07,0,2.59-.91,2.59-1.78V122.36c0-2-1-3-2.76-3a3.69,3.69,0,0,0-2.66,1.08v-.21a7.12,7.12,0,0,1,5.81-2.83c3.15,0,5.39,1.47,5.39,4.93v10.93c0,.87.52,1.78,2.62,1.78v.21H158Z"/><path class="cls-3" d="M179.87,117.64c-2.07.24-3,2-3,8.68,0,5,2.56,7.81,5.68,7.81a7.62,7.62,0,0,0,5.11-1.86v.21c-1.82,2.31-5.15,3.15-7.43,3.15a9.15,9.15,0,0,1-9.34-9.17,9,9,0,0,1,9-9Zm7.77,3.74a3.25,3.25,0,0,1-3.5,3.36,3,3,0,0,1-3-2.2,3,3,0,0,0,1.69-2.56,2.08,2.08,0,0,0-1.51-2.31v-.24C185.86,117.43,187.64,119.39,187.64,121.38Z"/><path class="cls-3" d="M190.26,126.46a8.66,8.66,0,0,1,8.58-9v.21c-2.07.24-2.63,2-2.63,8.68,0,5,2.24,7.81,5.36,7.81a7.62,7.62,0,0,0,5.11-1.86v.21c-1.82,2.31-5.15,3.15-7.42,3.15A8.87,8.87,0,0,1,190.26,126.46Zm7.88-1.47c3.08,0,4.37-1,4.37-3.92,0-1.68-.7-3.22-2.27-3.43v-.21c4.62,0,6.86,3.29,6.86,5.95a10.9,10.9,0,0,1-.17,1.82h-8.79Z"/></g></svg>