<svg id="Layer_1" data-name="Layer 1" xmlns="http://www.w3.org/2000/svg" xmlns:xlink="http://www.w3.org/1999/xlink" viewBox="0 0 320 480"><defs><style>.cls-1{fill:none;}.cls-2{clip-path:url(#clip-path);}.cls-3{fill:#fff;}</style><clipPath id="clip-path"><rect class="cls-1" width="320" height="480"/></clipPath></defs><title>Artboard 1</title><g class="cls-2"><path class="cls-3" d="M22.68,34.67a21.36,21.36,0,0,0,8.37-1.37V57c0,.87.52,1.78,2.62,1.78V59h-11v-.21c2.1,0,2.62-.91,2.62-1.78V36.73c0-1.26-.59-1.85-2.59-1.85Z"/><path class="cls-3" d="M35.21,42.51a21.36,21.36,0,0,0,8.37-1.37V57c0,.87.52,1.78,2.62,1.78V59h-11v-.21c2.1,0,2.62-.91,2.62-1.78V44.58c0-1.27-.59-1.86-2.59-1.86ZM37,35.93c0-1.82,1.47-3,3.57-3s3.57,1.23,3.57,3S42.67,39,40.57,39,37,37.78,37,35.93Z"/><path class="cls-3" d="M48.48,43a1.9,1.9,0,0,0-1.93-1.22v-.21h9.8v.21c-1.22,0-1.71.84-1.12,2.06l4.59,9.56-3,5.67H56.6Zm12.81,7a9.67,9.67,0,0,0,1-4.51,3.39,3.39,0,0,0-3.57-3.68v-.21h8.71v.21c-1.15,0-1.61.45-2.27,1.64L61.5,50.25Z"/><path class="cls-3" d="M67.69,50.21a8.66,8.66,0,0,1,8.58-9v.21c-2.07.24-2.63,2-2.63,8.68,0,5,2.24,7.81,5.36,7.81A7.62,7.62,0,0,0,84.11,56v.21c-1.82,2.31-5.15,3.15-7.42,3.15A8.87,8.87,0,0,1,67.69,50.21Zm7.88-1.47c3.08,0,4.37-1,4.37-3.92,0-1.68-.7-3.22-2.27-3.43v-.21c4.62,0,6.86,3.29,6.86,6A9.94,9.94,0,0,1,84.35,49H75.57Z"/><path class="cls-3" d="M93.49,54.87a1.79,1.79,0,0,0-2,1.75c0,1,.7,2.31,3.11,2.55v.21C90,59.21,87.43,58,87.43,55.92a2.73,2.73,0,0,1,3-2.59A3.56,3.56,0,0,1,93.49,54.87Zm1.15-13.48c-1.29.24-2.55.91-2.52,2.34.11,4.06,11.45,4.73,11.45,10.3,0,3.39-2.87,5.18-7.39,5.35v-.21c1.47-.24,3.12-.77,3.12-2.59,0-3.64-11.48-5-11.48-10.29,0-3.08,2.9-4.94,6.82-5.11Zm8.26,3.4A2.29,2.29,0,0,1,100.31,47a3,3,0,0,1-3-1.69,1.54,1.54,0,0,0,1.57-1.64c0-1.05-1.33-2.07-2.73-2.24v-.21C100.14,41.39,102.9,42.82,102.9,44.79Z"/><path class="cls-3" d="M115.05,54.9c0-3,2.8-4.76,6.72-4.76h3.78v.21h-1c-2.52,0-3.71,1.65-3.71,3.82,0,1.92.56,3.39,2.2,3.39a3.84,3.84,0,0,0,2.56-1.22v.21A7.45,7.45,0,0,1,120,59.38C117,59.38,115,57.7,115.05,54.9Zm1.4-9.9c0-1.79,1.61-3.61,6.37-3.82v.21a2.55,2.55,0,0,0-2.24,2.55c0,1.27.87,2,2.27,2.14a3.93,3.93,0,0,1-3.36,1.68A2.8,2.8,0,0,1,116.45,45ZM126.6,55.43V44.71c0-1.71-.67-3.08-2.38-3.32v-.21c5.81.21,8.12,2.41,8.12,7v8.51c0,1,.35,1.43,1,1.43s1.12-.52,1.68-1.57h.21c-.56,1.92-2.45,2.83-4.55,2.83C127.86,59.38,126.6,58.4,126.6,55.43Z"/><path class="cls-3" d="M149.87,56.34v.21a7.32,7.32,0,0,1-6,2.83c-3.15,0-5.39-1.43-5.39-4.93V43h-1.82l.38-.52h1.44V38.66a8.89,8.89,0,0,0,5.74-2v5.74H149l-.38.52h-4.34V54.55c0,1.75.66,3.57,2.31,3.57A5.15,5.15,0,0,0,149.87,56.34Z"/><path class="cls-3" d="M169.16,59.17v.21a13.24,13.24,0,0,1-6.79-1.71l-1.16,1.71h-.28V50.84h.28A11.73,11.73,0,0,0,169.16,59.17Zm10.29-7c0,4.51-3.36,7-8.79,7.17v-.21c1.93-.35,3.82-1.47,3.82-3.57,0-6.12-13.37-6.68-13.37-13.79,0-4.2,3.39-6.62,8-6.93v.21c-1.61.28-3.08,1.29-3.08,3.22C166.08,44.43,179.45,45.1,179.45,52.21Zm-8.79-17.12v-.21a11.28,11.28,0,0,1,6.3,1.85l1.26-1.85h.28v7.8h-.28A11.13,11.13,0,0,0,170.66,35.09Z"/><path class="cls-3" d="M195.41,56.34v.21a7.32,7.32,0,0,1-6,2.83c-3.15,0-5.39-1.43-5.39-4.93V43h-1.82l.39-.52H184V38.66a8.85,8.85,0,0,0,5.74-2v5.74h4.73l-.39.52h-4.34V54.55c0,1.75.67,3.57,2.31,3.57A5.2,5.2,0,0,0,195.41,56.34Z"/><path class="cls-3" d="M196.53,54.9c0-3,2.8-4.76,6.72-4.76H207v.21H206c-2.52,0-3.71,1.65-3.71,3.82,0,1.92.56,3.39,2.2,3.39A3.84,3.84,0,0,0,207,56.34v.21a7.45,7.45,0,0,1-5.57,2.83C198.49,59.38,196.49,57.7,196.53,54.9Zm1.39-9.9c0-1.79,1.62-3.61,6.38-3.82v.21a2.55,2.55,0,0,0-2.24,2.55c0,1.27.87,2,2.27,2.14A3.93,3.93,0,0,1,201,47.76,2.81,2.81,0,0,1,197.92,45Zm10.16,10.43V44.71c0-1.71-.67-3.08-2.38-3.32v-.21c5.81.21,8.12,2.41,8.12,7v8.51c0,1,.35,1.43,1,1.43s1.12-.52,1.68-1.57h.21c-.56,1.92-2.45,2.83-4.55,2.83C209.34,59.38,208.08,58.4,208.08,55.43Z"/><path class="cls-3" d="M226.17,57c0,.87.53,1.78,2.62,1.78V59h-11v-.21c2.1,0,2.62-.91,2.62-1.78V44.61c0-1.26-.59-1.86-2.59-1.86v-.21a21.51,21.51,0,0,0,8.37-1.36ZM235.62,45a3.74,3.74,0,0,1-3.6,4,2.39,2.39,0,0,1-2-.77,2.56,2.56,0,0,0,1.37-2.38,1.86,1.86,0,0,0-2-1.89,2.39,2.39,0,0,0-2.1,1.33V45a4.84,4.84,0,0,1,4.55-3.78A3.55,3.55,0,0,1,235.62,45Z"/><path class="cls-3" d="M23.52,97.82c2.1,0,2.63-.84,2.63-1.78V76.22c0-.94-.53-1.78-2.63-1.78v-.21h11.2v.21c-2.1,0-2.62.84-2.62,1.78V96c0,.94.52,1.78,2.62,1.78V98H23.52Z"/><path class="cls-3" d="M37.07,97.82c2.1,0,2.62-.91,2.62-1.78V83.61c0-1.26-.59-1.86-2.59-1.86v-.21a21.54,21.54,0,0,0,8.37-1.36V96c0,.87.52,1.78,2.62,1.78V98h-11Zm12.32,0c2.06,0,2.59-.91,2.59-1.78V85.12c0-2-1-3-2.77-3a3.77,3.77,0,0,0-2.66,1.08V83a7.15,7.15,0,0,1,5.81-2.83c3.15,0,5.39,1.47,5.39,4.94V96c0,.87.53,1.78,2.63,1.78V98h-11Z"/><path class="cls-3" d="M68.36,93.87a1.79,1.79,0,0,0-2,1.75c0,1,.7,2.31,3.11,2.55v.21c-4.65-.17-7.21-1.43-7.21-3.46a2.73,2.73,0,0,1,3-2.59A3.56,3.56,0,0,1,68.36,93.87Zm1.15-13.48c-1.29.24-2.55.91-2.52,2.34.11,4.06,11.45,4.73,11.45,10.3,0,3.39-2.87,5.18-7.39,5.35v-.21c1.47-.24,3.12-.77,3.12-2.59,0-3.64-11.48-5-11.48-10.29,0-3.08,2.9-4.94,6.82-5.11Zm8.26,3.4A2.29,2.29,0,0,1,75.18,86a3,3,0,0,1-3-1.69,1.54,1.54,0,0,0,1.57-1.64c0-1-1.33-2.07-2.73-2.24v-.21C75,80.39,77.77,81.82,77.77,83.79Z"/><path class="cls-3" d="M88.76,93.45c0,2,.67,3,2.42,3a3.09,3.09,0,0,0,2.41-1.08v.21a5.83,5.83,0,0,1-5.42,2.83C85,98.38,83,96.91,83,93.45V83.61c0-1.26-.6-1.86-2.59-1.86v-.21a21.49,21.49,0,0,0,8.36-1.36Zm11.66,2.24c0,1,.31,1.43.94,1.43s1.12-.52,1.68-1.57h.21c-.56,1.92-2.45,2.83-4.76,2.83S94.64,97,94.64,95V83.61c0-1.26-.59-1.86-2.48-1.86v-.21a22.86,22.86,0,0,0,8.26-1.36Z"/><path class="cls-3" d="M113.05,96c0,.87.53,1.78,2.63,1.78V98h-11v-.21c2.1,0,2.63-.91,2.63-1.78V83.61c0-1.26-.6-1.86-2.59-1.86v-.21a21.49,21.49,0,0,0,8.36-1.36ZM122.5,84a3.74,3.74,0,0,1-3.6,4,2.39,2.39,0,0,1-2-.77,2.56,2.56,0,0,0,1.37-2.38,1.86,1.86,0,0,0-2-1.89,2.39,2.39,0,0,0-2.1,1.33V84a4.84,4.84,0,0,1,4.55-3.78A3.55,3.55,0,0,1,122.5,84Z"/><path class="cls-3" d="M124,93.9c0-3,2.8-4.76,6.72-4.76h3.78v.21h-1c-2.52,0-3.71,1.65-3.71,3.82,0,1.92.56,3.39,2.2,3.39a3.84,3.84,0,0,0,2.56-1.22v.21a7.45,7.45,0,0,1-5.57,2.83C126,98.38,124,96.7,124,93.9Zm1.4-9.9c0-1.79,1.61-3.61,6.37-3.82v.21a2.55,2.55,0,0,0-2.24,2.55c0,1.27.87,2,2.27,2.14a3.93,3.93,0,0,1-3.36,1.68A2.8,2.8,0,0,1,125.41,84Zm10.15,10.43V83.71c0-1.71-.67-3.08-2.38-3.32v-.21c5.81.21,8.12,2.41,8.12,7v8.51c0,1,.35,1.43,1,1.43s1.12-.52,1.68-1.57h.21c-.56,1.92-2.45,2.83-4.55,2.83C136.82,98.38,135.56,97.4,135.56,94.43Z"/><path class="cls-3" d="M145.25,97.82c2.1,0,2.63-.91,2.63-1.78V83.61c0-1.26-.6-1.86-2.59-1.86v-.21a21.49,21.49,0,0,0,8.36-1.36V96c0,.87.53,1.78,2.63,1.78V98h-11Zm12.32,0c2.07,0,2.59-.91,2.59-1.78V85.12c0-2-1-3-2.76-3a3.77,3.77,0,0,0-2.66,1.08V83a7.14,7.14,0,0,1,5.81-2.83c3.15,0,5.39,1.47,5.39,4.94V96c0,.87.52,1.78,2.62,1.78V98h-11Z"/><path class="cls-3" d="M179.41,80.39c-2.06.24-3,2-3,8.68,0,5,2.55,7.81,5.67,7.81A7.62,7.62,0,0,0,187.22,95v.21c-1.82,2.31-5.15,3.15-7.42,3.15a9.15,9.15,0,0,1-9.35-9.17,9,9,0,0,1,9-9Zm7.77,3.74a3.26,3.26,0,0,1-3.5,3.37,3,3,0,0,1-3-2.21,3,3,0,0,0,1.68-2.56,2.08,2.08,0,0,0-1.51-2.31v-.24C185.4,80.18,187.18,82.14,187.18,84.13Z"/><path class="cls-3" d="M189.81,89.21a8.66,8.66,0,0,1,8.57-9v.21c-2.06.24-2.62,2-2.62,8.68,0,5,2.24,7.81,5.35,7.81A7.58,7.58,0,0,0,206.22,95v.21c-1.82,2.31-5.14,3.15-7.42,3.15A8.87,8.87,0,0,1,189.81,89.21Zm7.87-1.47c3.08,0,4.38-1,4.38-3.92,0-1.68-.7-3.22-2.28-3.43v-.21c4.62,0,6.86,3.29,6.86,5.95a10.9,10.9,0,0,1-.17,1.82h-8.79Z"/><path class="cls-3" d="M32.41,137.17v.21a13.27,13.27,0,0,1-6.79-1.71l-1.15,1.71h-.28v-8.54h.28A11.72,11.72,0,0,0,32.41,137.17Zm10.29-7c0,4.51-3.36,7-8.78,7.17v-.21c1.92-.35,3.81-1.47,3.81-3.57,0-6.12-13.37-6.68-13.37-13.79,0-4.2,3.4-6.62,8-6.93v.21c-1.61.28-3.08,1.29-3.08,3.22C29.33,122.43,42.7,123.1,42.7,130.21Zm-8.78-17.12v-.21a11.3,11.3,0,0,1,6.3,1.85l1.26-1.85h.28v7.8h-.28A11.13,11.13,0,0,0,33.92,113.09Z"/><path class="cls-3" d="M53.45,142.35c0,1.26.59,1.86,2.59,1.86v.21a23.06,23.06,0,0,0-8.37,1.36v-23.2c0-1.27-.59-1.86-2.59-1.86v-.21a22.85,22.85,0,0,0,8.37-1.37Zm13.33-14.24c0,7.31-3.85,9.27-7.17,9.27a6.54,6.54,0,0,1-5.11-2.83v-.21a4.92,4.92,0,0,0,2.94,1.22c1.64,0,3.39-1.15,3.39-7.45S59.19,121,57.44,121a3.91,3.91,0,0,0-2.94,1.3V122a6.51,6.51,0,0,1,5.11-2.8C63,119.18,66.78,121.14,66.78,128.11Z"/><path class="cls-3" d="M69.86,128.21a8.66,8.66,0,0,1,8.58-9v.21c-2.07.24-2.63,2-2.63,8.68,0,5,2.24,7.81,5.36,7.81A7.62,7.62,0,0,0,86.28,134v.21c-1.82,2.31-5.15,3.15-7.42,3.15A8.87,8.87,0,0,1,69.86,128.21Zm7.88-1.47c3.08,0,4.37-1,4.37-3.92,0-1.68-.7-3.22-2.27-3.43v-.21c4.62,0,6.86,3.29,6.86,5.95a9.94,9.94,0,0,1-.18,1.82H77.74Z"/><path class="cls-3" d="M98.53,119.39c-2.07.24-3,2-3,8.68,0,5,2.56,7.81,5.67,7.81a7.58,7.58,0,0,0,5.11-1.86v.21c-1.82,2.31-5.14,3.15-7.42,3.15a9.15,9.15,0,0,1-9.34-9.17,9,9,0,0,1,9-9Zm7.77,3.74a3.26,3.26,0,0,1-3.5,3.37,3,3,0,0,1-3-2.21,3,3,0,0,0,1.68-2.56,2.08,2.08,0,0,0-1.5-2.31v-.24C104.51,119.18,106.3,121.14,106.3,123.13Z"/><path class="cls-3" d="M108.36,120.51a21.36,21.36,0,0,0,8.37-1.37V135c0,.87.52,1.78,2.62,1.78V137h-11v-.21c2.1,0,2.62-.91,2.62-1.78V122.58c0-1.27-.59-1.86-2.59-1.86Zm1.79-6.58c0-1.82,1.47-3.05,3.57-3.05s3.57,1.23,3.57,3.05-1.47,3.08-3.57,3.08S110.15,115.78,110.15,113.93Z"/><path class="cls-3" d="M121.1,132.9c0-3,2.8-4.76,6.72-4.76h3.78v.21h-1c-2.52,0-3.71,1.65-3.71,3.82,0,1.92.56,3.39,2.21,3.39a3.82,3.82,0,0,0,2.55-1.22v.21a7.43,7.43,0,0,1-5.56,2.83C123.06,137.38,121.07,135.7,121.1,132.9Zm1.4-9.9c0-1.79,1.61-3.61,6.37-3.82v.21a2.55,2.55,0,0,0-2.24,2.55c0,1.27.88,2,2.28,2.14a3.94,3.94,0,0,1-3.36,1.68A2.81,2.81,0,0,1,122.5,123Zm10.15,10.43V122.71c0-1.71-.66-3.08-2.38-3.32v-.21c5.81.21,8.12,2.41,8.12,7v8.51c0,1,.35,1.43,1,1.43s1.12-.52,1.68-1.57h.21c-.56,1.92-2.45,2.83-4.55,2.83C133.91,137.38,132.65,136.4,132.65,133.43Z"/><path class="cls-3" d="M142.17,112.67a21.36,21.36,0,0,0,8.37-1.37V135c0,.87.52,1.78,2.62,1.78V137h-11v-.21c2.1,0,2.62-.91,2.62-1.78V114.73c0-1.26-.59-1.85-2.59-1.85Z"/><path class="cls-3" d="M154.7,120.51a21.36,21.36,0,0,0,8.37-1.37V135c0,.87.52,1.78,2.62,1.78V137h-11v-.21c2.1,0,2.62-.91,2.62-1.78V122.58c0-1.27-.59-1.86-2.59-1.86Zm1.79-6.58c0-1.82,1.47-3.05,3.57-3.05s3.57,1.23,3.57,3.05-1.47,3.08-3.57,3.08S156.49,115.78,156.49,113.93Z"/><path class="cls-3" d="M173.88,132.87a1.79,1.79,0,0,0-2,1.75c0,1,.7,2.31,3.12,2.55v.21c-4.66-.17-7.21-1.43-7.21-3.46a2.72,2.72,0,0,1,3-2.59A3.55,3.55,0,0,1,173.88,132.87ZM175,119.39c-1.3.24-2.56.91-2.52,2.34.1,4.06,11.44,4.73,11.44,10.3,0,3.39-2.87,5.18-7.38,5.35v-.21c1.47-.24,3.11-.77,3.11-2.59,0-3.64-11.48-5-11.48-10.29,0-3.08,2.91-4.94,6.83-5.11Zm8.26,3.4a2.29,2.29,0,0,1-2.59,2.17,3,3,0,0,1-3-1.69,1.55,1.55,0,0,0,1.58-1.64c0-1-1.33-2.07-2.73-2.24v-.21C180.53,119.39,183.3,120.82,183.3,122.79Z"/><path class="cls-3" d="M199.85,134.34v.21a7.32,7.32,0,0,1-6,2.83c-3.16,0-5.4-1.43-5.4-4.93V121h-1.82l.39-.52h1.43v-3.78a8.9,8.9,0,0,0,5.75-2v5.74h4.72l-.38.52h-4.34v11.59c0,1.75.66,3.57,2.31,3.57A5.15,5.15,0,0,0,199.85,134.34Z"/><path class="cls-3" d="M207.41,132.87a1.79,1.79,0,0,0-2,1.75c0,1,.7,2.31,3.11,2.55v.21c-4.65-.17-7.21-1.43-7.21-3.46a2.73,2.73,0,0,1,3-2.59A3.56,3.56,0,0,1,207.41,132.87Zm1.15-13.48c-1.29.24-2.55.91-2.52,2.34.11,4.06,11.45,4.73,11.45,10.3,0,3.39-2.87,5.18-7.38,5.35v-.21c1.47-.24,3.11-.77,3.11-2.59,0-3.64-11.48-5-11.48-10.29,0-3.08,2.9-4.94,6.82-5.11Zm8.27,3.4a2.29,2.29,0,0,1-2.59,2.17,3,3,0,0,1-3-1.69,1.55,1.55,0,0,0,1.58-1.64c0-1-1.33-2.07-2.73-2.24v-.21C214.06,119.39,216.83,120.82,216.83,122.79Z"/></g></svg>