<?xml version="1.0" encoding="utf-8"?>
<!-- Generator: Adobe Illustrator 24.0.3, SVG Export Plug-In . SVG Version: 6.00 Build 0)  -->
<svg version="1.1" id="Layer_1" xmlns="http://www.w3.org/2000/svg" xmlns:xlink="http://www.w3.org/1999/xlink" x="0px" y="0px"
	 viewBox="0 0 300 600" style="enable-background:new 0 0 300 600;" xml:space="preserve">
<style type="text/css">
	.st0{clip-path:url(#SVGID_2_);}
	.st1{enable-background:new    ;}
	.st2{fill:#263845;}
</style>
<title>Artboard 1 copy 3</title>
<g>
	<defs>
		<rect id="SVGID_1_" y="0" width="300" height="600"/>
	</defs>
	<clipPath id="SVGID_2_">
		<use xlink:href="#SVGID_1_"  style="overflow:visible;"/>
	</clipPath>
	<g class="st0">
		<g class="st1">
			<path class="st2" d="M22.8,73.8c2.5,0,3.1-1,3.1-2.1V48.5c0-1.1-0.6-2.1-3.1-2.1v-0.2H36v0.2c-2.5,0-3.1,1-3.1,2.1v23.2
				c0,1.1,0.6,2.1,3.1,2.1v0.2H22.8V73.8z"/>
		</g>
		<g class="st1">
			<path class="st2" d="M46,69.2c-1.4,0-2.3,0.8-2.3,2.1c0,1.2,0.8,2.7,3.7,3v0.2c-5.5-0.2-8.5-1.7-8.5-4.1c0-1.9,1.6-3,3.5-3
				C44.1,67.4,45.4,68.2,46,69.2z M47.4,53.4c-1.5,0.3-3,1.1-3,2.8c0.1,4.8,13.4,5.5,13.4,12.1c0,4-3.4,6.1-8.7,6.3v-0.2
				c1.7-0.3,3.7-0.9,3.7-3c0-4.3-13.5-5.8-13.5-12.1c0-3.6,3.4-5.8,8-6V53.4z M57.1,57.4c0,1.3-1,2.5-3,2.5c-1.7,0-3-0.7-3.5-2
				c1.2-0.1,1.9-0.9,1.8-1.9c0-1.2-1.6-2.4-3.2-2.6v-0.2C53.8,53.4,57.1,55.1,57.1,57.4z"/>
		</g>
		<g class="st1">
			<path class="st2" d="M70.7,55.2c-0.4-0.9-1-1.4-2.3-1.4v-0.2H80v0.2c-1.4,0-2,1-1.3,2.4L84,67.4l-3.5,6.7h-0.2L70.7,55.2z
				 M68.9,80.7c0-1.8,1.4-3.2,3.6-3.9c-0.1,0.4-0.2,0.7-0.2,1c0,1.6,0.8,2.8,2.4,2.8c1.4,0,2.6-1.5,4.1-4.1h0.3
				c-2.3,4.2-3.8,7.9-6.7,7.9C70.2,84.4,68.9,82.8,68.9,80.7z M85.8,63.4c0.7-1.3,1.1-3.1,1.1-5.3c0-2.3-1.3-4.3-4.2-4.3v-0.2h10.2
				v0.2c-1.4,0-1.9,0.5-2.7,1.9l-4.3,8L85.8,63.4z"/>
		</g>
		<g class="st1">
			<path class="st2" d="M103.4,53.4c-2.4,0.3-3.2,2.3-3.2,10.3c0,7.7,0.8,10.3,3.2,10.5v0.2c-4.7,0-10.2-3.9-10.2-10.8
				s5.4-10.6,10.2-10.6V53.4z M115.2,63.7c0,6.9-5.5,10.8-10.2,10.8v-0.2c2.4-0.2,3.2-2.8,3.2-10.5c0-8-0.8-10.1-3.2-10.3v-0.2
				C109.8,53.1,115.2,56.8,115.2,63.7z"/>
			<path class="st2" d="M127.3,68.7c0,2.3,0.8,3.5,2.8,3.5c1.1,0,1.9-0.3,2.8-1.3v0.2c-0.9,1.8-3,3.3-6.4,3.3
				c-3.7,0-6.1-1.7-6.1-5.8V57.2c0-1.5-0.7-2.2-3-2.2v-0.2c3.8,0,6.9-0.4,9.8-1.6V68.7z M141,71.3c0,1.2,0.4,1.7,1.1,1.7
				c0.6,0,1.3-0.6,2-1.8h0.2c-0.7,2.3-2.9,3.3-5.6,3.3c-2.9,0-4.5-1.6-4.5-4V57.2c0-1.5-0.7-2.2-2.9-2.2v-0.2c3.7,0,6.2-0.4,9.7-1.6
				V71.3z"/>
		</g>
		<g class="st1">
			<path class="st2" d="M155.8,71.7c0,1,0.6,2.1,3.1,2.1v0.2h-12.9v-0.2c2.5,0,3.1-1.1,3.1-2.1V57.2c0-1.5-0.7-2.2-3-2.2v-0.2
				c3.8,0,6.9-0.4,9.8-1.6V71.7z M166.9,57.6c0,2.8-2,4.7-4.2,4.7c-1,0-1.8-0.2-2.3-0.9c0.8-0.4,1.6-1.3,1.6-2.8
				c0-1.2-0.9-2.2-2.3-2.2c-1.1,0-1.9,0.6-2.5,1.6v-0.3c0.8-2.6,2.8-4.4,5.3-4.4C165.3,53.1,166.9,55.1,166.9,57.6z"/>
		</g>
		<g class="st1">
			<path class="st2" d="M33.3,94.5c-2.4,0.3-3.5,2.3-3.5,10.2c0,5.9,3,9.2,6.7,9.2c2.3,0,4.1-0.7,6-2.2v0.2c-2.1,2.7-6,3.7-8.7,3.7
				c-5.3,0-11-3.9-11-10.8s5.7-10.6,10.5-10.6V94.5z M42.4,98.8c0,2.2-1.5,3.9-4.1,3.9c-2,0-3.3-1.3-3.6-2.6c1.1-0.5,2-1.9,2-3
				c0-0.9-0.2-2.4-1.8-2.7v-0.3C40.3,94.2,42.4,96.5,42.4,98.8z"/>
			<path class="st2" d="M45.1,110.3c0-3.6,3.3-5.6,7.9-5.6h4.4v0.2h-1.2c-3,0-4.4,1.9-4.4,4.5c0,2.3,0.7,4,2.6,4
				c1.1,0,2.1-0.6,3-1.4v0.2c-1.4,1.6-3.5,3.3-6.5,3.3C47.4,115.6,45.1,113.6,45.1,110.3z M46.7,98.7c0-2.1,1.9-4.2,7.5-4.5v0.2
				c-1.6,0.2-2.6,1.6-2.6,3c0,1.5,1,2.4,2.7,2.5c-0.6,1.1-2.3,2-3.9,2C48.1,101.9,46.7,100.4,46.7,98.7z M58.7,110.9V98.4
				c0-2-0.8-3.6-2.8-3.9v-0.2c6.8,0.2,9.5,2.8,9.5,8.2v10c0,1.2,0.4,1.7,1.1,1.7c0.6,0,1.3-0.6,2-1.8h0.2c-0.7,2.3-2.9,3.3-5.3,3.3
				C60.1,115.6,58.7,114.4,58.7,110.9z"/>
		</g>
		<g class="st1">
			<path class="st2" d="M79.9,112.8c0,1,0.6,2.1,3.1,2.1v0.2H70v-0.2c2.5,0,3.1-1.1,3.1-2.1V98.2c0-1.5-0.7-2.2-3-2.2v-0.2
				c3.8,0,6.9-0.4,9.8-1.6V112.8z M91,98.6c0,2.8-2,4.7-4.2,4.7c-1,0-1.8-0.2-2.3-0.9c0.8-0.4,1.6-1.3,1.6-2.8
				c0-1.2-0.9-2.2-2.3-2.2c-1.1,0-1.9,0.6-2.5,1.6v-0.3c0.8-2.6,2.8-4.4,5.3-4.4C89.4,94.2,91,96.2,91,98.6z"/>
		</g>
		<g class="st1">
			<path class="st2" d="M109.9,110.3c-1.4,0-2.3,0.8-2.3,2.1c0,1.2,0.8,2.7,3.7,3v0.2c-5.5-0.2-8.5-1.7-8.5-4.1c0-1.9,1.6-3,3.5-3
				C108,108.5,109.3,109.2,109.9,110.3z M111.3,94.5c-1.5,0.3-3,1.1-3,2.8c0.1,4.8,13.4,5.5,13.4,12.1c0,4-3.4,6.1-8.7,6.3v-0.2
				c1.7-0.3,3.7-0.9,3.7-3c0-4.3-13.5-5.8-13.5-12.1c0-3.6,3.4-5.8,8-6V94.5z M121,98.4c0,1.3-1,2.5-3,2.5c-1.7,0-3-0.7-3.5-2
				c1.2-0.1,1.9-0.9,1.8-1.9c0-1.2-1.6-2.4-3.2-2.6v-0.2C117.7,94.5,121,96.1,121,98.4z"/>
			<path class="st2" d="M133.9,121.4c0,1.5,0.7,2.2,3,2.2v0.2c-3.8,0-6.4,0.4-9.8,1.6V98.2c0-1.5-0.7-2.2-3-2.2v-0.2
				c3.8,0,6.4-0.4,9.8-1.6V121.4z M149.6,104.7c0,8.6-4.5,10.9-8.4,10.9c-2.3,0-5-1.6-6-3.3V112c1,0.8,2.1,1.4,3.4,1.4
				c1.9,0,4-1.4,4-8.7c0-7.4-1.9-8.4-4-8.4c-1.3,0-2.5,0.5-3.4,1.5v-0.3c1-1.7,3.7-3.3,6-3.3C145.2,94.2,149.6,96.5,149.6,104.7z"/>
			<path class="st2" d="M153.2,104.8c0-6.9,5.3-10.6,10.1-10.6v0.2c-2.4,0.3-3.1,2.3-3.1,10.2c0,5.9,2.6,9.2,6.3,9.2
				c2.3,0,4.1-0.7,6-2.2v0.2c-2.1,2.7-6,3.7-8.7,3.7C158.5,115.6,153.2,111.7,153.2,104.8z M162.4,103.1c3.6,0,5.1-1.1,5.1-4.6
				c0-2-0.8-3.8-2.7-4v-0.2c5.4,0,8,3.9,8,7c0,0.7-0.1,1.5-0.2,2.1h-10.3V103.1z"/>
			<path class="st2" d="M186.8,94.5c-2.4,0.3-3.5,2.3-3.5,10.2c0,5.9,3,9.2,6.7,9.2c2.3,0,4.1-0.7,6-2.2v0.2c-2.1,2.7-6,3.7-8.7,3.7
				c-5.3,0-11-3.9-11-10.8s5.7-10.6,10.5-10.6V94.5z M195.9,98.8c0,2.2-1.5,3.9-4.1,3.9c-2,0-3.3-1.3-3.6-2.6c1.2-0.5,2-1.9,2-3
				c0-0.9-0.2-2.4-1.8-2.7v-0.3C193.9,94.2,195.9,96.5,195.9,98.8z"/>
			<path class="st2" d="M198.4,95.8c3.8,0,6.9-0.4,9.8-1.6v18.6c0,1,0.6,2.1,3.1,2.1v0.2h-12.9v-0.2c2.5,0,3.1-1.1,3.1-2.1V98.2
				c0-1.5-0.7-2.2-3-2.2V95.8z M200.5,88c0-2.1,1.7-3.6,4.2-3.6s4.2,1.4,4.2,3.6c0,2.2-1.7,3.6-4.2,3.6S200.5,90.2,200.5,88z"/>
			<path class="st2" d="M213.3,110.3c0-3.6,3.3-5.6,7.9-5.6h4.4v0.2h-1.2c-3,0-4.4,1.9-4.4,4.5c0,2.3,0.7,4,2.6,4
				c1.2,0,2.1-0.6,3-1.4v0.2c-1.4,1.6-3.5,3.3-6.5,3.3C215.6,115.6,213.3,113.6,213.3,110.3z M215,98.7c0-2.1,1.9-4.2,7.5-4.5v0.2
				c-1.6,0.2-2.6,1.6-2.6,3c0,1.5,1,2.4,2.7,2.5c-0.6,1.1-2.3,2-3.9,2C216.3,101.9,215,100.4,215,98.7z M226.9,110.9V98.4
				c0-2-0.8-3.6-2.8-3.9v-0.2c6.8,0.2,9.5,2.8,9.5,8.2v10c0,1.2,0.4,1.7,1.1,1.7c0.6,0,1.3-0.6,2-1.8h0.2c-0.7,2.3-2.9,3.3-5.3,3.3
				C228.3,115.6,226.9,114.4,226.9,110.9z"/>
			<path class="st2" d="M238,86.6c3.8,0,6.9-0.4,9.8-1.6v27.8c0,1,0.6,2.1,3.1,2.1v0.2H238v-0.2c2.5,0,3.1-1.1,3.1-2.1V89
				c0-1.5-0.7-2.2-3-2.2V86.6z"/>
			<path class="st2" d="M252.9,92.4c0-3.7,4.9-5.4,8.7-5.5v0.2c-2,0.6-2.9,2.3-2.9,4c0,1.5,0.6,2.8,2.3,3.5c-0.7,1-2.1,1.6-3.8,1.6
				C255.1,96.2,252.9,95,252.9,92.4z M259,114.2c0-2.3,1.8-3.7,4.4-3.7s4.4,1.5,4.4,3.7c0,2.3-1.8,3.8-4.4,3.8S259,116.5,259,114.2z
				 M260.1,102.6c0-4.6,6.5-6,6.5-11.2c0-2.2-0.8-3.6-3-4.4v-0.2c5.7,0.4,9.9,2.2,9.9,6.8c0,5.6-8.9,7.4-8.9,11
				c0,1.1,0.4,1.8,1.5,2.4l0,0.2C262,107.2,260.1,105.1,260.1,102.6z"/>
		</g>
	</g>
</g>
</svg>
