<svg id="Layer_1" data-name="Layer 1" xmlns="http://www.w3.org/2000/svg" xmlns:xlink="http://www.w3.org/1999/xlink" viewBox="0 0 300 600"><defs><style>.cls-1{fill:none;}.cls-2{clip-path:url(#clip-path);}.cls-3{fill:#fff;}</style><clipPath id="clip-path"><rect class="cls-1" width="300" height="600"/></clipPath></defs><title>Artboard 1 copy 4</title><g class="cls-2"><path class="cls-3" d="M33.45,50.16v.21c-2.52.32-4.27,2.84-4.27,11.83s1.75,11.94,4.27,12.25v.21c-5-.28-11.13-4-11.13-12.25A12.13,12.13,0,0,1,33.45,50.16Zm1.72.21v-.21c3.6.18,5.6.7,7.17,1.65l1.09-1.65h.28v8.51h-.28A10.81,10.81,0,0,0,35.17,50.37ZM47,64.27v.21c-1.64,0-2.59.63-2.59,2.06v8.12h-.28l-1.26-2.1c-1.75,1.26-4.16,2-7.7,2.1v-.21C37.58,74.28,39,73,39,70.18V66.54c0-1.43-.63-2.06-2.63-2.06v-.21Z"/><path class="cls-3" d="M49.17,65.49a8.67,8.67,0,0,1,8.57-9v.21c-2.06.25-2.62,2-2.62,8.68,0,5,2.24,7.81,5.35,7.81a7.58,7.58,0,0,0,5.11-1.86v.21c-1.82,2.31-5.14,3.15-7.42,3.15A8.87,8.87,0,0,1,49.17,65.49ZM57,64c3.08,0,4.38-1,4.38-3.92,0-1.68-.7-3.22-2.28-3.43v-.21c4.62,0,6.86,3.29,6.86,5.95a10.8,10.8,0,0,1-.17,1.82H57Z"/><path class="cls-3" d="M81.82,71.62v.21a7.32,7.32,0,0,1-6,2.83c-3.15,0-5.39-1.43-5.39-4.93V58.25H68.63l.38-.53h1.44V53.94a8.84,8.84,0,0,0,5.74-2v5.74h4.72l-.38.53H76.19V69.83c0,1.75.66,3.57,2.31,3.57A5.15,5.15,0,0,0,81.82,71.62Z"/><path class="cls-3" d="M91.83,70.18c0-3,2.8-4.76,6.72-4.76h3.78v.21h-1c-2.52,0-3.71,1.65-3.71,3.82,0,1.92.56,3.39,2.21,3.39a3.82,3.82,0,0,0,2.55-1.22v.21a7.43,7.43,0,0,1-5.56,2.83C93.79,74.66,91.8,73,91.83,70.18Zm1.4-9.9c0-1.79,1.61-3.61,6.37-3.82v.21a2.56,2.56,0,0,0-2.24,2.56c0,1.26.88,2,2.28,2.13A3.94,3.94,0,0,1,96.28,63,2.8,2.8,0,0,1,93.23,60.28Zm10.15,10.43V60c0-1.72-.66-3.08-2.38-3.33v-.21c5.81.21,8.12,2.42,8.12,7V72c0,1,.35,1.43,1,1.43s1.12-.52,1.68-1.57H112c-.56,1.92-2.45,2.83-4.55,2.83C104.64,74.66,103.38,73.68,103.38,70.71Z"/><path class="cls-3" d="M131.52,74.45v.21A13.27,13.27,0,0,1,124.73,73l-1.15,1.71h-.29V66.12h.29A11.72,11.72,0,0,0,131.52,74.45Zm10.29-7c0,4.51-3.36,7-8.78,7.17v-.21c1.92-.35,3.81-1.47,3.81-3.57,0-6.12-13.37-6.68-13.37-13.79,0-4.2,3.4-6.61,8.05-6.93v.21a3.31,3.31,0,0,0-3.08,3.22C128.44,59.72,141.81,60.38,141.81,67.49ZM133,50.37v-.21a11.3,11.3,0,0,1,6.3,1.86l1.26-1.86h.28V58h-.28A11.14,11.14,0,0,0,133,50.37Z"/><path class="cls-3" d="M157.77,71.62v.21a7.32,7.32,0,0,1-6,2.83c-3.16,0-5.4-1.43-5.4-4.93V58.25h-1.81l.38-.53h1.43V53.94a8.84,8.84,0,0,0,5.75-2v5.74h4.72l-.38.53h-4.34V69.83c0,1.75.66,3.57,2.31,3.57A5.15,5.15,0,0,0,157.77,71.62Z"/><path class="cls-3" d="M158.89,70.18c0-3,2.8-4.76,6.72-4.76h3.78v.21h-1c-2.52,0-3.71,1.65-3.71,3.82,0,1.92.56,3.39,2.21,3.39a3.82,3.82,0,0,0,2.55-1.22v.21a7.43,7.43,0,0,1-5.56,2.83C160.85,74.66,158.85,73,158.89,70.18Zm1.4-9.9c0-1.79,1.61-3.61,6.37-3.82v.21a2.56,2.56,0,0,0-2.24,2.56c0,1.26.87,2,2.28,2.13A3.94,3.94,0,0,1,163.33,63,2.8,2.8,0,0,1,160.29,60.28Zm10.15,10.43V60c0-1.72-.66-3.08-2.38-3.33v-.21c5.81.21,8.12,2.42,8.12,7V72c0,1,.35,1.43,1,1.43s1.12-.52,1.68-1.57h.21c-.56,1.92-2.45,2.83-4.55,2.83C171.7,74.66,170.44,73.68,170.44,70.71Z"/><path class="cls-3" d="M188.54,72.32c0,.87.52,1.78,2.62,1.78v.21h-11V74.1c2.1,0,2.63-.91,2.63-1.78V59.89c0-1.26-.6-1.85-2.59-1.85v-.21a21.39,21.39,0,0,0,8.37-1.37ZM198,60.24a3.75,3.75,0,0,1-3.61,4,2.37,2.37,0,0,1-2-.77,2.56,2.56,0,0,0,1.36-2.38,1.86,1.86,0,0,0-2-1.89,2.42,2.42,0,0,0-2.1,1.33v-.28a4.85,4.85,0,0,1,4.55-3.78A3.55,3.55,0,0,1,198,60.24Z"/><path class="cls-3" d="M22.15,113.31v-.21c2.1,0,2.62-.8,2.62-1.78V91.54c0-1-.52-1.82-2.62-1.82v-.21h8.57v23.8Zm19.56-23.8V96h-.28c-1.5-4.41-3.64-5.92-9-6.27v-.21ZM32.47,101.1v-.21l1.93-.18a5.38,5.38,0,0,0,4.62-3h.28v6.51H39a5.35,5.35,0,0,0-4.62-2.94Zm0,12c5.32-.35,7.81-1.85,9.7-6.26h.28v6.47h-10Z"/><path class="cls-3" d="M45,113.1c2.1,0,2.62-.91,2.62-1.78V98.89c0-1.26-.59-1.85-2.59-1.85v-.21a21.36,21.36,0,0,0,8.37-1.37v15.86c0,.87.52,1.78,2.62,1.78v.21H45Zm12.32,0c2.06,0,2.59-.91,2.59-1.78V100.4c0-2-1-3-2.77-3a3.74,3.74,0,0,0-2.66,1.09V98.3a7.16,7.16,0,0,1,5.81-2.84c3.15,0,5.39,1.47,5.39,4.94v10.92c0,.87.53,1.78,2.63,1.78v.21h-11Z"/><path class="cls-3" d="M83.19,110.62v.21a7.32,7.32,0,0,1-6,2.83c-3.15,0-5.39-1.43-5.39-4.93V97.25H70l.39-.53h1.43V92.94a8.8,8.8,0,0,0,5.74-2v5.74h4.73l-.39.53H77.55v11.58c0,1.75.67,3.57,2.31,3.57A5.2,5.2,0,0,0,83.19,110.62Z"/><path class="cls-3" d="M92.22,111.32c0,.87.52,1.78,2.62,1.78v.21h-11v-.21c2.1,0,2.62-.91,2.62-1.78V91c0-1.26-.59-1.86-2.59-1.86V89a21.54,21.54,0,0,0,8.37-1.36Zm12.25-10.92v10.92c0,.87.52,1.78,2.62,1.78v.21h-11v-.21c2.07,0,2.59-.91,2.59-1.78V100.4c0-2-1-3-2.76-3a3.74,3.74,0,0,0-2.66,1.09V98.3a7.14,7.14,0,0,1,5.81-2.84C102.23,95.46,104.47,96.93,104.47,100.4Z"/><path class="cls-3" d="M116.37,108.73c0,2,.66,3,2.41,3a3.11,3.11,0,0,0,2.42-1.08v.21a5.85,5.85,0,0,1-5.43,2.83c-3.15,0-5.18-1.47-5.18-4.93V98.89c0-1.26-.59-1.85-2.59-1.85v-.21a21.36,21.36,0,0,0,8.37-1.37ZM128,111c0,1,.32,1.43.95,1.43s1.12-.52,1.68-1.57h.21c-.56,1.92-2.45,2.83-4.76,2.83s-3.85-1.4-3.85-3.43V98.89c0-1.26-.6-1.85-2.49-1.85v-.21A22.65,22.65,0,0,0,128,95.46Z"/><path class="cls-3" d="M139,109.15a1.79,1.79,0,0,0-2,1.75c0,1,.7,2.31,3.11,2.55v.21c-4.65-.17-7.21-1.43-7.21-3.46a2.73,2.73,0,0,1,3-2.59A3.56,3.56,0,0,1,139,109.15Zm1.15-13.48c-1.29.25-2.55.91-2.52,2.35.11,4.06,11.45,4.72,11.45,10.29,0,3.39-2.87,5.18-7.39,5.35v-.21c1.47-.24,3.12-.77,3.12-2.59,0-3.64-11.48-5-11.48-10.29,0-3.08,2.9-4.93,6.82-5.11Zm8.26,3.4a2.29,2.29,0,0,1-2.59,2.17,3,3,0,0,1-3-1.68,1.55,1.55,0,0,0,1.57-1.65c0-1-1.33-2.06-2.73-2.24v-.21C145.63,95.67,148.39,97.11,148.39,99.07Z"/><path class="cls-3" d="M151.44,96.79a21.49,21.49,0,0,0,8.36-1.36v15.89c0,.87.53,1.78,2.63,1.78v.21h-11v-.21c2.1,0,2.63-.91,2.63-1.78V98.86c0-1.26-.6-1.86-2.59-1.86Zm1.78-6.58c0-1.82,1.47-3,3.57-3s3.57,1.22,3.57,3-1.47,3.08-3.57,3.08S153.22,92.07,153.22,90.21Z"/><path class="cls-3" d="M164.17,109.18c0-3,2.81-4.76,6.73-4.76h3.78v.21h-1.05c-2.52,0-3.71,1.65-3.71,3.82,0,1.92.56,3.39,2.2,3.39a3.84,3.84,0,0,0,2.56-1.22v.21a7.45,7.45,0,0,1-5.57,2.83C166.13,113.66,164.14,112,164.17,109.18Zm1.41-9.9c0-1.79,1.61-3.61,6.37-3.82v.21a2.56,2.56,0,0,0-2.24,2.56c0,1.26.87,2,2.27,2.13a3.93,3.93,0,0,1-3.36,1.68A2.8,2.8,0,0,1,165.58,99.28Zm10.15,10.43V99c0-1.72-.67-3.08-2.38-3.33v-.21c5.81.21,8.12,2.42,8.12,7V111c0,1,.35,1.43,1,1.43s1.12-.52,1.68-1.57h.21c-.56,1.92-2.45,2.83-4.55,2.83C177,113.66,175.73,112.68,175.73,109.71Z"/><path class="cls-3" d="M192.14,109.15a1.79,1.79,0,0,0-2,1.75c0,1,.7,2.31,3.11,2.55v.21c-4.65-.17-7.21-1.43-7.21-3.46a2.73,2.73,0,0,1,3-2.59A3.55,3.55,0,0,1,192.14,109.15Zm1.15-13.48c-1.29.25-2.55.91-2.52,2.35.11,4.06,11.45,4.72,11.45,10.29,0,3.39-2.87,5.18-7.39,5.35v-.21c1.48-.24,3.12-.77,3.12-2.59,0-3.64-11.48-5-11.48-10.29,0-3.08,2.9-4.93,6.82-5.11Zm8.27,3.4a2.29,2.29,0,0,1-2.59,2.17,3,3,0,0,1-3-1.68,1.57,1.57,0,0,0,1.58-1.65c0-1-1.33-2.06-2.74-2.24v-.21C198.79,95.67,201.56,97.11,201.56,99.07Z"/><path class="cls-3" d="M218.11,110.62v.21a7.32,7.32,0,0,1-6,2.83c-3.15,0-5.39-1.43-5.39-4.93V97.25h-1.82l.39-.53h1.43V92.94a8.8,8.8,0,0,0,5.74-2v5.74h4.73l-.39.53h-4.34v11.58c0,1.75.67,3.57,2.31,3.57A5.17,5.17,0,0,0,218.11,110.62Z"/><path class="cls-3" d="M34.54,137.26v.28a4,4,0,0,0-2.94-1.29c-1.75,0-3.4.8-3.4,7.14s1.75,7.45,3.4,7.45a5,5,0,0,0,2.94-1.22v.21a6.57,6.57,0,0,1-5.11,2.83c-3.33,0-7.18-2-7.18-9.27,0-7,3.78-8.93,7.18-8.93A6.54,6.54,0,0,1,34.54,137.26Zm6.82,20.37c0,1.26.6,1.86,2.59,1.86v.21a23,23,0,0,0-8.36,1.36v-25.3a22.4,22.4,0,0,0,5.77-1.33Z"/><path class="cls-3" d="M53.09,147.73c0,2,.66,3,2.41,3a3.11,3.11,0,0,0,2.42-1.08v.21a5.85,5.85,0,0,1-5.43,2.83c-3.15,0-5.18-1.47-5.18-4.93v-9.84c0-1.26-.59-1.85-2.59-1.85v-.21a21.36,21.36,0,0,0,8.37-1.37ZM64.74,150c0,1,.32,1.43,1,1.43s1.12-.52,1.68-1.57h.21c-.56,1.92-2.45,2.83-4.76,2.83S59,151.26,59,149.23V137.89c0-1.26-.6-1.85-2.49-1.85v-.21a22.65,22.65,0,0,0,8.26-1.37Z"/><path class="cls-3" d="M78.32,134.67c-2.06.25-2.76,2-2.76,8.82,0,6.58.7,8.75,2.76,9v.21a8.92,8.92,0,0,1-8.71-9.17,8.77,8.77,0,0,1,8.71-9Zm10.08,8.82a8.91,8.91,0,0,1-8.68,9.17v-.21c2.07-.21,2.73-2.41,2.73-9,0-6.86-.7-8.61-2.73-8.82v-.21A8.72,8.72,0,0,1,88.4,143.49Z"/><path class="cls-3" d="M104.29,149.62v.21a7.32,7.32,0,0,1-6,2.83c-3.15,0-5.39-1.43-5.39-4.93V136.25H91.1l.38-.53h1.44v-3.78a8.84,8.84,0,0,0,5.74-2v5.74h4.72l-.38.53H98.66v11.58c0,1.75.66,3.57,2.31,3.57A5.15,5.15,0,0,0,104.29,149.62Z"/><path class="cls-3" d="M105.59,143.49a8.67,8.67,0,0,1,8.57-9v.21c-2.06.25-2.62,2-2.62,8.68,0,5,2.24,7.81,5.35,7.81A7.58,7.58,0,0,0,122,149.3v.21c-1.82,2.31-5.14,3.15-7.42,3.15A8.87,8.87,0,0,1,105.59,143.49Zm7.87-1.47c3.08,0,4.38-1,4.38-3.92,0-1.68-.7-3.22-2.28-3.43v-.21c4.62,0,6.86,3.29,6.86,5.95a10.8,10.8,0,0,1-.17,1.82h-8.79Z"/></g></svg>