<svg id="Layer_1" data-name="Layer 1" xmlns="http://www.w3.org/2000/svg" xmlns:xlink="http://www.w3.org/1999/xlink" viewBox="0 0 300 600"><defs><style>.cls-1{fill:none;}.cls-2{clip-path:url(#clip-path);}.cls-3{fill:#263845;}</style><clipPath id="clip-path"><rect class="cls-1" width="300" height="600"/></clipPath></defs><title>Artboard 1 copy 3</title><g class="cls-2"><path class="cls-3" d="M21.5,112.62c2.11,0,2.63-.84,2.63-1.78V91c0-.94-.52-1.78-2.63-1.78V89H32.71v.21c-2.1,0-2.63.84-2.63,1.78v19.82c0,.94.53,1.78,2.63,1.78v.21H21.5Z"/><path class="cls-3" d="M41.28,108.67a1.79,1.79,0,0,0-2,1.75c0,1,.7,2.31,3.12,2.55v.21c-4.66-.17-7.22-1.43-7.22-3.46a2.74,2.74,0,0,1,3-2.6A3.55,3.55,0,0,1,41.28,108.67Zm1.16-13.48c-1.3.24-2.56.91-2.53,2.34.11,4.06,11.45,4.73,11.45,10.3,0,3.39-2.87,5.18-7.38,5.35V113c1.47-.24,3.11-.77,3.11-2.59,0-3.64-11.48-5-11.48-10.29,0-3.08,2.91-4.94,6.83-5.11Zm8.26,3.39c0,1.09-.84,2.17-2.59,2.17a3,3,0,0,1-3-1.68,1.56,1.56,0,0,0,1.58-1.64c0-1.05-1.33-2.07-2.73-2.24V95C47.93,95.19,50.7,96.62,50.7,98.58Z"/><path class="cls-3" d="M62.31,96.76a1.89,1.89,0,0,0-1.92-1.22v-.21h9.8v.21c-1.23,0-1.71.84-1.12,2.06l4.59,9.56-3,5.67h-.21Zm-1.54,21.71c0-1.51,1.19-2.77,3.08-3.29a2.77,2.77,0,0,0-.14.87,2.06,2.06,0,0,0,2.07,2.35c1.22,0,2.2-1.3,3.54-3.54h.24c-1.93,3.61-3.26,6.72-5.71,6.72A2.91,2.91,0,0,1,60.77,118.47Zm14.36-14.74a9.68,9.68,0,0,0,1-4.52,3.38,3.38,0,0,0-3.57-3.67v-.21h8.71v.21c-1.15,0-1.61.45-2.27,1.64L75.34,104Z"/><path class="cls-3" d="M90.14,95.19c-2.06.24-2.76,2-2.76,8.82,0,6.58.7,8.75,2.76,9v.21A8.92,8.92,0,0,1,81.42,104a8.78,8.78,0,0,1,8.72-9ZM100.22,104a8.91,8.91,0,0,1-8.68,9.17V113c2.07-.21,2.73-2.41,2.73-9,0-6.86-.7-8.61-2.73-8.82V95A8.72,8.72,0,0,1,100.22,104Z"/><path class="cls-3" d="M110.54,108.25c0,2,.67,3,2.42,3a3.11,3.11,0,0,0,2.42-1.08v.21a5.86,5.86,0,0,1-5.43,2.83c-3.15,0-5.18-1.47-5.18-4.93V98.41c0-1.26-.6-1.86-2.59-1.86v-.21A21.49,21.49,0,0,0,110.54,95Zm11.66,2.24c0,1,.32,1.43,1,1.43s1.12-.52,1.68-1.57H125c-.56,1.92-2.45,2.83-4.76,2.83s-3.85-1.4-3.85-3.43V98.41c0-1.26-.6-1.86-2.49-1.86v-.21A22.86,22.86,0,0,0,122.2,95Z"/><path class="cls-3" d="M134.84,110.84c0,.87.52,1.78,2.62,1.78v.21h-11v-.21c2.1,0,2.63-.91,2.63-1.78V98.41c0-1.26-.6-1.86-2.59-1.86v-.21A21.54,21.54,0,0,0,134.84,95Zm9.45-12.08a3.75,3.75,0,0,1-3.61,4,2.37,2.37,0,0,1-2-.77,2.57,2.57,0,0,0,1.36-2.38,1.85,1.85,0,0,0-2-1.89A2.4,2.4,0,0,0,136,99v-.28A4.85,4.85,0,0,1,140.54,95,3.55,3.55,0,0,1,144.29,98.76Z"/><path class="cls-3" d="M30.43,134.19c-2.06.24-3,2-3,8.68,0,5,2.55,7.81,5.67,7.81a7.62,7.62,0,0,0,5.11-1.86V149c-1.82,2.31-5.15,3.15-7.42,3.15A9.15,9.15,0,0,1,21.47,143a9,9,0,0,1,9-9Zm7.77,3.74a3.25,3.25,0,0,1-3.5,3.36,3,3,0,0,1-3-2.2,3,3,0,0,0,1.68-2.56,2.08,2.08,0,0,0-1.51-2.31V134C36.42,134,38.2,135.94,38.2,137.93Z"/><path class="cls-3" d="M40.47,147.7c0-3,2.81-4.76,6.72-4.76H51v.21h-1c-2.53,0-3.72,1.64-3.72,3.82,0,1.92.57,3.39,2.21,3.39A3.84,3.84,0,0,0,51,149.14v.21a7.45,7.45,0,0,1-5.57,2.83C42.43,152.18,40.44,150.5,40.47,147.7Zm1.4-9.91c0-1.78,1.61-3.6,6.37-3.81v.21A2.56,2.56,0,0,0,46,136.74c0,1.26.88,2,2.28,2.14a3.93,3.93,0,0,1-3.36,1.68A2.81,2.81,0,0,1,41.87,137.79ZM52,148.23V137.51c0-1.71-.67-3.08-2.38-3.32V134c5.81.21,8.12,2.41,8.12,7v8.51c0,1,.35,1.43,1,1.43s1.12-.52,1.68-1.57h.21c-.56,1.92-2.45,2.83-4.55,2.83C53.29,152.18,52,151.2,52,148.23Z"/><path class="cls-3" d="M70.12,149.84c0,.87.53,1.78,2.63,1.78v.21h-11v-.21c2.1,0,2.63-.91,2.63-1.78V137.41c0-1.26-.6-1.86-2.6-1.86v-.21A21.51,21.51,0,0,0,70.12,134Zm9.45-12.08a3.74,3.74,0,0,1-3.6,4,2.39,2.39,0,0,1-2-.77,2.56,2.56,0,0,0,1.37-2.38,1.86,1.86,0,0,0-2-1.89,2.39,2.39,0,0,0-2.1,1.33v-.28A4.84,4.84,0,0,1,75.83,134,3.55,3.55,0,0,1,79.57,137.76Z"/><path class="cls-3" d="M95.74,147.67a1.79,1.79,0,0,0-2,1.75c0,1,.7,2.31,3.12,2.55v.21c-4.66-.17-7.22-1.43-7.22-3.46a2.74,2.74,0,0,1,3-2.6A3.55,3.55,0,0,1,95.74,147.67Zm1.16-13.48c-1.3.24-2.56.91-2.53,2.34.11,4.06,11.45,4.73,11.45,10.3,0,3.39-2.87,5.18-7.38,5.35V152c1.47-.24,3.11-.77,3.11-2.59,0-3.64-11.48-5-11.48-10.29,0-3.08,2.91-4.94,6.83-5.11Zm8.26,3.39c0,1.09-.84,2.17-2.59,2.17a3,3,0,0,1-3-1.68,1.56,1.56,0,0,0,1.58-1.64c0-1.05-1.33-2.07-2.73-2.24V134C102.39,134.19,105.16,135.62,105.16,137.58Z"/><path class="cls-3" d="M116.21,157.15c0,1.26.6,1.86,2.6,1.86v.21a23.06,23.06,0,0,0-8.37,1.36V137.37c0-1.26-.6-1.85-2.59-1.85v-.21a22.83,22.83,0,0,0,8.36-1.37Zm13.34-14.24c0,7.31-3.85,9.27-7.17,9.27a6.58,6.58,0,0,1-5.12-2.83v-.21a5,5,0,0,0,2.94,1.22c1.65,0,3.4-1.15,3.4-7.45s-1.64-7.15-3.4-7.15a3.94,3.94,0,0,0-2.94,1.3v-.28a6.55,6.55,0,0,1,5.12-2.8C125.77,134,129.55,135.94,129.55,142.91Z"/><path class="cls-3" d="M132.63,143a8.66,8.66,0,0,1,8.57-9v.21c-2.06.24-2.62,2-2.62,8.68,0,5,2.24,7.81,5.36,7.81a7.62,7.62,0,0,0,5.11-1.86V149c-1.82,2.31-5.15,3.15-7.43,3.15A8.87,8.87,0,0,1,132.63,143Zm7.87-1.47c3.09,0,4.38-1,4.38-3.92,0-1.68-.7-3.22-2.27-3.43V134c4.62,0,6.86,3.29,6.86,6a9.94,9.94,0,0,1-.18,1.82H140.5Z"/><path class="cls-3" d="M161.29,134.19c-2.06.24-3,2-3,8.68,0,5,2.55,7.81,5.67,7.81a7.62,7.62,0,0,0,5.11-1.86V149c-1.82,2.31-5.15,3.15-7.42,3.15a9.15,9.15,0,0,1-9.35-9.17,9,9,0,0,1,9-9Zm7.78,3.74a3.26,3.26,0,0,1-3.51,3.36,3,3,0,0,1-3-2.2,3,3,0,0,0,1.68-2.56,2.08,2.08,0,0,0-1.51-2.31V134C167.28,134,169.07,135.94,169.07,137.93Z"/><path class="cls-3" d="M171.13,135.31a21.3,21.3,0,0,0,8.36-1.37v15.9c0,.87.53,1.78,2.63,1.78v.21h-11v-.21c2.1,0,2.63-.91,2.63-1.78V137.37c0-1.26-.6-1.85-2.59-1.85Zm1.78-6.58c0-1.82,1.47-3,3.57-3s3.57,1.23,3.57,3-1.47,3.08-3.57,3.08S172.91,130.58,172.91,128.73Z"/><path class="cls-3" d="M183.87,147.7c0-3,2.8-4.76,6.72-4.76h3.78v.21h-1.05c-2.52,0-3.71,1.64-3.71,3.82,0,1.92.56,3.39,2.2,3.39a3.84,3.84,0,0,0,2.56-1.22v.21a7.45,7.45,0,0,1-5.57,2.83C185.83,152.18,183.83,150.5,183.87,147.7Zm1.4-9.91c0-1.78,1.61-3.6,6.37-3.81v.21a2.55,2.55,0,0,0-2.24,2.55c0,1.26.87,2,2.27,2.14a3.93,3.93,0,0,1-3.36,1.68A2.81,2.81,0,0,1,185.27,137.79Zm10.15,10.44V137.51c0-1.71-.67-3.08-2.38-3.32V134c5.81.21,8.12,2.41,8.12,7v8.51c0,1,.35,1.43,1,1.43s1.12-.52,1.68-1.57H204c-.56,1.92-2.45,2.83-4.55,2.83C196.68,152.18,195.42,151.2,195.42,148.23Z"/><path class="cls-3" d="M204.94,127.47a21.3,21.3,0,0,0,8.36-1.37v23.74c0,.87.53,1.78,2.63,1.78v.21h-11v-.21c2.1,0,2.63-.91,2.63-1.78V129.53c0-1.26-.6-1.85-2.59-1.85Z"/><path class="cls-3" d="M217.64,132.4c0-3.11,4.2-4.62,7.39-4.72v.21a3.47,3.47,0,0,0-2.49,3.39,3,3,0,0,0,2,3,3.84,3.84,0,0,1-3.22,1.4C219.46,135.69,217.64,134.68,217.64,132.4ZM222.79,151c0-1.92,1.54-3.18,3.74-3.18s3.75,1.26,3.75,3.18-1.54,3.22-3.75,3.22S222.79,153,222.79,151Zm.94-9.83c0-3.93,5.57-5.08,5.57-9.56a3.44,3.44,0,0,0-2.52-3.71v-.21c4.83.31,8.47,1.89,8.47,5.77,0,4.76-7.6,6.27-7.6,9.35a2.08,2.08,0,0,0,1.26,2l0,.21C225.38,145,223.73,143.29,223.73,141.16Z"/></g></svg>