<svg id="Layer_1" data-name="Layer 1" xmlns="http://www.w3.org/2000/svg" xmlns:xlink="http://www.w3.org/1999/xlink" viewBox="0 0 300 600"><defs><style>.cls-1{fill:none;}.cls-2{clip-path:url(#clip-path);}.cls-3{fill:#fff;}</style><clipPath id="clip-path"><polyline class="cls-1" points="300 600 0 600 0 0 300 0"/></clipPath></defs><title>Artboard 1 copy 2</title><g class="cls-2"><path class="cls-3" d="M22.15,74.1c2.1,0,2.62-.84,2.62-1.78V52.51c0-.95-.52-1.79-2.62-1.79v-.21h11.2v.21c-2.1,0-2.63.84-2.63,1.79V72.32c0,.94.53,1.78,2.63,1.78v.21H22.15Z"/><path class="cls-3" d="M48.64,71.62v.21a7.32,7.32,0,0,1-6,2.83c-3.15,0-5.39-1.43-5.39-4.93V58.25H35.45l.38-.53h1.44V53.94A8.84,8.84,0,0,0,43,52v5.74h4.72l-.38.53H43V69.83c0,1.75.66,3.57,2.31,3.57A5.15,5.15,0,0,0,48.64,71.62Z"/><path class="cls-3" d="M58.37,74.1c2.1,0,2.63-.91,2.63-1.78V59.89c0-1.26-.6-1.85-2.59-1.85v-.21a21.3,21.3,0,0,0,8.36-1.37V72.32c0,.87.53,1.78,2.63,1.78v.21h-11Zm12.32,0c2.07,0,2.59-.91,2.59-1.78V61.4c0-2-1-3-2.76-3a3.74,3.74,0,0,0-2.66,1.09V59.3a7.14,7.14,0,0,1,5.81-2.84c3.15,0,5.39,1.47,5.39,4.94V72.32c0,.87.52,1.78,2.62,1.78v.21h-11Z"/><path class="cls-3" d="M83.57,65.49a8.67,8.67,0,0,1,8.58-9v.21c-2.07.25-2.63,2-2.63,8.68,0,5,2.24,7.81,5.36,7.81A7.62,7.62,0,0,0,100,71.3v.21c-1.82,2.31-5.15,3.15-7.42,3.15A8.87,8.87,0,0,1,83.57,65.49ZM91.45,64c3.08,0,4.37-1,4.37-3.92,0-1.68-.7-3.22-2.27-3.43v-.21c4.62,0,6.86,3.29,6.86,5.95a9.85,9.85,0,0,1-.18,1.82H91.45Z"/><path class="cls-3" d="M103.28,65.49a8.67,8.67,0,0,1,8.57-9v.21c-2.06.25-2.62,2-2.62,8.68,0,5,2.24,7.81,5.35,7.81a7.58,7.58,0,0,0,5.11-1.86v.21c-1.82,2.31-5.14,3.15-7.42,3.15A8.87,8.87,0,0,1,103.28,65.49ZM111.15,64c3.08,0,4.38-1,4.38-3.92,0-1.68-.7-3.22-2.28-3.43v-.21c4.62,0,6.86,3.29,6.86,5.95a10.8,10.8,0,0,1-.17,1.82h-8.79Z"/><path class="cls-3" d="M135.41,59.26v.28a3.88,3.88,0,0,0-2.91-1.29c-1.75,0-3.43.8-3.43,7.14s1.79,7.45,3.43,7.45a4.86,4.86,0,0,0,2.91-1.22v.21a6.5,6.5,0,0,1-5.08,2.83c-3.32,0-7.21-2-7.21-9.27,0-7,3.82-8.93,7.21-8.93A6.47,6.47,0,0,1,135.41,59.26ZM142.23,72c0,1,.32,1.43,1,1.43s1.12-.52,1.68-1.57h.21c-.56,1.92-2.45,2.83-4.55,2.83-2.8,0-4.06-1-4.06-4V52c0-1.26-.6-1.86-2.59-1.86V50a23,23,0,0,0,8.36-1.36Z"/><path class="cls-3" d="M153.19,70.15a1.79,1.79,0,0,0-2,1.75c0,1,.7,2.31,3.11,2.55v.21c-4.65-.17-7.21-1.43-7.21-3.46a2.73,2.73,0,0,1,3-2.59A3.56,3.56,0,0,1,153.19,70.15Zm1.15-13.48c-1.29.25-2.55.91-2.52,2.35.11,4.06,11.45,4.72,11.45,10.29,0,3.39-2.87,5.18-7.39,5.35v-.21c1.47-.24,3.12-.77,3.12-2.59,0-3.64-11.48-5-11.48-10.29,0-3.08,2.9-4.93,6.82-5.11Zm8.26,3.4A2.29,2.29,0,0,1,160,62.24a3,3,0,0,1-3-1.68,1.55,1.55,0,0,0,1.57-1.65c0-1-1.33-2.06-2.73-2.24v-.21C159.84,56.67,162.6,58.11,162.6,60.07Z"/><path class="cls-3" d="M28.2,109.15a1.79,1.79,0,0,0-2,1.75c0,1,.7,2.31,3.12,2.55v.21c-4.66-.17-7.21-1.43-7.21-3.46a2.73,2.73,0,0,1,3-2.59A3.55,3.55,0,0,1,28.2,109.15Zm1.16-13.48c-1.3.25-2.56.91-2.52,2.35.1,4.06,11.44,4.72,11.44,10.29,0,3.39-2.87,5.18-7.38,5.35v-.21c1.47-.24,3.11-.77,3.11-2.59,0-3.64-11.48-5-11.48-10.29,0-3.08,2.91-4.93,6.83-5.11Zm8.26,3.4A2.29,2.29,0,0,1,35,101.24a3,3,0,0,1-3-1.68,1.57,1.57,0,0,0,1.58-1.65c0-1-1.33-2.06-2.73-2.24v-.21C34.85,95.67,37.62,97.11,37.62,99.07Z"/><path class="cls-3" d="M48.68,118.63c0,1.26.59,1.86,2.59,1.86v.21a23.06,23.06,0,0,0-8.37,1.36V98.86c0-1.26-.59-1.86-2.59-1.86v-.21a23.06,23.06,0,0,0,8.37-1.36ZM62,104.39c0,7.31-3.85,9.27-7.17,9.27a6.54,6.54,0,0,1-5.11-2.83v-.21a4.92,4.92,0,0,0,2.94,1.22c1.64,0,3.39-1.15,3.39-7.45s-1.64-7.14-3.39-7.14a3.93,3.93,0,0,0-2.94,1.29v-.28a6.51,6.51,0,0,1,5.11-2.8C58.23,95.46,62,97.42,62,104.39Z"/><path class="cls-3" d="M65.09,104.49a8.67,8.67,0,0,1,8.58-9v.21c-2.07.25-2.63,2-2.63,8.68,0,5,2.24,7.81,5.36,7.81a7.62,7.62,0,0,0,5.11-1.86v.21c-1.82,2.31-5.15,3.15-7.42,3.15A8.87,8.87,0,0,1,65.09,104.49ZM73,103c3.08,0,4.37-1,4.37-3.92,0-1.68-.7-3.22-2.27-3.43v-.21c4.62,0,6.86,3.29,6.86,6a9.85,9.85,0,0,1-.18,1.82H73Z"/><path class="cls-3" d="M93.76,95.67c-2.07.25-3,2-3,8.68,0,5,2.56,7.81,5.67,7.81a7.58,7.58,0,0,0,5.11-1.86v.21c-1.82,2.31-5.14,3.15-7.42,3.15a9.15,9.15,0,0,1-9.34-9.17,9,9,0,0,1,9-9Zm7.77,3.75a3.26,3.26,0,0,1-3.5,3.36,3,3,0,0,1-3-2.21A3,3,0,0,0,96.66,98a2.07,2.07,0,0,0-1.5-2.31v-.25C99.74,95.46,101.53,97.42,101.53,99.42Z"/><path class="cls-3" d="M103.59,96.79A21.54,21.54,0,0,0,112,95.43v15.89c0,.87.52,1.78,2.62,1.78v.21h-11v-.21c2.1,0,2.62-.91,2.62-1.78V98.86c0-1.26-.59-1.86-2.59-1.86Zm1.79-6.58c0-1.82,1.47-3,3.57-3s3.57,1.22,3.57,3-1.47,3.08-3.57,3.08S105.38,92.07,105.38,90.21Z"/><path class="cls-3" d="M116.33,109.18c0-3,2.8-4.76,6.72-4.76h3.78v.21h-1c-2.52,0-3.71,1.65-3.71,3.82,0,1.92.56,3.39,2.21,3.39a3.82,3.82,0,0,0,2.55-1.22v.21a7.43,7.43,0,0,1-5.56,2.83C118.29,113.66,116.3,112,116.33,109.18Zm1.4-9.9c0-1.79,1.61-3.61,6.37-3.82v.21a2.56,2.56,0,0,0-2.24,2.56c0,1.26.88,2,2.28,2.13a3.94,3.94,0,0,1-3.36,1.68A2.8,2.8,0,0,1,117.73,99.28Zm10.15,10.43V99c0-1.72-.66-3.08-2.38-3.33v-.21c5.81.21,8.12,2.42,8.12,7V111c0,1,.35,1.43,1,1.43s1.12-.52,1.68-1.57h.21c-.56,1.92-2.45,2.83-4.55,2.83C129.14,113.66,127.88,112.68,127.88,109.71Z"/><path class="cls-3" d="M137.4,89a21.54,21.54,0,0,0,8.37-1.36v23.73c0,.87.52,1.78,2.62,1.78v.21h-11v-.21c2.11,0,2.63-.91,2.63-1.78V91c0-1.26-.6-1.86-2.59-1.86Z"/><path class="cls-3" d="M149.93,96.79a21.58,21.58,0,0,0,8.37-1.36v15.89c0,.87.52,1.78,2.62,1.78v.21h-11v-.21c2.11,0,2.63-.91,2.63-1.78V98.86c0-1.26-.59-1.86-2.59-1.86Zm1.79-6.58c0-1.82,1.46-3,3.57-3s3.57,1.22,3.57,3-1.47,3.08-3.57,3.08S151.72,92.07,151.72,90.21Z"/><path class="cls-3" d="M169.11,109.15a1.79,1.79,0,0,0-2,1.75c0,1,.7,2.31,3.11,2.55v.21c-4.65-.17-7.21-1.43-7.21-3.46a2.73,2.73,0,0,1,3-2.59A3.55,3.55,0,0,1,169.11,109.15Zm1.15-13.48c-1.29.25-2.55.91-2.52,2.35.11,4.06,11.45,4.72,11.45,10.29,0,3.39-2.87,5.18-7.39,5.35v-.21c1.48-.24,3.12-.77,3.12-2.59,0-3.64-11.48-5-11.48-10.29,0-3.08,2.91-4.93,6.82-5.11Zm8.27,3.4a2.29,2.29,0,0,1-2.59,2.17,3,3,0,0,1-3-1.68,1.57,1.57,0,0,0,1.58-1.65c0-1-1.33-2.06-2.74-2.24v-.21C175.76,95.67,178.53,97.11,178.53,99.07Z"/><path class="cls-3" d="M195.08,110.62v.21a7.32,7.32,0,0,1-6,2.83c-3.15,0-5.39-1.43-5.39-4.93V97.25h-1.82l.39-.53h1.43V92.94a8.8,8.8,0,0,0,5.74-2v5.74h4.73l-.39.53h-4.34v11.58c0,1.75.67,3.57,2.31,3.57A5.17,5.17,0,0,0,195.08,110.62Z"/><path class="cls-3" d="M21.55,135.79a21.54,21.54,0,0,0,8.37-1.36v15.89c0,.87.52,1.78,2.62,1.78v.21h-11v-.21c2.1,0,2.62-.91,2.62-1.78V137.86c0-1.26-.59-1.86-2.59-1.86Zm1.79-6.58c0-1.82,1.47-3,3.57-3s3.57,1.22,3.57,3-1.47,3.08-3.57,3.08S23.34,131.07,23.34,129.21Z"/><path class="cls-3" d="M34,152.1c2.1,0,2.63-.91,2.63-1.78V137.89c0-1.26-.6-1.85-2.59-1.85v-.21a21.3,21.3,0,0,0,8.36-1.37v15.86c0,.87.53,1.78,2.63,1.78v.21H34Zm12.32,0c2.07,0,2.59-.91,2.59-1.78V139.4c0-2-1-3-2.76-3a3.74,3.74,0,0,0-2.66,1.09v-.21a7.14,7.14,0,0,1,5.81-2.84c3.15,0,5.39,1.47,5.39,4.94v10.92c0,.87.52,1.78,2.62,1.78v.21h-11Z"/><path class="cls-3" d="M65.3,148.15a1.79,1.79,0,0,0-2,1.75c0,1,.7,2.31,3.12,2.55v.21c-4.66-.17-7.21-1.43-7.21-3.46a2.73,2.73,0,0,1,3-2.59A3.55,3.55,0,0,1,65.3,148.15Zm1.16-13.48c-1.3.25-2.56.91-2.52,2.35.1,4.06,11.44,4.72,11.44,10.29,0,3.39-2.87,5.18-7.38,5.35v-.21c1.47-.24,3.11-.77,3.11-2.59,0-3.64-11.48-5-11.48-10.29,0-3.08,2.91-4.93,6.83-5.11Zm8.26,3.4a2.29,2.29,0,0,1-2.59,2.17,3,3,0,0,1-3-1.68,1.57,1.57,0,0,0,1.58-1.65c0-1-1.33-2.06-2.73-2.24v-.21C72,134.67,74.72,136.11,74.72,138.07Z"/><path class="cls-3" d="M85.71,147.73c0,2,.66,3,2.41,3a3.11,3.11,0,0,0,2.42-1.08v.21a5.85,5.85,0,0,1-5.43,2.83c-3.15,0-5.18-1.47-5.18-4.93v-9.84c0-1.26-.59-1.85-2.59-1.85v-.21a21.36,21.36,0,0,0,8.37-1.37ZM97.36,150c0,1,.32,1.43,1,1.43s1.12-.52,1.68-1.57h.21c-.56,1.92-2.45,2.83-4.76,2.83s-3.85-1.4-3.85-3.43V137.89c0-1.26-.6-1.85-2.49-1.85v-.21a22.65,22.65,0,0,0,8.26-1.37Z"/><path class="cls-3" d="M110,150.32c0,.87.52,1.78,2.62,1.78v.21h-11v-.21c2.1,0,2.62-.91,2.62-1.78V137.89c0-1.26-.59-1.85-2.59-1.85v-.21a21.36,21.36,0,0,0,8.37-1.37Zm9.45-12.08a3.75,3.75,0,0,1-3.61,4,2.37,2.37,0,0,1-2-.77,2.56,2.56,0,0,0,1.36-2.38,1.86,1.86,0,0,0-2-1.89,2.42,2.42,0,0,0-2.1,1.33v-.28a4.85,4.85,0,0,1,4.55-3.78A3.55,3.55,0,0,1,119.45,138.24Z"/><path class="cls-3" d="M121,148.18c0-3,2.8-4.76,6.72-4.76h3.78v.21h-1c-2.52,0-3.71,1.65-3.71,3.82,0,1.92.56,3.39,2.21,3.39a3.82,3.82,0,0,0,2.55-1.22v.21a7.43,7.43,0,0,1-5.56,2.83C122.91,152.66,120.92,151,121,148.18Zm1.4-9.9c0-1.79,1.61-3.61,6.37-3.82v.21a2.56,2.56,0,0,0-2.24,2.56c0,1.26.88,2,2.28,2.13A3.94,3.94,0,0,1,125.4,141,2.8,2.8,0,0,1,122.35,138.28Zm10.15,10.43V138c0-1.72-.66-3.08-2.38-3.33v-.21c5.81.21,8.12,2.42,8.12,7V150c0,1,.35,1.43,1,1.43s1.12-.52,1.68-1.57h.21c-.56,1.92-2.45,2.83-4.55,2.83C133.76,152.66,132.5,151.68,132.5,148.71Z"/><path class="cls-3" d="M142.2,152.1c2.1,0,2.62-.91,2.62-1.78V137.89c0-1.26-.59-1.85-2.59-1.85v-.21a21.36,21.36,0,0,0,8.37-1.37v15.86c0,.87.52,1.78,2.62,1.78v.21h-11Zm12.32,0c2.06,0,2.59-.91,2.59-1.78V139.4c0-2-1-3-2.77-3a3.74,3.74,0,0,0-2.66,1.09v-.21a7.16,7.16,0,0,1,5.81-2.84c3.15,0,5.39,1.47,5.39,4.94v10.92c0,.87.53,1.78,2.63,1.78v.21h-11Z"/><path class="cls-3" d="M176.36,134.67c-2.07.25-3,2-3,8.68,0,5,2.56,7.81,5.67,7.81a7.58,7.58,0,0,0,5.11-1.86v.21c-1.82,2.31-5.14,3.15-7.42,3.15a9.15,9.15,0,0,1-9.35-9.17,9,9,0,0,1,9-9Zm7.77,3.75a3.26,3.26,0,0,1-3.5,3.36,3,3,0,0,1-3-2.21,3,3,0,0,0,1.68-2.55,2.07,2.07,0,0,0-1.5-2.31v-.25C182.34,134.46,184.13,136.42,184.13,138.42Z"/><path class="cls-3" d="M186.75,143.49a8.67,8.67,0,0,1,8.58-9v.21c-2.07.25-2.63,2-2.63,8.68,0,5,2.24,7.81,5.36,7.81a7.62,7.62,0,0,0,5.11-1.86v.21c-1.82,2.31-5.15,3.15-7.42,3.15A8.87,8.87,0,0,1,186.75,143.49Zm7.88-1.47c3.08,0,4.37-1,4.37-3.92,0-1.68-.7-3.22-2.27-3.43v-.21c4.62,0,6.86,3.29,6.86,5.95a9.85,9.85,0,0,1-.18,1.82h-8.78Z"/></g></svg>