<?xml version="1.0" encoding="utf-8"?>
<!-- Generator: Adobe Illustrator 24.0.3, SVG Export Plug-In . SVG Version: 6.00 Build 0)  -->
<svg version="1.1" id="Layer_1" xmlns="http://www.w3.org/2000/svg" xmlns:xlink="http://www.w3.org/1999/xlink" x="0px" y="0px"
	 viewBox="0 0 300 600" style="enable-background:new 0 0 300 600;" xml:space="preserve">
<style type="text/css">
	.st0{clip-path:url(#SVGID_2_);}
	.st1{enable-background:new    ;}
	.st2{fill:#FFFFFF;}
</style>
<title>Artboard 1 copy 4</title>
<g>
	<defs>
		<rect id="SVGID_1_" y="0" width="300" height="600"/>
	</defs>
	<clipPath id="SVGID_2_">
		<use xlink:href="#SVGID_1_"  style="overflow:visible;"/>
	</clipPath>
	<g class="st0">
		<g class="st1">
			<path class="st2" d="M35.7,46v0.2c-3,0.4-5,3.3-5,13.9c0,10.6,2.1,14,5,14.4v0.2c-5.9-0.3-13.1-4.7-13.1-14.4
				C22.6,51.1,30.2,46.3,35.7,46z M37.7,46.2V46c4.2,0.2,6.6,0.8,8.4,1.9l1.3-1.9h0.3v10h-0.3C46.3,51.1,42.6,47.2,37.7,46.2z
				 M51.6,62.5v0.2c-1.9,0-3,0.7-3,2.4v9.5h-0.3l-1.5-2.5c-2.1,1.5-4.9,2.3-9,2.5v-0.2c2.8-0.2,4.4-1.7,4.4-5v-4.3
				c0-1.7-0.7-2.4-3.1-2.4v-0.2H51.6z"/>
			<path class="st2" d="M54.1,64c0-6.9,5.3-10.6,10.1-10.6v0.2c-2.4,0.3-3.1,2.3-3.1,10.2c0,5.9,2.6,9.2,6.3,9.2
				c2.3,0,4.1-0.7,6-2.2V71c-2.1,2.7-6,3.7-8.7,3.7C59.4,74.7,54.1,70.9,54.1,64z M63.3,62.2c3.6,0,5.1-1.1,5.1-4.6
				c0-2-0.8-3.8-2.7-4v-0.2c5.4,0,8,3.9,8,7c0,0.7-0.1,1.5-0.2,2.1H63.3V62.2z"/>
			<path class="st2" d="M92.4,71.1v0.2c-1.3,1.9-3.9,3.3-7,3.3c-3.7,0-6.3-1.7-6.3-5.8V55.5h-2.1l0.5-0.6h1.7v-4.4
				c2.5,0,5-0.8,6.7-2.3v6.7h5.5l-0.5,0.6h-5.1v13.6c0,2.1,0.8,4.2,2.7,4.2C89.7,73.2,91.1,72.5,92.4,71.1z"/>
			<path class="st2" d="M104.2,69.5c0-3.6,3.3-5.6,7.9-5.6h4.4v0.2h-1.2c-3,0-4.4,1.9-4.4,4.5c0,2.3,0.7,4,2.6,4
				c1.1,0,2.1-0.6,3-1.4v0.2c-1.4,1.6-3.5,3.3-6.5,3.3C106.5,74.7,104.1,72.7,104.2,69.5z M105.8,57.8c0-2.1,1.9-4.2,7.5-4.5v0.2
				c-1.6,0.2-2.6,1.6-2.6,3c0,1.5,1,2.4,2.7,2.5c-0.6,1.1-2.3,2-3.9,2C107.1,61.1,105.8,59.6,105.8,57.8z M117.7,70.1V57.5
				c0-2-0.8-3.6-2.8-3.9v-0.2c6.8,0.2,9.5,2.8,9.5,8.2v10c0,1.2,0.4,1.7,1.1,1.7c0.6,0,1.3-0.6,2-1.8h0.2c-0.7,2.3-2.9,3.3-5.3,3.3
				C119.2,74.7,117.7,73.6,117.7,70.1z"/>
		</g>
		<g class="st1">
			<path class="st2" d="M150.7,74.5v0.2c-3.2-0.1-5.8-0.7-8-2l-1.4,2h-0.3v-10h0.3C142.7,69.3,145.7,72.8,150.7,74.5z M162.8,66.3
				c0,5.3-3.9,8.2-10.3,8.4v-0.2c2.3-0.4,4.5-1.7,4.5-4.2c0-7.2-15.7-7.8-15.7-16.2c0-4.9,4-7.8,9.4-8.1v0.2
				c-1.9,0.3-3.6,1.5-3.6,3.8C147.1,57.2,162.8,58,162.8,66.3z M152.5,46.2V46c3.1,0.1,5.5,0.8,7.4,2.2l1.5-2.2h0.3v9.2h-0.3
				C160,50.8,156.5,47.2,152.5,46.2z"/>
		</g>
		<g class="st1">
			<path class="st2" d="M181.5,71.1v0.2c-1.3,1.9-3.9,3.3-7,3.3c-3.7,0-6.3-1.7-6.3-5.8V55.5H166l0.5-0.6h1.7v-4.4
				c2.5,0,5-0.8,6.7-2.3v6.7h5.5l-0.5,0.6h-5.1v13.6c0,2.1,0.8,4.2,2.7,4.2C178.8,73.2,180.2,72.5,181.5,71.1z"/>
			<path class="st2" d="M182.8,69.5c0-3.6,3.3-5.6,7.9-5.6h4.4v0.2h-1.2c-3,0-4.4,1.9-4.4,4.5c0,2.3,0.7,4,2.6,4
				c1.2,0,2.1-0.6,3-1.4v0.2c-1.4,1.6-3.5,3.3-6.5,3.3C185.1,74.7,182.8,72.7,182.8,69.5z M184.5,57.8c0-2.1,1.9-4.2,7.5-4.5v0.2
				c-1.6,0.2-2.6,1.6-2.6,3c0,1.5,1,2.4,2.7,2.5c-0.6,1.1-2.3,2-3.9,2C185.8,61.1,184.5,59.6,184.5,57.8z M196.4,70.1V57.5
				c0-2-0.8-3.6-2.8-3.9v-0.2c6.8,0.2,9.5,2.8,9.5,8.2v10c0,1.2,0.4,1.7,1.1,1.7c0.6,0,1.3-0.6,2-1.8h0.2c-0.7,2.3-2.9,3.3-5.3,3.3
				C197.8,74.7,196.4,73.6,196.4,70.1z"/>
		</g>
		<g class="st1">
			<path class="st2" d="M217.6,72c0,1,0.6,2.1,3.1,2.1v0.2h-12.9v-0.2c2.5,0,3.1-1.1,3.1-2.1V57.4c0-1.5-0.7-2.2-3-2.2V55
				c3.8,0,6.9-0.4,9.8-1.6V72z M228.7,57.8c0,2.8-2,4.7-4.2,4.7c-1,0-1.8-0.2-2.3-0.9c0.8-0.4,1.6-1.3,1.6-2.8
				c0-1.2-0.9-2.2-2.3-2.2c-1.1,0-1.9,0.6-2.5,1.6v-0.3c0.8-2.6,2.8-4.4,5.3-4.4C227.1,53.4,228.7,55.3,228.7,57.8z"/>
		</g>
		<g class="st1">
			<path class="st2" d="M22.4,115.4v-0.2c2.5,0,3.1-0.9,3.1-2.1V89.8c0-1.1-0.6-2.1-3.1-2.1v-0.2h10.1v27.9H22.4z M45.4,87.4V95H45
				c-1.8-5.2-4.3-6.9-10.5-7.4v-0.2H45.4z M34.5,101v-0.2l2.3-0.2c2.4-0.2,4.1-1.2,5.4-3.5h0.3v7.6h-0.3c-1.4-2.3-3-3.2-5.4-3.4
				L34.5,101z M34.5,115.1c6.2-0.4,9.2-2.2,11.4-7.4h0.3v7.6H34.5V115.1z"/>
			<path class="st2" d="M49.3,115.1c2.5,0,3.1-1.1,3.1-2.1V98.5c0-1.5-0.7-2.2-3-2.2V96c3.8,0,6.9-0.4,9.8-1.6V113
				c0,1,0.6,2.1,3.1,2.1v0.2H49.3V115.1z M63.7,115.1c2.4,0,3-1.1,3-2.1v-12.8c0-2.3-1.2-3.5-3.2-3.5c-1.1,0-2.1,0.4-3.1,1.3v-0.2
				c1.1-1.7,3.8-3.3,6.8-3.3c3.7,0,6.3,1.7,6.3,5.8V113c0,1,0.6,2.1,3.1,2.1v0.2H63.7V115.1z"/>
			<path class="st2" d="M94,112.2v0.2c-1.3,1.9-3.9,3.3-7,3.3c-3.7,0-6.3-1.7-6.3-5.8V96.5h-2.1l0.5-0.6h1.7v-4.4
				c2.5,0,5-0.8,6.7-2.3v6.7h5.5l-0.5,0.6h-5.1v13.6c0,2.1,0.8,4.2,2.7,4.2C91.3,114.3,92.7,113.6,94,112.2z"/>
			<path class="st2" d="M104.6,113c0,1,0.6,2.1,3.1,2.1v0.2H94.8v-0.2c2.5,0,3.1-1.1,3.1-2.1V89.2c0-1.5-0.7-2.2-3-2.2v-0.2
				c3.8,0,6.9-0.4,9.8-1.6V113z M119,100.2V113c0,1,0.6,2.1,3.1,2.1v0.2h-12.9v-0.2c2.4,0,3-1.1,3-2.1v-12.8c0-2.3-1.2-3.5-3.2-3.5
				c-1.1,0-2.1,0.4-3.1,1.3v-0.2c1.1-1.7,3.8-3.3,6.8-3.3C116.4,94.4,119,96.2,119,100.2z"/>
			<path class="st2" d="M132.9,110c0,2.3,0.8,3.5,2.8,3.5c1.1,0,1.9-0.3,2.8-1.3v0.2c-0.9,1.8-3,3.3-6.4,3.3c-3.7,0-6.1-1.7-6.1-5.8
				V98.5c0-1.5-0.7-2.2-3-2.2V96c3.8,0,6.9-0.4,9.8-1.6V110z M146.6,112.6c0,1.2,0.4,1.7,1.1,1.7c0.6,0,1.3-0.6,2-1.8h0.2
				c-0.7,2.3-2.9,3.3-5.6,3.3c-2.9,0-4.5-1.6-4.5-4V98.5c0-1.5-0.7-2.2-2.9-2.2V96c3.7,0,6.2-0.4,9.7-1.6V112.6z"/>
			<path class="st2" d="M159.5,110.5c-1.4,0-2.3,0.8-2.3,2.1c0,1.2,0.8,2.7,3.7,3v0.2c-5.5-0.2-8.5-1.7-8.5-4.1c0-1.9,1.6-3,3.5-3
				C157.5,108.7,158.8,109.5,159.5,110.5z M160.8,94.7c-1.5,0.3-3,1.1-3,2.8c0.1,4.8,13.4,5.5,13.4,12.1c0,4-3.4,6.1-8.7,6.3v-0.2
				c1.7-0.3,3.7-0.9,3.7-3c0-4.3-13.5-5.8-13.5-12.1c0-3.6,3.4-5.8,8-6V94.7z M170.5,98.7c0,1.3-1,2.5-3,2.5c-1.7,0-3-0.7-3.5-2
				c1.2-0.1,1.9-0.9,1.8-1.9c0-1.2-1.6-2.4-3.2-2.6v-0.2C167.3,94.7,170.5,96.4,170.5,98.7z"/>
			<path class="st2" d="M174.1,96c3.8,0,6.9-0.4,9.8-1.6V113c0,1,0.6,2.1,3.1,2.1v0.2H174v-0.2c2.5,0,3.1-1.1,3.1-2.1V98.4
				c0-1.5-0.7-2.2-3-2.2V96z M176.2,88.3c0-2.1,1.7-3.6,4.2-3.6s4.2,1.4,4.2,3.6c0,2.2-1.7,3.6-4.2,3.6S176.2,90.4,176.2,88.3z"/>
			<path class="st2" d="M189,110.5c0-3.6,3.3-5.6,7.9-5.6h4.4v0.2h-1.2c-3,0-4.4,1.9-4.4,4.5c0,2.3,0.7,4,2.6,4c1.1,0,2.1-0.6,3-1.4
				v0.2c-1.4,1.6-3.5,3.3-6.5,3.3C191.3,115.8,189,113.8,189,110.5z M190.7,98.9c0-2.1,1.9-4.2,7.5-4.5v0.2c-1.6,0.2-2.6,1.6-2.6,3
				c0,1.5,1,2.4,2.7,2.5c-0.6,1.1-2.3,2-3.9,2C192,102.1,190.7,100.6,190.7,98.9z M202.6,111.1V98.6c0-2-0.8-3.6-2.8-3.9v-0.2
				c6.8,0.2,9.5,2.8,9.5,8.2v10c0,1.2,0.4,1.7,1.2,1.7c0.6,0,1.3-0.6,2-1.8h0.2c-0.7,2.3-2.9,3.3-5.3,3.3
				C204.1,115.8,202.6,114.6,202.6,111.1z"/>
			<path class="st2" d="M221.8,110.5c-1.4,0-2.3,0.8-2.3,2.1c0,1.2,0.8,2.7,3.7,3v0.2c-5.5-0.2-8.5-1.7-8.5-4.1c0-1.9,1.6-3,3.5-3
				C219.9,108.7,221.2,109.5,221.8,110.5z M223.2,94.7c-1.5,0.3-3,1.1-3,2.8c0.1,4.8,13.4,5.5,13.4,12.1c0,4-3.4,6.1-8.7,6.3v-0.2
				c1.7-0.3,3.7-0.9,3.7-3c0-4.3-13.5-5.8-13.5-12.1c0-3.6,3.4-5.8,8-6V94.7z M232.9,98.7c0,1.3-1,2.5-3,2.5c-1.7,0-3-0.7-3.5-2
				c1.2-0.1,1.9-0.9,1.8-1.9c0-1.2-1.6-2.4-3.2-2.6v-0.2C229.6,94.7,232.9,96.4,232.9,98.7z"/>
			<path class="st2" d="M252.3,112.2v0.2c-1.3,1.9-3.9,3.3-7,3.3c-3.7,0-6.3-1.7-6.3-5.8V96.5h-2.1l0.5-0.6h1.7v-4.4
				c2.5,0,5-0.8,6.7-2.3v6.7h5.5l-0.5,0.6h-5.1v13.6c0,2.1,0.8,4.2,2.7,4.2C249.5,114.3,250.9,113.6,252.3,112.2z"/>
		</g>
		<g class="st1">
			<path class="st2" d="M36.9,138.8v0.3c-0.9-1-2.2-1.5-3.4-1.5c-2.1,0-4,0.9-4,8.4c0,7.4,2.1,8.7,4,8.7c1.3,0,2.4-0.7,3.4-1.4v0.2
				c-1,1.7-3.7,3.3-6,3.3c-3.9,0-8.4-2.3-8.4-10.9c0-8.2,4.4-10.5,8.4-10.5C33.3,135.5,35.9,137,36.9,138.8z M44.9,162.7
				c0,1.5,0.7,2.2,3,2.2v0.2c-3.8,0-6.4,0.4-9.8,1.6V137c2.1-0.2,4.9-0.8,6.8-1.6V162.7z"/>
			<path class="st2" d="M58.7,151.1c0,2.3,0.8,3.5,2.8,3.5c1.1,0,1.9-0.3,2.8-1.3v0.2c-0.9,1.8-3,3.3-6.4,3.3
				c-3.7,0-6.1-1.7-6.1-5.8v-11.5c0-1.5-0.7-2.2-3-2.2v-0.2c3.8,0,6.9-0.4,9.8-1.6V151.1z M72.4,153.7c0,1.2,0.4,1.7,1.1,1.7
				c0.6,0,1.3-0.6,2-1.8h0.2c-0.7,2.3-2.9,3.3-5.6,3.3c-2.9,0-4.5-1.6-4.5-4v-13.3c0-1.5-0.7-2.2-2.9-2.2v-0.2
				c3.7,0,6.2-0.4,9.7-1.6V153.7z"/>
			<path class="st2" d="M88.3,135.7c-2.4,0.3-3.2,2.3-3.2,10.3c0,7.7,0.8,10.3,3.2,10.5v0.2c-4.7,0-10.2-3.9-10.2-10.8
				s5.4-10.6,10.2-10.6V135.7z M100.1,146.1c0,6.9-5.5,10.8-10.2,10.8v-0.2c2.4-0.2,3.2-2.8,3.2-10.5c0-8-0.8-10.1-3.2-10.3v-0.2
				C94.7,135.5,100.1,139.1,100.1,146.1z"/>
		</g>
		<g class="st1">
			<path class="st2" d="M118.8,153.3v0.2c-1.3,1.9-3.9,3.3-7,3.3c-3.7,0-6.3-1.7-6.3-5.8v-13.5h-2.1l0.5-0.6h1.7v-4.4
				c2.5,0,5-0.8,6.7-2.3v6.7h5.5l-0.5,0.6h-5.1v13.6c0,2.1,0.8,4.2,2.7,4.2C116,155.4,117.4,154.6,118.8,153.3z"/>
		</g>
		<g class="st1">
			<path class="st2" d="M120.3,146.1c0-6.9,5.3-10.6,10.1-10.6v0.2c-2.4,0.3-3.1,2.3-3.1,10.2c0,5.9,2.6,9.2,6.3,9.2
				c2.3,0,4.1-0.7,6-2.2v0.2c-2.1,2.7-6,3.7-8.7,3.7C125.6,156.8,120.3,153,120.3,146.1z M129.5,144.4c3.6,0,5.1-1.1,5.1-4.6
				c0-2-0.8-3.8-2.7-4v-0.2c5.4,0,8,3.9,8,7c0,0.7-0.1,1.5-0.2,2.1h-10.3V144.4z"/>
		</g>
	</g>
</g>
</svg>
