<svg id="Layer_1" data-name="Layer 1" xmlns="http://www.w3.org/2000/svg" viewBox="0 0 970 250"><defs><style>.cls-1{fill:none;}.cls-2{fill:#263845;}</style></defs><title>Artboard 1 copy 6</title><rect class="cls-1" width="970" height="250"/><path class="cls-2" d="M45.36,67.44l.36.54.36,18.89c0,1.94,1.44,3.79,4.41,3.79v.26h-9.9v-.26c3,0,4.36-1.9,4.41-3.79ZM69.21,90.92h-5l-18.81-28c-1.17-1.75-2.47-2.29-4.77-2.29v-.27h12L69.21,85.12Zm-.09-10.34-.36-.5-.54-15.7c0-1.94-1.44-3.78-4.41-3.78v-.27h9.9v.27c-3,0-4.41,1.89-4.41,3.78Z"/><path class="cls-2" d="M93.82,60.33h8.6L84.55,90.92H76Zm-16.51,0H90.9l-.14.27c-6.66.36-12,4.95-13.09,10.57h-.36Zm10.3,30.33a15.4,15.4,0,0,0,14-12H102V90.92H87.48Z"/><path class="cls-2" d="M115,61.77c0,2.61-2.79,6.07-7.29,7.92l-.13-.41a6.27,6.27,0,0,0,2.56-4.36,2.82,2.82,0,0,0-3.06-3c.36-2.66,1.94-4.1,4.28-4.1A3.62,3.62,0,0,1,115,61.77Z"/><path class="cls-2" d="M124.2,85.57a2.3,2.3,0,0,0-2.52,2.25c0,1.3.9,3,4,3.28v.27c-6-.22-9.27-1.84-9.27-4.45,0-2.07,1.8-3.33,3.83-3.33A4.6,4.6,0,0,1,124.2,85.57Zm1.48-17.32c-1.66.31-3.28,1.17-3.24,3,.14,5.22,14.72,6.07,14.72,13.23,0,4.36-3.69,6.66-9.5,6.88V91.1c1.89-.31,4-1,4-3.32,0-4.69-14.76-6.4-14.76-13.23,0-4,3.73-6.35,8.77-6.57Zm10.62,4.36c0,1.4-1.08,2.79-3.33,2.79a3.85,3.85,0,0,1-3.82-2.16,2,2,0,0,0,2-2.11c0-1.35-1.71-2.66-3.51-2.88V68C132.75,68.25,136.3,70.09,136.3,72.61Z"/><path class="cls-2" d="M151.33,59.61a27.48,27.48,0,0,0,10.76-1.76V88.36c0,1.13.67,2.3,3.37,2.3v.26H151.29v-.26c2.7,0,3.37-1.17,3.37-2.3V62.26c0-1.62-.76-2.38-3.33-2.38Z"/><path class="cls-2" d="M168.16,79.58a11.13,11.13,0,0,1,11-11.6v.27c-2.66.31-3.38,2.56-3.38,11.16,0,6.47,2.88,10,6.89,10a9.79,9.79,0,0,0,6.57-2.39v.28c-2.34,3-6.62,4-9.54,4A11.41,11.41,0,0,1,168.16,79.58Zm10.13-1.88c4,0,5.62-1.26,5.62-5,0-2.16-.9-4.14-2.92-4.41V68c5.94,0,8.82,4.23,8.82,7.64a12.91,12.91,0,0,1-.23,2.35H178.29Z"/><path class="cls-2" d="M193.05,85.62c0-3.92,3.6-6.13,8.64-6.13h4.86v.28H205.2c-3.24,0-4.77,2.11-4.77,4.9,0,2.47.72,4.37,2.83,4.37a5,5,0,0,0,3.29-1.58v.27a9.58,9.58,0,0,1-7.16,3.64C195.57,91.37,193,89.21,193.05,85.62Zm1.8-12.74c0-2.29,2.07-4.63,8.19-4.9v.27a3.28,3.28,0,0,0-2.88,3.28c0,1.62,1.12,2.61,2.92,2.75a5,5,0,0,1-4.32,2.16A3.61,3.61,0,0,1,194.85,72.88ZM207.9,86.29V72.52c0-2.2-.86-4-3.06-4.27V68c7.47.27,10.44,3.1,10.44,9V87.91c0,1.3.45,1.84,1.26,1.84s1.44-.67,2.16-2H219c-.72,2.47-3.15,3.64-5.85,3.64C209.52,91.37,207.9,90.12,207.9,86.29Z"/><path class="cls-2" d="M237.15,71.58v.36a5,5,0,0,0-3.74-1.67c-2.25,0-4.41,1-4.41,9.18S231.3,89,233.41,89a6.25,6.25,0,0,0,3.74-1.58v.27a8.35,8.35,0,0,1-6.53,3.64c-4.27,0-9.27-2.52-9.27-11.92,0-9,4.91-11.47,9.27-11.47A8.32,8.32,0,0,1,237.15,71.58Zm8.77,16.33c0,1.3.41,1.84,1.22,1.84s1.44-.67,2.16-2h.27c-.72,2.47-3.15,3.64-5.85,3.64-3.6,0-5.22-1.25-5.22-5.08v-24c0-1.62-.77-2.38-3.33-2.38v-.27a29.39,29.39,0,0,0,10.75-1.76Z"/><path class="cls-2" d="M251.46,69.69a27.42,27.42,0,0,0,10.75-1.76V88.36c0,1.13.68,2.3,3.38,2.3v.26H251.41v-.26c2.7,0,3.38-1.17,3.38-2.3v-16c0-1.62-.77-2.38-3.33-2.38Zm2.29-8.46c0-2.34,1.89-3.92,4.59-3.92s4.59,1.58,4.59,3.92-1.89,4-4.59,4S253.75,63.61,253.75,61.23Z"/><path class="cls-2" d="M267.48,90.66c2.7,0,3.37-1.17,3.37-2.3v-16c0-1.62-.76-2.39-3.33-2.39v-.27A27.66,27.66,0,0,0,278.28,68V88.36c0,1.13.67,2.3,3.37,2.3v.26H267.48Zm15.84,0c2.65,0,3.33-1.17,3.33-2.3v-14c0-2.52-1.31-3.82-3.56-3.82a4.79,4.79,0,0,0-3.42,1.39v-.27A9.19,9.19,0,0,1,287.14,68c4.05,0,6.93,1.89,6.93,6.34v14c0,1.13.68,2.3,3.38,2.3v.26H283.32Z"/><path class="cls-2" d="M300.1,76.12c0-5.85,5.49-8.05,10.08-8.14v.27c-1.93.18-2.83,2.52-2.83,7.74,0,5.44.9,7.64,2.83,7.83v.26C305.64,84.08,300.1,81.92,300.1,76.12Zm12,25.78c4.5-.54,5.94-3,5.94-4.59,0-6.25-17.55-.67-17.55-8.73,0-1.84,1-3.28,3-4.59l.13.23a1,1,0,0,0-.4.86c0,5,20.52-.82,20.52,9,0,4.64-4,7.65-11.66,8.1Zm-11.61-3.78c0-2.65,3.29-3.46,6.84-3.46a3.77,3.77,0,0,0-1.93,3.19c0,2.07,2.34,3.65,4.9,4.05v.27C305.46,102.08,300.46,101.09,300.46,98.12Zm11.61-14.3c2.21-.19,3.11-2.39,3.11-7.83,0-5.22-.95-7.56-3.11-7.74V68c4.77.09,10.31,2.29,10.31,8.14s-5.54,8-10.31,8Zm2.43-16.65c.77-2.3,2.84-5.4,5.94-5.4,2.39,0,3.82,1.26,3.82,3.42a3.59,3.59,0,0,1-3.64,3.51c0-1.89-1-3-2.43-3a4.86,4.86,0,0,0-3.46,1.62Z"/><path class="cls-2" d="M40.63,115.69a27.48,27.48,0,0,0,10.76-1.76v20.43c0,1.13.67,2.3,3.37,2.3v.26H40.59v-.26c2.7,0,3.37-1.17,3.37-2.3v-16c0-1.62-.76-2.38-3.33-2.38Zm2.3-8.46c0-2.34,1.89-3.92,4.59-3.92s4.59,1.58,4.59,3.92-1.89,4-4.59,4S42.93,109.61,42.93,107.23Z"/><path class="cls-2" d="M56.65,136.66c2.7,0,3.38-1.17,3.38-2.3v-16c0-1.62-.77-2.39-3.33-2.39v-.27A27.61,27.61,0,0,0,67.45,114v20.38c0,1.13.68,2.3,3.38,2.3v.26H56.65Zm15.84,0c2.66,0,3.33-1.17,3.33-2.3v-14c0-2.52-1.3-3.82-3.55-3.82a4.79,4.79,0,0,0-3.42,1.39v-.27A9.18,9.18,0,0,1,76.32,114c4.05,0,6.93,1.89,6.93,6.34v14c0,1.13.67,2.3,3.37,2.3v.26H72.49Z"/><path class="cls-2" d="M96.88,131.57a2.31,2.31,0,0,0-2.52,2.25c0,1.3.9,3,4,3.28v.27c-6-.22-9.27-1.84-9.27-4.45,0-2.07,1.8-3.33,3.82-3.33A4.59,4.59,0,0,1,96.88,131.57Zm1.49-17.32c-1.67.31-3.29,1.17-3.24,3,.13,5.22,14.71,6.07,14.71,13.23,0,4.36-3.69,6.66-9.49,6.88v-.27c1.89-.31,4-1,4-3.32,0-4.69-14.76-6.4-14.76-13.23,0-4,3.74-6.35,8.78-6.57ZM109,118.61c0,1.4-1.08,2.79-3.33,2.79a3.87,3.87,0,0,1-3.83-2.16,2,2,0,0,0,2-2.11c0-1.35-1.71-2.66-3.51-2.88V114C105.43,114.25,109,116.09,109,118.61Z"/><path class="cls-2" d="M123.12,131c0,2.52.85,3.82,3.1,3.82a4,4,0,0,0,3.11-1.39v.27c-1,1.93-3.33,3.64-7,3.64-4,0-6.66-1.88-6.66-6.34V118.39c0-1.62-.76-2.39-3.33-2.39v-.27A27.66,27.66,0,0,0,123.12,114Zm15,2.88c0,1.3.41,1.84,1.22,1.84s1.44-.67,2.16-2h.27c-.72,2.47-3.15,3.64-6.12,3.64-3.15,0-4.95-1.79-4.95-4.41V118.39c0-1.62-.77-2.39-3.2-2.39v-.27A29.36,29.36,0,0,0,138.1,114Z"/><path class="cls-2" d="M154.35,134.36c0,1.13.67,2.3,3.37,2.3v.26H143.55v-.26c2.7,0,3.37-1.17,3.37-2.3v-16c0-1.62-.76-2.39-3.33-2.39v-.27A27.66,27.66,0,0,0,154.35,114Zm12.15-15.52a4.82,4.82,0,0,1-4.64,5.13,3,3,0,0,1-2.56-1,3.3,3.3,0,0,0,1.75-3.07,2.38,2.38,0,0,0-2.52-2.42,3.09,3.09,0,0,0-2.7,1.71v-.36c.86-2.88,3.06-4.86,5.85-4.86A4.57,4.57,0,0,1,166.5,118.84Z"/><path class="cls-2" d="M168.43,131.62c0-3.92,3.6-6.13,8.64-6.13h4.86v.28h-1.35c-3.24,0-4.77,2.11-4.77,4.9,0,2.47.72,4.37,2.84,4.37a4.93,4.93,0,0,0,3.28-1.58v.27a9.56,9.56,0,0,1-7.15,3.64C171,137.37,168.39,135.21,168.43,131.62Zm1.8-12.74c0-2.29,2.07-4.63,8.19-4.9v.27a3.28,3.28,0,0,0-2.88,3.28c0,1.62,1.13,2.61,2.93,2.75a5.06,5.06,0,0,1-4.32,2.16A3.61,3.61,0,0,1,170.23,118.88Zm13.05,13.41V118.52c0-2.2-.85-4-3.06-4.27V114c7.47.27,10.44,3.1,10.44,9v10.93c0,1.3.45,1.84,1.26,1.84s1.44-.67,2.16-2h.27c-.72,2.47-3.15,3.64-5.85,3.64C184.9,137.37,183.28,136.12,183.28,132.29Z"/><path class="cls-2" d="M195.75,136.66c2.7,0,3.37-1.17,3.37-2.3v-16c0-1.62-.76-2.39-3.33-2.39v-.27A27.66,27.66,0,0,0,206.55,114v20.38c0,1.13.67,2.3,3.37,2.3v.26H195.75Zm15.84,0c2.65,0,3.33-1.17,3.33-2.3v-14c0-2.52-1.31-3.82-3.56-3.82a4.79,4.79,0,0,0-3.42,1.39v-.27a9.19,9.19,0,0,1,7.47-3.64c4.05,0,6.93,1.89,6.93,6.34v14c0,1.13.68,2.3,3.38,2.3v.26H211.59Z"/><path class="cls-2" d="M239.67,114.25c-2.66.31-3.83,2.56-3.83,11.16,0,6.47,3.29,10,7.29,10a9.76,9.76,0,0,0,6.57-2.39v.28c-2.34,3-6.61,4-9.54,4-5.76,0-12-4.23-12-11.79A11.52,11.52,0,0,1,239.67,114Zm10,4.81a4.18,4.18,0,0,1-4.5,4.32,3.83,3.83,0,0,1-3.92-2.83,3.9,3.9,0,0,0,2.16-3.29c0-1-.27-2.65-1.93-3V114C247.36,114,249.66,116.5,249.66,119.06Z"/><path class="cls-2" d="M253,125.58a11.13,11.13,0,0,1,11-11.6v.27c-2.66.31-3.38,2.56-3.38,11.16,0,6.47,2.88,10,6.89,10a9.79,9.79,0,0,0,6.57-2.39v.28c-2.34,3-6.62,4-9.54,4A11.41,11.41,0,0,1,253,125.58Zm10.13-1.88c4,0,5.62-1.26,5.62-5,0-2.16-.9-4.14-2.92-4.41V114c5.94,0,8.82,4.23,8.82,7.64a12.91,12.91,0,0,1-.23,2.35H263.16Z"/><path class="cls-2" d="M49.18,177.57a2.31,2.31,0,0,0-2.52,2.25c0,1.3.9,3,4,3.28v.27c-6-.22-9.27-1.84-9.27-4.45,0-2.07,1.8-3.33,3.82-3.33A4.59,4.59,0,0,1,49.18,177.57Zm1.49-17.32c-1.67.31-3.29,1.17-3.24,3,.13,5.22,14.71,6.07,14.71,13.23,0,4.36-3.69,6.66-9.49,6.88v-.27c1.89-.31,4-1,4-3.32,0-4.69-14.76-6.4-14.76-13.23,0-4,3.74-6.35,8.78-6.57Zm10.62,4.36c0,1.4-1.08,2.79-3.33,2.79a3.87,3.87,0,0,1-3.83-2.16,2,2,0,0,0,2-2.11c0-1.35-1.71-2.66-3.51-2.88V160C57.73,160.25,61.29,162.09,61.29,164.61Z"/><path class="cls-2" d="M75.51,189.76c0,1.62.76,2.39,3.33,2.39v.27a29.61,29.61,0,0,0-10.76,1.75V164.34c0-1.62-.76-2.38-3.33-2.38v-.27a29.41,29.41,0,0,0,10.76-1.76Zm17.14-18.31c0,9.4-5,11.92-9.22,11.92a8.41,8.41,0,0,1-6.57-3.64v-.27A6.33,6.33,0,0,0,80.64,181c2.11,0,4.36-1.49,4.36-9.59s-2.11-9.18-4.36-9.18a5,5,0,0,0-3.78,1.67v-.36a8.38,8.38,0,0,1,6.57-3.6C87.79,160,92.65,162.5,92.65,171.45Z"/><path class="cls-2" d="M96.61,171.58a11.13,11.13,0,0,1,11-11.6v.27c-2.66.31-3.38,2.56-3.38,11.16,0,6.47,2.88,10,6.89,10a9.79,9.79,0,0,0,6.57-2.39v.28c-2.34,3-6.62,4-9.54,4A11.41,11.41,0,0,1,96.61,171.58Zm10.13-1.88c4,0,5.62-1.26,5.62-5,0-2.16-.9-4.14-2.92-4.41V160c5.94,0,8.82,4.23,8.82,7.64A12.91,12.91,0,0,1,118,170H106.74Z"/><path class="cls-2" d="M133.47,160.25c-2.66.31-3.83,2.56-3.83,11.16,0,6.47,3.29,10,7.29,10a9.76,9.76,0,0,0,6.57-2.39v.28c-2.34,3-6.61,4-9.54,4-5.76,0-12-4.23-12-11.79A11.52,11.52,0,0,1,133.47,160Zm10,4.81a4.18,4.18,0,0,1-4.5,4.32,3.83,3.83,0,0,1-3.92-2.83,3.9,3.9,0,0,0,2.16-3.29c0-1-.27-2.65-1.93-3V160C141.16,160,143.46,162.5,143.46,165.06Z"/><path class="cls-2" d="M146.11,161.69a27.48,27.48,0,0,0,10.76-1.76v20.43c0,1.13.67,2.3,3.37,2.3v.26H146.07v-.26c2.7,0,3.37-1.17,3.37-2.3v-16c0-1.62-.76-2.38-3.33-2.38Zm2.3-8.46c0-2.34,1.89-3.92,4.59-3.92s4.59,1.58,4.59,3.92-1.89,4-4.59,4S148.41,155.61,148.41,153.23Z"/><path class="cls-2" d="M162.49,177.62c0-3.92,3.6-6.13,8.64-6.13H176v.28h-1.35c-3.24,0-4.77,2.11-4.77,4.9,0,2.47.72,4.37,2.84,4.37a4.93,4.93,0,0,0,3.28-1.58v.27a9.56,9.56,0,0,1-7.15,3.64C165,183.37,162.45,181.21,162.49,177.62Zm1.8-12.74c0-2.29,2.07-4.63,8.19-4.9v.27a3.28,3.28,0,0,0-2.88,3.28c0,1.62,1.13,2.61,2.93,2.75a5.06,5.06,0,0,1-4.32,2.16A3.61,3.61,0,0,1,164.29,164.88Zm13.05,13.41V164.52c0-2.2-.85-4-3.06-4.27V160c7.47.27,10.44,3.1,10.44,9v10.93c0,1.3.45,1.84,1.26,1.84s1.44-.67,2.16-2h.27c-.72,2.47-3.15,3.64-5.85,3.64C179,183.37,177.34,182.12,177.34,178.29Z"/><path class="cls-2" d="M189.58,151.61a27.48,27.48,0,0,0,10.76-1.76v30.51c0,1.13.67,2.3,3.37,2.3v.26H189.54v-.26c2.7,0,3.37-1.17,3.37-2.3v-26.1c0-1.62-.76-2.38-3.33-2.38Z"/><path class="cls-2" d="M205.69,161.69a27.48,27.48,0,0,0,10.76-1.76v20.43c0,1.13.67,2.3,3.37,2.3v.26H205.65v-.26c2.7,0,3.37-1.17,3.37-2.3v-16c0-1.62-.76-2.38-3.33-2.38Zm2.3-8.46c0-2.34,1.89-3.92,4.59-3.92s4.59,1.58,4.59,3.92-1.89,4-4.59,4S208,155.61,208,153.23Z"/><path class="cls-2" d="M230.35,177.57a2.31,2.31,0,0,0-2.52,2.25c0,1.3.9,3,4,3.28v.27c-6-.22-9.27-1.84-9.27-4.45,0-2.07,1.8-3.33,3.82-3.33A4.59,4.59,0,0,1,230.35,177.57Zm1.49-17.32c-1.67.31-3.29,1.17-3.24,3,.13,5.22,14.71,6.07,14.71,13.23,0,4.36-3.69,6.66-9.49,6.88v-.27c1.89-.31,4-1,4-3.32,0-4.69-14.76-6.4-14.76-13.23,0-4,3.74-6.35,8.78-6.57Zm10.62,4.36c0,1.4-1.08,2.79-3.33,2.79a3.87,3.87,0,0,1-3.83-2.16,2,2,0,0,0,2-2.11c0-1.35-1.71-2.66-3.51-2.88V160C238.9,160.25,242.46,162.09,242.46,164.61Z"/><path class="cls-2" d="M263.74,179.46v.27a9.41,9.41,0,0,1-7.69,3.64c-4.05,0-6.93-1.84-6.93-6.34V162.27h-2.34l.49-.67h1.85v-4.86a11.37,11.37,0,0,0,7.37-2.52v7.38h6.08l-.5.67h-5.58v14.89c0,2.25.86,4.59,3,4.59A6.63,6.63,0,0,0,263.74,179.46Z"/></svg>