<svg id="Layer_1" data-name="Layer 1" xmlns="http://www.w3.org/2000/svg" viewBox="0 0 970 250"><defs><style>.cls-1{fill:#fff;}.cls-2{fill:none;}</style></defs><title>Artboard 1 copy</title><path class="cls-1" d="M73.43,81.57l.18.36c-2.34,3.73-6.48,5.44-10.84,5.44-7.34,0-16.47-5.21-16.47-15.7,0-11.38,8.91-15.61,15.39-15.79v.27c-3.15.67-6.57,3.64-6.57,15.21s4.63,14.22,9.72,14.22A11,11,0,0,0,73.43,81.57Zm.36-25.69V66.81h-.36c-1.75-6-5.08-9.45-9.49-10.66v-.27c3.91.18,6.3.85,8.14,2.07l1.35-2.07Z"/><path class="cls-1" d="M87.38,84.36c0,1.13.68,2.3,3.38,2.3v.26H76.58v-.26c2.7,0,3.38-1.17,3.38-2.3V58.26c0-1.62-.77-2.38-3.33-2.38v-.27a27.42,27.42,0,0,0,10.75-1.76Zm15.75-14v14c0,1.13.68,2.3,3.38,2.3v.26H92.38v-.26c2.65,0,3.33-1.17,3.33-2.3v-14c0-2.52-1.31-3.82-3.56-3.82a4.79,4.79,0,0,0-3.42,1.39v-.27A9.19,9.19,0,0,1,96.2,64C100.25,64,103.13,65.87,103.13,70.32Z"/><path class="cls-1" d="M108.49,81.62c0-3.92,3.6-6.12,8.64-6.12H122v.27h-1.35c-3.24,0-4.77,2.11-4.77,4.9,0,2.47.72,4.37,2.83,4.37A5,5,0,0,0,122,83.46v.27a9.58,9.58,0,0,1-7.16,3.64C111,87.37,108.44,85.21,108.49,81.62Zm1.8-12.74c0-2.29,2.07-4.63,8.19-4.9v.27a3.28,3.28,0,0,0-2.88,3.28c0,1.62,1.12,2.61,2.92,2.75a5,5,0,0,1-4.32,2.16A3.61,3.61,0,0,1,110.29,68.88Zm13,13.41V68.52c0-2.2-.86-4-3.06-4.27V64c7.47.27,10.44,3.1,10.44,9V83.91c0,1.3.45,1.84,1.26,1.84s1.44-.67,2.16-2h.27c-.72,2.48-3.15,3.64-5.85,3.64C125,87.37,123.34,86.12,123.34,82.29Z"/><path class="cls-1" d="M135.8,86.66c2.7,0,3.38-1.17,3.38-2.3v-16c0-1.62-.77-2.39-3.33-2.39v-.27A27.61,27.61,0,0,0,146.6,64V84.36c0,1.13.68,2.3,3.38,2.3v.26H135.8Zm15.84,0c2.66,0,3.33-1.17,3.33-2.3v-14c0-2.52-1.3-3.82-3.55-3.82A4.79,4.79,0,0,0,148,67.89v-.27A9.18,9.18,0,0,1,155.47,64c4.05,0,6.93,1.89,6.93,6.34v14c0,1.13.67,2.3,3.37,2.3v.26H151.64Z"/><path class="cls-1" d="M168.43,72.12c0-5.85,5.49-8.05,10.08-8.14v.27c-1.94.18-2.84,2.52-2.84,7.74,0,5.44.9,7.64,2.84,7.83v.26C174,80.08,168.43,77.92,168.43,72.12Zm12,25.78c4.5-.54,5.94-3,5.94-4.59,0-6.25-17.55-.67-17.55-8.73,0-1.84.94-3.28,3-4.58l.14.22a1.05,1.05,0,0,0-.41.86c0,5,20.52-.82,20.52,9,0,4.64-4,7.65-11.65,8.1Zm-11.61-3.78c0-2.65,3.28-3.46,6.84-3.46a3.78,3.78,0,0,0-1.94,3.19c0,2.07,2.34,3.65,4.91,4.05v.27C173.78,98.08,168.79,97.09,168.79,94.12Zm11.61-14.3c2.2-.19,3.1-2.39,3.1-7.83,0-5.22-.94-7.56-3.1-7.74V64c4.77.09,10.3,2.29,10.3,8.14s-5.53,8-10.3,8Zm2.43-16.65c.76-2.3,2.83-5.4,5.94-5.4,2.38,0,3.82,1.26,3.82,3.42A3.59,3.59,0,0,1,189,64.7c0-1.89-1-3-2.43-3a4.89,4.89,0,0,0-3.47,1.62Z"/><path class="cls-1" d="M193.9,65.69a27.42,27.42,0,0,0,10.75-1.76V84.36c0,1.13.68,2.3,3.38,2.3v.26H193.85v-.26c2.7,0,3.38-1.17,3.38-2.3v-16c0-1.62-.77-2.38-3.33-2.38Zm2.29-8.46c0-2.34,1.89-3.92,4.59-3.92s4.59,1.58,4.59,3.92-1.89,4-4.59,4S196.19,59.61,196.19,57.23Z"/><path class="cls-1" d="M209.92,86.66c2.7,0,3.37-1.17,3.37-2.3v-16c0-1.62-.76-2.39-3.33-2.39v-.27A27.66,27.66,0,0,0,220.72,64V84.36c0,1.13.67,2.3,3.37,2.3v.26H209.92Zm15.84,0c2.65,0,3.33-1.17,3.33-2.3v-14c0-2.52-1.31-3.82-3.56-3.82a4.79,4.79,0,0,0-3.42,1.39v-.27A9.19,9.19,0,0,1,229.58,64c4,0,6.93,1.89,6.93,6.34v14c0,1.13.68,2.3,3.38,2.3v.26H225.76Z"/><path class="cls-1" d="M242.54,72.12c0-5.85,5.49-8.05,10.08-8.14v.27c-1.93.18-2.83,2.52-2.83,7.74,0,5.44.9,7.64,2.83,7.83v.26C248.08,80.08,242.54,77.92,242.54,72.12Zm12,25.78c4.5-.54,5.94-3,5.94-4.59,0-6.25-17.55-.67-17.55-8.73,0-1.84.95-3.28,3-4.58l.13.22a1,1,0,0,0-.4.86c0,5,20.52-.82,20.52,9,0,4.64-4,7.65-11.66,8.1ZM242.9,94.12c0-2.65,3.29-3.46,6.84-3.46a3.77,3.77,0,0,0-1.93,3.19c0,2.07,2.34,3.65,4.9,4.05v.27C247.9,98.08,242.9,97.09,242.9,94.12Zm11.61-14.3c2.21-.19,3.11-2.39,3.11-7.83,0-5.22-.95-7.56-3.11-7.74V64c4.77.09,10.31,2.29,10.31,8.14s-5.54,8-10.31,8Zm2.43-16.65c.77-2.3,2.84-5.4,5.94-5.4,2.39,0,3.83,1.26,3.83,3.42a3.6,3.6,0,0,1-3.65,3.51c0-1.89-1-3-2.43-3a4.86,4.86,0,0,0-3.46,1.62Z"/><path class="cls-1" d="M46.26,116.27a2.44,2.44,0,0,0-2.48-1.57v-.27h12.6v.27c-1.58,0-2.21,1.08-1.44,2.65l5.89,12.28L57,136.92h-.27Zm16.46,9A12.3,12.3,0,0,0,64,119.42c0-2.47-1.39-4.72-4.59-4.72v-.27H70.6v.27c-1.49,0-2.07.58-2.93,2.11L63,125.63Z"/><path class="cls-1" d="M71,125.58A11.13,11.13,0,0,1,82,114v.27c-2.65.31-3.37,2.56-3.37,11.16,0,6.47,2.88,10,6.88,10a9.76,9.76,0,0,0,6.57-2.39v.28c-2.34,3-6.61,4-9.54,4A11.4,11.4,0,0,1,71,125.58Zm10.12-1.88c4,0,5.63-1.26,5.63-5,0-2.16-.9-4.14-2.93-4.41V114c5.94,0,8.82,4.23,8.82,7.64a13.87,13.87,0,0,1-.22,2.35H81.08Z"/><path class="cls-1" d="M106,134.36c0,1.13.68,2.3,3.38,2.3v.26H95.21v-.26c2.7,0,3.38-1.17,3.38-2.3v-26.1c0-1.62-.77-2.38-3.33-2.38v-.27A27.42,27.42,0,0,0,106,103.85Zm15.75-14v14c0,1.13.68,2.3,3.38,2.3v.26H111v-.26c2.65,0,3.33-1.17,3.33-2.3v-14c0-2.52-1.31-3.82-3.56-3.82a4.79,4.79,0,0,0-3.42,1.39v-.27a9.19,9.19,0,0,1,7.47-3.64C118.88,114,121.76,115.87,121.76,120.32Z"/><path class="cls-1" d="M126.85,115.69a27.42,27.42,0,0,0,10.75-1.76v20.43c0,1.13.68,2.3,3.38,2.3v.26H126.8v-.26c2.7,0,3.38-1.17,3.38-2.3v-16c0-1.62-.77-2.38-3.33-2.38Zm2.29-8.46c0-2.34,1.89-3.92,4.59-3.92s4.59,1.58,4.59,3.92-1.89,4-4.59,4S129.14,109.61,129.14,107.23Z"/><path class="cls-1" d="M155.2,114.25c-2.66.31-3.83,2.56-3.83,11.16,0,6.47,3.29,10,7.29,10a9.76,9.76,0,0,0,6.57-2.39v.28c-2.34,3-6.61,4-9.54,4-5.76,0-12-4.23-12-11.79A11.52,11.52,0,0,1,155.2,114Zm10,4.81a4.18,4.18,0,0,1-4.5,4.32,3.83,3.83,0,0,1-3.92-2.83,3.9,3.9,0,0,0,2.16-3.29c0-1-.27-2.65-1.93-3V114C162.89,114,165.19,116.5,165.19,119.06Z"/><path class="cls-1" d="M167.53,105.61a27.42,27.42,0,0,0,10.75-1.76v30.51c0,1.13.68,2.3,3.38,2.3v.26H167.48v-.26c2.7,0,3.38-1.17,3.38-2.3v-26.1c0-1.62-.77-2.38-3.33-2.38Z"/><path class="cls-1" d="M184.36,125.58a11.13,11.13,0,0,1,11-11.6v.27c-2.65.31-3.37,2.56-3.37,11.16,0,6.47,2.88,10,6.88,10a9.76,9.76,0,0,0,6.57-2.39v.28c-2.34,3-6.61,4-9.54,4A11.4,11.4,0,0,1,184.36,125.58Zm10.12-1.88c4,0,5.63-1.26,5.63-5,0-2.16-.9-4.14-2.93-4.41V114c5.94,0,8.82,4.23,8.82,7.64a13.87,13.87,0,0,1-.22,2.35h-11.3Z"/><path class="cls-1" d="M45.31,165.69a27.51,27.51,0,0,0,10.76-1.76v20.43c0,1.13.67,2.3,3.37,2.3v.26H45.27v-.26c2.7,0,3.37-1.17,3.37-2.3v-16c0-1.62-.76-2.38-3.33-2.38Zm2.3-8.46c0-2.34,1.88-3.92,4.58-3.92s4.59,1.58,4.59,3.92-1.88,4-4.59,4S47.61,159.61,47.61,157.23Z"/><path class="cls-1" d="M61.33,186.66c2.7,0,3.37-1.17,3.37-2.3v-16c0-1.62-.76-2.39-3.33-2.39v-.27A27.66,27.66,0,0,0,72.13,164v20.38c0,1.13.67,2.3,3.37,2.3v.26H61.33Zm15.84,0c2.65,0,3.33-1.17,3.33-2.3v-14c0-2.52-1.31-3.82-3.56-3.82a4.79,4.79,0,0,0-3.42,1.39v-.27A9.19,9.19,0,0,1,81,164c4.05,0,6.93,1.89,6.93,6.34v14c0,1.13.68,2.3,3.38,2.3v.26H77.17Z"/><path class="cls-1" d="M101.56,181.57A2.3,2.3,0,0,0,99,183.82c0,1.3.9,3,4,3.28v.27c-6-.22-9.27-1.84-9.27-4.45,0-2.07,1.8-3.33,3.83-3.33A4.6,4.6,0,0,1,101.56,181.57ZM103,164.25c-1.66.31-3.28,1.17-3.24,3,.14,5.22,14.72,6.07,14.72,13.23,0,4.36-3.69,6.66-9.5,6.88v-.27c1.89-.31,4-1,4-3.32,0-4.69-14.76-6.4-14.76-13.23,0-4,3.73-6.35,8.77-6.57Zm10.62,4.36c0,1.4-1.08,2.79-3.33,2.79a3.85,3.85,0,0,1-3.82-2.16,2,2,0,0,0,2-2.11c0-1.35-1.71-2.66-3.51-2.88V164C110.11,164.25,113.66,166.09,113.66,168.61Z"/><path class="cls-1" d="M127.79,181c0,2.52.86,3.82,3.11,3.82a3.94,3.94,0,0,0,3.1-1.39v.27c-1,1.93-3.33,3.64-7,3.64-4,0-6.66-1.88-6.66-6.34V168.39c0-1.62-.77-2.39-3.33-2.39v-.27A27.61,27.61,0,0,0,127.79,164Zm15,2.88c0,1.3.4,1.84,1.21,1.84s1.44-.67,2.16-2h.27c-.72,2.48-3.15,3.64-6.12,3.64-3.15,0-5-1.79-5-4.41V168.39c0-1.62-.76-2.39-3.19-2.39v-.27A29.36,29.36,0,0,0,142.78,164Z"/><path class="cls-1" d="M159,184.36c0,1.13.68,2.3,3.38,2.3v.26H148.22v-.26c2.7,0,3.38-1.17,3.38-2.3v-16c0-1.62-.77-2.39-3.33-2.39v-.27A27.61,27.61,0,0,0,159,164Zm12.15-15.52a4.81,4.81,0,0,1-4.63,5.13,3.07,3.07,0,0,1-2.57-1,3.29,3.29,0,0,0,1.76-3.07,2.39,2.39,0,0,0-2.52-2.42,3.07,3.07,0,0,0-2.7,1.71v-.36c.85-2.88,3.06-4.86,5.85-4.86A4.57,4.57,0,0,1,171.17,168.84Z"/><path class="cls-1" d="M173.11,181.62c0-3.92,3.6-6.12,8.64-6.12h4.86v.27h-1.35c-3.24,0-4.77,2.11-4.77,4.9,0,2.47.72,4.37,2.83,4.37a5,5,0,0,0,3.29-1.58v.27a9.58,9.58,0,0,1-7.16,3.64C175.63,187.37,173.06,185.21,173.11,181.62Zm1.8-12.74c0-2.29,2.07-4.63,8.19-4.9v.27a3.28,3.28,0,0,0-2.88,3.28c0,1.62,1.12,2.61,2.92,2.75a5,5,0,0,1-4.32,2.16A3.61,3.61,0,0,1,174.91,168.88ZM188,182.29V168.52c0-2.2-.86-4-3.06-4.27V164c7.47.27,10.44,3.1,10.44,9v10.93c0,1.3.45,1.84,1.26,1.84s1.44-.67,2.16-2H199c-.72,2.48-3.15,3.64-5.85,3.64C189.58,187.37,188,186.12,188,182.29Z"/><path class="cls-1" d="M200.42,186.66c2.7,0,3.38-1.17,3.38-2.3v-16c0-1.62-.77-2.39-3.33-2.39v-.27A27.61,27.61,0,0,0,211.22,164v20.38c0,1.13.68,2.3,3.38,2.3v.26H200.42Zm15.84,0c2.66,0,3.33-1.17,3.33-2.3v-14c0-2.52-1.3-3.82-3.55-3.82a4.79,4.79,0,0,0-3.42,1.39v-.27a9.18,9.18,0,0,1,7.47-3.64c4,0,6.93,1.89,6.93,6.34v14c0,1.13.67,2.3,3.37,2.3v.26H216.26Z"/><path class="cls-1" d="M244.34,164.25c-2.65.31-3.82,2.56-3.82,11.16,0,6.47,3.28,10,7.29,10a9.79,9.79,0,0,0,6.57-2.39v.28c-2.34,3-6.62,4-9.54,4-5.76,0-12-4.23-12-11.79A11.53,11.53,0,0,1,244.34,164Zm10,4.81a4.18,4.18,0,0,1-4.5,4.32,3.83,3.83,0,0,1-3.91-2.83,3.9,3.9,0,0,0,2.16-3.29c0-1-.27-2.65-1.94-3V164C252,164,254.33,166.5,254.33,169.06Z"/><path class="cls-1" d="M257.71,175.58a11.13,11.13,0,0,1,11-11.6v.27c-2.65.31-3.37,2.56-3.37,11.16,0,6.47,2.88,10,6.88,10a9.76,9.76,0,0,0,6.57-2.39v.28c-2.34,3-6.61,4-9.54,4A11.4,11.4,0,0,1,257.71,175.58Zm10.12-1.88c4,0,5.63-1.26,5.63-5,0-2.16-.9-4.14-2.93-4.41V164c5.94,0,8.82,4.23,8.82,7.64a13.87,13.87,0,0,1-.22,2.35h-11.3Z"/><rect class="cls-2" width="970" height="250"/></svg>