<?xml version="1.0" encoding="utf-8"?>
<!-- Generator: Adobe Illustrator 24.0.3, SVG Export Plug-In . SVG Version: 6.00 Build 0)  -->
<svg version="1.1" id="Layer_1" xmlns="http://www.w3.org/2000/svg" xmlns:xlink="http://www.w3.org/1999/xlink" x="0px" y="0px"
	 viewBox="0 0 970 250" style="enable-background:new 0 0 970 250;" xml:space="preserve">
<style type="text/css">
	.st0{enable-background:new    ;}
	.st1{fill:#FFFFFF;}
	.st2{fill:none;}
</style>
<title>Artboard 1 copy 3</title>
<g class="st0">
	<path class="st1" d="M45.5,62.8c4.8,0,8.7-0.5,12.3-2v23.4c0,1.3,0.8,2.6,3.9,2.6v0.3H45.4v-0.3c3.1,0,3.9-1.3,3.9-2.6V65.9
		c0-1.9-0.9-2.7-3.8-2.7V62.8z M48.1,53.1c0-2.7,2.2-4.5,5.3-4.5s5.3,1.8,5.3,4.5c0,2.7-2.2,4.5-5.3,4.5S48.1,55.9,48.1,53.1z"/>
	<path class="st1" d="M73.7,81c-1.7,0.1-2.9,1-2.9,2.6c0,1.5,1,3.4,4.6,3.8v0.3c-6.9-0.3-10.6-2.1-10.6-5.1c0-2.4,2.1-3.8,4.4-3.8
		C71.2,78.7,72.9,79.7,73.7,81z M75.4,61.2c-1.9,0.4-3.8,1.3-3.7,3.5c0.2,6,16.8,7,16.8,15.1c0,5-4.2,7.6-10.9,7.9v-0.3
		c2.2-0.4,4.6-1.1,4.6-3.8c0-5.4-16.9-7.3-16.9-15.1c0-4.5,4.3-7.3,10-7.5V61.2z M87.6,66.2c0,1.6-1.2,3.2-3.8,3.2
		c-2.2,0-3.7-0.9-4.4-2.5c1.5-0.1,2.4-1.2,2.3-2.4c0-1.5-2-3-4-3.3v-0.3C83.5,61.2,87.6,63.3,87.6,66.2z"/>
	<path class="st1" d="M106,74.2c0-8.7,6.6-13.2,12.6-13.3v0.3c-3,0.4-3.9,2.9-3.9,12.8c0,7.4,3.3,11.5,7.9,11.5
		c2.9,0,5.1-0.8,7.5-2.7V83c-2.7,3.4-7.6,4.6-10.9,4.6C112.6,87.7,106,82.8,106,74.2z M117.5,72c4.5,0,6.4-1.4,6.4-5.8
		c0-2.5-1-4.7-3.3-5v-0.3c6.8,0,10.1,4.8,10.1,8.8c0,0.8-0.1,1.9-0.3,2.7h-12.9V72z"/>
	<path class="st1" d="M134.4,81.1c0.1-4.5,4.1-7,9.9-7h5.6v0.3h-1.5c-3.7,0-5.5,2.4-5.5,5.6c0,2.8,0.8,5,3.2,5
		c1.4,0,2.6-0.8,3.8-1.8v0.3c-1.7,2-4.4,4.2-8.2,4.2C137.3,87.7,134.4,85.2,134.4,81.1z M136.5,66.5c0-2.6,2.4-5.3,9.4-5.6v0.3
		c-2.1,0.3-3.3,2-3.3,3.8c0,1.9,1.3,3,3.3,3.1c-0.8,1.4-2.9,2.5-4.9,2.5C138.1,70.6,136.5,68.6,136.5,66.5z M151.4,81.8V66.1
		c0-2.5-1-4.5-3.5-4.9v-0.3c8.6,0.3,12,3.6,12,10.3v12.5c0,1.5,0.5,2.1,1.4,2.1c0.8,0,1.6-0.8,2.5-2.3h0.3c-0.8,2.8-3.6,4.2-6.7,4.2
		C153.3,87.7,151.4,86.2,151.4,81.8z"/>
</g>
<g class="st0">
	<path class="st1" d="M175.6,81c-1.7,0.1-2.9,1-2.9,2.6c0,1.5,1,3.4,4.6,3.8v0.3c-6.9-0.3-10.6-2.1-10.6-5.1c0-2.4,2.1-3.8,4.4-3.8
		C173.1,78.7,174.8,79.7,175.6,81z M177.3,61.2c-1.9,0.4-3.8,1.3-3.7,3.5c0.2,6,16.8,7,16.8,15.1c0,5-4.2,7.6-10.9,7.9v-0.3
		c2.2-0.4,4.6-1.1,4.6-3.8c0-5.4-16.9-7.3-16.9-15.1c0-4.5,4.3-7.3,10-7.5V61.2z M189.5,66.2c0,1.6-1.2,3.2-3.8,3.2
		c-2.2,0-3.7-0.9-4.4-2.5c1.5-0.1,2.4-1.2,2.3-2.4c0-1.5-2-3-4-3.3v-0.3C185.4,61.2,189.5,63.3,189.5,66.2z"/>
</g>
<g class="st0">
	<path class="st1" d="M194.8,63.5c-0.5-1.1-1.2-1.8-2.8-1.8v-0.3h14.4v0.3c-1.8,0-2.5,1.2-1.6,3l6.7,14.1l-4.4,8.3h-0.3L194.8,63.5z
		 M192.5,95.4c0-2.2,1.8-4.1,4.5-4.8c-0.2,0.5-0.2,0.9-0.2,1.3c-0.1,2,1,3.5,3,3.5c1.8,0,3.2-1.9,5.2-5.2h0.4
		c-2.8,5.3-4.8,9.9-8.4,9.9C194.1,100,192.5,98.1,192.5,95.4z M213.6,73.7c0.9-1.6,1.4-3.9,1.4-6.6c0-2.8-1.6-5.4-5.3-5.4v-0.3h12.8
		v0.3c-1.7,0-2.4,0.7-3.3,2.4l-5.4,10.1L213.6,73.7z"/>
</g>
<g class="st0">
	<path class="st1" d="M243.6,64.7l6.7,14.1l-4.4,8.3h-0.3l-12-23.6c-0.5-1.1-1.2-1.8-2.8-1.8v-0.3h14.4v0.3
		C243.5,61.7,242.8,62.9,243.6,64.7z M260.6,64.7l6.7,14.1l-4.4,8.3h-0.3l-8.1-16l-1.6,3.1l-0.3-0.5c0.8-1.7,1.1-4.2,0.4-5.7
		l-2.3-4.5c-0.5-1.1-1.2-1.8-2.8-1.8v-0.3h14.4v0.3C260.4,61.7,259.7,62.9,260.6,64.7z M278.5,61.4v0.3c-1.7,0-2.4,0.7-3.3,2.4
		l-5.4,10.1l-0.3-0.5c0.9-1.6,1.4-3.9,1.4-6.6c0-2.8-1.6-5.4-5.3-5.4v-0.3H278.5z"/>
	<path class="st1" d="M279,62.8c4.8,0,8.7-0.5,12.3-2v23.4c0,1.3,0.8,2.6,3.9,2.6v0.3h-16.2v-0.3c3.1,0,3.9-1.3,3.9-2.6V65.9
		c0-1.9-0.9-2.7-3.8-2.7V62.8z M281.6,53.1c0-2.7,2.2-4.5,5.3-4.5s5.3,1.8,5.3,4.5c0,2.7-2.2,4.5-5.3,4.5S281.6,55.9,281.6,53.1z"/>
	<path class="st1" d="M317.3,83.2v0.3c-1.6,2.4-4.9,4.2-8.8,4.2c-4.6,0-7.9-2.1-7.9-7.3V63.5h-2.7l0.6-0.8h2.1v-5.6
		c3.1,0,6.2-1,8.4-2.9v8.4h7l-0.6,0.8H309v17.1c0,2.6,1,5.3,3.4,5.3C313.9,85.8,315.6,84.9,317.3,83.2z"/>
	<path class="st1" d="M330.6,84.2c0,1.3,0.8,2.6,3.9,2.6v0.3h-16.2v-0.3c3.1,0,3.9-1.3,3.9-2.6V54.3c0-1.9-0.9-2.7-3.8-2.7v-0.3
		c4.8,0,8.7-0.5,12.3-2V84.2z M348.6,68.1v16.1c0,1.3,0.8,2.6,3.9,2.6v0.3h-16.2v-0.3c3,0,3.8-1.3,3.8-2.6V68.1
		c0-2.9-1.5-4.4-4.1-4.4c-1.4,0-2.7,0.5-3.9,1.6V65c1.4-2.2,4.7-4.2,8.6-4.2C345.3,60.9,348.6,63,348.6,68.1z"/>
</g>
<g class="st0">
	<path class="st1" d="M59.4,138.9v0.3c-4.1-0.1-7.3-0.9-10-2.5l-1.7,2.5h-0.4v-12.6h0.4C49.4,132.4,53.1,136.7,59.4,138.9z
		 M74.6,128.6c0,6.6-4.9,10.3-12.9,10.6v-0.3c2.8-0.5,5.6-2.2,5.6-5.3c0-9-19.7-9.8-19.7-20.3c0-6.2,5-9.7,11.8-10.2v0.3
		c-2.4,0.4-4.5,1.9-4.5,4.7C54.9,117.2,74.6,118.1,74.6,128.6z M61.7,103.4v-0.3c3.9,0.2,6.9,1,9.3,2.7l1.9-2.7h0.4v11.5h-0.4
		C71.1,109.1,66.7,104.7,61.7,103.4z"/>
</g>
<g class="st0">
	<path class="st1" d="M98.1,134.7v0.3c-1.6,2.4-4.9,4.2-8.8,4.2c-4.6,0-7.9-2.1-7.9-7.3V115h-2.7l0.6-0.8h2.1v-5.6
		c3.1,0,6.2-1,8.4-2.9v8.4h7l-0.6,0.8h-6.4v17.1c0,2.6,1,5.3,3.4,5.3C94.6,137.3,96.4,136.4,98.1,134.7z"/>
	<path class="st1" d="M99.7,132.6c0.1-4.5,4.1-7,9.9-7h5.6v0.3h-1.5c-3.7,0-5.5,2.4-5.5,5.6c0,2.8,0.8,5,3.2,5
		c1.4,0,2.6-0.8,3.8-1.8v0.3c-1.7,2-4.4,4.2-8.2,4.2C102.6,139.2,99.7,136.7,99.7,132.6z M101.8,118c0-2.6,2.4-5.3,9.4-5.6v0.3
		c-2.1,0.3-3.3,2-3.3,3.8c0,1.9,1.3,3,3.3,3.1c-0.8,1.4-2.9,2.5-4.9,2.5C103.4,122.1,101.8,120.2,101.8,118z M116.7,133.3v-15.8
		c0-2.5-1-4.5-3.5-4.9v-0.3c8.6,0.3,12,3.6,12,10.3v12.5c0,1.5,0.5,2.1,1.4,2.1c0.8,0,1.6-0.8,2.5-2.3h0.3c-0.8,2.8-3.6,4.2-6.7,4.2
		C118.6,139.2,116.7,137.7,116.7,133.3z"/>
</g>
<g class="st0">
	<path class="st1" d="M143.3,135.7c0,1.3,0.8,2.6,3.9,2.6v0.3H131v-0.3c3.1,0,3.9-1.3,3.9-2.6v-18.3c0-1.9-0.9-2.7-3.8-2.7v-0.3
		c4.8,0,8.7-0.5,12.3-2V135.7z M157.3,117.9c0,3.6-2.5,5.9-5.3,5.9c-1.2,0-2.3-0.3-2.9-1.1c1-0.5,2-1.6,2-3.5c0-1.5-1.1-2.8-2.9-2.8
		c-1.3,0-2.4,0.8-3.1,2v-0.4c1-3.3,3.5-5.6,6.7-5.6C155.3,112.4,157.3,114.9,157.3,117.9z"/>
</g>
<g class="st0">
	<path class="st1" d="M172.1,138.3c3.1,0,3.9-1.2,3.9-2.6v-29.2c0-1.4-0.8-2.6-3.9-2.6v-0.3h16.5v0.3c-3.1,0-3.9,1.2-3.9,2.6v29.2
		c0,1.4,0.8,2.6,3.9,2.6v0.3h-16.5V138.3z"/>
	<path class="st1" d="M192.1,138.3c3.1,0,3.9-1.3,3.9-2.6v-18.3c0-1.9-0.9-2.7-3.8-2.7v-0.3c4.8,0,8.7-0.5,12.3-2v23.3
		c0,1.3,0.8,2.6,3.9,2.6v0.3h-16.2V138.3z M210.2,138.3c3,0,3.8-1.3,3.8-2.6v-16.1c0-2.9-1.5-4.4-4.1-4.4c-1.4,0-2.7,0.5-3.9,1.6
		v-0.3c1.4-2.2,4.7-4.2,8.6-4.2c4.6,0,7.9,2.2,7.9,7.3v16.1c0,1.3,0.8,2.6,3.9,2.6v0.3h-16.2V138.3z"/>
	<path class="st1" d="M238.1,132.5c-1.7,0.1-2.9,1-2.9,2.6c0,1.5,1,3.4,4.6,3.8v0.3c-6.9-0.3-10.6-2.1-10.6-5.1
		c0-2.4,2.1-3.8,4.4-3.8C235.7,130.3,237.4,131.2,238.1,132.5z M239.8,112.7c-1.9,0.4-3.8,1.3-3.7,3.5c0.2,6,16.8,7,16.8,15.1
		c0,5-4.2,7.6-10.9,7.9v-0.3c2.2-0.4,4.6-1.1,4.6-3.8c0-5.4-16.9-7.3-16.9-15.1c0-4.5,4.3-7.3,10-7.5V112.7z M252,117.7
		c0,1.6-1.2,3.2-3.8,3.2c-2.2,0-3.7-0.9-4.4-2.5c1.5-0.1,2.4-1.2,2.3-2.4c0-1.5-2-3-4-3.3v-0.3C247.9,112.7,252,114.8,252,117.7z"/>
	<path class="st1" d="M268.2,131.9c0,2.9,1,4.4,3.6,4.4c1.3,0,2.4-0.4,3.6-1.6v0.3c-1.2,2.2-3.8,4.2-8,4.2c-4.6,0-7.6-2.2-7.6-7.3
		v-14.5c0-1.9-0.9-2.7-3.8-2.7v-0.3c4.8,0,8.7-0.5,12.3-2V131.9z M285.3,135.2c0,1.5,0.5,2.1,1.4,2.1c0.8,0,1.6-0.8,2.5-2.3h0.3
		c-0.8,2.8-3.6,4.2-7,4.2c-3.6,0-5.7-2.1-5.7-5v-16.7c0-1.9-0.9-2.7-3.7-2.7v-0.3c4.6,0,7.8-0.5,12.2-2V135.2z"/>
</g>
<g class="st0">
	<path class="st1" d="M303.9,135.7c0,1.3,0.8,2.6,3.9,2.6v0.3h-16.2v-0.3c3.1,0,3.9-1.3,3.9-2.6v-18.3c0-1.9-0.9-2.7-3.8-2.7v-0.3
		c4.8,0,8.7-0.5,12.3-2V135.7z M317.8,117.9c0,3.6-2.5,5.9-5.3,5.9c-1.2,0-2.3-0.3-2.9-1.1c1-0.5,2-1.6,2-3.5c0-1.5-1.1-2.8-2.9-2.8
		c-1.3,0-2.4,0.8-3.1,2v-0.4c1-3.3,3.5-5.6,6.7-5.6C315.9,112.4,317.8,114.9,317.8,117.9z"/>
</g>
<g class="st0">
	<path class="st1" d="M320,132.6c0.1-4.5,4.1-7,9.9-7h5.6v0.3h-1.5c-3.7,0-5.5,2.4-5.5,5.6c0,2.8,0.8,5,3.2,5c1.4,0,2.6-0.8,3.8-1.8
		v0.3c-1.7,2-4.4,4.2-8.2,4.2C322.9,139.2,320,136.7,320,132.6z M322.1,118c0-2.6,2.4-5.3,9.4-5.6v0.3c-2.1,0.3-3.3,2-3.3,3.8
		c0,1.9,1.3,3,3.3,3.1c-0.8,1.4-2.9,2.5-4.9,2.5C323.7,122.1,322.1,120.2,322.1,118z M337,133.3v-15.8c0-2.5-1-4.5-3.5-4.9v-0.3
		c8.6,0.3,12,3.6,12,10.3v12.5c0,1.5,0.5,2.1,1.4,2.1c0.8,0,1.6-0.8,2.5-2.3h0.3c-0.8,2.8-3.6,4.2-6.7,4.2
		C338.9,139.2,337,137.7,337,133.3z"/>
	<path class="st1" d="M351.3,138.3c3.1,0,3.9-1.3,3.9-2.6v-18.3c0-1.9-0.9-2.7-3.8-2.7v-0.3c4.8,0,8.7-0.5,12.3-2v23.3
		c0,1.3,0.8,2.6,3.9,2.6v0.3h-16.2V138.3z M369.4,138.3c3,0,3.8-1.3,3.8-2.6v-16.1c0-2.9-1.5-4.4-4.1-4.4c-1.4,0-2.7,0.5-3.9,1.6
		v-0.3c1.4-2.2,4.7-4.2,8.6-4.2c4.6,0,7.9,2.2,7.9,7.3v16.1c0,1.3,0.8,2.6,3.9,2.6v0.3h-16.2V138.3z"/>
	<path class="st1" d="M401.6,112.7c-3,0.4-4.4,2.9-4.4,12.8c0,7.4,3.8,11.5,8.3,11.5c2.9,0,5.1-0.8,7.5-2.7v0.3
		c-2.7,3.4-7.6,4.6-10.9,4.6c-6.6,0-13.8-4.8-13.8-13.5c0-8.7,7.2-13.2,13.2-13.3V112.7z M413,118.2c0,2.7-1.9,4.9-5.2,4.9
		c-2.5,0-4.2-1.6-4.5-3.2c1.4-0.6,2.5-2.4,2.5-3.8c0-1.2-0.3-3-2.2-3.4v-0.4C410.4,112.4,413,115.3,413,118.2z"/>
	<path class="st1" d="M416.9,125.7c0-8.7,6.6-13.2,12.6-13.3v0.3c-3,0.4-3.9,2.9-3.9,12.8c0,7.4,3.3,11.5,7.9,11.5
		c2.9,0,5.1-0.8,7.5-2.7v0.3c-2.7,3.4-7.6,4.6-10.9,4.6C423.5,139.2,416.9,134.3,416.9,125.7z M428.5,123.5c4.5,0,6.4-1.4,6.4-5.8
		c0-2.5-1-4.7-3.3-5v-0.3c6.8,0,10.1,4.8,10.1,8.8c0,0.8-0.1,1.9-0.3,2.7h-12.9V123.5z"/>
</g>
<g class="st0">
	<path class="st1" d="M46.4,190.2v-0.3c3.1,0,3.9-1.2,3.9-2.6v-29.1c0-1.4-0.8-2.7-3.9-2.7v-0.3H59v35H46.4z M75.2,155.1v9.5h-0.4
		c-2.2-6.5-5.4-8.7-13.2-9.2v-0.3H75.2z M61.6,172.2v-0.3l2.8-0.3c3-0.3,5.1-1.5,6.8-4.4h0.4v9.6h-0.4c-1.7-2.9-3.8-4.1-6.8-4.3
		L61.6,172.2z M61.6,189.9c7.8-0.5,11.5-2.7,14.3-9.2h0.4v9.5H61.6V189.9z"/>
	<path class="st1" d="M80,189.9c3.1,0,3.9-1.3,3.9-2.6v-18.3c0-1.9-0.9-2.7-3.8-2.7v-0.3c4.8,0,8.7-0.5,12.3-2v23.3
		c0,1.3,0.8,2.6,3.9,2.6v0.3H80V189.9z M98.2,189.9c3,0,3.8-1.3,3.8-2.6v-16.1c0-2.9-1.5-4.4-4.1-4.4c-1.4,0-2.7,0.5-3.9,1.6v-0.3
		c1.4-2.2,4.7-4.2,8.6-4.2c4.6,0,7.9,2.2,7.9,7.3v16.1c0,1.3,0.8,2.6,3.9,2.6v0.3H98.2V189.9z"/>
	<path class="st1" d="M136.2,186.2v0.3c-1.6,2.4-4.9,4.2-8.8,4.2c-4.6,0-7.9-2.1-7.9-7.3v-16.9h-2.7l0.6-0.8h2.1v-5.6
		c3.1,0,6.2-1,8.4-2.9v8.4h7l-0.6,0.8h-6.4v17.1c0,2.6,1,5.3,3.4,5.3C132.7,188.8,134.5,187.9,136.2,186.2z"/>
	<path class="st1" d="M149.5,187.2c0,1.3,0.8,2.6,3.9,2.6v0.3h-16.2v-0.3c3.1,0,3.9-1.3,3.9-2.6v-29.9c0-1.9-0.9-2.7-3.8-2.7v-0.3
		c4.8,0,8.7-0.5,12.3-2V187.2z M167.5,171.2v16.1c0,1.3,0.8,2.6,3.9,2.6v0.3h-16.2v-0.3c3,0,3.8-1.3,3.8-2.6v-16.1
		c0-2.9-1.5-4.4-4.1-4.4c-1.4,0-2.7,0.5-3.9,1.6v-0.3c1.4-2.2,4.7-4.2,8.6-4.2C164.2,163.9,167.5,166.1,167.5,171.2z"/>
	<path class="st1" d="M185,183.4c0,2.9,1,4.4,3.6,4.4c1.3,0,2.4-0.4,3.6-1.6v0.3c-1.2,2.2-3.8,4.2-8,4.2c-4.6,0-7.6-2.2-7.6-7.3
		v-14.5c0-1.9-0.9-2.7-3.8-2.7v-0.3c4.8,0,8.7-0.5,12.3-2V183.4z M202.2,186.7c0,1.5,0.5,2.1,1.4,2.1c0.8,0,1.6-0.8,2.5-2.3h0.3
		c-0.8,2.8-3.6,4.2-7,4.2c-3.6,0-5.7-2.1-5.7-5v-16.7c0-1.9-0.9-2.7-3.7-2.7v-0.3c4.6,0,7.8-0.5,12.2-2V186.7z"/>
	<path class="st1" d="M218.3,184c-1.7,0.1-2.9,1-2.9,2.6c0,1.5,1,3.4,4.6,3.8v0.3c-6.9-0.3-10.6-2.1-10.6-5.1c0-2.4,2.1-3.8,4.4-3.8
		C215.8,181.8,217.5,182.7,218.3,184z M220,164.2c-1.9,0.4-3.8,1.3-3.7,3.5c0.2,6,16.8,7,16.8,15.1c0,5-4.2,7.6-10.9,7.9v-0.3
		c2.2-0.4,4.6-1.1,4.6-3.8c0-5.4-16.9-7.3-16.9-15.1c0-4.5,4.3-7.3,10-7.5V164.2z M232.2,169.2c0,1.6-1.2,3.2-3.8,3.2
		c-2.2,0-3.7-0.9-4.4-2.5c1.5-0.1,2.4-1.2,2.3-2.4c0-1.5-2-3-4-3.3v-0.3C228.1,164.2,232.2,166.3,232.2,169.2z"/>
	<path class="st1" d="M236.6,165.8c4.8,0,8.7-0.5,12.3-2v23.4c0,1.3,0.8,2.6,3.9,2.6v0.3h-16.2v-0.3c3.1,0,3.9-1.3,3.9-2.6v-18.3
		c0-1.9-0.9-2.7-3.8-2.7V165.8z M239.3,156.2c0-2.7,2.2-4.5,5.3-4.5s5.3,1.8,5.3,4.5c0,2.7-2.2,4.5-5.3,4.5S239.3,158.9,239.3,156.2
		z"/>
	<path class="st1" d="M255.4,184.1c0.1-4.5,4.1-7,9.9-7h5.6v0.3h-1.5c-3.7,0-5.5,2.4-5.5,5.6c0,2.8,0.8,5,3.2,5
		c1.4,0,2.6-0.8,3.8-1.8v0.3c-1.7,2-4.4,4.2-8.2,4.2C258.3,190.7,255.3,188.2,255.4,184.1z M257.4,169.5c0-2.6,2.4-5.3,9.4-5.6v0.3
		c-2.1,0.3-3.3,2-3.3,3.8c0,1.9,1.3,3,3.3,3.1c-0.8,1.4-2.9,2.5-4.9,2.5C259.1,173.6,257.4,171.7,257.4,169.5z M272.4,184.9v-15.8
		c0-2.5-1-4.5-3.5-4.9v-0.3c8.6,0.3,12,3.6,12,10.3v12.5c0,1.5,0.5,2.1,1.4,2.1c0.8,0,1.6-0.8,2.5-2.3h0.3c-0.8,2.8-3.6,4.2-6.7,4.2
		C274.2,190.7,272.4,189.2,272.4,184.9z"/>
	<path class="st1" d="M296.5,184c-1.7,0.1-2.9,1-2.9,2.6c0,1.5,1,3.4,4.6,3.8v0.3c-6.9-0.3-10.6-2.1-10.6-5.1c0-2.4,2.1-3.8,4.4-3.8
		C294.1,181.8,295.8,182.7,296.5,184z M298.2,164.2c-1.9,0.4-3.8,1.3-3.7,3.5c0.2,6,16.8,7,16.8,15.1c0,5-4.2,7.6-10.9,7.9v-0.3
		c2.2-0.4,4.6-1.1,4.6-3.8c0-5.4-16.9-7.3-16.9-15.1c0-4.5,4.3-7.3,10-7.5V164.2z M310.4,169.2c0,1.6-1.2,3.2-3.8,3.2
		c-2.2,0-3.7-0.9-4.4-2.5c1.5-0.1,2.4-1.2,2.3-2.4c0-1.5-2-3-4-3.3v-0.3C306.3,164.2,310.4,166.3,310.4,169.2z"/>
	<path class="st1" d="M334.8,186.2v0.3c-1.6,2.4-4.9,4.2-8.8,4.2c-4.6,0-7.9-2.1-7.9-7.3v-16.9h-2.7l0.6-0.8h2.1v-5.6
		c3.1,0,6.2-1,8.4-2.9v8.4h7l-0.6,0.8h-6.4v17.1c0,2.6,1,5.3,3.4,5.3C331.3,188.8,333.1,187.9,334.8,186.2z"/>
</g>
<rect y="0" class="st2" width="970" height="250"/>
</svg>
