<svg id="Layer_1" data-name="Layer 1" xmlns="http://www.w3.org/2000/svg" viewBox="0 0 970 250"><defs><style>.cls-1{fill:#74503e;}.cls-2{fill:#fff;}.cls-3{fill:none;}</style></defs><title>Artboard 1 copy 5</title><path class="cls-1" d="M473.16,62.33V124A22,22,0,0,0,485,143.45l92.35,47.91a27.48,27.48,0,0,0,25.29,0L695,143.45A22,22,0,0,0,706.85,124V62.33a10.27,10.27,0,0,0-10.26-10.26H483.42A10.26,10.26,0,0,0,473.16,62.33Z"/><path class="cls-2" d="M577.59,96l.42-.6c.3-.42.63-.44,1.1-.18a4.71,4.71,0,0,0,2.74,1c1.25,0,2-.62,2-1.54,0-2.56-6.3-2-6.3-6.23,0-2.38,2-3.92,4.55-3.92a6.37,6.37,0,0,1,3.48,1,.76.76,0,0,1,.24,1.09l-.34.63c-.28.55-.68.47-1.08.26a4.46,4.46,0,0,0-2.34-.74c-1.26,0-2.06.61-2.06,1.52,0,2.53,6.3,1.88,6.3,6.18,0,2.19-1.64,4-4.47,4a7.22,7.22,0,0,1-4.15-1.37A.72.72,0,0,1,577.59,96Z"/><path class="cls-2" d="M591.76,86.9h-3.63a.7.7,0,0,1-.8-.78v-.54a.71.71,0,0,1,.8-.79h9.7a.7.7,0,0,1,.78.79v.54a.7.7,0,0,1-.78.78h-3.64V97.49a.71.71,0,0,1-.8.8h-.85a.7.7,0,0,1-.78-.8Z"/><path class="cls-2" d="M601.82,85.43a.85.85,0,0,1,.89-.64h1.22a.84.84,0,0,1,.89.64L609,97.38c.19.55-.06.91-.64.91h-.88a.84.84,0,0,1-.89-.65l-1-2.81h-4.74L600,97.62a.85.85,0,0,1-.9.67h-.87c-.59,0-.84-.36-.65-.91Zm3.25,7.4-1.2-3.61c-.23-.76-.53-2.09-.53-2.09h0s-.31,1.33-.53,2.09l-1.22,3.61Z"/><path class="cls-2" d="M610.75,85.58a.7.7,0,0,1,.78-.79h3.65a6.19,6.19,0,0,1,2.57.36A3.76,3.76,0,0,1,620,88.84a3.91,3.91,0,0,1-2.25,3.69v0a4.1,4.1,0,0,1,.44.71l2.23,4.07c.32.55.07,1-.55,1h-1a1,1,0,0,1-.93-.55l-2.38-4.49h-2.36v4.24a.7.7,0,0,1-.78.8h-.87a.7.7,0,0,1-.78-.8Zm4.64,5.54A2,2,0,0,0,617.52,89a1.81,1.81,0,0,0-1.07-1.84A3.23,3.23,0,0,0,615,86.9h-1.81v4.22Z"/><path class="cls-2" d="M578.48,102.08a.42.42,0,0,1,.46-.47h.4a.43.43,0,0,1,.46.47V114.5a.44.44,0,0,1-.46.48h-.4a.43.43,0,0,1-.46-.48Z"/><path class="cls-2" d="M583,105.88a.43.43,0,0,1,.48-.47h.34a.42.42,0,0,1,.45.47V107a3.32,3.32,0,0,1-.07.68h0a4.22,4.22,0,0,1,3.86-2.49c2.37,0,3.21,1.35,3.21,3.71v5.61a.43.43,0,0,1-.47.48h-.37a.42.42,0,0,1-.45-.48v-5.27c0-1.5-.25-2.83-2.09-2.83a3.71,3.71,0,0,0-3.64,3.9v4.2a.42.42,0,0,1-.45.48h-.36a.44.44,0,0,1-.48-.48Z"/><path class="cls-2" d="M593.33,113.45l.15-.19a.42.42,0,0,1,.64-.07,4.18,4.18,0,0,0,2.53.87c1.07,0,1.94-.53,1.94-1.54,0-2.15-5.11-1.5-5.11-4.66,0-1.77,1.5-2.68,3.25-2.68a4.41,4.41,0,0,1,2.62.78.41.41,0,0,1,.14.63l-.14.21a.41.41,0,0,1-.64.13,3.58,3.58,0,0,0-2.06-.61c-1,0-1.88.44-1.88,1.49,0,2.2,5.1,1.5,5.1,4.69,0,1.58-1.33,2.7-3.24,2.7a5,5,0,0,1-3.23-1.1A.42.42,0,0,1,593.33,113.45Z"/><path class="cls-2" d="M601.79,105.88a.41.41,0,0,1,.45-.47h.36a.43.43,0,0,1,.48.47v5.27c0,1.5.23,2.84,2.07,2.84a3.72,3.72,0,0,0,3.54-4v-4.11a.43.43,0,0,1,.48-.47h.36a.41.41,0,0,1,.45.47v8.62a.42.42,0,0,1-.45.48h-.35a.42.42,0,0,1-.45-.48v-1.1a4,4,0,0,1,.06-.69h0A4.15,4.15,0,0,1,605,115.2c-2.26,0-3.19-1.21-3.19-3.71Z"/><path class="cls-2" d="M612.79,105.88a.43.43,0,0,1,.47-.47h.34a.42.42,0,0,1,.46.47v1.3a3.7,3.7,0,0,1-.08.76h0a3.42,3.42,0,0,1,3.08-2.59c.35,0,.5.15.5.46v.34c0,.31-.21.48-.54.48-2,0-3,2.3-3,4.29v3.58a.42.42,0,0,1-.46.48h-.36a.43.43,0,0,1-.47-.48Z"/><path class="cls-2" d="M624.18,109.12h.55v-.31c0-1.84-1-2.47-2.35-2.47a4.41,4.41,0,0,0-2.32.67.45.45,0,0,1-.65-.16l-.12-.19a.43.43,0,0,1,.14-.64,5.76,5.76,0,0,1,3-.84c2.28,0,3.56,1.28,3.56,3.67v5.65a.42.42,0,0,1-.46.48h-.3a.43.43,0,0,1-.48-.48v-.76a3.79,3.79,0,0,1,.06-.72h0a3.56,3.56,0,0,1-3.23,2.18c-1.62,0-3.24-1-3.24-2.79C618.34,109.29,622.34,109.12,624.18,109.12Zm-2.37,5c1.84,0,2.92-1.9,2.92-3.58v-.45h-.53c-1.5,0-4.52,0-4.52,2.2A1.91,1.91,0,0,0,621.81,114.12Z"/><path class="cls-2" d="M628.74,105.88a.43.43,0,0,1,.48-.47h.34a.42.42,0,0,1,.45.47V107a3.32,3.32,0,0,1-.07.68h0a4.22,4.22,0,0,1,3.86-2.49c2.37,0,3.21,1.35,3.21,3.71v5.61a.43.43,0,0,1-.47.48h-.37a.42.42,0,0,1-.45-.48v-5.27c0-1.5-.25-2.83-2.09-2.83a3.71,3.71,0,0,0-3.64,3.9v4.2a.42.42,0,0,1-.45.48h-.36a.44.44,0,0,1-.48-.48Z"/><path class="cls-2" d="M644.2,105.18a5,5,0,0,1,3.18,1.08.41.41,0,0,1,.06.65l-.14.21c-.17.27-.38.27-.64.1a3.92,3.92,0,0,0-2.42-.88,3.85,3.85,0,0,0,0,7.7,4.17,4.17,0,0,0,2.7-1,.38.38,0,0,1,.63.11l.13.19a.46.46,0,0,1-.11.65,5.34,5.34,0,0,1-3.41,1.21,5,5,0,1,1,0-10Z"/><path class="cls-2" d="M653.62,105.18c2.55,0,4,1.85,4,4.57a.48.48,0,0,1-.5.47h-6.88A3.65,3.65,0,0,0,654,114a4.12,4.12,0,0,0,2.51-.87.4.4,0,0,1,.63.11l.15.23a.45.45,0,0,1-.14.63,5.43,5.43,0,0,1-3.19,1.06,4.83,4.83,0,0,1-5-5A4.67,4.67,0,0,1,653.62,105.18Zm2.69,4.07c-.08-2-1.3-3-2.72-3a3.29,3.29,0,0,0-3.29,3Z"/><path class="cls-2" d="M578.18,120.24a.71.71,0,0,1,.78-.8h6.5a.72.72,0,0,1,.8.8v.53a.7.7,0,0,1-.8.78h-4.85v3.54h3.77a.71.71,0,0,1,.8.78v.53a.71.71,0,0,1-.8.8h-3.77v3.63h5.16a.71.71,0,0,1,.8.78v.54a.72.72,0,0,1-.8.8H579a.7.7,0,0,1-.78-.8Z"/><path class="cls-2" d="M588.3,124a.7.7,0,0,1,.78-.79h.74a.7.7,0,0,1,.78.79v.59a3,3,0,0,1,0,.44h0a3.77,3.77,0,0,1,3.44-2c2.15,0,3.39,1.12,3.39,3.69v5.44a.71.71,0,0,1-.8.8h-.82a.72.72,0,0,1-.8-.8v-5c0-1.18-.3-2-1.52-2a2.9,2.9,0,0,0-2.79,3.18v3.75a.7.7,0,0,1-.78.8h-.84a.7.7,0,0,1-.78-.8Z"/><path class="cls-2" d="M600,125.3h-.51a.7.7,0,0,1-.78-.8v-.32a.71.71,0,0,1,.8-.8h.55v-2a.72.72,0,0,1,.8-.8h.76a.73.73,0,0,1,.8.8v2h1.41a.72.72,0,0,1,.79.8v.32a.71.71,0,0,1-.78.8h-1.42v3.77a1.58,1.58,0,0,0,1.56,1.8c.59.06.8.25.8.78v.59c0,.57-.33.8-1,.8-1.73,0-3.79-.93-3.79-3.56Z"/><path class="cls-2" d="M606.34,120.24a.72.72,0,0,1,.8-.8H608a.71.71,0,0,1,.8.8v3.92a6.43,6.43,0,0,1,0,.82h0a3.82,3.82,0,0,1,3.37-2c2.15,0,3.39,1.12,3.39,3.69v5.44a.72.72,0,0,1-.8.8h-.82a.71.71,0,0,1-.8-.8v-5c0-1.18-.3-2-1.52-2-1.69,0-2.8,1.37-2.8,3.22v3.71a.71.71,0,0,1-.8.8h-.81a.71.71,0,0,1-.8-.8Z"/><path class="cls-2" d="M617.67,124a.72.72,0,0,1,.8-.79h.81a.71.71,0,0,1,.8.79v5c0,1.18.31,2,1.51,2,1.74,0,2.71-1.54,2.71-3.27V124a.71.71,0,0,1,.8-.79h.82a.72.72,0,0,1,.8.79v8.11a.72.72,0,0,1-.8.8h-.74a.7.7,0,0,1-.78-.8v-.57a2.66,2.66,0,0,1,0-.44h0a3.76,3.76,0,0,1-3.37,2c-2.07,0-3.36-1-3.36-3.69Z"/><path class="cls-2" d="M628.68,131.1l.23-.34c.29-.4.61-.44,1.08-.19a4.35,4.35,0,0,0,2.17.66c.84,0,1.35-.38,1.35-1,0-1.57-4.81-1-4.81-4.31,0-1.9,1.67-2.91,3.71-2.91a5.46,5.46,0,0,1,2.7.7.73.73,0,0,1,.28,1.07l-.19.34c-.22.46-.58.51-1.06.3a4.36,4.36,0,0,0-1.85-.47c-.83,0-1.31.34-1.31,1,0,1.6,4.81,1,4.81,4.28,0,1.71-1.44,3-3.69,3a5.68,5.68,0,0,1-3.23-1A.68.68,0,0,1,628.68,131.1Z"/><path class="cls-2" d="M637.6,120.81v-.57a.71.71,0,0,1,.78-.8h.83a.72.72,0,0,1,.8.8v.57a.7.7,0,0,1-.8.78h-.83A.69.69,0,0,1,637.6,120.81Zm0,3.23a.7.7,0,0,1,.78-.79h.83a.7.7,0,0,1,.78.79v8.11a.7.7,0,0,1-.78.8h-.83a.7.7,0,0,1-.78-.8Z"/><path class="cls-2" d="M647.32,127h.4v-.22a1.59,1.59,0,0,0-1.81-1.72,4.37,4.37,0,0,0-2,.56.71.71,0,0,1-1.06-.33l-.19-.36a.7.7,0,0,1,.3-1.06,6.81,6.81,0,0,1,3.18-.8c2.51,0,4,1.41,4,3.86v5.27a.71.71,0,0,1-.8.8h-.64a.7.7,0,0,1-.78-.8v-.38a1.8,1.8,0,0,1,0-.42h0a3.54,3.54,0,0,1-3,1.82,3,3,0,0,1-3.22-2.91C641.65,127.43,645.15,127,647.32,127Zm-1.81,4.38a2.47,2.47,0,0,0,2.23-2.55v-.36h-.4c-1.22,0-3.29.19-3.29,1.63A1.32,1.32,0,0,0,645.51,131.33Z"/><path class="cls-2" d="M652,131.1l.23-.34c.29-.4.61-.44,1.08-.19a4.35,4.35,0,0,0,2.17.66c.84,0,1.35-.38,1.35-1,0-1.57-4.81-1-4.81-4.31,0-1.9,1.67-2.91,3.71-2.91a5.46,5.46,0,0,1,2.7.7.73.73,0,0,1,.29,1.07l-.19.34c-.23.46-.59.51-1.07.3a4.35,4.35,0,0,0-1.84-.47c-.84,0-1.32.34-1.32,1,0,1.6,4.81,1,4.81,4.28,0,1.71-1.44,3-3.68,3a5.69,5.69,0,0,1-3.24-1A.68.68,0,0,1,652,131.1Z"/><path class="cls-2" d="M661.31,125.3h-.51a.7.7,0,0,1-.78-.8v-.32a.71.71,0,0,1,.8-.8h.55v-2a.73.73,0,0,1,.8-.8h.76a.73.73,0,0,1,.8.8v2h1.41a.72.72,0,0,1,.8.8v.32a.71.71,0,0,1-.78.8h-1.43v3.77a1.58,1.58,0,0,0,1.56,1.8c.59.06.8.25.8.78v.59c0,.57-.33.8-1,.8-1.73,0-3.79-.93-3.79-3.56Z"/><path class="cls-2" d="M532.63,126.88a1.38,1.38,0,0,1-.62-.15,1.33,1.33,0,0,1-.66-1.61l14.08-43.33a3,3,0,0,1,2.86-2.07h0a3,3,0,0,1,2.85,2.07L554,90.38a1,1,0,0,1-.65,1.29,1,1,0,0,1-1.29-.65l-2.85-8.59a1,1,0,0,0-.92-.68h0a1,1,0,0,0-.93.67L534.63,121.6l17.94-24.54a5.58,5.58,0,0,1,4.5-2.28H569a3,3,0,0,1,1.76,5.44l-10.92,7.93a.65.65,0,0,1-.12.11l4.23,13a3,3,0,0,1-4.63,3.36l-9.44-6.87a3,3,0,0,1,0-4.86l7.92-5.74.12-.1,11.65-8.46a1,1,0,0,0,.35-1.09.94.94,0,0,0-.92-.66H557.07a3.57,3.57,0,0,0-2.86,1.45l-20.5,28.06A1.33,1.33,0,0,1,532.63,126.88ZM558,109.51l-6.91,5a.94.94,0,0,0-.4.78.92.92,0,0,0,.4.78l9.44,6.87a1,1,0,0,0,1.14,0,1,1,0,0,0,.35-1.08Z"/><path class="cls-2" d="M533.35,105.34a1,1,0,0,1-.58-.18l-7-4.94a3,3,0,0,1,1.75-5.44h8.55a1,1,0,0,1,0,2h-8.55a1,1,0,0,0-.56,1.75l7,4.92a1,1,0,0,1-.59,1.85Z"/><path class="cls-2" d="M542.84,141.26a3.26,3.26,0,0,1-1.63-.43l-17.81-10.1a1,1,0,0,1-.51-.89V108.11a1,1,0,0,1,2,0v21.14l17.29,9.81a1.28,1.28,0,0,0,1.31,0l12.63-7.91a1,1,0,0,1,1.08,1.73l-12.63,7.91A3.38,3.38,0,0,1,542.84,141.26Z"/><rect class="cls-3" width="970" height="250"/></svg>