<?xml version="1.0" encoding="utf-8"?>
<!-- Generator: Adobe Illustrator 24.0.3, SVG Export Plug-In . SVG Version: 6.00 Build 0)  -->
<svg version="1.1" id="Layer_1" xmlns="http://www.w3.org/2000/svg" xmlns:xlink="http://www.w3.org/1999/xlink" x="0px" y="0px"
	 viewBox="0 0 320 480" style="enable-background:new 0 0 320 480;" xml:space="preserve">
<style type="text/css">
	.st0{enable-background:new    ;}
	.st1{fill:#FFFFFF;}
</style>
<title>Artboard 1 copy</title>
<g class="st0">
	<path class="st1" d="M39,50.5l0.2,0.3c-2.1,3.4-5.9,5-9.9,5c-6.7,0-15-4.8-15-14.3c0-10.4,8.1-14.2,14-14.4v0.2
		c-2.9,0.6-6,3.3-6,13.9c0,10.5,4.2,13,8.9,13C34.9,54.1,37.5,52.2,39,50.5z M39.3,27v10H39c-1.6-5.5-4.6-8.6-8.7-9.7V27
		c3.6,0.2,5.7,0.8,7.4,1.9L39,27H39.3z"/>
	<path class="st1" d="M51.7,53c0,1,0.6,2.1,3.1,2.1v0.2H41.8v-0.2c2.5,0,3.1-1.1,3.1-2.1V29.2c0-1.5-0.7-2.2-3-2.2v-0.2
		c3.8,0,6.9-0.4,9.8-1.6V53z M66.1,40.2V53c0,1,0.6,2.1,3.1,2.1v0.2H56.3v-0.2c2.4,0,3-1.1,3-2.1V40.2c0-2.3-1.2-3.5-3.2-3.5
		c-1.1,0-2.1,0.4-3.1,1.3v-0.2c1.1-1.7,3.8-3.3,6.8-3.3C63.4,34.4,66.1,36.1,66.1,40.2z"/>
	<path class="st1" d="M81.6,34.7c-2.4,0.3-3.2,2.3-3.2,10.3c0,7.7,0.8,10.3,3.2,10.5v0.2c-4.7,0-10.2-3.9-10.2-10.8
		s5.4-10.6,10.2-10.6V34.7z M93.4,45c0,6.9-5.5,10.8-10.2,10.8v-0.2c2.4-0.2,3.2-2.8,3.2-10.5c0-8-0.8-10.1-3.2-10.3v-0.2
		C88,34.4,93.4,38.1,93.4,45z"/>
	<path class="st1" d="M107.1,34.7c-2.4,0.3-3.2,2.3-3.2,10.3c0,7.7,0.8,10.3,3.2,10.5v0.2c-4.7,0-10.2-3.9-10.2-10.8
		s5.4-10.6,10.2-10.6V34.7z M118.9,45c0,6.9-5.5,10.8-10.2,10.8v-0.2c2.4-0.2,3.2-2.8,3.2-10.5c0-8-0.8-10.1-3.2-10.3v-0.2
		C113.5,34.4,118.9,38.1,118.9,45z"/>
	<path class="st1" d="M129.5,50.5c-1.4,0-2.3,0.8-2.3,2.1c0,1.2,0.8,2.7,3.7,3v0.2c-5.5-0.2-8.5-1.7-8.5-4.1c0-1.9,1.6-3,3.5-3
		C127.5,48.7,128.9,49.4,129.5,50.5z M130.9,34.7c-1.5,0.3-3,1.1-3,2.8c0.1,4.8,13.4,5.5,13.4,12.1c0,4-3.4,6.1-8.7,6.3v-0.2
		c1.7-0.3,3.7-0.9,3.7-3c0-4.3-13.5-5.8-13.5-12.1c0-3.6,3.4-5.8,8-6V34.7z M140.6,38.6c0,1.3-1,2.5-3,2.5c-1.7,0-3-0.7-3.5-2
		c1.2-0.1,1.9-0.9,1.8-1.9c0-1.2-1.6-2.4-3.2-2.6v-0.2C137.3,34.7,140.6,36.3,140.6,38.6z"/>
	<path class="st1" d="M144.8,45c0-6.9,5.3-10.6,10.1-10.6v0.2c-2.4,0.3-3.1,2.3-3.1,10.2c0,5.9,2.6,9.2,6.3,9.2c2.3,0,4.1-0.7,6-2.2
		v0.2c-2.1,2.7-6,3.7-8.7,3.7C150.1,55.8,144.8,51.9,144.8,45z M154,43.3c3.6,0,5.1-1.1,5.1-4.6c0-2-0.8-3.8-2.7-4v-0.2
		c5.4,0,8,3.9,8,7c0,0.7-0.1,1.5-0.2,2.1H154V43.3z"/>
</g>
<g class="st0">
	<path class="st1" d="M24.4,96.6v0.2c-3.2-0.1-5.8-0.7-8-2l-1.4,2h-0.3v-10h0.3C16.5,91.4,19.4,94.9,24.4,96.6z M36.5,88.4
		c0,5.3-3.9,8.2-10.3,8.4v-0.2c2.3-0.4,4.5-1.7,4.5-4.2c0-7.2-15.7-7.8-15.7-16.2c0-4.9,4-7.8,9.4-8.1v0.2c-1.9,0.3-3.6,1.5-3.6,3.8
		C20.8,79.3,36.5,80.1,36.5,88.4z M26.2,68.3v-0.2c3.1,0.1,5.5,0.8,7.4,2.2l1.5-2.2h0.3v9.2h-0.3C33.8,72.9,30.2,69.3,26.2,68.3z"/>
</g>
<g class="st0">
	<path class="st1" d="M55.2,93.2v0.2c-1.3,1.9-3.9,3.3-7,3.3c-3.7,0-6.3-1.7-6.3-5.8V77.6h-2.1l0.5-0.6h1.7v-4.4
		c2.5,0,5-0.8,6.7-2.3v6.7h5.5l-0.5,0.6h-5.1v13.6c0,2.1,0.8,4.2,2.7,4.2C52.5,95.3,53.9,94.6,55.2,93.2z"/>
	<path class="st1" d="M56.5,91.6c0-3.6,3.3-5.6,7.9-5.6h4.4v0.2h-1.2c-3,0-4.4,1.9-4.4,4.5c0,2.3,0.7,4,2.6,4c1.1,0,2.1-0.6,3-1.4
		v0.2c-1.4,1.6-3.5,3.3-6.5,3.3C58.8,96.8,56.5,94.8,56.5,91.6z M58.2,79.9c0-2.1,1.9-4.2,7.5-4.5v0.2C64,76,63,77.3,63,78.7
		c0,1.5,1,2.4,2.7,2.5c-0.6,1.1-2.3,2-3.9,2C59.5,83.2,58.2,81.7,58.2,79.9z M70.1,92.2V79.6c0-2-0.8-3.6-2.8-3.9v-0.2
		c6.8,0.2,9.5,2.8,9.5,8.2v10c0,1.2,0.4,1.7,1.1,1.7c0.6,0,1.3-0.6,2-1.8h0.2c-0.7,2.3-2.9,3.3-5.3,3.3
		C71.6,96.8,70.1,95.7,70.1,92.2z"/>
</g>
<g class="st0">
	<path class="st1" d="M91.3,94.1c0,1,0.6,2.1,3.1,2.1v0.2H81.5v-0.2c2.5,0,3.1-1.1,3.1-2.1V79.5c0-1.5-0.7-2.2-3-2.2v-0.2
		c3.8,0,6.9-0.4,9.8-1.6V94.1z M102.4,79.9c0,2.8-2,4.7-4.2,4.7c-1,0-1.8-0.2-2.3-0.9c0.8-0.4,1.6-1.3,1.6-2.8
		c0-1.2-0.9-2.2-2.3-2.2c-1.1,0-1.9,0.6-2.5,1.6v-0.3c0.8-2.6,2.8-4.4,5.3-4.4C100.8,75.5,102.4,77.4,102.4,79.9z"/>
</g>
<g class="st0">
	<path class="st1" d="M39,132.6l0.2,0.3c-2.1,3.4-5.9,5-9.9,5c-6.7,0-15-4.8-15-14.3c0-10.4,8.1-14.2,14-14.4v0.2
		c-2.9,0.6-6,3.3-6,13.9c0,10.5,4.2,13,8.9,13C34.9,136.2,37.5,134.3,39,132.6z M39.3,109.1v10H39c-1.6-5.5-4.6-8.6-8.7-9.7v-0.2
		c3.6,0.2,5.7,0.8,7.4,1.9l1.2-1.9H39.3z"/>
	<path class="st1" d="M42.4,132.6c0-3.6,3.3-5.6,7.9-5.6h4.4v0.2h-1.2c-3,0-4.4,1.9-4.4,4.5c0,2.3,0.7,4,2.6,4c1.2,0,2.1-0.6,3-1.4
		v0.2c-1.4,1.6-3.5,3.3-6.5,3.3C44.7,137.9,42.4,135.9,42.4,132.6z M44.1,121c0-2.1,1.9-4.2,7.5-4.5v0.2c-1.6,0.2-2.6,1.6-2.6,3
		c0,1.5,1,2.4,2.7,2.5c-0.6,1.1-2.3,2-3.9,2C45.4,124.2,44.1,122.7,44.1,121z M56,133.2v-12.6c0-2-0.8-3.6-2.8-3.9v-0.2
		c6.8,0.2,9.5,2.8,9.5,8.2v10c0,1.2,0.4,1.7,1.1,1.7c0.6,0,1.3-0.6,2-1.8h0.2c-0.7,2.3-2.9,3.3-5.3,3.3
		C57.4,137.9,56,136.7,56,133.2z"/>
	<path class="st1" d="M77.2,135.1c0,1,0.6,2.1,3.1,2.1v0.2H67.3v-0.2c2.5,0,3.1-1.1,3.1-2.1v-14.6c0-1.5-0.7-2.2-3-2.2v-0.2
		c3.8,0,6.9-0.4,9.8-1.6V135.1z M90.8,122.3v12.8c0,1,0.6,2.1,3,2.1v0.2H81v-0.2c2.4,0,3.1-1.1,3.1-2.1v-12.8c0-2.3-0.9-3.5-2.9-3.5
		c-1.2,0-2.2,0.6-2.7,1.2v-0.2c0.9-1.7,3-3.3,6-3.3C88.4,116.5,90.8,118.3,90.8,122.3z M104.4,122.3v12.8c0,1,0.6,2.1,3.1,2.1v0.2
		H94.6v-0.2c2.4,0,3.1-1.1,3.1-2.1v-12.8c0-2.3-0.9-3.5-2.9-3.5c-1.1,0-2.2,0.6-2.7,1.2v-0.2c0.9-1.7,3-3.3,6-3.3
		C102,116.5,104.4,118.3,104.4,122.3z"/>
	<path class="st1" d="M118.5,143.7c0,1.5,0.7,2.2,3,2.2v0.2c-3.8,0-6.4,0.4-9.8,1.6v-27.2c0-1.5-0.7-2.2-3-2.2v-0.2
		c3.8,0,6.4-0.4,9.8-1.6V143.7z M134.1,127c0,8.6-4.5,10.9-8.4,10.9c-2.3,0-5-1.6-6-3.3v-0.2c1,0.8,2.1,1.4,3.4,1.4
		c1.9,0,4-1.4,4-8.7c0-7.4-1.9-8.4-4-8.4c-1.3,0-2.5,0.5-3.4,1.5v-0.3c1-1.7,3.7-3.3,6-3.3C129.7,116.5,134.1,118.8,134.1,127z"/>
	<path class="st1" d="M137.7,127.1c0-6.9,5.3-10.6,10.1-10.6v0.2c-2.4,0.3-3.1,2.3-3.1,10.2c0,5.9,2.6,9.2,6.3,9.2
		c2.3,0,4.1-0.7,6-2.2v0.2c-2.1,2.7-6,3.7-8.7,3.7C143,137.9,137.7,134,137.7,127.1z M147,125.4c3.6,0,5.1-1.1,5.1-4.6
		c0-2-0.8-3.8-2.7-4v-0.2c5.4,0,8,3.9,8,7c0,0.7-0.1,1.5-0.2,2.1H147V125.4z"/>
	<path class="st1" d="M170,135.1c0,1,0.6,2.1,3.1,2.1v0.2h-12.9v-0.2c2.5,0,3.1-1.1,3.1-2.1v-14.6c0-1.5-0.7-2.2-3-2.2v-0.2
		c3.8,0,6.9-0.4,9.8-1.6V135.1z M181,121c0,2.8-2,4.7-4.2,4.7c-1,0-1.8-0.2-2.3-0.9c0.8-0.4,1.6-1.3,1.6-2.8c0-1.2-0.9-2.2-2.3-2.2
		c-1.1,0-1.9,0.6-2.5,1.6V121c0.8-2.6,2.8-4.4,5.3-4.4C179.5,116.5,181,118.5,181,121z"/>
	<path class="st1" d="M208.5,132.6l0.2,0.3c-2.1,3.4-5.9,5-9.9,5c-6.7,0-15-4.8-15-14.3c0-10.4,8.1-14.2,14-14.4v0.2
		c-2.9,0.6-6,3.3-6,13.9c0,10.5,4.2,13,8.9,13C204.4,136.2,207.1,134.3,208.5,132.6z M208.8,109.1v10h-0.3c-1.6-5.5-4.6-8.6-8.7-9.7
		v-0.2c3.6,0.2,5.7,0.8,7.4,1.9l1.2-1.9H208.8z"/>
	<path class="st1" d="M212,132.6c0-3.6,3.3-5.6,7.9-5.6h4.4v0.2H223c-3,0-4.4,1.9-4.4,4.5c0,2.3,0.7,4,2.6,4c1.2,0,2.1-0.6,3-1.4
		v0.2c-1.4,1.6-3.5,3.3-6.5,3.3C214.3,137.9,211.9,135.9,212,132.6z M213.6,121c0-2.1,1.9-4.2,7.5-4.5v0.2c-1.6,0.2-2.6,1.6-2.6,3
		c0,1.5,1,2.4,2.7,2.5c-0.6,1.1-2.3,2-3.9,2C214.9,124.2,213.6,122.7,213.6,121z M225.5,133.2v-12.6c0-2-0.8-3.6-2.8-3.9v-0.2
		c6.8,0.2,9.5,2.8,9.5,8.2v10c0,1.2,0.4,1.7,1.1,1.7c0.6,0,1.3-0.6,2-1.8h0.2c-0.7,2.3-2.9,3.3-5.3,3.3
		C227,137.9,225.5,136.7,225.5,133.2z"/>
</g>
<g class="st0">
	<path class="st1" d="M246.7,135.1c0,1,0.6,2.1,3.1,2.1v0.2h-12.9v-0.2c2.5,0,3.1-1.1,3.1-2.1v-14.6c0-1.5-0.7-2.2-3-2.2v-0.2
		c3.8,0,6.9-0.4,9.8-1.6V135.1z M257.8,121c0,2.8-2,4.7-4.2,4.7c-1,0-1.8-0.2-2.3-0.9c0.8-0.4,1.6-1.3,1.6-2.8
		c0-1.2-0.9-2.2-2.3-2.2c-1.1,0-1.9,0.6-2.5,1.6V121c0.8-2.6,2.8-4.4,5.3-4.4C256.2,116.5,257.8,118.5,257.8,121z"/>
</g>
<g class="st0">
	<path class="st1" d="M260,127.1c0-6.9,5.3-10.6,10.1-10.6v0.2c-2.4,0.3-3.1,2.3-3.1,10.2c0,5.9,2.6,9.2,6.3,9.2
		c2.3,0,4.1-0.7,6-2.2v0.2c-2.1,2.7-6,3.7-8.7,3.7C265.3,137.9,260,134,260,127.1z M269.3,125.4c3.6,0,5.1-1.1,5.1-4.6
		c0-2-0.8-3.8-2.7-4v-0.2c5.4,0,8,3.9,8,7c0,0.7-0.1,1.5-0.2,2.1h-10.3V125.4z"/>
</g>
</svg>
