<?xml version="1.0" encoding="utf-8"?>
<!-- Generator: Adobe Illustrator 24.0.3, SVG Export Plug-In . SVG Version: 6.00 Build 0)  -->
<svg version="1.1" id="Layer_1" xmlns="http://www.w3.org/2000/svg" xmlns:xlink="http://www.w3.org/1999/xlink" x="0px" y="0px"
	 viewBox="0 0 320 480" style="enable-background:new 0 0 320 480;" xml:space="preserve">
<style type="text/css">
	.st0{fill:none;}
	.st1{enable-background:new    ;}
	.st2{fill:#FFFFFF;}
</style>
<title>Artboard 1</title>
<rect x="0.6" y="0" class="st0" width="320" height="480"/>
<g class="st1">
	<path class="st2" d="M16.8,55.1c2.5,0,3.1-0.9,3.1-2.1V29.8c0-1.2-0.6-2.1-3.1-2.1v-0.2h10.1V53c0,1.2,0.6,2.1,3.1,2.1v0.2H16.8
		V55.1z M28.9,27.7v-0.2h11.3v8.2h-0.3C38,29.8,35.1,28.1,28.9,27.7z M31.1,41.6l-2.3-0.2v-0.2l2.3-0.2c2.4-0.2,4.1-1.2,5.4-3.5h0.3
		v7.6h-0.3C35.2,42.7,33.6,41.8,31.1,41.6z"/>
</g>
<g class="st1">
	<path class="st2" d="M52.1,34.7c-2.4,0.3-3.2,2.3-3.2,10.3c0,7.7,0.8,10.3,3.2,10.5v0.2c-4.7,0-10.2-3.9-10.2-10.8
		s5.4-10.6,10.2-10.6V34.7z M63.9,45c0,6.9-5.5,10.8-10.2,10.8v-0.2C56.2,55.3,57,52.7,57,45c0-8-0.8-10.1-3.2-10.3v-0.2
		C58.5,34.4,63.9,38.1,63.9,45z"/>
</g>
<g class="st1">
	<path class="st2" d="M76.5,53c0,1,0.6,2.1,3.1,2.1v0.2H66.7v-0.2c2.5,0,3.1-1.1,3.1-2.1V38.4c0-1.5-0.7-2.2-3-2.2V36
		c3.8,0,6.9-0.4,9.8-1.6V53z M87.6,38.8c0,2.8-2,4.7-4.2,4.7c-1,0-1.8-0.2-2.3-0.9c0.8-0.4,1.6-1.3,1.6-2.8c0-1.2-0.9-2.2-2.3-2.2
		c-1.1,0-1.9,0.6-2.5,1.6v-0.3c0.8-2.6,2.8-4.4,5.3-4.4C86,34.4,87.6,36.4,87.6,38.8z"/>
</g>
<g class="st1">
	<path class="st2" d="M108.5,53c0,1,0.6,2.1,3.1,2.1v0.2H98.7v-0.2c2.5,0,3.1-1.1,3.1-2.1V38.4c0-1.5-0.7-2.2-3-2.2V36
		c3.8,0,6.9-0.4,9.8-1.6V53z M122.2,40.2V53c0,1,0.6,2.1,3,2.1v0.2h-12.9v-0.2c2.4,0,3.1-1.1,3.1-2.1V40.2c0-2.3-0.9-3.5-2.9-3.5
		c-1.2,0-2.2,0.6-2.7,1.2v-0.2c0.9-1.7,3-3.3,6-3.3C119.7,34.4,122.2,36.1,122.2,40.2z M135.8,40.2V53c0,1,0.6,2.1,3.1,2.1v0.2
		h-12.9v-0.2c2.4,0,3.1-1.1,3.1-2.1V40.2c0-2.3-0.9-3.5-2.9-3.5c-1.1,0-2.2,0.6-2.7,1.2v-0.2c0.9-1.7,3-3.3,6-3.3
		C133.3,34.4,135.8,36.1,135.8,40.2z"/>
	<path class="st2" d="M151.3,34.7C148.8,34.9,148,37,148,45c0,7.7,0.8,10.3,3.2,10.5v0.2c-4.7,0-10.2-3.9-10.2-10.8
		s5.4-10.6,10.2-10.6V34.7z M163.1,45c0,6.9-5.5,10.8-10.2,10.8v-0.2c2.4-0.2,3.2-2.8,3.2-10.5c0-8-0.8-10.1-3.2-10.3v-0.2
		C157.7,34.4,163.1,38.1,163.1,45z"/>
</g>
<g class="st1">
	<path class="st2" d="M175.7,53c0,1,0.6,2.1,3.1,2.1v0.2h-12.9v-0.2c2.5,0,3.1-1.1,3.1-2.1V38.4c0-1.5-0.7-2.2-3-2.2V36
		c3.8,0,6.9-0.4,9.8-1.6V53z M186.7,38.8c0,2.8-2,4.7-4.2,4.7c-1,0-1.8-0.2-2.3-0.9c0.8-0.4,1.6-1.3,1.6-2.8c0-1.2-0.9-2.2-2.3-2.2
		c-1.1,0-1.9,0.6-2.5,1.6v-0.3c0.8-2.6,2.8-4.4,5.3-4.4C185.2,34.4,186.7,36.4,186.7,38.8z"/>
</g>
<g class="st1">
	<path class="st2" d="M189,45c0-6.9,5.3-10.6,10.1-10.6v0.2c-2.4,0.3-3.1,2.3-3.1,10.2c0,5.9,2.6,9.2,6.3,9.2c2.3,0,4.1-0.7,6-2.2
		v0.2c-2.1,2.7-6,3.7-8.7,3.7C194.3,55.8,189,51.9,189,45z M198.2,43.3c3.6,0,5.1-1.1,5.1-4.6c0-2-0.8-3.8-2.7-4v-0.2
		c5.4,0,8,3.9,8,7c0,0.7-0.1,1.5-0.2,2.1h-10.3V43.3z"/>
</g>
<g class="st1">
	<path class="st2" d="M16.7,86.1c0-6.9,5.3-10.6,10.1-10.6v0.2c-2.4,0.3-3.1,2.3-3.1,10.2c0,5.9,2.6,9.2,6.3,9.2
		c2.3,0,4.1-0.7,6-2.2v0.2c-2.1,2.7-6,3.7-8.7,3.7C22,96.8,16.7,93,16.7,86.1z M26,84.3c3.6,0,5.1-1.1,5.1-4.6c0-2-0.8-3.8-2.7-4
		v-0.2c5.4,0,8,3.9,8,7c0,0.7-0.1,1.5-0.2,2.1H26V84.3z"/>
</g>
<g class="st1">
	<path class="st2" d="M39.8,77.6c-0.4-0.9-1-1.4-2.3-1.4v-0.2h11.5v0.2c-1.4,0-2,1-1.3,2.4l5.4,11.2l-3.5,6.7h-0.2L39.8,77.6z
		 M54.9,85.7c0.7-1.3,1.1-3.1,1.1-5.3c0-2.3-1.3-4.3-4.2-4.3v-0.2h10.2v0.2c-1.4,0-1.9,0.5-2.7,1.9l-4.3,8L54.9,85.7z"/>
</g>
<g class="st1">
	<path class="st2" d="M62.4,86.1c0-6.9,5.3-10.6,10.1-10.6v0.2c-2.4,0.3-3.1,2.3-3.1,10.2c0,5.9,2.6,9.2,6.3,9.2
		c2.3,0,4.1-0.7,6-2.2v0.2c-2.1,2.7-6,3.7-8.7,3.7C67.7,96.8,62.4,93,62.4,86.1z M71.6,84.3c3.6,0,5.1-1.1,5.1-4.6
		c0-2-0.8-3.8-2.7-4v-0.2c5.4,0,8,3.9,8,7c0,0.7-0.1,1.5-0.2,2.1H71.6V84.3z"/>
	<path class="st2" d="M94.6,94.1c0,1,0.6,2.1,3.1,2.1v0.2H84.8v-0.2c2.5,0,3.1-1.1,3.1-2.1V79.5c0-1.5-0.7-2.2-3-2.2v-0.2
		c3.8,0,6.9-0.4,9.8-1.6V94.1z M105.7,79.9c0,2.8-2,4.7-4.2,4.7c-1,0-1.8-0.2-2.3-0.9c0.8-0.4,1.6-1.3,1.6-2.8
		c0-1.2-0.9-2.2-2.3-2.2c-1.1,0-1.9,0.6-2.5,1.6v-0.3c0.8-2.6,2.8-4.4,5.3-4.4C104.1,75.5,105.7,77.4,105.7,79.9z"/>
	<path class="st2" d="M108.5,77.6c-0.4-0.9-1-1.4-2.3-1.4v-0.2h11.5v0.2c-1.4,0-2,1-1.3,2.4l5.4,11.2l-3.5,6.7H118L108.5,77.6z
		 M106.7,103c0-1.8,1.4-3.2,3.6-3.9c-0.1,0.4-0.2,0.7-0.2,1c0,1.6,0.8,2.8,2.4,2.8c1.4,0,2.6-1.5,4.1-4.1h0.3
		c-2.3,4.2-3.8,7.9-6.7,7.9C108,106.7,106.7,105.1,106.7,103z M123.5,85.7c0.7-1.3,1.1-3.1,1.1-5.3c0-2.3-1.3-4.3-4.2-4.3v-0.2h10.2
		v0.2c-1.4,0-1.9,0.5-2.7,1.9l-4.3,8L123.5,85.7z"/>
	<path class="st2" d="M146.8,93.2v0.2c-1.3,1.9-3.9,3.3-7,3.3c-3.7,0-6.3-1.7-6.3-5.8V77.6h-2.1l0.5-0.6h1.7v-4.4
		c2.5,0,5-0.8,6.7-2.3v6.7h5.5l-0.5,0.6h-5.1v13.6c0,2.1,0.8,4.2,2.7,4.2C144.1,95.3,145.4,94.6,146.8,93.2z"/>
	<path class="st2" d="M157.4,94.1c0,1,0.6,2.1,3.1,2.1v0.2h-12.9v-0.2c2.5,0,3.1-1.1,3.1-2.1V70.3c0-1.5-0.7-2.2-3-2.2v-0.2
		c3.8,0,6.9-0.4,9.8-1.6V94.1z M171.8,81.3v12.8c0,1,0.6,2.1,3.1,2.1v0.2H162v-0.2c2.4,0,3-1.1,3-2.1V81.3c0-2.3-1.2-3.5-3.2-3.5
		c-1.1,0-2.1,0.4-3.1,1.3v-0.2c1.1-1.7,3.8-3.3,6.8-3.3C169.1,75.5,171.8,77.2,171.8,81.3z"/>
	<path class="st2" d="M176.4,77c3.8,0,6.9-0.4,9.8-1.6v18.6c0,1,0.6,2.1,3.1,2.1v0.2h-12.9v-0.2c2.5,0,3.1-1.1,3.1-2.1V79.5
		c0-1.5-0.7-2.2-3-2.2V77z M178.5,69.3c0-2.1,1.7-3.6,4.2-3.6s4.2,1.4,4.2,3.6c0,2.2-1.7,3.6-4.2,3.6S178.5,71.5,178.5,69.3z"/>
	<path class="st2" d="M191,96.2c2.5,0,3.1-1.1,3.1-2.1V79.5c0-1.5-0.7-2.2-3-2.2v-0.2c3.8,0,6.9-0.4,9.8-1.6v18.6
		c0,1,0.6,2.1,3.1,2.1v0.2H191V96.2z M205.5,96.2c2.4,0,3-1.1,3-2.1V81.3c0-2.3-1.2-3.5-3.2-3.5c-1.2,0-2.1,0.4-3.1,1.3v-0.2
		c1.1-1.7,3.8-3.3,6.8-3.3c3.7,0,6.3,1.7,6.3,5.8v12.8c0,1,0.6,2.1,3.1,2.1v0.2h-12.9V96.2z"/>
	<path class="st2" d="M220.8,82.9c0-5.3,5-7.4,9.2-7.4v0.2c-1.8,0.2-2.6,2.3-2.6,7.1c0,5,0.8,7,2.6,7.1v0.2
		C225.8,90.2,220.8,88.2,220.8,82.9z M231.7,106.4c4.1-0.5,5.4-2.7,5.4-4.2c0-5.7-16-0.6-16-8c0-1.7,0.9-3,2.8-4.2l0.1,0.2
		c-0.2,0.2-0.4,0.5-0.4,0.8c0,4.6,18.7-0.7,18.7,8.2c0,4.2-3.7,7-10.6,7.4V106.4z M221.1,103c0-2.4,3-3.2,6.2-3.2
		c-0.7,0.3-1.8,1.5-1.8,2.9c0,1.9,2.1,3.3,4.5,3.7v0.2C225.7,106.6,221.1,105.7,221.1,103z M231.7,89.9c2-0.2,2.8-2.2,2.8-7.1
		c0-4.8-0.9-6.9-2.8-7.1v-0.2c4.4,0.1,9.4,2.1,9.4,7.4c0,5.3-5.1,7.3-9.4,7.3V89.9z M233.9,74.7c0.7-2.1,2.6-4.9,5.4-4.9
		c2.2,0,3.5,1.1,3.5,3.1c0,2-1.8,3.2-3.3,3.2c0-1.7-0.9-2.8-2.2-2.8c-1.2,0-2.6,0.7-3.2,1.5L233.9,74.7z"/>
</g>
<g class="st1">
	<path class="st2" d="M31.9,134.3v0.2c-1.3,1.9-3.9,3.3-7,3.3c-3.7,0-6.3-1.7-6.3-5.8v-13.5h-2.1l0.5-0.6h1.7v-4.4
		c2.5,0,5-0.8,6.7-2.3v6.7h5.5l-0.5,0.6h-5.1v13.6c0,2.1,0.8,4.2,2.7,4.2C29.2,136.4,30.6,135.7,31.9,134.3z"/>
	<path class="st2" d="M42.5,135.1c0,1,0.6,2.1,3.1,2.1v0.2H32.7v-0.2c2.5,0,3.1-1.1,3.1-2.1v-23.8c0-1.5-0.7-2.2-3-2.2v-0.2
		c3.8,0,6.9-0.4,9.8-1.6V135.1z M56.9,122.3v12.8c0,1,0.6,2.1,3.1,2.1v0.2H47.1v-0.2c2.4,0,3-1.1,3-2.1v-12.8c0-2.3-1.2-3.5-3.2-3.5
		c-1.1,0-2.1,0.4-3.1,1.3v-0.2c1.1-1.7,3.8-3.3,6.8-3.3C54.3,116.5,56.9,118.3,56.9,122.3z"/>
	<path class="st2" d="M61.8,132.6c0-3.6,3.3-5.6,7.9-5.6h4.4v0.2h-1.2c-3,0-4.4,1.9-4.4,4.5c0,2.3,0.7,4,2.6,4c1.1,0,2.1-0.6,3-1.4
		v0.2c-1.4,1.6-3.5,3.3-6.5,3.3C64.1,137.9,61.7,135.9,61.8,132.6z M63.4,121c0-2.1,1.9-4.2,7.5-4.5v0.2c-1.6,0.2-2.6,1.6-2.6,3
		c0,1.5,1,2.4,2.7,2.5c-0.6,1.1-2.3,2-3.9,2C64.7,124.2,63.4,122.7,63.4,121z M75.3,133.2v-12.6c0-2-0.8-3.6-2.8-3.9v-0.2
		c6.8,0.2,9.5,2.8,9.5,8.2v10c0,1.2,0.4,1.7,1.1,1.7c0.6,0,1.3-0.6,2-1.8h0.2c-0.7,2.3-2.9,3.3-5.3,3.3
		C76.8,137.9,75.3,136.7,75.3,133.2z"/>
	<path class="st2" d="M86.7,137.2c2.5,0,3.1-1.1,3.1-2.1v-14.6c0-1.5-0.7-2.2-3-2.2v-0.2c3.8,0,6.9-0.4,9.8-1.6v18.6
		c0,1,0.6,2.1,3.1,2.1v0.2H86.7V137.2z M101.1,137.2c2.4,0,3-1.1,3-2.1v-12.8c0-2.3-1.2-3.5-3.2-3.5c-1.1,0-2.1,0.4-3.1,1.3v-0.2
		c1.1-1.7,3.8-3.3,6.8-3.3c3.7,0,6.3,1.7,6.3,5.8v12.8c0,1,0.6,2.1,3.1,2.1v0.2h-12.9V137.2z"/>
	<path class="st2" d="M126.3,132.6c0-3.6,3.3-5.6,7.9-5.6h4.4v0.2h-1.2c-3,0-4.4,1.9-4.4,4.5c0,2.3,0.7,4,2.6,4c1.1,0,2.1-0.6,3-1.4
		v0.2c-1.4,1.6-3.5,3.3-6.5,3.3C128.6,137.9,126.2,135.9,126.3,132.6z M127.9,121c0-2.1,1.9-4.2,7.5-4.5v0.2c-1.6,0.2-2.6,1.6-2.6,3
		c0,1.5,1,2.4,2.7,2.5c-0.6,1.1-2.3,2-3.9,2C129.2,124.2,127.9,122.7,127.9,121z M139.8,133.2v-12.6c0-2-0.8-3.6-2.8-3.9v-0.2
		c6.8,0.2,9.5,2.8,9.5,8.2v10c0,1.2,0.4,1.7,1.1,1.7c0.6,0,1.3-0.6,2-1.8h0.2c-0.7,2.3-2.9,3.3-5.3,3.3
		C141.3,137.9,139.8,136.7,139.8,133.2z"/>
</g>
<g class="st1">
	<path class="st2" d="M151.2,137.2c2.5,0,3.1-1.1,3.1-2.1v-14.6c0-1.5-0.7-2.2-3-2.2v-0.2c3.8,0,6.9-0.4,9.8-1.6v18.6
		c0,1,0.6,2.1,3.1,2.1v0.2h-12.9V137.2z M165.6,137.2c2.4,0,3-1.1,3-2.1v-12.8c0-2.3-1.2-3.5-3.2-3.5c-1.2,0-2.1,0.4-3.1,1.3v-0.2
		c1.1-1.7,3.8-3.3,6.8-3.3c3.7,0,6.3,1.7,6.3,5.8v12.8c0,1,0.6,2.1,3.1,2.1v0.2h-12.9V137.2z"/>
</g>
<g class="st1">
	<path class="st2" d="M180.1,118.6c-0.4-0.9-1-1.4-2.3-1.4v-0.2h11.5v0.2c-1.4,0-2,1-1.3,2.4l5.4,11.2l-3.5,6.7h-0.2L180.1,118.6z
		 M178.3,144.1c0-1.8,1.4-3.2,3.6-3.9c-0.1,0.4-0.2,0.7-0.2,1c0,1.6,0.8,2.8,2.4,2.8c1.4,0,2.6-1.5,4.1-4.1h0.3
		c-2.3,4.2-3.8,7.9-6.7,7.9C179.6,147.7,178.3,146.2,178.3,144.1z M195.2,126.8c0.7-1.3,1.2-3.1,1.2-5.3c0-2.3-1.3-4.3-4.2-4.3v-0.2
		h10.2v0.2c-1.4,0-1.9,0.5-2.7,1.9l-4.3,8L195.2,126.8z"/>
</g>
<g class="st1">
	<path class="st2" d="M212.8,116.8c-2.4,0.3-3.2,2.3-3.2,10.3c0,7.7,0.8,10.3,3.2,10.5v0.2c-4.7,0-10.2-3.9-10.2-10.8
		c0-6.9,5.4-10.6,10.2-10.6V116.8z M224.6,127.1c0,6.9-5.5,10.8-10.2,10.8v-0.2c2.4-0.2,3.2-2.8,3.2-10.5c0-8-0.8-10.1-3.2-10.3
		v-0.2C219.2,116.5,224.6,120.2,224.6,127.1z"/>
	<path class="st2" d="M227.3,137.2c2.5,0,3.1-1.1,3.1-2.1v-14.6c0-1.5-0.7-2.2-3-2.2v-0.2c3.8,0,6.9-0.4,9.8-1.6v18.6
		c0,1,0.6,2.1,3.1,2.1v0.2h-12.9V137.2z M241.8,137.2c2.4,0,3-1.1,3-2.1v-12.8c0-2.3-1.2-3.5-3.2-3.5c-1.2,0-2.1,0.4-3.1,1.3v-0.2
		c1.1-1.7,3.8-3.3,6.8-3.3c3.7,0,6.3,1.7,6.3,5.8v12.8c0,1,0.6,2.1,3.1,2.1v0.2h-12.9V137.2z"/>
	<path class="st2" d="M256.9,127.1c0-6.9,5.3-10.6,10.1-10.6v0.2c-2.4,0.3-3.1,2.3-3.1,10.2c0,5.9,2.6,9.2,6.3,9.2
		c2.3,0,4.1-0.7,6-2.2v0.2c-2.1,2.7-6,3.7-8.7,3.7C262.2,137.9,256.9,134,256.9,127.1z M266.1,125.4c3.6,0,5.1-1.1,5.1-4.6
		c0-2-0.8-3.8-2.7-4v-0.2c5.4,0,8,3.9,8,7c0,0.7-0.1,1.5-0.2,2.1h-10.3V125.4z"/>
</g>
<g class="st1">
	<path class="st2" d="M16.7,168.2c0-6.9,5.3-10.6,10.1-10.6v0.2c-2.4,0.3-3.1,2.3-3.1,10.2c0,5.9,2.6,9.2,6.3,9.2
		c2.3,0,4.1-0.7,6-2.2v0.2c-2.1,2.7-6,3.7-8.7,3.7C22,178.9,16.7,175.1,16.7,168.2z M26,166.5c3.6,0,5.1-1.1,5.1-4.6
		c0-2-0.8-3.8-2.7-4v-0.2c5.4,0,8,3.9,8,7c0,0.7-0.1,1.5-0.2,2.1H26V166.5z"/>
	<path class="st2" d="M38.9,150c3.8,0,6.9-0.4,9.8-1.6v27.8c0,1,0.6,2.1,3.1,2.1v0.2H38.9v-0.2c2.5,0,3.1-1.1,3.1-2.1v-23.8
		c0-1.5-0.7-2.2-3-2.2V150z"/>
	<path class="st2" d="M61.4,173.6c-1.4,0-2.3,0.8-2.3,2.1c0,1.2,0.8,2.7,3.7,3v0.2c-5.5-0.2-8.5-1.7-8.5-4.1c0-1.9,1.6-3,3.5-3
		C59.4,171.8,60.8,172.6,61.4,173.6z M62.8,157.8c-1.5,0.3-3,1.1-3,2.8c0.1,4.8,13.4,5.5,13.4,12.1c0,4-3.4,6.1-8.7,6.3v-0.2
		c1.7-0.3,3.7-0.9,3.7-3c0-4.3-13.5-5.8-13.5-12.1c0-3.6,3.4-5.8,8-6V157.8z M72.4,161.8c0,1.3-1,2.5-3,2.5c-1.7,0-3-0.7-3.5-2
		c1.2-0.1,1.9-0.9,1.8-1.9c0-1.2-1.6-2.4-3.2-2.6v-0.2C69.2,157.8,72.4,159.5,72.4,161.8z"/>
	<path class="st2" d="M76.7,168.2c0-6.9,5.3-10.6,10.1-10.6v0.2c-2.4,0.3-3.1,2.3-3.1,10.2c0,5.9,2.6,9.2,6.3,9.2
		c2.3,0,4.1-0.7,6-2.2v0.2c-2.1,2.7-6,3.7-8.7,3.7C82,178.9,76.7,175.1,76.7,168.2z M85.9,166.5c3.6,0,5.1-1.1,5.1-4.6
		c0-2-0.8-3.8-2.7-4v-0.2c5.4,0,8,3.9,8,7c0,0.7-0.1,1.5-0.2,2.1H85.9V166.5z"/>
</g>
</svg>
