<svg id="Layer_1" data-name="Layer 1" xmlns="http://www.w3.org/2000/svg" viewBox="0 0 320 480"><defs><style>.cls-1{fill:#fff;}</style></defs><title>Artboard 1 copy</title><path class="cls-1" d="M52.79,92.25l.14.28a9.62,9.62,0,0,1-8.44,4.23c-5.7,0-12.81-4.06-12.81-12.21,0-8.86,6.93-12.15,12-12.29v.21c-2.45.53-5.11,2.84-5.11,11.83s3.61,11.06,7.56,11.06A8.61,8.61,0,0,0,52.79,92.25Zm.28-20v8.51h-.28c-1.37-4.66-4-7.35-7.39-8.3v-.21c3.05.14,4.9.67,6.34,1.61l1-1.61Z"/><path class="cls-1" d="M63.64,94.42c0,.87.52,1.78,2.62,1.78v.21h-11V96.2c2.11,0,2.63-.91,2.63-1.78V74.12c0-1.27-.6-1.86-2.59-1.86v-.21a21.58,21.58,0,0,0,8.37-1.36ZM75.89,83.5V94.42c0,.87.52,1.78,2.62,1.78v.21h-11V96.2c2.07,0,2.59-.91,2.59-1.78V83.5c0-2-1-3-2.76-3a3.74,3.74,0,0,0-2.66,1.09V81.4a7.14,7.14,0,0,1,5.81-2.84C73.65,78.56,75.89,80,75.89,83.5Z"/><path class="cls-1" d="M89.12,78.77c-2.07.25-2.77,2-2.77,8.82,0,6.58.7,8.75,2.77,9v.21a8.92,8.92,0,0,1-8.72-9.17,8.78,8.78,0,0,1,8.72-9ZM99.2,87.59a8.92,8.92,0,0,1-8.68,9.17v-.21c2.06-.21,2.73-2.41,2.73-9,0-6.86-.7-8.61-2.73-8.82v-.21A8.72,8.72,0,0,1,99.2,87.59Z"/><path class="cls-1" d="M110.85,78.77c-2.07.25-2.77,2-2.77,8.82,0,6.58.7,8.75,2.77,9v.21a8.92,8.92,0,0,1-8.72-9.17,8.78,8.78,0,0,1,8.72-9Zm10.08,8.82a8.91,8.91,0,0,1-8.68,9.17v-.21c2.06-.21,2.73-2.41,2.73-9,0-6.86-.7-8.61-2.73-8.82v-.21A8.72,8.72,0,0,1,120.93,87.59Z"/><path class="cls-1" d="M130,92.25A1.79,1.79,0,0,0,128,94c0,1,.7,2.31,3.11,2.55v.21c-4.65-.17-7.21-1.43-7.21-3.46a2.73,2.73,0,0,1,3-2.59A3.56,3.56,0,0,1,130,92.25Zm1.15-13.48c-1.29.25-2.55.91-2.52,2.35C128.7,85.18,140,85.84,140,91.41c0,3.39-2.87,5.18-7.39,5.35v-.21c1.47-.24,3.12-.77,3.12-2.59,0-3.64-11.48-5-11.48-10.29,0-3.08,2.9-4.93,6.82-5.11Zm8.26,3.4a2.29,2.29,0,0,1-2.59,2.17,3,3,0,0,1-3-1.68A1.55,1.55,0,0,0,135.38,81c0-1.05-1.33-2.06-2.73-2.24v-.21C136.61,78.77,139.37,80.21,139.37,82.17Z"/><path class="cls-1" d="M143,87.59a8.67,8.67,0,0,1,8.57-9v.21c-2.06.25-2.62,2-2.62,8.68,0,5,2.24,7.81,5.35,7.81a7.58,7.58,0,0,0,5.11-1.86v.21c-1.82,2.31-5.14,3.15-7.42,3.15A8.87,8.87,0,0,1,143,87.59Zm7.87-1.47c3.08,0,4.38-1,4.38-3.92,0-1.68-.7-3.22-2.28-3.43v-.21c4.62,0,6.86,3.29,6.86,6a10.8,10.8,0,0,1-.17,1.82h-8.79Z"/><path class="cls-1" d="M40.4,135.55v.21a13.24,13.24,0,0,1-6.79-1.71l-1.16,1.71h-.28v-8.54h.28A11.73,11.73,0,0,0,40.4,135.55Zm10.29-7c0,4.51-3.36,7-8.79,7.17v-.21c1.93-.35,3.82-1.47,3.82-3.57,0-6.12-13.37-6.68-13.37-13.79,0-4.2,3.39-6.62,8-6.93v.21a3.31,3.31,0,0,0-3.08,3.22C37.32,120.82,50.69,121.48,50.69,128.59ZM41.9,111.47v-.21a11.2,11.2,0,0,1,6.3,1.86l1.26-1.86h.28v7.81h-.28A11.14,11.14,0,0,0,41.9,111.47Z"/><path class="cls-1" d="M66.65,132.72v.21a7.32,7.32,0,0,1-6,2.83c-3.15,0-5.39-1.43-5.39-4.93V119.35H53.45l.39-.53h1.43V115a8.8,8.8,0,0,0,5.74-2v5.74h4.73l-.39.53H61v11.58c0,1.75.67,3.57,2.31,3.57A5.2,5.2,0,0,0,66.65,132.72Z"/><path class="cls-1" d="M67.76,131.28c0-3,2.8-4.76,6.73-4.76h3.78v.21h-1c-2.52,0-3.71,1.65-3.71,3.82,0,1.92.56,3.39,2.2,3.39a3.84,3.84,0,0,0,2.56-1.22v.21a7.45,7.45,0,0,1-5.57,2.83C69.72,135.76,67.73,134.08,67.76,131.28Zm1.41-9.9c0-1.79,1.6-3.61,6.37-3.82v.21a2.56,2.56,0,0,0-2.24,2.56c0,1.26.87,2,2.27,2.13a3.93,3.93,0,0,1-3.36,1.68A2.8,2.8,0,0,1,69.17,121.38Zm10.15,10.43V121.1c0-1.72-.67-3.08-2.38-3.33v-.21c5.81.21,8.12,2.42,8.12,7v8.51c0,1,.35,1.43,1,1.43s1.12-.52,1.68-1.57h.21c-.56,1.92-2.45,2.83-4.55,2.83C80.58,135.76,79.32,134.78,79.32,131.81Z"/><path class="cls-1" d="M97.41,133.42c0,.87.53,1.78,2.63,1.78v.21H89v-.21c2.1,0,2.62-.91,2.62-1.78V121c0-1.26-.59-1.85-2.59-1.85v-.21a21.32,21.32,0,0,0,8.37-1.37Zm9.45-12.08a3.74,3.74,0,0,1-3.6,4,2.39,2.39,0,0,1-2-.77,2.55,2.55,0,0,0,1.37-2.38,1.86,1.86,0,0,0-2-1.89,2.41,2.41,0,0,0-2.1,1.33v-.28a4.84,4.84,0,0,1,4.55-3.78A3.55,3.55,0,0,1,106.86,121.34Z"/><path class="cls-1" d="M52.79,170.25l.14.28a9.62,9.62,0,0,1-8.44,4.23c-5.7,0-12.81-4.06-12.81-12.21,0-8.86,6.93-12.15,12-12.29v.21c-2.45.53-5.11,2.84-5.11,11.83s3.61,11.06,7.56,11.06A8.61,8.61,0,0,0,52.79,170.25Zm.28-20v8.51h-.28c-1.37-4.66-4-7.35-7.39-8.3v-.21c3.05.14,4.9.67,6.34,1.61l1-1.61Z"/><path class="cls-1" d="M55.72,170.28c0-3,2.8-4.76,6.73-4.76h3.78v.21h-1c-2.52,0-3.71,1.65-3.71,3.82,0,1.92.56,3.39,2.2,3.39a3.84,3.84,0,0,0,2.56-1.22v.21a7.45,7.45,0,0,1-5.57,2.83C57.68,174.76,55.69,173.08,55.72,170.28Zm1.41-9.9c0-1.79,1.6-3.61,6.37-3.82v.21a2.56,2.56,0,0,0-2.24,2.56c0,1.26.87,2,2.27,2.13a3.93,3.93,0,0,1-3.36,1.68A2.8,2.8,0,0,1,57.13,160.38Zm10.15,10.43V160.1c0-1.72-.67-3.08-2.38-3.33v-.21c5.81.21,8.12,2.42,8.12,7v8.51c0,1,.35,1.43,1,1.43s1.12-.52,1.68-1.57h.21c-.56,1.92-2.45,2.83-4.55,2.83C68.54,174.76,67.28,173.78,67.28,170.81Z"/><path class="cls-1" d="M85.37,172.42c0,.87.53,1.78,2.63,1.78v.21H77v-.21c2.1,0,2.62-.91,2.62-1.78V160c0-1.26-.59-1.85-2.59-1.85v-.21a21.36,21.36,0,0,0,8.37-1.37ZM97,161.5v10.92c0,.87.49,1.78,2.59,1.78v.21h-11v-.21c2.07,0,2.63-.91,2.63-1.78V161.5c0-2-.77-3-2.45-3a3.07,3.07,0,0,0-2.31,1v-.21a5.65,5.65,0,0,1,5.11-2.8C94.89,156.56,97,158,97,161.5Zm11.59,0v10.92c0,.87.52,1.78,2.62,1.78v.21h-11v-.21c2.06,0,2.62-.91,2.62-1.78V161.5c0-2-.77-3-2.45-3a3.08,3.08,0,0,0-2.31,1v-.21a5.67,5.67,0,0,1,5.11-2.8C106.48,156.56,108.58,158,108.58,161.5Z"/><path class="cls-1" d="M120.54,179.73c0,1.26.6,1.86,2.59,1.86v.21a23,23,0,0,0-8.36,1.36V160c0-1.26-.6-1.86-2.59-1.86v-.21a23,23,0,0,0,8.36-1.36Zm13.34-14.24c0,7.31-3.85,9.27-7.17,9.27a6.58,6.58,0,0,1-5.12-2.83v-.21a5,5,0,0,0,3,1.22c1.64,0,3.39-1.15,3.39-7.45s-1.64-7.14-3.39-7.14a4,4,0,0,0-3,1.29v-.28a6.55,6.55,0,0,1,5.12-2.8C130.1,156.56,133.88,158.52,133.88,165.49Z"/><path class="cls-1" d="M137,165.59a8.67,8.67,0,0,1,8.57-9v.21c-2.06.25-2.62,2-2.62,8.68,0,5,2.24,7.81,5.35,7.81a7.62,7.62,0,0,0,5.12-1.86v.21c-1.82,2.31-5.15,3.15-7.43,3.15A8.87,8.87,0,0,1,137,165.59Zm7.87-1.47c3.08,0,4.38-1,4.38-3.92,0-1.68-.7-3.22-2.28-3.43v-.21c4.63,0,6.87,3.29,6.87,5.95a9.85,9.85,0,0,1-.18,1.82h-8.79Z"/><path class="cls-1" d="M164.43,172.42c0,.87.53,1.78,2.63,1.78v.21H156v-.21c2.1,0,2.63-.91,2.63-1.78V160c0-1.26-.6-1.85-2.59-1.85v-.21a21.3,21.3,0,0,0,8.36-1.37Zm9.45-12.08a3.74,3.74,0,0,1-3.6,4,2.39,2.39,0,0,1-2-.77,2.55,2.55,0,0,0,1.37-2.38,1.86,1.86,0,0,0-2-1.89,2.41,2.41,0,0,0-2.1,1.33v-.28a4.84,4.84,0,0,1,4.55-3.78A3.55,3.55,0,0,1,173.88,160.34Z"/><path class="cls-1" d="M197.3,170.25l.14.28a9.62,9.62,0,0,1-8.44,4.23c-5.7,0-12.81-4.06-12.81-12.21,0-8.86,6.93-12.15,12-12.29v.21c-2.45.53-5.11,2.84-5.11,11.83s3.61,11.06,7.56,11.06A8.61,8.61,0,0,0,197.3,170.25Zm.28-20v8.51h-.28c-1.37-4.66-4-7.35-7.39-8.3v-.21c3.05.14,4.9.67,6.34,1.61l1.05-1.61Z"/><path class="cls-1" d="M200.24,170.28c0-3,2.8-4.76,6.72-4.76h3.78v.21h-1.05c-2.52,0-3.71,1.65-3.71,3.82,0,1.92.56,3.39,2.2,3.39a3.84,3.84,0,0,0,2.56-1.22v.21a7.45,7.45,0,0,1-5.57,2.83C202.2,174.76,200.2,173.08,200.24,170.28Zm1.4-9.9c0-1.79,1.61-3.61,6.37-3.82v.21a2.56,2.56,0,0,0-2.24,2.56c0,1.26.87,2,2.27,2.13a3.93,3.93,0,0,1-3.36,1.68A2.8,2.8,0,0,1,201.64,160.38Zm10.15,10.43V160.1c0-1.72-.67-3.08-2.38-3.33v-.21c5.81.21,8.12,2.42,8.12,7v8.51c0,1,.35,1.43,1,1.43s1.12-.52,1.68-1.57h.21c-.56,1.92-2.45,2.83-4.55,2.83C213.05,174.76,211.79,173.78,211.79,170.81Z"/><path class="cls-1" d="M229.88,172.42c0,.87.53,1.78,2.63,1.78v.21h-11v-.21c2.1,0,2.63-.91,2.63-1.78V160c0-1.26-.6-1.85-2.59-1.85v-.21a21.3,21.3,0,0,0,8.36-1.37Zm9.45-12.08a3.74,3.74,0,0,1-3.6,4,2.39,2.39,0,0,1-2-.77,2.55,2.55,0,0,0,1.37-2.38,1.86,1.86,0,0,0-2-1.89,2.41,2.41,0,0,0-2.1,1.33v-.28a4.84,4.84,0,0,1,4.55-3.78A3.55,3.55,0,0,1,239.33,160.34Z"/><path class="cls-1" d="M241.22,165.59a8.67,8.67,0,0,1,8.58-9v.21c-2.07.25-2.63,2-2.63,8.68,0,5,2.24,7.81,5.36,7.81a7.62,7.62,0,0,0,5.11-1.86v.21c-1.82,2.31-5.15,3.15-7.42,3.15A8.87,8.87,0,0,1,241.22,165.59Zm7.88-1.47c3.08,0,4.37-1,4.37-3.92,0-1.68-.7-3.22-2.27-3.43v-.21c4.62,0,6.86,3.29,6.86,5.95a9.85,9.85,0,0,1-.18,1.82H249.1Z"/></svg>