<svg id="Layer_1" data-name="Layer 1" xmlns="http://www.w3.org/2000/svg" viewBox="0 0 320 480"><defs><style>.cls-1{fill:none;}.cls-2{fill:#fff;}</style></defs><title>Artboard 1</title><rect class="cls-1" x="0.62" width="320" height="480"/><path class="cls-2" d="M31.5,57.2c2.11,0,2.63-.8,2.63-1.78V35.6c0-1-.52-1.78-2.63-1.78v-.21h8.58V55.42c0,1,.53,1.78,2.63,1.78v.21H31.5ZM41.83,33.82v-.21h9.63v7h-.28C49.57,35.64,47.15,34.17,41.83,33.82Zm1.93,11.9-1.93-.17v-.21l1.93-.18a5.38,5.38,0,0,0,4.62-3h.28v6.51h-.28A5.35,5.35,0,0,0,43.76,45.72Z"/><path class="cls-2" d="M61.64,39.77c-2.06.25-2.76,2-2.76,8.82,0,6.58.7,8.75,2.76,9v.21a8.93,8.93,0,0,1-8.72-9.17,8.78,8.78,0,0,1,8.72-9Zm10.08,8.82A8.91,8.91,0,0,1,63,57.76v-.21c2.07-.21,2.73-2.41,2.73-9,0-6.86-.7-8.61-2.73-8.82v-.21A8.72,8.72,0,0,1,71.72,48.59Z"/><path class="cls-2" d="M82.43,55.42c0,.87.53,1.78,2.63,1.78v.21H74V57.2c2.1,0,2.62-.91,2.62-1.78V43c0-1.26-.59-1.85-2.59-1.85v-.21a21.32,21.32,0,0,0,8.37-1.37Zm9.45-12.08a3.74,3.74,0,0,1-3.6,4,2.39,2.39,0,0,1-2-.77,2.55,2.55,0,0,0,1.37-2.38,1.86,1.86,0,0,0-2-1.89,2.41,2.41,0,0,0-2.1,1.33v-.28a4.84,4.84,0,0,1,4.55-3.78A3.55,3.55,0,0,1,91.88,43.34Z"/><path class="cls-2" d="M109.73,55.42c0,.87.53,1.78,2.63,1.78v.21h-11V57.2c2.1,0,2.62-.91,2.62-1.78V43c0-1.26-.59-1.85-2.59-1.85v-.21a21.36,21.36,0,0,0,8.37-1.37ZM121.35,44.5V55.42c0,.87.49,1.78,2.59,1.78v.21H113V57.2c2.07,0,2.63-.91,2.63-1.78V44.5c0-2-.77-3-2.45-3a3.07,3.07,0,0,0-2.31,1v-.21a5.65,5.65,0,0,1,5.11-2.8C119.25,39.56,121.35,41,121.35,44.5Zm11.59,0V55.42c0,.87.52,1.78,2.62,1.78v.21h-11V57.2c2.06,0,2.62-.91,2.62-1.78V44.5c0-2-.77-3-2.45-3a3.08,3.08,0,0,0-2.31,1v-.21a5.67,5.67,0,0,1,5.11-2.8C130.84,39.56,132.94,41,132.94,44.5Z"/><path class="cls-2" d="M146.16,39.77c-2.06.25-2.76,2-2.76,8.82,0,6.58.7,8.75,2.76,9v.21a8.92,8.92,0,0,1-8.71-9.17,8.77,8.77,0,0,1,8.71-9Zm10.09,8.82a8.92,8.92,0,0,1-8.68,9.17v-.21c2.06-.21,2.73-2.41,2.73-9,0-6.86-.7-8.61-2.73-8.82v-.21A8.72,8.72,0,0,1,156.25,48.59Z"/><path class="cls-2" d="M167,55.42c0,.87.53,1.78,2.63,1.78v.21h-11V57.2c2.1,0,2.63-.91,2.63-1.78V43c0-1.26-.6-1.85-2.59-1.85v-.21A21.3,21.3,0,0,0,167,39.56Zm9.46-12.08a3.75,3.75,0,0,1-3.61,4,2.4,2.4,0,0,1-2-.77,2.55,2.55,0,0,0,1.37-2.38,1.86,1.86,0,0,0-2-1.89,2.41,2.41,0,0,0-2.1,1.33v-.28a4.84,4.84,0,0,1,4.55-3.78A3.55,3.55,0,0,1,176.41,43.34Z"/><path class="cls-2" d="M178.29,48.59a8.67,8.67,0,0,1,8.58-9v.21c-2.07.25-2.63,2-2.63,8.68,0,5,2.24,7.81,5.36,7.81a7.6,7.6,0,0,0,5.11-1.86v.21c-1.82,2.31-5.15,3.15-7.42,3.15A8.87,8.87,0,0,1,178.29,48.59Zm7.88-1.47c3.08,0,4.37-1,4.37-3.92,0-1.68-.7-3.22-2.27-3.43v-.21c4.62,0,6.86,3.29,6.86,5.95a9.85,9.85,0,0,1-.18,1.82h-8.78Z"/><path class="cls-2" d="M31.47,87.59a8.67,8.67,0,0,1,8.58-9v.21c-2.07.25-2.63,2-2.63,8.68,0,5,2.24,7.81,5.36,7.81a7.62,7.62,0,0,0,5.11-1.86v.21c-1.82,2.31-5.15,3.15-7.42,3.15A8.87,8.87,0,0,1,31.47,87.59Zm7.88-1.47c3.08,0,4.37-1,4.37-3.92,0-1.68-.7-3.22-2.27-3.43v-.21c4.62,0,6.86,3.29,6.86,6a9.85,9.85,0,0,1-.18,1.82H39.35Z"/><path class="cls-2" d="M51.18,80.35a1.9,1.9,0,0,0-1.93-1.23v-.21h9.8v.21c-1.22,0-1.71.84-1.12,2.07l4.59,9.55-3,5.67H59.3Zm12.81,7a9.64,9.64,0,0,0,1-4.51,3.39,3.39,0,0,0-3.57-3.68v-.21h8.71v.21c-1.15,0-1.61.46-2.27,1.65L64.2,87.63Z"/><path class="cls-2" d="M70.39,87.59a8.67,8.67,0,0,1,8.58-9v.21c-2.07.25-2.63,2-2.63,8.68,0,5,2.24,7.81,5.36,7.81a7.62,7.62,0,0,0,5.11-1.86v.21c-1.82,2.31-5.15,3.15-7.42,3.15A8.87,8.87,0,0,1,70.39,87.59Zm7.88-1.47c3.08,0,4.37-1,4.37-3.92,0-1.68-.7-3.22-2.27-3.43v-.21c4.62,0,6.86,3.29,6.86,6a9.85,9.85,0,0,1-.18,1.82H78.27Z"/><path class="cls-2" d="M97.87,94.42c0,.87.52,1.78,2.62,1.78v.21h-11V96.2c2.1,0,2.63-.91,2.63-1.78V82c0-1.26-.6-1.85-2.59-1.85v-.21a21.39,21.39,0,0,0,8.37-1.37Zm9.45-12.08a3.75,3.75,0,0,1-3.61,4,2.37,2.37,0,0,1-2-.77,2.56,2.56,0,0,0,1.36-2.38,1.86,1.86,0,0,0-2-1.89A2.42,2.42,0,0,0,99,82.62v-.28a4.85,4.85,0,0,1,4.55-3.78A3.55,3.55,0,0,1,107.32,82.34Z"/><path class="cls-2" d="M109.69,80.35a1.89,1.89,0,0,0-1.92-1.23v-.21h9.8v.21c-1.23,0-1.72.84-1.12,2.07L121,90.74l-3,5.67h-.21Zm-1.54,21.7c0-1.51,1.19-2.77,3.08-3.29a2.77,2.77,0,0,0-.14.87,2.06,2.06,0,0,0,2.07,2.35c1.22,0,2.2-1.3,3.54-3.54h.24c-1.93,3.61-3.26,6.72-5.71,6.72A2.91,2.91,0,0,1,108.15,102.05Zm14.36-14.74a9.64,9.64,0,0,0,1-4.51,3.39,3.39,0,0,0-3.58-3.68v-.21h8.72v.21c-1.15,0-1.61.46-2.27,1.65l-3.64,6.86Z"/><path class="cls-2" d="M142.35,93.72v.21a7.32,7.32,0,0,1-6,2.83c-3.15,0-5.39-1.43-5.39-4.93V80.35h-1.82l.39-.53H131V76a8.8,8.8,0,0,0,5.74-2v5.74h4.73l-.38.53h-4.35V91.93c0,1.75.67,3.57,2.32,3.57A5.18,5.18,0,0,0,142.35,93.72Z"/><path class="cls-2" d="M151.38,94.42c0,.87.52,1.78,2.62,1.78v.21H143V96.2c2.1,0,2.62-.91,2.62-1.78V74.12c0-1.27-.59-1.86-2.59-1.86v-.21a21.54,21.54,0,0,0,8.37-1.36ZM163.63,83.5V94.42c0,.87.53,1.78,2.63,1.78v.21h-11V96.2c2.07,0,2.6-.91,2.6-1.78V83.5c0-2-1-3-2.77-3a3.74,3.74,0,0,0-2.66,1.09V81.4a7.14,7.14,0,0,1,5.81-2.84C161.39,78.56,163.63,80,163.63,83.5Z"/><path class="cls-2" d="M167.58,79.89A21.54,21.54,0,0,0,176,78.53V94.42c0,.87.52,1.78,2.62,1.78v.21h-11V96.2c2.1,0,2.62-.91,2.62-1.78V82c0-1.26-.59-1.86-2.59-1.86Zm1.79-6.58c0-1.82,1.47-3,3.57-3s3.57,1.22,3.57,3-1.47,3.08-3.57,3.08S169.37,75.17,169.37,73.31Z"/><path class="cls-2" d="M180,96.2c2.1,0,2.63-.91,2.63-1.78V82c0-1.26-.6-1.85-2.59-1.85v-.21a21.3,21.3,0,0,0,8.36-1.37V94.42c0,.87.53,1.78,2.63,1.78v.21H180Zm12.32,0c2.07,0,2.59-.91,2.59-1.78V83.5c0-2-1-3-2.76-3a3.74,3.74,0,0,0-2.66,1.09V81.4a7.14,7.14,0,0,1,5.81-2.84c3.15,0,5.39,1.47,5.39,4.94V94.42c0,.87.52,1.78,2.63,1.78v.21h-11Z"/><path class="cls-2" d="M205.42,84.9c0-4.55,4.27-6.27,7.84-6.34v.21c-1.51.14-2.21,2-2.21,6,0,4.24.7,5.95,2.21,6.09v.21C209.72,91.09,205.42,89.41,205.42,84.9Zm9.31,20c3.5-.42,4.62-2.31,4.62-3.57,0-4.86-13.65-.52-13.65-6.79,0-1.43.73-2.55,2.34-3.57l.11.18a.81.81,0,0,0-.32.66c0,3.92,16-.63,16,7,0,3.61-3.11,6-9.06,6.3Zm-9-2.94c0-2.06,2.55-2.69,5.32-2.69a2.94,2.94,0,0,0-1.51,2.48c0,1.61,1.82,2.84,3.82,3.15v.21C209.58,105.09,205.7,104.32,205.7,102Zm9-11.13c1.71-.14,2.41-1.85,2.41-6.09,0-4.06-.73-5.88-2.41-6v-.21c3.71.07,8,1.79,8,6.34s-4.3,6.19-8,6.19Zm1.89-12.95c.59-1.78,2.2-4.2,4.62-4.2,1.85,0,3,1,3,2.66a2.79,2.79,0,0,1-2.83,2.73c0-1.47-.77-2.34-1.89-2.34a3.8,3.8,0,0,0-2.7,1.26Z"/><path class="cls-2" d="M44.42,132.72v.21a7.32,7.32,0,0,1-6,2.83c-3.15,0-5.39-1.43-5.39-4.93V119.35H31.22l.39-.53h1.44V115a8.84,8.84,0,0,0,5.74-2v5.74h4.72l-.38.53H38.79v11.58c0,1.75.66,3.57,2.31,3.57A5.15,5.15,0,0,0,44.42,132.72Z"/><path class="cls-2" d="M53.45,133.42c0,.87.53,1.78,2.63,1.78v.21h-11v-.21c2.1,0,2.62-.91,2.62-1.78v-20.3c0-1.27-.59-1.86-2.59-1.86v-.21a21.54,21.54,0,0,0,8.37-1.36ZM65.7,122.5v10.92c0,.87.53,1.78,2.63,1.78v.21h-11v-.21c2.06,0,2.59-.91,2.59-1.78V122.5c0-2-1-3-2.77-3a3.74,3.74,0,0,0-2.66,1.09v-.21a7.16,7.16,0,0,1,5.81-2.84C63.46,117.56,65.7,119,65.7,122.5Z"/><path class="cls-2" d="M69.86,131.28c0-3,2.8-4.76,6.72-4.76h3.79v.21H79.32a3.47,3.47,0,0,0-3.72,3.82c0,1.92.56,3.39,2.21,3.39a3.84,3.84,0,0,0,2.56-1.22v.21a7.47,7.47,0,0,1-5.57,2.83C71.82,135.76,69.83,134.08,69.86,131.28Zm1.4-9.9c0-1.79,1.61-3.61,6.37-3.82v.21a2.56,2.56,0,0,0-2.24,2.56c0,1.26.88,2,2.28,2.13a3.94,3.94,0,0,1-3.36,1.68A2.8,2.8,0,0,1,71.26,121.38Zm10.16,10.43V121.1c0-1.72-.67-3.08-2.39-3.33v-.21c5.82.21,8.13,2.42,8.13,7v8.51c0,1,.35,1.43,1,1.43s1.12-.52,1.68-1.57H90c-.56,1.92-2.45,2.83-4.55,2.83C82.68,135.76,81.42,134.78,81.42,131.81Z"/><path class="cls-2" d="M91.11,135.2c2.1,0,2.62-.91,2.62-1.78V121c0-1.26-.59-1.85-2.59-1.85v-.21a21.36,21.36,0,0,0,8.37-1.37v15.86c0,.87.52,1.78,2.62,1.78v.21h-11Zm12.32,0c2.06,0,2.59-.91,2.59-1.78V122.5c0-2-1-3-2.77-3a3.75,3.75,0,0,0-2.66,1.09v-.21a7.18,7.18,0,0,1,5.82-2.84c3.15,0,5.39,1.47,5.39,4.94v10.92c0,.87.52,1.78,2.62,1.78v.21h-11Z"/><path class="cls-2" d="M124.85,131.28c0-3,2.8-4.76,6.72-4.76h3.78v.21h-1c-2.52,0-3.71,1.65-3.71,3.82,0,1.92.56,3.39,2.2,3.39a3.84,3.84,0,0,0,2.56-1.22v.21a7.45,7.45,0,0,1-5.57,2.83C126.81,135.76,124.81,134.08,124.85,131.28Zm1.4-9.9c0-1.79,1.61-3.61,6.37-3.82v.21a2.56,2.56,0,0,0-2.24,2.56c0,1.26.87,2,2.27,2.13a3.93,3.93,0,0,1-3.36,1.68A2.8,2.8,0,0,1,126.25,121.38Zm10.15,10.43V121.1c0-1.72-.67-3.08-2.38-3.33v-.21c5.81.21,8.12,2.42,8.12,7v8.51c0,1,.35,1.43,1,1.43s1.12-.52,1.68-1.57H145c-.56,1.92-2.45,2.83-4.55,2.83C137.66,135.76,136.4,134.78,136.4,131.81Z"/><path class="cls-2" d="M146.09,135.2c2.1,0,2.63-.91,2.63-1.78V121c0-1.26-.6-1.85-2.59-1.85v-.21a21.3,21.3,0,0,0,8.36-1.37v15.86c0,.87.53,1.78,2.63,1.78v.21h-11Zm12.32,0c2.07,0,2.59-.91,2.59-1.78V122.5c0-2-1-3-2.76-3a3.74,3.74,0,0,0-2.66,1.09v-.21a7.14,7.14,0,0,1,5.81-2.84c3.15,0,5.39,1.47,5.39,4.94v10.92c0,.87.53,1.78,2.63,1.78v.21h-11Z"/><path class="cls-2" d="M170.77,119.35a1.89,1.89,0,0,0-1.93-1.23v-.21h9.8v.21c-1.22,0-1.71.84-1.12,2.07l4.59,9.55-3,5.67h-.21Zm-1.54,21.7c0-1.51,1.19-2.77,3.08-3.29a2.51,2.51,0,0,0-.14.87,2,2,0,0,0,2.06,2.35c1.23,0,2.21-1.3,3.54-3.54H178c-1.92,3.61-3.25,6.72-5.7,6.72A2.91,2.91,0,0,1,169.23,141.05Zm14.35-14.74a9.64,9.64,0,0,0,1-4.51,3.39,3.39,0,0,0-3.57-3.68v-.21h8.71v.21c-1.15,0-1.61.46-2.27,1.65l-3.64,6.86Z"/><path class="cls-2" d="M198.59,117.77c-2.06.25-2.76,2-2.76,8.82,0,6.58.7,8.75,2.76,9v.21a8.92,8.92,0,0,1-8.71-9.17,8.77,8.77,0,0,1,8.71-9Zm10.09,8.82a8.92,8.92,0,0,1-8.69,9.17v-.21c2.07-.21,2.73-2.41,2.73-9,0-6.86-.7-8.61-2.73-8.82v-.21A8.73,8.73,0,0,1,208.68,126.59Z"/><path class="cls-2" d="M211,135.2c2.1,0,2.63-.91,2.63-1.78V121c0-1.26-.6-1.85-2.59-1.85v-.21a21.3,21.3,0,0,0,8.36-1.37v15.86c0,.87.53,1.78,2.63,1.78v.21H211Zm12.32,0c2.07,0,2.59-.91,2.59-1.78V122.5c0-2-1-3-2.76-3a3.74,3.74,0,0,0-2.66,1.09v-.21a7.14,7.14,0,0,1,5.81-2.84c3.15,0,5.39,1.47,5.39,4.94v10.92c0,.87.53,1.78,2.63,1.78v.21h-11Z"/><path class="cls-2" d="M236.18,126.59a8.67,8.67,0,0,1,8.58-9v.21c-2.07.25-2.63,2-2.63,8.68,0,5,2.24,7.81,5.36,7.81a7.62,7.62,0,0,0,5.11-1.86v.21c-1.82,2.31-5.15,3.15-7.42,3.15A8.87,8.87,0,0,1,236.18,126.59Zm7.88-1.47c3.08,0,4.37-1,4.37-3.92,0-1.68-.7-3.22-2.27-3.43v-.21c4.62,0,6.86,3.29,6.86,6a9.85,9.85,0,0,1-.18,1.82h-8.78Z"/><path class="cls-2" d="M31.47,165.59a8.67,8.67,0,0,1,8.58-9v.21c-2.07.25-2.63,2-2.63,8.68,0,5,2.24,7.81,5.36,7.81a7.62,7.62,0,0,0,5.11-1.86v.21c-1.82,2.31-5.15,3.15-7.42,3.15A8.87,8.87,0,0,1,31.47,165.59Zm7.88-1.47c3.08,0,4.37-1,4.37-3.92,0-1.68-.7-3.22-2.27-3.43v-.21c4.62,0,6.86,3.29,6.86,5.95a9.85,9.85,0,0,1-.18,1.82H39.35Z"/><path class="cls-2" d="M50.37,150.05a21.58,21.58,0,0,0,8.37-1.36v23.73c0,.87.52,1.78,2.62,1.78v.21h-11v-.21c2.1,0,2.63-.91,2.63-1.78v-20.3c0-1.27-.6-1.86-2.59-1.86Z"/><path class="cls-2" d="M69.55,170.25a1.79,1.79,0,0,0-2,1.75c0,1,.7,2.31,3.11,2.55v.21c-4.65-.17-7.21-1.43-7.21-3.46a2.73,2.73,0,0,1,3-2.59A3.55,3.55,0,0,1,69.55,170.25Zm1.15-13.48c-1.29.25-2.55.91-2.52,2.35.11,4.06,11.45,4.72,11.45,10.29,0,3.39-2.87,5.18-7.38,5.35v-.21c1.47-.24,3.11-.77,3.11-2.59,0-3.64-11.48-5-11.48-10.29,0-3.08,2.9-4.93,6.82-5.11Zm8.27,3.4a2.29,2.29,0,0,1-2.59,2.17,3,3,0,0,1-3-1.68A1.57,1.57,0,0,0,75,159c0-1-1.33-2.06-2.73-2.24v-.21C76.2,156.77,79,158.21,79,160.17Z"/><path class="cls-2" d="M82.57,165.59a8.67,8.67,0,0,1,8.58-9v.21c-2.07.25-2.63,2-2.63,8.68,0,5,2.24,7.81,5.36,7.81A7.62,7.62,0,0,0,99,171.4v.21c-1.82,2.31-5.15,3.15-7.42,3.15A8.87,8.87,0,0,1,82.57,165.59Zm7.88-1.47c3.08,0,4.37-1,4.37-3.92,0-1.68-.7-3.22-2.27-3.43v-.21c4.62,0,6.86,3.29,6.86,5.95a9.85,9.85,0,0,1-.18,1.82H90.45Z"/></svg>