<svg id="Layer_1" data-name="Layer 1" xmlns="http://www.w3.org/2000/svg" viewBox="0 0 320 480"><defs><style>.cls-1{fill:#263845;}</style></defs><title>Artboard 1 copy 2</title><path class="cls-1" d="M43,96.2v.21H31.79V96.2c2.1,0,2.62-.84,2.62-1.78V74.57c0-1-.52-1.75-2.62-1.75v-.21h8.57V94.42C40.36,95.36,40.89,96.2,43,96.2Zm13.65-2.27c-.56,1.92-2.62,2.83-5.18,2.83-4.55,0-5.6-3.15-5.81-6.09s-.49-5.11-3.57-5.56V84.9c3.22,0,4.66-2.8,4.66-6.3,0-3.92-1.44-5.78-4.66-5.78v-.21c7.11,0,10.61,1.58,10.61,6,0,3.78-2.8,6.09-8,6.4,6.37.28,7.35,2.77,7.7,5.67s1.12,4.83,2.31,4.83c.63,0,1.19-.52,1.75-1.57Z"/><path class="cls-1" d="M57.41,87.59a8.67,8.67,0,0,1,8.57-9v.21c-2.06.25-2.62,2-2.62,8.68,0,5,2.24,7.81,5.35,7.81a7.58,7.58,0,0,0,5.11-1.86v.21c-1.82,2.31-5.14,3.15-7.42,3.15A8.87,8.87,0,0,1,57.41,87.59Zm7.87-1.47c3.08,0,4.38-1,4.38-3.92,0-1.68-.7-3.22-2.28-3.43v-.21c4.62,0,6.86,3.29,6.86,6a10.8,10.8,0,0,1-.17,1.82H65.28Z"/><path class="cls-1" d="M76.76,92.28c0-3,2.8-4.76,6.72-4.76h3.78v.21H86.21c-2.52,0-3.71,1.65-3.71,3.82,0,1.92.56,3.39,2.21,3.39a3.82,3.82,0,0,0,2.55-1.22v.21a7.43,7.43,0,0,1-5.56,2.83C78.72,96.76,76.72,95.08,76.76,92.28Zm1.4-9.9c0-1.79,1.61-3.61,6.37-3.82v.21a2.56,2.56,0,0,0-2.24,2.56c0,1.26.88,2,2.28,2.13a3.94,3.94,0,0,1-3.36,1.68A2.8,2.8,0,0,1,78.16,82.38ZM88.31,92.81V82.1c0-1.72-.66-3.08-2.38-3.33v-.21c5.81.21,8.12,2.42,8.12,7v8.51c0,1,.35,1.43,1,1.43s1.12-.52,1.68-1.57h.21c-.56,1.92-2.45,2.83-4.55,2.83C89.57,96.76,88.31,95.78,88.31,92.81Z"/><path class="cls-1" d="M97.83,72.05a21.54,21.54,0,0,0,8.37-1.36V94.42c0,.87.52,1.78,2.62,1.78v.21h-11V96.2c2.11,0,2.63-.91,2.63-1.78V74.12c0-1.27-.59-1.86-2.59-1.86Z"/><path class="cls-1" d="M38.68,120.19l4.59,9.55-3,5.67h-.21l-8.12-16.06A1.89,1.89,0,0,0,30,118.12v-.21h9.8v.21C38.58,118.12,38.09,119,38.68,120.19Zm11.52,0,4.58,9.55-3,5.67h-.21l-5.49-10.88L45,126.63l-.21-.32a5.24,5.24,0,0,0,.28-3.88l-1.58-3.08a1.89,1.89,0,0,0-1.92-1.23v-.21h9.8v.21C50.09,118.12,49.6,119,50.2,120.19Zm12.18-2.28v.21c-1.16,0-1.65.46-2.28,1.65l-3.64,6.86-.21-.32a9.51,9.51,0,0,0,1-4.51,3.38,3.38,0,0,0-3.57-3.68v-.21Z"/><path class="cls-1" d="M71.37,117.77c-2.06.25-2.76,2-2.76,8.82,0,6.58.7,8.75,2.76,9v.21a8.92,8.92,0,0,1-8.71-9.17,8.77,8.77,0,0,1,8.71-9Zm10.08,8.82a8.91,8.91,0,0,1-8.68,9.17v-.21c2.07-.21,2.73-2.41,2.73-9,0-6.86-.7-8.61-2.73-8.82v-.21A8.72,8.72,0,0,1,81.45,126.59Z"/><path class="cls-1" d="M92.16,133.42c0,.87.53,1.78,2.63,1.78v.21h-11v-.21c2.1,0,2.63-.91,2.63-1.78V121c0-1.26-.6-1.85-2.6-1.85v-.21a21.32,21.32,0,0,0,8.37-1.37Zm9.45-12.08a3.74,3.74,0,0,1-3.6,4,2.39,2.39,0,0,1-2-.77,2.55,2.55,0,0,0,1.37-2.38,1.86,1.86,0,0,0-2-1.89,2.41,2.41,0,0,0-2.1,1.33v-.28a4.84,4.84,0,0,1,4.55-3.78A3.55,3.55,0,0,1,101.61,121.34Z"/><path class="cls-1" d="M102.9,111.05a21.54,21.54,0,0,0,8.37-1.36v23.73c0,.87.53,1.78,2.63,1.78v.21h-11v-.21c2.1,0,2.62-.91,2.62-1.78v-20.3c0-1.27-.59-1.86-2.59-1.86Z"/><path class="cls-1" d="M128.42,120.36v.28a3.86,3.86,0,0,0-2.9-1.29c-1.75,0-3.43.8-3.43,7.14s1.78,7.45,3.43,7.45a4.81,4.81,0,0,0,2.9-1.22v.21a6.48,6.48,0,0,1-5.07,2.83c-3.33,0-7.22-2-7.22-9.27,0-7,3.82-8.93,7.22-8.93A6.45,6.45,0,0,1,128.42,120.36Zm6.83,12.71c0,1,.31,1.43.94,1.43s1.12-.52,1.68-1.57h.21c-.56,1.92-2.45,2.83-4.55,2.83-2.8,0-4.06-1-4.06-3.95V113.12c0-1.27-.59-1.86-2.59-1.86v-.21a23.06,23.06,0,0,0,8.37-1.36Z"/><path class="cls-1" d="M160.27,135.2v.21H149v-.21c2.1,0,2.63-.84,2.63-1.78V113.57c0-1-.53-1.75-2.63-1.75v-.21h8.58v21.81C157.61,134.36,158.14,135.2,160.27,135.2Zm13.65-2.27c-.56,1.92-2.62,2.83-5.18,2.83-4.55,0-5.6-3.15-5.81-6.09s-.49-5.11-3.57-5.56v-.21c3.22,0,4.66-2.8,4.66-6.3,0-3.92-1.44-5.78-4.66-5.78v-.21c7.11,0,10.61,1.58,10.61,6,0,3.78-2.8,6.09-8,6.4,6.37.28,7.35,2.77,7.7,5.67s1.12,4.83,2.31,4.83c.63,0,1.19-.52,1.75-1.57Z"/><path class="cls-1" d="M174.48,113.64c-.63-1.37-1.44-1.82-3.15-1.82v-.21H184v.21c-1.62,0-3.05,1.05-2.17,2.87l6.61,13.93-3.18,7.14h-.39Zm15.26,11.76c2-4.69,2.49-7.56,2.49-9.76a3.83,3.83,0,0,0-4-3.82v-.21h10.08v.14c-1.61,0-2.59,1.51-3.71,3.89l-4.76,10.08Z"/><path class="cls-1" d="M31.19,157.89a21.54,21.54,0,0,0,8.37-1.36v15.89c0,.87.52,1.78,2.62,1.78v.21h-11v-.21c2.1,0,2.62-.91,2.62-1.78V160c0-1.26-.6-1.86-2.59-1.86ZM33,151.31c0-1.82,1.47-3,3.57-3s3.57,1.22,3.57,3-1.47,3.08-3.57,3.08S33,153.17,33,151.31Z"/><path class="cls-1" d="M43.65,174.2c2.1,0,2.62-.91,2.62-1.78V160c0-1.26-.59-1.85-2.59-1.85v-.21a21.32,21.32,0,0,0,8.37-1.37v15.86c0,.87.53,1.78,2.63,1.78v.21h-11Zm12.32,0c2.07,0,2.59-.91,2.59-1.78V161.5c0-2-1-3-2.76-3a3.74,3.74,0,0,0-2.66,1.09v-.21A7.14,7.14,0,0,1,59,156.56c3.15,0,5.39,1.47,5.39,4.94v10.92c0,.87.52,1.78,2.62,1.78v.21H56Z"/><path class="cls-1" d="M74.94,170.25A1.79,1.79,0,0,0,73,172c0,1,.7,2.31,3.12,2.55v.21c-4.66-.17-7.22-1.43-7.22-3.46a2.73,2.73,0,0,1,3-2.59A3.55,3.55,0,0,1,74.94,170.25Zm1.16-13.48c-1.3.25-2.56.91-2.52,2.35.1,4.06,11.44,4.72,11.44,10.29,0,3.39-2.87,5.18-7.38,5.35v-.21c1.46-.24,3.11-.77,3.11-2.59,0-3.64-11.48-5-11.48-10.29,0-3.08,2.91-4.93,6.83-5.11Zm8.26,3.4a2.29,2.29,0,0,1-2.59,2.17,3,3,0,0,1-3-1.68A1.57,1.57,0,0,0,80.37,159c0-1-1.33-2.06-2.73-2.24v-.21C81.59,156.77,84.36,158.21,84.36,160.17Z"/><path class="cls-1" d="M95.35,169.83c0,2,.66,3,2.41,3a3.11,3.11,0,0,0,2.42-1.08v.21a5.85,5.85,0,0,1-5.43,2.83c-3.15,0-5.18-1.47-5.18-4.93V160c0-1.26-.6-1.85-2.59-1.85v-.21a21.39,21.39,0,0,0,8.37-1.37ZM107,172.07c0,1,.32,1.43,1,1.43s1.12-.52,1.68-1.57h.21c-.56,1.92-2.45,2.83-4.76,2.83s-3.85-1.4-3.85-3.43V160c0-1.26-.6-1.85-2.49-1.85v-.21a22.65,22.65,0,0,0,8.26-1.37Z"/><path class="cls-1" d="M119.63,172.42c0,.87.53,1.78,2.63,1.78v.21h-11v-.21c2.1,0,2.63-.91,2.63-1.78V160c0-1.26-.6-1.85-2.59-1.85v-.21a21.3,21.3,0,0,0,8.36-1.37Zm9.46-12.08a3.75,3.75,0,0,1-3.61,4,2.37,2.37,0,0,1-2-.77,2.56,2.56,0,0,0,1.36-2.38,1.86,1.86,0,0,0-2-1.89,2.42,2.42,0,0,0-2.1,1.33v-.28a4.84,4.84,0,0,1,4.55-3.78A3.55,3.55,0,0,1,129.09,160.34Z"/><path class="cls-1" d="M130.59,170.28c0-3,2.8-4.76,6.72-4.76h3.78v.21H140c-2.52,0-3.71,1.65-3.71,3.82,0,1.92.56,3.39,2.2,3.39a3.82,3.82,0,0,0,2.56-1.22v.21a7.45,7.45,0,0,1-5.57,2.83C132.55,174.76,130.55,173.08,130.59,170.28Zm1.4-9.9c0-1.79,1.61-3.61,6.37-3.82v.21a2.56,2.56,0,0,0-2.24,2.56c0,1.26.87,2,2.27,2.13a3.93,3.93,0,0,1-3.36,1.68A2.8,2.8,0,0,1,132,160.38Zm10.15,10.43V160.1c0-1.72-.67-3.08-2.38-3.33v-.21c5.81.21,8.12,2.42,8.12,7v8.51c0,1,.35,1.43,1,1.43s1.12-.52,1.68-1.57h.21c-.56,1.92-2.45,2.83-4.55,2.83C143.4,174.76,142.14,173.78,142.14,170.81Z"/><path class="cls-1" d="M151.83,174.2c2.1,0,2.63-.91,2.63-1.78V160c0-1.26-.6-1.85-2.59-1.85v-.21a21.3,21.3,0,0,0,8.36-1.37v15.86c0,.87.53,1.78,2.63,1.78v.21h-11Zm12.33,0c2.06,0,2.59-.91,2.59-1.78V161.5c0-2-1-3-2.77-3a3.74,3.74,0,0,0-2.66,1.09v-.21a7.16,7.16,0,0,1,5.81-2.84c3.15,0,5.39,1.47,5.39,4.94v10.92c0,.87.53,1.78,2.63,1.78v.21h-11Z"/><path class="cls-1" d="M186,156.77c-2.06.25-3,2-3,8.68,0,5,2.55,7.81,5.67,7.81a7.6,7.6,0,0,0,5.11-1.86v.21c-1.82,2.31-5.15,3.15-7.42,3.15a9.15,9.15,0,0,1-9.35-9.17,9,9,0,0,1,9-9Zm7.78,3.75a3.26,3.26,0,0,1-3.5,3.36,3,3,0,0,1-3.05-2.21,3,3,0,0,0,1.68-2.55,2.07,2.07,0,0,0-1.51-2.31v-.25C192,156.56,193.77,158.52,193.77,160.52Z"/><path class="cls-1" d="M196.39,165.59a8.67,8.67,0,0,1,8.57-9v.21c-2.06.25-2.62,2-2.62,8.68,0,5,2.24,7.81,5.35,7.81a7.62,7.62,0,0,0,5.12-1.86v.21c-1.82,2.31-5.15,3.15-7.43,3.15A8.87,8.87,0,0,1,196.39,165.59Zm7.88-1.47c3.08,0,4.37-1,4.37-3.92,0-1.68-.7-3.22-2.28-3.43v-.21c4.63,0,6.87,3.29,6.87,5.95a9.85,9.85,0,0,1-.18,1.82h-8.78Z"/></svg>