<?xml version="1.0" encoding="utf-8"?>
<!-- Generator: Adobe Illustrator 24.0.3, SVG Export Plug-In . SVG Version: 6.00 Build 0)  -->
<svg version="1.1" id="Layer_1" xmlns="http://www.w3.org/2000/svg" xmlns:xlink="http://www.w3.org/1999/xlink" x="0px" y="0px"
	 viewBox="0 0 320 480" style="enable-background:new 0 0 320 480;" xml:space="preserve">
<style type="text/css">
	.st0{enable-background:new    ;}
	.st1{fill:#263845;}
</style>
<title>Artboard 1 copy 2</title>
<g class="st0">
	<path class="st1" d="M30.7,55.1v0.2H17.5v-0.2c2.5,0,3.1-1,3.1-2.1V29.7c0-1.2-0.6-2.1-3.1-2.1v-0.2h10.1V53
		C27.5,54.1,28.2,55.1,30.7,55.1z M46.7,52.4c-0.7,2.3-3.1,3.3-6.1,3.3c-5.3,0-6.6-3.7-6.8-7.1c-0.2-3.4-0.6-6-4.2-6.5v-0.2
		c3.8,0,5.5-3.3,5.5-7.4c0-4.6-1.7-6.8-5.5-6.8v-0.2c8.3,0,12.4,1.8,12.4,7c0,4.4-3.3,7.1-9.4,7.5c7.5,0.3,8.6,3.2,9,6.7
		c0.4,3.3,1.3,5.7,2.7,5.7c0.7,0,1.4-0.6,2.1-1.8H46.7z"/>
</g>
<g class="st0">
	<path class="st1" d="M47.5,45c0-6.9,5.3-10.6,10.1-10.6v0.2c-2.4,0.3-3.1,2.3-3.1,10.2c0,5.9,2.6,9.2,6.3,9.2c2.3,0,4.1-0.7,6-2.2
		v0.2c-2.1,2.7-6,3.7-8.7,3.7C52.8,55.8,47.5,51.9,47.5,45z M56.8,43.3c3.6,0,5.1-1.1,5.1-4.6c0-2-0.8-3.8-2.7-4v-0.2
		c5.4,0,8,3.9,8,7c0,0.7-0.1,1.5-0.2,2.1H56.8V43.3z"/>
	<path class="st1" d="M70.2,50.5c0-3.6,3.3-5.6,7.9-5.6h4.4v0.2h-1.2c-3,0-4.4,1.9-4.4,4.5c0,2.3,0.7,4,2.6,4c1.1,0,2.1-0.6,3-1.4
		v0.2C81.2,54,79,55.8,76,55.8C72.5,55.8,70.2,53.8,70.2,50.5z M71.9,38.9c0-2.1,1.9-4.2,7.5-4.5v0.2c-1.6,0.2-2.6,1.6-2.6,3
		c0,1.5,1,2.4,2.7,2.5c-0.6,1.1-2.3,2-3.9,2C73.2,42.1,71.9,40.6,71.9,38.9z M83.8,51.1V38.6c0-2-0.8-3.6-2.8-3.9v-0.2
		c6.8,0.2,9.5,2.8,9.5,8.2v10c0,1.2,0.4,1.7,1.1,1.7c0.6,0,1.3-0.6,2-1.8h0.2c-0.7,2.3-2.9,3.3-5.3,3.3
		C85.3,55.8,83.8,54.6,83.8,51.1z"/>
	<path class="st1" d="M95,26.8c3.8,0,6.9-0.4,9.8-1.6V53c0,1,0.6,2.1,3.1,2.1v0.2H94.9v-0.2c2.5,0,3.1-1.1,3.1-2.1V29.2
		c0-1.5-0.7-2.2-3-2.2V26.8z"/>
</g>
<g class="st0">
	<path class="st1" d="M25.6,78.5l5.4,11.2l-3.5,6.7h-0.2l-9.5-18.8c-0.4-0.9-1-1.4-2.3-1.4v-0.2h11.5v0.2
		C25.4,76.1,24.9,77.1,25.6,78.5z M39.1,78.5l5.4,11.2l-3.5,6.7h-0.2l-6.4-12.8l-1.3,2.5l-0.2-0.4c0.7-1.4,0.9-3.4,0.3-4.6l-1.8-3.6
		c-0.4-0.9-1-1.4-2.3-1.4v-0.2h11.5v0.2C39,76.1,38.4,77.1,39.1,78.5z M53.4,75.9v0.2c-1.4,0-1.9,0.5-2.7,1.9l-4.3,8l-0.2-0.4
		c0.7-1.3,1.1-3.1,1.1-5.3c0-2.3-1.3-4.3-4.2-4.3v-0.2H53.4z"/>
</g>
<g class="st0">
	<path class="st1" d="M63.9,75.7c-2.4,0.3-3.2,2.3-3.2,10.3c0,7.7,0.8,10.3,3.2,10.5v0.2c-4.7,0-10.2-3.9-10.2-10.8
		s5.4-10.6,10.2-10.6V75.7z M75.7,86.1c0,6.9-5.5,10.8-10.2,10.8v-0.2c2.4-0.2,3.2-2.8,3.2-10.5c0-8-0.8-10.1-3.2-10.3v-0.2
		C70.3,75.5,75.7,79.1,75.7,86.1z"/>
	<path class="st1" d="M88.3,94.1c0,1,0.6,2.1,3.1,2.1v0.2H78.4v-0.2c2.5,0,3.1-1.1,3.1-2.1V79.5c0-1.5-0.7-2.2-3-2.2v-0.2
		c3.8,0,6.9-0.4,9.8-1.6V94.1z M99.4,79.9c0,2.8-2,4.7-4.2,4.7c-1,0-1.8-0.2-2.3-0.9c0.8-0.4,1.6-1.3,1.6-2.8c0-1.2-0.9-2.2-2.3-2.2
		c-1.1,0-1.9,0.6-2.5,1.6v-0.3c0.8-2.6,2.8-4.4,5.3-4.4C97.8,75.5,99.4,77.4,99.4,79.9z"/>
	<path class="st1" d="M100.9,67.8c3.8,0,6.9-0.4,9.8-1.6v27.8c0,1,0.6,2.1,3.1,2.1v0.2h-12.9v-0.2c2.5,0,3.1-1.1,3.1-2.1V70.3
		c0-1.5-0.7-2.2-3-2.2V67.8z"/>
	<path class="st1" d="M130.8,78.8v0.3c-0.9-1-2.1-1.5-3.4-1.5c-2.1,0-4,0.9-4,8.4c0,7.4,2.1,8.7,4,8.7c1.3,0,2.4-0.7,3.4-1.4v0.2
		c-1,1.7-3.6,3.3-6,3.3c-3.9,0-8.5-2.3-8.5-10.9c0-8.2,4.5-10.5,8.5-10.5C127.2,75.5,129.8,77,130.8,78.8z M138.8,93.7
		c0,1.2,0.4,1.7,1.1,1.7c0.6,0,1.3-0.6,2-1.8h0.2c-0.7,2.3-2.9,3.3-5.3,3.3c-3.3,0-4.8-1.1-4.8-4.6V70.3c0-1.5-0.7-2.2-3-2.2v-0.2
		c3.8,0,6.4-0.4,9.8-1.6V93.7z"/>
</g>
<g class="st0">
	<path class="st1" d="M168.2,96.2v0.2H155v-0.2c2.5,0,3.1-1,3.1-2.1V70.8c0-1.2-0.6-2.1-3.1-2.1v-0.2h10.1v25.6
		C165.1,95.2,165.7,96.2,168.2,96.2z M184.2,93.5c-0.7,2.3-3.1,3.3-6.1,3.3c-5.3,0-6.6-3.7-6.8-7.1c-0.2-3.4-0.6-6-4.2-6.5v-0.2
		c3.8,0,5.5-3.3,5.5-7.4c0-4.6-1.7-6.8-5.5-6.8v-0.2c8.3,0,12.4,1.8,12.4,7c0,4.4-3.3,7.1-9.4,7.5c7.5,0.3,8.6,3.2,9,6.7
		c0.4,3.3,1.3,5.7,2.7,5.7c0.7,0,1.4-0.6,2.1-1.8H184.2z"/>
</g>
<g class="st0">
	<path class="st1" d="M184.9,70.9c-0.7-1.6-1.7-2.1-3.7-2.1v-0.2H196v0.2c-1.9,0-3.6,1.2-2.5,3.4l7.8,16.3l-3.7,8.4H197L184.9,70.9z
		 M202.8,84.7c2.4-5.5,2.9-8.9,2.9-11.5c0-3-2.5-4.5-4.7-4.5v-0.2h11.8v0.2c-1.9,0-3,1.8-4.4,4.6L202.9,85L202.8,84.7z"/>
</g>
<g class="st0">
	<path class="st1" d="M16.8,118.1c3.8,0,6.9-0.4,9.8-1.6v18.6c0,1,0.6,2.1,3.1,2.1v0.2H16.7v-0.2c2.5,0,3.1-1.1,3.1-2.1v-14.6
		c0-1.5-0.7-2.2-3-2.2V118.1z M18.9,110.4c0-2.1,1.7-3.6,4.2-3.6c2.5,0,4.2,1.4,4.2,3.6c0,2.2-1.7,3.6-4.2,3.6
		C20.6,114,18.9,112.5,18.9,110.4z"/>
	<path class="st1" d="M31.4,137.2c2.5,0,3.1-1.1,3.1-2.1v-14.6c0-1.5-0.7-2.2-3-2.2v-0.2c3.8,0,6.9-0.4,9.8-1.6v18.6
		c0,1,0.6,2.1,3.1,2.1v0.2H31.4V137.2z M45.8,137.2c2.4,0,3-1.1,3-2.1v-12.8c0-2.3-1.2-3.5-3.2-3.5c-1.1,0-2.1,0.4-3.1,1.3v-0.2
		c1.1-1.7,3.8-3.3,6.8-3.3c3.7,0,6.3,1.7,6.3,5.8v12.8c0,1,0.6,2.1,3.1,2.1v0.2H45.8V137.2z"/>
	<path class="st1" d="M68.1,132.6c-1.4,0-2.3,0.8-2.3,2.1c0,1.2,0.8,2.7,3.7,3v0.2c-5.5-0.2-8.5-1.7-8.5-4.1c0-1.9,1.6-3,3.5-3
		C66.1,130.8,67.5,131.6,68.1,132.6z M69.5,116.8c-1.5,0.3-3,1.1-3,2.8c0.1,4.8,13.4,5.5,13.4,12.1c0,4-3.4,6.1-8.7,6.3v-0.2
		c1.7-0.3,3.7-0.9,3.7-3c0-4.3-13.5-5.8-13.5-12.1c0-3.6,3.4-5.8,8-6V116.8z M79.1,120.8c0,1.3-1,2.5-3,2.5c-1.7,0-3-0.7-3.5-2
		c1.2-0.1,1.9-0.9,1.8-1.9c0-1.2-1.6-2.4-3.2-2.6v-0.2C75.9,116.8,79.1,118.5,79.1,120.8z"/>
	<path class="st1" d="M92,132.1c0,2.3,0.8,3.5,2.8,3.5c1.1,0,1.9-0.3,2.8-1.3v0.2c-0.9,1.8-3,3.3-6.4,3.3c-3.7,0-6.1-1.7-6.1-5.8
		v-11.5c0-1.5-0.7-2.2-3-2.2v-0.2c3.8,0,6.9-0.4,9.8-1.6V132.1z M105.7,134.7c0,1.2,0.4,1.7,1.1,1.7c0.6,0,1.3-0.6,2-1.8h0.2
		c-0.7,2.3-2.9,3.3-5.6,3.3c-2.9,0-4.5-1.6-4.5-4v-13.3c0-1.5-0.7-2.2-2.9-2.2v-0.2c3.7,0,6.2-0.4,9.7-1.6V134.7z"/>
</g>
<g class="st0">
	<path class="st1" d="M120.5,135.1c0,1,0.6,2.1,3.1,2.1v0.2h-12.9v-0.2c2.5,0,3.1-1.1,3.1-2.1v-14.6c0-1.5-0.7-2.2-3-2.2v-0.2
		c3.8,0,6.9-0.4,9.8-1.6V135.1z M131.6,121c0,2.8-2,4.7-4.2,4.7c-1,0-1.8-0.2-2.3-0.9c0.8-0.4,1.6-1.3,1.6-2.8
		c0-1.2-0.9-2.2-2.3-2.2c-1.1,0-1.9,0.6-2.5,1.6V121c0.8-2.6,2.8-4.4,5.3-4.4C130.1,116.5,131.6,118.5,131.6,121z"/>
</g>
<g class="st0">
	<path class="st1" d="M133.4,132.6c0-3.6,3.3-5.6,7.9-5.6h4.4v0.2h-1.2c-3,0-4.4,1.9-4.4,4.5c0,2.3,0.7,4,2.6,4c1.1,0,2.1-0.6,3-1.4
		v0.2c-1.4,1.6-3.5,3.3-6.5,3.3C135.7,137.9,133.3,135.9,133.4,132.6z M135,121c0-2.1,1.9-4.2,7.5-4.5v0.2c-1.6,0.2-2.6,1.6-2.6,3
		c0,1.5,1,2.4,2.7,2.5c-0.6,1.1-2.3,2-3.9,2C136.3,124.2,135,122.7,135,121z M146.9,133.2v-12.6c0-2-0.8-3.6-2.8-3.9v-0.2
		c6.8,0.2,9.5,2.8,9.5,8.2v10c0,1.2,0.4,1.7,1.1,1.7c0.6,0,1.3-0.6,2-1.8h0.2c-0.7,2.3-2.9,3.3-5.3,3.3
		C148.4,137.9,146.9,136.7,146.9,133.2z"/>
	<path class="st1" d="M158.3,137.2c2.5,0,3.1-1.1,3.1-2.1v-14.6c0-1.5-0.7-2.2-3-2.2v-0.2c3.8,0,6.9-0.4,9.8-1.6v18.6
		c0,1,0.6,2.1,3.1,2.1v0.2h-12.9V137.2z M172.8,137.2c2.4,0,3-1.1,3-2.1v-12.8c0-2.3-1.2-3.5-3.2-3.5c-1.2,0-2.1,0.4-3.1,1.3v-0.2
		c1.1-1.7,3.8-3.3,6.8-3.3c3.7,0,6.3,1.7,6.3,5.8v12.8c0,1,0.6,2.1,3.1,2.1v0.2h-12.9V137.2z"/>
	<path class="st1" d="M198.4,116.8c-2.4,0.3-3.5,2.3-3.5,10.2c0,5.9,3,9.2,6.7,9.2c2.3,0,4.1-0.7,6-2.2v0.2c-2.1,2.7-6,3.7-8.7,3.7
		c-5.3,0-11-3.9-11-10.8c0-6.9,5.7-10.6,10.5-10.6V116.8z M207.5,121.2c0,2.2-1.5,3.9-4.1,3.9c-2,0-3.3-1.3-3.6-2.6
		c1.2-0.5,2-1.9,2-3c0-0.9-0.2-2.4-1.8-2.7v-0.3C205.4,116.5,207.5,118.8,207.5,121.2z"/>
	<path class="st1" d="M210.6,127.1c0-6.9,5.3-10.6,10.1-10.6v0.2c-2.4,0.3-3.1,2.3-3.1,10.2c0,5.9,2.6,9.2,6.3,9.2
		c2.3,0,4.1-0.7,6-2.2v0.2c-2.1,2.7-6,3.7-8.7,3.7C215.9,137.9,210.6,134,210.6,127.1z M219.8,125.4c3.6,0,5.1-1.1,5.1-4.6
		c0-2-0.8-3.8-2.7-4v-0.2c5.4,0,8,3.9,8,7c0,0.7-0.1,1.5-0.2,2.1h-10.3V125.4z"/>
</g>
</svg>
