<svg id="Layer_1" data-name="Layer 1" xmlns="http://www.w3.org/2000/svg" xmlns:xlink="http://www.w3.org/1999/xlink" viewBox="0 0 320 480"><defs><style>.cls-1{fill:none;}.cls-2{clip-path:url(#clip-path);}.cls-3{fill:#fff;}</style><clipPath id="clip-path"><rect class="cls-1" x="0.36" width="320" height="480"/></clipPath></defs><title>Artboard 1 copy 2</title><g class="cls-2"><rect class="cls-1" x="0.36" width="320" height="480"/><path class="cls-3" d="M35.19,34.88v.21c-2.52.31-4.27,2.83-4.27,11.83s1.75,11.94,4.27,12.25v.21c-5-.28-11.13-4-11.13-12.25A12.13,12.13,0,0,1,35.19,34.88Zm1.71.21v-.21c3.61.17,5.6.7,7.18,1.64l1.09-1.64h.27v8.5h-.27A10.79,10.79,0,0,0,36.9,35.09ZM48.77,49v.21c-1.65,0-2.59.63-2.59,2.06v8.12H45.9l-1.26-2.1c-1.75,1.26-4.17,2-7.7,2.1v-.21c2.38-.17,3.74-1.43,3.74-4.27V51.26c0-1.43-.63-2.06-2.62-2.06V49Z"/><path class="cls-3" d="M50.9,50.21a8.66,8.66,0,0,1,8.58-9v.21c-2.07.24-2.63,2-2.63,8.68,0,5,2.24,7.81,5.36,7.81A7.62,7.62,0,0,0,67.32,56v.21c-1.82,2.31-5.15,3.15-7.42,3.15A8.87,8.87,0,0,1,50.9,50.21Zm7.88-1.47c3.08,0,4.37-1,4.37-3.92,0-1.68-.7-3.22-2.27-3.43v-.21c4.62,0,6.86,3.29,6.86,6A9.94,9.94,0,0,1,67.56,49H58.78Z"/><path class="cls-3" d="M83.56,56.34v.21a7.32,7.32,0,0,1-6,2.83c-3.15,0-5.39-1.43-5.39-4.93V43H70.36l.39-.52h1.43V38.66a8.85,8.85,0,0,0,5.74-2v5.74h4.73l-.39.52H77.92V54.55c0,1.75.67,3.57,2.31,3.57A5.2,5.2,0,0,0,83.56,56.34Z"/><path class="cls-3" d="M93.57,54.9c0-3,2.8-4.76,6.72-4.76h3.78v.21h-1c-2.52,0-3.71,1.65-3.71,3.82,0,1.92.56,3.39,2.2,3.39a3.84,3.84,0,0,0,2.56-1.22v.21a7.45,7.45,0,0,1-5.57,2.83C95.53,59.38,93.53,57.7,93.57,54.9ZM95,45c0-1.79,1.61-3.61,6.37-3.82v.21a2.55,2.55,0,0,0-2.24,2.55c0,1.27.87,2,2.27,2.14A3.93,3.93,0,0,1,98,47.76,2.8,2.8,0,0,1,95,45Zm10.15,10.43V44.71c0-1.71-.67-3.08-2.38-3.32v-.21c5.81.21,8.12,2.41,8.12,7v8.51c0,1,.35,1.43,1,1.43s1.12-.52,1.68-1.57h.21c-.56,1.92-2.45,2.83-4.55,2.83C106.38,59.38,105.12,58.4,105.12,55.43Z"/><path class="cls-3" d="M36.27,83v.28A3.91,3.91,0,0,0,33.33,82c-1.75,0-3.39.81-3.39,7.15s1.75,7.45,3.39,7.45a4.92,4.92,0,0,0,2.94-1.22v.21a6.54,6.54,0,0,1-5.11,2.83c-3.32,0-7.17-2-7.17-9.27,0-7,3.78-8.93,7.17-8.93A6.51,6.51,0,0,1,36.27,83Zm6.83,20.37c0,1.26.59,1.86,2.59,1.86v.21a23.06,23.06,0,0,0-8.37,1.36V81.47a21.77,21.77,0,0,0,5.78-1.33Z"/><path class="cls-3" d="M54.82,93.45c0,2,.67,3,2.42,3a3.09,3.09,0,0,0,2.41-1.08v.21a5.83,5.83,0,0,1-5.42,2.83c-3.15,0-5.18-1.47-5.18-4.93V83.61c0-1.26-.6-1.86-2.59-1.86v-.21a21.49,21.49,0,0,0,8.36-1.36Zm11.66,2.24c0,1,.31,1.43.94,1.43s1.12-.52,1.68-1.57h.21c-.55,1.92-2.45,2.83-4.76,2.83S60.7,97,60.7,95V83.61c0-1.26-.59-1.86-2.48-1.86v-.21a22.86,22.86,0,0,0,8.26-1.36Z"/><path class="cls-3" d="M80.06,80.39c-2.07.24-2.77,2-2.77,8.82,0,6.58.7,8.75,2.77,9v.21a8.92,8.92,0,0,1-8.72-9.17,8.77,8.77,0,0,1,8.72-9Zm10.08,8.82a8.92,8.92,0,0,1-8.68,9.17v-.21c2.06-.21,2.73-2.41,2.73-9,0-6.86-.7-8.61-2.73-8.82v-.21A8.72,8.72,0,0,1,90.14,89.21Z"/><path class="cls-3" d="M106,95.34v.21a7.32,7.32,0,0,1-6,2.83c-3.15,0-5.39-1.43-5.39-4.93V82H92.83l.39-.52h1.43V77.66a8.85,8.85,0,0,0,5.74-2v5.74h4.73l-.39.52h-4.34V93.55c0,1.75.67,3.57,2.31,3.57A5.2,5.2,0,0,0,106,95.34Z"/><path class="cls-3" d="M107.32,89.21a8.66,8.66,0,0,1,8.58-9v.21c-2.07.24-2.63,2-2.63,8.68,0,5,2.24,7.81,5.36,7.81A7.62,7.62,0,0,0,123.74,95v.21c-1.82,2.31-5.15,3.15-7.42,3.15A8.87,8.87,0,0,1,107.32,89.21Zm7.88-1.47c3.08,0,4.37-1,4.37-3.92,0-1.68-.7-3.22-2.27-3.43v-.21c4.62,0,6.86,3.29,6.86,5.95A9.94,9.94,0,0,1,124,88H115.2Z"/><path class="cls-3" d="M147.47,81.44l-.39.52h-3.43V96c0,.87.56,1.78,2.66,1.78V98H135.25v-.21c2.1,0,2.63-.91,2.63-1.78V82H135.6l.39-.52h1.89V79.86c0-5,2.59-7.07,5.81-7.56v.21c-1.19.46-2.07,1.58-2.07,3.71S143,81.44,147.47,81.44Zm3-5.36a3,3,0,0,1-3,3.08,3.64,3.64,0,0,1-3.54-2.34,2.21,2.21,0,0,0,2.49-2.24,2,2,0,0,0-1.26-2.07V72.3C148.8,72.44,150.44,74.09,150.44,76.08Z"/><path class="cls-3" d="M157,96c0,.87.53,1.78,2.63,1.78V98h-11v-.21c2.1,0,2.63-.91,2.63-1.78V83.61c0-1.26-.6-1.86-2.59-1.86v-.21A21.49,21.49,0,0,0,157,80.18ZM166.47,84a3.74,3.74,0,0,1-3.6,4,2.39,2.39,0,0,1-2-.77,2.56,2.56,0,0,0,1.37-2.38,1.86,1.86,0,0,0-2-1.89,2.39,2.39,0,0,0-2.1,1.33V84a4.84,4.84,0,0,1,4.55-3.78A3.55,3.55,0,0,1,166.47,84Z"/><path class="cls-3" d="M177.08,80.39c-2.07.24-2.77,2-2.77,8.82,0,6.58.7,8.75,2.77,9v.21a8.92,8.92,0,0,1-8.72-9.17,8.77,8.77,0,0,1,8.72-9Zm10.08,8.82a8.92,8.92,0,0,1-8.68,9.17v-.21c2.06-.21,2.73-2.41,2.73-9,0-6.86-.7-8.61-2.73-8.82v-.21A8.72,8.72,0,0,1,187.16,89.21Z"/><path class="cls-3" d="M197.87,96c0,.87.52,1.78,2.62,1.78V98h-11v-.21c2.1,0,2.62-.91,2.62-1.78V83.61c0-1.26-.59-1.86-2.59-1.86v-.21a21.54,21.54,0,0,0,8.37-1.36Zm11.62-10.92V96c0,.87.49,1.78,2.59,1.78V98h-11v-.21c2.06,0,2.62-.91,2.62-1.78V85.12c0-2-.77-3-2.45-3a3.08,3.08,0,0,0-2.31,1V83a5.67,5.67,0,0,1,5.11-2.8C207.39,80.18,209.49,81.65,209.49,85.12Zm11.58,0V96c0,.87.53,1.78,2.63,1.78V98h-11v-.21c2.07,0,2.63-.91,2.63-1.78V85.12c0-2-.77-3-2.45-3a3.07,3.07,0,0,0-2.31,1V83a5.65,5.65,0,0,1,5.11-2.8C219,80.18,221.07,81.65,221.07,85.12Z"/><path class="cls-3" d="M24.13,121a1.9,1.9,0,0,0-1.93-1.22v-.21H32v.21c-1.22,0-1.71.84-1.12,2.06l4.59,9.56-3,5.67h-.21Zm-1.54,21.71c0-1.51,1.19-2.77,3.08-3.29a2.51,2.51,0,0,0-.14.87,2,2,0,0,0,2.06,2.35c1.23,0,2.21-1.3,3.54-3.54h.24c-1.92,3.61-3.25,6.72-5.7,6.72A2.91,2.91,0,0,1,22.59,142.67Zm14.35-14.74a9.67,9.67,0,0,0,1-4.51,3.39,3.39,0,0,0-3.57-3.68v-.21h8.71v.21c-1.15,0-1.61.45-2.27,1.64l-3.64,6.87Z"/><path class="cls-3" d="M52,119.39c-2.06.24-2.76,2-2.76,8.82,0,6.58.7,8.75,2.76,9v.21a8.92,8.92,0,0,1-8.71-9.17,8.77,8.77,0,0,1,8.71-9ZM62,128.21a8.91,8.91,0,0,1-8.68,9.17v-.21c2.07-.21,2.73-2.41,2.73-9,0-6.86-.7-8.61-2.73-8.82v-.21A8.72,8.72,0,0,1,62,128.21Z"/><path class="cls-3" d="M72.36,132.45c0,2,.66,3,2.41,3a3.11,3.11,0,0,0,2.42-1.08v.21a5.85,5.85,0,0,1-5.43,2.83c-3.15,0-5.18-1.47-5.18-4.93v-9.84c0-1.26-.59-1.86-2.59-1.86v-.21a21.54,21.54,0,0,0,8.37-1.36ZM84,134.69c0,1,.32,1.43.95,1.43s1.12-.52,1.68-1.57h.21c-.56,1.92-2.45,2.83-4.76,2.83S78.24,136,78.24,134V122.61c0-1.26-.6-1.86-2.49-1.86v-.21A22.86,22.86,0,0,0,84,119.18Z"/><path class="cls-3" d="M96.65,135c0,.87.52,1.78,2.62,1.78V137h-11v-.21c2.1,0,2.62-.91,2.62-1.78V122.61c0-1.26-.59-1.86-2.59-1.86v-.21a21.54,21.54,0,0,0,8.37-1.36ZM106.1,123a3.75,3.75,0,0,1-3.61,4,2.37,2.37,0,0,1-2-.77,2.57,2.57,0,0,0,1.36-2.38,1.86,1.86,0,0,0-2-1.89,2.4,2.4,0,0,0-2.1,1.33V123a4.85,4.85,0,0,1,4.55-3.78A3.55,3.55,0,0,1,106.1,123Z"/><path class="cls-3" d="M123.35,132.62c0,3.33-2.27,4.76-5.77,4.76V114.73c0-1.26-.63-1.85-2.63-1.85v-.21a23,23,0,0,0,8.4-1.37Zm13.34-4.51c0,7.31-3.89,9.27-7.21,9.27a6.5,6.5,0,0,1-5.08-2.83v-.21a4.86,4.86,0,0,0,2.91,1.22c1.64,0,3.43-1.15,3.43-7.45s-1.68-7.15-3.43-7.15a3.86,3.86,0,0,0-2.91,1.3V122a6.47,6.47,0,0,1,5.08-2.8C132.87,119.18,136.69,121.14,136.69,128.11Z"/><path class="cls-3" d="M147.54,135c0,.87.52,1.78,2.62,1.78V137h-11v-.21c2.1,0,2.62-.91,2.62-1.78V122.61c0-1.26-.59-1.86-2.59-1.86v-.21a21.54,21.54,0,0,0,8.37-1.36ZM157,123a3.75,3.75,0,0,1-3.61,4,2.37,2.37,0,0,1-2-.77,2.57,2.57,0,0,0,1.36-2.38,1.86,1.86,0,0,0-2-1.89,2.4,2.4,0,0,0-2.1,1.33V123a4.85,4.85,0,0,1,4.55-3.78A3.55,3.55,0,0,1,157,123Z"/><path class="cls-3" d="M167.59,119.39c-2.06.24-2.76,2-2.76,8.82,0,6.58.7,8.75,2.76,9v.21a8.92,8.92,0,0,1-8.71-9.17,8.77,8.77,0,0,1,8.71-9Zm10.08,8.82a8.91,8.91,0,0,1-8.68,9.17v-.21c2.07-.21,2.73-2.41,2.73-9,0-6.86-.7-8.61-2.73-8.82v-.21A8.72,8.72,0,0,1,177.67,128.21Z"/><path class="cls-3" d="M190.8,136.82V137h-11v-.21c2.1,0,2.63-.91,2.63-1.78V114.73c0-1.26-.6-1.85-2.59-1.85v-.21a21.3,21.3,0,0,0,8.36-1.37V135C188.17,135.91,188.7,136.82,190.8,136.82Zm11.86,0V137a13.81,13.81,0,0,1-3.5.35,6.59,6.59,0,0,1-6.33-3.39l-3.29-5.5c2.76-2.41,5.35-5.36,5.35-7.14,0-.95-.45-1.61-2.06-1.61v-.21h9v.21a3.09,3.09,0,0,0-2,.63l-6.41,5.08,6.06,9.38A3.61,3.61,0,0,0,202.66,136.82Z"/><path class="cls-3" d="M202.87,128.21a8.66,8.66,0,0,1,8.58-9v.21c-2.07.24-2.63,2-2.63,8.68,0,5,2.24,7.81,5.36,7.81a7.62,7.62,0,0,0,5.11-1.86v.21c-1.82,2.31-5.15,3.15-7.42,3.15A8.87,8.87,0,0,1,202.87,128.21Zm7.88-1.47c3.08,0,4.37-1,4.37-3.92,0-1.68-.7-3.22-2.27-3.43v-.21c4.62,0,6.86,3.29,6.86,5.95a9.94,9.94,0,0,1-.18,1.82h-8.78Z"/><path class="cls-3" d="M230.35,135c0,.87.52,1.78,2.62,1.78V137H222v-.21c2.1,0,2.62-.91,2.62-1.78V122.61c0-1.26-.59-1.86-2.59-1.86v-.21a21.54,21.54,0,0,0,8.37-1.36ZM239.8,123a3.75,3.75,0,0,1-3.61,4,2.37,2.37,0,0,1-2-.77,2.57,2.57,0,0,0,1.36-2.38,1.86,1.86,0,0,0-2-1.89,2.4,2.4,0,0,0-2.1,1.33V123a4.85,4.85,0,0,1,4.55-3.78A3.55,3.55,0,0,1,239.8,123Z"/></g></svg>