<svg id="Layer_1" data-name="Layer 1" xmlns="http://www.w3.org/2000/svg" viewBox="0 0 320 480"><defs><style>.cls-1{fill:#263845;}.cls-2{fill:none;}</style></defs><title>Artboard 1</title><path class="cls-1" d="M38,34.88v.21c-2.52.31-4.27,2.83-4.27,11.83S35.43,58.86,38,59.17v.21c-5-.28-11.13-4-11.13-12.25A12.13,12.13,0,0,1,38,34.88Zm1.72.21v-.21c3.6.17,5.6.7,7.17,1.64l1.09-1.64h.28v8.5h-.28A10.79,10.79,0,0,0,39.67,35.09ZM51.53,49v.21c-1.64,0-2.59.63-2.59,2.06v8.12h-.28l-1.26-2.1c-1.75,1.26-4.16,2-7.7,2.1v-.21c2.38-.17,3.75-1.43,3.75-4.27V51.26c0-1.43-.63-2.06-2.63-2.06V49Z"/><path class="cls-1" d="M62.38,41.39c-2.07.24-2.77,2-2.77,8.82,0,6.58.7,8.75,2.77,9v.21a8.92,8.92,0,0,1-8.72-9.17,8.77,8.77,0,0,1,8.72-9Zm10.08,8.82a8.91,8.91,0,0,1-8.68,9.17v-.21c2.07-.21,2.73-2.41,2.73-9,0-6.86-.7-8.61-2.73-8.82v-.21A8.72,8.72,0,0,1,72.46,50.21Z"/><path class="cls-1" d="M88.35,56.34v.21a7.32,7.32,0,0,1-6,2.83C79.21,59.38,77,58,77,54.45V43H75.15l.39-.52H77V38.66a8.85,8.85,0,0,0,5.74-2v5.74h4.73l-.39.52H82.71V54.55c0,1.75.67,3.57,2.31,3.57A5.2,5.2,0,0,0,88.35,56.34Z"/><path class="cls-1" d="M98.36,54.9c0-3,2.8-4.76,6.72-4.76h3.78v.21h-1c-2.52,0-3.71,1.65-3.71,3.82,0,1.92.56,3.39,2.2,3.39a3.84,3.84,0,0,0,2.56-1.22v.21a7.45,7.45,0,0,1-5.57,2.83C100.32,59.38,98.32,57.7,98.36,54.9Zm1.4-9.9c0-1.79,1.61-3.61,6.37-3.82v.21a2.55,2.55,0,0,0-2.24,2.55c0,1.27.87,2,2.27,2.14a3.93,3.93,0,0,1-3.36,1.68A2.8,2.8,0,0,1,99.76,45Zm10.15,10.43V44.71c0-1.71-.67-3.08-2.38-3.32v-.21c5.81.21,8.12,2.41,8.12,7v8.51c0,1,.35,1.43,1,1.43s1.12-.52,1.68-1.57h.21c-.56,1.92-2.45,2.83-4.55,2.83C111.17,59.38,109.91,58.4,109.91,55.43Z"/><path class="cls-1" d="M32.7,93.87a1.79,1.79,0,0,0-2,1.75c0,1,.7,2.31,3.11,2.55v.21c-4.65-.17-7.21-1.43-7.21-3.46a2.73,2.73,0,0,1,3-2.59A3.56,3.56,0,0,1,32.7,93.87Zm1.15-13.48c-1.29.24-2.55.91-2.52,2.34.11,4.06,11.45,4.73,11.45,10.3,0,3.39-2.87,5.18-7.38,5.35v-.21c1.47-.24,3.11-.77,3.11-2.59,0-3.64-11.48-5-11.48-10.29,0-3.08,2.9-4.94,6.82-5.11Zm8.27,3.4A2.29,2.29,0,0,1,39.53,86a3,3,0,0,1-3-1.69,1.55,1.55,0,0,0,1.58-1.64c0-1-1.33-2.07-2.73-2.24v-.21C39.35,80.39,42.12,81.82,42.12,83.79Z"/><path class="cls-1" d="M53.17,103.35c0,1.26.6,1.86,2.59,1.86v.21a23,23,0,0,0-8.36,1.36V83.58c0-1.27-.6-1.86-2.59-1.86v-.21a22.83,22.83,0,0,0,8.36-1.37ZM66.51,89.11c0,7.31-3.85,9.27-7.17,9.27a6.58,6.58,0,0,1-5.12-2.83v-.21a5,5,0,0,0,2.94,1.22c1.65,0,3.4-1.15,3.4-7.45S58.91,82,57.16,82a3.94,3.94,0,0,0-2.94,1.3V83a6.55,6.55,0,0,1,5.12-2.8C62.73,80.18,66.51,82.14,66.51,89.11Z"/><path class="cls-1" d="M69.59,89.21a8.66,8.66,0,0,1,8.57-9v.21c-2.06.24-2.62,2-2.62,8.68,0,5,2.24,7.81,5.35,7.81A7.62,7.62,0,0,0,86,95v.21c-1.83,2.31-5.15,3.15-7.43,3.15A8.87,8.87,0,0,1,69.59,89.21Zm7.87-1.47c3.08,0,4.38-1,4.38-3.92,0-1.68-.7-3.22-2.28-3.43v-.21c4.62,0,6.87,3.29,6.87,5.95A9.94,9.94,0,0,1,86.25,88H77.46Z"/><path class="cls-1" d="M98.25,80.39c-2.06.24-3,2-3,8.68,0,5,2.55,7.81,5.67,7.81A7.62,7.62,0,0,0,106.06,95v.21c-1.82,2.31-5.15,3.15-7.42,3.15a9.15,9.15,0,0,1-9.35-9.17,9,9,0,0,1,9-9ZM106,84.13a3.26,3.26,0,0,1-3.5,3.37,3,3,0,0,1-3-2.21,3,3,0,0,0,1.68-2.56,2.08,2.08,0,0,0-1.51-2.31v-.24C104.24,80.18,106,82.14,106,84.13Z"/><path class="cls-1" d="M108.09,81.51a21.3,21.3,0,0,0,8.36-1.37V96c0,.87.53,1.78,2.63,1.78V98h-11v-.21c2.1,0,2.63-.91,2.63-1.78V83.58c0-1.27-.6-1.86-2.59-1.86Zm1.78-6.58c0-1.82,1.47-3.05,3.57-3.05S117,73.11,117,74.93,115.54,78,113.44,78,109.87,76.78,109.87,74.93Z"/><path class="cls-1" d="M120.83,93.9c0-3,2.8-4.76,6.72-4.76h3.78v.21h-1.05c-2.52,0-3.71,1.65-3.71,3.82,0,1.92.56,3.39,2.2,3.39a3.84,3.84,0,0,0,2.56-1.22v.21a7.45,7.45,0,0,1-5.57,2.83C122.79,98.38,120.79,96.7,120.83,93.9Zm1.4-9.9c0-1.79,1.61-3.61,6.37-3.82v.21a2.55,2.55,0,0,0-2.24,2.55c0,1.27.87,2,2.27,2.14a3.93,3.93,0,0,1-3.36,1.68A2.8,2.8,0,0,1,122.23,84Zm10.15,10.43V83.71c0-1.71-.67-3.08-2.38-3.32v-.21c5.81.21,8.12,2.41,8.12,7v8.51c0,1,.35,1.43,1,1.43s1.12-.52,1.68-1.57H141c-.56,1.92-2.45,2.83-4.55,2.83C133.64,98.38,132.38,97.4,132.38,94.43Z"/><path class="cls-1" d="M141.9,73.67a21.3,21.3,0,0,0,8.36-1.37V96c0,.87.53,1.78,2.63,1.78V98h-11v-.21c2.1,0,2.63-.91,2.63-1.78V75.73c0-1.26-.6-1.85-2.59-1.85Z"/><path class="cls-1" d="M26.78,121a1.89,1.89,0,0,0-1.92-1.22v-.21h9.8v.21c-1.23,0-1.71.84-1.12,2.06l4.59,9.56-3,5.67h-.21Zm12.82,7a9.67,9.67,0,0,0,1-4.51A3.39,3.39,0,0,0,37,119.74v-.21h8.71v.21c-1.15,0-1.61.45-2.27,1.64l-3.64,6.87Z"/><path class="cls-1" d="M46,128.21a8.66,8.66,0,0,1,8.58-9v.21c-2.07.24-2.63,2-2.63,8.68,0,5,2.24,7.81,5.36,7.81A7.62,7.62,0,0,0,62.42,134v.21c-1.82,2.31-5.15,3.15-7.43,3.15A8.87,8.87,0,0,1,46,128.21Zm7.87-1.47c3.09,0,4.38-1,4.38-3.92,0-1.68-.7-3.22-2.27-3.43v-.21c4.62,0,6.86,3.29,6.86,5.95a9.94,9.94,0,0,1-.18,1.82H53.87Z"/><path class="cls-1" d="M73.26,135c0,.87.53,1.78,2.63,1.78V137h-11v-.21c2.1,0,2.63-.91,2.63-1.78V114.73c0-1.26-.6-1.85-2.59-1.85v-.21a21.3,21.3,0,0,0,8.36-1.37Zm12.26-10.92V135c0,.87.52,1.78,2.62,1.78V137h-11v-.21c2.07,0,2.59-.91,2.59-1.78V124.12c0-2-1-3-2.77-3a3.78,3.78,0,0,0-2.66,1.08V122a7.16,7.16,0,0,1,5.82-2.83C83.28,119.18,85.52,120.65,85.52,124.12Z"/><path class="cls-1" d="M89.47,120.51a21.3,21.3,0,0,0,8.36-1.37V135c0,.87.53,1.78,2.63,1.78V137h-11v-.21c2.1,0,2.63-.91,2.63-1.78V122.58c0-1.27-.6-1.86-2.59-1.86Zm1.78-6.58c0-1.82,1.47-3.05,3.57-3.05s3.57,1.23,3.57,3.05S96.92,117,94.82,117,91.25,115.78,91.25,113.93Z"/><path class="cls-1" d="M111.52,119.39c-2.07.24-3,2-3,8.68,0,5,2.56,7.81,5.67,7.81a7.62,7.62,0,0,0,5.12-1.86v.21c-1.83,2.31-5.15,3.15-7.43,3.15a9.15,9.15,0,0,1-9.34-9.17,9,9,0,0,1,9-9Zm7.77,3.74a3.26,3.26,0,0,1-3.5,3.37,3,3,0,0,1-3.05-2.21,3,3,0,0,0,1.68-2.56,2.08,2.08,0,0,0-1.5-2.31v-.24C117.5,119.18,119.29,121.14,119.29,123.13Z"/><path class="cls-1" d="M121.11,112.67a21.3,21.3,0,0,0,8.36-1.37V135c0,.87.53,1.78,2.63,1.78V137h-11v-.21c2.1,0,2.63-.91,2.63-1.78V114.73c0-1.26-.6-1.85-2.59-1.85Z"/><path class="cls-1" d="M134.2,128.21a8.66,8.66,0,0,1,8.57-9v.21c-2.06.24-2.62,2-2.62,8.68,0,5,2.24,7.81,5.35,7.81a7.58,7.58,0,0,0,5.11-1.86v.21c-1.82,2.31-5.14,3.15-7.42,3.15A8.87,8.87,0,0,1,134.2,128.21Zm7.87-1.47c3.08,0,4.38-1,4.38-3.92,0-1.68-.7-3.22-2.28-3.43v-.21c4.62,0,6.86,3.29,6.86,5.95a10.9,10.9,0,0,1-.17,1.82h-8.79Z"/><path class="cls-1" d="M153.52,117.6c0-3.11,4.2-4.62,7.38-4.72v.21a3.46,3.46,0,0,0-2.48,3.39,3,3,0,0,0,2,3,3.86,3.86,0,0,1-3.22,1.4C155.34,120.89,153.52,119.88,153.52,117.6Zm5.14,18.59c0-1.92,1.54-3.18,3.75-3.18s3.74,1.26,3.74,3.18-1.54,3.22-3.74,3.22S158.66,138.15,158.66,136.19Zm1-9.83c0-3.93,5.56-5.08,5.56-9.56a3.44,3.44,0,0,0-2.52-3.71v-.21c4.83.31,8.47,1.89,8.47,5.77,0,4.77-7.59,6.27-7.59,9.35a2.06,2.06,0,0,0,1.26,2l0,.21C161.25,130.24,159.61,128.49,159.61,126.36Z"/><rect class="cls-2" x="0.98" width="320" height="480"/></svg>