<?xml version="1.0" encoding="utf-8"?>
<!-- Generator: Adobe Illustrator 24.0.3, SVG Export Plug-In . SVG Version: 6.00 Build 0)  -->
<svg version="1.1" id="Layer_1" xmlns="http://www.w3.org/2000/svg" xmlns:xlink="http://www.w3.org/1999/xlink" x="0px" y="0px"
	 viewBox="0 0 320 480" style="enable-background:new 0 0 320 480;" xml:space="preserve">
<style type="text/css">
	.st0{clip-path:url(#SVGID_2_);}
	.st1{fill:none;}
	.st2{enable-background:new    ;}
	.st3{fill:#FFFFFF;}
</style>
<title>Artboard 1 copy 2</title>
<g>
	<defs>
		<rect id="SVGID_1_" x="0.4" y="0" width="320" height="480"/>
	</defs>
	<clipPath id="SVGID_2_">
		<use xlink:href="#SVGID_1_"  style="overflow:visible;"/>
	</clipPath>
	<g class="st0">
		<rect x="0.4" y="0" class="st1" width="320" height="480"/>
		<g class="st2">
			<path class="st3" d="M37.4,30.7v0.2c-3,0.4-5,3.3-5,13.9c0,10.6,2.1,14,5,14.4v0.2c-5.9-0.3-13.1-4.7-13.1-14.4
				C24.4,35.8,31.9,31,37.4,30.7z M39.4,30.9v-0.2c4.2,0.2,6.6,0.8,8.4,1.9l1.3-1.9h0.3v10h-0.3C48,35.8,44.3,31.9,39.4,30.9z
				 M53.3,47.2v0.2c-1.9,0-3,0.7-3,2.4v9.5H50L48.5,57c-2.1,1.5-4.9,2.3-9,2.5v-0.2c2.8-0.2,4.4-1.7,4.4-5v-4.3
				c0-1.7-0.7-2.4-3.1-2.4v-0.2H53.3z"/>
			<path class="st3" d="M55.8,48.7c0-6.9,5.3-10.6,10.1-10.6v0.2c-2.4,0.3-3.1,2.3-3.1,10.2c0,5.9,2.6,9.2,6.3,9.2
				c2.3,0,4.1-0.7,6-2.2v0.2c-2.1,2.7-6,3.7-8.7,3.7C61.1,59.4,55.8,55.6,55.8,48.7z M65.1,47c3.6,0,5.1-1.1,5.1-4.6
				c0-2-0.8-3.8-2.7-4v-0.2c5.4,0,8,3.9,8,7c0,0.7-0.1,1.5-0.2,2.1H65.1V47z"/>
			<path class="st3" d="M94.2,55.9v0.2c-1.3,1.9-3.9,3.3-7,3.3c-3.7,0-6.3-1.7-6.3-5.8V40.2h-2.1l0.5-0.6h1.7v-4.4
				c2.5,0,5-0.8,6.7-2.3v6.7h5.5l-0.5,0.6h-5.1v13.6c0,2.1,0.8,4.2,2.7,4.2C91.4,58,92.8,57.2,94.2,55.9z"/>
			<path class="st3" d="M105.9,54.2c0-3.6,3.3-5.6,7.9-5.6h4.4v0.2H117c-3,0-4.4,1.9-4.4,4.5c0,2.3,0.7,4,2.6,4c1.1,0,2.1-0.6,3-1.4
				v0.2c-1.4,1.6-3.5,3.3-6.5,3.3C108.2,59.4,105.9,57.5,105.9,54.2z M107.5,42.6c0-2.1,1.9-4.2,7.5-4.5v0.2c-1.6,0.2-2.6,1.6-2.6,3
				c0,1.5,1,2.4,2.7,2.5c-0.6,1.1-2.3,2-3.9,2C108.9,45.8,107.5,44.3,107.5,42.6z M119.4,54.8V42.2c0-2-0.8-3.6-2.8-3.9v-0.2
				c6.8,0.2,9.5,2.8,9.5,8.2v10c0,1.2,0.4,1.7,1.1,1.7c0.6,0,1.3-0.6,2-1.8h0.2c-0.7,2.3-2.9,3.3-5.3,3.3
				C120.9,59.4,119.4,58.3,119.4,54.8z"/>
		</g>
		<g class="st2">
			<path class="st3" d="M38.7,82.4v0.3c-0.9-1-2.2-1.5-3.4-1.5c-2.1,0-4,0.9-4,8.4c0,7.4,2.1,8.7,4,8.7c1.3,0,2.4-0.7,3.4-1.4v0.2
				c-1,1.7-3.7,3.3-6,3.3c-3.9,0-8.4-2.3-8.4-10.9c0-8.2,4.4-10.5,8.4-10.5C35,79.1,37.7,80.7,38.7,82.4z M46.7,106.3
				c0,1.5,0.7,2.2,3,2.2v0.2c-3.8,0-6.4,0.4-9.8,1.6V80.7c2.1-0.2,4.9-0.8,6.8-1.6V106.3z"/>
			<path class="st3" d="M60.4,94.7c0,2.3,0.8,3.5,2.8,3.5c1.1,0,1.9-0.3,2.8-1.3v0.2c-0.9,1.8-3,3.3-6.4,3.3c-3.7,0-6.1-1.7-6.1-5.8
				V83.2c0-1.5-0.7-2.2-3-2.2v-0.2c3.8,0,6.9-0.4,9.8-1.6V94.7z M74.1,97.3c0,1.2,0.4,1.7,1.1,1.7c0.6,0,1.3-0.6,2-1.8h0.2
				c-0.7,2.3-2.9,3.3-5.6,3.3c-2.9,0-4.5-1.6-4.5-4V83.2c0-1.5-0.7-2.2-2.9-2.2v-0.2c3.7,0,6.2-0.4,9.7-1.6V97.3z"/>
			<path class="st3" d="M90,79.4c-2.4,0.3-3.2,2.3-3.2,10.3c0,7.7,0.8,10.3,3.2,10.5v0.2c-4.7,0-10.2-3.9-10.2-10.8
				S85.2,79.2,90,79.1V79.4z M101.9,89.7c0,6.9-5.5,10.8-10.2,10.8v-0.2c2.4-0.2,3.2-2.8,3.2-10.5c0-8-0.8-10.1-3.2-10.3v-0.2
				C96.5,79.1,101.9,82.8,101.9,89.7z"/>
		</g>
		<g class="st2">
			<path class="st3" d="M120.5,96.9v0.2c-1.3,1.9-3.9,3.3-7,3.3c-3.7,0-6.3-1.7-6.3-5.8V81.2H105l0.5-0.6h1.7v-4.4
				c2.5,0,5-0.8,6.7-2.3v6.7h5.5l-0.5,0.6h-5.1v13.6c0,2.1,0.8,4.2,2.7,4.2C117.8,99,119.2,98.3,120.5,96.9z"/>
		</g>
		<g class="st2">
			<path class="st3" d="M122,89.7c0-6.9,5.3-10.6,10.1-10.6v0.2c-2.4,0.3-3.1,2.3-3.1,10.2c0,5.9,2.6,9.2,6.3,9.2
				c2.3,0,4.1-0.7,6-2.2v0.2c-2.1,2.7-6,3.7-8.7,3.7C127.3,100.5,122,96.6,122,89.7z M131.3,88c3.6,0,5.1-1.1,5.1-4.6
				c0-2-0.8-3.8-2.7-4v-0.2c5.4,0,8,3.9,8,7c0,0.7-0.1,1.5-0.2,2.1h-10.3V88z"/>
			<path class="st3" d="M169.1,80.6l-0.5,0.6h-4v16.5c0,1,0.7,2.1,3.1,2.1v0.2h-13v-0.2c2.5,0,3.1-1.1,3.1-2.1V81.2h-2.7l0.5-0.6
				h2.2v-1.8c0-5.8,3-8.3,6.8-8.9v0.2c-1.4,0.5-2.4,1.8-2.4,4.4C162.3,76.9,163.9,80.6,169.1,80.6z M172.6,74.3
				c0,2.3-1.7,3.6-3.6,3.6c-2.2,0-3.5-1.2-4.1-2.8c1.8,0,2.9-1,2.9-2.6c0-1.2-0.6-2.2-1.5-2.4v-0.2C170.7,70.1,172.6,72,172.6,74.3z
				"/>
		</g>
		<g class="st2">
			<path class="st3" d="M180.3,97.7c0,1,0.6,2.1,3.1,2.1v0.2h-12.9v-0.2c2.5,0,3.1-1.1,3.1-2.1V83.2c0-1.5-0.7-2.2-3-2.2v-0.2
				c3.8,0,6.9-0.4,9.8-1.6V97.7z M191.4,83.6c0,2.8-2,4.7-4.2,4.7c-1,0-1.8-0.2-2.3-0.9c0.8-0.4,1.6-1.3,1.6-2.8
				c0-1.2-0.9-2.2-2.3-2.2c-1.1,0-1.9,0.6-2.5,1.6v-0.3c0.8-2.6,2.8-4.4,5.3-4.4C189.9,79.1,191.4,81.1,191.4,83.6z"/>
		</g>
		<g class="st2">
			<path class="st3" d="M203.9,79.4c-2.4,0.3-3.2,2.3-3.2,10.3c0,7.7,0.8,10.3,3.2,10.5v0.2c-4.7,0-10.2-3.9-10.2-10.8
				s5.4-10.6,10.2-10.6V79.4z M215.7,89.7c0,6.9-5.5,10.8-10.2,10.8v-0.2c2.4-0.2,3.2-2.8,3.2-10.5c0-8-0.8-10.1-3.2-10.3v-0.2
				C210.3,79.1,215.7,82.8,215.7,89.7z"/>
			<path class="st3" d="M228.2,97.7c0,1,0.6,2.1,3.1,2.1v0.2h-12.9v-0.2c2.5,0,3.1-1.1,3.1-2.1V83.2c0-1.5-0.7-2.2-3-2.2v-0.2
				c3.8,0,6.9-0.4,9.8-1.6V97.7z M241.9,84.9v12.8c0,1,0.6,2.1,3,2.1v0.2H232v-0.2c2.4,0,3.1-1.1,3.1-2.1V84.9
				c0-2.3-0.9-3.5-2.9-3.5c-1.1,0-2.2,0.6-2.7,1.2v-0.2c0.9-1.7,3-3.3,6-3.3C239.4,79.1,241.9,80.9,241.9,84.9z M255.5,84.9v12.8
				c0,1,0.6,2.1,3.1,2.1v0.2h-12.9v-0.2c2.4,0,3.1-1.1,3.1-2.1V84.9c0-2.3-0.9-3.5-2.9-3.5c-1.2,0-2.2,0.6-2.7,1.2v-0.2
				c0.9-1.7,3-3.3,6-3.3C253,79.1,255.5,80.9,255.5,84.9z"/>
		</g>
		<g class="st2">
			<path class="st3" d="M24.4,122.3c-0.4-0.9-1-1.4-2.3-1.4v-0.2h11.5v0.2c-1.4,0-2,1-1.3,2.4l5.4,11.2l-3.5,6.7H34L24.4,122.3z
				 M22.6,147.8c0-1.8,1.4-3.2,3.6-3.9c-0.1,0.4-0.2,0.7-0.2,1c0,1.6,0.8,2.8,2.4,2.8c1.4,0,2.6-1.5,4.1-4.1h0.3
				c-2.3,4.2-3.8,7.9-6.7,7.9C23.9,151.4,22.6,149.9,22.6,147.8z M39.5,130.5c0.7-1.3,1.1-3.1,1.1-5.3c0-2.3-1.3-4.3-4.2-4.3v-0.2
				h10.2v0.2c-1.4,0-1.9,0.5-2.7,1.9l-4.3,8L39.5,130.5z"/>
		</g>
		<g class="st2">
			<path class="st3" d="M57.1,120.5c-2.4,0.3-3.2,2.3-3.2,10.3c0,7.7,0.8,10.3,3.2,10.5v0.2c-4.7,0-10.2-3.9-10.2-10.8
				c0-6.9,5.4-10.6,10.2-10.6V120.5z M68.9,130.8c0,6.9-5.5,10.8-10.2,10.8v-0.2c2.4-0.2,3.2-2.8,3.2-10.5c0-8-0.8-10.1-3.2-10.3
				v-0.2C63.5,120.2,68.9,123.9,68.9,130.8z"/>
			<path class="st3" d="M81,135.8c0,2.3,0.8,3.5,2.8,3.5c1.1,0,1.9-0.3,2.8-1.3v0.2c-0.9,1.8-3,3.3-6.4,3.3c-3.7,0-6.1-1.7-6.1-5.8
				v-11.5c0-1.5-0.7-2.2-3-2.2v-0.2c3.8,0,6.9-0.4,9.8-1.6V135.8z M94.7,138.4c0,1.2,0.4,1.7,1.1,1.7c0.6,0,1.3-0.6,2-1.8H98
				c-0.7,2.3-2.9,3.3-5.6,3.3c-2.9,0-4.5-1.6-4.5-4v-13.3c0-1.5-0.7-2.2-2.9-2.2v-0.2c3.7,0,6.2-0.4,9.7-1.6V138.4z"/>
		</g>
		<g class="st2">
			<path class="st3" d="M109.5,138.8c0,1,0.6,2.1,3.1,2.1v0.2H99.7v-0.2c2.5,0,3.1-1.1,3.1-2.1v-14.6c0-1.5-0.7-2.2-3-2.2v-0.2
				c3.8,0,6.9-0.4,9.8-1.6V138.8z M120.6,124.6c0,2.8-2,4.7-4.2,4.7c-1,0-1.8-0.2-2.3-0.9c0.8-0.4,1.6-1.3,1.6-2.8
				c0-1.2-0.9-2.2-2.3-2.2c-1.1,0-1.9,0.6-2.5,1.6v-0.3c0.8-2.6,2.8-4.4,5.3-4.4C119,120.2,120.6,122.2,120.6,124.6z"/>
		</g>
		<g class="st2">
			<path class="st3" d="M140.8,136c0,3.9-2.7,5.6-6.8,5.6V115c0-1.5-0.7-2.2-3.1-2.2v-0.2c3.8,0,6.4-0.4,9.9-1.6V136z M156.5,130.7
				c0,8.6-4.6,10.9-8.5,10.9c-2.3,0-4.9-1.6-6-3.3V138c1,0.8,2.1,1.4,3.4,1.4c1.9,0,4-1.4,4-8.7c0-7.4-2-8.4-4-8.4
				c-1.3,0-2.5,0.5-3.4,1.5v-0.3c1-1.7,3.6-3.3,6-3.3C152,120.2,156.5,122.5,156.5,130.7z"/>
		</g>
		<g class="st2">
			<path class="st3" d="M169.2,138.8c0,1,0.6,2.1,3.1,2.1v0.2h-12.9v-0.2c2.5,0,3.1-1.1,3.1-2.1v-14.6c0-1.5-0.7-2.2-3-2.2v-0.2
				c3.8,0,6.9-0.4,9.8-1.6V138.8z M180.3,124.6c0,2.8-2,4.7-4.2,4.7c-1,0-1.8-0.2-2.3-0.9c0.8-0.4,1.6-1.3,1.6-2.8
				c0-1.2-0.9-2.2-2.3-2.2c-1.1,0-1.9,0.6-2.5,1.6v-0.3c0.8-2.6,2.8-4.4,5.3-4.4C178.7,120.2,180.3,122.2,180.3,124.6z"/>
		</g>
		<g class="st2">
			<path class="st3" d="M192.7,120.5c-2.4,0.3-3.2,2.3-3.2,10.3c0,7.7,0.8,10.3,3.2,10.5v0.2c-4.7,0-10.2-3.9-10.2-10.8
				c0-6.9,5.4-10.6,10.2-10.6V120.5z M204.6,130.8c0,6.9-5.5,10.8-10.2,10.8v-0.2c2.4-0.2,3.2-2.8,3.2-10.5c0-8-0.8-10.1-3.2-10.3
				v-0.2C199.1,120.2,204.6,123.9,204.6,130.8z"/>
		</g>
		<g class="st2">
			<path class="st3" d="M220,140.9v0.2H207v-0.2c2.5,0,3.1-1.1,3.1-2.1V115c0-1.5-0.7-2.2-3-2.2v-0.2c3.8,0,6.9-0.4,9.8-1.6v27.8
				C216.9,139.8,217.5,140.9,220,140.9z M233.9,140.9v0.2c-1.1,0.3-2.7,0.4-4.1,0.4c-2.5,0-5.3-0.5-7.4-4l-3.9-6.4
				c3.2-2.8,6.3-6.3,6.3-8.4c0-1.1-0.5-1.9-2.4-1.9v-0.2h10.5v0.2c-0.9,0-1.7,0.3-2.3,0.7l-7.5,6l7.1,11
				C231.5,140.6,232.5,140.7,233.9,140.9z"/>
		</g>
		<g class="st2">
			<path class="st3" d="M234.1,130.8c0-6.9,5.3-10.6,10.1-10.6v0.2c-2.4,0.3-3.1,2.3-3.1,10.2c0,5.9,2.6,9.2,6.3,9.2
				c2.3,0,4.1-0.7,6-2.2v0.2c-2.1,2.7-6,3.7-8.7,3.7C239.4,141.6,234.1,137.7,234.1,130.8z M243.4,129.1c3.6,0,5.1-1.1,5.1-4.6
				c0-2-0.8-3.8-2.7-4v-0.2c5.4,0,8,3.9,8,7c0,0.7-0.1,1.5-0.2,2.1h-10.3V129.1z"/>
		</g>
		<g class="st2">
			<path class="st3" d="M266.4,138.8c0,1,0.6,2.1,3.1,2.1v0.2h-12.9v-0.2c2.5,0,3.1-1.1,3.1-2.1v-14.6c0-1.5-0.7-2.2-3-2.2v-0.2
				c3.8,0,6.9-0.4,9.8-1.6V138.8z M277.4,124.6c0,2.8-2,4.7-4.2,4.7c-1,0-1.8-0.2-2.3-0.9c0.8-0.4,1.6-1.3,1.6-2.8
				c0-1.2-0.9-2.2-2.3-2.2c-1.1,0-1.9,0.6-2.5,1.6v-0.3c0.8-2.6,2.8-4.4,5.3-4.4C275.9,120.2,277.4,122.2,277.4,124.6z"/>
		</g>
	</g>
</g>
</svg>
