<svg id="Layer_1" data-name="Layer 1" xmlns="http://www.w3.org/2000/svg" viewBox="0 0 320 480"><defs><style>.cls-1{fill:#fff;}.cls-2{fill:none;}</style></defs><title>Artboard 1 copy</title><path class="cls-1" d="M33,59.17v.21a13.24,13.24,0,0,1-6.79-1.71l-1.16,1.71h-.28V50.84h.28A11.73,11.73,0,0,0,33,59.17Zm10.29-7c0,4.51-3.36,7-8.79,7.17v-.21c1.93-.35,3.82-1.47,3.82-3.57C38.36,49.48,25,48.92,25,41.81c0-4.2,3.39-6.62,8.05-6.93v.21c-1.61.28-3.08,1.29-3.08,3.22C30,44.43,43.33,45.1,43.33,52.21ZM34.54,35.09v-.21a11.28,11.28,0,0,1,6.3,1.85l1.26-1.85h.28v7.8H42.1A11.13,11.13,0,0,0,34.54,35.09Z"/><path class="cls-1" d="M59.29,56.34v.21a7.32,7.32,0,0,1-6,2.83c-3.15,0-5.39-1.43-5.39-4.93V43H46.09l.39-.52h1.43V38.66a8.85,8.85,0,0,0,5.74-2v5.74h4.73L58,43H53.65V54.55c0,1.75.67,3.57,2.31,3.57A5.2,5.2,0,0,0,59.29,56.34Z"/><path class="cls-1" d="M60.4,54.9c0-3,2.81-4.76,6.73-4.76h3.78v.21h-1c-2.52,0-3.71,1.65-3.71,3.82,0,1.92.56,3.39,2.2,3.39a3.84,3.84,0,0,0,2.56-1.22v.21a7.45,7.45,0,0,1-5.57,2.83C62.36,59.38,60.37,57.7,60.4,54.9ZM61.81,45c0-1.79,1.61-3.61,6.37-3.82v.21a2.55,2.55,0,0,0-2.24,2.55c0,1.27.87,2,2.27,2.14a3.93,3.93,0,0,1-3.36,1.68A2.8,2.8,0,0,1,61.81,45ZM72,55.43V44.71c0-1.71-.67-3.08-2.38-3.32v-.21c5.81.21,8.12,2.41,8.12,7v8.51c0,1,.35,1.43,1,1.43s1.12-.52,1.68-1.57h.21C80,58.47,78.12,59.38,76,59.38,73.22,59.38,72,58.4,72,55.43Z"/><path class="cls-1" d="M90.05,57c0,.87.53,1.78,2.63,1.78V59h-11v-.21c2.1,0,2.62-.91,2.62-1.78V44.61c0-1.26-.59-1.86-2.59-1.86v-.21a21.54,21.54,0,0,0,8.37-1.36ZM99.5,45a3.74,3.74,0,0,1-3.6,4,2.39,2.39,0,0,1-2-.77,2.56,2.56,0,0,0,1.37-2.38,1.86,1.86,0,0,0-2-1.89,2.39,2.39,0,0,0-2.1,1.33V45a4.84,4.84,0,0,1,4.55-3.78A3.55,3.55,0,0,1,99.5,45Z"/><path class="cls-1" d="M24.15,98v-.21c2.1,0,2.62-.8,2.62-1.78V76.26c0-1-.52-1.82-2.62-1.82v-.21h8.57V98Zm19.56-23.8V80.7h-.28c-1.5-4.41-3.64-5.91-9-6.26v-.21ZM34.47,85.82V85.6l1.93-.17a5.4,5.4,0,0,0,4.62-3h.28v6.51H41A5.35,5.35,0,0,0,36.4,86Zm0,12c5.32-.35,7.81-1.85,9.7-6.26h.28V98h-10Z"/><path class="cls-1" d="M47,97.82c2.11,0,2.63-.91,2.63-1.78V83.61c0-1.26-.6-1.86-2.59-1.86v-.21a21.54,21.54,0,0,0,8.37-1.36V96c0,.87.52,1.78,2.62,1.78V98H47Zm12.33,0c2.06,0,2.59-.91,2.59-1.78V85.12c0-2-1-3-2.77-3a3.77,3.77,0,0,0-2.66,1.08V83a7.15,7.15,0,0,1,5.81-2.83c3.15,0,5.39,1.47,5.39,4.94V96c0,.87.53,1.78,2.63,1.78V98h-11Z"/><path class="cls-1" d="M85.19,95.34v.21a7.32,7.32,0,0,1-6,2.83c-3.15,0-5.39-1.43-5.39-4.93V82H72l.39-.52h1.43V77.66a8.85,8.85,0,0,0,5.74-2v5.74h4.73l-.39.52H79.55V93.55c0,1.75.67,3.57,2.31,3.57A5.2,5.2,0,0,0,85.19,95.34Z"/><path class="cls-1" d="M94.22,96c0,.87.52,1.78,2.62,1.78V98h-11v-.21c2.1,0,2.63-.91,2.63-1.78V75.73c0-1.26-.6-1.85-2.59-1.85v-.21a21.36,21.36,0,0,0,8.37-1.37Zm12.25-10.92V96c0,.87.52,1.78,2.62,1.78V98h-11v-.21c2.07,0,2.59-.91,2.59-1.78V85.12c0-2-1-3-2.76-3a3.77,3.77,0,0,0-2.66,1.08V83a7.14,7.14,0,0,1,5.81-2.83C104.23,80.18,106.47,81.65,106.47,85.12Z"/><path class="cls-1" d="M118.36,93.45c0,2,.67,3,2.42,3a3.11,3.11,0,0,0,2.42-1.08v.21a5.85,5.85,0,0,1-5.43,2.83c-3.15,0-5.18-1.47-5.18-4.93V83.61c0-1.26-.6-1.86-2.59-1.86v-.21a21.49,21.49,0,0,0,8.36-1.36ZM130,95.69c0,1,.32,1.43.95,1.43s1.12-.52,1.68-1.57h.21c-.56,1.92-2.45,2.83-4.76,2.83S124.25,97,124.25,95V83.61c0-1.26-.6-1.86-2.49-1.86v-.21A22.86,22.86,0,0,0,130,80.18Z"/><path class="cls-1" d="M141,93.87a1.79,1.79,0,0,0-2,1.75c0,1,.7,2.31,3.11,2.55v.21c-4.65-.17-7.21-1.43-7.21-3.46a2.73,2.73,0,0,1,3-2.59A3.57,3.57,0,0,1,141,93.87Zm1.15-13.48c-1.29.24-2.56.91-2.52,2.34.11,4.06,11.45,4.73,11.45,10.3,0,3.39-2.87,5.18-7.39,5.35v-.21c1.47-.24,3.12-.77,3.12-2.59,0-3.64-11.49-5-11.49-10.29,0-3.08,2.91-4.94,6.83-5.11Zm8.26,3.4A2.29,2.29,0,0,1,147.8,86a3,3,0,0,1-3-1.69,1.54,1.54,0,0,0,1.57-1.64c0-1-1.33-2.07-2.73-2.24v-.21C147.63,80.39,150.39,81.82,150.39,83.79Z"/><path class="cls-1" d="M153.43,81.51a21.36,21.36,0,0,0,8.37-1.37V96c0,.87.52,1.78,2.63,1.78V98h-11v-.21c2.1,0,2.62-.91,2.62-1.78V83.58c0-1.27-.59-1.86-2.59-1.86Zm1.79-6.58c0-1.82,1.47-3.05,3.57-3.05s3.57,1.23,3.57,3.05S160.89,78,158.79,78,155.22,76.78,155.22,74.93Z"/><path class="cls-1" d="M166.17,93.9c0-3,2.8-4.76,6.72-4.76h3.78v.21h-1c-2.52,0-3.71,1.65-3.71,3.82,0,1.92.56,3.39,2.21,3.39a3.82,3.82,0,0,0,2.55-1.22v.21a7.43,7.43,0,0,1-5.56,2.83C168.13,98.38,166.14,96.7,166.17,93.9Zm1.4-9.9c0-1.79,1.61-3.61,6.37-3.82v.21a2.55,2.55,0,0,0-2.24,2.55c0,1.27.88,2,2.28,2.14a3.94,3.94,0,0,1-3.36,1.68A2.81,2.81,0,0,1,167.57,84Zm10.16,10.43V83.71c0-1.71-.67-3.08-2.39-3.32v-.21c5.81.21,8.13,2.41,8.13,7v8.51c0,1,.34,1.43,1,1.43s1.12-.52,1.68-1.57h.21c-.56,1.92-2.45,2.83-4.55,2.83C179,98.38,177.73,97.4,177.73,94.43Z"/><path class="cls-1" d="M194.14,93.87a1.79,1.79,0,0,0-2,1.75c0,1,.7,2.31,3.11,2.55v.21c-4.65-.17-7.21-1.43-7.21-3.46a2.73,2.73,0,0,1,3-2.59A3.56,3.56,0,0,1,194.14,93.87Zm1.15-13.48c-1.29.24-2.55.91-2.52,2.34.11,4.06,11.45,4.73,11.45,10.3,0,3.39-2.87,5.18-7.39,5.35v-.21c1.47-.24,3.12-.77,3.12-2.59,0-3.64-11.48-5-11.48-10.29,0-3.08,2.9-4.94,6.82-5.11Zm8.26,3.4A2.29,2.29,0,0,1,201,86a3,3,0,0,1-3-1.69,1.54,1.54,0,0,0,1.57-1.64c0-1-1.33-2.07-2.73-2.24v-.21C200.79,80.39,203.55,81.82,203.55,83.79Z"/><path class="cls-1" d="M220.11,95.34v.21a7.32,7.32,0,0,1-6,2.83c-3.15,0-5.39-1.43-5.39-4.93V82h-1.82l.39-.52h1.43V77.66a8.85,8.85,0,0,0,5.74-2v5.74h4.73l-.39.52h-4.34V93.55c0,1.75.67,3.57,2.31,3.57A5.2,5.2,0,0,0,220.11,95.34Z"/><path class="cls-1" d="M24.15,136.82c2.1,0,2.62-.84,2.62-1.78V115.22c0-.94-.52-1.78-2.62-1.78v-.21h11.2v.21c-2.1,0-2.63.84-2.63,1.78V135c0,.94.53,1.78,2.63,1.78V137H24.15Z"/><path class="cls-1" d="M37.69,136.82c2.1,0,2.62-.91,2.62-1.78V122.61c0-1.26-.59-1.86-2.58-1.86v-.21a21.49,21.49,0,0,0,8.36-1.36V135c0,.87.53,1.78,2.63,1.78V137h-11Zm12.32,0c2.07,0,2.59-.91,2.59-1.78V124.12c0-2-1-3-2.76-3a3.77,3.77,0,0,0-2.66,1.08V122A7.14,7.14,0,0,1,53,119.18c3.15,0,5.39,1.47,5.39,4.94V135c0,.87.52,1.78,2.62,1.78V137H50Z"/><path class="cls-1" d="M69,132.87a1.79,1.79,0,0,0-2,1.75c0,1,.7,2.31,3.12,2.55v.21c-4.66-.17-7.21-1.43-7.21-3.46a2.72,2.72,0,0,1,3-2.59A3.55,3.55,0,0,1,69,132.87Zm1.16-13.48c-1.3.24-2.56.91-2.52,2.34.1,4.06,11.44,4.73,11.44,10.3,0,3.39-2.87,5.18-7.38,5.35v-.21c1.47-.24,3.11-.77,3.11-2.59,0-3.64-11.48-5-11.48-10.29,0-3.08,2.91-4.94,6.83-5.11Zm8.26,3.4A2.29,2.29,0,0,1,75.81,125a3,3,0,0,1-3-1.69,1.55,1.55,0,0,0,1.58-1.64c0-1-1.33-2.07-2.73-2.24v-.21C75.63,119.39,78.4,120.82,78.4,122.79Z"/><path class="cls-1" d="M89.39,132.45c0,2,.66,3,2.41,3a3.11,3.11,0,0,0,2.42-1.08v.21a5.85,5.85,0,0,1-5.43,2.83c-3.15,0-5.18-1.47-5.18-4.93v-9.84c0-1.26-.59-1.86-2.59-1.86v-.21a21.58,21.58,0,0,0,8.37-1.36ZM101,134.69c0,1,.32,1.43.95,1.43s1.12-.52,1.68-1.57h.21c-.56,1.92-2.45,2.83-4.76,2.83S95.27,136,95.27,134V122.61c0-1.26-.6-1.86-2.49-1.86v-.21a22.86,22.86,0,0,0,8.26-1.36Z"/><path class="cls-1" d="M113.68,135c0,.87.52,1.78,2.62,1.78V137h-11v-.21c2.1,0,2.63-.91,2.63-1.78V122.61c0-1.26-.6-1.86-2.59-1.86v-.21a21.58,21.58,0,0,0,8.37-1.36ZM123.13,123a3.75,3.75,0,0,1-3.61,4,2.37,2.37,0,0,1-2-.77,2.57,2.57,0,0,0,1.36-2.38,1.86,1.86,0,0,0-2-1.89,2.4,2.4,0,0,0-2.1,1.33V123a4.85,4.85,0,0,1,4.55-3.78A3.55,3.55,0,0,1,123.13,123Z"/><path class="cls-1" d="M124.63,132.9c0-3,2.8-4.76,6.72-4.76h3.78v.21h-1c-2.52,0-3.71,1.65-3.71,3.82,0,1.92.56,3.39,2.21,3.39a3.82,3.82,0,0,0,2.55-1.22v.21a7.43,7.43,0,0,1-5.57,2.83C126.59,137.38,124.59,135.7,124.63,132.9ZM126,123c0-1.79,1.61-3.61,6.37-3.82v.21a2.55,2.55,0,0,0-2.24,2.55c0,1.27.88,2,2.28,2.14a3.94,3.94,0,0,1-3.37,1.68A2.8,2.8,0,0,1,126,123Zm10.15,10.43V122.71c0-1.71-.66-3.08-2.38-3.32v-.21c5.81.21,8.12,2.41,8.12,7v8.51c0,1,.35,1.43,1,1.43s1.12-.52,1.68-1.57h.21c-.56,1.92-2.45,2.83-4.55,2.83C137.44,137.38,136.18,136.4,136.18,133.43Z"/><path class="cls-1" d="M145.87,136.82c2.1,0,2.63-.91,2.63-1.78V122.61c0-1.26-.6-1.86-2.59-1.86v-.21a21.49,21.49,0,0,0,8.36-1.36V135c0,.87.53,1.78,2.63,1.78V137h-11Zm12.32,0c2.07,0,2.6-.91,2.6-1.78V124.12c0-2-1-3-2.77-3a3.77,3.77,0,0,0-2.66,1.08V122a7.15,7.15,0,0,1,5.81-2.83c3.15,0,5.39,1.47,5.39,4.94V135c0,.87.53,1.78,2.63,1.78V137h-11Z"/><path class="cls-1" d="M180,119.39c-2.06.24-3,2-3,8.68,0,5,2.55,7.81,5.67,7.81a7.58,7.58,0,0,0,5.11-1.86v.21c-1.82,2.31-5.15,3.15-7.42,3.15a9.15,9.15,0,0,1-9.35-9.17,9,9,0,0,1,9-9Zm7.78,3.74a3.26,3.26,0,0,1-3.5,3.37,3,3,0,0,1-3.05-2.21,3,3,0,0,0,1.68-2.56,2.08,2.08,0,0,0-1.5-2.31v-.24C186,119.18,187.81,121.14,187.81,123.13Z"/><path class="cls-1" d="M190.43,128.21a8.66,8.66,0,0,1,8.57-9v.21c-2.06.24-2.62,2-2.62,8.68,0,5,2.24,7.81,5.35,7.81a7.62,7.62,0,0,0,5.12-1.86v.21c-1.82,2.31-5.15,3.15-7.42,3.15A8.87,8.87,0,0,1,190.43,128.21Zm7.88-1.47c3.08,0,4.37-1,4.37-3.92,0-1.68-.7-3.22-2.28-3.43v-.21c4.63,0,6.87,3.29,6.87,5.95a9.94,9.94,0,0,1-.18,1.82h-8.78Z"/><rect class="cls-2" x="0.62" width="320" height="480"/></svg>