<svg id="Layer_1" data-name="Layer 1" xmlns="http://www.w3.org/2000/svg" xmlns:xlink="http://www.w3.org/1999/xlink" viewBox="0 0 320 480"><defs><style>.cls-1{fill:none;}.cls-2{clip-path:url(#clip-path);}.cls-3{fill:#fff;}</style><clipPath id="clip-path"><rect class="cls-1" width="320" height="480"/></clipPath></defs><title>Artboard 1 copy 2</title><g class="cls-2"><path class="cls-3" d="M23.52,58.82c2.1,0,2.63-.8,2.63-1.78V37.22c0-1-.53-1.78-2.63-1.78v-.21H32.1V57c0,1,.52,1.78,2.62,1.78V59H23.52ZM33.85,35.44v-.21h9.62v7h-.28C41.59,37.26,39.17,35.79,33.85,35.44Zm1.92,11.9-1.92-.17V47l1.92-.18a5.4,5.4,0,0,0,4.62-3h.28v6.51h-.28A5.3,5.3,0,0,0,35.77,47.34Z"/><path class="cls-3" d="M53.66,57c0,.87.52,1.78,2.62,1.78V59h-11v-.21c2.1,0,2.62-.91,2.62-1.78V44.61c0-1.26-.59-1.86-2.59-1.86v-.21a21.54,21.54,0,0,0,8.37-1.36ZM63.11,45a3.75,3.75,0,0,1-3.61,4,2.37,2.37,0,0,1-2-.77,2.57,2.57,0,0,0,1.36-2.38,1.86,1.86,0,0,0-2-1.89,2.4,2.4,0,0,0-2.1,1.33V45a4.85,4.85,0,0,1,4.55-3.78A3.55,3.55,0,0,1,63.11,45Z"/><path class="cls-3" d="M73.71,41.39c-2.06.24-2.76,2-2.76,8.82,0,6.58.7,8.75,2.76,9v.21A8.92,8.92,0,0,1,65,50.21a8.77,8.77,0,0,1,8.71-9Zm10.08,8.82a8.91,8.91,0,0,1-8.68,9.17v-.21c2.07-.21,2.73-2.41,2.73-9,0-6.86-.7-8.61-2.73-8.82v-.21A8.72,8.72,0,0,1,83.79,50.21Z"/><path class="cls-3" d="M94.5,57c0,.87.53,1.78,2.63,1.78V59h-11v-.21c2.1,0,2.63-.91,2.63-1.78V44.61c0-1.26-.6-1.86-2.59-1.86v-.21a21.49,21.49,0,0,0,8.36-1.36Zm11.62-10.92V57c0,.87.49,1.78,2.59,1.78V59h-11v-.21c2.07,0,2.63-.91,2.63-1.78V46.12c0-2-.77-3-2.45-3a3.07,3.07,0,0,0-2.31,1V44a5.65,5.65,0,0,1,5.11-2.8C104,41.18,106.12,42.65,106.12,46.12Zm11.59,0V57c0,.87.53,1.78,2.63,1.78V59h-11v-.21c2.06,0,2.62-.91,2.62-1.78V46.12c0-2-.76-3-2.45-3a3.08,3.08,0,0,0-2.31,1V44a5.67,5.67,0,0,1,5.11-2.8C115.61,41.18,117.71,42.65,117.71,46.12Z"/><path class="cls-3" d="M134.23,40.76l.28.42.28,14.7c0,1.51,1.12,2.94,3.43,2.94V59h-7.7v-.21c2.31,0,3.39-1.47,3.43-2.94ZM152.78,59h-3.89L134.26,37.22a3.81,3.81,0,0,0-3.71-1.78v-.21h9.35l12.88,19.29ZM152.71,51l-.28-.38L152,38.38c0-1.51-1.12-2.94-3.43-2.94v-.21h7.7v.21c-2.31,0-3.43,1.47-3.43,2.94Z"/><path class="cls-3" d="M171.92,35.23h6.69L164.71,59h-6.65Zm-12.84,0h10.57l-.11.21c-5.18.28-9.31,3.85-10.18,8.23h-.28Zm8,23.59A12,12,0,0,0,178,49.48h.28V59H167Z"/><path class="cls-3" d="M188.37,36.35c0,2-2.17,4.72-5.67,6.16l-.1-.32a4.87,4.87,0,0,0,2-3.39,2.19,2.19,0,0,0-2.38-2.31c.28-2.07,1.51-3.19,3.33-3.19A2.82,2.82,0,0,1,188.37,36.35Z"/><path class="cls-3" d="M195.55,54.87a1.79,1.79,0,0,0-2,1.75c0,1,.7,2.31,3.11,2.55v.21c-4.65-.17-7.21-1.43-7.21-3.46a2.73,2.73,0,0,1,3-2.59A3.56,3.56,0,0,1,195.55,54.87Zm1.15-13.48c-1.29.24-2.55.91-2.52,2.34.11,4.06,11.45,4.73,11.45,10.3,0,3.39-2.87,5.18-7.39,5.35v-.21c1.47-.24,3.12-.77,3.12-2.59,0-3.64-11.48-5-11.48-10.29,0-3.08,2.9-4.94,6.82-5.11Zm8.26,3.4A2.29,2.29,0,0,1,202.37,47a3,3,0,0,1-3-1.69A1.54,1.54,0,0,0,201,43.63c0-1.05-1.33-2.07-2.73-2.24v-.21C202.2,41.39,205,42.82,205,44.79Z"/><path class="cls-3" d="M22.68,73.67a21.36,21.36,0,0,0,8.37-1.37V96c0,.87.52,1.78,2.62,1.78V98h-11v-.21c2.1,0,2.62-.91,2.62-1.78V75.73c0-1.26-.59-1.85-2.59-1.85Z"/><path class="cls-3" d="M35.77,89.21a8.66,8.66,0,0,1,8.58-9v.21c-2.07.24-2.63,2-2.63,8.68,0,5,2.24,7.81,5.36,7.81A7.62,7.62,0,0,0,52.19,95v.21c-1.82,2.31-5.15,3.15-7.42,3.15A8.87,8.87,0,0,1,35.77,89.21Zm7.88-1.47c3.08,0,4.37-1,4.37-3.92,0-1.68-.7-3.22-2.27-3.43v-.21c4.62,0,6.86,3.29,6.86,5.95A9.94,9.94,0,0,1,52.43,88H43.65Z"/><path class="cls-3" d="M55.13,93.9c0-3,2.8-4.76,6.72-4.76h3.78v.21h-1c-2.52,0-3.71,1.65-3.71,3.82,0,1.92.56,3.39,2.2,3.39a3.84,3.84,0,0,0,2.56-1.22v.21a7.45,7.45,0,0,1-5.57,2.83C57.09,98.38,55.09,96.7,55.13,93.9Zm1.4-9.9c0-1.79,1.61-3.61,6.37-3.82v.21a2.55,2.55,0,0,0-2.24,2.55c0,1.27.87,2,2.27,2.14a3.93,3.93,0,0,1-3.36,1.68A2.8,2.8,0,0,1,56.53,84ZM66.68,94.43V83.71c0-1.71-.67-3.08-2.38-3.32v-.21c5.81.21,8.12,2.41,8.12,7v8.51c0,1,.35,1.43,1,1.43s1.12-.52,1.68-1.57h.21c-.56,1.92-2.45,2.83-4.55,2.83C67.94,98.38,66.68,97.4,66.68,94.43Z"/><path class="cls-3" d="M89.43,83v.28A3.86,3.86,0,0,0,86.52,82c-1.75,0-3.43.81-3.43,7.15s1.79,7.45,3.43,7.45a4.86,4.86,0,0,0,2.91-1.22v.21a6.5,6.5,0,0,1-5.08,2.83c-3.32,0-7.21-2-7.21-9.27,0-7,3.82-8.93,7.21-8.93A6.47,6.47,0,0,1,89.43,83Zm6.82,12.71c0,1,.32,1.43,1,1.43s1.12-.52,1.68-1.57h.21c-.56,1.92-2.45,2.83-4.55,2.83-2.8,0-4.06-1-4.06-3.95V75.73c0-1.26-.6-1.85-2.59-1.85v-.21a22.83,22.83,0,0,0,8.36-1.37Z"/><path class="cls-3" d="M100.56,81.51a21.3,21.3,0,0,0,8.36-1.37V96c0,.87.53,1.78,2.63,1.78V98h-11v-.21c2.1,0,2.63-.91,2.63-1.78V83.58c0-1.27-.6-1.86-2.59-1.86Zm1.78-6.58c0-1.82,1.47-3.05,3.57-3.05s3.57,1.23,3.57,3.05S108,78,105.91,78,102.34,76.78,102.34,74.93Z"/><path class="cls-3" d="M113,97.82c2.1,0,2.62-.91,2.62-1.78V83.61c0-1.26-.59-1.86-2.59-1.86v-.21a21.54,21.54,0,0,0,8.37-1.36V96c0,.87.52,1.78,2.62,1.78V98H113Zm12.32,0c2.06,0,2.59-.91,2.59-1.78V85.12c0-2-1-3-2.77-3a3.77,3.77,0,0,0-2.66,1.08V83a7.15,7.15,0,0,1,5.81-2.83c3.15,0,5.39,1.47,5.39,4.94V96c0,.87.53,1.78,2.63,1.78V98h-11Z"/><path class="cls-3" d="M138.39,86.51c0-4.55,4.27-6.26,7.84-6.33v.21c-1.5.14-2.2,2-2.2,6,0,4.24.7,6,2.2,6.09v.21C142.7,92.71,138.39,91,138.39,86.51Zm9.31,20.06c3.5-.42,4.62-2.31,4.62-3.57,0-4.86-13.65-.52-13.65-6.79,0-1.43.74-2.55,2.35-3.57l.1.18a.81.81,0,0,0-.31.66c0,3.92,16-.63,16,7,0,3.61-3.12,6-9.07,6.3Zm-9-2.94c0-2.06,2.56-2.69,5.32-2.69a2.93,2.93,0,0,0-1.5,2.48c0,1.61,1.82,2.84,3.81,3.15v.21C142.56,106.71,138.67,105.94,138.67,103.63Zm9-11.13c1.72-.14,2.42-1.85,2.42-6.09,0-4.06-.74-5.88-2.42-6v-.21c3.71.07,8,1.78,8,6.33s-4.31,6.2-8,6.2Zm1.89-13c.6-1.79,2.21-4.2,4.62-4.2,1.86,0,3,1,3,2.66a2.8,2.8,0,0,1-2.84,2.73c0-1.47-.77-2.35-1.89-2.35a3.78,3.78,0,0,0-2.69,1.26Z"/><path class="cls-3" d="M31.26,135c0,.87.52,1.78,2.62,1.78V137h-11v-.21c2.1,0,2.62-.91,2.62-1.78V122.61c0-1.26-.59-1.86-2.59-1.86v-.21a21.54,21.54,0,0,0,8.37-1.36Zm11.62-10.92V135c0,.87.49,1.78,2.59,1.78V137h-11v-.21c2.06,0,2.62-.91,2.62-1.78V124.12c0-2-.77-3-2.45-3a3.08,3.08,0,0,0-2.31,1V122a5.67,5.67,0,0,1,5.11-2.8C40.78,119.18,42.88,120.65,42.88,124.12Zm11.59,0V135c0,.87.52,1.78,2.62,1.78V137h-11v-.21c2.06,0,2.62-.91,2.62-1.78V124.12c0-2-.77-3-2.45-3a3.07,3.07,0,0,0-2.31,1V122a5.67,5.67,0,0,1,5.11-2.8C52.37,119.18,54.47,120.65,54.47,124.12Z"/><path class="cls-3" d="M67.69,119.39c-2.06.24-2.76,2-2.76,8.82,0,6.58.7,8.75,2.76,9v.21A8.92,8.92,0,0,1,59,128.21a8.77,8.77,0,0,1,8.71-9Zm10.08,8.82a8.91,8.91,0,0,1-8.68,9.17v-.21c2.07-.21,2.73-2.41,2.73-9,0-6.86-.7-8.61-2.73-8.82v-.21A8.72,8.72,0,0,1,77.77,128.21Z"/><path class="cls-3" d="M93.66,134.34v.21a7.32,7.32,0,0,1-6,2.83c-3.15,0-5.39-1.43-5.39-4.93V121H80.47l.38-.52h1.44v-3.78a8.89,8.89,0,0,0,5.74-2v5.74h4.72l-.38.52H88v11.59c0,1.75.66,3.57,2.31,3.57A5.15,5.15,0,0,0,93.66,134.34Z"/><path class="cls-3" d="M103.67,119.39c-2.06.24-2.76,2-2.76,8.82,0,6.58.7,8.75,2.76,9v.21A8.92,8.92,0,0,1,95,128.21a8.77,8.77,0,0,1,8.71-9Zm10.08,8.82a8.91,8.91,0,0,1-8.68,9.17v-.21c2.07-.21,2.73-2.41,2.73-9,0-6.86-.7-8.61-2.73-8.82v-.21A8.72,8.72,0,0,1,113.75,128.21Z"/><path class="cls-3" d="M124.46,135c0,.87.53,1.78,2.63,1.78V137h-11v-.21c2.1,0,2.63-.91,2.63-1.78V122.61c0-1.26-.6-1.86-2.59-1.86v-.21a21.49,21.49,0,0,0,8.36-1.36ZM133.91,123a3.74,3.74,0,0,1-3.6,4,2.39,2.39,0,0,1-2-.77,2.56,2.56,0,0,0,1.37-2.38,1.86,1.86,0,0,0-2-1.89,2.39,2.39,0,0,0-2.1,1.33V123a4.84,4.84,0,0,1,4.55-3.78A3.55,3.55,0,0,1,133.91,123Z"/><path class="cls-3" d="M144.76,119.39c-2.06.24-3,2-3,8.68,0,5,2.55,7.81,5.67,7.81a7.62,7.62,0,0,0,5.11-1.86v.21c-1.82,2.31-5.15,3.15-7.42,3.15a9.15,9.15,0,0,1-9.35-9.17,9,9,0,0,1,9-9Zm7.77,3.74a3.26,3.26,0,0,1-3.5,3.37,3,3,0,0,1-3-2.21,3,3,0,0,0,1.68-2.56,2.08,2.08,0,0,0-1.51-2.31v-.24C150.75,119.18,152.53,121.14,152.53,123.13Z"/><path class="cls-3" d="M155.44,121a1.9,1.9,0,0,0-1.93-1.22v-.21h9.8v.21c-1.22,0-1.71.84-1.12,2.06l4.59,9.56-3,5.67h-.21Zm-1.54,21.71c0-1.51,1.19-2.77,3.08-3.29a2.51,2.51,0,0,0-.14.87,2,2,0,0,0,2.06,2.35c1.23,0,2.21-1.3,3.54-3.54h.24c-1.92,3.61-3.25,6.72-5.7,6.72A2.91,2.91,0,0,1,153.9,142.67Zm14.35-14.74a9.67,9.67,0,0,0,1-4.51,3.39,3.39,0,0,0-3.57-3.68v-.21h8.71v.21c-1.15,0-1.61.45-2.27,1.64l-3.64,6.87Z"/><path class="cls-3" d="M183.51,119.39c-2.07.24-3,2-3,8.68,0,5,2.56,7.81,5.67,7.81a7.58,7.58,0,0,0,5.11-1.86v.21c-1.82,2.31-5.14,3.15-7.42,3.15a9.15,9.15,0,0,1-9.34-9.17,9,9,0,0,1,9-9Zm7.77,3.74a3.26,3.26,0,0,1-3.5,3.37,3,3,0,0,1-3.05-2.21,3,3,0,0,0,1.68-2.56,2.08,2.08,0,0,0-1.5-2.31v-.24C189.49,119.18,191.28,121.14,191.28,123.13Z"/><path class="cls-3" d="M193.1,112.67a21.3,21.3,0,0,0,8.36-1.37V135c0,.87.53,1.78,2.63,1.78V137h-11v-.21c2.1,0,2.63-.91,2.63-1.78V114.73c0-1.26-.6-1.85-2.59-1.85Z"/><path class="cls-3" d="M206.19,128.21a8.66,8.66,0,0,1,8.57-9v.21c-2.06.24-2.62,2-2.62,8.68,0,5,2.24,7.81,5.35,7.81A7.58,7.58,0,0,0,222.6,134v.21c-1.82,2.31-5.14,3.15-7.42,3.15A8.87,8.87,0,0,1,206.19,128.21Zm7.87-1.47c3.08,0,4.38-1,4.38-3.92,0-1.68-.7-3.22-2.28-3.43v-.21c4.62,0,6.86,3.29,6.86,5.95a10.9,10.9,0,0,1-.17,1.82h-8.79Z"/><path class="cls-3" d="M29.58,171.87a1.79,1.79,0,0,0-2,1.75c0,1,.7,2.31,3.11,2.55v.21c-4.65-.17-7.21-1.43-7.21-3.46a2.73,2.73,0,0,1,3-2.59A3.56,3.56,0,0,1,29.58,171.87Zm1.15-13.48c-1.29.24-2.55.91-2.52,2.34.11,4.06,11.45,4.73,11.45,10.3,0,3.39-2.87,5.18-7.39,5.35v-.21c1.47-.24,3.12-.77,3.12-2.59,0-3.64-11.48-5-11.48-10.29,0-3.08,2.9-4.94,6.82-5.11Zm8.26,3.4A2.29,2.29,0,0,1,36.4,164a3,3,0,0,1-3-1.69A1.54,1.54,0,0,0,35,160.63c0-1-1.33-2.07-2.73-2.24v-.21C36.23,158.39,39,159.82,39,161.79Z"/><path class="cls-3" d="M50.05,181.35c0,1.26.6,1.86,2.59,1.86v.21a23,23,0,0,0-8.36,1.36v-23.2c0-1.27-.6-1.86-2.59-1.86v-.21a22.83,22.83,0,0,0,8.36-1.37Zm13.34-14.24c0,7.31-3.85,9.27-7.18,9.27a6.57,6.57,0,0,1-5.11-2.83v-.21A5,5,0,0,0,54,174.56c1.65,0,3.4-1.15,3.4-7.45S55.79,160,54,160a3.94,3.94,0,0,0-2.94,1.3V161a6.54,6.54,0,0,1,5.11-2.8C59.61,158.18,63.39,160.14,63.39,167.11Z"/><path class="cls-3" d="M66.47,167.21a8.66,8.66,0,0,1,8.57-9v.21c-2.06.24-2.62,2-2.62,8.68,0,5,2.24,7.81,5.35,7.81A7.58,7.58,0,0,0,82.88,173v.21c-1.82,2.31-5.14,3.15-7.42,3.15A8.87,8.87,0,0,1,66.47,167.21Zm7.87-1.47c3.08,0,4.38-1,4.38-3.92,0-1.68-.7-3.22-2.28-3.43v-.21c4.62,0,6.86,3.29,6.86,5.95a10.9,10.9,0,0,1-.17,1.82H74.34Z"/><path class="cls-3" d="M95.13,158.39c-2.06.24-3,2-3,8.68,0,5,2.55,7.81,5.67,7.81a7.62,7.62,0,0,0,5.11-1.86v.21c-1.82,2.31-5.15,3.15-7.42,3.15a9.15,9.15,0,0,1-9.35-9.17,9,9,0,0,1,9-9Zm7.77,3.74a3.26,3.26,0,0,1-3.5,3.37,3,3,0,0,1-3-2.21A3,3,0,0,0,98,160.73a2.08,2.08,0,0,0-1.51-2.31v-.24C101.12,158.18,102.9,160.14,102.9,162.13Z"/><path class="cls-3" d="M105,159.51a21.3,21.3,0,0,0,8.36-1.37V174c0,.87.53,1.78,2.63,1.78V176h-11v-.21c2.1,0,2.63-.91,2.63-1.78V161.58c0-1.27-.6-1.86-2.59-1.86Zm1.78-6.58c0-1.82,1.47-3.05,3.57-3.05s3.57,1.23,3.57,3.05-1.47,3.08-3.57,3.08S106.75,154.78,106.75,152.93Z"/><path class="cls-3" d="M117.71,171.9c0-3,2.8-4.76,6.72-4.76h3.78v.21h-1.05c-2.52,0-3.71,1.65-3.71,3.82,0,1.92.56,3.39,2.2,3.39a3.84,3.84,0,0,0,2.56-1.22v.21a7.45,7.45,0,0,1-5.57,2.83C119.67,176.38,117.67,174.7,117.71,171.9Zm1.4-9.9c0-1.79,1.61-3.61,6.37-3.82v.21a2.55,2.55,0,0,0-2.24,2.55c0,1.27.87,2,2.27,2.14a3.93,3.93,0,0,1-3.36,1.68A2.8,2.8,0,0,1,119.11,162Zm10.15,10.43V161.71c0-1.71-.67-3.08-2.38-3.32v-.21c5.81.21,8.12,2.41,8.12,7v8.51c0,1,.35,1.43,1,1.43s1.12-.52,1.68-1.57h.21c-.56,1.92-2.45,2.83-4.55,2.83C130.52,176.38,129.26,175.4,129.26,172.43Z"/><path class="cls-3" d="M138.78,151.67a21.3,21.3,0,0,0,8.36-1.37V174c0,.87.53,1.78,2.63,1.78V176h-11v-.21c2.1,0,2.63-.91,2.63-1.78V153.73c0-1.26-.6-1.85-2.59-1.85Z"/><path class="cls-3" d="M151.31,159.51a21.3,21.3,0,0,0,8.36-1.37V174c0,.87.53,1.78,2.63,1.78V176h-11v-.21c2.1,0,2.63-.91,2.63-1.78V161.58c0-1.27-.6-1.86-2.59-1.86Zm1.78-6.58c0-1.82,1.47-3.05,3.57-3.05s3.57,1.23,3.57,3.05-1.47,3.08-3.57,3.08S153.09,154.78,153.09,152.93Z"/><path class="cls-3" d="M170.49,171.87a1.79,1.79,0,0,0-2,1.75c0,1,.7,2.31,3.11,2.55v.21c-4.65-.17-7.21-1.43-7.21-3.46a2.73,2.73,0,0,1,3-2.59A3.56,3.56,0,0,1,170.49,171.87Zm1.15-13.48c-1.29.24-2.55.91-2.52,2.34.11,4.06,11.45,4.73,11.45,10.3,0,3.39-2.87,5.18-7.39,5.35v-.21c1.47-.24,3.12-.77,3.12-2.59,0-3.64-11.48-5-11.48-10.29,0-3.08,2.9-4.94,6.82-5.11Zm8.26,3.4a2.29,2.29,0,0,1-2.59,2.17,3,3,0,0,1-3-1.69,1.54,1.54,0,0,0,1.57-1.64c0-1-1.33-2.07-2.73-2.24v-.21C177.14,158.39,179.9,159.82,179.9,161.79Z"/><path class="cls-3" d="M196.46,173.34v.21a7.32,7.32,0,0,1-6,2.83c-3.15,0-5.39-1.43-5.39-4.93V160h-1.82l.39-.52h1.43v-3.78a8.85,8.85,0,0,0,5.74-2v5.74h4.73l-.39.52h-4.34v11.59c0,1.75.67,3.57,2.31,3.57A5.2,5.2,0,0,0,196.46,173.34Z"/></g></svg>