<svg id="Layer_1" data-name="Layer 1" xmlns="http://www.w3.org/2000/svg" xmlns:xlink="http://www.w3.org/1999/xlink" viewBox="0 0 320 480"><defs><style>.cls-1{fill:none;}.cls-2{clip-path:url(#clip-path);}.cls-3{fill:#fff;}</style><clipPath id="clip-path"><rect class="cls-1" width="320" height="480"/></clipPath></defs><title>Artboard 1</title><g class="cls-2"><path class="cls-3" d="M30.42,43.8,35,53.36,32,59h-.21L23.66,43a1.89,1.89,0,0,0-1.92-1.22v-.21h9.8v.21C30.31,41.74,29.82,42.58,30.42,43.8Zm11.51,0,4.59,9.56-3,5.67H43.3L37.8,48.15l-1.12,2.1-.21-.32A5.21,5.21,0,0,0,36.75,46L35.18,43a1.9,1.9,0,0,0-1.93-1.22v-.21h9.8v.21C41.83,41.74,41.34,42.58,41.93,43.8Zm12.19-2.27v.21c-1.16,0-1.65.45-2.28,1.64L48.2,50.25,48,49.93a9.54,9.54,0,0,0,1-4.51,3.38,3.38,0,0,0-3.57-3.68v-.21Z"/><path class="cls-3" d="M54.43,42.51a21.3,21.3,0,0,0,8.36-1.37V57c0,.87.53,1.78,2.63,1.78V59h-11v-.21c2.1,0,2.63-.91,2.63-1.78V44.58c0-1.27-.6-1.86-2.59-1.86Zm1.78-6.58c0-1.82,1.47-3,3.57-3s3.57,1.23,3.57,3S61.88,39,59.78,39,56.21,37.78,56.21,35.93Z"/><path class="cls-3" d="M80.47,56.34v.21a7.32,7.32,0,0,1-6,2.83c-3.15,0-5.39-1.43-5.39-4.93V43H67.27l.39-.52h1.43V38.66a8.85,8.85,0,0,0,5.74-2v5.74h4.73l-.39.52H74.83V54.55c0,1.75.67,3.57,2.31,3.57A5.2,5.2,0,0,0,80.47,56.34Z"/><path class="cls-3" d="M89.5,57c0,.87.52,1.78,2.62,1.78V59h-11v-.21c2.1,0,2.62-.91,2.62-1.78V36.73c0-1.26-.59-1.85-2.59-1.85v-.21A21.36,21.36,0,0,0,89.5,33.3Zm12.25-10.92V57c0,.87.52,1.78,2.62,1.78V59h-11v-.21c2.07,0,2.59-.91,2.59-1.78V46.12c0-2-1-3-2.76-3a3.77,3.77,0,0,0-2.66,1.08V44a7.14,7.14,0,0,1,5.81-2.83C99.51,41.18,101.75,42.65,101.75,46.12Z"/><path class="cls-3" d="M115,41.39c-2.07.24-2.77,2-2.77,8.82,0,6.58.7,8.75,2.77,9v.21a8.92,8.92,0,0,1-8.72-9.17,8.77,8.77,0,0,1,8.72-9Zm10.08,8.82a8.92,8.92,0,0,1-8.68,9.17v-.21c2.06-.21,2.73-2.41,2.73-9,0-6.86-.7-8.61-2.73-8.82v-.21A8.72,8.72,0,0,1,125.06,50.21Z"/><path class="cls-3" d="M135.38,54.45c0,2,.67,3,2.42,3a3.09,3.09,0,0,0,2.41-1.08v.21a5.83,5.83,0,0,1-5.42,2.83c-3.15,0-5.18-1.47-5.18-4.93V44.61c0-1.26-.6-1.86-2.59-1.86v-.21a21.49,21.49,0,0,0,8.36-1.36ZM147,56.69c0,1,.31,1.43.94,1.43s1.12-.52,1.68-1.57h.21c-.56,1.92-2.45,2.83-4.76,2.83S141.26,58,141.26,56V44.61c0-1.26-.59-1.86-2.48-1.86v-.21A22.86,22.86,0,0,0,147,41.18Z"/><path class="cls-3" d="M164.85,56.34v.21a7.32,7.32,0,0,1-6,2.83c-3.15,0-5.39-1.43-5.39-4.93V43h-1.82l.38-.52h1.44V38.66a8.89,8.89,0,0,0,5.74-2v5.74h4.72l-.38.52h-4.34V54.55c0,1.75.66,3.57,2.31,3.57A5.15,5.15,0,0,0,164.85,56.34Z"/><path class="cls-3" d="M188.16,56.34v.21a7.32,7.32,0,0,1-6,2.83c-3.15,0-5.39-1.43-5.39-4.93V43H175l.39-.52h1.44V38.66a8.89,8.89,0,0,0,5.74-2v5.74h4.72l-.38.52h-4.34V54.55c0,1.75.66,3.57,2.31,3.57A5.15,5.15,0,0,0,188.16,56.34Z"/><path class="cls-3" d="M197.19,57c0,.87.53,1.78,2.63,1.78V59h-11v-.21c2.1,0,2.63-.91,2.63-1.78V36.73c0-1.26-.6-1.85-2.6-1.85v-.21a21.32,21.32,0,0,0,8.37-1.37Zm12.25-10.92V57c0,.87.53,1.78,2.63,1.78V59h-11v-.21c2.06,0,2.59-.91,2.59-1.78V46.12c0-2-1-3-2.77-3a3.77,3.77,0,0,0-2.66,1.08V44a7.15,7.15,0,0,1,5.81-2.83C207.2,41.18,209.44,42.65,209.44,46.12Z"/><path class="cls-3" d="M214,50.21a8.66,8.66,0,0,1,8.57-9v.21c-2.07.24-2.62,2-2.62,8.68,0,5,2.24,7.81,5.35,7.81A7.58,7.58,0,0,0,230.37,56v.21c-1.82,2.31-5.14,3.15-7.42,3.15A8.87,8.87,0,0,1,214,50.21Zm7.87-1.47c3.08,0,4.38-1,4.38-3.92,0-1.68-.7-3.22-2.28-3.43v-.21c4.62,0,6.86,3.29,6.86,6a10.9,10.9,0,0,1-.17,1.82h-8.79Z"/><path class="cls-3" d="M23.49,89.21a8.66,8.66,0,0,1,8.57-9v.21c-2.06.24-2.62,2-2.62,8.68,0,5,2.24,7.81,5.35,7.81A7.58,7.58,0,0,0,39.9,95v.21c-1.82,2.31-5.14,3.15-7.42,3.15A8.87,8.87,0,0,1,23.49,89.21Zm7.87-1.47c3.08,0,4.38-1,4.38-3.92,0-1.68-.7-3.22-2.28-3.43v-.21c4.62,0,6.86,3.29,6.86,5.95A10.9,10.9,0,0,1,40.15,88H31.36Z"/><path class="cls-3" d="M41,97.82a4.74,4.74,0,0,0,3.68-2.31l3.11-4.69.21.32a7.56,7.56,0,0,0-1.12,3.74,2.74,2.74,0,0,0,2.59,2.94V98H41Zm10.19,0c1.4,0,2-.45,2-1.19a3.77,3.77,0,0,0-.7-1.82L44.17,82c-.45-.7-1-1.22-2.69-1.22v-.21h10.6v.21c-1.08,0-1.57.21-1.57.77a4.5,4.5,0,0,0,1,2.2L59.68,96.6a2.37,2.37,0,0,0,2.07,1.22V98H51.14Zm4.65-10.64a7.39,7.39,0,0,0,.81-3.5,2.68,2.68,0,0,0-2.8-2.94v-.21h7.42v.21a3.22,3.22,0,0,0-2.56,2L56,87.5Z"/><path class="cls-3" d="M71.61,80.39c-2.06.24-3,2-3,8.68,0,5,2.55,7.81,5.67,7.81A7.62,7.62,0,0,0,79.42,95v.21c-1.82,2.31-5.15,3.15-7.42,3.15a9.15,9.15,0,0,1-9.35-9.17,9,9,0,0,1,9-9Zm7.77,3.74a3.26,3.26,0,0,1-3.5,3.37,3,3,0,0,1-3-2.21,3,3,0,0,0,1.68-2.56A2.08,2.08,0,0,0,73,80.42v-.24C77.6,80.18,79.38,82.14,79.38,84.13Z"/><path class="cls-3" d="M82,89.21a8.66,8.66,0,0,1,8.57-9v.21c-2.06.24-2.62,2-2.62,8.68,0,5,2.24,7.81,5.35,7.81A7.58,7.58,0,0,0,98.42,95v.21c-1.82,2.31-5.14,3.15-7.42,3.15A8.87,8.87,0,0,1,82,89.21Zm7.87-1.47c3.08,0,4.38-1,4.38-3.92,0-1.68-.7-3.22-2.28-3.43v-.21c4.62,0,6.86,3.29,6.86,5.95A10.9,10.9,0,0,1,98.67,88H89.88Z"/><path class="cls-3" d="M107.8,93.87a1.79,1.79,0,0,0-2,1.75c0,1,.7,2.31,3.12,2.55v.21c-4.66-.17-7.21-1.43-7.21-3.46a2.73,2.73,0,0,1,3-2.59A3.55,3.55,0,0,1,107.8,93.87ZM109,80.39c-1.3.24-2.56.91-2.52,2.34.1,4.06,11.44,4.73,11.44,10.3,0,3.39-2.87,5.18-7.38,5.35v-.21c1.47-.24,3.11-.77,3.11-2.59,0-3.64-11.48-5-11.48-10.29,0-3.08,2.91-4.94,6.83-5.11Zm8.26,3.4A2.29,2.29,0,0,1,114.63,86a3,3,0,0,1-3-1.69,1.55,1.55,0,0,0,1.58-1.64c0-1-1.33-2.07-2.73-2.24v-.21C114.45,80.39,117.22,81.82,117.22,83.79Z"/><path class="cls-3" d="M126.91,93.87a1.79,1.79,0,0,0-2,1.75c0,1,.7,2.31,3.12,2.55v.21c-4.66-.17-7.21-1.43-7.21-3.46a2.73,2.73,0,0,1,3-2.59A3.55,3.55,0,0,1,126.91,93.87Zm1.16-13.48c-1.3.24-2.56.91-2.52,2.34C125.65,86.79,137,87.46,137,93c0,3.39-2.87,5.18-7.38,5.35v-.21c1.47-.24,3.11-.77,3.11-2.59,0-3.64-11.48-5-11.48-10.29,0-3.08,2.91-4.94,6.83-5.11Zm8.26,3.4A2.29,2.29,0,0,1,133.74,86a3,3,0,0,1-3-1.69,1.55,1.55,0,0,0,1.58-1.64c0-1-1.33-2.07-2.73-2.24v-.21C133.56,80.39,136.33,81.82,136.33,83.79Z"/><path class="cls-3" d="M139.37,81.51a21.36,21.36,0,0,0,8.37-1.37V96c0,.87.52,1.78,2.62,1.78V98h-11v-.21c2.1,0,2.62-.91,2.62-1.78V83.58c0-1.27-.59-1.86-2.59-1.86Zm1.79-6.58c0-1.82,1.47-3.05,3.57-3.05s3.57,1.23,3.57,3.05S146.83,78,144.73,78,141.16,76.78,141.16,74.93Z"/><path class="cls-3" d="M152.64,82a1.9,1.9,0,0,0-1.93-1.22v-.21h9.8v.21c-1.22,0-1.71.84-1.12,2.06L164,92.36,161,98h-.21Zm12.81,7a9.67,9.67,0,0,0,1-4.51,3.39,3.39,0,0,0-3.57-3.68v-.21h8.71v.21c-1.15,0-1.61.45-2.27,1.64l-3.64,6.87Z"/><path class="cls-3" d="M171.85,89.21a8.66,8.66,0,0,1,8.58-9v.21c-2.07.24-2.63,2-2.63,8.68,0,5,2.24,7.81,5.36,7.81A7.62,7.62,0,0,0,188.27,95v.21c-1.82,2.31-5.15,3.15-7.42,3.15A8.87,8.87,0,0,1,171.85,89.21Zm7.88-1.47c3.08,0,4.37-1,4.37-3.92,0-1.68-.7-3.22-2.27-3.43v-.21c4.62,0,6.86,3.29,6.86,5.95a9.94,9.94,0,0,1-.18,1.82h-8.78Z"/><path class="cls-3" d="M30.94,142.35c0,1.26.6,1.86,2.59,1.86v.21a23,23,0,0,0-8.36,1.36v-23.2c0-1.27-.6-1.86-2.59-1.86v-.21a22.83,22.83,0,0,0,8.36-1.37Zm13.34-14.24c0,7.31-3.85,9.27-7.18,9.27A6.57,6.57,0,0,1,32,134.55v-.21a5,5,0,0,0,2.94,1.22c1.65,0,3.4-1.15,3.4-7.45S36.68,121,34.93,121a3.94,3.94,0,0,0-2.94,1.3V122a6.54,6.54,0,0,1,5.11-2.8C40.5,119.18,44.28,121.14,44.28,128.11Z"/><path class="cls-3" d="M55.13,135c0,.87.52,1.78,2.62,1.78V137h-11v-.21c2.1,0,2.62-.91,2.62-1.78V122.61c0-1.26-.59-1.86-2.59-1.86v-.21a21.54,21.54,0,0,0,8.37-1.36ZM64.58,123A3.75,3.75,0,0,1,61,127a2.37,2.37,0,0,1-2-.77,2.57,2.57,0,0,0,1.36-2.38,1.86,1.86,0,0,0-2-1.89,2.4,2.4,0,0,0-2.1,1.33V123a4.85,4.85,0,0,1,4.55-3.78A3.55,3.55,0,0,1,64.58,123Z"/><path class="cls-3" d="M66.47,128.21a8.66,8.66,0,0,1,8.57-9v.21c-2.06.24-2.62,2-2.62,8.68,0,5,2.24,7.81,5.35,7.81A7.58,7.58,0,0,0,82.88,134v.21c-1.82,2.31-5.14,3.15-7.42,3.15A8.87,8.87,0,0,1,66.47,128.21Zm7.87-1.47c3.08,0,4.38-1,4.38-3.92,0-1.68-.7-3.22-2.28-3.43v-.21c4.62,0,6.86,3.29,6.86,5.95a10.9,10.9,0,0,1-.17,1.82H74.34Z"/><path class="cls-3" d="M93.94,135c0,.87.53,1.78,2.63,1.78V137h-11v-.21c2.1,0,2.63-.91,2.63-1.78V122.61c0-1.26-.6-1.86-2.59-1.86v-.21a21.49,21.49,0,0,0,8.36-1.36Zm11.62-10.92V135c0,.87.49,1.78,2.59,1.78V137h-11v-.21c2.07,0,2.63-.91,2.63-1.78V124.12c0-2-.77-3-2.45-3a3.07,3.07,0,0,0-2.31,1V122a5.65,5.65,0,0,1,5.11-2.8C103.46,119.18,105.56,120.65,105.56,124.12Zm11.59,0V135c0,.87.53,1.78,2.63,1.78V137h-11v-.21c2.06,0,2.62-.91,2.62-1.78V124.12c0-2-.77-3-2.45-3a3.08,3.08,0,0,0-2.31,1V122a5.67,5.67,0,0,1,5.11-2.8C115.05,119.18,117.15,120.65,117.15,124.12Z"/><path class="cls-3" d="M121.1,120.51a21.36,21.36,0,0,0,8.37-1.37V135c0,.87.52,1.78,2.62,1.78V137h-11v-.21c2.1,0,2.62-.91,2.62-1.78V122.58c0-1.27-.59-1.86-2.59-1.86Zm1.79-6.58c0-1.82,1.47-3.05,3.57-3.05s3.57,1.23,3.57,3.05-1.47,3.08-3.57,3.08S122.89,115.78,122.89,113.93Z"/><path class="cls-3" d="M141.58,132.45c0,2,.66,3,2.41,3a3.11,3.11,0,0,0,2.42-1.08v.21a5.85,5.85,0,0,1-5.43,2.83c-3.15,0-5.18-1.47-5.18-4.93v-9.84c0-1.26-.59-1.86-2.59-1.86v-.21a21.54,21.54,0,0,0,8.37-1.36Zm11.65,2.24c0,1,.32,1.43,1,1.43s1.12-.52,1.68-1.57h.21c-.56,1.92-2.45,2.83-4.76,2.83s-3.85-1.4-3.85-3.43V122.61c0-1.26-.6-1.86-2.49-1.86v-.21a22.86,22.86,0,0,0,8.26-1.36Z"/><path class="cls-3" d="M165.87,135c0,.87.52,1.78,2.62,1.78V137h-11v-.21c2.1,0,2.62-.91,2.62-1.78V122.61c0-1.26-.59-1.86-2.59-1.86v-.21a21.54,21.54,0,0,0,8.37-1.36Zm11.62-10.92V135c0,.87.49,1.78,2.59,1.78V137h-11v-.21c2.06,0,2.62-.91,2.62-1.78V124.12c0-2-.77-3-2.45-3a3.08,3.08,0,0,0-2.31,1V122a5.67,5.67,0,0,1,5.11-2.8C175.39,119.18,177.49,120.65,177.49,124.12Zm11.58,0V135c0,.87.53,1.78,2.63,1.78V137h-11v-.21c2.07,0,2.63-.91,2.63-1.78V124.12c0-2-.77-3-2.45-3a3.07,3.07,0,0,0-2.31,1V122a5.65,5.65,0,0,1,5.11-2.8C187,119.18,189.07,120.65,189.07,124.12Z"/><path class="cls-3" d="M199.68,132.87a1.79,1.79,0,0,0-2,1.75c0,1,.7,2.31,3.11,2.55v.21c-4.65-.17-7.21-1.43-7.21-3.46a2.73,2.73,0,0,1,3-2.59A3.56,3.56,0,0,1,199.68,132.87Zm1.15-13.48c-1.29.24-2.55.91-2.52,2.34.11,4.06,11.45,4.73,11.45,10.3,0,3.39-2.87,5.18-7.39,5.35v-.21c1.47-.24,3.12-.77,3.12-2.59,0-3.64-11.48-5-11.48-10.29,0-3.08,2.9-4.94,6.82-5.11Zm8.26,3.4A2.29,2.29,0,0,1,206.5,125a3,3,0,0,1-3-1.69,1.54,1.54,0,0,0,1.57-1.64c0-1-1.33-2.07-2.73-2.24v-.21C206.33,119.39,209.09,120.82,209.09,122.79Z"/></g></svg>