<svg id="Layer_1" data-name="Layer 1" xmlns="http://www.w3.org/2000/svg" xmlns:xlink="http://www.w3.org/1999/xlink" viewBox="0 0 300 250"><defs><style>.cls-1{fill:none;}.cls-2{clip-path:url(#clip-path);}.cls-3{fill:#fff;}</style><clipPath id="clip-path"><rect class="cls-1" width="300" height="250"/></clipPath></defs><title>Artboard 1 copy 5</title><g class="cls-2"><path class="cls-3" d="M28.19,44.3a17.19,17.19,0,0,0,6.69-1.09V55.92c0,.7.42,1.43,2.1,1.43v.17H28.16v-.17c1.68,0,2.1-.73,2.1-1.43V46c0-1-.47-1.48-2.07-1.48ZM29.62,39c0-1.46,1.17-2.44,2.85-2.44s2.86,1,2.86,2.44-1.18,2.46-2.86,2.46S29.62,40.52,29.62,39Z"/><path class="cls-3" d="M43.53,54.19A1.42,1.42,0,0,0,42,55.59c0,.81.56,1.85,2.49,2v.17c-3.73-.14-5.77-1.15-5.77-2.77A2.19,2.19,0,0,1,41.07,53,2.85,2.85,0,0,1,43.53,54.19Zm.93-10.78c-1,.19-2.05.73-2,1.87.09,3.25,9.16,3.78,9.16,8.24,0,2.71-2.3,4.14-5.91,4.28v-.17c1.18-.19,2.49-.61,2.49-2.07,0-2.91-9.18-4-9.18-8.23,0-2.47,2.32-3.95,5.46-4.09Zm6.61,2.71A1.84,1.84,0,0,1,49,47.86a2.41,2.41,0,0,1-2.38-1.34,1.25,1.25,0,0,0,1.26-1.32c0-.84-1.06-1.65-2.18-1.79v-.17C48.85,43.41,51.07,44.56,51.07,46.12Z"/><path class="cls-3" d="M61.06,50.46a6.94,6.94,0,0,1,6.86-7.22v.17c-1.65.19-2.1,1.59-2.1,6.94,0,4,1.79,6.25,4.29,6.25a6.06,6.06,0,0,0,4.08-1.49v.17a7.82,7.82,0,0,1-5.93,2.52A7.1,7.1,0,0,1,61.06,50.46Zm6.3-1.17c2.47,0,3.5-.79,3.5-3.14,0-1.34-.56-2.58-1.82-2.74v-.17c3.7,0,5.49,2.63,5.49,4.76a8.59,8.59,0,0,1-.14,1.45h-7Z"/><path class="cls-3" d="M76.54,54.21c0-2.43,2.25-3.8,5.38-3.8h3v.16h-.84a2.78,2.78,0,0,0-3,3.06c0,1.54.44,2.71,1.76,2.71a3.08,3.08,0,0,0,2-1v.17a6,6,0,0,1-4.46,2.27C78.11,57.8,76.52,56.45,76.54,54.21Zm1.12-7.92c0-1.43,1.29-2.88,5.1-3v.17a2,2,0,0,0-1.79,2c0,1,.7,1.62,1.82,1.71A3.16,3.16,0,0,1,80.1,48.5,2.24,2.24,0,0,1,77.66,46.29Zm8.13,8.35V46.07c0-1.37-.54-2.47-1.91-2.66v-.17c4.65.17,6.5,1.93,6.5,5.6v6.8c0,.81.28,1.15.78,1.15s.9-.42,1.34-1.26h.17c-.44,1.54-2,2.27-3.64,2.27C86.79,57.8,85.79,57,85.79,54.64Z"/><path class="cls-3" d="M98.92,54.19a1.43,1.43,0,0,0-1.57,1.4c0,.81.56,1.85,2.49,2v.17c-3.72-.14-5.77-1.15-5.77-2.77A2.19,2.19,0,0,1,96.45,53,2.87,2.87,0,0,1,98.92,54.19Zm.92-10.78c-1,.19-2,.73-2,1.87.08,3.25,9.15,3.78,9.15,8.24,0,2.71-2.3,4.14-5.91,4.28v-.17c1.18-.19,2.49-.61,2.49-2.07,0-2.91-9.18-4-9.18-8.23,0-2.47,2.33-3.95,5.46-4.09Zm6.61,2.71a1.83,1.83,0,0,1-2.07,1.74A2.39,2.39,0,0,1,102,46.52a1.25,1.25,0,0,0,1.26-1.32c0-.84-1.07-1.65-2.19-1.79v-.17C104.24,43.41,106.45,44.56,106.45,46.12Z"/><path class="cls-3" d="M109.33,44.67a1.51,1.51,0,0,0-1.54-1v-.17h7.84v.17c-1,0-1.37.67-.89,1.65L118.41,53,116,57.52h-.17ZM108.1,62a2.92,2.92,0,0,1,2.46-2.63,2.22,2.22,0,0,0-.11.7A1.63,1.63,0,0,0,112.1,62c1,0,1.77-1,2.83-2.83h.2c-1.54,2.89-2.61,5.38-4.57,5.38A2.33,2.33,0,0,1,108.1,62Zm11.48-11.79a7.63,7.63,0,0,0,.79-3.61,2.71,2.71,0,0,0-2.86-2.94v-.17h7v.17c-.92,0-1.29.36-1.82,1.31l-2.91,5.49Z"/><path class="cls-3" d="M135.91,45.34,139.57,53l-2.41,4.54H137l-6.5-12.85a1.51,1.51,0,0,0-1.54-1v-.17h7.84v.17C135.82,43.69,135.43,44.36,135.91,45.34Zm9.21,0L148.79,53l-2.41,4.54h-.17l-4.4-8.71-.89,1.68-.17-.25a4.15,4.15,0,0,0,.22-3.11l-1.26-2.46a1.51,1.51,0,0,0-1.54-1v-.17H146v.17C145,43.69,144.64,44.36,145.12,45.34Zm9.74-1.82v.17c-.92,0-1.32.36-1.82,1.31l-2.91,5.49-.17-.25a7.63,7.63,0,0,0,.79-3.61,2.71,2.71,0,0,0-2.86-2.94v-.17Z"/><path class="cls-3" d="M155.11,44.3a17.12,17.12,0,0,0,6.69-1.09V55.92c0,.7.42,1.43,2.11,1.43v.17h-8.83v-.17c1.68,0,2.1-.73,2.1-1.43V46c0-1-.47-1.48-2.07-1.48ZM156.54,39c0-1.46,1.18-2.44,2.86-2.44s2.85,1,2.85,2.44-1.17,2.46-2.85,2.46S156.54,40.52,156.54,39Z"/><path class="cls-3" d="M175.94,55.36v.17a5.83,5.83,0,0,1-4.78,2.27c-2.52,0-4.32-1.15-4.32-3.95V44.67h-1.45l.31-.42h1.14v-3a7.09,7.09,0,0,0,4.6-1.57v4.6h3.78l-.31.42h-3.47v9.27c0,1.39.53,2.85,1.84,2.85A4.08,4.08,0,0,0,175.94,55.36Z"/><path class="cls-3" d="M183.17,55.92c0,.7.42,1.43,2.1,1.43v.17h-8.82v-.17c1.68,0,2.1-.73,2.1-1.43V39.68c0-1-.48-1.48-2.07-1.48V38a17.19,17.19,0,0,0,6.69-1.09Zm9.8-8.73v8.73c0,.7.42,1.43,2.1,1.43v.17h-8.79v-.17c1.65,0,2.07-.73,2.07-1.43V47.19c0-1.57-.81-2.38-2.21-2.38a3,3,0,0,0-2.13.87v-.17a5.69,5.69,0,0,1,4.65-2.27C191.18,43.24,193,44.41,193,47.19Z"/><path class="cls-3" d="M35.78,87.63v.17a10.69,10.69,0,0,1-5.43-1.37l-.93,1.37H29.2V81h.22A9.4,9.4,0,0,0,35.78,87.63ZM44,82.06c0,3.61-2.69,5.57-7,5.74v-.17c1.54-.28,3.05-1.18,3.05-2.85,0-4.9-10.69-5.35-10.69-11,0-3.36,2.71-5.29,6.44-5.54v.17a2.64,2.64,0,0,0-2.47,2.57C33.31,75.84,44,76.38,44,82.06ZM37,68.37V68.2a9,9,0,0,1,5,1.48l1-1.48h.22v6.24H43A8.91,8.91,0,0,0,37,68.37Z"/><path class="cls-3" d="M56.78,85.36v.17A5.86,5.86,0,0,1,52,87.8c-2.52,0-4.31-1.15-4.31-4V74.67H46.22l.31-.42h1.15v-3a7.09,7.09,0,0,0,4.59-1.56v4.59h3.78l-.31.42H52.27v9.27c0,1.4.53,2.85,1.85,2.85A4.13,4.13,0,0,0,56.78,85.36Z"/><path class="cls-3" d="M57.67,84.22c0-2.44,2.24-3.81,5.38-3.81h3v.16h-.84a2.77,2.77,0,0,0-3,3.06c0,1.54.44,2.71,1.76,2.71a3.06,3.06,0,0,0,2-1v.17a5.92,5.92,0,0,1-4.45,2.27C59.24,87.8,57.65,86.45,57.67,84.22Zm1.12-7.93c0-1.43,1.29-2.88,5.1-3.05v.17a2,2,0,0,0-1.79,2c0,1,.7,1.62,1.82,1.71a3.16,3.16,0,0,1-2.69,1.34A2.24,2.24,0,0,1,58.79,76.29Zm8.12,8.35V76.07c0-1.37-.53-2.47-1.9-2.66v-.17c4.65.17,6.5,1.93,6.5,5.6v6.8c0,.81.28,1.15.78,1.15s.9-.42,1.34-1.26h.17c-.45,1.54-2,2.27-3.64,2.27C67.92,87.8,66.91,87,66.91,84.64Z"/><path class="cls-3" d="M81.39,85.92c0,.7.42,1.43,2.1,1.43v.17H74.67v-.17c1.68,0,2.1-.73,2.1-1.43V76c0-1-.48-1.48-2.07-1.48v-.17a17.19,17.19,0,0,0,6.69-1.09ZM89,76.26a3,3,0,0,1-2.88,3.19,1.9,1.9,0,0,1-1.6-.61,2,2,0,0,0,1.09-1.9A1.49,1.49,0,0,0,84,75.42a1.93,1.93,0,0,0-1.68,1.07v-.23a3.89,3.89,0,0,1,3.64-3A2.84,2.84,0,0,1,89,76.26Z"/><path class="cls-3" d="M97,87.35c1.68,0,2.1-.67,2.1-1.43V70.08c0-.76-.42-1.43-2.1-1.43v-.17h9v.17c-1.68,0-2.1.67-2.1,1.43V85.92c0,.76.42,1.43,2.1,1.43v.17H97Z"/><path class="cls-3" d="M107.88,87.35c1.68,0,2.1-.73,2.1-1.43V76c0-1-.48-1.48-2.07-1.48v-.17a17.19,17.19,0,0,0,6.69-1.09V85.92c0,.7.42,1.43,2.1,1.43v.17h-8.82Zm9.85,0c1.65,0,2.07-.73,2.07-1.43V77.19c0-1.57-.81-2.38-2.21-2.38a3,3,0,0,0-2.13.87v-.17a5.72,5.72,0,0,1,4.65-2.27c2.52,0,4.31,1.18,4.31,4v8.73c0,.7.42,1.43,2.1,1.43v.17h-8.79Z"/><path class="cls-3" d="M132.91,84.19a1.44,1.44,0,0,0-1.57,1.4c0,.81.56,1.85,2.49,2v.17c-3.72-.14-5.76-1.15-5.76-2.77A2.19,2.19,0,0,1,130.45,83,2.85,2.85,0,0,1,132.91,84.19Zm.92-10.78c-1,.19-2,.73-2,1.87.08,3.25,9.15,3.78,9.15,8.24,0,2.71-2.29,4.14-5.9,4.28v-.17c1.17-.19,2.49-.61,2.49-2.07,0-2.91-9.19-4-9.19-8.23,0-2.47,2.33-4,5.46-4.09Zm6.61,2.71a1.83,1.83,0,0,1-2.07,1.74A2.39,2.39,0,0,1,136,76.52a1.25,1.25,0,0,0,1.26-1.32c0-.84-1.07-1.65-2.18-1.79v-.17C138.23,73.41,140.44,74.56,140.44,76.12Z"/><path class="cls-3" d="M149.23,83.85c0,1.57.53,2.38,1.93,2.38a2.47,2.47,0,0,0,1.94-.87v.17a4.67,4.67,0,0,1-4.34,2.27c-2.52,0-4.15-1.18-4.15-4V76c0-1-.47-1.48-2.07-1.48v-.17a17.15,17.15,0,0,0,6.69-1.09Zm9.33,1.79c0,.81.25,1.15.75,1.15s.9-.42,1.35-1.26h.16c-.44,1.54-2,2.27-3.8,2.27s-3.08-1.12-3.08-2.74V76c0-1-.48-1.48-2-1.48v-.17a18.25,18.25,0,0,0,6.61-1.09Z"/><path class="cls-3" d="M168.66,85.92c0,.7.42,1.43,2.1,1.43v.17h-8.82v-.17c1.68,0,2.1-.73,2.1-1.43V76c0-1-.47-1.48-2.07-1.48v-.17a17.12,17.12,0,0,0,6.69-1.09Zm7.56-9.66a3,3,0,0,1-2.88,3.19,1.88,1.88,0,0,1-1.59-.61,2,2,0,0,0,1.09-1.9,1.49,1.49,0,0,0-1.57-1.52,1.91,1.91,0,0,0-1.68,1.07v-.23a3.87,3.87,0,0,1,3.64-3A2.84,2.84,0,0,1,176.22,76.26Z"/><path class="cls-3" d="M177.43,84.22c0-2.44,2.24-3.81,5.37-3.81h3v.16H185a2.78,2.78,0,0,0-3,3.06c0,1.54.45,2.71,1.76,2.71a3.08,3.08,0,0,0,2.05-1v.17a6,6,0,0,1-4.45,2.27C179,87.8,177.4,86.45,177.43,84.22Zm1.12-7.93c0-1.43,1.29-2.88,5.09-3.05v.17a2,2,0,0,0-1.79,2c0,1,.7,1.62,1.82,1.71A3.16,3.16,0,0,1,181,78.5,2.23,2.23,0,0,1,178.55,76.29Zm8.12,8.35V76.07c0-1.37-.53-2.47-1.91-2.66v-.17c4.65.17,6.5,1.93,6.5,5.6v6.8c0,.81.28,1.15.78,1.15s.9-.42,1.35-1.26h.17c-.45,1.54-2,2.27-3.64,2.27C187.68,87.8,186.67,87,186.67,84.64Z"/><path class="cls-3" d="M194.42,87.35c1.68,0,2.1-.73,2.1-1.43V76c0-1-.47-1.48-2.07-1.48v-.17a17.12,17.12,0,0,0,6.69-1.09V85.92c0,.7.42,1.43,2.1,1.43v.17h-8.82Zm9.86,0c1.65,0,2.07-.73,2.07-1.43V77.19c0-1.57-.81-2.38-2.21-2.38a3,3,0,0,0-2.13.87v-.17a5.72,5.72,0,0,1,4.65-2.27c2.52,0,4.31,1.18,4.31,4v8.73c0,.7.42,1.43,2.1,1.43v.17h-8.79Z"/><path class="cls-3" d="M221.75,73.41c-1.65.19-2.38,1.59-2.38,6.94,0,4,2,6.25,4.54,6.25A6.1,6.1,0,0,0,228,85.11v.17a7.86,7.86,0,0,1-5.94,2.52,7.33,7.33,0,0,1-7.48-7.34,7.18,7.18,0,0,1,7.17-7.22Zm6.22,3a2.6,2.6,0,0,1-2.8,2.69,2.38,2.38,0,0,1-2.44-1.76,2.42,2.42,0,0,0,1.35-2,1.65,1.65,0,0,0-1.21-1.84v-.2C226.54,73.24,228,74.81,228,76.4Z"/><path class="cls-3" d="M230.07,80.46a6.93,6.93,0,0,1,6.86-7.22v.17c-1.65.19-2.1,1.59-2.1,6.94,0,4,1.79,6.25,4.28,6.25a6.09,6.09,0,0,0,4.09-1.49v.17a7.86,7.86,0,0,1-5.94,2.52A7.09,7.09,0,0,1,230.07,80.46Zm6.3-1.17c2.46,0,3.5-.79,3.5-3.14,0-1.34-.56-2.58-1.82-2.74v-.17c3.69,0,5.49,2.63,5.49,4.76a8.59,8.59,0,0,1-.14,1.45h-7Z"/><path class="cls-3" d="M45.83,102.76l-6.3,14.76h-.39l-8-17.45a3,3,0,0,0-3-1.42v-.17h7.53l5.83,12.66,4.31-8.94ZM34.32,117.35v.17H28.16v-.17A2.46,2.46,0,0,0,30.91,115l.22-12.1.22.51L31.58,115A2.44,2.44,0,0,0,34.32,117.35Zm17.39-17.28v15.85c0,.76.42,1.43,2.1,1.43v.17h-9v-.17c1.68,0,2.1-.67,2.1-1.43V98.48h6.86v.17C52.13,98.65,51.71,99.32,51.71,100.07Z"/><path class="cls-3" d="M62.66,103.41c-1.65.19-2.21,1.59-2.21,7,0,5.27.56,7,2.21,7.17v.17a7.13,7.13,0,0,1-7-7.34,7,7,0,0,1,7-7.22Zm8.06,7a7.13,7.13,0,0,1-6.94,7.34v-.17c1.65-.17,2.18-1.93,2.18-7.17,0-5.48-.56-6.89-2.18-7v-.17A7,7,0,0,1,70.72,110.46Z"/><path class="cls-3" d="M83.43,115.36v.17a5.83,5.83,0,0,1-4.78,2.27c-2.52,0-4.32-1.15-4.32-4v-9.18H72.88l.31-.42h1.14v-3a7.09,7.09,0,0,0,4.6-1.57v4.6h3.78l-.31.42H78.93v9.27c0,1.4.53,2.85,1.84,2.85A4.08,4.08,0,0,0,83.43,115.36Z"/><path class="cls-3" d="M91.44,103.41c-1.65.19-2.21,1.59-2.21,7,0,5.27.56,7,2.21,7.17v.17a7.13,7.13,0,0,1-7-7.34,7,7,0,0,1,7-7.22Zm8.07,7a7.14,7.14,0,0,1-7,7.34v-.17c1.65-.17,2.19-1.93,2.19-7.17,0-5.48-.56-6.89-2.19-7v-.17A7,7,0,0,1,99.51,110.46Z"/><path class="cls-3" d="M108.07,115.92c0,.7.42,1.43,2.1,1.43v.17h-8.82v-.17c1.68,0,2.1-.73,2.1-1.43V106c0-1-.47-1.48-2.07-1.48v-.17a17.15,17.15,0,0,0,6.69-1.09Zm7.56-9.66a3,3,0,0,1-2.88,3.19,1.91,1.91,0,0,1-1.6-.61,2,2,0,0,0,1.1-1.9,1.49,1.49,0,0,0-1.57-1.52,1.91,1.91,0,0,0-1.68,1.07v-.23a3.87,3.87,0,0,1,3.64-3A2.84,2.84,0,0,1,115.63,106.26Z"/><path class="cls-3" d="M124.31,103.41c-1.65.19-2.38,1.59-2.38,6.94,0,4,2,6.25,4.54,6.25a6.09,6.09,0,0,0,4.09-1.49v.17a7.86,7.86,0,0,1-5.94,2.52,7.33,7.33,0,0,1-7.48-7.34,7.18,7.18,0,0,1,7.17-7.22Zm6.22,3a2.6,2.6,0,0,1-2.8,2.69,2.38,2.38,0,0,1-2.44-1.76,2.42,2.42,0,0,0,1.35-2,1.65,1.65,0,0,0-1.21-1.84v-.2C129.1,103.24,130.53,104.81,130.53,106.4Z"/><path class="cls-3" d="M132.85,104.67a1.51,1.51,0,0,0-1.54-1v-.17h7.84v.17c-1,0-1.37.67-.89,1.65l3.66,7.64-2.4,4.54h-.17ZM131.62,122a2.92,2.92,0,0,1,2.46-2.63,2.22,2.22,0,0,0-.11.7,1.64,1.64,0,0,0,1.65,1.87c1,0,1.77-1,2.83-2.83h.2c-1.54,2.89-2.61,5.38-4.57,5.38A2.33,2.33,0,0,1,131.62,122Zm11.48-11.79a7.64,7.64,0,0,0,.78-3.61,2.7,2.7,0,0,0-2.85-2.94v-.17h7v.17c-.92,0-1.29.36-1.82,1.31l-2.91,5.49Z"/><path class="cls-3" d="M155.31,103.41c-1.65.19-2.38,1.59-2.38,6.94,0,4,2,6.25,4.53,6.25a6.07,6.07,0,0,0,4.09-1.49v.17a7.82,7.82,0,0,1-5.93,2.52,7.32,7.32,0,0,1-7.48-7.34,7.17,7.17,0,0,1,7.17-7.22Zm6.22,3a2.6,2.6,0,0,1-2.81,2.69,2.37,2.37,0,0,1-2.43-1.76,2.43,2.43,0,0,0,1.34-2,1.65,1.65,0,0,0-1.2-1.84v-.2C160.1,103.24,161.53,104.81,161.53,106.4Z"/><path class="cls-3" d="M163,98a17.19,17.19,0,0,0,6.69-1.09v19c0,.7.42,1.43,2.1,1.43v.17H163v-.17c1.68,0,2.1-.73,2.1-1.43V99.68c0-1-.47-1.48-2.07-1.48Z"/><path class="cls-3" d="M173.45,110.46a6.94,6.94,0,0,1,6.86-7.22v.17c-1.65.19-2.1,1.59-2.1,6.94,0,4,1.79,6.25,4.29,6.25a6.06,6.06,0,0,0,4.08-1.49v.17a7.82,7.82,0,0,1-5.93,2.52A7.1,7.1,0,0,1,173.45,110.46Zm6.3-1.17c2.47,0,3.5-.79,3.5-3.14,0-1.34-.56-2.58-1.82-2.74v-.17c3.7,0,5.49,2.63,5.49,4.76a8.59,8.59,0,0,1-.14,1.45h-7Z"/></g></svg>