<svg id="Layer_1" data-name="Layer 1" xmlns="http://www.w3.org/2000/svg" viewBox="0 0 300 250"><defs><style>.cls-1{fill:#ffac00;}.cls-2{fill:#fff;}.cls-3{fill:none;}</style></defs><title>Artboard 1 copy 6</title><path class="cls-1" d="M35.92,216H144.4a9.71,9.71,0,0,0,8.63-5.25l12.81-24.68a9.71,9.71,0,0,0,0-9L153,152.47a9.73,9.73,0,0,0-8.63-5.25H35.92A5.92,5.92,0,0,0,30,153.13v57A5.91,5.91,0,0,0,35.92,216Z"/><path class="cls-2" d="M81.31,173.16l.24-.35c.17-.24.36-.25.63-.1a2.68,2.68,0,0,0,1.57.57c.72,0,1.16-.36,1.16-.88,0-1.47-3.61-1.17-3.61-3.58a2.34,2.34,0,0,1,2.6-2.24,3.61,3.61,0,0,1,2,.59.43.43,0,0,1,.14.62l-.2.36c-.16.31-.39.27-.62.15a2.47,2.47,0,0,0-1.34-.43c-.72,0-1.17.35-1.17.88,0,1.45,3.6,1.07,3.6,3.54a2.32,2.32,0,0,1-2.56,2.29,4,4,0,0,1-2.37-.79A.4.4,0,0,1,81.31,173.16Z"/><path class="cls-2" d="M89.43,167.92H87.35a.4.4,0,0,1-.46-.45v-.3a.41.41,0,0,1,.46-.46h5.56a.41.41,0,0,1,.45.46v.3a.41.41,0,0,1-.45.45H90.83V174a.41.41,0,0,1-.46.46h-.49a.4.4,0,0,1-.45-.46Z"/><path class="cls-2" d="M95.19,167.08a.51.51,0,0,1,.52-.37h.69a.49.49,0,0,1,.52.37l2.42,6.84c.11.32,0,.53-.37.53h-.51a.49.49,0,0,1-.51-.37l-.54-1.62H94.69l-.53,1.6a.48.48,0,0,1-.51.39h-.5c-.34,0-.48-.21-.38-.53Zm1.87,4.24-.69-2.07c-.13-.44-.3-1.2-.3-1.2h0s-.17.76-.3,1.2l-.7,2.07Z"/><path class="cls-2" d="M100.31,167.17a.41.41,0,0,1,.45-.46h2.09a3.55,3.55,0,0,1,1.47.2,2.15,2.15,0,0,1,1.3,2.12,2.24,2.24,0,0,1-1.28,2.11v0a4.3,4.3,0,0,1,.25.4l1.27,2.33c.19.32,0,.55-.32.55H105a.56.56,0,0,1-.54-.32l-1.36-2.57h-1.35V174a.4.4,0,0,1-.45.46h-.5a.41.41,0,0,1-.45-.46Zm2.66,3.17a1.14,1.14,0,0,0,1.22-1.23,1,1,0,0,0-.61-1.06,1.87,1.87,0,0,0-.84-.13h-1v2.42Z"/><path class="cls-2" d="M81.82,176.62a.24.24,0,0,1,.26-.27h.23a.24.24,0,0,1,.26.27v7.12a.24.24,0,0,1-.26.27h-.23a.24.24,0,0,1-.26-.27Z"/><path class="cls-2" d="M84.39,178.8a.25.25,0,0,1,.27-.27h.2a.24.24,0,0,1,.26.27v.63a1.89,1.89,0,0,1,0,.39h0a2.4,2.4,0,0,1,2.21-1.42c1.36,0,1.84.77,1.84,2.12v3.22a.25.25,0,0,1-.27.27h-.21a.24.24,0,0,1-.26-.27v-3c0-.86-.14-1.63-1.2-1.63a2.13,2.13,0,0,0-2.08,2.24v2.41a.24.24,0,0,1-.26.27h-.21a.25.25,0,0,1-.27-.27Z"/><path class="cls-2" d="M90.33,183.14l.09-.11c.09-.13.21-.14.37-.05a2.34,2.34,0,0,0,1.45.51c.61,0,1.11-.31,1.11-.89,0-1.23-2.93-.86-2.93-2.67,0-1,.86-1.53,1.86-1.53a2.54,2.54,0,0,1,1.5.44.23.23,0,0,1,.08.36l-.08.12c-.08.16-.21.17-.37.08a2,2,0,0,0-1.17-.35c-.58,0-1.08.25-1.08.85,0,1.26,2.92.86,2.92,2.69a1.65,1.65,0,0,1-1.85,1.55,2.9,2.9,0,0,1-1.86-.63A.24.24,0,0,1,90.33,183.14Z"/><path class="cls-2" d="M95.18,178.8a.24.24,0,0,1,.26-.27h.21a.25.25,0,0,1,.27.27v3c0,.86.13,1.62,1.19,1.62a2.13,2.13,0,0,0,2-2.29V178.8a.25.25,0,0,1,.28-.27h.2a.24.24,0,0,1,.27.27v4.94a.24.24,0,0,1-.27.27h-.19a.24.24,0,0,1-.26-.27v-.64a2.66,2.66,0,0,1,0-.39h0A2.37,2.37,0,0,1,97,184.14c-1.3,0-1.83-.7-1.83-2.13Z"/><path class="cls-2" d="M101.48,178.8a.25.25,0,0,1,.27-.27h.2a.24.24,0,0,1,.26.27v.74a2.51,2.51,0,0,1,0,.44h0a2,2,0,0,1,1.77-1.49c.19,0,.28.09.28.27V179c0,.18-.12.27-.31.27-1.15,0-1.71,1.32-1.71,2.47v2.05a.24.24,0,0,1-.26.27h-.21a.25.25,0,0,1-.27-.27Z"/><path class="cls-2" d="M108,180.65h.32v-.17c0-1.06-.58-1.42-1.35-1.42a2.6,2.6,0,0,0-1.33.38.25.25,0,0,1-.37-.08l-.07-.11a.25.25,0,0,1,.08-.37,3.26,3.26,0,0,1,1.74-.48,1.86,1.86,0,0,1,2,2.1v3.24a.24.24,0,0,1-.26.27h-.18a.24.24,0,0,1-.27-.27v-.44a2.45,2.45,0,0,1,0-.41h0a2,2,0,0,1-1.85,1.25,1.68,1.68,0,0,1-1.85-1.6C104.67,180.75,107,180.65,108,180.65Zm-1.36,2.87a1.91,1.91,0,0,0,1.68-2.05v-.26H108c-.86,0-2.59,0-2.59,1.26A1.1,1.1,0,0,0,106.65,183.52Z"/><path class="cls-2" d="M110.63,178.8a.24.24,0,0,1,.27-.27h.19a.25.25,0,0,1,.27.27v.63a1.53,1.53,0,0,1,0,.39h0a2.43,2.43,0,0,1,2.22-1.42c1.36,0,1.84.77,1.84,2.12v3.22a.25.25,0,0,1-.27.27h-.21a.24.24,0,0,1-.26-.27v-3c0-.86-.14-1.63-1.2-1.63a2.12,2.12,0,0,0-2.08,2.24v2.41a.24.24,0,0,1-.27.27h-.2a.24.24,0,0,1-.27-.27Z"/><path class="cls-2" d="M119.49,178.4a2.85,2.85,0,0,1,1.82.62.23.23,0,0,1,0,.37l-.08.12c-.09.15-.21.15-.37.05a2.27,2.27,0,0,0-1.38-.5,2.21,2.21,0,0,0,0,4.42,2.4,2.4,0,0,0,1.55-.58.22.22,0,0,1,.36.06l.07.11a.26.26,0,0,1-.06.37,3,3,0,0,1-2,.7,2.87,2.87,0,1,1,0-5.74Z"/><path class="cls-2" d="M124.89,178.4c1.46,0,2.29,1,2.29,2.61a.27.27,0,0,1-.29.27H123a2.09,2.09,0,0,0,2.12,2.2,2.32,2.32,0,0,0,1.44-.51.23.23,0,0,1,.36.07l.09.13a.26.26,0,0,1-.08.36,3.1,3.1,0,0,1-1.83.61,2.78,2.78,0,0,1-2.87-2.87A2.68,2.68,0,0,1,124.89,178.4Zm1.53,2.33a1.57,1.57,0,0,0-1.56-1.72,1.88,1.88,0,0,0-1.88,1.72Z"/><path class="cls-2" d="M82,187a.44.44,0,0,1,.47-.44h.69a.49.49,0,0,1,.51.37L85,190.4c.17.45.39,1.13.39,1.13h0s.21-.68.38-1.13l1.39-3.46a.49.49,0,0,1,.52-.37h.67a.42.42,0,0,1,.47.44l.56,6.83a.4.4,0,0,1-.44.47h-.49a.43.43,0,0,1-.47-.44L87.72,190c0-.51,0-1.2,0-1.2h0s-.24.75-.42,1.2l-1.12,2.64a.5.5,0,0,1-.51.36h-.46a.49.49,0,0,1-.52-.36L83.55,190c-.18-.45-.43-1.21-.43-1.21h0s0,.7,0,1.21l-.3,3.89a.42.42,0,0,1-.47.44h-.49a.39.39,0,0,1-.43-.47Z"/><path class="cls-2" d="M93.47,188.62a2.91,2.91,0,1,1-3,2.91A2.93,2.93,0,0,1,93.47,188.62Zm0,4.64a1.73,1.73,0,1,0-1.65-1.73A1.66,1.66,0,0,0,93.47,193.26Z"/><path class="cls-2" d="M97.68,189.93h-.3a.4.4,0,0,1-.44-.46v-.19a.4.4,0,0,1,.45-.45h.32v-1.14a.42.42,0,0,1,.46-.46h.43a.42.42,0,0,1,.46.46v1.14h.81a.41.41,0,0,1,.46.45v.19a.41.41,0,0,1-.45.46h-.82v2.15a.91.91,0,0,0,.9,1c.33,0,.45.14.45.45v.33c0,.33-.18.46-.56.46a2,2,0,0,1-2.17-2Z"/><path class="cls-2" d="M103.86,188.62a2.91,2.91,0,1,1-3,2.91A2.93,2.93,0,0,1,103.86,188.62Zm0,4.64a1.73,1.73,0,1,0-1.65-1.73A1.65,1.65,0,0,0,103.86,193.26Z"/><path class="cls-2" d="M107.93,189.21a.41.41,0,0,1,.45-.46h.43a.41.41,0,0,1,.45.46v.52a2.44,2.44,0,0,1,0,.38h0a1.92,1.92,0,0,1,1.62-1.4c.3,0,.41.15.41.45v.43a.42.42,0,0,1-.47.46c-1,0-1.5,1-1.5,2v1.79a.4.4,0,0,1-.45.46h-.48a.4.4,0,0,1-.45-.46Z"/><path class="cls-2" d="M114.61,188.62a3.2,3.2,0,0,1,1.82.55.42.42,0,0,1,.08.63l-.14.21c-.16.25-.35.25-.61.12a2,2,0,0,0-1.08-.33,1.65,1.65,0,0,0-1.69,1.72,1.68,1.68,0,0,0,1.73,1.74,2.22,2.22,0,0,0,1.25-.42c.27-.16.48-.12.62.14l.11.21a.43.43,0,0,1-.12.61,3.33,3.33,0,0,1-2,.64,2.91,2.91,0,1,1,0-5.82Z"/><path class="cls-2" d="M117.87,195.35a.86.86,0,0,0,.39.1,1.06,1.06,0,0,0,.88-.74l.21-.49-2.11-4.94c-.14-.31,0-.53.35-.53h.58a.49.49,0,0,1,.52.37l1,2.83c.1.3.21.76.21.76h0s.1-.44.19-.73l1-2.85a.47.47,0,0,1,.51-.38h.55c.33,0,.47.21.37.52l-2.29,5.87a2.11,2.11,0,0,1-2,1.46,2,2,0,0,1-.77-.17.39.39,0,0,1-.21-.59l.1-.23A.4.4,0,0,1,117.87,195.35Z"/><path class="cls-2" d="M125.88,188.62a3.2,3.2,0,0,1,1.82.55.42.42,0,0,1,.09.63l-.14.21c-.17.25-.35.25-.61.12a2,2,0,0,0-1.08-.33,1.65,1.65,0,0,0-1.69,1.72,1.68,1.68,0,0,0,1.73,1.74,2.21,2.21,0,0,0,1.24-.42c.27-.16.48-.12.62.14l.11.21a.43.43,0,0,1-.12.61,3.3,3.3,0,0,1-2,.64,2.91,2.91,0,1,1,0-5.82Z"/><path class="cls-2" d="M128.9,187a.4.4,0,0,1,.45-.46h.48a.4.4,0,0,1,.44.46v5.44c0,.54.23.64.44.66a.35.35,0,0,1,.34.39v.37a.41.41,0,0,1-.46.47c-.74,0-1.69-.19-1.69-1.79Z"/><path class="cls-2" d="M134.32,188.62a2.4,2.4,0,0,1,2.47,2.65.48.48,0,0,1-.48.47h-3.39a1.6,1.6,0,0,0,1.67,1.52,2.21,2.21,0,0,0,1.19-.36c.28-.13.47-.1.61.15l.14.22a.42.42,0,0,1-.16.61,3.48,3.48,0,0,1-1.88.56,2.85,2.85,0,0,1-3-2.91A2.74,2.74,0,0,1,134.32,188.62Zm1.09,2.28a1.12,1.12,0,0,0-1.12-1.23A1.35,1.35,0,0,0,133,190.9Z"/><path class="cls-2" d="M55.54,190.83a.85.85,0,0,1-.35-.08.77.77,0,0,1-.38-.93L62.88,165a1.7,1.7,0,0,1,1.64-1.19h0A1.69,1.69,0,0,1,66.15,165l1.64,4.92a.59.59,0,1,1-1.11.37L65,165.36a.53.53,0,0,0-.52-.39h0a.54.54,0,0,0-.53.38l-7.3,22.46L67,173.74a3.2,3.2,0,0,1,2.58-1.31H76.4a1.72,1.72,0,0,1,1,3.12l-6.26,4.55-.07.06,2.42,7.44a1.72,1.72,0,0,1-2.65,1.92l-5.41-3.93a1.73,1.73,0,0,1,0-2.79L70,179.51l.07-.06,6.67-4.84a.56.56,0,0,0-.32-1H69.55a2,2,0,0,0-1.64.83L56.16,190.52A.77.77,0,0,1,55.54,190.83Zm14.55-10-4,2.87a.53.53,0,0,0-.23.45.55.55,0,0,0,.23.45l5.41,3.93a.54.54,0,0,0,.65,0,.53.53,0,0,0,.2-.62Z"/><path class="cls-2" d="M56,178.49a.6.6,0,0,1-.34-.11l-4-2.83a1.72,1.72,0,0,1,1-3.12h4.89a.59.59,0,0,1,.58.59.58.58,0,0,1-.58.58H52.64a.56.56,0,0,0-.33,1l4,2.82a.59.59,0,0,1,.14.81A.61.61,0,0,1,56,178.49Z"/><path class="cls-2" d="M61.4,199.07a1.93,1.93,0,0,1-.94-.24L50.25,193a.6.6,0,0,1-.29-.51V180.08a.59.59,0,1,1,1.17,0v12.11L61,197.81a.7.7,0,0,0,.74,0L69,193.26a.58.58,0,0,1,.81.19.58.58,0,0,1-.19.8l-7.24,4.53A1.79,1.79,0,0,1,61.4,199.07Z"/><rect class="cls-3" width="300" height="250"/></svg>