<?xml version="1.0" encoding="utf-8"?>
<!-- Generator: Adobe Illustrator 24.0.3, SVG Export Plug-In . SVG Version: 6.00 Build 0)  -->
<svg version="1.1" id="Layer_1" xmlns="http://www.w3.org/2000/svg" xmlns:xlink="http://www.w3.org/1999/xlink" x="0px" y="0px"
	 viewBox="0 0 728 90" style="enable-background:new 0 0 728 90;" xml:space="preserve">
<style type="text/css">
	.st0{clip-path:url(#SVGID_2_);}
	.st1{enable-background:new    ;}
	.st2{fill:#FFFFFF;}
</style>
<title>Artboard 1 copy 6</title>
<g>
	<defs>
		<rect id="SVGID_1_" y="0" width="728" height="90"/>
	</defs>
	<clipPath id="SVGID_2_">
		<use xlink:href="#SVGID_1_"  style="overflow:visible;"/>
	</clipPath>
	<g class="st0">
		<g class="st1">
			<path class="st2" d="M18.2,26.3c2.6,0,4.7-0.3,6.6-1.1v12.6c0,0.7,0.4,1.4,2.1,1.4v0.2h-8.8v-0.2c1.7,0,2.1-0.7,2.1-1.4V28
				c0-1-0.5-1.5-2.1-1.5V26.3z M19.7,21.1c0-1.4,1.2-2.4,2.8-2.4c1.7,0,2.8,1,2.8,2.4c0,1.5-1.2,2.4-2.8,2.4
				C20.8,23.5,19.7,22.6,19.7,21.1z"/>
			<path class="st2" d="M33.5,36.1c-0.9,0-1.6,0.6-1.6,1.4c0,0.8,0.6,1.8,2.5,2v0.2c-3.7-0.1-5.7-1.1-5.7-2.8c0-1.3,1.1-2.1,2.4-2.1
				C32.1,34.9,33.1,35.5,33.5,36.1z M34.4,25.4c-1,0.2-2,0.7-2,1.9c0.1,3.2,9.1,3.8,9.1,8.2c0,2.7-2.3,4.1-5.9,4.3v-0.2
				c1.2-0.2,2.5-0.6,2.5-2.1c0-2.9-9.1-4-9.1-8.2c0-2.4,2.3-3.9,5.4-4.1V25.4z M41,28.1c0,0.9-0.7,1.7-2.1,1.7c-1.2,0-2-0.5-2.4-1.3
				c0.8-0.1,1.3-0.6,1.3-1.3c0-0.8-1.1-1.6-2.2-1.8v-0.2C38.8,25.4,41,26.6,41,28.1z"/>
			<path class="st2" d="M50.9,32.5c0-4.7,3.6-7.1,6.8-7.2v0.2c-1.6,0.2-2.1,1.6-2.1,6.9c0,4,1.8,6.2,4.3,6.2c1.6,0,2.8-0.4,4.1-1.5
				v0.2c-1.4,1.8-4.1,2.5-5.9,2.5C54.5,39.7,50.9,37.1,50.9,32.5z M57.2,31.3c2.4,0,3.5-0.8,3.5-3.1c0-1.3-0.6-2.6-1.8-2.7v-0.2
				c3.7,0,5.5,2.6,5.5,4.7c0,0.4-0.1,1-0.1,1.4h-7V31.3z"/>
			<path class="st2" d="M66.3,36.2c0-2.4,2.2-3.8,5.3-3.8h3v0.2h-0.8c-2,0-2.9,1.3-2.9,3c0,1.5,0.4,2.7,1.8,2.7c0.8,0,1.4-0.4,2-1
				v0.2c-0.9,1.1-2.4,2.3-4.4,2.3C67.8,39.7,66.2,38.4,66.3,36.2z M67.4,28.3c0-1.4,1.3-2.9,5.1-3v0.2c-1.1,0.2-1.8,1.1-1.8,2
				c0,1,0.7,1.6,1.8,1.7c-0.4,0.8-1.6,1.3-2.7,1.3C68.3,30.5,67.4,29.5,67.4,28.3z M75.5,36.6v-8.5c0-1.4-0.5-2.4-1.9-2.6v-0.2
				c4.6,0.2,6.5,1.9,6.5,5.6v6.8c0,0.8,0.3,1.1,0.8,1.1c0.4,0,0.9-0.4,1.3-1.3h0.2c-0.4,1.5-1.9,2.3-3.6,2.3
				C76.5,39.7,75.5,39,75.5,36.6z"/>
		</g>
		<g class="st1">
			<path class="st2" d="M88.5,36.1c-0.9,0-1.6,0.6-1.6,1.4c0,0.8,0.6,1.8,2.5,2v0.2c-3.7-0.1-5.7-1.1-5.7-2.8c0-1.3,1.1-2.1,2.4-2.1
				C87.2,34.9,88.1,35.5,88.5,36.1z M89.4,25.4c-1,0.2-2,0.7-2,1.9c0.1,3.2,9.1,3.8,9.1,8.2c0,2.7-2.3,4.1-5.9,4.3v-0.2
				c1.2-0.2,2.5-0.6,2.5-2.1c0-2.9-9.1-4-9.1-8.2c0-2.4,2.3-3.9,5.4-4.1V25.4z M96,28.1c0,0.9-0.7,1.7-2.1,1.7c-1.2,0-2-0.5-2.4-1.3
				c0.8-0.1,1.3-0.6,1.3-1.3c0-0.8-1.1-1.6-2.2-1.8v-0.2C93.8,25.4,96,26.6,96,28.1z"/>
		</g>
		<g class="st1">
			<path class="st2" d="M98.8,26.7c-0.3-0.6-0.7-1-1.5-1v-0.2h7.8v0.2c-1,0-1.4,0.7-0.9,1.6l3.6,7.6l-2.4,4.5h-0.2L98.8,26.7z
				 M97.6,43.9c0-1.2,0.9-2.2,2.4-2.6c-0.1,0.3-0.1,0.5-0.1,0.7c0,1.1,0.6,1.9,1.6,1.9c1,0,1.8-1,2.8-2.8h0.2
				c-1.5,2.9-2.6,5.3-4.5,5.3C98.5,46.4,97.6,45.4,97.6,43.9z M109,32.2c0.5-0.9,0.8-2.1,0.8-3.6c0-1.5-0.9-2.9-2.8-2.9v-0.2h6.9
				v0.2c-0.9,0-1.3,0.4-1.8,1.3l-2.9,5.5L109,32.2z"/>
		</g>
		<g class="st1">
			<path class="st2" d="M125.2,27.4l3.6,7.6l-2.4,4.5h-0.2l-6.5-12.8c-0.3-0.6-0.7-1-1.5-1v-0.2h7.8v0.2
				C125.2,25.7,124.8,26.4,125.2,27.4z M134.4,27.4L138,35l-2.4,4.5h-0.2l-4.4-8.7l-0.9,1.7l-0.2-0.2c0.4-0.9,0.6-2.3,0.2-3.1
				l-1.3-2.4c-0.3-0.6-0.7-1-1.5-1v-0.2h7.8v0.2C134.3,25.7,133.9,26.4,134.4,27.4z M144.1,25.6v0.2c-0.9,0-1.3,0.4-1.8,1.3
				l-2.9,5.5l-0.2-0.2c0.5-0.9,0.8-2.1,0.8-3.6c0-1.5-0.9-2.9-2.8-2.9v-0.2H144.1z"/>
			<path class="st2" d="M144.3,26.3c2.6,0,4.7-0.3,6.6-1.1v12.6c0,0.7,0.4,1.4,2.1,1.4v0.2h-8.8v-0.2c1.7,0,2.1-0.7,2.1-1.4V28
				c0-1-0.5-1.5-2.1-1.5V26.3z M145.7,21.1c0-1.4,1.2-2.4,2.8-2.4c1.7,0,2.8,1,2.8,2.4c0,1.5-1.2,2.4-2.8,2.4
				C146.9,23.5,145.7,22.6,145.7,21.1z"/>
			<path class="st2" d="M165,37.3v0.2c-0.9,1.3-2.7,2.3-4.8,2.3c-2.5,0-4.3-1.1-4.3-3.9v-9.1h-1.4l0.3-0.4h1.1v-3
				c1.7,0,3.4-0.5,4.6-1.6v4.6h3.8l-0.3,0.4h-3.4v9.2c0,1.4,0.5,2.8,1.8,2.8C163.2,38.7,164.1,38.2,165,37.3z"/>
			<path class="st2" d="M172.2,37.9c0,0.7,0.4,1.4,2.1,1.4v0.2h-8.8v-0.2c1.7,0,2.1-0.7,2.1-1.4V21.7c0-1-0.5-1.5-2.1-1.5v-0.2
				c2.6,0,4.7-0.3,6.6-1.1V37.9z M181.9,29.2v8.7c0,0.7,0.4,1.4,2.1,1.4v0.2h-8.7v-0.2c1.6,0,2.1-0.7,2.1-1.4v-8.7
				c0-1.6-0.8-2.4-2.2-2.4c-0.8,0-1.4,0.2-2.1,0.9v-0.2c0.8-1.2,2.6-2.3,4.6-2.3C180.2,25.3,181.9,26.4,181.9,29.2z"/>
		</g>
		<g class="st1">
			<path class="st2" d="M25.8,67.4v0.2c-2.2-0.1-4-0.5-5.4-1.4l-0.9,1.4h-0.2v-6.8h0.2C20.4,63.9,22.4,66.3,25.8,67.4z M33.9,61.9
				c0,3.6-2.7,5.5-7,5.7v-0.2c1.5-0.3,3-1.2,3-2.8c0-4.9-10.6-5.3-10.6-11c0-3.3,2.7-5.3,6.4-5.5v0.2c-1.3,0.2-2.4,1-2.4,2.6
				C23.3,55.7,33.9,56.2,33.9,61.9z M27,48.3v-0.2c2.1,0.1,3.7,0.6,5,1.5l1-1.5h0.2v6.2H33C32.1,51.3,29.7,48.9,27,48.3z"/>
		</g>
		<g class="st1">
			<path class="st2" d="M46.6,65.1v0.2c-0.9,1.3-2.7,2.3-4.8,2.3c-2.5,0-4.3-1.1-4.3-3.9v-9.1h-1.4l0.3-0.4h1.1v-3
				c1.7,0,3.4-0.5,4.6-1.6v4.6h3.8l-0.3,0.4h-3.4v9.2c0,1.4,0.5,2.8,1.8,2.8C44.8,66.6,45.7,66.1,46.6,65.1z"/>
			<path class="st2" d="M47.5,64c0-2.4,2.2-3.8,5.3-3.8h3v0.2H55c-2,0-2.9,1.3-2.9,3c0,1.5,0.4,2.7,1.8,2.7c0.8,0,1.4-0.4,2-1v0.2
				c-0.9,1.1-2.4,2.3-4.4,2.3C49.1,67.6,47.5,66.2,47.5,64z M48.6,56.1c0-1.4,1.3-2.9,5.1-3v0.2c-1.1,0.2-1.8,1.1-1.8,2
				c0,1,0.7,1.6,1.8,1.7c-0.4,0.8-1.6,1.3-2.7,1.3C49.5,58.3,48.6,57.3,48.6,56.1z M56.7,64.4v-8.5c0-1.4-0.5-2.4-1.9-2.6v-0.2
				c4.6,0.2,6.5,1.9,6.5,5.6v6.8c0,0.8,0.3,1.1,0.8,1.1c0.4,0,0.9-0.4,1.3-1.3h0.2c-0.4,1.5-1.9,2.3-3.6,2.3
				C57.7,67.6,56.7,66.8,56.7,64.4z"/>
		</g>
		<g class="st1">
			<path class="st2" d="M71.1,65.7c0,0.7,0.4,1.4,2.1,1.4v0.2h-8.8v-0.2c1.7,0,2.1-0.7,2.1-1.4v-9.9c0-1-0.5-1.5-2.1-1.5v-0.2
				c2.6,0,4.7-0.3,6.6-1.1V65.7z M78.6,56.1c0,1.9-1.4,3.2-2.9,3.2c-0.7,0-1.3-0.2-1.6-0.6c0.5-0.3,1.1-0.9,1.1-1.9
				c0-0.8-0.6-1.5-1.6-1.5c-0.7,0-1.3,0.4-1.7,1.1v-0.2c0.5-1.8,1.9-3,3.6-3C77.5,53.1,78.6,54.4,78.6,56.1z"/>
		</g>
		<g class="st1">
			<path class="st2" d="M86.6,67.1c1.7,0,2.1-0.7,2.1-1.4V50c0-0.8-0.4-1.4-2.1-1.4v-0.2h8.9v0.2c-1.7,0-2.1,0.7-2.1,1.4v15.7
				c0,0.8,0.4,1.4,2.1,1.4v0.2h-8.9V67.1z"/>
			<path class="st2" d="M97.4,67.1c1.7,0,2.1-0.7,2.1-1.4v-9.9c0-1-0.5-1.5-2.1-1.5v-0.2c2.6,0,4.7-0.3,6.6-1.1v12.6
				c0,0.7,0.4,1.4,2.1,1.4v0.2h-8.8V67.1z M107.2,67.1c1.6,0,2.1-0.7,2.1-1.4V57c0-1.6-0.8-2.4-2.2-2.4c-0.8,0-1.4,0.2-2.1,0.9v-0.2
				c0.8-1.2,2.6-2.3,4.6-2.3c2.5,0,4.3,1.2,4.3,3.9v8.7c0,0.7,0.4,1.4,2.1,1.4v0.2h-8.7V67.1z"/>
			<path class="st2" d="M122.3,64c-0.9,0-1.6,0.6-1.6,1.4c0,0.8,0.6,1.8,2.5,2v0.2c-3.7-0.1-5.7-1.1-5.7-2.8c0-1.3,1.1-2.1,2.4-2.1
				C120.9,62.7,121.9,63.3,122.3,64z M123.2,53.3c-1,0.2-2,0.7-2,1.9c0.1,3.2,9.1,3.8,9.1,8.2c0,2.7-2.3,4.1-5.9,4.3v-0.2
				c1.2-0.2,2.5-0.6,2.5-2.1c0-2.9-9.1-4-9.1-8.2c0-2.4,2.3-3.9,5.4-4.1V53.3z M129.8,56c0,0.9-0.7,1.7-2.1,1.7
				c-1.2,0-2-0.5-2.4-1.3c0.8-0.1,1.3-0.6,1.3-1.3c0-0.8-1.1-1.6-2.2-1.8v-0.2C127.6,53.3,129.8,54.4,129.8,56z"/>
			<path class="st2" d="M138.5,63.6c0,1.6,0.5,2.4,1.9,2.4c0.7,0,1.3-0.2,1.9-0.9v0.2c-0.6,1.2-2.1,2.3-4.3,2.3
				c-2.5,0-4.1-1.2-4.1-3.9v-7.8c0-1-0.5-1.5-2.1-1.5v-0.2c2.6,0,4.7-0.3,6.6-1.1V63.6z M147.8,65.4c0,0.8,0.2,1.1,0.8,1.1
				c0.4,0,0.9-0.4,1.3-1.3h0.2c-0.4,1.5-1.9,2.3-3.8,2.3c-1.9,0-3.1-1.1-3.1-2.7v-9c0-1-0.5-1.5-2-1.5v-0.2c2.5,0,4.2-0.3,6.6-1.1
				V65.4z"/>
		</g>
		<g class="st1">
			<path class="st2" d="M157.8,65.7c0,0.7,0.4,1.4,2.1,1.4v0.2h-8.8v-0.2c1.7,0,2.1-0.7,2.1-1.4v-9.9c0-1-0.5-1.5-2.1-1.5v-0.2
				c2.6,0,4.7-0.3,6.6-1.1V65.7z M165.3,56.1c0,1.9-1.4,3.2-2.9,3.2c-0.7,0-1.3-0.2-1.6-0.6c0.5-0.3,1.1-0.9,1.1-1.9
				c0-0.8-0.6-1.5-1.6-1.5c-0.7,0-1.3,0.4-1.7,1.1v-0.2c0.5-1.8,1.9-3,3.6-3C164.2,53.1,165.3,54.4,165.3,56.1z"/>
		</g>
		<g class="st1">
			<path class="st2" d="M166.5,64c0-2.4,2.2-3.8,5.3-3.8h3v0.2H174c-2,0-2.9,1.3-2.9,3c0,1.5,0.4,2.7,1.8,2.7c0.8,0,1.4-0.4,2-1v0.2
				c-0.9,1.1-2.4,2.3-4.4,2.3C168,67.6,166.5,66.2,166.5,64z M167.6,56.1c0-1.4,1.3-2.9,5.1-3v0.2c-1.1,0.2-1.8,1.1-1.8,2
				c0,1,0.7,1.6,1.8,1.7c-0.4,0.8-1.6,1.3-2.7,1.3C168.5,58.3,167.6,57.3,167.6,56.1z M175.7,64.4v-8.5c0-1.4-0.5-2.4-1.9-2.6v-0.2
				c4.6,0.2,6.5,1.9,6.5,5.6v6.8c0,0.8,0.3,1.1,0.8,1.1c0.4,0,0.9-0.4,1.3-1.3h0.2c-0.4,1.5-1.9,2.3-3.6,2.3
				C176.7,67.6,175.7,66.8,175.7,64.4z"/>
			<path class="st2" d="M183.4,67.1c1.7,0,2.1-0.7,2.1-1.4v-9.9c0-1-0.5-1.5-2.1-1.5v-0.2c2.6,0,4.7-0.3,6.6-1.1v12.6
				c0,0.7,0.4,1.4,2.1,1.4v0.2h-8.8V67.1z M193.2,67.1c1.6,0,2.1-0.7,2.1-1.4V57c0-1.6-0.8-2.4-2.2-2.4c-0.8,0-1.4,0.2-2.1,0.9v-0.2
				c0.8-1.2,2.6-2.3,4.6-2.3c2.5,0,4.3,1.2,4.3,3.9v8.7c0,0.7,0.4,1.4,2.1,1.4v0.2h-8.7V67.1z"/>
			<path class="st2" d="M210.5,53.3c-1.6,0.2-2.4,1.6-2.4,6.9c0,4,2,6.2,4.5,6.2c1.6,0,2.8-0.4,4.1-1.5v0.2
				c-1.4,1.8-4.1,2.5-5.9,2.5c-3.6,0-7.4-2.6-7.4-7.3s3.9-7.1,7.1-7.2V53.3z M216.7,56.2c0,1.5-1,2.7-2.8,2.7
				c-1.4,0-2.3-0.9-2.4-1.8c0.8-0.3,1.3-1.3,1.3-2c0-0.6-0.2-1.6-1.2-1.8v-0.2C215.3,53.1,216.7,54.7,216.7,56.2z"/>
			<path class="st2" d="M218.8,60.3c0-4.7,3.6-7.1,6.8-7.2v0.2c-1.6,0.2-2.1,1.6-2.1,6.9c0,4,1.8,6.2,4.3,6.2c1.6,0,2.8-0.4,4.1-1.5
				v0.2c-1.4,1.8-4.1,2.5-5.9,2.5C222.4,67.6,218.8,64.9,218.8,60.3z M225.1,59.1c2.4,0,3.5-0.8,3.5-3.1c0-1.3-0.6-2.6-1.8-2.7v-0.2
				c3.7,0,5.5,2.6,5.5,4.7c0,0.4-0.1,1-0.1,1.4h-7V59.1z"/>
			<path class="st2" d="M241.5,67.3v-0.2c1.7,0,2.1-0.6,2.1-1.4V50c0-0.8-0.4-1.4-2.1-1.4v-0.2h6.8v18.9H241.5z M257.1,48.4v5.1
				h-0.2c-1.2-3.5-2.9-4.7-7.1-5v-0.2H257.1z M249.8,57.6v-0.2l1.5-0.1c1.6-0.1,2.8-0.8,3.7-2.4h0.2V60H255c-0.9-1.6-2-2.2-3.7-2.3
				L249.8,57.6z M249.8,67.1c4.2-0.3,6.2-1.5,7.7-5h0.2v5.1h-7.9V67.1z"/>
			<path class="st2" d="M259.7,67.1c1.7,0,2.1-0.7,2.1-1.4v-9.9c0-1-0.5-1.5-2.1-1.5v-0.2c2.6,0,4.7-0.3,6.6-1.1v12.6
				c0,0.7,0.4,1.4,2.1,1.4v0.2h-8.8V67.1z M269.5,67.1c1.6,0,2.1-0.7,2.1-1.4V57c0-1.6-0.8-2.4-2.2-2.4c-0.8,0-1.4,0.2-2.1,0.9v-0.2
				c0.8-1.2,2.6-2.3,4.6-2.3c2.5,0,4.3,1.2,4.3,3.9v8.7c0,0.7,0.4,1.4,2.1,1.4v0.2h-8.7V67.1z"/>
			<path class="st2" d="M290.1,65.1v0.2c-0.9,1.3-2.7,2.3-4.8,2.3c-2.5,0-4.3-1.1-4.3-3.9v-9.1h-1.4l0.3-0.4h1.1v-3
				c1.7,0,3.4-0.5,4.6-1.6v4.6h3.8l-0.3,0.4h-3.4v9.2c0,1.4,0.5,2.8,1.8,2.8C288.2,66.6,289.1,66.1,290.1,65.1z"/>
			<path class="st2" d="M297.2,65.7c0,0.7,0.4,1.4,2.1,1.4v0.2h-8.8v-0.2c1.7,0,2.1-0.7,2.1-1.4V49.6c0-1-0.5-1.5-2.1-1.5v-0.2
				c2.6,0,4.7-0.3,6.6-1.1V65.7z M307,57v8.7c0,0.7,0.4,1.4,2.1,1.4v0.2h-8.7v-0.2c1.6,0,2.1-0.7,2.1-1.4V57c0-1.6-0.8-2.4-2.2-2.4
				c-0.8,0-1.4,0.2-2.1,0.9v-0.2c0.8-1.2,2.6-2.3,4.6-2.3C305.2,53.1,307,54.3,307,57z"/>
			<path class="st2" d="M316.4,63.6c0,1.6,0.5,2.4,1.9,2.4c0.7,0,1.3-0.2,1.9-0.9v0.2c-0.6,1.2-2.1,2.3-4.3,2.3
				c-2.5,0-4.1-1.2-4.1-3.9v-7.8c0-1-0.5-1.5-2.1-1.5v-0.2c2.6,0,4.7-0.3,6.6-1.1V63.6z M325.7,65.4c0,0.8,0.2,1.1,0.8,1.1
				c0.4,0,0.9-0.4,1.3-1.3h0.2c-0.4,1.5-1.9,2.3-3.8,2.3c-1.9,0-3.1-1.1-3.1-2.7v-9c0-1-0.5-1.5-2-1.5v-0.2c2.5,0,4.2-0.3,6.6-1.1
				V65.4z"/>
			<path class="st2" d="M334.4,64c-0.9,0-1.6,0.6-1.6,1.4c0,0.8,0.6,1.8,2.5,2v0.2c-3.7-0.1-5.7-1.1-5.7-2.8c0-1.3,1.1-2.1,2.4-2.1
				C333.1,62.7,334,63.3,334.4,64z M335.3,53.3c-1,0.2-2,0.7-2,1.9c0.1,3.2,9.1,3.8,9.1,8.2c0,2.7-2.3,4.1-5.9,4.3v-0.2
				c1.2-0.2,2.5-0.6,2.5-2.1c0-2.9-9.1-4-9.1-8.2c0-2.4,2.3-3.9,5.4-4.1V53.3z M341.9,56c0,0.9-0.7,1.7-2.1,1.7
				c-1.2,0-2-0.5-2.4-1.3c0.8-0.1,1.3-0.6,1.3-1.3c0-0.8-1.1-1.6-2.2-1.8v-0.2C339.7,53.3,341.9,54.4,341.9,56z"/>
			<path class="st2" d="M344.3,54.2c2.6,0,4.7-0.3,6.6-1.1v12.6c0,0.7,0.4,1.4,2.1,1.4v0.2h-8.8v-0.2c1.7,0,2.1-0.7,2.1-1.4v-9.9
				c0-1-0.5-1.5-2.1-1.5V54.2z M345.7,48.9c0-1.4,1.2-2.4,2.8-2.4c1.7,0,2.8,1,2.8,2.4c0,1.5-1.2,2.4-2.8,2.4
				C346.9,51.4,345.7,50.4,345.7,48.9z"/>
			<path class="st2" d="M354.4,64c0-2.4,2.2-3.8,5.3-3.8h3v0.2H362c-2,0-2.9,1.3-2.9,3c0,1.5,0.4,2.7,1.8,2.7c0.8,0,1.4-0.4,2-1v0.2
				c-0.9,1.1-2.4,2.3-4.4,2.3C356,67.6,354.4,66.2,354.4,64z M355.6,56.1c0-1.4,1.3-2.9,5.1-3v0.2c-1.1,0.2-1.8,1.1-1.8,2
				c0,1,0.7,1.6,1.8,1.7c-0.4,0.8-1.6,1.3-2.7,1.3C356.4,58.3,355.6,57.3,355.6,56.1z M363.6,64.4v-8.5c0-1.4-0.5-2.4-1.9-2.6v-0.2
				c4.6,0.2,6.5,1.9,6.5,5.6v6.8c0,0.8,0.3,1.1,0.8,1.1c0.4,0,0.9-0.4,1.3-1.3h0.2c-0.4,1.5-1.9,2.3-3.6,2.3
				C364.6,67.6,363.6,66.8,363.6,64.4z"/>
			<path class="st2" d="M376.7,64c-0.9,0-1.6,0.6-1.6,1.4c0,0.8,0.6,1.8,2.5,2v0.2c-3.7-0.1-5.7-1.1-5.7-2.8c0-1.3,1.1-2.1,2.4-2.1
				C375.3,62.7,376.2,63.3,376.7,64z M377.6,53.3c-1,0.2-2,0.7-2,1.9c0.1,3.2,9.1,3.8,9.1,8.2c0,2.7-2.3,4.1-5.9,4.3v-0.2
				c1.2-0.2,2.5-0.6,2.5-2.1c0-2.9-9.1-4-9.1-8.2c0-2.4,2.3-3.9,5.4-4.1V53.3z M384.1,56c0,0.9-0.7,1.7-2.1,1.7
				c-1.2,0-2-0.5-2.4-1.3c0.8-0.1,1.3-0.6,1.3-1.3c0-0.8-1.1-1.6-2.2-1.8v-0.2C382,53.3,384.1,54.4,384.1,56z"/>
			<path class="st2" d="M397.3,65.1v0.2c-0.9,1.3-2.7,2.3-4.8,2.3c-2.5,0-4.3-1.1-4.3-3.9v-9.1h-1.4l0.3-0.4h1.1v-3
				c1.7,0,3.4-0.5,4.6-1.6v4.6h3.8l-0.3,0.4h-3.4v9.2c0,1.4,0.5,2.8,1.8,2.8C395.4,66.6,396.4,66.1,397.3,65.1z"/>
		</g>
	</g>
</g>
</svg>
