<?xml version="1.0" encoding="utf-8"?>
<!-- Generator: Adobe Illustrator 24.0.3, SVG Export Plug-In . SVG Version: 6.00 Build 0)  -->
<svg version="1.1" id="Layer_1" xmlns="http://www.w3.org/2000/svg" xmlns:xlink="http://www.w3.org/1999/xlink" x="0px" y="0px"
	 viewBox="0 0 728 90" style="enable-background:new 0 0 728 90;" xml:space="preserve">
<style type="text/css">
	.st0{clip-path:url(#SVGID_2_);}
	.st1{enable-background:new    ;}
	.st2{fill:#FFFFFF;}
</style>
<title>Artboard 1 copy 5</title>
<g>
	<defs>
		<rect id="SVGID_1_" y="0" width="728" height="90"/>
	</defs>
	<clipPath id="SVGID_2_">
		<use xlink:href="#SVGID_1_"  style="overflow:visible;"/>
	</clipPath>
	<g class="st0">
		<g class="st1">
			<path class="st2" d="M35.4,38.1l0.1,0.2c-1.4,2.3-4,3.4-6.7,3.4c-4.5,0-10.2-3.2-10.2-9.7c0-7,5.5-9.7,9.5-9.8v0.2
				c-1.9,0.4-4.1,2.3-4.1,9.4c0,7.1,2.9,8.8,6,8.8C32.6,40.6,34.4,39.3,35.4,38.1z M35.6,22.3V29h-0.2c-1.1-3.7-3.1-5.8-5.9-6.6
				v-0.2c2.4,0.1,3.9,0.5,5,1.3l0.8-1.3H35.6z"/>
			<path class="st2" d="M44,39.9c0,0.7,0.4,1.4,2.1,1.4v0.2h-8.8v-0.2c1.7,0,2.1-0.7,2.1-1.4V23.7c0-1-0.5-1.5-2.1-1.5v-0.2
				c2.6,0,4.7-0.3,6.6-1.1V39.9z M53.8,31.2v8.7c0,0.7,0.4,1.4,2.1,1.4v0.2h-8.7v-0.2c1.6,0,2.1-0.7,2.1-1.4v-8.7
				c0-1.6-0.8-2.4-2.2-2.4c-0.8,0-1.4,0.2-2.1,0.9v-0.2c0.8-1.2,2.6-2.3,4.6-2.3C52,27.3,53.8,28.4,53.8,31.2z"/>
			<path class="st2" d="M57.1,38.2c0-2.4,2.2-3.8,5.3-3.8h3v0.2h-0.8c-2,0-2.9,1.3-2.9,3c0,1.5,0.4,2.7,1.8,2.7c0.8,0,1.4-0.4,2-1
				v0.2c-0.9,1.1-2.4,2.3-4.4,2.3C58.6,41.7,57,40.4,57.1,38.2z M58.2,30.3c0-1.4,1.3-2.9,5.1-3v0.2c-1.1,0.2-1.8,1.1-1.8,2
				c0,1,0.7,1.6,1.8,1.7c-0.4,0.8-1.6,1.3-2.7,1.3C59.1,32.5,58.2,31.5,58.2,30.3z M66.3,38.6v-8.5c0-1.4-0.5-2.4-1.9-2.6v-0.2
				c4.6,0.2,6.5,1.9,6.5,5.6v6.8c0,0.8,0.3,1.1,0.8,1.1c0.4,0,0.9-0.4,1.3-1.3h0.2c-0.4,1.5-1.9,2.3-3.6,2.3
				C67.3,41.7,66.3,41,66.3,38.6z"/>
			<path class="st2" d="M74,41.3c1.7,0,2.1-0.7,2.1-1.4V30c0-1-0.5-1.5-2.1-1.5v-0.2c2.6,0,4.7-0.3,6.6-1.1v12.6
				c0,0.7,0.4,1.4,2.1,1.4v0.2H74V41.3z M83.8,41.3c1.6,0,2.1-0.7,2.1-1.4v-8.7c0-1.6-0.8-2.4-2.2-2.4c-0.8,0-1.4,0.2-2.1,0.9v-0.2
				c0.8-1.2,2.6-2.3,4.6-2.3c2.5,0,4.3,1.2,4.3,3.9v8.7c0,0.7,0.4,1.4,2.1,1.4v0.2h-8.7V41.3z"/>
			<path class="st2" d="M94.1,32.3c0-3.6,3.4-5,6.2-5v0.2c-1.2,0.1-1.8,1.6-1.8,4.8c0,3.4,0.6,4.7,1.8,4.8v0.2
				C97.5,37.2,94.1,35.9,94.1,32.3z M101.5,48.2c2.8-0.3,3.7-1.8,3.7-2.8c0-3.9-10.8-0.4-10.8-5.4c0-1.1,0.6-2,1.9-2.8l0.1,0.1
				c-0.2,0.1-0.3,0.3-0.3,0.5c0,3.1,12.7-0.5,12.7,5.6c0,2.9-2.5,4.7-7.2,5V48.2z M94.4,45.9c0-1.6,2-2.1,4.2-2.1
				c-0.5,0.2-1.2,1-1.2,2c0,1.3,1.4,2.3,3,2.5v0.2C97.4,48.4,94.4,47.7,94.4,45.9z M101.5,37.1c1.4-0.1,1.9-1.5,1.9-4.8
				c0-3.2-0.6-4.7-1.9-4.8v-0.2c2.9,0.1,6.4,1.4,6.4,5c0,3.6-3.4,4.9-6.4,4.9V37.1z M103,26.8c0.5-1.4,1.8-3.3,3.7-3.3
				c1.5,0,2.4,0.8,2.4,2.1c0,1.4-1.2,2.2-2.3,2.2c0-1.2-0.6-1.9-1.5-1.9c-0.8,0-1.8,0.5-2.1,1L103,26.8z"/>
			<path class="st2" d="M109.9,28.3c2.6,0,4.7-0.3,6.6-1.1v12.6c0,0.7,0.4,1.4,2.1,1.4v0.2h-8.8v-0.2c1.7,0,2.1-0.7,2.1-1.4V30
				c0-1-0.5-1.5-2.1-1.5V28.3z M111.3,23.1c0-1.4,1.2-2.4,2.8-2.4c1.7,0,2.8,1,2.8,2.4c0,1.5-1.2,2.4-2.8,2.4
				C112.5,25.5,111.3,24.6,111.3,23.1z"/>
			<path class="st2" d="M119.8,41.3c1.7,0,2.1-0.7,2.1-1.4V30c0-1-0.5-1.5-2.1-1.5v-0.2c2.6,0,4.7-0.3,6.6-1.1v12.6
				c0,0.7,0.4,1.4,2.1,1.4v0.2h-8.8V41.3z M129.6,41.3c1.6,0,2.1-0.7,2.1-1.4v-8.7c0-1.6-0.8-2.4-2.2-2.4c-0.8,0-1.4,0.2-2.1,0.9
				v-0.2c0.8-1.2,2.6-2.3,4.6-2.3c2.5,0,4.3,1.2,4.3,3.9v8.7c0,0.7,0.4,1.4,2.1,1.4v0.2h-8.7V41.3z"/>
			<path class="st2" d="M139.9,32.3c0-3.6,3.4-5,6.2-5v0.2c-1.2,0.1-1.8,1.6-1.8,4.8c0,3.4,0.6,4.7,1.8,4.8v0.2
				C143.4,37.2,139.9,35.9,139.9,32.3z M147.3,48.2c2.8-0.3,3.7-1.8,3.7-2.8c0-3.9-10.8-0.4-10.8-5.4c0-1.1,0.6-2,1.9-2.8l0.1,0.1
				c-0.2,0.1-0.3,0.3-0.3,0.5c0,3.1,12.7-0.5,12.7,5.6c0,2.9-2.5,4.7-7.2,5V48.2z M140.2,45.9c0-1.6,2-2.1,4.2-2.1
				c-0.5,0.2-1.2,1-1.2,2c0,1.3,1.4,2.3,3,2.5v0.2C143.3,48.4,140.2,47.7,140.2,45.9z M147.3,37.1c1.4-0.1,1.9-1.5,1.9-4.8
				c0-3.2-0.6-4.7-1.9-4.8v-0.2c2.9,0.1,6.4,1.4,6.4,5c0,3.6-3.4,4.9-6.4,4.9V37.1z M148.8,26.8c0.5-1.4,1.8-3.3,3.7-3.3
				c1.5,0,2.4,0.8,2.4,2.1c0,1.4-1.2,2.2-2.3,2.2c0-1.2-0.6-1.9-1.5-1.9c-0.8,0-1.8,0.5-2.1,1L148.8,26.8z"/>
		</g>
		<g class="st1">
			<path class="st2" d="M18.6,56.5c-0.3-0.6-0.7-1-1.5-1v-0.2h7.8v0.2c-1,0-1.4,0.7-0.9,1.6l3.6,7.6l-2.4,4.5h-0.2L18.6,56.5z
				 M28.8,62c0.5-0.9,0.8-2.1,0.8-3.6c0-1.5-0.9-2.9-2.8-2.9v-0.2h6.9v0.2c-0.9,0-1.3,0.4-1.8,1.3l-2.9,5.5L28.8,62z"/>
		</g>
		<g class="st1">
			<path class="st2" d="M33.9,62.3c0-4.7,3.6-7.1,6.8-7.2v0.2c-1.6,0.2-2.1,1.6-2.1,6.9c0,4,1.8,6.2,4.3,6.2c1.6,0,2.8-0.4,4.1-1.5
				v0.2c-1.4,1.8-4.1,2.5-5.9,2.5C37.5,69.6,33.9,66.9,33.9,62.3z M40.1,61.1c2.4,0,3.5-0.8,3.5-3.1c0-1.3-0.6-2.6-1.8-2.7v-0.2
				c3.7,0,5.5,2.6,5.5,4.7c0,0.4-0.1,1-0.1,1.4h-7V61.1z"/>
			<path class="st2" d="M55.5,67.7c0,0.7,0.4,1.4,2.1,1.4v0.2h-8.8v-0.2c1.7,0,2.1-0.7,2.1-1.4V51.6c0-1-0.5-1.5-2.1-1.5v-0.2
				c2.6,0,4.7-0.3,6.6-1.1V67.7z M65.3,59v8.7c0,0.7,0.4,1.4,2.1,1.4v0.2h-8.7v-0.2c1.6,0,2.1-0.7,2.1-1.4V59c0-1.6-0.8-2.4-2.2-2.4
				c-0.8,0-1.4,0.2-2.1,0.9v-0.2c0.8-1.2,2.6-2.3,4.6-2.3C63.5,55.1,65.3,56.3,65.3,59z"/>
			<path class="st2" d="M68.4,56.2c2.6,0,4.7-0.3,6.6-1.1v12.6c0,0.7,0.4,1.4,2.1,1.4v0.2h-8.8v-0.2c1.7,0,2.1-0.7,2.1-1.4v-9.9
				c0-1-0.5-1.5-2.1-1.5V56.2z M69.8,50.9c0-1.4,1.2-2.4,2.8-2.4c1.7,0,2.8,1,2.8,2.4c0,1.5-1.2,2.4-2.8,2.4
				C71,53.4,69.8,52.4,69.8,50.9z"/>
			<path class="st2" d="M85.9,55.3c-1.6,0.2-2.4,1.6-2.4,6.9c0,4,2,6.2,4.5,6.2c1.6,0,2.8-0.4,4.1-1.5v0.2c-1.4,1.8-4.1,2.5-5.9,2.5
				c-3.6,0-7.4-2.6-7.4-7.3s3.9-7.1,7.1-7.2V55.3z M92.1,58.2c0,1.5-1,2.7-2.8,2.7c-1.4,0-2.3-0.9-2.4-1.8c0.8-0.3,1.3-1.3,1.3-2
				c0-0.6-0.2-1.6-1.2-1.8v-0.2C90.7,55.1,92.1,56.7,92.1,58.2z"/>
			<path class="st2" d="M93.6,49.9c2.6,0,4.7-0.3,6.6-1.1v18.9c0,0.7,0.4,1.4,2.1,1.4v0.2h-8.8v-0.2c1.7,0,2.1-0.7,2.1-1.4V51.6
				c0-1-0.5-1.5-2.1-1.5V49.9z"/>
			<path class="st2" d="M104,62.3c0-4.7,3.6-7.1,6.8-7.2v0.2c-1.6,0.2-2.1,1.6-2.1,6.9c0,4,1.8,6.2,4.3,6.2c1.6,0,2.8-0.4,4.1-1.5
				v0.2c-1.4,1.8-4.1,2.5-5.9,2.5C107.6,69.6,104,66.9,104,62.3z M110.2,61.1c2.4,0,3.5-0.8,3.5-3.1c0-1.3-0.6-2.6-1.8-2.7v-0.2
				c3.7,0,5.5,2.6,5.5,4.7c0,0.4-0.1,1-0.1,1.4h-7V61.1z"/>
			<path class="st2" d="M126.3,56.2c2.6,0,4.7-0.3,6.6-1.1v12.6c0,0.7,0.4,1.4,2.1,1.4v0.2h-8.8v-0.2c1.7,0,2.1-0.7,2.1-1.4v-9.9
				c0-1-0.5-1.5-2.1-1.5V56.2z M127.7,50.9c0-1.4,1.2-2.4,2.8-2.4c1.7,0,2.8,1,2.8,2.4c0,1.5-1.2,2.4-2.8,2.4
				C128.8,53.4,127.7,52.4,127.7,50.9z"/>
			<path class="st2" d="M136.2,69.1c1.7,0,2.1-0.7,2.1-1.4v-9.9c0-1-0.5-1.5-2.1-1.5v-0.2c2.6,0,4.7-0.3,6.6-1.1v12.6
				c0,0.7,0.4,1.4,2.1,1.4v0.2h-8.8V69.1z M146,69.1c1.6,0,2.1-0.7,2.1-1.4V59c0-1.6-0.8-2.4-2.2-2.4c-0.8,0-1.4,0.2-2.1,0.9v-0.2
				c0.8-1.2,2.6-2.3,4.6-2.3c2.5,0,4.3,1.2,4.3,3.9v8.7c0,0.7,0.4,1.4,2.1,1.4v0.2H146V69.1z"/>
			<path class="st2" d="M161,66c-0.9,0-1.6,0.6-1.6,1.4c0,0.8,0.6,1.8,2.5,2v0.2c-3.7-0.1-5.7-1.1-5.7-2.8c0-1.3,1.1-2.1,2.4-2.1
				C159.7,64.7,160.6,65.3,161,66z M161.9,55.3c-1,0.2-2,0.7-2,1.9c0.1,3.2,9.1,3.8,9.1,8.2c0,2.7-2.3,4.1-5.9,4.3v-0.2
				c1.2-0.2,2.5-0.6,2.5-2.1c0-2.9-9.1-4-9.1-8.2c0-2.4,2.3-3.9,5.4-4.1V55.3z M168.5,58c0,0.9-0.7,1.7-2.1,1.7
				c-1.2,0-2-0.5-2.4-1.3c0.8-0.1,1.3-0.6,1.3-1.3c0-0.8-1.1-1.6-2.2-1.8v-0.2C166.3,55.3,168.5,56.4,168.5,58z"/>
			<path class="st2" d="M177.2,65.6c0,1.6,0.5,2.4,1.9,2.4c0.7,0,1.3-0.2,1.9-0.9v0.2c-0.6,1.2-2.1,2.3-4.3,2.3
				c-2.5,0-4.1-1.2-4.1-3.9v-7.8c0-1-0.5-1.5-2.1-1.5v-0.2c2.6,0,4.7-0.3,6.6-1.1V65.6z M186.5,67.4c0,0.8,0.2,1.1,0.8,1.1
				c0.4,0,0.9-0.4,1.3-1.3h0.2c-0.4,1.5-1.9,2.3-3.8,2.3c-1.9,0-3.1-1.1-3.1-2.7v-9c0-1-0.5-1.5-2-1.5v-0.2c2.5,0,4.2-0.3,6.6-1.1
				V67.4z"/>
		</g>
		<g class="st1">
			<path class="st2" d="M196.5,67.7c0,0.7,0.4,1.4,2.1,1.4v0.2h-8.8v-0.2c1.7,0,2.1-0.7,2.1-1.4v-9.9c0-1-0.5-1.5-2.1-1.5v-0.2
				c2.6,0,4.7-0.3,6.6-1.1V67.7z M204,58.1c0,1.9-1.4,3.2-2.9,3.2c-0.7,0-1.3-0.2-1.6-0.6c0.5-0.3,1.1-0.9,1.1-1.9
				c0-0.8-0.6-1.5-1.6-1.5c-0.7,0-1.3,0.4-1.7,1.1v-0.2c0.5-1.8,1.9-3,3.6-3C203,55.1,204,56.4,204,58.1z"/>
		</g>
		<g class="st1">
			<path class="st2" d="M205.2,66c0-2.4,2.2-3.8,5.3-3.8h3v0.2h-0.8c-2,0-2.9,1.3-2.9,3c0,1.5,0.4,2.7,1.8,2.7c0.8,0,1.4-0.4,2-1
				v0.2c-0.9,1.1-2.4,2.3-4.4,2.3C206.8,69.6,205.2,68.2,205.2,66z M206.4,58.1c0-1.4,1.3-2.9,5.1-3v0.2c-1.1,0.2-1.8,1.1-1.8,2
				c0,1,0.7,1.6,1.8,1.7c-0.4,0.8-1.6,1.3-2.7,1.3C207.2,60.3,206.4,59.3,206.4,58.1z M214.4,66.4v-8.5c0-1.4-0.5-2.4-1.9-2.6v-0.2
				c4.6,0.2,6.5,1.9,6.5,5.6v6.8c0,0.8,0.3,1.1,0.8,1.1c0.4,0,0.9-0.4,1.3-1.3h0.2c-0.4,1.5-1.9,2.3-3.6,2.3
				C215.4,69.6,214.4,68.8,214.4,66.4z"/>
			<path class="st2" d="M222.1,69.1c1.7,0,2.1-0.7,2.1-1.4v-9.9c0-1-0.5-1.5-2.1-1.5v-0.2c2.6,0,4.7-0.3,6.6-1.1v12.6
				c0,0.7,0.4,1.4,2.1,1.4v0.2h-8.8V69.1z M231.9,69.1c1.6,0,2.1-0.7,2.1-1.4V59c0-1.6-0.8-2.4-2.2-2.4c-0.8,0-1.4,0.2-2.1,0.9v-0.2
				c0.8-1.2,2.6-2.3,4.6-2.3c2.5,0,4.3,1.2,4.3,3.9v8.7c0,0.7,0.4,1.4,2.1,1.4v0.2h-8.7V69.1z"/>
			<path class="st2" d="M249.3,55.3c-1.6,0.2-2.4,1.6-2.4,6.9c0,4,2,6.2,4.5,6.2c1.6,0,2.8-0.4,4.1-1.5v0.2
				c-1.4,1.8-4.1,2.5-5.9,2.5c-3.6,0-7.4-2.6-7.4-7.3s3.9-7.1,7.1-7.2V55.3z M255.5,58.2c0,1.5-1,2.7-2.8,2.7
				c-1.4,0-2.3-0.9-2.4-1.8c0.8-0.3,1.3-1.3,1.3-2c0-0.6-0.2-1.6-1.2-1.8v-0.2C254,55.1,255.5,56.7,255.5,58.2z"/>
			<path class="st2" d="M257.5,62.3c0-4.7,3.6-7.1,6.8-7.2v0.2c-1.6,0.2-2.1,1.6-2.1,6.9c0,4,1.8,6.2,4.3,6.2c1.6,0,2.8-0.4,4.1-1.5
				v0.2c-1.4,1.8-4.1,2.5-5.9,2.5C261.1,69.6,257.5,66.9,257.5,62.3z M263.8,61.1c2.4,0,3.5-0.8,3.5-3.1c0-1.3-0.6-2.6-1.8-2.7v-0.2
				c3.7,0,5.5,2.6,5.5,4.7c0,0.4-0.1,1-0.1,1.4h-7V61.1z"/>
		</g>
	</g>
</g>
</svg>
