<svg id="Layer_1" data-name="Layer 1" xmlns="http://www.w3.org/2000/svg" viewBox="0 0 728 90"><defs><style>.cls-1{fill:#fb0010;}.cls-2{fill:#fff;}.cls-3{fill:none;}</style></defs><title>Artboard 1 copy 4</title><path class="cls-1" d="M429,19.32v26a9.26,9.26,0,0,0,5,8.22L472.89,73.7a11.6,11.6,0,0,0,10.66,0l38.91-20.19a9.26,9.26,0,0,0,5-8.22v-26A4.33,4.33,0,0,0,523.13,15H433.3A4.33,4.33,0,0,0,429,19.32Z"/><path class="cls-2" d="M468.52,33.53l.18-.26c.13-.17.26-.18.46-.07a2,2,0,0,0,1.16.42c.53,0,.85-.27.85-.65,0-1.08-2.66-.86-2.66-2.63a1.73,1.73,0,0,1,1.92-1.65,2.72,2.72,0,0,1,1.47.43.32.32,0,0,1,.1.46l-.14.26c-.12.24-.29.2-.46.12a1.84,1.84,0,0,0-1-.32c-.53,0-.86.26-.86.65,0,1.06,2.65.79,2.65,2.6a1.7,1.7,0,0,1-1.88,1.68,3.08,3.08,0,0,1-1.75-.57A.3.3,0,0,1,468.52,33.53Z"/><path class="cls-2" d="M474.49,29.68H473a.3.3,0,0,1-.33-.33v-.23a.3.3,0,0,1,.33-.33h4.09a.3.3,0,0,1,.33.33v.23a.3.3,0,0,1-.33.33h-1.53v4.46a.3.3,0,0,1-.34.34h-.36a.3.3,0,0,1-.33-.34Z"/><path class="cls-2" d="M478.73,29.06a.36.36,0,0,1,.38-.27h.51a.36.36,0,0,1,.38.27l1.78,5a.27.27,0,0,1-.28.39h-.36a.35.35,0,0,1-.38-.28l-.4-1.18h-2L478,34.2a.36.36,0,0,1-.38.28h-.37a.26.26,0,0,1-.27-.39Zm1.37,3.12-.5-1.53c-.1-.32-.23-.88-.23-.88h0s-.13.56-.23.88l-.51,1.53Z"/><path class="cls-2" d="M482.5,29.12a.29.29,0,0,1,.32-.33h1.54a2.51,2.51,0,0,1,1.08.15,1.58,1.58,0,0,1,1,1.55,1.64,1.64,0,0,1-.95,1.56h0a2.83,2.83,0,0,1,.19.3l.93,1.72c.14.23,0,.4-.23.4h-.43a.41.41,0,0,1-.39-.24l-1-1.89h-1v1.79a.3.3,0,0,1-.33.34h-.37a.3.3,0,0,1-.32-.34Zm1.95,2.34a.84.84,0,0,0,.9-.91.78.78,0,0,0-.45-.78,1.52,1.52,0,0,0-.62-.09h-.76v1.78Z"/><path class="cls-2" d="M468.9,36.08c0-.13.06-.21.19-.21h.17a.18.18,0,0,1,.19.21v5.23a.18.18,0,0,1-.19.2h-.17c-.13,0-.19-.07-.19-.2Z"/><path class="cls-2" d="M470.78,37.68a.19.19,0,0,1,.21-.2h.14a.18.18,0,0,1,.19.2v.46a1.44,1.44,0,0,1,0,.29h0a1.77,1.77,0,0,1,1.62-1c1,0,1.36.57,1.36,1.56v2.37a.18.18,0,0,1-.2.2h-.16a.18.18,0,0,1-.19-.2V39.09c0-.63-.1-1.2-.88-1.2a1.57,1.57,0,0,0-1.53,1.65v1.77c0,.13-.06.2-.19.2H471a.19.19,0,0,1-.21-.2Z"/><path class="cls-2" d="M475.15,40.87l.07-.08q.11-.15.27,0a1.79,1.79,0,0,0,1.07.36c.44,0,.81-.22.81-.64,0-.91-2.15-.64-2.15-2,0-.74.63-1.13,1.37-1.13a1.81,1.81,0,0,1,1.1.33.17.17,0,0,1,.06.26l-.06.09a.18.18,0,0,1-.27.06,1.45,1.45,0,0,0-.86-.26c-.43,0-.8.19-.8.63,0,.93,2.15.63,2.15,2a1.22,1.22,0,0,1-1.36,1.14,2.07,2.07,0,0,1-1.36-.47A.18.18,0,0,1,475.15,40.87Z"/><path class="cls-2" d="M478.72,37.68c0-.13.06-.2.19-.2h.15a.18.18,0,0,1,.2.2V39.9c0,.63.1,1.19.88,1.19a1.57,1.57,0,0,0,1.49-1.68V37.68a.18.18,0,0,1,.2-.2H482c.13,0,.19.07.19.2v3.63c0,.13-.06.2-.19.2h-.14a.18.18,0,0,1-.2-.2v-.47a1.28,1.28,0,0,1,0-.28h0a1.74,1.74,0,0,1-1.58,1c-1,0-1.35-.52-1.35-1.57Z"/><path class="cls-2" d="M483.35,37.68a.18.18,0,0,1,.2-.2h.15a.18.18,0,0,1,.19.2v.54a1.7,1.7,0,0,1,0,.32h0a1.43,1.43,0,0,1,1.29-1.09c.15,0,.21.07.21.2v.14a.19.19,0,0,1-.22.2c-.85,0-1.26,1-1.26,1.81v1.51c0,.13-.06.2-.19.2h-.16a.18.18,0,0,1-.2-.2Z"/><path class="cls-2" d="M488.16,39h.23v-.13c0-.78-.42-1-1-1a1.91,1.91,0,0,0-1,.28.19.19,0,0,1-.27-.06l0-.08a.19.19,0,0,1,0-.28,2.57,2.57,0,0,1,1.29-.35,1.37,1.37,0,0,1,1.5,1.55v2.38a.18.18,0,0,1-.2.2h-.13a.18.18,0,0,1-.2-.2V41a1.41,1.41,0,0,1,0-.31h0a1.5,1.5,0,0,1-1.36.93,1.24,1.24,0,0,1-1.36-1.18C485.7,39.11,487.38,39,488.16,39Zm-1,2.11a1.4,1.4,0,0,0,1.23-1.51v-.19h-.22c-.64,0-1.91,0-1.91.93A.8.8,0,0,0,487.16,41.15Z"/><path class="cls-2" d="M490.08,37.68a.18.18,0,0,1,.2-.2h.14a.18.18,0,0,1,.2.2v.46a1.1,1.1,0,0,1,0,.29h0a1.78,1.78,0,0,1,1.63-1c1,0,1.35.57,1.35,1.56v2.37a.18.18,0,0,1-.2.2h-.15c-.13,0-.19-.07-.19-.2V39.09c0-.63-.11-1.2-.89-1.2a1.57,1.57,0,0,0-1.53,1.65v1.77c0,.13-.06.2-.19.2h-.15a.18.18,0,0,1-.2-.2Z"/><path class="cls-2" d="M496.6,37.38a2.08,2.08,0,0,1,1.33.46.17.17,0,0,1,0,.27l-.06.09c-.07.11-.16.11-.27,0a1.65,1.65,0,0,0-1-.37,1.63,1.63,0,0,0,0,3.25,1.77,1.77,0,0,0,1.14-.43.16.16,0,0,1,.26.05l.06.08a.19.19,0,0,1-.05.27,2.23,2.23,0,0,1-1.43.52,2.12,2.12,0,1,1,0-4.23Z"/><path class="cls-2" d="M500.57,37.38c1.07,0,1.68.78,1.68,1.93a.2.2,0,0,1-.21.2h-2.9a1.54,1.54,0,0,0,1.56,1.61,1.74,1.74,0,0,0,1.06-.37c.11-.07.2-.06.26,0l.07.09a.2.2,0,0,1-.06.27,2.28,2.28,0,0,1-1.34.45,2,2,0,0,1-2.11-2.11A2,2,0,0,1,500.57,37.38Zm1.13,1.72a1.17,1.17,0,0,0-1.15-1.27,1.4,1.4,0,0,0-1.39,1.27Z"/><path class="cls-2" d="M471.37,43.3a3.25,3.25,0,0,1,1.86.56.32.32,0,0,1,.06.47l-.14.23c-.12.19-.27.2-.46.08a2.38,2.38,0,0,0-1.28-.4,1.84,1.84,0,0,0-1.91,2,1.91,1.91,0,0,0,1.91,2,2.38,2.38,0,0,0,1.4-.49c.18-.13.34-.13.46,0l.16.22a.31.31,0,0,1,0,.46,3.19,3.19,0,0,1-2,.71,2.94,2.94,0,1,1,0-5.88Z"/><path class="cls-2" d="M476.41,46.56h.17v-.1a.67.67,0,0,0-.76-.72A1.87,1.87,0,0,0,475,46c-.2.09-.36.06-.45-.13l-.08-.16a.28.28,0,0,1,.13-.44,2.79,2.79,0,0,1,1.33-.34,1.52,1.52,0,0,1,1.69,1.63v2.22a.29.29,0,0,1-.33.33H477a.29.29,0,0,1-.33-.33v-.16a1.23,1.23,0,0,1,0-.18h0a1.5,1.5,0,0,1-1.29.77A1.25,1.25,0,0,1,474,48C474,46.76,475.49,46.56,476.41,46.56Zm-.76,1.84a1,1,0,0,0,.93-1.07v-.16h-.16c-.52,0-1.39.09-1.39.69A.55.55,0,0,0,475.65,48.4Z"/><path class="cls-2" d="M478.56,45.33a.3.3,0,0,1,.33-.34h.31a.31.31,0,0,1,.33.34v.25a1,1,0,0,1,0,.18h0a1.56,1.56,0,0,1,1.34-.86,1.14,1.14,0,0,1,1.19.84h0a1.61,1.61,0,0,1,1.39-.84c.85,0,1.34.48,1.34,1.55v2.3a.3.3,0,0,1-.34.33h-.34c-.23,0-.34-.11-.34-.33v-2.1c0-.47-.09-.82-.56-.82-.69,0-1,.7-1,1.42v1.5a.29.29,0,0,1-.33.33h-.35a.3.3,0,0,1-.34-.33v-2.1c0-.44-.06-.82-.54-.82-.73,0-1.06.74-1.06,1.42v1.5a.3.3,0,0,1-.33.33h-.35a.29.29,0,0,1-.33-.33Z"/><path class="cls-2" d="M485.78,45.33a.31.31,0,0,1,.34-.34h.26a.3.3,0,0,1,.33.29v.18a1.26,1.26,0,0,1,0,.16h0A1.47,1.47,0,0,1,488,44.9,1.89,1.89,0,0,1,489.85,47,1.93,1.93,0,0,1,488,49.18a1.33,1.33,0,0,1-1.18-.63h0a3,3,0,0,1,0,.36v1.44a.3.3,0,0,1-.34.34h-.34a.31.31,0,0,1-.34-.34Zm2,3c.56,0,1-.46,1-1.27s-.41-1.28-1-1.28-1,.39-1,1.29C486.77,47.7,487.12,48.32,487.79,48.32Z"/><path class="cls-2" d="M492.48,44.9a1.76,1.76,0,0,1,1.81,2,.35.35,0,0,1-.35.34h-2.5a1.18,1.18,0,0,0,1.23,1.12,1.67,1.67,0,0,0,.88-.26c.2-.1.35-.07.45.11l.1.16a.31.31,0,0,1-.12.45,2.53,2.53,0,0,1-1.38.41A2.1,2.1,0,0,1,490.4,47,2,2,0,0,1,492.48,44.9Zm.8,1.67a.83.83,0,0,0-.83-.9,1,1,0,0,0-1,.9Z"/><path class="cls-2" d="M495.05,45.33a.31.31,0,0,1,.33-.34h.32a.31.31,0,0,1,.33.34v.39a2.07,2.07,0,0,1,0,.28h0a1.41,1.41,0,0,1,1.19-1c.22,0,.3.12.3.34v.31a.31.31,0,0,1-.34.34c-.75,0-1.11.74-1.11,1.48v1.32a.29.29,0,0,1-.32.33h-.36a.3.3,0,0,1-.33-.33Z"/><path class="cls-2" d="M500.9,43.3a3.25,3.25,0,0,1,1.86.56.32.32,0,0,1,.06.47l-.14.23c-.12.19-.27.2-.46.08a2.38,2.38,0,0,0-1.28-.4,1.84,1.84,0,0,0-1.91,2,1.91,1.91,0,0,0,1.92,2,2.38,2.38,0,0,0,1.39-.49c.18-.13.34-.13.46,0L503,48a.31.31,0,0,1-.05.46,3.16,3.16,0,0,1-2,.71,2.94,2.94,0,1,1,0-5.88Z"/><path class="cls-2" d="M505.94,46.56h.17v-.1a.67.67,0,0,0-.76-.72,1.87,1.87,0,0,0-.85.23c-.2.09-.36.06-.45-.13l-.08-.16a.28.28,0,0,1,.13-.44,2.79,2.79,0,0,1,1.33-.34,1.52,1.52,0,0,1,1.7,1.63v2.22a.3.3,0,0,1-.34.33h-.27a.29.29,0,0,1-.33-.33v-.16a1.23,1.23,0,0,1,0-.18h0a1.5,1.5,0,0,1-1.28.77A1.26,1.26,0,0,1,503.55,48C503.55,46.76,505,46.56,505.94,46.56Zm-.76,1.84a1,1,0,0,0,.94-1.07v-.16H506c-.52,0-1.39.09-1.39.69A.55.55,0,0,0,505.18,48.4Z"/><path class="cls-2" d="M508.09,45.33a.3.3,0,0,1,.33-.34h.31a.31.31,0,0,1,.34.34v.39a1.4,1.4,0,0,1,0,.28h0a1.41,1.41,0,0,1,1.18-1c.23,0,.31.12.31.34v.31a.31.31,0,0,1-.35.34c-.74,0-1.1.74-1.1,1.48v1.32a.29.29,0,0,1-.33.33h-.35a.29.29,0,0,1-.33-.33Z"/><path class="cls-2" d="M512.86,44.9a1.76,1.76,0,0,1,1.82,2,.36.36,0,0,1-.36.34h-2.49a1.18,1.18,0,0,0,1.23,1.12,1.7,1.7,0,0,0,.88-.26.3.3,0,0,1,.45.11l.09.16a.3.3,0,0,1-.11.45,2.53,2.53,0,0,1-1.38.41,2.1,2.1,0,0,1-2.2-2.14A2,2,0,0,1,512.86,44.9Zm.81,1.67a.83.83,0,0,0-.83-.9,1,1,0,0,0-1,.9Z"/><path class="cls-2" d="M449.57,46.53a.51.51,0,0,1-.26-.07.56.56,0,0,1-.28-.67L455,27.52a1.24,1.24,0,0,1,1.2-.87h0a1.25,1.25,0,0,1,1.21.88l1.2,3.61a.43.43,0,1,1-.82.27l-1.2-3.62a.4.4,0,0,0-.39-.28h0a.4.4,0,0,0-.39.28L450.42,44.3,458,34a2.36,2.36,0,0,1,1.89-1h5a1.27,1.27,0,0,1,.74,2.29l-4.6,3.34s0,0-.05,0l1.78,5.47a1.27,1.27,0,0,1-1.95,1.41l-4-2.89a1.25,1.25,0,0,1-.52-1,1.27,1.27,0,0,1,.52-1l3.34-2.42.05,0,4.91-3.57a.4.4,0,0,0,.15-.45.41.41,0,0,0-.39-.28h-5a1.47,1.47,0,0,0-1.2.61L450,46.29A.57.57,0,0,1,449.57,46.53Zm10.7-7.32-2.91,2.11a.38.38,0,0,0-.17.33.4.4,0,0,0,.17.33l4,2.89a.4.4,0,0,0,.62-.46Z"/><path class="cls-2" d="M449.88,37.45a.46.46,0,0,1-.25-.08l-2.94-2.08a1.26,1.26,0,0,1-.46-1.42,1.25,1.25,0,0,1,1.2-.87H451a.43.43,0,0,1,.43.43.43.43,0,0,1-.43.43h-3.6a.4.4,0,0,0-.23.73l2.93,2.08a.43.43,0,0,1,.1.6A.42.42,0,0,1,449.88,37.45Z"/><path class="cls-2" d="M453.88,52.59a1.39,1.39,0,0,1-.69-.18l-7.51-4.26a.44.44,0,0,1-.21-.38V38.62a.43.43,0,0,1,.43-.43.43.43,0,0,1,.43.43v8.9l7.28,4.14a.54.54,0,0,0,.55,0l5.33-3.34a.43.43,0,0,1,.45.73l-5.32,3.33A1.36,1.36,0,0,1,453.88,52.59Z"/><rect class="cls-3" width="728" height="90"/></svg>