<svg id="Layer_1" data-name="Layer 1" xmlns="http://www.w3.org/2000/svg" viewBox="0 0 728 90"><defs><style>.cls-1{fill:#74503e;}.cls-2{fill:#fff;}.cls-3{fill:none;}</style></defs><title>Artboard 1 copy 4</title><path class="cls-1" d="M429,19.32v26a9.26,9.26,0,0,0,5,8.22L472.89,73.7a11.6,11.6,0,0,0,10.66,0l38.91-20.19a9.26,9.26,0,0,0,5-8.22v-26A4.33,4.33,0,0,0,523.13,15H433.3A4.33,4.33,0,0,0,429,19.32Z"/><path class="cls-2" d="M473,33.53l.18-.26c.13-.17.26-.18.47-.07a2,2,0,0,0,1.15.42c.53,0,.85-.27.85-.65,0-1.08-2.65-.86-2.65-2.63a1.72,1.72,0,0,1,1.91-1.65,2.72,2.72,0,0,1,1.47.43.32.32,0,0,1,.1.46l-.14.26c-.12.24-.29.2-.46.12a1.8,1.8,0,0,0-1-.32c-.53,0-.87.26-.87.64,0,1.07,2.65.8,2.65,2.61a1.7,1.7,0,0,1-1.88,1.68A3.08,3.08,0,0,1,473,34,.3.3,0,0,1,473,33.53Z"/><path class="cls-2" d="M479,29.68h-1.54a.3.3,0,0,1-.33-.33v-.23a.3.3,0,0,1,.33-.33h4.09a.3.3,0,0,1,.33.33v.23a.3.3,0,0,1-.33.33H480v4.46a.3.3,0,0,1-.34.34h-.36a.3.3,0,0,1-.32-.34Z"/><path class="cls-2" d="M483.19,29.06a.36.36,0,0,1,.38-.27h.51a.35.35,0,0,1,.38.27l1.78,5a.26.26,0,0,1-.27.39h-.37a.37.37,0,0,1-.38-.28l-.4-1.18h-2l-.39,1.18a.35.35,0,0,1-.37.28h-.37a.27.27,0,0,1-.28-.39Zm1.37,3.12-.5-1.53c-.1-.32-.23-.88-.23-.88h0s-.13.56-.23.88l-.51,1.53Z"/><path class="cls-2" d="M487,29.12a.3.3,0,0,1,.33-.33h1.53a2.53,2.53,0,0,1,1.09.15,1.58,1.58,0,0,1,.95,1.55,1.64,1.64,0,0,1-.95,1.56h0a1.63,1.63,0,0,1,.19.3l.94,1.72c.13.23,0,.4-.24.4h-.43a.42.42,0,0,1-.39-.24l-1-1.89h-1v1.79a.3.3,0,0,1-.33.34h-.36a.3.3,0,0,1-.33-.34Zm2,2.34a.84.84,0,0,0,.9-.91.78.78,0,0,0-.45-.78,1.49,1.49,0,0,0-.62-.09H488v1.78Z"/><path class="cls-2" d="M473.36,36.08c0-.13.06-.21.19-.21h.17a.18.18,0,0,1,.19.21v5.23a.18.18,0,0,1-.19.2h-.17c-.13,0-.19-.07-.19-.2Z"/><path class="cls-2" d="M475.25,37.68a.18.18,0,0,1,.2-.2h.14a.18.18,0,0,1,.19.2v.46a1.44,1.44,0,0,1,0,.29h0a1.78,1.78,0,0,1,1.63-1c1,0,1.35.57,1.35,1.56v2.37a.18.18,0,0,1-.2.2h-.15a.18.18,0,0,1-.2-.2V39.09c0-.63-.1-1.2-.88-1.2a1.57,1.57,0,0,0-1.53,1.65v1.77c0,.13-.06.2-.19.2h-.15a.18.18,0,0,1-.2-.2Z"/><path class="cls-2" d="M479.62,40.87l.06-.08q.1-.15.27,0a1.82,1.82,0,0,0,1.07.36c.45,0,.82-.22.82-.64,0-.91-2.16-.64-2.16-2,0-.74.63-1.13,1.37-1.13a1.87,1.87,0,0,1,1.11.33.17.17,0,0,1,0,.26l0,.09c-.07.11-.16.12-.28.06a1.45,1.45,0,0,0-.86-.26c-.43,0-.8.19-.8.63,0,.93,2.15.63,2.15,2A1.22,1.22,0,0,1,481,41.61a2.07,2.07,0,0,1-1.36-.47A.17.17,0,0,1,479.62,40.87Z"/><path class="cls-2" d="M483.18,37.68a.18.18,0,0,1,.19-.2h.16a.18.18,0,0,1,.2.2V39.9c0,.63.09,1.19.87,1.19a1.57,1.57,0,0,0,1.49-1.68V37.68a.18.18,0,0,1,.2-.2h.15a.18.18,0,0,1,.2.2v3.63a.18.18,0,0,1-.2.2h-.14c-.13,0-.19-.07-.19-.2v-.47a1.89,1.89,0,0,1,0-.28h0a1.74,1.74,0,0,1-1.58,1c-1,0-1.35-.52-1.35-1.57Z"/><path class="cls-2" d="M487.82,37.68a.18.18,0,0,1,.2-.2h.14a.18.18,0,0,1,.19.2v.54a1.7,1.7,0,0,1,0,.32h0a1.44,1.44,0,0,1,1.3-1.09.18.18,0,0,1,.2.2v.14c0,.13-.08.2-.22.2-.85,0-1.26,1-1.26,1.81v1.51c0,.13-.06.2-.19.2H488a.18.18,0,0,1-.2-.2Z"/><path class="cls-2" d="M492.62,39h.23v-.13c0-.78-.42-1-1-1a1.91,1.91,0,0,0-1,.28.19.19,0,0,1-.27-.06l-.05-.08a.19.19,0,0,1,.06-.28,2.49,2.49,0,0,1,1.28-.35,1.37,1.37,0,0,1,1.5,1.55v2.38a.18.18,0,0,1-.2.2h-.12a.18.18,0,0,1-.2-.2V41a2.08,2.08,0,0,1,0-.31h0a1.5,1.5,0,0,1-1.36.93,1.24,1.24,0,0,1-1.36-1.18C490.16,39.11,491.84,39,492.62,39Zm-1,2.11a1.4,1.4,0,0,0,1.23-1.51v-.19h-.22c-.64,0-1.91,0-1.91.93A.81.81,0,0,0,491.62,41.15Z"/><path class="cls-2" d="M494.54,37.68a.18.18,0,0,1,.2-.2h.15a.18.18,0,0,1,.19.2v.46a1.44,1.44,0,0,1,0,.29h0a1.78,1.78,0,0,1,1.63-1c1,0,1.35.57,1.35,1.56v2.37a.18.18,0,0,1-.2.2h-.15c-.13,0-.19-.07-.19-.2V39.09c0-.63-.11-1.2-.88-1.2a1.57,1.57,0,0,0-1.53,1.65v1.77a.18.18,0,0,1-.2.2h-.15a.18.18,0,0,1-.2-.2Z"/><path class="cls-2" d="M501.06,37.38a2.12,2.12,0,0,1,1.34.46.17.17,0,0,1,0,.27l-.06.09c-.07.11-.16.11-.27,0a1.63,1.63,0,0,0-1-.37,1.63,1.63,0,0,0,0,3.25,1.77,1.77,0,0,0,1.14-.43.16.16,0,0,1,.26.05l.06.08a.19.19,0,0,1-.05.27,2.23,2.23,0,0,1-1.43.52,2.12,2.12,0,1,1,0-4.23Z"/><path class="cls-2" d="M505,37.38c1.07,0,1.68.78,1.68,1.92a.21.21,0,0,1-.21.21h-2.9a1.54,1.54,0,0,0,1.56,1.61,1.74,1.74,0,0,0,1.06-.37.17.17,0,0,1,.27,0l.06.09a.19.19,0,0,1-.06.27,2.26,2.26,0,0,1-1.34.45A2,2,0,0,1,503,39.5,2,2,0,0,1,505,37.38Zm1.13,1.72A1.16,1.16,0,0,0,505,37.83a1.4,1.4,0,0,0-1.39,1.27Z"/><path class="cls-2" d="M473.23,43.73a.3.3,0,0,1,.33-.34h2.74a.31.31,0,0,1,.34.34V44a.3.3,0,0,1-.34.33h-2v1.49h1.59a.3.3,0,0,1,.33.33v.23a.3.3,0,0,1-.33.33h-1.59v1.53h2.17a.3.3,0,0,1,.34.33v.23a.3.3,0,0,1-.34.33h-2.87a.29.29,0,0,1-.33-.33Z"/><path class="cls-2" d="M477.5,45.33a.3.3,0,0,1,.33-.34h.31a.3.3,0,0,1,.33.34v.25a1,1,0,0,1,0,.18h0a1.58,1.58,0,0,1,1.45-.86c.9,0,1.42.47,1.42,1.55v2.3a.29.29,0,0,1-.33.33h-.35a.3.3,0,0,1-.33-.33V46.66c0-.49-.13-.83-.64-.83a1.22,1.22,0,0,0-1.18,1.34v1.58a.29.29,0,0,1-.33.33h-.35a.29.29,0,0,1-.33-.33Z"/><path class="cls-2" d="M482.43,45.86h-.22a.3.3,0,0,1-.33-.34v-.13a.31.31,0,0,1,.34-.34h.23v-.83a.31.31,0,0,1,.34-.34h.32a.31.31,0,0,1,.34.34v.83H484a.31.31,0,0,1,.34.34v.13a.3.3,0,0,1-.33.34h-.6v1.59a.66.66,0,0,0,.65.76c.25,0,.34.1.34.33v.25c0,.24-.14.33-.42.33a1.46,1.46,0,0,1-1.59-1.5Z"/><path class="cls-2" d="M485.1,43.73a.31.31,0,0,1,.34-.34h.34a.31.31,0,0,1,.34.34v1.65a1.79,1.79,0,0,1,0,.34h0a1.61,1.61,0,0,1,1.42-.82c.9,0,1.42.47,1.42,1.55v2.3a.3.3,0,0,1-.33.33h-.35a.29.29,0,0,1-.33-.33V46.66c0-.49-.13-.83-.64-.83a1.22,1.22,0,0,0-1.18,1.35v1.57a.3.3,0,0,1-.34.33h-.34a.3.3,0,0,1-.34-.33Z"/><path class="cls-2" d="M489.87,45.33a.31.31,0,0,1,.34-.34h.35a.3.3,0,0,1,.33.34v2.09c0,.49.13.83.64.83a1.23,1.23,0,0,0,1.14-1.38V45.33A.31.31,0,0,1,493,45h.34a.31.31,0,0,1,.34.34v3.42a.3.3,0,0,1-.34.33H493a.29.29,0,0,1-.33-.33v-.24a1,1,0,0,1,0-.19h0a1.58,1.58,0,0,1-1.42.86c-.87,0-1.42-.44-1.42-1.56Z"/><path class="cls-2" d="M494.52,48.3l.09-.14c.12-.17.26-.18.46-.08a1.88,1.88,0,0,0,.91.28c.36,0,.57-.16.57-.42,0-.66-2-.41-2-1.82,0-.8.71-1.22,1.57-1.22a2.14,2.14,0,0,1,1.13.3.3.3,0,0,1,.13.44l-.09.15c-.09.19-.24.21-.44.13a1.84,1.84,0,0,0-.78-.2c-.35,0-.55.14-.55.4,0,.67,2,.41,2,1.8,0,.72-.61,1.26-1.55,1.26a2.34,2.34,0,0,1-1.36-.42C494.41,48.66,494.4,48.48,494.52,48.3Z"/><path class="cls-2" d="M498.27,44v-.24a.3.3,0,0,1,.33-.34H499a.31.31,0,0,1,.34.34V44a.3.3,0,0,1-.34.33h-.35A.3.3,0,0,1,498.27,44Zm0,1.36a.31.31,0,0,1,.33-.34H499a.3.3,0,0,1,.33.34v3.42a.29.29,0,0,1-.33.33h-.35a.3.3,0,0,1-.33-.33Z"/><path class="cls-2" d="M502.37,46.56h.17v-.1a.67.67,0,0,0-.76-.72,1.87,1.87,0,0,0-.85.23c-.2.09-.36.06-.45-.13l-.08-.16a.28.28,0,0,1,.13-.44,2.84,2.84,0,0,1,1.34-.34,1.52,1.52,0,0,1,1.69,1.63v2.22a.3.3,0,0,1-.34.33H503a.29.29,0,0,1-.33-.33v-.16a1.23,1.23,0,0,1,0-.18h0a1.5,1.5,0,0,1-1.28.77A1.26,1.26,0,0,1,500,48C500,46.76,501.46,46.56,502.37,46.56Zm-.76,1.84a1,1,0,0,0,.94-1.07v-.16h-.17c-.51,0-1.39.09-1.39.69A.55.55,0,0,0,501.61,48.4Z"/><path class="cls-2" d="M504.32,48.3l.1-.14c.12-.17.26-.18.46-.08a1.84,1.84,0,0,0,.91.28c.35,0,.57-.16.57-.42,0-.66-2-.41-2-1.82,0-.8.71-1.22,1.56-1.22a2.15,2.15,0,0,1,1.14.3.29.29,0,0,1,.12.44l-.08.15c-.09.19-.25.21-.45.13a1.79,1.79,0,0,0-.77-.2c-.36,0-.56.14-.56.4,0,.67,2,.41,2,1.8,0,.72-.61,1.26-1.55,1.26a2.4,2.4,0,0,1-1.37-.42A.29.29,0,0,1,504.32,48.3Z"/><path class="cls-2" d="M508.27,45.86h-.22a.3.3,0,0,1-.33-.34v-.13a.31.31,0,0,1,.34-.34h.23v-.83a.31.31,0,0,1,.34-.34H509a.31.31,0,0,1,.34.34v.83h.59a.31.31,0,0,1,.34.34v.13a.3.3,0,0,1-.33.34h-.6v1.59a.66.66,0,0,0,.65.76c.25,0,.34.1.34.33v.25c0,.24-.14.33-.42.33a1.46,1.46,0,0,1-1.59-1.5Z"/><path class="cls-2" d="M454,46.53a.47.47,0,0,1-.25-.07.55.55,0,0,1-.28-.67l5.93-18.27a1.24,1.24,0,0,1,1.2-.87h0a1.25,1.25,0,0,1,1.21.88l1.2,3.61a.44.44,0,0,1-.27.55.43.43,0,0,1-.54-.28L461,27.79a.39.39,0,0,0-.39-.28h0a.38.38,0,0,0-.38.28L454.88,44.3,462.44,34a2.36,2.36,0,0,1,1.9-1h5a1.27,1.27,0,0,1,.75,2.29l-4.61,3.34s0,0-.05,0l1.78,5.47a1.23,1.23,0,0,1-.46,1.41,1.24,1.24,0,0,1-1.49,0l-4-2.89a1.25,1.25,0,0,1-.52-1,1.27,1.27,0,0,1,.52-1l3.34-2.42.05,0,4.91-3.57a.4.4,0,0,0,.15-.45.39.39,0,0,0-.39-.28h-5a1.48,1.48,0,0,0-1.21.61l-8.64,11.82A.57.57,0,0,1,454,46.53Zm10.7-7.32-2.91,2.11a.38.38,0,0,0-.17.33.4.4,0,0,0,.17.33l4,2.89a.4.4,0,0,0,.48,0,.42.42,0,0,0,.15-.46Z"/><path class="cls-2" d="M454.34,37.45a.49.49,0,0,1-.25-.08l-2.93-2.08A1.26,1.26,0,0,1,451.9,33h3.6a.43.43,0,0,1,.43.43.44.44,0,0,1-.43.43h-3.6a.39.39,0,0,0-.39.28.4.4,0,0,0,.15.45l2.93,2.08a.43.43,0,0,1,.1.6A.41.41,0,0,1,454.34,37.45Z"/><path class="cls-2" d="M458.34,52.59a1.39,1.39,0,0,1-.69-.18l-7.5-4.26a.43.43,0,0,1-.22-.38V38.62a.43.43,0,0,1,.86,0v8.9l7.28,4.14a.54.54,0,0,0,.55,0L464,48.31a.44.44,0,0,1,.59.14.42.42,0,0,1-.14.59l-5.32,3.33A1.33,1.33,0,0,1,458.34,52.59Z"/><rect class="cls-3" width="728" height="90"/></svg>