<?xml version="1.0" encoding="utf-8"?>
<!-- Generator: Adobe Illustrator 24.0.3, SVG Export Plug-In . SVG Version: 6.00 Build 0)  -->
<svg version="1.1" id="Layer_1" xmlns="http://www.w3.org/2000/svg" xmlns:xlink="http://www.w3.org/1999/xlink" x="0px" y="0px"
	 viewBox="0 0 970 250" style="enable-background:new 0 0 970 250;" xml:space="preserve">
<style type="text/css">
	.st0{fill:none;}
	.st1{enable-background:new    ;}
	.st2{fill:#263845;}
</style>
<title>Artboard 1 copy 6</title>
<rect y="0" class="st0" width="970" height="250"/>
<g class="st1">
	<path class="st2" d="M73,81l0.2,0.4c-2.7,4.3-7.4,6.2-12.4,6.2c-8.4,0-18.9-6-18.9-18c0-13,10.2-17.9,17.6-18.1v0.3
		c-3.6,0.8-7.5,4.2-7.5,17.4c0,13.1,5.3,16.3,11.1,16.3C67.8,85.6,71.2,83.2,73,81z M73.4,51.6v12.5H73c-2-6.9-5.8-10.8-10.9-12.2
		v-0.3c4.5,0.2,7.2,1,9.3,2.4l1.5-2.4H73.4z"/>
</g>
<g class="st1">
	<path class="st2" d="M89.8,61.2c-3,0.4-4.1,2.9-4.1,13c0,9.7,1,12.9,4.1,13.2v0.3c-5.9,0-12.8-4.8-12.8-13.5s6.8-13.2,12.8-13.3
		V61.2z M104.7,74.2c0,8.6-6.9,13.5-12.8,13.5v-0.3c3-0.3,4-3.6,4-13.2c0-10.1-1-12.7-4-13v-0.3C97.9,60.9,104.7,65.5,104.7,74.2z"
		/>
	<path class="st2" d="M108.1,86.8c3.1,0,3.9-1.3,3.9-2.6V65.9c0-1.9-0.9-2.7-3.8-2.7v-0.3c4.8,0,8.7-0.5,12.3-2v23.3
		c0,1.3,0.8,2.6,3.9,2.6v0.3h-16.2V86.8z M126.2,86.8c3,0,3.8-1.3,3.8-2.6V68.1c0-2.9-1.5-4.4-4.1-4.4c-1.4,0-2.7,0.5-3.9,1.6V65
		c1.4-2.2,4.7-4.2,8.6-4.2c4.6,0,7.9,2.2,7.9,7.3v16.1c0,1.3,0.8,2.6,3.9,2.6v0.3h-16.2V86.8z"/>
	<path class="st2" d="M164.2,83.2v0.3c-1.6,2.4-4.9,4.2-8.8,4.2c-4.6,0-7.9-2.1-7.9-7.3V63.5h-2.7l0.6-0.8h2.1v-5.6
		c3.1,0,6.2-1,8.4-2.9v8.4h7l-0.6,0.8h-6.4v17.1c0,2.6,1,5.3,3.4,5.3C160.8,85.8,162.5,84.9,164.2,83.2z"/>
	<path class="st2" d="M165.9,81.1c0.1-4.5,4.1-7,9.9-7h5.6v0.3h-1.5c-3.7,0-5.5,2.4-5.5,5.6c0,2.8,0.8,5,3.2,5
		c1.4,0,2.6-0.8,3.8-1.8v0.3c-1.7,2-4.4,4.2-8.2,4.2C168.8,87.7,165.8,85.2,165.9,81.1z M167.9,66.5c0-2.6,2.4-5.3,9.4-5.6v0.3
		c-2.1,0.3-3.3,2-3.3,3.8c0,1.9,1.3,3,3.3,3.1c-0.8,1.4-2.9,2.5-4.9,2.5C169.6,70.6,167.9,68.6,167.9,66.5z M182.9,81.8V66.1
		c0-2.5-1-4.5-3.5-4.9v-0.3c8.6,0.3,12,3.6,12,10.3v12.5c0,1.5,0.5,2.1,1.4,2.1c0.8,0,1.6-0.8,2.5-2.3h0.3c-0.8,2.8-3.6,4.2-6.7,4.2
		C184.7,87.7,182.9,86.2,182.9,81.8z"/>
	<path class="st2" d="M211.2,61.2c-3,0.4-4.4,2.9-4.4,12.8c0,7.4,3.8,11.5,8.3,11.5c2.9,0,5.1-0.8,7.5-2.7V83
		c-2.7,3.4-7.6,4.6-10.9,4.6c-6.6,0-13.8-4.8-13.8-13.5s7.2-13.2,13.2-13.3V61.2z M222.7,66.7c0,2.7-1.9,4.9-5.2,4.9
		c-2.5,0-4.2-1.6-4.5-3.2c1.4-0.6,2.5-2.4,2.5-3.8c0-1.2-0.3-3-2.2-3.4v-0.4C220.1,60.9,222.7,63.8,222.7,66.7z"/>
	<path class="st2" d="M245.6,83.2v0.3c-1.6,2.4-4.9,4.2-8.8,4.2c-4.6,0-7.9-2.1-7.9-7.3V63.5h-2.7l0.6-0.8h2.1v-5.6
		c3.1,0,6.2-1,8.4-2.9v8.4h7l-0.6,0.8h-6.4v17.1c0,2.6,1,5.3,3.4,5.3C242.2,85.8,243.9,84.9,245.6,83.2z"/>
</g>
<g class="st1">
	<path class="st2" d="M42,115c-0.5-1.1-1.2-1.8-2.8-1.8v-0.3h14.4v0.3c-1.8,0-2.5,1.2-1.6,3l6.7,14.1l-4.4,8.3H54L42,115z
		 M39.8,146.9c0-2.2,1.8-4.1,4.5-4.8c-0.2,0.5-0.2,0.9-0.2,1.3c-0.1,2,1,3.5,3,3.5c1.8,0,3.2-1.9,5.2-5.2h0.4
		c-2.8,5.3-4.8,9.9-8.4,9.9C41.4,151.5,39.8,149.6,39.8,146.9z M60.9,125.3c0.9-1.6,1.4-3.9,1.4-6.6c0-2.8-1.6-5.4-5.3-5.4v-0.3
		h12.8v0.3c-1.7,0-2.4,0.7-3.3,2.4l-5.4,10.1L60.9,125.3z"/>
</g>
<g class="st1">
	<path class="st2" d="M83,112.7c-3,0.4-4.1,2.9-4.1,13c0,9.7,1,12.9,4.1,13.2v0.3c-5.9,0-12.8-4.8-12.8-13.5
		c0-8.7,6.8-13.2,12.8-13.3V112.7z M97.8,125.7c0,8.6-6.9,13.5-12.8,13.5v-0.3c3-0.3,4-3.6,4-13.2c0-10.1-1-12.7-4-13v-0.3
		C91,112.4,97.8,117,97.8,125.7z"/>
	<path class="st2" d="M113,131.9c0,2.9,1,4.4,3.6,4.4c1.3,0,2.4-0.4,3.6-1.6v0.3c-1.2,2.2-3.8,4.2-8,4.2c-4.6,0-7.6-2.2-7.6-7.3
		v-14.5c0-1.9-0.9-2.7-3.8-2.7v-0.3c4.8,0,8.7-0.5,12.3-2V131.9z M130.2,135.2c0,1.5,0.5,2.1,1.4,2.1c0.8,0,1.6-0.8,2.5-2.3h0.3
		c-0.8,2.8-3.6,4.2-7,4.2c-3.6,0-5.7-2.1-5.7-5v-16.7c0-1.9-0.9-2.7-3.7-2.7v-0.3c4.6,0,7.8-0.5,12.2-2V135.2z"/>
</g>
<g class="st1">
	<path class="st2" d="M148.8,135.7c0,1.3,0.8,2.6,3.9,2.6v0.3h-16.2v-0.3c3.1,0,3.9-1.3,3.9-2.6v-18.3c0-1.9-0.9-2.7-3.8-2.7v-0.3
		c4.8,0,8.7-0.5,12.3-2V135.7z M162.7,117.9c0,3.6-2.5,5.9-5.3,5.9c-1.2,0-2.3-0.3-2.9-1.1c1-0.5,2-1.6,2-3.5c0-1.5-1.1-2.8-2.9-2.8
		c-1.3,0-2.4,0.8-3.1,2v-0.4c1-3.3,3.5-5.6,6.7-5.6C160.7,112.4,162.7,114.9,162.7,117.9z"/>
</g>
<g class="st1">
	<path class="st2" d="M188.1,132.2c0,4.9-3.3,7-8.5,7v-33.3c0-1.9-0.9-2.7-3.9-2.7v-0.3c4.8,0,8-0.5,12.4-2V132.2z M207.7,125.5
		c0,10.8-5.7,13.7-10.6,13.7c-2.9,0-6.2-2-7.5-4.2v-0.3c1.3,1,2.6,1.8,4.3,1.8c2.4,0,5-1.7,5-11c0-9.3-2.5-10.5-5-10.5
		c-1.6,0-3.1,0.6-4.3,1.9v-0.4c1.3-2.2,4.5-4.1,7.5-4.1C202.1,112.4,207.7,115.3,207.7,125.5z"/>
</g>
<g class="st1">
	<path class="st2" d="M223.7,135.7c0,1.3,0.8,2.6,3.9,2.6v0.3h-16.2v-0.3c3.1,0,3.9-1.3,3.9-2.6v-18.3c0-1.9-0.9-2.7-3.8-2.7v-0.3
		c4.8,0,8.7-0.5,12.3-2V135.7z M237.6,117.9c0,3.6-2.5,5.9-5.3,5.9c-1.2,0-2.3-0.3-2.9-1.1c1-0.5,2-1.6,2-3.5c0-1.5-1.1-2.8-2.9-2.8
		c-1.3,0-2.4,0.8-3.1,2v-0.4c1-3.3,3.5-5.6,6.7-5.6C235.6,112.4,237.6,114.9,237.6,117.9z"/>
</g>
<g class="st1">
	<path class="st2" d="M253.2,112.7c-3,0.4-4.1,2.9-4.1,13c0,9.7,1,12.9,4.1,13.2v0.3c-5.9,0-12.8-4.8-12.8-13.5
		c0-8.7,6.8-13.2,12.8-13.3V112.7z M268,125.7c0,8.6-6.9,13.5-12.8,13.5v-0.3c3-0.3,4-3.6,4-13.2c0-10.1-1-12.7-4-13v-0.3
		C261.2,112.4,268,117,268,125.7z"/>
</g>
<g class="st1">
	<path class="st2" d="M287.3,138.3v0.3h-16.2v-0.3c3.1,0,3.9-1.3,3.9-2.6v-29.9c0-1.9-0.9-2.7-3.8-2.7v-0.3c4.8,0,8.7-0.5,12.3-2
		v34.9C283.5,137,284.2,138.3,287.3,138.3z M304.8,138.3v0.3c-1.4,0.4-3.4,0.5-5.2,0.5c-3.1,0-6.6-0.6-9.3-5l-4.8-8.1
		c4.1-3.6,7.9-7.9,7.9-10.5c0-1.4-0.7-2.4-3-2.4v-0.3h13.2v0.3c-1.2,0-2.2,0.4-2.9,0.9l-9.4,7.5l8.9,13.8
		C301.8,138,303.1,138.1,304.8,138.3z"/>
</g>
<g class="st1">
	<path class="st2" d="M305.1,125.7c0-8.7,6.6-13.2,12.6-13.3v0.3c-3,0.4-3.9,2.9-3.9,12.8c0,7.4,3.3,11.5,7.9,11.5
		c2.9,0,5.1-0.8,7.5-2.7v0.3c-2.7,3.4-7.6,4.6-10.9,4.6C311.7,139.2,305.1,134.3,305.1,125.7z M316.7,123.5c4.5,0,6.4-1.4,6.4-5.8
		c0-2.5-1-4.7-3.3-5v-0.3c6.8,0,10.1,4.8,10.1,8.8c0,0.8-0.1,1.9-0.3,2.7h-12.9V123.5z"/>
</g>
<g class="st1">
	<path class="st2" d="M345.5,135.7c0,1.3,0.8,2.6,3.9,2.6v0.3h-16.2v-0.3c3.1,0,3.9-1.3,3.9-2.6v-18.3c0-1.9-0.9-2.7-3.8-2.7v-0.3
		c4.8,0,8.7-0.5,12.3-2V135.7z M359.4,117.9c0,3.6-2.5,5.9-5.3,5.9c-1.2,0-2.3-0.3-2.9-1.1c1-0.5,2-1.6,2-3.5c0-1.5-1.1-2.8-2.9-2.8
		c-1.3,0-2.4,0.8-3.1,2v-0.4c1-3.3,3.5-5.6,6.7-5.6C357.5,112.4,359.4,114.9,359.4,117.9z"/>
</g>
<g class="st1">
	<path class="st2" d="M60.7,186.2v0.3c-1.6,2.4-4.9,4.2-8.8,4.2c-4.6,0-7.9-2.1-7.9-7.3v-16.9h-2.7l0.6-0.8h2.1v-5.6
		c3.1,0,6.2-1,8.4-2.9v8.4h7l-0.6,0.8h-6.4v17.1c0,2.6,1,5.3,3.4,5.3C57.2,188.8,59,187.9,60.7,186.2z"/>
</g>
<g class="st1">
	<path class="st2" d="M75.4,164.2c-3,0.4-4.1,2.9-4.1,13c0,9.7,1,12.9,4.1,13.2v0.3c-5.9,0-12.8-4.8-12.8-13.5s6.8-13.2,12.8-13.3
		V164.2z M90.3,177.2c0,8.6-6.9,13.5-12.8,13.5v-0.3c3-0.3,4-3.6,4-13.2c0-10.1-1-12.7-4-13v-0.3C83.5,163.9,90.3,168.5,90.3,177.2z
		"/>
	<path class="st2" d="M112.9,168v0.4c-1.2-1.3-2.7-1.9-4.3-1.9c-2.6,0-5,1.2-5,10.5c0,9.3,2.6,11,5,11c1.6,0,3-0.8,4.3-1.8v0.3
		c-1.3,2.2-4.5,4.2-7.5,4.2c-4.9,0-10.6-2.9-10.6-13.7c0-10.3,5.6-13.1,10.6-13.1C108.3,163.9,111.6,165.8,112.9,168z M122.9,186.7
		c0,1.5,0.5,2.1,1.4,2.1c0.8,0,1.6-0.8,2.5-2.3h0.3c-0.8,2.8-3.6,4.2-6.7,4.2c-4.1,0-6-1.4-6-5.8v-27.5c0-1.9-0.9-2.7-3.8-2.7v-0.3
		c4.8,0,8-0.5,12.3-2V186.7z"/>
</g>
<g class="st1">
	<path class="st2" d="M129.6,184.1c0.1-4.5,4.1-7,9.9-7h5.6v0.3h-1.5c-3.7,0-5.5,2.4-5.5,5.6c0,2.8,0.8,5,3.2,5
		c1.4,0,2.6-0.8,3.8-1.8v0.3c-1.7,2-4.4,4.2-8.2,4.2C132.4,190.7,129.5,188.2,129.6,184.1z M131.6,169.5c0-2.6,2.4-5.3,9.4-5.6v0.3
		c-2.1,0.3-3.3,2-3.3,3.8c0,1.9,1.3,3,3.3,3.1c-0.8,1.4-2.9,2.5-4.9,2.5C133.3,173.6,131.6,171.7,131.6,169.5z M146.6,184.9v-15.8
		c0-2.5-1-4.5-3.5-4.9v-0.3c8.6,0.3,12,3.6,12,10.3v12.5c0,1.5,0.5,2.1,1.4,2.1c0.8,0,1.6-0.8,2.5-2.3h0.3c-0.8,2.8-3.6,4.2-6.7,4.2
		C148.4,190.7,146.6,189.2,146.6,184.9z"/>
</g>
<g class="st1">
	<path class="st2" d="M160.9,166.5c-0.5-1.1-1.2-1.8-2.8-1.8v-0.3h14.4v0.3c-1.8,0-2.5,1.2-1.6,3l6.7,14.1l-4.4,8.3h-0.3
		L160.9,166.5z M158.6,198.5c0-2.2,1.8-4.1,4.5-4.8c-0.2,0.5-0.2,0.9-0.2,1.3c-0.1,2,1,3.5,3,3.5c1.8,0,3.2-1.9,5.2-5.2h0.4
		c-2.8,5.3-4.8,9.9-8.4,9.9C160.3,203,158.6,201.1,158.6,198.5z M179.7,176.8c0.9-1.6,1.4-3.9,1.4-6.6c0-2.8-1.6-5.4-5.3-5.4v-0.3
		h12.8v0.3c-1.7,0-2.4,0.7-3.3,2.4l-5.4,10.1L179.7,176.8z"/>
</g>
</svg>
