<svg id="Layer_1" data-name="Layer 1" xmlns="http://www.w3.org/2000/svg" viewBox="0 0 970 250"><defs><style>.cls-1{fill:none;}.cls-2{fill:#263845;}</style></defs><title>Artboard 1 copy 6</title><rect class="cls-1" width="970" height="250"/><path class="cls-2" d="M89.52,81.57l.18.36c-2.34,3.74-6.48,5.45-10.85,5.45-7.33,0-16.47-5.22-16.47-15.71,0-11.38,8.91-15.61,15.39-15.79v.27c-3.15.67-6.57,3.64-6.57,15.21s4.64,14.22,9.72,14.22A11,11,0,0,0,89.52,81.57Zm.36-25.69V66.81h-.36c-1.76-6-5.09-9.45-9.5-10.66v-.27c3.92.18,6.3.85,8.15,2.07l1.35-2.07Z"/><path class="cls-2" d="M104.23,64.25c-2.65.31-3.55,2.56-3.55,11.34,0,8.46.9,11.25,3.55,11.51v.28A11.47,11.47,0,0,1,93,75.59,11.27,11.27,0,0,1,104.23,64Zm13,11.34A11.46,11.46,0,0,1,106,87.38V87.1c2.66-.26,3.51-3.1,3.51-11.51,0-8.82-.9-11.07-3.51-11.34V64A11.21,11.21,0,0,1,117.19,75.59Z"/><path class="cls-2" d="M120.16,86.66c2.7,0,3.38-1.17,3.38-2.3v-16c0-1.62-.77-2.39-3.33-2.39v-.27A27.61,27.61,0,0,0,131,64V84.36c0,1.13.68,2.3,3.38,2.3v.27H120.16Zm15.84,0c2.66,0,3.33-1.17,3.33-2.3v-14c0-2.52-1.3-3.82-3.55-3.82a4.79,4.79,0,0,0-3.42,1.39v-.27A9.18,9.18,0,0,1,139.83,64c4,0,6.93,1.89,6.93,6.34v14c0,1.13.67,2.3,3.37,2.3v.27H136Z"/><path class="cls-2" d="M169.21,83.46v.27a9.41,9.41,0,0,1-7.69,3.65c-4.05,0-6.93-1.85-6.93-6.35V66.27h-2.34l.49-.67h1.85V60.74A11.42,11.42,0,0,0,162,58.22V65.6H168l-.49.67H162v14.9c0,2.25.85,4.59,3,4.59A6.6,6.6,0,0,0,169.21,83.46Z"/><path class="cls-2" d="M170.65,81.62c0-3.92,3.6-6.12,8.64-6.12h4.86v.27H182.8c-3.24,0-4.77,2.11-4.77,4.9,0,2.47.72,4.37,2.84,4.37a4.93,4.93,0,0,0,3.28-1.58v.27A9.56,9.56,0,0,1,177,87.38C173.17,87.38,170.61,85.22,170.65,81.62Zm1.8-12.74c0-2.29,2.07-4.63,8.19-4.9v.27a3.28,3.28,0,0,0-2.88,3.28c0,1.62,1.13,2.61,2.93,2.75a5.06,5.06,0,0,1-4.32,2.16A3.61,3.61,0,0,1,172.45,68.88ZM185.5,82.29V68.52c0-2.2-.85-4-3.06-4.27V64c7.47.27,10.44,3.1,10.44,9V83.91c0,1.31.45,1.85,1.26,1.85s1.44-.68,2.16-2h.27c-.72,2.48-3.15,3.65-5.85,3.65C187.12,87.38,185.5,86.12,185.5,82.29Z"/><path class="cls-2" d="M210.3,64.25c-2.66.31-3.83,2.56-3.83,11.16,0,6.48,3.29,10,7.29,10a9.76,9.76,0,0,0,6.57-2.39v.28c-2.34,3-6.61,4-9.54,4-5.76,0-12-4.24-12-11.79A11.52,11.52,0,0,1,210.3,64Zm10,4.81a4.18,4.18,0,0,1-4.5,4.32,3.83,3.83,0,0,1-3.92-2.83A3.9,3.9,0,0,0,214,67.26c0-1-.27-2.65-1.93-3V64C218,64,220.29,66.5,220.29,69.06Z"/><path class="cls-2" d="M240.31,83.46v.27a9.41,9.41,0,0,1-7.69,3.65c-4.05,0-6.93-1.85-6.93-6.35V66.27h-2.34l.49-.67h1.85V60.74a11.42,11.42,0,0,0,7.38-2.52V65.6h6.07l-.49.67h-5.58v14.9c0,2.25.85,4.59,3,4.59A6.6,6.6,0,0,0,240.31,83.46Z"/><path class="cls-2" d="M62.47,116.27A2.43,2.43,0,0,0,60,114.7v-.27H72.6v.27c-1.58,0-2.21,1.08-1.44,2.65l5.89,12.29-3.87,7.29h-.27Zm-2,27.9c0-1.94,1.53-3.56,4-4.23a3.58,3.58,0,0,0-.18,1.12c0,1.71.9,3,2.66,3,1.57,0,2.83-1.66,4.54-4.54h.32c-2.48,4.63-4.19,8.64-7.34,8.64A3.74,3.74,0,0,1,60.49,144.17Zm18.45-18.94a12.3,12.3,0,0,0,1.26-5.81c0-2.47-1.39-4.72-4.59-4.72v-.27H86.82v.27c-1.49,0-2.07.58-2.93,2.11l-4.68,8.82Z"/><path class="cls-2" d="M98.25,114.25c-2.66.31-3.56,2.56-3.56,11.34,0,8.46.9,11.25,3.56,11.51v.28A11.48,11.48,0,0,1,87,125.59,11.28,11.28,0,0,1,98.25,114Zm13,11.34a11.47,11.47,0,0,1-11.16,11.79v-.28c2.65-.26,3.51-3.1,3.51-11.51,0-8.82-.9-11.07-3.51-11.34V114A11.21,11.21,0,0,1,111.21,125.59Z"/><path class="cls-2" d="M124.48,131c0,2.52.86,3.82,3.11,3.82a3.94,3.94,0,0,0,3.1-1.39v.27c-1,1.94-3.33,3.65-7,3.65-4,0-6.66-1.89-6.66-6.35V118.39c0-1.62-.77-2.39-3.33-2.39v-.27A27.61,27.61,0,0,0,124.48,114Zm15,2.88c0,1.31.4,1.85,1.21,1.85s1.44-.68,2.16-2h.27c-.72,2.48-3.15,3.65-6.12,3.65-3.15,0-5-1.8-5-4.41V118.39c0-1.62-.76-2.39-3.19-2.39v-.27A29.36,29.36,0,0,0,139.47,114Z"/><path class="cls-2" d="M155.71,134.36c0,1.13.68,2.3,3.38,2.3v.27H144.91v-.27c2.7,0,3.38-1.17,3.38-2.3v-16c0-1.62-.77-2.39-3.33-2.39v-.27A27.61,27.61,0,0,0,155.71,114Zm12.15-15.52a4.81,4.81,0,0,1-4.63,5.13,3.07,3.07,0,0,1-2.57-1,3.29,3.29,0,0,0,1.76-3.06,2.39,2.39,0,0,0-2.52-2.43,3.07,3.07,0,0,0-2.7,1.71v-.36c.85-2.88,3.06-4.86,5.85-4.86A4.57,4.57,0,0,1,167.86,118.84Z"/><path class="cls-2" d="M190.05,131.26c0,4.27-2.93,6.12-7.43,6.12V108.26c0-1.62-.81-2.38-3.37-2.38v-.27a29.66,29.66,0,0,0,10.8-1.76Zm17.14-5.81c0,9.4-5,11.93-9.27,11.93a8.34,8.34,0,0,1-6.52-3.65v-.27a6.2,6.2,0,0,0,3.73,1.58c2.12,0,4.41-1.49,4.41-9.59s-2.16-9.18-4.41-9.18a4.94,4.94,0,0,0-3.73,1.67v-.36a8.3,8.3,0,0,1,6.52-3.6C202.29,114,207.19,116.5,207.19,125.45Z"/><path class="cls-2" d="M221.14,134.36c0,1.13.68,2.3,3.38,2.3v.27H210.34v-.27c2.7,0,3.38-1.17,3.38-2.3v-16c0-1.62-.77-2.39-3.33-2.39v-.27A27.61,27.61,0,0,0,221.14,114Zm12.15-15.52a4.81,4.81,0,0,1-4.63,5.13,3.07,3.07,0,0,1-2.57-1,3.29,3.29,0,0,0,1.76-3.06,2.39,2.39,0,0,0-2.52-2.43,3.07,3.07,0,0,0-2.7,1.71v-.36c.85-2.88,3.06-4.86,5.85-4.86A4.57,4.57,0,0,1,233.29,118.84Z"/><path class="cls-2" d="M246.93,114.25c-2.66.31-3.56,2.56-3.56,11.34,0,8.46.9,11.25,3.56,11.51v.28a11.48,11.48,0,0,1-11.21-11.79A11.28,11.28,0,0,1,246.93,114Zm13,11.34a11.47,11.47,0,0,1-11.16,11.79v-.28c2.65-.26,3.51-3.1,3.51-11.51,0-8.82-.9-11.07-3.51-11.34V114A11.21,11.21,0,0,1,259.89,125.59Z"/><path class="cls-2" d="M276.76,136.66v.27H262.59v-.27c2.7,0,3.37-1.17,3.37-2.3v-26.1c0-1.62-.76-2.38-3.33-2.38v-.27a27.48,27.48,0,0,0,10.76-1.76v30.51C273.39,135.49,274.06,136.66,276.76,136.66Zm15.26,0v.27a17.75,17.75,0,0,1-4.5.45c-2.75,0-5.81-.5-8.15-4.37L275.14,126c3.56-3.11,6.89-6.89,6.89-9.18,0-1.22-.59-2.07-2.66-2.07v-.27h11.52v.27a4,4,0,0,0-2.52.81L280.14,122l7.78,12.06C289.41,136.34,290.53,136.47,292,136.66Z"/><path class="cls-2" d="M292.29,125.59a11.14,11.14,0,0,1,11-11.61v.27c-2.65.31-3.37,2.56-3.37,11.16,0,6.48,2.88,10,6.88,10a9.76,9.76,0,0,0,6.57-2.39v.28c-2.34,3-6.61,4-9.54,4A11.41,11.41,0,0,1,292.29,125.59Zm10.12-1.89c4,0,5.63-1.26,5.63-5,0-2.16-.9-4.14-2.93-4.41V114c5.94,0,8.82,4.23,8.82,7.65a13.85,13.85,0,0,1-.22,2.34h-11.3Z"/><path class="cls-2" d="M327.61,134.36c0,1.13.68,2.3,3.38,2.3v.27H316.81v-.27c2.7,0,3.38-1.17,3.38-2.3v-16c0-1.62-.77-2.39-3.33-2.39v-.27A27.61,27.61,0,0,0,327.61,114Zm12.15-15.52a4.81,4.81,0,0,1-4.63,5.13,3.07,3.07,0,0,1-2.57-1,3.29,3.29,0,0,0,1.76-3.06,2.39,2.39,0,0,0-2.52-2.43,3.07,3.07,0,0,0-2.7,1.71v-.36C330,116,332.16,114,335,114A4.57,4.57,0,0,1,339.76,118.84Z"/><path class="cls-2" d="M78.76,183.46v.27a9.41,9.41,0,0,1-7.69,3.65c-4,0-6.93-1.85-6.93-6.35V166.27H61.8l.49-.67h1.85v-4.86a11.42,11.42,0,0,0,7.38-2.52v7.38h6.07l-.49.67H71.52v14.9c0,2.25.85,4.59,3,4.59A6.6,6.6,0,0,0,78.76,183.46Z"/><path class="cls-2" d="M91.63,164.25c-2.65.31-3.55,2.56-3.55,11.34,0,8.46.9,11.25,3.55,11.51v.28a11.47,11.47,0,0,1-11.2-11.79A11.27,11.27,0,0,1,91.63,164Zm13,11.34a11.46,11.46,0,0,1-11.16,11.79v-.28c2.66-.26,3.51-3.1,3.51-11.51,0-8.82-.9-11.07-3.51-11.34V164A11.21,11.21,0,0,1,104.59,175.59Z"/><path class="cls-2" d="M124.35,167.58v.36a5,5,0,0,0-3.74-1.67c-2.25,0-4.41,1-4.41,9.18s2.3,9.59,4.41,9.59a6.25,6.25,0,0,0,3.74-1.58v.27a8.36,8.36,0,0,1-6.53,3.65c-4.27,0-9.27-2.53-9.27-11.93,0-8.95,4.91-11.47,9.27-11.47A8.32,8.32,0,0,1,124.35,167.58Zm8.77,16.33c0,1.31.41,1.85,1.22,1.85s1.44-.68,2.16-2h.27c-.72,2.48-3.15,3.65-5.85,3.65-3.6,0-5.22-1.26-5.22-5.09v-24c0-1.62-.77-2.38-3.33-2.38v-.27a29.39,29.39,0,0,0,10.75-1.76Z"/><path class="cls-2" d="M138.93,181.62c0-3.92,3.6-6.12,8.64-6.12h4.86v.27h-1.35c-3.24,0-4.77,2.11-4.77,4.9,0,2.47.72,4.37,2.83,4.37a5,5,0,0,0,3.29-1.58v.27a9.59,9.59,0,0,1-7.16,3.65C141.45,187.38,138.88,185.22,138.93,181.62Zm1.8-12.74c0-2.29,2.07-4.63,8.19-4.9v.27a3.28,3.28,0,0,0-2.88,3.28c0,1.62,1.12,2.61,2.92,2.75a5,5,0,0,1-4.32,2.16A3.61,3.61,0,0,1,140.73,168.88Zm13.05,13.41V168.52c0-2.2-.86-4-3.06-4.27V164c7.47.27,10.44,3.1,10.44,9v10.93c0,1.31.45,1.85,1.26,1.85s1.44-.68,2.16-2h.27c-.72,2.48-3.15,3.65-5.85,3.65C155.4,187.38,153.78,186.12,153.78,182.29Z"/><path class="cls-2" d="M166.29,166.27a2.44,2.44,0,0,0-2.48-1.57v-.27h12.6v.27c-1.57,0-2.2,1.08-1.44,2.65l5.9,12.29L177,186.93h-.27Zm-2,27.9c0-1.94,1.53-3.56,4-4.23a3.31,3.31,0,0,0-.18,1.12c-.05,1.71.9,3,2.65,3,1.58,0,2.84-1.66,4.55-4.54h.31c-2.47,4.63-4.18,8.64-7.33,8.64A3.74,3.74,0,0,1,164.31,194.17Zm18.45-18.94a12.42,12.42,0,0,0,1.26-5.81c0-2.47-1.4-4.72-4.59-4.72v-.27h11.2v.27c-1.48,0-2.07.58-2.92,2.11L183,175.63Z"/></svg>