<svg id="Layer_1" data-name="Layer 1" xmlns="http://www.w3.org/2000/svg" viewBox="0 0 970 250"><defs><style>.cls-1{fill:#fff;}.cls-2{fill:none;}</style></defs><title>Artboard 1 copy 3</title><path class="cls-1" d="M60.85,55.61a27.48,27.48,0,0,0,10.76-1.76V84.36c0,1.13.67,2.3,3.37,2.3v.26H60.81v-.26c2.7,0,3.37-1.17,3.37-2.3V58.26c0-1.62-.76-2.38-3.33-2.38Z"/><path class="cls-1" d="M77,65.69a27.48,27.48,0,0,0,10.76-1.76V84.36c0,1.13.67,2.3,3.37,2.3v.26H76.92v-.26c2.7,0,3.37-1.17,3.37-2.3v-16c0-1.62-.76-2.38-3.33-2.38Zm2.3-8.46c0-2.34,1.89-3.92,4.59-3.92s4.59,1.58,4.59,3.92-1.89,4-4.59,4S79.26,59.61,79.26,57.23Z"/><path class="cls-1" d="M94,66.27a2.44,2.44,0,0,0-2.48-1.57v-.27h12.6v.27c-1.57,0-2.2,1.08-1.44,2.65l5.9,12.28-3.87,7.29h-.27Zm16.47,9a12.42,12.42,0,0,0,1.26-5.81c0-2.47-1.4-4.72-4.59-4.72v-.27h11.2v.27c-1.48,0-2.07.58-2.92,2.11l-4.68,8.82Z"/><path class="cls-1" d="M118.72,75.58a11.13,11.13,0,0,1,11-11.6v.27c-2.66.31-3.38,2.56-3.38,11.16,0,6.47,2.88,10,6.89,10a9.79,9.79,0,0,0,6.57-2.39v.28c-2.34,3-6.62,4-9.54,4A11.41,11.41,0,0,1,118.72,75.58Zm10.13-1.88c4,0,5.62-1.26,5.62-5,0-2.16-.9-4.14-2.92-4.41V64c5.94,0,8.82,4.23,8.82,7.64a12.91,12.91,0,0,1-.23,2.35H128.85Z"/><path class="cls-1" d="M151.89,81.57a2.3,2.3,0,0,0-2.52,2.25c0,1.3.9,3,4,3.28v.27c-6-.22-9.27-1.84-9.27-4.45,0-2.07,1.8-3.33,3.83-3.33A4.6,4.6,0,0,1,151.89,81.57Zm1.48-17.32c-1.66.31-3.28,1.17-3.24,3,.14,5.22,14.72,6.07,14.72,13.23,0,4.36-3.69,6.66-9.5,6.88V87.1c1.89-.31,4-1,4-3.32,0-4.69-14.76-6.4-14.76-13.23,0-4,3.73-6.35,8.77-6.57ZM164,68.61c0,1.4-1.08,2.79-3.33,2.79a3.85,3.85,0,0,1-3.82-2.16,2,2,0,0,0,2-2.11c0-1.35-1.71-2.66-3.51-2.88V64C160.44,64.25,164,66.09,164,68.61Z"/><path class="cls-1" d="M179.61,81.62c0-3.92,3.6-6.12,8.64-6.12h4.86v.27h-1.35c-3.24,0-4.77,2.11-4.77,4.9,0,2.47.72,4.37,2.83,4.37a5,5,0,0,0,3.29-1.58v.27A9.58,9.58,0,0,1,186,87.37C182.13,87.37,179.56,85.21,179.61,81.62Zm1.8-12.74c0-2.29,2.07-4.63,8.19-4.9v.27a3.28,3.28,0,0,0-2.88,3.28c0,1.62,1.12,2.61,2.92,2.75a5,5,0,0,1-4.32,2.16A3.61,3.61,0,0,1,181.41,68.88Zm13.05,13.41V68.52c0-2.2-.86-4-3.06-4.27V64c7.47.27,10.44,3.1,10.44,9V83.91c0,1.3.45,1.84,1.26,1.84s1.44-.67,2.16-2h.27c-.72,2.47-3.15,3.64-5.85,3.64C196.08,87.37,194.46,86.12,194.46,82.29Z"/><path class="cls-1" d="M224.38,83.46v.27a9.41,9.41,0,0,1-7.69,3.64c-4.05,0-6.93-1.84-6.93-6.34V66.27h-2.34l.49-.67h1.85V60.74a11.42,11.42,0,0,0,7.38-2.52V65.6h6.07l-.49.67h-5.58V81.16c0,2.25.85,4.59,3,4.59A6.58,6.58,0,0,0,224.38,83.46Z"/><path class="cls-1" d="M249.18,87.1v.27a16.93,16.93,0,0,1-8.73-2.2L239,87.37h-.36v-11H239A15.09,15.09,0,0,0,249.18,87.1Zm13.23-8.95c0,5.8-4.32,8.95-11.3,9.22V87.1c2.48-.44,4.91-1.89,4.91-4.59,0-7.87-17.19-8.59-17.19-17.72,0-5.4,4.36-8.51,10.35-8.91v.27c-2.07.36-4,1.66-4,4.14C245.22,68.16,262.41,69,262.41,78.15Zm-11.3-22v-.27a14.5,14.5,0,0,1,8.1,2.38l1.62-2.38h.36v10h-.36C259.39,61.14,255.52,57.23,251.11,56.15Z"/><path class="cls-1" d="M282.93,83.46v.27a9.41,9.41,0,0,1-7.7,3.64c-4.05,0-6.93-1.84-6.93-6.34V66.27H266l.5-.67h1.84V60.74a11.38,11.38,0,0,0,7.38-2.52V65.6h6.08l-.5.67h-5.58V81.16c0,2.25.86,4.59,3,4.59A6.62,6.62,0,0,0,282.93,83.46Z"/><path class="cls-1" d="M284.37,81.62c0-3.92,3.6-6.12,8.64-6.12h4.86v.27h-1.35c-3.24,0-4.77,2.11-4.77,4.9,0,2.47.72,4.37,2.83,4.37a5,5,0,0,0,3.29-1.58v.27a9.58,9.58,0,0,1-7.16,3.64C286.89,87.37,284.32,85.21,284.37,81.62Zm1.8-12.74c0-2.29,2.07-4.63,8.19-4.9v.27a3.28,3.28,0,0,0-2.88,3.28c0,1.62,1.12,2.61,2.92,2.75a5,5,0,0,1-4.32,2.16A3.61,3.61,0,0,1,286.17,68.88Zm13.05,13.41V68.52c0-2.2-.86-4-3.06-4.27V64c7.47.27,10.44,3.1,10.44,9V83.91c0,1.3.45,1.84,1.25,1.84s1.45-.67,2.17-2h.27c-.73,2.47-3.15,3.64-5.86,3.64C300.84,87.37,299.22,86.12,299.22,82.29Z"/><path class="cls-1" d="M322.48,84.36c0,1.13.68,2.3,3.37,2.3v.26H311.68v-.26c2.7,0,3.38-1.17,3.38-2.3v-16c0-1.62-.77-2.39-3.33-2.39v-.27A27.61,27.61,0,0,0,322.48,64Zm12.15-15.52A4.81,4.81,0,0,1,330,74a3.06,3.06,0,0,1-2.57-1,3.29,3.29,0,0,0,1.75-3.07,2.38,2.38,0,0,0-2.51-2.42A3.07,3.07,0,0,0,324,69.2v-.36c.85-2.88,3-4.86,5.84-4.86A4.57,4.57,0,0,1,334.63,68.84Z"/><path class="cls-1" d="M61.93,136.66c2.7,0,3.38-1.08,3.38-2.3V108.89c0-1.21-.68-2.29-3.38-2.29v-.27h14.4v.27c-2.7,0-3.37,1.08-3.37,2.29v25.47c0,1.22.67,2.3,3.37,2.3v.26H61.93Z"/><path class="cls-1" d="M79.35,136.66c2.7,0,3.37-1.17,3.37-2.3v-16c0-1.62-.76-2.39-3.33-2.39v-.27A27.66,27.66,0,0,0,90.15,114v20.38c0,1.13.67,2.3,3.37,2.3v.26H79.35Zm15.84,0c2.65,0,3.33-1.17,3.33-2.3v-14c0-2.52-1.31-3.82-3.56-3.82a4.79,4.79,0,0,0-3.42,1.39v-.27A9.19,9.19,0,0,1,99,114c4,0,6.93,1.89,6.93,6.34v14c0,1.13.68,2.3,3.38,2.3v.26H95.19Z"/><path class="cls-1" d="M119.58,131.57a2.3,2.3,0,0,0-2.52,2.25c0,1.3.9,3,4,3.28v.27c-6-.22-9.27-1.84-9.27-4.45,0-2.07,1.8-3.33,3.83-3.33A4.6,4.6,0,0,1,119.58,131.57Zm1.48-17.32c-1.66.31-3.28,1.17-3.24,3,.14,5.22,14.72,6.07,14.72,13.23,0,4.36-3.69,6.66-9.5,6.88v-.27c1.89-.31,4-1,4-3.32,0-4.69-14.76-6.4-14.76-13.23,0-4,3.73-6.35,8.77-6.57Zm10.62,4.36c0,1.4-1.08,2.79-3.33,2.79a3.85,3.85,0,0,1-3.82-2.16,2,2,0,0,0,2-2.11c0-1.35-1.71-2.66-3.51-2.88V114C128.13,114.25,131.68,116.09,131.68,118.61Z"/><path class="cls-1" d="M145.81,131c0,2.52.86,3.82,3.11,3.82a3.94,3.94,0,0,0,3.1-1.39v.27c-1,1.93-3.33,3.64-7,3.64-4.05,0-6.66-1.88-6.66-6.34V118.39c0-1.62-.77-2.39-3.33-2.39v-.27A27.61,27.61,0,0,0,145.81,114Zm15,2.88c0,1.3.4,1.84,1.21,1.84s1.44-.67,2.16-2h.27c-.72,2.47-3.15,3.64-6.12,3.64-3.15,0-4.95-1.79-4.95-4.41V118.39c0-1.62-.76-2.39-3.19-2.39v-.27A29.36,29.36,0,0,0,160.8,114Z"/><path class="cls-1" d="M177,134.36c0,1.13.68,2.3,3.38,2.3v.26H166.24v-.26c2.7,0,3.38-1.17,3.38-2.3v-16c0-1.62-.77-2.39-3.33-2.39v-.27A27.61,27.61,0,0,0,177,114Zm12.15-15.52a4.81,4.81,0,0,1-4.63,5.13,3.07,3.07,0,0,1-2.57-1,3.29,3.29,0,0,0,1.76-3.07,2.39,2.39,0,0,0-2.52-2.42,3.07,3.07,0,0,0-2.7,1.71v-.36c.85-2.88,3.06-4.86,5.85-4.86A4.57,4.57,0,0,1,189.19,118.84Z"/><path class="cls-1" d="M191.13,131.62c0-3.92,3.6-6.12,8.64-6.12h4.86v.27h-1.35c-3.24,0-4.77,2.11-4.77,4.9,0,2.47.72,4.37,2.83,4.37a5,5,0,0,0,3.29-1.58v.27a9.58,9.58,0,0,1-7.16,3.64C193.65,137.37,191.08,135.21,191.13,131.62Zm1.8-12.74c0-2.29,2.07-4.63,8.19-4.9v.27a3.28,3.28,0,0,0-2.88,3.28c0,1.62,1.12,2.61,2.92,2.75a5,5,0,0,1-4.32,2.16A3.61,3.61,0,0,1,192.93,118.88Zm13,13.41V118.52c0-2.2-.86-4-3.06-4.27V114c7.47.27,10.44,3.1,10.44,9v10.93c0,1.3.45,1.84,1.26,1.84s1.44-.67,2.16-2h.27c-.72,2.47-3.15,3.64-5.85,3.64C207.6,137.37,206,136.12,206,132.29Z"/><path class="cls-1" d="M218.44,136.66c2.7,0,3.38-1.17,3.38-2.3v-16c0-1.62-.77-2.39-3.33-2.39v-.27A27.61,27.61,0,0,0,229.24,114v20.38c0,1.13.68,2.3,3.38,2.3v.26H218.44Zm15.84,0c2.66,0,3.33-1.17,3.33-2.3v-14c0-2.52-1.3-3.82-3.55-3.82a4.79,4.79,0,0,0-3.42,1.39v-.27a9.18,9.18,0,0,1,7.47-3.64c4,0,6.93,1.89,6.93,6.34v14c0,1.13.67,2.3,3.37,2.3v.26H234.28Z"/><path class="cls-1" d="M262.36,114.25c-2.65.31-3.82,2.56-3.82,11.16,0,6.47,3.28,10,7.29,10a9.79,9.79,0,0,0,6.57-2.39v.28c-2.34,3-6.62,4-9.54,4-5.76,0-12-4.23-12-11.79A11.53,11.53,0,0,1,262.36,114Zm10,4.81a4.18,4.18,0,0,1-4.5,4.32,3.83,3.83,0,0,1-3.91-2.83,3.9,3.9,0,0,0,2.16-3.29c0-1-.27-2.65-1.94-3V114C270.06,114,272.35,116.5,272.35,119.06Z"/><path class="cls-1" d="M275.73,125.58a11.13,11.13,0,0,1,11-11.6v.27c-2.65.31-3.37,2.56-3.37,11.16,0,6.47,2.88,10,6.88,10a9.76,9.76,0,0,0,6.57-2.39v.28c-2.34,3-6.61,4-9.54,4A11.4,11.4,0,0,1,275.73,125.58Zm10.12-1.88c4,0,5.63-1.26,5.63-5,0-2.16-.9-4.14-2.93-4.41V114c5.94,0,8.82,4.23,8.82,7.64a13.87,13.87,0,0,1-.22,2.35h-11.3Z"/><path class="cls-1" d="M73.36,187.1v.27a17,17,0,0,1-8.73-2.2l-1.48,2.2h-.36v-11h.36A15.07,15.07,0,0,0,73.36,187.1Zm13.23-8.95c0,5.8-4.32,8.95-11.29,9.22v-.27c2.47-.44,4.9-1.89,4.9-4.59,0-7.87-17.18-8.59-17.18-17.72,0-5.4,4.36-8.51,10.34-8.91v.27c-2.07.36-4,1.66-4,4.14C69.4,168.16,86.59,169,86.59,178.15Zm-11.29-22v-.27a14.53,14.53,0,0,1,8.1,2.38L85,155.88h.36v10H85C83.58,161.14,79.71,157.23,75.3,156.15Z"/><path class="cls-1" d="M100.41,193.76c0,1.62.76,2.39,3.33,2.39v.27A29.61,29.61,0,0,0,93,198.17V168.34c0-1.62-.76-2.38-3.33-2.38v-.27a29.41,29.41,0,0,0,10.76-1.76Zm17.14-18.31c0,9.4-5,11.92-9.22,11.92a8.41,8.41,0,0,1-6.57-3.64v-.27a6.33,6.33,0,0,0,3.78,1.58c2.11,0,4.36-1.49,4.36-9.59s-2.11-9.18-4.36-9.18a5,5,0,0,0-3.78,1.67v-.36a8.38,8.38,0,0,1,6.57-3.6C112.69,164,117.55,166.5,117.55,175.45Z"/><path class="cls-1" d="M121.51,175.58a11.13,11.13,0,0,1,11-11.6v.27c-2.66.31-3.38,2.56-3.38,11.16,0,6.47,2.88,10,6.89,10a9.79,9.79,0,0,0,6.57-2.39v.28c-2.34,3-6.62,4-9.54,4A11.41,11.41,0,0,1,121.51,175.58Zm10.13-1.88c4,0,5.62-1.26,5.62-5,0-2.16-.9-4.14-2.92-4.41V164c5.94,0,8.82,4.23,8.82,7.64a12.91,12.91,0,0,1-.23,2.35H131.64Z"/><path class="cls-1" d="M158.37,164.25c-2.66.31-3.83,2.56-3.83,11.16,0,6.47,3.29,10,7.29,10a9.76,9.76,0,0,0,6.57-2.39v.28c-2.34,3-6.61,4-9.54,4-5.76,0-12-4.23-12-11.79A11.52,11.52,0,0,1,158.37,164Zm10,4.81a4.18,4.18,0,0,1-4.5,4.32,3.83,3.83,0,0,1-3.92-2.83,3.9,3.9,0,0,0,2.16-3.29c0-1-.27-2.65-1.93-3V164C166.06,164,168.36,166.5,168.36,169.06Z"/><path class="cls-1" d="M171,165.69a27.48,27.48,0,0,0,10.76-1.76v20.43c0,1.13.67,2.3,3.37,2.3v.26H171v-.26c2.7,0,3.37-1.17,3.37-2.3v-16c0-1.62-.76-2.38-3.33-2.38Zm2.3-8.46c0-2.34,1.89-3.92,4.59-3.92s4.59,1.58,4.59,3.92-1.89,4-4.59,4S173.31,159.61,173.31,157.23Z"/><path class="cls-1" d="M187.39,181.62c.05-3.92,3.6-6.12,8.64-6.12h4.86v.27h-1.35c-3.24,0-4.77,2.11-4.77,4.9,0,2.47.72,4.37,2.84,4.37a4.93,4.93,0,0,0,3.28-1.58v.27a9.56,9.56,0,0,1-7.15,3.64C189.91,187.37,187.35,185.21,187.39,181.62Zm1.8-12.74c0-2.29,2.07-4.63,8.19-4.9v.27a3.28,3.28,0,0,0-2.88,3.28c0,1.62,1.13,2.61,2.93,2.75a5.06,5.06,0,0,1-4.32,2.16A3.61,3.61,0,0,1,189.19,168.88Zm13.05,13.41V168.52c0-2.2-.85-4-3.06-4.27V164c7.47.27,10.44,3.1,10.44,9v10.93c0,1.3.45,1.84,1.26,1.84s1.44-.67,2.16-2h.27c-.72,2.47-3.15,3.64-5.85,3.64C203.86,187.37,202.24,186.12,202.24,182.29Z"/><path class="cls-1" d="M214.48,155.61a27.48,27.48,0,0,0,10.76-1.76v30.51c0,1.13.67,2.3,3.37,2.3v.26H214.44v-.26c2.7,0,3.37-1.17,3.37-2.3v-26.1c0-1.62-.76-2.38-3.33-2.38Z"/><path class="cls-1" d="M230.59,165.69a27.48,27.48,0,0,0,10.76-1.76v20.43c0,1.13.67,2.3,3.37,2.3v.26H230.55v-.26c2.7,0,3.37-1.17,3.37-2.3v-16c0-1.62-.76-2.38-3.33-2.38Zm2.3-8.46c0-2.34,1.89-3.92,4.59-3.92s4.59,1.58,4.59,3.92-1.89,4-4.59,4S232.89,159.61,232.89,157.23Z"/><path class="cls-1" d="M255.25,181.57a2.31,2.31,0,0,0-2.52,2.25c0,1.3.9,3,4,3.28v.27c-6-.22-9.27-1.84-9.27-4.45,0-2.07,1.8-3.33,3.82-3.33A4.59,4.59,0,0,1,255.25,181.57Zm1.49-17.32c-1.67.31-3.29,1.17-3.24,3,.13,5.22,14.71,6.07,14.71,13.23,0,4.36-3.69,6.66-9.49,6.88v-.27c1.89-.31,4-1,4-3.32,0-4.69-14.76-6.4-14.76-13.23,0-4,3.74-6.35,8.78-6.57Zm10.62,4.36c0,1.4-1.08,2.79-3.33,2.79a3.87,3.87,0,0,1-3.83-2.16,2,2,0,0,0,2-2.11c0-1.35-1.71-2.66-3.51-2.88V164C263.8,164.25,267.36,166.09,267.36,168.61Z"/><path class="cls-1" d="M288.64,183.46v.27a9.41,9.41,0,0,1-7.69,3.64c-4.05,0-6.93-1.84-6.93-6.34V166.27h-2.34l.49-.67H274v-4.86a11.42,11.42,0,0,0,7.38-2.52v7.38h6.07l-.49.67H281.4v14.89c0,2.25.85,4.59,3,4.59A6.58,6.58,0,0,0,288.64,183.46Z"/><path class="cls-1" d="M298.36,181.57a2.31,2.31,0,0,0-2.52,2.25c0,1.3.9,3,4,3.28v.27c-6-.22-9.27-1.84-9.27-4.45,0-2.07,1.8-3.33,3.82-3.33A4.6,4.6,0,0,1,298.36,181.57Zm1.49-17.32c-1.67.31-3.29,1.17-3.25,3,.14,5.22,14.72,6.07,14.72,13.23,0,4.36-3.69,6.66-9.49,6.88v-.27c1.89-.31,4-1,4-3.32,0-4.69-14.76-6.4-14.76-13.23,0-4,3.74-6.35,8.78-6.57Zm10.61,4.36c0,1.4-1.08,2.79-3.33,2.79a3.85,3.85,0,0,1-3.82-2.16,2,2,0,0,0,2-2.11c0-1.35-1.71-2.66-3.5-2.88V164C306.91,164.25,310.46,166.09,310.46,168.61Z"/><rect class="cls-2" width="970" height="250"/></svg>