<?xml version="1.0" encoding="utf-8"?>
<!-- Generator: Adobe Illustrator 24.0.3, SVG Export Plug-In . SVG Version: 6.00 Build 0)  -->
<svg version="1.1" id="Layer_1" xmlns="http://www.w3.org/2000/svg" xmlns:xlink="http://www.w3.org/1999/xlink" x="0px" y="0px"
	 viewBox="0 0 970 250" style="enable-background:new 0 0 970 250;" xml:space="preserve">
<style type="text/css">
	.st0{enable-background:new    ;}
	.st1{fill:#FFFFFF;}
	.st2{fill:none;}
</style>
<title>Artboard 1 copy</title>
<g class="st0">
	<path class="st1" d="M49.4,55c0-1.4-0.8-2.6-3.9-2.6v-0.3h16.5v0.3c-3.1,0-3.9,1.2-3.9,2.6v22.5c0,4.9,1.4,9.4,4.9,9.8v0.3
		c-10.8,0-13.7-5.2-13.7-10.3V55z M76.5,77.4c0,5.1-3,10.3-10.8,10.3v-0.3c6.6-0.2,9.8-4.9,9.8-9.8V58.9c0-3.3-1.8-6.4-5.2-6.4v-0.3
		h11.3v0.3c-3.4,0-5.2,3.2-5.2,6.4V77.4z"/>
</g>
<g class="st0">
	<path class="st1" d="M82.6,86.8c3.1,0,3.9-1.3,3.9-2.6V65.9c0-1.9-0.9-2.7-3.8-2.7v-0.3c4.8,0,8.7-0.5,12.3-2v23.3
		c0,1.3,0.8,2.6,3.9,2.6v0.3H82.6V86.8z M100.7,86.8c3,0,3.8-1.3,3.8-2.6V68.1c0-2.9-1.5-4.4-4.1-4.4c-1.4,0-2.7,0.5-3.9,1.6V65
		c1.4-2.2,4.7-4.2,8.6-4.2c4.6,0,7.9,2.2,7.9,7.3v16.1c0,1.3,0.8,2.6,3.9,2.6v0.3h-16.2V86.8z"/>
	<path class="st1" d="M130.2,80.6c0,4.9-3.3,7-8.5,7V54.3c0-1.9-0.9-2.7-3.9-2.7v-0.3c4.8,0,8-0.5,12.4-2V80.6z M149.8,74
		c0,10.8-5.7,13.7-10.6,13.7c-2.9,0-6.2-2-7.5-4.2v-0.3c1.3,1,2.6,1.8,4.3,1.8c2.4,0,5-1.7,5-11c0-9.3-2.5-10.5-5-10.5
		c-1.6,0-3.1,0.6-4.3,1.9V65c1.3-2.2,4.5-4.1,7.5-4.1C144.2,60.9,149.8,63.8,149.8,74z"/>
	<path class="st1" d="M154.4,74.2c0-8.7,6.6-13.2,12.6-13.3v0.3c-3,0.4-3.9,2.9-3.9,12.8c0,7.4,3.3,11.5,7.9,11.5
		c2.9,0,5.1-0.8,7.5-2.7V83c-2.7,3.4-7.6,4.6-10.9,4.6C161,87.7,154.4,82.8,154.4,74.2z M166,72c4.5,0,6.4-1.4,6.4-5.8
		c0-2.5-1-4.7-3.3-5v-0.3c6.8,0,10.1,4.8,10.1,8.8c0,0.8-0.1,1.9-0.3,2.7H166V72z"/>
	<path class="st1" d="M182.9,81.1c0.1-4.5,4.1-7,9.9-7h5.6v0.3h-1.5c-3.7,0-5.5,2.4-5.5,5.6c0,2.8,0.8,5,3.2,5
		c1.4,0,2.6-0.8,3.8-1.8v0.3c-1.7,2-4.4,4.2-8.2,4.2C185.7,87.7,182.8,85.2,182.9,81.1z M184.9,66.5c0-2.6,2.4-5.3,9.4-5.6v0.3
		c-2.1,0.3-3.3,2-3.3,3.8c0,1.9,1.3,3,3.3,3.1c-0.8,1.4-2.9,2.5-4.9,2.5C186.6,70.6,184.9,68.6,184.9,66.5z M199.9,81.8V66.1
		c0-2.5-1-4.5-3.5-4.9v-0.3c8.6,0.3,12,3.6,12,10.3v12.5c0,1.5,0.5,2.1,1.4,2.1c0.8,0,1.6-0.8,2.5-2.3h0.3c-0.8,2.8-3.6,4.2-6.7,4.2
		C201.7,87.7,199.9,86.2,199.9,81.8z"/>
	<path class="st1" d="M234.1,83.2v0.3c-1.6,2.4-4.9,4.2-8.8,4.2c-4.6,0-7.9-2.1-7.9-7.3V63.5h-2.7l0.6-0.8h2.1v-5.6
		c3.1,0,6.2-1,8.4-2.9v8.4h7l-0.6,0.8h-6.4v17.1c0,2.6,1,5.3,3.4,5.3C230.7,85.8,232.4,84.9,234.1,83.2z"/>
	<path class="st1" d="M235.8,81.1c0.1-4.5,4.1-7,9.9-7h5.6v0.3h-1.5c-3.7,0-5.5,2.4-5.5,5.6c0,2.8,0.8,5,3.2,5
		c1.4,0,2.6-0.8,3.8-1.8v0.3c-1.7,2-4.4,4.2-8.2,4.2C238.6,87.7,235.7,85.2,235.8,81.1z M237.8,66.5c0-2.6,2.4-5.3,9.4-5.6v0.3
		c-2.1,0.3-3.3,2-3.3,3.8c0,1.9,1.3,3,3.3,3.1c-0.8,1.4-2.9,2.5-4.9,2.5C239.5,70.6,237.8,68.6,237.8,66.5z M252.8,81.8V66.1
		c0-2.5-1-4.5-3.5-4.9v-0.3c8.6,0.3,12,3.6,12,10.3v12.5c0,1.5,0.5,2.1,1.4,2.1c0.8,0,1.6-0.8,2.5-2.3h0.3c-0.8,2.8-3.6,4.2-6.7,4.2
		C254.6,87.7,252.8,86.2,252.8,81.8z"/>
	<path class="st1" d="M278.5,80.6c0,4.9-3.3,7-8.5,7V54.3c0-1.9-0.9-2.7-3.9-2.7v-0.3c4.8,0,8-0.5,12.4-2V80.6z M298.1,74
		c0,10.8-5.7,13.7-10.6,13.7c-2.9,0-6.2-2-7.5-4.2v-0.3c1.3,1,2.6,1.8,4.3,1.8c2.4,0,5-1.7,5-11c0-9.3-2.5-10.5-5-10.5
		c-1.6,0-3.1,0.6-4.3,1.9V65c1.3-2.2,4.5-4.1,7.5-4.1C292.5,60.9,298.1,63.8,298.1,74z"/>
	<path class="st1" d="M301.5,51.3c4.8,0,8.7-0.5,12.3-2v34.9c0,1.3,0.8,2.6,3.9,2.6v0.3h-16.2v-0.3c3.1,0,3.9-1.3,3.9-2.6V54.3
		c0-1.9-0.9-2.7-3.8-2.7V51.3z"/>
	<path class="st1" d="M320.7,74.2c0-8.7,6.6-13.2,12.6-13.3v0.3c-3,0.4-3.9,2.9-3.9,12.8c0,7.4,3.3,11.5,7.9,11.5
		c2.9,0,5.1-0.8,7.5-2.7V83c-2.7,3.4-7.6,4.6-10.9,4.6C327.4,87.7,320.7,82.8,320.7,74.2z M332.3,72c4.5,0,6.4-1.4,6.4-5.8
		c0-2.5-1-4.7-3.3-5v-0.3c6.8,0,10.1,4.8,10.1,8.8c0,0.8-0.1,1.9-0.3,2.7h-12.9V72z"/>
</g>
<g class="st0">
	<path class="st1" d="M57.7,135.7c0,1.3,0.8,2.6,3.9,2.6v0.3H45.4v-0.3c3.1,0,3.9-1.3,3.9-2.6v-18.3c0-1.9-0.9-2.7-3.8-2.7v-0.3
		c4.8,0,8.7-0.5,12.3-2V135.7z M74.8,119.6v16.1c0,1.3,0.7,2.6,3.8,2.6v0.3H62.5v-0.3c3,0,3.9-1.3,3.9-2.6v-16.1
		c0-2.9-1.1-4.4-3.6-4.4c-1.4,0-2.7,0.7-3.4,1.5v-0.3c1.2-2.2,3.8-4.1,7.5-4.1C71.8,112.4,74.8,114.5,74.8,119.6z M91.9,119.6v16.1
		c0,1.3,0.8,2.6,3.9,2.6v0.3H79.5v-0.3c3,0,3.9-1.3,3.9-2.6v-16.1c0-2.9-1.1-4.4-3.6-4.4c-1.4,0-2.7,0.7-3.4,1.5v-0.3
		c1.2-2.2,3.8-4.1,7.5-4.1C88.8,112.4,91.9,114.5,91.9,119.6z"/>
	<path class="st1" d="M111.4,112.7c-3,0.4-4.1,2.9-4.1,13c0,9.7,1,12.9,4.1,13.2v0.3c-5.9,0-12.8-4.8-12.8-13.5
		c0-8.7,6.8-13.2,12.8-13.3V112.7z M126.2,125.7c0,8.6-6.9,13.5-12.8,13.5v-0.3c3-0.3,4-3.6,4-13.2c0-10.1-1-12.7-4-13v-0.3
		C119.4,112.4,126.2,117,126.2,125.7z"/>
</g>
<g class="st0">
	<path class="st1" d="M149.6,134.7v0.3c-1.6,2.4-4.9,4.2-8.8,4.2c-4.6,0-7.9-2.1-7.9-7.3V115h-2.7l0.6-0.8h2.1v-5.6
		c3.1,0,6.2-1,8.4-2.9v8.4h7l-0.6,0.8h-6.4v17.1c0,2.6,1,5.3,3.4,5.3C146.1,137.3,147.9,136.4,149.6,134.7z"/>
</g>
<g class="st0">
	<path class="st1" d="M164.3,112.7c-3,0.4-4.1,2.9-4.1,13c0,9.7,1,12.9,4.1,13.2v0.3c-5.9,0-12.8-4.8-12.8-13.5
		c0-8.7,6.8-13.2,12.8-13.3V112.7z M179.2,125.7c0,8.6-6.9,13.5-12.8,13.5v-0.3c3-0.3,4-3.6,4-13.2c0-10.1-1-12.7-4-13v-0.3
		C172.4,112.4,179.2,117,179.2,125.7z"/>
</g>
<g class="st0">
	<path class="st1" d="M194.9,135.7c0,1.3,0.8,2.6,3.9,2.6v0.3h-16.2v-0.3c3.1,0,3.9-1.3,3.9-2.6v-18.3c0-1.9-0.9-2.7-3.8-2.7v-0.3
		c4.8,0,8.7-0.5,12.3-2V135.7z M208.8,117.9c0,3.6-2.5,5.9-5.3,5.9c-1.2,0-2.3-0.3-2.9-1.1c1-0.5,2-1.6,2-3.5c0-1.5-1.1-2.8-2.9-2.8
		c-1.3,0-2.4,0.8-3.1,2v-0.4c1-3.3,3.5-5.6,6.7-5.6C206.9,112.4,208.8,114.9,208.8,117.9z"/>
</g>
<g class="st0">
	<path class="st1" d="M224.8,112.7c-3,0.4-4.4,2.9-4.4,12.8c0,7.4,3.8,11.5,8.3,11.5c2.9,0,5.1-0.8,7.5-2.7v0.3
		c-2.7,3.4-7.6,4.6-10.9,4.6c-6.6,0-13.8-4.8-13.8-13.5c0-8.7,7.2-13.2,13.2-13.3V112.7z M236.2,118.2c0,2.7-1.9,4.9-5.2,4.9
		c-2.5,0-4.2-1.6-4.5-3.2c1.4-0.6,2.5-2.4,2.5-3.8c0-1.2-0.3-3-2.2-3.4v-0.4C233.6,112.4,236.2,115.3,236.2,118.2z"/>
</g>
<g class="st0">
	<path class="st1" d="M240.5,115c-0.5-1.1-1.2-1.8-2.8-1.8v-0.3h14.4v0.3c-1.8,0-2.5,1.2-1.6,3l6.7,14.1l-4.4,8.3h-0.3L240.5,115z
		 M238.2,146.9c0-2.2,1.8-4.1,4.5-4.8c-0.2,0.5-0.2,0.9-0.2,1.3c-0.1,2,1,3.5,3,3.5c1.8,0,3.2-1.9,5.2-5.2h0.4
		c-2.8,5.3-4.8,9.9-8.4,9.9C239.9,151.5,238.2,149.6,238.2,146.9z M259.4,125.3c0.9-1.6,1.4-3.9,1.4-6.6c0-2.8-1.6-5.4-5.3-5.4v-0.3
		h12.8v0.3c-1.7,0-2.4,0.7-3.3,2.4l-5.4,10.1L259.4,125.3z"/>
</g>
<g class="st0">
	<path class="st1" d="M281.8,112.7c-3,0.4-4.4,2.9-4.4,12.8c0,7.4,3.8,11.5,8.3,11.5c2.9,0,5.1-0.8,7.5-2.7v0.3
		c-2.7,3.4-7.6,4.6-10.9,4.6c-6.6,0-13.8-4.8-13.8-13.5c0-8.7,7.2-13.2,13.2-13.3V112.7z M293.2,118.2c0,2.7-1.9,4.9-5.2,4.9
		c-2.5,0-4.2-1.6-4.5-3.2c1.4-0.6,2.5-2.4,2.5-3.8c0-1.2-0.3-3-2.2-3.4v-0.4C290.6,112.4,293.2,115.3,293.2,118.2z"/>
	<path class="st1" d="M295.9,102.8c4.8,0,8.7-0.5,12.3-2v34.9c0,1.3,0.8,2.6,3.9,2.6v0.3h-16.2v-0.3c3.1,0,3.9-1.3,3.9-2.6v-29.9
		c0-1.9-0.9-2.7-3.8-2.7V102.8z"/>
	<path class="st1" d="M315.2,125.7c0-8.7,6.6-13.2,12.6-13.3v0.3c-3,0.4-3.9,2.9-3.9,12.8c0,7.4,3.3,11.5,7.9,11.5
		c2.9,0,5.1-0.8,7.5-2.7v0.3c-2.7,3.4-7.6,4.6-10.9,4.6C321.8,139.2,315.2,134.3,315.2,125.7z M326.8,123.5c4.5,0,6.4-1.4,6.4-5.8
		c0-2.5-1-4.7-3.3-5v-0.3c6.8,0,10.1,4.8,10.1,8.8c0,0.8-0.1,1.9-0.3,2.7h-12.9V123.5z"/>
</g>
<g class="st0">
	<path class="st1" d="M45.5,165.8c4.8,0,8.7-0.5,12.3-2v23.4c0,1.3,0.8,2.6,3.9,2.6v0.3H45.4v-0.3c3.1,0,3.9-1.3,3.9-2.6v-18.3
		c0-1.9-0.9-2.7-3.8-2.7V165.8z M48.1,156.2c0-2.7,2.2-4.5,5.3-4.5s5.3,1.8,5.3,4.5c0,2.7-2.2,4.5-5.3,4.5S48.1,158.9,48.1,156.2z"
		/>
	<path class="st1" d="M63.8,189.9c3.1,0,3.9-1.3,3.9-2.6v-18.3c0-1.9-0.9-2.7-3.8-2.7v-0.3c4.8,0,8.7-0.5,12.3-2v23.3
		c0,1.3,0.8,2.6,3.9,2.6v0.3H63.8V189.9z M81.9,189.9c3,0,3.8-1.3,3.8-2.6v-16.1c0-2.9-1.5-4.4-4.1-4.4c-1.4,0-2.7,0.5-3.9,1.6v-0.3
		c1.4-2.2,4.7-4.2,8.6-4.2c4.6,0,7.9,2.2,7.9,7.3v16.1c0,1.3,0.8,2.6,3.9,2.6v0.3H81.9V189.9z"/>
	<path class="st1" d="M109.9,184c-1.7,0.1-2.9,1-2.9,2.6c0,1.5,1,3.4,4.6,3.8v0.3c-6.9-0.3-10.6-2.1-10.6-5.1c0-2.4,2.1-3.8,4.4-3.8
		C107.4,181.8,109.1,182.7,109.9,184z M111.6,164.2c-1.9,0.4-3.8,1.3-3.7,3.5c0.2,6,16.8,7,16.8,15.1c0,5-4.2,7.6-10.9,7.9v-0.3
		c2.2-0.4,4.6-1.1,4.6-3.8c0-5.4-16.9-7.3-16.9-15.1c0-4.5,4.3-7.3,10-7.5V164.2z M123.7,169.2c0,1.6-1.2,3.2-3.8,3.2
		c-2.2,0-3.7-0.9-4.4-2.5c1.5-0.1,2.4-1.2,2.3-2.4c0-1.5-2-3-4-3.3v-0.3C119.7,164.2,123.7,166.3,123.7,169.2z"/>
	<path class="st1" d="M139.9,183.4c0,2.9,1,4.4,3.6,4.4c1.3,0,2.4-0.4,3.6-1.6v0.3c-1.2,2.2-3.8,4.2-8,4.2c-4.6,0-7.6-2.2-7.6-7.3
		v-14.5c0-1.9-0.9-2.7-3.8-2.7v-0.3c4.8,0,8.7-0.5,12.3-2V183.4z M157.1,186.7c0,1.5,0.5,2.1,1.4,2.1c0.8,0,1.6-0.8,2.5-2.3h0.3
		c-0.8,2.8-3.6,4.2-7,4.2c-3.6,0-5.7-2.1-5.7-5v-16.7c0-1.9-0.9-2.7-3.7-2.7v-0.3c4.6,0,7.8-0.5,12.2-2V186.7z"/>
</g>
<g class="st0">
	<path class="st1" d="M175.6,187.2c0,1.3,0.8,2.6,3.9,2.6v0.3h-16.2v-0.3c3.1,0,3.9-1.3,3.9-2.6v-18.3c0-1.9-0.9-2.7-3.8-2.7v-0.3
		c4.8,0,8.7-0.5,12.3-2V187.2z M189.6,169.5c0,3.6-2.5,5.9-5.3,5.9c-1.2,0-2.3-0.3-2.9-1.1c1-0.5,2-1.6,2-3.5c0-1.5-1.1-2.8-2.9-2.8
		c-1.3,0-2.4,0.8-3.1,2v-0.4c1-3.3,3.5-5.6,6.7-5.6C187.6,163.9,189.6,166.4,189.6,169.5z"/>
</g>
<g class="st0">
	<path class="st1" d="M191.8,184.1c0.1-4.5,4.1-7,9.9-7h5.6v0.3h-1.5c-3.7,0-5.5,2.4-5.5,5.6c0,2.8,0.8,5,3.2,5
		c1.4,0,2.6-0.8,3.8-1.8v0.3c-1.7,2-4.4,4.2-8.2,4.2C194.7,190.7,191.7,188.2,191.8,184.1z M193.8,169.5c0-2.6,2.4-5.3,9.4-5.6v0.3
		c-2.1,0.3-3.3,2-3.3,3.8c0,1.9,1.3,3,3.3,3.1c-0.8,1.4-2.9,2.5-4.9,2.5C195.5,173.6,193.8,171.7,193.8,169.5z M208.8,184.9v-15.8
		c0-2.5-1-4.5-3.5-4.9v-0.3c8.6,0.3,12,3.6,12,10.3v12.5c0,1.5,0.5,2.1,1.4,2.1c0.8,0,1.6-0.8,2.5-2.3h0.3c-0.8,2.8-3.6,4.2-6.7,4.2
		C210.6,190.7,208.8,189.2,208.8,184.9z"/>
	<path class="st1" d="M223,189.9c3.1,0,3.9-1.3,3.9-2.6v-18.3c0-1.9-0.9-2.7-3.8-2.7v-0.3c4.8,0,8.7-0.5,12.3-2v23.3
		c0,1.3,0.8,2.6,3.9,2.6v0.3H223V189.9z M241.2,189.9c3,0,3.8-1.3,3.8-2.6v-16.1c0-2.9-1.5-4.4-4.1-4.4c-1.4,0-2.7,0.5-3.9,1.6v-0.3
		c1.4-2.2,4.7-4.2,8.6-4.2c4.6,0,7.9,2.2,7.9,7.3v16.1c0,1.3,0.8,2.6,3.9,2.6v0.3h-16.2V189.9z"/>
	<path class="st1" d="M273.3,164.2c-3,0.4-4.4,2.9-4.4,12.8c0,7.4,3.8,11.5,8.3,11.5c2.9,0,5.1-0.8,7.5-2.7v0.3
		c-2.7,3.4-7.6,4.6-10.9,4.6c-6.6,0-13.8-4.8-13.8-13.5s7.2-13.2,13.2-13.3V164.2z M284.7,169.7c0,2.7-1.9,4.9-5.2,4.9
		c-2.5,0-4.2-1.6-4.5-3.2c1.4-0.6,2.5-2.4,2.5-3.8c0-1.2-0.3-3-2.2-3.4v-0.4C282.1,163.9,284.7,166.8,284.7,169.7z"/>
	<path class="st1" d="M288.6,177.2c0-8.7,6.6-13.2,12.6-13.3v0.3c-3,0.4-3.9,2.9-3.9,12.8c0,7.4,3.3,11.5,7.9,11.5
		c2.9,0,5.1-0.8,7.5-2.7v0.3c-2.7,3.4-7.6,4.6-10.9,4.6C295.3,190.7,288.6,185.8,288.6,177.2z M300.2,175c4.5,0,6.4-1.4,6.4-5.8
		c0-2.5-1-4.7-3.3-5v-0.3c6.8,0,10.1,4.8,10.1,8.8c0,0.8-0.1,1.9-0.3,2.7h-12.9V175z"/>
</g>
<rect y="0" class="st2" width="970" height="250"/>
</svg>
