<svg id="Layer_1" data-name="Layer 1" xmlns="http://www.w3.org/2000/svg" viewBox="0 0 970 250"><defs><style>.cls-1{fill:#fff;}.cls-2{fill:none;}</style></defs><title>Artboard 1 copy</title><path class="cls-1" d="M64.64,58.89c0-1.21-.68-2.29-3.38-2.29v-.27h14.4v.27c-2.7,0-3.38,1.08-3.38,2.29V78.51c0,4.32,1.22,8.23,4.28,8.59v.28c-9.41,0-11.92-4.55-11.92-9ZM88.26,78.38c0,4.45-2.66,9-9.45,9V87.1c5.8-.13,8.55-4.27,8.55-8.59V62.22c0-2.88-1.53-5.62-4.5-5.62v-.27h9.9v.27c-3,0-4.5,2.79-4.5,5.62Z"/><path class="cls-1" d="M93.57,86.65c2.7,0,3.37-1.17,3.37-2.29v-16c0-1.62-.76-2.39-3.32-2.39v-.27A27.46,27.46,0,0,0,104.37,64V84.36c0,1.12.67,2.29,3.37,2.29v.27H93.57Zm15.84,0c2.65,0,3.33-1.17,3.33-2.29v-14c0-2.52-1.31-3.82-3.56-3.82a4.79,4.79,0,0,0-3.42,1.39v-.27A9.2,9.2,0,0,1,113.23,64c4,0,6.93,1.9,6.93,6.35v14c0,1.12.68,2.29,3.38,2.29v.27H109.41Z"/><path class="cls-1" d="M135.19,81.25c0,4.28-2.92,6.13-7.42,6.13V58.26c0-1.62-.81-2.38-3.38-2.38v-.27a29.62,29.62,0,0,0,10.8-1.76Zm17.15-5.8c0,9.4-5,11.93-9.27,11.93a8.36,8.36,0,0,1-6.53-3.65v-.27A6.25,6.25,0,0,0,140.28,85c2.11,0,4.41-1.49,4.41-9.59s-2.16-9.18-4.41-9.18a5,5,0,0,0-3.74,1.67v-.37a8.35,8.35,0,0,1,6.53-3.6C147.43,64,152.34,66.5,152.34,75.45Z"/><path class="cls-1" d="M156.3,75.58a11.15,11.15,0,0,1,11-11.61v.28c-2.65.31-3.37,2.56-3.37,11.15,0,6.49,2.88,10,6.88,10a9.8,9.8,0,0,0,6.57-2.38v.26c-2.34,3-6.61,4.06-9.54,4.06A11.41,11.41,0,0,1,156.3,75.58Zm10.12-1.88c4,0,5.63-1.26,5.63-5,0-2.15-.9-4.13-2.93-4.4V64c5.94,0,8.82,4.24,8.82,7.66a13.85,13.85,0,0,1-.22,2.34h-11.3Z"/><path class="cls-1" d="M181.18,81.62c0-3.92,3.6-6.13,8.64-6.13h4.86v.28h-1.35c-3.24,0-4.77,2.11-4.77,4.9,0,2.47.72,4.37,2.84,4.37a4.93,4.93,0,0,0,3.28-1.58v.27a9.56,9.56,0,0,1-7.15,3.65C183.7,87.38,181.14,85.22,181.18,81.62ZM183,68.88c0-2.29,2.07-4.63,8.19-4.91v.28a3.28,3.28,0,0,0-2.88,3.28c0,1.62,1.13,2.61,2.93,2.75a5.06,5.06,0,0,1-4.32,2.16A3.61,3.61,0,0,1,183,68.88ZM196,82.29V68.52c0-2.21-.85-4-3.06-4.27V64c7.47.28,10.44,3.11,10.44,9V83.91c0,1.31.45,1.84,1.26,1.84s1.44-.67,2.16-2h.27c-.72,2.48-3.15,3.65-5.85,3.65C197.65,87.38,196,86.12,196,82.29Z"/><path class="cls-1" d="M226,83.46v.27a9.42,9.42,0,0,1-7.7,3.65c-4,0-6.93-1.85-6.93-6.35V66.27H209l.5-.67h1.84V60.74a11.38,11.38,0,0,0,7.38-2.52V65.6h6.08l-.5.67h-5.58V81.16c0,2.25.86,4.59,3,4.59A6.62,6.62,0,0,0,226,83.46Z"/><path class="cls-1" d="M227.4,81.62c0-3.92,3.6-6.13,8.64-6.13h4.86v.28h-1.35c-3.24,0-4.77,2.11-4.77,4.9,0,2.47.72,4.37,2.83,4.37a5,5,0,0,0,3.29-1.58v.27a9.59,9.59,0,0,1-7.16,3.65C229.92,87.38,227.35,85.22,227.4,81.62Zm1.8-12.74c0-2.29,2.07-4.63,8.19-4.91v.28a3.28,3.28,0,0,0-2.88,3.28c0,1.62,1.12,2.61,2.92,2.75a5,5,0,0,1-4.32,2.16A3.61,3.61,0,0,1,229.2,68.88Zm13.05,13.41V68.52c0-2.21-.86-4-3.06-4.27V64c7.47.28,10.44,3.11,10.44,9V83.91c0,1.31.45,1.84,1.26,1.84s1.44-.67,2.16-2h.27c-.72,2.48-3.15,3.65-5.85,3.65C243.87,87.38,242.25,86.12,242.25,82.29Z"/><path class="cls-1" d="M264.75,81.25c0,4.28-2.93,6.13-7.43,6.13V58.26c0-1.62-.81-2.38-3.37-2.38v-.27a29.66,29.66,0,0,0,10.8-1.76Zm17.14-5.8c0,9.4-5,11.93-9.27,11.93a8.34,8.34,0,0,1-6.52-3.65v-.27A6.2,6.2,0,0,0,269.83,85c2.12,0,4.41-1.49,4.41-9.59s-2.16-9.18-4.41-9.18a4.94,4.94,0,0,0-3.73,1.67v-.37a8.33,8.33,0,0,1,6.52-3.6C277,64,281.89,66.5,281.89,75.45Z"/><path class="cls-1" d="M284.82,55.61a27.42,27.42,0,0,0,10.75-1.76V84.36c0,1.12.68,2.29,3.38,2.29v.27H284.77v-.27c2.7,0,3.38-1.17,3.38-2.29V58.26c0-1.62-.77-2.38-3.33-2.38Z"/><path class="cls-1" d="M301.65,75.58a11.15,11.15,0,0,1,11-11.61v.28c-2.65.31-3.37,2.56-3.37,11.15,0,6.49,2.88,10,6.88,10a9.8,9.8,0,0,0,6.57-2.38v.26c-2.34,3-6.61,4.06-9.54,4.06A11.41,11.41,0,0,1,301.65,75.58Zm10.12-1.88c4,0,5.63-1.26,5.63-5,0-2.15-.9-4.13-2.93-4.4V64c5.94,0,8.82,4.24,8.82,7.66a13.85,13.85,0,0,1-.22,2.34h-11.3Z"/><path class="cls-1" d="M71.88,134.36c0,1.12.67,2.29,3.37,2.29v.27H61.08v-.27c2.7,0,3.38-1.17,3.38-2.29v-16c0-1.62-.77-2.39-3.33-2.39v-.27A27.46,27.46,0,0,0,71.88,114Zm14.94-14v14c0,1.12.63,2.29,3.33,2.29v.27H76v-.27c2.65,0,3.37-1.17,3.37-2.29v-14c0-2.52-1-3.82-3.15-3.82a4,4,0,0,0-3,1.35v-.28a7.31,7.31,0,0,1,6.57-3.6C84.12,114,86.82,115.87,86.82,120.32Zm14.89,0v14c0,1.12.68,2.29,3.38,2.29v.27H90.91v-.27c2.66,0,3.38-1.17,3.38-2.29v-14c0-2.52-1-3.82-3.15-3.82a3.94,3.94,0,0,0-3,1.35v-.28a7.29,7.29,0,0,1,6.57-3.6C99,114,101.71,115.87,101.71,120.32Z"/><path class="cls-1" d="M118.72,114.25c-2.65.31-3.55,2.56-3.55,11.33,0,8.47.9,11.25,3.55,11.52v.28a11.48,11.48,0,0,1-11.2-11.8A11.29,11.29,0,0,1,118.72,114Zm13,11.33a11.47,11.47,0,0,1-11.16,11.8v-.28c2.66-.27,3.51-3.1,3.51-11.52,0-8.81-.9-11.06-3.51-11.33V114A11.22,11.22,0,0,1,131.68,125.58Z"/><path class="cls-1" d="M152.11,133.46v.27a9.41,9.41,0,0,1-7.69,3.65c-4,0-6.93-1.85-6.93-6.35V116.27h-2.34l.49-.67h1.85v-4.86a11.42,11.42,0,0,0,7.38-2.52v7.38h6.07l-.49.67h-5.58v14.89c0,2.25.85,4.59,3,4.59A6.58,6.58,0,0,0,152.11,133.46Z"/><path class="cls-1" d="M165,114.25c-2.65.31-3.55,2.56-3.55,11.33,0,8.47.9,11.25,3.55,11.52v.28a11.48,11.48,0,0,1-11.2-11.8A11.29,11.29,0,0,1,165,114Zm13,11.33a11.47,11.47,0,0,1-11.16,11.8v-.28c2.66-.27,3.51-3.1,3.51-11.52,0-8.81-.9-11.06-3.51-11.33V114A11.22,11.22,0,0,1,177.94,125.58Z"/><path class="cls-1" d="M191.71,134.36c0,1.12.68,2.29,3.38,2.29v.27H180.91v-.27c2.7,0,3.38-1.17,3.38-2.29v-16c0-1.62-.77-2.39-3.33-2.39v-.27A27.42,27.42,0,0,0,191.71,114Zm12.15-15.52a4.81,4.81,0,0,1-4.63,5.13,3,3,0,0,1-2.57-1,3.26,3.26,0,0,0,1.76-3.06,2.39,2.39,0,0,0-2.52-2.43,3.08,3.08,0,0,0-2.7,1.72v-.36c.85-2.88,3.06-4.87,5.85-4.87A4.57,4.57,0,0,1,203.86,118.84Z"/><path class="cls-1" d="M217.81,114.25c-2.65.31-3.82,2.56-3.82,11.15,0,6.49,3.28,10,7.29,10a9.83,9.83,0,0,0,6.57-2.38v.26c-2.34,3-6.62,4.06-9.54,4.06-5.76,0-12-4.24-12-11.8A11.54,11.54,0,0,1,217.81,114Zm10,4.81a4.18,4.18,0,0,1-4.5,4.32,3.83,3.83,0,0,1-3.91-2.83,3.9,3.9,0,0,0,2.16-3.29c0-1-.27-2.65-1.94-3V114C225.51,114,227.8,116.5,227.8,119.06Z"/><path class="cls-1" d="M231.54,116.27a2.43,2.43,0,0,0-2.48-1.57v-.27h12.6v.27c-1.57,0-2.2,1.08-1.44,2.65l5.9,12.29-3.87,7.28H242Zm-2,27.9c0-1.94,1.53-3.56,4-4.23a3.31,3.31,0,0,0-.18,1.12c-.05,1.71.9,3,2.65,3,1.58,0,2.84-1.67,4.55-4.54h.31c-2.47,4.63-4.18,8.63-7.33,8.63A3.74,3.74,0,0,1,229.56,144.17ZM248,125.22a12.35,12.35,0,0,0,1.26-5.8c0-2.47-1.4-4.72-4.59-4.72v-.27h11.2v.27c-1.48,0-2.07.58-2.92,2.11l-4.68,8.82Z"/><path class="cls-1" d="M267.63,114.25c-2.66.31-3.83,2.56-3.83,11.15,0,6.49,3.29,10,7.29,10a9.8,9.8,0,0,0,6.57-2.38v.26c-2.34,3-6.61,4.06-9.54,4.06-5.76,0-12-4.24-12-11.8A11.54,11.54,0,0,1,267.63,114Zm10,4.81a4.18,4.18,0,0,1-4.5,4.32,3.83,3.83,0,0,1-3.92-2.83,3.9,3.9,0,0,0,2.16-3.29c0-1-.27-2.65-1.93-3V114C275.32,114,277.62,116.5,277.62,119.06Z"/><path class="cls-1" d="M280,105.61a27.42,27.42,0,0,0,10.75-1.76v30.51c0,1.12.68,2.29,3.38,2.29v.27H279.91v-.27c2.7,0,3.38-1.17,3.38-2.29v-26.1c0-1.62-.77-2.38-3.33-2.38Z"/><path class="cls-1" d="M296.79,125.58a11.15,11.15,0,0,1,11-11.61v.28c-2.65.31-3.37,2.56-3.37,11.15,0,6.49,2.88,10,6.88,10a9.8,9.8,0,0,0,6.57-2.38v.26c-2.34,3-6.61,4.06-9.54,4.06A11.41,11.41,0,0,1,296.79,125.58Zm10.12-1.88c4,0,5.63-1.26,5.63-5,0-2.15-.9-4.13-2.93-4.4V114c5.94,0,8.82,4.24,8.82,7.66a13.85,13.85,0,0,1-.22,2.34h-11.3Z"/><path class="cls-1" d="M61.17,165.69a27.61,27.61,0,0,0,10.75-1.76v20.43c0,1.12.68,2.29,3.38,2.29v.27H61.13v-.27c2.7,0,3.37-1.17,3.37-2.29v-16c0-1.62-.77-2.38-3.33-2.38Zm2.3-8.47c0-2.33,1.88-3.91,4.59-3.91s4.58,1.58,4.58,3.91-1.89,4-4.58,4S63.47,159.61,63.47,157.22Z"/><path class="cls-1" d="M77.19,186.65c2.7,0,3.37-1.17,3.37-2.29v-16c0-1.62-.76-2.39-3.33-2.39v-.27A27.48,27.48,0,0,0,88,164v20.39c0,1.12.67,2.29,3.37,2.29v.27H77.19Zm15.84,0c2.65,0,3.33-1.17,3.33-2.29v-14c0-2.52-1.31-3.82-3.56-3.82a4.79,4.79,0,0,0-3.42,1.39v-.27A9.2,9.2,0,0,1,96.85,164c4.05,0,6.93,1.9,6.93,6.35v14c0,1.12.68,2.29,3.38,2.29v.27H93Z"/><path class="cls-1" d="M117.42,181.57a2.3,2.3,0,0,0-2.52,2.25c0,1.31.9,3,4,3.28v.28c-6-.23-9.27-1.85-9.27-4.46,0-2.07,1.8-3.33,3.83-3.33A4.6,4.6,0,0,1,117.42,181.57Zm1.48-17.32c-1.66.31-3.28,1.17-3.24,3,.14,5.22,14.72,6.07,14.72,13.23,0,4.36-3.69,6.66-9.5,6.89v-.28c1.89-.31,4-1,4-3.32,0-4.69-14.76-6.39-14.76-13.23,0-4,3.73-6.35,8.77-6.58Zm10.62,4.36c0,1.4-1.08,2.79-3.33,2.79a3.85,3.85,0,0,1-3.82-2.16,2,2,0,0,0,2-2.11c0-1.35-1.71-2.66-3.51-2.88V164C126,164.25,129.52,166.09,129.52,168.61Z"/><path class="cls-1" d="M143.65,181c0,2.52.86,3.82,3.11,3.82a4,4,0,0,0,3.1-1.39v.27c-1,1.93-3.33,3.65-7,3.65-4,0-6.66-1.9-6.66-6.35V168.39c0-1.62-.77-2.39-3.33-2.39v-.27A27.42,27.42,0,0,0,143.65,164Zm15,2.88c0,1.31.4,1.84,1.21,1.84s1.44-.67,2.16-2h.27c-.72,2.48-3.15,3.65-6.12,3.65-3.15,0-4.95-1.81-4.95-4.41V168.39c0-1.62-.76-2.39-3.19-2.39v-.27A29.15,29.15,0,0,0,158.64,164Z"/><path class="cls-1" d="M174.88,184.36c0,1.12.68,2.29,3.38,2.29v.27H164.08v-.27c2.7,0,3.38-1.17,3.38-2.29v-16c0-1.62-.77-2.39-3.33-2.39v-.27A27.42,27.42,0,0,0,174.88,164ZM187,168.84A4.81,4.81,0,0,1,182.4,174a3,3,0,0,1-2.57-1,3.26,3.26,0,0,0,1.76-3.06,2.39,2.39,0,0,0-2.52-2.43,3.08,3.08,0,0,0-2.7,1.72v-.36c.85-2.88,3.06-4.87,5.85-4.87A4.57,4.57,0,0,1,187,168.84Z"/><path class="cls-1" d="M189,181.62c0-3.92,3.6-6.13,8.64-6.13h4.86v.28h-1.35c-3.24,0-4.77,2.11-4.77,4.9,0,2.47.72,4.37,2.83,4.37a5,5,0,0,0,3.29-1.58v.27a9.59,9.59,0,0,1-7.16,3.65C191.49,187.38,188.92,185.22,189,181.62Zm1.8-12.74c0-2.29,2.07-4.63,8.19-4.91v.28a3.28,3.28,0,0,0-2.88,3.28c0,1.62,1.12,2.61,2.92,2.75a5,5,0,0,1-4.32,2.16A3.61,3.61,0,0,1,190.77,168.88Zm13,13.41V168.52c0-2.21-.86-4-3.06-4.27V164c7.47.28,10.44,3.11,10.44,9v10.94c0,1.31.45,1.84,1.26,1.84s1.44-.67,2.16-2h.27c-.72,2.48-3.15,3.65-5.85,3.65C205.44,187.38,203.82,186.12,203.82,182.29Z"/><path class="cls-1" d="M216.28,186.65c2.7,0,3.38-1.17,3.38-2.29v-16c0-1.62-.77-2.39-3.33-2.39v-.27A27.42,27.42,0,0,0,227.08,164v20.39c0,1.12.68,2.29,3.38,2.29v.27H216.28Zm15.84,0c2.66,0,3.33-1.17,3.33-2.29v-14c0-2.52-1.3-3.82-3.55-3.82a4.79,4.79,0,0,0-3.42,1.39v-.27A9.18,9.18,0,0,1,236,164c4.05,0,6.93,1.9,6.93,6.35v14c0,1.12.67,2.29,3.37,2.29v.27H232.12Z"/><path class="cls-1" d="M260.2,164.25c-2.65.31-3.82,2.56-3.82,11.15,0,6.49,3.28,10,7.29,10a9.83,9.83,0,0,0,6.57-2.38v.26c-2.34,3-6.62,4.06-9.54,4.06-5.76,0-12-4.24-12-11.8A11.54,11.54,0,0,1,260.2,164Zm10,4.81a4.18,4.18,0,0,1-4.5,4.32,3.83,3.83,0,0,1-3.91-2.83,3.9,3.9,0,0,0,2.16-3.29c0-1-.27-2.65-1.94-3V164C267.9,164,270.19,166.5,270.19,169.06Z"/><path class="cls-1" d="M273.57,175.58a11.15,11.15,0,0,1,11-11.61v.28c-2.65.31-3.37,2.56-3.37,11.15,0,6.49,2.88,10,6.88,10a9.8,9.8,0,0,0,6.57-2.38v.26c-2.34,3-6.61,4.06-9.54,4.06A11.41,11.41,0,0,1,273.57,175.58Zm10.12-1.88c4,0,5.63-1.26,5.63-5,0-2.15-.9-4.13-2.93-4.4V164c5.94,0,8.82,4.24,8.82,7.66A13.85,13.85,0,0,1,295,174h-11.3Z"/><rect class="cls-2" width="970" height="250"/></svg>