<svg id="Layer_1" data-name="Layer 1" xmlns="http://www.w3.org/2000/svg" xmlns:xlink="http://www.w3.org/1999/xlink" viewBox="0 0 320 50"><defs><style>.cls-1{fill:none;}.cls-2{clip-path:url(#clip-path);}.cls-3{fill:#fff;}</style><clipPath id="clip-path"><rect class="cls-1" width="320" height="50"/></clipPath></defs><title>Artboard 2 copy</title><g class="cls-2"><path class="cls-3" d="M8.25,9.1a9.91,9.91,0,0,0,3.83-.62V19.33c0,.4.24.81,1.2.81v.1h-5v-.1c1,0,1.2-.41,1.2-.81V10c0-.57-.28-.84-1.19-.84Z"/><path class="cls-3" d="M14,12.69a9.72,9.72,0,0,0,3.83-.63v7.27c0,.4.24.81,1.2.81v.1H14v-.1c1,0,1.2-.41,1.2-.81v-5.7c0-.58-.27-.85-1.18-.85Zm.82-3a1.45,1.45,0,0,1,1.63-1.4,1.42,1.42,0,1,1,0,2.8A1.45,1.45,0,0,1,14.8,9.68Z"/><path class="cls-3" d="M20,12.89a.87.87,0,0,0-.88-.56v-.09h4.49v.09c-.57,0-.79.39-.52.95l2.1,4.37-1.38,2.59h-.09Zm5.86,3.19A4.41,4.41,0,0,0,26.35,14a1.55,1.55,0,0,0-1.63-1.68v-.09h4v.09c-.52,0-.73.21-1,.75L26,16.22Z"/><path class="cls-3" d="M28.83,16.21a4,4,0,0,1,3.92-4.13v.09c-.94.11-1.2.91-1.2,4,0,2.31,1,3.57,2.45,3.57a3.43,3.43,0,0,0,2.33-.85V19a4.47,4.47,0,0,1-3.39,1.44A4,4,0,0,1,28.83,16.21Zm3.6-.68c1.41,0,2-.44,2-1.79,0-.77-.32-1.47-1-1.57v-.09a2.89,2.89,0,0,1,3.14,2.72,4.58,4.58,0,0,1-.08.83h-4Z"/><path class="cls-3" d="M40.62,18.34a.82.82,0,0,0-.9.8c0,.46.32,1.05,1.43,1.16v.1c-2.13-.08-3.3-.66-3.3-1.58a1.25,1.25,0,0,1,1.36-1.19A1.64,1.64,0,0,1,40.62,18.34Zm.53-6.17c-.59.11-1.17.42-1.15,1.07,0,1.86,5.23,2.17,5.23,4.71,0,1.55-1.31,2.37-3.38,2.45v-.1c.68-.11,1.43-.35,1.43-1.18,0-1.67-5.25-2.27-5.25-4.71,0-1.41,1.33-2.25,3.12-2.33Zm3.78,1.56a1.05,1.05,0,0,1-1.19,1A1.38,1.38,0,0,1,42.38,14a.71.71,0,0,0,.72-.75c0-.48-.61-.95-1.25-1v-.09C43.66,12.17,44.93,12.83,44.93,13.73Z"/><path class="cls-3" d="M50.48,18.35c0-1.39,1.28-2.18,3.07-2.18h1.73v.1H54.8A1.58,1.58,0,0,0,53.1,18c0,.88.26,1.55,1,1.55A1.75,1.75,0,0,0,55.28,19v.09a3.41,3.41,0,0,1-2.55,1.3A2,2,0,0,1,50.48,18.35Zm.64-4.53c0-.82.73-1.65,2.91-1.74v.09a1.18,1.18,0,0,0-1,1.17c0,.58.4.93,1,1a1.78,1.78,0,0,1-1.53.77A1.29,1.29,0,0,1,51.12,13.82Zm4.64,4.77v-4.9c0-.78-.31-1.41-1.09-1.52v-.09c2.66.09,3.71,1.1,3.71,3.2v3.89c0,.46.16.65.45.65s.51-.24.77-.72h.1a2,2,0,0,1-2.09,1.3C56.33,20.4,55.76,20,55.76,18.59Z"/><path class="cls-3" d="M66.4,19v.09a3.34,3.34,0,0,1-2.74,1.3c-1.44,0-2.46-.66-2.46-2.26V12.89h-.84l.18-.24h.66V10.92A4.05,4.05,0,0,0,63.82,10v2.62H66l-.17.24h-2v5.3c0,.8.3,1.63,1.06,1.63A2.34,2.34,0,0,0,66.4,19Z"/><path class="cls-3" d="M75.21,20.3v.1a6,6,0,0,1-3.1-.78l-.53.78h-.13V16.49h.13A5.35,5.35,0,0,0,75.21,20.3Zm4.71-3.18c0,2.06-1.54,3.18-4,3.28v-.1c.88-.16,1.75-.67,1.75-1.63,0-2.8-6.12-3.06-6.12-6.31,0-1.92,1.55-3,3.68-3.16v.09a1.52,1.52,0,0,0-1.41,1.47C73.8,13.57,79.92,13.87,79.92,17.12Zm-4-7.83V9.2a5.14,5.14,0,0,1,2.88.84l.58-.84h.13v3.57h-.13A5.1,5.1,0,0,0,75.9,9.29Z"/><path class="cls-3" d="M87.21,19v.09a3.32,3.32,0,0,1-2.73,1.3C83,20.4,82,19.74,82,18.14V12.89h-.83l.18-.24H82V10.92A4.06,4.06,0,0,0,84.64,10v2.62H86.8l-.18.24h-2v5.3c0,.8.3,1.63,1,1.63A2.32,2.32,0,0,0,87.21,19Z"/><path class="cls-3" d="M87.72,18.35c0-1.39,1.28-2.18,3.08-2.18h1.72v.1H92A1.58,1.58,0,0,0,90.35,18c0,.88.25,1.55,1,1.55A1.75,1.75,0,0,0,92.52,19v.09A3.37,3.37,0,0,1,90,20.4,2,2,0,0,1,87.72,18.35Zm.64-4.53c0-.82.74-1.65,2.92-1.74v.09a1.18,1.18,0,0,0-1,1.17c0,.58.4.93,1,1a1.78,1.78,0,0,1-1.53.77A1.29,1.29,0,0,1,88.36,13.82ZM93,18.59v-4.9c0-.78-.3-1.41-1.08-1.52v-.09c2.65.09,3.71,1.1,3.71,3.2v3.89c0,.46.16.65.45.65s.51-.24.77-.72h.09a2,2,0,0,1-2.08,1.3C93.58,20.4,93,20,93,18.59Z"/><path class="cls-3" d="M101.28,19.33c0,.4.24.81,1.2.81v.1h-5v-.1c1,0,1.21-.41,1.21-.81V13.65c0-.58-.28-.85-1.19-.85v-.1a9.91,9.91,0,0,0,3.83-.62Zm4.32-5.52A1.71,1.71,0,0,1,104,15.63a1.1,1.1,0,0,1-.91-.35,1.18,1.18,0,0,0,.62-1.09.85.85,0,0,0-.9-.87,1.13,1.13,0,0,0-1,.61v-.12a2.22,2.22,0,0,1,2.09-1.73A1.63,1.63,0,0,1,105.6,13.81Z"/><path class="cls-3" d="M8.64,38.14c1,0,1.2-.38,1.2-.81V28.27c0-.43-.24-.82-1.2-.82v-.09h5.12v.09c-1,0-1.2.39-1.2.82v9.06c0,.43.24.81,1.2.81v.1H8.64Z"/><path class="cls-3" d="M14.83,38.14c1,0,1.2-.41,1.2-.81V31.65c0-.58-.27-.85-1.19-.85v-.1a9.91,9.91,0,0,0,3.83-.62v7.25c0,.4.24.81,1.2.81v.1h-5Zm5.63,0c.95,0,1.19-.41,1.19-.81v-5A1.19,1.19,0,0,0,20.38,31a1.69,1.69,0,0,0-1.21.5v-.1a3.26,3.26,0,0,1,2.65-1.29c1.44,0,2.47.67,2.47,2.25v5c0,.4.24.81,1.2.81v.1h-5Z"/><path class="cls-3" d="M29.13,36.34a.81.81,0,0,0-.89.8c0,.46.32,1,1.42,1.16v.1c-2.13-.08-3.3-.66-3.3-1.58a1.25,1.25,0,0,1,1.36-1.19A1.64,1.64,0,0,1,29.13,36.34Zm.53-6.17c-.59.11-1.17.42-1.15,1.07,0,1.86,5.23,2.17,5.23,4.71,0,1.55-1.31,2.37-3.37,2.45v-.1c.67-.11,1.42-.35,1.42-1.18,0-1.67-5.25-2.27-5.25-4.71,0-1.41,1.33-2.25,3.12-2.33Zm3.78,1.56a1.05,1.05,0,0,1-1.19,1A1.38,1.38,0,0,1,30.89,32a.71.71,0,0,0,.72-.75c0-.48-.6-.95-1.24-1v-.09C32.17,30.17,33.44,30.83,33.44,31.73Z"/><path class="cls-3" d="M38.46,36.14c0,.9.31,1.36,1.11,1.36a1.4,1.4,0,0,0,1.1-.49v.09a2.66,2.66,0,0,1-2.48,1.3,2.07,2.07,0,0,1-2.37-2.26V31.65c0-.58-.27-.85-1.18-.85v-.1a9.89,9.89,0,0,0,3.82-.62Zm5.33,1c0,.46.15.65.43.65s.52-.24.77-.72h.1a2.05,2.05,0,0,1-2.18,1.3,1.55,1.55,0,0,1-1.76-1.57V31.65c0-.58-.27-.85-1.14-.85v-.1a10.49,10.49,0,0,0,3.78-.62Z"/><path class="cls-3" d="M49.57,37.33c0,.4.24.81,1.2.81v.1H45.72v-.1c1,0,1.2-.41,1.2-.81V31.65c0-.58-.27-.85-1.18-.85v-.1a9.91,9.91,0,0,0,3.83-.62Zm4.32-5.52a1.71,1.71,0,0,1-1.65,1.82,1.09,1.09,0,0,1-.91-.35A1.18,1.18,0,0,0,52,32.19a.86.86,0,0,0-.9-.87,1.13,1.13,0,0,0-1,.61v-.12a2.22,2.22,0,0,1,2.08-1.73A1.63,1.63,0,0,1,53.89,31.81Z"/><path class="cls-3" d="M54.57,36.35c0-1.39,1.28-2.18,3.08-2.18h1.72v.1h-.48A1.58,1.58,0,0,0,57.2,36c0,.88.25,1.55,1,1.55A1.75,1.75,0,0,0,59.37,37v.09a3.37,3.37,0,0,1-2.54,1.3A2,2,0,0,1,54.57,36.35Zm.64-4.53c0-.82.74-1.65,2.91-1.74v.09a1.17,1.17,0,0,0-1,1.17c0,.58.4.93,1,1a1.79,1.79,0,0,1-1.54.77A1.29,1.29,0,0,1,55.21,31.82Zm4.64,4.77v-4.9c0-.78-.3-1.41-1.08-1.52v-.09c2.65.09,3.71,1.1,3.71,3.2v3.89c0,.46.16.65.45.65s.51-.24.77-.72h.09a2,2,0,0,1-2.08,1.3C60.43,38.4,59.85,38,59.85,36.59Z"/><path class="cls-3" d="M64.28,38.14c1,0,1.2-.41,1.2-.81V31.65c0-.58-.27-.85-1.18-.85v-.1a9.82,9.82,0,0,0,3.82-.62v7.25c0,.4.25.81,1.21.81v.1h-5Zm5.64,0c.94,0,1.18-.41,1.18-.81v-5c0-.89-.46-1.36-1.26-1.36a1.73,1.73,0,0,0-1.22.5v-.1a3.27,3.27,0,0,1,2.66-1.29c1.44,0,2.46.67,2.46,2.25v5c0,.4.24.81,1.2.81v.1h-5Z"/><path class="cls-3" d="M79.9,30.17c-.94.11-1.36.91-1.36,4,0,2.31,1.17,3.57,2.59,3.57a3.44,3.44,0,0,0,2.34-.85V37a4.47,4.47,0,0,1-3.39,1.44,4.19,4.19,0,0,1-4.28-4.19,4.1,4.1,0,0,1,4.1-4.13Zm3.55,1.72a1.48,1.48,0,0,1-1.6,1.53,1.36,1.36,0,0,1-1.39-1,1.37,1.37,0,0,0,.77-1.17,1,1,0,0,0-.69-1v-.11C82.64,30.08,83.45,31,83.45,31.89Z"/><path class="cls-3" d="M84.65,34.21a4,4,0,0,1,3.92-4.13v.09c-.94.11-1.2.91-1.2,4,0,2.31,1,3.57,2.45,3.57a3.46,3.46,0,0,0,2.34-.85V37a4.47,4.47,0,0,1-3.39,1.44A4.06,4.06,0,0,1,84.65,34.21Zm3.6-.68c1.41,0,2-.44,2-1.79,0-.77-.32-1.47-1-1.57v-.09a2.89,2.89,0,0,1,3.14,2.72,4.58,4.58,0,0,1-.08.83h-4Z"/><path class="cls-3" d="M101.8,38.3v.1a6,6,0,0,1-3.1-.78l-.53.78H98V34.49h.13A5.37,5.37,0,0,0,101.8,38.3Zm4.71-3.18c0,2.06-1.54,3.18-4,3.28v-.1c.88-.16,1.75-.67,1.75-1.63,0-2.8-6.12-3.06-6.12-6.31,0-1.92,1.56-3,3.68-3.16v.09a1.51,1.51,0,0,0-1.4,1.47C100.4,31.57,106.51,31.87,106.51,35.12Zm-4-7.83V27.2a5.14,5.14,0,0,1,2.88.84l.58-.84h.13v3.57H106A5.1,5.1,0,0,0,102.49,27.29Z"/><path class="cls-3" d="M111.42,40.67c0,.58.27.85,1.18.85v.1a10.56,10.56,0,0,0-3.82.62V31.63c0-.58-.27-.85-1.19-.85v-.09a10.38,10.38,0,0,0,3.83-.63Zm6.1-6.51c0,3.34-1.76,4.24-3.28,4.24a3,3,0,0,1-2.34-1.3V37a2.26,2.26,0,0,0,1.35.56c.75,0,1.55-.53,1.55-3.41s-.75-3.27-1.55-3.27a1.78,1.78,0,0,0-1.35.6v-.13a3,3,0,0,1,2.34-1.28C115.79,30.08,117.52,31,117.52,34.16Z"/><path class="cls-3" d="M118.92,34.21a4,4,0,0,1,3.92-4.13v.09c-.94.11-1.2.91-1.2,4,0,2.31,1,3.57,2.45,3.57a3.44,3.44,0,0,0,2.34-.85V37A4.47,4.47,0,0,1,123,38.4,4.06,4.06,0,0,1,118.92,34.21Zm3.6-.68c1.41,0,2-.44,2-1.79,0-.77-.32-1.47-1-1.57v-.09a2.89,2.89,0,0,1,3.14,2.72,4.58,4.58,0,0,1-.08.83h-4Z"/><path class="cls-3" d="M132,30.17c-.95.11-1.36.91-1.36,4,0,2.31,1.17,3.57,2.59,3.57a3.46,3.46,0,0,0,2.34-.85V37a4.47,4.47,0,0,1-3.4,1.44,4.18,4.18,0,0,1-4.27-4.19,4.1,4.1,0,0,1,4.1-4.13Zm3.55,1.72a1.48,1.48,0,0,1-1.6,1.53,1.35,1.35,0,0,1-1.39-1,1.37,1.37,0,0,0,.77-1.17,1,1,0,0,0-.69-1v-.11C134.77,30.08,135.58,31,135.58,31.89Z"/><path class="cls-3" d="M136.52,30.69a9.72,9.72,0,0,0,3.83-.63v7.27c0,.4.24.81,1.2.81v.1h-5v-.1c1,0,1.2-.41,1.2-.81v-5.7c0-.58-.27-.85-1.19-.85Zm.82-3a1.65,1.65,0,1,1,1.63,1.4A1.45,1.45,0,0,1,137.34,27.68Z"/><path class="cls-3" d="M142.35,36.35c0-1.39,1.28-2.18,3.07-2.18h1.73v.1h-.48A1.59,1.59,0,0,0,145,36c0,.88.26,1.55,1,1.55a1.75,1.75,0,0,0,1.17-.56v.09a3.41,3.41,0,0,1-2.55,1.3A2,2,0,0,1,142.35,36.35Zm.64-4.53c0-.82.73-1.65,2.91-1.74v.09a1.17,1.17,0,0,0-1,1.17c0,.58.4.93,1,1a1.8,1.8,0,0,1-1.54.77A1.29,1.29,0,0,1,143,31.82Zm4.64,4.77v-4.9c0-.78-.31-1.41-1.09-1.52v-.09c2.66.09,3.71,1.1,3.71,3.2v3.89c0,.46.16.65.45.65s.51-.24.77-.72h.1a2,2,0,0,1-2.08,1.3C148.21,38.4,147.63,38,147.63,36.59Z"/><path class="cls-3" d="M152,27.1a9.82,9.82,0,0,0,3.82-.62V37.33c0,.4.24.81,1.2.81v.1h-5v-.1c1,0,1.2-.41,1.2-.81V28c0-.57-.27-.84-1.18-.84Z"/><path class="cls-3" d="M157.71,30.69a9.67,9.67,0,0,0,3.82-.63v7.27c0,.4.24.81,1.2.81v.1h-5v-.1c1,0,1.2-.41,1.2-.81v-5.7c0-.58-.27-.85-1.18-.85Zm.81-3a1.65,1.65,0,1,1,1.64,1.4A1.46,1.46,0,0,1,158.52,27.68Z"/><path class="cls-3" d="M166.47,36.34a.81.81,0,0,0-.89.8c0,.46.32,1,1.42,1.16v.1c-2.12-.08-3.29-.66-3.29-1.58a1.25,1.25,0,0,1,1.36-1.19A1.61,1.61,0,0,1,166.47,36.34Zm.53-6.17c-.59.11-1.17.42-1.15,1.07.05,1.86,5.23,2.17,5.23,4.71,0,1.55-1.31,2.37-3.37,2.45v-.1c.67-.11,1.42-.35,1.42-1.18,0-1.67-5.25-2.27-5.25-4.71,0-1.41,1.33-2.25,3.12-2.33Zm3.78,1.56a1,1,0,0,1-1.18,1,1.36,1.36,0,0,1-1.36-.77.71.71,0,0,0,.72-.75c0-.48-.61-.95-1.25-1v-.09C169.52,30.17,170.78,30.83,170.78,31.73Z"/><path class="cls-3" d="M178.35,37v.09a3.34,3.34,0,0,1-2.74,1.3c-1.44,0-2.46-.66-2.46-2.26V30.89h-.84l.18-.24h.66V28.92a4.05,4.05,0,0,0,2.62-.89v2.62h2.16l-.17.24h-2v5.3c0,.8.31,1.63,1.06,1.63A2.34,2.34,0,0,0,178.35,37Z"/><path class="cls-3" d="M181.8,36.34a.81.81,0,0,0-.89.8c0,.46.32,1,1.42,1.16v.1c-2.13-.08-3.3-.66-3.3-1.58a1.25,1.25,0,0,1,1.36-1.19A1.62,1.62,0,0,1,181.8,36.34Zm.53-6.17c-.59.11-1.17.42-1.15,1.07,0,1.86,5.23,2.17,5.23,4.71,0,1.55-1.31,2.37-3.37,2.45v-.1c.67-.11,1.42-.35,1.42-1.18,0-1.67-5.25-2.27-5.25-4.71,0-1.41,1.33-2.25,3.12-2.33Zm3.78,1.56a1.05,1.05,0,0,1-1.19,1,1.38,1.38,0,0,1-1.36-.77.71.71,0,0,0,.72-.75c0-.48-.6-.95-1.24-1v-.09C184.84,30.17,186.11,30.83,186.11,31.73Z"/></g></svg>