<?xml version="1.0" encoding="utf-8"?>
<!-- Generator: Adobe Illustrator 24.0.3, SVG Export Plug-In . SVG Version: 6.00 Build 0)  -->
<svg version="1.1" id="Layer_1" xmlns="http://www.w3.org/2000/svg" xmlns:xlink="http://www.w3.org/1999/xlink" x="0px" y="0px"
	 viewBox="0 0 320 50" style="enable-background:new 0 0 320 50;" xml:space="preserve">
<style type="text/css">
	.st0{clip-path:url(#SVGID_2_);}
	.st1{enable-background:new    ;}
	.st2{fill:#FFFFFF;}
</style>
<title>Artboard 2 copy 2</title>
<g>
	<defs>
		<rect id="SVGID_1_" y="0" width="320" height="50"/>
	</defs>
	<clipPath id="SVGID_2_">
		<use xlink:href="#SVGID_1_"  style="overflow:visible;"/>
	</clipPath>
	<g class="st0">
		<g class="st1">
			<path class="st2" d="M10.5,10l0.2,0.2l0.2,8c0,0.8,0.6,1.6,1.9,1.6V20H8.4v-0.1c1.3,0,1.9-0.8,1.9-1.6L10.5,10z M20.6,20h-2.1
				l-8-11.9c-0.5-0.7-1.1-1-2-1V7h5.1l7,10.5V20z M20.5,15.6l-0.2-0.2l-0.2-6.7c0-0.8-0.6-1.6-1.9-1.6V7h4.2v0.1
				c-1.3,0-1.9,0.8-1.9,1.6L20.5,15.6z"/>
			<path class="st2" d="M31,7h3.6l-7.6,13h-3.6L31,7z M24,7h5.8l-0.1,0.1c-2.8,0.2-5.1,2.1-5.6,4.5H24V7z M28.4,19.9
				c2.9-0.2,5.2-2,6-5.1h0.2V20h-6.2L28.4,19.9z"/>
		</g>
		<g class="st1">
			<path class="st2" d="M40,7.6c0,1.1-1.2,2.6-3.1,3.4l-0.1-0.2c0.6-0.4,1.1-1.2,1.1-1.9c0-0.9-0.6-1.2-1.3-1.3
				c0.2-1.1,0.8-1.7,1.8-1.7C39.3,5.9,40,6.5,40,7.6z"/>
		</g>
		<g class="st1">
			<path class="st2" d="M43.9,17.7c-0.6,0-1.1,0.4-1.1,1c0,0.6,0.4,1.3,1.7,1.4v0.1c-2.5-0.1-3.9-0.8-3.9-1.9c0-0.9,0.8-1.4,1.6-1.4
				C43,16.9,43.6,17.2,43.9,17.7z M44.6,10.3c-0.7,0.1-1.4,0.5-1.4,1.3c0.1,2.2,6.2,2.6,6.2,5.6c0,1.9-1.6,2.8-4,2.9V20
				c0.8-0.1,1.7-0.4,1.7-1.4c0-2-6.3-2.7-6.3-5.6c0-1.7,1.6-2.7,3.7-2.8V10.3z M49.1,12.2c0,0.6-0.5,1.2-1.4,1.2
				c-0.8,0-1.4-0.3-1.6-0.9c0.6,0,0.9-0.4,0.9-0.9c0-0.6-0.7-1.1-1.5-1.2v-0.1C47.6,10.3,49.1,11.1,49.1,12.2z"/>
			<path class="st2" d="M55.5,6.7c1.8,0,3.2-0.2,4.6-0.7v13c0,0.5,0.3,1,1.4,1V20h-6v-0.1c1.1,0,1.4-0.5,1.4-1V7.8
				c0-0.7-0.3-1-1.4-1V6.7z"/>
			<path class="st2" d="M62.6,15.2c0-3.2,2.4-4.9,4.7-4.9v0.1c-1.1,0.1-1.4,1.1-1.4,4.7c0,2.8,1.2,4.3,2.9,4.3c1.1,0,1.9-0.3,2.8-1
				v0.1c-1,1.3-2.8,1.7-4.1,1.7C65.1,20.2,62.6,18.4,62.6,15.2z M66.9,14.4c1.7,0,2.4-0.5,2.4-2.1c0-0.9-0.4-1.8-1.2-1.9v-0.1
				c2.5,0,3.7,1.8,3.7,3.2c0,0.3,0,0.7-0.1,1h-4.8V14.4z"/>
			<path class="st2" d="M73.2,17.7c0-1.7,1.5-2.6,3.7-2.6h2.1v0.1h-0.6c-1.4,0-2,0.9-2,2.1c0,1.1,0.3,1.9,1.2,1.9
				c0.5,0,1-0.3,1.4-0.7v0.1c-0.6,0.7-1.6,1.5-3,1.5C74.2,20.2,73.2,19.2,73.2,17.7z M73.9,12.3c0-1,0.9-2,3.5-2.1v0.1
				c-0.8,0.1-1.2,0.7-1.2,1.4c0,0.7,0.5,1.1,1.2,1.2c-0.3,0.5-1.1,0.9-1.8,0.9C74.6,13.8,73.9,13.1,73.9,12.3z M79.5,18v-5.8
				c0-0.9-0.4-1.7-1.3-1.8v-0.1c3.2,0.1,4.4,1.3,4.4,3.8v4.6c0,0.6,0.2,0.8,0.5,0.8c0.3,0,0.6-0.3,0.9-0.9h0.1
				c-0.3,1.1-1.3,1.5-2.5,1.5C80.2,20.2,79.5,19.6,79.5,18z"/>
			<path class="st2" d="M91.9,11.8v0.2c-0.4-0.5-1-0.7-1.6-0.7c-1,0-1.9,0.4-1.9,3.9c0,3.4,1,4.1,1.9,4.1c0.6,0,1.1-0.3,1.6-0.7v0.1
				c-0.5,0.8-1.7,1.5-2.8,1.5c-1.8,0-3.9-1.1-3.9-5.1c0-3.8,2.1-4.9,3.9-4.9C90.2,10.2,91.4,11,91.9,11.8z M95.6,18.7
				c0,0.6,0.2,0.8,0.5,0.8c0.3,0,0.6-0.3,0.9-0.9h0.1c-0.3,1.1-1.3,1.5-2.5,1.5c-1.5,0-2.2-0.5-2.2-2.2V7.8c0-0.7-0.3-1-1.4-1V6.7
				c1.8,0,3-0.2,4.6-0.7V18.7z"/>
			<path class="st2" d="M98,11c1.8,0,3.2-0.2,4.6-0.7v8.7c0,0.5,0.3,1,1.4,1V20h-6v-0.1c1.1,0,1.4-0.5,1.4-1v-6.8c0-0.7-0.3-1-1.4-1
				V11z M99,7.4c0-1,0.8-1.7,1.9-1.7c1.1,0,1.9,0.7,1.9,1.7c0,1-0.8,1.7-1.9,1.7C99.8,9,99,8.4,99,7.4z"/>
			<path class="st2" d="M104.8,19.9c1.1,0,1.4-0.5,1.4-1v-6.8c0-0.7-0.3-1-1.4-1V11c1.8,0,3.2-0.2,4.6-0.7v8.7c0,0.5,0.3,1,1.4,1V20
				h-6V19.9z M111.5,19.9c1.1,0,1.4-0.5,1.4-1v-6c0-1.1-0.6-1.6-1.5-1.6c-0.5,0-1,0.2-1.5,0.6v-0.1c0.5-0.8,1.8-1.5,3.2-1.5
				c1.7,0,2.9,0.8,2.9,2.7v6c0,0.5,0.3,1,1.4,1V20h-6V19.9z"/>
			<path class="st2" d="M118.6,13.7c0-2.5,2.3-3.4,4.3-3.5v0.1c-0.8,0.1-1.2,1.1-1.2,3.3c0,2.3,0.4,3.2,1.2,3.3v0.1
				C121,17.1,118.6,16.1,118.6,13.7z M123.7,24.6c1.9-0.2,2.5-1.3,2.5-1.9c0-2.7-7.5-0.3-7.5-3.7c0-0.8,0.4-1.4,1.3-1.9l0.1,0.1
				c-0.1,0.1-0.2,0.2-0.2,0.4c0,2.1,8.7-0.3,8.7,3.8c0,2-1.7,3.2-4.9,3.4V24.6z M118.8,23c0-1.1,1.4-1.5,2.9-1.5
				c-0.3,0.2-0.8,0.7-0.8,1.4c0,0.9,1,1.5,2.1,1.7v0.1C120.9,24.7,118.8,24.3,118.8,23z M123.7,17c0.9-0.1,1.3-1,1.3-3.3
				c0-2.2-0.4-3.2-1.3-3.3v-0.1c2,0,4.4,1,4.4,3.5c0,2.5-2.4,3.4-4.4,3.4V17z M124.8,9.9c0.3-1,1.2-2.3,2.5-2.3c1,0,1.6,0.5,1.6,1.5
				c0,0.9-0.8,1.5-1.5,1.5c0-0.8-0.4-1.3-1-1.3C125.7,9.3,125.1,9.6,124.8,9.9L124.8,9.9z"/>
		</g>
		<g class="st1">
			<path class="st2" d="M13,39.1c0,0.5,0.3,1,1.4,1v0.1h-6V40c1.1,0,1.4-0.5,1.4-1v-6.8c0-0.7-0.3-1-1.4-1v-0.1
				c1.8,0,3.2-0.2,4.6-0.7V39.1z M19.3,33.1v6c0,0.5,0.3,1,1.4,1v0.1h-6V40c1.1,0,1.4-0.5,1.4-1v-6c0-1.1-0.4-1.6-1.3-1.6
				c-0.5,0-1,0.3-1.3,0.6v-0.1c0.4-0.8,1.4-1.5,2.8-1.5C18.2,30.4,19.3,31.2,19.3,33.1z M25.7,33.1v6c0,0.5,0.3,1,1.4,1v0.1h-6V40
				c1.1,0,1.4-0.5,1.4-1v-6c0-1.1-0.4-1.6-1.3-1.6c-0.5,0-1,0.3-1.3,0.6v-0.1c0.4-0.8,1.4-1.5,2.8-1.5
				C24.5,30.4,25.7,31.2,25.7,33.1z"/>
			<path class="st2" d="M32.9,30.5c-1.1,0.1-1.5,1.1-1.5,4.8c0,3.6,0.4,4.8,1.5,4.9v0.1c-2.2,0-4.8-1.8-4.8-5c0-3.2,2.5-4.9,4.8-4.9
				V30.5z M38.4,35.3c0,3.2-2.5,5-4.7,5v-0.1c1.1-0.1,1.5-1.3,1.5-4.9c0-3.7-0.4-4.7-1.5-4.8v-0.1C35.9,30.4,38.4,32.1,38.4,35.3z"
				/>
		</g>
		<g class="st1">
			<path class="st2" d="M47.1,38.7v0.1c-0.6,0.9-1.8,1.5-3.3,1.5c-1.7,0-2.9-0.8-2.9-2.7v-6.3h-1l0.2-0.3h0.8V29
				c1.2,0,2.3-0.4,3.1-1.1v3.1h2.6l-0.2,0.3H44v6.3c0,1,0.4,1.9,1.3,1.9C45.8,39.7,46.4,39.3,47.1,38.7z"/>
		</g>
		<g class="st1">
			<path class="st2" d="M52.5,30.5c-1.1,0.1-1.5,1.1-1.5,4.8c0,3.6,0.4,4.8,1.5,4.9v0.1c-2.2,0-4.8-1.8-4.8-5c0-3.2,2.5-4.9,4.8-4.9
				V30.5z M58,35.3c0,3.2-2.5,5-4.7,5v-0.1c1.1-0.1,1.5-1.3,1.5-4.9c0-3.7-0.4-4.7-1.5-4.8v-0.1C55.5,30.4,58,32.1,58,35.3z"/>
		</g>
		<g class="st1">
			<path class="st2" d="M63.9,39.1c0,0.5,0.3,1,1.4,1v0.1h-6V40c1.1,0,1.4-0.5,1.4-1v-6.8c0-0.7-0.3-1-1.4-1v-0.1
				c1.8,0,3.2-0.2,4.6-0.7V39.1z M69,32.5c0,1.3-0.9,2.2-2,2.2c-0.5,0-0.9-0.1-1.1-0.4c0.4-0.2,0.7-0.6,0.7-1.3c0-0.6-0.4-1-1.1-1
				c-0.5,0-0.9,0.3-1.1,0.7v-0.2c0.4-1.2,1.3-2.1,2.5-2.1C68.3,30.4,69,31.3,69,32.5z"/>
		</g>
		<g class="st1">
			<path class="st2" d="M75,30.5c-1.1,0.1-1.6,1.1-1.6,4.7c0,2.8,1.4,4.3,3.1,4.3c1.1,0,1.9-0.3,2.8-1v0.1c-1,1.3-2.8,1.7-4,1.7
				c-2.4,0-5.1-1.8-5.1-5c0-3.2,2.7-4.9,4.9-4.9V30.5z M79.2,32.6c0,1-0.7,1.8-1.9,1.8c-0.9,0-1.5-0.6-1.7-1.2
				c0.5-0.2,0.9-0.9,0.9-1.4c0-0.4-0.1-1.1-0.8-1.3v-0.1C78.2,30.4,79.2,31.5,79.2,32.6z"/>
		</g>
		<g class="st1">
			<path class="st2" d="M80.8,31.4c-0.2-0.4-0.5-0.7-1.1-0.7v-0.1h5.3v0.1c-0.7,0-0.9,0.5-0.6,1.1l2.5,5.2l-1.6,3.1h-0.1L80.8,31.4z
				 M80,43.2c0-0.8,0.6-1.5,1.7-1.8c-0.1,0.2-0.1,0.3-0.1,0.5c0,0.7,0.4,1.3,1.1,1.3c0.7,0,1.2-0.7,1.9-1.9h0.1
				c-1.1,2-1.8,3.7-3.1,3.7C80.6,44.9,80,44.2,80,43.2z M87.8,35.2c0.3-0.6,0.5-1.4,0.5-2.5c0-1.1-0.6-2-1.9-2v-0.1h4.8v0.1
				c-0.6,0-0.9,0.2-1.2,0.9l-2,3.7L87.8,35.2z"/>
		</g>
		<g class="st1">
			<path class="st2" d="M96.1,30.5c-1.1,0.1-1.6,1.1-1.6,4.7c0,2.8,1.4,4.3,3.1,4.3c1.1,0,1.9-0.3,2.8-1v0.1c-1,1.3-2.8,1.7-4,1.7
				c-2.4,0-5.1-1.8-5.1-5c0-3.2,2.7-4.9,4.9-4.9V30.5z M100.4,32.6c0,1-0.7,1.8-1.9,1.8c-0.9,0-1.5-0.6-1.7-1.2
				c0.5-0.2,0.9-0.9,0.9-1.4c0-0.4-0.1-1.1-0.8-1.3v-0.1C99.4,30.4,100.4,31.5,100.4,32.6z"/>
			<path class="st2" d="M101.4,26.9c1.8,0,3.2-0.2,4.6-0.7v13c0,0.5,0.3,1,1.4,1v0.1h-6V40c1.1,0,1.4-0.5,1.4-1V28
				c0-0.7-0.3-1-1.4-1V26.9z"/>
			<path class="st2" d="M108.5,35.3c0-3.2,2.4-4.9,4.7-4.9v0.1c-1.1,0.1-1.4,1.1-1.4,4.7c0,2.8,1.2,4.3,2.9,4.3c1.1,0,1.9-0.3,2.8-1
				v0.1c-1,1.3-2.8,1.7-4.1,1.7C111,40.3,108.5,38.5,108.5,35.3z M112.8,34.5c1.7,0,2.4-0.5,2.4-2.1c0-0.9-0.4-1.8-1.2-1.9v-0.1
				c2.5,0,3.7,1.8,3.7,3.2c0,0.3,0,0.7-0.1,1h-4.8V34.5z"/>
			<path class="st2" d="M123.8,31.1c1.8,0,3.2-0.2,4.6-0.7v8.7c0,0.5,0.3,1,1.4,1v0.1h-6V40c1.1,0,1.4-0.5,1.4-1v-6.8
				c0-0.7-0.3-1-1.4-1V31.1z M124.8,27.5c0-1,0.8-1.7,1.9-1.7c1.1,0,1.9,0.7,1.9,1.7c0,1-0.8,1.7-1.9,1.7
				C125.6,29.2,124.8,28.6,124.8,27.5z"/>
			<path class="st2" d="M130.6,40c1.1,0,1.4-0.5,1.4-1v-6.8c0-0.7-0.3-1-1.4-1v-0.1c1.8,0,3.2-0.2,4.6-0.7v8.7c0,0.5,0.3,1,1.4,1
				v0.1h-6V40z M137.3,40c1.1,0,1.4-0.5,1.4-1v-6c0-1.1-0.6-1.6-1.5-1.6c-0.5,0-1,0.2-1.5,0.6V32c0.5-0.8,1.8-1.5,3.2-1.5
				c1.7,0,2.9,0.8,2.9,2.7v6c0,0.5,0.3,1,1.4,1v0.1h-6V40z"/>
			<path class="st2" d="M147.7,37.9c-0.6,0-1.1,0.4-1.1,1c0,0.6,0.4,1.3,1.7,1.4v0.1c-2.5-0.1-3.9-0.8-3.9-1.9
				c0-0.9,0.8-1.4,1.6-1.4C146.8,37,147.4,37.4,147.7,37.9z M148.3,30.5c-0.7,0.1-1.4,0.5-1.4,1.3c0.1,2.2,6.2,2.6,6.2,5.6
				c0,1.9-1.6,2.8-4,2.9v-0.1c0.8-0.1,1.7-0.4,1.7-1.4c0-2-6.3-2.7-6.3-5.6c0-1.7,1.6-2.7,3.7-2.8V30.5z M152.8,32.4
				c0,0.6-0.5,1.2-1.4,1.2c-0.8,0-1.4-0.3-1.6-0.9c0.6,0,0.9-0.4,0.9-0.9c0-0.6-0.7-1.1-1.5-1.2v-0.1
				C151.3,30.5,152.8,31.3,152.8,32.4z"/>
			<path class="st2" d="M158.8,37.6c0,1.1,0.4,1.6,1.3,1.6c0.5,0,0.9-0.2,1.3-0.6v0.1c-0.4,0.8-1.4,1.5-3,1.5
				c-1.7,0-2.8-0.8-2.8-2.7v-5.4c0-0.7-0.3-1-1.4-1v-0.1c1.8,0,3.2-0.2,4.6-0.7V37.6z M165.2,38.9c0,0.6,0.2,0.8,0.5,0.8
				c0.3,0,0.6-0.3,0.9-0.9h0.1c-0.3,1.1-1.3,1.5-2.6,1.5c-1.3,0-2.1-0.8-2.1-1.9v-6.2c0-0.7-0.3-1-1.4-1v-0.1c1.7,0,2.9-0.2,4.5-0.7
				V38.9z"/>
		</g>
		<g class="st1">
			<path class="st2" d="M172.1,39.1c0,0.5,0.3,1,1.4,1v0.1h-6V40c1.1,0,1.4-0.5,1.4-1v-6.8c0-0.7-0.3-1-1.4-1v-0.1
				c1.8,0,3.2-0.2,4.6-0.7V39.1z M177.3,32.5c0,1.3-0.9,2.2-2,2.2c-0.5,0-0.9-0.1-1.1-0.4c0.4-0.2,0.7-0.6,0.7-1.3
				c0-0.6-0.4-1-1.1-1c-0.5,0-0.9,0.3-1.1,0.7v-0.2c0.4-1.2,1.3-2.1,2.5-2.1C176.5,30.4,177.3,31.3,177.3,32.5z"/>
		</g>
		<g class="st1">
			<path class="st2" d="M178.1,37.9c0-1.7,1.5-2.6,3.7-2.6h2.1v0.1h-0.6c-1.4,0-2,0.9-2,2.1c0,1.1,0.3,1.9,1.2,1.9
				c0.5,0,1-0.3,1.4-0.7v0.1c-0.6,0.7-1.6,1.5-3,1.5C179.2,40.3,178.1,39.4,178.1,37.9z M178.9,32.5c0-1,0.9-2,3.5-2.1v0.1
				c-0.8,0.1-1.2,0.7-1.2,1.4c0,0.7,0.5,1.1,1.2,1.2c-0.3,0.5-1.1,0.9-1.8,0.9C179.5,34,178.9,33.3,178.9,32.5z M184.4,38.2v-5.8
				c0-0.9-0.4-1.7-1.3-1.8v-0.1c3.2,0.1,4.4,1.3,4.4,3.8v4.6c0,0.6,0.2,0.8,0.5,0.8c0.3,0,0.6-0.3,0.9-0.9h0.1
				c-0.3,1.1-1.3,1.5-2.5,1.5C185.1,40.3,184.4,39.8,184.4,38.2z"/>
			<path class="st2" d="M189.7,40c1.1,0,1.4-0.5,1.4-1v-6.8c0-0.7-0.3-1-1.4-1v-0.1c1.8,0,3.2-0.2,4.6-0.7v8.7c0,0.5,0.3,1,1.4,1
				v0.1h-6V40z M196.4,40c1.1,0,1.4-0.5,1.4-1v-6c0-1.1-0.6-1.6-1.5-1.6c-0.5,0-1,0.2-1.5,0.6V32c0.5-0.8,1.8-1.5,3.2-1.5
				c1.7,0,2.9,0.8,2.9,2.7v6c0,0.5,0.3,1,1.4,1v0.1h-6V40z"/>
			<path class="st2" d="M208.3,30.5c-1.1,0.1-1.6,1.1-1.6,4.7c0,2.8,1.4,4.3,3.1,4.3c1.1,0,1.9-0.3,2.8-1v0.1c-1,1.3-2.8,1.7-4,1.7
				c-2.4,0-5.1-1.8-5.1-5c0-3.2,2.7-4.9,4.9-4.9V30.5z M212.6,32.6c0,1-0.7,1.8-1.9,1.8c-0.9,0-1.5-0.6-1.7-1.2
				c0.5-0.2,0.9-0.9,0.9-1.4c0-0.4-0.1-1.1-0.8-1.3v-0.1C211.6,30.4,212.6,31.5,212.6,32.6z"/>
			<path class="st2" d="M214,35.3c0-3.2,2.4-4.9,4.7-4.9v0.1c-1.1,0.1-1.4,1.1-1.4,4.7c0,2.8,1.2,4.3,2.9,4.3c1.1,0,1.9-0.3,2.8-1
				v0.1c-1,1.3-2.8,1.7-4,1.7C216.5,40.3,214,38.5,214,35.3z M218.3,34.5c1.7,0,2.4-0.5,2.4-2.1c0-0.9-0.4-1.8-1.2-1.9v-0.1
				c2.5,0,3.7,1.8,3.7,3.2c0,0.3,0,0.7-0.1,1h-4.8V34.5z"/>
		</g>
	</g>
</g>
</svg>
