<svg id="Layer_1" data-name="Layer 1" xmlns="http://www.w3.org/2000/svg" viewBox="0 0 320 50"><defs><style>.cls-1{fill:#fbae17;}.cls-2{fill:#fff;}.cls-3{fill:none;}</style></defs><title>Artboard 1</title><path class="cls-1" d="M11.81,47.42H84.19A6.37,6.37,0,0,0,89.84,44l8.37-16.14a6.38,6.38,0,0,0,0-5.86L89.84,5.85a6.37,6.37,0,0,0-5.65-3.43H11.81A3.86,3.86,0,0,0,8,6.28V43.56A3.86,3.86,0,0,0,11.81,47.42Z"/><path class="cls-2" d="M44.89,28.41l.35-.51c.26-.36.53-.37.93-.15a4,4,0,0,0,2.31.84c1.06,0,1.7-.53,1.7-1.3,0-2.17-5.31-1.72-5.31-5.26,0-2,1.67-3.31,3.84-3.31a5.31,5.31,0,0,1,2.93.87.63.63,0,0,1,.21.91l-.29.53c-.24.47-.58.4-.91.23a3.77,3.77,0,0,0-2-.63c-1.05,0-1.73.52-1.73,1.29,0,2.13,5.31,1.58,5.31,5.21,0,1.84-1.38,3.37-3.77,3.37A6,6,0,0,1,45,29.34.59.59,0,0,1,44.89,28.41Z"/><path class="cls-2" d="M56.84,20.7H53.77A.59.59,0,0,1,53.1,20v-.45a.6.6,0,0,1,.67-.67H62a.59.59,0,0,1,.66.67V20a.59.59,0,0,1-.66.66H58.89v8.93a.59.59,0,0,1-.67.67h-.73a.58.58,0,0,1-.65-.67Z"/><path class="cls-2" d="M65.32,19.46a.72.72,0,0,1,.75-.54h1a.71.71,0,0,1,.75.54l3.56,10.07c.16.47,0,.77-.54.77h-.74a.72.72,0,0,1-.76-.54l-.8-2.38h-4l-.79,2.36a.7.7,0,0,1-.75.56H62.3c-.5,0-.7-.3-.54-.77Zm2.74,6.24-1-3.05c-.19-.64-.45-1.76-.45-1.76h0s-.26,1.12-.45,1.76l-1,3.05Z"/><path class="cls-2" d="M72.85,19.59a.59.59,0,0,1,.66-.67h3.07a5.21,5.21,0,0,1,2.17.3,3.17,3.17,0,0,1,1.91,3.11,3.3,3.3,0,0,1-1.89,3.11v0a3.8,3.8,0,0,1,.36.59L81,29.5c.27.47.07.8-.46.8h-.87a.82.82,0,0,1-.79-.46l-2-3.79h-2v3.58a.59.59,0,0,1-.66.67h-.73a.59.59,0,0,1-.66-.67Zm3.91,4.67a1.67,1.67,0,0,0,1.8-1.81,1.54,1.54,0,0,0-.9-1.56,2.85,2.85,0,0,0-1.24-.19H74.9v3.56Z"/><path class="cls-2" d="M24.64,30.94a.46.46,0,0,1-.23-.06.5.5,0,0,1-.25-.6L29.44,14a1.11,1.11,0,0,1,1.07-.78h0a1.11,1.11,0,0,1,1.07.78l1.07,3.22a.38.38,0,0,1-.24.48.39.39,0,0,1-.49-.24l-1.07-3.22a.35.35,0,0,0-.34-.26h0a.36.36,0,0,0-.35.26L25.39,29l6.72-9.2a2.13,2.13,0,0,1,1.69-.85h4.48a1.12,1.12,0,0,1,.66,2l-4.09,3-.05,0,1.59,4.86a1.13,1.13,0,0,1-1.74,1.26l-3.54-2.57a1.14,1.14,0,0,1-.46-.91,1.11,1.11,0,0,1,.46-.91l3-2.15a.1.1,0,0,1,.05,0l4.36-3.17a.35.35,0,0,0,.13-.41.35.35,0,0,0-.34-.25H33.8a1.33,1.33,0,0,0-1.07.54L25.05,30.73A.52.52,0,0,1,24.64,30.94Zm9.51-6.51L31.56,26.3a.38.38,0,0,0-.15.3.38.38,0,0,0,.15.29l3.54,2.57a.36.36,0,0,0,.43,0,.35.35,0,0,0,.13-.4Z"/><path class="cls-2" d="M24.91,22.86a.38.38,0,0,1-.22-.07L22.08,21a1.13,1.13,0,0,1,.66-2h3.2a.38.38,0,0,1,0,.76h-3.2a.35.35,0,0,0-.35.25.38.38,0,0,0,.14.41l2.6,1.84a.37.37,0,0,1,.09.53A.36.36,0,0,1,24.91,22.86Z"/><path class="cls-2" d="M28.47,36.33a1.29,1.29,0,0,1-.62-.17l-6.67-3.78a.39.39,0,0,1-.19-.33V23.9a.38.38,0,0,1,.76,0v7.92l6.48,3.68a.48.48,0,0,0,.49,0l4.73-3a.38.38,0,1,1,.41.64l-4.73,3A1.3,1.3,0,0,1,28.47,36.33Z"/><rect class="cls-3" width="320" height="50"/></svg>