<?xml version="1.0" encoding="utf-8"?>
<!-- Generator: Adobe Illustrator 24.0.3, SVG Export Plug-In . SVG Version: 6.00 Build 0)  -->
<svg version="1.1" id="Layer_1" xmlns="http://www.w3.org/2000/svg" xmlns:xlink="http://www.w3.org/1999/xlink" x="0px" y="0px"
	 viewBox="0 0 728 90" style="enable-background:new 0 0 728 90;" xml:space="preserve">
<style type="text/css">
	.st0{clip-path:url(#SVGID_2_);}
	.st1{enable-background:new    ;}
	.st2{fill:#FFFFFF;}
</style>
<title>Artboard 1 copy 6</title>
<g>
	<defs>
		<rect id="SVGID_1_" y="0" width="728" height="90"/>
	</defs>
	<clipPath id="SVGID_2_">
		<use xlink:href="#SVGID_1_"  style="overflow:visible;"/>
	</clipPath>
	<g class="st0">
		<g class="st1">
			<path class="st2" d="M18,28.3c2.6,0,4.7-0.3,6.6-1.1v12.6c0,0.7,0.4,1.4,2.1,1.4v0.2H18v-0.2c1.7,0,2.1-0.7,2.1-1.4V30
				c0-1-0.5-1.5-2.1-1.5V28.3z M19.4,23.1c0-1.4,1.2-2.4,2.8-2.4c1.7,0,2.8,1,2.8,2.4c0,1.5-1.2,2.4-2.8,2.4
				C20.6,25.5,19.4,24.6,19.4,23.1z"/>
			<path class="st2" d="M33.3,38.1c-0.9,0-1.6,0.6-1.6,1.4c0,0.8,0.6,1.8,2.5,2v0.2c-3.7-0.1-5.7-1.1-5.7-2.8c0-1.3,1.1-2.1,2.4-2.1
				C31.9,36.9,32.8,37.5,33.3,38.1z M34.2,27.4c-1,0.2-2,0.7-2,1.9c0.1,3.2,9.1,3.8,9.1,8.2c0,2.7-2.3,4.1-5.9,4.3v-0.2
				c1.2-0.2,2.5-0.6,2.5-2.1c0-2.9-9.1-4-9.1-8.2c0-2.4,2.3-3.9,5.4-4.1V27.4z M40.7,30.1c0,0.9-0.7,1.7-2.1,1.7
				c-1.2,0-2-0.5-2.4-1.3c0.8-0.1,1.3-0.6,1.3-1.3c0-0.8-1.1-1.6-2.2-1.8v-0.2C38.5,27.4,40.7,28.6,40.7,30.1z"/>
			<path class="st2" d="M50.7,34.5c0-4.7,3.6-7.1,6.8-7.2v0.2c-1.6,0.2-2.1,1.6-2.1,6.9c0,4,1.8,6.2,4.3,6.2c1.6,0,2.8-0.4,4.1-1.5
				v0.2c-1.4,1.8-4.1,2.5-5.9,2.5C54.3,41.7,50.7,39.1,50.7,34.5z M56.9,33.3c2.4,0,3.5-0.8,3.5-3.1c0-1.3-0.6-2.6-1.8-2.7v-0.2
				c3.7,0,5.5,2.6,5.5,4.7c0,0.4-0.1,1-0.1,1.4h-7V33.3z"/>
			<path class="st2" d="M66.1,38.2c0-2.4,2.2-3.8,5.3-3.8h3v0.2h-0.8c-2,0-2.9,1.3-2.9,3c0,1.5,0.4,2.7,1.8,2.7c0.8,0,1.4-0.4,2-1
				v0.2c-0.9,1.1-2.4,2.3-4.4,2.3C67.6,41.7,66,40.4,66.1,38.2z M67.2,30.3c0-1.4,1.3-2.9,5.1-3v0.2c-1.1,0.2-1.8,1.1-1.8,2
				c0,1,0.7,1.6,1.8,1.7c-0.4,0.8-1.6,1.3-2.7,1.3C68.1,32.5,67.2,31.5,67.2,30.3z M75.2,38.6v-8.5c0-1.4-0.5-2.4-1.9-2.6v-0.2
				c4.6,0.2,6.5,1.9,6.5,5.6v6.8c0,0.8,0.3,1.1,0.8,1.1c0.4,0,0.9-0.4,1.3-1.3h0.2c-0.4,1.5-1.9,2.3-3.6,2.3
				C76.2,41.7,75.2,41,75.2,38.6z"/>
		</g>
		<g class="st1">
			<path class="st2" d="M88.3,38.1c-0.9,0-1.6,0.6-1.6,1.4c0,0.8,0.6,1.8,2.5,2v0.2c-3.7-0.1-5.7-1.1-5.7-2.8c0-1.3,1.1-2.1,2.4-2.1
				C86.9,36.9,87.9,37.5,88.3,38.1z M89.2,27.4c-1,0.2-2,0.7-2,1.9c0.1,3.2,9.1,3.8,9.1,8.2c0,2.7-2.3,4.1-5.9,4.3v-0.2
				c1.2-0.2,2.5-0.6,2.5-2.1c0-2.9-9.1-4-9.1-8.2c0-2.4,2.3-3.9,5.4-4.1V27.4z M95.8,30.1c0,0.9-0.7,1.7-2.1,1.7
				c-1.2,0-2-0.5-2.4-1.3c0.8-0.1,1.3-0.6,1.3-1.3c0-0.8-1.1-1.6-2.2-1.8v-0.2C93.6,27.4,95.8,28.6,95.8,30.1z"/>
		</g>
		<g class="st1">
			<path class="st2" d="M98.6,28.7c-0.3-0.6-0.7-1-1.5-1v-0.2h7.8v0.2c-1,0-1.4,0.7-0.9,1.6l3.6,7.6l-2.4,4.5h-0.2L98.6,28.7z
				 M97.4,45.9c0-1.2,0.9-2.2,2.4-2.6c-0.1,0.3-0.1,0.5-0.1,0.7c0,1.1,0.6,1.9,1.6,1.9c1,0,1.8-1,2.8-2.8h0.2
				c-1.5,2.9-2.6,5.3-4.5,5.3C98.3,48.4,97.4,47.4,97.4,45.9z M108.8,34.2c0.5-0.9,0.8-2.1,0.8-3.6c0-1.5-0.9-2.9-2.8-2.9v-0.2h6.9
				v0.2c-0.9,0-1.3,0.4-1.8,1.3l-2.9,5.5L108.8,34.2z"/>
		</g>
		<g class="st1">
			<path class="st2" d="M125,29.4l3.6,7.6l-2.4,4.5h-0.2l-6.5-12.8c-0.3-0.6-0.7-1-1.5-1v-0.2h7.8v0.2
				C124.9,27.7,124.6,28.4,125,29.4z M134.2,29.4l3.6,7.6l-2.4,4.5h-0.2l-4.4-8.7l-0.9,1.7l-0.2-0.2c0.4-0.9,0.6-2.3,0.2-3.1
				l-1.3-2.4c-0.3-0.6-0.7-1-1.5-1v-0.2h7.8v0.2C134.1,27.7,133.7,28.4,134.2,29.4z M143.9,27.6v0.2c-0.9,0-1.3,0.4-1.8,1.3
				l-2.9,5.5l-0.2-0.2c0.5-0.9,0.8-2.1,0.8-3.6c0-1.5-0.9-2.9-2.8-2.9v-0.2H143.9z"/>
			<path class="st2" d="M144.1,28.3c2.6,0,4.7-0.3,6.6-1.1v12.6c0,0.7,0.4,1.4,2.1,1.4v0.2h-8.8v-0.2c1.7,0,2.1-0.7,2.1-1.4V30
				c0-1-0.5-1.5-2.1-1.5V28.3z M145.5,23.1c0-1.4,1.2-2.4,2.8-2.4c1.7,0,2.8,1,2.8,2.4c0,1.5-1.2,2.4-2.8,2.4
				C146.7,25.5,145.5,24.6,145.5,23.1z"/>
			<path class="st2" d="M164.8,39.3v0.2c-0.9,1.3-2.7,2.3-4.8,2.3c-2.5,0-4.3-1.1-4.3-3.9v-9.1h-1.4l0.3-0.4h1.1v-3
				c1.7,0,3.4-0.5,4.6-1.6v4.6h3.8l-0.3,0.4h-3.4v9.2c0,1.4,0.5,2.8,1.8,2.8C162.9,40.7,163.9,40.2,164.8,39.3z"/>
			<path class="st2" d="M172,39.9c0,0.7,0.4,1.4,2.1,1.4v0.2h-8.8v-0.2c1.7,0,2.1-0.7,2.1-1.4V23.7c0-1-0.5-1.5-2.1-1.5v-0.2
				c2.6,0,4.7-0.3,6.6-1.1V39.9z M181.7,31.2v8.7c0,0.7,0.4,1.4,2.1,1.4v0.2h-8.7v-0.2c1.6,0,2.1-0.7,2.1-1.4v-8.7
				c0-1.6-0.8-2.4-2.2-2.4c-0.8,0-1.4,0.2-2.1,0.9v-0.2c0.8-1.2,2.6-2.3,4.6-2.3C179.9,27.3,181.7,28.4,181.7,31.2z"/>
		</g>
		<g class="st1">
			<path class="st2" d="M25.6,69.4v0.2c-2.2-0.1-4-0.5-5.4-1.4l-0.9,1.4H19v-6.8h0.2C20.2,65.9,22.1,68.3,25.6,69.4z M33.7,63.9
				c0,3.6-2.7,5.5-7,5.7v-0.2c1.5-0.3,3-1.2,3-2.8c0-4.9-10.6-5.3-10.6-11c0-3.3,2.7-5.3,6.4-5.5v0.2c-1.3,0.2-2.4,1-2.4,2.6
				C23.1,57.7,33.7,58.2,33.7,63.9z M26.7,50.3v-0.2c2.1,0.1,3.7,0.6,5,1.5l1-1.5H33v6.2h-0.2C31.9,53.3,29.5,50.9,26.7,50.3z"/>
		</g>
		<g class="st1">
			<path class="st2" d="M46.4,67.1v0.2c-0.9,1.3-2.7,2.3-4.8,2.3c-2.5,0-4.3-1.1-4.3-3.9v-9.1h-1.4l0.3-0.4h1.1v-3
				c1.7,0,3.4-0.5,4.6-1.6v4.6h3.8l-0.3,0.4h-3.4v9.2c0,1.4,0.5,2.8,1.8,2.8C44.5,68.6,45.5,68.1,46.4,67.1z"/>
			<path class="st2" d="M47.3,66c0-2.4,2.2-3.8,5.3-3.8h3v0.2h-0.8c-2,0-2.9,1.3-2.9,3c0,1.5,0.4,2.7,1.8,2.7c0.8,0,1.4-0.4,2-1v0.2
				c-0.9,1.1-2.4,2.3-4.4,2.3C48.9,69.6,47.3,68.2,47.3,66z M48.4,58.1c0-1.4,1.3-2.9,5.1-3v0.2c-1.1,0.2-1.8,1.1-1.8,2
				c0,1,0.7,1.6,1.8,1.7c-0.4,0.8-1.6,1.3-2.7,1.3C49.3,60.3,48.4,59.3,48.4,58.1z M56.5,66.4v-8.5c0-1.4-0.5-2.4-1.9-2.6v-0.2
				c4.6,0.2,6.5,1.9,6.5,5.6v6.8c0,0.8,0.3,1.1,0.8,1.1c0.4,0,0.9-0.4,1.3-1.3h0.2c-0.4,1.5-1.9,2.3-3.6,2.3
				C57.5,69.6,56.5,68.8,56.5,66.4z"/>
		</g>
		<g class="st1">
			<path class="st2" d="M70.9,67.7c0,0.7,0.4,1.4,2.1,1.4v0.2h-8.8v-0.2c1.7,0,2.1-0.7,2.1-1.4v-9.9c0-1-0.5-1.5-2.1-1.5v-0.2
				c2.6,0,4.7-0.3,6.6-1.1V67.7z M78.4,58.1c0,1.9-1.4,3.2-2.9,3.2c-0.7,0-1.3-0.2-1.6-0.6c0.5-0.3,1.1-0.9,1.1-1.9
				c0-0.8-0.6-1.5-1.6-1.5c-0.7,0-1.3,0.4-1.7,1.1v-0.2c0.5-1.8,1.9-3,3.6-3C77.3,55.1,78.4,56.4,78.4,58.1z"/>
		</g>
		<g class="st1">
			<path class="st2" d="M86.4,69.1c1.7,0,2.1-0.7,2.1-1.4V52c0-0.8-0.4-1.4-2.1-1.4v-0.2h8.9v0.2c-1.7,0-2.1,0.7-2.1,1.4v15.7
				c0,0.8,0.4,1.4,2.1,1.4v0.2h-8.9V69.1z"/>
			<path class="st2" d="M97.2,69.1c1.7,0,2.1-0.7,2.1-1.4v-9.9c0-1-0.5-1.5-2.1-1.5v-0.2c2.6,0,4.7-0.3,6.6-1.1v12.6
				c0,0.7,0.4,1.4,2.1,1.4v0.2h-8.8V69.1z M107,69.1c1.6,0,2.1-0.7,2.1-1.4V59c0-1.6-0.8-2.4-2.2-2.4c-0.8,0-1.4,0.2-2.1,0.9v-0.2
				c0.8-1.2,2.6-2.3,4.6-2.3c2.5,0,4.3,1.2,4.3,3.9v8.7c0,0.7,0.4,1.4,2.1,1.4v0.2H107V69.1z"/>
			<path class="st2" d="M122,66c-0.9,0-1.6,0.6-1.6,1.4c0,0.8,0.6,1.8,2.5,2v0.2c-3.7-0.1-5.7-1.1-5.7-2.8c0-1.3,1.1-2.1,2.4-2.1
				C120.7,64.7,121.6,65.3,122,66z M123,55.3c-1,0.2-2,0.7-2,1.9c0.1,3.2,9.1,3.8,9.1,8.2c0,2.7-2.3,4.1-5.9,4.3v-0.2
				c1.2-0.2,2.5-0.6,2.5-2.1c0-2.9-9.1-4-9.1-8.2c0-2.4,2.3-3.9,5.4-4.1V55.3z M129.5,58c0,0.9-0.7,1.7-2.1,1.7
				c-1.2,0-2-0.5-2.4-1.3c0.8-0.1,1.3-0.6,1.3-1.3c0-0.8-1.1-1.6-2.2-1.8v-0.2C127.3,55.3,129.5,56.4,129.5,58z"/>
			<path class="st2" d="M138.3,65.6c0,1.6,0.5,2.4,1.9,2.4c0.7,0,1.3-0.2,1.9-0.9v0.2c-0.6,1.2-2.1,2.3-4.3,2.3
				c-2.5,0-4.1-1.2-4.1-3.9v-7.8c0-1-0.5-1.5-2.1-1.5v-0.2c2.6,0,4.7-0.3,6.6-1.1V65.6z M147.5,67.4c0,0.8,0.2,1.1,0.8,1.1
				c0.4,0,0.9-0.4,1.3-1.3h0.2c-0.4,1.5-1.9,2.3-3.8,2.3c-1.9,0-3.1-1.1-3.1-2.7v-9c0-1-0.5-1.5-2-1.5v-0.2c2.5,0,4.2-0.3,6.6-1.1
				V67.4z"/>
		</g>
		<g class="st1">
			<path class="st2" d="M157.6,67.7c0,0.7,0.4,1.4,2.1,1.4v0.2h-8.8v-0.2c1.7,0,2.1-0.7,2.1-1.4v-9.9c0-1-0.5-1.5-2.1-1.5v-0.2
				c2.6,0,4.7-0.3,6.6-1.1V67.7z M165.1,58.1c0,1.9-1.4,3.2-2.9,3.2c-0.7,0-1.3-0.2-1.6-0.6c0.5-0.3,1.1-0.9,1.1-1.9
				c0-0.8-0.6-1.5-1.6-1.5c-0.7,0-1.3,0.4-1.7,1.1v-0.2c0.5-1.8,1.9-3,3.6-3C164,55.1,165.1,56.4,165.1,58.1z"/>
		</g>
		<g class="st1">
			<path class="st2" d="M166.3,66c0-2.4,2.2-3.8,5.3-3.8h3v0.2h-0.8c-2,0-2.9,1.3-2.9,3c0,1.5,0.4,2.7,1.8,2.7c0.8,0,1.4-0.4,2-1
				v0.2c-0.9,1.1-2.4,2.3-4.4,2.3C167.8,69.6,166.2,68.2,166.3,66z M167.4,58.1c0-1.4,1.3-2.9,5.1-3v0.2c-1.1,0.2-1.8,1.1-1.8,2
				c0,1,0.7,1.6,1.8,1.7c-0.4,0.8-1.6,1.3-2.7,1.3C168.3,60.3,167.4,59.3,167.4,58.1z M175.4,66.4v-8.5c0-1.4-0.5-2.4-1.9-2.6v-0.2
				c4.6,0.2,6.5,1.9,6.5,5.6v6.8c0,0.8,0.3,1.1,0.8,1.1c0.4,0,0.9-0.4,1.3-1.3h0.2c-0.4,1.5-1.9,2.3-3.6,2.3
				C176.5,69.6,175.4,68.8,175.4,66.4z"/>
			<path class="st2" d="M183.2,69.1c1.7,0,2.1-0.7,2.1-1.4v-9.9c0-1-0.5-1.5-2.1-1.5v-0.2c2.6,0,4.7-0.3,6.6-1.1v12.6
				c0,0.7,0.4,1.4,2.1,1.4v0.2h-8.8V69.1z M192.9,69.1c1.6,0,2.1-0.7,2.1-1.4V59c0-1.6-0.8-2.4-2.2-2.4c-0.8,0-1.4,0.2-2.1,0.9v-0.2
				c0.8-1.2,2.6-2.3,4.6-2.3c2.5,0,4.3,1.2,4.3,3.9v8.7c0,0.7,0.4,1.4,2.1,1.4v0.2h-8.7V69.1z"/>
			<path class="st2" d="M210.3,55.3c-1.6,0.2-2.4,1.6-2.4,6.9c0,4,2,6.2,4.5,6.2c1.6,0,2.8-0.4,4.1-1.5v0.2
				c-1.4,1.8-4.1,2.5-5.9,2.5c-3.6,0-7.4-2.6-7.4-7.3s3.9-7.1,7.1-7.2V55.3z M216.5,58.2c0,1.5-1,2.7-2.8,2.7
				c-1.4,0-2.3-0.9-2.4-1.8c0.8-0.3,1.3-1.3,1.3-2c0-0.6-0.2-1.6-1.2-1.8v-0.2C215.1,55.1,216.5,56.7,216.5,58.2z"/>
			<path class="st2" d="M218.6,62.3c0-4.7,3.6-7.1,6.8-7.2v0.2c-1.6,0.2-2.1,1.6-2.1,6.9c0,4,1.8,6.2,4.3,6.2c1.6,0,2.8-0.4,4.1-1.5
				v0.2c-1.4,1.8-4.1,2.5-5.9,2.5C222.2,69.6,218.6,66.9,218.6,62.3z M224.8,61.1c2.4,0,3.5-0.8,3.5-3.1c0-1.3-0.6-2.6-1.8-2.7v-0.2
				c3.7,0,5.5,2.6,5.5,4.7c0,0.4-0.1,1-0.1,1.4h-7V61.1z"/>
		</g>
		<g class="st1">
			<path class="st2" d="M258.4,54.6l-6.3,14.7h-0.4l-8-17.3c-0.4-0.9-1.5-1.4-2.9-1.4v-0.2h7.5l5.8,12.6l4.3-8.9V54.6z M246.9,69.1
				v0.2h-6.1v-0.2c1.8,0,2.7-1.2,2.7-2.3l0.2-12l0.2,0.5l0.2,11.5C244.2,68,245.1,69.1,246.9,69.1z M264.2,52v15.7
				c0,0.8,0.4,1.4,2.1,1.4v0.2h-8.9v-0.2c1.7,0,2.1-0.7,2.1-1.4V50.4h6.8v0.2C264.6,50.5,264.2,51.2,264.2,52z"/>
		</g>
		<g class="st1">
			<path class="st2" d="M275.1,55.3c-1.6,0.2-2.2,1.6-2.2,7c0,5.2,0.6,7,2.2,7.1v0.2c-3.2,0-6.9-2.6-6.9-7.3s3.7-7.1,6.9-7.2V55.3z
				 M283.1,62.3c0,4.6-3.7,7.3-6.9,7.3v-0.2c1.6-0.2,2.2-1.9,2.2-7.1c0-5.5-0.6-6.8-2.2-7v-0.2C279.4,55.1,283.1,57.6,283.1,62.3z"
				/>
		</g>
		<g class="st1">
			<path class="st2" d="M295.7,67.1v0.2c-0.9,1.3-2.7,2.3-4.8,2.3c-2.5,0-4.3-1.1-4.3-3.9v-9.1h-1.4l0.3-0.4h1.1v-3
				c1.7,0,3.4-0.5,4.6-1.6v4.6h3.8l-0.3,0.4h-3.4v9.2c0,1.4,0.5,2.8,1.8,2.8C293.9,68.6,294.8,68.1,295.7,67.1z"/>
		</g>
		<g class="st1">
			<path class="st2" d="M303.7,55.3c-1.6,0.2-2.2,1.6-2.2,7c0,5.2,0.6,7,2.2,7.1v0.2c-3.2,0-6.9-2.6-6.9-7.3s3.7-7.1,6.9-7.2V55.3z
				 M311.7,62.3c0,4.6-3.7,7.3-6.9,7.3v-0.2c1.6-0.2,2.2-1.9,2.2-7.1c0-5.5-0.6-6.8-2.2-7v-0.2C308,55.1,311.7,57.6,311.7,62.3z"/>
		</g>
		<g class="st1">
			<path class="st2" d="M320.2,67.7c0,0.7,0.4,1.4,2.1,1.4v0.2h-8.8v-0.2c1.7,0,2.1-0.7,2.1-1.4v-9.9c0-1-0.5-1.5-2.1-1.5v-0.2
				c2.6,0,4.7-0.3,6.6-1.1V67.7z M327.7,58.1c0,1.9-1.4,3.2-2.9,3.2c-0.7,0-1.3-0.2-1.6-0.6c0.5-0.3,1.1-0.9,1.1-1.9
				c0-0.8-0.6-1.5-1.6-1.5c-0.7,0-1.3,0.4-1.7,1.1v-0.2c0.5-1.8,1.9-3,3.6-3C326.7,55.1,327.7,56.4,327.7,58.1z"/>
		</g>
		<g class="st1">
			<path class="st2" d="M336.3,55.3c-1.6,0.2-2.4,1.6-2.4,6.9c0,4,2,6.2,4.5,6.2c1.6,0,2.8-0.4,4.1-1.5v0.2
				c-1.4,1.8-4.1,2.5-5.9,2.5c-3.6,0-7.4-2.6-7.4-7.3s3.9-7.1,7.1-7.2V55.3z M342.5,58.2c0,1.5-1,2.7-2.8,2.7
				c-1.4,0-2.3-0.9-2.4-1.8c0.8-0.3,1.3-1.3,1.3-2c0-0.6-0.2-1.6-1.2-1.8v-0.2C341.1,55.1,342.5,56.7,342.5,58.2z"/>
		</g>
		<g class="st1">
			<path class="st2" d="M344.8,56.5c-0.3-0.6-0.7-1-1.5-1v-0.2h7.8v0.2c-1,0-1.4,0.7-0.9,1.6l3.6,7.6l-2.4,4.5h-0.2L344.8,56.5z
				 M343.6,73.8c0-1.2,0.9-2.2,2.4-2.6c-0.1,0.3-0.1,0.5-0.1,0.7c0,1.1,0.6,1.9,1.6,1.9c1,0,1.8-1,2.8-2.8h0.2
				c-1.5,2.9-2.6,5.3-4.5,5.3C344.5,76.2,343.6,75.2,343.6,73.8z M355,62c0.5-0.9,0.8-2.1,0.8-3.6c0-1.5-0.9-2.9-2.8-2.9v-0.2h6.9
				v0.2c-0.9,0-1.3,0.4-1.8,1.3l-2.9,5.5L355,62z"/>
		</g>
		<g class="st1">
			<path class="st2" d="M367.1,55.3c-1.6,0.2-2.4,1.6-2.4,6.9c0,4,2,6.2,4.5,6.2c1.6,0,2.8-0.4,4.1-1.5v0.2
				c-1.4,1.8-4.1,2.5-5.9,2.5c-3.6,0-7.4-2.6-7.4-7.3s3.9-7.1,7.1-7.2V55.3z M373.3,58.2c0,1.5-1,2.7-2.8,2.7
				c-1.4,0-2.3-0.9-2.4-1.8c0.8-0.3,1.3-1.3,1.3-2c0-0.6-0.2-1.6-1.2-1.8v-0.2C371.9,55.1,373.3,56.7,373.3,58.2z"/>
			<path class="st2" d="M374.8,49.9c2.6,0,4.7-0.3,6.6-1.1v18.9c0,0.7,0.4,1.4,2.1,1.4v0.2h-8.8v-0.2c1.7,0,2.1-0.7,2.1-1.4V51.6
				c0-1-0.5-1.5-2.1-1.5V49.9z"/>
			<path class="st2" d="M385.2,62.3c0-4.7,3.6-7.1,6.8-7.2v0.2c-1.6,0.2-2.1,1.6-2.1,6.9c0,4,1.8,6.2,4.3,6.2c1.6,0,2.8-0.4,4.1-1.5
				v0.2c-1.4,1.8-4.1,2.5-5.9,2.5C388.8,69.6,385.2,66.9,385.2,62.3z M391.4,61.1c2.4,0,3.5-0.8,3.5-3.1c0-1.3-0.6-2.6-1.8-2.7v-0.2
				c3.7,0,5.5,2.6,5.5,4.7c0,0.4-0.1,1-0.1,1.4h-7V61.1z"/>
		</g>
	</g>
</g>
</svg>
