<?xml version="1.0" encoding="utf-8"?>
<!-- Generator: Adobe Illustrator 24.0.3, SVG Export Plug-In . SVG Version: 6.00 Build 0)  -->
<svg version="1.1" id="Layer_1" xmlns="http://www.w3.org/2000/svg" xmlns:xlink="http://www.w3.org/1999/xlink" x="0px" y="0px"
	 viewBox="0 0 728 90" style="enable-background:new 0 0 728 90;" xml:space="preserve">
<style type="text/css">
	.st0{clip-path:url(#SVGID_2_);}
	.st1{enable-background:new    ;}
	.st2{fill:#FFFFFF;}
</style>
<title>Artboard 1 copy 5</title>
<g>
	<defs>
		<rect id="SVGID_1_" y="0" width="728" height="90"/>
	</defs>
	<clipPath id="SVGID_2_">
		<use xlink:href="#SVGID_1_"  style="overflow:visible;"/>
	</clipPath>
	<g class="st0">
		<g class="st1">
			<path class="st2" d="M35.4,38.1l0.1,0.2c-1.4,2.3-4,3.4-6.7,3.4c-4.5,0-10.2-3.2-10.2-9.7c0-7,5.5-9.7,9.5-9.8v0.2
				c-1.9,0.4-4.1,2.3-4.1,9.4c0,7.1,2.9,8.8,6,8.8C32.6,40.6,34.4,39.3,35.4,38.1z M35.6,22.3V29h-0.2c-1.1-3.7-3.1-5.8-5.9-6.6
				v-0.2c2.4,0.1,3.9,0.5,5,1.3l0.8-1.3H35.6z"/>
			<path class="st2" d="M44,39.9c0,0.7,0.4,1.4,2.1,1.4v0.2h-8.8v-0.2c1.7,0,2.1-0.7,2.1-1.4V23.7c0-1-0.5-1.5-2.1-1.5v-0.2
				c2.6,0,4.7-0.3,6.6-1.1V39.9z M53.8,31.2v8.7c0,0.7,0.4,1.4,2.1,1.4v0.2h-8.7v-0.2c1.6,0,2.1-0.7,2.1-1.4v-8.7
				c0-1.6-0.8-2.4-2.2-2.4c-0.8,0-1.4,0.2-2.1,0.9v-0.2c0.8-1.2,2.6-2.3,4.6-2.3C52,27.3,53.8,28.4,53.8,31.2z"/>
			<path class="st2" d="M57.1,38.2c0-2.4,2.2-3.8,5.3-3.8h3v0.2h-0.8c-2,0-2.9,1.3-2.9,3c0,1.5,0.4,2.7,1.8,2.7c0.8,0,1.4-0.4,2-1
				v0.2c-0.9,1.1-2.4,2.3-4.4,2.3C58.6,41.7,57,40.4,57.1,38.2z M58.2,30.3c0-1.4,1.3-2.9,5.1-3v0.2c-1.1,0.2-1.8,1.1-1.8,2
				c0,1,0.7,1.6,1.8,1.7c-0.4,0.8-1.6,1.3-2.7,1.3C59.1,32.5,58.2,31.5,58.2,30.3z M66.3,38.6v-8.5c0-1.4-0.5-2.4-1.9-2.6v-0.2
				c4.6,0.2,6.5,1.9,6.5,5.6v6.8c0,0.8,0.3,1.1,0.8,1.1c0.4,0,0.9-0.4,1.3-1.3h0.2c-0.4,1.5-1.9,2.3-3.6,2.3
				C67.3,41.7,66.3,41,66.3,38.6z"/>
			<path class="st2" d="M74,41.3c1.7,0,2.1-0.7,2.1-1.4V30c0-1-0.5-1.5-2.1-1.5v-0.2c2.6,0,4.7-0.3,6.6-1.1v12.6
				c0,0.7,0.4,1.4,2.1,1.4v0.2H74V41.3z M83.8,41.3c1.6,0,2.1-0.7,2.1-1.4v-8.7c0-1.6-0.8-2.4-2.2-2.4c-0.8,0-1.4,0.2-2.1,0.9v-0.2
				c0.8-1.2,2.6-2.3,4.6-2.3c2.5,0,4.3,1.2,4.3,3.9v8.7c0,0.7,0.4,1.4,2.1,1.4v0.2h-8.7V41.3z"/>
			<path class="st2" d="M94.1,32.3c0-3.6,3.4-5,6.2-5v0.2c-1.2,0.1-1.8,1.6-1.8,4.8c0,3.4,0.6,4.7,1.8,4.8v0.2
				C97.5,37.2,94.1,35.9,94.1,32.3z M101.5,48.2c2.8-0.3,3.7-1.8,3.7-2.8c0-3.9-10.8-0.4-10.8-5.4c0-1.1,0.6-2,1.9-2.8l0.1,0.1
				c-0.2,0.1-0.3,0.3-0.3,0.5c0,3.1,12.7-0.5,12.7,5.6c0,2.9-2.5,4.7-7.2,5V48.2z M94.4,45.9c0-1.6,2-2.1,4.2-2.1
				c-0.5,0.2-1.2,1-1.2,2c0,1.3,1.4,2.3,3,2.5v0.2C97.4,48.4,94.4,47.7,94.4,45.9z M101.5,37.1c1.4-0.1,1.9-1.5,1.9-4.8
				c0-3.2-0.6-4.7-1.9-4.8v-0.2c2.9,0.1,6.4,1.4,6.4,5c0,3.6-3.4,4.9-6.4,4.9V37.1z M103,26.8c0.5-1.4,1.8-3.3,3.7-3.3
				c1.5,0,2.4,0.8,2.4,2.1c0,1.4-1.2,2.2-2.3,2.2c0-1.2-0.6-1.9-1.5-1.9c-0.8,0-1.8,0.5-2.1,1L103,26.8z"/>
			<path class="st2" d="M109.9,28.3c2.6,0,4.7-0.3,6.6-1.1v12.6c0,0.7,0.4,1.4,2.1,1.4v0.2h-8.8v-0.2c1.7,0,2.1-0.7,2.1-1.4V30
				c0-1-0.5-1.5-2.1-1.5V28.3z M111.3,23.1c0-1.4,1.2-2.4,2.8-2.4c1.7,0,2.8,1,2.8,2.4c0,1.5-1.2,2.4-2.8,2.4
				C112.5,25.5,111.3,24.6,111.3,23.1z"/>
			<path class="st2" d="M119.8,41.3c1.7,0,2.1-0.7,2.1-1.4V30c0-1-0.5-1.5-2.1-1.5v-0.2c2.6,0,4.7-0.3,6.6-1.1v12.6
				c0,0.7,0.4,1.4,2.1,1.4v0.2h-8.8V41.3z M129.6,41.3c1.6,0,2.1-0.7,2.1-1.4v-8.7c0-1.6-0.8-2.4-2.2-2.4c-0.8,0-1.4,0.2-2.1,0.9
				v-0.2c0.8-1.2,2.6-2.3,4.6-2.3c2.5,0,4.3,1.2,4.3,3.9v8.7c0,0.7,0.4,1.4,2.1,1.4v0.2h-8.7V41.3z"/>
			<path class="st2" d="M139.9,32.3c0-3.6,3.4-5,6.2-5v0.2c-1.2,0.1-1.8,1.6-1.8,4.8c0,3.4,0.6,4.7,1.8,4.8v0.2
				C143.4,37.2,139.9,35.9,139.9,32.3z M147.3,48.2c2.8-0.3,3.7-1.8,3.7-2.8c0-3.9-10.8-0.4-10.8-5.4c0-1.1,0.6-2,1.9-2.8l0.1,0.1
				c-0.2,0.1-0.3,0.3-0.3,0.5c0,3.1,12.7-0.5,12.7,5.6c0,2.9-2.5,4.7-7.2,5V48.2z M140.2,45.9c0-1.6,2-2.1,4.2-2.1
				c-0.5,0.2-1.2,1-1.2,2c0,1.3,1.4,2.3,3,2.5v0.2C143.3,48.4,140.2,47.7,140.2,45.9z M147.3,37.1c1.4-0.1,1.9-1.5,1.9-4.8
				c0-3.2-0.6-4.7-1.9-4.8v-0.2c2.9,0.1,6.4,1.4,6.4,5c0,3.6-3.4,4.9-6.4,4.9V37.1z M148.8,26.8c0.5-1.4,1.8-3.3,3.7-3.3
				c1.5,0,2.4,0.8,2.4,2.1c0,1.4-1.2,2.2-2.3,2.2c0-1.2-0.6-1.9-1.5-1.9c-0.8,0-1.8,0.5-2.1,1L148.8,26.8z"/>
		</g>
		<g class="st1">
			<path class="st2" d="M24.6,67.7c0,0.7,0.4,1.4,2.1,1.4v0.2H18v-0.2c1.7,0,2.1-0.7,2.1-1.4v-9.9c0-1-0.5-1.5-2.1-1.5v-0.2
				c2.6,0,4.7-0.3,6.6-1.1V67.7z M33.9,59v8.7c0,0.7,0.4,1.4,2.1,1.4v0.2h-8.7v-0.2c1.6,0,2.1-0.7,2.1-1.4V59c0-1.6-0.6-2.4-1.9-2.4
				c-0.8,0-1.5,0.4-1.8,0.8v-0.2c0.6-1.2,2-2.2,4.1-2.2C32.2,55.1,33.9,56.3,33.9,59z M43.1,59v8.7c0,0.7,0.4,1.4,2.1,1.4v0.2h-8.8
				v-0.2c1.6,0,2.1-0.7,2.1-1.4V59c0-1.6-0.6-2.4-1.9-2.4c-0.8,0-1.5,0.4-1.8,0.8v-0.2c0.6-1.2,2-2.2,4.1-2.2
				C41.4,55.1,43.1,56.3,43.1,59z"/>
			<path class="st2" d="M53.6,55.3c-1.6,0.2-2.2,1.6-2.2,7c0,5.2,0.6,7,2.2,7.1v0.2c-3.2,0-6.9-2.6-6.9-7.3s3.7-7.1,6.9-7.2V55.3z
				 M61.6,62.3c0,4.6-3.7,7.3-6.9,7.3v-0.2c1.6-0.2,2.2-1.9,2.2-7.1c0-5.5-0.6-6.8-2.2-7v-0.2C57.9,55.1,61.6,57.6,61.6,62.3z"/>
		</g>
		<g class="st1">
			<path class="st2" d="M74.2,67.1v0.2c-0.9,1.3-2.7,2.3-4.8,2.3c-2.5,0-4.3-1.1-4.3-3.9v-9.1h-1.4l0.3-0.4h1.1v-3
				c1.7,0,3.4-0.5,4.6-1.6v4.6h3.8l-0.3,0.4h-3.4v9.2c0,1.4,0.5,2.8,1.8,2.8C72.4,68.6,73.3,68.1,74.2,67.1z"/>
		</g>
		<g class="st1">
			<path class="st2" d="M82.2,55.3c-1.6,0.2-2.2,1.6-2.2,7c0,5.2,0.6,7,2.2,7.1v0.2c-3.2,0-6.9-2.6-6.9-7.3s3.7-7.1,6.9-7.2V55.3z
				 M90.2,62.3c0,4.6-3.7,7.3-6.9,7.3v-0.2c1.6-0.2,2.2-1.9,2.2-7.1c0-5.5-0.6-6.8-2.2-7v-0.2C86.5,55.1,90.2,57.6,90.2,62.3z"/>
		</g>
		<g class="st1">
			<path class="st2" d="M98.7,67.7c0,0.7,0.4,1.4,2.1,1.4v0.2H92v-0.2c1.7,0,2.1-0.7,2.1-1.4v-9.9c0-1-0.5-1.5-2.1-1.5v-0.2
				c2.6,0,4.7-0.3,6.6-1.1V67.7z M106.2,58.1c0,1.9-1.4,3.2-2.9,3.2c-0.7,0-1.3-0.2-1.6-0.6c0.5-0.3,1.1-0.9,1.1-1.9
				c0-0.8-0.6-1.5-1.6-1.5c-0.7,0-1.3,0.4-1.7,1.1v-0.2c0.5-1.8,1.9-3,3.6-3C105.2,55.1,106.2,56.4,106.2,58.1z"/>
		</g>
		<g class="st1">
			<path class="st2" d="M114.8,55.3c-1.6,0.2-2.4,1.6-2.4,6.9c0,4,2,6.2,4.5,6.2c1.6,0,2.8-0.4,4.1-1.5v0.2
				c-1.4,1.8-4.1,2.5-5.9,2.5c-3.6,0-7.4-2.6-7.4-7.3s3.9-7.1,7.1-7.2V55.3z M121,58.2c0,1.5-1,2.7-2.8,2.7c-1.4,0-2.3-0.9-2.4-1.8
				c0.8-0.3,1.3-1.3,1.3-2c0-0.6-0.2-1.6-1.2-1.8v-0.2C119.6,55.1,121,56.7,121,58.2z"/>
		</g>
		<g class="st1">
			<path class="st2" d="M123.3,56.5c-0.3-0.6-0.7-1-1.5-1v-0.2h7.8v0.2c-1,0-1.4,0.7-0.9,1.6l3.6,7.6l-2.4,4.5h-0.2L123.3,56.5z
				 M122.1,73.8c0-1.2,0.9-2.2,2.4-2.6c-0.1,0.3-0.1,0.5-0.1,0.7c0,1.1,0.6,1.9,1.6,1.9c1,0,1.8-1,2.8-2.8h0.2
				c-1.5,2.9-2.6,5.3-4.5,5.3C123,76.2,122.1,75.2,122.1,73.8z M133.5,62c0.5-0.9,0.8-2.1,0.8-3.6c0-1.5-0.9-2.9-2.8-2.9v-0.2h6.9
				v0.2c-0.9,0-1.3,0.4-1.8,1.3l-2.9,5.5L133.5,62z"/>
		</g>
		<g class="st1">
			<path class="st2" d="M145.6,55.3c-1.6,0.2-2.4,1.6-2.4,6.9c0,4,2,6.2,4.5,6.2c1.6,0,2.8-0.4,4.1-1.5v0.2
				c-1.4,1.8-4.1,2.5-5.9,2.5c-3.6,0-7.4-2.6-7.4-7.3s3.9-7.1,7.1-7.2V55.3z M151.8,58.2c0,1.5-1,2.7-2.8,2.7
				c-1.4,0-2.3-0.9-2.4-1.8c0.8-0.3,1.3-1.3,1.3-2c0-0.6-0.2-1.6-1.2-1.8v-0.2C150.4,55.1,151.8,56.7,151.8,58.2z"/>
			<path class="st2" d="M153.3,49.9c2.6,0,4.7-0.3,6.6-1.1v18.9c0,0.7,0.4,1.4,2.1,1.4v0.2h-8.8v-0.2c1.7,0,2.1-0.7,2.1-1.4V51.6
				c0-1-0.5-1.5-2.1-1.5V49.9z"/>
			<path class="st2" d="M163.7,62.3c0-4.7,3.6-7.1,6.8-7.2v0.2c-1.6,0.2-2.1,1.6-2.1,6.9c0,4,1.8,6.2,4.3,6.2c1.6,0,2.8-0.4,4.1-1.5
				v0.2c-1.4,1.8-4.1,2.5-5.9,2.5C167.3,69.6,163.7,66.9,163.7,62.3z M169.9,61.1c2.4,0,3.5-0.8,3.5-3.1c0-1.3-0.6-2.6-1.8-2.7v-0.2
				c3.7,0,5.5,2.6,5.5,4.7c0,0.4-0.1,1-0.1,1.4h-7V61.1z"/>
			<path class="st2" d="M186,56.2c2.6,0,4.7-0.3,6.6-1.1v12.6c0,0.7,0.4,1.4,2.1,1.4v0.2h-8.8v-0.2c1.7,0,2.1-0.7,2.1-1.4v-9.9
				c0-1-0.5-1.5-2.1-1.5V56.2z M187.4,50.9c0-1.4,1.2-2.4,2.8-2.4c1.7,0,2.8,1,2.8,2.4c0,1.5-1.2,2.4-2.8,2.4
				C188.5,53.4,187.4,52.4,187.4,50.9z"/>
			<path class="st2" d="M195.9,69.1c1.7,0,2.1-0.7,2.1-1.4v-9.9c0-1-0.5-1.5-2.1-1.5v-0.2c2.6,0,4.7-0.3,6.6-1.1v12.6
				c0,0.7,0.4,1.4,2.1,1.4v0.2h-8.8V69.1z M205.6,69.1c1.6,0,2.1-0.7,2.1-1.4V59c0-1.6-0.8-2.4-2.2-2.4c-0.8,0-1.4,0.2-2.1,0.9v-0.2
				c0.8-1.2,2.6-2.3,4.6-2.3c2.5,0,4.3,1.2,4.3,3.9v8.7c0,0.7,0.4,1.4,2.1,1.4v0.2h-8.7V69.1z"/>
			<path class="st2" d="M220.7,66c-0.9,0-1.6,0.6-1.6,1.4c0,0.8,0.6,1.8,2.5,2v0.2c-3.7-0.1-5.7-1.1-5.7-2.8c0-1.3,1.1-2.1,2.4-2.1
				C219.4,64.7,220.3,65.3,220.7,66z M221.6,55.3c-1,0.2-2,0.7-2,1.9c0.1,3.2,9.1,3.8,9.1,8.2c0,2.7-2.3,4.1-5.9,4.3v-0.2
				c1.2-0.2,2.5-0.6,2.5-2.1c0-2.9-9.1-4-9.1-8.2c0-2.4,2.3-3.9,5.4-4.1V55.3z M228.2,58c0,0.9-0.7,1.7-2.1,1.7
				c-1.2,0-2-0.5-2.4-1.3c0.8-0.1,1.3-0.6,1.3-1.3c0-0.8-1.1-1.6-2.2-1.8v-0.2C226,55.3,228.2,56.4,228.2,58z"/>
			<path class="st2" d="M236.9,65.6c0,1.6,0.5,2.4,1.9,2.4c0.7,0,1.3-0.2,1.9-0.9v0.2c-0.6,1.2-2.1,2.3-4.3,2.3
				c-2.5,0-4.1-1.2-4.1-3.9v-7.8c0-1-0.5-1.5-2.1-1.5v-0.2c2.6,0,4.7-0.3,6.6-1.1V65.6z M246.2,67.4c0,0.8,0.2,1.1,0.8,1.1
				c0.4,0,0.9-0.4,1.3-1.3h0.2c-0.4,1.5-1.9,2.3-3.8,2.3c-1.9,0-3.1-1.1-3.1-2.7v-9c0-1-0.5-1.5-2-1.5v-0.2c2.5,0,4.2-0.3,6.6-1.1
				V67.4z"/>
		</g>
		<g class="st1">
			<path class="st2" d="M256.2,67.7c0,0.7,0.4,1.4,2.1,1.4v0.2h-8.8v-0.2c1.7,0,2.1-0.7,2.1-1.4v-9.9c0-1-0.5-1.5-2.1-1.5v-0.2
				c2.6,0,4.7-0.3,6.6-1.1V67.7z M263.7,58.1c0,1.9-1.4,3.2-2.9,3.2c-0.7,0-1.3-0.2-1.6-0.6c0.5-0.3,1.1-0.9,1.1-1.9
				c0-0.8-0.6-1.5-1.6-1.5c-0.7,0-1.3,0.4-1.7,1.1v-0.2c0.5-1.8,1.9-3,3.6-3C262.7,55.1,263.7,56.4,263.7,58.1z"/>
		</g>
		<g class="st1">
			<path class="st2" d="M264.9,66c0-2.4,2.2-3.8,5.3-3.8h3v0.2h-0.8c-2,0-2.9,1.3-2.9,3c0,1.5,0.4,2.7,1.8,2.7c0.8,0,1.4-0.4,2-1
				v0.2c-0.9,1.1-2.4,2.3-4.4,2.3C266.5,69.6,264.9,68.2,264.9,66z M266.1,58.1c0-1.4,1.3-2.9,5.1-3v0.2c-1.1,0.2-1.8,1.1-1.8,2
				c0,1,0.7,1.6,1.8,1.7c-0.4,0.8-1.6,1.3-2.7,1.3C266.9,60.3,266.1,59.3,266.1,58.1z M274.1,66.4v-8.5c0-1.4-0.5-2.4-1.9-2.6v-0.2
				c4.6,0.2,6.5,1.9,6.5,5.6v6.8c0,0.8,0.3,1.1,0.8,1.1c0.4,0,0.9-0.4,1.3-1.3h0.2c-0.4,1.5-1.9,2.3-3.6,2.3
				C275.1,69.6,274.1,68.8,274.1,66.4z"/>
			<path class="st2" d="M281.8,69.1c1.7,0,2.1-0.7,2.1-1.4v-9.9c0-1-0.5-1.5-2.1-1.5v-0.2c2.6,0,4.7-0.3,6.6-1.1v12.6
				c0,0.7,0.4,1.4,2.1,1.4v0.2h-8.8V69.1z M291.6,69.1c1.6,0,2.1-0.7,2.1-1.4V59c0-1.6-0.8-2.4-2.2-2.4c-0.8,0-1.4,0.2-2.1,0.9v-0.2
				c0.8-1.2,2.6-2.3,4.6-2.3c2.5,0,4.3,1.2,4.3,3.9v8.7c0,0.7,0.4,1.4,2.1,1.4v0.2h-8.7V69.1z"/>
			<path class="st2" d="M309,55.3c-1.6,0.2-2.4,1.6-2.4,6.9c0,4,2,6.2,4.5,6.2c1.6,0,2.8-0.4,4.1-1.5v0.2c-1.4,1.8-4.1,2.5-5.9,2.5
				c-3.6,0-7.4-2.6-7.4-7.3s3.9-7.1,7.1-7.2V55.3z M315.2,58.2c0,1.5-1,2.7-2.8,2.7c-1.4,0-2.3-0.9-2.4-1.8c0.8-0.3,1.3-1.3,1.3-2
				c0-0.6-0.2-1.6-1.2-1.8v-0.2C313.7,55.1,315.2,56.7,315.2,58.2z"/>
			<path class="st2" d="M317.2,62.3c0-4.7,3.6-7.1,6.8-7.2v0.2c-1.6,0.2-2.1,1.6-2.1,6.9c0,4,1.8,6.2,4.3,6.2c1.6,0,2.8-0.4,4.1-1.5
				v0.2c-1.4,1.8-4.1,2.5-5.9,2.5C320.8,69.6,317.2,66.9,317.2,62.3z M323.5,61.1c2.4,0,3.5-0.8,3.5-3.1c0-1.3-0.6-2.6-1.8-2.7v-0.2
				c3.7,0,5.5,2.6,5.5,4.7c0,0.4-0.1,1-0.1,1.4h-7V61.1z"/>
		</g>
	</g>
</g>
</svg>
