<?xml version="1.0" encoding="utf-8"?>
<!-- Generator: Adobe Illustrator 24.0.3, SVG Export Plug-In . SVG Version: 6.00 Build 0)  -->
<svg version="1.1" id="Layer_1" xmlns="http://www.w3.org/2000/svg" xmlns:xlink="http://www.w3.org/1999/xlink" x="0px" y="0px"
	 viewBox="0 0 728 90" style="enable-background:new 0 0 728 90;" xml:space="preserve">
<style type="text/css">
	.st0{clip-path:url(#SVGID_2_);}
	.st1{enable-background:new    ;}
	.st2{fill:#263845;}
</style>
<title>Artboard 1 copy 7</title>
<g>
	<defs>
		<rect id="SVGID_1_" y="0" width="728" height="90"/>
	</defs>
	<clipPath id="SVGID_2_">
		<use xlink:href="#SVGID_1_"  style="overflow:visible;"/>
	</clipPath>
	<g class="st0">
		<g class="st1">
			<path class="st2" d="M20.9,26.9l0.2,0.3L21.4,39c0,1.2,0.9,2.3,2.7,2.3v0.2H18v-0.2c1.8,0,2.7-1.2,2.7-2.3L20.9,26.9z M35.7,41.5
				h-3.1L21,24.1c-0.7-1.1-1.5-1.4-2.9-1.4v-0.2h7.4l10.2,15.3V41.5z M35.6,35.1l-0.2-0.3L35.1,25c0-1.2-0.9-2.3-2.7-2.3v-0.2h6.1
				v0.2c-1.8,0-2.7,1.2-2.7,2.3L35.6,35.1z"/>
			<path class="st2" d="M50.9,22.5h5.3l-11,18.9h-5.3L50.9,22.5z M40.7,22.5h8.4L49,22.7c-4.1,0.2-7.4,3.1-8.1,6.5h-0.2V22.5z
				 M47.1,41.3c4.2-0.4,7.5-3,8.7-7.4H56v7.6h-9L47.1,41.3z"/>
		</g>
		<g class="st1">
			<path class="st2" d="M64,23.4c0,1.6-1.7,3.8-4.5,4.9l-0.1-0.2c0.8-0.6,1.6-1.7,1.6-2.7c0-1.3-0.9-1.8-1.9-1.8
				c0.2-1.6,1.2-2.5,2.6-2.5C62.9,21,64,21.9,64,23.4z"/>
		</g>
		<g class="st1">
			<path class="st2" d="M69.7,38.1c-0.9,0-1.6,0.6-1.6,1.4c0,0.8,0.6,1.8,2.5,2v0.2c-3.7-0.1-5.7-1.1-5.7-2.8c0-1.3,1.1-2.1,2.4-2.1
				C68.3,36.9,69.3,37.5,69.7,38.1z M70.6,27.4c-1,0.2-2,0.7-2,1.9c0.1,3.2,9.1,3.8,9.1,8.2c0,2.7-2.3,4.1-5.9,4.3v-0.2
				c1.2-0.2,2.5-0.6,2.5-2.1c0-2.9-9.1-4-9.1-8.2c0-2.4,2.3-3.9,5.4-4.1V27.4z M77.2,30.1c0,0.9-0.7,1.7-2.1,1.7
				c-1.2,0-2-0.5-2.4-1.3c0.8-0.1,1.3-0.6,1.3-1.3c0-0.8-1.1-1.6-2.2-1.8v-0.2C75,27.4,77.2,28.6,77.2,30.1z"/>
			<path class="st2" d="M86.4,22.1c2.6,0,4.7-0.3,6.6-1.1v18.9c0,0.7,0.4,1.4,2.1,1.4v0.2h-8.8v-0.2c1.7,0,2.1-0.7,2.1-1.4V23.7
				c0-1-0.5-1.5-2.1-1.5V22.1z"/>
			<path class="st2" d="M96.8,34.5c0-4.7,3.6-7.1,6.8-7.2v0.2c-1.6,0.2-2.1,1.6-2.1,6.9c0,4,1.8,6.2,4.3,6.2c1.6,0,2.8-0.4,4.1-1.5
				v0.2c-1.4,1.8-4.1,2.5-5.9,2.5C100.4,41.7,96.8,39.1,96.8,34.5z M103.1,33.3c2.4,0,3.5-0.8,3.5-3.1c0-1.3-0.6-2.6-1.8-2.7v-0.2
				c3.7,0,5.5,2.6,5.5,4.7c0,0.4-0.1,1-0.1,1.4h-7V33.3z"/>
			<path class="st2" d="M112.2,38.2c0-2.4,2.2-3.8,5.3-3.8h3v0.2h-0.8c-2,0-2.9,1.3-2.9,3c0,1.5,0.4,2.7,1.8,2.7c0.8,0,1.4-0.4,2-1
				v0.2c-0.9,1.1-2.4,2.3-4.4,2.3C113.8,41.7,112.2,40.4,112.2,38.2z M113.3,30.3c0-1.4,1.3-2.9,5.1-3v0.2c-1.1,0.2-1.8,1.1-1.8,2
				c0,1,0.7,1.6,1.8,1.7c-0.4,0.8-1.6,1.3-2.7,1.3C114.2,32.5,113.3,31.5,113.3,30.3z M121.4,38.6v-8.5c0-1.4-0.5-2.4-1.9-2.6v-0.2
				c4.6,0.2,6.5,1.9,6.5,5.6v6.8c0,0.8,0.3,1.1,0.8,1.1c0.4,0,0.9-0.4,1.3-1.3h0.2c-0.4,1.5-1.9,2.3-3.6,2.3
				C122.4,41.7,121.4,41,121.4,38.6z"/>
			<path class="st2" d="M139.5,29.5v0.2c-0.6-0.7-1.4-1-2.3-1c-1.4,0-2.7,0.6-2.7,5.7c0,5,1.4,5.9,2.7,5.9c0.9,0,1.6-0.4,2.3-1v0.2
				c-0.7,1.2-2.4,2.3-4,2.3c-2.6,0-5.7-1.6-5.7-7.4c0-5.5,3-7.1,5.7-7.1C137,27.3,138.8,28.3,139.5,29.5z M144.9,39.6
				c0,0.8,0.2,1.1,0.8,1.1c0.4,0,0.9-0.4,1.3-1.3h0.2c-0.4,1.5-1.9,2.3-3.6,2.3c-2.2,0-3.2-0.8-3.2-3.1V23.7c0-1-0.5-1.5-2.1-1.5
				v-0.2c2.6,0,4.3-0.3,6.6-1.1V39.6z"/>
			<path class="st2" d="M148.3,28.3c2.6,0,4.7-0.3,6.6-1.1v12.6c0,0.7,0.4,1.4,2.1,1.4v0.2h-8.8v-0.2c1.7,0,2.1-0.7,2.1-1.4V30
				c0-1-0.5-1.5-2.1-1.5V28.3z M149.8,23.1c0-1.4,1.2-2.4,2.8-2.4c1.7,0,2.8,1,2.8,2.4c0,1.5-1.2,2.4-2.8,2.4
				C150.9,25.5,149.8,24.6,149.8,23.1z"/>
			<path class="st2" d="M158.2,41.3c1.7,0,2.1-0.7,2.1-1.4V30c0-1-0.5-1.5-2.1-1.5v-0.2c2.6,0,4.7-0.3,6.6-1.1v12.6
				c0,0.7,0.4,1.4,2.1,1.4v0.2h-8.8V41.3z M168,41.3c1.6,0,2.1-0.7,2.1-1.4v-8.7c0-1.6-0.8-2.4-2.2-2.4c-0.8,0-1.4,0.2-2.1,0.9v-0.2
				c0.8-1.2,2.6-2.3,4.6-2.3c2.5,0,4.3,1.2,4.3,3.9v8.7c0,0.7,0.4,1.4,2.1,1.4v0.2H168V41.3z"/>
			<path class="st2" d="M178.4,32.3c0-3.6,3.4-5,6.2-5v0.2c-1.2,0.1-1.8,1.6-1.8,4.8c0,3.4,0.6,4.7,1.8,4.8v0.2
				C181.8,37.2,178.4,35.9,178.4,32.3z M185.8,48.2c2.8-0.3,3.7-1.8,3.7-2.8c0-3.9-10.8-0.4-10.8-5.4c0-1.1,0.6-2,1.9-2.8l0.1,0.1
				c-0.2,0.1-0.3,0.3-0.3,0.5c0,3.1,12.7-0.5,12.7,5.6c0,2.9-2.5,4.7-7.2,5V48.2z M178.6,45.9c0-1.6,2-2.1,4.2-2.1
				c-0.5,0.2-1.2,1-1.2,2c0,1.3,1.4,2.3,3,2.5v0.2C181.7,48.4,178.6,47.7,178.6,45.9z M185.8,37.1c1.4-0.1,1.9-1.5,1.9-4.8
				c0-3.2-0.6-4.7-1.9-4.8v-0.2c2.9,0.1,6.4,1.4,6.4,5c0,3.6-3.4,4.9-6.4,4.9V37.1z M187.3,26.8c0.5-1.4,1.8-3.3,3.7-3.3
				c1.5,0,2.4,0.8,2.4,2.1c0,1.4-1.2,2.2-2.3,2.2c0-1.2-0.6-1.9-1.5-1.9c-0.8,0-1.8,0.5-2.1,1L187.3,26.8z"/>
		</g>
		<g class="st1">
			<path class="st2" d="M18,56.2c2.6,0,4.7-0.3,6.6-1.1v12.6c0,0.7,0.4,1.4,2.1,1.4v0.2H18v-0.2c1.7,0,2.1-0.7,2.1-1.4v-9.9
				c0-1-0.5-1.5-2.1-1.5V56.2z M19.4,50.9c0-1.4,1.2-2.4,2.8-2.4c1.7,0,2.8,1,2.8,2.4c0,1.5-1.2,2.4-2.8,2.4
				C20.6,53.4,19.4,52.4,19.4,50.9z"/>
			<path class="st2" d="M27.9,69.1c1.7,0,2.1-0.7,2.1-1.4v-9.9c0-1-0.5-1.5-2.1-1.5v-0.2c2.6,0,4.7-0.3,6.6-1.1v12.6
				c0,0.7,0.4,1.4,2.1,1.4v0.2h-8.8V69.1z M37.7,69.1c1.6,0,2.1-0.7,2.1-1.4V59c0-1.6-0.8-2.4-2.2-2.4c-0.8,0-1.4,0.2-2.1,0.9v-0.2
				c0.8-1.2,2.6-2.3,4.6-2.3c2.5,0,4.3,1.2,4.3,3.9v8.7c0,0.7,0.4,1.4,2.1,1.4v0.2h-8.7V69.1z"/>
			<path class="st2" d="M52.8,66c-0.9,0-1.6,0.6-1.6,1.4c0,0.8,0.6,1.8,2.5,2v0.2C50,69.4,48,68.4,48,66.8c0-1.3,1.1-2.1,2.4-2.1
				C51.5,64.7,52.4,65.3,52.8,66z M53.7,55.3c-1,0.2-2,0.7-2,1.9c0.1,3.2,9.1,3.8,9.1,8.2c0,2.7-2.3,4.1-5.9,4.3v-0.2
				c1.2-0.2,2.5-0.6,2.5-2.1c0-2.9-9.1-4-9.1-8.2c0-2.4,2.3-3.9,5.4-4.1V55.3z M60.3,58c0,0.9-0.7,1.7-2.1,1.7c-1.2,0-2-0.5-2.4-1.3
				c0.8-0.1,1.3-0.6,1.3-1.3c0-0.8-1.1-1.6-2.2-1.8v-0.2C58.1,55.3,60.3,56.4,60.3,58z"/>
			<path class="st2" d="M69,65.6c0,1.6,0.5,2.4,1.9,2.4c0.7,0,1.3-0.2,1.9-0.9v0.2c-0.6,1.2-2.1,2.3-4.3,2.3c-2.5,0-4.1-1.2-4.1-3.9
				v-7.8c0-1-0.5-1.5-2.1-1.5v-0.2c2.6,0,4.7-0.3,6.6-1.1V65.6z M78.3,67.4c0,0.8,0.2,1.1,0.8,1.1c0.4,0,0.9-0.4,1.3-1.3h0.2
				c-0.4,1.5-1.9,2.3-3.8,2.3c-1.9,0-3.1-1.1-3.1-2.7v-9c0-1-0.5-1.5-2-1.5v-0.2c2.5,0,4.2-0.3,6.6-1.1V67.4z"/>
		</g>
		<g class="st1">
			<path class="st2" d="M88.3,67.7c0,0.7,0.4,1.4,2.1,1.4v0.2h-8.8v-0.2c1.7,0,2.1-0.7,2.1-1.4v-9.9c0-1-0.5-1.5-2.1-1.5v-0.2
				c2.6,0,4.7-0.3,6.6-1.1V67.7z M95.8,58.1c0,1.9-1.4,3.2-2.9,3.2c-0.7,0-1.3-0.2-1.6-0.6c0.5-0.3,1.1-0.9,1.1-1.9
				c0-0.8-0.6-1.5-1.6-1.5c-0.7,0-1.3,0.4-1.7,1.1v-0.2c0.5-1.8,1.9-3,3.6-3C94.8,55.1,95.8,56.4,95.8,58.1z"/>
		</g>
		<g class="st1">
			<path class="st2" d="M97,66c0-2.4,2.2-3.8,5.3-3.8h3v0.2h-0.8c-2,0-2.9,1.3-2.9,3c0,1.5,0.4,2.7,1.8,2.7c0.8,0,1.4-0.4,2-1v0.2
				c-0.9,1.1-2.4,2.3-4.4,2.3C98.6,69.6,97,68.2,97,66z M98.1,58.1c0-1.4,1.3-2.9,5.1-3v0.2c-1.1,0.2-1.8,1.1-1.8,2
				c0,1,0.7,1.6,1.8,1.7c-0.4,0.8-1.6,1.3-2.7,1.3C99,60.3,98.1,59.3,98.1,58.1z M106.2,66.4v-8.5c0-1.4-0.5-2.4-1.9-2.6v-0.2
				c4.6,0.2,6.5,1.9,6.5,5.6v6.8c0,0.8,0.3,1.1,0.8,1.1c0.4,0,0.9-0.4,1.3-1.3h0.2c-0.4,1.5-1.9,2.3-3.6,2.3
				C107.2,69.6,106.2,68.8,106.2,66.4z"/>
			<path class="st2" d="M113.9,69.1c1.7,0,2.1-0.7,2.1-1.4v-9.9c0-1-0.5-1.5-2.1-1.5v-0.2c2.6,0,4.7-0.3,6.6-1.1v12.6
				c0,0.7,0.4,1.4,2.1,1.4v0.2h-8.8V69.1z M123.7,69.1c1.6,0,2.1-0.7,2.1-1.4V59c0-1.6-0.8-2.4-2.2-2.4c-0.8,0-1.4,0.2-2.1,0.9v-0.2
				c0.8-1.2,2.6-2.3,4.6-2.3c2.5,0,4.3,1.2,4.3,3.9v8.7c0,0.7,0.4,1.4,2.1,1.4v0.2h-8.7V69.1z"/>
			<path class="st2" d="M141,55.3c-1.6,0.2-2.4,1.6-2.4,6.9c0,4,2,6.2,4.5,6.2c1.6,0,2.8-0.4,4.1-1.5v0.2c-1.4,1.8-4.1,2.5-5.9,2.5
				c-3.6,0-7.4-2.6-7.4-7.3s3.9-7.1,7.1-7.2V55.3z M147.2,58.2c0,1.5-1,2.7-2.8,2.7c-1.4,0-2.3-0.9-2.4-1.8c0.8-0.3,1.3-1.3,1.3-2
				c0-0.6-0.2-1.6-1.2-1.8v-0.2C145.8,55.1,147.2,56.7,147.2,58.2z"/>
			<path class="st2" d="M149.3,62.3c0-4.7,3.6-7.1,6.8-7.2v0.2c-1.6,0.2-2.1,1.6-2.1,6.9c0,4,1.8,6.2,4.3,6.2c1.6,0,2.8-0.4,4.1-1.5
				v0.2c-1.4,1.8-4.1,2.5-5.9,2.5C152.9,69.6,149.3,66.9,149.3,62.3z M155.6,61.1c2.4,0,3.5-0.8,3.5-3.1c0-1.3-0.6-2.6-1.8-2.7v-0.2
				c3.7,0,5.5,2.6,5.5,4.7c0,0.4-0.1,1-0.1,1.4h-7V61.1z"/>
			<path class="st2" d="M176.9,66c-0.9,0-1.6,0.6-1.6,1.4c0,0.8,0.6,1.8,2.5,2v0.2c-3.7-0.1-5.7-1.1-5.7-2.8c0-1.3,1.1-2.1,2.4-2.1
				C175.5,64.7,176.5,65.3,176.9,66z M177.8,55.3c-1,0.2-2,0.7-2,1.9c0.1,3.2,9.1,3.8,9.1,8.2c0,2.7-2.3,4.1-5.9,4.3v-0.2
				c1.2-0.2,2.5-0.6,2.5-2.1c0-2.9-9.1-4-9.1-8.2c0-2.4,2.3-3.9,5.4-4.1V55.3z M184.4,58c0,0.9-0.7,1.7-2.1,1.7
				c-1.2,0-2-0.5-2.4-1.3c0.8-0.1,1.3-0.6,1.3-1.3c0-0.8-1.1-1.6-2.2-1.8v-0.2C182.2,55.3,184.4,56.4,184.4,58z"/>
			<path class="st2" d="M193.2,73.5c0,1,0.5,1.5,2.1,1.5v0.2c-2.6,0-4.3,0.3-6.6,1.1V57.8c0-1-0.5-1.5-2.1-1.5v-0.2
				c2.6,0,4.3-0.3,6.6-1.1V73.5z M203.8,62.2c0,5.8-3.1,7.4-5.7,7.4c-1.6,0-3.4-1.1-4.1-2.3v-0.2c0.7,0.5,1.4,1,2.3,1
				c1.3,0,2.7-0.9,2.7-5.9c0-5-1.3-5.7-2.7-5.7c-0.9,0-1.7,0.3-2.3,1v-0.2c0.7-1.2,2.5-2.2,4.1-2.2
				C200.7,55.1,203.8,56.7,203.8,62.2z"/>
			<path class="st2" d="M206.2,62.3c0-4.7,3.6-7.1,6.8-7.2v0.2c-1.6,0.2-2.1,1.6-2.1,6.9c0,4,1.8,6.2,4.3,6.2c1.6,0,2.8-0.4,4.1-1.5
				v0.2c-1.4,1.8-4.1,2.5-5.9,2.5C209.8,69.6,206.2,66.9,206.2,62.3z M212.5,61.1c2.4,0,3.5-0.8,3.5-3.1c0-1.3-0.6-2.6-1.8-2.7v-0.2
				c3.7,0,5.5,2.6,5.5,4.7c0,0.4-0.1,1-0.1,1.4h-7V61.1z"/>
			<path class="st2" d="M229,55.3c-1.6,0.2-2.4,1.6-2.4,6.9c0,4,2,6.2,4.5,6.2c1.6,0,2.8-0.4,4.1-1.5v0.2c-1.4,1.8-4.1,2.5-5.9,2.5
				c-3.6,0-7.4-2.6-7.4-7.3s3.9-7.1,7.1-7.2V55.3z M235.2,58.2c0,1.5-1,2.7-2.8,2.7c-1.4,0-2.3-0.9-2.4-1.8c0.8-0.3,1.3-1.3,1.3-2
				c0-0.6-0.2-1.6-1.2-1.8v-0.2C233.7,55.1,235.2,56.7,235.2,58.2z"/>
			<path class="st2" d="M236.8,56.2c2.6,0,4.7-0.3,6.6-1.1v12.6c0,0.7,0.4,1.4,2.1,1.4v0.2h-8.8v-0.2c1.7,0,2.1-0.7,2.1-1.4v-9.9
				c0-1-0.5-1.5-2.1-1.5V56.2z M238.2,50.9c0-1.4,1.2-2.4,2.8-2.4c1.7,0,2.8,1,2.8,2.4c0,1.5-1.2,2.4-2.8,2.4
				C239.4,53.4,238.2,52.4,238.2,50.9z"/>
			<path class="st2" d="M246.9,66c0-2.4,2.2-3.8,5.3-3.8h3v0.2h-0.8c-2,0-2.9,1.3-2.9,3c0,1.5,0.4,2.7,1.8,2.7c0.8,0,1.4-0.4,2-1
				v0.2c-0.9,1.1-2.4,2.3-4.4,2.3C248.5,69.6,246.9,68.2,246.9,66z M248,58.1c0-1.4,1.3-2.9,5.1-3v0.2c-1.1,0.2-1.8,1.1-1.8,2
				c0,1,0.7,1.6,1.8,1.7c-0.4,0.8-1.6,1.3-2.7,1.3C248.9,60.3,248,59.3,248,58.1z M256.1,66.4v-8.5c0-1.4-0.5-2.4-1.9-2.6v-0.2
				c4.6,0.2,6.5,1.9,6.5,5.6v6.8c0,0.8,0.3,1.1,0.8,1.1c0.4,0,0.9-0.4,1.3-1.3h0.2c-0.4,1.5-1.9,2.3-3.6,2.3
				C257.1,69.6,256.1,68.8,256.1,66.4z"/>
			<path class="st2" d="M263.7,49.9c2.6,0,4.7-0.3,6.6-1.1v18.9c0,0.7,0.4,1.4,2.1,1.4v0.2h-8.8v-0.2c1.7,0,2.1-0.7,2.1-1.4V51.6
				c0-1-0.5-1.5-2.1-1.5V49.9z"/>
			<path class="st2" d="M273.6,56.2c2.6,0,4.7-0.3,6.6-1.1v12.6c0,0.7,0.4,1.4,2.1,1.4v0.2h-8.8v-0.2c1.7,0,2.1-0.7,2.1-1.4v-9.9
				c0-1-0.5-1.5-2.1-1.5V56.2z M275.1,50.9c0-1.4,1.2-2.4,2.8-2.4c1.7,0,2.8,1,2.8,2.4c0,1.5-1.2,2.4-2.8,2.4
				C276.2,53.4,275.1,52.4,275.1,50.9z"/>
			<path class="st2" d="M288.9,66c-0.9,0-1.6,0.6-1.6,1.4c0,0.8,0.6,1.8,2.5,2v0.2c-3.7-0.1-5.7-1.1-5.7-2.8c0-1.3,1.1-2.1,2.4-2.1
				C287.5,64.7,288.5,65.3,288.9,66z M289.8,55.3c-1,0.2-2,0.7-2,1.9c0.1,3.2,9.1,3.8,9.1,8.2c0,2.7-2.3,4.1-5.9,4.3v-0.2
				c1.2-0.2,2.5-0.6,2.5-2.1c0-2.9-9.1-4-9.1-8.2c0-2.4,2.3-3.9,5.4-4.1V55.3z M296.4,58c0,0.9-0.7,1.7-2.1,1.7
				c-1.2,0-2-0.5-2.4-1.3c0.8-0.1,1.3-0.6,1.3-1.3c0-0.8-1.1-1.6-2.2-1.8v-0.2C294.2,55.3,296.4,56.4,296.4,58z"/>
			<path class="st2" d="M309.5,67.1v0.2c-0.9,1.3-2.7,2.3-4.8,2.3c-2.5,0-4.3-1.1-4.3-3.9v-9.1H299l0.3-0.4h1.1v-3
				c1.7,0,3.4-0.5,4.6-1.6v4.6h3.8l-0.3,0.4H305v9.2c0,1.4,0.5,2.8,1.8,2.8C307.7,68.6,308.6,68.1,309.5,67.1z"/>
		</g>
	</g>
</g>
</svg>
