<svg id="Layer_1" data-name="Layer 1" xmlns="http://www.w3.org/2000/svg" xmlns:xlink="http://www.w3.org/1999/xlink" viewBox="0 0 728 90"><defs><style>.cls-1{fill:none;}.cls-2{clip-path:url(#clip-path);}.cls-3{fill:#ffac00;}.cls-4{fill:#fff;}</style><clipPath id="clip-path"><rect class="cls-1" width="728" height="90"/></clipPath></defs><title>Artboard 1 copy 4</title><g class="cls-2"><path class="cls-3" d="M429,19.32v26a9.26,9.26,0,0,0,5,8.22L472.89,73.7a11.6,11.6,0,0,0,10.66,0l38.91-20.19a9.26,9.26,0,0,0,5-8.22v-26A4.33,4.33,0,0,0,523.13,15H433.3A4.33,4.33,0,0,0,429,19.32Z"/><path class="cls-4" d="M470.51,33.53l.17-.26c.13-.17.27-.18.47-.07a2,2,0,0,0,1.15.42c.53,0,.85-.27.85-.65,0-1.08-2.65-.86-2.65-2.63a1.72,1.72,0,0,1,1.91-1.65,2.69,2.69,0,0,1,1.47.43.31.31,0,0,1,.1.46l-.14.26c-.12.24-.29.2-.46.12a1.8,1.8,0,0,0-1-.32c-.53,0-.87.26-.87.64,0,1.07,2.65.8,2.65,2.61a1.7,1.7,0,0,1-1.88,1.68,3.08,3.08,0,0,1-1.75-.57A.3.3,0,0,1,470.51,33.53Z"/><path class="cls-4" d="M476.48,29.68H475a.3.3,0,0,1-.34-.33v-.23a.3.3,0,0,1,.34-.33H479a.3.3,0,0,1,.33.33v.23a.3.3,0,0,1-.33.33H477.5v4.46a.3.3,0,0,1-.33.34h-.36a.3.3,0,0,1-.33-.34Z"/><path class="cls-4" d="M480.71,29.06a.36.36,0,0,1,.38-.27h.51a.35.35,0,0,1,.38.27l1.78,5c.08.23,0,.39-.27.39h-.37a.37.37,0,0,1-.38-.28l-.4-1.18h-2L480,34.2a.35.35,0,0,1-.37.28h-.37c-.25,0-.35-.16-.27-.39Zm1.38,3.12-.51-1.53c-.1-.32-.22-.88-.22-.88h0s-.13.56-.22.88l-.52,1.53Z"/><path class="cls-4" d="M484.48,29.12a.3.3,0,0,1,.33-.33h1.54a2.51,2.51,0,0,1,1.08.15,1.57,1.57,0,0,1,.95,1.55,1.65,1.65,0,0,1-.94,1.56h0a2.21,2.21,0,0,1,.18.3l.94,1.72c.13.23,0,.4-.23.4h-.44a.42.42,0,0,1-.39-.24l-1-1.89h-1v1.79a.3.3,0,0,1-.32.34h-.37a.3.3,0,0,1-.33-.34Zm1.95,2.34a.84.84,0,0,0,.9-.91.76.76,0,0,0-.45-.78,1.47,1.47,0,0,0-.61-.09h-.77v1.78Z"/><path class="cls-4" d="M470.88,36.08a.18.18,0,0,1,.19-.21h.17a.18.18,0,0,1,.19.21v5.23a.18.18,0,0,1-.19.2h-.17a.18.18,0,0,1-.19-.2Z"/><path class="cls-4" d="M472.77,37.68a.18.18,0,0,1,.2-.2h.14a.18.18,0,0,1,.2.2v.46a1.1,1.1,0,0,1,0,.29h0a1.78,1.78,0,0,1,1.63-1c1,0,1.35.57,1.35,1.56v2.37a.18.18,0,0,1-.2.2h-.15c-.13,0-.19-.07-.19-.2V39.09c0-.63-.11-1.2-.89-1.2a1.57,1.57,0,0,0-1.53,1.65v1.77c0,.13-.06.2-.19.2H473a.18.18,0,0,1-.2-.2Z"/><path class="cls-4" d="M477.14,40.87l.06-.08q.1-.15.27,0a1.82,1.82,0,0,0,1.07.36c.45,0,.82-.22.82-.64,0-.91-2.16-.64-2.16-2,0-.74.63-1.13,1.37-1.13a1.87,1.87,0,0,1,1.11.33.17.17,0,0,1,.05.26l-.05.09a.18.18,0,0,1-.27.06,1.51,1.51,0,0,0-.87-.26c-.43,0-.79.19-.79.63,0,.93,2.14.63,2.14,2a1.22,1.22,0,0,1-1.36,1.14,2.1,2.1,0,0,1-1.36-.47A.17.17,0,0,1,477.14,40.87Z"/><path class="cls-4" d="M480.7,37.68a.18.18,0,0,1,.19-.2h.16a.18.18,0,0,1,.2.2V39.9c0,.63.09,1.19.87,1.19a1.57,1.57,0,0,0,1.49-1.68V37.68a.18.18,0,0,1,.2-.2H484a.18.18,0,0,1,.2.2v3.63a.18.18,0,0,1-.2.2h-.14c-.13,0-.19-.07-.19-.2v-.47a1.89,1.89,0,0,1,0-.28h0a1.77,1.77,0,0,1-1.59,1c-.95,0-1.35-.52-1.35-1.57Z"/><path class="cls-4" d="M485.34,37.68a.18.18,0,0,1,.2-.2h.14a.18.18,0,0,1,.2.2v.54a1.29,1.29,0,0,1,0,.32h0a1.45,1.45,0,0,1,1.3-1.09.18.18,0,0,1,.21.2v.14c0,.13-.09.2-.23.2-.85,0-1.26,1-1.26,1.81v1.51c0,.13-.06.2-.19.2h-.15a.18.18,0,0,1-.2-.2Z"/><path class="cls-4" d="M490.14,39h.23v-.13c0-.78-.42-1-1-1a1.94,1.94,0,0,0-1,.28.19.19,0,0,1-.27-.06l-.05-.08a.19.19,0,0,1,.06-.28,2.52,2.52,0,0,1,1.28-.35,1.37,1.37,0,0,1,1.5,1.55v2.38a.18.18,0,0,1-.19.2h-.13a.18.18,0,0,1-.2-.2V41a2.08,2.08,0,0,1,0-.31h0a1.52,1.52,0,0,1-1.37.93,1.24,1.24,0,0,1-1.36-1.18C487.68,39.11,489.36,39,490.14,39Zm-1,2.11a1.4,1.4,0,0,0,1.23-1.51v-.19h-.22c-.63,0-1.91,0-1.91.93A.81.81,0,0,0,489.14,41.15Z"/><path class="cls-4" d="M492.06,37.68a.18.18,0,0,1,.2-.2h.15a.18.18,0,0,1,.19.2v.46a1.44,1.44,0,0,1,0,.29h0a1.79,1.79,0,0,1,1.63-1c1,0,1.35.57,1.35,1.56v2.37a.18.18,0,0,1-.2.2h-.15c-.13,0-.19-.07-.19-.2V39.09c0-.63-.1-1.2-.88-1.2a1.57,1.57,0,0,0-1.53,1.65v1.77a.18.18,0,0,1-.2.2h-.15a.18.18,0,0,1-.2-.2Z"/><path class="cls-4" d="M498.58,37.38a2.12,2.12,0,0,1,1.34.46.17.17,0,0,1,0,.27l-.05.09c-.08.11-.16.11-.28,0a1.62,1.62,0,0,0-1-.37,1.63,1.63,0,0,0,0,3.25,1.77,1.77,0,0,0,1.14-.43c.11-.08.19-.06.27.05l.05.08a.19.19,0,0,1-.05.27,2.2,2.2,0,0,1-1.43.52,2.12,2.12,0,1,1,0-4.23Z"/><path class="cls-4" d="M502.55,37.38c1.07,0,1.68.78,1.68,1.92a.21.21,0,0,1-.21.21h-2.9a1.54,1.54,0,0,0,1.56,1.61,1.74,1.74,0,0,0,1.06-.37c.12-.07.2-.06.27,0l.06.09a.19.19,0,0,1-.05.27,2.32,2.32,0,0,1-1.35.45,2,2,0,0,1-2.11-2.11A2,2,0,0,1,502.55,37.38Zm1.13,1.72a1.16,1.16,0,0,0-1.15-1.27,1.38,1.38,0,0,0-1.38,1.27Z"/><path class="cls-4" d="M471,43.71a.31.31,0,0,1,.34-.32h.51a.36.36,0,0,1,.37.27l1,2.55c.13.33.29.83.29.83h0s.15-.5.28-.83l1-2.55a.36.36,0,0,1,.38-.27h.5a.3.3,0,0,1,.34.32l.41,5a.29.29,0,0,1-.32.34h-.36a.32.32,0,0,1-.35-.32l-.21-2.86c0-.38,0-.88,0-.88h0s-.17.55-.3.88l-.83,1.94a.35.35,0,0,1-.37.26h-.34a.35.35,0,0,1-.38-.26l-.82-1.94c-.13-.33-.31-.89-.31-.89h0s0,.51,0,.89l-.21,2.86a.31.31,0,0,1-.35.32h-.36a.29.29,0,0,1-.32-.34Z"/><path class="cls-4" d="M479.45,44.9A2.14,2.14,0,1,1,477.2,47,2.16,2.16,0,0,1,479.45,44.9Zm0,3.41A1.21,1.21,0,0,0,480.66,47a1.22,1.22,0,1,0-2.43,0A1.21,1.21,0,0,0,479.45,48.31Z"/><path class="cls-4" d="M482.54,45.86h-.22c-.21,0-.32-.11-.32-.34v-.13a.3.3,0,0,1,.33-.34h.23v-.83a.31.31,0,0,1,.34-.34h.32a.31.31,0,0,1,.34.34v.83h.59a.31.31,0,0,1,.34.34v.13a.3.3,0,0,1-.33.34h-.6v1.59a.67.67,0,0,0,.66.76c.24,0,.33.1.33.33v.25c0,.24-.13.33-.41.33a1.47,1.47,0,0,1-1.6-1.5Z"/><path class="cls-4" d="M487.09,44.9A2.14,2.14,0,1,1,484.84,47,2.16,2.16,0,0,1,487.09,44.9Zm0,3.41A1.21,1.21,0,0,0,488.3,47a1.21,1.21,0,1,0-2.42,0A1.2,1.2,0,0,0,487.09,48.31Z"/><path class="cls-4" d="M490.08,45.33a.31.31,0,0,1,.33-.34h.31a.31.31,0,0,1,.34.34v.39a2.07,2.07,0,0,1,0,.28h0a1.41,1.41,0,0,1,1.19-1c.22,0,.3.11.3.34v.31a.31.31,0,0,1-.34.34c-.75,0-1.11.74-1.11,1.48v1.32a.29.29,0,0,1-.33.33h-.35a.3.3,0,0,1-.33-.33Z"/><path class="cls-4" d="M495,44.9a2.27,2.27,0,0,1,1.34.41.29.29,0,0,1,.06.45l-.1.16c-.12.19-.26.19-.45.09a1.45,1.45,0,0,0-.8-.25A1.22,1.22,0,0,0,493.8,47a1.24,1.24,0,0,0,1.28,1.28A1.56,1.56,0,0,0,496,48c.2-.11.35-.09.46.1l.08.16a.32.32,0,0,1-.09.45,2.48,2.48,0,0,1-1.45.47,2.14,2.14,0,1,1,0-4.28Z"/><path class="cls-4" d="M497.39,49.85a.73.73,0,0,0,.29.07.78.78,0,0,0,.65-.54l.15-.36-1.56-3.63c-.1-.23,0-.4.26-.4h.43a.36.36,0,0,1,.38.28l.77,2.08c.07.22.15.55.15.55h0s.07-.32.13-.53l.73-2.09a.34.34,0,0,1,.37-.29h.4c.25,0,.36.16.27.39l-1.68,4.31a1.54,1.54,0,0,1-1.47,1.08,1.67,1.67,0,0,1-.57-.12.3.3,0,0,1-.15-.44L497,50A.29.29,0,0,1,497.39,49.85Z"/><path class="cls-4" d="M503.28,44.9a2.27,2.27,0,0,1,1.34.41.29.29,0,0,1,.06.45l-.1.16c-.12.19-.26.19-.45.09a1.45,1.45,0,0,0-.79-.25A1.22,1.22,0,0,0,502.09,47a1.24,1.24,0,0,0,1.28,1.28,1.56,1.56,0,0,0,.91-.31c.2-.11.35-.09.46.1l.08.16a.32.32,0,0,1-.09.45,2.48,2.48,0,0,1-1.45.47,2.14,2.14,0,1,1,0-4.28Z"/><path class="cls-4" d="M505.5,43.73a.3.3,0,0,1,.33-.34h.35a.3.3,0,0,1,.33.34v4c0,.4.17.47.32.49a.26.26,0,0,1,.25.29v.27a.3.3,0,0,1-.34.34c-.54,0-1.24-.14-1.24-1.31Z"/><path class="cls-4" d="M509.49,44.9a1.76,1.76,0,0,1,1.81,2,.35.35,0,0,1-.35.34h-2.5a1.18,1.18,0,0,0,1.23,1.12,1.67,1.67,0,0,0,.88-.26c.2-.1.35-.07.45.11l.1.16a.31.31,0,0,1-.11.45,2.6,2.6,0,0,1-1.39.41,2.1,2.1,0,0,1-2.2-2.14A2,2,0,0,1,509.49,44.9Zm.8,1.67a.83.83,0,0,0-.83-.9,1,1,0,0,0-1,.9Z"/><path class="cls-4" d="M451.56,46.53a.48.48,0,0,1-.26-.07.55.55,0,0,1-.28-.67L457,27.52a1.25,1.25,0,0,1,1.21-.87h0a1.24,1.24,0,0,1,1.2.88l1.2,3.61a.43.43,0,1,1-.81.27l-1.21-3.62a.39.39,0,0,0-.38-.28h0a.39.39,0,0,0-.39.28L452.4,44.3,460,34a2.36,2.36,0,0,1,1.9-1h5a1.27,1.27,0,0,1,.75,2.29L463,38.63l0,0,1.79,5.47a1.27,1.27,0,0,1-2,1.41l-4-2.89a1.23,1.23,0,0,1-.53-1,1.25,1.25,0,0,1,.53-1l3.33-2.42.05,0,4.91-3.57a.4.4,0,0,0,.15-.45.39.39,0,0,0-.39-.28h-5a1.48,1.48,0,0,0-1.21.61L452,46.29A.57.57,0,0,1,451.56,46.53Zm10.69-7.32-2.91,2.11a.38.38,0,0,0-.17.33.4.4,0,0,0,.17.33l4,2.89a.41.41,0,0,0,.63-.46Z"/><path class="cls-4" d="M451.86,37.45a.49.49,0,0,1-.25-.08l-2.93-2.08a1.26,1.26,0,0,1,.74-2.29H453a.43.43,0,0,1,.43.43.43.43,0,0,1-.43.43h-3.6a.39.39,0,0,0-.39.28.4.4,0,0,0,.15.45l2.93,2.08a.42.42,0,0,1,.1.6A.41.41,0,0,1,451.86,37.45Z"/><path class="cls-4" d="M455.86,52.59a1.42,1.42,0,0,1-.69-.18l-7.5-4.26a.43.43,0,0,1-.22-.38V38.62a.43.43,0,0,1,.86,0v8.9l7.29,4.14a.54.54,0,0,0,.55,0l5.32-3.34a.43.43,0,0,1,.59.14.42.42,0,0,1-.14.59l-5.32,3.33A1.31,1.31,0,0,1,455.86,52.59Z"/></g></svg>