<?xml version="1.0" encoding="utf-8"?>
<!-- Generator: Adobe Illustrator 24.0.3, SVG Export Plug-In . SVG Version: 6.00 Build 0)  -->
<svg version="1.1" id="Layer_1" xmlns="http://www.w3.org/2000/svg" xmlns:xlink="http://www.w3.org/1999/xlink" x="0px" y="0px"
	 viewBox="0 0 300 600" style="enable-background:new 0 0 300 600;" xml:space="preserve">
<style type="text/css">
	.st0{enable-background:new    ;}
	.st1{fill:#263845;}
</style>
<title>Artboard 1 copy 3</title>
<g class="st0">
	<path class="st1" d="M34.6,91.3l0.3,0.4l0.3,14.7c0,1.5,1.1,2.9,3.4,2.9v0.2h-7.7v-0.2c2.3,0,3.4-1.5,3.4-2.9L34.6,91.3z
		 M53.1,109.5h-3.9L34.6,87.7c-0.9-1.4-1.9-1.8-3.7-1.8v-0.2h9.3L53.1,105V109.5z M53.1,101.5l-0.3-0.4l-0.4-12.2
		c0-1.5-1.1-2.9-3.4-2.9v-0.2h7.7v0.2c-2.3,0-3.4,1.5-3.4,2.9L53.1,101.5z"/>
	<path class="st1" d="M72.3,85.7H79l-13.9,23.8h-6.7L72.3,85.7z M59.4,85.7H70l-0.1,0.2c-5.2,0.3-9.3,3.9-10.2,8.2h-0.3V85.7z
		 M67.5,109.3c5.3-0.5,9.5-3.7,10.9-9.3h0.3v9.6H67.3L67.5,109.3z"/>
</g>
<g class="st0">
	<path class="st1" d="M88.7,86.8c0,2-2.2,4.7-5.7,6.2L83,92.7c1-0.8,2-2.1,2-3.4c0-1.6-1.1-2.3-2.4-2.3c0.3-2.1,1.5-3.2,3.3-3.2
		C87.4,83.8,88.7,84.9,88.7,86.8z"/>
</g>
<g class="st0">
	<path class="st1" d="M95.9,105.4c-1.2,0-2,0.7-2,1.8c0,1,0.7,2.3,3.1,2.6v0.2c-4.7-0.2-7.2-1.4-7.2-3.5c0-1.6,1.4-2.6,3-2.6
		C94.2,103.8,95.4,104.5,95.9,105.4z M97.1,91.9c-1.3,0.2-2.6,0.9-2.5,2.3c0.1,4.1,11.4,4.7,11.4,10.3c0,3.4-2.9,5.2-7.4,5.4v-0.2
		c1.5-0.2,3.1-0.8,3.1-2.6c0-3.6-11.5-5-11.5-10.3c0-3.1,2.9-4.9,6.8-5.1V91.9z M105.3,95.3c0,1.1-0.8,2.2-2.6,2.2
		c-1.5,0-2.5-0.6-3-1.7c1.1-0.1,1.6-0.8,1.6-1.6c0-1.1-1.3-2.1-2.7-2.2v-0.2C102.6,91.9,105.3,93.3,105.3,95.3z"/>
	<path class="st1" d="M117,85.2c3.3,0,5.9-0.4,8.4-1.4v23.7c0,0.9,0.5,1.8,2.6,1.8v0.2h-11v-0.2c2.1,0,2.6-0.9,2.6-1.8V87.2
		c0-1.3-0.6-1.9-2.6-1.9V85.2z"/>
	<path class="st1" d="M130.1,100.7c0-5.9,4.5-9,8.6-9v0.2c-2.1,0.2-2.6,2-2.6,8.7c0,5,2.2,7.8,5.4,7.8c2,0,3.5-0.6,5.1-1.9v0.2
		c-1.8,2.3-5.1,3.2-7.4,3.2C134.6,109.9,130.1,106.6,130.1,100.7z M138,99.2c3.1,0,4.4-1,4.4-3.9c0-1.7-0.7-3.2-2.3-3.4v-0.2
		c4.6,0,6.9,3.3,6.9,6c0,0.6-0.1,1.3-0.2,1.8H138V99.2z"/>
	<path class="st1" d="M149.4,105.4c0-3,2.8-4.8,6.7-4.8h3.8v0.2h-1c-2.5,0-3.7,1.6-3.7,3.8c0,1.9,0.6,3.4,2.2,3.4
		c1,0,1.8-0.5,2.6-1.2v0.2c-1.2,1.3-3,2.8-5.6,2.8C151.4,109.9,149.4,108.2,149.4,105.4z M150.8,95.5c0-1.8,1.6-3.6,6.4-3.8v0.2
		c-1.4,0.2-2.2,1.3-2.2,2.6c0,1.3,0.9,2,2.3,2.1c-0.5,1-2,1.7-3.4,1.7C152,98.3,150.8,97,150.8,95.5z M161,105.9V95.2
		c0-1.7-0.7-3.1-2.4-3.3v-0.2c5.8,0.2,8.1,2.4,8.1,7v8.5c0,1,0.3,1.4,1,1.4c0.5,0,1.1-0.5,1.7-1.6h0.2c-0.6,1.9-2.5,2.8-4.5,2.8
		C162.3,109.9,161,108.9,161,105.9z"/>
	<path class="st1" d="M183.8,94.5v0.3c-0.8-0.9-1.8-1.3-2.9-1.3c-1.8,0-3.4,0.8-3.4,7.1c0,6.3,1.8,7.5,3.4,7.5c1.1,0,2-0.6,2.9-1.2
		v0.2c-0.9,1.5-3.1,2.8-5.1,2.8c-3.3,0-7.2-2-7.2-9.3c0-7,3.8-8.9,7.2-8.9C180.7,91.7,182.9,93,183.8,94.5z M190.6,107.2
		c0,1,0.3,1.4,0.9,1.4c0.5,0,1.1-0.5,1.7-1.6h0.2c-0.6,1.9-2.5,2.8-4.6,2.8c-2.8,0-4.1-1-4.1-4V87.2c0-1.3-0.6-1.9-2.6-1.9v-0.2
		c3.3,0,5.4-0.4,8.4-1.4V107.2z"/>
	<path class="st1" d="M194.9,93c3.3,0,5.9-0.4,8.4-1.4v15.9c0,0.9,0.5,1.8,2.6,1.8v0.2h-11v-0.2c2.1,0,2.6-0.9,2.6-1.8V95.1
		c0-1.3-0.6-1.9-2.6-1.9V93z M196.7,86.4c0-1.8,1.5-3,3.6-3c2.1,0,3.6,1.2,3.6,3c0,1.9-1.5,3.1-3.6,3.1
		C198.1,89.5,196.7,88.3,196.7,86.4z"/>
	<path class="st1" d="M207.3,109.3c2.1,0,2.6-0.9,2.6-1.8V95.1c0-1.3-0.6-1.9-2.6-1.9V93c3.3,0,5.9-0.4,8.4-1.4v15.9
		c0,0.9,0.5,1.8,2.6,1.8v0.2h-11V109.3z M219.7,109.3c2.1,0,2.6-0.9,2.6-1.8V96.6c0-2-1-3-2.8-3c-1,0-1.8,0.3-2.7,1.1v-0.2
		c0.9-1.5,3.2-2.8,5.8-2.8c3.2,0,5.4,1.5,5.4,4.9v10.9c0,0.9,0.5,1.8,2.6,1.8v0.2h-11V109.3z"/>
	<path class="st1" d="M232.7,98c0-4.5,4.3-6.3,7.8-6.3v0.2c-1.5,0.1-2.2,2-2.2,6c0,4.2,0.7,6,2.2,6.1v0.2
		C237,104.2,232.7,102.5,232.7,98z M242,118.1c3.5-0.4,4.6-2.3,4.6-3.6c0-4.9-13.7-0.5-13.7-6.8c0-1.4,0.7-2.6,2.3-3.6l0.1,0.2
		c-0.2,0.1-0.3,0.4-0.3,0.7c0,3.9,16-0.6,16,7c0,3.6-3.1,6-9.1,6.3V118.1z M233,115.1c0-2.1,2.6-2.7,5.3-2.7
		c-0.6,0.3-1.5,1.3-1.5,2.5c0,1.6,1.8,2.8,3.8,3.2v0.2C236.9,118.2,233,117.4,233,115.1z M242,104c1.7-0.1,2.4-1.9,2.4-6.1
		c0-4.1-0.7-5.9-2.4-6v-0.2c3.7,0.1,8,1.8,8,6.3c0,4.5-4.3,6.2-8,6.2V104z M243.9,91c0.6-1.8,2.2-4.2,4.6-4.2c1.9,0,3,1,3,2.7
		c0,1.7-1.5,2.7-2.8,2.7c0-1.5-0.8-2.3-1.9-2.3c-1.1,0-2.2,0.6-2.7,1.3L243.9,91z"/>
</g>
<g class="st0">
	<path class="st1" d="M42.7,148.3v0.2H31.5v-0.2c2.1,0,2.6-0.8,2.6-1.8v-19.8c0-1-0.5-1.8-2.6-1.8v-0.2h8.6v21.8
		C40.1,147.5,40.6,148.3,42.7,148.3z M56.4,146c-0.6,1.9-2.6,2.8-5.2,2.8c-4.6,0-5.6-3.2-5.8-6.1c-0.2-2.9-0.5-5.1-3.6-5.6V137
		c3.2,0,4.7-2.8,4.7-6.3c0-3.9-1.4-5.8-4.7-5.8v-0.2c7.1,0,10.6,1.6,10.6,6c0,3.8-2.8,6.1-8,6.4c6.4,0.3,7.4,2.8,7.7,5.7
		c0.4,2.8,1.1,4.8,2.3,4.8c0.6,0,1.2-0.5,1.8-1.6H56.4z"/>
</g>
<g class="st0">
	<path class="st1" d="M57,126.8c-0.6-1.4-1.4-1.8-3.2-1.8v-0.2h12.6v0.2c-1.6,0-3,1.1-2.2,2.9l6.6,13.9l-3.2,7.1h-0.4L57,126.8z
		 M72.2,138.5c2-4.7,2.5-7.6,2.5-9.8c0-2.6-2.1-3.8-4-3.8v-0.2h10.1v0.1c-1.6,0-2.6,1.5-3.7,3.9l-4.8,10.1L72.2,138.5z"/>
</g>
<g class="st0">
	<path class="st1" d="M88.4,132c3.3,0,5.9-0.4,8.4-1.4v15.9c0,0.9,0.5,1.8,2.6,1.8v0.2h-11v-0.2c2.1,0,2.6-0.9,2.6-1.8v-12.5
		c0-1.3-0.6-1.9-2.6-1.9V132z M90.2,125.4c0-1.8,1.5-3,3.6-3s3.6,1.2,3.6,3c0,1.9-1.5,3.1-3.6,3.1S90.2,127.3,90.2,125.4z"/>
	<path class="st1" d="M100.9,148.3c2.1,0,2.6-0.9,2.6-1.8v-12.4c0-1.3-0.6-1.9-2.6-1.9V132c3.3,0,5.9-0.4,8.4-1.4v15.9
		c0,0.9,0.5,1.8,2.6,1.8v0.2h-11V148.3z M113.2,148.3c2.1,0,2.6-0.9,2.6-1.8v-10.9c0-2-1-3-2.8-3c-1,0-1.8,0.3-2.7,1.1v-0.2
		c0.9-1.5,3.2-2.8,5.8-2.8c3.2,0,5.4,1.5,5.4,4.9v10.9c0,0.9,0.5,1.8,2.6,1.8v0.2h-11V148.3z"/>
	<path class="st1" d="M132.2,144.4c-1.2,0-2,0.7-2,1.8c0,1,0.7,2.3,3.1,2.6v0.2c-4.7-0.2-7.2-1.4-7.2-3.5c0-1.6,1.4-2.6,3-2.6
		C130.5,142.8,131.6,143.5,132.2,144.4z M133.3,130.9c-1.3,0.2-2.6,0.9-2.5,2.3c0.1,4.1,11.4,4.7,11.4,10.3c0,3.4-2.9,5.2-7.4,5.4
		v-0.2c1.5-0.2,3.1-0.8,3.1-2.6c0-3.6-11.5-5-11.5-10.3c0-3.1,2.9-4.9,6.8-5.1V130.9z M141.6,134.3c0,1.1-0.8,2.2-2.6,2.2
		c-1.5,0-2.5-0.6-3-1.7c1.1-0.1,1.6-0.8,1.6-1.6c0-1.1-1.3-2.1-2.7-2.2v-0.2C138.8,130.9,141.6,132.3,141.6,134.3z"/>
	<path class="st1" d="M152.6,143.9c0,2,0.7,3,2.4,3c0.9,0,1.6-0.3,2.4-1.1v0.2c-0.8,1.5-2.6,2.8-5.4,2.8c-3.2,0-5.2-1.5-5.2-4.9
		v-9.8c0-1.3-0.6-1.9-2.6-1.9V132c3.3,0,5.9-0.4,8.4-1.4V143.9z M164.2,146.2c0,1,0.3,1.4,0.9,1.4c0.5,0,1.1-0.5,1.7-1.6h0.2
		c-0.6,1.9-2.5,2.8-4.8,2.8c-2.5,0-3.9-1.4-3.9-3.4v-11.3c0-1.3-0.6-1.9-2.5-1.9V132c3.2,0,5.3-0.4,8.3-1.4V146.2z"/>
</g>
<g class="st0">
	<path class="st1" d="M176.9,146.5c0,0.9,0.5,1.8,2.6,1.8v0.2h-11v-0.2c2.1,0,2.6-0.9,2.6-1.8v-12.4c0-1.3-0.6-1.9-2.6-1.9V132
		c3.3,0,5.9-0.4,8.4-1.4V146.5z M186.3,134.5c0,2.4-1.7,4-3.6,4c-0.8,0-1.6-0.2-2-0.8c0.7-0.3,1.4-1.1,1.4-2.4c0-1-0.7-1.9-2-1.9
		c-0.9,0-1.6,0.5-2.1,1.3v-0.3c0.7-2.2,2.4-3.8,4.6-3.8C185,130.7,186.3,132.4,186.3,134.5z"/>
</g>
<g class="st0">
	<path class="st1" d="M187.8,144.4c0-3,2.8-4.8,6.7-4.8h3.8v0.2h-1c-2.5,0-3.7,1.6-3.7,3.8c0,1.9,0.6,3.4,2.2,3.4
		c1,0,1.8-0.5,2.6-1.2v0.2c-1.2,1.3-3,2.8-5.6,2.8C189.8,148.9,187.8,147.2,187.8,144.4z M189.2,134.5c0-1.8,1.6-3.6,6.4-3.8v0.2
		c-1.4,0.2-2.2,1.3-2.2,2.6c0,1.3,0.9,2,2.3,2.1c-0.5,1-2,1.7-3.4,1.7C190.3,137.3,189.2,136,189.2,134.5z M199.4,144.9v-10.7
		c0-1.7-0.7-3.1-2.4-3.3v-0.2c5.8,0.2,8.1,2.4,8.1,7v8.5c0,1,0.3,1.4,1,1.4c0.5,0,1.1-0.5,1.7-1.6h0.2c-0.6,1.9-2.5,2.8-4.6,2.8
		C200.6,148.9,199.4,147.9,199.4,144.9z"/>
	<path class="st1" d="M209.1,148.3c2.1,0,2.6-0.9,2.6-1.8v-12.4c0-1.3-0.6-1.9-2.6-1.9V132c3.3,0,5.9-0.4,8.4-1.4v15.9
		c0,0.9,0.5,1.8,2.6,1.8v0.2h-11V148.3z M221.4,148.3c2.1,0,2.6-0.9,2.6-1.8v-10.9c0-2-1-3-2.8-3c-1,0-1.8,0.3-2.7,1.1v-0.2
		c0.9-1.5,3.2-2.8,5.8-2.8c3.2,0,5.4,1.5,5.4,4.9v10.9c0,0.9,0.5,1.8,2.6,1.8v0.2h-11V148.3z"/>
	<path class="st1" d="M243.2,130.9c-2.1,0.2-3,2-3,8.7c0,5,2.6,7.8,5.7,7.8c2,0,3.5-0.6,5.1-1.9v0.2c-1.8,2.3-5.1,3.2-7.4,3.2
		c-4.5,0-9.3-3.3-9.3-9.2c0-5.9,4.9-9,9-9V130.9z M251,134.6c0,1.9-1.3,3.4-3.5,3.4c-1.7,0-2.8-1.1-3-2.2c1-0.4,1.7-1.6,1.7-2.6
		c0-0.8-0.2-2.1-1.5-2.3v-0.2C249.2,130.7,251,132.6,251,134.6z"/>
	<path class="st1" d="M253.6,139.7c0-5.9,4.5-9,8.6-9v0.2c-2.1,0.2-2.6,2-2.6,8.7c0,5,2.2,7.8,5.4,7.8c2,0,3.5-0.6,5.1-1.9v0.2
		c-1.8,2.3-5.1,3.2-7.4,3.2C258.1,148.9,253.6,145.6,253.6,139.7z M261.5,138.2c3.1,0,4.4-1,4.4-3.9c0-1.7-0.7-3.2-2.3-3.4v-0.2
		c4.6,0,6.9,3.3,6.9,6c0,0.6-0.1,1.3-0.2,1.8h-8.8V138.2z"/>
</g>
<g class="st0">
	<path class="st1" d="M38.9,192.9c0,1.3,0.6,1.9,2.6,1.9v0.2c-3.3,0-5.4,0.3-8.4,1.4v-23.2c0-1.3-0.6-1.9-2.6-1.9V171
		c3.3,0,5.4-0.4,8.4-1.4V192.9z M52.3,178.6c0,7.3-3.9,9.3-7.2,9.3c-2,0-4.2-1.4-5.1-2.8v-0.2c0.9,0.7,1.8,1.2,2.9,1.2
		c1.6,0,3.4-1.2,3.4-7.5c0-6.3-1.6-7.1-3.4-7.1c-1.1,0-2.1,0.4-2.9,1.3v-0.3c0.9-1.5,3.1-2.8,5.1-2.8
		C48.5,169.7,52.3,171.6,52.3,178.6z"/>
	<path class="st1" d="M64.1,169.9c-2.1,0.2-2.8,2-2.8,8.8c0,6.6,0.7,8.8,2.8,9v0.2c-4,0-8.7-3.3-8.7-9.2c0-5.9,4.6-9,8.7-9V169.9z
		 M74.1,178.7c0,5.8-4.7,9.2-8.7,9.2v-0.2c2.1-0.2,2.7-2.4,2.7-9c0-6.9-0.7-8.6-2.7-8.8v-0.2C69.5,169.7,74.1,172.8,74.1,178.7z"/>
	<path class="st1" d="M76.3,163.2c3.3,0,5.9-0.4,8.4-1.4v23.7c0,0.9,0.5,1.8,2.6,1.8v0.2h-11v-0.2c2.1,0,2.6-0.9,2.6-1.8v-20.3
		c0-1.3-0.6-1.9-2.6-1.9V163.2z"/>
	<path class="st1" d="M88.8,171c3.3,0,5.9-0.4,8.4-1.4v15.9c0,0.9,0.5,1.8,2.6,1.8v0.2h-11v-0.2c2.1,0,2.6-0.9,2.6-1.8v-12.5
		c0-1.3-0.6-1.9-2.6-1.9V171z M90.6,164.4c0-1.8,1.5-3,3.6-3s3.6,1.2,3.6,3c0,1.9-1.5,3.1-3.6,3.1S90.6,166.3,90.6,164.4z"/>
	<path class="st1" d="M110.9,169.9c-2.1,0.2-3,2-3,8.7c0,5,2.6,7.8,5.7,7.8c2,0,3.5-0.6,5.1-1.9v0.2c-1.8,2.3-5.1,3.2-7.4,3.2
		c-4.5,0-9.3-3.3-9.3-9.2c0-5.9,4.9-9,9-9V169.9z M118.6,173.6c0,1.9-1.3,3.4-3.5,3.4c-1.7,0-2.8-1.1-3-2.2c1-0.4,1.7-1.6,1.7-2.6
		c0-0.8-0.2-2.1-1.5-2.3v-0.2C116.8,169.7,118.6,171.6,118.6,173.6z"/>
</g>
<g class="st0">
	<path class="st1" d="M121.5,171.5c-0.3-0.7-0.8-1.2-1.9-1.2V170h9.8v0.2c-1.2,0-1.7,0.8-1.1,2.1l4.6,9.6l-3,5.7h-0.2L121.5,171.5z
		 M120,193.2c0-1.5,1.2-2.8,3.1-3.3c-0.1,0.3-0.1,0.6-0.1,0.9c0,1.3,0.7,2.3,2.1,2.3c1.2,0,2.2-1.3,3.5-3.5h0.2
		c-1.9,3.6-3.3,6.7-5.7,6.7C121.1,196.3,120,195,120,193.2z M134.3,178.4c0.6-1.1,1-2.6,1-4.5c0-1.9-1.1-3.7-3.6-3.7V170h8.7v0.2
		c-1.2,0-1.6,0.5-2.3,1.6l-3.6,6.9L134.3,178.4z"/>
</g>
</svg>
