<?xml version="1.0" encoding="utf-8"?>
<!-- Generator: Adobe Illustrator 24.0.3, SVG Export Plug-In . SVG Version: 6.00 Build 0)  -->
<svg version="1.1" id="Layer_1" xmlns="http://www.w3.org/2000/svg" xmlns:xlink="http://www.w3.org/1999/xlink" x="0px" y="0px"
	 viewBox="0 0 300 600" style="enable-background:new 0 0 300 600;" xml:space="preserve">
<style type="text/css">
	.st0{enable-background:new    ;}
	.st1{fill:#FFFFFF;}
</style>
<title>Artboard 1 copy 4</title>
<g class="st0">
	<path class="st1" d="M42.7,109.8v0.2H31.5v-0.2c2.1,0,2.6-0.8,2.6-1.8V88.2c0-1-0.5-1.8-2.6-1.8v-0.2h8.6V108
		C40.1,109,40.6,109.8,42.7,109.8z M56.4,107.5c-0.6,1.9-2.6,2.8-5.2,2.8c-4.6,0-5.6-3.2-5.8-6.1c-0.2-2.9-0.5-5.1-3.6-5.6v-0.2
		c3.2,0,4.7-2.8,4.7-6.3c0-3.9-1.4-5.8-4.7-5.8v-0.2c7.1,0,10.6,1.6,10.6,6c0,3.8-2.8,6.1-8,6.4c6.4,0.3,7.4,2.8,7.7,5.7
		c0.4,2.8,1.1,4.8,2.3,4.8c0.6,0,1.2-0.5,1.8-1.6H56.4z"/>
</g>
<g class="st0">
	<path class="st1" d="M57.1,101.2c0-5.9,4.5-9,8.6-9v0.2c-2.1,0.2-2.6,2-2.6,8.7c0,5,2.2,7.8,5.4,7.8c2,0,3.5-0.6,5.1-1.9v0.2
		c-1.8,2.3-5.1,3.2-7.4,3.2C61.6,110.4,57.1,107.1,57.1,101.2z M65,99.7c3.1,0,4.4-1,4.4-3.9c0-1.7-0.7-3.2-2.3-3.4v-0.2
		c4.6,0,6.9,3.3,6.9,6c0,0.6-0.1,1.3-0.2,1.8H65V99.7z"/>
	<path class="st1" d="M76.5,105.9c0-3,2.8-4.8,6.7-4.8H87v0.2h-1c-2.5,0-3.7,1.6-3.7,3.8c0,1.9,0.6,3.4,2.2,3.4c1,0,1.8-0.5,2.6-1.2
		v0.2c-1.2,1.3-3,2.8-5.6,2.8C78.4,110.4,76.4,108.7,76.5,105.9z M77.9,96c0-1.8,1.6-3.6,6.4-3.8v0.2c-1.4,0.2-2.2,1.3-2.2,2.6
		c0,1.3,0.9,2,2.3,2.1c-0.5,1-2,1.7-3.4,1.7C79,98.7,77.9,97.4,77.9,96z M88,106.4V95.7c0-1.7-0.7-3.1-2.4-3.3v-0.2
		c5.8,0.2,8.1,2.4,8.1,7v8.5c0,1,0.4,1.4,1,1.4c0.5,0,1.1-0.5,1.7-1.6h0.2c-0.6,1.9-2.5,2.8-4.6,2.8C89.3,110.4,88,109.4,88,106.4z"
		/>
</g>
<g class="st0">
	<path class="st1" d="M110.8,95v0.3c-0.8-0.9-1.8-1.3-2.9-1.3c-1.8,0-3.4,0.8-3.4,7.1c0,6.3,1.8,7.5,3.4,7.5c1.1,0,2-0.6,2.9-1.2
		v0.2c-0.9,1.5-3.1,2.8-5.1,2.8c-3.3,0-7.2-2-7.2-9.3c0-7,3.8-8.9,7.2-8.9C107.7,92.2,109.9,93.5,110.8,95z M117.6,107.7
		c0,1,0.3,1.4,0.9,1.4c0.5,0,1.1-0.5,1.7-1.6h0.2c-0.6,1.9-2.5,2.8-4.6,2.8c-2.8,0-4.1-1-4.1-4V87.7c0-1.3-0.6-1.9-2.6-1.9v-0.2
		c3.3,0,5.4-0.4,8.4-1.4V107.7z"/>
</g>
<g class="st0">
	<path class="st1" d="M122.4,93.9c-0.3-0.7-0.8-1.2-1.9-1.2v-0.2h9.8v0.2c-1.2,0-1.7,0.8-1.1,2.1l4.6,9.6l-3,5.7h-0.2L122.4,93.9z
		 M120.9,115.6c0-1.5,1.2-2.8,3.1-3.3c-0.1,0.3-0.1,0.6-0.1,0.9c0,1.3,0.7,2.3,2.1,2.3c1.2,0,2.2-1.3,3.5-3.5h0.2
		c-1.9,3.6-3.3,6.7-5.7,6.7C122,118.8,120.9,117.4,120.9,115.6z M135.2,100.9c0.6-1.1,1-2.6,1-4.5c0-1.9-1.1-3.7-3.6-3.7v-0.2h8.7
		v0.2c-1.2,0-1.6,0.5-2.3,1.6l-3.6,6.9L135.2,100.9z"/>
</g>
<g class="st0">
	<path class="st1" d="M161.4,93.4l-0.4,0.5h-3.4V108c0,0.9,0.6,1.8,2.7,1.8v0.2h-11.1v-0.2c2.1,0,2.6-0.9,2.6-1.8V93.9h-2.3l0.4-0.5
		h1.9v-1.6c0-5,2.6-7.1,5.8-7.6v0.2c-1.2,0.5-2.1,1.6-2.1,3.7C155.6,90.3,157,93.4,161.4,93.4z M164.4,88.1c0,2-1.5,3.1-3,3.1
		c-1.9,0-3-1-3.5-2.3c1.5,0,2.5-0.8,2.5-2.2c0-1-0.5-1.9-1.3-2.1v-0.2C162.8,84.4,164.4,86.1,164.4,88.1z"/>
</g>
<g class="st0">
	<path class="st1" d="M171.8,92.4c-2.1,0.2-2.8,2-2.8,8.8c0,6.6,0.7,8.8,2.8,9v0.2c-4,0-8.7-3.3-8.7-9.2c0-5.9,4.6-9,8.7-9V92.4z
		 M181.9,101.2c0,5.8-4.7,9.2-8.7,9.2v-0.2c2.1-0.2,2.7-2.4,2.7-9c0-6.9-0.7-8.6-2.7-8.8v-0.2C177.2,92.2,181.9,95.3,181.9,101.2z"
		/>
</g>
<g class="st0">
	<path class="st1" d="M192.6,108c0,0.9,0.5,1.8,2.6,1.8v0.2h-11v-0.2c2.1,0,2.6-0.9,2.6-1.8V95.6c0-1.3-0.6-1.9-2.6-1.9v-0.2
		c3.3,0,5.9-0.4,8.4-1.4V108z M202,95.9c0,2.4-1.7,4-3.6,4c-0.8,0-1.6-0.2-2-0.8c0.7-0.3,1.4-1.1,1.4-2.4c0-1-0.7-1.9-2-1.9
		c-0.9,0-1.6,0.5-2.1,1.3v-0.3c0.7-2.2,2.4-3.8,4.6-3.8C200.7,92.2,202,93.8,202,95.9z"/>
</g>
<g class="st0">
	<path class="st1" d="M44.4,146.3v0.2c-1.1,1.6-3.4,2.8-6,2.8c-3.2,0-5.4-1.4-5.4-4.9v-11.5h-1.8l0.4-0.5H33v-3.8
		c2.1,0,4.2-0.7,5.7-2v5.7h4.7l-0.4,0.5h-4.3v11.6c0,1.8,0.7,3.6,2.3,3.6C42.1,148.1,43.3,147.5,44.4,146.3z"/>
	<path class="st1" d="M53.5,147c0,0.9,0.5,1.8,2.6,1.8v0.2H45v-0.2c2.1,0,2.6-0.9,2.6-1.8v-20.3c0-1.3-0.6-1.9-2.6-1.9v-0.2
		c3.3,0,5.9-0.4,8.4-1.4V147z M65.7,136.1V147c0,0.9,0.5,1.8,2.6,1.8v0.2h-11v-0.2c2.1,0,2.6-0.9,2.6-1.8v-10.9c0-2-1-3-2.8-3
		c-1,0-1.8,0.3-2.7,1.1V134c0.9-1.5,3.2-2.8,5.8-2.8C63.5,131.2,65.7,132.6,65.7,136.1z"/>
	<path class="st1" d="M70.2,140.2c0-5.9,4.5-9,8.6-9v0.2c-2.1,0.2-2.6,2-2.6,8.7c0,5,2.2,7.8,5.4,7.8c2,0,3.5-0.6,5.1-1.9v0.2
		c-1.8,2.3-5.1,3.2-7.4,3.2C74.7,149.4,70.2,146.1,70.2,140.2z M78.1,138.7c3.1,0,4.4-1,4.4-3.9c0-1.7-0.7-3.2-2.3-3.4v-0.2
		c4.6,0,6.9,3.3,6.9,6c0,0.6-0.1,1.3-0.2,1.8h-8.8V138.7z"/>
</g>
<g class="st0">
	<path class="st1" d="M107.7,149.1v0.2c-2.8-0.1-5-0.6-6.8-1.7l-1.2,1.7h-0.3v-8.5h0.3C100.9,144.8,103.4,147.7,107.7,149.1z
		 M118,142.2c0,4.5-3.4,7-8.8,7.2v-0.2c1.9-0.3,3.8-1.5,3.8-3.6c0-6.1-13.4-6.7-13.4-13.8c0-4.2,3.4-6.6,8.1-6.9v0.2
		c-1.6,0.3-3.1,1.3-3.1,3.2C104.7,134.4,118,135.1,118,142.2z M109.2,125.1v-0.2c2.6,0.1,4.7,0.7,6.3,1.9l1.3-1.9h0.3v7.8h-0.3
		C115.7,129,112.7,125.9,109.2,125.1z"/>
</g>
<g class="st0">
	<path class="st1" d="M134,146.3v0.2c-1.1,1.6-3.4,2.8-6,2.8c-3.2,0-5.4-1.4-5.4-4.9v-11.5h-1.8l0.4-0.5h1.4v-3.8
		c2.1,0,4.2-0.7,5.7-2v5.7h4.7l-0.4,0.5h-4.3v11.6c0,1.8,0.7,3.6,2.3,3.6C131.6,148.1,132.8,147.5,134,146.3z"/>
	<path class="st1" d="M135.1,144.9c0-3,2.8-4.8,6.7-4.8h3.8v0.2h-1c-2.5,0-3.7,1.6-3.7,3.8c0,1.9,0.6,3.4,2.2,3.4
		c1,0,1.8-0.5,2.6-1.2v0.2c-1.2,1.3-3,2.8-5.6,2.8C137.1,149.4,135.1,147.7,135.1,144.9z M136.5,135c0-1.8,1.6-3.6,6.4-3.8v0.2
		c-1.4,0.2-2.2,1.3-2.2,2.6c0,1.3,0.9,2,2.3,2.1c-0.5,1-2,1.7-3.4,1.7C137.6,137.7,136.5,136.4,136.5,135z M146.7,145.4v-10.7
		c0-1.7-0.7-3.1-2.4-3.3v-0.2c5.8,0.2,8.1,2.4,8.1,7v8.5c0,1,0.3,1.4,1,1.4c0.5,0,1.1-0.5,1.7-1.6h0.2c-0.6,1.9-2.5,2.8-4.6,2.8
		C147.9,149.4,146.7,148.4,146.7,145.4z"/>
</g>
<g class="st0">
	<path class="st1" d="M164.8,147c0,0.9,0.5,1.8,2.6,1.8v0.2h-11v-0.2c2.1,0,2.6-0.9,2.6-1.8v-12.4c0-1.3-0.6-1.9-2.6-1.9v-0.2
		c3.3,0,5.9-0.4,8.4-1.4V147z M174.2,134.9c0,2.4-1.7,4-3.6,4c-0.8,0-1.6-0.2-2-0.8c0.7-0.3,1.4-1.1,1.4-2.4c0-1-0.7-1.9-2-1.9
		c-0.9,0-1.6,0.5-2.1,1.3v-0.3c0.7-2.2,2.4-3.8,4.6-3.8C172.9,131.2,174.2,132.8,174.2,134.9z"/>
</g>
<g class="st0">
	<path class="st1" d="M44.4,185.3v0.2c-1.1,1.6-3.4,2.8-6,2.8c-3.2,0-5.4-1.4-5.4-4.9v-11.5h-1.8l0.4-0.5H33v-3.8
		c2.1,0,4.2-0.7,5.7-2v5.7h4.7l-0.4,0.5h-4.3v11.6c0,1.8,0.7,3.6,2.3,3.6C42.1,187.1,43.3,186.5,44.4,185.3z"/>
</g>
<g class="st0">
	<path class="st1" d="M53.7,186c0,0.9,0.5,1.8,2.6,1.8v0.2h-11v-0.2c2.1,0,2.6-0.9,2.6-1.8v-12.4c0-1.3-0.6-1.9-2.6-1.9v-0.2
		c3.3,0,5.9-0.4,8.4-1.4V186z M63.1,173.9c0,2.4-1.7,4-3.6,4c-0.8,0-1.6-0.2-2-0.8c0.7-0.3,1.4-1.1,1.4-2.4c0-1-0.7-1.9-2-1.9
		c-0.9,0-1.6,0.5-2.1,1.3v-0.3c0.7-2.2,2.4-3.8,4.6-3.8C61.8,170.2,63.1,171.8,63.1,173.9z"/>
</g>
<g class="st0">
	<path class="st1" d="M65,179.2c0-5.9,4.5-9,8.6-9v0.2c-2.1,0.2-2.6,2-2.6,8.7c0,5,2.2,7.8,5.4,7.8c2,0,3.5-0.6,5.1-1.9v0.2
		c-1.8,2.3-5.1,3.2-7.4,3.2C69.5,188.4,65,185.1,65,179.2z M72.9,177.7c3.1,0,4.4-1,4.4-3.9c0-1.7-0.7-3.2-2.3-3.4v-0.2
		c4.6,0,6.9,3.3,6.9,6c0,0.6-0.1,1.3-0.2,1.8h-8.8V177.7z"/>
	<path class="st1" d="M84.4,183.9c0-3,2.8-4.8,6.7-4.8h3.8v0.2h-1c-2.5,0-3.7,1.6-3.7,3.8c0,1.9,0.6,3.4,2.2,3.4
		c1,0,1.8-0.5,2.6-1.2v0.2c-1.2,1.3-3,2.8-5.6,2.8C86.3,188.4,84.3,186.7,84.4,183.9z M85.8,174c0-1.8,1.6-3.6,6.4-3.8v0.2
		c-1.4,0.2-2.2,1.3-2.2,2.6c0,1.3,0.9,2,2.3,2.1c-0.5,1-2,1.7-3.4,1.7C86.9,176.7,85.8,175.4,85.8,174z M95.9,184.4v-10.7
		c0-1.7-0.7-3.1-2.4-3.3v-0.2c5.8,0.2,8.1,2.4,8.1,7v8.5c0,1,0.4,1.4,1,1.4c0.5,0,1.1-0.5,1.7-1.6h0.2c-0.6,1.9-2.5,2.8-4.6,2.8
		C97.2,188.4,95.9,187.4,95.9,184.4z"/>
	<path class="st1" d="M119.2,185.3v0.2c-1.1,1.6-3.4,2.8-6,2.8c-3.2,0-5.4-1.4-5.4-4.9v-11.5H106l0.4-0.5h1.4v-3.8
		c2.1,0,4.2-0.7,5.7-2v5.7h4.7l-0.4,0.5h-4.3v11.6c0,1.8,0.7,3.6,2.3,3.6C116.8,187.1,118,186.5,119.2,185.3z"/>
	<path class="st1" d="M128.4,186c0,0.9,0.5,1.8,2.6,1.8v0.2h-11v-0.2c2.1,0,2.6-0.9,2.6-1.8v-12.4c0-1.3-0.6-1.9-2.6-1.9v-0.2
		c3.3,0,5.9-0.4,8.4-1.4V186z M140,175.1V186c0,0.9,0.5,1.8,2.6,1.8v0.2h-11v-0.2c2.1,0,2.6-0.9,2.6-1.8v-10.9c0-2-0.8-3-2.5-3
		c-1,0-1.9,0.5-2.3,1V173c0.8-1.5,2.6-2.8,5.1-2.8C137.9,170.2,140,171.6,140,175.1z M151.6,175.1V186c0,0.9,0.5,1.8,2.6,1.8v0.2
		h-11v-0.2c2.1,0,2.6-0.9,2.6-1.8v-10.9c0-2-0.8-3-2.5-3c-1,0-1.9,0.5-2.3,1V173c0.8-1.5,2.6-2.8,5.1-2.8
		C149.5,170.2,151.6,171.6,151.6,175.1z"/>
	<path class="st1" d="M156.1,179.2c0-5.9,4.5-9,8.6-9v0.2c-2.1,0.2-2.6,2-2.6,8.7c0,5,2.2,7.8,5.4,7.8c2,0,3.5-0.6,5.1-1.9v0.2
		c-1.8,2.3-5.1,3.2-7.4,3.2C160.7,188.4,156.1,185.1,156.1,179.2z M164,177.7c3.1,0,4.4-1,4.4-3.9c0-1.7-0.7-3.2-2.3-3.4v-0.2
		c4.6,0,6.9,3.3,6.9,6c0,0.6-0.1,1.3-0.2,1.8H164V177.7z"/>
	<path class="st1" d="M175.2,187.8c2.1,0,2.6-0.9,2.6-1.8v-12.4c0-1.3-0.6-1.9-2.6-1.9v-0.2c3.3,0,5.9-0.4,8.4-1.4V186
		c0,0.9,0.5,1.8,2.6,1.8v0.2h-11V187.8z M187.5,187.8c2.1,0,2.6-0.9,2.6-1.8v-10.9c0-2-1-3-2.8-3c-1,0-1.8,0.3-2.7,1.1V173
		c0.9-1.5,3.2-2.8,5.8-2.8c3.2,0,5.4,1.5,5.4,4.9V186c0,0.9,0.5,1.8,2.6,1.8v0.2h-11V187.8z"/>
	<path class="st1" d="M213.4,185.3v0.2c-1.1,1.6-3.4,2.8-6,2.8c-3.2,0-5.4-1.4-5.4-4.9v-11.5h-1.8l0.4-0.5h1.4v-3.8
		c2.1,0,4.2-0.7,5.7-2v5.7h4.7l-0.4,0.5h-4.3v11.6c0,1.8,0.7,3.6,2.3,3.6C211,187.1,212.2,186.5,213.4,185.3z"/>
	<path class="st1" d="M214.4,168.6c0-3.1,4.2-4.6,7.4-4.7v0.2c-1.7,0.5-2.5,2-2.5,3.4c0,1.3,0.5,2.4,2,3c-0.6,0.8-1.8,1.4-3.2,1.4
		C216.3,171.9,214.4,170.9,214.4,168.6z M219.6,187.2c0-1.9,1.5-3.2,3.7-3.2s3.7,1.3,3.7,3.2c0,2-1.5,3.2-3.7,3.2
		S219.6,189.1,219.6,187.2z M220.5,177.3c0-3.9,5.6-5.1,5.6-9.6c0-1.9-0.7-3.1-2.5-3.7v-0.2c4.8,0.3,8.5,1.9,8.5,5.8
		c0,4.8-7.6,6.3-7.6,9.3c0,0.9,0.3,1.5,1.3,2l0,0.2C222.2,181.2,220.5,179.5,220.5,177.3z"/>
</g>
</svg>
