<?xml version="1.0" encoding="utf-8"?>
<!-- Generator: Adobe Illustrator 24.0.3, SVG Export Plug-In . SVG Version: 6.00 Build 0)  -->
<svg version="1.1" id="Layer_1" xmlns="http://www.w3.org/2000/svg" xmlns:xlink="http://www.w3.org/1999/xlink" x="0px" y="0px"
	 viewBox="0 0 300 600" style="enable-background:new 0 0 300 600;" xml:space="preserve">
<style type="text/css">
	.st0{enable-background:new    ;}
	.st1{fill:#FFFFFF;}
</style>
<title>Artboard 1 copy 2</title>
<g class="st0">
	<path class="st1" d="M53,52.6L45.1,71h-0.5l-10-21.8c-0.6-1.2-1.9-1.8-3.7-1.8v-0.2h9.4L47.6,63L53,51.9V52.6z M38.6,70.8V71h-7.7
		v-0.2c2.3,0,3.4-1.5,3.4-2.9l0.3-15.1l0.3,0.6l0.3,14.5C35.2,69.4,36.3,70.8,38.6,70.8z M60.3,49.2V69c0,0.9,0.5,1.8,2.6,1.8V71
		H51.7v-0.2c2.1,0,2.6-0.8,2.6-1.8V47.2h8.6v0.2C60.8,47.4,60.3,48.3,60.3,49.2z"/>
</g>
<g class="st0">
	<path class="st1" d="M74,53.4c-2.1,0.2-2.8,2-2.8,8.8c0,6.6,0.7,8.8,2.8,9v0.2c-4,0-8.7-3.3-8.7-9.2c0-5.9,4.6-9,8.7-9V53.4z
		 M84.1,62.2c0,5.8-4.7,9.2-8.7,9.2v-0.2c2.1-0.2,2.7-2.4,2.7-9c0-6.9-0.7-8.6-2.7-8.8v-0.2C79.5,53.2,84.1,56.3,84.1,62.2z"/>
</g>
<g class="st0">
	<path class="st1" d="M94.8,69c0,0.9,0.5,1.8,2.6,1.8V71h-11v-0.2c2.1,0,2.6-0.9,2.6-1.8V56.6c0-1.3-0.6-1.9-2.6-1.9v-0.2
		c3.3,0,5.9-0.4,8.4-1.4V69z M104.2,56.9c0,2.4-1.7,4-3.6,4c-0.8,0-1.6-0.2-2-0.8c0.7-0.3,1.4-1.1,1.4-2.4c0-1-0.7-1.9-2-1.9
		c-0.9,0-1.6,0.5-2.1,1.3v-0.3c0.7-2.2,2.4-3.8,4.6-3.8C102.9,53.2,104.2,54.8,104.2,56.9z"/>
</g>
<g class="st0">
	<path class="st1" d="M106.1,62.2c0-5.9,4.5-9,8.6-9v0.2c-2.1,0.2-2.6,2-2.6,8.7c0,5,2.2,7.8,5.4,7.8c2,0,3.5-0.6,5.1-1.9v0.2
		c-1.8,2.3-5.1,3.2-7.4,3.2C110.6,71.4,106.1,68.1,106.1,62.2z M114,60.7c3.1,0,4.4-1,4.4-3.9c0-1.7-0.7-3.2-2.3-3.4v-0.2
		c4.6,0,6.9,3.3,6.9,6c0,0.6-0.1,1.3-0.2,1.8H114V60.7z"/>
</g>
<g class="st0">
	<path class="st1" d="M31.5,101.2c0-5.9,4.5-9,8.6-9v0.2c-2.1,0.2-2.6,2-2.6,8.7c0,5,2.2,7.8,5.4,7.8c2,0,3.5-0.6,5.1-1.9v0.2
		c-1.8,2.3-5.1,3.2-7.4,3.2C36,110.4,31.5,107.1,31.5,101.2z M39.3,99.7c3.1,0,4.4-1,4.4-3.9c0-1.7-0.7-3.2-2.3-3.4v-0.2
		c4.6,0,6.9,3.3,6.9,6c0,0.6-0.1,1.3-0.2,1.8h-8.8V99.7z"/>
</g>
<g class="st0">
	<path class="st1" d="M51.2,93.9c-0.4-0.7-0.8-1.2-1.9-1.2v-0.2h9.8v0.2c-1.2,0-1.7,0.8-1.1,2.1l4.6,9.6l-3,5.7h-0.2L51.2,93.9z
		 M64,100.9c0.6-1.1,1-2.6,1-4.5c0-1.9-1.1-3.7-3.6-3.7v-0.2h8.7v0.2c-1.2,0-1.6,0.5-2.3,1.6l-3.6,6.9L64,100.9z"/>
</g>
<g class="st0">
	<path class="st1" d="M70.4,101.2c0-5.9,4.5-9,8.6-9v0.2c-2.1,0.2-2.6,2-2.6,8.7c0,5,2.2,7.8,5.4,7.8c2,0,3.5-0.6,5.1-1.9v0.2
		c-1.8,2.3-5.1,3.2-7.4,3.2C74.9,110.4,70.4,107.1,70.4,101.2z M78.3,99.7c3.1,0,4.4-1,4.4-3.9c0-1.7-0.7-3.2-2.3-3.4v-0.2
		c4.6,0,6.9,3.3,6.9,6c0,0.6-0.1,1.3-0.2,1.8h-8.8V99.7z"/>
	<path class="st1" d="M97.9,108c0,0.9,0.5,1.8,2.6,1.8v0.2h-11v-0.2c2.1,0,2.6-0.9,2.6-1.8V95.6c0-1.3-0.6-1.9-2.6-1.9v-0.2
		c3.3,0,5.9-0.4,8.4-1.4V108z M107.3,95.9c0,2.4-1.7,4-3.6,4c-0.8,0-1.6-0.2-2-0.8c0.7-0.3,1.4-1.1,1.4-2.4c0-1-0.7-1.9-2-1.9
		c-0.9,0-1.6,0.5-2.1,1.3v-0.3c0.7-2.2,2.4-3.8,4.6-3.8C106,92.2,107.3,93.8,107.3,95.9z"/>
	<path class="st1" d="M109.7,93.9c-0.4-0.7-0.8-1.2-1.9-1.2v-0.2h9.8v0.2c-1.2,0-1.7,0.8-1.1,2.1l4.6,9.6l-3,5.7h-0.2L109.7,93.9z
		 M108.2,115.6c0-1.5,1.2-2.8,3.1-3.3c-0.1,0.3-0.1,0.6-0.1,0.9c0,1.3,0.7,2.3,2.1,2.3c1.2,0,2.2-1.3,3.5-3.5h0.2
		c-1.9,3.6-3.3,6.7-5.7,6.7C109.3,118.8,108.2,117.4,108.2,115.6z M122.5,100.9c0.6-1.1,1-2.6,1-4.5c0-1.9-1.1-3.7-3.6-3.7v-0.2h8.7
		v0.2c-1.2,0-1.6,0.5-2.3,1.6l-3.6,6.9L122.5,100.9z"/>
	<path class="st1" d="M142.4,107.3v0.2c-1.1,1.6-3.4,2.8-6,2.8c-3.2,0-5.4-1.4-5.4-4.9V93.9h-1.8l0.4-0.5h1.4v-3.8
		c2.1,0,4.2-0.7,5.7-2v5.7h4.7l-0.4,0.5h-4.3v11.6c0,1.8,0.7,3.6,2.3,3.6C140,109.1,141.2,108.5,142.4,107.3z"/>
	<path class="st1" d="M151.4,108c0,0.9,0.5,1.8,2.6,1.8v0.2h-11v-0.2c2.1,0,2.6-0.9,2.6-1.8V87.7c0-1.3-0.6-1.9-2.6-1.9v-0.2
		c3.3,0,5.9-0.4,8.4-1.4V108z M163.6,97.1V108c0,0.9,0.5,1.8,2.6,1.8v0.2h-11v-0.2c2.1,0,2.6-0.9,2.6-1.8V97.1c0-2-1-3-2.8-3
		c-1,0-1.8,0.3-2.7,1.1V95c0.9-1.5,3.2-2.8,5.8-2.8C161.4,92.2,163.6,93.6,163.6,97.1z"/>
	<path class="st1" d="M167.6,93.5c3.3,0,5.9-0.4,8.4-1.4V108c0,0.9,0.5,1.8,2.6,1.8v0.2h-11v-0.2c2.1,0,2.6-0.9,2.6-1.8V95.6
		c0-1.3-0.6-1.9-2.6-1.9V93.5z M169.4,86.9c0-1.8,1.5-3,3.6-3c2.1,0,3.6,1.2,3.6,3c0,1.9-1.5,3.1-3.6,3.1
		C170.8,90,169.4,88.8,169.4,86.9z"/>
	<path class="st1" d="M180,109.8c2.1,0,2.6-0.9,2.6-1.8V95.6c0-1.3-0.6-1.9-2.6-1.9v-0.2c3.3,0,5.9-0.4,8.4-1.4V108
		c0,0.9,0.5,1.8,2.6,1.8v0.2h-11V109.8z M192.4,109.8c2.1,0,2.6-0.9,2.6-1.8V97.1c0-2-1-3-2.8-3c-1,0-1.8,0.3-2.7,1.1V95
		c0.9-1.5,3.2-2.8,5.8-2.8c3.2,0,5.4,1.5,5.4,4.9V108c0,0.9,0.5,1.8,2.6,1.8v0.2h-11V109.8z"/>
	<path class="st1" d="M205.4,98.5c0-4.5,4.3-6.3,7.8-6.3v0.2c-1.5,0.1-2.2,2-2.2,6c0,4.2,0.7,6,2.2,6.1v0.2
		C209.7,104.7,205.4,103,205.4,98.5z M214.7,118.6c3.5-0.4,4.6-2.3,4.6-3.6c0-4.9-13.7-0.5-13.7-6.8c0-1.4,0.7-2.6,2.3-3.6l0.1,0.2
		c-0.2,0.1-0.3,0.4-0.3,0.7c0,3.9,16-0.6,16,7c0,3.6-3.1,6-9.1,6.3V118.6z M205.7,115.6c0-2.1,2.6-2.7,5.3-2.7
		c-0.6,0.3-1.5,1.3-1.5,2.5c0,1.6,1.8,2.8,3.8,3.2v0.2C209.6,118.7,205.7,117.9,205.7,115.6z M214.7,104.5c1.7-0.1,2.4-1.9,2.4-6.1
		c0-4.1-0.7-5.9-2.4-6v-0.2c3.7,0.1,8,1.8,8,6.3c0,4.5-4.3,6.2-8,6.2V104.5z M216.6,91.5c0.6-1.8,2.2-4.2,4.6-4.2c1.9,0,3,1,3,2.7
		c0,1.7-1.5,2.7-2.8,2.7c0-1.5-0.8-2.3-1.9-2.3c-1,0-2.2,0.6-2.7,1.3L216.6,91.5z"/>
</g>
<g class="st0">
	<path class="st1" d="M44.4,146.3v0.2c-1.1,1.6-3.4,2.8-6,2.8c-3.2,0-5.4-1.4-5.4-4.9v-11.5h-1.8l0.4-0.5H33v-3.8
		c2.1,0,4.2-0.7,5.7-2v5.7h4.7l-0.4,0.5h-4.3v11.6c0,1.8,0.7,3.6,2.3,3.6C42.1,148.1,43.3,147.5,44.4,146.3z"/>
	<path class="st1" d="M53.5,147c0,0.9,0.5,1.8,2.6,1.8v0.2H45v-0.2c2.1,0,2.6-0.9,2.6-1.8v-20.3c0-1.3-0.6-1.9-2.6-1.9v-0.2
		c3.3,0,5.9-0.4,8.4-1.4V147z M65.7,136.1V147c0,0.9,0.5,1.8,2.6,1.8v0.2h-11v-0.2c2.1,0,2.6-0.9,2.6-1.8v-10.9c0-2-1-3-2.8-3
		c-1,0-1.8,0.3-2.7,1.1V134c0.9-1.5,3.2-2.8,5.8-2.8C63.5,131.2,65.7,132.6,65.7,136.1z"/>
	<path class="st1" d="M69.9,144.9c0-3,2.8-4.8,6.7-4.8h3.8v0.2h-1c-2.5,0-3.7,1.6-3.7,3.8c0,1.9,0.6,3.4,2.2,3.4
		c1,0,1.8-0.5,2.6-1.2v0.2c-1.2,1.3-3,2.8-5.6,2.8C71.8,149.4,69.8,147.7,69.9,144.9z M71.3,135c0-1.8,1.6-3.6,6.4-3.8v0.2
		c-1.4,0.2-2.2,1.3-2.2,2.6c0,1.3,0.9,2,2.3,2.1c-0.5,1-2,1.7-3.4,1.7C72.4,137.7,71.3,136.4,71.3,135z M81.4,145.4v-10.7
		c0-1.7-0.7-3.1-2.4-3.3v-0.2c5.8,0.2,8.1,2.4,8.1,7v8.5c0,1,0.3,1.4,1,1.4c0.5,0,1.1-0.5,1.7-1.6H90c-0.6,1.9-2.5,2.8-4.6,2.8
		C82.7,149.4,81.4,148.4,81.4,145.4z"/>
	<path class="st1" d="M91.1,148.8c2.1,0,2.6-0.9,2.6-1.8v-12.4c0-1.3-0.6-1.9-2.6-1.9v-0.2c3.3,0,5.9-0.4,8.4-1.4V147
		c0,0.9,0.5,1.8,2.6,1.8v0.2h-11V148.8z M103.4,148.8c2.1,0,2.6-0.9,2.6-1.8v-10.9c0-2-1-3-2.8-3c-1,0-1.8,0.3-2.7,1.1V134
		c0.9-1.5,3.2-2.8,5.8-2.8c3.2,0,5.4,1.5,5.4,4.9V147c0,0.9,0.5,1.8,2.6,1.8v0.2h-11V148.8z"/>
	<path class="st1" d="M124.8,144.9c0-3,2.8-4.8,6.7-4.8h3.8v0.2h-1c-2.5,0-3.7,1.6-3.7,3.8c0,1.9,0.6,3.4,2.2,3.4
		c1,0,1.8-0.5,2.6-1.2v0.2c-1.2,1.3-3,2.8-5.6,2.8C126.8,149.4,124.8,147.7,124.8,144.9z M126.2,135c0-1.8,1.6-3.6,6.4-3.8v0.2
		c-1.4,0.2-2.2,1.3-2.2,2.6c0,1.3,0.9,2,2.3,2.1c-0.5,1-2,1.7-3.4,1.7C127.4,137.7,126.2,136.4,126.2,135z M136.4,145.4v-10.7
		c0-1.7-0.7-3.1-2.4-3.3v-0.2c5.8,0.2,8.1,2.4,8.1,7v8.5c0,1,0.3,1.4,1,1.4c0.5,0,1.1-0.5,1.7-1.6h0.2c-0.6,1.9-2.5,2.8-4.6,2.8
		C137.7,149.4,136.4,148.4,136.4,145.4z"/>
</g>
<g class="st0">
	<path class="st1" d="M146.1,148.8c2.1,0,2.6-0.9,2.6-1.8v-12.4c0-1.3-0.6-1.9-2.6-1.9v-0.2c3.3,0,5.9-0.4,8.4-1.4V147
		c0,0.9,0.5,1.8,2.6,1.8v0.2h-11V148.8z M158.4,148.8c2.1,0,2.6-0.9,2.6-1.8v-10.9c0-2-1-3-2.8-3c-1,0-1.8,0.3-2.7,1.1V134
		c0.9-1.5,3.2-2.8,5.8-2.8c3.2,0,5.4,1.5,5.4,4.9V147c0,0.9,0.5,1.8,2.6,1.8v0.2h-11V148.8z"/>
</g>
<g class="st0">
	<path class="st1" d="M170.8,132.9c-0.3-0.7-0.8-1.2-1.9-1.2v-0.2h9.8v0.2c-1.2,0-1.7,0.8-1.1,2.1l4.6,9.6l-3,5.7h-0.2L170.8,132.9z
		 M169.2,154.6c0-1.5,1.2-2.8,3.1-3.3c-0.1,0.3-0.1,0.6-0.1,0.9c0,1.3,0.7,2.3,2.1,2.3c1.2,0,2.2-1.3,3.5-3.5h0.2
		c-1.9,3.6-3.3,6.7-5.7,6.7C170.3,157.8,169.2,156.4,169.2,154.6z M183.6,139.9c0.6-1.1,1-2.6,1-4.5c0-1.9-1.1-3.7-3.6-3.7v-0.2h8.7
		v0.2c-1.2,0-1.6,0.5-2.3,1.6l-3.6,6.9L183.6,139.9z"/>
</g>
<g class="st0">
	<path class="st1" d="M198.6,131.4c-2.1,0.2-2.8,2-2.8,8.8c0,6.6,0.7,8.8,2.8,9v0.2c-4,0-8.7-3.3-8.7-9.2c0-5.9,4.6-9,8.7-9V131.4z
		 M208.7,140.2c0,5.8-4.7,9.2-8.7,9.2v-0.2c2.1-0.2,2.7-2.4,2.7-9c0-6.9-0.7-8.6-2.7-8.8v-0.2C204.1,131.2,208.7,134.3,208.7,140.2z
		"/>
	<path class="st1" d="M211,148.8c2.1,0,2.6-0.9,2.6-1.8v-12.4c0-1.3-0.6-1.9-2.6-1.9v-0.2c3.3,0,5.9-0.4,8.4-1.4V147
		c0,0.9,0.5,1.8,2.6,1.8v0.2h-11V148.8z M223.3,148.8c2.1,0,2.6-0.9,2.6-1.8v-10.9c0-2-1-3-2.8-3c-1,0-1.8,0.3-2.7,1.1V134
		c0.9-1.5,3.2-2.8,5.8-2.8c3.2,0,5.4,1.5,5.4,4.9V147c0,0.9,0.5,1.8,2.6,1.8v0.2h-11V148.8z"/>
	<path class="st1" d="M236.2,140.2c0-5.9,4.5-9,8.6-9v0.2c-2.1,0.2-2.6,2-2.6,8.7c0,5,2.2,7.8,5.4,7.8c2,0,3.5-0.6,5.1-1.9v0.2
		c-1.8,2.3-5.1,3.2-7.4,3.2C240.7,149.4,236.2,146.1,236.2,140.2z M244.1,138.7c3.1,0,4.4-1,4.4-3.9c0-1.7-0.7-3.2-2.3-3.4v-0.2
		c4.6,0,6.9,3.3,6.9,6c0,0.6-0.1,1.3-0.2,1.8h-8.8V138.7z"/>
</g>
<g class="st0">
	<path class="st1" d="M31.5,179.2c0-5.9,4.5-9,8.6-9v0.2c-2.1,0.2-2.6,2-2.6,8.7c0,5,2.2,7.8,5.4,7.8c2,0,3.5-0.6,5.1-1.9v0.2
		c-1.8,2.3-5.1,3.2-7.4,3.2C36,188.4,31.5,185.1,31.5,179.2z M39.3,177.7c3.1,0,4.4-1,4.4-3.9c0-1.7-0.7-3.2-2.3-3.4v-0.2
		c4.6,0,6.9,3.3,6.9,6c0,0.6-0.1,1.3-0.2,1.8h-8.8V177.7z"/>
	<path class="st1" d="M50.4,163.6c3.3,0,5.9-0.4,8.4-1.4V186c0,0.9,0.5,1.8,2.6,1.8v0.2h-11v-0.2c2.1,0,2.6-0.9,2.6-1.8v-20.3
		c0-1.3-0.6-1.9-2.6-1.9V163.6z"/>
	<path class="st1" d="M69.6,183.8c-1.2,0-2,0.7-2,1.8c0,1,0.7,2.3,3.1,2.6v0.2c-4.7-0.2-7.2-1.4-7.2-3.5c0-1.6,1.4-2.6,3-2.6
		C67.9,182.3,69,183,69.6,183.8z M70.7,170.4c-1.3,0.2-2.6,0.9-2.5,2.3c0.1,4.1,11.4,4.7,11.4,10.3c0,3.4-2.9,5.2-7.4,5.4v-0.2
		c1.5-0.2,3.1-0.8,3.1-2.6c0-3.6-11.5-5-11.5-10.3c0-3.1,2.9-4.9,6.8-5.1V170.4z M79,173.8c0,1.1-0.8,2.2-2.6,2.2
		c-1.5,0-2.5-0.6-3-1.7c1.1-0.1,1.6-0.8,1.6-1.6c0-1.1-1.3-2.1-2.7-2.2v-0.2C76.2,170.4,79,171.8,79,173.8z"/>
	<path class="st1" d="M82.6,179.2c0-5.9,4.5-9,8.6-9v0.2c-2.1,0.2-2.6,2-2.6,8.7c0,5,2.2,7.8,5.4,7.8c2,0,3.5-0.6,5.1-1.9v0.2
		c-1.8,2.3-5.1,3.2-7.4,3.2C87.1,188.4,82.6,185.1,82.6,179.2z M90.4,177.7c3.1,0,4.4-1,4.4-3.9c0-1.7-0.7-3.2-2.3-3.4v-0.2
		c4.6,0,6.9,3.3,6.9,6c0,0.6-0.1,1.3-0.2,1.8h-8.8V177.7z"/>
</g>
</svg>
