<svg id="Layer_1" data-name="Layer 1" xmlns="http://www.w3.org/2000/svg" xmlns:xlink="http://www.w3.org/1999/xlink" viewBox="0 0 300 150"><defs><style>.cls-1{fill:none;}.cls-2{clip-path:url(#clip-path);}.cls-3{fill:#fb0010;}.cls-4{fill:#fff;}</style><clipPath id="clip-path"><rect class="cls-1" y="-0.05" width="300" height="150"/></clipPath></defs><title>Artboard 1</title><g class="cls-2"><path class="cls-3" d="M14.47,64.07H107a7.92,7.92,0,0,0,7-4.27l10.43-20.09a8,8,0,0,0,0-7.3L114,12.32a7.9,7.9,0,0,0-7-4.27H14.47a4.81,4.81,0,0,0-4.81,4.81v46.4A4.81,4.81,0,0,0,14.47,64.07Z"/><path class="cls-4" d="M51.42,29.16l.2-.28c.14-.2.29-.21.51-.08a2.26,2.26,0,0,0,1.28.46c.59,0,.94-.29.94-.72,0-1.2-2.94-.95-2.94-2.91a1.92,1.92,0,0,1,2.12-1.83,3,3,0,0,1,1.63.48.35.35,0,0,1,.11.51l-.16.29c-.13.26-.32.22-.5.12a2.1,2.1,0,0,0-1.09-.34c-.59,0-1,.28-1,.71,0,1.18,2.93.88,2.93,2.88a1.89,1.89,0,0,1-2.08,1.87,3.31,3.31,0,0,1-1.93-.64A.33.33,0,0,1,51.42,29.16Z"/><path class="cls-4" d="M58,24.89H56.34a.32.32,0,0,1-.37-.36v-.25a.33.33,0,0,1,.37-.37h4.52a.33.33,0,0,1,.37.37v.25a.33.33,0,0,1-.37.36H59.17v4.95a.33.33,0,0,1-.37.37h-.4a.33.33,0,0,1-.37-.37Z"/><path class="cls-4" d="M62.73,24.21a.4.4,0,0,1,.41-.3h.57a.4.4,0,0,1,.42.3l2,5.57c.09.26,0,.43-.3.43h-.41a.4.4,0,0,1-.42-.3l-.44-1.32H62.32l-.44,1.31a.39.39,0,0,1-.42.31h-.4c-.28,0-.39-.17-.3-.43Zm1.51,3.45L63.68,26c-.1-.36-.25-1-.25-1h0s-.14.62-.25,1l-.57,1.68Z"/><path class="cls-4" d="M66.89,24.28a.33.33,0,0,1,.37-.37H69a2.83,2.83,0,0,1,1.2.17,1.74,1.74,0,0,1,1,1.72,1.83,1.83,0,0,1-1,1.72v0a2.24,2.24,0,0,1,.2.33l1,1.89c.15.26,0,.45-.26.45h-.48a.45.45,0,0,1-.43-.26l-1.11-2.09H68v2a.33.33,0,0,1-.37.37h-.4a.33.33,0,0,1-.37-.37Zm2.17,2.58a.92.92,0,0,0,1-1,.84.84,0,0,0-.5-.86,1.55,1.55,0,0,0-.68-.11H68v2Z"/><path class="cls-4" d="M51.84,32a.19.19,0,0,1,.21-.22h.19a.2.2,0,0,1,.21.22v5.79a.2.2,0,0,1-.21.22h-.19a.19.19,0,0,1-.21-.22Z"/><path class="cls-4" d="M53.93,33.75a.2.2,0,0,1,.22-.22h.16a.2.2,0,0,1,.21.22v.52a1.84,1.84,0,0,1,0,.32h0a2,2,0,0,1,1.81-1.17c1.1,0,1.5.63,1.5,1.73v2.62a.2.2,0,0,1-.23.22h-.17a.19.19,0,0,1-.21-.22V35.31c0-.7-.11-1.32-1-1.32a1.73,1.73,0,0,0-1.7,1.82v2a.19.19,0,0,1-.21.22h-.17a.2.2,0,0,1-.22-.22Z"/><path class="cls-4" d="M58.76,37.28l.08-.08c.07-.11.17-.12.3,0a1.91,1.91,0,0,0,1.18.41c.49,0,.9-.25.9-.72,0-1-2.38-.7-2.38-2.17,0-.83.7-1.26,1.51-1.26a2.1,2.1,0,0,1,1.23.37.19.19,0,0,1,.06.29l-.06.1a.2.2,0,0,1-.3.06,1.73,1.73,0,0,0-1-.28c-.47,0-.88.2-.88.69,0,1,2.38.7,2.38,2.19a1.34,1.34,0,0,1-1.51,1.26,2.37,2.37,0,0,1-1.51-.51A.2.2,0,0,1,58.76,37.28Z"/><path class="cls-4" d="M62.71,33.75a.19.19,0,0,1,.21-.22h.17a.2.2,0,0,1,.23.22v2.46c0,.7.1,1.32,1,1.32a1.73,1.73,0,0,0,1.65-1.86V33.75a.2.2,0,0,1,.22-.22h.17a.2.2,0,0,1,.22.22v4a.2.2,0,0,1-.22.22h-.16a.19.19,0,0,1-.21-.22v-.51a1.7,1.7,0,0,1,0-.32h0A1.94,1.94,0,0,1,64.2,38.1c-1.05,0-1.49-.57-1.49-1.73Z"/><path class="cls-4" d="M67.84,33.75a.2.2,0,0,1,.23-.22h.16a.2.2,0,0,1,.21.22v.61a1.61,1.61,0,0,1,0,.35h0a1.59,1.59,0,0,1,1.44-1.21c.16,0,.23.08.23.22v.16c0,.14-.1.22-.25.22-.94,0-1.39,1.07-1.39,2v1.67a.2.2,0,0,1-.22.22h-.16a.2.2,0,0,1-.23-.22Z"/><path class="cls-4" d="M73.16,35.26h.26v-.14c0-.86-.47-1.15-1.1-1.15a2,2,0,0,0-1.08.31.22.22,0,0,1-.31-.07l-.05-.09a.21.21,0,0,1,.06-.31,2.75,2.75,0,0,1,1.42-.39A1.52,1.52,0,0,1,74,35.14v2.63a.19.19,0,0,1-.21.22h-.14a.2.2,0,0,1-.22-.22v-.35a2.47,2.47,0,0,1,0-.34h0a1.66,1.66,0,0,1-1.5,1,1.37,1.37,0,0,1-1.51-1.3C70.44,35.34,72.3,35.26,73.16,35.26ZM72.05,37.6a1.56,1.56,0,0,0,1.37-1.67v-.22h-.25c-.7,0-2.11,0-2.11,1A.9.9,0,0,0,72.05,37.6Z"/><path class="cls-4" d="M75.29,33.75a.2.2,0,0,1,.22-.22h.16a.2.2,0,0,1,.21.22v.52a1.84,1.84,0,0,1,0,.32h0a2,2,0,0,1,1.81-1.17c1.11,0,1.5.63,1.5,1.73v2.62a.2.2,0,0,1-.23.22h-.16a.2.2,0,0,1-.22-.22V35.31c0-.7-.11-1.32-1-1.32a1.73,1.73,0,0,0-1.7,1.82v2a.19.19,0,0,1-.21.22h-.17a.2.2,0,0,1-.22-.22Z"/><path class="cls-4" d="M82.5,33.42a2.35,2.35,0,0,1,1.49.51.19.19,0,0,1,0,.3l-.06.1c-.08.12-.18.12-.3,0a1.88,1.88,0,0,0-1.13-.4,1.8,1.8,0,0,0,0,3.59,1.93,1.93,0,0,0,1.26-.47.18.18,0,0,1,.29,0l.07.09a.21.21,0,0,1-.06.3,2.45,2.45,0,0,1-1.59.57,2.34,2.34,0,1,1,0-4.68Z"/><path class="cls-4" d="M86.9,33.42c1.19,0,1.86.87,1.86,2.13a.23.23,0,0,1-.23.23H85.32a1.7,1.7,0,0,0,1.73,1.78,1.89,1.89,0,0,0,1.17-.41.18.18,0,0,1,.29.05l.07.11a.19.19,0,0,1-.06.29,2.52,2.52,0,0,1-1.49.5,2.25,2.25,0,0,1-2.33-2.33A2.18,2.18,0,0,1,86.9,33.42Zm1.25,1.9a1.28,1.28,0,0,0-1.27-1.4,1.54,1.54,0,0,0-1.53,1.4Z"/><path class="cls-4" d="M54.57,40a3.52,3.52,0,0,1,2.06.63.34.34,0,0,1,.07.52l-.16.25c-.12.21-.29.23-.5.09A2.73,2.73,0,0,0,54.62,41a2,2,0,0,0-2.12,2.16,2.12,2.12,0,0,0,2.13,2.26,2.64,2.64,0,0,0,1.54-.55.32.32,0,0,1,.51.06l.18.24a.34.34,0,0,1,0,.51,3.51,3.51,0,0,1-2.23.79,3.26,3.26,0,0,1,0-6.52Z"/><path class="cls-4" d="M60.15,43.58h.19v-.1a.74.74,0,0,0-.84-.8,2,2,0,0,0-.94.26c-.23.09-.39.06-.5-.15L58,42.62a.33.33,0,0,1,.14-.5,3.26,3.26,0,0,1,1.48-.37,1.68,1.68,0,0,1,1.88,1.8V46a.34.34,0,0,1-.38.37h-.3a.33.33,0,0,1-.36-.37v-.18a.8.8,0,0,1,0-.2h0a1.66,1.66,0,0,1-1.42.86,1.39,1.39,0,0,1-1.5-1.36C57.51,43.81,59.14,43.58,60.15,43.58Zm-.84,2a1.14,1.14,0,0,0,1-1.18v-.17h-.19c-.57,0-1.53.09-1.53.76A.61.61,0,0,0,59.31,45.62Z"/><path class="cls-4" d="M62.53,42.23a.34.34,0,0,1,.37-.38h.34a.34.34,0,0,1,.37.38v.27a1.37,1.37,0,0,1,0,.21h0a1.72,1.72,0,0,1,1.48-1,1.26,1.26,0,0,1,1.32.93h0A1.79,1.79,0,0,1,68,41.75c.94,0,1.48.53,1.48,1.72V46a.33.33,0,0,1-.37.37H68.7a.33.33,0,0,1-.37-.37V43.68c0-.51-.1-.9-.62-.9-.77,0-1.16.78-1.16,1.57V46a.33.33,0,0,1-.36.37H65.8a.33.33,0,0,1-.37-.37V43.68c0-.49-.08-.9-.61-.9-.8,0-1.17.81-1.17,1.57V46a.33.33,0,0,1-.36.37H62.9a.33.33,0,0,1-.37-.37Z"/><path class="cls-4" d="M70.53,42.23a.35.35,0,0,1,.38-.38h.28c.24,0,.36.14.36.31v.21a1.62,1.62,0,0,1,0,.18h0a1.63,1.63,0,0,1,1.46-.8c1.22,0,2,1,2,2.37A2.14,2.14,0,0,1,73,46.49a1.48,1.48,0,0,1-1.31-.7h0a2.34,2.34,0,0,1,0,.39v1.6a.32.32,0,0,1-.37.37h-.38a.34.34,0,0,1-.38-.37Zm2.22,3.31c.62,0,1.14-.51,1.14-1.41s-.46-1.42-1.12-1.42-1.15.43-1.15,1.43A1.26,1.26,0,0,0,72.75,45.54Z"/><path class="cls-4" d="M77.94,41.75a2,2,0,0,1,2,2.15.39.39,0,0,1-.39.38H76.8a1.3,1.3,0,0,0,1.36,1.25,1.8,1.8,0,0,0,1-.3c.22-.1.38-.08.5.13l.11.18a.33.33,0,0,1-.13.49,2.79,2.79,0,0,1-1.53.46,2.33,2.33,0,0,1-2.44-2.37A2.23,2.23,0,0,1,77.94,41.75Zm.89,1.85a.92.92,0,0,0-.91-1,1.11,1.11,0,0,0-1.1,1Z"/><path class="cls-4" d="M80.8,42.23a.33.33,0,0,1,.36-.38h.35a.34.34,0,0,1,.37.38v.42a1.65,1.65,0,0,1,0,.31h0a1.55,1.55,0,0,1,1.31-1.14c.25,0,.34.12.34.37v.35a.34.34,0,0,1-.38.37c-.83,0-1.23.82-1.23,1.64V46a.33.33,0,0,1-.36.37h-.39A.33.33,0,0,1,80.8,46Z"/><path class="cls-4" d="M87.27,40a3.46,3.46,0,0,1,2,.63.35.35,0,0,1,.08.52l-.16.25a.32.32,0,0,1-.51.09A2.7,2.7,0,0,0,87.31,41a2,2,0,0,0-2.11,2.16,2.12,2.12,0,0,0,2.12,2.26,2.64,2.64,0,0,0,1.54-.55c.2-.14.38-.14.52.06l.18.24a.34.34,0,0,1-.06.51,3.48,3.48,0,0,1-2.23.79,3.26,3.26,0,0,1,0-6.52Z"/><path class="cls-4" d="M92.85,43.58H93v-.1a.74.74,0,0,0-.84-.8,2,2,0,0,0-.94.26.34.34,0,0,1-.5-.15l-.09-.17a.33.33,0,0,1,.15-.5,3.19,3.19,0,0,1,1.48-.37,1.68,1.68,0,0,1,1.87,1.8V46a.33.33,0,0,1-.37.37h-.3a.33.33,0,0,1-.37-.37v-.18a.8.8,0,0,1,0-.2h0a1.64,1.64,0,0,1-1.42.86,1.4,1.4,0,0,1-1.5-1.36C90.2,43.81,91.84,43.58,92.85,43.58Zm-.85,2a1.14,1.14,0,0,0,1-1.18v-.17h-.18c-.57,0-1.54.09-1.54.76A.61.61,0,0,0,92,45.62Z"/><path class="cls-4" d="M95.23,42.23a.33.33,0,0,1,.36-.38h.35a.34.34,0,0,1,.37.38v.42a1.65,1.65,0,0,1,0,.31h0a1.55,1.55,0,0,1,1.31-1.14c.25,0,.34.12.34.37v.35a.34.34,0,0,1-.38.37c-.83,0-1.23.82-1.23,1.64V46a.33.33,0,0,1-.36.37h-.39a.33.33,0,0,1-.36-.37Z"/><path class="cls-4" d="M100.52,41.75a2,2,0,0,1,2,2.15.39.39,0,0,1-.39.38H99.37a1.31,1.31,0,0,0,1.36,1.25,1.77,1.77,0,0,0,1-.3c.23-.1.39-.08.5.13l.11.18a.33.33,0,0,1-.13.49,2.79,2.79,0,0,1-1.53.46,2.32,2.32,0,0,1-2.43-2.37A2.23,2.23,0,0,1,100.52,41.75Zm.88,1.85a.91.91,0,0,0-.91-1,1.09,1.09,0,0,0-1.09,1Z"/><path class="cls-4" d="M30.44,43.55a.58.58,0,0,1-.28-.07.61.61,0,0,1-.31-.75l6.56-20.22a1.4,1.4,0,0,1,1.34-1h0a1.37,1.37,0,0,1,1.33,1l1.33,4a.47.47,0,0,1-.3.6.47.47,0,0,1-.6-.3l-1.33-4a.45.45,0,0,0-.43-.32h0a.44.44,0,0,0-.43.32L31.38,41.09l8.37-11.45a2.59,2.59,0,0,1,2.1-1.07h5.57a1.4,1.4,0,0,1,.83,2.54l-5.1,3.7-.06,0,2,6.06a1.4,1.4,0,0,1-2.16,1.56l-4.41-3.2a1.4,1.4,0,0,1,0-2.27l3.7-2.68,0,0,5.44-3.95a.46.46,0,0,0,.16-.51.43.43,0,0,0-.43-.31H41.85a1.65,1.65,0,0,0-1.34.68L31,43.29A.62.62,0,0,1,30.44,43.55Zm11.85-8.1-3.23,2.33a.45.45,0,0,0-.19.37.44.44,0,0,0,.19.36l4.41,3.2a.43.43,0,0,0,.53,0,.42.42,0,0,0,.16-.5Z"/><path class="cls-4" d="M30.78,33.5a.46.46,0,0,1-.27-.09l-3.25-2.3a1.4,1.4,0,0,1,.82-2.54h4a.48.48,0,1,1,0,.95h-4a.43.43,0,0,0-.43.31.43.43,0,0,0,.16.51l3.25,2.3a.47.47,0,0,1-.28.86Z"/><path class="cls-4" d="M35.21,50.26a1.57,1.57,0,0,1-.76-.2l-8.31-4.72a.46.46,0,0,1-.24-.41V34.79a.48.48,0,0,1,1,0v9.86l8.06,4.58a.6.6,0,0,0,.61,0l5.9-3.69a.47.47,0,1,1,.5.8L36,50A1.53,1.53,0,0,1,35.21,50.26Z"/></g></svg>