<svg id="Layer_1" data-name="Layer 1" xmlns="http://www.w3.org/2000/svg" viewBox="0 0 970 250"><defs><style>.cls-1{fill:#fff;}.cls-2{fill:none;}</style></defs><title>Artboard 1 copy</title><path class="cls-1" d="M89.29,81.57l.18.36c-2.34,3.73-6.48,5.44-10.84,5.44-7.34,0-16.47-5.21-16.47-15.7,0-11.38,8.91-15.61,15.39-15.79v.27C74.4,56.82,71,59.79,71,71.36s4.63,14.22,9.72,14.22A11,11,0,0,0,89.29,81.57Zm.36-25.69V66.81h-.36c-1.75-6-5.08-9.45-9.49-10.66v-.27c3.91.18,6.3.85,8.14,2.07l1.35-2.07Z"/><path class="cls-1" d="M103.24,84.36c0,1.13.68,2.3,3.38,2.3v.26H92.44v-.26c2.7,0,3.38-1.17,3.38-2.3V58.26c0-1.62-.77-2.38-3.33-2.38v-.27a27.42,27.42,0,0,0,10.75-1.76Zm15.75-14v14c0,1.13.68,2.3,3.38,2.3v.26H108.24v-.26c2.65,0,3.33-1.17,3.33-2.3v-14c0-2.52-1.31-3.82-3.56-3.82a4.79,4.79,0,0,0-3.42,1.39v-.27A9.19,9.19,0,0,1,112.06,64C116.11,64,119,65.87,119,70.32Z"/><path class="cls-1" d="M124.35,81.62c0-3.92,3.6-6.13,8.64-6.13h4.86v.28H136.5c-3.24,0-4.77,2.11-4.77,4.9,0,2.47.72,4.37,2.83,4.37a5,5,0,0,0,3.29-1.58v.27a9.58,9.58,0,0,1-7.16,3.64C126.87,87.37,124.3,85.21,124.35,81.62Zm1.8-12.74c0-2.29,2.07-4.63,8.19-4.9v.27a3.28,3.28,0,0,0-2.88,3.28c0,1.62,1.12,2.61,2.92,2.75a5,5,0,0,1-4.32,2.16A3.61,3.61,0,0,1,126.15,68.88Zm13,13.41V68.52c0-2.2-.86-4-3.06-4.27V64c7.47.27,10.44,3.1,10.44,9V83.91c0,1.3.45,1.84,1.26,1.84s1.44-.67,2.16-2h.27c-.72,2.47-3.15,3.64-5.85,3.64C140.82,87.37,139.2,86.12,139.2,82.29Z"/><path class="cls-1" d="M151.66,86.66c2.7,0,3.38-1.17,3.38-2.3v-16c0-1.62-.77-2.39-3.33-2.39v-.27A27.61,27.61,0,0,0,162.46,64V84.36c0,1.13.68,2.3,3.38,2.3v.26H151.66Zm15.84,0c2.66,0,3.33-1.17,3.33-2.3v-14c0-2.52-1.3-3.82-3.55-3.82a4.79,4.79,0,0,0-3.42,1.39v-.27A9.18,9.18,0,0,1,171.33,64c4,0,6.93,1.89,6.93,6.34v14c0,1.13.67,2.3,3.37,2.3v.26H167.5Z"/><path class="cls-1" d="M184.29,72.12c0-5.85,5.49-8.05,10.08-8.14v.27c-1.94.18-2.84,2.52-2.84,7.74,0,5.44.9,7.64,2.84,7.83v.26C189.82,80.08,184.29,77.92,184.29,72.12Zm12,25.78c4.5-.54,5.94-3,5.94-4.59,0-6.25-17.55-.67-17.55-8.73,0-1.84.94-3.28,3-4.59l.14.23a1.05,1.05,0,0,0-.41.86c0,5,20.52-.82,20.52,9,0,4.64-4,7.65-11.65,8.1Zm-11.61-3.78c0-2.65,3.28-3.46,6.84-3.46a3.78,3.78,0,0,0-1.94,3.19c0,2.07,2.34,3.65,4.91,4.05v.27C189.64,98.08,184.65,97.09,184.65,94.12Zm11.61-14.3c2.2-.19,3.1-2.39,3.1-7.83,0-5.22-.94-7.56-3.1-7.74V64c4.77.09,10.3,2.29,10.3,8.14s-5.53,8-10.3,8Zm2.43-16.65c.76-2.3,2.83-5.4,5.94-5.4,2.38,0,3.82,1.26,3.82,3.42a3.59,3.59,0,0,1-3.64,3.51c0-1.89-1-3-2.43-3a4.89,4.89,0,0,0-3.47,1.62Z"/><path class="cls-1" d="M209.76,65.69a27.42,27.42,0,0,0,10.75-1.76V84.36c0,1.13.68,2.3,3.38,2.3v.26H209.71v-.26c2.7,0,3.38-1.17,3.38-2.3v-16c0-1.62-.77-2.38-3.33-2.38Zm2.29-8.46c0-2.34,1.89-3.92,4.59-3.92s4.59,1.58,4.59,3.92-1.89,4-4.59,4S212.05,59.61,212.05,57.23Z"/><path class="cls-1" d="M225.78,86.66c2.7,0,3.37-1.17,3.37-2.3v-16c0-1.62-.76-2.39-3.33-2.39v-.27A27.66,27.66,0,0,0,236.58,64V84.36c0,1.13.67,2.3,3.37,2.3v.26H225.78Zm15.84,0c2.65,0,3.33-1.17,3.33-2.3v-14c0-2.52-1.31-3.82-3.56-3.82A4.79,4.79,0,0,0,238,67.89v-.27A9.19,9.19,0,0,1,245.44,64c4.05,0,6.93,1.89,6.93,6.34v14c0,1.13.68,2.3,3.38,2.3v.26H241.62Z"/><path class="cls-1" d="M258.4,72.12c0-5.85,5.49-8.05,10.08-8.14v.27c-1.93.18-2.83,2.52-2.83,7.74,0,5.44.9,7.64,2.83,7.83v.26C263.94,80.08,258.4,77.92,258.4,72.12Zm12,25.78c4.5-.54,5.94-3,5.94-4.59,0-6.25-17.55-.67-17.55-8.73,0-1.84.95-3.28,3-4.59l.13.23a1,1,0,0,0-.4.86c0,5,20.52-.82,20.52,9,0,4.64-4,7.65-11.66,8.1Zm-11.61-3.78c0-2.65,3.29-3.46,6.84-3.46a3.77,3.77,0,0,0-1.93,3.19c0,2.07,2.34,3.65,4.9,4.05v.27C263.76,98.08,258.76,97.09,258.76,94.12Zm11.61-14.3c2.21-.19,3.11-2.39,3.11-7.83,0-5.22-1-7.56-3.11-7.74V64c4.77.09,10.31,2.29,10.31,8.14s-5.54,8-10.31,8Zm2.43-16.65c.77-2.3,2.84-5.4,5.94-5.4,2.39,0,3.83,1.26,3.83,3.42a3.6,3.6,0,0,1-3.65,3.51c0-1.89-1-3-2.43-3A4.86,4.86,0,0,0,273,63.3Z"/><path class="cls-1" d="M71.88,134.36c0,1.13.67,2.3,3.37,2.3v.26H61.08v-.26c2.7,0,3.38-1.17,3.38-2.3v-16c0-1.62-.77-2.39-3.33-2.39v-.27A27.65,27.65,0,0,0,71.88,114Zm14.94-14v14c0,1.13.63,2.3,3.33,2.3v.26H76v-.26c2.65,0,3.37-1.17,3.37-2.3v-14c0-2.52-1-3.82-3.15-3.82a4,4,0,0,0-3,1.35v-.27a7.29,7.29,0,0,1,6.57-3.6C84.12,114,86.82,115.87,86.82,120.32Zm14.89,0v14c0,1.13.68,2.3,3.38,2.3v.26H90.91v-.26c2.66,0,3.38-1.17,3.38-2.3v-14c0-2.52-1-3.82-3.15-3.82a3.94,3.94,0,0,0-3,1.35v-.27a7.27,7.27,0,0,1,6.57-3.6C99,114,101.71,115.87,101.71,120.32Z"/><path class="cls-1" d="M118.72,114.25c-2.65.31-3.55,2.56-3.55,11.33,0,8.46.9,11.25,3.55,11.52v.27a11.47,11.47,0,0,1-11.2-11.79,11.27,11.27,0,0,1,11.2-11.6Zm13,11.33a11.46,11.46,0,0,1-11.16,11.79v-.27c2.66-.27,3.51-3.1,3.51-11.52,0-8.81-.9-11.06-3.51-11.33V114A11.21,11.21,0,0,1,131.68,125.58Z"/><path class="cls-1" d="M152.11,133.46v.27a9.41,9.41,0,0,1-7.69,3.64c-4,0-6.93-1.84-6.93-6.34V116.27h-2.34l.49-.67h1.85v-4.86a11.42,11.42,0,0,0,7.38-2.52v7.38h6.07l-.49.67h-5.58v14.89c0,2.25.85,4.59,3,4.59A6.58,6.58,0,0,0,152.11,133.46Z"/><path class="cls-1" d="M165,114.25c-2.65.31-3.55,2.56-3.55,11.33,0,8.46.9,11.25,3.55,11.52v.27a11.47,11.47,0,0,1-11.2-11.79A11.27,11.27,0,0,1,165,114Zm13,11.33a11.46,11.46,0,0,1-11.16,11.79v-.27c2.66-.27,3.51-3.1,3.51-11.52,0-8.81-.9-11.06-3.51-11.33V114A11.21,11.21,0,0,1,177.94,125.58Z"/><path class="cls-1" d="M191.71,134.36c0,1.13.68,2.3,3.38,2.3v.26H180.91v-.26c2.7,0,3.38-1.17,3.38-2.3v-16c0-1.62-.77-2.39-3.33-2.39v-.27A27.61,27.61,0,0,0,191.71,114Zm12.15-15.52a4.81,4.81,0,0,1-4.63,5.13,3.07,3.07,0,0,1-2.57-1,3.29,3.29,0,0,0,1.76-3.07,2.39,2.39,0,0,0-2.52-2.42,3.07,3.07,0,0,0-2.7,1.71v-.36c.85-2.88,3.06-4.86,5.85-4.86A4.57,4.57,0,0,1,203.86,118.84Z"/><path class="cls-1" d="M217.81,114.25c-2.65.31-3.82,2.56-3.82,11.16,0,6.47,3.28,10,7.29,10a9.79,9.79,0,0,0,6.57-2.39v.28c-2.34,3-6.62,4-9.54,4-5.76,0-12-4.23-12-11.79A11.53,11.53,0,0,1,217.81,114Zm10,4.81a4.18,4.18,0,0,1-4.5,4.32,3.83,3.83,0,0,1-3.91-2.83,3.9,3.9,0,0,0,2.16-3.29c0-1-.27-2.65-1.94-3V114C225.51,114,227.8,116.5,227.8,119.06Z"/><path class="cls-1" d="M231.54,116.27a2.44,2.44,0,0,0-2.48-1.57v-.27h12.6v.27c-1.57,0-2.2,1.08-1.44,2.65l5.9,12.28-3.87,7.29H242Zm-2,27.9c0-1.94,1.53-3.56,4-4.23a3.27,3.27,0,0,0-.18,1.12c-.05,1.71.9,3,2.65,3,1.58,0,2.84-1.67,4.55-4.54h.31c-2.47,4.63-4.18,8.63-7.33,8.63A3.74,3.74,0,0,1,229.56,144.17ZM248,125.23a12.42,12.42,0,0,0,1.26-5.81c0-2.47-1.4-4.72-4.59-4.72v-.27h11.2v.27c-1.48,0-2.07.58-2.92,2.11l-4.68,8.82Z"/><path class="cls-1" d="M267.63,114.25c-2.66.31-3.83,2.56-3.83,11.16,0,6.47,3.29,10,7.29,10a9.76,9.76,0,0,0,6.57-2.39v.28c-2.34,3-6.61,4-9.54,4-5.76,0-12-4.23-12-11.79A11.52,11.52,0,0,1,267.63,114Zm10,4.81a4.18,4.18,0,0,1-4.5,4.32,3.83,3.83,0,0,1-3.92-2.83,3.9,3.9,0,0,0,2.16-3.29c0-1-.27-2.65-1.93-3V114C275.32,114,277.62,116.5,277.62,119.06Z"/><path class="cls-1" d="M280,105.61a27.42,27.42,0,0,0,10.75-1.76v30.51c0,1.13.68,2.3,3.38,2.3v.26H279.91v-.26c2.7,0,3.38-1.17,3.38-2.3v-26.1c0-1.62-.77-2.38-3.33-2.38Z"/><path class="cls-1" d="M296.79,125.58a11.13,11.13,0,0,1,11-11.6v.27c-2.65.31-3.37,2.56-3.37,11.16,0,6.47,2.88,10,6.88,10a9.76,9.76,0,0,0,6.57-2.39v.28c-2.34,3-6.61,4-9.54,4A11.4,11.4,0,0,1,296.79,125.58Zm10.12-1.88c4,0,5.63-1.26,5.63-5,0-2.16-.9-4.14-2.93-4.41V114c5.94,0,8.82,4.23,8.82,7.64a13.87,13.87,0,0,1-.22,2.35h-11.3Z"/><path class="cls-1" d="M61.17,165.69a27.51,27.51,0,0,0,10.76-1.76v20.43c0,1.13.67,2.3,3.37,2.3v.26H61.13v-.26c2.7,0,3.37-1.17,3.37-2.3v-16c0-1.62-.76-2.38-3.33-2.38Zm2.3-8.46c0-2.34,1.88-3.92,4.58-3.92s4.59,1.58,4.59,3.92-1.88,4-4.59,4S63.47,159.61,63.47,157.23Z"/><path class="cls-1" d="M77.19,186.66c2.7,0,3.37-1.17,3.37-2.3v-16c0-1.62-.76-2.39-3.33-2.39v-.27A27.66,27.66,0,0,0,88,164v20.38c0,1.13.67,2.3,3.37,2.3v.26H77.19Zm15.84,0c2.65,0,3.33-1.17,3.33-2.3v-14c0-2.52-1.31-3.82-3.56-3.82a4.79,4.79,0,0,0-3.42,1.39v-.27A9.19,9.19,0,0,1,96.85,164c4.05,0,6.93,1.89,6.93,6.34v14c0,1.13.68,2.3,3.38,2.3v.26H93Z"/><path class="cls-1" d="M117.42,181.57a2.3,2.3,0,0,0-2.52,2.25c0,1.3.9,3,4,3.28v.27c-6-.22-9.27-1.84-9.27-4.45,0-2.07,1.8-3.33,3.83-3.33A4.6,4.6,0,0,1,117.42,181.57Zm1.48-17.32c-1.66.31-3.28,1.17-3.24,3,.14,5.22,14.72,6.07,14.72,13.23,0,4.36-3.69,6.66-9.5,6.88v-.27c1.89-.31,4-1,4-3.32,0-4.69-14.76-6.4-14.76-13.23,0-4,3.73-6.35,8.77-6.57Zm10.62,4.36c0,1.4-1.08,2.79-3.33,2.79a3.85,3.85,0,0,1-3.82-2.16,2,2,0,0,0,2-2.11c0-1.35-1.71-2.66-3.51-2.88V164C126,164.25,129.52,166.09,129.52,168.61Z"/><path class="cls-1" d="M143.65,181c0,2.52.86,3.82,3.11,3.82a4,4,0,0,0,3.1-1.39v.27c-1,1.93-3.33,3.64-7,3.64-4,0-6.66-1.88-6.66-6.34V168.39c0-1.62-.77-2.39-3.33-2.39v-.27A27.61,27.61,0,0,0,143.65,164Zm15,2.88c0,1.3.4,1.84,1.21,1.84s1.44-.67,2.16-2h.27c-.72,2.47-3.15,3.64-6.12,3.64-3.15,0-4.95-1.79-4.95-4.41V168.39c0-1.62-.76-2.39-3.19-2.39v-.27A29.36,29.36,0,0,0,158.64,164Z"/><path class="cls-1" d="M174.88,184.36c0,1.13.68,2.3,3.38,2.3v.26H164.08v-.26c2.7,0,3.38-1.17,3.38-2.3v-16c0-1.62-.77-2.39-3.33-2.39v-.27A27.61,27.61,0,0,0,174.88,164ZM187,168.84A4.81,4.81,0,0,1,182.4,174a3.07,3.07,0,0,1-2.57-1,3.29,3.29,0,0,0,1.76-3.07,2.39,2.39,0,0,0-2.52-2.42,3.07,3.07,0,0,0-2.7,1.71v-.36c.85-2.88,3.06-4.86,5.85-4.86A4.57,4.57,0,0,1,187,168.84Z"/><path class="cls-1" d="M189,181.62c0-3.92,3.6-6.13,8.64-6.13h4.86v.28h-1.35c-3.24,0-4.77,2.11-4.77,4.9,0,2.47.72,4.37,2.83,4.37a5,5,0,0,0,3.29-1.58v.27a9.58,9.58,0,0,1-7.16,3.64C191.49,187.37,188.92,185.21,189,181.62Zm1.8-12.74c0-2.29,2.07-4.63,8.19-4.9v.27a3.28,3.28,0,0,0-2.88,3.28c0,1.62,1.12,2.61,2.92,2.75a5,5,0,0,1-4.32,2.16A3.61,3.61,0,0,1,190.77,168.88Zm13,13.41V168.52c0-2.2-.86-4-3.06-4.27V164c7.47.27,10.44,3.1,10.44,9v10.93c0,1.3.45,1.84,1.26,1.84s1.44-.67,2.16-2h.27c-.72,2.47-3.15,3.64-5.85,3.64C205.44,187.37,203.82,186.12,203.82,182.29Z"/><path class="cls-1" d="M216.28,186.66c2.7,0,3.38-1.17,3.38-2.3v-16c0-1.62-.77-2.39-3.33-2.39v-.27A27.61,27.61,0,0,0,227.08,164v20.38c0,1.13.68,2.3,3.38,2.3v.26H216.28Zm15.84,0c2.66,0,3.33-1.17,3.33-2.3v-14c0-2.52-1.3-3.82-3.55-3.82a4.79,4.79,0,0,0-3.42,1.39v-.27A9.18,9.18,0,0,1,236,164c4.05,0,6.93,1.89,6.93,6.34v14c0,1.13.67,2.3,3.37,2.3v.26H232.12Z"/><path class="cls-1" d="M260.2,164.25c-2.65.31-3.82,2.56-3.82,11.16,0,6.47,3.28,10,7.29,10a9.79,9.79,0,0,0,6.57-2.39v.28c-2.34,3-6.62,4-9.54,4-5.76,0-12-4.23-12-11.79A11.53,11.53,0,0,1,260.2,164Zm10,4.81a4.18,4.18,0,0,1-4.5,4.32,3.83,3.83,0,0,1-3.91-2.83,3.9,3.9,0,0,0,2.16-3.29c0-1-.27-2.65-1.94-3V164C267.9,164,270.19,166.5,270.19,169.06Z"/><path class="cls-1" d="M273.57,175.58a11.13,11.13,0,0,1,11-11.6v.27c-2.65.31-3.37,2.56-3.37,11.16,0,6.47,2.88,10,6.88,10a9.76,9.76,0,0,0,6.57-2.39v.28c-2.34,3-6.61,4-9.54,4A11.4,11.4,0,0,1,273.57,175.58Zm10.12-1.88c4,0,5.63-1.26,5.63-5,0-2.16-.9-4.14-2.93-4.41V164c5.94,0,8.82,4.23,8.82,7.64A13.87,13.87,0,0,1,295,174h-11.3Z"/><rect class="cls-2" width="970" height="250"/></svg>