<svg id="Layer_1" data-name="Layer 1" xmlns="http://www.w3.org/2000/svg" viewBox="0 0 970 250"><defs><style>.cls-1{fill:#263845;}.cls-2{fill:none;}</style></defs><title>Artboard 1 copy 6</title><path class="cls-1" d="M65.89,63.44l.36.54.36,18.9c0,1.93,1.44,3.78,4.41,3.78v.27h-9.9v-.27c3,0,4.37-1.9,4.41-3.78ZM89.74,86.93h-5l-18.81-28c-1.17-1.75-2.48-2.29-4.77-2.29v-.27h12L89.74,81.12Zm-.09-10.35-.36-.5-.54-15.7c0-1.94-1.44-3.78-4.41-3.78v-.27h9.9v.27c-3,0-4.41,1.89-4.41,3.78Z"/><path class="cls-1" d="M114.36,56.33H123l-17.86,30.6H96.54Zm-16.52,0h13.59l-.13.27c-6.66.36-12,4.95-13.1,10.57h-.36Zm10.31,30.33a15.41,15.41,0,0,0,14-12h.36V86.93H108Z"/><path class="cls-1" d="M135.51,57.77c0,2.61-2.79,6.07-7.29,7.92l-.14-.41a6.24,6.24,0,0,0,2.57-4.36,2.83,2.83,0,0,0-3.06-3c.36-2.66,1.93-4.1,4.27-4.1A3.63,3.63,0,0,1,135.51,57.77Z"/><path class="cls-1" d="M144.73,81.57a2.31,2.31,0,0,0-2.52,2.25c0,1.31.9,3,4,3.28v.28c-6-.23-9.27-1.85-9.27-4.46,0-2.07,1.8-3.33,3.82-3.33A4.59,4.59,0,0,1,144.73,81.57Zm1.49-17.32c-1.67.31-3.29,1.17-3.24,3,.13,5.22,14.71,6.08,14.71,13.23,0,4.36-3.69,6.66-9.49,6.89V87.1c1.89-.31,4-1,4-3.32,0-4.68-14.76-6.39-14.76-13.23,0-4,3.74-6.35,8.78-6.57Zm10.62,4.36c0,1.4-1.08,2.79-3.33,2.79a3.87,3.87,0,0,1-3.83-2.16,2,2,0,0,0,2-2.11c0-1.35-1.71-2.66-3.51-2.88V64C153.28,64.25,156.84,66.09,156.84,68.61Z"/><path class="cls-1" d="M171.87,55.61a27.42,27.42,0,0,0,10.75-1.76V84.36c0,1.13.68,2.3,3.38,2.3v.27H171.82v-.27c2.7,0,3.38-1.17,3.38-2.3V58.26c0-1.62-.77-2.38-3.33-2.38Z"/><path class="cls-1" d="M188.7,75.59a11.14,11.14,0,0,1,11-11.61v.27c-2.65.31-3.37,2.56-3.37,11.16,0,6.48,2.88,10,6.88,10a9.76,9.76,0,0,0,6.57-2.39v.28c-2.34,3-6.61,4-9.54,4A11.41,11.41,0,0,1,188.7,75.59Zm10.12-1.89c4,0,5.63-1.26,5.63-5,0-2.16-.9-4.14-2.93-4.41V64c5.94,0,8.82,4.23,8.82,7.65a13.85,13.85,0,0,1-.22,2.34h-11.3Z"/><path class="cls-1" d="M213.58,81.62c0-3.92,3.6-6.12,8.64-6.12h4.86v.27h-1.35c-3.24,0-4.77,2.11-4.77,4.9,0,2.47.72,4.37,2.84,4.37a4.93,4.93,0,0,0,3.28-1.58v.27a9.56,9.56,0,0,1-7.15,3.65C216.1,87.38,213.54,85.22,213.58,81.62Zm1.8-12.74c0-2.29,2.07-4.63,8.19-4.9v.27a3.28,3.28,0,0,0-2.88,3.28c0,1.62,1.13,2.61,2.93,2.75a5.06,5.06,0,0,1-4.32,2.16A3.61,3.61,0,0,1,215.38,68.88Zm13.05,13.41V68.52c0-2.2-.85-4-3.06-4.27V64c7.47.27,10.44,3.1,10.44,9V83.91c0,1.31.45,1.85,1.26,1.85s1.44-.68,2.16-2h.27c-.72,2.48-3.15,3.65-5.85,3.65C230.05,87.38,228.43,86.12,228.43,82.29Z"/><path class="cls-1" d="M257.68,67.58v.36A4.94,4.94,0,0,0,254,66.27c-2.25,0-4.41,1-4.41,9.18S251.83,85,254,85a6.2,6.2,0,0,0,3.73-1.58v.27a8.34,8.34,0,0,1-6.52,3.65c-4.28,0-9.27-2.53-9.27-11.93,0-9,4.9-11.47,9.27-11.47A8.3,8.3,0,0,1,257.68,67.58Zm8.78,16.33c0,1.31.4,1.85,1.21,1.85s1.44-.68,2.16-2h.27c-.72,2.48-3.15,3.65-5.85,3.65-3.6,0-5.22-1.26-5.22-5.09v-24c0-1.62-.76-2.38-3.33-2.38v-.27a29.41,29.41,0,0,0,10.76-1.76Z"/><path class="cls-1" d="M272,65.69a27.48,27.48,0,0,0,10.76-1.76V84.36c0,1.13.67,2.3,3.37,2.3v.27H272v-.27c2.7,0,3.37-1.17,3.37-2.3v-16c0-1.62-.76-2.38-3.33-2.38Zm2.3-8.46c0-2.34,1.89-3.92,4.59-3.92s4.59,1.58,4.59,3.92-1.89,4-4.59,4S274.29,59.61,274.29,57.23Z"/><path class="cls-1" d="M288,86.66c2.7,0,3.38-1.17,3.38-2.3v-16c0-1.62-.77-2.39-3.33-2.39v-.27A27.61,27.61,0,0,0,298.81,64V84.36c0,1.13.68,2.3,3.38,2.3v.27H288Zm15.84,0c2.66,0,3.33-1.17,3.33-2.3v-14c0-2.52-1.3-3.82-3.55-3.82a4.79,4.79,0,0,0-3.42,1.39v-.27A9.18,9.18,0,0,1,307.68,64c4.05,0,6.93,1.89,6.93,6.34v14c0,1.13.67,2.3,3.37,2.3v.27H303.85Z"/><path class="cls-1" d="M320.64,72.12c0-5.85,5.49-8.05,10.08-8.14v.27c-1.94.18-2.84,2.52-2.84,7.74,0,5.44.9,7.65,2.84,7.83v.27C326.17,80.09,320.64,77.93,320.64,72.12Zm12,25.78c4.5-.54,5.94-3,5.94-4.59,0-6.25-17.55-.67-17.55-8.72,0-1.85.94-3.29,3-4.59l.14.22a1.05,1.05,0,0,0-.41.86c0,5,20.52-.82,20.52,9,0,4.64-4,7.65-11.65,8.11ZM321,94.12c0-2.65,3.28-3.46,6.84-3.46a3.78,3.78,0,0,0-1.94,3.19c0,2.08,2.34,3.65,4.91,4.05v.28C326,98.08,321,97.1,321,94.12Zm11.61-14.3c2.2-.18,3.1-2.39,3.1-7.83,0-5.22-.94-7.56-3.1-7.74V64c4.77.09,10.3,2.29,10.3,8.14s-5.53,8-10.3,8ZM335,63.17c.76-2.3,2.83-5.4,5.94-5.4,2.38,0,3.82,1.26,3.82,3.42a3.59,3.59,0,0,1-3.64,3.51c0-1.89-1-3-2.43-3a4.89,4.89,0,0,0-3.47,1.62Z"/><path class="cls-1" d="M61.17,115.69a27.42,27.42,0,0,0,10.75-1.76v20.43c0,1.13.68,2.3,3.38,2.3v.27H61.12v-.27c2.7,0,3.38-1.17,3.38-2.3v-16c0-1.62-.77-2.38-3.33-2.38Zm2.29-8.46c0-2.34,1.89-3.92,4.59-3.92s4.59,1.58,4.59,3.92-1.89,4-4.59,4S63.46,109.61,63.46,107.23Z"/><path class="cls-1" d="M77.19,136.66c2.7,0,3.37-1.17,3.37-2.3v-16c0-1.62-.76-2.39-3.33-2.39v-.27A27.66,27.66,0,0,0,88,114v20.38c0,1.13.67,2.3,3.37,2.3v.27H77.19Zm15.84,0c2.65,0,3.33-1.17,3.33-2.3v-14c0-2.52-1.31-3.82-3.56-3.82a4.79,4.79,0,0,0-3.42,1.39v-.27A9.19,9.19,0,0,1,96.85,114c4.05,0,6.93,1.89,6.93,6.34v14c0,1.13.68,2.3,3.38,2.3v.27H93Z"/><path class="cls-1" d="M117.42,131.57a2.3,2.3,0,0,0-2.52,2.25c0,1.31.9,3,4,3.28v.28c-6-.23-9.27-1.85-9.27-4.46,0-2.07,1.8-3.33,3.83-3.33A4.6,4.6,0,0,1,117.42,131.57Zm1.48-17.32c-1.66.31-3.28,1.17-3.24,3,.14,5.22,14.72,6.08,14.72,13.23,0,4.36-3.69,6.66-9.5,6.89v-.28c1.89-.31,4-1,4-3.32,0-4.68-14.76-6.39-14.76-13.23,0-4,3.73-6.35,8.77-6.57Zm10.62,4.36c0,1.4-1.08,2.79-3.33,2.79a3.85,3.85,0,0,1-3.82-2.16,2,2,0,0,0,2-2.11c0-1.35-1.71-2.66-3.51-2.88V114C126,114.25,129.52,116.09,129.52,118.61Z"/><path class="cls-1" d="M143.65,131c0,2.52.86,3.82,3.11,3.82a3.94,3.94,0,0,0,3.1-1.39v.27c-1,1.94-3.33,3.65-7,3.65-4,0-6.66-1.89-6.66-6.35V118.39c0-1.62-.77-2.39-3.33-2.39v-.27A27.61,27.61,0,0,0,143.65,114Zm15,2.88c0,1.31.4,1.85,1.21,1.85s1.44-.68,2.16-2h.27c-.72,2.48-3.15,3.65-6.12,3.65-3.15,0-4.95-1.8-4.95-4.41V118.39c0-1.62-.76-2.39-3.19-2.39v-.27A29.36,29.36,0,0,0,158.64,114Z"/><path class="cls-1" d="M174.88,134.36c0,1.13.68,2.3,3.38,2.3v.27H164.08v-.27c2.7,0,3.38-1.17,3.38-2.3v-16c0-1.62-.77-2.39-3.33-2.39v-.27A27.61,27.61,0,0,0,174.88,114ZM187,118.84A4.81,4.81,0,0,1,182.4,124a3.07,3.07,0,0,1-2.57-1,3.29,3.29,0,0,0,1.76-3.06,2.39,2.39,0,0,0-2.52-2.43,3.07,3.07,0,0,0-2.7,1.71v-.36c.85-2.88,3.06-4.86,5.85-4.86A4.57,4.57,0,0,1,187,118.84Z"/><path class="cls-1" d="M189,131.62c0-3.92,3.6-6.12,8.64-6.12h4.86v.27h-1.35c-3.24,0-4.77,2.11-4.77,4.9,0,2.47.72,4.37,2.83,4.37a5,5,0,0,0,3.29-1.58v.27a9.59,9.59,0,0,1-7.16,3.65C191.49,137.38,188.92,135.22,189,131.62Zm1.8-12.74c0-2.29,2.07-4.63,8.19-4.9v.27a3.28,3.28,0,0,0-2.88,3.28c0,1.62,1.12,2.61,2.92,2.75a5,5,0,0,1-4.32,2.16A3.61,3.61,0,0,1,190.77,118.88Zm13,13.41V118.52c0-2.2-.86-4-3.06-4.27V114c7.47.27,10.44,3.1,10.44,9v10.93c0,1.31.45,1.85,1.26,1.85s1.44-.68,2.16-2h.27c-.72,2.48-3.15,3.65-5.85,3.65C205.44,137.38,203.82,136.12,203.82,132.29Z"/><path class="cls-1" d="M216.28,136.66c2.7,0,3.38-1.17,3.38-2.3v-16c0-1.62-.77-2.39-3.33-2.39v-.27A27.61,27.61,0,0,0,227.08,114v20.38c0,1.13.68,2.3,3.38,2.3v.27H216.28Zm15.84,0c2.66,0,3.33-1.17,3.33-2.3v-14c0-2.52-1.3-3.82-3.55-3.82a4.79,4.79,0,0,0-3.42,1.39v-.27A9.18,9.18,0,0,1,236,114c4.05,0,6.93,1.89,6.93,6.34v14c0,1.13.67,2.3,3.37,2.3v.27H232.12Z"/><path class="cls-1" d="M260.2,114.25c-2.65.31-3.82,2.56-3.82,11.16,0,6.48,3.28,10,7.29,10a9.79,9.79,0,0,0,6.57-2.39v.28c-2.34,3-6.62,4-9.54,4-5.76,0-12-4.24-12-11.79A11.53,11.53,0,0,1,260.2,114Zm10,4.81a4.18,4.18,0,0,1-4.5,4.32,3.83,3.83,0,0,1-3.91-2.83,3.9,3.9,0,0,0,2.16-3.29c0-1-.27-2.65-1.94-3V114C267.9,114,270.19,116.5,270.19,119.06Z"/><path class="cls-1" d="M273.57,125.59a11.14,11.14,0,0,1,11-11.61v.27c-2.65.31-3.37,2.56-3.37,11.16,0,6.48,2.88,10,6.88,10a9.76,9.76,0,0,0,6.57-2.39v.28c-2.34,3-6.61,4-9.54,4A11.41,11.41,0,0,1,273.57,125.59Zm10.12-1.89c4,0,5.63-1.26,5.63-5,0-2.16-.9-4.14-2.93-4.41V114c5.94,0,8.82,4.23,8.82,7.65A13.85,13.85,0,0,1,295,124h-11.3Z"/><path class="cls-1" d="M69.72,181.57a2.3,2.3,0,0,0-2.52,2.25c0,1.31.9,3,4,3.28v.28c-6-.23-9.27-1.85-9.27-4.46,0-2.07,1.8-3.33,3.83-3.33A4.6,4.6,0,0,1,69.72,181.57Zm1.48-17.32c-1.66.31-3.28,1.17-3.24,3,.14,5.22,14.72,6.08,14.72,13.23,0,4.36-3.69,6.66-9.5,6.89v-.28c1.89-.31,4-1,4-3.32,0-4.68-14.76-6.39-14.76-13.23,0-4,3.73-6.35,8.77-6.57Zm10.62,4.36c0,1.4-1.08,2.79-3.33,2.79a3.85,3.85,0,0,1-3.82-2.16,2,2,0,0,0,2-2.11c0-1.35-1.71-2.66-3.51-2.88V164C78.27,164.25,81.82,166.09,81.82,168.61Z"/><path class="cls-1" d="M96,193.76c0,1.63.77,2.39,3.33,2.39v.27a29.39,29.39,0,0,0-10.75,1.76V168.34c0-1.62-.77-2.38-3.33-2.38v-.27A29.39,29.39,0,0,0,96,163.93Zm17.15-18.31c0,9.4-5,11.93-9.23,11.93a8.46,8.46,0,0,1-6.57-3.65v-.27a6.36,6.36,0,0,0,3.78,1.58c2.12,0,4.37-1.49,4.37-9.59s-2.12-9.18-4.37-9.18a5.06,5.06,0,0,0-3.78,1.67v-.36A8.41,8.41,0,0,1,104,164C108.33,164,113.19,166.5,113.19,175.45Z"/><path class="cls-1" d="M117.15,175.59a11.14,11.14,0,0,1,11-11.61v.27c-2.65.31-3.37,2.56-3.37,11.16,0,6.48,2.88,10,6.88,10a9.76,9.76,0,0,0,6.57-2.39v.28c-2.34,3-6.61,4-9.54,4A11.41,11.41,0,0,1,117.15,175.59Zm10.12-1.89c4,0,5.63-1.26,5.63-5,0-2.16-.9-4.14-2.93-4.41V164c5.94,0,8.82,4.23,8.82,7.65a13.85,13.85,0,0,1-.22,2.34h-11.3Z"/><path class="cls-1" d="M154,164.25c-2.65.31-3.82,2.56-3.82,11.16,0,6.48,3.28,10,7.29,10a9.79,9.79,0,0,0,6.57-2.39v.28c-2.34,3-6.62,4-9.54,4-5.76,0-12-4.24-12-11.79A11.53,11.53,0,0,1,154,164Zm10,4.81a4.18,4.18,0,0,1-4.5,4.32,3.83,3.83,0,0,1-3.91-2.83,3.9,3.9,0,0,0,2.16-3.29c0-1-.27-2.65-1.94-3V164C161.7,164,164,166.5,164,169.06Z"/><path class="cls-1" d="M166.65,165.69a27.42,27.42,0,0,0,10.75-1.76v20.43c0,1.13.68,2.3,3.38,2.3v.27H166.6v-.27c2.7,0,3.38-1.17,3.38-2.3v-16c0-1.62-.77-2.38-3.33-2.38Zm2.29-8.46c0-2.34,1.89-3.92,4.59-3.92s4.59,1.58,4.59,3.92-1.89,4-4.59,4S168.94,159.61,168.94,157.23Z"/><path class="cls-1" d="M183,181.62c0-3.92,3.6-6.12,8.64-6.12h4.86v.27h-1.35c-3.24,0-4.77,2.11-4.77,4.9,0,2.47.72,4.37,2.83,4.37a5,5,0,0,0,3.29-1.58v.27a9.59,9.59,0,0,1-7.16,3.65C185.55,187.38,183,185.22,183,181.62Zm1.8-12.74c0-2.29,2.07-4.63,8.19-4.9v.27a3.28,3.28,0,0,0-2.88,3.28c0,1.62,1.12,2.61,2.92,2.75a5,5,0,0,1-4.32,2.16A3.61,3.61,0,0,1,184.83,168.88Zm13,13.41V168.52c0-2.2-.86-4-3.06-4.27V164c7.47.27,10.44,3.1,10.44,9v10.93c0,1.31.45,1.85,1.26,1.85s1.44-.68,2.16-2H209c-.72,2.48-3.15,3.65-5.85,3.65C199.5,187.38,197.88,186.12,197.88,182.29Z"/><path class="cls-1" d="M210.12,155.61a27.42,27.42,0,0,0,10.75-1.76v30.51c0,1.13.68,2.3,3.38,2.3v.27H210.07v-.27c2.7,0,3.38-1.17,3.38-2.3v-26.1c0-1.62-.77-2.38-3.33-2.38Z"/><path class="cls-1" d="M226.23,165.69A27.42,27.42,0,0,0,237,163.93v20.43c0,1.13.68,2.3,3.38,2.3v.27H226.18v-.27c2.7,0,3.38-1.17,3.38-2.3v-16c0-1.62-.77-2.38-3.33-2.38Zm2.29-8.46c0-2.34,1.89-3.92,4.59-3.92s4.59,1.58,4.59,3.92-1.89,4-4.59,4S228.52,159.61,228.52,157.23Z"/><path class="cls-1" d="M250.89,181.57a2.3,2.3,0,0,0-2.52,2.25c0,1.31.9,3,4,3.28v.28c-6-.23-9.27-1.85-9.27-4.46,0-2.07,1.8-3.33,3.83-3.33A4.6,4.6,0,0,1,250.89,181.57Zm1.48-17.32c-1.66.31-3.28,1.17-3.24,3,.14,5.22,14.72,6.08,14.72,13.23,0,4.36-3.69,6.66-9.5,6.89v-.28c1.89-.31,4-1,4-3.32,0-4.68-14.76-6.39-14.76-13.23,0-4,3.73-6.35,8.77-6.57ZM263,168.61c0,1.4-1.08,2.79-3.33,2.79a3.85,3.85,0,0,1-3.82-2.16,2,2,0,0,0,2-2.11c0-1.35-1.71-2.66-3.51-2.88V164C259.44,164.25,263,166.09,263,168.61Z"/><path class="cls-1" d="M284.28,183.46v.27a9.42,9.42,0,0,1-7.7,3.65c-4.05,0-6.93-1.85-6.93-6.35V166.27h-2.34l.5-.67h1.84v-4.86a11.38,11.38,0,0,0,7.38-2.52v7.38h6.08l-.5.67H277v14.9c0,2.25.86,4.59,3,4.59A6.64,6.64,0,0,0,284.28,183.46Z"/><rect class="cls-2" x="2.31" width="970" height="250"/></svg>