<svg id="Layer_1" data-name="Layer 1" xmlns="http://www.w3.org/2000/svg" viewBox="0 0 970 250"><defs><style>.cls-1{fill:#fff;}.cls-2{fill:none;}</style></defs><title>Artboard 1 copy 3</title><path class="cls-1" d="M61.17,65.69a27.42,27.42,0,0,0,10.75-1.76V84.36c0,1.13.68,2.3,3.38,2.3v.27H61.13v-.27c2.69,0,3.37-1.17,3.37-2.3v-16c0-1.62-.77-2.38-3.33-2.38Zm2.3-8.46c0-2.34,1.88-3.92,4.58-3.92s4.59,1.58,4.59,3.92-1.89,4-4.59,4S63.47,59.61,63.47,57.23Z"/><path class="cls-1" d="M85.83,81.57a2.3,2.3,0,0,0-2.52,2.25c0,1.31.9,3,4,3.28v.28c-6-.23-9.27-1.85-9.27-4.46,0-2.07,1.8-3.33,3.83-3.33A4.6,4.6,0,0,1,85.83,81.57Zm1.48-17.32c-1.66.31-3.28,1.17-3.24,3,.14,5.22,14.72,6.08,14.72,13.23,0,4.36-3.69,6.66-9.5,6.89V87.1c1.89-.31,4-1,4-3.32,0-4.68-14.76-6.39-14.76-13.23,0-4,3.73-6.35,8.77-6.57Zm10.62,4.36c0,1.4-1.08,2.79-3.33,2.79a3.85,3.85,0,0,1-3.82-2.16,2,2,0,0,0,2-2.11c0-1.35-1.71-2.66-3.51-2.88V64C94.38,64.25,97.93,66.09,97.93,68.61Z"/><path class="cls-1" d="M114,75.59A11.14,11.14,0,0,1,125,64v.27c-2.65.31-3.37,2.56-3.37,11.16,0,6.48,2.88,10,6.88,10a9.8,9.8,0,0,0,6.57-2.38v.27c-2.34,3-6.61,4-9.54,4A11.41,11.41,0,0,1,114,75.59Zm10.12-1.89c4,0,5.63-1.26,5.63-5,0-2.16-.9-4.14-2.93-4.41V64c5.94,0,8.82,4.23,8.82,7.65a13.85,13.85,0,0,1-.22,2.34h-11.3Z"/><path class="cls-1" d="M138.88,81.62c.05-3.92,3.6-6.12,8.64-6.12h4.86v.27H151c-3.24,0-4.77,2.11-4.77,4.9,0,2.47.72,4.37,2.84,4.37a4.93,4.93,0,0,0,3.28-1.58v.27a9.56,9.56,0,0,1-7.15,3.65C141.4,87.38,138.84,85.22,138.88,81.62Zm1.8-12.74c0-2.29,2.07-4.63,8.19-4.9v.27A3.28,3.28,0,0,0,146,67.53c0,1.62,1.13,2.61,2.93,2.75a5.06,5.06,0,0,1-4.32,2.16A3.61,3.61,0,0,1,140.68,68.88Zm13,13.41V68.52c0-2.2-.85-4-3.06-4.27V64c7.47.27,10.44,3.1,10.44,9V83.91c0,1.31.45,1.85,1.26,1.85s1.44-.68,2.16-2h.27c-.72,2.48-3.15,3.65-5.85,3.65C155.35,87.38,153.73,86.12,153.73,82.29Z"/><path class="cls-1" d="M174.84,81.57a2.3,2.3,0,0,0-2.52,2.25c0,1.31.9,3,4,3.28v.28c-6-.23-9.27-1.85-9.27-4.46,0-2.07,1.8-3.33,3.83-3.33A4.6,4.6,0,0,1,174.84,81.57Zm1.48-17.32c-1.66.31-3.28,1.17-3.24,3,.14,5.22,14.72,6.08,14.72,13.23,0,4.36-3.69,6.66-9.5,6.89V87.1c1.89-.31,4-1,4-3.32,0-4.68-14.76-6.39-14.76-13.23,0-4,3.73-6.35,8.77-6.57Zm10.62,4.36c0,1.4-1.08,2.79-3.33,2.79a3.85,3.85,0,0,1-3.82-2.16,2,2,0,0,0,2-2.11c0-1.35-1.71-2.66-3.51-2.88V64C183.39,64.25,186.94,66.09,186.94,68.61Z"/><path class="cls-1" d="M191.58,66.27a2.44,2.44,0,0,0-2.48-1.57v-.27h12.6v.27c-1.57,0-2.2,1.08-1.44,2.65l5.9,12.29-3.87,7.29H202Zm-2,27.9c0-1.94,1.53-3.56,4-4.23a3.35,3.35,0,0,0-.18,1.12c0,1.71.9,3,2.65,3,1.58,0,2.84-1.66,4.55-4.54h.31c-2.47,4.63-4.18,8.64-7.33,8.64A3.74,3.74,0,0,1,189.6,94.17Zm18.45-18.94a12.42,12.42,0,0,0,1.26-5.81c0-2.47-1.4-4.72-4.59-4.72v-.27h11.2v.27c-1.48,0-2.07.58-2.92,2.11l-4.68,8.82Z"/><path class="cls-1" d="M234.28,67.35l5.9,12.29-3.87,7.29H236L225.6,66.27a2.44,2.44,0,0,0-2.48-1.57v-.27h12.6v.27C234.15,64.7,233.52,65.78,234.28,67.35Zm14.81,0L255,79.64l-3.87,7.29h-.27l-7.06-14-1.44,2.7-.27-.4a6.76,6.76,0,0,0,.36-5l-2-4a2.43,2.43,0,0,0-2.47-1.57v-.27h12.6v.27C249,64.7,248.32,65.78,249.09,67.35Zm15.66-2.92v.27c-1.49,0-2.12.58-2.93,2.11l-4.68,8.82-.27-.4a12.3,12.3,0,0,0,1.26-5.81c0-2.47-1.39-4.72-4.59-4.72v-.27Z"/><path class="cls-1" d="M265.15,65.69a27.48,27.48,0,0,0,10.76-1.76V84.36c0,1.13.67,2.3,3.37,2.3v.27H265.11v-.27c2.7,0,3.37-1.17,3.37-2.3v-16c0-1.62-.76-2.38-3.33-2.38Zm2.3-8.46c0-2.34,1.89-3.92,4.59-3.92s4.59,1.58,4.59,3.92-1.89,4-4.59,4S267.45,59.61,267.45,57.23Z"/><path class="cls-1" d="M298.63,83.46v.27a9.41,9.41,0,0,1-7.69,3.65c-4.05,0-6.93-1.85-6.93-6.35V66.27h-2.34l.49-.67H284V60.74a11.42,11.42,0,0,0,7.38-2.52V65.6h6.07l-.49.67h-5.58v14.9c0,2.25.85,4.59,3,4.59A6.6,6.6,0,0,0,298.63,83.46Z"/><path class="cls-1" d="M310.24,84.36c0,1.13.68,2.3,3.38,2.3v.27H299.44v-.27c2.7,0,3.38-1.17,3.38-2.3V58.26c0-1.62-.77-2.38-3.33-2.38v-.27a27.42,27.42,0,0,0,10.75-1.76Zm15.75-14v14c0,1.13.68,2.3,3.38,2.3v.27H315.24v-.27c2.65,0,3.33-1.17,3.33-2.3v-14c0-2.52-1.31-3.82-3.56-3.82a4.79,4.79,0,0,0-3.42,1.39v-.27A9.19,9.19,0,0,1,319.06,64C323.11,64,326,65.87,326,70.32Z"/><path class="cls-1" d="M73.36,137.1v.28a17,17,0,0,1-8.72-2.21l-1.49,2.21h-.36v-11h.36A15.09,15.09,0,0,0,73.36,137.1Zm13.23-8.95c0,5.81-4.32,8.95-11.29,9.23v-.28c2.47-.44,4.9-1.88,4.9-4.58,0-7.88-17.19-8.6-17.19-17.73,0-5.4,4.37-8.51,10.35-8.91v.27c-2.07.36-4,1.66-4,4.14C69.4,118.16,86.59,119,86.59,128.15Zm-11.29-22v-.27a14.53,14.53,0,0,1,8.1,2.38L85,105.88h.36v10H85C83.58,111.14,79.71,107.23,75.3,106.15Z"/><path class="cls-1" d="M107.11,133.46v.27a9.41,9.41,0,0,1-7.69,3.65c-4,0-6.93-1.85-6.93-6.35V116.27H90.15l.49-.67h1.85v-4.86a11.42,11.42,0,0,0,7.38-2.52v7.38h6.07l-.49.67H99.87v14.9c0,2.25.85,4.59,3,4.59A6.6,6.6,0,0,0,107.11,133.46Z"/><path class="cls-1" d="M108.55,131.62c0-3.92,3.6-6.12,8.64-6.12h4.86v.27H120.7c-3.24,0-4.77,2.11-4.77,4.9,0,2.47.72,4.37,2.84,4.37a4.93,4.93,0,0,0,3.28-1.58v.27a9.56,9.56,0,0,1-7.15,3.65C111.07,137.38,108.51,135.22,108.55,131.62Zm1.8-12.74c0-2.29,2.07-4.63,8.19-4.9v.27a3.28,3.28,0,0,0-2.88,3.28c0,1.62,1.13,2.61,2.93,2.75a5.06,5.06,0,0,1-4.32,2.16A3.61,3.61,0,0,1,110.35,118.88Zm13.05,13.41V118.52c0-2.2-.85-4-3.06-4.27V114c7.47.27,10.44,3.1,10.44,9v10.93c0,1.31.45,1.85,1.26,1.85s1.44-.68,2.16-2h.27c-.72,2.48-3.15,3.65-5.85,3.65C125,137.38,123.4,136.12,123.4,132.29Z"/><path class="cls-1" d="M146.67,134.36c0,1.13.67,2.3,3.37,2.3v.27H135.87v-.27c2.7,0,3.37-1.17,3.37-2.3v-16c0-1.62-.76-2.39-3.33-2.39v-.27A27.66,27.66,0,0,0,146.67,114Zm12.15-15.52a4.82,4.82,0,0,1-4.64,5.13,3,3,0,0,1-2.56-1,3.3,3.3,0,0,0,1.75-3.06,2.38,2.38,0,0,0-2.52-2.43,3.09,3.09,0,0,0-2.7,1.71v-.36C149,116,151.21,114,154,114A4.57,4.57,0,0,1,158.82,118.84Z"/><path class="cls-1" d="M171.82,136.66c2.7,0,3.38-1.08,3.38-2.3V108.89c0-1.21-.68-2.29-3.38-2.29v-.27h14.4v.27c-2.7,0-3.37,1.08-3.37,2.29v25.47c0,1.22.67,2.3,3.37,2.3v.27h-14.4Z"/><path class="cls-1" d="M189.24,136.66c2.7,0,3.37-1.17,3.37-2.3v-16c0-1.62-.76-2.39-3.33-2.39v-.27A27.66,27.66,0,0,0,200,114v20.38c0,1.13.67,2.3,3.37,2.3v.27H189.24Zm15.84,0c2.65,0,3.33-1.17,3.33-2.3v-14c0-2.52-1.31-3.82-3.56-3.82a4.79,4.79,0,0,0-3.42,1.39v-.27A9.19,9.19,0,0,1,208.9,114c4,0,6.93,1.89,6.93,6.34v14c0,1.13.68,2.3,3.38,2.3v.27H205.08Z"/><path class="cls-1" d="M229.47,131.57a2.3,2.3,0,0,0-2.52,2.25c0,1.31.9,3,4,3.28v.28c-6-.23-9.27-1.85-9.27-4.46,0-2.07,1.8-3.33,3.83-3.33A4.6,4.6,0,0,1,229.47,131.57ZM231,114.25c-1.66.31-3.28,1.17-3.24,3,.14,5.22,14.72,6.08,14.72,13.23,0,4.36-3.69,6.66-9.5,6.89v-.28c1.89-.31,4-1,4-3.32,0-4.68-14.76-6.39-14.76-13.23,0-4,3.73-6.35,8.77-6.57Zm10.62,4.36c0,1.4-1.08,2.79-3.33,2.79a3.85,3.85,0,0,1-3.82-2.16,2,2,0,0,0,2-2.11c0-1.35-1.71-2.66-3.51-2.88V114C238,114.25,241.57,116.09,241.57,118.61Z"/><path class="cls-1" d="M255.7,131c0,2.52.86,3.82,3.11,3.82a3.94,3.94,0,0,0,3.1-1.39v.27c-1,1.94-3.33,3.65-7,3.65-4.05,0-6.66-1.89-6.66-6.35V118.39c0-1.62-.77-2.39-3.33-2.39v-.27A27.61,27.61,0,0,0,255.7,114Zm15,2.88c0,1.31.4,1.85,1.21,1.85s1.44-.68,2.16-2h.27c-.72,2.48-3.15,3.65-6.12,3.65-3.15,0-4.95-1.8-4.95-4.41V118.39c0-1.62-.76-2.39-3.19-2.39v-.27A29.36,29.36,0,0,0,270.69,114Z"/><path class="cls-1" d="M286.93,134.36c0,1.13.68,2.3,3.38,2.3v.27H276.13v-.27c2.7,0,3.38-1.17,3.38-2.3v-16c0-1.62-.77-2.39-3.33-2.39v-.27A27.61,27.61,0,0,0,286.93,114Zm12.15-15.52a4.81,4.81,0,0,1-4.63,5.13,3.07,3.07,0,0,1-2.57-1,3.29,3.29,0,0,0,1.76-3.06,2.39,2.39,0,0,0-2.52-2.43,3.07,3.07,0,0,0-2.7,1.71v-.36c.85-2.88,3.06-4.86,5.85-4.86A4.57,4.57,0,0,1,299.08,118.84Z"/><path class="cls-1" d="M301,131.62c0-3.92,3.6-6.12,8.64-6.12h4.86v.27h-1.35c-3.24,0-4.77,2.11-4.77,4.9,0,2.47.72,4.37,2.83,4.37a5,5,0,0,0,3.29-1.58v.27a9.59,9.59,0,0,1-7.16,3.65C303.54,137.38,301,135.22,301,131.62Zm1.8-12.74c0-2.29,2.07-4.63,8.19-4.9v.27a3.28,3.28,0,0,0-2.88,3.28c0,1.62,1.12,2.61,2.92,2.75a5,5,0,0,1-4.32,2.16A3.61,3.61,0,0,1,302.82,118.88Zm13.05,13.41V118.52c0-2.2-.86-4-3.06-4.27V114c7.47.27,10.44,3.1,10.44,9v10.93c0,1.31.45,1.85,1.26,1.85s1.44-.68,2.16-2h.27c-.72,2.48-3.15,3.65-5.85,3.65C317.49,137.38,315.87,136.12,315.87,132.29Z"/><path class="cls-1" d="M328.33,136.66c2.7,0,3.38-1.17,3.38-2.3v-16c0-1.62-.77-2.39-3.33-2.39v-.27A27.61,27.61,0,0,0,339.13,114v20.38c0,1.13.68,2.3,3.38,2.3v.27H328.33Zm15.84,0c2.66,0,3.33-1.17,3.33-2.3v-14c0-2.52-1.3-3.82-3.55-3.82a4.79,4.79,0,0,0-3.42,1.39v-.27A9.18,9.18,0,0,1,348,114c4.05,0,6.93,1.89,6.93,6.34v14c0,1.13.67,2.3,3.37,2.3v.27H344.17Z"/><path class="cls-1" d="M372.25,114.25c-2.65.31-3.82,2.56-3.82,11.16,0,6.48,3.28,10,7.29,10a9.83,9.83,0,0,0,6.57-2.38v.27c-2.34,3-6.62,4-9.54,4-5.76,0-12-4.24-12-11.79A11.53,11.53,0,0,1,372.25,114Zm10,4.81a4.18,4.18,0,0,1-4.5,4.32,3.83,3.83,0,0,1-3.91-2.83,3.9,3.9,0,0,0,2.16-3.29c0-1-.27-2.65-1.94-3V114C380,114,382.24,116.5,382.24,119.06Z"/><path class="cls-1" d="M385.62,125.59a11.14,11.14,0,0,1,11-11.61v.27c-2.65.31-3.37,2.56-3.37,11.16,0,6.48,2.88,10,6.88,10a9.8,9.8,0,0,0,6.57-2.38v.27c-2.34,3-6.61,4-9.54,4A11.41,11.41,0,0,1,385.62,125.59Zm10.12-1.89c4,0,5.63-1.26,5.63-5,0-2.16-.9-4.14-2.93-4.41V114c5.94,0,8.82,4.23,8.82,7.65A13.85,13.85,0,0,1,407,124h-11.3Z"/><path class="cls-1" d="M89.52,163.21,79.39,186.93h-.63l-12.87-28c-.71-1.53-2.47-2.29-4.76-2.29v-.27h12.1l9.36,20.34,6.93-14.36ZM71,186.66v.27H61.13v-.27c3,0,4.36-1.89,4.4-3.78l.36-19.44.36.81.36,18.63C66.66,184.81,68.05,186.66,71,186.66Zm28-27.77v25.47c0,1.22.67,2.3,3.37,2.3v.27H87.94v-.27c2.7,0,3.38-1.08,3.38-2.3v-28h11v.27C99.64,156.6,99,157.68,99,158.89Z"/><path class="cls-1" d="M116.56,164.25c-2.65.31-3.55,2.56-3.55,11.34,0,8.46.9,11.25,3.55,11.51v.28a11.47,11.47,0,0,1-11.2-11.79A11.27,11.27,0,0,1,116.56,164Zm13,11.34a11.46,11.46,0,0,1-11.16,11.79v-.28c2.66-.26,3.51-3.1,3.51-11.51,0-8.82-.9-11.07-3.51-11.34V164A11.21,11.21,0,0,1,129.52,175.59Z"/><path class="cls-1" d="M150,183.46v.27a9.41,9.41,0,0,1-7.69,3.65c-4,0-6.93-1.85-6.93-6.35V166.27H133l.49-.67h1.85v-4.86a11.42,11.42,0,0,0,7.38-2.52v7.38h6.07l-.49.67h-5.58v14.9c0,2.25.85,4.59,3,4.59A6.6,6.6,0,0,0,150,183.46Z"/><path class="cls-1" d="M162.82,164.25c-2.65.31-3.55,2.56-3.55,11.34,0,8.46.9,11.25,3.55,11.51v.28a11.47,11.47,0,0,1-11.2-11.79A11.27,11.27,0,0,1,162.82,164Zm13,11.34a11.46,11.46,0,0,1-11.16,11.79v-.28c2.66-.26,3.51-3.1,3.51-11.51,0-8.82-.9-11.07-3.51-11.34V164A11.21,11.21,0,0,1,175.78,175.59Z"/><path class="cls-1" d="M189.55,184.36c0,1.13.68,2.3,3.38,2.3v.27H178.75v-.27c2.7,0,3.38-1.17,3.38-2.3v-16c0-1.62-.77-2.39-3.33-2.39v-.27A27.61,27.61,0,0,0,189.55,164Zm12.15-15.52a4.81,4.81,0,0,1-4.63,5.13,3.07,3.07,0,0,1-2.57-1,3.29,3.29,0,0,0,1.76-3.06,2.39,2.39,0,0,0-2.52-2.43,3.07,3.07,0,0,0-2.7,1.71v-.36c.85-2.88,3.06-4.86,5.85-4.86A4.57,4.57,0,0,1,201.7,168.84Z"/><path class="cls-1" d="M215.65,164.25c-2.65.31-3.82,2.56-3.82,11.16,0,6.48,3.28,10,7.29,10a9.83,9.83,0,0,0,6.57-2.38v.27c-2.34,3-6.62,4-9.54,4-5.76,0-12-4.24-12-11.79A11.53,11.53,0,0,1,215.65,164Zm10,4.81a4.18,4.18,0,0,1-4.5,4.32,3.83,3.83,0,0,1-3.91-2.83,3.9,3.9,0,0,0,2.16-3.29c0-1-.27-2.65-1.94-3V164C223.35,164,225.64,166.5,225.64,169.06Z"/><path class="cls-1" d="M229.38,166.27a2.44,2.44,0,0,0-2.48-1.57v-.27h12.6v.27c-1.57,0-2.2,1.08-1.44,2.65l5.9,12.29-3.87,7.29h-.27Zm-2,27.9c0-1.94,1.53-3.56,4-4.23a3.35,3.35,0,0,0-.18,1.12c-.05,1.71.9,3,2.65,3,1.58,0,2.84-1.66,4.55-4.54h.31c-2.47,4.63-4.18,8.64-7.33,8.64A3.74,3.74,0,0,1,227.4,194.17Zm18.45-18.94a12.42,12.42,0,0,0,1.26-5.81c0-2.47-1.4-4.72-4.59-4.72v-.27h11.2v.27c-1.48,0-2.07.58-2.92,2.11l-4.68,8.82Z"/><path class="cls-1" d="M265.47,164.25c-2.66.31-3.83,2.56-3.83,11.16,0,6.48,3.29,10,7.29,10a9.8,9.8,0,0,0,6.57-2.38v.27c-2.34,3-6.61,4-9.54,4-5.76,0-12-4.24-12-11.79A11.52,11.52,0,0,1,265.47,164Zm10,4.81a4.18,4.18,0,0,1-4.5,4.32,3.83,3.83,0,0,1-3.92-2.83,3.9,3.9,0,0,0,2.16-3.29c0-1-.27-2.65-1.93-3V164C273.16,164,275.46,166.5,275.46,169.06Z"/><path class="cls-1" d="M277.8,155.61a27.42,27.42,0,0,0,10.75-1.76v30.51c0,1.13.68,2.3,3.38,2.3v.27H277.75v-.27c2.7,0,3.38-1.17,3.38-2.3v-26.1c0-1.62-.77-2.38-3.33-2.38Z"/><path class="cls-1" d="M294.63,175.59a11.14,11.14,0,0,1,11-11.61v.27c-2.65.31-3.37,2.56-3.37,11.16,0,6.48,2.88,10,6.88,10a9.8,9.8,0,0,0,6.57-2.38v.27c-2.34,3-6.61,4-9.54,4A11.41,11.41,0,0,1,294.63,175.59Zm10.12-1.89c4,0,5.63-1.26,5.63-5,0-2.16-.9-4.14-2.93-4.41V164c5.94,0,8.82,4.23,8.82,7.65a13.85,13.85,0,0,1-.22,2.34h-11.3Z"/><rect class="cls-2" width="970" height="250"/></svg>