<?xml version="1.0" encoding="utf-8"?>
<!-- Generator: Adobe Illustrator 24.0.3, SVG Export Plug-In . SVG Version: 6.00 Build 0)  -->
<svg version="1.1" id="Layer_1" xmlns="http://www.w3.org/2000/svg" xmlns:xlink="http://www.w3.org/1999/xlink" x="0px" y="0px"
	 viewBox="0 0 970 250" style="enable-background:new 0 0 970 250;" xml:space="preserve">
<style type="text/css">
	.st0{fill:none;}
	.st1{enable-background:new    ;}
	.st2{fill:#263845;}
</style>
<title>Artboard 1 copy 6</title>
<rect y="0" class="st0" width="970" height="250"/>
<g class="st1">
	<path class="st2" d="M46.2,60.2l0.4,0.6L47,82.5c0.1,2.2,1.6,4.3,5,4.3v0.3H40.7v-0.3c3.4,0,5-2.2,5-4.3L46.2,60.2z M73.5,87.1
		h-5.7L46.3,55c-1.3-2-2.8-2.6-5.5-2.6v-0.3h13.8l19,28.4V87.1z M73.4,75.3L73,74.7l-0.6-18c-0.1-2.2-1.6-4.3-5-4.3v-0.3h11.3v0.3
		c-3.4,0-5,2.2-5,4.3L73.4,75.3z"/>
	<path class="st2" d="M101.7,52.1h9.8l-20.5,35h-9.8L101.7,52.1z M82.8,52.1h15.6l-0.2,0.3c-7.6,0.4-13.7,5.7-15,12.1h-0.4V52.1z
		 M94.6,86.8c7.7-0.7,14-5.5,16.1-13.8h0.4v14.1H94.4L94.6,86.8z"/>
</g>
<g class="st1">
	<path class="st2" d="M125.9,53.8c0,3-3.2,7-8.3,9.1l-0.2-0.5c1.5-1.2,2.9-3.1,2.9-5c0-2.3-1.6-3.3-3.5-3.4c0.4-3,2.2-4.7,4.9-4.7
		C123.9,49.3,125.9,50.9,125.9,53.8z"/>
</g>
<g class="st1">
	<path class="st2" d="M136.5,81c-1.7,0.1-2.9,1-2.9,2.6c0,1.5,1,3.4,4.6,3.8v0.3c-6.9-0.3-10.6-2.1-10.6-5.1c0-2.4,2.1-3.8,4.4-3.8
		C134,78.7,135.7,79.7,136.5,81z M138.2,61.2c-1.9,0.4-3.8,1.3-3.7,3.5c0.2,6,16.8,7,16.8,15.1c0,5-4.2,7.6-10.9,7.9v-0.3
		c2.2-0.4,4.6-1.1,4.6-3.8c0-5.4-16.9-7.3-16.9-15.1c0-4.5,4.3-7.3,10-7.5V61.2z M150.3,66.2c0,1.6-1.2,3.2-3.8,3.2
		c-2.2,0-3.7-0.9-4.4-2.5c1.5-0.1,2.4-1.2,2.3-2.4c0-1.5-2-3-4-3.3v-0.3C146.2,61.2,150.3,63.3,150.3,66.2z"/>
	<path class="st2" d="M167.5,51.3c4.8,0,8.7-0.5,12.3-2v34.9c0,1.3,0.8,2.6,3.9,2.6v0.3h-16.2v-0.3c3.1,0,3.9-1.3,3.9-2.6V54.3
		c0-1.9-0.9-2.7-3.8-2.7V51.3z"/>
	<path class="st2" d="M186.8,74.2c0-8.7,6.6-13.2,12.6-13.3v0.3c-3,0.4-3.9,2.9-3.9,12.8c0,7.4,3.3,11.5,7.9,11.5
		c2.9,0,5.1-0.8,7.5-2.7V83c-2.7,3.4-7.6,4.6-10.9,4.6C193.4,87.7,186.8,82.8,186.8,74.2z M198.4,72c4.5,0,6.4-1.4,6.4-5.8
		c0-2.5-1-4.7-3.3-5v-0.3c6.8,0,10.1,4.8,10.1,8.8c0,0.8-0.1,1.9-0.3,2.7h-12.9V72z"/>
	<path class="st2" d="M215.3,81.1c0.1-4.5,4.1-7,9.9-7h5.6v0.3h-1.5c-3.7,0-5.5,2.4-5.5,5.6c0,2.8,0.8,5,3.2,5
		c1.4,0,2.6-0.8,3.8-1.8v0.3c-1.7,2-4.4,4.2-8.2,4.2C218.1,87.7,215.2,85.2,215.3,81.1z M217.3,66.5c0-2.6,2.4-5.3,9.4-5.6v0.3
		c-2.1,0.3-3.3,2-3.3,3.8c0,1.9,1.3,3,3.3,3.1c-0.8,1.4-2.9,2.5-4.9,2.5C219,70.6,217.3,68.6,217.3,66.5z M232.3,81.8V66.1
		c0-2.5-1-4.5-3.5-4.9v-0.3c8.6,0.3,12,3.6,12,10.3v12.5c0,1.5,0.5,2.1,1.4,2.1c0.8,0,1.6-0.8,2.5-2.3h0.3c-0.8,2.8-3.6,4.2-6.7,4.2
		C234.1,87.7,232.3,86.2,232.3,81.8z"/>
	<path class="st2" d="M265.7,65v0.4c-1.2-1.3-2.7-1.9-4.3-1.9c-2.6,0-5,1.2-5,10.5c0,9.3,2.6,11,5,11c1.6,0,3-0.8,4.3-1.8v0.3
		c-1.3,2.2-4.5,4.2-7.5,4.2c-4.9,0-10.6-2.9-10.6-13.7c0-10.3,5.6-13.1,10.6-13.1C261.2,60.9,264.5,62.8,265.7,65z M275.8,83.7
		c0,1.5,0.5,2.1,1.4,2.1c0.8,0,1.6-0.8,2.5-2.3h0.3c-0.8,2.8-3.6,4.2-6.7,4.2c-4.1,0-6-1.4-6-5.8V54.3c0-1.9-0.9-2.7-3.8-2.7v-0.3
		c4.8,0,8-0.5,12.3-2V83.7z"/>
	<path class="st2" d="M282.1,62.8c4.8,0,8.7-0.5,12.3-2v23.4c0,1.3,0.8,2.6,3.9,2.6v0.3h-16.2v-0.3c3.1,0,3.9-1.3,3.9-2.6V65.9
		c0-1.9-0.9-2.7-3.8-2.7V62.8z M284.8,53.1c0-2.7,2.2-4.5,5.3-4.5s5.3,1.8,5.3,4.5c0,2.7-2.2,4.5-5.3,4.5S284.8,55.9,284.8,53.1z"/>
	<path class="st2" d="M300.5,86.8c3.1,0,3.9-1.3,3.9-2.6V65.9c0-1.9-0.9-2.7-3.8-2.7v-0.3c4.8,0,8.7-0.5,12.3-2v23.3
		c0,1.3,0.8,2.6,3.9,2.6v0.3h-16.2V86.8z M318.6,86.8c3,0,3.8-1.3,3.8-2.6V68.1c0-2.9-1.5-4.4-4.1-4.4c-1.4,0-2.7,0.5-3.9,1.6V65
		c1.4-2.2,4.7-4.2,8.6-4.2c4.6,0,7.9,2.2,7.9,7.3v16.1c0,1.3,0.8,2.6,3.9,2.6v0.3h-16.2V86.8z"/>
	<path class="st2" d="M337.8,70.2c0-6.7,6.3-9.2,11.5-9.3v0.3c-2.2,0.2-3.2,2.9-3.2,8.9c0,6.2,1,8.8,3.2,9v0.3
		C344.1,79.3,337.8,76.8,337.8,70.2z M351.5,99.7c5.2-0.6,6.8-3.4,6.8-5.3c0-7.2-20.1-0.8-20.1-10c0-2.1,1.1-3.8,3.5-5.3l0.2,0.3
		c-0.3,0.2-0.5,0.6-0.5,1c0,5.8,23.5-0.9,23.5,10.3c0,5.3-4.6,8.8-13.3,9.3V99.7z M338.2,95.4c0-3,3.8-4,7.8-4
		c-0.9,0.4-2.2,1.9-2.2,3.7c0,2.4,2.7,4.2,5.6,4.6v0.3C343.9,99.9,338.2,98.8,338.2,95.4z M351.5,79c2.5-0.2,3.6-2.7,3.6-9
		c0-6-1.1-8.7-3.6-8.9v-0.3c5.5,0.1,11.8,2.6,11.8,9.3c0,6.6-6.3,9.1-11.8,9.1V79z M354.3,59.9c0.9-2.6,3.2-6.2,6.8-6.2
		c2.7,0,4.4,1.4,4.4,3.9c0,2.5-2.2,4-4.2,4c0-2.2-1.1-3.5-2.8-3.5c-1.5,0-3.2,0.9-4,1.9L354.3,59.9z"/>
</g>
<g class="st1">
	<path class="st2" d="M40.8,114.3c4.8,0,8.7-0.5,12.3-2v23.4c0,1.3,0.8,2.6,3.9,2.6v0.3H40.7v-0.3c3.1,0,3.9-1.3,3.9-2.6v-18.3
		c0-1.9-0.9-2.7-3.8-2.7V114.3z M43.4,104.7c0-2.7,2.2-4.5,5.3-4.5s5.3,1.8,5.3,4.5c0,2.7-2.2,4.5-5.3,4.5S43.4,107.4,43.4,104.7z"
		/>
	<path class="st2" d="M59.1,138.3c3.1,0,3.9-1.3,3.9-2.6v-18.3c0-1.9-0.9-2.7-3.8-2.7v-0.3c4.8,0,8.7-0.5,12.3-2v23.3
		c0,1.3,0.8,2.6,3.9,2.6v0.3H59.1V138.3z M77.3,138.3c3,0,3.8-1.3,3.8-2.6v-16.1c0-2.9-1.5-4.4-4.1-4.4c-1.4,0-2.7,0.5-3.9,1.6v-0.3
		c1.4-2.2,4.7-4.2,8.6-4.2c4.6,0,7.9,2.2,7.9,7.3v16.1c0,1.3,0.8,2.6,3.9,2.6v0.3H77.3V138.3z"/>
	<path class="st2" d="M105.2,132.5c-1.7,0.1-2.9,1-2.9,2.6c0,1.5,1,3.4,4.6,3.8v0.3c-6.9-0.3-10.6-2.1-10.6-5.1
		c0-2.4,2.1-3.8,4.4-3.8C102.7,130.3,104.4,131.2,105.2,132.5z M106.9,112.7c-1.9,0.4-3.8,1.3-3.7,3.5c0.2,6,16.8,7,16.8,15.1
		c0,5-4.2,7.6-10.9,7.9v-0.3c2.2-0.4,4.6-1.1,4.6-3.8c0-5.4-16.9-7.3-16.9-15.1c0-4.5,4.3-7.3,10-7.5V112.7z M119,117.7
		c0,1.6-1.2,3.2-3.8,3.2c-2.2,0-3.7-0.9-4.4-2.5c1.5-0.1,2.4-1.2,2.3-2.4c0-1.5-2-3-4-3.3v-0.3C115,112.7,119,114.8,119,117.7z"/>
	<path class="st2" d="M135.2,131.9c0,2.9,1,4.4,3.6,4.4c1.3,0,2.4-0.4,3.6-1.6v0.3c-1.2,2.2-3.8,4.2-8,4.2c-4.6,0-7.6-2.2-7.6-7.3
		v-14.5c0-1.9-0.9-2.7-3.8-2.7v-0.3c4.8,0,8.7-0.5,12.3-2V131.9z M152.4,135.2c0,1.5,0.5,2.1,1.4,2.1c0.8,0,1.6-0.8,2.5-2.3h0.3
		c-0.8,2.8-3.6,4.2-7,4.2c-3.6,0-5.7-2.1-5.7-5v-16.7c0-1.9-0.9-2.7-3.7-2.7v-0.3c4.6,0,7.8-0.5,12.2-2V135.2z"/>
</g>
<g class="st1">
	<path class="st2" d="M171,135.7c0,1.3,0.8,2.6,3.9,2.6v0.3h-16.2v-0.3c3.1,0,3.9-1.3,3.9-2.6v-18.3c0-1.9-0.9-2.7-3.8-2.7v-0.3
		c4.8,0,8.7-0.5,12.3-2V135.7z M184.9,117.9c0,3.6-2.5,5.9-5.3,5.9c-1.2,0-2.3-0.3-2.9-1.1c1-0.5,2-1.6,2-3.5c0-1.5-1.1-2.8-2.9-2.8
		c-1.3,0-2.4,0.8-3.1,2v-0.4c1-3.3,3.5-5.6,6.7-5.6C182.9,112.4,184.9,114.9,184.9,117.9z"/>
</g>
<g class="st1">
	<path class="st2" d="M187.1,132.6c0.1-4.5,4.1-7,9.9-7h5.6v0.3H201c-3.7,0-5.5,2.4-5.5,5.6c0,2.8,0.8,5,3.2,5
		c1.4,0,2.6-0.8,3.8-1.8v0.3c-1.7,2-4.4,4.2-8.2,4.2C190,139.2,187,136.7,187.1,132.6z M189.1,118c0-2.6,2.4-5.3,9.4-5.6v0.3
		c-2.1,0.3-3.3,2-3.3,3.8c0,1.9,1.3,3,3.3,3.1c-0.8,1.4-2.9,2.5-4.9,2.5C190.8,122.1,189.1,120.2,189.1,118z M204.1,133.3v-15.8
		c0-2.5-1-4.5-3.5-4.9v-0.3c8.6,0.3,12,3.6,12,10.3v12.5c0,1.5,0.5,2.1,1.4,2.1c0.8,0,1.6-0.8,2.5-2.3h0.3c-0.8,2.8-3.6,4.2-6.7,4.2
		C205.9,139.2,204.1,137.7,204.1,133.3z"/>
	<path class="st2" d="M218.4,138.3c3.1,0,3.9-1.3,3.9-2.6v-18.3c0-1.9-0.9-2.7-3.8-2.7v-0.3c4.8,0,8.7-0.5,12.3-2v23.3
		c0,1.3,0.8,2.6,3.9,2.6v0.3h-16.2V138.3z M236.5,138.3c3,0,3.8-1.3,3.8-2.6v-16.1c0-2.9-1.5-4.4-4.1-4.4c-1.4,0-2.7,0.5-3.9,1.6
		v-0.3c1.4-2.2,4.7-4.2,8.6-4.2c4.6,0,7.9,2.2,7.9,7.3v16.1c0,1.3,0.8,2.6,3.9,2.6v0.3h-16.2V138.3z"/>
	<path class="st2" d="M268.6,112.7c-3,0.4-4.4,2.9-4.4,12.8c0,7.4,3.8,11.5,8.3,11.5c2.9,0,5.1-0.8,7.5-2.7v0.3
		c-2.7,3.4-7.6,4.6-10.9,4.6c-6.6,0-13.8-4.8-13.8-13.5c0-8.7,7.2-13.2,13.2-13.3V112.7z M280.1,118.2c0,2.7-1.9,4.9-5.2,4.9
		c-2.5,0-4.2-1.6-4.5-3.2c1.4-0.6,2.5-2.4,2.5-3.8c0-1.2-0.3-3-2.2-3.4v-0.4C277.4,112.4,280.1,115.3,280.1,118.2z"/>
	<path class="st2" d="M283.9,125.7c0-8.7,6.6-13.2,12.6-13.3v0.3c-3,0.4-3.9,2.9-3.9,12.8c0,7.4,3.3,11.5,7.9,11.5
		c2.9,0,5.1-0.8,7.5-2.7v0.3c-2.7,3.4-7.6,4.6-10.9,4.6C290.6,139.2,283.9,134.3,283.9,125.7z M295.5,123.5c4.5,0,6.4-1.4,6.4-5.8
		c0-2.5-1-4.7-3.3-5v-0.3c6.8,0,10.1,4.8,10.1,8.8c0,0.8-0.1,1.9-0.3,2.7h-12.9V123.5z"/>
</g>
<g class="st1">
	<path class="st2" d="M50.6,184c-1.7,0.1-2.9,1-2.9,2.6c0,1.5,1,3.4,4.6,3.8v0.3c-6.9-0.3-10.6-2.1-10.6-5.1c0-2.4,2.1-3.8,4.4-3.8
		C48.1,181.8,49.8,182.7,50.6,184z M52.3,164.2c-1.9,0.4-3.8,1.3-3.7,3.5c0.2,6,16.8,7,16.8,15.1c0,5-4.2,7.6-10.9,7.9v-0.3
		c2.2-0.4,4.6-1.1,4.6-3.8c0-5.4-16.9-7.3-16.9-15.1c0-4.5,4.3-7.3,10-7.5V164.2z M64.4,169.2c0,1.6-1.2,3.2-3.8,3.2
		c-2.2,0-3.7-0.9-4.4-2.5c1.5-0.1,2.4-1.2,2.3-2.4c0-1.5-2-3-4-3.3v-0.3C60.4,164.2,64.4,166.3,64.4,169.2z"/>
	<path class="st2" d="M80.7,198c0,1.9,0.9,2.7,3.8,2.7v0.3c-4.8,0-8,0.5-12.3,2v-34.2c0-1.9-0.9-2.7-3.8-2.7v-0.3
		c4.8,0,8-0.5,12.3-2V198z M100.3,177c0,10.8-5.7,13.7-10.6,13.7c-2.9,0-6.2-2-7.5-4.2v-0.3c1.3,1,2.7,1.8,4.3,1.8c2.4,0,5-1.7,5-11
		c0-9.3-2.4-10.5-5-10.5c-1.6,0-3.1,0.6-4.3,1.9V168c1.3-2.2,4.6-4.1,7.5-4.1C94.8,163.9,100.3,166.8,100.3,177z"/>
	<path class="st2" d="M104.9,177.2c0-8.7,6.6-13.2,12.6-13.3v0.3c-3,0.4-3.9,2.9-3.9,12.8c0,7.4,3.3,11.5,7.9,11.5
		c2.9,0,5.1-0.8,7.5-2.7v0.3c-2.7,3.4-7.6,4.6-10.9,4.6C111.5,190.7,104.9,185.8,104.9,177.2z M116.5,175c4.5,0,6.4-1.4,6.4-5.8
		c0-2.5-1-4.7-3.3-5v-0.3c6.8,0,10.1,4.8,10.1,8.8c0,0.8-0.1,1.9-0.3,2.7h-12.9V175z"/>
	<path class="st2" d="M147.1,164.2c-3,0.4-4.4,2.9-4.4,12.8c0,7.4,3.8,11.5,8.3,11.5c2.9,0,5.1-0.8,7.5-2.7v0.3
		c-2.7,3.4-7.6,4.6-10.9,4.6c-6.6,0-13.8-4.8-13.8-13.5s7.2-13.2,13.2-13.3V164.2z M158.5,169.7c0,2.7-1.9,4.9-5.2,4.9
		c-2.5,0-4.2-1.6-4.5-3.2c1.4-0.6,2.5-2.4,2.5-3.8c0-1.2-0.3-3-2.2-3.4v-0.4C155.9,163.9,158.5,166.8,158.5,169.7z"/>
	<path class="st2" d="M161.5,165.8c4.8,0,8.7-0.5,12.3-2v23.4c0,1.3,0.8,2.6,3.9,2.6v0.3h-16.2v-0.3c3.1,0,3.9-1.3,3.9-2.6v-18.3
		c0-1.9-0.9-2.7-3.8-2.7V165.8z M164.2,156.2c0-2.7,2.2-4.5,5.3-4.5s5.3,1.8,5.3,4.5c0,2.7-2.2,4.5-5.3,4.5S164.2,158.9,164.2,156.2
		z"/>
	<path class="st2" d="M180.3,184.1c0.1-4.5,4.1-7,9.9-7h5.6v0.3h-1.5c-3.7,0-5.5,2.4-5.5,5.6c0,2.8,0.8,5,3.2,5
		c1.4,0,2.6-0.8,3.8-1.8v0.3c-1.7,2-4.4,4.2-8.2,4.2C183.2,190.7,180.2,188.2,180.3,184.1z M182.3,169.5c0-2.6,2.4-5.3,9.4-5.6v0.3
		c-2.1,0.3-3.3,2-3.3,3.8c0,1.9,1.3,3,3.3,3.1c-0.8,1.4-2.9,2.5-4.9,2.5C184,173.6,182.3,171.7,182.3,169.5z M197.3,184.9v-15.8
		c0-2.5-1-4.5-3.5-4.9v-0.3c8.6,0.3,12,3.6,12,10.3v12.5c0,1.5,0.5,2.1,1.4,2.1c0.8,0,1.6-0.8,2.5-2.3h0.3c-0.8,2.8-3.6,4.2-6.7,4.2
		C199.1,190.7,197.3,189.2,197.3,184.9z"/>
	<path class="st2" d="M211.3,154.3c4.8,0,8.7-0.5,12.3-2v34.9c0,1.3,0.8,2.6,3.9,2.6v0.3h-16.2v-0.3c3.1,0,3.9-1.3,3.9-2.6v-29.9
		c0-1.9-0.9-2.7-3.8-2.7V154.3z"/>
	<path class="st2" d="M229.7,165.8c4.8,0,8.7-0.5,12.3-2v23.4c0,1.3,0.8,2.6,3.9,2.6v0.3h-16.2v-0.3c3.1,0,3.9-1.3,3.9-2.6v-18.3
		c0-1.9-0.9-2.7-3.8-2.7V165.8z M232.4,156.2c0-2.7,2.2-4.5,5.3-4.5s5.3,1.8,5.3,4.5c0,2.7-2.2,4.5-5.3,4.5S232.4,158.9,232.4,156.2
		z"/>
	<path class="st2" d="M258,184c-1.7,0.1-2.9,1-2.9,2.6c0,1.5,1,3.4,4.6,3.8v0.3c-6.9-0.3-10.6-2.1-10.6-5.1c0-2.4,2.1-3.8,4.4-3.8
		C255.5,181.8,257.2,182.7,258,184z M259.7,164.2c-1.9,0.4-3.8,1.3-3.7,3.5c0.2,6,16.8,7,16.8,15.1c0,5-4.2,7.6-10.9,7.9v-0.3
		c2.2-0.4,4.6-1.1,4.6-3.8c0-5.4-16.9-7.3-16.9-15.1c0-4.5,4.3-7.3,10-7.5V164.2z M271.8,169.2c0,1.6-1.2,3.2-3.8,3.2
		c-2.2,0-3.7-0.9-4.4-2.5c1.5-0.1,2.4-1.2,2.3-2.4c0-1.5-2-3-4-3.3v-0.3C267.8,164.2,271.8,166.3,271.8,169.2z"/>
	<path class="st2" d="M296.2,186.2v0.3c-1.6,2.4-4.9,4.2-8.8,4.2c-4.6,0-7.9-2.1-7.9-7.3v-16.9h-2.7l0.6-0.8h2.1v-5.6
		c3.1,0,6.2-1,8.4-2.9v8.4h7l-0.6,0.8h-6.4v17.1c0,2.6,1,5.3,3.4,5.3C292.7,188.8,294.5,187.9,296.2,186.2z"/>
</g>
</svg>
