<svg id="Layer_1" data-name="Layer 1" xmlns="http://www.w3.org/2000/svg" xmlns:xlink="http://www.w3.org/1999/xlink" viewBox="0 0 970 250"><defs><style>.cls-1{fill:none;}.cls-2{clip-path:url(#clip-path);}.cls-3{fill:#ffac00;}.cls-4{fill:#fff;}</style><clipPath id="clip-path"><rect class="cls-1" width="970" height="250"/></clipPath></defs><title>Artboard 1 copy 5</title><g class="cls-2"><path class="cls-3" d="M473.16,62.33V124A22,22,0,0,0,485,143.45l92.35,47.91a27.48,27.48,0,0,0,25.29,0L695,143.45A22,22,0,0,0,706.85,124V62.33a10.27,10.27,0,0,0-10.26-10.26H483.42A10.26,10.26,0,0,0,473.16,62.33Z"/><path class="cls-4" d="M571.71,96l.42-.6c.3-.42.62-.44,1.1-.18a4.71,4.71,0,0,0,2.74,1c1.25,0,2-.62,2-1.54,0-2.56-6.29-2-6.29-6.23,0-2.38,2-3.92,4.54-3.92a6.34,6.34,0,0,1,3.48,1,.76.76,0,0,1,.25,1.09l-.34.63c-.29.55-.69.47-1.08.26a4.5,4.5,0,0,0-2.34-.74c-1.26,0-2.06.61-2.06,1.52,0,2.53,6.3,1.88,6.3,6.18,0,2.19-1.64,4-4.47,4a7.22,7.22,0,0,1-4.15-1.37A.72.72,0,0,1,571.71,96Z"/><path class="cls-4" d="M585.88,86.9h-3.63a.7.7,0,0,1-.8-.78v-.54a.71.71,0,0,1,.8-.79h9.69a.7.7,0,0,1,.78.79v.54a.69.69,0,0,1-.78.78h-3.63V97.49a.71.71,0,0,1-.8.8h-.85a.7.7,0,0,1-.78-.8Z"/><path class="cls-4" d="M595.93,85.43a.86.86,0,0,1,.9-.64H598a.84.84,0,0,1,.9.64l4.22,11.95c.19.55-.06.91-.65.91h-.87a.84.84,0,0,1-.89-.65l-1-2.81h-4.73l-.93,2.79a.85.85,0,0,1-.9.67h-.87c-.59,0-.84-.36-.65-.91Zm3.26,7.4L598,89.22c-.23-.76-.53-2.1-.53-2.1h0s-.31,1.34-.54,2.1l-1.21,3.61Z"/><path class="cls-4" d="M604.86,85.58a.7.7,0,0,1,.78-.79h3.66a6.1,6.1,0,0,1,2.56.36,3.76,3.76,0,0,1,2.27,3.69,3.91,3.91,0,0,1-2.25,3.69v0a5.09,5.09,0,0,1,.44.71l2.23,4.07c.32.55.07,1-.56,1h-1a1,1,0,0,1-.94-.55l-2.37-4.49H607.3v4.24a.7.7,0,0,1-.78.8h-.88a.7.7,0,0,1-.78-.8Zm4.65,5.54A2,2,0,0,0,611.64,89a1.83,1.83,0,0,0-1.07-1.85,3.41,3.41,0,0,0-1.46-.22H607.3v4.22Z"/><path class="cls-4" d="M572.6,102.08a.42.42,0,0,1,.46-.47h.4a.42.42,0,0,1,.45.47V114.5a.43.43,0,0,1-.45.48h-.4a.42.42,0,0,1-.46-.48Z"/><path class="cls-4" d="M577.08,105.88a.43.43,0,0,1,.47-.47h.35a.42.42,0,0,1,.45.47V107a3.32,3.32,0,0,1-.07.68h0a4.25,4.25,0,0,1,3.87-2.49c2.37,0,3.21,1.35,3.21,3.71v5.61a.44.44,0,0,1-.48.48h-.36a.42.42,0,0,1-.45-.48v-5.27c0-1.5-.25-2.83-2.1-2.83a3.71,3.71,0,0,0-3.63,3.9v4.2a.42.42,0,0,1-.45.48h-.37a.43.43,0,0,1-.47-.48Z"/><path class="cls-4" d="M587.44,113.45l.16-.19a.42.42,0,0,1,.64-.07,4.18,4.18,0,0,0,2.53.87c1.07,0,1.94-.53,1.94-1.54,0-2.15-5.11-1.5-5.11-4.66,0-1.77,1.5-2.68,3.25-2.68a4.43,4.43,0,0,1,2.62.78.41.41,0,0,1,.14.63l-.14.21a.41.41,0,0,1-.64.13,3.58,3.58,0,0,0-2.06-.61c-1,0-1.88.44-1.88,1.49,0,2.2,5.1,1.5,5.1,4.69,0,1.58-1.33,2.7-3.24,2.7a5,5,0,0,1-3.23-1.1A.43.43,0,0,1,587.44,113.45Z"/><path class="cls-4" d="M595.91,105.88a.41.41,0,0,1,.45-.47h.36a.43.43,0,0,1,.48.47v5.27c0,1.5.23,2.84,2.07,2.84a3.72,3.72,0,0,0,3.54-4v-4.11a.43.43,0,0,1,.47-.47h.37a.41.41,0,0,1,.45.47v8.62a.42.42,0,0,1-.45.48h-.35a.42.42,0,0,1-.45-.48v-1.1a4.84,4.84,0,0,1,0-.69h0a4.17,4.17,0,0,1-3.77,2.49c-2.26,0-3.19-1.21-3.19-3.71Z"/><path class="cls-4" d="M606.9,105.88a.43.43,0,0,1,.48-.47h.34a.42.42,0,0,1,.46.47v1.3a3.7,3.7,0,0,1-.08.76h0a3.42,3.42,0,0,1,3.08-2.59c.34,0,.5.15.5.46v.34c0,.31-.21.48-.54.48-2,0-3,2.3-3,4.29v3.58a.42.42,0,0,1-.46.48h-.36a.44.44,0,0,1-.48-.48Z"/><path class="cls-4" d="M618.3,109.12h.55v-.31a2.14,2.14,0,0,0-2.36-2.47,4.47,4.47,0,0,0-2.32.67.44.44,0,0,1-.64-.16l-.12-.19a.43.43,0,0,1,.14-.64,5.76,5.76,0,0,1,3-.84c2.28,0,3.56,1.28,3.56,3.67v5.65a.43.43,0,0,1-.46.48h-.3a.43.43,0,0,1-.48-.48v-.76A3.79,3.79,0,0,1,619,113h0a3.56,3.56,0,0,1-3.23,2.18c-1.62,0-3.24-1-3.24-2.79C612.46,109.29,616.46,109.12,618.3,109.12Zm-2.38,5c1.85,0,2.93-1.9,2.93-3.58v-.45h-.53c-1.5,0-4.53,0-4.53,2.2A1.92,1.92,0,0,0,615.92,114.12Z"/><path class="cls-4" d="M622.86,105.88a.43.43,0,0,1,.47-.47h.35a.42.42,0,0,1,.45.47V107a3.32,3.32,0,0,1-.07.68h0a4.25,4.25,0,0,1,3.87-2.49c2.37,0,3.21,1.35,3.21,3.71v5.61a.44.44,0,0,1-.48.48h-.36a.42.42,0,0,1-.45-.48v-5.27c0-1.5-.25-2.83-2.1-2.83a3.71,3.71,0,0,0-3.63,3.9v4.2a.42.42,0,0,1-.45.48h-.37a.43.43,0,0,1-.47-.48Z"/><path class="cls-4" d="M638.32,105.18a5,5,0,0,1,3.18,1.08.41.41,0,0,1,.06.65l-.14.21c-.17.27-.38.27-.64.1a3.92,3.92,0,0,0-2.42-.88,3.85,3.85,0,0,0,0,7.7,4.19,4.19,0,0,0,2.7-1,.38.38,0,0,1,.63.11l.13.19a.47.47,0,0,1-.11.65,5.34,5.34,0,0,1-3.41,1.21,5,5,0,1,1,0-10Z"/><path class="cls-4" d="M647.74,105.18c2.55,0,4,1.85,4,4.57a.48.48,0,0,1-.5.47h-6.88a3.64,3.64,0,0,0,3.71,3.82,4.14,4.14,0,0,0,2.51-.87.39.39,0,0,1,.62.11l.16.23a.45.45,0,0,1-.14.63A5.43,5.43,0,0,1,648,115.2a4.83,4.83,0,0,1-5-5A4.67,4.67,0,0,1,647.74,105.18Zm2.68,4.07c-.07-2-1.29-3-2.72-3a3.3,3.3,0,0,0-3.29,3Z"/><path class="cls-4" d="M572.83,120.2a.76.76,0,0,1,.82-.76h1.2a.86.86,0,0,1,.89.65l2.42,6c.3.8.68,2,.68,2h0s.36-1.18.66-2l2.42-6a.87.87,0,0,1,.91-.65h1.18a.75.75,0,0,1,.82.76l1,11.93a.69.69,0,0,1-.76.82h-.86a.75.75,0,0,1-.82-.77l-.51-6.78c-.06-.9,0-2.1,0-2.1h0s-.41,1.32-.72,2.1l-2,4.6a.86.86,0,0,1-.89.63h-.8a.87.87,0,0,1-.91-.63l-1.94-4.6c-.31-.78-.74-2.12-.74-2.12h0s0,1.22,0,2.12l-.52,6.78a.73.73,0,0,1-.81.77h-.86a.69.69,0,0,1-.76-.82Z"/><path class="cls-4" d="M592.92,123a5.08,5.08,0,1,1-5.32,5.08A5.12,5.12,0,0,1,592.92,123Zm0,8.1a3,3,0,1,0-2.87-3A2.89,2.89,0,0,0,592.92,131.12Z"/><path class="cls-4" d="M600.27,125.3h-.52a.7.7,0,0,1-.78-.8v-.32a.71.71,0,0,1,.8-.8h.55v-2a.73.73,0,0,1,.8-.8h.76a.72.72,0,0,1,.8.8v2h1.41a.72.72,0,0,1,.8.8v.32a.71.71,0,0,1-.78.8h-1.43v3.77a1.58,1.58,0,0,0,1.56,1.8c.59.06.8.25.8.78v.59c0,.57-.32.8-1,.8-1.73,0-3.78-.93-3.78-3.56Z"/><path class="cls-4" d="M611.05,123a5.08,5.08,0,1,1-5.32,5.08A5.11,5.11,0,0,1,611.05,123Zm0,8.1a3,3,0,1,0-2.87-3A2.89,2.89,0,0,0,611.05,131.12Z"/><path class="cls-4" d="M618.16,124a.7.7,0,0,1,.78-.79h.75a.71.71,0,0,1,.79.79V125a4.49,4.49,0,0,1-.05.66h0a3.32,3.32,0,0,1,2.81-2.45c.53,0,.72.27.72.8v.74a.73.73,0,0,1-.81.8c-1.77,0-2.63,1.75-2.63,3.52v3.12a.7.7,0,0,1-.78.8h-.84a.7.7,0,0,1-.78-.8Z"/><path class="cls-4" d="M629.8,123a5.43,5.43,0,0,1,3.18,1,.71.71,0,0,1,.15,1.08l-.25.38c-.28.44-.6.44-1.06.21a3.45,3.45,0,0,0-1.88-.59,2.88,2.88,0,0,0-3,3,2.94,2.94,0,0,0,3,3,3.84,3.84,0,0,0,2.17-.74c.48-.27.84-.21,1.08.25l.19.36a.74.74,0,0,1-.2,1.06,5.76,5.76,0,0,1-3.45,1.12,5.08,5.08,0,1,1,0-10.15Z"/><path class="cls-4" d="M635.5,134.77a1.58,1.58,0,0,0,.68.17,1.83,1.83,0,0,0,1.54-1.29l.36-.86-3.68-8.61c-.25-.55,0-.93.6-.93h1a.84.84,0,0,1,.89.64l1.83,5c.17.51.36,1.31.36,1.31h0s.17-.76.32-1.27l1.71-5a.84.84,0,0,1,.9-.66H643c.59,0,.84.36.65.91l-4,10.23a3.59,3.59,0,0,1-4.85,2.26.68.68,0,0,1-.36-1l.17-.42A.71.71,0,0,1,635.5,134.77Z"/><path class="cls-4" d="M649.48,123a5.39,5.39,0,0,1,3.17,1,.71.71,0,0,1,.15,1.08l-.24.38c-.29.44-.61.44-1.07.21a3.42,3.42,0,0,0-1.88-.59,2.88,2.88,0,0,0-3,3,2.94,2.94,0,0,0,3,3,3.78,3.78,0,0,0,2.17-.74c.48-.27.84-.21,1.09.25l.19.36a.74.74,0,0,1-.21,1.06,5.75,5.75,0,0,1-3.44,1.12,5.08,5.08,0,1,1,0-10.15Z"/><path class="cls-4" d="M654.75,120.24a.71.71,0,0,1,.77-.8h.84a.71.71,0,0,1,.78.8v9.49c0,1,.4,1.12.76,1.16a.63.63,0,0,1,.59.69v.64a.72.72,0,0,1-.8.82c-1.29,0-2.94-.34-2.94-3.12Z"/><path class="cls-4" d="M664.21,123c2.76,0,4.3,2,4.3,4.62a.84.84,0,0,1-.84.82h-5.91a2.78,2.78,0,0,0,2.91,2.66,4,4,0,0,0,2.09-.63c.47-.23.82-.17,1.06.27l.23.38a.72.72,0,0,1-.26,1.06,6.14,6.14,0,0,1-3.29,1,5,5,0,0,1-5.22-5.07A4.79,4.79,0,0,1,664.21,123Zm1.9,4a2,2,0,0,0-2-2.15,2.37,2.37,0,0,0-2.34,2.15Z"/><path class="cls-4" d="M526.74,126.88a1.37,1.37,0,0,1-.61-.15,1.33,1.33,0,0,1-.66-1.61l14.07-43.33a3,3,0,0,1,2.86-2.07h0a3,3,0,0,1,2.86,2.07l2.86,8.59a1,1,0,0,1-.65,1.29,1,1,0,0,1-1.29-.65l-2.85-8.59a1,1,0,0,0-.93-.68h0a1,1,0,0,0-.92.67L528.75,121.6l17.94-24.54a5.58,5.58,0,0,1,4.5-2.28h11.95a3,3,0,0,1,1.76,5.44L554,108.15l-.12.11,4.23,13a3,3,0,0,1-4.63,3.36L544,117.73a3,3,0,0,1,0-4.86l7.92-5.74a.58.58,0,0,1,.12-.1l11.64-8.46a1,1,0,0,0-.56-1.75H551.19a3.55,3.55,0,0,0-2.86,1.45l-20.5,28.06A1.35,1.35,0,0,1,526.74,126.88Zm25.39-17.37-6.91,5a.94.94,0,0,0-.4.78.92.92,0,0,0,.4.78l9.44,6.87a1,1,0,0,0,1.14,0,1,1,0,0,0,.35-1.08Z"/><path class="cls-4" d="M527.47,105.34a1.07,1.07,0,0,1-.59-.18l-7-4.94a3,3,0,0,1,1.75-5.44h8.55a1,1,0,0,1,0,2h-8.55a.94.94,0,0,0-.92.66,1,1,0,0,0,.35,1.09l7,4.92a1,1,0,0,1-.59,1.85Z"/><path class="cls-4" d="M537,141.26a3.32,3.32,0,0,1-1.64-.43l-17.8-10.1a1,1,0,0,1-.52-.89V108.11a1,1,0,0,1,2,0v21.14l17.29,9.81a1.28,1.28,0,0,0,1.31,0l12.63-7.91a1,1,0,0,1,1.08,1.73l-12.63,7.91A3.38,3.38,0,0,1,537,141.26Z"/></g></svg>