<svg id="Layer_1" data-name="Layer 1" xmlns="http://www.w3.org/2000/svg" viewBox="0 0 300 250"><defs><style>.cls-1{fill:#ffac00;}.cls-2{fill:#fff;}</style></defs><title>Artboard 1 copy</title><path class="cls-1" d="M27.18,226.45h135a12.11,12.11,0,0,0,10.75-6.54l15.94-30.71a12.13,12.13,0,0,0,0-11.15l-15.94-30.71a12.11,12.11,0,0,0-10.75-6.54h-135a7.35,7.35,0,0,0-7.35,7.35V219.1A7.35,7.35,0,0,0,27.18,226.45Z"/><path class="cls-2" d="M83.67,173.08l.3-.43c.21-.3.44-.32.78-.13a3.37,3.37,0,0,0,2,.71c.89,0,1.43-.45,1.43-1.1,0-1.83-4.49-1.45-4.49-4.45,0-1.69,1.41-2.79,3.25-2.79a4.47,4.47,0,0,1,2.48.73.52.52,0,0,1,.17.77l-.24.45c-.2.39-.49.34-.77.19a3.2,3.2,0,0,0-1.67-.53c-.9,0-1.47.44-1.47,1.09,0,1.8,4.49,1.34,4.49,4.4a2.88,2.88,0,0,1-3.18,2.85,5.15,5.15,0,0,1-3-1A.51.51,0,0,1,83.67,173.08Z"/><path class="cls-2" d="M93.77,166.56H91.18a.5.5,0,0,1-.57-.56v-.38a.51.51,0,0,1,.57-.57H98.1a.5.5,0,0,1,.56.57V166a.5.5,0,0,1-.56.56H95.51v7.55a.5.5,0,0,1-.57.57h-.61a.5.5,0,0,1-.56-.57Z"/><path class="cls-2" d="M101,165.51a.61.61,0,0,1,.63-.46h.87a.61.61,0,0,1,.64.46l3,8.52c.14.39,0,.65-.46.65H105a.6.6,0,0,1-.64-.46l-.68-2h-3.38l-.66,2a.61.61,0,0,1-.64.47H98.4c-.42,0-.6-.26-.46-.65Zm2.32,5.28-.86-2.58c-.16-.54-.38-1.49-.38-1.49h0s-.21.95-.38,1.49l-.86,2.58Z"/><path class="cls-2" d="M107.32,165.62a.5.5,0,0,1,.55-.57h2.61a4.34,4.34,0,0,1,1.83.26,2.66,2.66,0,0,1,1.61,2.63,2.77,2.77,0,0,1-1.6,2.63v0a3.74,3.74,0,0,1,.31.5l1.59,2.9c.23.4.06.68-.39.68h-.73a.69.69,0,0,1-.67-.39l-1.69-3.2h-1.69v3a.5.5,0,0,1-.55.57h-.63a.5.5,0,0,1-.55-.57Zm3.31,3.95a1.42,1.42,0,0,0,1.52-1.54,1.29,1.29,0,0,0-.76-1.31,2.41,2.41,0,0,0-1-.16h-1.29v3Z"/><path class="cls-2" d="M84.31,177.39c0-.22.1-.34.32-.34h.29a.3.3,0,0,1,.32.34v8.85a.3.3,0,0,1-.32.34h-.29c-.22,0-.32-.12-.32-.34Z"/><path class="cls-2" d="M87.5,180.1a.31.31,0,0,1,.34-.34h.24a.3.3,0,0,1,.33.34v.79a1.94,1.94,0,0,1-.06.48h0a3,3,0,0,1,2.75-1.77c1.7,0,2.3,1,2.3,2.64v4a.31.31,0,0,1-.34.34h-.26a.3.3,0,0,1-.33-.34v-3.75c0-1.08-.17-2-1.49-2a2.64,2.64,0,0,0-2.59,2.78v3a.3.3,0,0,1-.33.34h-.25a.31.31,0,0,1-.34-.34Z"/><path class="cls-2" d="M94.89,185.5l.11-.14c.12-.16.27-.17.46-.05a3,3,0,0,0,1.81.62c.76,0,1.38-.38,1.38-1.1,0-1.53-3.65-1.07-3.65-3.32,0-1.26,1.07-1.91,2.32-1.91a3.15,3.15,0,0,1,1.87.55.29.29,0,0,1,.1.45l-.1.15c-.11.19-.27.2-.46.09a2.62,2.62,0,0,0-1.46-.43c-.72,0-1.35.31-1.35,1.06,0,1.57,3.64,1.07,3.64,3.35a2.06,2.06,0,0,1-2.31,1.93A3.58,3.58,0,0,1,95,186,.3.3,0,0,1,94.89,185.5Z"/><path class="cls-2" d="M100.93,180.1c0-.22.1-.34.32-.34h.26a.31.31,0,0,1,.34.34v3.76c0,1.07.16,2,1.48,2a2.65,2.65,0,0,0,2.52-2.85V180.1a.31.31,0,0,1,.34-.34h.26a.3.3,0,0,1,.32.34v6.14a.3.3,0,0,1-.32.34h-.25a.3.3,0,0,1-.32-.34v-.78a3.06,3.06,0,0,1,0-.49h0a3,3,0,0,1-2.68,1.78c-1.62,0-2.28-.87-2.28-2.65Z"/><path class="cls-2" d="M108.77,180.1a.31.31,0,0,1,.34-.34h.24a.3.3,0,0,1,.33.34V181a3,3,0,0,1-.05.54h0a2.44,2.44,0,0,1,2.2-1.84c.24,0,.35.11.35.32v.25c0,.22-.15.34-.38.34-1.43,0-2.13,1.64-2.13,3.06v2.55c0,.22-.1.34-.32.34h-.26a.31.31,0,0,1-.34-.34Z"/><path class="cls-2" d="M116.9,182.4h.39v-.21c0-1.32-.72-1.77-1.68-1.77a3.17,3.17,0,0,0-1.65.48.32.32,0,0,1-.46-.11l-.09-.14a.31.31,0,0,1,.1-.46,4.22,4.22,0,0,1,2.17-.59,2.32,2.32,0,0,1,2.54,2.61v4a.3.3,0,0,1-.33.34h-.22a.31.31,0,0,1-.34-.34v-.54a2.31,2.31,0,0,1,0-.51h0a2.55,2.55,0,0,1-2.31,1.56,2.1,2.1,0,0,1-2.3-2C112.74,182.53,115.58,182.4,116.9,182.4ZM115.2,186a2.37,2.37,0,0,0,2.09-2.55v-.32h-.38c-1.07,0-3.22,0-3.22,1.57A1.36,1.36,0,0,0,115.2,186Z"/><path class="cls-2" d="M120.15,180.1a.31.31,0,0,1,.34-.34h.24a.3.3,0,0,1,.33.34v.79a2.3,2.3,0,0,1,0,.48h0a3,3,0,0,1,2.76-1.77c1.69,0,2.29,1,2.29,2.64v4a.31.31,0,0,1-.34.34h-.26a.3.3,0,0,1-.32-.34v-3.75c0-1.08-.18-2-1.5-2a2.64,2.64,0,0,0-2.59,2.78v3c0,.22-.1.34-.32.34h-.26a.31.31,0,0,1-.34-.34Z"/><path class="cls-2" d="M131.18,179.6a3.6,3.6,0,0,1,2.27.77.3.3,0,0,1,0,.46l-.1.15c-.12.19-.27.19-.46.07a2.8,2.8,0,0,0-1.72-.63,2.75,2.75,0,0,0,0,5.5,3,3,0,0,0,1.93-.72c.18-.14.32-.11.45.08l.09.14a.33.33,0,0,1-.08.46,3.82,3.82,0,0,1-2.43.87,3.58,3.58,0,1,1,0-7.15Z"/><path class="cls-2" d="M137.9,179.6c1.82,0,2.85,1.31,2.85,3.25a.34.34,0,0,1-.35.34h-4.91a2.6,2.6,0,0,0,2.64,2.73,2.87,2.87,0,0,0,1.79-.63.28.28,0,0,1,.45.09l.11.16a.32.32,0,0,1-.1.45,3.88,3.88,0,0,1-2.28.76,3.45,3.45,0,0,1-3.56-3.57A3.33,3.33,0,0,1,137.9,179.6Zm1.91,2.9a2,2,0,0,0-1.94-2.14,2.34,2.34,0,0,0-2.34,2.14Z"/><path class="cls-2" d="M84.47,190.31a.54.54,0,0,1,.58-.54h.86a.61.61,0,0,1,.63.46l1.73,4.3c.21.57.48,1.41.48,1.41h0s.26-.84.48-1.41l1.72-4.3a.62.62,0,0,1,.65-.46h.84a.53.53,0,0,1,.58.54l.7,8.51a.5.5,0,0,1-.55.58h-.61a.53.53,0,0,1-.58-.54L91.64,194c0-.64,0-1.5,0-1.5h0s-.3.94-.51,1.5l-1.4,3.28a.62.62,0,0,1-.64.45h-.57a.62.62,0,0,1-.65-.45L86.45,194c-.22-.56-.53-1.51-.53-1.51h0s0,.87,0,1.51l-.37,4.84a.52.52,0,0,1-.58.54h-.61a.49.49,0,0,1-.54-.58Z"/><path class="cls-2" d="M98.8,192.32a3.62,3.62,0,1,1-3.8,3.62A3.65,3.65,0,0,1,98.8,192.32Zm0,5.78a2.16,2.16,0,1,0-2-2.16A2.06,2.06,0,0,0,98.8,198.1Z"/><path class="cls-2" d="M104,194h-.37a.5.5,0,0,1-.56-.57v-.23a.51.51,0,0,1,.57-.57h.4v-1.41a.51.51,0,0,1,.57-.57h.54a.51.51,0,0,1,.57.57v1.41h1a.51.51,0,0,1,.57.57v.23a.5.5,0,0,1-.55.57h-1v2.68a1.13,1.13,0,0,0,1.11,1.29c.42,0,.57.18.57.56v.42c0,.41-.23.57-.7.57a2.48,2.48,0,0,1-2.7-2.54Z"/><path class="cls-2" d="M111.73,192.32a3.62,3.62,0,1,1-3.8,3.62A3.65,3.65,0,0,1,111.73,192.32Zm0,5.78a2.16,2.16,0,1,0-2-2.16A2.06,2.06,0,0,0,111.73,198.1Z"/><path class="cls-2" d="M116.8,193.05a.51.51,0,0,1,.56-.57h.53a.52.52,0,0,1,.57.57v.65a3,3,0,0,1,0,.48h0a2.4,2.4,0,0,1,2-1.75c.38,0,.52.19.52.57v.53a.53.53,0,0,1-.59.57c-1.26,0-1.87,1.24-1.87,2.51v2.22a.5.5,0,0,1-.55.57h-.6a.5.5,0,0,1-.56-.57Z"/><path class="cls-2" d="M125.1,192.32a3.91,3.91,0,0,1,2.27.69.51.51,0,0,1,.11.77l-.18.28c-.2.31-.43.31-.76.15a2.38,2.38,0,0,0-1.34-.43,2.06,2.06,0,0,0-2.1,2.15,2.1,2.1,0,0,0,2.15,2.17,2.73,2.73,0,0,0,1.55-.53c.34-.19.6-.15.77.18l.14.25a.53.53,0,0,1-.15.76,4.12,4.12,0,0,1-2.46.8,3.62,3.62,0,1,1,0-7.24Z"/><path class="cls-2" d="M129.17,200.7a1.06,1.06,0,0,0,.48.12,1.3,1.3,0,0,0,1.1-.92l.26-.61-2.63-6.14c-.18-.4,0-.67.43-.67h.74a.59.59,0,0,1,.63.46l1.31,3.53c.12.37.25.94.25.94h0s.12-.55.23-.91l1.22-3.54a.6.6,0,0,1,.64-.48h.68c.42,0,.6.26.46.65l-2.85,7.3a2.62,2.62,0,0,1-2.5,1.82,2.85,2.85,0,0,1-1-.2.5.5,0,0,1-.26-.74l.13-.3A.5.5,0,0,1,129.17,200.7Z"/><path class="cls-2" d="M139.14,192.32a3.9,3.9,0,0,1,2.26.69.5.5,0,0,1,.11.77l-.18.28c-.2.31-.43.31-.76.15a2.38,2.38,0,0,0-1.34-.43,2.06,2.06,0,0,0-2.1,2.15,2.1,2.1,0,0,0,2.16,2.17,2.69,2.69,0,0,0,1.54-.53c.34-.19.6-.15.78.18l.13.25a.53.53,0,0,1-.15.76,4.11,4.11,0,0,1-2.45.8,3.62,3.62,0,1,1,0-7.24Z"/><path class="cls-2" d="M142.89,190.34a.5.5,0,0,1,.56-.57h.6a.5.5,0,0,1,.55.57v6.77c0,.68.29.8.55.83a.43.43,0,0,1,.42.48v.46a.52.52,0,0,1-.57.59c-.93,0-2.11-.25-2.11-2.23Z"/><path class="cls-2" d="M149.65,192.32a3,3,0,0,1,3.06,3.3.6.6,0,0,1-.6.58H147.9a2,2,0,0,0,2.07,1.9,2.86,2.86,0,0,0,1.49-.45c.34-.16.59-.12.76.19l.17.27a.52.52,0,0,1-.19.76,4.36,4.36,0,0,1-2.35.69,3.55,3.55,0,0,1-3.72-3.62A3.41,3.41,0,0,1,149.65,192.32Zm1.35,2.83a1.4,1.4,0,0,0-1.4-1.53,1.68,1.68,0,0,0-1.66,1.53Z"/><path class="cls-2" d="M51.6,195.07a1,1,0,0,1-.92-1.25l10-30.9a2.12,2.12,0,0,1,2-1.49h0a2.11,2.11,0,0,1,2,1.49l2,6.12a.73.73,0,1,1-1.38.46l-2-6.13a.66.66,0,0,0-.65-.48h0a.66.66,0,0,0-.66.47L53,191.31l12.79-17.5A4,4,0,0,1,69,172.18h8.52a2.14,2.14,0,0,1,1.26,3.88L71,181.72l-.08.07,3,9.26a2.14,2.14,0,0,1-3.3,2.39l-6.73-4.89a2.14,2.14,0,0,1,0-3.47L69.57,181l.08-.08,8.31-6a.69.69,0,0,0,.25-.77.68.68,0,0,0-.66-.48H69a2.55,2.55,0,0,0-2,1l-14.62,20A1,1,0,0,1,51.6,195.07Zm18.1-12.38-4.93,3.57a.69.69,0,0,0,0,1.11l6.74,4.9a.67.67,0,0,0,.81,0,.68.68,0,0,0,.25-.77Z"/><path class="cls-2" d="M52.12,179.71a.7.7,0,0,1-.42-.13l-5-3.52A2.14,2.14,0,0,1,48,172.18h6.09a.73.73,0,1,1,0,1.45H48a.68.68,0,0,0-.66.48.69.69,0,0,0,.25.77l5,3.51a.74.74,0,0,1,.17,1A.72.72,0,0,1,52.12,179.71Z"/><path class="cls-2" d="M58.88,205.33a2.29,2.29,0,0,1-1.16-.31L45,197.82a.72.72,0,0,1-.37-.63v-15.5a.73.73,0,1,1,1.45,0v15.07l12.33,7a.91.91,0,0,0,.93,0l9-5.64a.74.74,0,0,1,1,.23.73.73,0,0,1-.23,1l-9,5.64A2.39,2.39,0,0,1,58.88,205.33Z"/></svg>