<svg id="Layer_1" data-name="Layer 1" xmlns="http://www.w3.org/2000/svg" viewBox="0 0 320 480"><defs><style>.cls-1{fill:none;}.cls-2{fill:#263845;}</style></defs><title>Artboard 1</title><rect class="cls-1" x="0.62" width="320" height="480"/><path class="cls-2" d="M34.59,70.55l.28.42.28,14.7c0,1.5,1.12,2.94,3.43,2.94v.21H30.87v-.21c2.32,0,3.4-1.47,3.44-2.94ZM53.14,88.82H49.25L34.62,67a3.81,3.81,0,0,0-3.71-1.78V65h9.35L53.14,84.3Zm-.07-8-.28-.39-.42-12.21c0-1.51-1.12-2.94-3.43-2.94V65h7.7v.21c-2.31,0-3.43,1.47-3.43,2.94Z"/><path class="cls-2" d="M72.28,65H79l-13.9,23.8H58.42ZM59.43,65H70l-.11.21c-5.18.28-9.31,3.85-10.19,8.22h-.28Zm8,23.59a12,12,0,0,0,10.92-9.35h.28v9.56H67.35Z"/><path class="cls-2" d="M88.73,66.14c0,2-2.17,4.72-5.67,6.16L83,72a4.85,4.85,0,0,0,2-3.39,2.2,2.2,0,0,0-2.38-2.31c.28-2.07,1.5-3.19,3.32-3.19A2.82,2.82,0,0,1,88.73,66.14Z"/><path class="cls-2" d="M95.91,84.65a1.79,1.79,0,0,0-2,1.75c0,1,.7,2.31,3.11,2.56v.21c-4.65-.18-7.21-1.44-7.21-3.47a2.73,2.73,0,0,1,3-2.59A3.58,3.58,0,0,1,95.91,84.65Zm1.15-13.47c-1.29.24-2.55.91-2.52,2.34C94.65,77.58,106,78.25,106,83.81c0,3.4-2.87,5.18-7.39,5.36V89c1.47-.25,3.12-.77,3.12-2.59,0-3.64-11.49-5-11.49-10.29,0-3.08,2.91-4.94,6.83-5.11Zm8.26,3.39c0,1.09-.84,2.17-2.59,2.17a3,3,0,0,1-3-1.68,1.55,1.55,0,0,0,1.57-1.64c0-1-1.33-2.07-2.73-2.24V71C102.56,71.18,105.32,72.61,105.32,74.57Z"/><path class="cls-2" d="M30.66,103.46A21.32,21.32,0,0,0,39,102.09v23.73c0,.88.53,1.79,2.63,1.79v.21h-11v-.21c2.1,0,2.63-.91,2.63-1.79v-20.3c0-1.26-.6-1.85-2.6-1.85Z"/><path class="cls-2" d="M43.75,119a8.67,8.67,0,0,1,8.58-9v.21c-2.06.24-2.62,2-2.62,8.68,0,5,2.24,7.8,5.35,7.8a7.62,7.62,0,0,0,5.11-1.85V125c-1.82,2.31-5.14,3.15-7.42,3.15A8.87,8.87,0,0,1,43.75,119Zm7.88-1.47c3.08,0,4.38-1,4.38-3.92,0-1.68-.7-3.22-2.28-3.43V110c4.62,0,6.86,3.29,6.86,6a10.9,10.9,0,0,1-.17,1.82H51.63Z"/><path class="cls-2" d="M63.11,123.69c0-3,2.8-4.76,6.72-4.76h3.78v.21h-1A3.46,3.46,0,0,0,68.85,123c0,1.93.56,3.4,2.21,3.4a3.83,3.83,0,0,0,2.55-1.23v.21A7.44,7.44,0,0,1,68,128.17C65.07,128.17,63.07,126.49,63.11,123.69Zm1.4-9.91c0-1.78,1.61-3.6,6.37-3.81v.21a2.55,2.55,0,0,0-2.24,2.55c0,1.26.88,2,2.28,2.14a4,4,0,0,1-3.37,1.68A2.81,2.81,0,0,1,64.51,113.78Zm10.15,10.43V113.5c0-1.71-.66-3.08-2.38-3.32V110c5.81.21,8.12,2.41,8.12,7v8.5c0,1,.35,1.44,1,1.44s1.12-.53,1.68-1.58h.21c-.56,1.93-2.45,2.84-4.55,2.84C75.92,128.17,74.66,127.19,74.66,124.21Z"/><path class="cls-2" d="M97.41,112.77v.28a3.84,3.84,0,0,0-2.9-1.3c-1.76,0-3.43.81-3.43,7.14s1.78,7.46,3.43,7.46a4.76,4.76,0,0,0,2.9-1.23v.21a6.49,6.49,0,0,1-5.08,2.84c-3.32,0-7.21-2-7.21-9.28,0-7,3.82-8.92,7.21-8.92A6.46,6.46,0,0,1,97.41,112.77Zm6.83,12.7c0,1,.31,1.44.94,1.44s1.12-.53,1.68-1.58h.21c-.56,1.93-2.45,2.84-4.55,2.84-2.8,0-4.06-1-4.06-4V105.52c0-1.26-.59-1.85-2.59-1.85v-.21a22.85,22.85,0,0,0,8.37-1.37Z"/><path class="cls-2" d="M108.54,111.3a21.3,21.3,0,0,0,8.36-1.37v15.89c0,.88.53,1.79,2.63,1.79v.21h-11v-.21c2.1,0,2.63-.91,2.63-1.79V113.36c0-1.26-.6-1.85-2.59-1.85Zm1.78-6.58c0-1.82,1.47-3,3.57-3s3.57,1.23,3.57,3-1.47,3.08-3.57,3.08S110.32,106.57,110.32,104.72Z"/><path class="cls-2" d="M121,127.61c2.1,0,2.62-.91,2.62-1.79V113.4c0-1.26-.59-1.86-2.59-1.86v-.21A21.54,21.54,0,0,0,129.4,110v15.85c0,.88.52,1.79,2.62,1.79v.21H121Zm12.32,0c2.06,0,2.59-.91,2.59-1.79V114.9c0-2-1-3-2.77-3a3.72,3.72,0,0,0-2.66,1.08v-.21a7.15,7.15,0,0,1,5.81-2.83c3.16,0,5.4,1.47,5.4,4.93v10.92c0,.88.52,1.79,2.62,1.79v.21h-11Z"/><path class="cls-2" d="M146.37,116.3c0-4.55,4.27-6.26,7.84-6.33v.21c-1.5.14-2.2,2-2.2,6,0,4.23.7,6,2.2,6.09v.21C150.68,122.5,146.37,120.82,146.37,116.3Zm9.31,20.06c3.5-.42,4.62-2.31,4.62-3.57,0-4.87-13.65-.53-13.65-6.79,0-1.44.74-2.56,2.35-3.57l.1.17a.81.81,0,0,0-.31.67c0,3.92,16-.63,16,7,0,3.6-3.11,5.95-9.07,6.3Zm-9-2.94c0-2.07,2.56-2.7,5.32-2.7a3,3,0,0,0-1.5,2.49c0,1.61,1.82,2.83,3.81,3.15v.21C150.54,136.5,146.65,135.73,146.65,133.42Zm9-11.13c1.72-.14,2.42-1.86,2.42-6.09,0-4.06-.74-5.88-2.42-6V110c3.71.07,8,1.78,8,6.33s-4.31,6.2-8,6.2Zm1.9-13c.59-1.79,2.2-4.2,4.62-4.2,1.85,0,3,1,3,2.66a2.79,2.79,0,0,1-2.83,2.73c0-1.47-.77-2.35-1.89-2.35a3.78,3.78,0,0,0-2.7,1.26Z"/><path class="cls-2" d="M186.9,127.61v.21H175.67v-.21c2.1,0,2.62-.84,2.62-1.79V106c0-1-.52-1.75-2.62-1.75V104h8.57v21.8C184.24,126.77,184.77,127.61,186.9,127.61Zm13.66-2.28c-.56,1.93-2.63,2.84-5.19,2.84-4.55,0-5.6-3.15-5.81-6.09s-.49-5.11-3.57-5.57v-.21c3.22,0,4.66-2.8,4.66-6.3,0-3.92-1.44-5.77-4.66-5.77V104c7.11,0,10.61,1.57,10.61,6,0,3.78-2.8,6.09-8,6.41,6.37.28,7.36,2.76,7.7,5.67s1.13,4.83,2.32,4.83c.63,0,1.19-.53,1.75-1.58Z"/><path class="cls-2" d="M201.11,106.05c-.63-1.37-1.43-1.82-3.15-1.82V104H210.6v.21c-1.61,0-3,1-2.17,2.87L215,121l-3.18,7.14h-.39Zm15.26,11.76c2-4.69,2.49-7.56,2.49-9.77a3.83,3.83,0,0,0-4-3.81V104H225v.14c-1.61,0-2.59,1.5-3.71,3.88l-4.76,10.08Z"/><path class="cls-2" d="M30.91,150.3a21.36,21.36,0,0,0,8.37-1.37v15.89c0,.88.52,1.79,2.62,1.79v.21h-11v-.21c2.11,0,2.63-.91,2.63-1.79V152.36c0-1.26-.59-1.85-2.59-1.85Zm1.79-6.58c0-1.82,1.47-3.05,3.57-3.05s3.57,1.23,3.57,3.05-1.47,3.08-3.57,3.08S32.7,145.57,32.7,143.72Z"/><path class="cls-2" d="M43.37,166.61c2.1,0,2.62-.91,2.62-1.79V152.4c0-1.26-.59-1.86-2.59-1.86v-.21A21.54,21.54,0,0,0,51.77,149v15.85c0,.88.53,1.79,2.63,1.79v.21h-11Zm12.32,0c2.07,0,2.59-.91,2.59-1.79V153.9c0-2-1-3-2.76-3A3.72,3.72,0,0,0,52.86,152v-.21A7.14,7.14,0,0,1,58.67,149c3.15,0,5.39,1.47,5.39,4.93v10.92c0,.88.52,1.79,2.62,1.79v.21h-11Z"/><path class="cls-2" d="M74.66,162.65a1.79,1.79,0,0,0-2,1.75c0,1,.7,2.31,3.12,2.56v.21c-4.66-.18-7.22-1.44-7.22-3.47a2.73,2.73,0,0,1,3-2.59A3.58,3.58,0,0,1,74.66,162.65Zm1.16-13.47c-1.3.24-2.56.91-2.53,2.34.11,4.06,11.45,4.73,11.45,10.29,0,3.4-2.87,5.18-7.38,5.36V167c1.47-.25,3.11-.77,3.11-2.59,0-3.64-11.48-5-11.48-10.29,0-3.08,2.9-4.94,6.83-5.11Zm8.26,3.39c0,1.09-.84,2.17-2.59,2.17a3,3,0,0,1-3-1.68,1.56,1.56,0,0,0,1.58-1.64c0-1-1.33-2.07-2.73-2.24V149C81.31,149.18,84.08,150.61,84.08,152.57Z"/><path class="cls-2" d="M95.06,162.23c0,2,.67,3,2.42,3a3.1,3.1,0,0,0,2.42-1.09v.21a5.85,5.85,0,0,1-5.43,2.84c-3.15,0-5.18-1.47-5.18-4.94V152.4c0-1.26-.6-1.86-2.59-1.86v-.21A21.49,21.49,0,0,0,95.06,149Zm11.66,2.24c0,1,.32,1.44,1,1.44s1.12-.53,1.68-1.58h.21c-.56,1.93-2.45,2.84-4.76,2.84s-3.85-1.4-3.85-3.43V152.4c0-1.26-.6-1.86-2.49-1.86v-.21a22.86,22.86,0,0,0,8.26-1.36Z"/><path class="cls-2" d="M119.35,164.82c0,.88.53,1.79,2.63,1.79v.21H111v-.21c2.1,0,2.63-.91,2.63-1.79V152.4c0-1.26-.6-1.86-2.59-1.86v-.21a21.49,21.49,0,0,0,8.36-1.36Zm9.46-12.07a3.75,3.75,0,0,1-3.61,4,2.4,2.4,0,0,1-2-.77,2.56,2.56,0,0,0,1.37-2.38,1.85,1.85,0,0,0-2-1.89,2.39,2.39,0,0,0-2.1,1.33v-.28a4.85,4.85,0,0,1,4.55-3.78A3.55,3.55,0,0,1,128.81,152.75Z"/><path class="cls-2" d="M130.31,162.69c0-3.05,2.8-4.76,6.72-4.76h3.78v.21h-1.05a3.46,3.46,0,0,0-3.71,3.81c0,1.93.56,3.4,2.2,3.4a3.84,3.84,0,0,0,2.56-1.23v.21a7.44,7.44,0,0,1-5.57,2.84C132.27,167.17,130.27,165.49,130.31,162.69Zm1.4-9.91c0-1.78,1.61-3.6,6.37-3.81v.21a2.55,2.55,0,0,0-2.24,2.55c0,1.26.87,2,2.28,2.14a4,4,0,0,1-3.37,1.68A2.81,2.81,0,0,1,131.71,152.78Zm10.15,10.43V152.5c0-1.71-.66-3.08-2.38-3.32V149c5.81.21,8.12,2.41,8.12,7v8.5c0,1,.35,1.44,1,1.44s1.12-.53,1.68-1.58h.21c-.56,1.93-2.45,2.84-4.55,2.84C143.12,167.17,141.86,166.19,141.86,163.21Z"/><path class="cls-2" d="M151.55,166.61c2.1,0,2.63-.91,2.63-1.79V152.4c0-1.26-.6-1.86-2.59-1.86v-.21A21.49,21.49,0,0,0,160,149v15.85c0,.88.53,1.79,2.63,1.79v.21h-11Zm12.32,0c2.07,0,2.6-.91,2.6-1.79V153.9c0-2-1-3-2.77-3A3.72,3.72,0,0,0,161,152v-.21a7.14,7.14,0,0,1,5.81-2.83c3.15,0,5.39,1.47,5.39,4.93v10.92c0,.88.53,1.79,2.63,1.79v.21h-11Z"/><path class="cls-2" d="M185.71,149.18c-2.06.24-3,2-3,8.68,0,5,2.55,7.8,5.67,7.8a7.64,7.64,0,0,0,5.11-1.85V164c-1.82,2.31-5.15,3.15-7.42,3.15a9.15,9.15,0,0,1-9.35-9.17,9,9,0,0,1,9-9Zm7.78,3.74a3.26,3.26,0,0,1-3.51,3.36,3,3,0,0,1-3-2.2,3,3,0,0,0,1.68-2.56,2.08,2.08,0,0,0-1.51-2.31V149C191.7,149,193.49,150.93,193.49,152.92Z"/><path class="cls-2" d="M196.11,158a8.66,8.66,0,0,1,8.57-9v.21c-2.06.24-2.62,2-2.62,8.68,0,5,2.24,7.8,5.35,7.8a7.66,7.66,0,0,0,5.12-1.85V164c-1.83,2.31-5.15,3.15-7.43,3.15A8.87,8.87,0,0,1,196.11,158Zm7.87-1.47c3.08,0,4.38-1,4.38-3.92,0-1.68-.7-3.22-2.28-3.43V149c4.62,0,6.87,3.29,6.87,5.95a10.9,10.9,0,0,1-.18,1.82H204Z"/></svg>