<svg id="Layer_1" data-name="Layer 1" xmlns="http://www.w3.org/2000/svg" viewBox="0 0 320 480"><defs><style>.cls-1{fill:#fff;}</style></defs><title>Artboard 1 copy 2</title><path class="cls-1" d="M52.79,82.73l.14.28a9.62,9.62,0,0,1-8.44,4.23c-5.7,0-12.81-4.06-12.81-12.21,0-8.86,6.93-12.15,12-12.29V63c-2.45.53-5.11,2.83-5.11,11.83s3.61,11.06,7.56,11.06A8.61,8.61,0,0,0,52.79,82.73Zm.28-20v8.51h-.28c-1.37-4.66-4-7.35-7.39-8.3v-.21c3.05.14,4.9.66,6.34,1.61l1-1.61Z"/><path class="cls-1" d="M55.72,82.76c0-3,2.8-4.76,6.72-4.76h3.79v.21h-1c-2.52,0-3.71,1.65-3.71,3.82,0,1.92.55,3.39,2.2,3.39a3.84,3.84,0,0,0,2.56-1.22v.21a7.45,7.45,0,0,1-5.57,2.83C57.68,87.24,55.69,85.56,55.72,82.76Zm1.4-9.9c0-1.79,1.61-3.61,6.38-3.82v.21a2.56,2.56,0,0,0-2.24,2.56c0,1.26.87,2,2.27,2.13a3.93,3.93,0,0,1-3.36,1.68A2.81,2.81,0,0,1,57.12,72.86ZM67.28,83.29V72.58c0-1.72-.67-3.08-2.38-3.33V69c5.81.21,8.12,2.42,8.12,7v8.51c0,1,.35,1.43,1,1.43s1.12-.52,1.68-1.57h.21c-.56,1.92-2.45,2.83-4.55,2.83C68.54,87.24,67.28,86.26,67.28,83.29Z"/><path class="cls-1" d="M76.79,62.53a21.32,21.32,0,0,0,8.37-1.37V84.9c0,.87.52,1.78,2.63,1.78v.21h-11v-.21c2.1,0,2.62-.91,2.62-1.78V64.6c0-1.27-.59-1.86-2.59-1.86Z"/><path class="cls-1" d="M89.08,62.53a21.3,21.3,0,0,0,8.36-1.37V84.9c0,.87.53,1.78,2.63,1.78v.21H89v-.21c2.1,0,2.63-.91,2.63-1.78V64.6c0-1.27-.6-1.86-2.59-1.86Z"/><path class="cls-1" d="M110.18,70.83a1.87,1.87,0,0,0-1.92-1.23v-.21h9.8v.21c-1.22,0-1.71.84-1.12,2.07l4.59,9.55-3,5.67h-.21Zm-1.54,21.7c0-1.51,1.2-2.77,3.08-3.29a2.74,2.74,0,0,0-.13.87,2,2,0,0,0,2.06,2.35c1.22,0,2.2-1.3,3.53-3.54h.25c-1.92,3.61-3.25,6.72-5.71,6.72A2.91,2.91,0,0,1,108.64,92.53ZM123,77.79a9.64,9.64,0,0,0,1-4.51,3.39,3.39,0,0,0-3.57-3.68v-.21h8.71v.21c-1.15,0-1.61.46-2.27,1.65l-3.64,6.86Z"/><path class="cls-1" d="M138,69.25c-2.07.25-2.76,2-2.76,8.82,0,6.58.69,8.75,2.76,9v.21a8.92,8.92,0,0,1-8.72-9.17A8.78,8.78,0,0,1,138,69Zm10.08,8.82a8.91,8.91,0,0,1-8.68,9.17V87c2.07-.21,2.73-2.41,2.73-9,0-6.86-.7-8.61-2.73-8.82V69A8.72,8.72,0,0,1,148.09,78.07Z"/><path class="cls-1" d="M158.42,82.31c0,2,.66,3,2.41,3a3.11,3.11,0,0,0,2.42-1.08v.21a5.85,5.85,0,0,1-5.43,2.83c-3.15,0-5.18-1.47-5.18-4.93V72.47c0-1.26-.6-1.85-2.59-1.85v-.21A21.39,21.39,0,0,0,158.42,69Zm11.65,2.24c0,1,.32,1.43,1,1.43s1.12-.52,1.68-1.57h.21c-.56,1.92-2.45,2.83-4.76,2.83s-3.85-1.4-3.85-3.43V72.47c0-1.26-.6-1.85-2.49-1.85v-.21A22.65,22.65,0,0,0,170.07,69Z"/><path class="cls-1" d="M182.7,84.9c0,.87.53,1.78,2.63,1.78v.21h-11v-.21c2.1,0,2.63-.91,2.63-1.78V72.47c0-1.26-.6-1.85-2.59-1.85v-.21A21.3,21.3,0,0,0,182.7,69Zm9.46-12.08a3.75,3.75,0,0,1-3.61,4,2.36,2.36,0,0,1-2-.77,2.56,2.56,0,0,0,1.36-2.38,1.86,1.86,0,0,0-2-1.89,2.41,2.41,0,0,0-2.1,1.33v-.28A4.84,4.84,0,0,1,188.41,69,3.55,3.55,0,0,1,192.16,72.82Z"/><path class="cls-1" d="M38.65,121.48c0,3.33-2.28,4.76-5.78,4.76V103.6c0-1.27-.63-1.86-2.62-1.86v-.21a23,23,0,0,0,8.4-1.37ZM52,117c0,7.31-3.88,9.27-7.21,9.27a6.48,6.48,0,0,1-5.07-2.83v-.21a4.81,4.81,0,0,0,2.9,1.22c1.65,0,3.43-1.15,3.43-7.45s-1.68-7.14-3.43-7.14a3.86,3.86,0,0,0-2.9,1.29v-.28a6.45,6.45,0,0,1,5.07-2.8C48.17,108,52,110,52,117Z"/><path class="cls-1" d="M62.83,123.9c0,.87.53,1.78,2.63,1.78v.21h-11v-.21c2.1,0,2.63-.91,2.63-1.78V111.47c0-1.26-.6-1.85-2.6-1.85v-.21A21.32,21.32,0,0,0,62.83,108Zm9.45-12.08a3.74,3.74,0,0,1-3.6,4,2.39,2.39,0,0,1-2-.77,2.55,2.55,0,0,0,1.37-2.38,1.86,1.86,0,0,0-2-1.89A2.41,2.41,0,0,0,64,112.1v-.28A4.84,4.84,0,0,1,68.54,108,3.55,3.55,0,0,1,72.28,111.82Z"/><path class="cls-1" d="M82.89,108.25c-2.07.25-2.77,2-2.77,8.82,0,6.58.7,8.75,2.77,9v.21a8.92,8.92,0,0,1-8.72-9.17,8.78,8.78,0,0,1,8.72-9ZM93,117.07a8.92,8.92,0,0,1-8.68,9.17V126c2.06-.21,2.73-2.41,2.73-9,0-6.86-.7-8.61-2.73-8.82V108A8.72,8.72,0,0,1,93,117.07Z"/><path class="cls-1" d="M106.09,125.68v.21h-11v-.21c2.1,0,2.63-.91,2.63-1.78V103.6c0-1.27-.6-1.86-2.59-1.86v-.21a21.3,21.3,0,0,0,8.36-1.37V123.9C103.46,124.77,104,125.68,106.09,125.68Zm11.87,0v.21a13.81,13.81,0,0,1-3.5.35,6.6,6.6,0,0,1-6.34-3.39l-3.29-5.5c2.77-2.41,5.35-5.35,5.35-7.14,0-.94-.45-1.61-2.06-1.61v-.21h9v.21a3.17,3.17,0,0,0-2,.63l-6.4,5.08,6,9.38A3.62,3.62,0,0,0,118,125.68Z"/><path class="cls-1" d="M118.16,117.07a8.67,8.67,0,0,1,8.58-9v.21c-2.06.25-2.63,2-2.63,8.68,0,5,2.24,7.81,5.36,7.81a7.58,7.58,0,0,0,5.11-1.86v.21c-1.82,2.31-5.15,3.15-7.42,3.15A8.87,8.87,0,0,1,118.16,117.07ZM126,115.6c3.08,0,4.38-1,4.38-3.92,0-1.68-.7-3.22-2.28-3.43V108c4.62,0,6.86,3.29,6.86,5.95a10.8,10.8,0,0,1-.17,1.82H126Z"/><path class="cls-1" d="M145.64,123.9c0,.87.53,1.78,2.63,1.78v.21h-11v-.21c2.1,0,2.62-.91,2.62-1.78V111.47c0-1.26-.59-1.85-2.59-1.85v-.21a21.36,21.36,0,0,0,8.37-1.37Zm9.45-12.08a3.74,3.74,0,0,1-3.6,4,2.39,2.39,0,0,1-2-.77,2.54,2.54,0,0,0,1.36-2.38,1.86,1.86,0,0,0-2-1.89,2.43,2.43,0,0,0-2.1,1.33v-.28a4.86,4.86,0,0,1,4.56-3.78A3.55,3.55,0,0,1,155.09,111.82Z"/><path class="cls-1" d="M176.72,109.3l-.38.53H172.9V123.9c0,.87.56,1.78,2.66,1.78v.21H164.5v-.21c2.1,0,2.63-.91,2.63-1.78V109.83h-2.28l.39-.53h1.89v-1.57c0-5,2.59-7.08,5.81-7.57v.21c-1.19.46-2.07,1.58-2.07,3.71S172.24,109.3,176.72,109.3Zm3-5.36a3,3,0,0,1-3,3.08,3.63,3.63,0,0,1-3.54-2.34,2.21,2.21,0,0,0,2.49-2.24,2,2,0,0,0-1.26-2.07v-.21C178.05,100.3,179.69,102,179.69,103.94Z"/><path class="cls-1" d="M187.08,108.25c-2.06.25-2.77,2-2.77,8.82,0,6.58.71,8.75,2.77,9v.21a8.92,8.92,0,0,1-8.72-9.17,8.78,8.78,0,0,1,8.72-9Zm10.08,8.82a8.91,8.91,0,0,1-8.68,9.17V126c2.06-.21,2.73-2.41,2.73-9,0-6.86-.7-8.61-2.73-8.82V108A8.72,8.72,0,0,1,197.16,117.07Z"/><path class="cls-1" d="M207.87,123.9c0,.87.52,1.78,2.62,1.78v.21h-11v-.21c2.1,0,2.62-.91,2.62-1.78V111.47c0-1.26-.59-1.85-2.59-1.85v-.21a21.36,21.36,0,0,0,8.37-1.37Zm9.45-12.08a3.75,3.75,0,0,1-3.61,4,2.37,2.37,0,0,1-2-.77,2.56,2.56,0,0,0,1.36-2.38,1.86,1.86,0,0,0-2-1.89,2.42,2.42,0,0,0-2.1,1.33v-.28a4.85,4.85,0,0,1,4.55-3.78A3.55,3.55,0,0,1,217.32,111.82Z"/><path class="cls-1" d="M31.12,160.76c0-3,2.8-4.76,6.72-4.76h3.78v.21h-1c-2.52,0-3.71,1.65-3.71,3.82,0,1.92.56,3.39,2.21,3.39a3.82,3.82,0,0,0,2.55-1.22v.21a7.43,7.43,0,0,1-5.56,2.83C33.08,165.24,31.09,163.56,31.12,160.76Zm1.4-9.9c0-1.79,1.61-3.61,6.37-3.82v.21a2.56,2.56,0,0,0-2.24,2.56c0,1.26.88,2,2.28,2.13a3.94,3.94,0,0,1-3.36,1.68A2.8,2.8,0,0,1,32.52,150.86Zm10.15,10.43V150.58c0-1.72-.66-3.08-2.38-3.33V147c5.81.21,8.12,2.42,8.12,7v8.51c0,1,.35,1.43,1,1.43s1.12-.52,1.68-1.57h.21c-.56,1.92-2.45,2.83-4.55,2.83C43.93,165.24,42.67,164.26,42.67,161.29Z"/><path class="cls-1" d="M74.31,149.84v.28a3.93,3.93,0,0,0-2.94-1.29c-1.75,0-3.39.8-3.39,7.14s1.75,7.45,3.39,7.45a4.92,4.92,0,0,0,2.94-1.22v.21a6.54,6.54,0,0,1-5.11,2.83c-3.33,0-7.18-2-7.18-9.27,0-7,3.79-8.93,7.18-8.93A6.51,6.51,0,0,1,74.31,149.84Zm6.83,20.37c0,1.26.59,1.86,2.59,1.86v.21a23.06,23.06,0,0,0-8.37,1.36v-25.3A22.57,22.57,0,0,0,81.14,147Z"/><path class="cls-1" d="M92.86,160.31c0,2,.66,3,2.41,3a3.11,3.11,0,0,0,2.42-1.08v.21a5.83,5.83,0,0,1-5.42,2.83c-3.16,0-5.18-1.47-5.18-4.93v-9.84c0-1.26-.6-1.85-2.6-1.85v-.21A21.36,21.36,0,0,0,92.86,147Zm11.66,2.24c0,1,.31,1.43.94,1.43s1.12-.52,1.68-1.57h.21c-.56,1.92-2.45,2.83-4.76,2.83s-3.85-1.4-3.85-3.43V150.47c0-1.26-.59-1.85-2.48-1.85v-.21a22.65,22.65,0,0,0,8.26-1.37Z"/><path class="cls-1" d="M118.1,147.25c-2.07.25-2.77,2-2.77,8.82,0,6.58.7,8.75,2.77,9v.21a8.92,8.92,0,0,1-8.72-9.17,8.78,8.78,0,0,1,8.72-9Zm10.08,8.82a8.92,8.92,0,0,1-8.68,9.17V165c2.06-.21,2.73-2.41,2.73-9,0-6.86-.71-8.61-2.73-8.82V147A8.72,8.72,0,0,1,128.18,156.07Z"/><path class="cls-1" d="M144.07,162.2v.21a7.35,7.35,0,0,1-6,2.83c-3.15,0-5.39-1.43-5.39-4.93V148.83h-1.82l.38-.53h1.44v-3.78a8.87,8.87,0,0,0,5.74-2v5.74h4.73l-.39.53h-4.34v11.58c0,1.75.67,3.57,2.31,3.57A5.2,5.2,0,0,0,144.07,162.2Z"/><path class="cls-1" d="M145.36,156.07a8.67,8.67,0,0,1,8.57-9v.21c-2.06.25-2.62,2-2.62,8.68,0,5,2.24,7.81,5.36,7.81a7.57,7.57,0,0,0,5.1-1.86v.21c-1.81,2.31-5.14,3.15-7.42,3.15A8.87,8.87,0,0,1,145.36,156.07Zm7.87-1.47c3.08,0,4.38-1,4.38-3.92,0-1.68-.7-3.22-2.27-3.43V147c4.62,0,6.86,3.29,6.86,6a9.85,9.85,0,0,1-.18,1.82h-8.79Z"/></svg>