<?xml version="1.0" encoding="utf-8"?>
<!-- Generator: Adobe Illustrator 24.0.3, SVG Export Plug-In . SVG Version: 6.00 Build 0)  -->
<svg version="1.1" id="Layer_1" xmlns="http://www.w3.org/2000/svg" xmlns:xlink="http://www.w3.org/1999/xlink" x="0px" y="0px"
	 viewBox="0 0 320 480" style="enable-background:new 0 0 320 480;" xml:space="preserve">
<style type="text/css">
	.st0{enable-background:new    ;}
	.st1{fill:#FFFFFF;}
</style>
<title>Artboard 1 copy</title>
<g class="st0">
	<path class="st1" d="M13.9,55.1c2.3,0,2.9-0.9,2.9-2V31.2c0-1.1-0.6-2-2.9-2V29h9.5v24.1c0,1.1,0.6,2,2.9,2v0.2H13.9V55.1z
		 M25.3,29.2V29H36v7.8h-0.3C33.9,31.2,31.2,29.6,25.3,29.2z M27.5,42.4l-2.1-0.2V42l2.1-0.2c2.3-0.2,3.8-1.1,5.1-3.3h0.3v7.2h-0.3
		C31.3,43.5,29.8,42.6,27.5,42.4z"/>
</g>
<g class="st0">
	<path class="st1" d="M47.3,53.1c0,1,0.6,2,2.9,2v0.2H38v-0.2c2.3,0,2.9-1,2.9-2V39.4c0-1.4-0.7-2.1-2.9-2.1v-0.2
		c3.6,0,6.5-0.4,9.3-1.5V53.1z M57.7,39.8c0,2.7-1.9,4.4-4,4.4c-0.9,0-1.7-0.2-2.2-0.9c0.7-0.4,1.5-1.2,1.5-2.6
		c0-1.1-0.8-2.1-2.2-2.1c-1,0-1.8,0.6-2.3,1.5v-0.3c0.7-2.5,2.6-4.2,5-4.2C56.3,35.6,57.7,37.4,57.7,39.8z"/>
</g>
<g class="st0">
	<path class="st1" d="M69.5,35.8c-2.3,0.3-3.1,2.2-3.1,9.8c0,7.3,0.8,9.7,3.1,9.9v0.2c-4.5,0-9.7-3.6-9.7-10.2c0-6.5,5.1-10,9.7-10
		V35.8z M80.7,45.6c0,6.5-5.2,10.2-9.6,10.2v-0.2c2.3-0.2,3-2.7,3-9.9c0-7.6-0.8-9.5-3-9.8v-0.2C75.5,35.6,80.7,39,80.7,45.6z"/>
	<path class="st1" d="M92.5,53.1c0,1,0.6,2,2.9,2v0.2H83.2v-0.2c2.3,0,2.9-1,2.9-2V39.4c0-1.4-0.7-2.1-2.9-2.1v-0.2
		c3.6,0,6.5-0.4,9.3-1.5V53.1z M105.4,41v12.1c0,1,0.5,2,2.9,2v0.2H96.1v-0.2c2.3,0,2.9-1,2.9-2V41c0-2.2-0.9-3.3-2.7-3.3
		c-1.1,0-2.1,0.5-2.6,1.2v-0.2c0.9-1.6,2.8-3.1,5.7-3.1C103.1,35.6,105.4,37.2,105.4,41z M118.2,41v12.1c0,1,0.6,2,2.9,2v0.2h-12.2
		v-0.2c2.3,0,2.9-1,2.9-2V41c0-2.2-0.9-3.3-2.7-3.3c-1.1,0-2.1,0.5-2.6,1.2v-0.2c0.9-1.6,2.8-3.1,5.7-3.1
		C115.9,35.6,118.2,37.2,118.2,41z"/>
</g>
<g class="st0">
	<path class="st1" d="M20.6,89.5c-1.3,0-2.2,0.8-2.2,1.9c0,1.1,0.8,2.6,3.4,2.8v0.2c-5.2-0.2-8-1.6-8-3.8c0-1.8,1.6-2.9,3.3-2.9
		C18.8,87.8,20,88.5,20.6,89.5z M21.9,74.6c-1.4,0.3-2.8,1-2.8,2.6c0.1,4.5,12.7,5.2,12.7,11.4c0,3.8-3.2,5.7-8.2,5.9v-0.2
		c1.6-0.3,3.4-0.9,3.4-2.9c0-4-12.7-5.5-12.7-11.4c0-3.4,3.2-5.5,7.6-5.7V74.6z M31,78.3c0,1.2-0.9,2.4-2.9,2.4
		c-1.6,0-2.8-0.7-3.3-1.9c1.2-0.1,1.8-0.9,1.7-1.8c0-1.2-1.5-2.3-3-2.5v-0.2C28,74.6,31,76.2,31,78.3z"/>
	<path class="st1" d="M43.3,100c0,1.4,0.7,2.1,2.9,2.1v0.2c-3.6,0-6,0.4-9.3,1.5V78.1c0-1.4-0.7-2.1-2.9-2.1v-0.2
		c3.6,0,6-0.4,9.3-1.5V100z M58.1,84.2c0,8.1-4.3,10.3-7.9,10.3c-2.2,0-4.7-1.5-5.7-3.1v-0.2c1,0.7,2,1.4,3.3,1.4
		c1.8,0,3.8-1.3,3.8-8.3c0-7-1.8-7.9-3.8-7.9c-1.2,0-2.4,0.5-3.3,1.4v-0.3c1-1.6,3.4-3.1,5.7-3.1C53.9,74.3,58.1,76.5,58.1,84.2z"/>
	<path class="st1" d="M61.5,84.3c0-6.5,5-10,9.5-10v0.2c-2.3,0.3-2.9,2.2-2.9,9.6c0,5.6,2.5,8.6,5.9,8.6c2.2,0,3.8-0.6,5.7-2.1V91
		c-2,2.6-5.7,3.5-8.2,3.5C66.5,94.5,61.5,90.9,61.5,84.3z M70.2,82.7c3.4,0,4.8-1.1,4.8-4.3c0-1.9-0.8-3.6-2.5-3.8v-0.2
		c5.1,0,7.6,3.6,7.6,6.6c0,0.6-0.1,1.4-0.2,2h-9.7V82.7z"/>
	<path class="st1" d="M93.2,74.6c-2.3,0.3-3.3,2.2-3.3,9.6c0,5.6,2.8,8.6,6.3,8.6c2.2,0,3.8-0.6,5.7-2.1V91c-2,2.6-5.7,3.5-8.2,3.5
		c-5,0-10.3-3.6-10.3-10.2c0-6.5,5.4-10,9.9-10V74.6z M101.8,78.7c0,2.1-1.4,3.7-3.9,3.7c-1.9,0-3.1-1.2-3.4-2.4
		c1.1-0.4,1.9-1.8,1.9-2.8c0-0.9-0.2-2.3-1.7-2.6v-0.3C99.8,74.3,101.8,76.5,101.8,78.7z"/>
	<path class="st1" d="M104.1,75.8c3.6,0,6.5-0.4,9.3-1.5v17.6c0,1,0.6,2,2.9,2v0.2h-12.2v-0.2c2.3,0,2.9-1,2.9-2V78.1
		c0-1.4-0.7-2.1-2.9-2.1V75.8z M106.1,68.5c0-2,1.6-3.4,4-3.4c2.3,0,4,1.4,4,3.4c0,2.1-1.6,3.4-4,3.4
		C107.7,71.9,106.1,70.6,106.1,68.5z"/>
	<path class="st1" d="M118.2,89.5c0-3.4,3.1-5.3,7.4-5.3h4.2v0.2h-1.2c-2.8,0-4.1,1.8-4.1,4.2c0,2.1,0.6,3.8,2.4,3.8
		c1.1,0,2-0.6,2.8-1.4v0.2c-1.3,1.5-3.3,3.1-6.2,3.1C120.4,94.5,118.2,92.6,118.2,89.5z M119.8,78.6c0-2,1.8-4,7.1-4.2v0.2
		c-1.5,0.2-2.5,1.5-2.5,2.8c0,1.4,1,2.2,2.5,2.4c-0.6,1.1-2.2,1.9-3.7,1.9C121,81.6,119.8,80.2,119.8,78.6z M131,90.1V78.3
		c0-1.9-0.7-3.4-2.6-3.7v-0.2c6.4,0.2,9,2.7,9,7.8v9.4c0,1.1,0.4,1.6,1.1,1.6c0.6,0,1.2-0.6,1.9-1.7h0.2c-0.6,2.1-2.7,3.1-5,3.1
		C132.4,94.5,131,93.4,131,90.1z"/>
	<path class="st1" d="M141.5,67.1c3.6,0,6.5-0.4,9.3-1.5v26.3c0,1,0.6,2,2.9,2v0.2h-12.2v-0.2c2.3,0,2.9-1,2.9-2V69.4
		c0-1.4-0.7-2.1-2.9-2.1V67.1z"/>
	<path class="st1" d="M155.4,75.8c3.6,0,6.5-0.4,9.3-1.5v17.6c0,1,0.6,2,2.9,2v0.2h-12.2v-0.2c2.3,0,2.9-1,2.9-2V78.1
		c0-1.4-0.7-2.1-2.9-2.1V75.8z M157.4,68.5c0-2,1.6-3.4,4-3.4c2.3,0,4,1.4,4,3.4c0,2.1-1.6,3.4-4,3.4
		C159,71.9,157.4,70.6,157.4,68.5z"/>
	<path class="st1" d="M176.7,89.5c-1.3,0-2.2,0.8-2.2,1.9c0,1.1,0.8,2.6,3.4,2.8v0.2c-5.2-0.2-8-1.6-8-3.8c0-1.8,1.6-2.9,3.3-2.9
		C174.8,87.8,176.1,88.5,176.7,89.5z M177.9,74.6c-1.4,0.3-2.8,1-2.8,2.6c0.1,4.5,12.7,5.2,12.7,11.4c0,3.8-3.2,5.7-8.2,5.9v-0.2
		c1.6-0.3,3.4-0.9,3.4-2.9c0-4-12.7-5.5-12.7-11.4c0-3.4,3.2-5.5,7.6-5.7V74.6z M187.1,78.3c0,1.2-0.9,2.4-2.9,2.4
		c-1.6,0-2.8-0.7-3.3-1.9c1.2-0.1,1.8-0.9,1.7-1.8c0-1.2-1.5-2.3-3-2.5v-0.2C184,74.6,187.1,76.2,187.1,78.3z"/>
	<path class="st1" d="M205.4,91.1v0.2c-1.2,1.8-3.7,3.1-6.6,3.1c-3.5,0-6-1.6-6-5.5V76.3h-2l0.4-0.6h1.6v-4.2c2.4,0,4.7-0.7,6.4-2.2
		v6.4h5.2l-0.4,0.6h-4.8v12.8c0,1.9,0.7,4,2.6,4C202.8,93.1,204.1,92.4,205.4,91.1z"/>
	<path class="st1" d="M213.8,89.5c-1.3,0-2.2,0.8-2.2,1.9c0,1.1,0.8,2.6,3.4,2.8v0.2c-5.2-0.2-8-1.6-8-3.8c0-1.8,1.6-2.9,3.3-2.9
		C211.9,87.8,213.2,88.5,213.8,89.5z M215.1,74.6c-1.4,0.3-2.8,1-2.8,2.6c0.1,4.5,12.7,5.2,12.7,11.4c0,3.8-3.2,5.7-8.2,5.9v-0.2
		c1.6-0.3,3.4-0.9,3.4-2.9c0-4-12.7-5.5-12.7-11.4c0-3.4,3.2-5.5,7.6-5.7V74.6z M224.2,78.3c0,1.2-0.9,2.4-2.9,2.4
		c-1.6,0-2.8-0.7-3.3-1.9c1.2-0.1,1.8-0.9,1.7-1.8c0-1.2-1.5-2.3-3-2.5v-0.2C221.2,74.6,224.2,76.2,224.2,78.3z"/>
</g>
<g class="st0">
	<path class="st1" d="M236.7,91.1c0,2.7-2.9,6.3-7.6,8.3l-0.2-0.4c1.4-1.1,2.7-2.9,2.7-4.6c0-2.1-1.5-3.1-3.2-3.1
		c0.4-2.8,2-4.3,4.5-4.3C234.9,87,236.7,88.4,236.7,91.1z"/>
</g>
<g class="st0">
	<path class="st1" d="M23.8,133v0.2c-3.1-0.1-5.5-0.7-7.5-1.9l-1.3,1.9h-0.3v-9.5H15C16.2,128.2,19,131.4,23.8,133z M35.1,125.3
		c0,5-3.7,7.7-9.7,7.9V133c2.1-0.4,4.2-1.6,4.2-4c0-6.8-14.8-7.4-14.8-15.3c0-4.7,3.8-7.3,8.9-7.7v0.2c-1.8,0.3-3.4,1.4-3.4,3.6
		C20.3,116.7,35.1,117.5,35.1,125.3z M25.4,106.4v-0.2c2.9,0.1,5.2,0.8,7,2.1l1.4-2.1h0.3v8.6h-0.3
		C32.5,110.7,29.2,107.3,25.4,106.4z"/>
</g>
<g class="st0">
	<path class="st1" d="M52.8,129.9v0.2c-1.2,1.8-3.7,3.1-6.6,3.1c-3.5,0-6-1.6-6-5.5v-12.7h-2l0.4-0.6h1.6v-4.2
		c2.4,0,4.7-0.7,6.4-2.2v6.4h5.2l-0.4,0.6h-4.8v12.8c0,1.9,0.7,4,2.6,4C50.2,131.9,51.5,131.2,52.8,129.9z"/>
	<path class="st1" d="M54.1,128.3c0-3.4,3.1-5.3,7.4-5.3h4.2v0.2h-1.2c-2.8,0-4.1,1.8-4.1,4.2c0,2.1,0.6,3.8,2.4,3.8
		c1.1,0,2-0.6,2.8-1.4v0.2c-1.3,1.5-3.3,3.1-6.2,3.1C56.2,133.3,54,131.4,54.1,128.3z M55.6,117.3c0-2,1.8-4,7.1-4.2v0.2
		c-1.6,0.2-2.5,1.5-2.5,2.8c0,1.4,1,2.2,2.5,2.4c-0.6,1.1-2.2,1.9-3.7,1.9C56.9,120.4,55.6,119,55.6,117.3z M66.9,128.9V117
		c0-1.9-0.7-3.4-2.6-3.7v-0.2c6.4,0.2,9,2.7,9,7.8v9.4c0,1.1,0.4,1.6,1.1,1.6c0.6,0,1.2-0.6,1.9-1.7h0.2c-0.6,2.1-2.7,3.1-5,3.1
		C68.3,133.3,66.9,132.2,66.9,128.9z"/>
</g>
<g class="st0">
	<path class="st1" d="M86.9,130.7c0,1,0.6,2,2.9,2v0.2H77.6v-0.2c2.3,0,2.9-1,2.9-2v-13.8c0-1.4-0.7-2.1-2.9-2.1v-0.2
		c3.6,0,6.5-0.4,9.3-1.5V130.7z M97.4,117.3c0,2.7-1.9,4.4-4,4.4c-0.9,0-1.7-0.2-2.2-0.9c0.7-0.4,1.5-1.2,1.5-2.6
		c0-1.1-0.8-2.1-2.2-2.1c-1,0-1.8,0.6-2.3,1.5v-0.3c0.7-2.5,2.6-4.2,5-4.2C95.9,113.1,97.4,115,97.4,117.3z"/>
</g>
<g class="st0">
	<path class="st1" d="M37.5,167l0.2,0.3c-2,3.2-5.6,4.7-9.3,4.7c-6.3,0-14.2-4.5-14.2-13.5c0-9.8,7.7-13.4,13.3-13.6v0.2
		c-2.7,0.6-5.7,3.1-5.7,13.1c0,9.9,4,12.2,8.4,12.2C33.6,170.5,36.1,168.7,37.5,167z M37.8,144.9v9.4h-0.3c-1.5-5.2-4.4-8.1-8.2-9.2
		v-0.2c3.4,0.2,5.4,0.7,7,1.8l1.2-1.8H37.8z"/>
	<path class="st1" d="M40.7,167.1c0-3.4,3.1-5.3,7.4-5.3h4.2v0.2h-1.2c-2.8,0-4.1,1.8-4.1,4.2c0,2.1,0.6,3.8,2.4,3.8
		c1.1,0,2-0.6,2.8-1.4v0.2c-1.3,1.5-3.3,3.1-6.2,3.1C42.9,172,40.7,170.2,40.7,167.1z M42.3,156.1c0-2,1.8-4,7.1-4.2v0.2
		c-1.6,0.2-2.5,1.5-2.5,2.8c0,1.4,1,2.2,2.5,2.4c-0.6,1.1-2.2,1.9-3.7,1.9C43.5,159.2,42.3,157.7,42.3,156.1z M53.5,167.6v-11.9
		c0-1.9-0.7-3.4-2.6-3.7v-0.2c6.4,0.2,9,2.7,9,7.8v9.4c0,1.1,0.4,1.6,1.1,1.6c0.6,0,1.2-0.6,1.9-1.7h0.2c-0.6,2.1-2.7,3.1-5,3.1
		C54.9,172,53.5,170.9,53.5,167.6z"/>
	<path class="st1" d="M73.6,169.4c0,1,0.6,2,2.9,2v0.2H64.3v-0.2c2.3,0,2.9-1,2.9-2v-13.8c0-1.4-0.7-2.1-2.9-2.1v-0.2
		c3.6,0,6.5-0.4,9.3-1.5V169.4z M86.4,157.3v12.1c0,1,0.5,2,2.9,2v0.2H77.1v-0.2c2.3,0,2.9-1,2.9-2v-12.1c0-2.2-0.9-3.3-2.7-3.3
		c-1.1,0-2.1,0.5-2.6,1.2V155c0.9-1.6,2.8-3.1,5.7-3.1C84.1,151.9,86.4,153.5,86.4,157.3z M99.3,157.3v12.1c0,1,0.6,2,2.9,2v0.2H90
		v-0.2c2.3,0,2.9-1,2.9-2v-12.1c0-2.2-0.9-3.3-2.7-3.3c-1.1,0-2.1,0.5-2.6,1.2V155c0.9-1.6,2.8-3.1,5.7-3.1
		C96.9,151.9,99.3,153.5,99.3,157.3z"/>
	<path class="st1" d="M112.5,177.5c0,1.4,0.7,2.1,2.9,2.1v0.2c-3.6,0-6,0.4-9.3,1.5v-25.7c0-1.4-0.7-2.1-2.9-2.1v-0.2
		c3.6,0,6-0.4,9.3-1.5V177.5z M127.3,161.8c0,8.1-4.3,10.3-7.9,10.3c-2.2,0-4.7-1.5-5.7-3.1v-0.2c1,0.7,2,1.4,3.3,1.4
		c1.8,0,3.8-1.3,3.8-8.3c0-7-1.8-7.9-3.8-7.9c-1.2,0-2.4,0.5-3.3,1.4V155c1-1.6,3.4-3.1,5.7-3.1C123.1,151.9,127.3,154,127.3,161.8z
		"/>
	<path class="st1" d="M130.7,161.9c0-6.5,5-10,9.5-10v0.2c-2.3,0.3-2.9,2.2-2.9,9.6c0,5.6,2.5,8.6,5.9,8.6c2.2,0,3.8-0.6,5.7-2.1
		v0.2c-2,2.6-5.7,3.5-8.2,3.5C135.7,172,130.7,168.4,130.7,161.9z M139.4,160.2c3.4,0,4.8-1.1,4.8-4.3c0-1.9-0.8-3.6-2.5-3.8v-0.2
		c5.1,0,7.6,3.6,7.6,6.6c0,0.6-0.1,1.4-0.2,2h-9.7V160.2z"/>
	<path class="st1" d="M161.1,169.4c0,1,0.6,2,2.9,2v0.2h-12.2v-0.2c2.3,0,2.9-1,2.9-2v-13.8c0-1.4-0.7-2.1-2.9-2.1v-0.2
		c3.6,0,6.5-0.4,9.3-1.5V169.4z M171.6,156.1c0,2.7-1.9,4.4-4,4.4c-0.9,0-1.7-0.2-2.2-0.9c0.7-0.4,1.5-1.2,1.5-2.6
		c0-1.1-0.8-2.1-2.2-2.1c-1,0-1.8,0.6-2.3,1.5v-0.3c0.7-2.5,2.6-4.2,5-4.2C170.1,151.9,171.6,153.7,171.6,156.1z"/>
	<path class="st1" d="M197.5,167l0.2,0.3c-2,3.2-5.6,4.7-9.3,4.7c-6.3,0-14.2-4.5-14.2-13.5c0-9.8,7.7-13.4,13.3-13.6v0.2
		c-2.7,0.6-5.7,3.1-5.7,13.1c0,9.9,4,12.2,8.4,12.2C193.6,170.5,196.2,168.7,197.5,167z M197.8,144.9v9.4h-0.3
		c-1.5-5.2-4.4-8.1-8.2-9.2v-0.2c3.4,0.2,5.4,0.7,7,1.8l1.2-1.8H197.8z"/>
	<path class="st1" d="M200.8,167.1c0-3.4,3.1-5.3,7.4-5.3h4.2v0.2h-1.2c-2.8,0-4.1,1.8-4.1,4.2c0,2.1,0.6,3.8,2.4,3.8
		c1.1,0,2-0.6,2.8-1.4v0.2c-1.3,1.5-3.3,3.1-6.2,3.1C202.9,172,200.7,170.2,200.8,167.1z M202.3,156.1c0-2,1.8-4,7.1-4.2v0.2
		c-1.5,0.2-2.5,1.5-2.5,2.8c0,1.4,1,2.2,2.5,2.4c-0.6,1.1-2.2,1.9-3.7,1.9C203.6,159.2,202.3,157.7,202.3,156.1z M213.6,167.6v-11.9
		c0-1.9-0.7-3.4-2.6-3.7v-0.2c6.4,0.2,9,2.7,9,7.8v9.4c0,1.1,0.4,1.6,1.1,1.6c0.6,0,1.2-0.6,1.9-1.7h0.2c-0.6,2.1-2.7,3.1-5,3.1
		C215,172,213.6,170.9,213.6,167.6z"/>
</g>
<g class="st0">
	<path class="st1" d="M233.6,169.4c0,1,0.6,2,2.9,2v0.2h-12.2v-0.2c2.3,0,2.9-1,2.9-2v-13.8c0-1.4-0.7-2.1-2.9-2.1v-0.2
		c3.6,0,6.5-0.4,9.3-1.5V169.4z M244.1,156.1c0,2.7-1.9,4.4-4,4.4c-0.9,0-1.7-0.2-2.2-0.9c0.7-0.4,1.5-1.2,1.5-2.6
		c0-1.1-0.8-2.1-2.2-2.1c-1,0-1.8,0.6-2.3,1.5v-0.3c0.7-2.5,2.6-4.2,5-4.2C242.6,151.9,244.1,153.7,244.1,156.1z"/>
</g>
<g class="st0">
	<path class="st1" d="M246.2,161.9c0-6.5,5-10,9.5-10v0.2c-2.3,0.3-2.9,2.2-2.9,9.6c0,5.6,2.5,8.6,5.9,8.6c2.2,0,3.8-0.6,5.7-2.1
		v0.2c-2,2.6-5.7,3.5-8.2,3.5C251.2,172,246.2,168.4,246.2,161.9z M254.9,160.2c3.4,0,4.8-1.1,4.8-4.3c0-1.9-0.8-3.6-2.5-3.8v-0.2
		c5.1,0,7.6,3.6,7.6,6.6c0,0.6-0.1,1.4-0.2,2h-9.7V160.2z"/>
</g>
</svg>
