<?xml version="1.0" encoding="utf-8"?>
<!-- Generator: Adobe Illustrator 24.0.3, SVG Export Plug-In . SVG Version: 6.00 Build 0)  -->
<svg version="1.1" id="Layer_1" xmlns="http://www.w3.org/2000/svg" xmlns:xlink="http://www.w3.org/1999/xlink" x="0px" y="0px"
	 viewBox="0 0 320 480" style="enable-background:new 0 0 320 480;" xml:space="preserve">
<style type="text/css">
	.st0{fill:none;}
	.st1{enable-background:new    ;}
	.st2{fill:#263845;}
</style>
<title>Artboard 1</title>
<rect x="0.6" y="0" class="st0" width="320" height="480"/>
<g class="st1">
	<path class="st2" d="M20.1,73.9l0.3,0.5l0.3,16.3c0,1.7,1.2,3.3,3.8,3.3v0.2H16v-0.2c2.6,0,3.8-1.6,3.8-3.3L20.1,73.9z M40.6,94.1
		h-4.3L20.1,70c-1-1.5-2.1-2-4.1-2v-0.2h10.3l14.3,21.4V94.1z M40.5,85.2l-0.3-0.4l-0.5-13.5c0-1.7-1.2-3.3-3.8-3.3v-0.2h8.5V68
		c-2.6,0-3.8,1.6-3.8,3.3L40.5,85.2z"/>
	<path class="st2" d="M61.8,67.8h7.4L53.8,94.1h-7.4L61.8,67.8z M47.6,67.8h11.7L59.2,68c-5.7,0.3-10.3,4.3-11.3,9.1h-0.3V67.8z
		 M56.5,93.9c5.8-0.5,10.5-4.1,12.1-10.3h0.3v10.6H56.4L56.5,93.9z"/>
</g>
<g class="st1">
	<path class="st2" d="M80,69c0,2.2-2.4,5.2-6.3,6.8l-0.1-0.3c1.1-0.9,2.2-2.4,2.2-3.8c0-1.7-1.2-2.5-2.6-2.6
		c0.3-2.3,1.7-3.5,3.7-3.5C78.6,65.6,80,66.8,80,69z"/>
</g>
<g class="st1">
	<path class="st2" d="M88,89.5c-1.3,0-2.2,0.8-2.2,1.9c0,1.1,0.8,2.6,3.4,2.8v0.2c-5.2-0.2-8-1.6-8-3.8c0-1.8,1.6-2.9,3.3-2.9
		C86.1,87.8,87.4,88.5,88,89.5z M89.3,74.6c-1.4,0.3-2.8,1-2.8,2.6c0.1,4.5,12.7,5.2,12.7,11.4c0,3.8-3.2,5.7-8.2,5.9v-0.2
		c1.6-0.3,3.4-0.9,3.4-2.9c0-4-12.7-5.5-12.7-11.4c0-3.4,3.2-5.5,7.6-5.7V74.6z M98.4,78.3c0,1.2-0.9,2.4-2.9,2.4
		c-1.6,0-2.8-0.7-3.3-1.9c1.2-0.1,1.8-0.9,1.7-1.8c0-1.2-1.5-2.3-3-2.5v-0.2C95.4,74.6,98.4,76.2,98.4,78.3z"/>
</g>
<g class="st1">
	<path class="st2" d="M15.7,105.9c3.6,0,6.5-0.4,9.3-1.5v26.3c0,1,0.6,2,2.9,2v0.2H15.7v-0.2c2.3,0,2.9-1,2.9-2v-22.5
		c0-1.4-0.7-2.1-2.9-2.1V105.9z"/>
	<path class="st2" d="M30.2,123.1c0-6.5,5-10,9.5-10v0.2c-2.3,0.3-2.9,2.2-2.9,9.6c0,5.6,2.5,8.6,5.9,8.6c2.2,0,3.8-0.6,5.7-2.1v0.2
		c-2,2.6-5.7,3.5-8.2,3.5C35.2,133.3,30.2,129.6,30.2,123.1z M39,121.5c3.4,0,4.8-1.1,4.8-4.3c0-1.9-0.8-3.6-2.5-3.8v-0.2
		c5.1,0,7.6,3.6,7.6,6.6c0,0.6-0.1,1.4-0.2,2H39V121.5z"/>
	<path class="st2" d="M51.7,128.3c0-3.4,3.1-5.3,7.4-5.3h4.2v0.2h-1.2c-2.8,0-4.1,1.8-4.1,4.2c0,2.1,0.6,3.8,2.4,3.8
		c1.1,0,2-0.6,2.8-1.4v0.2c-1.3,1.5-3.3,3.1-6.2,3.1C53.8,133.3,51.6,131.4,51.7,128.3z M53.2,117.3c0-2,1.8-4,7.1-4.2v0.2
		c-1.6,0.2-2.5,1.5-2.5,2.8c0,1.4,1,2.2,2.5,2.4c-0.6,1.1-2.2,1.9-3.7,1.9C54.5,120.4,53.2,119,53.2,117.3z M64.5,128.9V117
		c0-1.9-0.7-3.4-2.6-3.7v-0.2c6.4,0.2,9,2.7,9,7.8v9.4c0,1.1,0.4,1.6,1.1,1.6c0.6,0,1.2-0.6,1.9-1.7H74c-0.6,2.1-2.7,3.1-5,3.1
		C65.9,133.3,64.5,132.2,64.5,128.9z"/>
	<path class="st2" d="M89.6,116.2v0.3c-0.9-1-2-1.4-3.2-1.4c-1.9,0-3.8,0.9-3.8,7.9c0,7,2,8.3,3.8,8.3c1.2,0,2.2-0.6,3.2-1.4v0.2
		c-1,1.6-3.4,3.1-5.6,3.1c-3.7,0-8-2.2-8-10.3c0-7.7,4.2-9.9,8-9.9C86.2,113.1,88.7,114.6,89.6,116.2z M97.2,130.3
		c0,1.1,0.3,1.6,1,1.6c0.6,0,1.2-0.6,1.9-1.7h0.2c-0.6,2.1-2.7,3.1-5,3.1c-3.1,0-4.5-1.1-4.5-4.4v-20.7c0-1.4-0.7-2.1-2.9-2.1v-0.2
		c3.6,0,6-0.4,9.3-1.5V130.3z"/>
	<path class="st2" d="M102,114.6c3.6,0,6.5-0.4,9.3-1.5v17.6c0,1,0.6,2,2.9,2v0.2h-12.2v-0.2c2.3,0,2.9-1,2.9-2v-13.8
		c0-1.4-0.7-2.1-2.9-2.1V114.6z M104,107.3c0-2,1.6-3.4,4-3.4c2.3,0,4,1.4,4,3.4c0,2.1-1.6,3.4-4,3.4
		C105.6,110.7,104,109.4,104,107.3z"/>
	<path class="st2" d="M115.8,132.6c2.3,0,2.9-1,2.9-2v-13.8c0-1.4-0.7-2.1-2.9-2.1v-0.2c3.6,0,6.5-0.4,9.3-1.5v17.6c0,1,0.6,2,2.9,2
		v0.2h-12.2V132.6z M129.4,132.6c2.3,0,2.9-1,2.9-2v-12.1c0-2.2-1.1-3.3-3.1-3.3c-1.1,0-2,0.3-2.9,1.2v-0.2c1-1.6,3.6-3.1,6.4-3.1
		c3.5,0,6,1.6,6,5.5v12.1c0,1,0.6,2,2.9,2v0.2h-12.2V132.6z"/>
	<path class="st2" d="M143.9,120.1c0-5,4.7-6.9,8.7-7v0.2c-1.7,0.2-2.4,2.2-2.4,6.7c0,4.7,0.8,6.6,2.4,6.7v0.2
		C148.6,127,143.9,125.1,143.9,120.1z M154.2,142.3c3.9-0.5,5.1-2.6,5.1-4c0-5.4-15.1-0.6-15.1-7.5c0-1.6,0.8-2.8,2.6-4l0.1,0.2
		c-0.2,0.2-0.3,0.5-0.3,0.7c0,4.3,17.7-0.7,17.7,7.8c0,4-3.4,6.6-10,7V142.3z M144.2,139.1c0-2.3,2.8-3,5.9-3
		c-0.7,0.3-1.7,1.4-1.7,2.8c0,1.8,2,3.1,4.2,3.5v0.2C148.5,142.5,144.2,141.6,144.2,139.1z M154.2,126.8c1.9-0.2,2.7-2.1,2.7-6.7
		c0-4.5-0.8-6.5-2.7-6.7v-0.2c4.1,0.1,8.9,2,8.9,7c0,5-4.8,6.9-8.9,6.9V126.8z M156.3,112.4c0.7-2,2.4-4.7,5.1-4.7
		c2.1,0,3.3,1.1,3.3,2.9c0,1.9-1.7,3-3.1,3c0-1.6-0.9-2.6-2.1-2.6c-1.2,0-2.4,0.7-3,1.4L156.3,112.4z"/>
</g>
<g class="st1">
	<path class="st2" d="M188.8,132.6v0.2h-12.4v-0.2c2.3,0,2.9-0.9,2.9-2v-22c0-1.1-0.6-1.9-2.9-1.9v-0.2h9.5v24.1
		C185.8,131.7,186.4,132.6,188.8,132.6z M203.9,130.1c-0.6,2.1-2.9,3.1-5.7,3.1c-5,0-6.2-3.5-6.4-6.7c-0.2-3.2-0.5-5.7-4-6.2v-0.2
		c3.6,0,5.2-3.1,5.2-7c0-4.3-1.6-6.4-5.2-6.4v-0.2c7.9,0,11.7,1.7,11.7,6.6c0,4.2-3.1,6.7-8.9,7.1c7.1,0.3,8.1,3.1,8.5,6.3
		c0.4,3.1,1.2,5.3,2.6,5.3c0.7,0,1.3-0.6,1.9-1.7H203.9z"/>
</g>
<g class="st1">
	<path class="st2" d="M204.5,108.8c-0.7-1.5-1.6-2-3.5-2v-0.2h14v0.2c-1.8,0-3.4,1.2-2.4,3.2l7.3,15.4l-3.5,7.9H216L204.5,108.8z
		 M221.4,121.8c2.2-5.2,2.8-8.4,2.8-10.8c0-2.8-2.4-4.2-4.4-4.2v-0.2h11.2v0.2c-1.8,0-2.9,1.7-4.1,4.3l-5.3,11.2L221.4,121.8z"/>
</g>
<g class="st1">
	<path class="st2" d="M16,153.4c3.6,0,6.5-0.4,9.3-1.5v17.6c0,1,0.6,2,2.9,2v0.2H16v-0.2c2.3,0,2.9-1,2.9-2v-13.8
		c0-1.4-0.7-2.1-2.9-2.1V153.4z M18,146.1c0-2,1.6-3.4,4-3.4c2.3,0,4,1.4,4,3.4c0,2.1-1.6,3.4-4,3.4C19.6,149.5,18,148.1,18,146.1z"
		/>
	<path class="st2" d="M29.8,171.4c2.3,0,2.9-1,2.9-2v-13.8c0-1.4-0.7-2.1-2.9-2.1v-0.2c3.6,0,6.5-0.4,9.3-1.5v17.6c0,1,0.6,2,2.9,2
		v0.2H29.8V171.4z M43.4,171.4c2.3,0,2.9-1,2.9-2v-12.1c0-2.2-1.1-3.3-3.1-3.3c-1.1,0-2,0.3-2.9,1.2V155c1-1.6,3.6-3.1,6.4-3.1
		c3.5,0,6,1.6,6,5.5v12.1c0,1,0.6,2,2.9,2v0.2H43.4V171.4z"/>
	<path class="st2" d="M64.5,167c-1.3,0-2.2,0.8-2.2,1.9c0,1.1,0.8,2.6,3.4,2.8v0.2c-5.2-0.2-8-1.6-8-3.8c0-1.8,1.6-2.9,3.3-2.9
		C62.6,165.3,63.9,166.1,64.5,167z M65.7,152.1c-1.4,0.3-2.8,1-2.8,2.6c0.1,4.5,12.7,5.2,12.7,11.4c0,3.8-3.2,5.7-8.2,5.9v-0.2
		c1.6-0.3,3.4-0.9,3.4-2.9c0-4-12.7-5.5-12.7-11.4c0-3.4,3.2-5.5,7.6-5.7V152.1z M74.9,155.9c0,1.2-0.9,2.4-2.9,2.4
		c-1.6,0-2.8-0.7-3.3-1.9c1.2-0.1,1.8-0.9,1.7-1.8c0-1.2-1.5-2.3-3-2.5v-0.2C71.8,152.1,74.9,153.7,74.9,155.9z"/>
	<path class="st2" d="M87.1,166.6c0,2.2,0.7,3.3,2.7,3.3c1,0,1.8-0.3,2.7-1.2v0.2c-0.9,1.7-2.9,3.1-6,3.1c-3.5,0-5.7-1.6-5.7-5.5
		v-10.9c0-1.4-0.7-2.1-2.9-2.1v-0.2c3.6,0,6.5-0.4,9.3-1.5V166.6z M100,169.1c0,1.1,0.3,1.6,1,1.6c0.6,0,1.2-0.6,1.9-1.7h0.2
		c-0.6,2.1-2.7,3.1-5.3,3.1c-2.7,0-4.3-1.6-4.3-3.8v-12.6c0-1.4-0.7-2.1-2.8-2.1v-0.2c3.5,0,5.9-0.4,9.1-1.5V169.1z"/>
</g>
<g class="st1">
	<path class="st2" d="M114,169.4c0,1,0.6,2,2.9,2v0.2h-12.2v-0.2c2.3,0,2.9-1,2.9-2v-13.8c0-1.4-0.7-2.1-2.9-2.1v-0.2
		c3.6,0,6.5-0.4,9.3-1.5V169.4z M124.4,156.1c0,2.7-1.9,4.4-4,4.4c-0.9,0-1.7-0.2-2.2-0.9c0.7-0.4,1.5-1.2,1.5-2.6
		c0-1.1-0.8-2.1-2.2-2.1c-1,0-1.8,0.6-2.3,1.5v-0.3c0.7-2.5,2.6-4.2,5-4.2C123,151.9,124.4,153.7,124.4,156.1z"/>
</g>
<g class="st1">
	<path class="st2" d="M126.1,167.1c0-3.4,3.1-5.3,7.4-5.3h4.2v0.2h-1.2c-2.8,0-4.1,1.8-4.1,4.2c0,2.1,0.6,3.8,2.4,3.8
		c1.1,0,2-0.6,2.8-1.4v0.2c-1.3,1.5-3.3,3.1-6.2,3.1C128.3,172,126.1,170.2,126.1,167.1z M127.7,156.1c0-2,1.8-4,7.1-4.2v0.2
		c-1.6,0.2-2.5,1.5-2.5,2.8c0,1.4,1,2.2,2.5,2.4c-0.6,1.1-2.2,1.9-3.7,1.9C128.9,159.2,127.7,157.7,127.7,156.1z M138.9,167.7v-11.9
		c0-1.9-0.7-3.4-2.6-3.7v-0.2c6.4,0.2,9,2.7,9,7.8v9.4c0,1.1,0.4,1.6,1.1,1.6c0.6,0,1.2-0.6,1.9-1.7h0.2c-0.6,2.1-2.7,3.1-5,3.1
		C140.3,172,138.9,171,138.9,167.7z"/>
	<path class="st2" d="M149.6,171.4c2.3,0,2.9-1,2.9-2v-13.8c0-1.4-0.7-2.1-2.9-2.1v-0.2c3.6,0,6.5-0.4,9.3-1.5v17.6c0,1,0.6,2,2.9,2
		v0.2h-12.2V171.4z M163.3,171.4c2.3,0,2.9-1,2.9-2v-12.1c0-2.2-1.1-3.3-3.1-3.3c-1.1,0-2,0.3-2.9,1.2V155c1-1.6,3.6-3.1,6.4-3.1
		c3.5,0,6,1.6,6,5.5v12.1c0,1,0.6,2,2.9,2v0.2h-12.2V171.4z"/>
	<path class="st2" d="M187.5,152.1c-2.3,0.3-3.3,2.2-3.3,9.6c0,5.6,2.8,8.6,6.3,8.6c2.2,0,3.8-0.6,5.7-2.1v0.2
		c-2,2.6-5.7,3.5-8.2,3.5c-5,0-10.3-3.6-10.3-10.2c0-6.5,5.4-10,9.9-10V152.1z M196.1,156.3c0,2.1-1.4,3.7-3.9,3.7
		c-1.9,0-3.1-1.2-3.4-2.4c1.1-0.4,1.9-1.8,1.9-2.8c0-0.9-0.2-2.3-1.7-2.6v-0.3C194.1,151.9,196.1,154.1,196.1,156.3z"/>
	<path class="st2" d="M199,161.9c0-6.5,5-10,9.5-10v0.2c-2.3,0.3-2.9,2.2-2.9,9.6c0,5.6,2.5,8.6,5.9,8.6c2.2,0,3.8-0.6,5.7-2.1v0.2
		c-2,2.6-5.7,3.5-8.2,3.5C204,172,199,168.4,199,161.9z M207.7,160.3c3.4,0,4.8-1.1,4.8-4.3c0-1.9-0.8-3.6-2.5-3.8v-0.2
		c5.1,0,7.6,3.6,7.6,6.6c0,0.6-0.1,1.4-0.2,2h-9.7V160.3z"/>
</g>
</svg>
