<?xml version="1.0" encoding="utf-8"?>
<!-- Generator: Adobe Illustrator 24.0.3, SVG Export Plug-In . SVG Version: 6.00 Build 0)  -->
<svg version="1.1" id="Layer_1" xmlns="http://www.w3.org/2000/svg" xmlns:xlink="http://www.w3.org/1999/xlink" x="0px" y="0px"
	 viewBox="0 0 320 480" style="enable-background:new 0 0 320 480;" xml:space="preserve">
<style type="text/css">
	.st0{enable-background:new    ;}
	.st1{fill:#FFFFFF;}
</style>
<title>Artboard 1 copy 2</title>
<g class="st0">
	<path class="st1" d="M40.9,82.3l0.2,0.3c-2,3.2-5.6,4.7-9.3,4.7c-6.3,0-14.2-4.5-14.2-13.5c0-9.8,7.7-13.4,13.3-13.6v0.2
		c-2.7,0.6-5.7,3.1-5.7,13.1c0,9.9,4,12.2,8.4,12.2C37.1,85.7,39.6,83.9,40.9,82.3z M41.3,60.1v9.4h-0.3c-1.5-5.2-4.4-8.1-8.2-9.2
		v-0.2c3.4,0.2,5.4,0.7,7,1.8l1.2-1.8H41.3z"/>
	<path class="st1" d="M44.2,82.3c0-3.4,3.1-5.3,7.4-5.3h4.2v0.2h-1.2c-2.8,0-4.1,1.8-4.1,4.2c0,2.1,0.6,3.8,2.4,3.8
		c1.1,0,2-0.6,2.8-1.4v0.2c-1.3,1.5-3.3,3.1-6.2,3.1C46.4,87.3,44.2,85.4,44.2,82.3z M45.7,71.3c0-2,1.8-4,7.1-4.2v0.2
		c-1.6,0.2-2.5,1.5-2.5,2.8c0,1.4,1,2.2,2.5,2.4c-0.6,1.1-2.2,1.9-3.7,1.9C47,74.4,45.7,73,45.7,71.3z M57,82.9V71
		c0-1.9-0.7-3.4-2.6-3.7v-0.2c6.4,0.2,9,2.7,9,7.8v9.4c0,1.1,0.4,1.6,1.1,1.6c0.6,0,1.2-0.6,1.9-1.7h0.2c-0.6,2.1-2.7,3.1-5,3.1
		C58.4,87.3,57,86.2,57,82.9z"/>
	<path class="st1" d="M67.5,59.9c3.6,0,6.5-0.4,9.3-1.5v26.3c0,1,0.6,2,2.9,2v0.2H67.5v-0.2c2.3,0,2.9-1,2.9-2V62.2
		c0-1.4-0.7-2.1-2.9-2.1V59.9z"/>
	<path class="st1" d="M81.1,59.9c3.6,0,6.5-0.4,9.3-1.5v26.3c0,1,0.6,2,2.9,2v0.2H81.1v-0.2c2.3,0,2.9-1,2.9-2V62.2
		c0-1.4-0.7-2.1-2.9-2.1V59.9z"/>
</g>
<g class="st0">
	<path class="st1" d="M104.5,69.1c-0.4-0.8-0.9-1.4-2.1-1.4v-0.2h10.9v0.2c-1.4,0-1.9,0.9-1.2,2.3l5.1,10.6l-3.3,6.3h-0.2
		L104.5,69.1z M102.8,93.1c0-1.7,1.3-3.1,3.4-3.6c-0.1,0.3-0.2,0.7-0.2,1c0,1.5,0.8,2.6,2.3,2.6c1.4,0,2.4-1.4,3.9-3.9h0.3
		c-2.1,4-3.6,7.4-6.3,7.4C104.1,96.6,102.8,95.1,102.8,93.1z M118.7,76.8c0.7-1.2,1.1-2.9,1.1-5c0-2.1-1.2-4.1-4-4.1v-0.2h9.7v0.2
		c-1.3,0-1.8,0.5-2.5,1.8l-4,7.6L118.7,76.8z"/>
</g>
<g class="st0">
	<path class="st1" d="M135.3,67.4c-2.3,0.3-3.1,2.2-3.1,9.8c0,7.3,0.8,9.7,3.1,9.9v0.2c-4.5,0-9.7-3.6-9.7-10.2c0-6.5,5.1-10,9.7-10
		V67.4z M146.5,77.1c0,6.5-5.2,10.2-9.6,10.2V87c2.3-0.2,3-2.7,3-9.9c0-7.6-0.8-9.5-3-9.8v-0.2C141.4,67.1,146.5,70.6,146.5,77.1z"
		/>
	<path class="st1" d="M157.9,81.8c0,2.2,0.7,3.3,2.7,3.3c1,0,1.8-0.3,2.7-1.2v0.2c-0.9,1.7-2.9,3.1-6,3.1c-3.5,0-5.7-1.6-5.7-5.5
		V70.9c0-1.4-0.7-2.1-2.9-2.1v-0.2c3.6,0,6.5-0.4,9.3-1.5V81.8z M170.8,84.3c0,1.1,0.3,1.6,1,1.6c0.6,0,1.2-0.6,1.9-1.7h0.2
		c-0.6,2.1-2.7,3.1-5.3,3.1c-2.7,0-4.3-1.6-4.3-3.8V70.9c0-1.4-0.7-2.1-2.8-2.1v-0.2c3.5,0,5.9-0.4,9.1-1.5V84.3z"/>
</g>
<g class="st0">
	<path class="st1" d="M184.8,84.7c0,1,0.6,2,2.9,2v0.2h-12.2v-0.2c2.3,0,2.9-1,2.9-2V70.9c0-1.4-0.7-2.1-2.9-2.1v-0.2
		c3.6,0,6.5-0.4,9.3-1.5V84.7z M195.3,71.3c0,2.7-1.9,4.4-4,4.4c-0.9,0-1.7-0.2-2.2-0.9c0.7-0.4,1.5-1.2,1.5-2.6
		c0-1.1-0.8-2.1-2.2-2.1c-1,0-1.8,0.6-2.3,1.5v-0.3c0.7-2.5,2.6-4.2,5-4.2C193.8,67.1,195.3,69,195.3,71.3z"/>
</g>
<g class="st0">
	<path class="st1" d="M25.3,120.8c0,3.7-2.5,5.3-6.4,5.3V101c0-1.4-0.7-2.1-2.9-2.1v-0.2c3.6,0,6-0.4,9.3-1.5V120.8z M40,115.8
		c0,8.1-4.3,10.3-8,10.3c-2.2,0-4.7-1.5-5.6-3.1v-0.2c1,0.7,2,1.4,3.2,1.4c1.8,0,3.8-1.3,3.8-8.3c0-7-1.9-7.9-3.8-7.9
		c-1.2,0-2.3,0.5-3.2,1.4V109c1-1.6,3.4-3.1,5.6-3.1C35.8,105.9,40,108.1,40,115.8z"/>
</g>
<g class="st0">
	<path class="st1" d="M52.1,123.4c0,1,0.6,2,2.9,2v0.2H42.8v-0.2c2.3,0,2.9-1,2.9-2v-13.8c0-1.4-0.7-2.1-2.9-2.1v-0.2
		c3.6,0,6.5-0.4,9.3-1.5V123.4z M62.5,110.1c0,2.7-1.9,4.4-4,4.4c-0.9,0-1.7-0.2-2.2-0.9c0.7-0.4,1.5-1.2,1.5-2.6
		c0-1.1-0.8-2.1-2.2-2.1c-1,0-1.8,0.6-2.3,1.5v-0.3c0.7-2.5,2.6-4.2,5-4.2C61.1,105.9,62.5,107.7,62.5,110.1z"/>
</g>
<g class="st0">
	<path class="st1" d="M74.3,106.1c-2.3,0.3-3.1,2.2-3.1,9.8c0,7.3,0.8,9.7,3.1,9.9v0.2c-4.5,0-9.7-3.6-9.7-10.2c0-6.5,5.1-10,9.7-10
		V106.1z M85.4,115.9c0,6.5-5.2,10.2-9.6,10.2v-0.2c2.3-0.2,3-2.7,3-9.9c0-7.6-0.8-9.5-3-9.8v-0.2C80.3,105.9,85.4,109.3,85.4,115.9
		z"/>
</g>
<g class="st0">
	<path class="st1" d="M100,125.4v0.2H87.8v-0.2c2.3,0,2.9-1,2.9-2V101c0-1.4-0.7-2.1-2.9-2.1v-0.2c3.6,0,6.5-0.4,9.3-1.5v26.3
		C97.1,124.4,97.7,125.4,100,125.4z M113.1,125.4v0.2c-1.1,0.3-2.6,0.4-3.9,0.4c-2.4,0-5-0.4-7-3.8l-3.6-6.1
		c3.1-2.7,5.9-5.9,5.9-7.9c0-1-0.5-1.8-2.3-1.8v-0.2h9.9v0.2c-0.9,0-1.6,0.3-2.2,0.7l-7.1,5.6l6.7,10.4
		C110.9,125.1,111.8,125.3,113.1,125.4z"/>
</g>
<g class="st0">
	<path class="st1" d="M113.4,115.9c0-6.5,5-10,9.5-10v0.2c-2.3,0.3-2.9,2.2-2.9,9.6c0,5.6,2.5,8.6,5.9,8.6c2.2,0,3.8-0.6,5.7-2.1
		v0.2c-2,2.6-5.7,3.5-8.2,3.5C118.4,126,113.4,122.4,113.4,115.9z M122.1,114.3c3.4,0,4.8-1.1,4.8-4.3c0-1.9-0.8-3.6-2.5-3.8v-0.2
		c5.1,0,7.6,3.6,7.6,6.6c0,0.6-0.1,1.4-0.2,2h-9.7V114.3z"/>
</g>
<g class="st0">
	<path class="st1" d="M143.8,123.4c0,1,0.6,2,2.9,2v0.2h-12.2v-0.2c2.3,0,2.9-1,2.9-2v-13.8c0-1.4-0.7-2.1-2.9-2.1v-0.2
		c3.6,0,6.5-0.4,9.3-1.5V123.4z M154.2,110.1c0,2.7-1.9,4.4-4,4.4c-0.9,0-1.7-0.2-2.2-0.9c0.7-0.4,1.5-1.2,1.5-2.6
		c0-1.1-0.8-2.1-2.2-2.1c-1,0-1.8,0.6-2.3,1.5v-0.3c0.7-2.5,2.6-4.2,5-4.2C152.8,105.9,154.2,107.7,154.2,110.1z"/>
</g>
<g class="st0">
	<path class="st1" d="M178.2,107.3l-0.4,0.6H174v15.6c0,1,0.6,2,2.9,2v0.2h-12.2v-0.2c2.3,0,2.9-1,2.9-2v-15.6h-2.5l0.4-0.6h2.1
		v-1.7c0-5.5,2.9-7.8,6.4-8.4v0.2c-1.3,0.5-2.3,1.7-2.3,4.1C171.7,103.8,173.2,107.3,178.2,107.3z M181.5,101.3
		c0,2.2-1.6,3.4-3.4,3.4c-2.1,0-3.3-1.2-3.9-2.6c1.7,0,2.8-0.9,2.8-2.5c0-1.1-0.5-2.1-1.4-2.3v-0.2
		C179.7,97.3,181.5,99.1,181.5,101.3z"/>
</g>
<g class="st0">
	<path class="st1" d="M189.7,106.1c-2.3,0.3-3.1,2.2-3.1,9.8c0,7.3,0.8,9.7,3.1,9.9v0.2c-4.5,0-9.7-3.6-9.7-10.2
		c0-6.5,5.1-10,9.7-10V106.1z M200.8,115.9c0,6.5-5.2,10.2-9.6,10.2v-0.2c2.3-0.2,3-2.7,3-9.9c0-7.6-0.8-9.5-3-9.8v-0.2
		C195.7,105.9,200.8,109.3,200.8,115.9z"/>
</g>
<g class="st0">
	<path class="st1" d="M212.7,123.4c0,1,0.6,2,2.9,2v0.2h-12.2v-0.2c2.3,0,2.9-1,2.9-2v-13.8c0-1.4-0.7-2.1-2.9-2.1v-0.2
		c3.6,0,6.5-0.4,9.3-1.5V123.4z M223.2,110.1c0,2.7-1.9,4.4-4,4.4c-0.9,0-1.7-0.2-2.2-0.9c0.7-0.4,1.5-1.2,1.5-2.6
		c0-1.1-0.8-2.1-2.2-2.1c-1,0-1.8,0.6-2.3,1.5v-0.3c0.7-2.5,2.6-4.2,5-4.2C221.7,105.9,223.2,107.7,223.2,110.1z"/>
</g>
<g class="st0">
	<path class="st1" d="M17,159.8c0-3.4,3.1-5.3,7.4-5.3h4.2v0.2h-1.2c-2.8,0-4.1,1.8-4.1,4.2c0,2.1,0.6,3.8,2.4,3.8
		c1.1,0,2-0.6,2.8-1.4v0.2c-1.3,1.5-3.3,3.1-6.2,3.1C19.1,164.8,16.9,162.9,17,159.8z M18.5,148.9c0-2,1.8-4,7.1-4.2v0.2
		c-1.6,0.2-2.5,1.5-2.5,2.8c0,1.4,1,2.2,2.5,2.4c-0.6,1.1-2.2,1.9-3.7,1.9C19.7,151.9,18.5,150.5,18.5,148.9z M29.7,160.4v-11.9
		c0-1.9-0.7-3.4-2.6-3.7v-0.2c6.4,0.2,9,2.7,9,7.8v9.4c0,1.1,0.4,1.6,1.1,1.6c0.6,0,1.2-0.6,1.9-1.7h0.2c-0.6,2.1-2.7,3.1-5,3.1
		C31.1,164.8,29.7,163.7,29.7,160.4z"/>
	<path class="st1" d="M64.8,147.8v0.3c-0.9-1-2.1-1.4-3.3-1.4c-1.9,0-3.8,0.9-3.8,7.9c0,7,1.9,8.3,3.8,8.3c1.2,0,2.3-0.6,3.3-1.4
		v0.2c-1,1.6-3.4,3.1-5.7,3.1c-3.7,0-7.9-2.2-7.9-10.3c0-7.7,4.2-9.9,7.9-9.9C61.3,144.7,63.8,146.1,64.8,147.8z M72.3,170.3
		c0,1.4,0.7,2.1,2.9,2.1v0.2c-3.6,0-6,0.4-9.3,1.5v-28c2-0.2,4.7-0.7,6.4-1.5V170.3z"/>
	<path class="st1" d="M85.3,159.3c0,2.2,0.7,3.3,2.7,3.3c1,0,1.8-0.3,2.7-1.2v0.2c-0.9,1.7-2.9,3.1-6,3.1c-3.5,0-5.7-1.6-5.7-5.5
		v-10.9c0-1.4-0.7-2.1-2.9-2.1v-0.2c3.6,0,6.5-0.4,9.3-1.5V159.3z M98.2,161.8c0,1.1,0.3,1.6,1,1.6c0.6,0,1.2-0.6,1.9-1.7h0.2
		c-0.6,2.1-2.7,3.1-5.3,3.1c-2.7,0-4.3-1.6-4.3-3.8v-12.6c0-1.4-0.7-2.1-2.8-2.1v-0.2c3.5,0,5.9-0.4,9.1-1.5V161.8z"/>
	<path class="st1" d="M113.3,144.9c-2.3,0.3-3.1,2.2-3.1,9.8c0,7.3,0.8,9.7,3.1,9.9v0.2c-4.5,0-9.7-3.6-9.7-10.2
		c0-6.5,5.1-10,9.7-10V144.9z M124.4,154.7c0,6.5-5.2,10.2-9.6,10.2v-0.2c2.3-0.2,3-2.7,3-9.9c0-7.6-0.8-9.5-3-9.8v-0.2
		C119.3,144.7,124.4,148.1,124.4,154.7z"/>
</g>
<g class="st0">
	<path class="st1" d="M142,161.4v0.2c-1.2,1.8-3.7,3.1-6.6,3.1c-3.5,0-6-1.6-6-5.5v-12.7h-2l0.4-0.6h1.6v-4.2c2.4,0,4.7-0.7,6.4-2.2
		v6.4h5.2l-0.4,0.6h-4.8v12.8c0,1.9,0.7,4,2.6,4C139.4,163.4,140.8,162.7,142,161.4z"/>
</g>
<g class="st0">
	<path class="st1" d="M143.5,154.7c0-6.5,5-10,9.5-10v0.2c-2.3,0.3-2.9,2.2-2.9,9.6c0,5.6,2.5,8.6,5.9,8.6c2.2,0,3.8-0.6,5.7-2.1
		v0.2c-2,2.6-5.7,3.5-8.2,3.5C148.5,164.8,143.5,161.2,143.5,154.7z M152.2,153c3.4,0,4.8-1.1,4.8-4.3c0-1.9-0.8-3.6-2.5-3.8v-0.2
		c5.1,0,7.6,3.6,7.6,6.6c0,0.6-0.1,1.4-0.2,2h-9.7V153z"/>
</g>
</svg>
