<svg id="Layer_1" data-name="Layer 1" xmlns="http://www.w3.org/2000/svg" viewBox="0 0 320 480"><defs><style>.cls-1{fill:#fff;}</style></defs><title>Artboard 1 copy</title><path class="cls-1" d="M31.51,49.61c2.1,0,2.62-.81,2.62-1.79V28c0-1-.52-1.78-2.62-1.78V26h8.57v21.8c0,1,.53,1.79,2.63,1.79v.21H31.51ZM41.83,26.23V26h9.63v7h-.28C49.57,28.05,47.15,26.58,41.83,26.23Zm1.93,11.9L41.83,38v-.21l1.93-.17a5.42,5.42,0,0,0,4.62-3h.28v6.51h-.28A5.31,5.31,0,0,0,43.76,38.13Z"/><path class="cls-1" d="M61.64,47.82c0,.88.53,1.79,2.63,1.79v.21h-11v-.21c2.1,0,2.63-.91,2.63-1.79V35.4c0-1.26-.6-1.86-2.6-1.86v-.21A21.51,21.51,0,0,0,61.64,32Zm9.45-12.07a3.74,3.74,0,0,1-3.6,4,2.39,2.39,0,0,1-2-.77,2.56,2.56,0,0,0,1.37-2.38,1.86,1.86,0,0,0-2-1.89A2.39,2.39,0,0,0,62.8,36v-.28A4.84,4.84,0,0,1,67.35,32,3.55,3.55,0,0,1,71.09,35.75Z"/><path class="cls-1" d="M81.7,32.18c-2.07.24-2.77,2-2.77,8.82,0,6.58.7,8.75,2.77,9v.21A8.92,8.92,0,0,1,73,41a8.77,8.77,0,0,1,8.72-9ZM91.78,41a8.92,8.92,0,0,1-8.68,9.17V50c2.06-.21,2.73-2.42,2.73-9,0-6.86-.7-8.61-2.73-8.82V32A8.72,8.72,0,0,1,91.78,41Z"/><path class="cls-1" d="M102.49,47.82c0,.88.52,1.79,2.62,1.79v.21h-11v-.21c2.1,0,2.63-.91,2.63-1.79V35.4c0-1.26-.6-1.86-2.59-1.86v-.21A21.58,21.58,0,0,0,102.49,32ZM114.11,36.9V47.82c0,.88.49,1.79,2.59,1.79v.21h-11v-.21c2.06,0,2.62-.91,2.62-1.79V36.9c0-2-.77-3-2.45-3a3.08,3.08,0,0,0-2.31,1v-.21a5.67,5.67,0,0,1,5.11-2.8C112,32,114.11,33.44,114.11,36.9Zm11.58,0V47.82c0,.88.53,1.79,2.63,1.79v.21h-11v-.21c2.07,0,2.63-.91,2.63-1.79V36.9c0-2-.77-3-2.45-3a3.07,3.07,0,0,0-2.31,1v-.21a5.65,5.65,0,0,1,5.11-2.8C123.59,32,125.69,33.44,125.69,36.9Z"/><path class="cls-1" d="M37.56,84.65a1.8,1.8,0,0,0-2,1.75c0,1,.7,2.31,3.12,2.56v.21c-4.66-.18-7.21-1.44-7.21-3.47a2.73,2.73,0,0,1,3-2.59A3.57,3.57,0,0,1,37.56,84.65Zm1.16-13.47c-1.3.24-2.56.91-2.52,2.34.1,4.06,11.44,4.73,11.44,10.29,0,3.4-2.87,5.18-7.38,5.36V89c1.47-.25,3.11-.77,3.11-2.59,0-3.64-11.48-5-11.48-10.29,0-3.08,2.91-4.94,6.83-5.11ZM47,74.57c0,1.09-.84,2.17-2.59,2.17a3,3,0,0,1-3-1.68A1.56,1.56,0,0,0,43,73.42c0-1-1.33-2.07-2.73-2.24V71C44.21,71.18,47,72.61,47,74.57Z"/><path class="cls-1" d="M58,94.14c0,1.26.59,1.85,2.59,1.85v.21a22.85,22.85,0,0,0-8.37,1.37V74.36c0-1.26-.59-1.85-2.59-1.85V72.3A22.85,22.85,0,0,0,58,70.93ZM71.37,79.89c0,7.32-3.85,9.28-7.17,9.28a6.55,6.55,0,0,1-5.11-2.84v-.21A4.87,4.87,0,0,0,62,87.35c1.64,0,3.39-1.16,3.39-7.46S63.78,72.75,62,72.75a3.91,3.91,0,0,0-2.94,1.3v-.28A6.51,6.51,0,0,1,64.2,71C67.59,71,71.37,72.93,71.37,79.89Z"/><path class="cls-1" d="M74.45,80A8.66,8.66,0,0,1,83,71v.21c-2.07.24-2.63,2-2.63,8.68,0,5,2.24,7.8,5.36,7.8a7.66,7.66,0,0,0,5.11-1.85V86c-1.82,2.31-5.15,3.15-7.42,3.15A8.87,8.87,0,0,1,74.45,80Zm7.88-1.47c3.08,0,4.37-1,4.37-3.92,0-1.68-.7-3.22-2.27-3.43V71c4.62,0,6.86,3.29,6.86,6a9.94,9.94,0,0,1-.18,1.82H82.33Z"/><path class="cls-1" d="M103.12,71.18c-2.07.24-3,2-3,8.68,0,5,2.56,7.8,5.67,7.8a7.62,7.62,0,0,0,5.11-1.85V86c-1.82,2.31-5.14,3.15-7.42,3.15A9.15,9.15,0,0,1,94.15,80a9,9,0,0,1,9-9Zm7.77,3.74a3.25,3.25,0,0,1-3.5,3.36,3,3,0,0,1-3-2.2A3,3,0,0,0,106,73.52a2.08,2.08,0,0,0-1.5-2.31V71C109.1,71,110.89,72.93,110.89,74.92Z"/><path class="cls-1" d="M113,72.3a21.3,21.3,0,0,0,8.36-1.37V86.82c0,.88.53,1.79,2.63,1.79v.21h-11v-.21c2.1,0,2.63-.91,2.63-1.79V74.36c0-1.26-.6-1.85-2.59-1.85Zm1.78-6.58c0-1.82,1.47-3,3.57-3s3.57,1.23,3.57,3-1.47,3.08-3.57,3.08S114.73,67.57,114.73,65.72Z"/><path class="cls-1" d="M125.69,84.69c0-3,2.8-4.76,6.72-4.76h3.78v.21h-1.05A3.46,3.46,0,0,0,131.43,84c0,1.93.56,3.4,2.2,3.4a3.86,3.86,0,0,0,2.56-1.23v.21a7.46,7.46,0,0,1-5.57,2.84C127.65,89.17,125.65,87.49,125.69,84.69Zm1.4-9.91c0-1.78,1.61-3.6,6.37-3.81v.21a2.55,2.55,0,0,0-2.24,2.55c0,1.26.87,2,2.27,2.14a3.93,3.93,0,0,1-3.36,1.68A2.81,2.81,0,0,1,127.09,74.78Zm10.15,10.43V74.5c0-1.71-.67-3.08-2.38-3.32V71c5.81.21,8.12,2.41,8.12,7v8.5c0,1,.35,1.44,1,1.44s1.12-.53,1.68-1.58h.21c-.56,1.93-2.45,2.84-4.55,2.84C138.5,89.17,137.24,88.19,137.24,85.21Z"/><path class="cls-1" d="M146.76,64.46a21.3,21.3,0,0,0,8.36-1.37V86.82c0,.88.53,1.79,2.63,1.79v.21h-11v-.21c2.1,0,2.63-.91,2.63-1.79V66.52c0-1.26-.6-1.85-2.59-1.85Z"/><path class="cls-1" d="M159.29,72.3a21.3,21.3,0,0,0,8.36-1.37V86.82c0,.88.53,1.79,2.63,1.79v.21h-11v-.21c2.1,0,2.63-.91,2.63-1.79V74.36c0-1.26-.6-1.85-2.59-1.85Zm1.78-6.58c0-1.82,1.47-3,3.57-3s3.57,1.23,3.57,3-1.47,3.08-3.57,3.08S161.07,67.57,161.07,65.72Z"/><path class="cls-1" d="M178.47,84.65a1.79,1.79,0,0,0-2,1.75c0,1,.7,2.31,3.11,2.56v.21c-4.65-.18-7.21-1.44-7.21-3.47a2.73,2.73,0,0,1,3-2.59A3.58,3.58,0,0,1,178.47,84.65Zm1.15-13.47c-1.29.24-2.55.91-2.52,2.34.11,4.06,11.45,4.73,11.45,10.29,0,3.4-2.87,5.18-7.39,5.36V89c1.47-.25,3.12-.77,3.12-2.59,0-3.64-11.48-5-11.48-10.29,0-3.08,2.9-4.94,6.82-5.11Zm8.26,3.39c0,1.09-.84,2.17-2.59,2.17a3,3,0,0,1-3-1.68,1.55,1.55,0,0,0,1.57-1.64c0-1-1.33-2.07-2.73-2.24V71C185.12,71.18,187.88,72.61,187.88,74.57Z"/><path class="cls-1" d="M204.44,86.12v.21a7.33,7.33,0,0,1-6,2.84c-3.15,0-5.39-1.44-5.39-4.94V72.75h-1.82l.39-.52h1.43V68.45a8.85,8.85,0,0,0,5.74-2v5.74h4.73l-.39.52H198.8V84.34c0,1.75.67,3.57,2.31,3.57A5.17,5.17,0,0,0,204.44,86.12Z"/><path class="cls-1" d="M212,84.65a1.79,1.79,0,0,0-2,1.75c0,1,.7,2.31,3.11,2.56v.21c-4.65-.18-7.21-1.44-7.21-3.47a2.73,2.73,0,0,1,3-2.59A3.58,3.58,0,0,1,212,84.65Zm1.15-13.47c-1.29.24-2.55.91-2.52,2.34.11,4.06,11.45,4.73,11.45,10.29,0,3.4-2.87,5.18-7.39,5.36V89c1.47-.25,3.12-.77,3.12-2.59,0-3.64-11.48-5-11.48-10.29,0-3.08,2.9-4.94,6.82-5.11Zm8.26,3.39c0,1.09-.84,2.17-2.59,2.17a3,3,0,0,1-3-1.68,1.55,1.55,0,0,0,1.57-1.64c0-1-1.33-2.07-2.73-2.24V71C218.65,71.18,221.41,72.61,221.41,74.57Z"/><path class="cls-1" d="M40.4,128v.21a13.24,13.24,0,0,1-6.79-1.72l-1.16,1.72h-.28v-8.54h.28A11.76,11.76,0,0,0,40.4,128Zm10.29-7c0,4.52-3.36,7-8.79,7.18V128c1.93-.35,3.82-1.47,3.82-3.57,0-6.13-13.37-6.69-13.37-13.79,0-4.2,3.39-6.62,8-6.93v.21c-1.61.28-3.08,1.29-3.08,3.22C37.32,113.22,50.69,113.89,50.69,121ZM41.9,103.88v-.21a11.28,11.28,0,0,1,6.3,1.85l1.26-1.85h.28v7.8h-.28A11.13,11.13,0,0,0,41.9,103.88Z"/><path class="cls-1" d="M66.65,125.12v.21a7.33,7.33,0,0,1-6,2.84c-3.15,0-5.39-1.44-5.39-4.94V111.75H53.45l.39-.52h1.43v-3.78a8.85,8.85,0,0,0,5.74-2v5.74h4.73l-.39.52H61v11.59c0,1.75.67,3.57,2.31,3.57A5.17,5.17,0,0,0,66.65,125.12Z"/><path class="cls-1" d="M67.76,123.69c0-3,2.8-4.76,6.73-4.76h3.78v.21h-1A3.46,3.46,0,0,0,73.51,123c0,1.93.56,3.4,2.2,3.4a3.86,3.86,0,0,0,2.56-1.23v.21a7.46,7.46,0,0,1-5.57,2.84C69.72,128.17,67.73,126.49,67.76,123.69Zm1.41-9.91c0-1.78,1.6-3.6,6.37-3.81v.21a2.55,2.55,0,0,0-2.24,2.55c0,1.26.87,2,2.27,2.14a3.93,3.93,0,0,1-3.36,1.68A2.81,2.81,0,0,1,69.17,113.78Zm10.15,10.43V113.5c0-1.71-.67-3.08-2.38-3.32V110c5.81.21,8.12,2.41,8.12,7v8.5c0,1,.35,1.44,1,1.44s1.12-.53,1.68-1.58h.21c-.56,1.93-2.45,2.84-4.55,2.84C80.58,128.17,79.32,127.19,79.32,124.21Z"/><path class="cls-1" d="M97.41,125.82c0,.88.53,1.79,2.63,1.79v.21H89v-.21c2.1,0,2.62-.91,2.62-1.79V113.4c0-1.26-.59-1.86-2.59-1.86v-.21A21.54,21.54,0,0,0,97.41,110Zm9.45-12.07a3.74,3.74,0,0,1-3.6,4,2.39,2.39,0,0,1-2-.77,2.56,2.56,0,0,0,1.37-2.38,1.86,1.86,0,0,0-2-1.89A2.41,2.41,0,0,0,98.56,114v-.28a4.86,4.86,0,0,1,4.56-3.78A3.55,3.55,0,0,1,106.86,113.75Z"/><path class="cls-1" d="M52.79,162.65l.14.28a9.61,9.61,0,0,1-8.44,4.24c-5.7,0-12.81-4.06-12.81-12.22,0-8.85,6.93-12.14,12-12.28v.21c-2.45.52-5.11,2.83-5.11,11.83s3.61,11.06,7.56,11.06A8.58,8.58,0,0,0,52.79,162.65Zm.28-20v8.5h-.28c-1.37-4.65-4-7.35-7.39-8.29v-.21c3.05.14,4.9.66,6.34,1.61l1-1.61Z"/><path class="cls-1" d="M55.72,162.69c0-3.05,2.8-4.76,6.73-4.76h3.78v.21h-1A3.46,3.46,0,0,0,61.47,162c0,1.93.56,3.4,2.2,3.4a3.86,3.86,0,0,0,2.56-1.23v.21a7.46,7.46,0,0,1-5.57,2.84C57.68,167.17,55.69,165.49,55.72,162.69Zm1.41-9.91c0-1.78,1.6-3.6,6.37-3.81v.21a2.55,2.55,0,0,0-2.24,2.55c0,1.26.87,2,2.27,2.14a3.93,3.93,0,0,1-3.36,1.68A2.81,2.81,0,0,1,57.13,152.78Zm10.15,10.43V152.5c0-1.71-.67-3.08-2.38-3.32V149c5.81.21,8.12,2.41,8.12,7v8.5c0,1,.35,1.44,1,1.44s1.12-.53,1.68-1.58h.21c-.56,1.93-2.45,2.84-4.55,2.84C68.54,167.17,67.28,166.19,67.28,163.21Z"/><path class="cls-1" d="M85.37,164.82c0,.88.53,1.79,2.63,1.79v.21H77v-.21c2.1,0,2.62-.91,2.62-1.79V152.4c0-1.26-.59-1.86-2.59-1.86v-.21A21.51,21.51,0,0,0,85.37,149ZM97,153.9v10.92c0,.88.49,1.79,2.59,1.79v.21h-11v-.21c2.07,0,2.63-.91,2.63-1.79V153.9c0-2-.77-3-2.45-3a3.07,3.07,0,0,0-2.31,1v-.21a5.65,5.65,0,0,1,5.11-2.8C94.89,149,97,150.44,97,153.9Zm11.59,0v10.92c0,.88.52,1.79,2.62,1.79v.21h-11v-.21c2.06,0,2.62-.91,2.62-1.79V153.9c0-2-.77-3-2.45-3A3.08,3.08,0,0,0,98,152v-.21a5.67,5.67,0,0,1,5.11-2.8C106.48,149,108.58,150.44,108.58,153.9Z"/><path class="cls-1" d="M120.54,172.14c0,1.26.6,1.85,2.6,1.85v.21a22.85,22.85,0,0,0-8.37,1.37V152.36c0-1.26-.6-1.85-2.59-1.85v-.21a22.8,22.8,0,0,0,8.36-1.37Zm13.34-14.25c0,7.32-3.85,9.28-7.17,9.28a6.55,6.55,0,0,1-5.11-2.84v-.21a4.87,4.87,0,0,0,2.94,1.23c1.64,0,3.39-1.16,3.39-7.46s-1.64-7.14-3.39-7.14a3.91,3.91,0,0,0-2.94,1.3v-.28a6.51,6.51,0,0,1,5.11-2.8C130.1,149,133.88,150.93,133.88,157.89Z"/><path class="cls-1" d="M137,158a8.66,8.66,0,0,1,8.57-9v.21c-2.06.24-2.62,2-2.62,8.68,0,5,2.24,7.8,5.36,7.8a7.66,7.66,0,0,0,5.11-1.85V164c-1.82,2.31-5.15,3.15-7.42,3.15A8.87,8.87,0,0,1,137,158Zm7.88-1.47c3.08,0,4.37-1,4.37-3.92,0-1.68-.7-3.22-2.27-3.43V149c4.62,0,6.86,3.29,6.86,5.95a9.94,9.94,0,0,1-.18,1.82h-8.78Z"/><path class="cls-1" d="M164.43,164.82c0,.88.53,1.79,2.63,1.79v.21H156v-.21c2.1,0,2.63-.91,2.63-1.79V152.4c0-1.26-.6-1.86-2.59-1.86v-.21a21.49,21.49,0,0,0,8.36-1.36Zm9.46-12.07a3.75,3.75,0,0,1-3.61,4,2.39,2.39,0,0,1-2-.77,2.56,2.56,0,0,0,1.37-2.38,1.85,1.85,0,0,0-2-1.89,2.39,2.39,0,0,0-2.1,1.33v-.28a4.84,4.84,0,0,1,4.55-3.78A3.55,3.55,0,0,1,173.89,152.75Z"/><path class="cls-1" d="M197.3,162.65l.14.28a9.61,9.61,0,0,1-8.44,4.24c-5.7,0-12.81-4.06-12.81-12.22,0-8.85,6.93-12.14,12-12.28v.21c-2.45.52-5.11,2.83-5.11,11.83s3.61,11.06,7.56,11.06A8.56,8.56,0,0,0,197.3,162.65Zm.28-20v8.5h-.28c-1.36-4.65-4-7.35-7.39-8.29v-.21c3.05.14,4.9.66,6.34,1.61l1.05-1.61Z"/><path class="cls-1" d="M200.24,162.69c0-3.05,2.8-4.76,6.72-4.76h3.78v.21h-1.05A3.46,3.46,0,0,0,206,162c0,1.93.56,3.4,2.2,3.4a3.86,3.86,0,0,0,2.56-1.23v.21a7.46,7.46,0,0,1-5.57,2.84C202.2,167.17,200.2,165.49,200.24,162.69Zm1.4-9.91c0-1.78,1.61-3.6,6.37-3.81v.21a2.55,2.55,0,0,0-2.24,2.55c0,1.26.87,2,2.27,2.14a3.93,3.93,0,0,1-3.36,1.68A2.81,2.81,0,0,1,201.64,152.78Zm10.15,10.43V152.5c0-1.71-.67-3.08-2.38-3.32V149c5.81.21,8.12,2.41,8.12,7v8.5c0,1,.35,1.44,1,1.44s1.12-.53,1.68-1.58h.21c-.56,1.93-2.45,2.84-4.55,2.84C213.05,167.17,211.79,166.19,211.79,163.21Z"/><path class="cls-1" d="M229.88,164.82c0,.88.53,1.79,2.63,1.79v.21h-11v-.21c2.1,0,2.63-.91,2.63-1.79V152.4c0-1.26-.6-1.86-2.59-1.86v-.21a21.49,21.49,0,0,0,8.36-1.36Zm9.45-12.07a3.74,3.74,0,0,1-3.6,4,2.39,2.39,0,0,1-2-.77,2.56,2.56,0,0,0,1.37-2.38,1.86,1.86,0,0,0-2-1.89A2.39,2.39,0,0,0,231,153v-.28a4.84,4.84,0,0,1,4.55-3.78A3.55,3.55,0,0,1,239.33,152.75Z"/><path class="cls-1" d="M241.22,158a8.66,8.66,0,0,1,8.58-9v.21c-2.07.24-2.63,2-2.63,8.68,0,5,2.24,7.8,5.36,7.8a7.66,7.66,0,0,0,5.11-1.85V164c-1.82,2.31-5.15,3.15-7.42,3.15A8.87,8.87,0,0,1,241.22,158Zm7.88-1.47c3.08,0,4.37-1,4.37-3.92,0-1.68-.7-3.22-2.27-3.43V149c4.62,0,6.86,3.29,6.86,5.95a9.94,9.94,0,0,1-.18,1.82H249.1Z"/></svg>