<svg id="Layer_1" data-name="Layer 1" xmlns="http://www.w3.org/2000/svg" viewBox="0 0 320 480"><defs><style>.cls-1{fill:#fb0010;}.cls-2{fill:#fff;}.cls-3{fill:none;}</style></defs><title>Artboard 1 copy 3</title><path class="cls-1" d="M15,175.09v51.55A18.36,18.36,0,0,0,24.92,243L102.17,283a23,23,0,0,0,21.17,0L200.6,243a18.37,18.37,0,0,0,9.91-16.31V175.09a8.58,8.58,0,0,0-8.58-8.58H23.58A8.58,8.58,0,0,0,15,175.09Z"/><path class="cls-2" d="M93.51,203.29l.35-.5c.26-.35.53-.37.92-.15a4,4,0,0,0,2.3.83c1,0,1.68-.53,1.68-1.29,0-2.15-5.26-1.7-5.26-5.22,0-2,1.65-3.28,3.8-3.28a5.24,5.24,0,0,1,2.91.86.63.63,0,0,1,.21.91l-.29.53c-.24.46-.57.39-.91.22a3.68,3.68,0,0,0-2-.62c-1,0-1.72.51-1.72,1.27,0,2.12,5.27,1.58,5.27,5.17,0,1.83-1.37,3.34-3.74,3.34a6,6,0,0,1-3.47-1.14A.6.6,0,0,1,93.51,203.29Z"/><path class="cls-2" d="M105.37,195.64h-3a.58.58,0,0,1-.67-.65v-.45a.6.6,0,0,1,.67-.67h8.11a.59.59,0,0,1,.65.67V195a.58.58,0,0,1-.65.65h-3v8.86a.59.59,0,0,1-.66.67H106a.58.58,0,0,1-.65-.67Z"/><path class="cls-2" d="M113.78,194.42a.73.73,0,0,1,.75-.55h1a.7.7,0,0,1,.74.55l3.54,10c.16.46,0,.76-.55.76h-.73a.7.7,0,0,1-.74-.54l-.8-2.35h-4l-.78,2.33a.7.7,0,0,1-.75.56h-.73c-.49,0-.7-.3-.54-.76Zm2.72,6.19-1-3c-.19-.63-.45-1.75-.45-1.75h0s-.25,1.12-.44,1.75l-1,3Z"/><path class="cls-2" d="M121.25,194.54a.59.59,0,0,1,.65-.67H125a5.12,5.12,0,0,1,2.15.31,3.14,3.14,0,0,1,1.89,3.08,3.27,3.27,0,0,1-1.88,3.09v0a3.87,3.87,0,0,1,.37.59l1.86,3.41c.27.46.06.79-.46.79H128a.8.8,0,0,1-.78-.46l-2-3.75h-2v3.54a.58.58,0,0,1-.65.67h-.74a.58.58,0,0,1-.65-.67Zm3.88,4.63a1.66,1.66,0,0,0,1.79-1.79,1.53,1.53,0,0,0-.89-1.55,2.85,2.85,0,0,0-1.23-.19h-1.51v3.53Z"/><path class="cls-2" d="M94.26,208.34a.35.35,0,0,1,.38-.39H95a.35.35,0,0,1,.38.39v10.39a.36.36,0,0,1-.38.4h-.34a.35.35,0,0,1-.38-.4Z"/><path class="cls-2" d="M98,211.53a.36.36,0,0,1,.39-.4h.29a.35.35,0,0,1,.38.4v.92A2.71,2.71,0,0,1,99,213h0a3.53,3.53,0,0,1,3.23-2.08c2,0,2.69,1.13,2.69,3.1v4.69a.36.36,0,0,1-.4.4h-.3c-.26,0-.38-.14-.38-.4v-4.4c0-1.26-.21-2.37-1.75-2.37a3.1,3.1,0,0,0-3,3.26v3.51a.35.35,0,0,1-.38.4H98.4a.36.36,0,0,1-.39-.4Z"/><path class="cls-2" d="M106.68,217.86l.12-.16c.15-.19.32-.21.55-.06a3.46,3.46,0,0,0,2.11.73c.89,0,1.62-.45,1.62-1.29,0-1.8-4.28-1.26-4.28-3.9,0-1.48,1.26-2.24,2.73-2.24a3.67,3.67,0,0,1,2.19.65.35.35,0,0,1,.11.53l-.11.17a.35.35,0,0,1-.54.11,3,3,0,0,0-1.72-.51c-.84,0-1.57.37-1.57,1.24,0,1.85,4.26,1.26,4.26,3.93,0,1.32-1.11,2.26-2.7,2.26a4.23,4.23,0,0,1-2.71-.92A.35.35,0,0,1,106.68,217.86Z"/><path class="cls-2" d="M113.76,211.53c0-.26.12-.4.38-.4h.3a.36.36,0,0,1,.4.4v4.4c0,1.26.19,2.38,1.73,2.38a3.11,3.11,0,0,0,3-3.35v-3.43a.36.36,0,0,1,.4-.4h.3c.26,0,.38.14.38.4v7.2c0,.26-.12.4-.38.4H120a.35.35,0,0,1-.39-.4v-.92a3.23,3.23,0,0,1,0-.57h0a3.47,3.47,0,0,1-3.15,2.08c-1.89,0-2.67-1-2.67-3.1Z"/><path class="cls-2" d="M123,211.53a.36.36,0,0,1,.4-.4h.28a.35.35,0,0,1,.38.4v1.08a3.53,3.53,0,0,1-.06.64h0a2.85,2.85,0,0,1,2.58-2.17c.29,0,.41.13.41.38v.29a.39.39,0,0,1-.44.4c-1.69,0-2.5,1.92-2.5,3.59v3a.35.35,0,0,1-.38.4h-.3a.36.36,0,0,1-.4-.4Z"/><path class="cls-2" d="M132.49,214.23H133V214c0-1.55-.84-2.07-2-2.07a3.7,3.7,0,0,0-1.94.56.37.37,0,0,1-.54-.13l-.1-.16a.36.36,0,0,1,.12-.54,4.79,4.79,0,0,1,2.54-.7,2.72,2.72,0,0,1,3,3.07v4.72a.35.35,0,0,1-.39.4h-.25a.35.35,0,0,1-.4-.4v-.63a3.3,3.3,0,0,1,.05-.61h0a3,3,0,0,1-2.71,1.83,2.46,2.46,0,0,1-2.7-2.34C127.61,214.38,131,214.23,132.49,214.23Zm-2,4.19c1.55,0,2.45-1.59,2.45-3V215h-.44c-1.26,0-3.79.05-3.79,1.85A1.6,1.6,0,0,0,130.5,218.42Z"/><path class="cls-2" d="M136.31,211.53a.36.36,0,0,1,.39-.4H137a.35.35,0,0,1,.38.4v.92a2.71,2.71,0,0,1-.06.57h0a3.53,3.53,0,0,1,3.23-2.08c2,0,2.69,1.13,2.69,3.1v4.69a.36.36,0,0,1-.4.4h-.3c-.26,0-.38-.14-.38-.4v-4.4c0-1.26-.21-2.37-1.75-2.37a3.1,3.1,0,0,0-3,3.26v3.51a.35.35,0,0,1-.38.4h-.31a.36.36,0,0,1-.39-.4Z"/><path class="cls-2" d="M149.24,210.94a4.2,4.2,0,0,1,2.66.91.34.34,0,0,1,0,.54l-.11.17c-.14.22-.32.22-.54.08a3.3,3.3,0,0,0-2-.73,3.22,3.22,0,0,0,0,6.44,3.47,3.47,0,0,0,2.26-.84.32.32,0,0,1,.53.1l.11.15a.39.39,0,0,1-.1.55,4.47,4.47,0,0,1-2.85,1,4.19,4.19,0,1,1,0-8.38Z"/><path class="cls-2" d="M157.13,210.94c2.13,0,3.34,1.54,3.34,3.82a.4.4,0,0,1-.42.39h-5.76a3.05,3.05,0,0,0,3.11,3.2,3.42,3.42,0,0,0,2.1-.73.33.33,0,0,1,.52.1l.13.19a.37.37,0,0,1-.11.52,4.57,4.57,0,0,1-2.68.89,4,4,0,0,1-4.18-4.18A3.9,3.9,0,0,1,157.13,210.94Zm2.24,3.4a2.3,2.3,0,0,0-2.28-2.51,2.76,2.76,0,0,0-2.75,2.51Z"/><path class="cls-2" d="M99.16,222.68a6.27,6.27,0,0,1,3.69,1.13.61.61,0,0,1,.13.92l-.29.46c-.22.37-.52.4-.9.16a4.73,4.73,0,0,0-2.55-.79,3.64,3.64,0,0,0-3.79,3.88,3.79,3.79,0,0,0,3.81,4,4.64,4.64,0,0,0,2.76-1,.59.59,0,0,1,.93.12l.32.42a.63.63,0,0,1-.1.93,6.34,6.34,0,0,1-4,1.4,5.84,5.84,0,0,1,0-11.68Z"/><path class="cls-2" d="M109.17,229.16h.33V229a1.33,1.33,0,0,0-1.51-1.43,3.73,3.73,0,0,0-1.68.46.61.61,0,0,1-.9-.27l-.15-.3a.59.59,0,0,1,.25-.89,5.75,5.75,0,0,1,2.66-.67,3,3,0,0,1,3.35,3.23v4.41a.59.59,0,0,1-.66.67h-.55a.59.59,0,0,1-.65-.67v-.32a1.72,1.72,0,0,1,0-.35h0a2.94,2.94,0,0,1-2.54,1.53,2.49,2.49,0,0,1-2.69-2.44C104.43,229.55,107.36,229.16,109.17,229.16Zm-1.51,3.65a2.06,2.06,0,0,0,1.86-2.13v-.3h-.33c-1,0-2.76.16-2.76,1.37A1.1,1.1,0,0,0,107.66,232.81Z"/><path class="cls-2" d="M113.43,226.72a.6.6,0,0,1,.66-.67h.62a.59.59,0,0,1,.65.67v.49a2.75,2.75,0,0,1,0,.37h0a3.11,3.11,0,0,1,2.66-1.72,2.26,2.26,0,0,1,2.37,1.67h0a3.23,3.23,0,0,1,2.77-1.67c1.68,0,2.66,1,2.66,3.09v4.55a.6.6,0,0,1-.67.67h-.69a.6.6,0,0,1-.67-.67v-4.17c0-.92-.17-1.62-1.11-1.62-1.37,0-2.07,1.4-2.07,2.81v3a.59.59,0,0,1-.65.67h-.7a.6.6,0,0,1-.67-.67v-4.17c0-.88-.13-1.62-1.08-1.62-1.43,0-2.1,1.46-2.1,2.81v3a.59.59,0,0,1-.65.67h-.7a.59.59,0,0,1-.66-.67Z"/><path class="cls-2" d="M127.78,226.72a.61.61,0,0,1,.67-.67H129c.43,0,.65.24.65.56V227a2.45,2.45,0,0,1,0,.31h0a2.9,2.9,0,0,1,2.61-1.43c2.19,0,3.61,1.74,3.61,4.25s-1.59,4.25-3.73,4.25a2.63,2.63,0,0,1-2.33-1.24h0a4.39,4.39,0,0,1,.05.7v2.86a.59.59,0,0,1-.67.67h-.68a.6.6,0,0,1-.67-.67Zm4,5.94c1.11,0,2-.91,2-2.52s-.82-2.54-2-2.54-2,.76-2,2.56A2.24,2.24,0,0,0,131.76,232.66Z"/><path class="cls-2" d="M141.07,225.86c2.3,0,3.59,1.64,3.59,3.87a.7.7,0,0,1-.7.68H139a2.32,2.32,0,0,0,2.43,2.23,3.33,3.33,0,0,0,1.75-.53c.4-.19.68-.14.89.23l.19.32a.61.61,0,0,1-.22.89,5.18,5.18,0,0,1-2.75.81,4.16,4.16,0,0,1-4.36-4.25A4,4,0,0,1,141.07,225.86Zm1.59,3.33a1.65,1.65,0,0,0-1.64-1.8,2,2,0,0,0-2,1.8Z"/><path class="cls-2" d="M146.18,226.72a.6.6,0,0,1,.66-.67h.62a.6.6,0,0,1,.66.67v.76a4,4,0,0,1,0,.56h0a2.79,2.79,0,0,1,2.35-2c.45,0,.61.22.61.67v.62a.62.62,0,0,1-.69.67c-1.48,0-2.19,1.46-2.19,2.94v2.61a.59.59,0,0,1-.65.67h-.7a.59.59,0,0,1-.66-.67Z"/><path class="cls-2" d="M157.78,222.68a6.34,6.34,0,0,1,3.7,1.13.61.61,0,0,1,.12.92l-.28.46c-.23.37-.53.4-.91.16a4.67,4.67,0,0,0-2.55-.79,3.64,3.64,0,0,0-3.78,3.88,3.79,3.79,0,0,0,3.8,4,4.7,4.7,0,0,0,2.77-1,.57.57,0,0,1,.92.12l.32.42a.62.62,0,0,1-.1.93,6.31,6.31,0,0,1-4,1.4,5.84,5.84,0,0,1,0-11.68Z"/><path class="cls-2" d="M167.79,229.16h.34V229a1.33,1.33,0,0,0-1.51-1.43,3.74,3.74,0,0,0-1.69.46.59.59,0,0,1-.89-.27l-.16-.3a.59.59,0,0,1,.25-.89,5.79,5.79,0,0,1,2.66-.67,3,3,0,0,1,3.36,3.23v4.41a.59.59,0,0,1-.67.67h-.54a.59.59,0,0,1-.65-.67v-.32a1.72,1.72,0,0,1,0-.35h0a3,3,0,0,1-2.55,1.53,2.49,2.49,0,0,1-2.69-2.44C163.05,229.55,166,229.16,167.79,229.16Zm-1.51,3.65a2.06,2.06,0,0,0,1.86-2.13v-.3h-.33c-1,0-2.75.16-2.75,1.37A1.09,1.09,0,0,0,166.28,232.81Z"/><path class="cls-2" d="M172.06,226.72a.59.59,0,0,1,.65-.67h.62a.61.61,0,0,1,.67.67v.76a3.18,3.18,0,0,1-.05.56h0a2.79,2.79,0,0,1,2.36-2c.44,0,.6.22.6.67v.62a.61.61,0,0,1-.68.67c-1.48,0-2.2,1.46-2.2,2.94v2.61a.59.59,0,0,1-.65.67h-.7a.59.59,0,0,1-.65-.67Z"/><path class="cls-2" d="M181.54,225.86c2.31,0,3.6,1.64,3.6,3.87a.7.7,0,0,1-.7.68h-4.95a2.33,2.33,0,0,0,2.43,2.23,3.33,3.33,0,0,0,1.75-.53c.4-.19.69-.14.9.23l.19.32a.61.61,0,0,1-.23.89,5.15,5.15,0,0,1-2.75.81,4.16,4.16,0,0,1-4.36-4.25A4,4,0,0,1,181.54,225.86Zm1.59,3.33a1.65,1.65,0,0,0-1.64-1.8,2,2,0,0,0-2,1.8Z"/><path class="cls-2" d="M55.89,229.09a1.16,1.16,0,0,1-.51-.12,1.13,1.13,0,0,1-.56-1.35L66.6,191.37A2.49,2.49,0,0,1,69,189.63h0a2.49,2.49,0,0,1,2.4,1.74l2.38,7.18a.85.85,0,1,1-1.62.54l-2.38-7.19a.79.79,0,0,0-.78-.56h0a.79.79,0,0,0-.77.56L57.57,224.68l15-20.53a4.67,4.67,0,0,1,3.76-1.92h10a2.52,2.52,0,0,1,1.48,4.55l-9.14,6.64-.1.09,3.54,10.86a2.52,2.52,0,0,1-3.87,2.81l-7.91-5.74a2.53,2.53,0,0,1,0-4.07l6.63-4.8.1-.09,9.74-7.08a.78.78,0,0,0,.3-.9.79.79,0,0,0-.77-.56h-10A3,3,0,0,0,74,205.15L56.8,228.63A1.12,1.12,0,0,1,55.89,229.09Zm21.24-14.53-5.78,4.19a.8.8,0,0,0,0,1.31l7.9,5.74a.79.79,0,0,0,1,0,.78.78,0,0,0,.29-.9Z"/><path class="cls-2" d="M56.5,211.07a.88.88,0,0,1-.49-.15l-5.83-4.13a2.52,2.52,0,0,1,1.47-4.56H58.8a.86.86,0,0,1,.85.86.85.85,0,0,1-.85.85H51.65a.81.81,0,0,0-.48,1.46L57,209.52a.86.86,0,0,1,.2,1.19A.85.85,0,0,1,56.5,211.07Z"/><path class="cls-2" d="M64.44,241.13a2.82,2.82,0,0,1-1.37-.37l-14.89-8.45a.85.85,0,0,1-.44-.74V213.39a.86.86,0,0,1,.86-.85.85.85,0,0,1,.85.85v17.68l14.46,8.21a1.11,1.11,0,0,0,1.1,0l10.56-6.62a.86.86,0,1,1,.91,1.45L65.91,240.7A2.79,2.79,0,0,1,64.44,241.13Z"/><rect class="cls-3" x="0.62" width="320" height="480"/></svg>