<svg id="Layer_1" data-name="Layer 1" xmlns="http://www.w3.org/2000/svg" xmlns:xlink="http://www.w3.org/1999/xlink" viewBox="0 0 300 250"><defs><style>.cls-1{fill:none;}.cls-2{clip-path:url(#clip-path);}.cls-3{fill:#fff;}</style><clipPath id="clip-path"><rect class="cls-1" width="300" height="250"/></clipPath></defs><title>Artboard 1</title><g class="cls-2"><path class="cls-3" d="M31.76,52.94v.17a10.71,10.71,0,0,1-5.43-1.37l-.92,1.37h-.23V46.28h.23A9.39,9.39,0,0,0,31.76,52.94ZM40,47.37c0,3.61-2.69,5.57-7,5.74v-.17c1.54-.28,3.05-1.17,3.05-2.85,0-4.9-10.7-5.35-10.7-11,0-3.35,2.72-5.29,6.44-5.54v.17a2.64,2.64,0,0,0-2.46,2.57C29.3,41.16,40,41.69,40,47.37ZM33,33.68v-.17A9,9,0,0,1,38,35l1-1.49h.22v6.24H39A8.93,8.93,0,0,0,33,33.68Z"/><path class="cls-3" d="M52.76,50.67v.17A5.83,5.83,0,0,1,48,53.11c-2.52,0-4.32-1.15-4.32-4V40H42.21l.31-.42h1.14v-3A7.09,7.09,0,0,0,48.25,35v4.59H52l-.31.42H48.25v9.27c0,1.4.54,2.85,1.85,2.85A4.08,4.08,0,0,0,52.76,50.67Z"/><path class="cls-3" d="M53.66,49.53c0-2.44,2.24-3.81,5.37-3.81h3v.17h-.84a2.77,2.77,0,0,0-3,3c0,1.54.45,2.72,1.76,2.72a3,3,0,0,0,2.05-1v.17a6,6,0,0,1-4.45,2.27C55.23,53.11,53.63,51.77,53.66,49.53Zm1.12-7.93c0-1.43,1.29-2.88,5.09-3.05v.17a2,2,0,0,0-1.79,2c0,1,.7,1.63,1.82,1.71a3.16,3.16,0,0,1-2.69,1.35A2.24,2.24,0,0,1,54.78,41.6ZM62.9,50V41.38c0-1.37-.53-2.46-1.91-2.66v-.17c4.65.17,6.5,1.93,6.5,5.6V51c0,.81.28,1.14.78,1.14s.9-.42,1.35-1.26h.17c-.45,1.54-2,2.27-3.64,2.27C63.91,53.11,62.9,52.33,62.9,50Z"/><path class="cls-3" d="M77.37,51.24c0,.7.42,1.42,2.1,1.42v.17H70.65v-.17c1.68,0,2.1-.72,2.1-1.42v-10c0-1-.47-1.48-2.07-1.48v-.17a17.12,17.12,0,0,0,6.69-1.09Zm7.56-9.66a3,3,0,0,1-2.88,3.19,1.92,1.92,0,0,1-1.6-.62,2,2,0,0,0,1.1-1.9A1.49,1.49,0,0,0,80,40.74,1.92,1.92,0,0,0,78.3,41.8v-.22a3.87,3.87,0,0,1,3.64-3A2.84,2.84,0,0,1,84.93,41.58Z"/><path class="cls-3" d="M24.65,82.83v-.17c1.68,0,2.1-.64,2.1-1.42V65.42c0-.79-.42-1.46-2.1-1.46v-.17h6.86v19Zm15.65-19V69h-.22c-1.2-3.53-2.91-4.73-7.17-5v-.17Zm-7.39,9.27v-.17l1.54-.14a4.32,4.32,0,0,0,3.7-2.41h.22v5.21h-.22a4.28,4.28,0,0,0-3.7-2.35Zm0,9.6c4.26-.28,6.25-1.48,7.76-5h.22v5.18h-8Z"/><path class="cls-3" d="M43,82.66c1.68,0,2.1-.72,2.1-1.42V71.29c0-1-.47-1.48-2.07-1.48v-.17a17.15,17.15,0,0,0,6.69-1.09V81.24c0,.7.42,1.42,2.1,1.42v.17H43Zm9.86,0c1.65,0,2.07-.72,2.07-1.42V72.5c0-1.57-.81-2.38-2.21-2.38a3,3,0,0,0-2.13.87v-.17a5.72,5.72,0,0,1,4.65-2.27c2.52,0,4.31,1.18,4.31,4v8.74c0,.7.42,1.42,2.1,1.42v.17H52.82Z"/><path class="cls-3" d="M73.48,80.67v.17a5.85,5.85,0,0,1-4.79,2.27c-2.52,0-4.31-1.15-4.31-4V70H62.93l.3-.42h1.15v-3A7.09,7.09,0,0,0,69,65v4.59h3.78l-.3.42H69v9.27c0,1.4.54,2.85,1.85,2.85A4.08,4.08,0,0,0,73.48,80.67Z"/><path class="cls-3" d="M80.71,81.24c0,.7.42,1.42,2.1,1.42v.17H74v-.17c1.68,0,2.1-.72,2.1-1.42V65c0-1-.48-1.49-2.08-1.49v-.17a17.21,17.21,0,0,0,6.7-1.09Zm9.8-8.74v8.74c0,.7.42,1.42,2.1,1.42v.17h-8.8v-.17c1.66,0,2.08-.72,2.08-1.42V72.5a2.08,2.08,0,0,0-2.22-2.38,3,3,0,0,0-2.12.87v-.17a5.69,5.69,0,0,1,4.64-2.27C88.71,68.55,90.51,69.73,90.51,72.5Z"/><path class="cls-3" d="M100,79.16c0,1.57.53,2.38,1.93,2.38a2.45,2.45,0,0,0,1.93-.87v.17a4.65,4.65,0,0,1-4.34,2.27c-2.52,0-4.14-1.17-4.14-4V71.29c0-1-.48-1.48-2.08-1.48v-.17a17.21,17.21,0,0,0,6.7-1.09Zm9.32,1.8c0,.81.25,1.14.76,1.14s.89-.42,1.34-1.26h.17c-.45,1.54-2,2.27-3.81,2.27s-3.08-1.12-3.08-2.74V71.29c0-1-.48-1.48-2-1.48v-.17a18.25,18.25,0,0,0,6.61-1.09Z"/><path class="cls-3" d="M118.11,79.5a1.43,1.43,0,0,0-1.56,1.4c0,.81.56,1.85,2.49,2v.17c-3.73-.14-5.77-1.15-5.77-2.77a2.18,2.18,0,0,1,2.38-2.07A2.84,2.84,0,0,1,118.11,79.5ZM119,68.72c-1,.2-2.05.73-2,1.87.09,3.25,9.16,3.79,9.16,8.24,0,2.71-2.3,4.14-5.91,4.28v-.17c1.18-.19,2.49-.61,2.49-2.07,0-2.91-9.18-4-9.18-8.23,0-2.47,2.32-4,5.46-4.09Zm6.61,2.72a1.84,1.84,0,0,1-2.08,1.73,2.41,2.41,0,0,1-2.38-1.34,1.25,1.25,0,0,0,1.26-1.32c0-.84-1.06-1.65-2.18-1.79v-.17C123.43,68.72,125.65,69.87,125.65,71.44Z"/><path class="cls-3" d="M128.08,69.62a17.12,17.12,0,0,0,6.69-1.1V81.24c0,.7.42,1.42,2.1,1.42v.17h-8.82v-.17c1.68,0,2.1-.72,2.1-1.42v-10c0-1-.47-1.49-2.07-1.49Zm1.43-5.27c0-1.45,1.18-2.43,2.86-2.43s2.85,1,2.85,2.43a2.55,2.55,0,0,1-2.85,2.47C130.69,66.82,129.51,65.83,129.51,64.35Z"/><path class="cls-3" d="M138.27,79.53c0-2.44,2.24-3.81,5.38-3.81h3v.17h-.84a2.77,2.77,0,0,0-3,3c0,1.54.44,2.72,1.76,2.72a3,3,0,0,0,2-1v.17a5.92,5.92,0,0,1-4.45,2.27C139.84,83.11,138.25,81.77,138.27,79.53Zm1.12-7.93c0-1.43,1.29-2.88,5.1-3v.17a2,2,0,0,0-1.79,2c0,1,.7,1.63,1.82,1.71a3.16,3.16,0,0,1-2.69,1.35A2.25,2.25,0,0,1,139.39,71.6ZM147.51,80V71.38c0-1.37-.53-2.46-1.9-2.66v-.17c4.65.17,6.5,1.93,6.5,5.6V81c0,.81.28,1.14.78,1.14s.9-.42,1.34-1.26h.17c-.45,1.54-2,2.27-3.64,2.27C148.52,83.11,147.51,82.33,147.51,80Z"/><path class="cls-3" d="M160.65,79.5a1.43,1.43,0,0,0-1.57,1.4c0,.81.56,1.85,2.49,2v.17c-3.72-.14-5.77-1.15-5.77-2.77a2.18,2.18,0,0,1,2.38-2.07A2.86,2.86,0,0,1,160.65,79.5Zm.92-10.78c-1,.2-2,.73-2,1.87.09,3.25,9.16,3.79,9.16,8.24,0,2.71-2.3,4.14-5.91,4.28v-.17c1.18-.19,2.49-.61,2.49-2.07,0-2.91-9.18-4-9.18-8.23,0-2.47,2.32-4,5.46-4.09Zm6.61,2.72a1.83,1.83,0,0,1-2.07,1.73,2.39,2.39,0,0,1-2.38-1.34A1.26,1.26,0,0,0,165,70.51c0-.84-1.07-1.65-2.19-1.79v-.17C166,68.72,168.18,69.87,168.18,71.44Z"/><path class="cls-3" d="M181.42,80.67v.17a5.85,5.85,0,0,1-4.79,2.27c-2.52,0-4.31-1.15-4.31-4V70h-1.45l.3-.42h1.15v-3A7.09,7.09,0,0,0,176.91,65v4.59h3.78l-.31.42h-3.47v9.27c0,1.4.54,2.85,1.85,2.85A4.11,4.11,0,0,0,181.42,80.67Z"/><path class="cls-3" d="M24.65,112.66c1.68,0,2.1-.67,2.1-1.42V95.39c0-.76-.42-1.43-2.1-1.43v-.17h9V94c-1.68,0-2.1.67-2.1,1.43v15.85c0,.75.42,1.42,2.1,1.42v.17h-9Z"/><path class="cls-3" d="M35.49,112.66c1.68,0,2.1-.72,2.1-1.42v-9.95c0-1-.48-1.48-2.07-1.48v-.17a17.19,17.19,0,0,0,6.69-1.09v12.69c0,.7.42,1.42,2.1,1.42v.17H35.49Zm9.85,0c1.66,0,2.08-.72,2.08-1.42V102.5a2.08,2.08,0,0,0-2.22-2.38,3,3,0,0,0-2.13.87v-.17a5.72,5.72,0,0,1,4.65-2.27c2.52,0,4.31,1.18,4.31,4v8.74c0,.7.43,1.42,2.1,1.42v.17H45.34Z"/><path class="cls-3" d="M60.52,109.5A1.43,1.43,0,0,0,59,110.9c0,.81.56,1.85,2.49,2v.17c-3.72-.14-5.77-1.15-5.77-2.77a2.18,2.18,0,0,1,2.38-2.07A2.86,2.86,0,0,1,60.52,109.5Zm.92-10.78c-1,.2-2,.73-2,1.87.08,3.25,9.15,3.79,9.15,8.24,0,2.71-2.29,4.14-5.91,4.28v-.17c1.18-.19,2.5-.61,2.5-2.07,0-2.91-9.19-4-9.19-8.23,0-2.47,2.33-4,5.46-4.09Zm6.61,2.72A1.83,1.83,0,0,1,66,103.17a2.39,2.39,0,0,1-2.38-1.34,1.25,1.25,0,0,0,1.26-1.32c0-.84-1.07-1.65-2.19-1.79v-.17C65.84,98.72,68.05,99.87,68.05,101.44Z"/><path class="cls-3" d="M76.84,109.16c0,1.57.54,2.38,1.93,2.38a2.47,2.47,0,0,0,1.94-.87v.17a4.67,4.67,0,0,1-4.34,2.27c-2.52,0-4.15-1.17-4.15-4v-7.87c0-1-.47-1.48-2.07-1.48v-.17a17.19,17.19,0,0,0,6.69-1.09Zm9.33,1.8c0,.81.25,1.14.75,1.14s.9-.42,1.35-1.26h.16c-.44,1.54-2,2.27-3.8,2.27s-3.08-1.12-3.08-2.74v-9.08c0-1-.48-1.48-2-1.48v-.17a18.28,18.28,0,0,0,6.61-1.09Z"/><path class="cls-3" d="M96.27,111.24c0,.7.42,1.42,2.11,1.42v.17H89.55v-.17c1.68,0,2.1-.72,2.1-1.42v-9.95c0-1-.47-1.48-2.07-1.48v-.17a17.12,17.12,0,0,0,6.69-1.09Zm7.56-9.66a3,3,0,0,1-2.88,3.19,1.92,1.92,0,0,1-1.6-.62,2,2,0,0,0,1.1-1.9,1.49,1.49,0,0,0-1.57-1.51,1.92,1.92,0,0,0-1.68,1.06v-.22a3.87,3.87,0,0,1,3.64-3A2.84,2.84,0,0,1,103.83,101.58Z"/><path class="cls-3" d="M105,109.53c0-2.44,2.24-3.81,5.37-3.81h3v.17h-.84a2.77,2.77,0,0,0-3,3c0,1.54.45,2.72,1.76,2.72a3,3,0,0,0,2-1v.17a6,6,0,0,1-4.45,2.27C106.61,113.11,105,111.77,105,109.53Zm1.12-7.93c0-1.43,1.29-2.88,5.09-3v.17a2,2,0,0,0-1.79,2c0,1,.7,1.63,1.82,1.71a3.16,3.16,0,0,1-2.69,1.35A2.24,2.24,0,0,1,106.16,101.6Zm8.12,8.35v-8.57c0-1.37-.53-2.46-1.91-2.66v-.17c4.65.17,6.5,1.93,6.5,5.6V111c0,.81.28,1.14.78,1.14s.9-.42,1.35-1.26h.17c-.45,1.54-2,2.27-3.64,2.27C115.29,113.11,114.28,112.33,114.28,110Z"/><path class="cls-3" d="M122,112.66c1.68,0,2.1-.72,2.1-1.42v-9.95c0-1-.47-1.48-2.07-1.48v-.17a17.12,17.12,0,0,0,6.69-1.09v12.69c0,.7.42,1.42,2.1,1.42v.17H122Zm9.86,0c1.65,0,2.07-.72,2.07-1.42V102.5c0-1.57-.81-2.38-2.21-2.38a3,3,0,0,0-2.13.87v-.17a5.72,5.72,0,0,1,4.65-2.27c2.52,0,4.31,1.18,4.31,4v8.74c0,.7.42,1.42,2.1,1.42v.17h-8.79Z"/><path class="cls-3" d="M149.36,98.72c-1.65.2-2.38,1.6-2.38,6.94,0,4,2.05,6.25,4.54,6.25a6.1,6.1,0,0,0,4.09-1.49v.17a7.86,7.86,0,0,1-5.94,2.52,7.32,7.32,0,0,1-7.48-7.33,7.18,7.18,0,0,1,7.17-7.23Zm6.22,3a2.6,2.6,0,0,1-2.8,2.69,2.38,2.38,0,0,1-2.44-1.76,2.42,2.42,0,0,0,1.35-2,1.65,1.65,0,0,0-1.21-1.84v-.2C154.15,98.55,155.58,100.12,155.58,101.71Z"/><path class="cls-3" d="M157.68,105.78a6.93,6.93,0,0,1,6.86-7.23v.17c-1.65.2-2.1,1.6-2.1,6.94,0,4,1.79,6.25,4.28,6.25a6.09,6.09,0,0,0,4.09-1.49v.17a7.86,7.86,0,0,1-5.94,2.52A7.09,7.09,0,0,1,157.68,105.78Zm6.3-1.18c2.46,0,3.5-.78,3.5-3.14,0-1.34-.56-2.57-1.82-2.74v-.17c3.69,0,5.49,2.63,5.49,4.76a8.71,8.71,0,0,1-.14,1.46h-7Z"/></g></svg>