<svg id="Layer_1" data-name="Layer 1" xmlns="http://www.w3.org/2000/svg" xmlns:xlink="http://www.w3.org/1999/xlink" viewBox="0 0 300 250"><defs><style>.cls-1{fill:none;}.cls-2{clip-path:url(#clip-path);}.cls-3{fill:#fff;}</style><clipPath id="clip-path"><rect class="cls-1" width="300" height="250"/></clipPath></defs><title>Artboard 1 copy</title><g class="cls-2"><path class="cls-3" d="M24.65,54.66c1.68,0,2.1-.64,2.1-1.42V37.39c0-.79-.42-1.43-2.1-1.43v-.17h6.86V53.24c0,.78.42,1.42,2.1,1.42v.17h-9ZM32.91,36v-.17h7.7v5.6h-.22C39.1,37.42,37.17,36.24,32.91,36Zm1.54,9.52-1.54-.14v-.17L34.45,45a4.32,4.32,0,0,0,3.7-2.41h.22v5.21h-.22A4.28,4.28,0,0,0,34.45,45.48Z"/><path class="cls-3" d="M48.76,40.72c-1.65.2-2.21,1.6-2.21,7.06,0,5.26.56,7,2.21,7.16v.17a7.13,7.13,0,0,1-7-7.33,7,7,0,0,1,7-7.23Zm8.06,7.06a7.13,7.13,0,0,1-6.94,7.33v-.17c1.65-.16,2.18-1.93,2.18-7.16,0-5.49-.56-6.89-2.18-7.06v-.17A7,7,0,0,1,56.82,47.78Z"/><path class="cls-3" d="M65.39,53.24c0,.7.42,1.42,2.1,1.42v.17H58.67v-.17c1.68,0,2.1-.72,2.1-1.42V43.3c0-1-.48-1.49-2.07-1.49v-.17a17.19,17.19,0,0,0,6.69-1.09ZM73,43.58a3,3,0,0,1-2.88,3.19,1.9,1.9,0,0,1-1.6-.62,2,2,0,0,0,1.09-1.9A1.48,1.48,0,0,0,68,42.74a2,2,0,0,0-1.69,1.06v-.22a3.89,3.89,0,0,1,3.65-3A2.84,2.84,0,0,1,73,43.58Z"/><path class="cls-3" d="M91.38,52.68v.16a5.86,5.86,0,0,1-4.79,2.27c-2.52,0-4.31-1.15-4.31-4V42H80.82l.31-.42h1.15v-3A7.13,7.13,0,0,0,86.87,37v4.59h3.78l-.31.42H86.87v9.27c0,1.4.53,2.85,1.84,2.85A4.15,4.15,0,0,0,91.38,52.68Z"/><path class="cls-3" d="M98.6,53.24c0,.7.42,1.42,2.1,1.42v.17H91.88v-.17c1.68,0,2.1-.72,2.1-1.42V37c0-1-.48-1.49-2.07-1.49v-.17a17.19,17.19,0,0,0,6.69-1.09Zm9.8-8.74v8.74c0,.7.42,1.42,2.1,1.42v.17h-8.79v-.17c1.65,0,2.07-.72,2.07-1.42V44.5c0-1.57-.81-2.38-2.21-2.38a3,3,0,0,0-2.13.87v-.17a5.69,5.69,0,0,1,4.65-2.27C106.61,40.55,108.4,41.73,108.4,44.5Z"/><path class="cls-3" d="M112,47.78a6.93,6.93,0,0,1,6.86-7.23v.17c-1.65.2-2.1,1.6-2.1,6.94,0,4,1.79,6.25,4.28,6.25a6.07,6.07,0,0,0,4.09-1.49v.17a7.82,7.82,0,0,1-5.93,2.52A7.09,7.09,0,0,1,112,47.78Zm6.3-1.18c2.46,0,3.5-.78,3.5-3.14,0-1.34-.56-2.57-1.82-2.74v-.17c3.7,0,5.49,2.63,5.49,4.76a8.71,8.71,0,0,1-.14,1.46h-7Z"/><path class="cls-3" d="M140.63,51.3c0,2.66-1.82,3.81-4.62,3.81V37c0-1-.51-1.49-2.1-1.49v-.17a18.59,18.59,0,0,0,6.72-1.09Zm10.66-3.61c0,5.85-3.1,7.42-5.76,7.42a5.18,5.18,0,0,1-4.06-2.27v-.16a3.84,3.84,0,0,0,2.32,1c1.32,0,2.74-.93,2.74-6S145.19,42,143.79,42a3.1,3.1,0,0,0-2.32,1v-.22a5.18,5.18,0,0,1,4.06-2.24C148.24,40.55,151.29,42.12,151.29,47.69Z"/><path class="cls-3" d="M153.76,47.78a6.93,6.93,0,0,1,6.86-7.23v.17c-1.65.2-2.1,1.6-2.1,6.94,0,4,1.79,6.25,4.28,6.25a6.09,6.09,0,0,0,4.09-1.49v.17A7.86,7.86,0,0,1,161,55.11,7.09,7.09,0,0,1,153.76,47.78Zm6.3-1.18c2.46,0,3.5-.78,3.5-3.14,0-1.34-.56-2.57-1.82-2.74v-.17c3.69,0,5.49,2.63,5.49,4.76a8.71,8.71,0,0,1-.14,1.46h-7Z"/><path class="cls-3" d="M174.39,51.5a1.43,1.43,0,0,0-1.56,1.4c0,.81.56,1.85,2.49,2v.17c-3.73-.14-5.77-1.15-5.77-2.77a2.18,2.18,0,0,1,2.38-2.07A2.84,2.84,0,0,1,174.39,51.5Zm.93-10.78c-1,.2-2,.73-2,1.88.09,3.24,9.16,3.78,9.16,8.23,0,2.71-2.3,4.14-5.91,4.28v-.17c1.18-.19,2.49-.61,2.49-2.07,0-2.91-9.18-4-9.18-8.23,0-2.46,2.32-4,5.46-4.09Zm6.61,2.72a1.84,1.84,0,0,1-2.08,1.73,2.41,2.41,0,0,1-2.38-1.34,1.25,1.25,0,0,0,1.26-1.32c0-.84-1.06-1.65-2.18-1.79v-.17C179.71,40.72,181.93,41.87,181.93,43.44Z"/><path class="cls-3" d="M195.17,52.68v.16a5.86,5.86,0,0,1-4.79,2.27c-2.52,0-4.31-1.15-4.31-4V42h-1.46l.31-.42h1.15v-3A7.09,7.09,0,0,0,190.66,37v4.59h3.78l-.31.42h-3.47v9.27c0,1.4.53,2.85,1.85,2.85A4.13,4.13,0,0,0,195.17,52.68Z"/><path class="cls-3" d="M29.5,81.5a1.43,1.43,0,0,0-1.57,1.4c0,.81.56,1.85,2.49,2v.17C26.7,85,24.65,84,24.65,82.34A2.18,2.18,0,0,1,27,80.27,2.86,2.86,0,0,1,29.5,81.5Zm.92-10.78c-1,.2-2,.73-2,1.88.09,3.24,9.16,3.78,9.16,8.23,0,2.71-2.3,4.14-5.91,4.28v-.17c1.18-.19,2.49-.61,2.49-2.07,0-2.91-9.18-4-9.18-8.23,0-2.46,2.32-4,5.46-4.09ZM37,73.44A1.83,1.83,0,0,1,35,75.17a2.39,2.39,0,0,1-2.38-1.34,1.26,1.26,0,0,0,1.26-1.32c0-.84-1.07-1.65-2.19-1.79v-.17C34.82,70.72,37,71.87,37,73.44Z"/><path class="cls-3" d="M45.88,89.09c0,1,.47,1.48,2.07,1.48v.17a18.45,18.45,0,0,0-6.7,1.09V73.27c0-1-.47-1.49-2.07-1.49v-.16a18.24,18.24,0,0,0,6.7-1.1Zm10.66-11.4c0,5.85-3.08,7.42-5.74,7.42a5.27,5.27,0,0,1-4.09-2.27v-.16a4,4,0,0,0,2.36,1c1.31,0,2.71-.93,2.71-6S50.47,72,49.07,72a3.2,3.2,0,0,0-2.36,1v-.22a5.27,5.27,0,0,1,4.09-2.24C53.52,70.55,56.54,72.12,56.54,77.69Z"/><path class="cls-3" d="M59,77.78a6.93,6.93,0,0,1,6.86-7.23v.17c-1.66.2-2.1,1.6-2.1,6.94,0,4,1.79,6.25,4.28,6.25a6.09,6.09,0,0,0,4.09-1.49v.17a7.86,7.86,0,0,1-5.94,2.52A7.09,7.09,0,0,1,59,77.78Zm6.3-1.18c2.46,0,3.5-.78,3.5-3.14,0-1.34-.56-2.57-1.82-2.74v-.17c3.69,0,5.48,2.63,5.48,4.76a7.77,7.77,0,0,1-.14,1.46h-7Z"/><path class="cls-3" d="M81.94,70.72c-1.65.2-2.38,1.6-2.38,6.94,0,4,2,6.25,4.53,6.25a6.07,6.07,0,0,0,4.09-1.49v.17a7.82,7.82,0,0,1-5.93,2.52,7.32,7.32,0,0,1-7.48-7.33,7.18,7.18,0,0,1,7.17-7.23Zm6.21,3a2.59,2.59,0,0,1-2.8,2.68,2.37,2.37,0,0,1-2.43-1.76,2.43,2.43,0,0,0,1.34-2,1.66,1.66,0,0,0-1.2-1.85v-.2C86.73,70.55,88.15,72.12,88.15,73.72Z"/><path class="cls-3" d="M89.81,71.62a17,17,0,0,0,6.69-1.1V83.24c0,.7.42,1.42,2.1,1.42v.17H89.78v-.17c1.68,0,2.1-.72,2.1-1.42v-10c0-1-.48-1.49-2.07-1.49Zm1.42-5.27c0-1.45,1.18-2.43,2.86-2.43S97,64.9,97,66.35s-1.18,2.47-2.86,2.47S91.23,67.84,91.23,66.35Z"/><path class="cls-3" d="M100,81.53c0-2.44,2.24-3.81,5.37-3.81h3v.17h-.84a2.77,2.77,0,0,0-3,3c0,1.54.45,2.72,1.76,2.72a3.08,3.08,0,0,0,2.05-1v.16A6,6,0,0,1,104,85.11C101.57,85.11,100,83.77,100,81.53Zm1.12-7.93c0-1.42,1.29-2.88,5.09-3v.17a2,2,0,0,0-1.79,2c0,1,.7,1.63,1.82,1.71a3.14,3.14,0,0,1-2.69,1.35A2.24,2.24,0,0,1,101.12,73.6ZM109.24,82V73.38c0-1.37-.53-2.46-1.91-2.66v-.17c4.65.17,6.5,1.93,6.5,5.6V83c0,.81.28,1.14.78,1.14s.9-.42,1.35-1.26h.17c-.45,1.54-2,2.27-3.64,2.27C110.25,85.11,109.24,84.33,109.24,82Z"/><path class="cls-3" d="M116.85,65.34a17.21,17.21,0,0,0,6.7-1.09v19c0,.7.42,1.42,2.1,1.42v.17h-8.82v-.17c1.68,0,2.1-.72,2.1-1.42V67c0-1-.48-1.49-2.08-1.49Z"/><path class="cls-3" d="M126.88,71.62a17,17,0,0,0,6.69-1.1V83.24c0,.7.42,1.42,2.1,1.42v.17h-8.82v-.17c1.68,0,2.1-.72,2.1-1.42v-10c0-1-.48-1.49-2.07-1.49Zm1.43-5.27c0-1.45,1.17-2.43,2.85-2.43s2.86,1,2.86,2.43-1.18,2.47-2.86,2.47S128.31,67.84,128.31,66.35Z"/><path class="cls-3" d="M142.22,81.5a1.44,1.44,0,0,0-1.57,1.4c0,.81.56,1.85,2.5,2v.17c-3.73-.14-5.77-1.15-5.77-2.77a2.18,2.18,0,0,1,2.38-2.07A2.84,2.84,0,0,1,142.22,81.5Zm.93-10.78c-1,.2-2.05.73-2,1.88.08,3.24,9.16,3.78,9.16,8.23,0,2.71-2.3,4.14-5.91,4.28v-.17c1.17-.19,2.49-.61,2.49-2.07,0-2.91-9.18-4-9.18-8.23,0-2.46,2.32-4,5.46-4.09Zm6.6,2.72a1.83,1.83,0,0,1-2.07,1.73,2.41,2.41,0,0,1-2.38-1.34,1.25,1.25,0,0,0,1.26-1.32c0-.84-1.06-1.65-2.18-1.79v-.17C147.54,70.72,149.75,71.87,149.75,73.44Z"/><path class="cls-3" d="M163,82.68v.16a5.86,5.86,0,0,1-4.79,2.27c-2.52,0-4.31-1.15-4.31-4V72h-1.46l.31-.42h1.15v-3A7.09,7.09,0,0,0,158.49,67v4.59h3.78L162,72h-3.47v9.27c0,1.4.53,2.85,1.85,2.85A4.15,4.15,0,0,0,163,82.68Z"/><path class="cls-3" d="M24.18,101.62a17,17,0,0,0,6.69-1.1v12.72c0,.7.42,1.42,2.1,1.42v.17H24.15v-.17c1.68,0,2.1-.72,2.1-1.42v-10c0-1-.48-1.49-2.07-1.49Zm1.42-5.27c0-1.45,1.18-2.43,2.86-2.43s2.86,1,2.86,2.43-1.18,2.47-2.86,2.47S25.6,97.84,25.6,96.35Z"/><path class="cls-3" d="M34.14,114.66c1.68,0,2.1-.72,2.1-1.42V103.3c0-1-.47-1.49-2.07-1.49v-.17a17.12,17.12,0,0,0,6.69-1.09v12.69c0,.7.42,1.42,2.1,1.42v.17H34.14Zm9.86,0c1.65,0,2.07-.72,2.07-1.42V104.5c0-1.57-.81-2.38-2.21-2.38a3,3,0,0,0-2.13.87v-.17a5.72,5.72,0,0,1,4.65-2.27c2.52,0,4.31,1.18,4.31,4v8.74c0,.7.42,1.42,2.1,1.42v.17H44Z"/><path class="cls-3" d="M59.17,111.5a1.43,1.43,0,0,0-1.56,1.4c0,.81.56,1.85,2.49,2v.17c-3.72-.14-5.77-1.15-5.77-2.77a2.18,2.18,0,0,1,2.38-2.07A2.84,2.84,0,0,1,59.17,111.5Zm.93-10.78c-1,.2-2.05.73-2,1.88.09,3.24,9.16,3.78,9.16,8.23,0,2.71-2.3,4.14-5.91,4.28v-.17c1.18-.19,2.49-.61,2.49-2.07,0-2.91-9.18-4-9.18-8.23,0-2.46,2.32-4,5.46-4.09Zm6.61,2.72a1.83,1.83,0,0,1-2.08,1.73,2.41,2.41,0,0,1-2.38-1.34,1.27,1.27,0,0,0,1.27-1.32c0-.84-1.07-1.65-2.19-1.79v-.17C64.5,100.72,66.71,101.87,66.71,103.44Z"/><path class="cls-3" d="M75.5,111.16c0,1.57.53,2.38,1.93,2.38a2.46,2.46,0,0,0,1.93-.86v.16A4.65,4.65,0,0,1,75,115.11c-2.52,0-4.14-1.17-4.14-4V103.3c0-1-.48-1.49-2.07-1.49v-.17a17.19,17.19,0,0,0,6.69-1.09Zm9.32,1.8c0,.81.26,1.14.76,1.14s.89-.42,1.34-1.26h.17c-.45,1.54-2,2.27-3.81,2.27S80.2,114,80.2,112.37V103.3c0-1-.47-1.49-2-1.49v-.17a18.25,18.25,0,0,0,6.61-1.09Z"/><path class="cls-3" d="M94.93,113.24c0,.7.42,1.42,2.1,1.42v.17H88.21v-.17c1.68,0,2.1-.72,2.1-1.42V103.3c0-1-.48-1.49-2.07-1.49v-.17a17.19,17.19,0,0,0,6.69-1.09Zm7.56-9.66a3,3,0,0,1-2.88,3.19,1.9,1.9,0,0,1-1.6-.62,2,2,0,0,0,1.09-1.9,1.48,1.48,0,0,0-1.56-1.51,2,2,0,0,0-1.69,1.06v-.22a3.89,3.89,0,0,1,3.65-3A2.84,2.84,0,0,1,102.49,103.58Z"/><path class="cls-3" d="M103.69,111.53c0-2.44,2.24-3.81,5.38-3.81h3v.17h-.84a2.77,2.77,0,0,0-3,3c0,1.54.44,2.72,1.76,2.72a3.06,3.06,0,0,0,2-1v.16a5.92,5.92,0,0,1-4.45,2.27C105.26,115.11,103.67,113.77,103.69,111.53Zm1.12-7.93c0-1.42,1.29-2.88,5.1-3v.17a2,2,0,0,0-1.79,2c0,1,.7,1.63,1.82,1.71a3.14,3.14,0,0,1-2.69,1.35A2.25,2.25,0,0,1,104.81,103.6Zm8.12,8.35v-8.57c0-1.37-.53-2.46-1.9-2.66v-.17c4.65.17,6.5,1.93,6.5,5.6V113c0,.81.28,1.14.78,1.14s.9-.42,1.34-1.26h.17c-.45,1.54-2,2.27-3.64,2.27C113.94,115.11,112.93,114.33,112.93,112Z"/><path class="cls-3" d="M120.69,114.66c1.68,0,2.1-.72,2.1-1.42V103.3c0-1-.48-1.49-2.07-1.49v-.17a17.19,17.19,0,0,0,6.69-1.09v12.69c0,.7.42,1.42,2.1,1.42v.17h-8.82Zm9.86,0c1.65,0,2.07-.72,2.07-1.42V104.5c0-1.57-.81-2.38-2.21-2.38a3,3,0,0,0-2.13.87v-.17a5.69,5.69,0,0,1,4.65-2.27c2.52,0,4.31,1.18,4.31,4v8.74c0,.7.42,1.42,2.1,1.42v.17h-8.79Z"/><path class="cls-3" d="M148,100.72c-1.65.2-2.38,1.6-2.38,6.94,0,4,2,6.25,4.53,6.25a6.07,6.07,0,0,0,4.09-1.49v.17a7.82,7.82,0,0,1-5.93,2.52,7.32,7.32,0,0,1-7.48-7.33,7.18,7.18,0,0,1,7.17-7.23Zm6.21,3a2.59,2.59,0,0,1-2.8,2.68,2.37,2.37,0,0,1-2.43-1.76,2.43,2.43,0,0,0,1.34-2,1.66,1.66,0,0,0-1.2-1.85v-.2C152.81,100.55,154.23,102.12,154.23,103.72Z"/><path class="cls-3" d="M156.33,107.78a6.94,6.94,0,0,1,6.86-7.23v.17c-1.65.2-2.1,1.6-2.1,6.94,0,4,1.8,6.25,4.29,6.25a6.1,6.1,0,0,0,4.09-1.49v.17a7.86,7.86,0,0,1-5.94,2.52A7.1,7.1,0,0,1,156.33,107.78Zm6.3-1.18c2.47,0,3.5-.78,3.5-3.14,0-1.34-.56-2.57-1.82-2.74v-.17c3.7,0,5.49,2.63,5.49,4.76a7.77,7.77,0,0,1-.14,1.46h-7Z"/></g></svg>