<svg id="Layer_1" data-name="Layer 1" xmlns="http://www.w3.org/2000/svg" xmlns:xlink="http://www.w3.org/1999/xlink" viewBox="0 0 300 250"><defs><style>.cls-1{fill:none;}.cls-2{clip-path:url(#clip-path);}.cls-3{fill:#263845;}</style><clipPath id="clip-path"><rect class="cls-1" width="300" height="250"/></clipPath></defs><title>Artboard 8 copy</title><g class="cls-2"><path class="cls-3" d="M28.87,31.77v.17c-2,.25-3.41,2.26-3.41,9.46s1.4,9.55,3.41,9.8v.17a9.36,9.36,0,0,1-8.9-9.8A9.7,9.7,0,0,1,28.87,31.77Zm1.37.17v-.17c2.89.14,4.48.56,5.74,1.31l.87-1.31h.23v6.8h-.23A8.61,8.61,0,0,0,30.24,31.94Zm9.5,11.11v.17c-1.32,0-2.08.5-2.08,1.65v6.5h-.22l-1-1.68c-1.4,1-3.33,1.57-6.16,1.68V51.2c1.91-.14,3-1.15,3-3.42V44.87c0-1.15-.51-1.65-2.1-1.65v-.17Z"/><path class="cls-3" d="M48.42,37c-1.66.19-2.22,1.59-2.22,7.05,0,5.27.56,7,2.22,7.17v.17a7.14,7.14,0,0,1-7-7.34,7,7,0,0,1,7-7.22ZM56.48,44a7.13,7.13,0,0,1-6.94,7.34V51.2c1.65-.17,2.18-1.93,2.18-7.17,0-5.49-.56-6.89-2.18-7.05v-.17A7,7,0,0,1,56.48,44Z"/><path class="cls-3" d="M69.19,48.93v.17a5.85,5.85,0,0,1-4.79,2.27c-2.52,0-4.31-1.15-4.31-3.95V38.24H58.64l.3-.42h1.15v-3a7,7,0,0,0,4.59-1.57v4.6h3.78l-.3.42H64.68V47.5c0,1.4.54,2.86,1.85,2.86A4.08,4.08,0,0,0,69.19,48.93Z"/><path class="cls-3" d="M77.2,47.78c0-2.43,2.24-3.8,5.38-3.8h3v.16h-.84a2.78,2.78,0,0,0-3,3.06c0,1.54.45,2.71,1.77,2.71a3.08,3.08,0,0,0,2-1v.17a6,6,0,0,1-4.45,2.27C78.77,51.37,77.17,50,77.2,47.78Zm1.12-7.92c0-1.43,1.29-2.88,5.1-3V37a2,2,0,0,0-1.8,2c0,1,.7,1.62,1.82,1.71a3.14,3.14,0,0,1-2.68,1.34A2.24,2.24,0,0,1,78.32,39.86Zm8.12,8.34V39.64c0-1.38-.53-2.47-1.9-2.66v-.17C89.18,37,91,38.74,91,42.41v6.8c0,.81.28,1.15.79,1.15s.89-.42,1.34-1.26h.17c-.45,1.54-2,2.27-3.64,2.27C87.45,51.37,86.44,50.58,86.44,48.2Z"/><path class="cls-3" d="M24.67,77.76a1.43,1.43,0,0,0-1.57,1.4c0,.81.56,1.84,2.5,2v.17c-3.73-.14-5.77-1.15-5.77-2.77a2.19,2.19,0,0,1,2.38-2.08A2.85,2.85,0,0,1,24.67,77.76ZM25.6,67c-1,.19-2.05.72-2,1.87.08,3.25,9.16,3.78,9.16,8.23,0,2.72-2.3,4.15-5.91,4.29V81.2c1.17-.2,2.49-.62,2.49-2.07,0-2.91-9.18-4-9.18-8.23,0-2.47,2.32-4,5.46-4.09Zm6.6,2.71a1.83,1.83,0,0,1-2.07,1.74,2.42,2.42,0,0,1-2.38-1.35A1.24,1.24,0,0,0,29,68.77c0-.84-1.06-1.65-2.18-1.79v-.17C30,67,32.2,68.12,32.2,69.69Z"/><path class="cls-3" d="M41.05,85.34c0,1,.48,1.49,2.07,1.49V87a18.39,18.39,0,0,0-6.69,1.09V69.52c0-1-.47-1.48-2.07-1.48v-.17a18.39,18.39,0,0,0,6.69-1.09ZM51.72,74c0,5.85-3.08,7.42-5.74,7.42a5.24,5.24,0,0,1-4.09-2.27v-.17a4,4,0,0,0,2.35,1c1.32,0,2.72-.92,2.72-6s-1.32-5.71-2.72-5.71a3.16,3.16,0,0,0-2.35,1v-.22A5.21,5.21,0,0,1,46,66.81C48.7,66.81,51.72,68.38,51.72,74Z"/><path class="cls-3" d="M54.18,74A6.94,6.94,0,0,1,61,66.81V67c-1.65.19-2.1,1.59-2.1,6.94,0,4,1.8,6.24,4.29,6.24a6.09,6.09,0,0,0,4.09-1.48v.17a7.86,7.86,0,0,1-5.94,2.52A7.1,7.1,0,0,1,54.18,74Zm6.3-1.17c2.47,0,3.5-.79,3.5-3.14,0-1.34-.56-2.58-1.82-2.74v-.17c3.7,0,5.49,2.63,5.49,4.76A7.67,7.67,0,0,1,67.51,73h-7Z"/><path class="cls-3" d="M77.12,67c-1.66.19-2.38,1.59-2.38,6.94,0,4,2,6.24,4.53,6.24a6.08,6.08,0,0,0,4.09-1.48v.17a7.86,7.86,0,0,1-5.94,2.52A7.32,7.32,0,0,1,70,74a7.17,7.17,0,0,1,7.17-7.22Zm6.21,3a2.6,2.6,0,0,1-2.8,2.69A2.37,2.37,0,0,1,78.1,70.9a2.43,2.43,0,0,0,1.34-2.05A1.67,1.67,0,0,0,78.24,67v-.19C81.9,66.81,83.33,68.38,83.33,70Z"/><path class="cls-3" d="M85,67.87a17.21,17.21,0,0,0,6.7-1.09V79.49c0,.7.42,1.43,2.1,1.43v.17H85v-.17c1.68,0,2.1-.73,2.1-1.43v-10c0-1-.48-1.48-2.08-1.48Zm1.43-5.26c0-1.46,1.18-2.44,2.86-2.44s2.85,1,2.85,2.44S91,65.07,89.27,65.07,86.41,64.09,86.41,62.61Z"/><path class="cls-3" d="M95.18,77.78c0-2.43,2.24-3.8,5.37-3.8h3v.16h-.84a2.78,2.78,0,0,0-3,3.06c0,1.54.45,2.71,1.76,2.71a3.08,3.08,0,0,0,2-1v.17a6,6,0,0,1-4.46,2.27C96.74,81.37,95.15,80,95.18,77.78Zm1.12-7.92c0-1.43,1.28-2.88,5.09-3V67a2,2,0,0,0-1.79,2c0,1,.7,1.62,1.82,1.71a3.16,3.16,0,0,1-2.69,1.34A2.23,2.23,0,0,1,96.3,69.86Zm8.12,8.34V69.64c0-1.38-.54-2.47-1.91-2.66v-.17c4.65.17,6.5,1.93,6.5,5.6v6.8c0,.81.28,1.15.78,1.15s.9-.42,1.35-1.26h.16c-.44,1.54-2,2.27-3.64,2.27C105.42,81.37,104.42,80.58,104.42,78.2Z"/><path class="cls-3" d="M112,61.6a17.19,17.19,0,0,0,6.69-1.09v19c0,.7.42,1.43,2.1,1.43v.17H112v-.17c1.68,0,2.1-.73,2.1-1.43V63.25c0-1-.47-1.48-2.07-1.48Z"/><path class="cls-3" d="M19.94,98.24a1.51,1.51,0,0,0-1.54-1v-.17h7.84v.17c-1,0-1.37.67-.9,1.65L29,106.55l-2.41,4.54h-.16Zm10.25,5.57A7.76,7.76,0,0,0,31,100.2a2.71,2.71,0,0,0-2.85-2.94v-.17h7v.17c-.93,0-1.29.36-1.82,1.31l-2.91,5.49Z"/><path class="cls-3" d="M35.31,104a6.94,6.94,0,0,1,6.86-7.22V97c-1.65.19-2.1,1.59-2.1,6.94,0,4,1.79,6.24,4.29,6.24a6.05,6.05,0,0,0,4.08-1.48v.17a7.82,7.82,0,0,1-5.93,2.52A7.1,7.1,0,0,1,35.31,104Zm6.3-1.17c2.47,0,3.5-.79,3.5-3.14,0-1.34-.56-2.58-1.82-2.74v-.17c3.7,0,5.49,2.63,5.49,4.76a8.59,8.59,0,0,1-.14,1.45h-7Z"/><path class="cls-3" d="M57.12,109.49c0,.7.42,1.43,2.1,1.43v.17H50.4v-.17c1.68,0,2.1-.73,2.1-1.43V93.25c0-1-.47-1.48-2.07-1.48V91.6a17.12,17.12,0,0,0,6.69-1.09Zm9.8-8.73v8.73c0,.7.42,1.43,2.1,1.43v.17H60.23v-.17c1.65,0,2.07-.73,2.07-1.43v-8.73c0-1.57-.81-2.38-2.21-2.38a3,3,0,0,0-2.13.86v-.16a5.72,5.72,0,0,1,4.65-2.27C65.13,96.81,66.92,98,66.92,100.76Z"/><path class="cls-3" d="M70.09,97.87a17.19,17.19,0,0,0,6.69-1.09v12.71c0,.7.42,1.43,2.1,1.43v.17H70.06v-.17c1.68,0,2.1-.73,2.1-1.43v-10c0-1-.48-1.48-2.07-1.48Zm1.43-5.26c0-1.46,1.17-2.44,2.85-2.44s2.86,1,2.86,2.44-1.18,2.46-2.86,2.46S71.52,94.09,71.52,92.61Z"/><path class="cls-3" d="M87.73,97c-1.65.19-2.38,1.59-2.38,6.94,0,4,2,6.24,4.53,6.24A6.06,6.06,0,0,0,94,108.68v.17A7.82,7.82,0,0,1,88,111.37,7.32,7.32,0,0,1,80.56,104a7.17,7.17,0,0,1,7.17-7.22Zm6.21,3a2.6,2.6,0,0,1-2.8,2.69,2.38,2.38,0,0,1-2.43-1.76,2.43,2.43,0,0,0,1.34-2.05A1.67,1.67,0,0,0,88.85,97v-.19C92.52,96.81,93.94,98.38,93.94,100Z"/><path class="cls-3" d="M95.4,91.6a17.19,17.19,0,0,0,6.69-1.09v19c0,.7.42,1.43,2.1,1.43v.17H95.37v-.17c1.68,0,2.1-.73,2.1-1.43V93.25c0-1-.47-1.48-2.07-1.48Z"/><path class="cls-3" d="M105.87,104a6.94,6.94,0,0,1,6.86-7.22V97c-1.65.19-2.1,1.59-2.1,6.94,0,4,1.79,6.24,4.29,6.24a6.05,6.05,0,0,0,4.08-1.48v.17a7.82,7.82,0,0,1-5.93,2.52A7.1,7.1,0,0,1,105.87,104Zm6.3-1.17c2.47,0,3.5-.79,3.5-3.14,0-1.34-.56-2.58-1.82-2.74v-.17c3.7,0,5.49,2.63,5.49,4.76a8.59,8.59,0,0,1-.14,1.45h-7Z"/><path class="cls-3" d="M121.33,95.55c0-2.49,3.36-3.7,5.9-3.78v.17a2.76,2.76,0,0,0-2,2.71,2.4,2.4,0,0,0,1.56,2.41,3.06,3.06,0,0,1-2.57,1.12A2.64,2.64,0,0,1,121.33,95.55Zm4.11,14.87c0-1.54,1.23-2.55,3-2.55s3,1,3,2.55-1.24,2.57-3,2.57S125.44,112,125.44,110.42Zm.76-7.87c0-3.14,4.45-4.06,4.45-7.65a2.74,2.74,0,0,0-2-3v-.17c3.87.25,6.78,1.51,6.78,4.62,0,3.81-6.08,5-6.08,7.47a1.68,1.68,0,0,0,1,1.63l0,.17C127.52,105.66,126.2,104.26,126.2,102.55Z"/></g></svg>