<svg id="Layer_1" data-name="Layer 1" xmlns="http://www.w3.org/2000/svg" xmlns:xlink="http://www.w3.org/1999/xlink" viewBox="0 0 300 150"><defs><style>.cls-1{fill:none;}.cls-2{clip-path:url(#clip-path);}.cls-3{fill:#74503e;}.cls-4{clip-path:url(#clip-path-2);}.cls-5{fill:#263845;}.cls-6{fill:#fff;}</style><clipPath id="clip-path"><rect class="cls-1" y="-264.37" width="300" height="150"/></clipPath><clipPath id="clip-path-2"><rect class="cls-1" x="330" y="-264.37" width="300" height="150"/></clipPath></defs><title>Artboard 2</title><g class="cls-2"><path class="cls-3" d="M-109.35-155.59,516.88,169.32c.44.22.89.41,1.32.63l0-341.71L-109.35-498Z"/></g><g class="cls-4"><path class="cls-5" d="M126.65-61.59,752.88,263.32c.44.22.89.41,1.32.63l0-341.71L126.65-404Z"/></g><rect class="cls-1" y="0.4" width="300" height="150"/><path class="cls-3" d="M13.47,55.16H82.6a6.61,6.61,0,0,0,5.86-3.56l8.68-16.74a6.57,6.57,0,0,0,0-6.07L88.46,12.05A6.61,6.61,0,0,0,82.6,8.49H13.47a4,4,0,0,0-4,4V51.15A4,4,0,0,0,13.47,55.16Z"/><path class="cls-6" d="M44.25,26.08l.16-.24c.12-.16.24-.17.43-.06a1.88,1.88,0,0,0,1.06.38c.49,0,.79-.24.79-.6,0-1-2.45-.79-2.45-2.42A1.6,1.6,0,0,1,46,21.61a2.45,2.45,0,0,1,1.35.4.3.3,0,0,1,.09.43l-.13.24c-.11.21-.26.18-.42.1a1.75,1.75,0,0,0-.91-.29c-.49,0-.8.24-.8.6,0,1,2.45.73,2.45,2.4A1.57,1.57,0,0,1,45.9,27a2.8,2.8,0,0,1-1.61-.53A.27.27,0,0,1,44.25,26.08Z"/><path class="cls-6" d="M49.75,22.52H48.34c-.21,0-.31-.1-.31-.3V22a.28.28,0,0,1,.31-.31h3.77a.27.27,0,0,1,.3.31v.21a.27.27,0,0,1-.3.3H50.7v4.12a.27.27,0,0,1-.31.31h-.33a.28.28,0,0,1-.31-.31Z"/><path class="cls-6" d="M53.66,22A.35.35,0,0,1,54,21.7h.47a.34.34,0,0,1,.35.25l1.64,4.65c.07.21,0,.35-.25.35h-.34a.33.33,0,0,1-.35-.25l-.37-1.09H53.32L53,26.69a.33.33,0,0,1-.35.26h-.34C52,27,52,26.81,52,26.6Zm1.27,2.88-.47-1.4c-.09-.3-.21-.82-.21-.82h0s-.12.52-.21.82l-.47,1.4Z"/><path class="cls-6" d="M57.13,22a.28.28,0,0,1,.31-.31h1.42a2.49,2.49,0,0,1,1,.14,1.46,1.46,0,0,1,.88,1.44,1.5,1.5,0,0,1-.87,1.43v0A1.53,1.53,0,0,1,60,25l.87,1.58c.12.22,0,.37-.22.37h-.4a.36.36,0,0,1-.36-.21L59,25h-.92v1.65c0,.21-.1.31-.3.31h-.34a.28.28,0,0,1-.31-.31Zm1.81,2.16a.77.77,0,0,0,.82-.84.71.71,0,0,0-.41-.72,1.32,1.32,0,0,0-.57-.09h-.7v1.65Z"/><path class="cls-6" d="M44.59,28.43a.17.17,0,0,1,.18-.19h.16c.11,0,.17.07.17.19v4.82c0,.12-.06.19-.17.19h-.16a.17.17,0,0,1-.18-.19Z"/><path class="cls-6" d="M46.33,29.9a.17.17,0,0,1,.19-.18h.13a.17.17,0,0,1,.18.18v.43a1.24,1.24,0,0,1,0,.27h0a1.65,1.65,0,0,1,1.5-1c.93,0,1.25.53,1.25,1.44v2.18a.17.17,0,0,1-.18.19h-.14a.17.17,0,0,1-.18-.19V31.2c0-.58-.09-1.1-.81-1.1a1.44,1.44,0,0,0-1.41,1.52v1.63a.17.17,0,0,1-.18.19h-.14a.17.17,0,0,1-.19-.19Z"/><path class="cls-6" d="M50.36,32.85l.06-.08c.07-.09.15-.09.25,0a1.62,1.62,0,0,0,1,.34c.41,0,.75-.2.75-.6,0-.83-2-.58-2-1.81,0-.68.59-1,1.27-1a1.74,1.74,0,0,1,1,.3.17.17,0,0,1,0,.25l0,.08c-.06.1-.15.11-.26,0a1.33,1.33,0,0,0-.79-.24c-.4,0-.74.17-.74.58,0,.86,2,.58,2,1.83a1.11,1.11,0,0,1-1.25,1.05,2,2,0,0,1-1.26-.43A.17.17,0,0,1,50.36,32.85Z"/><path class="cls-6" d="M53.65,29.9a.16.16,0,0,1,.18-.18H54a.16.16,0,0,1,.18.18V32c0,.59.09,1.1.81,1.1a1.44,1.44,0,0,0,1.37-1.55V29.9a.17.17,0,0,1,.19-.18h.14a.16.16,0,0,1,.18.18v3.35a.17.17,0,0,1-.18.19h-.13a.17.17,0,0,1-.18-.19v-.43a1.77,1.77,0,0,1,0-.26h0a1.63,1.63,0,0,1-1.47,1c-.88,0-1.24-.48-1.24-1.45Z"/><path class="cls-6" d="M57.93,29.9a.16.16,0,0,1,.18-.18h.13a.17.17,0,0,1,.18.18v.51a1.44,1.44,0,0,1,0,.29h0a1.31,1.31,0,0,1,1.19-1c.14,0,.2.06.2.17V30c0,.12-.09.18-.21.18-.79,0-1.16.9-1.16,1.67v1.39a.17.17,0,0,1-.18.19h-.14a.17.17,0,0,1-.18-.19Z"/><path class="cls-6" d="M62.35,31.16h.22V31a.84.84,0,0,0-.92-1,1.78,1.78,0,0,0-.9.26.17.17,0,0,1-.25-.06l0-.07c-.06-.1-.05-.2,0-.25a2.21,2.21,0,0,1,1.18-.33,1.26,1.26,0,0,1,1.38,1.43v2.19a.17.17,0,0,1-.18.19h-.11a.17.17,0,0,1-.19-.19V33a1.73,1.73,0,0,1,0-.28h0a1.38,1.38,0,0,1-1.26.85,1.14,1.14,0,0,1-1.25-1.09C60.09,31.23,61.64,31.16,62.35,31.16Zm-.92,1.94a1.29,1.29,0,0,0,1.14-1.39v-.17h-.21c-.58,0-1.76,0-1.76.85A.75.75,0,0,0,61.43,33.1Z"/><path class="cls-6" d="M64.13,29.9a.16.16,0,0,1,.18-.18h.13a.17.17,0,0,1,.18.18v.43a1.24,1.24,0,0,1,0,.27h0a1.63,1.63,0,0,1,1.5-1c.92,0,1.25.53,1.25,1.44v2.18a.17.17,0,0,1-.19.19H67a.17.17,0,0,1-.18-.19V31.2c0-.58-.09-1.1-.81-1.1a1.44,1.44,0,0,0-1.41,1.52v1.63a.17.17,0,0,1-.18.19h-.14a.17.17,0,0,1-.18-.19Z"/><path class="cls-6" d="M70.14,29.63a1.93,1.93,0,0,1,1.23.42.15.15,0,0,1,0,.25l0,.08c-.07.11-.15.11-.25,0a1.57,1.57,0,0,0-.94-.34,1.5,1.5,0,0,0,0,3,1.61,1.61,0,0,0,1-.39.14.14,0,0,1,.24,0l0,.07a.18.18,0,0,1,0,.25,2,2,0,0,1-1.32.48,2,2,0,0,1,0-3.9Z"/><path class="cls-6" d="M73.8,29.63c1,0,1.55.72,1.55,1.77a.18.18,0,0,1-.19.19H72.48a1.41,1.41,0,0,0,1.44,1.48,1.56,1.56,0,0,0,1-.34.15.15,0,0,1,.24.05l.06.09a.17.17,0,0,1,0,.24,2.09,2.09,0,0,1-1.24.42,1.89,1.89,0,0,1-2-2A1.82,1.82,0,0,1,73.8,29.63Zm1,1.58A1.07,1.07,0,0,0,73.78,30a1.29,1.29,0,0,0-1.28,1.17Z"/><path class="cls-6" d="M44.48,35.48a.27.27,0,0,1,.3-.31h2.53a.28.28,0,0,1,.31.31v.21a.27.27,0,0,1-.31.3H45.42v1.38h1.47a.28.28,0,0,1,.31.3v.21a.28.28,0,0,1-.31.31H45.42V39.6h2a.28.28,0,0,1,.32.3v.21a.28.28,0,0,1-.32.31H44.78c-.2,0-.3-.1-.3-.31Z"/><path class="cls-6" d="M48.41,37a.27.27,0,0,1,.3-.31H49a.27.27,0,0,1,.3.31v.23c0,.08,0,.17,0,.17h0a1.48,1.48,0,0,1,1.34-.8C51.48,36.56,52,37,52,38v2.11a.28.28,0,0,1-.31.31h-.32a.28.28,0,0,1-.31-.31V38.19c0-.46-.12-.77-.59-.77a1.12,1.12,0,0,0-1.09,1.23v1.46c0,.21-.1.31-.3.31h-.33c-.2,0-.3-.1-.3-.31Z"/><path class="cls-6" d="M53,37.45h-.2a.28.28,0,0,1-.31-.31V37a.28.28,0,0,1,.32-.31H53v-.77a.28.28,0,0,1,.31-.31h.3a.28.28,0,0,1,.31.31v.77h.54a.28.28,0,0,1,.31.31v.13a.27.27,0,0,1-.3.31H53.9v1.46a.62.62,0,0,0,.6.71c.23,0,.31.09.31.3v.23c0,.22-.12.31-.38.31A1.35,1.35,0,0,1,53,39.08Z"/><path class="cls-6" d="M55.42,35.48a.28.28,0,0,1,.31-.31h.32a.28.28,0,0,1,.31.31V37a2.26,2.26,0,0,1,0,.31h0a1.5,1.5,0,0,1,1.31-.76C58.49,36.56,59,37,59,38v2.11a.28.28,0,0,1-.31.31h-.31a.27.27,0,0,1-.31-.31V38.19c0-.46-.12-.77-.6-.77a1.12,1.12,0,0,0-1.08,1.25v1.44a.28.28,0,0,1-.31.31h-.32a.28.28,0,0,1-.31-.31Z"/><path class="cls-6" d="M59.82,37a.28.28,0,0,1,.31-.31h.32a.28.28,0,0,1,.31.31v1.92c0,.46.12.77.59.77a1.13,1.13,0,0,0,1-1.27V37a.28.28,0,0,1,.31-.31H63a.28.28,0,0,1,.31.31v3.15a.28.28,0,0,1-.31.31h-.29c-.2,0-.3-.1-.3-.31v-.22a1.54,1.54,0,0,1,0-.17h0a1.48,1.48,0,0,1-1.31.79c-.8,0-1.31-.41-1.31-1.43Z"/><path class="cls-6" d="M64.1,39.7l.09-.13a.28.28,0,0,1,.42-.07,1.78,1.78,0,0,0,.85.26c.32,0,.52-.15.52-.39,0-.61-1.87-.38-1.87-1.68,0-.74.65-1.13,1.44-1.13a2.11,2.11,0,0,1,1,.28c.17.08.19.24.11.41l-.07.13c-.09.18-.23.2-.42.12a1.7,1.7,0,0,0-.71-.18c-.33,0-.51.13-.51.37,0,.62,1.87.37,1.87,1.66,0,.66-.56,1.16-1.44,1.16a2.24,2.24,0,0,1-1.25-.38A.28.28,0,0,1,64.1,39.7Z"/><path class="cls-6" d="M67.57,35.71v-.23a.27.27,0,0,1,.3-.31h.33a.28.28,0,0,1,.31.31v.23a.28.28,0,0,1-.31.3h-.33A.27.27,0,0,1,67.57,35.71Zm0,1.25a.27.27,0,0,1,.3-.31h.33a.27.27,0,0,1,.3.31v3.15c0,.21-.1.31-.3.31h-.33c-.2,0-.3-.1-.3-.31Z"/><path class="cls-6" d="M71.35,38.09h.15V38a.61.61,0,0,0-.7-.66,1.73,1.73,0,0,0-.78.21c-.19.08-.33.06-.42-.12l-.07-.14a.28.28,0,0,1,.12-.42,2.72,2.72,0,0,1,1.23-.31,1.4,1.4,0,0,1,1.56,1.5v2a.27.27,0,0,1-.31.31h-.25c-.2,0-.3-.1-.3-.31V40a1.08,1.08,0,0,1,0-.16h0a1.39,1.39,0,0,1-1.19.71,1.16,1.16,0,0,1-1.25-1.13C69.14,38.28,70.5,38.09,71.35,38.09Zm-.71,1.7a1,1,0,0,0,.87-1v-.14h-.16c-.47,0-1.27.08-1.27.64A.5.5,0,0,0,70.64,39.79Z"/><path class="cls-6" d="M73.15,39.7l.09-.13c.11-.15.23-.17.42-.07a1.73,1.73,0,0,0,.84.26c.33,0,.52-.15.52-.39,0-.61-1.87-.38-1.87-1.68,0-.74.66-1.13,1.45-1.13a2.11,2.11,0,0,1,1.05.28c.17.08.19.24.11.41l-.08.13c-.09.18-.23.2-.41.12a1.75,1.75,0,0,0-.72-.18c-.32,0-.51.13-.51.37,0,.62,1.87.37,1.87,1.66,0,.66-.56,1.16-1.43,1.16a2.25,2.25,0,0,1-1.26-.38C73.05,40,73,39.87,73.15,39.7Z"/><path class="cls-6" d="M76.79,37.45h-.2a.28.28,0,0,1-.31-.31V37a.28.28,0,0,1,.31-.31h.22v-.77a.28.28,0,0,1,.31-.31h.29a.28.28,0,0,1,.31.31v.77h.55a.28.28,0,0,1,.31.31v.13a.27.27,0,0,1-.3.31h-.56v1.46a.63.63,0,0,0,.61.71c.23,0,.31.09.31.3v.23c0,.22-.12.31-.38.31a1.34,1.34,0,0,1-1.47-1.38Z"/><path class="cls-6" d="M26.77,38.06a.69.69,0,0,1-.24-.05.52.52,0,0,1-.26-.63l5.48-16.84a1.15,1.15,0,0,1,1.11-.81h0a1.16,1.16,0,0,1,1.11.81l1.11,3.34a.4.4,0,0,1-.76.25l-1.1-3.34a.36.36,0,0,0-.36-.26h0a.35.35,0,0,0-.36.26L27.55,36l7-9.53a2.17,2.17,0,0,1,1.75-.89h4.64a1.16,1.16,0,0,1,.69,2.11l-4.24,3.08,0,0,1.64,5a1.17,1.17,0,0,1-1.8,1.31l-3.67-2.67a1.17,1.17,0,0,1,0-1.89l3.08-2.23,0,0,4.53-3.29a.37.37,0,0,0,.13-.42.36.36,0,0,0-.36-.26H36.27a1.38,1.38,0,0,0-1.11.56l-8,10.91A.51.51,0,0,1,26.77,38.06Zm9.87-6.75L34,33.26a.36.36,0,0,0-.15.3.36.36,0,0,0,.15.31l3.67,2.66a.36.36,0,0,0,.44,0,.35.35,0,0,0,.14-.42Z"/><path class="cls-6" d="M27.05,29.69a.36.36,0,0,1-.22-.07L24.12,27.7a1.15,1.15,0,0,1-.43-1.31,1.14,1.14,0,0,1,1.11-.8h3.32a.39.39,0,0,1,.4.39.4.4,0,0,1-.4.4H24.8a.37.37,0,0,0-.36.26.36.36,0,0,0,.14.42L27.28,29a.41.41,0,0,1,.1.56A.39.39,0,0,1,27.05,29.69Z"/><path class="cls-6" d="M30.74,43.65a1.26,1.26,0,0,1-.63-.16l-6.92-3.93a.38.38,0,0,1-.2-.35V30.77a.39.39,0,0,1,.39-.4.4.4,0,0,1,.4.4V39L30.5,42.8a.48.48,0,0,0,.5,0l4.91-3.07a.4.4,0,0,1,.55.13.38.38,0,0,1-.13.54l-4.91,3.08A1.25,1.25,0,0,1,30.74,43.65Z"/></svg>