<?xml version="1.0" encoding="utf-8"?>
<!-- Generator: Adobe Illustrator 24.0.3, SVG Export Plug-In . SVG Version: 6.00 Build 0)  -->
<svg version="1.1" id="Layer_1" xmlns="http://www.w3.org/2000/svg" xmlns:xlink="http://www.w3.org/1999/xlink" x="0px" y="0px"
	 viewBox="0 0 300 150" style="enable-background:new 0 0 300 150;" xml:space="preserve">
<style type="text/css">
	.st0{enable-background:new    ;}
	.st1{fill:#FFFFFF;}
</style>
<title>Artboard 1 copy 4</title>
<g class="st0">
	<path class="st1" d="M25.9,87.9l0.1,0.2c-1.3,2.1-3.6,3-6,3c-4.1,0-9.1-2.9-9.1-8.7c0-6.3,4.9-8.7,8.5-8.8v0.2
		c-1.7,0.4-3.6,2-3.6,8.4c0,6.4,2.6,7.9,5.4,7.9C23.4,90.2,25,89,25.9,87.9z M26.1,73.7v6.1h-0.2c-1-3.3-2.8-5.2-5.3-5.9v-0.2
		c2.2,0.1,3.5,0.5,4.5,1.2l0.8-1.2H26.1z"/>
	<path class="st1" d="M28,88c0-2.2,2-3.4,4.8-3.4h2.7v0.2h-0.7c-1.8,0-2.6,1.2-2.6,2.7c0,1.4,0.4,2.4,1.6,2.4c0.7,0,1.3-0.4,1.8-0.9
		v0.2c-0.8,0.9-2.1,2-4,2C29.4,91.2,28,90,28,88z M29,80.9c0-1.3,1.1-2.6,4.5-2.7v0.2c-1,0.1-1.6,0.9-1.6,1.8c0,0.9,0.6,1.5,1.6,1.5
		c-0.4,0.7-1.4,1.2-2.4,1.2C29.8,82.9,29,81.9,29,80.9z M36.2,88.3v-7.6c0-1.2-0.5-2.2-1.7-2.4v-0.2c4.1,0.2,5.8,1.7,5.8,5v6.1
		c0,0.7,0.2,1,0.7,1c0.4,0,0.8-0.4,1.2-1.1h0.1c-0.4,1.4-1.7,2-3.2,2C37.1,91.2,36.2,90.5,36.2,88.3z"/>
	<path class="st1" d="M43,73.5c2.3,0,4.2-0.2,6-1v16.9c0,0.6,0.4,1.3,1.9,1.3v0.2H43v-0.2c1.5,0,1.9-0.6,1.9-1.3V75
		c0-0.9-0.4-1.3-1.8-1.3V73.5z"/>
	<path class="st1" d="M51.8,73.5c2.3,0,4.2-0.2,6-1v16.9c0,0.6,0.4,1.3,1.9,1.3v0.2h-7.9v-0.2c1.5,0,1.9-0.6,1.9-1.3V75
		c0-0.9-0.4-1.3-1.8-1.3V73.5z"/>
</g>
<g class="st0">
	<path class="st1" d="M66.9,79.4c-0.2-0.5-0.6-0.9-1.4-0.9v-0.2h7v0.2c-0.9,0-1.2,0.6-0.8,1.5l3.3,6.8l-2.1,4h-0.1L66.9,79.4z
		 M65.8,94.9c0-1.1,0.9-2,2.2-2.3c-0.1,0.2-0.1,0.4-0.1,0.6c0,0.9,0.5,1.7,1.5,1.7c0.9,0,1.6-0.9,2.5-2.5h0.2
		c-1.4,2.6-2.3,4.8-4.1,4.8C66.6,97.2,65.8,96.2,65.8,94.9z M76,84.4c0.4-0.8,0.7-1.9,0.7-3.2c0-1.4-0.8-2.6-2.5-2.6v-0.2h6.2v0.2
		c-0.8,0-1.1,0.3-1.6,1.2l-2.6,4.9L76,84.4z"/>
</g>
<g class="st0">
	<path class="st1" d="M86.8,78.3c-1.5,0.2-2,1.4-2,6.3c0,4.7,0.5,6.2,2,6.4v0.2c-2.9,0-6.2-2.3-6.2-6.5c0-4.2,3.3-6.4,6.2-6.4V78.3z
		 M94,84.6c0,4.2-3.3,6.5-6.2,6.5V91c1.5-0.1,2-1.7,2-6.4c0-4.9-0.5-6.1-2-6.3v-0.2C90.7,78.2,94,80.4,94,84.6z"/>
	<path class="st1" d="M101.3,87.6c0,1.4,0.5,2.1,1.7,2.1c0.7,0,1.2-0.2,1.7-0.8v0.2c-0.6,1.1-1.8,2-3.9,2c-2.2,0-3.7-1-3.7-3.5v-7
		c0-0.9-0.4-1.3-1.8-1.3v-0.2c2.3,0,4.2-0.2,6-1V87.6z M109.7,89.2c0,0.7,0.2,1,0.7,1c0.4,0,0.8-0.4,1.2-1.1h0.1
		c-0.4,1.4-1.7,2-3.4,2c-1.8,0-2.8-1-2.8-2.4v-8.1c0-0.9-0.4-1.3-1.8-1.3v-0.2c2.2,0,3.8-0.2,5.9-1V89.2z"/>
</g>
<g class="st0">
	<path class="st1" d="M118.7,89.5c0,0.6,0.4,1.3,1.9,1.3v0.2h-7.9v-0.2c1.5,0,1.9-0.6,1.9-1.3v-8.9c0-0.9-0.4-1.3-1.8-1.3v-0.2
		c2.3,0,4.2-0.2,6-1V89.5z M125.4,80.9c0,1.7-1.2,2.8-2.6,2.8c-0.6,0-1.1-0.2-1.4-0.5c0.5-0.2,1-0.8,1-1.7c0-0.7-0.5-1.3-1.4-1.3
		c-0.6,0-1.2,0.4-1.5,0.9v-0.2c0.5-1.6,1.7-2.7,3.2-2.7C124.5,78.2,125.4,79.4,125.4,80.9z"/>
</g>
<g class="st0">
	<path class="st1" d="M15.8,111.8c0,2.4-1.6,3.4-4.1,3.4V99c0-0.9-0.4-1.3-1.9-1.3v-0.1c2.3,0,3.9-0.2,6-1V111.8z M25.3,108.5
		c0,5.2-2.8,6.6-5.1,6.6c-1.4,0-3-1-3.6-2V113c0.6,0.5,1.3,0.9,2.1,0.9c1.2,0,2.4-0.8,2.4-5.3c0-4.5-1.2-5.1-2.4-5.1
		c-0.8,0-1.5,0.3-2.1,0.9v-0.2c0.6-1,2.2-2,3.6-2C22.6,102.2,25.3,103.6,25.3,108.5z"/>
</g>
<g class="st0">
	<path class="st1" d="M33.1,113.5c0,0.6,0.4,1.3,1.9,1.3v0.2h-7.9v-0.2c1.5,0,1.9-0.6,1.9-1.3v-8.9c0-0.9-0.4-1.3-1.8-1.3v-0.2
		c2.3,0,4.2-0.2,6-1V113.5z M39.8,104.9c0,1.7-1.2,2.8-2.6,2.8c-0.6,0-1.1-0.2-1.4-0.5c0.5-0.2,1-0.8,1-1.7c0-0.7-0.5-1.3-1.4-1.3
		c-0.6,0-1.2,0.4-1.5,0.9v-0.2c0.5-1.6,1.7-2.7,3.2-2.7C38.9,102.2,39.8,103.4,39.8,104.9z"/>
</g>
<g class="st0">
	<path class="st1" d="M47.4,102.3c-1.5,0.2-2,1.4-2,6.3c0,4.7,0.5,6.2,2,6.4v0.2c-2.9,0-6.2-2.3-6.2-6.5c0-4.2,3.3-6.4,6.2-6.4
		V102.3z M54.6,108.6c0,4.2-3.3,6.5-6.2,6.5V115c1.5-0.1,1.9-1.7,1.9-6.4c0-4.9-0.5-6.1-1.9-6.3v-0.2
		C51.3,102.2,54.6,104.4,54.6,108.6z"/>
</g>
<g class="st0">
	<path class="st1" d="M64,114.8v0.2h-7.9v-0.2c1.5,0,1.9-0.6,1.9-1.3V99c0-0.9-0.4-1.3-1.8-1.3v-0.1c2.3,0,4.2-0.2,6-1v16.9
		C62.1,114.1,62.5,114.8,64,114.8z M72.4,114.8v0.2c-0.7,0.2-1.6,0.2-2.5,0.2c-1.5,0-3.2-0.3-4.5-2.4l-2.3-3.9
		c2-1.7,3.8-3.8,3.8-5.1c0-0.7-0.3-1.1-1.5-1.1v-0.2h6.4v0.2c-0.6,0-1,0.2-1.4,0.4l-4.6,3.6l4.3,6.7C71,114.6,71.6,114.7,72.4,114.8
		z"/>
</g>
<g class="st0">
	<path class="st1" d="M72.6,108.6c0-4.2,3.2-6.4,6.1-6.4v0.2c-1.5,0.2-1.9,1.4-1.9,6.2c0,3.6,1.6,5.6,3.8,5.6c1.4,0,2.5-0.4,3.6-1.3
		v0.1c-1.3,1.7-3.7,2.2-5.3,2.2C75.8,115.2,72.6,112.8,72.6,108.6z M78.2,107.6c2.2,0,3.1-0.7,3.1-2.8c0-1.2-0.5-2.3-1.6-2.4v-0.2
		c3.3,0,4.9,2.3,4.9,4.2c0,0.4,0,0.9-0.1,1.3h-6.3V107.6z"/>
</g>
<g class="st0">
	<path class="st1" d="M92.2,113.5c0,0.6,0.4,1.3,1.9,1.3v0.2h-7.9v-0.2c1.5,0,1.9-0.6,1.9-1.3v-8.9c0-0.9-0.4-1.3-1.8-1.3v-0.2
		c2.3,0,4.2-0.2,6-1V113.5z M99,104.9c0,1.7-1.2,2.8-2.6,2.8c-0.6,0-1.1-0.2-1.4-0.5c0.5-0.2,1-0.8,1-1.7c0-0.7-0.5-1.3-1.4-1.3
		c-0.6,0-1.2,0.4-1.5,0.9v-0.2c0.5-1.6,1.7-2.7,3.2-2.7C98,102.2,99,103.4,99,104.9z"/>
</g>
<g class="st0">
	<path class="st1" d="M114.4,103.1l-0.3,0.4h-2.4v10c0,0.6,0.4,1.3,1.9,1.3v0.2h-7.9v-0.2c1.5,0,1.9-0.6,1.9-1.3v-10h-1.6l0.3-0.4
		h1.3v-1.1c0-3.5,1.8-5,4.1-5.4v0.1c-0.9,0.3-1.5,1.1-1.5,2.6C110.2,100.8,111.2,103.1,114.4,103.1z M116.5,99.2
		c0,1.4-1,2.2-2.2,2.2c-1.3,0-2.1-0.8-2.5-1.7c1.1,0,1.8-0.6,1.8-1.6c0-0.7-0.4-1.3-0.9-1.5v-0.1C115.4,96.6,116.5,97.8,116.5,99.2z
		"/>
</g>
<g class="st0">
	<path class="st1" d="M121.8,102.3c-1.5,0.2-2,1.4-2,6.3c0,4.7,0.5,6.2,2,6.4v0.2c-2.9,0-6.2-2.3-6.2-6.5c0-4.2,3.3-6.4,6.2-6.4
		V102.3z M129,108.6c0,4.2-3.3,6.5-6.2,6.5V115c1.5-0.1,1.9-1.7,1.9-6.4c0-4.9-0.5-6.1-1.9-6.3v-0.2
		C125.7,102.2,129,104.4,129,108.6z"/>
</g>
<g class="st0">
	<path class="st1" d="M136.7,113.5c0,0.6,0.4,1.3,1.9,1.3v0.2h-7.9v-0.2c1.5,0,1.9-0.6,1.9-1.3v-8.9c0-0.9-0.4-1.3-1.8-1.3v-0.2
		c2.3,0,4.2-0.2,6-1V113.5z M143.4,104.9c0,1.7-1.2,2.8-2.6,2.8c-0.6,0-1.1-0.2-1.4-0.5c0.5-0.2,1-0.8,1-1.7c0-0.7-0.5-1.3-1.4-1.3
		c-0.6,0-1.2,0.4-1.5,0.9v-0.2c0.5-1.6,1.7-2.7,3.2-2.7C142.5,102.2,143.4,103.4,143.4,104.9z"/>
</g>
<g class="st0">
	<path class="st1" d="M10.4,136c0-2.2,2-3.4,4.8-3.4h2.7v0.2h-0.7c-1.8,0-2.6,1.2-2.6,2.7c0,1.4,0.4,2.4,1.6,2.4
		c0.7,0,1.3-0.4,1.8-0.9v0.2c-0.8,0.9-2.1,2-4,2C11.8,139.2,10.4,138,10.4,136z M11.4,128.9c0-1.3,1.1-2.6,4.5-2.7v0.2
		c-1,0.1-1.6,0.9-1.6,1.8c0,0.9,0.6,1.5,1.6,1.5c-0.4,0.7-1.4,1.2-2.4,1.2C12.2,130.9,11.4,129.9,11.4,128.9z M18.7,136.3v-7.6
		c0-1.2-0.5-2.2-1.7-2.4v-0.2c4.1,0.2,5.8,1.7,5.8,5v6.1c0,0.7,0.2,1,0.7,1c0.4,0,0.8-0.4,1.2-1.1h0.1c-0.4,1.4-1.7,2-3.2,2
		C19.6,139.2,18.7,138.5,18.7,136.3z"/>
	<path class="st1" d="M41.3,128.2v0.2c-0.6-0.6-1.3-0.9-2.1-0.9c-1.2,0-2.4,0.6-2.4,5.1c0,4.5,1.2,5.3,2.4,5.3
		c0.8,0,1.5-0.4,2.1-0.9v0.2c-0.6,1-2.2,2-3.6,2c-2.4,0-5.1-1.4-5.1-6.6c0-5,2.7-6.4,5.1-6.4C39,126.2,40.6,127.1,41.3,128.2z
		 M46.1,142.7c0,0.9,0.4,1.3,1.8,1.3v0.1c-2.3,0-3.9,0.2-6,1v-18.1c1.3-0.1,3-0.5,4.1-0.9V142.7z"/>
	<path class="st1" d="M54.5,135.6c0,1.4,0.5,2.1,1.7,2.1c0.6,0,1.2-0.2,1.7-0.8v0.2c-0.6,1.1-1.8,2-3.9,2c-2.2,0-3.7-1-3.7-3.5v-7
		c0-0.9-0.4-1.3-1.8-1.3v-0.2c2.3,0,4.2-0.2,6-1V135.6z M62.8,137.2c0,0.7,0.2,1,0.7,1c0.4,0,0.8-0.4,1.2-1.1h0.1
		c-0.4,1.4-1.7,2-3.4,2c-1.8,0-2.7-1-2.7-2.4v-8.1c0-0.9-0.4-1.3-1.8-1.3v-0.2c2.2,0,3.8-0.2,5.9-1V137.2z"/>
	<path class="st1" d="M72.5,126.3c-1.5,0.2-2,1.4-2,6.3c0,4.7,0.5,6.2,2,6.4v0.2c-2.9,0-6.2-2.3-6.2-6.5c0-4.2,3.3-6.4,6.2-6.4
		V126.3z M79.7,132.6c0,4.2-3.3,6.5-6.2,6.5V139c1.5-0.1,1.9-1.7,1.9-6.4c0-4.9-0.5-6.1-1.9-6.3v-0.2
		C76.4,126.2,79.7,128.4,79.7,132.6z"/>
</g>
<g class="st0">
	<path class="st1" d="M91.1,137v0.2c-0.8,1.1-2.4,2-4.3,2c-2.2,0-3.8-1-3.8-3.5v-8.2h-1.3l0.3-0.4h1v-2.7c1.5,0,3-0.5,4.1-1.4v4.1
		h3.4l-0.3,0.4h-3.1v8.3c0,1.2,0.5,2.5,1.6,2.5C89.4,138.3,90.3,137.8,91.1,137z"/>
</g>
<g class="st0">
	<path class="st1" d="M92,132.6c0-4.2,3.2-6.4,6.1-6.4v0.2c-1.5,0.2-1.9,1.4-1.9,6.2c0,3.6,1.6,5.6,3.8,5.6c1.4,0,2.5-0.4,3.6-1.3
		v0.1c-1.3,1.7-3.7,2.2-5.3,2.2C95.2,139.2,92,136.8,92,132.6z M97.6,131.6c2.2,0,3.1-0.7,3.1-2.8c0-1.2-0.5-2.3-1.6-2.4v-0.2
		c3.3,0,4.9,2.3,4.9,4.2c0,0.4,0,0.9-0.1,1.3h-6.3V131.6z"/>
</g>
</svg>
