<svg id="Layer_1" data-name="Layer 1" xmlns="http://www.w3.org/2000/svg" viewBox="0 0 300 150"><defs><style>.cls-1{fill:#fff;}</style></defs><title>Artboard 1 copy 4</title><path class="cls-1" d="M26.27,75.28l.1.2a6.87,6.87,0,0,1-6,3c-4.08,0-9.15-2.9-9.15-8.72,0-6.33,4.95-8.68,8.55-8.78v.15c-1.75.38-3.65,2-3.65,8.45s2.57,7.9,5.4,7.9A6.13,6.13,0,0,0,26.27,75.28ZM26.47,61v6.08h-.2c-1-3.33-2.82-5.25-5.27-5.93V61a8.63,8.63,0,0,1,4.52,1.15L26.27,61Z"/><path class="cls-1" d="M28.37,75.3c0-2.17,2-3.4,4.8-3.4h2.7v.15h-.75a2.48,2.48,0,0,0-2.65,2.73c0,1.37.4,2.42,1.58,2.42a2.74,2.74,0,0,0,1.82-.88v.16a5.34,5.34,0,0,1-4,2C29.77,78.5,28.35,77.3,28.37,75.3Zm1-7.07c0-1.28,1.15-2.58,4.55-2.73v.15a1.83,1.83,0,0,0-1.6,1.83c0,.9.63,1.45,1.63,1.52a2.82,2.82,0,0,1-2.4,1.2A2,2,0,0,1,29.37,68.23Zm7.25,7.45V68c0-1.23-.47-2.2-1.7-2.38V65.5c4.15.15,5.8,1.73,5.8,5v6.07c0,.73.25,1,.7,1s.8-.37,1.2-1.12h.15a3.12,3.12,0,0,1-3.25,2C37.52,78.5,36.62,77.8,36.62,75.68Z"/><path class="cls-1" d="M43.42,60.85a15.42,15.42,0,0,0,6-1V76.82c0,.63.37,1.28,1.87,1.28v.15H43.4V78.1c1.5,0,1.87-.65,1.87-1.28V62.33c0-.9-.42-1.33-1.85-1.33Z"/><path class="cls-1" d="M52.2,60.85a15.37,15.37,0,0,0,6-1V76.82c0,.63.38,1.28,1.88,1.28v.15H52.17V78.1c1.5,0,1.88-.65,1.88-1.28V62.33c0-.9-.43-1.33-1.85-1.33Z"/><path class="cls-1" d="M67.27,66.78a1.35,1.35,0,0,0-1.37-.88v-.15h7v.15c-.88,0-1.23.6-.8,1.48l3.27,6.82-2.15,4h-.15Zm-1.1,15.49a2.63,2.63,0,0,1,2.2-2.35,2.11,2.11,0,0,0-.1.63,1.46,1.46,0,0,0,1.48,1.67c.87,0,1.57-.92,2.52-2.52h.18c-1.38,2.57-2.33,4.8-4.08,4.8A2.08,2.08,0,0,1,66.17,82.27ZM76.42,71.75a6.77,6.77,0,0,0,.7-3.22,2.41,2.41,0,0,0-2.55-2.63v-.15H80.8v.15c-.83,0-1.15.33-1.63,1.18L76.57,72Z"/><path class="cls-1" d="M87.15,65.65c-1.48.18-2,1.43-2,6.3,0,4.7.5,6.25,2,6.4v.15A6.37,6.37,0,0,1,80.92,72a6.27,6.27,0,0,1,6.23-6.45Zm7.2,6.3a6.37,6.37,0,0,1-6.2,6.55v-.15c1.47-.15,1.95-1.73,1.95-6.4,0-4.9-.5-6.15-1.95-6.3V65.5A6.23,6.23,0,0,1,94.35,72Z"/><path class="cls-1" d="M101.72,75c0,1.39.48,2.12,1.73,2.12a2.19,2.19,0,0,0,1.72-.78v.16a4.16,4.16,0,0,1-3.87,2c-2.25,0-3.7-1-3.7-3.52V68c0-.9-.43-1.32-1.85-1.32v-.15a15.18,15.18,0,0,0,6-1Zm8.33,1.59c0,.73.22,1,.67,1s.8-.37,1.2-1.12h.15c-.4,1.37-1.75,2-3.4,2s-2.75-1-2.75-2.45V68c0-.9-.42-1.32-1.77-1.32v-.15a16.15,16.15,0,0,0,5.9-1Z"/><path class="cls-1" d="M119.07,76.82c0,.63.38,1.28,1.88,1.28v.15h-7.88V78.1c1.5,0,1.88-.65,1.88-1.28V68c0-.9-.43-1.32-1.85-1.32v-.15a15.18,15.18,0,0,0,6-1Zm6.75-8.62a2.67,2.67,0,0,1-2.57,2.85,1.71,1.71,0,0,1-1.43-.55,1.82,1.82,0,0,0,1-1.7,1.33,1.33,0,0,0-1.4-1.35,1.72,1.72,0,0,0-1.5,1v-.2a3.46,3.46,0,0,1,3.25-2.7A2.54,2.54,0,0,1,125.82,68.2Z"/><path class="cls-1" d="M16.17,102.1c0,2.38-1.62,3.4-4.12,3.4V89.33c0-.9-.45-1.33-1.88-1.33v-.15a16.61,16.61,0,0,0,6-1Zm9.53-3.22c0,5.22-2.78,6.62-5.15,6.62a4.64,4.64,0,0,1-3.63-2v-.16a3.44,3.44,0,0,0,2.08.88c1.17,0,2.45-.83,2.45-5.32s-1.2-5.1-2.45-5.1a2.78,2.78,0,0,0-2.08.92v-.2a4.63,4.63,0,0,1,3.63-2C23,92.5,25.7,93.9,25.7,98.88Z"/><path class="cls-1" d="M33.45,103.82c0,.63.37,1.28,1.87,1.28v.15H27.45v-.15c1.5,0,1.87-.65,1.87-1.28V95c0-.9-.42-1.32-1.85-1.32v-.15a15.23,15.23,0,0,0,6-1ZM40.2,95.2a2.68,2.68,0,0,1-2.58,2.85,1.69,1.69,0,0,1-1.42-.55,1.83,1.83,0,0,0,1-1.7,1.33,1.33,0,0,0-1.4-1.35,1.73,1.73,0,0,0-1.5,1v-.2a3.46,3.46,0,0,1,3.25-2.7A2.54,2.54,0,0,1,40.2,95.2Z"/><path class="cls-1" d="M47.77,92.65c-1.47.18-2,1.43-2,6.3,0,4.7.5,6.25,2,6.4v.15A6.37,6.37,0,0,1,41.55,99a6.27,6.27,0,0,1,6.22-6.45ZM55,99a6.36,6.36,0,0,1-6.2,6.55v-.15c1.48-.15,1.95-1.73,1.95-6.4,0-4.9-.5-6.15-1.95-6.3V92.5A6.23,6.23,0,0,1,55,99Z"/><path class="cls-1" d="M64.35,105.1v.15H56.47v-.15c1.5,0,1.88-.65,1.88-1.28V89.33c0-.9-.43-1.33-1.85-1.33v-.15a15.37,15.37,0,0,0,6-1v16.94C62.47,104.45,62.85,105.1,64.35,105.1Zm8.47,0v.15a9.86,9.86,0,0,1-2.5.25,4.71,4.71,0,0,1-4.52-2.43l-2.35-3.92c2-1.72,3.82-3.82,3.82-5.1,0-.67-.32-1.15-1.47-1.15v-.15h6.4v.15a2.25,2.25,0,0,0-1.4.45L66.22,97l4.33,6.7A2.59,2.59,0,0,0,72.82,105.1Z"/><path class="cls-1" d="M73,99A6.19,6.19,0,0,1,79.1,92.5v.15c-1.48.18-1.88,1.43-1.88,6.2,0,3.6,1.6,5.57,3.83,5.57a5.43,5.43,0,0,0,3.65-1.32v.15a7,7,0,0,1-5.3,2.25A6.34,6.34,0,0,1,73,99Zm5.63-1c2.2,0,3.12-.7,3.12-2.8,0-1.2-.5-2.3-1.62-2.45V92.5c3.3,0,4.9,2.35,4.9,4.25a6.9,6.9,0,0,1-.13,1.3H78.6Z"/><path class="cls-1" d="M92.6,103.82c0,.63.37,1.28,1.87,1.28v.15H86.6v-.15c1.5,0,1.87-.65,1.87-1.28V95c0-.9-.42-1.32-1.85-1.32v-.15a15.23,15.23,0,0,0,6-1Zm6.75-8.62a2.68,2.68,0,0,1-2.58,2.85,1.69,1.69,0,0,1-1.42-.55,1.83,1.83,0,0,0,1-1.7,1.33,1.33,0,0,0-1.4-1.35,1.73,1.73,0,0,0-1.5,1v-.2a3.46,3.46,0,0,1,3.25-2.7A2.54,2.54,0,0,1,99.35,95.2Z"/><path class="cls-1" d="M114.8,93.4l-.28.38h-2.45v10c0,.63.4,1.28,1.9,1.28v.15h-7.9v-.15c1.5,0,1.88-.65,1.88-1.28v-10h-1.63l.28-.38H108V92.28c0-3.55,1.85-5,4.15-5.4V87a2.51,2.51,0,0,0-1.48,2.65C110.62,91.15,111.6,93.4,114.8,93.4Zm2.12-3.82a2.12,2.12,0,0,1-2.17,2.2,2.6,2.6,0,0,1-2.53-1.68A1.58,1.58,0,0,0,114,88.5a1.44,1.44,0,0,0-.9-1.47v-.15C115.75,87,116.92,88.15,116.92,89.58Z"/><path class="cls-1" d="M122.2,92.65c-1.48.18-2,1.43-2,6.3,0,4.7.5,6.25,2,6.4v.15A6.37,6.37,0,0,1,116,99a6.27,6.27,0,0,1,6.23-6.45Zm7.2,6.3a6.37,6.37,0,0,1-6.2,6.55v-.15c1.47-.15,2-1.73,2-6.4,0-4.9-.5-6.15-2-6.3V92.5A6.23,6.23,0,0,1,129.4,99Z"/><path class="cls-1" d="M137.05,103.82c0,.63.37,1.28,1.87,1.28v.15h-7.87v-.15c1.5,0,1.87-.65,1.87-1.28V95c0-.9-.42-1.32-1.85-1.32v-.15a15.23,15.23,0,0,0,6-1Zm6.75-8.62a2.68,2.68,0,0,1-2.58,2.85,1.69,1.69,0,0,1-1.42-.55,1.83,1.83,0,0,0,1-1.7,1.33,1.33,0,0,0-1.4-1.35,1.73,1.73,0,0,0-1.5,1v-.2a3.46,3.46,0,0,1,3.25-2.7A2.54,2.54,0,0,1,143.8,95.2Z"/><path class="cls-1" d="M10.8,129.3c0-2.17,2-3.4,4.8-3.4h2.7v.15h-.75a2.48,2.48,0,0,0-2.65,2.73c0,1.37.4,2.42,1.57,2.42a2.76,2.76,0,0,0,1.83-.88v.16a5.36,5.36,0,0,1-4,2C12.2,132.5,10.77,131.3,10.8,129.3Zm1-7.07c0-1.28,1.15-2.58,4.55-2.73v.15a1.83,1.83,0,0,0-1.6,1.83c0,.9.62,1.45,1.62,1.52a2.8,2.8,0,0,1-2.4,1.2A2,2,0,0,1,11.8,122.23Zm7.25,7.45V122c0-1.23-.48-2.2-1.7-2.38v-.15c4.15.15,5.8,1.73,5.8,5v6.07c0,.73.25,1,.7,1s.8-.37,1.2-1.12h.15a3.12,3.12,0,0,1-3.25,2C20,132.5,19.05,131.8,19.05,129.68Z"/><path class="cls-1" d="M41.65,121.5v.2a2.84,2.84,0,0,0-2.1-.92c-1.25,0-2.43.57-2.43,5.1s1.25,5.32,2.43,5.32a3.49,3.49,0,0,0,2.1-.88v.16a4.7,4.7,0,0,1-3.65,2c-2.38,0-5.13-1.4-5.13-6.62,0-5,2.7-6.38,5.13-6.38A4.68,4.68,0,0,1,41.65,121.5Zm4.87,14.55c0,.9.43,1.32,1.85,1.32v.15a16.28,16.28,0,0,0-6,1V120.43a16.09,16.09,0,0,0,4.12-1Z"/><path class="cls-1" d="M54.9,129c0,1.39.47,2.12,1.72,2.12a2.21,2.21,0,0,0,1.73-.78v.16a4.18,4.18,0,0,1-3.88,2c-2.25,0-3.7-1.05-3.7-3.52v-7c0-.9-.42-1.32-1.85-1.32v-.15a15.23,15.23,0,0,0,6-1Zm8.32,1.59c0,.73.23,1,.68,1s.8-.37,1.2-1.12h.15c-.4,1.37-1.75,2-3.4,2s-2.75-1-2.75-2.45V122c0-.9-.43-1.32-1.78-1.32v-.15a16.15,16.15,0,0,0,5.9-1Z"/><path class="cls-1" d="M72.92,119.65c-1.47.18-2,1.43-2,6.3,0,4.7.5,6.25,2,6.4v.15A6.37,6.37,0,0,1,66.7,126a6.27,6.27,0,0,1,6.22-6.45Zm7.2,6.3a6.36,6.36,0,0,1-6.2,6.55v-.15c1.48-.15,2-1.73,2-6.4,0-4.9-.5-6.15-2-6.3v-.15A6.23,6.23,0,0,1,80.12,126Z"/><path class="cls-1" d="M91.47,130.32v.16a5.25,5.25,0,0,1-4.27,2c-2.25,0-3.85-1-3.85-3.52v-8.2h-1.3l.27-.38h1v-2.7a6.31,6.31,0,0,0,4.1-1.4v4.1h3.37l-.27.38h-3.1v8.27c0,1.25.47,2.55,1.65,2.55A3.65,3.65,0,0,0,91.47,130.32Z"/><path class="cls-1" d="M92.4,126a6.19,6.19,0,0,1,6.12-6.45v.15c-1.47.18-1.87,1.43-1.87,6.2,0,3.6,1.6,5.57,3.82,5.57a5.39,5.39,0,0,0,3.65-1.32v.15a7,7,0,0,1-5.3,2.25A6.33,6.33,0,0,1,92.4,126Zm5.62-1c2.2,0,3.13-.7,3.13-2.8,0-1.2-.5-2.3-1.63-2.45v-.15c3.3,0,4.9,2.35,4.9,4.25a7.85,7.85,0,0,1-.12,1.3H98Z"/></svg>