<?xml version="1.0" encoding="utf-8"?>
<!-- Generator: Adobe Illustrator 24.0.3, SVG Export Plug-In . SVG Version: 6.00 Build 0)  -->
<svg version="1.1" id="Layer_1" xmlns="http://www.w3.org/2000/svg" xmlns:xlink="http://www.w3.org/1999/xlink" x="0px" y="0px"
	 viewBox="0 0 300 150" style="enable-background:new 0 0 300 150;" xml:space="preserve">
<style type="text/css">
	.st0{enable-background:new    ;}
	.st1{fill:#FFFFFF;}
</style>
<title>Artboard 11</title>
<g class="st0">
	<path class="st1" d="M10.8,91c1.5,0,1.9-0.6,1.9-1.3V75.5c0-0.7-0.4-1.3-1.9-1.3v-0.2h6.1v15.6c0,0.7,0.4,1.3,1.9,1.3v0.2h-8V91z
		 M18.1,74.3v-0.2H25v5h-0.2C23.7,75.6,21.9,74.5,18.1,74.3z M19.5,82.8l-1.4-0.1v-0.2l1.4-0.1c1.5-0.1,2.5-0.7,3.3-2.2H23v4.7h-0.2
		C22,83.4,21,82.9,19.5,82.8z"/>
</g>
<g class="st0">
	<path class="st1" d="M32.3,89.7c0,0.6,0.4,1.3,1.9,1.3v0.2h-7.9V91c1.5,0,1.9-0.7,1.9-1.3v-8.9c0-0.9-0.4-1.3-1.8-1.3v-0.2
		c2.3,0,4.2-0.2,6-1V89.7z M39,81.1c0,1.7-1.2,2.8-2.6,2.8c-0.6,0-1.1-0.2-1.4-0.5c0.5-0.2,1-0.8,1-1.7c0-0.7-0.5-1.3-1.4-1.3
		c-0.6,0-1.2,0.4-1.5,0.9v-0.2c0.5-1.6,1.7-2.7,3.2-2.7C38.1,78.4,39,79.6,39,81.1z"/>
</g>
<g class="st0">
	<path class="st1" d="M46.6,78.5c-1.5,0.2-2,1.4-2,6.3c0,4.7,0.5,6.2,2,6.4v0.2c-2.9,0-6.2-2.3-6.2-6.5s3.3-6.4,6.2-6.4V78.5z
		 M53.8,84.8c0,4.2-3.3,6.5-6.2,6.5v-0.2c1.5-0.2,1.9-1.7,1.9-6.4c0-4.9-0.5-6.1-1.9-6.3v-0.2C50.5,78.4,53.8,80.6,53.8,84.8z"/>
	<path class="st1" d="M61.5,89.7c0,0.6,0.4,1.3,1.9,1.3v0.2h-7.9V91c1.5,0,1.9-0.7,1.9-1.3v-8.9c0-0.9-0.4-1.3-1.8-1.3v-0.2
		c2.3,0,4.2-0.2,6-1V89.7z M69.8,81.9v7.8c0,0.6,0.3,1.3,1.8,1.3v0.2h-7.8V91c1.5,0,1.9-0.7,1.9-1.3v-7.8c0-1.4-0.5-2.1-1.7-2.1
		c-0.7,0-1.3,0.3-1.6,0.8v-0.2c0.6-1,1.8-2,3.6-2C68.3,78.4,69.8,79.4,69.8,81.9z M78,81.9v7.8c0,0.6,0.4,1.3,1.9,1.3v0.2H72V91
		c1.5,0,1.9-0.7,1.9-1.3v-7.8c0-1.4-0.5-2.1-1.7-2.1c-0.7,0-1.3,0.3-1.6,0.8v-0.2c0.6-1,1.8-2,3.6-2C76.5,78.4,78,79.4,78,81.9z"/>
</g>
<g class="st0">
	<path class="st1" d="M15.1,112.1c-0.8,0-1.4,0.5-1.4,1.2c0,0.7,0.5,1.6,2.2,1.8v0.2c-3.3-0.1-5.1-1-5.1-2.5c0-1.2,1-1.8,2.1-1.8
		C13.9,111,14.7,111.5,15.1,112.1z M15.9,102.5c-0.9,0.2-1.8,0.7-1.8,1.7c0.1,2.9,8.2,3.4,8.2,7.3c0,2.4-2,3.7-5.3,3.8v-0.2
		c1-0.2,2.2-0.6,2.2-1.8c0-2.6-8.2-3.5-8.2-7.3c0-2.2,2.1-3.5,4.9-3.7V102.5z M21.8,104.9c0,0.8-0.6,1.6-1.8,1.6
		c-1,0-1.8-0.5-2.1-1.2c0.8-0.1,1.1-0.6,1.1-1.2c0-0.8-1-1.5-1.9-1.6v-0.2C19.8,102.5,21.8,103.5,21.8,104.9z"/>
	<path class="st1" d="M29.7,118.9c0,0.9,0.4,1.3,1.8,1.3v0.2c-2.3,0-3.9,0.2-6,1v-16.6c0-0.9-0.4-1.3-1.8-1.3v-0.1
		c2.3,0,3.9-0.2,6-1V118.9z M39.2,108.7c0,5.2-2.7,6.6-5.1,6.6c-1.4,0-3-1-3.6-2v-0.2c0.6,0.5,1.3,0.9,2.1,0.9
		c1.2,0,2.4-0.8,2.4-5.3c0-4.5-1.2-5.1-2.4-5.1c-0.8,0-1.5,0.3-2.1,0.9v-0.2c0.6-1,2.2-2,3.6-2C36.5,102.4,39.2,103.8,39.2,108.7z"
		/>
	<path class="st1" d="M41.4,108.8c0-4.2,3.2-6.4,6.1-6.4v0.2c-1.5,0.2-1.9,1.4-1.9,6.2c0,3.6,1.6,5.6,3.8,5.6c1.4,0,2.5-0.4,3.6-1.3
		v0.2c-1.3,1.7-3.7,2.2-5.3,2.2C44.7,115.4,41.4,113,41.4,108.8z M47.1,107.8c2.2,0,3.1-0.7,3.1-2.8c0-1.2-0.5-2.3-1.6-2.4v-0.2
		c3.3,0,4.9,2.3,4.9,4.2c0,0.4,0,0.9-0.1,1.3h-6.3V107.8z"/>
	<path class="st1" d="M61.9,102.5c-1.5,0.2-2.1,1.4-2.1,6.2c0,3.6,1.8,5.6,4,5.6c1.4,0,2.5-0.4,3.6-1.3v0.2
		c-1.3,1.7-3.7,2.2-5.3,2.2c-3.2,0-6.7-2.3-6.7-6.5s3.5-6.4,6.4-6.4V102.5z M67.5,105.2c0,1.3-0.9,2.4-2.5,2.4c-1.2,0-2-0.8-2.2-1.6
		c0.7-0.3,1.2-1.2,1.2-1.8c0-0.6-0.1-1.5-1.1-1.7v-0.2C66.2,102.4,67.5,103.8,67.5,105.2z"/>
	<path class="st1" d="M68.9,103.3c2.3,0,4.2-0.2,6-1v11.3c0,0.6,0.4,1.3,1.9,1.3v0.2h-7.9V115c1.5,0,1.9-0.7,1.9-1.3v-8.9
		c0-0.9-0.4-1.3-1.8-1.3V103.3z M70.2,98.6c0-1.3,1-2.2,2.5-2.2c1.5,0,2.5,0.9,2.5,2.2c0,1.3-1,2.2-2.5,2.2
		C71.3,100.8,70.2,99.9,70.2,98.6z"/>
	<path class="st1" d="M78,112.2c0-2.2,2-3.4,4.8-3.4h2.7v0.2h-0.7c-1.8,0-2.6,1.2-2.6,2.7c0,1.4,0.4,2.4,1.6,2.4
		c0.7,0,1.3-0.4,1.8-0.9v0.2c-0.8,0.9-2.1,2-4,2C79.4,115.4,78,114.2,78,112.2z M79,105.1c0-1.3,1.1-2.6,4.5-2.7v0.2
		c-1,0.2-1.6,0.9-1.6,1.8c0,0.9,0.6,1.5,1.6,1.5c-0.4,0.7-1.4,1.2-2.4,1.2C79.8,107.1,79,106.1,79,105.1z M86.3,112.5v-7.6
		c0-1.2-0.5-2.2-1.7-2.4v-0.2c4.1,0.2,5.8,1.7,5.8,5v6.1c0,0.7,0.2,1,0.7,1c0.4,0,0.8-0.4,1.2-1.1h0.1c-0.4,1.4-1.7,2-3.2,2
		C87.2,115.4,86.3,114.7,86.3,112.5z"/>
	<path class="st1" d="M93.1,97.7c2.3,0,4.2-0.2,6-1v16.9c0,0.6,0.4,1.3,1.9,1.3v0.2h-7.9V115c1.5,0,1.9-0.7,1.9-1.3V99.2
		c0-0.9-0.4-1.3-1.8-1.3V97.7z"/>
	<path class="st1" d="M102,103.3c2.3,0,4.2-0.2,6-1v11.3c0,0.6,0.4,1.3,1.9,1.3v0.2H102V115c1.5,0,1.9-0.7,1.9-1.3v-8.9
		c0-0.9-0.4-1.3-1.8-1.3V103.3z M103.3,98.6c0-1.3,1-2.2,2.5-2.2c1.5,0,2.5,0.9,2.5,2.2c0,1.3-1,2.2-2.5,2.2
		C104.4,100.8,103.3,99.9,103.3,98.6z"/>
	<path class="st1" d="M115.7,112.1c-0.8,0-1.4,0.5-1.4,1.2c0,0.7,0.5,1.6,2.2,1.8v0.2c-3.3-0.1-5.1-1-5.1-2.5c0-1.2,1-1.8,2.1-1.8
		C114.5,111,115.4,111.5,115.7,112.1z M116.6,102.5c-0.9,0.2-1.8,0.7-1.8,1.7c0.1,2.9,8.2,3.4,8.2,7.3c0,2.4-2,3.7-5.3,3.8v-0.2
		c1-0.2,2.2-0.6,2.2-1.8c0-2.6-8.2-3.5-8.2-7.3c0-2.2,2.1-3.5,4.9-3.7V102.5z M122.5,104.9c0,0.8-0.6,1.6-1.8,1.6
		c-1,0-1.8-0.5-2.1-1.2c0.8-0.1,1.1-0.6,1.1-1.2c0-0.8-1-1.5-1.9-1.6v-0.2C120.5,102.5,122.5,103.5,122.5,104.9z"/>
	<path class="st1" d="M134.3,113.2v0.2c-0.8,1.2-2.4,2-4.3,2c-2.2,0-3.8-1-3.8-3.5v-8.2h-1.3l0.3-0.4h1v-2.7c1.5,0,3-0.5,4.1-1.4
		v4.1h3.4l-0.3,0.4h-3.1v8.3c0,1.2,0.5,2.5,1.6,2.5C132.6,114.5,133.5,114,134.3,113.2z"/>
	<path class="st1" d="M139.7,112.1c-0.8,0-1.4,0.5-1.4,1.2c0,0.7,0.5,1.6,2.2,1.8v0.2c-3.3-0.1-5.1-1-5.1-2.5c0-1.2,1-1.8,2.1-1.8
		C138.5,111,139.3,111.5,139.7,112.1z M140.5,102.5c-0.9,0.2-1.8,0.7-1.8,1.7c0.1,2.9,8.2,3.4,8.2,7.3c0,2.4-2,3.7-5.3,3.8v-0.2
		c1-0.2,2.2-0.6,2.2-1.8c0-2.6-8.2-3.5-8.2-7.3c0-2.2,2.1-3.5,4.9-3.7V102.5z M146.4,104.9c0,0.8-0.6,1.6-1.8,1.6
		c-1,0-1.8-0.5-2.1-1.2c0.8-0.1,1.1-0.6,1.1-1.2c0-0.8-1-1.5-1.9-1.6v-0.2C144.4,102.5,146.4,103.5,146.4,104.9z"/>
</g>
<g class="st0">
	<path class="st1" d="M154.4,113.2c0,1.7-1.9,4.1-4.9,5.3l-0.1-0.2c0.9-0.7,1.7-1.9,1.7-3c0-1.3-0.9-2-2.1-2
		c0.2-1.8,1.3-2.8,2.9-2.8C153.3,110.5,154.4,111.4,154.4,113.2z"/>
</g>
<g class="st0">
	<path class="st1" d="M17.1,139.2v0.2c-2-0.1-3.5-0.4-4.8-1.2l-0.8,1.2h-0.2v-6.1h0.2C12.3,136.1,14,138.2,17.1,139.2z M24.5,134.2
		c0,3.2-2.4,5-6.3,5.1v-0.2c1.4-0.2,2.7-1.1,2.7-2.5c0-4.4-9.5-4.8-9.5-9.8c0-3,2.4-4.7,5.7-4.9v0.2c-1.1,0.2-2.2,0.9-2.2,2.3
		C14.9,128.7,24.5,129.2,24.5,134.2z M18.2,122v-0.2c1.9,0.1,3.3,0.5,4.5,1.3l0.9-1.3h0.2v5.6h-0.2C22.8,124.8,20.6,122.6,18.2,122z
		"/>
</g>
<g class="st0">
	<path class="st1" d="M35.9,137.2v0.2c-0.8,1.2-2.4,2-4.3,2c-2.2,0-3.8-1-3.8-3.5v-8.2h-1.3l0.3-0.4h1v-2.7c1.5,0,3-0.5,4.1-1.4v4.1
		h3.4l-0.3,0.4h-3.1v8.3c0,1.2,0.5,2.5,1.6,2.5C34.2,138.5,35.1,138,35.9,137.2z"/>
	<path class="st1" d="M36.7,136.2c0-2.2,2-3.4,4.8-3.4h2.7v0.2h-0.7c-1.8,0-2.6,1.2-2.6,2.7c0,1.4,0.4,2.4,1.6,2.4
		c0.7,0,1.3-0.4,1.8-0.9v0.2c-0.8,0.9-2.1,2-4,2C38.1,139.4,36.7,138.2,36.7,136.2z M37.7,129.1c0-1.3,1.1-2.6,4.5-2.7v0.2
		c-1,0.2-1.6,0.9-1.6,1.8c0,0.9,0.6,1.5,1.6,1.5c-0.4,0.7-1.4,1.2-2.4,1.2C38.5,131.1,37.7,130.1,37.7,129.1z M44.9,136.5v-7.6
		c0-1.2-0.5-2.2-1.7-2.4v-0.2c4.1,0.2,5.8,1.7,5.8,5v6.1c0,0.7,0.2,1,0.7,1c0.4,0,0.8-0.4,1.2-1.1h0.1c-0.4,1.4-1.7,2-3.2,2
		C45.8,139.4,44.9,138.7,44.9,136.5z"/>
</g>
<g class="st0">
	<path class="st1" d="M57.8,137.7c0,0.6,0.4,1.3,1.9,1.3v0.2h-7.9V139c1.5,0,1.9-0.7,1.9-1.3v-8.9c0-0.9-0.4-1.3-1.8-1.3v-0.2
		c2.3,0,4.2-0.2,6-1V137.7z M64.6,129.1c0,1.7-1.2,2.8-2.6,2.8c-0.6,0-1.1-0.2-1.4-0.5c0.5-0.2,1-0.8,1-1.7c0-0.7-0.5-1.3-1.4-1.3
		c-0.6,0-1.2,0.4-1.5,0.9v-0.2c0.5-1.6,1.7-2.7,3.2-2.7C63.6,126.4,64.6,127.6,64.6,129.1z"/>
</g>
<g class="st0">
	<path class="st1" d="M87,136.1l0.1,0.2c-1.3,2.1-3.6,3-6,3c-4.1,0-9.1-2.9-9.1-8.7c0-6.3,4.9-8.7,8.5-8.8v0.2
		c-1.7,0.4-3.6,2-3.6,8.4c0,6.4,2.6,7.9,5.4,7.9C84.5,138.4,86.1,137.2,87,136.1z M87.2,121.9v6.1H87c-1-3.3-2.8-5.2-5.3-5.9v-0.2
		c2.2,0.1,3.5,0.5,4.5,1.2l0.8-1.2H87.2z"/>
	<path class="st1" d="M89.1,136.2c0-2.2,2-3.4,4.8-3.4h2.7v0.2h-0.7c-1.8,0-2.6,1.2-2.6,2.7c0,1.4,0.4,2.4,1.6,2.4
		c0.7,0,1.3-0.4,1.8-0.9v0.2c-0.8,0.9-2.1,2-4,2C90.5,139.4,89.1,138.2,89.1,136.2z M90.1,129.1c0-1.3,1.1-2.6,4.5-2.7v0.2
		c-1,0.2-1.6,0.9-1.6,1.8c0,0.9,0.6,1.5,1.6,1.5c-0.4,0.7-1.4,1.2-2.4,1.2C90.9,131.1,90.1,130.1,90.1,129.1z M97.4,136.5v-7.6
		c0-1.2-0.5-2.2-1.7-2.4v-0.2c4.1,0.2,5.8,1.7,5.8,5v6.1c0,0.7,0.2,1,0.7,1c0.4,0,0.8-0.4,1.2-1.1h0.1c-0.4,1.4-1.7,2-3.2,2
		C98.3,139.4,97.4,138.7,97.4,136.5z"/>
	<path class="st1" d="M110.3,137.7c0,0.6,0.4,1.3,1.9,1.3v0.2h-7.9V139c1.5,0,1.9-0.7,1.9-1.3v-8.9c0-0.9-0.4-1.3-1.8-1.3v-0.2
		c2.3,0,4.2-0.2,6-1V137.7z M118.6,129.9v7.8c0,0.6,0.3,1.3,1.8,1.3v0.2h-7.8V139c1.5,0,1.9-0.7,1.9-1.3v-7.8c0-1.4-0.5-2.1-1.7-2.1
		c-0.7,0-1.3,0.3-1.6,0.8v-0.2c0.6-1,1.8-2,3.6-2C117.1,126.4,118.6,127.4,118.6,129.9z M126.9,129.9v7.8c0,0.6,0.4,1.3,1.9,1.3v0.2
		h-7.9V139c1.5,0,1.9-0.7,1.9-1.3v-7.8c0-1.4-0.5-2.1-1.7-2.1c-0.7,0-1.3,0.3-1.6,0.8v-0.2c0.6-1,1.8-2,3.6-2
		C125.4,126.4,126.9,127.4,126.9,129.9z"/>
	<path class="st1" d="M135.4,142.9c0,0.9,0.4,1.3,1.8,1.3v0.2c-2.3,0-3.9,0.2-6,1v-16.6c0-0.9-0.4-1.3-1.8-1.3v-0.1
		c2.3,0,3.9-0.2,6-1V142.9z M144.9,132.7c0,5.2-2.7,6.6-5.1,6.6c-1.4,0-3-1-3.6-2v-0.2c0.6,0.5,1.3,0.9,2.1,0.9
		c1.2,0,2.4-0.8,2.4-5.3c0-4.5-1.2-5.1-2.4-5.1c-0.8,0-1.5,0.3-2.1,0.9v-0.2c0.6-1,2.2-2,3.6-2C142.2,126.4,144.9,127.8,144.9,132.7
		z"/>
	<path class="st1" d="M147.1,132.8c0-4.2,3.2-6.4,6.1-6.4v0.2c-1.5,0.2-1.9,1.4-1.9,6.2c0,3.6,1.6,5.6,3.8,5.6
		c1.4,0,2.5-0.4,3.6-1.3v0.2c-1.3,1.7-3.7,2.2-5.3,2.2C150.4,139.4,147.1,137,147.1,132.8z M152.8,131.8c2.2,0,3.1-0.7,3.1-2.8
		c0-1.2-0.5-2.3-1.6-2.4v-0.2c3.3,0,4.9,2.3,4.9,4.3c0,0.4,0,0.9-0.1,1.3h-6.3V131.8z"/>
	<path class="st1" d="M166.8,137.7c0,0.6,0.4,1.3,1.9,1.3v0.2h-7.9V139c1.5,0,1.9-0.7,1.9-1.3v-8.9c0-0.9-0.4-1.3-1.8-1.3v-0.2
		c2.3,0,4.2-0.2,6-1V137.7z M173.5,129.1c0,1.7-1.2,2.8-2.6,2.8c-0.6,0-1.1-0.2-1.4-0.5c0.5-0.2,1-0.8,1-1.7c0-0.7-0.5-1.3-1.4-1.3
		c-0.6,0-1.2,0.4-1.5,0.9v-0.2c0.5-1.6,1.7-2.7,3.2-2.7C172.6,126.4,173.5,127.6,173.5,129.1z"/>
	<path class="st1" d="M190.2,136.1l0.1,0.2c-1.3,2.1-3.6,3-6,3c-4.1,0-9.1-2.9-9.1-8.7c0-6.3,4.9-8.7,8.5-8.8v0.2
		c-1.7,0.4-3.6,2-3.6,8.4c0,6.4,2.6,7.9,5.4,7.9C187.7,138.4,189.4,137.2,190.2,136.1z M190.4,121.9v6.1h-0.2
		c-1-3.3-2.8-5.2-5.3-5.9v-0.2c2.2,0.1,3.5,0.5,4.5,1.2l0.8-1.2H190.4z"/>
	<path class="st1" d="M192.3,136.2c0-2.2,2-3.4,4.8-3.4h2.7v0.2h-0.7c-1.8,0-2.6,1.2-2.6,2.7c0,1.4,0.4,2.4,1.6,2.4
		c0.7,0,1.3-0.4,1.8-0.9v0.2c-0.8,0.9-2.1,2-4,2C193.7,139.4,192.3,138.2,192.3,136.2z M193.3,129.1c0-1.3,1.1-2.6,4.5-2.7v0.2
		c-1,0.2-1.6,0.9-1.6,1.8c0,0.9,0.6,1.5,1.6,1.5c-0.4,0.7-1.4,1.2-2.4,1.2C194.1,131.1,193.3,130.1,193.3,129.1z M200.6,136.5v-7.6
		c0-1.2-0.5-2.2-1.7-2.4v-0.2c4.1,0.2,5.8,1.7,5.8,5v6.1c0,0.7,0.2,1,0.7,1c0.4,0,0.8-0.4,1.2-1.1h0.1c-0.4,1.4-1.7,2-3.2,2
		C201.5,139.4,200.6,138.7,200.6,136.5z"/>
</g>
<g class="st0">
	<path class="st1" d="M213.5,137.7c0,0.6,0.4,1.3,1.9,1.3v0.2h-7.9V139c1.5,0,1.9-0.7,1.9-1.3v-8.9c0-0.9-0.4-1.3-1.8-1.3v-0.2
		c2.3,0,4.2-0.2,6-1V137.7z M220.3,129.1c0,1.7-1.2,2.8-2.6,2.8c-0.6,0-1.1-0.2-1.4-0.5c0.5-0.2,1-0.8,1-1.7c0-0.7-0.5-1.3-1.4-1.3
		c-0.6,0-1.2,0.4-1.5,0.9v-0.2c0.5-1.6,1.7-2.7,3.2-2.7C219.3,126.4,220.3,127.6,220.3,129.1z"/>
</g>
<g class="st0">
	<path class="st1" d="M221.6,132.8c0-4.2,3.2-6.4,6.1-6.4v0.2c-1.5,0.2-1.9,1.4-1.9,6.2c0,3.6,1.6,5.6,3.8,5.6
		c1.4,0,2.5-0.4,3.6-1.3v0.2c-1.3,1.7-3.7,2.2-5.3,2.2C224.8,139.4,221.6,137,221.6,132.8z M227.2,131.8c2.2,0,3.1-0.7,3.1-2.8
		c0-1.2-0.5-2.3-1.6-2.4v-0.2c3.3,0,4.9,2.3,4.9,4.3c0,0.4,0,0.9-0.1,1.3h-6.3V131.8z"/>
</g>
</svg>
