<svg id="Layer_1" data-name="Layer 1" xmlns="http://www.w3.org/2000/svg" viewBox="0 0 300 150"><defs><style>.cls-1{fill:#fff;}</style></defs><title>Artboard 11</title><path class="cls-1" d="M11.07,78.1c1.5,0,1.88-.57,1.88-1.27V62.68c0-.7-.38-1.28-1.88-1.28v-.15H17.2V76.83c0,.7.37,1.27,1.87,1.27v.15h-8Zm7.38-16.7v-.15h6.87v5h-.2C24,62.7,22.25,61.65,18.45,61.4Zm1.37,8.5-1.37-.12v-.15l1.37-.13a3.82,3.82,0,0,0,3.3-2.15h.2V72h-.2A3.8,3.8,0,0,0,19.82,69.9Z"/><path class="cls-1" d="M32.6,76.83c0,.62.37,1.27,1.87,1.27v.15H26.6V78.1c1.5,0,1.87-.65,1.87-1.27V68c0-.9-.42-1.32-1.85-1.32v-.15a15.23,15.23,0,0,0,6-1Zm6.75-8.63a2.68,2.68,0,0,1-2.58,2.85,1.69,1.69,0,0,1-1.42-.55,1.83,1.83,0,0,0,1-1.7,1.33,1.33,0,0,0-1.4-1.35,1.73,1.73,0,0,0-1.5,1v-.2a3.46,3.46,0,0,1,3.25-2.7A2.54,2.54,0,0,1,39.35,68.2Z"/><path class="cls-1" d="M46.92,65.65c-1.47.18-2,1.43-2,6.3,0,4.7.5,6.25,2,6.4v.15A6.37,6.37,0,0,1,40.7,72a6.27,6.27,0,0,1,6.22-6.45Zm7.2,6.3a6.36,6.36,0,0,1-6.2,6.55v-.15c1.48-.15,1.95-1.73,1.95-6.4,0-4.9-.5-6.15-1.95-6.3V65.5A6.23,6.23,0,0,1,54.12,72Z"/><path class="cls-1" d="M61.77,76.83c0,.62.38,1.27,1.88,1.27v.15H55.77V78.1c1.5,0,1.88-.65,1.88-1.27V68c0-.9-.43-1.32-1.85-1.32v-.15a15.18,15.18,0,0,0,6-1Zm8.3-7.8v7.8c0,.62.35,1.27,1.85,1.27v.15H64.07V78.1c1.48,0,1.88-.65,1.88-1.27V69c0-1.4-.55-2.13-1.75-2.13a2.19,2.19,0,0,0-1.65.75V67.5a4,4,0,0,1,3.65-2C68.57,65.5,70.07,66.55,70.07,69Zm8.27,0v7.8c0,.62.38,1.27,1.88,1.27v.15H72.35V78.1c1.47,0,1.87-.65,1.87-1.27V69c0-1.4-.55-2.13-1.75-2.13a2.2,2.2,0,0,0-1.65.75V67.5a4,4,0,0,1,3.65-2C76.84,65.5,78.34,66.55,78.34,69Z"/><path class="cls-1" d="M15.4,102.28a1.27,1.27,0,0,0-1.4,1.25c0,.72.5,1.64,2.22,1.82v.15c-3.32-.13-5.15-1-5.15-2.47a2,2,0,0,1,2.13-1.85A2.54,2.54,0,0,1,15.4,102.28Zm.82-9.63c-.92.18-1.82.65-1.8,1.68.08,2.9,8.18,3.37,8.18,7.35,0,2.42-2.05,3.69-5.28,3.82v-.15c1.05-.18,2.23-.55,2.23-1.85,0-2.6-8.2-3.55-8.2-7.35,0-2.2,2.07-3.52,4.87-3.65Zm5.9,2.43a1.64,1.64,0,0,1-1.85,1.55,2.13,2.13,0,0,1-2.12-1.2,1.11,1.11,0,0,0,1.12-1.18c0-.75-.95-1.47-1.95-1.6V92.5C20.15,92.65,22.12,93.68,22.12,95.08Z"/><path class="cls-1" d="M30,109.05c0,.9.43,1.32,1.85,1.32v.15a16.28,16.28,0,0,0-6,1V94.93c0-.9-.43-1.33-1.85-1.33v-.15a16.48,16.48,0,0,0,6-1Zm9.53-10.17c0,5.22-2.75,6.62-5.13,6.62a4.7,4.7,0,0,1-3.65-2v-.15a3.54,3.54,0,0,0,2.1.87c1.18,0,2.43-.83,2.43-5.32s-1.18-5.1-2.43-5.1a2.84,2.84,0,0,0-2.1.92v-.2a4.68,4.68,0,0,1,3.65-2C36.85,92.5,39.55,93.9,39.55,98.88Z"/><path class="cls-1" d="M41.75,99a6.19,6.19,0,0,1,6.12-6.45v.15c-1.47.18-1.87,1.43-1.87,6.2,0,3.6,1.6,5.57,3.82,5.57a5.39,5.39,0,0,0,3.65-1.32v.15a7,7,0,0,1-5.3,2.25A6.33,6.33,0,0,1,41.75,99Zm5.62-1c2.2,0,3.13-.7,3.13-2.8,0-1.2-.5-2.3-1.63-2.45V92.5c3.3,0,4.9,2.35,4.9,4.25a7.85,7.85,0,0,1-.12,1.3H47.37Z"/><path class="cls-1" d="M62.22,92.65c-1.47.18-2.12,1.43-2.12,6.2,0,3.6,1.82,5.57,4.05,5.57a5.43,5.43,0,0,0,3.65-1.32v.15a7,7,0,0,1-5.3,2.25A6.54,6.54,0,0,1,55.82,99a6.41,6.41,0,0,1,6.4-6.45Zm5.55,2.68a2.33,2.33,0,0,1-2.5,2.4,2.12,2.12,0,0,1-2.17-1.58,2.14,2.14,0,0,0,1.2-1.82,1.48,1.48,0,0,0-1.08-1.65V92.5C66.5,92.5,67.77,93.9,67.77,95.33Z"/><path class="cls-1" d="M69.25,93.45a15.37,15.37,0,0,0,6-1v11.35c0,.62.38,1.27,1.88,1.27v.15H69.22v-.15c1.5,0,1.88-.65,1.88-1.27v-8.9c0-.9-.43-1.33-1.85-1.33Zm1.27-4.7A2.58,2.58,0,1,1,73.07,91,2.27,2.27,0,0,1,70.52,88.75Z"/><path class="cls-1" d="M78.35,102.3c0-2.17,2-3.4,4.8-3.4h2.7v.15H85.1a2.48,2.48,0,0,0-2.65,2.73c0,1.37.4,2.42,1.57,2.42a2.75,2.75,0,0,0,1.83-.87v.15a5.36,5.36,0,0,1-4,2C79.75,105.5,78.32,104.3,78.35,102.3Zm1-7.07c0-1.28,1.15-2.58,4.55-2.73v.15a1.83,1.83,0,0,0-1.6,1.83c0,.9.62,1.45,1.62,1.52a2.8,2.8,0,0,1-2.4,1.2A2,2,0,0,1,79.35,95.23Zm7.25,7.45V95c0-1.23-.48-2.2-1.7-2.38V92.5c4.15.15,5.8,1.73,5.8,5v6.08c0,.72.25,1,.7,1s.8-.37,1.2-1.12h.14a3.1,3.1,0,0,1-3.24,2C87.5,105.5,86.6,104.8,86.6,102.68Z"/><path class="cls-1" d="M93.4,87.85a15.37,15.37,0,0,0,6-1v17c0,.62.38,1.27,1.88,1.27v.15H93.37v-.15c1.5,0,1.88-.65,1.88-1.27V89.33c0-.9-.43-1.33-1.85-1.33Z"/><path class="cls-1" d="M102.35,93.45a15.37,15.37,0,0,0,6-1v11.35c0,.62.38,1.27,1.88,1.27v.15h-7.88v-.15c1.5,0,1.88-.65,1.88-1.27v-8.9c0-.9-.43-1.33-1.85-1.33Zm1.27-4.7a2.58,2.58,0,1,1,2.55,2.2A2.27,2.27,0,0,1,103.62,88.75Z"/><path class="cls-1" d="M116.05,102.28a1.27,1.27,0,0,0-1.4,1.25c0,.72.5,1.64,2.22,1.82v.15c-3.32-.13-5.15-1-5.15-2.47a2,2,0,0,1,2.13-1.85A2.54,2.54,0,0,1,116.05,102.28Zm.82-9.63c-.92.18-1.82.65-1.8,1.68.08,2.9,8.17,3.37,8.17,7.35,0,2.42-2,3.69-5.27,3.82v-.15c1-.18,2.23-.55,2.23-1.85,0-2.6-8.2-3.55-8.2-7.35,0-2.2,2.07-3.52,4.87-3.65Zm5.9,2.43a1.64,1.64,0,0,1-1.85,1.55,2.13,2.13,0,0,1-2.12-1.2,1.11,1.11,0,0,0,1.12-1.18c0-.75-1-1.47-2-1.6V92.5C120.8,92.65,122.77,93.68,122.77,95.08Z"/><path class="cls-1" d="M134.6,103.33v.15a5.26,5.26,0,0,1-4.28,2c-2.25,0-3.85-1-3.85-3.52v-8.2h-1.3l.28-.38h1V90.7a6.27,6.27,0,0,0,4.1-1.4v4.1H134l-.28.38h-3.1v8.27c0,1.25.48,2.55,1.65,2.55A3.72,3.72,0,0,0,134.6,103.33Z"/><path class="cls-1" d="M140,102.28a1.27,1.27,0,0,0-1.4,1.25c0,.72.5,1.64,2.22,1.82v.15c-3.32-.13-5.15-1-5.15-2.47a2,2,0,0,1,2.13-1.85A2.54,2.54,0,0,1,140,102.28Zm.82-9.63c-.92.18-1.82.65-1.8,1.68.08,2.9,8.17,3.37,8.17,7.35,0,2.42-2.05,3.69-5.27,3.82v-.15c1.05-.18,2.23-.55,2.23-1.85,0-2.6-8.2-3.55-8.2-7.35,0-2.2,2.07-3.52,4.87-3.65Zm5.9,2.43a1.64,1.64,0,0,1-1.85,1.55,2.13,2.13,0,0,1-2.12-1.2,1.11,1.11,0,0,0,1.12-1.18c0-.75-1-1.47-2-1.6V92.5C144.74,92.65,146.72,93.68,146.72,95.08Z"/><path class="cls-1" d="M154.75,103.3c0,1.75-1.88,4.07-4.93,5.32l-.1-.25a4.23,4.23,0,0,0,1.75-3,1.92,1.92,0,0,0-2.07-2,2.81,2.81,0,0,1,2.87-2.75A2.44,2.44,0,0,1,154.75,103.3Z"/><path class="cls-1" d="M17.42,132.35v.15a9.48,9.48,0,0,1-4.85-1.22l-.82,1.22h-.2v-6.1h.2A8.36,8.36,0,0,0,17.42,132.35Zm7.35-5c0,3.22-2.4,5-6.27,5.12v-.15c1.37-.25,2.72-1,2.72-2.55,0-4.37-9.55-4.77-9.55-9.85,0-3,2.43-4.72,5.75-5v.15a2.37,2.37,0,0,0-2.2,2.3C15.22,121.83,24.77,122.3,24.77,127.38ZM18.5,115.15V115a8.08,8.08,0,0,1,4.5,1.33l.9-1.33h.2v5.58h-.2A8,8,0,0,0,18.5,115.15Z"/><path class="cls-1" d="M36.17,130.33v.15a5.25,5.25,0,0,1-4.27,2c-2.25,0-3.85-1-3.85-3.52v-8.2h-1.3l.27-.38h1v-2.7a6.31,6.31,0,0,0,4.1-1.4v4.1h3.37l-.27.38h-3.1v8.27c0,1.25.47,2.55,1.65,2.55A3.68,3.68,0,0,0,36.17,130.33Z"/><path class="cls-1" d="M37,129.3c0-2.17,2-3.4,4.8-3.4h2.7v.15h-.75a2.48,2.48,0,0,0-2.65,2.73c0,1.37.4,2.42,1.58,2.42a2.72,2.72,0,0,0,1.82-.87v.15a5.34,5.34,0,0,1-4,2C38.37,132.5,37,131.3,37,129.3Zm1-7.07c0-1.28,1.15-2.58,4.55-2.73v.15a1.83,1.83,0,0,0-1.6,1.83c0,.9.63,1.45,1.63,1.52a2.82,2.82,0,0,1-2.4,1.2A2,2,0,0,1,38,122.23Zm7.25,7.45V122c0-1.23-.47-2.2-1.7-2.38v-.15c4.15.15,5.8,1.73,5.8,5v6.08c0,.72.25,1,.7,1s.8-.37,1.2-1.12h.15a3.12,3.12,0,0,1-3.25,2C46.12,132.5,45.22,131.8,45.22,129.68Z"/><path class="cls-1" d="M58.15,130.83c0,.62.37,1.27,1.87,1.27v.15H52.15v-.15c1.5,0,1.87-.65,1.87-1.27V122c0-.9-.42-1.32-1.85-1.32v-.15a15.23,15.23,0,0,0,6-1Zm6.75-8.63a2.68,2.68,0,0,1-2.58,2.85,1.69,1.69,0,0,1-1.42-.55,1.83,1.83,0,0,0,1-1.7,1.33,1.33,0,0,0-1.4-1.35,1.73,1.73,0,0,0-1.5,1v-.2a3.46,3.46,0,0,1,3.25-2.7A2.54,2.54,0,0,1,64.9,122.2Z"/><path class="cls-1" d="M87.32,129.28l.1.2a6.87,6.87,0,0,1-6,3c-4.08,0-9.15-2.9-9.15-8.72,0-6.33,5-8.68,8.55-8.78v.15c-1.75.38-3.65,2-3.65,8.45s2.57,7.9,5.4,7.9A6.13,6.13,0,0,0,87.32,129.28Zm.2-14.28v6.08h-.2c-1-3.33-2.82-5.25-5.27-5.93V115a8.63,8.63,0,0,1,4.52,1.15l.75-1.15Z"/><path class="cls-1" d="M89.42,129.3c0-2.17,2-3.4,4.8-3.4h2.7v.15h-.75a2.48,2.48,0,0,0-2.65,2.73c0,1.37.4,2.42,1.58,2.42a2.72,2.72,0,0,0,1.82-.87v.15a5.34,5.34,0,0,1-4,2C90.82,132.5,89.4,131.3,89.42,129.3Zm1-7.07c0-1.28,1.15-2.58,4.55-2.73v.15a1.83,1.83,0,0,0-1.6,1.83c0,.9.63,1.45,1.63,1.52a2.82,2.82,0,0,1-2.4,1.2A2,2,0,0,1,90.42,122.23Zm7.25,7.45V122c0-1.23-.47-2.2-1.7-2.38v-.15c4.15.15,5.8,1.73,5.8,5v6.08c0,.72.25,1,.7,1s.8-.37,1.2-1.12h.15a3.12,3.12,0,0,1-3.25,2C98.57,132.5,97.67,131.8,97.67,129.68Z"/><path class="cls-1" d="M110.6,130.83c0,.62.37,1.27,1.87,1.27v.15H104.6v-.15c1.5,0,1.87-.65,1.87-1.27V122c0-.9-.42-1.32-1.85-1.32v-.15a15.23,15.23,0,0,0,6-1Zm8.29-7.8v7.8c0,.62.35,1.27,1.85,1.27v.15H112.9v-.15c1.47,0,1.87-.65,1.87-1.27V123c0-1.4-.55-2.13-1.75-2.13a2.2,2.2,0,0,0-1.65.75v-.15a4.06,4.06,0,0,1,3.65-2C117.39,119.5,118.89,120.55,118.89,123Zm8.28,0v7.8c0,.62.37,1.27,1.87,1.27v.15h-7.87v-.15c1.47,0,1.87-.65,1.87-1.27V123c0-1.4-.55-2.13-1.75-2.13a2.2,2.2,0,0,0-1.65.75v-.15a4.06,4.06,0,0,1,3.65-2C125.67,119.5,127.17,120.55,127.17,123Z"/><path class="cls-1" d="M135.72,136.05c0,.9.43,1.32,1.85,1.32v.15a16.28,16.28,0,0,0-6,1V121.93c0-.9-.43-1.33-1.85-1.33v-.15a16.48,16.48,0,0,0,6-1Zm9.52-10.17c0,5.22-2.74,6.62-5.12,6.62a4.7,4.7,0,0,1-3.65-2v-.15a3.54,3.54,0,0,0,2.1.87c1.18,0,2.43-.83,2.43-5.32s-1.18-5.1-2.43-5.1a2.84,2.84,0,0,0-2.1.92v-.2a4.68,4.68,0,0,1,3.65-2C142.55,119.5,145.24,120.9,145.24,125.88Z"/><path class="cls-1" d="M147.45,126a6.19,6.19,0,0,1,6.12-6.45v.15c-1.47.18-1.87,1.43-1.87,6.2,0,3.6,1.6,5.57,3.82,5.57a5.39,5.39,0,0,0,3.65-1.32v.15a7,7,0,0,1-5.3,2.25A6.33,6.33,0,0,1,147.45,126Zm5.62-1c2.2,0,3.13-.7,3.13-2.8,0-1.2-.5-2.3-1.63-2.45v-.15c3.3,0,4.9,2.35,4.9,4.25a7.85,7.85,0,0,1-.12,1.3h-6.28Z"/><path class="cls-1" d="M167.07,130.83c0,.62.38,1.27,1.88,1.27v.15h-7.88v-.15c1.5,0,1.88-.65,1.88-1.27V122c0-.9-.43-1.32-1.85-1.32v-.15a15.18,15.18,0,0,0,6-1Zm6.75-8.63a2.67,2.67,0,0,1-2.57,2.85,1.71,1.71,0,0,1-1.43-.55,1.82,1.82,0,0,0,1-1.7,1.33,1.33,0,0,0-1.4-1.35,1.72,1.72,0,0,0-1.5,1v-.2a3.46,3.46,0,0,1,3.25-2.7A2.54,2.54,0,0,1,173.82,122.2Z"/><path class="cls-1" d="M190.54,129.28l.1.2a6.87,6.87,0,0,1-6,3c-4.07,0-9.15-2.9-9.15-8.72,0-6.33,4.95-8.68,8.55-8.78v.15c-1.75.38-3.65,2-3.65,8.45s2.58,7.9,5.4,7.9A6.13,6.13,0,0,0,190.54,129.28Zm.2-14.28v6.08h-.2c-1-3.33-2.82-5.25-5.27-5.93V115a8.63,8.63,0,0,1,4.52,1.15l.75-1.15Z"/><path class="cls-1" d="M192.65,129.3c0-2.17,2-3.4,4.8-3.4h2.69v.15h-.74a2.48,2.48,0,0,0-2.65,2.73c0,1.37.4,2.42,1.57,2.42a2.7,2.7,0,0,0,1.82-.87v.15a5.32,5.32,0,0,1-4,2C194.05,132.5,192.62,131.3,192.65,129.3Zm1-7.07c0-1.28,1.15-2.58,4.55-2.73v.15a1.83,1.83,0,0,0-1.6,1.83c0,.9.62,1.45,1.62,1.52a2.8,2.8,0,0,1-2.4,1.2A2,2,0,0,1,193.65,122.23Zm7.24,7.45V122c0-1.23-.47-2.2-1.69-2.38v-.15c4.14.15,5.79,1.73,5.79,5v6.08c0,.72.25,1,.7,1s.8-.37,1.2-1.12H207a3.12,3.12,0,0,1-3.25,2C201.79,132.5,200.89,131.8,200.89,129.68Z"/><path class="cls-1" d="M213.82,130.83c0,.62.38,1.27,1.88,1.27v.15h-7.88v-.15c1.5,0,1.88-.65,1.88-1.27V122c0-.9-.43-1.32-1.85-1.32v-.15a15.18,15.18,0,0,0,6-1Zm6.75-8.63a2.68,2.68,0,0,1-2.58,2.85,1.69,1.69,0,0,1-1.42-.55,1.83,1.83,0,0,0,1-1.7,1.33,1.33,0,0,0-1.4-1.35,1.7,1.7,0,0,0-1.49,1v-.2a3.44,3.44,0,0,1,3.24-2.7A2.54,2.54,0,0,1,220.57,122.2Z"/><path class="cls-1" d="M221.92,126a6.19,6.19,0,0,1,6.13-6.45v.15c-1.48.18-1.88,1.43-1.88,6.2,0,3.6,1.6,5.57,3.82,5.57a5.39,5.39,0,0,0,3.65-1.32v.15a7,7,0,0,1-5.29,2.25A6.34,6.34,0,0,1,221.92,126Zm5.63-1c2.19,0,3.12-.7,3.12-2.8,0-1.2-.5-2.3-1.63-2.45v-.15c3.3,0,4.9,2.35,4.9,4.25a7.85,7.85,0,0,1-.12,1.3h-6.27Z"/></svg>