<?xml version="1.0" encoding="utf-8"?>
<!-- Generator: Adobe Illustrator 24.0.3, SVG Export Plug-In . SVG Version: 6.00 Build 0)  -->
<svg version="1.1" id="Layer_1" xmlns="http://www.w3.org/2000/svg" xmlns:xlink="http://www.w3.org/1999/xlink" x="0px" y="0px"
	 viewBox="0 0 300 150" style="enable-background:new 0 0 300 150;" xml:space="preserve">
<style type="text/css">
	.st0{enable-background:new    ;}
	.st1{fill:#263845;}
</style>
<title>Artboard 1 copy</title>
<g class="st0">
	<path class="st1" d="M12.9,78.2l0.2,0.3L13.3,89c0,1.1,0.8,2.1,2.4,2.1v0.2h-5.5v-0.2c1.6,0,2.4-1,2.4-2.1L12.9,78.2z M26.2,91.3
		h-2.8L13,75.7c-0.6-1-1.4-1.3-2.6-1.3v-0.2H17L26.2,88V91.3z M26.1,85.5l-0.2-0.3l-0.3-8.7c0-1.1-0.8-2.1-2.4-2.1v-0.2h5.5v0.2
		c-1.6,0-2.4,1-2.4,2.1L26.1,85.5z"/>
	<path class="st1" d="M39.9,74.3h4.8l-9.9,17H30L39.9,74.3z M30.7,74.3h7.5l-0.1,0.2c-3.7,0.2-6.6,2.7-7.3,5.9h-0.2V74.3z
		 M36.4,91.1c3.7-0.3,6.8-2.7,7.8-6.7h0.2v6.8h-8.1L36.4,91.1z"/>
</g>
<g class="st0">
	<path class="st1" d="M51.6,75.1c0,1.4-1.5,3.4-4,4.4l-0.1-0.2c0.7-0.6,1.4-1.5,1.4-2.4c0-1.1-0.8-1.6-1.7-1.6
		c0.2-1.5,1.1-2.3,2.4-2.3C50.7,72.9,51.6,73.7,51.6,75.1z"/>
</g>
<g class="st0">
	<path class="st1" d="M56.7,88.3c-0.8,0-1.4,0.5-1.4,1.2c0,0.7,0.5,1.6,2.2,1.8v0.2c-3.3-0.1-5.1-1-5.1-2.5c0-1.1,1-1.8,2.1-1.8
		C55.5,87.2,56.4,87.7,56.7,88.3z M57.6,78.7c-0.9,0.2-1.8,0.6-1.8,1.7c0.1,2.9,8.2,3.4,8.2,7.3c0,2.4-2,3.7-5.3,3.8v-0.2
		c1-0.2,2.2-0.5,2.2-1.8c0-2.6-8.2-3.5-8.2-7.3c0-2.2,2.1-3.5,4.9-3.6V78.7z M63.5,81.1c0,0.8-0.6,1.5-1.8,1.5c-1,0-1.8-0.5-2.1-1.2
		c0.8-0.1,1.1-0.6,1.1-1.2c0-0.8-1-1.5-1.9-1.6v-0.2C61.5,78.7,63.5,79.7,63.5,81.1z"/>
</g>
<g class="st0">
	<path class="st1" d="M10.1,97.9c2.3,0,4.2-0.2,6-1v16.9c0,0.6,0.4,1.3,1.9,1.3v0.2h-7.9v-0.2c1.5,0,1.9-0.6,1.9-1.3V99.3
		c0-0.9-0.4-1.3-1.8-1.3V97.9z"/>
	<path class="st1" d="M19.5,109c0-4.2,3.2-6.4,6.1-6.4v0.2c-1.5,0.2-1.9,1.4-1.9,6.2c0,3.6,1.6,5.6,3.8,5.6c1.4,0,2.5-0.4,3.6-1.3
		v0.1c-1.3,1.7-3.7,2.2-5.3,2.2C22.7,115.5,19.5,113.2,19.5,109z M25.1,107.9c2.2,0,3.1-0.7,3.1-2.8c0-1.2-0.5-2.3-1.6-2.4v-0.2
		c3.3,0,4.9,2.3,4.9,4.2c0,0.4,0,0.9-0.1,1.3h-6.3V107.9z"/>
	<path class="st1" d="M33.3,112.3c0-2.2,2-3.4,4.8-3.4h2.7v0.2h-0.7c-1.8,0-2.6,1.2-2.6,2.7c0,1.4,0.4,2.4,1.6,2.4
		c0.7,0,1.3-0.4,1.8-0.9v0.2c-0.8,0.9-2.1,2-4,2C34.7,115.5,33.3,114.3,33.3,112.3z M34.3,105.2c0-1.3,1.1-2.6,4.5-2.7v0.2
		c-1,0.1-1.6,0.9-1.6,1.8c0,0.9,0.6,1.5,1.6,1.5c-0.4,0.7-1.4,1.2-2.4,1.2C35.1,107.2,34.3,106.3,34.3,105.2z M41.6,112.7V105
		c0-1.2-0.5-2.2-1.7-2.4v-0.2c4.1,0.2,5.8,1.7,5.8,5v6.1c0,0.7,0.2,1,0.7,1c0.4,0,0.8-0.4,1.2-1.1h0.1c-0.4,1.4-1.7,2-3.2,2
		C42.5,115.5,41.6,114.8,41.6,112.7z"/>
	<path class="st1" d="M57.8,104.5v0.2c-0.6-0.6-1.3-0.9-2.1-0.9c-1.2,0-2.4,0.6-2.4,5.1c0,4.5,1.3,5.3,2.4,5.3
		c0.8,0,1.4-0.4,2.1-0.9v0.2c-0.6,1-2.2,2-3.6,2c-2.4,0-5.1-1.4-5.1-6.6c0-5,2.7-6.4,5.1-6.4C55.6,102.5,57.2,103.5,57.8,104.5z
		 M62.7,113.6c0,0.7,0.2,1,0.7,1c0.4,0,0.8-0.4,1.2-1.1h0.1c-0.4,1.4-1.7,2-3.2,2c-2,0-2.9-0.7-2.9-2.8V99.3c0-0.9-0.4-1.3-1.8-1.3
		v-0.1c2.3,0,3.9-0.2,6-1V113.6z"/>
	<path class="st1" d="M65.8,103.5c2.3,0,4.2-0.2,6-1v11.3c0,0.6,0.4,1.3,1.9,1.3v0.2h-7.9v-0.2c1.5,0,1.9-0.6,1.9-1.3v-8.9
		c0-0.9-0.4-1.3-1.8-1.3V103.5z M67,98.8c0-1.3,1-2.2,2.5-2.2c1.5,0,2.5,0.9,2.5,2.2c0,1.3-1,2.2-2.5,2.2C68.1,101,67,100.1,67,98.8
		z"/>
	<path class="st1" d="M74.7,115.1c1.5,0,1.9-0.6,1.9-1.3V105c0-0.9-0.4-1.3-1.8-1.3v-0.2c2.3,0,4.2-0.2,6-1v11.3
		c0,0.6,0.4,1.3,1.9,1.3v0.2h-7.9V115.1z M83.5,115.1c1.5,0,1.8-0.6,1.8-1.3V106c0-1.4-0.7-2.1-2-2.1c-0.7,0-1.3,0.2-1.9,0.8v-0.2
		c0.7-1,2.3-2,4.1-2c2.2,0,3.8,1,3.8,3.5v7.8c0,0.6,0.4,1.3,1.9,1.3v0.2h-7.8V115.1z"/>
	<path class="st1" d="M92.8,107c0-3.2,3-4.5,5.6-4.5v0.2c-1.1,0.1-1.6,1.4-1.6,4.3c0,3,0.5,4.2,1.6,4.3v0.2
		C95.9,111.5,92.8,110.3,92.8,107z M99.4,121.4c2.5-0.3,3.3-1.6,3.3-2.5c0-3.5-9.7-0.4-9.7-4.8c0-1,0.5-1.8,1.7-2.5l0.1,0.1
		c-0.1,0.1-0.2,0.3-0.2,0.5c0,2.8,11.4-0.5,11.4,5c0,2.6-2.2,4.2-6.5,4.5V121.4z M93,119.3c0-1.5,1.8-1.9,3.8-1.9
		c-0.5,0.2-1.1,0.9-1.1,1.8c0,1.2,1.3,2,2.7,2.2v0.1C95.8,121.5,93,120.9,93,119.3z M99.4,111.3c1.2-0.1,1.7-1.3,1.7-4.3
		c0-2.9-0.5-4.2-1.7-4.3v-0.2c2.6,0,5.7,1.3,5.7,4.5c0,3.2-3.1,4.4-5.7,4.4V111.3z M100.8,102.1c0.4-1.3,1.6-3,3.3-3
		c1.3,0,2.1,0.7,2.1,1.9c0,1.2-1.1,2-2,2c0-1-0.5-1.7-1.3-1.7c-0.7,0-1.6,0.5-1.9,0.9L100.8,102.1z"/>
</g>
<g class="st0">
	<path class="st1" d="M121.7,115.1v0.2h-8v-0.2c1.5,0,1.9-0.6,1.9-1.3V99.7c0-0.7-0.4-1.2-1.9-1.2v-0.2h6.1v15.6
		C119.8,114.5,120.2,115.1,121.7,115.1z M131.5,113.5c-0.4,1.4-1.9,2-3.7,2c-3.2,0-4-2.2-4.1-4.3c-0.1-2-0.3-3.6-2.5-4V107
		c2.3,0,3.3-2,3.3-4.5c0-2.8-1-4.1-3.3-4.1v-0.2c5.1,0,7.6,1.1,7.6,4.3c0,2.7-2,4.3-5.7,4.6c4.5,0.2,5.2,2,5.5,4
		c0.2,2,0.8,3.4,1.6,3.4c0.4,0,0.8-0.4,1.2-1.1H131.5z"/>
</g>
<g class="st0">
	<path class="st1" d="M131.9,99.7c-0.4-1-1-1.3-2.2-1.3v-0.2h9v0.2c-1.1,0-2.2,0.8-1.5,2l4.7,9.9l-2.3,5.1h-0.3L131.9,99.7z
		 M142.8,108.1c1.4-3.3,1.8-5.4,1.8-7c0-1.8-1.5-2.7-2.8-2.7v-0.2h7.2v0.1c-1.1,0-1.8,1.1-2.6,2.8l-3.4,7.2L142.8,108.1z"/>
</g>
<g class="st0">
	<path class="st1" d="M10.3,127.5c2.3,0,4.2-0.2,6-1v11.3c0,0.6,0.4,1.3,1.9,1.3v0.2h-7.9v-0.2c1.5,0,1.9-0.6,1.9-1.3v-8.9
		c0-0.9-0.4-1.3-1.8-1.3V127.5z M11.6,122.8c0-1.3,1-2.2,2.5-2.2c1.5,0,2.5,0.9,2.5,2.2c0,1.3-1,2.2-2.5,2.2
		C12.6,125,11.6,124.1,11.6,122.8z"/>
	<path class="st1" d="M19.2,139.1c1.5,0,1.9-0.6,1.9-1.3V129c0-0.9-0.4-1.3-1.8-1.3v-0.2c2.3,0,4.2-0.2,6-1v11.3
		c0,0.6,0.4,1.3,1.9,1.3v0.2h-7.9V139.1z M28,139.1c1.5,0,1.8-0.6,1.8-1.3V130c0-1.4-0.7-2.1-2-2.1c-0.7,0-1.3,0.2-1.9,0.8v-0.2
		c0.7-1,2.3-2,4.1-2c2.2,0,3.8,1,3.8,3.5v7.8c0,0.6,0.4,1.3,1.9,1.3v0.2H28V139.1z"/>
	<path class="st1" d="M41.6,136.3c-0.8,0-1.4,0.5-1.4,1.2c0,0.7,0.5,1.6,2.2,1.8v0.2c-3.3-0.1-5.1-1-5.1-2.5c0-1.1,1-1.8,2.1-1.8
		C40.4,135.2,41.2,135.7,41.6,136.3z M42.4,126.7c-0.9,0.2-1.8,0.6-1.8,1.7c0.1,2.9,8.2,3.4,8.2,7.3c0,2.4-2,3.7-5.3,3.8v-0.2
		c1-0.2,2.2-0.5,2.2-1.8c0-2.6-8.2-3.5-8.2-7.3c0-2.2,2.1-3.5,4.9-3.6V126.7z M48.3,129.1c0,0.8-0.6,1.5-1.8,1.5
		c-1,0-1.8-0.5-2.1-1.2c0.8-0.1,1.1-0.6,1.1-1.2c0-0.8-1-1.5-1.9-1.6v-0.2C46.3,126.7,48.3,127.7,48.3,129.1z"/>
	<path class="st1" d="M56.1,136c0,1.4,0.5,2.1,1.7,2.1c0.6,0,1.2-0.2,1.7-0.8v0.2c-0.6,1.1-1.8,2-3.9,2c-2.2,0-3.7-1-3.7-3.5v-7
		c0-0.9-0.4-1.3-1.8-1.3v-0.2c2.3,0,4.2-0.2,6-1V136z M64.5,137.6c0,0.7,0.2,1,0.7,1c0.4,0,0.8-0.4,1.2-1.1h0.1
		c-0.4,1.4-1.7,2-3.4,2c-1.8,0-2.7-1-2.7-2.4V129c0-0.9-0.4-1.3-1.8-1.3v-0.2c2.2,0,3.8-0.2,5.9-1V137.6z"/>
</g>
<g class="st0">
	<path class="st1" d="M73.5,137.8c0,0.6,0.4,1.3,1.9,1.3v0.2h-7.9v-0.2c1.5,0,1.9-0.6,1.9-1.3V129c0-0.9-0.4-1.3-1.8-1.3v-0.2
		c2.3,0,4.2-0.2,6-1V137.8z M80.2,129.2c0,1.7-1.2,2.8-2.6,2.8c-0.6,0-1.1-0.2-1.4-0.5c0.5-0.2,1-0.8,1-1.7c0-0.7-0.5-1.3-1.4-1.3
		c-0.6,0-1.2,0.4-1.5,0.9v-0.2c0.5-1.6,1.7-2.7,3.2-2.7C79.3,126.5,80.2,127.7,80.2,129.2z"/>
</g>
<g class="st0">
	<path class="st1" d="M81.3,136.3c0-2.2,2-3.4,4.8-3.4h2.7v0.2h-0.7c-1.8,0-2.6,1.2-2.6,2.7c0,1.4,0.4,2.4,1.6,2.4
		c0.7,0,1.3-0.4,1.8-0.9v0.2c-0.8,0.9-2.1,2-4,2C82.7,139.5,81.3,138.3,81.3,136.3z M82.3,129.2c0-1.3,1.1-2.6,4.5-2.7v0.2
		c-1,0.1-1.6,0.9-1.6,1.8c0,0.9,0.6,1.5,1.6,1.5c-0.4,0.7-1.4,1.2-2.4,1.2C83.1,131.2,82.3,130.3,82.3,129.2z M89.6,136.7V129
		c0-1.2-0.5-2.2-1.7-2.4v-0.2c4.1,0.2,5.8,1.7,5.8,5v6.1c0,0.7,0.2,1,0.7,1c0.4,0,0.8-0.4,1.2-1.1h0.1c-0.4,1.4-1.7,2-3.2,2
		C90.5,139.5,89.6,138.8,89.6,136.7z"/>
	<path class="st1" d="M96.5,139.1c1.5,0,1.9-0.6,1.9-1.3V129c0-0.9-0.4-1.3-1.8-1.3v-0.2c2.3,0,4.2-0.2,6-1v11.3
		c0,0.6,0.4,1.3,1.9,1.3v0.2h-7.9V139.1z M105.3,139.1c1.5,0,1.8-0.6,1.8-1.3V130c0-1.4-0.7-2.1-2-2.1c-0.7,0-1.3,0.2-1.9,0.8v-0.2
		c0.7-1,2.3-2,4.1-2c2.2,0,3.8,1,3.8,3.5v7.8c0,0.6,0.4,1.3,1.9,1.3v0.2h-7.8V139.1z"/>
	<path class="st1" d="M120.9,126.7c-1.5,0.2-2.1,1.4-2.1,6.2c0,3.6,1.8,5.6,4,5.6c1.4,0,2.5-0.4,3.6-1.3v0.1
		c-1.3,1.7-3.7,2.2-5.3,2.2c-3.2,0-6.7-2.3-6.7-6.5c0-4.2,3.5-6.4,6.4-6.4V126.7z M126.4,129.3c0,1.3-0.9,2.4-2.5,2.4
		c-1.2,0-2-0.8-2.2-1.6c0.7-0.3,1.2-1.2,1.2-1.8c0-0.6-0.1-1.5-1.1-1.7v-0.2C125.2,126.5,126.4,127.9,126.4,129.3z"/>
	<path class="st1" d="M128.3,133c0-4.2,3.2-6.4,6.1-6.4v0.2c-1.5,0.2-1.9,1.4-1.9,6.2c0,3.6,1.6,5.6,3.8,5.6c1.4,0,2.5-0.4,3.6-1.3
		v0.1c-1.3,1.7-3.7,2.2-5.3,2.2C131.5,139.5,128.3,137.2,128.3,133z M133.9,131.9c2.2,0,3.1-0.7,3.1-2.8c0-1.2-0.5-2.3-1.6-2.4v-0.2
		c3.3,0,4.9,2.3,4.9,4.2c0,0.4,0,0.9-0.1,1.3h-6.3V131.9z"/>
</g>
</svg>
