<?xml version="1.0" encoding="utf-8"?>
<!-- Generator: Adobe Illustrator 24.0.3, SVG Export Plug-In . SVG Version: 6.00 Build 0)  -->
<svg version="1.1" id="Layer_1" xmlns="http://www.w3.org/2000/svg" xmlns:xlink="http://www.w3.org/1999/xlink" x="0px" y="0px"
	 viewBox="0 0 728 90" style="enable-background:new 0 0 728 90;" xml:space="preserve">
<style type="text/css">
	.st0{clip-path:url(#SVGID_2_);}
	.st1{enable-background:new    ;}
	.st2{fill:#263845;}
</style>
<title>Artboard 1 copy 7</title>
<g>
	<defs>
		<rect id="SVGID_1_" y="0" width="728" height="90"/>
	</defs>
	<clipPath id="SVGID_2_">
		<use xlink:href="#SVGID_1_"  style="overflow:visible;"/>
	</clipPath>
	<g class="st0">
		<g class="st1">
			<path class="st2" d="M27.4,54.2v0.2h-8.9v-0.2c1.7,0,2.1-0.7,2.1-1.4V37c0-0.8-0.4-1.4-2.1-1.4v-0.2h6.8v17.3
				C25.3,53.5,25.7,54.2,27.4,54.2z M38.3,52.4c-0.4,1.5-2.1,2.3-4.1,2.3c-3.6,0-4.5-2.5-4.6-4.8c-0.2-2.3-0.4-4.1-2.8-4.4v-0.2
				c2.6,0,3.7-2.2,3.7-5c0-3.1-1.1-4.6-3.7-4.6v-0.2c5.6,0,8.4,1.3,8.4,4.8c0,3-2.2,4.8-6.4,5.1c5.1,0.2,5.8,2.2,6.1,4.5
				c0.3,2.3,0.9,3.8,1.8,3.8c0.5,0,0.9-0.4,1.4-1.3H38.3z"/>
		</g>
		<g class="st1">
			<path class="st2" d="M38.8,47.4c0-4.7,3.6-7.1,6.8-7.2v0.2c-1.6,0.2-2.1,1.6-2.1,6.9c0,4,1.8,6.2,4.3,6.2c1.6,0,2.8-0.4,4.1-1.5
				v0.2c-1.4,1.8-4.1,2.5-5.9,2.5C42.4,54.6,38.8,52,38.8,47.4z M45.1,46.2c2.4,0,3.5-0.8,3.5-3.1c0-1.3-0.6-2.6-1.8-2.7v-0.2
				c3.7,0,5.5,2.6,5.5,4.7c0,0.4-0.1,1-0.1,1.4h-7V46.2z"/>
			<path class="st2" d="M54.2,51.1c0-2.4,2.2-3.8,5.3-3.8h3v0.2h-0.8c-2,0-2.9,1.3-2.9,3c0,1.5,0.4,2.7,1.8,2.7c0.8,0,1.4-0.4,2-1
				v0.2c-0.9,1.1-2.4,2.3-4.4,2.3C55.8,54.6,54.2,53.3,54.2,51.1z M55.3,43.2c0-1.4,1.3-2.9,5.1-3v0.2c-1.1,0.2-1.8,1.1-1.8,2
				c0,1,0.7,1.6,1.8,1.7c-0.4,0.8-1.6,1.3-2.7,1.3C56.2,45.4,55.3,44.4,55.3,43.2z M63.4,51.5V43c0-1.4-0.5-2.4-1.9-2.6v-0.2
				c4.6,0.2,6.5,1.9,6.5,5.6v6.8c0,0.8,0.3,1.1,0.8,1.1c0.4,0,0.9-0.4,1.3-1.3h0.2c-0.4,1.5-1.9,2.3-3.6,2.3
				C64.4,54.6,63.4,53.9,63.4,51.5z"/>
			<path class="st2" d="M71,35c2.6,0,4.7-0.3,6.6-1.1v18.9c0,0.7,0.4,1.4,2.1,1.4v0.2H71v-0.2c1.7,0,2.1-0.7,2.1-1.4V36.7
				c0-1-0.5-1.5-2.1-1.5V35z"/>
		</g>
		<g class="st1">
			<path class="st2" d="M93,42.3l3.6,7.6l-2.4,4.5h-0.2l-6.5-12.8c-0.3-0.6-0.7-1-1.5-1v-0.2h7.8v0.2C93,40.6,92.6,41.3,93,42.3z
				 M102.2,42.3l3.6,7.6l-2.4,4.5h-0.2l-4.4-8.7L98,47.4l-0.2-0.2c0.4-0.9,0.6-2.3,0.2-3.1l-1.3-2.4c-0.3-0.6-0.7-1-1.5-1v-0.2h7.8
				v0.2C102.1,40.6,101.7,41.3,102.2,42.3z M111.9,40.5v0.2c-0.9,0-1.3,0.4-1.8,1.3l-2.9,5.5l-0.2-0.2c0.5-0.9,0.8-2.1,0.8-3.6
				c0-1.5-0.9-2.9-2.8-2.9v-0.2H111.9z"/>
		</g>
		<g class="st1">
			<path class="st2" d="M119,40.4c-1.6,0.2-2.2,1.6-2.2,7c0,5.2,0.6,7,2.2,7.1v0.2c-3.2,0-6.9-2.6-6.9-7.3s3.7-7.1,6.9-7.2V40.4z
				 M127,47.4c0,4.6-3.7,7.3-6.9,7.3v-0.2c1.6-0.2,2.2-1.9,2.2-7.1c0-5.5-0.6-6.8-2.2-7v-0.2C123.4,40.2,127,42.7,127,47.4z"/>
			<path class="st2" d="M135.5,52.8c0,0.7,0.4,1.4,2.1,1.4v0.2h-8.8v-0.2c1.7,0,2.1-0.7,2.1-1.4v-9.9c0-1-0.5-1.5-2.1-1.5v-0.2
				c2.6,0,4.7-0.3,6.6-1.1V52.8z M143,43.2c0,1.9-1.4,3.2-2.9,3.2c-0.7,0-1.3-0.2-1.6-0.6c0.5-0.3,1.1-0.9,1.1-1.9
				c0-0.8-0.6-1.5-1.6-1.5c-0.7,0-1.3,0.4-1.7,1.1v-0.2c0.5-1.8,1.9-3,3.6-3C142,40.2,143,41.5,143,43.2z"/>
			<path class="st2" d="M144.1,35c2.6,0,4.7-0.3,6.6-1.1v18.9c0,0.7,0.4,1.4,2.1,1.4v0.2h-8.8v-0.2c1.7,0,2.1-0.7,2.1-1.4V36.7
				c0-1-0.5-1.5-2.1-1.5V35z"/>
			<path class="st2" d="M164.4,42.4v0.2c-0.6-0.7-1.4-1-2.3-1c-1.4,0-2.7,0.6-2.7,5.7c0,5,1.4,5.9,2.7,5.9c0.9,0,1.6-0.4,2.3-1v0.2
				c-0.7,1.2-2.4,2.3-4,2.3c-2.6,0-5.7-1.6-5.7-7.4c0-5.5,3-7.1,5.7-7.1C161.9,40.2,163.7,41.2,164.4,42.4z M169.8,52.5
				c0,0.8,0.3,1.1,0.8,1.1c0.4,0,0.9-0.4,1.3-1.3h0.2c-0.4,1.5-1.9,2.3-3.6,2.3c-2.2,0-3.2-0.8-3.2-3.1V36.7c0-1-0.5-1.5-2.1-1.5V35
				c2.6,0,4.3-0.3,6.6-1.1V52.5z"/>
		</g>
		<g class="st1">
			<path class="st2" d="M189.7,54.2v0.2h-8.9v-0.2c1.7,0,2.1-0.7,2.1-1.4V37c0-0.8-0.4-1.4-2.1-1.4v-0.2h6.8v17.3
				C187.6,53.5,188,54.2,189.7,54.2z M200.5,52.4c-0.4,1.5-2.1,2.3-4.1,2.3c-3.6,0-4.5-2.5-4.6-4.8c-0.2-2.3-0.4-4.1-2.8-4.4v-0.2
				c2.6,0,3.7-2.2,3.7-5c0-3.1-1.1-4.6-3.7-4.6v-0.2c5.6,0,8.4,1.3,8.4,4.8c0,3-2.2,4.8-6.4,5.1c5.1,0.2,5.8,2.2,6.1,4.5
				c0.3,2.3,0.9,3.8,1.8,3.8c0.5,0,0.9-0.4,1.4-1.3H200.5z"/>
		</g>
		<g class="st1">
			<path class="st2" d="M201,37.1c-0.5-1.1-1.1-1.4-2.5-1.4v-0.2h10v0.2c-1.3,0-2.4,0.8-1.7,2.3L212,49l-2.5,5.7h-0.3L201,37.1z
				 M213.1,46.4c1.6-3.7,2-6,2-7.8c0-2-1.7-3-3.2-3v-0.2h8v0.1c-1.3,0-2.1,1.2-2.9,3.1l-3.8,8L213.1,46.4z"/>
		</g>
		<g class="st1">
			<path class="st2" d="M226,41.2c2.6,0,4.7-0.3,6.6-1.1v12.6c0,0.7,0.4,1.4,2.1,1.4v0.2h-8.8v-0.2c1.7,0,2.1-0.7,2.1-1.4v-9.9
				c0-1-0.5-1.5-2.1-1.5V41.2z M227.4,36c0-1.4,1.2-2.4,2.8-2.4c1.7,0,2.8,1,2.8,2.4c0,1.5-1.2,2.4-2.8,2.4
				C228.6,38.5,227.4,37.5,227.4,36z"/>
			<path class="st2" d="M235.9,54.2c1.7,0,2.1-0.7,2.1-1.4v-9.9c0-1-0.5-1.5-2.1-1.5v-0.2c2.6,0,4.7-0.3,6.6-1.1v12.6
				c0,0.7,0.4,1.4,2.1,1.4v0.2h-8.8V54.2z M245.7,54.2c1.6,0,2.1-0.7,2.1-1.4v-8.7c0-1.6-0.8-2.4-2.2-2.4c-0.8,0-1.4,0.2-2.1,0.9
				v-0.2c0.8-1.2,2.6-2.3,4.6-2.3c2.5,0,4.3,1.2,4.3,3.9v8.7c0,0.7,0.4,1.4,2.1,1.4v0.2h-8.7V54.2z"/>
			<path class="st2" d="M260.7,51.1c-0.9,0-1.6,0.6-1.6,1.4c0,0.8,0.6,1.8,2.5,2v0.2c-3.7-0.1-5.7-1.1-5.7-2.8
				c0-1.3,1.1-2.1,2.4-2.1C259.4,49.8,260.3,50.4,260.7,51.1z M261.7,40.4c-1,0.2-2,0.7-2,1.9c0.1,3.2,9.1,3.8,9.1,8.2
				c0,2.7-2.3,4.1-5.9,4.3v-0.2c1.2-0.2,2.5-0.6,2.5-2.1c0-2.9-9.1-4-9.1-8.2c0-2.4,2.3-3.9,5.4-4.1V40.4z M268.2,43
				c0,0.9-0.7,1.7-2.1,1.7c-1.2,0-2-0.5-2.4-1.3c0.8-0.1,1.3-0.6,1.3-1.3c0-0.8-1.1-1.6-2.2-1.8v-0.2C266,40.4,268.2,41.5,268.2,43z
				"/>
			<path class="st2" d="M277,50.7c0,1.6,0.5,2.4,1.9,2.4c0.7,0,1.3-0.2,1.9-0.9v0.2c-0.6,1.2-2.1,2.3-4.3,2.3
				c-2.5,0-4.1-1.2-4.1-3.9v-7.8c0-1-0.5-1.5-2.1-1.5v-0.2c2.6,0,4.7-0.3,6.6-1.1V50.7z M286.2,52.5c0,0.8,0.2,1.1,0.8,1.1
				c0.4,0,0.9-0.4,1.3-1.3h0.2c-0.4,1.5-1.9,2.3-3.8,2.3c-1.9,0-3.1-1.1-3.1-2.7v-9c0-1-0.5-1.5-2-1.5v-0.2c2.5,0,4.2-0.3,6.6-1.1
				V52.5z"/>
		</g>
		<g class="st1">
			<path class="st2" d="M296.3,52.8c0,0.7,0.4,1.4,2.1,1.4v0.2h-8.8v-0.2c1.7,0,2.1-0.7,2.1-1.4v-9.9c0-1-0.5-1.5-2.1-1.5v-0.2
				c2.6,0,4.7-0.3,6.6-1.1V52.8z M303.8,43.2c0,1.9-1.4,3.2-2.9,3.2c-0.7,0-1.3-0.2-1.6-0.6c0.5-0.3,1.1-0.9,1.1-1.9
				c0-0.8-0.6-1.5-1.6-1.5c-0.7,0-1.3,0.4-1.7,1.1v-0.2c0.5-1.8,1.9-3,3.6-3C302.7,40.2,303.8,41.5,303.8,43.2z"/>
		</g>
		<g class="st1">
			<path class="st2" d="M305,51.1c0-2.4,2.2-3.8,5.3-3.8h3v0.2h-0.8c-2,0-2.9,1.3-2.9,3c0,1.5,0.4,2.7,1.8,2.7c0.8,0,1.4-0.4,2-1
				v0.2c-0.9,1.1-2.4,2.3-4.4,2.3C306.5,54.6,304.9,53.3,305,51.1z M306.1,43.2c0-1.4,1.3-2.9,5.1-3v0.2c-1.1,0.2-1.8,1.1-1.8,2
				c0,1,0.7,1.6,1.8,1.7c-0.4,0.8-1.6,1.3-2.7,1.3C307,45.4,306.1,44.4,306.1,43.2z M314.1,51.5V43c0-1.4-0.5-2.4-1.9-2.6v-0.2
				c4.6,0.2,6.5,1.9,6.5,5.6v6.8c0,0.8,0.3,1.1,0.8,1.1c0.4,0,0.9-0.4,1.3-1.3h0.2c-0.4,1.5-1.9,2.3-3.6,2.3
				C315.2,54.6,314.1,53.9,314.1,51.5z"/>
			<path class="st2" d="M321.9,54.2c1.7,0,2.1-0.7,2.1-1.4v-9.9c0-1-0.5-1.5-2.1-1.5v-0.2c2.6,0,4.7-0.3,6.6-1.1v12.6
				c0,0.7,0.4,1.4,2.1,1.4v0.2h-8.8V54.2z M331.6,54.2c1.6,0,2.1-0.7,2.1-1.4v-8.7c0-1.6-0.8-2.4-2.2-2.4c-0.8,0-1.4,0.2-2.1,0.9
				v-0.2c0.8-1.2,2.6-2.3,4.6-2.3c2.5,0,4.3,1.2,4.3,3.9v8.7c0,0.7,0.4,1.4,2.1,1.4v0.2h-8.7V54.2z"/>
			<path class="st2" d="M349,40.4c-1.6,0.2-2.4,1.6-2.4,6.9c0,4,2,6.2,4.5,6.2c1.6,0,2.8-0.4,4.1-1.5v0.2c-1.4,1.8-4.1,2.5-5.9,2.5
				c-3.6,0-7.4-2.6-7.4-7.3s3.9-7.1,7.1-7.2V40.4z M355.2,43.3c0,1.5-1,2.7-2.8,2.7c-1.4,0-2.3-0.9-2.4-1.8c0.8-0.3,1.3-1.3,1.3-2
				c0-0.6-0.2-1.6-1.2-1.8v-0.2C353.8,40.2,355.2,41.7,355.2,43.3z"/>
			<path class="st2" d="M357.3,47.4c0-4.7,3.6-7.1,6.8-7.2v0.2c-1.6,0.2-2.1,1.6-2.1,6.9c0,4,1.8,6.2,4.3,6.2c1.6,0,2.8-0.4,4.1-1.5
				v0.2c-1.4,1.8-4.1,2.5-5.9,2.5C360.9,54.6,357.3,52,357.3,47.4z M363.5,46.2c2.4,0,3.5-0.8,3.5-3.1c0-1.3-0.6-2.6-1.8-2.7v-0.2
				c3.7,0,5.5,2.6,5.5,4.7c0,0.4-0.1,1-0.1,1.4h-7V46.2z"/>
		</g>
	</g>
</g>
</svg>
