<?xml version="1.0" encoding="utf-8"?>
<!-- Generator: Adobe Illustrator 24.0.3, SVG Export Plug-In . SVG Version: 6.00 Build 0)  -->
<svg version="1.1" id="Layer_1" xmlns="http://www.w3.org/2000/svg" xmlns:xlink="http://www.w3.org/1999/xlink" x="0px" y="0px"
	 viewBox="0 0 728 90" style="enable-background:new 0 0 728 90;" xml:space="preserve">
<style type="text/css">
	.st0{clip-path:url(#SVGID_2_);}
	.st1{enable-background:new    ;}
	.st2{fill:#FFFFFF;}
</style>
<title>Artboard 1 copy 6</title>
<g>
	<defs>
		<rect id="SVGID_1_" y="0" width="728" height="90"/>
	</defs>
	<clipPath id="SVGID_2_">
		<use xlink:href="#SVGID_1_"  style="overflow:visible;"/>
	</clipPath>
	<g class="st0">
		<g class="st1">
			<path class="st2" d="M35.4,51.1l0.1,0.2c-1.4,2.3-4,3.4-6.7,3.4c-4.5,0-10.2-3.2-10.2-9.7c0-7,5.5-9.7,9.5-9.8v0.2
				c-1.9,0.4-4.1,2.3-4.1,9.4c0,7.1,2.9,8.8,6,8.8C32.6,53.5,34.4,52.3,35.4,51.1z M35.6,35.2v6.8h-0.2c-1.1-3.7-3.1-5.8-5.9-6.6
				v-0.2c2.4,0.1,3.9,0.5,5,1.3l0.8-1.3H35.6z"/>
			<path class="st2" d="M44,52.8c0,0.7,0.4,1.4,2.1,1.4v0.2h-8.8v-0.2c1.7,0,2.1-0.7,2.1-1.4V36.7c0-1-0.5-1.5-2.1-1.5V35
				c2.6,0,4.7-0.3,6.6-1.1V52.8z M53.8,44.1v8.7c0,0.7,0.4,1.4,2.1,1.4v0.2h-8.7v-0.2c1.6,0,2.1-0.7,2.1-1.4v-8.7
				c0-1.6-0.8-2.4-2.2-2.4c-0.8,0-1.4,0.2-2.1,0.9v-0.2c0.8-1.2,2.6-2.3,4.6-2.3C52,40.2,53.8,41.4,53.8,44.1z"/>
			<path class="st2" d="M64.3,40.4c-1.6,0.2-2.2,1.6-2.2,7c0,5.2,0.6,7,2.2,7.1v0.2c-3.2,0-6.9-2.6-6.9-7.3s3.7-7.1,6.9-7.2V40.4z
				 M72.3,47.4c0,4.6-3.7,7.3-6.9,7.3v-0.2c1.6-0.2,2.2-1.9,2.2-7.1c0-5.5-0.6-6.8-2.2-7v-0.2C68.6,40.2,72.3,42.7,72.3,47.4z"/>
			<path class="st2" d="M81.6,40.4c-1.6,0.2-2.2,1.6-2.2,7c0,5.2,0.6,7,2.2,7.1v0.2c-3.2,0-6.9-2.6-6.9-7.3s3.7-7.1,6.9-7.2V40.4z
				 M89.6,47.4c0,4.6-3.7,7.3-6.9,7.3v-0.2c1.6-0.2,2.2-1.9,2.2-7.1c0-5.5-0.6-6.8-2.2-7v-0.2C85.9,40.2,89.6,42.7,89.6,47.4z"/>
			<path class="st2" d="M96.7,51.1c-0.9,0-1.6,0.6-1.6,1.4c0,0.8,0.6,1.8,2.5,2v0.2c-3.7-0.1-5.7-1.1-5.7-2.8c0-1.3,1.1-2.1,2.4-2.1
				C95.4,49.8,96.3,50.4,96.7,51.1z M97.7,40.4c-1,0.2-2,0.7-2,1.9c0.1,3.2,9.1,3.8,9.1,8.2c0,2.7-2.3,4.1-5.9,4.3v-0.2
				c1.2-0.2,2.5-0.6,2.5-2.1c0-2.9-9.1-4-9.1-8.2c0-2.4,2.3-3.9,5.4-4.1V40.4z M104.2,43c0,0.9-0.7,1.7-2.1,1.7
				c-1.2,0-2-0.5-2.4-1.3c0.8-0.1,1.3-0.6,1.3-1.3c0-0.8-1.1-1.6-2.2-1.8v-0.2C102,40.4,104.2,41.5,104.2,43z"/>
			<path class="st2" d="M107.1,47.4c0-4.7,3.6-7.1,6.8-7.2v0.2c-1.6,0.2-2.1,1.6-2.1,6.9c0,4,1.8,6.2,4.3,6.2c1.6,0,2.8-0.4,4.1-1.5
				v0.2c-1.4,1.8-4.1,2.5-5.9,2.5C110.7,54.6,107.1,52,107.1,47.4z M113.4,46.2c2.4,0,3.5-0.8,3.5-3.1c0-1.3-0.6-2.6-1.8-2.7v-0.2
				c3.7,0,5.5,2.6,5.5,4.7c0,0.4-0.1,1-0.1,1.4h-7V46.2z"/>
		</g>
		<g class="st1">
			<path class="st2" d="M136.9,54.5v0.2c-2.2-0.1-4-0.5-5.4-1.4l-0.9,1.4h-0.2v-6.8h0.2C131.5,51,133.5,53.3,136.9,54.5z
				 M145.1,48.9c0,3.6-2.7,5.5-7,5.7v-0.2c1.5-0.3,3-1.2,3-2.8c0-4.9-10.6-5.3-10.6-11c0-3.3,2.7-5.3,6.4-5.5v0.2
				c-1.3,0.2-2.4,1-2.4,2.6C134.5,42.8,145.1,43.3,145.1,48.9z M138.1,35.3v-0.2c2.1,0.1,3.7,0.6,5,1.5l1-1.5h0.2v6.2h-0.2
				C143.2,38.4,140.8,36,138.1,35.3z"/>
		</g>
		<g class="st1">
			<path class="st2" d="M157.8,52.2v0.2c-0.9,1.3-2.7,2.3-4.8,2.3c-2.5,0-4.3-1.1-4.3-3.9v-9.1h-1.4l0.3-0.4h1.1v-3
				c1.7,0,3.4-0.5,4.6-1.6v4.6h3.8l-0.3,0.4h-3.4v9.2c0,1.4,0.5,2.8,1.8,2.8C155.9,53.6,156.8,53.1,157.8,52.2z"/>
			<path class="st2" d="M158.7,51.1c0-2.4,2.2-3.8,5.3-3.8h3v0.2h-0.8c-2,0-2.9,1.3-2.9,3c0,1.5,0.4,2.7,1.8,2.7c0.8,0,1.4-0.4,2-1
				v0.2c-0.9,1.1-2.4,2.3-4.4,2.3C160.2,54.6,158.6,53.3,158.7,51.1z M159.8,43.2c0-1.4,1.3-2.9,5.1-3v0.2c-1.1,0.2-1.8,1.1-1.8,2
				c0,1,0.7,1.6,1.8,1.7c-0.4,0.8-1.6,1.3-2.7,1.3C160.7,45.4,159.8,44.4,159.8,43.2z M167.8,51.5V43c0-1.4-0.5-2.4-1.9-2.6v-0.2
				c4.6,0.2,6.5,1.9,6.5,5.6v6.8c0,0.8,0.3,1.1,0.8,1.1c0.4,0,0.9-0.4,1.3-1.3h0.2c-0.4,1.5-1.9,2.3-3.6,2.3
				C168.8,54.6,167.8,53.9,167.8,51.5z"/>
		</g>
		<g class="st1">
			<path class="st2" d="M182.2,52.8c0,0.7,0.4,1.4,2.1,1.4v0.2h-8.8v-0.2c1.7,0,2.1-0.7,2.1-1.4v-9.9c0-1-0.5-1.5-2.1-1.5v-0.2
				c2.6,0,4.7-0.3,6.6-1.1V52.8z M189.7,43.2c0,1.9-1.4,3.2-2.9,3.2c-0.7,0-1.3-0.2-1.6-0.6c0.5-0.3,1.1-0.9,1.1-1.9
				c0-0.8-0.6-1.5-1.6-1.5c-0.7,0-1.3,0.4-1.7,1.1v-0.2c0.5-1.8,1.9-3,3.6-3C188.7,40.2,189.7,41.5,189.7,43.2z"/>
		</g>
		<g class="st1">
			<path class="st2" d="M214.7,51.1l0.1,0.2c-1.4,2.3-4,3.4-6.7,3.4c-4.5,0-10.2-3.2-10.2-9.7c0-7,5.5-9.7,9.5-9.8v0.2
				c-1.9,0.4-4.1,2.3-4.1,9.4c0,7.1,2.9,8.8,6,8.8C211.9,53.5,213.7,52.3,214.7,51.1z M214.9,35.2v6.8h-0.2
				c-1.1-3.7-3.1-5.8-5.9-6.6v-0.2c2.4,0.1,3.9,0.5,5,1.3l0.8-1.3H214.9z"/>
			<path class="st2" d="M217,51.1c0-2.4,2.2-3.8,5.3-3.8h3v0.2h-0.8c-2,0-2.9,1.3-2.9,3c0,1.5,0.4,2.7,1.8,2.7c0.8,0,1.4-0.4,2-1
				v0.2c-0.9,1.1-2.4,2.3-4.4,2.3C218.6,54.6,217,53.3,217,51.1z M218.1,43.2c0-1.4,1.3-2.9,5.1-3v0.2c-1.1,0.2-1.8,1.1-1.8,2
				c0,1,0.7,1.6,1.8,1.7c-0.4,0.8-1.6,1.3-2.7,1.3C219,45.4,218.1,44.4,218.1,43.2z M226.2,51.5V43c0-1.4-0.5-2.4-1.9-2.6v-0.2
				c4.6,0.2,6.5,1.9,6.5,5.6v6.8c0,0.8,0.3,1.1,0.8,1.1c0.4,0,0.9-0.4,1.3-1.3h0.2c-0.4,1.5-1.9,2.3-3.6,2.3
				C227.2,54.6,226.2,53.9,226.2,51.5z"/>
			<path class="st2" d="M240.6,52.8c0,0.7,0.4,1.4,2.1,1.4v0.2h-8.8v-0.2c1.7,0,2.1-0.7,2.1-1.4v-9.9c0-1-0.5-1.5-2.1-1.5v-0.2
				c2.6,0,4.7-0.3,6.6-1.1V52.8z M249.8,44.1v8.7c0,0.7,0.4,1.4,2.1,1.4v0.2h-8.7v-0.2c1.6,0,2.1-0.7,2.1-1.4v-8.7
				c0-1.6-0.6-2.4-1.9-2.4c-0.8,0-1.5,0.4-1.8,0.8v-0.2c0.6-1.2,2-2.2,4.1-2.2C248.1,40.2,249.8,41.4,249.8,44.1z M259,44.1v8.7
				c0,0.7,0.4,1.4,2.1,1.4v0.2h-8.8v-0.2c1.6,0,2.1-0.7,2.1-1.4v-8.7c0-1.6-0.6-2.4-1.9-2.4c-0.8,0-1.5,0.4-1.8,0.8v-0.2
				c0.6-1.2,2-2.2,4.1-2.2C257.3,40.2,259,41.4,259,44.1z"/>
			<path class="st2" d="M268.5,58.6c0,1,0.5,1.5,2.1,1.5v0.2c-2.6,0-4.3,0.3-6.6,1.1V42.9c0-1-0.5-1.5-2.1-1.5v-0.2
				c2.6,0,4.3-0.3,6.6-1.1V58.6z M279.1,47.3c0,5.8-3.1,7.4-5.7,7.4c-1.6,0-3.4-1.1-4.1-2.3v-0.2c0.7,0.5,1.4,1,2.3,1
				c1.3,0,2.7-0.9,2.7-5.9c0-5-1.3-5.7-2.7-5.7c-0.9,0-1.7,0.3-2.3,1v-0.2c0.7-1.2,2.5-2.2,4.1-2.2
				C276.1,40.2,279.1,41.7,279.1,47.3z"/>
			<path class="st2" d="M281.6,47.4c0-4.7,3.6-7.1,6.8-7.2v0.2c-1.6,0.2-2.1,1.6-2.1,6.9c0,4,1.8,6.2,4.3,6.2c1.6,0,2.8-0.4,4.1-1.5
				v0.2c-1.4,1.8-4.1,2.5-5.9,2.5C285.2,54.6,281.6,52,281.6,47.4z M287.8,46.2c2.4,0,3.5-0.8,3.5-3.1c0-1.3-0.6-2.6-1.8-2.7v-0.2
				c3.7,0,5.5,2.6,5.5,4.7c0,0.4-0.1,1-0.1,1.4h-7V46.2z"/>
			<path class="st2" d="M303.4,52.8c0,0.7,0.4,1.4,2.1,1.4v0.2h-8.8v-0.2c1.7,0,2.1-0.7,2.1-1.4v-9.9c0-1-0.5-1.5-2.1-1.5v-0.2
				c2.6,0,4.7-0.3,6.6-1.1V52.8z M310.9,43.2c0,1.9-1.4,3.2-2.9,3.2c-0.7,0-1.3-0.2-1.6-0.6c0.5-0.3,1.1-0.9,1.1-1.9
				c0-0.8-0.6-1.5-1.6-1.5c-0.7,0-1.3,0.4-1.7,1.1v-0.2c0.5-1.8,1.9-3,3.6-3C309.9,40.2,310.9,41.5,310.9,43.2z"/>
			<path class="st2" d="M329.5,51.1l0.1,0.2c-1.4,2.3-4,3.4-6.7,3.4c-4.5,0-10.2-3.2-10.2-9.7c0-7,5.5-9.7,9.5-9.8v0.2
				c-1.9,0.4-4.1,2.3-4.1,9.4c0,7.1,2.9,8.8,6,8.8C326.8,53.5,328.6,52.3,329.5,51.1z M329.8,35.2v6.8h-0.2
				c-1.1-3.7-3.1-5.8-5.9-6.6v-0.2c2.4,0.1,3.9,0.5,5,1.3l0.8-1.3H329.8z"/>
			<path class="st2" d="M331.9,51.1c0-2.4,2.2-3.8,5.3-3.8h3v0.2h-0.8c-2,0-2.9,1.3-2.9,3c0,1.5,0.4,2.7,1.8,2.7c0.8,0,1.4-0.4,2-1
				v0.2c-0.9,1.1-2.4,2.3-4.4,2.3C333.4,54.6,331.9,53.3,331.9,51.1z M333,43.2c0-1.4,1.3-2.9,5.1-3v0.2c-1.1,0.2-1.8,1.1-1.8,2
				c0,1,0.7,1.6,1.8,1.7c-0.4,0.8-1.6,1.3-2.7,1.3C333.9,45.4,333,44.4,333,43.2z M341.1,51.5V43c0-1.4-0.5-2.4-1.9-2.6v-0.2
				c4.6,0.2,6.5,1.9,6.5,5.6v6.8c0,0.8,0.3,1.1,0.8,1.1c0.4,0,0.9-0.4,1.3-1.3h0.2c-0.4,1.5-1.9,2.3-3.6,2.3
				C342.1,54.6,341.1,53.9,341.1,51.5z"/>
		</g>
		<g class="st1">
			<path class="st2" d="M355.4,52.8c0,0.7,0.4,1.4,2.1,1.4v0.2h-8.8v-0.2c1.7,0,2.1-0.7,2.1-1.4v-9.9c0-1-0.5-1.5-2.1-1.5v-0.2
				c2.6,0,4.7-0.3,6.6-1.1V52.8z M362.9,43.2c0,1.9-1.4,3.2-2.9,3.2c-0.7,0-1.3-0.2-1.6-0.6c0.5-0.3,1.1-0.9,1.1-1.9
				c0-0.8-0.6-1.5-1.6-1.5c-0.7,0-1.3,0.4-1.7,1.1v-0.2c0.5-1.8,1.9-3,3.6-3C361.9,40.2,362.9,41.5,362.9,43.2z"/>
		</g>
		<g class="st1">
			<path class="st2" d="M364.4,47.4c0-4.7,3.6-7.1,6.8-7.2v0.2c-1.6,0.2-2.1,1.6-2.1,6.9c0,4,1.8,6.2,4.3,6.2c1.6,0,2.8-0.4,4.1-1.5
				v0.2c-1.4,1.8-4.1,2.5-5.9,2.5C368,54.6,364.4,52,364.4,47.4z M370.7,46.2c2.4,0,3.5-0.8,3.5-3.1c0-1.3-0.6-2.6-1.8-2.7v-0.2
				c3.7,0,5.5,2.6,5.5,4.7c0,0.4-0.1,1-0.1,1.4h-7V46.2z"/>
		</g>
	</g>
</g>
</svg>
