<?xml version="1.0" encoding="utf-8"?>
<!-- Generator: Adobe Illustrator 24.0.3, SVG Export Plug-In . SVG Version: 6.00 Build 0)  -->
<svg version="1.1" id="Layer_1" xmlns="http://www.w3.org/2000/svg" xmlns:xlink="http://www.w3.org/1999/xlink" x="0px" y="0px"
	 viewBox="0 0 728 90" style="enable-background:new 0 0 728 90;" xml:space="preserve">
<style type="text/css">
	.st0{clip-path:url(#SVGID_2_);}
	.st1{enable-background:new    ;}
	.st2{fill:#FFFFFF;}
</style>
<title>Artboard 1 copy 5</title>
<g>
	<defs>
		<rect id="SVGID_1_" y="0" width="728" height="90"/>
	</defs>
	<clipPath id="SVGID_2_">
		<use xlink:href="#SVGID_1_"  style="overflow:visible;"/>
	</clipPath>
	<g class="st0">
		<g class="st1">
			<path class="st2" d="M18.5,41.3c1.7,0,2.1-0.6,2.1-1.4V24.1c0-0.8-0.4-1.4-2.1-1.4v-0.2h6.8v17.3c0,0.8,0.4,1.4,2.1,1.4v0.2h-8.9
				V41.3z M26.7,22.7v-0.2h7.6v5.6h-0.2C32.8,24.2,30.9,23,26.7,22.7z M28.2,32.2L26.7,32v-0.2l1.5-0.1c1.6-0.1,2.8-0.8,3.7-2.4h0.2
				v5.2h-0.2C31,32.9,29.9,32.3,28.2,32.2z"/>
		</g>
		<g class="st1">
			<path class="st2" d="M42.4,27.4c-1.6,0.2-2.2,1.6-2.2,7c0,5.2,0.6,7,2.2,7.1v0.2c-3.2,0-6.9-2.6-6.9-7.3s3.7-7.1,6.9-7.2V27.4z
				 M50.4,34.5c0,4.6-3.7,7.3-6.9,7.3v-0.2c1.6-0.2,2.2-1.9,2.2-7.1c0-5.5-0.6-6.8-2.2-7v-0.2C46.8,27.3,50.4,29.7,50.4,34.5z"/>
		</g>
		<g class="st1">
			<path class="st2" d="M59,39.9c0,0.7,0.4,1.4,2.1,1.4v0.2h-8.8v-0.2c1.7,0,2.1-0.7,2.1-1.4V30c0-1-0.5-1.5-2.1-1.5v-0.2
				c2.6,0,4.7-0.3,6.6-1.1V39.9z M66.5,30.3c0,1.9-1.4,3.2-2.9,3.2c-0.7,0-1.3-0.2-1.6-0.6c0.5-0.3,1.1-0.9,1.1-1.9
				c0-0.8-0.6-1.5-1.6-1.5c-0.7,0-1.3,0.4-1.7,1.1v-0.2c0.5-1.8,1.9-3,3.6-3C65.4,27.3,66.5,28.6,66.5,30.3z"/>
		</g>
		<g class="st1">
			<path class="st2" d="M80.7,39.9c0,0.7,0.4,1.4,2.1,1.4v0.2H74v-0.2c1.7,0,2.1-0.7,2.1-1.4V30c0-1-0.5-1.5-2.1-1.5v-0.2
				c2.6,0,4.7-0.3,6.6-1.1V39.9z M89.9,31.2v8.7c0,0.7,0.4,1.4,2.1,1.4v0.2h-8.7v-0.2c1.6,0,2.1-0.7,2.1-1.4v-8.7
				c0-1.6-0.6-2.4-1.9-2.4c-0.8,0-1.5,0.4-1.8,0.8v-0.2c0.6-1.2,2-2.2,4.1-2.2C88.2,27.3,89.9,28.4,89.9,31.2z M99.1,31.2v8.7
				c0,0.7,0.4,1.4,2.1,1.4v0.2h-8.8v-0.2c1.6,0,2.1-0.7,2.1-1.4v-8.7c0-1.6-0.6-2.4-1.9-2.4c-0.8,0-1.5,0.4-1.8,0.8v-0.2
				c0.6-1.2,2-2.2,4.1-2.2C97.4,27.3,99.1,28.4,99.1,31.2z"/>
			<path class="st2" d="M109.6,27.4c-1.6,0.2-2.2,1.6-2.2,7c0,5.2,0.6,7,2.2,7.1v0.2c-3.2,0-6.9-2.6-6.9-7.3s3.7-7.1,6.9-7.2V27.4z
				 M117.6,34.5c0,4.6-3.7,7.3-6.9,7.3v-0.2c1.6-0.2,2.2-1.9,2.2-7.1c0-5.5-0.6-6.8-2.2-7v-0.2C114,27.3,117.6,29.7,117.6,34.5z"/>
		</g>
		<g class="st1">
			<path class="st2" d="M126.1,39.9c0,0.7,0.4,1.4,2.1,1.4v0.2h-8.8v-0.2c1.7,0,2.1-0.7,2.1-1.4V30c0-1-0.5-1.5-2.1-1.5v-0.2
				c2.6,0,4.7-0.3,6.6-1.1V39.9z M133.6,30.3c0,1.9-1.4,3.2-2.9,3.2c-0.7,0-1.3-0.2-1.6-0.6c0.5-0.3,1.1-0.9,1.1-1.9
				c0-0.8-0.6-1.5-1.6-1.5c-0.7,0-1.3,0.4-1.7,1.1v-0.2c0.5-1.8,1.9-3,3.6-3C132.6,27.3,133.6,28.6,133.6,30.3z"/>
		</g>
		<g class="st1">
			<path class="st2" d="M135.1,34.5c0-4.7,3.6-7.1,6.8-7.2v0.2c-1.6,0.2-2.1,1.6-2.1,6.9c0,4,1.8,6.2,4.3,6.2c1.6,0,2.8-0.4,4.1-1.5
				v0.2c-1.4,1.8-4.1,2.5-5.9,2.5C138.7,41.7,135.1,39.1,135.1,34.5z M141.4,33.3c2.4,0,3.5-0.8,3.5-3.1c0-1.3-0.6-2.6-1.8-2.7v-0.2
				c3.7,0,5.5,2.6,5.5,4.7c0,0.4-0.1,1-0.1,1.4h-7V33.3z"/>
		</g>
		<g class="st1">
			<path class="st2" d="M157.9,34.5c0-4.7,3.6-7.1,6.8-7.2v0.2c-1.6,0.2-2.1,1.6-2.1,6.9c0,4,1.8,6.2,4.3,6.2c1.6,0,2.8-0.4,4.1-1.5
				v0.2c-1.4,1.8-4.1,2.5-5.9,2.5C161.5,41.7,157.9,39.1,157.9,34.5z M164.1,33.3c2.4,0,3.5-0.8,3.5-3.1c0-1.3-0.6-2.6-1.8-2.7v-0.2
				c3.7,0,5.5,2.6,5.5,4.7c0,0.4-0.1,1-0.1,1.4h-7V33.3z"/>
		</g>
		<g class="st1">
			<path class="st2" d="M173.5,28.7c-0.3-0.6-0.7-1-1.5-1v-0.2h7.8v0.2c-1,0-1.4,0.7-0.9,1.6l3.6,7.6l-2.4,4.5H180L173.5,28.7z
				 M183.7,34.2c0.5-0.9,0.8-2.1,0.8-3.6c0-1.5-0.9-2.9-2.8-2.9v-0.2h6.9v0.2c-0.9,0-1.3,0.4-1.8,1.3l-2.9,5.5L183.7,34.2z"/>
		</g>
		<g class="st1">
			<path class="st2" d="M188.8,34.5c0-4.7,3.6-7.1,6.8-7.2v0.2c-1.6,0.2-2.1,1.6-2.1,6.9c0,4,1.8,6.2,4.3,6.2c1.6,0,2.8-0.4,4.1-1.5
				v0.2c-1.4,1.8-4.1,2.5-5.9,2.5C192.4,41.7,188.8,39.1,188.8,34.5z M195.1,33.3c2.4,0,3.5-0.8,3.5-3.1c0-1.3-0.6-2.6-1.8-2.7v-0.2
				c3.7,0,5.5,2.6,5.5,4.7c0,0.4-0.1,1-0.1,1.4h-7V33.3z"/>
			<path class="st2" d="M210.6,39.9c0,0.7,0.4,1.4,2.1,1.4v0.2H204v-0.2c1.7,0,2.1-0.7,2.1-1.4V30c0-1-0.5-1.5-2.1-1.5v-0.2
				c2.6,0,4.7-0.3,6.6-1.1V39.9z M218.2,30.3c0,1.9-1.4,3.2-2.9,3.2c-0.7,0-1.3-0.2-1.6-0.6c0.5-0.3,1.1-0.9,1.1-1.9
				c0-0.8-0.6-1.5-1.6-1.5c-0.7,0-1.3,0.4-1.7,1.1v-0.2c0.5-1.8,1.9-3,3.6-3C217.1,27.3,218.2,28.6,218.2,30.3z"/>
			<path class="st2" d="M220,28.7c-0.3-0.6-0.7-1-1.5-1v-0.2h7.8v0.2c-1,0-1.4,0.7-0.9,1.6l3.6,7.6l-2.4,4.5h-0.2L220,28.7z
				 M218.8,45.9c0-1.2,0.9-2.2,2.4-2.6c-0.1,0.3-0.1,0.5-0.1,0.7c0,1.1,0.6,1.9,1.6,1.9c1,0,1.8-1,2.8-2.8h0.2
				c-1.5,2.9-2.6,5.3-4.5,5.3C219.7,48.4,218.8,47.4,218.8,45.9z M230.2,34.2c0.5-0.9,0.8-2.1,0.8-3.6c0-1.5-0.9-2.9-2.8-2.9v-0.2
				h6.9v0.2c-0.9,0-1.3,0.4-1.8,1.3l-2.9,5.5L230.2,34.2z"/>
			<path class="st2" d="M246,39.3v0.2c-0.9,1.3-2.7,2.3-4.8,2.3c-2.5,0-4.3-1.1-4.3-3.9v-9.1h-1.4l0.3-0.4h1.1v-3
				c1.7,0,3.4-0.5,4.6-1.6v4.6h3.8l-0.3,0.4h-3.4v9.2c0,1.4,0.5,2.8,1.8,2.8C244.1,40.7,245.1,40.2,246,39.3z"/>
			<path class="st2" d="M253.2,39.9c0,0.7,0.4,1.4,2.1,1.4v0.2h-8.8v-0.2c1.7,0,2.1-0.7,2.1-1.4V23.7c0-1-0.5-1.5-2.1-1.5v-0.2
				c2.6,0,4.7-0.3,6.6-1.1V39.9z M262.9,31.2v8.7c0,0.7,0.4,1.4,2.1,1.4v0.2h-8.7v-0.2c1.6,0,2.1-0.7,2.1-1.4v-8.7
				c0-1.6-0.8-2.4-2.2-2.4c-0.8,0-1.4,0.2-2.1,0.9v-0.2c0.8-1.2,2.6-2.3,4.6-2.3C261.1,27.3,262.9,28.4,262.9,31.2z"/>
			<path class="st2" d="M266.1,28.3c2.6,0,4.7-0.3,6.6-1.1v12.6c0,0.7,0.4,1.4,2.1,1.4v0.2H266v-0.2c1.7,0,2.1-0.7,2.1-1.4V30
				c0-1-0.5-1.5-2.1-1.5V28.3z M267.5,23.1c0-1.4,1.2-2.4,2.8-2.4c1.7,0,2.8,1,2.8,2.4c0,1.5-1.2,2.4-2.8,2.4
				C268.7,25.5,267.5,24.6,267.5,23.1z"/>
			<path class="st2" d="M276,41.3c1.7,0,2.1-0.7,2.1-1.4V30c0-1-0.5-1.5-2.1-1.5v-0.2c2.6,0,4.7-0.3,6.6-1.1v12.6
				c0,0.7,0.4,1.4,2.1,1.4v0.2H276V41.3z M285.8,41.3c1.6,0,2.1-0.7,2.1-1.4v-8.7c0-1.6-0.8-2.4-2.2-2.4c-0.8,0-1.4,0.2-2.1,0.9
				v-0.2c0.8-1.2,2.6-2.3,4.6-2.3c2.5,0,4.3,1.2,4.3,3.9v8.7c0,0.7,0.4,1.4,2.1,1.4v0.2h-8.7V41.3z"/>
			<path class="st2" d="M296.1,32.3c0-3.6,3.4-5,6.2-5v0.2c-1.2,0.1-1.8,1.6-1.8,4.8c0,3.4,0.6,4.7,1.8,4.8v0.2
				C299.6,37.2,296.1,35.9,296.1,32.3z M303.5,48.2c2.8-0.3,3.7-1.8,3.7-2.8c0-3.9-10.8-0.4-10.8-5.4c0-1.1,0.6-2,1.9-2.8l0.1,0.1
				c-0.2,0.1-0.3,0.3-0.3,0.5c0,3.1,12.7-0.5,12.7,5.6c0,2.9-2.5,4.7-7.2,5V48.2z M296.4,45.9c0-1.6,2-2.1,4.2-2.1
				c-0.5,0.2-1.2,1-1.2,2c0,1.3,1.4,2.3,3,2.5v0.2C299.4,48.4,296.4,47.7,296.4,45.9z M303.5,37.1c1.4-0.1,1.9-1.5,1.9-4.8
				c0-3.2-0.6-4.7-1.9-4.8v-0.2c2.9,0.1,6.4,1.4,6.4,5c0,3.6-3.4,4.9-6.4,4.9V37.1z M305,26.8c0.5-1.4,1.8-3.3,3.7-3.3
				c1.5,0,2.4,0.8,2.4,2.1c0,1.4-1.2,2.2-2.3,2.2c0-1.2-0.6-1.9-1.5-1.9c-0.8,0-1.8,0.5-2.1,1L305,26.8z"/>
		</g>
		<g class="st1">
			<path class="st2" d="M28.8,67.1v0.2c-0.9,1.3-2.7,2.3-4.8,2.3c-2.5,0-4.3-1.1-4.3-3.9v-9.1h-1.4l0.3-0.4h1.1v-3
				c1.7,0,3.4-0.5,4.6-1.6v4.6H28l-0.3,0.4h-3.4v9.2c0,1.4,0.5,2.8,1.8,2.8C26.9,68.6,27.8,68.1,28.8,67.1z"/>
			<path class="st2" d="M35.9,67.7c0,0.7,0.4,1.4,2.1,1.4v0.2h-8.8v-0.2c1.7,0,2.1-0.7,2.1-1.4V51.6c0-1-0.5-1.5-2.1-1.5v-0.2
				c2.6,0,4.7-0.3,6.6-1.1V67.7z M45.7,59v8.7c0,0.7,0.4,1.4,2.1,1.4v0.2H39v-0.2c1.6,0,2.1-0.7,2.1-1.4V59c0-1.6-0.8-2.4-2.2-2.4
				c-0.8,0-1.4,0.2-2.1,0.9v-0.2c0.8-1.2,2.6-2.3,4.6-2.3C43.9,55.1,45.7,56.3,45.7,59z"/>
			<path class="st2" d="M49,66c0-2.4,2.2-3.8,5.3-3.8h3v0.2h-0.8c-2,0-2.9,1.3-2.9,3c0,1.5,0.4,2.7,1.8,2.7c0.8,0,1.4-0.4,2-1v0.2
				c-0.9,1.1-2.4,2.3-4.4,2.3C50.5,69.6,48.9,68.2,49,66z M50.1,58.1c0-1.4,1.3-2.9,5.1-3v0.2c-1.1,0.2-1.8,1.1-1.8,2
				c0,1,0.7,1.6,1.8,1.7c-0.4,0.8-1.6,1.3-2.7,1.3C51,60.3,50.1,59.3,50.1,58.1z M58.2,66.4v-8.5c0-1.4-0.5-2.4-1.9-2.6v-0.2
				c4.6,0.2,6.5,1.9,6.5,5.6v6.8c0,0.8,0.3,1.1,0.8,1.1c0.4,0,0.9-0.4,1.3-1.3H65c-0.4,1.5-1.9,2.3-3.6,2.3
				C59.2,69.6,58.2,68.8,58.2,66.4z"/>
			<path class="st2" d="M65.9,69.1c1.7,0,2.1-0.7,2.1-1.4v-9.9c0-1-0.5-1.5-2.1-1.5v-0.2c2.6,0,4.7-0.3,6.6-1.1v12.6
				c0,0.7,0.4,1.4,2.1,1.4v0.2h-8.8V69.1z M75.7,69.1c1.6,0,2.1-0.7,2.1-1.4V59c0-1.6-0.8-2.4-2.2-2.4c-0.8,0-1.4,0.2-2.1,0.9v-0.2
				c0.8-1.2,2.6-2.3,4.6-2.3c2.5,0,4.3,1.2,4.3,3.9v8.7c0,0.7,0.4,1.4,2.1,1.4v0.2h-8.7V69.1z"/>
			<path class="st2" d="M92.7,66c0-2.4,2.2-3.8,5.3-3.8h3v0.2h-0.8c-2,0-2.9,1.3-2.9,3c0,1.5,0.4,2.7,1.8,2.7c0.8,0,1.4-0.4,2-1v0.2
				c-0.9,1.1-2.4,2.3-4.4,2.3C94.2,69.6,92.7,68.2,92.7,66z M93.8,58.1c0-1.4,1.3-2.9,5.1-3v0.2c-1.1,0.2-1.8,1.1-1.8,2
				c0,1,0.7,1.6,1.8,1.7c-0.4,0.8-1.6,1.3-2.7,1.3C94.7,60.3,93.8,59.3,93.8,58.1z M101.9,66.4v-8.5c0-1.4-0.5-2.4-1.9-2.6v-0.2
				c4.6,0.2,6.5,1.9,6.5,5.6v6.8c0,0.8,0.3,1.1,0.8,1.1c0.4,0,0.9-0.4,1.3-1.3h0.2c-0.4,1.5-1.9,2.3-3.6,2.3
				C102.9,69.6,101.9,68.8,101.9,66.4z"/>
		</g>
		<g class="st1">
			<path class="st2" d="M109.6,69.1c1.7,0,2.1-0.7,2.1-1.4v-9.9c0-1-0.5-1.5-2.1-1.5v-0.2c2.6,0,4.7-0.3,6.6-1.1v12.6
				c0,0.7,0.4,1.4,2.1,1.4v0.2h-8.8V69.1z M119.3,69.1c1.6,0,2.1-0.7,2.1-1.4V59c0-1.6-0.8-2.4-2.2-2.4c-0.8,0-1.4,0.2-2.1,0.9v-0.2
				c0.8-1.2,2.6-2.3,4.6-2.3c2.5,0,4.3,1.2,4.3,3.9v8.7c0,0.7,0.4,1.4,2.1,1.4v0.2h-8.7V69.1z"/>
		</g>
		<g class="st1">
			<path class="st2" d="M129.2,56.5c-0.3-0.6-0.7-1-1.5-1v-0.2h7.8v0.2c-1,0-1.4,0.7-0.9,1.6l3.6,7.6l-2.4,4.5h-0.2L129.2,56.5z
				 M127.9,73.8c0-1.2,0.9-2.2,2.4-2.6c-0.1,0.3-0.1,0.5-0.1,0.7c0,1.1,0.6,1.9,1.6,1.9c1,0,1.8-1,2.8-2.8h0.2
				c-1.5,2.9-2.6,5.3-4.5,5.3C128.8,76.2,127.9,75.2,127.9,73.8z M139.4,62c0.5-0.9,0.8-2.1,0.8-3.6c0-1.5-0.9-2.9-2.8-2.9v-0.2h6.9
				v0.2c-0.9,0-1.3,0.4-1.8,1.3l-2.9,5.5L139.4,62z"/>
		</g>
		<g class="st1">
			<path class="st2" d="M151.3,55.3c-1.6,0.2-2.2,1.6-2.2,7c0,5.2,0.6,7,2.2,7.1v0.2c-3.2,0-6.9-2.6-6.9-7.3s3.7-7.1,6.9-7.2V55.3z
				 M159.3,62.3c0,4.6-3.7,7.3-6.9,7.3v-0.2c1.6-0.2,2.2-1.9,2.2-7.1c0-5.5-0.6-6.8-2.2-7v-0.2C155.6,55.1,159.3,57.6,159.3,62.3z"
				/>
			<path class="st2" d="M161.1,69.1c1.7,0,2.1-0.7,2.1-1.4v-9.9c0-1-0.5-1.5-2.1-1.5v-0.2c2.6,0,4.7-0.3,6.6-1.1v12.6
				c0,0.7,0.4,1.4,2.1,1.4v0.2h-8.8V69.1z M170.9,69.1c1.6,0,2.1-0.7,2.1-1.4V59c0-1.6-0.8-2.4-2.2-2.4c-0.8,0-1.4,0.2-2.1,0.9v-0.2
				c0.8-1.2,2.6-2.3,4.6-2.3c2.5,0,4.3,1.2,4.3,3.9v8.7c0,0.7,0.4,1.4,2.1,1.4v0.2h-8.7V69.1z"/>
			<path class="st2" d="M181.2,62.3c0-4.7,3.6-7.1,6.8-7.2v0.2c-1.6,0.2-2.1,1.6-2.1,6.9c0,4,1.8,6.2,4.3,6.2c1.6,0,2.8-0.4,4.1-1.5
				v0.2c-1.4,1.8-4.1,2.5-5.9,2.5C184.8,69.6,181.2,66.9,181.2,62.3z M187.4,61.1c2.4,0,3.5-0.8,3.5-3.1c0-1.3-0.6-2.6-1.8-2.7v-0.2
				c3.7,0,5.5,2.6,5.5,4.7c0,0.4-0.1,1-0.1,1.4h-7V61.1z"/>
			<path class="st2" d="M203.9,62.3c0-4.7,3.6-7.1,6.8-7.2v0.2c-1.6,0.2-2.1,1.6-2.1,6.9c0,4,1.8,6.2,4.3,6.2c1.6,0,2.8-0.4,4.1-1.5
				v0.2c-1.4,1.8-4.1,2.5-5.9,2.5C207.5,69.6,203.9,66.9,203.9,62.3z M210.2,61.1c2.4,0,3.5-0.8,3.5-3.1c0-1.3-0.6-2.6-1.8-2.7v-0.2
				c3.7,0,5.5,2.6,5.5,4.7c0,0.4-0.1,1-0.1,1.4h-7V61.1z"/>
			<path class="st2" d="M218.9,49.9c2.6,0,4.7-0.3,6.6-1.1v18.9c0,0.7,0.4,1.4,2.1,1.4v0.2h-8.8v-0.2c1.7,0,2.1-0.7,2.1-1.4V51.6
				c0-1-0.5-1.5-2.1-1.5V49.9z"/>
			<path class="st2" d="M234.2,66c-0.9,0-1.6,0.6-1.6,1.4c0,0.8,0.6,1.8,2.5,2v0.2c-3.7-0.1-5.7-1.1-5.7-2.8c0-1.3,1.1-2.1,2.4-2.1
				C232.8,64.7,233.7,65.3,234.2,66z M235.1,55.3c-1,0.2-2,0.7-2,1.9c0.1,3.2,9.1,3.8,9.1,8.2c0,2.7-2.3,4.1-5.9,4.3v-0.2
				c1.2-0.2,2.5-0.6,2.5-2.1c0-2.9-9.1-4-9.1-8.2c0-2.4,2.3-3.9,5.4-4.1V55.3z M241.6,58c0,0.9-0.7,1.7-2.1,1.7
				c-1.2,0-2-0.5-2.4-1.3c0.8-0.1,1.3-0.6,1.3-1.3c0-0.8-1.1-1.6-2.2-1.8v-0.2C239.4,55.3,241.6,56.4,241.6,58z"/>
			<path class="st2" d="M244.5,62.3c0-4.7,3.6-7.1,6.8-7.2v0.2c-1.6,0.2-2.1,1.6-2.1,6.9c0,4,1.8,6.2,4.3,6.2c1.6,0,2.8-0.4,4.1-1.5
				v0.2c-1.4,1.8-4.1,2.5-5.9,2.5C248.1,69.6,244.5,66.9,244.5,62.3z M250.8,61.1c2.4,0,3.5-0.8,3.5-3.1c0-1.3-0.6-2.6-1.8-2.7v-0.2
				c3.7,0,5.5,2.6,5.5,4.7c0,0.4-0.1,1-0.1,1.4h-7V61.1z"/>
		</g>
	</g>
</g>
</svg>
