<?xml version="1.0" encoding="utf-8"?>
<!-- Generator: Adobe Illustrator 24.0.3, SVG Export Plug-In . SVG Version: 6.00 Build 0)  -->
<svg version="1.1" id="Layer_1" xmlns="http://www.w3.org/2000/svg" xmlns:xlink="http://www.w3.org/1999/xlink" x="0px" y="0px"
	 viewBox="0 0 300 150" style="enable-background:new 0 0 300 150;" xml:space="preserve">
<style type="text/css">
	.st0{enable-background:new    ;}
	.st1{fill:#FFFFFF;}
</style>
<title>Artboard 1</title>
<g class="st0">
	<path class="st1" d="M11,79c2.3,0,4.2-0.2,6-1v11.3c0,0.6,0.4,1.3,1.9,1.3v0.2H11v-0.2c1.5,0,1.9-0.6,1.9-1.3v-8.9
		c0-0.9-0.4-1.3-1.8-1.3V79z M12.3,74.3c0-1.3,1-2.2,2.5-2.2c1.5,0,2.5,0.9,2.5,2.2c0,1.3-1,2.2-2.5,2.2
		C13.4,76.5,12.3,75.6,12.3,74.3z"/>
	<path class="st1" d="M24.7,87.8c-0.8,0-1.4,0.5-1.4,1.2c0,0.7,0.5,1.6,2.2,1.8V91c-3.3-0.1-5.1-1-5.1-2.5c0-1.1,1-1.8,2.1-1.8
		C23.5,86.7,24.4,87.2,24.7,87.8z M25.6,78.2c-0.9,0.2-1.8,0.6-1.8,1.7c0.1,2.9,8.2,3.4,8.2,7.3c0,2.4-2,3.7-5.3,3.8v-0.2
		c1-0.2,2.2-0.5,2.2-1.8c0-2.6-8.2-3.5-8.2-7.3c0-2.2,2.1-3.5,4.9-3.6V78.2z M31.5,80.6c0,0.8-0.6,1.5-1.8,1.5c-1,0-1.8-0.5-2.1-1.2
		c0.8-0.1,1.1-0.6,1.1-1.2c0-0.8-1-1.5-1.9-1.6V78C29.5,78.2,31.5,79.2,31.5,80.6z"/>
	<path class="st1" d="M40.4,84.5c0-4.2,3.2-6.4,6.1-6.4v0.2c-1.5,0.2-1.9,1.4-1.9,6.2c0,3.6,1.6,5.6,3.8,5.6c1.4,0,2.5-0.4,3.6-1.3
		v0.1c-1.3,1.7-3.7,2.2-5.3,2.2C43.6,91,40.4,88.7,40.4,84.5z M46,83.4c2.2,0,3.1-0.7,3.1-2.8c0-1.2-0.5-2.3-1.6-2.4V78
		c3.3,0,4.9,2.3,4.9,4.2c0,0.4,0,0.9-0.1,1.3H46V83.4z"/>
	<path class="st1" d="M54.2,87.8c0-2.2,2-3.4,4.8-3.4h2.7v0.2H61c-1.8,0-2.6,1.2-2.6,2.7c0,1.4,0.4,2.4,1.6,2.4
		c0.7,0,1.3-0.4,1.8-0.9V89c-0.8,0.9-2.1,2-4,2C55.6,91,54.2,89.8,54.2,87.8z M55.2,80.8c0-1.3,1.1-2.6,4.5-2.7v0.2
		c-1,0.1-1.6,0.9-1.6,1.8c0,0.9,0.6,1.5,1.6,1.5c-0.4,0.7-1.4,1.2-2.4,1.2C56,82.7,55.2,81.8,55.2,80.8z M62.5,88.2v-7.6
		c0-1.2-0.5-2.2-1.7-2.4V78c4.1,0.2,5.8,1.7,5.8,5v6.1c0,0.7,0.2,1,0.7,1c0.4,0,0.8-0.4,1.2-1.1h0.1c-0.4,1.4-1.7,2-3.2,2
		C63.4,91,62.5,90.3,62.5,88.2z"/>
</g>
<g class="st0">
	<path class="st1" d="M74.2,87.8c-0.8,0-1.4,0.5-1.4,1.2c0,0.7,0.5,1.6,2.2,1.8V91c-3.3-0.1-5.1-1-5.1-2.5c0-1.1,1-1.8,2.1-1.8
		C73,86.7,73.8,87.2,74.2,87.8z M75,78.2c-0.9,0.2-1.8,0.6-1.8,1.7c0.1,2.9,8.2,3.4,8.2,7.3c0,2.4-2,3.7-5.3,3.8v-0.2
		c1-0.2,2.2-0.5,2.2-1.8c0-2.6-8.2-3.5-8.2-7.3c0-2.2,2.1-3.5,4.9-3.6V78.2z M80.9,80.6c0,0.8-0.6,1.5-1.8,1.5c-1,0-1.8-0.5-2.1-1.2
		c0.8-0.1,1.1-0.6,1.1-1.2c0-0.8-1-1.5-1.9-1.6V78C78.9,78.2,80.9,79.2,80.9,80.6z"/>
</g>
<g class="st0">
	<path class="st1" d="M83.5,79.3c-0.2-0.5-0.6-0.9-1.4-0.9v-0.2h7v0.2c-0.9,0-1.2,0.6-0.8,1.5l3.3,6.8l-2.1,4h-0.1L83.5,79.3z
		 M82.4,94.8c0-1.1,0.9-2,2.2-2.3c-0.1,0.2-0.1,0.4-0.1,0.6c0,0.9,0.5,1.7,1.5,1.7c0.9,0,1.6-0.9,2.5-2.5h0.2
		c-1.4,2.6-2.3,4.8-4.1,4.8C83.2,97,82.4,96.1,82.4,94.8z M92.6,84.3c0.4-0.8,0.7-1.9,0.7-3.2c0-1.4-0.8-2.6-2.5-2.6v-0.2H97v0.2
		c-0.8,0-1.1,0.3-1.6,1.2l-2.6,4.9L92.6,84.3z"/>
</g>
<g class="st0">
	<path class="st1" d="M107.2,79.9l3.3,6.8l-2.2,4h-0.1l-5.8-11.5c-0.2-0.5-0.6-0.9-1.4-0.9v-0.2h7v0.2
		C107.1,78.4,106.8,79,107.2,79.9z M115.4,79.9l3.3,6.8l-2.1,4h-0.2l-3.9-7.8l-0.8,1.5l-0.2-0.2c0.4-0.8,0.5-2,0.2-2.8l-1.1-2.2
		c-0.2-0.5-0.6-0.9-1.4-0.9v-0.2h7v0.2C115.4,78.4,115,79,115.4,79.9z M124.1,78.3v0.2c-0.8,0-1.2,0.3-1.6,1.2l-2.6,4.9l-0.1-0.2
		c0.4-0.8,0.7-1.9,0.7-3.2c0-1.4-0.8-2.6-2.5-2.6v-0.2H124.1z"/>
	<path class="st1" d="M124.4,79c2.3,0,4.2-0.2,6-1v11.3c0,0.6,0.4,1.3,1.9,1.3v0.2h-7.9v-0.2c1.5,0,1.9-0.6,1.9-1.3v-8.9
		c0-0.9-0.4-1.3-1.8-1.3V79z M125.6,74.3c0-1.3,1-2.2,2.5-2.2c1.5,0,2.5,0.9,2.5,2.2c0,1.3-1,2.2-2.5,2.2
		C126.7,76.5,125.6,75.6,125.6,74.3z"/>
	<path class="st1" d="M143,88.9V89c-0.8,1.1-2.4,2-4.3,2c-2.2,0-3.8-1-3.8-3.5v-8.2h-1.3l0.3-0.4h1v-2.7c1.5,0,3-0.5,4.1-1.4v4.1
		h3.4l-0.3,0.4h-3.1v8.3c0,1.2,0.5,2.5,1.6,2.5C141.3,90.1,142.1,89.7,143,88.9z"/>
	<path class="st1" d="M149.4,89.4c0,0.6,0.4,1.3,1.9,1.3v0.2h-7.9v-0.2c1.5,0,1.9-0.6,1.9-1.3V74.9c0-0.9-0.4-1.3-1.8-1.3v-0.1
		c2.3,0,4.2-0.2,6-1V89.4z M158.2,81.6v7.8c0,0.6,0.4,1.3,1.9,1.3v0.2h-7.8v-0.2c1.5,0,1.8-0.6,1.8-1.3v-7.8c0-1.4-0.7-2.1-2-2.1
		c-0.7,0-1.3,0.2-1.9,0.8v-0.2c0.7-1,2.3-2,4.1-2C156.6,78,158.2,79.1,158.2,81.6z"/>
</g>
<g class="st0">
	<path class="st1" d="M17.8,114.9v0.2c-2,0-3.5-0.4-4.8-1.2l-0.8,1.2h-0.2v-6.1h0.2C13,111.8,14.7,113.9,17.8,114.9z M25.2,109.9
		c0,3.2-2.4,5-6.3,5.1v-0.2c1.4-0.2,2.7-1,2.7-2.5c0-4.4-9.5-4.8-9.5-9.8c0-3,2.4-4.7,5.7-4.9v0.2c-1.1,0.2-2.2,0.9-2.2,2.3
		C15.6,104.4,25.2,104.8,25.2,109.9z M18.9,97.7v-0.2c1.9,0.1,3.3,0.5,4.5,1.3l0.9-1.3h0.2v5.6h-0.2C23.5,100.5,21.3,98.3,18.9,97.7
		z"/>
</g>
<g class="st0">
	<path class="st1" d="M36.6,112.9v0.2c-0.8,1.1-2.4,2-4.3,2c-2.2,0-3.8-1-3.8-3.5v-8.2h-1.3l0.3-0.4h1v-2.7c1.5,0,3-0.5,4.1-1.4v4.1
		h3.4l-0.3,0.4h-3.1v8.3c0,1.2,0.5,2.5,1.6,2.5C34.9,114.1,35.8,113.7,36.6,112.9z"/>
	<path class="st1" d="M37.4,111.8c0-2.2,2-3.4,4.8-3.4h2.7v0.2h-0.7c-1.8,0-2.6,1.2-2.6,2.7c0,1.4,0.4,2.4,1.6,2.4
		c0.7,0,1.3-0.4,1.8-0.9v0.2c-0.8,0.9-2.1,2-4,2C38.8,115,37.4,113.8,37.4,111.8z M38.4,104.8c0-1.3,1.1-2.6,4.5-2.7v0.2
		c-1,0.1-1.6,0.9-1.6,1.8c0,0.9,0.6,1.5,1.6,1.5c-0.4,0.7-1.4,1.2-2.4,1.2C39.2,106.7,38.4,105.8,38.4,104.8z M45.6,112.2v-7.6
		c0-1.2-0.5-2.2-1.7-2.4V102c4.1,0.2,5.8,1.7,5.8,5v6.1c0,0.7,0.2,1,0.7,1c0.4,0,0.8-0.4,1.2-1.1h0.1c-0.4,1.4-1.7,2-3.2,2
		C46.5,115,45.6,114.3,45.6,112.2z"/>
</g>
<g class="st0">
	<path class="st1" d="M58.5,113.4c0,0.6,0.4,1.3,1.9,1.3v0.2h-7.9v-0.2c1.5,0,1.9-0.6,1.9-1.3v-8.9c0-0.9-0.4-1.3-1.8-1.3V103
		c2.3,0,4.2-0.2,6-1V113.4z M65.3,104.7c0,1.7-1.2,2.8-2.6,2.8c-0.6,0-1.1-0.2-1.4-0.5c0.5-0.2,1-0.8,1-1.7c0-0.7-0.5-1.3-1.4-1.3
		c-0.6,0-1.2,0.4-1.5,0.9v-0.2c0.5-1.6,1.7-2.7,3.2-2.7C64.3,102,65.3,103.2,65.3,104.7z"/>
</g>
<g class="st0">
	<path class="st1" d="M72.5,114.6c1.5,0,1.9-0.6,1.9-1.3V99.2c0-0.7-0.4-1.3-1.9-1.3v-0.2h8v0.2c-1.5,0-1.9,0.6-1.9,1.3v14.1
		c0,0.7,0.4,1.3,1.9,1.3v0.2h-8V114.6z"/>
	<path class="st1" d="M82.2,114.6c1.5,0,1.9-0.6,1.9-1.3v-8.9c0-0.9-0.4-1.3-1.8-1.3V103c2.3,0,4.2-0.2,6-1v11.3
		c0,0.6,0.4,1.3,1.9,1.3v0.2h-7.9V114.6z M91,114.6c1.5,0,1.8-0.6,1.8-1.3v-7.8c0-1.4-0.7-2.1-2-2.1c-0.7,0-1.3,0.2-1.9,0.8v-0.2
		c0.7-1,2.3-2,4.1-2c2.2,0,3.8,1,3.8,3.5v7.8c0,0.6,0.4,1.3,1.9,1.3v0.2H91V114.6z"/>
	<path class="st1" d="M104.5,111.8c-0.8,0-1.4,0.5-1.4,1.2c0,0.7,0.5,1.6,2.2,1.8v0.2c-3.3-0.1-5.1-1-5.1-2.5c0-1.1,1-1.8,2.1-1.8
		C103.3,110.7,104.2,111.2,104.5,111.8z M105.4,102.2c-0.9,0.2-1.8,0.6-1.8,1.7c0.1,2.9,8.2,3.4,8.2,7.3c0,2.4-2,3.7-5.3,3.8v-0.2
		c1-0.2,2.2-0.5,2.2-1.8c0-2.6-8.2-3.5-8.2-7.3c0-2.2,2.1-3.5,4.9-3.6V102.2z M111.3,104.6c0,0.8-0.6,1.5-1.8,1.5
		c-1,0-1.8-0.5-2.1-1.2c0.8-0.1,1.1-0.6,1.1-1.2c0-0.8-1-1.5-1.9-1.6V102C109.3,102.2,111.3,103.2,111.3,104.6z"/>
	<path class="st1" d="M119.1,111.5c0,1.4,0.5,2.1,1.7,2.1c0.6,0,1.2-0.2,1.7-0.8v0.2c-0.6,1.1-1.8,2-3.9,2c-2.2,0-3.7-1-3.7-3.5v-7
		c0-0.9-0.4-1.3-1.8-1.3V103c2.3,0,4.2-0.2,6-1V111.5z M127.4,113.1c0,0.7,0.2,1,0.7,1c0.4,0,0.8-0.4,1.2-1.1h0.1
		c-0.4,1.4-1.7,2-3.4,2c-1.8,0-2.7-1-2.7-2.4v-8.1c0-0.9-0.4-1.3-1.8-1.3V103c2.2,0,3.8-0.2,5.9-1V113.1z"/>
</g>
<g class="st0">
	<path class="st1" d="M136.5,113.4c0,0.6,0.4,1.3,1.9,1.3v0.2h-7.9v-0.2c1.5,0,1.9-0.6,1.9-1.3v-8.9c0-0.9-0.4-1.3-1.8-1.3V103
		c2.3,0,4.2-0.2,6-1V113.4z M143.2,104.7c0,1.7-1.2,2.8-2.6,2.8c-0.6,0-1.1-0.2-1.4-0.5c0.5-0.2,1-0.8,1-1.7c0-0.7-0.5-1.3-1.4-1.3
		c-0.6,0-1.2,0.4-1.5,0.9v-0.2c0.5-1.6,1.7-2.7,3.2-2.7C142.3,102,143.2,103.2,143.2,104.7z"/>
</g>
<g class="st0">
	<path class="st1" d="M144.3,111.8c0-2.2,2-3.4,4.8-3.4h2.7v0.2H151c-1.8,0-2.6,1.2-2.6,2.7c0,1.4,0.4,2.4,1.6,2.4
		c0.7,0,1.3-0.4,1.8-0.9v0.2c-0.8,0.9-2.1,2-4,2C145.7,115,144.3,113.8,144.3,111.8z M145.3,104.8c0-1.3,1.1-2.6,4.5-2.7v0.2
		c-1,0.1-1.6,0.9-1.6,1.8c0,0.9,0.6,1.5,1.6,1.5c-0.4,0.7-1.4,1.2-2.4,1.2C146.1,106.7,145.3,105.8,145.3,104.8z M152.5,112.2v-7.6
		c0-1.2-0.5-2.2-1.7-2.4V102c4.1,0.2,5.8,1.7,5.8,5v6.1c0,0.7,0.2,1,0.7,1c0.4,0,0.8-0.4,1.2-1.1h0.1c-0.4,1.4-1.7,2-3.2,2
		C153.4,115,152.5,114.3,152.5,112.2z"/>
	<path class="st1" d="M159.5,114.6c1.5,0,1.9-0.6,1.9-1.3v-8.9c0-0.9-0.4-1.3-1.8-1.3V103c2.3,0,4.2-0.2,6-1v11.3
		c0,0.6,0.4,1.3,1.9,1.3v0.2h-7.9V114.6z M168.3,114.6c1.5,0,1.8-0.6,1.8-1.3v-7.8c0-1.4-0.7-2.1-2-2.1c-0.7,0-1.3,0.2-1.9,0.8v-0.2
		c0.7-1,2.3-2,4.1-2c2.2,0,3.8,1,3.8,3.5v7.8c0,0.6,0.4,1.3,1.9,1.3v0.2h-7.8V114.6z"/>
	<path class="st1" d="M183.9,102.2c-1.5,0.2-2.1,1.4-2.1,6.2c0,3.6,1.8,5.6,4,5.6c1.4,0,2.5-0.4,3.7-1.3v0.1
		c-1.3,1.7-3.7,2.2-5.3,2.2c-3.2,0-6.7-2.3-6.7-6.5c0-4.2,3.5-6.4,6.4-6.4V102.2z M189.4,104.9c0,1.3-0.9,2.4-2.5,2.4
		c-1.2,0-2-0.8-2.2-1.6c0.7-0.3,1.2-1.2,1.2-1.8c0-0.6-0.2-1.5-1.1-1.7V102C188.1,102,189.4,103.4,189.4,104.9z"/>
	<path class="st1" d="M191.3,108.5c0-4.2,3.2-6.4,6.1-6.4v0.2c-1.5,0.2-1.9,1.4-1.9,6.2c0,3.6,1.6,5.6,3.8,5.6
		c1.4,0,2.5-0.4,3.6-1.3v0.1c-1.3,1.7-3.7,2.2-5.3,2.2C194.5,115,191.3,112.7,191.3,108.5z M196.9,107.4c2.2,0,3.1-0.7,3.1-2.8
		c0-1.2-0.5-2.3-1.6-2.4V102c3.3,0,4.9,2.3,4.9,4.2c0,0.4,0,0.9-0.1,1.3h-6.3V107.4z"/>
</g>
<g class="st0">
	<path class="st1" d="M26.8,125.6l-5.6,13.2h-0.4l-7.1-15.6c-0.4-0.8-1.4-1.3-2.6-1.3v-0.2h6.7l5.2,11.3l3.8-8V125.6z M16.5,138.6
		v0.2H11v-0.2c1.6,0,2.4-1,2.4-2.1l0.2-10.8l0.2,0.5l0.2,10.3C14.1,137.6,14.9,138.6,16.5,138.6z M32,123.2v14.1
		c0,0.7,0.4,1.3,1.9,1.3v0.2h-8v-0.2c1.5,0,1.9-0.6,1.9-1.3v-15.6h6.1v0.2C32.4,121.9,32,122.5,32,123.2z"/>
</g>
<g class="st0">
	<path class="st1" d="M41.8,126.2c-1.5,0.2-2,1.4-2,6.3c0,4.7,0.5,6.2,2,6.4v0.2c-2.9,0-6.2-2.3-6.2-6.5c0-4.2,3.3-6.4,6.2-6.4
		V126.2z M49,132.5c0,4.2-3.3,6.5-6.2,6.5v-0.2c1.5-0.1,1.9-1.7,1.9-6.4c0-4.9-0.5-6.1-1.9-6.3V126C45.7,126,49,128.3,49,132.5z"/>
</g>
<g class="st0">
	<path class="st1" d="M60.4,136.9v0.2c-0.8,1.1-2.4,2-4.3,2c-2.2,0-3.8-1-3.8-3.5v-8.2h-1.3l0.3-0.4h1v-2.7c1.5,0,3-0.5,4.1-1.4v4.1
		h3.4l-0.3,0.4h-3.1v8.3c0,1.2,0.5,2.5,1.6,2.5C58.7,138.1,59.5,137.7,60.4,136.9z"/>
</g>
<g class="st0">
	<path class="st1" d="M67.5,126.2c-1.5,0.2-2,1.4-2,6.3c0,4.7,0.5,6.2,2,6.4v0.2c-2.9,0-6.2-2.3-6.2-6.5c0-4.2,3.3-6.4,6.2-6.4
		V126.2z M74.7,132.5c0,4.2-3.3,6.5-6.2,6.5v-0.2c1.5-0.1,1.9-1.7,1.9-6.4c0-4.9-0.5-6.1-1.9-6.3V126
		C71.4,126,74.7,128.3,74.7,132.5z"/>
</g>
<g class="st0">
	<path class="st1" d="M82.4,137.4c0,0.6,0.4,1.3,1.9,1.3v0.2h-7.9v-0.2c1.5,0,1.9-0.6,1.9-1.3v-8.9c0-0.9-0.4-1.3-1.8-1.3V127
		c2.3,0,4.2-0.2,6-1V137.4z M89.1,128.7c0,1.7-1.2,2.8-2.6,2.8c-0.6,0-1.1-0.2-1.4-0.5c0.5-0.2,1-0.8,1-1.7c0-0.7-0.5-1.3-1.4-1.3
		c-0.6,0-1.2,0.4-1.5,0.9v-0.2c0.5-1.6,1.7-2.7,3.2-2.7C88.2,126,89.1,127.2,89.1,128.7z"/>
</g>
<g class="st0">
	<path class="st1" d="M96.9,126.2c-1.5,0.2-2.1,1.4-2.1,6.2c0,3.6,1.8,5.6,4,5.6c1.4,0,2.5-0.4,3.6-1.3v0.1
		c-1.3,1.7-3.7,2.2-5.3,2.2c-3.2,0-6.7-2.3-6.7-6.5c0-4.2,3.5-6.4,6.4-6.4V126.2z M102.4,128.9c0,1.3-0.9,2.4-2.5,2.4
		c-1.2,0-2-0.8-2.2-1.6c0.7-0.3,1.2-1.2,1.2-1.8c0-0.6-0.1-1.5-1.1-1.7V126C101.1,126,102.4,127.4,102.4,128.9z"/>
</g>
<g class="st0">
	<path class="st1" d="M104.5,127.3c-0.2-0.5-0.6-0.9-1.4-0.9v-0.2h7v0.2c-0.9,0-1.2,0.6-0.8,1.5l3.3,6.8l-2.1,4h-0.1L104.5,127.3z
		 M103.4,142.8c0-1.1,0.9-2,2.2-2.3c-0.1,0.2-0.1,0.4-0.1,0.6c0,0.9,0.5,1.7,1.5,1.7c0.9,0,1.6-0.9,2.5-2.5h0.2
		c-1.4,2.6-2.3,4.8-4.1,4.8C104.2,145,103.4,144.1,103.4,142.8z M113.6,132.3c0.4-0.8,0.7-1.9,0.7-3.2c0-1.4-0.8-2.6-2.5-2.6v-0.2
		h6.2v0.2c-0.8,0-1.1,0.3-1.6,1.2l-2.6,4.9L113.6,132.3z"/>
</g>
<g class="st0">
	<path class="st1" d="M124.5,126.2c-1.5,0.2-2.1,1.4-2.1,6.2c0,3.6,1.8,5.6,4,5.6c1.4,0,2.5-0.4,3.6-1.3v0.1
		c-1.3,1.7-3.7,2.2-5.3,2.2c-3.2,0-6.7-2.3-6.7-6.5c0-4.2,3.5-6.4,6.4-6.4V126.2z M130.1,128.9c0,1.3-0.9,2.4-2.5,2.4
		c-1.2,0-2-0.8-2.2-1.6c0.7-0.3,1.2-1.2,1.2-1.8c0-0.6-0.1-1.5-1.1-1.7V126C128.8,126,130.1,127.4,130.1,128.9z"/>
	<path class="st1" d="M131.4,121.4c2.3,0,4.2-0.2,6-1v16.9c0,0.6,0.4,1.3,1.9,1.3v0.2h-7.9v-0.2c1.5,0,1.9-0.6,1.9-1.3v-14.5
		c0-0.9-0.4-1.3-1.8-1.3V121.4z"/>
	<path class="st1" d="M140.7,132.5c0-4.2,3.2-6.4,6.1-6.4v0.2c-1.5,0.2-1.9,1.4-1.9,6.2c0,3.6,1.6,5.6,3.8,5.6
		c1.4,0,2.5-0.4,3.6-1.3v0.1c-1.3,1.7-3.7,2.2-5.3,2.2C144,139,140.7,136.7,140.7,132.5z M146.4,131.4c2.2,0,3.1-0.7,3.1-2.8
		c0-1.2-0.5-2.3-1.6-2.4V126c3.3,0,4.9,2.3,4.9,4.2c0,0.4,0,0.9-0.1,1.3h-6.3V131.4z"/>
</g>
</svg>
