<svg id="Layer_1" data-name="Layer 1" xmlns="http://www.w3.org/2000/svg" viewBox="0 0 300 150"><defs><style>.cls-1{fill:#fff;}</style></defs><title>Artboard 1</title><path class="cls-1" d="M10.65,76.45a15.37,15.37,0,0,0,6-1V86.83c0,.62.38,1.27,1.88,1.27v.15H10.62V88.1c1.5,0,1.88-.65,1.88-1.27v-8.9c0-.9-.43-1.33-1.85-1.33Zm1.27-4.7a2.27,2.27,0,0,1,2.55-2.17,2.21,2.21,0,1,1,0,4.37A2.27,2.27,0,0,1,11.92,71.75Z"/><path class="cls-1" d="M24.35,85.28A1.27,1.27,0,0,0,23,86.53c0,.72.5,1.65,2.22,1.82v.15C21.85,88.38,20,87.48,20,86a2,2,0,0,1,2.13-1.85A2.54,2.54,0,0,1,24.35,85.28Zm.82-9.63c-.92.18-1.82.65-1.8,1.68.08,2.9,8.18,3.37,8.18,7.35,0,2.42-2.05,3.7-5.28,3.82v-.15c1.05-.17,2.23-.55,2.23-1.85,0-2.6-8.2-3.55-8.2-7.35,0-2.2,2.07-3.52,4.87-3.65Zm5.9,2.43a1.64,1.64,0,0,1-1.85,1.55,2.13,2.13,0,0,1-2.12-1.2,1.11,1.11,0,0,0,1.12-1.18c0-.75-.95-1.47-1.95-1.6V75.5C29.1,75.65,31.07,76.68,31.07,78.08Z"/><path class="cls-1" d="M40,82a6.19,6.19,0,0,1,6.12-6.45v.15c-1.47.18-1.87,1.43-1.87,6.2,0,3.6,1.6,5.58,3.82,5.58a5.4,5.4,0,0,0,3.65-1.33v.15a7,7,0,0,1-5.3,2.25A6.33,6.33,0,0,1,40,82Zm5.62-1c2.2,0,3.13-.7,3.13-2.8,0-1.2-.5-2.3-1.63-2.45V75.5c3.3,0,4.9,2.35,4.9,4.25a7.85,7.85,0,0,1-.12,1.3H45.62Z"/><path class="cls-1" d="M53.82,85.3c0-2.17,2-3.4,4.8-3.4h2.7v.15h-.75a2.48,2.48,0,0,0-2.65,2.73c0,1.37.4,2.42,1.58,2.42a2.72,2.72,0,0,0,1.82-.87v.15a5.3,5.3,0,0,1-4,2C55.22,88.5,53.8,87.3,53.82,85.3Zm1-7.07c0-1.28,1.15-2.58,4.55-2.73v.15a1.83,1.83,0,0,0-1.6,1.83c0,.9.63,1.45,1.63,1.52A2.82,2.82,0,0,1,57,80.2,2,2,0,0,1,54.82,78.23Zm7.25,7.45V78c0-1.23-.47-2.2-1.7-2.38V75.5c4.15.15,5.8,1.73,5.8,5v6.08c0,.72.25,1,.7,1s.8-.37,1.2-1.12h.15a3.12,3.12,0,0,1-3.25,2C63,88.5,62.07,87.8,62.07,85.68Z"/><path class="cls-1" d="M73.8,85.28a1.27,1.27,0,0,0-1.4,1.25c0,.72.5,1.65,2.22,1.82v.15c-3.32-.12-5.15-1-5.15-2.47a2,2,0,0,1,2.13-1.85A2.54,2.54,0,0,1,73.8,85.28Zm.82-9.63c-.92.18-1.82.65-1.8,1.68C72.9,80.23,81,80.7,81,84.68c0,2.42-2,3.7-5.28,3.82v-.15c1-.17,2.23-.55,2.23-1.85,0-2.6-8.2-3.55-8.2-7.35,0-2.2,2.07-3.52,4.87-3.65Zm5.9,2.43a1.64,1.64,0,0,1-1.85,1.55,2.13,2.13,0,0,1-2.12-1.2,1.11,1.11,0,0,0,1.12-1.18c0-.75-1-1.47-2-1.6V75.5C78.55,75.65,80.52,76.68,80.52,78.08Z"/><path class="cls-1" d="M83.1,76.78a1.35,1.35,0,0,0-1.38-.88v-.15h7v.15c-.87,0-1.22.6-.8,1.48L91.2,84.2l-2.15,4H88.9ZM82,92.27a2.61,2.61,0,0,1,2.2-2.34,1.75,1.75,0,0,0-.1.62,1.46,1.46,0,0,0,1.47,1.67c.88,0,1.58-.92,2.53-2.52h.17C86.9,92.27,86,94.5,84.2,94.5A2.08,2.08,0,0,1,82,92.27ZM92.25,81.75a6.89,6.89,0,0,0,.7-3.22A2.42,2.42,0,0,0,90.4,75.9v-.15h6.22v.15c-.82,0-1.15.33-1.62,1.18L92.4,82Z"/><path class="cls-1" d="M106.82,77.38l3.28,6.82-2.15,4h-.15L102,76.78a1.35,1.35,0,0,0-1.38-.88v-.15h7v.15C106.75,75.9,106.4,76.5,106.82,77.38Zm8.23,0,3.27,6.82-2.15,4H116l-3.92-7.77-.8,1.5-.15-.23a3.74,3.74,0,0,0,.2-2.77l-1.13-2.2a1.35,1.35,0,0,0-1.37-.88v-.15h7v.15C115,75.9,114.62,76.5,115.05,77.38Zm8.69-1.63v.15c-.82,0-1.17.33-1.62,1.18l-2.6,4.9-.15-.23a6.89,6.89,0,0,0,.7-3.22,2.42,2.42,0,0,0-2.55-2.63v-.15Z"/><path class="cls-1" d="M124,76.45a15.42,15.42,0,0,0,6-1V86.83c0,.62.37,1.27,1.87,1.27v.15H124V88.1c1.5,0,1.87-.65,1.87-1.27v-8.9c0-.9-.42-1.33-1.85-1.33Zm1.28-4.7A2.58,2.58,0,1,1,127.8,74,2.27,2.27,0,0,1,125.25,71.75Z"/><path class="cls-1" d="M142.57,86.33v.15a5.22,5.22,0,0,1-4.27,2c-2.25,0-3.85-1-3.85-3.52v-8.2h-1.3l.27-.38h1V73.7a6.31,6.31,0,0,0,4.1-1.4v4.1h3.37l-.27.38h-3.1v8.27c0,1.25.47,2.55,1.65,2.55A3.68,3.68,0,0,0,142.57,86.33Z"/><path class="cls-1" d="M149,86.83c0,.62.38,1.27,1.88,1.27v.15H143V88.1c1.5,0,1.88-.65,1.88-1.27V72.33c0-.9-.43-1.33-1.85-1.33v-.15a15.37,15.37,0,0,0,6-1Zm8.75-7.8v7.8c0,.62.37,1.27,1.87,1.27v.15H151.8V88.1c1.47,0,1.85-.65,1.85-1.27V79a1.86,1.86,0,0,0-2-2.13,2.67,2.67,0,0,0-1.9.78v-.15a5.12,5.12,0,0,1,4.15-2C156.17,75.5,157.77,76.55,157.77,79Z"/><path class="cls-1" d="M17.42,115.35v.15a9.48,9.48,0,0,1-4.85-1.22l-.82,1.22h-.2v-6.1h.2A8.36,8.36,0,0,0,17.42,115.35Zm7.35-5c0,3.22-2.4,5-6.27,5.12v-.15c1.37-.25,2.72-1,2.72-2.55,0-4.37-9.55-4.77-9.55-9.85,0-3,2.43-4.72,5.75-5v.15a2.37,2.37,0,0,0-2.2,2.3C15.22,104.83,24.77,105.3,24.77,110.38ZM18.5,98.15V98A8.08,8.08,0,0,1,23,99.33L23.9,98h.2v5.58h-.2A8,8,0,0,0,18.5,98.15Z"/><path class="cls-1" d="M36.17,113.33v.15a5.22,5.22,0,0,1-4.27,2c-2.25,0-3.85-1-3.85-3.52v-8.2h-1.3l.27-.38h1v-2.7a6.31,6.31,0,0,0,4.1-1.4v4.1h3.37l-.27.38h-3.1v8.27c0,1.25.47,2.55,1.65,2.55A3.68,3.68,0,0,0,36.17,113.33Z"/><path class="cls-1" d="M37,112.3c0-2.17,2-3.4,4.8-3.4h2.7v.15h-.75a2.48,2.48,0,0,0-2.65,2.73c0,1.37.4,2.42,1.58,2.42a2.72,2.72,0,0,0,1.82-.87v.15a5.3,5.3,0,0,1-4,2C38.37,115.5,37,114.3,37,112.3Zm1-7.07c0-1.28,1.15-2.58,4.55-2.73v.15a1.83,1.83,0,0,0-1.6,1.83c0,.9.63,1.45,1.63,1.52a2.82,2.82,0,0,1-2.4,1.2A2,2,0,0,1,38,105.23Zm7.25,7.45V105c0-1.23-.47-2.2-1.7-2.38v-.15c4.15.15,5.8,1.73,5.8,5v6.08c0,.72.25,1,.7,1s.8-.37,1.2-1.12h.15a3.12,3.12,0,0,1-3.25,2C46.12,115.5,45.22,114.8,45.22,112.68Z"/><path class="cls-1" d="M58.15,113.83c0,.62.37,1.27,1.87,1.27v.15H52.15v-.15c1.5,0,1.87-.65,1.87-1.27V105c0-.9-.42-1.32-1.85-1.32v-.15a15.23,15.23,0,0,0,6-1Zm6.75-8.63a2.68,2.68,0,0,1-2.58,2.85,1.69,1.69,0,0,1-1.42-.55,1.83,1.83,0,0,0,1-1.7,1.33,1.33,0,0,0-1.4-1.35,1.73,1.73,0,0,0-1.5,1v-.2a3.46,3.46,0,0,1,3.25-2.7A2.54,2.54,0,0,1,64.9,105.2Z"/><path class="cls-1" d="M72.12,115.1c1.5,0,1.88-.6,1.88-1.27V99.68c0-.68-.38-1.28-1.88-1.28v-.15h8v.15c-1.5,0-1.87.6-1.87,1.28v14.15c0,.67.37,1.27,1.87,1.27v.15h-8Z"/><path class="cls-1" d="M81.8,115.1c1.5,0,1.87-.65,1.87-1.27V105c0-.9-.42-1.32-1.85-1.32v-.15a15.23,15.23,0,0,0,6-1v11.33c0,.62.37,1.27,1.87,1.27v.15H81.8Zm8.8,0c1.47,0,1.85-.65,1.85-1.27V106a1.86,1.86,0,0,0-2-2.13,2.67,2.67,0,0,0-1.9.78v-.15a5.12,5.12,0,0,1,4.15-2c2.25,0,3.85,1,3.85,3.53v7.8c0,.62.38,1.27,1.87,1.27v.15H90.6Z"/><path class="cls-1" d="M104.15,112.28a1.27,1.27,0,0,0-1.4,1.25c0,.72.5,1.65,2.22,1.82v.15c-3.32-.12-5.15-1-5.15-2.47a2,2,0,0,1,2.13-1.85A2.54,2.54,0,0,1,104.15,112.28Zm.82-9.63c-.92.18-1.82.65-1.8,1.68.08,2.9,8.18,3.37,8.18,7.35,0,2.42-2,3.7-5.28,3.82v-.15c1.05-.17,2.23-.55,2.23-1.85,0-2.6-8.2-3.55-8.2-7.35,0-2.2,2.07-3.52,4.87-3.65Zm5.9,2.43a1.64,1.64,0,0,1-1.85,1.55,2.13,2.13,0,0,1-2.12-1.2,1.11,1.11,0,0,0,1.12-1.18c0-.75-1-1.47-2-1.6v-.15C108.9,102.65,110.87,103.68,110.87,105.08Z"/><path class="cls-1" d="M118.72,112c0,1.4.48,2.12,1.73,2.12a2.21,2.21,0,0,0,1.72-.77v.15a4.16,4.16,0,0,1-3.87,2c-2.25,0-3.7-1-3.7-3.52v-7c0-.9-.43-1.32-1.85-1.32v-.15a15.18,15.18,0,0,0,6-1Zm8.33,1.6c0,.72.22,1,.67,1s.8-.37,1.2-1.12h.15c-.4,1.37-1.75,2-3.4,2s-2.75-1-2.75-2.45V105c0-.9-.42-1.32-1.77-1.32v-.15a16.15,16.15,0,0,0,5.9-1Z"/><path class="cls-1" d="M136.07,113.83c0,.62.38,1.27,1.88,1.27v.15h-7.88v-.15c1.5,0,1.88-.65,1.88-1.27V105c0-.9-.43-1.32-1.85-1.32v-.15a15.18,15.18,0,0,0,6-1Zm6.75-8.63a2.67,2.67,0,0,1-2.57,2.85,1.71,1.71,0,0,1-1.43-.55,1.82,1.82,0,0,0,1-1.7,1.33,1.33,0,0,0-1.4-1.35,1.72,1.72,0,0,0-1.5,1v-.2a3.46,3.46,0,0,1,3.25-2.7A2.54,2.54,0,0,1,142.82,105.2Z"/><path class="cls-1" d="M143.9,112.3c0-2.17,2-3.4,4.8-3.4h2.7v.15h-.75a2.48,2.48,0,0,0-2.65,2.73c0,1.37.4,2.42,1.57,2.42a2.75,2.75,0,0,0,1.83-.87v.15a5.32,5.32,0,0,1-4,2C145.3,115.5,143.87,114.3,143.9,112.3Zm1-7.07c0-1.28,1.15-2.58,4.55-2.73v.15a1.83,1.83,0,0,0-1.6,1.83c0,.9.62,1.45,1.62,1.52a2.8,2.8,0,0,1-2.4,1.2A2,2,0,0,1,144.9,105.23Zm7.25,7.45V105c0-1.23-.48-2.2-1.7-2.38v-.15c4.15.15,5.8,1.73,5.8,5v6.08c0,.72.25,1,.7,1s.8-.37,1.19-1.12h.15a3.12,3.12,0,0,1-3.24,2C153.05,115.5,152.15,114.8,152.15,112.68Z"/><path class="cls-1" d="M159.07,115.1c1.5,0,1.88-.65,1.88-1.27V105c0-.9-.43-1.32-1.85-1.32v-.15a15.18,15.18,0,0,0,6-1v11.33c0,.62.38,1.27,1.88,1.27v.15h-7.88Zm8.8,0c1.48,0,1.85-.65,1.85-1.27V106c0-1.4-.72-2.13-2-2.13a2.67,2.67,0,0,0-1.9.78v-.15a5.1,5.1,0,0,1,4.15-2c2.24,0,3.84,1,3.84,3.53v7.8c0,.62.38,1.27,1.88,1.27v.15h-7.85Z"/><path class="cls-1" d="M183.47,102.65c-1.47.18-2.12,1.43-2.12,6.2,0,3.6,1.82,5.58,4.05,5.58A5.4,5.4,0,0,0,189,113.1v.15a7,7,0,0,1-5.29,2.25,6.54,6.54,0,0,1-6.68-6.55,6.41,6.41,0,0,1,6.4-6.45Zm5.55,2.68a2.33,2.33,0,0,1-2.5,2.4,2.12,2.12,0,0,1-2.17-1.58,2.14,2.14,0,0,0,1.2-1.82,1.48,1.48,0,0,0-1.08-1.65v-.18C187.75,102.5,189,103.9,189,105.33Z"/><path class="cls-1" d="M190.9,109A6.19,6.19,0,0,1,197,102.5v.15c-1.47.18-1.87,1.43-1.87,6.2,0,3.6,1.6,5.58,3.82,5.58a5.4,5.4,0,0,0,3.65-1.33v.15a7,7,0,0,1-5.3,2.25A6.33,6.33,0,0,1,190.9,109Zm5.62-1c2.2,0,3.13-.7,3.13-2.8,0-1.2-.5-2.3-1.63-2.45v-.15c3.3,0,4.9,2.35,4.9,4.25a6.9,6.9,0,0,1-.13,1.3h-6.27Z"/><path class="cls-1" d="M26.4,129.08l-5.63,13.17h-.35l-7.15-15.57a2.71,2.71,0,0,0-2.65-1.28v-.15h6.73l5.2,11.3,3.85-8Zm-10.28,13v.15h-5.5v-.15a2.2,2.2,0,0,0,2.45-2.1l.2-10.8.2.45.2,10.35A2.18,2.18,0,0,0,16.12,142.1Zm15.52-15.42v14.15c0,.67.38,1.27,1.88,1.27v.15h-8v-.15c1.5,0,1.88-.6,1.88-1.27V125.25h6.12v.15C32,125.4,31.64,126,31.64,126.68Z"/><path class="cls-1" d="M41.42,129.65c-1.47.18-2,1.43-2,6.3,0,4.7.5,6.25,2,6.4v.15A6.37,6.37,0,0,1,35.2,136a6.27,6.27,0,0,1,6.22-6.45Zm7.2,6.3a6.36,6.36,0,0,1-6.2,6.55v-.15c1.48-.15,1.95-1.72,1.95-6.4,0-4.9-.5-6.15-1.95-6.3v-.15A6.23,6.23,0,0,1,48.62,136Z"/><path class="cls-1" d="M60,140.33v.15a5.22,5.22,0,0,1-4.27,2c-2.25,0-3.85-1-3.85-3.52v-8.2h-1.3l.27-.38h1v-2.7a6.31,6.31,0,0,0,4.1-1.4v4.1h3.37l-.27.38H56v8.27c0,1.25.47,2.55,1.65,2.55A3.68,3.68,0,0,0,60,140.33Z"/><path class="cls-1" d="M67.12,129.65c-1.47.18-2,1.43-2,6.3,0,4.7.5,6.25,2,6.4v.15A6.37,6.37,0,0,1,60.9,136a6.27,6.27,0,0,1,6.22-6.45Zm7.2,6.3a6.36,6.36,0,0,1-6.2,6.55v-.15c1.48-.15,1.95-1.72,1.95-6.4,0-4.9-.5-6.15-1.95-6.3v-.15A6.23,6.23,0,0,1,74.32,136Z"/><path class="cls-1" d="M82,140.83c0,.62.38,1.27,1.88,1.27v.15H76v-.15c1.5,0,1.88-.65,1.88-1.27V132c0-.9-.43-1.32-1.85-1.32v-.15a15.18,15.18,0,0,0,6-1Zm6.75-8.63a2.67,2.67,0,0,1-2.57,2.85,1.71,1.71,0,0,1-1.43-.55,1.82,1.82,0,0,0,1-1.7,1.33,1.33,0,0,0-1.4-1.35,1.72,1.72,0,0,0-1.5,1v-.2a3.46,3.46,0,0,1,3.25-2.7A2.54,2.54,0,0,1,88.72,132.2Z"/><path class="cls-1" d="M96.47,129.65c-1.47.18-2.12,1.43-2.12,6.2,0,3.6,1.82,5.58,4.05,5.58a5.44,5.44,0,0,0,3.65-1.33v.15a7,7,0,0,1-5.3,2.25A6.54,6.54,0,0,1,90.07,136a6.41,6.41,0,0,1,6.4-6.45Zm5.55,2.68a2.33,2.33,0,0,1-2.5,2.4,2.12,2.12,0,0,1-2.17-1.58,2.14,2.14,0,0,0,1.2-1.82,1.48,1.48,0,0,0-1.08-1.65v-.18C100.75,129.5,102,130.9,102,132.33Z"/><path class="cls-1" d="M104.1,130.78a1.35,1.35,0,0,0-1.38-.88v-.15h7v.15c-.87,0-1.22.6-.8,1.48l3.28,6.82-2.15,4.05h-.15ZM103,146.27a2.61,2.61,0,0,1,2.2-2.34,1.75,1.75,0,0,0-.1.62,1.46,1.46,0,0,0,1.47,1.67c.88,0,1.58-.92,2.53-2.52h.17c-1.37,2.57-2.32,4.8-4.07,4.8A2.08,2.08,0,0,1,103,146.27Zm10.25-10.52a6.89,6.89,0,0,0,.7-3.22,2.42,2.42,0,0,0-2.55-2.63v-.15h6.22v.15c-.82,0-1.15.33-1.62,1.18l-2.6,4.9Z"/><path class="cls-1" d="M124.15,129.65c-1.48.18-2.13,1.43-2.13,6.2,0,3.6,1.83,5.58,4,5.58a5.4,5.4,0,0,0,3.65-1.33v.15a7,7,0,0,1-5.3,2.25,6.53,6.53,0,0,1-6.67-6.55,6.4,6.4,0,0,1,6.4-6.45Zm5.55,2.68a2.33,2.33,0,0,1-2.5,2.4,2.13,2.13,0,0,1-2.18-1.58,2.14,2.14,0,0,0,1.2-1.82,1.48,1.48,0,0,0-1.07-1.65v-.18C128.42,129.5,129.7,130.9,129.7,132.33Z"/><path class="cls-1" d="M131,124.85a15.37,15.37,0,0,0,6-1v17c0,.62.38,1.27,1.88,1.27v.15H131v-.15c1.5,0,1.88-.65,1.88-1.27v-14.5c0-.9-.43-1.33-1.85-1.33Z"/><path class="cls-1" d="M140.35,136a6.19,6.19,0,0,1,6.12-6.45v.15c-1.47.18-1.87,1.43-1.87,6.2,0,3.6,1.6,5.58,3.82,5.58a5.4,5.4,0,0,0,3.65-1.33v.15a7,7,0,0,1-5.3,2.25A6.33,6.33,0,0,1,140.35,136Zm5.62-1c2.2,0,3.13-.7,3.13-2.8,0-1.2-.5-2.3-1.63-2.45v-.15c3.3,0,4.9,2.35,4.9,4.25a7.85,7.85,0,0,1-.12,1.3H146Z"/></svg>