<svg id="Layer_1" data-name="Layer 1" xmlns="http://www.w3.org/2000/svg" viewBox="0 0 300 150"><defs><style>.cls-1{fill:#263845;}</style></defs><title>Artboard 3</title><path class="cls-1" d="M13.27,75.2l.2.3.2,10.5a2.18,2.18,0,0,0,2.45,2.1v.15H10.63V88.1A2.19,2.19,0,0,0,13.07,86Zm13.25,13H23.75L13.3,72.68a2.72,2.72,0,0,0-2.65-1.28v-.15h6.67L26.52,85Zm-.05-5.75-.2-.27L26,73.5a2.18,2.18,0,0,0-2.45-2.1v-.15H29v.15a2.18,2.18,0,0,0-2.45,2.1Z"/><path class="cls-1" d="M40.2,71.25H45l-9.92,17H30.3Zm-9.18,0h7.55l-.07.15a7.71,7.71,0,0,0-7.28,5.88H31ZM36.75,88.1a8.54,8.54,0,0,0,7.8-6.67h.2v6.82H36.67Z"/><path class="cls-1" d="M52,72.05c0,1.45-1.55,3.38-4.05,4.4l-.08-.22a3.49,3.49,0,0,0,1.43-2.43,1.58,1.58,0,0,0-1.7-1.65,2.31,2.31,0,0,1,2.37-2.27A2,2,0,0,1,52,72.05Z"/><path class="cls-1" d="M57.07,85.28a1.28,1.28,0,0,0-1.4,1.25c0,.72.5,1.64,2.23,1.82v.15c-3.33-.12-5.15-1-5.15-2.47a2,2,0,0,1,2.12-1.85A2.53,2.53,0,0,1,57.07,85.28Zm.83-9.63c-.93.18-1.83.65-1.8,1.68.07,2.9,8.17,3.37,8.17,7.35,0,2.42-2,3.7-5.27,3.82v-.15c1-.18,2.22-.55,2.22-1.85,0-2.6-8.2-3.55-8.2-7.35,0-2.2,2.08-3.52,4.88-3.65Zm5.9,2.43A1.64,1.64,0,0,1,62,79.63a2.16,2.16,0,0,1-2.13-1.2A1.12,1.12,0,0,0,61,77.25c0-.75-1-1.47-2-1.6V75.5C61.82,75.65,63.8,76.68,63.8,78.08Z"/><path class="cls-1" d="M72.15,70.85a15.37,15.37,0,0,0,6-1v17c0,.62.38,1.27,1.88,1.27v.15H72.12V88.1c1.5,0,1.88-.65,1.88-1.27V72.33c0-.9-.43-1.33-1.85-1.33Z"/><path class="cls-1" d="M81.5,82a6.19,6.19,0,0,1,6.12-6.45v.15c-1.47.18-1.87,1.43-1.87,6.2,0,3.6,1.6,5.57,3.82,5.57a5.39,5.39,0,0,0,3.65-1.32v.15a7,7,0,0,1-5.3,2.25A6.33,6.33,0,0,1,81.5,82Zm5.62-1c2.2,0,3.13-.7,3.13-2.8,0-1.2-.5-2.3-1.63-2.45V75.5c3.3,0,4.9,2.35,4.9,4.25a7.85,7.85,0,0,1-.12,1.3H87.12Z"/><path class="cls-1" d="M95.32,85.3c0-2.17,2-3.4,4.8-3.4h2.7v.15h-.75a2.48,2.48,0,0,0-2.65,2.73c0,1.37.4,2.42,1.58,2.42a2.72,2.72,0,0,0,1.82-.87v.15a5.34,5.34,0,0,1-4,2C96.72,88.5,95.3,87.3,95.32,85.3Zm1-7.07c0-1.28,1.15-2.58,4.55-2.73v.15a1.83,1.83,0,0,0-1.6,1.83c0,.9.63,1.45,1.63,1.52a2.82,2.82,0,0,1-2.4,1.2A2,2,0,0,1,96.32,78.23Zm7.25,7.45V78c0-1.23-.47-2.2-1.7-2.38V75.5c4.15.15,5.8,1.73,5.8,5v6.08c0,.72.25,1,.7,1s.8-.37,1.2-1.12h.15a3.12,3.12,0,0,1-3.25,2C104.47,88.5,103.57,87.8,103.57,85.68Z"/><path class="cls-1" d="M119.82,77.5v.2a2.76,2.76,0,0,0-2.07-.92c-1.25,0-2.45.57-2.45,5.1s1.27,5.32,2.45,5.32a3.44,3.44,0,0,0,2.07-.87v.15a4.62,4.62,0,0,1-3.62,2c-2.38,0-5.15-1.4-5.15-6.62,0-5,2.72-6.38,5.15-6.38A4.61,4.61,0,0,1,119.82,77.5Zm4.88,9.08c0,.72.22,1,.67,1s.8-.37,1.2-1.12h.15a3.12,3.12,0,0,1-3.25,2c-2,0-2.9-.7-2.9-2.82V72.33c0-.9-.42-1.33-1.85-1.33v-.15a16.5,16.5,0,0,0,6-1Z"/><path class="cls-1" d="M127.77,76.45a15.42,15.42,0,0,0,6-1V86.83c0,.62.37,1.27,1.87,1.27v.15h-7.87V88.1c1.5,0,1.87-.65,1.87-1.27v-8.9c0-.9-.42-1.33-1.85-1.33Zm1.28-4.7A2.58,2.58,0,1,1,131.6,74,2.27,2.27,0,0,1,129.05,71.75Z"/><path class="cls-1" d="M136.67,88.1c1.5,0,1.88-.65,1.88-1.27V78c0-.9-.43-1.32-1.85-1.32v-.15a15.18,15.18,0,0,0,6-1V86.83c0,.62.38,1.27,1.88,1.27v.15h-7.88Zm8.8,0c1.48,0,1.85-.65,1.85-1.27V79c0-1.4-.72-2.13-2-2.13a2.67,2.67,0,0,0-1.9.78v-.15a5.1,5.1,0,0,1,4.15-2c2.25,0,3.84,1,3.84,3.53v7.8c0,.62.38,1.27,1.88,1.27v.15h-7.85Z"/><path class="cls-1" d="M154.8,80c0-3.25,3-4.48,5.6-4.53v.15c-1.08.1-1.58,1.4-1.58,4.3s.5,4.25,1.58,4.35v.15C157.87,84.45,154.8,83.25,154.8,80Zm6.65,14.32c2.5-.3,3.3-1.65,3.3-2.55,0-3.47-9.75-.38-9.75-4.85a3,3,0,0,1,1.67-2.55l.08.13a.58.58,0,0,0-.23.47c0,2.8,11.4-.45,11.4,5,0,2.57-2.22,4.25-6.47,4.5ZM155,92.25c0-1.48,1.82-1.93,3.8-1.93a2.11,2.11,0,0,0-1.08,1.78c0,1.15,1.3,2,2.73,2.25v.15C157.77,94.45,155,93.9,155,92.25Zm6.45-8c1.22-.1,1.72-1.32,1.72-4.35s-.52-4.2-1.72-4.3V75.5c2.65,0,5.72,1.28,5.72,4.53s-3.07,4.42-5.72,4.42Zm1.35-9.25c.42-1.27,1.57-3,3.3-3,1.32,0,2.12.7,2.12,1.9a2,2,0,0,1-2,2c0-1.05-.55-1.67-1.35-1.67a2.72,2.72,0,0,0-1.93.9Z"/><path class="cls-1" d="M10.65,103.45a15.37,15.37,0,0,0,6-1v11.35c0,.62.38,1.27,1.88,1.27v.15H10.63v-.15c1.49,0,1.87-.65,1.87-1.27v-8.9c0-.9-.42-1.33-1.85-1.33Zm1.27-4.7a2.27,2.27,0,0,1,2.55-2.17,2.21,2.21,0,1,1,0,4.37A2.27,2.27,0,0,1,11.92,98.75Z"/><path class="cls-1" d="M19.55,115.1c1.5,0,1.87-.65,1.87-1.27V105c0-.9-.42-1.32-1.84-1.32v-.15a15.22,15.22,0,0,0,6-1v11.33c0,.62.37,1.27,1.87,1.27v.15H19.55Zm8.8,0c1.47,0,1.85-.65,1.85-1.27V106a1.86,1.86,0,0,0-2-2.13,2.67,2.67,0,0,0-1.9.78v-.15a5.12,5.12,0,0,1,4.15-2c2.25,0,3.85,1,3.85,3.53v7.8c0,.62.38,1.27,1.88,1.27v.15H28.35Z"/><path class="cls-1" d="M41.9,112.28a1.27,1.27,0,0,0-1.4,1.25c0,.72.5,1.64,2.22,1.82v.15c-3.32-.12-5.15-1-5.15-2.47a2,2,0,0,1,2.13-1.85A2.54,2.54,0,0,1,41.9,112.28Zm.82-9.63c-.92.18-1.82.65-1.8,1.68.08,2.9,8.18,3.37,8.18,7.35,0,2.42-2.05,3.7-5.28,3.82v-.15c1-.18,2.23-.55,2.23-1.85,0-2.6-8.2-3.55-8.2-7.35,0-2.2,2.07-3.52,4.87-3.65Zm5.9,2.43a1.64,1.64,0,0,1-1.85,1.55,2.13,2.13,0,0,1-2.12-1.2,1.11,1.11,0,0,0,1.12-1.18c0-.75-1-1.47-2-1.6v-.15C46.65,102.65,48.62,103.68,48.62,105.08Z"/><path class="cls-1" d="M56.47,112c0,1.4.48,2.12,1.73,2.12a2.21,2.21,0,0,0,1.72-.77v.15a4.16,4.16,0,0,1-3.87,2c-2.25,0-3.7-1-3.7-3.52v-7c0-.9-.43-1.32-1.85-1.32v-.15a15.18,15.18,0,0,0,6-1Zm8.33,1.6c0,.72.22,1,.67,1s.8-.37,1.2-1.12h.15c-.4,1.37-1.75,2-3.4,2s-2.75-1-2.75-2.45V105c0-.9-.42-1.32-1.77-1.32v-.15a16.15,16.15,0,0,0,5.9-1Z"/><path class="cls-1" d="M73.82,113.83c0,.62.38,1.27,1.88,1.27v.15H67.82v-.15c1.5,0,1.88-.65,1.88-1.27V105c0-.9-.43-1.32-1.85-1.32v-.15a15.18,15.18,0,0,0,6-1Zm6.75-8.63A2.67,2.67,0,0,1,78,108.05a1.71,1.71,0,0,1-1.43-.55,1.82,1.82,0,0,0,1-1.7,1.33,1.33,0,0,0-1.4-1.35,1.72,1.72,0,0,0-1.5,1v-.2a3.46,3.46,0,0,1,3.25-2.7A2.54,2.54,0,0,1,80.57,105.2Z"/><path class="cls-1" d="M81.65,112.3c0-2.17,2-3.4,4.8-3.4h2.7v.15H88.4a2.48,2.48,0,0,0-2.65,2.73c0,1.37.4,2.42,1.57,2.42a2.75,2.75,0,0,0,1.83-.87v.15a5.36,5.36,0,0,1-4,2C83.05,115.5,81.62,114.3,81.65,112.3Zm1-7.07c0-1.28,1.15-2.58,4.55-2.73v.15a1.83,1.83,0,0,0-1.6,1.83c0,.9.62,1.45,1.62,1.52a2.8,2.8,0,0,1-2.4,1.2A2,2,0,0,1,82.65,105.23Zm7.25,7.45V105c0-1.23-.48-2.2-1.7-2.38v-.15c4.15.15,5.8,1.73,5.8,5v6.08c0,.72.25,1,.7,1s.8-.37,1.2-1.12h.15a3.12,3.12,0,0,1-3.25,2C90.8,115.5,89.9,114.8,89.9,112.68Z"/><path class="cls-1" d="M96.82,115.1c1.5,0,1.88-.65,1.88-1.27V105c0-.9-.43-1.32-1.85-1.32v-.15a15.18,15.18,0,0,0,6-1v11.33c0,.62.38,1.27,1.88,1.27v.15H96.82Zm8.8,0c1.48,0,1.85-.65,1.85-1.27V106c0-1.4-.72-2.13-2-2.13a2.67,2.67,0,0,0-1.9.78v-.15a5.1,5.1,0,0,1,4.15-2c2.25,0,3.85,1,3.85,3.53v7.8c0,.62.37,1.27,1.87,1.27v.15h-7.85Z"/><path class="cls-1" d="M121.22,102.65c-1.47.18-2.12,1.43-2.12,6.2,0,3.6,1.82,5.57,4.05,5.57a5.43,5.43,0,0,0,3.65-1.32v.15a7,7,0,0,1-5.3,2.25,6.54,6.54,0,0,1-6.68-6.55,6.41,6.41,0,0,1,6.4-6.45Zm5.55,2.68a2.33,2.33,0,0,1-2.5,2.4,2.12,2.12,0,0,1-2.17-1.58,2.14,2.14,0,0,0,1.2-1.82,1.48,1.48,0,0,0-1.08-1.65v-.18C125.5,102.5,126.77,103.9,126.77,105.33Z"/><path class="cls-1" d="M128.65,109a6.19,6.19,0,0,1,6.12-6.45v.15c-1.47.18-1.87,1.43-1.87,6.2,0,3.6,1.6,5.57,3.82,5.57a5.39,5.39,0,0,0,3.65-1.32v.15a7,7,0,0,1-5.3,2.25A6.33,6.33,0,0,1,128.65,109Zm5.62-1c2.2,0,3.13-.7,3.13-2.8,0-1.2-.5-2.3-1.63-2.45v-.15c3.3,0,4.9,2.35,4.9,4.25a7.85,7.85,0,0,1-.12,1.3h-6.28Z"/><path class="cls-1" d="M15.4,139.28a1.27,1.27,0,0,0-1.4,1.25c0,.72.5,1.64,2.22,1.82v.15c-3.32-.12-5.14-1-5.14-2.47a2,2,0,0,1,2.12-1.85A2.54,2.54,0,0,1,15.4,139.28Zm.82-9.63c-.92.18-1.82.65-1.8,1.68.08,2.9,8.18,3.37,8.18,7.35,0,2.42-2.05,3.7-5.28,3.82v-.15c1.05-.18,2.23-.55,2.23-1.85,0-2.6-8.2-3.55-8.2-7.35,0-2.2,2.07-3.52,4.87-3.65Zm5.9,2.43a1.64,1.64,0,0,1-1.85,1.55,2.13,2.13,0,0,1-2.12-1.2,1.11,1.11,0,0,0,1.12-1.18c0-.75-.95-1.47-1.95-1.6v-.15C20.15,129.65,22.12,130.68,22.12,132.08Z"/><path class="cls-1" d="M30,146.05c0,.9.43,1.32,1.85,1.32v.15a16.28,16.28,0,0,0-6,1V131.93c0-.9-.43-1.33-1.85-1.33v-.15a16.48,16.48,0,0,0,6-1Zm9.53-10.17c0,5.22-2.75,6.62-5.13,6.62a4.7,4.7,0,0,1-3.65-2v-.15a3.54,3.54,0,0,0,2.1.87c1.18,0,2.43-.82,2.43-5.32s-1.18-5.1-2.43-5.1a2.84,2.84,0,0,0-2.1.92v-.2a4.68,4.68,0,0,1,3.65-2C36.85,129.5,39.55,130.9,39.55,135.88Z"/><path class="cls-1" d="M41.75,136a6.19,6.19,0,0,1,6.12-6.45v.15c-1.47.18-1.87,1.43-1.87,6.2,0,3.6,1.6,5.57,3.82,5.57a5.39,5.39,0,0,0,3.65-1.32v.15a7,7,0,0,1-5.3,2.25A6.33,6.33,0,0,1,41.75,136Zm5.62-1c2.2,0,3.13-.7,3.13-2.8,0-1.2-.5-2.3-1.63-2.45v-.15c3.3,0,4.9,2.35,4.9,4.25a7.85,7.85,0,0,1-.12,1.3H47.37Z"/><path class="cls-1" d="M62.22,129.65c-1.47.18-2.12,1.43-2.12,6.2,0,3.6,1.82,5.57,4.05,5.57a5.43,5.43,0,0,0,3.65-1.32v.15a7,7,0,0,1-5.3,2.25A6.54,6.54,0,0,1,55.82,136a6.41,6.41,0,0,1,6.4-6.45Zm5.55,2.68a2.33,2.33,0,0,1-2.5,2.4,2.12,2.12,0,0,1-2.17-1.58,2.14,2.14,0,0,0,1.2-1.82,1.48,1.48,0,0,0-1.08-1.65v-.18C66.5,129.5,67.77,130.9,67.77,132.33Z"/><path class="cls-1" d="M69.25,130.45a15.37,15.37,0,0,0,6-1v11.35c0,.62.38,1.27,1.88,1.27v.15H69.22v-.15c1.5,0,1.88-.65,1.88-1.27v-8.9c0-.9-.43-1.33-1.85-1.33Zm1.27-4.7a2.58,2.58,0,1,1,2.55,2.2A2.27,2.27,0,0,1,70.52,125.75Z"/><path class="cls-1" d="M78.35,139.3c0-2.17,2-3.4,4.8-3.4h2.7v.15H85.1a2.48,2.48,0,0,0-2.65,2.73c0,1.37.4,2.42,1.57,2.42a2.75,2.75,0,0,0,1.83-.87v.15a5.36,5.36,0,0,1-4,2C79.75,142.5,78.32,141.3,78.35,139.3Zm1-7.07c0-1.28,1.15-2.58,4.55-2.73v.15a1.83,1.83,0,0,0-1.6,1.83c0,.9.62,1.45,1.62,1.52a2.8,2.8,0,0,1-2.4,1.2A2,2,0,0,1,79.35,132.23Zm7.25,7.45V132c0-1.23-.48-2.2-1.7-2.38v-.15c4.15.15,5.8,1.73,5.8,5v6.08c0,.72.25,1,.7,1s.8-.37,1.2-1.12h.15a3.12,3.12,0,0,1-3.25,2C87.5,142.5,86.6,141.8,86.6,139.68Z"/><path class="cls-1" d="M93.4,124.85a15.37,15.37,0,0,0,6-1v17c0,.62.38,1.27,1.88,1.27v.15H93.37v-.15c1.5,0,1.88-.65,1.88-1.27v-14.5c0-.9-.43-1.33-1.85-1.33Z"/><path class="cls-1" d="M102.35,130.45a15.37,15.37,0,0,0,6-1v11.35c0,.62.38,1.27,1.88,1.27v.15h-7.88v-.15c1.5,0,1.88-.65,1.88-1.27v-8.9c0-.9-.43-1.33-1.85-1.33Zm1.27-4.7a2.58,2.58,0,1,1,2.55,2.2A2.27,2.27,0,0,1,103.62,125.75Z"/><path class="cls-1" d="M116.05,139.28a1.27,1.27,0,0,0-1.4,1.25c0,.72.5,1.64,2.22,1.82v.15c-3.32-.12-5.15-1-5.15-2.47a2,2,0,0,1,2.13-1.85A2.54,2.54,0,0,1,116.05,139.28Zm.82-9.63c-.92.18-1.82.65-1.8,1.68.08,2.9,8.17,3.37,8.17,7.35,0,2.42-2,3.7-5.27,3.82v-.15c1-.18,2.23-.55,2.23-1.85,0-2.6-8.2-3.55-8.2-7.35,0-2.2,2.07-3.52,4.87-3.65Zm5.9,2.43a1.64,1.64,0,0,1-1.85,1.55,2.13,2.13,0,0,1-2.12-1.2,1.11,1.11,0,0,0,1.12-1.18c0-.75-1-1.47-2-1.6v-.15C120.8,129.65,122.77,130.68,122.77,132.08Z"/><path class="cls-1" d="M134.6,140.33v.15a5.23,5.23,0,0,1-4.28,2c-2.25,0-3.85-1-3.85-3.52v-8.2h-1.3l.28-.38h1v-2.7a6.27,6.27,0,0,0,4.1-1.4v4.1H134l-.28.38h-3.1v8.27c0,1.25.48,2.55,1.65,2.55A3.72,3.72,0,0,0,134.6,140.33Z"/></svg>