<svg id="Layer_1" data-name="Layer 1" xmlns="http://www.w3.org/2000/svg" xmlns:xlink="http://www.w3.org/1999/xlink" viewBox="0 0 300 150"><defs><style>.cls-1{fill:none;}.cls-2{clip-path:url(#clip-path);}.cls-3{fill:#ffac00;}.cls-4{fill:#fff;}</style><clipPath id="clip-path"><rect class="cls-1" width="300" height="150"/></clipPath></defs><title>Artboard 1 copy</title><g class="cls-2"><path class="cls-3" d="M14,64H103a8,8,0,0,0,7.09-4.31l10.51-20.26a8,8,0,0,0,0-7.36L110.12,11.77A8,8,0,0,0,103,7.46H14a4.85,4.85,0,0,0-4.85,4.85v46.8A4.85,4.85,0,0,0,14,64Z"/><path class="cls-4" d="M51.24,28.75l.2-.28c.14-.2.29-.21.52-.08a2.23,2.23,0,0,0,1.29.46c.59,0,.94-.29.94-.72,0-1.21-3-1-3-2.94a1.93,1.93,0,0,1,2.14-1.84,3,3,0,0,1,1.64.48.36.36,0,0,1,.11.51l-.16.3c-.13.26-.32.22-.51.12a2.1,2.1,0,0,0-1.1-.35c-.59,0-1,.29-1,.72,0,1.19,3,.89,3,2.91a1.9,1.9,0,0,1-2.1,1.88,3.41,3.41,0,0,1-2-.65A.33.33,0,0,1,51.24,28.75Z"/><path class="cls-4" d="M57.91,24.45H56.2a.34.34,0,0,1-.38-.37v-.25a.34.34,0,0,1,.38-.37h4.56a.33.33,0,0,1,.37.37v.25a.33.33,0,0,1-.37.37H59.05v5a.33.33,0,0,1-.37.38h-.41c-.24,0-.36-.13-.36-.38Z"/><path class="cls-4" d="M62.64,23.76a.4.4,0,0,1,.42-.3h.57a.4.4,0,0,1,.42.3l2,5.62c.09.26,0,.43-.31.43h-.41a.41.41,0,0,1-.42-.3l-.45-1.33H62.23l-.44,1.32a.4.4,0,0,1-.42.31H61c-.28,0-.4-.17-.31-.43Zm1.53,3.48-.57-1.7c-.1-.36-.25-1-.25-1h0s-.15.62-.25,1l-.58,1.7Z"/><path class="cls-4" d="M66.84,23.83a.33.33,0,0,1,.37-.37h1.72a2.8,2.8,0,0,1,1.2.17,1.76,1.76,0,0,1,1.07,1.73,1.85,1.85,0,0,1-1.06,1.74v0a1.94,1.94,0,0,1,.21.33l1.05,1.91c.15.26,0,.45-.26.45h-.49a.46.46,0,0,1-.44-.26L69.1,27.44H68v2a.34.34,0,0,1-.37.38h-.41a.34.34,0,0,1-.37-.38ZM69,26.44a.94.94,0,0,0,1-1,.86.86,0,0,0-.5-.87,1.64,1.64,0,0,0-.69-.11H68v2Z"/><path class="cls-4" d="M51.66,31.59a.2.2,0,0,1,.22-.22h.18a.2.2,0,0,1,.22.22v5.85a.2.2,0,0,1-.22.22h-.18a.2.2,0,0,1-.22-.22Z"/><path class="cls-4" d="M53.77,33.38a.2.2,0,0,1,.22-.22h.16a.2.2,0,0,1,.22.22v.52a1.29,1.29,0,0,1,0,.32h0a2,2,0,0,1,1.82-1.17c1.11,0,1.51.64,1.51,1.75v2.64a.2.2,0,0,1-.23.22h-.17a.19.19,0,0,1-.21-.22V35c0-.71-.12-1.33-1-1.33a1.74,1.74,0,0,0-1.71,1.83v2a.2.2,0,0,1-.22.22H54a.2.2,0,0,1-.22-.22Z"/><path class="cls-4" d="M58.64,36.94l.08-.08a.19.19,0,0,1,.3,0,2,2,0,0,0,1.19.41c.5,0,.91-.25.91-.72,0-1-2.4-.71-2.4-2.2,0-.83.7-1.26,1.53-1.26a2,2,0,0,1,1.23.37.18.18,0,0,1,.06.29l-.06.1a.19.19,0,0,1-.3.07,1.68,1.68,0,0,0-1-.29c-.47,0-.89.2-.89.7,0,1,2.4.7,2.4,2.21a1.35,1.35,0,0,1-1.52,1.27,2.32,2.32,0,0,1-1.52-.52A.2.2,0,0,1,58.64,36.94Z"/><path class="cls-4" d="M62.63,33.38a.19.19,0,0,1,.21-.22H63a.2.2,0,0,1,.22.22v2.48c0,.71.11,1.34,1,1.34a1.75,1.75,0,0,0,1.66-1.88V33.38a.2.2,0,0,1,.23-.22h.17a.19.19,0,0,1,.21.22v4.06a.19.19,0,0,1-.21.22h-.16a.2.2,0,0,1-.22-.22v-.52a1.7,1.7,0,0,1,0-.32h0a2,2,0,0,1-1.77,1.17c-1.07,0-1.5-.57-1.5-1.75Z"/><path class="cls-4" d="M67.8,33.38a.2.2,0,0,1,.22-.22h.16a.2.2,0,0,1,.22.22V34a1.65,1.65,0,0,1,0,.36h0a1.62,1.62,0,0,1,1.45-1.22c.16,0,.23.07.23.22v.16c0,.14-.09.22-.25.22-1,0-1.4,1.09-1.4,2v1.69a.2.2,0,0,1-.22.22H68a.2.2,0,0,1-.22-.22Z"/><path class="cls-4" d="M73.16,34.9h.26v-.14c0-.87-.47-1.16-1.11-1.16a2.18,2.18,0,0,0-1.09.31.21.21,0,0,1-.3-.07l-.06-.09a.2.2,0,0,1,.07-.3,2.65,2.65,0,0,1,1.43-.4A1.53,1.53,0,0,1,74,34.78v2.66a.19.19,0,0,1-.21.22h-.15a.2.2,0,0,1-.22-.22v-.36a1.66,1.66,0,0,1,0-.34h0a1.67,1.67,0,0,1-1.52,1,1.39,1.39,0,0,1-1.52-1.32C70.42,35,72.29,34.9,73.16,34.9ZM72,37.26a1.57,1.57,0,0,0,1.38-1.68v-.22h-.25c-.71,0-2.13,0-2.13,1A.9.9,0,0,0,72,37.26Z"/><path class="cls-4" d="M75.31,33.38a.2.2,0,0,1,.22-.22h.16a.2.2,0,0,1,.22.22v.52a1.29,1.29,0,0,1,0,.32h0a2,2,0,0,1,1.81-1.17c1.12,0,1.52.64,1.52,1.75v2.64a.2.2,0,0,1-.23.22h-.17a.19.19,0,0,1-.21-.22V35c0-.71-.12-1.33-1-1.33a1.74,1.74,0,0,0-1.7,1.83v2a.2.2,0,0,1-.22.22h-.17a.2.2,0,0,1-.22-.22Z"/><path class="cls-4" d="M82.58,33.05a2.39,2.39,0,0,1,1.5.51.2.2,0,0,1,0,.31L84,34c-.08.13-.18.13-.3,0a1.88,1.88,0,0,0-1.14-.41,1.81,1.81,0,0,0,0,3.62,1.94,1.94,0,0,0,1.27-.47.19.19,0,0,1,.3,0l.06.09a.22.22,0,0,1-.06.31,2.54,2.54,0,0,1-1.6.57,2.36,2.36,0,1,1,0-4.72Z"/><path class="cls-4" d="M87,33.05c1.2,0,1.88.87,1.88,2.15a.22.22,0,0,1-.23.22H85.42a1.72,1.72,0,0,0,1.75,1.8,2,2,0,0,0,1.18-.41.18.18,0,0,1,.29,0l.07.11a.21.21,0,0,1-.06.3,2.56,2.56,0,0,1-1.5.5,2.28,2.28,0,0,1-2.35-2.36A2.2,2.2,0,0,1,87,33.05ZM88.28,35A1.3,1.3,0,0,0,87,33.55,1.54,1.54,0,0,0,85.45,35Z"/><path class="cls-4" d="M51.77,40.12a.36.36,0,0,1,.38-.36h.57a.41.41,0,0,1,.42.31l1.13,2.83c.15.38.33.93.33.93h0s.17-.55.32-.93l1.13-2.83a.42.42,0,0,1,.43-.31h.56a.35.35,0,0,1,.38.36l.46,5.61a.33.33,0,0,1-.36.39h-.4a.36.36,0,0,1-.39-.36l-.24-3.2c0-.42,0-1,0-1h0s-.2.62-.34,1l-.93,2.17a.39.39,0,0,1-.42.29h-.37a.4.4,0,0,1-.43-.29l-.91-2.17c-.15-.36-.35-1-.35-1h0s0,.57,0,1l-.24,3.2a.35.35,0,0,1-.39.36h-.4a.33.33,0,0,1-.36-.39Z"/><path class="cls-4" d="M61.22,41.44a2.39,2.39,0,1,1,0,4.78,2.39,2.39,0,1,1,0-4.78Zm0,3.82a1.43,1.43,0,1,0-1.35-1.43A1.37,1.37,0,0,0,61.22,45.26Z"/><path class="cls-4" d="M64.68,42.52h-.24a.33.33,0,0,1-.37-.38V42a.34.34,0,0,1,.37-.38h.26v-.93a.34.34,0,0,1,.38-.37h.36a.33.33,0,0,1,.37.37v.93h.67a.34.34,0,0,1,.37.38v.15a.34.34,0,0,1-.37.38h-.67v1.77a.75.75,0,0,0,.74.85c.27,0,.37.12.37.37v.27c0,.27-.15.38-.46.38a1.63,1.63,0,0,1-1.78-1.67Z"/><path class="cls-4" d="M69.75,41.44a2.39,2.39,0,1,1,0,4.78,2.39,2.39,0,1,1,0-4.78Zm0,3.82a1.43,1.43,0,1,0-1.35-1.43A1.37,1.37,0,0,0,69.75,45.26Z"/><path class="cls-4" d="M73.1,41.93a.33.33,0,0,1,.36-.38h.35a.34.34,0,0,1,.38.38v.43a1.65,1.65,0,0,1,0,.31h0a1.56,1.56,0,0,1,1.32-1.15c.26,0,.34.12.34.37v.35a.35.35,0,0,1-.38.38c-.83,0-1.23.82-1.23,1.65v1.47a.34.34,0,0,1-.37.38h-.4c-.24,0-.36-.13-.36-.38Z"/><path class="cls-4" d="M78.57,41.44a2.54,2.54,0,0,1,1.5.46c.19.13.19.31.07.51l-.12.18c-.13.21-.28.21-.5.1a1.55,1.55,0,0,0-.88-.28,1.36,1.36,0,0,0-1.39,1.41,1.39,1.39,0,0,0,1.42,1.44,1.78,1.78,0,0,0,1-.35c.23-.13.4-.1.51.11l.09.17a.34.34,0,0,1-.1.5,2.66,2.66,0,0,1-1.62.53,2.39,2.39,0,1,1,0-4.78Z"/><path class="cls-4" d="M81.25,47a.73.73,0,0,0,.33.08.85.85,0,0,0,.72-.6l.17-.41-1.74-4c-.11-.26,0-.44.29-.44h.48a.39.39,0,0,1,.42.31l.86,2.32c.08.24.17.62.17.62h0s.08-.36.15-.6l.81-2.34a.39.39,0,0,1,.42-.31h.45c.27,0,.39.17.3.43L83.22,46.8A1.71,1.71,0,0,1,81.58,48a1.8,1.8,0,0,1-.64-.13.32.32,0,0,1-.17-.48l.08-.2A.33.33,0,0,1,81.25,47Z"/><path class="cls-4" d="M87.83,41.44a2.51,2.51,0,0,1,1.49.46.34.34,0,0,1,.08.51l-.12.18c-.14.21-.29.21-.5.1a1.56,1.56,0,0,0-.89-.28,1.35,1.35,0,0,0-1.38,1.41,1.39,1.39,0,0,0,1.42,1.44,1.81,1.81,0,0,0,1-.35c.22-.13.39-.1.51.11l.09.17a.35.35,0,0,1-.1.5,2.68,2.68,0,0,1-1.62.53,2.39,2.39,0,1,1,0-4.78Z"/><path class="cls-4" d="M90.31,40.14a.34.34,0,0,1,.37-.38h.39a.34.34,0,0,1,.37.38V44.6c0,.45.18.53.35.55a.29.29,0,0,1,.28.32v.31a.34.34,0,0,1-.37.38c-.61,0-1.39-.16-1.39-1.47Z"/><path class="cls-4" d="M94.76,41.44a2,2,0,0,1,2,2.18.39.39,0,0,1-.39.38H93.61A1.31,1.31,0,0,0,95,45.26a1.81,1.81,0,0,0,1-.3c.22-.11.39-.08.5.13l.11.18a.34.34,0,0,1-.13.5,2.93,2.93,0,0,1-1.54.45,2.34,2.34,0,0,1-2.46-2.39A2.26,2.26,0,0,1,94.76,41.44Zm.9,1.87a.94.94,0,0,0-.93-1,1.12,1.12,0,0,0-1.1,1Z"/><path class="cls-4" d="M30.09,43.26a.59.59,0,0,1-.29-.07.64.64,0,0,1-.32-.76l6.63-20.38a1.38,1.38,0,0,1,1.34-1h0a1.39,1.39,0,0,1,1.35,1l1.34,4a.48.48,0,0,1-.91.3l-1.34-4a.45.45,0,0,0-.44-.32h0a.44.44,0,0,0-.43.32L31,40.78l8.44-11.55a2.63,2.63,0,0,1,2.12-1.07h5.62A1.42,1.42,0,0,1,48,30.72L42.9,34.45l-.06,0,2,6.11a1.41,1.41,0,0,1-2.17,1.58L38.21,39a1.42,1.42,0,0,1,0-2.29L41.94,34l.06,0,5.47-4a.45.45,0,0,0,.17-.51.44.44,0,0,0-.43-.31H41.59a1.67,1.67,0,0,0-1.35.68L30.59,43A.61.61,0,0,1,30.09,43.26ZM42,35.09l-3.25,2.36a.44.44,0,0,0-.19.36.44.44,0,0,0,.19.37l4.44,3.23a.43.43,0,0,0,.53,0,.44.44,0,0,0,.17-.51Z"/><path class="cls-4" d="M30.43,33.13a.49.49,0,0,1-.28-.09l-3.28-2.32a1.41,1.41,0,0,1,.83-2.56h4a.48.48,0,0,1,.48.48.49.49,0,0,1-.48.48h-4a.43.43,0,0,0-.43.31.43.43,0,0,0,.16.51l3.28,2.32a.49.49,0,0,1,.11.67A.47.47,0,0,1,30.43,33.13Z"/><path class="cls-4" d="M34.89,50a1.54,1.54,0,0,1-.77-.21l-8.37-4.75a.48.48,0,0,1-.25-.42V34.43A.49.49,0,0,1,26,34a.48.48,0,0,1,.48.48v9.94L34.6,49a.61.61,0,0,0,.61,0l5.94-3.72a.48.48,0,1,1,.51.81l-5.94,3.72A1.54,1.54,0,0,1,34.89,50Z"/></g></svg>