<?xml version="1.0" encoding="utf-8"?>
<!-- Generator: Adobe Illustrator 24.0.3, SVG Export Plug-In . SVG Version: 6.00 Build 0)  -->
<svg version="1.1" id="Layer_1" xmlns="http://www.w3.org/2000/svg" xmlns:xlink="http://www.w3.org/1999/xlink" x="0px" y="0px"
	 viewBox="0 0 320 600" style="enable-background:new 0 0 320 600;" xml:space="preserve">
<style type="text/css">
	.st0{clip-path:url(#SVGID_2_);}
	.st1{enable-background:new    ;}
	.st2{fill:#FFFFFF;}
</style>
<title>Artboard 1 copy 4</title>
<g>
	<defs>
		<rect id="SVGID_1_" y="0.5" width="320" height="600"/>
	</defs>
	<clipPath id="SVGID_2_">
		<use xlink:href="#SVGID_1_"  style="overflow:visible;"/>
	</clipPath>
	<g class="st0">
		<g class="st1">
			<path class="st2" d="M23.1,113.3c3.8,0,6.9-0.4,9.8-1.6v18.6c0,1,0.6,2.1,3.1,2.1v0.2H23v-0.2c2.5,0,3.1-1.1,3.1-2.1v-14.6
				c0-1.5-0.7-2.2-3-2.2V113.3z M25.2,105.6c0-2.1,1.7-3.6,4.2-3.6c2.5,0,4.2,1.4,4.2,3.6c0,2.2-1.7,3.6-4.2,3.6
				C26.9,109.2,25.2,107.8,25.2,105.6z"/>
			<path class="st2" d="M45.6,127.8c-1.4,0-2.3,0.8-2.3,2.1c0,1.2,0.8,2.7,3.7,3v0.2c-5.5-0.2-8.5-1.7-8.5-4.1c0-1.9,1.6-3,3.5-3
				C43.6,126,45,126.8,45.6,127.8z M46.9,112c-1.5,0.3-3,1.1-3,2.8c0.1,4.8,13.4,5.5,13.4,12.1c0,4-3.4,6.1-8.7,6.3v-0.2
				c1.7-0.3,3.7-0.9,3.7-3c0-4.3-13.5-5.8-13.5-12.1c0-3.6,3.4-5.8,8-6V112z M56.6,116c0,1.3-1,2.5-3,2.5c-1.7,0-3-0.7-3.5-2
				c1.2-0.1,1.9-0.9,1.8-1.9c0-1.2-1.6-2.4-3.2-2.6v-0.2C53.4,112,56.6,113.7,56.6,116z"/>
			<path class="st2" d="M71.3,122.4c0-6.9,5.3-10.6,10.1-10.6v0.2c-2.4,0.3-3.1,2.3-3.1,10.2c0,5.9,2.6,9.2,6.3,9.2
				c2.3,0,4.1-0.7,6-2.2v0.2c-2.1,2.7-6,3.7-8.7,3.7C76.6,133.1,71.3,129.3,71.3,122.4z M80.5,120.6c3.6,0,5.1-1.1,5.1-4.6
				c0-2-0.8-3.8-2.7-4v-0.2c5.4,0,8,3.9,8,7c0,0.7-0.1,1.5-0.2,2.1H80.5V120.6z"/>
			<path class="st2" d="M94,127.9c0-3.6,3.3-5.6,7.9-5.6h4.4v0.2h-1.2c-3,0-4.4,1.9-4.4,4.5c0,2.3,0.7,4,2.6,4c1.1,0,2.1-0.6,3-1.4
				v0.2c-1.4,1.6-3.5,3.3-6.5,3.3C96.3,133.1,94,131.1,94,127.9z M95.6,116.2c0-2.1,1.9-4.2,7.5-4.5v0.2c-1.6,0.2-2.6,1.6-2.6,3
				c0,1.5,1,2.4,2.7,2.5c-0.6,1.1-2.3,2-3.9,2C97,119.5,95.6,118,95.6,116.2z M107.5,128.5v-12.6c0-2-0.8-3.6-2.8-3.9v-0.2
				c6.8,0.2,9.5,2.8,9.5,8.2v10c0,1.2,0.4,1.7,1.1,1.7c0.6,0,1.3-0.6,2-1.8h0.2c-0.7,2.3-2.9,3.3-5.3,3.3
				C109,133.1,107.5,132,107.5,128.5z"/>
		</g>
		<g class="st1">
			<path class="st2" d="M126.8,127.8c-1.4,0-2.3,0.8-2.3,2.1c0,1.2,0.8,2.7,3.7,3v0.2c-5.5-0.2-8.5-1.7-8.5-4.1c0-1.9,1.6-3,3.5-3
				C124.8,126,126.2,126.8,126.8,127.8z M128.2,112c-1.5,0.3-3,1.1-3,2.8c0.1,4.8,13.4,5.5,13.4,12.1c0,4-3.4,6.1-8.7,6.3v-0.2
				c1.7-0.3,3.7-0.9,3.7-3c0-4.3-13.5-5.8-13.5-12.1c0-3.6,3.4-5.8,8-6V112z M137.8,116c0,1.3-1,2.5-3,2.5c-1.7,0-3-0.7-3.5-2
				c1.2-0.1,1.9-0.9,1.8-1.9c0-1.2-1.6-2.4-3.2-2.6v-0.2C134.6,112,137.8,113.7,137.8,116z"/>
		</g>
		<g class="st1">
			<path class="st2" d="M142.1,113.9c-0.4-0.9-1-1.4-2.3-1.4v-0.2h11.5v0.2c-1.4,0-2,1-1.3,2.4l5.4,11.2l-3.5,6.7h-0.2L142.1,113.9z
				 M140.3,139.3c0-1.8,1.4-3.2,3.6-3.9c-0.1,0.4-0.2,0.7-0.2,1c0,1.6,0.8,2.8,2.4,2.8c1.4,0,2.6-1.5,4.1-4.1h0.3
				c-2.3,4.2-3.8,7.9-6.7,7.9C141.6,143,140.3,141.4,140.3,139.3z M157.1,122c0.7-1.3,1.1-3.1,1.1-5.3c0-2.3-1.3-4.3-4.2-4.3v-0.2
				h10.2v0.2c-1.4,0-1.9,0.5-2.7,1.9l-4.3,8L157.1,122z"/>
		</g>
		<g class="st1">
			<path class="st2" d="M31.9,155.9l5.4,11.2l-3.5,6.7h-0.2l-9.5-18.8c-0.4-0.9-1-1.4-2.3-1.4v-0.2h11.5v0.2
				C31.8,153.5,31.2,154.5,31.9,155.9z M45.4,155.9l5.4,11.2l-3.5,6.7H47L40.5,161l-1.3,2.5l-0.2-0.4c0.7-1.4,0.9-3.4,0.3-4.6
				l-1.8-3.6c-0.4-0.9-1-1.4-2.3-1.4v-0.2h11.5v0.2C45.3,153.5,44.7,154.5,45.4,155.9z M59.7,153.2v0.2c-1.4,0-1.9,0.5-2.7,1.9
				l-4.3,8l-0.2-0.4c0.7-1.3,1.1-3.1,1.1-5.3c0-2.3-1.3-4.3-4.2-4.3v-0.2H59.7z"/>
			<path class="st2" d="M60,154.4c3.8,0,6.9-0.4,9.8-1.6v18.6c0,1,0.6,2.1,3.1,2.1v0.2H60v-0.2c2.5,0,3.1-1.1,3.1-2.1v-14.6
				c0-1.5-0.7-2.2-3-2.2V154.4z M62.1,146.7c0-2.1,1.7-3.6,4.2-3.6c2.5,0,4.2,1.4,4.2,3.6c0,2.2-1.7,3.6-4.2,3.6
				C63.9,150.3,62.1,148.8,62.1,146.7z"/>
			<path class="st2" d="M90.6,170.6v0.2c-1.3,1.9-3.9,3.3-7,3.3c-3.7,0-6.3-1.7-6.3-5.8v-13.5h-2.1l0.5-0.6h1.7v-4.4
				c2.5,0,5-0.8,6.7-2.3v6.7h5.5l-0.5,0.6H84v13.6c0,2.1,0.8,4.2,2.7,4.2C87.8,172.7,89.2,172,90.6,170.6z"/>
			<path class="st2" d="M101.2,171.4c0,1,0.6,2.1,3.1,2.1v0.2H91.3v-0.2c2.5,0,3.1-1.1,3.1-2.1v-23.8c0-1.5-0.7-2.2-3-2.2v-0.2
				c3.8,0,6.9-0.4,9.8-1.6V171.4z M115.6,158.6v12.8c0,1,0.6,2.1,3.1,2.1v0.2h-12.9v-0.2c2.4,0,3-1.1,3-2.1v-12.8
				c0-2.3-1.2-3.5-3.2-3.5c-1.1,0-2.1,0.4-3.1,1.3v-0.2c1.1-1.7,3.8-3.3,6.8-3.3C112.9,152.8,115.6,154.5,115.6,158.6z"/>
		</g>
		<g class="st1">
			<path class="st2" d="M141.7,173.9v0.2c-3.2-0.1-5.8-0.7-8-2l-1.4,2h-0.3v-10h0.3C133.8,168.8,136.7,172.2,141.7,173.9z
				 M153.8,165.8c0,5.3-3.9,8.2-10.3,8.4v-0.2c2.3-0.4,4.5-1.7,4.5-4.2c0-7.2-15.7-7.8-15.7-16.2c0-4.9,4-7.8,9.4-8.1v0.2
				c-1.9,0.3-3.6,1.5-3.6,3.8C138.1,156.6,153.8,157.4,153.8,165.8z M143.5,145.7v-0.2c3.1,0.1,5.5,0.8,7.4,2.2l1.5-2.2h0.3v9.2
				h-0.3C151.1,150.2,147.5,146.7,143.5,145.7z"/>
		</g>
		<g class="st1">
			<path class="st2" d="M172.5,170.6v0.2c-1.3,1.9-3.9,3.3-7,3.3c-3.7,0-6.3-1.7-6.3-5.8v-13.5h-2.1l0.5-0.6h1.7v-4.4
				c2.5,0,5-0.8,6.7-2.3v6.7h5.5l-0.5,0.6h-5.1v13.6c0,2.1,0.8,4.2,2.7,4.2C169.8,172.7,171.2,172,172.5,170.6z"/>
			<path class="st2" d="M173.8,168.9c0-3.6,3.3-5.6,7.9-5.6h4.4v0.2h-1.2c-3,0-4.4,1.9-4.4,4.5c0,2.3,0.7,4,2.6,4
				c1.1,0,2.1-0.6,3-1.4v0.2c-1.4,1.6-3.5,3.3-6.5,3.3C176.1,174.2,173.8,172.2,173.8,168.9z M175.5,157.3c0-2.1,1.9-4.2,7.5-4.5
				v0.2c-1.6,0.2-2.6,1.6-2.6,3c0,1.5,1,2.4,2.7,2.5c-0.6,1.1-2.3,2-3.9,2C176.8,160.5,175.5,159,175.5,157.3z M187.4,169.5V157
				c0-2-0.8-3.6-2.8-3.9v-0.2c6.8,0.2,9.5,2.8,9.5,8.2v10c0,1.2,0.4,1.7,1.2,1.7c0.6,0,1.3-0.6,2-1.8h0.2c-0.7,2.3-2.9,3.3-5.3,3.3
				C188.9,174.2,187.4,173,187.4,169.5z"/>
		</g>
		<g class="st1">
			<path class="st2" d="M208.6,171.4c0,1,0.6,2.1,3.1,2.1v0.2h-12.9v-0.2c2.5,0,3.1-1.1,3.1-2.1v-14.6c0-1.5-0.7-2.2-3-2.2v-0.2
				c3.8,0,6.9-0.4,9.8-1.6V171.4z M219.7,157.3c0,2.8-2,4.7-4.2,4.7c-1,0-1.8-0.2-2.3-0.9c0.8-0.4,1.6-1.3,1.6-2.8
				c0-1.2-0.9-2.2-2.3-2.2c-1.1,0-1.9,0.6-2.5,1.6v-0.3c0.8-2.6,2.8-4.4,5.3-4.4C218.2,152.8,219.7,154.8,219.7,157.3z"/>
		</g>
		<g class="st1">
			<path class="st2" d="M23.8,214.6c2.5,0,3.1-1,3.1-2.1v-23.2c0-1.1-0.6-2.1-3.1-2.1v-0.2h13.1v0.2c-2.5,0-3.1,1-3.1,2.1v23.2
				c0,1.1,0.6,2.1,3.1,2.1v0.2H23.8V214.6z"/>
			<path class="st2" d="M39.7,214.6c2.5,0,3.1-1.1,3.1-2.1v-14.6c0-1.5-0.7-2.2-3-2.2v-0.2c3.8,0,6.9-0.4,9.8-1.6v18.6
				c0,1,0.6,2.1,3.1,2.1v0.2H39.7V214.6z M54.1,214.6c2.4,0,3-1.1,3-2.1v-12.8c0-2.3-1.2-3.5-3.2-3.5c-1.1,0-2.1,0.4-3.1,1.3v-0.2
				c1.1-1.7,3.8-3.3,6.8-3.3c3.7,0,6.3,1.7,6.3,5.8v12.8c0,1,0.6,2.1,3.1,2.1v0.2H54.1V214.6z"/>
			<path class="st2" d="M76.4,209.9c-1.4,0-2.3,0.8-2.3,2.1c0,1.2,0.8,2.7,3.7,3v0.2c-5.5-0.2-8.5-1.7-8.5-4.1c0-1.9,1.6-3,3.5-3
				C74.4,208.1,75.8,208.9,76.4,209.9z M77.7,194.1c-1.5,0.3-3,1.1-3,2.8c0.1,4.8,13.4,5.5,13.4,12.1c0,4-3.4,6.1-8.7,6.3V215
				c1.7-0.3,3.7-0.9,3.7-3c0-4.3-13.5-5.8-13.5-12.1c0-3.6,3.4-5.8,8-6V194.1z M87.4,198.1c0,1.3-1,2.5-3,2.5c-1.7,0-3-0.7-3.5-2
				c1.2-0.1,1.9-0.9,1.8-1.9c0-1.2-1.6-2.4-3.2-2.6v-0.2C84.2,194.1,87.4,195.8,87.4,198.1z"/>
			<path class="st2" d="M100.3,209.4c0,2.3,0.8,3.5,2.8,3.5c1.1,0,1.9-0.3,2.8-1.3v0.2c-0.9,1.8-3,3.3-6.4,3.3
				c-3.7,0-6.1-1.7-6.1-5.8v-11.5c0-1.5-0.7-2.2-3-2.2v-0.2c3.8,0,6.9-0.4,9.8-1.6V209.4z M114,212.1c0,1.2,0.4,1.7,1.1,1.7
				c0.6,0,1.3-0.6,2-1.8h0.2c-0.7,2.3-2.9,3.3-5.6,3.3c-2.9,0-4.5-1.6-4.5-4v-13.3c0-1.5-0.7-2.2-2.9-2.2v-0.2
				c3.7,0,6.2-0.4,9.7-1.6V212.1z"/>
		</g>
		<g class="st1">
			<path class="st2" d="M128.8,212.5c0,1,0.6,2.1,3.1,2.1v0.2H119v-0.2c2.5,0,3.1-1.1,3.1-2.1v-14.6c0-1.5-0.7-2.2-3-2.2v-0.2
				c3.8,0,6.9-0.4,9.8-1.6V212.5z M139.9,198.3c0,2.8-2,4.7-4.2,4.7c-1,0-1.8-0.2-2.3-0.9c0.8-0.4,1.6-1.3,1.6-2.8
				c0-1.2-0.9-2.2-2.3-2.2c-1.1,0-1.9,0.6-2.5,1.6v-0.3c0.8-2.6,2.8-4.4,5.3-4.4C138.3,193.9,139.9,195.8,139.9,198.3z"/>
		</g>
		<g class="st1">
			<path class="st2" d="M141.7,210c0-3.6,3.3-5.6,7.9-5.6h4.4v0.2h-1.2c-3,0-4.4,1.9-4.4,4.5c0,2.3,0.7,4,2.6,4c1.1,0,2.1-0.6,3-1.4
				v0.2c-1.4,1.6-3.5,3.3-6.5,3.3C144,215.2,141.6,213.3,141.7,210z M143.3,198.4c0-2.1,1.9-4.2,7.5-4.5v0.2c-1.6,0.2-2.6,1.6-2.6,3
				c0,1.5,1,2.4,2.7,2.5c-0.6,1.1-2.3,2-3.9,2C144.6,201.6,143.3,200.1,143.3,198.4z M155.2,210.6V198c0-2-0.8-3.6-2.8-3.9v-0.2
				c6.8,0.2,9.5,2.8,9.5,8.2v10c0,1.2,0.4,1.7,1.1,1.7c0.6,0,1.3-0.6,2-1.8h0.2c-0.7,2.3-2.9,3.3-5.3,3.3
				C156.7,215.2,155.2,214.1,155.2,210.6z"/>
			<path class="st2" d="M166.6,214.6c2.5,0,3.1-1.1,3.1-2.1v-14.6c0-1.5-0.7-2.2-3-2.2v-0.2c3.8,0,6.9-0.4,9.8-1.6v18.6
				c0,1,0.6,2.1,3.1,2.1v0.2h-12.9V214.6z M181,214.6c2.4,0,3-1.1,3-2.1v-12.8c0-2.3-1.2-3.5-3.2-3.5c-1.1,0-2.1,0.4-3.1,1.3v-0.2
				c1.1-1.7,3.8-3.3,6.8-3.3c3.7,0,6.3,1.7,6.3,5.8v12.8c0,1,0.6,2.1,3.1,2.1v0.2H181V214.6z"/>
			<path class="st2" d="M206.7,194.1c-2.4,0.3-3.5,2.3-3.5,10.2c0,5.9,3,9.2,6.7,9.2c2.3,0,4.1-0.7,6-2.2v0.2
				c-2.1,2.7-6,3.7-8.7,3.7c-5.3,0-11-3.9-11-10.8s5.7-10.6,10.5-10.6V194.1z M215.8,198.5c0,2.2-1.5,3.9-4.1,3.9
				c-2,0-3.3-1.3-3.6-2.6c1.1-0.5,2-1.9,2-3c0-0.9-0.2-2.4-1.8-2.7v-0.3C213.7,193.9,215.8,196.2,215.8,198.5z"/>
			<path class="st2" d="M218.9,204.5c0-6.9,5.3-10.6,10.1-10.6v0.2c-2.4,0.3-3.1,2.3-3.1,10.2c0,5.9,2.6,9.2,6.3,9.2
				c2.3,0,4.1-0.7,6-2.2v0.2c-2.1,2.7-6,3.7-8.7,3.7C224.2,215.2,218.9,211.4,218.9,204.5z M228.1,202.7c3.6,0,5.1-1.1,5.1-4.6
				c0-2-0.8-3.8-2.7-4v-0.2c5.4,0,8,3.9,8,7c0,0.7-0.1,1.5-0.2,2.1h-10.3V202.7z"/>
		</g>
		<g class="st1">
			<path class="st2" d="M49,234.2l-9.2,21.6h-0.6l-11.7-25.6c-0.7-1.4-2.3-2.1-4.4-2.1V228h11l8.5,18.6l6.3-13.1V234.2z M32.1,255.6
				v0.2h-9v-0.2c2.7,0,4-1.7,4-3.4l0.3-17.7l0.3,0.7l0.3,17C28.1,254,29.4,255.6,32.1,255.6z M57.6,230.3v23.2
				c0,1.1,0.6,2.1,3.1,2.1v0.2H47.5v-0.2c2.5,0,3.1-1,3.1-2.1V228h10.1v0.2C58.2,228.2,57.6,229.2,57.6,230.3z"/>
		</g>
		<g class="st1">
			<path class="st2" d="M73.6,235.2c-2.4,0.3-3.2,2.3-3.2,10.3c0,7.7,0.8,10.3,3.2,10.5v0.2c-4.7,0-10.2-3.9-10.2-10.8
				s5.4-10.6,10.2-10.6V235.2z M85.5,245.5c0,6.9-5.5,10.8-10.2,10.8V256c2.4-0.2,3.2-2.8,3.2-10.5c0-8-0.8-10.1-3.2-10.3v-0.2
				C80,234.9,85.5,238.6,85.5,245.5z"/>
		</g>
		<g class="st1">
			<path class="st2" d="M104.1,252.7v0.2c-1.3,1.9-3.9,3.3-7,3.3c-3.7,0-6.3-1.7-6.3-5.8V237h-2.1l0.5-0.6h1.7V232
				c2.5,0,5-0.8,6.7-2.3v6.7h5.5l-0.5,0.6h-5.1v13.6c0,2.1,0.8,4.2,2.7,4.2C101.3,254.8,102.7,254.1,104.1,252.7z"/>
		</g>
		<g class="st1">
			<path class="st2" d="M115.8,235.2c-2.4,0.3-3.2,2.3-3.2,10.3c0,7.7,0.8,10.3,3.2,10.5v0.2c-4.7,0-10.2-3.9-10.2-10.8
				s5.4-10.6,10.2-10.6V235.2z M127.7,245.5c0,6.9-5.5,10.8-10.2,10.8V256c2.4-0.2,3.2-2.8,3.2-10.5c0-8-0.8-10.1-3.2-10.3v-0.2
				C122.2,234.9,127.7,238.6,127.7,245.5z"/>
		</g>
		<g class="st1">
			<path class="st2" d="M140.2,253.5c0,1,0.6,2.1,3.1,2.1v0.2h-12.9v-0.2c2.5,0,3.1-1.1,3.1-2.1V239c0-1.5-0.7-2.2-3-2.2v-0.2
				c3.8,0,6.9-0.4,9.8-1.6V253.5z M151.3,239.4c0,2.8-2,4.7-4.2,4.7c-1,0-1.8-0.2-2.3-0.9c0.8-0.4,1.6-1.3,1.6-2.8
				c0-1.2-0.9-2.2-2.3-2.2c-1.1,0-1.9,0.6-2.5,1.6v-0.3c0.8-2.6,2.8-4.4,5.3-4.4C149.8,234.9,151.3,236.9,151.3,239.4z"/>
		</g>
		<g class="st1">
			<path class="st2" d="M164,235.2c-2.4,0.3-3.5,2.3-3.5,10.2c0,5.9,3,9.2,6.7,9.2c2.3,0,4.1-0.7,6-2.2v0.2c-2.1,2.7-6,3.7-8.7,3.7
				c-5.3,0-11-3.9-11-10.8s5.7-10.6,10.5-10.6V235.2z M173.2,239.6c0,2.2-1.5,3.9-4.1,3.9c-2,0-3.3-1.3-3.6-2.6c1.1-0.5,2-1.9,2-3
				c0-0.9-0.2-2.4-1.8-2.7v-0.3C171.1,234.9,173.2,237.2,173.2,239.6z"/>
		</g>
		<g class="st1">
			<path class="st2" d="M176.6,237c-0.4-0.9-1-1.4-2.3-1.4v-0.2h11.5v0.2c-1.4,0-2,1-1.3,2.4l5.4,11.2l-3.5,6.7h-0.2L176.6,237z
				 M174.8,262.5c0-1.8,1.4-3.2,3.6-3.9c-0.1,0.4-0.2,0.7-0.2,1c0,1.6,0.8,2.8,2.4,2.8c1.4,0,2.6-1.5,4.1-4.1h0.3
				c-2.3,4.2-3.8,7.9-6.7,7.9C176.1,266.1,174.8,264.6,174.8,262.5z M191.6,245.2c0.7-1.3,1.1-3.1,1.1-5.3c0-2.3-1.3-4.3-4.2-4.3
				v-0.2h10.2v0.2c-1.4,0-1.9,0.5-2.7,1.9l-4.3,8L191.6,245.2z"/>
		</g>
		<g class="st1">
			<path class="st2" d="M209.5,235.2c-2.4,0.3-3.5,2.3-3.5,10.2c0,5.9,3,9.2,6.7,9.2c2.3,0,4.1-0.7,6-2.2v0.2
				c-2.1,2.7-6,3.7-8.7,3.7c-5.3,0-11-3.9-11-10.8s5.7-10.6,10.5-10.6V235.2z M218.6,239.6c0,2.2-1.5,3.9-4.1,3.9
				c-2,0-3.3-1.3-3.6-2.6c1.1-0.5,2-1.9,2-3c0-0.9-0.2-2.4-1.8-2.7v-0.3C216.5,234.9,218.6,237.2,218.6,239.6z"/>
			<path class="st2" d="M220.7,227.3c3.8,0,6.9-0.4,9.8-1.6v27.8c0,1,0.6,2.1,3.1,2.1v0.2h-12.9v-0.2c2.5,0,3.1-1.1,3.1-2.1v-23.8
				c0-1.5-0.7-2.2-3-2.2V227.3z"/>
			<path class="st2" d="M236.1,245.5c0-6.9,5.3-10.6,10.1-10.6v0.2c-2.4,0.3-3.1,2.3-3.1,10.2c0,5.9,2.6,9.2,6.3,9.2
				c2.3,0,4.1-0.7,6-2.2v0.2c-2.1,2.7-6,3.7-8.7,3.7C241.4,256.3,236.1,252.4,236.1,245.5z M245.3,243.8c3.6,0,5.1-1.1,5.1-4.6
				c0-2-0.8-3.8-2.7-4v-0.2c5.4,0,8,3.9,8,7c0,0.7-0.1,1.5-0.2,2.1h-10.3V243.8z"/>
		</g>
	</g>
</g>
</svg>
