<svg id="Layer_1" data-name="Layer 1" xmlns="http://www.w3.org/2000/svg" viewBox="0 0 320 600"><defs><style>.cls-1{fill:#fff;}.cls-2{fill:none;}</style></defs><title>Artboard 1 copy 3</title><path class="cls-1" d="M52.79,124.32l.14.28a9.61,9.61,0,0,1-8.44,4.24c-5.7,0-12.81-4.06-12.81-12.22,0-8.85,6.93-12.15,12-12.28v.21c-2.45.52-5.11,2.83-5.11,11.83s3.61,11.06,7.56,11.06A8.58,8.58,0,0,0,52.79,124.32Zm.28-20v8.5h-.28c-1.37-4.65-4-7.35-7.39-8.29v-.21c3.05.13,4.9.66,6.34,1.61l1-1.61Z"/><path class="cls-1" d="M63.63,126.49c0,.88.53,1.79,2.63,1.79v.21h-11v-.21c2.1,0,2.63-.91,2.63-1.79v-20.3c0-1.26-.6-1.85-2.59-1.85v-.21a21.46,21.46,0,0,0,8.36-1.37Zm12.26-10.92v10.92c0,.88.52,1.79,2.62,1.79v.21h-11v-.21c2.07,0,2.59-.91,2.59-1.79V115.57c0-2-1-3-2.76-3a3.71,3.71,0,0,0-2.66,1.08v-.21a7.14,7.14,0,0,1,5.81-2.83C73.65,110.64,75.89,112.11,75.89,115.57Z"/><path class="cls-1" d="M80.05,124.36c0-3,2.8-4.76,6.72-4.76h3.78v.21h-1a3.46,3.46,0,0,0-3.71,3.81c0,1.93.56,3.4,2.2,3.4a3.86,3.86,0,0,0,2.56-1.23V126A7.44,7.44,0,0,1,85,128.84C82,128.84,80,127.16,80.05,124.36Zm1.4-9.91c0-1.78,1.61-3.6,6.37-3.81v.21a2.55,2.55,0,0,0-2.24,2.55c0,1.26.87,2,2.28,2.14a4,4,0,0,1-3.37,1.68A2.81,2.81,0,0,1,81.45,114.45ZM91.6,124.88V114.17c0-1.71-.66-3.08-2.38-3.32v-.21c5.81.21,8.12,2.41,8.12,7v8.5c0,1,.35,1.44,1,1.44s1.12-.53,1.68-1.58h.21c-.56,1.93-2.45,2.84-4.55,2.84C92.86,128.84,91.6,127.86,91.6,124.88Z"/><path class="cls-1" d="M101.29,128.28c2.1,0,2.63-.91,2.63-1.79V114.07c0-1.26-.6-1.86-2.59-1.86V112a21.49,21.49,0,0,0,8.36-1.36v15.85c0,.88.53,1.79,2.63,1.79v.21h-11Zm12.32,0c2.07,0,2.59-.91,2.59-1.79V115.57c0-2-1-3-2.76-3a3.72,3.72,0,0,0-2.66,1.08v-.21a7.14,7.14,0,0,1,5.81-2.83c3.15,0,5.39,1.47,5.39,4.93v10.92c0,.88.53,1.79,2.63,1.79v.21h-11Z"/><path class="cls-1" d="M126.67,117c0-4.55,4.27-6.26,7.84-6.33v.21c-1.51.14-2.21,2-2.21,6,0,4.23.7,5.95,2.21,6.09v.21C131,123.17,126.67,121.49,126.67,117ZM136,137c3.5-.42,4.62-2.31,4.62-3.57,0-4.87-13.65-.53-13.65-6.79,0-1.44.73-2.56,2.34-3.57l.11.17a.82.82,0,0,0-.32.67c0,3.92,16-.63,16,7,0,3.6-3.12,5.95-9.07,6.3Zm-9-2.94c0-2.07,2.55-2.7,5.32-2.7a3,3,0,0,0-1.51,2.49c0,1.61,1.82,2.83,3.82,3.15v.21C130.83,137.17,127,136.4,127,134.09ZM136,123c1.71-.14,2.42-1.86,2.42-6.09,0-4.06-.74-5.88-2.42-6v-.21c3.71.07,8,1.78,8,6.33s-4.31,6.2-8,6.2ZM137.87,110c.59-1.79,2.21-4.2,4.62-4.2,1.86,0,3,1,3,2.66a2.8,2.8,0,0,1-2.84,2.73c0-1.47-.77-2.35-1.89-2.35a3.8,3.8,0,0,0-2.7,1.26Z"/><path class="cls-1" d="M146.48,112a21.3,21.3,0,0,0,8.36-1.37v15.89c0,.88.53,1.79,2.63,1.79v.21h-11v-.21c2.1,0,2.63-.91,2.63-1.79V114c0-1.26-.6-1.85-2.59-1.85Zm1.78-6.58c0-1.83,1.47-3,3.57-3s3.57,1.22,3.57,3-1.47,3.08-3.57,3.08S148.26,107.24,148.26,105.39Z"/><path class="cls-1" d="M158.94,128.28c2.1,0,2.62-.91,2.62-1.79V114.07c0-1.26-.59-1.86-2.59-1.86V112a21.54,21.54,0,0,0,8.37-1.36v15.85c0,.88.52,1.79,2.62,1.79v.21h-11Zm12.32,0c2.06,0,2.59-.91,2.59-1.79V115.57c0-2-1-3-2.77-3a3.72,3.72,0,0,0-2.66,1.08v-.21a7.15,7.15,0,0,1,5.81-2.83c3.15,0,5.39,1.47,5.39,4.93v10.92c0,.88.53,1.79,2.63,1.79v.21h-11Z"/><path class="cls-1" d="M184.31,117c0-4.55,4.27-6.26,7.84-6.33v.21c-1.5.14-2.2,2-2.2,6,0,4.23.7,5.95,2.2,6.09v.21C188.62,123.17,184.31,121.49,184.31,117ZM193.62,137c3.5-.42,4.62-2.31,4.62-3.57,0-4.87-13.65-.53-13.65-6.79,0-1.44.74-2.56,2.35-3.57l.1.17a.81.81,0,0,0-.31.67c0,3.92,16-.63,16,7,0,3.6-3.12,5.95-9.07,6.3Zm-9-2.94c0-2.07,2.56-2.7,5.32-2.7a3,3,0,0,0-1.5,2.49c0,1.61,1.82,2.83,3.81,3.15v.21C188.48,137.17,184.59,136.4,184.59,134.09Zm9-11.13c1.72-.14,2.42-1.86,2.42-6.09,0-4.06-.74-5.88-2.42-6v-.21c3.71.07,8,1.78,8,6.33s-4.31,6.2-8,6.2ZM195.51,110c.6-1.79,2.21-4.2,4.62-4.2,1.86,0,3,1,3,2.66a2.79,2.79,0,0,1-2.83,2.73c0-1.47-.78-2.35-1.9-2.35a3.78,3.78,0,0,0-2.69,1.26Z"/><path class="cls-1" d="M39.24,165.49c0,.88.53,1.79,2.63,1.79v.21h-11v-.21c2.1,0,2.62-.91,2.62-1.79V153.07c0-1.26-.59-1.86-2.59-1.86V151a21.51,21.51,0,0,0,8.37-1.36Zm11.62-10.92v10.92c0,.88.49,1.79,2.59,1.79v.21h-11v-.21c2.07,0,2.63-.91,2.63-1.79V154.57c0-2-.77-3-2.45-3a3.07,3.07,0,0,0-2.31,1.05v-.21a5.65,5.65,0,0,1,5.11-2.8C48.76,149.64,50.86,151.11,50.86,154.57Zm11.59,0v10.92c0,.88.52,1.79,2.62,1.79v.21h-11v-.21c2.06,0,2.62-.91,2.62-1.79V154.57c0-2-.77-3-2.45-3a3.08,3.08,0,0,0-2.31,1.05v-.21a5.67,5.67,0,0,1,5.11-2.8C60.35,149.64,62.45,151.11,62.45,154.57Z"/><path class="cls-1" d="M75.68,149.85c-2.07.24-2.77,2-2.77,8.82,0,6.58.7,8.75,2.77,9v.21A8.92,8.92,0,0,1,67,158.67a8.77,8.77,0,0,1,8.72-9Zm10.08,8.82a8.92,8.92,0,0,1-8.68,9.17v-.21c2.06-.21,2.73-2.42,2.73-9,0-6.86-.7-8.61-2.73-8.82v-.21A8.72,8.72,0,0,1,85.76,158.67Z"/><path class="cls-1" d="M101.65,164.79V165a7.34,7.34,0,0,1-6,2.84c-3.15,0-5.39-1.44-5.39-4.94V151.42H88.45l.38-.52h1.44v-3.78a8.89,8.89,0,0,0,5.74-2v5.74h4.72l-.38.52H96V163c0,1.75.67,3.57,2.31,3.57A5.17,5.17,0,0,0,101.65,164.79Z"/><path class="cls-1" d="M111.65,149.85c-2.06.24-2.76,2-2.76,8.82,0,6.58.7,8.75,2.76,9v.21a8.92,8.92,0,0,1-8.71-9.17,8.77,8.77,0,0,1,8.71-9Zm10.09,8.82a8.92,8.92,0,0,1-8.68,9.17v-.21c2.06-.21,2.72-2.42,2.72-9,0-6.86-.69-8.61-2.72-8.82v-.21A8.72,8.72,0,0,1,121.74,158.67Z"/><path class="cls-1" d="M132.44,165.49c0,.88.53,1.79,2.63,1.79v.21H124v-.21c2.1,0,2.63-.91,2.63-1.79V153.07c0-1.26-.6-1.86-2.59-1.86V151a21.49,21.49,0,0,0,8.36-1.36Zm9.46-12.07a3.75,3.75,0,0,1-3.61,4,2.39,2.39,0,0,1-2-.77,2.56,2.56,0,0,0,1.37-2.38,1.86,1.86,0,0,0-2-1.89,2.39,2.39,0,0,0-2.1,1.33v-.28a4.84,4.84,0,0,1,4.55-3.78A3.55,3.55,0,0,1,141.9,153.42Z"/><path class="cls-1" d="M152.74,149.85c-2.06.24-3,2-3,8.68,0,5,2.55,7.8,5.67,7.8a7.64,7.64,0,0,0,5.11-1.85v.21c-1.82,2.31-5.15,3.15-7.42,3.15a9.15,9.15,0,0,1-9.35-9.17,9,9,0,0,1,9-9Zm7.78,3.74A3.25,3.25,0,0,1,157,157a3,3,0,0,1-3.05-2.2,3,3,0,0,0,1.68-2.56,2.08,2.08,0,0,0-1.51-2.31v-.24C158.73,149.64,160.52,151.6,160.52,153.59Z"/><path class="cls-1" d="M163.42,151.42a1.9,1.9,0,0,0-1.93-1.22V150h9.8v.21c-1.22,0-1.71.84-1.12,2.06l4.59,9.56-3,5.67h-.21Zm-1.54,21.7c0-1.5,1.19-2.76,3.08-3.29a2.6,2.6,0,0,0-.14.88,2,2,0,0,0,2.06,2.34c1.23,0,2.21-1.29,3.54-3.53h.24c-1.92,3.6-3.25,6.72-5.7,6.72A2.91,2.91,0,0,1,161.88,173.12Zm14.35-14.73a9.68,9.68,0,0,0,1-4.52,3.38,3.38,0,0,0-3.57-3.67V150h8.72v.21c-1.16,0-1.62.45-2.28,1.64l-3.64,6.86Z"/><path class="cls-1" d="M191.49,149.85c-2.07.24-3,2-3,8.68,0,5,2.56,7.8,5.67,7.8a7.62,7.62,0,0,0,5.11-1.85v.21c-1.82,2.31-5.14,3.15-7.42,3.15a9.15,9.15,0,0,1-9.34-9.17,9,9,0,0,1,9-9Zm7.77,3.74a3.25,3.25,0,0,1-3.5,3.36,3,3,0,0,1-3-2.2,3,3,0,0,0,1.68-2.56,2.08,2.08,0,0,0-1.5-2.31v-.24C197.47,149.64,199.26,151.6,199.26,153.59Z"/><path class="cls-1" d="M201.08,143.13a21.49,21.49,0,0,0,8.36-1.37v23.73c0,.88.53,1.79,2.63,1.79v.21H201v-.21c2.1,0,2.63-.91,2.63-1.79v-20.3c0-1.26-.6-1.85-2.59-1.85Z"/><path class="cls-1" d="M214.17,158.67a8.66,8.66,0,0,1,8.57-9v.21c-2.06.24-2.62,2-2.62,8.68,0,5,2.24,7.8,5.35,7.8a7.62,7.62,0,0,0,5.11-1.85v.21c-1.82,2.31-5.14,3.15-7.42,3.15A8.87,8.87,0,0,1,214.17,158.67ZM222,157.2c3.08,0,4.38-1,4.38-3.92,0-1.68-.7-3.22-2.28-3.43v-.21c4.62,0,6.86,3.29,6.86,6a10.9,10.9,0,0,1-.17,1.82H222Z"/><path class="cls-1" d="M30.91,190a21.36,21.36,0,0,0,8.37-1.37v15.89c0,.88.52,1.79,2.62,1.79v.21h-11v-.21c2.1,0,2.63-.91,2.63-1.79V192c0-1.26-.6-1.85-2.59-1.85Zm1.78-6.58c0-1.83,1.48-3,3.58-3s3.57,1.22,3.57,3-1.48,3.08-3.57,3.08S32.69,185.24,32.69,183.39Z"/><path class="cls-1" d="M43.37,206.28c2.1,0,2.62-.91,2.62-1.79V192.07c0-1.26-.59-1.86-2.59-1.86V190a21.54,21.54,0,0,0,8.37-1.36v15.85c0,.88.52,1.79,2.63,1.79v.21h-11Zm12.32,0c2.07,0,2.59-.91,2.59-1.79V193.57c0-2-1-3-2.76-3a3.69,3.69,0,0,0-2.66,1.08v-.21a7.14,7.14,0,0,1,5.81-2.83c3.15,0,5.39,1.47,5.39,4.93v10.92c0,.88.52,1.79,2.62,1.79v.21h-11Z"/><path class="cls-1" d="M74.66,202.32a1.8,1.8,0,0,0-2,1.75c0,1,.7,2.31,3.12,2.56v.21c-4.66-.18-7.21-1.44-7.21-3.47a2.72,2.72,0,0,1,3-2.59A3.58,3.58,0,0,1,74.66,202.32Zm1.16-13.47c-1.3.24-2.56.91-2.53,2.34.11,4.06,11.45,4.73,11.45,10.29,0,3.4-2.87,5.18-7.38,5.36v-.21c1.47-.25,3.11-.77,3.11-2.59,0-3.64-11.48-5-11.48-10.29,0-3.08,2.9-4.94,6.83-5.11Zm8.26,3.39c0,1.09-.84,2.17-2.59,2.17a3,3,0,0,1-3-1.68,1.56,1.56,0,0,0,1.58-1.64c0-1.05-1.33-2.07-2.73-2.24v-.21C81.31,188.85,84.08,190.28,84.08,192.24Z"/><path class="cls-1" d="M95.06,201.9c0,2,.67,3,2.42,3a3.1,3.1,0,0,0,2.42-1.09V204a5.85,5.85,0,0,1-5.43,2.84c-3.15,0-5.18-1.47-5.18-4.94v-9.83c0-1.26-.6-1.86-2.59-1.86V190a21.49,21.49,0,0,0,8.36-1.36Zm11.66,2.24c0,1,.32,1.44,1,1.44s1.12-.53,1.68-1.58h.21c-.56,1.93-2.45,2.84-4.76,2.84s-3.86-1.4-3.86-3.43V192.07c0-1.26-.59-1.86-2.48-1.86V190a22.86,22.86,0,0,0,8.26-1.36Z"/><path class="cls-1" d="M119.35,204.49c0,.88.53,1.79,2.63,1.79v.21H111v-.21c2.1,0,2.63-.91,2.63-1.79V192.07c0-1.26-.6-1.86-2.59-1.86V190a21.49,21.49,0,0,0,8.36-1.36Zm9.46-12.07a3.75,3.75,0,0,1-3.61,4,2.39,2.39,0,0,1-2-.77,2.56,2.56,0,0,0,1.37-2.38,1.86,1.86,0,0,0-2-1.89,2.39,2.39,0,0,0-2.1,1.33v-.28a4.84,4.84,0,0,1,4.55-3.78A3.55,3.55,0,0,1,128.81,192.42Z"/><path class="cls-1" d="M130.31,202.36c0-3.05,2.8-4.76,6.72-4.76h3.78v.21h-1.05a3.46,3.46,0,0,0-3.71,3.81c0,1.93.56,3.4,2.2,3.4a3.86,3.86,0,0,0,2.56-1.23V204a7.46,7.46,0,0,1-5.57,2.84C132.27,206.84,130.27,205.16,130.31,202.36Zm1.4-9.91c0-1.78,1.61-3.6,6.37-3.81v.21a2.55,2.55,0,0,0-2.24,2.55c0,1.26.87,2,2.27,2.14a3.93,3.93,0,0,1-3.36,1.68A2.81,2.81,0,0,1,131.71,192.45Zm10.15,10.43V192.17c0-1.71-.67-3.08-2.38-3.32v-.21c5.81.21,8.12,2.41,8.12,7v8.5c0,1,.35,1.44,1,1.44s1.12-.53,1.68-1.58h.21c-.56,1.93-2.45,2.84-4.55,2.84C143.12,206.84,141.86,205.86,141.86,202.88Z"/><path class="cls-1" d="M151.55,206.28c2.1,0,2.63-.91,2.63-1.79V192.07c0-1.26-.6-1.86-2.59-1.86V190a21.49,21.49,0,0,0,8.36-1.36v15.85c0,.88.53,1.79,2.63,1.79v.21h-11Zm12.32,0c2.07,0,2.59-.91,2.59-1.79V193.57c0-2-1-3-2.76-3a3.72,3.72,0,0,0-2.66,1.08v-.21a7.14,7.14,0,0,1,5.81-2.83c3.15,0,5.39,1.47,5.39,4.93v10.92c0,.88.53,1.79,2.62,1.79v.21h-11Z"/><path class="cls-1" d="M185.71,188.85c-2.06.24-3,2-3,8.68,0,5,2.55,7.8,5.67,7.8a7.66,7.66,0,0,0,5.11-1.85v.21c-1.82,2.31-5.15,3.15-7.42,3.15a9.15,9.15,0,0,1-9.35-9.17,9,9,0,0,1,9-9Zm7.77,3.74A3.25,3.25,0,0,1,190,196a3,3,0,0,1-3-2.2,3,3,0,0,0,1.68-2.56,2.08,2.08,0,0,0-1.51-2.31v-.24C191.7,188.64,193.48,190.6,193.48,192.59Z"/><path class="cls-1" d="M196.11,197.67a8.66,8.66,0,0,1,8.57-9v.21c-2.06.24-2.62,2-2.62,8.68,0,5,2.24,7.8,5.35,7.8a7.66,7.66,0,0,0,5.12-1.85v.21c-1.83,2.31-5.15,3.15-7.43,3.15A8.87,8.87,0,0,1,196.11,197.67ZM204,196.2c3.08,0,4.38-1,4.38-3.92,0-1.68-.7-3.22-2.28-3.43v-.21c4.62,0,6.86,3.29,6.86,6a10.9,10.9,0,0,1-.17,1.82H204Z"/><rect class="cls-2" width="320" height="600"/></svg>