<?xml version="1.0" encoding="utf-8"?>
<!-- Generator: Adobe Illustrator 24.0.3, SVG Export Plug-In . SVG Version: 6.00 Build 0)  -->
<svg version="1.1" id="Layer_1" xmlns="http://www.w3.org/2000/svg" xmlns:xlink="http://www.w3.org/1999/xlink" x="0px" y="0px"
	 viewBox="0 0 320 600" style="enable-background:new 0 0 320 600;" xml:space="preserve">
<style type="text/css">
	.st0{clip-path:url(#SVGID_2_);}
	.st1{enable-background:new    ;}
	.st2{fill:#263845;}
</style>
<title>Artboard 1 copy 2</title>
<g>
	<defs>
		<rect id="SVGID_1_" x="0.9" y="0.5" width="320" height="600"/>
	</defs>
	<clipPath id="SVGID_2_">
		<use xlink:href="#SVGID_1_"  style="overflow:visible;"/>
	</clipPath>
	<g class="st0">
		<g class="st1">
			<path class="st2" d="M28.3,152.3l0.3,0.5l0.3,17.2c0,1.8,1.3,3.4,4,3.4v0.2h-9v-0.2c2.7,0,4-1.7,4-3.4L28.3,152.3z M50.1,173.8
				h-4.6l-17.2-25.6c-1.1-1.6-2.3-2.1-4.4-2.1v-0.2h11l15.1,22.6V173.8z M50,164.3l-0.3-0.5l-0.5-14.3c0-1.8-1.3-3.4-4-3.4v-0.2h9
				v0.2c-2.7,0-4,1.7-4,3.4L50,164.3z"/>
			<path class="st2" d="M72.5,145.8h7.8l-16.3,27.9h-7.8L72.5,145.8z M57.4,145.8h12.4l-0.1,0.2c-6.1,0.3-10.9,4.5-11.9,9.6h-0.3
				V145.8z M66.8,173.5c6.2-0.5,11.1-4.4,12.8-11H80v11.2H66.7L66.8,173.5z"/>
		</g>
		<g class="st1">
			<path class="st2" d="M91.8,147.2c0,2.4-2.5,5.5-6.7,7.2L85,154c1.2-0.9,2.3-2.5,2.3-4c0-1.8-1.3-2.7-2.8-2.7
				c0.3-2.4,1.8-3.7,3.9-3.7C90.2,143.6,91.8,144.9,91.8,147.2z"/>
		</g>
		<g class="st1">
			<path class="st2" d="M100.2,168.9c-1.4,0-2.3,0.8-2.3,2.1c0,1.2,0.8,2.7,3.7,3v0.2c-5.5-0.2-8.5-1.7-8.5-4.1c0-1.9,1.6-3,3.5-3
				C98.2,167.1,99.6,167.8,100.2,168.9z M101.6,153.1c-1.5,0.3-3,1.1-3,2.8c0.1,4.8,13.4,5.5,13.4,12.1c0,4-3.4,6.1-8.7,6.3v-0.2
				c1.7-0.3,3.7-0.9,3.7-3c0-4.3-13.5-5.8-13.5-12.1c0-3.6,3.4-5.8,8-6V153.1z M111.3,157c0,1.3-1,2.5-3,2.5c-1.7,0-3-0.7-3.5-2
				c1.2-0.1,1.9-0.9,1.8-1.9c0-1.2-1.6-2.4-3.2-2.6v-0.2C108,153.1,111.3,154.7,111.3,157z"/>
			<path class="st2" d="M125,145.2c3.8,0,6.9-0.4,9.8-1.6v27.8c0,1,0.6,2.1,3.1,2.1v0.2h-12.9v-0.2c2.5,0,3.1-1.1,3.1-2.1v-23.8
				c0-1.5-0.7-2.2-3-2.2V145.2z"/>
			<path class="st2" d="M140.3,163.4c0-6.9,5.3-10.6,10.1-10.6v0.2c-2.4,0.3-3.1,2.3-3.1,10.2c0,5.9,2.6,9.2,6.3,9.2
				c2.3,0,4.1-0.7,6-2.2v0.2c-2.1,2.7-6,3.7-8.7,3.7C145.6,174.2,140.3,170.3,140.3,163.4z M149.6,161.7c3.6,0,5.1-1.1,5.1-4.6
				c0-2-0.8-3.8-2.7-4v-0.2c5.4,0,8,3.9,8,7c0,0.7-0.1,1.5-0.2,2.1h-10.3V161.7z"/>
			<path class="st2" d="M163,168.9c0-3.6,3.3-5.6,7.9-5.6h4.4v0.2h-1.2c-3,0-4.4,1.9-4.4,4.5c0,2.3,0.7,4,2.6,4c1.2,0,2.1-0.6,3-1.4
				v0.2c-1.4,1.6-3.5,3.3-6.5,3.3C165.3,174.2,163,172.2,163,168.9z M164.7,157.3c0-2.1,1.9-4.2,7.5-4.5v0.2c-1.6,0.2-2.6,1.6-2.6,3
				c0,1.5,1,2.4,2.7,2.5c-0.6,1.1-2.3,2-3.9,2C166,160.5,164.7,159,164.7,157.3z M176.6,169.5V157c0-2-0.8-3.6-2.8-3.9v-0.2
				c6.8,0.2,9.5,2.8,9.5,8.2v10c0,1.2,0.4,1.7,1.1,1.7c0.6,0,1.3-0.6,2-1.8h0.2c-0.7,2.3-2.9,3.3-5.3,3.3
				C178.1,174.2,176.6,173,176.6,169.5z"/>
			<path class="st2" d="M203.3,156.1v0.3c-0.9-1-2.1-1.5-3.4-1.5c-2.1,0-4,0.9-4,8.4c0,7.4,2.1,8.7,4,8.7c1.3,0,2.4-0.7,3.4-1.4v0.2
				c-1,1.7-3.6,3.3-6,3.3c-3.9,0-8.5-2.3-8.5-10.9c0-8.2,4.5-10.5,8.5-10.5C199.7,152.8,202.3,154.4,203.3,156.1z M211.3,171
				c0,1.2,0.4,1.7,1.1,1.7c0.6,0,1.3-0.6,2-1.8h0.2c-0.7,2.3-2.9,3.3-5.3,3.3c-3.3,0-4.8-1.1-4.8-4.6v-21.9c0-1.5-0.7-2.2-3-2.2
				v-0.2c3.8,0,6.4-0.4,9.8-1.6V171z"/>
			<path class="st2" d="M216.3,154.4c3.8,0,6.9-0.4,9.8-1.6v18.6c0,1,0.6,2.1,3.1,2.1v0.2h-12.9v-0.2c2.5,0,3.1-1.1,3.1-2.1v-14.6
				c0-1.5-0.7-2.2-3-2.2V154.4z M218.4,146.7c0-2.1,1.7-3.6,4.2-3.6s4.2,1.4,4.2,3.6c0,2.2-1.7,3.6-4.2,3.6S218.4,148.8,218.4,146.7
				z"/>
			<path class="st2" d="M231,173.5c2.5,0,3.1-1.1,3.1-2.1v-14.6c0-1.5-0.7-2.2-3-2.2v-0.2c3.8,0,6.9-0.4,9.8-1.6v18.6
				c0,1,0.6,2.1,3.1,2.1v0.2H231V173.5z M245.4,173.5c2.4,0,3-1.1,3-2.1v-12.8c0-2.3-1.2-3.5-3.2-3.5c-1.2,0-2.1,0.4-3.1,1.3v-0.2
				c1.1-1.7,3.8-3.3,6.8-3.3c3.7,0,6.3,1.7,6.3,5.8v12.8c0,1,0.6,2.1,3.1,2.1v0.2h-12.9V173.5z"/>
			<path class="st2" d="M260.7,160.3c0-5.3,5-7.4,9.2-7.4v0.2c-1.8,0.2-2.6,2.3-2.6,7.1c0,5,0.8,7,2.6,7.1v0.2
				C265.8,167.5,260.7,165.5,260.7,160.3z M271.6,183.8c4.1-0.5,5.4-2.7,5.4-4.2c0-5.7-16-0.6-16-8c0-1.7,0.9-3,2.8-4.2l0.1,0.2
				c-0.2,0.2-0.4,0.5-0.4,0.8c0,4.6,18.7-0.7,18.7,8.2c0,4.2-3.7,7-10.6,7.4V183.8z M261,180.3c0-2.4,3-3.2,6.2-3.2
				c-0.7,0.3-1.8,1.5-1.8,2.9c0,1.9,2.1,3.3,4.5,3.7v0.2C265.6,183.9,261,183,261,180.3z M271.6,167.3c2-0.2,2.8-2.2,2.8-7.1
				c0-4.8-0.9-6.9-2.8-7.1v-0.2c4.4,0.1,9.4,2.1,9.4,7.4c0,5.3-5.1,7.3-9.4,7.3V167.3z M273.9,152.1c0.7-2.1,2.6-4.9,5.4-4.9
				c2.2,0,3.5,1.1,3.5,3.1c0,2-1.8,3.2-3.3,3.2c0-1.7-0.9-2.8-2.2-2.8c-1.2,0-2.6,0.7-3.2,1.5L273.9,152.1z"/>
		</g>
		<g class="st1">
			<path class="st2" d="M24,195.4c3.8,0,6.9-0.4,9.8-1.6v18.6c0,1,0.6,2.1,3.1,2.1v0.2H23.9v-0.2c2.5,0,3.1-1.1,3.1-2.1v-14.6
				c0-1.5-0.7-2.2-3-2.2V195.4z M26.1,187.7c0-2.1,1.7-3.6,4.2-3.6c2.5,0,4.2,1.4,4.2,3.6c0,2.2-1.7,3.6-4.2,3.6
				C27.8,191.3,26.1,189.9,26.1,187.7z"/>
			<path class="st2" d="M38.6,214.6c2.5,0,3.1-1.1,3.1-2.1v-14.6c0-1.5-0.7-2.2-3-2.2v-0.2c3.8,0,6.9-0.4,9.8-1.6v18.6
				c0,1,0.6,2.1,3.1,2.1v0.2H38.6V214.6z M53,214.6c2.4,0,3-1.1,3-2.1v-12.8c0-2.3-1.2-3.5-3.2-3.5c-1.1,0-2.1,0.4-3.1,1.3v-0.2
				c1.1-1.7,3.8-3.3,6.8-3.3c3.7,0,6.3,1.7,6.3,5.8v12.8c0,1,0.6,2.1,3.1,2.1v0.2H53V214.6z"/>
			<path class="st2" d="M75.3,209.9c-1.4,0-2.3,0.8-2.3,2.1c0,1.2,0.8,2.7,3.7,3v0.2c-5.5-0.2-8.5-1.7-8.5-4.1c0-1.9,1.6-3,3.5-3
				C73.3,208.1,74.7,208.9,75.3,209.9z M76.7,194.1c-1.5,0.3-3,1.1-3,2.8c0.1,4.8,13.4,5.5,13.4,12.1c0,4-3.4,6.1-8.7,6.3V215
				c1.7-0.3,3.7-0.9,3.7-3c0-4.3-13.5-5.8-13.5-12.1c0-3.6,3.4-5.8,8-6V194.1z M86.3,198.1c0,1.3-1,2.5-3,2.5c-1.7,0-3-0.7-3.5-2
				c1.2-0.1,1.9-0.9,1.8-1.9c0-1.2-1.6-2.4-3.2-2.6v-0.2C83.1,194.1,86.3,195.8,86.3,198.1z"/>
			<path class="st2" d="M99.2,209.4c0,2.3,0.8,3.5,2.8,3.5c1.1,0,1.9-0.3,2.8-1.3v0.2c-0.9,1.8-3,3.3-6.4,3.3
				c-3.7,0-6.1-1.7-6.1-5.8v-11.5c0-1.5-0.7-2.2-3-2.2v-0.2c3.8,0,6.9-0.4,9.8-1.6V209.4z M112.9,212.1c0,1.2,0.4,1.7,1.1,1.7
				c0.6,0,1.3-0.6,2-1.8h0.2c-0.7,2.3-2.9,3.3-5.6,3.3c-2.9,0-4.5-1.6-4.5-4v-13.3c0-1.5-0.7-2.2-2.9-2.2v-0.2
				c3.7,0,6.2-0.4,9.7-1.6V212.1z"/>
		</g>
		<g class="st1">
			<path class="st2" d="M127.7,212.5c0,1,0.6,2.1,3.1,2.1v0.2h-12.9v-0.2c2.5,0,3.1-1.1,3.1-2.1v-14.6c0-1.5-0.7-2.2-3-2.2v-0.2
				c3.8,0,6.9-0.4,9.8-1.6V212.5z M138.8,198.3c0,2.8-2,4.7-4.2,4.7c-1,0-1.8-0.2-2.3-0.9c0.8-0.4,1.6-1.3,1.6-2.8
				c0-1.2-0.9-2.2-2.3-2.2c-1.1,0-1.9,0.6-2.5,1.6v-0.3c0.8-2.6,2.8-4.4,5.3-4.4C137.3,193.9,138.8,195.8,138.8,198.3z"/>
		</g>
		<g class="st1">
			<path class="st2" d="M140.6,210c0-3.6,3.3-5.6,7.9-5.6h4.4v0.2h-1.2c-3,0-4.4,1.9-4.4,4.5c0,2.3,0.7,4,2.6,4c1.1,0,2.1-0.6,3-1.4
				v0.2c-1.4,1.6-3.5,3.3-6.5,3.3C142.9,215.2,140.5,213.3,140.6,210z M142.2,198.4c0-2.1,1.9-4.2,7.5-4.5v0.2
				c-1.6,0.2-2.6,1.6-2.6,3c0,1.5,1,2.4,2.7,2.5c-0.6,1.1-2.3,2-3.9,2C143.5,201.6,142.2,200.1,142.2,198.4z M154.1,210.6V198
				c0-2-0.8-3.6-2.8-3.9v-0.2c6.8,0.2,9.5,2.8,9.5,8.2v10c0,1.2,0.4,1.7,1.1,1.7c0.6,0,1.3-0.6,2-1.8h0.2c-0.7,2.3-2.9,3.3-5.3,3.3
				C155.6,215.2,154.1,214.1,154.1,210.6z"/>
			<path class="st2" d="M165.5,214.6c2.5,0,3.1-1.1,3.1-2.1v-14.6c0-1.5-0.7-2.2-3-2.2v-0.2c3.8,0,6.9-0.4,9.8-1.6v18.6
				c0,1,0.6,2.1,3.1,2.1v0.2h-12.9V214.6z M180,214.6c2.4,0,3-1.1,3-2.1v-12.8c0-2.3-1.2-3.5-3.2-3.5c-1.2,0-2.1,0.4-3.1,1.3v-0.2
				c1.1-1.7,3.8-3.3,6.8-3.3c3.7,0,6.3,1.7,6.3,5.8v12.8c0,1,0.6,2.1,3.1,2.1v0.2H180V214.6z"/>
			<path class="st2" d="M205.6,194.1c-2.4,0.3-3.5,2.3-3.5,10.2c0,5.9,3,9.2,6.7,9.2c2.3,0,4.1-0.7,6-2.2v0.2
				c-2.1,2.7-6,3.7-8.7,3.7c-5.3,0-11-3.9-11-10.8s5.7-10.6,10.5-10.6V194.1z M214.7,198.5c0,2.2-1.5,3.9-4.1,3.9
				c-2,0-3.3-1.3-3.6-2.6c1.1-0.5,2-1.9,2-3c0-0.9-0.2-2.4-1.8-2.7v-0.3C212.6,193.9,214.7,196.2,214.7,198.5z"/>
			<path class="st2" d="M217.8,204.5c0-6.9,5.3-10.6,10.1-10.6v0.2c-2.4,0.3-3.1,2.3-3.1,10.2c0,5.9,2.6,9.2,6.3,9.2
				c2.3,0,4.1-0.7,6-2.2v0.2c-2.1,2.7-6,3.7-8.7,3.7C223.1,215.2,217.8,211.4,217.8,204.5z M227,202.7c3.6,0,5.1-1.1,5.1-4.6
				c0-2-0.8-3.8-2.7-4v-0.2c5.4,0,8,3.9,8,7c0,0.7-0.1,1.5-0.2,2.1H227V202.7z"/>
		</g>
		<g class="st1">
			<path class="st2" d="M31.8,251c-1.4,0-2.3,0.8-2.3,2.1c0,1.2,0.8,2.7,3.7,3v0.2c-5.5-0.2-8.5-1.7-8.5-4.1c0-1.9,1.6-3,3.5-3
				C29.8,249.2,31.2,250,31.8,251z M33.1,235.2c-1.5,0.3-3,1.1-3,2.8c0.1,4.8,13.4,5.5,13.4,12.1c0,4-3.4,6.1-8.7,6.3V256
				c1.7-0.3,3.7-0.9,3.7-3c0-4.3-13.5-5.8-13.5-12.1c0-3.6,3.4-5.8,8-6V235.2z M42.8,239.2c0,1.3-1,2.5-3,2.5c-1.7,0-3-0.7-3.5-2
				c1.2-0.1,1.9-0.9,1.8-1.9c0-1.2-1.6-2.4-3.2-2.6v-0.2C39.6,235.2,42.8,236.9,42.8,239.2z"/>
			<path class="st2" d="M55.8,262.1c0,1.5,0.7,2.2,3,2.2v0.2c-3.8,0-6.4,0.4-9.8,1.6v-27.2c0-1.5-0.7-2.2-3-2.2v-0.2
				c3.8,0,6.4-0.4,9.8-1.6V262.1z M71.4,245.4c0,8.6-4.5,10.9-8.4,10.9c-2.3,0-5-1.6-6-3.3v-0.2c1,0.8,2.1,1.4,3.4,1.4
				c1.9,0,4-1.4,4-8.7c0-7.4-1.9-8.4-4-8.4c-1.3,0-2.5,0.5-3.4,1.5v-0.3c1-1.7,3.7-3.3,6-3.3C67,234.9,71.4,237.2,71.4,245.4z"/>
			<path class="st2" d="M75.1,245.5c0-6.9,5.3-10.6,10.1-10.6v0.2c-2.4,0.3-3.1,2.3-3.1,10.2c0,5.9,2.6,9.2,6.3,9.2
				c2.3,0,4.1-0.7,6-2.2v0.2c-2.1,2.7-6,3.7-8.7,3.7C80.4,256.3,75.1,252.4,75.1,245.5z M84.3,243.8c3.6,0,5.1-1.1,5.1-4.6
				c0-2-0.8-3.8-2.7-4v-0.2c5.4,0,8,3.9,8,7c0,0.7-0.1,1.5-0.2,2.1H84.3V243.8z"/>
			<path class="st2" d="M108.7,235.2c-2.4,0.3-3.5,2.3-3.5,10.2c0,5.9,3,9.2,6.7,9.2c2.3,0,4.1-0.7,6-2.2v0.2
				c-2.1,2.7-6,3.7-8.7,3.7c-5.3,0-11-3.9-11-10.8s5.7-10.6,10.5-10.6V235.2z M117.8,239.6c0,2.2-1.5,3.9-4.1,3.9
				c-2,0-3.3-1.3-3.6-2.6c1.1-0.5,2-1.9,2-3c0-0.9-0.2-2.4-1.8-2.7v-0.3C115.7,234.9,117.8,237.2,117.8,239.6z"/>
			<path class="st2" d="M120.2,236.5c3.8,0,6.9-0.4,9.8-1.6v18.6c0,1,0.6,2.1,3.1,2.1v0.2h-12.9v-0.2c2.5,0,3.1-1.1,3.1-2.1v-14.6
				c0-1.5-0.7-2.2-3-2.2V236.5z M122.3,228.8c0-2.1,1.7-3.6,4.2-3.6c2.5,0,4.2,1.4,4.2,3.6c0,2.2-1.7,3.6-4.2,3.6
				C124,232.4,122.3,231,122.3,228.8z"/>
			<path class="st2" d="M135.2,251c0-3.6,3.3-5.6,7.9-5.6h4.4v0.2h-1.2c-3,0-4.4,1.9-4.4,4.5c0,2.3,0.7,4,2.6,4c1.1,0,2.1-0.6,3-1.4
				v0.2c-1.4,1.6-3.5,3.3-6.5,3.3C137.5,256.3,135.1,254.3,135.2,251z M136.8,239.4c0-2.1,1.9-4.2,7.5-4.5v0.2
				c-1.6,0.2-2.6,1.6-2.6,3c0,1.5,1,2.4,2.7,2.5c-0.6,1.1-2.3,2-3.9,2C138.1,242.7,136.8,241.1,136.8,239.4z M148.7,251.7v-12.6
				c0-2-0.8-3.6-2.8-3.9v-0.2c6.8,0.2,9.5,2.8,9.5,8.2v10c0,1.2,0.4,1.7,1.1,1.7c0.6,0,1.3-0.6,2-1.8h0.2c-0.7,2.3-2.9,3.3-5.3,3.3
				C150.2,256.3,148.7,255.1,148.7,251.7z"/>
			<path class="st2" d="M159.9,227.3c3.8,0,6.9-0.4,9.8-1.6v27.8c0,1,0.6,2.1,3.1,2.1v0.2h-12.9v-0.2c2.5,0,3.1-1.1,3.1-2.1v-23.8
				c0-1.5-0.7-2.2-3-2.2V227.3z"/>
			<path class="st2" d="M174.6,236.5c3.8,0,6.9-0.4,9.8-1.6v18.6c0,1,0.6,2.1,3.1,2.1v0.2h-12.9v-0.2c2.5,0,3.1-1.1,3.1-2.1v-14.6
				c0-1.5-0.7-2.2-3-2.2V236.5z M176.7,228.8c0-2.1,1.7-3.6,4.2-3.6s4.2,1.4,4.2,3.6c0,2.2-1.7,3.6-4.2,3.6S176.7,231,176.7,228.8z"
				/>
			<path class="st2" d="M197.1,251c-1.4,0-2.3,0.8-2.3,2.1c0,1.2,0.8,2.7,3.7,3v0.2c-5.5-0.2-8.5-1.7-8.5-4.1c0-1.9,1.6-3,3.5-3
				C195.1,249.2,196.5,250,197.1,251z M198.4,235.2c-1.5,0.3-3,1.1-3,2.8c0.1,4.8,13.4,5.5,13.4,12.1c0,4-3.4,6.1-8.7,6.3V256
				c1.7-0.3,3.7-0.9,3.7-3c0-4.3-13.5-5.8-13.5-12.1c0-3.6,3.4-5.8,8-6V235.2z M208.1,239.2c0,1.3-1,2.5-3,2.5c-1.7,0-3-0.7-3.5-2
				c1.2-0.1,1.9-0.9,1.8-1.9c0-1.2-1.6-2.4-3.2-2.6v-0.2C204.9,235.2,208.1,236.9,208.1,239.2z"/>
			<path class="st2" d="M227.5,252.7v0.2c-1.3,1.9-3.9,3.3-7,3.3c-3.7,0-6.3-1.7-6.3-5.8V237h-2.1l0.5-0.6h1.7V232
				c2.5,0,5-0.8,6.7-2.3v6.7h5.5L226,237h-5.1v13.6c0,2.1,0.8,4.2,2.7,4.2C224.8,254.8,226.2,254.1,227.5,252.7z"/>
		</g>
	</g>
</g>
</svg>
