<svg id="Layer_1" data-name="Layer 1" xmlns="http://www.w3.org/2000/svg" viewBox="0 0 320 600"><defs><style>.cls-1{fill:#263845;}.cls-2{fill:none;}</style></defs><title>Artboard 1 copy 2</title><path class="cls-1" d="M34.59,118.7l.28.42.28,14.7c0,1.51,1.11,2.94,3.43,2.94V137H30.87v-.21c2.31,0,3.4-1.47,3.44-2.94ZM53.14,137H49.25L34.62,115.16a3.82,3.82,0,0,0-3.71-1.78v-.21h9.35l12.88,19.29Zm-.07-8.05-.28-.38-.42-12.22c0-1.51-1.12-2.94-3.43-2.94v-.21h7.7v.21c-2.31,0-3.43,1.47-3.43,2.94Z"/><path class="cls-1" d="M72.28,113.17H79L65.07,137H58.42Zm-12.85,0H70l-.11.21c-5.18.28-9.31,3.85-10.19,8.22h-.28Zm8,23.59a12,12,0,0,0,10.92-9.34h.28V137H67.34Z"/><path class="cls-1" d="M88.73,114.29c0,2-2.17,4.72-5.67,6.16l-.11-.32a4.85,4.85,0,0,0,2-3.39,2.2,2.2,0,0,0-2.38-2.31c.28-2.07,1.5-3.19,3.32-3.19A2.82,2.82,0,0,1,88.73,114.29Z"/><path class="cls-1" d="M95.91,132.81a1.79,1.79,0,0,0-2,1.75c0,1,.71,2.31,3.12,2.55v.21c-4.65-.17-7.21-1.43-7.21-3.46a2.74,2.74,0,0,1,3-2.6A3.57,3.57,0,0,1,95.91,132.81Zm1.15-13.48c-1.3.24-2.55.91-2.52,2.34C94.65,125.73,106,126.4,106,132c0,3.4-2.87,5.19-7.39,5.36v-.21c1.47-.24,3.12-.77,3.12-2.59,0-3.64-11.49-5-11.49-10.29,0-3.08,2.91-4.94,6.83-5.11Zm8.26,3.39c0,1.09-.84,2.17-2.59,2.17a3,3,0,0,1-3-1.68,1.55,1.55,0,0,0,1.57-1.64c0-1-1.33-2.07-2.73-2.24v-.21C102.56,119.33,105.32,120.76,105.32,122.72Z"/><path class="cls-1" d="M117,112.61a21.3,21.3,0,0,0,8.36-1.37V135c0,.87.53,1.78,2.63,1.78V137H117v-.21c2.1,0,2.63-.91,2.63-1.78V114.67c0-1.26-.6-1.85-2.59-1.85Z"/><path class="cls-1" d="M130.1,128.15a8.66,8.66,0,0,1,8.57-9v.21c-2.06.24-2.62,2-2.62,8.68,0,5,2.24,7.81,5.36,7.81a7.62,7.62,0,0,0,5.11-1.86v.21c-1.82,2.31-5.15,3.15-7.43,3.15A8.87,8.87,0,0,1,130.1,128.15Zm7.88-1.47c3.08,0,4.37-1,4.37-3.92,0-1.68-.7-3.22-2.27-3.43v-.21c4.62,0,6.86,3.29,6.86,5.95a9.94,9.94,0,0,1-.18,1.82H138Z"/><path class="cls-1" d="M149.45,132.84c0-3.05,2.8-4.76,6.72-4.76H160v.21h-1c-2.53,0-3.72,1.64-3.72,3.82,0,1.92.57,3.39,2.21,3.39a3.82,3.82,0,0,0,2.55-1.22v.21a7.43,7.43,0,0,1-5.56,2.83C151.41,137.32,149.42,135.64,149.45,132.84Zm1.4-9.91c0-1.78,1.61-3.6,6.37-3.81v.21a2.55,2.55,0,0,0-2.24,2.55c0,1.26.88,2,2.28,2.14a3.94,3.94,0,0,1-3.36,1.68A2.81,2.81,0,0,1,150.85,122.93ZM161,133.37V122.65c0-1.71-.67-3.08-2.39-3.32v-.21c5.81.21,8.13,2.41,8.13,7v8.5c0,1,.34,1.44,1,1.44s1.12-.52,1.68-1.57h.21c-.56,1.92-2.45,2.83-4.55,2.83C162.26,137.32,161,136.34,161,133.37Z"/><path class="cls-1" d="M183.76,121.92v.28a3.88,3.88,0,0,0-2.91-1.3c-1.75,0-3.43.81-3.43,7.14s1.78,7.46,3.43,7.46a4.86,4.86,0,0,0,2.91-1.22v.21a6.51,6.51,0,0,1-5.08,2.83c-3.33,0-7.21-2-7.21-9.28,0-7,3.81-8.92,7.21-8.92A6.49,6.49,0,0,1,183.76,121.92Zm6.82,12.7c0,1,.32,1.44.95,1.44s1.12-.52,1.68-1.57h.21c-.56,1.92-2.45,2.83-4.56,2.83-2.8,0-4.06-1-4.06-3.95v-18.7c0-1.26-.59-1.85-2.59-1.85v-.21a22.85,22.85,0,0,0,8.37-1.37Z"/><path class="cls-1" d="M194.88,120.45a21.36,21.36,0,0,0,8.37-1.37V135c0,.87.52,1.78,2.62,1.78V137h-11v-.21c2.1,0,2.62-.91,2.62-1.78V122.51c0-1.26-.59-1.85-2.59-1.85Zm1.79-6.58c0-1.82,1.47-3.05,3.57-3.05s3.57,1.23,3.57,3.05-1.47,3.08-3.57,3.08S196.67,115.72,196.67,113.87Z"/><path class="cls-1" d="M207.34,136.76c2.1,0,2.63-.91,2.63-1.78V122.55c0-1.26-.6-1.86-2.59-1.86v-.21a21.49,21.49,0,0,0,8.36-1.36V135c0,.87.53,1.78,2.63,1.78V137h-11Zm12.32,0c2.07,0,2.59-.91,2.59-1.78V124.05c0-2-1-3-2.76-3a3.72,3.72,0,0,0-2.66,1.08V122a7.14,7.14,0,0,1,5.81-2.83c3.15,0,5.39,1.47,5.39,4.93V135c0,.87.52,1.78,2.63,1.78V137h-11Z"/><path class="cls-1" d="M232.72,125.45c0-4.55,4.27-6.26,7.84-6.33v.21c-1.51.14-2.21,2-2.21,6,0,4.23.7,6,2.21,6.09v.21C237,131.65,232.72,130,232.72,125.45ZM242,145.51c3.5-.42,4.62-2.31,4.62-3.57,0-4.86-13.65-.52-13.65-6.79,0-1.43.73-2.55,2.34-3.57l.11.17a.83.83,0,0,0-.32.67c0,3.92,16-.63,16,7,0,3.61-3.11,6-9.06,6.3Zm-9-2.94c0-2.06,2.55-2.69,5.32-2.69a2.94,2.94,0,0,0-1.51,2.48c0,1.61,1.82,2.84,3.82,3.15v.21C236.88,145.65,233,144.88,233,142.57Zm9-11.13c1.71-.14,2.41-1.86,2.41-6.09,0-4.06-.73-5.88-2.41-6v-.21c3.71.07,8,1.78,8,6.33s-4.3,6.2-8,6.2Zm1.89-13c.59-1.79,2.2-4.2,4.62-4.2,1.85,0,3,1,3,2.66a2.79,2.79,0,0,1-2.83,2.73c0-1.47-.77-2.35-1.89-2.35a3.8,3.8,0,0,0-2.7,1.26Z"/><path class="cls-1" d="M30.91,155.45a21.36,21.36,0,0,0,8.37-1.37V170c0,.87.52,1.78,2.62,1.78V172h-11v-.21c2.1,0,2.63-.91,2.63-1.78V157.51c0-1.26-.59-1.85-2.59-1.85Zm1.78-6.58c0-1.82,1.48-3.05,3.57-3.05s3.58,1.23,3.58,3.05S38.37,152,36.26,152,32.69,150.72,32.69,148.87Z"/><path class="cls-1" d="M43.37,171.76c2.1,0,2.62-.91,2.62-1.78V157.55c0-1.26-.59-1.86-2.59-1.86v-.21a21.54,21.54,0,0,0,8.37-1.36V170c0,.87.53,1.78,2.63,1.78V172h-11Zm12.32,0c2.07,0,2.59-.91,2.59-1.78V159.05c0-2-1-3-2.77-3a3.74,3.74,0,0,0-2.66,1.08V157a7.17,7.17,0,0,1,5.82-2.83c3.15,0,5.39,1.47,5.39,4.93V170c0,.87.52,1.78,2.62,1.78V172h-11Z"/><path class="cls-1" d="M74.66,167.81a1.79,1.79,0,0,0-2,1.75c0,1,.7,2.31,3.12,2.55v.21c-4.66-.17-7.22-1.43-7.22-3.46a2.74,2.74,0,0,1,3-2.6A3.57,3.57,0,0,1,74.66,167.81Zm1.16-13.48c-1.3.24-2.56.91-2.52,2.34.1,4.06,11.44,4.73,11.44,10.29,0,3.4-2.87,5.19-7.39,5.36v-.21c1.48-.24,3.12-.77,3.12-2.59,0-3.64-11.48-5-11.48-10.29,0-3.08,2.9-4.94,6.83-5.11Zm8.26,3.39c0,1.09-.84,2.17-2.59,2.17a3,3,0,0,1-3-1.68,1.56,1.56,0,0,0,1.58-1.64c0-1-1.33-2.07-2.74-2.24v-.21C81.31,154.33,84.08,155.76,84.08,157.72Z"/><path class="cls-1" d="M95.06,167.38c0,2,.67,3,2.42,3a3.11,3.11,0,0,0,2.42-1.08v.21a5.86,5.86,0,0,1-5.43,2.83c-3.15,0-5.18-1.47-5.18-4.94v-9.83c0-1.26-.6-1.86-2.59-1.86v-.21a21.49,21.49,0,0,0,8.36-1.36Zm11.66,2.24c0,1,.32,1.44,1,1.44s1.12-.52,1.68-1.57h.21c-.56,1.92-2.45,2.83-4.76,2.83s-3.86-1.4-3.86-3.43V157.55c0-1.26-.59-1.86-2.48-1.86v-.21a22.86,22.86,0,0,0,8.26-1.36Z"/><path class="cls-1" d="M119.35,170c0,.87.53,1.78,2.63,1.78V172H111v-.21c2.1,0,2.63-.91,2.63-1.78V157.55c0-1.26-.6-1.86-2.59-1.86v-.21a21.49,21.49,0,0,0,8.36-1.36Zm9.46-12.08a3.75,3.75,0,0,1-3.61,4,2.39,2.39,0,0,1-2-.77,2.56,2.56,0,0,0,1.37-2.38,1.85,1.85,0,0,0-2-1.89,2.39,2.39,0,0,0-2.1,1.33v-.28a4.84,4.84,0,0,1,4.55-3.78A3.55,3.55,0,0,1,128.81,157.9Z"/><path class="cls-1" d="M130.31,167.84c0-3.05,2.8-4.76,6.72-4.76h3.78v.21h-1.05c-2.52,0-3.71,1.64-3.71,3.82,0,1.92.56,3.39,2.21,3.39a3.84,3.84,0,0,0,2.55-1.22v.21a7.43,7.43,0,0,1-5.57,2.83C132.27,172.32,130.27,170.64,130.31,167.84Zm1.4-9.91c0-1.78,1.61-3.6,6.37-3.81v.21a2.55,2.55,0,0,0-2.24,2.55c0,1.26.87,2,2.27,2.14a3.93,3.93,0,0,1-3.36,1.68A2.81,2.81,0,0,1,131.71,157.93Zm10.15,10.44V157.65c0-1.71-.67-3.08-2.38-3.32v-.21c5.81.21,8.12,2.41,8.12,7v8.5c0,1,.35,1.44,1,1.44s1.12-.52,1.68-1.57h.21c-.56,1.92-2.45,2.83-4.55,2.83C143.12,172.32,141.86,171.34,141.86,168.37Z"/><path class="cls-1" d="M151.55,171.76c2.1,0,2.63-.91,2.63-1.78V157.55c0-1.26-.6-1.86-2.59-1.86v-.21a21.49,21.49,0,0,0,8.36-1.36V170c0,.87.53,1.78,2.63,1.78V172h-11Zm12.32,0c2.07,0,2.59-.91,2.59-1.78V159.05c0-2-1-3-2.76-3a3.72,3.72,0,0,0-2.66,1.08V157a7.14,7.14,0,0,1,5.81-2.83c3.15,0,5.39,1.47,5.39,4.93V170c0,.87.52,1.78,2.63,1.78V172h-11Z"/><path class="cls-1" d="M185.71,154.33c-2.06.24-3,2-3,8.68,0,5,2.55,7.81,5.67,7.81a7.62,7.62,0,0,0,5.11-1.86v.21c-1.82,2.31-5.15,3.15-7.42,3.15a9.15,9.15,0,0,1-9.35-9.17,9,9,0,0,1,9-9Zm7.78,3.74a3.26,3.26,0,0,1-3.51,3.36,3,3,0,0,1-3-2.2,3,3,0,0,0,1.68-2.56,2.08,2.08,0,0,0-1.51-2.31v-.24C191.7,154.12,193.49,156.08,193.49,158.07Z"/><path class="cls-1" d="M196.11,163.15a8.66,8.66,0,0,1,8.57-9v.21c-2.06.24-2.62,2-2.62,8.68,0,5,2.24,7.81,5.35,7.81a7.58,7.58,0,0,0,5.11-1.86v.21c-1.82,2.31-5.14,3.15-7.42,3.15A8.87,8.87,0,0,1,196.11,163.15Zm7.87-1.47c3.08,0,4.38-1,4.38-3.92,0-1.68-.7-3.22-2.28-3.43v-.21c4.62,0,6.86,3.29,6.86,5.95a10.9,10.9,0,0,1-.17,1.82H204Z"/><path class="cls-1" d="M37.56,202.81a1.79,1.79,0,0,0-2,1.75c0,1,.7,2.31,3.12,2.55v.21c-4.66-.17-7.21-1.43-7.21-3.46a2.73,2.73,0,0,1,3-2.6A3.55,3.55,0,0,1,37.56,202.81Zm1.16-13.48c-1.3.24-2.56.91-2.52,2.34.1,4.06,11.44,4.73,11.44,10.29,0,3.4-2.87,5.19-7.38,5.36v-.21c1.47-.24,3.11-.77,3.11-2.59,0-3.64-11.48-5-11.48-10.29,0-3.08,2.91-4.94,6.83-5.11ZM47,192.72c0,1.09-.84,2.17-2.59,2.17a3,3,0,0,1-3-1.68A1.56,1.56,0,0,0,43,191.57c0-1-1.33-2.07-2.73-2.24v-.21C44.21,189.33,47,190.76,47,192.72Z"/><path class="cls-1" d="M58,212.29c0,1.26.59,1.86,2.59,1.86v.21a23.06,23.06,0,0,0-8.37,1.36V192.51c0-1.26-.59-1.85-2.59-1.85v-.21A22.92,22.92,0,0,0,58,189.08ZM71.37,198c0,7.32-3.85,9.28-7.17,9.28a6.54,6.54,0,0,1-5.11-2.83v-.21A4.92,4.92,0,0,0,62,205.5c1.64,0,3.39-1.15,3.39-7.46S63.78,190.9,62,190.9a3.91,3.91,0,0,0-2.94,1.3v-.28a6.51,6.51,0,0,1,5.11-2.8C67.59,189.12,71.37,191.08,71.37,198Z"/><path class="cls-1" d="M74.45,198.15a8.66,8.66,0,0,1,8.57-9v.21c-2.06.24-2.62,2-2.62,8.68,0,5,2.24,7.81,5.36,7.81A7.62,7.62,0,0,0,90.87,204v.21c-1.82,2.31-5.15,3.15-7.42,3.15A8.87,8.87,0,0,1,74.45,198.15Zm7.88-1.47c3.08,0,4.37-1,4.37-3.92,0-1.68-.7-3.22-2.28-3.43v-.21c4.63,0,6.87,3.29,6.87,5.95a9.94,9.94,0,0,1-.18,1.82H82.33Z"/><path class="cls-1" d="M103.11,189.33c-2.06.24-3,2-3,8.68,0,5,2.55,7.81,5.67,7.81a7.58,7.58,0,0,0,5.11-1.86v.21c-1.82,2.31-5.15,3.15-7.42,3.15a9.15,9.15,0,0,1-9.35-9.17,9,9,0,0,1,9-9Zm7.78,3.74a3.25,3.25,0,0,1-3.5,3.36,3,3,0,0,1-3-2.2,3,3,0,0,0,1.68-2.56,2.08,2.08,0,0,0-1.51-2.31v-.24C109.1,189.12,110.89,191.08,110.89,193.07Z"/><path class="cls-1" d="M113,190.45a21.3,21.3,0,0,0,8.36-1.37V205c0,.87.53,1.78,2.63,1.78V207h-11v-.21c2.1,0,2.63-.91,2.63-1.78V192.51c0-1.26-.6-1.85-2.59-1.85Zm1.78-6.58c0-1.82,1.47-3.05,3.57-3.05s3.57,1.23,3.57,3.05S120.4,187,118.3,187,114.73,185.72,114.73,183.87Z"/><path class="cls-1" d="M125.69,202.84c0-3.05,2.8-4.76,6.72-4.76h3.78v.21h-1.05c-2.52,0-3.71,1.64-3.71,3.82,0,1.92.56,3.39,2.2,3.39a3.84,3.84,0,0,0,2.56-1.22v.21a7.45,7.45,0,0,1-5.57,2.83C127.65,207.32,125.65,205.64,125.69,202.84Zm1.4-9.91c0-1.78,1.61-3.6,6.37-3.81v.21a2.55,2.55,0,0,0-2.24,2.55c0,1.26.87,2,2.27,2.14a3.93,3.93,0,0,1-3.36,1.68A2.81,2.81,0,0,1,127.09,192.93Zm10.15,10.44V192.65c0-1.71-.67-3.08-2.38-3.32v-.21c5.81.21,8.12,2.41,8.12,7v8.5c0,1,.35,1.44,1,1.44s1.12-.52,1.68-1.57h.21c-.56,1.92-2.45,2.83-4.55,2.83C138.5,207.32,137.24,206.34,137.24,203.37Z"/><path class="cls-1" d="M146.76,182.61a21.3,21.3,0,0,0,8.36-1.37V205c0,.87.53,1.78,2.63,1.78V207h-11v-.21c2.1,0,2.63-.91,2.63-1.78V184.67c0-1.26-.6-1.85-2.59-1.85Z"/><path class="cls-1" d="M159.29,190.45a21.3,21.3,0,0,0,8.36-1.37V205c0,.87.53,1.78,2.63,1.78V207h-11v-.21c2.1,0,2.63-.91,2.63-1.78V192.51c0-1.26-.6-1.85-2.59-1.85Zm1.78-6.58c0-1.82,1.47-3.05,3.57-3.05s3.57,1.23,3.57,3.05-1.47,3.08-3.57,3.08S161.07,185.72,161.07,183.87Z"/><path class="cls-1" d="M178.47,202.81a1.78,1.78,0,0,0-2,1.75c0,1,.7,2.31,3.11,2.55v.21c-4.65-.17-7.21-1.43-7.21-3.46a2.74,2.74,0,0,1,3-2.6A3.57,3.57,0,0,1,178.47,202.81Zm1.15-13.48c-1.29.24-2.55.91-2.52,2.34.11,4.06,11.45,4.73,11.45,10.29,0,3.4-2.87,5.19-7.39,5.36v-.21c1.47-.24,3.12-.77,3.12-2.59,0-3.64-11.48-5-11.48-10.29,0-3.08,2.9-4.94,6.82-5.11Zm8.26,3.39c0,1.09-.84,2.17-2.59,2.17a3,3,0,0,1-3-1.68,1.55,1.55,0,0,0,1.57-1.64c0-1-1.33-2.07-2.73-2.24v-.21C185.12,189.33,187.88,190.76,187.88,192.72Z"/><path class="cls-1" d="M204.44,204.28v.21a7.32,7.32,0,0,1-6,2.83c-3.15,0-5.39-1.43-5.39-4.94V190.9h-1.82l.39-.52h1.43V186.6a8.85,8.85,0,0,0,5.74-2v5.74h4.73l-.39.52H198.8v11.59c0,1.75.67,3.57,2.31,3.57A5.2,5.2,0,0,0,204.44,204.28Z"/><rect class="cls-2" x="0.89" y="0.48" width="320" height="600"/></svg>