<svg id="Layer_1" data-name="Layer 1" xmlns="http://www.w3.org/2000/svg" viewBox="0 0 320 600"><defs><style>.cls-1{fill:#fff;}.cls-2{fill:none;}</style></defs><title>Artboard 1 copy 4</title><path class="cls-1" d="M31.19,73.45a21.36,21.36,0,0,0,8.37-1.37V88c0,.87.52,1.78,2.62,1.78V90h-11v-.21c2.09,0,2.62-.91,2.62-1.78V75.51c0-1.26-.59-1.85-2.59-1.85ZM33,66.87c0-1.82,1.47-3.05,3.57-3.05s3.57,1.23,3.57,3.05S38.65,70,36.55,70,33,68.72,33,66.87Z"/><path class="cls-1" d="M50.37,85.81a1.78,1.78,0,0,0-2,1.75c0,1,.7,2.31,3.12,2.55v.21c-4.66-.17-7.22-1.43-7.22-3.46a2.74,2.74,0,0,1,3-2.6A3.57,3.57,0,0,1,50.37,85.81Zm1.16-13.48c-1.3.24-2.56.91-2.53,2.34C49.11,78.73,60.45,79.4,60.45,85c0,3.4-2.87,5.19-7.38,5.36v-.21c1.47-.24,3.11-.77,3.11-2.59,0-3.64-11.48-5-11.48-10.29,0-3.08,2.9-4.94,6.83-5.11Zm8.26,3.39c0,1.09-.84,2.17-2.59,2.17a3,3,0,0,1-3-1.68,1.56,1.56,0,0,0,1.58-1.64c0-1-1.33-2.07-2.73-2.24v-.21C57,72.33,59.79,73.76,59.79,75.72Z"/><path class="cls-1" d="M72.28,81.15a8.66,8.66,0,0,1,8.58-9v.21c-2.07.24-2.63,2-2.63,8.68,0,5,2.24,7.81,5.36,7.81A7.62,7.62,0,0,0,88.7,87v.21c-1.82,2.31-5.15,3.15-7.42,3.15A8.87,8.87,0,0,1,72.28,81.15Zm7.88-1.47c3.08,0,4.37-1,4.37-3.92,0-1.68-.7-3.22-2.27-3.43v-.21c4.62,0,6.86,3.29,6.86,5.95a9.94,9.94,0,0,1-.18,1.82H80.16Z"/><path class="cls-1" d="M91.63,85.84c0-3,2.8-4.76,6.72-4.76h3.78v.21h-1c-2.52,0-3.71,1.64-3.71,3.82,0,1.92.56,3.39,2.21,3.39a3.8,3.8,0,0,0,2.55-1.22v.21a7.43,7.43,0,0,1-5.56,2.83C93.59,90.32,91.6,88.64,91.63,85.84ZM93,75.93c0-1.78,1.61-3.6,6.38-3.81v.21a2.56,2.56,0,0,0-2.25,2.55c0,1.26.88,2,2.28,2.14a3.94,3.94,0,0,1-3.36,1.68A2.81,2.81,0,0,1,93,75.93Zm10.16,10.44V75.65c0-1.71-.67-3.08-2.39-3.32v-.21c5.82.21,8.13,2.41,8.13,7v8.5c0,1,.35,1.44,1,1.44s1.12-.52,1.68-1.57h.21c-.56,1.92-2.45,2.83-4.55,2.83C104.45,90.32,103.19,89.34,103.19,86.37Z"/><path class="cls-1" d="M119.6,85.81a1.78,1.78,0,0,0-2,1.75c0,1,.7,2.31,3.11,2.55v.21c-4.65-.17-7.21-1.43-7.21-3.46a2.74,2.74,0,0,1,3-2.6A3.57,3.57,0,0,1,119.6,85.81Zm1.15-13.48c-1.29.24-2.55.91-2.52,2.34.11,4.06,11.45,4.73,11.45,10.29,0,3.4-2.87,5.19-7.39,5.36v-.21c1.47-.24,3.12-.77,3.12-2.59,0-3.64-11.48-5-11.48-10.29,0-3.08,2.9-4.94,6.82-5.11ZM129,75.72c0,1.09-.84,2.17-2.59,2.17a3,3,0,0,1-3-1.68A1.55,1.55,0,0,0,125,74.57c0-1-1.33-2.07-2.73-2.24v-.21C126.25,72.33,129,73.76,129,75.72Z"/><path class="cls-1" d="M132.62,73.9a1.9,1.9,0,0,0-1.93-1.22v-.21h9.8v.21c-1.22,0-1.71.84-1.12,2.06L144,84.3,141,90h-.21Zm-1.54,21.71c0-1.51,1.19-2.77,3.08-3.29a2.51,2.51,0,0,0-.14.87,2,2,0,0,0,2.06,2.35c1.23,0,2.21-1.3,3.54-3.54h.24c-1.92,3.61-3.25,6.72-5.7,6.72A2.91,2.91,0,0,1,131.08,95.61Zm14.35-14.74a9.56,9.56,0,0,0,1-4.52,3.38,3.38,0,0,0-3.57-3.67v-.21h8.72v.21c-1.16,0-1.61.45-2.28,1.64l-3.64,6.86Z"/><path class="cls-1" d="M38.68,113.74l4.59,9.56-3,5.67h-.21L31.92,112.9A1.88,1.88,0,0,0,30,111.68v-.21h9.8v.21C38.58,111.68,38.09,112.52,38.68,113.74Zm11.52,0,4.58,9.56-3,5.67h-.21l-5.49-10.89L45,120.18l-.21-.31A5.26,5.26,0,0,0,45,116l-1.58-3.08a1.89,1.89,0,0,0-1.92-1.22v-.21h9.8v.21C50.09,111.68,49.6,112.52,50.2,113.74Zm12.18-2.27v.21c-1.16,0-1.65.45-2.28,1.64l-3.64,6.86-.21-.31a9.56,9.56,0,0,0,1-4.52,3.38,3.38,0,0,0-3.57-3.67v-.21Z"/><path class="cls-1" d="M62.69,112.45a21.36,21.36,0,0,0,8.37-1.37V127c0,.87.52,1.78,2.62,1.78V129h-11v-.21c2.09,0,2.62-.91,2.62-1.78V114.51c0-1.26-.59-1.85-2.59-1.85Zm1.79-6.58c0-1.82,1.47-3.05,3.57-3.05s3.57,1.23,3.57,3.05S70.15,109,68.05,109,64.48,107.72,64.48,105.87Z"/><path class="cls-1" d="M88.73,126.28v.21a7.32,7.32,0,0,1-6,2.83c-3.16,0-5.4-1.43-5.4-4.94V112.9H75.53l.39-.52h1.43V108.6a8.9,8.9,0,0,0,5.75-2v5.74h4.72l-.38.52H83.1v11.59c0,1.75.66,3.57,2.31,3.57A5.15,5.15,0,0,0,88.73,126.28Z"/><path class="cls-1" d="M97.76,127c0,.87.53,1.78,2.62,1.78V129h-11v-.21c2.1,0,2.62-.91,2.62-1.78V106.67c0-1.26-.59-1.85-2.59-1.85v-.21a21.36,21.36,0,0,0,8.37-1.37ZM110,116.05V127c0,.87.53,1.78,2.63,1.78V129h-11v-.21c2.06,0,2.59-.91,2.59-1.78V116.05c0-2-1-3-2.77-3a3.72,3.72,0,0,0-2.66,1.08V114a7.14,7.14,0,0,1,5.81-2.83C107.77,111.12,110,112.59,110,116.05Z"/><path class="cls-1" d="M132.34,129.11v.21a13.24,13.24,0,0,1-6.79-1.71l-1.16,1.71h-.28v-8.54h.28A11.73,11.73,0,0,0,132.34,129.11Zm10.29-7c0,4.52-3.36,7-8.79,7.18v-.21c1.93-.35,3.82-1.47,3.82-3.57,0-6.12-13.37-6.69-13.37-13.79,0-4.2,3.39-6.62,8-6.93V105c-1.61.28-3.08,1.29-3.08,3.22C129.26,114.37,142.63,115,142.63,122.14ZM133.84,105v-.21a11.31,11.31,0,0,1,6.31,1.85l1.26-1.85h.28v7.8h-.28A11.12,11.12,0,0,0,133.84,105Z"/><path class="cls-1" d="M158.59,126.28v.21a7.32,7.32,0,0,1-6,2.83c-3.15,0-5.39-1.43-5.39-4.94V112.9h-1.82l.39-.52h1.43V108.6a8.85,8.85,0,0,0,5.74-2v5.74h4.73l-.39.52H153v11.59c0,1.75.67,3.57,2.31,3.57A5.2,5.2,0,0,0,158.59,126.28Z"/><path class="cls-1" d="M159.71,124.84c0-3,2.8-4.76,6.72-4.76h3.78v.21h-1.05c-2.52,0-3.71,1.64-3.71,3.82,0,1.92.56,3.39,2.2,3.39a3.84,3.84,0,0,0,2.56-1.22v.21a7.45,7.45,0,0,1-5.57,2.83C161.67,129.32,159.67,127.64,159.71,124.84Zm1.4-9.91c0-1.78,1.61-3.6,6.37-3.81v.21a2.55,2.55,0,0,0-2.24,2.55c0,1.26.87,2,2.27,2.14a3.93,3.93,0,0,1-3.36,1.68A2.81,2.81,0,0,1,161.11,114.93Zm10.15,10.44V114.65c0-1.71-.67-3.08-2.38-3.32v-.21c5.81.21,8.12,2.41,8.12,7v8.5c0,1,.35,1.44,1,1.44s1.12-.52,1.68-1.57h.21c-.56,1.92-2.45,2.83-4.55,2.83C172.52,129.32,171.26,128.34,171.26,125.37Z"/><path class="cls-1" d="M189.35,127c0,.87.53,1.78,2.63,1.78V129H181v-.21c2.1,0,2.63-.91,2.63-1.78V114.55c0-1.26-.6-1.86-2.59-1.86v-.21a21.49,21.49,0,0,0,8.36-1.36Zm9.45-12.08a3.74,3.74,0,0,1-3.6,4,2.39,2.39,0,0,1-2-.77,2.56,2.56,0,0,0,1.37-2.38,1.86,1.86,0,0,0-2-1.89,2.39,2.39,0,0,0-2.1,1.33v-.28a4.84,4.84,0,0,1,4.55-3.78A3.55,3.55,0,0,1,198.8,114.9Z"/><path class="cls-1" d="M31.79,167.76c2.1,0,2.62-.84,2.62-1.78V146.16c0-.94-.52-1.78-2.62-1.78v-.21H43v.21c-2.1,0-2.63.84-2.63,1.78V166c0,.94.53,1.78,2.63,1.78V168H31.79Z"/><path class="cls-1" d="M45.33,167.76c2.1,0,2.63-.91,2.63-1.78V153.55c0-1.26-.6-1.86-2.6-1.86v-.21a21.51,21.51,0,0,0,8.37-1.36V166c0,.87.53,1.78,2.63,1.78V168h-11Zm12.32,0c2.07,0,2.59-.91,2.59-1.78V155.05c0-2-1-3-2.76-3a3.72,3.72,0,0,0-2.66,1.08V153a7.14,7.14,0,0,1,5.81-2.83c3.15,0,5.39,1.47,5.39,4.93V166c0,.87.52,1.78,2.62,1.78V168h-11Z"/><path class="cls-1" d="M76.62,163.81a1.78,1.78,0,0,0-2,1.75c0,1,.7,2.31,3.12,2.55v.21c-4.66-.17-7.22-1.43-7.22-3.46a2.74,2.74,0,0,1,3-2.6A3.57,3.57,0,0,1,76.62,163.81Zm1.16-13.48c-1.3.24-2.56.91-2.53,2.34.11,4.06,11.45,4.73,11.45,10.29,0,3.4-2.87,5.19-7.38,5.36v-.21c1.47-.24,3.11-.77,3.11-2.59,0-3.64-11.48-5-11.48-10.29,0-3.08,2.9-4.94,6.83-5.11ZM86,153.72c0,1.09-.84,2.17-2.59,2.17a3,3,0,0,1-3-1.68,1.56,1.56,0,0,0,1.58-1.64c0-1-1.33-2.07-2.73-2.24v-.21C83.27,150.33,86,151.76,86,153.72Z"/><path class="cls-1" d="M97,163.38c0,2,.66,3,2.41,3a3.11,3.11,0,0,0,2.42-1.08v.21a5.85,5.85,0,0,1-5.43,2.83c-3.15,0-5.18-1.47-5.18-4.94v-9.83c0-1.26-.6-1.86-2.59-1.86v-.21A21.58,21.58,0,0,0,97,150.12Zm11.65,2.24c0,1,.32,1.44.95,1.44s1.12-.52,1.68-1.57h.21c-.56,1.92-2.45,2.83-4.76,2.83s-3.85-1.4-3.85-3.43V153.55c0-1.26-.6-1.86-2.49-1.86v-.21a22.86,22.86,0,0,0,8.26-1.36Z"/><path class="cls-1" d="M121.32,166c0,.87.52,1.78,2.62,1.78V168h-11v-.21c2.1,0,2.63-.91,2.63-1.78V153.55c0-1.26-.6-1.86-2.59-1.86v-.21a21.58,21.58,0,0,0,8.37-1.36Zm9.45-12.08a3.75,3.75,0,0,1-3.61,4,2.39,2.39,0,0,1-2-.77,2.56,2.56,0,0,0,1.37-2.38,1.85,1.85,0,0,0-2-1.89,2.39,2.39,0,0,0-2.1,1.33v-.28a4.84,4.84,0,0,1,4.55-3.78A3.55,3.55,0,0,1,130.77,153.9Z"/><path class="cls-1" d="M132.27,163.84c0-3.05,2.8-4.76,6.72-4.76h3.78v.21h-1.05c-2.52,0-3.71,1.64-3.71,3.82,0,1.92.56,3.39,2.2,3.39a3.82,3.82,0,0,0,2.56-1.22v.21a7.43,7.43,0,0,1-5.56,2.83C134.23,168.32,132.23,166.64,132.27,163.84Zm1.4-9.91c0-1.78,1.61-3.6,6.37-3.81v.21a2.55,2.55,0,0,0-2.24,2.55c0,1.26.87,2,2.28,2.14a3.94,3.94,0,0,1-3.37,1.68A2.81,2.81,0,0,1,133.67,153.93Zm10.15,10.44V153.65c0-1.71-.66-3.08-2.38-3.32v-.21c5.81.21,8.12,2.41,8.12,7v8.5c0,1,.35,1.44,1,1.44s1.12-.52,1.68-1.57h.21c-.56,1.92-2.45,2.83-4.55,2.83C145.08,168.32,143.82,167.34,143.82,164.37Z"/><path class="cls-1" d="M153.51,167.76c2.1,0,2.63-.91,2.63-1.78V153.55c0-1.26-.6-1.86-2.59-1.86v-.21a21.49,21.49,0,0,0,8.36-1.36V166c0,.87.53,1.78,2.63,1.78V168h-11Zm12.32,0c2.07,0,2.59-.91,2.59-1.78V155.05c0-2-1-3-2.76-3a3.72,3.72,0,0,0-2.66,1.08V153a7.14,7.14,0,0,1,5.81-2.83c3.15,0,5.39,1.47,5.39,4.93V166c0,.87.53,1.78,2.63,1.78V168h-11Z"/><path class="cls-1" d="M187.67,150.33c-2.06.24-3,2-3,8.68,0,5,2.55,7.81,5.67,7.81a7.6,7.6,0,0,0,5.11-1.86v.21c-1.82,2.31-5.15,3.15-7.42,3.15a9.15,9.15,0,0,1-9.35-9.17,9,9,0,0,1,9-9Zm7.78,3.74a3.25,3.25,0,0,1-3.5,3.36,3,3,0,0,1-3-2.2,3,3,0,0,0,1.68-2.56,2.08,2.08,0,0,0-1.51-2.31v-.24C193.66,150.12,195.45,152.08,195.45,154.07Z"/><path class="cls-1" d="M198.07,159.15a8.66,8.66,0,0,1,8.57-9v.21c-2.06.24-2.62,2-2.62,8.68,0,5,2.24,7.81,5.35,7.81a7.62,7.62,0,0,0,5.12-1.86v.21c-1.83,2.31-5.15,3.15-7.43,3.15A8.87,8.87,0,0,1,198.07,159.15Zm7.87-1.47c3.08,0,4.38-1,4.38-3.92,0-1.68-.7-3.22-2.28-3.43v-.21c4.62,0,6.87,3.29,6.87,5.95a10.9,10.9,0,0,1-.18,1.82h-8.79Z"/><path class="cls-1" d="M53.24,188.52,45.37,207h-.49l-10-21.81c-.56-1.19-1.93-1.78-3.71-1.78v-.21h9.41L47.85,199l5.39-11.17ZM38.86,206.76V207h-7.7v-.21c2.31,0,3.39-1.47,3.43-2.94l.28-15.12.28.63.28,14.49C35.46,205.33,36.55,206.76,38.86,206.76Zm21.73-21.6V205c0,.94.53,1.78,2.63,1.78V207H52v-.21c2.1,0,2.62-.84,2.62-1.78V183.17h8.58v.21C61.12,183.38,60.59,184.22,60.59,185.16Z"/><path class="cls-1" d="M74.28,189.33c-2.07.24-2.77,2-2.77,8.82,0,6.58.7,8.75,2.77,9v.21a8.92,8.92,0,0,1-8.72-9.17,8.77,8.77,0,0,1,8.72-9Zm10.08,8.82a8.92,8.92,0,0,1-8.68,9.17v-.21c2.06-.21,2.73-2.41,2.73-9,0-6.86-.7-8.61-2.73-8.82v-.21A8.72,8.72,0,0,1,84.36,198.15Z"/><path class="cls-1" d="M100.25,204.28v.21a7.32,7.32,0,0,1-6,2.83c-3.15,0-5.39-1.43-5.39-4.94V190.9H87.05l.38-.52h1.44V186.6a8.87,8.87,0,0,0,5.74-2v5.74h4.73l-.39.52H94.61v11.59c0,1.75.67,3.57,2.31,3.57A5.2,5.2,0,0,0,100.25,204.28Z"/><path class="cls-1" d="M110.26,189.33c-2.07.24-2.77,2-2.77,8.82,0,6.58.7,8.75,2.77,9v.21a8.92,8.92,0,0,1-8.72-9.17,8.77,8.77,0,0,1,8.72-9Zm10.08,8.82a8.92,8.92,0,0,1-8.68,9.17v-.21c2.06-.21,2.73-2.41,2.73-9,0-6.86-.7-8.61-2.73-8.82v-.21A8.72,8.72,0,0,1,120.34,198.15Z"/><path class="cls-1" d="M131,205c0,.87.53,1.78,2.63,1.78V207h-11v-.21c2.1,0,2.63-.91,2.63-1.78V192.55c0-1.26-.6-1.86-2.59-1.86v-.21a21.49,21.49,0,0,0,8.36-1.36Zm9.46-12.08a3.75,3.75,0,0,1-3.61,4,2.37,2.37,0,0,1-2-.77,2.57,2.57,0,0,0,1.36-2.38,1.85,1.85,0,0,0-2-1.89,2.4,2.4,0,0,0-2.1,1.33v-.28a4.85,4.85,0,0,1,4.55-3.78A3.55,3.55,0,0,1,140.5,192.9Z"/><path class="cls-1" d="M151.34,189.33c-2.06.24-3,2-3,8.68,0,5,2.55,7.81,5.67,7.81a7.58,7.58,0,0,0,5.11-1.86v.21c-1.82,2.31-5.15,3.15-7.42,3.15a9.15,9.15,0,0,1-9.35-9.17,9,9,0,0,1,9-9Zm7.78,3.74a3.25,3.25,0,0,1-3.5,3.36,3,3,0,0,1-3.05-2.2,3,3,0,0,0,1.68-2.56,2.08,2.08,0,0,0-1.5-2.31v-.24C157.33,189.12,159.12,191.08,159.12,193.07Z"/><path class="cls-1" d="M162,190.9a1.9,1.9,0,0,0-1.93-1.22v-.21h9.8v.21c-1.22,0-1.71.84-1.12,2.06l4.59,9.56-3,5.67h-.21Zm-1.54,21.71c0-1.51,1.19-2.77,3.08-3.29a2.51,2.51,0,0,0-.14.87,2,2,0,0,0,2.06,2.35c1.23,0,2.21-1.3,3.54-3.54h.24c-1.92,3.61-3.25,6.72-5.7,6.72A2.91,2.91,0,0,1,160.48,212.61Zm14.35-14.74a9.56,9.56,0,0,0,1-4.52,3.38,3.38,0,0,0-3.57-3.67v-.21H181v.21c-1.16,0-1.61.45-2.28,1.64L175,198.18Z"/><path class="cls-1" d="M190.09,189.33c-2.07.24-3,2-3,8.68,0,5,2.56,7.81,5.68,7.81A7.62,7.62,0,0,0,197.9,204v.21c-1.82,2.31-5.15,3.15-7.43,3.15a9.15,9.15,0,0,1-9.34-9.17,9,9,0,0,1,9-9Zm7.77,3.74a3.25,3.25,0,0,1-3.5,3.36,3,3,0,0,1-3.05-2.2,3,3,0,0,0,1.69-2.56,2.08,2.08,0,0,0-1.51-2.31v-.24C196.08,189.12,197.86,191.08,197.86,193.07Z"/><path class="cls-1" d="M199.68,182.61a21.3,21.3,0,0,0,8.36-1.37V205c0,.87.53,1.78,2.63,1.78V207h-11v-.21c2.1,0,2.63-.91,2.63-1.78V184.67c0-1.26-.6-1.85-2.59-1.85Z"/><path class="cls-1" d="M212.77,198.15a8.66,8.66,0,0,1,8.57-9v.21c-2.06.24-2.62,2-2.62,8.68,0,5,2.24,7.81,5.35,7.81a7.58,7.58,0,0,0,5.11-1.86v.21c-1.81,2.31-5.14,3.15-7.42,3.15A8.87,8.87,0,0,1,212.77,198.15Zm7.87-1.47c3.08,0,4.38-1,4.38-3.92,0-1.68-.7-3.22-2.28-3.43v-.21c4.63,0,6.87,3.29,6.87,5.95a9.94,9.94,0,0,1-.18,1.82h-8.79Z"/><rect class="cls-2" y="0.48" width="320" height="600"/></svg>