<svg id="Layer_1" data-name="Layer 1" xmlns="http://www.w3.org/2000/svg" viewBox="0 0 320 600"><defs><style>.cls-1{fill:#ffac00;}.cls-2{fill:#fff;}.cls-3{fill:none;}</style></defs><title>Artboard 1 copy</title><path class="cls-1" d="M30,245.44v48.64a17.35,17.35,0,0,0,9.35,15.39l72.89,37.81a21.67,21.67,0,0,0,20,0l72.88-37.81a17.34,17.34,0,0,0,9.36-15.39V245.44a8.1,8.1,0,0,0-8.1-8.09H38.1A8.09,8.09,0,0,0,30,245.44Z"/><path class="cls-2" d="M107.78,272.05l.33-.48c.24-.33.5-.34.87-.13a3.76,3.76,0,0,0,2.17.78c1,0,1.59-.5,1.59-1.22,0-2-5-1.6-5-4.92,0-1.88,1.56-3.09,3.59-3.09a4.93,4.93,0,0,1,2.74.81.59.59,0,0,1,.2.85l-.27.5c-.23.43-.54.37-.86.21a3.42,3.42,0,0,0-1.84-.59c-1,0-1.63.48-1.63,1.2,0,2,5,1.49,5,4.88a3.19,3.19,0,0,1-3.52,3.16,5.64,5.64,0,0,1-3.28-1.09A.56.56,0,0,1,107.78,272.05Z"/><path class="cls-2" d="M119,264.83H116.1a.55.55,0,0,1-.63-.61v-.42a.56.56,0,0,1,.63-.63h7.66a.55.55,0,0,1,.61.63v.42a.54.54,0,0,1-.61.61h-2.87v8.36a.56.56,0,0,1-.63.64h-.68c-.4,0-.61-.21-.61-.64Z"/><path class="cls-2" d="M126.9,263.68a.68.68,0,0,1,.71-.51h1a.67.67,0,0,1,.71.51l3.33,9.42c.15.44-.05.73-.51.73h-.69a.68.68,0,0,1-.71-.52l-.75-2.22h-3.74l-.73,2.21a.68.68,0,0,1-.71.53h-.69c-.46,0-.66-.29-.51-.73Zm2.57,5.84-.95-2.85c-.18-.61-.42-1.66-.42-1.66h0s-.24,1.05-.42,1.66l-1,2.85Z"/><path class="cls-2" d="M134,263.8a.56.56,0,0,1,.62-.63h2.88a5,5,0,0,1,2,.28,3,3,0,0,1,1.78,2.91,3.08,3.08,0,0,1-1.77,2.92v0a3.27,3.27,0,0,1,.35.55l1.75,3.21c.26.44.06.76-.43.76h-.81a.77.77,0,0,1-.74-.44l-1.87-3.54h-1.87v3.34c0,.43-.21.64-.61.64h-.69a.56.56,0,0,1-.62-.64Zm3.67,4.37a1.57,1.57,0,0,0,1.68-1.7,1.44,1.44,0,0,0-.84-1.46,2.7,2.7,0,0,0-1.16-.18h-1.43v3.34Z"/><path class="cls-2" d="M108.49,276.82a.33.33,0,0,1,.36-.38h.31a.34.34,0,0,1,.36.38v9.8a.34.34,0,0,1-.36.38h-.31a.33.33,0,0,1-.36-.38Z"/><path class="cls-2" d="M112,279.82a.34.34,0,0,1,.38-.37h.27a.33.33,0,0,1,.36.37v.87a2.48,2.48,0,0,1-.06.54h0a3.32,3.32,0,0,1,3-2c1.88,0,2.54,1.06,2.54,2.92v4.43a.34.34,0,0,1-.37.38h-.29a.33.33,0,0,1-.36-.38v-4.16c0-1.18-.19-2.23-1.65-2.23A2.93,2.93,0,0,0,113,283.3v3.32a.33.33,0,0,1-.36.38h-.28a.35.35,0,0,1-.38-.38Z"/><path class="cls-2" d="M120.2,285.79l.12-.15c.14-.18.3-.19.51-.06a3.23,3.23,0,0,0,2,.7c.84,0,1.53-.43,1.53-1.22,0-1.7-4-1.19-4-3.68,0-1.39,1.19-2.11,2.57-2.11a3.51,3.51,0,0,1,2.07.61.33.33,0,0,1,.11.5l-.11.16a.33.33,0,0,1-.51.11,2.76,2.76,0,0,0-1.62-.48c-.8,0-1.49.34-1.49,1.17,0,1.74,4,1.18,4,3.7a2.27,2.27,0,0,1-2.55,2.14,4,4,0,0,1-2.56-.87A.35.35,0,0,1,120.2,285.79Z"/><path class="cls-2" d="M126.88,279.82a.33.33,0,0,1,.36-.37h.29a.33.33,0,0,1,.37.37V284c0,1.18.18,2.24,1.64,2.24a2.94,2.94,0,0,0,2.79-3.16v-3.24a.34.34,0,0,1,.38-.37H133a.33.33,0,0,1,.36.37v6.8a.33.33,0,0,1-.36.38h-.27a.33.33,0,0,1-.36-.38v-.87a3.66,3.66,0,0,1,0-.54h0a3.27,3.27,0,0,1-3,2c-1.78,0-2.52-1-2.52-2.93Z"/><path class="cls-2" d="M135.56,279.82a.34.34,0,0,1,.38-.37h.27a.33.33,0,0,1,.36.37v1a3.08,3.08,0,0,1-.06.6h0a2.7,2.7,0,0,1,2.43-2c.27,0,.39.12.39.36V280a.37.37,0,0,1-.42.38c-1.59,0-2.36,1.81-2.36,3.39v2.82a.33.33,0,0,1-.36.38h-.28a.35.35,0,0,1-.38-.38Z"/><path class="cls-2" d="M144.56,282.37H145v-.24c0-1.45-.79-1.95-1.86-1.95a3.55,3.55,0,0,0-1.83.53.36.36,0,0,1-.51-.12l-.09-.15a.34.34,0,0,1,.11-.51,4.6,4.6,0,0,1,2.4-.66,2.56,2.56,0,0,1,2.8,2.89v4.46a.33.33,0,0,1-.36.38h-.24a.33.33,0,0,1-.37-.38V286a3.52,3.52,0,0,1,0-.57h0a2.8,2.8,0,0,1-2.55,1.73A2.32,2.32,0,0,1,140,285C140,282.51,143.1,282.37,144.56,282.37Zm-1.88,3.95c1.46,0,2.31-1.5,2.31-2.82v-.36h-.42c-1.18,0-3.57,0-3.57,1.74A1.52,1.52,0,0,0,142.68,286.32Z"/><path class="cls-2" d="M148.16,279.82a.33.33,0,0,1,.37-.37h.27a.33.33,0,0,1,.36.37v.87a2.48,2.48,0,0,1-.06.54h0a3.35,3.35,0,0,1,3.05-2c1.87,0,2.53,1.06,2.53,2.92v4.43a.34.34,0,0,1-.37.38h-.29a.33.33,0,0,1-.36-.38v-4.16c0-1.18-.19-2.23-1.65-2.23a2.92,2.92,0,0,0-2.86,3.07v3.32a.33.33,0,0,1-.36.38h-.29a.34.34,0,0,1-.37-.38Z"/><path class="cls-2" d="M160.36,279.27a4,4,0,0,1,2.51.85.32.32,0,0,1,0,.51l-.1.17c-.14.21-.3.21-.51.07a3.15,3.15,0,0,0-1.91-.69,3,3,0,0,0,0,6.08,3.3,3.3,0,0,0,2.13-.8.3.3,0,0,1,.49.09l.11.15a.38.38,0,0,1-.09.52,4.22,4.22,0,0,1-2.69,1,4,4,0,1,1,0-7.91Z"/><path class="cls-2" d="M167.8,279.27c2,0,3.15,1.45,3.15,3.6a.37.37,0,0,1-.39.37h-5.44a2.89,2.89,0,0,0,2.93,3,3.21,3.21,0,0,0,2-.69.31.31,0,0,1,.5.09l.12.18a.36.36,0,0,1-.11.5,4.27,4.27,0,0,1-2.52.84,3.82,3.82,0,0,1-4-3.95A3.68,3.68,0,0,1,167.8,279.27Zm2.11,3.21a2.17,2.17,0,0,0-2.14-2.37,2.6,2.6,0,0,0-2.6,2.37Z"/><path class="cls-2" d="M108.67,291.12a.59.59,0,0,1,.64-.6h1a.69.69,0,0,1,.71.51l1.9,4.76c.24.63.54,1.56.54,1.56h0s.29-.93.53-1.56l1.9-4.76a.69.69,0,0,1,.72-.51h.93a.59.59,0,0,1,.65.6l.77,9.41a.54.54,0,0,1-.6.65h-.68a.59.59,0,0,1-.65-.6l-.4-5.36c0-.71,0-1.65,0-1.65h0s-.33,1-.57,1.65l-1.54,3.63a.69.69,0,0,1-.71.5h-.63a.7.7,0,0,1-.72-.5l-1.53-3.63c-.24-.62-.59-1.67-.59-1.67h0s0,1,0,1.67l-.41,5.36a.58.58,0,0,1-.64.6h-.68a.54.54,0,0,1-.6-.65Z"/><path class="cls-2" d="M124.53,293.34a4,4,0,1,1-4.21,4A4,4,0,0,1,124.53,293.34Zm0,6.4a2.39,2.39,0,1,0-2.27-2.39A2.28,2.28,0,0,0,124.53,299.74Z"/><path class="cls-2" d="M130.32,295.14h-.4a.55.55,0,0,1-.62-.63v-.25a.56.56,0,0,1,.63-.63h.44v-1.56a.57.57,0,0,1,.63-.63h.6a.57.57,0,0,1,.63.63v1.56h1.11a.57.57,0,0,1,.63.63v.25a.55.55,0,0,1-.61.63h-1.13v3a1.24,1.24,0,0,0,1.23,1.42c.47,0,.63.2.63.62v.46c0,.45-.25.63-.78.63a2.74,2.74,0,0,1-3-2.8Z"/><path class="cls-2" d="M138.84,293.34a4,4,0,1,1-4.21,4A4,4,0,0,1,138.84,293.34Zm0,6.4a2.39,2.39,0,1,0-2.27-2.39A2.28,2.28,0,0,0,138.84,299.74Z"/><path class="cls-2" d="M144.45,294.15a.56.56,0,0,1,.62-.63h.58a.57.57,0,0,1,.63.63v.72a3.6,3.6,0,0,1,0,.53h0a2.63,2.63,0,0,1,2.22-1.94c.42,0,.57.21.57.63v.59a.58.58,0,0,1-.65.63c-1.39,0-2.07,1.38-2.07,2.78v2.46a.55.55,0,0,1-.61.63h-.66a.55.55,0,0,1-.62-.63Z"/><path class="cls-2" d="M153.64,293.34a4.22,4.22,0,0,1,2.5.77.55.55,0,0,1,.12.85l-.19.31c-.23.34-.48.34-.84.16a2.71,2.71,0,0,0-1.49-.47,2.28,2.28,0,0,0-2.33,2.38,2.32,2.32,0,0,0,2.39,2.4,3,3,0,0,0,1.71-.59c.38-.21.66-.16.86.2l.15.28a.59.59,0,0,1-.17.84,4.48,4.48,0,0,1-2.71.89,4,4,0,1,1,0-8Z"/><path class="cls-2" d="M158.13,302.62a1.33,1.33,0,0,0,.54.14,1.47,1.47,0,0,0,1.22-1l.28-.67-2.91-6.8c-.19-.44,0-.74.48-.74h.81a.68.68,0,0,1,.71.51l1.44,3.91c.13.4.28,1,.28,1h0s.14-.6.26-1l1.35-3.92a.66.66,0,0,1,.7-.53h.76a.49.49,0,0,1,.51.72l-3.16,8.08a2.88,2.88,0,0,1-2.76,2,3,3,0,0,1-1.06-.22.55.55,0,0,1-.29-.81l.14-.33A.54.54,0,0,1,158.13,302.62Z"/><path class="cls-2" d="M169.16,293.34a4.26,4.26,0,0,1,2.51.77.55.55,0,0,1,.12.85l-.19.31c-.23.34-.49.34-.85.16a2.64,2.64,0,0,0-1.48-.47,2.28,2.28,0,0,0-2.33,2.38,2.32,2.32,0,0,0,2.39,2.4,3,3,0,0,0,1.71-.59c.38-.21.66-.16.86.2l.15.28a.59.59,0,0,1-.17.84,4.51,4.51,0,0,1-2.72.89,4,4,0,1,1,0-8Z"/><path class="cls-2" d="M173.32,291.15a.56.56,0,0,1,.62-.63h.66a.56.56,0,0,1,.61.63v7.49c0,.75.32.89.6.92a.49.49,0,0,1,.47.54v.51a.56.56,0,0,1-.63.64c-1,0-2.33-.27-2.33-2.46Z"/><path class="cls-2" d="M180.79,293.34c2.18,0,3.4,1.55,3.4,3.65a.67.67,0,0,1-.67.65h-4.66a2.2,2.2,0,0,0,2.29,2.1,3.1,3.1,0,0,0,1.65-.5c.38-.18.65-.13.84.21l.19.3a.56.56,0,0,1-.22.84,4.75,4.75,0,0,1-2.59.77,3.92,3.92,0,0,1-4.11-4A3.77,3.77,0,0,1,180.79,293.34Zm1.5,3.14a1.56,1.56,0,0,0-1.54-1.7,1.87,1.87,0,0,0-1.85,1.7Z"/><path class="cls-2" d="M72.29,296.39a1.07,1.07,0,0,1-.48-.12,1,1,0,0,1-.53-1.27L82.4,260.81a2.33,2.33,0,0,1,2.25-1.64h0a2.33,2.33,0,0,1,2.26,1.64l2.25,6.77a.81.81,0,1,1-1.53.51l-2.25-6.78a.73.73,0,0,0-.73-.53h0a.73.73,0,0,0-.72.52L73.88,292.23,88,272.86a4.44,4.44,0,0,1,3.56-1.81H101a2.38,2.38,0,0,1,1.39,4.3l-8.62,6.26-.09.08L97,291.94a2.32,2.32,0,0,1-.86,2.65,2.36,2.36,0,0,1-2.79,0l-7.45-5.42a2.35,2.35,0,0,1-1-1.92,2.38,2.38,0,0,1,1-1.92l6.25-4.52.09-.09,9.2-6.68a.77.77,0,0,0-.45-1.38H91.59a2.81,2.81,0,0,0-2.26,1.15L73.15,296A1.07,1.07,0,0,1,72.29,296.39Zm20-13.71-5.46,4a.77.77,0,0,0,0,1.23l7.46,5.42a.76.76,0,0,0,1.17-.86Z"/><path class="cls-2" d="M72.87,279.39a.83.83,0,0,1-.47-.14l-5.5-3.9a2.37,2.37,0,0,1,1.39-4.3H75a.81.81,0,1,1,0,1.61H68.29a.74.74,0,0,0-.72.53.72.72,0,0,0,.27.85l5.49,3.89a.8.8,0,0,1,.2,1.12A.79.79,0,0,1,72.87,279.39Z"/><path class="cls-2" d="M80.36,307.74a2.57,2.57,0,0,1-1.29-.34l-14.06-8a.8.8,0,0,1-.4-.7V281.58a.8.8,0,0,1,.8-.8.81.81,0,0,1,.81.8v16.68L79.86,306a1,1,0,0,0,1,0l10-6.24a.8.8,0,1,1,.85,1.36l-10,6.24A2.54,2.54,0,0,1,80.36,307.74Z"/><rect class="cls-3" width="320" height="600"/></svg>