<?xml version="1.0" encoding="utf-8"?>
<!-- Generator: Adobe Illustrator 24.0.3, SVG Export Plug-In . SVG Version: 6.00 Build 0)  -->
<svg version="1.1" id="Layer_1" xmlns="http://www.w3.org/2000/svg" xmlns:xlink="http://www.w3.org/1999/xlink" x="0px" y="0px"
	 viewBox="0 0 320 480" style="enable-background:new 0 0 320 480;" xml:space="preserve">
<style type="text/css">
	.st0{clip-path:url(#SVGID_2_);}
	.st1{enable-background:new    ;}
	.st2{fill:#FFFFFF;}
</style>
<title>Artboard 1 copy 2</title>
<g>
	<defs>
		<rect id="SVGID_1_" x="0.1" y="0" width="320" height="480"/>
	</defs>
	<clipPath id="SVGID_2_">
		<use xlink:href="#SVGID_1_"  style="overflow:visible;"/>
	</clipPath>
	<g class="st0">
		<g class="st1">
			<path class="st2" d="M48.8,54.1l0.2,0.3c-2.1,3.4-5.9,5-9.9,5c-6.7,0-15-4.8-15-14.3c0-10.4,8.1-14.2,14-14.4v0.2
				c-2.9,0.6-6,3.3-6,13.9c0,10.5,4.2,13,8.9,13C44.7,57.8,47.4,55.9,48.8,54.1z M49.1,30.7v10h-0.3c-1.6-5.5-4.6-8.6-8.7-9.7v-0.2
				c3.6,0.2,5.7,0.8,7.4,1.9l1.2-1.9H49.1z"/>
		</g>
		<g class="st1">
			<path class="st2" d="M62.2,38.3c-2.4,0.3-3.2,2.3-3.2,10.3c0,7.7,0.8,10.3,3.2,10.5v0.2c-4.7,0-10.2-3.9-10.2-10.8
				s5.4-10.6,10.2-10.6V38.3z M74.1,48.7c0,6.9-5.5,10.8-10.2,10.8v-0.2c2.4-0.2,3.2-2.8,3.2-10.5c0-8-0.8-10.1-3.2-10.3v-0.2
				C68.6,38.1,74.1,41.7,74.1,48.7z"/>
			<path class="st2" d="M76.8,58.8c2.5,0,3.1-1.1,3.1-2.1V42.1c0-1.5-0.7-2.2-3-2.2v-0.2c3.8,0,6.9-0.4,9.8-1.6v18.6
				c0,1,0.6,2.1,3.1,2.1V59H76.8V58.8z M91.2,58.8c2.4,0,3-1.1,3-2.1V43.9c0-2.3-1.2-3.5-3.2-3.5c-1.1,0-2.1,0.4-3.1,1.3v-0.2
				c1.1-1.7,3.8-3.3,6.8-3.3c3.7,0,6.3,1.7,6.3,5.8v12.8c0,1,0.6,2.1,3.1,2.1V59H91.2V58.8z"/>
			<path class="st2" d="M121.5,55.9v0.2c-1.3,1.9-3.9,3.3-7,3.3c-3.7,0-6.3-1.7-6.3-5.8V40.2H106l0.5-0.6h1.7v-4.4
				c2.5,0,5-0.8,6.7-2.3v6.7h5.5l-0.5,0.6h-5.1v13.6c0,2.1,0.8,4.2,2.7,4.2C118.8,58,120.2,57.2,121.5,55.9z"/>
			<path class="st2" d="M122.8,54.2c0-3.6,3.3-5.6,7.9-5.6h4.4v0.2h-1.2c-3,0-4.4,1.9-4.4,4.5c0,2.3,0.7,4,2.6,4
				c1.1,0,2.1-0.6,3-1.4v0.2c-1.4,1.6-3.5,3.3-6.5,3.3C125.1,59.4,122.8,57.5,122.8,54.2z M124.5,42.6c0-2.1,1.9-4.2,7.5-4.5v0.2
				c-1.6,0.2-2.6,1.6-2.6,3c0,1.5,1,2.4,2.7,2.5c-0.6,1.1-2.3,2-3.9,2C125.8,45.8,124.5,44.3,124.5,42.6z M136.4,54.8V42.2
				c0-2-0.8-3.6-2.8-3.9v-0.2c6.8,0.2,9.5,2.8,9.5,8.2v10c0,1.2,0.4,1.7,1.1,1.7c0.6,0,1.3-0.6,2-1.8h0.2c-0.7,2.3-2.9,3.3-5.3,3.3
				C137.9,59.4,136.4,58.3,136.4,54.8z"/>
			<path class="st2" d="M159,38.3c-2.4,0.3-3.5,2.3-3.5,10.2c0,5.9,3,9.2,6.7,9.2c2.3,0,4.1-0.7,6-2.2v0.2c-2.1,2.7-6,3.7-8.7,3.7
				c-5.3,0-11-3.9-11-10.8s5.7-10.6,10.5-10.6V38.3z M168.1,42.7c0,2.2-1.5,3.9-4.1,3.9c-2,0-3.3-1.3-3.6-2.6c1.1-0.5,2-1.9,2-3
				c0-0.9-0.2-2.4-1.8-2.7v-0.3C166,38.1,168.1,40.4,168.1,42.7z"/>
			<path class="st2" d="M186.4,55.9v0.2c-1.3,1.9-3.9,3.3-7,3.3c-3.7,0-6.3-1.7-6.3-5.8V40.2h-2.1l0.5-0.6h1.7v-4.4
				c2.5,0,5-0.8,6.7-2.3v6.7h5.5l-0.5,0.6h-5.1v13.6c0,2.1,0.8,4.2,2.7,4.2C183.7,58,185,57.2,186.4,55.9z"/>
		</g>
		<g class="st1">
			<path class="st2" d="M24.1,81.2c-0.4-0.9-1-1.4-2.3-1.4v-0.2h11.5v0.2c-1.4,0-2,1-1.3,2.4l5.4,11.2l-3.5,6.7h-0.2L24.1,81.2z
				 M22.3,106.7c0-1.8,1.4-3.2,3.6-3.9c-0.1,0.4-0.2,0.7-0.2,1c0,1.6,0.8,2.8,2.4,2.8c1.4,0,2.6-1.5,4.1-4.1h0.3
				c-2.3,4.2-3.8,7.9-6.7,7.9C23.6,110.4,22.3,108.8,22.3,106.7z M39.2,89.4c0.7-1.3,1.1-3.1,1.1-5.3c0-2.3-1.3-4.3-4.2-4.3v-0.2
				h10.2v0.2c-1.4,0-1.9,0.5-2.7,1.9l-4.3,8L39.2,89.4z"/>
		</g>
		<g class="st1">
			<path class="st2" d="M56.8,79.4c-2.4,0.3-3.2,2.3-3.2,10.3c0,7.7,0.8,10.3,3.2,10.5v0.2c-4.7,0-10.2-3.9-10.2-10.8
				S52,79.2,56.8,79.1V79.4z M68.6,89.7c0,6.9-5.5,10.8-10.2,10.8v-0.2c2.4-0.2,3.2-2.8,3.2-10.5c0-8-0.8-10.1-3.2-10.3v-0.2
				C63.2,79.1,68.6,82.8,68.6,89.7z"/>
			<path class="st2" d="M80.7,94.7c0,2.3,0.8,3.5,2.8,3.5c1.1,0,1.9-0.3,2.8-1.3v0.2c-0.9,1.8-3,3.3-6.4,3.3c-3.7,0-6.1-1.7-6.1-5.8
				V83.2c0-1.5-0.7-2.2-3-2.2v-0.2c3.8,0,6.9-0.4,9.8-1.6V94.7z M94.4,97.3c0,1.2,0.4,1.7,1.1,1.7c0.6,0,1.3-0.6,2-1.8h0.2
				c-0.7,2.3-2.9,3.3-5.6,3.3c-2.9,0-4.5-1.6-4.5-4V83.2c0-1.5-0.7-2.2-2.9-2.2v-0.2c3.7,0,6.2-0.4,9.7-1.6V97.3z"/>
		</g>
		<g class="st1">
			<path class="st2" d="M109.2,97.7c0,1,0.6,2.1,3.1,2.1v0.2H99.4v-0.2c2.5,0,3.1-1.1,3.1-2.1V83.2c0-1.5-0.7-2.2-3-2.2v-0.2
				c3.8,0,6.9-0.4,9.8-1.6V97.7z M120.3,83.6c0,2.8-2,4.7-4.2,4.7c-1,0-1.8-0.2-2.3-0.9c0.8-0.4,1.6-1.3,1.6-2.8
				c0-1.2-0.9-2.2-2.3-2.2c-1.1,0-1.9,0.6-2.5,1.6v-0.3c0.8-2.6,2.8-4.4,5.3-4.4C118.7,79.1,120.3,81.1,120.3,83.6z"/>
		</g>
		<g class="st1">
			<path class="st2" d="M32.2,136c0,3.9-2.7,5.6-6.8,5.6V115c0-1.5-0.7-2.2-3.1-2.2v-0.2c3.8,0,6.4-0.4,9.9-1.6V136z M47.9,130.7
				c0,8.6-4.6,10.9-8.5,10.9c-2.3,0-4.9-1.6-6-3.3V138c1,0.8,2.1,1.4,3.4,1.4c1.9,0,4-1.4,4-8.7c0-7.4-2-8.4-4-8.4
				c-1.3,0-2.5,0.5-3.4,1.5v-0.3c1-1.7,3.6-3.3,6-3.3C43.4,120.2,47.9,122.5,47.9,130.7z"/>
		</g>
		<g class="st1">
			<path class="st2" d="M60.6,138.8c0,1,0.6,2.1,3.1,2.1v0.2H50.7v-0.2c2.5,0,3.1-1.1,3.1-2.1v-14.6c0-1.5-0.7-2.2-3-2.2v-0.2
				c3.8,0,6.9-0.4,9.8-1.6V138.8z M71.7,124.6c0,2.8-2,4.7-4.2,4.7c-1,0-1.8-0.2-2.3-0.9c0.8-0.4,1.6-1.3,1.6-2.8
				c0-1.2-0.9-2.2-2.3-2.2c-1.1,0-1.9,0.6-2.5,1.6v-0.3c0.8-2.6,2.8-4.4,5.3-4.4C70.1,120.2,71.7,122.2,71.7,124.6z"/>
		</g>
		<g class="st1">
			<path class="st2" d="M84.1,120.5c-2.4,0.3-3.2,2.3-3.2,10.3c0,7.7,0.8,10.3,3.2,10.5v0.2c-4.7,0-10.2-3.9-10.2-10.8
				c0-6.9,5.4-10.6,10.2-10.6V120.5z M95.9,130.8c0,6.9-5.5,10.8-10.2,10.8v-0.2c2.4-0.2,3.2-2.8,3.2-10.5c0-8-0.8-10.1-3.2-10.3
				v-0.2C90.5,120.2,95.9,123.9,95.9,130.8z"/>
		</g>
		<g class="st1">
			<path class="st2" d="M111.3,140.9v0.2H98.4v-0.2c2.5,0,3.1-1.1,3.1-2.1V115c0-1.5-0.7-2.2-3-2.2v-0.2c3.8,0,6.9-0.4,9.8-1.6v27.8
				C108.3,139.8,108.9,140.9,111.3,140.9z M125.3,140.9v0.2c-1.1,0.3-2.7,0.4-4.1,0.4c-2.5,0-5.3-0.5-7.4-4l-3.9-6.4
				c3.2-2.8,6.3-6.3,6.3-8.4c0-1.1-0.5-1.9-2.4-1.9v-0.2h10.5v0.2c-0.9,0-1.7,0.3-2.3,0.7l-7.5,6l7.1,11
				C122.9,140.6,123.9,140.7,125.3,140.9z"/>
		</g>
		<g class="st1">
			<path class="st2" d="M125.5,130.8c0-6.9,5.3-10.6,10.1-10.6v0.2c-2.4,0.3-3.1,2.3-3.1,10.2c0,5.9,2.6,9.2,6.3,9.2
				c2.3,0,4.1-0.7,6-2.2v0.2c-2.1,2.7-6,3.7-8.7,3.7C130.8,141.6,125.5,137.7,125.5,130.8z M134.7,129.1c3.6,0,5.1-1.1,5.1-4.6
				c0-2-0.8-3.8-2.7-4v-0.2c5.4,0,8,3.9,8,7c0,0.7-0.1,1.5-0.2,2.1h-10.3V129.1z"/>
		</g>
		<g class="st1">
			<path class="st2" d="M157.7,138.8c0,1,0.6,2.1,3.1,2.1v0.2h-12.9v-0.2c2.5,0,3.1-1.1,3.1-2.1v-14.6c0-1.5-0.7-2.2-3-2.2v-0.2
				c3.8,0,6.9-0.4,9.8-1.6V138.8z M168.8,124.6c0,2.8-2,4.7-4.2,4.7c-1,0-1.8-0.2-2.3-0.9c0.8-0.4,1.6-1.3,1.6-2.8
				c0-1.2-0.9-2.2-2.3-2.2c-1.1,0-1.9,0.6-2.5,1.6v-0.3c0.8-2.6,2.8-4.4,5.3-4.4C167.3,120.2,168.8,122.2,168.8,124.6z"/>
		</g>
		<g class="st1">
			<path class="st2" d="M39,179v0.2c-1.3,1.9-3.9,3.3-7,3.3c-3.7,0-6.3-1.7-6.3-5.8v-13.5h-2.1l0.5-0.6h1.7v-4.4
				c2.5,0,5-0.8,6.7-2.3v6.7h5.5l-0.5,0.6h-5.1V177c0,2.1,0.8,4.2,2.7,4.2C36.2,181.1,37.6,180.4,39,179z"/>
		</g>
		<g class="st1">
			<path class="st2" d="M50.7,161.5c-2.4,0.3-3.2,2.3-3.2,10.3c0,7.7,0.8,10.3,3.2,10.5v0.2c-4.7,0-10.2-3.9-10.2-10.8
				s5.4-10.6,10.2-10.6V161.5z M62.6,171.9c0,6.9-5.5,10.8-10.2,10.8v-0.2c2.4-0.2,3.2-2.8,3.2-10.5c0-8-0.8-10.1-3.2-10.3v-0.2
				C57.1,161.3,62.6,164.9,62.6,171.9z"/>
			<path class="st2" d="M80.6,164.6v0.3c-0.9-1-2.1-1.5-3.4-1.5c-2.1,0-4,0.9-4,8.4c0,7.4,2.1,8.7,4,8.7c1.3,0,2.4-0.7,3.4-1.4v0.2
				c-1,1.7-3.6,3.3-6,3.3c-3.9,0-8.5-2.3-8.5-10.9c0-8.2,4.5-10.5,8.5-10.5C77,161.3,79.6,162.8,80.6,164.6z M88.6,179.5
				c0,1.2,0.4,1.7,1.1,1.7c0.6,0,1.3-0.6,2-1.8h0.2c-0.7,2.3-2.9,3.3-5.3,3.3c-3.3,0-4.8-1.1-4.8-4.6v-21.9c0-1.5-0.7-2.2-3-2.2
				v-0.2c3.8,0,6.4-0.4,9.8-1.6V179.5z"/>
		</g>
		<g class="st1">
			<path class="st2" d="M93.9,177.4c0-3.6,3.3-5.6,7.9-5.6h4.4v0.2H105c-3,0-4.4,1.9-4.4,4.5c0,2.3,0.7,4,2.6,4c1.1,0,2.1-0.6,3-1.4
				v0.2c-1.4,1.6-3.5,3.3-6.5,3.3C96.2,182.6,93.9,180.6,93.9,177.4z M95.5,165.7c0-2.1,1.9-4.2,7.5-4.5v0.2c-1.6,0.2-2.6,1.6-2.6,3
				c0,1.5,1,2.4,2.7,2.5c-0.6,1.1-2.3,2-3.9,2C96.9,169,95.5,167.5,95.5,165.7z M107.4,178v-12.6c0-2-0.8-3.6-2.8-3.9v-0.2
				c6.8,0.2,9.5,2.8,9.5,8.2v10c0,1.2,0.4,1.7,1.1,1.7c0.6,0,1.3-0.6,2-1.8h0.2c-0.7,2.3-2.9,3.3-5.3,3.3
				C108.9,182.6,107.4,181.5,107.4,178z"/>
		</g>
		<g class="st1">
			<path class="st2" d="M118.9,163.4c-0.4-0.9-1-1.4-2.3-1.4v-0.2h11.5v0.2c-1.4,0-2,1-1.3,2.4l5.4,11.2l-3.5,6.7h-0.2L118.9,163.4z
				 M117,188.8c0-1.8,1.4-3.2,3.6-3.9c-0.1,0.4-0.2,0.7-0.2,1c0,1.6,0.8,2.8,2.4,2.8c1.4,0,2.6-1.5,4.1-4.1h0.3
				c-2.3,4.2-3.8,7.9-6.7,7.9C118.4,192.5,117,190.9,117,188.8z M133.9,171.5c0.7-1.3,1.1-3.1,1.1-5.3c0-2.3-1.3-4.3-4.2-4.3v-0.2
				h10.2v0.2c-1.4,0-1.9,0.5-2.7,1.9l-4.3,8L133.9,171.5z"/>
		</g>
	</g>
</g>
</svg>
