<?xml version="1.0" encoding="utf-8"?>
<!-- Generator: Adobe Illustrator 24.0.3, SVG Export Plug-In . SVG Version: 6.00 Build 0)  -->
<svg version="1.1" id="Layer_1" xmlns="http://www.w3.org/2000/svg" xmlns:xlink="http://www.w3.org/1999/xlink" x="0px" y="0px"
	 viewBox="0 0 320 480" style="enable-background:new 0 0 320 480;" xml:space="preserve">
<style type="text/css">
	.st0{clip-path:url(#SVGID_2_);}
	.st1{enable-background:new    ;}
	.st2{fill:#263845;}
</style>
<title>Artboard 1 copy 3</title>
<g>
	<defs>
		<rect id="SVGID_1_" y="0" width="320" height="480"/>
	</defs>
	<clipPath id="SVGID_2_">
		<use xlink:href="#SVGID_1_"  style="overflow:visible;"/>
	</clipPath>
	<g class="st0">
		<g class="st1">
			<path class="st2" d="M28.4,31.7c0-1.1-0.6-2.1-3.1-2.1v-0.2h13.1v0.2c-2.5,0-3.1,1-3.1,2.1v17.9c0,3.9,1.1,7.5,3.9,7.8v0.2
				c-8.6,0-10.9-4.1-10.9-8.2V31.7z M49.9,49.5c0,4.1-2.4,8.2-8.6,8.2v-0.2c5.3-0.1,7.8-3.9,7.8-7.8V34.7c0-2.6-1.4-5.1-4.1-5.1
				v-0.2h9v0.2c-2.7,0-4.1,2.5-4.1,5.1V49.5z"/>
		</g>
		<g class="st1">
			<path class="st2" d="M54.8,57c2.5,0,3.1-1.1,3.1-2.1V40.4c0-1.5-0.7-2.2-3-2.2v-0.2c3.8,0,6.9-0.4,9.8-1.6v18.6
				c0,1,0.6,2.1,3.1,2.1v0.2H54.8V57z M69.2,57c2.4,0,3-1.1,3-2.1V42.1c0-2.3-1.2-3.5-3.2-3.5c-1.1,0-2.1,0.4-3.1,1.3v-0.2
				c1.1-1.7,3.8-3.3,6.8-3.3c3.7,0,6.3,1.7,6.3,5.8v12.8c0,1,0.6,2.1,3.1,2.1v0.2H69.2V57z"/>
			<path class="st2" d="M92.8,52.1c0,3.9-2.7,5.6-6.8,5.6V31.1c0-1.5-0.7-2.2-3.1-2.2v-0.2c3.8,0,6.4-0.4,9.9-1.6V52.1z M108.4,46.8
				c0,8.6-4.6,10.9-8.5,10.9c-2.3,0-4.9-1.6-6-3.3v-0.2c1,0.8,2.1,1.4,3.4,1.4c1.9,0,4-1.4,4-8.7c0-7.4-2-8.4-4-8.4
				c-1.3,0-2.5,0.5-3.4,1.5v-0.3c1-1.7,3.6-3.3,6-3.3C103.9,36.3,108.4,38.6,108.4,46.8z"/>
			<path class="st2" d="M112,46.9c0-6.9,5.3-10.6,10.1-10.6v0.2c-2.4,0.3-3.1,2.3-3.1,10.2c0,5.9,2.6,9.2,6.3,9.2
				c2.3,0,4.1-0.7,6-2.2V54c-2.1,2.7-6,3.7-8.7,3.7C117.3,57.7,112,53.8,112,46.9z M121.3,45.2c3.6,0,5.1-1.1,5.1-4.6
				c0-2-0.8-3.8-2.7-4v-0.2c5.4,0,8,3.9,8,7c0,0.7-0.1,1.5-0.2,2.1h-10.3V45.2z"/>
			<path class="st2" d="M134.7,52.4c0-3.6,3.3-5.6,7.9-5.6h4.4v0.2h-1.2c-3,0-4.4,1.9-4.4,4.5c0,2.3,0.7,4,2.6,4
				c1.1,0,2.1-0.6,3-1.4v0.2c-1.4,1.6-3.5,3.3-6.5,3.3C137,57.7,134.7,55.7,134.7,52.4z M136.4,40.8c0-2.1,1.9-4.2,7.5-4.5v0.2
				c-1.6,0.2-2.6,1.6-2.6,3c0,1.5,1,2.4,2.7,2.5c-0.6,1.1-2.3,2-3.9,2C137.7,44.1,136.4,42.5,136.4,40.8z M148.3,53.1V40.5
				c0-2-0.8-3.6-2.8-3.9v-0.2c6.8,0.2,9.5,2.8,9.5,8.2v10c0,1.2,0.4,1.7,1.1,1.7c0.6,0,1.3-0.6,2-1.8h0.2c-0.7,2.3-2.9,3.3-5.3,3.3
				C149.8,57.7,148.3,56.5,148.3,53.1z"/>
			<path class="st2" d="M175.6,54.1v0.2c-1.3,1.9-3.9,3.3-7,3.3c-3.7,0-6.3-1.7-6.3-5.8V38.4h-2.1l0.5-0.6h1.7v-4.4
				c2.5,0,5-0.8,6.7-2.3v6.7h5.5l-0.5,0.6H169V52c0,2.1,0.8,4.2,2.7,4.2C172.8,56.2,174.2,55.5,175.6,54.1z"/>
			<path class="st2" d="M176.9,52.4c0-3.6,3.3-5.6,7.9-5.6h4.4v0.2H188c-3,0-4.4,1.9-4.4,4.5c0,2.3,0.7,4,2.6,4c1.2,0,2.1-0.6,3-1.4
				v0.2c-1.4,1.6-3.5,3.3-6.5,3.3C179.2,57.7,176.9,55.7,176.9,52.4z M178.5,40.8c0-2.1,1.9-4.2,7.5-4.5v0.2c-1.6,0.2-2.6,1.6-2.6,3
				c0,1.5,1,2.4,2.7,2.5c-0.6,1.1-2.3,2-3.9,2C179.9,44.1,178.5,42.5,178.5,40.8z M190.4,53.1V40.5c0-2-0.8-3.6-2.8-3.9v-0.2
				c6.8,0.2,9.5,2.8,9.5,8.2v10c0,1.2,0.4,1.7,1.1,1.7c0.6,0,1.3-0.6,2-1.8h0.2c-0.7,2.3-2.9,3.3-5.3,3.3
				C191.9,57.7,190.4,56.5,190.4,53.1z"/>
			<path class="st2" d="M211,52.1c0,3.9-2.7,5.6-6.8,5.6V31.1c0-1.5-0.7-2.2-3.1-2.2v-0.2c3.8,0,6.4-0.4,9.9-1.6V52.1z M226.6,46.8
				c0,8.6-4.6,10.9-8.5,10.9c-2.3,0-4.9-1.6-6-3.3v-0.2c1,0.8,2.1,1.4,3.4,1.4c1.9,0,4-1.4,4-8.7c0-7.4-2-8.4-4-8.4
				c-1.3,0-2.5,0.5-3.4,1.5v-0.3c1-1.7,3.6-3.3,6-3.3C222.1,36.3,226.6,38.6,226.6,46.8z"/>
			<path class="st2" d="M229.3,28.7c3.8,0,6.9-0.4,9.8-1.6v27.8c0,1,0.6,2.1,3.1,2.1v0.2h-12.9V57c2.5,0,3.1-1.1,3.1-2.1V31.1
				c0-1.5-0.7-2.2-3-2.2V28.7z"/>
			<path class="st2" d="M244.6,46.9c0-6.9,5.3-10.6,10.1-10.6v0.2c-2.4,0.3-3.1,2.3-3.1,10.2c0,5.9,2.6,9.2,6.3,9.2
				c2.3,0,4.1-0.7,6-2.2V54c-2.1,2.7-6,3.7-8.7,3.7C249.9,57.7,244.6,53.8,244.6,46.9z M253.9,45.2c3.6,0,5.1-1.1,5.1-4.6
				c0-2-0.8-3.8-2.7-4v-0.2c5.4,0,8,3.9,8,7c0,0.7-0.1,1.5-0.2,2.1h-10.3V45.2z"/>
		</g>
		<g class="st1">
			<path class="st2" d="M35,96c0,1,0.6,2.1,3.1,2.1v0.2H25.1v-0.2c2.5,0,3.1-1.1,3.1-2.1V81.4c0-1.5-0.7-2.2-3-2.2V79
				c3.8,0,6.9-0.4,9.8-1.6V96z M48.6,83.2V96c0,1,0.6,2.1,3,2.1v0.2H38.8v-0.2c2.4,0,3.1-1.1,3.1-2.1V83.2c0-2.3-0.9-3.5-2.9-3.5
				c-1.1,0-2.2,0.6-2.7,1.2v-0.2c0.9-1.7,3-3.3,6-3.3C46.2,77.4,48.6,79.1,48.6,83.2z M62.2,83.2V96c0,1,0.6,2.1,3.1,2.1v0.2H52.4
				v-0.2c2.4,0,3.1-1.1,3.1-2.1V83.2c0-2.3-0.9-3.5-2.9-3.5c-1.1,0-2.2,0.6-2.7,1.2v-0.2c0.9-1.7,3-3.3,6-3.3
				C59.8,77.4,62.2,79.1,62.2,83.2z"/>
			<path class="st2" d="M77.7,77.6c-2.4,0.3-3.2,2.3-3.2,10.3c0,7.7,0.8,10.3,3.2,10.5v0.2c-4.7,0-10.2-3.9-10.2-10.8
				s5.4-10.6,10.2-10.6V77.6z M89.6,88c0,6.9-5.5,10.8-10.2,10.8v-0.2c2.4-0.2,3.2-2.8,3.2-10.5c0-8-0.8-10.1-3.2-10.3v-0.2
				C84.1,77.4,89.6,81.1,89.6,88z"/>
		</g>
		<g class="st1">
			<path class="st2" d="M108.2,95.2v0.2c-1.3,1.9-3.9,3.3-7,3.3c-3.7,0-6.3-1.7-6.3-5.8V79.5h-2.1l0.5-0.6h1.7v-4.4
				c2.5,0,5-0.8,6.7-2.3v6.7h5.5l-0.5,0.6h-5.1v13.6c0,2.1,0.8,4.2,2.7,4.2C105.5,97.3,106.9,96.5,108.2,95.2z"/>
		</g>
		<g class="st1">
			<path class="st2" d="M119.9,77.6c-2.4,0.3-3.2,2.3-3.2,10.3c0,7.7,0.8,10.3,3.2,10.5v0.2c-4.7,0-10.2-3.9-10.2-10.8
				s5.4-10.6,10.2-10.6V77.6z M131.8,88c0,6.9-5.5,10.8-10.2,10.8v-0.2c2.4-0.2,3.2-2.8,3.2-10.5c0-8-0.8-10.1-3.2-10.3v-0.2
				C126.4,77.4,131.8,81.1,131.8,88z"/>
		</g>
		<g class="st1">
			<path class="st2" d="M144.3,96c0,1,0.6,2.1,3.1,2.1v0.2h-12.9v-0.2c2.5,0,3.1-1.1,3.1-2.1V81.4c0-1.5-0.7-2.2-3-2.2V79
				c3.8,0,6.9-0.4,9.8-1.6V96z M155.4,81.8c0,2.8-2,4.7-4.2,4.7c-1,0-1.8-0.2-2.3-0.9c0.8-0.4,1.6-1.3,1.6-2.8
				c0-1.2-0.9-2.2-2.3-2.2c-1.1,0-1.9,0.6-2.5,1.6v-0.3c0.8-2.6,2.8-4.4,5.3-4.4C153.9,77.4,155.4,79.4,155.4,81.8z"/>
		</g>
		<g class="st1">
			<path class="st2" d="M168.2,77.6c-2.4,0.3-3.5,2.3-3.5,10.2c0,5.9,3,9.2,6.7,9.2c2.3,0,4.1-0.7,6-2.2v0.2c-2.1,2.7-6,3.7-8.7,3.7
				c-5.3,0-11-3.9-11-10.8s5.7-10.6,10.5-10.6V77.6z M177.3,82c0,2.2-1.5,3.9-4.1,3.9c-2,0-3.3-1.3-3.6-2.6c1.1-0.5,2-1.9,2-3
				c0-0.9-0.2-2.4-1.8-2.7v-0.3C175.2,77.4,177.3,79.7,177.3,82z"/>
		</g>
		<g class="st1">
			<path class="st2" d="M180.7,79.5c-0.4-0.9-1-1.4-2.3-1.4v-0.2h11.5v0.2c-1.4,0-2,1-1.3,2.4l5.4,11.2l-3.5,6.7h-0.2L180.7,79.5z
				 M178.9,105c0-1.8,1.4-3.2,3.6-3.9c-0.1,0.4-0.2,0.7-0.2,1c0,1.6,0.8,2.8,2.4,2.8c1.4,0,2.6-1.5,4.1-4.1h0.3
				c-2.3,4.2-3.8,7.9-6.7,7.9C180.2,108.6,178.9,107,178.9,105z M195.7,87.7c0.7-1.3,1.2-3.1,1.2-5.3c0-2.3-1.3-4.3-4.2-4.3v-0.2
				h10.2v0.2c-1.4,0-1.9,0.5-2.7,1.9l-4.3,8L195.7,87.7z"/>
		</g>
		<g class="st1">
			<path class="st2" d="M213.6,77.6c-2.4,0.3-3.5,2.3-3.5,10.2c0,5.9,3,9.2,6.7,9.2c2.3,0,4.1-0.7,6-2.2v0.2c-2.1,2.7-6,3.7-8.7,3.7
				c-5.3,0-11-3.9-11-10.8s5.7-10.6,10.5-10.6V77.6z M222.7,82c0,2.2-1.5,3.9-4.1,3.9c-2,0-3.3-1.3-3.6-2.6c1.2-0.5,2-1.9,2-3
				c0-0.9-0.2-2.4-1.8-2.7v-0.3C220.6,77.4,222.7,79.7,222.7,82z"/>
			<path class="st2" d="M224.9,69.8c3.8,0,6.9-0.4,9.8-1.6V96c0,1,0.6,2.1,3.1,2.1v0.2h-12.9v-0.2c2.5,0,3.1-1.1,3.1-2.1V72.2
				c0-1.5-0.7-2.2-3-2.2V69.8z"/>
			<path class="st2" d="M240.2,88c0-6.9,5.3-10.6,10.1-10.6v0.2c-2.4,0.3-3.1,2.3-3.1,10.2c0,5.9,2.6,9.2,6.3,9.2
				c2.3,0,4.1-0.7,6-2.2v0.2c-2.1,2.7-6,3.7-8.7,3.7C245.5,98.8,240.2,94.9,240.2,88z M249.5,86.3c3.6,0,5.1-1.1,5.1-4.6
				c0-2-0.8-3.8-2.7-4v-0.2c5.4,0,8,3.9,8,7c0,0.7-0.1,1.5-0.2,2.1h-10.3V86.3z"/>
		</g>
		<g class="st1">
			<path class="st2" d="M25.2,120c3.8,0,6.9-0.4,9.8-1.6v18.6c0,1,0.6,2.1,3.1,2.1v0.2H25.2v-0.2c2.5,0,3.1-1.1,3.1-2.1v-14.6
				c0-1.5-0.7-2.2-3-2.2V120z M27.3,112.3c0-2.1,1.7-3.6,4.2-3.6c2.5,0,4.2,1.4,4.2,3.6c0,2.2-1.7,3.6-4.2,3.6
				C29,115.9,27.3,114.5,27.3,112.3z"/>
			<path class="st2" d="M39.8,139.2c2.5,0,3.1-1.1,3.1-2.1v-14.6c0-1.5-0.7-2.2-3-2.2v-0.2c3.8,0,6.9-0.4,9.8-1.6v18.6
				c0,1,0.6,2.1,3.1,2.1v0.2H39.8V139.2z M54.3,139.2c2.4,0,3-1.1,3-2.1v-12.8c0-2.3-1.2-3.5-3.2-3.5c-1.1,0-2.1,0.4-3.1,1.3v-0.2
				c1.1-1.7,3.8-3.3,6.8-3.3c3.7,0,6.3,1.7,6.3,5.8v12.8c0,1,0.6,2.1,3.1,2.1v0.2H54.3V139.2z"/>
			<path class="st2" d="M76.6,134.5c-1.4,0-2.3,0.8-2.3,2.1c0,1.2,0.8,2.7,3.7,3v0.2c-5.5-0.2-8.5-1.7-8.5-4.1c0-1.9,1.6-3,3.5-3
				C74.6,132.7,75.9,133.5,76.6,134.5z M77.9,118.7c-1.5,0.3-3,1.1-3,2.8c0.1,4.8,13.4,5.5,13.4,12.1c0,4-3.4,6.1-8.7,6.3v-0.2
				c1.7-0.3,3.7-0.9,3.7-3c0-4.3-13.5-5.8-13.5-12.1c0-3.6,3.4-5.8,8-6V118.7z M87.6,122.7c0,1.3-1,2.5-3,2.5c-1.7,0-3-0.7-3.5-2
				c1.2-0.1,1.9-0.9,1.8-1.9c0-1.2-1.6-2.4-3.2-2.6v-0.2C84.4,118.7,87.6,120.4,87.6,122.7z"/>
			<path class="st2" d="M100.5,134c0,2.3,0.8,3.5,2.8,3.5c1.1,0,1.9-0.3,2.8-1.3v0.2c-0.9,1.8-3,3.3-6.4,3.3c-3.7,0-6.1-1.7-6.1-5.8
				v-11.5c0-1.5-0.7-2.2-3-2.2v-0.2c3.8,0,6.9-0.4,9.8-1.6V134z M114.2,136.6c0,1.2,0.4,1.7,1.1,1.7c0.6,0,1.3-0.6,2-1.8h0.2
				c-0.7,2.3-2.9,3.3-5.6,3.3c-2.9,0-4.5-1.6-4.5-4v-13.3c0-1.5-0.7-2.2-2.9-2.2v-0.2c3.7,0,6.2-0.4,9.7-1.6V136.6z"/>
		</g>
		<g class="st1">
			<path class="st2" d="M129,137.1c0,1,0.6,2.1,3.1,2.1v0.2h-12.9v-0.2c2.5,0,3.1-1.1,3.1-2.1v-14.6c0-1.5-0.7-2.2-3-2.2v-0.2
				c3.8,0,6.9-0.4,9.8-1.6V137.1z M140.1,122.9c0,2.8-2,4.7-4.2,4.7c-1,0-1.8-0.2-2.3-0.9c0.8-0.4,1.6-1.3,1.6-2.8
				c0-1.2-0.9-2.2-2.3-2.2c-1.1,0-1.9,0.6-2.5,1.6v-0.3c0.8-2.6,2.8-4.4,5.3-4.4C138.5,118.5,140.1,120.4,140.1,122.9z"/>
		</g>
		<g class="st1">
			<path class="st2" d="M141.8,134.6c0-3.6,3.3-5.6,7.9-5.6h4.4v0.2h-1.2c-3,0-4.4,1.9-4.4,4.5c0,2.3,0.7,4,2.6,4
				c1.1,0,2.1-0.6,3-1.4v0.2c-1.4,1.6-3.5,3.3-6.5,3.3C144.1,139.8,141.8,137.8,141.8,134.6z M143.5,122.9c0-2.1,1.9-4.2,7.5-4.5
				v0.2c-1.6,0.2-2.6,1.6-2.6,3c0,1.5,1,2.4,2.7,2.5c-0.6,1.1-2.3,2-3.9,2C144.8,126.2,143.5,124.7,143.5,122.9z M155.4,135.2v-12.6
				c0-2-0.8-3.6-2.8-3.9v-0.2c6.8,0.2,9.5,2.8,9.5,8.2v10c0,1.2,0.4,1.7,1.1,1.7c0.6,0,1.3-0.6,2-1.8h0.2c-0.7,2.3-2.9,3.3-5.3,3.3
				C156.9,139.8,155.4,138.7,155.4,135.2z"/>
			<path class="st2" d="M166.8,139.2c2.5,0,3.1-1.1,3.1-2.1v-14.6c0-1.5-0.7-2.2-3-2.2v-0.2c3.8,0,6.9-0.4,9.8-1.6v18.6
				c0,1,0.6,2.1,3.1,2.1v0.2h-12.9V139.2z M181.2,139.2c2.4,0,3-1.1,3-2.1v-12.8c0-2.3-1.2-3.5-3.2-3.5c-1.2,0-2.1,0.4-3.1,1.3v-0.2
				c1.1-1.7,3.8-3.3,6.8-3.3c3.7,0,6.3,1.7,6.3,5.8v12.8c0,1,0.6,2.1,3.1,2.1v0.2h-12.9V139.2z"/>
			<path class="st2" d="M206.8,118.7c-2.4,0.3-3.5,2.3-3.5,10.2c0,5.9,3,9.2,6.7,9.2c2.3,0,4.1-0.7,6-2.2v0.2
				c-2.1,2.7-6,3.7-8.7,3.7c-5.3,0-11-3.9-11-10.8c0-6.9,5.7-10.6,10.5-10.6V118.7z M215.9,123.1c0,2.2-1.5,3.9-4.1,3.9
				c-2,0-3.3-1.3-3.6-2.6c1.1-0.5,2-1.9,2-3c0-0.9-0.2-2.4-1.8-2.7v-0.3C213.9,118.5,215.9,120.8,215.9,123.1z"/>
			<path class="st2" d="M219,129.1c0-6.9,5.3-10.6,10.1-10.6v0.2c-2.4,0.3-3.1,2.3-3.1,10.2c0,5.9,2.6,9.2,6.3,9.2
				c2.3,0,4.1-0.7,6-2.2v0.2c-2.1,2.7-6,3.7-8.7,3.7C224.3,139.8,219,136,219,129.1z M228.3,127.3c3.6,0,5.1-1.1,5.1-4.6
				c0-2-0.8-3.8-2.7-4v-0.2c5.4,0,8,3.9,8,7c0,0.7-0.1,1.5-0.2,2.1h-10.3V127.3z"/>
		</g>
	</g>
</g>
</svg>
