<svg id="Layer_1" data-name="Layer 1" xmlns="http://www.w3.org/2000/svg" xmlns:xlink="http://www.w3.org/1999/xlink" viewBox="0 0 320 480"><defs><style>.cls-1{fill:none;}.cls-2{clip-path:url(#clip-path);}.cls-3{fill:#fff;}</style><clipPath id="clip-path"><rect class="cls-1" width="320" height="480"/></clipPath></defs><title>Artboard 1 copy 2</title><g class="cls-2"><path class="cls-3" d="M44.8,93.87l.14.28a9.6,9.6,0,0,1-8.43,4.23c-5.71,0-12.81-4.06-12.81-12.21,0-8.86,6.93-12.15,12-12.29v.21c-2.45.52-5.11,2.83-5.11,11.83S34.16,97,38.12,97A8.58,8.58,0,0,0,44.8,93.87Zm.29-20v8.5H44.8c-1.36-4.65-3.95-7.35-7.38-8.29v-.21c3,.14,4.9.66,6.34,1.61l1-1.61Z"/><path class="cls-3" d="M56.25,80.39c-2.07.24-2.77,2-2.77,8.82,0,6.58.7,8.75,2.77,9v.21a8.92,8.92,0,0,1-8.72-9.17,8.77,8.77,0,0,1,8.72-9Zm10.08,8.82a8.92,8.92,0,0,1-8.68,9.17v-.21c2.06-.21,2.73-2.41,2.73-9,0-6.86-.7-8.61-2.73-8.82v-.21A8.72,8.72,0,0,1,66.33,89.21Z"/><path class="cls-3" d="M68.64,97.82c2.1,0,2.62-.91,2.62-1.78V83.61c0-1.26-.59-1.86-2.59-1.86v-.21A21.54,21.54,0,0,0,77,80.18V96c0,.87.52,1.78,2.62,1.78V98h-11Zm12.32,0c2.06,0,2.59-.91,2.59-1.78V85.12c0-2-1-3-2.77-3a3.77,3.77,0,0,0-2.66,1.08V83a7.15,7.15,0,0,1,5.81-2.83c3.15,0,5.39,1.47,5.39,4.94V96c0,.87.53,1.78,2.63,1.78V98H81Z"/><path class="cls-3" d="M106.79,95.34v.21a7.32,7.32,0,0,1-6,2.83c-3.15,0-5.39-1.43-5.39-4.93V82H93.59l.39-.52h1.43V77.66a8.85,8.85,0,0,0,5.74-2v5.74h4.73l-.39.52h-4.34V93.55c0,1.75.67,3.57,2.31,3.57A5.2,5.2,0,0,0,106.79,95.34Z"/><path class="cls-3" d="M107.91,93.9c0-3,2.8-4.76,6.72-4.76h3.78v.21h-1c-2.52,0-3.71,1.65-3.71,3.82,0,1.92.56,3.39,2.2,3.39a3.84,3.84,0,0,0,2.56-1.22v.21a7.45,7.45,0,0,1-5.57,2.83C109.87,98.38,107.87,96.7,107.91,93.9Zm1.4-9.9c0-1.79,1.61-3.61,6.37-3.82v.21a2.55,2.55,0,0,0-2.24,2.55c0,1.27.87,2,2.27,2.14a3.93,3.93,0,0,1-3.36,1.68A2.8,2.8,0,0,1,109.31,84Zm10.15,10.43V83.71c0-1.71-.67-3.08-2.38-3.32v-.21c5.81.21,8.12,2.41,8.12,7v8.51c0,1,.35,1.43,1,1.43s1.12-.52,1.68-1.57h.21c-.56,1.92-2.45,2.83-4.55,2.83C120.72,98.38,119.46,97.4,119.46,94.43Z"/><path class="cls-3" d="M138.74,80.39c-2.06.24-3,2-3,8.68,0,5,2.55,7.81,5.67,7.81A7.62,7.62,0,0,0,146.55,95v.21c-1.82,2.31-5.15,3.15-7.42,3.15a9.15,9.15,0,0,1-9.35-9.17,9,9,0,0,1,9-9Zm7.77,3.74A3.26,3.26,0,0,1,143,87.5a3,3,0,0,1-3-2.21,3,3,0,0,0,1.68-2.56,2.08,2.08,0,0,0-1.51-2.31v-.24C144.73,80.18,146.51,82.14,146.51,84.13Z"/><path class="cls-3" d="M162.09,95.34v.21a7.32,7.32,0,0,1-6,2.83c-3.15,0-5.39-1.43-5.39-4.93V82h-1.82l.39-.52h1.43V77.66a8.85,8.85,0,0,0,5.74-2v5.74h4.73l-.39.52h-4.34V93.55c0,1.75.67,3.57,2.31,3.57A5.2,5.2,0,0,0,162.09,95.34Z"/><path class="cls-3" d="M171.57,82a1.89,1.89,0,0,0-1.92-1.22v-.21h9.8v.21c-1.23,0-1.72.84-1.12,2.06l4.58,9.56-3,5.67h-.21ZM170,103.67c0-1.51,1.19-2.77,3.08-3.29a2.77,2.77,0,0,0-.14.87A2.06,2.06,0,0,0,175,103.6c1.22,0,2.2-1.3,3.53-3.54h.25c-1.93,3.61-3.26,6.72-5.71,6.72A2.91,2.91,0,0,1,170,103.67Zm14.35-14.74a9.54,9.54,0,0,0,1-4.51,3.38,3.38,0,0,0-3.57-3.68v-.21h8.72v.21c-1.16,0-1.61.45-2.28,1.64l-3.64,6.87Z"/><path class="cls-3" d="M199.4,80.39c-2.07.24-2.77,2-2.77,8.82,0,6.58.7,8.75,2.77,9v.21a8.92,8.92,0,0,1-8.72-9.17,8.77,8.77,0,0,1,8.72-9Zm10.08,8.82a8.92,8.92,0,0,1-8.68,9.17v-.21c2.06-.21,2.73-2.41,2.73-9,0-6.86-.7-8.61-2.73-8.82v-.21A8.72,8.72,0,0,1,209.48,89.21Z"/><path class="cls-3" d="M219.8,93.45c0,2,.67,3,2.42,3a3.09,3.09,0,0,0,2.41-1.08v.21a5.83,5.83,0,0,1-5.42,2.83c-3.15,0-5.18-1.47-5.18-4.93V83.61c0-1.26-.6-1.86-2.59-1.86v-.21a21.49,21.49,0,0,0,8.36-1.36Zm11.66,2.24c0,1,.31,1.43.94,1.43s1.12-.52,1.68-1.57h.21c-.56,1.92-2.45,2.83-4.76,2.83S225.68,97,225.68,95V83.61c0-1.26-.59-1.86-2.48-1.86v-.21a22.86,22.86,0,0,0,8.26-1.36Z"/><path class="cls-3" d="M244.09,96c0,.87.53,1.78,2.63,1.78V98h-11v-.21c2.1,0,2.63-.91,2.63-1.78V83.61c0-1.26-.6-1.86-2.6-1.86v-.21a21.51,21.51,0,0,0,8.37-1.36ZM253.54,84a3.74,3.74,0,0,1-3.6,4,2.39,2.39,0,0,1-2-.77,2.56,2.56,0,0,0,1.37-2.38,1.86,1.86,0,0,0-2-1.89,2.39,2.39,0,0,0-2.1,1.33V84a4.84,4.84,0,0,1,4.55-3.78A3.55,3.55,0,0,1,253.54,84Z"/><path class="cls-3" d="M30.66,132.62c0,3.33-2.27,4.76-5.77,4.76V114.73c0-1.26-.63-1.85-2.63-1.85v-.21a23,23,0,0,0,8.4-1.37ZM44,128.11c0,7.31-3.89,9.27-7.21,9.27a6.5,6.5,0,0,1-5.08-2.83v-.21a4.86,4.86,0,0,0,2.91,1.22c1.64,0,3.43-1.15,3.43-7.45S36.37,121,34.62,121a3.86,3.86,0,0,0-2.91,1.3V122a6.47,6.47,0,0,1,5.08-2.8C40.18,119.18,44,121.14,44,128.11Z"/><path class="cls-3" d="M54.85,135c0,.87.52,1.78,2.62,1.78V137h-11v-.21c2.1,0,2.62-.91,2.62-1.78V122.61c0-1.26-.59-1.86-2.59-1.86v-.21a21.54,21.54,0,0,0,8.37-1.36ZM64.3,123a3.75,3.75,0,0,1-3.61,4,2.37,2.37,0,0,1-2-.77,2.57,2.57,0,0,0,1.36-2.38,1.86,1.86,0,0,0-2-1.89,2.4,2.4,0,0,0-2.1,1.33V123a4.85,4.85,0,0,1,4.55-3.78A3.55,3.55,0,0,1,64.3,123Z"/><path class="cls-3" d="M74.9,119.39c-2.06.24-2.76,2-2.76,8.82,0,6.58.7,8.75,2.76,9v.21a8.92,8.92,0,0,1-8.71-9.17,8.77,8.77,0,0,1,8.71-9ZM85,128.21a8.91,8.91,0,0,1-8.68,9.17v-.21c2.07-.21,2.73-2.41,2.73-9,0-6.86-.7-8.61-2.73-8.82v-.21A8.72,8.72,0,0,1,85,128.21Z"/><path class="cls-3" d="M98.11,136.82V137h-11v-.21c2.1,0,2.63-.91,2.63-1.78V114.73c0-1.26-.6-1.85-2.59-1.85v-.21a21.3,21.3,0,0,0,8.36-1.37V135C95.48,135.91,96,136.82,98.11,136.82Zm11.86,0V137a13.81,13.81,0,0,1-3.5.35,6.59,6.59,0,0,1-6.33-3.39l-3.29-5.5c2.76-2.41,5.35-5.36,5.35-7.14,0-.95-.45-1.61-2.06-1.61v-.21h9v.21a3.09,3.09,0,0,0-2,.63l-6.41,5.08,6.06,9.38A3.61,3.61,0,0,0,110,136.82Z"/><path class="cls-3" d="M110.18,128.21a8.66,8.66,0,0,1,8.58-9v.21c-2.07.24-2.63,2-2.63,8.68,0,5,2.24,7.81,5.36,7.81A7.62,7.62,0,0,0,126.6,134v.21c-1.82,2.31-5.15,3.15-7.42,3.15A8.87,8.87,0,0,1,110.18,128.21Zm7.88-1.47c3.08,0,4.37-1,4.37-3.92,0-1.68-.7-3.22-2.27-3.43v-.21c4.62,0,6.86,3.29,6.86,5.95a9.94,9.94,0,0,1-.18,1.82h-8.78Z"/><path class="cls-3" d="M137.66,135c0,.87.52,1.78,2.62,1.78V137h-11v-.21c2.1,0,2.62-.91,2.62-1.78V122.61c0-1.26-.59-1.86-2.59-1.86v-.21a21.54,21.54,0,0,0,8.37-1.36ZM147.11,123a3.75,3.75,0,0,1-3.61,4,2.37,2.37,0,0,1-2-.77,2.57,2.57,0,0,0,1.36-2.38,1.86,1.86,0,0,0-2-1.89,2.4,2.4,0,0,0-2.1,1.33V123a4.85,4.85,0,0,1,4.55-3.78A3.55,3.55,0,0,1,147.11,123Z"/><path class="cls-3" d="M170.14,134.34v.21a7.32,7.32,0,0,1-6,2.83c-3.15,0-5.39-1.43-5.39-4.93V121h-1.82l.39-.52h1.43v-3.78a8.85,8.85,0,0,0,5.74-2v5.74h4.73l-.39.52H164.5v11.59c0,1.75.67,3.57,2.31,3.57A5.2,5.2,0,0,0,170.14,134.34Z"/><path class="cls-3" d="M180.15,119.39c-2.07.24-2.77,2-2.77,8.82,0,6.58.7,8.75,2.77,9v.21a8.92,8.92,0,0,1-8.72-9.17,8.77,8.77,0,0,1,8.72-9Zm10.08,8.82a8.92,8.92,0,0,1-8.68,9.17v-.21c2.06-.21,2.73-2.41,2.73-9,0-6.86-.7-8.61-2.73-8.82v-.21A8.72,8.72,0,0,1,190.23,128.21Z"/><path class="cls-3" d="M205.59,122v.28a3.84,3.84,0,0,0-2.9-1.3c-1.75,0-3.43.81-3.43,7.15s1.78,7.45,3.43,7.45a4.81,4.81,0,0,0,2.9-1.22v.21a6.48,6.48,0,0,1-5.07,2.83c-3.33,0-7.21-2-7.21-9.27,0-7,3.81-8.93,7.21-8.93A6.45,6.45,0,0,1,205.59,122Zm6.83,12.71c0,1,.31,1.43.94,1.43s1.12-.52,1.68-1.57h.21c-.56,1.92-2.45,2.83-4.55,2.83-2.8,0-4.06-1-4.06-3.95v-18.7c0-1.26-.59-1.85-2.59-1.85v-.21a22.85,22.85,0,0,0,8.37-1.37Z"/><path class="cls-3" d="M216.93,132.9c0-3,2.8-4.76,6.72-4.76h3.78v.21h-1.05c-2.52,0-3.71,1.65-3.71,3.82,0,1.92.56,3.39,2.21,3.39a3.82,3.82,0,0,0,2.55-1.22v.21a7.43,7.43,0,0,1-5.56,2.83C218.89,137.38,216.9,135.7,216.93,132.9Zm1.4-9.9c0-1.79,1.61-3.61,6.37-3.82v.21a2.55,2.55,0,0,0-2.24,2.55c0,1.27.88,2,2.28,2.14a3.94,3.94,0,0,1-3.36,1.68A2.81,2.81,0,0,1,218.33,123Zm10.15,10.43V122.71c0-1.71-.66-3.08-2.38-3.32v-.21c5.81.21,8.12,2.41,8.12,7v8.51c0,1,.35,1.43,1,1.43s1.12-.52,1.68-1.57h.21c-.56,1.92-2.45,2.83-4.55,2.83C229.74,137.38,228.48,136.4,228.48,133.43Z"/><path class="cls-3" d="M238.21,121a1.89,1.89,0,0,0-1.92-1.22v-.21h9.8v.21c-1.23,0-1.72.84-1.12,2.06l4.58,9.56-3,5.67h-.21Zm-1.54,21.71c0-1.51,1.19-2.77,3.08-3.29a2.77,2.77,0,0,0-.14.87,2.06,2.06,0,0,0,2.07,2.35c1.22,0,2.2-1.3,3.53-3.54h.25c-1.93,3.61-3.26,6.72-5.71,6.72A2.91,2.91,0,0,1,236.67,142.67ZM251,127.93a9.54,9.54,0,0,0,1-4.51,3.38,3.38,0,0,0-3.57-3.68v-.21h8.72v.21c-1.16,0-1.61.45-2.28,1.64l-3.64,6.87Z"/></g></svg>