<?xml version="1.0" encoding="utf-8"?>
<!-- Generator: Adobe Illustrator 24.0.3, SVG Export Plug-In . SVG Version: 6.00 Build 0)  -->
<svg version="1.1" id="Layer_1" xmlns="http://www.w3.org/2000/svg" xmlns:xlink="http://www.w3.org/1999/xlink" x="0px" y="0px"
	 viewBox="0 0 320 480" style="enable-background:new 0 0 320 480;" xml:space="preserve">
<style type="text/css">
	.st0{clip-path:url(#SVGID_2_);}
	.st1{enable-background:new    ;}
	.st2{fill:#FFFFFF;}
</style>
<title>Artboard 1</title>
<g>
	<defs>
		<rect id="SVGID_1_" y="0" width="320" height="480"/>
	</defs>
	<clipPath id="SVGID_2_">
		<use xlink:href="#SVGID_1_"  style="overflow:visible;"/>
	</clipPath>
	<g class="st0">
		<g class="st1">
			<path class="st2" d="M22.8,30.5c3.8,0,6.9-0.4,9.8-1.6v27.8c0,1,0.6,2.1,3.1,2.1V59H22.8v-0.2c2.5,0,3.1-1.1,3.1-2.1V32.9
				c0-1.5-0.7-2.2-3-2.2V30.5z"/>
			<path class="st2" d="M37.5,39.6c3.8,0,6.9-0.4,9.8-1.6v18.6c0,1,0.6,2.1,3.1,2.1V59H37.5v-0.2c2.5,0,3.1-1.1,3.1-2.1V42.1
				c0-1.5-0.7-2.2-3-2.2V39.6z M39.6,31.9c0-2.1,1.7-3.6,4.2-3.6c2.5,0,4.2,1.4,4.2,3.6c0,2.2-1.7,3.6-4.2,3.6
				C41.3,35.5,39.6,34.1,39.6,31.9z"/>
		</g>
		<g class="st1">
			<path class="st2" d="M53.1,40.2c-0.4-0.9-1-1.4-2.3-1.4v-0.2h11.5v0.2c-1.4,0-2,1-1.3,2.4l5.4,11.2L62.8,59h-0.2L53.1,40.2z
				 M68.1,48.4c0.7-1.3,1.1-3.1,1.1-5.3c0-2.3-1.3-4.3-4.2-4.3v-0.2h10.2v0.2c-1.4,0-1.9,0.5-2.7,1.9l-4.3,8L68.1,48.4z"/>
		</g>
		<g class="st1">
			<path class="st2" d="M75.6,48.7c0-6.9,5.3-10.6,10.1-10.6v0.2c-2.4,0.3-3.1,2.3-3.1,10.2c0,5.9,2.6,9.2,6.3,9.2
				c2.3,0,4.1-0.7,6-2.2v0.2c-2.1,2.7-6,3.7-8.7,3.7C80.9,59.4,75.6,55.6,75.6,48.7z M84.8,47c3.6,0,5.1-1.1,5.1-4.6
				c0-2-0.8-3.8-2.7-4v-0.2c5.4,0,8,3.9,8,7c0,0.7-0.1,1.5-0.2,2.1H84.8V47z"/>
			<path class="st2" d="M105.9,54.1c-1.4,0-2.3,0.8-2.3,2.1c0,1.2,0.8,2.7,3.7,3v0.2c-5.5-0.2-8.5-1.7-8.5-4.1c0-1.9,1.6-3,3.5-3
				C103.9,52.3,105.2,53.1,105.9,54.1z M107.2,38.3c-1.5,0.3-3,1.1-3,2.8c0.1,4.8,13.4,5.5,13.4,12.1c0,4-3.4,6.1-8.7,6.3v-0.2
				c1.7-0.3,3.7-0.9,3.7-3c0-4.3-13.5-5.8-13.5-12.1c0-3.6,3.4-5.8,8-6V38.3z M116.9,42.3c0,1.3-1,2.5-3,2.5c-1.7,0-3-0.7-3.5-2
				c1.2-0.1,1.9-0.9,1.8-1.9c0-1.2-1.6-2.4-3.2-2.6v-0.2C113.7,38.3,116.9,40,116.9,42.3z"/>
			<path class="st2" d="M131.2,54.2c0-3.6,3.3-5.6,7.9-5.6h4.4v0.2h-1.2c-3,0-4.4,1.9-4.4,4.5c0,2.3,0.7,4,2.6,4
				c1.1,0,2.1-0.6,3-1.4v0.2c-1.4,1.6-3.5,3.3-6.5,3.3C133.5,59.4,131.1,57.5,131.2,54.2z M132.8,42.6c0-2.1,1.9-4.2,7.5-4.5v0.2
				c-1.6,0.2-2.6,1.6-2.6,3c0,1.5,1,2.4,2.7,2.5c-0.6,1.1-2.3,2-3.9,2C134.1,45.8,132.8,44.3,132.8,42.6z M144.7,54.8V42.2
				c0-2-0.8-3.6-2.8-3.9v-0.2c6.8,0.2,9.5,2.8,9.5,8.2v10c0,1.2,0.4,1.7,1.1,1.7c0.6,0,1.3-0.6,2-1.8h0.2c-0.7,2.3-2.9,3.3-5.3,3.3
				C146.2,59.4,144.7,58.3,144.7,54.8z"/>
			<path class="st2" d="M172,55.9v0.2c-1.3,1.9-3.9,3.3-7,3.3c-3.7,0-6.3-1.7-6.3-5.8V40.2h-2.1l0.5-0.6h1.7v-4.4
				c2.5,0,5-0.8,6.7-2.3v6.7h5.5l-0.5,0.6h-5.1v13.6c0,2.1,0.8,4.2,2.7,4.2C169.3,58,170.7,57.2,172,55.9z"/>
		</g>
		<g class="st1">
			<path class="st2" d="M194.6,59.2v0.2c-3.2-0.1-5.8-0.7-8-2l-1.4,2H185v-10h0.3C186.7,54.1,189.6,57.5,194.6,59.2z M206.7,51
				c0,5.3-3.9,8.2-10.3,8.4v-0.2c2.3-0.4,4.5-1.7,4.5-4.2c0-7.2-15.7-7.8-15.7-16.2c0-4.9,4-7.8,9.4-8.1v0.2
				c-1.9,0.3-3.6,1.5-3.6,3.8C191,41.9,206.7,42.7,206.7,51z M196.4,30.9v-0.2c3.1,0.1,5.5,0.8,7.4,2.2l1.5-2.2h0.3v9.2h-0.3
				C203.9,35.5,200.4,31.9,196.4,30.9z"/>
		</g>
		<g class="st1">
			<path class="st2" d="M225.4,55.9v0.2c-1.3,1.9-3.9,3.3-7,3.3c-3.7,0-6.3-1.7-6.3-5.8V40.2h-2.1l0.5-0.6h1.7v-4.4
				c2.5,0,5-0.8,6.7-2.3v6.7h5.5l-0.5,0.6h-5.1v13.6c0,2.1,0.8,4.2,2.7,4.2C222.7,58,224.1,57.2,225.4,55.9z"/>
			<path class="st2" d="M226.7,54.2c0-3.6,3.3-5.6,7.9-5.6h4.4v0.2h-1.2c-3,0-4.4,1.9-4.4,4.5c0,2.3,0.7,4,2.6,4
				c1.2,0,2.1-0.6,3-1.4v0.2c-1.4,1.6-3.5,3.3-6.5,3.3C229,59.4,226.7,57.5,226.7,54.2z M228.4,42.6c0-2.1,1.9-4.2,7.5-4.5v0.2
				c-1.6,0.2-2.6,1.6-2.6,3c0,1.5,1,2.4,2.7,2.5c-0.6,1.1-2.3,2-3.9,2C229.7,45.8,228.4,44.3,228.4,42.6z M240.3,54.8V42.2
				c0-2-0.8-3.6-2.8-3.9v-0.2c6.8,0.2,9.5,2.8,9.5,8.2v10c0,1.2,0.4,1.7,1.1,1.7c0.6,0,1.3-0.6,2-1.8h0.2c-0.7,2.3-2.9,3.3-5.3,3.3
				C241.8,59.4,240.3,58.3,240.3,54.8z"/>
		</g>
		<g class="st1">
			<path class="st2" d="M261.5,56.7c0,1,0.6,2.1,3.1,2.1V59h-12.9v-0.2c2.5,0,3.1-1.1,3.1-2.1V42.1c0-1.5-0.7-2.2-3-2.2v-0.2
				c3.8,0,6.9-0.4,9.8-1.6V56.7z M272.6,42.5c0,2.8-2,4.7-4.2,4.7c-1,0-1.8-0.2-2.3-0.9c0.8-0.4,1.6-1.3,1.6-2.8
				c0-1.2-0.9-2.2-2.3-2.2c-1.1,0-1.9,0.6-2.5,1.6v-0.3c0.8-2.6,2.8-4.4,5.3-4.4C271,38.1,272.6,40.1,272.6,42.5z"/>
		</g>
		<g class="st1">
			<path class="st2" d="M23.8,99.8c2.5,0,3.1-1,3.1-2.1V74.5c0-1.1-0.6-2.1-3.1-2.1v-0.2h13.1v0.2c-2.5,0-3.1,1-3.1,2.1v23.2
				c0,1.1,0.6,2.1,3.1,2.1v0.2H23.8V99.8z"/>
			<path class="st2" d="M39.7,99.8c2.5,0,3.1-1.1,3.1-2.1V83.2c0-1.5-0.7-2.2-3-2.2v-0.2c3.8,0,6.9-0.4,9.8-1.6v18.6
				c0,1,0.6,2.1,3.1,2.1v0.2H39.7V99.8z M54.1,99.8c2.4,0,3-1.1,3-2.1V84.9c0-2.3-1.2-3.5-3.2-3.5c-1.1,0-2.1,0.4-3.1,1.3v-0.2
				c1.1-1.7,3.8-3.3,6.8-3.3c3.7,0,6.3,1.7,6.3,5.8v12.8c0,1,0.6,2.1,3.1,2.1v0.2H54.1V99.8z"/>
			<path class="st2" d="M76.4,95.2c-1.4,0-2.3,0.8-2.3,2.1c0,1.2,0.8,2.7,3.7,3v0.2c-5.5-0.2-8.5-1.7-8.5-4.1c0-1.9,1.6-3,3.5-3
				C74.4,93.4,75.8,94.2,76.4,95.2z M77.7,79.4c-1.5,0.3-3,1.1-3,2.8c0.1,4.8,13.4,5.5,13.4,12.1c0,4-3.4,6.1-8.7,6.3v-0.2
				c1.7-0.3,3.7-0.9,3.7-3c0-4.3-13.5-5.8-13.5-12.1c0-3.6,3.4-5.8,8-6V79.4z M87.4,83.4c0,1.3-1,2.5-3,2.5c-1.7,0-3-0.7-3.5-2
				c1.2-0.1,1.9-0.9,1.8-1.9c0-1.2-1.6-2.4-3.2-2.6v-0.2C84.2,79.4,87.4,81.1,87.4,83.4z"/>
			<path class="st2" d="M100.3,94.7c0,2.3,0.8,3.5,2.8,3.5c1.1,0,1.9-0.3,2.8-1.3v0.2c-0.9,1.8-3,3.3-6.4,3.3
				c-3.7,0-6.1-1.7-6.1-5.8V83.2c0-1.5-0.7-2.2-3-2.2v-0.2c3.8,0,6.9-0.4,9.8-1.6V94.7z M114,97.3c0,1.2,0.4,1.7,1.1,1.7
				c0.6,0,1.3-0.6,2-1.8h0.2c-0.7,2.3-2.9,3.3-5.6,3.3c-2.9,0-4.5-1.6-4.5-4V83.2c0-1.5-0.7-2.2-2.9-2.2v-0.2c3.7,0,6.2-0.4,9.7-1.6
				V97.3z"/>
		</g>
		<g class="st1">
			<path class="st2" d="M128.8,97.7c0,1,0.6,2.1,3.1,2.1v0.2H119v-0.2c2.5,0,3.1-1.1,3.1-2.1V83.2c0-1.5-0.7-2.2-3-2.2v-0.2
				c3.8,0,6.9-0.4,9.8-1.6V97.7z M139.9,83.6c0,2.8-2,4.7-4.2,4.7c-1,0-1.8-0.2-2.3-0.9c0.8-0.4,1.6-1.3,1.6-2.8
				c0-1.2-0.9-2.2-2.3-2.2c-1.1,0-1.9,0.6-2.5,1.6v-0.3c0.8-2.6,2.8-4.4,5.3-4.4C138.3,79.1,139.9,81.1,139.9,83.6z"/>
		</g>
		<g class="st1">
			<path class="st2" d="M141.7,95.2c0-3.6,3.3-5.6,7.9-5.6h4.4v0.2h-1.2c-3,0-4.4,1.9-4.4,4.5c0,2.3,0.7,4,2.6,4
				c1.1,0,2.1-0.6,3-1.4v0.2c-1.4,1.6-3.5,3.3-6.5,3.3C144,100.5,141.6,98.5,141.7,95.2z M143.3,83.6c0-2.1,1.9-4.2,7.5-4.5v0.2
				c-1.6,0.2-2.6,1.6-2.6,3c0,1.5,1,2.4,2.7,2.5c-0.6,1.1-2.3,2-3.9,2C144.6,86.9,143.3,85.3,143.3,83.6z M155.2,95.9V83.3
				c0-2-0.8-3.6-2.8-3.9v-0.2c6.8,0.2,9.5,2.8,9.5,8.2v10c0,1.2,0.4,1.7,1.1,1.7c0.6,0,1.3-0.6,2-1.8h0.2c-0.7,2.3-2.9,3.3-5.3,3.3
				C156.7,100.5,155.2,99.4,155.2,95.9z"/>
			<path class="st2" d="M166.6,99.8c2.5,0,3.1-1.1,3.1-2.1V83.2c0-1.5-0.7-2.2-3-2.2v-0.2c3.8,0,6.9-0.4,9.8-1.6v18.6
				c0,1,0.6,2.1,3.1,2.1v0.2h-12.9V99.8z M181,99.8c2.4,0,3-1.1,3-2.1V84.9c0-2.3-1.2-3.5-3.2-3.5c-1.1,0-2.1,0.4-3.1,1.3v-0.2
				c1.1-1.7,3.8-3.3,6.8-3.3c3.7,0,6.3,1.7,6.3,5.8v12.8c0,1,0.6,2.1,3.1,2.1v0.2H181V99.8z"/>
			<path class="st2" d="M206.7,79.4c-2.4,0.3-3.5,2.3-3.5,10.2c0,5.9,3,9.2,6.7,9.2c2.3,0,4.1-0.7,6-2.2v0.2c-2.1,2.7-6,3.7-8.7,3.7
				c-5.3,0-11-3.9-11-10.8s5.7-10.6,10.5-10.6V79.4z M215.8,83.8c0,2.2-1.5,3.9-4.1,3.9c-2,0-3.3-1.3-3.6-2.6c1.1-0.5,2-1.9,2-3
				c0-0.9-0.2-2.4-1.8-2.7v-0.3C213.7,79.1,215.8,81.4,215.8,83.8z"/>
			<path class="st2" d="M218.9,89.7c0-6.9,5.3-10.6,10.1-10.6v0.2c-2.4,0.3-3.1,2.3-3.1,10.2c0,5.9,2.6,9.2,6.3,9.2
				c2.3,0,4.1-0.7,6-2.2v0.2c-2.1,2.7-6,3.7-8.7,3.7C224.2,100.5,218.9,96.6,218.9,89.7z M228.1,88c3.6,0,5.1-1.1,5.1-4.6
				c0-2-0.8-3.8-2.7-4v-0.2c5.4,0,8,3.9,8,7c0,0.7-0.1,1.5-0.2,2.1h-10.3V88z"/>
		</g>
		<g class="st1">
			<path class="st2" d="M34.2,141.3v0.2c-3.2-0.1-5.8-0.7-8-2l-1.4,2h-0.3v-10h0.3C26.2,136.2,29.2,139.6,34.2,141.3z M46.3,133.1
				c0,5.3-3.9,8.2-10.3,8.4v-0.2c2.3-0.4,4.5-1.7,4.5-4.2c0-7.2-15.7-7.8-15.7-16.2c0-4.9,4-7.8,9.4-8.1v0.2
				c-1.9,0.3-3.6,1.5-3.6,3.8C30.6,124,46.3,124.8,46.3,133.1z M36,113.1v-0.2c3.1,0.1,5.5,0.8,7.4,2.2l1.5-2.2h0.3v9.2h-0.3
				C43.5,117.6,40,114,36,113.1z"/>
			<path class="st2" d="M58.9,147.4c0,1.5,0.7,2.2,3,2.2v0.2c-3.8,0-6.4,0.4-9.8,1.6v-27.2c0-1.5-0.7-2.2-3-2.2v-0.2
				c3.8,0,6.4-0.4,9.8-1.6V147.4z M74.5,130.7c0,8.6-4.5,10.9-8.4,10.9c-2.3,0-5-1.6-6-3.3V138c1,0.8,2.1,1.4,3.4,1.4
				c1.9,0,4-1.4,4-8.7c0-7.4-1.9-8.4-4-8.4c-1.3,0-2.5,0.5-3.4,1.5v-0.3c1-1.7,3.7-3.3,6-3.3C70.1,120.2,74.5,122.5,74.5,130.7z"/>
			<path class="st2" d="M78.1,130.8c0-6.9,5.3-10.6,10.1-10.6v0.2c-2.4,0.3-3.1,2.3-3.1,10.2c0,5.9,2.6,9.2,6.3,9.2
				c2.3,0,4.1-0.7,6-2.2v0.2c-2.1,2.7-6,3.7-8.7,3.7C83.4,141.6,78.1,137.7,78.1,130.8z M87.4,129.1c3.6,0,5.1-1.1,5.1-4.6
				c0-2-0.8-3.8-2.7-4v-0.2c5.4,0,8,3.9,8,7c0,0.7-0.1,1.5-0.2,2.1H87.4V129.1z"/>
			<path class="st2" d="M111.8,120.5c-2.4,0.3-3.5,2.3-3.5,10.2c0,5.9,3,9.2,6.7,9.2c2.3,0,4.1-0.7,6-2.2v0.2
				c-2.1,2.7-6,3.7-8.7,3.7c-5.3,0-11-3.9-11-10.8c0-6.9,5.7-10.6,10.5-10.6V120.5z M120.9,124.8c0,2.2-1.5,3.9-4.1,3.9
				c-2,0-3.3-1.3-3.6-2.6c1.1-0.5,2-1.9,2-3c0-0.9-0.2-2.4-1.8-2.7v-0.3C118.8,120.2,120.9,122.5,120.9,124.8z"/>
			<path class="st2" d="M123.3,121.8c3.8,0,6.9-0.4,9.8-1.6v18.6c0,1,0.6,2.1,3.1,2.1v0.2h-12.9v-0.2c2.5,0,3.1-1.1,3.1-2.1v-14.6
				c0-1.5-0.7-2.2-3-2.2V121.8z M125.4,114c0-2.1,1.7-3.6,4.2-3.6c2.5,0,4.2,1.4,4.2,3.6c0,2.2-1.7,3.6-4.2,3.6
				C127.1,117.7,125.4,116.2,125.4,114z"/>
			<path class="st2" d="M138.3,136.3c0-3.6,3.3-5.6,7.9-5.6h4.4v0.2h-1.2c-3,0-4.4,1.9-4.4,4.5c0,2.3,0.7,4,2.6,4
				c1.1,0,2.1-0.6,3-1.4v0.2c-1.4,1.6-3.5,3.3-6.5,3.3C140.6,141.6,138.2,139.6,138.3,136.3z M139.9,124.7c0-2.1,1.9-4.2,7.5-4.5
				v0.2c-1.6,0.2-2.6,1.6-2.6,3c0,1.5,1,2.4,2.7,2.5c-0.6,1.1-2.3,2-3.9,2C141.2,127.9,139.9,126.4,139.9,124.7z M151.8,136.9v-12.6
				c0-2-0.8-3.6-2.8-3.9v-0.2c6.8,0.2,9.5,2.8,9.5,8.2v10c0,1.2,0.4,1.7,1.1,1.7c0.6,0,1.3-0.6,2-1.8h0.2c-0.7,2.3-2.9,3.3-5.3,3.3
				C153.3,141.6,151.8,140.4,151.8,136.9z"/>
			<path class="st2" d="M163,112.6c3.8,0,6.9-0.4,9.8-1.6v27.8c0,1,0.6,2.1,3.1,2.1v0.2h-12.9v-0.2c2.5,0,3.1-1.1,3.1-2.1V115
				c0-1.5-0.7-2.2-3-2.2V112.6z"/>
			<path class="st2" d="M177.7,121.8c3.8,0,6.9-0.4,9.8-1.6v18.6c0,1,0.6,2.1,3.1,2.1v0.2h-12.9v-0.2c2.5,0,3.1-1.1,3.1-2.1v-14.6
				c0-1.5-0.7-2.2-3-2.2V121.8z M179.8,114c0-2.1,1.7-3.6,4.2-3.6s4.2,1.4,4.2,3.6c0,2.2-1.7,3.6-4.2,3.6S179.8,116.2,179.8,114z"/>
			<path class="st2" d="M200.2,136.3c-1.4,0-2.3,0.8-2.3,2.1c0,1.2,0.8,2.7,3.7,3v0.2c-5.5-0.2-8.5-1.7-8.5-4.1c0-1.9,1.6-3,3.5-3
				C198.2,134.5,199.6,135.2,200.2,136.3z M201.5,120.5c-1.5,0.3-3,1.1-3,2.8c0.1,4.8,13.4,5.5,13.4,12.1c0,4-3.4,6.1-8.7,6.3v-0.2
				c1.7-0.3,3.7-0.9,3.7-3c0-4.3-13.5-5.8-13.5-12.1c0-3.6,3.4-5.8,8-6V120.5z M211.2,124.4c0,1.3-1,2.5-3,2.5c-1.7,0-3-0.7-3.5-2
				c1.2-0.1,1.9-0.9,1.8-1.9c0-1.2-1.6-2.4-3.2-2.6v-0.2C208,120.5,211.2,122.1,211.2,124.4z"/>
			<path class="st2" d="M230.6,138v0.2c-1.3,1.9-3.9,3.3-7,3.3c-3.7,0-6.3-1.7-6.3-5.8v-13.5h-2.1l0.5-0.6h1.7v-4.4
				c2.5,0,5-0.8,6.7-2.3v6.7h5.5l-0.5,0.6H224v13.6c0,2.1,0.8,4.2,2.7,4.2C227.9,140.1,229.3,139.3,230.6,138z"/>
			<path class="st2" d="M239.5,136.3c-1.4,0-2.3,0.8-2.3,2.1c0,1.2,0.8,2.7,3.7,3v0.2c-5.5-0.2-8.5-1.7-8.5-4.1c0-1.9,1.6-3,3.5-3
				C237.5,134.5,238.9,135.2,239.5,136.3z M240.9,120.5c-1.5,0.3-3,1.1-3,2.8c0.1,4.8,13.4,5.5,13.4,12.1c0,4-3.4,6.1-8.7,6.3v-0.2
				c1.7-0.3,3.7-0.9,3.7-3c0-4.3-13.5-5.8-13.5-12.1c0-3.6,3.4-5.8,8-6V120.5z M250.6,124.4c0,1.3-1,2.5-3,2.5c-1.7,0-3-0.7-3.5-2
				c1.2-0.1,1.9-0.9,1.8-1.9c0-1.2-1.6-2.4-3.2-2.6v-0.2C247.3,120.5,250.6,122.1,250.6,124.4z"/>
		</g>
	</g>
</g>
</svg>
