<svg id="Layer_1" data-name="Layer 1" xmlns="http://www.w3.org/2000/svg" xmlns:xlink="http://www.w3.org/1999/xlink" viewBox="0 0 320 480"><defs><style>.cls-1{fill:none;}.cls-2{clip-path:url(#clip-path);}.cls-3{fill:#ffac00;}.cls-4{fill:#fff;}</style><clipPath id="clip-path"><rect class="cls-1" width="320" height="480"/></clipPath></defs><title>Artboard 1 copy</title><g class="cls-2"><path class="cls-3" d="M24.64,178.83v51.51a18.37,18.37,0,0,0,9.91,16.31l77.21,40.06a23,23,0,0,0,21.15,0l77.21-40.06A18.37,18.37,0,0,0,220,230.34V178.83a8.58,8.58,0,0,0-8.58-8.58H33.22A8.58,8.58,0,0,0,24.64,178.83Z"/><path class="cls-4" d="M107,207l.35-.51c.25-.35.52-.36.92-.14a3.94,3.94,0,0,0,2.29.83c1.05,0,1.69-.53,1.69-1.29,0-2.15-5.27-1.7-5.27-5.22,0-2,1.66-3.27,3.8-3.27a5.21,5.21,0,0,1,2.91.86.62.62,0,0,1,.21.9l-.29.53c-.24.46-.57.4-.9.22a3.69,3.69,0,0,0-2-.62c-1.05,0-1.72.51-1.72,1.27,0,2.12,5.27,1.58,5.27,5.17,0,1.83-1.37,3.34-3.74,3.34a6.07,6.07,0,0,1-3.47-1.14A.6.6,0,0,1,107,207Z"/><path class="cls-4" d="M118.89,199.36h-3a.58.58,0,0,1-.67-.65v-.44a.6.6,0,0,1,.67-.67H124a.59.59,0,0,1,.65.67v.44a.58.58,0,0,1-.65.65h-3v8.86a.59.59,0,0,1-.67.67h-.71a.58.58,0,0,1-.65-.67Z"/><path class="cls-4" d="M127.29,198.14a.72.72,0,0,1,.75-.54h1a.71.71,0,0,1,.75.54l3.53,10c.16.46-.05.76-.54.76h-.74a.71.71,0,0,1-.74-.54l-.8-2.35h-4l-.78,2.33a.7.7,0,0,1-.74.56h-.74c-.49,0-.7-.3-.54-.76Zm2.72,6.19-1-3c-.19-.63-.44-1.74-.44-1.74h0s-.25,1.11-.44,1.74l-1,3Z"/><path class="cls-4" d="M134.76,198.27a.59.59,0,0,1,.65-.67h3.06a5.24,5.24,0,0,1,2.14.3,3.15,3.15,0,0,1,1.9,3.09,3.26,3.26,0,0,1-1.88,3.08v0a4.62,4.62,0,0,1,.36.59l1.87,3.4c.27.47.06.8-.47.8h-.85a.8.8,0,0,1-.78-.46l-2-3.75h-2v3.54a.59.59,0,0,1-.66.67h-.73a.58.58,0,0,1-.65-.67Zm3.88,4.62a1.65,1.65,0,0,0,1.78-1.79,1.51,1.51,0,0,0-.89-1.54,2.74,2.74,0,0,0-1.22-.2H136.8v3.53Z"/><path class="cls-4" d="M107.79,212.06a.35.35,0,0,1,.38-.4h.33a.36.36,0,0,1,.38.4v10.38a.35.35,0,0,1-.38.4h-.33c-.26,0-.38-.14-.38-.4Z"/><path class="cls-4" d="M111.53,215.24a.36.36,0,0,1,.4-.4h.28a.36.36,0,0,1,.38.4v.92a2.87,2.87,0,0,1-.06.58h0a3.52,3.52,0,0,1,3.23-2.09c2,0,2.69,1.13,2.69,3.1v4.69a.36.36,0,0,1-.4.4h-.3c-.26,0-.38-.14-.38-.4V218c0-1.26-.21-2.37-1.75-2.37a3.11,3.11,0,0,0-3,3.26v3.51a.35.35,0,0,1-.38.4h-.3a.36.36,0,0,1-.4-.4Z"/><path class="cls-4" d="M120.2,221.57l.12-.16a.35.35,0,0,1,.54-.06,3.46,3.46,0,0,0,2.12.73c.89,0,1.62-.45,1.62-1.29,0-1.8-4.28-1.26-4.28-3.9,0-1.47,1.26-2.24,2.72-2.24a3.78,3.78,0,0,1,2.2.65.35.35,0,0,1,.11.53l-.11.17c-.13.23-.32.24-.54.12a3,3,0,0,0-1.72-.51c-.84,0-1.58.36-1.58,1.24,0,1.84,4.27,1.25,4.27,3.92,0,1.32-1.12,2.26-2.71,2.26a4.19,4.19,0,0,1-2.7-.92A.35.35,0,0,1,120.2,221.57Z"/><path class="cls-4" d="M127.27,215.24a.35.35,0,0,1,.38-.4h.3a.36.36,0,0,1,.4.4v4.41c0,1.25.19,2.36,1.73,2.36a3.1,3.1,0,0,0,3-3.33v-3.44a.37.37,0,0,1,.4-.4h.3a.35.35,0,0,1,.38.4v7.2c0,.26-.12.4-.38.4h-.28a.35.35,0,0,1-.39-.4v-.92a3.23,3.23,0,0,1,.05-.57h0a3.46,3.46,0,0,1-3.15,2.08c-1.89,0-2.67-1-2.67-3.1Z"/><path class="cls-4" d="M136.47,215.24a.36.36,0,0,1,.39-.4h.29a.36.36,0,0,1,.38.4v1.08a3.53,3.53,0,0,1-.06.64h0a2.85,2.85,0,0,1,2.58-2.16c.28,0,.41.12.41.38v.28c0,.26-.18.4-.45.4-1.68,0-2.49,1.92-2.49,3.59v3a.35.35,0,0,1-.38.4h-.31a.36.36,0,0,1-.39-.4Z"/><path class="cls-4" d="M146,217.94h.46v-.25a1.8,1.8,0,0,0-2-2.07,3.72,3.72,0,0,0-1.93.56.38.38,0,0,1-.55-.13l-.09-.16a.36.36,0,0,1,.11-.54,4.89,4.89,0,0,1,2.54-.7,2.73,2.73,0,0,1,3,3.07v4.72a.35.35,0,0,1-.38.4h-.26a.36.36,0,0,1-.4-.4v-.63a3.3,3.3,0,0,1,.05-.61h0a3,3,0,0,1-2.7,1.83,2.46,2.46,0,0,1-2.71-2.34C141.11,218.09,144.45,217.94,146,217.94Zm-2,4.19c1.54,0,2.45-1.59,2.45-3v-.39H146c-1.25,0-3.78.05-3.78,1.85A1.6,1.6,0,0,0,144,222.13Z"/><path class="cls-4" d="M149.81,215.24a.36.36,0,0,1,.39-.4h.29a.36.36,0,0,1,.38.4v.92a2.87,2.87,0,0,1-.06.58h0a3.52,3.52,0,0,1,3.23-2.09c2,0,2.69,1.13,2.69,3.1v4.69a.36.36,0,0,1-.4.4h-.3a.35.35,0,0,1-.39-.4V218c0-1.26-.2-2.37-1.75-2.37a3.1,3.1,0,0,0-3,3.26v3.51a.35.35,0,0,1-.38.4h-.31a.36.36,0,0,1-.39-.4Z"/><path class="cls-4" d="M162.74,214.65a4.19,4.19,0,0,1,2.65.91.34.34,0,0,1,.05.54l-.11.17c-.14.23-.32.23-.54.08a3.3,3.3,0,0,0-2-.73,3.22,3.22,0,0,0,0,6.44,3.47,3.47,0,0,0,2.26-.84.32.32,0,0,1,.53.09l.11.16a.38.38,0,0,1-.1.54,4.37,4.37,0,0,1-2.84,1,4.19,4.19,0,1,1,0-8.38Z"/><path class="cls-4" d="M170.61,214.65c2.13,0,3.34,1.54,3.34,3.82a.4.4,0,0,1-.41.4h-5.76a3,3,0,0,0,3.1,3.19,3.4,3.4,0,0,0,2.1-.73.34.34,0,0,1,.53.1l.12.19a.37.37,0,0,1-.11.52,4.54,4.54,0,0,1-2.67.89,4,4,0,0,1-4.18-4.18A3.91,3.91,0,0,1,170.61,214.65Zm2.24,3.41a2.3,2.3,0,0,0-2.27-2.52,2.75,2.75,0,0,0-2.75,2.52Z"/><path class="cls-4" d="M108,227.21a.62.62,0,0,1,.68-.63h1a.72.72,0,0,1,.75.54l2,5c.25.67.57,1.65.57,1.65h0s.31-1,.56-1.65l2-5a.73.73,0,0,1,.76-.54h1a.62.62,0,0,1,.68.63l.81,10a.58.58,0,0,1-.63.69h-.72a.62.62,0,0,1-.68-.64l-.43-5.68c0-.74,0-1.75,0-1.75h0s-.35,1.1-.6,1.75l-1.64,3.85a.73.73,0,0,1-.75.53h-.67a.74.74,0,0,1-.76-.53l-1.62-3.85c-.26-.65-.62-1.76-.62-1.76h0s0,1,0,1.76l-.43,5.68a.61.61,0,0,1-.68.64h-.72a.57.57,0,0,1-.63-.69Z"/><path class="cls-4" d="M124.78,229.57a4.25,4.25,0,1,1-4.46,4.24A4.27,4.27,0,0,1,124.78,229.57Zm0,6.77a2.53,2.53,0,1,0-2.41-2.53A2.41,2.41,0,0,0,124.78,236.34Z"/><path class="cls-4" d="M130.92,231.47h-.43a.59.59,0,0,1-.66-.66v-.27a.6.6,0,0,1,.67-.67H131v-1.66a.6.6,0,0,1,.67-.66h.64a.6.6,0,0,1,.67.66v1.66h1.17a.61.61,0,0,1,.67.67v.27a.59.59,0,0,1-.65.66h-1.19v3.15a1.32,1.32,0,0,0,1.3,1.51c.49.05.67.21.67.66v.49c0,.48-.27.67-.83.67a2.9,2.9,0,0,1-3.16-3Z"/><path class="cls-4" d="M139.93,229.57a4.25,4.25,0,1,1-4.45,4.24A4.27,4.27,0,0,1,139.93,229.57Zm0,6.77a2.53,2.53,0,1,0-2.4-2.53A2.42,2.42,0,0,0,139.93,236.34Z"/><path class="cls-4" d="M145.88,230.42a.59.59,0,0,1,.65-.66h.62a.6.6,0,0,1,.67.66v.77a3.13,3.13,0,0,1,0,.55h0a2.77,2.77,0,0,1,2.35-2.05c.44,0,.6.23.6.67V231a.61.61,0,0,1-.68.67c-1.48,0-2.2,1.46-2.2,2.94v2.61a.59.59,0,0,1-.65.67h-.7a.59.59,0,0,1-.65-.67Z"/><path class="cls-4" d="M155.61,229.57a4.5,4.5,0,0,1,2.66.81.59.59,0,0,1,.12.9l-.2.32c-.24.37-.51.37-.89.18a2.81,2.81,0,0,0-1.58-.5,2.41,2.41,0,0,0-2.46,2.52,2.46,2.46,0,0,0,2.53,2.54,3.17,3.17,0,0,0,1.81-.62c.4-.22.7-.18.91.21l.16.3a.62.62,0,0,1-.18.89,4.85,4.85,0,0,1-2.88.94,4.25,4.25,0,1,1,0-8.49Z"/><path class="cls-4" d="M160.37,239.39a1.33,1.33,0,0,0,.58.15,1.52,1.52,0,0,0,1.28-1.09l.31-.71-3.09-7.2c-.2-.46,0-.78.51-.78h.86a.71.71,0,0,1,.75.54l1.52,4.13c.15.43.31,1.1.31,1.1h0s.14-.64.27-1.07l1.43-4.15a.69.69,0,0,1,.75-.55h.79c.49,0,.7.3.54.76l-3.34,8.56a3.06,3.06,0,0,1-2.92,2.13,3.11,3.11,0,0,1-1.13-.24.57.57,0,0,1-.3-.86l.14-.35A.58.58,0,0,1,160.37,239.39Z"/><path class="cls-4" d="M172.06,229.57a4.53,4.53,0,0,1,2.66.81.59.59,0,0,1,.12.9l-.2.32c-.24.37-.51.37-.89.18a2.81,2.81,0,0,0-1.58-.5,2.41,2.41,0,0,0-2.46,2.52,2.46,2.46,0,0,0,2.53,2.54,3.17,3.17,0,0,0,1.81-.62c.4-.22.7-.18.91.21l.15.3a.62.62,0,0,1-.17.89,4.85,4.85,0,0,1-2.88.94,4.25,4.25,0,1,1,0-8.49Z"/><path class="cls-4" d="M176.47,227.24a.59.59,0,0,1,.65-.66h.7a.59.59,0,0,1,.65.66v7.94c0,.79.33.94.64,1a.52.52,0,0,1,.49.57v.54a.6.6,0,0,1-.67.69c-1.08,0-2.46-.29-2.46-2.61Z"/><path class="cls-4" d="M184.38,229.57c2.31,0,3.59,1.63,3.59,3.86a.7.7,0,0,1-.7.68h-4.94a2.33,2.33,0,0,0,2.43,2.23,3.42,3.42,0,0,0,1.75-.52c.4-.2.68-.15.89.22l.19.32a.61.61,0,0,1-.22.89,5.15,5.15,0,0,1-2.75.81,4.16,4.16,0,0,1-4.36-4.25A4,4,0,0,1,184.38,229.57Zm1.59,3.32a1.65,1.65,0,0,0-1.64-1.8,2,2,0,0,0-2,1.8Z"/><path class="cls-4" d="M69.44,232.8a1.2,1.2,0,0,1-.51-.13,1.13,1.13,0,0,1-.56-1.35L80.15,195.1a2.47,2.47,0,0,1,2.39-1.74h0a2.48,2.48,0,0,1,2.39,1.74l2.38,7.18a.84.84,0,0,1-.54,1.07.85.85,0,0,1-1.08-.54l-2.38-7.18a.79.79,0,0,0-.77-.56h0a.79.79,0,0,0-.77.55L71.12,228.38l15-20.51A4.67,4.67,0,0,1,89.88,206h10a2.52,2.52,0,0,1,1.48,4.55l-9.13,6.64-.1.08,3.53,10.86a2.51,2.51,0,0,1-3.87,2.81l-7.89-5.74a2.51,2.51,0,0,1,0-4.07l6.62-4.8a.39.39,0,0,1,.1-.08l9.74-7.08a.81.81,0,0,0-.48-1.46h-10a3,3,0,0,0-2.39,1.21L70.35,232.33A1.13,1.13,0,0,1,69.44,232.8Zm21.23-14.53-5.78,4.19a.8.8,0,0,0,0,1.31l7.89,5.74A.81.81,0,0,0,94,228.6Z"/><path class="cls-4" d="M70.05,214.79a.82.82,0,0,1-.49-.16l-5.83-4.12A2.52,2.52,0,0,1,65.2,206h7.15a.86.86,0,0,1,.85.86.85.85,0,0,1-.85.85H65.2a.8.8,0,0,0-.77.56.79.79,0,0,0,.3.9l5.82,4.12a.86.86,0,0,1,.2,1.19A.87.87,0,0,1,70.05,214.79Z"/><path class="cls-4" d="M78,244.82a2.74,2.74,0,0,1-1.36-.36L61.73,236a.84.84,0,0,1-.43-.74V217.11a.85.85,0,1,1,1.7,0v17.66L77.46,243a1.07,1.07,0,0,0,1.09,0l10.56-6.61a.86.86,0,0,1,1.18.27.87.87,0,0,1-.27,1.18L79.46,244.4A2.79,2.79,0,0,1,78,244.82Z"/></g></svg>