<?xml version="1.0" encoding="utf-8"?>
<!-- Generator: Adobe Illustrator 24.0.3, SVG Export Plug-In . SVG Version: 6.00 Build 0)  -->
<svg version="1.1" id="Layer_1" xmlns="http://www.w3.org/2000/svg" xmlns:xlink="http://www.w3.org/1999/xlink" x="0px" y="0px"
	 viewBox="0 0 52 17.3" style="enable-background:new 0 0 52 17.3;" xml:space="preserve">
<style type="text/css">
	.st0{fill:#43C5B0;}
	.st1{fill:#FFFFFF;}
</style>
<g>
	<path class="st0" d="M48,17.3H4c-2.2,0-4-1.8-4-4V4c0-2.2,1.8-4,4-4h44c2.2,0,4,1.8,4,4v9.3C52,15.5,50.2,17.3,48,17.3z"/>
	<g>
		<g>
			<path class="st1" d="M10.6,6.2c0.9,0,1.6,0.3,1.8,0.5c0.2,0.2,0.3,0.3,0.1,0.6l-0.2,0.3c-0.1,0.2-0.3,0.2-0.6,0.1
				c-0.3-0.1-0.5-0.3-1-0.3C9.6,7.4,9.1,8.1,9.1,9c0,1,0.7,1.7,1.6,1.7c0.8,0,1.1-0.4,1.1-0.4V9.8h-0.4c-0.3,0-0.4-0.1-0.4-0.4V9.1
				c0-0.3,0.1-0.4,0.4-0.4h1.1c0.3,0,0.4,0.1,0.4,0.4v2.3c0,0.3-0.1,0.4-0.4,0.4h-0.3c-0.3,0-0.4-0.1-0.4-0.3v0c0,0,0-0.1,0-0.1h0
				c0,0-0.5,0.5-1.5,0.5C9,11.8,7.7,10.8,7.7,9C7.7,7.4,8.9,6.2,10.6,6.2z"/>
			<path class="st1" d="M15.5,7.7c1.2,0,1.8,0.8,1.8,1.9c0,0.2-0.2,0.4-0.4,0.4h-2.1c0.1,0.5,0.5,0.7,0.9,0.7c0.3,0,0.5-0.1,0.7-0.2
				c0.3-0.1,0.4-0.1,0.6,0.2l0.1,0.2c0.1,0.2,0.1,0.4-0.1,0.6c-0.3,0.2-0.8,0.4-1.4,0.4c-1.4,0-2.2-1-2.2-2.1
				C13.4,8.6,14.2,7.7,15.5,7.7z M16,9.3c0-0.3-0.2-0.6-0.5-0.6c-0.4,0-0.6,0.3-0.6,0.6H16z"/>
			<path class="st1" d="M18.1,8.9H18c-0.3,0-0.4-0.1-0.4-0.4V8.3c0-0.3,0.1-0.4,0.4-0.4h0.1V7.1c0-0.3,0.1-0.4,0.4-0.4H19
				c0.3,0,0.4,0.1,0.4,0.4v0.7h0.4c0.3,0,0.4,0.1,0.4,0.4v0.2c0,0.3-0.1,0.4-0.4,0.4h-0.4v1.2c0,0.3,0.2,0.5,0.5,0.5
				c0.3,0,0.4,0.1,0.4,0.4v0.3c0,0.3-0.2,0.4-0.5,0.4c-0.6,0-1.7-0.3-1.7-1.4V8.9z"/>
			<path class="st1" d="M25.5,6.2c1.7,0,2.9,1.2,2.9,2.8c0,0.6-0.2,1.2-0.5,1.6l0.2,0.2c0.2,0.2,0.2,0.4,0.1,0.6l-0.2,0.2
				c-0.2,0.2-0.4,0.2-0.6,0l-0.3-0.3c-0.4,0.3-1,0.5-1.6,0.5c-1.7,0-2.9-1.3-2.9-2.9C22.6,7.4,23.8,6.2,25.5,6.2z M25.5,10.6
				c0.2,0,0.4,0,0.6-0.1l-0.2-0.2c-0.2-0.2-0.2-0.4,0-0.6L26,9.5c0.2-0.2,0.4-0.2,0.6-0.1l0.3,0.3C26.9,9.5,27,9.2,27,9
				c0-0.9-0.6-1.6-1.5-1.6C24.6,7.4,24,8.1,24,9C24,9.9,24.6,10.6,25.5,10.6z"/>
			<path class="st1" d="M28.9,8.2c0-0.3,0.1-0.4,0.4-0.4h0.5c0.3,0,0.4,0.1,0.4,0.4v1.9c0,0.4,0.1,0.5,0.4,0.5
				c0.6,0,0.8-0.5,0.8-1.1V8.2c0-0.3,0.1-0.4,0.4-0.4h0.5c0.3,0,0.4,0.1,0.4,0.4v3.1c0,0.3-0.1,0.4-0.4,0.4H32
				c-0.3,0-0.4-0.1-0.4-0.4v-0.1c0,0,0-0.1,0-0.1h0c-0.2,0.4-0.7,0.7-1.2,0.7c-0.8,0-1.4-0.4-1.4-1.5V8.2z"/>
			<path class="st1" d="M35.6,7.7c1.3,0,2.2,0.8,2.2,2.1c0,1.2-1,2.1-2.2,2.1s-2.2-0.8-2.2-2.1C33.4,8.5,34.4,7.7,35.6,7.7z
				 M35.6,10.7c0.5,0,0.9-0.4,0.9-1c0-0.6-0.4-1-0.9-1s-0.9,0.4-0.9,1C34.7,10.4,35.1,10.7,35.6,10.7z"/>
			<path class="st1" d="M38.6,8.9h-0.1c-0.3,0-0.4-0.1-0.4-0.4V8.3c0-0.3,0.1-0.4,0.4-0.4h0.1V7.1c0-0.3,0.1-0.4,0.4-0.4h0.4
				c0.3,0,0.4,0.1,0.4,0.4v0.7h0.4c0.3,0,0.4,0.1,0.4,0.4v0.2c0,0.3-0.1,0.4-0.4,0.4H40v1.2c0,0.3,0.2,0.5,0.5,0.5
				c0.3,0,0.4,0.1,0.4,0.4v0.3c0,0.3-0.2,0.4-0.5,0.4c-0.6,0-1.7-0.3-1.7-1.4V8.9z"/>
			<path class="st1" d="M43.2,7.7c1.2,0,1.8,0.8,1.8,1.9c0,0.2-0.2,0.4-0.4,0.4h-2.1c0.1,0.5,0.5,0.7,0.9,0.7c0.3,0,0.5-0.1,0.7-0.2
				c0.3-0.1,0.4-0.1,0.6,0.2l0.1,0.2c0.1,0.2,0.1,0.4-0.1,0.6c-0.3,0.2-0.8,0.4-1.4,0.4c-1.4,0-2.2-1-2.2-2.1
				C41.1,8.6,41.9,7.7,43.2,7.7z M43.7,9.3c0-0.3-0.2-0.6-0.5-0.6c-0.4,0-0.6,0.3-0.6,0.6H43.7z"/>
		</g>
	</g>
</g>
</svg>
