<svg id="Layer_1" data-name="Layer 1" xmlns="http://www.w3.org/2000/svg" xmlns:xlink="http://www.w3.org/1999/xlink" viewBox="0 0 300 600"><defs><style>.cls-1{fill:none;}.cls-2{clip-path:url(#clip-path);}.cls-3{fill:#fff;}</style><clipPath id="clip-path"><rect class="cls-1" width="300" height="600"/></clipPath></defs><title>Artboard 1 copy 4</title><g class="cls-2"><path class="cls-3" d="M21.5,74.1c2.11,0,2.63-.8,2.63-1.78V52.51c0-1-.52-1.79-2.63-1.79v-.21h8.58V72.32c0,1,.53,1.78,2.63,1.78v.21H21.5ZM31.83,50.72v-.21h9.63v7h-.28C39.57,52.54,37.15,51.07,31.83,50.72Zm1.93,11.9-1.93-.17v-.21l1.93-.18a5.38,5.38,0,0,0,4.62-3h.28v6.51h-.28A5.35,5.35,0,0,0,33.76,62.62Z"/><path class="cls-3" d="M51.64,56.67c-2.06.25-2.76,2-2.76,8.82,0,6.58.7,8.75,2.76,9v.21a8.93,8.93,0,0,1-8.72-9.17,8.78,8.78,0,0,1,8.72-9Zm10.08,8.82A8.91,8.91,0,0,1,53,74.66v-.21c2.07-.21,2.73-2.41,2.73-9,0-6.86-.7-8.61-2.73-8.82v-.21A8.72,8.72,0,0,1,61.72,65.49Z"/><path class="cls-3" d="M72.43,72.32c0,.87.53,1.78,2.63,1.78v.21H64V74.1c2.1,0,2.63-.91,2.63-1.78V59.89c0-1.26-.6-1.85-2.6-1.85v-.21a21.32,21.32,0,0,0,8.37-1.37Zm9.45-12.08a3.74,3.74,0,0,1-3.6,4,2.39,2.39,0,0,1-2-.77,2.55,2.55,0,0,0,1.37-2.38,1.86,1.86,0,0,0-2-1.89,2.41,2.41,0,0,0-2.1,1.33v-.28a4.84,4.84,0,0,1,4.55-3.78A3.55,3.55,0,0,1,81.88,60.24Z"/><path class="cls-3" d="M27.56,109.15a1.79,1.79,0,0,0-2,1.75c0,1,.7,2.31,3.12,2.55v.21c-4.66-.17-7.22-1.43-7.22-3.46a2.73,2.73,0,0,1,3-2.59A3.55,3.55,0,0,1,27.56,109.15Zm1.16-13.48c-1.3.25-2.56.91-2.52,2.35.1,4.06,11.44,4.72,11.44,10.29,0,3.39-2.87,5.18-7.38,5.35v-.21c1.47-.24,3.11-.77,3.11-2.59,0-3.64-11.48-5-11.48-10.29,0-3.08,2.91-4.93,6.83-5.11ZM37,99.07a2.29,2.29,0,0,1-2.59,2.17,3,3,0,0,1-3-1.68A1.57,1.57,0,0,0,33,97.91c0-1-1.33-2.06-2.73-2.24v-.21C34.21,95.67,37,97.11,37,99.07Z"/><path class="cls-3" d="M48,118.63c0,1.26.59,1.86,2.59,1.86v.21a23.06,23.06,0,0,0-8.37,1.36V98.86c0-1.26-.59-1.86-2.59-1.86v-.21A23.13,23.13,0,0,0,48,95.43Zm13.33-14.24c0,7.31-3.85,9.27-7.17,9.27a6.58,6.58,0,0,1-5.12-2.83v-.21a5,5,0,0,0,3,1.22c1.64,0,3.39-1.15,3.39-7.45S53.78,97.25,52,97.25a4,4,0,0,0-3,1.29v-.28a6.55,6.55,0,0,1,5.12-2.8C57.59,95.46,61.37,97.42,61.37,104.39Z"/><path class="cls-3" d="M64.45,104.49a8.67,8.67,0,0,1,8.58-9v.21c-2.07.25-2.63,2-2.63,8.68,0,5,2.24,7.81,5.36,7.81a7.62,7.62,0,0,0,5.11-1.86v.21c-1.82,2.31-5.15,3.15-7.42,3.15A8.87,8.87,0,0,1,64.45,104.49ZM72.33,103c3.08,0,4.37-1,4.37-3.92,0-1.68-.7-3.22-2.27-3.43v-.21c4.62,0,6.86,3.29,6.86,6a9.85,9.85,0,0,1-.18,1.82H72.33Z"/><path class="cls-3" d="M93.11,95.67c-2.06.25-3,2-3,8.68,0,5,2.55,7.81,5.67,7.81a7.6,7.6,0,0,0,5.11-1.86v.21c-1.82,2.31-5.14,3.15-7.42,3.15a9.15,9.15,0,0,1-9.35-9.17,9,9,0,0,1,9-9Zm7.78,3.75a3.26,3.26,0,0,1-3.51,3.36,3,3,0,0,1-3-2.21A3,3,0,0,0,96,98a2.07,2.07,0,0,0-1.51-2.31v-.25C99.1,95.46,100.89,97.42,100.89,99.42Z"/><path class="cls-3" d="M103,96.79a21.58,21.58,0,0,0,8.37-1.36v15.89c0,.87.52,1.78,2.62,1.78v.21h-11v-.21c2.1,0,2.63-.91,2.63-1.78V98.86c0-1.26-.6-1.86-2.59-1.86Zm1.78-6.58c0-1.82,1.47-3,3.57-3s3.57,1.22,3.57,3-1.46,3.08-3.57,3.08S104.73,92.07,104.73,90.21Z"/><path class="cls-3" d="M115.69,109.18c0-3,2.8-4.76,6.72-4.76h3.78v.21h-1c-2.52,0-3.71,1.65-3.71,3.82,0,1.92.56,3.39,2.2,3.39a3.84,3.84,0,0,0,2.56-1.22v.21a7.45,7.45,0,0,1-5.57,2.83C117.65,113.66,115.65,112,115.69,109.18Zm1.4-9.9c0-1.79,1.61-3.61,6.37-3.82v.21a2.56,2.56,0,0,0-2.24,2.56c0,1.26.87,2,2.27,2.13a3.93,3.93,0,0,1-3.36,1.68A2.8,2.8,0,0,1,117.09,99.28Zm10.15,10.43V99c0-1.72-.67-3.08-2.38-3.33v-.21c5.81.21,8.12,2.42,8.12,7V111c0,1,.35,1.43,1,1.43s1.12-.52,1.68-1.57h.21c-.56,1.92-2.45,2.83-4.55,2.83C128.5,113.66,127.24,112.68,127.24,109.71Z"/><path class="cls-3" d="M136.76,89a21.49,21.49,0,0,0,8.36-1.36v23.73c0,.87.53,1.78,2.63,1.78v.21h-11v-.21c2.1,0,2.63-.91,2.63-1.78V91c0-1.26-.6-1.86-2.59-1.86Z"/><path class="cls-3" d="M149.29,96.79a21.49,21.49,0,0,0,8.36-1.36v15.89c0,.87.53,1.78,2.63,1.78v.21h-11v-.21c2.1,0,2.63-.91,2.63-1.78V98.86c0-1.26-.6-1.86-2.59-1.86Zm1.78-6.58c0-1.82,1.47-3,3.57-3s3.57,1.22,3.57,3-1.47,3.08-3.57,3.08S151.07,92.07,151.07,90.21Z"/><path class="cls-3" d="M168.47,109.15a1.79,1.79,0,0,0-2,1.75c0,1,.7,2.31,3.11,2.55v.21c-4.65-.17-7.21-1.43-7.21-3.46a2.73,2.73,0,0,1,3-2.59A3.56,3.56,0,0,1,168.47,109.15Zm1.15-13.48c-1.29.25-2.55.91-2.52,2.35.11,4.06,11.45,4.72,11.45,10.29,0,3.39-2.87,5.18-7.39,5.35v-.21c1.47-.24,3.12-.77,3.12-2.59,0-3.64-11.48-5-11.48-10.29,0-3.08,2.9-4.93,6.82-5.11Zm8.26,3.4a2.29,2.29,0,0,1-2.59,2.17,3,3,0,0,1-3-1.68,1.55,1.55,0,0,0,1.57-1.65c0-1-1.33-2.06-2.73-2.24v-.21C175.12,95.67,177.88,97.11,177.88,99.07Z"/><path class="cls-3" d="M194.44,110.62v.21a7.32,7.32,0,0,1-6,2.83c-3.15,0-5.39-1.43-5.39-4.93V97.25h-1.82l.39-.53h1.43V92.94a8.8,8.8,0,0,0,5.74-2v5.74h4.73l-.39.53H188.8v11.58c0,1.75.67,3.57,2.31,3.57A5.2,5.2,0,0,0,194.44,110.62Z"/><path class="cls-3" d="M20.91,135.79a21.54,21.54,0,0,0,8.37-1.36v15.89c0,.87.52,1.78,2.62,1.78v.21h-11v-.21c2.11,0,2.63-.91,2.63-1.78V137.86c0-1.26-.59-1.86-2.59-1.86Zm1.79-6.58c0-1.82,1.47-3,3.57-3s3.57,1.22,3.57,3-1.47,3.08-3.57,3.08S22.7,131.07,22.7,129.21Z"/><path class="cls-3" d="M33.37,152.1c2.1,0,2.63-.91,2.63-1.78V137.89c0-1.26-.6-1.85-2.6-1.85v-.21a21.32,21.32,0,0,0,8.37-1.37v15.86c0,.87.52,1.78,2.63,1.78v.21h-11Zm12.32,0c2.07,0,2.59-.91,2.59-1.78V139.4c0-2-1-3-2.76-3a3.74,3.74,0,0,0-2.66,1.09v-.21a7.14,7.14,0,0,1,5.81-2.84c3.15,0,5.39,1.47,5.39,4.94v10.92c0,.87.52,1.78,2.62,1.78v.21h-11Z"/><path class="cls-3" d="M64.66,148.15a1.79,1.79,0,0,0-2,1.75c0,1,.7,2.31,3.12,2.55v.21c-4.66-.17-7.22-1.43-7.22-3.46a2.73,2.73,0,0,1,3-2.59A3.55,3.55,0,0,1,64.66,148.15Zm1.16-13.48c-1.3.25-2.56.91-2.53,2.35.11,4.06,11.45,4.72,11.45,10.29,0,3.39-2.87,5.18-7.38,5.35v-.21c1.47-.24,3.11-.77,3.11-2.59,0-3.64-11.48-5-11.48-10.29,0-3.08,2.91-4.93,6.83-5.11Zm8.26,3.4a2.29,2.29,0,0,1-2.59,2.17,3,3,0,0,1-3-1.68,1.57,1.57,0,0,0,1.58-1.65c0-1-1.33-2.06-2.73-2.24v-.21C71.31,134.67,74.08,136.11,74.08,138.07Z"/><path class="cls-3" d="M85.06,147.73c0,2,.67,3,2.42,3a3.13,3.13,0,0,0,2.42-1.08v.21a5.86,5.86,0,0,1-5.43,2.83c-3.15,0-5.18-1.47-5.18-4.93v-9.84c0-1.26-.6-1.85-2.59-1.85v-.21a21.3,21.3,0,0,0,8.36-1.37ZM96.72,150c0,1,.32,1.43,1,1.43s1.12-.52,1.68-1.57h.21c-.56,1.92-2.45,2.83-4.76,2.83S91,151.26,91,149.23V137.89c0-1.26-.6-1.85-2.49-1.85v-.21a22.65,22.65,0,0,0,8.26-1.37Z"/><path class="cls-3" d="M109.36,150.32c0,.87.52,1.78,2.62,1.78v.21H101v-.21c2.1,0,2.63-.91,2.63-1.78V137.89c0-1.26-.6-1.85-2.59-1.85v-.21a21.36,21.36,0,0,0,8.37-1.37Zm9.45-12.08a3.75,3.75,0,0,1-3.61,4,2.37,2.37,0,0,1-2-.77,2.56,2.56,0,0,0,1.36-2.38,1.86,1.86,0,0,0-2-1.89,2.42,2.42,0,0,0-2.1,1.33v-.28a4.85,4.85,0,0,1,4.55-3.78A3.55,3.55,0,0,1,118.81,138.24Z"/><path class="cls-3" d="M120.31,148.18c0-3,2.8-4.76,6.72-4.76h3.78v.21h-1.05c-2.52,0-3.71,1.65-3.71,3.82,0,1.92.56,3.39,2.2,3.39a3.84,3.84,0,0,0,2.56-1.22v.21a7.45,7.45,0,0,1-5.57,2.83C122.27,152.66,120.27,151,120.31,148.18Zm1.4-9.9c0-1.79,1.61-3.61,6.37-3.82v.21a2.56,2.56,0,0,0-2.24,2.56c0,1.26.87,2,2.27,2.13a3.93,3.93,0,0,1-3.36,1.68A2.8,2.8,0,0,1,121.71,138.28Zm10.15,10.43V138c0-1.72-.67-3.08-2.38-3.33v-.21c5.81.21,8.12,2.42,8.12,7V150c0,1,.35,1.43,1,1.43s1.12-.52,1.68-1.57h.21c-.56,1.92-2.45,2.83-4.55,2.83C133.12,152.66,131.86,151.68,131.86,148.71Z"/><path class="cls-3" d="M141.55,152.1c2.1,0,2.63-.91,2.63-1.78V137.89c0-1.26-.6-1.85-2.59-1.85v-.21a21.39,21.39,0,0,0,8.37-1.37v15.86c0,.87.52,1.78,2.62,1.78v.21h-11Zm12.32,0c2.07,0,2.6-.91,2.6-1.78V139.4c0-2-1-3-2.77-3a3.74,3.74,0,0,0-2.66,1.09v-.21a7.16,7.16,0,0,1,5.81-2.84c3.15,0,5.39,1.47,5.39,4.94v10.92c0,.87.53,1.78,2.63,1.78v.21h-11Z"/><path class="cls-3" d="M175.71,134.67c-2.06.25-3,2-3,8.68,0,5,2.55,7.81,5.67,7.81a7.62,7.62,0,0,0,5.11-1.86v.21c-1.82,2.31-5.15,3.15-7.42,3.15a9.15,9.15,0,0,1-9.35-9.17,9,9,0,0,1,9-9Zm7.78,3.75a3.26,3.26,0,0,1-3.51,3.36,3,3,0,0,1-3-2.21,3,3,0,0,0,1.68-2.55,2.07,2.07,0,0,0-1.51-2.31v-.25C181.7,134.46,183.49,136.42,183.49,138.42Z"/><path class="cls-3" d="M186.11,143.49a8.67,8.67,0,0,1,8.57-9v.21c-2.06.25-2.62,2-2.62,8.68,0,5,2.24,7.81,5.36,7.81a7.62,7.62,0,0,0,5.11-1.86v.21c-1.82,2.31-5.15,3.15-7.43,3.15A8.87,8.87,0,0,1,186.11,143.49ZM194,142c3.09,0,4.38-1,4.38-3.92,0-1.68-.7-3.22-2.28-3.43v-.21c4.63,0,6.87,3.29,6.87,5.95a9.85,9.85,0,0,1-.18,1.82H194Z"/></g></svg>