<?xml version="1.0" encoding="utf-8"?>
<!-- Generator: Adobe Illustrator 24.0.3, SVG Export Plug-In . SVG Version: 6.00 Build 0)  -->
<svg version="1.1" id="Layer_1" xmlns="http://www.w3.org/2000/svg" xmlns:xlink="http://www.w3.org/1999/xlink" x="0px" y="0px"
	 viewBox="0 0 970 250" style="enable-background:new 0 0 970 250;" xml:space="preserve">
<style type="text/css">
	.st0{fill:none;}
	.st1{enable-background:new    ;}
	.st2{fill:#263845;}
</style>
<title>Artboard 1 copy 6</title>
<rect y="0" class="st0" width="970" height="250"/>
<g class="st1">
	<path class="st2" d="M58.3,51.6v0.3c-3.7,0.5-6.3,4.2-6.3,17.4c0,13.3,2.6,17.6,6.3,18v0.3c-7.4-0.4-16.4-5.9-16.4-18
		C41.9,58,51.4,52,58.3,51.6z M60.8,51.9v-0.3c5.3,0.3,8.2,1,10.6,2.4l1.6-2.4h0.4v12.5H73C71.6,58,67,53.1,60.8,51.9z M78.3,72.4
		v0.3c-2.4,0-3.8,0.9-3.8,3v12h-0.4l-1.9-3.1c-2.6,1.9-6.1,2.9-11.3,3.1v-0.3c3.5-0.3,5.5-2.1,5.5-6.3v-5.4c0-2.1-0.9-3-3.9-3v-0.3
		H78.3z"/>
	<path class="st2" d="M81.4,74.2c0-8.7,6.6-13.2,12.6-13.3v0.3c-3,0.4-3.9,2.9-3.9,12.8c0,7.4,3.3,11.5,7.9,11.5
		c2.9,0,5.1-0.8,7.5-2.7V83c-2.7,3.4-7.6,4.6-10.9,4.6C88.1,87.7,81.4,82.8,81.4,74.2z M93,72c4.5,0,6.4-1.4,6.4-5.8
		c0-2.5-1-4.7-3.3-5v-0.3c6.8,0,10.1,4.8,10.1,8.8c0,0.8-0.1,1.9-0.3,2.7H93V72z"/>
	<path class="st2" d="M129.5,83.2v0.3c-1.6,2.4-4.9,4.2-8.8,4.2c-4.6,0-7.9-2.1-7.9-7.3V63.5h-2.7l0.6-0.8h2.1v-5.6
		c3.1,0,6.2-1,8.4-2.9v8.4h7l-0.6,0.8h-6.4v17.1c0,2.6,1,5.3,3.4,5.3C126,85.8,127.8,84.9,129.5,83.2z"/>
	<path class="st2" d="M144.2,81.1c0.1-4.5,4.1-7,9.9-7h5.6v0.3h-1.5c-3.7,0-5.5,2.4-5.5,5.6c0,2.8,0.8,5,3.2,5
		c1.4,0,2.6-0.8,3.8-1.8v0.3c-1.7,2-4.4,4.2-8.2,4.2C147.1,87.7,144.2,85.2,144.2,81.1z M146.3,66.5c0-2.6,2.4-5.3,9.4-5.6v0.3
		c-2.1,0.3-3.3,2-3.3,3.8c0,1.9,1.3,3,3.3,3.1c-0.8,1.4-2.9,2.5-4.9,2.5C147.9,70.6,146.3,68.6,146.3,66.5z M161.2,81.8V66.1
		c0-2.5-1-4.5-3.5-4.9v-0.3c8.6,0.3,12,3.6,12,10.3v12.5c0,1.5,0.5,2.1,1.4,2.1c0.8,0,1.6-0.8,2.5-2.3h0.3c-0.8,2.8-3.6,4.2-6.7,4.2
		C163.1,87.7,161.2,86.2,161.2,81.8z"/>
</g>
<g class="st1">
	<path class="st2" d="M59.9,116.5v0.4c-1.2-1.3-2.7-1.9-4.3-1.9c-2.6,0-5,1.2-5,10.5c0,9.3,2.6,11,5,11c1.6,0,3-0.8,4.3-1.8v0.3
		c-1.3,2.2-4.6,4.2-7.5,4.2c-4.9,0-10.6-2.9-10.6-13.7c0-10.3,5.6-13.1,10.6-13.1C55.3,112.4,58.6,114.3,59.9,116.5z M70,146.5
		c0,1.9,0.9,2.7,3.8,2.7v0.3c-4.8,0-8,0.5-12.3,2v-37.2c2.7-0.3,6.2-1,8.5-2V146.5z"/>
	<path class="st2" d="M87.2,131.9c0,2.9,1,4.4,3.6,4.4c1.3,0,2.4-0.4,3.6-1.6v0.3c-1.2,2.2-3.8,4.2-8,4.2c-4.6,0-7.6-2.2-7.6-7.3
		v-14.5c0-1.9-0.9-2.7-3.8-2.7v-0.3c4.8,0,8.7-0.5,12.3-2V131.9z M104.4,135.2c0,1.5,0.5,2.1,1.4,2.1c0.8,0,1.6-0.8,2.5-2.3h0.3
		c-0.8,2.8-3.6,4.2-7,4.2c-3.6,0-5.7-2.1-5.7-5v-16.7c0-1.9-0.9-2.7-3.7-2.7v-0.3c4.6,0,7.8-0.5,12.2-2V135.2z"/>
	<path class="st2" d="M124.3,112.7c-3,0.4-4.1,2.9-4.1,13c0,9.7,1,12.9,4.1,13.2v0.3c-5.9,0-12.8-4.8-12.8-13.5
		c0-8.7,6.8-13.2,12.8-13.3V112.7z M139.2,125.7c0,8.6-6.9,13.5-12.8,13.5v-0.3c3-0.3,4-3.6,4-13.2c0-10.1-1-12.7-4-13v-0.3
		C132.4,112.4,139.2,117,139.2,125.7z"/>
</g>
<g class="st1">
	<path class="st2" d="M162.6,134.7v0.3c-1.6,2.4-4.9,4.2-8.8,4.2c-4.6,0-7.9-2.1-7.9-7.3V115h-2.7l0.6-0.8h2.1v-5.6
		c3.1,0,6.2-1,8.4-2.9v8.4h7l-0.6,0.8h-6.4v17.1c0,2.6,1,5.3,3.4,5.3C159.1,137.3,160.9,136.4,162.6,134.7z"/>
</g>
<g class="st1">
	<path class="st2" d="M164.5,125.7c0-8.7,6.6-13.2,12.6-13.3v0.3c-3,0.4-3.9,2.9-3.9,12.8c0,7.4,3.3,11.5,7.9,11.5
		c2.9,0,5.1-0.8,7.5-2.7v0.3c-2.7,3.4-7.6,4.6-10.9,4.6C171.1,139.2,164.5,134.3,164.5,125.7z M176.1,123.5c4.5,0,6.4-1.4,6.4-5.8
		c0-2.5-1-4.7-3.3-5v-0.3c6.8,0,10.1,4.8,10.1,8.8c0,0.8-0.1,1.9-0.3,2.7h-12.9V123.5z"/>
	<path class="st2" d="M223.6,114.2L223,115h-5v20.7c0,1.3,0.8,2.6,3.9,2.6v0.3h-16.3v-0.3c3.1,0,3.9-1.3,3.9-2.6V115h-3.3l0.6-0.8
		h2.8v-2.3c0-7.3,3.8-10.4,8.6-11.1v0.3c-1.8,0.7-3,2.3-3,5.5C215,109.6,217,114.2,223.6,114.2z M227.9,106.4c0,2.9-2.2,4.5-4.5,4.5
		c-2.7,0-4.4-1.5-5.2-3.5c2.2,0,3.7-1.2,3.7-3.3c0-1.4-0.7-2.7-1.9-3v-0.3C225.5,101,227.9,103.4,227.9,106.4z"/>
</g>
<g class="st1">
	<path class="st2" d="M237.6,135.7c0,1.3,0.8,2.6,3.9,2.6v0.3h-16.2v-0.3c3.1,0,3.9-1.3,3.9-2.6v-18.3c0-1.9-0.9-2.7-3.8-2.7v-0.3
		c4.8,0,8.7-0.5,12.3-2V135.7z M251.5,117.9c0,3.6-2.5,5.9-5.3,5.9c-1.2,0-2.3-0.3-2.9-1.1c1-0.5,2-1.6,2-3.5c0-1.5-1.1-2.8-2.9-2.8
		c-1.3,0-2.4,0.8-3.1,2v-0.4c1-3.3,3.5-5.6,6.7-5.6C249.6,112.4,251.5,114.9,251.5,117.9z"/>
</g>
<g class="st1">
	<path class="st2" d="M267.1,112.7c-3,0.4-4.1,2.9-4.1,13c0,9.7,1,12.9,4.1,13.2v0.3c-5.9,0-12.8-4.8-12.8-13.5
		c0-8.7,6.8-13.2,12.8-13.3V112.7z M282,125.7c0,8.6-6.9,13.5-12.8,13.5v-0.3c3-0.3,4-3.6,4-13.2c0-10.1-1-12.7-4-13v-0.3
		C275.2,112.4,282,117,282,125.7z"/>
	<path class="st2" d="M297.7,135.7c0,1.3,0.8,2.6,3.9,2.6v0.3h-16.2v-0.3c3.1,0,3.9-1.3,3.9-2.6v-18.3c0-1.9-0.9-2.7-3.8-2.7v-0.3
		c4.8,0,8.7-0.5,12.3-2V135.7z M314.8,119.6v16.1c0,1.3,0.7,2.6,3.8,2.6v0.3h-16.2v-0.3c3,0,3.9-1.3,3.9-2.6v-16.1
		c0-2.9-1.1-4.4-3.6-4.4c-1.4,0-2.7,0.7-3.4,1.5v-0.3c1.2-2.2,3.8-4.1,7.5-4.1C311.7,112.4,314.8,114.5,314.8,119.6z M331.9,119.6
		v16.1c0,1.3,0.8,2.6,3.9,2.6v0.3h-16.2v-0.3c3,0,3.9-1.3,3.9-2.6v-16.1c0-2.9-1.1-4.4-3.6-4.4c-1.4,0-2.7,0.7-3.4,1.5v-0.3
		c1.2-2.2,3.8-4.1,7.5-4.1C328.8,112.4,331.9,114.5,331.9,119.6z"/>
</g>
<g class="st1">
	<path class="st2" d="M42,166.5c-0.5-1.1-1.2-1.8-2.8-1.8v-0.3h14.4v0.3c-1.8,0-2.5,1.2-1.6,3l6.7,14.1l-4.4,8.3H54L42,166.5z
		 M39.8,198.5c0-2.2,1.8-4.1,4.5-4.8c-0.2,0.5-0.2,0.9-0.2,1.3c-0.1,2,1,3.5,3,3.5c1.8,0,3.2-1.9,5.2-5.2h0.4
		c-2.8,5.3-4.8,9.9-8.4,9.9C41.4,203,39.8,201.1,39.8,198.5z M60.9,176.8c0.9-1.6,1.4-3.9,1.4-6.6c0-2.8-1.6-5.4-5.3-5.4v-0.3h12.8
		v0.3c-1.7,0-2.4,0.7-3.3,2.4l-5.4,10.1L60.9,176.8z"/>
</g>
<g class="st1">
	<path class="st2" d="M83,164.2c-3,0.4-4.1,2.9-4.1,13c0,9.7,1,12.9,4.1,13.2v0.3c-5.9,0-12.8-4.8-12.8-13.5S77,163.9,83,163.9
		V164.2z M97.8,177.2c0,8.6-6.9,13.5-12.8,13.5v-0.3c3-0.3,4-3.6,4-13.2c0-10.1-1-12.7-4-13v-0.3C91,163.9,97.8,168.5,97.8,177.2z"
		/>
	<path class="st2" d="M113,183.4c0,2.9,1,4.4,3.6,4.4c1.3,0,2.4-0.4,3.6-1.6v0.3c-1.2,2.2-3.8,4.2-8,4.2c-4.6,0-7.6-2.2-7.6-7.3
		v-14.5c0-1.9-0.9-2.7-3.8-2.7v-0.3c4.8,0,8.7-0.5,12.3-2V183.4z M130.2,186.7c0,1.5,0.5,2.1,1.4,2.1c0.8,0,1.6-0.8,2.5-2.3h0.3
		c-0.8,2.8-3.6,4.2-7,4.2c-3.6,0-5.7-2.1-5.7-5v-16.7c0-1.9-0.9-2.7-3.7-2.7v-0.3c4.6,0,7.8-0.5,12.2-2V186.7z"/>
</g>
<g class="st1">
	<path class="st2" d="M148.8,187.2c0,1.3,0.8,2.6,3.9,2.6v0.3h-16.2v-0.3c3.1,0,3.9-1.3,3.9-2.6v-18.3c0-1.9-0.9-2.7-3.8-2.7v-0.3
		c4.8,0,8.7-0.5,12.3-2V187.2z M162.7,169.5c0,3.6-2.5,5.9-5.3,5.9c-1.2,0-2.3-0.3-2.9-1.1c1-0.5,2-1.6,2-3.5c0-1.5-1.1-2.8-2.9-2.8
		c-1.3,0-2.4,0.8-3.1,2v-0.4c1-3.3,3.5-5.6,6.7-5.6C160.7,163.9,162.7,166.4,162.7,169.5z"/>
</g>
<g class="st1">
	<path class="st2" d="M188.1,183.7c0,4.9-3.3,7-8.5,7v-33.3c0-1.9-0.9-2.7-3.9-2.7v-0.3c4.8,0,8-0.5,12.4-2V183.7z M207.7,177
		c0,10.8-5.7,13.7-10.6,13.7c-2.9,0-6.2-2-7.5-4.2v-0.3c1.3,1,2.6,1.8,4.3,1.8c2.4,0,5-1.7,5-11c0-9.3-2.5-10.5-5-10.5
		c-1.6,0-3.1,0.6-4.3,1.9V168c1.3-2.2,4.5-4.1,7.5-4.1C202.1,163.9,207.7,166.8,207.7,177z"/>
</g>
<g class="st1">
	<path class="st2" d="M223.7,187.2c0,1.3,0.8,2.6,3.9,2.6v0.3h-16.2v-0.3c3.1,0,3.9-1.3,3.9-2.6v-18.3c0-1.9-0.9-2.7-3.8-2.7v-0.3
		c4.8,0,8.7-0.5,12.3-2V187.2z M237.6,169.5c0,3.6-2.5,5.9-5.3,5.9c-1.2,0-2.3-0.3-2.9-1.1c1-0.5,2-1.6,2-3.5c0-1.5-1.1-2.8-2.9-2.8
		c-1.3,0-2.4,0.8-3.1,2v-0.4c1-3.3,3.5-5.6,6.7-5.6C235.6,163.9,237.6,166.4,237.6,169.5z"/>
</g>
<g class="st1">
	<path class="st2" d="M253.2,164.2c-3,0.4-4.1,2.9-4.1,13c0,9.7,1,12.9,4.1,13.2v0.3c-5.9,0-12.8-4.8-12.8-13.5s6.8-13.2,12.8-13.3
		V164.2z M268,177.2c0,8.6-6.9,13.5-12.8,13.5v-0.3c3-0.3,4-3.6,4-13.2c0-10.1-1-12.7-4-13v-0.3C261.2,163.9,268,168.5,268,177.2z"
		/>
</g>
<g class="st1">
	<path class="st2" d="M287.3,189.9v0.3h-16.2v-0.3c3.1,0,3.9-1.3,3.9-2.6v-29.9c0-1.9-0.9-2.7-3.8-2.7v-0.3c4.8,0,8.7-0.5,12.3-2
		v34.9C283.5,188.5,284.2,189.9,287.3,189.9z M304.8,189.9v0.3c-1.4,0.4-3.4,0.5-5.2,0.5c-3.1,0-6.6-0.6-9.3-5l-4.8-8.1
		c4.1-3.6,7.9-7.9,7.9-10.5c0-1.4-0.7-2.4-3-2.4v-0.3h13.2v0.3c-1.2,0-2.2,0.4-2.9,0.9l-9.4,7.5l8.9,13.8
		C301.8,189.5,303.1,189.6,304.8,189.9z"/>
</g>
<g class="st1">
	<path class="st2" d="M305.1,177.2c0-8.7,6.6-13.2,12.6-13.3v0.3c-3,0.4-3.9,2.9-3.9,12.8c0,7.4,3.3,11.5,7.9,11.5
		c2.9,0,5.1-0.8,7.5-2.7v0.3c-2.7,3.4-7.6,4.6-10.9,4.6C311.7,190.7,305.1,185.8,305.1,177.2z M316.7,175c4.5,0,6.4-1.4,6.4-5.8
		c0-2.5-1-4.7-3.3-5v-0.3c6.8,0,10.1,4.8,10.1,8.8c0,0.8-0.1,1.9-0.3,2.7h-12.9V175z"/>
</g>
<g class="st1">
	<path class="st2" d="M345.5,187.2c0,1.3,0.8,2.6,3.9,2.6v0.3h-16.2v-0.3c3.1,0,3.9-1.3,3.9-2.6v-18.3c0-1.9-0.9-2.7-3.8-2.7v-0.3
		c4.8,0,8.7-0.5,12.3-2V187.2z M359.4,169.5c0,3.6-2.5,5.9-5.3,5.9c-1.2,0-2.3-0.3-2.9-1.1c1-0.5,2-1.6,2-3.5c0-1.5-1.1-2.8-2.9-2.8
		c-1.3,0-2.4,0.8-3.1,2v-0.4c1-3.3,3.5-5.6,6.7-5.6C357.5,163.9,359.4,166.4,359.4,169.5z"/>
</g>
</svg>
