<svg id="Layer_1" data-name="Layer 1" xmlns="http://www.w3.org/2000/svg" viewBox="0 0 970 250"><defs><style>.cls-1{fill:#fff;}.cls-2{fill:none;}</style></defs><title>Artboard 1 copy 3</title><path class="cls-1" d="M57.5,87.1v.28a17.06,17.06,0,0,1-8.73-2.21l-1.48,2.21h-.36v-11h.36A15.07,15.07,0,0,0,57.5,87.1Zm13.23-8.95c0,5.81-4.32,8.95-11.29,9.23V87.1c2.47-.44,4.9-1.88,4.9-4.58,0-7.88-17.19-8.6-17.19-17.73,0-5.4,4.37-8.51,10.35-8.91v.27c-2.07.36-4,1.66-4,4.14C53.54,68.16,70.73,69,70.73,78.15Zm-11.29-22v-.27a14.53,14.53,0,0,1,8.1,2.38l1.62-2.38h.36v10h-.36C67.72,61.14,63.85,57.23,59.44,56.15Z"/><path class="cls-1" d="M91.25,83.46v.27a9.41,9.41,0,0,1-7.69,3.65c-4,0-6.93-1.85-6.93-6.35V66.27H74.29l.49-.67h1.85V60.74A11.42,11.42,0,0,0,84,58.22V65.6h6.07l-.49.67H84v14.9c0,2.25.85,4.59,3,4.59A6.6,6.6,0,0,0,91.25,83.46Z"/><path class="cls-1" d="M92.69,81.62c0-3.92,3.6-6.12,8.64-6.12h4.86v.27h-1.35c-3.24,0-4.77,2.11-4.77,4.9,0,2.48.72,4.37,2.84,4.37a4.93,4.93,0,0,0,3.28-1.58v.27A9.56,9.56,0,0,1,99,87.38C95.21,87.38,92.65,85.22,92.69,81.62Zm1.8-12.74c0-2.29,2.07-4.63,8.19-4.9v.27a3.28,3.28,0,0,0-2.88,3.28c0,1.62,1.13,2.61,2.93,2.75a5.06,5.06,0,0,1-4.32,2.16A3.61,3.61,0,0,1,94.49,68.88Zm13.05,13.41V68.52c0-2.2-.85-4-3.06-4.27V64c7.47.27,10.44,3.1,10.44,9V83.91c0,1.31.45,1.85,1.26,1.85s1.44-.68,2.16-2h.27c-.72,2.48-3.15,3.65-5.85,3.65C109.16,87.38,107.54,86.12,107.54,82.29Z"/><path class="cls-1" d="M130.81,84.36c0,1.13.67,2.3,3.37,2.3v.27H120v-.27c2.7,0,3.37-1.17,3.37-2.3v-16c0-1.62-.76-2.39-3.33-2.39v-.27A27.66,27.66,0,0,0,130.81,64ZM143,68.84A4.82,4.82,0,0,1,138.32,74a3,3,0,0,1-2.56-1,3.3,3.3,0,0,0,1.75-3.06A2.38,2.38,0,0,0,135,67.49a3.09,3.09,0,0,0-2.7,1.71v-.36c.86-2.88,3.06-4.86,5.85-4.86A4.57,4.57,0,0,1,143,68.84Z"/><path class="cls-1" d="M46.07,136.93v-.27c2.7,0,3.38-1,3.38-2.3V108.94c0-1.26-.68-2.34-3.38-2.34v-.27h11v30.6Zm25.16-30.6v8.32h-.36c-1.94-5.67-4.68-7.6-11.52-8.05v-.27ZM59.35,121.22V121l2.47-.22a6.93,6.93,0,0,0,5.94-3.87h.36v8.37h-.36a6.8,6.8,0,0,0-5.94-3.78Zm0,15.44c6.84-.45,10-2.39,12.46-8.06h.36v8.33H59.35Z"/><path class="cls-1" d="M75.5,136.66c2.7,0,3.38-1.17,3.38-2.3v-16c0-1.62-.77-2.39-3.33-2.39v-.27A27.61,27.61,0,0,0,86.3,114v20.38c0,1.13.68,2.3,3.38,2.3v.27H75.5Zm15.84,0c2.66,0,3.33-1.17,3.33-2.3v-14c0-2.52-1.3-3.82-3.55-3.82a4.79,4.79,0,0,0-3.42,1.39v-.27A9.18,9.18,0,0,1,95.17,114c4,0,6.93,1.89,6.93,6.34v14c0,1.13.67,2.3,3.37,2.3v.27H91.34Z"/><path class="cls-1" d="M124.55,133.46v.27a9.41,9.41,0,0,1-7.69,3.65c-4,0-6.93-1.85-6.93-6.35V116.27h-2.34l.49-.67h1.85v-4.86a11.42,11.42,0,0,0,7.38-2.52v7.38h6.07l-.49.67h-5.58v14.9c0,2.25.85,4.59,3,4.59A6.6,6.6,0,0,0,124.55,133.46Z"/><path class="cls-1" d="M136.16,134.36c0,1.13.68,2.3,3.38,2.3v.27H125.36v-.27c2.7,0,3.38-1.17,3.38-2.3v-26.1c0-1.62-.77-2.38-3.33-2.38v-.27a27.42,27.42,0,0,0,10.75-1.76Zm15.75-14v14c0,1.13.68,2.3,3.38,2.3v.27H141.16v-.27c2.65,0,3.33-1.17,3.33-2.3v-14c0-2.52-1.31-3.82-3.56-3.82a4.79,4.79,0,0,0-3.42,1.39v-.27A9.19,9.19,0,0,1,145,114C149,114,151.91,115.87,151.91,120.32Z"/><path class="cls-1" d="M167.21,131c0,2.52.86,3.82,3.11,3.82a3.94,3.94,0,0,0,3.1-1.39v.27c-1,1.94-3.33,3.65-7,3.65-4,0-6.66-1.89-6.66-6.35V118.39c0-1.62-.77-2.39-3.33-2.39v-.27A27.61,27.61,0,0,0,167.21,114Zm15,2.88c0,1.31.4,1.85,1.21,1.85s1.44-.68,2.16-2h.27c-.72,2.48-3.15,3.65-6.12,3.65-3.15,0-4.95-1.8-4.95-4.41V118.39c0-1.62-.76-2.39-3.19-2.39v-.27A29.36,29.36,0,0,0,182.2,114Z"/><path class="cls-1" d="M196.28,131.57a2.31,2.31,0,0,0-2.52,2.25c0,1.31.9,3,4,3.28v.28c-6-.23-9.27-1.85-9.27-4.46,0-2.07,1.8-3.33,3.82-3.33A4.59,4.59,0,0,1,196.28,131.57Zm1.49-17.32c-1.67.31-3.29,1.17-3.24,3,.13,5.22,14.71,6.08,14.71,13.23,0,4.36-3.69,6.66-9.49,6.89v-.28c1.89-.31,4-1,4-3.32,0-4.68-14.76-6.39-14.76-13.23,0-4,3.74-6.35,8.78-6.57Zm10.62,4.36c0,1.4-1.08,2.79-3.33,2.79a3.87,3.87,0,0,1-3.83-2.16,2,2,0,0,0,2-2.11c0-1.35-1.71-2.66-3.51-2.88V114C204.83,114.25,208.39,116.09,208.39,118.61Z"/><path class="cls-1" d="M212.3,115.69a27.48,27.48,0,0,0,10.76-1.76v20.43c0,1.13.67,2.3,3.37,2.3v.27H212.26v-.27c2.7,0,3.37-1.17,3.37-2.3v-16c0-1.62-.76-2.38-3.33-2.38Zm2.3-8.46c0-2.34,1.89-3.92,4.59-3.92s4.59,1.58,4.59,3.92-1.89,4-4.59,4S214.6,109.61,214.6,107.23Z"/><path class="cls-1" d="M228.68,131.62c0-3.92,3.6-6.12,8.64-6.12h4.86v.27h-1.35c-3.24,0-4.77,2.11-4.77,4.9,0,2.48.72,4.37,2.84,4.37a4.93,4.93,0,0,0,3.28-1.58v.27a9.56,9.56,0,0,1-7.15,3.65C231.2,137.38,228.64,135.22,228.68,131.62Zm1.8-12.74c0-2.29,2.07-4.63,8.19-4.9v.27a3.28,3.28,0,0,0-2.88,3.28c0,1.62,1.13,2.61,2.93,2.75a5.06,5.06,0,0,1-4.32,2.16A3.61,3.61,0,0,1,230.48,118.88Zm13.05,13.41V118.52c0-2.2-.85-4-3.06-4.27V114c7.47.27,10.44,3.1,10.44,9v10.93c0,1.31.45,1.85,1.26,1.85s1.44-.68,2.16-2h.27c-.72,2.48-3.15,3.65-5.85,3.65C245.15,137.38,243.53,136.12,243.53,132.29Z"/><path class="cls-1" d="M264.64,131.57a2.3,2.3,0,0,0-2.52,2.25c0,1.31.9,3,4,3.28v.28c-6-.23-9.27-1.85-9.27-4.46,0-2.07,1.8-3.33,3.83-3.33A4.6,4.6,0,0,1,264.64,131.57Zm1.48-17.32c-1.66.31-3.28,1.17-3.24,3,.14,5.22,14.72,6.08,14.72,13.23,0,4.36-3.69,6.66-9.5,6.89v-.28c1.89-.31,4-1,4-3.32,0-4.68-14.76-6.39-14.76-13.23,0-4,3.73-6.35,8.77-6.57Zm10.62,4.36c0,1.4-1.08,2.79-3.33,2.79a3.85,3.85,0,0,1-3.82-2.16,2,2,0,0,0,2-2.11c0-1.35-1.71-2.66-3.51-2.88V114C273.19,114.25,276.74,116.09,276.74,118.61Z"/><path class="cls-1" d="M298,133.46v.27a9.42,9.42,0,0,1-7.7,3.65c-4.05,0-6.93-1.85-6.93-6.35V116.27h-2.34l.5-.67h1.84v-4.86a11.38,11.38,0,0,0,7.38-2.52v7.38h6.08l-.5.67h-5.58v14.9c0,2.25.86,4.59,3,4.59A6.64,6.64,0,0,0,298,133.46Z"/><path class="cls-1" d="M46.07,186.66c2.7,0,3.38-1.08,3.38-2.3V158.89c0-1.21-.68-2.29-3.38-2.29v-.27h14.4v.27c-2.7,0-3.37,1.08-3.37,2.29v25.47c0,1.22.67,2.3,3.37,2.3v.27H46.07Z"/><path class="cls-1" d="M63.49,186.66c2.7,0,3.37-1.17,3.37-2.3v-16c0-1.62-.76-2.39-3.33-2.39v-.27A27.66,27.66,0,0,0,74.29,164v20.38c0,1.13.67,2.3,3.37,2.3v.27H63.49Zm15.84,0c2.65,0,3.33-1.17,3.33-2.3v-14c0-2.52-1.31-3.82-3.56-3.82a4.79,4.79,0,0,0-3.42,1.39v-.27A9.19,9.19,0,0,1,83.15,164c4,0,6.93,1.89,6.93,6.34v14c0,1.13.68,2.3,3.38,2.3v.27H79.33Z"/><path class="cls-1" d="M103.72,181.57a2.3,2.3,0,0,0-2.52,2.25c0,1.31.9,3,4,3.28v.28c-6-.23-9.27-1.85-9.27-4.46,0-2.07,1.8-3.33,3.83-3.33A4.6,4.6,0,0,1,103.72,181.57Zm1.48-17.32c-1.66.31-3.28,1.17-3.24,3,.14,5.22,14.72,6.08,14.72,13.23,0,4.36-3.69,6.66-9.5,6.89v-.28c1.89-.31,4-1,4-3.32,0-4.68-14.76-6.39-14.76-13.23,0-4,3.73-6.35,8.77-6.57Zm10.62,4.36c0,1.4-1.08,2.79-3.33,2.79a3.85,3.85,0,0,1-3.82-2.16,2,2,0,0,0,2-2.11c0-1.35-1.71-2.66-3.51-2.88V164C112.27,164.25,115.82,166.09,115.82,168.61Z"/><path class="cls-1" d="M130,181c0,2.52.86,3.82,3.11,3.82a3.94,3.94,0,0,0,3.1-1.39v.27c-1,1.94-3.33,3.65-7,3.65-4,0-6.66-1.89-6.66-6.35V168.39c0-1.62-.77-2.39-3.33-2.39v-.27A27.61,27.61,0,0,0,130,164Zm15,2.88c0,1.31.4,1.85,1.21,1.85s1.44-.68,2.16-2h.27c-.72,2.48-3.15,3.65-6.12,3.65-3.15,0-5-1.8-5-4.41V168.39c0-1.62-.76-2.39-3.19-2.39v-.27A29.36,29.36,0,0,0,144.94,164Z"/><path class="cls-1" d="M161.18,184.36c0,1.13.68,2.3,3.38,2.3v.27H150.38v-.27c2.7,0,3.38-1.17,3.38-2.3v-16c0-1.62-.77-2.39-3.33-2.39v-.27A27.61,27.61,0,0,0,161.18,164Zm12.15-15.52A4.81,4.81,0,0,1,168.7,174a3.07,3.07,0,0,1-2.57-1,3.29,3.29,0,0,0,1.76-3.06,2.39,2.39,0,0,0-2.52-2.43,3.07,3.07,0,0,0-2.7,1.71v-.36c.85-2.88,3.06-4.86,5.85-4.86A4.57,4.57,0,0,1,173.33,168.84Z"/><path class="cls-1" d="M175.27,181.62c0-3.92,3.6-6.12,8.64-6.12h4.86v.27h-1.35c-3.24,0-4.77,2.11-4.77,4.9,0,2.48.72,4.37,2.83,4.37a5,5,0,0,0,3.29-1.58v.27a9.59,9.59,0,0,1-7.16,3.65C177.79,187.38,175.22,185.22,175.27,181.62Zm1.8-12.74c0-2.29,2.07-4.63,8.19-4.9v.27a3.28,3.28,0,0,0-2.88,3.28c0,1.62,1.12,2.61,2.92,2.75a5,5,0,0,1-4.32,2.16A3.61,3.61,0,0,1,177.07,168.88Zm13.05,13.41V168.52c0-2.2-.86-4-3.06-4.27V164c7.47.27,10.44,3.1,10.44,9v10.93c0,1.31.45,1.85,1.26,1.85s1.44-.68,2.16-2h.27c-.72,2.48-3.15,3.65-5.85,3.65C191.74,187.38,190.12,186.12,190.12,182.29Z"/><path class="cls-1" d="M202.58,186.66c2.7,0,3.38-1.17,3.38-2.3v-16c0-1.62-.77-2.39-3.33-2.39v-.27A27.61,27.61,0,0,0,213.38,164v20.38c0,1.13.68,2.3,3.38,2.3v.27H202.58Zm15.84,0c2.66,0,3.33-1.17,3.33-2.3v-14c0-2.52-1.3-3.82-3.55-3.82a4.79,4.79,0,0,0-3.42,1.39v-.27a9.18,9.18,0,0,1,7.47-3.64c4.05,0,6.93,1.89,6.93,6.34v14c0,1.13.67,2.3,3.37,2.3v.27H218.42Z"/><path class="cls-1" d="M246.5,164.25c-2.65.31-3.82,2.56-3.82,11.16,0,6.48,3.28,10,7.29,10a9.83,9.83,0,0,0,6.57-2.38v.27c-2.34,3-6.62,4-9.54,4-5.76,0-12-4.23-12-11.79A11.53,11.53,0,0,1,246.5,164Zm10,4.81a4.18,4.18,0,0,1-4.5,4.32,3.83,3.83,0,0,1-3.91-2.83,3.9,3.9,0,0,0,2.16-3.29c0-1-.27-2.65-1.94-3V164C254.2,164,256.49,166.5,256.49,169.06Z"/><path class="cls-1" d="M259.87,175.59a11.14,11.14,0,0,1,11-11.61v.27c-2.65.31-3.37,2.56-3.37,11.16,0,6.48,2.88,10,6.88,10a9.8,9.8,0,0,0,6.57-2.38v.27c-2.34,3-6.61,4-9.54,4A11.4,11.4,0,0,1,259.87,175.59ZM270,173.7c4,0,5.63-1.26,5.63-5,0-2.16-.9-4.14-2.93-4.41V164c5.94,0,8.82,4.23,8.82,7.65a13.85,13.85,0,0,1-.22,2.34H270Z"/><rect class="cls-2" width="970" height="250"/></svg>