<?xml version="1.0" encoding="utf-8"?>
<!-- Generator: Adobe Illustrator 24.0.3, SVG Export Plug-In . SVG Version: 6.00 Build 0)  -->
<svg version="1.1" id="Layer_1" xmlns="http://www.w3.org/2000/svg" xmlns:xlink="http://www.w3.org/1999/xlink" x="0px" y="0px"
	 viewBox="0 0 970 250" style="enable-background:new 0 0 970 250;" xml:space="preserve">
<style type="text/css">
	.st0{enable-background:new    ;}
	.st1{fill:#FFFFFF;}
	.st2{fill:none;}
</style>
<title>Artboard 1 copy</title>
<g class="st0">
	<path class="st1" d="M63,51.6v0.3c-3.7,0.5-6.3,4.2-6.3,17.4c0,13.3,2.6,17.6,6.3,18v0.3c-7.4-0.4-16.4-5.9-16.4-18
		C46.6,58,56.1,52,63,51.6z M65.5,51.9v-0.3c5.3,0.3,8.2,1,10.6,2.4l1.6-2.4h0.4v12.5h-0.4C76.3,58,71.6,53.1,65.5,51.9z M83,72.4
		v0.3c-2.4,0-3.8,0.9-3.8,3v12h-0.4l-1.9-3.1c-2.6,1.9-6.1,2.9-11.3,3.1v-0.3c3.5-0.3,5.5-2.1,5.5-6.3v-5.4c0-2.1-0.9-3-3.9-3v-0.3
		H83z"/>
	<path class="st1" d="M98.9,61.2c-3,0.4-4.1,2.9-4.1,13c0,9.7,1,12.9,4.1,13.2v0.3c-5.9,0-12.8-4.8-12.8-13.5s6.8-13.2,12.8-13.3
		V61.2z M113.8,74.2c0,8.6-6.9,13.5-12.8,13.5v-0.3c3-0.3,4-3.6,4-13.2c0-10.1-1-12.7-4-13v-0.3C107,60.9,113.8,65.5,113.8,74.2z"/>
	<path class="st1" d="M137.2,83.2v0.3c-1.6,2.4-4.9,4.2-8.8,4.2c-4.6,0-7.9-2.1-7.9-7.3V63.5h-2.7l0.6-0.8h2.1v-5.6
		c3.1,0,6.2-1,8.4-2.9v8.4h7l-0.6,0.8h-6.4v17.1c0,2.6,1,5.3,3.4,5.3C133.7,85.8,135.5,84.9,137.2,83.2z"/>
	<path class="st1" d="M151.9,81.1c0.1-4.5,4.1-7,9.9-7h5.6v0.3h-1.5c-3.7,0-5.5,2.4-5.5,5.6c0,2.8,0.8,5,3.2,5
		c1.4,0,2.6-0.8,3.8-1.8v0.3c-1.7,2-4.4,4.2-8.2,4.2C154.8,87.7,151.8,85.2,151.9,81.1z M154,66.5c0-2.6,2.4-5.3,9.4-5.6v0.3
		c-2.1,0.3-3.3,2-3.3,3.8c0,1.9,1.3,3,3.3,3.1c-0.8,1.4-2.9,2.5-4.9,2.5C155.6,70.6,154,68.6,154,66.5z M168.9,81.8V66.1
		c0-2.5-1-4.5-3.5-4.9v-0.3c8.6,0.3,12,3.6,12,10.3v12.5c0,1.5,0.5,2.1,1.4,2.1c0.8,0,1.6-0.8,2.5-2.3h0.3c-0.8,2.8-3.6,4.2-6.7,4.2
		C170.8,87.7,168.9,86.2,168.9,81.8z"/>
</g>
<g class="st0">
	<path class="st1" d="M55.3,132.5c-1.7,0.1-2.9,1-2.9,2.6c0,1.5,1,3.4,4.6,3.8v0.3c-6.9-0.3-10.6-2.1-10.6-5.1
		c0-2.4,2.1-3.8,4.4-3.8C52.8,130.3,54.5,131.2,55.3,132.5z M57,112.7c-1.9,0.4-3.8,1.3-3.7,3.5c0.2,6,16.8,7,16.8,15.1
		c0,5-4.2,7.6-10.9,7.9v-0.3c2.2-0.4,4.6-1.1,4.6-3.8c0-5.4-16.9-7.3-16.9-15.1c0-4.5,4.3-7.3,10-7.5V112.7z M69.1,117.7
		c0,1.6-1.2,3.2-3.8,3.2c-2.2,0-3.7-0.9-4.4-2.5c1.5-0.1,2.4-1.2,2.3-2.4c0-1.5-2-3-4-3.3v-0.3C65.1,112.7,69.1,114.8,69.1,117.7z"
		/>
	<path class="st1" d="M85.4,146.5c0,1.9,0.9,2.7,3.8,2.7v0.3c-4.8,0-8,0.5-12.3,2v-34.2c0-1.9-0.9-2.7-3.8-2.7v-0.3
		c4.8,0,8-0.5,12.3-2V146.5z M105,125.5c0,10.8-5.7,13.7-10.6,13.7c-2.9,0-6.2-2-7.5-4.2v-0.3c1.3,1,2.7,1.8,4.3,1.8
		c2.4,0,5-1.7,5-11c0-9.3-2.4-10.5-5-10.5c-1.6,0-3.1,0.6-4.3,1.9v-0.4c1.3-2.2,4.6-4.1,7.5-4.1C99.5,112.4,105,115.3,105,125.5z"/>
	<path class="st1" d="M109.6,125.7c0-8.7,6.6-13.2,12.6-13.3v0.3c-3,0.4-3.9,2.9-3.9,12.8c0,7.4,3.3,11.5,7.9,11.5
		c2.9,0,5.1-0.8,7.5-2.7v0.3c-2.7,3.4-7.6,4.6-10.9,4.6C116.2,139.2,109.6,134.3,109.6,125.7z M121.1,123.5c4.5,0,6.4-1.4,6.4-5.8
		c0-2.5-1-4.7-3.3-5v-0.3c6.8,0,10.1,4.8,10.1,8.8c0,0.8-0.1,1.9-0.3,2.7h-12.9V123.5z"/>
	<path class="st1" d="M151.7,112.7c-3,0.4-4.4,2.9-4.4,12.8c0,7.4,3.8,11.5,8.3,11.5c2.9,0,5.1-0.8,7.5-2.7v0.3
		c-2.7,3.4-7.6,4.6-10.9,4.6c-6.6,0-13.8-4.8-13.8-13.5c0-8.7,7.2-13.2,13.2-13.3V112.7z M163.2,118.2c0,2.7-1.9,4.9-5.2,4.9
		c-2.5,0-4.2-1.6-4.5-3.2c1.4-0.6,2.5-2.4,2.5-3.8c0-1.2-0.3-3-2.2-3.4v-0.4C160.6,112.4,163.2,115.3,163.2,118.2z"/>
	<path class="st1" d="M166.2,114.3c4.8,0,8.7-0.5,12.3-2v23.4c0,1.3,0.8,2.6,3.9,2.6v0.3h-16.2v-0.3c3.1,0,3.9-1.3,3.9-2.6v-18.3
		c0-1.9-0.9-2.7-3.8-2.7V114.3z M168.8,104.7c0-2.7,2.2-4.5,5.3-4.5s5.3,1.8,5.3,4.5c0,2.7-2.2,4.5-5.3,4.5S168.8,107.4,168.8,104.7
		z"/>
	<path class="st1" d="M185,132.6c0.1-4.5,4.1-7,9.9-7h5.6v0.3h-1.5c-3.7,0-5.5,2.4-5.5,5.6c0,2.8,0.8,5,3.2,5c1.4,0,2.6-0.8,3.8-1.8
		v0.3c-1.7,2-4.4,4.2-8.2,4.2C187.9,139.2,184.9,136.7,185,132.6z M187,118c0-2.6,2.4-5.3,9.4-5.6v0.3c-2.1,0.3-3.3,2-3.3,3.8
		c0,1.9,1.3,3,3.3,3.1c-0.8,1.4-2.9,2.5-4.9,2.5C188.7,122.1,187,120.2,187,118z M202,133.3v-15.8c0-2.5-1-4.5-3.5-4.9v-0.3
		c8.6,0.3,12,3.6,12,10.3v12.5c0,1.5,0.5,2.1,1.4,2.1c0.8,0,1.6-0.8,2.5-2.3h0.3c-0.8,2.8-3.6,4.2-6.7,4.2
		C203.8,139.2,202,137.7,202,133.3z"/>
	<path class="st1" d="M216,102.8c4.8,0,8.7-0.5,12.3-2v34.9c0,1.3,0.8,2.6,3.9,2.6v0.3h-16.2v-0.3c3.1,0,3.9-1.3,3.9-2.6v-29.9
		c0-1.9-0.9-2.7-3.8-2.7V102.8z"/>
</g>
<g class="st0">
	<path class="st1" d="M46.6,166.5c-0.5-1.1-1.2-1.8-2.8-1.8v-0.3h14.4v0.3c-1.8,0-2.5,1.2-1.6,3l6.7,14.1l-4.4,8.3h-0.3L46.6,166.5z
		 M65.4,176.8c0.9-1.6,1.4-3.9,1.4-6.6c0-2.8-1.6-5.4-5.3-5.4v-0.3h12.8v0.3c-1.7,0-2.4,0.7-3.3,2.4l-5.4,10.1L65.4,176.8z"/>
</g>
<g class="st0">
	<path class="st1" d="M74.8,177.2c0-8.7,6.6-13.2,12.6-13.3v0.3c-3,0.4-3.9,2.9-3.9,12.8c0,7.4,3.3,11.5,7.9,11.5
		c2.9,0,5.1-0.8,7.5-2.7v0.3c-2.7,3.4-7.6,4.6-10.9,4.6C81.5,190.7,74.8,185.8,74.8,177.2z M86.4,175c4.5,0,6.4-1.4,6.4-5.8
		c0-2.5-1-4.7-3.3-5v-0.3c6.8,0,10.1,4.8,10.1,8.8c0,0.8-0.1,1.9-0.3,2.7H86.4V175z"/>
	<path class="st1" d="M115,187.2c0,1.3,0.8,2.6,3.9,2.6v0.3h-16.2v-0.3c3.1,0,3.9-1.3,3.9-2.6v-29.9c0-1.9-0.9-2.7-3.8-2.7v-0.3
		c4.8,0,8.7-0.5,12.3-2V187.2z M133,171.2v16.1c0,1.3,0.8,2.6,3.9,2.6v0.3h-16.2v-0.3c3,0,3.8-1.3,3.8-2.6v-16.1
		c0-2.9-1.5-4.4-4.1-4.4c-1.4,0-2.7,0.5-3.9,1.6v-0.3c1.4-2.2,4.7-4.2,8.6-4.2C129.7,163.9,133,166.1,133,171.2z"/>
	<path class="st1" d="M138.8,165.8c4.8,0,8.7-0.5,12.3-2v23.4c0,1.3,0.8,2.6,3.9,2.6v0.3h-16.2v-0.3c3.1,0,3.9-1.3,3.9-2.6v-18.3
		c0-1.9-0.9-2.7-3.8-2.7V165.8z M141.4,156.2c0-2.7,2.2-4.5,5.3-4.5s5.3,1.8,5.3,4.5c0,2.7-2.2,4.5-5.3,4.5S141.4,158.9,141.4,156.2
		z"/>
	<path class="st1" d="M171.3,164.2c-3,0.4-4.4,2.9-4.4,12.8c0,7.4,3.8,11.5,8.3,11.5c2.9,0,5.1-0.8,7.5-2.7v0.3
		c-2.7,3.4-7.6,4.6-10.9,4.6c-6.6,0-13.8-4.8-13.8-13.5s7.2-13.2,13.2-13.3V164.2z M182.7,169.7c0,2.7-1.9,4.9-5.2,4.9
		c-2.5,0-4.2-1.6-4.5-3.2c1.4-0.6,2.5-2.4,2.5-3.8c0-1.2-0.3-3-2.2-3.4v-0.4C180.1,163.9,182.7,166.8,182.7,169.7z"/>
	<path class="st1" d="M185.4,154.3c4.8,0,8.7-0.5,12.3-2v34.9c0,1.3,0.8,2.6,3.9,2.6v0.3h-16.2v-0.3c3.1,0,3.9-1.3,3.9-2.6v-29.9
		c0-1.9-0.9-2.7-3.8-2.7V154.3z"/>
	<path class="st1" d="M204.6,177.2c0-8.7,6.6-13.2,12.6-13.3v0.3c-3,0.4-3.9,2.9-3.9,12.8c0,7.4,3.3,11.5,7.9,11.5
		c2.9,0,5.1-0.8,7.5-2.7v0.3c-2.7,3.4-7.6,4.6-10.9,4.6C211.3,190.7,204.6,185.8,204.6,177.2z M216.2,175c4.5,0,6.4-1.4,6.4-5.8
		c0-2.5-1-4.7-3.3-5v-0.3c6.8,0,10.1,4.8,10.1,8.8c0,0.8-0.1,1.9-0.3,2.7h-12.9V175z"/>
	<path class="st1" d="M233.1,161.6c0-4.6,6.2-6.8,10.9-7v0.3c-2.5,0.7-3.7,2.9-3.7,5c0,1.9,0.7,3.6,2.9,4.4
		c-0.9,1.2-2.6,2.1-4.7,2.1C235.8,166.4,233.1,164.9,233.1,161.6z M240.7,188.9c0-2.8,2.3-4.7,5.5-4.7c3.2,0,5.5,1.9,5.5,4.7
		c0,2.9-2.3,4.7-5.5,4.7C242.9,193.7,240.7,191.8,240.7,188.9z M242,174.4c0-5.8,8.2-7.5,8.2-14.1c0-2.8-1-4.5-3.7-5.5v-0.3
		c7.1,0.5,12.5,2.8,12.5,8.5c0,7-11.2,9.2-11.2,13.8c0,1.3,0.5,2.2,1.9,3l-0.1,0.3C244.5,180.2,242,177.6,242,174.4z"/>
</g>
<rect y="0" class="st2" width="970" height="250"/>
</svg>
