<?xml version="1.0" encoding="utf-8"?>
<!-- Generator: Adobe Illustrator 24.0.3, SVG Export Plug-In . SVG Version: 6.00 Build 0)  -->
<svg version="1.1" id="Layer_1" xmlns="http://www.w3.org/2000/svg" xmlns:xlink="http://www.w3.org/1999/xlink" x="0px" y="0px"
	 viewBox="0 0 970 250" style="enable-background:new 0 0 970 250;" xml:space="preserve">
<style type="text/css">
	.st0{enable-background:new    ;}
	.st1{fill:#FFFFFF;}
	.st2{fill:none;}
</style>
<title>Artboard 1 copy 3</title>
<g class="st0">
	<path class="st1" d="M59.4,87.3v0.3c-4.1-0.1-7.3-0.9-10-2.5l-1.7,2.5h-0.4V75.1h0.4C49.4,80.9,53.1,85.2,59.4,87.3z M74.6,77.1
		c0,6.6-4.9,10.3-12.9,10.6v-0.3c2.8-0.5,5.6-2.2,5.6-5.3c0-9-19.7-9.8-19.7-20.3c0-6.2,5-9.7,11.8-10.2v0.3
		c-2.4,0.4-4.5,1.9-4.5,4.7C54.9,65.7,74.6,66.6,74.6,77.1z M61.7,51.9v-0.3c3.9,0.2,6.9,1,9.3,2.7l1.9-2.7h0.4v11.5h-0.4
		C71.1,57.6,66.7,53.1,61.7,51.9z"/>
</g>
<g class="st0">
	<path class="st1" d="M98.1,83.2v0.3c-1.6,2.4-4.9,4.2-8.8,4.2c-4.6,0-7.9-2.1-7.9-7.3V63.5h-2.7l0.6-0.8h2.1v-5.6
		c3.1,0,6.2-1,8.4-2.9v8.4h7l-0.6,0.8h-6.4v17.1c0,2.6,1,5.3,3.4,5.3C94.6,85.8,96.4,84.9,98.1,83.2z"/>
	<path class="st1" d="M99.7,81.1c0.1-4.5,4.1-7,9.9-7h5.6v0.3h-1.5c-3.7,0-5.5,2.4-5.5,5.6c0,2.8,0.8,5,3.2,5c1.4,0,2.6-0.8,3.8-1.8
		v0.3c-1.7,2-4.4,4.2-8.2,4.2C102.6,87.7,99.7,85.2,99.7,81.1z M101.8,66.5c0-2.6,2.4-5.3,9.4-5.6v0.3c-2.1,0.3-3.3,2-3.3,3.8
		c0,1.9,1.3,3,3.3,3.1c-0.8,1.4-2.9,2.5-4.9,2.5C103.4,70.6,101.8,68.6,101.8,66.5z M116.7,81.8V66.1c0-2.5-1-4.5-3.5-4.9v-0.3
		c8.6,0.3,12,3.6,12,10.3v12.5c0,1.5,0.5,2.1,1.4,2.1c0.8,0,1.6-0.8,2.5-2.3h0.3c-0.8,2.8-3.6,4.2-6.7,4.2
		C118.6,87.7,116.7,86.2,116.7,81.8z"/>
</g>
<g class="st0">
	<path class="st1" d="M143.3,84.2c0,1.3,0.8,2.6,3.9,2.6v0.3H131v-0.3c3.1,0,3.9-1.3,3.9-2.6V65.9c0-1.9-0.9-2.7-3.8-2.7v-0.3
		c4.8,0,8.7-0.5,12.3-2V84.2z M157.3,66.4c0,3.6-2.5,5.9-5.3,5.9c-1.2,0-2.3-0.3-2.9-1.1c1-0.5,2-1.6,2-3.5c0-1.5-1.1-2.8-2.9-2.8
		c-1.3,0-2.4,0.8-3.1,2v-0.4c1-3.3,3.5-5.6,6.7-5.6C155.3,60.9,157.3,63.3,157.3,66.4z"/>
</g>
<g class="st0">
	<path class="st1" d="M46.4,138.6v-0.3c3.1,0,3.9-1.2,3.9-2.6v-29.1c0-1.4-0.8-2.7-3.9-2.7v-0.3H59v35H46.4z M75.2,103.6v9.5h-0.4
		c-2.2-6.5-5.4-8.7-13.2-9.2v-0.3H75.2z M61.6,120.7v-0.3l2.8-0.3c3-0.3,5.1-1.5,6.8-4.4h0.4v9.6h-0.4c-1.7-2.9-3.8-4.1-6.8-4.3
		L61.6,120.7z M61.6,138.3c7.8-0.5,11.5-2.7,14.3-9.2h0.4v9.5H61.6V138.3z"/>
	<path class="st1" d="M80,138.3c3.1,0,3.9-1.3,3.9-2.6v-18.3c0-1.9-0.9-2.7-3.8-2.7v-0.3c4.8,0,8.7-0.5,12.3-2v23.3
		c0,1.3,0.8,2.6,3.9,2.6v0.3H80V138.3z M98.2,138.3c3,0,3.8-1.3,3.8-2.6v-16.1c0-2.9-1.5-4.4-4.1-4.4c-1.4,0-2.7,0.5-3.9,1.6v-0.3
		c1.4-2.2,4.7-4.2,8.6-4.2c4.6,0,7.9,2.2,7.9,7.3v16.1c0,1.3,0.8,2.6,3.9,2.6v0.3H98.2V138.3z"/>
	<path class="st1" d="M136.2,134.7v0.3c-1.6,2.4-4.9,4.2-8.8,4.2c-4.6,0-7.9-2.1-7.9-7.3V115h-2.7l0.6-0.8h2.1v-5.6
		c3.1,0,6.2-1,8.4-2.9v8.4h7l-0.6,0.8h-6.4v17.1c0,2.6,1,5.3,3.4,5.3C132.7,137.3,134.5,136.4,136.2,134.7z"/>
	<path class="st1" d="M149.5,135.7c0,1.3,0.8,2.6,3.9,2.6v0.3h-16.2v-0.3c3.1,0,3.9-1.3,3.9-2.6v-29.9c0-1.9-0.9-2.7-3.8-2.7v-0.3
		c4.8,0,8.7-0.5,12.3-2V135.7z M167.5,119.6v16.1c0,1.3,0.8,2.6,3.9,2.6v0.3h-16.2v-0.3c3,0,3.8-1.3,3.8-2.6v-16.1
		c0-2.9-1.5-4.4-4.1-4.4c-1.4,0-2.7,0.5-3.9,1.6v-0.3c1.4-2.2,4.7-4.2,8.6-4.2C164.2,112.4,167.5,114.5,167.5,119.6z"/>
	<path class="st1" d="M185,131.9c0,2.9,1,4.4,3.6,4.4c1.3,0,2.4-0.4,3.6-1.6v0.3c-1.2,2.2-3.8,4.2-8,4.2c-4.6,0-7.6-2.2-7.6-7.3
		v-14.5c0-1.9-0.9-2.7-3.8-2.7v-0.3c4.8,0,8.7-0.5,12.3-2V131.9z M202.2,135.2c0,1.5,0.5,2.1,1.4,2.1c0.8,0,1.6-0.8,2.5-2.3h0.3
		c-0.8,2.8-3.6,4.2-7,4.2c-3.6,0-5.7-2.1-5.7-5v-16.7c0-1.9-0.9-2.7-3.7-2.7v-0.3c4.6,0,7.8-0.5,12.2-2V135.2z"/>
	<path class="st1" d="M218.3,132.5c-1.7,0.1-2.9,1-2.9,2.6c0,1.5,1,3.4,4.6,3.8v0.3c-6.9-0.3-10.6-2.1-10.6-5.1
		c0-2.4,2.1-3.8,4.4-3.8C215.8,130.3,217.5,131.2,218.3,132.5z M220,112.7c-1.9,0.4-3.8,1.3-3.7,3.5c0.2,6,16.8,7,16.8,15.1
		c0,5-4.2,7.6-10.9,7.9v-0.3c2.2-0.4,4.6-1.1,4.6-3.8c0-5.4-16.9-7.3-16.9-15.1c0-4.5,4.3-7.3,10-7.5V112.7z M232.2,117.7
		c0,1.6-1.2,3.2-3.8,3.2c-2.2,0-3.7-0.9-4.4-2.5c1.5-0.1,2.4-1.2,2.3-2.4c0-1.5-2-3-4-3.3v-0.3C228.1,112.7,232.2,114.8,232.2,117.7
		z"/>
	<path class="st1" d="M236.6,114.3c4.8,0,8.7-0.5,12.3-2v23.4c0,1.3,0.8,2.6,3.9,2.6v0.3h-16.2v-0.3c3.1,0,3.9-1.3,3.9-2.6v-18.3
		c0-1.9-0.9-2.7-3.8-2.7V114.3z M239.3,104.7c0-2.7,2.2-4.5,5.3-4.5s5.3,1.8,5.3,4.5c0,2.7-2.2,4.5-5.3,4.5S239.3,107.4,239.3,104.7
		z"/>
	<path class="st1" d="M255.4,132.6c0.1-4.5,4.1-7,9.9-7h5.6v0.3h-1.5c-3.7,0-5.5,2.4-5.5,5.6c0,2.8,0.8,5,3.2,5
		c1.4,0,2.6-0.8,3.8-1.8v0.3c-1.7,2-4.4,4.2-8.2,4.2C258.3,139.2,255.3,136.7,255.4,132.6z M257.4,118c0-2.6,2.4-5.3,9.4-5.6v0.3
		c-2.1,0.3-3.3,2-3.3,3.8c0,1.9,1.3,3,3.3,3.1c-0.8,1.4-2.9,2.5-4.9,2.5C259.1,122.1,257.4,120.2,257.4,118z M272.4,133.3v-15.8
		c0-2.5-1-4.5-3.5-4.9v-0.3c8.6,0.3,12,3.6,12,10.3v12.5c0,1.5,0.5,2.1,1.4,2.1c0.8,0,1.6-0.8,2.5-2.3h0.3c-0.8,2.8-3.6,4.2-6.7,4.2
		C274.2,139.2,272.4,137.7,272.4,133.3z"/>
	<path class="st1" d="M296.5,132.5c-1.7,0.1-2.9,1-2.9,2.6c0,1.5,1,3.4,4.6,3.8v0.3c-6.9-0.3-10.6-2.1-10.6-5.1
		c0-2.4,2.1-3.8,4.4-3.8C294.1,130.3,295.8,131.2,296.5,132.5z M298.2,112.7c-1.9,0.4-3.8,1.3-3.7,3.5c0.2,6,16.8,7,16.8,15.1
		c0,5-4.2,7.6-10.9,7.9v-0.3c2.2-0.4,4.6-1.1,4.6-3.8c0-5.4-16.9-7.3-16.9-15.1c0-4.5,4.3-7.3,10-7.5V112.7z M310.4,117.7
		c0,1.6-1.2,3.2-3.8,3.2c-2.2,0-3.7-0.9-4.4-2.5c1.5-0.1,2.4-1.2,2.3-2.4c0-1.5-2-3-4-3.3v-0.3C306.3,112.7,310.4,114.8,310.4,117.7
		z"/>
	<path class="st1" d="M334.8,134.7v0.3c-1.6,2.4-4.9,4.2-8.8,4.2c-4.6,0-7.9-2.1-7.9-7.3V115h-2.7l0.6-0.8h2.1v-5.6
		c3.1,0,6.2-1,8.4-2.9v8.4h7l-0.6,0.8h-6.4v17.1c0,2.6,1,5.3,3.4,5.3C331.3,137.3,333.1,136.4,334.8,134.7z"/>
</g>
<g class="st0">
	<path class="st1" d="M46.4,189.9c3.1,0,3.9-1.2,3.9-2.6v-29.2c0-1.4-0.8-2.6-3.9-2.6v-0.3h16.5v0.3c-3.1,0-3.9,1.2-3.9,2.6v29.2
		c0,1.4,0.8,2.6,3.9,2.6v0.3H46.4V189.9z"/>
	<path class="st1" d="M66.3,189.9c3.1,0,3.9-1.3,3.9-2.6v-18.3c0-1.9-0.9-2.7-3.8-2.7v-0.3c4.8,0,8.7-0.5,12.3-2v23.3
		c0,1.3,0.8,2.6,3.9,2.6v0.3H66.3V189.9z M84.4,189.9c3,0,3.8-1.3,3.8-2.6v-16.1c0-2.9-1.5-4.4-4.1-4.4c-1.4,0-2.7,0.5-3.9,1.6v-0.3
		c1.4-2.2,4.7-4.2,8.6-4.2c4.6,0,7.9,2.2,7.9,7.3v16.1c0,1.3,0.8,2.6,3.9,2.6v0.3H84.4V189.9z"/>
	<path class="st1" d="M112.3,184c-1.7,0.1-2.9,1-2.9,2.6c0,1.5,1,3.4,4.6,3.8v0.3c-6.9-0.3-10.6-2.1-10.6-5.1c0-2.4,2.1-3.8,4.4-3.8
		C109.9,181.8,111.6,182.7,112.3,184z M114,164.2c-1.9,0.4-3.8,1.3-3.7,3.5c0.2,6,16.8,7,16.8,15.1c0,5-4.2,7.6-10.9,7.9v-0.3
		c2.2-0.4,4.6-1.1,4.6-3.8c0-5.4-16.9-7.3-16.9-15.1c0-4.5,4.3-7.3,10-7.5V164.2z M126.2,169.2c0,1.6-1.2,3.2-3.8,3.2
		c-2.2,0-3.7-0.9-4.4-2.5c1.5-0.1,2.4-1.2,2.3-2.4c0-1.5-2-3-4-3.3v-0.3C122.1,164.2,126.2,166.3,126.2,169.2z"/>
	<path class="st1" d="M142.4,183.4c0,2.9,1,4.4,3.6,4.4c1.3,0,2.4-0.4,3.6-1.6v0.3c-1.2,2.2-3.8,4.2-8,4.2c-4.6,0-7.6-2.2-7.6-7.3
		v-14.5c0-1.9-0.9-2.7-3.8-2.7v-0.3c4.8,0,8.7-0.5,12.3-2V183.4z M159.5,186.7c0,1.5,0.5,2.1,1.4,2.1c0.8,0,1.6-0.8,2.5-2.3h0.3
		c-0.8,2.8-3.6,4.2-7,4.2c-3.6,0-5.7-2.1-5.7-5v-16.7c0-1.9-0.9-2.7-3.7-2.7v-0.3c4.6,0,7.8-0.5,12.2-2V186.7z"/>
</g>
<g class="st0">
	<path class="st1" d="M178.1,187.2c0,1.3,0.8,2.6,3.9,2.6v0.3h-16.2v-0.3c3.1,0,3.9-1.3,3.9-2.6v-18.3c0-1.9-0.9-2.7-3.8-2.7v-0.3
		c4.8,0,8.7-0.5,12.3-2V187.2z M192,169.5c0,3.6-2.5,5.9-5.3,5.9c-1.2,0-2.3-0.3-2.9-1.1c1-0.5,2-1.6,2-3.5c0-1.5-1.1-2.8-2.9-2.8
		c-1.3,0-2.4,0.8-3.1,2v-0.4c1-3.3,3.5-5.6,6.7-5.6C190.1,163.9,192,166.4,192,169.5z"/>
</g>
<g class="st0">
	<path class="st1" d="M194.2,184.1c0.1-4.5,4.1-7,9.9-7h5.6v0.3h-1.5c-3.7,0-5.5,2.4-5.5,5.6c0,2.8,0.8,5,3.2,5
		c1.4,0,2.6-0.8,3.8-1.8v0.3c-1.7,2-4.4,4.2-8.2,4.2C197.1,190.7,194.2,188.2,194.2,184.1z M196.3,169.5c0-2.6,2.4-5.3,9.4-5.6v0.3
		c-2.1,0.3-3.3,2-3.3,3.8c0,1.9,1.3,3,3.3,3.1c-0.8,1.4-2.9,2.5-4.9,2.5C198,173.6,196.3,171.7,196.3,169.5z M211.2,184.9v-15.8
		c0-2.5-1-4.5-3.5-4.9v-0.3c8.6,0.3,12,3.6,12,10.3v12.5c0,1.5,0.5,2.1,1.4,2.1c0.8,0,1.6-0.8,2.5-2.3h0.3c-0.8,2.8-3.6,4.2-6.7,4.2
		C213.1,190.7,211.2,189.2,211.2,184.9z"/>
	<path class="st1" d="M225.5,189.9c3.1,0,3.9-1.3,3.9-2.6v-18.3c0-1.9-0.9-2.7-3.8-2.7v-0.3c4.8,0,8.7-0.5,12.3-2v23.3
		c0,1.3,0.8,2.6,3.9,2.6v0.3h-16.2V189.9z M243.6,189.9c3,0,3.8-1.3,3.8-2.6v-16.1c0-2.9-1.5-4.4-4.1-4.4c-1.4,0-2.7,0.5-3.9,1.6
		v-0.3c1.4-2.2,4.7-4.2,8.6-4.2c4.6,0,7.9,2.2,7.9,7.3v16.1c0,1.3,0.8,2.6,3.9,2.6v0.3h-16.2V189.9z"/>
	<path class="st1" d="M275.8,164.2c-3,0.4-4.4,2.9-4.4,12.8c0,7.4,3.8,11.5,8.3,11.5c2.9,0,5.1-0.8,7.5-2.7v0.3
		c-2.7,3.4-7.6,4.6-10.9,4.6c-6.6,0-13.8-4.8-13.8-13.5s7.2-13.2,13.2-13.3V164.2z M287.2,169.7c0,2.7-1.9,4.9-5.2,4.9
		c-2.5,0-4.2-1.6-4.5-3.2c1.4-0.6,2.5-2.4,2.5-3.8c0-1.2-0.3-3-2.2-3.4v-0.4C284.6,163.9,287.2,166.8,287.2,169.7z"/>
	<path class="st1" d="M291.1,177.2c0-8.7,6.6-13.2,12.6-13.3v0.3c-3,0.4-3.9,2.9-3.9,12.8c0,7.4,3.3,11.5,7.9,11.5
		c2.9,0,5.1-0.8,7.5-2.7v0.3c-2.7,3.4-7.6,4.6-10.9,4.6C297.7,190.7,291.1,185.8,291.1,177.2z M302.7,175c4.5,0,6.4-1.4,6.4-5.8
		c0-2.5-1-4.7-3.3-5v-0.3c6.8,0,10.1,4.8,10.1,8.8c0,0.8-0.1,1.9-0.3,2.7h-12.9V175z"/>
</g>
<rect y="0" class="st2" width="970" height="250"/>
</svg>
