<svg id="Layer_1" data-name="Layer 1" xmlns="http://www.w3.org/2000/svg" viewBox="0 0 970 250"><defs><style>.cls-1{fill:#fff;}.cls-2{fill:none;}</style></defs><title>Artboard 1 copy</title><path class="cls-1" d="M60.61,55.88v.27c-3.24.4-5.49,3.64-5.49,15.21S57.37,86.7,60.61,87.1v.27C54.17,87,46.3,82.2,46.3,71.62A15.59,15.59,0,0,1,60.61,55.88Zm2.2.27v-.27c4.64.22,7.2.9,9.23,2.11l1.39-2.11h.36V66.81h-.36A13.85,13.85,0,0,0,62.81,56.15ZM78.07,74v.27c-2.12,0-3.33.81-3.33,2.66V87.37h-.36l-1.62-2.7c-2.25,1.62-5.36,2.52-9.9,2.7V87.1c3.06-.22,4.81-1.84,4.81-5.48V76.94c0-1.85-.81-2.66-3.37-2.66V74Z"/><path class="cls-1" d="M92,64.25c-2.66.31-3.56,2.56-3.56,11.33,0,8.46.9,11.25,3.56,11.52v.27a11.46,11.46,0,0,1-11.2-11.79A11.27,11.27,0,0,1,92,64Zm13,11.33A11.46,11.46,0,0,1,93.82,87.37V87.1c2.65-.27,3.51-3.1,3.51-11.52,0-8.81-.9-11.06-3.51-11.33V64A11.21,11.21,0,0,1,105,75.58Z"/><path class="cls-1" d="M125.41,83.46v.27a9.41,9.41,0,0,1-7.7,3.64c-4,0-6.93-1.84-6.93-6.34V66.27h-2.34l.5-.67h1.84V60.74a11.38,11.38,0,0,0,7.38-2.52V65.6h6.08l-.5.67h-5.58V81.16c0,2.25.86,4.59,3,4.59A6.62,6.62,0,0,0,125.41,83.46Z"/><path class="cls-1" d="M138.28,81.62c0-3.92,3.6-6.12,8.64-6.12h4.86v.27h-1.35c-3.24,0-4.77,2.11-4.77,4.9,0,2.47.72,4.37,2.83,4.37a5,5,0,0,0,3.29-1.58v.27a9.58,9.58,0,0,1-7.16,3.64C140.8,87.37,138.23,85.21,138.28,81.62Zm1.8-12.74c0-2.29,2.07-4.63,8.19-4.9v.27a3.28,3.28,0,0,0-2.88,3.28c0,1.62,1.12,2.61,2.92,2.75A5,5,0,0,1,144,72.44,3.61,3.61,0,0,1,140.08,68.88Zm13,13.41V68.52c0-2.2-.86-4-3.06-4.27V64c7.47.27,10.44,3.1,10.44,9V83.91c0,1.3.45,1.84,1.26,1.84s1.44-.67,2.16-2h.27c-.72,2.48-3.15,3.64-5.85,3.64C154.75,87.37,153.13,86.12,153.13,82.29Z"/><path class="cls-1" d="M53.86,131.57a2.3,2.3,0,0,0-2.52,2.25c0,1.3.9,3,4,3.28v.27c-6-.22-9.27-1.84-9.27-4.45,0-2.07,1.81-3.33,3.83-3.33A4.59,4.59,0,0,1,53.86,131.57Zm1.48-17.32c-1.66.31-3.28,1.17-3.23,3,.13,5.22,14.71,6.07,14.71,13.23,0,4.36-3.69,6.66-9.5,6.88v-.27c1.89-.31,4-1,4-3.32,0-4.69-14.76-6.4-14.76-13.23,0-4,3.74-6.35,8.77-6.57ZM66,118.61c0,1.4-1.08,2.79-3.33,2.79a3.85,3.85,0,0,1-3.82-2.16,2,2,0,0,0,2-2.11c0-1.35-1.71-2.66-3.51-2.88V114C62.41,114.25,66,116.09,66,118.61Z"/><path class="cls-1" d="M80.18,143.76c0,1.62.77,2.39,3.33,2.39v.27a29.59,29.59,0,0,0-10.75,1.75V118.34c0-1.62-.77-2.38-3.33-2.38v-.27a29.39,29.39,0,0,0,10.75-1.76Zm17.15-18.31c0,9.4-5,11.92-9.23,11.92a8.45,8.45,0,0,1-6.57-3.64v-.27A6.36,6.36,0,0,0,85.31,135c2.12,0,4.37-1.49,4.37-9.59s-2.12-9.18-4.37-9.18a5.06,5.06,0,0,0-3.78,1.67v-.36A8.41,8.41,0,0,1,88.1,114C92.47,114,97.33,116.5,97.33,125.45Z"/><path class="cls-1" d="M101.29,125.58a11.13,11.13,0,0,1,11-11.6v.27c-2.65.31-3.37,2.56-3.37,11.16,0,6.47,2.88,10,6.88,10a9.76,9.76,0,0,0,6.57-2.39v.28c-2.34,3-6.61,4-9.54,4A11.4,11.4,0,0,1,101.29,125.58Zm10.12-1.88c4,0,5.63-1.26,5.63-5,0-2.16-.9-4.14-2.93-4.41V114c5.94,0,8.82,4.23,8.82,7.64a13.87,13.87,0,0,1-.22,2.35h-11.3Z"/><path class="cls-1" d="M138.14,114.25c-2.65.31-3.82,2.56-3.82,11.16,0,6.47,3.28,10,7.29,10a9.79,9.79,0,0,0,6.57-2.39v.28c-2.34,3-6.62,4-9.54,4-5.76,0-12-4.23-12-11.79A11.53,11.53,0,0,1,138.14,114Zm10,4.81a4.18,4.18,0,0,1-4.5,4.32,3.83,3.83,0,0,1-3.91-2.83,3.9,3.9,0,0,0,2.16-3.29c0-1-.27-2.65-1.94-3V114C145.84,114,148.13,116.5,148.13,119.06Z"/><path class="cls-1" d="M150.79,115.69a27.42,27.42,0,0,0,10.75-1.76v20.43c0,1.13.68,2.3,3.38,2.3v.26H150.74v-.26c2.7,0,3.38-1.17,3.38-2.3v-16c0-1.62-.77-2.38-3.33-2.38Zm2.29-8.46c0-2.34,1.89-3.92,4.59-3.92s4.59,1.58,4.59,3.92-1.89,4-4.59,4S153.08,109.61,153.08,107.23Z"/><path class="cls-1" d="M167.17,131.62c0-3.92,3.6-6.12,8.64-6.12h4.86v.27h-1.35c-3.24,0-4.77,2.11-4.77,4.9,0,2.47.72,4.37,2.83,4.37a5,5,0,0,0,3.29-1.58v.27a9.58,9.58,0,0,1-7.16,3.64C169.69,137.37,167.12,135.21,167.17,131.62Zm1.8-12.74c0-2.29,2.07-4.63,8.19-4.9v.27a3.28,3.28,0,0,0-2.88,3.28c0,1.62,1.12,2.61,2.92,2.75a5,5,0,0,1-4.32,2.16A3.61,3.61,0,0,1,169,118.88ZM182,132.29V118.52c0-2.2-.86-4-3.06-4.27V114c7.47.27,10.44,3.1,10.44,9v10.93c0,1.3.45,1.84,1.26,1.84s1.44-.67,2.16-2h.27c-.72,2.48-3.15,3.64-5.85,3.64C183.64,137.37,182,136.12,182,132.29Z"/><path class="cls-1" d="M194.26,105.61A27.42,27.42,0,0,0,205,103.85v30.51c0,1.13.68,2.3,3.38,2.3v.26H194.21v-.26c2.7,0,3.38-1.17,3.38-2.3v-26.1c0-1.62-.77-2.38-3.33-2.38Z"/><path class="cls-1" d="M46.26,166.27a2.44,2.44,0,0,0-2.48-1.57v-.27h12.6v.27c-1.58,0-2.21,1.08-1.44,2.65l5.89,12.28L57,186.92h-.27Zm16.46,9A12.3,12.3,0,0,0,64,169.42c0-2.47-1.39-4.72-4.59-4.72v-.27H70.6v.27c-1.49,0-2.07.58-2.93,2.11L63,175.63Z"/><path class="cls-1" d="M71,175.58A11.13,11.13,0,0,1,82,164v.27c-2.65.31-3.37,2.56-3.37,11.16,0,6.47,2.88,10,6.88,10a9.76,9.76,0,0,0,6.57-2.39v.28c-2.34,3-6.61,4-9.54,4A11.4,11.4,0,0,1,71,175.58Zm10.12-1.88c4,0,5.63-1.26,5.63-5,0-2.16-.9-4.14-2.93-4.41V164c5.94,0,8.82,4.23,8.82,7.64a13.87,13.87,0,0,1-.22,2.35H81.08Z"/><path class="cls-1" d="M106,184.36c0,1.13.68,2.3,3.38,2.3v.26H95.21v-.26c2.7,0,3.38-1.17,3.38-2.3v-26.1c0-1.62-.77-2.38-3.33-2.38v-.27A27.42,27.42,0,0,0,106,153.85Zm15.75-14v14c0,1.13.68,2.3,3.38,2.3v.26H111v-.26c2.65,0,3.33-1.17,3.33-2.3v-14c0-2.52-1.31-3.82-3.56-3.82a4.79,4.79,0,0,0-3.42,1.39v-.27a9.19,9.19,0,0,1,7.47-3.64C118.88,164,121.76,165.87,121.76,170.32Z"/><path class="cls-1" d="M126.85,165.69a27.42,27.42,0,0,0,10.75-1.76v20.43c0,1.13.68,2.3,3.38,2.3v.26H126.8v-.26c2.7,0,3.38-1.17,3.38-2.3v-16c0-1.62-.77-2.38-3.33-2.38Zm2.29-8.46c0-2.34,1.89-3.92,4.59-3.92s4.59,1.58,4.59,3.92-1.89,4-4.59,4S129.14,159.61,129.14,157.23Z"/><path class="cls-1" d="M155.2,164.25c-2.66.31-3.83,2.56-3.83,11.16,0,6.47,3.29,10,7.29,10a9.76,9.76,0,0,0,6.57-2.39v.28c-2.34,3-6.61,4-9.54,4-5.76,0-12-4.23-12-11.79A11.52,11.52,0,0,1,155.2,164Zm10,4.81a4.18,4.18,0,0,1-4.5,4.32,3.83,3.83,0,0,1-3.92-2.83,3.9,3.9,0,0,0,2.16-3.29c0-1-.27-2.65-1.93-3V164C162.89,164,165.19,166.5,165.19,169.06Z"/><path class="cls-1" d="M167.53,155.61a27.42,27.42,0,0,0,10.75-1.76v30.51c0,1.13.68,2.3,3.38,2.3v.26H167.48v-.26c2.7,0,3.38-1.17,3.38-2.3v-26.1c0-1.62-.77-2.38-3.33-2.38Z"/><path class="cls-1" d="M184.36,175.58a11.13,11.13,0,0,1,11-11.6v.27c-2.65.31-3.37,2.56-3.37,11.16,0,6.47,2.88,10,6.88,10a9.76,9.76,0,0,0,6.57-2.39v.28c-2.34,3-6.61,4-9.54,4A11.4,11.4,0,0,1,184.36,175.58Zm10.12-1.88c4,0,5.63-1.26,5.63-5,0-2.16-.9-4.14-2.93-4.41V164c5.94,0,8.82,4.23,8.82,7.64a13.87,13.87,0,0,1-.22,2.35h-11.3Z"/><path class="cls-1" d="M209.2,162c0-4,5.4-5.94,9.49-6.07v.27a4.45,4.45,0,0,0-3.19,4.36,3.84,3.84,0,0,0,2.52,3.87,5,5,0,0,1-4.14,1.8C211.54,166.18,209.2,164.88,209.2,162Zm6.61,23.89c0-2.47,2-4.09,4.82-4.09s4.81,1.62,4.81,4.09-2,4.14-4.81,4.14S215.81,188.36,215.81,185.84ZM217,173.2c0-5,7.15-6.52,7.15-12.28,0-2.43-.9-4-3.24-4.77v-.27c6.21.4,10.89,2.43,10.89,7.42,0,6.12-9.76,8.06-9.76,12a2.64,2.64,0,0,0,1.62,2.6l-.05.28C219.14,178.2,217,176,217,173.2Z"/><rect class="cls-2" width="970" height="250"/></svg>