<svg id="Layer_1" data-name="Layer 1" xmlns="http://www.w3.org/2000/svg" viewBox="0 0 970 250"><defs><style>.cls-1{fill:none;}.cls-2{fill:#263845;}</style></defs><title>Artboard 1 copy 6</title><rect class="cls-1" width="970" height="250"/><path class="cls-2" d="M55.93,55.88v.27c-3.24.4-5.49,3.64-5.49,15.21S52.69,86.7,55.93,87.1v.27C49.5,87,41.62,82.2,41.62,71.62A15.59,15.59,0,0,1,55.93,55.88Zm2.21.27v-.27c4.63.22,7.2.9,9.22,2.11l1.4-2.11h.36V66.81h-.36A13.88,13.88,0,0,0,58.14,56.15ZM73.39,74v.27c-2.11,0-3.33.81-3.33,2.66V87.37H69.7l-1.62-2.7c-2.25,1.62-5.35,2.52-9.9,2.7V87.1c3.06-.22,4.82-1.84,4.82-5.48V76.94c0-1.85-.81-2.66-3.38-2.66V74Z"/><path class="cls-2" d="M76.14,75.58a11.13,11.13,0,0,1,11-11.6v.27c-2.65.31-3.37,2.56-3.37,11.16,0,6.47,2.88,10,6.88,10a9.76,9.76,0,0,0,6.57-2.39v.28c-2.34,3-6.61,4-9.54,4A11.4,11.4,0,0,1,76.14,75.58ZM86.26,73.7c4,0,5.63-1.26,5.63-5,0-2.16-.9-4.14-2.93-4.41V64c5.94,0,8.82,4.23,8.82,7.64A13.87,13.87,0,0,1,97.56,74H86.26Z"/><path class="cls-2" d="M118.12,83.46v.27a9.41,9.41,0,0,1-7.69,3.64c-4.05,0-6.93-1.84-6.93-6.34V66.27h-2.34l.49-.67h1.85V60.74a11.42,11.42,0,0,0,7.38-2.52V65.6H117l-.49.67h-5.58V81.16c0,2.25.85,4.59,3,4.59A6.58,6.58,0,0,0,118.12,83.46Z"/><path class="cls-2" d="M131,81.62c0-3.92,3.6-6.13,8.64-6.13h4.86v.28h-1.35c-3.24,0-4.77,2.11-4.77,4.9,0,2.47.72,4.37,2.84,4.37a4.93,4.93,0,0,0,3.28-1.58v.27a9.56,9.56,0,0,1-7.15,3.64C133.51,87.37,131,85.21,131,81.62Zm1.8-12.74c0-2.29,2.07-4.63,8.19-4.9v.27a3.28,3.28,0,0,0-2.88,3.28c0,1.62,1.13,2.61,2.93,2.75a5.06,5.06,0,0,1-4.32,2.16A3.61,3.61,0,0,1,132.79,68.88Zm13.05,13.41V68.52c0-2.2-.85-4-3.06-4.27V64c7.47.27,10.44,3.1,10.44,9V83.91c0,1.3.45,1.84,1.26,1.84s1.44-.67,2.16-2h.27c-.72,2.47-3.15,3.64-5.85,3.64C147.46,87.37,145.84,86.12,145.84,82.29Z"/><path class="cls-2" d="M186.52,67.58v.36a5,5,0,0,0-3.78-1.67c-2.25,0-4.36,1-4.36,9.18S180.63,85,182.74,85a6.33,6.33,0,0,0,3.78-1.58v.27A8.41,8.41,0,0,1,180,87.37c-4.27,0-9.22-2.52-9.22-11.92,0-9,4.86-11.47,9.22-11.47A8.38,8.38,0,0,1,186.52,67.58Zm8.78,26.18c0,1.62.76,2.39,3.33,2.39v.27a29.61,29.61,0,0,0-10.76,1.75V65.64a28.07,28.07,0,0,0,7.43-1.71Z"/><path class="cls-2" d="M210.37,81c0,2.52.86,3.82,3.11,3.82a4,4,0,0,0,3.1-1.39v.27c-1,1.93-3.33,3.64-7,3.64-4.05,0-6.66-1.88-6.66-6.34V68.39c0-1.62-.77-2.39-3.33-2.39v-.27A27.61,27.61,0,0,0,210.37,64Zm15,2.88c0,1.3.4,1.84,1.21,1.84s1.44-.67,2.16-2H229c-.72,2.47-3.15,3.64-6.12,3.64-3.15,0-4.95-1.79-4.95-4.41V68.39c0-1.62-.76-2.39-3.19-2.39v-.27A29.36,29.36,0,0,0,225.36,64Z"/><path class="cls-2" d="M242.82,64.25c-2.66.31-3.56,2.56-3.56,11.33,0,8.46.9,11.25,3.56,11.52v.27a11.47,11.47,0,0,1-11.21-11.79A11.27,11.27,0,0,1,242.82,64Zm13,11.33a11.46,11.46,0,0,1-11.16,11.79V87.1c2.65-.27,3.51-3.1,3.51-11.52,0-8.81-.9-11.06-3.51-11.33V64A11.21,11.21,0,0,1,255.78,75.58Z"/><path class="cls-2" d="M276.21,83.46v.27a9.41,9.41,0,0,1-7.7,3.64c-4.05,0-6.93-1.84-6.93-6.34V66.27h-2.34l.5-.67h1.84V60.74A11.38,11.38,0,0,0,269,58.22V65.6H275l-.5.67H269V81.16c0,2.25.86,4.59,3,4.59A6.62,6.62,0,0,0,276.21,83.46Z"/><path class="cls-2" d="M277.87,75.58a11.13,11.13,0,0,1,11-11.6v.27c-2.66.31-3.38,2.56-3.38,11.16,0,6.47,2.88,10,6.89,10A9.79,9.79,0,0,0,299,83.05v.28c-2.34,3-6.62,4-9.54,4A11.41,11.41,0,0,1,277.87,75.58ZM288,73.7c4,0,5.62-1.26,5.62-5,0-2.16-.9-4.14-2.92-4.41V64c5.94,0,8.82,4.23,8.82,7.64a12.91,12.91,0,0,1-.23,2.35H288Z"/><path class="cls-2" d="M56.2,115.6l-.49.67H51.3v18.09c0,1.13.72,2.3,3.42,2.3v.26H40.5v-.26c2.7,0,3.37-1.17,3.37-2.3V116.27H41l.49-.67h2.43v-2c0-6.39,3.33-9.09,7.47-9.72v.27c-1.53.59-2.65,2-2.65,4.77S50.44,115.6,56.2,115.6ZM60,108.71a3.82,3.82,0,0,1-3.92,4,4.67,4.67,0,0,1-4.54-3c1.93,0,3.19-1.08,3.19-2.88a2.62,2.62,0,0,0-1.62-2.66v-.27C57.91,104,60,106.15,60,108.71Z"/><path class="cls-2" d="M68.49,134.36c0,1.13.67,2.3,3.37,2.3v.26H57.69v-.26c2.7,0,3.37-1.17,3.37-2.3v-16c0-1.62-.76-2.39-3.33-2.39v-.27A27.66,27.66,0,0,0,68.49,114Zm12.15-15.52A4.82,4.82,0,0,1,76,124a3,3,0,0,1-2.56-1,3.3,3.3,0,0,0,1.75-3.07,2.38,2.38,0,0,0-2.52-2.42A3.09,3.09,0,0,0,70,119.2v-.36C70.83,116,73,114,75.82,114A4.57,4.57,0,0,1,80.64,118.84Z"/><path class="cls-2" d="M94.27,114.25c-2.65.31-3.55,2.56-3.55,11.33,0,8.46.9,11.25,3.55,11.52v.27a11.47,11.47,0,0,1-11.2-11.79A11.27,11.27,0,0,1,94.27,114Zm13,11.33a11.46,11.46,0,0,1-11.16,11.79v-.27c2.66-.27,3.51-3.1,3.51-11.52,0-8.81-.9-11.06-3.51-11.33V114A11.21,11.21,0,0,1,107.23,125.58Z"/><path class="cls-2" d="M121,134.36c0,1.13.68,2.3,3.38,2.3v.26H110.2v-.26c2.7,0,3.38-1.17,3.38-2.3v-16c0-1.62-.77-2.39-3.33-2.39v-.27A27.61,27.61,0,0,0,121,114Zm14.94-14v14c0,1.13.63,2.3,3.33,2.3v.26H125.14v-.26c2.66,0,3.38-1.17,3.38-2.3v-14c0-2.52-1-3.82-3.15-3.82a3.94,3.94,0,0,0-3,1.35v-.27A7.27,7.27,0,0,1,129,114C133.24,114,135.94,115.87,135.94,120.32Zm14.9,0v14c0,1.13.67,2.3,3.37,2.3v.26H140v-.26c2.65,0,3.37-1.17,3.37-2.3v-14c0-2.52-1-3.82-3.15-3.82a4,4,0,0,0-3,1.35v-.27a7.29,7.29,0,0,1,6.57-3.6C148.14,114,150.84,115.87,150.84,120.32Z"/><path class="cls-2" d="M167,116.27a2.44,2.44,0,0,0-2.48-1.57v-.27h12.6v.27c-1.57,0-2.2,1.08-1.44,2.65l5.9,12.28-3.87,7.29h-.27Zm-2,27.9c0-1.94,1.53-3.56,4-4.23a3.27,3.27,0,0,0-.18,1.12c-.05,1.71.9,3,2.65,3,1.58,0,2.84-1.67,4.55-4.54h.31c-2.47,4.63-4.18,8.63-7.33,8.63A3.74,3.74,0,0,1,165,144.17Zm18.45-18.94a12.42,12.42,0,0,0,1.26-5.81c0-2.47-1.4-4.72-4.59-4.72v-.27h11.2v.27c-1.48,0-2.07.58-2.92,2.11l-4.68,8.82Z"/><path class="cls-2" d="M202.72,114.25c-2.65.31-3.55,2.56-3.55,11.33,0,8.46.9,11.25,3.55,11.52v.27a11.47,11.47,0,0,1-11.2-11.79,11.27,11.27,0,0,1,11.2-11.6Zm13,11.33a11.46,11.46,0,0,1-11.16,11.79v-.27c2.66-.27,3.51-3.1,3.51-11.52,0-8.81-.9-11.06-3.51-11.33V114A11.21,11.21,0,0,1,215.68,125.58Z"/><path class="cls-2" d="M229,131c0,2.52.85,3.82,3.1,3.82a4,4,0,0,0,3.11-1.39v.27c-1,1.93-3.33,3.64-7,3.64-4.05,0-6.66-1.88-6.66-6.34V118.39c0-1.62-.76-2.39-3.33-2.39v-.27A27.66,27.66,0,0,0,229,114Zm15,2.88c0,1.3.41,1.84,1.22,1.84s1.44-.67,2.16-2h.27c-.72,2.47-3.15,3.64-6.12,3.64-3.15,0-4.95-1.79-4.95-4.41V118.39c0-1.62-.77-2.39-3.2-2.39v-.27A29.36,29.36,0,0,0,243.94,114Z"/><path class="cls-2" d="M260.19,134.36c0,1.13.67,2.3,3.37,2.3v.26H249.39v-.26c2.7,0,3.37-1.17,3.37-2.3v-16c0-1.62-.76-2.39-3.33-2.39v-.27A27.66,27.66,0,0,0,260.19,114Zm12.15-15.52A4.82,4.82,0,0,1,267.7,124a3,3,0,0,1-2.56-1,3.3,3.3,0,0,0,1.75-3.07,2.38,2.38,0,0,0-2.52-2.42,3.09,3.09,0,0,0-2.7,1.71v-.36c.86-2.88,3.06-4.86,5.85-4.86A4.57,4.57,0,0,1,272.34,118.84Z"/><path class="cls-2" d="M50.58,181.25c0,4.28-2.93,6.12-7.43,6.12V158.26c0-1.62-.81-2.38-3.37-2.38v-.27a29.66,29.66,0,0,0,10.8-1.76Zm17.14-5.8c0,9.4-5,11.92-9.27,11.92a8.33,8.33,0,0,1-6.52-3.64v-.27A6.2,6.2,0,0,0,55.66,185c2.12,0,4.41-1.49,4.41-9.59s-2.16-9.18-4.41-9.18a4.94,4.94,0,0,0-3.73,1.67v-.36a8.3,8.3,0,0,1,6.52-3.6C62.82,164,67.72,166.5,67.72,175.45Z"/><path class="cls-2" d="M81.67,184.36c0,1.13.68,2.3,3.38,2.3v.26H70.87v-.26c2.7,0,3.38-1.17,3.38-2.3v-16c0-1.62-.77-2.39-3.33-2.39v-.27A27.61,27.61,0,0,0,81.67,164Zm12.15-15.52A4.81,4.81,0,0,1,89.19,174a3.07,3.07,0,0,1-2.57-1,3.29,3.29,0,0,0,1.76-3.07,2.39,2.39,0,0,0-2.52-2.42,3.07,3.07,0,0,0-2.7,1.71v-.36C84,166,86.22,164,89,164A4.57,4.57,0,0,1,93.82,168.84Z"/><path class="cls-2" d="M107.46,164.25c-2.66.31-3.56,2.56-3.56,11.33,0,8.46.9,11.25,3.56,11.52v.27a11.47,11.47,0,0,1-11.21-11.79A11.27,11.27,0,0,1,107.46,164Zm13,11.33a11.46,11.46,0,0,1-11.16,11.79v-.27c2.65-.27,3.51-3.1,3.51-11.52,0-8.81-.9-11.06-3.51-11.33V164A11.21,11.21,0,0,1,120.42,175.58Z"/><path class="cls-2" d="M137.29,186.66v.26H123.12v-.26c2.7,0,3.37-1.17,3.37-2.3v-26.1c0-1.62-.76-2.38-3.33-2.38v-.27a27.48,27.48,0,0,0,10.76-1.76v30.51C133.92,185.49,134.59,186.66,137.29,186.66Zm15.26,0v.26a17.31,17.31,0,0,1-4.5.45c-2.75,0-5.81-.49-8.15-4.36L135.67,176c3.56-3.11,6.89-6.89,6.89-9.18,0-1.22-.59-2.07-2.66-2.07v-.27h11.52v.27a4,4,0,0,0-2.52.81L140.67,172l7.78,12.06C149.94,186.34,151.06,186.47,152.55,186.66Z"/><path class="cls-2" d="M152.82,175.58a11.13,11.13,0,0,1,11-11.6v.27c-2.65.31-3.37,2.56-3.37,11.16,0,6.47,2.88,10,6.88,10a9.76,9.76,0,0,0,6.57-2.39v.28c-2.34,3-6.61,4-9.54,4A11.4,11.4,0,0,1,152.82,175.58Zm10.12-1.88c4,0,5.63-1.26,5.63-5,0-2.16-.9-4.14-2.93-4.41V164c5.94,0,8.82,4.23,8.82,7.64a13.87,13.87,0,0,1-.22,2.35h-11.3Z"/><path class="cls-2" d="M188.14,184.36c0,1.13.68,2.3,3.38,2.3v.26H177.34v-.26c2.7,0,3.38-1.17,3.38-2.3v-16c0-1.62-.77-2.39-3.33-2.39v-.27A27.61,27.61,0,0,0,188.14,164Zm12.15-15.52a4.81,4.81,0,0,1-4.63,5.13,3.07,3.07,0,0,1-2.57-1,3.29,3.29,0,0,0,1.76-3.07,2.39,2.39,0,0,0-2.52-2.42,3.07,3.07,0,0,0-2.7,1.71v-.36c.85-2.88,3.06-4.86,5.85-4.86A4.57,4.57,0,0,1,200.29,168.84Z"/></svg>