<svg id="Layer_1" data-name="Layer 1" xmlns="http://www.w3.org/2000/svg" viewBox="0 0 300 150"><defs><style>.cls-1{fill:none;}.cls-2{fill:#fff;}</style></defs><title>Artboard 1</title><rect class="cls-1" width="300" height="150"/><path class="cls-2" d="M16.2,77.38l3.27,6.82-2.15,4h-.15l-5.8-11.47A1.35,1.35,0,0,0,10,75.9v-.15h7v.15C16.12,75.9,15.77,76.5,16.2,77.38Zm8.22,0L27.7,84.2l-2.15,4H25.4l-3.93-7.77-.8,1.5-.15-.23a3.7,3.7,0,0,0,.2-2.77l-1.12-2.2a1.35,1.35,0,0,0-1.38-.88v-.15h7v.15C24.35,75.9,24,76.5,24.42,77.38Zm8.7-1.63v.15c-.83,0-1.18.33-1.63,1.18L28.9,82l-.15-.23a6.9,6.9,0,0,0,.69-3.22A2.41,2.41,0,0,0,26.9,75.9v-.15Z"/><path class="cls-2" d="M33.35,76.45a15.37,15.37,0,0,0,6-1V86.82c0,.63.38,1.28,1.88,1.28v.15H33.32V88.1c1.5,0,1.88-.65,1.88-1.28V77.93c0-.9-.43-1.33-1.85-1.33Zm1.27-4.7a2.27,2.27,0,0,1,2.55-2.17,2.21,2.21,0,1,1,0,4.37A2.27,2.27,0,0,1,34.62,71.75Z"/><path class="cls-2" d="M52,86.32v.16a5.26,5.26,0,0,1-4.28,2c-2.25,0-3.85-1-3.85-3.52v-8.2h-1.3l.28-.38h1V73.7a6.27,6.27,0,0,0,4.1-1.4v4.1H51.3l-.28.38h-3.1v8.27c0,1.25.48,2.55,1.65,2.55A3.69,3.69,0,0,0,52,86.32Z"/><path class="cls-2" d="M58.4,86.82c0,.63.37,1.28,1.87,1.28v.15H52.4V88.1c1.5,0,1.87-.65,1.87-1.28V72.33c0-.9-.42-1.33-1.85-1.33v-.15a15.42,15.42,0,0,0,6-1ZM67.15,79v7.79c0,.63.37,1.28,1.87,1.28v.15H61.17V88.1c1.48,0,1.85-.65,1.85-1.28V79c0-1.4-.72-2.13-2-2.13a2.67,2.67,0,0,0-1.9.78v-.15a5.1,5.1,0,0,1,4.15-2C65.55,75.5,67.15,76.55,67.15,79Z"/><path class="cls-2" d="M76.6,75.65c-1.48.18-2,1.43-2,6.3,0,4.7.5,6.25,2,6.4v.15A6.37,6.37,0,0,1,70.37,82,6.27,6.27,0,0,1,76.6,75.5ZM83.8,82a6.37,6.37,0,0,1-6.2,6.55v-.15c1.47-.15,2-1.73,2-6.4,0-4.9-.5-6.15-2-6.3V75.5A6.23,6.23,0,0,1,83.8,82Z"/><path class="cls-2" d="M91.17,85c0,1.39.48,2.12,1.73,2.12a2.19,2.19,0,0,0,1.72-.78v.16a4.16,4.16,0,0,1-3.87,2c-2.25,0-3.7-1-3.7-3.52V78c0-.9-.43-1.32-1.85-1.32v-.15a15.18,15.18,0,0,0,6-1Zm8.32,1.59c0,.73.23,1,.68,1s.8-.37,1.2-1.12h.15c-.4,1.37-1.75,2-3.4,2s-2.75-1-2.75-2.45V78c0-.9-.42-1.32-1.77-1.32v-.15a16.06,16.06,0,0,0,5.89-1Z"/><path class="cls-2" d="M112.22,86.32v.16a5.25,5.25,0,0,1-4.27,2c-2.25,0-3.85-1-3.85-3.52v-8.2h-1.3l.27-.38h1V73.7a6.31,6.31,0,0,0,4.1-1.4v4.1h3.37l-.27.38h-3.1v8.27c0,1.25.47,2.55,1.65,2.55A3.65,3.65,0,0,0,112.22,86.32Z"/><path class="cls-2" d="M20.5,113.32v.16a5.26,5.26,0,0,1-4.28,2c-2.25,0-3.85-1-3.85-3.52v-8.2h-1.3l.28-.38h1v-2.7a6.27,6.27,0,0,0,4.1-1.4v4.1h3.38l-.28.38h-3.1v8.27c0,1.25.48,2.55,1.65,2.55A3.69,3.69,0,0,0,20.5,113.32Z"/><path class="cls-2" d="M27,113.82c0,.63.37,1.28,1.87,1.28v.15H21v-.15c1.5,0,1.87-.65,1.87-1.28V99.33c0-.9-.42-1.33-1.85-1.33v-.15a15.42,15.42,0,0,0,6-1ZM35.7,106v7.79c0,.63.37,1.28,1.87,1.28v.15H29.72v-.15c1.48,0,1.85-.65,1.85-1.28V106c0-1.4-.72-2.13-2-2.13a2.67,2.67,0,0,0-1.9.78v-.15a5.1,5.1,0,0,1,4.15-2C34.1,102.5,35.7,103.55,35.7,106Z"/><path class="cls-2" d="M38.92,109a6.19,6.19,0,0,1,6.13-6.45v.15c-1.48.18-1.88,1.43-1.88,6.2,0,3.6,1.6,5.57,3.83,5.57a5.43,5.43,0,0,0,3.65-1.32v.15a7,7,0,0,1-5.3,2.25A6.34,6.34,0,0,1,38.92,109Zm5.63-1c2.2,0,3.12-.7,3.12-2.8,0-1.2-.5-2.3-1.62-2.45v-.15c3.3,0,4.9,2.35,4.9,4.25a6.9,6.9,0,0,1-.13,1.3H44.55Z"/><path class="cls-2" d="M59.35,109a6.19,6.19,0,0,1,6.12-6.45v.15c-1.47.18-1.87,1.43-1.87,6.2,0,3.6,1.6,5.57,3.82,5.57a5.39,5.39,0,0,0,3.65-1.32v.15a7,7,0,0,1-5.3,2.25A6.33,6.33,0,0,1,59.35,109Zm5.62-1c2.2,0,3.13-.7,3.13-2.8,0-1.2-.5-2.3-1.63-2.45v-.15c3.3,0,4.9,2.35,4.9,4.25a7.85,7.85,0,0,1-.12,1.3H65Z"/><path class="cls-2" d="M71.82,115.1a3.38,3.38,0,0,0,2.63-1.65l2.22-3.35.15.23A5.41,5.41,0,0,0,76,113a2,2,0,0,0,1.85,2.1v.15H71.82Zm7.28,0c1,0,1.4-.32,1.4-.85A2.66,2.66,0,0,0,80,113l-5.88-9.17c-.32-.5-.72-.88-1.92-.88v-.15h7.57v.15c-.77,0-1.12.15-1.12.55a3.24,3.24,0,0,0,.72,1.58l5.83,9.2a1.69,1.69,0,0,0,1.47.87v.15H79.1Zm3.32-7.6A5.23,5.23,0,0,0,83,105a1.92,1.92,0,0,0-2-2.1v-.15h5.3v.15a2.31,2.31,0,0,0-1.83,1.43l-1.9,3.4Z"/><path class="cls-2" d="M93.72,102.65c-1.47.18-2.12,1.43-2.12,6.2,0,3.6,1.82,5.57,4.05,5.57a5.43,5.43,0,0,0,3.65-1.32v.15A7,7,0,0,1,94,115.5,6.54,6.54,0,0,1,87.32,109a6.41,6.41,0,0,1,6.4-6.45Zm5.55,2.68a2.33,2.33,0,0,1-2.5,2.4,2.12,2.12,0,0,1-2.17-1.58,2.14,2.14,0,0,0,1.2-1.82,1.48,1.48,0,0,0-1.08-1.65v-.18C98,102.5,99.27,103.9,99.27,105.33Z"/><path class="cls-2" d="M101.15,109a6.19,6.19,0,0,1,6.12-6.45v.15c-1.47.18-1.87,1.43-1.87,6.2,0,3.6,1.6,5.57,3.82,5.57a5.39,5.39,0,0,0,3.65-1.32v.15a7,7,0,0,1-5.3,2.25A6.33,6.33,0,0,1,101.15,109Zm5.62-1c2.2,0,3.13-.7,3.13-2.8,0-1.2-.5-2.3-1.63-2.45v-.15c3.3,0,4.9,2.35,4.9,4.25a7.85,7.85,0,0,1-.12,1.3h-6.28Z"/><path class="cls-2" d="M119.57,112.28a1.28,1.28,0,0,0-1.4,1.25c0,.72.5,1.64,2.23,1.82v.15c-3.33-.13-5.15-1-5.15-2.47a2,2,0,0,1,2.12-1.85A2.53,2.53,0,0,1,119.57,112.28Zm.83-9.63c-.93.18-1.83.65-1.8,1.68.07,2.9,8.17,3.37,8.17,7.35,0,2.42-2,3.69-5.27,3.82v-.15c1-.18,2.22-.55,2.22-1.85,0-2.6-8.2-3.55-8.2-7.35,0-2.2,2.08-3.52,4.88-3.65Zm5.9,2.43a1.64,1.64,0,0,1-1.85,1.55,2.16,2.16,0,0,1-2.13-1.2,1.12,1.12,0,0,0,1.13-1.18c0-.75-1-1.47-2-1.6v-.15C124.32,102.65,126.3,103.68,126.3,105.08Z"/><path class="cls-2" d="M133.22,112.28a1.28,1.28,0,0,0-1.4,1.25c0,.72.5,1.64,2.23,1.82v.15c-3.33-.13-5.15-1-5.15-2.47a2,2,0,0,1,2.12-1.85A2.53,2.53,0,0,1,133.22,112.28Zm.83-9.63c-.93.18-1.83.65-1.8,1.68.07,2.9,8.17,3.37,8.17,7.35,0,2.42-2,3.69-5.27,3.82v-.15c1-.18,2.22-.55,2.22-1.85,0-2.6-8.2-3.55-8.2-7.35,0-2.2,2.08-3.52,4.88-3.65Zm5.9,2.43a1.64,1.64,0,0,1-1.85,1.55,2.16,2.16,0,0,1-2.13-1.2,1.12,1.12,0,0,0,1.13-1.18c0-.75-.95-1.47-1.95-1.6v-.15C138,102.65,140,103.68,140,105.08Z"/><path class="cls-2" d="M142.12,103.45a15.42,15.42,0,0,0,6-1v11.34c0,.63.37,1.28,1.87,1.28v.15H142.1v-.15c1.5,0,1.87-.65,1.87-1.28v-8.89c0-.9-.42-1.33-1.85-1.33Zm1.28-4.7A2.58,2.58,0,1,1,146,101,2.27,2.27,0,0,1,143.4,98.75Z"/><path class="cls-2" d="M151.6,103.78a1.35,1.35,0,0,0-1.38-.88v-.15h7v.15c-.87,0-1.22.6-.8,1.48l3.28,6.82-2.15,4h-.15Zm9.15,5a6.89,6.89,0,0,0,.7-3.22,2.42,2.42,0,0,0-2.55-2.63v-.15h6.22v.15c-.83,0-1.15.33-1.63,1.18L160.9,109Z"/><path class="cls-2" d="M165.32,109a6.19,6.19,0,0,1,6.13-6.45v.15c-1.48.18-1.88,1.43-1.88,6.2,0,3.6,1.6,5.57,3.83,5.57A5.39,5.39,0,0,0,177,113.1v.15a7,7,0,0,1-5.29,2.25A6.34,6.34,0,0,1,165.32,109Zm5.63-1c2.2,0,3.12-.7,3.12-2.8,0-1.2-.5-2.3-1.62-2.45v-.15c3.29,0,4.89,2.35,4.89,4.25a7.85,7.85,0,0,1-.12,1.3H171Z"/><path class="cls-2" d="M16.57,146.05c0,.9.43,1.32,1.85,1.32v.15a16.28,16.28,0,0,0-6,1V131.93c0-.9-.43-1.33-1.85-1.33v-.15a16.48,16.48,0,0,0,6-1Zm9.53-10.17c0,5.22-2.75,6.62-5.13,6.62a4.7,4.7,0,0,1-3.65-2v-.16a3.49,3.49,0,0,0,2.1.88c1.18,0,2.43-.83,2.43-5.32s-1.18-5.1-2.43-5.1a2.84,2.84,0,0,0-2.1.92v-.2a4.68,4.68,0,0,1,3.65-2C23.4,129.5,26.1,130.9,26.1,135.88Z"/><path class="cls-2" d="M33.85,140.82c0,.63.37,1.28,1.87,1.28v.15H27.85v-.15c1.5,0,1.87-.65,1.87-1.28V132c0-.9-.42-1.32-1.85-1.32v-.15a15.23,15.23,0,0,0,6-1Zm6.75-8.62A2.68,2.68,0,0,1,38,135.05a1.69,1.69,0,0,1-1.42-.55,1.83,1.83,0,0,0,1-1.7,1.33,1.33,0,0,0-1.4-1.35,1.73,1.73,0,0,0-1.5,1v-.2a3.46,3.46,0,0,1,3.25-2.7A2.54,2.54,0,0,1,40.6,132.2Z"/><path class="cls-2" d="M42,136a6.19,6.19,0,0,1,6.12-6.45v.15c-1.47.18-1.87,1.43-1.87,6.2,0,3.6,1.6,5.57,3.82,5.57a5.39,5.39,0,0,0,3.65-1.32v.15a7,7,0,0,1-5.3,2.25A6.33,6.33,0,0,1,42,136Zm5.62-1c2.2,0,3.13-.7,3.13-2.8,0-1.2-.5-2.3-1.63-2.45v-.15c3.3,0,4.9,2.35,4.9,4.25a7.85,7.85,0,0,1-.12,1.3H47.57Z"/><path class="cls-2" d="M61.57,140.82c0,.63.38,1.28,1.88,1.28v.15H55.57v-.15c1.5,0,1.88-.65,1.88-1.28V132c0-.9-.43-1.32-1.85-1.32v-.15a15.18,15.18,0,0,0,6-1Zm8.3-7.79v7.79c0,.63.35,1.28,1.85,1.28v.15H63.87v-.15c1.48,0,1.88-.65,1.88-1.28V133c0-1.4-.55-2.13-1.75-2.13a2.19,2.19,0,0,0-1.65.75v-.15a4,4,0,0,1,3.65-2C68.37,129.5,69.87,130.55,69.87,133Zm8.27,0v7.79c0,.63.38,1.28,1.88,1.28v.15H72.15v-.15c1.47,0,1.87-.65,1.87-1.28V133c0-1.4-.55-2.13-1.75-2.13a2.2,2.2,0,0,0-1.65.75v-.15a4,4,0,0,1,3.65-2C76.64,129.5,78.14,130.55,78.14,133Z"/><path class="cls-2" d="M81,130.45a15.42,15.42,0,0,0,6-1v11.34c0,.63.37,1.28,1.87,1.28v.15H81v-.15c1.5,0,1.87-.65,1.87-1.28v-8.89c0-.9-.42-1.33-1.85-1.33Zm1.28-4.7A2.58,2.58,0,1,1,84.8,128,2.27,2.27,0,0,1,82.25,125.75Z"/><path class="cls-2" d="M95.6,139c0,1.39.47,2.12,1.72,2.12a2.21,2.21,0,0,0,1.73-.78v.16a4.18,4.18,0,0,1-3.88,2c-2.25,0-3.7-1.05-3.7-3.52v-7c0-.9-.42-1.32-1.85-1.32v-.15a15.23,15.23,0,0,0,6-1Zm8.32,1.59c0,.73.23,1,.67,1s.8-.37,1.2-1.12h.15c-.4,1.37-1.75,2-3.39,2s-2.75-1-2.75-2.45V132c0-.9-.43-1.32-1.78-1.32v-.15a16.15,16.15,0,0,0,5.9-1Z"/><path class="cls-2" d="M113,140.82c0,.63.37,1.28,1.87,1.28v.15H107v-.15c1.5,0,1.87-.65,1.87-1.28V132c0-.9-.42-1.32-1.85-1.32v-.15a15.23,15.23,0,0,0,6-1Zm8.3-7.79v7.79c0,.63.34,1.28,1.84,1.28v.15h-7.84v-.15c1.47,0,1.87-.65,1.87-1.28V133c0-1.4-.55-2.13-1.75-2.13a2.2,2.2,0,0,0-1.65.75v-.15a4.06,4.06,0,0,1,3.65-2C119.75,129.5,121.25,130.55,121.25,133Zm8.27,0v7.79c0,.63.37,1.28,1.87,1.28v.15h-7.87v-.15c1.47,0,1.87-.65,1.87-1.28V133c0-1.4-.55-2.13-1.75-2.13a2.2,2.2,0,0,0-1.65.75v-.15a4.06,4.06,0,0,1,3.65-2C128,129.5,129.52,130.55,129.52,133Z"/><path class="cls-2" d="M137.1,139.28a1.27,1.27,0,0,0-1.4,1.25c0,.72.5,1.64,2.22,1.82v.15c-3.32-.13-5.15-1-5.15-2.47a2,2,0,0,1,2.13-1.85A2.54,2.54,0,0,1,137.1,139.28Zm.82-9.63c-.92.18-1.82.65-1.8,1.68.08,2.9,8.17,3.37,8.17,7.35,0,2.42-2,3.69-5.27,3.82v-.15c1-.18,2.23-.55,2.23-1.85,0-2.6-8.2-3.55-8.2-7.35,0-2.2,2.07-3.52,4.87-3.65Zm5.9,2.43a1.64,1.64,0,0,1-1.85,1.55,2.13,2.13,0,0,1-2.12-1.2,1.11,1.11,0,0,0,1.12-1.18c0-.75-.95-1.47-1.95-1.6v-.15C141.85,129.65,143.82,130.68,143.82,132.08Z"/></svg>