<svg id="Layer_1" data-name="Layer 1" xmlns="http://www.w3.org/2000/svg" xmlns:xlink="http://www.w3.org/1999/xlink" viewBox="0 0 300 150"><defs><style>.cls-1{fill:none;}.cls-2{clip-path:url(#clip-path);}.cls-3{fill:#263845;}</style><clipPath id="clip-path"><rect class="cls-1" width="300" height="150"/></clipPath></defs><title>Artboard 1 copy 7</title><g class="cls-2"><path class="cls-3" d="M11.07,88.1c1.5,0,1.88-.6,1.88-1.27V72.68c0-.68-.38-1.28-1.88-1.28v-.15H17.2V86.83c0,.67.37,1.27,1.87,1.27v.15h-8Zm7.38-6.5c2.3,0,3.32-2.25,3.32-5.3s-1-4.9-3.32-4.9v-.15c4.95,0,7.57,1.28,7.57,5s-2.8,5.45-7.57,5.45Z"/><path class="cls-3" d="M33.27,86.83c0,.62.38,1.27,1.88,1.27v.15H27.27V88.1c1.5,0,1.88-.65,1.88-1.27V78c0-.9-.43-1.32-1.85-1.32v-.15a15.18,15.18,0,0,0,6-1ZM40,78.2a2.67,2.67,0,0,1-2.57,2.85A1.71,1.71,0,0,1,36,80.5a1.82,1.82,0,0,0,1-1.7,1.33,1.33,0,0,0-1.4-1.35,1.72,1.72,0,0,0-1.5,1v-.2a3.46,3.46,0,0,1,3.25-2.7A2.54,2.54,0,0,1,40,78.2Z"/><path class="cls-3" d="M41.37,82A6.19,6.19,0,0,1,47.5,75.5v.15c-1.48.18-1.88,1.43-1.88,6.2,0,3.6,1.6,5.57,3.83,5.57A5.43,5.43,0,0,0,53.1,86.1v.15a7,7,0,0,1-5.3,2.25A6.34,6.34,0,0,1,41.37,82Zm5.63-1c2.2,0,3.12-.7,3.12-2.8,0-1.2-.5-2.3-1.62-2.45V75.5c3.3,0,4.9,2.35,4.9,4.25a6.9,6.9,0,0,1-.13,1.3H47Z"/><path class="cls-3" d="M61,86.83c0,.62.37,1.27,1.87,1.27v.15H55V88.1c1.5,0,1.87-.65,1.87-1.27V78c0-.9-.42-1.32-1.85-1.32v-.15a15.23,15.23,0,0,0,6-1ZM69.3,79v7.8c0,.62.35,1.27,1.85,1.27v.15H63.3V88.1c1.47,0,1.87-.65,1.87-1.27V79c0-1.4-.55-2.13-1.75-2.13a2.2,2.2,0,0,0-1.65.75V77.5a4.06,4.06,0,0,1,3.65-2C67.8,75.5,69.3,76.55,69.3,79Zm8.27,0v7.8c0,.62.37,1.27,1.87,1.27v.15H71.57V88.1c1.47,0,1.87-.65,1.87-1.27V79c0-1.4-.55-2.13-1.74-2.13a2.19,2.19,0,0,0-1.65.75V77.5a4,4,0,0,1,3.64-2C76.07,75.5,77.57,76.55,77.57,79Z"/><path class="cls-3" d="M80.4,76.45a15.37,15.37,0,0,0,6-1V86.83c0,.62.38,1.27,1.88,1.27v.15H80.37V88.1c1.5,0,1.88-.65,1.88-1.27v-8.9c0-.9-.43-1.33-1.85-1.33Zm1.27-4.7A2.58,2.58,0,1,1,84.22,74,2.27,2.27,0,0,1,81.67,71.75Z"/><path class="cls-3" d="M95,85c0,1.39.48,2.12,1.73,2.12a2.21,2.21,0,0,0,1.72-.77v.15a4.16,4.16,0,0,1-3.87,2c-2.25,0-3.7-1-3.7-3.52V78c0-.9-.43-1.32-1.85-1.32v-.15a15.18,15.18,0,0,0,6-1Zm8.33,1.6c0,.72.22,1,.67,1s.8-.37,1.2-1.12h.15c-.4,1.37-1.75,2-3.4,2s-2.75-1-2.75-2.45V78c0-.9-.42-1.32-1.77-1.32v-.15a16.15,16.15,0,0,0,5.9-1Z"/><path class="cls-3" d="M112.37,86.83c0,.62.38,1.27,1.88,1.27v.15h-7.88V88.1c1.5,0,1.88-.65,1.88-1.27V78c0-.9-.43-1.32-1.85-1.32v-.15a15.18,15.18,0,0,0,6-1Zm8.3-7.8v7.8c0,.62.35,1.27,1.85,1.27v.15h-7.85V88.1c1.48,0,1.88-.65,1.88-1.27V79c0-1.4-.55-2.13-1.75-2.13a2.19,2.19,0,0,0-1.65.75V77.5a4,4,0,0,1,3.65-2C119.17,75.5,120.67,76.55,120.67,79Zm8.27,0v7.8c0,.62.38,1.27,1.88,1.27v.15h-7.88V88.1c1.48,0,1.88-.65,1.88-1.27V79c0-1.4-.55-2.13-1.75-2.13a2.2,2.2,0,0,0-1.65.75V77.5a4,4,0,0,1,3.65-2C127.44,75.5,128.94,76.55,128.94,79Z"/><path class="cls-3" d="M16.6,113.83c0,.62.37,1.27,1.87,1.27v.15H10.6v-.15c1.5,0,1.87-.65,1.87-1.27V105c0-.9-.42-1.32-1.85-1.32v-.15a15.23,15.23,0,0,0,6-1Zm8.3-7.8v7.8c0,.62.35,1.27,1.85,1.27v.15H18.9v-.15c1.47,0,1.87-.65,1.87-1.27V106c0-1.4-.55-2.13-1.75-2.13a2.2,2.2,0,0,0-1.65.75v-.15a4.06,4.06,0,0,1,3.65-2C23.4,102.5,24.9,103.55,24.9,106Zm8.27,0v7.8c0,.62.37,1.27,1.87,1.27v.15H27.17v-.15c1.48,0,1.88-.65,1.88-1.27V106c0-1.4-.55-2.13-1.75-2.13a2.19,2.19,0,0,0-1.65.75v-.15a4,4,0,0,1,3.65-2C31.67,102.5,33.17,103.55,33.17,106Z"/><path class="cls-3" d="M42.62,102.65c-1.47.18-2,1.43-2,6.3,0,4.7.5,6.25,2,6.4v.15A6.37,6.37,0,0,1,36.4,109a6.27,6.27,0,0,1,6.22-6.45Zm7.2,6.3a6.36,6.36,0,0,1-6.2,6.55v-.15c1.48-.15,2-1.73,2-6.4,0-4.9-.5-6.15-2-6.3v-.15A6.23,6.23,0,0,1,49.82,109Z"/><path class="cls-3" d="M61.17,113.33v.15a5.25,5.25,0,0,1-4.27,2c-2.25,0-3.85-1-3.85-3.52v-8.2h-1.3l.27-.38h1v-2.7a6.31,6.31,0,0,0,4.1-1.4v4.1h3.37l-.27.38h-3.1v8.27c0,1.25.47,2.55,1.65,2.55A3.68,3.68,0,0,0,61.17,113.33Z"/><path class="cls-3" d="M68.32,102.65c-1.47.18-2,1.43-2,6.3,0,4.7.5,6.25,2,6.4v.15A6.37,6.37,0,0,1,62.1,109a6.27,6.27,0,0,1,6.22-6.45Zm7.2,6.3a6.36,6.36,0,0,1-6.2,6.55v-.15c1.48-.15,2-1.73,2-6.4,0-4.9-.5-6.15-2-6.3v-.15A6.23,6.23,0,0,1,75.52,109Z"/><path class="cls-3" d="M83.17,113.83c0,.62.38,1.27,1.88,1.27v.15H77.17v-.15c1.5,0,1.88-.65,1.88-1.27V105c0-.9-.43-1.32-1.85-1.32v-.15a15.18,15.18,0,0,0,6-1Zm6.75-8.63a2.67,2.67,0,0,1-2.57,2.85,1.71,1.71,0,0,1-1.43-.55,1.82,1.82,0,0,0,1-1.7,1.33,1.33,0,0,0-1.4-1.35,1.72,1.72,0,0,0-1.5,1v-.2a3.46,3.46,0,0,1,3.25-2.7A2.54,2.54,0,0,1,89.92,105.2Z"/><path class="cls-3" d="M97.67,102.65c-1.47.18-2.12,1.43-2.12,6.2,0,3.6,1.82,5.57,4,5.57a5.43,5.43,0,0,0,3.65-1.32v.15A7,7,0,0,1,98,115.5,6.54,6.54,0,0,1,91.27,109a6.41,6.41,0,0,1,6.4-6.45Zm5.55,2.68a2.33,2.33,0,0,1-2.5,2.4,2.12,2.12,0,0,1-2.17-1.58,2.14,2.14,0,0,0,1.2-1.82,1.48,1.48,0,0,0-1.08-1.65v-.18C102,102.5,103.22,103.9,103.22,105.33Z"/><path class="cls-3" d="M105.3,103.78a1.35,1.35,0,0,0-1.38-.88v-.15h7v.15c-.87,0-1.22.6-.8,1.48l3.28,6.82-2.15,4h-.15Zm-1.1,15.49a2.63,2.63,0,0,1,2.2-2.35,1.83,1.83,0,0,0-.1.63,1.46,1.46,0,0,0,1.47,1.67c.88,0,1.58-.92,2.53-2.52h.17c-1.37,2.57-2.32,4.8-4.07,4.8A2.08,2.08,0,0,1,104.2,119.27Zm10.25-10.52a6.89,6.89,0,0,0,.7-3.22,2.42,2.42,0,0,0-2.55-2.63v-.15h6.22v.15c-.82,0-1.15.33-1.62,1.18l-2.6,4.9Z"/><path class="cls-3" d="M125.35,102.65c-1.48.18-2.13,1.43-2.13,6.2,0,3.6,1.83,5.57,4,5.57a5.39,5.39,0,0,0,3.65-1.32v.15a7,7,0,0,1-5.3,2.25A6.53,6.53,0,0,1,119,109a6.4,6.4,0,0,1,6.4-6.45Zm5.55,2.68a2.33,2.33,0,0,1-2.5,2.4,2.13,2.13,0,0,1-2.18-1.58,2.14,2.14,0,0,0,1.2-1.82,1.48,1.48,0,0,0-1.07-1.65v-.18C129.62,102.5,130.9,103.9,130.9,105.33Z"/><path class="cls-3" d="M132.2,97.85a15.37,15.37,0,0,0,6-1v17c0,.62.38,1.27,1.88,1.27v.15h-7.88v-.15c1.5,0,1.88-.65,1.88-1.27V99.33c0-.9-.43-1.33-1.85-1.33Z"/><path class="cls-3" d="M141.55,109a6.19,6.19,0,0,1,6.12-6.45v.15c-1.47.18-1.87,1.43-1.87,6.2,0,3.6,1.6,5.57,3.82,5.57a5.39,5.39,0,0,0,3.65-1.32v.15a7,7,0,0,1-5.3,2.25A6.33,6.33,0,0,1,141.55,109Zm5.62-1c2.2,0,3.13-.7,3.13-2.8,0-1.2-.5-2.3-1.63-2.45v-.15c3.3,0,4.9,2.35,4.9,4.25a7.85,7.85,0,0,1-.12,1.3h-6.28Z"/><path class="cls-3" d="M10.65,130.45a15.37,15.37,0,0,0,6-1v11.35c0,.62.38,1.27,1.88,1.27v.15H10.62v-.15c1.5,0,1.88-.65,1.88-1.27v-8.9c0-.9-.43-1.33-1.85-1.33Zm1.27-4.7a2.27,2.27,0,0,1,2.55-2.17,2.21,2.21,0,1,1,0,4.37A2.27,2.27,0,0,1,11.92,125.75Z"/><path class="cls-3" d="M19.55,142.1c1.5,0,1.87-.65,1.87-1.27V132c0-.9-.42-1.32-1.85-1.32v-.15a15.23,15.23,0,0,0,6-1v11.33c0,.62.37,1.27,1.87,1.27v.15H19.55Zm8.8,0c1.47,0,1.85-.65,1.85-1.27V133a1.86,1.86,0,0,0-2-2.13,2.67,2.67,0,0,0-1.9.78v-.15a5.12,5.12,0,0,1,4.15-2c2.25,0,3.85,1.05,3.85,3.53v7.8c0,.62.38,1.27,1.88,1.27v.15H28.35Z"/><path class="cls-3" d="M41.9,139.28a1.27,1.27,0,0,0-1.4,1.25c0,.72.5,1.64,2.22,1.82v.15c-3.32-.13-5.15-1-5.15-2.47a2,2,0,0,1,2.13-1.85A2.54,2.54,0,0,1,41.9,139.28Zm.82-9.63c-.92.18-1.82.65-1.8,1.68.08,2.9,8.18,3.37,8.18,7.35,0,2.42-2.05,3.69-5.28,3.82v-.15c1-.18,2.23-.55,2.23-1.85,0-2.6-8.2-3.55-8.2-7.35,0-2.2,2.07-3.52,4.87-3.65Zm5.9,2.43a1.64,1.64,0,0,1-1.85,1.55,2.13,2.13,0,0,1-2.12-1.2,1.11,1.11,0,0,0,1.12-1.18c0-.75-1-1.47-2-1.6v-.15C46.65,129.65,48.62,130.68,48.62,132.08Z"/><path class="cls-3" d="M56.47,139c0,1.39.48,2.12,1.73,2.12a2.21,2.21,0,0,0,1.72-.77v.15a4.16,4.16,0,0,1-3.87,2c-2.25,0-3.7-1.05-3.7-3.52v-7c0-.9-.43-1.32-1.85-1.32v-.15a15.18,15.18,0,0,0,6-1Zm8.33,1.6c0,.72.22,1,.67,1s.8-.37,1.2-1.12h.15c-.4,1.37-1.75,2-3.4,2s-2.75-1-2.75-2.45V132c0-.9-.42-1.32-1.77-1.32v-.15a16.15,16.15,0,0,0,5.9-1Z"/><path class="cls-3" d="M73.82,140.83c0,.62.38,1.27,1.88,1.27v.15H67.82v-.15c1.5,0,1.88-.65,1.88-1.27V132c0-.9-.43-1.32-1.85-1.32v-.15a15.18,15.18,0,0,0,6-1Zm6.75-8.63A2.67,2.67,0,0,1,78,135.05a1.71,1.71,0,0,1-1.43-.55,1.82,1.82,0,0,0,1-1.7,1.33,1.33,0,0,0-1.4-1.35,1.72,1.72,0,0,0-1.5,1v-.2a3.46,3.46,0,0,1,3.25-2.7A2.54,2.54,0,0,1,80.57,132.2Z"/><path class="cls-3" d="M81.65,139.3c0-2.17,2-3.4,4.8-3.4h2.7v.15H88.4a2.48,2.48,0,0,0-2.65,2.73c0,1.37.4,2.42,1.57,2.42a2.75,2.75,0,0,0,1.83-.87v.15a5.36,5.36,0,0,1-4,2C83.05,142.5,81.62,141.3,81.65,139.3Zm1-7.07c0-1.28,1.15-2.58,4.55-2.73v.15a1.83,1.83,0,0,0-1.6,1.83c0,.9.62,1.45,1.62,1.52a2.8,2.8,0,0,1-2.4,1.2A2,2,0,0,1,82.65,132.23Zm7.25,7.45V132c0-1.23-.48-2.2-1.7-2.38v-.15c4.15.15,5.8,1.73,5.8,5v6.08c0,.72.25,1,.7,1s.8-.37,1.2-1.12h.15a3.12,3.12,0,0,1-3.25,2C90.8,142.5,89.9,141.8,89.9,139.68Z"/><path class="cls-3" d="M96.82,142.1c1.5,0,1.88-.65,1.88-1.27V132c0-.9-.43-1.32-1.85-1.32v-.15a15.18,15.18,0,0,0,6-1v11.33c0,.62.38,1.27,1.88,1.27v.15H96.82Zm8.8,0c1.48,0,1.85-.65,1.85-1.27V133c0-1.4-.72-2.13-2-2.13a2.67,2.67,0,0,0-1.9.78v-.15a5.1,5.1,0,0,1,4.15-2c2.25,0,3.85,1.05,3.85,3.53v7.8c0,.62.37,1.27,1.87,1.27v.15h-7.85Z"/><path class="cls-3" d="M121.22,129.65c-1.47.18-2.12,1.43-2.12,6.2,0,3.6,1.82,5.57,4.05,5.57a5.43,5.43,0,0,0,3.65-1.32v.15a7,7,0,0,1-5.3,2.25,6.54,6.54,0,0,1-6.68-6.55,6.41,6.41,0,0,1,6.4-6.45Zm5.55,2.68a2.33,2.33,0,0,1-2.5,2.4,2.12,2.12,0,0,1-2.17-1.58,2.14,2.14,0,0,0,1.2-1.82,1.48,1.48,0,0,0-1.08-1.65v-.18C125.5,129.5,126.77,130.9,126.77,132.33Z"/><path class="cls-3" d="M128.65,136a6.19,6.19,0,0,1,6.12-6.45v.15c-1.47.18-1.87,1.43-1.87,6.2,0,3.6,1.6,5.57,3.82,5.57a5.39,5.39,0,0,0,3.65-1.32v.15a7,7,0,0,1-5.3,2.25A6.33,6.33,0,0,1,128.65,136Zm5.62-1c2.2,0,3.13-.7,3.13-2.8,0-1.2-.5-2.3-1.63-2.45v-.15c3.3,0,4.9,2.35,4.9,4.25a7.85,7.85,0,0,1-.12,1.3h-6.28Z"/></g></svg>