<?xml version="1.0" encoding="utf-8"?>
<!-- Generator: Adobe Illustrator 24.0.3, SVG Export Plug-In . SVG Version: 6.00 Build 0)  -->
<svg version="1.1" id="Layer_1" xmlns="http://www.w3.org/2000/svg" xmlns:xlink="http://www.w3.org/1999/xlink" x="0px" y="0px"
	 viewBox="0 0 300 150" style="enable-background:new 0 0 300 150;" xml:space="preserve">
<style type="text/css">
	.st0{fill:none;}
	.st1{enable-background:new    ;}
	.st2{fill:#FFFFFF;}
</style>
<title>Artboard 1</title>
<rect y="0" class="st0" width="300" height="150"/>
<g class="st1">
	<path class="st2" d="M23.9,77l3.3,6.8l-2.1,4h-0.1l-5.8-11.5c-0.2-0.5-0.6-0.9-1.4-0.9v-0.2h7v0.2C23.9,75.6,23.5,76.2,23.9,77z
		 M32.2,77l3.3,6.8l-2.1,4h-0.1l-3.9-7.8l-0.8,1.5l-0.2-0.2c0.4-0.8,0.5-2,0.2-2.8l-1.1-2.2c-0.2-0.5-0.6-0.9-1.4-0.9v-0.2h7v0.2
		C32.1,75.6,31.7,76.2,32.2,77z M40.9,75.4v0.2c-0.8,0-1.2,0.3-1.6,1.2l-2.6,4.9l-0.1-0.2c0.4-0.8,0.7-1.9,0.7-3.2
		c0-1.4-0.8-2.6-2.5-2.6v-0.2H40.9z"/>
	<path class="st2" d="M41.1,76.1c2.3,0,4.2-0.2,6-1v11.3c0,0.6,0.4,1.3,1.9,1.3v0.2h-7.9v-0.2c1.5,0,1.9-0.6,1.9-1.3v-8.9
		c0-0.9-0.4-1.3-1.8-1.3V76.1z M42.4,71.4c0-1.3,1-2.2,2.5-2.2c1.5,0,2.5,0.9,2.5,2.2c0,1.3-1,2.2-2.5,2.2
		C43.4,73.6,42.4,72.7,42.4,71.4z"/>
	<path class="st2" d="M59.7,86v0.2c-0.8,1.1-2.4,2-4.3,2c-2.2,0-3.8-1-3.8-3.5v-8.2h-1.3l0.3-0.4h1v-2.7c1.5,0,3-0.5,4.1-1.4v4.1H59
		l-0.3,0.4h-3.1v8.3c0,1.2,0.5,2.5,1.6,2.5C58,87.3,58.9,86.8,59.7,86z"/>
	<path class="st2" d="M66.1,86.5c0,0.6,0.4,1.3,1.9,1.3v0.2h-7.9v-0.2c1.5,0,1.9-0.6,1.9-1.3V72c0-0.9-0.4-1.3-1.8-1.3v-0.1
		c2.3,0,4.2-0.2,6-1V86.5z M74.9,78.7v7.8c0,0.6,0.4,1.3,1.9,1.3v0.2h-7.8v-0.2c1.5,0,1.8-0.6,1.8-1.3v-7.8c0-1.4-0.7-2.1-2-2.1
		c-0.7,0-1.3,0.2-1.9,0.8v-0.2c0.7-1,2.3-2,4.1-2C73.3,75.2,74.9,76.2,74.9,78.7z"/>
	<path class="st2" d="M84.3,75.3c-1.5,0.2-2,1.4-2,6.3c0,4.7,0.5,6.2,2,6.4v0.2c-2.9,0-6.2-2.3-6.2-6.5c0-4.2,3.3-6.4,6.2-6.4V75.3z
		 M91.5,81.6c0,4.2-3.3,6.5-6.2,6.5V88c1.5-0.1,1.9-1.7,1.9-6.4c0-4.9-0.5-6.1-1.9-6.3v-0.2C88.2,75.2,91.5,77.4,91.5,81.6z"/>
	<path class="st2" d="M98.9,84.6c0,1.4,0.5,2.1,1.7,2.1c0.6,0,1.2-0.2,1.7-0.8v0.2c-0.6,1.1-1.8,2-3.9,2c-2.2,0-3.7-1-3.7-3.5v-7
		c0-0.9-0.4-1.3-1.8-1.3v-0.2c2.3,0,4.2-0.2,6-1V84.6z M107.2,86.2c0,0.7,0.2,1,0.7,1c0.4,0,0.8-0.4,1.2-1.1h0.1
		c-0.4,1.4-1.7,2-3.4,2c-1.8,0-2.7-1-2.7-2.4v-8.1c0-0.9-0.4-1.3-1.8-1.3v-0.2c2.2,0,3.8-0.2,5.9-1V86.2z"/>
	<path class="st2" d="M120,86v0.2c-0.8,1.1-2.4,2-4.3,2c-2.2,0-3.8-1-3.8-3.5v-8.2h-1.3l0.3-0.4h1v-2.7c1.5,0,3-0.5,4.1-1.4v4.1h3.4
		l-0.3,0.4h-3.1v8.3c0,1.2,0.5,2.5,1.6,2.5C118.3,87.3,119.1,86.8,120,86z"/>
</g>
<g class="st1">
	<path class="st2" d="M28.2,110v0.2c-0.8,1.1-2.4,2-4.3,2c-2.2,0-3.8-1-3.8-3.5v-8.2h-1.3l0.3-0.4h1v-2.7c1.5,0,3-0.5,4.1-1.4v4.1
		h3.4l-0.3,0.4h-3.1v8.3c0,1.2,0.5,2.5,1.6,2.5C26.6,111.3,27.4,110.8,28.2,110z"/>
	<path class="st2" d="M34.7,110.5c0,0.6,0.4,1.3,1.9,1.3v0.2h-7.9v-0.2c1.5,0,1.9-0.6,1.9-1.3V96c0-0.9-0.4-1.3-1.8-1.3v-0.1
		c2.3,0,4.2-0.2,6-1V110.5z M43.4,102.7v7.8c0,0.6,0.4,1.3,1.9,1.3v0.2h-7.8v-0.2c1.5,0,1.8-0.6,1.8-1.3v-7.8c0-1.4-0.7-2.1-2-2.1
		c-0.7,0-1.3,0.2-1.9,0.8v-0.2c0.7-1,2.3-2,4.1-2C41.8,99.2,43.4,100.2,43.4,102.7z"/>
	<path class="st2" d="M46.7,105.6c0-4.2,3.2-6.4,6.1-6.4v0.2c-1.5,0.2-1.9,1.4-1.9,6.2c0,3.6,1.6,5.6,3.8,5.6c1.4,0,2.5-0.4,3.6-1.3
		v0.1c-1.3,1.7-3.7,2.2-5.3,2.2C49.9,112.2,46.7,109.8,46.7,105.6z M52.3,104.6c2.2,0,3.1-0.7,3.1-2.8c0-1.2-0.5-2.3-1.6-2.4v-0.2
		c3.3,0,4.9,2.3,4.9,4.2c0,0.4,0,0.9-0.1,1.3h-6.3V104.6z"/>
</g>
<g class="st1">
	<path class="st2" d="M67.1,105.6c0-4.2,3.2-6.4,6.1-6.4v0.2c-1.5,0.2-1.9,1.4-1.9,6.2c0,3.6,1.6,5.6,3.8,5.6c1.4,0,2.5-0.4,3.6-1.3
		v0.1c-1.3,1.7-3.7,2.2-5.3,2.2C70.3,112.2,67.1,109.8,67.1,105.6z M72.7,104.6c2.2,0,3.1-0.7,3.1-2.8c0-1.2-0.5-2.3-1.6-2.4v-0.2
		c3.3,0,4.9,2.3,4.9,4.2c0,0.4,0,0.9-0.1,1.3h-6.3V104.6z"/>
</g>
<g class="st1">
	<path class="st2" d="M79.6,111.8c0.9,0,1.9-0.6,2.6-1.6l2.2-3.3l0.1,0.2c-0.4,0.6-0.8,1.6-0.8,2.7c0,1.1,0.8,2.1,1.8,2.1v0.2h-6
		V111.8z M86.8,111.8c1,0,1.4-0.3,1.4-0.8c0-0.4-0.2-0.8-0.5-1.3l-5.9-9.2c-0.3-0.5-0.7-0.9-1.9-0.9v-0.2h7.6v0.2
		c-0.8,0-1.1,0.1-1.1,0.5c0,0.4,0.2,0.8,0.7,1.6l5.8,9.2c0.3,0.5,0.8,0.9,1.5,0.9v0.2h-7.6V111.8z M90.2,104.2
		c0.4-0.8,0.6-1.6,0.6-2.5c0-1.2-0.7-2.1-2-2.1v-0.2H94v0.2c-0.7,0-1.3,0.5-1.8,1.4l-1.9,3.4L90.2,104.2z"/>
</g>
<g class="st1">
	<path class="st2" d="M101.5,99.3c-1.5,0.2-2.1,1.4-2.1,6.2c0,3.6,1.8,5.6,4,5.6c1.4,0,2.5-0.4,3.6-1.3v0.1
		c-1.3,1.7-3.7,2.2-5.3,2.2c-3.2,0-6.7-2.3-6.7-6.5c0-4.2,3.5-6.4,6.4-6.4V99.3z M107,102c0,1.3-0.9,2.4-2.5,2.4
		c-1.2,0-2-0.8-2.2-1.6c0.7-0.3,1.2-1.2,1.2-1.8c0-0.6-0.1-1.5-1.1-1.7v-0.2C105.7,99.2,107,100.6,107,102z"/>
	<path class="st2" d="M108.9,105.6c0-4.2,3.2-6.4,6.1-6.4v0.2c-1.5,0.2-1.9,1.4-1.9,6.2c0,3.6,1.6,5.6,3.8,5.6
		c1.4,0,2.5-0.4,3.6-1.3v0.1c-1.3,1.7-3.7,2.2-5.3,2.2C112.1,112.2,108.9,109.8,108.9,105.6z M114.5,104.6c2.2,0,3.1-0.7,3.1-2.8
		c0-1.2-0.5-2.3-1.6-2.4v-0.2c3.3,0,4.9,2.3,4.9,4.2c0,0.4,0,0.9-0.1,1.3h-6.3V104.6z"/>
	<path class="st2" d="M127.3,108.9c-0.8,0-1.4,0.5-1.4,1.2c0,0.7,0.5,1.6,2.2,1.8v0.2c-3.3-0.1-5.1-1-5.1-2.5c0-1.1,1-1.8,2.1-1.8
		C126.1,107.8,126.9,108.3,127.3,108.9z M128.1,99.3c-0.9,0.2-1.8,0.6-1.8,1.7c0.1,2.9,8.2,3.4,8.2,7.3c0,2.4-2,3.7-5.3,3.8V112
		c1-0.2,2.2-0.5,2.2-1.8c0-2.6-8.2-3.5-8.2-7.3c0-2.2,2.1-3.5,4.9-3.6V99.3z M134,101.7c0,0.8-0.6,1.5-1.8,1.5c-1,0-1.8-0.5-2.1-1.2
		c0.8-0.1,1.1-0.6,1.1-1.2c0-0.8-1-1.5-1.9-1.6v-0.2C132.1,99.3,134,100.3,134,101.7z"/>
	<path class="st2" d="M141,108.9c-0.8,0-1.4,0.5-1.4,1.2c0,0.7,0.5,1.6,2.2,1.8v0.2c-3.3-0.1-5.1-1-5.1-2.5c0-1.1,1-1.8,2.1-1.8
		C139.8,107.8,140.6,108.3,141,108.9z M141.8,99.3c-0.9,0.2-1.8,0.6-1.8,1.7c0.1,2.9,8.2,3.4,8.2,7.3c0,2.4-2,3.7-5.3,3.8V112
		c1-0.2,2.2-0.5,2.2-1.8c0-2.6-8.2-3.5-8.2-7.3c0-2.2,2.1-3.5,4.9-3.6V99.3z M147.7,101.7c0,0.8-0.6,1.5-1.8,1.5
		c-1,0-1.8-0.5-2.1-1.2c0.8-0.1,1.1-0.6,1.1-1.2c0-0.8-1-1.5-1.9-1.6v-0.2C145.7,99.3,147.7,100.3,147.7,101.7z"/>
	<path class="st2" d="M149.9,100.1c2.3,0,4.2-0.2,6-1v11.3c0,0.6,0.4,1.3,1.9,1.3v0.2h-7.9v-0.2c1.5,0,1.9-0.6,1.9-1.3v-8.9
		c0-0.9-0.4-1.3-1.8-1.3V100.1z M151.1,95.4c0-1.3,1-2.2,2.5-2.2s2.5,0.9,2.5,2.2c0,1.3-1,2.2-2.5,2.2S151.1,96.7,151.1,95.4z"/>
</g>
<g class="st1">
	<path class="st2" d="M159.3,100.4c-0.2-0.5-0.6-0.9-1.4-0.9v-0.2h7v0.2c-0.9,0-1.2,0.6-0.8,1.5l3.3,6.8l-2.2,4h-0.1L159.3,100.4z
		 M168.5,105.4c0.4-0.8,0.7-1.9,0.7-3.2c0-1.4-0.8-2.6-2.5-2.6v-0.2h6.2v0.2c-0.8,0-1.1,0.3-1.6,1.2l-2.6,4.9L168.5,105.4z"/>
</g>
<g class="st1">
	<path class="st2" d="M173.1,105.6c0-4.2,3.2-6.4,6.1-6.4v0.2c-1.5,0.2-1.9,1.4-1.9,6.2c0,3.6,1.6,5.6,3.8,5.6
		c1.4,0,2.5-0.4,3.6-1.3v0.1c-1.3,1.7-3.7,2.2-5.3,2.2C176.3,112.2,173.1,109.8,173.1,105.6z M178.7,104.6c2.2,0,3.1-0.7,3.1-2.8
		c0-1.2-0.5-2.3-1.6-2.4v-0.2c3.3,0,4.9,2.3,4.9,4.2c0,0.4,0,0.9-0.1,1.3h-6.3V104.6z"/>
</g>
<g class="st1">
	<path class="st2" d="M24.3,139.7c0,0.9,0.4,1.3,1.8,1.3v0.1c-2.3,0-3.9,0.2-6,1v-16.6c0-0.9-0.4-1.3-1.8-1.3v-0.1
		c2.3,0,3.9-0.2,6-1V139.7z M33.8,129.5c0,5.2-2.7,6.6-5.1,6.6c-1.4,0-3-1-3.6-2V134c0.6,0.5,1.3,0.9,2.1,0.9c1.2,0,2.4-0.8,2.4-5.3
		c0-4.5-1.2-5.1-2.4-5.1c-0.8,0-1.5,0.3-2.1,0.9v-0.2c0.6-1,2.2-2,3.6-2C31.1,123.2,33.8,124.6,33.8,129.5z"/>
</g>
<g class="st1">
	<path class="st2" d="M41.6,134.5c0,0.6,0.4,1.3,1.9,1.3v0.2h-7.9v-0.2c1.5,0,1.9-0.6,1.9-1.3v-8.9c0-0.9-0.4-1.3-1.8-1.3v-0.2
		c2.3,0,4.2-0.2,6-1V134.5z M48.3,125.9c0,1.7-1.2,2.8-2.6,2.8c-0.6,0-1.1-0.2-1.4-0.5c0.5-0.3,1-0.8,1-1.7c0-0.7-0.5-1.3-1.4-1.3
		c-0.6,0-1.2,0.4-1.5,0.9v-0.2c0.5-1.6,1.7-2.7,3.2-2.7C47.4,123.2,48.3,124.4,48.3,125.9z"/>
</g>
<g class="st1">
	<path class="st2" d="M49.7,129.6c0-4.2,3.2-6.4,6.1-6.4v0.2c-1.5,0.2-1.9,1.4-1.9,6.2c0,3.6,1.6,5.6,3.8,5.6c1.4,0,2.5-0.4,3.6-1.3
		v0.1c-1.3,1.7-3.7,2.2-5.3,2.2C52.9,136.2,49.7,133.8,49.7,129.6z M55.3,128.6c2.2,0,3.1-0.7,3.1-2.8c0-1.2-0.5-2.3-1.6-2.4v-0.2
		c3.3,0,4.9,2.3,4.9,4.2c0,0.4,0,0.9-0.1,1.3h-6.3V128.6z"/>
	<path class="st2" d="M69.3,134.5c0,0.6,0.4,1.3,1.9,1.3v0.2h-7.9v-0.2c1.5,0,1.9-0.6,1.9-1.3v-8.9c0-0.9-0.4-1.3-1.8-1.3v-0.2
		c2.3,0,4.2-0.2,6-1V134.5z M77.6,126.7v7.8c0,0.6,0.3,1.3,1.8,1.3v0.2h-7.8v-0.2c1.5,0,1.9-0.6,1.9-1.3v-7.8c0-1.4-0.5-2.1-1.7-2.1
		c-0.7,0-1.3,0.4-1.6,0.8v-0.1c0.6-1,1.8-2,3.6-2C76.1,123.2,77.6,124.2,77.6,126.7z M85.9,126.7v7.8c0,0.6,0.4,1.3,1.9,1.3v0.2
		h-7.9v-0.2c1.5,0,1.9-0.6,1.9-1.3v-7.8c0-1.4-0.5-2.1-1.7-2.1c-0.7,0-1.3,0.4-1.6,0.8v-0.1c0.6-1,1.8-2,3.6-2
		C84.4,123.2,85.9,124.2,85.9,126.7z"/>
	<path class="st2" d="M88.7,124.1c2.3,0,4.2-0.2,6-1v11.3c0,0.6,0.4,1.3,1.9,1.3v0.2h-7.9v-0.2c1.5,0,1.9-0.6,1.9-1.3v-8.9
		c0-0.9-0.4-1.3-1.8-1.3V124.1z M90,119.4c0-1.3,1-2.2,2.5-2.2c1.5,0,2.5,0.9,2.5,2.2c0,1.3-1,2.2-2.5,2.2
		C91,121.6,90,120.7,90,119.4z"/>
	<path class="st2" d="M103.3,132.6c0,1.4,0.5,2.1,1.7,2.1c0.6,0,1.2-0.2,1.7-0.8v0.2c-0.6,1.1-1.8,2-3.9,2c-2.2,0-3.7-1-3.7-3.5v-7
		c0-0.9-0.4-1.3-1.8-1.3v-0.2c2.3,0,4.2-0.2,6-1V132.6z M111.7,134.2c0,0.7,0.2,1,0.7,1c0.4,0,0.8-0.4,1.2-1.1h0.1
		c-0.4,1.4-1.7,2-3.4,2c-1.8,0-2.7-1-2.7-2.4v-8.1c0-0.9-0.4-1.3-1.8-1.3v-0.2c2.2,0,3.8-0.2,5.9-1V134.2z"/>
	<path class="st2" d="M120.7,134.5c0,0.6,0.4,1.3,1.9,1.3v0.2h-7.9v-0.2c1.5,0,1.9-0.6,1.9-1.3v-8.9c0-0.9-0.4-1.3-1.8-1.3v-0.2
		c2.3,0,4.2-0.2,6-1V134.5z M129,126.7v7.8c0,0.6,0.3,1.3,1.8,1.3v0.2H123v-0.2c1.5,0,1.9-0.6,1.9-1.3v-7.8c0-1.4-0.5-2.1-1.7-2.1
		c-0.7,0-1.3,0.4-1.6,0.8v-0.1c0.6-1,1.8-2,3.6-2C127.5,123.2,129,124.2,129,126.7z M137.3,126.7v7.8c0,0.6,0.4,1.3,1.9,1.3v0.2
		h-7.9v-0.2c1.5,0,1.9-0.6,1.9-1.3v-7.8c0-1.4-0.5-2.1-1.7-2.1c-0.7,0-1.3,0.4-1.6,0.8v-0.1c0.6-1,1.8-2,3.6-2
		C135.8,123.2,137.3,124.2,137.3,126.7z"/>
	<path class="st2" d="M144.8,132.9c-0.8,0-1.4,0.5-1.4,1.2c0,0.7,0.5,1.6,2.2,1.8v0.2c-3.3-0.1-5.1-1-5.1-2.5c0-1.1,1-1.8,2.1-1.8
		C143.6,131.8,144.5,132.3,144.8,132.9z M145.7,123.3c-0.9,0.2-1.8,0.6-1.8,1.7c0.1,2.9,8.2,3.4,8.2,7.3c0,2.4-2,3.7-5.3,3.8V136
		c1-0.2,2.2-0.5,2.2-1.8c0-2.6-8.2-3.5-8.2-7.3c0-2.2,2.1-3.5,4.9-3.6V123.3z M151.6,125.7c0,0.8-0.6,1.5-1.9,1.5
		c-1,0-1.8-0.5-2.1-1.2c0.8-0.1,1.1-0.6,1.1-1.2c0-0.8-1-1.5-1.9-1.6v-0.2C149.6,123.3,151.6,124.3,151.6,125.7z"/>
</g>
</svg>
