<svg id="Layer_1" data-name="Layer 1" xmlns="http://www.w3.org/2000/svg" viewBox="0 0 300 150"><defs><style>.cls-1{fill:none;}.cls-2{fill:#fff;}</style></defs><title>Artboard 1 copy 2</title><rect class="cls-1" width="300" height="150"/><path class="cls-2" d="M11.07,88.1c1.5,0,1.88-.57,1.88-1.28V72.68c0-.7-.38-1.28-1.88-1.28v-.15H17.2V86.82c0,.71.37,1.28,1.87,1.28v.15h-8Zm7.38-16.7v-.15h6.87v5h-.2C24,72.7,22.25,71.65,18.45,71.4Zm1.37,8.5-1.37-.12v-.15l1.37-.13a3.82,3.82,0,0,0,3.3-2.15h.2V82h-.2A3.8,3.8,0,0,0,19.82,79.9Z"/><path class="cls-2" d="M32.6,86.82c0,.63.37,1.28,1.87,1.28v.15H26.6V88.1c1.5,0,1.88-.65,1.88-1.28V78c0-.9-.43-1.32-1.85-1.32v-.15a15.22,15.22,0,0,0,6-1Zm6.75-8.62a2.68,2.68,0,0,1-2.58,2.85,1.69,1.69,0,0,1-1.42-.55,1.83,1.83,0,0,0,1-1.7,1.33,1.33,0,0,0-1.4-1.35,1.73,1.73,0,0,0-1.5,1v-.2a3.46,3.46,0,0,1,3.25-2.7A2.54,2.54,0,0,1,39.35,78.2Z"/><path class="cls-2" d="M46.92,75.65c-1.47.18-2,1.43-2,6.3,0,4.7.5,6.25,2,6.4v.15A6.37,6.37,0,0,1,40.7,82a6.27,6.27,0,0,1,6.22-6.45Zm7.2,6.3a6.36,6.36,0,0,1-6.2,6.55v-.15c1.48-.15,1.95-1.73,1.95-6.4,0-4.9-.5-6.15-1.95-6.3V75.5A6.23,6.23,0,0,1,54.12,82Z"/><path class="cls-2" d="M61.77,86.82c0,.63.38,1.28,1.88,1.28v.15H55.77V88.1c1.5,0,1.88-.65,1.88-1.28V78c0-.9-.43-1.32-1.85-1.32v-.15a15.18,15.18,0,0,0,6-1ZM70.07,79v7.79c0,.63.35,1.28,1.85,1.28v.15H64.07V88.1c1.48,0,1.88-.65,1.88-1.28V79c0-1.4-.55-2.13-1.75-2.13a2.19,2.19,0,0,0-1.65.75V77.5a4,4,0,0,1,3.65-2C68.57,75.5,70.07,76.55,70.07,79Zm8.27,0v7.79c0,.63.38,1.28,1.88,1.28v.15H72.35V88.1c1.47,0,1.87-.65,1.87-1.28V79c0-1.4-.55-2.13-1.75-2.13a2.2,2.2,0,0,0-1.65.75V77.5a4,4,0,0,1,3.65-2C76.84,75.5,78.34,76.55,78.34,79Z"/><path class="cls-2" d="M13.27,102.2l.2.3.2,10.5a2.19,2.19,0,0,0,2.45,2.1v.15H10.63v-.15a2.19,2.19,0,0,0,2.44-2.1Zm13.25,13H23.75L13.3,99.68a2.72,2.72,0,0,0-2.65-1.28v-.15h6.67L26.52,112Zm-.05-5.75-.2-.27L26,100.5a2.18,2.18,0,0,0-2.45-2.1v-.15H29v.15a2.18,2.18,0,0,0-2.45,2.1Z"/><path class="cls-2" d="M40.2,98.25H45l-9.92,17H30.3Zm-9.18,0h7.55l-.07.15a7.71,7.71,0,0,0-7.28,5.88H31Zm5.73,16.85a8.54,8.54,0,0,0,7.8-6.67h.2v6.82H36.67Z"/><path class="cls-2" d="M52,99.05c0,1.45-1.55,3.38-4.05,4.4l-.08-.22a3.49,3.49,0,0,0,1.43-2.43,1.58,1.58,0,0,0-1.7-1.65,2.31,2.31,0,0,1,2.37-2.27A2,2,0,0,1,52,99.05Z"/><path class="cls-2" d="M57.07,112.28a1.28,1.28,0,0,0-1.4,1.25c0,.72.5,1.64,2.23,1.82v.15c-3.33-.13-5.15-1-5.15-2.47a2,2,0,0,1,2.12-1.85A2.53,2.53,0,0,1,57.07,112.28Zm.83-9.63c-.93.18-1.83.65-1.8,1.68.07,2.9,8.17,3.37,8.17,7.35,0,2.42-2,3.69-5.27,3.82v-.15c1-.18,2.22-.55,2.22-1.85,0-2.6-8.2-3.55-8.2-7.35,0-2.2,2.08-3.52,4.88-3.65Zm5.9,2.43A1.64,1.64,0,0,1,62,106.63a2.16,2.16,0,0,1-2.13-1.2A1.12,1.12,0,0,0,61,104.25c0-.75-1-1.47-2-1.6v-.15C61.82,102.65,63.8,103.68,63.8,105.08Z"/><path class="cls-2" d="M72.15,97.85a15.37,15.37,0,0,0,6-1v16.94c0,.63.38,1.28,1.88,1.28v.15H72.12v-.15c1.5,0,1.88-.65,1.88-1.28V99.33c0-.9-.43-1.33-1.85-1.33Z"/><path class="cls-2" d="M81.5,109a6.19,6.19,0,0,1,6.12-6.45v.15c-1.47.18-1.87,1.43-1.87,6.2,0,3.6,1.6,5.57,3.82,5.57a5.39,5.39,0,0,0,3.65-1.32v.15a7,7,0,0,1-5.3,2.25A6.33,6.33,0,0,1,81.5,109Zm5.62-1c2.2,0,3.13-.7,3.13-2.8,0-1.2-.5-2.3-1.63-2.45v-.15c3.3,0,4.9,2.35,4.9,4.25a7.85,7.85,0,0,1-.12,1.3H87.12Z"/><path class="cls-2" d="M95.32,112.3c0-2.17,2-3.4,4.8-3.4h2.7v.15h-.75a2.48,2.48,0,0,0-2.65,2.73c0,1.37.4,2.42,1.58,2.42a2.74,2.74,0,0,0,1.82-.88v.16a5.34,5.34,0,0,1-4,2C96.72,115.5,95.3,114.3,95.32,112.3Zm1-7.07c0-1.28,1.15-2.58,4.55-2.73v.15a1.83,1.83,0,0,0-1.6,1.83c0,.9.63,1.45,1.63,1.52a2.82,2.82,0,0,1-2.4,1.2A2,2,0,0,1,96.32,105.23Zm7.25,7.45V105c0-1.23-.47-2.2-1.7-2.38v-.15c4.15.15,5.8,1.73,5.8,5v6.07c0,.73.25,1,.7,1s.8-.37,1.2-1.12h.15a3.12,3.12,0,0,1-3.25,2C104.47,115.5,103.57,114.8,103.57,112.68Z"/><path class="cls-2" d="M119.82,104.5v.2a2.76,2.76,0,0,0-2.07-.92c-1.25,0-2.45.57-2.45,5.1s1.27,5.32,2.45,5.32a3.39,3.39,0,0,0,2.07-.88v.16a4.62,4.62,0,0,1-3.62,2c-2.38,0-5.15-1.4-5.15-6.62,0-5,2.72-6.38,5.15-6.38A4.61,4.61,0,0,1,119.82,104.5Zm4.88,9.07c0,.73.22,1,.67,1s.8-.37,1.2-1.12h.15a3.12,3.12,0,0,1-3.25,2c-2,0-2.9-.7-2.9-2.82V99.33c0-.9-.42-1.33-1.85-1.33v-.15a16.5,16.5,0,0,0,6-1Z"/><path class="cls-2" d="M127.77,103.45a15.42,15.42,0,0,0,6-1v11.34c0,.63.37,1.28,1.87,1.28v.15h-7.87v-.15c1.5,0,1.87-.65,1.87-1.28v-8.89c0-.9-.42-1.33-1.85-1.33Zm1.28-4.7a2.58,2.58,0,1,1,2.55,2.2A2.27,2.27,0,0,1,129.05,98.75Z"/><path class="cls-2" d="M136.67,115.1c1.5,0,1.88-.65,1.88-1.28V105c0-.9-.43-1.32-1.85-1.32v-.15a15.18,15.18,0,0,0,6-1v11.32c0,.63.38,1.28,1.88,1.28v.15h-7.88Zm8.8,0c1.48,0,1.85-.65,1.85-1.28V106c0-1.4-.72-2.13-2-2.13a2.67,2.67,0,0,0-1.9.78v-.15a5.1,5.1,0,0,1,4.15-2c2.25,0,3.84,1,3.84,3.53v7.79c0,.63.38,1.28,1.88,1.28v.15h-7.85Z"/><path class="cls-2" d="M154.8,107c0-3.25,3-4.48,5.6-4.53v.15c-1.08.1-1.58,1.4-1.58,4.3s.5,4.25,1.58,4.35v.15C157.87,111.45,154.8,110.25,154.8,107Zm6.65,14.32c2.5-.3,3.3-1.65,3.3-2.55,0-3.48-9.75-.38-9.75-4.85a3,3,0,0,1,1.67-2.55l.08.13a.58.58,0,0,0-.23.47c0,2.8,11.4-.45,11.4,5,0,2.57-2.22,4.25-6.47,4.5Zm-6.45-2.1c0-1.48,1.82-1.93,3.8-1.93a2.11,2.11,0,0,0-1.08,1.78c0,1.15,1.3,2,2.73,2.25v.15C157.77,121.45,155,120.9,155,119.25Zm6.45-8c1.22-.1,1.72-1.32,1.72-4.35s-.52-4.2-1.72-4.3v-.15c2.65,0,5.72,1.28,5.72,4.53s-3.07,4.42-5.72,4.42Zm1.35-9.25c.42-1.27,1.57-3,3.3-3,1.32,0,2.12.7,2.12,1.9a2,2,0,0,1-2,2c0-1.05-.55-1.67-1.35-1.67a2.72,2.72,0,0,0-1.93.9Z"/><path class="cls-2" d="M26.4,129.08l-5.63,13.17h-.35l-7.15-15.57a2.7,2.7,0,0,0-2.64-1.28v-.15h6.72l5.2,11.3,3.85-8Zm-10.28,13v.15H10.63v-.15a2.19,2.19,0,0,0,2.44-2.1l.2-10.8.2.45.2,10.35A2.19,2.19,0,0,0,16.12,142.1Zm15.52-15.42v14.14c0,.68.38,1.28,1.88,1.28v.15h-8v-.15c1.5,0,1.88-.6,1.88-1.28V125.25h6.12v.15C32,125.4,31.64,126,31.64,126.68Z"/><path class="cls-2" d="M50.75,139.28l.1.2a6.87,6.87,0,0,1-6,3c-4.07,0-9.14-2.9-9.14-8.72,0-6.33,4.94-8.68,8.54-8.78v.15c-1.75.38-3.65,2-3.65,8.45s2.58,7.9,5.4,7.9A6.15,6.15,0,0,0,50.75,139.28ZM51,125v6.08h-.2c-1-3.33-2.83-5.25-5.28-5.93V125A8.67,8.67,0,0,1,50,126.15l.75-1.15Z"/><path class="cls-2" d="M63.8,139.28a1.27,1.27,0,0,0-1.4,1.25c0,.72.5,1.64,2.22,1.82v.15c-3.32-.13-5.14-1-5.14-2.47a2,2,0,0,1,2.12-1.85A2.54,2.54,0,0,1,63.8,139.28Zm.82-9.63c-.92.18-1.82.65-1.8,1.68.08,2.9,8.18,3.37,8.18,7.35,0,2.42-2,3.69-5.28,3.82v-.15c1-.18,2.23-.55,2.23-1.85,0-2.6-8.2-3.55-8.2-7.35,0-2.2,2.07-3.52,4.87-3.65Zm5.9,2.43a1.64,1.64,0,0,1-1.85,1.55,2.13,2.13,0,0,1-2.12-1.2,1.11,1.11,0,0,0,1.12-1.18c0-.75-1-1.47-2-1.6v-.15C68.55,129.65,70.52,130.68,70.52,132.08Z"/><path class="cls-2" d="M78.42,146.05c0,.9.43,1.32,1.85,1.32v.15a16.28,16.28,0,0,0-6,1V131.93c0-.9-.43-1.33-1.85-1.33v-.15a16.48,16.48,0,0,0,6-1ZM88,135.88c0,5.22-2.75,6.62-5.13,6.62a4.7,4.7,0,0,1-3.65-2v-.16a3.49,3.49,0,0,0,2.1.88c1.18,0,2.43-.83,2.43-5.32s-1.18-5.1-2.43-5.1a2.84,2.84,0,0,0-2.1.92v-.2a4.68,4.68,0,0,1,3.65-2C85.25,129.5,88,130.9,88,135.88Z"/><path class="cls-2" d="M90.15,136a6.19,6.19,0,0,1,6.12-6.45v.15c-1.47.18-1.87,1.43-1.87,6.2,0,3.6,1.6,5.57,3.82,5.57a5.39,5.39,0,0,0,3.65-1.32v.15a7,7,0,0,1-5.3,2.25A6.33,6.33,0,0,1,90.15,136Zm5.62-1c2.2,0,3.13-.7,3.13-2.8,0-1.2-.5-2.3-1.63-2.45v-.15c3.3,0,4.9,2.35,4.9,4.25a7.85,7.85,0,0,1-.12,1.3H95.77Z"/><path class="cls-2" d="M110.62,129.65c-1.47.18-2.12,1.43-2.12,6.2,0,3.6,1.82,5.57,4,5.57a5.43,5.43,0,0,0,3.65-1.32v.15a7,7,0,0,1-5.3,2.25,6.54,6.54,0,0,1-6.68-6.55,6.41,6.41,0,0,1,6.4-6.45Zm5.55,2.68a2.33,2.33,0,0,1-2.5,2.4,2.12,2.12,0,0,1-2.17-1.58,2.14,2.14,0,0,0,1.2-1.82,1.48,1.48,0,0,0-1.08-1.65v-.18C114.9,129.5,116.17,130.9,116.17,132.33Z"/><path class="cls-2" d="M117.65,130.45a15.37,15.37,0,0,0,6-1v11.34c0,.63.38,1.28,1.88,1.28v.15h-7.88v-.15c1.5,0,1.88-.65,1.88-1.28v-8.89c0-.9-.43-1.33-1.85-1.33Zm1.27-4.7a2.58,2.58,0,1,1,2.55,2.2A2.27,2.27,0,0,1,118.92,125.75Z"/><path class="cls-2" d="M126.75,139.3c0-2.17,2-3.4,4.8-3.4h2.7v.15h-.75a2.48,2.48,0,0,0-2.65,2.73c0,1.37.4,2.42,1.57,2.42a2.76,2.76,0,0,0,1.83-.88v.16a5.36,5.36,0,0,1-4,2C128.15,142.5,126.72,141.3,126.75,139.3Zm1-7.07c0-1.28,1.15-2.58,4.55-2.73v.15a1.83,1.83,0,0,0-1.6,1.83c0,.9.62,1.45,1.62,1.52a2.8,2.8,0,0,1-2.4,1.2A2,2,0,0,1,127.75,132.23Zm7.25,7.45V132c0-1.23-.48-2.2-1.7-2.38v-.15c4.15.15,5.8,1.73,5.8,5v6.07c0,.73.25,1,.7,1s.8-.37,1.2-1.12h.14a3.1,3.1,0,0,1-3.24,2C135.9,142.5,135,141.8,135,139.68Z"/><path class="cls-2" d="M141.8,124.85a15.37,15.37,0,0,0,6-1v16.94c0,.63.38,1.28,1.88,1.28v.15h-7.88v-.15c1.5,0,1.88-.65,1.88-1.28V126.33c0-.9-.43-1.33-1.85-1.33Z"/><path class="cls-2" d="M150.75,130.45a15.37,15.37,0,0,0,6-1v11.34c0,.63.38,1.28,1.88,1.28v.15h-7.88v-.15c1.5,0,1.88-.65,1.88-1.28v-8.89c0-.9-.43-1.33-1.85-1.33Zm1.27-4.7a2.58,2.58,0,1,1,2.55,2.2A2.27,2.27,0,0,1,152,125.75Z"/><path class="cls-2" d="M164.45,139.28a1.27,1.27,0,0,0-1.4,1.25c0,.72.5,1.64,2.22,1.82v.15c-3.32-.13-5.15-1-5.15-2.47a2,2,0,0,1,2.13-1.85A2.54,2.54,0,0,1,164.45,139.28Zm.82-9.63c-.92.18-1.82.65-1.8,1.68.08,2.9,8.17,3.37,8.17,7.35,0,2.42-2,3.69-5.27,3.82v-.15c1-.18,2.23-.55,2.23-1.85,0-2.6-8.2-3.55-8.2-7.35,0-2.2,2.07-3.52,4.87-3.65Zm5.9,2.43a1.64,1.64,0,0,1-1.85,1.55,2.13,2.13,0,0,1-2.12-1.2,1.11,1.11,0,0,0,1.12-1.18c0-.75-.95-1.47-1.95-1.6v-.15C169.2,129.65,171.17,130.68,171.17,132.08Z"/><path class="cls-2" d="M183,140.32v.16a5.26,5.26,0,0,1-4.28,2c-2.25,0-3.85-1-3.85-3.52v-8.2h-1.3l.28-.38h1v-2.7a6.27,6.27,0,0,0,4.1-1.4v4.1h3.38l-.28.38H179v8.27c0,1.25.48,2.55,1.65,2.55A3.69,3.69,0,0,0,183,140.32Z"/></svg>