<?xml version="1.0" encoding="utf-8"?>
<!-- Generator: Adobe Illustrator 24.0.3, SVG Export Plug-In . SVG Version: 6.00 Build 0)  -->
<svg version="1.1" id="Layer_1" xmlns="http://www.w3.org/2000/svg" xmlns:xlink="http://www.w3.org/1999/xlink" x="0px" y="0px"
	 viewBox="0 0 300 150" style="enable-background:new 0 0 300 150;" xml:space="preserve">
<style type="text/css">
	.st0{fill:none;}
	.st1{enable-background:new    ;}
	.st2{fill:#FFFFFF;}
</style>
<title>Artboard 1 copy 2</title>
<rect y="0" class="st0" width="300" height="150"/>
<g class="st1">
	<path class="st2" d="M19,87.8c1.5,0,1.9-0.6,1.9-1.3V72.3c0-0.7-0.4-1.3-1.9-1.3v-0.2h6.1v15.6c0,0.7,0.4,1.3,1.9,1.3v0.2h-8V87.8z
		 M26.4,71.1v-0.2h6.9v5h-0.2C31.9,72.4,30.2,71.3,26.4,71.1z M27.8,79.6l-1.4-0.1v-0.2l1.4-0.1c1.5-0.1,2.5-0.7,3.3-2.1h0.2v4.6
		h-0.2C30.2,80.2,29.2,79.7,27.8,79.6z"/>
</g>
<g class="st1">
	<path class="st2" d="M40.5,86.5c0,0.6,0.4,1.3,1.9,1.3v0.2h-7.9v-0.2c1.5,0,1.9-0.6,1.9-1.3v-8.9c0-0.9-0.4-1.3-1.8-1.3v-0.2
		c2.3,0,4.2-0.2,6-1V86.5z M47.3,77.9c0,1.7-1.2,2.8-2.6,2.8c-0.6,0-1.1-0.2-1.4-0.5c0.5-0.2,1-0.8,1-1.7c0-0.7-0.5-1.3-1.4-1.3
		c-0.6,0-1.2,0.4-1.5,0.9v-0.2c0.5-1.6,1.7-2.7,3.2-2.7C46.3,75.2,47.3,76.4,47.3,77.9z"/>
</g>
<g class="st1">
	<path class="st2" d="M54.9,75.3c-1.5,0.2-2,1.4-2,6.3c0,4.7,0.5,6.2,2,6.4v0.2c-2.9,0-6.2-2.3-6.2-6.5c0-4.2,3.3-6.4,6.2-6.4V75.3z
		 M62.1,81.6c0,4.2-3.3,6.5-6.2,6.5V88c1.5-0.1,1.9-1.7,1.9-6.4c0-4.9-0.5-6.1-1.9-6.3v-0.2C58.8,75.2,62.1,77.4,62.1,81.6z"/>
	<path class="st2" d="M69.7,86.5c0,0.6,0.4,1.3,1.9,1.3v0.2h-7.9v-0.2c1.5,0,1.9-0.6,1.9-1.3v-8.9c0-0.9-0.4-1.3-1.8-1.3v-0.2
		c2.3,0,4.2-0.2,6-1V86.5z M78,78.7v7.8c0,0.6,0.3,1.3,1.8,1.3v0.2H72v-0.2c1.5,0,1.9-0.6,1.9-1.3v-7.8c0-1.4-0.5-2.1-1.7-2.1
		c-0.7,0-1.3,0.4-1.6,0.8v-0.1c0.6-1,1.8-2,3.6-2C76.5,75.2,78,76.2,78,78.7z M86.3,78.7v7.8c0,0.6,0.4,1.3,1.9,1.3v0.2h-7.9v-0.2
		c1.5,0,1.9-0.6,1.9-1.3v-7.8c0-1.4-0.5-2.1-1.7-2.1c-0.7,0-1.3,0.4-1.6,0.8v-0.1c0.6-1,1.8-2,3.6-2C84.8,75.2,86.3,76.2,86.3,78.7z
		"/>
</g>
<g class="st1">
	<path class="st2" d="M21.2,98.9l0.2,0.3l0.2,10.5c0,1.1,0.8,2.1,2.4,2.1v0.2h-5.5v-0.2c1.6,0,2.4-1,2.4-2.1L21.2,98.9z M34.5,111.9
		h-2.8L21.2,96.3c-0.6-1-1.4-1.3-2.6-1.3v-0.2h6.7l9.2,13.8V111.9z M34.4,106.2l-0.2-0.3l-0.3-8.7c0-1.1-0.8-2.1-2.4-2.1v-0.2H37
		v0.2c-1.6,0-2.4,1-2.4,2.1L34.4,106.2z"/>
	<path class="st2" d="M48.1,94.9h4.8l-9.9,17h-4.7L48.1,94.9z M39,94.9h7.5l-0.1,0.2c-3.7,0.2-6.6,2.7-7.3,5.9H39V94.9z M44.7,111.8
		c3.7-0.3,6.8-2.7,7.8-6.7h0.2v6.8h-8.1L44.7,111.8z"/>
</g>
<g class="st1">
	<path class="st2" d="M59.9,95.7c0,1.5-1.5,3.4-4,4.4l-0.1-0.2c0.7-0.6,1.4-1.5,1.4-2.4c0-1.1-0.8-1.6-1.7-1.6
		c0.2-1.5,1.1-2.3,2.4-2.3C58.9,93.5,59.9,94.3,59.9,95.7z"/>
</g>
<g class="st1">
	<path class="st2" d="M65,108.9c-0.8,0-1.4,0.5-1.4,1.2c0,0.7,0.5,1.6,2.2,1.8v0.2c-3.3-0.1-5.1-1-5.1-2.5c0-1.1,1-1.8,2.1-1.8
		C63.8,107.8,64.6,108.3,65,108.9z M65.8,99.3C64.9,99.5,64,100,64,101c0.1,2.9,8.2,3.4,8.2,7.3c0,2.4-2,3.7-5.3,3.8V112
		c1-0.2,2.2-0.5,2.2-1.8c0-2.6-8.2-3.5-8.2-7.3c0-2.2,2.1-3.5,4.9-3.6V99.3z M71.7,101.7c0,0.8-0.6,1.5-1.8,1.5
		c-1,0-1.8-0.5-2.1-1.2c0.8-0.1,1.1-0.6,1.1-1.2c0-0.8-1-1.5-1.9-1.6v-0.2C69.8,99.3,71.7,100.3,71.7,101.7z"/>
	<path class="st2" d="M80.1,94.5c2.3,0,4.2-0.2,6-1v16.9c0,0.6,0.4,1.3,1.9,1.3v0.2h-7.9v-0.2c1.5,0,1.9-0.6,1.9-1.3V96
		c0-0.9-0.4-1.3-1.8-1.3V94.5z"/>
	<path class="st2" d="M89.4,105.6c0-4.2,3.2-6.4,6.1-6.4v0.2c-1.5,0.2-1.9,1.4-1.9,6.2c0,3.6,1.6,5.6,3.8,5.6c1.4,0,2.5-0.4,3.6-1.3
		v0.1c-1.3,1.7-3.7,2.2-5.3,2.2C92.7,112.2,89.4,109.8,89.4,105.6z M95.1,104.6c2.2,0,3.1-0.7,3.1-2.8c0-1.2-0.5-2.3-1.6-2.4v-0.2
		c3.3,0,4.9,2.3,4.9,4.2c0,0.4,0,0.9-0.1,1.3h-6.3V104.6z"/>
	<path class="st2" d="M103.3,109c0-2.2,2-3.4,4.8-3.4h2.7v0.2H110c-1.8,0-2.6,1.2-2.6,2.7c0,1.4,0.4,2.4,1.6,2.4
		c0.7,0,1.3-0.4,1.8-0.9v0.2c-0.8,0.9-2.1,2-4,2C104.7,112.2,103.2,111,103.3,109z M104.3,101.9c0-1.3,1.1-2.6,4.5-2.7v0.2
		c-1,0.1-1.6,0.9-1.6,1.8c0,0.9,0.6,1.5,1.6,1.5c-0.4,0.7-1.4,1.2-2.4,1.2C105.1,103.9,104.3,102.9,104.3,101.9z M111.5,109.3v-7.6
		c0-1.2-0.5-2.2-1.7-2.4v-0.2c4.1,0.2,5.8,1.7,5.8,5v6.1c0,0.7,0.2,1,0.7,1c0.4,0,0.8-0.4,1.2-1.1h0.1c-0.4,1.4-1.7,2-3.2,2
		C112.4,112.2,111.5,111.5,111.5,109.3z"/>
	<path class="st2" d="M127.8,101.2v0.2c-0.6-0.6-1.3-0.9-2.1-0.9c-1.2,0-2.4,0.6-2.4,5.1c0,4.5,1.3,5.3,2.4,5.3
		c0.8,0,1.4-0.4,2.1-0.9v0.2c-0.6,1-2.2,2-3.6,2c-2.4,0-5.1-1.4-5.1-6.6c0-5,2.7-6.4,5.1-6.4C125.6,99.2,127.1,100.1,127.8,101.2z
		 M132.6,110.2c0,0.7,0.2,1,0.7,1c0.4,0,0.8-0.4,1.2-1.1h0.1c-0.4,1.4-1.7,2-3.2,2c-2,0-2.9-0.7-2.9-2.8V96c0-0.9-0.4-1.3-1.8-1.3
		v-0.1c2.3,0,3.9-0.2,6-1V110.2z"/>
	<path class="st2" d="M135.7,100.1c2.3,0,4.2-0.2,6-1v11.3c0,0.6,0.4,1.3,1.9,1.3v0.2h-7.9v-0.2c1.5,0,1.9-0.6,1.9-1.3v-8.9
		c0-0.9-0.4-1.3-1.8-1.3V100.1z M137,95.4c0-1.3,1-2.2,2.5-2.2c1.5,0,2.5,0.9,2.5,2.2c0,1.3-1,2.2-2.5,2.2
		C138,97.6,137,96.7,137,95.4z"/>
	<path class="st2" d="M144.6,111.8c1.5,0,1.9-0.6,1.9-1.3v-8.9c0-0.9-0.4-1.3-1.8-1.3v-0.2c2.3,0,4.2-0.2,6-1v11.3
		c0,0.6,0.4,1.3,1.9,1.3v0.2h-7.9V111.8z M153.4,111.8c1.5,0,1.8-0.6,1.8-1.3v-7.8c0-1.4-0.7-2.1-2-2.1c-0.7,0-1.3,0.2-1.9,0.8v-0.2
		c0.7-1,2.3-2,4.1-2c2.2,0,3.8,1,3.8,3.5v7.8c0,0.6,0.4,1.3,1.9,1.3v0.2h-7.8V111.8z"/>
	<path class="st2" d="M162.7,103.7c0-3.2,3-4.5,5.6-4.5v0.2c-1.1,0.1-1.6,1.4-1.6,4.3c0,3,0.5,4.2,1.6,4.3v0.2
		C165.8,108.1,162.7,106.9,162.7,103.7z M169.4,118c2.5-0.3,3.3-1.6,3.3-2.5c0-3.5-9.7-0.4-9.7-4.8c0-1,0.5-1.8,1.7-2.5l0.1,0.1
		c-0.1,0.1-0.2,0.3-0.2,0.5c0,2.8,11.4-0.5,11.4,5c0,2.6-2.2,4.2-6.5,4.5V118z M162.9,115.9c0-1.5,1.8-1.9,3.8-1.9
		c-0.5,0.2-1.1,0.9-1.1,1.8c0,1.2,1.3,2,2.7,2.2v0.1C165.7,118.1,162.9,117.6,162.9,115.9z M169.4,108c1.2-0.1,1.7-1.3,1.7-4.3
		c0-2.9-0.5-4.2-1.7-4.3v-0.2c2.6,0,5.7,1.3,5.7,4.5c0,3.2-3.1,4.4-5.7,4.4V108z M170.7,98.7c0.4-1.3,1.6-3,3.3-3
		c1.3,0,2.1,0.7,2.1,1.9c0,1.2-1.1,2-2,2c0-1-0.5-1.7-1.3-1.7c-0.8,0-1.6,0.5-1.9,0.9L170.7,98.7z"/>
</g>
<g class="st1">
	<path class="st2" d="M34.3,122.7l-5.6,13.2h-0.4l-7.1-15.6c-0.4-0.8-1.4-1.3-2.6-1.3v-0.2h6.7l5.2,11.3l3.8-8V122.7z M24.1,135.8
		v0.2h-5.5v-0.2c1.6,0,2.4-1,2.4-2.1l0.2-10.8l0.2,0.5l0.2,10.3C21.6,134.7,22.4,135.8,24.1,135.8z M39.6,120.3v14.1
		c0,0.7,0.4,1.3,1.9,1.3v0.2h-8v-0.2c1.5,0,1.9-0.6,1.9-1.3v-15.6h6.1v0.2C40,119.1,39.6,119.7,39.6,120.3z"/>
</g>
<g class="st1">
	<path class="st2" d="M58.7,132.9l0.1,0.2c-1.3,2.1-3.6,3-6,3c-4.1,0-9.1-2.9-9.1-8.7c0-6.3,4.9-8.7,8.5-8.8v0.2
		c-1.7,0.4-3.6,2-3.6,8.4c0,6.4,2.6,7.9,5.4,7.9C56.2,135.2,57.8,134,58.7,132.9z M58.9,118.7v6.1h-0.2c-1-3.3-2.8-5.2-5.3-5.9v-0.2
		c2.2,0.1,3.5,0.5,4.5,1.2l0.8-1.2H58.9z"/>
	<path class="st2" d="M71.8,132.9c-0.8,0-1.4,0.5-1.4,1.2c0,0.7,0.5,1.6,2.2,1.8v0.2c-3.3-0.1-5.1-1-5.1-2.5c0-1.1,1-1.8,2.1-1.8
		C70.6,131.8,71.4,132.3,71.8,132.9z M72.6,123.3c-0.9,0.2-1.8,0.6-1.8,1.7c0.1,2.9,8.2,3.4,8.2,7.3c0,2.4-2,3.7-5.3,3.8V136
		c1-0.2,2.2-0.5,2.2-1.8c0-2.6-8.2-3.5-8.2-7.3c0-2.2,2.1-3.5,4.9-3.6V123.3z M78.5,125.7c0,0.8-0.6,1.5-1.8,1.5
		c-1,0-1.8-0.5-2.1-1.2c0.8-0.1,1.1-0.6,1.1-1.2c0-0.8-1-1.5-1.9-1.6v-0.2C76.5,123.3,78.5,124.3,78.5,125.7z"/>
	<path class="st2" d="M86.4,139.7c0,0.9,0.4,1.3,1.8,1.3v0.1c-2.3,0-3.9,0.2-6,1v-16.6c0-0.9-0.4-1.3-1.8-1.3v-0.1
		c2.3,0,3.9-0.2,6-1V139.7z M95.9,129.5c0,5.2-2.7,6.6-5.1,6.6c-1.4,0-3-1-3.6-2V134c0.6,0.5,1.3,0.9,2.1,0.9c1.2,0,2.4-0.8,2.4-5.3
		c0-4.5-1.2-5.1-2.4-5.1c-0.8,0-1.5,0.3-2.1,0.9v-0.2c0.6-1,2.2-2,3.6-2C93.2,123.2,95.9,124.6,95.9,129.5z"/>
	<path class="st2" d="M98.1,129.6c0-4.2,3.2-6.4,6.1-6.4v0.2c-1.5,0.2-1.9,1.4-1.9,6.2c0,3.6,1.6,5.6,3.8,5.6c1.4,0,2.5-0.4,3.6-1.3
		v0.1c-1.3,1.7-3.7,2.2-5.3,2.2C101.3,136.2,98.1,133.8,98.1,129.6z M103.7,128.6c2.2,0,3.1-0.7,3.1-2.8c0-1.2-0.5-2.3-1.6-2.4v-0.2
		c3.3,0,4.9,2.3,4.9,4.2c0,0.4,0,0.9-0.1,1.3h-6.3V128.6z"/>
	<path class="st2" d="M118.6,123.3c-1.5,0.2-2.1,1.4-2.1,6.2c0,3.6,1.8,5.6,4,5.6c1.4,0,2.5-0.4,3.6-1.3v0.1
		c-1.3,1.7-3.7,2.2-5.3,2.2c-3.2,0-6.7-2.3-6.7-6.5c0-4.2,3.5-6.4,6.4-6.4V123.3z M124.1,126c0,1.3-0.9,2.4-2.5,2.4
		c-1.2,0-2-0.8-2.2-1.6c0.7-0.3,1.2-1.2,1.2-1.8c0-0.6-0.1-1.5-1.1-1.7v-0.2C122.9,123.2,124.1,124.6,124.1,126z"/>
	<path class="st2" d="M125.6,124.1c2.3,0,4.2-0.2,6-1v11.3c0,0.6,0.4,1.3,1.9,1.3v0.2h-7.9v-0.2c1.5,0,1.9-0.6,1.9-1.3v-8.9
		c0-0.9-0.4-1.3-1.8-1.3V124.1z M126.9,119.4c0-1.3,1-2.2,2.5-2.2c1.5,0,2.5,0.9,2.5,2.2c0,1.3-1,2.2-2.5,2.2
		C127.9,121.6,126.9,120.7,126.9,119.4z"/>
	<path class="st2" d="M134.7,133c0-2.2,2-3.4,4.8-3.4h2.7v0.2h-0.7c-1.8,0-2.6,1.2-2.6,2.7c0,1.4,0.4,2.4,1.6,2.4
		c0.7,0,1.3-0.4,1.8-0.9v0.2c-0.8,0.9-2.1,2-4,2C136.1,136.2,134.7,135,134.7,133z M135.7,125.9c0-1.3,1.1-2.6,4.5-2.7v0.2
		c-1,0.1-1.6,0.9-1.6,1.8c0,0.9,0.6,1.5,1.6,1.5c-0.4,0.7-1.4,1.2-2.4,1.2C136.5,127.9,135.7,126.9,135.7,125.9z M143,133.3v-7.6
		c0-1.2-0.5-2.2-1.7-2.4v-0.2c4.1,0.2,5.8,1.7,5.8,5v6.1c0,0.7,0.2,1,0.7,1c0.4,0,0.8-0.4,1.2-1.1h0.1c-0.4,1.4-1.7,2-3.2,2
		C143.9,136.2,143,135.5,143,133.3z"/>
	<path class="st2" d="M149.8,118.5c2.3,0,4.2-0.2,6-1v16.9c0,0.6,0.4,1.3,1.9,1.3v0.2h-7.9v-0.2c1.5,0,1.9-0.6,1.9-1.3V120
		c0-0.9-0.4-1.3-1.8-1.3V118.5z"/>
	<path class="st2" d="M158.7,124.1c2.3,0,4.2-0.2,6-1v11.3c0,0.6,0.4,1.3,1.9,1.3v0.2h-7.9v-0.2c1.5,0,1.9-0.6,1.9-1.3v-8.9
		c0-0.9-0.4-1.3-1.8-1.3V124.1z M160,119.4c0-1.3,1-2.2,2.5-2.2c1.5,0,2.5,0.9,2.5,2.2c0,1.3-1,2.2-2.5,2.2
		C161,121.6,160,120.7,160,119.4z"/>
	<path class="st2" d="M172.4,132.9c-0.8,0-1.4,0.5-1.4,1.2c0,0.7,0.5,1.6,2.2,1.8v0.2c-3.3-0.1-5.1-1-5.1-2.5c0-1.1,1-1.8,2.1-1.8
		C171.2,131.8,172,132.3,172.4,132.9z M173.2,123.3c-0.9,0.2-1.8,0.6-1.8,1.7c0.1,2.9,8.2,3.4,8.2,7.3c0,2.4-2,3.7-5.3,3.8V136
		c1-0.2,2.2-0.5,2.2-1.8c0-2.6-8.2-3.5-8.2-7.3c0-2.2,2.1-3.5,4.9-3.6V123.3z M179.1,125.7c0,0.8-0.6,1.5-1.8,1.5
		c-1,0-1.8-0.5-2.1-1.2c0.8-0.1,1.2-0.6,1.1-1.2c0-0.8-1-1.5-1.9-1.6v-0.2C177.2,123.3,179.1,124.3,179.1,125.7z"/>
	<path class="st2" d="M191,134v0.2c-0.8,1.1-2.4,2-4.3,2c-2.2,0-3.8-1-3.8-3.5v-8.2h-1.3l0.3-0.4h1v-2.7c1.5,0,3-0.5,4.1-1.4v4.1
		h3.4l-0.3,0.4h-3.1v8.3c0,1.2,0.5,2.5,1.6,2.5C189.3,135.3,190.1,134.8,191,134z"/>
</g>
</svg>
