<svg id="Layer_1" data-name="Layer 1" xmlns="http://www.w3.org/2000/svg" viewBox="0 0 300 150"><defs><style>.cls-1{fill:#fff;}</style></defs><title>Artboard 1 copy 4</title><path class="cls-1" d="M19.15,61v.15c-1.8.23-3,2-3,8.45s1.25,8.52,3,8.75v.15a8.35,8.35,0,0,1-7.95-8.75A8.66,8.66,0,0,1,19.15,61Zm1.22.15V61a10.54,10.54,0,0,1,5.13,1.18L26.27,61h.2v6.08h-.2A7.7,7.7,0,0,0,20.37,61.15Zm8.48,9.93v.15c-1.18,0-1.85.45-1.85,1.47v5.8h-.2L25.9,77a9.84,9.84,0,0,1-5.5,1.5v-.15c1.7-.13,2.67-1,2.67-3V72.7c0-1-.45-1.47-1.87-1.47v-.15Z"/><path class="cls-1" d="M30.37,72A6.19,6.19,0,0,1,36.5,65.5v.15c-1.48.18-1.88,1.43-1.88,6.2,0,3.6,1.6,5.57,3.83,5.57A5.43,5.43,0,0,0,42.1,76.1v.15a7,7,0,0,1-5.3,2.25A6.34,6.34,0,0,1,30.37,72Zm5.63-1c2.2,0,3.12-.7,3.12-2.8,0-1.2-.5-2.3-1.62-2.45V65.5c3.3,0,4.9,2.35,4.9,4.25a6.9,6.9,0,0,1-.13,1.3H36Z"/><path class="cls-1" d="M53.7,76.32v.16a5.26,5.26,0,0,1-4.28,2c-2.25,0-3.85-1-3.85-3.52v-8.2h-1.3l.28-.38h1V63.7a6.27,6.27,0,0,0,4.1-1.4v4.1h3.38l-.28.38h-3.1v8.27c0,1.25.48,2.55,1.65,2.55A3.69,3.69,0,0,0,53.7,76.32Z"/><path class="cls-1" d="M60.85,75.3c0-2.17,2-3.4,4.8-3.4h2.7v.15H67.6A2.48,2.48,0,0,0,65,74.78c0,1.37.4,2.42,1.57,2.42a2.76,2.76,0,0,0,1.83-.88v.16a5.36,5.36,0,0,1-4,2C62.25,78.5,60.82,77.3,60.85,75.3Zm1-7.07c0-1.28,1.15-2.58,4.55-2.73v.15a1.83,1.83,0,0,0-1.6,1.83c0,.9.62,1.45,1.62,1.52A2.8,2.8,0,0,1,64,70.2,2,2,0,0,1,61.85,68.23Zm7.25,7.45V68c0-1.23-.48-2.2-1.7-2.38V65.5c4.15.15,5.8,1.73,5.8,5v6.07c0,.73.25,1,.7,1s.8-.37,1.2-1.12h.15a3.12,3.12,0,0,1-3.25,2C70,78.5,69.1,77.8,69.1,75.68Z"/><path class="cls-1" d="M89.2,78.35v.15a9.55,9.55,0,0,1-4.85-1.22l-.83,1.22h-.2V72.4h.2A8.39,8.39,0,0,0,89.2,78.35Zm7.35-5c0,3.22-2.4,5-6.28,5.12v-.15c1.38-.25,2.73-1,2.73-2.55C93,71.43,83.45,71,83.45,66c0-3,2.42-4.72,5.75-5v.15a2.37,2.37,0,0,0-2.2,2.3C87,67.83,96.55,68.3,96.55,73.38ZM90.27,61.15V61a8.05,8.05,0,0,1,4.5,1.33l.9-1.33h.2v5.58h-.2A8,8,0,0,0,90.27,61.15Z"/><path class="cls-1" d="M108,76.32v.16a5.26,5.26,0,0,1-4.28,2c-2.25,0-3.85-1-3.85-3.52v-8.2h-1.3l.28-.38h1V63.7a6.27,6.27,0,0,0,4.1-1.4v4.1h3.38l-.28.38h-3.1v8.27c0,1.25.48,2.55,1.65,2.55A3.69,3.69,0,0,0,108,76.32Z"/><path class="cls-1" d="M108.75,75.3c0-2.17,2-3.4,4.8-3.4h2.7v.15h-.75a2.48,2.48,0,0,0-2.65,2.73c0,1.37.4,2.42,1.57,2.42a2.76,2.76,0,0,0,1.83-.88v.16a5.36,5.36,0,0,1-4,2C110.15,78.5,108.72,77.3,108.75,75.3Zm1-7.07c0-1.28,1.15-2.58,4.55-2.73v.15a1.83,1.83,0,0,0-1.6,1.83c0,.9.62,1.45,1.62,1.52a2.8,2.8,0,0,1-2.4,1.2A2,2,0,0,1,109.75,68.23ZM117,75.68V68c0-1.23-.48-2.2-1.7-2.38V65.5c4.15.15,5.8,1.73,5.8,5v6.07c0,.73.25,1,.69,1s.8-.37,1.2-1.12h.15a3.12,3.12,0,0,1-3.24,2C117.9,78.5,117,77.8,117,75.68Z"/><path class="cls-1" d="M129.92,76.82c0,.63.38,1.28,1.88,1.28v.15h-7.88V78.1c1.5,0,1.88-.65,1.88-1.28V68c0-.9-.43-1.32-1.85-1.32v-.15a15.18,15.18,0,0,0,6-1Zm6.75-8.62a2.67,2.67,0,0,1-2.57,2.85,1.71,1.71,0,0,1-1.43-.55,1.82,1.82,0,0,0,1-1.7,1.33,1.33,0,0,0-1.4-1.35,1.72,1.72,0,0,0-1.5,1v-.2A3.46,3.46,0,0,1,134,65.5,2.54,2.54,0,0,1,136.67,68.2Z"/><path class="cls-1" d="M26.27,102.28l.1.2a6.87,6.87,0,0,1-6,3c-4.08,0-9.15-2.9-9.15-8.72,0-6.33,4.95-8.68,8.55-8.78v.15c-1.75.38-3.65,2-3.65,8.45s2.57,7.9,5.4,7.9A6.13,6.13,0,0,0,26.27,102.28ZM26.47,88v6.08h-.2c-1-3.33-2.82-5.25-5.27-5.93V88a8.63,8.63,0,0,1,4.52,1.15L26.27,88Z"/><path class="cls-1" d="M28.37,102.3c0-2.17,2-3.4,4.8-3.4h2.7v.15h-.75a2.48,2.48,0,0,0-2.65,2.73c0,1.37.4,2.42,1.58,2.42a2.74,2.74,0,0,0,1.82-.88v.16a5.34,5.34,0,0,1-4,2C29.77,105.5,28.35,104.3,28.37,102.3Zm1-7.07c0-1.28,1.15-2.58,4.55-2.73v.15a1.83,1.83,0,0,0-1.6,1.83c0,.9.63,1.45,1.63,1.52a2.82,2.82,0,0,1-2.4,1.2A2,2,0,0,1,29.37,95.23Zm7.25,7.45V95c0-1.23-.47-2.2-1.7-2.38V92.5c4.15.15,5.8,1.73,5.8,5v6.07c0,.73.25,1,.7,1s.8-.37,1.2-1.12h.15a3.12,3.12,0,0,1-3.25,2C37.52,105.5,36.62,104.8,36.62,102.68Z"/><path class="cls-1" d="M49.55,103.82c0,.63.37,1.28,1.87,1.28v.15H43.55v-.15c1.5,0,1.87-.65,1.87-1.28V95c0-.9-.42-1.32-1.85-1.32v-.15a15.23,15.23,0,0,0,6-1ZM57.85,96v7.79c0,.63.35,1.28,1.85,1.28v.15H51.85v-.15c1.47,0,1.87-.65,1.87-1.28V96c0-1.4-.55-2.13-1.75-2.13a2.2,2.2,0,0,0-1.65.75V94.5a4.06,4.06,0,0,1,3.65-2C56.35,92.5,57.85,93.55,57.85,96Zm8.27,0v7.79c0,.63.37,1.28,1.87,1.28v.15H60.12v-.15c1.47,0,1.87-.65,1.87-1.28V96c0-1.4-.55-2.13-1.75-2.13a2.18,2.18,0,0,0-1.64.75V94.5a4,4,0,0,1,3.64-2C64.62,92.5,66.12,93.55,66.12,96Z"/><path class="cls-1" d="M74.67,109.05c0,.9.43,1.32,1.85,1.32v.15a16.28,16.28,0,0,0-6,1V94.93c0-.9-.43-1.33-1.85-1.33v-.15a16.48,16.48,0,0,0,6-1ZM84.2,98.88c0,5.22-2.75,6.62-5.13,6.62a4.7,4.7,0,0,1-3.65-2v-.16a3.49,3.49,0,0,0,2.1.88c1.18,0,2.43-.83,2.43-5.32s-1.18-5.1-2.43-5.1a2.84,2.84,0,0,0-2.1.92v-.2a4.68,4.68,0,0,1,3.65-2C81.5,92.5,84.2,93.9,84.2,98.88Z"/><path class="cls-1" d="M86.4,99a6.19,6.19,0,0,1,6.12-6.45v.15c-1.47.18-1.87,1.43-1.87,6.2,0,3.6,1.6,5.57,3.82,5.57a5.39,5.39,0,0,0,3.65-1.32v.15a7,7,0,0,1-5.3,2.25A6.33,6.33,0,0,1,86.4,99Zm5.62-1c2.2,0,3.13-.7,3.13-2.8,0-1.2-.5-2.3-1.63-2.45V92.5c3.3,0,4.9,2.35,4.9,4.25a7.85,7.85,0,0,1-.12,1.3H92Z"/><path class="cls-1" d="M106,103.82c0,.63.38,1.28,1.88,1.28v.15H100v-.15c1.5,0,1.88-.65,1.88-1.28V95c0-.9-.43-1.32-1.85-1.32v-.15a15.18,15.18,0,0,0,6-1Zm6.75-8.62a2.67,2.67,0,0,1-2.57,2.85,1.71,1.71,0,0,1-1.43-.55,1.82,1.82,0,0,0,1-1.7,1.33,1.33,0,0,0-1.4-1.35,1.72,1.72,0,0,0-1.5,1v-.2a3.46,3.46,0,0,1,3.25-2.7A2.54,2.54,0,0,1,112.77,95.2Z"/><path class="cls-1" d="M129.49,102.28l.1.2a6.86,6.86,0,0,1-6,3c-4.07,0-9.15-2.9-9.15-8.72,0-6.33,5-8.68,8.55-8.78v.15c-1.75.38-3.65,2-3.65,8.45s2.58,7.9,5.4,7.9A6.13,6.13,0,0,0,129.49,102.28Zm.2-14.28v6.08h-.2c-1-3.33-2.82-5.25-5.27-5.93V88a8.6,8.6,0,0,1,4.52,1.15l.75-1.15Z"/><path class="cls-1" d="M131.6,102.3c0-2.17,2-3.4,4.8-3.4h2.7v.15h-.75a2.48,2.48,0,0,0-2.65,2.73c0,1.37.4,2.42,1.57,2.42a2.76,2.76,0,0,0,1.83-.88v.16a5.36,5.36,0,0,1-4,2C133,105.5,131.57,104.3,131.6,102.3Zm1-7.07c0-1.28,1.15-2.58,4.55-2.73v.15a1.83,1.83,0,0,0-1.6,1.83c0,.9.62,1.45,1.62,1.52a2.8,2.8,0,0,1-2.4,1.2A2,2,0,0,1,132.6,95.23Zm7.25,7.45V95c0-1.23-.48-2.2-1.7-2.38V92.5c4.15.15,5.8,1.73,5.8,5v6.07c0,.73.24,1,.69,1s.8-.37,1.2-1.12H146a3.12,3.12,0,0,1-3.24,2C140.75,105.5,139.85,104.8,139.85,102.68Z"/><path class="cls-1" d="M152.77,103.82c0,.63.38,1.28,1.88,1.28v.15h-7.88v-.15c1.5,0,1.88-.65,1.88-1.28V95c0-.9-.43-1.32-1.85-1.32v-.15a15.18,15.18,0,0,0,6-1Zm6.75-8.62A2.67,2.67,0,0,1,157,98.05a1.71,1.71,0,0,1-1.43-.55,1.81,1.81,0,0,0,1-1.7,1.32,1.32,0,0,0-1.39-1.35,1.72,1.72,0,0,0-1.5,1v-.2a3.46,3.46,0,0,1,3.25-2.7A2.54,2.54,0,0,1,159.52,95.2Z"/><path class="cls-1" d="M160.87,99A6.19,6.19,0,0,1,167,92.5v.15c-1.48.18-1.88,1.43-1.88,6.2,0,3.6,1.6,5.57,3.83,5.57a5.39,5.39,0,0,0,3.64-1.32v.15a7,7,0,0,1-5.29,2.25A6.34,6.34,0,0,1,160.87,99Zm5.63-1c2.2,0,3.12-.7,3.12-2.8,0-1.2-.5-2.3-1.62-2.45V92.5c3.29,0,4.89,2.35,4.89,4.25a7.85,7.85,0,0,1-.12,1.3H166.5Z"/><path class="cls-1" d="M19.92,121.5v.2a2.81,2.81,0,0,0-2.1-.92c-1.25,0-2.42.57-2.42,5.1s1.25,5.32,2.42,5.32a3.47,3.47,0,0,0,2.1-.88v.16a4.67,4.67,0,0,1-3.65,2c-2.37,0-5.12-1.4-5.12-6.62,0-5,2.7-6.38,5.12-6.38A4.65,4.65,0,0,1,19.92,121.5Zm4.88,14.55c0,.9.42,1.32,1.85,1.32v.15a16.3,16.3,0,0,0-6,1V120.43a16.27,16.27,0,0,0,4.13-1Z"/><path class="cls-1" d="M33.17,129c0,1.39.48,2.12,1.73,2.12a2.19,2.19,0,0,0,1.72-.78v.16a4.16,4.16,0,0,1-3.87,2c-2.25,0-3.7-1.05-3.7-3.52v-7c0-.9-.43-1.32-1.85-1.32v-.15a15.18,15.18,0,0,0,6-1Zm8.33,1.59c0,.73.22,1,.67,1s.8-.37,1.2-1.12h.15c-.4,1.37-1.75,2-3.4,2s-2.75-1-2.75-2.45V122c0-.9-.42-1.32-1.77-1.32v-.15a16.15,16.15,0,0,0,5.9-1Z"/><path class="cls-1" d="M51.2,119.65c-1.48.18-2,1.43-2,6.3,0,4.7.5,6.25,2,6.4v.15A6.37,6.37,0,0,1,45,126a6.27,6.27,0,0,1,6.23-6.45Zm7.2,6.3a6.37,6.37,0,0,1-6.2,6.55v-.15c1.47-.15,1.95-1.73,1.95-6.4,0-4.9-.5-6.15-1.95-6.3v-.15A6.23,6.23,0,0,1,58.4,126Z"/><path class="cls-1" d="M69.75,130.32v.16a5.26,5.26,0,0,1-4.28,2c-2.25,0-3.85-1-3.85-3.52v-8.2h-1.3l.28-.38h1v-2.7a6.27,6.27,0,0,0,4.1-1.4v4.1H69.1l-.28.38h-3.1v8.27c0,1.25.48,2.55,1.65,2.55A3.69,3.69,0,0,0,69.75,130.32Z"/><path class="cls-1" d="M70.67,126a6.19,6.19,0,0,1,6.13-6.45v.15c-1.48.18-1.88,1.43-1.88,6.2,0,3.6,1.6,5.57,3.83,5.57a5.43,5.43,0,0,0,3.65-1.32v.15a7,7,0,0,1-5.3,2.25A6.34,6.34,0,0,1,70.67,126Zm5.63-1c2.2,0,3.12-.7,3.12-2.8,0-1.2-.5-2.3-1.62-2.45v-.15c3.3,0,4.9,2.35,4.9,4.25a6.9,6.9,0,0,1-.13,1.3H76.3Z"/></svg>