<svg id="Layer_1" data-name="Layer 1" xmlns="http://www.w3.org/2000/svg" viewBox="0 0 300 150"><defs><style>.cls-1{fill:#fff;}</style></defs><title>Artboard 1 copy 3</title><path class="cls-1" d="M26.27,102.28l.1.2a6.87,6.87,0,0,1-6,3c-4.08,0-9.15-2.9-9.15-8.72,0-6.33,4.95-8.68,8.55-8.78v.15c-1.75.38-3.65,2-3.65,8.45s2.57,7.9,5.4,7.9A6.13,6.13,0,0,0,26.27,102.28ZM26.47,88v6.08h-.2c-1-3.33-2.82-5.25-5.27-5.93V88a8.63,8.63,0,0,1,4.52,1.15L26.27,88Z"/><path class="cls-1" d="M33.9,102c0,1.4.47,2.12,1.72,2.12a2.23,2.23,0,0,0,1.73-.77v.15a4.18,4.18,0,0,1-3.88,2c-2.25,0-3.7-1-3.7-3.52V95c0-.9-.42-1.32-1.84-1.32v-.15a15.22,15.22,0,0,0,6-1Zm8.32,1.6c0,.72.23,1,.68,1s.8-.37,1.2-1.12h.15c-.4,1.37-1.75,2-3.4,2s-2.75-1-2.75-2.45V95c0-.9-.43-1.32-1.78-1.32v-.15a16.15,16.15,0,0,0,5.9-1Z"/><path class="cls-1" d="M50.05,102.28a1.27,1.27,0,0,0-1.4,1.25c0,.72.5,1.64,2.22,1.82v.15c-3.32-.12-5.15-1-5.15-2.47a2,2,0,0,1,2.13-1.85A2.54,2.54,0,0,1,50.05,102.28Zm.82-9.63c-.92.18-1.82.65-1.8,1.68.08,2.9,8.18,3.37,8.18,7.35,0,2.42-2,3.7-5.28,3.82v-.15c1.05-.18,2.23-.55,2.23-1.85,0-2.6-8.2-3.55-8.2-7.35,0-2.2,2.07-3.52,4.87-3.65Zm5.9,2.43a1.64,1.64,0,0,1-1.85,1.55,2.13,2.13,0,0,1-2.12-1.2,1.11,1.11,0,0,0,1.12-1.18c0-.75-1-1.47-2-1.6V92.5C54.8,92.65,56.77,93.68,56.77,95.08Z"/><path class="cls-1" d="M68.6,103.33v.15a5.26,5.26,0,0,1-4.28,2c-2.25,0-3.85-1-3.85-3.52v-8.2h-1.3l.28-.38h1V90.7a6.27,6.27,0,0,0,4.1-1.4v4.1H68l-.28.38h-3.1v8.27c0,1.25.48,2.55,1.65,2.55A3.72,3.72,0,0,0,68.6,103.33Z"/><path class="cls-1" d="M75.75,92.65c-1.48.18-2,1.43-2,6.3,0,4.7.5,6.25,2,6.4v.15A6.37,6.37,0,0,1,69.52,99a6.27,6.27,0,0,1,6.23-6.45ZM83,99a6.37,6.37,0,0,1-6.2,6.55v-.15c1.47-.15,2-1.73,2-6.4,0-4.9-.5-6.15-2-6.3V92.5A6.23,6.23,0,0,1,83,99Z"/><path class="cls-1" d="M90.6,103.83c0,.62.37,1.27,1.87,1.27v.15H84.6v-.15c1.5,0,1.87-.65,1.87-1.27V95c0-.9-.42-1.32-1.85-1.32v-.15a15.23,15.23,0,0,0,6-1ZM98.9,96v7.8c0,.62.35,1.27,1.85,1.27v.15H92.9v-.15c1.47,0,1.87-.65,1.87-1.27V96c0-1.4-.55-2.13-1.75-2.13a2.2,2.2,0,0,0-1.65.75V94.5a4.06,4.06,0,0,1,3.65-2C97.4,92.5,98.9,93.55,98.9,96Zm8.27,0v7.8c0,.62.37,1.27,1.87,1.27v.15h-7.87v-.15c1.47,0,1.87-.65,1.87-1.27V96c0-1.4-.55-2.13-1.74-2.13a2.19,2.19,0,0,0-1.65.75V94.5a4,4,0,0,1,3.64-2C105.67,92.5,107.17,93.55,107.17,96Z"/><path class="cls-1" d="M110,93.45a15.37,15.37,0,0,0,6-1v11.35c0,.62.38,1.27,1.88,1.27v.15H110v-.15c1.5,0,1.88-.65,1.88-1.27v-8.9c0-.9-.43-1.33-1.85-1.33Zm1.27-4.7a2.58,2.58,0,1,1,2.55,2.2A2.27,2.27,0,0,1,111.27,88.75Z"/><path class="cls-1" d="M123.7,102.28a1.27,1.27,0,0,0-1.4,1.25c0,.72.5,1.64,2.22,1.82v.15c-3.32-.12-5.15-1-5.15-2.47a2,2,0,0,1,2.13-1.85A2.54,2.54,0,0,1,123.7,102.28Zm.82-9.63c-.92.18-1.82.65-1.8,1.68.08,2.9,8.18,3.37,8.18,7.35,0,2.42-2.05,3.7-5.28,3.82v-.15c1-.18,2.23-.55,2.23-1.85,0-2.6-8.2-3.55-8.2-7.35,0-2.2,2.07-3.52,4.87-3.65Zm5.9,2.43a1.64,1.64,0,0,1-1.85,1.55,2.13,2.13,0,0,1-2.12-1.2,1.11,1.11,0,0,0,1.12-1.18c0-.75-.95-1.47-1.95-1.6V92.5C128.45,92.65,130.42,93.68,130.42,95.08Z"/><path class="cls-1" d="M133,99a6.19,6.19,0,0,1,6.12-6.45v.15c-1.47.18-1.87,1.43-1.87,6.2,0,3.6,1.6,5.57,3.82,5.57a5.39,5.39,0,0,0,3.65-1.32v.15a7,7,0,0,1-5.3,2.25A6.33,6.33,0,0,1,133,99Zm5.62-1c2.2,0,3.13-.7,3.13-2.8,0-1.2-.5-2.3-1.63-2.45V92.5c3.3,0,4.9,2.35,4.9,4.25a7.85,7.85,0,0,1-.12,1.3h-6.28Z"/><path class="cls-1" d="M156,94.5v.2a2.78,2.78,0,0,0-2.08-.92c-1.25,0-2.45.57-2.45,5.1s1.28,5.32,2.45,5.32a3.49,3.49,0,0,0,2.08-.87v.15a4.64,4.64,0,0,1-3.63,2c-2.37,0-5.15-1.4-5.15-6.62,0-5,2.73-6.38,5.15-6.38A4.63,4.63,0,0,1,156,94.5Zm4.87,9.08c0,.72.22,1,.67,1s.8-.37,1.2-1.12h.15a3.12,3.12,0,0,1-3.24,2c-2,0-2.9-.7-2.9-2.82V89.33c0-.9-.43-1.33-1.85-1.33v-.15a16.48,16.48,0,0,0,6-1Z"/><path class="cls-1" d="M20.3,130.33v.15a5.26,5.26,0,0,1-4.28,2c-2.25,0-3.85-1-3.85-3.52v-8.2H10.88l.27-.38h1v-2.7a6.27,6.27,0,0,0,4.1-1.4v4.1h3.38l-.28.38h-3.1v8.27c0,1.25.48,2.55,1.65,2.55A3.72,3.72,0,0,0,20.3,130.33Z"/><path class="cls-1" d="M27.45,119.65c-1.48.18-2,1.43-2,6.3,0,4.7.5,6.25,2,6.4v.15A6.37,6.37,0,0,1,21.22,126a6.27,6.27,0,0,1,6.23-6.45Zm7.2,6.3a6.37,6.37,0,0,1-6.2,6.55v-.15c1.47-.15,1.95-1.73,1.95-6.4,0-4.9-.5-6.15-1.95-6.3v-.15A6.23,6.23,0,0,1,34.65,126Z"/><path class="cls-1" d="M42.47,120.78a1.35,1.35,0,0,0-1.37-.88v-.15h7v.15c-.88,0-1.23.6-.8,1.48l3.27,6.82-2.15,4.05h-.15Zm-1.1,15.49a2.63,2.63,0,0,1,2.2-2.35,2.11,2.11,0,0,0-.1.63A1.46,1.46,0,0,0,45,136.22c.87,0,1.57-.92,2.52-2.52h.18c-1.38,2.57-2.33,4.8-4.08,4.8A2.08,2.08,0,0,1,41.37,136.27Zm10.25-10.52a6.77,6.77,0,0,0,.7-3.22,2.41,2.41,0,0,0-2.55-2.63v-.15H56v.15c-.83,0-1.15.33-1.63,1.18l-2.6,4.9Z"/><path class="cls-1" d="M62.35,119.65c-1.48.18-2,1.43-2,6.3,0,4.7.5,6.25,2,6.4v.15A6.37,6.37,0,0,1,56.12,126a6.27,6.27,0,0,1,6.23-6.45Zm7.2,6.3a6.37,6.37,0,0,1-6.2,6.55v-.15c1.47-.15,1.95-1.73,1.95-6.4,0-4.9-.5-6.15-1.95-6.3v-.15A6.23,6.23,0,0,1,69.55,126Z"/><path class="cls-1" d="M76.92,129c0,1.4.48,2.12,1.73,2.12a2.21,2.21,0,0,0,1.72-.77v.15a4.16,4.16,0,0,1-3.87,2c-2.25,0-3.7-1.05-3.7-3.52v-7c0-.9-.43-1.32-1.85-1.32v-.15a15.18,15.18,0,0,0,6-1Zm8.33,1.6c0,.72.22,1,.67,1s.8-.37,1.2-1.12h.15c-.4,1.37-1.75,2-3.4,2s-2.75-1-2.75-2.45V122c0-.9-.42-1.32-1.77-1.32v-.15a16.15,16.15,0,0,0,5.9-1Z"/><path class="cls-1" d="M94.27,130.83c0,.62.38,1.27,1.88,1.27v.15H88.27v-.15c1.5,0,1.88-.65,1.88-1.27V122c0-.9-.43-1.32-1.85-1.32v-.15a15.18,15.18,0,0,0,6-1ZM101,122.2a2.67,2.67,0,0,1-2.57,2.85A1.71,1.71,0,0,1,97,124.5a1.82,1.82,0,0,0,1-1.7,1.33,1.33,0,0,0-1.4-1.35,1.72,1.72,0,0,0-1.5,1v-.2a3.46,3.46,0,0,1,3.25-2.7A2.54,2.54,0,0,1,101,122.2Z"/><path class="cls-1" d="M107.77,132.1c1.5,0,1.88-.65,1.88-1.27V122c0-.9-.43-1.32-1.85-1.32v-.15a15.18,15.18,0,0,0,6-1v11.33c0,.62.38,1.27,1.88,1.27v.15h-7.88Zm8.8,0c1.48,0,1.85-.65,1.85-1.27V123c0-1.4-.72-2.13-2-2.13a2.67,2.67,0,0,0-1.9.78v-.15a5.1,5.1,0,0,1,4.15-2c2.25,0,3.85,1,3.85,3.53v7.8c0,.62.37,1.27,1.87,1.27v.15h-7.85Z"/><path class="cls-1" d="M125.77,126a6.19,6.19,0,0,1,6.13-6.45v.15c-1.48.18-1.88,1.43-1.88,6.2,0,3.6,1.6,5.57,3.83,5.57a5.43,5.43,0,0,0,3.65-1.32v.15a7,7,0,0,1-5.3,2.25A6.34,6.34,0,0,1,125.77,126Zm5.63-1c2.2,0,3.12-.7,3.12-2.8,0-1.2-.5-2.3-1.62-2.45v-.15c3.3,0,4.9,2.35,4.9,4.25a6.9,6.9,0,0,1-.13,1.3H131.4Z"/><path class="cls-1" d="M139.85,126A6.19,6.19,0,0,1,146,119.5v.15c-1.47.18-1.87,1.43-1.87,6.2,0,3.6,1.6,5.57,3.82,5.57a5.39,5.39,0,0,0,3.65-1.32v.15a7,7,0,0,1-5.3,2.25A6.33,6.33,0,0,1,139.85,126Zm5.62-1c2.2,0,3.13-.7,3.13-2.8,0-1.2-.5-2.3-1.63-2.45v-.15c3.3,0,4.9,2.35,4.9,4.25a7.85,7.85,0,0,1-.12,1.3h-6.28Z"/><path class="cls-1" d="M162.8,121.5v.2a2.78,2.78,0,0,0-2.08-.92c-1.25,0-2.45.57-2.45,5.1s1.28,5.32,2.45,5.32a3.49,3.49,0,0,0,2.08-.87v.15a4.64,4.64,0,0,1-3.63,2c-2.37,0-5.15-1.4-5.15-6.62,0-5,2.73-6.38,5.15-6.38A4.63,4.63,0,0,1,162.8,121.5Zm4.87,9.08c0,.72.23,1,.68,1s.79-.37,1.19-1.12h.15a3.11,3.11,0,0,1-3.24,2c-2,0-2.9-.7-2.9-2.82V116.33c0-.9-.43-1.33-1.85-1.33v-.15a16.48,16.48,0,0,0,6-1Z"/><path class="cls-1" d="M175.5,129.28a1.27,1.27,0,0,0-1.4,1.25c0,.72.5,1.64,2.22,1.82v.15c-3.32-.12-5.15-1-5.15-2.47a2,2,0,0,1,2.13-1.85A2.54,2.54,0,0,1,175.5,129.28Zm.82-9.63c-.92.18-1.82.65-1.8,1.68.08,2.9,8.18,3.37,8.18,7.35,0,2.42-2,3.7-5.28,3.82v-.15c1.05-.18,2.23-.55,2.23-1.85,0-2.6-8.2-3.55-8.2-7.35,0-2.2,2.07-3.52,4.87-3.65Zm5.9,2.43a1.64,1.64,0,0,1-1.85,1.55,2.13,2.13,0,0,1-2.12-1.2,1.11,1.11,0,0,0,1.12-1.18c0-.75-1-1.47-2-1.6v-.15C180.25,119.65,182.22,120.68,182.22,122.08Z"/></svg>