<?xml version="1.0" encoding="utf-8"?>
<!-- Generator: Adobe Illustrator 24.0.3, SVG Export Plug-In . SVG Version: 6.00 Build 0)  -->
<svg version="1.1" id="Layer_1" xmlns="http://www.w3.org/2000/svg" xmlns:xlink="http://www.w3.org/1999/xlink" x="0px" y="0px"
	 viewBox="0 0 300 150" style="enable-background:new 0 0 300 150;" xml:space="preserve">
<style type="text/css">
	.st0{enable-background:new    ;}
	.st1{fill:#FFFFFF;}
</style>
<title>Artboard 1 copy 4</title>
<g class="st0">
	<path class="st1" d="M18.8,56.7v0.2c-1.8,0.2-3,2-3,8.4c0,6.4,1.2,8.5,3,8.7v0.2c-3.6-0.2-7.9-2.9-7.9-8.7
		C10.8,59.8,15.4,56.9,18.8,56.7z M20,56.8v-0.2c2.6,0.1,4,0.5,5.1,1.2l0.8-1.2h0.2v6.1h-0.2C25.2,59.8,23,57.4,20,56.8z M28.5,66.7
		v0.1c-1.2,0-1.8,0.5-1.8,1.5v5.8h-0.2l-0.9-1.5c-1.2,0.9-3,1.4-5.5,1.5V74c1.7-0.1,2.7-1,2.7-3v-2.6c0-1-0.4-1.5-1.9-1.5v-0.1H28.5
		z"/>
	<path class="st1" d="M30,67.6c0-4.2,3.2-6.4,6.1-6.4v0.2c-1.5,0.2-1.9,1.4-1.9,6.2c0,3.6,1.6,5.6,3.8,5.6c1.4,0,2.5-0.4,3.6-1.3
		v0.1c-1.3,1.7-3.7,2.2-5.3,2.2C33.2,74.2,30,71.8,30,67.6z M35.6,66.6c2.2,0,3.1-0.7,3.1-2.8c0-1.2-0.5-2.3-1.6-2.4v-0.2
		c3.3,0,4.9,2.3,4.9,4.2c0,0.4,0,0.9-0.1,1.3h-6.3V66.6z"/>
	<path class="st1" d="M53.3,72v0.2c-0.8,1.1-2.4,2-4.3,2c-2.2,0-3.8-1-3.8-3.5v-8.2h-1.3l0.3-0.4h1v-2.7c1.5,0,3-0.5,4.1-1.4v4.1
		h3.4l-0.3,0.4h-3.1v8.3c0,1.2,0.5,2.5,1.6,2.5C51.6,73.3,52.5,72.8,53.3,72z"/>
	<path class="st1" d="M60.5,71c0-2.2,2-3.4,4.8-3.4H68v0.2h-0.7c-1.8,0-2.6,1.2-2.6,2.7c0,1.4,0.4,2.4,1.6,2.4
		c0.7,0,1.3-0.4,1.8-0.9v0.2c-0.8,0.9-2.1,2-4,2C61.9,74.2,60.4,73,60.5,71z M61.5,63.9c0-1.3,1.1-2.6,4.5-2.7v0.2
		c-1,0.1-1.6,0.9-1.6,1.8c0,0.9,0.6,1.5,1.6,1.5c-0.4,0.7-1.4,1.2-2.4,1.2C62.3,65.9,61.5,64.9,61.5,63.9z M68.7,71.3v-7.6
		c0-1.2-0.5-2.2-1.7-2.4v-0.2c4.1,0.2,5.8,1.7,5.8,5v6.1c0,0.7,0.2,1,0.7,1c0.4,0,0.8-0.4,1.2-1.1h0.1c-0.4,1.4-1.7,2-3.2,2
		C69.6,74.2,68.7,73.5,68.7,71.3z"/>
</g>
<g class="st0">
	<path class="st1" d="M88.8,74v0.2c-2,0-3.5-0.4-4.8-1.2l-0.8,1.2h-0.2v-6.1h0.2C84,70.9,85.7,73,88.8,74z M96.2,69
		c0,3.2-2.4,5-6.3,5.1V74c1.4-0.2,2.7-1,2.7-2.5c0-4.4-9.5-4.8-9.5-9.8c0-3,2.4-4.7,5.7-4.9v0.2c-1.1,0.2-2.2,0.9-2.2,2.3
		C86.6,63.5,96.2,64,96.2,69z M89.9,56.8v-0.2c1.9,0.1,3.3,0.5,4.5,1.3l0.9-1.3h0.2v5.6h-0.2C94.5,59.6,92.3,57.4,89.9,56.8z"/>
</g>
<g class="st0">
	<path class="st1" d="M107.6,72v0.2c-0.8,1.1-2.4,2-4.3,2c-2.2,0-3.8-1-3.8-3.5v-8.2h-1.3l0.3-0.4h1v-2.7c1.5,0,3-0.5,4.1-1.4v4.1
		h3.4l-0.3,0.4h-3.1v8.3c0,1.2,0.5,2.5,1.6,2.5C105.9,73.3,106.7,72.8,107.6,72z"/>
	<path class="st1" d="M108.4,71c0-2.2,2-3.4,4.8-3.4h2.7v0.2h-0.7c-1.8,0-2.6,1.2-2.6,2.7c0,1.4,0.4,2.4,1.6,2.4
		c0.7,0,1.3-0.4,1.8-0.9v0.2c-0.8,0.9-2.1,2-4,2C109.8,74.2,108.3,73,108.4,71z M109.4,63.9c0-1.3,1.1-2.6,4.5-2.7v0.2
		c-1,0.1-1.6,0.9-1.6,1.8c0,0.9,0.6,1.5,1.6,1.5c-0.4,0.7-1.4,1.2-2.4,1.2C110.2,65.9,109.4,64.9,109.4,63.9z M116.6,71.3v-7.6
		c0-1.2-0.5-2.2-1.7-2.4v-0.2c4.1,0.2,5.8,1.7,5.8,5v6.1c0,0.7,0.2,1,0.7,1c0.4,0,0.8-0.4,1.2-1.1h0.1c-0.4,1.4-1.7,2-3.2,2
		C117.5,74.2,116.6,73.5,116.6,71.3z"/>
</g>
<g class="st0">
	<path class="st1" d="M129.5,72.5c0,0.6,0.4,1.3,1.9,1.3v0.2h-7.9v-0.2c1.5,0,1.9-0.6,1.9-1.3v-8.9c0-0.9-0.4-1.3-1.8-1.3v-0.2
		c2.3,0,4.2-0.2,6-1V72.5z M136.3,63.9c0,1.7-1.2,2.8-2.6,2.8c-0.6,0-1.1-0.2-1.4-0.5c0.5-0.2,1-0.8,1-1.7c0-0.7-0.5-1.3-1.4-1.3
		c-0.6,0-1.2,0.4-1.5,0.9v-0.2c0.5-1.6,1.7-2.7,3.2-2.7C135.3,61.2,136.3,62.4,136.3,63.9z"/>
</g>
<g class="st0">
	<path class="st1" d="M25.9,94.9l0.1,0.2c-1.3,2.1-3.6,3-6,3c-4.1,0-9.1-2.9-9.1-8.7c0-6.3,4.9-8.7,8.5-8.8v0.2
		c-1.7,0.4-3.6,2-3.6,8.4c0,6.4,2.6,7.9,5.4,7.9C23.4,97.2,25,96,25.9,94.9z M26.1,80.7v6.1h-0.2c-1-3.3-2.8-5.2-5.3-5.9v-0.2
		c2.2,0.1,3.5,0.5,4.5,1.2l0.8-1.2H26.1z"/>
	<path class="st1" d="M28,95c0-2.2,2-3.4,4.8-3.4h2.7v0.2h-0.7c-1.8,0-2.6,1.2-2.6,2.7c0,1.4,0.4,2.4,1.6,2.4c0.7,0,1.3-0.4,1.8-0.9
		v0.2c-0.8,0.9-2.1,2-4,2C29.4,98.2,28,97,28,95z M29,87.9c0-1.3,1.1-2.6,4.5-2.7v0.2c-1,0.1-1.6,0.9-1.6,1.8c0,0.9,0.6,1.5,1.6,1.5
		c-0.4,0.7-1.4,1.2-2.4,1.2C29.8,89.9,29,88.9,29,87.9z M36.2,95.3v-7.6c0-1.2-0.5-2.2-1.7-2.4v-0.2c4.1,0.2,5.8,1.7,5.8,5v6.1
		c0,0.7,0.2,1,0.7,1c0.4,0,0.8-0.4,1.2-1.1h0.1c-0.4,1.4-1.7,2-3.2,2C37.1,98.2,36.2,97.5,36.2,95.3z"/>
	<path class="st1" d="M49.2,96.5c0,0.6,0.4,1.3,1.9,1.3v0.2h-7.9v-0.2c1.5,0,1.9-0.6,1.9-1.3v-8.9c0-0.9-0.4-1.3-1.8-1.3v-0.2
		c2.3,0,4.2-0.2,6-1V96.5z M57.5,88.7v7.8c0,0.6,0.3,1.3,1.8,1.3v0.2h-7.8v-0.2c1.5,0,1.9-0.6,1.9-1.3v-7.8c0-1.4-0.5-2.1-1.7-2.1
		c-0.7,0-1.3,0.4-1.6,0.8v-0.1c0.6-1,1.8-2,3.6-2C56,85.2,57.5,86.2,57.5,88.7z M65.7,88.7v7.8c0,0.6,0.4,1.3,1.9,1.3v0.2h-7.9v-0.2
		c1.5,0,1.9-0.6,1.9-1.3v-7.8c0-1.4-0.5-2.1-1.7-2.1c-0.7,0-1.3,0.4-1.6,0.8v-0.1c0.6-1,1.8-2,3.6-2C64.2,85.2,65.7,86.2,65.7,88.7z
		"/>
	<path class="st1" d="M74.3,101.7c0,0.9,0.4,1.3,1.8,1.3v0.1c-2.3,0-3.9,0.2-6,1V87.6c0-0.9-0.4-1.3-1.8-1.3v-0.1c2.3,0,3.9-0.2,6-1
		V101.7z M83.8,91.5c0,5.2-2.7,6.6-5.1,6.6c-1.4,0-3-1-3.6-2V96c0.6,0.5,1.3,0.9,2.1,0.9c1.2,0,2.4-0.8,2.4-5.3
		c0-4.5-1.2-5.1-2.4-5.1c-0.8,0-1.5,0.3-2.1,0.9v-0.2c0.6-1,2.2-2,3.6-2C81.1,85.2,83.8,86.6,83.8,91.5z"/>
	<path class="st1" d="M86,91.6c0-4.2,3.2-6.4,6.1-6.4v0.2c-1.5,0.2-1.9,1.4-1.9,6.2c0,3.6,1.6,5.6,3.8,5.6c1.4,0,2.5-0.4,3.6-1.3
		v0.1c-1.3,1.7-3.7,2.2-5.3,2.2C89.2,98.2,86,95.8,86,91.6z M91.6,90.6c2.2,0,3.1-0.7,3.1-2.8c0-1.2-0.5-2.3-1.6-2.4v-0.2
		c3.3,0,4.9,2.3,4.9,4.2c0,0.4,0,0.9-0.1,1.3h-6.3V90.6z"/>
	<path class="st1" d="M105.6,96.5c0,0.6,0.4,1.3,1.9,1.3v0.2h-7.9v-0.2c1.5,0,1.9-0.6,1.9-1.3v-8.9c0-0.9-0.4-1.3-1.8-1.3v-0.2
		c2.3,0,4.2-0.2,6-1V96.5z M112.4,87.9c0,1.7-1.2,2.8-2.6,2.8c-0.6,0-1.1-0.2-1.4-0.5c0.5-0.2,1-0.8,1-1.7c0-0.7-0.5-1.3-1.4-1.3
		c-0.6,0-1.2,0.4-1.5,0.9v-0.2c0.5-1.6,1.7-2.7,3.2-2.7C111.4,85.2,112.4,86.4,112.4,87.9z"/>
	<path class="st1" d="M129.1,94.9l0.1,0.2c-1.3,2.1-3.6,3-6,3c-4.1,0-9.1-2.9-9.1-8.7c0-6.3,4.9-8.7,8.5-8.8v0.2
		c-1.7,0.4-3.6,2-3.6,8.4c0,6.4,2.6,7.9,5.4,7.9C126.6,97.2,128.2,96,129.1,94.9z M129.3,80.7v6.1h-0.2c-1-3.3-2.8-5.2-5.3-5.9v-0.2
		c2.2,0.1,3.5,0.5,4.5,1.2l0.8-1.2H129.3z"/>
	<path class="st1" d="M131.2,95c0-2.2,2-3.4,4.8-3.4h2.7v0.2H138c-1.8,0-2.6,1.2-2.6,2.7c0,1.4,0.4,2.4,1.6,2.4
		c0.7,0,1.3-0.4,1.8-0.9v0.2c-0.8,0.9-2.1,2-4,2C132.6,98.2,131.2,97,131.2,95z M132.2,87.9c0-1.3,1.1-2.6,4.5-2.7v0.2
		c-1,0.1-1.6,0.9-1.6,1.8c0,0.9,0.6,1.5,1.6,1.5c-0.4,0.7-1.4,1.2-2.4,1.2C133,89.9,132.2,88.9,132.2,87.9z M139.5,95.3v-7.6
		c0-1.2-0.5-2.2-1.7-2.4v-0.2c4.1,0.2,5.8,1.7,5.8,5v6.1c0,0.7,0.2,1,0.7,1c0.4,0,0.8-0.4,1.2-1.1h0.1c-0.4,1.4-1.7,2-3.2,2
		C140.4,98.2,139.5,97.5,139.5,95.3z"/>
</g>
<g class="st0">
	<path class="st1" d="M152.4,96.5c0,0.6,0.4,1.3,1.9,1.3v0.2h-7.9v-0.2c1.5,0,1.9-0.6,1.9-1.3v-8.9c0-0.9-0.4-1.3-1.8-1.3v-0.2
		c2.3,0,4.2-0.2,6-1V96.5z M159.1,87.9c0,1.7-1.2,2.8-2.6,2.8c-0.6,0-1.1-0.2-1.4-0.5c0.5-0.2,1-0.8,1-1.7c0-0.7-0.5-1.3-1.4-1.3
		c-0.7,0-1.2,0.4-1.5,0.9v-0.2c0.5-1.6,1.7-2.7,3.2-2.7C158.2,85.2,159.1,86.4,159.1,87.9z"/>
</g>
<g class="st0">
	<path class="st1" d="M160.5,91.6c0-4.2,3.2-6.4,6.1-6.4v0.2c-1.5,0.2-1.9,1.4-1.9,6.2c0,3.6,1.6,5.6,3.8,5.6c1.4,0,2.5-0.4,3.6-1.3
		v0.1c-1.3,1.7-3.7,2.2-5.3,2.2C163.7,98.2,160.5,95.8,160.5,91.6z M166.1,90.6c2.2,0,3.1-0.7,3.1-2.8c0-1.2-0.5-2.3-1.6-2.4v-0.2
		c3.3,0,4.9,2.3,4.9,4.2c0,0.4,0,0.9-0.1,1.3h-6.3V90.6z"/>
</g>
<g class="st0">
	<path class="st1" d="M19.5,111.2v0.2c-0.6-0.6-1.3-0.9-2.1-0.9c-1.2,0-2.4,0.6-2.4,5.1c0,4.5,1.2,5.3,2.4,5.3
		c0.8,0,1.5-0.4,2.1-0.9v0.2c-0.6,1-2.2,2-3.6,2c-2.4,0-5.1-1.4-5.1-6.6c0-5,2.7-6.4,5.1-6.4C17.3,109.2,18.9,110.1,19.5,111.2z
		 M24.4,125.7c0,0.9,0.4,1.3,1.8,1.3v0.1c-2.3,0-3.9,0.2-6,1v-18.1c1.3-0.1,3-0.5,4.1-0.9V125.7z"/>
	<path class="st1" d="M32.8,118.6c0,1.4,0.5,2.1,1.7,2.1c0.6,0,1.2-0.2,1.7-0.8v0.2c-0.6,1.1-1.8,2-3.9,2c-2.2,0-3.7-1-3.7-3.5v-7
		c0-0.9-0.4-1.3-1.8-1.3v-0.2c2.3,0,4.2-0.2,6-1V118.6z M41.1,120.2c0,0.7,0.2,1,0.7,1c0.4,0,0.8-0.4,1.2-1.1h0.1
		c-0.4,1.4-1.7,2-3.4,2c-1.8,0-2.7-1-2.7-2.4v-8.1c0-0.9-0.4-1.3-1.8-1.3v-0.2c2.2,0,3.8-0.2,5.9-1V120.2z"/>
	<path class="st1" d="M50.8,109.3c-1.5,0.2-2,1.4-2,6.3c0,4.7,0.5,6.2,2,6.4v0.2c-2.9,0-6.2-2.3-6.2-6.5c0-4.2,3.3-6.4,6.2-6.4
		V109.3z M58,115.6c0,4.2-3.3,6.5-6.2,6.5V122c1.5-0.1,1.9-1.7,1.9-6.4c0-4.9-0.5-6.1-1.9-6.3v-0.2C54.7,109.2,58,111.4,58,115.6z"
		/>
</g>
<g class="st0">
	<path class="st1" d="M69.4,120v0.2c-0.8,1.1-2.4,2-4.3,2c-2.2,0-3.8-1-3.8-3.5v-8.2h-1.3l0.3-0.4h1v-2.7c1.5,0,3-0.5,4.1-1.4v4.1
		h3.4l-0.3,0.4h-3.1v8.3c0,1.2,0.5,2.5,1.6,2.5C67.7,121.3,68.5,120.8,69.4,120z"/>
</g>
<g class="st0">
	<path class="st1" d="M70.3,115.6c0-4.2,3.2-6.4,6.1-6.4v0.2c-1.5,0.2-1.9,1.4-1.9,6.2c0,3.6,1.6,5.6,3.8,5.6c1.4,0,2.5-0.4,3.6-1.3
		v0.1c-1.3,1.7-3.7,2.2-5.3,2.2C73.5,122.2,70.3,119.8,70.3,115.6z M75.9,114.6c2.2,0,3.1-0.7,3.1-2.8c0-1.2-0.5-2.3-1.6-2.4v-0.2
		c3.3,0,4.9,2.3,4.9,4.2c0,0.4,0,0.9-0.1,1.3h-6.3V114.6z"/>
</g>
</svg>
