<?xml version="1.0" encoding="utf-8"?>
<!-- Generator: Adobe Illustrator 24.0.3, SVG Export Plug-In . SVG Version: 6.00 Build 0)  -->
<svg version="1.1" id="Layer_1" xmlns="http://www.w3.org/2000/svg" xmlns:xlink="http://www.w3.org/1999/xlink" x="0px" y="0px"
	 viewBox="0 0 300 250" style="enable-background:new 0 0 300 250;" xml:space="preserve">
<style type="text/css">
	.st0{clip-path:url(#SVGID_2_);}
	.st1{enable-background:new    ;}
	.st2{fill:#FFFFFF;}
</style>
<title>Artboard 1 copy</title>
<g>
	<defs>
		<rect id="SVGID_1_" y="0" width="300" height="250"/>
	</defs>
	<clipPath id="SVGID_2_">
		<use xlink:href="#SVGID_1_"  style="overflow:visible;"/>
	</clipPath>
	<g class="st0">
		<g class="st1">
			<path class="st2" d="M35.2,32.8v0.2c-2.3,0.3-3.9,2.6-3.9,10.8c0,8.3,1.6,10.9,3.9,11.2v0.2C30.6,54.9,25,51.5,25,44
				C25,36.7,30.9,33,35.2,32.8z M36.7,32.9v-0.2c3.3,0.2,5.1,0.6,6.6,1.5l1-1.5h0.3v7.8h-0.3C43.4,36.8,40.5,33.7,36.7,32.9z
				 M47.6,45.6v0.2c-1.5,0-2.4,0.6-2.4,1.9v7.4H45l-1.2-1.9c-1.6,1.2-3.8,1.8-7,1.9V55c2.2-0.2,3.4-1.3,3.4-3.9v-3.3
				c0-1.3-0.6-1.9-2.4-1.9v-0.2H47.6z"/>
			<path class="st2" d="M49.5,46.8c0-5.4,4.1-8.2,7.8-8.3v0.2c-1.9,0.2-2.4,1.8-2.4,7.9c0,4.6,2,7.1,4.9,7.1c1.8,0,3.2-0.5,4.7-1.7
				v0.2c-1.7,2.1-4.7,2.9-6.8,2.9C53.7,55.2,49.5,52.1,49.5,46.8z M56.7,45.4c2.8,0,4-0.9,4-3.6c0-1.5-0.6-2.9-2.1-3.1v-0.2
				c4.2,0,6.3,3,6.3,5.4c0,0.5-0.1,1.2-0.2,1.7h-8V45.4z"/>
			<path class="st2" d="M79.4,52.4v0.2c-1,1.5-3.1,2.6-5.5,2.6c-2.9,0-4.9-1.3-4.9-4.5V40.1h-1.7l0.4-0.5H69v-3.5
				c2,0,3.9-0.6,5.2-1.8v5.2h4.3l-0.4,0.5h-4v10.6c0,1.6,0.6,3.3,2.1,3.3C77.2,54,78.3,53.4,79.4,52.4z"/>
			<path class="st2" d="M88.5,51.1c0-2.8,2.6-4.4,6.1-4.4h3.5v0.2h-1c-2.3,0-3.4,1.5-3.4,3.5c0,1.8,0.5,3.1,2,3.1
				c0.9,0,1.6-0.5,2.3-1.1v0.2c-1.1,1.2-2.8,2.6-5.1,2.6C90.3,55.2,88.5,53.6,88.5,51.1z M89.8,42c0-1.6,1.5-3.3,5.8-3.5v0.2
				c-1.3,0.2-2,1.2-2,2.3c0,1.2,0.8,1.9,2.1,2c-0.5,0.9-1.8,1.5-3.1,1.5C90.8,44.5,89.8,43.3,89.8,42z M99.1,51.5v-9.8
				c0-1.6-0.6-2.8-2.2-3v-0.2c5.3,0.2,7.4,2.2,7.4,6.4v7.8c0,0.9,0.3,1.3,0.9,1.3c0.5,0,1-0.5,1.5-1.4h0.2c-0.5,1.8-2.2,2.6-4.2,2.6
				C100.2,55.2,99.1,54.3,99.1,51.5z"/>
			<path class="st2" d="M128,41.1v0.3c-0.7-0.8-1.7-1.2-2.7-1.2c-1.6,0-3.1,0.7-3.1,6.5c0,5.8,1.6,6.8,3.1,6.8c1,0,1.9-0.5,2.7-1.1
				v0.2c-0.8,1.3-2.8,2.6-4.7,2.6c-3,0-6.6-1.8-6.6-8.5c0-6.4,3.5-8.2,6.6-8.2C125.2,38.5,127.2,39.7,128,41.1z M134.3,59.7
				c0,1.2,0.5,1.7,2.4,1.7v0.2c-3,0-5,0.3-7.6,1.2V39.7c1.7-0.2,3.8-0.6,5.3-1.2V59.7z"/>
			<path class="st2" d="M145,50.6c0,1.8,0.6,2.7,2.2,2.7c0.8,0,1.5-0.3,2.2-1v0.2c-0.7,1.4-2.4,2.6-5,2.6c-2.9,0-4.7-1.3-4.7-4.5v-9
				c0-1.2-0.5-1.7-2.4-1.7v-0.2c3,0,5.4-0.3,7.6-1.2V50.6z M155.6,52.7c0,0.9,0.3,1.3,0.9,1.3c0.5,0,1-0.5,1.5-1.4h0.2
				c-0.5,1.8-2.2,2.6-4.4,2.6c-2.2,0-3.5-1.3-3.5-3.1V41.6c0-1.2-0.5-1.7-2.3-1.7v-0.2c2.9,0,4.9-0.3,7.6-1.2V52.7z"/>
			<path class="st2" d="M168.1,38.7c-1.9,0.2-2.5,1.8-2.5,8.1c0,6,0.6,8,2.5,8.2v0.2c-3.7,0-8-3-8-8.4s4.2-8.2,8-8.3V38.7z
				 M177.3,46.8c0,5.3-4.3,8.4-7.9,8.4V55c1.9-0.2,2.5-2.2,2.5-8.2c0-6.3-0.6-7.9-2.5-8.1v-0.2C173,38.5,177.3,41.4,177.3,46.8z"/>
		</g>
		<g class="st1">
			<path class="st2" d="M191.8,52.4v0.2c-1,1.5-3.1,2.6-5.5,2.6c-2.9,0-4.9-1.3-4.9-4.5V40.1h-1.7l0.4-0.5h1.3v-3.5
				c2,0,3.9-0.6,5.2-1.8v5.2h4.3l-0.4,0.5h-4v10.6c0,1.6,0.6,3.3,2.1,3.3C189.7,54,190.7,53.4,191.8,52.4z"/>
		</g>
		<g class="st1">
			<path class="st2" d="M193,46.8c0-5.4,4.1-8.2,7.8-8.3v0.2c-1.9,0.2-2.4,1.8-2.4,7.9c0,4.6,2,7.1,4.9,7.1c1.8,0,3.2-0.5,4.7-1.7
				v0.2c-1.7,2.1-4.7,2.9-6.8,2.9C197.1,55.2,193,52.1,193,46.8z M200.2,45.4c2.8,0,4-0.9,4-3.6c0-1.5-0.6-2.9-2.1-3.1v-0.2
				c4.2,0,6.3,3,6.3,5.4c0,0.5-0.1,1.2-0.2,1.7h-8V45.4z"/>
		</g>
		<g class="st1">
			<path class="st2" d="M35.4,71.7L35,72.1h-3.1V85c0,0.8,0.5,1.6,2.4,1.6v0.2H24.2v-0.2c1.9,0,2.4-0.8,2.4-1.6V72.1h-2.1l0.4-0.5
				h1.7v-1.4c0-4.5,2.4-6.5,5.3-6.9v0.2c-1.1,0.4-1.9,1.4-1.9,3.4C30,68.8,31.3,71.7,35.4,71.7z M38.1,66.8c0,1.8-1.3,2.8-2.8,2.8
				c-1.7,0-2.8-1-3.2-2.1c1.4,0,2.3-0.8,2.3-2c0-0.9-0.4-1.7-1.2-1.9v-0.2C36.6,63.4,38.1,64.9,38.1,66.8z"/>
		</g>
		<g class="st1">
			<path class="st2" d="M44.1,85c0,0.8,0.5,1.6,2.4,1.6v0.2H36.4v-0.2c1.9,0,2.4-0.8,2.4-1.6V73.6c0-1.2-0.5-1.7-2.4-1.7v-0.2
				c3,0,5.4-0.3,7.6-1.2V85z M52.7,74c0,2.2-1.6,3.6-3.3,3.6c-0.8,0-1.4-0.2-1.8-0.7c0.6-0.3,1.2-1,1.2-2.2c0-0.9-0.7-1.7-1.8-1.7
				c-0.8,0-1.5,0.5-1.9,1.2V74c0.6-2,2.2-3.5,4.2-3.5C51.5,70.5,52.7,72,52.7,74z"/>
		</g>
		<g class="st1">
			<path class="st2" d="M62.4,70.7c-1.9,0.2-2.5,1.8-2.5,8.1c0,6,0.6,8,2.5,8.2v0.2c-3.7,0-8-3-8-8.4s4.2-8.2,8-8.3V70.7z
				 M71.6,78.8c0,5.3-4.3,8.4-7.9,8.4V87c1.9-0.2,2.5-2.2,2.5-8.2c0-6.3-0.6-7.9-2.5-8.1v-0.2C67.4,70.5,71.6,73.4,71.6,78.8z"/>
			<path class="st2" d="M81.4,85c0,0.8,0.5,1.6,2.4,1.6v0.2H73.7v-0.2c1.9,0,2.4-0.8,2.4-1.6V73.6c0-1.2-0.5-1.7-2.4-1.7v-0.2
				c3,0,5.4-0.3,7.6-1.2V85z M92.1,75v10c0,0.8,0.4,1.6,2.4,1.6v0.2h-10v-0.2c1.9,0,2.4-0.8,2.4-1.6V75c0-1.8-0.7-2.7-2.2-2.7
				c-0.9,0-1.7,0.4-2.1,1v-0.2c0.7-1.3,2.3-2.6,4.7-2.6C90.1,70.5,92.1,71.9,92.1,75z M102.6,75v10c0,0.8,0.5,1.6,2.4,1.6v0.2H95
				v-0.2c1.9,0,2.4-0.8,2.4-1.6V75c0-1.8-0.7-2.7-2.2-2.7c-0.9,0-1.7,0.4-2.1,1v-0.2c0.7-1.3,2.3-2.6,4.7-2.6
				C100.7,70.5,102.6,71.9,102.6,75z"/>
		</g>
		<g class="st1">
			<path class="st2" d="M114.1,72.1c-0.3-0.7-0.8-1.1-1.8-1.1v-0.2h9V71c-1.1,0-1.6,0.8-1,1.9l4.2,8.7l-2.8,5.2h-0.2L114.1,72.1z
				 M112.7,92c0-1.4,1.1-2.5,2.8-3c-0.1,0.3-0.1,0.5-0.1,0.8c0,1.2,0.6,2.1,1.9,2.1c1.1,0,2-1.2,3.2-3.2h0.2c-1.8,3.3-3,6.1-5.2,6.1
				C113.7,94.8,112.7,93.6,112.7,92z M125.8,78.5c0.5-1,0.9-2.4,0.9-4.1c0-1.8-1-3.4-3.3-3.4v-0.2h8V71c-1.1,0-1.5,0.4-2.1,1.5
				l-3.3,6.3L125.8,78.5z"/>
		</g>
		<g class="st1">
			<path class="st2" d="M139.5,70.7c-1.9,0.2-2.5,1.8-2.5,8.1c0,6,0.6,8,2.5,8.2v0.2c-3.7,0-8-3-8-8.4s4.2-8.2,8-8.3V70.7z
				 M148.8,78.8c0,5.3-4.3,8.4-7.9,8.4V87c1.9-0.2,2.5-2.2,2.5-8.2c0-6.3-0.6-7.9-2.5-8.1v-0.2C144.5,70.5,148.8,73.4,148.8,78.8z"
				/>
			<path class="st2" d="M158.2,82.6c0,1.8,0.6,2.7,2.2,2.7c0.8,0,1.5-0.3,2.2-1v0.2c-0.7,1.4-2.4,2.6-5,2.6c-2.9,0-4.7-1.3-4.7-4.5
				v-9c0-1.2-0.5-1.7-2.4-1.7v-0.2c3,0,5.4-0.3,7.6-1.2V82.6z M168.9,84.7c0,0.9,0.3,1.3,0.9,1.3c0.5,0,1-0.5,1.5-1.4h0.2
				c-0.5,1.8-2.2,2.6-4.4,2.6c-2.2,0-3.5-1.3-3.5-3.1V73.6c0-1.2-0.5-1.7-2.3-1.7v-0.2c2.9,0,4.9-0.3,7.6-1.2V84.7z"/>
		</g>
		<g class="st1">
			<path class="st2" d="M180.4,85c0,0.8,0.5,1.6,2.4,1.6v0.2h-10.1v-0.2c1.9,0,2.4-0.8,2.4-1.6V73.6c0-1.2-0.5-1.7-2.4-1.7v-0.2
				c3,0,5.4-0.3,7.6-1.2V85z M189,74c0,2.2-1.6,3.6-3.3,3.6c-0.8,0-1.4-0.2-1.8-0.7c0.6-0.3,1.2-1,1.2-2.2c0-0.9-0.7-1.7-1.8-1.7
				c-0.8,0-1.5,0.5-1.9,1.2V74c0.6-2,2.2-3.5,4.2-3.5C187.8,70.5,189,72,189,74z"/>
		</g>
		<g class="st1">
			<path class="st2" d="M31.4,114.8c0,3-2.1,4.4-5.3,4.4V98.4c0-1.2-0.6-1.7-2.4-1.7v-0.2c3,0,5-0.3,7.7-1.2V114.8z M43.5,110.7
				c0,6.7-3.6,8.5-6.6,8.5c-1.8,0-3.8-1.2-4.6-2.6v-0.2c0.8,0.6,1.6,1.1,2.7,1.1c1.5,0,3.1-1.1,3.1-6.8c0-5.8-1.5-6.5-3.1-6.5
				c-1,0-1.9,0.4-2.7,1.2v-0.3c0.8-1.3,2.8-2.6,4.6-2.6C40.1,102.5,43.5,104.3,43.5,110.7z"/>
		</g>
		<g class="st1">
			<path class="st2" d="M53.5,117c0,0.8,0.5,1.6,2.4,1.6v0.2H45.8v-0.2c1.9,0,2.4-0.8,2.4-1.6v-11.4c0-1.2-0.5-1.7-2.4-1.7v-0.2
				c3,0,5.4-0.3,7.6-1.2V117z M62.1,106c0,2.2-1.6,3.6-3.3,3.6c-0.8,0-1.4-0.2-1.8-0.7c0.6-0.3,1.2-1,1.2-2.2c0-0.9-0.7-1.7-1.8-1.7
				c-0.8,0-1.5,0.5-1.9,1.2V106c0.6-2,2.2-3.5,4.2-3.5C60.9,102.5,62.1,104,62.1,106z"/>
		</g>
		<g class="st1">
			<path class="st2" d="M71.8,102.7c-1.9,0.2-2.5,1.8-2.5,8.1c0,6,0.6,8,2.5,8.2v0.2c-3.7,0-8-3-8-8.4s4.2-8.2,8-8.3V102.7z
				 M81,110.8c0,5.3-4.3,8.4-7.9,8.4V119c1.9-0.2,2.5-2.2,2.5-8.2c0-6.3-0.6-7.9-2.5-8.1v-0.2C76.8,102.5,81,105.4,81,110.8z"/>
		</g>
		<g class="st1">
			<path class="st2" d="M93,118.6v0.2H82.9v-0.2c1.9,0,2.4-0.8,2.4-1.6V98.4c0-1.2-0.5-1.7-2.4-1.7v-0.2c3,0,5.4-0.3,7.6-1.2V117
				C90.6,117.8,91.1,118.6,93,118.6z M103.9,118.6v0.2c-0.9,0.3-2.1,0.3-3.2,0.3c-2,0-4.1-0.4-5.8-3.1l-3-5c2.5-2.2,4.9-4.9,4.9-6.5
				c0-0.9-0.4-1.5-1.9-1.5v-0.2h8.2v0.2c-0.7,0-1.3,0.2-1.8,0.6l-5.9,4.6l5.5,8.6C102,118.4,102.8,118.5,103.9,118.6z"/>
		</g>
		<g class="st1">
			<path class="st2" d="M104.1,110.8c0-5.4,4.1-8.2,7.8-8.3v0.2c-1.9,0.2-2.4,1.8-2.4,7.9c0,4.6,2,7.1,4.9,7.1
				c1.8,0,3.2-0.5,4.7-1.7v0.2c-1.7,2.1-4.7,2.9-6.8,2.9C108.2,119.2,104.1,116.1,104.1,110.8z M111.3,109.4c2.8,0,4-0.9,4-3.6
				c0-1.5-0.6-2.9-2.1-3.1v-0.2c4.2,0,6.3,3,6.3,5.4c0,0.5-0.1,1.2-0.2,1.7h-8V109.4z"/>
		</g>
		<g class="st1">
			<path class="st2" d="M129.2,117c0,0.8,0.5,1.6,2.4,1.6v0.2h-10.1v-0.2c1.9,0,2.4-0.8,2.4-1.6v-11.4c0-1.2-0.5-1.7-2.4-1.7v-0.2
				c3,0,5.4-0.3,7.6-1.2V117z M137.8,106c0,2.2-1.6,3.6-3.3,3.6c-0.8,0-1.4-0.2-1.8-0.7c0.6-0.3,1.2-1,1.2-2.2
				c0-0.9-0.7-1.7-1.8-1.7c-0.8,0-1.5,0.5-1.9,1.2V106c0.6-2,2.2-3.5,4.2-3.5C136.6,102.5,137.8,104,137.8,106z"/>
		</g>
	</g>
</g>
</svg>
