<svg id="Layer_1" data-name="Layer 1" xmlns="http://www.w3.org/2000/svg" xmlns:xlink="http://www.w3.org/1999/xlink" viewBox="0 0 300 250"><defs><style>.cls-1{fill:none;}.cls-2{clip-path:url(#clip-path);}.cls-3{fill:#fff;}</style><clipPath id="clip-path"><rect class="cls-1" width="300" height="250"/></clipPath></defs><title>Artboard 1</title><g class="cls-2"><path class="cls-3" d="M24.65,52.66c1.68,0,2.1-.67,2.1-1.42V35.39c0-.76-.42-1.43-2.1-1.43v-.17h9V34c-1.68,0-2.1.67-2.1,1.43V51.24c0,.75.42,1.42,2.1,1.42v.17h-9Z"/><path class="cls-3" d="M45.85,50.67v.17a5.86,5.86,0,0,1-4.79,2.27c-2.52,0-4.31-1.15-4.31-4V40H35.29l.31-.42h1.15v-3A7.09,7.09,0,0,0,41.34,35v4.59h3.78l-.31.42H41.34v9.27c0,1.4.53,2.85,1.85,2.85A4.13,4.13,0,0,0,45.85,50.67Z"/><path class="cls-3" d="M53.63,52.66c1.68,0,2.1-.72,2.1-1.42v-10c0-1-.48-1.48-2.07-1.48v-.17a17.19,17.19,0,0,0,6.69-1.09V51.24c0,.7.42,1.42,2.1,1.42v.17H53.63Zm9.86,0c1.65,0,2.07-.72,2.07-1.42V42.5c0-1.57-.81-2.38-2.21-2.38a3,3,0,0,0-2.13.87v-.17a5.71,5.71,0,0,1,4.65-2.27c2.52,0,4.31,1.18,4.31,4v8.74c0,.7.42,1.42,2.1,1.42v.17H63.49Z"/><path class="cls-3" d="M73.79,45.78a6.93,6.93,0,0,1,6.86-7.23v.17c-1.65.2-2.1,1.6-2.1,6.94,0,4,1.79,6.25,4.28,6.25a6.07,6.07,0,0,0,4.09-1.49v.17A7.82,7.82,0,0,1,81,53.11,7.09,7.09,0,0,1,73.79,45.78Zm6.3-1.18c2.46,0,3.5-.78,3.5-3.14,0-1.34-.56-2.57-1.82-2.74v-.17c3.7,0,5.49,2.63,5.49,4.76a8.71,8.71,0,0,1-.14,1.46h-7Z"/><path class="cls-3" d="M89.55,45.78a6.94,6.94,0,0,1,6.86-7.23v.17c-1.65.2-2.1,1.6-2.1,6.94,0,4,1.8,6.25,4.29,6.25a6.1,6.1,0,0,0,4.09-1.49v.17a7.86,7.86,0,0,1-5.94,2.52A7.1,7.1,0,0,1,89.55,45.78Zm6.3-1.18c2.47,0,3.5-.78,3.5-3.14,0-1.34-.56-2.57-1.82-2.74v-.17c3.7,0,5.49,2.63,5.49,4.76a7.77,7.77,0,0,1-.14,1.46h-7Z"/><path class="cls-3" d="M115.26,40.79V41a3.14,3.14,0,0,0-2.33-1c-1.4,0-2.74.64-2.74,5.71s1.43,6,2.74,6a3.82,3.82,0,0,0,2.33-1v.17a5.2,5.2,0,0,1-4.06,2.27c-2.66,0-5.77-1.57-5.77-7.42,0-5.57,3-7.14,5.77-7.14A5.2,5.2,0,0,1,115.26,40.79ZM120.72,51c0,.81.25,1.14.75,1.14s.9-.42,1.35-1.26H123c-.45,1.54-2,2.27-3.64,2.27-2.24,0-3.25-.78-3.25-3.16V35c0-1-.48-1.49-2.07-1.49v-.17a18.39,18.39,0,0,0,6.69-1.09Z"/><path class="cls-3" d="M129.48,49.5a1.44,1.44,0,0,0-1.57,1.4c0,.81.56,1.85,2.5,2v.17c-3.73-.14-5.77-1.15-5.77-2.77A2.18,2.18,0,0,1,127,48.27,2.84,2.84,0,0,1,129.48,49.5Zm.93-10.78c-1,.2-2,.73-2,1.87.08,3.25,9.16,3.79,9.16,8.24,0,2.71-2.3,4.14-5.91,4.28v-.17c1.17-.19,2.49-.61,2.49-2.07,0-2.91-9.18-4-9.18-8.23,0-2.47,2.32-4,5.46-4.09Zm6.6,2.72a1.83,1.83,0,0,1-2.07,1.73,2.41,2.41,0,0,1-2.38-1.34,1.25,1.25,0,0,0,1.26-1.32c0-.84-1.06-1.65-2.18-1.79v-.17C134.8,38.72,137,39.87,137,41.44Z"/><path class="cls-3" d="M29.5,79.5a1.43,1.43,0,0,0-1.57,1.4c0,.81.56,1.85,2.49,2v.17C26.7,83,24.65,82,24.65,80.34A2.18,2.18,0,0,1,27,78.27,2.86,2.86,0,0,1,29.5,79.5Zm.92-10.78c-1,.2-2,.73-2,1.87.09,3.25,9.16,3.79,9.16,8.24,0,2.71-2.3,4.14-5.91,4.28v-.17c1.18-.19,2.49-.61,2.49-2.07,0-2.91-9.18-4-9.18-8.23,0-2.47,2.32-4,5.46-4.09ZM37,71.44A1.83,1.83,0,0,1,35,73.17a2.39,2.39,0,0,1-2.38-1.34,1.26,1.26,0,0,0,1.26-1.32c0-.84-1.07-1.65-2.19-1.79v-.17C34.82,68.72,37,69.87,37,71.44Z"/><path class="cls-3" d="M45.88,87.09c0,1,.47,1.48,2.07,1.48v.17a18.45,18.45,0,0,0-6.7,1.09V71.27c0-1-.47-1.49-2.07-1.49v-.16a18.45,18.45,0,0,0,6.7-1.1Zm10.66-11.4c0,5.85-3.08,7.42-5.74,7.42a5.27,5.27,0,0,1-4.09-2.27v-.17a3.93,3.93,0,0,0,2.36,1c1.31,0,2.71-.93,2.71-6S50.47,70,49.07,70a3.2,3.2,0,0,0-2.36,1v-.22a5.27,5.27,0,0,1,4.09-2.24C53.52,68.55,56.54,70.12,56.54,75.69Z"/><path class="cls-3" d="M59,75.78a6.93,6.93,0,0,1,6.86-7.23v.17c-1.66.2-2.1,1.6-2.1,6.94,0,4,1.79,6.25,4.28,6.25a6.09,6.09,0,0,0,4.09-1.49v.17a7.86,7.86,0,0,1-5.94,2.52A7.09,7.09,0,0,1,59,75.78Zm6.3-1.18c2.46,0,3.5-.78,3.5-3.14,0-1.34-.56-2.57-1.82-2.74v-.17c3.69,0,5.48,2.63,5.48,4.76a7.77,7.77,0,0,1-.14,1.46h-7Z"/><path class="cls-3" d="M81.94,68.72c-1.65.2-2.38,1.6-2.38,6.94,0,4,2,6.25,4.53,6.25a6.07,6.07,0,0,0,4.09-1.49v.17a7.82,7.82,0,0,1-5.93,2.52,7.32,7.32,0,0,1-7.48-7.33,7.18,7.18,0,0,1,7.17-7.23Zm6.21,3a2.6,2.6,0,0,1-2.8,2.69,2.37,2.37,0,0,1-2.43-1.76,2.43,2.43,0,0,0,1.34-2,1.65,1.65,0,0,0-1.2-1.84v-.2C86.73,68.55,88.15,70.12,88.15,71.71Z"/><path class="cls-3" d="M89.81,69.62a17.18,17.18,0,0,0,6.69-1.1V81.24c0,.7.42,1.42,2.1,1.42v.17H89.78v-.17c1.68,0,2.1-.72,2.1-1.42v-10c0-1-.48-1.49-2.07-1.49Zm1.42-5.27c0-1.45,1.18-2.43,2.86-2.43S97,62.9,97,64.35s-1.18,2.47-2.86,2.47S91.23,65.83,91.23,64.35Z"/><path class="cls-3" d="M100,79.53c0-2.44,2.24-3.81,5.37-3.81h3v.17h-.84a2.77,2.77,0,0,0-3,3c0,1.54.45,2.72,1.76,2.72a3,3,0,0,0,2.05-1v.17A6,6,0,0,1,104,83.11C101.57,83.11,100,81.77,100,79.53Zm1.12-7.93c0-1.43,1.29-2.88,5.09-3v.17a2,2,0,0,0-1.79,2c0,1,.7,1.63,1.82,1.71a3.16,3.16,0,0,1-2.69,1.35A2.24,2.24,0,0,1,101.12,71.6ZM109.24,80V71.38c0-1.37-.53-2.46-1.91-2.66v-.17c4.65.17,6.5,1.93,6.5,5.6V81c0,.81.28,1.14.78,1.14s.9-.42,1.35-1.26h.17c-.45,1.54-2,2.27-3.64,2.27C110.25,83.11,109.24,82.33,109.24,80Z"/><path class="cls-3" d="M116.85,63.34a17.21,17.21,0,0,0,6.7-1.09v19c0,.7.42,1.42,2.1,1.42v.17h-8.82v-.17c1.68,0,2.1-.72,2.1-1.42V65c0-1-.48-1.49-2.08-1.49Z"/><path class="cls-3" d="M126.88,69.62a17.18,17.18,0,0,0,6.69-1.1V81.24c0,.7.42,1.42,2.1,1.42v.17h-8.82v-.17c1.68,0,2.1-.72,2.1-1.42v-10c0-1-.48-1.49-2.07-1.49Zm1.43-5.27c0-1.45,1.17-2.43,2.85-2.43s2.86,1,2.86,2.43-1.18,2.47-2.86,2.47A2.55,2.55,0,0,1,128.31,64.35Z"/><path class="cls-3" d="M142.22,79.5a1.44,1.44,0,0,0-1.57,1.4c0,.81.56,1.85,2.5,2v.17c-3.73-.14-5.77-1.15-5.77-2.77a2.18,2.18,0,0,1,2.38-2.07A2.84,2.84,0,0,1,142.22,79.5Zm.93-10.78c-1,.2-2.05.73-2,1.87.08,3.25,9.16,3.79,9.16,8.24,0,2.71-2.3,4.14-5.91,4.28v-.17c1.17-.19,2.49-.61,2.49-2.07,0-2.91-9.18-4-9.18-8.23,0-2.47,2.32-4,5.46-4.09Zm6.6,2.72a1.83,1.83,0,0,1-2.07,1.73,2.41,2.41,0,0,1-2.38-1.34,1.25,1.25,0,0,0,1.26-1.32c0-.84-1.06-1.65-2.18-1.79v-.17C147.54,68.72,149.75,69.87,149.75,71.44Z"/><path class="cls-3" d="M163,80.67v.17a5.86,5.86,0,0,1-4.79,2.27c-2.52,0-4.31-1.15-4.31-4V70h-1.46l.31-.42h1.15v-3A7.09,7.09,0,0,0,158.49,65v4.59h3.78L162,70h-3.47v9.27c0,1.4.53,2.85,1.85,2.85A4.13,4.13,0,0,0,163,80.67Z"/><path class="cls-3" d="M24.18,99.62a17.18,17.18,0,0,0,6.69-1.1v12.72c0,.7.42,1.42,2.1,1.42v.17H24.15v-.17c1.68,0,2.1-.72,2.1-1.42v-10c0-1-.48-1.49-2.07-1.49Zm1.42-5.27c0-1.45,1.18-2.43,2.86-2.43s2.86,1,2.86,2.43-1.18,2.47-2.86,2.47S25.6,95.83,25.6,94.35Z"/><path class="cls-3" d="M34.14,112.66c1.68,0,2.1-.72,2.1-1.42v-9.95c0-1-.47-1.48-2.07-1.48v-.17a17.19,17.19,0,0,0,6.69-1.09v12.69c0,.7.42,1.42,2.1,1.42v.17H34.14Zm9.86,0c1.65,0,2.07-.72,2.07-1.42V102.5c0-1.57-.81-2.38-2.21-2.38a3,3,0,0,0-2.13.87v-.17a5.72,5.72,0,0,1,4.65-2.27c2.52,0,4.31,1.18,4.31,4v8.74c0,.7.42,1.42,2.1,1.42v.17H44Z"/><path class="cls-3" d="M59.17,109.5a1.43,1.43,0,0,0-1.56,1.4c0,.81.56,1.85,2.49,2v.17c-3.72-.14-5.77-1.15-5.77-2.77a2.18,2.18,0,0,1,2.38-2.07A2.84,2.84,0,0,1,59.17,109.5Zm.93-10.78c-1,.2-2.05.73-2,1.87.09,3.25,9.16,3.79,9.16,8.24,0,2.71-2.3,4.14-5.91,4.28v-.17c1.18-.19,2.49-.61,2.49-2.07,0-2.91-9.18-4-9.18-8.23,0-2.47,2.32-4,5.46-4.09Zm6.61,2.72a1.84,1.84,0,0,1-2.08,1.73,2.41,2.41,0,0,1-2.38-1.34,1.27,1.27,0,0,0,1.27-1.32c0-.84-1.07-1.65-2.19-1.79v-.17C64.5,98.72,66.71,99.87,66.71,101.44Z"/><path class="cls-3" d="M75.5,109.16c0,1.57.53,2.38,1.93,2.38a2.44,2.44,0,0,0,1.93-.87v.17A4.65,4.65,0,0,1,75,113.11c-2.52,0-4.14-1.17-4.14-4v-7.87c0-1-.48-1.48-2.07-1.48v-.17a17.19,17.19,0,0,0,6.69-1.09Zm9.32,1.8c0,.81.25,1.14.76,1.14s.89-.42,1.34-1.26h.17c-.45,1.54-2,2.27-3.81,2.27S80.2,112,80.2,110.37v-9.08c0-1-.47-1.48-2-1.48v-.17a18.25,18.25,0,0,0,6.61-1.09Z"/><path class="cls-3" d="M94.93,111.24c0,.7.42,1.42,2.1,1.42v.17H88.21v-.17c1.68,0,2.1-.72,2.1-1.42v-9.95c0-1-.48-1.48-2.07-1.48v-.17a17.19,17.19,0,0,0,6.69-1.09Zm7.56-9.66a3,3,0,0,1-2.88,3.19,1.9,1.9,0,0,1-1.6-.62,2,2,0,0,0,1.09-1.9,1.49,1.49,0,0,0-1.57-1.51,1.94,1.94,0,0,0-1.68,1.06v-.22a3.88,3.88,0,0,1,3.64-3A2.85,2.85,0,0,1,102.49,101.58Z"/><path class="cls-3" d="M103.69,109.53c0-2.44,2.24-3.81,5.38-3.81h3v.17h-.84a2.77,2.77,0,0,0-3,3c0,1.54.44,2.72,1.76,2.72a3,3,0,0,0,2-1v.17a5.92,5.92,0,0,1-4.45,2.27C105.26,113.11,103.67,111.77,103.69,109.53Zm1.12-7.93c0-1.43,1.29-2.88,5.1-3v.17a2,2,0,0,0-1.79,2c0,1,.7,1.63,1.82,1.71a3.16,3.16,0,0,1-2.69,1.35A2.25,2.25,0,0,1,104.81,101.6Zm8.12,8.35v-8.57c0-1.37-.53-2.46-1.9-2.66v-.17c4.65.17,6.5,1.93,6.5,5.6V111c0,.81.28,1.14.78,1.14s.9-.42,1.34-1.26h.17c-.45,1.54-2,2.27-3.64,2.27C113.94,113.11,112.93,112.33,112.93,110Z"/><path class="cls-3" d="M120.69,112.66c1.68,0,2.1-.72,2.1-1.42v-9.95c0-1-.48-1.48-2.07-1.48v-.17a17.19,17.19,0,0,0,6.69-1.09v12.69c0,.7.42,1.42,2.1,1.42v.17h-8.82Zm9.86,0c1.65,0,2.07-.72,2.07-1.42V102.5c0-1.57-.81-2.38-2.21-2.38a3,3,0,0,0-2.13.87v-.17a5.69,5.69,0,0,1,4.65-2.27c2.52,0,4.31,1.18,4.31,4v8.74c0,.7.42,1.42,2.1,1.42v.17h-8.79Z"/><path class="cls-3" d="M148,98.72c-1.65.2-2.38,1.6-2.38,6.94,0,4,2,6.25,4.53,6.25a6.07,6.07,0,0,0,4.09-1.49v.17a7.82,7.82,0,0,1-5.93,2.52,7.32,7.32,0,0,1-7.48-7.33A7.18,7.18,0,0,1,148,98.55Zm6.21,3a2.6,2.6,0,0,1-2.8,2.69,2.37,2.37,0,0,1-2.43-1.76,2.43,2.43,0,0,0,1.34-2,1.65,1.65,0,0,0-1.2-1.84v-.2C152.81,98.55,154.23,100.12,154.23,101.71Z"/><path class="cls-3" d="M156.33,105.78a6.94,6.94,0,0,1,6.86-7.23v.17c-1.65.2-2.1,1.6-2.1,6.94,0,4,1.8,6.25,4.29,6.25a6.1,6.1,0,0,0,4.09-1.49v.17a7.86,7.86,0,0,1-5.94,2.52A7.1,7.1,0,0,1,156.33,105.78Zm6.3-1.18c2.47,0,3.5-.78,3.5-3.14,0-1.34-.56-2.57-1.82-2.74v-.17c3.7,0,5.49,2.63,5.49,4.76a7.77,7.77,0,0,1-.14,1.46h-7Z"/></g></svg>