<?xml version="1.0" encoding="utf-8"?>
<!-- Generator: Adobe Illustrator 24.0.3, SVG Export Plug-In . SVG Version: 6.00 Build 0)  -->
<svg version="1.1" id="Layer_1" xmlns="http://www.w3.org/2000/svg" xmlns:xlink="http://www.w3.org/1999/xlink" x="0px" y="0px"
	 viewBox="0 0 300 250" style="enable-background:new 0 0 300 250;" xml:space="preserve">
<style type="text/css">
	.st0{clip-path:url(#SVGID_2_);}
	.st1{enable-background:new    ;}
	.st2{fill:#FFFFFF;}
</style>
<title>Artboard 1</title>
<g>
	<defs>
		<rect id="SVGID_1_" y="0" width="300" height="250"/>
	</defs>
	<clipPath id="SVGID_2_">
		<use xlink:href="#SVGID_1_"  style="overflow:visible;"/>
	</clipPath>
	<g class="st0">
		<g class="st1">
			<path class="st2" d="M24.8,52.6c1.9,0,2.4-0.8,2.4-1.6V32.9c0-0.9-0.5-1.6-2.4-1.6v-0.2h10.2v0.2c-1.9,0-2.4,0.8-2.4,1.6V51
				c0,0.9,0.5,1.6,2.4,1.6v0.2H24.8V52.6z"/>
		</g>
		<g class="st1">
			<path class="st2" d="M49.1,50.4v0.2c-1,1.5-3.1,2.6-5.5,2.6c-2.9,0-4.9-1.3-4.9-4.5V38.1H37l0.4-0.5h1.3v-3.5
				c2,0,3.9-0.6,5.2-1.8v5.2h4.3l-0.4,0.5h-4v10.6c0,1.6,0.6,3.3,2.1,3.3C46.9,52,48,51.4,49.1,50.4z"/>
			<path class="st2" d="M57.9,52.6c1.9,0,2.4-0.8,2.4-1.6V39.6c0-1.2-0.5-1.7-2.4-1.7v-0.2c3,0,5.4-0.3,7.6-1.2V51
				c0,0.8,0.5,1.6,2.4,1.6v0.2H57.9V52.6z M69.2,52.6c1.9,0,2.4-0.8,2.4-1.6V41c0-1.8-0.9-2.7-2.5-2.7c-0.9,0-1.7,0.3-2.4,1v-0.2
				c0.9-1.3,2.9-2.6,5.3-2.6c2.9,0,4.9,1.3,4.9,4.5v10c0,0.8,0.5,1.6,2.4,1.6v0.2h-10V52.6z"/>
			<path class="st2" d="M81,44.8c0-5.4,4.1-8.2,7.8-8.3v0.2c-1.9,0.2-2.4,1.8-2.4,7.9c0,4.6,2,7.1,4.9,7.1c1.8,0,3.2-0.5,4.7-1.7
				v0.2c-1.7,2.1-4.7,2.9-6.8,2.9C85.1,53.2,81,50.1,81,44.8z M88.2,43.4c2.8,0,4-0.9,4-3.6c0-1.5-0.6-2.9-2.1-3.1v-0.2
				c4.2,0,6.3,3,6.3,5.4c0,0.5-0.1,1.2-0.2,1.7h-8V43.4z"/>
			<path class="st2" d="M99,44.8c0-5.4,4.1-8.2,7.8-8.3v0.2c-1.9,0.2-2.4,1.8-2.4,7.9c0,4.6,2,7.1,4.9,7.1c1.8,0,3.2-0.5,4.7-1.7
				v0.2c-1.7,2.1-4.7,2.9-6.8,2.9C103.1,53.2,99,50.1,99,44.8z M106.2,43.4c2.8,0,4-0.9,4-3.6c0-1.5-0.6-2.9-2.1-3.1v-0.2
				c4.2,0,6.3,3,6.3,5.4c0,0.5-0.1,1.2-0.2,1.7h-8V43.4z"/>
			<path class="st2" d="M128.4,39.1v0.3c-0.7-0.8-1.7-1.2-2.7-1.2c-1.6,0-3.1,0.7-3.1,6.5c0,5.8,1.6,6.8,3.1,6.8
				c1,0,1.9-0.5,2.7-1.1v0.2c-0.8,1.3-2.8,2.6-4.6,2.6c-3,0-6.6-1.8-6.6-8.5c0-6.4,3.5-8.2,6.6-8.2
				C125.6,36.5,127.6,37.7,128.4,39.1z M134.6,50.7c0,0.9,0.3,1.3,0.9,1.3c0.5,0,1-0.5,1.5-1.4h0.2c-0.5,1.8-2.2,2.6-4.2,2.6
				c-2.6,0-3.7-0.9-3.7-3.6V32.4c0-1.2-0.5-1.7-2.4-1.7v-0.2c3,0,5-0.3,7.6-1.2V50.7z"/>
			<path class="st2" d="M144.6,49c-1.1,0-1.8,0.6-1.8,1.6c0,0.9,0.6,2.1,2.8,2.3v0.2c-4.3-0.2-6.6-1.3-6.6-3.2
				c0-1.5,1.3-2.4,2.7-2.4C143.1,47.6,144.2,48.2,144.6,49z M145.7,36.7c-1.2,0.2-2.3,0.8-2.3,2.1c0.1,3.7,10.5,4.3,10.5,9.4
				c0,3.1-2.6,4.7-6.8,4.9V53c1.3-0.2,2.8-0.7,2.8-2.4c0-3.3-10.5-4.5-10.5-9.4c0-2.8,2.7-4.5,6.2-4.7V36.7z M153.2,39.8
				c0,1-0.8,2-2.4,2c-1.3,0-2.3-0.6-2.7-1.5c1-0.1,1.5-0.7,1.4-1.5c0-1-1.2-1.9-2.5-2v-0.2C150.7,36.7,153.2,38,153.2,39.8z"/>
		</g>
		<g class="st1">
			<path class="st2" d="M30.4,81c-1.1,0-1.8,0.6-1.8,1.6c0,0.9,0.6,2.1,2.8,2.3v0.2c-4.3-0.2-6.6-1.3-6.6-3.2c0-1.5,1.3-2.4,2.7-2.4
				C28.8,79.6,29.9,80.2,30.4,81z M31.4,68.7c-1.2,0.2-2.3,0.8-2.3,2.1c0.1,3.7,10.5,4.3,10.5,9.4c0,3.1-2.6,4.7-6.8,4.9V85
				c1.3-0.2,2.8-0.7,2.8-2.4c0-3.3-10.5-4.5-10.5-9.4c0-2.8,2.7-4.5,6.2-4.7V68.7z M39,71.8c0,1-0.8,2-2.4,2c-1.3,0-2.3-0.6-2.7-1.5
				c1-0.1,1.5-0.7,1.4-1.5c0-1-1.2-1.9-2.5-2v-0.2C36.4,68.7,39,70,39,71.8z"/>
			<path class="st2" d="M49.1,89.7c0,1.2,0.5,1.7,2.4,1.7v0.2c-3,0-5,0.3-7.6,1.2V71.6c0-1.2-0.5-1.7-2.4-1.7v-0.2
				c3,0,5-0.3,7.6-1.2V89.7z M61.3,76.7c0,6.7-3.5,8.5-6.6,8.5c-1.8,0-3.9-1.2-4.7-2.6v-0.2c0.8,0.6,1.7,1.1,2.7,1.1
				c1.5,0,3.1-1.1,3.1-6.8c0-5.8-1.5-6.5-3.1-6.5c-1,0-2,0.4-2.7,1.2v-0.3c0.8-1.3,2.8-2.6,4.7-2.6C57.8,68.5,61.3,70.3,61.3,76.7z"
				/>
			<path class="st2" d="M64.1,76.8c0-5.4,4.1-8.2,7.8-8.3v0.2c-1.9,0.2-2.4,1.8-2.4,7.9c0,4.6,2,7.1,4.9,7.1c1.8,0,3.2-0.5,4.7-1.7
				v0.2c-1.7,2.1-4.7,2.9-6.8,2.9C68.2,85.2,64.1,82.1,64.1,76.8z M71.3,75.4c2.8,0,4-0.9,4-3.6c0-1.5-0.6-2.9-2.1-3.1v-0.2
				c4.2,0,6.3,3,6.3,5.4c0,0.5-0.1,1.2-0.2,1.7h-8V75.4z"/>
			<path class="st2" d="M90.3,68.7c-1.9,0.2-2.7,1.8-2.7,7.9c0,4.6,2.3,7.1,5.2,7.1c1.8,0,3.2-0.5,4.7-1.7v0.2
				c-1.7,2.1-4.7,2.9-6.8,2.9c-4.1,0-8.5-3-8.5-8.4s4.4-8.2,8.2-8.3V68.7z M97.4,72.1c0,1.7-1.2,3.1-3.2,3.1c-1.6,0-2.6-1-2.8-2
				c0.9-0.4,1.5-1.5,1.5-2.3c0-0.7-0.2-1.9-1.4-2.1v-0.2C95.8,68.5,97.4,70.3,97.4,72.1z"/>
			<path class="st2" d="M99.3,69.7c3,0,5.4-0.3,7.6-1.2V83c0,0.8,0.5,1.6,2.4,1.6v0.2H99.3v-0.2c1.9,0,2.4-0.8,2.4-1.6V71.6
				c0-1.2-0.5-1.7-2.4-1.7V69.7z M100.9,63.7c0-1.7,1.3-2.8,3.3-2.8s3.3,1.1,3.3,2.8c0,1.7-1.3,2.8-3.3,2.8S100.9,65.4,100.9,63.7z"
				/>
			<path class="st2" d="M110.9,81.1c0-2.8,2.6-4.4,6.1-4.4h3.5v0.2h-1c-2.3,0-3.4,1.5-3.4,3.5c0,1.8,0.5,3.1,2,3.1
				c0.9,0,1.6-0.5,2.3-1.1v0.2c-1.1,1.2-2.8,2.6-5.1,2.6C112.7,85.2,110.9,83.6,110.9,81.1z M112.2,72c0-1.6,1.5-3.3,5.8-3.5v0.2
				c-1.3,0.2-2,1.2-2,2.3c0,1.2,0.8,1.9,2.1,2c-0.5,0.9-1.8,1.5-3.1,1.5C113.2,74.5,112.2,73.3,112.2,72z M121.5,81.5v-9.8
				c0-1.6-0.6-2.8-2.2-3v-0.2c5.3,0.2,7.4,2.2,7.4,6.4v7.8c0,0.9,0.3,1.3,0.9,1.3c0.5,0,1-0.5,1.5-1.4h0.2c-0.5,1.8-2.2,2.6-4.2,2.6
				C122.6,85.2,121.5,84.3,121.5,81.5z"/>
			<path class="st2" d="M130.2,62.6c3,0,5.4-0.3,7.6-1.2V83c0,0.8,0.5,1.6,2.4,1.6v0.2h-10.1v-0.2c1.9,0,2.4-0.8,2.4-1.6V64.4
				c0-1.2-0.5-1.7-2.4-1.7V62.6z"/>
			<path class="st2" d="M141.7,69.7c3,0,5.4-0.3,7.6-1.2V83c0,0.8,0.5,1.6,2.4,1.6v0.2h-10.1v-0.2c1.9,0,2.4-0.8,2.4-1.6V71.6
				c0-1.2-0.5-1.7-2.4-1.7V69.7z M143.3,63.7c0-1.7,1.3-2.8,3.3-2.8s3.3,1.1,3.3,2.8c0,1.7-1.3,2.8-3.3,2.8S143.3,65.4,143.3,63.7z"
				/>
			<path class="st2" d="M159.2,81c-1.1,0-1.8,0.6-1.8,1.6c0,0.9,0.6,2.1,2.8,2.3v0.2c-4.3-0.2-6.6-1.3-6.6-3.2
				c0-1.5,1.3-2.4,2.7-2.4C157.7,79.6,158.7,80.2,159.2,81z M160.2,68.7c-1.2,0.2-2.3,0.8-2.3,2.1c0.1,3.7,10.5,4.3,10.5,9.4
				c0,3.1-2.6,4.7-6.8,4.9V85c1.3-0.2,2.8-0.7,2.8-2.4c0-3.3-10.5-4.5-10.5-9.4c0-2.8,2.7-4.5,6.2-4.7V68.7z M167.8,71.8
				c0,1-0.8,2-2.4,2c-1.3,0-2.3-0.6-2.7-1.5c1-0.1,1.5-0.7,1.4-1.5c0-1-1.2-1.9-2.5-2v-0.2C165.3,68.7,167.8,70,167.8,71.8z"/>
			<path class="st2" d="M182.9,82.4v0.2c-1,1.5-3.1,2.6-5.5,2.6c-2.9,0-4.9-1.3-4.9-4.5V70.1h-1.7l0.4-0.5h1.3v-3.5
				c2,0,3.9-0.6,5.2-1.8v5.2h4.3l-0.4,0.5h-4v10.6c0,1.6,0.6,3.3,2.1,3.3C180.8,84,181.9,83.4,182.9,82.4z"/>
		</g>
		<g class="st1">
			<path class="st2" d="M24.3,101.7c3,0,5.4-0.3,7.6-1.2V115c0,0.8,0.5,1.6,2.4,1.6v0.2H24.2v-0.2c1.9,0,2.4-0.8,2.4-1.6v-11.4
				c0-1.2-0.5-1.7-2.4-1.7V101.7z M25.9,95.7c0-1.7,1.3-2.8,3.3-2.8s3.3,1.1,3.3,2.8c0,1.7-1.3,2.8-3.3,2.8S25.9,97.4,25.9,95.7z"/>
			<path class="st2" d="M35.7,116.6c1.9,0,2.4-0.8,2.4-1.6v-11.4c0-1.2-0.5-1.7-2.4-1.7v-0.2c3,0,5.4-0.3,7.6-1.2V115
				c0,0.8,0.5,1.6,2.4,1.6v0.2H35.7V116.6z M46.9,116.6c1.9,0,2.4-0.8,2.4-1.6v-10c0-1.8-0.9-2.7-2.5-2.7c-0.9,0-1.7,0.3-2.4,1v-0.2
				c0.9-1.3,2.9-2.6,5.3-2.6c2.9,0,4.9,1.3,4.9,4.5v10c0,0.8,0.5,1.6,2.4,1.6v0.2h-10V116.6z"/>
			<path class="st2" d="M64.3,113c-1.1,0-1.8,0.6-1.8,1.6c0,0.9,0.6,2.1,2.8,2.3v0.2c-4.3-0.2-6.6-1.3-6.6-3.2
				c0-1.5,1.3-2.4,2.7-2.4C62.7,111.6,63.8,112.2,64.3,113z M65.3,100.7c-1.2,0.2-2.3,0.8-2.3,2.1c0.1,3.7,10.5,4.3,10.5,9.4
				c0,3.1-2.6,4.7-6.8,4.9V117c1.3-0.2,2.8-0.7,2.8-2.4c0-3.3-10.5-4.5-10.5-9.4c0-2.8,2.7-4.5,6.2-4.7V100.7z M72.9,103.8
				c0,1-0.8,2-2.4,2c-1.3,0-2.3-0.6-2.7-1.5c1-0.1,1.5-0.7,1.4-1.5c0-1-1.2-1.9-2.5-2v-0.2C70.4,100.7,72.9,102,72.9,103.8z"/>
			<path class="st2" d="M82.9,112.6c0,1.8,0.6,2.7,2.2,2.7c0.8,0,1.5-0.3,2.2-1v0.2c-0.7,1.4-2.4,2.6-5,2.6c-2.9,0-4.7-1.3-4.7-4.5
				v-9c0-1.2-0.5-1.7-2.4-1.7v-0.2c3,0,5.4-0.3,7.6-1.2V112.6z M93.6,114.7c0,0.9,0.3,1.3,0.9,1.3c0.5,0,1-0.5,1.5-1.4h0.2
				c-0.5,1.8-2.2,2.6-4.4,2.6c-2.2,0-3.5-1.3-3.5-3.1v-10.4c0-1.2-0.5-1.7-2.3-1.7v-0.2c2.9,0,4.9-0.3,7.6-1.2V114.7z"/>
		</g>
		<g class="st1">
			<path class="st2" d="M105.1,115c0,0.8,0.5,1.6,2.4,1.6v0.2H97.5v-0.2c1.9,0,2.4-0.8,2.4-1.6v-11.4c0-1.2-0.5-1.7-2.4-1.7v-0.2
				c3,0,5.4-0.3,7.6-1.2V115z M113.8,104c0,2.2-1.6,3.6-3.3,3.6c-0.8,0-1.4-0.2-1.8-0.7c0.6-0.3,1.2-1,1.2-2.2
				c0-0.9-0.7-1.7-1.8-1.7c-0.8,0-1.5,0.5-1.9,1.2V104c0.6-2,2.2-3.5,4.2-3.5C112.6,100.5,113.8,102,113.8,104z"/>
		</g>
		<g class="st1">
			<path class="st2" d="M115.2,113.1c0-2.8,2.6-4.4,6.1-4.4h3.5v0.2h-1c-2.3,0-3.4,1.5-3.4,3.5c0,1.8,0.5,3.1,2,3.1
				c0.9,0,1.6-0.5,2.3-1.1v0.2c-1.1,1.2-2.8,2.6-5.1,2.6C117,117.2,115.1,115.6,115.2,113.1z M116.4,104c0-1.6,1.5-3.3,5.8-3.5v0.2
				c-1.3,0.2-2,1.2-2,2.3c0,1.2,0.8,1.9,2.1,2c-0.5,0.9-1.8,1.5-3.1,1.5C117.5,106.5,116.4,105.3,116.4,104z M125.7,113.5v-9.8
				c0-1.6-0.6-2.8-2.2-3v-0.2c5.3,0.2,7.4,2.2,7.4,6.4v7.8c0,0.9,0.3,1.3,0.9,1.3c0.5,0,1-0.5,1.5-1.4h0.2c-0.5,1.8-2.2,2.6-4.2,2.6
				C126.9,117.2,125.7,116.3,125.7,113.5z"/>
			<path class="st2" d="M134.6,116.6c1.9,0,2.4-0.8,2.4-1.6v-11.4c0-1.2-0.5-1.7-2.4-1.7v-0.2c3,0,5.4-0.3,7.6-1.2V115
				c0,0.8,0.5,1.6,2.4,1.6v0.2h-10.1V116.6z M145.9,116.6c1.9,0,2.4-0.8,2.4-1.6v-10c0-1.8-0.9-2.7-2.5-2.7c-0.9,0-1.7,0.3-2.4,1
				v-0.2c0.9-1.3,2.9-2.6,5.3-2.6c2.9,0,4.9,1.3,4.9,4.5v10c0,0.8,0.5,1.6,2.4,1.6v0.2h-10V116.6z"/>
			<path class="st2" d="M165.8,100.7c-1.9,0.2-2.7,1.8-2.7,7.9c0,4.6,2.3,7.1,5.2,7.1c1.8,0,3.2-0.5,4.7-1.7v0.2
				c-1.7,2.1-4.7,2.9-6.8,2.9c-4.1,0-8.5-3-8.5-8.4s4.4-8.2,8.2-8.3V100.7z M172.9,104.1c0,1.7-1.2,3.1-3.2,3.1c-1.6,0-2.6-1-2.8-2
				c0.9-0.4,1.5-1.5,1.5-2.3c0-0.7-0.2-1.9-1.4-2.1v-0.2C171.3,100.5,172.9,102.3,172.9,104.1z"/>
			<path class="st2" d="M175.3,108.8c0-5.4,4.1-8.2,7.8-8.3v0.2c-1.9,0.2-2.4,1.8-2.4,7.9c0,4.6,2,7.1,4.9,7.1
				c1.8,0,3.2-0.5,4.7-1.7v0.2c-1.7,2.1-4.7,2.9-6.8,2.9C179.5,117.2,175.3,114.1,175.3,108.8z M182.5,107.4c2.8,0,4-0.9,4-3.6
				c0-1.5-0.6-2.9-2.1-3.1v-0.2c4.2,0,6.3,3,6.3,5.4c0,0.5-0.1,1.2-0.2,1.7h-8V107.4z"/>
		</g>
	</g>
</g>
</svg>
