<?xml version="1.0" encoding="utf-8"?>
<!-- Generator: Adobe Illustrator 24.0.3, SVG Export Plug-In . SVG Version: 6.00 Build 0)  -->
<svg version="1.1" id="Layer_1" xmlns="http://www.w3.org/2000/svg" xmlns:xlink="http://www.w3.org/1999/xlink" x="0px" y="0px"
	 viewBox="0 0 300 250" style="enable-background:new 0 0 300 250;" xml:space="preserve">
<style type="text/css">
	.st0{clip-path:url(#SVGID_2_);}
	.st1{enable-background:new    ;}
	.st2{fill:#263845;}
</style>
<title>Artboard 8 copy</title>
<g>
	<defs>
		<rect id="SVGID_1_" y="0" width="300" height="250"/>
	</defs>
	<clipPath id="SVGID_2_">
		<use xlink:href="#SVGID_1_"  style="overflow:visible;"/>
	</clipPath>
	<g class="st0">
		<g class="st1">
			<path class="st2" d="M20,50.9c1.9,0,2.4-0.8,2.4-1.6V31.2c0-0.9-0.5-1.6-2.4-1.6v-0.2h10.2v0.2c-1.9,0-2.4,0.8-2.4,1.6v18.1
				c0,0.9,0.5,1.6,2.4,1.6v0.2H20V50.9z"/>
		</g>
		<g class="st1">
			<path class="st2" d="M38.1,47.3c-1.1,0-1.8,0.6-1.8,1.6c0,0.9,0.6,2.1,2.8,2.3v0.2c-4.3-0.2-6.6-1.3-6.6-3.2
				c0-1.5,1.3-2.4,2.7-2.4C36.5,45.9,37.6,46.5,38.1,47.3z M39.1,35c-1.2,0.2-2.3,0.8-2.3,2.1c0.1,3.7,10.5,4.3,10.5,9.4
				c0,3.1-2.6,4.7-6.8,4.9v-0.2c1.3-0.2,2.8-0.7,2.8-2.4c0-3.3-10.5-4.5-10.5-9.4c0-2.8,2.7-4.5,6.2-4.7V35z M46.7,38.1
				c0,1-0.8,2-2.4,2c-1.3,0-2.3-0.6-2.7-1.5c1-0.1,1.5-0.7,1.4-1.5c0-1-1.2-1.9-2.5-2v-0.2C44.2,35,46.7,36.3,46.7,38.1z"/>
		</g>
		<g class="st1">
			<path class="st2" d="M57.3,36.4c-0.3-0.7-0.8-1.1-1.8-1.1v-0.2h9v0.2c-1.1,0-1.6,0.8-1,1.9l4.2,8.7l-2.8,5.2h-0.2L57.3,36.4z
				 M55.9,56.2c0-1.4,1.1-2.5,2.8-3c-0.1,0.3-0.1,0.5-0.1,0.8c0,1.2,0.6,2.1,1.9,2.1c1.1,0,2-1.2,3.2-3.2h0.2
				c-1.8,3.3-3,6.1-5.2,6.1C56.9,59.1,55.9,57.9,55.9,56.2z M69,42.8c0.5-1,0.9-2.4,0.9-4.1c0-1.8-1-3.4-3.3-3.4v-0.2h8v0.2
				c-1.1,0-1.5,0.4-2.1,1.5l-3.3,6.3L69,42.8z"/>
		</g>
		<g class="st1">
			<path class="st2" d="M82.8,35c-1.9,0.2-2.5,1.8-2.5,8.1c0,6,0.6,8,2.5,8.2v0.2c-3.7,0-8-3-8-8.4s4.2-8.2,8-8.3V35z M92,43
				c0,5.3-4.3,8.4-7.9,8.4v-0.2c1.9-0.2,2.5-2.2,2.5-8.2c0-6.3-0.6-7.9-2.5-8.1v-0.2C87.7,34.8,92,37.6,92,43z"/>
			<path class="st2" d="M101.4,46.9c0,1.8,0.6,2.7,2.2,2.7c0.8,0,1.5-0.3,2.2-1v0.2c-0.7,1.4-2.4,2.6-5,2.6c-2.9,0-4.7-1.3-4.7-4.5
				v-9c0-1.2-0.5-1.7-2.4-1.7V36c3,0,5.4-0.3,7.6-1.2V46.9z M112.1,48.9c0,0.9,0.3,1.3,0.9,1.3c0.5,0,1-0.5,1.5-1.4h0.2
				c-0.5,1.8-2.2,2.6-4.4,2.6c-2.2,0-3.5-1.3-3.5-3.1V37.9c0-1.2-0.5-1.7-2.3-1.7V36c2.9,0,4.9-0.3,7.6-1.2V48.9z"/>
		</g>
		<g class="st1">
			<path class="st2" d="M123.6,49.3c0,0.8,0.5,1.6,2.4,1.6v0.2h-10.1v-0.2c1.9,0,2.4-0.8,2.4-1.6V37.9c0-1.2-0.5-1.7-2.4-1.7V36
				c3,0,5.4-0.3,7.6-1.2V49.3z M132.2,38.2c0,2.2-1.6,3.6-3.3,3.6c-0.8,0-1.4-0.2-1.8-0.7c0.6-0.3,1.2-1,1.2-2.2
				c0-0.9-0.7-1.7-1.8-1.7c-0.8,0-1.5,0.5-1.9,1.2v-0.3c0.6-2,2.2-3.5,4.2-3.5C131,34.8,132.2,36.3,132.2,38.2z"/>
		</g>
		<g class="st1">
			<path class="st2" d="M28.2,67c-1.9,0.2-2.7,1.8-2.7,7.9c0,4.6,2.3,7.1,5.2,7.1c1.8,0,3.2-0.5,4.7-1.7v0.2
				c-1.7,2.1-4.7,2.9-6.8,2.9c-4.1,0-8.5-3-8.5-8.4s4.4-8.2,8.2-8.3V67z M35.3,70.4c0,1.7-1.2,3.1-3.2,3.1c-1.6,0-2.6-1-2.8-2
				c0.9-0.4,1.5-1.5,1.5-2.3c0-0.7-0.2-1.9-1.4-2.1v-0.2C33.6,66.8,35.3,68.6,35.3,70.4z"/>
			<path class="st2" d="M37.3,79.3c0-2.8,2.6-4.4,6.1-4.4h3.5v0.2h-1c-2.3,0-3.4,1.5-3.4,3.5c0,1.8,0.5,3.1,2,3.1
				c0.9,0,1.6-0.5,2.3-1.1v0.2c-1.1,1.2-2.8,2.6-5.1,2.6C39.1,83.4,37.3,81.9,37.3,79.3z M38.6,70.3c0-1.6,1.5-3.3,5.8-3.5V67
				c-1.3,0.2-2,1.2-2,2.3c0,1.2,0.8,1.9,2.1,2c-0.5,0.9-1.8,1.5-3.1,1.5C39.6,72.8,38.6,71.6,38.6,70.3z M47.9,79.8V70
				c0-1.6-0.6-2.8-2.2-3v-0.2c5.3,0.2,7.4,2.2,7.4,6.4v7.8c0,0.9,0.3,1.3,0.9,1.3c0.5,0,1-0.5,1.5-1.4h0.2c-0.5,1.8-2.2,2.6-4.2,2.6
				C49.1,83.4,47.9,82.5,47.9,79.8z"/>
		</g>
		<g class="st1">
			<path class="st2" d="M64.4,81.3c0,0.8,0.5,1.6,2.4,1.6v0.2H56.8v-0.2c1.9,0,2.4-0.8,2.4-1.6V69.9c0-1.2-0.5-1.7-2.4-1.7V68
				c3,0,5.4-0.3,7.6-1.2V81.3z M73.1,70.2c0,2.2-1.6,3.6-3.3,3.6c-0.8,0-1.4-0.2-1.8-0.7c0.6-0.3,1.2-1,1.2-2.2
				c0-0.9-0.7-1.7-1.8-1.7c-0.8,0-1.5,0.5-1.9,1.2v-0.3c0.6-2,2.2-3.5,4.2-3.5C71.9,66.8,73.1,68.3,73.1,70.2z"/>
		</g>
		<g class="st1">
			<path class="st2" d="M25.5,111.3c-1.1,0-1.8,0.6-1.8,1.6c0,0.9,0.6,2.1,2.8,2.3v0.2c-4.3-0.2-6.6-1.3-6.6-3.2
				c0-1.5,1.3-2.4,2.7-2.4C24,109.9,25.1,110.5,25.5,111.3z M26.6,99c-1.2,0.2-2.3,0.8-2.3,2.1c0.1,3.7,10.5,4.3,10.5,9.4
				c0,3.1-2.6,4.7-6.8,4.9v-0.2c1.3-0.2,2.8-0.7,2.8-2.4c0-3.3-10.5-4.5-10.5-9.4c0-2.8,2.7-4.5,6.2-4.7V99z M34.1,102.1
				c0,1-0.8,2-2.4,2c-1.3,0-2.3-0.6-2.7-1.5c1-0.1,1.5-0.7,1.4-1.5c0-1-1.2-1.9-2.5-2v-0.2C31.6,99,34.1,100.3,34.1,102.1z"/>
			<path class="st2" d="M44.3,120c0,1.2,0.5,1.7,2.4,1.7v0.2c-3,0-5,0.3-7.6,1.2v-21.2c0-1.2-0.5-1.7-2.4-1.7V100c3,0,5-0.3,7.6-1.2
				V120z M56.4,106.9c0,6.7-3.5,8.5-6.6,8.5c-1.8,0-3.9-1.2-4.7-2.6v-0.2c0.8,0.6,1.7,1.1,2.7,1.1c1.5,0,3.1-1.1,3.1-6.8
				c0-5.8-1.5-6.5-3.1-6.5c-1,0-2,0.4-2.7,1.2v-0.3c0.8-1.3,2.8-2.6,4.7-2.6C53,98.8,56.4,100.6,56.4,106.9z"/>
			<path class="st2" d="M59.3,107c0-5.4,4.1-8.2,7.8-8.3V99c-1.9,0.2-2.4,1.8-2.4,7.9c0,4.6,2,7.1,4.9,7.1c1.8,0,3.2-0.5,4.7-1.7
				v0.2c-1.7,2.1-4.7,2.9-6.8,2.9C63.4,115.4,59.3,112.4,59.3,107z M66.5,105.7c2.8,0,4-0.9,4-3.6c0-1.5-0.6-2.9-2.1-3.1v-0.2
				c4.2,0,6.3,3,6.3,5.4c0,0.5-0.1,1.2-0.2,1.7h-8V105.7z"/>
			<path class="st2" d="M85.5,99c-1.9,0.2-2.7,1.8-2.7,7.9c0,4.6,2.3,7.1,5.2,7.1c1.8,0,3.2-0.5,4.7-1.7v0.2
				c-1.7,2.1-4.7,2.9-6.8,2.9c-4.1,0-8.5-3-8.5-8.4s4.4-8.2,8.2-8.3V99z M92.6,102.4c0,1.7-1.2,3.1-3.2,3.1c-1.6,0-2.6-1-2.8-2
				c0.9-0.4,1.5-1.5,1.5-2.3c0-0.7-0.2-1.9-1.4-2.1v-0.2C90.9,98.8,92.6,100.6,92.6,102.4z"/>
			<path class="st2" d="M94.5,100c3,0,5.4-0.3,7.6-1.2v14.5c0,0.8,0.5,1.6,2.4,1.6v0.2H94.4v-0.2c1.9,0,2.4-0.8,2.4-1.6v-11.4
				c0-1.2-0.5-1.7-2.4-1.7V100z M96.1,94c0-1.7,1.3-2.8,3.3-2.8s3.3,1.1,3.3,2.8c0,1.7-1.3,2.8-3.3,2.8S96.1,95.7,96.1,94z"/>
			<path class="st2" d="M106.1,111.3c0-2.8,2.6-4.4,6.1-4.4h3.5v0.2h-1c-2.3,0-3.4,1.5-3.4,3.5c0,1.8,0.5,3.1,2,3.1
				c0.9,0,1.6-0.5,2.3-1.1v0.2c-1.1,1.2-2.8,2.6-5.1,2.6C107.9,115.4,106.1,113.9,106.1,111.3z M107.4,102.3c0-1.6,1.5-3.3,5.8-3.5
				V99c-1.3,0.2-2,1.2-2,2.3c0,1.2,0.8,1.9,2.1,2c-0.5,0.9-1.8,1.5-3.1,1.5C108.4,104.8,107.4,103.6,107.4,102.3z M116.7,111.8V102
				c0-1.6-0.6-2.8-2.2-3v-0.2c5.3,0.2,7.4,2.2,7.4,6.4v7.8c0,0.9,0.3,1.3,0.9,1.3c0.5,0,1-0.5,1.5-1.4h0.2c-0.5,1.8-2.2,2.6-4.2,2.6
				C117.8,115.4,116.7,114.5,116.7,111.8z"/>
			<path class="st2" d="M125.4,92.8c3,0,5.4-0.3,7.6-1.2v21.7c0,0.8,0.5,1.6,2.4,1.6v0.2h-10.1v-0.2c1.9,0,2.4-0.8,2.4-1.6V94.7
				c0-1.2-0.5-1.7-2.4-1.7V92.8z"/>
			<path class="st2" d="M137,97.3c0-2.8,3.8-4.2,6.8-4.3v0.2c-1.5,0.4-2.3,1.8-2.3,3.1c0,1.2,0.4,2.2,1.8,2.8
				c-0.5,0.8-1.6,1.3-2.9,1.3C138.6,100.3,137,99.4,137,97.3z M141.7,114.3c0-1.8,1.4-2.9,3.4-2.9c2,0,3.4,1.2,3.4,2.9
				c0,1.8-1.4,2.9-3.4,2.9C143.1,117.3,141.7,116.1,141.7,114.3z M142.6,105.3c0-3.6,5.1-4.6,5.1-8.7c0-1.7-0.6-2.8-2.3-3.4V93
				c4.4,0.3,7.7,1.7,7.7,5.3c0,4.4-6.9,5.7-6.9,8.5c0,0.8,0.3,1.4,1.2,1.9l0,0.2C144.1,108.9,142.6,107.3,142.6,105.3z"/>
		</g>
	</g>
</g>
</svg>
