<svg id="Layer_1" data-name="Layer 1" xmlns="http://www.w3.org/2000/svg" xmlns:xlink="http://www.w3.org/1999/xlink" viewBox="0 0 300 250"><defs><style>.cls-1{fill:none;}.cls-2{clip-path:url(#clip-path);}.cls-3{fill:#fff;}</style><clipPath id="clip-path"><rect class="cls-1" width="300" height="250"/></clipPath></defs><title>Artboard 1 copy</title><g class="cls-2"><path class="cls-3" d="M33.7,35.51v.17c-2,.25-3.42,2.27-3.42,9.46s1.4,9.55,3.42,9.8v.17a9.36,9.36,0,0,1-8.91-9.8A9.7,9.7,0,0,1,33.7,35.51Zm1.37.17v-.17c2.88.14,4.48.56,5.74,1.32l.87-1.32h.22v6.81h-.22A8.63,8.63,0,0,0,35.07,35.68ZM44.56,46.8V47c-1.32,0-2.07.51-2.07,1.66v6.49h-.23l-1-1.68a11,11,0,0,1-6.16,1.68v-.17c1.9-.14,3-1.14,3-3.41V48.62c0-1.15-.5-1.66-2.1-1.66V46.8Z"/><path class="cls-3" d="M46.27,47.78a6.93,6.93,0,0,1,6.86-7.23v.17c-1.65.2-2.1,1.6-2.1,6.94,0,4,1.79,6.25,4.28,6.25a6.09,6.09,0,0,0,4.09-1.49v.17a7.86,7.86,0,0,1-5.94,2.52A7.09,7.09,0,0,1,46.27,47.78Zm6.3-1.18c2.46,0,3.5-.78,3.5-3.14,0-1.34-.56-2.57-1.82-2.74v-.17c3.69,0,5.49,2.63,5.49,4.76a8.71,8.71,0,0,1-.14,1.46h-7Z"/><path class="cls-3" d="M72.39,52.68v.16a5.85,5.85,0,0,1-4.79,2.27c-2.52,0-4.31-1.15-4.31-4V42H61.83l.31-.42h1.15v-3A7.09,7.09,0,0,0,67.88,37v4.59h3.78l-.3.42H67.88v9.27c0,1.4.54,2.85,1.85,2.85A4.11,4.11,0,0,0,72.39,52.68Z"/><path class="cls-3" d="M80.4,51.53c0-2.44,2.24-3.81,5.37-3.81h3v.17H88a2.77,2.77,0,0,0-3,3c0,1.54.45,2.72,1.76,2.72a3.08,3.08,0,0,0,2-1v.16a5.93,5.93,0,0,1-4.45,2.27C82,55.11,80.37,53.77,80.4,51.53Zm1.12-7.93c0-1.42,1.29-2.88,5.09-3.05v.17a2,2,0,0,0-1.79,2c0,1,.7,1.63,1.82,1.71A3.13,3.13,0,0,1,84,45.82,2.25,2.25,0,0,1,81.52,43.6ZM89.64,52V43.38c0-1.37-.53-2.46-1.91-2.66v-.17c4.65.17,6.5,1.93,6.5,5.6V53c0,.81.28,1.14.78,1.14s.9-.42,1.35-1.26h.17c-.45,1.54-2,2.27-3.64,2.27C90.65,55.11,89.64,54.33,89.64,52Z"/><path class="cls-3" d="M115,42.79V43a3.16,3.16,0,0,0-2.35-1c-1.4,0-2.72.64-2.72,5.71s1.4,6,2.72,6a4,4,0,0,0,2.35-1v.16a5.24,5.24,0,0,1-4.09,2.27c-2.66,0-5.74-1.57-5.74-7.42,0-5.57,3-7.14,5.74-7.14A5.24,5.24,0,0,1,115,42.79Zm5.46,16.3c0,1,.48,1.48,2.07,1.48v.17a18.39,18.39,0,0,0-6.69,1.09V41.59a17.71,17.71,0,0,0,4.62-1.07Z"/><path class="cls-3" d="M129.79,51.16c0,1.57.53,2.38,1.93,2.38a2.46,2.46,0,0,0,1.93-.86v.16a4.65,4.65,0,0,1-4.34,2.27c-2.52,0-4.14-1.17-4.14-4V43.3c0-1-.48-1.49-2.07-1.49v-.17a17.19,17.19,0,0,0,6.69-1.09Zm9.32,1.8c0,.81.26,1.14.76,1.14s.9-.42,1.34-1.26h.17c-.45,1.54-2,2.27-3.81,2.27s-3.08-1.12-3.08-2.74V43.3c0-1-.47-1.49-2-1.49v-.17a18.19,18.19,0,0,0,6.6-1.09Z"/><path class="cls-3" d="M150,40.72c-1.65.2-2.21,1.6-2.21,7.06,0,5.26.56,7,2.21,7.16v.17a7.13,7.13,0,0,1-7-7.33,7,7,0,0,1,7-7.23ZM158,47.78a7.13,7.13,0,0,1-6.94,7.33v-.17c1.65-.16,2.18-1.93,2.18-7.16,0-5.49-.56-6.89-2.18-7.06v-.17A7,7,0,0,1,158,47.78Z"/><path class="cls-3" d="M170.75,52.68v.16A5.83,5.83,0,0,1,166,55.11c-2.52,0-4.32-1.15-4.32-4V42H160.2l.31-.42h1.14v-3a7.14,7.14,0,0,0,4.6-1.57v4.59H170l-.31.42h-3.47v9.27c0,1.4.53,2.85,1.84,2.85A4.11,4.11,0,0,0,170.75,52.68Z"/><path class="cls-3" d="M171.79,47.78a6.93,6.93,0,0,1,6.86-7.23v.17c-1.65.2-2.1,1.6-2.1,6.94,0,4,1.79,6.25,4.28,6.25a6.07,6.07,0,0,0,4.09-1.49v.17A7.82,7.82,0,0,1,179,55.11,7.09,7.09,0,0,1,171.79,47.78Zm6.3-1.18c2.46,0,3.5-.78,3.5-3.14,0-1.34-.56-2.57-1.82-2.74v-.17c3.7,0,5.49,2.63,5.49,4.76a8.71,8.71,0,0,1-.14,1.46h-7Z"/><path class="cls-3" d="M33.86,71.56l-.3.42H30.81V83.24c0,.7.45,1.42,2.13,1.42v.17H24.09v-.17c1.68,0,2.1-.72,2.1-1.42V72H24.37l.31-.42h1.51V70.3c0-4,2.07-5.66,4.65-6v.17c-.95.36-1.65,1.26-1.65,3S30.28,71.56,33.86,71.56Zm2.38-4.28a2.37,2.37,0,0,1-2.43,2.46A2.9,2.9,0,0,1,31,67.86a1.77,1.77,0,0,0,2-1.79,1.62,1.62,0,0,0-1-1.65v-.17C34.93,64.36,36.24,65.68,36.24,67.28Z"/><path class="cls-3" d="M41.51,83.24c0,.7.42,1.42,2.1,1.42v.17H34.79v-.17c1.68,0,2.1-.72,2.1-1.42V73.3c0-1-.48-1.49-2.07-1.49v-.17a17.19,17.19,0,0,0,6.69-1.09Zm7.56-9.66a3,3,0,0,1-2.89,3.19,1.88,1.88,0,0,1-1.59-.62,2,2,0,0,0,1.09-1.9,1.49,1.49,0,0,0-1.57-1.51,1.93,1.93,0,0,0-1.68,1.06v-.22a3.87,3.87,0,0,1,3.64-3A2.85,2.85,0,0,1,49.07,73.58Z"/><path class="cls-3" d="M57.55,70.72c-1.65.2-2.21,1.6-2.21,7.06,0,5.26.56,7,2.21,7.16v.17a7.13,7.13,0,0,1-7-7.33,7,7,0,0,1,7-7.23Zm8.07,7.06a7.14,7.14,0,0,1-7,7.33v-.17c1.65-.16,2.19-1.93,2.19-7.16,0-5.49-.57-6.89-2.19-7.06v-.17A7,7,0,0,1,65.62,77.78Z"/><path class="cls-3" d="M74.18,83.24c0,.7.42,1.42,2.1,1.42v.17H67.46v-.17c1.68,0,2.1-.72,2.1-1.42V73.3c0-1-.47-1.49-2.07-1.49v-.17a17.19,17.19,0,0,0,6.69-1.09Zm9.3-8.74v8.74c0,.7.39,1.42,2.07,1.42v.17H76.76v-.17c1.65,0,2.1-.72,2.1-1.42V74.5c0-1.57-.62-2.38-2-2.38a2.46,2.46,0,0,0-1.85.84v-.17a4.53,4.53,0,0,1,4.09-2.24C81.8,70.55,83.48,71.73,83.48,74.5Zm9.27,0v8.74c0,.7.42,1.42,2.1,1.42v.17H86v-.17c1.65,0,2.1-.72,2.1-1.42V74.5c0-1.57-.62-2.38-2-2.38a2.44,2.44,0,0,0-1.85.84v-.17a4.53,4.53,0,0,1,4.09-2.24C91.07,70.55,92.75,71.73,92.75,74.5Z"/><path class="cls-3" d="M102.77,72a1.51,1.51,0,0,0-1.54-1v-.17h7.84V71c-1,0-1.37.67-.9,1.65l3.67,7.65-2.41,4.53h-.16Zm-1.23,17.36A2.93,2.93,0,0,1,104,86.71a2.22,2.22,0,0,0-.11.7,1.63,1.63,0,0,0,1.65,1.87c1,0,1.77-1,2.83-2.82h.2C107,89.34,106,91.83,104,91.83A2.32,2.32,0,0,1,101.54,89.34ZM113,77.55a7.61,7.61,0,0,0,.78-3.61A2.71,2.71,0,0,0,111,71v-.17h7V71c-.92,0-1.29.36-1.82,1.32l-2.91,5.48Z"/><path class="cls-3" d="M125,70.72c-1.65.2-2.21,1.6-2.21,7.06,0,5.26.56,7,2.21,7.16v.17a7.13,7.13,0,0,1-7-7.33,7,7,0,0,1,7-7.23Zm8.06,7.06a7.13,7.13,0,0,1-6.94,7.33v-.17c1.65-.16,2.18-1.93,2.18-7.16,0-5.49-.55-6.89-2.18-7.06v-.17A7,7,0,0,1,133.09,77.78Z"/><path class="cls-3" d="M141.35,81.16c0,1.57.54,2.38,1.94,2.38a2.49,2.49,0,0,0,1.93-.86v.16a4.66,4.66,0,0,1-4.34,2.27c-2.52,0-4.15-1.17-4.15-4V73.3c0-1-.47-1.49-2.07-1.49v-.17a17.12,17.12,0,0,0,6.69-1.09Zm9.33,1.8c0,.81.25,1.14.75,1.14s.9-.42,1.35-1.26H153c-.45,1.54-2,2.27-3.81,2.27s-3.08-1.12-3.08-2.74V73.3c0-1-.48-1.49-2-1.49v-.17a18.25,18.25,0,0,0,6.61-1.09Z"/><path class="cls-3" d="M160.79,83.24c0,.7.42,1.42,2.1,1.42v.17h-8.82v-.17c1.68,0,2.1-.72,2.1-1.42V73.3c0-1-.48-1.49-2.08-1.49v-.17a17.21,17.21,0,0,0,6.7-1.09Zm7.56-9.66a3,3,0,0,1-2.89,3.19,1.88,1.88,0,0,1-1.59-.62,2,2,0,0,0,1.09-1.9,1.49,1.49,0,0,0-1.57-1.51,1.92,1.92,0,0,0-1.68,1.06v-.22a3.87,3.87,0,0,1,3.64-3A2.85,2.85,0,0,1,168.35,73.58Z"/><path class="cls-3" d="M30.36,111.3c0,2.66-1.82,3.81-4.62,3.81V97c0-1-.5-1.49-2.1-1.49v-.17a18.52,18.52,0,0,0,6.72-1.09ZM41,107.69c0,5.85-3.11,7.42-5.77,7.42a5.2,5.2,0,0,1-4.06-2.27v-.16a3.87,3.87,0,0,0,2.33,1c1.31,0,2.74-.93,2.74-6S34.93,102,33.53,102a3.14,3.14,0,0,0-2.33,1v-.22a5.2,5.2,0,0,1,4.06-2.24C38,100.55,41,102.12,41,107.69Z"/><path class="cls-3" d="M49.71,113.24c0,.7.42,1.42,2.1,1.42v.17H43v-.17c1.68,0,2.1-.72,2.1-1.42V103.3c0-1-.47-1.49-2.07-1.49v-.17a17.19,17.19,0,0,0,6.69-1.09Zm7.56-9.66a3,3,0,0,1-2.88,3.19,1.92,1.92,0,0,1-1.6-.62,2,2,0,0,0,1.09-1.9,1.48,1.48,0,0,0-1.56-1.51,1.92,1.92,0,0,0-1.68,1.06v-.22a3.87,3.87,0,0,1,3.64-3A2.84,2.84,0,0,1,57.27,103.58Z"/><path class="cls-3" d="M65.75,100.72c-1.65.2-2.21,1.6-2.21,7.06,0,5.26.56,7,2.21,7.16v.17a7.14,7.14,0,0,1-7-7.33,7,7,0,0,1,7-7.23Zm8.07,7.06a7.13,7.13,0,0,1-6.94,7.33v-.17c1.65-.16,2.18-1.93,2.18-7.16,0-5.49-.56-6.89-2.18-7.06v-.17A7,7,0,0,1,73.82,107.78Z"/><path class="cls-3" d="M84.32,114.66v.17H75.5v-.17c1.68,0,2.1-.72,2.1-1.42V97c0-1-.48-1.49-2.07-1.49v-.17a17.19,17.19,0,0,0,6.69-1.09v19C82.22,113.94,82.64,114.66,84.32,114.66Zm9.49,0v.17a11.22,11.22,0,0,1-2.8.28,5.29,5.29,0,0,1-5.07-2.71L83.31,108c2.21-1.93,4.28-4.28,4.28-5.71,0-.76-.36-1.29-1.65-1.29v-.17h7.17V101a2.56,2.56,0,0,0-1.57.5l-5.12,4.06,4.84,7.51A2.9,2.9,0,0,0,93.81,114.66Z"/><path class="cls-3" d="M94,107.78a6.93,6.93,0,0,1,6.86-7.23v.17c-1.65.2-2.1,1.6-2.1,6.94,0,4,1.79,6.25,4.28,6.25a6.09,6.09,0,0,0,4.09-1.49v.17a7.83,7.83,0,0,1-5.94,2.52A7.09,7.09,0,0,1,94,107.78Zm6.3-1.18c2.46,0,3.5-.78,3.5-3.14,0-1.34-.56-2.57-1.82-2.74v-.17c3.7,0,5.49,2.63,5.49,4.76a8.71,8.71,0,0,1-.14,1.46h-7Z"/><path class="cls-3" d="M116,113.24c0,.7.42,1.42,2.1,1.42v.17h-8.82v-.17c1.68,0,2.1-.72,2.1-1.42V103.3c0-1-.48-1.49-2.07-1.49v-.17a17.19,17.19,0,0,0,6.69-1.09Zm7.56-9.66a3,3,0,0,1-2.89,3.19,1.9,1.9,0,0,1-1.59-.62,2,2,0,0,0,1.09-1.9,1.49,1.49,0,0,0-1.57-1.51,1.93,1.93,0,0,0-1.68,1.06v-.22a3.88,3.88,0,0,1,3.64-3A2.85,2.85,0,0,1,123.52,103.58Z"/></g></svg>