<?xml version="1.0" encoding="utf-8"?>
<!-- Generator: Adobe Illustrator 24.0.3, SVG Export Plug-In . SVG Version: 6.00 Build 0)  -->
<svg version="1.1" id="Layer_1" xmlns="http://www.w3.org/2000/svg" xmlns:xlink="http://www.w3.org/1999/xlink" x="0px" y="0px"
	 viewBox="0 0 300 600" style="enable-background:new 0 0 300 600;" xml:space="preserve">
<style type="text/css">
	.st0{clip-path:url(#SVGID_2_);}
	.st1{enable-background:new    ;}
	.st2{fill:#FFFFFF;}
</style>
<title>Artboard 1 copy 4</title>
<g>
	<defs>
		<rect id="SVGID_1_" y="0.5" width="300" height="599.5"/>
	</defs>
	<clipPath id="SVGID_2_">
		<use xlink:href="#SVGID_1_"  style="overflow:visible;"/>
	</clipPath>
	<g class="st0">
		<g class="st1">
			<path class="st2" d="M26,53.1l0.3,0.5l0.3,17.2c0,1.8,1.3,3.4,4,3.4v0.2h-9v-0.2c2.7,0,4-1.7,4-3.4L26,53.1z M47.8,74.6h-4.6
				L26.1,49c-1.1-1.6-2.3-2.1-4.4-2.1v-0.2h11l15.1,22.6V74.6z M47.7,65.1l-0.3-0.5l-0.5-14.3c0-1.8-1.3-3.4-4-3.4v-0.2h9v0.2
				c-2.7,0-4,1.7-4,3.4L47.7,65.1z"/>
			<path class="st2" d="M70.2,46.6h7.8L61.8,74.6H54L70.2,46.6z M55.2,46.6h12.4l-0.1,0.2c-6.1,0.3-10.9,4.5-11.9,9.6h-0.3V46.6z
				 M64.6,74.3c6.2-0.5,11.1-4.4,12.8-11h0.3v11.2H64.5L64.6,74.3z"/>
		</g>
		<g class="st1">
			<path class="st2" d="M89.5,48c0,2.4-2.5,5.5-6.7,7.2l-0.1-0.4c1.2-0.9,2.3-2.5,2.3-4c0-1.8-1.3-2.7-2.8-2.7
				c0.3-2.4,1.8-3.7,3.9-3.7C88,44.4,89.5,45.7,89.5,48z"/>
		</g>
		<g class="st1">
			<path class="st2" d="M98,69.7c-1.4,0-2.3,0.8-2.3,2.1c0,1.2,0.8,2.7,3.7,3V75c-5.5-0.2-8.5-1.7-8.5-4.1c0-1.9,1.6-3,3.5-3
				C96,67.9,97.3,68.7,98,69.7z M99.3,53.9c-1.5,0.3-3,1.1-3,2.8c0.1,4.8,13.4,5.5,13.4,12.1c0,4-3.4,6.1-8.7,6.3v-0.2
				c1.7-0.3,3.7-0.9,3.7-3c0-4.3-13.5-5.8-13.5-12.1c0-3.6,3.4-5.8,8-6V53.9z M109,57.9c0,1.3-1,2.5-3,2.5c-1.7,0-3-0.7-3.5-2
				c1.2-0.1,1.9-0.9,1.8-1.9c0-1.2-1.6-2.4-3.2-2.6v-0.2C105.8,53.9,109,55.6,109,57.9z"/>
		</g>
		<g class="st1">
			<path class="st2" d="M21.4,87.1c3.8,0,6.9-0.4,9.8-1.6v27.8c0,1,0.6,2.1,3.1,2.1v0.2H21.4v-0.2c2.5,0,3.1-1.1,3.1-2.1V89.5
				c0-1.5-0.7-2.2-3-2.2V87.1z"/>
			<path class="st2" d="M36.8,105.3c0-6.9,5.3-10.6,10.1-10.6v0.2c-2.4,0.3-3.1,2.3-3.1,10.2c0,5.9,2.6,9.2,6.3,9.2
				c2.3,0,4.1-0.7,6-2.2v0.2c-2.1,2.7-6,3.7-8.7,3.7C42.1,116,36.8,112.2,36.8,105.3z M46,103.6c3.6,0,5.1-1.1,5.1-4.6
				c0-2-0.8-3.8-2.7-4v-0.2c5.4,0,8,3.9,8,7c0,0.7-0.1,1.5-0.2,2.1H46V103.6z"/>
			<path class="st2" d="M59.5,110.8c0-3.6,3.3-5.6,7.9-5.6h4.4v0.2h-1.2c-3,0-4.4,1.9-4.4,4.5c0,2.3,0.7,4,2.6,4
				c1.1,0,2.1-0.6,3-1.4v0.2c-1.4,1.6-3.5,3.3-6.5,3.3C61.8,116,59.4,114.1,59.5,110.8z M61.1,99.2c0-2.1,1.9-4.2,7.5-4.5v0.2
				c-1.6,0.2-2.6,1.6-2.6,3c0,1.5,1,2.4,2.7,2.5c-0.6,1.1-2.3,2-3.9,2C62.4,102.4,61.1,100.9,61.1,99.2z M73,111.4V98.8
				c0-2-0.8-3.6-2.8-3.9v-0.2c6.8,0.2,9.5,2.8,9.5,8.2v10c0,1.2,0.4,1.7,1.1,1.7c0.6,0,1.3-0.6,2-1.8h0.2c-0.7,2.3-2.9,3.3-5.3,3.3
				C74.5,116,73,114.9,73,111.4z"/>
			<path class="st2" d="M99.7,98v0.3c-0.9-1-2.1-1.5-3.4-1.5c-2.1,0-4,0.9-4,8.4c0,7.4,2.1,8.7,4,8.7c1.3,0,2.4-0.7,3.4-1.4v0.2
				c-1,1.7-3.6,3.3-6,3.3c-3.9,0-8.5-2.3-8.5-10.9c0-8.2,4.5-10.5,8.5-10.5C96.1,94.7,98.7,96.2,99.7,98z M107.7,112.9
				c0,1.2,0.4,1.7,1.1,1.7c0.6,0,1.3-0.6,2-1.8h0.2c-0.7,2.3-2.9,3.3-5.3,3.3c-3.3,0-4.8-1.1-4.8-4.6V89.5c0-1.5-0.7-2.2-3-2.2v-0.2
				c3.8,0,6.4-0.4,9.8-1.6V112.9z"/>
			<path class="st2" d="M112.8,96.2c3.8,0,6.9-0.4,9.8-1.6v18.6c0,1,0.6,2.1,3.1,2.1v0.2h-12.9v-0.2c2.5,0,3.1-1.1,3.1-2.1V98.7
				c0-1.5-0.7-2.2-3-2.2V96.2z M114.9,88.5c0-2.1,1.7-3.6,4.2-3.6c2.5,0,4.2,1.4,4.2,3.6c0,2.2-1.7,3.6-4.2,3.6
				C116.6,92.1,114.9,90.7,114.9,88.5z"/>
			<path class="st2" d="M127.4,115.4c2.5,0,3.1-1.1,3.1-2.1V98.7c0-1.5-0.7-2.2-3-2.2v-0.2c3.8,0,6.9-0.4,9.8-1.6v18.6
				c0,1,0.6,2.1,3.1,2.1v0.2h-12.9V115.4z M141.8,115.4c2.4,0,3-1.1,3-2.1v-12.8c0-2.3-1.2-3.5-3.2-3.5c-1.1,0-2.1,0.4-3.1,1.3V98
				c1.1-1.7,3.8-3.3,6.8-3.3c3.7,0,6.3,1.7,6.3,5.8v12.8c0,1,0.6,2.1,3.1,2.1v0.2h-12.9V115.4z"/>
			<path class="st2" d="M157.2,102.1c0-5.3,5-7.4,9.2-7.4v0.2c-1.8,0.2-2.6,2.3-2.6,7.1c0,5,0.8,7,2.6,7.1v0.2
				C162.2,109.4,157.2,107.4,157.2,102.1z M168.1,125.6c4.1-0.5,5.4-2.7,5.4-4.2c0-5.7-16-0.6-16-8c0-1.7,0.9-3,2.8-4.2l0.1,0.2
				c-0.2,0.2-0.4,0.5-0.4,0.8c0,4.6,18.7-0.7,18.7,8.2c0,4.2-3.7,7-10.6,7.4V125.6z M157.5,122.2c0-2.4,3-3.2,6.2-3.2
				c-0.7,0.3-1.8,1.5-1.8,2.9c0,1.9,2.1,3.3,4.5,3.7v0.2C162,125.8,157.5,124.9,157.5,122.2z M168.1,109.1c2-0.2,2.8-2.2,2.8-7.1
				c0-4.8-0.9-6.9-2.8-7.1v-0.2c4.4,0.1,9.4,2.1,9.4,7.4c0,5.3-5.1,7.3-9.4,7.3V109.1z M170.3,93.9c0.7-2.1,2.6-4.9,5.4-4.9
				c2.2,0,3.5,1.1,3.5,3.1c0,2-1.8,3.2-3.3,3.2c0-1.7-0.9-2.8-2.2-2.8c-1.2,0-2.6,0.7-3.2,1.5L170.3,93.9z"/>
		</g>
		<g class="st1">
			<path class="st2" d="M47.6,135.1l-9.2,21.6h-0.6L26,131.1c-0.7-1.4-2.3-2.1-4.4-2.1v-0.2h11l8.5,18.6l6.3-13.1V135.1z
				 M30.7,156.4v0.2h-9v-0.2c2.7,0,4-1.7,4-3.4l0.3-17.7l0.3,0.7l0.3,17C26.7,154.8,28,156.4,30.7,156.4z M56.2,131.1v23.2
				c0,1.1,0.6,2.1,3.1,2.1v0.2H46.1v-0.2c2.5,0,3.1-1,3.1-2.1v-25.6h10.1v0.2C56.8,129,56.2,130,56.2,131.1z"/>
		</g>
		<g class="st1">
			<path class="st2" d="M72.2,136c-2.4,0.3-3.2,2.3-3.2,10.3c0,7.7,0.8,10.3,3.2,10.5v0.2c-4.7,0-10.2-3.9-10.2-10.8
				s5.4-10.6,10.2-10.6V136z M84.1,146.3c0,6.9-5.5,10.8-10.2,10.8v-0.2c2.4-0.2,3.2-2.8,3.2-10.5c0-8-0.8-10.1-3.2-10.3v-0.2
				C78.7,135.7,84.1,139.4,84.1,146.3z"/>
		</g>
		<g class="st1">
			<path class="st2" d="M102.7,153.5v0.2c-1.3,1.9-3.9,3.3-7,3.3c-3.7,0-6.3-1.7-6.3-5.8v-13.5h-2.1l0.5-0.6h1.7v-4.4
				c2.5,0,5-0.8,6.7-2.3v6.7h5.5l-0.5,0.6h-5.1v13.6c0,2.1,0.8,4.2,2.7,4.2C100,155.6,101.4,154.9,102.7,153.5z"/>
		</g>
		<g class="st1">
			<path class="st2" d="M114.5,136c-2.4,0.3-3.2,2.3-3.2,10.3c0,7.7,0.8,10.3,3.2,10.5v0.2c-4.7,0-10.2-3.9-10.2-10.8
				s5.4-10.6,10.2-10.6V136z M126.3,146.3c0,6.9-5.5,10.8-10.2,10.8v-0.2c2.4-0.2,3.2-2.8,3.2-10.5c0-8-0.8-10.1-3.2-10.3v-0.2
				C120.9,135.7,126.3,139.4,126.3,146.3z"/>
		</g>
		<g class="st1">
			<path class="st2" d="M138.9,154.3c0,1,0.6,2.1,3.1,2.1v0.2H129v-0.2c2.5,0,3.1-1.1,3.1-2.1v-14.6c0-1.5-0.7-2.2-3-2.2v-0.2
				c3.8,0,6.9-0.4,9.8-1.6V154.3z M149.9,140.2c0,2.8-2,4.7-4.2,4.7c-1,0-1.8-0.2-2.3-0.9c0.8-0.4,1.6-1.3,1.6-2.8
				c0-1.2-0.9-2.2-2.3-2.2c-1.1,0-1.9,0.6-2.5,1.6v-0.3c0.8-2.6,2.8-4.4,5.3-4.4C148.4,135.7,149.9,137.7,149.9,140.2z"/>
		</g>
		<g class="st1">
			<path class="st2" d="M162.7,136c-2.4,0.3-3.5,2.3-3.5,10.2c0,5.9,3,9.2,6.7,9.2c2.3,0,4.1-0.7,6-2.2v0.2c-2.1,2.7-6,3.7-8.7,3.7
				c-5.3,0-11-3.9-11-10.8s5.7-10.6,10.5-10.6V136z M171.8,140.4c0,2.2-1.5,3.9-4.1,3.9c-2,0-3.3-1.3-3.6-2.6c1.1-0.5,2-1.9,2-3
				c0-0.9-0.2-2.4-1.8-2.7v-0.3C169.7,135.7,171.8,138,171.8,140.4z"/>
		</g>
		<g class="st1">
			<path class="st2" d="M175.2,137.8c-0.4-0.9-1-1.4-2.3-1.4v-0.2h11.5v0.2c-1.4,0-2,1-1.3,2.4l5.4,11.2l-3.5,6.7h-0.2L175.2,137.8z
				 M173.4,163.3c0-1.8,1.4-3.2,3.6-3.9c-0.1,0.4-0.2,0.7-0.2,1c0,1.6,0.8,2.8,2.4,2.8c1.4,0,2.6-1.5,4.1-4.1h0.3
				c-2.3,4.2-3.8,7.9-6.7,7.9C174.7,167,173.4,165.4,173.4,163.3z M190.2,146c0.7-1.3,1.1-3.1,1.1-5.3c0-2.3-1.3-4.3-4.2-4.3v-0.2
				h10.2v0.2c-1.4,0-1.9,0.5-2.7,1.9l-4.3,8L190.2,146z"/>
		</g>
		<g class="st1">
			<path class="st2" d="M208.1,136c-2.4,0.3-3.5,2.3-3.5,10.2c0,5.9,3,9.2,6.7,9.2c2.3,0,4.1-0.7,6-2.2v0.2c-2.1,2.7-6,3.7-8.7,3.7
				c-5.3,0-11-3.9-11-10.8s5.7-10.6,10.5-10.6V136z M217.2,140.4c0,2.2-1.5,3.9-4.1,3.9c-2,0-3.3-1.3-3.6-2.6c1.1-0.5,2-1.9,2-3
				c0-0.9-0.2-2.4-1.8-2.7v-0.3C215.1,135.7,217.2,138,217.2,140.4z"/>
			<path class="st2" d="M219.4,128.1c3.8,0,6.9-0.4,9.8-1.6v27.8c0,1,0.6,2.1,3.1,2.1v0.2h-12.9v-0.2c2.5,0,3.1-1.1,3.1-2.1v-23.8
				c0-1.5-0.7-2.2-3-2.2V128.1z"/>
			<path class="st2" d="M234.7,146.3c0-6.9,5.3-10.6,10.1-10.6v0.2c-2.4,0.3-3.1,2.3-3.1,10.2c0,5.9,2.6,9.2,6.3,9.2
				c2.3,0,4.1-0.7,6-2.2v0.2c-2.1,2.7-6,3.7-8.7,3.7C240,157.1,234.7,153.2,234.7,146.3z M244,144.6c3.6,0,5.1-1.1,5.1-4.6
				c0-2-0.8-3.8-2.7-4v-0.2c5.4,0,8,3.9,8,7c0,0.7-0.1,1.5-0.2,2.1H244V144.6z"/>
		</g>
		<g class="st1">
			<path class="st2" d="M22.4,197.5c2.5,0,3.1-1,3.1-2.1v-23.2c0-1.1-0.6-2.1-3.1-2.1v-0.2h13.1v0.2c-2.5,0-3.1,1-3.1,2.1v23.2
				c0,1.1,0.6,2.1,3.1,2.1v0.2H22.4V197.5z"/>
			<path class="st2" d="M38.3,197.5c2.5,0,3.1-1.1,3.1-2.1v-14.6c0-1.5-0.7-2.2-3-2.2v-0.2c3.8,0,6.9-0.4,9.8-1.6v18.6
				c0,1,0.6,2.1,3.1,2.1v0.2H38.3V197.5z M52.7,197.5c2.4,0,3-1.1,3-2.1v-12.8c0-2.3-1.2-3.5-3.2-3.5c-1.1,0-2.1,0.4-3.1,1.3v-0.2
				c1.1-1.7,3.8-3.3,6.8-3.3c3.7,0,6.3,1.7,6.3,5.8v12.8c0,1,0.6,2.1,3.1,2.1v0.2H52.7V197.5z"/>
			<path class="st2" d="M75,192.9c-1.4,0-2.3,0.8-2.3,2.1c0,1.2,0.8,2.7,3.7,3v0.2c-5.5-0.2-8.5-1.7-8.5-4.1c0-1.9,1.6-3,3.5-3
				C73,191.1,74.4,191.8,75,192.9z M76.4,177.1c-1.5,0.3-3,1.1-3,2.8c0.1,4.8,13.4,5.5,13.4,12.1c0,4-3.4,6.1-8.7,6.3v-0.2
				c1.7-0.3,3.7-0.9,3.7-3c0-4.3-13.5-5.8-13.5-12.1c0-3.6,3.4-5.8,8-6V177.1z M86,181c0,1.3-1,2.5-3,2.5c-1.7,0-3-0.7-3.5-2
				c1.2-0.1,1.9-0.9,1.8-1.9c0-1.2-1.6-2.4-3.2-2.6v-0.2C82.8,177.1,86,178.7,86,181z"/>
			<path class="st2" d="M98.9,192.4c0,2.3,0.8,3.5,2.8,3.5c1.1,0,1.9-0.3,2.8-1.3v0.2c-0.9,1.8-3,3.3-6.4,3.3
				c-3.7,0-6.1-1.7-6.1-5.8v-11.5c0-1.5-0.7-2.2-3-2.2v-0.2c3.8,0,6.9-0.4,9.8-1.6V192.4z M112.6,195c0,1.2,0.4,1.7,1.1,1.7
				c0.6,0,1.3-0.6,2-1.8h0.2c-0.7,2.3-2.9,3.3-5.6,3.3c-2.9,0-4.5-1.6-4.5-4v-13.3c0-1.5-0.7-2.2-2.9-2.2v-0.2
				c3.7,0,6.2-0.4,9.7-1.6V195z"/>
		</g>
		<g class="st1">
			<path class="st2" d="M127.4,195.4c0,1,0.6,2.1,3.1,2.1v0.2h-12.9v-0.2c2.5,0,3.1-1.1,3.1-2.1v-14.6c0-1.5-0.7-2.2-3-2.2v-0.2
				c3.8,0,6.9-0.4,9.8-1.6V195.4z M138.5,181.2c0,2.8-2,4.7-4.2,4.7c-1,0-1.8-0.2-2.3-0.9c0.8-0.4,1.6-1.3,1.6-2.8
				c0-1.2-0.9-2.2-2.3-2.2c-1.1,0-1.9,0.6-2.5,1.6v-0.3c0.8-2.6,2.8-4.4,5.3-4.4C137,176.8,138.5,178.8,138.5,181.2z"/>
		</g>
		<g class="st1">
			<path class="st2" d="M140.3,192.9c0-3.6,3.3-5.6,7.9-5.6h4.4v0.2h-1.2c-3,0-4.4,1.9-4.4,4.5c0,2.3,0.7,4,2.6,4
				c1.2,0,2.1-0.6,3-1.4v0.2c-1.4,1.6-3.5,3.3-6.5,3.3C142.6,198.2,140.2,196.2,140.3,192.9z M141.9,181.3c0-2.1,1.9-4.2,7.5-4.5
				v0.2c-1.6,0.2-2.6,1.6-2.6,3c0,1.5,1,2.4,2.7,2.5c-0.6,1.1-2.3,2-3.9,2C143.2,184.5,141.9,183,141.9,181.3z M153.8,193.5V181
				c0-2-0.8-3.6-2.8-3.9v-0.2c6.8,0.2,9.5,2.8,9.5,8.2v10c0,1.2,0.4,1.7,1.1,1.7c0.6,0,1.3-0.6,2-1.8h0.2c-0.7,2.3-2.9,3.3-5.3,3.3
				C155.3,198.2,153.8,197,153.8,193.5z"/>
			<path class="st2" d="M165.2,197.5c2.5,0,3.1-1.1,3.1-2.1v-14.6c0-1.5-0.7-2.2-3-2.2v-0.2c3.8,0,6.9-0.4,9.8-1.6v18.6
				c0,1,0.6,2.1,3.1,2.1v0.2h-12.9V197.5z M179.7,197.5c2.4,0,3-1.1,3-2.1v-12.8c0-2.3-1.2-3.5-3.2-3.5c-1.1,0-2.1,0.4-3.1,1.3v-0.2
				c1.1-1.7,3.8-3.3,6.8-3.3c3.7,0,6.3,1.7,6.3,5.8v12.8c0,1,0.6,2.1,3.1,2.1v0.2h-12.9V197.5z"/>
			<path class="st2" d="M205.3,177.1c-2.4,0.3-3.5,2.3-3.5,10.2c0,5.9,3,9.2,6.7,9.2c2.3,0,4.1-0.7,6-2.2v0.2
				c-2.1,2.7-6,3.7-8.7,3.7c-5.3,0-11-3.9-11-10.8s5.7-10.6,10.5-10.6V177.1z M214.4,181.4c0,2.2-1.5,3.9-4.1,3.9
				c-2,0-3.3-1.3-3.6-2.6c1.1-0.5,2-1.9,2-3c0-0.9-0.2-2.4-1.8-2.7v-0.3C212.3,176.8,214.4,179.1,214.4,181.4z"/>
			<path class="st2" d="M217.5,187.4c0-6.9,5.3-10.6,10.1-10.6v0.2c-2.4,0.3-3.1,2.3-3.1,10.2c0,5.9,2.6,9.2,6.3,9.2
				c2.3,0,4.1-0.7,6-2.2v0.2c-2.1,2.7-6,3.7-8.7,3.7C222.8,198.2,217.5,194.3,217.5,187.4z M226.7,185.7c3.6,0,5.1-1.1,5.1-4.6
				c0-2-0.8-3.8-2.7-4v-0.2c5.4,0,8,3.9,8,7c0,0.7-0.1,1.5-0.2,2.1h-10.3V185.7z"/>
		</g>
	</g>
</g>
</svg>
