<svg id="Layer_1" data-name="Layer 1" xmlns="http://www.w3.org/2000/svg" xmlns:xlink="http://www.w3.org/1999/xlink" viewBox="0 0 300 600"><defs><style>.cls-1{fill:none;}.cls-2{clip-path:url(#clip-path);}.cls-3{fill:#fff;}</style><clipPath id="clip-path"><rect class="cls-1" x="0.89" y="0.51" width="300" height="599.49"/></clipPath></defs><title>Artboard 1 copy 2</title><g class="cls-2"><path class="cls-3" d="M22.2,89.21a21.3,21.3,0,0,0,8.36-1.37v23.74c0,.87.53,1.78,2.63,1.78v.21h-11v-.21c2.1,0,2.63-.91,2.63-1.78V91.27c0-1.26-.6-1.85-2.59-1.85Z"/><path class="cls-3" d="M34.73,97.05a21.3,21.3,0,0,0,8.36-1.37v15.9c0,.87.53,1.78,2.63,1.78v.21h-11v-.21c2.1,0,2.63-.91,2.63-1.78V99.11c0-1.26-.6-1.85-2.59-1.85Zm1.78-6.58c0-1.82,1.47-3,3.57-3s3.57,1.23,3.57,3-1.47,3.08-3.57,3.08S36.51,92.32,36.51,90.47Z"/><path class="cls-3" d="M48,97.5a1.9,1.9,0,0,0-1.93-1.22v-.21h9.81v.21c-1.23,0-1.72.84-1.12,2.06l4.58,9.56-3,5.67h-.21Zm12.81,7a9.56,9.56,0,0,0,1-4.52,3.38,3.38,0,0,0-3.57-3.67v-.21h8.72v.21c-1.16,0-1.61.45-2.28,1.64L61,104.78Z"/><path class="cls-3" d="M67.2,104.75a8.66,8.66,0,0,1,8.58-9v.21c-2.06.24-2.62,2-2.62,8.68,0,5,2.24,7.81,5.35,7.81a7.63,7.63,0,0,0,5.11-1.86v.21c-1.82,2.31-5.14,3.15-7.42,3.15A8.87,8.87,0,0,1,67.2,104.75Zm7.88-1.47c3.08,0,4.38-1,4.38-3.92,0-1.68-.7-3.22-2.28-3.43v-.21c4.62,0,6.86,3.29,6.86,6a10.9,10.9,0,0,1-.17,1.82H75.08Z"/><path class="cls-3" d="M93,109.4a1.8,1.8,0,0,0-2,1.76c0,1,.7,2.31,3.12,2.55v.21c-4.66-.17-7.22-1.43-7.22-3.46a2.74,2.74,0,0,1,3-2.6A3.57,3.57,0,0,1,93,109.4Zm1.16-13.47c-1.3.24-2.56.91-2.52,2.34.1,4.06,11.44,4.73,11.44,10.29,0,3.4-2.87,5.19-7.38,5.36v-.21c1.47-.24,3.11-.77,3.11-2.59,0-3.64-11.48-5-11.48-10.29,0-3.08,2.91-4.94,6.83-5.11Zm8.26,3.39c0,1.09-.84,2.17-2.59,2.17a3,3,0,0,1-3-1.68,1.56,1.56,0,0,0,1.58-1.64c0-1-1.33-2.07-2.73-2.24v-.21C99.65,95.93,102.42,97.36,102.42,99.32Z"/><path class="cls-3" d="M114.56,109.44c0-3,2.8-4.76,6.72-4.76h3.78v.21h-1a3.46,3.46,0,0,0-3.71,3.81c0,1.93.56,3.4,2.21,3.4a3.84,3.84,0,0,0,2.55-1.22v.2a7.43,7.43,0,0,1-5.57,2.84C116.52,113.92,114.52,112.24,114.56,109.44Zm1.4-9.91c0-1.78,1.61-3.6,6.37-3.81v.21a2.55,2.55,0,0,0-2.24,2.55c0,1.26.87,2,2.27,2.14A3.93,3.93,0,0,1,119,102.3,2.81,2.81,0,0,1,116,99.53ZM126.11,110V99.25c0-1.71-.67-3.08-2.38-3.32v-.21c5.81.21,8.12,2.41,8.12,7v8.51c0,1,.35,1.43,1,1.43s1.12-.52,1.68-1.58h.21c-.56,1.93-2.45,2.84-4.55,2.84C127.37,113.92,126.11,112.94,126.11,110Z"/><path class="cls-3" d="M149.39,110.88v.2a7.3,7.3,0,0,1-6,2.84c-3.15,0-5.39-1.43-5.39-4.94V97.5h-1.82l.38-.52H138V93.2a8.87,8.87,0,0,0,5.74-2V97h4.73l-.39.52h-4.34v11.59c0,1.75.67,3.57,2.31,3.57A5.2,5.2,0,0,0,149.39,110.88Z"/><path class="cls-3" d="M168.67,113.71v.21a13.24,13.24,0,0,1-6.79-1.71l-1.16,1.71h-.28v-8.54h.28A11.75,11.75,0,0,0,168.67,113.71Zm10.29-7c0,4.52-3.36,7-8.78,7.18v-.21c1.92-.35,3.81-1.47,3.81-3.57,0-6.13-13.37-6.69-13.37-13.79,0-4.2,3.39-6.62,8-6.93v.21c-1.61.28-3.08,1.29-3.08,3.22C165.59,99,179,99.64,179,106.74Zm-8.78-17.11v-.21a11.3,11.3,0,0,1,6.3,1.85l1.26-1.85H178v7.8h-.28A11.13,11.13,0,0,0,170.18,89.63Z"/><path class="cls-3" d="M194.92,110.88v.2a7.3,7.3,0,0,1-6,2.84c-3.15,0-5.39-1.43-5.39-4.94V97.5h-1.82l.39-.52h1.43V93.2a8.85,8.85,0,0,0,5.74-2V97H194l-.39.52h-4.34v11.59c0,1.75.67,3.57,2.31,3.57A5.2,5.2,0,0,0,194.92,110.88Z"/><path class="cls-3" d="M196,109.44c0-3,2.8-4.76,6.72-4.76h3.78v.21h-1a3.46,3.46,0,0,0-3.71,3.81c0,1.93.56,3.4,2.2,3.4a3.84,3.84,0,0,0,2.56-1.22v.2a7.43,7.43,0,0,1-5.57,2.84C198,113.92,196,112.24,196,109.44Zm1.4-9.91c0-1.78,1.61-3.6,6.37-3.81v.21a2.55,2.55,0,0,0-2.24,2.55c0,1.26.87,2,2.27,2.14a3.93,3.93,0,0,1-3.36,1.68A2.81,2.81,0,0,1,197.44,99.53ZM207.59,110V99.25c0-1.71-.67-3.08-2.38-3.32v-.21c5.81.21,8.12,2.41,8.12,7v8.51c0,1,.35,1.43,1,1.43s1.12-.52,1.68-1.58h.21c-.56,1.93-2.45,2.84-4.55,2.84C208.85,113.92,207.59,112.94,207.59,110Z"/><path class="cls-3" d="M225.68,111.58c0,.87.53,1.78,2.63,1.78v.21h-11v-.21c2.1,0,2.63-.91,2.63-1.78V99.15c0-1.26-.6-1.86-2.59-1.86v-.21a21.49,21.49,0,0,0,8.36-1.36Zm9.46-12.08a3.75,3.75,0,0,1-3.61,4,2.39,2.39,0,0,1-2-.77,2.56,2.56,0,0,0,1.37-2.38,1.86,1.86,0,0,0-2-1.89,2.39,2.39,0,0,0-2.1,1.33V99.5a4.84,4.84,0,0,1,4.55-3.78A3.56,3.56,0,0,1,235.14,99.5Z"/><path class="cls-3" d="M23,152.36c2.1,0,2.62-.84,2.62-1.78V130.76c0-.94-.52-1.78-2.62-1.78v-.21h11.2V129c-2.1,0-2.63.84-2.63,1.78v19.82c0,.94.53,1.78,2.63,1.78v.21H23Z"/><path class="cls-3" d="M36.58,152.36c2.1,0,2.63-.91,2.63-1.78V138.15c0-1.26-.6-1.86-2.59-1.86v-.21A21.49,21.49,0,0,0,45,134.72v15.86c0,.87.53,1.78,2.63,1.78v.21h-11Zm12.32,0c2.07,0,2.59-.91,2.59-1.78V139.65c0-2-1-3-2.76-3a3.72,3.72,0,0,0-2.66,1.08v-.21a7.14,7.14,0,0,1,5.81-2.83c3.15,0,5.39,1.47,5.39,4.93v10.93c0,.87.52,1.78,2.62,1.78v.21h-11Z"/><path class="cls-3" d="M67.87,148.4a1.8,1.8,0,0,0-2,1.76c0,1,.7,2.31,3.12,2.55v.21c-4.66-.17-7.22-1.43-7.22-3.46a2.74,2.74,0,0,1,3-2.6A3.57,3.57,0,0,1,67.87,148.4ZM69,134.93c-1.3.24-2.56.91-2.52,2.34C66.61,141.33,78,142,78,147.56c0,3.4-2.87,5.19-7.38,5.36v-.21c1.47-.24,3.11-.77,3.11-2.59,0-3.64-11.48-5-11.48-10.29,0-3.08,2.91-4.94,6.83-5.11Zm8.26,3.39c0,1.09-.84,2.17-2.59,2.17a3,3,0,0,1-3-1.68,1.56,1.56,0,0,0,1.58-1.64c0-1-1.33-2.07-2.73-2.24v-.21C74.52,134.93,77.29,136.36,77.29,138.32Z"/><path class="cls-3" d="M88.28,148c0,2,.66,3,2.41,3a3.11,3.11,0,0,0,2.42-1.08v.2a5.84,5.84,0,0,1-5.43,2.84c-3.15,0-5.18-1.47-5.18-4.94v-9.83c0-1.26-.59-1.86-2.59-1.86v-.21a21.54,21.54,0,0,0,8.37-1.36Zm11.65,2.25c0,1,.32,1.43.95,1.43s1.12-.52,1.68-1.58h.21c-.56,1.93-2.45,2.84-4.76,2.84s-3.85-1.4-3.85-3.43V138.15c0-1.26-.6-1.86-2.49-1.86v-.21a22.86,22.86,0,0,0,8.26-1.36Z"/><path class="cls-3" d="M112.57,150.58c0,.87.52,1.78,2.62,1.78v.21h-11v-.21c2.1,0,2.63-.91,2.63-1.78V138.15c0-1.26-.6-1.86-2.59-1.86v-.21a21.54,21.54,0,0,0,8.37-1.36ZM122,138.5a3.75,3.75,0,0,1-3.61,4,2.37,2.37,0,0,1-2-.77,2.57,2.57,0,0,0,1.36-2.38,1.85,1.85,0,0,0-2-1.89,2.4,2.4,0,0,0-2.1,1.33v-.28a4.85,4.85,0,0,1,4.55-3.78A3.55,3.55,0,0,1,122,138.5Z"/><path class="cls-3" d="M123.52,148.44c0-3.05,2.8-4.76,6.72-4.76H134v.21H133a3.46,3.46,0,0,0-3.71,3.81c0,1.93.56,3.4,2.21,3.4a3.82,3.82,0,0,0,2.55-1.22v.2a7.4,7.4,0,0,1-5.56,2.84C125.48,152.92,123.48,151.24,123.52,148.44Zm1.4-9.91c0-1.78,1.61-3.6,6.37-3.81v.21a2.55,2.55,0,0,0-2.24,2.55c0,1.26.88,2,2.28,2.14A3.94,3.94,0,0,1,128,141.3,2.81,2.81,0,0,1,124.92,138.53ZM135.07,149V138.25c0-1.71-.66-3.08-2.38-3.32v-.21c5.81.21,8.12,2.41,8.12,7v8.51c0,1,.35,1.43,1,1.43s1.12-.52,1.68-1.58h.21c-.56,1.93-2.45,2.84-4.55,2.84C136.33,152.92,135.07,151.94,135.07,149Z"/><path class="cls-3" d="M144.76,152.36c2.1,0,2.63-.91,2.63-1.78V138.15c0-1.26-.6-1.86-2.59-1.86v-.21a21.58,21.58,0,0,0,8.37-1.36v15.86c0,.87.52,1.78,2.62,1.78v.21h-11Zm12.33,0c2.06,0,2.59-.91,2.59-1.78V139.65c0-2-1-3-2.77-3a3.72,3.72,0,0,0-2.66,1.08v-.21a7.15,7.15,0,0,1,5.81-2.83c3.15,0,5.39,1.47,5.39,4.93v10.93c0,.87.53,1.78,2.63,1.78v.21h-11Z"/><path class="cls-3" d="M178.93,134.93c-2.07.24-3,2-3,8.68,0,5,2.56,7.81,5.67,7.81a7.63,7.63,0,0,0,5.11-1.86v.21c-1.82,2.31-5.14,3.15-7.42,3.15a9.15,9.15,0,0,1-9.35-9.17,9,9,0,0,1,9-9Zm7.77,3.74a3.25,3.25,0,0,1-3.5,3.36,3,3,0,0,1-3-2.2,3,3,0,0,0,1.68-2.56,2.08,2.08,0,0,0-1.5-2.31v-.24C184.91,134.72,186.7,136.68,186.7,138.67Z"/><path class="cls-3" d="M189.32,143.75a8.66,8.66,0,0,1,8.57-9v.21c-2.06.24-2.62,2-2.62,8.68,0,5,2.24,7.81,5.36,7.81a7.67,7.67,0,0,0,5.11-1.86v.21c-1.82,2.31-5.15,3.15-7.43,3.15A8.87,8.87,0,0,1,189.32,143.75Zm7.87-1.47c3.09,0,4.38-1,4.38-3.92,0-1.68-.7-3.22-2.27-3.43v-.21c4.62,0,6.86,3.29,6.86,5.95a9.94,9.94,0,0,1-.18,1.82h-8.79Z"/><path class="cls-3" d="M31.93,191.71v.21a13.24,13.24,0,0,1-6.79-1.71L24,191.92H23.7v-8.54H24A11.75,11.75,0,0,0,31.93,191.71Zm10.29-7c0,4.52-3.36,7-8.79,7.18v-.21c1.93-.35,3.82-1.47,3.82-3.57,0-6.13-13.37-6.69-13.37-13.79,0-4.2,3.39-6.62,8.05-6.93v.21c-1.61.28-3.08,1.29-3.08,3.22C28.85,177,42.22,177.64,42.22,184.74Zm-8.79-17.11v-.21a11.28,11.28,0,0,1,6.3,1.85L41,167.42h.28v7.8H41A11.13,11.13,0,0,0,33.43,167.63Z"/><path class="cls-3" d="M53,196.89c0,1.26.6,1.86,2.59,1.86V199a23,23,0,0,0-8.36,1.36V177.11c0-1.26-.6-1.85-2.59-1.85v-.21A22.83,22.83,0,0,0,53,173.68ZM66.3,182.64c0,7.32-3.85,9.28-7.18,9.28A6.55,6.55,0,0,1,54,189.08v-.2A5,5,0,0,0,57,190.1c1.65,0,3.4-1.16,3.4-7.46S58.7,175.5,57,175.5A3.94,3.94,0,0,0,54,176.8v-.28a6.54,6.54,0,0,1,5.11-2.8C62.52,173.72,66.3,175.68,66.3,182.64Z"/><path class="cls-3" d="M69.37,182.75a8.66,8.66,0,0,1,8.58-9v.21c-2.06.24-2.62,2-2.62,8.68,0,5,2.24,7.81,5.35,7.81a7.63,7.63,0,0,0,5.11-1.86v.21c-1.82,2.31-5.14,3.15-7.42,3.15A8.87,8.87,0,0,1,69.37,182.75Zm7.88-1.47c3.08,0,4.38-1,4.38-3.92,0-1.68-.7-3.22-2.28-3.43v-.21c4.62,0,6.86,3.29,6.86,5.95a10.9,10.9,0,0,1-.17,1.82H77.25Z"/><path class="cls-3" d="M98,173.93c-2.06.24-3,2-3,8.68,0,5,2.55,7.81,5.67,7.81a7.67,7.67,0,0,0,5.11-1.86v.21c-1.82,2.31-5.15,3.15-7.42,3.15a9.15,9.15,0,0,1-9.35-9.17,9,9,0,0,1,9-9Zm7.77,3.74a3.25,3.25,0,0,1-3.5,3.36,3,3,0,0,1-3-2.2,3,3,0,0,0,1.68-2.56A2.08,2.08,0,0,0,99.44,174v-.24C104,173.72,105.81,175.68,105.81,177.67Z"/><path class="cls-3" d="M107.87,175.05a21.32,21.32,0,0,0,8.37-1.37v15.9c0,.87.52,1.78,2.63,1.78v.21h-11v-.21c2.1,0,2.62-.91,2.62-1.78V177.11c0-1.26-.59-1.85-2.59-1.85Zm1.79-6.58c0-1.82,1.47-3.05,3.57-3.05s3.57,1.23,3.57,3.05-1.47,3.08-3.57,3.08S109.66,170.32,109.66,168.47Z"/><path class="cls-3" d="M120.61,187.44c0-3.05,2.8-4.76,6.72-4.76h3.78v.21h-1.05a3.46,3.46,0,0,0-3.71,3.81c0,1.93.56,3.4,2.21,3.4a3.8,3.8,0,0,0,2.55-1.22v.2a7.4,7.4,0,0,1-5.56,2.84C122.57,191.92,120.58,190.24,120.61,187.44Zm1.4-9.91c0-1.78,1.61-3.6,6.37-3.81v.21a2.55,2.55,0,0,0-2.24,2.55c0,1.26.88,2,2.28,2.14a3.94,3.94,0,0,1-3.36,1.68A2.81,2.81,0,0,1,122,177.53ZM132.16,188V177.25c0-1.71-.66-3.08-2.38-3.32v-.21c5.82.21,8.13,2.41,8.13,7v8.51c0,1,.35,1.43,1,1.43s1.12-.52,1.68-1.58h.21c-.56,1.93-2.45,2.84-4.56,2.84C133.43,191.92,132.16,190.94,132.16,188Z"/><path class="cls-3" d="M141.68,167.21a21.36,21.36,0,0,0,8.37-1.37v23.74c0,.87.52,1.78,2.63,1.78v.21h-11v-.21c2.1,0,2.62-.91,2.62-1.78V169.27c0-1.26-.59-1.85-2.59-1.85Z"/><path class="cls-3" d="M154.21,175.05a21.36,21.36,0,0,0,8.37-1.37v15.9c0,.87.52,1.78,2.62,1.78v.21h-11v-.21c2.1,0,2.62-.91,2.62-1.78V177.11c0-1.26-.59-1.85-2.59-1.85Zm1.79-6.58c0-1.82,1.47-3.05,3.57-3.05s3.57,1.23,3.57,3.05-1.47,3.08-3.57,3.08S156,170.32,156,168.47Z"/><path class="cls-3" d="M173.39,187.4a1.8,1.8,0,0,0-2,1.76c0,1,.7,2.31,3.12,2.55v.21c-4.66-.17-7.21-1.43-7.21-3.46a2.73,2.73,0,0,1,3-2.6A3.57,3.57,0,0,1,173.39,187.4Zm1.16-13.47c-1.3.24-2.56.91-2.52,2.34.1,4.06,11.44,4.73,11.44,10.29,0,3.4-2.87,5.19-7.38,5.36v-.21c1.47-.24,3.11-.77,3.11-2.59,0-3.64-11.48-5-11.48-10.29,0-3.08,2.91-4.94,6.83-5.11Zm8.26,3.39c0,1.09-.84,2.17-2.59,2.17a3,3,0,0,1-3-1.68,1.56,1.56,0,0,0,1.58-1.64c0-1-1.33-2.07-2.73-2.24v-.21C180.05,173.93,182.81,175.36,182.81,177.32Z"/><path class="cls-3" d="M199.36,188.88v.2a7.29,7.29,0,0,1-6,2.84c-3.15,0-5.39-1.43-5.39-4.94V175.5h-1.82l.38-.52H188V171.2a8.89,8.89,0,0,0,5.74-2V175h4.72l-.38.52h-4.34v11.59c0,1.75.66,3.57,2.31,3.57A5.15,5.15,0,0,0,199.36,188.88Z"/><path class="cls-3" d="M206.92,187.4a1.8,1.8,0,0,0-2,1.76c0,1,.7,2.31,3.12,2.55v.21c-4.66-.17-7.21-1.43-7.21-3.46a2.73,2.73,0,0,1,3-2.6A3.57,3.57,0,0,1,206.92,187.4Zm1.16-13.47c-1.3.24-2.56.91-2.52,2.34.1,4.06,11.44,4.73,11.44,10.29,0,3.4-2.87,5.19-7.38,5.36v-.21c1.47-.24,3.11-.77,3.11-2.59,0-3.64-11.48-5-11.48-10.29,0-3.08,2.91-4.94,6.83-5.11Zm8.26,3.39c0,1.09-.84,2.17-2.59,2.17a3,3,0,0,1-3-1.68,1.56,1.56,0,0,0,1.58-1.64c0-1-1.33-2.07-2.73-2.24v-.21C213.57,173.93,216.34,175.36,216.34,177.32Z"/></g></svg>