<svg id="Layer_1" data-name="Layer 1" xmlns="http://www.w3.org/2000/svg" xmlns:xlink="http://www.w3.org/1999/xlink" viewBox="0 0 320 50"><defs><style>.cls-1{fill:none;}.cls-2{clip-path:url(#clip-path);}.cls-3{fill:#fff;}</style><clipPath id="clip-path"><rect class="cls-1" width="320" height="50"/></clipPath></defs><title>Artboard 1 copy 2</title><g class="cls-2"><path class="cls-3" d="M10.69,20.4c1,0,1.2-.36,1.2-.81V10.53c0-.45-.24-.82-1.2-.82V9.62h3.92v10c0,.45.24.81,1.2.81v.1H10.69ZM15.41,9.71V9.62h4.4v3.2h-.13C19,10.54,17.84,9.87,15.41,9.71Zm.88,5.44-.88-.08V15l.88-.08a2.48,2.48,0,0,0,2.11-1.38h.13v3H18.4A2.44,2.44,0,0,0,16.29,15.15Z"/><path class="cls-3" d="M24.47,19.59c0,.4.24.81,1.2.81v.1H20.62v-.1c1,0,1.2-.41,1.2-.81V13.91c0-.58-.27-.85-1.18-.85V13a9.91,9.91,0,0,0,3.83-.62Zm4.32-5.52a1.71,1.71,0,0,1-1.65,1.82,1.09,1.09,0,0,1-.91-.35,1.18,1.18,0,0,0,.62-1.09.85.85,0,0,0-.9-.86,1.12,1.12,0,0,0-1,.6v-.12a2.22,2.22,0,0,1,2.08-1.73A1.63,1.63,0,0,1,28.79,14.07Z"/><path class="cls-3" d="M33.63,12.43c-.94.12-1.26.91-1.26,4s.32,4,1.26,4.09v.1a4.07,4.07,0,0,1-4-4.19,4,4,0,0,1,4-4.13Zm4.61,4a4.08,4.08,0,0,1-4,4.19v-.1c.95-.09,1.25-1.1,1.25-4.09s-.32-3.94-1.25-4v-.09A4,4,0,0,1,38.24,16.47Z"/><path class="cls-3" d="M43.14,19.59c0,.4.24.81,1.2.81v.1h-5v-.1c1,0,1.2-.41,1.2-.81V13.91c0-.58-.28-.85-1.19-.85V13a9.91,9.91,0,0,0,3.83-.62Zm5.31-5v5c0,.4.23.81,1.19.81v.1h-5v-.1c.94,0,1.2-.41,1.2-.81v-5c0-.89-.35-1.36-1.12-1.36a1.44,1.44,0,0,0-1.06.48v-.09A2.6,2.6,0,0,1,46,12.34C47.49,12.34,48.45,13,48.45,14.59Zm5.3,0v5c0,.4.24.81,1.2.81v.1h-5v-.1c.94,0,1.2-.41,1.2-.81v-5c0-.89-.35-1.36-1.12-1.36a1.44,1.44,0,0,0-1.06.48v-.09a2.6,2.6,0,0,1,2.34-1.28C52.79,12.34,53.75,13,53.75,14.59Z"/><path class="cls-3" d="M62.66,18.6a.82.82,0,0,0-.9.8c0,.46.32,1.05,1.42,1.16v.1c-2.12-.08-3.29-.66-3.29-1.58a1.25,1.25,0,0,1,1.36-1.19A1.64,1.64,0,0,1,62.66,18.6Zm.52-6.17c-.59.12-1.16.42-1.15,1.08,0,1.85,5.24,2.16,5.24,4.7,0,1.55-1.32,2.37-3.38,2.45v-.1c.67-.11,1.42-.35,1.42-1.18,0-1.66-5.25-2.27-5.25-4.71,0-1.41,1.33-2.25,3.12-2.33ZM67,14a1,1,0,0,1-1.18,1,1.38,1.38,0,0,1-1.36-.77.71.71,0,0,0,.72-.75c0-.48-.61-1-1.25-1v-.09C65.7,12.43,67,13.09,67,14Z"/><path class="cls-3" d="M72,22.93c0,.58.27.85,1.18.85v.1a10.53,10.53,0,0,0-3.82.62V13.89c0-.58-.28-.85-1.19-.85V13A10.41,10.41,0,0,0,72,12.32Zm6.1-6.51c0,3.34-1.77,4.24-3.29,4.24a3,3,0,0,1-2.33-1.3v-.09a2.26,2.26,0,0,0,1.34.56c.75,0,1.55-.53,1.55-3.41s-.75-3.27-1.55-3.27a1.78,1.78,0,0,0-1.34.6v-.13a3,3,0,0,1,2.33-1.28C76.39,12.34,78.12,13.23,78.12,16.42Z"/><path class="cls-3" d="M79.52,16.47a4,4,0,0,1,3.92-4.13v.09c-.94.12-1.2.91-1.2,4,0,2.31,1,3.57,2.45,3.57A3.47,3.47,0,0,0,87,19.12v.1a4.5,4.5,0,0,1-3.4,1.44A4,4,0,0,1,79.52,16.47Zm3.6-.68c1.41,0,2-.44,2-1.79,0-.77-.32-1.47-1-1.57v-.09a2.89,2.89,0,0,1,3.14,2.72,4.58,4.58,0,0,1-.08.83h-4Z"/><path class="cls-3" d="M92.62,12.43c-.94.12-1.36.91-1.36,4,0,2.31,1.17,3.57,2.6,3.57a3.43,3.43,0,0,0,2.33-.85v.1a4.47,4.47,0,0,1-3.39,1.44,4.18,4.18,0,0,1-4.27-4.19,4.09,4.09,0,0,1,4.09-4.13Zm3.56,1.72a1.49,1.49,0,0,1-1.6,1.53,1.37,1.37,0,0,1-1.4-1A1.37,1.37,0,0,0,94,13.51a1,1,0,0,0-.69-1.06v-.11C95.36,12.34,96.18,13.23,96.18,14.15Z"/><path class="cls-3" d="M97.12,13a9.64,9.64,0,0,0,3.82-.63v7.27c0,.4.24.81,1.2.81v.1h-5v-.1c1,0,1.2-.41,1.2-.81v-5.7c0-.58-.27-.85-1.18-.85Zm.81-3a1.65,1.65,0,1,1,1.64,1.4A1.46,1.46,0,0,1,97.93,9.94Z"/><path class="cls-3" d="M102.94,18.61c0-1.39,1.28-2.18,3.08-2.18h1.72v.1h-.48a1.58,1.58,0,0,0-1.69,1.75c0,.88.25,1.55,1,1.55a1.75,1.75,0,0,0,1.16-.56v.09a3.37,3.37,0,0,1-2.54,1.3A2,2,0,0,1,102.94,18.61Zm.64-4.53c0-.82.74-1.65,2.92-1.74v.09a1.18,1.18,0,0,0-1,1.17c0,.58.4.93,1,1a1.78,1.78,0,0,1-1.53.77A1.29,1.29,0,0,1,103.58,14.08Zm4.64,4.77V14c0-.78-.3-1.4-1.08-1.52v-.09c2.65.09,3.71,1.1,3.71,3.2v3.89c0,.46.16.65.45.65s.51-.24.77-.72h.09a2,2,0,0,1-2.08,1.3C108.8,20.66,108.22,20.21,108.22,18.85Z"/><path class="cls-3" d="M112.57,9.36a9.91,9.91,0,0,0,3.83-.62V19.59c0,.4.24.81,1.2.81v.1h-5v-.1c1,0,1.2-.41,1.2-.81V10.3c0-.57-.27-.84-1.19-.84Z"/><path class="cls-3" d="M118.3,13a9.72,9.72,0,0,0,3.83-.63v7.27c0,.4.24.81,1.2.81v.1h-5v-.1c1,0,1.2-.41,1.2-.81v-5.7c0-.58-.28-.85-1.19-.85Zm.82-3a1.65,1.65,0,1,1,1.63,1.4A1.45,1.45,0,0,1,119.12,9.94Z"/><path class="cls-3" d="M127.07,18.6a.82.82,0,0,0-.9.8c0,.46.32,1.05,1.43,1.16v.1c-2.13-.08-3.3-.66-3.3-1.58a1.25,1.25,0,0,1,1.36-1.19A1.64,1.64,0,0,1,127.07,18.6Zm.53-6.17c-.59.12-1.17.42-1.15,1.08,0,1.85,5.23,2.16,5.23,4.7,0,1.55-1.31,2.37-3.38,2.45v-.1c.68-.11,1.43-.35,1.43-1.18,0-1.66-5.25-2.27-5.25-4.71,0-1.41,1.33-2.25,3.12-2.33ZM131.38,14a1.05,1.05,0,0,1-1.19,1,1.38,1.38,0,0,1-1.36-.77.71.71,0,0,0,.72-.75c0-.48-.61-1-1.25-1v-.09C130.11,12.43,131.38,13.09,131.38,14Z"/><path class="cls-3" d="M138.94,19.27v.09a3.32,3.32,0,0,1-2.73,1.3c-1.44,0-2.47-.66-2.47-2.26V13.15h-.83l.18-.24h.65V11.18a4.06,4.06,0,0,0,2.63-.89v2.62h2.16l-.18.24h-2v5.3c0,.8.3,1.63,1,1.63A2.32,2.32,0,0,0,138.94,19.27Z"/><path class="cls-3" d="M142.4,18.6a.82.82,0,0,0-.9.8c0,.46.32,1.05,1.43,1.16v.1c-2.13-.08-3.3-.66-3.3-1.58A1.25,1.25,0,0,1,141,17.89,1.64,1.64,0,0,1,142.4,18.6Zm.53-6.17c-.6.12-1.17.42-1.16,1.08,0,1.85,5.24,2.16,5.24,4.7,0,1.55-1.31,2.37-3.38,2.45v-.1c.67-.11,1.43-.35,1.43-1.18,0-1.66-5.25-2.27-5.25-4.71,0-1.41,1.32-2.25,3.12-2.33ZM146.7,14a1,1,0,0,1-1.18,1,1.38,1.38,0,0,1-1.36-.77.71.71,0,0,0,.72-.75c0-.48-.61-1-1.25-1v-.09C145.44,12.43,146.7,13.09,146.7,14Z"/><path class="cls-3" d="M14.75,38.56v.1a6,6,0,0,1-3.1-.78l-.53.78H11v-3.9h.13A5.38,5.38,0,0,0,14.75,38.56Zm4.71-3.18c0,2.06-1.54,3.18-4,3.28v-.1c.88-.16,1.75-.67,1.75-1.63,0-2.8-6.12-3.06-6.12-6.3,0-1.93,1.55-3,3.68-3.17v.09A1.51,1.51,0,0,0,13.35,29C13.35,31.83,19.46,32.13,19.46,35.38Zm-4-7.83v-.09a5.14,5.14,0,0,1,2.88.84l.58-.84H19V31H18.9A5.1,5.1,0,0,0,15.44,27.55Z"/><path class="cls-3" d="M26.75,37.27v.09A3.32,3.32,0,0,1,24,38.66c-1.44,0-2.47-.66-2.47-2.26V31.15h-.83l.18-.24h.65V29.18a4.06,4.06,0,0,0,2.63-.89v2.62h2.16l-.18.24h-2v5.3c0,.8.3,1.63,1.05,1.63A2.32,2.32,0,0,0,26.75,37.27Z"/><path class="cls-3" d="M27.26,36.61c0-1.39,1.28-2.18,3.08-2.18h1.73v.1h-.48a1.58,1.58,0,0,0-1.7,1.75c0,.88.25,1.55,1,1.55a1.77,1.77,0,0,0,1.17-.56v.09a3.41,3.41,0,0,1-2.55,1.3A2,2,0,0,1,27.26,36.61Zm.64-4.53c0-.82.74-1.65,2.92-1.74v.09a1.18,1.18,0,0,0-1,1.17c0,.58.4.93,1,1a1.78,1.78,0,0,1-1.53.77A1.29,1.29,0,0,1,27.9,32.08Zm4.65,4.77V32c0-.78-.31-1.4-1.09-1.52v-.09c2.65.09,3.71,1.1,3.71,3.2v3.89c0,.46.16.65.45.65s.51-.24.77-.72h.09a2,2,0,0,1-2.08,1.3C33.12,38.66,32.55,38.21,32.55,36.85Z"/><path class="cls-3" d="M40.82,37.59c0,.4.24.81,1.2.81v.1H37v-.1c1,0,1.2-.41,1.2-.81V31.91c0-.58-.28-.85-1.19-.85V31a9.91,9.91,0,0,0,3.83-.62Zm4.32-5.52a1.71,1.71,0,0,1-1.65,1.82,1.1,1.1,0,0,1-.91-.35,1.18,1.18,0,0,0,.62-1.09.84.84,0,0,0-.89-.86,1.09,1.09,0,0,0-1,.6v-.12a2.2,2.2,0,0,1,2.08-1.73A1.63,1.63,0,0,1,45.14,32.07Z"/><path class="cls-3" d="M59.49,36.6l.07.12a4.41,4.41,0,0,1-3.86,1.94,5.69,5.69,0,0,1-5.86-5.59,5.4,5.4,0,0,1,5.47-5.61v.09C54.19,27.79,53,28.85,53,33S54.63,38,56.43,38A4,4,0,0,0,59.49,36.6Zm.13-9.14v3.88h-.13a5,5,0,0,0-3.38-3.79v-.09a5.5,5.5,0,0,1,2.9.73l.48-.73Z"/><path class="cls-3" d="M60.83,36.61c0-1.39,1.28-2.18,3.07-2.18h1.73v.1h-.48a1.58,1.58,0,0,0-1.69,1.75c0,.88.25,1.55,1,1.55a1.75,1.75,0,0,0,1.17-.56v.09a3.39,3.39,0,0,1-2.54,1.3A2,2,0,0,1,60.83,36.61Zm.64-4.53c0-.82.74-1.65,2.91-1.74v.09a1.17,1.17,0,0,0-1,1.17c0,.58.4.93,1,1a1.8,1.8,0,0,1-1.54.77A1.29,1.29,0,0,1,61.47,32.08Zm4.64,4.77V32c0-.78-.3-1.4-1.09-1.52v-.09c2.66.09,3.72,1.1,3.72,3.2v3.89c0,.46.16.65.45.65s.51-.24.76-.72h.1A2,2,0,0,1,68,38.66C66.69,38.66,66.11,38.21,66.11,36.85Z"/><path class="cls-3" d="M74.38,37.59c0,.4.24.81,1.2.81v.1h-5v-.1c1,0,1.2-.41,1.2-.81V31.91c0-.58-.27-.85-1.18-.85V31a9.82,9.82,0,0,0,3.82-.62Zm5.32-5v5c0,.4.22.81,1.18.81v.1h-5v-.1c.94,0,1.2-.41,1.2-.81v-5c0-.89-.35-1.36-1.12-1.36a1.44,1.44,0,0,0-1.06.48v-.09a2.6,2.6,0,0,1,2.34-1.28C78.74,30.34,79.7,31,79.7,32.59Zm5.3,0v5c0,.4.24.81,1.2.81v.1h-5v-.1c.94,0,1.2-.41,1.2-.81v-5c0-.89-.36-1.36-1.12-1.36a1.44,1.44,0,0,0-1.06.48v-.09a2.6,2.6,0,0,1,2.34-1.28C84,30.34,85,31,85,32.59Z"/><path class="cls-3" d="M90.46,40.93c0,.58.28.85,1.19.85v.1a10.62,10.62,0,0,0-3.83.62V31.89c0-.58-.27-.85-1.18-.85V31a10.33,10.33,0,0,0,3.82-.63Zm6.1-6.51c0,3.34-1.76,4.24-3.28,4.24a3,3,0,0,1-2.34-1.3v-.09a2.29,2.29,0,0,0,1.35.56c.75,0,1.55-.53,1.55-3.41s-.75-3.27-1.55-3.27a1.78,1.78,0,0,0-1.35.6v-.13a3,3,0,0,1,2.34-1.28C94.83,30.34,96.56,31.23,96.56,34.42Z"/><path class="cls-3" d="M98,34.47a4,4,0,0,1,3.92-4.13v.09c-1,.12-1.2.91-1.2,4,0,2.31,1,3.57,2.45,3.57a3.43,3.43,0,0,0,2.33-.85v.1a4.47,4.47,0,0,1-3.39,1.44A4,4,0,0,1,98,34.47Zm3.6-.68c1.41,0,2-.44,2-1.79,0-.77-.32-1.47-1-1.57v-.09a2.89,2.89,0,0,1,3.14,2.72,5.69,5.69,0,0,1-.08.83h-4Z"/><path class="cls-3" d="M110.53,37.59c0,.4.24.81,1.2.81v.1h-5v-.1c1,0,1.2-.41,1.2-.81V31.91c0-.58-.27-.85-1.19-.85V31a9.91,9.91,0,0,0,3.83-.62Zm4.32-5.52a1.71,1.71,0,0,1-1.65,1.82,1.1,1.1,0,0,1-.91-.35,1.18,1.18,0,0,0,.62-1.09.84.84,0,0,0-.89-.86,1.09,1.09,0,0,0-1,.6v-.12a2.2,2.2,0,0,1,2.08-1.73A1.63,1.63,0,0,1,114.85,32.07Z"/><path class="cls-3" d="M125.55,36.6l.07.12a4.4,4.4,0,0,1-3.86,1.94,5.69,5.69,0,0,1-5.86-5.59,5.4,5.4,0,0,1,5.48-5.61v.09c-1.12.24-2.34,1.3-2.34,5.41S120.69,38,122.5,38A3.94,3.94,0,0,0,125.55,36.6Zm.13-9.14v3.88h-.13c-.62-2.12-1.8-3.36-3.37-3.79v-.09a5.45,5.45,0,0,1,2.89.73l.48-.73Z"/><path class="cls-3" d="M126.89,36.61c0-1.39,1.28-2.18,3.08-2.18h1.73v.1h-.48a1.58,1.58,0,0,0-1.7,1.75c0,.88.26,1.55,1,1.55a1.77,1.77,0,0,0,1.17-.56v.09a3.41,3.41,0,0,1-2.55,1.3A2,2,0,0,1,126.89,36.61Zm.64-4.53c0-.82.74-1.65,2.92-1.74v.09a1.18,1.18,0,0,0-1,1.17c0,.58.4.93,1,1a1.78,1.78,0,0,1-1.53.77A1.29,1.29,0,0,1,127.53,32.08Zm4.65,4.77V32c0-.78-.31-1.4-1.09-1.52v-.09c2.65.09,3.71,1.1,3.71,3.2v3.89c0,.46.16.65.45.65s.51-.24.77-.72h.09a2,2,0,0,1-2.08,1.3C132.75,38.66,132.18,38.21,132.18,36.85Z"/><path class="cls-3" d="M140.45,37.59c0,.4.24.81,1.2.81v.1h-5v-.1c1,0,1.2-.41,1.2-.81V31.91c0-.58-.28-.85-1.19-.85V31a9.91,9.91,0,0,0,3.83-.62Zm4.32-5.52a1.71,1.71,0,0,1-1.65,1.82,1.1,1.1,0,0,1-.91-.35,1.18,1.18,0,0,0,.62-1.09.84.84,0,0,0-.89-.86,1.09,1.09,0,0,0-1,.6v-.12a2.2,2.2,0,0,1,2.08-1.73A1.63,1.63,0,0,1,144.77,32.07Z"/><path class="cls-3" d="M145.63,34.47a4,4,0,0,1,3.92-4.13v.09c-.94.12-1.2.91-1.2,4,0,2.31,1,3.57,2.45,3.57a3.47,3.47,0,0,0,2.34-.85v.1a4.5,4.5,0,0,1-3.4,1.44A4,4,0,0,1,145.63,34.47Zm3.6-.68c1.41,0,2-.44,2-1.79,0-.77-.32-1.47-1-1.57v-.09a2.89,2.89,0,0,1,3.14,2.72,4.58,4.58,0,0,1-.08.83h-4Z"/></g></svg>