<?xml version="1.0" encoding="utf-8"?>
<!-- Generator: Adobe Illustrator 24.0.3, SVG Export Plug-In . SVG Version: 6.00 Build 0)  -->
<svg version="1.1" id="Layer_1" xmlns="http://www.w3.org/2000/svg" xmlns:xlink="http://www.w3.org/1999/xlink" x="0px" y="0px"
	 viewBox="0 0 320 50" style="enable-background:new 0 0 320 50;" xml:space="preserve">
<style type="text/css">
	.st0{clip-path:url(#SVGID_2_);}
	.st1{enable-background:new    ;}
	.st2{fill:#FFFFFF;}
</style>
<title>Artboard 1 copy 2</title>
<g>
	<defs>
		<rect id="SVGID_1_" y="0" width="320" height="50"/>
	</defs>
	<clipPath id="SVGID_2_">
		<use xlink:href="#SVGID_1_"  style="overflow:visible;"/>
	</clipPath>
	<g class="st0">
		<g class="st1">
			<path class="st2" d="M10.5,20.4c1.1,0,1.4-0.4,1.4-1V8.6c0-0.5-0.3-1-1.4-1V7.5h4.7v11.9c0,0.5,0.3,1,1.4,1v0.1h-6.1V20.4z
				 M16.1,7.6V7.5h5.3v3.8h-0.2C20.3,8.6,19,7.8,16.1,7.6z M17.2,14.1L16.1,14v-0.1l1.1-0.1c1.1-0.1,1.9-0.6,2.5-1.6h0.2v3.6h-0.2
				C19,14.6,18.3,14.2,17.2,14.1z"/>
		</g>
		<g class="st1">
			<path class="st2" d="M26.9,19.4c0,0.5,0.3,1,1.4,1v0.1h-6v-0.1c1.1,0,1.4-0.5,1.4-1v-6.8c0-0.7-0.3-1-1.4-1v-0.1
				c1.8,0,3.2-0.2,4.6-0.7V19.4z M32.1,12.8c0,1.3-0.9,2.2-2,2.2c-0.5,0-0.9-0.1-1.1-0.4c0.4-0.2,0.7-0.6,0.7-1.3c0-0.6-0.4-1-1.1-1
				c-0.5,0-0.9,0.3-1.1,0.7v-0.2c0.4-1.2,1.3-2.1,2.5-2.1C31.4,10.8,32.1,11.7,32.1,12.8z"/>
		</g>
		<g class="st1">
			<path class="st2" d="M37.9,10.9c-1.1,0.1-1.5,1.1-1.5,4.8c0,3.6,0.4,4.8,1.5,4.9v0.1c-2.2,0-4.8-1.8-4.8-5c0-3.2,2.5-4.9,4.8-4.9
				V10.9z M43.4,15.7c0,3.2-2.5,5-4.7,5v-0.1c1.1-0.1,1.5-1.3,1.5-4.9c0-3.7-0.4-4.7-1.5-4.8v-0.1C40.8,10.8,43.4,12.5,43.4,15.7z"
				/>
			<path class="st2" d="M49.2,19.4c0,0.5,0.3,1,1.4,1v0.1h-6v-0.1c1.1,0,1.4-0.5,1.4-1v-6.8c0-0.7-0.3-1-1.4-1v-0.1
				c1.8,0,3.2-0.2,4.6-0.7V19.4z M55.6,13.5v6c0,0.5,0.3,1,1.4,1v0.1h-6v-0.1c1.1,0,1.4-0.5,1.4-1v-6c0-1.1-0.4-1.6-1.3-1.6
				c-0.5,0-1,0.3-1.3,0.6v-0.1c0.4-0.8,1.4-1.5,2.8-1.5C54.4,10.8,55.6,11.6,55.6,13.5z M61.9,13.5v6c0,0.5,0.3,1,1.4,1v0.1h-6v-0.1
				c1.1,0,1.4-0.5,1.4-1v-6c0-1.1-0.4-1.6-1.3-1.6c-0.5,0-1,0.3-1.3,0.6v-0.1c0.4-0.8,1.4-1.5,2.8-1.5
				C60.7,10.8,61.9,11.6,61.9,13.5z"/>
			<path class="st2" d="M72.5,18.2c-0.6,0-1.1,0.4-1.1,1c0,0.6,0.4,1.3,1.7,1.4v0.1c-2.5-0.1-3.9-0.8-3.9-1.9c0-0.9,0.8-1.4,1.6-1.4
				C71.6,17.4,72.2,17.7,72.5,18.2z M73.2,10.9c-0.7,0.1-1.4,0.5-1.4,1.3c0.1,2.2,6.2,2.6,6.2,5.6c0,1.9-1.6,2.8-4,2.9v-0.1
				c0.8-0.1,1.7-0.4,1.7-1.4c0-2-6.3-2.7-6.3-5.6c0-1.7,1.6-2.7,3.7-2.8V10.9z M77.7,12.7c0,0.6-0.5,1.2-1.4,1.2
				c-0.8,0-1.4-0.3-1.6-0.9c0.6,0,0.9-0.4,0.9-0.9c0-0.6-0.7-1.1-1.5-1.2v-0.1C76.2,10.9,77.7,11.7,77.7,12.7z"/>
			<path class="st2" d="M83.7,23.4c0,0.7,0.3,1,1.4,1v0.1c-1.8,0-3,0.2-4.6,0.7V12.6c0-0.7-0.3-1-1.4-1v-0.1c1.8,0,3-0.2,4.6-0.7
				V23.4z M91,15.6c0,4-2.1,5.1-3.9,5.1c-1.1,0-2.3-0.7-2.8-1.5V19c0.5,0.4,1,0.7,1.6,0.7c0.9,0,1.9-0.6,1.9-4.1
				c0-3.5-0.9-3.9-1.9-3.9c-0.6,0-1.2,0.2-1.6,0.7v-0.2c0.5-0.8,1.7-1.5,2.8-1.5C88.9,10.8,91,11.8,91,15.6z"/>
			<path class="st2" d="M92.7,15.7c0-3.2,2.4-4.9,4.7-4.9v0.1c-1.1,0.1-1.4,1.1-1.4,4.7c0,2.8,1.2,4.3,2.9,4.3c1.1,0,1.9-0.3,2.8-1
				V19c-1,1.3-2.8,1.7-4.1,1.7C95.1,20.7,92.7,18.9,92.7,15.7z M97,14.9c1.7,0,2.4-0.5,2.4-2.1c0-0.9-0.4-1.8-1.2-1.9v-0.1
				c2.5,0,3.7,1.8,3.7,3.2c0,0.3,0,0.7-0.1,1H97V14.9z"/>
			<path class="st2" d="M108.3,10.9c-1.1,0.1-1.6,1.1-1.6,4.7c0,2.8,1.4,4.3,3.1,4.3c1.1,0,1.9-0.3,2.8-1V19c-1,1.3-2.8,1.7-4,1.7
				c-2.4,0-5.1-1.8-5.1-5c0-3.2,2.7-4.9,4.9-4.9V10.9z M112.6,12.9c0,1-0.7,1.8-1.9,1.8c-0.9,0-1.5-0.6-1.7-1.2
				c0.5-0.2,0.9-0.9,0.9-1.4c0-0.4-0.1-1.1-0.8-1.3v-0.1C111.6,10.8,112.6,11.8,112.6,12.9z"/>
			<path class="st2" d="M113.7,11.5c1.8,0,3.2-0.2,4.6-0.7v8.7c0,0.5,0.3,1,1.4,1v0.1h-6v-0.1c1.1,0,1.4-0.5,1.4-1v-6.8
				c0-0.7-0.3-1-1.4-1V11.5z M114.7,7.9c0-1,0.8-1.7,1.9-1.7c1.1,0,1.9,0.7,1.9,1.7c0,1-0.8,1.7-1.9,1.7
				C115.5,9.6,114.7,8.9,114.7,7.9z"/>
			<path class="st2" d="M120.7,18.2c0-1.7,1.5-2.6,3.7-2.6h2.1v0.1h-0.6c-1.4,0-2,0.9-2,2.1c0,1.1,0.3,1.9,1.2,1.9
				c0.5,0,1-0.3,1.4-0.7v0.1c-0.6,0.7-1.6,1.5-3,1.5C121.7,20.7,120.6,19.8,120.7,18.2z M121.4,12.8c0-1,0.9-2,3.5-2.1v0.1
				c-0.8,0.1-1.2,0.7-1.2,1.4c0,0.7,0.5,1.1,1.2,1.2c-0.3,0.5-1.1,0.9-1.8,0.9C122,14.3,121.4,13.6,121.4,12.8z M127,18.5v-5.8
				c0-0.9-0.4-1.7-1.3-1.8v-0.1c3.2,0.1,4.4,1.3,4.4,3.8v4.6c0,0.6,0.2,0.8,0.5,0.8c0.3,0,0.6-0.3,0.9-0.9h0.1
				c-0.3,1.1-1.3,1.5-2.5,1.5C127.6,20.7,127,20.2,127,18.5z"/>
			<path class="st2" d="M132.2,7.2c1.8,0,3.2-0.2,4.6-0.7v13c0,0.5,0.3,1,1.4,1v0.1h-6v-0.1c1.1,0,1.4-0.5,1.4-1V8.3
				c0-0.7-0.3-1-1.4-1V7.2z"/>
			<path class="st2" d="M139,11.5c1.8,0,3.2-0.2,4.6-0.7v8.7c0,0.5,0.3,1,1.4,1v0.1h-6v-0.1c1.1,0,1.4-0.5,1.4-1v-6.8
				c0-0.7-0.3-1-1.4-1V11.5z M140,7.9c0-1,0.8-1.7,1.9-1.7c1.1,0,1.9,0.7,1.9,1.7c0,1-0.8,1.7-1.9,1.7C140.8,9.6,140,8.9,140,7.9z"
				/>
			<path class="st2" d="M149.5,18.2c-0.6,0-1.1,0.4-1.1,1c0,0.6,0.4,1.3,1.7,1.4v0.1c-2.5-0.1-3.9-0.8-3.9-1.9
				c0-0.9,0.8-1.4,1.6-1.4C148.6,17.4,149.2,17.7,149.5,18.2z M150.1,10.9c-0.7,0.1-1.4,0.5-1.4,1.3c0.1,2.2,6.2,2.6,6.2,5.6
				c0,1.9-1.6,2.8-4,2.9v-0.1c0.8-0.1,1.7-0.4,1.7-1.4c0-2-6.3-2.7-6.3-5.6c0-1.7,1.6-2.7,3.7-2.8V10.9z M154.6,12.7
				c0,0.6-0.5,1.2-1.4,1.2c-0.8,0-1.4-0.3-1.6-0.9c0.6,0,0.9-0.4,0.9-0.9c0-0.6-0.7-1.1-1.5-1.2v-0.1
				C153.1,10.9,154.6,11.7,154.6,12.7z"/>
			<path class="st2" d="M163.6,19v0.1c-0.6,0.9-1.8,1.5-3.3,1.5c-1.7,0-2.9-0.8-2.9-2.7v-6.3h-1l0.2-0.3h0.8V9.4
				c1.2,0,2.3-0.4,3.1-1.1v3.1h2.6l-0.2,0.3h-2.4v6.3c0,1,0.4,1.9,1.3,1.9C162.4,20,163,19.7,163.6,19z"/>
			<path class="st2" d="M167.8,18.2c-0.6,0-1.1,0.4-1.1,1c0,0.6,0.4,1.3,1.7,1.4v0.1c-2.5-0.1-3.9-0.8-3.9-1.9
				c0-0.9,0.8-1.4,1.6-1.4C166.9,17.4,167.5,17.7,167.8,18.2z M168.4,10.9c-0.7,0.1-1.4,0.5-1.4,1.3c0.1,2.2,6.2,2.6,6.2,5.6
				c0,1.9-1.6,2.8-4,2.9v-0.1c0.8-0.1,1.7-0.4,1.7-1.4c0-2-6.3-2.7-6.3-5.6c0-1.7,1.6-2.7,3.7-2.8V10.9z M172.9,12.7
				c0,0.6-0.5,1.2-1.4,1.2c-0.8,0-1.4-0.3-1.6-0.9c0.6,0,0.9-0.4,0.9-0.9c0-0.6-0.7-1.1-1.5-1.2v-0.1
				C171.4,10.9,172.9,11.7,172.9,12.7z"/>
		</g>
		<g class="st1">
			<path class="st2" d="M179.1,19c0,1.3-1.4,3.1-3.8,4.1l-0.1-0.2c0.7-0.5,1.3-1.4,1.3-2.3c0-1-0.7-1.5-1.6-1.5
				c0.2-1.4,1-2.1,2.2-2.1C178.2,17,179.1,17.7,179.1,19z"/>
		</g>
		<g class="st1">
			<path class="st2" d="M15.3,40.8v0.1c-1.5,0-2.7-0.3-3.7-0.9L11,40.9h-0.2v-4.7H11C11.6,38.4,13,40,15.3,40.8z M20.9,37
				c0,2.5-1.8,3.8-4.8,3.9v-0.1c1.1-0.2,2.1-0.8,2.1-1.9c0-3.3-7.3-3.6-7.3-7.5c0-2.3,1.9-3.6,4.4-3.8v0.1c-0.9,0.2-1.7,0.7-1.7,1.8
				C13.6,32.7,20.9,33.1,20.9,37z M16.1,27.6v-0.1c1.4,0.1,2.6,0.4,3.4,1l0.7-1h0.2v4.3h-0.2C19.7,29.7,18,28.1,16.1,27.6z"/>
		</g>
		<g class="st1">
			<path class="st2" d="M29.7,39.2v0.1c-0.6,0.9-1.8,1.5-3.3,1.5c-1.7,0-2.9-0.8-2.9-2.7v-6.3h-1l0.2-0.3h0.8v-2.1
				c1.2,0,2.3-0.4,3.1-1.1v3.1h2.6L29,31.9h-2.4v6.3c0,1,0.4,1.9,1.3,1.9C28.4,40.2,29,39.8,29.7,39.2z"/>
			<path class="st2" d="M30.3,38.4c0-1.7,1.5-2.6,3.7-2.6H36v0.1h-0.6c-1.4,0-2,0.9-2,2.1c0,1.1,0.3,1.9,1.2,1.9
				c0.5,0,1-0.3,1.4-0.7v0.1c-0.6,0.7-1.6,1.5-3,1.5C31.3,40.9,30.3,40,30.3,38.4z M31,33c0-1,0.9-2,3.5-2.1v0.1
				c-0.8,0.1-1.2,0.7-1.2,1.4c0,0.7,0.5,1.1,1.2,1.2c-0.3,0.5-1.1,0.9-1.8,0.9C31.6,34.5,31,33.8,31,33z M36.6,38.7v-5.8
				c0-0.9-0.4-1.7-1.3-1.8v-0.1c3.2,0.1,4.4,1.3,4.4,3.8v4.6c0,0.6,0.2,0.8,0.5,0.8c0.3,0,0.6-0.3,0.9-0.9h0.1
				c-0.3,1.1-1.3,1.5-2.5,1.5C37.3,40.9,36.6,40.3,36.6,38.7z"/>
		</g>
		<g class="st1">
			<path class="st2" d="M46.5,39.6c0,0.5,0.3,1,1.4,1v0.1h-6v-0.1c1.1,0,1.4-0.5,1.4-1v-6.8c0-0.7-0.3-1-1.4-1v-0.1
				c1.8,0,3.2-0.2,4.6-0.7V39.6z M51.6,33c0,1.3-0.9,2.2-2,2.2c-0.5,0-0.9-0.1-1.1-0.4c0.4-0.2,0.7-0.6,0.7-1.3c0-0.6-0.4-1-1.1-1
				c-0.5,0-0.9,0.3-1.1,0.7V33c0.4-1.2,1.3-2.1,2.5-2.1C50.9,30.9,51.6,31.9,51.6,33z"/>
		</g>
		<g class="st1">
			<path class="st2" d="M68.8,38.4l0.1,0.2c-1,1.6-2.8,2.3-4.6,2.3c-3.1,0-7-2.2-7-6.7c0-4.8,3.8-6.6,6.5-6.7v0.1
				c-1.3,0.3-2.8,1.5-2.8,6.5c0,4.9,2,6,4.1,6C66.8,40.1,68.1,39.2,68.8,38.4z M68.9,27.5v4.6h-0.2c-0.7-2.5-2.2-4-4-4.5v-0.1
				c1.7,0.1,2.7,0.4,3.5,0.9l0.6-0.9H68.9z"/>
			<path class="st2" d="M70.4,38.4c0-1.7,1.5-2.6,3.7-2.6h2.1v0.1h-0.6c-1.4,0-2,0.9-2,2.1c0,1.1,0.3,1.9,1.2,1.9
				c0.5,0,1-0.3,1.4-0.7v0.1c-0.6,0.7-1.6,1.5-3,1.5C71.4,40.9,70.3,40,70.4,38.4z M71.1,33c0-1,0.9-2,3.5-2.1v0.1
				c-0.8,0.1-1.2,0.7-1.2,1.4c0,0.7,0.5,1.1,1.2,1.2c-0.3,0.5-1.1,0.9-1.8,0.9C71.7,34.5,71.1,33.8,71.1,33z M76.7,38.7v-5.8
				c0-0.9-0.4-1.7-1.3-1.8v-0.1c3.2,0.1,4.4,1.3,4.4,3.8v4.6c0,0.6,0.2,0.8,0.5,0.8c0.3,0,0.6-0.3,0.9-0.9h0.1
				c-0.3,1.1-1.3,1.5-2.5,1.5C77.4,40.9,76.7,40.3,76.7,38.7z"/>
			<path class="st2" d="M86.5,39.6c0,0.5,0.3,1,1.4,1v0.1h-6v-0.1c1.1,0,1.4-0.5,1.4-1v-6.8c0-0.7-0.3-1-1.4-1v-0.1
				c1.8,0,3.2-0.2,4.6-0.7V39.6z M92.9,33.6v6c0,0.5,0.3,1,1.4,1v0.1h-6v-0.1c1.1,0,1.4-0.5,1.4-1v-6c0-1.1-0.4-1.6-1.3-1.6
				c-0.5,0-1,0.3-1.3,0.6v-0.1c0.4-0.8,1.4-1.5,2.8-1.5C91.7,30.9,92.9,31.7,92.9,33.6z M99.2,33.6v6c0,0.5,0.3,1,1.4,1v0.1h-6v-0.1
				c1.1,0,1.4-0.5,1.4-1v-6c0-1.1-0.4-1.6-1.3-1.6c-0.5,0-1,0.3-1.3,0.6v-0.1c0.4-0.8,1.4-1.5,2.8-1.5
				C98.1,30.9,99.2,31.7,99.2,33.6z"/>
			<path class="st2" d="M105.7,43.6c0,0.7,0.3,1,1.4,1v0.1c-1.8,0-3,0.2-4.6,0.7V32.8c0-0.7-0.3-1-1.4-1v-0.1c1.8,0,3-0.2,4.6-0.7
				V43.6z M113,35.8c0,4-2.1,5.1-3.9,5.1c-1.1,0-2.3-0.7-2.8-1.5v-0.1c0.5,0.4,1,0.7,1.6,0.7c0.9,0,1.9-0.6,1.9-4.1
				c0-3.5-0.9-3.9-1.9-3.9c-0.6,0-1.2,0.2-1.6,0.7v-0.2c0.5-0.8,1.7-1.5,2.8-1.5C111,30.9,113,32,113,35.8z"/>
			<path class="st2" d="M114.7,35.9c0-3.2,2.4-4.9,4.7-4.9v0.1c-1.1,0.1-1.4,1.1-1.4,4.7c0,2.8,1.2,4.3,2.9,4.3c1.1,0,1.9-0.3,2.8-1
				v0.1c-1,1.3-2.8,1.7-4.1,1.7C117.2,40.9,114.7,39.1,114.7,35.9z M119,35.1c1.7,0,2.4-0.5,2.4-2.1c0-0.9-0.4-1.8-1.2-1.9v-0.1
				c2.5,0,3.7,1.8,3.7,3.2c0,0.3,0,0.7-0.1,1H119V35.1z"/>
			<path class="st2" d="M129.7,39.6c0,0.5,0.3,1,1.4,1v0.1h-6v-0.1c1.1,0,1.4-0.5,1.4-1v-6.8c0-0.7-0.3-1-1.4-1v-0.1
				c1.8,0,3.2-0.2,4.6-0.7V39.6z M134.9,33c0,1.3-0.9,2.2-2,2.2c-0.5,0-0.9-0.1-1.1-0.4c0.4-0.2,0.7-0.6,0.7-1.3c0-0.6-0.4-1-1.1-1
				c-0.5,0-0.9,0.3-1.1,0.7V33c0.4-1.2,1.3-2.1,2.5-2.1C134.1,30.9,134.9,31.9,134.9,33z"/>
			<path class="st2" d="M147.7,38.4l0.1,0.2c-1,1.6-2.8,2.3-4.6,2.3c-3.1,0-7-2.2-7-6.7c0-4.8,3.8-6.6,6.5-6.7v0.1
				c-1.3,0.3-2.8,1.5-2.8,6.5c0,4.9,2,6,4.1,6C145.7,40.1,147,39.2,147.7,38.4z M147.8,27.5v4.6h-0.2c-0.7-2.5-2.2-4-4-4.5v-0.1
				c1.7,0.1,2.7,0.4,3.5,0.9l0.6-0.9H147.8z"/>
			<path class="st2" d="M149.3,38.4c0-1.7,1.5-2.6,3.7-2.6h2.1v0.1h-0.6c-1.4,0-2,0.9-2,2.1c0,1.1,0.3,1.9,1.2,1.9
				c0.5,0,1-0.3,1.4-0.7v0.1c-0.6,0.7-1.6,1.5-3,1.5C150.3,40.9,149.2,40,149.3,38.4z M150,33c0-1,0.9-2,3.5-2.1v0.1
				c-0.8,0.1-1.2,0.7-1.2,1.4c0,0.7,0.5,1.1,1.2,1.2c-0.3,0.5-1.1,0.9-1.8,0.9C150.6,34.5,150,33.8,150,33z M155.6,38.7v-5.8
				c0-0.9-0.4-1.7-1.3-1.8v-0.1c3.2,0.1,4.4,1.3,4.4,3.8v4.6c0,0.6,0.2,0.8,0.5,0.8c0.3,0,0.6-0.3,0.9-0.9h0.1
				c-0.3,1.1-1.3,1.5-2.5,1.5C156.3,40.9,155.6,40.3,155.6,38.7z"/>
		</g>
		<g class="st1">
			<path class="st2" d="M165.5,39.6c0,0.5,0.3,1,1.4,1v0.1h-6v-0.1c1.1,0,1.4-0.5,1.4-1v-6.8c0-0.7-0.3-1-1.4-1v-0.1
				c1.8,0,3.2-0.2,4.6-0.7V39.6z M170.6,33c0,1.3-0.9,2.2-2,2.2c-0.5,0-0.9-0.1-1.1-0.4c0.4-0.2,0.7-0.6,0.7-1.3c0-0.6-0.4-1-1.1-1
				c-0.5,0-0.9,0.3-1.1,0.7V33c0.4-1.2,1.3-2.1,2.5-2.1C169.9,30.9,170.6,31.9,170.6,33z"/>
		</g>
		<g class="st1">
			<path class="st2" d="M171.6,35.9c0-3.2,2.4-4.9,4.7-4.9v0.1c-1.1,0.1-1.4,1.1-1.4,4.7c0,2.8,1.2,4.3,2.9,4.3c1.1,0,1.9-0.3,2.8-1
				v0.1c-1,1.3-2.8,1.7-4.1,1.7C174.1,40.9,171.6,39.1,171.6,35.9z M175.9,35.1c1.7,0,2.4-0.5,2.4-2.1c0-0.9-0.4-1.8-1.2-1.9v-0.1
				c2.5,0,3.7,1.8,3.7,3.2c0,0.3,0,0.7-0.1,1h-4.8V35.1z"/>
		</g>
	</g>
</g>
</svg>
