<svg id="Layer_1" data-name="Layer 1" xmlns="http://www.w3.org/2000/svg" xmlns:xlink="http://www.w3.org/1999/xlink" viewBox="0 0 320 50"><defs><style>.cls-1{fill:none;}.cls-2{clip-path:url(#clip-path);}.cls-3{fill:#fff;}</style><clipPath id="clip-path"><rect class="cls-1" width="320" height="50"/></clipPath></defs><title>Artboard 1 copy 3</title><g class="cls-2"><path class="cls-3" d="M20.42,18.85l.06.13a4.38,4.38,0,0,1-3.85,1.94,5.69,5.69,0,0,1-5.86-5.59,5.41,5.41,0,0,1,5.47-5.62v.1c-1.12.24-2.33,1.29-2.33,5.41s1.65,5,3.45,5A3.92,3.92,0,0,0,20.42,18.85Zm.13-9.14V13.6h-.13A5,5,0,0,0,17,9.81v-.1a5.49,5.49,0,0,1,2.9.74l.48-.74Z"/><path class="cls-3" d="M21.76,18.87c0-1.4,1.28-2.18,3.07-2.18h1.73v.1h-.48a1.58,1.58,0,0,0-1.69,1.74c0,.88.25,1.55,1,1.55a1.75,1.75,0,0,0,1.17-.56v.1A3.39,3.39,0,0,1,24,20.92,2,2,0,0,1,21.76,18.87Zm.64-4.53c0-.82.74-1.65,2.91-1.75v.1a1.16,1.16,0,0,0-1,1.17c0,.57.4.92,1,1a1.8,1.8,0,0,1-1.54.77A1.28,1.28,0,0,1,22.4,14.34ZM27,19.11v-4.9c0-.79-.3-1.41-1.09-1.52v-.1c2.66.1,3.72,1.11,3.72,3.2v3.89c0,.47.16.66.45.66s.51-.24.76-.72H31a2,2,0,0,1-2.08,1.3C27.62,20.92,27,20.47,27,19.11Z"/><path class="cls-3" d="M31.39,9.61A9.91,9.91,0,0,0,35.22,9V19.84c0,.4.24.82,1.2.82v.1h-5v-.1c1,0,1.2-.42,1.2-.82V10.56c0-.58-.27-.85-1.19-.85Z"/><path class="cls-3" d="M37,9.61A9.82,9.82,0,0,0,40.83,9V19.84c0,.4.24.82,1.2.82v.1H37v-.1c1,0,1.2-.42,1.2-.82V10.56c0-.58-.27-.85-1.18-.85Z"/><path class="cls-3" d="M46.66,13.41a.87.87,0,0,0-.88-.56v-.1h4.48v.1c-.56,0-.79.38-.51.94l2.09,4.37-1.37,2.6h-.1ZM46,23.33a1.68,1.68,0,0,1,1.41-1.5,1.14,1.14,0,0,0-.06.4.93.93,0,0,0,.94,1.07c.56,0,1-.59,1.62-1.62H50c-.88,1.65-1.49,3.08-2.61,3.08A1.33,1.33,0,0,1,46,23.33Zm6.56-6.74A4.28,4.28,0,0,0,53,14.53a1.54,1.54,0,0,0-1.63-1.68v-.1h4v.1c-.53,0-.74.21-1,.75l-1.66,3.14Z"/><path class="cls-3" d="M59.38,12.69c-1,.11-1.27.91-1.27,4s.32,4,1.27,4.1v.1a4.09,4.09,0,0,1-4-4.2,4,4,0,0,1,4-4.13Zm4.61,4a4.09,4.09,0,0,1-4,4.2v-.1c.94-.1,1.25-1.1,1.25-4.1s-.32-3.94-1.25-4v-.1A4,4,0,0,1,64,16.72Z"/><path class="cls-3" d="M68.71,18.66c0,.9.3,1.36,1.1,1.36a1.4,1.4,0,0,0,1.1-.5v.1a2.65,2.65,0,0,1-2.48,1.3,2.07,2.07,0,0,1-2.37-2.26v-4.5c0-.58-.27-.85-1.18-.85v-.09a9.72,9.72,0,0,0,3.83-.63Zm5.33,1c0,.47.14.66.43.66s.51-.24.77-.72h.09a2,2,0,0,1-2.18,1.3,1.56,1.56,0,0,1-1.76-1.57V14.16c0-.58-.27-.85-1.13-.85v-.09A10.32,10.32,0,0,0,74,12.59Z"/><path class="cls-3" d="M79.81,19.84c0,.4.24.82,1.2.82v.1H76v-.1c1,0,1.2-.42,1.2-.82V14.16c0-.58-.27-.85-1.19-.85v-.09a9.72,9.72,0,0,0,3.83-.63Zm4.32-5.52a1.7,1.7,0,0,1-1.65,1.82,1.07,1.07,0,0,1-.91-.35,1.15,1.15,0,0,0,.62-1.09.84.84,0,0,0-.89-.86,1.09,1.09,0,0,0-1,.61v-.13a2.22,2.22,0,0,1,2.08-1.73A1.63,1.63,0,0,1,84.13,14.32Z"/><path class="cls-3" d="M92,18.74c0,1.52-1,2.18-2.64,2.18V10.56c0-.58-.29-.85-1.2-.85v-.1A10.71,10.71,0,0,0,92,9Zm6.1-2.07c0,3.35-1.78,4.25-3.3,4.25a3,3,0,0,1-2.32-1.3v-.1a2.15,2.15,0,0,0,1.33.56c.75,0,1.56-.52,1.56-3.41s-.76-3.26-1.56-3.26A1.76,1.76,0,0,0,92.5,14v-.13a3,3,0,0,1,2.32-1.28C96.37,12.59,98.12,13.49,98.12,16.67Z"/><path class="cls-3" d="M103.07,19.84c0,.4.24.82,1.2.82v.1h-5v-.1c1,0,1.2-.42,1.2-.82V14.16c0-.58-.27-.85-1.18-.85v-.09a9.64,9.64,0,0,0,3.82-.63Zm4.33-5.52a1.71,1.71,0,0,1-1.65,1.82,1.09,1.09,0,0,1-.92-.35,1.16,1.16,0,0,0,.63-1.09.85.85,0,0,0-.9-.86,1.11,1.11,0,0,0-1,.61v-.13a2.23,2.23,0,0,1,2.08-1.73A1.63,1.63,0,0,1,107.4,14.32Z"/><path class="cls-3" d="M112.24,12.69c-.94.11-1.26.91-1.26,4s.32,4,1.26,4.1v.1a4.08,4.08,0,0,1-4-4.2,4,4,0,0,1,4-4.13Zm4.61,4a4.09,4.09,0,0,1-4,4.2v-.1c1-.1,1.25-1.1,1.25-4.1s-.32-3.94-1.25-4v-.1A4,4,0,0,1,116.85,16.72Z"/><path class="cls-3" d="M122.85,20.66v.1h-5v-.1c1,0,1.2-.42,1.2-.82V10.56c0-.58-.27-.85-1.19-.85v-.1A9.91,9.91,0,0,0,121.65,9V19.84C121.65,20.24,121.89,20.66,122.85,20.66Zm5.43,0v.1a6.73,6.73,0,0,1-1.6.16,3,3,0,0,1-2.9-1.56l-1.51-2.51c1.27-1.1,2.45-2.45,2.45-3.27,0-.43-.2-.73-.94-.73v-.1h4.1v.1a1.41,1.41,0,0,0-.9.29l-2.93,2.32,2.77,4.29A1.65,1.65,0,0,0,128.28,20.66Z"/><path class="cls-3" d="M128.37,16.72a4,4,0,0,1,3.92-4.13v.1c-.94.11-1.2.91-1.2,4,0,2.3,1,3.57,2.45,3.57a3.52,3.52,0,0,0,2.34-.85v.09a4.51,4.51,0,0,1-3.4,1.45A4.06,4.06,0,0,1,128.37,16.72Zm3.6-.67c1.41,0,2-.45,2-1.79,0-.77-.32-1.48-1-1.57v-.1a2.9,2.9,0,0,1,3.14,2.72,4.41,4.41,0,0,1-.08.83h-4Z"/><path class="cls-3" d="M140.93,19.84c0,.4.24.82,1.2.82v.1h-5v-.1c1,0,1.2-.42,1.2-.82V14.16c0-.58-.27-.85-1.19-.85v-.09a9.72,9.72,0,0,0,3.83-.63Zm4.32-5.52a1.7,1.7,0,0,1-1.65,1.82,1.07,1.07,0,0,1-.91-.35,1.17,1.17,0,0,0,.62-1.09.84.84,0,0,0-.89-.86,1.09,1.09,0,0,0-1,.61v-.13a2.22,2.22,0,0,1,2.08-1.73A1.63,1.63,0,0,1,145.25,14.32Z"/><path class="cls-3" d="M16,31.17l-.17.24H14.21v6.43c0,.4.26.82,1.22.82v.1H10.37v-.1c1,0,1.2-.42,1.2-.82V31.41h-1l.17-.24h.87v-.72c0-2.27,1.18-3.24,2.66-3.46v.1a1.59,1.59,0,0,0-1,1.69A2.41,2.41,0,0,0,16,31.17Zm1.37-2.45a1.36,1.36,0,0,1-1.4,1.41,1.65,1.65,0,0,1-1.61-1.07,1,1,0,0,0,1.13-1,.92.92,0,0,0-.57-.94V27C16.56,27.05,17.32,27.81,17.32,28.72Z"/><path class="cls-3" d="M20.69,30.69c-.94.11-1.26.91-1.26,4s.32,4,1.26,4.1v.1a4.09,4.09,0,0,1-4-4.2,4,4,0,0,1,4-4.13Zm4.61,4a4.09,4.09,0,0,1-4,4.2v-.1c.94-.1,1.25-1.1,1.25-4.1s-.32-3.94-1.25-4v-.1A4,4,0,0,1,25.3,34.72Z"/><path class="cls-3" d="M30.19,37.84c0,.4.24.82,1.2.82v.1h-5v-.1c1,0,1.2-.42,1.2-.82V32.16c0-.58-.27-.85-1.18-.85v-.09a9.64,9.64,0,0,0,3.82-.63Zm4.33-5.52a1.71,1.71,0,0,1-1.65,1.82,1.09,1.09,0,0,1-.92-.35,1.16,1.16,0,0,0,.63-1.09.85.85,0,0,0-.9-.86,1.11,1.11,0,0,0-1,.61v-.13a2.23,2.23,0,0,1,2.08-1.73A1.63,1.63,0,0,1,34.52,32.32Z"/><path class="cls-3" d="M39,36.87c0-1.4,1.28-2.18,3.07-2.18h1.73v.1h-.48a1.58,1.58,0,0,0-1.69,1.74c0,.88.25,1.55,1,1.55a1.75,1.75,0,0,0,1.17-.56v.1a3.39,3.39,0,0,1-2.54,1.3A2,2,0,0,1,39,36.87Zm.64-4.53c0-.82.74-1.65,2.91-1.75v.1a1.16,1.16,0,0,0-1,1.17c0,.57.4.92,1,1A1.8,1.8,0,0,1,41,33.6,1.28,1.28,0,0,1,39.6,32.34Zm4.64,4.77v-4.9c0-.79-.3-1.41-1.09-1.52v-.1c2.66.1,3.72,1.11,3.72,3.2v3.89c0,.47.16.66.44.66s.52-.24.77-.72h.1a2,2,0,0,1-2.08,1.3C44.82,38.92,44.24,38.47,44.24,37.11Z"/><path class="cls-3" d="M58.71,31.87V32a1.81,1.81,0,0,0-1.35-.59c-.8,0-1.55.37-1.55,3.26s.8,3.41,1.55,3.41a2.23,2.23,0,0,0,1.35-.56v.1a3,3,0,0,1-2.34,1.3c-1.52,0-3.28-.9-3.28-4.25,0-3.18,1.73-4.08,3.28-4.08A3,3,0,0,1,58.71,31.87Zm3.12,9.32c0,.57.27.85,1.18.85v.09a10.33,10.33,0,0,0-3.82.63V31.18a10.27,10.27,0,0,0,2.64-.6Z"/><path class="cls-3" d="M67.19,36.66c0,.9.3,1.36,1.1,1.36a1.4,1.4,0,0,0,1.1-.5v.1a2.65,2.65,0,0,1-2.48,1.3,2.07,2.07,0,0,1-2.37-2.26v-4.5c0-.58-.27-.85-1.18-.85v-.09a9.72,9.72,0,0,0,3.83-.63Zm5.33,1c0,.47.14.66.43.66s.51-.24.77-.72h.09a2,2,0,0,1-2.17,1.3,1.57,1.57,0,0,1-1.77-1.57V32.16c0-.58-.27-.85-1.13-.85v-.09a10.32,10.32,0,0,0,3.78-.63Z"/><path class="cls-3" d="M78.72,30.69c-.94.11-1.26.91-1.26,4s.32,4,1.26,4.1v.1a4.08,4.08,0,0,1-4-4.2,4,4,0,0,1,4-4.13Zm4.61,4a4.09,4.09,0,0,1-4,4.2v-.1c1-.1,1.25-1.1,1.25-4.1s-.32-3.94-1.25-4v-.1A4,4,0,0,1,83.33,34.72Z"/><path class="cls-3" d="M90.59,37.52v.1a3.35,3.35,0,0,1-2.73,1.3c-1.44,0-2.47-.66-2.47-2.26V31.41h-.83l.18-.24h.65V29.44a4,4,0,0,0,2.63-.9v2.63h2.16l-.18.24H88v5.3c0,.8.3,1.63,1,1.63A2.34,2.34,0,0,0,90.59,37.52Z"/><path class="cls-3" d="M91.18,34.72a4,4,0,0,1,3.93-4.13v.1c-1,.11-1.2.91-1.2,4,0,2.3,1,3.57,2.44,3.57a3.49,3.49,0,0,0,2.34-.85v.09a4.48,4.48,0,0,1-3.39,1.45A4.07,4.07,0,0,1,91.18,34.72Zm3.61-.67c1.4,0,2-.45,2-1.79,0-.77-.32-1.48-1-1.57v-.1a2.89,2.89,0,0,1,3.13,2.72,4.41,4.41,0,0,1-.08.83h-4Z"/></g></svg>