<?xml version="1.0" encoding="utf-8"?>
<!-- Generator: Adobe Illustrator 24.0.3, SVG Export Plug-In . SVG Version: 6.00 Build 0)  -->
<svg version="1.1" id="Layer_1" xmlns="http://www.w3.org/2000/svg" xmlns:xlink="http://www.w3.org/1999/xlink" x="0px" y="0px"
	 viewBox="0 0 320 50" style="enable-background:new 0 0 320 50;" xml:space="preserve">
<style type="text/css">
	.st0{clip-path:url(#SVGID_2_);}
	.st1{enable-background:new    ;}
	.st2{fill:#FFFFFF;}
</style>
<title>Artboard 1 copy 3</title>
<g>
	<defs>
		<rect id="SVGID_1_" y="0" width="320" height="50"/>
	</defs>
	<clipPath id="SVGID_2_">
		<use xlink:href="#SVGID_1_"  style="overflow:visible;"/>
	</clipPath>
	<g class="st0">
		<g class="st1">
			<path class="st2" d="M22.1,18.5l0.1,0.2c-1,1.6-2.8,2.3-4.6,2.3c-3.1,0-7-2.2-7-6.7c0-4.8,3.8-6.6,6.5-6.7v0.1
				c-1.3,0.3-2.8,1.5-2.8,6.5c0,4.9,2,6,4.1,6C20.2,20.2,21.4,19.3,22.1,18.5z M22.2,7.6v4.6h-0.2c-0.7-2.5-2.2-4-4-4.5V7.6
				c1.7,0.1,2.7,0.4,3.5,0.9l0.6-0.9H22.2z"/>
			<path class="st2" d="M23.7,18.5c0-1.7,1.5-2.6,3.7-2.6h2.1V16h-0.6c-1.4,0-2,0.9-2,2.1c0,1.1,0.3,1.9,1.2,1.9
				c0.5,0,1-0.3,1.4-0.7v0.1c-0.6,0.7-1.6,1.5-3,1.5C24.8,20.9,23.7,20,23.7,18.5z M24.5,13.1c0-1,0.9-2,3.5-2.1v0.1
				c-0.8,0.1-1.2,0.7-1.2,1.4c0,0.7,0.5,1.1,1.2,1.2c-0.3,0.5-1.1,0.9-1.8,0.9C25.1,14.6,24.5,13.9,24.5,13.1z M30,18.8v-5.8
				c0-0.9-0.4-1.7-1.3-1.8V11c3.2,0.1,4.4,1.3,4.4,3.8v4.6c0,0.6,0.2,0.8,0.5,0.8c0.3,0,0.6-0.3,0.9-0.9h0.1
				c-0.3,1.1-1.3,1.5-2.5,1.5C30.7,20.9,30,20.4,30,18.8z"/>
			<path class="st2" d="M35.2,7.5c1.8,0,3.2-0.2,4.6-0.7v13c0,0.5,0.3,1,1.4,1v0.1h-6v-0.1c1.1,0,1.4-0.5,1.4-1V8.6
				c0-0.7-0.3-1-1.4-1V7.5z"/>
			<path class="st2" d="M41.9,7.5c1.8,0,3.2-0.2,4.6-0.7v13c0,0.5,0.3,1,1.4,1v0.1h-6v-0.1c1.1,0,1.4-0.5,1.4-1V8.6
				c0-0.7-0.3-1-1.4-1V7.5z"/>
		</g>
		<g class="st1">
			<path class="st2" d="M53.4,12c-0.2-0.4-0.5-0.7-1.1-0.7v-0.1h5.3v0.1c-0.7,0-0.9,0.5-0.6,1.1l2.5,5.2L58,20.8h-0.1L53.4,12z
				 M52.6,23.8c0-0.8,0.6-1.5,1.7-1.8c-0.1,0.2-0.1,0.3-0.1,0.5c0,0.7,0.4,1.3,1.1,1.3c0.7,0,1.2-0.7,1.9-1.9h0.1
				c-1.1,2-1.8,3.7-3.1,3.7C53.2,25.5,52.6,24.8,52.6,23.8z M60.4,15.8c0.3-0.6,0.5-1.4,0.5-2.5c0-1.1-0.6-2-1.9-2v-0.1h4.8v0.1
				c-0.6,0-0.9,0.2-1.2,0.9l-2,3.7L60.4,15.8z"/>
		</g>
		<g class="st1">
			<path class="st2" d="M68.6,11.1c-1.1,0.1-1.5,1.1-1.5,4.8c0,3.6,0.4,4.8,1.5,4.9v0.1c-2.2,0-4.8-1.8-4.8-5c0-3.2,2.5-4.9,4.8-4.9
				V11.1z M74.1,15.9c0,3.2-2.5,5-4.7,5v-0.1c1.1-0.1,1.5-1.3,1.5-4.9c0-3.7-0.4-4.7-1.5-4.8V11C71.6,11,74.1,12.7,74.1,15.9z"/>
			<path class="st2" d="M79.8,18.2c0,1.1,0.4,1.6,1.3,1.6c0.5,0,0.9-0.2,1.3-0.6v0.1c-0.4,0.8-1.4,1.5-3,1.5c-1.7,0-2.8-0.8-2.8-2.7
				v-5.4c0-0.7-0.3-1-1.4-1v-0.1c1.8,0,3.2-0.2,4.6-0.7V18.2z M86.1,19.5c0,0.6,0.2,0.8,0.5,0.8c0.3,0,0.6-0.3,0.9-0.9h0.1
				c-0.3,1.1-1.3,1.5-2.6,1.5c-1.3,0-2.1-0.8-2.1-1.9v-6.2c0-0.7-0.3-1-1.4-1v-0.1c1.7,0,2.9-0.2,4.5-0.7V19.5z"/>
		</g>
		<g class="st1">
			<path class="st2" d="M93,19.7c0,0.5,0.3,1,1.4,1v0.1h-6v-0.1c1.1,0,1.4-0.5,1.4-1v-6.8c0-0.7-0.3-1-1.4-1v-0.1
				c1.8,0,3.2-0.2,4.6-0.7V19.7z M98.2,13.1c0,1.3-0.9,2.2-2,2.2c-0.5,0-0.9-0.1-1.1-0.4c0.4-0.2,0.7-0.6,0.7-1.3c0-0.6-0.4-1-1.1-1
				c-0.5,0-0.9,0.3-1.1,0.7v-0.2C94,11.8,95,11,96.1,11C97.5,11,98.2,11.9,98.2,13.1z"/>
		</g>
		<g class="st1">
			<path class="st2" d="M107.6,18.3c0,1.8-1.2,2.6-3.2,2.6V8.6c0-0.7-0.3-1-1.4-1V7.5c1.8,0,3-0.2,4.6-0.7V18.3z M114.9,15.9
				c0,4-2.1,5.1-3.9,5.1c-1.1,0-2.3-0.7-2.8-1.5v-0.1c0.5,0.4,1,0.7,1.6,0.7c0.9,0,1.9-0.6,1.9-4.1c0-3.5-0.9-3.9-1.9-3.9
				c-0.6,0-1.1,0.2-1.6,0.7v-0.2c0.5-0.8,1.7-1.5,2.8-1.5C112.8,11,114.9,12.1,114.9,15.9z"/>
		</g>
		<g class="st1">
			<path class="st2" d="M120.8,19.7c0,0.5,0.3,1,1.4,1v0.1h-6v-0.1c1.1,0,1.4-0.5,1.4-1v-6.8c0-0.7-0.3-1-1.4-1v-0.1
				c1.8,0,3.2-0.2,4.6-0.7V19.7z M126,13.1c0,1.3-0.9,2.2-2,2.2c-0.5,0-0.9-0.1-1.1-0.4c0.4-0.2,0.7-0.6,0.7-1.3c0-0.6-0.4-1-1.1-1
				c-0.5,0-0.9,0.3-1.1,0.7v-0.2c0.4-1.2,1.3-2.1,2.5-2.1C125.3,11,126,11.9,126,13.1z"/>
		</g>
		<g class="st1">
			<path class="st2" d="M131.8,11.1c-1.1,0.1-1.5,1.1-1.5,4.8c0,3.6,0.4,4.8,1.5,4.9v0.1c-2.2,0-4.8-1.8-4.8-5
				c0-3.2,2.5-4.9,4.8-4.9V11.1z M137.3,15.9c0,3.2-2.5,5-4.7,5v-0.1c1.1-0.1,1.5-1.3,1.5-4.9c0-3.7-0.4-4.7-1.5-4.8V11
				C134.7,11,137.3,12.7,137.3,15.9z"/>
		</g>
		<g class="st1">
			<path class="st2" d="M144.4,20.6v0.1h-6v-0.1c1.1,0,1.4-0.5,1.4-1V8.6c0-0.7-0.3-1-1.4-1V7.5c1.8,0,3.2-0.2,4.6-0.7v13
				C143,20.1,143.3,20.6,144.4,20.6z M150.9,20.6v0.1c-0.5,0.2-1.3,0.2-1.9,0.2c-1.2,0-2.5-0.2-3.5-1.9l-1.8-3
				c1.5-1.3,2.9-2.9,2.9-3.9c0-0.5-0.2-0.9-1.1-0.9v-0.1h4.9v0.1c-0.4,0-0.8,0.1-1.1,0.3l-3.5,2.8l3.3,5.1
				C149.8,20.5,150.3,20.6,150.9,20.6z"/>
		</g>
		<g class="st1">
			<path class="st2" d="M151,15.9c0-3.2,2.4-4.9,4.7-4.9v0.1c-1.1,0.1-1.4,1.1-1.4,4.7c0,2.8,1.2,4.3,2.9,4.3c1.1,0,1.9-0.3,2.8-1
				v0.1c-1,1.3-2.8,1.7-4,1.7C153.5,20.9,151,19.1,151,15.9z M155.3,15.1c1.7,0,2.4-0.5,2.4-2.1c0-0.9-0.4-1.8-1.2-1.9V11
				c2.5,0,3.7,1.8,3.7,3.2c0,0.3,0,0.7-0.1,1h-4.8V15.1z"/>
		</g>
		<g class="st1">
			<path class="st2" d="M166,19.7c0,0.5,0.3,1,1.4,1v0.1h-6v-0.1c1.1,0,1.4-0.5,1.4-1v-6.8c0-0.7-0.3-1-1.4-1v-0.1
				c1.8,0,3.2-0.2,4.6-0.7V19.7z M171.2,13.1c0,1.3-0.9,2.2-2,2.2c-0.5,0-0.9-0.1-1.1-0.4c0.4-0.2,0.7-0.6,0.7-1.3
				c0-0.6-0.4-1-1.1-1c-0.5,0-0.9,0.3-1.1,0.7v-0.2c0.4-1.2,1.3-2.1,2.5-2.1C170.5,11,171.2,11.9,171.2,13.1z"/>
		</g>
		<g class="st1">
			<path class="st2" d="M183,11.7l-0.2,0.3h-1.9v7.7c0,0.5,0.3,1,1.5,1v0.1h-6v-0.1c1.1,0,1.4-0.5,1.4-1V12h-1.2l0.2-0.3h1v-0.9
				c0-2.7,1.4-3.9,3.2-4.1v0.1c-0.6,0.2-1.1,0.9-1.1,2C179.8,10,180.6,11.7,183,11.7z M184.6,8.8c0,1.1-0.8,1.7-1.7,1.7
				c-1,0-1.6-0.6-1.9-1.3c0.8,0,1.4-0.5,1.4-1.2c0-0.5-0.3-1-0.7-1.1V6.7C183.7,6.8,184.6,7.7,184.6,8.8z"/>
		</g>
		<g class="st1">
			<path class="st2" d="M188.7,11.1c-1.1,0.1-1.5,1.1-1.5,4.8c0,3.6,0.4,4.8,1.5,4.9v0.1c-2.2,0-4.8-1.8-4.8-5
				c0-3.2,2.5-4.9,4.8-4.9V11.1z M194.2,15.9c0,3.2-2.5,5-4.7,5v-0.1c1.1-0.1,1.5-1.3,1.5-4.9c0-3.7-0.4-4.7-1.5-4.8V11
				C191.6,11,194.2,12.7,194.2,15.9z"/>
		</g>
		<g class="st1">
			<path class="st2" d="M200,19.7c0,0.5,0.3,1,1.4,1v0.1h-6v-0.1c1.1,0,1.4-0.5,1.4-1v-6.8c0-0.7-0.3-1-1.4-1v-0.1
				c1.8,0,3.2-0.2,4.6-0.7V19.7z M205.2,13.1c0,1.3-0.9,2.2-2,2.2c-0.5,0-0.9-0.1-1.1-0.4c0.4-0.2,0.7-0.6,0.7-1.3
				c0-0.6-0.4-1-1.1-1c-0.5,0-0.9,0.3-1.1,0.7v-0.2c0.4-1.2,1.3-2.1,2.5-2.1C204.4,11,205.2,11.9,205.2,13.1z"/>
		</g>
		<g class="st1">
			<path class="st2" d="M10.3,38.7c0-1.7,1.5-2.6,3.7-2.6H16v0.1h-0.6c-1.4,0-2,0.9-2,2.1c0,1.1,0.3,1.9,1.2,1.9
				c0.5,0,1-0.3,1.4-0.7v0.1c-0.6,0.7-1.6,1.5-3,1.5C11.3,41.1,10.3,40.2,10.3,38.7z M11,33.3c0-1,0.9-2,3.5-2.1v0.1
				c-0.8,0.1-1.2,0.7-1.2,1.4c0,0.7,0.5,1.1,1.2,1.2c-0.3,0.5-1.1,0.9-1.8,0.9C11.6,34.8,11,34.1,11,33.3z M16.6,39v-5.8
				c0-0.9-0.4-1.7-1.3-1.8v-0.1c3.2,0.1,4.4,1.3,4.4,3.8v4.6c0,0.6,0.2,0.8,0.5,0.8c0.3,0,0.6-0.3,0.9-0.9h0.1
				c-0.3,1.1-1.3,1.5-2.5,1.5C17.3,41.1,16.6,40.6,16.6,39z"/>
			<path class="st2" d="M33.9,32.7v0.2c-0.4-0.5-1-0.7-1.6-0.7c-1,0-1.9,0.4-1.9,3.9c0,3.4,1,4.1,1.9,4.1c0.6,0,1.1-0.3,1.6-0.7v0.1
				c-0.5,0.8-1.7,1.5-2.8,1.5c-1.8,0-3.9-1.1-3.9-5.1c0-3.8,2.1-4.9,3.9-4.9C32.2,31.2,33.4,31.9,33.9,32.7z M37.6,43.8
				c0,0.7,0.3,1,1.4,1V45c-1.8,0-3,0.2-4.6,0.7V31.9c1-0.1,2.3-0.4,3.2-0.7V43.8z"/>
			<path class="st2" d="M44,38.4c0,1.1,0.4,1.6,1.3,1.6c0.5,0,0.9-0.2,1.3-0.6v0.1c-0.4,0.8-1.4,1.5-3,1.5c-1.7,0-2.8-0.8-2.8-2.7
				v-5.4c0-0.7-0.3-1-1.4-1v-0.1c1.8,0,3.2-0.2,4.6-0.7V38.4z M50.3,39.6c0,0.6,0.2,0.8,0.5,0.8c0.3,0,0.6-0.3,0.9-0.9h0.1
				c-0.3,1.1-1.3,1.5-2.6,1.5c-1.3,0-2.1-0.8-2.1-1.9v-6.2c0-0.7-0.3-1-1.4-1v-0.1c1.7,0,2.9-0.2,4.5-0.7V39.6z"/>
			<path class="st2" d="M57.8,31.3c-1.1,0.1-1.5,1.1-1.5,4.8c0,3.6,0.4,4.8,1.5,4.9v0.1c-2.2,0-4.8-1.8-4.8-5c0-3.2,2.5-4.9,4.8-4.9
				V31.3z M63.3,36.1c0,3.2-2.5,5-4.7,5V41c1.1-0.1,1.5-1.3,1.5-4.9c0-3.7-0.4-4.7-1.5-4.8v-0.1C60.7,31.2,63.3,32.9,63.3,36.1z"/>
		</g>
		<g class="st1">
			<path class="st2" d="M71.9,39.5v0.1c-0.6,0.9-1.8,1.5-3.3,1.5c-1.7,0-2.9-0.8-2.9-2.7v-6.3h-1l0.2-0.3h0.8v-2.1
				c1.2,0,2.3-0.4,3.1-1.1v3.1h2.6l-0.2,0.3h-2.4v6.3c0,1,0.4,1.9,1.3,1.9C70.7,40.4,71.3,40.1,71.9,39.5z"/>
		</g>
		<g class="st1">
			<path class="st2" d="M72.6,36.1c0-3.2,2.4-4.9,4.7-4.9v0.1c-1.1,0.1-1.4,1.1-1.4,4.7c0,2.8,1.2,4.3,2.9,4.3c1.1,0,1.9-0.3,2.8-1
				v0.1c-1,1.3-2.8,1.7-4.1,1.7C75.1,41.1,72.6,39.3,72.6,36.1z M76.9,35.3c1.7,0,2.4-0.5,2.4-2.1c0-0.9-0.4-1.8-1.2-1.9v-0.1
				c2.5,0,3.7,1.8,3.7,3.2c0,0.3,0,0.7-0.1,1h-4.8V35.3z"/>
		</g>
	</g>
</g>
</svg>
