<svg id="Layer_1" data-name="Layer 1" xmlns="http://www.w3.org/2000/svg" xmlns:xlink="http://www.w3.org/1999/xlink" viewBox="0 0 320 50"><defs><style>.cls-1{fill:none;}.cls-2{clip-path:url(#clip-path);}.cls-3{fill:#263845;}</style><clipPath id="clip-path"><rect class="cls-1" width="320" height="50"/></clipPath></defs><title>Artboard 1 copy</title><g class="cls-2"><path class="cls-3" d="M12.1,13.14l.12.2.13,6.72a1.4,1.4,0,0,0,1.57,1.34v.1H10.4v-.1A1.41,1.41,0,0,0,12,20.06Zm8.48,8.36H18.8l-6.69-10a1.72,1.72,0,0,0-1.69-.82v-.09h4.27l5.89,8.82Zm0-3.68-.13-.18-.19-5.58a1.4,1.4,0,0,0-1.57-1.35v-.09h3.52v.09a1.4,1.4,0,0,0-1.57,1.35Z"/><path class="cls-3" d="M29.33,10.62h3.06L26,21.5H23Zm-5.87,0h4.83l-.05.09a4.94,4.94,0,0,0-4.66,3.76h-.12ZM27.12,21.4a5.47,5.47,0,0,0,5-4.27h.12V21.5H27.07Z"/><path class="cls-3" d="M36.85,11.13c0,.93-1,2.16-2.59,2.82l0-.15a2.25,2.25,0,0,0,.91-1.55A1,1,0,0,0,34,11.19a1.48,1.48,0,0,1,1.52-1.45A1.29,1.29,0,0,1,36.85,11.13Z"/><path class="cls-3" d="M40.13,19.6a.82.82,0,0,0-.9.8c0,.46.32,1.05,1.43,1.16v.1c-2.13-.08-3.3-.66-3.3-1.58a1.25,1.25,0,0,1,1.36-1.19A1.64,1.64,0,0,1,40.13,19.6Zm.53-6.17c-.6.12-1.17.42-1.16,1.08,0,1.85,5.24,2.16,5.24,4.7,0,1.55-1.31,2.37-3.38,2.45v-.1c.67-.11,1.43-.35,1.43-1.18,0-1.67-5.25-2.27-5.25-4.71,0-1.41,1.32-2.25,3.12-2.33ZM44.43,15a1,1,0,0,1-1.18,1,1.38,1.38,0,0,1-1.36-.77.71.71,0,0,0,.72-.75c0-.48-.61-1-1.25-1v-.09C43.17,13.43,44.43,14.09,44.43,15Z"/><path class="cls-3" d="M49.78,10.36a9.89,9.89,0,0,0,3.82-.62V20.59c0,.4.24.81,1.2.81v.1h-5v-.1c1,0,1.2-.41,1.2-.81V11.3c0-.57-.27-.84-1.18-.84Z"/><path class="cls-3" d="M55.76,17.47a4,4,0,0,1,3.92-4.13v.09c-.94.12-1.2.91-1.2,4,0,2.31,1,3.57,2.45,3.57a3.47,3.47,0,0,0,2.34-.85v.1a4.5,4.5,0,0,1-3.4,1.44A4,4,0,0,1,55.76,17.47Zm3.6-.68c1.41,0,2-.44,2-1.79,0-.77-.32-1.47-1-1.57v-.09a2.89,2.89,0,0,1,3.14,2.72,4.58,4.58,0,0,1-.08.83h-4Z"/><path class="cls-3" d="M64.61,19.61c0-1.39,1.28-2.18,3.07-2.18h1.73v.1h-.48a1.59,1.59,0,0,0-1.7,1.75c0,.88.26,1.55,1,1.55a1.75,1.75,0,0,0,1.17-.56v.09a3.41,3.41,0,0,1-2.55,1.3A2,2,0,0,1,64.61,19.61Zm.64-4.53c0-.82.73-1.65,2.91-1.74v.09a1.17,1.17,0,0,0-1,1.17c0,.58.4.93,1,1a1.8,1.8,0,0,1-1.54.77A1.29,1.29,0,0,1,65.25,15.08Zm4.64,4.77V15c0-.78-.3-1.4-1.09-1.52v-.09c2.66.09,3.71,1.1,3.71,3.2v3.89c0,.46.16.65.45.65s.51-.24.77-.72h.1a2,2,0,0,1-2.08,1.3C70.47,21.66,69.89,21.21,69.89,19.85Z"/><path class="cls-3" d="M80.29,14.62v.13a1.74,1.74,0,0,0-1.33-.6c-.8,0-1.57.37-1.57,3.27s.82,3.41,1.57,3.41a2.23,2.23,0,0,0,1.33-.56v.09A3,3,0,0,1,78,21.66c-1.52,0-3.3-.9-3.3-4.24s1.75-4.08,3.3-4.08A3,3,0,0,1,80.29,14.62Zm3.12,5.81c0,.46.14.65.43.65s.52-.24.77-.72h.1a2,2,0,0,1-2.08,1.3c-1.28,0-1.86-.45-1.86-1.81V11.3c0-.57-.27-.84-1.18-.84v-.1a10.56,10.56,0,0,0,3.82-.62Z"/><path class="cls-3" d="M85.37,14a9.72,9.72,0,0,0,3.83-.63v7.27c0,.4.24.81,1.2.81v.1h-5v-.1c1,0,1.2-.41,1.2-.81v-5.7c0-.58-.27-.85-1.19-.85Zm.82-3a1.65,1.65,0,1,1,1.63,1.4A1.45,1.45,0,0,1,86.19,10.94Z"/><path class="cls-3" d="M91.07,21.4c1,0,1.2-.41,1.2-.81V14.91c0-.58-.27-.85-1.18-.85V14a9.82,9.82,0,0,0,3.82-.62v7.25c0,.4.24.81,1.2.81v.1h-5Zm5.63,0c1,0,1.19-.41,1.19-.81v-5a1.19,1.19,0,0,0-1.27-1.36,1.71,1.71,0,0,0-1.21.5v-.1a3.27,3.27,0,0,1,2.66-1.29c1.44,0,2.46.67,2.46,2.25v5c0,.4.24.81,1.2.81v.1h-5Z"/><path class="cls-3" d="M102.67,16.23c0-2.08,2-2.86,3.59-2.89v.09c-.69.07-1,.9-1,2.76s.32,2.72,1,2.78v.1C104.64,19.07,102.67,18.3,102.67,16.23Zm4.26,9.18c1.6-.2,2.11-1.06,2.11-1.64,0-2.22-6.24-.24-6.24-3.1A1.88,1.88,0,0,1,103.87,19l0,.08a.35.35,0,0,0-.14.3c0,1.79,7.29-.29,7.29,3.2,0,1.65-1.42,2.72-4.14,2.88Zm-4.13-1.35c0-.94,1.17-1.23,2.43-1.23a1.34,1.34,0,0,0-.69,1.13c0,.74.84,1.3,1.75,1.45v.09C104.58,25.47,102.8,25.12,102.8,24.06ZM106.93,19c.78-.06,1.1-.85,1.1-2.78s-.33-2.69-1.1-2.76v-.09c1.7,0,3.66.81,3.66,2.89s-2,2.84-3.66,2.84Zm.86-5.92c.28-.82,1-1.92,2.12-1.92.84,0,1.36.45,1.36,1.21a1.28,1.28,0,0,1-1.3,1.25c0-.67-.35-1.07-.86-1.07a1.76,1.76,0,0,0-1.24.58Z"/><path class="cls-3" d="M15.83,39.4v.1H10.69v-.1c1,0,1.2-.38,1.2-.81V29.51c0-.46-.24-.8-1.2-.8v-.09h3.92v10C14.61,39,14.85,39.4,15.83,39.4Zm6.24-1c-.26.88-1.2,1.3-2.37,1.3-2.08,0-2.56-1.44-2.66-2.78s-.22-2.34-1.63-2.55v-.1c1.47,0,2.13-1.28,2.13-2.88,0-1.79-.66-2.64-2.13-2.64v-.09c3.25,0,4.85.72,4.85,2.73,0,1.73-1.28,2.79-3.67,2.93,2.92.13,3.37,1.27,3.53,2.6s.51,2.2,1.05,2.2c.29,0,.55-.24.8-.72Z"/><path class="cls-3" d="M22.32,29.54a1.32,1.32,0,0,0-1.44-.83v-.09h5.78v.09c-.74,0-1.39.48-1,1.31l3,6.37-1.46,3.27h-.17Zm7,5.38a11,11,0,0,0,1.14-4.46,1.76,1.76,0,0,0-1.83-1.75v-.09h4.61v.06c-.74,0-1.18.69-1.7,1.78l-2.17,4.61Z"/><path class="cls-3" d="M36.7,32a9.72,9.72,0,0,0,3.83-.63v7.27c0,.4.24.81,1.2.81v.1h-5v-.1c1,0,1.2-.41,1.2-.81v-5.7c0-.58-.27-.85-1.19-.85Zm.82-3a1.65,1.65,0,1,1,1.63,1.4A1.45,1.45,0,0,1,37.52,28.94Z"/><path class="cls-3" d="M42.4,39.4c1,0,1.2-.41,1.2-.81V32.91c0-.58-.27-.85-1.18-.85V32a9.89,9.89,0,0,0,3.82-.62v7.25c0,.4.24.81,1.2.81v.1h-5Zm5.63,0c.95,0,1.19-.41,1.19-.81v-5A1.19,1.19,0,0,0,48,32.23a1.71,1.71,0,0,0-1.21.5v-.1a3.26,3.26,0,0,1,2.65-1.29c1.44,0,2.47.67,2.47,2.25v5c0,.4.24.81,1.2.81v.1H48Z"/><path class="cls-3" d="M56.7,37.6a.81.81,0,0,0-.89.8c0,.46.32,1.05,1.42,1.16v.1c-2.13-.08-3.29-.66-3.29-1.58a1.25,1.25,0,0,1,1.36-1.19A1.62,1.62,0,0,1,56.7,37.6Zm.53-6.17c-.59.12-1.17.42-1.15,1.08.05,1.85,5.23,2.16,5.23,4.7,0,1.55-1.31,2.37-3.37,2.45v-.1c.67-.11,1.42-.35,1.42-1.18,0-1.67-5.25-2.27-5.25-4.71,0-1.41,1.33-2.25,3.12-2.33ZM61,33a1,1,0,0,1-1.18,1,1.36,1.36,0,0,1-1.36-.77.71.71,0,0,0,.72-.75c0-.48-.61-.95-1.25-1v-.09C59.75,31.43,61,32.09,61,33Z"/><path class="cls-3" d="M66,37.4c0,.9.31,1.36,1.11,1.36a1.4,1.4,0,0,0,1.1-.49v.09a2.66,2.66,0,0,1-2.48,1.3,2.07,2.07,0,0,1-2.37-2.26V32.91c0-.58-.27-.85-1.18-.85V32A9.82,9.82,0,0,0,66,31.34Zm5.33,1c0,.46.15.65.43.65s.52-.24.77-.72h.1a2.05,2.05,0,0,1-2.18,1.3,1.55,1.55,0,0,1-1.76-1.57V32.91c0-.58-.27-.85-1.13-.85V32a10.44,10.44,0,0,0,3.77-.62Z"/><path class="cls-3" d="M77.14,38.59c0,.4.24.81,1.2.81v.1h-5v-.1c1,0,1.2-.41,1.2-.81V32.91c0-.58-.28-.85-1.19-.85V32a9.91,9.91,0,0,0,3.83-.62Zm4.32-5.52a1.71,1.71,0,0,1-1.65,1.82,1.1,1.1,0,0,1-.91-.35,1.18,1.18,0,0,0,.62-1.09.84.84,0,0,0-.89-.86,1.12,1.12,0,0,0-1,.6v-.12a2.22,2.22,0,0,1,2.09-1.73A1.63,1.63,0,0,1,81.46,33.07Z"/><path class="cls-3" d="M82.14,37.61c0-1.39,1.28-2.18,3.08-2.18H87v.1h-.49a1.58,1.58,0,0,0-1.69,1.75c0,.88.25,1.55,1,1.55A1.79,1.79,0,0,0,87,38.27v.09a3.41,3.41,0,0,1-2.55,1.3A2,2,0,0,1,82.14,37.61Zm.64-4.53c0-.82.74-1.65,2.92-1.74v.09a1.18,1.18,0,0,0-1,1.17c0,.58.4.93,1,1a1.78,1.78,0,0,1-1.53.77A1.29,1.29,0,0,1,82.78,33.08Zm4.65,4.77V33c0-.78-.31-1.4-1.09-1.52v-.09c2.65.09,3.71,1.1,3.71,3.2v3.89c0,.46.16.65.45.65s.51-.24.77-.72h.09a2,2,0,0,1-2.08,1.3C88,39.66,87.43,39.21,87.43,37.85Z"/><path class="cls-3" d="M91.85,39.4c1,0,1.21-.41,1.21-.81V32.91c0-.58-.28-.85-1.19-.85V32a9.91,9.91,0,0,0,3.83-.62v7.25c0,.4.24.81,1.2.81v.1H91.85Zm5.64,0c.94,0,1.18-.41,1.18-.81v-5c0-.89-.46-1.36-1.26-1.36a1.73,1.73,0,0,0-1.22.5v-.1a3.28,3.28,0,0,1,2.66-1.29c1.44,0,2.46.67,2.46,2.25v5c0,.4.24.81,1.21.81v.1h-5Z"/><path class="cls-3" d="M107.47,31.43c-.94.12-1.36.91-1.36,4,0,2.31,1.17,3.57,2.59,3.57a3.44,3.44,0,0,0,2.34-.85v.1a4.47,4.47,0,0,1-3.39,1.44,4.19,4.19,0,0,1-4.28-4.19,4.1,4.1,0,0,1,4.1-4.13ZM111,33.15a1.49,1.49,0,0,1-1.6,1.53,1.37,1.37,0,0,1-1.4-1,1.37,1.37,0,0,0,.77-1.16,1,1,0,0,0-.69-1.06v-.11C110.21,31.34,111,32.23,111,33.15Z"/><path class="cls-3" d="M112.22,35.47a4,4,0,0,1,3.92-4.13v.09c-.94.12-1.2.91-1.2,4,0,2.31,1,3.57,2.45,3.57a3.44,3.44,0,0,0,2.34-.85v.1a4.47,4.47,0,0,1-3.39,1.44A4.06,4.06,0,0,1,112.22,35.47Zm3.6-.68c1.41,0,2-.44,2-1.79,0-.77-.33-1.47-1-1.57v-.09a2.88,2.88,0,0,1,3.13,2.72,4.58,4.58,0,0,1-.08.83h-4Z"/></g></svg>