<svg id="Layer_1" data-name="Layer 1" xmlns="http://www.w3.org/2000/svg" viewBox="0 0 320 50"><defs><style>.cls-1{fill:#fb0010;}.cls-2{fill:#fff;}.cls-3{fill:none;}</style></defs><title>Artboard 1</title><path class="cls-1" d="M6.52,47.5H78.9a6.35,6.35,0,0,0,5.65-3.43l8.37-16.14a6.38,6.38,0,0,0,0-5.86L84.55,5.93A6.35,6.35,0,0,0,78.9,2.5H6.52A3.86,3.86,0,0,0,2.66,6.36V43.64A3.86,3.86,0,0,0,6.52,47.5Z"/><path class="cls-2" d="M39.6,28.49,40,28c.26-.36.53-.37.93-.15a4,4,0,0,0,2.31.84c1.06,0,1.7-.53,1.7-1.3,0-2.17-5.3-1.72-5.3-5.26,0-2,1.66-3.31,3.83-3.31a5.28,5.28,0,0,1,2.93.87.63.63,0,0,1,.21.91l-.29.53c-.24.47-.57.4-.91.23a3.76,3.76,0,0,0-2-.63c-1.06,0-1.74.52-1.74,1.29,0,2.13,5.31,1.58,5.31,5.21,0,1.84-1.38,3.36-3.77,3.36a6,6,0,0,1-3.49-1.15A.59.59,0,0,1,39.6,28.49Z"/><path class="cls-2" d="M51.55,20.78H48.49a.6.6,0,0,1-.68-.66v-.45a.6.6,0,0,1,.68-.67h8.18a.59.59,0,0,1,.65.67v.45a.58.58,0,0,1-.65.66H53.6v8.93a.59.59,0,0,1-.67.67h-.72a.59.59,0,0,1-.66-.67Z"/><path class="cls-2" d="M60,19.54a.72.72,0,0,1,.75-.54h1a.71.71,0,0,1,.75.54l3.56,10.07c.16.47,0,.77-.54.77h-.74a.71.71,0,0,1-.75-.54l-.81-2.38h-4l-.78,2.36a.72.72,0,0,1-.76.56H57c-.49,0-.7-.3-.54-.77Zm2.74,6.24-1-3.05c-.19-.64-.45-1.76-.45-1.76h0s-.26,1.12-.45,1.76l-1,3.05Z"/><path class="cls-2" d="M67.56,19.67a.6.6,0,0,1,.66-.67H71.3a5.18,5.18,0,0,1,2.16.3,3.16,3.16,0,0,1,1.91,3.11,3.28,3.28,0,0,1-1.89,3.11v0a4.21,4.21,0,0,1,.37.59l1.87,3.43c.28.47.07.8-.46.8h-.87a.8.8,0,0,1-.78-.46l-2-3.79h-2v3.58a.58.58,0,0,1-.65.67h-.74a.59.59,0,0,1-.66-.67Zm3.91,4.67a1.68,1.68,0,0,0,1.8-1.82,1.52,1.52,0,0,0-.9-1.55,2.79,2.79,0,0,0-1.23-.19H69.61v3.56Z"/><path class="cls-2" d="M19.35,31a.49.49,0,0,1-.23-.06.51.51,0,0,1-.25-.6l5.28-16.24a1.11,1.11,0,0,1,1.07-.78h0a1.11,1.11,0,0,1,1.07.78l1.07,3.22a.38.38,0,0,1-.24.48.37.37,0,0,1-.48-.24l-1.07-3.22a.36.36,0,0,0-.35-.26h0a.35.35,0,0,0-.34.25L20.11,29l6.72-9.2A2.08,2.08,0,0,1,28.51,19H33a1.13,1.13,0,0,1,.66,2l-4.09,3,0,0L31.1,28.9a1.13,1.13,0,0,1-1.74,1.26l-3.53-2.57a1.13,1.13,0,0,1,0-1.83l3-2.15.05,0L33.2,20.4a.36.36,0,0,0-.21-.65H28.51a1.33,1.33,0,0,0-1.07.54L19.76,30.81A.52.52,0,0,1,19.35,31Zm9.51-6.51-2.59,1.87a.37.37,0,0,0-.14.3.37.37,0,0,0,.14.29l3.54,2.57a.36.36,0,0,0,.43,0,.34.34,0,0,0,.13-.4Z"/><path class="cls-2" d="M19.63,22.94a.39.39,0,0,1-.23-.07L16.79,21a1.13,1.13,0,0,1-.41-1.27A1.11,1.11,0,0,1,17.45,19h3.2a.4.4,0,0,1,.39.39.39.39,0,0,1-.39.38h-3.2a.35.35,0,0,0-.34.25.34.34,0,0,0,.13.4l2.61,1.85a.38.38,0,0,1-.22.69Z"/><path class="cls-2" d="M23.18,36.41a1.22,1.22,0,0,1-.61-.17L15.9,32.46a.4.4,0,0,1-.2-.34V24a.38.38,0,0,1,.38-.38.39.39,0,0,1,.39.38V31.9l6.47,3.68a.48.48,0,0,0,.49,0l4.74-3a.38.38,0,0,1,.52.13.37.37,0,0,1-.12.52l-4.73,3A1.3,1.3,0,0,1,23.18,36.41Z"/><rect class="cls-3" width="320" height="50"/></svg>