<svg id="Layer_1" data-name="Layer 1" xmlns="http://www.w3.org/2000/svg" viewBox="0 0 300 150"><defs><style>.cls-1{fill:none;}.cls-2{fill:#fff;}</style></defs><title>Artboard 1 copy 2</title><rect class="cls-1" width="300" height="150"/><rect class="cls-1" width="300" height="150"/><rect class="cls-1" width="300" height="150"/><path class="cls-2" d="M26.39,85.28l.11.2a6.87,6.87,0,0,1-6,3c-4.07,0-9.15-2.9-9.15-8.72,0-6.33,4.95-8.67,8.55-8.78v.16c-1.75.37-3.65,2-3.65,8.44s2.58,7.9,5.4,7.9A6.12,6.12,0,0,0,26.39,85.28ZM26.6,71v6.08h-.21c-1-3.33-2.82-5.25-5.27-5.92V71a8.59,8.59,0,0,1,4.52,1.16L26.39,71Z"/><path class="cls-2" d="M34.57,75.65c-1.47.18-2,1.43-2,6.3,0,4.7.5,6.25,2,6.4v.15A6.37,6.37,0,0,1,28.35,82a6.27,6.27,0,0,1,6.22-6.45Zm7.2,6.3a6.36,6.36,0,0,1-6.2,6.55v-.15c1.48-.15,2-1.72,2-6.4,0-4.9-.5-6.15-2-6.3V75.5A6.23,6.23,0,0,1,41.77,82Z"/><path class="cls-2" d="M43.42,88.1c1.5,0,1.88-.65,1.88-1.27V78c0-.9-.43-1.32-1.85-1.32v-.15a15.18,15.18,0,0,0,6-1V86.83c0,.62.38,1.27,1.88,1.27v.15H43.42Zm8.8,0c1.48,0,1.85-.65,1.85-1.27V79c0-1.4-.72-2.13-2-2.13a2.67,2.67,0,0,0-1.9.78v-.15a5.1,5.1,0,0,1,4.15-2c2.25,0,3.84,1,3.84,3.53v7.8c0,.62.38,1.27,1.88,1.27v.15H52.22Z"/><path class="cls-2" d="M70.67,86.33v.15a5.22,5.22,0,0,1-4.27,2c-2.25,0-3.85-1-3.85-3.52v-8.2h-1.3l.27-.38h1V73.7a6.31,6.31,0,0,0,4.1-1.4v4.1H70l-.27.38h-3.1v8.27c0,1.25.47,2.55,1.65,2.55A3.68,3.68,0,0,0,70.67,86.33Z"/><path class="cls-2" d="M71.47,85.3c0-2.17,2-3.4,4.8-3.4H79v.15h-.75a2.48,2.48,0,0,0-2.65,2.73c0,1.37.4,2.42,1.58,2.42A2.72,2.72,0,0,0,79,86.33v.15a5.3,5.3,0,0,1-4,2C72.87,88.5,71.45,87.3,71.47,85.3Zm1-7.07c0-1.28,1.15-2.58,4.55-2.73v.15a1.83,1.83,0,0,0-1.6,1.83c0,.9.63,1.45,1.63,1.52a2.82,2.82,0,0,1-2.4,1.2A2,2,0,0,1,72.47,78.23Zm7.25,7.45V78c0-1.23-.47-2.2-1.7-2.38V75.5c4.15.15,5.8,1.73,5.8,5v6.08c0,.72.25,1,.7,1s.8-.37,1.2-1.12h.15a3.12,3.12,0,0,1-3.25,2C80.62,88.5,79.72,87.8,79.72,85.68Z"/><path class="cls-2" d="M93.5,75.65c-1.48.18-2.13,1.43-2.13,6.2,0,3.6,1.83,5.58,4,5.58a5.42,5.42,0,0,0,3.65-1.33v.15a7,7,0,0,1-5.3,2.25A6.53,6.53,0,0,1,87.1,82a6.4,6.4,0,0,1,6.4-6.45ZM99,78.33a2.32,2.32,0,0,1-2.49,2.4,2.13,2.13,0,0,1-2.18-1.58,2.14,2.14,0,0,0,1.2-1.82,1.48,1.48,0,0,0-1.07-1.65V75.5C97.77,75.5,99,76.9,99,78.33Z"/><path class="cls-2" d="M110.17,86.33v.15a5.22,5.22,0,0,1-4.27,2c-2.25,0-3.85-1-3.85-3.52v-8.2h-1.3l.27-.38h1V73.7a6.31,6.31,0,0,0,4.1-1.4v4.1h3.37l-.27.38h-3.1v8.27c0,1.25.47,2.55,1.65,2.55A3.68,3.68,0,0,0,110.17,86.33Z"/><path class="cls-2" d="M11.37,103.78A1.35,1.35,0,0,0,10,102.9v-.15h7v.15c-.88,0-1.23.6-.8,1.48l3.27,6.82-2.15,4h-.15Zm-1.1,15.5a2.61,2.61,0,0,1,2.2-2.35,2,2,0,0,0-.1.62,1.46,1.46,0,0,0,1.48,1.67c.87,0,1.57-.92,2.52-2.52h.18c-1.38,2.58-2.33,4.8-4.08,4.8A2.08,2.08,0,0,1,10.27,119.28Zm10.25-10.53a6.77,6.77,0,0,0,.7-3.22,2.41,2.41,0,0,0-2.55-2.63v-.15H24.9v.15c-.83,0-1.15.33-1.63,1.18l-2.6,4.9Z"/><path class="cls-2" d="M31.25,102.65c-1.48.18-2,1.43-2,6.3,0,4.7.5,6.25,2,6.4v.15A6.37,6.37,0,0,1,25,109a6.27,6.27,0,0,1,6.23-6.45Zm7.2,6.3a6.37,6.37,0,0,1-6.2,6.55v-.15c1.47-.15,2-1.72,2-6.4,0-4.9-.5-6.15-2-6.3v-.15A6.23,6.23,0,0,1,38.45,109Z"/><path class="cls-2" d="M45.82,112c0,1.4.48,2.12,1.73,2.12a2.21,2.21,0,0,0,1.72-.77v.15a4.16,4.16,0,0,1-3.87,2c-2.25,0-3.7-1-3.7-3.52v-7c0-.9-.43-1.32-1.85-1.32v-.15a15.18,15.18,0,0,0,6-1Zm8.32,1.6c0,.72.23,1,.68,1s.8-.37,1.2-1.12h.15c-.4,1.37-1.75,2-3.4,2s-2.75-1-2.75-2.45V105c0-.9-.42-1.32-1.77-1.32v-.15a16.06,16.06,0,0,0,5.89-1Z"/><path class="cls-2" d="M63.17,113.83c0,.62.38,1.27,1.88,1.27v.15H57.17v-.15c1.5,0,1.88-.65,1.88-1.27V105c0-.9-.43-1.32-1.85-1.32v-.15a15.18,15.18,0,0,0,6-1Zm6.75-8.63a2.67,2.67,0,0,1-2.57,2.85,1.71,1.71,0,0,1-1.43-.55,1.82,1.82,0,0,0,1-1.7,1.33,1.33,0,0,0-1.4-1.35,1.72,1.72,0,0,0-1.5,1v-.2a3.46,3.46,0,0,1,3.25-2.7A2.54,2.54,0,0,1,69.92,105.2Z"/><path class="cls-2" d="M82.25,112.1c0,2.38-1.63,3.4-4.13,3.4V99.33c0-.9-.45-1.33-1.87-1.33v-.14a16.44,16.44,0,0,0,6-1Zm9.52-3.22c0,5.22-2.77,6.62-5.15,6.62a4.62,4.62,0,0,1-3.62-2v-.15a3.44,3.44,0,0,0,2.07.87c1.18,0,2.45-.82,2.45-5.32s-1.2-5.1-2.45-5.1a2.76,2.76,0,0,0-2.07.92v-.2a4.61,4.61,0,0,1,3.62-2C89.05,102.5,91.77,103.9,91.77,108.88Z"/><path class="cls-2" d="M99.52,113.83c0,.62.38,1.27,1.88,1.27v.15H93.52v-.15c1.5,0,1.88-.65,1.88-1.27V105c0-.9-.43-1.32-1.85-1.32v-.15a15.18,15.18,0,0,0,6-1Zm6.75-8.63a2.67,2.67,0,0,1-2.57,2.85,1.71,1.71,0,0,1-1.43-.55,1.82,1.82,0,0,0,1-1.7,1.33,1.33,0,0,0-1.4-1.35,1.72,1.72,0,0,0-1.5,1v-.2a3.46,3.46,0,0,1,3.25-2.7A2.54,2.54,0,0,1,106.27,105.2Z"/><path class="cls-2" d="M113.85,102.65c-1.48.18-2,1.43-2,6.3,0,4.7.5,6.25,2,6.4v.15a6.37,6.37,0,0,1-6.23-6.55,6.27,6.27,0,0,1,6.23-6.45Zm7.2,6.3a6.37,6.37,0,0,1-6.2,6.55v-.15c1.47-.15,2-1.72,2-6.4,0-4.9-.5-6.15-2-6.3v-.15A6.23,6.23,0,0,1,121.05,109Z"/><path class="cls-2" d="M130.42,115.1v.15h-7.87v-.15c1.5,0,1.87-.65,1.87-1.27V99.33c0-.9-.42-1.33-1.85-1.33v-.14a15.23,15.23,0,0,0,6-1v17C128.55,114.45,128.92,115.1,130.42,115.1Zm8.47,0v.15a9.86,9.86,0,0,1-2.5.25,4.7,4.7,0,0,1-4.52-2.42l-2.35-3.93c2-1.72,3.83-3.82,3.83-5.1,0-.67-.33-1.15-1.48-1.15v-.15h6.4v.15a2.25,2.25,0,0,0-1.4.45L132.3,107l4.32,6.7A2.57,2.57,0,0,0,138.89,115.1Z"/><path class="cls-2" d="M139.05,109a6.19,6.19,0,0,1,6.12-6.45v.15c-1.47.18-1.87,1.43-1.87,6.2,0,3.6,1.6,5.58,3.82,5.58a5.4,5.4,0,0,0,3.65-1.33v.15a7,7,0,0,1-5.3,2.25A6.33,6.33,0,0,1,139.05,109Zm5.62-1c2.2,0,3.13-.7,3.13-2.8,0-1.2-.5-2.3-1.63-2.45v-.15c3.3,0,4.9,2.35,4.9,4.25a6.9,6.9,0,0,1-.13,1.3h-6.27Z"/><path class="cls-2" d="M158.67,113.83c0,.62.38,1.27,1.88,1.27v.15h-7.88v-.15c1.5,0,1.88-.65,1.88-1.27V105c0-.9-.43-1.32-1.85-1.32v-.15a15.18,15.18,0,0,0,6-1Zm6.75-8.63a2.67,2.67,0,0,1-2.57,2.85,1.71,1.71,0,0,1-1.43-.55,1.81,1.81,0,0,0,1-1.7,1.32,1.32,0,0,0-1.39-1.35,1.72,1.72,0,0,0-1.5,1v-.2a3.46,3.46,0,0,1,3.25-2.7A2.54,2.54,0,0,1,165.42,105.2Z"/><path class="cls-2" d="M20.42,140.33v.15a5.22,5.22,0,0,1-4.27,2c-2.25,0-3.85-1-3.85-3.52v-8.2H11l.27-.38h1v-2.7a6.31,6.31,0,0,0,4.1-1.4v4.1h3.37l-.27.38H16.4v8.27c0,1.25.47,2.55,1.65,2.55A3.68,3.68,0,0,0,20.42,140.33Z"/><path class="cls-2" d="M27.57,129.65c-1.47.18-2,1.43-2,6.3,0,4.7.5,6.25,2,6.4v.15A6.37,6.37,0,0,1,21.35,136a6.27,6.27,0,0,1,6.22-6.45Zm7.2,6.3a6.36,6.36,0,0,1-6.2,6.55v-.15c1.48-.15,1.95-1.72,1.95-6.4,0-4.9-.5-6.15-1.95-6.3v-.15A6.23,6.23,0,0,1,34.77,136Z"/><path class="cls-2" d="M45.75,131.5v.2a2.78,2.78,0,0,0-2.08-.92c-1.25,0-2.45.57-2.45,5.1s1.28,5.32,2.45,5.32a3.49,3.49,0,0,0,2.08-.87v.15a4.64,4.64,0,0,1-3.63,2c-2.37,0-5.15-1.4-5.15-6.62,0-5,2.73-6.38,5.15-6.38A4.63,4.63,0,0,1,45.75,131.5Zm4.87,9.08c0,.72.23,1,.68,1s.8-.37,1.19-1.12h.15a3.12,3.12,0,0,1-3.24,2c-2,0-2.9-.7-2.9-2.82V126.33c0-.9-.43-1.33-1.85-1.33v-.14a16.28,16.28,0,0,0,6-1Z"/><path class="cls-2" d="M53.85,139.3c0-2.17,2-3.4,4.8-3.4h2.7v.15H60.6A2.48,2.48,0,0,0,58,138.78c0,1.37.4,2.42,1.57,2.42a2.75,2.75,0,0,0,1.83-.87v.15a5.32,5.32,0,0,1-4,2C55.25,142.5,53.82,141.3,53.85,139.3Zm1-7.07c0-1.28,1.15-2.58,4.55-2.73v.15a1.83,1.83,0,0,0-1.6,1.83c0,.9.62,1.45,1.62,1.52a2.8,2.8,0,0,1-2.4,1.2A2,2,0,0,1,54.85,132.23Zm7.25,7.45V132c0-1.23-.48-2.2-1.7-2.38v-.15c4.15.15,5.8,1.73,5.8,5v6.08c0,.72.24,1,.69,1s.8-.37,1.21-1.12h.14a3.1,3.1,0,0,1-3.24,2C63,142.5,62.1,141.8,62.1,139.68Z"/><path class="cls-2" d="M69.05,130.78a1.35,1.35,0,0,0-1.38-.88v-.15h7v.15c-.87,0-1.22.6-.8,1.48l3.28,6.82L75,142.25h-.15ZM68,146.28a2.61,2.61,0,0,1,2.2-2.35,1.75,1.75,0,0,0-.1.62,1.46,1.46,0,0,0,1.47,1.67c.88,0,1.58-.92,2.53-2.52h.17c-1.37,2.58-2.32,4.8-4.07,4.8A2.08,2.08,0,0,1,68,146.28ZM78.2,135.75a6.89,6.89,0,0,0,.7-3.22,2.42,2.42,0,0,0-2.55-2.63v-.15h6.22v.15c-.82,0-1.15.33-1.62,1.18l-2.6,4.9Z"/></svg>