<svg id="Layer_1" data-name="Layer 1" xmlns="http://www.w3.org/2000/svg" viewBox="0 0 300 150"><defs><style>.cls-1{fill:none;}.cls-2{fill:#fff;}</style></defs><title>Artboard 1</title><rect class="cls-1" width="300" height="150"/><rect class="cls-1" width="300" height="150"/><rect class="cls-1" width="300" height="150"/><path class="cls-2" d="M10.48,70.86a15.22,15.22,0,0,0,6-1v17c0,.62.37,1.27,1.87,1.27v.15H10.45V88.1c1.5,0,1.87-.65,1.87-1.27V72.33c0-.9-.42-1.33-1.84-1.33Z"/><path class="cls-2" d="M19.42,76.45a15.42,15.42,0,0,0,6-1V86.83c0,.62.37,1.27,1.87,1.27v.15H19.4V88.1c1.5,0,1.87-.65,1.87-1.27v-8.9c0-.9-.42-1.33-1.85-1.33Zm1.28-4.7a2.27,2.27,0,0,1,2.55-2.17,2.21,2.21,0,1,1,0,4.37A2.27,2.27,0,0,1,20.7,71.75Z"/><path class="cls-2" d="M28.9,76.78a1.35,1.35,0,0,0-1.38-.88v-.15h7v.15c-.87,0-1.22.6-.8,1.48L37,84.2l-2.15,4H34.7Zm9.15,5a6.89,6.89,0,0,0,.7-3.22A2.42,2.42,0,0,0,36.2,75.9v-.15h6.22v.15c-.82,0-1.15.33-1.62,1.18L38.2,82Z"/><path class="cls-2" d="M42.62,82a6.19,6.19,0,0,1,6.13-6.45v.15c-1.48.18-1.88,1.43-1.88,6.2,0,3.6,1.6,5.58,3.83,5.58a5.44,5.44,0,0,0,3.65-1.33v.15a7,7,0,0,1-5.3,2.25A6.34,6.34,0,0,1,42.62,82Zm5.63-1c2.2,0,3.12-.7,3.12-2.8,0-1.2-.5-2.3-1.62-2.45V75.5c3.3,0,4.9,2.35,4.9,4.25a6.9,6.9,0,0,1-.13,1.3H48.25Z"/><path class="cls-2" d="M61.05,85.28a1.27,1.27,0,0,0-1.4,1.25c0,.72.5,1.65,2.22,1.82v.15c-3.32-.12-5.15-1-5.15-2.47a2,2,0,0,1,2.13-1.85A2.54,2.54,0,0,1,61.05,85.28Zm.82-9.63c-.92.18-1.82.65-1.8,1.68.08,2.9,8.18,3.37,8.18,7.35,0,2.42-2,3.7-5.28,3.82v-.15c1-.17,2.23-.55,2.23-1.85,0-2.6-8.2-3.55-8.2-7.35,0-2.2,2.07-3.52,4.87-3.65Zm5.9,2.43a1.64,1.64,0,0,1-1.85,1.55,2.13,2.13,0,0,1-2.12-1.2,1.11,1.11,0,0,0,1.12-1.18c0-.75-1-1.47-2-1.6V75.5C65.8,75.65,67.77,76.68,67.77,78.08Z"/><path class="cls-2" d="M76.45,85.3c0-2.17,2-3.4,4.8-3.4H84v.15H83.2a2.48,2.48,0,0,0-2.65,2.73c0,1.37.4,2.42,1.57,2.42A2.75,2.75,0,0,0,84,86.33v.15a5.32,5.32,0,0,1-4,2C77.85,88.5,76.42,87.3,76.45,85.3Zm1-7.07c0-1.28,1.15-2.58,4.55-2.73v.15a1.83,1.83,0,0,0-1.6,1.83c0,.9.62,1.45,1.62,1.52a2.8,2.8,0,0,1-2.4,1.2A2,2,0,0,1,77.45,78.23Zm7.25,7.45V78c0-1.23-.48-2.2-1.7-2.38V75.5c4.15.15,5.8,1.73,5.8,5v6.08c0,.72.25,1,.7,1s.8-.37,1.2-1.12h.15a3.12,3.12,0,0,1-3.25,2C85.6,88.5,84.7,87.8,84.7,85.68Z"/><path class="cls-2" d="M101.32,86.33v.15a5.22,5.22,0,0,1-4.27,2c-2.25,0-3.85-1-3.85-3.52v-8.2H91.9l.27-.38h1V73.7a6.31,6.31,0,0,0,4.1-1.4v4.1h3.37l-.27.38H97.3v8.27c0,1.25.47,2.55,1.65,2.55A3.68,3.68,0,0,0,101.32,86.33Z"/><path class="cls-2" d="M115.1,88.35v.15a9.46,9.46,0,0,1-4.85-1.22l-.83,1.22h-.2V82.4h.2A8.38,8.38,0,0,0,115.1,88.35Zm7.34-5c0,3.22-2.39,5-6.27,5.12v-.15c1.38-.25,2.73-1,2.73-2.55,0-4.37-9.55-4.77-9.55-9.85,0-3,2.42-4.72,5.75-5v.16a2.36,2.36,0,0,0-2.2,2.29C112.9,77.83,122.44,78.3,122.44,83.38Zm-6.27-12.22V71a8.05,8.05,0,0,1,4.5,1.33l.9-1.33h.2v5.58h-.2A7.93,7.93,0,0,0,116.17,71.16Z"/><path class="cls-2" d="M133.85,86.33v.15a5.23,5.23,0,0,1-4.28,2c-2.25,0-3.85-1-3.85-3.52v-8.2h-1.3l.28-.38h1V73.7a6.27,6.27,0,0,0,4.1-1.4v4.1h3.38l-.28.38h-3.1v8.27c0,1.25.48,2.55,1.65,2.55A3.72,3.72,0,0,0,133.85,86.33Z"/><path class="cls-2" d="M134.65,85.3c0-2.17,2-3.4,4.8-3.4h2.7v.15h-.75a2.48,2.48,0,0,0-2.65,2.73c0,1.37.4,2.42,1.57,2.42a2.75,2.75,0,0,0,1.83-.87v.15a5.32,5.32,0,0,1-4,2C136.05,88.5,134.62,87.3,134.65,85.3Zm1-7.07c0-1.28,1.15-2.58,4.55-2.73v.15a1.83,1.83,0,0,0-1.6,1.83c0,.9.62,1.45,1.62,1.52a2.8,2.8,0,0,1-2.4,1.2A2,2,0,0,1,135.65,78.23Zm7.25,7.45V78c0-1.23-.48-2.2-1.7-2.38V75.5c4.15.15,5.8,1.73,5.8,5v6.08c0,.72.24,1,.69,1s.8-.37,1.2-1.12H149a3.12,3.12,0,0,1-3.24,2C143.8,88.5,142.9,87.8,142.9,85.68Z"/><path class="cls-2" d="M155.82,86.83c0,.62.38,1.27,1.88,1.27v.15h-7.88V88.1c1.5,0,1.88-.65,1.88-1.27V78c0-.9-.43-1.32-1.85-1.32v-.15a15.18,15.18,0,0,0,6-1Zm6.75-8.63A2.67,2.67,0,0,1,160,81.05a1.71,1.71,0,0,1-1.43-.55,1.81,1.81,0,0,0,1-1.7,1.32,1.32,0,0,0-1.39-1.35,1.72,1.72,0,0,0-1.5,1v-.2a3.46,3.46,0,0,1,3.25-2.7A2.54,2.54,0,0,1,162.57,78.2Z"/><path class="cls-2" d="M11.07,115.1c1.5,0,1.88-.6,1.88-1.27V99.68c0-.68-.38-1.27-1.88-1.27v-.16h8v.16c-1.5,0-1.87.59-1.87,1.27v14.15c0,.67.37,1.27,1.87,1.27v.15h-8Z"/><path class="cls-2" d="M20.75,115.1c1.5,0,1.87-.65,1.87-1.27V105c0-.9-.42-1.32-1.85-1.32v-.15a15.23,15.23,0,0,0,6-1v11.33c0,.62.37,1.27,1.87,1.27v.15H20.75Zm8.8,0c1.47,0,1.85-.65,1.85-1.27V106a1.86,1.86,0,0,0-2-2.13,2.67,2.67,0,0,0-1.9.78v-.15a5.12,5.12,0,0,1,4.15-2c2.25,0,3.85,1,3.85,3.53v7.8c0,.62.38,1.27,1.88,1.27v.15H29.55Z"/><path class="cls-2" d="M43.1,112.28a1.27,1.27,0,0,0-1.4,1.25c0,.72.5,1.65,2.22,1.82v.15c-3.32-.12-5.15-1-5.15-2.47a2,2,0,0,1,2.13-1.85A2.54,2.54,0,0,1,43.1,112.28Zm.82-9.63c-.92.18-1.82.65-1.8,1.68.08,2.9,8.18,3.37,8.18,7.35,0,2.42-2,3.7-5.28,3.82v-.15c1-.17,2.23-.55,2.23-1.85,0-2.6-8.2-3.55-8.2-7.35,0-2.2,2.07-3.52,4.87-3.65Zm5.9,2.43A1.64,1.64,0,0,1,48,106.63a2.13,2.13,0,0,1-2.12-1.2A1.11,1.11,0,0,0,47,104.25c0-.75-.95-1.47-1.95-1.6v-.15C47.85,102.65,49.82,103.68,49.82,105.08Z"/><path class="cls-2" d="M57.67,112c0,1.4.48,2.12,1.73,2.12a2.21,2.21,0,0,0,1.72-.77v.15a4.16,4.16,0,0,1-3.87,2c-2.25,0-3.7-1-3.7-3.52v-7c0-.9-.43-1.32-1.85-1.32v-.15a15.18,15.18,0,0,0,6-1Zm8.33,1.6c0,.72.22,1,.67,1s.8-.37,1.2-1.12H68c-.4,1.37-1.75,2-3.4,2s-2.75-1-2.75-2.45V105c0-.9-.42-1.32-1.77-1.32v-.15a16.15,16.15,0,0,0,5.9-1Z"/><path class="cls-2" d="M75,113.83c0,.62.38,1.27,1.88,1.27v.15H69v-.15c1.5,0,1.88-.65,1.88-1.27V105c0-.9-.43-1.32-1.85-1.32v-.15a15.18,15.18,0,0,0,6-1Zm6.75-8.63a2.67,2.67,0,0,1-2.57,2.85,1.71,1.71,0,0,1-1.43-.55,1.82,1.82,0,0,0,1-1.7,1.33,1.33,0,0,0-1.4-1.35,1.72,1.72,0,0,0-1.5,1v-.2a3.46,3.46,0,0,1,3.25-2.7A2.54,2.54,0,0,1,81.77,105.2Z"/><path class="cls-2" d="M82.85,112.3c0-2.17,2-3.4,4.8-3.4h2.7v.15H89.6A2.48,2.48,0,0,0,87,111.78c0,1.37.4,2.42,1.57,2.42a2.75,2.75,0,0,0,1.83-.87v.15a5.32,5.32,0,0,1-4,2C84.25,115.5,82.82,114.3,82.85,112.3Zm1-7.07c0-1.28,1.15-2.58,4.55-2.73v.15a1.83,1.83,0,0,0-1.6,1.83c0,.9.62,1.45,1.62,1.52a2.8,2.8,0,0,1-2.4,1.2A2,2,0,0,1,83.85,105.23Zm7.25,7.45V105c0-1.23-.48-2.2-1.7-2.38v-.15c4.15.15,5.8,1.73,5.8,5v6.08c0,.72.25,1,.7,1s.8-.37,1.2-1.12h.15a3.12,3.12,0,0,1-3.25,2C92,115.5,91.1,114.8,91.1,112.68Z"/><path class="cls-2" d="M98,115.1c1.5,0,1.88-.65,1.88-1.27V105c0-.9-.43-1.32-1.85-1.32v-.15a15.18,15.18,0,0,0,6-1v11.33c0,.62.38,1.27,1.88,1.27v.15H98Zm8.8,0c1.48,0,1.85-.65,1.85-1.27V106c0-1.4-.72-2.13-2-2.13a2.67,2.67,0,0,0-1.9.78v-.15a5.1,5.1,0,0,1,4.15-2c2.25,0,3.85,1,3.85,3.53v7.8c0,.62.37,1.27,1.87,1.27v.15h-7.85Z"/><path class="cls-2" d="M122.42,102.65c-1.47.18-2.12,1.43-2.12,6.2,0,3.6,1.82,5.58,4,5.58A5.44,5.44,0,0,0,128,113.1v.15a7,7,0,0,1-5.3,2.25A6.54,6.54,0,0,1,116,109a6.41,6.41,0,0,1,6.4-6.45Zm5.55,2.68a2.33,2.33,0,0,1-2.5,2.4,2.12,2.12,0,0,1-2.17-1.58,2.14,2.14,0,0,0,1.2-1.82,1.48,1.48,0,0,0-1.08-1.65v-.18C126.7,102.5,128,103.9,128,105.33Z"/><path class="cls-2" d="M129.85,109A6.19,6.19,0,0,1,136,102.5v.15c-1.47.18-1.87,1.43-1.87,6.2,0,3.6,1.6,5.58,3.82,5.58a5.4,5.4,0,0,0,3.65-1.33v.15a7,7,0,0,1-5.3,2.25A6.33,6.33,0,0,1,129.85,109Zm5.62-1c2.2,0,3.13-.7,3.13-2.8,0-1.2-.5-2.3-1.63-2.45v-.15c3.3,0,4.9,2.35,4.9,4.25a7.85,7.85,0,0,1-.12,1.3h-6.28Z"/><path class="cls-2" d="M17.42,142.35v.15a9.48,9.48,0,0,1-4.85-1.22l-.82,1.22h-.2v-6.1h.2A8.36,8.36,0,0,0,17.42,142.35Zm7.35-5c0,3.22-2.4,5-6.27,5.12v-.15c1.37-.25,2.72-1,2.72-2.55,0-4.37-9.55-4.77-9.55-9.85,0-3,2.43-4.72,5.75-4.95v.16a2.36,2.36,0,0,0-2.2,2.29C15.22,131.83,24.77,132.3,24.77,137.38ZM18.5,125.16V125a8.08,8.08,0,0,1,4.5,1.33l.9-1.33h.2v5.58h-.2A7.93,7.93,0,0,0,18.5,125.16Z"/><path class="cls-2" d="M32.45,146.05c0,.9.42,1.32,1.85,1.32v.15a16.3,16.3,0,0,0-6,1V131.93c0-.9-.42-1.33-1.85-1.33v-.15a16.5,16.5,0,0,0,6-1ZM42,135.88c0,5.22-2.75,6.62-5.12,6.62a4.67,4.67,0,0,1-3.65-2v-.15a3.52,3.52,0,0,0,2.1.87c1.17,0,2.42-.82,2.42-5.32s-1.17-5.1-2.42-5.1a2.81,2.81,0,0,0-2.1.92v-.2a4.65,4.65,0,0,1,3.65-2C39.27,129.5,42,130.9,42,135.88Z"/><path class="cls-2" d="M44.17,136a6.19,6.19,0,0,1,6.13-6.45v.15c-1.48.18-1.88,1.43-1.88,6.2,0,3.6,1.6,5.58,3.83,5.58a5.44,5.44,0,0,0,3.65-1.33v.15a7,7,0,0,1-5.3,2.25A6.34,6.34,0,0,1,44.17,136Zm5.63-1c2.2,0,3.12-.7,3.12-2.8,0-1.2-.5-2.3-1.62-2.45v-.15c3.3,0,4.9,2.35,4.9,4.25a6.9,6.9,0,0,1-.13,1.3H49.8Z"/><path class="cls-2" d="M64.65,129.65c-1.48.18-2.13,1.43-2.13,6.2,0,3.6,1.83,5.58,4,5.58a5.4,5.4,0,0,0,3.65-1.33v.15a7,7,0,0,1-5.3,2.25A6.53,6.53,0,0,1,58.25,136a6.4,6.4,0,0,1,6.4-6.45Zm5.55,2.68a2.33,2.33,0,0,1-2.5,2.4,2.13,2.13,0,0,1-2.18-1.58,2.14,2.14,0,0,0,1.2-1.82,1.48,1.48,0,0,0-1.07-1.65v-.18C68.92,129.5,70.2,130.9,70.2,132.33Z"/><path class="cls-2" d="M71.67,130.45a15.42,15.42,0,0,0,6-1v11.35c0,.62.37,1.27,1.87,1.27v.15H71.65v-.15c1.5,0,1.87-.65,1.87-1.27v-8.9c0-.9-.42-1.33-1.85-1.33Zm1.28-4.7A2.58,2.58,0,1,1,75.5,128,2.27,2.27,0,0,1,73,125.75Z"/><path class="cls-2" d="M80.77,139.3c0-2.17,2-3.4,4.8-3.4h2.7v.15h-.75a2.48,2.48,0,0,0-2.65,2.73c0,1.37.4,2.42,1.58,2.42a2.72,2.72,0,0,0,1.82-.87v.15a5.3,5.3,0,0,1-4,2C82.17,142.5,80.75,141.3,80.77,139.3Zm1-7.07c0-1.28,1.15-2.58,4.55-2.73v.15a1.83,1.83,0,0,0-1.6,1.83c0,.9.63,1.45,1.63,1.52a2.82,2.82,0,0,1-2.4,1.2A2,2,0,0,1,81.77,132.23ZM89,139.68V132c0-1.23-.47-2.2-1.7-2.38v-.15c4.15.15,5.8,1.73,5.8,5v6.08c0,.72.25,1,.7,1s.8-.37,1.2-1.12h.15a3.12,3.12,0,0,1-3.25,2C89.92,142.5,89,141.8,89,139.68Z"/><path class="cls-2" d="M95.82,124.86a15.23,15.23,0,0,0,6-1v17c0,.62.37,1.27,1.87,1.27v.15H95.8v-.15c1.5,0,1.87-.65,1.87-1.27v-14.5c0-.9-.42-1.33-1.85-1.33Z"/><path class="cls-2" d="M104.77,130.45a15.42,15.42,0,0,0,6-1v11.35c0,.62.37,1.27,1.87,1.27v.15h-7.87v-.15c1.5,0,1.87-.65,1.87-1.27v-8.9c0-.9-.42-1.33-1.85-1.33Zm1.28-4.7a2.58,2.58,0,1,1,2.55,2.2A2.27,2.27,0,0,1,106.05,125.75Z"/><path class="cls-2" d="M118.47,139.28a1.28,1.28,0,0,0-1.4,1.25c0,.72.5,1.65,2.23,1.82v.15c-3.33-.12-5.15-1-5.15-2.47a2,2,0,0,1,2.12-1.85A2.53,2.53,0,0,1,118.47,139.28Zm.83-9.63c-.93.18-1.83.65-1.8,1.68.07,2.9,8.17,3.37,8.17,7.35,0,2.42-2,3.7-5.27,3.82v-.15c1-.17,2.22-.55,2.22-1.85,0-2.6-8.2-3.55-8.2-7.35,0-2.2,2.08-3.52,4.88-3.65Zm5.9,2.43a1.64,1.64,0,0,1-1.85,1.55,2.16,2.16,0,0,1-2.13-1.2,1.12,1.12,0,0,0,1.13-1.18c0-.75-.95-1.47-1.95-1.6v-.15C123.22,129.65,125.2,130.68,125.2,132.08Z"/><path class="cls-2" d="M137,140.33v.15a5.22,5.22,0,0,1-4.27,2c-2.25,0-3.85-1-3.85-3.52v-8.2h-1.3l.27-.38h1v-2.7a6.31,6.31,0,0,0,4.1-1.4v4.1h3.37l-.27.38H133v8.27c0,1.25.47,2.55,1.65,2.55A3.68,3.68,0,0,0,137,140.33Z"/><path class="cls-2" d="M142.42,139.28a1.28,1.28,0,0,0-1.4,1.25c0,.72.5,1.65,2.23,1.82v.15c-3.33-.12-5.15-1-5.15-2.47a2,2,0,0,1,2.12-1.85A2.53,2.53,0,0,1,142.42,139.28Zm.83-9.63c-.93.18-1.83.65-1.8,1.68.07,2.9,8.17,3.37,8.17,7.35,0,2.42-2.05,3.7-5.27,3.82v-.15c1.05-.17,2.22-.55,2.22-1.85,0-2.6-8.2-3.55-8.2-7.35,0-2.2,2.08-3.52,4.88-3.65Zm5.89,2.43a1.64,1.64,0,0,1-1.85,1.55,2.15,2.15,0,0,1-2.12-1.2,1.12,1.12,0,0,0,1.13-1.18c0-.75-1-1.47-2-1.6v-.15C147.17,129.65,149.14,130.68,149.14,132.08Z"/></svg>