<?xml version="1.0" encoding="utf-8"?>
<!-- Generator: Adobe Illustrator 24.0.3, SVG Export Plug-In . SVG Version: 6.00 Build 0)  -->
<svg version="1.1" id="Layer_1" xmlns="http://www.w3.org/2000/svg" xmlns:xlink="http://www.w3.org/1999/xlink" x="0px" y="0px"
	 viewBox="0 0 300 150" style="enable-background:new 0 0 300 150;" xml:space="preserve">
<style type="text/css">
	.st0{fill:none;}
	.st1{enable-background:new    ;}
	.st2{fill:#FFFFFF;}
</style>
<title>Artboard 1 copy 2</title>
<rect y="0" class="st0" width="300" height="150"/>
<g class="st1">
	<path class="st2" d="M34.2,84.9l0.1,0.2c-1.3,2.1-3.6,3-6,3c-4.1,0-9.1-2.9-9.1-8.7c0-6.3,4.9-8.7,8.5-8.8v0.2
		c-1.7,0.4-3.6,2-3.6,8.4c0,6.4,2.6,7.9,5.4,7.9C31.7,87.2,33.3,86,34.2,84.9z M34.4,70.7v6.1h-0.2c-1-3.3-2.8-5.2-5.3-5.9v-0.2
		c2.2,0.1,3.5,0.5,4.5,1.2l0.8-1.2H34.4z"/>
</g>
<g class="st1">
	<path class="st2" d="M42.4,75.3c-1.5,0.2-2,1.4-2,6.3c0,4.7,0.5,6.2,2,6.4v0.2c-2.9,0-6.2-2.3-6.2-6.5c0-4.2,3.3-6.4,6.2-6.4V75.3z
		 M49.6,81.6c0,4.2-3.3,6.5-6.2,6.5V88c1.5-0.1,1.9-1.7,1.9-6.4c0-4.9-0.5-6.1-1.9-6.3v-0.2C46.3,75.2,49.6,77.4,49.6,81.6z"/>
	<path class="st2" d="M51.2,87.8c1.5,0,1.9-0.6,1.9-1.3v-8.9c0-0.9-0.4-1.3-1.8-1.3v-0.2c2.3,0,4.2-0.2,6-1v11.3
		c0,0.6,0.4,1.3,1.9,1.3v0.2h-7.9V87.8z M60,87.8c1.5,0,1.8-0.6,1.8-1.3v-7.8c0-1.4-0.7-2.1-2-2.1c-0.7,0-1.3,0.2-1.9,0.8v-0.2
		c0.7-1,2.3-2,4.1-2c2.2,0,3.8,1,3.8,3.5v7.8c0,0.6,0.4,1.3,1.9,1.3v0.2H60V87.8z"/>
	<path class="st2" d="M78.5,86v0.2c-0.8,1.1-2.4,2-4.3,2c-2.2,0-3.8-1-3.8-3.5v-8.2h-1.3l0.3-0.4h1v-2.7c1.5,0,3-0.5,4.1-1.4v4.1
		h3.4l-0.3,0.4h-3.1v8.3c0,1.2,0.5,2.5,1.6,2.5C76.8,87.3,77.7,86.8,78.5,86z"/>
	<path class="st2" d="M79.3,85c0-2.2,2-3.4,4.8-3.4h2.7v0.2H86c-1.8,0-2.6,1.2-2.6,2.7c0,1.4,0.4,2.4,1.6,2.4c0.7,0,1.3-0.4,1.8-0.9
		v0.2c-0.8,0.9-2.1,2-4,2C80.7,88.2,79.3,87,79.3,85z M80.3,77.9c0-1.3,1.1-2.6,4.5-2.7v0.2c-1,0.1-1.6,0.9-1.6,1.8
		c0,0.9,0.6,1.5,1.6,1.5c-0.4,0.7-1.4,1.2-2.4,1.2C81.1,79.9,80.3,78.9,80.3,77.9z M87.5,85.3v-7.6c0-1.2-0.5-2.2-1.7-2.4v-0.2
		c4.1,0.2,5.8,1.7,5.8,5v6.1c0,0.7,0.2,1,0.7,1c0.4,0,0.8-0.4,1.2-1.1h0.1c-0.4,1.4-1.7,2-3.2,2C88.4,88.2,87.5,87.5,87.5,85.3z"/>
	<path class="st2" d="M101.3,75.3c-1.5,0.2-2.1,1.4-2.1,6.2c0,3.6,1.8,5.6,4,5.6c1.4,0,2.5-0.4,3.6-1.3v0.1
		c-1.3,1.7-3.7,2.2-5.3,2.2c-3.2,0-6.7-2.3-6.7-6.5c0-4.2,3.5-6.4,6.4-6.4V75.3z M106.9,78c0,1.3-0.9,2.4-2.5,2.4
		c-1.2,0-2-0.8-2.2-1.6c0.7-0.3,1.2-1.2,1.2-1.8c0-0.6-0.1-1.5-1.1-1.7v-0.2C105.6,75.2,106.9,76.6,106.9,78z"/>
	<path class="st2" d="M118,86v0.2c-0.8,1.1-2.4,2-4.3,2c-2.2,0-3.8-1-3.8-3.5v-8.2h-1.3l0.3-0.4h1v-2.7c1.5,0,3-0.5,4.1-1.4v4.1h3.4
		l-0.3,0.4H114v8.3c0,1.2,0.5,2.5,1.6,2.5C116.3,87.3,117.2,86.8,118,86z"/>
</g>
<g class="st1">
	<path class="st2" d="M19.2,100.4c-0.2-0.5-0.6-0.9-1.4-0.9v-0.2h7v0.2c-0.9,0-1.2,0.6-0.8,1.5l3.3,6.8l-2.1,4H25L19.2,100.4z
		 M18.1,115.9c0-1.1,0.9-2,2.2-2.3c-0.1,0.2-0.1,0.4-0.1,0.6c0,0.9,0.5,1.7,1.5,1.7c0.9,0,1.6-0.9,2.5-2.5h0.2
		c-1.4,2.6-2.3,4.8-4.1,4.8C18.9,118.2,18.1,117.2,18.1,115.9z M28.3,105.4c0.4-0.8,0.7-1.9,0.7-3.2c0-1.4-0.8-2.6-2.5-2.6v-0.2h6.2
		v0.2c-0.8,0-1.1,0.3-1.6,1.2l-2.6,4.9L28.3,105.4z"/>
</g>
<g class="st1">
	<path class="st2" d="M39.1,99.3c-1.5,0.2-2,1.4-2,6.3c0,4.7,0.5,6.2,2,6.4v0.2c-2.9,0-6.2-2.3-6.2-6.5c0-4.2,3.3-6.4,6.2-6.4V99.3z
		 M46.3,105.6c0,4.2-3.3,6.5-6.2,6.5V112c1.5-0.1,1.9-1.7,1.9-6.4c0-4.9-0.5-6.1-1.9-6.3v-0.2C43,99.2,46.3,101.4,46.3,105.6z"/>
	<path class="st2" d="M53.6,108.6c0,1.4,0.5,2.1,1.7,2.1c0.6,0,1.2-0.2,1.7-0.8v0.2c-0.6,1.1-1.8,2-3.9,2c-2.2,0-3.7-1-3.7-3.5v-7
		c0-0.9-0.4-1.3-1.8-1.3v-0.2c2.3,0,4.2-0.2,6-1V108.6z M62,110.2c0,0.7,0.2,1,0.7,1c0.4,0,0.8-0.4,1.2-1.1H64c-0.4,1.4-1.7,2-3.4,2
		c-1.8,0-2.7-1-2.7-2.4v-8.1c0-0.9-0.4-1.3-1.8-1.3v-0.2c2.2,0,3.8-0.2,5.9-1V110.2z"/>
</g>
<g class="st1">
	<path class="st2" d="M71,110.5c0,0.6,0.4,1.3,1.9,1.3v0.2H65v-0.2c1.5,0,1.9-0.6,1.9-1.3v-8.9c0-0.9-0.4-1.3-1.8-1.3v-0.2
		c2.3,0,4.2-0.2,6-1V110.5z M77.7,101.9c0,1.7-1.2,2.8-2.6,2.8c-0.6,0-1.1-0.2-1.4-0.5c0.5-0.2,1-0.8,1-1.7c0-0.7-0.5-1.3-1.4-1.3
		c-0.6,0-1.2,0.4-1.5,0.9v-0.2c0.5-1.6,1.7-2.7,3.2-2.7C76.8,99.2,77.7,100.4,77.7,101.9z"/>
</g>
<g class="st1">
	<path class="st2" d="M90.1,108.8c0,2.4-1.6,3.4-4.1,3.4V96c0-0.9-0.4-1.3-1.9-1.3v-0.1c2.3,0,3.9-0.2,6-1V108.8z M99.6,105.5
		c0,5.2-2.8,6.6-5.1,6.6c-1.4,0-3-1-3.6-2V110c0.6,0.5,1.3,0.9,2.1,0.9c1.2,0,2.4-0.8,2.4-5.3c0-4.5-1.2-5.1-2.4-5.1
		c-0.8,0-1.5,0.3-2.1,0.9v-0.2c0.6-1,2.2-2,3.6-2C96.9,99.2,99.6,100.6,99.6,105.5z"/>
</g>
<g class="st1">
	<path class="st2" d="M107.3,110.5c0,0.6,0.4,1.3,1.9,1.3v0.2h-7.9v-0.2c1.5,0,1.9-0.6,1.9-1.3v-8.9c0-0.9-0.4-1.3-1.8-1.3v-0.2
		c2.3,0,4.2-0.2,6-1V110.5z M114.1,101.9c0,1.7-1.2,2.8-2.6,2.8c-0.6,0-1.1-0.2-1.4-0.5c0.5-0.2,1-0.8,1-1.7c0-0.7-0.5-1.3-1.4-1.3
		c-0.6,0-1.2,0.4-1.5,0.9v-0.2c0.5-1.6,1.7-2.7,3.2-2.7C113.1,99.2,114.1,100.4,114.1,101.9z"/>
</g>
<g class="st1">
	<path class="st2" d="M121.7,99.3c-1.5,0.2-2,1.4-2,6.3c0,4.7,0.5,6.2,2,6.4v0.2c-2.9,0-6.2-2.3-6.2-6.5c0-4.2,3.3-6.4,6.2-6.4V99.3
		z M128.9,105.6c0,4.2-3.3,6.5-6.2,6.5V112c1.5-0.1,1.9-1.7,1.9-6.4c0-4.9-0.5-6.1-1.9-6.3v-0.2C125.6,99.2,128.9,101.4,128.9,105.6
		z"/>
</g>
<g class="st1">
	<path class="st2" d="M138.2,111.8v0.2h-7.9v-0.2c1.5,0,1.9-0.6,1.9-1.3V96c0-0.9-0.4-1.3-1.8-1.3v-0.1c2.3,0,4.2-0.2,6-1v16.9
		C136.4,111.1,136.7,111.8,138.2,111.8z M146.7,111.8v0.2c-0.7,0.2-1.6,0.2-2.5,0.2c-1.5,0-3.2-0.3-4.5-2.4l-2.3-3.9
		c2-1.7,3.8-3.8,3.8-5.1c0-0.7-0.3-1.1-1.5-1.1v-0.2h6.4v0.2c-0.6,0-1,0.2-1.4,0.4l-4.6,3.6l4.3,6.7
		C145.3,111.6,145.9,111.7,146.7,111.8z"/>
</g>
<g class="st1">
	<path class="st2" d="M146.9,105.6c0-4.2,3.2-6.4,6.1-6.4v0.2c-1.5,0.2-1.9,1.4-1.9,6.2c0,3.6,1.6,5.6,3.8,5.6
		c1.4,0,2.5-0.4,3.6-1.3v0.1c-1.3,1.7-3.7,2.2-5.3,2.2C150.1,112.2,146.9,109.8,146.9,105.6z M152.5,104.6c2.2,0,3.1-0.7,3.1-2.8
		c0-1.2-0.5-2.3-1.6-2.4v-0.2c3.3,0,4.9,2.3,4.9,4.2c0,0.4,0,0.9-0.1,1.3h-6.3V104.6z"/>
</g>
<g class="st1">
	<path class="st2" d="M166.5,110.5c0,0.6,0.4,1.3,1.9,1.3v0.2h-7.9v-0.2c1.5,0,1.9-0.6,1.9-1.3v-8.9c0-0.9-0.4-1.3-1.8-1.3v-0.2
		c2.3,0,4.2-0.2,6-1V110.5z M173.2,101.9c0,1.7-1.2,2.8-2.6,2.8c-0.6,0-1.1-0.2-1.4-0.5c0.5-0.2,1-0.8,1-1.7c0-0.7-0.5-1.3-1.4-1.3
		c-0.7,0-1.2,0.4-1.5,0.9v-0.2c0.5-1.6,1.7-2.7,3.2-2.7C172.3,99.2,173.2,100.4,173.2,101.9z"/>
</g>
<g class="st1">
	<path class="st2" d="M28.2,134v0.2c-0.8,1.1-2.4,2-4.3,2c-2.2,0-3.8-1-3.8-3.5v-8.2h-1.3l0.3-0.4h1v-2.7c1.5,0,3-0.5,4.1-1.4v4.1
		h3.4l-0.3,0.4h-3.1v8.3c0,1.2,0.5,2.5,1.6,2.5C26.6,135.3,27.4,134.8,28.2,134z"/>
</g>
<g class="st1">
	<path class="st2" d="M35.4,123.3c-1.5,0.2-2,1.4-2,6.3c0,4.7,0.5,6.2,2,6.4v0.2c-2.9,0-6.2-2.3-6.2-6.5c0-4.2,3.3-6.4,6.2-6.4
		V123.3z M42.6,129.6c0,4.2-3.3,6.5-6.2,6.5V136c1.5-0.1,1.9-1.7,1.9-6.4c0-4.9-0.5-6.1-1.9-6.3v-0.2
		C39.3,123.2,42.6,125.4,42.6,129.6z"/>
	<path class="st2" d="M53.6,125.2v0.2c-0.6-0.6-1.3-0.9-2.1-0.9c-1.2,0-2.4,0.6-2.4,5.1c0,4.5,1.3,5.3,2.4,5.3
		c0.8,0,1.4-0.4,2.1-0.9v0.2c-0.6,1-2.2,2-3.6,2c-2.4,0-5.1-1.4-5.1-6.6c0-5,2.7-6.4,5.1-6.4C51.4,123.2,52.9,124.1,53.6,125.2z
		 M58.4,134.2c0,0.7,0.2,1,0.7,1c0.4,0,0.8-0.4,1.2-1.1h0.1c-0.4,1.4-1.7,2-3.2,2c-2,0-2.9-0.7-2.9-2.8V120c0-0.9-0.4-1.3-1.8-1.3
		v-0.1c2.3,0,3.9-0.2,6-1V134.2z"/>
</g>
<g class="st1">
	<path class="st2" d="M61.7,133c0-2.2,2-3.4,4.8-3.4h2.7v0.2h-0.7c-1.8,0-2.6,1.2-2.6,2.7c0,1.4,0.4,2.4,1.6,2.4
		c0.7,0,1.3-0.4,1.8-0.9v0.2c-0.8,0.9-2.1,2-4,2C63.1,136.2,61.6,135,61.7,133z M62.7,125.9c0-1.3,1.1-2.6,4.5-2.7v0.2
		c-1,0.1-1.6,0.9-1.6,1.8c0,0.9,0.6,1.5,1.6,1.5c-0.4,0.7-1.4,1.2-2.4,1.2C63.5,127.9,62.7,126.9,62.7,125.9z M69.9,133.3v-7.6
		c0-1.2-0.5-2.2-1.7-2.4v-0.2c4.1,0.2,5.8,1.7,5.8,5v6.1c0,0.7,0.2,1,0.7,1c0.4,0,0.8-0.4,1.2-1.1h0.1c-0.4,1.4-1.7,2-3.2,2
		C70.8,136.2,69.9,135.5,69.9,133.3z"/>
</g>
<g class="st1">
	<path class="st2" d="M76.9,124.4c-0.2-0.5-0.6-0.9-1.4-0.9v-0.2h7v0.2c-0.9,0-1.2,0.6-0.8,1.5l3.3,6.8l-2.1,4h-0.1L76.9,124.4z
		 M75.8,139.9c0-1.1,0.9-2,2.2-2.3c-0.1,0.2-0.1,0.4-0.1,0.6c0,0.9,0.5,1.7,1.5,1.7c0.9,0,1.6-0.9,2.5-2.5H82
		c-1.4,2.6-2.3,4.8-4.1,4.8C76.6,142.2,75.8,141.2,75.8,139.9z M86,129.4c0.4-0.8,0.7-1.9,0.7-3.2c0-1.4-0.8-2.6-2.5-2.6v-0.2h6.2
		v0.2c-0.8,0-1.1,0.3-1.6,1.2l-2.6,4.9L86,129.4z"/>
</g>
</svg>
