<svg id="Layer_1" data-name="Layer 1" xmlns="http://www.w3.org/2000/svg" viewBox="0 0 320 480"><defs><style>.cls-1{fill:#263845;}.cls-2{fill:none;}</style></defs><title>Artboard 1</title><path class="cls-1" d="M43.09,33.13v.21c-2.52.31-4.27,2.83-4.27,11.83s1.75,11.94,4.27,12.25v.21c-5-.28-11.13-4-11.13-12.25A12.13,12.13,0,0,1,43.09,33.13Zm1.72.21v-.21c3.6.17,5.6.7,7.17,1.64l1.09-1.64h.28v8.5h-.28A10.79,10.79,0,0,0,44.81,33.34ZM56.67,47.23v.21c-1.64,0-2.59.63-2.59,2.07v8.12H53.8l-1.26-2.1c-1.75,1.26-4.16,2-7.7,2.1v-.21c2.38-.17,3.75-1.43,3.75-4.27V49.51c0-1.44-.63-2.07-2.63-2.07v-.21Z"/><path class="cls-1" d="M67.52,39.64c-2.06.24-2.76,2-2.76,8.82,0,6.58.7,8.75,2.76,9v.21a8.92,8.92,0,0,1-8.71-9.17,8.77,8.77,0,0,1,8.71-9ZM77.6,48.46a8.91,8.91,0,0,1-8.68,9.17v-.21c2.07-.21,2.73-2.41,2.73-9,0-6.86-.7-8.61-2.73-8.82v-.21A8.72,8.72,0,0,1,77.6,48.46Z"/><path class="cls-1" d="M93.49,54.59v.21a7.32,7.32,0,0,1-6,2.83c-3.15,0-5.39-1.43-5.39-4.94V41.21H80.29l.39-.52h1.44V36.91a8.89,8.89,0,0,0,5.74-2v5.74h4.72l-.38.52H87.86V52.8c0,1.75.66,3.57,2.31,3.57A5.15,5.15,0,0,0,93.49,54.59Z"/><path class="cls-1" d="M103.5,53.15c0-3,2.8-4.76,6.72-4.76H114v.21h-1c-2.52,0-3.71,1.64-3.71,3.82,0,1.92.56,3.39,2.21,3.39A3.82,3.82,0,0,0,114,54.59v.21a7.43,7.43,0,0,1-5.57,2.83C105.46,57.63,103.46,56,103.5,53.15Zm1.4-9.91c0-1.78,1.61-3.6,6.37-3.81v.21A2.55,2.55,0,0,0,109,42.19c0,1.26.88,2,2.27,2.14A3.93,3.93,0,0,1,107.94,46,2.81,2.81,0,0,1,104.9,43.24Zm10.15,10.44V43c0-1.71-.66-3.08-2.38-3.32v-.21c5.81.21,8.12,2.41,8.12,7v8.51c0,1,.35,1.43,1,1.43s1.12-.52,1.68-1.57h.21c-.56,1.92-2.45,2.83-4.55,2.83C116.31,57.63,115.05,56.65,115.05,53.68Z"/><path class="cls-1" d="M37.84,92.12a1.79,1.79,0,0,0-2,1.75c0,1,.7,2.31,3.12,2.55v.21c-4.66-.17-7.22-1.43-7.22-3.46a2.74,2.74,0,0,1,3-2.6A3.55,3.55,0,0,1,37.84,92.12ZM39,78.64c-1.3.24-2.56.91-2.52,2.34.1,4.06,11.44,4.73,11.44,10.29,0,3.4-2.87,5.19-7.38,5.36v-.21c1.47-.24,3.11-.77,3.11-2.59,0-3.64-11.48-5-11.48-10.29,0-3.08,2.91-4.94,6.83-5.11ZM47.26,82c0,1.09-.84,2.17-2.59,2.17a3,3,0,0,1-3-1.68,1.56,1.56,0,0,0,1.58-1.64c0-1-1.33-2.07-2.73-2.24v-.21C44.49,78.64,47.26,80.07,47.26,82Z"/><path class="cls-1" d="M58.32,101.6c0,1.26.59,1.86,2.59,1.86v.21A23.06,23.06,0,0,0,52.54,105V81.82C52.54,80.56,52,80,50,80v-.21a22.89,22.89,0,0,0,8.37-1.37ZM71.65,87.35c0,7.32-3.85,9.28-7.17,9.28a6.54,6.54,0,0,1-5.11-2.83v-.21a4.92,4.92,0,0,0,2.94,1.22c1.64,0,3.39-1.15,3.39-7.46s-1.64-7.14-3.39-7.14a3.91,3.91,0,0,0-2.94,1.3v-.28a6.51,6.51,0,0,1,5.11-2.8C67.87,78.43,71.65,80.39,71.65,87.35Z"/><path class="cls-1" d="M74.73,87.46a8.66,8.66,0,0,1,8.58-9v.21c-2.07.24-2.63,2-2.63,8.68,0,5,2.24,7.81,5.36,7.81a7.62,7.62,0,0,0,5.11-1.86v.21c-1.82,2.31-5.15,3.15-7.42,3.15A8.87,8.87,0,0,1,74.73,87.46ZM82.61,86C85.69,86,87,85,87,82.07c0-1.68-.7-3.22-2.27-3.43v-.21c4.62,0,6.86,3.29,6.86,5.95a9.94,9.94,0,0,1-.18,1.82H82.61Z"/><path class="cls-1" d="M103.4,78.64c-2.07.24-3,2-3,8.68,0,5,2.55,7.81,5.67,7.81a7.58,7.58,0,0,0,5.11-1.86v.21c-1.82,2.31-5.14,3.15-7.42,3.15a9.15,9.15,0,0,1-9.35-9.17,9,9,0,0,1,9-9Zm7.77,3.74a3.25,3.25,0,0,1-3.5,3.36,3,3,0,0,1-3-2.2A3,3,0,0,0,106.3,81a2.08,2.08,0,0,0-1.5-2.31v-.24C109.38,78.43,111.17,80.39,111.17,82.38Z"/><path class="cls-1" d="M113.23,79.76a21.3,21.3,0,0,0,8.36-1.37v15.9c0,.87.53,1.78,2.63,1.78v.21h-11v-.21c2.1,0,2.63-.91,2.63-1.78V81.82c0-1.26-.6-1.85-2.59-1.85ZM115,73.18c0-1.82,1.47-3.05,3.57-3.05s3.58,1.23,3.58,3.05-1.48,3.08-3.58,3.08S115,75,115,73.18Z"/><path class="cls-1" d="M126,92.15c0-3.05,2.8-4.76,6.72-4.76h3.78v.21h-1.05c-2.52,0-3.71,1.64-3.71,3.82,0,1.92.56,3.39,2.2,3.39a3.84,3.84,0,0,0,2.56-1.22v.21a7.45,7.45,0,0,1-5.57,2.83C127.93,96.63,125.93,95,126,92.15Zm1.4-9.91c0-1.78,1.61-3.6,6.37-3.81v.21a2.55,2.55,0,0,0-2.24,2.55c0,1.26.87,2,2.27,2.14A3.93,3.93,0,0,1,130.41,85,2.81,2.81,0,0,1,127.37,82.24Zm10.15,10.44V82c0-1.71-.67-3.08-2.38-3.32v-.21c5.81.21,8.12,2.41,8.12,7v8.51c0,1,.35,1.43,1,1.43s1.12-.52,1.68-1.57h.21c-.56,1.92-2.45,2.83-4.55,2.83C138.78,96.63,137.52,95.65,137.52,92.68Z"/><path class="cls-1" d="M147,71.92a21.3,21.3,0,0,0,8.36-1.37V94.29c0,.87.53,1.78,2.63,1.78v.21H147v-.21c2.1,0,2.63-.91,2.63-1.78V74c0-1.26-.6-1.85-2.59-1.85Z"/><path class="cls-1" d="M31.93,119.21A1.9,1.9,0,0,0,30,118v-.21h9.8V118c-1.22,0-1.71.84-1.12,2.06l4.59,9.56-3,5.67h-.21Zm12.81,7a9.68,9.68,0,0,0,1-4.52A3.38,3.38,0,0,0,42.15,118v-.21h8.71V118c-1.15,0-1.61.45-2.27,1.64L45,126.49Z"/><path class="cls-1" d="M51.14,126.46a8.66,8.66,0,0,1,8.58-9v.21c-2.07.24-2.63,2-2.63,8.68,0,5,2.24,7.81,5.36,7.81a7.62,7.62,0,0,0,5.11-1.86v.21c-1.82,2.31-5.15,3.15-7.42,3.15A8.87,8.87,0,0,1,51.14,126.46ZM59,125c3.08,0,4.37-1,4.37-3.92,0-1.68-.7-3.22-2.27-3.43v-.21c4.62,0,6.86,3.29,6.86,5.95a9.94,9.94,0,0,1-.18,1.82H59Z"/><path class="cls-1" d="M78.41,133.29c0,.87.52,1.78,2.62,1.78v.21H70v-.21c2.11,0,2.63-.91,2.63-1.78V113c0-1.26-.6-1.85-2.59-1.85v-.21a21.36,21.36,0,0,0,8.37-1.37Zm12.25-10.93v10.93c0,.87.52,1.78,2.62,1.78v.21h-11v-.21c2.07,0,2.59-.91,2.59-1.78V122.36c0-2-1-3-2.76-3a3.72,3.72,0,0,0-2.66,1.08v-.21a7.14,7.14,0,0,1,5.81-2.83C88.42,117.43,90.66,118.9,90.66,122.36Z"/><path class="cls-1" d="M94.61,118.76a21.36,21.36,0,0,0,8.37-1.37v15.9c0,.87.52,1.78,2.62,1.78v.21h-11v-.21c2.1,0,2.63-.91,2.63-1.78V120.82c0-1.26-.6-1.85-2.59-1.85Zm1.78-6.58c0-1.82,1.48-3.05,3.58-3.05s3.57,1.23,3.57,3.05-1.47,3.08-3.57,3.08S96.39,114,96.39,112.18Z"/><path class="cls-1" d="M116.66,117.64c-2.06.24-3,2-3,8.68,0,5,2.56,7.81,5.68,7.81a7.62,7.62,0,0,0,5.11-1.86v.21c-1.82,2.31-5.15,3.15-7.42,3.15a9.15,9.15,0,0,1-9.35-9.17,9,9,0,0,1,9-9Zm7.77,3.74a3.25,3.25,0,0,1-3.5,3.36,3,3,0,0,1-3-2.2,3,3,0,0,0,1.68-2.56,2.08,2.08,0,0,0-1.51-2.31v-.24C122.65,117.43,124.43,119.39,124.43,121.38Z"/><path class="cls-1" d="M126.25,110.92a21.39,21.39,0,0,0,8.37-1.37v23.74c0,.87.52,1.78,2.62,1.78v.21h-11v-.21c2.1,0,2.63-.91,2.63-1.78V113c0-1.26-.6-1.85-2.59-1.85Z"/><path class="cls-1" d="M139.34,126.46a8.66,8.66,0,0,1,8.57-9v.21c-2.06.24-2.62,2-2.62,8.68,0,5,2.24,7.81,5.36,7.81a7.62,7.62,0,0,0,5.11-1.86v.21c-1.82,2.31-5.15,3.15-7.43,3.15A8.87,8.87,0,0,1,139.34,126.46Zm7.87-1.47c3.08,0,4.38-1,4.38-3.92,0-1.68-.7-3.22-2.27-3.43v-.21c4.62,0,6.86,3.29,6.86,5.95a9.94,9.94,0,0,1-.18,1.82h-8.79Z"/><path class="cls-1" d="M158.66,115.85c0-3.11,4.2-4.62,7.38-4.72v.21a3.46,3.46,0,0,0-2.48,3.39,3,3,0,0,0,2,3,3.86,3.86,0,0,1-3.22,1.4C160.48,119.14,158.66,118.13,158.66,115.85Zm5.14,18.59c0-1.92,1.54-3.18,3.75-3.18s3.74,1.26,3.74,3.18-1.54,3.22-3.74,3.22S163.8,136.4,163.8,134.44Zm.95-9.84c0-3.92,5.56-5.07,5.56-9.55a3.44,3.44,0,0,0-2.52-3.71v-.21c4.83.31,8.48,1.89,8.48,5.77,0,4.76-7.6,6.27-7.6,9.35a2.06,2.06,0,0,0,1.26,2l0,.21C166.39,128.49,164.75,126.74,164.75,124.6Z"/><rect class="cls-2" x="0.98" width="320" height="480"/><rect class="cls-2" x="0.62" width="320" height="480"/></svg>