<svg id="Layer_1" data-name="Layer 1" xmlns="http://www.w3.org/2000/svg" viewBox="0 0 320 480"><defs><style>.cls-1{fill:none;}.cls-2{fill:#fff;}</style></defs><title>Artboard 1 copy 2</title><rect class="cls-1" x="0.36" width="320" height="480"/><path class="cls-2" d="M33.88,58.82c2.1,0,2.63-.8,2.63-1.78V37.22c0-1-.53-1.78-2.63-1.78v-.21h8.58V57c0,1,.52,1.78,2.62,1.78V59H33.88ZM44.21,35.44v-.21h9.62v7h-.28C51.94,37.26,49.53,35.79,44.21,35.44Zm1.92,11.9-1.92-.17V47l1.92-.18a5.4,5.4,0,0,0,4.62-3H51v6.51h-.28A5.3,5.3,0,0,0,46.13,47.34Z"/><path class="cls-2" d="M64,41.39c-2.07.24-2.77,2-2.77,8.82,0,6.58.7,8.75,2.77,9v.21a8.92,8.92,0,0,1-8.72-9.17,8.77,8.77,0,0,1,8.72-9ZM74.1,50.21a8.92,8.92,0,0,1-8.68,9.17v-.21c2.06-.21,2.73-2.41,2.73-9,0-6.86-.7-8.61-2.73-8.82v-.21A8.72,8.72,0,0,1,74.1,50.21Z"/><path class="cls-2" d="M84.81,57c0,.87.52,1.78,2.62,1.78V59h-11v-.21c2.1,0,2.62-.91,2.62-1.78V44.61c0-1.26-.59-1.86-2.59-1.86v-.21a21.54,21.54,0,0,0,8.37-1.36ZM94.26,45a3.75,3.75,0,0,1-3.61,4,2.37,2.37,0,0,1-2-.77A2.57,2.57,0,0,0,90,45.8a1.86,1.86,0,0,0-2-1.89A2.4,2.4,0,0,0,86,45.24V45a4.85,4.85,0,0,1,4.55-3.78A3.55,3.55,0,0,1,94.26,45Z"/><path class="cls-2" d="M39.94,93.87a1.79,1.79,0,0,0-2,1.75c0,1,.7,2.31,3.11,2.55v.21c-4.65-.17-7.21-1.43-7.21-3.46a2.73,2.73,0,0,1,3-2.59A3.56,3.56,0,0,1,39.94,93.87Zm1.15-13.48c-1.29.24-2.55.91-2.52,2.34C38.68,86.79,50,87.46,50,93c0,3.39-2.87,5.18-7.39,5.35v-.21c1.47-.24,3.12-.77,3.12-2.59,0-3.64-11.48-5-11.48-10.29,0-3.08,2.9-4.94,6.82-5.11Zm8.26,3.4A2.29,2.29,0,0,1,46.76,86a3,3,0,0,1-3-1.69,1.54,1.54,0,0,0,1.57-1.64c0-1-1.33-2.07-2.73-2.24v-.21C46.59,80.39,49.35,81.82,49.35,83.79Z"/><path class="cls-2" d="M60.41,103.35c0,1.26.6,1.86,2.59,1.86v.21a23,23,0,0,0-8.36,1.36V83.58c0-1.27-.6-1.86-2.59-1.86v-.21a22.83,22.83,0,0,0,8.36-1.37ZM73.75,89.11c0,7.31-3.85,9.27-7.18,9.27a6.57,6.57,0,0,1-5.11-2.83v-.21a5,5,0,0,0,2.94,1.22c1.65,0,3.4-1.15,3.4-7.45S66.15,82,64.4,82a3.94,3.94,0,0,0-2.94,1.3V83a6.54,6.54,0,0,1,5.11-2.8C70,80.18,73.75,82.14,73.75,89.11Z"/><path class="cls-2" d="M76.83,89.21a8.66,8.66,0,0,1,8.57-9v.21c-2.06.24-2.62,2-2.62,8.68,0,5,2.24,7.81,5.35,7.81A7.58,7.58,0,0,0,93.24,95v.21c-1.82,2.31-5.14,3.15-7.42,3.15A8.87,8.87,0,0,1,76.83,89.21Zm7.87-1.47c3.08,0,4.38-1,4.38-3.92,0-1.68-.7-3.22-2.28-3.43v-.21c4.62,0,6.86,3.29,6.86,5.95A10.9,10.9,0,0,1,93.49,88H84.7Z"/><path class="cls-2" d="M105.49,80.39c-2.06.24-3,2-3,8.68,0,5,2.55,7.81,5.67,7.81A7.62,7.62,0,0,0,113.3,95v.21c-1.82,2.31-5.15,3.15-7.42,3.15a9.15,9.15,0,0,1-9.35-9.17,9,9,0,0,1,9-9Zm7.77,3.74a3.26,3.26,0,0,1-3.5,3.37,3,3,0,0,1-3-2.21,3,3,0,0,0,1.68-2.56,2.08,2.08,0,0,0-1.51-2.31v-.24C111.48,80.18,113.26,82.14,113.26,84.13Z"/><path class="cls-2" d="M115.33,81.51a21.3,21.3,0,0,0,8.36-1.37V96c0,.87.53,1.78,2.63,1.78V98h-11v-.21c2.1,0,2.63-.91,2.63-1.78V83.58c0-1.27-.6-1.86-2.59-1.86Zm1.78-6.58c0-1.82,1.47-3.05,3.57-3.05s3.57,1.23,3.57,3.05S122.78,78,120.68,78,117.11,76.78,117.11,74.93Z"/><path class="cls-2" d="M128.07,93.9c0-3,2.8-4.76,6.72-4.76h3.78v.21h-1c-2.52,0-3.71,1.65-3.71,3.82,0,1.92.56,3.39,2.2,3.39a3.84,3.84,0,0,0,2.56-1.22v.21A7.45,7.45,0,0,1,133,98.38C130,98.38,128,96.7,128.07,93.9Zm1.4-9.9c0-1.79,1.61-3.61,6.37-3.82v.21a2.55,2.55,0,0,0-2.24,2.55c0,1.27.87,2,2.27,2.14a3.93,3.93,0,0,1-3.36,1.68A2.8,2.8,0,0,1,129.47,84Zm10.15,10.43V83.71c0-1.71-.67-3.08-2.38-3.32v-.21c5.81.21,8.12,2.41,8.12,7v8.51c0,1,.35,1.43,1,1.43s1.12-.52,1.68-1.57h.21c-.56,1.92-2.45,2.83-4.55,2.83C140.88,98.38,139.62,97.4,139.62,94.43Z"/><path class="cls-2" d="M149.14,73.67a21.3,21.3,0,0,0,8.36-1.37V96c0,.87.53,1.78,2.63,1.78V98h-11v-.21c2.1,0,2.63-.91,2.63-1.78V75.73c0-1.26-.6-1.85-2.59-1.85Z"/><path class="cls-2" d="M161.67,81.51A21.3,21.3,0,0,0,170,80.14V96c0,.87.53,1.78,2.63,1.78V98h-11v-.21c2.1,0,2.63-.91,2.63-1.78V83.58c0-1.27-.6-1.86-2.59-1.86Zm1.78-6.58c0-1.82,1.47-3.05,3.57-3.05s3.57,1.23,3.57,3.05S169.12,78,167,78,163.45,76.78,163.45,74.93Z"/><path class="cls-2" d="M180.85,93.87a1.79,1.79,0,0,0-2,1.75c0,1,.7,2.31,3.11,2.55v.21c-4.65-.17-7.21-1.43-7.21-3.46a2.73,2.73,0,0,1,3-2.59A3.56,3.56,0,0,1,180.85,93.87ZM182,80.39c-1.29.24-2.56.91-2.52,2.34.11,4.06,11.45,4.73,11.45,10.3,0,3.39-2.87,5.18-7.39,5.35v-.21c1.47-.24,3.12-.77,3.12-2.59,0-3.64-11.48-5-11.48-10.29,0-3.08,2.9-4.94,6.82-5.11Zm8.26,3.4A2.29,2.29,0,0,1,187.67,86a3,3,0,0,1-3-1.69,1.54,1.54,0,0,0,1.57-1.64c0-1-1.33-2.07-2.73-2.24v-.21C187.5,80.39,190.26,81.82,190.26,83.79Z"/><path class="cls-2" d="M206.82,95.34v.21a7.32,7.32,0,0,1-6,2.83c-3.15,0-5.39-1.43-5.39-4.93V82h-1.82l.39-.52h1.43V77.66a8.85,8.85,0,0,0,5.74-2v5.74h4.73l-.39.52h-4.34V93.55c0,1.75.67,3.57,2.31,3.57A5.2,5.2,0,0,0,206.82,95.34Z"/><path class="cls-2" d="M33.29,120.51a21.3,21.3,0,0,0,8.36-1.37V135c0,.87.53,1.78,2.63,1.78V137h-11v-.21c2.1,0,2.63-.91,2.63-1.78V122.58c0-1.27-.6-1.86-2.59-1.86Zm1.78-6.58c0-1.82,1.47-3.05,3.57-3.05s3.57,1.23,3.57,3.05S40.74,117,38.64,117,35.07,115.78,35.07,113.93Z"/><path class="cls-2" d="M45.75,136.82c2.1,0,2.62-.91,2.62-1.78V122.61c0-1.26-.59-1.86-2.59-1.86v-.21a21.54,21.54,0,0,0,8.37-1.36V135c0,.87.52,1.78,2.62,1.78V137h-11Zm12.32,0c2.06,0,2.59-.91,2.59-1.78V124.12c0-2-1-3-2.77-3a3.77,3.77,0,0,0-2.66,1.08V122A7.15,7.15,0,0,1,61,119.18c3.15,0,5.39,1.47,5.39,4.94V135c0,.87.53,1.78,2.63,1.78V137h-11Z"/><path class="cls-2" d="M77,132.87a1.79,1.79,0,0,0-2,1.75c0,1,.7,2.31,3.11,2.55v.21C73.54,137.21,71,136,71,133.92a2.73,2.73,0,0,1,3-2.59A3.56,3.56,0,0,1,77,132.87Zm1.15-13.48c-1.29.24-2.55.91-2.52,2.34.11,4.06,11.45,4.73,11.45,10.3,0,3.39-2.87,5.18-7.39,5.35v-.21c1.47-.24,3.12-.77,3.12-2.59,0-3.64-11.48-5-11.48-10.29,0-3.08,2.9-4.94,6.82-5.11Zm8.26,3.4A2.29,2.29,0,0,1,83.86,125a3,3,0,0,1-3-1.69,1.54,1.54,0,0,0,1.57-1.64c0-1-1.33-2.07-2.73-2.24v-.21C83.69,119.39,86.45,120.82,86.45,122.79Z"/><path class="cls-2" d="M97.44,132.45c0,2,.67,3,2.42,3a3.09,3.09,0,0,0,2.41-1.08v.21a5.83,5.83,0,0,1-5.42,2.83c-3.15,0-5.18-1.47-5.18-4.93v-9.84c0-1.26-.6-1.86-2.59-1.86v-.21a21.49,21.49,0,0,0,8.36-1.36Zm11.66,2.24c0,1,.31,1.43.94,1.43s1.12-.52,1.68-1.57h.21c-.56,1.92-2.45,2.83-4.76,2.83s-3.85-1.4-3.85-3.43V122.61c0-1.26-.59-1.86-2.48-1.86v-.21a22.86,22.86,0,0,0,8.26-1.36Z"/><path class="cls-2" d="M121.73,135c0,.87.53,1.78,2.63,1.78V137h-11v-.21c2.1,0,2.63-.91,2.63-1.78V122.61c0-1.26-.6-1.86-2.59-1.86v-.21a21.49,21.49,0,0,0,8.36-1.36ZM131.18,123a3.74,3.74,0,0,1-3.6,4,2.39,2.39,0,0,1-2-.77A2.56,2.56,0,0,0,127,123.8a1.86,1.86,0,0,0-2-1.89,2.39,2.39,0,0,0-2.1,1.33V123a4.84,4.84,0,0,1,4.55-3.78A3.55,3.55,0,0,1,131.18,123Z"/><path class="cls-2" d="M132.69,132.9c0-3,2.8-4.76,6.72-4.76h3.78v.21h-1.05c-2.52,0-3.71,1.65-3.71,3.82,0,1.92.56,3.39,2.2,3.39a3.84,3.84,0,0,0,2.56-1.22v.21a7.45,7.45,0,0,1-5.57,2.83C134.65,137.38,132.65,135.7,132.69,132.9Zm1.4-9.9c0-1.79,1.61-3.61,6.37-3.82v.21a2.55,2.55,0,0,0-2.24,2.55c0,1.27.87,2,2.27,2.14a3.93,3.93,0,0,1-3.36,1.68A2.8,2.8,0,0,1,134.09,123Zm10.15,10.43V122.71c0-1.71-.67-3.08-2.38-3.32v-.21c5.81.21,8.12,2.41,8.12,7v8.51c0,1,.35,1.43,1,1.43s1.12-.52,1.68-1.57h.21c-.56,1.92-2.45,2.83-4.55,2.83C145.5,137.38,144.24,136.4,144.24,133.43Z"/><path class="cls-2" d="M153.93,136.82c2.1,0,2.63-.91,2.63-1.78V122.61c0-1.26-.6-1.86-2.59-1.86v-.21a21.49,21.49,0,0,0,8.36-1.36V135c0,.87.53,1.78,2.63,1.78V137h-11Zm12.32,0c2.07,0,2.59-.91,2.59-1.78V124.12c0-2-1-3-2.76-3a3.77,3.77,0,0,0-2.66,1.08V122a7.14,7.14,0,0,1,5.81-2.83c3.15,0,5.39,1.47,5.39,4.94V135c0,.87.52,1.78,2.62,1.78V137h-11Z"/><path class="cls-2" d="M188.09,119.39c-2.06.24-3,2-3,8.68,0,5,2.55,7.81,5.67,7.81A7.62,7.62,0,0,0,195.9,134v.21c-1.82,2.31-5.15,3.15-7.42,3.15a9.15,9.15,0,0,1-9.35-9.17,9,9,0,0,1,9-9Zm7.77,3.74a3.26,3.26,0,0,1-3.5,3.37,3,3,0,0,1-3-2.21,3,3,0,0,0,1.68-2.56,2.08,2.08,0,0,0-1.51-2.31v-.24C194.08,119.18,195.86,121.14,195.86,123.13Z"/><path class="cls-2" d="M198.49,128.21a8.66,8.66,0,0,1,8.57-9v.21c-2.06.24-2.62,2-2.62,8.68,0,5,2.24,7.81,5.35,7.81A7.58,7.58,0,0,0,214.9,134v.21c-1.82,2.31-5.14,3.15-7.42,3.15A8.87,8.87,0,0,1,198.49,128.21Zm7.87-1.47c3.08,0,4.38-1,4.38-3.92,0-1.68-.7-3.22-2.28-3.43v-.21c4.62,0,6.86,3.29,6.86,5.95a10.9,10.9,0,0,1-.17,1.82h-8.79Z"/><rect class="cls-1" x="0.36" width="320" height="480"/></svg>