<?xml version="1.0" encoding="utf-8"?>
<!-- Generator: Adobe Illustrator 24.0.3, SVG Export Plug-In . SVG Version: 6.00 Build 0)  -->
<svg version="1.1" id="Layer_1" xmlns="http://www.w3.org/2000/svg" xmlns:xlink="http://www.w3.org/1999/xlink" x="0px" y="0px"
	 viewBox="0 0 320 480" style="enable-background:new 0 0 320 480;" xml:space="preserve">
<style type="text/css">
	.st0{enable-background:new    ;}
	.st1{fill:#263845;}
	.st2{fill:none;}
</style>
<title>Artboard 1</title>
<g class="st0">
	<path class="st1" d="M40.2,28.9v0.2c-3,0.4-5,3.3-5,13.9c0,10.6,2.1,14,5,14.4v0.2c-5.9-0.3-13.1-4.7-13.1-14.4
		C27.1,34,34.7,29.3,40.2,28.9z M42.2,29.2v-0.2c4.2,0.2,6.6,0.8,8.4,1.9l1.3-1.9h0.3v10h-0.3C50.8,34.1,47.1,30.2,42.2,29.2z
		 M56.1,45.5v0.2c-1.9,0-3,0.7-3,2.4v9.5h-0.3l-1.5-2.5c-2.1,1.5-4.9,2.3-9,2.5v-0.2c2.8-0.2,4.4-1.7,4.4-5v-4.3
		c0-1.7-0.7-2.4-3.1-2.4v-0.2H56.1z"/>
	<path class="st1" d="M68.8,36.6c-2.4,0.3-3.2,2.3-3.2,10.3c0,7.7,0.8,10.3,3.2,10.5v0.2c-4.7,0-10.2-3.9-10.2-10.8
		S64,36.4,68.8,36.3V36.6z M80.7,46.9c0,6.9-5.5,10.8-10.2,10.8v-0.2c2.4-0.2,3.2-2.8,3.2-10.5c0-8-0.8-10.1-3.2-10.3v-0.2
		C75.2,36.3,80.7,40,80.7,46.9z"/>
	<path class="st1" d="M99.3,54.1v0.2c-1.3,1.9-3.9,3.3-7,3.3c-3.7,0-6.3-1.7-6.3-5.8V38.4h-2.1l0.5-0.6h1.7v-4.4
		c2.5,0,5-0.8,6.7-2.3v6.7h5.5l-0.5,0.6h-5.1V52c0,2.1,0.8,4.2,2.7,4.2C96.5,56.2,97.9,55.5,99.3,54.1z"/>
	<path class="st1" d="M111,52.4c0-3.6,3.3-5.6,7.9-5.6h4.4v0.2h-1.2c-3,0-4.4,1.9-4.4,4.5c0,2.3,0.7,4,2.6,4c1.1,0,2.1-0.6,3-1.4
		v0.2c-1.4,1.6-3.5,3.3-6.5,3.3C113.3,57.7,111,55.7,111,52.4z M112.7,40.8c0-2.1,1.9-4.2,7.5-4.5v0.2c-1.6,0.2-2.6,1.6-2.6,3
		c0,1.5,1,2.4,2.7,2.5c-0.6,1.1-2.3,2-3.9,2C114,44.1,112.7,42.5,112.7,40.8z M124.6,53.1V40.5c0-2-0.8-3.6-2.8-3.9v-0.2
		c6.8,0.2,9.5,2.8,9.5,8.2v10c0,1.2,0.4,1.7,1.1,1.7c0.6,0,1.3-0.6,2-1.8h0.2c-0.7,2.3-2.9,3.3-5.3,3.3
		C126.1,57.7,124.6,56.5,124.6,53.1z"/>
</g>
<g class="st0">
	<path class="st1" d="M34,93.5c-1.4,0-2.3,0.8-2.3,2.1c0,1.2,0.8,2.7,3.7,3v0.2c-5.5-0.2-8.5-1.7-8.5-4.1c0-1.9,1.6-3,3.5-3
		C32,91.6,33.4,92.4,34,93.5z M35.4,77.6c-1.5,0.3-3,1.1-3,2.8c0.1,4.8,13.4,5.5,13.4,12.1c0,4-3.4,6.1-8.7,6.3v-0.2
		c1.7-0.3,3.7-0.9,3.7-3c0-4.3-13.5-5.8-13.5-12.1c0-3.6,3.4-5.8,8-6V77.6z M45.1,81.6c0,1.3-1,2.5-3,2.5c-1.7,0-3-0.7-3.5-2
		c1.2-0.1,1.9-0.9,1.8-1.9c0-1.2-1.6-2.4-3.2-2.6v-0.2C41.8,77.6,45.1,79.3,45.1,81.6z"/>
	<path class="st1" d="M58,104.6c0,1.5,0.7,2.2,3,2.2v0.2c-3.8,0-6.4,0.4-9.8,1.6V81.4c0-1.5-0.7-2.2-3-2.2V79c3.8,0,6.4-0.4,9.8-1.6
		V104.6z M73.7,87.9c0,8.6-4.5,10.9-8.4,10.9c-2.3,0-5-1.6-6-3.3v-0.2c1,0.8,2.1,1.4,3.4,1.4c1.9,0,4-1.4,4-8.7c0-7.4-1.9-8.4-4-8.4
		c-1.3,0-2.5,0.5-3.4,1.5v-0.3c1-1.7,3.7-3.3,6-3.3C69.2,77.4,73.7,79.7,73.7,87.9z"/>
	<path class="st1" d="M77.3,88c0-6.9,5.3-10.6,10.1-10.6v0.2c-2.4,0.3-3.1,2.3-3.1,10.2c0,5.9,2.6,9.2,6.3,9.2c2.3,0,4.1-0.7,6-2.2
		v0.2c-2.1,2.7-6,3.7-8.7,3.7C82.6,98.8,77.3,94.9,77.3,88z M86.5,86.3c3.6,0,5.1-1.1,5.1-4.6c0-2-0.8-3.8-2.7-4v-0.2
		c5.4,0,8,3.9,8,7c0,0.7-0.1,1.5-0.2,2.1H86.5V86.3z"/>
	<path class="st1" d="M110.9,77.6c-2.4,0.3-3.5,2.3-3.5,10.2c0,5.9,3,9.2,6.7,9.2c2.3,0,4.1-0.7,6-2.2v0.2c-2.1,2.7-6,3.7-8.7,3.7
		c-5.3,0-11-3.9-11-10.8s5.7-10.6,10.5-10.6V77.6z M120,82c0,2.2-1.5,3.9-4.1,3.9c-2,0-3.3-1.3-3.6-2.6c1.1-0.5,2-1.9,2-3
		c0-0.9-0.2-2.4-1.8-2.7v-0.3C117.9,77.4,120,79.7,120,82z"/>
	<path class="st1" d="M122.5,79c3.8,0,6.9-0.4,9.8-1.6V96c0,1,0.6,2.1,3.1,2.1v0.2h-12.9v-0.2c2.5,0,3.1-1.1,3.1-2.1V81.4
		c0-1.5-0.7-2.2-3-2.2V79z M124.5,71.2c0-2.1,1.7-3.6,4.2-3.6c2.5,0,4.2,1.4,4.2,3.6c0,2.2-1.7,3.6-4.2,3.6
		C126.3,74.9,124.5,73.4,124.5,71.2z"/>
	<path class="st1" d="M137.4,93.5c0-3.6,3.3-5.6,7.9-5.6h4.4v0.2h-1.2c-3,0-4.4,1.9-4.4,4.5c0,2.3,0.7,4,2.6,4c1.1,0,2.1-0.6,3-1.4
		v0.2c-1.4,1.6-3.5,3.3-6.5,3.3C139.7,98.8,137.4,96.8,137.4,93.5z M139,81.9c0-2.1,1.9-4.2,7.5-4.5v0.2c-1.6,0.2-2.6,1.6-2.6,3
		c0,1.5,1,2.4,2.7,2.5c-0.6,1.1-2.3,2-3.9,2C140.4,85.1,139,83.6,139,81.9z M150.9,94.1V81.5c0-2-0.8-3.6-2.8-3.9v-0.2
		c6.8,0.2,9.5,2.8,9.5,8.2v10c0,1.2,0.4,1.7,1.1,1.7c0.6,0,1.3-0.6,2-1.8h0.2c-0.7,2.3-2.9,3.3-5.3,3.3
		C152.4,98.8,150.9,97.6,150.9,94.1z"/>
	<path class="st1" d="M162.1,69.8c3.8,0,6.9-0.4,9.8-1.6V96c0,1,0.6,2.1,3.1,2.1v0.2h-12.9v-0.2c2.5,0,3.1-1.1,3.1-2.1V72.2
		c0-1.5-0.7-2.2-3-2.2V69.8z"/>
</g>
<g class="st0">
	<path class="st1" d="M27.1,120.6c-0.4-0.9-1-1.4-2.3-1.4v-0.2h11.5v0.2c-1.4,0-2,1-1.3,2.4l5.4,11.2l-3.5,6.7h-0.2L27.1,120.6z
		 M42.1,128.7c0.7-1.3,1.1-3.1,1.1-5.3c0-2.3-1.3-4.3-4.2-4.3v-0.2h10.2v0.2c-1.4,0-1.9,0.5-2.7,1.9l-4.3,8L42.1,128.7z"/>
</g>
<g class="st0">
	<path class="st1" d="M49.6,129.1c0-6.9,5.3-10.6,10.1-10.6v0.2c-2.4,0.3-3.1,2.3-3.1,10.2c0,5.9,2.6,9.2,6.3,9.2
		c2.3,0,4.1-0.7,6-2.2v0.2c-2.1,2.7-6,3.7-8.7,3.7C54.9,139.8,49.6,136,49.6,129.1z M58.9,127.3c3.6,0,5.1-1.1,5.1-4.6
		c0-2-0.8-3.8-2.7-4v-0.2c5.4,0,8,3.9,8,7c0,0.7-0.1,1.5-0.2,2.1H58.9V127.3z"/>
	<path class="st1" d="M81.6,137.1c0,1,0.6,2.1,3.1,2.1v0.2H71.7v-0.2c2.5,0,3.1-1.1,3.1-2.1v-23.8c0-1.5-0.7-2.2-3-2.2v-0.2
		c3.8,0,6.9-0.4,9.8-1.6V137.1z M96,124.2v12.8c0,1,0.6,2.1,3.1,2.1v0.2H86.2v-0.2c2.4,0,3-1.1,3-2.1v-12.8c0-2.3-1.2-3.5-3.2-3.5
		c-1.1,0-2.1,0.4-3.1,1.3v-0.2c1.1-1.7,3.8-3.3,6.8-3.3C93.3,118.5,96,120.2,96,124.2z"/>
	<path class="st1" d="M100.6,120c3.8,0,6.9-0.4,9.8-1.6v18.6c0,1,0.6,2.1,3.1,2.1v0.2h-12.9v-0.2c2.5,0,3.1-1.1,3.1-2.1v-14.6
		c0-1.5-0.7-2.2-3-2.2V120z M102.7,112.3c0-2.1,1.7-3.6,4.2-3.6c2.5,0,4.2,1.4,4.2,3.6c0,2.2-1.7,3.6-4.2,3.6
		C104.4,115.9,102.7,114.5,102.7,112.3z"/>
	<path class="st1" d="M126.5,118.7c-2.4,0.3-3.5,2.3-3.5,10.2c0,5.9,3,9.2,6.7,9.2c2.3,0,4.1-0.7,6-2.2v0.2c-2.1,2.7-6,3.7-8.7,3.7
		c-5.3,0-11-3.9-11-10.8c0-6.9,5.7-10.6,10.5-10.6V118.7z M135.6,123.1c0,2.2-1.5,3.9-4.1,3.9c-2,0-3.3-1.3-3.6-2.6
		c1.1-0.5,2-1.9,2-3c0-0.9-0.2-2.4-1.8-2.7v-0.3C133.5,118.5,135.6,120.8,135.6,123.1z"/>
	<path class="st1" d="M137.7,110.8c3.8,0,6.9-0.4,9.8-1.6v27.8c0,1,0.6,2.1,3.1,2.1v0.2h-12.9v-0.2c2.5,0,3.1-1.1,3.1-2.1v-23.8
		c0-1.5-0.7-2.2-3-2.2V110.8z"/>
	<path class="st1" d="M153.1,129.1c0-6.9,5.3-10.6,10.1-10.6v0.2c-2.4,0.3-3.1,2.3-3.1,10.2c0,5.9,2.6,9.2,6.3,9.2
		c2.3,0,4.1-0.7,6-2.2v0.2c-2.1,2.7-6,3.7-8.7,3.7C158.4,139.8,153.1,136,153.1,129.1z M162.3,127.3c3.6,0,5.1-1.1,5.1-4.6
		c0-2-0.8-3.8-2.7-4v-0.2c5.4,0,8,3.9,8,7c0,0.7-0.1,1.5-0.2,2.1h-10.3V127.3z"/>
	<path class="st1" d="M175.7,116.6c0-3.7,4.9-5.4,8.7-5.5v0.2c-2,0.6-2.9,2.3-2.9,4c0,1.5,0.6,2.8,2.3,3.5c-0.7,1-2.1,1.6-3.8,1.6
		C177.9,120.5,175.7,119.3,175.7,116.6z M181.8,138.4c0-2.3,1.8-3.7,4.4-3.7s4.4,1.5,4.4,3.7c0,2.3-1.8,3.8-4.4,3.8
		S181.8,140.7,181.8,138.4z M182.9,126.9c0-4.6,6.5-6,6.5-11.2c0-2.2-0.8-3.6-3-4.4v-0.2c5.7,0.4,9.9,2.2,9.9,6.8
		c0,5.6-8.9,7.4-8.9,11c0,1.1,0.4,1.8,1.5,2.4l0,0.2C184.8,131.4,182.9,129.4,182.9,126.9z"/>
</g>
<rect x="1" y="0" class="st2" width="320" height="480"/>
</svg>
