<?xml version="1.0" encoding="utf-8"?>
<!-- Generator: Adobe Illustrator 24.0.3, SVG Export Plug-In . SVG Version: 6.00 Build 0)  -->
<svg version="1.1" id="Layer_1" xmlns="http://www.w3.org/2000/svg" xmlns:xlink="http://www.w3.org/1999/xlink" x="0px" y="0px"
	 viewBox="0 0 320 480" style="enable-background:new 0 0 320 480;" xml:space="preserve">
<style type="text/css">
	.st0{clip-path:url(#SVGID_2_);}
	.st1{fill:none;}
	.st2{enable-background:new    ;}
	.st3{fill:#FFFFFF;}
</style>
<title>Artboard 1 copy 2</title>
<g>
	<g>
		<g>
			<defs>
				<rect id="SVGID_1_" x="0.4" y="0" width="320" height="480"/>
			</defs>
			<clipPath id="SVGID_2_">
				<use xlink:href="#SVGID_1_"  style="overflow:visible;"/>
			</clipPath>
			<g class="st0">
				<rect x="0.4" y="0" class="st1" width="320" height="480"/>
				<g class="st2">
					<path class="st3" d="M24.1,58.8c2.5,0,3.1-0.9,3.1-2.1V33.4c0-1.2-0.6-2.1-3.1-2.1v-0.2h10.1v25.6c0,1.2,0.6,2.1,3.1,2.1V59
						H24.1V58.8z M36.3,31.4v-0.2h11.3v8.2h-0.3C45.3,33.5,42.5,31.8,36.3,31.4z M38.5,45.3l-2.3-0.2v-0.2l2.3-0.2
						c2.4-0.2,4.1-1.2,5.4-3.5h0.3v7.6h-0.3C42.6,46.4,40.9,45.5,38.5,45.3z"/>
				</g>
				<g class="st2">
					<path class="st3" d="M59.5,38.3c-2.4,0.3-3.2,2.3-3.2,10.3c0,7.7,0.8,10.3,3.2,10.5v0.2c-4.7,0-10.2-3.9-10.2-10.8
						s5.4-10.6,10.2-10.6V38.3z M71.3,48.7c0,6.9-5.5,10.8-10.2,10.8v-0.2c2.4-0.2,3.2-2.8,3.2-10.5c0-8-0.8-10.1-3.2-10.3v-0.2
						C65.9,38.1,71.3,41.7,71.3,48.7z"/>
				</g>
				<g class="st2">
					<path class="st3" d="M83.9,56.7c0,1,0.6,2.1,3.1,2.1V59H74v-0.2c2.5,0,3.1-1.1,3.1-2.1V42.1c0-1.5-0.7-2.2-3-2.2v-0.2
						c3.8,0,6.9-0.4,9.8-1.6V56.7z M95,42.5c0,2.8-2,4.7-4.2,4.7c-1,0-1.8-0.2-2.3-0.9c0.8-0.4,1.6-1.3,1.6-2.8
						c0-1.2-0.9-2.2-2.3-2.2c-1.1,0-1.9,0.6-2.5,1.6v-0.3c0.8-2.6,2.8-4.4,5.3-4.4C93.4,38.1,95,40.1,95,42.5z"/>
				</g>
				<g class="st2">
					<path class="st3" d="M31.2,95.2c-1.4,0-2.3,0.8-2.3,2.1c0,1.2,0.8,2.7,3.7,3v0.2c-5.5-0.2-8.5-1.7-8.5-4.1c0-1.9,1.6-3,3.5-3
						C29.3,93.4,30.6,94.2,31.2,95.2z M32.6,79.4c-1.5,0.3-3,1.1-3,2.8c0.1,4.8,13.4,5.5,13.4,12.1c0,4-3.4,6.1-8.7,6.3v-0.2
						c1.7-0.3,3.7-0.9,3.7-3c0-4.3-13.5-5.8-13.5-12.1c0-3.6,3.4-5.8,8-6V79.4z M42.3,83.4c0,1.3-1,2.5-3,2.5c-1.7,0-3-0.7-3.5-2
						c1.2-0.1,1.9-0.9,1.8-1.9c0-1.2-1.6-2.4-3.2-2.6v-0.2C39.1,79.4,42.3,81.1,42.3,83.4z"/>
					<path class="st3" d="M55.3,106.3c0,1.5,0.7,2.2,3,2.2v0.2c-3.8,0-6.4,0.4-9.8,1.6V83.1c0-1.5-0.7-2.2-3-2.2v-0.2
						c3.8,0,6.4-0.4,9.8-1.6V106.3z M70.9,89.6c0,8.6-4.5,10.9-8.4,10.9c-2.3,0-5-1.6-6-3.3v-0.2c1,0.8,2.1,1.4,3.4,1.4
						c1.9,0,4-1.4,4-8.7c0-7.4-1.9-8.4-4-8.4c-1.3,0-2.5,0.5-3.4,1.5v-0.3c1-1.7,3.7-3.3,6-3.3C66.5,79.1,70.9,81.4,70.9,89.6z"/>
					<path class="st3" d="M74.5,89.7c0-6.9,5.3-10.6,10.1-10.6v0.2c-2.4,0.3-3.1,2.3-3.1,10.2c0,5.9,2.6,9.2,6.3,9.2
						c2.3,0,4.1-0.7,6-2.2v0.2c-2.1,2.7-6,3.7-8.7,3.7C79.8,100.5,74.5,96.6,74.5,89.7z M83.8,88c3.6,0,5.1-1.1,5.1-4.6
						c0-2-0.8-3.8-2.7-4v-0.2c5.4,0,8,3.9,8,7c0,0.7-0.1,1.5-0.2,2.1H83.8V88z"/>
					<path class="st3" d="M108.2,79.4c-2.4,0.3-3.5,2.3-3.5,10.2c0,5.9,3,9.2,6.7,9.2c2.3,0,4.1-0.7,6-2.2v0.2
						c-2.1,2.7-6,3.7-8.7,3.7c-5.3,0-11-3.9-11-10.8s5.7-10.6,10.5-10.6V79.4z M117.3,83.8c0,2.2-1.5,3.9-4.1,3.9
						c-2,0-3.3-1.3-3.6-2.6c1.1-0.5,2-1.9,2-3c0-0.9-0.2-2.4-1.8-2.7v-0.3C115.2,79.1,117.3,81.4,117.3,83.8z"/>
					<path class="st3" d="M119.7,80.7c3.8,0,6.9-0.4,9.8-1.6v18.6c0,1,0.6,2.1,3.1,2.1v0.2h-12.9v-0.2c2.5,0,3.1-1.1,3.1-2.1V83.1
						c0-1.5-0.7-2.2-3-2.2V80.7z M121.8,73c0-2.1,1.7-3.6,4.2-3.6c2.5,0,4.2,1.4,4.2,3.6c0,2.2-1.7,3.6-4.2,3.6
						C123.5,76.6,121.8,75.2,121.8,73z"/>
					<path class="st3" d="M134.6,95.2c0-3.6,3.3-5.6,7.9-5.6h4.4v0.2h-1.2c-3,0-4.4,1.9-4.4,4.5c0,2.3,0.7,4,2.6,4
						c1.1,0,2.1-0.6,3-1.4v0.2c-1.4,1.6-3.5,3.3-6.5,3.3C136.9,100.5,134.6,98.5,134.6,95.2z M136.3,83.6c0-2.1,1.9-4.2,7.5-4.5v0.2
						c-1.6,0.2-2.6,1.6-2.6,3c0,1.5,1,2.4,2.7,2.5c-0.6,1.1-2.3,2-3.9,2C137.6,86.9,136.3,85.3,136.3,83.6z M148.2,95.9V83.3
						c0-2-0.8-3.6-2.8-3.9v-0.2c6.8,0.2,9.5,2.8,9.5,8.2v10c0,1.2,0.4,1.7,1.1,1.7c0.6,0,1.3-0.6,2-1.8h0.2
						c-0.7,2.3-2.9,3.3-5.3,3.3C149.7,100.5,148.2,99.4,148.2,95.9z"/>
					<path class="st3" d="M159.4,71.5c3.8,0,6.9-0.4,9.8-1.6v27.8c0,1,0.6,2.1,3.1,2.1v0.2h-12.9v-0.2c2.5,0,3.1-1.1,3.1-2.1V73.9
						c0-1.5-0.7-2.2-3-2.2V71.5z"/>
					<path class="st3" d="M174.1,80.7c3.8,0,6.9-0.4,9.8-1.6v18.6c0,1,0.6,2.1,3.1,2.1v0.2H174v-0.2c2.5,0,3.1-1.1,3.1-2.1V83.1
						c0-1.5-0.7-2.2-3-2.2V80.7z M176.1,73c0-2.1,1.7-3.6,4.2-3.6c2.5,0,4.2,1.4,4.2,3.6c0,2.2-1.7,3.6-4.2,3.6
						C177.9,76.6,176.1,75.2,176.1,73z"/>
					<path class="st3" d="M196.6,95.2c-1.4,0-2.3,0.8-2.3,2.1c0,1.2,0.8,2.7,3.7,3v0.2c-5.5-0.2-8.5-1.7-8.5-4.1c0-1.9,1.6-3,3.5-3
						C194.6,93.4,195.9,94.2,196.6,95.2z M197.9,79.4c-1.5,0.3-3,1.1-3,2.8c0.1,4.8,13.4,5.5,13.4,12.1c0,4-3.4,6.1-8.7,6.3v-0.2
						c1.7-0.3,3.7-0.9,3.7-3c0-4.3-13.5-5.8-13.5-12.1c0-3.6,3.4-5.8,8-6V79.4z M207.6,83.4c0,1.3-1,2.5-3,2.5c-1.7,0-3-0.7-3.5-2
						c1.2-0.1,1.9-0.9,1.8-1.9c0-1.2-1.6-2.4-3.2-2.6v-0.2C204.4,79.4,207.6,81.1,207.6,83.4z"/>
					<path class="st3" d="M227,96.9v0.2c-1.3,1.9-3.9,3.3-7,3.3c-3.7,0-6.3-1.7-6.3-5.8V81.2h-2.1l0.5-0.6h1.7v-4.4
						c2.5,0,5-0.8,6.7-2.3v6.7h5.5l-0.5,0.6h-5.1v13.6c0,2.1,0.8,4.2,2.7,4.2C224.3,99,225.7,98.3,227,96.9z"/>
				</g>
				<g class="st2">
					<path class="st3" d="M23.4,121.8c3.8,0,6.9-0.4,9.8-1.6v18.6c0,1,0.6,2.1,3.1,2.1v0.2H23.4v-0.2c2.5,0,3.1-1.1,3.1-2.1v-14.6
						c0-1.5-0.7-2.2-3-2.2V121.8z M25.5,114c0-2.1,1.7-3.6,4.2-3.6c2.5,0,4.2,1.4,4.2,3.6c0,2.2-1.7,3.6-4.2,3.6
						C27.3,117.7,25.5,116.2,25.5,114z"/>
					<path class="st3" d="M38.1,140.9c2.5,0,3.1-1.1,3.1-2.1v-14.6c0-1.5-0.7-2.2-3-2.2v-0.2c3.8,0,6.9-0.4,9.8-1.6v18.6
						c0,1,0.6,2.1,3.1,2.1v0.2H38.1V140.9z M52.5,140.9c2.4,0,3-1.1,3-2.1V126c0-2.3-1.2-3.5-3.2-3.5c-1.1,0-2.1,0.4-3.1,1.3v-0.2
						c1.1-1.7,3.8-3.3,6.8-3.3c3.7,0,6.3,1.7,6.3,5.8v12.8c0,1,0.6,2.1,3.1,2.1v0.2H52.5V140.9z"/>
					<path class="st3" d="M74.8,136.3c-1.4,0-2.3,0.8-2.3,2.1c0,1.2,0.8,2.7,3.7,3v0.2c-5.5-0.2-8.5-1.7-8.5-4.1c0-1.9,1.6-3,3.5-3
						C72.8,134.5,74.2,135.2,74.8,136.3z M76.1,120.5c-1.5,0.3-3,1.1-3,2.8c0.1,4.8,13.4,5.5,13.4,12.1c0,4-3.4,6.1-8.7,6.3v-0.2
						c1.7-0.3,3.7-0.9,3.7-3c0-4.3-13.5-5.8-13.5-12.1c0-3.6,3.4-5.8,8-6V120.5z M85.8,124.4c0,1.3-1,2.5-3,2.5c-1.7,0-3-0.7-3.5-2
						c1.2-0.1,1.9-0.9,1.8-1.9c0-1.2-1.6-2.4-3.2-2.6v-0.2C82.6,120.5,85.8,122.1,85.8,124.4z"/>
					<path class="st3" d="M98.7,135.8c0,2.3,0.8,3.5,2.8,3.5c1.1,0,1.9-0.3,2.8-1.3v0.2c-0.9,1.8-3,3.3-6.4,3.3
						c-3.7,0-6.1-1.7-6.1-5.8v-11.5c0-1.5-0.7-2.2-3-2.2v-0.2c3.8,0,6.9-0.4,9.8-1.6V135.8z M112.4,138.4c0,1.2,0.4,1.7,1.1,1.7
						c0.6,0,1.3-0.6,2-1.8h0.2c-0.7,2.3-2.9,3.3-5.6,3.3c-2.9,0-4.5-1.6-4.5-4v-13.3c0-1.5-0.7-2.2-2.9-2.2v-0.2
						c3.7,0,6.2-0.4,9.7-1.6V138.4z"/>
				</g>
				<g class="st2">
					<path class="st3" d="M127.2,138.8c0,1,0.6,2.1,3.1,2.1v0.2h-12.9v-0.2c2.5,0,3.1-1.1,3.1-2.1v-14.6c0-1.5-0.7-2.2-3-2.2v-0.2
						c3.8,0,6.9-0.4,9.8-1.6V138.8z M138.3,124.6c0,2.8-2,4.7-4.2,4.7c-1,0-1.8-0.2-2.3-0.9c0.8-0.4,1.6-1.3,1.6-2.8
						c0-1.2-0.9-2.2-2.3-2.2c-1.1,0-1.9,0.6-2.5,1.6v-0.3c0.8-2.6,2.8-4.4,5.3-4.4C136.7,120.2,138.3,122.2,138.3,124.6z"/>
				</g>
				<g class="st2">
					<path class="st3" d="M140.1,136.3c0-3.6,3.3-5.6,7.9-5.6h4.4v0.2h-1.2c-3,0-4.4,1.9-4.4,4.5c0,2.3,0.7,4,2.6,4
						c1.1,0,2.1-0.6,3-1.4v0.2c-1.4,1.6-3.5,3.3-6.5,3.3C142.4,141.6,140,139.6,140.1,136.3z M141.7,124.7c0-2.1,1.9-4.2,7.5-4.5
						v0.2c-1.6,0.2-2.6,1.6-2.6,3c0,1.5,1,2.4,2.7,2.5c-0.6,1.1-2.3,2-3.9,2C143,127.9,141.7,126.4,141.7,124.7z M153.6,136.9v-12.6
						c0-2-0.8-3.6-2.8-3.9v-0.2c6.8,0.2,9.5,2.8,9.5,8.2v10c0,1.2,0.4,1.7,1.2,1.7c0.6,0,1.3-0.6,2-1.8h0.2
						c-0.7,2.3-2.9,3.3-5.3,3.3C155.1,141.6,153.6,140.4,153.6,136.9z"/>
					<path class="st3" d="M165,140.9c2.5,0,3.1-1.1,3.1-2.1v-14.6c0-1.5-0.7-2.2-3-2.2v-0.2c3.8,0,6.9-0.4,9.8-1.6v18.6
						c0,1,0.6,2.1,3.1,2.1v0.2H165V140.9z M179.4,140.9c2.4,0,3-1.1,3-2.1V126c0-2.3-1.2-3.5-3.2-3.5c-1.2,0-2.1,0.4-3.1,1.3v-0.2
						c1.1-1.7,3.8-3.3,6.8-3.3c3.7,0,6.3,1.7,6.3,5.8v12.8c0,1,0.6,2.1,3.1,2.1v0.2h-12.9V140.9z"/>
					<path class="st3" d="M205.1,120.5c-2.4,0.3-3.5,2.3-3.5,10.2c0,5.9,3,9.2,6.7,9.2c2.3,0,4.1-0.7,6-2.2v0.2
						c-2.1,2.7-6,3.7-8.7,3.7c-5.3,0-11-3.9-11-10.8c0-6.9,5.7-10.6,10.5-10.6V120.5z M214.2,124.8c0,2.2-1.5,3.9-4.1,3.9
						c-2,0-3.3-1.3-3.6-2.6c1.2-0.5,2-1.9,2-3c0-0.9-0.2-2.4-1.8-2.7v-0.3C212.1,120.2,214.2,122.5,214.2,124.8z"/>
					<path class="st3" d="M217.2,130.8c0-6.9,5.3-10.6,10.1-10.6v0.2c-2.4,0.3-3.1,2.3-3.1,10.2c0,5.9,2.6,9.2,6.3,9.2
						c2.3,0,4.1-0.7,6-2.2v0.2c-2.1,2.7-6,3.7-8.7,3.7C222.5,141.6,217.2,137.7,217.2,130.8z M226.5,129.1c3.6,0,5.1-1.1,5.1-4.6
						c0-2-0.8-3.8-2.7-4v-0.2c5.4,0,8,3.9,8,7c0,0.7-0.1,1.5-0.2,2.1h-10.3V129.1z"/>
				</g>
			</g>
		</g>
	</g>
</g>
</svg>
