<svg id="Layer_1" data-name="Layer 1" xmlns="http://www.w3.org/2000/svg" viewBox="0 0 320 480"><defs><style>.cls-1{fill:#74503e;}.cls-2{fill:#fff;}.cls-3{fill:none;}</style></defs><title>Artboard 1 copy 3</title><path class="cls-1" d="M30,164.19v51.39a18.31,18.31,0,0,0,9.89,16.27l77,40a22.92,22.92,0,0,0,21.1,0l77-40a18.31,18.31,0,0,0,9.89-16.27V164.19a8.56,8.56,0,0,0-8.56-8.56H38.56A8.56,8.56,0,0,0,30,164.19Z"/><path class="cls-2" d="M117.11,192.31l.35-.51c.26-.35.53-.36.92-.14a4,4,0,0,0,2.29.82c1,0,1.68-.52,1.68-1.28,0-2.14-5.25-1.7-5.25-5.2,0-2,1.65-3.27,3.79-3.27a5.3,5.3,0,0,1,2.9.85.63.63,0,0,1,.21.91l-.29.52c-.23.46-.57.4-.9.22a3.69,3.69,0,0,0-2-.61c-1,0-1.72.5-1.72,1.27,0,2.11,5.26,1.57,5.26,5.15,0,1.83-1.37,3.33-3.73,3.33a6,6,0,0,1-3.46-1.14A.6.6,0,0,1,117.11,192.31Z"/><path class="cls-2" d="M128.93,184.68h-3a.58.58,0,0,1-.66-.65v-.45a.59.59,0,0,1,.66-.66H134a.6.6,0,0,1,.66.66V184a.58.58,0,0,1-.66.65h-3v8.84a.58.58,0,0,1-.66.66h-.72a.58.58,0,0,1-.65-.66Z"/><path class="cls-2" d="M137.32,183.46a.72.72,0,0,1,.75-.54h1a.71.71,0,0,1,.75.54l3.52,10c.16.46,0,.76-.54.76h-.73a.7.7,0,0,1-.74-.54l-.8-2.35h-3.95l-.77,2.34a.71.71,0,0,1-.75.55h-.73c-.49,0-.7-.3-.54-.76Zm2.72,6.17-1-3c-.19-.63-.45-1.74-.45-1.74h0s-.25,1.11-.44,1.74l-1,3Z"/><path class="cls-2" d="M144.77,183.58a.59.59,0,0,1,.65-.66h3.05a5.07,5.07,0,0,1,2.14.3,3.14,3.14,0,0,1,1.89,3.08,3.27,3.27,0,0,1-1.87,3.08v0a3.93,3.93,0,0,1,.36.58l1.86,3.4c.27.46.06.79-.46.79h-.86a.81.81,0,0,1-.78-.46l-2-3.74h-2v3.54a.58.58,0,0,1-.65.66h-.73a.58.58,0,0,1-.65-.66Zm3.87,4.62a1.65,1.65,0,0,0,1.78-1.79,1.51,1.51,0,0,0-.89-1.54,2.77,2.77,0,0,0-1.22-.19H146.8v3.52Z"/><path class="cls-2" d="M117.86,197.35a.35.35,0,0,1,.38-.4h.33a.35.35,0,0,1,.38.4v10.36a.35.35,0,0,1-.38.39h-.33a.35.35,0,0,1-.38-.39Z"/><path class="cls-2" d="M121.59,200.52a.36.36,0,0,1,.4-.4h.29a.36.36,0,0,1,.38.4v.92a2.34,2.34,0,0,1-.07.57h0a3.51,3.51,0,0,1,3.22-2.08c2,0,2.68,1.13,2.68,3.1v4.68a.36.36,0,0,1-.4.39h-.3a.34.34,0,0,1-.38-.39v-4.4c0-1.25-.21-2.36-1.75-2.36a3.1,3.1,0,0,0-3,3.25v3.51a.34.34,0,0,1-.38.39H122a.36.36,0,0,1-.4-.39Z"/><path class="cls-2" d="M130.24,206.83l.13-.16c.14-.19.31-.2.54-.06a3.46,3.46,0,0,0,2.11.73c.89,0,1.62-.44,1.62-1.28,0-1.8-4.27-1.26-4.27-3.89,0-1.48,1.25-2.24,2.71-2.24a3.67,3.67,0,0,1,2.19.65.35.35,0,0,1,.11.53l-.11.17a.35.35,0,0,1-.54.11,3,3,0,0,0-1.71-.51c-.84,0-1.57.37-1.57,1.24,0,1.84,4.25,1.25,4.25,3.92,0,1.32-1.11,2.25-2.7,2.25a4.16,4.16,0,0,1-2.7-.92A.36.36,0,0,1,130.24,206.83Z"/><path class="cls-2" d="M137.3,200.52a.35.35,0,0,1,.38-.4h.3a.36.36,0,0,1,.4.4v4.39c0,1.26.19,2.37,1.73,2.37a3.1,3.1,0,0,0,2.95-3.33v-3.43a.36.36,0,0,1,.39-.4h.31a.35.35,0,0,1,.38.4v7.19a.35.35,0,0,1-.38.39h-.29a.35.35,0,0,1-.38-.39v-.93a3.38,3.38,0,0,1,0-.57h0a3.45,3.45,0,0,1-3.14,2.08c-1.88,0-2.66-1-2.66-3.09Z"/><path class="cls-2" d="M146.47,200.52a.36.36,0,0,1,.4-.4h.29a.36.36,0,0,1,.38.4v1.08a2.89,2.89,0,0,1-.07.63h0a2.87,2.87,0,0,1,2.58-2.16c.28,0,.41.13.41.39v.28a.4.4,0,0,1-.45.4c-1.68,0-2.49,1.92-2.49,3.58v3a.34.34,0,0,1-.38.39h-.3a.36.36,0,0,1-.4-.39Z"/><path class="cls-2" d="M156,203.22h.46V203c0-1.54-.84-2.06-2-2.06a3.76,3.76,0,0,0-1.93.55.37.37,0,0,1-.54-.12l-.1-.16a.37.37,0,0,1,.11-.54,5,5,0,0,1,2.54-.7c1.91,0,3,1.06,3,3.06v4.72a.35.35,0,0,1-.38.39h-.25a.35.35,0,0,1-.4-.39v-.64a3.24,3.24,0,0,1,0-.6h0a3,3,0,0,1-2.69,1.82,2.45,2.45,0,0,1-2.7-2.33C151.11,203.36,154.44,203.22,156,203.22Zm-2,4.17c1.54,0,2.44-1.59,2.44-3V204H156c-1.26,0-3.78,0-3.78,1.84A1.6,1.6,0,0,0,154,207.39Z"/><path class="cls-2" d="M159.78,200.52a.36.36,0,0,1,.4-.4h.28a.36.36,0,0,1,.39.4v.92a2.34,2.34,0,0,1-.07.57h0a3.54,3.54,0,0,1,3.22-2.08c2,0,2.69,1.13,2.69,3.1v4.68a.36.36,0,0,1-.4.39H166a.34.34,0,0,1-.38-.39v-4.4c0-1.25-.21-2.36-1.75-2.36a3.09,3.09,0,0,0-3,3.25v3.51a.35.35,0,0,1-.38.39h-.3a.36.36,0,0,1-.4-.39Z"/><path class="cls-2" d="M172.68,199.93a4.14,4.14,0,0,1,2.65.91.34.34,0,0,1,0,.54l-.11.17c-.14.22-.32.22-.54.08a3.3,3.3,0,0,0-2-.73,3.21,3.21,0,0,0,0,6.42,3.46,3.46,0,0,0,2.25-.84.32.32,0,0,1,.53.1l.11.16a.38.38,0,0,1-.1.54,4.44,4.44,0,0,1-2.84,1,4.18,4.18,0,1,1,0-8.36Z"/><path class="cls-2" d="M180.54,199.93c2.13,0,3.33,1.54,3.33,3.81a.4.4,0,0,1-.41.4h-5.74a3,3,0,0,0,3.09,3.18,3.37,3.37,0,0,0,2.09-.73c.23-.14.4-.11.53.1l.12.19a.36.36,0,0,1-.11.52,4.5,4.5,0,0,1-2.66.89,4,4,0,0,1-4.17-4.17A3.89,3.89,0,0,1,180.54,199.93Zm2.24,3.4a2.3,2.3,0,0,0-2.27-2.51,2.76,2.76,0,0,0-2.75,2.51Z"/><path class="cls-2" d="M117.61,212.49a.59.59,0,0,1,.65-.66h5.42a.6.6,0,0,1,.67.66v.45a.59.59,0,0,1-.67.65h-4v2.95h3.14a.58.58,0,0,1,.66.65v.44a.59.59,0,0,1-.66.67h-3.14v3h4.3a.59.59,0,0,1,.66.65v.45a.59.59,0,0,1-.66.66h-5.68a.58.58,0,0,1-.65-.66Z"/><path class="cls-2" d="M126.05,215.67a.59.59,0,0,1,.65-.67h.62a.59.59,0,0,1,.65.67v.49a2.7,2.7,0,0,1,0,.36h0a3.15,3.15,0,0,1,2.87-1.71c1.79,0,2.82.94,2.82,3.08v4.54a.58.58,0,0,1-.66.66h-.69a.59.59,0,0,1-.66-.66V218.3c0-1-.26-1.65-1.27-1.65a2.42,2.42,0,0,0-2.33,2.65v3.13a.58.58,0,0,1-.65.66h-.7a.58.58,0,0,1-.65-.66Z"/><path class="cls-2" d="M135.81,216.71h-.43a.58.58,0,0,1-.65-.66v-.27a.6.6,0,0,1,.67-.67h.46v-1.65a.6.6,0,0,1,.66-.66h.64a.59.59,0,0,1,.66.66v1.65H139a.61.61,0,0,1,.67.67v.27a.59.59,0,0,1-.66.66h-1.19v3.15a1.32,1.32,0,0,0,1.31,1.5c.49,0,.66.21.66.65v.5c0,.47-.27.66-.82.66a2.9,2.9,0,0,1-3.16-3Z"/><path class="cls-2" d="M141.09,212.49a.6.6,0,0,1,.67-.66h.68a.59.59,0,0,1,.67.66v3.27a4.27,4.27,0,0,1-.05.68h0a3.21,3.21,0,0,1,2.81-1.63c1.79,0,2.83.94,2.83,3.08v4.54a.59.59,0,0,1-.67.66h-.68a.59.59,0,0,1-.67-.66V218.3c0-1-.25-1.65-1.27-1.65a2.41,2.41,0,0,0-2.33,2.68v3.1a.59.59,0,0,1-.67.66h-.68a.59.59,0,0,1-.67-.66Z"/><path class="cls-2" d="M150.55,215.67a.6.6,0,0,1,.66-.67h.68a.6.6,0,0,1,.67.67v4.12c0,1,.25,1.65,1.25,1.65,1.46,0,2.27-1.28,2.27-2.73v-3a.6.6,0,0,1,.67-.67h.68a.61.61,0,0,1,.67.67v6.76a.59.59,0,0,1-.67.66h-.62a.58.58,0,0,1-.65-.66V222a2.33,2.33,0,0,1,0-.36h0a3.15,3.15,0,0,1-2.81,1.69c-1.73,0-2.8-.87-2.8-3.08Z"/><path class="cls-2" d="M159.73,221.55l.19-.28c.24-.34.51-.37.91-.16a3.58,3.58,0,0,0,1.81.55c.69,0,1.12-.31,1.12-.82,0-1.32-4-.83-4-3.6,0-1.59,1.4-2.43,3.09-2.43a4.51,4.51,0,0,1,2.26.59.6.6,0,0,1,.23.89l-.15.28a.6.6,0,0,1-.89.26,3.62,3.62,0,0,0-1.54-.4c-.7,0-1.1.28-1.1.79,0,1.33,4,.81,4,3.57,0,1.43-1.21,2.49-3.08,2.49a4.77,4.77,0,0,1-2.7-.82A.58.58,0,0,1,159.73,221.55Z"/><path class="cls-2" d="M167.17,213v-.48a.59.59,0,0,1,.65-.66h.7a.6.6,0,0,1,.67.66V213a.59.59,0,0,1-.67.65h-.7A.58.58,0,0,1,167.17,213Zm0,2.7a.59.59,0,0,1,.65-.67h.7a.59.59,0,0,1,.65.67v6.76a.58.58,0,0,1-.65.66h-.7a.58.58,0,0,1-.65-.66Z"/><path class="cls-2" d="M175.28,218.09h.33v-.19a1.31,1.31,0,0,0-1.5-1.42,3.65,3.65,0,0,0-1.69.46.59.59,0,0,1-.88-.27l-.16-.3a.59.59,0,0,1,.25-.89,5.71,5.71,0,0,1,2.65-.67,3,3,0,0,1,3.35,3.22v4.4a.59.59,0,0,1-.67.66h-.54a.58.58,0,0,1-.65-.66v-.32a1.72,1.72,0,0,1,0-.35h0a2.94,2.94,0,0,1-2.54,1.52,2.48,2.48,0,0,1-2.68-2.42C170.55,218.49,173.47,218.09,175.28,218.09Zm-1.51,3.65a2.05,2.05,0,0,0,1.86-2.12v-.3h-.33c-1,0-2.75.16-2.75,1.36A1.09,1.09,0,0,0,173.77,221.74Z"/><path class="cls-2" d="M179.15,221.55l.19-.28c.23-.34.5-.37.9-.16a3.58,3.58,0,0,0,1.81.55c.7,0,1.13-.31,1.13-.82,0-1.32-4-.83-4-3.6,0-1.59,1.4-2.43,3.09-2.43a4.51,4.51,0,0,1,2.26.59.61.61,0,0,1,.24.89l-.16.28c-.19.38-.49.43-.89.26a3.57,3.57,0,0,0-1.54-.4c-.7,0-1.09.28-1.09.79,0,1.33,4,.81,4,3.57,0,1.43-1.21,2.49-3.08,2.49a4.8,4.8,0,0,1-2.7-.82A.58.58,0,0,1,179.15,221.55Z"/><path class="cls-2" d="M187,216.71h-.43a.58.58,0,0,1-.65-.66v-.27a.59.59,0,0,1,.66-.67H187v-1.65a.6.6,0,0,1,.67-.66h.63a.6.6,0,0,1,.67.66v1.65h1.17a.61.61,0,0,1,.67.67v.27a.59.59,0,0,1-.65.66H189v3.15a1.32,1.32,0,0,0,1.3,1.5c.49,0,.67.21.67.65v.5c0,.47-.27.66-.83.66a2.89,2.89,0,0,1-3.15-3Z"/><path class="cls-2" d="M79.61,218a1.2,1.2,0,0,1-.52-.12,1.11,1.11,0,0,1-.55-1.34l11.74-36.15a2.48,2.48,0,0,1,2.39-1.73h0a2.46,2.46,0,0,1,2.38,1.73l2.38,7.16a.85.85,0,1,1-1.61.54L93.44,181a.78.78,0,0,0-.77-.56h0a.78.78,0,0,0-.77.56L81.28,213.63l15-20.47a4.68,4.68,0,0,1,3.76-1.91h10a2.51,2.51,0,0,1,1.48,4.54l-9.11,6.62-.1.09,3.52,10.82a2.51,2.51,0,0,1-3.86,2.81L94,210.4a2.51,2.51,0,0,1,0-4.05l6.61-4.79.1-.09,9.72-7.06A.81.81,0,0,0,110,193H100a3,3,0,0,0-2.39,1.21l-17.1,23.41A1.12,1.12,0,0,1,79.61,218Zm21.17-14.48L95,207.72a.79.79,0,0,0-.33.65A.81.81,0,0,0,95,209l7.88,5.72a.79.79,0,0,0,1,0,.78.78,0,0,0,.29-.9Z"/><path class="cls-2" d="M80.21,200.07a.82.82,0,0,1-.49-.16l-5.81-4.11a2.51,2.51,0,0,1,1.47-4.55H82.5a.85.85,0,1,1,0,1.7H75.38a.81.81,0,0,0-.48,1.46l5.81,4.11a.86.86,0,0,1,.2,1.19A.87.87,0,0,1,80.21,200.07Z"/><path class="cls-2" d="M88.13,230a2.81,2.81,0,0,1-1.37-.36l-14.85-8.43a.86.86,0,0,1-.43-.74V202.38a.85.85,0,0,1,1.7,0V220l14.42,8.18a1.09,1.09,0,0,0,1.09,0l10.54-6.6a.85.85,0,0,1,.9,1.44l-10.54,6.6A2.72,2.72,0,0,1,88.13,230Z"/><rect class="cls-3" width="320" height="480"/></svg>