<?xml version="1.0" encoding="utf-8"?>
<!-- Generator: Adobe Illustrator 24.0.3, SVG Export Plug-In . SVG Version: 6.00 Build 0)  -->
<svg version="1.1" id="Layer_1" xmlns="http://www.w3.org/2000/svg" xmlns:xlink="http://www.w3.org/1999/xlink" x="0px" y="0px"
	 viewBox="0 0 320 480" style="enable-background:new 0 0 320 480;" xml:space="preserve">
<style type="text/css">
	.st0{fill:none;}
	.st1{fill:#74503E;}
	.st2{fill:#FFFFFF;}
</style>
<title>Artboard 1 copy 3</title>
<rect x="0.6" y="0" class="st0" width="320" height="480"/>
<path class="st1" d="M22.5,178.2v51.4c0,6.8,3.8,13.1,9.9,16.3l77,40c6.6,3.4,14.5,3.4,21.1,0l77-40c6.1-3.1,9.9-9.4,9.9-16.3v-51.4
	c0-4.7-3.8-8.6-8.6-8.6H31C26.3,169.7,22.5,173.5,22.5,178.2C22.5,178.2,22.5,178.2,22.5,178.2z"/>
<path class="st2" d="M109.6,206.4l0.3-0.5c0.3-0.4,0.5-0.4,0.9-0.1c0.7,0.5,1.5,0.8,2.3,0.8c1,0,1.7-0.5,1.7-1.3
	c0-2.1-5.2-1.7-5.2-5.2c0-2,1.7-3.3,3.8-3.3c1,0,2,0.3,2.9,0.9c0.3,0.2,0.4,0.5,0.2,0.8c0,0,0,0,0,0.1l-0.3,0.5
	c-0.2,0.5-0.6,0.4-0.9,0.2c-0.6-0.4-1.3-0.6-2-0.6c-1,0-1.7,0.5-1.7,1.3c0,2.1,5.2,1.6,5.2,5.1c0,1.8-1.4,3.3-3.7,3.3
	c-1.2,0-2.5-0.4-3.5-1.1C109.4,207.1,109.3,206.7,109.6,206.4C109.5,206.4,109.6,206.4,109.6,206.4z"/>
<path class="st2" d="M121.4,198.7h-3c-0.3,0-0.6-0.2-0.7-0.5c0-0.1,0-0.1,0-0.2v-0.4c0-0.3,0.2-0.6,0.5-0.7c0.1,0,0.1,0,0.2,0h8.1
	c0.3,0,0.6,0.2,0.7,0.5c0,0,0,0.1,0,0.1v0.4c0,0.3-0.2,0.6-0.5,0.6c0,0-0.1,0-0.1,0h-3v8.8c0,0.3-0.2,0.6-0.5,0.7
	c-0.1,0-0.1,0-0.2,0h-0.7c-0.3,0-0.6-0.2-0.7-0.5c0-0.1,0-0.1,0-0.2L121.4,198.7z"/>
<path class="st2" d="M129.8,197.5c0.1-0.3,0.4-0.6,0.8-0.5h1c0.3,0,0.7,0.2,0.8,0.5l3.5,10c0.2,0.5-0.1,0.8-0.5,0.8h-0.7
	c-0.3,0-0.7-0.2-0.8-0.5l-0.8-2.4h-3.9l-0.8,2.3c-0.1,0.3-0.4,0.6-0.7,0.6h-0.7c-0.5,0-0.7-0.3-0.5-0.8L129.8,197.5z M132.5,203.7
	l-1-3c-0.2-0.6-0.4-1.8-0.4-1.8l0,0c0,0-0.3,1.1-0.4,1.8l-1,3H132.5z"/>
<path class="st2" d="M137.3,197.6c0-0.3,0.2-0.6,0.5-0.7c0,0,0.1,0,0.1,0h3.1c0.7,0,1.5,0.1,2.1,0.3c1.2,0.5,2,1.8,1.9,3.1
	c0,1.3-0.7,2.5-1.9,3.1l0,0c0.1,0.2,0.3,0.4,0.4,0.6l1.9,3.4c0.3,0.5,0.1,0.8-0.5,0.8H144c-0.3,0-0.6-0.2-0.8-0.5l-2-3.7h-2v3.5
	c0,0.3-0.2,0.6-0.5,0.7c-0.1,0-0.1,0-0.2,0h-0.7c-0.3,0-0.6-0.2-0.7-0.5c0-0.1,0-0.1,0-0.2L137.3,197.6z M141.1,202.3
	c0.9,0.1,1.7-0.6,1.8-1.5c0-0.1,0-0.2,0-0.3c0.1-0.7-0.3-1.3-0.9-1.5c-0.4-0.1-0.8-0.2-1.2-0.2h-1.5v3.5L141.1,202.3z"/>
<path class="st2" d="M110.3,211.4c0-0.2,0.1-0.4,0.3-0.4c0,0,0.1,0,0.1,0h0.3c0.2,0,0.4,0.1,0.4,0.3c0,0,0,0.1,0,0.1v10.4
	c0,0.2-0.1,0.4-0.3,0.4c0,0,0,0-0.1,0h-0.3c-0.2,0-0.4-0.1-0.4-0.3c0,0,0,0,0-0.1V211.4z"/>
<path class="st2" d="M114.1,214.6c0-0.2,0.1-0.4,0.3-0.4c0,0,0,0,0.1,0h0.3c0.2,0,0.4,0.1,0.4,0.3c0,0,0,0,0,0.1v0.9
	c0,0.2,0,0.4-0.1,0.6l0,0c0.6-1.3,1.8-2.1,3.2-2.1c2,0,2.7,1.1,2.7,3.1v4.7c0,0.2-0.1,0.4-0.3,0.4c0,0,0,0-0.1,0h-0.3
	c-0.2,0-0.4-0.1-0.4-0.3c0,0,0-0.1,0-0.1v-4.4c0-1.2-0.2-2.4-1.8-2.4c-1.7,0-3.1,1.5-3,3.2c0,0,0,0.1,0,0.1v3.5
	c0,0.2-0.1,0.4-0.3,0.4c0,0,0,0-0.1,0h-0.3c-0.2,0-0.4-0.1-0.4-0.3c0,0,0,0,0-0.1V214.6z"/>
<path class="st2" d="M122.7,220.9l0.1-0.2c0.1-0.2,0.3-0.2,0.5-0.1c0.6,0.5,1.3,0.7,2.1,0.7c0.9,0,1.6-0.4,1.6-1.3
	c0-1.8-4.3-1.3-4.3-3.9c0-1.5,1.2-2.2,2.7-2.2c0.8,0,1.5,0.2,2.2,0.6c0.2,0.1,0.2,0.3,0.1,0.5c0,0,0,0,0,0.1l-0.1,0.2
	c-0.1,0.2-0.3,0.2-0.5,0.2c0,0,0,0-0.1,0c-0.5-0.3-1.1-0.5-1.7-0.5c-0.8,0-1.6,0.4-1.6,1.2c0,1.8,4.2,1.3,4.2,3.9
	c0,1.3-1.1,2.2-2.7,2.2c-1,0-1.9-0.3-2.7-0.9C122.6,221.3,122.6,221.1,122.7,220.9C122.7,220.9,122.7,220.9,122.7,220.9z"/>
<path class="st2" d="M129.8,214.6c0-0.2,0.1-0.4,0.3-0.4c0,0,0.1,0,0.1,0h0.3c0.2,0,0.4,0.1,0.4,0.3c0,0,0,0,0,0.1v4.4
	c0,1.2,0.2,2.4,1.7,2.4c1.7-0.1,3.1-1.5,3-3.2c0,0,0-0.1,0-0.1v-3.4c0-0.2,0.1-0.4,0.3-0.4c0,0,0,0,0.1,0h0.3c0.2,0,0.4,0.1,0.4,0.3
	c0,0,0,0,0,0.1v7.2c0,0.2-0.1,0.4-0.3,0.4c0,0-0.1,0-0.1,0H136c-0.2,0-0.4-0.1-0.4-0.3c0,0,0-0.1,0-0.1v-0.9c0-0.2,0-0.4,0-0.6l0,0
	c-0.5,1.2-1.8,2.1-3.1,2.1c-1.9,0-2.7-1-2.7-3.1L129.8,214.6z"/>
<path class="st2" d="M139,214.6c0-0.2,0.1-0.4,0.3-0.4c0,0,0,0,0.1,0h0.3c0.2,0,0.4,0.1,0.4,0.3c0,0,0,0,0,0.1v1.1
	c0,0.2,0,0.4-0.1,0.6l0,0c0.3-1.2,1.3-2.1,2.6-2.1c0.3,0,0.4,0.1,0.4,0.4v0.3c0,0.3-0.2,0.4-0.4,0.4c-1.7,0-2.5,1.9-2.5,3.6v3
	c0,0.2-0.1,0.4-0.3,0.4c0,0,0,0-0.1,0h-0.3c-0.2,0-0.4-0.1-0.4-0.3c0,0,0,0,0-0.1L139,214.6z"/>
<path class="st2" d="M148.5,217.3h0.5V217c0.2-1-0.5-1.9-1.5-2.1c-0.2,0-0.3,0-0.5,0c-0.7,0-1.4,0.2-1.9,0.6
	c-0.2,0.1-0.4,0.1-0.5-0.1c0,0,0,0,0,0l-0.1-0.2c-0.1-0.2-0.1-0.4,0.1-0.5c0,0,0,0,0,0c0.8-0.4,1.6-0.7,2.5-0.7c1.9,0,3,1.1,3,3.1
	v4.7c0,0.2-0.1,0.4-0.3,0.4c0,0,0,0-0.1,0h-0.3c-0.2,0-0.4-0.1-0.4-0.3c0,0,0-0.1,0-0.1v-0.6c0-0.2,0-0.4,0.1-0.6l0,0
	c-0.5,1.1-1.5,1.8-2.7,1.8c-1.3,0.1-2.5-0.8-2.7-2.2c0,0,0-0.1,0-0.1C143.6,217.4,146.9,217.3,148.5,217.3z M146.5,221.4
	c1.5,0,2.4-1.6,2.4-3v-0.4h-0.4c-1.3,0-3.8,0-3.8,1.8c0,0.9,0.8,1.6,1.6,1.6C146.4,221.5,146.4,221.5,146.5,221.4L146.5,221.4z"/>
<path class="st2" d="M152.3,214.6c0-0.2,0.1-0.4,0.3-0.4c0,0,0.1,0,0.1,0h0.3c0.2,0,0.4,0.1,0.4,0.3c0,0,0,0,0,0.1v0.9
	c0,0.2,0,0.4-0.1,0.6l0,0c0.6-1.3,1.8-2.1,3.2-2.1c2,0,2.7,1.1,2.7,3.1v4.7c0,0.2-0.1,0.4-0.3,0.4c0,0-0.1,0-0.1,0h-0.3
	c-0.2,0-0.4-0.1-0.4-0.3c0,0,0-0.1,0-0.1v-4.4c0-1.2-0.2-2.4-1.8-2.4c-1.7,0-3.1,1.5-3,3.2c0,0,0,0.1,0,0.1v3.5
	c0,0.2-0.1,0.4-0.3,0.4c0,0,0,0-0.1,0h-0.3c-0.2,0-0.4-0.1-0.4-0.3c0,0,0,0,0-0.1L152.3,214.6z"/>
<path class="st2" d="M165.2,214c1,0,1.9,0.3,2.6,0.9c0.2,0.1,0.2,0.3,0.1,0.5c0,0,0,0.1-0.1,0.1l-0.1,0.2c-0.1,0.2-0.3,0.2-0.5,0.1
	c-0.6-0.5-1.3-0.7-2-0.7c-1.8,0.1-3.1,1.6-3,3.4c0.1,1.6,1.4,2.9,3,3c0.8,0,1.6-0.3,2.2-0.8c0.1-0.1,0.3-0.1,0.5,0
	c0,0,0.1,0.1,0.1,0.1l0.1,0.2c0.1,0.2,0.1,0.4-0.1,0.5c-0.8,0.7-1.8,1-2.8,1c-2.3,0-4.2-1.9-4.2-4.2C161,215.9,162.9,214,165.2,214
	L165.2,214z"/>
<path class="st2" d="M173,214c2.1,0,3.3,1.5,3.3,3.8c0,0.2-0.2,0.4-0.4,0.4c0,0,0,0,0,0h-5.7c-0.1,1.7,1.1,3.1,2.8,3.2
	c0.1,0,0.2,0,0.3,0c0.8,0,1.5-0.3,2.1-0.7c0.1-0.1,0.3-0.1,0.5,0c0,0,0,0.1,0.1,0.1l0.1,0.2c0.1,0.2,0.1,0.4-0.1,0.5c0,0,0,0,0,0
	c-0.8,0.6-1.7,0.9-2.7,0.9c-2.2,0.1-4.1-1.6-4.2-3.8c0-0.1,0-0.2,0-0.4c-0.2-2.1,1.5-4,3.6-4.2C172.8,214,172.9,214,173,214z
	 M175.2,217.4c0.1-1.3-0.8-2.4-2.1-2.5c-0.1,0-0.1,0-0.2,0c-1.4,0-2.6,1.1-2.8,2.5H175.2z"/>
<path class="st2" d="M110.1,226.6c0-0.3,0.2-0.6,0.5-0.7c0,0,0.1,0,0.1,0h5.4c0.3,0,0.6,0.2,0.7,0.5c0,0,0,0.1,0,0.1v0.4
	c0,0.3-0.2,0.6-0.5,0.7c0,0-0.1,0-0.1,0h-4v2.9h3.1c0.3,0,0.6,0.2,0.7,0.5c0,0,0,0.1,0,0.1v0.4c0,0.3-0.2,0.6-0.5,0.7
	c0,0-0.1,0-0.1,0h-3.1v3h4.3c0.3,0,0.6,0.2,0.7,0.5c0,0,0,0.1,0,0.1v0.4c0,0.3-0.2,0.6-0.5,0.7c-0.1,0-0.1,0-0.2,0h-5.7
	c-0.3,0-0.6-0.2-0.7-0.5c0-0.1,0-0.1,0-0.2L110.1,226.6z"/>
<path class="st2" d="M118.5,229.7c0-0.3,0.2-0.6,0.5-0.7c0,0,0.1,0,0.1,0h0.6c0.3,0,0.6,0.2,0.7,0.5c0,0,0,0.1,0,0.1v0.5
	c0,0.1,0,0.2,0,0.4l0,0c0.5-1.1,1.7-1.7,2.9-1.7c1.8,0,2.8,0.9,2.8,3.1v4.5c0,0.3-0.2,0.6-0.5,0.7c-0.1,0-0.1,0-0.2,0h-0.7
	c-0.3,0-0.6-0.2-0.7-0.5c0,0,0-0.1,0-0.1v-4.1c0-1-0.3-1.6-1.3-1.6c-1.3,0-2.4,1.2-2.3,2.5c0,0.1,0,0.1,0,0.2v3.1
	c0,0.3-0.2,0.6-0.5,0.7c-0.1,0-0.1,0-0.2,0h-0.7c-0.3,0-0.6-0.2-0.7-0.5c0-0.1,0-0.1,0-0.2V229.7z"/>
<path class="st2" d="M128.3,230.8h-0.4c-0.3,0-0.6-0.2-0.7-0.5c0-0.1,0-0.1,0-0.2v-0.3c0-0.3,0.2-0.6,0.5-0.7c0,0,0.1,0,0.1,0h0.5
	v-1.6c0-0.3,0.2-0.6,0.5-0.7c0,0,0.1,0,0.1,0h0.6c0.3,0,0.6,0.2,0.7,0.5c0,0,0,0.1,0,0.1v1.6h1.2c0.3,0,0.6,0.2,0.7,0.5
	c0,0,0,0.1,0,0.1v0.3c0,0.3-0.2,0.6-0.5,0.7c0,0-0.1,0-0.1,0h-1.2v3.1c-0.1,0.7,0.4,1.4,1.2,1.5c0,0,0.1,0,0.1,0
	c0.5,0,0.7,0.2,0.7,0.6v0.5c0,0.5-0.3,0.7-0.8,0.7c-1.6,0.2-3-1-3.1-2.6c0-0.1,0-0.3,0-0.4V230.8z"/>
<path class="st2" d="M133.6,226.6c0-0.3,0.2-0.6,0.5-0.7c0,0,0.1,0,0.1,0h0.7c0.3,0,0.6,0.2,0.7,0.5c0,0,0,0.1,0,0.1v3.3
	c0,0.2,0,0.5,0,0.7l0,0c0.6-1,1.6-1.6,2.8-1.6c1.8,0,2.8,0.9,2.8,3.1v4.5c0,0.3-0.2,0.6-0.5,0.7c0,0-0.1,0-0.1,0h-0.7
	c-0.3,0-0.6-0.2-0.7-0.5c0-0.1,0-0.1,0-0.2v-4.1c0-1-0.2-1.6-1.3-1.6c-1.3,0-2.4,1.2-2.3,2.5c0,0.1,0,0.1,0,0.2v3.1
	c0,0.3-0.2,0.6-0.5,0.7c-0.1,0-0.1,0-0.2,0h-0.7c-0.3,0-0.6-0.2-0.7-0.5c0-0.1,0-0.1,0-0.2L133.6,226.6z"/>
<path class="st2" d="M143,229.7c0-0.3,0.2-0.6,0.5-0.7c0,0,0.1,0,0.1,0h0.7c0.3,0,0.6,0.2,0.7,0.5c0,0,0,0.1,0,0.1v4.1
	c0,1,0.2,1.6,1.2,1.6c1.5,0,2.3-1.3,2.3-2.7v-3.1c0-0.3,0.2-0.6,0.5-0.7c0,0,0.1,0,0.1,0h0.7c0.3,0,0.6,0.2,0.7,0.5c0,0,0,0.1,0,0.1
	v6.8c0,0.3-0.2,0.6-0.5,0.7c-0.1,0-0.1,0-0.2,0h-0.6c-0.3,0-0.6-0.2-0.7-0.5c0-0.1,0-0.1,0-0.2V236c0-0.1,0-0.2,0-0.4l0,0
	c-0.5,1-1.6,1.7-2.8,1.7c-1.7,0-2.8-0.9-2.8-3.1V229.7z"/>
<path class="st2" d="M152.2,235.6l0.2-0.3c0.2-0.3,0.5-0.4,0.9-0.2c0.5,0.3,1.2,0.5,1.8,0.6c0.7,0,1.1-0.3,1.1-0.8
	c0-1.3-4-0.8-4-3.6c0-1.6,1.4-2.4,3.1-2.4c0.8,0,1.6,0.2,2.2,0.6c0.3,0.1,0.4,0.5,0.3,0.8c0,0,0,0.1-0.1,0.1l-0.2,0.3
	c-0.2,0.4-0.5,0.4-0.9,0.3c-0.5-0.2-1-0.4-1.5-0.4c-0.7,0-1.1,0.3-1.1,0.8c0,1.3,4,0.8,4,3.6c0,1.4-1.2,2.5-3.1,2.5
	c-1,0-1.9-0.3-2.7-0.8c-0.3-0.1-0.4-0.5-0.2-0.8C152.2,235.7,152.2,235.7,152.2,235.6z"/>
<path class="st2" d="M159.7,227v-0.5c0-0.3,0.2-0.6,0.5-0.7c0,0,0.1,0,0.1,0h0.7c0.3,0,0.6,0.2,0.7,0.5c0,0,0,0.1,0,0.1v0.5
	c0,0.3-0.2,0.6-0.5,0.7c-0.1,0-0.1,0-0.2,0h-0.7c-0.3,0-0.6-0.2-0.6-0.5C159.7,227.1,159.7,227,159.7,227z M159.7,229.7
	c0-0.3,0.2-0.6,0.5-0.7c0,0,0.1,0,0.1,0h0.7c0.3,0,0.6,0.2,0.7,0.5c0,0,0,0.1,0,0.1v6.8c0,0.3-0.2,0.6-0.5,0.7c-0.1,0-0.1,0-0.2,0
	h-0.7c-0.3,0-0.6-0.2-0.7-0.5c0-0.1,0-0.1,0-0.2V229.7z"/>
<path class="st2" d="M167.8,232.2h0.3V232c0.1-0.7-0.5-1.4-1.2-1.4c-0.1,0-0.2,0-0.3,0c-0.6,0-1.2,0.2-1.7,0.5
	c-0.3,0.2-0.6,0.1-0.8-0.2c0,0,0-0.1-0.1-0.1l-0.1-0.3c-0.2-0.3-0.1-0.6,0.1-0.8c0,0,0.1,0,0.1-0.1c0.8-0.4,1.7-0.7,2.6-0.7
	c1.6-0.2,3.1,1,3.3,2.6c0,0.2,0,0.4,0,0.6v4.4c0,0.3-0.2,0.6-0.5,0.7c-0.1,0-0.1,0-0.2,0h-0.5c-0.3,0-0.6-0.2-0.7-0.5
	c0-0.1,0-0.1,0-0.2v-0.3c0-0.1,0-0.2,0-0.4l0,0c-0.5,0.9-1.5,1.5-2.5,1.5c-1.4,0.1-2.6-0.9-2.7-2.3c0,0,0-0.1,0-0.1
	C163,232.6,166,232.2,167.8,232.2z M166.3,235.8c1.1-0.1,1.9-1,1.9-2.1v-0.3h-0.3c-1,0-2.7,0.2-2.7,1.4
	C165.1,235.3,165.6,235.8,166.3,235.8C166.2,235.8,166.2,235.8,166.3,235.8L166.3,235.8z"/>
<path class="st2" d="M171.6,235.6l0.2-0.3c0.2-0.3,0.5-0.4,0.9-0.2c0.5,0.3,1.2,0.5,1.8,0.6c0.7,0,1.1-0.3,1.1-0.8
	c0-1.3-4-0.8-4-3.6c0-1.6,1.4-2.4,3.1-2.4c0.8,0,1.6,0.2,2.3,0.6c0.3,0.1,0.4,0.5,0.3,0.8c0,0,0,0.1-0.1,0.1l-0.1,0.3
	c-0.2,0.4-0.5,0.4-0.9,0.3c-0.5-0.2-1-0.4-1.5-0.4c-0.7,0-1.1,0.3-1.1,0.8c0,1.3,4,0.8,4,3.6c0,1.4-1.2,2.5-3.1,2.5
	c-1,0-1.9-0.3-2.7-0.8c-0.3-0.1-0.4-0.5-0.2-0.8C171.6,235.7,171.6,235.7,171.6,235.6z"/>
<path class="st2" d="M179.4,230.8H179c-0.3,0-0.6-0.2-0.7-0.5c0-0.1,0-0.1,0-0.2v-0.3c0-0.3,0.2-0.6,0.5-0.7c0.1,0,0.1,0,0.2,0h0.5
	v-1.6c0-0.3,0.2-0.6,0.5-0.7c0,0,0.1,0,0.1,0h0.6c0.3,0,0.6,0.2,0.7,0.5c0,0,0,0.1,0,0.1v1.6h1.2c0.3,0,0.6,0.2,0.7,0.5
	c0,0,0,0.1,0,0.1v0.3c0,0.3-0.2,0.6-0.5,0.7c0,0-0.1,0-0.1,0h-1.2v3.1c-0.1,0.7,0.4,1.4,1.1,1.5c0.1,0,0.1,0,0.2,0
	c0.5,0,0.7,0.2,0.7,0.6v0.5c0,0.5-0.3,0.7-0.8,0.7c-1.6,0.2-3-1-3.1-2.6c0-0.1,0-0.3,0-0.4L179.4,230.8z"/>
<path class="st2" d="M72.1,232.1c-0.2,0-0.4,0-0.5-0.1c-0.5-0.2-0.7-0.8-0.6-1.3l11.7-36.1c0.3-1,1.3-1.7,2.4-1.7l0,0
	c1.1,0,2.1,0.7,2.4,1.7l2.4,7.2c0.1,0.5-0.2,0.9-0.6,1c-0.4,0.1-0.8-0.1-1-0.5l-2.4-7.2c-0.1-0.3-0.4-0.6-0.8-0.6l0,0
	c-0.4,0-0.7,0.2-0.8,0.6l-10.6,32.7l15-20.5c0.9-1.2,2.3-1.9,3.8-1.9h10c1.4,0,2.5,1.1,2.5,2.5c0,0.8-0.4,1.6-1,2.1l-9.1,6.6
	l-0.1,0.1l3.5,10.8c0.4,1.3-0.3,2.7-1.6,3.2c-0.8,0.2-1.6,0.1-2.2-0.4l-7.9-5.7c-1.1-0.8-1.4-2.4-0.5-3.5c0.2-0.2,0.3-0.4,0.5-0.5
	l6.6-4.8l0.1-0.1l9.7-7.1c0.3-0.2,0.4-0.6,0.3-0.9c-0.1-0.3-0.4-0.6-0.8-0.6h-10c-0.9,0-1.8,0.5-2.4,1.2L73,231.6
	C72.8,231.9,72.5,232.1,72.1,232.1z M93.3,217.6l-5.8,4.2c-0.2,0.2-0.3,0.4-0.3,0.7c0,0.3,0.1,0.5,0.3,0.6l7.9,5.7
	c0.3,0.2,0.7,0.2,1,0c0.3-0.2,0.4-0.6,0.3-0.9L93.3,217.6z"/>
<path class="st2" d="M72.7,214.1c-0.2,0-0.3-0.1-0.5-0.2l-5.8-4.1c-1.1-0.8-1.4-2.4-0.6-3.5c0.5-0.6,1.2-1,2-1H75
	c0.5,0,0.9,0.4,0.9,0.8c0,0.5-0.4,0.9-0.8,0.9c0,0,0,0,0,0h-7.1c-0.4,0-0.8,0.4-0.8,0.8c0,0.3,0.1,0.5,0.3,0.6l5.8,4.1
	c0.4,0.3,0.5,0.8,0.2,1.2c0,0,0,0,0,0C73.2,214,73,214.1,72.7,214.1z"/>
<path class="st2" d="M80.6,244.1c-0.5,0-1-0.1-1.4-0.4l-14.8-8.4c-0.3-0.1-0.4-0.4-0.4-0.7v-18.1c0-0.5,0.4-0.8,0.9-0.8
	c0.5,0,0.8,0.4,0.8,0.8v17.6l14.4,8.2c0.3,0.2,0.8,0.2,1.1,0l10.5-6.6c0.4-0.3,0.9-0.2,1.2,0.2c0.3,0.4,0.2,0.9-0.2,1.2
	c0,0,0,0-0.1,0l-10.5,6.6C81.6,244,81.1,244.1,80.6,244.1z"/>
<rect x="0.6" y="0" class="st0" width="320" height="480"/>
</svg>
