<svg id="Layer_1" data-name="Layer 1" xmlns="http://www.w3.org/2000/svg" xmlns:xlink="http://www.w3.org/1999/xlink" viewBox="0 0 320 50"><defs><style>.cls-1{fill:none;}.cls-2{clip-path:url(#clip-path);}.cls-3{fill:#ffac00;}.cls-4{clip-path:url(#clip-path-2);}.cls-5,.cls-7{fill:#263845;}.cls-6{clip-path:url(#clip-path-3);}.cls-14,.cls-7{font-size:19.11px;font-family:GabrielaStencil-Black, Gabriela Stencil;font-weight:800;}.cls-8{letter-spacing:-0.01em;}.cls-9{letter-spacing:0em;}.cls-10{letter-spacing:0em;}.cls-11{letter-spacing:-0.02em;}.cls-12{letter-spacing:-0.01em;}.cls-13{clip-path:url(#clip-path-4);}.cls-14{fill:#fff;}.cls-15{letter-spacing:-0.01em;}.cls-16{letter-spacing:-0.01em;}.cls-17{letter-spacing:-0.02em;}.cls-18{letter-spacing:0em;}</style><clipPath id="clip-path"><rect class="cls-1" x="-383.32" y="-0.86" width="320" height="50"/></clipPath><clipPath id="clip-path-2"><rect class="cls-1" x="-383.32" y="-58.86" width="320" height="50"/></clipPath><clipPath id="clip-path-3"><rect class="cls-1" y="-58.86" width="320" height="50"/></clipPath><clipPath id="clip-path-4"><rect class="cls-1" width="320" height="50"/></clipPath></defs><title>Artboard 2 copy</title><g class="cls-2"><polygon class="cls-3" points="-20.85 63.5 35.69 -45.48 -36.16 -45.48 -92.7 63.5 -20.85 63.5"/></g><g class="cls-4"><polygon class="cls-5" points="-20.85 5.5 35.69 -103.48 -36.16 -103.48 -92.7 5.5 -20.85 5.5"/></g><g class="cls-6"><text class="cls-7" transform="translate(7.95 -38.89)">P<tspan class="cls-8" x="12.75" y="0">r</tspan><tspan x="23.18" y="0">emium</tspan><tspan x="0" y="20.18">mo</tspan><tspan class="cls-9" x="31.25" y="20.18">t</tspan><tspan x="39.02" y="20.18">o</tspan><tspan class="cls-8" x="50.89" y="20.18">r</tspan><tspan class="cls-10" x="61.32" y="20.18">c</tspan><tspan class="cls-11" x="71.89" y="20.18">y</tspan><tspan x="82.48" y="20.18">cle insu</tspan><tspan class="cls-12" x="159.11" y="20.18">r</tspan><tspan x="169.53" y="20.18">ance </tspan></text></g><g class="cls-13"><text class="cls-14" transform="translate(7.95 19.97)">without the<tspan class="cls-15" x="0" y="20.18">e</tspan><tspan class="cls-16" x="10.55" y="20.18">x</tspan><tspan x="21.38" y="20.18">cessi</tspan><tspan class="cls-17" x="70.42" y="20.18">v</tspan><tspan x="81.01" y="20.18">e p</tspan><tspan class="cls-8" x="109.65" y="20.18">r</tspan><tspan class="cls-18" x="120.09" y="20.18">emiums</tspan></text></g></svg>