<?xml version="1.0" encoding="utf-8"?>
<!-- Generator: Adobe Illustrator 24.0.3, SVG Export Plug-In . SVG Version: 6.00 Build 0)  -->
<svg version="1.1" id="Layer_1" xmlns="http://www.w3.org/2000/svg" xmlns:xlink="http://www.w3.org/1999/xlink" x="0px" y="0px"
	 viewBox="0 0 320 50" style="enable-background:new 0 0 320 50;" xml:space="preserve">
<style type="text/css">
	.st0{clip-path:url(#SVGID_2_);}
	.st1{enable-background:new    ;}
	.st2{fill:#263845;}
</style>
<title>Artboard 2</title>
<g>
	<defs>
		<rect id="SVGID_1_" y="0.1" width="320" height="50"/>
	</defs>
	<clipPath id="SVGID_2_">
		<use xlink:href="#SVGID_1_"  style="overflow:visible;"/>
	</clipPath>
	<g class="st0">
		<g class="st1">
			<path class="st2" d="M8.8,20c1.1,0,1.4-0.5,1.4-1V8.2c0-0.5-0.3-1-1.4-1V7.1h4.7V19c0,0.5,0.3,1,1.4,1v0.1H8.8V20z M14.4,15
				c1.8,0,2.5-1.7,2.5-4c0-2.3-0.8-3.7-2.5-3.7V7.1c3.8,0,5.8,1,5.8,3.9c0,3-2.1,4.2-5.8,4.2V15z"/>
		</g>
		<g class="st1">
			<path class="st2" d="M25.7,19c0,0.5,0.3,1,1.4,1v0.1h-6V20c1.1,0,1.4-0.5,1.4-1v-6.8c0-0.7-0.3-1-1.4-1v-0.1
				c1.8,0,3.2-0.2,4.6-0.7V19z M30.9,12.4c0,1.3-0.9,2.2-2,2.2c-0.5,0-0.9-0.1-1.1-0.4c0.4-0.2,0.7-0.6,0.7-1.3c0-0.6-0.4-1-1.1-1
				c-0.5,0-0.9,0.3-1.1,0.7v-0.2c0.4-1.2,1.3-2.1,2.5-2.1C30.2,10.3,30.9,11.3,30.9,12.4z"/>
		</g>
		<g class="st1">
			<path class="st2" d="M31.9,15.3c0-3.2,2.4-4.9,4.7-4.9v0.1c-1.1,0.1-1.4,1.1-1.4,4.7c0,2.8,1.2,4.3,2.9,4.3c1.1,0,1.9-0.3,2.8-1
				v0.1c-1,1.3-2.8,1.7-4.1,1.7C34.4,20.3,31.9,18.5,31.9,15.3z M36.2,14.5c1.7,0,2.4-0.5,2.4-2.1c0-0.9-0.4-1.8-1.2-1.9v-0.1
				c2.5,0,3.7,1.8,3.7,3.2c0,0.3,0,0.7-0.1,1h-4.8V14.5z"/>
			<path class="st2" d="M46.9,19c0,0.5,0.3,1,1.4,1v0.1h-6V20c1.1,0,1.4-0.5,1.4-1v-6.8c0-0.7-0.3-1-1.4-1v-0.1
				c1.8,0,3.2-0.2,4.6-0.7V19z M53.3,13v6c0,0.5,0.3,1,1.4,1v0.1h-6V20c1.1,0,1.4-0.5,1.4-1v-6c0-1.1-0.4-1.6-1.3-1.6
				c-0.5,0-1,0.3-1.3,0.6v-0.1c0.4-0.8,1.4-1.5,2.8-1.5C52.1,10.3,53.3,11.1,53.3,13z M59.6,13v6c0,0.5,0.3,1,1.4,1v0.1h-6V20
				c1.1,0,1.4-0.5,1.4-1v-6c0-1.1-0.4-1.6-1.3-1.6c-0.5,0-1,0.3-1.3,0.6v-0.1c0.4-0.8,1.4-1.5,2.8-1.5C58.5,10.3,59.6,11.1,59.6,13z
				"/>
			<path class="st2" d="M61.8,11.1c1.8,0,3.2-0.2,4.6-0.7V19c0,0.5,0.3,1,1.4,1v0.1h-6V20c1.1,0,1.4-0.5,1.4-1v-6.8
				c0-0.7-0.3-1-1.4-1V11.1z M62.7,7.5c0-1,0.8-1.7,1.9-1.7c1.1,0,1.9,0.7,1.9,1.7c0,1-0.8,1.7-1.9,1.7C63.5,9.2,62.7,8.5,62.7,7.5z
				"/>
			<path class="st2" d="M72.9,17.6c0,1.1,0.4,1.6,1.3,1.6c0.5,0,0.9-0.2,1.3-0.6v0.1c-0.4,0.8-1.4,1.5-3,1.5c-1.7,0-2.8-0.8-2.8-2.7
				v-5.4c0-0.7-0.3-1-1.4-1v-0.1c1.8,0,3.2-0.2,4.6-0.7V17.6z M79.3,18.8c0,0.6,0.2,0.8,0.5,0.8c0.3,0,0.6-0.3,0.9-0.9h0.1
				c-0.3,1.1-1.3,1.5-2.6,1.5c-1.3,0-2.1-0.8-2.1-1.9v-6.2c0-0.7-0.3-1-1.4-1v-0.1c1.7,0,2.9-0.2,4.5-0.7V18.8z"/>
			<path class="st2" d="M86.2,19c0,0.5,0.3,1,1.4,1v0.1h-6V20c1.1,0,1.4-0.5,1.4-1v-6.8c0-0.7-0.3-1-1.4-1v-0.1
				c1.8,0,3.2-0.2,4.6-0.7V19z M92.5,13v6c0,0.5,0.3,1,1.4,1v0.1h-6V20c1.1,0,1.4-0.5,1.4-1v-6c0-1.1-0.4-1.6-1.3-1.6
				c-0.5,0-1,0.3-1.3,0.6v-0.1c0.4-0.8,1.4-1.5,2.8-1.5C91.4,10.3,92.5,11.1,92.5,13z M98.9,13v6c0,0.5,0.3,1,1.4,1v0.1h-6V20
				c1.1,0,1.4-0.5,1.4-1v-6c0-1.1-0.4-1.6-1.3-1.6c-0.5,0-1,0.3-1.3,0.6v-0.1c0.4-0.8,1.4-1.5,2.8-1.5C97.7,10.3,98.9,11.1,98.9,13z
				"/>
		</g>
		<g class="st1">
			<path class="st2" d="M13,39.2c0,0.5,0.3,1,1.4,1v0.1h-6v-0.1c1.1,0,1.4-0.5,1.4-1v-6.8c0-0.7-0.3-1-1.4-1v-0.1
				c1.8,0,3.2-0.2,4.6-0.7V39.2z M19.3,33.2v6c0,0.5,0.3,1,1.4,1v0.1h-6v-0.1c1.1,0,1.4-0.5,1.4-1v-6c0-1.1-0.4-1.6-1.3-1.6
				c-0.5,0-1,0.3-1.3,0.6V32c0.4-0.8,1.4-1.5,2.8-1.5C18.2,30.5,19.3,31.3,19.3,33.2z M25.7,33.2v6c0,0.5,0.3,1,1.4,1v0.1h-6v-0.1
				c1.1,0,1.4-0.5,1.4-1v-6c0-1.1-0.4-1.6-1.3-1.6c-0.5,0-1,0.3-1.3,0.6V32c0.4-0.8,1.4-1.5,2.8-1.5C24.5,30.5,25.7,31.3,25.7,33.2z
				"/>
			<path class="st2" d="M32.9,30.6c-1.1,0.1-1.5,1.1-1.5,4.8c0,3.6,0.4,4.8,1.5,4.9v0.1c-2.2,0-4.8-1.8-4.8-5c0-3.2,2.5-4.9,4.8-4.9
				V30.6z M38.4,35.4c0,3.2-2.5,5-4.7,5v-0.1c1.1-0.1,1.5-1.3,1.5-4.9c0-3.7-0.4-4.7-1.5-4.8v-0.1C35.9,30.5,38.4,32.2,38.4,35.4z"
				/>
		</g>
		<g class="st1">
			<path class="st2" d="M47.1,38.8v0.1c-0.6,0.9-1.8,1.5-3.3,1.5c-1.7,0-2.9-0.8-2.9-2.7v-6.3h-1l0.2-0.3h0.8v-2.1
				c1.2,0,2.3-0.4,3.1-1.1v3.1h2.6l-0.2,0.3H44v6.3c0,1,0.4,1.9,1.3,1.9C45.8,39.8,46.4,39.4,47.1,38.8z"/>
		</g>
		<g class="st1">
			<path class="st2" d="M52.5,30.6c-1.1,0.1-1.5,1.1-1.5,4.8c0,3.6,0.4,4.8,1.5,4.9v0.1c-2.2,0-4.8-1.8-4.8-5c0-3.2,2.5-4.9,4.8-4.9
				V30.6z M58,35.4c0,3.2-2.5,5-4.7,5v-0.1c1.1-0.1,1.5-1.3,1.5-4.9c0-3.7-0.4-4.7-1.5-4.8v-0.1C55.5,30.5,58,32.2,58,35.4z"/>
		</g>
		<g class="st1">
			<path class="st2" d="M63.9,39.2c0,0.5,0.3,1,1.4,1v0.1h-6v-0.1c1.1,0,1.4-0.5,1.4-1v-6.8c0-0.7-0.3-1-1.4-1v-0.1
				c1.8,0,3.2-0.2,4.6-0.7V39.2z M69,32.6c0,1.3-0.9,2.2-2,2.2c-0.5,0-0.9-0.1-1.1-0.4c0.4-0.2,0.7-0.6,0.7-1.3c0-0.6-0.4-1-1.1-1
				c-0.5,0-0.9,0.3-1.1,0.7v-0.2c0.4-1.2,1.3-2.1,2.5-2.1C68.3,30.5,69,31.4,69,32.6z"/>
		</g>
		<g class="st1">
			<path class="st2" d="M75,30.6c-1.1,0.1-1.6,1.1-1.6,4.7c0,2.8,1.4,4.3,3.1,4.3c1.1,0,1.9-0.3,2.8-1v0.1c-1,1.3-2.8,1.7-4,1.7
				c-2.4,0-5.1-1.8-5.1-5c0-3.2,2.7-4.9,4.9-4.9V30.6z M79.2,32.7c0,1-0.7,1.8-1.9,1.8c-0.9,0-1.5-0.6-1.7-1.2
				c0.5-0.2,0.9-0.9,0.9-1.4c0-0.4-0.1-1.1-0.8-1.3v-0.1C78.2,30.5,79.2,31.6,79.2,32.7z"/>
		</g>
		<g class="st1">
			<path class="st2" d="M80.8,31.5c-0.2-0.4-0.5-0.7-1.1-0.7v-0.1h5.3v0.1c-0.7,0-0.9,0.5-0.6,1.1l2.5,5.2l-1.6,3.1h-0.1L80.8,31.5z
				 M80,43.3c0-0.8,0.6-1.5,1.7-1.8c-0.1,0.2-0.1,0.3-0.1,0.5c0,0.7,0.4,1.3,1.1,1.3c0.7,0,1.2-0.7,1.9-1.9h0.1
				c-1.1,2-1.8,3.7-3.1,3.7C80.6,45,80,44.3,80,43.3z M87.8,35.3c0.3-0.6,0.5-1.4,0.5-2.5c0-1.1-0.6-2-1.9-2v-0.1h4.8v0.1
				c-0.6,0-0.9,0.2-1.2,0.9l-2,3.7L87.8,35.3z"/>
		</g>
		<g class="st1">
			<path class="st2" d="M96.1,30.6c-1.1,0.1-1.6,1.1-1.6,4.7c0,2.8,1.4,4.3,3.1,4.3c1.1,0,1.9-0.3,2.8-1v0.1c-1,1.3-2.8,1.7-4,1.7
				c-2.4,0-5.1-1.8-5.1-5c0-3.2,2.7-4.9,4.9-4.9V30.6z M100.4,32.7c0,1-0.7,1.8-1.9,1.8c-0.9,0-1.5-0.6-1.7-1.2
				c0.5-0.2,0.9-0.9,0.9-1.4c0-0.4-0.1-1.1-0.8-1.3v-0.1C99.4,30.5,100.4,31.6,100.4,32.7z"/>
			<path class="st2" d="M101.4,27c1.8,0,3.2-0.2,4.6-0.7v13c0,0.5,0.3,1,1.4,1v0.1h-6v-0.1c1.1,0,1.4-0.5,1.4-1V28.1
				c0-0.7-0.3-1-1.4-1V27z"/>
			<path class="st2" d="M108.5,35.4c0-3.2,2.4-4.9,4.7-4.9v0.1c-1.1,0.1-1.4,1.1-1.4,4.7c0,2.8,1.2,4.3,2.9,4.3c1.1,0,1.9-0.3,2.8-1
				v0.1c-1,1.3-2.8,1.7-4.1,1.7C111,40.5,108.5,38.7,108.5,35.4z M112.8,34.6c1.7,0,2.4-0.5,2.4-2.1c0-0.9-0.4-1.8-1.2-1.9v-0.1
				c2.5,0,3.7,1.8,3.7,3.2c0,0.3,0,0.7-0.1,1h-4.8V34.6z"/>
			<path class="st2" d="M123.8,31.2c1.8,0,3.2-0.2,4.6-0.7v8.7c0,0.5,0.3,1,1.4,1v0.1h-6v-0.1c1.1,0,1.4-0.5,1.4-1v-6.8
				c0-0.7-0.3-1-1.4-1V31.2z M124.8,27.7c0-1,0.8-1.7,1.9-1.7c1.1,0,1.9,0.7,1.9,1.7c0,1-0.8,1.7-1.9,1.7
				C125.6,29.3,124.8,28.7,124.8,27.7z"/>
			<path class="st2" d="M130.6,40.1c1.1,0,1.4-0.5,1.4-1v-6.8c0-0.7-0.3-1-1.4-1v-0.1c1.8,0,3.2-0.2,4.6-0.7v8.7c0,0.5,0.3,1,1.4,1
				v0.1h-6V40.1z M137.3,40.1c1.1,0,1.4-0.5,1.4-1v-6c0-1.1-0.6-1.6-1.5-1.6c-0.5,0-1,0.2-1.5,0.6v-0.1c0.5-0.8,1.8-1.5,3.2-1.5
				c1.7,0,2.9,0.8,2.9,2.7v6c0,0.5,0.3,1,1.4,1v0.1h-6V40.1z"/>
			<path class="st2" d="M147.7,38c-0.6,0-1.1,0.4-1.1,1c0,0.6,0.4,1.3,1.7,1.4v0.1c-2.5-0.1-3.9-0.8-3.9-1.9c0-0.9,0.8-1.4,1.6-1.4
				C146.8,37.1,147.4,37.5,147.7,38z M148.3,30.6c-0.7,0.1-1.4,0.5-1.4,1.3c0.1,2.2,6.2,2.6,6.2,5.6c0,1.9-1.6,2.8-4,2.9v-0.1
				c0.8-0.1,1.7-0.4,1.7-1.4c0-2-6.3-2.7-6.3-5.6c0-1.7,1.6-2.7,3.7-2.8V30.6z M152.8,32.5c0,0.6-0.5,1.2-1.4,1.2
				c-0.8,0-1.4-0.3-1.6-0.9c0.6,0,0.9-0.4,0.9-0.9c0-0.6-0.7-1.1-1.5-1.2v-0.1C151.3,30.6,152.8,31.4,152.8,32.5z"/>
			<path class="st2" d="M158.8,37.8c0,1.1,0.4,1.6,1.3,1.6c0.5,0,0.9-0.2,1.3-0.6v0.1c-0.4,0.8-1.4,1.5-3,1.5
				c-1.7,0-2.8-0.8-2.8-2.7v-5.4c0-0.7-0.3-1-1.4-1v-0.1c1.8,0,3.2-0.2,4.6-0.7V37.8z M165.2,39c0,0.6,0.2,0.8,0.5,0.8
				c0.3,0,0.6-0.3,0.9-0.9h0.1c-0.3,1.1-1.3,1.5-2.6,1.5c-1.3,0-2.1-0.8-2.1-1.9v-6.2c0-0.7-0.3-1-1.4-1v-0.1c1.7,0,2.9-0.2,4.5-0.7
				V39z"/>
		</g>
		<g class="st1">
			<path class="st2" d="M172.1,39.2c0,0.5,0.3,1,1.4,1v0.1h-6v-0.1c1.1,0,1.4-0.5,1.4-1v-6.8c0-0.7-0.3-1-1.4-1v-0.1
				c1.8,0,3.2-0.2,4.6-0.7V39.2z M177.3,32.6c0,1.3-0.9,2.2-2,2.2c-0.5,0-0.9-0.1-1.1-0.4c0.4-0.2,0.7-0.6,0.7-1.3
				c0-0.6-0.4-1-1.1-1c-0.5,0-0.9,0.3-1.1,0.7v-0.2c0.4-1.2,1.3-2.1,2.5-2.1C176.5,30.5,177.3,31.4,177.3,32.6z"/>
		</g>
		<g class="st1">
			<path class="st2" d="M178.1,38c0-1.7,1.5-2.6,3.7-2.6h2.1v0.1h-0.6c-1.4,0-2,0.9-2,2.1c0,1.1,0.3,1.9,1.2,1.9
				c0.5,0,1-0.3,1.4-0.7v0.1c-0.6,0.7-1.6,1.5-3,1.5C179.2,40.5,178.1,39.5,178.1,38z M178.9,32.6c0-1,0.9-2,3.5-2.1v0.1
				c-0.8,0.1-1.2,0.7-1.2,1.4c0,0.7,0.5,1.1,1.2,1.2c-0.3,0.5-1.1,0.9-1.8,0.9C179.5,34.1,178.9,33.4,178.9,32.6z M184.4,38.3v-5.8
				c0-0.9-0.4-1.7-1.3-1.8v-0.1c3.2,0.1,4.4,1.3,4.4,3.8V39c0,0.6,0.2,0.8,0.5,0.8c0.3,0,0.6-0.3,0.9-0.9h0.1
				c-0.3,1.1-1.3,1.5-2.5,1.5C185.1,40.5,184.4,39.9,184.4,38.3z"/>
			<path class="st2" d="M189.7,40.1c1.1,0,1.4-0.5,1.4-1v-6.8c0-0.7-0.3-1-1.4-1v-0.1c1.8,0,3.2-0.2,4.6-0.7v8.7c0,0.5,0.3,1,1.4,1
				v0.1h-6V40.1z M196.4,40.1c1.1,0,1.4-0.5,1.4-1v-6c0-1.1-0.6-1.6-1.5-1.6c-0.5,0-1,0.2-1.5,0.6v-0.1c0.5-0.8,1.8-1.5,3.2-1.5
				c1.7,0,2.9,0.8,2.9,2.7v6c0,0.5,0.3,1,1.4,1v0.1h-6V40.1z"/>
			<path class="st2" d="M208.3,30.6c-1.1,0.1-1.6,1.1-1.6,4.7c0,2.8,1.4,4.3,3.1,4.3c1.1,0,1.9-0.3,2.8-1v0.1c-1,1.3-2.8,1.7-4,1.7
				c-2.4,0-5.1-1.8-5.1-5c0-3.2,2.7-4.9,4.9-4.9V30.6z M212.6,32.7c0,1-0.7,1.8-1.9,1.8c-0.9,0-1.5-0.6-1.7-1.2
				c0.5-0.2,0.9-0.9,0.9-1.4c0-0.4-0.1-1.1-0.8-1.3v-0.1C211.6,30.5,212.6,31.6,212.6,32.7z"/>
			<path class="st2" d="M214,35.4c0-3.2,2.4-4.9,4.7-4.9v0.1c-1.1,0.1-1.4,1.1-1.4,4.7c0,2.8,1.2,4.3,2.9,4.3c1.1,0,1.9-0.3,2.8-1
				v0.1c-1,1.3-2.8,1.7-4,1.7C216.5,40.5,214,38.7,214,35.4z M218.3,34.6c1.7,0,2.4-0.5,2.4-2.1c0-0.9-0.4-1.8-1.2-1.9v-0.1
				c2.5,0,3.7,1.8,3.7,3.2c0,0.3,0,0.7-0.1,1h-4.8V34.6z"/>
		</g>
	</g>
</g>
</svg>
