<?xml version="1.0" encoding="utf-8"?>
<!-- Generator: Adobe Illustrator 24.0.3, SVG Export Plug-In . SVG Version: 6.00 Build 0)  -->
<svg version="1.1" id="Layer_1" xmlns="http://www.w3.org/2000/svg" xmlns:xlink="http://www.w3.org/1999/xlink" x="0px" y="0px"
	 viewBox="0 0 320 50" style="enable-background:new 0 0 320 50;" xml:space="preserve">
<style type="text/css">
	.st0{clip-path:url(#SVGID_2_);}
	.st1{enable-background:new    ;}
	.st2{fill:#FFFFFF;}
</style>
<title>Artboard 2 copy</title>
<g>
	<defs>
		<rect id="SVGID_1_" y="0" width="320" height="50"/>
	</defs>
	<clipPath id="SVGID_2_">
		<use xlink:href="#SVGID_1_"  style="overflow:visible;"/>
	</clipPath>
	<g class="st0">
		<g class="st1">
			<path class="st2" d="M12.5,11.7l2.5,5.2L13.4,20h-0.1l-4.4-8.8c-0.2-0.4-0.5-0.7-1.1-0.7v-0.1h5.3v0.1
				C12.5,10.5,12.2,11,12.5,11.7z M18.8,11.7l2.5,5.2L19.7,20h-0.1l-3-5.9L16,15.2L15.8,15c0.3-0.6,0.4-1.6,0.2-2.1l-0.9-1.7
				c-0.2-0.4-0.5-0.7-1.1-0.7v-0.1h5.3v0.1C18.8,10.5,18.5,11,18.8,11.7z M25.5,10.4v0.1c-0.6,0-0.9,0.2-1.2,0.9l-2,3.7L22.1,15
				c0.3-0.6,0.5-1.4,0.5-2.5c0-1.1-0.6-2-1.9-2v-0.1H25.5z"/>
			<path class="st2" d="M25.6,11c1.8,0,3.2-0.2,4.6-0.7v8.7c0,0.5,0.3,1,1.4,1V20h-6v-0.1c1.1,0,1.4-0.5,1.4-1v-6.8
				c0-0.7-0.3-1-1.4-1V11z M26.6,7.4c0-1,0.8-1.7,1.9-1.7c1.1,0,1.9,0.7,1.9,1.7c0,1-0.8,1.7-1.9,1.7C27.4,9,26.6,8.4,26.6,7.4z"/>
			<path class="st2" d="M39.9,18.5v0.1c-0.6,0.9-1.8,1.5-3.3,1.5c-1.7,0-2.9-0.8-2.9-2.7v-6.3h-1l0.2-0.3h0.8V8.9
				c1.2,0,2.3-0.4,3.1-1.1v3.1h2.6l-0.2,0.3h-2.4v6.3c0,1,0.4,1.9,1.3,1.9C38.6,19.5,39.2,19.1,39.9,18.5z"/>
			<path class="st2" d="M44.8,18.9c0,0.5,0.3,1,1.4,1V20h-6v-0.1c1.1,0,1.4-0.5,1.4-1V7.8c0-0.7-0.3-1-1.4-1V6.7
				c1.8,0,3.2-0.2,4.6-0.7V18.9z M51.5,12.9v6c0,0.5,0.3,1,1.4,1V20h-6v-0.1c1.1,0,1.4-0.5,1.4-1v-6c0-1.1-0.6-1.6-1.5-1.6
				c-0.5,0-1,0.2-1.5,0.6v-0.1c0.5-0.8,1.8-1.5,3.2-1.5C50.3,10.2,51.5,11,51.5,12.9z"/>
			<path class="st2" d="M58.7,10.3c-1.1,0.1-1.5,1.1-1.5,4.8c0,3.6,0.4,4.8,1.5,4.9v0.1c-2.2,0-4.8-1.8-4.8-5c0-3.2,2.5-4.9,4.8-4.9
				V10.3z M64.2,15.2c0,3.2-2.5,5-4.7,5V20c1.1-0.1,1.5-1.3,1.5-4.9c0-3.7-0.4-4.7-1.5-4.8v-0.1C61.7,10.2,64.2,11.9,64.2,15.2z"/>
			<path class="st2" d="M69.8,17.5c0,1.1,0.4,1.6,1.3,1.6c0.5,0,0.9-0.2,1.3-0.6v0.1c-0.4,0.8-1.4,1.5-3,1.5c-1.7,0-2.8-0.8-2.8-2.7
				v-5.4c0-0.7-0.3-1-1.4-1V11c1.8,0,3.2-0.2,4.6-0.7V17.5z M76.2,18.7c0,0.6,0.2,0.8,0.5,0.8c0.3,0,0.6-0.3,0.9-0.9h0.1
				c-0.3,1.1-1.3,1.5-2.6,1.5c-1.3,0-2.1-0.8-2.1-1.9v-6.2c0-0.7-0.3-1-1.4-1V11c1.7,0,2.9-0.2,4.5-0.7V18.7z"/>
			<path class="st2" d="M85.9,18.5v0.1c-0.6,0.9-1.8,1.5-3.3,1.5c-1.7,0-2.9-0.8-2.9-2.7v-6.3h-1l0.2-0.3h0.8V8.9
				c1.2,0,2.3-0.4,3.1-1.1v3.1h2.6l-0.2,0.3h-2.4v6.3c0,1,0.4,1.9,1.3,1.9C84.7,19.5,85.3,19.1,85.9,18.5z"/>
			<path class="st2" d="M98.7,18.5v0.1c-0.6,0.9-1.8,1.5-3.3,1.5c-1.7,0-2.9-0.8-2.9-2.7v-6.3h-1l0.2-0.3h0.8V8.9
				c1.2,0,2.3-0.4,3.1-1.1v3.1h2.6L98,11.2h-2.4v6.3c0,1,0.4,1.9,1.3,1.9C97.4,19.5,98,19.1,98.7,18.5z"/>
			<path class="st2" d="M103.6,18.9c0,0.5,0.3,1,1.4,1V20h-6v-0.1c1.1,0,1.4-0.5,1.4-1V7.8c0-0.7-0.3-1-1.4-1V6.7
				c1.8,0,3.2-0.2,4.6-0.7V18.9z M110.3,12.9v6c0,0.5,0.3,1,1.4,1V20h-6v-0.1c1.1,0,1.4-0.5,1.4-1v-6c0-1.1-0.6-1.6-1.5-1.6
				c-0.5,0-1,0.2-1.5,0.6v-0.1c0.5-0.8,1.8-1.5,3.2-1.5C109.1,10.2,110.3,11,110.3,12.9z"/>
			<path class="st2" d="M112.7,15.2c0-3.2,2.4-4.9,4.7-4.9v0.1c-1.1,0.1-1.4,1.1-1.4,4.7c0,2.8,1.2,4.3,2.9,4.3c1.1,0,1.9-0.3,2.8-1
				v0.1c-1,1.3-2.8,1.7-4.1,1.7C115.2,20.2,112.7,18.4,112.7,15.2z M117,14.4c1.7,0,2.4-0.5,2.4-2.1c0-0.9-0.4-1.8-1.2-1.9v-0.1
				c2.5,0,3.7,1.8,3.7,3.2c0,0.3,0,0.7-0.1,1H117V14.4z"/>
		</g>
		<g class="st1">
			<path class="st2" d="M8.8,35.3c0-3.2,2.4-4.9,4.7-4.9v0.1c-1.1,0.1-1.4,1.1-1.4,4.7c0,2.8,1.2,4.3,2.9,4.3c1.1,0,1.9-0.3,2.8-1
				v0.1c-1,1.3-2.8,1.7-4.1,1.7C11.2,40.3,8.8,38.5,8.8,35.3z M13.1,34.5c1.7,0,2.4-0.5,2.4-2.1c0-0.9-0.4-1.8-1.2-1.9v-0.1
				c2.5,0,3.7,1.8,3.7,3.2c0,0.3,0,0.7-0.1,1h-4.8V34.5z"/>
		</g>
		<g class="st1">
			<path class="st2" d="M18.3,40c0.7,0,1.5-0.4,2-1.3l1.7-2.6l0.1,0.2c-0.3,0.5-0.6,1.2-0.6,2c0,0.9,0.6,1.6,1.4,1.6v0.1h-4.6V40z
				 M23.8,40c0.8,0,1.1-0.2,1.1-0.7c0-0.3-0.2-0.6-0.4-1l-4.5-7c-0.2-0.4-0.6-0.7-1.5-0.7v-0.1h5.8v0.1c-0.6,0-0.9,0.1-0.9,0.4
				c0,0.3,0.2,0.7,0.6,1.2l4.5,7c0.2,0.4,0.6,0.7,1.1,0.7v0.1h-5.8V40z M26.4,34.2c0.3-0.6,0.4-1.2,0.4-1.9c0-0.9-0.6-1.6-1.5-1.6
				v-0.1h4.1v0.1c-0.5,0-1,0.4-1.4,1.1l-1.5,2.6L26.4,34.2z"/>
		</g>
		<g class="st1">
			<path class="st2" d="M35,30.5c-1.1,0.1-1.6,1.1-1.6,4.7c0,2.8,1.4,4.3,3.1,4.3c1.1,0,1.9-0.3,2.8-1v0.1c-1,1.3-2.8,1.7-4,1.7
				c-2.4,0-5.1-1.8-5.1-5c0-3.2,2.7-4.9,4.9-4.9V30.5z M39.3,32.6c0,1-0.7,1.8-1.9,1.8c-0.9,0-1.5-0.6-1.7-1.2
				c0.5-0.2,0.9-0.9,0.9-1.4c0-0.4-0.1-1.1-0.8-1.3v-0.1C38.3,30.4,39.3,31.5,39.3,32.6z"/>
			<path class="st2" d="M40.7,35.3c0-3.2,2.4-4.9,4.7-4.9v0.1c-1.1,0.1-1.4,1.1-1.4,4.7c0,2.8,1.2,4.3,2.9,4.3c1.1,0,1.9-0.3,2.8-1
				v0.1c-1,1.3-2.8,1.7-4.1,1.7C43.2,40.3,40.7,38.5,40.7,35.3z M45,34.5c1.7,0,2.4-0.5,2.4-2.1c0-0.9-0.4-1.8-1.2-1.9v-0.1
				c2.5,0,3.7,1.8,3.7,3.2c0,0.3,0,0.7-0.1,1H45V34.5z"/>
			<path class="st2" d="M54.8,37.9c-0.6,0-1.1,0.4-1.1,1c0,0.6,0.4,1.3,1.7,1.4v0.1c-2.5-0.1-3.9-0.8-3.9-1.9c0-0.9,0.8-1.4,1.6-1.4
				C53.9,37,54.5,37.4,54.8,37.9z M55.4,30.5C54.7,30.7,54,31,54,31.8c0.1,2.2,6.2,2.6,6.2,5.6c0,1.9-1.6,2.8-4,2.9v-0.1
				c0.8-0.1,1.7-0.4,1.7-1.4c0-2-6.3-2.7-6.3-5.6c0-1.7,1.6-2.7,3.7-2.8V30.5z M59.9,32.4c0,0.6-0.5,1.2-1.4,1.2
				c-0.8,0-1.4-0.3-1.6-0.9c0.6,0,0.9-0.4,0.9-0.9c0-0.6-0.7-1.1-1.5-1.2v-0.1C58.4,30.5,59.9,31.3,59.9,32.4z"/>
			<path class="st2" d="M65.2,37.9c-0.6,0-1.1,0.4-1.1,1c0,0.6,0.4,1.3,1.7,1.4v0.1c-2.5-0.1-3.9-0.8-3.9-1.9c0-0.9,0.8-1.4,1.6-1.4
				C64.3,37,64.9,37.4,65.2,37.9z M65.8,30.5c-0.7,0.1-1.4,0.5-1.4,1.3c0.1,2.2,6.2,2.6,6.2,5.6c0,1.9-1.6,2.8-4,2.9v-0.1
				c0.8-0.1,1.7-0.4,1.7-1.4c0-2-6.3-2.7-6.3-5.6c0-1.7,1.6-2.7,3.7-2.8V30.5z M70.4,32.4c0,0.6-0.5,1.2-1.4,1.2
				c-0.8,0-1.4-0.3-1.6-0.9c0.6,0,0.9-0.4,0.9-0.9c0-0.6-0.7-1.1-1.5-1.2v-0.1C68.8,30.5,70.4,31.3,70.4,32.4z"/>
			<path class="st2" d="M72,31.1c1.8,0,3.2-0.2,4.6-0.7v8.7c0,0.5,0.3,1,1.4,1v0.1h-6V40c1.1,0,1.4-0.5,1.4-1v-6.8
				c0-0.7-0.3-1-1.4-1V31.1z M73,27.5c0-1,0.8-1.7,1.9-1.7c1.1,0,1.9,0.7,1.9,1.7c0,1-0.8,1.7-1.9,1.7C73.8,29.2,73,28.6,73,27.5z"
				/>
		</g>
		<g class="st1">
			<path class="st2" d="M79.3,31.4c-0.2-0.4-0.5-0.7-1.1-0.7v-0.1h5.3v0.1c-0.7,0-0.9,0.5-0.6,1.1l2.5,5.2l-1.6,3.1h-0.1L79.3,31.4z
				 M86.3,35.2c0.3-0.6,0.5-1.4,0.5-2.5c0-1.1-0.6-2-1.9-2v-0.1h4.8v0.1c-0.6,0-0.9,0.2-1.2,0.9l-2,3.7L86.3,35.2z"/>
		</g>
		<g class="st1">
			<path class="st2" d="M89.8,35.3c0-3.2,2.4-4.9,4.7-4.9v0.1c-1.1,0.1-1.4,1.1-1.4,4.7c0,2.8,1.2,4.3,2.9,4.3c1.1,0,1.9-0.3,2.8-1
				v0.1c-1,1.3-2.8,1.7-4.1,1.7C92.2,40.3,89.8,38.5,89.8,35.3z M94.1,34.5c1.7,0,2.4-0.5,2.4-2.1c0-0.9-0.4-1.8-1.2-1.9v-0.1
				c2.5,0,3.7,1.8,3.7,3.2c0,0.3,0,0.7-0.1,1h-4.8V34.5z"/>
			<path class="st2" d="M109.4,43.1c0,0.7,0.3,1,1.4,1v0.1c-1.8,0-3,0.2-4.6,0.7V32.3c0-0.7-0.3-1-1.4-1v-0.1c1.8,0,3-0.2,4.6-0.7
				V43.1z M116.7,35.3c0,4-2.1,5.1-3.9,5.1c-1.1,0-2.3-0.7-2.8-1.5v-0.1c0.5,0.4,1,0.7,1.6,0.7c0.9,0,1.9-0.6,1.9-4.1
				c0-3.5-0.9-3.9-1.9-3.9c-0.6,0-1.2,0.2-1.6,0.7v-0.2c0.5-0.8,1.7-1.5,2.8-1.5C114.7,30.4,116.7,31.5,116.7,35.3z"/>
		</g>
		<g class="st1">
			<path class="st2" d="M122.6,39.1c0,0.5,0.3,1,1.4,1v0.1h-6V40c1.1,0,1.4-0.5,1.4-1v-6.8c0-0.7-0.3-1-1.4-1v-0.1
				c1.8,0,3.2-0.2,4.6-0.7V39.1z M127.8,32.5c0,1.3-0.9,2.2-2,2.2c-0.5,0-0.9-0.1-1.1-0.4c0.4-0.2,0.7-0.6,0.7-1.3
				c0-0.6-0.4-1-1.1-1c-0.5,0-0.9,0.3-1.1,0.7v-0.2c0.4-1.2,1.3-2.1,2.5-2.1C127.1,30.4,127.8,31.3,127.8,32.5z"/>
		</g>
		<g class="st1">
			<path class="st2" d="M128.8,35.3c0-3.2,2.4-4.9,4.7-4.9v0.1c-1.1,0.1-1.4,1.1-1.4,4.7c0,2.8,1.2,4.3,2.9,4.3c1.1,0,1.9-0.3,2.8-1
				v0.1c-1,1.3-2.8,1.7-4.1,1.7C131.3,40.3,128.8,38.5,128.8,35.3z M133.1,34.5c1.7,0,2.4-0.5,2.4-2.1c0-0.9-0.4-1.8-1.2-1.9v-0.1
				c2.5,0,3.7,1.8,3.7,3.2c0,0.3,0,0.7-0.1,1h-4.8V34.5z"/>
			<path class="st2" d="M143.8,39.1c0,0.5,0.3,1,1.4,1v0.1h-6V40c1.1,0,1.4-0.5,1.4-1v-6.8c0-0.7-0.3-1-1.4-1v-0.1
				c1.8,0,3.2-0.2,4.6-0.7V39.1z M150.2,33.1v6c0,0.5,0.3,1,1.4,1v0.1h-6V40c1.1,0,1.4-0.5,1.4-1v-6c0-1.1-0.4-1.6-1.3-1.6
				c-0.5,0-1,0.3-1.3,0.6v-0.1c0.4-0.8,1.4-1.5,2.8-1.5C149,30.4,150.2,31.2,150.2,33.1z M156.5,33.1v6c0,0.5,0.3,1,1.4,1v0.1h-6V40
				c1.1,0,1.4-0.5,1.4-1v-6c0-1.1-0.4-1.6-1.3-1.6c-0.5,0-1,0.3-1.3,0.6v-0.1c0.4-0.8,1.4-1.5,2.8-1.5
				C155.4,30.4,156.5,31.2,156.5,33.1z"/>
			<path class="st2" d="M158.7,31.1c1.8,0,3.2-0.2,4.6-0.7v8.7c0,0.5,0.3,1,1.4,1v0.1h-6V40c1.1,0,1.4-0.5,1.4-1v-6.8
				c0-0.7-0.3-1-1.4-1V31.1z M159.6,27.5c0-1,0.8-1.7,1.9-1.7c1.1,0,1.9,0.7,1.9,1.7c0,1-0.8,1.7-1.9,1.7
				C160.4,29.2,159.6,28.6,159.6,27.5z"/>
			<path class="st2" d="M169.9,37.6c0,1.1,0.4,1.6,1.3,1.6c0.5,0,0.9-0.2,1.3-0.6v0.1c-0.4,0.8-1.4,1.5-3,1.5
				c-1.7,0-2.8-0.8-2.8-2.7v-5.4c0-0.7-0.3-1-1.4-1v-0.1c1.8,0,3.2-0.2,4.6-0.7V37.6z M176.2,38.9c0,0.6,0.2,0.8,0.5,0.8
				c0.3,0,0.6-0.3,0.9-0.9h0.1c-0.3,1.1-1.3,1.5-2.6,1.5c-1.3,0-2.1-0.8-2.1-1.9v-6.2c0-0.7-0.3-1-1.4-1v-0.1c1.7,0,2.9-0.2,4.5-0.7
				V38.9z"/>
			<path class="st2" d="M183.1,39.1c0,0.5,0.3,1,1.4,1v0.1h-6V40c1.1,0,1.4-0.5,1.4-1v-6.8c0-0.7-0.3-1-1.4-1v-0.1
				c1.8,0,3.2-0.2,4.6-0.7V39.1z M189.5,33.1v6c0,0.5,0.3,1,1.4,1v0.1h-6V40c1.1,0,1.4-0.5,1.4-1v-6c0-1.1-0.4-1.6-1.3-1.6
				c-0.5,0-1,0.3-1.3,0.6v-0.1c0.4-0.8,1.4-1.5,2.8-1.5C188.3,30.4,189.5,31.2,189.5,33.1z M195.8,33.1v6c0,0.5,0.3,1,1.4,1v0.1h-6
				V40c1.1,0,1.4-0.5,1.4-1v-6c0-1.1-0.4-1.6-1.3-1.6c-0.5,0-1,0.3-1.3,0.6v-0.1c0.4-0.8,1.4-1.5,2.8-1.5
				C194.6,30.4,195.8,31.2,195.8,33.1z"/>
			<path class="st2" d="M201.6,37.9c-0.6,0-1.1,0.4-1.1,1c0,0.6,0.4,1.3,1.7,1.4v0.1c-2.5-0.1-3.9-0.8-3.9-1.9
				c0-0.9,0.8-1.4,1.6-1.4C200.7,37,201.3,37.4,201.6,37.9z M202.2,30.5c-0.7,0.1-1.4,0.5-1.4,1.3c0.1,2.2,6.2,2.6,6.2,5.6
				c0,1.9-1.6,2.8-4,2.9v-0.1c0.8-0.1,1.7-0.4,1.7-1.4c0-2-6.3-2.7-6.3-5.6c0-1.7,1.6-2.7,3.7-2.8V30.5z M206.7,32.4
				c0,0.6-0.5,1.2-1.4,1.2c-0.8,0-1.4-0.3-1.6-0.9c0.6,0,0.9-0.4,0.9-0.9c0-0.6-0.7-1.1-1.5-1.2v-0.1
				C205.2,30.5,206.7,31.3,206.7,32.4z"/>
		</g>
	</g>
</g>
</svg>
