<svg id="Layer_1" data-name="Layer 1" xmlns="http://www.w3.org/2000/svg" xmlns:xlink="http://www.w3.org/1999/xlink" viewBox="0 0 320 50"><defs><style>.cls-1{fill:none;}.cls-2{clip-path:url(#clip-path);}.cls-3{fill:#fff;}</style><clipPath id="clip-path"><rect class="cls-1" width="320" height="50"/></clipPath></defs><title>Artboard 2 copy 2</title><g class="cls-2"><path class="cls-3" d="M8.64,20.14c1,0,1.2-.36,1.2-.81V10.27c0-.45-.24-.82-1.2-.82V9.36h3.92v10c0,.45.24.81,1.2.81v.1H8.64ZM13.36,9.45V9.36h4.4v3.2h-.13C16.89,10.28,15.79,9.61,13.36,9.45Zm.88,5.44-.88-.08v-.09l.88-.08a2.48,2.48,0,0,0,2.11-1.38h.13v3h-.13A2.44,2.44,0,0,0,14.24,14.89Z"/><path class="cls-3" d="M22.41,19.33c0,.4.24.81,1.2.81v.1h-5v-.1c1,0,1.2-.41,1.2-.81V13.65c0-.58-.27-.85-1.18-.85v-.1a9.82,9.82,0,0,0,3.82-.62Zm4.33-5.52a1.71,1.71,0,0,1-1.65,1.82,1.12,1.12,0,0,1-.92-.35,1.17,1.17,0,0,0,.63-1.09.85.85,0,0,0-.9-.86,1.12,1.12,0,0,0-1,.6v-.12A2.22,2.22,0,0,1,25,12.08,1.63,1.63,0,0,1,26.74,13.81Z"/><path class="cls-3" d="M31.58,12.17c-.94.11-1.26.91-1.26,4s.32,4,1.26,4.09v.1a4.08,4.08,0,0,1-4-4.19,4,4,0,0,1,4-4.13Zm4.61,4a4.08,4.08,0,0,1-4,4.19v-.1c1-.09,1.25-1.1,1.25-4.09,0-3.14-.32-3.94-1.25-4v-.09A4,4,0,0,1,36.19,16.21Z"/><path class="cls-3" d="M41.08,19.33c0,.4.25.81,1.21.81v.1h-5v-.1c1,0,1.2-.41,1.2-.81V13.65c0-.58-.27-.85-1.18-.85v-.1a9.82,9.82,0,0,0,3.82-.62Zm5.32-5v5c0,.4.22.81,1.18.81v.1h-5v-.1c.94,0,1.2-.41,1.2-.81v-5c0-.89-.35-1.36-1.12-1.36a1.44,1.44,0,0,0-1.06.48v-.09a2.6,2.6,0,0,1,2.34-1.28C45.44,12.08,46.4,12.75,46.4,14.33Zm5.3,0v5c0,.4.24.81,1.2.81v.1h-5v-.1c.94,0,1.2-.41,1.2-.81v-5c0-.89-.36-1.36-1.12-1.36a1.44,1.44,0,0,0-1.06.48v-.09a2.6,2.6,0,0,1,2.34-1.28C50.74,12.08,51.7,12.75,51.7,14.33Z"/><path class="cls-3" d="M59.24,11.88l.13.2.13,6.72a1.4,1.4,0,0,0,1.57,1.34v.1H57.55v-.1a1.41,1.41,0,0,0,1.57-1.34Zm8.49,8.36H66l-6.69-10a1.74,1.74,0,0,0-1.7-.82V9.36h4.28l5.89,8.82Zm0-3.68-.12-.18-.19-5.58a1.41,1.41,0,0,0-1.57-1.35V9.36h3.52v.09a1.4,1.4,0,0,0-1.57,1.35Z"/><path class="cls-3" d="M76.48,9.36h3L73.18,20.24h-3Zm-5.88,0h4.84l0,.09a4.94,4.94,0,0,0-4.66,3.76H70.6Zm3.67,10.78a5.45,5.45,0,0,0,5-4.27h.13v4.37H74.22Z"/><path class="cls-3" d="M84,9.87c0,.93-1,2.16-2.6,2.82l-.05-.15A2.23,2.23,0,0,0,82.27,11a1,1,0,0,0-1.09-1.06A1.48,1.48,0,0,1,82.7,8.48,1.29,1.29,0,0,1,84,9.87Z"/><path class="cls-3" d="M87.28,18.34a.82.82,0,0,0-.9.8c0,.46.32,1.05,1.42,1.16v.1c-2.13-.08-3.29-.66-3.29-1.58a1.25,1.25,0,0,1,1.36-1.19A1.64,1.64,0,0,1,87.28,18.34Zm.52-6.17c-.59.11-1.16.42-1.15,1.07,0,1.86,5.24,2.17,5.24,4.71,0,1.55-1.32,2.37-3.38,2.45v-.1c.67-.11,1.42-.35,1.42-1.18,0-1.67-5.25-2.27-5.25-4.71,0-1.41,1.33-2.25,3.12-2.33Zm3.78,1.56a1,1,0,0,1-1.18,1A1.36,1.36,0,0,1,89,14a.71.71,0,0,0,.72-.75c0-.48-.61-.95-1.25-1v-.09C90.32,12.17,91.58,12.83,91.58,13.73Z"/><path class="cls-3" d="M96.92,9.1a9.91,9.91,0,0,0,3.83-.62V19.33c0,.4.24.81,1.2.81v.1h-5v-.1c1,0,1.2-.41,1.2-.81V10c0-.57-.28-.84-1.19-.84Z"/><path class="cls-3" d="M102.91,16.21a4,4,0,0,1,3.92-4.13v.09c-1,.11-1.2.91-1.2,4,0,2.31,1,3.57,2.45,3.57a3.43,3.43,0,0,0,2.33-.85V19A4.47,4.47,0,0,1,107,20.4,4,4,0,0,1,102.91,16.21Zm3.6-.68c1.41,0,2-.44,2-1.79,0-.77-.32-1.47-1-1.57v-.09a2.89,2.89,0,0,1,3.14,2.72,5.69,5.69,0,0,1-.08.83h-4Z"/><path class="cls-3" d="M111.75,18.35c0-1.39,1.29-2.18,3.08-2.18h1.73v.1h-.48a1.58,1.58,0,0,0-1.7,1.75c0,.88.26,1.55,1,1.55a1.77,1.77,0,0,0,1.17-.56v.09A3.41,3.41,0,0,1,114,20.4,2,2,0,0,1,111.75,18.35Zm.64-4.53c0-.82.74-1.65,2.92-1.74v.09a1.18,1.18,0,0,0-1,1.17c0,.58.4.93,1,1a1.78,1.78,0,0,1-1.53.77A1.29,1.29,0,0,1,112.39,13.82ZM117,18.59v-4.9c0-.78-.31-1.41-1.09-1.52v-.09c2.66.09,3.71,1.1,3.71,3.2v3.89c0,.46.16.65.45.65s.51-.24.77-.72H121a2,2,0,0,1-2.08,1.3C117.61,20.4,117,20,117,18.59Z"/><path class="cls-3" d="M127.44,13.36v.13a1.76,1.76,0,0,0-1.33-.6c-.8,0-1.57.37-1.57,3.27s.82,3.41,1.57,3.41a2.23,2.23,0,0,0,1.33-.56v.09a3,3,0,0,1-2.32,1.3c-1.53,0-3.3-.9-3.3-4.24,0-3.19,1.74-4.08,3.3-4.08A3,3,0,0,1,127.44,13.36Zm3.12,5.81c0,.46.14.65.43.65s.51-.24.77-.72h.09a2,2,0,0,1-2.08,1.3c-1.28,0-1.85-.45-1.85-1.81V10c0-.57-.28-.84-1.19-.84V9.1a10.62,10.62,0,0,0,3.83-.62Z"/><path class="cls-3" d="M132.52,12.69a9.72,9.72,0,0,0,3.83-.63v7.27c0,.4.24.81,1.2.81v.1h-5v-.1c1,0,1.2-.41,1.2-.81v-5.7c0-.58-.28-.85-1.19-.85Zm.82-3a1.65,1.65,0,1,1,1.63,1.4A1.45,1.45,0,0,1,133.34,9.68Z"/><path class="cls-3" d="M138.22,20.14c1,0,1.2-.41,1.2-.81V13.65c0-.58-.27-.85-1.19-.85v-.1a9.91,9.91,0,0,0,3.83-.62v7.25c0,.4.24.81,1.2.81v.1h-5Zm5.63,0c1,0,1.19-.41,1.19-.81v-5A1.19,1.19,0,0,0,143.77,13a1.69,1.69,0,0,0-1.21.5v-.1a3.26,3.26,0,0,1,2.65-1.29c1.44,0,2.47.67,2.47,2.25v5c0,.4.24.81,1.2.81v.1h-5Z"/><path class="cls-3" d="M149.82,15c0-2.08,2-2.86,3.58-2.89v.09c-.69.07-1,.9-1,2.76s.32,2.72,1,2.78v.1C151.79,17.81,149.82,17,149.82,15Zm4.26,9.18c1.6-.2,2.11-1.06,2.11-1.64,0-2.22-6.24-.24-6.24-3.1A1.86,1.86,0,0,1,151,17.78l0,.08a.36.36,0,0,0-.15.3c0,1.79,7.3-.29,7.3,3.2,0,1.65-1.42,2.72-4.14,2.88ZM150,22.8c0-.94,1.16-1.23,2.43-1.23a1.34,1.34,0,0,0-.69,1.13c0,.74.83,1.3,1.75,1.45v.09C151.72,24.21,150,23.86,150,22.8Zm4.13-5.09c.78-.06,1.1-.85,1.1-2.78s-.34-2.69-1.1-2.76v-.09c1.69,0,3.66.81,3.66,2.89s-2,2.84-3.66,2.84Zm.86-5.92c.27-.82,1-1.92,2.11-1.92.85,0,1.36.45,1.36,1.21a1.27,1.27,0,0,1-1.29,1.25c0-.67-.36-1.07-.87-1.07a1.72,1.72,0,0,0-1.23.58Z"/><path class="cls-3" d="M12.17,37.33c0,.4.24.81,1.2.81v.1h-5v-.1c1,0,1.2-.41,1.2-.81V31.65c0-.58-.27-.85-1.18-.85v-.1a9.82,9.82,0,0,0,3.82-.62Zm5.32-5v5c0,.4.22.81,1.18.81v.1h-5v-.1c.94,0,1.2-.41,1.2-.81v-5c0-.89-.36-1.36-1.12-1.36a1.44,1.44,0,0,0-1.06.48v-.09A2.6,2.6,0,0,1,15,30.08C16.53,30.08,17.49,30.75,17.49,32.33Zm5.3,0v5c0,.4.24.81,1.2.81v.1h-5v-.1c.95,0,1.2-.41,1.2-.81v-5c0-.89-.35-1.36-1.12-1.36a1.43,1.43,0,0,0-1.05.48v-.09a2.59,2.59,0,0,1,2.33-1.28C21.83,30.08,22.79,30.75,22.79,32.33Z"/><path class="cls-3" d="M28.83,30.17c-.95.11-1.27.91-1.27,4s.32,4,1.27,4.09v.1a4.08,4.08,0,0,1-4-4.19,4,4,0,0,1,4-4.13Zm4.61,4a4.08,4.08,0,0,1-4,4.19v-.1c.94-.09,1.25-1.1,1.25-4.09s-.32-3.94-1.25-4v-.09A4,4,0,0,1,33.44,34.21Z"/><path class="cls-3" d="M40.7,37v.09A3.33,3.33,0,0,1,38,38.4c-1.44,0-2.46-.66-2.46-2.26V30.89h-.83l.17-.24h.66V28.92A4,4,0,0,0,38.12,28v2.62h2.17l-.18.24h-2v5.3c0,.8.31,1.63,1.06,1.63A2.34,2.34,0,0,0,40.7,37Z"/><path class="cls-3" d="M45.28,30.17c-1,.11-1.27.91-1.27,4s.32,4,1.27,4.09v.1a4.08,4.08,0,0,1-4-4.19,4,4,0,0,1,4-4.13Zm4.61,4a4.08,4.08,0,0,1-4,4.19v-.1c.94-.09,1.25-1.1,1.25-4.09s-.32-3.94-1.25-4v-.09A4,4,0,0,1,49.89,34.21Z"/><path class="cls-3" d="M54.78,37.33c0,.4.24.81,1.2.81v.1h-5v-.1c1,0,1.2-.41,1.2-.81V31.65c0-.58-.27-.85-1.18-.85v-.1a9.89,9.89,0,0,0,3.82-.62Zm4.32-5.52a1.71,1.71,0,0,1-1.65,1.82,1.1,1.1,0,0,1-.91-.35,1.17,1.17,0,0,0,.63-1.09.85.85,0,0,0-.9-.86,1.1,1.1,0,0,0-1,.6v-.12a2.21,2.21,0,0,1,2.08-1.73A1.63,1.63,0,0,1,59.1,31.81Z"/><path class="cls-3" d="M64.06,30.17c-.94.11-1.36.91-1.36,4,0,2.31,1.17,3.57,2.59,3.57a3.44,3.44,0,0,0,2.34-.85V37a4.47,4.47,0,0,1-3.39,1.44A4.19,4.19,0,0,1,60,34.21a4.1,4.1,0,0,1,4.1-4.13Zm3.55,1.72A1.48,1.48,0,0,1,66,33.42a1.36,1.36,0,0,1-1.39-1,1.37,1.37,0,0,0,.77-1.17,1,1,0,0,0-.69-1v-.11C66.8,30.08,67.61,31,67.61,31.89Z"/><path class="cls-3" d="M68.94,30.89a.88.88,0,0,0-.88-.56v-.09h4.48v.09c-.56,0-.78.39-.51,1l2.09,4.37-1.37,2.59h-.1Zm-.71,9.93a1.69,1.69,0,0,1,1.41-1.51,1.49,1.49,0,0,0-.06.4.93.93,0,0,0,.94,1.07c.56,0,1-.59,1.62-1.61h.11c-.88,1.65-1.49,3.07-2.61,3.07A1.34,1.34,0,0,1,68.23,40.82Zm6.57-6.74A4.41,4.41,0,0,0,75.25,32a1.55,1.55,0,0,0-1.64-1.68v-.09h4v.09c-.53,0-.74.21-1,.75l-1.67,3.14Z"/><path class="cls-3" d="M81.77,30.17c-.94.11-1.36.91-1.36,4,0,2.31,1.17,3.57,2.59,3.57a3.44,3.44,0,0,0,2.34-.85V37A4.47,4.47,0,0,1,82,38.4a4.19,4.19,0,0,1-4.28-4.19,4.1,4.1,0,0,1,4.1-4.13Zm3.56,1.72a1.49,1.49,0,0,1-1.61,1.53,1.36,1.36,0,0,1-1.39-1,1.37,1.37,0,0,0,.77-1.17,1,1,0,0,0-.69-1v-.11C84.51,30.08,85.33,31,85.33,31.89Z"/><path class="cls-3" d="M86.15,27.1A9.91,9.91,0,0,0,90,26.48V37.33c0,.4.24.81,1.2.81v.1h-5v-.1c1,0,1.2-.41,1.2-.81V28c0-.57-.27-.84-1.19-.84Z"/><path class="cls-3" d="M92.14,34.21a4,4,0,0,1,3.92-4.13v.09c-.94.11-1.2.91-1.2,4,0,2.31,1,3.57,2.45,3.57a3.47,3.47,0,0,0,2.34-.85V37a4.5,4.5,0,0,1-3.4,1.44A4,4,0,0,1,92.14,34.21Zm3.6-.68c1.41,0,2-.44,2-1.79,0-.77-.32-1.47-1-1.57v-.09a2.89,2.89,0,0,1,3.14,2.72,4.58,4.58,0,0,1-.08.83h-4Z"/><path class="cls-3" d="M108,36.34a.82.82,0,0,0-.9.8c0,.46.32,1,1.42,1.16v.1c-2.13-.08-3.29-.66-3.29-1.58a1.25,1.25,0,0,1,1.36-1.19A1.64,1.64,0,0,1,108,36.34Zm.52-6.17c-.59.11-1.16.42-1.15,1.07,0,1.86,5.24,2.17,5.24,4.71,0,1.55-1.32,2.37-3.38,2.45v-.1c.67-.11,1.42-.35,1.42-1.18,0-1.67-5.25-2.27-5.25-4.71,0-1.41,1.33-2.25,3.12-2.33Zm3.78,1.56a1,1,0,0,1-1.18,1,1.36,1.36,0,0,1-1.36-.77.71.71,0,0,0,.72-.75c0-.48-.61-.95-1.25-1v-.09C111,30.17,112.3,30.83,112.3,31.73Z"/><path class="cls-3" d="M117.36,40.67c0,.58.27.85,1.18.85v.1a10.62,10.62,0,0,0-3.83.62V31.63c0-.58-.27-.85-1.18-.85v-.09a10.41,10.41,0,0,0,3.83-.63Zm6.09-6.51c0,3.34-1.76,4.24-3.28,4.24a3,3,0,0,1-2.34-1.3V37a2.32,2.32,0,0,0,1.35.56c.75,0,1.55-.53,1.55-3.41s-.75-3.27-1.55-3.27a1.78,1.78,0,0,0-1.35.6v-.13a3,3,0,0,1,2.34-1.28C121.72,30.08,123.45,31,123.45,34.16Z"/><path class="cls-3" d="M124.86,34.21a4,4,0,0,1,3.92-4.13v.09c-1,.11-1.2.91-1.2,4,0,2.31,1,3.57,2.45,3.57a3.47,3.47,0,0,0,2.34-.85V37A4.5,4.5,0,0,1,129,38.4,4,4,0,0,1,124.86,34.21Zm3.6-.68c1.41,0,2-.44,2-1.79,0-.77-.32-1.47-1-1.57v-.09a2.89,2.89,0,0,1,3.14,2.72,4.58,4.58,0,0,1-.08.83h-4Z"/><path class="cls-3" d="M138,30.17c-.94.11-1.36.91-1.36,4,0,2.31,1.17,3.57,2.6,3.57a3.43,3.43,0,0,0,2.33-.85V37a4.47,4.47,0,0,1-3.39,1.44,4.18,4.18,0,0,1-4.27-4.19A4.09,4.09,0,0,1,138,30.08Zm3.56,1.72a1.49,1.49,0,0,1-1.6,1.53,1.37,1.37,0,0,1-1.4-1,1.37,1.37,0,0,0,.77-1.17.94.94,0,0,0-.69-1v-.11C140.7,30.08,141.52,31,141.52,31.89Z"/><path class="cls-3" d="M142.46,30.69a9.64,9.64,0,0,0,3.82-.63v7.27c0,.4.24.81,1.2.81v.1h-5v-.1c1,0,1.2-.41,1.2-.81v-5.7c0-.58-.27-.85-1.18-.85Zm.81-3a1.65,1.65,0,1,1,1.64,1.4A1.46,1.46,0,0,1,143.27,27.68Z"/><path class="cls-3" d="M148.28,36.35c0-1.39,1.28-2.18,3.08-2.18h1.72v.1h-.48A1.58,1.58,0,0,0,150.91,36c0,.88.25,1.55,1,1.55a1.75,1.75,0,0,0,1.16-.56v.09a3.37,3.37,0,0,1-2.54,1.3A2,2,0,0,1,148.28,36.35Zm.64-4.53c0-.82.74-1.65,2.91-1.74v.09a1.18,1.18,0,0,0-1,1.17c0,.58.4.93,1,1a1.79,1.79,0,0,1-1.54.77A1.29,1.29,0,0,1,148.92,31.82Zm4.64,4.77v-4.9c0-.78-.3-1.41-1.08-1.52v-.09c2.65.09,3.71,1.1,3.71,3.2v3.89c0,.46.16.65.45.65s.51-.24.77-.72h.09a2,2,0,0,1-2.08,1.3C154.14,38.4,153.56,38,153.56,36.59Z"/><path class="cls-3" d="M157.91,27.1a9.91,9.91,0,0,0,3.83-.62V37.33c0,.4.24.81,1.2.81v.1h-5v-.1c1,0,1.2-.41,1.2-.81V28c0-.57-.27-.84-1.19-.84Z"/><path class="cls-3" d="M163.64,30.69a9.72,9.72,0,0,0,3.83-.63v7.27c0,.4.24.81,1.2.81v.1h-5v-.1c1,0,1.21-.41,1.21-.81v-5.7c0-.58-.28-.85-1.19-.85Zm.82-3a1.65,1.65,0,1,1,1.63,1.4A1.45,1.45,0,0,1,164.46,27.68Z"/><path class="cls-3" d="M172.41,36.34a.82.82,0,0,0-.9.8c0,.46.32,1,1.43,1.16v.1c-2.13-.08-3.3-.66-3.3-1.58A1.25,1.25,0,0,1,171,35.63,1.64,1.64,0,0,1,172.41,36.34Zm.53-6.17c-.59.11-1.17.42-1.15,1.07,0,1.86,5.23,2.17,5.23,4.71,0,1.55-1.31,2.37-3.38,2.45v-.1c.68-.11,1.43-.35,1.43-1.18,0-1.67-5.25-2.27-5.25-4.71,0-1.41,1.33-2.25,3.12-2.33Zm3.78,1.56a1.05,1.05,0,0,1-1.19,1,1.38,1.38,0,0,1-1.36-.77.71.71,0,0,0,.72-.75c0-.48-.61-.95-1.25-1v-.09C175.45,30.17,176.72,30.83,176.72,31.73Z"/><path class="cls-3" d="M184.28,37v.09a3.32,3.32,0,0,1-2.73,1.3c-1.44,0-2.47-.66-2.47-2.26V30.89h-.83l.17-.24h.66V28.92a4.06,4.06,0,0,0,2.63-.89v2.62h2.16l-.18.24h-2v5.3c0,.8.3,1.63,1,1.63A2.34,2.34,0,0,0,184.28,37Z"/></g></svg>