<?xml version="1.0" encoding="utf-8"?>
<!-- Generator: Adobe Illustrator 24.0.3, SVG Export Plug-In . SVG Version: 6.00 Build 0)  -->
<svg version="1.1" id="Layer_1" xmlns="http://www.w3.org/2000/svg" xmlns:xlink="http://www.w3.org/1999/xlink" x="0px" y="0px"
	 viewBox="0 0 320 50" style="enable-background:new 0 0 320 50;" xml:space="preserve">
<style type="text/css">
	.st0{clip-path:url(#SVGID_2_);}
	.st1{enable-background:new    ;}
	.st2{fill:#FFFFFF;}
</style>
<title>Artboard 2 copy 2</title>
<g>
	<defs>
		<rect id="SVGID_1_" y="0" width="320" height="50"/>
	</defs>
	<clipPath id="SVGID_2_">
		<use xlink:href="#SVGID_1_"  style="overflow:visible;"/>
	</clipPath>
	<g class="st0">
		<g class="st1">
			<path class="st2" d="M8.8,19.9c1.1,0,1.4-0.4,1.4-1V8.1c0-0.5-0.3-1-1.4-1V7h4.7v11.9c0,0.5,0.3,1,1.4,1V20H8.8V19.9z M14.4,7.1
				V7h5.3v3.8h-0.2C18.6,8.1,17.3,7.3,14.4,7.1z M15.5,13.6l-1.1-0.1v-0.1l1.1-0.1c1.1-0.1,1.9-0.6,2.5-1.6h0.2v3.6H18
				C17.3,14.1,16.6,13.7,15.5,13.6z"/>
		</g>
		<g class="st1">
			<path class="st2" d="M25.2,18.9c0,0.5,0.3,1,1.4,1V20h-6v-0.1c1.1,0,1.4-0.5,1.4-1v-6.8c0-0.7-0.3-1-1.4-1V11
				c1.8,0,3.2-0.2,4.6-0.7V18.9z M30.4,12.3c0,1.3-0.9,2.2-2,2.2c-0.5,0-0.9-0.1-1.1-0.4c0.4-0.2,0.7-0.6,0.7-1.3c0-0.6-0.4-1-1.1-1
				c-0.5,0-0.9,0.3-1.1,0.7v-0.2c0.4-1.2,1.3-2.1,2.5-2.1C29.7,10.2,30.4,11.1,30.4,12.3z"/>
		</g>
		<g class="st1">
			<path class="st2" d="M36.2,10.3c-1.1,0.1-1.5,1.1-1.5,4.8c0,3.6,0.4,4.8,1.5,4.9v0.1c-2.2,0-4.8-1.8-4.8-5c0-3.2,2.5-4.9,4.8-4.9
				V10.3z M41.7,15.2c0,3.2-2.5,5-4.7,5V20c1.1-0.1,1.5-1.3,1.5-4.9c0-3.7-0.4-4.7-1.5-4.8v-0.1C39.2,10.2,41.7,11.9,41.7,15.2z"/>
			<path class="st2" d="M47.5,18.9c0,0.5,0.3,1,1.4,1V20h-6v-0.1c1.1,0,1.4-0.5,1.4-1v-6.8c0-0.7-0.3-1-1.4-1V11
				c1.8,0,3.2-0.2,4.6-0.7V18.9z M53.9,12.9v6c0,0.5,0.3,1,1.4,1V20h-6v-0.1c1.1,0,1.4-0.5,1.4-1v-6c0-1.1-0.4-1.6-1.3-1.6
				c-0.5,0-1,0.3-1.3,0.6v-0.1c0.4-0.8,1.4-1.5,2.8-1.5C52.7,10.2,53.9,11,53.9,12.9z M60.2,12.9v6c0,0.5,0.3,1,1.4,1V20h-6v-0.1
				c1.1,0,1.4-0.5,1.4-1v-6c0-1.1-0.4-1.6-1.3-1.6c-0.5,0-1,0.3-1.3,0.6v-0.1c0.4-0.8,1.4-1.5,2.8-1.5C59.1,10.2,60.2,11,60.2,12.9z
				"/>
			<path class="st2" d="M69.2,10l0.2,0.2l0.2,8c0,0.8,0.6,1.6,1.9,1.6V20h-4.2v-0.1c1.3,0,1.9-0.8,1.9-1.6L69.2,10z M79.3,20h-2.1
				l-8-11.9c-0.5-0.7-1.1-1-2-1V7h5.1l7,10.5V20z M79.3,15.6l-0.2-0.2l-0.2-6.7c0-0.8-0.6-1.6-1.9-1.6V7h4.2v0.1
				c-1.3,0-1.9,0.8-1.9,1.6L79.3,15.6z"/>
			<path class="st2" d="M89.8,7h3.6l-7.6,13h-3.6L89.8,7z M82.8,7h5.8l-0.1,0.1c-2.8,0.2-5.1,2.1-5.6,4.5h-0.2V7z M87.2,19.9
				c2.9-0.2,5.2-2,6-5.1h0.2V20h-6.2L87.2,19.9z"/>
		</g>
		<g class="st1">
			<path class="st2" d="M98.8,7.6c0,1.1-1.2,2.6-3.1,3.4l-0.1-0.2c0.6-0.4,1.1-1.2,1.1-1.9c0-0.9-0.6-1.2-1.3-1.3
				c0.2-1.1,0.8-1.7,1.8-1.7C98.1,5.9,98.8,6.5,98.8,7.6z"/>
		</g>
		<g class="st1">
			<path class="st2" d="M102.7,17.7c-0.6,0-1.1,0.4-1.1,1c0,0.6,0.4,1.3,1.7,1.4v0.1c-2.5-0.1-3.9-0.8-3.9-1.9
				c0-0.9,0.8-1.4,1.6-1.4C101.8,16.9,102.4,17.2,102.7,17.7z M103.3,10.3c-0.7,0.1-1.4,0.5-1.4,1.3c0.1,2.2,6.2,2.6,6.2,5.6
				c0,1.9-1.6,2.8-4,2.9V20c0.8-0.1,1.7-0.4,1.7-1.4c0-2-6.3-2.7-6.3-5.6c0-1.7,1.6-2.7,3.7-2.8V10.3z M107.8,12.2
				c0,0.6-0.5,1.2-1.4,1.2c-0.8,0-1.4-0.3-1.6-0.9c0.6,0,0.9-0.4,0.9-0.9c0-0.6-0.7-1.1-1.5-1.2v-0.1
				C106.3,10.3,107.8,11.1,107.8,12.2z"/>
			<path class="st2" d="M114.2,6.7c1.8,0,3.2-0.2,4.6-0.7v13c0,0.5,0.3,1,1.4,1V20h-6v-0.1c1.1,0,1.4-0.5,1.4-1V7.8
				c0-0.7-0.3-1-1.4-1V6.7z"/>
			<path class="st2" d="M121.4,15.2c0-3.2,2.4-4.9,4.7-4.9v0.1c-1.1,0.1-1.4,1.1-1.4,4.7c0,2.8,1.2,4.3,2.9,4.3c1.1,0,1.9-0.3,2.8-1
				v0.1c-1,1.3-2.8,1.7-4.1,1.7C123.8,20.2,121.4,18.4,121.4,15.2z M125.7,14.4c1.7,0,2.4-0.5,2.4-2.1c0-0.9-0.4-1.8-1.2-1.9v-0.1
				c2.5,0,3.7,1.8,3.7,3.2c0,0.3,0,0.7-0.1,1h-4.8V14.4z"/>
			<path class="st2" d="M131.9,17.7c0-1.7,1.5-2.6,3.7-2.6h2.1v0.1h-0.6c-1.4,0-2,0.9-2,2.1c0,1.1,0.3,1.9,1.2,1.9
				c0.5,0,1-0.3,1.4-0.7v0.1c-0.6,0.7-1.6,1.5-3,1.5C133,20.2,131.9,19.2,131.9,17.7z M132.7,12.3c0-1,0.9-2,3.5-2.1v0.1
				c-0.8,0.1-1.2,0.7-1.2,1.4c0,0.7,0.5,1.1,1.2,1.2c-0.3,0.5-1.1,0.9-1.8,0.9C133.3,13.8,132.7,13.1,132.7,12.3z M138.2,18v-5.8
				c0-0.9-0.4-1.7-1.3-1.8v-0.1c3.2,0.1,4.4,1.3,4.4,3.8v4.6c0,0.6,0.2,0.8,0.5,0.8c0.3,0,0.6-0.3,0.9-0.9h0.1
				c-0.3,1.1-1.3,1.5-2.5,1.5C138.9,20.2,138.2,19.6,138.2,18z"/>
			<path class="st2" d="M150.7,11.8v0.2c-0.4-0.5-1-0.7-1.6-0.7c-1,0-1.9,0.4-1.9,3.9c0,3.4,1,4.1,1.9,4.1c0.6,0,1.1-0.3,1.6-0.7
				v0.1c-0.5,0.8-1.7,1.5-2.8,1.5c-1.8,0-3.9-1.1-3.9-5.1c0-3.8,2.1-4.9,3.9-4.9C149,10.2,150.2,11,150.7,11.8z M154.4,18.7
				c0,0.6,0.2,0.8,0.5,0.8c0.3,0,0.6-0.3,0.9-0.9h0.1c-0.3,1.1-1.3,1.5-2.5,1.5c-1.5,0-2.2-0.5-2.2-2.2V7.8c0-0.7-0.3-1-1.4-1V6.7
				c1.8,0,3-0.2,4.6-0.7V18.7z"/>
			<path class="st2" d="M156.7,11c1.8,0,3.2-0.2,4.6-0.7v8.7c0,0.5,0.3,1,1.4,1V20h-6v-0.1c1.1,0,1.4-0.5,1.4-1v-6.8
				c0-0.7-0.3-1-1.4-1V11z M157.7,7.4c0-1,0.8-1.7,1.9-1.7c1.1,0,1.9,0.7,1.9,1.7c0,1-0.8,1.7-1.9,1.7C158.5,9,157.7,8.4,157.7,7.4z
				"/>
			<path class="st2" d="M163.5,19.9c1.1,0,1.4-0.5,1.4-1v-6.8c0-0.7-0.3-1-1.4-1V11c1.8,0,3.2-0.2,4.6-0.7v8.7c0,0.5,0.3,1,1.4,1V20
				h-6V19.9z M170.3,19.9c1.1,0,1.4-0.5,1.4-1v-6c0-1.1-0.6-1.6-1.5-1.6c-0.5,0-1,0.2-1.5,0.6v-0.1c0.5-0.8,1.8-1.5,3.2-1.5
				c1.7,0,2.9,0.8,2.9,2.7v6c0,0.5,0.3,1,1.4,1V20h-6V19.9z"/>
			<path class="st2" d="M177.4,13.7c0-2.5,2.3-3.4,4.3-3.5v0.1c-0.8,0.1-1.2,1.1-1.2,3.3c0,2.3,0.4,3.2,1.2,3.3v0.1
				C179.7,17.1,177.4,16.1,177.4,13.7z M182.5,24.6c1.9-0.2,2.5-1.3,2.5-1.9c0-2.7-7.5-0.3-7.5-3.7c0-0.8,0.4-1.4,1.3-1.9l0.1,0.1
				c-0.1,0.1-0.2,0.2-0.2,0.4c0,2.1,8.7-0.3,8.7,3.8c0,2-1.7,3.2-4.9,3.4V24.6z M177.5,23c0-1.1,1.4-1.5,2.9-1.5
				c-0.3,0.2-0.8,0.7-0.8,1.4c0,0.9,1,1.5,2.1,1.7v0.1C179.7,24.7,177.5,24.3,177.5,23z M182.5,17c0.9-0.1,1.3-1,1.3-3.3
				c0-2.2-0.4-3.2-1.3-3.3v-0.1c2,0,4.4,1,4.4,3.5c0,2.5-2.3,3.4-4.4,3.4V17z M183.5,9.9c0.3-1,1.2-2.3,2.5-2.3c1,0,1.6,0.5,1.6,1.5
				c0,0.9-0.8,1.5-1.5,1.5c0-0.8-0.4-1.3-1-1.3C184.5,9.3,183.9,9.6,183.5,9.9L183.5,9.9z"/>
		</g>
		<g class="st1">
			<path class="st2" d="M13,39.1c0,0.5,0.3,1,1.4,1v0.1h-6V40c1.1,0,1.4-0.5,1.4-1v-6.8c0-0.7-0.3-1-1.4-1v-0.1
				c1.8,0,3.2-0.2,4.6-0.7V39.1z M19.3,33.1v6c0,0.5,0.3,1,1.4,1v0.1h-6V40c1.1,0,1.4-0.5,1.4-1v-6c0-1.1-0.4-1.6-1.3-1.6
				c-0.5,0-1,0.3-1.3,0.6v-0.1c0.4-0.8,1.4-1.5,2.8-1.5C18.2,30.4,19.3,31.2,19.3,33.1z M25.7,33.1v6c0,0.5,0.3,1,1.4,1v0.1h-6V40
				c1.1,0,1.4-0.5,1.4-1v-6c0-1.1-0.4-1.6-1.3-1.6c-0.5,0-1,0.3-1.3,0.6v-0.1c0.4-0.8,1.4-1.5,2.8-1.5
				C24.5,30.4,25.7,31.2,25.7,33.1z"/>
			<path class="st2" d="M32.9,30.5c-1.1,0.1-1.5,1.1-1.5,4.8c0,3.6,0.4,4.8,1.5,4.9v0.1c-2.2,0-4.8-1.8-4.8-5c0-3.2,2.5-4.9,4.8-4.9
				V30.5z M38.4,35.3c0,3.2-2.5,5-4.7,5v-0.1c1.1-0.1,1.5-1.3,1.5-4.9c0-3.7-0.4-4.7-1.5-4.8v-0.1C35.9,30.4,38.4,32.1,38.4,35.3z"
				/>
		</g>
		<g class="st1">
			<path class="st2" d="M47.1,38.7v0.1c-0.6,0.9-1.8,1.5-3.3,1.5c-1.7,0-2.9-0.8-2.9-2.7v-6.3h-1l0.2-0.3h0.8V29
				c1.2,0,2.3-0.4,3.1-1.1v3.1h2.6l-0.2,0.3H44v6.3c0,1,0.4,1.9,1.3,1.9C45.8,39.7,46.4,39.3,47.1,38.7z"/>
		</g>
		<g class="st1">
			<path class="st2" d="M52.5,30.5c-1.1,0.1-1.5,1.1-1.5,4.8c0,3.6,0.4,4.8,1.5,4.9v0.1c-2.2,0-4.8-1.8-4.8-5c0-3.2,2.5-4.9,4.8-4.9
				V30.5z M58,35.3c0,3.2-2.5,5-4.7,5v-0.1c1.1-0.1,1.5-1.3,1.5-4.9c0-3.7-0.4-4.7-1.5-4.8v-0.1C55.5,30.4,58,32.1,58,35.3z"/>
		</g>
		<g class="st1">
			<path class="st2" d="M63.9,39.1c0,0.5,0.3,1,1.4,1v0.1h-6V40c1.1,0,1.4-0.5,1.4-1v-6.8c0-0.7-0.3-1-1.4-1v-0.1
				c1.8,0,3.2-0.2,4.6-0.7V39.1z M69,32.5c0,1.3-0.9,2.2-2,2.2c-0.5,0-0.9-0.1-1.1-0.4c0.4-0.2,0.7-0.6,0.7-1.3c0-0.6-0.4-1-1.1-1
				c-0.5,0-0.9,0.3-1.1,0.7v-0.2c0.4-1.2,1.3-2.1,2.5-2.1C68.3,30.4,69,31.3,69,32.5z"/>
		</g>
		<g class="st1">
			<path class="st2" d="M75,30.5c-1.1,0.1-1.6,1.1-1.6,4.7c0,2.8,1.4,4.3,3.1,4.3c1.1,0,1.9-0.3,2.8-1v0.1c-1,1.3-2.8,1.7-4,1.7
				c-2.4,0-5.1-1.8-5.1-5c0-3.2,2.7-4.9,4.9-4.9V30.5z M79.2,32.6c0,1-0.7,1.8-1.9,1.8c-0.9,0-1.5-0.6-1.7-1.2
				c0.5-0.2,0.9-0.9,0.9-1.4c0-0.4-0.1-1.1-0.8-1.3v-0.1C78.2,30.4,79.2,31.5,79.2,32.6z"/>
		</g>
		<g class="st1">
			<path class="st2" d="M80.8,31.4c-0.2-0.4-0.5-0.7-1.1-0.7v-0.1h5.3v0.1c-0.7,0-0.9,0.5-0.6,1.1l2.5,5.2l-1.6,3.1h-0.1L80.8,31.4z
				 M80,43.2c0-0.8,0.6-1.5,1.7-1.8c-0.1,0.2-0.1,0.3-0.1,0.5c0,0.7,0.4,1.3,1.1,1.3c0.7,0,1.2-0.7,1.9-1.9h0.1
				c-1.1,2-1.8,3.7-3.1,3.7C80.6,44.9,80,44.2,80,43.2z M87.8,35.2c0.3-0.6,0.5-1.4,0.5-2.5c0-1.1-0.6-2-1.9-2v-0.1h4.8v0.1
				c-0.6,0-0.9,0.2-1.2,0.9l-2,3.7L87.8,35.2z"/>
		</g>
		<g class="st1">
			<path class="st2" d="M96.1,30.5c-1.1,0.1-1.6,1.1-1.6,4.7c0,2.8,1.4,4.3,3.1,4.3c1.1,0,1.9-0.3,2.8-1v0.1c-1,1.3-2.8,1.7-4,1.7
				c-2.4,0-5.1-1.8-5.1-5c0-3.2,2.7-4.9,4.9-4.9V30.5z M100.4,32.6c0,1-0.7,1.8-1.9,1.8c-0.9,0-1.5-0.6-1.7-1.2
				c0.5-0.2,0.9-0.9,0.9-1.4c0-0.4-0.1-1.1-0.8-1.3v-0.1C99.4,30.4,100.4,31.5,100.4,32.6z"/>
			<path class="st2" d="M101.4,26.9c1.8,0,3.2-0.2,4.6-0.7v13c0,0.5,0.3,1,1.4,1v0.1h-6V40c1.1,0,1.4-0.5,1.4-1V28
				c0-0.7-0.3-1-1.4-1V26.9z"/>
			<path class="st2" d="M108.5,35.3c0-3.2,2.4-4.9,4.7-4.9v0.1c-1.1,0.1-1.4,1.1-1.4,4.7c0,2.8,1.2,4.3,2.9,4.3c1.1,0,1.9-0.3,2.8-1
				v0.1c-1,1.3-2.8,1.7-4.1,1.7C111,40.3,108.5,38.5,108.5,35.3z M112.8,34.5c1.7,0,2.4-0.5,2.4-2.1c0-0.9-0.4-1.8-1.2-1.9v-0.1
				c2.5,0,3.7,1.8,3.7,3.2c0,0.3,0,0.7-0.1,1h-4.8V34.5z"/>
			<path class="st2" d="M127.4,37.9c-0.6,0-1.1,0.4-1.1,1c0,0.6,0.4,1.3,1.7,1.4v0.1c-2.5-0.1-3.9-0.8-3.9-1.9
				c0-0.9,0.8-1.4,1.6-1.4C126.5,37,127.2,37.4,127.4,37.9z M128.1,30.5c-0.7,0.1-1.4,0.5-1.4,1.3c0.1,2.2,6.2,2.6,6.2,5.6
				c0,1.9-1.6,2.8-4,2.9v-0.1c0.8-0.1,1.7-0.4,1.7-1.4c0-2-6.3-2.7-6.3-5.6c0-1.7,1.6-2.7,3.7-2.8V30.5z M132.6,32.4
				c0,0.6-0.5,1.2-1.4,1.2c-0.8,0-1.4-0.3-1.6-0.9c0.6,0,0.9-0.4,0.9-0.9c0-0.6-0.7-1.1-1.5-1.2v-0.1
				C131.1,30.5,132.6,31.3,132.6,32.4z"/>
			<path class="st2" d="M138.6,43.1c0,0.7,0.3,1,1.4,1v0.1c-1.8,0-3,0.2-4.6,0.7V32.3c0-0.7-0.3-1-1.4-1v-0.1c1.8,0,3-0.2,4.6-0.7
				V43.1z M145.9,35.3c0,4-2.1,5.1-3.9,5.1c-1.1,0-2.3-0.7-2.8-1.5v-0.1c0.5,0.4,1,0.7,1.6,0.7c0.9,0,1.9-0.6,1.9-4.1
				c0-3.5-0.9-3.9-1.9-3.9c-0.6,0-1.2,0.2-1.6,0.7v-0.2c0.5-0.8,1.7-1.5,2.8-1.5C143.8,30.4,145.9,31.5,145.9,35.3z"/>
			<path class="st2" d="M147.6,35.3c0-3.2,2.4-4.9,4.7-4.9v0.1c-1.1,0.1-1.4,1.1-1.4,4.7c0,2.8,1.2,4.3,2.9,4.3c1.1,0,1.9-0.3,2.8-1
				v0.1c-1,1.3-2.8,1.7-4.1,1.7C150.1,40.3,147.6,38.5,147.6,35.3z M151.9,34.5c1.7,0,2.4-0.5,2.4-2.1c0-0.9-0.4-1.8-1.2-1.9v-0.1
				c2.5,0,3.7,1.8,3.7,3.2c0,0.3,0,0.7-0.1,1h-4.8V34.5z"/>
			<path class="st2" d="M163.2,30.5c-1.1,0.1-1.6,1.1-1.6,4.7c0,2.8,1.4,4.3,3.1,4.3c1.1,0,1.9-0.3,2.8-1v0.1c-1,1.3-2.8,1.7-4,1.7
				c-2.4,0-5.1-1.8-5.1-5c0-3.2,2.7-4.9,4.9-4.9V30.5z M167.5,32.6c0,1-0.7,1.8-1.9,1.8c-0.9,0-1.5-0.6-1.7-1.2
				c0.5-0.2,0.9-0.9,0.9-1.4c0-0.4-0.1-1.1-0.8-1.3v-0.1C166.5,30.4,167.5,31.5,167.5,32.6z"/>
			<path class="st2" d="M168.6,31.1c1.8,0,3.2-0.2,4.6-0.7v8.7c0,0.5,0.3,1,1.4,1v0.1h-6V40c1.1,0,1.4-0.5,1.4-1v-6.8
				c0-0.7-0.3-1-1.4-1V31.1z M169.6,27.5c0-1,0.8-1.7,1.9-1.7c1.1,0,1.9,0.7,1.9,1.7c0,1-0.8,1.7-1.9,1.7
				C170.4,29.2,169.6,28.6,169.6,27.5z"/>
			<path class="st2" d="M175.6,37.9c0-1.7,1.5-2.6,3.7-2.6h2.1v0.1h-0.6c-1.4,0-2,0.9-2,2.1c0,1.1,0.3,1.9,1.2,1.9
				c0.5,0,1-0.3,1.4-0.7v0.1c-0.6,0.7-1.6,1.5-3,1.5C176.6,40.3,175.5,39.4,175.6,37.9z M176.3,32.5c0-1,0.9-2,3.5-2.1v0.1
				c-0.8,0.1-1.2,0.7-1.2,1.4c0,0.7,0.5,1.1,1.2,1.2c-0.3,0.5-1.1,0.9-1.8,0.9C176.9,34,176.3,33.3,176.3,32.5z M181.9,38.2v-5.8
				c0-0.9-0.4-1.7-1.3-1.8v-0.1c3.2,0.1,4.4,1.3,4.4,3.8v4.6c0,0.6,0.2,0.8,0.5,0.8c0.3,0,0.6-0.3,0.9-0.9h0.1
				c-0.3,1.1-1.3,1.5-2.5,1.5C182.6,40.3,181.9,39.8,181.9,38.2z"/>
			<path class="st2" d="M187.1,26.9c1.8,0,3.2-0.2,4.6-0.7v13c0,0.5,0.3,1,1.4,1v0.1h-6V40c1.1,0,1.4-0.5,1.4-1V28
				c0-0.7-0.3-1-1.4-1V26.9z"/>
			<path class="st2" d="M193.9,31.1c1.8,0,3.2-0.2,4.6-0.7v8.7c0,0.5,0.3,1,1.4,1v0.1h-6V40c1.1,0,1.4-0.5,1.4-1v-6.8
				c0-0.7-0.3-1-1.4-1V31.1z M194.9,27.5c0-1,0.8-1.7,1.9-1.7c1.1,0,1.9,0.7,1.9,1.7c0,1-0.8,1.7-1.9,1.7
				C195.7,29.2,194.9,28.6,194.9,27.5z"/>
			<path class="st2" d="M204.4,37.9c-0.6,0-1.1,0.4-1.1,1c0,0.6,0.4,1.3,1.7,1.4v0.1c-2.5-0.1-3.9-0.8-3.9-1.9
				c0-0.9,0.8-1.4,1.6-1.4C203.5,37,204.1,37.4,204.4,37.9z M205,30.5c-0.7,0.1-1.4,0.5-1.4,1.3c0.1,2.2,6.2,2.6,6.2,5.6
				c0,1.9-1.6,2.8-4,2.9v-0.1c0.8-0.1,1.7-0.4,1.7-1.4c0-2-6.3-2.7-6.3-5.6c0-1.7,1.6-2.7,3.7-2.8V30.5z M209.5,32.4
				c0,0.6-0.5,1.2-1.4,1.2c-0.8,0-1.4-0.3-1.6-0.9c0.6,0,0.9-0.4,0.9-0.9c0-0.6-0.7-1.1-1.5-1.2v-0.1
				C208,30.5,209.5,31.3,209.5,32.4z"/>
			<path class="st2" d="M218.6,38.7v0.1c-0.6,0.9-1.8,1.5-3.3,1.5c-1.7,0-2.9-0.8-2.9-2.7v-6.3h-1l0.2-0.3h0.8V29
				c1.2,0,2.3-0.4,3.1-1.1v3.1h2.6l-0.2,0.3h-2.4v6.3c0,1,0.4,1.9,1.3,1.9C217.3,39.7,217.9,39.3,218.6,38.7z"/>
		</g>
	</g>
</g>
</svg>
