<svg id="Layer_1" data-name="Layer 1" xmlns="http://www.w3.org/2000/svg" xmlns:xlink="http://www.w3.org/1999/xlink" viewBox="0 0 320 50"><defs><style>.cls-1{fill:none;}.cls-2{clip-path:url(#clip-path);}.cls-3{fill:#fff;}</style><clipPath id="clip-path"><rect class="cls-1" width="320" height="50"/></clipPath></defs><title>Artboard 2 copy</title><g class="cls-2"><path class="cls-3" d="M11.79,13.28l2.1,4.37-1.38,2.59h-.1L8.7,12.89a.87.87,0,0,0-.88-.56v-.09H12.3v.09C11.74,12.33,11.52,12.72,11.79,13.28Zm5.27,0,2.09,4.37-1.37,2.59h-.1l-2.51-5-.52,1-.09-.14a2.47,2.47,0,0,0,.13-1.78L14,12.89a.88.88,0,0,0-.88-.56v-.09h4.48v.09C17,12.33,16.78,12.72,17.06,13.28Zm5.57-1v.09c-.53,0-.76.21-1,.75l-1.67,3.14-.1-.14A4.29,4.29,0,0,0,20.27,14a1.54,1.54,0,0,0-1.63-1.68v-.09Z"/><path class="cls-3" d="M22.76,12.69a9.72,9.72,0,0,0,3.83-.63v7.27c0,.4.24.81,1.2.81v.1h-5v-.1c1,0,1.2-.41,1.2-.81v-5.7c0-.58-.27-.85-1.19-.85Zm.82-3a1.45,1.45,0,0,1,1.63-1.4,1.46,1.46,0,0,1,1.64,1.4,1.46,1.46,0,0,1-1.64,1.4A1.45,1.45,0,0,1,23.58,9.68Z"/><path class="cls-3" d="M34.67,19v.09a3.34,3.34,0,0,1-2.74,1.3c-1.44,0-2.46-.66-2.46-2.26V12.89h-.83l.17-.24h.66V10.92A4,4,0,0,0,32.09,10v2.62h2.16l-.17.24h-2v5.3c0,.8.31,1.63,1.06,1.63A2.34,2.34,0,0,0,34.67,19Z"/><path class="cls-3" d="M38.8,19.33c0,.4.24.81,1.2.81v.1H35v-.1c1,0,1.2-.41,1.2-.81V10c0-.57-.28-.84-1.19-.84V9.1a9.91,9.91,0,0,0,3.83-.62Zm5.6-5v5c0,.4.24.81,1.2.81v.1h-5v-.1c1,0,1.19-.41,1.19-.81v-5A1.19,1.19,0,0,0,40.49,13a1.71,1.71,0,0,0-1.21.5v-.1a3.26,3.26,0,0,1,2.65-1.29C43.38,12.08,44.4,12.75,44.4,14.33Z"/><path class="cls-3" d="M50.45,12.17c-1,.11-1.27.91-1.27,4s.32,4,1.27,4.09v.1a4.07,4.07,0,0,1-4-4.19,4,4,0,0,1,4-4.13Zm4.61,4a4.08,4.08,0,0,1-4,4.19v-.1c.94-.09,1.24-1.1,1.24-4.09,0-3.14-.32-3.94-1.24-4v-.09A4,4,0,0,1,55.06,16.21Z"/><path class="cls-3" d="M59.77,18.14c0,.9.31,1.36,1.11,1.36A1.4,1.4,0,0,0,62,19v.09a2.66,2.66,0,0,1-2.48,1.3,2.07,2.07,0,0,1-2.37-2.26V13.65c0-.58-.27-.85-1.18-.85v-.1a9.82,9.82,0,0,0,3.82-.62Zm5.33,1c0,.46.15.65.44.65s.51-.24.76-.72h.1a2.05,2.05,0,0,1-2.18,1.3,1.55,1.55,0,0,1-1.76-1.57V13.65c0-.58-.27-.85-1.13-.85v-.1a10.44,10.44,0,0,0,3.77-.62Z"/><path class="cls-3" d="M73.25,19v.09a3.36,3.36,0,0,1-2.74,1.3c-1.44,0-2.47-.66-2.47-2.26V12.89h-.83l.18-.24H68V10.92A4.06,4.06,0,0,0,70.67,10v2.62h2.16l-.18.24h-2v5.3c0,.8.3,1.63,1.06,1.63A2.36,2.36,0,0,0,73.25,19Z"/><path class="cls-3" d="M83.9,19v.09a3.33,3.33,0,0,1-2.74,1.3c-1.44,0-2.46-.66-2.46-2.26V12.89h-.83l.17-.24h.66V10.92A4,4,0,0,0,81.32,10v2.62h2.17l-.18.24h-2v5.3c0,.8.31,1.63,1.06,1.63A2.34,2.34,0,0,0,83.9,19Z"/><path class="cls-3" d="M88,19.33c0,.4.24.81,1.2.81v.1h-5v-.1c1,0,1.2-.41,1.2-.81V10c0-.57-.27-.84-1.19-.84V9.1A9.91,9.91,0,0,0,88,8.48Zm5.6-5v5c0,.4.24.81,1.2.81v.1h-5v-.1c.94,0,1.18-.41,1.18-.81v-5c0-.89-.46-1.36-1.26-1.36a1.72,1.72,0,0,0-1.22.5v-.1a3.27,3.27,0,0,1,2.66-1.29C92.61,12.08,93.63,12.75,93.63,14.33Z"/><path class="cls-3" d="M95.69,16.21a4,4,0,0,1,3.92-4.13v.09c-.94.11-1.2.91-1.2,4,0,2.31,1,3.57,2.45,3.57a3.46,3.46,0,0,0,2.34-.85V19a4.49,4.49,0,0,1-3.4,1.44A4.05,4.05,0,0,1,95.69,16.21Zm3.6-.68c1.41,0,2-.44,2-1.79,0-.77-.32-1.47-1-1.57v-.09a2.89,2.89,0,0,1,3.14,2.72,4.58,4.58,0,0,1-.08.83h-4Z"/><path class="cls-3" d="M8.62,34.21a4,4,0,0,1,3.92-4.13v.09c-.94.11-1.2.91-1.2,4,0,2.31,1,3.57,2.45,3.57a3.46,3.46,0,0,0,2.34-.85V37a4.5,4.5,0,0,1-3.4,1.44A4.05,4.05,0,0,1,8.62,34.21Zm3.6-.68c1.41,0,2-.44,2-1.79,0-.77-.32-1.47-1-1.57v-.09a2.89,2.89,0,0,1,3.14,2.72,4.58,4.58,0,0,1-.08.83h-4Z"/><path class="cls-3" d="M16.6,38.14a2.15,2.15,0,0,0,1.68-1l1.43-2.15.1.15a3.43,3.43,0,0,0-.52,1.71,1.25,1.25,0,0,0,1.19,1.34v.1H16.6Zm4.66,0c.64,0,.9-.2.9-.54a1.71,1.71,0,0,0-.32-.83l-3.76-5.88a1.24,1.24,0,0,0-1.24-.56v-.09h4.85v.09c-.49,0-.72.1-.72.36a2,2,0,0,0,.47,1l3.73,5.89a1.08,1.08,0,0,0,.94.56v.1H21.26Zm2.13-4.86a3.34,3.34,0,0,0,.37-1.6,1.23,1.23,0,0,0-1.28-1.35v-.09h3.39v.09a1.49,1.49,0,0,0-1.17.91l-1.21,2.18Z"/><path class="cls-3" d="M30.62,30.17c-.94.11-1.36.91-1.36,4,0,2.31,1.17,3.57,2.59,3.57a3.44,3.44,0,0,0,2.34-.85V37A4.47,4.47,0,0,1,30.8,38.4a4.19,4.19,0,0,1-4.28-4.19,4.1,4.1,0,0,1,4.1-4.13Zm3.56,1.72a1.49,1.49,0,0,1-1.61,1.53,1.36,1.36,0,0,1-1.39-1A1.37,1.37,0,0,0,32,31.24a1,1,0,0,0-.69-1v-.11C33.36,30.08,34.18,31,34.18,31.89Z"/><path class="cls-3" d="M35.37,34.21a4,4,0,0,1,3.92-4.13v.09c-.94.11-1.2.91-1.2,4,0,2.31,1,3.57,2.45,3.57a3.46,3.46,0,0,0,2.34-.85V37a4.47,4.47,0,0,1-3.39,1.44A4.06,4.06,0,0,1,35.37,34.21Zm3.6-.68c1.41,0,2-.44,2-1.79,0-.77-.32-1.47-1-1.57v-.09a2.89,2.89,0,0,1,3.14,2.72,4.58,4.58,0,0,1-.08.83H39Z"/><path class="cls-3" d="M47.17,36.34a.82.82,0,0,0-.9.8c0,.46.32,1,1.42,1.16v.1c-2.13-.08-3.29-.66-3.29-1.58a1.25,1.25,0,0,1,1.36-1.19A1.65,1.65,0,0,1,47.17,36.34Zm.52-6.17c-.59.11-1.17.42-1.15,1.07.05,1.86,5.23,2.17,5.23,4.71,0,1.55-1.31,2.37-3.37,2.45v-.1c.67-.11,1.42-.35,1.42-1.18,0-1.67-5.25-2.27-5.25-4.71,0-1.41,1.33-2.25,3.12-2.33Zm3.78,1.56a1,1,0,0,1-1.18,1A1.36,1.36,0,0,1,48.93,32a.71.71,0,0,0,.72-.75c0-.48-.61-.95-1.25-1v-.09C50.21,30.17,51.47,30.83,51.47,31.73Z"/><path class="cls-3" d="M55.9,36.34a.82.82,0,0,0-.9.8c0,.46.32,1,1.43,1.16v.1c-2.13-.08-3.3-.66-3.3-1.58a1.25,1.25,0,0,1,1.36-1.19A1.64,1.64,0,0,1,55.9,36.34Zm.53-6.17c-.59.11-1.17.42-1.15,1.07,0,1.86,5.23,2.17,5.23,4.71,0,1.55-1.31,2.37-3.38,2.45v-.1c.68-.11,1.43-.35,1.43-1.18,0-1.67-5.25-2.27-5.25-4.71,0-1.41,1.33-2.25,3.12-2.33Zm3.78,1.56a1.05,1.05,0,0,1-1.19,1A1.38,1.38,0,0,1,57.66,32a.71.71,0,0,0,.72-.75c0-.48-.61-.95-1.25-1v-.09C58.94,30.17,60.21,30.83,60.21,31.73Z"/><path class="cls-3" d="M61.6,30.69a9.7,9.7,0,0,0,3.82-.63v7.27c0,.4.24.81,1.2.81v.1h-5v-.1c1,0,1.2-.41,1.2-.81v-5.7c0-.58-.27-.85-1.18-.85Zm.81-3A1.65,1.65,0,1,1,64,29.08,1.45,1.45,0,0,1,62.41,27.68Z"/><path class="cls-3" d="M67.66,30.89a.87.87,0,0,0-.88-.56v-.09h4.48v.09c-.56,0-.78.39-.51,1l2.1,4.37-1.38,2.59h-.1Zm5.86,3.19A4.41,4.41,0,0,0,74,32a1.55,1.55,0,0,0-1.64-1.68v-.09h4v.09c-.53,0-.74.21-1,.75l-1.67,3.14Z"/><path class="cls-3" d="M76.44,34.21a4,4,0,0,1,3.93-4.13v.09c-1,.11-1.21.91-1.21,4,0,2.31,1,3.57,2.45,3.57A3.44,3.44,0,0,0,84,36.86V37a4.47,4.47,0,0,1-3.39,1.44A4.06,4.06,0,0,1,76.44,34.21Zm3.6-.68c1.41,0,2-.44,2-1.79,0-.77-.32-1.47-1-1.57v-.09a2.88,2.88,0,0,1,3.13,2.72,4.58,4.58,0,0,1-.08.83H80Z"/><path class="cls-3" d="M92.92,40.67c0,.58.28.85,1.19.85v.1a10.62,10.62,0,0,0-3.83.62V31.63c0-.58-.27-.85-1.18-.85v-.09a10.33,10.33,0,0,0,3.82-.63ZM99,34.16c0,3.34-1.76,4.24-3.28,4.24a3,3,0,0,1-2.34-1.3V37a2.29,2.29,0,0,0,1.35.56c.75,0,1.55-.53,1.55-3.41s-.75-3.27-1.55-3.27a1.78,1.78,0,0,0-1.35.6v-.13a3,3,0,0,1,2.34-1.28C97.29,30.08,99,31,99,34.16Z"/><path class="cls-3" d="M104,37.33c0,.4.24.81,1.2.81v.1h-5v-.1c1,0,1.2-.41,1.2-.81V31.65c0-.58-.27-.85-1.18-.85v-.1a9.89,9.89,0,0,0,3.82-.62Zm4.32-5.52a1.71,1.71,0,0,1-1.65,1.82,1.1,1.1,0,0,1-.91-.35,1.17,1.17,0,0,0,.63-1.09.86.86,0,0,0-.9-.87,1.11,1.11,0,0,0-1,.61v-.12a2.21,2.21,0,0,1,2.08-1.73A1.63,1.63,0,0,1,108.3,31.81Z"/><path class="cls-3" d="M109.16,34.21a4,4,0,0,1,3.92-4.13v.09c-.94.11-1.2.91-1.2,4,0,2.31,1,3.57,2.45,3.57a3.44,3.44,0,0,0,2.34-.85V37a4.47,4.47,0,0,1-3.39,1.44A4.06,4.06,0,0,1,109.16,34.21Zm3.6-.68c1.41,0,2-.44,2-1.79,0-.77-.32-1.47-1-1.57v-.09a2.89,2.89,0,0,1,3.14,2.72,4.58,4.58,0,0,1-.08.83h-4Z"/><path class="cls-3" d="M121.72,37.33c0,.4.24.81,1.2.81v.1h-5v-.1c1,0,1.2-.41,1.2-.81V31.65c0-.58-.27-.85-1.18-.85v-.1a9.82,9.82,0,0,0,3.82-.62Zm5.32-5v5c0,.4.22.81,1.18.81v.1h-5v-.1c.94,0,1.2-.41,1.2-.81v-5c0-.89-.36-1.36-1.12-1.36a1.44,1.44,0,0,0-1.06.48v-.09a2.6,2.6,0,0,1,2.34-1.28C126.08,30.08,127,30.75,127,32.33Zm5.3,0v5c0,.4.24.81,1.2.81v.1h-5v-.1c.94,0,1.2-.41,1.2-.81v-5c0-.89-.36-1.36-1.12-1.36a1.44,1.44,0,0,0-1.06.48v-.09a2.6,2.6,0,0,1,2.34-1.28C131.38,30.08,132.34,30.75,132.34,32.33Z"/><path class="cls-3" d="M134.14,30.69a9.64,9.64,0,0,0,3.82-.63v7.27c0,.4.24.81,1.2.81v.1h-5v-.1c1,0,1.2-.41,1.2-.81v-5.7c0-.58-.27-.85-1.18-.85Zm.82-3a1.65,1.65,0,1,1,1.63,1.4A1.45,1.45,0,0,1,135,27.68Z"/><path class="cls-3" d="M143.5,36.14c0,.9.3,1.36,1.1,1.36a1.4,1.4,0,0,0,1.11-.49v.09a2.67,2.67,0,0,1-2.48,1.3,2.07,2.07,0,0,1-2.37-2.26V31.65c0-.58-.27-.85-1.19-.85v-.1a9.91,9.91,0,0,0,3.83-.62Zm5.33,1c0,.46.14.65.43.65s.51-.24.77-.72h.1A2.05,2.05,0,0,1,148,38.4a1.55,1.55,0,0,1-1.76-1.57V31.65c0-.58-.27-.85-1.14-.85v-.1a10.49,10.49,0,0,0,3.78-.62Z"/><path class="cls-3" d="M154.6,37.33c0,.4.24.81,1.2.81v.1h-5v-.1c1,0,1.2-.41,1.2-.81V31.65c0-.58-.27-.85-1.18-.85v-.1a9.82,9.82,0,0,0,3.82-.62Zm5.32-5v5c0,.4.22.81,1.18.81v.1h-5v-.1c.94,0,1.2-.41,1.2-.81v-5c0-.89-.36-1.36-1.12-1.36a1.44,1.44,0,0,0-1.06.48v-.09a2.6,2.6,0,0,1,2.34-1.28C159,30.08,159.92,30.75,159.92,32.33Zm5.3,0v5c0,.4.24.81,1.2.81v.1h-5v-.1c.94,0,1.2-.41,1.2-.81v-5c0-.89-.36-1.36-1.12-1.36a1.44,1.44,0,0,0-1.06.48v-.09a2.6,2.6,0,0,1,2.34-1.28C164.26,30.08,165.22,30.75,165.22,32.33Z"/><path class="cls-3" d="M170.06,36.34a.82.82,0,0,0-.9.8c0,.46.32,1,1.43,1.16v.1c-2.13-.08-3.3-.66-3.3-1.58a1.25,1.25,0,0,1,1.36-1.19A1.64,1.64,0,0,1,170.06,36.34Zm.53-6.17c-.59.11-1.17.42-1.15,1.07,0,1.86,5.23,2.17,5.23,4.71,0,1.55-1.31,2.37-3.38,2.45v-.1c.67-.11,1.43-.35,1.43-1.18,0-1.67-5.25-2.27-5.25-4.71,0-1.41,1.32-2.25,3.12-2.33Zm3.78,1.56a1.05,1.05,0,0,1-1.19,1,1.38,1.38,0,0,1-1.36-.77.71.71,0,0,0,.72-.75c0-.48-.61-.95-1.25-1v-.09C173.1,30.17,174.37,30.83,174.37,31.73Z"/></g></svg>