<svg id="Layer_1" data-name="Layer 1" xmlns="http://www.w3.org/2000/svg" viewBox="0 0 320 50"><defs><style>.cls-1{fill:#fbae17;}.cls-2{fill:#fff;}.cls-3{fill:none;}</style></defs><title>Artboard 1</title><path class="cls-1" d="M10.36,47.5H82.74a6.35,6.35,0,0,0,5.65-3.43l8.37-16.14a6.32,6.32,0,0,0,0-5.86L88.39,5.93A6.35,6.35,0,0,0,82.74,2.5H10.36A3.86,3.86,0,0,0,6.5,6.36V43.64A3.86,3.86,0,0,0,10.36,47.5Z"/><path class="cls-2" d="M43.44,28.49,43.8,28c.25-.36.53-.37.93-.15a3.92,3.92,0,0,0,2.31.84c1.05,0,1.7-.53,1.7-1.3,0-2.17-5.31-1.72-5.31-5.26,0-2,1.66-3.31,3.83-3.31a5.28,5.28,0,0,1,2.93.87.62.62,0,0,1,.21.91l-.29.53c-.24.47-.57.4-.91.23a3.73,3.73,0,0,0-2-.63c-1.06,0-1.73.52-1.73,1.29,0,2.13,5.3,1.58,5.3,5.21,0,1.84-1.37,3.36-3.76,3.36a6.07,6.07,0,0,1-3.5-1.15A.59.59,0,0,1,43.44,28.49Z"/><path class="cls-2" d="M55.39,20.78H52.33a.6.6,0,0,1-.68-.66v-.45a.6.6,0,0,1,.68-.67h8.18a.59.59,0,0,1,.65.67v.45a.58.58,0,0,1-.65.66H57.44v8.93a.59.59,0,0,1-.67.67h-.72a.59.59,0,0,1-.66-.67Z"/><path class="cls-2" d="M63.87,19.54a.72.72,0,0,1,.75-.54h1a.7.7,0,0,1,.75.54L70,29.61c.16.47,0,.77-.55.77h-.74a.71.71,0,0,1-.75-.54l-.8-2.38h-4l-.78,2.36a.71.71,0,0,1-.76.56h-.73c-.5,0-.71-.3-.55-.77Zm2.74,6.24-1-3.05c-.19-.64-.45-1.76-.45-1.76h0s-.25,1.12-.45,1.76l-1,3.05Z"/><path class="cls-2" d="M71.4,19.67a.6.6,0,0,1,.66-.67h3.08a5.18,5.18,0,0,1,2.16.3,3.16,3.16,0,0,1,1.91,3.11,3.28,3.28,0,0,1-1.89,3.11v0a4.21,4.21,0,0,1,.37.59l1.88,3.43c.27.47.06.8-.47.8h-.87a.8.8,0,0,1-.78-.46l-2-3.79h-2v3.58a.58.58,0,0,1-.65.67h-.74a.59.59,0,0,1-.66-.67Zm3.92,4.67a1.67,1.67,0,0,0,1.79-1.82,1.52,1.52,0,0,0-.9-1.55A2.79,2.79,0,0,0,75,20.78H73.45v3.56Z"/><path class="cls-2" d="M23.19,31A.53.53,0,0,1,23,31a.51.51,0,0,1-.25-.6L28,14.12a1.12,1.12,0,0,1,1.07-.78h0a1.11,1.11,0,0,1,1.07.78l1.07,3.22a.38.38,0,0,1-.24.48.37.37,0,0,1-.48-.24l-1.07-3.22a.36.36,0,0,0-.35-.26h0a.35.35,0,0,0-.34.25L24,29l6.72-9.2A2.08,2.08,0,0,1,32.35,19h4.48a1.11,1.11,0,0,1,1.07.78A1.09,1.09,0,0,1,37.49,21L33.4,24s0,0,0,0l1.58,4.86a1.13,1.13,0,0,1-1.73,1.26l-3.54-2.57a1.13,1.13,0,0,1,0-1.83l3-2.15,0,0L37,20.4a.35.35,0,0,0,.14-.4.35.35,0,0,0-.35-.25H32.35a1.33,1.33,0,0,0-1.07.54L23.6,30.81A.52.52,0,0,1,23.19,31Zm9.52-6.51-2.59,1.87a.36.36,0,0,0-.15.3.35.35,0,0,0,.15.29l3.54,2.57a.36.36,0,0,0,.55-.4Z"/><path class="cls-2" d="M23.47,22.94a.34.34,0,0,1-.22-.07L20.63,21A1.13,1.13,0,0,1,21.29,19h3.2a.39.39,0,0,1,.39.39.38.38,0,0,1-.39.38h-3.2A.35.35,0,0,0,21,20a.34.34,0,0,0,.13.4l2.61,1.85a.38.38,0,0,1,.09.53A.37.37,0,0,1,23.47,22.94Z"/><path class="cls-2" d="M27,36.41a1.22,1.22,0,0,1-.61-.17l-6.67-3.78a.4.4,0,0,1-.2-.34V24a.39.39,0,0,1,.77,0V31.9l6.48,3.68a.48.48,0,0,0,.49,0l4.73-3a.39.39,0,0,1,.53.13.38.38,0,0,1-.13.52l-4.73,3A1.3,1.3,0,0,1,27,36.41Z"/><rect class="cls-3" width="320" height="50"/></svg>