<?xml version="1.0" encoding="utf-8"?>
<!-- Generator: Adobe Illustrator 24.0.3, SVG Export Plug-In . SVG Version: 6.00 Build 0)  -->
<svg version="1.1" id="Layer_1" xmlns="http://www.w3.org/2000/svg" xmlns:xlink="http://www.w3.org/1999/xlink" x="0px" y="0px"
	 viewBox="0 0 300 250" style="enable-background:new 0 0 300 250;" xml:space="preserve">
<style type="text/css">
	.st0{enable-background:new    ;}
	.st1{fill:#263845;}
	.st2{fill:none;}
</style>
<title>Artboard 8 copy</title>
<g class="st0">
	<path class="st1" d="M33.7,36.5l0.2,0.3l0.2,11.8c0,1.2,0.9,2.4,2.7,2.4v0.2h-6.2v-0.2c1.8,0,2.7-1.2,2.7-2.4L33.7,36.5z
		 M48.5,51.1h-3.1L33.7,33.6c-0.7-1.1-1.5-1.4-3-1.4V32h7.5l10.3,15.4V51.1z M48.5,44.6l-0.2-0.3l-0.3-9.8c0-1.2-0.9-2.4-2.7-2.4V32
		h6.2v0.2c-1.8,0-2.7,1.2-2.7,2.4L48.5,44.6z"/>
	<path class="st1" d="M63.8,32h5.3l-11.1,19h-5.3L63.8,32z M53.5,32H62l-0.1,0.2c-4.1,0.2-7.4,3.1-8.1,6.6h-0.2V32z M60,50.9
		c4.2-0.4,7.6-3,8.7-7.5h0.2v7.6h-9L60,50.9z"/>
</g>
<g class="st0">
	<path class="st1" d="M77,32.9c0,1.6-1.7,3.8-4.5,4.9l-0.1-0.3c0.8-0.6,1.6-1.7,1.6-2.7c0-1.3-0.9-1.8-1.9-1.8
		c0.2-1.7,1.2-2.5,2.7-2.5C75.9,30.5,77,31.4,77,32.9z"/>
</g>
<g class="st0">
	<path class="st1" d="M82.7,47.8c-0.9,0-1.6,0.6-1.6,1.4c0,0.8,0.6,1.8,2.5,2v0.2c-3.7-0.1-5.8-1.1-5.8-2.8c0-1.3,1.1-2.1,2.4-2.1
		C81.4,46.5,82.3,47.1,82.7,47.8z M83.7,37c-1,0.2-2,0.7-2,1.9c0.1,3.2,9.2,3.8,9.2,8.2c0,2.7-2.3,4.1-5.9,4.3v-0.2
		c1.2-0.2,2.5-0.6,2.5-2.1c0-2.9-9.2-4-9.2-8.2c0-2.5,2.3-3.9,5.5-4.1V37z M90.3,39.7c0,0.9-0.7,1.7-2.1,1.7c-1.2,0-2-0.5-2.4-1.3
		c0.8-0.1,1.3-0.6,1.3-1.3c0-0.8-1.1-1.7-2.2-1.8v-0.2C88,37,90.3,38.1,90.3,39.7z"/>
</g>
<g class="st0">
	<path class="st1" d="M30.5,61.6c2.6,0,4.7-0.3,6.7-1.1v19c0,0.7,0.4,1.4,2.1,1.4v0.2h-8.8v-0.2c1.7,0,2.1-0.7,2.1-1.4V63.3
		c0-1-0.5-1.5-2.1-1.5V61.6z"/>
	<path class="st1" d="M41,74c0-4.7,3.6-7.2,6.9-7.2V67c-1.7,0.2-2.1,1.6-2.1,6.9c0,4,1.8,6.2,4.3,6.2c1.6,0,2.8-0.4,4.1-1.5v0.2
		c-1.5,1.8-4.1,2.5-5.9,2.5C44.6,81.4,41,78.7,41,74z M47.3,72.9c2.5,0,3.5-0.8,3.5-3.1c0-1.3-0.6-2.6-1.8-2.7v-0.2
		c3.7,0,5.5,2.6,5.5,4.8c0,0.4-0.1,1-0.1,1.5h-7V72.9z"/>
	<path class="st1" d="M56.5,77.8c0-2.4,2.2-3.8,5.4-3.8h3v0.2H64c-2,0-3,1.3-3,3.1c0,1.5,0.4,2.7,1.8,2.7c0.8,0,1.4-0.4,2-1v0.2
		c-0.9,1.1-2.4,2.3-4.5,2.3C58.1,81.4,56.5,80,56.5,77.8z M57.6,69.9c0-1.4,1.3-2.9,5.1-3.1V67c-1.1,0.2-1.8,1.1-1.8,2
		c0,1,0.7,1.6,1.8,1.7c-0.4,0.8-1.6,1.3-2.7,1.3C58.5,72.1,57.6,71,57.6,69.9z M65.7,78.2v-8.6c0-1.4-0.5-2.5-1.9-2.7v-0.2
		c4.6,0.2,6.5,1.9,6.5,5.6v6.8c0,0.8,0.3,1.1,0.8,1.1c0.4,0,0.9-0.4,1.3-1.3h0.2c-0.4,1.5-2,2.3-3.6,2.3
		C66.7,81.4,65.7,80.6,65.7,78.2z"/>
	<path class="st1" d="M83.9,69v0.2c-0.6-0.7-1.5-1-2.3-1c-1.4,0-2.7,0.6-2.7,5.7c0,5,1.4,6,2.7,6c0.9,0,1.6-0.4,2.3-1v0.2
		c-0.7,1.2-2.5,2.3-4.1,2.3c-2.7,0-5.8-1.6-5.8-7.4c0-5.6,3.1-7.1,5.8-7.1C81.5,66.8,83.2,67.9,83.9,69z M89.4,79.2
		c0,0.8,0.3,1.1,0.8,1.1c0.4,0,0.9-0.4,1.3-1.3h0.2c-0.4,1.5-2,2.3-3.6,2.3c-2.2,0-3.2-0.8-3.2-3.2v-15c0-1-0.5-1.5-2.1-1.5v-0.2
		c2.6,0,4.3-0.3,6.7-1.1V79.2z"/>
	<path class="st1" d="M92.8,67.9c2.6,0,4.7-0.3,6.7-1.1v12.7c0,0.7,0.4,1.4,2.1,1.4v0.2h-8.8v-0.2c1.7,0,2.1-0.7,2.1-1.4v-10
		c0-1-0.5-1.5-2.1-1.5V67.9z M94.3,62.6c0-1.5,1.2-2.4,2.9-2.4c1.7,0,2.9,1,2.9,2.4c0,1.5-1.2,2.5-2.9,2.5
		C95.4,65.1,94.3,64.1,94.3,62.6z"/>
	<path class="st1" d="M102.8,80.9c1.7,0,2.1-0.7,2.1-1.4v-9.9c0-1-0.5-1.5-2.1-1.5v-0.2c2.6,0,4.7-0.3,6.7-1.1v12.7
		c0,0.7,0.4,1.4,2.1,1.4v0.2h-8.8V80.9z M112.7,80.9c1.7,0,2.1-0.7,2.1-1.4v-8.7c0-1.6-0.8-2.4-2.2-2.4c-0.8,0-1.5,0.3-2.1,0.9v-0.2
		c0.8-1.2,2.6-2.3,4.6-2.3c2.5,0,4.3,1.2,4.3,3.9v8.7c0,0.7,0.4,1.4,2.1,1.4v0.2h-8.8V80.9z"/>
	<path class="st1" d="M123.1,71.9c0-3.6,3.4-5,6.3-5.1V67c-1.2,0.1-1.8,1.6-1.8,4.8c0,3.4,0.6,4.8,1.8,4.9v0.2
		C126.5,76.8,123.1,75.5,123.1,71.9z M130.5,87.9c2.8-0.3,3.7-1.8,3.7-2.9c0-3.9-10.9-0.4-10.9-5.4c0-1.1,0.6-2,1.9-2.9l0.1,0.1
		c-0.2,0.1-0.3,0.3-0.3,0.5c0,3.1,12.8-0.5,12.8,5.6c0,2.9-2.5,4.8-7.3,5V87.9z M123.3,85.6c0-1.7,2-2.2,4.3-2.2
		c-0.5,0.2-1.2,1-1.2,2c0,1.3,1.5,2.3,3.1,2.5v0.2C126.4,88,123.3,87.4,123.3,85.6z M130.5,76.7c1.4-0.1,1.9-1.5,1.9-4.9
		c0-3.2-0.6-4.7-1.9-4.8v-0.2c3,0.1,6.4,1.4,6.4,5.1c0,3.6-3.4,5-6.4,5V76.7z M132.1,66.3c0.5-1.4,1.8-3.4,3.7-3.4
		c1.5,0,2.4,0.8,2.4,2.1c0,1.4-1.2,2.2-2.3,2.2c0-1.2-0.6-1.9-1.5-1.9c-0.8,0-1.8,0.5-2.2,1L132.1,66.3z"/>
</g>
<g class="st0">
	<path class="st1" d="M155.5,80.9v0.2h-9v-0.2c1.7,0,2.1-0.7,2.1-1.4V63.6c0-0.8-0.4-1.4-2.1-1.4V62h6.9v17.4
		C153.4,80.3,153.8,80.9,155.5,80.9z M166.4,79.1c-0.4,1.5-2.1,2.3-4.1,2.3c-3.6,0-4.5-2.5-4.6-4.9c-0.2-2.3-0.4-4.1-2.9-4.5v-0.2
		c2.6,0,3.7-2.2,3.7-5c0-3.1-1.1-4.6-3.7-4.6V62c5.7,0,8.5,1.3,8.5,4.8c0,3-2.2,4.9-6.4,5.1c5.1,0.2,5.9,2.2,6.2,4.5
		c0.3,2.3,0.9,3.9,1.8,3.9c0.5,0,1-0.4,1.4-1.3H166.4z"/>
</g>
<g class="st0">
	<path class="st1" d="M166.9,63.7c-0.5-1.1-1.1-1.5-2.5-1.5V62h10.1v0.2c-1.3,0-2.4,0.8-1.7,2.3l5.3,11.1l-2.5,5.7h-0.3L166.9,63.7z
		 M179.1,73.1c1.6-3.8,2-6,2-7.8c0-2-1.7-3.1-3.2-3.1V62h8.1v0.1c-1.3,0-2.1,1.2-3,3.1l-3.8,8.1L179.1,73.1z"/>
</g>
<g class="st0">
	<path class="st1" d="M30.7,97.9c2.6,0,4.7-0.3,6.7-1.1v12.7c0,0.7,0.4,1.4,2.1,1.4v0.2h-8.8v-0.2c1.7,0,2.1-0.7,2.1-1.4v-10
		c0-1-0.5-1.5-2.1-1.5V97.9z M32.2,92.6c0-1.5,1.2-2.4,2.9-2.4c1.7,0,2.9,1,2.9,2.4c0,1.5-1.2,2.5-2.9,2.5
		C33.3,95.1,32.2,94.1,32.2,92.6z"/>
	<path class="st1" d="M40.7,110.9c1.7,0,2.1-0.7,2.1-1.4v-9.9c0-1-0.5-1.5-2.1-1.5v-0.2c2.6,0,4.7-0.3,6.7-1.1v12.7
		c0,0.7,0.4,1.4,2.1,1.4v0.2h-8.8V110.9z M50.6,110.9c1.7,0,2.1-0.7,2.1-1.4v-8.7c0-1.6-0.8-2.4-2.2-2.4c-0.8,0-1.5,0.3-2.1,0.9
		v-0.2c0.8-1.2,2.6-2.3,4.6-2.3c2.5,0,4.3,1.2,4.3,3.9v8.7c0,0.7,0.4,1.4,2.1,1.4v0.2h-8.8V110.9z"/>
	<path class="st1" d="M65.7,107.8c-0.9,0-1.6,0.6-1.6,1.4c0,0.8,0.6,1.8,2.5,2v0.2c-3.7-0.1-5.8-1.1-5.8-2.8c0-1.3,1.1-2.1,2.4-2.1
		C64.4,106.5,65.3,107.1,65.7,107.8z M66.7,97c-1,0.2-2,0.7-2,1.9c0.1,3.2,9.2,3.8,9.2,8.2c0,2.7-2.3,4.1-5.9,4.3v-0.2
		c1.2-0.2,2.5-0.6,2.5-2.1c0-2.9-9.2-4-9.2-8.2c0-2.5,2.3-3.9,5.5-4.1V97z M73.3,99.7c0,0.9-0.7,1.7-2.1,1.7c-1.2,0-2-0.5-2.4-1.3
		c0.8-0.1,1.3-0.6,1.3-1.3c0-0.8-1.1-1.7-2.2-1.8v-0.2C71,97,73.3,98.1,73.3,99.7z"/>
	<path class="st1" d="M82.1,107.4c0,1.6,0.5,2.4,1.9,2.4c0.7,0,1.3-0.2,1.9-0.9v0.2c-0.6,1.2-2.1,2.3-4.3,2.3
		c-2.5,0-4.1-1.2-4.1-3.9v-7.9c0-1-0.5-1.5-2.1-1.5v-0.2c2.6,0,4.7-0.3,6.7-1.1V107.4z M91.4,109.2c0,0.8,0.3,1.1,0.8,1.1
		c0.4,0,0.9-0.4,1.3-1.3h0.2c-0.4,1.5-2,2.3-3.8,2.3c-2,0-3.1-1.1-3.1-2.7v-9.1c0-1-0.5-1.5-2-1.5v-0.2c2.5,0,4.3-0.3,6.6-1.1V109.2
		z"/>
</g>
<g class="st0">
	<path class="st1" d="M101.5,109.5c0,0.7,0.4,1.4,2.1,1.4v0.2h-8.8v-0.2c1.7,0,2.1-0.7,2.1-1.4v-9.9c0-1-0.5-1.5-2.1-1.5v-0.2
		c2.6,0,4.7-0.3,6.7-1.1V109.5z M109,99.8c0,1.9-1.4,3.2-2.9,3.2c-0.7,0-1.3-0.2-1.6-0.6c0.5-0.3,1.1-0.9,1.1-1.9
		c0-0.8-0.6-1.5-1.6-1.5c-0.7,0-1.3,0.4-1.7,1.1v-0.2c0.5-1.8,1.9-3,3.6-3C108,96.8,109,98.2,109,99.8z"/>
</g>
<g class="st0">
	<path class="st1" d="M110.2,107.8c0-2.4,2.2-3.8,5.4-3.8h3v0.2h-0.8c-2,0-3,1.3-3,3.1c0,1.5,0.4,2.7,1.8,2.7c0.8,0,1.4-0.4,2-1v0.2
		c-0.9,1.1-2.4,2.3-4.5,2.3C111.8,111.4,110.2,110,110.2,107.8z M111.4,99.9c0-1.4,1.3-2.9,5.1-3.1V97c-1.1,0.2-1.8,1.1-1.8,2
		c0,1,0.7,1.6,1.8,1.7c-0.4,0.8-1.6,1.3-2.7,1.3C112.3,102.1,111.4,101,111.4,99.9z M119.5,108.2v-8.6c0-1.4-0.5-2.5-1.9-2.7v-0.2
		c4.6,0.2,6.5,1.9,6.5,5.6v6.8c0,0.8,0.3,1.1,0.8,1.1c0.4,0,0.9-0.4,1.3-1.3h0.2c-0.4,1.5-2,2.3-3.6,2.3
		C120.5,111.4,119.5,110.6,119.5,108.2z"/>
	<path class="st1" d="M127.2,110.9c1.7,0,2.1-0.7,2.1-1.4v-9.9c0-1-0.5-1.5-2.1-1.5v-0.2c2.6,0,4.7-0.3,6.7-1.1v12.7
		c0,0.7,0.4,1.4,2.1,1.4v0.2h-8.8V110.9z M137.1,110.9c1.7,0,2.1-0.7,2.1-1.4v-8.7c0-1.6-0.8-2.4-2.2-2.4c-0.8,0-1.5,0.3-2.1,0.9
		v-0.2c0.8-1.2,2.6-2.3,4.6-2.3c2.5,0,4.3,1.2,4.3,3.9v8.7c0,0.7,0.4,1.4,2.1,1.4v0.2h-8.8V110.9z"/>
	<path class="st1" d="M154.6,97c-1.7,0.2-2.4,1.6-2.4,6.9c0,4,2,6.2,4.5,6.2c1.6,0,2.8-0.4,4.1-1.5v0.2c-1.5,1.8-4.1,2.5-5.9,2.5
		c-3.6,0-7.5-2.6-7.5-7.3s3.9-7.2,7.2-7.2V97z M160.8,100c0,1.5-1,2.7-2.8,2.7c-1.4,0-2.3-0.9-2.4-1.8c0.8-0.3,1.3-1.3,1.3-2
		c0-0.6-0.2-1.7-1.2-1.8v-0.2C159.4,96.8,160.8,98.4,160.8,100z"/>
	<path class="st1" d="M162.9,104c0-4.7,3.6-7.2,6.9-7.2V97c-1.7,0.2-2.1,1.6-2.1,6.9c0,4,1.8,6.2,4.3,6.2c1.6,0,2.8-0.4,4.1-1.5v0.2
		c-1.5,1.8-4.1,2.5-5.9,2.5C166.5,111.4,162.9,108.7,162.9,104z M169.2,102.9c2.5,0,3.5-0.8,3.5-3.1c0-1.3-0.6-2.6-1.8-2.7v-0.2
		c3.7,0,5.5,2.6,5.5,4.8c0,0.4-0.1,1-0.1,1.5h-7V102.9z"/>
</g>
<rect y="0" class="st2" width="300" height="250"/>
</svg>
