<?xml version="1.0" encoding="utf-8"?>
<!-- Generator: Adobe Illustrator 24.0.3, SVG Export Plug-In . SVG Version: 6.00 Build 0)  -->
<svg version="1.1" id="Layer_1" xmlns="http://www.w3.org/2000/svg" xmlns:xlink="http://www.w3.org/1999/xlink" x="0px" y="0px"
	 viewBox="0 0 300 250" style="enable-background:new 0 0 300 250;" xml:space="preserve">
<style type="text/css">
	.st0{clip-path:url(#SVGID_2_);}
	.st1{enable-background:new    ;}
	.st2{fill:#263845;}
</style>
<title>Artboard 8 copy</title>
<g>
	<defs>
		<rect id="SVGID_1_" y="0" width="300" height="250"/>
	</defs>
	<clipPath id="SVGID_2_">
		<use xlink:href="#SVGID_1_"  style="overflow:visible;"/>
	</clipPath>
	<g class="st0">
		<g class="st1">
			<path class="st2" d="M22.8,34.4l0.3,0.4l0.3,13.4c0,1.4,1,2.7,3.1,2.7v0.2h-7v-0.2c2.1,0,3.1-1.3,3.1-2.7L22.8,34.4z M39.8,51.1
				h-3.6L22.8,31.2c-0.8-1.2-1.8-1.6-3.4-1.6v-0.2H28L39.8,47V51.1z M39.7,43.7l-0.3-0.4l-0.4-11.2c0-1.4-1-2.7-3.1-2.7v-0.2h7v0.2
				c-2.1,0-3.1,1.3-3.1,2.7L39.7,43.7z"/>
			<path class="st2" d="M57.3,29.3h6.1L50.7,51.1h-6.1L57.3,29.3z M45.5,29.3h9.7l-0.1,0.2c-4.7,0.3-8.5,3.5-9.3,7.5h-0.3V29.3z
				 M52.9,50.9c4.8-0.4,8.7-3.4,10-8.5h0.3v8.7H52.8L52.9,50.9z"/>
		</g>
		<g class="st1">
			<path class="st2" d="M72.3,30.4c0,1.9-2,4.3-5.2,5.6L67,35.7c0.9-0.7,1.8-2,1.8-3.1c0-1.4-1-2.1-2.2-2.1c0.3-1.9,1.4-2.9,3-2.9
				C71.1,27.6,72.3,28.6,72.3,30.4z"/>
		</g>
		<g class="st1">
			<path class="st2" d="M78.9,47.3c-1.1,0-1.8,0.6-1.8,1.6c0,0.9,0.6,2.1,2.8,2.3v0.2c-4.3-0.2-6.6-1.3-6.6-3.2
				c0-1.5,1.3-2.4,2.7-2.4C77.3,45.9,78.4,46.5,78.9,47.3z M79.9,35c-1.2,0.2-2.3,0.8-2.3,2.1c0.1,3.7,10.5,4.3,10.5,9.4
				c0,3.1-2.6,4.7-6.8,4.9v-0.2c1.3-0.2,2.8-0.7,2.8-2.4c0-3.3-10.5-4.5-10.5-9.4c0-2.8,2.7-4.5,6.2-4.7V35z M87.5,38.1
				c0,1-0.8,2-2.4,2c-1.3,0-2.3-0.6-2.7-1.5c1-0.1,1.5-0.7,1.4-1.5c0-1-1.2-1.9-2.5-2v-0.2C85,35,87.5,36.3,87.5,38.1z"/>
		</g>
		<g class="st1">
			<path class="st2" d="M19.2,60.8c3,0,5.4-0.3,7.6-1.2v21.7c0,0.8,0.5,1.6,2.4,1.6v0.2H19.2v-0.2c1.9,0,2.4-0.8,2.4-1.6V62.7
				c0-1.2-0.5-1.7-2.4-1.7V60.8z"/>
			<path class="st2" d="M31.2,75c0-5.4,4.1-8.2,7.8-8.3V67c-1.9,0.2-2.4,1.8-2.4,7.9c0,4.6,2,7.1,4.9,7.1c1.8,0,3.2-0.5,4.7-1.7v0.2
				c-1.7,2.1-4.7,2.9-6.8,2.9C35.3,83.4,31.2,80.4,31.2,75z M38.4,73.7c2.8,0,4-0.9,4-3.6c0-1.5-0.6-2.9-2.1-3.1v-0.2
				c4.2,0,6.3,3,6.3,5.4c0,0.5-0.1,1.2-0.2,1.7h-8V73.7z"/>
			<path class="st2" d="M48.9,79.3c0-2.8,2.6-4.4,6.1-4.4h3.5v0.2h-1c-2.3,0-3.4,1.5-3.4,3.5c0,1.8,0.5,3.1,2,3.1
				c0.9,0,1.6-0.5,2.3-1.1v0.2c-1.1,1.2-2.8,2.6-5.1,2.6C50.7,83.4,48.9,81.9,48.9,79.3z M50.2,70.3c0-1.6,1.5-3.3,5.8-3.5V67
				c-1.3,0.2-2,1.2-2,2.3c0,1.2,0.8,1.9,2.1,2c-0.5,0.9-1.8,1.5-3.1,1.5C51.2,72.8,50.2,71.6,50.2,70.3z M59.5,79.8V70
				c0-1.6-0.6-2.8-2.2-3v-0.2c5.3,0.2,7.4,2.2,7.4,6.4v7.8c0,0.9,0.3,1.3,0.9,1.3c0.5,0,1-0.5,1.5-1.4h0.2c-0.5,1.8-2.2,2.6-4.2,2.6
				C60.6,83.4,59.5,82.5,59.5,79.8z"/>
			<path class="st2" d="M80.3,69.3v0.3c-0.7-0.8-1.7-1.2-2.7-1.2c-1.6,0-3.1,0.7-3.1,6.5c0,5.8,1.6,6.8,3.1,6.8c1,0,1.9-0.5,2.7-1.1
				v0.2c-0.8,1.3-2.8,2.6-4.6,2.6c-3,0-6.6-1.8-6.6-8.5c0-6.4,3.5-8.2,6.6-8.2C77.4,66.8,79.5,68,80.3,69.3z M86.5,80.9
				c0,0.9,0.3,1.3,0.9,1.3c0.5,0,1-0.5,1.5-1.4h0.2c-0.5,1.8-2.2,2.6-4.2,2.6c-2.6,0-3.7-0.9-3.7-3.6V62.7c0-1.2-0.5-1.7-2.4-1.7
				v-0.2c3,0,5-0.3,7.6-1.2V80.9z"/>
			<path class="st2" d="M90.4,68c3,0,5.4-0.3,7.6-1.2v14.5c0,0.8,0.5,1.6,2.4,1.6v0.2H90.4v-0.2c1.9,0,2.4-0.8,2.4-1.6V69.9
				c0-1.2-0.5-1.7-2.4-1.7V68z M92.1,62c0-1.7,1.3-2.8,3.3-2.8s3.3,1.1,3.3,2.8c0,1.7-1.3,2.8-3.3,2.8S92.1,63.7,92.1,62z"/>
			<path class="st2" d="M101.8,82.9c1.9,0,2.4-0.8,2.4-1.6V69.9c0-1.2-0.5-1.7-2.4-1.7V68c3,0,5.4-0.3,7.6-1.2v14.5
				c0,0.8,0.5,1.6,2.4,1.6v0.2h-10.1V82.9z M113.1,82.9c1.9,0,2.4-0.8,2.4-1.6v-10c0-1.8-0.9-2.7-2.5-2.7c-0.9,0-1.7,0.3-2.4,1v-0.2
				c0.9-1.3,2.9-2.6,5.3-2.6c2.9,0,4.9,1.3,4.9,4.5v10c0,0.8,0.5,1.6,2.4,1.6v0.2h-10V82.9z"/>
			<path class="st2" d="M125,72.6c0-4.2,3.9-5.7,7.2-5.8V67c-1.4,0.1-2,1.8-2,5.5c0,3.9,0.6,5.4,2,5.6v0.2
				C129,78.2,125,76.7,125,72.6z M133.5,90.9c3.2-0.4,4.2-2.1,4.2-3.3c0-4.4-12.5-0.5-12.5-6.2c0-1.3,0.7-2.3,2.1-3.3l0.1,0.2
				c-0.2,0.1-0.3,0.4-0.3,0.6c0,3.6,14.6-0.6,14.6,6.4c0,3.3-2.8,5.4-8.3,5.8V90.9z M125.3,88.2c0-1.9,2.3-2.5,4.9-2.5
				c-0.6,0.3-1.4,1.2-1.4,2.3c0,1.5,1.7,2.6,3.5,2.9v0.2C128.8,91,125.3,90.3,125.3,88.2z M133.5,78c1.6-0.1,2.2-1.7,2.2-5.6
				c0-3.7-0.7-5.4-2.2-5.5v-0.2c3.4,0.1,7.3,1.6,7.3,5.8c0,4.1-3.9,5.7-7.3,5.7V78z M135.3,66.2c0.5-1.6,2-3.8,4.2-3.8
				c1.7,0,2.7,0.9,2.7,2.4c0,1.6-1.4,2.5-2.6,2.5c0-1.3-0.7-2.1-1.7-2.1c-1,0-2,0.6-2.5,1.2L135.3,66.2z"/>
		</g>
		<g class="st1">
			<path class="st2" d="M162.1,82.9v0.2h-10.3v-0.2c1.9,0,2.4-0.8,2.4-1.6V63.1c0-0.9-0.5-1.6-2.4-1.6v-0.2h7.8v19.9
				C159.6,82.1,160.1,82.9,162.1,82.9z M174.6,80.8c-0.5,1.8-2.4,2.6-4.7,2.6c-4.2,0-5.1-2.9-5.3-5.6c-0.2-2.6-0.4-4.7-3.3-5.1v-0.2
				c2.9,0,4.3-2.6,4.3-5.8c0-3.6-1.3-5.3-4.3-5.3v-0.2c6.5,0,9.7,1.4,9.7,5.5c0,3.5-2.6,5.6-7.3,5.9c5.8,0.3,6.7,2.5,7,5.2
				c0.3,2.6,1,4.4,2.1,4.4c0.6,0,1.1-0.5,1.6-1.4H174.6z"/>
		</g>
		<g class="st1">
			<path class="st2" d="M175.1,63.2c-0.6-1.2-1.3-1.7-2.9-1.7v-0.2h11.6v0.2c-1.5,0-2.8,1-2,2.6l6,12.7l-2.9,6.5h-0.4L175.1,63.2z
				 M189,73.9c1.9-4.3,2.3-6.9,2.3-8.9c0-2.3-2-3.5-3.6-3.5v-0.2h9.2v0.1c-1.5,0-2.4,1.4-3.4,3.6l-4.4,9.2L189,73.9z"/>
		</g>
		<g class="st1">
			<path class="st2" d="M19.5,100c3,0,5.4-0.3,7.6-1.2v14.5c0,0.8,0.5,1.6,2.4,1.6v0.2H19.4v-0.2c1.9,0,2.4-0.8,2.4-1.6v-11.4
				c0-1.2-0.5-1.7-2.4-1.7V100z M21.1,94c0-1.7,1.3-2.8,3.3-2.8s3.3,1.1,3.3,2.8c0,1.7-1.3,2.8-3.3,2.8S21.1,95.7,21.1,94z"/>
			<path class="st2" d="M30.8,114.9c1.9,0,2.4-0.8,2.4-1.6v-11.4c0-1.2-0.5-1.7-2.4-1.7V100c3,0,5.4-0.3,7.6-1.2v14.5
				c0,0.8,0.5,1.6,2.4,1.6v0.2H30.8V114.9z M42.1,114.9c1.9,0,2.4-0.8,2.4-1.6v-10c0-1.8-0.9-2.7-2.5-2.7c-0.9,0-1.7,0.3-2.4,1v-0.2
				c0.9-1.3,2.9-2.6,5.3-2.6c2.9,0,4.9,1.3,4.9,4.5v10c0,0.8,0.5,1.6,2.4,1.6v0.2h-10V114.9z"/>
			<path class="st2" d="M59.5,111.3c-1.1,0-1.8,0.6-1.8,1.6c0,0.9,0.6,2.1,2.8,2.3v0.2c-4.3-0.2-6.6-1.3-6.6-3.2
				c0-1.5,1.3-2.4,2.7-2.4C57.9,109.9,59,110.5,59.5,111.3z M60.5,99c-1.2,0.2-2.3,0.8-2.3,2.1c0.1,3.7,10.5,4.3,10.5,9.4
				c0,3.1-2.6,4.7-6.8,4.9v-0.2c1.3-0.2,2.8-0.7,2.8-2.4c0-3.3-10.5-4.5-10.5-9.4c0-2.8,2.7-4.5,6.2-4.7V99z M68.1,102.1
				c0,1-0.8,2-2.4,2c-1.3,0-2.3-0.6-2.7-1.5c1-0.1,1.5-0.7,1.4-1.5c0-1-1.2-1.9-2.5-2v-0.2C65.5,99,68.1,100.3,68.1,102.1z"/>
			<path class="st2" d="M78.1,110.9c0,1.8,0.6,2.7,2.2,2.7c0.8,0,1.5-0.3,2.2-1v0.2c-0.7,1.4-2.4,2.6-5,2.6c-2.9,0-4.7-1.3-4.7-4.5
				v-9c0-1.2-0.5-1.7-2.4-1.7V100c3,0,5.4-0.3,7.6-1.2V110.9z M88.8,112.9c0,0.9,0.3,1.3,0.9,1.3c0.5,0,1-0.5,1.5-1.4h0.2
				c-0.5,1.8-2.2,2.6-4.4,2.6c-2.2,0-3.5-1.3-3.5-3.1v-10.4c0-1.2-0.5-1.7-2.3-1.7V100c2.9,0,4.9-0.3,7.6-1.2V112.9z"/>
		</g>
		<g class="st1">
			<path class="st2" d="M100.3,113.3c0,0.8,0.5,1.6,2.4,1.6v0.2H92.6v-0.2c1.9,0,2.4-0.8,2.4-1.6v-11.4c0-1.2-0.5-1.7-2.4-1.7V100
				c3,0,5.4-0.3,7.6-1.2V113.3z M109,102.2c0,2.2-1.6,3.6-3.3,3.6c-0.8,0-1.4-0.2-1.8-0.7c0.6-0.3,1.2-1,1.2-2.2
				c0-0.9-0.7-1.7-1.8-1.7c-0.8,0-1.5,0.5-1.9,1.2v-0.3c0.6-2,2.2-3.5,4.2-3.5C107.7,98.8,109,100.3,109,102.2z"/>
		</g>
		<g class="st1">
			<path class="st2" d="M110.3,111.3c0-2.8,2.6-4.4,6.1-4.4h3.5v0.2h-1c-2.3,0-3.4,1.5-3.4,3.5c0,1.8,0.5,3.1,2,3.1
				c0.9,0,1.6-0.5,2.3-1.1v0.2c-1.1,1.2-2.8,2.6-5.1,2.6C112.1,115.4,110.3,113.9,110.3,111.3z M111.6,102.3c0-1.6,1.5-3.3,5.8-3.5
				V99c-1.3,0.2-2,1.2-2,2.3c0,1.2,0.8,1.9,2.1,2c-0.5,0.9-1.8,1.5-3.1,1.5C112.6,104.8,111.6,103.6,111.6,102.3z M120.9,111.8V102
				c0-1.6-0.6-2.8-2.2-3v-0.2c5.3,0.2,7.4,2.2,7.4,6.4v7.8c0,0.9,0.3,1.3,0.9,1.3c0.5,0,1-0.5,1.5-1.4h0.2c-0.5,1.8-2.2,2.6-4.2,2.6
				C122,115.4,120.9,114.5,120.9,111.8z"/>
			<path class="st2" d="M129.8,114.9c1.9,0,2.4-0.8,2.4-1.6v-11.4c0-1.2-0.5-1.7-2.4-1.7V100c3,0,5.4-0.3,7.6-1.2v14.5
				c0,0.8,0.5,1.6,2.4,1.6v0.2h-10.1V114.9z M141,114.9c1.9,0,2.4-0.8,2.4-1.6v-10c0-1.8-0.9-2.7-2.5-2.7c-0.9,0-1.7,0.3-2.4,1v-0.2
				c0.9-1.3,2.9-2.6,5.3-2.6c2.9,0,4.9,1.3,4.9,4.5v10c0,0.8,0.5,1.6,2.4,1.6v0.2h-10V114.9z"/>
			<path class="st2" d="M161,99c-1.9,0.2-2.7,1.8-2.7,7.9c0,4.6,2.3,7.1,5.2,7.1c1.8,0,3.2-0.5,4.7-1.7v0.2
				c-1.7,2.1-4.7,2.9-6.8,2.9c-4.1,0-8.5-3-8.5-8.4s4.4-8.2,8.2-8.3V99z M168.1,102.4c0,1.7-1.2,3.1-3.2,3.1c-1.6,0-2.6-1-2.8-2
				c0.9-0.4,1.5-1.5,1.5-2.3c0-0.7-0.2-1.9-1.4-2.1v-0.2C166.5,98.8,168.1,100.6,168.1,102.4z"/>
			<path class="st2" d="M170.5,107c0-5.4,4.1-8.2,7.8-8.3V99c-1.9,0.2-2.4,1.8-2.4,7.9c0,4.6,2,7.1,4.9,7.1c1.8,0,3.2-0.5,4.7-1.7
				v0.2c-1.7,2.1-4.7,2.9-6.8,2.9C174.6,115.4,170.5,112.4,170.5,107z M177.7,105.7c2.8,0,4-0.9,4-3.6c0-1.5-0.6-2.9-2.1-3.1v-0.2
				c4.2,0,6.3,3,6.3,5.4c0,0.5-0.1,1.2-0.2,1.7h-8V105.7z"/>
		</g>
	</g>
</g>
</svg>
