<?xml version="1.0" encoding="utf-8"?>
<!-- Generator: Adobe Illustrator 24.0.3, SVG Export Plug-In . SVG Version: 6.00 Build 0)  -->
<svg version="1.1" id="Layer_1" xmlns="http://www.w3.org/2000/svg" xmlns:xlink="http://www.w3.org/1999/xlink" x="0px" y="0px"
	 viewBox="0 0 300 250" style="enable-background:new 0 0 300 250;" xml:space="preserve">
<style type="text/css">
	.st0{clip-path:url(#SVGID_2_);}
	.st1{enable-background:new    ;}
	.st2{fill:#FFFFFF;}
</style>
<title>Artboard 1 copy</title>
<g>
	<defs>
		<rect id="SVGID_1_" y="0" width="300" height="250"/>
	</defs>
	<clipPath id="SVGID_2_">
		<use xlink:href="#SVGID_1_"  style="overflow:visible;"/>
	</clipPath>
	<g class="st0">
		<g class="st1">
			<path class="st2" d="M44.3,51l0.1,0.3c-1.7,2.7-4.6,3.9-7.7,3.9C31.5,55.2,25,51.4,25,44c0-8.1,6.3-11.1,10.9-11.2v0.2
				c-2.2,0.5-4.7,2.6-4.7,10.8c0,8.2,3.3,10.1,6.9,10.1C41.1,53.9,43.2,52.4,44.3,51z M44.5,32.8v7.8h-0.3c-1.2-4.3-3.6-6.7-6.8-7.6
				v-0.2c2.8,0.1,4.5,0.6,5.8,1.5l1-1.5H44.5z"/>
			<path class="st2" d="M47,51.1c0-2.8,2.6-4.4,6.1-4.4h3.5v0.2h-1c-2.3,0-3.4,1.5-3.4,3.5c0,1.8,0.5,3.1,2,3.1
				c0.9,0,1.6-0.5,2.3-1.1v0.2c-1.1,1.2-2.8,2.6-5.1,2.6C48.8,55.2,46.9,53.6,47,51.1z M48.2,42c0-1.6,1.5-3.3,5.8-3.5v0.2
				c-1.3,0.2-2,1.2-2,2.3c0,1.2,0.8,1.9,2.1,2c-0.5,0.9-1.8,1.5-3.1,1.5C49.3,44.5,48.2,43.3,48.2,42z M57.5,51.5v-9.8
				c0-1.6-0.6-2.8-2.2-3v-0.2c5.3,0.2,7.4,2.2,7.4,6.4v7.8c0,0.9,0.3,1.3,0.9,1.3c0.5,0,1-0.5,1.5-1.4h0.2c-0.5,1.8-2.2,2.6-4.2,2.6
				C58.7,55.2,57.5,54.3,57.5,51.5z"/>
			<path class="st2" d="M66.2,32.6c3,0,5.4-0.3,7.6-1.2V53c0,0.8,0.5,1.6,2.4,1.6v0.2H66.2v-0.2c1.9,0,2.4-0.8,2.4-1.6V34.4
				c0-1.2-0.5-1.7-2.4-1.7V32.6z"/>
			<path class="st2" d="M77.5,32.6c3,0,5.4-0.3,7.6-1.2V53c0,0.8,0.5,1.6,2.4,1.6v0.2H77.4v-0.2c1.9,0,2.4-0.8,2.4-1.6V34.4
				c0-1.2-0.5-1.7-2.4-1.7V32.6z"/>
		</g>
		<g class="st1">
			<path class="st2" d="M96.8,40.1C96.4,39.5,96,39,95,39v-0.2h9V39c-1.1,0-1.6,0.8-1,1.9l4.2,8.7l-2.8,5.2h-0.2L96.8,40.1z
				 M95.4,60c0-1.4,1.1-2.5,2.8-3c-0.1,0.3-0.1,0.5-0.1,0.8c0,1.2,0.6,2.1,1.9,2.1c1.1,0,2-1.2,3.2-3.2h0.2c-1.8,3.3-3,6.1-5.2,6.1
				C96.4,62.8,95.4,61.6,95.4,60z M108.5,46.5c0.5-1,0.9-2.4,0.9-4.1c0-1.8-1-3.4-3.3-3.4v-0.2h8V39c-1.1,0-1.5,0.4-2.1,1.5
				l-3.3,6.3L108.5,46.5z"/>
		</g>
		<g class="st1">
			<path class="st2" d="M122.2,38.7c-1.9,0.2-2.5,1.8-2.5,8.1c0,6,0.6,8,2.5,8.2v0.2c-3.7,0-8-3-8-8.4s4.2-8.2,8-8.3V38.7z
				 M131.4,46.8c0,5.3-4.3,8.4-7.9,8.4V55c1.9-0.2,2.5-2.2,2.5-8.2c0-6.3-0.6-7.9-2.5-8.1v-0.2C127.2,38.5,131.4,41.4,131.4,46.8z"
				/>
			<path class="st2" d="M140.9,50.6c0,1.8,0.6,2.7,2.2,2.7c0.8,0,1.5-0.3,2.2-1v0.2c-0.7,1.4-2.4,2.6-5,2.6c-2.9,0-4.7-1.3-4.7-4.5
				v-9c0-1.2-0.5-1.7-2.4-1.7v-0.2c3,0,5.4-0.3,7.6-1.2V50.6z M151.5,52.7c0,0.9,0.3,1.3,0.9,1.3c0.5,0,1-0.5,1.5-1.4h0.2
				c-0.5,1.8-2.2,2.6-4.4,2.6c-2.2,0-3.5-1.3-3.5-3.1V41.6c0-1.2-0.5-1.7-2.3-1.7v-0.2c2.9,0,4.9-0.3,7.6-1.2V52.7z"/>
		</g>
		<g class="st1">
			<path class="st2" d="M163.1,53c0,0.8,0.5,1.6,2.4,1.6v0.2h-10.1v-0.2c1.9,0,2.4-0.8,2.4-1.6V41.6c0-1.2-0.5-1.7-2.4-1.7v-0.2
				c3,0,5.4-0.3,7.6-1.2V53z M171.7,42c0,2.2-1.6,3.6-3.3,3.6c-0.8,0-1.4-0.2-1.8-0.7c0.6-0.3,1.2-1,1.2-2.2c0-0.9-0.7-1.7-1.8-1.7
				c-0.8,0-1.5,0.5-1.9,1.2V42c0.6-2,2.2-3.5,4.2-3.5C170.5,38.5,171.7,40,171.7,42z"/>
		</g>
		<g class="st1">
			<path class="st2" d="M31.4,82.8c0,3-2.1,4.4-5.3,4.4V66.4c0-1.2-0.6-1.7-2.4-1.7v-0.2c3,0,5-0.3,7.7-1.2V82.8z M43.5,78.7
				c0,6.7-3.6,8.5-6.6,8.5c-1.8,0-3.8-1.2-4.6-2.6v-0.2c0.8,0.6,1.6,1.1,2.7,1.1c1.5,0,3.1-1.1,3.1-6.8c0-5.8-1.5-6.5-3.1-6.5
				c-1,0-1.9,0.4-2.7,1.2v-0.3c0.8-1.3,2.8-2.6,4.6-2.6C40.1,70.5,43.5,72.3,43.5,78.7z"/>
		</g>
		<g class="st1">
			<path class="st2" d="M53.5,85c0,0.8,0.5,1.6,2.4,1.6v0.2H45.8v-0.2c1.9,0,2.4-0.8,2.4-1.6V73.6c0-1.2-0.5-1.7-2.4-1.7v-0.2
				c3,0,5.4-0.3,7.6-1.2V85z M62.1,74c0,2.2-1.6,3.6-3.3,3.6c-0.8,0-1.4-0.2-1.8-0.7c0.6-0.3,1.2-1,1.2-2.2c0-0.9-0.7-1.7-1.8-1.7
				c-0.8,0-1.5,0.5-1.9,1.2V74c0.6-2,2.2-3.5,4.2-3.5C60.9,70.5,62.1,72,62.1,74z"/>
		</g>
		<g class="st1">
			<path class="st2" d="M71.8,70.7c-1.9,0.2-2.5,1.8-2.5,8.1c0,6,0.6,8,2.5,8.2v0.2c-3.7,0-8-3-8-8.4s4.2-8.2,8-8.3V70.7z M81,78.8
				c0,5.3-4.3,8.4-7.9,8.4V87c1.9-0.2,2.5-2.2,2.5-8.2c0-6.3-0.6-7.9-2.5-8.1v-0.2C76.8,70.5,81,73.4,81,78.8z"/>
		</g>
		<g class="st1">
			<path class="st2" d="M93,86.6v0.2H82.9v-0.2c1.9,0,2.4-0.8,2.4-1.6V66.4c0-1.2-0.5-1.7-2.4-1.7v-0.2c3,0,5.4-0.3,7.6-1.2V85
				C90.6,85.8,91.1,86.6,93,86.6z M103.9,86.6v0.2c-0.9,0.3-2.1,0.3-3.2,0.3c-2,0-4.1-0.4-5.8-3.1l-3-5c2.5-2.2,4.9-4.9,4.9-6.5
				c0-0.9-0.4-1.5-1.9-1.5v-0.2h8.2V71c-0.7,0-1.3,0.2-1.8,0.6l-5.9,4.6l5.5,8.6C102,86.4,102.8,86.5,103.9,86.6z"/>
		</g>
		<g class="st1">
			<path class="st2" d="M104.1,78.8c0-5.4,4.1-8.2,7.8-8.3v0.2c-1.9,0.2-2.4,1.8-2.4,7.9c0,4.6,2,7.1,4.9,7.1c1.8,0,3.2-0.5,4.7-1.7
				v0.2c-1.7,2.1-4.7,2.9-6.8,2.9C108.2,87.2,104.1,84.1,104.1,78.8z M111.3,77.4c2.8,0,4-0.9,4-3.6c0-1.5-0.6-2.9-2.1-3.1v-0.2
				c4.2,0,6.3,3,6.3,5.4c0,0.5-0.1,1.2-0.2,1.7h-8V77.4z"/>
		</g>
		<g class="st1">
			<path class="st2" d="M129.2,85c0,0.8,0.5,1.6,2.4,1.6v0.2h-10.1v-0.2c1.9,0,2.4-0.8,2.4-1.6V73.6c0-1.2-0.5-1.7-2.4-1.7v-0.2
				c3,0,5.4-0.3,7.6-1.2V85z M137.8,74c0,2.2-1.6,3.6-3.3,3.6c-0.8,0-1.4-0.2-1.8-0.7c0.6-0.3,1.2-1,1.2-2.2c0-0.9-0.7-1.7-1.8-1.7
				c-0.8,0-1.5,0.5-1.9,1.2V74c0.6-2,2.2-3.5,4.2-3.5C136.6,70.5,137.8,72,137.8,74z"/>
		</g>
		<g class="st1">
			<path class="st2" d="M157.6,71.7l-0.4,0.5h-3.1V85c0,0.8,0.5,1.6,2.4,1.6v0.2h-10.1v-0.2c1.9,0,2.4-0.8,2.4-1.6V72.1h-2.1
				l0.4-0.5h1.7v-1.4c0-4.5,2.4-6.5,5.3-6.9v0.2c-1.1,0.4-1.9,1.4-1.9,3.4C152.2,68.8,153.5,71.7,157.6,71.7z M160.3,66.8
				c0,1.8-1.3,2.8-2.8,2.8c-1.7,0-2.8-1-3.2-2.1c1.4,0,2.3-0.8,2.3-2c0-0.9-0.4-1.7-1.2-1.9v-0.2C158.8,63.4,160.3,64.9,160.3,66.8z
				"/>
		</g>
		<g class="st1">
			<path class="st2" d="M167.1,70.7c-1.9,0.2-2.5,1.8-2.5,8.1c0,6,0.6,8,2.5,8.2v0.2c-3.7,0-8-3-8-8.4s4.2-8.2,8-8.3V70.7z
				 M176.3,78.8c0,5.3-4.3,8.4-7.9,8.4V87c1.9-0.2,2.5-2.2,2.5-8.2c0-6.3-0.6-7.9-2.5-8.1v-0.2C172.1,70.5,176.3,73.4,176.3,78.8z"
				/>
		</g>
		<g class="st1">
			<path class="st2" d="M186.1,85c0,0.8,0.5,1.6,2.4,1.6v0.2h-10.1v-0.2c1.9,0,2.4-0.8,2.4-1.6V73.6c0-1.2-0.5-1.7-2.4-1.7v-0.2
				c3,0,5.4-0.3,7.6-1.2V85z M194.7,74c0,2.2-1.6,3.6-3.3,3.6c-0.8,0-1.4-0.2-1.8-0.7c0.6-0.3,1.2-1,1.2-2.2c0-0.9-0.7-1.7-1.8-1.7
				c-0.8,0-1.5,0.5-1.9,1.2V74c0.6-2,2.2-3.5,4.2-3.5C193.5,70.5,194.7,72,194.7,74z"/>
		</g>
		<g class="st1">
			<path class="st2" d="M24.5,115.1c0-2.8,2.6-4.4,6.1-4.4h3.5v0.2h-1c-2.3,0-3.4,1.5-3.4,3.5c0,1.8,0.5,3.1,2,3.1
				c0.9,0,1.6-0.5,2.3-1.1v0.2c-1.1,1.2-2.8,2.6-5.1,2.6C26.3,119.2,24.4,117.6,24.5,115.1z M25.8,106c0-1.6,1.5-3.3,5.8-3.5v0.2
				c-1.3,0.2-2,1.2-2,2.3c0,1.2,0.8,1.9,2.1,2c-0.5,0.9-1.8,1.5-3.1,1.5C26.8,108.5,25.8,107.3,25.8,106z M35,115.5v-9.8
				c0-1.6-0.6-2.8-2.2-3v-0.2c5.3,0.2,7.4,2.2,7.4,6.4v7.8c0,0.9,0.3,1.3,0.9,1.3c0.5,0,1-0.5,1.5-1.4h0.2c-0.5,1.8-2.2,2.6-4.2,2.6
				C36.2,119.2,35,118.3,35,115.5z"/>
			<path class="st2" d="M64,105.1v0.3c-0.7-0.8-1.7-1.2-2.7-1.2c-1.6,0-3.1,0.7-3.1,6.5c0,5.8,1.6,6.8,3.1,6.8c1,0,1.9-0.5,2.7-1.1
				v0.2c-0.8,1.3-2.8,2.6-4.7,2.6c-3,0-6.6-1.8-6.6-8.5c0-6.4,3.5-8.2,6.6-8.2C61.1,102.5,63.2,103.7,64,105.1z M70.2,123.7
				c0,1.2,0.5,1.7,2.4,1.7v0.2c-3,0-5,0.3-7.6,1.2v-23.1c1.7-0.2,3.8-0.6,5.3-1.2V123.7z"/>
			<path class="st2" d="M80.9,114.6c0,1.8,0.6,2.7,2.2,2.7c0.8,0,1.5-0.3,2.2-1v0.2c-0.7,1.4-2.4,2.6-5,2.6c-2.9,0-4.7-1.3-4.7-4.5
				v-9c0-1.2-0.5-1.7-2.4-1.7v-0.2c3,0,5.4-0.3,7.6-1.2V114.6z M91.6,116.7c0,0.9,0.3,1.3,0.9,1.3c0.5,0,1-0.5,1.5-1.4h0.2
				c-0.5,1.8-2.2,2.6-4.4,2.6c-2.2,0-3.5-1.3-3.5-3.1v-10.4c0-1.2-0.5-1.7-2.3-1.7v-0.2c2.9,0,4.9-0.3,7.6-1.2V116.7z"/>
			<path class="st2" d="M104,102.7c-1.9,0.2-2.5,1.8-2.5,8.1c0,6,0.6,8,2.5,8.2v0.2c-3.7,0-8-3-8-8.4s4.2-8.2,8-8.3V102.7z
				 M113.2,110.8c0,5.3-4.3,8.4-7.9,8.4V119c1.9-0.2,2.5-2.2,2.5-8.2c0-6.3-0.6-7.9-2.5-8.1v-0.2C109,102.5,113.2,105.4,113.2,110.8
				z"/>
		</g>
		<g class="st1">
			<path class="st2" d="M127.7,116.4v0.2c-1,1.5-3.1,2.6-5.5,2.6c-2.9,0-4.9-1.3-4.9-4.5v-10.5h-1.7l0.4-0.5h1.3v-3.5
				c2,0,3.9-0.6,5.2-1.8v5.2h4.3l-0.4,0.5h-4v10.6c0,1.6,0.6,3.3,2.1,3.3C125.6,118,126.7,117.4,127.7,116.4z"/>
		</g>
		<g class="st1">
			<path class="st2" d="M128.9,110.8c0-5.4,4.1-8.2,7.8-8.3v0.2c-1.9,0.2-2.4,1.8-2.4,7.9c0,4.6,2,7.1,4.9,7.1
				c1.8,0,3.2-0.5,4.7-1.7v0.2c-1.7,2.1-4.7,2.9-6.8,2.9C133.1,119.2,128.9,116.1,128.9,110.8z M136.1,109.4c2.8,0,4-0.9,4-3.6
				c0-1.5-0.6-2.9-2.1-3.1v-0.2c4.2,0,6.3,3,6.3,5.4c0,0.5-0.1,1.2-0.2,1.7h-8V109.4z"/>
		</g>
	</g>
</g>
</svg>
