<?xml version="1.0" encoding="utf-8"?>
<!-- Generator: Adobe Illustrator 24.0.3, SVG Export Plug-In . SVG Version: 6.00 Build 0)  -->
<svg version="1.1" id="Layer_1" xmlns="http://www.w3.org/2000/svg" xmlns:xlink="http://www.w3.org/1999/xlink" x="0px" y="0px"
	 viewBox="0 0 300 250" style="enable-background:new 0 0 300 250;" xml:space="preserve">
<style type="text/css">
	.st0{clip-path:url(#SVGID_2_);}
	.st1{enable-background:new    ;}
	.st2{fill:#FFFFFF;}
</style>
<title>Artboard 1</title>
<g>
	<defs>
		<rect id="SVGID_1_" y="0" width="300" height="250"/>
	</defs>
	<clipPath id="SVGID_2_">
		<use xlink:href="#SVGID_1_"  style="overflow:visible;"/>
	</clipPath>
	<g class="st0">
		<g class="st1">
			<path class="st2" d="M24.8,52.6c1.9,0,2.4-0.7,2.4-1.6V32.9c0-0.9-0.5-1.6-2.4-1.6v-0.2h7.8V51c0,0.9,0.5,1.6,2.4,1.6v0.2H24.8
				V52.6z M34.3,31.3v-0.2h8.8v6.4h-0.3C41.3,32.9,39.1,31.6,34.3,31.3z M36,42.1L34.3,42v-0.2l1.8-0.2c1.9-0.2,3.2-0.9,4.2-2.8h0.3
				v6h-0.3C39.2,43,37.9,42.3,36,42.1z"/>
		</g>
		<g class="st1">
			<path class="st2" d="M52.4,51c0,0.8,0.5,1.6,2.4,1.6v0.2H44.7v-0.2c1.9,0,2.4-0.8,2.4-1.6V39.6c0-1.2-0.5-1.7-2.4-1.7v-0.2
				c3,0,5.4-0.3,7.6-1.2V51z M61,40c0,2.2-1.6,3.6-3.3,3.6c-0.8,0-1.4-0.2-1.8-0.7c0.6-0.3,1.2-1,1.2-2.2c0-0.9-0.7-1.7-1.8-1.7
				c-0.8,0-1.5,0.5-1.9,1.2V40c0.6-2,2.2-3.5,4.2-3.5C59.8,36.5,61,38,61,40z"/>
		</g>
		<g class="st1">
			<path class="st2" d="M70.7,36.7c-1.9,0.2-2.5,1.8-2.5,8.1c0,6,0.6,8,2.5,8.2v0.2c-3.7,0-8-3-8-8.4s4.2-8.2,8-8.3V36.7z
				 M79.9,44.8c0,5.3-4.3,8.4-7.9,8.4V53c1.9-0.2,2.5-2.2,2.5-8.2c0-6.3-0.6-7.9-2.5-8.1v-0.2C75.7,36.5,79.9,39.4,79.9,44.8z"/>
			<path class="st2" d="M89.7,51c0,0.8,0.5,1.6,2.4,1.6v0.2H82v-0.2c1.9,0,2.4-0.8,2.4-1.6V39.6c0-1.2-0.5-1.7-2.4-1.7v-0.2
				c3,0,5.4-0.3,7.6-1.2V51z M100.3,41v10c0,0.8,0.4,1.6,2.4,1.6v0.2h-10v-0.2c1.9,0,2.4-0.8,2.4-1.6V41c0-1.8-0.7-2.7-2.2-2.7
				c-0.9,0-1.7,0.4-2.1,1v-0.2c0.7-1.3,2.3-2.6,4.7-2.6C98.4,36.5,100.3,37.9,100.3,41z M110.9,41v10c0,0.8,0.5,1.6,2.4,1.6v0.2
				h-10.1v-0.2c1.9,0,2.4-0.8,2.4-1.6V41c0-1.8-0.7-2.7-2.2-2.7c-0.9,0-1.7,0.4-2.1,1v-0.2c0.7-1.3,2.3-2.6,4.7-2.6
				C109,36.5,110.9,37.9,110.9,41z"/>
		</g>
		<g class="st1">
			<path class="st2" d="M30.4,81c-1.1,0-1.8,0.6-1.8,1.6c0,0.9,0.6,2.1,2.8,2.3v0.2c-4.3-0.2-6.6-1.3-6.6-3.2c0-1.5,1.3-2.4,2.7-2.4
				C28.8,79.6,29.9,80.2,30.4,81z M31.4,68.7c-1.2,0.2-2.3,0.8-2.3,2.1c0.1,3.7,10.5,4.3,10.5,9.4c0,3.1-2.6,4.7-6.8,4.9V85
				c1.3-0.2,2.8-0.7,2.8-2.4c0-3.3-10.5-4.5-10.5-9.4c0-2.8,2.7-4.5,6.2-4.7V68.7z M39,71.8c0,1-0.8,2-2.4,2c-1.3,0-2.3-0.6-2.7-1.5
				c1-0.1,1.5-0.7,1.4-1.5c0-1-1.2-1.9-2.5-2v-0.2C36.4,68.7,39,70,39,71.8z"/>
			<path class="st2" d="M49.1,89.7c0,1.2,0.5,1.7,2.4,1.7v0.2c-3,0-5,0.3-7.6,1.2V71.6c0-1.2-0.5-1.7-2.4-1.7v-0.2
				c3,0,5-0.3,7.6-1.2V89.7z M61.3,76.7c0,6.7-3.5,8.5-6.6,8.5c-1.8,0-3.9-1.2-4.7-2.6v-0.2c0.8,0.6,1.7,1.1,2.7,1.1
				c1.5,0,3.1-1.1,3.1-6.8c0-5.8-1.5-6.5-3.1-6.5c-1,0-2,0.4-2.7,1.2v-0.3c0.8-1.3,2.8-2.6,4.7-2.6C57.8,68.5,61.3,70.3,61.3,76.7z"
				/>
			<path class="st2" d="M64.1,76.8c0-5.4,4.1-8.2,7.8-8.3v0.2c-1.9,0.2-2.4,1.8-2.4,7.9c0,4.6,2,7.1,4.9,7.1c1.8,0,3.2-0.5,4.7-1.7
				v0.2c-1.7,2.1-4.7,2.9-6.8,2.9C68.2,85.2,64.1,82.1,64.1,76.8z M71.3,75.4c2.8,0,4-0.9,4-3.6c0-1.5-0.6-2.9-2.1-3.1v-0.2
				c4.2,0,6.3,3,6.3,5.4c0,0.5-0.1,1.2-0.2,1.7h-8V75.4z"/>
			<path class="st2" d="M90.3,68.7c-1.9,0.2-2.7,1.8-2.7,7.9c0,4.6,2.3,7.1,5.2,7.1c1.8,0,3.2-0.5,4.7-1.7v0.2
				c-1.7,2.1-4.7,2.9-6.8,2.9c-4.1,0-8.5-3-8.5-8.4s4.4-8.2,8.2-8.3V68.7z M97.4,72.1c0,1.7-1.2,3.1-3.2,3.1c-1.6,0-2.6-1-2.8-2
				c0.9-0.4,1.5-1.5,1.5-2.3c0-0.7-0.2-1.9-1.4-2.1v-0.2C95.8,68.5,97.4,70.3,97.4,72.1z"/>
			<path class="st2" d="M99.3,69.7c3,0,5.4-0.3,7.6-1.2V83c0,0.8,0.5,1.6,2.4,1.6v0.2H99.3v-0.2c1.9,0,2.4-0.8,2.4-1.6V71.6
				c0-1.2-0.5-1.7-2.4-1.7V69.7z M100.9,63.7c0-1.7,1.3-2.8,3.3-2.8s3.3,1.1,3.3,2.8c0,1.7-1.3,2.8-3.3,2.8S100.9,65.4,100.9,63.7z"
				/>
			<path class="st2" d="M110.9,81.1c0-2.8,2.6-4.4,6.1-4.4h3.5v0.2h-1c-2.3,0-3.4,1.5-3.4,3.5c0,1.8,0.5,3.1,2,3.1
				c0.9,0,1.6-0.5,2.3-1.1v0.2c-1.1,1.2-2.8,2.6-5.1,2.6C112.7,85.2,110.9,83.6,110.9,81.1z M112.2,72c0-1.6,1.5-3.3,5.8-3.5v0.2
				c-1.3,0.2-2,1.2-2,2.3c0,1.2,0.8,1.9,2.1,2c-0.5,0.9-1.8,1.5-3.1,1.5C113.2,74.5,112.2,73.3,112.2,72z M121.5,81.5v-9.8
				c0-1.6-0.6-2.8-2.2-3v-0.2c5.3,0.2,7.4,2.2,7.4,6.4v7.8c0,0.9,0.3,1.3,0.9,1.3c0.5,0,1-0.5,1.5-1.4h0.2c-0.5,1.8-2.2,2.6-4.2,2.6
				C122.6,85.2,121.5,84.3,121.5,81.5z"/>
			<path class="st2" d="M130.2,62.6c3,0,5.4-0.3,7.6-1.2V83c0,0.8,0.5,1.6,2.4,1.6v0.2h-10.1v-0.2c1.9,0,2.4-0.8,2.4-1.6V64.4
				c0-1.2-0.5-1.7-2.4-1.7V62.6z"/>
			<path class="st2" d="M141.7,69.7c3,0,5.4-0.3,7.6-1.2V83c0,0.8,0.5,1.6,2.4,1.6v0.2h-10.1v-0.2c1.9,0,2.4-0.8,2.4-1.6V71.6
				c0-1.2-0.5-1.7-2.4-1.7V69.7z M143.3,63.7c0-1.7,1.3-2.8,3.3-2.8s3.3,1.1,3.3,2.8c0,1.7-1.3,2.8-3.3,2.8S143.3,65.4,143.3,63.7z"
				/>
			<path class="st2" d="M159.2,81c-1.1,0-1.8,0.6-1.8,1.6c0,0.9,0.6,2.1,2.8,2.3v0.2c-4.3-0.2-6.6-1.3-6.6-3.2
				c0-1.5,1.3-2.4,2.7-2.4C157.7,79.6,158.7,80.2,159.2,81z M160.2,68.7c-1.2,0.2-2.3,0.8-2.3,2.1c0.1,3.7,10.5,4.3,10.5,9.4
				c0,3.1-2.6,4.7-6.8,4.9V85c1.3-0.2,2.8-0.7,2.8-2.4c0-3.3-10.5-4.5-10.5-9.4c0-2.8,2.7-4.5,6.2-4.7V68.7z M167.8,71.8
				c0,1-0.8,2-2.4,2c-1.3,0-2.3-0.6-2.7-1.5c1-0.1,1.5-0.7,1.4-1.5c0-1-1.2-1.9-2.5-2v-0.2C165.3,68.7,167.8,70,167.8,71.8z"/>
			<path class="st2" d="M182.9,82.4v0.2c-1,1.5-3.1,2.6-5.5,2.6c-2.9,0-4.9-1.3-4.9-4.5V70.1h-1.7l0.4-0.5h1.3v-3.5
				c2,0,3.9-0.6,5.2-1.8v5.2h4.3l-0.4,0.5h-4v10.6c0,1.6,0.6,3.3,2.1,3.3C180.8,84,181.9,83.4,182.9,82.4z"/>
			<path class="st2" d="M189.8,81c-1.1,0-1.8,0.6-1.8,1.6c0,0.9,0.6,2.1,2.8,2.3v0.2c-4.3-0.2-6.6-1.3-6.6-3.2
				c0-1.5,1.3-2.4,2.7-2.4C188.3,79.6,189.4,80.2,189.8,81z M190.9,68.7c-1.2,0.2-2.3,0.8-2.3,2.1c0.1,3.7,10.5,4.3,10.5,9.4
				c0,3.1-2.6,4.7-6.8,4.9V85c1.3-0.2,2.8-0.7,2.8-2.4c0-3.3-10.5-4.5-10.5-9.4c0-2.8,2.7-4.5,6.2-4.7V68.7z M198.5,71.8
				c0,1-0.8,2-2.4,2c-1.3,0-2.3-0.6-2.7-1.5c1-0.1,1.5-0.7,1.4-1.5c0-1-1.2-1.9-2.5-2v-0.2C195.9,68.7,198.5,70,198.5,71.8z"/>
		</g>
		<g class="st1">
			<path class="st2" d="M208.7,82.3c0,2.2-2.4,5.2-6.3,6.8l-0.1-0.3c1.2-0.9,2.2-2.4,2.2-3.8c0-1.7-1.2-2.5-2.7-2.6
				c0.3-2.3,1.7-3.5,3.7-3.5C207.3,78.9,208.7,80.1,208.7,82.3z"/>
		</g>
		<g class="st1">
			<path class="st2" d="M33,117v0.2c-2.5-0.1-4.5-0.5-6.2-1.6l-1.1,1.6h-0.3v-7.8h0.3C26.7,113,29,115.6,33,117z M42.4,110.6
				c0,4.1-3.1,6.4-8,6.6V117c1.8-0.3,3.5-1.3,3.5-3.3c0-5.6-12.2-6.1-12.2-12.6c0-3.8,3.1-6,7.4-6.3v0.2c-1.5,0.3-2.8,1.2-2.8,2.9
				C30.1,103.5,42.4,104.1,42.4,110.6z M34.3,94.9v-0.2c2.4,0.1,4.3,0.6,5.8,1.7l1.2-1.7h0.3v7.1h-0.3
				C40.2,98.5,37.5,95.7,34.3,94.9z"/>
		</g>
		<g class="st1">
			<path class="st2" d="M57,114.4v0.2c-1,1.5-3.1,2.6-5.5,2.6c-2.9,0-4.9-1.3-4.9-4.5v-10.5h-1.7l0.4-0.5h1.3v-3.5
				c2,0,3.9-0.6,5.2-1.8v5.2h4.3l-0.4,0.5h-4v10.6c0,1.6,0.6,3.3,2.1,3.3C54.8,116,55.9,115.4,57,114.4z"/>
			<path class="st2" d="M58,113.1c0-2.8,2.6-4.4,6.1-4.4h3.5v0.2h-1c-2.3,0-3.4,1.5-3.4,3.5c0,1.8,0.5,3.1,2,3.1
				c0.9,0,1.6-0.5,2.3-1.1v0.2c-1.1,1.2-2.8,2.6-5.1,2.6C59.8,117.2,57.9,115.6,58,113.1z M59.3,104c0-1.6,1.5-3.3,5.8-3.5v0.2
				c-1.3,0.2-2,1.2-2,2.3c0,1.2,0.8,1.9,2.1,2c-0.5,0.9-1.8,1.5-3.1,1.5C60.3,106.5,59.3,105.3,59.3,104z M68.5,113.5v-9.8
				c0-1.6-0.6-2.8-2.2-3v-0.2c5.3,0.2,7.4,2.2,7.4,6.4v7.8c0,0.9,0.3,1.3,0.9,1.3c0.5,0,1-0.5,1.5-1.4h0.2c-0.5,1.8-2.2,2.6-4.2,2.6
				C69.7,117.2,68.5,116.3,68.5,113.5z"/>
		</g>
		<g class="st1">
			<path class="st2" d="M85.1,115c0,0.8,0.5,1.6,2.4,1.6v0.2H77.4v-0.2c1.9,0,2.4-0.8,2.4-1.6v-11.4c0-1.2-0.5-1.7-2.4-1.7v-0.2
				c3,0,5.4-0.3,7.6-1.2V115z M93.7,104c0,2.2-1.6,3.6-3.3,3.6c-0.8,0-1.4-0.2-1.8-0.7c0.6-0.3,1.2-1,1.2-2.2c0-0.9-0.7-1.7-1.8-1.7
				c-0.8,0-1.5,0.5-1.9,1.2V104c0.6-2,2.2-3.5,4.2-3.5C92.5,100.5,93.7,102,93.7,104z"/>
		</g>
		<g class="st1">
			<path class="st2" d="M44.3,145l0.1,0.3c-1.7,2.7-4.6,3.9-7.7,3.9c-5.2,0-11.7-3.7-11.7-11.2c0-8.1,6.3-11.1,10.9-11.2v0.2
				c-2.2,0.5-4.7,2.6-4.7,10.8c0,8.2,3.3,10.1,6.9,10.1C41.1,147.9,43.2,146.4,44.3,145z M44.5,126.8v7.8h-0.3
				c-1.2-4.3-3.6-6.7-6.8-7.6v-0.2c2.8,0.1,4.5,0.6,5.8,1.5l1-1.5H44.5z"/>
			<path class="st2" d="M47,145.1c0-2.8,2.6-4.4,6.1-4.4h3.5v0.2h-1c-2.3,0-3.4,1.5-3.4,3.5c0,1.8,0.5,3.1,2,3.1
				c0.9,0,1.6-0.5,2.3-1.1v0.2c-1.1,1.2-2.8,2.6-5.1,2.6C48.8,149.2,46.9,147.6,47,145.1z M48.2,136c0-1.6,1.5-3.3,5.8-3.5v0.2
				c-1.3,0.2-2,1.2-2,2.3c0,1.2,0.8,1.9,2.1,2c-0.5,0.9-1.8,1.5-3.1,1.5C49.3,138.5,48.2,137.3,48.2,136z M57.5,145.5v-9.8
				c0-1.6-0.6-2.8-2.2-3v-0.2c5.3,0.2,7.4,2.2,7.4,6.4v7.8c0,0.9,0.3,1.3,0.9,1.3c0.5,0,1-0.5,1.5-1.4h0.2c-0.5,1.8-2.2,2.6-4.2,2.6
				C58.7,149.2,57.5,148.3,57.5,145.5z"/>
			<path class="st2" d="M74.1,147c0,0.8,0.5,1.6,2.4,1.6v0.2H66.4v-0.2c1.9,0,2.4-0.8,2.4-1.6v-11.4c0-1.2-0.5-1.7-2.4-1.7v-0.2
				c3,0,5.4-0.3,7.6-1.2V147z M84.7,137v10c0,0.8,0.4,1.6,2.4,1.6v0.2H77v-0.2c1.9,0,2.4-0.8,2.4-1.6v-10c0-1.8-0.7-2.7-2.2-2.7
				c-0.9,0-1.7,0.4-2.1,1v-0.2c0.7-1.3,2.3-2.6,4.7-2.6C82.8,132.5,84.7,133.9,84.7,137z M95.3,137v10c0,0.8,0.5,1.6,2.4,1.6v0.2
				H87.6v-0.2c1.9,0,2.4-0.8,2.4-1.6v-10c0-1.8-0.7-2.7-2.2-2.7c-0.9,0-1.7,0.4-2.1,1v-0.2c0.7-1.3,2.3-2.6,4.7-2.6
				C93.4,132.5,95.3,133.9,95.3,137z"/>
			<path class="st2" d="M106.2,153.7c0,1.2,0.5,1.7,2.4,1.7v0.2c-3,0-5,0.3-7.6,1.2v-21.2c0-1.2-0.5-1.7-2.4-1.7v-0.2
				c3,0,5-0.3,7.6-1.2V153.7z M118.4,140.7c0,6.7-3.5,8.5-6.6,8.5c-1.8,0-3.9-1.2-4.7-2.6v-0.2c0.8,0.6,1.7,1.1,2.7,1.1
				c1.5,0,3.1-1.1,3.1-6.8c0-5.8-1.5-6.5-3.1-6.5c-1,0-2,0.4-2.7,1.2v-0.3c0.8-1.3,2.8-2.6,4.7-2.6
				C115,132.5,118.4,134.3,118.4,140.7z"/>
			<path class="st2" d="M121.2,140.8c0-5.4,4.1-8.2,7.8-8.3v0.2c-1.9,0.2-2.4,1.8-2.4,7.9c0,4.6,2,7.1,4.9,7.1
				c1.8,0,3.2-0.5,4.7-1.7v0.2c-1.7,2.1-4.7,2.9-6.8,2.9C125.4,149.2,121.2,146.1,121.2,140.8z M128.4,139.4c2.8,0,4-0.9,4-3.6
				c0-1.5-0.6-2.9-2.1-3.1v-0.2c4.2,0,6.3,3,6.3,5.4c0,0.5-0.1,1.2-0.2,1.7h-8V139.4z"/>
			<path class="st2" d="M146.4,147c0,0.8,0.5,1.6,2.4,1.6v0.2h-10.1v-0.2c1.9,0,2.4-0.8,2.4-1.6v-11.4c0-1.2-0.5-1.7-2.4-1.7v-0.2
				c3,0,5.4-0.3,7.6-1.2V147z M155,136c0,2.2-1.6,3.6-3.3,3.6c-0.8,0-1.4-0.2-1.8-0.7c0.6-0.3,1.2-1,1.2-2.2c0-0.9-0.7-1.7-1.8-1.7
				c-0.8,0-1.5,0.5-1.9,1.2V136c0.6-2,2.2-3.5,4.2-3.5C153.8,132.5,155,134,155,136z"/>
			<path class="st2" d="M176.4,145l0.1,0.3c-1.7,2.7-4.6,3.9-7.7,3.9c-5.2,0-11.7-3.7-11.7-11.2c0-8.1,6.3-11.1,10.9-11.2v0.2
				c-2.2,0.5-4.7,2.6-4.7,10.8c0,8.2,3.3,10.1,6.9,10.1C173.2,147.9,175.3,146.4,176.4,145z M176.7,126.8v7.8h-0.3
				c-1.2-4.3-3.6-6.7-6.8-7.6v-0.2c2.8,0.1,4.5,0.6,5.8,1.5l1-1.5H176.7z"/>
			<path class="st2" d="M179.1,145.1c0-2.8,2.6-4.4,6.1-4.4h3.5v0.2h-1c-2.3,0-3.4,1.5-3.4,3.5c0,1.8,0.5,3.1,2,3.1
				c0.9,0,1.6-0.5,2.3-1.1v0.2c-1.1,1.2-2.8,2.6-5.1,2.6C180.9,149.2,179.1,147.6,179.1,145.1z M180.4,136c0-1.6,1.5-3.3,5.8-3.5
				v0.2c-1.3,0.2-2,1.2-2,2.3c0,1.2,0.8,1.9,2.1,2c-0.5,0.9-1.8,1.5-3.1,1.5C181.4,138.5,180.4,137.3,180.4,136z M189.7,145.5v-9.8
				c0-1.6-0.6-2.8-2.2-3v-0.2c5.3,0.2,7.4,2.2,7.4,6.4v7.8c0,0.9,0.3,1.3,0.9,1.3c0.5,0,1-0.5,1.5-1.4h0.2c-0.5,1.8-2.2,2.6-4.2,2.6
				C190.8,149.2,189.7,148.3,189.7,145.5z"/>
		</g>
		<g class="st1">
			<path class="st2" d="M206.2,147c0,0.8,0.5,1.6,2.4,1.6v0.2h-10.1v-0.2c1.9,0,2.4-0.8,2.4-1.6v-11.4c0-1.2-0.5-1.7-2.4-1.7v-0.2
				c3,0,5.4-0.3,7.6-1.2V147z M214.8,136c0,2.2-1.6,3.6-3.3,3.6c-0.8,0-1.4-0.2-1.8-0.7c0.6-0.3,1.2-1,1.2-2.2
				c0-0.9-0.7-1.7-1.8-1.7c-0.8,0-1.5,0.5-1.9,1.2V136c0.6-2,2.2-3.5,4.2-3.5C213.6,132.5,214.8,134,214.8,136z"/>
		</g>
		<g class="st1">
			<path class="st2" d="M216.6,140.8c0-5.4,4.1-8.2,7.8-8.3v0.2c-1.9,0.2-2.4,1.8-2.4,7.9c0,4.6,2,7.1,4.9,7.1
				c1.8,0,3.2-0.5,4.7-1.7v0.2c-1.7,2.1-4.7,2.9-6.8,2.9C220.7,149.2,216.6,146.1,216.6,140.8z M223.8,139.4c2.8,0,4-0.9,4-3.6
				c0-1.5-0.6-2.9-2.1-3.1v-0.2c4.2,0,6.3,3,6.3,5.4c0,0.5-0.1,1.2-0.2,1.7h-8V139.4z"/>
		</g>
	</g>
</g>
</svg>
