<?xml version="1.0" encoding="utf-8"?>
<!-- Generator: Adobe Illustrator 24.0.3, SVG Export Plug-In . SVG Version: 6.00 Build 0)  -->
<svg version="1.1" id="Layer_1" xmlns="http://www.w3.org/2000/svg" xmlns:xlink="http://www.w3.org/1999/xlink" x="0px" y="0px"
	 viewBox="0 0 300 250" style="enable-background:new 0 0 300 250;" xml:space="preserve">
<style type="text/css">
	.st0{enable-background:new    ;}
	.st1{fill:#FFFFFF;}
	.st2{fill:none;}
</style>
<title>Artboard 1 copy</title>
<g class="st0">
	<path class="st1" d="M48.2,47.7l0.1,0.2c-1.5,2.3-4,3.4-6.7,3.4c-4.6,0-10.2-3.2-10.2-9.8c0-7.1,5.5-9.7,9.6-9.8v0.2
		c-2,0.4-4.1,2.3-4.1,9.5c0,7.1,2.9,8.8,6,8.8C45.4,50.2,47.2,48.9,48.2,47.7z M48.5,31.7v6.8h-0.2c-1.1-3.7-3.2-5.9-5.9-6.6v-0.2
		c2.4,0.1,3.9,0.5,5.1,1.3l0.8-1.3H48.5z"/>
	<path class="st1" d="M50.6,47.7c0-2.4,2.2-3.8,5.4-3.8h3v0.2h-0.8c-2,0-3,1.3-3,3.1c0,1.5,0.4,2.7,1.8,2.7c0.8,0,1.4-0.4,2-1V49
		c-0.9,1.1-2.4,2.3-4.5,2.3C52.1,51.3,50.6,49.9,50.6,47.7z M51.7,39.8c0-1.4,1.3-2.9,5.1-3.1v0.2c-1.1,0.2-1.8,1.1-1.8,2
		c0,1,0.7,1.6,1.8,1.7c-0.4,0.8-1.6,1.3-2.7,1.3C52.6,42,51.7,40.9,51.7,39.8z M59.8,48.1v-8.6c0-1.4-0.5-2.5-1.9-2.7v-0.2
		c4.6,0.2,6.5,1.9,6.5,5.6v6.8c0,0.8,0.3,1.1,0.8,1.1c0.4,0,0.9-0.4,1.3-1.3h0.2c-0.4,1.5-2,2.3-3.6,2.3
		C60.8,51.3,59.8,50.5,59.8,48.1z"/>
	<path class="st1" d="M67.4,31.5c2.6,0,4.7-0.3,6.7-1.1v19c0,0.7,0.4,1.4,2.1,1.4V51h-8.8v-0.2c1.7,0,2.1-0.7,2.1-1.4V33.2
		c0-1-0.5-1.5-2.1-1.5V31.5z"/>
	<path class="st1" d="M77.3,31.5c2.6,0,4.7-0.3,6.7-1.1v19c0,0.7,0.4,1.4,2.1,1.4V51h-8.8v-0.2c1.7,0,2.1-0.7,2.1-1.4V33.2
		c0-1-0.5-1.5-2.1-1.5V31.5z"/>
</g>
<g class="st0">
	<path class="st1" d="M94.1,38.1c-0.3-0.6-0.7-1-1.5-1V37h7.8v0.2c-1,0-1.4,0.7-0.9,1.7l3.7,7.6l-2.4,4.5h-0.2L94.1,38.1z
		 M92.9,55.5c0-1.2,1-2.2,2.5-2.6c-0.1,0.3-0.1,0.5-0.1,0.7c0,1.1,0.6,1.9,1.7,1.9c1,0,1.8-1,2.8-2.8h0.2c-1.5,2.9-2.6,5.4-4.6,5.4
		C93.8,58,92.9,56.9,92.9,55.5z M104.4,43.7c0.5-0.9,0.8-2.1,0.8-3.6c0-1.5-0.9-2.9-2.9-2.9V37h7v0.2c-0.9,0-1.3,0.4-1.8,1.3
		l-2.9,5.5L104.4,43.7z"/>
</g>
<g class="st0">
	<path class="st1" d="M116.4,36.9c-1.7,0.2-2.2,1.6-2.2,7.1c0,5.3,0.6,7,2.2,7.2v0.2c-3.2,0-7-2.6-7-7.3s3.7-7.2,7-7.2V36.9z
		 M124.5,43.9c0,4.7-3.7,7.3-6.9,7.3v-0.2c1.7-0.2,2.2-1.9,2.2-7.2c0-5.5-0.6-6.9-2.2-7.1v-0.2C120.8,36.7,124.5,39.2,124.5,43.9z"
		/>
	<path class="st1" d="M132.7,47.3c0,1.6,0.5,2.4,1.9,2.4c0.7,0,1.3-0.2,1.9-0.9V49c-0.6,1.2-2.1,2.3-4.3,2.3c-2.5,0-4.1-1.2-4.1-3.9
		v-7.9c0-1-0.5-1.5-2.1-1.5v-0.2c2.6,0,4.7-0.3,6.7-1.1V47.3z M142.1,49.1c0,0.8,0.3,1.1,0.8,1.1c0.4,0,0.9-0.4,1.3-1.3h0.2
		c-0.4,1.5-2,2.3-3.8,2.3c-2,0-3.1-1.1-3.1-2.7v-9.1c0-1-0.5-1.5-2-1.5v-0.2c2.5,0,4.3-0.3,6.6-1.1V49.1z"/>
</g>
<g class="st0">
	<path class="st1" d="M152.2,49.4c0,0.7,0.4,1.4,2.1,1.4V51h-8.8v-0.2c1.7,0,2.1-0.7,2.1-1.4v-9.9c0-1-0.5-1.5-2.1-1.5v-0.2
		c2.6,0,4.7-0.3,6.7-1.1V49.4z M159.7,39.7c0,1.9-1.4,3.2-2.9,3.2c-0.7,0-1.3-0.2-1.6-0.6c0.5-0.3,1.1-0.9,1.1-1.9
		c0-0.8-0.6-1.5-1.6-1.5c-0.7,0-1.3,0.4-1.7,1.1v-0.2c0.5-1.8,1.9-3,3.6-3C158.7,36.7,159.7,38.1,159.7,39.7z"/>
</g>
<g class="st0">
	<path class="st1" d="M36.9,77.5c0,2.7-1.8,3.8-4.6,3.8V63.2c0-1-0.5-1.5-2.1-1.5v-0.2c2.6,0,4.4-0.3,6.7-1.1V77.5z M47.6,73.9
		c0,5.9-3.1,7.4-5.8,7.4c-1.6,0-3.4-1.1-4.1-2.3v-0.2c0.7,0.5,1.4,1,2.3,1c1.3,0,2.7-0.9,2.7-6c0-5.1-1.3-5.7-2.7-5.7
		c-0.9,0-1.7,0.3-2.3,1V69c0.7-1.2,2.5-2.2,4.1-2.2C44.5,66.7,47.6,68.3,47.6,73.9z"/>
</g>
<g class="st0">
	<path class="st1" d="M56.3,79.4c0,0.7,0.4,1.4,2.1,1.4V81h-8.8v-0.2c1.7,0,2.1-0.7,2.1-1.4v-9.9c0-1-0.5-1.5-2.1-1.5v-0.2
		c2.6,0,4.7-0.3,6.7-1.1V79.4z M63.8,69.7c0,1.9-1.4,3.2-2.9,3.2c-0.7,0-1.3-0.2-1.6-0.6c0.5-0.3,1.1-0.9,1.1-1.9
		c0-0.8-0.6-1.5-1.6-1.5c-0.7,0-1.3,0.4-1.7,1.1v-0.2c0.5-1.8,1.9-3,3.6-3C62.8,66.7,63.8,68.1,63.8,69.7z"/>
</g>
<g class="st0">
	<path class="st1" d="M72.3,66.9c-1.7,0.2-2.2,1.6-2.2,7.1c0,5.3,0.6,7,2.2,7.2v0.2c-3.2,0-7-2.6-7-7.3s3.7-7.2,7-7.2V66.9z
		 M80.4,73.9c0,4.7-3.7,7.3-6.9,7.3v-0.2c1.7-0.2,2.2-1.9,2.2-7.2c0-5.5-0.6-6.9-2.2-7.1v-0.2C76.7,66.7,80.4,69.2,80.4,73.9z"/>
</g>
<g class="st0">
	<path class="st1" d="M90.9,80.8V81h-8.8v-0.2c1.7,0,2.1-0.7,2.1-1.4V63.2c0-1-0.5-1.5-2.1-1.5v-0.2c2.6,0,4.7-0.3,6.7-1.1v19
		C88.8,80.1,89.2,80.8,90.9,80.8z M100.4,80.8V81c-0.8,0.2-1.8,0.3-2.8,0.3c-1.7,0-3.6-0.3-5.1-2.7l-2.6-4.4
		c2.2-1.9,4.3-4.3,4.3-5.7c0-0.8-0.4-1.3-1.7-1.3V67h7.2v0.2c-0.6,0-1.2,0.2-1.6,0.5L93,71.7l4.8,7.5
		C98.7,80.6,99.4,80.7,100.4,80.8z"/>
</g>
<g class="st0">
	<path class="st1" d="M100.5,73.9c0-4.7,3.6-7.2,6.9-7.2v0.2c-1.7,0.2-2.1,1.6-2.1,6.9c0,4,1.8,6.2,4.3,6.2c1.6,0,2.8-0.4,4.1-1.5
		v0.2c-1.5,1.8-4.1,2.5-5.9,2.5C104.1,81.3,100.5,78.6,100.5,73.9z M106.8,72.8c2.5,0,3.5-0.8,3.5-3.1c0-1.3-0.6-2.6-1.8-2.7v-0.2
		c3.7,0,5.5,2.6,5.5,4.8c0,0.4-0.1,1-0.1,1.5h-7V72.8z"/>
</g>
<g class="st0">
	<path class="st1" d="M122.5,79.4c0,0.7,0.4,1.4,2.1,1.4V81h-8.8v-0.2c1.7,0,2.1-0.7,2.1-1.4v-9.9c0-1-0.5-1.5-2.1-1.5v-0.2
		c2.6,0,4.7-0.3,6.7-1.1V79.4z M130.1,69.7c0,1.9-1.4,3.2-2.9,3.2c-0.7,0-1.3-0.2-1.6-0.6c0.5-0.3,1.1-0.9,1.1-1.9
		c0-0.8-0.6-1.5-1.6-1.5c-0.7,0-1.3,0.4-1.7,1.1v-0.2c0.5-1.8,1.9-3,3.6-3C129,66.7,130.1,68.1,130.1,69.7z"/>
</g>
<g class="st0">
	<path class="st1" d="M147.4,67.7l-0.3,0.4h-2.7v11.3c0,0.7,0.4,1.4,2.1,1.4V81h-8.8v-0.2c1.7,0,2.1-0.7,2.1-1.4V68.1h-1.8l0.3-0.4
		h1.5v-1.3c0-4,2.1-5.7,4.6-6v0.2c-1,0.4-1.7,1.3-1.7,3C142.7,65.2,143.8,67.7,147.4,67.7z M149.8,63.4c0,1.6-1.2,2.5-2.4,2.5
		c-1.5,0-2.4-0.8-2.8-1.9c1.2,0,2-0.7,2-1.8c0-0.8-0.4-1.5-1-1.7v-0.2C148.4,60.5,149.8,61.8,149.8,63.4z"/>
</g>
<g class="st0">
	<path class="st1" d="M155.7,66.9c-1.7,0.2-2.2,1.6-2.2,7.1c0,5.3,0.6,7,2.2,7.2v0.2c-3.2,0-7-2.6-7-7.3s3.7-7.2,7-7.2V66.9z
		 M163.7,73.9c0,4.7-3.7,7.3-6.9,7.3v-0.2c1.7-0.2,2.2-1.9,2.2-7.2c0-5.5-0.6-6.9-2.2-7.1v-0.2C160,66.7,163.7,69.2,163.7,73.9z"/>
</g>
<g class="st0">
	<path class="st1" d="M172.3,79.4c0,0.7,0.4,1.4,2.1,1.4V81h-8.8v-0.2c1.7,0,2.1-0.7,2.1-1.4v-9.9c0-1-0.5-1.5-2.1-1.5v-0.2
		c2.6,0,4.7-0.3,6.7-1.1V79.4z M179.9,69.7c0,1.9-1.4,3.2-2.9,3.2c-0.7,0-1.3-0.2-1.6-0.6c0.5-0.3,1.1-0.9,1.1-1.9
		c0-0.8-0.6-1.5-1.6-1.5c-0.7,0-1.3,0.4-1.7,1.1v-0.2c0.5-1.8,1.9-3,3.6-3C178.8,66.7,179.9,68.1,179.9,69.7z"/>
</g>
<g class="st0">
	<path class="st1" d="M30.9,107.7c0-2.4,2.2-3.8,5.4-3.8h3v0.2h-0.8c-2,0-3,1.3-3,3.1c0,1.5,0.4,2.7,1.8,2.7c0.8,0,1.4-0.4,2-1v0.2
		c-0.9,1.1-2.4,2.3-4.5,2.3C32.5,111.3,30.9,109.9,30.9,107.7z M32,99.8c0-1.4,1.3-2.9,5.1-3.1v0.2c-1.1,0.2-1.8,1.1-1.8,2
		c0,1,0.7,1.6,1.8,1.7c-0.4,0.8-1.6,1.3-2.7,1.3C32.9,102,32,100.9,32,99.8z M40.1,108.1v-8.6c0-1.4-0.5-2.5-1.9-2.7v-0.2
		c4.6,0.2,6.5,1.9,6.5,5.6v6.8c0,0.8,0.3,1.1,0.8,1.1c0.4,0,0.9-0.4,1.3-1.3H47c-0.4,1.5-2,2.3-3.6,2.3
		C41.1,111.3,40.1,110.5,40.1,108.1z"/>
	<path class="st1" d="M65.4,99v0.2c-0.6-0.7-1.5-1-2.4-1c-1.4,0-2.7,0.6-2.7,5.7c0,5,1.4,6,2.7,6c0.9,0,1.7-0.4,2.4-1v0.2
		c-0.7,1.2-2.5,2.3-4.1,2.3c-2.7,0-5.7-1.6-5.7-7.4c0-5.6,3-7.1,5.7-7.1C63,96.7,64.7,97.8,65.4,99z M70.9,115.3
		c0,1,0.5,1.5,2.1,1.5v0.2c-2.6,0-4.3,0.3-6.7,1.1V97.8c1.5-0.1,3.4-0.5,4.6-1.1V115.3z"/>
	<path class="st1" d="M80.3,107.3c0,1.6,0.5,2.4,1.9,2.4c0.7,0,1.3-0.2,1.9-0.9v0.2c-0.6,1.2-2.1,2.3-4.3,2.3
		c-2.5,0-4.1-1.2-4.1-3.9v-7.9c0-1-0.5-1.5-2.1-1.5v-0.2c2.6,0,4.7-0.3,6.7-1.1V107.3z M89.6,109.1c0,0.8,0.3,1.1,0.8,1.1
		c0.4,0,0.9-0.4,1.3-1.3h0.2c-0.4,1.5-2,2.3-3.8,2.3c-2,0-3.1-1.1-3.1-2.7v-9.1c0-1-0.5-1.5-2-1.5v-0.2c2.5,0,4.3-0.3,6.6-1.1V109.1
		z"/>
	<path class="st1" d="M100.5,96.9c-1.7,0.2-2.2,1.6-2.2,7.1c0,5.3,0.6,7,2.2,7.2v0.2c-3.2,0-7-2.6-7-7.3s3.7-7.2,7-7.2V96.9z
		 M108.5,103.9c0,4.7-3.7,7.3-6.9,7.3v-0.2c1.7-0.2,2.2-1.9,2.2-7.2c0-5.5-0.6-6.9-2.2-7.1v-0.2C104.8,96.7,108.5,99.2,108.5,103.9z
		"/>
</g>
<g class="st0">
	<path class="st1" d="M121.3,108.8v0.2c-0.9,1.3-2.7,2.3-4.8,2.3c-2.5,0-4.3-1.1-4.3-3.9v-9.2h-1.5l0.3-0.4h1.1v-3
		c1.7,0,3.4-0.5,4.6-1.6v4.6h3.8l-0.3,0.4h-3.5v9.3c0,1.4,0.5,2.9,1.8,2.9C119.4,110.3,120.3,109.8,121.3,108.8z"/>
</g>
<g class="st0">
	<path class="st1" d="M122.3,103.9c0-4.7,3.6-7.2,6.9-7.2v0.2c-1.7,0.2-2.1,1.6-2.1,6.9c0,4,1.8,6.2,4.3,6.2c1.6,0,2.8-0.4,4.1-1.5
		v0.2c-1.5,1.8-4.1,2.5-5.9,2.5C125.9,111.3,122.3,108.6,122.3,103.9z M128.6,102.8c2.5,0,3.5-0.8,3.5-3.1c0-1.3-0.6-2.6-1.8-2.7
		v-0.2c3.7,0,5.5,2.6,5.5,4.8c0,0.4-0.1,1-0.1,1.5h-7V102.8z"/>
</g>
<rect y="0" class="st2" width="300" height="250"/>
</svg>
