<?xml version="1.0" encoding="utf-8"?>
<!-- Generator: Adobe Illustrator 24.0.3, SVG Export Plug-In . SVG Version: 6.00 Build 0)  -->
<svg version="1.1" id="Layer_1" xmlns="http://www.w3.org/2000/svg" xmlns:xlink="http://www.w3.org/1999/xlink" x="0px" y="0px"
	 viewBox="0 0 300 250" style="enable-background:new 0 0 300 250;" xml:space="preserve">
<style type="text/css">
	.st0{enable-background:new    ;}
	.st1{fill:#FFFFFF;}
	.st2{fill:none;}
</style>
<title>Artboard 1</title>
<g class="st0">
	<path class="st1" d="M31.2,50.9c1.7,0,2.1-0.6,2.1-1.4V33.6c0-0.8-0.4-1.4-2.1-1.4V32h6.9v17.4c0,0.8,0.4,1.4,2.1,1.4v0.2h-9V50.9z
		 M39.5,32.2V32h7.7v5.6h-0.2C45.7,33.7,43.7,32.5,39.5,32.2z M41,41.7l-1.5-0.1v-0.2l1.5-0.1c1.7-0.1,2.8-0.8,3.7-2.4h0.2v5.2h-0.2
		C43.8,42.5,42.7,41.9,41,41.7z"/>
</g>
<g class="st0">
	<path class="st1" d="M55.3,49.5c0,0.7,0.4,1.4,2.1,1.4v0.2h-8.8v-0.2c1.7,0,2.1-0.7,2.1-1.4v-9.9c0-1-0.5-1.5-2.1-1.5v-0.2
		c2.6,0,4.7-0.3,6.7-1.1V49.5z M62.9,39.8c0,1.9-1.4,3.2-2.9,3.2c-0.7,0-1.3-0.2-1.6-0.6c0.5-0.3,1.1-0.9,1.1-1.9
		c0-0.8-0.6-1.5-1.6-1.5c-0.7,0-1.3,0.4-1.7,1.1v-0.2c0.5-1.8,1.9-3,3.6-3C61.8,36.8,62.9,38.2,62.9,39.8z"/>
</g>
<g class="st0">
	<path class="st1" d="M71.4,37c-1.7,0.2-2.2,1.6-2.2,7.1c0,5.3,0.6,7,2.2,7.2v0.2c-3.2,0-7-2.6-7-7.3s3.7-7.2,7-7.2V37z M79.4,44
		c0,4.7-3.7,7.3-6.9,7.3v-0.2c1.7-0.2,2.2-1.9,2.2-7.2c0-5.5-0.6-6.9-2.2-7.1v-0.2C75.7,36.8,79.4,39.3,79.4,44z"/>
	<path class="st1" d="M88,49.5c0,0.7,0.4,1.4,2.1,1.4v0.2h-8.8v-0.2c1.7,0,2.1-0.7,2.1-1.4v-9.9c0-1-0.5-1.5-2.1-1.5v-0.2
		c2.6,0,4.7-0.3,6.7-1.1V49.5z M97.3,40.8v8.7c0,0.7,0.4,1.4,2.1,1.4v0.2h-8.8v-0.2c1.7,0,2.1-0.7,2.1-1.4v-8.7c0-1.6-0.6-2.4-2-2.4
		c-0.8,0-1.5,0.4-1.8,0.8V39c0.6-1.2,2-2.2,4.1-2.2C95.6,36.8,97.3,38,97.3,40.8z M106.6,40.8v8.7c0,0.7,0.4,1.4,2.1,1.4v0.2h-8.8
		v-0.2c1.7,0,2.1-0.7,2.1-1.4v-8.7c0-1.6-0.6-2.4-2-2.4c-0.8,0-1.5,0.4-1.8,0.8V39c0.6-1.2,2-2.2,4.1-2.2
		C104.9,36.8,106.6,38,106.6,40.8z"/>
</g>
<g class="st0">
	<path class="st1" d="M36,77.8c-0.9,0-1.6,0.6-1.6,1.4c0,0.8,0.6,1.8,2.5,2v0.2c-3.7-0.1-5.8-1.1-5.8-2.8c0-1.3,1.1-2.1,2.4-2.1
		C34.7,76.5,35.6,77.1,36,77.8z M37,67c-1,0.2-2,0.7-2,1.9c0.1,3.2,9.2,3.8,9.2,8.2c0,2.7-2.3,4.1-5.9,4.3v-0.2
		c1.2-0.2,2.5-0.6,2.5-2.1c0-2.9-9.2-4-9.2-8.2c0-2.5,2.3-3.9,5.5-4.1V67z M43.6,69.7c0,0.9-0.7,1.7-2.1,1.7c-1.2,0-2-0.5-2.4-1.3
		c0.8-0.1,1.3-0.6,1.3-1.3c0-0.8-1.1-1.7-2.2-1.8v-0.2C41.4,67,43.6,68.1,43.6,69.7z"/>
	<path class="st1" d="M52.4,85.3c0,1,0.5,1.5,2.1,1.5V87c-2.6,0-4.3,0.3-6.7,1.1V69.5c0-1-0.5-1.5-2.1-1.5v-0.2
		c2.6,0,4.3-0.3,6.7-1.1V85.3z M63.1,74c0,5.9-3.1,7.4-5.7,7.4c-1.6,0-3.4-1.1-4.1-2.3v-0.2c0.7,0.5,1.5,1,2.4,1
		c1.3,0,2.7-0.9,2.7-6c0-5.1-1.3-5.7-2.7-5.7c-0.9,0-1.7,0.3-2.4,1V69c0.7-1.2,2.5-2.2,4.1-2.2C60.1,66.8,63.1,68.4,63.1,74z"/>
	<path class="st1" d="M65.6,74c0-4.7,3.6-7.2,6.9-7.2V67c-1.7,0.2-2.1,1.6-2.1,6.9c0,4,1.8,6.2,4.3,6.2c1.6,0,2.8-0.4,4.1-1.5v0.2
		c-1.5,1.8-4.1,2.5-5.9,2.5C69.2,81.4,65.6,78.7,65.6,74z M71.9,72.9c2.5,0,3.5-0.8,3.5-3.1c0-1.3-0.6-2.6-1.8-2.7v-0.2
		c3.7,0,5.5,2.6,5.5,4.8c0,0.4-0.1,1-0.1,1.5h-7V72.9z"/>
	<path class="st1" d="M88.5,67c-1.7,0.2-2.4,1.6-2.4,6.9c0,4,2,6.2,4.5,6.2c1.6,0,2.8-0.4,4.1-1.5v0.2c-1.5,1.8-4.1,2.5-5.9,2.5
		c-3.6,0-7.5-2.6-7.5-7.3s3.9-7.2,7.2-7.2V67z M94.7,70c0,1.5-1,2.7-2.8,2.7c-1.4,0-2.3-0.9-2.4-1.8c0.8-0.3,1.3-1.3,1.3-2
		c0-0.6-0.2-1.7-1.2-1.8v-0.2C93.3,66.8,94.7,68.4,94.7,70z"/>
	<path class="st1" d="M96.4,67.9c2.6,0,4.7-0.3,6.7-1.1v12.7c0,0.7,0.4,1.4,2.1,1.4v0.2h-8.8v-0.2c1.7,0,2.1-0.7,2.1-1.4v-10
		c0-1-0.5-1.5-2.1-1.5V67.9z M97.8,62.6c0-1.5,1.2-2.4,2.9-2.4c1.7,0,2.9,1,2.9,2.4c0,1.5-1.2,2.5-2.9,2.5
		C99,65.1,97.8,64.1,97.8,62.6z"/>
	<path class="st1" d="M106.6,77.8c0-2.4,2.2-3.8,5.4-3.8h3v0.2h-0.8c-2,0-3,1.3-3,3.1c0,1.5,0.4,2.7,1.8,2.7c0.8,0,1.4-0.4,2-1v0.2
		c-0.9,1.1-2.4,2.3-4.5,2.3C108.1,81.4,106.5,80,106.6,77.8z M107.7,69.9c0-1.4,1.3-2.9,5.1-3.1V67c-1.1,0.2-1.8,1.1-1.8,2
		c0,1,0.7,1.6,1.8,1.7c-0.4,0.8-1.6,1.3-2.7,1.3C108.6,72.1,107.7,71,107.7,69.9z M115.8,78.2v-8.6c0-1.4-0.5-2.5-1.9-2.7v-0.2
		c4.6,0.2,6.5,1.9,6.5,5.6v6.8c0,0.8,0.3,1.1,0.8,1.1c0.4,0,0.9-0.4,1.3-1.3h0.2c-0.4,1.5-2,2.3-3.6,2.3
		C116.8,81.4,115.8,80.6,115.8,78.2z"/>
	<path class="st1" d="M123.4,61.6c2.6,0,4.7-0.3,6.7-1.1v19c0,0.7,0.4,1.4,2.1,1.4v0.2h-8.8v-0.2c1.7,0,2.1-0.7,2.1-1.4V63.3
		c0-1-0.5-1.5-2.1-1.5V61.6z"/>
	<path class="st1" d="M133.4,67.9c2.6,0,4.7-0.3,6.7-1.1v12.7c0,0.7,0.4,1.4,2.1,1.4v0.2h-8.8v-0.2c1.7,0,2.1-0.7,2.1-1.4v-10
		c0-1-0.5-1.5-2.1-1.5V67.9z M134.9,62.6c0-1.5,1.2-2.4,2.9-2.4c1.7,0,2.9,1,2.9,2.4c0,1.5-1.2,2.5-2.9,2.5
		C136,65.1,134.9,64.1,134.9,62.6z"/>
	<path class="st1" d="M148.8,77.8c-0.9,0-1.6,0.6-1.6,1.4c0,0.8,0.6,1.8,2.5,2v0.2c-3.7-0.1-5.8-1.1-5.8-2.8c0-1.3,1.1-2.1,2.4-2.1
		C147.4,76.5,148.4,77.1,148.8,77.8z M149.7,67c-1,0.2-2,0.7-2,1.9c0.1,3.2,9.2,3.8,9.2,8.2c0,2.7-2.3,4.1-5.9,4.3v-0.2
		c1.2-0.2,2.5-0.6,2.5-2.1c0-2.9-9.2-4-9.2-8.2c0-2.5,2.3-3.9,5.5-4.1V67z M156.3,69.7c0,0.9-0.7,1.7-2.1,1.7c-1.2,0-2-0.5-2.4-1.3
		c0.8-0.1,1.3-0.6,1.3-1.3c0-0.8-1.1-1.7-2.2-1.8v-0.2C154.1,67,156.3,68.1,156.3,69.7z"/>
	<path class="st1" d="M169.5,78.9v0.2c-0.9,1.3-2.7,2.3-4.8,2.3c-2.5,0-4.3-1.1-4.3-3.9v-9.2H159l0.3-0.4h1.1v-3
		c1.7,0,3.4-0.5,4.6-1.6v4.6h3.8l-0.3,0.4H165v9.3c0,1.4,0.5,2.9,1.8,2.9C167.7,80.4,168.6,79.9,169.5,78.9z"/>
	<path class="st1" d="M175.6,77.8c-0.9,0-1.6,0.6-1.6,1.4c0,0.8,0.6,1.8,2.5,2v0.2c-3.7-0.1-5.8-1.1-5.8-2.8c0-1.3,1.1-2.1,2.4-2.1
		C174.3,76.5,175.2,77.1,175.6,77.8z M176.5,67c-1,0.2-2,0.7-2,1.9c0.1,3.2,9.2,3.8,9.2,8.2c0,2.7-2.3,4.1-5.9,4.3v-0.2
		c1.2-0.2,2.5-0.6,2.5-2.1c0-2.9-9.2-4-9.2-8.2c0-2.5,2.3-3.9,5.5-4.1V67z M183.1,69.7c0,0.9-0.7,1.7-2.1,1.7c-1.2,0-2-0.5-2.4-1.3
		c0.8-0.1,1.3-0.6,1.3-1.3c0-0.8-1.1-1.7-2.2-1.8v-0.2C180.9,67,183.1,68.1,183.1,69.7z"/>
</g>
<g class="st0">
	<path class="st1" d="M38.3,111.2v0.2c-2.2-0.1-4-0.5-5.4-1.4l-0.9,1.4h-0.2v-6.8H32C32.9,107.7,34.9,110.1,38.3,111.2z M46.5,105.6
		c0,3.6-2.7,5.6-7,5.7v-0.2c1.5-0.3,3.1-1.2,3.1-2.9c0-4.9-10.7-5.3-10.7-11c0-3.4,2.7-5.3,6.4-5.5v0.2c-1.3,0.2-2.5,1-2.5,2.6
		C35.9,99.4,46.5,99.9,46.5,105.6z M39.5,91.9v-0.2c2.1,0.1,3.8,0.6,5,1.5l1-1.5h0.2V98h-0.2C44.7,95,42.3,92.6,39.5,91.9z"/>
</g>
<g class="st0">
	<path class="st1" d="M59.3,108.9v0.2c-0.9,1.3-2.7,2.3-4.8,2.3c-2.5,0-4.3-1.1-4.3-3.9v-9.2h-1.5l0.3-0.4h1.1v-3
		c1.7,0,3.4-0.5,4.6-1.6v4.6h3.8l-0.3,0.4h-3.5v9.3c0,1.4,0.5,2.9,1.8,2.9C57.4,110.4,58.4,109.9,59.3,108.9z"/>
	<path class="st1" d="M60.2,107.8c0-2.4,2.2-3.8,5.4-3.8h3v0.2h-0.8c-2,0-3,1.3-3,3.1c0,1.5,0.4,2.7,1.8,2.7c0.8,0,1.4-0.4,2-1v0.2
		c-0.9,1.1-2.4,2.3-4.5,2.3C61.8,111.4,60.2,110,60.2,107.8z M61.3,99.9c0-1.4,1.3-2.9,5.1-3.1V97c-1.1,0.2-1.8,1.1-1.8,2
		c0,1,0.7,1.6,1.8,1.7c-0.4,0.8-1.6,1.3-2.7,1.3C62.2,102.1,61.3,101,61.3,99.9z M69.5,108.2v-8.6c0-1.4-0.5-2.5-1.9-2.7v-0.2
		c4.6,0.2,6.5,1.9,6.5,5.6v6.8c0,0.8,0.3,1.1,0.8,1.1c0.4,0,0.9-0.4,1.3-1.3h0.2c-0.4,1.5-2,2.3-3.6,2.3
		C70.5,111.4,69.5,110.6,69.5,108.2z"/>
</g>
<g class="st0">
	<path class="st1" d="M83.9,109.5c0,0.7,0.4,1.4,2.1,1.4v0.2h-8.8v-0.2c1.7,0,2.1-0.7,2.1-1.4v-9.9c0-1-0.5-1.5-2.1-1.5v-0.2
		c2.6,0,4.7-0.3,6.7-1.1V109.5z M91.5,99.8c0,1.9-1.4,3.2-2.9,3.2c-0.7,0-1.3-0.2-1.6-0.6c0.5-0.3,1.1-0.9,1.1-1.9
		c0-0.8-0.6-1.5-1.6-1.5c-0.7,0-1.3,0.4-1.7,1.1v-0.2c0.5-1.8,1.9-3,3.6-3C90.4,96.8,91.5,98.2,91.5,99.8z"/>
</g>
<g class="st0">
	<path class="st1" d="M48.2,137.8l0.1,0.2c-1.5,2.3-4,3.4-6.7,3.4c-4.6,0-10.2-3.2-10.2-9.8c0-7.1,5.5-9.7,9.6-9.8v0.2
		c-2,0.4-4.1,2.3-4.1,9.5c0,7.1,2.9,8.8,6,8.8C45.4,140.3,47.2,139,48.2,137.8z M48.5,121.8v6.8h-0.2c-1.1-3.7-3.2-5.9-5.9-6.6v-0.2
		c2.4,0.1,3.9,0.5,5.1,1.3l0.8-1.3H48.5z"/>
	<path class="st1" d="M50.6,137.8c0-2.4,2.2-3.8,5.4-3.8h3v0.2h-0.8c-2,0-3,1.3-3,3.1c0,1.5,0.4,2.7,1.8,2.7c0.8,0,1.4-0.4,2-1v0.2
		c-0.9,1.1-2.4,2.3-4.5,2.3C52.1,141.4,50.6,140,50.6,137.8z M51.7,129.9c0-1.4,1.3-2.9,5.1-3.1v0.2c-1.1,0.2-1.8,1.1-1.8,2
		c0,1,0.7,1.6,1.8,1.7c-0.4,0.8-1.6,1.3-2.7,1.3C52.6,132.1,51.7,131,51.7,129.9z M59.8,138.2v-8.6c0-1.4-0.5-2.5-1.9-2.7v-0.2
		c4.6,0.2,6.5,1.9,6.5,5.6v6.8c0,0.8,0.3,1.1,0.8,1.1c0.4,0,0.9-0.4,1.3-1.3h0.2c-0.4,1.5-2,2.3-3.6,2.3
		C60.8,141.4,59.8,140.6,59.8,138.2z"/>
	<path class="st1" d="M74.3,139.5c0,0.7,0.4,1.4,2.1,1.4v0.2h-8.8v-0.2c1.7,0,2.1-0.7,2.1-1.4v-9.9c0-1-0.5-1.5-2.1-1.5v-0.2
		c2.6,0,4.7-0.3,6.7-1.1V139.5z M83.6,130.8v8.7c0,0.7,0.4,1.4,2.1,1.4v0.2h-8.8v-0.2c1.7,0,2.1-0.7,2.1-1.4v-8.7
		c0-1.6-0.6-2.4-2-2.4c-0.8,0-1.5,0.4-1.8,0.8V129c0.6-1.2,2-2.2,4.1-2.2C81.9,126.8,83.6,128,83.6,130.8z M92.9,130.8v8.7
		c0,0.7,0.4,1.4,2.1,1.4v0.2h-8.8v-0.2c1.7,0,2.1-0.7,2.1-1.4v-8.7c0-1.6-0.6-2.4-2-2.4c-0.8,0-1.5,0.4-1.8,0.8V129
		c0.6-1.2,2-2.2,4.1-2.2C91.2,126.8,92.9,128,92.9,130.8z"/>
	<path class="st1" d="M102.4,145.3c0,1,0.5,1.5,2.1,1.5v0.2c-2.6,0-4.3,0.3-6.7,1.1v-18.6c0-1-0.5-1.5-2.1-1.5v-0.2
		c2.6,0,4.3-0.3,6.7-1.1V145.3z M113.1,134c0,5.9-3.1,7.4-5.7,7.4c-1.6,0-3.4-1.1-4.1-2.3v-0.2c0.7,0.5,1.5,1,2.4,1
		c1.3,0,2.7-0.9,2.7-6c0-5.1-1.3-5.7-2.7-5.7c-0.9,0-1.7,0.3-2.4,1V129c0.7-1.2,2.5-2.2,4.1-2.2C110.1,126.8,113.1,128.4,113.1,134z
		"/>
	<path class="st1" d="M115.6,134c0-4.7,3.6-7.2,6.9-7.2v0.2c-1.7,0.2-2.1,1.6-2.1,6.9c0,4,1.8,6.2,4.3,6.2c1.6,0,2.8-0.4,4.1-1.5
		v0.2c-1.5,1.8-4.1,2.5-5.9,2.5C119.2,141.4,115.6,138.7,115.6,134z M121.9,132.9c2.5,0,3.5-0.8,3.5-3.1c0-1.3-0.6-2.6-1.8-2.7v-0.2
		c3.7,0,5.5,2.6,5.5,4.8c0,0.4-0.1,1-0.1,1.5h-7V132.9z"/>
	<path class="st1" d="M137.5,139.5c0,0.7,0.4,1.4,2.1,1.4v0.2h-8.8v-0.2c1.7,0,2.1-0.7,2.1-1.4v-9.9c0-1-0.5-1.5-2.1-1.5v-0.2
		c2.6,0,4.7-0.3,6.7-1.1V139.5z M145.1,129.8c0,1.9-1.4,3.2-2.9,3.2c-0.7,0-1.3-0.2-1.6-0.6c0.5-0.3,1.1-0.9,1.1-1.9
		c0-0.8-0.6-1.5-1.6-1.5c-0.7,0-1.3,0.4-1.7,1.1v-0.2c0.5-1.8,1.9-3,3.6-3C144,126.8,145.1,128.2,145.1,129.8z"/>
	<path class="st1" d="M163.8,137.8l0.1,0.2c-1.5,2.3-4,3.4-6.7,3.4c-4.6,0-10.2-3.2-10.2-9.8c0-7.1,5.5-9.7,9.6-9.8v0.2
		c-2,0.4-4.1,2.3-4.1,9.5c0,7.1,2.9,8.8,6,8.8C161,140.3,162.9,139,163.8,137.8z M164.1,121.8v6.8h-0.2c-1.1-3.7-3.2-5.9-5.9-6.6
		v-0.2c2.4,0.1,3.9,0.5,5.1,1.3l0.8-1.3H164.1z"/>
	<path class="st1" d="M166.2,137.8c0-2.4,2.2-3.8,5.4-3.8h3v0.2h-0.8c-2,0-3,1.3-3,3.1c0,1.5,0.4,2.7,1.8,2.7c0.8,0,1.4-0.4,2-1v0.2
		c-0.9,1.1-2.4,2.3-4.5,2.3C167.8,141.4,166.2,140,166.2,137.8z M167.3,129.9c0-1.4,1.3-2.9,5.1-3.1v0.2c-1.1,0.2-1.8,1.1-1.8,2
		c0,1,0.7,1.6,1.8,1.7c-0.4,0.8-1.6,1.3-2.7,1.3C168.2,132.1,167.3,131,167.3,129.9z M175.4,138.2v-8.6c0-1.4-0.5-2.5-1.9-2.7v-0.2
		c4.6,0.2,6.5,1.9,6.5,5.6v6.8c0,0.8,0.3,1.1,0.8,1.1c0.4,0,0.9-0.4,1.3-1.3h0.2c-0.4,1.5-2,2.3-3.6,2.3
		C176.4,141.4,175.4,140.6,175.4,138.2z"/>
</g>
<g class="st0">
	<path class="st1" d="M189.9,139.5c0,0.7,0.4,1.4,2.1,1.4v0.2h-8.8v-0.2c1.7,0,2.1-0.7,2.1-1.4v-9.9c0-1-0.5-1.5-2.1-1.5v-0.2
		c2.6,0,4.7-0.3,6.7-1.1V139.5z M197.5,129.8c0,1.9-1.4,3.2-2.9,3.2c-0.7,0-1.3-0.2-1.6-0.6c0.5-0.3,1.1-0.9,1.1-1.9
		c0-0.8-0.6-1.5-1.6-1.5c-0.7,0-1.3,0.4-1.7,1.1v-0.2c0.5-1.8,1.9-3,3.6-3C196.4,126.8,197.5,128.2,197.5,129.8z"/>
</g>
<g class="st0">
	<path class="st1" d="M199,134c0-4.7,3.6-7.2,6.9-7.2v0.2c-1.7,0.2-2.1,1.6-2.1,6.9c0,4,1.8,6.2,4.3,6.2c1.6,0,2.8-0.4,4.1-1.5v0.2
		c-1.5,1.8-4.1,2.5-5.9,2.5C202.6,141.4,199,138.7,199,134z M205.3,132.9c2.5,0,3.5-0.8,3.5-3.1c0-1.3-0.6-2.6-1.8-2.7v-0.2
		c3.7,0,5.5,2.6,5.5,4.8c0,0.4-0.1,1-0.1,1.5h-7V132.9z"/>
</g>
<rect y="0" class="st2" width="300" height="250"/>
</svg>
