<svg id="Layer_1" data-name="Layer 1" xmlns="http://www.w3.org/2000/svg" viewBox="0 0 300.25 250.25"><defs><style>.cls-1{fill:none;}.cls-2{fill:#fb0010;}.cls-3{fill:#fff;}</style></defs><title>Artboard 6</title><rect class="cls-1" x="-0.11" y="0.18" width="300" height="250"/><path class="cls-2" d="M37.39,222.74h142a12.17,12.17,0,0,0,10.8-6.56l16-30.85a12.17,12.17,0,0,0,0-11.2l-16-30.85a12.17,12.17,0,0,0-10.8-6.56h-142A7.38,7.38,0,0,0,30,144.1v71.26A7.38,7.38,0,0,0,37.39,222.74Z"/><path class="cls-3" d="M94.12,169.14l.3-.44c.22-.3.45-.31.79-.12a3.41,3.41,0,0,0,2,.71c.9,0,1.44-.45,1.44-1.1,0-1.84-4.51-1.46-4.51-4.47,0-1.71,1.42-2.81,3.26-2.81a4.5,4.5,0,0,1,2.49.74.53.53,0,0,1,.18.77l-.25.45c-.2.4-.49.34-.77.19a3.21,3.21,0,0,0-1.68-.53c-.9,0-1.47.44-1.47,1.09,0,1.81,4.51,1.35,4.51,4.43a2.9,2.9,0,0,1-3.2,2.86,5.08,5.08,0,0,1-3-1A.51.51,0,0,1,94.12,169.14Z"/><path class="cls-3" d="M104.28,162.59h-2.61a.5.5,0,0,1-.57-.56v-.38a.52.52,0,0,1,.57-.58h7a.51.51,0,0,1,.56.58V162a.5.5,0,0,1-.56.56H106v7.58a.51.51,0,0,1-.57.58h-.62c-.36,0-.55-.19-.55-.58Z"/><path class="cls-3" d="M111.48,161.54a.61.61,0,0,1,.64-.47H113a.6.6,0,0,1,.64.47l3,8.55c.13.4,0,.66-.47.66h-.62a.6.6,0,0,1-.64-.47l-.68-2h-3.4l-.66,2a.62.62,0,0,1-.65.48h-.62c-.42,0-.6-.26-.46-.66Zm2.33,5.3-.86-2.59c-.16-.55-.38-1.5-.38-1.5h0s-.22.95-.38,1.5l-.87,2.59Z"/><path class="cls-3" d="M117.88,161.65a.51.51,0,0,1,.56-.58h2.61a4.36,4.36,0,0,1,1.84.26,2.7,2.7,0,0,1,1.62,2.65,2.8,2.8,0,0,1-1.6,2.64v0a3.74,3.74,0,0,1,.31.5l1.59,2.92c.24.39.06.68-.39.68h-.74a.68.68,0,0,1-.66-.4l-1.71-3.21h-1.69v3a.5.5,0,0,1-.56.58h-.62a.5.5,0,0,1-.56-.58Zm3.32,4a1.43,1.43,0,0,0,1.53-1.54,1.3,1.3,0,0,0-.76-1.32,2.47,2.47,0,0,0-1-.16h-1.3v3Z"/><path class="cls-3" d="M94.76,173.46a.3.3,0,0,1,.33-.34h.29a.31.31,0,0,1,.32.34v8.9a.3.3,0,0,1-.32.34h-.29a.3.3,0,0,1-.33-.34Z"/><path class="cls-3" d="M98,176.19a.31.31,0,0,1,.34-.34h.25a.3.3,0,0,1,.32.34V177a2.46,2.46,0,0,1,0,.49h0a3,3,0,0,1,2.76-1.79c1.71,0,2.31,1,2.31,2.66v4a.31.31,0,0,1-.34.34h-.26a.3.3,0,0,1-.33-.34v-3.77c0-1.08-.18-2-1.5-2a2.65,2.65,0,0,0-2.6,2.79v3a.3.3,0,0,1-.33.34h-.26a.31.31,0,0,1-.34-.34Z"/><path class="cls-3" d="M105.4,181.61l.11-.13c.12-.17.27-.18.46-.06a3,3,0,0,0,1.81.63c.77,0,1.39-.38,1.39-1.11,0-1.54-3.66-1.07-3.66-3.33,0-1.27,1.07-1.93,2.33-1.93a3.21,3.21,0,0,1,1.88.56.3.3,0,0,1,.09.45l-.09.15a.31.31,0,0,1-.47.1,2.52,2.52,0,0,0-1.47-.44c-.72,0-1.35.32-1.35,1.06,0,1.59,3.65,1.08,3.65,3.37a2.06,2.06,0,0,1-2.31,1.93,3.57,3.57,0,0,1-2.32-.79A.3.3,0,0,1,105.4,181.61Z"/><path class="cls-3" d="M111.46,176.19a.3.3,0,0,1,.33-.34h.26a.31.31,0,0,1,.34.34V180c0,1.08.16,2,1.48,2a2.66,2.66,0,0,0,2.54-2.86v-2.94a.31.31,0,0,1,.34-.34H117a.3.3,0,0,1,.33.34v6.17a.3.3,0,0,1-.33.34h-.24a.3.3,0,0,1-.33-.34v-.79a3.06,3.06,0,0,1,0-.49h0a3,3,0,0,1-2.7,1.78c-1.62,0-2.29-.87-2.29-2.65Z"/><path class="cls-3" d="M119.34,176.19a.31.31,0,0,1,.34-.34h.25a.3.3,0,0,1,.32.34v.93a3.09,3.09,0,0,1,0,.54h0a2.43,2.43,0,0,1,2.2-1.85c.25,0,.36.11.36.32v.25c0,.22-.15.34-.38.34-1.45,0-2.14,1.65-2.14,3.08v2.56a.3.3,0,0,1-.33.34h-.26a.31.31,0,0,1-.34-.34Z"/><path class="cls-3" d="M127.5,178.5h.4v-.21c0-1.32-.72-1.77-1.69-1.77a3.22,3.22,0,0,0-1.66.47.32.32,0,0,1-.47-.11l-.08-.13a.31.31,0,0,1,.1-.47,4.25,4.25,0,0,1,2.18-.6,2.34,2.34,0,0,1,2.55,2.63v4.05a.3.3,0,0,1-.33.34h-.22a.3.3,0,0,1-.34-.34v-.54a2.92,2.92,0,0,1,0-.52h0a2.53,2.53,0,0,1-2.31,1.56,2.11,2.11,0,0,1-2.32-2C123.32,178.63,126.18,178.5,127.5,178.5Zm-1.7,3.59a2.38,2.38,0,0,0,2.1-2.56v-.33h-.38c-1.08,0-3.24,0-3.24,1.58A1.37,1.37,0,0,0,125.8,182.09Z"/><path class="cls-3" d="M130.77,176.19a.31.31,0,0,1,.34-.34h.25a.3.3,0,0,1,.32.34V177a2.46,2.46,0,0,1-.05.49h0a3,3,0,0,1,2.76-1.79c1.7,0,2.3,1,2.3,2.66v4a.31.31,0,0,1-.34.34h-.26a.3.3,0,0,1-.32-.34v-3.77c0-1.08-.18-2-1.5-2a2.65,2.65,0,0,0-2.6,2.79v3a.3.3,0,0,1-.33.34h-.26a.31.31,0,0,1-.34-.34Z"/><path class="cls-3" d="M141.85,175.68a3.59,3.59,0,0,1,2.27.78.29.29,0,0,1,0,.46l-.1.15c-.12.2-.27.2-.46.07a2.84,2.84,0,0,0-1.73-.62,2.76,2.76,0,0,0,0,5.51,3,3,0,0,0,1.93-.72.27.27,0,0,1,.45.08l.1.14a.32.32,0,0,1-.08.46,3.8,3.8,0,0,1-2.44.87,3.59,3.59,0,1,1,0-7.18Z"/><path class="cls-3" d="M148.6,175.68c1.82,0,2.86,1.33,2.86,3.27a.34.34,0,0,1-.36.35h-4.93a2.61,2.61,0,0,0,2.66,2.73,3,3,0,0,0,1.8-.62.28.28,0,0,1,.45.08l.11.16a.33.33,0,0,1-.1.45,4,4,0,0,1-2.29.76,3.46,3.46,0,0,1-3.58-3.58A3.34,3.34,0,0,1,148.6,175.68Zm1.92,2.92a2,2,0,0,0-2-2.15,2.37,2.37,0,0,0-2.36,2.15Z"/><path class="cls-3" d="M99,185.74a5.38,5.38,0,0,1,3.16,1,.53.53,0,0,1,.11.79l-.24.39c-.19.31-.45.34-.78.14a4,4,0,0,0-2.18-.68,3.12,3.12,0,0,0-3.24,3.32A3.24,3.24,0,0,0,99,194.13a4.1,4.1,0,0,0,2.37-.84c.3-.22.58-.22.79.09l.28.37a.53.53,0,0,1-.09.79,5.38,5.38,0,0,1-3.42,1.2,5,5,0,0,1,0-10Z"/><path class="cls-3" d="M107.53,191.28h.29v-.16a1.14,1.14,0,0,0-1.3-1.23,3.11,3.11,0,0,0-1.44.4.51.51,0,0,1-.76-.23l-.14-.26a.51.51,0,0,1,.22-.76,4.81,4.81,0,0,1,2.27-.58,2.59,2.59,0,0,1,2.88,2.77V195a.51.51,0,0,1-.57.58h-.47A.5.5,0,0,1,108,195v-.27a1.25,1.25,0,0,1,0-.3h0a2.52,2.52,0,0,1-2.18,1.31,2.14,2.14,0,0,1-2.3-2.09C103.47,191.62,106,191.28,107.53,191.28Zm-1.29,3.14a1.77,1.77,0,0,0,1.59-1.83v-.26h-.28c-.88,0-2.36.14-2.36,1.17A.94.94,0,0,0,106.24,194.42Z"/><path class="cls-3" d="M111.18,189.2a.51.51,0,0,1,.56-.57h.53a.5.5,0,0,1,.56.57v.42a2.9,2.9,0,0,1,0,.31h0a2.68,2.68,0,0,1,2.28-1.47,1.93,1.93,0,0,1,2,1.43h0a2.75,2.75,0,0,1,2.37-1.43c1.44,0,2.27.82,2.27,2.65V195a.51.51,0,0,1-.57.58h-.59a.51.51,0,0,1-.57-.58v-3.57c0-.79-.15-1.39-1-1.39-1.17,0-1.77,1.2-1.77,2.42V195a.5.5,0,0,1-.56.58h-.6a.51.51,0,0,1-.57-.58v-3.57c0-.75-.11-1.39-.93-1.39-1.23,0-1.8,1.26-1.8,2.42V195a.5.5,0,0,1-.56.58h-.6a.51.51,0,0,1-.56-.58Z"/><path class="cls-3" d="M123.47,189.2a.51.51,0,0,1,.57-.57h.44c.37,0,.56.2.56.47v.32a1.83,1.83,0,0,1,0,.27h0a2.49,2.49,0,0,1,2.23-1.23c1.88,0,3.1,1.49,3.1,3.64s-1.37,3.64-3.19,3.64a2.24,2.24,0,0,1-2-1.06h0a4,4,0,0,1,0,.6v2.45a.5.5,0,0,1-.57.57H124a.51.51,0,0,1-.57-.57Zm3.41,5.08c1,0,1.74-.78,1.74-2.15s-.71-2.18-1.72-2.18-1.76.65-1.76,2.19A1.91,1.91,0,0,0,126.88,194.28Z"/><path class="cls-3" d="M134.85,188.46a3,3,0,0,1,3.08,3.31.61.61,0,0,1-.6.59h-4.24a2,2,0,0,0,2.08,1.91,2.9,2.9,0,0,0,1.5-.45.51.51,0,0,1,.77.19l.16.27a.52.52,0,0,1-.19.76,4.37,4.37,0,0,1-2.36.7,3.56,3.56,0,0,1-3.73-3.64A3.43,3.43,0,0,1,134.85,188.46Zm1.36,2.85a1.41,1.41,0,0,0-1.4-1.54,1.69,1.69,0,0,0-1.68,1.54Z"/><path class="cls-3" d="M139.23,189.2a.5.5,0,0,1,.56-.57h.53a.51.51,0,0,1,.57.57v.65a3,3,0,0,1,0,.48h0a2.38,2.38,0,0,1,2-1.76c.38,0,.52.19.52.57v.54a.53.53,0,0,1-.58.57c-1.27,0-1.89,1.25-1.89,2.52V195c0,.39-.19.58-.55.58h-.6a.5.5,0,0,1-.56-.58Z"/><path class="cls-3" d="M149.16,185.74a5.38,5.38,0,0,1,3.16,1,.53.53,0,0,1,.11.79l-.24.39c-.19.31-.45.34-.78.14a4,4,0,0,0-2.18-.68,3.12,3.12,0,0,0-3.24,3.32,3.24,3.24,0,0,0,3.25,3.46,4.1,4.1,0,0,0,2.37-.84c.3-.22.58-.22.79.09l.28.37a.53.53,0,0,1-.09.79,5.37,5.37,0,0,1-3.41,1.2,5,5,0,1,1,0-10Z"/><path class="cls-3" d="M157.73,191.28H158v-.16a1.14,1.14,0,0,0-1.3-1.23,3.11,3.11,0,0,0-1.44.4.51.51,0,0,1-.76-.23l-.14-.26a.51.51,0,0,1,.22-.76,4.81,4.81,0,0,1,2.27-.58,2.59,2.59,0,0,1,2.88,2.77V195a.51.51,0,0,1-.57.58h-.47a.51.51,0,0,1-.56-.58v-.27a1.25,1.25,0,0,1,0-.3h0a2.52,2.52,0,0,1-2.18,1.31,2.14,2.14,0,0,1-2.3-2.09C153.67,191.62,156.18,191.28,157.73,191.28Zm-1.29,3.14a1.76,1.76,0,0,0,1.59-1.83v-.26h-.28c-.88,0-2.36.14-2.36,1.17A.94.94,0,0,0,156.44,194.42Z"/><path class="cls-3" d="M161.38,189.2a.51.51,0,0,1,.56-.57h.53a.52.52,0,0,1,.58.57v.65a3,3,0,0,1,0,.48h0a2.41,2.41,0,0,1,2-1.76c.38,0,.52.19.52.57v.54a.53.53,0,0,1-.59.57c-1.27,0-1.88,1.25-1.88,2.52V195a.5.5,0,0,1-.56.58h-.6a.51.51,0,0,1-.56-.58Z"/><path class="cls-3" d="M169.51,188.46a3,3,0,0,1,3.08,3.31.61.61,0,0,1-.6.59h-4.24a2,2,0,0,0,2.08,1.91,2.93,2.93,0,0,0,1.5-.45c.34-.17.59-.12.76.19l.17.27a.52.52,0,0,1-.19.76,4.37,4.37,0,0,1-2.36.7A3.56,3.56,0,0,1,166,192.1,3.43,3.43,0,0,1,169.51,188.46Zm1.36,2.85a1.41,1.41,0,0,0-1.4-1.54,1.69,1.69,0,0,0-1.68,1.54Z"/><path class="cls-3" d="M61.91,191.23a.87.87,0,0,1-.44-.11A1,1,0,0,1,61,190l10.08-31a2.12,2.12,0,0,1,2-1.49h0a2.12,2.12,0,0,1,2.05,1.49l2,6.15a.73.73,0,1,1-1.38.46l-2-6.16a.68.68,0,0,0-.66-.48h0a.68.68,0,0,0-.66.48l-9.12,28.07L76.2,169.87a4,4,0,0,1,3.22-1.64H88a2.16,2.16,0,0,1,1.27,3.9l-7.83,5.68a.6.6,0,0,1-.08.08l3,9.3a2.16,2.16,0,0,1-3.32,2.4l-6.76-4.91a2.16,2.16,0,0,1,0-3.49L80,177.08l.09-.07L88.39,171a.7.7,0,0,0-.41-1.26H79.42a2.53,2.53,0,0,0-2,1l-14.69,20.1A1,1,0,0,1,61.91,191.23ZM80.1,178.79l-5,3.59a.67.67,0,0,0-.28.56.7.7,0,0,0,.28.56l6.77,4.91a.65.65,0,0,0,.81,0,.67.67,0,0,0,.26-.77Z"/><path class="cls-3" d="M62.43,175.8a.74.74,0,0,1-.42-.13l-5-3.54a2.15,2.15,0,0,1,1.26-3.9H64.4a.73.73,0,0,1,0,1.46H58.28a.7.7,0,0,0-.41,1.26l5,3.52a.74.74,0,0,1,.17,1A.74.74,0,0,1,62.43,175.8Z"/><path class="cls-3" d="M69.23,201.53a2.33,2.33,0,0,1-1.17-.31L55.3,194a.74.74,0,0,1-.37-.64V177.79a.73.73,0,1,1,1.46,0v15.14l12.39,7a.89.89,0,0,0,.93,0l9.05-5.66a.73.73,0,0,1,1,.23.74.74,0,0,1-.23,1l-9.05,5.66A2.39,2.39,0,0,1,69.23,201.53Z"/><rect class="cls-1" x="0.13" y="0.13" width="300" height="250"/></svg>