<?xml version="1.0" encoding="utf-8"?>
<!-- Generator: Adobe Illustrator 24.0.3, SVG Export Plug-In . SVG Version: 6.00 Build 0)  -->
<svg version="1.1" id="Layer_1" xmlns="http://www.w3.org/2000/svg" xmlns:xlink="http://www.w3.org/1999/xlink" x="0px" y="0px"
	 viewBox="0 0 970 250" style="enable-background:new 0 0 970 250;" xml:space="preserve">
<style type="text/css">
	.st0{enable-background:new    ;}
	.st1{fill:#FFFFFF;}
	.st2{fill:none;}
</style>
<title>Artboard 1 copy</title>
<g class="st0">
	<path class="st1" d="M46.4,86.8c3.1,0,3.9-1.2,3.9-2.6V55c0-1.4-0.8-2.6-3.9-2.6v-0.3H59v32.1c0,1.4,0.8,2.6,3.9,2.6v0.3H46.4V86.8
		z M61.6,52.4v-0.3h14.2v10.3h-0.4C72.9,55.1,69.4,52.9,61.6,52.4z M64.4,69.9l-2.8-0.3v-0.3l2.8-0.3c3-0.3,5.1-1.5,6.8-4.4h0.4v9.6
		h-0.4C69.5,71.3,67.4,70.2,64.4,69.9z"/>
</g>
<g class="st0">
	<path class="st1" d="M90.7,61.2c-3,0.4-4.1,2.9-4.1,13c0,9.7,1,12.9,4.1,13.2v0.3c-5.9,0-12.8-4.8-12.8-13.5s6.8-13.2,12.8-13.3
		V61.2z M105.5,74.2c0,8.6-6.9,13.5-12.8,13.5v-0.3c3-0.3,4-3.6,4-13.2c0-10.1-1-12.7-4-13v-0.3C98.7,60.9,105.5,65.5,105.5,74.2z"
		/>
</g>
<g class="st0">
	<path class="st1" d="M121.3,84.2c0,1.3,0.8,2.6,3.9,2.6v0.3h-16.2v-0.3c3.1,0,3.9-1.3,3.9-2.6V65.9c0-1.9-0.9-2.7-3.8-2.7v-0.3
		c4.8,0,8.7-0.5,12.3-2V84.2z M135.2,66.4c0,3.6-2.5,5.9-5.3,5.9c-1.2,0-2.3-0.3-2.9-1.1c1-0.5,2-1.6,2-3.5c0-1.5-1.1-2.8-2.9-2.8
		c-1.3,0-2.4,0.8-3.1,2v-0.4c1-3.3,3.5-5.6,6.7-5.6C133.3,60.9,135.2,63.3,135.2,66.4z"/>
</g>
<g class="st0">
	<path class="st1" d="M161.5,84.2c0,1.3,0.8,2.6,3.9,2.6v0.3h-16.2v-0.3c3.1,0,3.9-1.3,3.9-2.6V65.9c0-1.9-0.9-2.7-3.8-2.7v-0.3
		c4.8,0,8.7-0.5,12.3-2V84.2z M178.6,68.1v16.1c0,1.3,0.7,2.6,3.8,2.6v0.3h-16.2v-0.3c3,0,3.9-1.3,3.9-2.6V68.1
		c0-2.9-1.1-4.4-3.6-4.4c-1.4,0-2.7,0.7-3.4,1.5V65c1.2-2.2,3.8-4.1,7.5-4.1C175.5,60.9,178.6,63,178.6,68.1z M195.6,68.1v16.1
		c0,1.3,0.8,2.6,3.9,2.6v0.3h-16.2v-0.3c3,0,3.9-1.3,3.9-2.6V68.1c0-2.9-1.1-4.4-3.6-4.4c-1.4,0-2.7,0.7-3.4,1.5V65
		c1.2-2.2,3.8-4.1,7.5-4.1C192.5,60.9,195.6,63,195.6,68.1z"/>
	<path class="st1" d="M215.1,61.2c-3,0.4-4.1,2.9-4.1,13c0,9.7,1,12.9,4.1,13.2v0.3c-5.9,0-12.8-4.8-12.8-13.5s6.8-13.2,12.8-13.3
		V61.2z M229.9,74.2c0,8.6-6.9,13.5-12.8,13.5v-0.3c3-0.3,4-3.6,4-13.2c0-10.1-1-12.7-4-13v-0.3C223.1,60.9,229.9,65.5,229.9,74.2z"
		/>
</g>
<g class="st0">
	<path class="st1" d="M245.7,84.2c0,1.3,0.8,2.6,3.9,2.6v0.3h-16.2v-0.3c3.1,0,3.9-1.3,3.9-2.6V65.9c0-1.9-0.9-2.7-3.8-2.7v-0.3
		c4.8,0,8.7-0.5,12.3-2V84.2z M259.6,66.4c0,3.6-2.5,5.9-5.3,5.9c-1.2,0-2.3-0.3-2.9-1.1c1-0.5,2-1.6,2-3.5c0-1.5-1.1-2.8-2.9-2.8
		c-1.3,0-2.4,0.8-3.1,2v-0.4c1-3.3,3.5-5.6,6.7-5.6C257.7,60.9,259.6,63.3,259.6,66.4z"/>
</g>
<g class="st0">
	<path class="st1" d="M262.4,74.2c0-8.7,6.6-13.2,12.6-13.3v0.3c-3,0.4-3.9,2.9-3.9,12.8c0,7.4,3.3,11.5,7.9,11.5
		c2.9,0,5.1-0.8,7.5-2.7V83c-2.7,3.4-7.6,4.6-10.9,4.6C269,87.7,262.4,82.8,262.4,74.2z M274,72c4.5,0,6.4-1.4,6.4-5.8
		c0-2.5-1-4.7-3.3-5v-0.3c6.8,0,10.1,4.8,10.1,8.8c0,0.8-0.1,1.9-0.3,2.7H274V72z"/>
</g>
<g class="st0">
	<path class="st1" d="M46.3,125.7c0-8.7,6.6-13.2,12.6-13.3v0.3c-3,0.4-3.9,2.9-3.9,12.8c0,7.4,3.3,11.5,7.9,11.5
		c2.9,0,5.1-0.8,7.5-2.7v0.3c-2.7,3.4-7.6,4.6-10.9,4.6C52.9,139.2,46.3,134.3,46.3,125.7z M57.9,123.5c4.5,0,6.4-1.4,6.4-5.8
		c0-2.5-1-4.7-3.3-5v-0.3c6.8,0,10.1,4.8,10.1,8.8c0,0.8-0.1,1.9-0.3,2.7H57.9V123.5z"/>
</g>
<g class="st0">
	<path class="st1" d="M75.3,115c-0.5-1.1-1.2-1.8-2.8-1.8v-0.3h14.4v0.3c-1.8,0-2.5,1.2-1.6,3l6.7,14.1l-4.4,8.3h-0.3L75.3,115z
		 M94.2,125.3c0.9-1.6,1.4-3.9,1.4-6.6c0-2.8-1.6-5.4-5.3-5.4v-0.3h12.8v0.3c-1.7,0-2.4,0.7-3.3,2.4l-5.4,10.1L94.2,125.3z"/>
</g>
<g class="st0">
	<path class="st1" d="M103.6,125.7c0-8.7,6.6-13.2,12.6-13.3v0.3c-3,0.4-3.9,2.9-3.9,12.8c0,7.4,3.3,11.5,7.9,11.5
		c2.9,0,5.1-0.8,7.5-2.7v0.3c-2.7,3.4-7.6,4.6-10.9,4.6C110.2,139.2,103.6,134.3,103.6,125.7z M115.2,123.5c4.5,0,6.4-1.4,6.4-5.8
		c0-2.5-1-4.7-3.3-5v-0.3c6.8,0,10.1,4.8,10.1,8.8c0,0.8-0.1,1.9-0.3,2.7h-12.9V123.5z"/>
	<path class="st1" d="M144,135.7c0,1.3,0.8,2.6,3.9,2.6v0.3h-16.2v-0.3c3.1,0,3.9-1.3,3.9-2.6v-18.3c0-1.9-0.9-2.7-3.8-2.7v-0.3
		c4.8,0,8.7-0.5,12.3-2V135.7z M157.9,117.9c0,3.6-2.5,5.9-5.3,5.9c-1.2,0-2.3-0.3-2.9-1.1c1-0.5,2-1.6,2-3.5c0-1.5-1.1-2.8-2.9-2.8
		c-1.3,0-2.4,0.8-3.1,2v-0.4c1-3.3,3.5-5.6,6.7-5.6C156,112.4,157.9,114.9,157.9,117.9z"/>
	<path class="st1" d="M161.4,115c-0.5-1.1-1.2-1.8-2.8-1.8v-0.3H173v0.3c-1.8,0-2.5,1.2-1.6,3l6.7,14.1l-4.4,8.3h-0.3L161.4,115z
		 M159.2,146.9c0-2.2,1.8-4.1,4.5-4.8c-0.2,0.5-0.2,0.9-0.2,1.3c-0.1,2,1,3.5,3,3.5c1.8,0,3.2-1.9,5.2-5.2h0.4
		c-2.8,5.3-4.8,9.9-8.4,9.9C160.8,151.5,159.2,149.6,159.2,146.9z M180.3,125.3c0.9-1.6,1.4-3.9,1.4-6.6c0-2.8-1.6-5.4-5.3-5.4v-0.3
		h12.8v0.3c-1.7,0-2.4,0.7-3.3,2.4l-5.4,10.1L180.3,125.3z"/>
	<path class="st1" d="M209.5,134.7v0.3c-1.6,2.4-4.9,4.2-8.8,4.2c-4.6,0-7.9-2.1-7.9-7.3V115h-2.7l0.6-0.8h2.1v-5.6
		c3.1,0,6.2-1,8.4-2.9v8.4h7l-0.6,0.8h-6.4v17.1c0,2.6,1,5.3,3.4,5.3C206,137.3,207.8,136.4,209.5,134.7z"/>
	<path class="st1" d="M222.8,135.7c0,1.3,0.8,2.6,3.9,2.6v0.3h-16.2v-0.3c3.1,0,3.9-1.3,3.9-2.6v-29.9c0-1.9-0.9-2.7-3.8-2.7v-0.3
		c4.8,0,8.7-0.5,12.3-2V135.7z M240.8,119.6v16.1c0,1.3,0.8,2.6,3.9,2.6v0.3h-16.2v-0.3c3,0,3.8-1.3,3.8-2.6v-16.1
		c0-2.9-1.5-4.4-4.1-4.4c-1.4,0-2.7,0.5-3.9,1.6v-0.3c1.4-2.2,4.7-4.2,8.6-4.2C237.5,112.4,240.8,114.5,240.8,119.6z"/>
	<path class="st1" d="M246.6,114.3c4.8,0,8.7-0.5,12.3-2v23.4c0,1.3,0.8,2.6,3.9,2.6v0.3h-16.2v-0.3c3.1,0,3.9-1.3,3.9-2.6v-18.3
		c0-1.9-0.9-2.7-3.8-2.7V114.3z M249.3,104.7c0-2.7,2.2-4.5,5.3-4.5s5.3,1.8,5.3,4.5c0,2.7-2.2,4.5-5.3,4.5S249.3,107.4,249.3,104.7
		z"/>
	<path class="st1" d="M265,138.3c3.1,0,3.9-1.3,3.9-2.6v-18.3c0-1.9-0.9-2.7-3.8-2.7v-0.3c4.8,0,8.7-0.5,12.3-2v23.3
		c0,1.3,0.8,2.6,3.9,2.6v0.3H265V138.3z M283.1,138.3c3,0,3.8-1.3,3.8-2.6v-16.1c0-2.9-1.5-4.4-4.1-4.4c-1.4,0-2.7,0.5-3.9,1.6v-0.3
		c1.4-2.2,4.7-4.2,8.6-4.2c4.6,0,7.9,2.2,7.9,7.3v16.1c0,1.3,0.8,2.6,3.9,2.6v0.3h-16.2V138.3z"/>
	<path class="st1" d="M302.3,121.7c0-6.7,6.3-9.2,11.5-9.3v0.3c-2.2,0.2-3.2,2.9-3.2,8.9c0,6.2,1,8.8,3.2,9v0.3
		C308.6,130.8,302.3,128.3,302.3,121.7z M316,151.2c5.2-0.6,6.8-3.4,6.8-5.3c0-7.2-20.1-0.8-20.1-10c0-2.1,1.1-3.8,3.5-5.3l0.2,0.3
		c-0.3,0.2-0.5,0.6-0.5,1c0,5.8,23.5-0.9,23.5,10.3c0,5.3-4.6,8.8-13.3,9.3V151.2z M302.7,146.9c0-3,3.8-4,7.8-4
		c-0.9,0.4-2.2,1.9-2.2,3.7c0,2.4,2.7,4.2,5.6,4.6v0.3C308.4,151.4,302.7,150.3,302.7,146.9z M316,130.5c2.5-0.2,3.6-2.7,3.6-9
		c0-6-1.1-8.7-3.6-8.9v-0.3c5.5,0.1,11.8,2.6,11.8,9.3c0,6.6-6.3,9.1-11.8,9.1V130.5z M318.8,111.5c0.9-2.6,3.2-6.2,6.8-6.2
		c2.7,0,4.4,1.4,4.4,3.9c0,2.5-2.2,4-4.2,4c0-2.2-1.1-3.5-2.8-3.5c-1.5,0-3.2,0.9-4,1.9L318.8,111.5z"/>
</g>
<g class="st0">
	<path class="st1" d="M65.4,186.2v0.3c-1.6,2.4-4.9,4.2-8.8,4.2c-4.6,0-7.9-2.1-7.9-7.3v-16.9h-2.7l0.6-0.8h2.1v-5.6
		c3.1,0,6.2-1,8.4-2.9v8.4h7l-0.6,0.8h-6.4v17.1c0,2.6,1,5.3,3.4,5.3C61.9,188.8,63.7,187.9,65.4,186.2z"/>
	<path class="st1" d="M78.7,187.2c0,1.3,0.8,2.6,3.9,2.6v0.3H66.3v-0.3c3.1,0,3.9-1.3,3.9-2.6v-29.9c0-1.9-0.9-2.7-3.8-2.7v-0.3
		c4.8,0,8.7-0.5,12.3-2V187.2z M96.7,171.2v16.1c0,1.3,0.8,2.6,3.9,2.6v0.3H84.4v-0.3c3,0,3.8-1.3,3.8-2.6v-16.1
		c0-2.9-1.5-4.4-4.1-4.4c-1.4,0-2.7,0.5-3.9,1.6v-0.3c1.4-2.2,4.7-4.2,8.6-4.2C93.4,163.9,96.7,166.1,96.7,171.2z"/>
	<path class="st1" d="M102.8,184.1c0.1-4.5,4.1-7,9.9-7h5.6v0.3h-1.5c-3.7,0-5.5,2.4-5.5,5.6c0,2.8,0.8,5,3.2,5
		c1.4,0,2.6-0.8,3.8-1.8v0.3c-1.7,2-4.4,4.2-8.2,4.2C105.7,190.7,102.8,188.2,102.8,184.1z M104.9,169.5c0-2.6,2.4-5.3,9.4-5.6v0.3
		c-2.1,0.3-3.3,2-3.3,3.8c0,1.9,1.3,3,3.3,3.1c-0.8,1.4-2.9,2.5-4.9,2.5C106.5,173.6,104.9,171.7,104.9,169.5z M119.8,184.9v-15.8
		c0-2.5-1-4.5-3.5-4.9v-0.3c8.6,0.3,12,3.6,12,10.3v12.5c0,1.5,0.5,2.1,1.4,2.1c0.8,0,1.6-0.8,2.5-2.3h0.3c-0.8,2.8-3.6,4.2-6.7,4.2
		C121.7,190.7,119.8,189.2,119.8,184.9z"/>
	<path class="st1" d="M134.1,189.9c3.1,0,3.9-1.3,3.9-2.6v-18.3c0-1.9-0.9-2.7-3.8-2.7v-0.3c4.8,0,8.7-0.5,12.3-2v23.3
		c0,1.3,0.8,2.6,3.9,2.6v0.3h-16.2V189.9z M152.2,189.9c3,0,3.8-1.3,3.8-2.6v-16.1c0-2.9-1.5-4.4-4.1-4.4c-1.4,0-2.7,0.5-3.9,1.6
		v-0.3c1.4-2.2,4.7-4.2,8.6-4.2c4.6,0,7.9,2.2,7.9,7.3v16.1c0,1.3,0.8,2.6,3.9,2.6v0.3h-16.2V189.9z"/>
	<path class="st1" d="M183.7,184.1c0.1-4.5,4.1-7,9.9-7h5.6v0.3h-1.5c-3.7,0-5.5,2.4-5.5,5.6c0,2.8,0.8,5,3.2,5
		c1.4,0,2.6-0.8,3.8-1.8v0.3c-1.7,2-4.4,4.2-8.2,4.2C186.6,190.7,183.7,188.2,183.7,184.1z M185.8,169.5c0-2.6,2.4-5.3,9.4-5.6v0.3
		c-2.1,0.3-3.3,2-3.3,3.8c0,1.9,1.3,3,3.3,3.1c-0.8,1.4-2.9,2.5-4.9,2.5C187.4,173.6,185.8,171.7,185.8,169.5z M200.7,184.9v-15.8
		c0-2.5-1-4.5-3.5-4.9v-0.3c8.6,0.3,12,3.6,12,10.3v12.5c0,1.5,0.5,2.1,1.4,2.1c0.8,0,1.6-0.8,2.5-2.3h0.3c-0.8,2.8-3.6,4.2-6.7,4.2
		C202.6,190.7,200.7,189.2,200.7,184.9z"/>
</g>
<g class="st0">
	<path class="st1" d="M215,189.9c3.1,0,3.9-1.3,3.9-2.6v-18.3c0-1.9-0.9-2.7-3.8-2.7v-0.3c4.8,0,8.7-0.5,12.3-2v23.3
		c0,1.3,0.8,2.6,3.9,2.6v0.3H215V189.9z M233.1,189.9c3,0,3.8-1.3,3.8-2.6v-16.1c0-2.9-1.5-4.4-4.1-4.4c-1.4,0-2.7,0.5-3.9,1.6v-0.3
		c1.4-2.2,4.7-4.2,8.6-4.2c4.6,0,7.9,2.2,7.9,7.3v16.1c0,1.3,0.8,2.6,3.9,2.6v0.3h-16.2V189.9z"/>
</g>
<g class="st0">
	<path class="st1" d="M251.3,166.5c-0.5-1.1-1.2-1.8-2.8-1.8v-0.3h14.4v0.3c-1.8,0-2.5,1.2-1.6,3l6.7,14.1l-4.4,8.3h-0.3
		L251.3,166.5z M249,198.5c0-2.2,1.8-4.1,4.5-4.8c-0.2,0.5-0.2,0.9-0.2,1.3c-0.1,2,1,3.5,3,3.5c1.8,0,3.2-1.9,5.2-5.2h0.4
		c-2.8,5.3-4.8,9.9-8.4,9.9C250.7,203,249,201.1,249,198.5z M270.2,176.8c0.9-1.6,1.4-3.9,1.4-6.6c0-2.8-1.6-5.4-5.3-5.4v-0.3h12.8
		v0.3c-1.7,0-2.4,0.7-3.3,2.4l-5.4,10.1L270.2,176.8z"/>
</g>
<g class="st0">
	<path class="st1" d="M292.3,164.2c-3,0.4-4.1,2.9-4.1,13c0,9.7,1,12.9,4.1,13.2v0.3c-5.9,0-12.8-4.8-12.8-13.5s6.8-13.2,12.8-13.3
		V164.2z M307.1,177.2c0,8.6-6.9,13.5-12.8,13.5v-0.3c3-0.3,4-3.6,4-13.2c0-10.1-1-12.7-4-13v-0.3
		C300.3,163.9,307.1,168.5,307.1,177.2z"/>
	<path class="st1" d="M310.5,189.9c3.1,0,3.9-1.3,3.9-2.6v-18.3c0-1.9-0.9-2.7-3.8-2.7v-0.3c4.8,0,8.7-0.5,12.3-2v23.3
		c0,1.3,0.8,2.6,3.9,2.6v0.3h-16.2V189.9z M328.6,189.9c3,0,3.8-1.3,3.8-2.6v-16.1c0-2.9-1.5-4.4-4.1-4.4c-1.4,0-2.7,0.5-3.9,1.6
		v-0.3c1.4-2.2,4.7-4.2,8.6-4.2c4.6,0,7.9,2.2,7.9,7.3v16.1c0,1.3,0.8,2.6,3.9,2.6v0.3h-16.2V189.9z"/>
	<path class="st1" d="M347.6,177.2c0-8.7,6.6-13.2,12.6-13.3v0.3c-3,0.4-3.9,2.9-3.9,12.8c0,7.4,3.3,11.5,7.9,11.5
		c2.9,0,5.1-0.8,7.5-2.7v0.3c-2.7,3.4-7.6,4.6-10.9,4.6C354.2,190.7,347.6,185.8,347.6,177.2z M359.2,175c4.5,0,6.4-1.4,6.4-5.8
		c0-2.5-1-4.7-3.3-5v-0.3c6.8,0,10.1,4.8,10.1,8.8c0,0.8-0.1,1.9-0.3,2.7h-12.9V175z"/>
	<path class="st1" d="M389.7,177.2c0-8.7,6.6-13.2,12.6-13.3v0.3c-3,0.4-3.9,2.9-3.9,12.8c0,7.4,3.3,11.5,7.9,11.5
		c2.9,0,5.1-0.8,7.5-2.7v0.3c-2.7,3.4-7.6,4.6-10.9,4.6C396.3,190.7,389.7,185.8,389.7,177.2z M401.3,175c4.5,0,6.4-1.4,6.4-5.8
		c0-2.5-1-4.7-3.3-5v-0.3c6.8,0,10.1,4.8,10.1,8.8c0,0.8-0.1,1.9-0.3,2.7h-12.9V175z"/>
	<path class="st1" d="M417.5,154.3c4.8,0,8.7-0.5,12.3-2v34.9c0,1.3,0.8,2.6,3.9,2.6v0.3h-16.2v-0.3c3.1,0,3.9-1.3,3.9-2.6v-29.9
		c0-1.9-0.9-2.7-3.8-2.7V154.3z"/>
	<path class="st1" d="M445.7,184c-1.7,0.1-2.9,1-2.9,2.6c0,1.5,1,3.4,4.6,3.8v0.3c-6.9-0.3-10.6-2.1-10.6-5.1c0-2.4,2.1-3.8,4.4-3.8
		C443.2,181.8,444.9,182.7,445.7,184z M447.4,164.2c-1.9,0.4-3.8,1.3-3.7,3.5c0.2,6,16.8,7,16.8,15.1c0,5-4.2,7.6-10.9,7.9v-0.3
		c2.2-0.4,4.6-1.1,4.6-3.8c0-5.4-16.9-7.3-16.9-15.1c0-4.5,4.3-7.3,10-7.5V164.2z M459.6,169.2c0,1.6-1.2,3.2-3.8,3.2
		c-2.2,0-3.7-0.9-4.4-2.5c1.5-0.1,2.4-1.2,2.3-2.4c0-1.5-2-3-4-3.3v-0.3C455.5,164.2,459.6,166.3,459.6,169.2z"/>
	<path class="st1" d="M464.9,177.2c0-8.7,6.6-13.2,12.6-13.3v0.3c-3,0.4-3.9,2.9-3.9,12.8c0,7.4,3.3,11.5,7.9,11.5
		c2.9,0,5.1-0.8,7.5-2.7v0.3c-2.7,3.4-7.6,4.6-10.9,4.6C471.5,190.7,464.9,185.8,464.9,177.2z M476.5,175c4.5,0,6.4-1.4,6.4-5.8
		c0-2.5-1-4.7-3.3-5v-0.3c6.8,0,10.1,4.8,10.1,8.8c0,0.8-0.1,1.9-0.3,2.7h-12.9V175z"/>
</g>
<rect y="0" class="st2" width="970" height="250"/>
</svg>
