<?xml version="1.0" encoding="utf-8"?>
<!-- Generator: Adobe Illustrator 24.0.3, SVG Export Plug-In . SVG Version: 6.00 Build 0)  -->
<svg version="1.1" id="Layer_1" xmlns="http://www.w3.org/2000/svg" xmlns:xlink="http://www.w3.org/1999/xlink" x="0px" y="0px"
	 viewBox="0 0 970 250" style="enable-background:new 0 0 970 250;" xml:space="preserve">
<style type="text/css">
	.st0{enable-background:new    ;}
	.st1{fill:#FFFFFF;}
	.st2{fill:none;}
</style>
<title>Artboard 1 copy 3</title>
<g class="st0">
	<path class="st1" d="M77.7,81l0.2,0.4c-2.7,4.3-7.4,6.2-12.4,6.2c-8.4,0-18.9-6-18.9-18c0-13,10.2-17.9,17.6-18.1v0.3
		c-3.6,0.8-7.5,4.2-7.5,17.4c0,13.1,5.3,16.3,11.1,16.3C72.5,85.6,75.9,83.2,77.7,81z M78.1,51.6v12.5h-0.4
		c-2-6.9-5.8-10.8-10.9-12.2v-0.3c4.5,0.2,7.2,1,9.3,2.4l1.5-2.4H78.1z"/>
	<path class="st1" d="M93.6,84.2c0,1.3,0.8,2.6,3.9,2.6v0.3H81.3v-0.3c3.1,0,3.9-1.3,3.9-2.6V54.3c0-1.9-0.9-2.7-3.8-2.7v-0.3
		c4.8,0,8.7-0.5,12.3-2V84.2z M111.7,68.1v16.1c0,1.3,0.8,2.6,3.9,2.6v0.3H99.4v-0.3c3,0,3.8-1.3,3.8-2.6V68.1
		c0-2.9-1.5-4.4-4.1-4.4c-1.4,0-2.7,0.5-3.9,1.6V65c1.4-2.2,4.7-4.2,8.6-4.2C108.4,60.9,111.7,63,111.7,68.1z"/>
	<path class="st1" d="M131.1,61.2c-3,0.4-4.1,2.9-4.1,13c0,9.7,1,12.9,4.1,13.2v0.3c-5.9,0-12.8-4.8-12.8-13.5s6.8-13.2,12.8-13.3
		V61.2z M146,74.2c0,8.6-6.9,13.5-12.8,13.5v-0.3c3-0.3,4-3.6,4-13.2c0-10.1-1-12.7-4-13v-0.3C139.2,60.9,146,65.5,146,74.2z"/>
	<path class="st1" d="M163.1,61.2c-3,0.4-4.1,2.9-4.1,13c0,9.7,1,12.9,4.1,13.2v0.3c-5.9,0-12.8-4.8-12.8-13.5s6.8-13.2,12.8-13.3
		V61.2z M178,74.2c0,8.6-6.9,13.5-12.8,13.5v-0.3c3-0.3,4-3.6,4-13.2c0-10.1-1-12.7-4-13v-0.3C171.2,60.9,178,65.5,178,74.2z"/>
	<path class="st1" d="M191.3,81c-1.7,0.1-2.9,1-2.9,2.6c0,1.5,1,3.4,4.6,3.8v0.3c-6.9-0.3-10.6-2.1-10.6-5.1c0-2.4,2.1-3.8,4.4-3.8
		C188.8,78.7,190.5,79.7,191.3,81z M193,61.2c-1.9,0.4-3.8,1.3-3.7,3.5c0.2,6,16.8,7,16.8,15.1c0,5-4.2,7.6-10.9,7.9v-0.3
		c2.2-0.4,4.6-1.1,4.6-3.8c0-5.4-16.9-7.3-16.9-15.1c0-4.5,4.3-7.3,10-7.5V61.2z M205.1,66.2c0,1.6-1.2,3.2-3.8,3.2
		c-2.2,0-3.7-0.9-4.4-2.5c1.5-0.1,2.4-1.2,2.3-2.4c0-1.5-2-3-4-3.3v-0.3C201,61.2,205.1,63.3,205.1,66.2z"/>
	<path class="st1" d="M210.4,74.2c0-8.7,6.6-13.2,12.6-13.3v0.3c-3,0.4-3.9,2.9-3.9,12.8c0,7.4,3.3,11.5,7.9,11.5
		c2.9,0,5.1-0.8,7.5-2.7V83c-2.7,3.4-7.6,4.6-10.9,4.6C217.1,87.7,210.4,82.8,210.4,74.2z M222,72c4.5,0,6.4-1.4,6.4-5.8
		c0-2.5-1-4.7-3.3-5v-0.3c6.8,0,10.1,4.8,10.1,8.8c0,0.8-0.1,1.9-0.3,2.7H222V72z"/>
</g>
<g class="st0">
	<path class="st1" d="M265.6,87.3v0.3c-4.1-0.1-7.3-0.9-10-2.5l-1.7,2.5h-0.4V75.1h0.4C255.6,80.9,259.3,85.2,265.6,87.3z
		 M280.8,77.1c0,6.6-4.9,10.3-12.9,10.6v-0.3c2.8-0.5,5.6-2.2,5.6-5.3c0-9-19.7-9.8-19.7-20.3c0-6.2,5-9.7,11.8-10.2v0.3
		c-2.4,0.4-4.5,1.9-4.5,4.7C261.1,65.7,280.8,66.6,280.8,77.1z M267.9,51.9v-0.3c3.9,0.2,6.9,1,9.3,2.7l1.9-2.7h0.4v11.5H279
		C277.3,57.6,272.9,53.1,267.9,51.9z"/>
</g>
<g class="st0">
	<path class="st1" d="M304.3,83.2v0.3c-1.6,2.4-4.9,4.2-8.8,4.2c-4.6,0-7.9-2.1-7.9-7.3V63.5h-2.7l0.6-0.8h2.1v-5.6
		c3.1,0,6.2-1,8.4-2.9v8.4h7l-0.6,0.8H296v17.1c0,2.6,1,5.3,3.4,5.3C300.8,85.8,302.6,84.9,304.3,83.2z"/>
	<path class="st1" d="M305.9,81.1c0.1-4.5,4.1-7,9.9-7h5.6v0.3h-1.5c-3.7,0-5.5,2.4-5.5,5.6c0,2.8,0.8,5,3.2,5
		c1.4,0,2.6-0.8,3.8-1.8v0.3c-1.7,2-4.4,4.2-8.2,4.2C308.8,87.7,305.9,85.2,305.9,81.1z M308,66.5c0-2.6,2.4-5.3,9.4-5.6v0.3
		c-2.1,0.3-3.3,2-3.3,3.8c0,1.9,1.3,3,3.3,3.1c-0.8,1.4-2.9,2.5-4.9,2.5C309.6,70.6,308,68.6,308,66.5z M322.9,81.8V66.1
		c0-2.5-1-4.5-3.5-4.9v-0.3c8.6,0.3,12,3.6,12,10.3v12.5c0,1.5,0.5,2.1,1.4,2.1c0.8,0,1.6-0.8,2.5-2.3h0.3c-0.8,2.8-3.6,4.2-6.7,4.2
		C324.8,87.7,322.9,86.2,322.9,81.8z"/>
</g>
<g class="st0">
	<path class="st1" d="M349.5,84.2c0,1.3,0.8,2.6,3.9,2.6v0.3h-16.2v-0.3c3.1,0,3.9-1.3,3.9-2.6V65.9c0-1.9-0.9-2.7-3.8-2.7v-0.3
		c4.8,0,8.7-0.5,12.3-2V84.2z M363.5,66.4c0,3.6-2.5,5.9-5.3,5.9c-1.2,0-2.3-0.3-2.9-1.1c1-0.5,2-1.6,2-3.5c0-1.5-1.1-2.8-2.9-2.8
		c-1.3,0-2.4,0.8-3.1,2v-0.4c1-3.3,3.5-5.6,6.7-5.6C361.5,60.9,363.5,63.3,363.5,66.4z"/>
</g>
<g class="st0">
	<path class="st1" d="M77.7,132.5l0.2,0.4c-2.7,4.3-7.4,6.2-12.4,6.2c-8.4,0-18.9-6-18.9-18c0-13,10.2-17.9,17.6-18.1v0.3
		c-3.6,0.8-7.5,4.2-7.5,17.4c0,13.1,5.3,16.3,11.1,16.3C72.5,137.1,75.9,134.7,77.7,132.5z M78.1,103.1v12.5h-0.4
		c-2-6.9-5.8-10.8-10.9-12.2v-0.3c4.5,0.2,7.2,1,9.3,2.4l1.5-2.4H78.1z"/>
	<path class="st1" d="M82,132.6c0.1-4.5,4.1-7,9.9-7h5.6v0.3h-1.5c-3.7,0-5.5,2.4-5.5,5.6c0,2.8,0.8,5,3.2,5c1.4,0,2.6-0.8,3.8-1.8
		v0.3c-1.7,2-4.4,4.2-8.2,4.2C84.9,139.2,81.9,136.7,82,132.6z M84.1,118c0-2.6,2.4-5.3,9.4-5.6v0.3c-2.1,0.3-3.3,2-3.3,3.8
		c0,1.9,1.3,3,3.3,3.1c-0.8,1.4-2.9,2.5-4.9,2.5C85.7,122.1,84.1,120.2,84.1,118z M99,133.3v-15.8c0-2.5-1-4.5-3.5-4.9v-0.3
		c8.6,0.3,12,3.6,12,10.3v12.5c0,1.5,0.5,2.1,1.4,2.1c0.8,0,1.6-0.8,2.5-2.3h0.3c-0.8,2.8-3.6,4.2-6.7,4.2
		C100.9,139.2,99,137.7,99,133.3z"/>
	<path class="st1" d="M125.6,135.7c0,1.3,0.8,2.6,3.9,2.6v0.3h-16.2v-0.3c3.1,0,3.9-1.3,3.9-2.6v-18.3c0-1.9-0.9-2.7-3.8-2.7v-0.3
		c4.8,0,8.7-0.5,12.3-2V135.7z M142.7,119.6v16.1c0,1.3,0.7,2.6,3.8,2.6v0.3h-16.2v-0.3c3,0,3.9-1.3,3.9-2.6v-16.1
		c0-2.9-1.1-4.4-3.6-4.4c-1.4,0-2.7,0.7-3.4,1.5v-0.3c1.2-2.2,3.8-4.1,7.5-4.1C139.6,112.4,142.7,114.5,142.7,119.6z M159.8,119.6
		v16.1c0,1.3,0.8,2.6,3.9,2.6v0.3h-16.2v-0.3c3,0,3.9-1.3,3.9-2.6v-16.1c0-2.9-1.1-4.4-3.6-4.4c-1.4,0-2.7,0.7-3.4,1.5v-0.3
		c1.2-2.2,3.8-4.1,7.5-4.1C156.7,112.4,159.8,114.5,159.8,119.6z"/>
	<path class="st1" d="M177.4,146.5c0,1.9,0.9,2.7,3.8,2.7v0.3c-4.8,0-8,0.5-12.3,2v-34.2c0-1.9-0.9-2.7-3.8-2.7v-0.3
		c4.8,0,8-0.5,12.3-2V146.5z M197,125.5c0,10.8-5.7,13.7-10.6,13.7c-2.9,0-6.2-2-7.5-4.2v-0.3c1.3,1,2.7,1.8,4.3,1.8
		c2.4,0,5-1.7,5-11c0-9.3-2.4-10.5-5-10.5c-1.6,0-3.1,0.6-4.3,1.9v-0.4c1.3-2.2,4.6-4.1,7.5-4.1C191.5,112.4,197,115.3,197,125.5z"
		/>
	<path class="st1" d="M201.6,125.7c0-8.7,6.6-13.2,12.6-13.3v0.3c-3,0.4-3.9,2.9-3.9,12.8c0,7.4,3.3,11.5,7.9,11.5
		c2.9,0,5.1-0.8,7.5-2.7v0.3c-2.7,3.4-7.6,4.6-10.9,4.6C208.2,139.2,201.6,134.3,201.6,125.7z M213.1,123.5c4.5,0,6.4-1.4,6.4-5.8
		c0-2.5-1-4.7-3.3-5v-0.3c6.8,0,10.1,4.8,10.1,8.8c0,0.8-0.1,1.9-0.3,2.7h-12.9V123.5z"/>
	<path class="st1" d="M242,135.7c0,1.3,0.8,2.6,3.9,2.6v0.3h-16.2v-0.3c3.1,0,3.9-1.3,3.9-2.6v-18.3c0-1.9-0.9-2.7-3.8-2.7v-0.3
		c4.8,0,8.7-0.5,12.3-2V135.7z M255.9,117.9c0,3.6-2.5,5.9-5.3,5.9c-1.2,0-2.3-0.3-2.9-1.1c1-0.5,2-1.6,2-3.5c0-1.5-1.1-2.8-2.9-2.8
		c-1.3,0-2.4,0.8-3.1,2v-0.4c1-3.3,3.5-5.6,6.7-5.6C253.9,112.4,255.9,114.9,255.9,117.9z"/>
	<path class="st1" d="M290.4,132.5l0.2,0.4c-2.7,4.3-7.4,6.2-12.4,6.2c-8.4,0-18.9-6-18.9-18c0-13,10.2-17.9,17.6-18.1v0.3
		c-3.6,0.8-7.5,4.2-7.5,17.4c0,13.1,5.3,16.3,11.1,16.3C285.2,137.1,288.6,134.7,290.4,132.5z M290.8,103.1v12.5h-0.4
		c-2-6.9-5.8-10.8-10.9-12.2v-0.3c4.5,0.2,7.2,1,9.3,2.4l1.5-2.4H290.8z"/>
	<path class="st1" d="M294.7,132.6c0.1-4.5,4.1-7,9.9-7h5.6v0.3h-1.5c-3.7,0-5.5,2.4-5.5,5.6c0,2.8,0.8,5,3.2,5
		c1.4,0,2.6-0.8,3.8-1.8v0.3c-1.7,2-4.4,4.2-8.2,4.2C297.6,139.2,294.6,136.7,294.7,132.6z M296.7,118c0-2.6,2.4-5.3,9.4-5.6v0.3
		c-2.1,0.3-3.3,2-3.3,3.8c0,1.9,1.3,3,3.3,3.1c-0.8,1.4-2.9,2.5-4.9,2.5C298.4,122.1,296.7,120.2,296.7,118z M311.7,133.3v-15.8
		c0-2.5-1-4.5-3.5-4.9v-0.3c8.6,0.3,12,3.6,12,10.3v12.5c0,1.5,0.5,2.1,1.4,2.1c0.8,0,1.6-0.8,2.5-2.3h0.3c-0.8,2.8-3.6,4.2-6.7,4.2
		C313.5,139.2,311.7,137.7,311.7,133.3z"/>
</g>
<g class="st0">
	<path class="st1" d="M338.3,135.7c0,1.3,0.8,2.6,3.9,2.6v0.3H326v-0.3c3.1,0,3.9-1.3,3.9-2.6v-18.3c0-1.9-0.9-2.7-3.8-2.7v-0.3
		c4.8,0,8.7-0.5,12.3-2V135.7z M352.2,117.9c0,3.6-2.5,5.9-5.3,5.9c-1.2,0-2.3-0.3-2.9-1.1c1-0.5,2-1.6,2-3.5c0-1.5-1.1-2.8-2.9-2.8
		c-1.3,0-2.4,0.8-3.1,2v-0.4c1-3.3,3.5-5.6,6.7-5.6C350.3,112.4,352.2,114.9,352.2,117.9z"/>
</g>
<g class="st0">
	<path class="st1" d="M355,125.7c0-8.7,6.6-13.2,12.6-13.3v0.3c-3,0.4-3.9,2.9-3.9,12.8c0,7.4,3.3,11.5,7.9,11.5
		c2.9,0,5.1-0.8,7.5-2.7v0.3c-2.7,3.4-7.6,4.6-10.9,4.6C361.7,139.2,355,134.3,355,125.7z M366.6,123.5c4.5,0,6.4-1.4,6.4-5.8
		c0-2.5-1-4.7-3.3-5v-0.3c6.8,0,10.1,4.8,10.1,8.8c0,0.8-0.1,1.9-0.3,2.7h-12.9V123.5z"/>
</g>
<rect y="0" class="st2" width="970" height="250"/>
</svg>
