<?xml version="1.0" encoding="utf-8"?>
<!-- Generator: Adobe Illustrator 24.0.3, SVG Export Plug-In . SVG Version: 6.00 Build 0)  -->
<svg version="1.1" id="Layer_1" xmlns="http://www.w3.org/2000/svg" xmlns:xlink="http://www.w3.org/1999/xlink" x="0px" y="0px"
	 viewBox="0 0 970 250" style="enable-background:new 0 0 970 250;" xml:space="preserve">
<style type="text/css">
	.st0{fill:none;}
	.st1{enable-background:new    ;}
	.st2{fill:#263845;}
</style>
<title>Artboard 1 copy 6</title>
<rect y="0" class="st0" width="970" height="250"/>
<g class="st1">
	<path class="st2" d="M73,81l0.2,0.4c-2.7,4.3-7.4,6.2-12.4,6.2c-8.4,0-18.9-6-18.9-18c0-13,10.2-17.9,17.6-18.1v0.3
		c-3.6,0.8-7.5,4.2-7.5,17.4c0,13.1,5.3,16.3,11.1,16.3C67.8,85.6,71.2,83.2,73,81z M73.4,51.6v12.5H73c-2-6.9-5.8-10.8-10.9-12.2
		v-0.3c4.5,0.2,7.2,1,9.3,2.4l1.5-2.4H73.4z"/>
	<path class="st2" d="M77.3,81.1c0.1-4.5,4.1-7,9.9-7h5.6v0.3h-1.5c-3.7,0-5.5,2.4-5.5,5.6c0,2.8,0.8,5,3.2,5c1.4,0,2.6-0.8,3.8-1.8
		v0.3c-1.7,2-4.4,4.2-8.2,4.2C80.2,87.7,77.3,85.2,77.3,81.1z M79.4,66.5c0-2.6,2.4-5.3,9.4-5.6v0.3c-2.1,0.3-3.3,2-3.3,3.8
		c0,1.9,1.3,3,3.3,3.1c-0.8,1.4-2.9,2.5-4.9,2.5C81,70.6,79.4,68.6,79.4,66.5z M94.3,81.8V66.1c0-2.5-1-4.5-3.5-4.9v-0.3
		c8.6,0.3,12,3.6,12,10.3v12.5c0,1.5,0.5,2.1,1.4,2.1c0.8,0,1.6-0.8,2.5-2.3h0.3c-0.8,2.8-3.6,4.2-6.7,4.2
		C96.2,87.7,94.3,86.2,94.3,81.8z"/>
	<path class="st2" d="M108.3,51.3c4.8,0,8.7-0.5,12.3-2v34.9c0,1.3,0.8,2.6,3.9,2.6v0.3h-16.2v-0.3c3.1,0,3.9-1.3,3.9-2.6V54.3
		c0-1.9-0.9-2.7-3.8-2.7V51.3z"/>
	<path class="st2" d="M126.4,51.3c4.8,0,8.7-0.5,12.3-2v34.9c0,1.3,0.8,2.6,3.9,2.6v0.3h-16.2v-0.3c3.1,0,3.9-1.3,3.9-2.6V54.3
		c0-1.9-0.9-2.7-3.8-2.7V51.3z"/>
</g>
<g class="st1">
	<path class="st2" d="M157.5,63.5c-0.5-1.1-1.2-1.8-2.8-1.8v-0.3h14.4v0.3c-1.8,0-2.5,1.2-1.6,3l6.7,14.1l-4.4,8.3h-0.3L157.5,63.5z
		 M155.2,95.4c0-2.2,1.8-4.1,4.5-4.8c-0.2,0.5-0.2,0.9-0.2,1.3c-0.1,2,1,3.5,3,3.5c1.8,0,3.2-1.9,5.2-5.2h0.4
		c-2.8,5.3-4.8,9.9-8.4,9.9C156.9,100,155.2,98.1,155.2,95.4z M176.3,73.7c0.9-1.6,1.4-3.9,1.4-6.6c0-2.8-1.6-5.4-5.3-5.4v-0.3h12.8
		v0.3c-1.7,0-2.4,0.7-3.3,2.4l-5.4,10.1L176.3,73.7z"/>
</g>
<g class="st1">
	<path class="st2" d="M198.4,61.2c-3,0.4-4.1,2.9-4.1,13c0,9.7,1,12.9,4.1,13.2v0.3c-5.9,0-12.8-4.8-12.8-13.5s6.8-13.2,12.8-13.3
		V61.2z M213.3,74.2c0,8.6-6.9,13.5-12.8,13.5v-0.3c3-0.3,4-3.6,4-13.2c0-10.1-1-12.7-4-13v-0.3C206.5,60.9,213.3,65.5,213.3,74.2z"
		/>
	<path class="st2" d="M228.5,80.4c0,2.9,1,4.4,3.6,4.4c1.3,0,2.4-0.4,3.6-1.6v0.3c-1.2,2.2-3.8,4.2-8,4.2c-4.6,0-7.6-2.2-7.6-7.3
		V65.9c0-1.9-0.9-2.7-3.8-2.7v-0.3c4.8,0,8.7-0.5,12.3-2V80.4z M245.6,83.7c0,1.5,0.5,2.1,1.4,2.1c0.8,0,1.6-0.8,2.5-2.3h0.3
		c-0.8,2.8-3.6,4.2-7,4.2c-3.6,0-5.7-2.1-5.7-5V65.9c0-1.9-0.9-2.7-3.7-2.7v-0.3c4.6,0,7.8-0.5,12.2-2V83.7z"/>
</g>
<g class="st1">
	<path class="st2" d="M264.2,84.2c0,1.3,0.8,2.6,3.9,2.6v0.3h-16.2v-0.3c3.1,0,3.9-1.3,3.9-2.6V65.9c0-1.9-0.9-2.7-3.8-2.7v-0.3
		c4.8,0,8.7-0.5,12.3-2V84.2z M278.1,66.4c0,3.6-2.5,5.9-5.3,5.9c-1.2,0-2.3-0.3-2.9-1.1c1-0.5,2-1.6,2-3.5c0-1.5-1.1-2.8-2.9-2.8
		c-1.3,0-2.4,0.8-3.1,2v-0.4c1-3.3,3.5-5.6,6.7-5.6C276.2,60.9,278.1,63.3,278.1,66.4z"/>
</g>
<g class="st1">
	<path class="st2" d="M52.2,132.2c0,4.9-3.3,7-8.5,7v-33.3c0-1.9-0.9-2.7-3.9-2.7v-0.3c4.8,0,8-0.5,12.4-2V132.2z M71.8,125.5
		c0,10.8-5.7,13.7-10.6,13.7c-2.9,0-6.2-2-7.5-4.2v-0.3c1.3,1,2.6,1.8,4.3,1.8c2.4,0,5-1.7,5-11c0-9.3-2.5-10.5-5-10.5
		c-1.6,0-3.1,0.6-4.3,1.9v-0.4c1.3-2.2,4.5-4.1,7.5-4.1C66.2,112.4,71.8,115.3,71.8,125.5z"/>
</g>
<g class="st1">
	<path class="st2" d="M87.8,135.7c0,1.3,0.8,2.6,3.9,2.6v0.3H75.4v-0.3c3.1,0,3.9-1.3,3.9-2.6v-18.3c0-1.9-0.9-2.7-3.8-2.7v-0.3
		c4.8,0,8.7-0.5,12.3-2V135.7z M101.7,117.9c0,3.6-2.5,5.9-5.3,5.9c-1.2,0-2.3-0.3-2.9-1.1c1-0.5,2-1.6,2-3.5c0-1.5-1.1-2.8-2.9-2.8
		c-1.3,0-2.4,0.8-3.1,2v-0.4c1-3.3,3.5-5.6,6.7-5.6C99.7,112.4,101.7,114.9,101.7,117.9z"/>
</g>
<g class="st1">
	<path class="st2" d="M117.3,112.7c-3,0.4-4.1,2.9-4.1,13c0,9.7,1,12.9,4.1,13.2v0.3c-5.9,0-12.8-4.8-12.8-13.5
		c0-8.7,6.8-13.2,12.8-13.3V112.7z M132.1,125.7c0,8.6-6.9,13.5-12.8,13.5v-0.3c3-0.3,4-3.6,4-13.2c0-10.1-1-12.7-4-13v-0.3
		C125.3,112.4,132.1,117,132.1,125.7z"/>
</g>
<g class="st1">
	<path class="st2" d="M151.4,138.3v0.3h-16.2v-0.3c3.1,0,3.9-1.3,3.9-2.6v-29.9c0-1.9-0.9-2.7-3.8-2.7v-0.3c4.8,0,8.7-0.5,12.3-2
		v34.9C147.6,137,148.4,138.3,151.4,138.3z M168.9,138.3v0.3c-1.4,0.4-3.4,0.5-5.2,0.5c-3.1,0-6.6-0.6-9.3-5l-4.8-8.1
		c4.1-3.6,7.9-7.9,7.9-10.5c0-1.4-0.7-2.4-3-2.4v-0.3h13.2v0.3c-1.2,0-2.2,0.4-2.9,0.9l-9.4,7.5l8.9,13.8
		C165.9,138,167.2,138.1,168.9,138.3z"/>
</g>
<g class="st1">
	<path class="st2" d="M169.2,125.7c0-8.7,6.6-13.2,12.6-13.3v0.3c-3,0.4-3.9,2.9-3.9,12.8c0,7.4,3.3,11.5,7.9,11.5
		c2.9,0,5.1-0.8,7.5-2.7v0.3c-2.7,3.4-7.6,4.6-10.9,4.6C175.9,139.2,169.2,134.3,169.2,125.7z M180.8,123.5c4.5,0,6.4-1.4,6.4-5.8
		c0-2.5-1-4.7-3.3-5v-0.3c6.8,0,10.1,4.8,10.1,8.8c0,0.8-0.1,1.9-0.3,2.7h-12.9V123.5z"/>
</g>
<g class="st1">
	<path class="st2" d="M209.7,135.7c0,1.3,0.8,2.6,3.9,2.6v0.3h-16.2v-0.3c3.1,0,3.9-1.3,3.9-2.6v-18.3c0-1.9-0.9-2.7-3.8-2.7v-0.3
		c4.8,0,8.7-0.5,12.3-2V135.7z M223.6,117.9c0,3.6-2.5,5.9-5.3,5.9c-1.2,0-2.3-0.3-2.9-1.1c1-0.5,2-1.6,2-3.5c0-1.5-1.1-2.8-2.9-2.8
		c-1.3,0-2.4,0.8-3.1,2v-0.4c1-3.3,3.5-5.6,6.7-5.6C221.6,112.4,223.6,114.9,223.6,117.9z"/>
</g>
<g class="st1">
	<path class="st2" d="M255.4,114.2l-0.6,0.8h-5v20.7c0,1.3,0.8,2.6,3.9,2.6v0.3h-16.3v-0.3c3.1,0,3.9-1.3,3.9-2.6V115h-3.3l0.6-0.8
		h2.8v-2.3c0-7.3,3.8-10.4,8.6-11.1v0.3c-1.8,0.7-3,2.3-3,5.5C246.8,109.6,248.8,114.2,255.4,114.2z M259.8,106.4
		c0,2.9-2.2,4.5-4.5,4.5c-2.7,0-4.4-1.5-5.2-3.5c2.2,0,3.7-1.2,3.7-3.3c0-1.4-0.7-2.7-1.9-3v-0.3C257.4,101,259.8,103.4,259.8,106.4
		z"/>
</g>
<g class="st1">
	<path class="st2" d="M270.7,112.7c-3,0.4-4.1,2.9-4.1,13c0,9.7,1,12.9,4.1,13.2v0.3c-5.9,0-12.8-4.8-12.8-13.5
		c0-8.7,6.8-13.2,12.8-13.3V112.7z M285.5,125.7c0,8.6-6.9,13.5-12.8,13.5v-0.3c3-0.3,4-3.6,4-13.2c0-10.1-1-12.7-4-13v-0.3
		C278.7,112.4,285.5,117,285.5,125.7z"/>
</g>
<g class="st1">
	<path class="st2" d="M301.2,135.7c0,1.3,0.8,2.6,3.9,2.6v0.3h-16.2v-0.3c3.1,0,3.9-1.3,3.9-2.6v-18.3c0-1.9-0.9-2.7-3.8-2.7v-0.3
		c4.8,0,8.7-0.5,12.3-2V135.7z M315.1,117.9c0,3.6-2.5,5.9-5.3,5.9c-1.2,0-2.3-0.3-2.9-1.1c1-0.5,2-1.6,2-3.5c0-1.5-1.1-2.8-2.9-2.8
		c-1.3,0-2.4,0.8-3.1,2v-0.4c1-3.3,3.5-5.6,6.7-5.6C313.2,112.4,315.1,114.9,315.1,117.9z"/>
</g>
<g class="st1">
	<path class="st2" d="M41.1,184.1c0.1-4.5,4.1-7,9.9-7h5.6v0.3H55c-3.7,0-5.5,2.4-5.5,5.6c0,2.8,0.8,5,3.2,5c1.4,0,2.6-0.8,3.8-1.8
		v0.3c-1.7,2-4.4,4.2-8.2,4.2C44,190.7,41.1,188.2,41.1,184.1z M43.2,169.5c0-2.6,2.4-5.3,9.4-5.6v0.3c-2.1,0.3-3.3,2-3.3,3.8
		c0,1.9,1.3,3,3.3,3.1c-0.8,1.4-2.9,2.5-4.9,2.5C44.8,173.6,43.2,171.7,43.2,169.5z M58.1,184.9v-15.8c0-2.5-1-4.5-3.5-4.9v-0.3
		c8.6,0.3,12,3.6,12,10.3v12.5c0,1.5,0.5,2.1,1.4,2.1c0.8,0,1.6-0.8,2.5-2.3h0.3c-0.8,2.8-3.6,4.2-6.7,4.2
		C60,190.7,58.1,189.2,58.1,184.9z"/>
	<path class="st2" d="M104.7,168v0.4c-1.2-1.3-2.7-1.9-4.3-1.9c-2.6,0-5,1.2-5,10.5c0,9.3,2.6,11,5,11c1.6,0,3-0.8,4.3-1.8v0.3
		c-1.3,2.2-4.6,4.2-7.5,4.2c-4.9,0-10.6-2.9-10.6-13.7c0-10.3,5.6-13.1,10.6-13.1C100.1,163.9,103.4,165.8,104.7,168z M114.7,198
		c0,1.9,0.9,2.7,3.8,2.7v0.3c-4.8,0-8,0.5-12.3,2v-37.2c2.7-0.3,6.2-1,8.5-2V198z"/>
	<path class="st2" d="M132,183.4c0,2.9,1,4.4,3.6,4.4c1.3,0,2.4-0.4,3.6-1.6v0.3c-1.2,2.2-3.8,4.2-8,4.2c-4.6,0-7.6-2.2-7.6-7.3
		v-14.5c0-1.9-0.9-2.7-3.8-2.7v-0.3c4.8,0,8.7-0.5,12.3-2V183.4z M149.1,186.7c0,1.5,0.5,2.1,1.4,2.1c0.8,0,1.6-0.8,2.5-2.3h0.3
		c-0.8,2.8-3.6,4.2-7,4.2c-3.6,0-5.7-2.1-5.7-5v-16.7c0-1.9-0.9-2.7-3.7-2.7v-0.3c4.6,0,7.8-0.5,12.2-2V186.7z"/>
	<path class="st2" d="M169.1,164.2c-3,0.4-4.1,2.9-4.1,13c0,9.7,1,12.9,4.1,13.2v0.3c-5.9,0-12.8-4.8-12.8-13.5s6.8-13.2,12.8-13.3
		V164.2z M183.9,177.2c0,8.6-6.9,13.5-12.8,13.5v-0.3c3-0.3,4-3.6,4-13.2c0-10.1-1-12.7-4-13v-0.3
		C177.1,163.9,183.9,168.5,183.9,177.2z"/>
</g>
<g class="st1">
	<path class="st2" d="M207.3,186.2v0.3c-1.6,2.4-4.9,4.2-8.8,4.2c-4.6,0-7.9-2.1-7.9-7.3v-16.9h-2.7l0.6-0.8h2.1v-5.6
		c3.1,0,6.2-1,8.4-2.9v8.4h7l-0.6,0.8H199v17.1c0,2.6,1,5.3,3.4,5.3C203.9,188.8,205.6,187.9,207.3,186.2z"/>
</g>
<g class="st1">
	<path class="st2" d="M209.2,177.2c0-8.7,6.6-13.2,12.6-13.3v0.3c-3,0.4-3.9,2.9-3.9,12.8c0,7.4,3.3,11.5,7.9,11.5
		c2.9,0,5.1-0.8,7.5-2.7v0.3c-2.7,3.4-7.6,4.6-10.9,4.6C215.9,190.7,209.2,185.8,209.2,177.2z M220.8,175c4.5,0,6.4-1.4,6.4-5.8
		c0-2.5-1-4.7-3.3-5v-0.3c6.8,0,10.1,4.8,10.1,8.8c0,0.8-0.1,1.9-0.3,2.7h-12.9V175z"/>
</g>
</svg>
