<svg id="Layer_1" data-name="Layer 1" xmlns="http://www.w3.org/2000/svg" viewBox="0 0 970 250"><defs><style>.cls-1{fill:none;}.cls-2{fill:#263845;}</style></defs><title>Artboard 1 copy 6</title><rect class="cls-1" width="970" height="250"/><path class="cls-2" d="M79.29,85.57l.18.36c-2.34,3.73-6.48,5.44-10.84,5.44-7.34,0-16.47-5.21-16.47-15.7,0-11.38,8.91-15.61,15.39-15.79v.27C64.4,60.82,61,63.79,61,75.36s4.63,14.22,9.72,14.22A11,11,0,0,0,79.29,85.57Zm.36-25.69V70.81h-.36c-1.75-6-5.08-9.45-9.49-10.66v-.27c3.91.18,6.3.85,8.14,2.07l1.35-2.07Z"/><path class="cls-2" d="M83.07,85.62c.05-3.92,3.6-6.13,8.64-6.13h4.86v.28H95.22c-3.24,0-4.77,2.11-4.77,4.9,0,2.47.72,4.37,2.84,4.37a4.93,4.93,0,0,0,3.28-1.58v.27a9.56,9.56,0,0,1-7.15,3.64C85.59,91.37,83,89.21,83.07,85.62Zm1.8-12.74c0-2.29,2.07-4.63,8.19-4.9v.27a3.28,3.28,0,0,0-2.88,3.28c0,1.62,1.13,2.61,2.93,2.75a5.06,5.06,0,0,1-4.32,2.16A3.61,3.61,0,0,1,84.87,72.88Zm13,13.41V72.52c0-2.2-.85-4-3.06-4.27V68c7.47.27,10.44,3.1,10.44,9V87.91c0,1.3.45,1.84,1.26,1.84s1.44-.67,2.16-2H109c-.72,2.47-3.15,3.64-5.85,3.64C99.54,91.37,97.92,90.12,97.92,86.29Z"/><path class="cls-2" d="M110.16,59.61a27.48,27.48,0,0,0,10.76-1.76V88.36c0,1.13.67,2.3,3.37,2.3v.26H110.12v-.26c2.7,0,3.37-1.17,3.37-2.3V62.26c0-1.62-.76-2.38-3.33-2.38Z"/><path class="cls-2" d="M126,59.61a27.42,27.42,0,0,0,10.75-1.76V88.36c0,1.13.68,2.3,3.38,2.3v.26H125.91v-.26c2.7,0,3.38-1.17,3.38-2.3V62.26c0-1.62-.77-2.38-3.33-2.38Z"/><path class="cls-2" d="M153.09,70.27a2.43,2.43,0,0,0-2.47-1.57v-.27h12.6v.27c-1.58,0-2.21,1.08-1.44,2.65l5.89,12.28-3.87,7.29h-.27Zm-2,27.9c0-1.94,1.53-3.56,4-4.23a3.53,3.53,0,0,0-.18,1.12c0,1.71.9,3,2.66,3,1.57,0,2.83-1.67,4.54-4.54h.32c-2.48,4.63-4.19,8.63-7.34,8.63A3.74,3.74,0,0,1,151.11,98.17Zm18.45-18.94a12.3,12.3,0,0,0,1.26-5.81c0-2.47-1.39-4.72-4.59-4.72v-.27h11.21v.27c-1.49,0-2.07.58-2.93,2.11l-4.68,8.82Z"/><path class="cls-2" d="M188.87,68.25c-2.66.31-3.56,2.56-3.56,11.33,0,8.46.9,11.25,3.56,11.52v.27a11.47,11.47,0,0,1-11.21-11.79A11.27,11.27,0,0,1,188.87,68Zm13,11.33a11.46,11.46,0,0,1-11.16,11.79V91.1c2.65-.27,3.51-3.1,3.51-11.52,0-8.81-.9-11.06-3.51-11.33V68A11.21,11.21,0,0,1,201.83,79.58Z"/><path class="cls-2" d="M215.1,85c0,2.52.86,3.82,3.11,3.82a4,4,0,0,0,3.1-1.39v.27c-1,1.93-3.33,3.64-7,3.64-4.05,0-6.66-1.88-6.66-6.34V72.39c0-1.62-.77-2.39-3.33-2.39v-.27A27.61,27.61,0,0,0,215.1,68Zm15,2.88c0,1.3.4,1.84,1.21,1.84s1.44-.67,2.16-2h.27c-.72,2.47-3.15,3.64-6.12,3.64-3.15,0-5-1.79-5-4.41V72.39c0-1.62-.76-2.39-3.19-2.39v-.27A29.36,29.36,0,0,0,230.09,68Z"/><path class="cls-2" d="M246.33,88.36c0,1.13.68,2.3,3.38,2.3v.26H235.53v-.26c2.7,0,3.38-1.17,3.38-2.3v-16c0-1.62-.77-2.39-3.33-2.39v-.27A27.61,27.61,0,0,0,246.33,68Zm12.15-15.52A4.81,4.81,0,0,1,253.85,78a3.07,3.07,0,0,1-2.57-1A3.29,3.29,0,0,0,253,73.91a2.39,2.39,0,0,0-2.52-2.42,3.07,3.07,0,0,0-2.7,1.71v-.36c.85-2.88,3.06-4.86,5.85-4.86A4.57,4.57,0,0,1,258.48,72.84Z"/><path class="cls-2" d="M61.11,131.25c0,4.28-2.92,6.12-7.42,6.12V108.26c0-1.62-.81-2.38-3.37-2.38v-.27a29.57,29.57,0,0,0,10.79-1.76Zm17.15-5.8c0,9.4-5,11.92-9.27,11.92a8.32,8.32,0,0,1-6.52-3.64v-.27A6.2,6.2,0,0,0,66.2,135c2.11,0,4.41-1.49,4.41-9.59s-2.16-9.18-4.41-9.18a4.93,4.93,0,0,0-3.73,1.67v-.36A8.28,8.28,0,0,1,69,114C73.35,114,78.26,116.5,78.26,125.45Z"/><path class="cls-2" d="M92.21,134.36c0,1.13.67,2.3,3.37,2.3v.26H81.41v-.26c2.7,0,3.37-1.17,3.37-2.3v-16c0-1.62-.76-2.39-3.32-2.39v-.27A27.65,27.65,0,0,0,92.21,114Zm12.15-15.52A4.82,4.82,0,0,1,99.72,124a3,3,0,0,1-2.56-1,3.3,3.3,0,0,0,1.75-3.07,2.38,2.38,0,0,0-2.52-2.42,3.09,3.09,0,0,0-2.7,1.71v-.36c.86-2.88,3.06-4.86,5.85-4.86A4.57,4.57,0,0,1,104.36,118.84Z"/><path class="cls-2" d="M118,114.25c-2.65.31-3.55,2.56-3.55,11.33,0,8.46.9,11.25,3.55,11.52v.27a11.47,11.47,0,0,1-11.2-11.79A11.27,11.27,0,0,1,118,114Zm13,11.33a11.46,11.46,0,0,1-11.16,11.79v-.27c2.66-.27,3.51-3.1,3.51-11.52,0-8.81-.9-11.06-3.51-11.33V114A11.21,11.21,0,0,1,131,125.58Z"/><path class="cls-2" d="M147.83,136.66v.26H133.65v-.26c2.7,0,3.38-1.17,3.38-2.3v-26.1c0-1.62-.77-2.38-3.33-2.38v-.27a27.42,27.42,0,0,0,10.75-1.76v30.51C144.45,135.49,145.13,136.66,147.83,136.66Zm15.25,0v.26a17.31,17.31,0,0,1-4.5.45c-2.74,0-5.8-.49-8.14-4.36L146.21,126c3.55-3.11,6.88-6.89,6.88-9.18,0-1.22-.58-2.07-2.65-2.07v-.27H162v.27a4,4,0,0,0-2.52.81L151.2,122,159,134.09C160.47,136.34,161.6,136.47,163.08,136.66Z"/><path class="cls-2" d="M163.35,125.58a11.13,11.13,0,0,1,11-11.6v.27c-2.66.31-3.38,2.56-3.38,11.16,0,6.47,2.88,10,6.89,10a9.79,9.79,0,0,0,6.57-2.39v.28c-2.34,3-6.62,4-9.54,4A11.41,11.41,0,0,1,163.35,125.58Zm10.13-1.88c4,0,5.62-1.26,5.62-5,0-2.16-.9-4.14-2.92-4.41V114c5.94,0,8.82,4.23,8.82,7.64a12.91,12.91,0,0,1-.23,2.35H173.48Z"/><path class="cls-2" d="M198.68,134.36c0,1.13.67,2.3,3.37,2.3v.26H187.88v-.26c2.7,0,3.37-1.17,3.37-2.3v-16c0-1.62-.76-2.39-3.33-2.39v-.27A27.66,27.66,0,0,0,198.68,114Zm12.15-15.52a4.82,4.82,0,0,1-4.64,5.13,3,3,0,0,1-2.56-1,3.3,3.3,0,0,0,1.75-3.07,2.38,2.38,0,0,0-2.52-2.42,3.09,3.09,0,0,0-2.7,1.71v-.36C201,116,203.22,114,206,114A4.57,4.57,0,0,1,210.83,118.84Z"/><path class="cls-2" d="M238.64,115.6l-.5.67h-4.41v18.09c0,1.13.72,2.3,3.42,2.3v.26H222.93v-.26c2.7,0,3.38-1.17,3.38-2.3V116.27h-2.93l.5-.67h2.43v-2c0-6.39,3.33-9.09,7.47-9.72v.27c-1.53.59-2.66,2-2.66,4.77S232.88,115.6,238.64,115.6Zm3.82-6.89a3.81,3.81,0,0,1-3.91,4,4.68,4.68,0,0,1-4.55-3c1.94,0,3.2-1.08,3.2-2.88a2.62,2.62,0,0,0-1.62-2.66v-.27C240.35,104,242.46,106.15,242.46,108.71Z"/><path class="cls-2" d="M252,114.25c-2.66.31-3.56,2.56-3.56,11.33,0,8.46.9,11.25,3.56,11.52v.27a11.47,11.47,0,0,1-11.21-11.79A11.27,11.27,0,0,1,252,114Zm13,11.33a11.46,11.46,0,0,1-11.16,11.79v-.27c2.65-.27,3.51-3.1,3.51-11.52,0-8.81-.9-11.06-3.51-11.33V114A11.21,11.21,0,0,1,264.92,125.58Z"/><path class="cls-2" d="M278.69,134.36c0,1.13.67,2.3,3.37,2.3v.26H267.89v-.26c2.7,0,3.37-1.17,3.37-2.3v-16c0-1.62-.76-2.39-3.33-2.39v-.27A27.66,27.66,0,0,0,278.69,114Zm12.15-15.52A4.82,4.82,0,0,1,286.2,124a3,3,0,0,1-2.56-1,3.3,3.3,0,0,0,1.75-3.07,2.38,2.38,0,0,0-2.52-2.42,3.09,3.09,0,0,0-2.7,1.71v-.36C281,116,283.23,114,286,114A4.57,4.57,0,0,1,290.84,118.84Z"/><path class="cls-2" d="M51.44,177.62c.05-3.92,3.6-6.13,8.64-6.13h4.86v.28H63.59c-3.24,0-4.77,2.11-4.77,4.9,0,2.47.72,4.37,2.83,4.37a5,5,0,0,0,3.29-1.58v.27a9.58,9.58,0,0,1-7.16,3.64C54,183.37,51.4,181.21,51.44,177.62Zm1.8-12.74c0-2.29,2.07-4.63,8.19-4.9v.27a3.28,3.28,0,0,0-2.88,3.28c0,1.62,1.13,2.61,2.92,2.75a5,5,0,0,1-4.31,2.16A3.61,3.61,0,0,1,53.24,164.88Zm13.05,13.41V164.52c0-2.2-.86-4-3.06-4.27V160c7.47.27,10.44,3.1,10.44,9v10.93c0,1.3.45,1.84,1.26,1.84s1.44-.67,2.16-2h.27c-.72,2.47-3.15,3.64-5.85,3.64C67.91,183.37,66.29,182.12,66.29,178.29Z"/><path class="cls-2" d="M107,163.58v.36a5.06,5.06,0,0,0-3.78-1.67c-2.25,0-4.37,1-4.37,9.18s2.25,9.59,4.37,9.59a6.36,6.36,0,0,0,3.78-1.58v.27a8.45,8.45,0,0,1-6.57,3.64c-4.28,0-9.23-2.52-9.23-11.92C91.17,162.5,96,160,100.4,160A8.41,8.41,0,0,1,107,163.58Zm8.77,26.18c0,1.62.77,2.39,3.33,2.39v.27a29.59,29.59,0,0,0-10.75,1.75V161.64a27.91,27.91,0,0,0,7.42-1.71Z"/><path class="cls-2" d="M130.82,177c0,2.52.85,3.82,3.1,3.82a4,4,0,0,0,3.11-1.39v.27c-1,1.93-3.33,3.64-7,3.64-4.05,0-6.66-1.88-6.66-6.34V164.39c0-1.62-.76-2.39-3.33-2.39v-.27A27.66,27.66,0,0,0,130.82,160Zm15,2.88c0,1.3.41,1.84,1.22,1.84s1.44-.67,2.16-2h.27c-.72,2.47-3.15,3.64-6.12,3.64-3.15,0-5-1.79-5-4.41V164.39c0-1.62-.77-2.39-3.2-2.39v-.27A29.36,29.36,0,0,0,145.8,160Z"/><path class="cls-2" d="M163.26,160.25c-2.65.31-3.55,2.56-3.55,11.33,0,8.46.9,11.25,3.55,11.52v.27a11.47,11.47,0,0,1-11.2-11.79,11.27,11.27,0,0,1,11.2-11.6Zm13,11.33a11.46,11.46,0,0,1-11.16,11.79v-.27c2.66-.27,3.51-3.1,3.51-11.52,0-8.81-.9-11.06-3.51-11.33V160A11.21,11.21,0,0,1,176.22,171.58Z"/><path class="cls-2" d="M196.65,179.46v.27a9.41,9.41,0,0,1-7.69,3.64c-4.05,0-6.93-1.84-6.93-6.34V162.27h-2.34l.49-.67H182v-4.86a11.42,11.42,0,0,0,7.38-2.52v7.38h6.07l-.49.67h-5.58v14.89c0,2.25.85,4.59,3,4.59A6.58,6.58,0,0,0,196.65,179.46Z"/><path class="cls-2" d="M198.32,171.58a11.13,11.13,0,0,1,11-11.6v.27c-2.65.31-3.37,2.56-3.37,11.16,0,6.47,2.88,10,6.88,10a9.76,9.76,0,0,0,6.57-2.39v.28c-2.34,3-6.61,4-9.54,4A11.4,11.4,0,0,1,198.32,171.58Zm10.12-1.88c4,0,5.63-1.26,5.63-5,0-2.16-.9-4.14-2.93-4.41V160c5.94,0,8.82,4.23,8.82,7.64a13.87,13.87,0,0,1-.22,2.35h-11.3Z"/></svg>