<svg id="Layer_1" data-name="Layer 1" xmlns="http://www.w3.org/2000/svg" viewBox="0 0 970 250"><defs><style>.cls-1{fill:#fff;}.cls-2{fill:none;}</style></defs><title>Artboard 1 copy 3</title><path class="cls-1" d="M79.29,106.57l.18.36c-2.34,3.74-6.48,5.45-10.84,5.45-7.34,0-16.47-5.22-16.47-15.71,0-11.38,8.91-15.61,15.39-15.79v.27C64.4,81.82,61,84.79,61,96.36s4.63,14.22,9.72,14.22A11,11,0,0,0,79.29,106.57Zm.36-25.69V91.81h-.36c-1.75-6-5.08-9.45-9.49-10.66v-.27c3.91.18,6.3.85,8.14,2.07l1.35-2.07Z"/><path class="cls-1" d="M93.24,109.36c0,1.13.68,2.3,3.38,2.3v.27H82.44v-.27c2.7,0,3.38-1.17,3.38-2.3V83.26c0-1.62-.77-2.38-3.33-2.38v-.27a27.42,27.42,0,0,0,10.75-1.76Zm15.75-14v14c0,1.13.68,2.3,3.38,2.3v.27H98.24v-.27c2.65,0,3.33-1.17,3.33-2.3v-14c0-2.52-1.31-3.82-3.56-3.82a4.79,4.79,0,0,0-3.42,1.39v-.27A9.19,9.19,0,0,1,102.06,89C106.11,89,109,90.87,109,95.32Z"/><path class="cls-1" d="M126,89.25c-2.65.31-3.55,2.56-3.55,11.34,0,8.46.9,11.25,3.55,11.51v.28a11.47,11.47,0,0,1-11.2-11.79A11.27,11.27,0,0,1,126,89Zm13,11.34a11.46,11.46,0,0,1-11.16,11.79v-.28c2.66-.26,3.51-3.1,3.51-11.51,0-8.82-.9-11.07-3.51-11.34V89A11.21,11.21,0,0,1,139,100.59Z"/><path class="cls-1" d="M154,89.25c-2.66.31-3.56,2.56-3.56,11.34,0,8.46.9,11.25,3.56,11.51v.28a11.47,11.47,0,0,1-11.21-11.79A11.28,11.28,0,0,1,154,89Zm13,11.34a11.47,11.47,0,0,1-11.16,11.79v-.28c2.65-.26,3.51-3.1,3.51-11.51,0-8.82-.9-11.07-3.51-11.34V89A11.21,11.21,0,0,1,166.91,100.59Z"/><path class="cls-1" d="M178.52,106.57a2.3,2.3,0,0,0-2.52,2.25c0,1.31.9,3,4,3.28v.28c-6-.23-9.27-1.85-9.27-4.46,0-2.07,1.8-3.33,3.83-3.33A4.6,4.6,0,0,1,178.52,106.57ZM180,89.25c-1.66.31-3.28,1.17-3.24,3,.14,5.22,14.72,6.08,14.72,13.23,0,4.36-3.69,6.66-9.5,6.89v-.28c1.89-.31,4-1,4-3.32,0-4.68-14.76-6.39-14.76-13.23,0-4,3.73-6.35,8.77-6.57Zm10.62,4.36c0,1.4-1.08,2.79-3.33,2.79a3.85,3.85,0,0,1-3.82-2.16,2,2,0,0,0,2-2.11c0-1.35-1.71-2.66-3.51-2.88V89C187.07,89.25,190.62,91.09,190.62,93.61Z"/><path class="cls-1" d="M195.26,100.59a11.14,11.14,0,0,1,11-11.61v.27c-2.65.31-3.37,2.56-3.37,11.16,0,6.48,2.88,10,6.88,10a9.8,9.8,0,0,0,6.57-2.38v.27c-2.34,3-6.61,4-9.54,4A11.4,11.4,0,0,1,195.26,100.59Zm10.12-1.89c4,0,5.63-1.26,5.63-5,0-2.16-.9-4.14-2.93-4.41V89c5.94,0,8.82,4.23,8.82,7.65a13.85,13.85,0,0,1-.22,2.34h-11.3Z"/><path class="cls-1" d="M243.5,112.1v.28a17,17,0,0,1-8.73-2.21l-1.49,2.21h-.36v-11h.36A15.09,15.09,0,0,0,243.5,112.1Zm13.23-8.95c0,5.81-4.32,8.95-11.3,9.23v-.28c2.48-.44,4.91-1.88,4.91-4.58,0-7.88-17.19-8.6-17.19-17.73,0-5.4,4.36-8.51,10.35-8.91v.27c-2.07.36-4,1.66-4,4.14C239.54,93.16,256.73,94,256.73,103.15Zm-11.3-22v-.27a14.5,14.5,0,0,1,8.1,2.38l1.62-2.38h.36v10h-.36C253.71,86.14,249.84,82.23,245.43,81.15Z"/><path class="cls-1" d="M277.25,108.46v.27a9.42,9.42,0,0,1-7.7,3.65c-4.05,0-6.93-1.85-6.93-6.35V91.27h-2.34l.5-.67h1.84V85.74A11.38,11.38,0,0,0,270,83.22V90.6h6.08l-.5.67H270v14.9c0,2.25.86,4.59,3,4.59A6.64,6.64,0,0,0,277.25,108.46Z"/><path class="cls-1" d="M278.69,106.62c0-3.92,3.6-6.12,8.64-6.12h4.86v.27h-1.35c-3.24,0-4.77,2.11-4.77,4.9,0,2.48.72,4.37,2.83,4.37a5,5,0,0,0,3.29-1.58v.27a9.59,9.59,0,0,1-7.16,3.65C281.21,112.38,278.64,110.22,278.69,106.62Zm1.8-12.74c0-2.29,2.07-4.63,8.19-4.9v.27a3.28,3.28,0,0,0-2.88,3.28c0,1.62,1.12,2.61,2.92,2.75a5,5,0,0,1-4.32,2.16A3.61,3.61,0,0,1,280.49,93.88Zm13,13.41V93.52c0-2.2-.85-4-3-4.27V89c7.46.27,10.43,3.1,10.43,9v10.93c0,1.31.45,1.85,1.26,1.85s1.44-.68,2.16-2h.27c-.72,2.48-3.15,3.65-5.85,3.65C295.15,112.38,293.53,111.12,293.53,107.29Z"/><path class="cls-1" d="M316.8,109.36c0,1.13.67,2.3,3.37,2.3v.27H306v-.27c2.7,0,3.38-1.17,3.38-2.3v-16c0-1.62-.77-2.39-3.33-2.39v-.27A27.61,27.61,0,0,0,316.8,89ZM329,93.84A4.82,4.82,0,0,1,324.31,99a3,3,0,0,1-2.56-1,3.3,3.3,0,0,0,1.75-3.06A2.38,2.38,0,0,0,321,92.49a3.09,3.09,0,0,0-2.7,1.71v-.36c.86-2.88,3.06-4.86,5.85-4.86A4.57,4.57,0,0,1,329,93.84Z"/><path class="cls-1" d="M79.29,156.57l.18.36c-2.34,3.74-6.48,5.45-10.84,5.45-7.34,0-16.47-5.22-16.47-15.71,0-11.38,8.91-15.61,15.39-15.79v.27c-3.15.67-6.57,3.64-6.57,15.21s4.63,14.22,9.72,14.22A11,11,0,0,0,79.29,156.57Zm.36-25.69v10.93h-.36c-1.75-6-5.08-9.45-9.49-10.66v-.27c3.91.18,6.3.85,8.14,2.07l1.35-2.07Z"/><path class="cls-1" d="M83.07,156.62c.05-3.92,3.6-6.12,8.64-6.12h4.86v.27H95.22c-3.24,0-4.77,2.11-4.77,4.9,0,2.48.72,4.37,2.84,4.37a4.93,4.93,0,0,0,3.28-1.58v.27a9.56,9.56,0,0,1-7.15,3.65C85.59,162.38,83,160.22,83.07,156.62Zm1.8-12.74c0-2.29,2.07-4.63,8.19-4.9v.27a3.28,3.28,0,0,0-2.88,3.28c0,1.62,1.13,2.61,2.93,2.75a5.06,5.06,0,0,1-4.32,2.16A3.61,3.61,0,0,1,84.87,143.88Zm13,13.41V143.52c0-2.2-.85-4-3.06-4.27V139c7.47.27,10.44,3.1,10.44,9v10.93c0,1.31.45,1.85,1.26,1.85s1.44-.68,2.16-2H109c-.72,2.48-3.15,3.65-5.85,3.65C99.54,162.38,97.92,161.12,97.92,157.29Z"/><path class="cls-1" d="M121.19,159.36c0,1.13.67,2.3,3.37,2.3v.27H110.39v-.27c2.7,0,3.37-1.17,3.37-2.3v-16c0-1.62-.76-2.39-3.33-2.39v-.27A27.66,27.66,0,0,0,121.19,139Zm14.94-14v14c0,1.13.63,2.3,3.33,2.3v.27H125.33v-.27c2.65,0,3.37-1.17,3.37-2.3v-14c0-2.52-1-3.82-3.15-3.82a4,4,0,0,0-3,1.35v-.27a7.29,7.29,0,0,1,6.57-3.6C133.43,139,136.13,140.87,136.13,145.32Zm14.89,0v14c0,1.13.68,2.3,3.38,2.3v.27H140.22v-.27c2.66,0,3.38-1.17,3.38-2.3v-14c0-2.52-1-3.82-3.15-3.82a3.94,3.94,0,0,0-3,1.35v-.27a7.27,7.27,0,0,1,6.57-3.6C148.32,139,151,140.87,151,145.32Z"/><path class="cls-1" d="M166.41,168.77c0,1.62.77,2.38,3.33,2.38v.27A29.39,29.39,0,0,0,159,173.18V143.34c0-1.62-.77-2.38-3.33-2.38v-.27a29.39,29.39,0,0,0,10.75-1.76Zm17.15-18.32c0,9.4-4.95,11.93-9.23,11.93a8.46,8.46,0,0,1-6.57-3.65v-.27a6.36,6.36,0,0,0,3.78,1.58c2.12,0,4.37-1.49,4.37-9.59s-2.12-9.18-4.37-9.18a5.06,5.06,0,0,0-3.78,1.67v-.36a8.41,8.41,0,0,1,6.57-3.6C178.7,139,183.56,141.5,183.56,150.45Z"/><path class="cls-1" d="M187.52,150.59a11.14,11.14,0,0,1,11-11.61v.27c-2.65.31-3.37,2.56-3.37,11.16,0,6.48,2.88,10,6.88,10a9.8,9.8,0,0,0,6.57-2.38v.27c-2.34,3-6.61,4-9.54,4A11.4,11.4,0,0,1,187.52,150.59Zm10.12-1.89c4,0,5.63-1.26,5.63-5,0-2.16-.9-4.14-2.93-4.41V139c5.94,0,8.82,4.23,8.82,7.65a13.85,13.85,0,0,1-.22,2.34h-11.3Z"/><path class="cls-1" d="M222.84,159.36c0,1.13.68,2.3,3.38,2.3v.27H212v-.27c2.7,0,3.38-1.17,3.38-2.3v-16c0-1.62-.77-2.39-3.33-2.39v-.27A27.61,27.61,0,0,0,222.84,139ZM235,143.84a4.81,4.81,0,0,1-4.63,5.13,3.07,3.07,0,0,1-2.57-1,3.29,3.29,0,0,0,1.76-3.06,2.39,2.39,0,0,0-2.52-2.43,3.07,3.07,0,0,0-2.7,1.71v-.36c.85-2.88,3.06-4.86,5.85-4.86A4.57,4.57,0,0,1,235,143.84Z"/><path class="cls-1" d="M265.1,156.57l.18.36c-2.34,3.74-6.48,5.45-10.85,5.45-7.33,0-16.47-5.22-16.47-15.71,0-11.38,8.91-15.61,15.39-15.79v.27c-3.15.67-6.57,3.64-6.57,15.21s4.64,14.22,9.72,14.22A11,11,0,0,0,265.1,156.57Zm.36-25.69v10.93h-.36c-1.76-6-5.09-9.45-9.5-10.66v-.27c3.92.18,6.3.85,8.15,2.07l1.35-2.07Z"/><path class="cls-1" d="M268.88,156.62c0-3.92,3.6-6.12,8.64-6.12h4.86v.27H281c-3.24,0-4.77,2.11-4.77,4.9,0,2.48.72,4.37,2.83,4.37a5,5,0,0,0,3.29-1.58v.27a9.59,9.59,0,0,1-7.16,3.65C271.4,162.38,268.83,160.22,268.88,156.62Zm1.8-12.74c0-2.29,2.07-4.63,8.19-4.9v.27a3.28,3.28,0,0,0-2.88,3.28c0,1.62,1.12,2.61,2.92,2.75a5,5,0,0,1-4.32,2.16A3.61,3.61,0,0,1,270.68,143.88Zm13.05,13.41V143.52c0-2.2-.86-4-3.06-4.27V139c7.47.27,10.44,3.1,10.44,9v10.93c0,1.31.45,1.85,1.25,1.85s1.45-.68,2.16-2h.27c-.72,2.48-3.14,3.65-5.85,3.65C285.35,162.38,283.73,161.12,283.73,157.29Z"/><path class="cls-1" d="M307,159.36c0,1.13.68,2.3,3.37,2.3v.27H296.19v-.27c2.7,0,3.38-1.17,3.38-2.3v-16c0-1.62-.77-2.39-3.33-2.39v-.27A27.61,27.61,0,0,0,307,139Zm12.15-15.52A4.82,4.82,0,0,1,314.5,149a3,3,0,0,1-2.56-1,3.3,3.3,0,0,0,1.75-3.06,2.38,2.38,0,0,0-2.51-2.43,3.06,3.06,0,0,0-2.7,1.71v-.36c.85-2.88,3-4.86,5.84-4.86A4.57,4.57,0,0,1,319.14,143.84Z"/><path class="cls-1" d="M321.57,150.59a11.14,11.14,0,0,1,11-11.61v.27c-2.65.31-3.37,2.56-3.37,11.16,0,6.48,2.88,10,6.88,10a9.8,9.8,0,0,0,6.57-2.38v.27c-2.34,3-6.61,4-9.54,4A11.4,11.4,0,0,1,321.57,150.59Zm10.12-1.89c4,0,5.63-1.26,5.63-5,0-2.16-.9-4.14-2.93-4.41V139c5.94,0,8.82,4.23,8.82,7.65A13.85,13.85,0,0,1,343,149h-11.3Z"/><rect class="cls-2" width="970" height="250"/></svg>