<svg id="Layer_1" data-name="Layer 1" xmlns="http://www.w3.org/2000/svg" viewBox="0 0 970 250"><defs><style>.cls-1{fill:#fb0010;}.cls-2{fill:#fff;}.cls-3{fill:none;}</style></defs><title>Artboard 1 copy 5</title><path class="cls-1" d="M473.16,62.33V124A22,22,0,0,0,485,143.45l92.35,47.91a27.48,27.48,0,0,0,25.29,0L695,143.45A22,22,0,0,0,706.85,124V62.33a10.27,10.27,0,0,0-10.26-10.26H483.42A10.26,10.26,0,0,0,473.16,62.33Z"/><path class="cls-2" d="M567,96l.42-.6c.3-.42.63-.44,1.1-.18a4.71,4.71,0,0,0,2.74,1c1.26,0,2-.62,2-1.54,0-2.56-6.3-2-6.3-6.23,0-2.38,2-3.92,4.55-3.92a6.34,6.34,0,0,1,3.48,1,.76.76,0,0,1,.25,1.09l-.35.63c-.28.55-.68.47-1.08.26a4.43,4.43,0,0,0-2.34-.74c-1.26,0-2,.61-2,1.52,0,2.53,6.29,1.89,6.29,6.18,0,2.19-1.63,4-4.47,4a7.15,7.15,0,0,1-4.14-1.37A.71.71,0,0,1,567,96Z"/><path class="cls-2" d="M581.17,86.9h-3.63a.7.7,0,0,1-.8-.78v-.54a.71.71,0,0,1,.8-.79h9.7a.7.7,0,0,1,.78.79v.54a.7.7,0,0,1-.78.78h-3.63V97.49a.71.71,0,0,1-.8.8H582a.7.7,0,0,1-.78-.8Z"/><path class="cls-2" d="M591.23,85.43a.86.86,0,0,1,.89-.64h1.22a.85.85,0,0,1,.89.64l4.22,11.95c.19.55-.05.91-.64.91h-.88a.85.85,0,0,1-.89-.65l-.95-2.81h-4.74l-.93,2.79a.84.84,0,0,1-.89.67h-.88c-.59,0-.84-.36-.65-.91Zm3.25,7.4-1.2-3.61c-.23-.76-.53-2.09-.53-2.09h0s-.3,1.33-.53,2.09L591,92.83Z"/><path class="cls-2" d="M600.16,85.58a.7.7,0,0,1,.78-.79h3.65a6.16,6.16,0,0,1,2.57.36,3.75,3.75,0,0,1,2.26,3.69,3.92,3.92,0,0,1-2.24,3.69v0a4.66,4.66,0,0,1,.43.71l2.23,4.07c.32.55.07,1-.55,1h-1a1,1,0,0,1-.93-.55L605,93.25h-2.36v4.24a.7.7,0,0,1-.78.8h-.87a.7.7,0,0,1-.78-.8Zm4.64,5.54A2,2,0,0,0,606.93,89a1.8,1.8,0,0,0-1.07-1.84,3.23,3.23,0,0,0-1.46-.23h-1.81v4.22Z"/><path class="cls-2" d="M567.9,102.08a.41.41,0,0,1,.45-.47h.4a.42.42,0,0,1,.46.47V114.5a.43.43,0,0,1-.46.48h-.4a.42.42,0,0,1-.45-.48Z"/><path class="cls-2" d="M572.37,105.88a.43.43,0,0,1,.48-.47h.34a.42.42,0,0,1,.46.47V107a2.93,2.93,0,0,1-.08.68h0a4.22,4.22,0,0,1,3.86-2.49c2.38,0,3.21,1.35,3.21,3.71v5.61a.43.43,0,0,1-.47.48h-.36a.42.42,0,0,1-.46-.48v-5.27c0-1.5-.25-2.83-2.09-2.83a3.7,3.7,0,0,0-3.63,3.9v4.2a.43.43,0,0,1-.46.48h-.36a.44.44,0,0,1-.48-.48Z"/><path class="cls-2" d="M582.74,113.45l.15-.19c.17-.22.38-.24.65-.07a4.16,4.16,0,0,0,2.53.87c1.06,0,1.94-.53,1.94-1.54,0-2.15-5.12-1.5-5.12-4.66,0-1.77,1.5-2.68,3.25-2.68a4.47,4.47,0,0,1,2.63.78.42.42,0,0,1,.13.63l-.13.21c-.16.26-.38.28-.65.13a3.57,3.57,0,0,0-2-.61c-1,0-1.89.44-1.89,1.49,0,2.2,5.1,1.5,5.1,4.69,0,1.58-1.33,2.7-3.23,2.7a5,5,0,0,1-3.24-1.1A.43.43,0,0,1,582.74,113.45Z"/><path class="cls-2" d="M591.2,105.88a.41.41,0,0,1,.45-.47H592a.43.43,0,0,1,.47.47v5.27c0,1.51.23,2.84,2.07,2.84a3.72,3.72,0,0,0,3.54-4v-4.11a.43.43,0,0,1,.48-.47h.36a.42.42,0,0,1,.46.47v8.62a.43.43,0,0,1-.46.48h-.34a.42.42,0,0,1-.46-.48v-1.1a4,4,0,0,1,.06-.69h0a4.15,4.15,0,0,1-3.77,2.49c-2.26,0-3.19-1.21-3.19-3.71Z"/><path class="cls-2" d="M602.2,105.88a.43.43,0,0,1,.47-.47H603a.42.42,0,0,1,.45.47v1.3a4.2,4.2,0,0,1-.07.76h0a3.42,3.42,0,0,1,3.08-2.59c.35,0,.5.15.5.46v.34a.47.47,0,0,1-.53.48c-2,0-3,2.3-3,4.29v3.58a.42.42,0,0,1-.46.48h-.36a.43.43,0,0,1-.47-.48Z"/><path class="cls-2" d="M613.59,109.12h.56v-.31a2.14,2.14,0,0,0-2.36-2.47,4.44,4.44,0,0,0-2.32.67.45.45,0,0,1-.65-.16l-.11-.19a.42.42,0,0,1,.13-.64,5.76,5.76,0,0,1,3-.84c2.28,0,3.56,1.28,3.56,3.67v5.65a.42.42,0,0,1-.46.48h-.3a.43.43,0,0,1-.48-.48v-.76a3.79,3.79,0,0,1,.06-.72h0A3.55,3.55,0,0,1,611,115.2c-1.62,0-3.23-1-3.23-2.79C607.76,109.29,611.75,109.12,613.59,109.12Zm-2.37,5c1.84,0,2.93-1.9,2.93-3.58v-.45h-.54c-1.5,0-4.52,0-4.52,2.2A1.91,1.91,0,0,0,611.22,114.12Z"/><path class="cls-2" d="M618.15,105.88a.43.43,0,0,1,.48-.47H619a.42.42,0,0,1,.46.47V107a2.93,2.93,0,0,1-.08.68h0a4.22,4.22,0,0,1,3.86-2.49c2.38,0,3.21,1.35,3.21,3.71v5.61a.43.43,0,0,1-.47.48h-.36a.42.42,0,0,1-.46-.48v-5.27c0-1.5-.25-2.83-2.09-2.83a3.7,3.7,0,0,0-3.63,3.9v4.2a.43.43,0,0,1-.46.48h-.36a.44.44,0,0,1-.48-.48Z"/><path class="cls-2" d="M633.62,105.18a4.94,4.94,0,0,1,3.17,1.09.4.4,0,0,1,.06.64l-.13.21c-.17.27-.38.27-.65.1a3.9,3.9,0,0,0-2.42-.88,3.85,3.85,0,0,0,0,7.7,4.15,4.15,0,0,0,2.7-1,.38.38,0,0,1,.63.11l.14.19a.47.47,0,0,1-.12.65,5.29,5.29,0,0,1-3.4,1.21,5,5,0,1,1,0-10Z"/><path class="cls-2" d="M643,105.18c2.54,0,4,1.85,4,4.57a.48.48,0,0,1-.5.47h-6.88a3.64,3.64,0,0,0,3.71,3.82,4.12,4.12,0,0,0,2.51-.87.4.4,0,0,1,.63.11l.15.23a.46.46,0,0,1-.13.63,5.5,5.5,0,0,1-3.2,1.06,4.83,4.83,0,0,1-5-5A4.67,4.67,0,0,1,643,105.18Zm2.68,4.07c-.08-2-1.3-3-2.72-3a3.29,3.29,0,0,0-3.29,3Z"/><path class="cls-2" d="M573.75,119.21a7.6,7.6,0,0,1,4.42,1.35.76.76,0,0,1,.15,1.11l-.34.55c-.27.44-.63.47-1.09.19a5.61,5.61,0,0,0-3-1,4.36,4.36,0,0,0-4.53,4.64,4.53,4.53,0,0,0,4.55,4.83,5.65,5.65,0,0,0,3.31-1.18.69.69,0,0,1,1.1.13l.38.52a.74.74,0,0,1-.11,1.1,7.6,7.6,0,0,1-4.78,1.67,7,7,0,0,1,0-14Z"/><path class="cls-2" d="M585.72,127h.4v-.22a1.58,1.58,0,0,0-1.81-1.71,4.37,4.37,0,0,0-2,.55.71.71,0,0,1-1.06-.33l-.19-.36a.7.7,0,0,1,.3-1.06,6.81,6.81,0,0,1,3.18-.8c2.51,0,4,1.41,4,3.86v5.27a.71.71,0,0,1-.8.8h-.64a.7.7,0,0,1-.78-.8v-.38a2.37,2.37,0,0,1,0-.42h0a3.55,3.55,0,0,1-3,1.82,3,3,0,0,1-3.21-2.91C580.05,127.43,583.55,127,585.72,127Zm-1.81,4.38a2.46,2.46,0,0,0,2.22-2.55v-.36h-.39c-1.22,0-3.3.19-3.3,1.63A1.32,1.32,0,0,0,583.91,131.33Z"/><path class="cls-2" d="M590.81,124.05a.71.71,0,0,1,.78-.8h.75a.71.71,0,0,1,.78.8v.58a3,3,0,0,1,0,.44h0a3.71,3.71,0,0,1,3.17-2,2.69,2.69,0,0,1,2.84,2h0a3.85,3.85,0,0,1,3.31-2c2,0,3.18,1.14,3.18,3.69v5.44a.72.72,0,0,1-.8.8H604a.71.71,0,0,1-.8-.8v-5c0-1.1-.21-1.94-1.33-1.94-1.63,0-2.47,1.68-2.47,3.37v3.56a.7.7,0,0,1-.78.8h-.84a.72.72,0,0,1-.8-.8v-5c0-1-.15-1.94-1.29-1.94-1.71,0-2.51,1.75-2.51,3.37v3.56a.7.7,0,0,1-.78.8h-.84a.7.7,0,0,1-.78-.8Z"/><path class="cls-2" d="M608,124.05a.72.72,0,0,1,.8-.8h.61c.51,0,.78.28.78.66v.44a3.63,3.63,0,0,1,0,.38h0a3.47,3.47,0,0,1,3.12-1.71c2.62,0,4.31,2.07,4.31,5.08s-1.9,5.07-4.45,5.07a3.15,3.15,0,0,1-2.79-1.48h0a5.34,5.34,0,0,1,.06.84V136a.71.71,0,0,1-.8.8h-.82a.72.72,0,0,1-.8-.8Zm4.76,7.09c1.33,0,2.43-1.09,2.43-3s-1-3-2.4-3c-1.25,0-2.45.91-2.45,3.06C610.3,129.66,611.14,131.14,612.72,131.14Z"/><path class="cls-2" d="M623.84,123c2.76,0,4.3,2,4.3,4.62a.84.84,0,0,1-.84.82h-5.91a2.78,2.78,0,0,0,2.91,2.66,4,4,0,0,0,2.09-.63c.48-.23.82-.17,1.07.27l.22.38a.71.71,0,0,1-.26,1.06,6.14,6.14,0,0,1-3.29,1,5,5,0,0,1-5.21-5.07A4.78,4.78,0,0,1,623.84,123Zm1.9,4a2,2,0,0,0-2-2.15,2.36,2.36,0,0,0-2.34,2.15Z"/><path class="cls-2" d="M630,124.05a.7.7,0,0,1,.78-.8h.74a.72.72,0,0,1,.8.8V125a3.76,3.76,0,0,1-.06.66h0a3.32,3.32,0,0,1,2.81-2.45c.54,0,.73.27.73.8v.74a.74.74,0,0,1-.82.8c-1.77,0-2.63,1.75-2.63,3.52v3.12a.7.7,0,0,1-.78.8h-.83a.7.7,0,0,1-.78-.8Z"/><path class="cls-2" d="M643.82,119.21a7.6,7.6,0,0,1,4.42,1.35.75.75,0,0,1,.15,1.11l-.34.55c-.27.44-.63.47-1.09.19a5.61,5.61,0,0,0-3-1,4.36,4.36,0,0,0-4.53,4.64,4.53,4.53,0,0,0,4.55,4.83,5.65,5.65,0,0,0,3.31-1.18.69.69,0,0,1,1.1.13l.38.52a.73.73,0,0,1-.11,1.1,7.57,7.57,0,0,1-4.78,1.67,7,7,0,0,1,0-14Z"/><path class="cls-2" d="M655.79,127h.4v-.22a1.58,1.58,0,0,0-1.81-1.71,4.37,4.37,0,0,0-2,.55.71.71,0,0,1-1.06-.33l-.19-.36a.7.7,0,0,1,.3-1.06,6.81,6.81,0,0,1,3.18-.8c2.51,0,4,1.41,4,3.86v5.27a.71.71,0,0,1-.8.8h-.64a.7.7,0,0,1-.78-.8v-.38a2.37,2.37,0,0,1,0-.42h0a3.55,3.55,0,0,1-3,1.82,3,3,0,0,1-3.21-2.91C650.12,127.43,653.62,127,655.79,127ZM654,131.33a2.47,2.47,0,0,0,2.23-2.55v-.36h-.4c-1.22,0-3.29.19-3.29,1.63A1.32,1.32,0,0,0,654,131.33Z"/><path class="cls-2" d="M660.89,124.05a.7.7,0,0,1,.78-.8h.74a.72.72,0,0,1,.8.8V125a3.76,3.76,0,0,1-.06.66h0a3.32,3.32,0,0,1,2.81-2.45c.53,0,.72.27.72.8v.74a.73.73,0,0,1-.81.8c-1.77,0-2.63,1.75-2.63,3.52v3.12a.7.7,0,0,1-.78.8h-.83a.7.7,0,0,1-.78-.8Z"/><path class="cls-2" d="M672.22,123c2.76,0,4.3,2,4.3,4.62a.84.84,0,0,1-.84.82h-5.91a2.78,2.78,0,0,0,2.91,2.66,4,4,0,0,0,2.09-.63c.47-.23.82-.17,1.06.27l.23.38a.72.72,0,0,1-.26,1.06,6.14,6.14,0,0,1-3.29,1,5,5,0,0,1-5.21-5.07A4.78,4.78,0,0,1,672.22,123Zm1.9,4a2,2,0,0,0-2-2.15,2.37,2.37,0,0,0-2.34,2.15Z"/><path class="cls-2" d="M522,126.88a1.38,1.38,0,0,1-.62-.15,1.33,1.33,0,0,1-.66-1.61l14.08-43.33a3,3,0,0,1,2.86-2.07h0a3,3,0,0,1,2.86,2.07l2.85,8.59a1,1,0,0,1-1.94.64l-2.85-8.59a.94.94,0,0,0-.92-.68h0a.94.94,0,0,0-.92.67L524.05,121.6,542,97.06a5.6,5.6,0,0,1,4.5-2.28h11.95a3,3,0,0,1,1.77,5.44l-10.93,7.93a1.14,1.14,0,0,1-.11.11l4.22,13a3,3,0,0,1-4.63,3.36l-9.44-6.87a3,3,0,0,1,0-4.86l7.92-5.74.12-.1L559,98.57a1,1,0,0,0,.35-1.09.94.94,0,0,0-.92-.66H546.48a3.53,3.53,0,0,0-2.85,1.45l-20.51,28.06A1.33,1.33,0,0,1,522,126.88Zm25.38-17.37-6.91,5a1,1,0,0,0-.4.78,1,1,0,0,0,.4.78L550,123a1,1,0,0,0,1.14,0,1,1,0,0,0,.35-1.08Z"/><path class="cls-2" d="M522.77,105.34a1,1,0,0,1-.59-.18l-7-4.94A3,3,0,0,1,517,94.78h8.54a1,1,0,0,1,0,2H517a.93.93,0,0,0-.92.66,1,1,0,0,0,.35,1.09l7,4.92a1,1,0,0,1-.59,1.85Z"/><path class="cls-2" d="M532.25,141.26a3.29,3.29,0,0,1-1.63-.43l-17.81-10.1a1,1,0,0,1-.51-.89V108.11a1,1,0,0,1,2,0v21.14l17.28,9.81a1.28,1.28,0,0,0,1.31,0l12.63-7.91a1,1,0,0,1,1.08,1.73L534,140.76A3.38,3.38,0,0,1,532.25,141.26Z"/><rect class="cls-3" width="970" height="250"/></svg>