<svg id="Layer_1" data-name="Layer 1" xmlns="http://www.w3.org/2000/svg" xmlns:xlink="http://www.w3.org/1999/xlink" viewBox="0 0 300 250"><defs><style>.cls-1{fill:none;}.cls-2{clip-path:url(#clip-path);}.cls-3{fill:#263845;}</style><clipPath id="clip-path"><rect class="cls-1" width="300" height="250"/></clipPath></defs><title>Artboard 8 copy</title><g class="cls-2"><path class="cls-3" d="M33.67,36.47l.22.34.23,11.76a2.44,2.44,0,0,0,2.74,2.35v.17H30.7v-.17a2.45,2.45,0,0,0,2.74-2.35ZM48.51,51.09H45.4L33.7,33.64a3,3,0,0,0-3-1.42v-.17H38.2L48.51,47.48Zm-.06-6.44-.22-.31-.34-9.77a2.44,2.44,0,0,0-2.74-2.35v-.17h6.16v.17a2.45,2.45,0,0,0-2.75,2.35Z"/><path class="cls-3" d="M63.82,32.05h5.35l-11.11,19H52.74Zm-10.27,0H62l-.08.17a8.63,8.63,0,0,0-8.15,6.58h-.22ZM60,50.92a9.58,9.58,0,0,0,8.74-7.48h.22v7.65h-9Z"/><path class="cls-3" d="M77,32.94c0,1.63-1.73,3.78-4.53,4.93l-.09-.25A3.88,3.88,0,0,0,74,34.9a1.75,1.75,0,0,0-1.9-1.84,2.58,2.58,0,0,1,2.66-2.55A2.25,2.25,0,0,1,77,32.94Z"/><path class="cls-3" d="M82.72,47.76a1.42,1.42,0,0,0-1.56,1.4c0,.81.56,1.84,2.49,2v.17c-3.73-.14-5.77-1.15-5.77-2.77a2.19,2.19,0,0,1,2.38-2.08A2.85,2.85,0,0,1,82.72,47.76ZM83.65,37c-1,.19-2.05.72-2,1.87.09,3.25,9.16,3.78,9.16,8.23,0,2.72-2.3,4.15-5.91,4.29V51.2c1.18-.2,2.49-.62,2.49-2.07,0-2.91-9.18-4-9.18-8.23,0-2.47,2.32-3.95,5.46-4.09Zm6.61,2.71a1.84,1.84,0,0,1-2.08,1.74,2.42,2.42,0,0,1-2.38-1.35,1.24,1.24,0,0,0,1.26-1.31c0-.84-1.06-1.65-2.18-1.79v-.17C88,37,90.26,38.12,90.26,39.69Z"/><path class="cls-3" d="M99.61,31.6a17.19,17.19,0,0,0,6.69-1.09v19c0,.7.42,1.43,2.1,1.43v.17H99.58v-.17c1.68,0,2.1-.73,2.1-1.43V33.25c0-1-.48-1.48-2.07-1.48Z"/><path class="cls-3" d="M110.08,44a6.93,6.93,0,0,1,6.86-7.22V37c-1.65.19-2.1,1.59-2.1,6.94,0,4,1.79,6.24,4.28,6.24a6.06,6.06,0,0,0,4.09-1.48v.17a7.82,7.82,0,0,1-5.93,2.52A7.1,7.1,0,0,1,110.08,44Zm6.3-1.17c2.46,0,3.5-.79,3.5-3.14,0-1.34-.56-2.58-1.82-2.74v-.17c3.7,0,5.49,2.63,5.49,4.76a8.59,8.59,0,0,1-.14,1.45h-7Z"/><path class="cls-3" d="M125.56,47.78c0-2.43,2.24-3.8,5.38-3.8h3v.16h-.84a2.78,2.78,0,0,0-3,3.06c0,1.54.45,2.71,1.77,2.71a3.06,3.06,0,0,0,2-1v.17a6,6,0,0,1-4.45,2.27C127.13,51.37,125.54,50,125.56,47.78Zm1.12-7.92c0-1.43,1.29-2.88,5.1-3V37A2,2,0,0,0,130,39c0,1,.7,1.62,1.82,1.71a3.16,3.16,0,0,1-2.69,1.34A2.24,2.24,0,0,1,126.68,39.86Zm8.12,8.34V39.64c0-1.38-.53-2.47-1.9-2.66v-.17c4.65.17,6.5,1.93,6.5,5.6v6.8c0,.81.27,1.15.78,1.15s.89-.42,1.34-1.26h.17c-.45,1.54-2,2.27-3.64,2.27C135.81,51.37,134.8,50.58,134.8,48.2Z"/><path class="cls-3" d="M153,39.05v.22a3.07,3.07,0,0,0-2.32-1c-1.4,0-2.75.64-2.75,5.71s1.43,6,2.75,6a3.87,3.87,0,0,0,2.32-1v.17a5.18,5.18,0,0,1-4.06,2.27c-2.66,0-5.77-1.57-5.77-7.42,0-5.57,3.06-7.14,5.77-7.14A5.15,5.15,0,0,1,153,39.05Zm5.46,10.16c0,.81.25,1.15.76,1.15s.89-.42,1.34-1.26h.17c-.45,1.54-2,2.27-3.64,2.27-2.24,0-3.25-.79-3.25-3.17v-15c0-1-.47-1.48-2.07-1.48V31.6a18.39,18.39,0,0,0,6.69-1.09Z"/><path class="cls-3" d="M161.91,37.87a17.19,17.19,0,0,0,6.69-1.09V49.49c0,.7.42,1.43,2.1,1.43v.17h-8.82v-.17c1.68,0,2.1-.73,2.1-1.43v-10c0-1-.48-1.48-2.07-1.48Zm1.42-5.26c0-1.46,1.18-2.44,2.86-2.44s2.86,1,2.86,2.44-1.18,2.46-2.86,2.46S163.33,34.09,163.33,32.61Z"/><path class="cls-3" d="M171.87,50.92c1.68,0,2.1-.73,2.1-1.43V39.55c0-1-.47-1.48-2.07-1.48V37.9a17.12,17.12,0,0,0,6.69-1.09V49.49c0,.7.42,1.43,2.1,1.43v.17h-8.82Zm9.86,0c1.65,0,2.07-.73,2.07-1.43V40.76c0-1.57-.81-2.38-2.21-2.38a3,3,0,0,0-2.13.86v-.16a5.72,5.72,0,0,1,4.65-2.27c2.52,0,4.31,1.17,4.31,3.95v8.73c0,.7.42,1.43,2.1,1.43v.17h-8.79Z"/><path class="cls-3" d="M192.17,41.88c0-3.64,3.42-5,6.28-5.07V37c-1.21.11-1.77,1.56-1.77,4.81s.56,4.76,1.77,4.87v.17C195.62,46.83,192.17,45.49,192.17,41.88Zm7.45,16c2.8-.34,3.7-1.85,3.7-2.86,0-3.89-10.92-.42-10.92-5.43a3.3,3.3,0,0,1,1.87-2.85l.09.14a.63.63,0,0,0-.25.53c0,3.13,12.76-.51,12.76,5.6,0,2.88-2.49,4.76-7.25,5Zm-7.22-2.35c0-1.65,2-2.16,4.25-2.16a2.37,2.37,0,0,0-1.2,2c0,1.29,1.46,2.27,3.05,2.52v.17C195.51,58,192.4,57.42,192.4,55.57Zm7.22-8.91c1.37-.11,1.93-1.48,1.93-4.87s-.58-4.7-1.93-4.81v-.17c3,0,6.41,1.43,6.41,5.07s-3.44,4.95-6.41,4.95Zm1.51-10.36c.48-1.42,1.77-3.36,3.7-3.36,1.48,0,2.38.79,2.38,2.13a2.24,2.24,0,0,1-2.27,2.19c0-1.18-.61-1.88-1.51-1.88a3,3,0,0,0-2.16,1Z"/><path class="cls-3" d="M40.19,80.92v.17h-9v-.17c1.68,0,2.1-.67,2.1-1.43V63.62c0-.82-.42-1.4-2.1-1.4v-.17h6.86V79.49C38.06,80.25,38.48,80.92,40.19,80.92ZM51.11,79.1c-.45,1.54-2.1,2.27-4.14,2.27-3.64,0-4.48-2.52-4.65-4.87s-.39-4.09-2.86-4.46v-.16c2.58,0,3.73-2.24,3.73-5,0-3.14-1.15-4.62-3.73-4.62v-.17c5.69,0,8.49,1.26,8.49,4.79,0,3-2.24,4.87-6.41,5.12,5.09.22,5.88,2.21,6.16,4.54s.89,3.86,1.84,3.86c.51,0,1-.42,1.4-1.26Z"/><path class="cls-3" d="M51.56,63.67A2.3,2.3,0,0,0,49,62.22v-.17H59.15v.17c-1.29,0-2.44.84-1.74,2.29L62.7,75.66l-2.54,5.71h-.31Zm12.21,9.41c1.62-3.75,2-6,2-7.81a3.06,3.06,0,0,0-3.2-3v-.17h8.07v.11c-1.29,0-2.07,1.2-3,3.11l-3.81,8.06Z"/><path class="cls-3" d="M76.73,67.87a17.12,17.12,0,0,0,6.69-1.09V79.49c0,.7.42,1.43,2.1,1.43v.17H76.7v-.17c1.68,0,2.1-.73,2.1-1.43v-10c0-1-.47-1.48-2.07-1.48Zm1.43-5.26c0-1.46,1.18-2.44,2.86-2.44s2.85,1,2.85,2.44S82.7,65.07,81,65.07,78.16,64.09,78.16,62.61Z"/><path class="cls-3" d="M86.7,80.92c1.68,0,2.1-.73,2.1-1.43V69.55c0-1-.48-1.48-2.07-1.48V67.9a17.19,17.19,0,0,0,6.69-1.09V79.49c0,.7.42,1.43,2.1,1.43v.17H86.7Zm9.86,0c1.65,0,2.07-.73,2.07-1.43V70.76c0-1.57-.81-2.38-2.21-2.38a3,3,0,0,0-2.13.86v-.16a5.69,5.69,0,0,1,4.65-2.27c2.52,0,4.31,1.17,4.31,4v8.73c0,.7.42,1.43,2.1,1.43v.17H96.56Z"/><path class="cls-3" d="M111.73,77.76a1.43,1.43,0,0,0-1.57,1.4c0,.81.56,1.84,2.5,2v.17c-3.73-.14-5.77-1.15-5.77-2.77a2.19,2.19,0,0,1,2.38-2.08A2.85,2.85,0,0,1,111.73,77.76ZM112.66,67c-1,.19-2,.72-2,1.87.08,3.25,9.15,3.78,9.15,8.23,0,2.72-2.29,4.15-5.9,4.29V81.2c1.17-.2,2.49-.62,2.49-2.07,0-2.91-9.18-4-9.18-8.23,0-2.47,2.32-4,5.46-4.09Zm6.6,2.71a1.83,1.83,0,0,1-2.07,1.74,2.42,2.42,0,0,1-2.38-1.35,1.24,1.24,0,0,0,1.26-1.31c0-.84-1.06-1.65-2.18-1.79v-.17C117.05,67,119.26,68.12,119.26,69.69Z"/><path class="cls-3" d="M128.06,77.42c0,1.57.53,2.38,1.93,2.38a2.45,2.45,0,0,0,1.93-.87v.17a4.68,4.68,0,0,1-4.34,2.27c-2.52,0-4.14-1.18-4.14-4V69.55c0-1-.48-1.48-2.08-1.48V67.9a17.21,17.21,0,0,0,6.7-1.09Zm9.32,1.79c0,.81.25,1.15.76,1.15s.89-.42,1.34-1.26h.17c-.45,1.54-2,2.27-3.81,2.27s-3.08-1.12-3.08-2.75V69.55c0-1-.48-1.48-2-1.48V67.9a18.25,18.25,0,0,0,6.61-1.09Z"/><path class="cls-3" d="M147.49,79.49c0,.7.42,1.43,2.1,1.43v.17h-8.82v-.17c1.68,0,2.1-.73,2.1-1.43V69.55c0-1-.48-1.48-2.08-1.48V67.9a17.21,17.21,0,0,0,6.7-1.09Zm7.56-9.66A3,3,0,0,1,152.16,73a1.88,1.88,0,0,1-1.59-.61,2.05,2.05,0,0,0,1.09-1.91A1.49,1.49,0,0,0,150.09,69a1.91,1.91,0,0,0-1.68,1.07v-.23a3.87,3.87,0,0,1,3.64-3A2.84,2.84,0,0,1,155.05,69.83Z"/><path class="cls-3" d="M156.25,77.78c0-2.43,2.24-3.8,5.38-3.8h3v.16h-.84a2.78,2.78,0,0,0-3,3.06c0,1.54.45,2.71,1.77,2.71a3.06,3.06,0,0,0,2-1v.17a6,6,0,0,1-4.45,2.27C157.82,81.37,156.22,80,156.25,77.78Zm1.12-7.92c0-1.43,1.29-2.88,5.1-3V67a2,2,0,0,0-1.8,2c0,1,.7,1.62,1.83,1.71a3.17,3.17,0,0,1-2.69,1.34A2.24,2.24,0,0,1,157.37,69.86Zm8.12,8.34V69.64c0-1.38-.53-2.47-1.9-2.66v-.17c4.64.17,6.49,1.93,6.49,5.6v6.8c0,.81.28,1.15.79,1.15s.89-.42,1.34-1.26h.17c-.45,1.54-2,2.27-3.64,2.27C166.5,81.37,165.49,80.58,165.49,78.2Z"/><path class="cls-3" d="M173.25,80.92c1.68,0,2.1-.73,2.1-1.43V69.55c0-1-.48-1.48-2.08-1.48V67.9a17.21,17.21,0,0,0,6.7-1.09V79.49c0,.7.42,1.43,2.1,1.43v.17h-8.82Zm9.85,0c1.65,0,2.07-.73,2.07-1.43V70.76c0-1.57-.81-2.38-2.21-2.38a3,3,0,0,0-2.13.86v-.16a5.72,5.72,0,0,1,4.65-2.27c2.52,0,4.31,1.17,4.31,4v8.73c0,.7.42,1.43,2.1,1.43v.17H183.1Z"/><path class="cls-3" d="M200.57,67c-1.65.19-2.38,1.59-2.38,6.94,0,4,2.05,6.24,4.54,6.24a6.08,6.08,0,0,0,4.09-1.48v.17a7.86,7.86,0,0,1-5.94,2.52A7.32,7.32,0,0,1,193.41,74a7.17,7.17,0,0,1,7.16-7.22Zm6.22,3a2.6,2.6,0,0,1-2.8,2.69,2.4,2.4,0,0,1-2.44-1.76,2.42,2.42,0,0,0,1.35-2.05A1.67,1.67,0,0,0,201.69,67v-.19C205.36,66.81,206.79,68.38,206.79,70Z"/><path class="cls-3" d="M208.89,74a6.93,6.93,0,0,1,6.86-7.22V67c-1.65.19-2.1,1.59-2.1,6.94,0,4,1.79,6.24,4.28,6.24A6.06,6.06,0,0,0,222,78.68v.17a7.82,7.82,0,0,1-5.93,2.52A7.1,7.1,0,0,1,208.89,74Zm6.3-1.17c2.46,0,3.5-.79,3.5-3.14,0-1.34-.56-2.58-1.82-2.74v-.17c3.7,0,5.49,2.63,5.49,4.76a8.59,8.59,0,0,1-.14,1.45h-7Z"/><path class="cls-3" d="M37.14,115.34c0,1,.48,1.49,2.07,1.49V117a18.39,18.39,0,0,0-6.69,1.09V99.52c0-1-.48-1.48-2.07-1.48v-.17a18.39,18.39,0,0,0,6.69-1.09ZM47.81,104c0,5.85-3.08,7.42-5.74,7.42A5.24,5.24,0,0,1,38,109.1v-.17a4,4,0,0,0,2.35,1c1.32,0,2.72-.92,2.72-6s-1.32-5.71-2.72-5.71a3.13,3.13,0,0,0-2.35,1v-.22a5.21,5.21,0,0,1,4.09-2.24C44.78,96.81,47.81,98.38,47.81,104Z"/><path class="cls-3" d="M57.24,97c-1.65.19-2.21,1.59-2.21,7,0,5.27.56,7,2.21,7.17v.17a7.13,7.13,0,0,1-7-7.34,7,7,0,0,1,7-7.22Zm8.07,7a7.14,7.14,0,0,1-7,7.34v-.17c1.66-.17,2.19-1.93,2.19-7.17,0-5.49-.56-6.89-2.19-7v-.17A7,7,0,0,1,65.31,104Z"/><path class="cls-3" d="M67,91.6a17.19,17.19,0,0,0,6.69-1.09v19c0,.7.42,1.43,2.1,1.43v.17H67v-.17c1.68,0,2.1-.73,2.1-1.43V93.25c0-1-.48-1.48-2.07-1.48Z"/><path class="cls-3" d="M77,97.87a17.19,17.19,0,0,0,6.69-1.09v12.71c0,.7.42,1.43,2.1,1.43v.17H77v-.17c1.68,0,2.1-.73,2.1-1.43v-10c0-1-.47-1.48-2.07-1.48Zm1.43-5.26c0-1.46,1.17-2.44,2.85-2.44s2.86,1,2.86,2.44S83,95.07,81.32,95.07,78.47,94.09,78.47,92.61Z"/><path class="cls-3" d="M94.68,97c-1.65.19-2.38,1.59-2.38,6.94,0,4,2,6.24,4.53,6.24a6.06,6.06,0,0,0,4.09-1.48v.17A7.82,7.82,0,0,1,95,111.37,7.32,7.32,0,0,1,87.51,104a7.17,7.17,0,0,1,7.17-7.22Zm6.22,3a2.6,2.6,0,0,1-2.81,2.69,2.38,2.38,0,0,1-2.43-1.76A2.43,2.43,0,0,0,97,98.85,1.67,1.67,0,0,0,95.8,97v-.19C99.47,96.81,100.9,98.38,100.9,100Z"/><path class="cls-3" d="M103.22,98.24a1.51,1.51,0,0,0-1.54-1v-.17h7.84v.17c-1,0-1.37.67-.9,1.65l3.67,7.64-2.41,4.54h-.17ZM102,115.6a2.93,2.93,0,0,1,2.46-2.64,2.31,2.31,0,0,0-.11.7,1.64,1.64,0,0,0,1.65,1.88c1,0,1.76-1,2.83-2.83H109c-1.54,2.89-2.6,5.38-4.56,5.38A2.33,2.33,0,0,1,102,115.6Zm11.48-11.79a7.76,7.76,0,0,0,.78-3.61,2.71,2.71,0,0,0-2.85-2.94v-.17h7v.17c-.93,0-1.29.36-1.82,1.31l-2.92,5.49Z"/></g></svg>