<?xml version="1.0" encoding="utf-8"?>
<!-- Generator: Adobe Illustrator 24.0.3, SVG Export Plug-In . SVG Version: 6.00 Build 0)  -->
<svg version="1.1" id="Layer_1" xmlns="http://www.w3.org/2000/svg" xmlns:xlink="http://www.w3.org/1999/xlink" x="0px" y="0px"
	 viewBox="0 0 300 250" style="enable-background:new 0 0 300 250;" xml:space="preserve">
<style type="text/css">
	.st0{clip-path:url(#SVGID_2_);}
	.st1{enable-background:new    ;}
	.st2{fill:#263845;}
</style>
<title>Artboard 8 copy</title>
<g>
	<defs>
		<rect id="SVGID_1_" y="0" width="300" height="250"/>
	</defs>
	<clipPath id="SVGID_2_">
		<use xlink:href="#SVGID_1_"  style="overflow:visible;"/>
	</clipPath>
	<g class="st0">
		<g class="st1">
			<path class="st2" d="M22.8,34.4l0.3,0.4l0.3,13.4c0,1.4,1,2.7,3.1,2.7v0.2h-7v-0.2c2.1,0,3.1-1.3,3.1-2.7L22.8,34.4z M39.8,51.1
				h-3.6L22.8,31.2c-0.8-1.2-1.8-1.6-3.4-1.6v-0.2H28L39.8,47V51.1z M39.7,43.7l-0.3-0.4l-0.4-11.2c0-1.4-1-2.7-3.1-2.7v-0.2h7v0.2
				c-2.1,0-3.1,1.3-3.1,2.7L39.7,43.7z"/>
			<path class="st2" d="M57.3,29.3h6.1L50.7,51.1h-6.1L57.3,29.3z M45.5,29.3h9.7l-0.1,0.2c-4.7,0.3-8.5,3.5-9.3,7.5h-0.3V29.3z
				 M52.9,50.9c4.8-0.4,8.7-3.4,10-8.5h0.3v8.7H52.8L52.9,50.9z"/>
		</g>
		<g class="st1">
			<path class="st2" d="M72.3,30.4c0,1.9-2,4.3-5.2,5.6L67,35.7c0.9-0.7,1.8-2,1.8-3.1c0-1.4-1-2.1-2.2-2.1c0.3-1.9,1.4-2.9,3-2.9
				C71.1,27.6,72.3,28.6,72.3,30.4z"/>
		</g>
		<g class="st1">
			<path class="st2" d="M78.9,47.3c-1.1,0-1.8,0.6-1.8,1.6c0,0.9,0.6,2.1,2.8,2.3v0.2c-4.3-0.2-6.6-1.3-6.6-3.2
				c0-1.5,1.3-2.4,2.7-2.4C77.3,45.9,78.4,46.5,78.9,47.3z M79.9,35c-1.2,0.2-2.3,0.8-2.3,2.1c0.1,3.7,10.5,4.3,10.5,9.4
				c0,3.1-2.6,4.7-6.8,4.9v-0.2c1.3-0.2,2.8-0.7,2.8-2.4c0-3.3-10.5-4.5-10.5-9.4c0-2.8,2.7-4.5,6.2-4.7V35z M87.5,38.1
				c0,1-0.8,2-2.4,2c-1.3,0-2.3-0.6-2.7-1.5c1-0.1,1.5-0.7,1.4-1.5c0-1-1.2-1.9-2.5-2v-0.2C85,35,87.5,36.3,87.5,38.1z"/>
			<path class="st2" d="M98.2,28.8c3,0,5.4-0.3,7.6-1.2v21.7c0,0.8,0.5,1.6,2.4,1.6v0.2H98.1v-0.2c1.9,0,2.4-0.8,2.4-1.6V30.7
				c0-1.2-0.5-1.7-2.4-1.7V28.8z"/>
			<path class="st2" d="M110.1,43c0-5.4,4.1-8.2,7.8-8.3V35c-1.9,0.2-2.4,1.8-2.4,7.9c0,4.6,2,7.1,4.9,7.1c1.8,0,3.2-0.5,4.7-1.7
				v0.2c-1.7,2.1-4.7,2.9-6.8,2.9C114.3,51.4,110.1,48.4,110.1,43z M117.3,41.7c2.8,0,4-0.9,4-3.6c0-1.5-0.6-2.9-2.1-3.1v-0.2
				c4.2,0,6.3,3,6.3,5.4c0,0.5-0.1,1.2-0.2,1.7h-8V41.7z"/>
			<path class="st2" d="M127.8,47.3c0-2.8,2.6-4.4,6.1-4.4h3.5v0.2h-1c-2.3,0-3.4,1.5-3.4,3.5c0,1.8,0.5,3.1,2,3.1
				c0.9,0,1.6-0.5,2.3-1.1v0.2c-1.1,1.2-2.8,2.6-5.1,2.6C129.6,51.4,127.8,49.9,127.8,47.3z M129.1,38.3c0-1.6,1.5-3.3,5.8-3.5V35
				c-1.3,0.2-2,1.2-2,2.3c0,1.2,0.8,1.9,2.1,2c-0.5,0.9-1.8,1.5-3.1,1.5C130.1,40.8,129.1,39.6,129.1,38.3z M138.4,47.8V38
				c0-1.6-0.6-2.8-2.2-3v-0.2c5.3,0.2,7.4,2.2,7.4,6.4v7.8c0,0.9,0.3,1.3,0.9,1.3c0.5,0,1-0.5,1.5-1.4h0.2c-0.5,1.8-2.2,2.6-4.2,2.6
				C139.5,51.4,138.4,50.5,138.4,47.8z"/>
			<path class="st2" d="M159.2,37.3v0.3c-0.7-0.8-1.7-1.2-2.7-1.2c-1.6,0-3.1,0.7-3.1,6.5c0,5.8,1.6,6.8,3.1,6.8
				c1,0,1.9-0.5,2.7-1.1v0.2c-0.8,1.3-2.8,2.6-4.6,2.6c-3,0-6.6-1.8-6.6-8.5c0-6.4,3.5-8.2,6.6-8.2C156.4,34.8,158.4,36,159.2,37.3z
				 M165.4,48.9c0,0.9,0.3,1.3,0.9,1.3c0.5,0,1-0.5,1.5-1.4h0.2c-0.5,1.8-2.2,2.6-4.2,2.6c-2.6,0-3.7-0.9-3.7-3.6V30.7
				c0-1.2-0.5-1.7-2.4-1.7v-0.2c3,0,5-0.3,7.6-1.2V48.9z"/>
			<path class="st2" d="M169.4,36c3,0,5.4-0.3,7.6-1.2v14.5c0,0.8,0.5,1.6,2.4,1.6v0.2h-10.1v-0.2c1.9,0,2.4-0.8,2.4-1.6V37.9
				c0-1.2-0.5-1.7-2.4-1.7V36z M171,30c0-1.7,1.3-2.8,3.3-2.8s3.3,1.1,3.3,2.8c0,1.7-1.3,2.8-3.3,2.8S171,31.7,171,30z"/>
			<path class="st2" d="M180.8,50.9c1.9,0,2.4-0.8,2.4-1.6V37.9c0-1.2-0.5-1.7-2.4-1.7V36c3,0,5.4-0.3,7.6-1.2v14.5
				c0,0.8,0.5,1.6,2.4,1.6v0.2h-10.1V50.9z M192,50.9c1.9,0,2.4-0.8,2.4-1.6v-10c0-1.8-0.9-2.7-2.5-2.7c-0.9,0-1.7,0.3-2.4,1v-0.2
				c0.9-1.3,2.9-2.6,5.3-2.6c2.9,0,4.9,1.3,4.9,4.5v10c0,0.8,0.5,1.6,2.4,1.6v0.2h-10V50.9z"/>
			<path class="st2" d="M204,40.6c0-4.2,3.9-5.7,7.2-5.8V35c-1.4,0.1-2,1.8-2,5.5c0,3.9,0.6,5.4,2,5.6v0.2
				C207.9,46.2,204,44.7,204,40.6z M212.5,58.9c3.2-0.4,4.2-2.1,4.2-3.3c0-4.4-12.5-0.5-12.5-6.2c0-1.3,0.7-2.3,2.1-3.3l0.1,0.2
				c-0.2,0.1-0.3,0.4-0.3,0.6c0,3.6,14.6-0.6,14.6,6.4c0,3.3-2.8,5.4-8.3,5.8V58.9z M204.2,56.2c0-1.9,2.3-2.5,4.9-2.5
				c-0.6,0.3-1.4,1.2-1.4,2.3c0,1.5,1.7,2.6,3.5,2.9v0.2C207.8,59,204.2,58.3,204.2,56.2z M212.5,46c1.6-0.1,2.2-1.7,2.2-5.6
				c0-3.7-0.7-5.4-2.2-5.5v-0.2c3.4,0.1,7.3,1.6,7.3,5.8c0,4.1-3.9,5.7-7.3,5.7V46z M214.2,34.2c0.5-1.6,2-3.8,4.2-3.8
				c1.7,0,2.7,0.9,2.7,2.4c0,1.6-1.4,2.5-2.6,2.5c0-1.3-0.7-2.1-1.7-2.1c-1,0-2,0.6-2.5,1.2L214.2,34.2z"/>
		</g>
		<g class="st1">
			<path class="st2" d="M30.3,82.9v0.2H20v-0.2c1.9,0,2.4-0.8,2.4-1.6V63.1c0-0.9-0.5-1.6-2.4-1.6v-0.2h7.8v19.9
				C27.8,82.1,28.3,82.9,30.3,82.9z M42.7,80.8c-0.5,1.8-2.4,2.6-4.7,2.6c-4.2,0-5.1-2.9-5.3-5.6c-0.2-2.6-0.4-4.7-3.3-5.1v-0.2
				c2.9,0,4.3-2.6,4.3-5.8c0-3.6-1.3-5.3-4.3-5.3v-0.2c6.5,0,9.7,1.4,9.7,5.5c0,3.5-2.6,5.6-7.3,5.9c5.8,0.3,6.7,2.5,7,5.2
				c0.3,2.6,1,4.4,2.1,4.4c0.6,0,1.1-0.5,1.6-1.4H42.7z"/>
		</g>
		<g class="st1">
			<path class="st2" d="M43.3,63.2c-0.6-1.2-1.3-1.7-2.9-1.7v-0.2h11.6v0.2c-1.5,0-2.8,1-2,2.6l6,12.7l-2.9,6.5h-0.4L43.3,63.2z
				 M57.2,73.9c1.9-4.3,2.3-6.9,2.3-8.9c0-2.3-2-3.5-3.6-3.5v-0.2h9.2v0.1c-1.5,0-2.4,1.4-3.4,3.6l-4.4,9.2L57.2,73.9z"/>
		</g>
		<g class="st1">
			<path class="st2" d="M72,68c3,0,5.4-0.3,7.6-1.2v14.5c0,0.8,0.5,1.6,2.4,1.6v0.2H72v-0.2c1.9,0,2.4-0.8,2.4-1.6V69.9
				c0-1.2-0.5-1.7-2.4-1.7V68z M73.7,62c0-1.7,1.3-2.8,3.3-2.8s3.3,1.1,3.3,2.8c0,1.7-1.3,2.8-3.3,2.8S73.7,63.7,73.7,62z"/>
			<path class="st2" d="M83.4,82.9c1.9,0,2.4-0.8,2.4-1.6V69.9c0-1.2-0.5-1.7-2.4-1.7V68c3,0,5.4-0.3,7.6-1.2v14.5
				c0,0.8,0.5,1.6,2.4,1.6v0.2H83.4V82.9z M94.7,82.9c1.9,0,2.4-0.8,2.4-1.6v-10c0-1.8-0.9-2.7-2.5-2.7c-0.9,0-1.7,0.3-2.4,1v-0.2
				c0.9-1.3,2.9-2.6,5.3-2.6c2.9,0,4.9,1.3,4.9,4.5v10c0,0.8,0.5,1.6,2.4,1.6v0.2h-10V82.9z"/>
			<path class="st2" d="M112,79.3c-1.1,0-1.8,0.6-1.8,1.6c0,0.9,0.6,2.1,2.8,2.3v0.2c-4.3-0.2-6.6-1.3-6.6-3.2
				c0-1.5,1.3-2.4,2.7-2.4C110.5,77.9,111.5,78.5,112,79.3z M113.1,67c-1.2,0.2-2.3,0.8-2.3,2.1c0.1,3.7,10.5,4.3,10.5,9.4
				c0,3.1-2.6,4.7-6.8,4.9v-0.2c1.3-0.2,2.8-0.7,2.8-2.4c0-3.3-10.5-4.5-10.5-9.4c0-2.8,2.7-4.5,6.2-4.7V67z M120.6,70.1
				c0,1-0.8,2-2.4,2c-1.3,0-2.3-0.6-2.7-1.5c1-0.1,1.5-0.7,1.4-1.5c0-1-1.2-1.9-2.5-2v-0.2C118.1,67,120.6,68.3,120.6,70.1z"/>
			<path class="st2" d="M130.7,78.9c0,1.8,0.6,2.7,2.2,2.7c0.8,0,1.5-0.3,2.2-1v0.2c-0.7,1.4-2.4,2.6-5,2.6c-2.9,0-4.7-1.3-4.7-4.5
				v-9c0-1.2-0.5-1.7-2.4-1.7V68c3,0,5.4-0.3,7.6-1.2V78.9z M141.3,80.9c0,0.9,0.3,1.3,0.9,1.3c0.5,0,1-0.5,1.5-1.4h0.2
				c-0.5,1.8-2.2,2.6-4.4,2.6c-2.2,0-3.5-1.3-3.5-3.1V69.9c0-1.2-0.5-1.7-2.3-1.7V68c2.9,0,4.9-0.3,7.6-1.2V80.9z"/>
		</g>
		<g class="st1">
			<path class="st2" d="M152.9,81.3c0,0.8,0.5,1.6,2.4,1.6v0.2h-10.1v-0.2c1.9,0,2.4-0.8,2.4-1.6V69.9c0-1.2-0.5-1.7-2.4-1.7V68
				c3,0,5.4-0.3,7.6-1.2V81.3z M161.5,70.2c0,2.2-1.6,3.6-3.3,3.6c-0.8,0-1.4-0.2-1.8-0.7c0.6-0.3,1.2-1,1.2-2.2
				c0-0.9-0.7-1.7-1.8-1.7c-0.8,0-1.5,0.5-1.9,1.2v-0.3c0.6-2,2.2-3.5,4.2-3.5C160.3,66.8,161.5,68.3,161.5,70.2z"/>
		</g>
		<g class="st1">
			<path class="st2" d="M162.9,79.3c0-2.8,2.6-4.4,6.1-4.4h3.5v0.2h-1c-2.3,0-3.4,1.5-3.4,3.5c0,1.8,0.5,3.1,2,3.1
				c0.9,0,1.6-0.5,2.3-1.1v0.2c-1.1,1.2-2.8,2.6-5.1,2.6C164.7,83.4,162.9,81.9,162.9,79.3z M164.2,70.3c0-1.6,1.5-3.3,5.8-3.5V67
				c-1.3,0.2-2,1.2-2,2.3c0,1.2,0.8,1.9,2.1,2c-0.5,0.9-1.8,1.5-3.1,1.5C165.2,72.8,164.2,71.6,164.2,70.3z M173.5,79.8V70
				c0-1.6-0.6-2.8-2.2-3v-0.2c5.3,0.2,7.4,2.2,7.4,6.4v7.8c0,0.9,0.3,1.3,0.9,1.3c0.5,0,1-0.5,1.5-1.4h0.2c-0.5,1.8-2.2,2.6-4.2,2.6
				C174.6,83.4,173.5,82.5,173.5,79.8z"/>
			<path class="st2" d="M182.3,82.9c1.9,0,2.4-0.8,2.4-1.6V69.9c0-1.2-0.5-1.7-2.4-1.7V68c3,0,5.4-0.3,7.6-1.2v14.5
				c0,0.8,0.5,1.6,2.4,1.6v0.2h-10.1V82.9z M193.6,82.9c1.9,0,2.4-0.8,2.4-1.6v-10c0-1.8-0.9-2.7-2.5-2.7c-0.9,0-1.7,0.3-2.4,1v-0.2
				c0.9-1.3,2.9-2.6,5.3-2.6c2.9,0,4.9,1.3,4.9,4.5v10c0,0.8,0.5,1.6,2.4,1.6v0.2h-10V82.9z"/>
			<path class="st2" d="M213.6,67c-1.9,0.2-2.7,1.8-2.7,7.9c0,4.6,2.3,7.1,5.2,7.1c1.8,0,3.2-0.5,4.7-1.7v0.2
				c-1.7,2.1-4.7,2.9-6.8,2.9c-4.1,0-8.5-3-8.5-8.4s4.4-8.2,8.2-8.3V67z M220.7,70.4c0,1.7-1.2,3.1-3.2,3.1c-1.6,0-2.6-1-2.8-2
				c0.9-0.4,1.5-1.5,1.5-2.3c0-0.7-0.2-1.9-1.4-2.1v-0.2C219,66.8,220.7,68.6,220.7,70.4z"/>
			<path class="st2" d="M223.1,75c0-5.4,4.1-8.2,7.8-8.3V67c-1.9,0.2-2.4,1.8-2.4,7.9c0,4.6,2,7.1,4.9,7.1c1.8,0,3.2-0.5,4.7-1.7
				v0.2c-1.7,2.1-4.7,2.9-6.8,2.9C227.2,83.4,223.1,80.4,223.1,75z M230.3,73.7c2.8,0,4-0.9,4-3.6c0-1.5-0.6-2.9-2.1-3.1v-0.2
				c4.2,0,6.3,3,6.3,5.4c0,0.5-0.1,1.2-0.2,1.7h-8V73.7z"/>
		</g>
		<g class="st1">
			<path class="st2" d="M26.8,120c0,1.2,0.5,1.7,2.4,1.7v0.2c-3,0-5,0.3-7.6,1.2v-21.2c0-1.2-0.5-1.7-2.4-1.7V100c3,0,5-0.3,7.6-1.2
				V120z M39,106.9c0,6.7-3.5,8.5-6.6,8.5c-1.8,0-3.9-1.2-4.7-2.6v-0.2c0.8,0.6,1.7,1.1,2.7,1.1c1.5,0,3.1-1.1,3.1-6.8
				c0-5.8-1.5-6.5-3.1-6.5c-1,0-2,0.4-2.7,1.2v-0.3c0.8-1.3,2.8-2.6,4.7-2.6C35.5,98.8,39,100.6,39,106.9z"/>
			<path class="st2" d="M49.8,99c-1.9,0.2-2.5,1.8-2.5,8.1c0,6,0.6,8,2.5,8.2v0.2c-3.7,0-8-3-8-8.4s4.2-8.2,8-8.3V99z M59,107
				c0,5.3-4.3,8.4-7.9,8.4v-0.2c1.9-0.2,2.5-2.2,2.5-8.2c0-6.3-0.6-7.9-2.5-8.1v-0.2C54.7,98.8,59,101.6,59,107z"/>
			<path class="st2" d="M60.9,92.8c3,0,5.4-0.3,7.6-1.2v21.7c0,0.8,0.5,1.6,2.4,1.6v0.2H60.9v-0.2c1.9,0,2.4-0.8,2.4-1.6V94.7
				c0-1.2-0.5-1.7-2.4-1.7V92.8z"/>
			<path class="st2" d="M72.4,100c3,0,5.4-0.3,7.6-1.2v14.5c0,0.8,0.5,1.6,2.4,1.6v0.2H72.3v-0.2c1.9,0,2.4-0.8,2.4-1.6v-11.4
				c0-1.2-0.5-1.7-2.4-1.7V100z M74,94c0-1.7,1.3-2.8,3.3-2.8s3.3,1.1,3.3,2.8c0,1.7-1.3,2.8-3.3,2.8S74,95.7,74,94z"/>
			<path class="st2" d="M92.5,99c-1.9,0.2-2.7,1.8-2.7,7.9c0,4.6,2.3,7.1,5.2,7.1c1.8,0,3.2-0.5,4.7-1.7v0.2
				c-1.7,2.1-4.7,2.9-6.8,2.9c-4.1,0-8.5-3-8.5-8.4s4.4-8.2,8.2-8.3V99z M99.6,102.4c0,1.7-1.2,3.1-3.2,3.1c-1.6,0-2.6-1-2.8-2
				c0.9-0.4,1.5-1.5,1.5-2.3c0-0.7-0.2-1.9-1.4-2.1v-0.2C98,98.8,99.6,100.6,99.6,102.4z"/>
		</g>
		<g class="st1">
			<path class="st2" d="M102.3,100.4c-0.3-0.7-0.8-1.1-1.8-1.1v-0.2h9v0.2c-1.1,0-1.6,0.8-1,1.9l4.2,8.7l-2.8,5.2h-0.2L102.3,100.4z
				 M100.9,120.2c0-1.4,1.1-2.5,2.8-3c-0.1,0.3-0.1,0.5-0.1,0.8c0,1.2,0.6,2.1,1.9,2.1c1.1,0,2-1.2,3.2-3.2h0.2
				c-1.8,3.3-3,6.1-5.2,6.1C101.9,123.1,100.9,121.9,100.9,120.2z M114,106.8c0.5-1,0.9-2.4,0.9-4.1c0-1.8-1-3.4-3.3-3.4v-0.2h8v0.2
				c-1.1,0-1.5,0.4-2.1,1.5l-3.3,6.3L114,106.8z"/>
		</g>
	</g>
</g>
</svg>
