<svg id="Layer_1" data-name="Layer 1" xmlns="http://www.w3.org/2000/svg" xmlns:xlink="http://www.w3.org/1999/xlink" viewBox="0 0 300 250"><defs><style>.cls-1{fill:none;}.cls-2{clip-path:url(#clip-path);}.cls-3{fill:#fff;}</style><clipPath id="clip-path"><rect class="cls-1" width="300" height="250"/></clipPath></defs><title>Artboard 1</title><g class="cls-2"><path class="cls-3" d="M48.37,38.08l-6.3,14.75h-.39l-8-17.44a3,3,0,0,0-3-1.43v-.17h7.53l5.83,12.66,4.31-8.94ZM36.86,52.66v.17H30.7v-.17a2.45,2.45,0,0,0,2.74-2.35l.23-12.1.22.51.23,11.59A2.44,2.44,0,0,0,36.86,52.66ZM54.25,35.39V51.24c0,.75.42,1.42,2.1,1.42v.17h-9v-.17c1.68,0,2.1-.67,2.1-1.42V33.79h6.86V34C54.67,34,54.25,34.63,54.25,35.39Z"/><path class="cls-3" d="M65.2,38.72c-1.66.2-2.22,1.6-2.22,7.06,0,5.26.56,7,2.22,7.16v.17a7.14,7.14,0,0,1-7-7.33,7,7,0,0,1,7-7.23Zm8.06,7.06a7.13,7.13,0,0,1-6.94,7.33v-.17C68,52.78,68.5,51,68.5,45.78c0-5.49-.56-6.89-2.18-7.06v-.17A7,7,0,0,1,73.26,45.78Z"/><path class="cls-3" d="M81.83,51.24c0,.7.42,1.42,2.1,1.42v.17H75.11v-.17c1.68,0,2.1-.72,2.1-1.42v-10c0-1-.48-1.48-2.07-1.48v-.17a17.19,17.19,0,0,0,6.69-1.09Zm7.56-9.66a3,3,0,0,1-2.89,3.19,1.88,1.88,0,0,1-1.59-.62A2,2,0,0,0,86,42.25a1.49,1.49,0,0,0-1.57-1.51,1.93,1.93,0,0,0-1.68,1.06v-.22a3.88,3.88,0,0,1,3.64-3A2.85,2.85,0,0,1,89.39,41.58Z"/><path class="cls-3" d="M90.9,45.78a6.93,6.93,0,0,1,6.86-7.23v.17c-1.65.2-2.1,1.6-2.1,6.94,0,4,1.79,6.25,4.28,6.25A6.07,6.07,0,0,0,104,50.42v.17a7.82,7.82,0,0,1-5.93,2.52A7.09,7.09,0,0,1,90.9,45.78Zm6.3-1.18c2.46,0,3.5-.78,3.5-3.14,0-1.34-.56-2.57-1.82-2.74v-.17c3.7,0,5.49,2.63,5.49,4.76a8.71,8.71,0,0,1-.14,1.46h-7Z"/><path class="cls-3" d="M31.18,75.78A6.93,6.93,0,0,1,38,68.55v.17c-1.66.2-2.1,1.6-2.1,6.94,0,4,1.79,6.25,4.28,6.25a6.09,6.09,0,0,0,4.09-1.49v.17a7.86,7.86,0,0,1-5.94,2.52A7.09,7.09,0,0,1,31.18,75.78Zm6.3-1.18c2.46,0,3.5-.78,3.5-3.14,0-1.34-.56-2.57-1.82-2.74v-.17c3.69,0,5.48,2.63,5.48,4.76a7.77,7.77,0,0,1-.14,1.46h-7Z"/><path class="cls-3" d="M46.94,70a1.51,1.51,0,0,0-1.54-1v-.17h7.84V69c-1,0-1.37.67-.9,1.65L56,78.29,53.6,82.83h-.16Zm10.25,5.57A7.73,7.73,0,0,0,58,71.94,2.71,2.71,0,0,0,55.12,69v-.17h7V69c-.93,0-1.29.36-1.82,1.32L57.36,75.8Z"/><path class="cls-3" d="M62.31,75.78a6.94,6.94,0,0,1,6.86-7.23v.17c-1.65.2-2.1,1.6-2.1,6.94,0,4,1.79,6.25,4.29,6.25a6.06,6.06,0,0,0,4.08-1.49v.17a7.82,7.82,0,0,1-5.93,2.52A7.09,7.09,0,0,1,62.31,75.78Zm6.3-1.18c2.47,0,3.5-.78,3.5-3.14,0-1.34-.56-2.57-1.82-2.74v-.17c3.7,0,5.49,2.63,5.49,4.76a8.71,8.71,0,0,1-.14,1.46h-7Z"/><path class="cls-3" d="M84.29,81.24c0,.7.42,1.42,2.1,1.42v.17H77.57v-.17c1.68,0,2.1-.72,2.1-1.42V71.29c0-1-.47-1.48-2.07-1.48v-.17a17.19,17.19,0,0,0,6.69-1.09Zm7.56-9.66A3,3,0,0,1,89,74.77a1.92,1.92,0,0,1-1.6-.62,2,2,0,0,0,1.09-1.9,1.48,1.48,0,0,0-1.56-1.51,1.92,1.92,0,0,0-1.68,1.06v-.22a3.87,3.87,0,0,1,3.64-3A2.84,2.84,0,0,1,91.85,71.58Z"/><path class="cls-3" d="M93.76,70a1.52,1.52,0,0,0-1.54-1v-.17h7.84V69c-1,0-1.38.67-.9,1.65l3.67,7.64-2.41,4.54h-.17ZM92.52,87.34c0-1.21,1-2.21,2.47-2.63a2,2,0,0,0-.11.7,1.63,1.63,0,0,0,1.65,1.87c1,0,1.76-1,2.83-2.82h.19C98,87.34,97,89.83,95,89.83A2.33,2.33,0,0,1,92.52,87.34ZM104,75.55a7.6,7.6,0,0,0,.79-3.61A2.71,2.71,0,0,0,101.93,69v-.17h7V69c-.92,0-1.28.36-1.82,1.32l-2.91,5.48Z"/><path class="cls-3" d="M119.88,80.67v.17a5.86,5.86,0,0,1-4.79,2.27c-2.52,0-4.31-1.15-4.31-4V70h-1.46l.31-.42h1.15v-3A7.09,7.09,0,0,0,115.37,65v4.59h3.78l-.31.42h-3.47v9.27c0,1.4.53,2.85,1.85,2.85A4.11,4.11,0,0,0,119.88,80.67Z"/><path class="cls-3" d="M127.1,81.24c0,.7.42,1.42,2.1,1.42v.17h-8.82v-.17c1.68,0,2.1-.72,2.1-1.42V65c0-1-.47-1.49-2.07-1.49v-.17a17.19,17.19,0,0,0,6.69-1.09Zm9.8-8.74v8.74c0,.7.42,1.42,2.1,1.42v.17h-8.79v-.17c1.65,0,2.07-.72,2.07-1.42V72.5c0-1.57-.81-2.38-2.21-2.38a3,3,0,0,0-2.13.87v-.17a5.72,5.72,0,0,1,4.65-2.27C135.11,68.55,136.9,69.73,136.9,72.5Z"/><path class="cls-3" d="M140.07,69.62a17.18,17.18,0,0,0,6.69-1.1V81.24c0,.7.42,1.42,2.1,1.42v.17H140v-.17c1.68,0,2.1-.72,2.1-1.42v-10c0-1-.48-1.49-2.07-1.49Zm1.42-5.27c0-1.45,1.18-2.43,2.86-2.43s2.86,1,2.86,2.43-1.18,2.47-2.86,2.47S141.49,65.83,141.49,64.35Z"/><path class="cls-3" d="M150,82.66c1.68,0,2.1-.72,2.1-1.42V71.29c0-1-.47-1.48-2.07-1.48v-.17a17.12,17.12,0,0,0,6.69-1.09V81.24c0,.7.42,1.42,2.1,1.42v.17H150Zm9.86,0c1.65,0,2.07-.72,2.07-1.42V72.5c0-1.57-.81-2.38-2.21-2.38a3,3,0,0,0-2.13.87v-.17a5.72,5.72,0,0,1,4.65-2.27c2.52,0,4.31,1.18,4.31,4v8.74c0,.7.42,1.42,2.1,1.42v.17h-8.79Z"/><path class="cls-3" d="M170.33,73.62c0-3.64,3.42-5,6.28-5.07v.17c-1.21.11-1.77,1.57-1.77,4.82s.56,4.75,1.77,4.87v.17C173.78,78.58,170.33,77.23,170.33,73.62Zm7.45,16c2.8-.33,3.7-1.84,3.7-2.85,0-3.89-10.92-.42-10.92-5.43a3.31,3.31,0,0,1,1.87-2.86l.09.14a.64.64,0,0,0-.25.53c0,3.14,12.76-.5,12.76,5.6,0,2.88-2.49,4.76-7.25,5Zm-7.22-2.35c0-1.65,2-2.15,4.25-2.15a2.34,2.34,0,0,0-1.2,2c0,1.29,1.46,2.27,3,2.52v.17C173.67,89.78,170.56,89.16,170.56,87.31Zm7.22-8.9c1.37-.12,1.93-1.49,1.93-4.87s-.58-4.71-1.93-4.82v-.17c3,.06,6.41,1.43,6.41,5.07s-3.44,5-6.41,5Zm1.51-10.36c.48-1.43,1.77-3.36,3.7-3.36,1.48,0,2.38.78,2.38,2.13A2.23,2.23,0,0,1,183.1,69c0-1.18-.61-1.88-1.51-1.88a3.07,3.07,0,0,0-2.16,1Z"/><path class="cls-3" d="M41.54,110.67v.17a5.86,5.86,0,0,1-4.79,2.27c-2.52,0-4.31-1.15-4.31-4V100H31l.31-.42h1.15v-3A7.13,7.13,0,0,0,37,95v4.59h3.78l-.31.42H37v9.27c0,1.4.53,2.85,1.85,2.85A4.13,4.13,0,0,0,41.54,110.67Z"/><path class="cls-3" d="M48.76,111.24c0,.7.42,1.42,2.1,1.42v.17H42v-.17c1.68,0,2.1-.72,2.1-1.42V95c0-1-.48-1.49-2.07-1.49v-.17a17.19,17.19,0,0,0,6.69-1.09Zm9.8-8.74v8.74c0,.7.42,1.42,2.1,1.42v.17H51.87v-.17c1.65,0,2.07-.72,2.07-1.42V102.5c0-1.57-.81-2.38-2.21-2.38a3,3,0,0,0-2.13.87v-.17a5.72,5.72,0,0,1,4.65-2.27C56.77,98.55,58.56,99.73,58.56,102.5Z"/><path class="cls-3" d="M61.89,109.53c0-2.44,2.24-3.81,5.38-3.81h3v.17h-.84a2.77,2.77,0,0,0-3,3c0,1.54.45,2.72,1.77,2.72a3,3,0,0,0,2-1v.17a5.93,5.93,0,0,1-4.45,2.27C63.46,113.11,61.86,111.77,61.89,109.53ZM63,101.6c0-1.43,1.29-2.88,5.1-3v.17a2,2,0,0,0-1.79,2c0,1,.7,1.63,1.82,1.71a3.16,3.16,0,0,1-2.69,1.35A2.25,2.25,0,0,1,63,101.6ZM71.13,110v-8.57c0-1.37-.53-2.46-1.9-2.66v-.17c4.65.17,6.49,1.93,6.49,5.6V111c0,.81.28,1.14.79,1.14s.89-.42,1.34-1.26H78c-.45,1.54-2,2.27-3.64,2.27C72.14,113.11,71.13,112.33,71.13,110Z"/><path class="cls-3" d="M78.89,112.66c1.68,0,2.1-.72,2.1-1.42v-9.95c0-1-.48-1.48-2.07-1.48v-.17a17.19,17.19,0,0,0,6.69-1.09v12.69c0,.7.42,1.42,2.1,1.42v.17H78.89Zm9.85,0c1.66,0,2.08-.72,2.08-1.42V102.5a2.08,2.08,0,0,0-2.22-2.38,3,3,0,0,0-2.12.87v-.17a5.69,5.69,0,0,1,4.64-2.27c2.52,0,4.32,1.18,4.32,4v8.74c0,.7.42,1.42,2.1,1.42v.17h-8.8Z"/><path class="cls-3" d="M30.9,139.53c0-2.44,2.24-3.81,5.37-3.81h3v.17h-.84a2.77,2.77,0,0,0-3,3.05c0,1.54.45,2.72,1.76,2.72a3,3,0,0,0,2-1v.17a6,6,0,0,1-4.46,2.27C32.46,143.11,30.87,141.77,30.9,139.53ZM32,131.6c0-1.43,1.28-2.88,5.09-3v.17a2,2,0,0,0-1.79,2c0,1,.7,1.63,1.82,1.71a3.16,3.16,0,0,1-2.69,1.35A2.24,2.24,0,0,1,32,131.6ZM40.14,140v-8.57c0-1.37-.54-2.46-1.91-2.66v-.17c4.65.17,6.5,1.93,6.5,5.6V141c0,.81.28,1.14.78,1.14s.9-.42,1.35-1.26H47c-.44,1.54-2,2.27-3.64,2.27C41.14,143.11,40.14,142.33,40.14,140Z"/><path class="cls-3" d="M47.89,142.66c1.68,0,2.1-.72,2.1-1.42v-10c0-1-.47-1.48-2.07-1.48v-.17a17.19,17.19,0,0,0,6.69-1.09v12.69c0,.7.42,1.42,2.1,1.42v.17H47.89Zm9.86,0c1.65,0,2.07-.72,2.07-1.42V132.5c0-1.57-.81-2.38-2.21-2.38a3,3,0,0,0-2.13.87v-.17a5.72,5.72,0,0,1,4.65-2.27c2.52,0,4.31,1.18,4.31,3.95v8.74c0,.7.42,1.42,2.1,1.42v.17H57.75Z"/><path class="cls-3" d="M67.63,130a1.51,1.51,0,0,0-1.54-1v-.17h7.84V129c-1,0-1.37.67-.89,1.65l3.66,7.64-2.4,4.54h-.17ZM66.4,147.34a2.92,2.92,0,0,1,2.46-2.63,2.22,2.22,0,0,0-.11.7,1.63,1.63,0,0,0,1.65,1.87c1,0,1.77-1,2.83-2.82h.2c-1.54,2.88-2.61,5.37-4.57,5.37A2.33,2.33,0,0,1,66.4,147.34Zm11.48-11.79a7.61,7.61,0,0,0,.78-3.61A2.7,2.7,0,0,0,75.81,129v-.17h7V129c-.92,0-1.29.36-1.82,1.32l-2.91,5.48Z"/><path class="cls-3" d="M89.89,128.72c-1.65.2-2.21,1.6-2.21,7.06,0,5.26.56,7,2.21,7.16v.17a7.13,7.13,0,0,1-7-7.33,7,7,0,0,1,7-7.23ZM98,135.78A7.14,7.14,0,0,1,91,143.11v-.17c1.65-.16,2.19-1.93,2.19-7.16,0-5.49-.56-6.89-2.19-7.06v-.17A7,7,0,0,1,98,135.78Z"/><path class="cls-3" d="M99.8,142.66c1.68,0,2.1-.72,2.1-1.42v-10c0-1-.47-1.48-2.07-1.48v-.17a17.12,17.12,0,0,0,6.69-1.09v12.69c0,.7.42,1.42,2.1,1.42v.17H99.8Zm9.86,0c1.65,0,2.07-.72,2.07-1.42V132.5c0-1.57-.81-2.38-2.21-2.38a3,3,0,0,0-2.13.87v-.17a5.72,5.72,0,0,1,4.65-2.27c2.52,0,4.31,1.18,4.31,3.95v8.74c0,.7.42,1.42,2.1,1.42v.17h-8.79Z"/><path class="cls-3" d="M120,135.78a6.94,6.94,0,0,1,6.86-7.23v.17c-1.65.2-2.1,1.6-2.1,6.94,0,4,1.8,6.25,4.29,6.25a6.1,6.1,0,0,0,4.09-1.49v.17a7.86,7.86,0,0,1-5.94,2.52A7.1,7.1,0,0,1,120,135.78Zm6.3-1.18c2.47,0,3.5-.78,3.5-3.14,0-1.34-.56-2.57-1.82-2.74v-.17c3.7,0,5.49,2.63,5.49,4.76a7.77,7.77,0,0,1-.14,1.46h-7Z"/><path class="cls-3" d="M31.18,165.78A6.93,6.93,0,0,1,38,158.55v.17c-1.66.2-2.1,1.6-2.1,6.94,0,4,1.79,6.25,4.28,6.25a6.09,6.09,0,0,0,4.09-1.49v.17a7.86,7.86,0,0,1-5.94,2.52A7.09,7.09,0,0,1,31.18,165.78Zm6.3-1.18c2.46,0,3.5-.78,3.5-3.14,0-1.34-.56-2.57-1.82-2.74v-.17c3.69,0,5.48,2.63,5.48,4.76a7.77,7.77,0,0,1-.14,1.46h-7Z"/><path class="cls-3" d="M46.3,153.34A17.19,17.19,0,0,0,53,152.25v19c0,.7.42,1.42,2.1,1.42v.17H46.27v-.17c1.68,0,2.1-.72,2.1-1.42V155c0-1-.48-1.49-2.07-1.49Z"/><path class="cls-3" d="M61.64,169.5a1.44,1.44,0,0,0-1.57,1.4c0,.81.56,1.85,2.49,2v.17c-3.72-.14-5.76-1.15-5.76-2.77a2.18,2.18,0,0,1,2.38-2.07A2.84,2.84,0,0,1,61.64,169.5Zm.92-10.78c-1,.2-2,.73-2,1.87.08,3.25,9.15,3.79,9.15,8.24,0,2.71-2.29,4.14-5.9,4.28v-.17c1.17-.19,2.49-.61,2.49-2.07,0-2.91-9.19-4-9.19-8.23,0-2.47,2.33-3.95,5.46-4.09Zm6.61,2.72a1.83,1.83,0,0,1-2.07,1.73,2.39,2.39,0,0,1-2.38-1.34A1.25,1.25,0,0,0,66,160.51c0-.84-1.06-1.65-2.18-1.79v-.17C67,158.72,69.17,159.87,69.17,161.44Z"/><path class="cls-3" d="M72.06,165.78a6.93,6.93,0,0,1,6.86-7.23v.17c-1.66.2-2.1,1.6-2.1,6.94,0,4,1.79,6.25,4.28,6.25a6.09,6.09,0,0,0,4.09-1.49v.17a7.86,7.86,0,0,1-5.94,2.52A7.09,7.09,0,0,1,72.06,165.78Zm6.3-1.18c2.46,0,3.5-.78,3.5-3.14,0-1.34-.56-2.57-1.82-2.74v-.17c3.69,0,5.48,2.63,5.48,4.76a7.77,7.77,0,0,1-.14,1.46h-7Z"/></g></svg>