<?xml version="1.0" encoding="utf-8"?>
<!-- Generator: Adobe Illustrator 24.0.3, SVG Export Plug-In . SVG Version: 6.00 Build 0)  -->
<svg version="1.1" id="Layer_1" xmlns="http://www.w3.org/2000/svg" xmlns:xlink="http://www.w3.org/1999/xlink" x="0px" y="0px"
	 viewBox="0 0 300 250" style="enable-background:new 0 0 300 250;" xml:space="preserve">
<style type="text/css">
	.st0{clip-path:url(#SVGID_2_);}
	.st1{enable-background:new    ;}
	.st2{fill:#FFFFFF;}
	.st3{clip-path:url(#SVGID_4_);}
</style>
<title>Artboard 1 copy</title>
<g>
	<defs>
		<rect id="SVGID_1_" x="-0.2" y="-0.4" width="300" height="250"/>
	</defs>
	<clipPath id="SVGID_2_">
		<use xlink:href="#SVGID_1_"  style="overflow:visible;"/>
	</clipPath>
	<g class="st0">
		<g class="st1">
			<path class="st2" d="M34.9,54.2v0.2H24.6v-0.2c1.9,0,2.4-0.8,2.4-1.6V34.5c0-0.9-0.5-1.6-2.4-1.6v-0.2h7.8v19.9
				C32.4,53.5,32.9,54.2,34.9,54.2z M47.3,52.1c-0.5,1.8-2.4,2.6-4.7,2.6c-4.2,0-5.1-2.9-5.3-5.6c-0.2-2.6-0.4-4.7-3.3-5.1v-0.2
				c2.9,0,4.3-2.6,4.3-5.8c0-3.6-1.3-5.3-4.3-5.3v-0.2c6.5,0,9.7,1.4,9.7,5.5c0,3.5-2.6,5.6-7.3,5.9c5.8,0.3,6.7,2.5,7,5.2
				c0.3,2.6,1,4.4,2.1,4.4c0.6,0,1.1-0.5,1.6-1.4H47.3z"/>
		</g>
		<g class="st1">
			<path class="st2" d="M48,46.4c0-5.4,4.1-8.2,7.8-8.3v0.2c-1.9,0.2-2.4,1.8-2.4,7.9c0,4.6,2,7.1,4.9,7.1c1.8,0,3.2-0.5,4.7-1.7
				v0.2c-1.7,2.1-4.7,2.9-6.8,2.9C52.1,54.7,48,51.7,48,46.4z M55.2,45c2.8,0,4-0.9,4-3.6c0-1.5-0.6-2.9-2.1-3.1v-0.2
				c4.2,0,6.3,3,6.3,5.4c0,0.5-0.1,1.2-0.2,1.7h-8V45z"/>
			<path class="st2" d="M65.7,50.6c0-2.8,2.6-4.4,6.1-4.4h3.5v0.2h-1C72,46.5,71,48,71,50c0,1.8,0.5,3.1,2,3.1
				c0.9,0,1.6-0.5,2.3-1.1v0.2c-1.1,1.2-2.8,2.6-5.1,2.6C67.5,54.7,65.7,53.2,65.7,50.6z M67,41.6c0-1.6,1.5-3.3,5.8-3.5v0.2
				c-1.3,0.2-2,1.2-2,2.3c0,1.2,0.8,1.9,2.1,2c-0.5,0.9-1.8,1.5-3.1,1.5C68,44.1,67,42.9,67,41.6z M76.3,51.1v-9.8
				c0-1.6-0.6-2.8-2.2-3v-0.2c5.3,0.2,7.4,2.2,7.4,6.4v7.8c0,0.9,0.3,1.3,0.9,1.3c0.5,0,1-0.5,1.5-1.4h0.2c-0.5,1.8-2.2,2.6-4.2,2.6
				C77.4,54.7,76.3,53.8,76.3,51.1z"/>
		</g>
		<g class="st1">
			<path class="st2" d="M97.1,40.7v0.3c-0.7-0.8-1.7-1.2-2.7-1.2c-1.6,0-3.1,0.7-3.1,6.5c0,5.8,1.6,6.8,3.1,6.8c1,0,1.9-0.5,2.7-1.1
				v0.2c-0.8,1.3-2.8,2.6-4.6,2.6c-3,0-6.6-1.8-6.6-8.5c0-6.4,3.5-8.2,6.6-8.2C94.2,38.1,96.3,39.3,97.1,40.7z M103.3,52.3
				c0,0.9,0.3,1.3,0.9,1.3c0.5,0,1-0.5,1.5-1.4h0.2c-0.5,1.8-2.2,2.6-4.2,2.6c-2.6,0-3.7-0.9-3.7-3.6V34c0-1.2-0.5-1.7-2.4-1.7v-0.2
				c3,0,5-0.3,7.6-1.2V52.3z"/>
		</g>
		<g class="st1">
			<path class="st2" d="M107.7,39.7c-0.3-0.7-0.8-1.1-1.8-1.1v-0.2h9v0.2c-1.1,0-1.6,0.8-1,1.9l4.2,8.7l-2.8,5.2h-0.2L107.7,39.7z
				 M106.3,59.6c0-1.4,1.1-2.5,2.8-3c-0.1,0.3-0.1,0.5-0.1,0.8c0,1.2,0.6,2.1,1.9,2.1c1.1,0,2-1.2,3.2-3.2h0.2
				c-1.8,3.3-3,6.1-5.2,6.1C107.3,62.4,106.3,61.2,106.3,59.6z M119.4,46.1c0.5-1,0.9-2.4,0.9-4.1c0-1.8-1-3.4-3.3-3.4v-0.2h8v0.2
				c-1.1,0-1.5,0.4-2.1,1.5l-3.3,6.3L119.4,46.1z"/>
		</g>
		<g class="st1">
			<path class="st2" d="M143.4,39.3l-0.4,0.5h-3.1v12.9c0,0.8,0.5,1.6,2.4,1.6v0.2h-10.1v-0.2c1.9,0,2.4-0.8,2.4-1.6V39.7h-2.1
				l0.4-0.5h1.7v-1.4c0-4.5,2.4-6.5,5.3-6.9v0.2c-1.1,0.4-1.9,1.4-1.9,3.4C138,36.4,139.3,39.3,143.4,39.3z M146.1,34.4
				c0,1.8-1.3,2.8-2.8,2.8c-1.7,0-2.8-1-3.2-2.1c1.4,0,2.3-0.8,2.3-2c0-0.9-0.4-1.7-1.2-1.9v-0.2C144.6,31,146.1,32.5,146.1,34.4z"
				/>
		</g>
		<g class="st1">
			<path class="st2" d="M152.8,38.3c-1.9,0.2-2.5,1.8-2.5,8.1c0,6,0.6,8,2.5,8.2v0.2c-3.7,0-8-3-8-8.4s4.2-8.2,8-8.3V38.3z
				 M162.1,46.4c0,5.3-4.3,8.4-7.9,8.4v-0.2c1.9-0.2,2.5-2.2,2.5-8.2c0-6.3-0.6-7.9-2.5-8.1v-0.2C157.8,38.1,162.1,40.9,162.1,46.4z
				"/>
		</g>
		<g class="st1">
			<path class="st2" d="M171.8,52.6c0,0.8,0.5,1.6,2.4,1.6v0.2h-10.1v-0.2c1.9,0,2.4-0.8,2.4-1.6V41.2c0-1.2-0.5-1.7-2.4-1.7v-0.2
				c3,0,5.4-0.3,7.6-1.2V52.6z M180.5,41.6c0,2.2-1.6,3.6-3.3,3.6c-0.8,0-1.4-0.2-1.8-0.7c0.6-0.3,1.2-1,1.2-2.2
				c0-0.9-0.7-1.7-1.8-1.7c-0.8,0-1.5,0.5-1.9,1.2v-0.3c0.6-2,2.2-3.5,4.2-3.5C179.3,38.1,180.5,39.6,180.5,41.6z"/>
		</g>
		<g class="st1">
			<path class="st2" d="M36.4,84v0.2c-1,1.5-3.1,2.6-5.5,2.6c-2.9,0-4.9-1.3-4.9-4.5V71.7h-1.7l0.4-0.5H26v-3.5c2,0,3.9-0.6,5.2-1.8
				v5.2h4.3l-0.4,0.5h-4v10.6c0,1.6,0.6,3.3,2.1,3.3C34.2,85.6,35.3,85,36.4,84z"/>
			<path class="st2" d="M44.6,84.6c0,0.8,0.5,1.6,2.4,1.6v0.2H37v-0.2c1.9,0,2.4-0.8,2.4-1.6V66c0-1.2-0.5-1.7-2.4-1.7v-0.2
				c3,0,5.4-0.3,7.6-1.2V84.6z M55.8,74.6v10c0,0.8,0.5,1.6,2.4,1.6v0.2h-10v-0.2c1.9,0,2.4-0.8,2.4-1.6v-10c0-1.8-0.9-2.7-2.5-2.7
				c-0.9,0-1.7,0.3-2.4,1v-0.2c0.9-1.3,2.9-2.6,5.3-2.6C53.8,70.1,55.8,71.4,55.8,74.6z"/>
			<path class="st2" d="M60,78.4c0-5.4,4.1-8.2,7.8-8.3v0.2c-1.9,0.2-2.4,1.8-2.4,7.9c0,4.6,2,7.1,4.9,7.1c1.8,0,3.2-0.5,4.7-1.7
				v0.2c-1.7,2.1-4.7,2.9-6.8,2.9C64.1,86.7,60,83.7,60,78.4z M67.2,77c2.8,0,4-0.9,4-3.6c0-1.5-0.6-2.9-2.1-3.1v-0.2
				c4.2,0,6.3,3,6.3,5.4c0,0.5-0.1,1.2-0.2,1.7h-8V77z"/>
		</g>
		<g class="st1">
			<path class="st2" d="M94.3,86.5v0.2c-2.5-0.1-4.5-0.5-6.2-1.6L87,86.7h-0.3v-7.8H87C88.1,82.5,90.3,85.2,94.3,86.5z M103.7,80.2
				c0,4.1-3.1,6.4-8,6.6v-0.2c1.8-0.3,3.5-1.3,3.5-3.3c0-5.6-12.2-6.1-12.2-12.6c0-3.8,3.1-6,7.4-6.3v0.2c-1.5,0.3-2.8,1.2-2.8,2.9
				C91.5,73.1,103.7,73.7,103.7,80.2z M95.7,64.5v-0.2c2.4,0.1,4.3,0.6,5.8,1.7l1.2-1.7h0.3v7.1h-0.3
				C101.5,68.1,98.8,65.3,95.7,64.5z"/>
		</g>
		<g class="st1">
			<path class="st2" d="M118.3,84v0.2c-1,1.5-3.1,2.6-5.5,2.6c-2.9,0-4.9-1.3-4.9-4.5V71.7h-1.7l0.4-0.5h1.3v-3.5
				c2,0,3.9-0.6,5.2-1.8v5.2h4.3l-0.4,0.5h-4v10.6c0,1.6,0.6,3.3,2.1,3.3C116.1,85.6,117.2,85,118.3,84z"/>
			<path class="st2" d="M119.3,82.6c0-2.8,2.6-4.4,6.1-4.4h3.5v0.2h-1c-2.3,0-3.4,1.5-3.4,3.5c0,1.8,0.5,3.1,2,3.1
				c0.9,0,1.6-0.5,2.3-1.1v0.2c-1.1,1.2-2.8,2.6-5.1,2.6C121.1,86.7,119.3,85.2,119.3,82.6z M120.6,73.6c0-1.6,1.5-3.3,5.8-3.5v0.2
				c-1.3,0.2-2,1.2-2,2.3c0,1.2,0.8,1.9,2.1,2c-0.5,0.9-1.8,1.5-3.1,1.5C121.6,76.1,120.6,74.9,120.6,73.6z M129.9,83.1v-9.8
				c0-1.6-0.6-2.8-2.2-3v-0.2c5.3,0.2,7.4,2.2,7.4,6.4v7.8c0,0.9,0.3,1.3,0.9,1.3c0.5,0,1-0.5,1.5-1.4h0.2c-0.5,1.8-2.2,2.6-4.2,2.6
				C131,86.7,129.9,85.8,129.9,83.1z"/>
		</g>
		<g class="st1">
			<path class="st2" d="M146.4,84.6c0,0.8,0.5,1.6,2.4,1.6v0.2h-10.1v-0.2c1.9,0,2.4-0.8,2.4-1.6V73.2c0-1.2-0.5-1.7-2.4-1.7v-0.2
				c3,0,5.4-0.3,7.6-1.2V84.6z M155,73.6c0,2.2-1.6,3.6-3.3,3.6c-0.8,0-1.4-0.2-1.8-0.7c0.6-0.3,1.2-1,1.2-2.2
				c0-0.9-0.7-1.7-1.8-1.7c-0.8,0-1.5,0.5-1.9,1.2v-0.3c0.6-2,2.2-3.5,4.2-3.5C153.8,70.1,155,71.6,155,73.6z"/>
		</g>
		<g class="st1">
			<path class="st2" d="M36.4,116v0.2c-1,1.5-3.1,2.6-5.5,2.6c-2.9,0-4.9-1.3-4.9-4.5v-10.5h-1.7l0.4-0.5H26v-3.5
				c2,0,3.9-0.6,5.2-1.8v5.2h4.3l-0.4,0.5h-4v10.6c0,1.6,0.6,3.3,2.1,3.3C34.2,117.6,35.3,117,36.4,116z"/>
		</g>
		<g class="st1">
			<path class="st2" d="M44.8,116.6c0,0.8,0.5,1.6,2.4,1.6v0.2H37.2v-0.2c1.9,0,2.4-0.8,2.4-1.6v-11.4c0-1.2-0.5-1.7-2.4-1.7v-0.2
				c3,0,5.4-0.3,7.6-1.2V116.6z M53.5,105.6c0,2.2-1.6,3.6-3.3,3.6c-0.8,0-1.4-0.2-1.8-0.7c0.6-0.3,1.2-1,1.2-2.2
				c0-0.9-0.7-1.7-1.8-1.7c-0.8,0-1.5,0.5-1.9,1.2v-0.3c0.6-2,2.2-3.5,4.2-3.5C52.3,102.1,53.5,103.6,53.5,105.6z"/>
		</g>
		<g class="st1">
			<path class="st2" d="M55.2,110.4c0-5.4,4.1-8.2,7.8-8.3v0.2c-1.9,0.2-2.4,1.8-2.4,7.9c0,4.6,2,7.1,4.9,7.1c1.8,0,3.2-0.5,4.7-1.7
				v0.2c-1.7,2.1-4.7,2.9-6.8,2.9C59.3,118.7,55.2,115.7,55.2,110.4z M62.4,109c2.8,0,4-0.9,4-3.6c0-1.5-0.6-2.9-2.1-3.1v-0.2
				c4.2,0,6.3,3,6.3,5.4c0,0.5-0.1,1.2-0.2,1.7h-8V109z"/>
			<path class="st2" d="M72.9,114.6c0-2.8,2.6-4.4,6.1-4.4h3.5v0.2h-1c-2.3,0-3.4,1.5-3.4,3.5c0,1.8,0.5,3.1,2,3.1
				c0.9,0,1.6-0.5,2.3-1.1v0.2c-1.1,1.2-2.8,2.6-5.1,2.6C74.7,118.7,72.9,117.2,72.9,114.6z M74.2,105.6c0-1.6,1.5-3.3,5.8-3.5v0.2
				c-1.3,0.2-2,1.2-2,2.3c0,1.2,0.8,1.9,2.1,2c-0.5,0.9-1.8,1.5-3.1,1.5C75.2,108.1,74.2,106.9,74.2,105.6z M83.5,115.1v-9.8
				c0-1.6-0.6-2.8-2.2-3v-0.2c5.3,0.2,7.4,2.2,7.4,6.4v7.8c0,0.9,0.3,1.3,0.9,1.3c0.5,0,1-0.5,1.5-1.4h0.2c-0.5,1.8-2.2,2.6-4.2,2.6
				C84.6,118.7,83.5,117.8,83.5,115.1z"/>
			<path class="st2" d="M104.7,116v0.2c-1,1.5-3.1,2.6-5.5,2.6c-2.9,0-4.9-1.3-4.9-4.5v-10.5h-1.7l0.4-0.5h1.3v-3.5
				c2,0,3.9-0.6,5.2-1.8v5.2h4.3l-0.4,0.5h-4v10.6c0,1.6,0.6,3.3,2.1,3.3C102.6,117.6,103.7,117,104.7,116z"/>
			<path class="st2" d="M113.2,116.6c0,0.8,0.5,1.6,2.4,1.6v0.2h-10.1v-0.2c1.9,0,2.4-0.8,2.4-1.6v-11.4c0-1.2-0.5-1.7-2.4-1.7v-0.2
				c3,0,5.4-0.3,7.6-1.2V116.6z M123.8,106.6v10c0,0.8,0.4,1.6,2.4,1.6v0.2h-10v-0.2c1.9,0,2.4-0.8,2.4-1.6v-10
				c0-1.8-0.7-2.7-2.2-2.7c-0.9,0-1.7,0.4-2.1,1v-0.2c0.7-1.3,2.3-2.6,4.7-2.6C121.9,102.1,123.8,103.4,123.8,106.6z M134.4,106.6
				v10c0,0.8,0.5,1.6,2.4,1.6v0.2h-10.1v-0.2c1.9,0,2.4-0.8,2.4-1.6v-10c0-1.8-0.7-2.7-2.2-2.7c-0.9,0-1.7,0.4-2.1,1v-0.2
				c0.7-1.3,2.3-2.6,4.7-2.6C132.5,102.1,134.4,103.4,134.4,106.6z"/>
			<path class="st2" d="M138.5,110.4c0-5.4,4.1-8.2,7.8-8.3v0.2c-1.9,0.2-2.4,1.8-2.4,7.9c0,4.6,2,7.1,4.9,7.1
				c1.8,0,3.2-0.5,4.7-1.7v0.2c-1.7,2.1-4.7,2.9-6.8,2.9C142.7,118.7,138.5,115.7,138.5,110.4z M145.7,109c2.8,0,4-0.9,4-3.6
				c0-1.5-0.6-2.9-2.1-3.1v-0.2c4.2,0,6.3,3,6.3,5.4c0,0.5-0.1,1.2-0.2,1.7h-8V109z"/>
			<path class="st2" d="M156,118.2c1.9,0,2.4-0.8,2.4-1.6v-11.4c0-1.2-0.5-1.7-2.4-1.7v-0.2c3,0,5.4-0.3,7.6-1.2v14.5
				c0,0.8,0.5,1.6,2.4,1.6v0.2H156V118.2z M167.2,118.2c1.9,0,2.4-0.8,2.4-1.6v-10c0-1.8-0.9-2.7-2.5-2.7c-0.9,0-1.7,0.3-2.4,1v-0.2
				c0.9-1.3,2.9-2.6,5.3-2.6c2.9,0,4.9,1.3,4.9,4.5v10c0,0.8,0.5,1.6,2.4,1.6v0.2h-10V118.2z"/>
			<path class="st2" d="M190.9,116v0.2c-1,1.5-3.1,2.6-5.5,2.6c-2.9,0-4.9-1.3-4.9-4.5v-10.5h-1.7l0.4-0.5h1.3v-3.5
				c2,0,3.9-0.6,5.2-1.8v5.2h4.3l-0.4,0.5h-4v10.6c0,1.6,0.6,3.3,2.1,3.3C188.7,117.6,189.8,117,190.9,116z"/>
			<path class="st2" d="M191.9,100.7c0-2.8,3.8-4.2,6.8-4.3v0.2c-1.5,0.4-2.3,1.8-2.3,3.1c0,1.2,0.4,2.2,1.8,2.8
				c-0.5,0.8-1.6,1.3-2.9,1.3C193.5,103.7,191.9,102.7,191.9,100.7z M196.6,117.7c0-1.8,1.4-2.9,3.4-2.9c2,0,3.4,1.2,3.4,2.9
				c0,1.8-1.4,2.9-3.4,2.9C198,120.6,196.6,119.4,196.6,117.7z M197.4,108.7c0-3.6,5.1-4.6,5.1-8.7c0-1.7-0.6-2.8-2.3-3.4v-0.2
				c4.4,0.3,7.7,1.7,7.7,5.3c0,4.4-6.9,5.7-6.9,8.5c0,0.8,0.3,1.4,1.2,1.9l0,0.2C198.9,112.2,197.4,110.6,197.4,108.7z"/>
		</g>
	</g>
</g>
<g>
	<defs>
		<rect id="SVGID_3_" y="0" width="300" height="250"/>
	</defs>
	<clipPath id="SVGID_4_">
		<use xlink:href="#SVGID_3_"  style="overflow:visible;"/>
	</clipPath>
	<g class="st3">
		<g class="st1">
			<path class="st2" d="M35.1,54.6v0.2H24.8v-0.2c1.9,0,2.4-0.8,2.4-1.6V34.9c0-0.9-0.5-1.6-2.4-1.6v-0.2h7.8V53
				C32.7,53.9,33.1,54.6,35.1,54.6z M47.6,52.6c-0.5,1.8-2.4,2.6-4.7,2.6c-4.2,0-5.1-2.9-5.3-5.6c-0.2-2.6-0.4-4.7-3.3-5.1v-0.2
				c2.9,0,4.3-2.6,4.3-5.8c0-3.6-1.3-5.3-4.3-5.3v-0.2c6.5,0,9.7,1.4,9.7,5.5c0,3.5-2.6,5.6-7.3,5.9c5.8,0.3,6.7,2.5,7,5.2
				c0.3,2.6,1,4.4,2.1,4.4c0.6,0,1.1-0.5,1.6-1.4H47.6z"/>
		</g>
		<g class="st1">
			<path class="st2" d="M48.3,46.8c0-5.4,4.1-8.2,7.8-8.3v0.2c-1.9,0.2-2.4,1.8-2.4,7.9c0,4.6,2,7.1,4.9,7.1c1.8,0,3.2-0.5,4.7-1.7
				v0.2c-1.7,2.1-4.7,2.9-6.8,2.9C52.4,55.2,48.3,52.1,48.3,46.8z M55.5,45.4c2.8,0,4-0.9,4-3.6c0-1.5-0.6-2.9-2.1-3.1v-0.2
				c4.2,0,6.3,3,6.3,5.4c0,0.5-0.1,1.2-0.2,1.7h-8V45.4z"/>
			<path class="st2" d="M65.9,51.1c0-2.8,2.6-4.4,6.1-4.4h3.5v0.2h-1c-2.3,0-3.4,1.5-3.4,3.5c0,1.8,0.5,3.1,2,3.1
				c0.9,0,1.6-0.5,2.3-1.1v0.2c-1.1,1.2-2.8,2.6-5.1,2.6C67.7,55.2,65.9,53.6,65.9,51.1z M67.2,42c0-1.6,1.5-3.3,5.8-3.5v0.2
				c-1.3,0.2-2,1.2-2,2.3c0,1.2,0.8,1.9,2.1,2c-0.5,0.9-1.8,1.5-3.1,1.5C68.3,44.5,67.2,43.3,67.2,42z M76.5,51.5v-9.8
				c0-1.6-0.6-2.8-2.2-3v-0.2c5.3,0.2,7.4,2.2,7.4,6.4v7.8c0,0.9,0.3,1.3,0.9,1.3c0.5,0,1-0.5,1.5-1.4h0.2c-0.5,1.8-2.2,2.6-4.2,2.6
				C77.7,55.2,76.5,54.3,76.5,51.5z"/>
		</g>
		<g class="st1">
			<path class="st2" d="M97.3,41.1v0.3c-0.7-0.8-1.7-1.2-2.7-1.2c-1.6,0-3.1,0.7-3.1,6.5c0,5.8,1.6,6.8,3.1,6.8c1,0,1.9-0.5,2.7-1.1
				v0.2c-0.8,1.3-2.8,2.6-4.6,2.6c-3,0-6.6-1.8-6.6-8.5c0-6.4,3.5-8.2,6.6-8.2C94.5,38.5,96.5,39.7,97.3,41.1z M103.5,52.7
				c0,0.9,0.3,1.3,0.9,1.3c0.5,0,1-0.5,1.5-1.4h0.2c-0.5,1.8-2.2,2.6-4.2,2.6c-2.6,0-3.7-0.9-3.7-3.6V34.4c0-1.2-0.5-1.7-2.4-1.7
				v-0.2c3,0,5-0.3,7.6-1.2V52.7z"/>
		</g>
		<g class="st1">
			<path class="st2" d="M108,40.1c-0.3-0.7-0.8-1.1-1.8-1.1v-0.2h9V39c-1.1,0-1.6,0.8-1,1.9l4.2,8.7l-2.8,5.2h-0.2L108,40.1z
				 M106.6,60c0-1.4,1.1-2.5,2.8-3c-0.1,0.3-0.1,0.5-0.1,0.8c0,1.2,0.6,2.1,1.9,2.1c1.1,0,2-1.2,3.2-3.2h0.2c-1.8,3.3-3,6.1-5.2,6.1
				C107.6,62.8,106.6,61.6,106.6,60z M119.7,46.5c0.5-1,0.9-2.4,0.9-4.1c0-1.8-1-3.4-3.3-3.4v-0.2h8V39c-1.1,0-1.5,0.4-2.1,1.5
				l-3.3,6.3L119.7,46.5z"/>
		</g>
		<g class="st1">
			<path class="st2" d="M143.6,39.7l-0.4,0.5h-3.1V53c0,0.8,0.5,1.6,2.4,1.6v0.2h-10.1v-0.2c1.9,0,2.4-0.8,2.4-1.6V40.1h-2.1
				l0.4-0.5h1.7v-1.4c0-4.5,2.4-6.5,5.3-6.9v0.2c-1.1,0.4-1.9,1.4-1.9,3.4C138.3,36.8,139.5,39.7,143.6,39.7z M146.3,34.8
				c0,1.8-1.3,2.8-2.8,2.8c-1.7,0-2.8-1-3.2-2.1c1.4,0,2.3-0.8,2.3-2c0-0.9-0.4-1.7-1.2-1.9v-0.2C144.8,31.4,146.3,32.9,146.3,34.8z
				"/>
		</g>
		<g class="st1">
			<path class="st2" d="M153.1,38.7c-1.9,0.2-2.5,1.8-2.5,8.1c0,6,0.6,8,2.5,8.2v0.2c-3.7,0-8-3-8-8.4s4.2-8.2,8-8.3V38.7z
				 M162.3,46.8c0,5.3-4.3,8.4-7.9,8.4V55c1.9-0.2,2.5-2.2,2.5-8.2c0-6.3-0.6-7.9-2.5-8.1v-0.2C158.1,38.5,162.3,41.4,162.3,46.8z"
				/>
		</g>
		<g class="st1">
			<path class="st2" d="M172.1,53c0,0.8,0.5,1.6,2.4,1.6v0.2h-10.1v-0.2c1.9,0,2.4-0.8,2.4-1.6V41.6c0-1.2-0.5-1.7-2.4-1.7v-0.2
				c3,0,5.4-0.3,7.6-1.2V53z M180.7,42c0,2.2-1.6,3.6-3.3,3.6c-0.8,0-1.4-0.2-1.8-0.7c0.6-0.3,1.2-1,1.2-2.2c0-0.9-0.7-1.7-1.8-1.7
				c-0.8,0-1.5,0.5-1.9,1.2V42c0.6-2,2.2-3.5,4.2-3.5C179.5,38.5,180.7,40,180.7,42z"/>
		</g>
		<g class="st1">
			<path class="st2" d="M36.6,84.4v0.2c-1,1.5-3.1,2.6-5.5,2.6c-2.9,0-4.9-1.3-4.9-4.5V72.1h-1.7l0.4-0.5h1.3v-3.5
				c2,0,3.9-0.6,5.2-1.8v5.2h4.3l-0.4,0.5h-4v10.6c0,1.6,0.6,3.3,2.1,3.3C34.5,86,35.6,85.4,36.6,84.4z"/>
			<path class="st2" d="M44.9,85c0,0.8,0.5,1.6,2.4,1.6v0.2H37.2v-0.2c1.9,0,2.4-0.8,2.4-1.6V66.4c0-1.2-0.5-1.7-2.4-1.7v-0.2
				c3,0,5.4-0.3,7.6-1.2V85z M56.1,75v10c0,0.8,0.5,1.6,2.4,1.6v0.2h-10v-0.2c1.9,0,2.4-0.8,2.4-1.6V75c0-1.8-0.9-2.7-2.5-2.7
				c-0.9,0-1.7,0.3-2.4,1v-0.2c0.9-1.3,2.9-2.6,5.3-2.6C54,70.5,56.1,71.9,56.1,75z"/>
			<path class="st2" d="M60.2,78.8c0-5.4,4.1-8.2,7.8-8.3v0.2c-1.9,0.2-2.4,1.8-2.4,7.9c0,4.6,2,7.1,4.9,7.1c1.8,0,3.2-0.5,4.7-1.7
				v0.2c-1.7,2.1-4.7,2.9-6.8,2.9C64.3,87.2,60.2,84.1,60.2,78.8z M67.4,77.4c2.8,0,4-0.9,4-3.6c0-1.5-0.6-2.9-2.1-3.1v-0.2
				c4.2,0,6.3,3,6.3,5.4c0,0.5-0.1,1.2-0.2,1.7h-8V77.4z"/>
		</g>
		<g class="st1">
			<path class="st2" d="M94.5,87v0.2c-2.5-0.1-4.5-0.5-6.2-1.6l-1.1,1.6H87v-7.8h0.3C88.3,83,90.6,85.6,94.5,87z M103.9,80.6
				c0,4.1-3.1,6.4-8,6.6V87c1.8-0.3,3.5-1.3,3.5-3.3c0-5.6-12.2-6.1-12.2-12.6c0-3.8,3.1-6,7.4-6.3v0.2c-1.5,0.3-2.8,1.2-2.8,2.9
				C91.7,73.5,103.9,74.1,103.9,80.6z M95.9,64.9v-0.2c2.4,0.1,4.3,0.6,5.8,1.7l1.2-1.7h0.3v7.1h-0.3C101.8,68.5,99,65.7,95.9,64.9z
				"/>
		</g>
		<g class="st1">
			<path class="st2" d="M118.5,84.4v0.2c-1,1.5-3.1,2.6-5.5,2.6c-2.9,0-4.9-1.3-4.9-4.5V72.1h-1.7l0.4-0.5h1.3v-3.5
				c2,0,3.9-0.6,5.2-1.8v5.2h4.3l-0.4,0.5h-4v10.6c0,1.6,0.6,3.3,2.1,3.3C116.4,86,117.5,85.4,118.5,84.4z"/>
			<path class="st2" d="M119.5,83.1c0-2.8,2.6-4.4,6.1-4.4h3.5v0.2h-1c-2.3,0-3.4,1.5-3.4,3.5c0,1.8,0.5,3.1,2,3.1
				c0.9,0,1.6-0.5,2.3-1.1v0.2c-1.1,1.2-2.8,2.6-5.1,2.6C121.3,87.2,119.5,85.6,119.5,83.1z M120.8,74c0-1.6,1.5-3.3,5.8-3.5v0.2
				c-1.3,0.2-2,1.2-2,2.3c0,1.2,0.8,1.9,2.1,2c-0.5,0.9-1.8,1.5-3.1,1.5C121.9,76.5,120.8,75.3,120.8,74z M130.1,83.5v-9.8
				c0-1.6-0.6-2.8-2.2-3v-0.2c5.3,0.2,7.4,2.2,7.4,6.4v7.8c0,0.9,0.3,1.3,0.9,1.3c0.5,0,1-0.5,1.5-1.4h0.2c-0.5,1.8-2.2,2.6-4.2,2.6
				C131.3,87.2,130.1,86.3,130.1,83.5z"/>
		</g>
		<g class="st1">
			<path class="st2" d="M146.6,85c0,0.8,0.5,1.6,2.4,1.6v0.2H139v-0.2c1.9,0,2.4-0.8,2.4-1.6V73.6c0-1.2-0.5-1.7-2.4-1.7v-0.2
				c3,0,5.4-0.3,7.6-1.2V85z M155.3,74c0,2.2-1.6,3.6-3.3,3.6c-0.8,0-1.4-0.2-1.8-0.7c0.6-0.3,1.2-1,1.2-2.2c0-0.9-0.7-1.7-1.8-1.7
				c-0.8,0-1.5,0.5-1.9,1.2V74c0.6-2,2.2-3.5,4.2-3.5C154.1,70.5,155.3,72,155.3,74z"/>
		</g>
		<g class="st1">
			<path class="st2" d="M36.6,116.4v0.2c-1,1.5-3.1,2.6-5.5,2.6c-2.9,0-4.9-1.3-4.9-4.5v-10.5h-1.7l0.4-0.5h1.3v-3.5
				c2,0,3.9-0.6,5.2-1.8v5.2h4.3l-0.4,0.5h-4v10.6c0,1.6,0.6,3.3,2.1,3.3C34.5,118,35.6,117.4,36.6,116.4z"/>
		</g>
		<g class="st1">
			<path class="st2" d="M45.1,117c0,0.8,0.5,1.6,2.4,1.6v0.2H37.4v-0.2c1.9,0,2.4-0.8,2.4-1.6v-11.4c0-1.2-0.5-1.7-2.4-1.7v-0.2
				c3,0,5.4-0.3,7.6-1.2V117z M53.7,106c0,2.2-1.6,3.6-3.3,3.6c-0.8,0-1.4-0.2-1.8-0.7c0.6-0.3,1.2-1,1.2-2.2c0-0.9-0.7-1.7-1.8-1.7
				c-0.8,0-1.5,0.5-1.9,1.2V106c0.6-2,2.2-3.5,4.2-3.5C52.5,102.5,53.7,104,53.7,106z"/>
		</g>
		<g class="st1">
			<path class="st2" d="M55.5,110.8c0-5.4,4.1-8.2,7.8-8.3v0.2c-1.9,0.2-2.4,1.8-2.4,7.9c0,4.6,2,7.1,4.9,7.1c1.8,0,3.2-0.5,4.7-1.7
				v0.2c-1.7,2.1-4.7,2.9-6.8,2.9C59.6,119.2,55.5,116.1,55.5,110.8z M62.7,109.4c2.8,0,4-0.9,4-3.6c0-1.5-0.6-2.9-2.1-3.1v-0.2
				c4.2,0,6.3,3,6.3,5.4c0,0.5-0.1,1.2-0.2,1.7h-8V109.4z"/>
			<path class="st2" d="M73.1,115.1c0-2.8,2.6-4.4,6.1-4.4h3.5v0.2h-1c-2.3,0-3.4,1.5-3.4,3.5c0,1.8,0.5,3.1,2,3.1
				c0.9,0,1.6-0.5,2.3-1.1v0.2c-1.1,1.2-2.8,2.6-5.1,2.6C74.9,119.2,73.1,117.6,73.1,115.1z M74.4,106c0-1.6,1.5-3.3,5.8-3.5v0.2
				c-1.3,0.2-2,1.2-2,2.3c0,1.2,0.8,1.9,2.1,2c-0.5,0.9-1.8,1.5-3.1,1.5C75.5,108.5,74.4,107.3,74.4,106z M83.7,115.5v-9.8
				c0-1.6-0.6-2.8-2.2-3v-0.2c5.3,0.2,7.4,2.2,7.4,6.4v7.8c0,0.9,0.3,1.3,0.9,1.3c0.5,0,1-0.5,1.5-1.4h0.2c-0.5,1.8-2.2,2.6-4.2,2.6
				C84.9,119.2,83.7,118.3,83.7,115.5z"/>
			<path class="st2" d="M105,116.4v0.2c-1,1.5-3.1,2.6-5.5,2.6c-2.9,0-4.9-1.3-4.9-4.5v-10.5h-1.7l0.4-0.5h1.3v-3.5
				c2,0,3.9-0.6,5.2-1.8v5.2h4.3l-0.4,0.5h-4v10.6c0,1.6,0.6,3.3,2.1,3.3C102.8,118,103.9,117.4,105,116.4z"/>
			<path class="st2" d="M113.4,117c0,0.8,0.5,1.6,2.4,1.6v0.2h-10.1v-0.2c1.9,0,2.4-0.8,2.4-1.6v-11.4c0-1.2-0.5-1.7-2.4-1.7v-0.2
				c3,0,5.4-0.3,7.6-1.2V117z M124.1,107v10c0,0.8,0.4,1.6,2.4,1.6v0.2h-10v-0.2c1.9,0,2.4-0.8,2.4-1.6v-10c0-1.8-0.7-2.7-2.2-2.7
				c-0.9,0-1.7,0.4-2.1,1v-0.2c0.7-1.3,2.3-2.6,4.7-2.6C122.1,102.5,124.1,103.9,124.1,107z M134.7,107v10c0,0.8,0.5,1.6,2.4,1.6
				v0.2H127v-0.2c1.9,0,2.4-0.8,2.4-1.6v-10c0-1.8-0.7-2.7-2.2-2.7c-0.9,0-1.7,0.4-2.1,1v-0.2c0.7-1.3,2.3-2.6,4.7-2.6
				C132.7,102.5,134.7,103.9,134.7,107z"/>
			<path class="st2" d="M138.8,110.8c0-5.4,4.1-8.2,7.8-8.3v0.2c-1.9,0.2-2.4,1.8-2.4,7.9c0,4.6,2,7.1,4.9,7.1
				c1.8,0,3.2-0.5,4.7-1.7v0.2c-1.7,2.1-4.7,2.9-6.8,2.9C142.9,119.2,138.8,116.1,138.8,110.8z M146,109.4c2.8,0,4-0.9,4-3.6
				c0-1.5-0.6-2.9-2.1-3.1v-0.2c4.2,0,6.3,3,6.3,5.4c0,0.5-0.1,1.2-0.2,1.7h-8V109.4z"/>
			<path class="st2" d="M156.2,118.6c1.9,0,2.4-0.8,2.4-1.6v-11.4c0-1.2-0.5-1.7-2.4-1.7v-0.2c3,0,5.4-0.3,7.6-1.2V117
				c0,0.8,0.5,1.6,2.4,1.6v0.2h-10.1V118.6z M167.5,118.6c1.9,0,2.4-0.8,2.4-1.6v-10c0-1.8-0.9-2.7-2.5-2.7c-0.9,0-1.7,0.3-2.4,1
				v-0.2c0.9-1.3,2.9-2.6,5.3-2.6c2.9,0,4.9,1.3,4.9,4.5v10c0,0.8,0.5,1.6,2.4,1.6v0.2h-10V118.6z"/>
			<path class="st2" d="M191.1,116.4v0.2c-1,1.5-3.1,2.6-5.5,2.6c-2.9,0-4.9-1.3-4.9-4.5v-10.5H179l0.4-0.5h1.3v-3.5
				c2,0,3.9-0.6,5.2-1.8v5.2h4.3l-0.4,0.5h-4v10.6c0,1.6,0.6,3.3,2.1,3.3C189,118,190,117.4,191.1,116.4z"/>
			<path class="st2" d="M192.1,101.1c0-2.8,3.8-4.2,6.8-4.3v0.2c-1.5,0.4-2.3,1.8-2.3,3.1c0,1.2,0.4,2.2,1.8,2.8
				c-0.5,0.8-1.6,1.3-2.9,1.3C193.8,104.1,192.1,103.2,192.1,101.1z M196.8,118.1c0-1.8,1.4-2.9,3.4-2.9c2,0,3.4,1.2,3.4,2.9
				c0,1.8-1.4,2.9-3.4,2.9C198.2,121,196.8,119.9,196.8,118.1z M197.7,109.1c0-3.6,5.1-4.6,5.1-8.7c0-1.7-0.6-2.8-2.3-3.4v-0.2
				c4.4,0.3,7.7,1.7,7.7,5.3c0,4.4-6.9,5.7-6.9,8.5c0,0.8,0.3,1.4,1.2,1.9l0,0.2C199.2,112.6,197.7,111,197.7,109.1z"/>
		</g>
	</g>
</g>
</svg>
