<?xml version="1.0" encoding="utf-8"?>
<!-- Generator: Adobe Illustrator 24.0.3, SVG Export Plug-In . SVG Version: 6.00 Build 0)  -->
<svg version="1.1" id="Layer_1" xmlns="http://www.w3.org/2000/svg" xmlns:xlink="http://www.w3.org/1999/xlink" x="0px" y="0px"
	 viewBox="0 0 300 250" style="enable-background:new 0 0 300 250;" xml:space="preserve">
<style type="text/css">
	.st0{clip-path:url(#SVGID_2_);}
	.st1{enable-background:new    ;}
	.st2{fill:#FFFFFF;}
</style>
<title>Artboard 1</title>
<g>
	<defs>
		<rect id="SVGID_1_" y="0" width="300" height="250"/>
	</defs>
	<clipPath id="SVGID_2_">
		<use xlink:href="#SVGID_1_"  style="overflow:visible;"/>
	</clipPath>
	<g class="st0">
		<g class="st1">
			<path class="st2" d="M44.4,36l-7.2,16.9h-0.4l-9.2-19.9c-0.5-1.1-1.8-1.6-3.4-1.6v-0.2h8.6l6.7,14.5l4.9-10.2V36z M31.3,52.6v0.2
				h-7v-0.2c2.1,0,3.1-1.3,3.1-2.7l0.3-13.8l0.3,0.6L28.2,50C28.2,51.3,29.2,52.6,31.3,52.6z M51.2,32.9V51c0,0.9,0.5,1.6,2.4,1.6
				v0.2H43.3v-0.2c1.9,0,2.4-0.8,2.4-1.6V31.1h7.8v0.2C51.6,31.3,51.2,32,51.2,32.9z"/>
		</g>
		<g class="st1">
			<path class="st2" d="M63.7,36.7c-1.9,0.2-2.5,1.8-2.5,8.1c0,6,0.6,8,2.5,8.2v0.2c-3.7,0-8-3-8-8.4s4.2-8.2,8-8.3V36.7z
				 M72.9,44.8c0,5.3-4.3,8.4-7.9,8.4V53c1.9-0.2,2.5-2.2,2.5-8.2c0-6.3-0.6-7.9-2.5-8.1v-0.2C68.7,36.5,72.9,39.4,72.9,44.8z"/>
		</g>
		<g class="st1">
			<path class="st2" d="M82.7,51c0,0.8,0.5,1.6,2.4,1.6v0.2H75v-0.2c1.9,0,2.4-0.8,2.4-1.6V39.6c0-1.2-0.5-1.7-2.4-1.7v-0.2
				c3,0,5.4-0.3,7.6-1.2V51z M91.3,40c0,2.2-1.6,3.6-3.3,3.6c-0.8,0-1.4-0.2-1.8-0.7c0.6-0.3,1.2-1,1.2-2.2c0-0.9-0.7-1.7-1.8-1.7
				c-0.8,0-1.5,0.5-1.9,1.2V40c0.6-2,2.2-3.5,4.2-3.5C90.1,36.5,91.3,38,91.3,40z"/>
		</g>
		<g class="st1">
			<path class="st2" d="M93.1,44.8c0-5.4,4.1-8.2,7.8-8.3v0.2c-1.9,0.2-2.4,1.8-2.4,7.9c0,4.6,2,7.1,4.9,7.1c1.8,0,3.2-0.5,4.7-1.7
				v0.2c-1.7,2.1-4.7,2.9-6.8,2.9C97.2,53.2,93.1,50.1,93.1,44.8z M100.3,43.4c2.8,0,4-0.9,4-3.6c0-1.5-0.6-2.9-2.1-3.1v-0.2
				c4.2,0,6.3,3,6.3,5.4c0,0.5-0.1,1.2-0.2,1.7h-8V43.4z"/>
		</g>
		<g class="st1">
			<path class="st2" d="M24.8,76.8c0-5.4,4.1-8.2,7.8-8.3v0.2c-1.9,0.2-2.4,1.8-2.4,7.9c0,4.6,2,7.1,4.9,7.1c1.8,0,3.2-0.5,4.7-1.7
				v0.2c-1.7,2.1-4.7,2.9-6.8,2.9C28.9,85.2,24.8,82.1,24.8,76.8z M32,75.4c2.8,0,4-0.9,4-3.6c0-1.5-0.6-2.9-2.1-3.1v-0.2
				c4.2,0,6.3,3,6.3,5.4c0,0.5-0.1,1.2-0.2,1.7h-8V75.4z"/>
		</g>
		<g class="st1">
			<path class="st2" d="M42.8,70.1C42.5,69.5,42,69,41.1,69v-0.2h9V69c-1.1,0-1.6,0.8-1,1.9l4.2,8.7l-2.8,5.2h-0.2L42.8,70.1z
				 M54.5,76.5c0.5-1,0.9-2.4,0.9-4.1c0-1.8-1-3.4-3.3-3.4v-0.2h8V69c-1.1,0-1.5,0.4-2.1,1.5l-3.3,6.3L54.5,76.5z"/>
		</g>
		<g class="st1">
			<path class="st2" d="M60.4,76.8c0-5.4,4.1-8.2,7.8-8.3v0.2c-1.9,0.2-2.4,1.8-2.4,7.9c0,4.6,2,7.1,4.9,7.1c1.8,0,3.2-0.5,4.7-1.7
				v0.2c-1.7,2.1-4.7,2.9-6.8,2.9C64.5,85.2,60.4,82.1,60.4,76.8z M67.6,75.4c2.8,0,4-0.9,4-3.6c0-1.5-0.6-2.9-2.1-3.1v-0.2
				c4.2,0,6.3,3,6.3,5.4c0,0.5-0.1,1.2-0.2,1.7h-8V75.4z"/>
			<path class="st2" d="M85.5,83c0,0.8,0.5,1.6,2.4,1.6v0.2H77.8v-0.2c1.9,0,2.4-0.8,2.4-1.6V71.6c0-1.2-0.5-1.7-2.4-1.7v-0.2
				c3,0,5.4-0.3,7.6-1.2V83z M94.1,72c0,2.2-1.6,3.6-3.3,3.6c-0.8,0-1.4-0.2-1.8-0.7c0.6-0.3,1.2-1,1.2-2.2c0-0.9-0.7-1.7-1.8-1.7
				c-0.8,0-1.5,0.5-1.9,1.2V72c0.6-2,2.2-3.5,4.2-3.5C92.9,68.5,94.1,70,94.1,72z"/>
			<path class="st2" d="M96.3,70.1C96,69.5,95.5,69,94.5,69v-0.2h9V69c-1.1,0-1.6,0.8-1,1.9l4.2,8.7l-2.8,5.2h-0.2L96.3,70.1z
				 M94.9,90c0-1.4,1.1-2.5,2.8-3c-0.1,0.3-0.1,0.5-0.1,0.8c0,1.2,0.6,2.1,1.9,2.1c1.1,0,2-1.2,3.2-3.2h0.2c-1.8,3.3-3,6.1-5.2,6.1
				C95.9,92.8,94.9,91.6,94.9,90z M108,76.5c0.5-1,0.9-2.4,0.9-4.1c0-1.8-1-3.4-3.3-3.4v-0.2h8V69c-1.1,0-1.5,0.4-2.1,1.5l-3.3,6.3
				L108,76.5z"/>
			<path class="st2" d="M126.2,82.4v0.2c-1,1.5-3.1,2.6-5.5,2.6c-2.9,0-4.9-1.3-4.9-4.5V70.1h-1.7l0.4-0.5h1.3v-3.5
				c2,0,3.9-0.6,5.2-1.8v5.2h4.3l-0.4,0.5h-4v10.6c0,1.6,0.6,3.3,2.1,3.3C124,84,125.1,83.4,126.2,82.4z"/>
			<path class="st2" d="M134.4,83c0,0.8,0.5,1.6,2.4,1.6v0.2h-10.1v-0.2c1.9,0,2.4-0.8,2.4-1.6V64.4c0-1.2-0.5-1.7-2.4-1.7v-0.2
				c3,0,5.4-0.3,7.6-1.2V83z M145.6,73v10c0,0.8,0.5,1.6,2.4,1.6v0.2h-10v-0.2c1.9,0,2.4-0.8,2.4-1.6V73c0-1.8-0.9-2.7-2.5-2.7
				c-0.9,0-1.7,0.3-2.4,1v-0.2c0.9-1.3,2.9-2.6,5.3-2.6C143.6,68.5,145.6,69.9,145.6,73z"/>
			<path class="st2" d="M149.2,69.7c3,0,5.4-0.3,7.6-1.2V83c0,0.8,0.5,1.6,2.4,1.6v0.2h-10.1v-0.2c1.9,0,2.4-0.8,2.4-1.6V71.6
				c0-1.2-0.5-1.7-2.4-1.7V69.7z M150.9,63.7c0-1.7,1.3-2.8,3.3-2.8s3.3,1.1,3.3,2.8c0,1.7-1.3,2.8-3.3,2.8S150.9,65.4,150.9,63.7z"
				/>
			<path class="st2" d="M160.6,84.6c1.9,0,2.4-0.8,2.4-1.6V71.6c0-1.2-0.5-1.7-2.4-1.7v-0.2c3,0,5.4-0.3,7.6-1.2V83
				c0,0.8,0.5,1.6,2.4,1.6v0.2h-10.1V84.6z M171.9,84.6c1.9,0,2.4-0.8,2.4-1.6V73c0-1.8-0.9-2.7-2.5-2.7c-0.9,0-1.7,0.3-2.4,1v-0.2
				c0.9-1.3,2.9-2.6,5.3-2.6c2.9,0,4.9,1.3,4.9,4.5v10c0,0.8,0.5,1.6,2.4,1.6v0.2h-10V84.6z"/>
			<path class="st2" d="M183.8,74.3c0-4.2,3.9-5.7,7.2-5.8v0.2c-1.4,0.1-2,1.8-2,5.5c0,3.9,0.6,5.4,2,5.6V80
				C187.8,80,183.8,78.4,183.8,74.3z M192.3,92.6c3.2-0.4,4.2-2.1,4.2-3.3c0-4.4-12.5-0.5-12.5-6.2c0-1.3,0.7-2.3,2.1-3.3l0.1,0.2
				c-0.2,0.1-0.3,0.4-0.3,0.6c0,3.6,14.6-0.6,14.6,6.4c0,3.3-2.8,5.4-8.3,5.8V92.6z M184.1,89.9c0-1.9,2.3-2.5,4.9-2.5
				c-0.6,0.3-1.4,1.2-1.4,2.3c0,1.5,1.7,2.6,3.5,2.9v0.2C187.6,92.8,184.1,92.1,184.1,89.9z M192.3,79.8c1.6-0.1,2.2-1.7,2.2-5.6
				c0-3.7-0.7-5.4-2.2-5.5v-0.2c3.4,0.1,7.3,1.6,7.3,5.8c0,4.1-3.9,5.7-7.3,5.7V79.8z M194.1,67.9c0.5-1.6,2-3.8,4.2-3.8
				c1.7,0,2.7,0.9,2.7,2.4c0,1.6-1.4,2.5-2.6,2.5c0-1.3-0.7-2.1-1.7-2.1c-1,0-2,0.6-2.5,1.2L194.1,67.9z"/>
		</g>
		<g class="st1">
			<path class="st2" d="M36.6,114.4v0.2c-1,1.5-3.1,2.6-5.5,2.6c-2.9,0-4.9-1.3-4.9-4.5v-10.5h-1.7l0.4-0.5h1.3v-3.5
				c2,0,3.9-0.6,5.2-1.8v5.2h4.3l-0.4,0.5h-4v10.6c0,1.6,0.6,3.3,2.1,3.3C34.5,116,35.6,115.4,36.6,114.4z"/>
			<path class="st2" d="M44.9,115c0,0.8,0.5,1.6,2.4,1.6v0.2H37.2v-0.2c1.9,0,2.4-0.8,2.4-1.6V96.4c0-1.2-0.5-1.7-2.4-1.7v-0.2
				c3,0,5.4-0.3,7.6-1.2V115z M56.1,105v10c0,0.8,0.5,1.6,2.4,1.6v0.2h-10v-0.2c1.9,0,2.4-0.8,2.4-1.6v-10c0-1.8-0.9-2.7-2.5-2.7
				c-0.9,0-1.7,0.3-2.4,1v-0.2c0.9-1.3,2.9-2.6,5.3-2.6C54,100.5,56.1,101.9,56.1,105z"/>
			<path class="st2" d="M59.9,113.1c0-2.8,2.6-4.4,6.1-4.4h3.5v0.2h-1c-2.3,0-3.4,1.5-3.4,3.5c0,1.8,0.5,3.1,2,3.1
				c0.9,0,1.6-0.5,2.3-1.1v0.2c-1.1,1.2-2.8,2.6-5.1,2.6C61.7,117.2,59.9,115.6,59.9,113.1z M61.2,104c0-1.6,1.5-3.3,5.8-3.5v0.2
				c-1.3,0.2-2,1.2-2,2.3c0,1.2,0.8,1.9,2.1,2c-0.5,0.9-1.8,1.5-3.1,1.5C62.2,106.5,61.2,105.3,61.2,104z M70.5,113.5v-9.8
				c0-1.6-0.6-2.8-2.2-3v-0.2c5.3,0.2,7.4,2.2,7.4,6.4v7.8c0,0.9,0.3,1.3,0.9,1.3c0.5,0,1-0.5,1.5-1.4h0.2c-0.5,1.8-2.2,2.6-4.2,2.6
				C71.6,117.2,70.5,116.3,70.5,113.5z"/>
			<path class="st2" d="M79.3,116.6c1.9,0,2.4-0.8,2.4-1.6v-11.4c0-1.2-0.5-1.7-2.4-1.7v-0.2c3,0,5.4-0.3,7.6-1.2V115
				c0,0.8,0.5,1.6,2.4,1.6v0.2H79.3V116.6z M90.6,116.6c1.9,0,2.4-0.8,2.4-1.6v-10c0-1.8-0.9-2.7-2.5-2.7c-0.9,0-1.7,0.3-2.4,1v-0.2
				c0.9-1.3,2.9-2.6,5.3-2.6c2.9,0,4.9,1.3,4.9,4.5v10c0,0.8,0.5,1.6,2.4,1.6v0.2h-10V116.6z"/>
		</g>
		<g class="st1">
			<path class="st2" d="M24.5,145.1c0-2.8,2.6-4.4,6.1-4.4h3.5v0.2h-1c-2.3,0-3.4,1.5-3.4,3.5c0,1.8,0.5,3.1,2,3.1
				c0.9,0,1.6-0.5,2.3-1.1v0.2c-1.1,1.2-2.8,2.6-5.1,2.6C26.3,149.2,24.4,147.6,24.5,145.1z M25.8,136c0-1.6,1.5-3.3,5.8-3.5v0.2
				c-1.3,0.2-2,1.2-2,2.3c0,1.2,0.8,1.9,2.1,2c-0.5,0.9-1.8,1.5-3.1,1.5C26.8,138.5,25.8,137.3,25.8,136z M35,145.5v-9.8
				c0-1.6-0.6-2.8-2.2-3v-0.2c5.3,0.2,7.4,2.2,7.4,6.4v7.8c0,0.9,0.3,1.3,0.9,1.3c0.5,0,1-0.5,1.5-1.4h0.2c-0.5,1.8-2.2,2.6-4.2,2.6
				C36.2,149.2,35,148.3,35,145.5z"/>
		</g>
		<g class="st1">
			<path class="st2" d="M43.9,148.6c1.9,0,2.4-0.8,2.4-1.6v-11.4c0-1.2-0.5-1.7-2.4-1.7v-0.2c3,0,5.4-0.3,7.6-1.2V147
				c0,0.8,0.5,1.6,2.4,1.6v0.2H43.9V148.6z M55.2,148.6c1.9,0,2.4-0.8,2.4-1.6v-10c0-1.8-0.9-2.7-2.5-2.7c-0.9,0-1.7,0.3-2.4,1v-0.2
				c0.9-1.3,2.9-2.6,5.3-2.6c2.9,0,4.9,1.3,4.9,4.5v10c0,0.8,0.5,1.6,2.4,1.6v0.2h-10V148.6z"/>
		</g>
		<g class="st1">
			<path class="st2" d="M66.5,134.1c-0.3-0.7-0.8-1.1-1.8-1.1v-0.2h9v0.2c-1.1,0-1.6,0.8-1,1.9l4.2,8.7l-2.8,5.2h-0.2L66.5,134.1z
				 M65.1,154c0-1.4,1.1-2.5,2.8-3c-0.1,0.3-0.1,0.5-0.1,0.8c0,1.2,0.6,2.1,1.9,2.1c1.1,0,2-1.2,3.2-3.2h0.2c-1.8,3.3-3,6.1-5.2,6.1
				C66.1,156.8,65.1,155.6,65.1,154z M78.2,140.5c0.5-1,0.9-2.4,0.9-4.1c0-1.8-1-3.4-3.3-3.4v-0.2h8v0.2c-1.1,0-1.5,0.4-2.1,1.5
				l-3.3,6.3L78.2,140.5z"/>
		</g>
		<g class="st1">
			<path class="st2" d="M91.9,132.7c-1.9,0.2-2.5,1.8-2.5,8.1c0,6,0.6,8,2.5,8.2v0.2c-3.7,0-8-3-8-8.4s4.2-8.2,8-8.3V132.7z
				 M101.1,140.8c0,5.3-4.3,8.4-7.9,8.4V149c1.9-0.2,2.5-2.2,2.5-8.2c0-6.3-0.6-7.9-2.5-8.1v-0.2
				C96.9,132.5,101.1,135.4,101.1,140.8z"/>
			<path class="st2" d="M103.2,148.6c1.9,0,2.4-0.8,2.4-1.6v-11.4c0-1.2-0.5-1.7-2.4-1.7v-0.2c3,0,5.4-0.3,7.6-1.2V147
				c0,0.8,0.5,1.6,2.4,1.6v0.2h-10.1V148.6z M114.5,148.6c1.9,0,2.4-0.8,2.4-1.6v-10c0-1.8-0.9-2.7-2.5-2.7c-0.9,0-1.7,0.3-2.4,1
				v-0.2c0.9-1.3,2.9-2.6,5.3-2.6c2.9,0,4.9,1.3,4.9,4.5v10c0,0.8,0.5,1.6,2.4,1.6v0.2h-10V148.6z"/>
			<path class="st2" d="M126.3,140.8c0-5.4,4.1-8.2,7.8-8.3v0.2c-1.9,0.2-2.4,1.8-2.4,7.9c0,4.6,2,7.1,4.9,7.1
				c1.8,0,3.2-0.5,4.7-1.7v0.2c-1.7,2.1-4.7,2.9-6.8,2.9C130.4,149.2,126.3,146.1,126.3,140.8z M133.5,139.4c2.8,0,4-0.9,4-3.6
				c0-1.5-0.6-2.9-2.1-3.1v-0.2c4.2,0,6.3,3,6.3,5.4c0,0.5-0.1,1.2-0.2,1.7h-8V139.4z"/>
		</g>
		<g class="st1">
			<path class="st2" d="M24.8,172.8c0-5.4,4.1-8.2,7.8-8.3v0.2c-1.9,0.2-2.4,1.8-2.4,7.9c0,4.6,2,7.1,4.9,7.1c1.8,0,3.2-0.5,4.7-1.7
				v0.2c-1.7,2.1-4.7,2.9-6.8,2.9C28.9,181.2,24.8,178.1,24.8,172.8z M32,171.4c2.8,0,4-0.9,4-3.6c0-1.5-0.6-2.9-2.1-3.1v-0.2
				c4.2,0,6.3,3,6.3,5.4c0,0.5-0.1,1.2-0.2,1.7h-8V171.4z"/>
			<path class="st2" d="M42.1,158.6c3,0,5.4-0.3,7.6-1.2V179c0,0.8,0.5,1.6,2.4,1.6v0.2H42v-0.2c1.9,0,2.4-0.8,2.4-1.6v-18.6
				c0-1.2-0.5-1.7-2.4-1.7V158.6z"/>
			<path class="st2" d="M59.6,177c-1.1,0-1.8,0.6-1.8,1.6c0,0.9,0.6,2.1,2.8,2.3v0.2c-4.3-0.2-6.6-1.3-6.6-3.2
				c0-1.5,1.3-2.4,2.7-2.4C58.1,175.6,59.1,176.2,59.6,177z M60.7,164.7c-1.2,0.2-2.3,0.8-2.3,2.1c0.1,3.7,10.5,4.3,10.5,9.4
				c0,3.1-2.6,4.7-6.8,4.9V181c1.3-0.2,2.8-0.7,2.8-2.4c0-3.3-10.5-4.5-10.5-9.4c0-2.8,2.7-4.5,6.2-4.7V164.7z M68.2,167.8
				c0,1-0.8,2-2.4,2c-1.3,0-2.3-0.6-2.7-1.5c1-0.1,1.5-0.7,1.4-1.5c0-1-1.2-1.9-2.5-2v-0.2C65.7,164.7,68.2,166,68.2,167.8z"/>
			<path class="st2" d="M71.5,172.8c0-5.4,4.1-8.2,7.8-8.3v0.2c-1.9,0.2-2.4,1.8-2.4,7.9c0,4.6,2,7.1,4.9,7.1c1.8,0,3.2-0.5,4.7-1.7
				v0.2c-1.7,2.1-4.7,2.9-6.8,2.9C75.6,181.2,71.5,178.1,71.5,172.8z M78.7,171.4c2.8,0,4-0.9,4-3.6c0-1.5-0.6-2.9-2.1-3.1v-0.2
				c4.2,0,6.3,3,6.3,5.4c0,0.5-0.1,1.2-0.2,1.7h-8V171.4z"/>
		</g>
	</g>
</g>
</svg>
