<svg id="Layer_1" data-name="Layer 1" xmlns="http://www.w3.org/2000/svg" xmlns:xlink="http://www.w3.org/1999/xlink" viewBox="0 0 300 250"><defs><style>.cls-1{fill:none;}.cls-2{clip-path:url(#clip-path);}.cls-3{fill:#fff;}</style><clipPath id="clip-path"><rect class="cls-1" width="300" height="250"/></clipPath></defs><title>Artboard 1 copy</title><g class="cls-2"><path class="cls-3" d="M40.19,54.66v.17h-9v-.17c1.68,0,2.1-.67,2.1-1.42V37.36c0-.81-.42-1.4-2.1-1.4v-.17h6.86V53.24C38.06,54,38.48,54.66,40.19,54.66Zm10.92-1.82c-.45,1.54-2.1,2.27-4.14,2.27-3.64,0-4.48-2.52-4.65-4.87s-.39-4.09-2.86-4.45v-.17c2.58,0,3.73-2.24,3.73-5C43.19,37.44,42,36,39.46,36v-.17c5.69,0,8.49,1.26,8.49,4.79,0,3-2.24,4.87-6.41,5.12,5.09.23,5.88,2.22,6.16,4.54s.89,3.86,1.84,3.86c.51,0,1-.42,1.4-1.26Z"/><path class="cls-3" d="M51.7,47.78a6.93,6.93,0,0,1,6.86-7.23v.17c-1.65.2-2.1,1.6-2.1,6.94,0,4,1.79,6.25,4.28,6.25a6.07,6.07,0,0,0,4.09-1.49v.17a7.82,7.82,0,0,1-5.93,2.52A7.09,7.09,0,0,1,51.7,47.78ZM58,46.6c2.46,0,3.5-.78,3.5-3.14,0-1.34-.56-2.57-1.82-2.74v-.17c3.7,0,5.49,2.63,5.49,4.76A8.71,8.71,0,0,1,65,46.77H58Z"/><path class="cls-3" d="M67.18,51.53c0-2.44,2.24-3.81,5.38-3.81h3v.17h-.84a2.77,2.77,0,0,0-3,3c0,1.54.44,2.72,1.76,2.72a3.06,3.06,0,0,0,2-1v.16a5.92,5.92,0,0,1-4.45,2.27C68.75,55.11,67.16,53.77,67.18,51.53ZM68.3,43.6c0-1.42,1.29-2.88,5.1-3.05v.17a2,2,0,0,0-1.79,2c0,1,.7,1.63,1.82,1.71a3.14,3.14,0,0,1-2.69,1.35A2.25,2.25,0,0,1,68.3,43.6ZM76.42,52V43.38c0-1.37-.53-2.46-1.9-2.66v-.17c4.65.17,6.5,1.93,6.5,5.6V53c0,.81.28,1.14.78,1.14s.9-.42,1.34-1.26h.17c-.45,1.54-2,2.27-3.64,2.27C77.43,55.11,76.42,54.33,76.42,52Z"/><path class="cls-3" d="M94.62,42.79V43a3.1,3.1,0,0,0-2.32-1c-1.4,0-2.74.64-2.74,5.71s1.42,6,2.74,6a3.84,3.84,0,0,0,2.32-1v.16a5.18,5.18,0,0,1-4.06,2.27c-2.66,0-5.76-1.57-5.76-7.42,0-5.57,3-7.14,5.76-7.14A5.18,5.18,0,0,1,94.62,42.79ZM100.08,53c0,.81.26,1.14.76,1.14s.9-.42,1.34-1.26h.17c-.45,1.54-2,2.27-3.64,2.27-2.24,0-3.25-.78-3.25-3.16V37c0-1-.47-1.49-2.07-1.49v-.17a18.36,18.36,0,0,0,6.69-1.09Z"/><path class="cls-3" d="M104,42a1.51,1.51,0,0,0-1.54-1v-.17h7.84V41c-1,0-1.37.67-.9,1.65L113,50.3l-2.41,4.53h-.17Zm-1.23,17.36a2.93,2.93,0,0,1,2.46-2.63,2.22,2.22,0,0,0-.11.7,1.63,1.63,0,0,0,1.65,1.87c1,0,1.76-1,2.83-2.82h.19c-1.54,2.88-2.6,5.37-4.56,5.37A2.32,2.32,0,0,1,102.72,59.34ZM114.2,47.55a7.73,7.73,0,0,0,.78-3.61A2.71,2.71,0,0,0,112.12,41v-.17h7V41c-.93,0-1.29.36-1.82,1.32l-2.92,5.48Z"/><path class="cls-3" d="M135.14,41.56l-.31.42h-2.74V53.24c0,.7.45,1.42,2.13,1.42v.17h-8.85v-.17c1.68,0,2.1-.72,2.1-1.42V42h-1.82l.31-.42h1.51V40.3c0-4,2.07-5.66,4.65-6v.17c-1,.36-1.66,1.26-1.66,3S131.56,41.56,135.14,41.56Zm2.38-4.28a2.38,2.38,0,0,1-2.44,2.46,2.9,2.9,0,0,1-2.82-1.88,1.76,1.76,0,0,0,2-1.79,1.63,1.63,0,0,0-1-1.65v-.17C136.2,34.36,137.52,35.68,137.52,37.28Z"/><path class="cls-3" d="M143.43,40.72c-1.65.2-2.21,1.6-2.21,7.06,0,5.26.56,7,2.21,7.16v.17a7.13,7.13,0,0,1-7-7.33,7,7,0,0,1,7-7.23Zm8.06,7.06a7.13,7.13,0,0,1-6.94,7.33v-.17c1.65-.16,2.18-1.93,2.18-7.16,0-5.49-.56-6.89-2.18-7.06v-.17A7,7,0,0,1,151.49,47.78Z"/><path class="cls-3" d="M160.06,53.24c0,.7.42,1.42,2.1,1.42v.17h-8.82v-.17c1.68,0,2.1-.72,2.1-1.42V43.3c0-1-.48-1.49-2.07-1.49v-.17a17.19,17.19,0,0,0,6.69-1.09Zm7.56-9.66a3,3,0,0,1-2.88,3.19,1.9,1.9,0,0,1-1.6-.62,2,2,0,0,0,1.09-1.9,1.49,1.49,0,0,0-1.57-1.51A1.94,1.94,0,0,0,161,43.8v-.22a3.88,3.88,0,0,1,3.64-3A2.85,2.85,0,0,1,167.62,43.58Z"/><path class="cls-3" d="M41.54,82.68v.16a5.86,5.86,0,0,1-4.79,2.27c-2.52,0-4.31-1.15-4.31-4V72H31l.31-.42h1.15v-3A7.13,7.13,0,0,0,37,67v4.59h3.78L40.5,72H37v9.27c0,1.4.53,2.85,1.85,2.85A4.15,4.15,0,0,0,41.54,82.68Z"/><path class="cls-3" d="M48.76,83.24c0,.7.42,1.42,2.1,1.42v.17H42v-.17c1.68,0,2.1-.72,2.1-1.42V67c0-1-.48-1.49-2.07-1.49v-.17a17.19,17.19,0,0,0,6.69-1.09Zm9.8-8.74v8.74c0,.7.42,1.42,2.1,1.42v.17H51.87v-.17c1.65,0,2.07-.72,2.07-1.42V74.5c0-1.57-.81-2.38-2.21-2.38A3,3,0,0,0,49.6,73v-.17a5.72,5.72,0,0,1,4.65-2.27C56.77,70.55,58.56,71.73,58.56,74.5Z"/><path class="cls-3" d="M62.17,77.78A6.94,6.94,0,0,1,69,70.55v.17c-1.65.2-2.1,1.6-2.1,6.94,0,4,1.79,6.25,4.29,6.25a6.06,6.06,0,0,0,4.08-1.49v.17a7.82,7.82,0,0,1-5.93,2.52A7.09,7.09,0,0,1,62.17,77.78Zm6.3-1.18c2.47,0,3.5-.78,3.5-3.14,0-1.34-.56-2.57-1.82-2.74v-.17c3.7,0,5.49,2.63,5.49,4.76a8.71,8.71,0,0,1-.14,1.46h-7Z"/><path class="cls-3" d="M92.19,84.94v.17a10.65,10.65,0,0,1-5.44-1.37l-.92,1.37h-.22V78.28h.22A9.37,9.37,0,0,0,92.19,84.94Zm8.23-5.57c0,3.61-2.69,5.57-7,5.74v-.17c1.54-.28,3-1.17,3-2.85,0-4.9-10.69-5.35-10.69-11,0-3.35,2.71-5.29,6.44-5.54v.17a2.65,2.65,0,0,0-2.47,2.58C89.72,73.16,100.42,73.69,100.42,79.37Zm-7-13.69v-.17a9,9,0,0,1,5,1.49l1-1.49h.22v6.25h-.22A8.9,8.9,0,0,0,93.39,65.68Z"/><path class="cls-3" d="M113.19,82.68v.16a5.86,5.86,0,0,1-4.79,2.27c-2.52,0-4.31-1.15-4.31-4V72h-1.46l.31-.42h1.15v-3A7.13,7.13,0,0,0,108.68,67v4.59h3.78l-.31.42h-3.47v9.27c0,1.4.53,2.85,1.85,2.85A4.15,4.15,0,0,0,113.19,82.68Z"/><path class="cls-3" d="M114.08,81.53c0-2.44,2.24-3.81,5.38-3.81h3v.17h-.84a2.77,2.77,0,0,0-3,3c0,1.54.45,2.72,1.77,2.72a3.06,3.06,0,0,0,2-1v.16A5.92,5.92,0,0,1,118,85.11C115.65,85.11,114.05,83.77,114.08,81.53Zm1.12-7.93c0-1.42,1.29-2.88,5.1-3v.17a2,2,0,0,0-1.79,2c0,1,.7,1.63,1.82,1.71a3.14,3.14,0,0,1-2.69,1.35A2.25,2.25,0,0,1,115.2,73.6ZM123.32,82V73.38c0-1.37-.53-2.46-1.9-2.66v-.17c4.65.17,6.5,1.93,6.5,5.6V83c0,.81.27,1.14.78,1.14s.89-.42,1.34-1.26h.17c-.45,1.54-2,2.27-3.64,2.27C124.33,85.11,123.32,84.33,123.32,82Z"/><path class="cls-3" d="M137.8,83.24c0,.7.42,1.42,2.1,1.42v.17h-8.82v-.17c1.68,0,2.1-.72,2.1-1.42V73.3c0-1-.48-1.49-2.07-1.49v-.17a17.19,17.19,0,0,0,6.69-1.09Zm7.56-9.66a3,3,0,0,1-2.89,3.19,1.88,1.88,0,0,1-1.59-.62,2,2,0,0,0,1.09-1.9,1.49,1.49,0,0,0-1.57-1.51,1.93,1.93,0,0,0-1.68,1.06v-.22a3.88,3.88,0,0,1,3.64-3A2.85,2.85,0,0,1,145.36,73.58Z"/><path class="cls-3" d="M41.54,112.68v.16a5.86,5.86,0,0,1-4.79,2.27c-2.52,0-4.31-1.15-4.31-4V102H31l.31-.42h1.15v-3A7.13,7.13,0,0,0,37,97v4.59h3.78l-.31.42H37v9.27c0,1.4.53,2.85,1.85,2.85A4.15,4.15,0,0,0,41.54,112.68Z"/><path class="cls-3" d="M48.93,113.24c0,.7.42,1.42,2.1,1.42v.17H42.21v-.17c1.68,0,2.1-.72,2.1-1.42V103.3c0-1-.48-1.49-2.07-1.49v-.17a17.19,17.19,0,0,0,6.69-1.09Zm7.56-9.66a3,3,0,0,1-2.89,3.19,1.88,1.88,0,0,1-1.59-.62,2,2,0,0,0,1.09-1.9,1.49,1.49,0,0,0-1.57-1.51,1.93,1.93,0,0,0-1.68,1.06v-.22a3.88,3.88,0,0,1,3.64-3A2.85,2.85,0,0,1,56.49,103.58Z"/><path class="cls-3" d="M58,107.78a6.93,6.93,0,0,1,6.86-7.23v.17c-1.65.2-2.1,1.6-2.1,6.94,0,4,1.79,6.25,4.28,6.25a6.07,6.07,0,0,0,4.09-1.49v.17a7.82,7.82,0,0,1-5.93,2.52A7.09,7.09,0,0,1,58,107.78Zm6.3-1.18c2.46,0,3.5-.78,3.5-3.14,0-1.34-.56-2.57-1.82-2.74v-.17c3.7,0,5.49,2.63,5.49,4.76a8.71,8.71,0,0,1-.14,1.46h-7Z"/><path class="cls-3" d="M73.48,111.53c0-2.44,2.24-3.81,5.38-3.81h3v.17H81a2.77,2.77,0,0,0-3,3c0,1.54.44,2.72,1.76,2.72a3.06,3.06,0,0,0,2-1v.16a5.92,5.92,0,0,1-4.45,2.27C75.05,115.11,73.46,113.77,73.48,111.53Zm1.12-7.93c0-1.42,1.29-2.88,5.1-3v.17a2,2,0,0,0-1.79,2c0,1,.7,1.63,1.82,1.71A3.14,3.14,0,0,1,77,105.82,2.25,2.25,0,0,1,74.6,103.6ZM82.72,112v-8.57c0-1.37-.53-2.46-1.9-2.66v-.17c4.65.17,6.5,1.93,6.5,5.6V113c0,.81.27,1.14.78,1.14s.9-.42,1.34-1.26h.17c-.45,1.54-2,2.27-3.64,2.27C83.73,115.11,82.72,114.33,82.72,112Z"/><path class="cls-3" d="M101.34,112.68v.16a5.83,5.83,0,0,1-4.79,2.27c-2.51,0-4.31-1.15-4.31-4V102H90.79l.3-.42h1.15v-3A7.09,7.09,0,0,0,96.83,97v4.59h3.79l-.31.42H96.83v9.27c0,1.4.54,2.85,1.85,2.85A4.11,4.11,0,0,0,101.34,112.68Z"/><path class="cls-3" d="M108.73,113.24c0,.7.42,1.42,2.1,1.42v.17H102v-.17c1.68,0,2.1-.72,2.1-1.42V103.3c0-1-.47-1.49-2.07-1.49v-.17a17.12,17.12,0,0,0,6.69-1.09Zm9.3-8.74v8.74c0,.7.39,1.42,2.07,1.42v.17h-8.79v-.17c1.65,0,2.1-.72,2.1-1.42V104.5c0-1.57-.62-2.38-2-2.38a2.47,2.47,0,0,0-1.85.84v-.17a4.56,4.56,0,0,1,4.09-2.24C116.35,100.55,118,101.73,118,104.5Zm9.27,0v8.74c0,.7.42,1.42,2.1,1.42v.17h-8.82v-.17c1.65,0,2.1-.72,2.1-1.42V104.5c0-1.57-.62-2.38-2-2.38a2.44,2.44,0,0,0-1.85.84v-.17a4.53,4.53,0,0,1,4.09-2.24C125.62,100.55,127.3,101.73,127.3,104.5Z"/><path class="cls-3" d="M130.91,107.78a6.93,6.93,0,0,1,6.86-7.23v.17c-1.65.2-2.1,1.6-2.1,6.94,0,4,1.79,6.25,4.28,6.25a6.07,6.07,0,0,0,4.09-1.49v.17a7.82,7.82,0,0,1-5.93,2.52A7.09,7.09,0,0,1,130.91,107.78Zm6.3-1.18c2.46,0,3.5-.78,3.5-3.14,0-1.34-.56-2.57-1.82-2.74v-.17c3.7,0,5.49,2.63,5.49,4.76a8.71,8.71,0,0,1-.14,1.46h-7Z"/><path class="cls-3" d="M146.17,114.66c1.68,0,2.1-.72,2.1-1.42V103.3c0-1-.48-1.49-2.07-1.49v-.17a17.19,17.19,0,0,0,6.69-1.09v12.69c0,.7.42,1.42,2.1,1.42v.17h-8.82Zm9.86,0c1.65,0,2.07-.72,2.07-1.42V104.5c0-1.57-.81-2.38-2.21-2.38a3,3,0,0,0-2.13.87v-.17a5.69,5.69,0,0,1,4.65-2.27c2.52,0,4.31,1.18,4.31,4v8.74c0,.7.42,1.42,2.1,1.42v.17H156Z"/><path class="cls-3" d="M176.69,112.68v.16a5.86,5.86,0,0,1-4.79,2.27c-2.52,0-4.31-1.15-4.31-4V102h-1.46l.31-.42h1.15v-3A7.09,7.09,0,0,0,172.18,97v4.59H176l-.31.42h-3.47v9.27c0,1.4.53,2.85,1.85,2.85A4.13,4.13,0,0,0,176.69,112.68Z"/><path class="cls-3" d="M177.56,99.29c0-2.49,3.36-3.69,5.91-3.78v.17a2.77,2.77,0,0,0-2,2.72,2.38,2.38,0,0,0,1.57,2.4,3.07,3.07,0,0,1-2.58,1.12A2.64,2.64,0,0,1,177.56,99.29Zm4.11,14.87c0-1.54,1.24-2.55,3-2.55s3,1,3,2.55-1.24,2.58-3,2.58S181.67,115.73,181.67,114.16Zm.76-7.87c0-3.13,4.45-4.06,4.45-7.64a2.76,2.76,0,0,0-2-3v-.17c3.86.25,6.77,1.51,6.77,4.62,0,3.81-6.07,5-6.07,7.48a1.66,1.66,0,0,0,1,1.62l0,.17C183.75,109.4,182.43,108,182.43,106.29Z"/></g></svg>