<svg id="Layer_1" data-name="Layer 1" xmlns="http://www.w3.org/2000/svg" xmlns:xlink="http://www.w3.org/1999/xlink" viewBox="0 0 300 250"><defs><style>.cls-1{fill:none;}.cls-2{clip-path:url(#clip-path);}.cls-3{font-size:32px;fill:#fff;font-family:GabrielaStencil-Black, Gabriela Stencil;font-weight:800;}.cls-4{letter-spacing:-0.01em;}.cls-5{letter-spacing:-0.01em;}.cls-6{letter-spacing:-0.03em;}.cls-7{letter-spacing:0em;}.cls-8{letter-spacing:-0.03em;}.cls-9{letter-spacing:-0.01em;}.cls-10{letter-spacing:-0.01em;}.cls-11{clip-path:url(#clip-path-2);}</style><clipPath id="clip-path"><rect class="cls-1" x="-0.23" y="-0.41" width="300" height="250"/></clipPath><clipPath id="clip-path-2"><rect class="cls-1" width="300" height="250"/></clipPath></defs><title>Artboard 1 copy</title><g class="cls-2"><text class="cls-3" transform="translate(23.21 54.42)"><tspan class="cls-4">R</tspan><tspan x="23.46" y="0">ea</tspan><tspan class="cls-5" x="61.15" y="0">d</tspan><tspan class="cls-6" x="82.91" y="0">y</tspan><tspan x="100.13" y="0"> </tspan><tspan class="cls-7" x="108.26" y="0">f</tspan><tspan x="120.32" y="0">o</tspan><tspan class="cls-8" x="140.19" y="0">r</tspan><tspan x="157.02" y="0"> </tspan><tspan x="0" y="32">the </tspan><tspan class="cls-9" x="61.57" y="32">S</tspan><tspan x="81.89" y="32">ta</tspan><tspan class="cls-8" x="114.75" y="32">r</tspan><tspan x="131.58" y="32"> </tspan><tspan x="0" y="64">t</tspan><tspan class="cls-10" x="13.18" y="64">r</tspan><tspan x="30.66" y="64">eatment?</tspan></text></g><g class="cls-11"><text class="cls-3" transform="translate(23.45 54.83)"><tspan class="cls-4">R</tspan><tspan x="23.46" y="0">ea</tspan><tspan class="cls-5" x="61.15" y="0">d</tspan><tspan class="cls-6" x="82.91" y="0">y</tspan><tspan x="100.13" y="0"> </tspan><tspan class="cls-7" x="108.26" y="0">f</tspan><tspan x="120.32" y="0">o</tspan><tspan class="cls-8" x="140.19" y="0">r</tspan><tspan x="157.02" y="0"> </tspan><tspan x="0" y="32">the </tspan><tspan class="cls-9" x="61.57" y="32">S</tspan><tspan x="81.89" y="32">ta</tspan><tspan class="cls-8" x="114.75" y="32">r</tspan><tspan x="131.58" y="32"> </tspan><tspan x="0" y="64">t</tspan><tspan class="cls-10" x="13.18" y="64">r</tspan><tspan x="30.66" y="64">eatment?</tspan></text></g></svg>