<svg id="Layer_1" data-name="Layer 1" xmlns="http://www.w3.org/2000/svg" xmlns:xlink="http://www.w3.org/1999/xlink" viewBox="0 0 300.25 250.25"><defs><style>.cls-1{fill:none;}.cls-2{clip-path:url(#clip-path);}.cls-3{fill:#fb0010;}.cls-4{fill:#fff;}</style><clipPath id="clip-path"><rect class="cls-1" x="0.13" y="0.13" width="300" height="250"/></clipPath></defs><title>Artboard 6</title><rect class="cls-1" x="-0.11" y="0.18" width="300" height="250"/><g class="cls-2"><path class="cls-3" d="M27.67,222.74h142a12.16,12.16,0,0,0,10.8-6.56l16-30.85a12.17,12.17,0,0,0,0-11.2l-16-30.85a12.16,12.16,0,0,0-10.8-6.56h-142a7.38,7.38,0,0,0-7.39,7.38v71.26A7.38,7.38,0,0,0,27.67,222.74Z"/><path class="cls-4" d="M84.41,169.14l.3-.44c.22-.3.45-.31.79-.12a3.37,3.37,0,0,0,2,.71c.9,0,1.45-.45,1.45-1.1,0-1.84-4.51-1.46-4.51-4.47,0-1.71,1.41-2.81,3.25-2.81a4.44,4.44,0,0,1,2.49.74.53.53,0,0,1,.18.77l-.24.45c-.21.4-.49.34-.78.19a3.18,3.18,0,0,0-1.68-.53c-.89,0-1.47.44-1.47,1.09,0,1.81,4.51,1.35,4.51,4.43a2.9,2.9,0,0,1-3.2,2.86,5.11,5.11,0,0,1-3-1A.51.51,0,0,1,84.41,169.14Z"/><path class="cls-4" d="M94.56,162.59H92a.5.5,0,0,1-.57-.56v-.38a.52.52,0,0,1,.57-.58h7a.52.52,0,0,1,.56.58V162a.51.51,0,0,1-.56.56H96.3v7.58a.51.51,0,0,1-.57.58h-.61a.5.5,0,0,1-.56-.58Z"/><path class="cls-4" d="M101.76,161.54a.62.62,0,0,1,.64-.47h.88a.61.61,0,0,1,.64.47l3,8.55c.14.4,0,.66-.46.66h-.63a.61.61,0,0,1-.64-.47l-.68-2h-3.39l-.67,2a.61.61,0,0,1-.64.48H99.2c-.42,0-.6-.26-.46-.66Zm2.33,5.3-.85-2.59c-.17-.55-.39-1.5-.39-1.5h0s-.22.95-.38,1.5l-.88,2.59Z"/><path class="cls-4" d="M108.16,161.65a.51.51,0,0,1,.56-.58h2.62a4.4,4.4,0,0,1,1.84.26A2.7,2.7,0,0,1,114.8,164a2.8,2.8,0,0,1-1.61,2.64v0a3.74,3.74,0,0,1,.31.5l1.6,2.92c.23.39.05.68-.4.68H114a.7.7,0,0,1-.67-.4l-1.7-3.21h-1.69v3a.5.5,0,0,1-.56.58h-.63a.5.5,0,0,1-.56-.58Zm3.33,4a1.42,1.42,0,0,0,1.52-1.54,1.3,1.3,0,0,0-.76-1.32,2.41,2.41,0,0,0-1-.16h-1.29v3Z"/><path class="cls-4" d="M85.05,173.46a.3.3,0,0,1,.33-.34h.28a.31.31,0,0,1,.33.34v8.9a.3.3,0,0,1-.33.34h-.28a.3.3,0,0,1-.33-.34Z"/><path class="cls-4" d="M88.26,176.19a.31.31,0,0,1,.34-.34h.24a.3.3,0,0,1,.33.34V177a2.07,2.07,0,0,1-.06.49h0a3,3,0,0,1,2.77-1.79c1.7,0,2.3,1,2.3,2.66v4a.31.31,0,0,1-.34.34h-.26a.3.3,0,0,1-.33-.34v-3.77c0-1.08-.17-2-1.49-2a2.66,2.66,0,0,0-2.61,2.79v3a.3.3,0,0,1-.32.34H88.6a.31.31,0,0,1-.34-.34Z"/><path class="cls-4" d="M95.68,181.61l.11-.13c.12-.17.27-.18.46-.06a3,3,0,0,0,1.82.63c.76,0,1.39-.38,1.39-1.11,0-1.54-3.67-1.07-3.67-3.33,0-1.27,1.08-1.93,2.33-1.93a3.18,3.18,0,0,1,1.88.56.29.29,0,0,1,.1.45l-.1.15a.3.3,0,0,1-.46.1,2.55,2.55,0,0,0-1.47-.44c-.72,0-1.35.32-1.35,1.06,0,1.59,3.65,1.08,3.65,3.37a2.06,2.06,0,0,1-2.32,1.93,3.53,3.53,0,0,1-2.31-.79A.3.3,0,0,1,95.68,181.61Z"/><path class="cls-4" d="M101.74,176.19a.3.3,0,0,1,.33-.34h.26a.31.31,0,0,1,.34.34V180c0,1.08.16,2,1.49,2a2.66,2.66,0,0,0,2.53-2.86v-2.94a.31.31,0,0,1,.34-.34h.26a.3.3,0,0,1,.33.34v6.17a.3.3,0,0,1-.33.34H107a.3.3,0,0,1-.32-.34v-.79a3.06,3.06,0,0,1,0-.49h0a3,3,0,0,1-2.7,1.78c-1.62,0-2.29-.87-2.29-2.65Z"/><path class="cls-4" d="M109.62,176.19a.31.31,0,0,1,.34-.34h.25a.31.31,0,0,1,.33.34v.93a2.59,2.59,0,0,1-.06.54h0a2.45,2.45,0,0,1,2.21-1.85c.24,0,.35.11.35.32v.25c0,.22-.15.34-.38.34-1.44,0-2.14,1.65-2.14,3.08v2.56a.3.3,0,0,1-.33.34H110a.31.31,0,0,1-.34-.34Z"/><path class="cls-4" d="M117.79,178.5h.39v-.21c0-1.32-.72-1.77-1.69-1.77a3.25,3.25,0,0,0-1.66.47.31.31,0,0,1-.46-.11l-.08-.13a.32.32,0,0,1,.09-.47,4.28,4.28,0,0,1,2.18-.6,2.33,2.33,0,0,1,2.55,2.63v4.05a.3.3,0,0,1-.33.34h-.21a.3.3,0,0,1-.34-.34v-.54a2.92,2.92,0,0,1,0-.52h0a2.55,2.55,0,0,1-2.32,1.56,2.1,2.1,0,0,1-2.31-2C113.61,178.63,116.47,178.5,117.79,178.5Zm-1.7,3.59a2.38,2.38,0,0,0,2.09-2.56v-.33h-.38c-1.07,0-3.24,0-3.24,1.58A1.37,1.37,0,0,0,116.09,182.09Z"/><path class="cls-4" d="M121.05,176.19a.31.31,0,0,1,.35-.34h.24a.31.31,0,0,1,.33.34V177a2.07,2.07,0,0,1-.06.49h0a3,3,0,0,1,2.77-1.79c1.7,0,2.3,1,2.3,2.66v4a.31.31,0,0,1-.34.34h-.26a.3.3,0,0,1-.33-.34v-3.77c0-1.08-.18-2-1.5-2a2.66,2.66,0,0,0-2.6,2.79v3a.3.3,0,0,1-.33.34h-.25a.31.31,0,0,1-.35-.34Z"/><path class="cls-4" d="M132.13,175.68a3.6,3.6,0,0,1,2.28.78.29.29,0,0,1,0,.46l-.1.15c-.12.2-.27.2-.46.07a2.84,2.84,0,0,0-1.73-.62,2.76,2.76,0,0,0,0,5.51,3,3,0,0,0,1.94-.72.27.27,0,0,1,.45.08l.09.14a.32.32,0,0,1-.08.46,3.77,3.77,0,0,1-2.44.87,3.59,3.59,0,1,1,0-7.18Z"/><path class="cls-4" d="M138.88,175.68c1.83,0,2.86,1.33,2.86,3.27a.34.34,0,0,1-.35.35h-4.93a2.6,2.6,0,0,0,2.65,2.73,3,3,0,0,0,1.8-.62.28.28,0,0,1,.45.08l.11.16a.31.31,0,0,1-.09.45,4,4,0,0,1-2.29.76,3.46,3.46,0,0,1-3.59-3.58A3.35,3.35,0,0,1,138.88,175.68Zm1.92,2.92a2,2,0,0,0-2-2.15,2.36,2.36,0,0,0-2.35,2.15Z"/><path class="cls-4" d="M89.25,185.74a5.38,5.38,0,0,1,3.16,1,.53.53,0,0,1,.11.79l-.25.39c-.19.31-.45.34-.78.14a3.94,3.94,0,0,0-2.18-.68,3.12,3.12,0,0,0-3.24,3.32,3.24,3.24,0,0,0,3.26,3.46,4.1,4.1,0,0,0,2.37-.84.49.49,0,0,1,.79.09l.27.37a.53.53,0,0,1-.08.79,5.4,5.4,0,0,1-3.42,1.2,5,5,0,0,1,0-10Z"/><path class="cls-4" d="M97.82,191.28h.28v-.16a1.14,1.14,0,0,0-1.29-1.23,3.12,3.12,0,0,0-1.45.4.51.51,0,0,1-.76-.23l-.14-.26a.51.51,0,0,1,.22-.76,4.82,4.82,0,0,1,2.28-.58,2.58,2.58,0,0,1,2.87,2.77V195a.51.51,0,0,1-.57.58H98.8a.5.5,0,0,1-.56-.58v-.27a1.25,1.25,0,0,1,0-.3h0a2.54,2.54,0,0,1-2.18,1.31,2.13,2.13,0,0,1-2.3-2.09C93.76,191.62,96.26,191.28,97.82,191.28Zm-1.3,3.14a1.77,1.77,0,0,0,1.6-1.83v-.26h-.29c-.87,0-2.36.14-2.36,1.17A1,1,0,0,0,96.52,194.42Z"/><path class="cls-4" d="M101.47,189.2a.5.5,0,0,1,.56-.57h.53a.5.5,0,0,1,.56.57v.42a2,2,0,0,1,0,.31h0a2.66,2.66,0,0,1,2.27-1.47,1.92,1.92,0,0,1,2,1.43h0a2.76,2.76,0,0,1,2.37-1.43c1.45,0,2.28.82,2.28,2.65V195a.52.52,0,0,1-.58.58h-.58a.51.51,0,0,1-.57-.58v-3.57c0-.79-.15-1.39-1-1.39-1.17,0-1.77,1.2-1.77,2.42V195a.5.5,0,0,1-.56.58h-.6a.52.52,0,0,1-.57-.58v-3.57c0-.75-.11-1.39-.93-1.39-1.22,0-1.79,1.26-1.79,2.42V195a.5.5,0,0,1-.56.58H102a.5.5,0,0,1-.56-.58Z"/><path class="cls-4" d="M113.75,189.2a.52.52,0,0,1,.58-.57h.43c.37,0,.56.2.56.47v.32c0,.15,0,.27,0,.27h0a2.51,2.51,0,0,1,2.24-1.23c1.88,0,3.09,1.49,3.09,3.64s-1.36,3.64-3.19,3.64a2.26,2.26,0,0,1-2-1.06h0a4,4,0,0,1,0,.6v2.45a.5.5,0,0,1-.57.57h-.58a.52.52,0,0,1-.58-.57Zm3.41,5.08c1,0,1.74-.78,1.74-2.15s-.7-2.18-1.71-2.18-1.76.65-1.76,2.19A1.91,1.91,0,0,0,117.16,194.28Z"/><path class="cls-4" d="M125.13,188.46a3,3,0,0,1,3.08,3.31.61.61,0,0,1-.6.59h-4.24a2,2,0,0,0,2.09,1.91,2.93,2.93,0,0,0,1.5-.45.5.5,0,0,1,.76.19l.16.27a.51.51,0,0,1-.19.76,4.33,4.33,0,0,1-2.35.7,3.56,3.56,0,0,1-3.74-3.64A3.43,3.43,0,0,1,125.13,188.46Zm1.36,2.85a1.41,1.41,0,0,0-1.4-1.54,1.7,1.7,0,0,0-1.68,1.54Z"/><path class="cls-4" d="M129.51,189.2a.5.5,0,0,1,.56-.57h.53a.51.51,0,0,1,.57.57v.65a3,3,0,0,1,0,.48h0a2.4,2.4,0,0,1,2-1.76c.38,0,.52.19.52.57v.54a.53.53,0,0,1-.59.57c-1.27,0-1.88,1.25-1.88,2.52V195a.5.5,0,0,1-.56.58h-.6a.5.5,0,0,1-.56-.58Z"/><path class="cls-4" d="M139.45,185.74a5.38,5.38,0,0,1,3.16,1,.53.53,0,0,1,.11.79l-.25.39c-.19.31-.45.34-.78.14a3.94,3.94,0,0,0-2.18-.68,3.12,3.12,0,0,0-3.24,3.32,3.24,3.24,0,0,0,3.26,3.46,4.1,4.1,0,0,0,2.37-.84.49.49,0,0,1,.79.09l.27.37a.53.53,0,0,1-.08.79,5.4,5.4,0,0,1-3.42,1.2,5,5,0,0,1,0-10Z"/><path class="cls-4" d="M148,191.28h.28v-.16a1.14,1.14,0,0,0-1.29-1.23,3.12,3.12,0,0,0-1.45.4.51.51,0,0,1-.76-.23l-.13-.26a.5.5,0,0,1,.21-.76,4.82,4.82,0,0,1,2.28-.58,2.58,2.58,0,0,1,2.87,2.77V195a.51.51,0,0,1-.57.58H149a.5.5,0,0,1-.56-.58v-.27a1.25,1.25,0,0,1,0-.3h0a2.52,2.52,0,0,1-2.18,1.31,2.13,2.13,0,0,1-2.3-2.09C144,191.62,146.46,191.28,148,191.28Zm-1.3,3.14a1.77,1.77,0,0,0,1.6-1.83v-.26H148c-.87,0-2.36.14-2.36,1.17A1,1,0,0,0,146.72,194.42Z"/><path class="cls-4" d="M151.67,189.2a.5.5,0,0,1,.56-.57h.53a.51.51,0,0,1,.57.57v.65a3,3,0,0,1,0,.48h0a2.38,2.38,0,0,1,2-1.76c.39,0,.52.19.52.57v.54a.53.53,0,0,1-.58.57c-1.27,0-1.88,1.25-1.88,2.52V195a.5.5,0,0,1-.56.58h-.6a.5.5,0,0,1-.56-.58Z"/><path class="cls-4" d="M159.79,188.46a3,3,0,0,1,3.08,3.31.61.61,0,0,1-.6.59H158a2,2,0,0,0,2.09,1.91,2.93,2.93,0,0,0,1.5-.45.5.5,0,0,1,.76.19l.16.27a.51.51,0,0,1-.19.76,4.36,4.36,0,0,1-2.35.7,3.56,3.56,0,0,1-3.74-3.64A3.43,3.43,0,0,1,159.79,188.46Zm1.36,2.85a1.41,1.41,0,0,0-1.4-1.54,1.7,1.7,0,0,0-1.68,1.54Z"/><path class="cls-4" d="M52.2,191.23a.87.87,0,0,1-.44-.11.94.94,0,0,1-.48-1.15l10.09-31a2.1,2.1,0,0,1,2-1.49h0a2.11,2.11,0,0,1,2,1.49l2.05,6.15a.73.73,0,0,1-1.39.46l-2-6.16a.69.69,0,0,0-.67-.48h0a.67.67,0,0,0-.65.48l-9.13,28.07,12.85-17.58a4,4,0,0,1,3.23-1.64h8.56a2.15,2.15,0,0,1,1.26,3.9l-7.82,5.68-.09.08,3,9.3a2.15,2.15,0,0,1-3.31,2.4l-6.77-4.91a2.16,2.16,0,0,1,0-3.49l5.67-4.11.09-.07L78.67,171a.7.7,0,0,0,.26-.78.69.69,0,0,0-.66-.48H69.71a2.55,2.55,0,0,0-2,1L53,190.83A1,1,0,0,1,52.2,191.23Zm18.18-12.44-4.95,3.59a.68.68,0,0,0-.29.56.71.71,0,0,0,.29.56l6.76,4.91a.69.69,0,0,0,1.07-.77Z"/><path class="cls-4" d="M52.72,175.8a.7.7,0,0,1-.42-.13l-5-3.54a2.15,2.15,0,0,1,1.26-3.9h6.12a.73.73,0,0,1,0,1.46H48.56a.69.69,0,0,0-.66.48.7.7,0,0,0,.26.78l5,3.52a.73.73,0,0,1,.17,1A.72.72,0,0,1,52.72,175.8Z"/><path class="cls-4" d="M59.51,201.53a2.36,2.36,0,0,1-1.17-.31L45.59,194a.74.74,0,0,1-.37-.64V177.79a.73.73,0,0,1,1.46,0v15.14l12.38,7a.91.91,0,0,0,.94,0l9-5.66a.72.72,0,0,1,1,.23.73.73,0,0,1-.23,1l-9,5.66A2.36,2.36,0,0,1,59.51,201.53Z"/></g></svg>