<?xml version="1.0" encoding="utf-8"?>
<!-- Generator: Adobe Illustrator 24.0.3, SVG Export Plug-In . SVG Version: 6.00 Build 0)  -->
<svg version="1.1" id="Layer_1" xmlns="http://www.w3.org/2000/svg" xmlns:xlink="http://www.w3.org/1999/xlink" x="0px" y="0px"
	 viewBox="0 0 300 600" style="enable-background:new 0 0 300 600;" xml:space="preserve">
<style type="text/css">
	.st0{clip-path:url(#SVGID_2_);}
	.st1{enable-background:new    ;}
	.st2{fill:#FFFFFF;}
</style>
<title>Artboard 1 copy 2</title>
<g>
	<defs>
		<rect id="SVGID_1_" x="0.6" y="0" width="298.8" height="600"/>
	</defs>
	<clipPath id="SVGID_2_">
		<use xlink:href="#SVGID_1_"  style="overflow:visible;"/>
	</clipPath>
	<g class="st0">
		<g class="st1">
			<path class="st2" d="M44.3,69.2l0.2,0.3c-2.1,3.4-5.9,5-9.9,5c-6.7,0-15-4.8-15-14.3c0-10.4,8.1-14.2,14-14.4V46
				c-2.9,0.6-6,3.3-6,13.9c0,10.5,4.2,13,8.9,13C40.2,72.9,42.9,71,44.3,69.2z M44.6,45.8v10h-0.3c-1.6-5.5-4.6-8.6-8.7-9.7v-0.2
				c3.6,0.2,5.7,0.8,7.4,1.9l1.2-1.9H44.6z"/>
			<path class="st2" d="M57,71.7c0,1,0.6,2.1,3.1,2.1v0.2H47.2v-0.2c2.5,0,3.1-1.1,3.1-2.1V47.9c0-1.5-0.7-2.2-3-2.2v-0.2
				c3.8,0,6.9-0.4,9.8-1.6V71.7z M71.4,58.9v12.8c0,1,0.6,2.1,3.1,2.1v0.2H61.6v-0.2c2.4,0,3-1.1,3-2.1V58.9c0-2.3-1.2-3.5-3.2-3.5
				c-1.1,0-2.1,0.4-3.1,1.3v-0.2c1.1-1.7,3.8-3.3,6.8-3.3C68.8,53.1,71.4,54.9,71.4,58.9z"/>
			<path class="st2" d="M86.9,53.4c-2.4,0.3-3.2,2.3-3.2,10.3c0,7.7,0.8,10.3,3.2,10.5v0.2c-4.7,0-10.2-3.9-10.2-10.8
				s5.4-10.6,10.2-10.6V53.4z M98.8,63.7c0,6.9-5.5,10.8-10.2,10.8v-0.2c2.4-0.2,3.2-2.8,3.2-10.5c0-8-0.8-10.1-3.2-10.3v-0.2
				C93.3,53.1,98.8,56.8,98.8,63.7z"/>
			<path class="st2" d="M112.4,53.4c-2.4,0.3-3.2,2.3-3.2,10.3c0,7.7,0.8,10.3,3.2,10.5v0.2c-4.7,0-10.2-3.9-10.2-10.8
				s5.4-10.6,10.2-10.6V53.4z M124.3,63.7c0,6.9-5.5,10.8-10.2,10.8v-0.2c2.4-0.2,3.2-2.8,3.2-10.5c0-8-0.8-10.1-3.2-10.3v-0.2
				C118.8,53.1,124.3,56.8,124.3,63.7z"/>
			<path class="st2" d="M134.9,69.2c-1.4,0-2.3,0.8-2.3,2.1c0,1.2,0.8,2.7,3.7,3v0.2c-5.5-0.2-8.5-1.7-8.5-4.1c0-1.9,1.6-3,3.5-3
				C132.9,67.4,134.2,68.2,134.9,69.2z M136.2,53.4c-1.5,0.3-3,1.1-3,2.8c0.1,4.8,13.4,5.5,13.4,12.1c0,4-3.4,6.1-8.7,6.3v-0.2
				c1.7-0.3,3.7-0.9,3.7-3c0-4.3-13.5-5.8-13.5-12.1c0-3.6,3.4-5.8,8-6V53.4z M145.9,57.4c0,1.3-1,2.5-3,2.5c-1.7,0-3-0.7-3.5-2
				c1.2-0.1,1.9-0.9,1.8-1.9c0-1.2-1.6-2.4-3.2-2.6v-0.2C142.7,53.4,145.9,55.1,145.9,57.4z"/>
			<path class="st2" d="M150.1,63.7c0-6.9,5.3-10.6,10.1-10.6v0.2c-2.4,0.3-3.1,2.3-3.1,10.2c0,5.9,2.6,9.2,6.3,9.2
				c2.3,0,4.1-0.7,6-2.2v0.2c-2.1,2.7-6,3.7-8.7,3.7C155.4,74.5,150.1,70.6,150.1,63.7z M159.4,62c3.6,0,5.1-1.1,5.1-4.6
				c0-2-0.8-3.8-2.7-4v-0.2c5.4,0,8,3.9,8,7c0,0.7-0.1,1.5-0.2,2.1h-10.3V62z"/>
		</g>
		<g class="st1">
			<path class="st2" d="M29.8,115.3v0.2c-3.2-0.1-5.8-0.7-8-2l-1.4,2h-0.3v-10h0.3C21.8,110.2,24.7,113.6,29.8,115.3z M41.9,107.1
				c0,5.3-3.9,8.2-10.3,8.4v-0.2c2.3-0.4,4.5-1.7,4.5-4.2c0-7.2-15.7-7.8-15.7-16.2c0-4.9,4-7.8,9.4-8.1v0.2
				c-1.9,0.3-3.6,1.5-3.6,3.8C26.2,98,41.9,98.8,41.9,107.1z M31.6,87.1v-0.2c3.1,0.1,5.5,0.8,7.4,2.2l1.5-2.2h0.3V96h-0.3
				C39.1,91.6,35.6,88,31.6,87.1z"/>
		</g>
		<g class="st1">
			<path class="st2" d="M60.6,112v0.2c-1.3,1.9-3.9,3.3-7,3.3c-3.7,0-6.3-1.7-6.3-5.8V96.3h-2.1l0.5-0.6h1.7v-4.4
				c2.5,0,5-0.8,6.7-2.3v6.7h5.5l-0.5,0.6H54v13.6c0,2.1,0.8,4.2,2.7,4.2C57.8,114.1,59.2,113.3,60.6,112z"/>
			<path class="st2" d="M61.9,110.3c0-3.6,3.3-5.6,7.9-5.6h4.4v0.2H73c-3,0-4.4,1.9-4.4,4.5c0,2.3,0.7,4,2.6,4c1.1,0,2.1-0.6,3-1.4
				v0.2c-1.4,1.6-3.5,3.3-6.5,3.3C64.2,115.6,61.8,113.6,61.9,110.3z M63.5,98.7c0-2.1,1.9-4.2,7.5-4.5v0.2c-1.6,0.2-2.6,1.6-2.6,3
				c0,1.5,1,2.4,2.7,2.5c-0.6,1.1-2.3,2-3.9,2C64.8,101.9,63.5,100.4,63.5,98.7z M75.4,110.9V98.4c0-2-0.8-3.6-2.8-3.9v-0.2
				c6.8,0.2,9.5,2.8,9.5,8.2v10c0,1.2,0.4,1.7,1.1,1.7c0.6,0,1.3-0.6,2-1.8h0.2c-0.7,2.3-2.9,3.3-5.3,3.3
				C76.9,115.6,75.4,114.4,75.4,110.9z"/>
		</g>
		<g class="st1">
			<path class="st2" d="M96.7,112.8c0,1,0.6,2.1,3.1,2.1v0.2H86.8v-0.2c2.5,0,3.1-1.1,3.1-2.1V98.2c0-1.5-0.7-2.2-3-2.2v-0.2
				c3.8,0,6.9-0.4,9.8-1.6V112.8z M107.8,98.6c0,2.8-2,4.7-4.2,4.7c-1,0-1.8-0.2-2.3-0.9c0.8-0.4,1.6-1.3,1.6-2.8
				c0-1.2-0.9-2.2-2.3-2.2c-1.1,0-1.9,0.6-2.5,1.6v-0.3c0.8-2.6,2.8-4.4,5.3-4.4C106.2,94.2,107.8,96.2,107.8,98.6z"/>
		</g>
		<g class="st1">
			<path class="st2" d="M44.3,151.3l0.2,0.3c-2.1,3.4-5.9,5-9.9,5c-6.7,0-15-4.8-15-14.3c0-10.4,8.1-14.2,14-14.4v0.2
				c-2.9,0.6-6,3.3-6,13.9c0,10.5,4.2,13,8.9,13C40.2,155,42.9,153.1,44.3,151.3z M44.6,127.9v10h-0.3c-1.6-5.5-4.6-8.6-8.7-9.7
				v-0.2c3.6,0.2,5.7,0.8,7.4,1.9l1.2-1.9H44.6z"/>
			<path class="st2" d="M47.8,151.4c0-3.6,3.3-5.6,7.9-5.6h4.4v0.2h-1.2c-3,0-4.4,1.9-4.4,4.5c0,2.3,0.7,4,2.6,4
				c1.1,0,2.1-0.6,3-1.4v0.2c-1.4,1.6-3.5,3.3-6.5,3.3C50.1,156.6,47.7,154.6,47.8,151.4z M49.4,139.7c0-2.1,1.9-4.2,7.5-4.5v0.2
				c-1.6,0.2-2.6,1.6-2.6,3c0,1.5,1,2.4,2.7,2.5c-0.6,1.1-2.3,2-3.9,2C50.7,143,49.4,141.5,49.4,139.7z M61.3,152v-12.6
				c0-2-0.8-3.6-2.8-3.9v-0.2c6.8,0.2,9.5,2.8,9.5,8.2v10c0,1.2,0.4,1.7,1.1,1.7c0.6,0,1.3-0.6,2-1.8h0.2c-0.7,2.3-2.9,3.3-5.3,3.3
				C62.8,156.6,61.3,155.5,61.3,152z"/>
			<path class="st2" d="M82.5,153.9c0,1,0.6,2.1,3.1,2.1v0.2H72.7V156c2.5,0,3.1-1.1,3.1-2.1v-14.6c0-1.5-0.7-2.2-3-2.2v-0.2
				c3.8,0,6.9-0.4,9.8-1.6V153.9z M96.2,141.1v12.8c0,1,0.6,2.1,3,2.1v0.2H86.3V156c2.4,0,3.1-1.1,3.1-2.1v-12.8
				c0-2.3-0.9-3.5-2.9-3.5c-1.1,0-2.2,0.6-2.7,1.2v-0.2c0.9-1.7,3-3.3,6-3.3C93.7,135.3,96.2,137,96.2,141.1z M109.8,141.1v12.8
				c0,1,0.6,2.1,3.1,2.1v0.2H99.9V156c2.4,0,3.1-1.1,3.1-2.1v-12.8c0-2.3-0.9-3.5-2.9-3.5c-1.1,0-2.2,0.6-2.7,1.2v-0.2
				c0.9-1.7,3-3.3,6-3.3C107.3,135.3,109.8,137,109.8,141.1z"/>
			<path class="st2" d="M123.8,162.5c0,1.5,0.7,2.2,3,2.2v0.2c-3.8,0-6.4,0.4-9.8,1.6v-27.2c0-1.5-0.7-2.2-3-2.2v-0.2
				c3.8,0,6.4-0.4,9.8-1.6V162.5z M139.5,145.7c0,8.6-4.5,10.9-8.4,10.9c-2.3,0-5-1.6-6-3.3V153c1,0.8,2.1,1.4,3.4,1.4
				c1.9,0,4-1.4,4-8.7c0-7.4-1.9-8.4-4-8.4c-1.3,0-2.5,0.5-3.4,1.5v-0.3c1-1.7,3.7-3.3,6-3.3C135,135.3,139.5,137.6,139.5,145.7z"/>
			<path class="st2" d="M143.1,145.9c0-6.9,5.3-10.6,10.1-10.6v0.2c-2.4,0.3-3.1,2.3-3.1,10.2c0,5.9,2.6,9.2,6.3,9.2
				c2.3,0,4.1-0.7,6-2.2v0.2c-2.1,2.7-6,3.7-8.7,3.7C148.4,156.6,143.1,152.8,143.1,145.9z M152.3,144.1c3.6,0,5.1-1.1,5.1-4.6
				c0-2-0.8-3.8-2.7-4v-0.2c5.4,0,8,3.9,8,7c0,0.7-0.1,1.5-0.2,2.1h-10.3V144.1z"/>
			<path class="st2" d="M175.3,153.9c0,1,0.6,2.1,3.1,2.1v0.2h-12.9V156c2.5,0,3.1-1.1,3.1-2.1v-14.6c0-1.5-0.7-2.2-3-2.2v-0.2
				c3.8,0,6.9-0.4,9.8-1.6V153.9z M186.4,139.7c0,2.8-2,4.7-4.2,4.7c-1,0-1.8-0.2-2.3-0.9c0.8-0.4,1.6-1.3,1.6-2.8
				c0-1.2-0.9-2.2-2.3-2.2c-1.1,0-1.9,0.6-2.5,1.6v-0.3c0.8-2.6,2.8-4.4,5.3-4.4C184.8,135.3,186.4,137.2,186.4,139.7z"/>
			<path class="st2" d="M213.9,151.3l0.2,0.3c-2.1,3.4-5.9,5-9.9,5c-6.7,0-15-4.8-15-14.3c0-10.4,8.1-14.2,14-14.4v0.2
				c-2.9,0.6-6,3.3-6,13.9c0,10.5,4.2,13,8.9,13C209.7,155,212.4,153.1,213.9,151.3z M214.2,127.9v10h-0.3c-1.6-5.5-4.6-8.6-8.7-9.7
				v-0.2c3.6,0.2,5.7,0.8,7.4,1.9l1.2-1.9H214.2z"/>
			<path class="st2" d="M217.3,151.4c0-3.6,3.3-5.6,7.9-5.6h4.4v0.2h-1.2c-3,0-4.4,1.9-4.4,4.5c0,2.3,0.7,4,2.6,4
				c1.1,0,2.1-0.6,3-1.4v0.2c-1.4,1.6-3.5,3.3-6.5,3.3C219.6,156.6,217.3,154.6,217.3,151.4z M218.9,139.7c0-2.1,1.9-4.2,7.5-4.5
				v0.2c-1.6,0.2-2.6,1.6-2.6,3c0,1.5,1,2.4,2.7,2.5c-0.6,1.1-2.3,2-3.9,2C220.3,143,218.9,141.5,218.9,139.7z M230.9,152v-12.6
				c0-2-0.8-3.6-2.8-3.9v-0.2c6.8,0.2,9.5,2.8,9.5,8.2v10c0,1.2,0.4,1.7,1.2,1.7c0.6,0,1.3-0.6,2-1.8h0.2c-0.7,2.3-2.9,3.3-5.3,3.3
				C232.3,156.6,230.9,155.5,230.9,152z"/>
		</g>
		<g class="st1">
			<path class="st2" d="M252.1,153.9c0,1,0.6,2.1,3.1,2.1v0.2h-12.9V156c2.5,0,3.1-1.1,3.1-2.1v-14.6c0-1.5-0.7-2.2-3-2.2v-0.2
				c3.8,0,6.9-0.4,9.8-1.6V153.9z M263.2,139.7c0,2.8-2,4.7-4.2,4.7c-1,0-1.8-0.2-2.3-0.9c0.8-0.4,1.6-1.3,1.6-2.8
				c0-1.2-0.9-2.2-2.3-2.2c-1.1,0-1.9,0.6-2.5,1.6v-0.3c0.8-2.6,2.8-4.4,5.3-4.4C261.6,135.3,263.2,137.2,263.2,139.7z"/>
		</g>
		<g class="st1">
			<path class="st2" d="M265.4,145.9c0-6.9,5.3-10.6,10.1-10.6v0.2c-2.4,0.3-3.1,2.3-3.1,10.2c0,5.9,2.6,9.2,6.3,9.2
				c2.3,0,4.1-0.7,6-2.2v0.2c-2.1,2.7-6,3.7-8.7,3.7C270.7,156.6,265.4,152.8,265.4,145.9z M274.6,144.1c3.6,0,5.1-1.1,5.1-4.6
				c0-2-0.8-3.8-2.7-4v-0.2c5.4,0,8,3.9,8,7c0,0.7-0.1,1.5-0.2,2.1h-10.3V144.1z"/>
		</g>
	</g>
</g>
</svg>
