<svg id="Layer_1" data-name="Layer 1" xmlns="http://www.w3.org/2000/svg" viewBox="0 0 300 600"><defs><style>.cls-1{fill:#fff;}.cls-2{fill:none;}</style></defs><title>Artboard 1 copy 3</title><path class="cls-1" d="M31.5,87.63c2.11,0,2.63-.8,2.63-1.78V66c0-1-.52-1.78-2.63-1.78V64h8.58V85.85c0,1,.53,1.78,2.63,1.78v.21H31.5ZM41.83,64.25V64h9.63v7h-.28C49.57,66.07,47.15,64.6,41.83,64.25Zm1.93,11.9L41.83,76v-.21l1.93-.18a5.42,5.42,0,0,0,4.62-3h.28v6.51h-.28A5.33,5.33,0,0,0,43.76,76.15Z"/><path class="cls-1" d="M61.64,70.2c-2.06.24-2.76,2-2.76,8.82,0,6.58.7,8.75,2.76,9v.21A8.92,8.92,0,0,1,52.92,79a8.78,8.78,0,0,1,8.72-9ZM71.72,79A8.91,8.91,0,0,1,63,88.19V88c2.07-.21,2.73-2.41,2.73-9,0-6.86-.7-8.61-2.73-8.82V70A8.72,8.72,0,0,1,71.72,79Z"/><path class="cls-1" d="M82.43,85.85c0,.87.52,1.78,2.63,1.78v.21H74v-.21c2.1,0,2.62-.91,2.62-1.78V73.42c0-1.26-.59-1.86-2.59-1.86v-.21A21.54,21.54,0,0,0,82.43,70Zm9.45-12.08a3.74,3.74,0,0,1-3.6,4,2.39,2.39,0,0,1-2-.77,2.56,2.56,0,0,0,1.37-2.38,1.86,1.86,0,0,0-2-1.89,2.39,2.39,0,0,0-2.1,1.33v-.28A4.84,4.84,0,0,1,88.14,70,3.55,3.55,0,0,1,91.88,73.77Z"/><path class="cls-1" d="M109.73,85.85c0,.87.52,1.78,2.63,1.78v.21h-11v-.21c2.1,0,2.62-.91,2.62-1.78V73.42c0-1.26-.59-1.86-2.59-1.86v-.21A21.54,21.54,0,0,0,109.73,70Zm11.62-10.92V85.85c0,.87.49,1.78,2.59,1.78v.21H113v-.21c2.07,0,2.63-.91,2.63-1.78V74.93c0-2-.77-3-2.45-3a3.07,3.07,0,0,0-2.31,1v-.21a5.65,5.65,0,0,1,5.11-2.8C119.25,70,121.35,71.46,121.35,74.93Zm11.59,0V85.85c0,.87.52,1.78,2.62,1.78v.21h-11v-.21c2.06,0,2.62-.91,2.62-1.78V74.93c0-2-.77-3-2.45-3a3.08,3.08,0,0,0-2.31,1v-.21a5.67,5.67,0,0,1,5.11-2.8C130.84,70,132.94,71.46,132.94,74.93Z"/><path class="cls-1" d="M146.16,70.2c-2.06.24-2.76,2-2.76,8.82,0,6.58.7,8.75,2.76,9v.21A8.92,8.92,0,0,1,137.45,79a8.77,8.77,0,0,1,8.71-9ZM156.25,79a8.92,8.92,0,0,1-8.69,9.17V88c2.07-.21,2.73-2.41,2.73-9,0-6.86-.7-8.61-2.73-8.82V70A8.73,8.73,0,0,1,156.25,79Z"/><path class="cls-1" d="M167,85.85c0,.87.53,1.78,2.63,1.78v.21h-11v-.21c2.1,0,2.63-.91,2.63-1.78V73.42c0-1.26-.6-1.86-2.59-1.86v-.21A21.49,21.49,0,0,0,167,70Zm9.46-12.08a3.75,3.75,0,0,1-3.61,4,2.37,2.37,0,0,1-2-.77,2.57,2.57,0,0,0,1.36-2.38,1.86,1.86,0,0,0-2-1.89,2.4,2.4,0,0,0-2.1,1.33v-.28A4.85,4.85,0,0,1,172.66,70,3.55,3.55,0,0,1,176.41,73.77Z"/><path class="cls-1" d="M178.29,79a8.66,8.66,0,0,1,8.58-9v.21c-2.07.24-2.63,2-2.63,8.68,0,5,2.24,7.81,5.36,7.81a7.62,7.62,0,0,0,5.11-1.86V85c-1.82,2.31-5.15,3.15-7.42,3.15A8.87,8.87,0,0,1,178.29,79Zm7.88-1.47c3.08,0,4.37-1,4.37-3.92,0-1.68-.7-3.22-2.27-3.43V70c4.62,0,6.86,3.29,6.86,6a9.94,9.94,0,0,1-.18,1.82h-8.78Z"/><path class="cls-1" d="M31.47,118a8.66,8.66,0,0,1,8.58-9v.21c-2.07.24-2.63,2-2.63,8.68,0,5,2.24,7.81,5.36,7.81a7.62,7.62,0,0,0,5.11-1.86V124c-1.82,2.31-5.15,3.15-7.42,3.15A8.87,8.87,0,0,1,31.47,118Zm7.88-1.47c3.08,0,4.37-1,4.37-3.92,0-1.68-.7-3.22-2.27-3.43V109c4.62,0,6.86,3.29,6.86,6a9.94,9.94,0,0,1-.18,1.82H39.35Z"/><path class="cls-1" d="M51.18,110.77a1.92,1.92,0,0,0-1.93-1.22v-.21h9.8v.21c-1.22,0-1.71.84-1.12,2.06l4.59,9.56-3,5.67H59.3Zm12.81,7a9.67,9.67,0,0,0,1-4.51,3.39,3.39,0,0,0-3.57-3.68v-.21h8.71v.21c-1.15,0-1.61.45-2.27,1.64l-3.64,6.87Z"/><path class="cls-1" d="M70.39,118A8.66,8.66,0,0,1,79,109v.21c-2.07.24-2.63,2-2.63,8.68,0,5,2.24,7.81,5.36,7.81a7.62,7.62,0,0,0,5.11-1.86V124c-1.82,2.31-5.15,3.15-7.42,3.15A8.87,8.87,0,0,1,70.39,118Zm7.88-1.47c3.08,0,4.37-1,4.37-3.92,0-1.68-.7-3.22-2.27-3.43V109c4.62,0,6.86,3.29,6.86,6a9.94,9.94,0,0,1-.18,1.82H78.27Z"/><path class="cls-1" d="M97.87,124.85c0,.87.52,1.78,2.62,1.78v.21h-11v-.21c2.11,0,2.63-.91,2.63-1.78V112.42c0-1.26-.6-1.86-2.59-1.86v-.21A21.54,21.54,0,0,0,97.87,109Zm9.45-12.08a3.75,3.75,0,0,1-3.61,4,2.37,2.37,0,0,1-2-.77,2.57,2.57,0,0,0,1.36-2.38,1.86,1.86,0,0,0-2-1.89,2.4,2.4,0,0,0-2.1,1.33v-.28a4.85,4.85,0,0,1,4.55-3.78A3.55,3.55,0,0,1,107.32,112.77Z"/><path class="cls-1" d="M109.69,110.77a1.89,1.89,0,0,0-1.92-1.22v-.21h9.8v.21c-1.22,0-1.71.84-1.12,2.06l4.59,9.56-3,5.67h-.21Zm-1.54,21.71c0-1.51,1.19-2.77,3.08-3.29a2.77,2.77,0,0,0-.14.87,2.06,2.06,0,0,0,2.07,2.35c1.22,0,2.2-1.3,3.53-3.54h.25c-1.93,3.61-3.26,6.72-5.71,6.72A2.91,2.91,0,0,1,108.15,132.48Zm14.36-14.74a9.67,9.67,0,0,0,1-4.51,3.39,3.39,0,0,0-3.57-3.68v-.21h8.71v.21c-1.15,0-1.61.45-2.27,1.64l-3.64,6.87Z"/><path class="cls-1" d="M142.35,124.15v.21a7.32,7.32,0,0,1-6,2.83c-3.15,0-5.39-1.43-5.39-4.93V110.77h-1.82l.39-.52H131v-3.78a8.85,8.85,0,0,0,5.74-2v5.74h4.73l-.39.52h-4.34v11.59c0,1.75.67,3.57,2.31,3.57A5.2,5.2,0,0,0,142.35,124.15Z"/><path class="cls-1" d="M151.38,124.85c0,.87.52,1.78,2.62,1.78v.21H143v-.21c2.1,0,2.62-.91,2.62-1.78V104.54c0-1.26-.59-1.85-2.59-1.85v-.21a21.36,21.36,0,0,0,8.37-1.37Zm12.25-10.92v10.92c0,.87.53,1.78,2.63,1.78v.21h-11v-.21c2.07,0,2.6-.91,2.6-1.78V113.93c0-2-1-3-2.77-3a3.77,3.77,0,0,0-2.66,1.08v-.21a7.14,7.14,0,0,1,5.81-2.83C161.39,109,163.63,110.46,163.63,113.93Z"/><path class="cls-1" d="M167.58,110.32A21.36,21.36,0,0,0,176,109v15.9c0,.87.52,1.78,2.62,1.78v.21h-11v-.21c2.1,0,2.62-.91,2.62-1.78V112.39c0-1.27-.59-1.86-2.59-1.86Zm1.79-6.58c0-1.82,1.47-3,3.57-3s3.57,1.23,3.57,3-1.47,3.08-3.57,3.08S169.37,105.59,169.37,103.74Z"/><path class="cls-1" d="M180,126.63c2.1,0,2.63-.91,2.63-1.78V112.42c0-1.26-.6-1.86-2.59-1.86v-.21a21.49,21.49,0,0,0,8.36-1.36v15.86c0,.87.53,1.78,2.63,1.78v.21H180Zm12.32,0c2.07,0,2.59-.91,2.59-1.78V113.93c0-2-1-3-2.76-3a3.77,3.77,0,0,0-2.66,1.08v-.21a7.14,7.14,0,0,1,5.81-2.83c3.15,0,5.39,1.47,5.39,4.94v10.92c0,.87.53,1.78,2.63,1.78v.21h-11Z"/><path class="cls-1" d="M205.42,115.32c0-4.55,4.27-6.26,7.84-6.33v.21c-1.51.14-2.21,2-2.21,6,0,4.24.7,6,2.21,6.09v.21C209.72,121.52,205.42,119.84,205.42,115.32Zm9.31,20.06c3.5-.42,4.62-2.31,4.62-3.57,0-4.86-13.65-.52-13.65-6.79,0-1.43.73-2.55,2.34-3.57l.11.18a.81.81,0,0,0-.32.66c0,3.92,16-.63,16,7,0,3.61-3.11,6-9.06,6.3Zm-9-2.94c0-2.06,2.55-2.69,5.32-2.69a2.94,2.94,0,0,0-1.51,2.48c0,1.61,1.82,2.84,3.82,3.15v.21C209.58,135.52,205.7,134.75,205.7,132.44Zm9-11.13c1.71-.14,2.41-1.85,2.41-6.09,0-4.06-.73-5.88-2.41-6V109c3.71.07,8,1.78,8,6.33s-4.3,6.2-8,6.2Zm1.89-13c.59-1.79,2.2-4.2,4.62-4.2,1.85,0,3,1,3,2.66a2.79,2.79,0,0,1-2.83,2.73c0-1.47-.77-2.35-1.89-2.35a3.8,3.8,0,0,0-2.7,1.26Z"/><path class="cls-1" d="M44.42,163.15v.21a7.32,7.32,0,0,1-6,2.83c-3.16,0-5.4-1.43-5.4-4.93V149.77H31.23l.38-.52H33v-3.78a8.9,8.9,0,0,0,5.75-2v5.74h4.72l-.38.52H38.79v11.59c0,1.75.66,3.57,2.31,3.57A5.15,5.15,0,0,0,44.42,163.15Z"/><path class="cls-1" d="M53.45,163.85c0,.87.53,1.78,2.63,1.78v.21h-11v-.21c2.1,0,2.62-.91,2.62-1.78V143.54c0-1.26-.59-1.85-2.59-1.85v-.21a21.32,21.32,0,0,0,8.37-1.37ZM65.7,152.93v10.92c0,.87.53,1.78,2.63,1.78v.21h-11v-.21c2.06,0,2.59-.91,2.59-1.78V152.93c0-2-1-3-2.77-3A3.77,3.77,0,0,0,54.5,151v-.21A7.15,7.15,0,0,1,60.31,148C63.46,148,65.7,149.46,65.7,152.93Z"/><path class="cls-1" d="M69.86,161.71c0-3,2.8-4.76,6.72-4.76h3.78v.21h-1A3.47,3.47,0,0,0,75.6,161c0,1.92.56,3.39,2.21,3.39a3.8,3.8,0,0,0,2.55-1.22v.21a7.41,7.41,0,0,1-5.56,2.83C71.82,166.19,69.83,164.51,69.86,161.71Zm1.4-9.9c0-1.79,1.61-3.61,6.37-3.82v.21a2.55,2.55,0,0,0-2.24,2.55c0,1.27.88,2,2.28,2.14a3.94,3.94,0,0,1-3.36,1.68A2.81,2.81,0,0,1,71.26,151.81Zm10.15,10.43V151.52c0-1.71-.66-3.08-2.38-3.32V148c5.82.21,8.13,2.41,8.13,7v8.51c0,1,.35,1.43,1,1.43s1.12-.52,1.68-1.57H90c-.56,1.92-2.45,2.83-4.55,2.83C82.68,166.19,81.41,165.21,81.41,162.24Z"/><path class="cls-1" d="M91.11,165.63c2.1,0,2.62-.91,2.62-1.78V151.42c0-1.26-.59-1.86-2.59-1.86v-.21A21.54,21.54,0,0,0,99.51,148v15.86c0,.87.52,1.78,2.62,1.78v.21h-11Zm12.32,0c2.06,0,2.59-.91,2.59-1.78V152.93c0-2-1-3-2.77-3a3.77,3.77,0,0,0-2.66,1.08v-.21A7.17,7.17,0,0,1,106.4,148c3.16,0,5.4,1.47,5.4,4.94v10.92c0,.87.52,1.78,2.62,1.78v.21h-11Z"/><path class="cls-1" d="M124.85,161.71c0-3,2.8-4.76,6.72-4.76h3.78v.21h-1c-2.52,0-3.71,1.65-3.71,3.82,0,1.92.56,3.39,2.2,3.39a3.84,3.84,0,0,0,2.56-1.22v.21a7.45,7.45,0,0,1-5.57,2.83C126.81,166.19,124.81,164.51,124.85,161.71Zm1.4-9.9c0-1.79,1.61-3.61,6.37-3.82v.21a2.55,2.55,0,0,0-2.24,2.55c0,1.27.87,2,2.27,2.14a3.93,3.93,0,0,1-3.36,1.68A2.8,2.8,0,0,1,126.25,151.81Zm10.15,10.43V151.52c0-1.71-.67-3.08-2.38-3.32V148c5.81.21,8.12,2.41,8.12,7v8.51c0,1,.35,1.43,1,1.43s1.12-.52,1.68-1.57H145c-.56,1.92-2.45,2.83-4.55,2.83C137.66,166.19,136.4,165.21,136.4,162.24Z"/><path class="cls-1" d="M146.09,165.63c2.1,0,2.63-.91,2.63-1.78V151.42c0-1.26-.6-1.86-2.59-1.86v-.21a21.49,21.49,0,0,0,8.36-1.36v15.86c0,.87.53,1.78,2.63,1.78v.21h-11Zm12.32,0c2.07,0,2.59-.91,2.59-1.78V152.93c0-2-1-3-2.76-3a3.77,3.77,0,0,0-2.66,1.08v-.21a7.14,7.14,0,0,1,5.81-2.83c3.15,0,5.39,1.47,5.39,4.94v10.92c0,.87.53,1.78,2.62,1.78v.21h-11Z"/><path class="cls-1" d="M170.77,149.77a1.9,1.9,0,0,0-1.93-1.22v-.21h9.8v.21c-1.22,0-1.71.84-1.12,2.06l4.59,9.56-3,5.67h-.21Zm-1.54,21.71c0-1.51,1.19-2.77,3.08-3.29a2.51,2.51,0,0,0-.14.87,2,2,0,0,0,2.06,2.35c1.23,0,2.21-1.3,3.54-3.54H178c-1.92,3.61-3.25,6.72-5.7,6.72A2.91,2.91,0,0,1,169.23,171.48Zm14.35-14.74a9.67,9.67,0,0,0,1-4.51,3.39,3.39,0,0,0-3.57-3.68v-.21h8.72v.21c-1.16,0-1.61.45-2.28,1.64l-3.64,6.87Z"/><path class="cls-1" d="M198.59,148.2c-2.06.24-2.76,2-2.76,8.82,0,6.58.7,8.75,2.76,9v.21a8.92,8.92,0,0,1-8.71-9.17,8.77,8.77,0,0,1,8.71-9ZM208.68,157a8.92,8.92,0,0,1-8.69,9.17V166c2.07-.21,2.73-2.41,2.73-9,0-6.86-.7-8.61-2.73-8.82V148A8.73,8.73,0,0,1,208.68,157Z"/><path class="cls-1" d="M211,165.63c2.1,0,2.63-.91,2.63-1.78V151.42c0-1.26-.6-1.86-2.59-1.86v-.21a21.49,21.49,0,0,0,8.36-1.36v15.86c0,.87.53,1.78,2.63,1.78v.21H211Zm12.32,0c2.07,0,2.59-.91,2.59-1.78V152.93c0-2-1-3-2.76-3a3.77,3.77,0,0,0-2.66,1.08v-.21a7.14,7.14,0,0,1,5.81-2.83c3.15,0,5.39,1.47,5.39,4.94v10.92c0,.87.52,1.78,2.62,1.78v.21h-11Z"/><path class="cls-1" d="M236.18,157a8.66,8.66,0,0,1,8.58-9v.21c-2.07.24-2.63,2-2.63,8.68,0,5,2.24,7.81,5.36,7.81a7.62,7.62,0,0,0,5.11-1.86V163c-1.82,2.31-5.15,3.15-7.42,3.15A8.87,8.87,0,0,1,236.18,157Zm7.88-1.47c3.08,0,4.37-1,4.37-3.92,0-1.68-.7-3.22-2.27-3.43V148c4.62,0,6.86,3.29,6.86,5.95a9.94,9.94,0,0,1-.18,1.82h-8.78Z"/><path class="cls-1" d="M31.47,196a8.66,8.66,0,0,1,8.58-9v.21c-2.07.24-2.63,2-2.63,8.68,0,5,2.24,7.81,5.36,7.81a7.62,7.62,0,0,0,5.11-1.86V202c-1.82,2.31-5.15,3.15-7.42,3.15A8.87,8.87,0,0,1,31.47,196Zm7.88-1.47c3.08,0,4.37-1,4.37-3.92,0-1.68-.7-3.22-2.27-3.43V187c4.62,0,6.86,3.29,6.86,5.95a9.94,9.94,0,0,1-.18,1.82H39.35Z"/><path class="cls-1" d="M50.37,180.48a21.39,21.39,0,0,0,8.37-1.37v23.74c0,.87.52,1.78,2.62,1.78v.21h-11v-.21c2.11,0,2.63-.91,2.63-1.78V182.54c0-1.26-.6-1.85-2.59-1.85Z"/><path class="cls-1" d="M69.55,200.68a1.79,1.79,0,0,0-2,1.75c0,1,.7,2.31,3.11,2.55v.21c-4.65-.17-7.21-1.43-7.21-3.46a2.73,2.73,0,0,1,3-2.59A3.55,3.55,0,0,1,69.55,200.68ZM70.7,187.2c-1.29.24-2.55.91-2.52,2.34.11,4.06,11.45,4.73,11.45,10.3,0,3.39-2.87,5.18-7.39,5.35V205c1.48-.24,3.12-.77,3.12-2.59,0-3.64-11.48-5-11.48-10.29,0-3.08,2.9-4.94,6.82-5.11ZM79,190.6a2.29,2.29,0,0,1-2.59,2.17,3,3,0,0,1-3-1.69A1.55,1.55,0,0,0,75,189.44c0-1.05-1.33-2.07-2.74-2.24V187C76.2,187.2,79,188.63,79,190.6Z"/><path class="cls-1" d="M82.57,196a8.66,8.66,0,0,1,8.58-9v.21c-2.07.24-2.63,2-2.63,8.68,0,5,2.24,7.81,5.36,7.81A7.62,7.62,0,0,0,99,201.83V202c-1.82,2.31-5.15,3.15-7.42,3.15A8.87,8.87,0,0,1,82.57,196Zm7.87-1.47c3.09,0,4.38-1,4.38-3.92,0-1.68-.7-3.22-2.27-3.43V187c4.62,0,6.86,3.29,6.86,5.95a9.94,9.94,0,0,1-.18,1.82H90.44Z"/><rect class="cls-2" width="300" height="600"/></svg>