<?xml version="1.0" encoding="utf-8"?>
<!-- Generator: Adobe Illustrator 24.0.3, SVG Export Plug-In . SVG Version: 6.00 Build 0)  -->
<svg version="1.1" id="Layer_1" xmlns="http://www.w3.org/2000/svg" xmlns:xlink="http://www.w3.org/1999/xlink" x="0px" y="0px"
	 viewBox="0 0 300 600" style="enable-background:new 0 0 300 600;" xml:space="preserve">
<style type="text/css">
	.st0{clip-path:url(#SVGID_2_);}
	.st1{enable-background:new    ;}
	.st2{fill:#FFFFFF;}
</style>
<title>Artboard 1 copy 3</title>
<g>
	<defs>
		<rect id="SVGID_1_" y="0" width="300" height="600"/>
	</defs>
	<clipPath id="SVGID_2_">
		<use xlink:href="#SVGID_1_"  style="overflow:visible;"/>
	</clipPath>
	<g class="st0">
		<g class="st1">
			<path class="st2" d="M18.4,73.8c2.5,0,3.1-0.9,3.1-2.1V48.5c0-1.2-0.6-2.1-3.1-2.1v-0.2h10.1v25.6c0,1.2,0.6,2.1,3.1,2.1v0.2
				H18.4V73.8z M30.5,46.4v-0.2h11.3v8.2h-0.3C39.6,48.5,36.8,46.8,30.5,46.4z M32.8,60.4l-2.3-0.2v-0.2l2.3-0.2
				c2.4-0.2,4.1-1.2,5.4-3.5h0.3v7.6h-0.3C36.8,61.5,35.2,60.6,32.8,60.4z"/>
		</g>
		<g class="st1">
			<path class="st2" d="M53.8,53.4c-2.4,0.3-3.2,2.3-3.2,10.3c0,7.7,0.8,10.3,3.2,10.5v0.2c-4.7,0-10.2-3.9-10.2-10.8
				S49,53.2,53.8,53.1V53.4z M65.6,63.7c0,6.9-5.5,10.8-10.2,10.8v-0.2c2.4-0.2,3.2-2.8,3.2-10.5c0-8-0.8-10.1-3.2-10.3v-0.2
				C60.2,53.1,65.6,56.8,65.6,63.7z"/>
		</g>
		<g class="st1">
			<path class="st2" d="M78.2,71.7c0,1,0.6,2.1,3.1,2.1v0.2H68.3v-0.2c2.5,0,3.1-1.1,3.1-2.1V57.2c0-1.5-0.7-2.2-3-2.2v-0.2
				c3.8,0,6.9-0.4,9.8-1.6V71.7z M89.2,57.6c0,2.8-2,4.7-4.2,4.7c-1,0-1.8-0.2-2.3-0.9c0.8-0.4,1.6-1.3,1.6-2.8
				c0-1.2-0.9-2.2-2.3-2.2c-1.1,0-1.9,0.6-2.5,1.6v-0.3c0.8-2.6,2.8-4.4,5.3-4.4C87.7,53.1,89.2,55.1,89.2,57.6z"/>
		</g>
		<g class="st1">
			<path class="st2" d="M110.2,71.7c0,1,0.6,2.1,3.1,2.1v0.2h-12.9v-0.2c2.5,0,3.1-1.1,3.1-2.1V57.2c0-1.5-0.7-2.2-3-2.2v-0.2
				c3.8,0,6.9-0.4,9.8-1.6V71.7z M123.8,58.9v12.8c0,1,0.6,2.1,3,2.1v0.2h-12.9v-0.2c2.4,0,3.1-1.1,3.1-2.1V58.9
				c0-2.3-0.9-3.5-2.9-3.5c-1.1,0-2.2,0.6-2.7,1.2v-0.2c0.9-1.7,3-3.3,6-3.3C121.3,53.1,123.8,54.9,123.8,58.9z M137.4,58.9v12.8
				c0,1,0.6,2.1,3.1,2.1v0.2h-12.9v-0.2c2.4,0,3.1-1.1,3.1-2.1V58.9c0-2.3-0.9-3.5-2.9-3.5c-1.1,0-2.2,0.6-2.7,1.2v-0.2
				c0.9-1.7,3-3.3,6-3.3C134.9,53.1,137.4,54.9,137.4,58.9z"/>
			<path class="st2" d="M152.9,53.4c-2.4,0.3-3.2,2.3-3.2,10.3c0,7.7,0.8,10.3,3.2,10.5v0.2c-4.7,0-10.2-3.9-10.2-10.8
				s5.4-10.6,10.2-10.6V53.4z M164.7,63.7c0,6.9-5.5,10.8-10.2,10.8v-0.2c2.4-0.2,3.2-2.8,3.2-10.5c0-8-0.8-10.1-3.2-10.3v-0.2
				C159.3,53.1,164.7,56.8,164.7,63.7z"/>
		</g>
		<g class="st1">
			<path class="st2" d="M177.3,71.7c0,1,0.6,2.1,3.1,2.1v0.2h-12.9v-0.2c2.5,0,3.1-1.1,3.1-2.1V57.2c0-1.5-0.7-2.2-3-2.2v-0.2
				c3.8,0,6.9-0.4,9.8-1.6V71.7z M188.4,57.6c0,2.8-2,4.7-4.2,4.7c-1,0-1.8-0.2-2.3-0.9c0.8-0.4,1.6-1.3,1.6-2.8
				c0-1.2-0.9-2.2-2.3-2.2c-1.1,0-1.9,0.6-2.5,1.6v-0.3c0.8-2.6,2.8-4.4,5.3-4.4C186.8,53.1,188.4,55.1,188.4,57.6z"/>
		</g>
		<g class="st1">
			<path class="st2" d="M190.6,63.7c0-6.9,5.3-10.6,10.1-10.6v0.2c-2.4,0.3-3.1,2.3-3.1,10.2c0,5.9,2.6,9.2,6.3,9.2
				c2.3,0,4.1-0.7,6-2.2v0.2c-2.1,2.7-6,3.7-8.7,3.7C195.9,74.5,190.6,70.6,190.6,63.7z M199.8,62c3.6,0,5.1-1.1,5.1-4.6
				c0-2-0.8-3.8-2.7-4v-0.2c5.4,0,8,3.9,8,7c0,0.7-0.1,1.5-0.2,2.1h-10.3V62z"/>
		</g>
		<g class="st1">
			<path class="st2" d="M18.4,104.8c0-6.9,5.3-10.6,10.1-10.6v0.2c-2.4,0.3-3.1,2.3-3.1,10.2c0,5.9,2.6,9.2,6.3,9.2
				c2.3,0,4.1-0.7,6-2.2v0.2c-2.1,2.7-6,3.7-8.7,3.7C23.7,115.6,18.4,111.7,18.4,104.8z M27.6,103.1c3.6,0,5.1-1.1,5.1-4.6
				c0-2-0.8-3.8-2.7-4v-0.2c5.4,0,8,3.9,8,7c0,0.7-0.1,1.5-0.2,2.1H27.6V103.1z"/>
		</g>
		<g class="st1">
			<path class="st2" d="M41.5,96.3c-0.4-0.9-1-1.4-2.3-1.4v-0.2h11.5v0.2c-1.4,0-2,1-1.3,2.4l5.4,11.2l-3.5,6.7H51L41.5,96.3z
				 M56.5,104.5c0.7-1.3,1.1-3.1,1.1-5.3c0-2.3-1.3-4.3-4.2-4.3v-0.2h10.2v0.2c-1.4,0-1.9,0.5-2.7,1.9l-4.3,8L56.5,104.5z"/>
		</g>
		<g class="st1">
			<path class="st2" d="M64,104.8c0-6.9,5.3-10.6,10.1-10.6v0.2c-2.4,0.3-3.1,2.3-3.1,10.2c0,5.9,2.6,9.2,6.3,9.2
				c2.3,0,4.1-0.7,6-2.2v0.2c-2.1,2.7-6,3.7-8.7,3.7C69.3,115.6,64,111.7,64,104.8z M73.3,103.1c3.6,0,5.1-1.1,5.1-4.6
				c0-2-0.8-3.8-2.7-4v-0.2c5.4,0,8,3.9,8,7c0,0.7-0.1,1.5-0.2,2.1H73.3V103.1z"/>
			<path class="st2" d="M96.3,112.8c0,1,0.6,2.1,3.1,2.1v0.2H86.4v-0.2c2.5,0,3.1-1.1,3.1-2.1V98.2c0-1.5-0.7-2.2-3-2.2v-0.2
				c3.8,0,6.9-0.4,9.8-1.6V112.8z M107.3,98.6c0,2.8-2,4.7-4.2,4.7c-1,0-1.8-0.2-2.3-0.9c0.8-0.4,1.6-1.3,1.6-2.8
				c0-1.2-0.9-2.2-2.3-2.2c-1.1,0-1.9,0.6-2.5,1.6v-0.3c0.8-2.6,2.8-4.4,5.3-4.4C105.8,94.2,107.3,96.2,107.3,98.6z"/>
			<path class="st2" d="M110.1,96.3c-0.4-0.9-1-1.4-2.3-1.4v-0.2h11.5v0.2c-1.4,0-2,1-1.3,2.4l5.4,11.2l-3.5,6.7h-0.2L110.1,96.3z
				 M108.3,121.8c0-1.8,1.4-3.2,3.6-3.9c-0.1,0.4-0.2,0.7-0.2,1c0,1.6,0.8,2.8,2.4,2.8c1.4,0,2.6-1.5,4.1-4.1h0.3
				c-2.3,4.2-3.8,7.9-6.7,7.9C109.6,125.4,108.3,123.9,108.3,121.8z M125.2,104.5c0.7-1.3,1.1-3.1,1.1-5.3c0-2.3-1.3-4.3-4.2-4.3
				v-0.2h10.2v0.2c-1.4,0-1.9,0.5-2.7,1.9l-4.3,8L125.2,104.5z"/>
			<path class="st2" d="M148.4,112v0.2c-1.3,1.9-3.9,3.3-7,3.3c-3.7,0-6.3-1.7-6.3-5.8V96.3H133l0.5-0.6h1.7v-4.4
				c2.5,0,5-0.8,6.7-2.3v6.7h5.5l-0.5,0.6h-5.1v13.6c0,2.1,0.8,4.2,2.7,4.2C145.7,114.1,147.1,113.3,148.4,112z"/>
			<path class="st2" d="M159,112.8c0,1,0.6,2.1,3.1,2.1v0.2h-12.9v-0.2c2.5,0,3.1-1.1,3.1-2.1V89c0-1.5-0.7-2.2-3-2.2v-0.2
				c3.8,0,6.9-0.4,9.8-1.6V112.8z M173.4,100v12.8c0,1,0.6,2.1,3.1,2.1v0.2h-12.9v-0.2c2.4,0,3-1.1,3-2.1V100c0-2.3-1.2-3.5-3.2-3.5
				c-1.2,0-2.1,0.4-3.1,1.3v-0.2c1.1-1.7,3.8-3.3,6.8-3.3C170.8,94.2,173.4,95.9,173.4,100z"/>
			<path class="st2" d="M178,95.8c3.8,0,6.9-0.4,9.8-1.6v18.6c0,1,0.6,2.1,3.1,2.1v0.2H178v-0.2c2.5,0,3.1-1.1,3.1-2.1V98.2
				c0-1.5-0.7-2.2-3-2.2V95.8z M180.1,88c0-2.1,1.7-3.6,4.2-3.6c2.5,0,4.2,1.4,4.2,3.6c0,2.2-1.7,3.6-4.2,3.6
				C181.9,91.7,180.1,90.2,180.1,88z"/>
			<path class="st2" d="M192.7,114.9c2.5,0,3.1-1.1,3.1-2.1V98.2c0-1.5-0.7-2.2-3-2.2v-0.2c3.8,0,6.9-0.4,9.8-1.6v18.6
				c0,1,0.6,2.1,3.1,2.1v0.2h-12.9V114.9z M207.1,114.9c2.4,0,3-1.1,3-2.1V100c0-2.3-1.2-3.5-3.2-3.5c-1.1,0-2.1,0.4-3.1,1.3v-0.2
				c1.1-1.7,3.8-3.3,6.8-3.3c3.7,0,6.3,1.7,6.3,5.8v12.8c0,1,0.6,2.1,3.1,2.1v0.2h-12.9V114.9z"/>
			<path class="st2" d="M222.4,101.6c0-5.3,5-7.4,9.2-7.4v0.2c-1.8,0.2-2.6,2.3-2.6,7.1c0,5,0.8,7,2.6,7.1v0.2
				C227.5,108.9,222.4,106.9,222.4,101.6z M233.4,125.2c4.1-0.5,5.4-2.7,5.4-4.2c0-5.7-16-0.6-16-8c0-1.7,0.9-3,2.8-4.2l0.1,0.2
				c-0.2,0.2-0.4,0.5-0.4,0.8c0,4.6,18.7-0.7,18.7,8.2c0,4.2-3.7,7-10.6,7.4V125.2z M222.8,121.7c0-2.4,3-3.2,6.2-3.2
				c-0.7,0.3-1.8,1.5-1.8,2.9c0,1.9,2.1,3.3,4.5,3.7v0.2C227.3,125.3,222.8,124.4,222.8,121.7z M233.4,108.7c2-0.2,2.8-2.2,2.8-7.1
				c0-4.8-0.9-6.9-2.8-7.1v-0.2c4.4,0.1,9.4,2.1,9.4,7.4c0,5.3-5.1,7.3-9.4,7.3V108.7z M235.6,93.5c0.7-2.1,2.6-4.9,5.4-4.9
				c2.2,0,3.5,1.1,3.5,3.1c0,2-1.8,3.2-3.3,3.2c0-1.7-0.9-2.8-2.2-2.8c-1.2,0-2.6,0.7-3.2,1.5L235.6,93.5z"/>
		</g>
		<g class="st1">
			<path class="st2" d="M33.6,153v0.2c-1.3,1.9-3.9,3.3-7,3.3c-3.7,0-6.3-1.7-6.3-5.8v-13.5h-2.1l0.5-0.6h1.7v-4.4
				c2.5,0,5-0.8,6.7-2.3v6.7h5.5l-0.5,0.6h-5.1V151c0,2.1,0.8,4.2,2.7,4.2C30.8,155.1,32.2,154.4,33.6,153z"/>
			<path class="st2" d="M44.1,153.9c0,1,0.6,2.1,3.1,2.1v0.2H34.3V156c2.5,0,3.1-1.1,3.1-2.1v-23.8c0-1.5-0.7-2.2-3-2.2v-0.2
				c3.8,0,6.9-0.4,9.8-1.6V153.9z M58.5,141.1v12.8c0,1,0.6,2.1,3.1,2.1v0.2H48.7V156c2.4,0,3-1.1,3-2.1v-12.8
				c0-2.3-1.2-3.5-3.2-3.5c-1.1,0-2.1,0.4-3.1,1.3v-0.2c1.1-1.7,3.8-3.3,6.8-3.3C55.9,135.3,58.5,137,58.5,141.1z"/>
			<path class="st2" d="M63.4,151.4c0-3.6,3.3-5.6,7.9-5.6h4.4v0.2h-1.2c-3,0-4.4,1.9-4.4,4.5c0,2.3,0.7,4,2.6,4
				c1.1,0,2.1-0.6,3-1.4v0.2c-1.4,1.6-3.5,3.3-6.5,3.3C65.7,156.6,63.4,154.6,63.4,151.4z M65,139.7c0-2.1,1.9-4.2,7.5-4.5v0.2
				c-1.6,0.2-2.6,1.6-2.6,3c0,1.5,1,2.4,2.7,2.5c-0.6,1.1-2.3,2-3.9,2C66.4,143,65,141.5,65,139.7z M77,152v-12.6
				c0-2-0.8-3.6-2.8-3.9v-0.2c6.8,0.2,9.5,2.8,9.5,8.2v10c0,1.2,0.4,1.7,1.1,1.7c0.6,0,1.3-0.6,2-1.8h0.2c-0.7,2.3-2.9,3.3-5.3,3.3
				C78.4,156.6,77,155.5,77,152z"/>
			<path class="st2" d="M88.3,156c2.5,0,3.1-1.1,3.1-2.1v-14.6c0-1.5-0.7-2.2-3-2.2v-0.2c3.8,0,6.9-0.4,9.8-1.6v18.6
				c0,1,0.6,2.1,3.1,2.1v0.2H88.3V156z M102.8,156c2.4,0,3-1.1,3-2.1v-12.8c0-2.3-1.2-3.5-3.2-3.5c-1.1,0-2.1,0.4-3.1,1.3v-0.2
				c1.1-1.7,3.8-3.3,6.8-3.3c3.7,0,6.3,1.7,6.3,5.8v12.8c0,1,0.6,2.1,3.1,2.1v0.2h-12.9V156z"/>
			<path class="st2" d="M127.9,151.4c0-3.6,3.3-5.6,7.9-5.6h4.4v0.2H139c-3,0-4.4,1.9-4.4,4.5c0,2.3,0.7,4,2.6,4
				c1.1,0,2.1-0.6,3-1.4v0.2c-1.4,1.6-3.5,3.3-6.5,3.3C130.2,156.6,127.9,154.6,127.9,151.4z M129.6,139.7c0-2.1,1.9-4.2,7.5-4.5
				v0.2c-1.6,0.2-2.6,1.6-2.6,3c0,1.5,1,2.4,2.7,2.5c-0.6,1.1-2.3,2-3.9,2C130.9,143,129.6,141.5,129.6,139.7z M141.5,152v-12.6
				c0-2-0.8-3.6-2.8-3.9v-0.2c6.8,0.2,9.5,2.8,9.5,8.2v10c0,1.2,0.4,1.7,1.1,1.7c0.6,0,1.3-0.6,2-1.8h0.2c-0.7,2.3-2.9,3.3-5.3,3.3
				C142.9,156.6,141.5,155.5,141.5,152z"/>
		</g>
		<g class="st1">
			<path class="st2" d="M152.8,156c2.5,0,3.1-1.1,3.1-2.1v-14.6c0-1.5-0.7-2.2-3-2.2v-0.2c3.8,0,6.9-0.4,9.8-1.6v18.6
				c0,1,0.6,2.1,3.1,2.1v0.2h-12.9V156z M167.3,156c2.4,0,3-1.1,3-2.1v-12.8c0-2.3-1.2-3.5-3.2-3.5c-1.2,0-2.1,0.4-3.1,1.3v-0.2
				c1.1-1.7,3.8-3.3,6.8-3.3c3.7,0,6.3,1.7,6.3,5.8v12.8c0,1,0.6,2.1,3.1,2.1v0.2h-12.9V156z"/>
		</g>
		<g class="st1">
			<path class="st2" d="M181.8,137.4c-0.4-0.9-1-1.4-2.3-1.4v-0.2H191v0.2c-1.4,0-2,1-1.3,2.4l5.4,11.2l-3.5,6.7h-0.2L181.8,137.4z
				 M180,162.8c0-1.8,1.4-3.2,3.6-3.9c-0.1,0.4-0.2,0.7-0.2,1c0,1.6,0.8,2.8,2.4,2.8c1.4,0,2.6-1.5,4.1-4.1h0.3
				c-2.3,4.2-3.8,7.9-6.7,7.9C181.3,166.5,180,164.9,180,162.8z M196.8,145.5c0.7-1.3,1.1-3.1,1.1-5.3c0-2.3-1.3-4.3-4.2-4.3v-0.2
				H204v0.2c-1.4,0-1.9,0.5-2.7,1.9l-4.3,8L196.8,145.5z"/>
		</g>
		<g class="st1">
			<path class="st2" d="M214.4,135.5c-2.4,0.3-3.2,2.3-3.2,10.3c0,7.7,0.8,10.3,3.2,10.5v0.2c-4.7,0-10.2-3.9-10.2-10.8
				s5.4-10.6,10.2-10.6V135.5z M226.2,145.9c0,6.9-5.5,10.8-10.2,10.8v-0.2c2.4-0.2,3.2-2.8,3.2-10.5c0-8-0.8-10.1-3.2-10.3v-0.2
				C220.8,135.3,226.2,138.9,226.2,145.9z"/>
			<path class="st2" d="M229,156c2.5,0,3.1-1.1,3.1-2.1v-14.6c0-1.5-0.7-2.2-3-2.2v-0.2c3.8,0,6.9-0.4,9.8-1.6v18.6
				c0,1,0.6,2.1,3.1,2.1v0.2H229V156z M243.4,156c2.4,0,3-1.1,3-2.1v-12.8c0-2.3-1.2-3.5-3.2-3.5c-1.1,0-2.1,0.4-3.1,1.3v-0.2
				c1.1-1.7,3.8-3.3,6.8-3.3c3.7,0,6.3,1.7,6.3,5.8v12.8c0,1,0.6,2.1,3.1,2.1v0.2h-12.9V156z"/>
			<path class="st2" d="M258.5,145.9c0-6.9,5.3-10.6,10.1-10.6v0.2c-2.4,0.3-3.1,2.3-3.1,10.2c0,5.9,2.6,9.2,6.3,9.2
				c2.3,0,4.1-0.7,6-2.2v0.2c-2.1,2.7-6,3.7-8.7,3.7C263.8,156.6,258.5,152.8,258.5,145.9z M267.8,144.1c3.6,0,5.1-1.1,5.1-4.6
				c0-2-0.8-3.8-2.7-4v-0.2c5.4,0,8,3.9,8,7c0,0.7-0.1,1.5-0.2,2.1h-10.3V144.1z"/>
		</g>
		<g class="st1">
			<path class="st2" d="M18.4,186.9c0-6.9,5.3-10.6,10.1-10.6v0.2c-2.4,0.3-3.1,2.3-3.1,10.2c0,5.9,2.6,9.2,6.3,9.2
				c2.3,0,4.1-0.7,6-2.2v0.2c-2.1,2.7-6,3.7-8.7,3.7C23.7,197.7,18.4,193.8,18.4,186.9z M27.6,185.2c3.6,0,5.1-1.1,5.1-4.6
				c0-2-0.8-3.8-2.7-4v-0.2c5.4,0,8,3.9,8,7c0,0.7-0.1,1.5-0.2,2.1H27.6V185.2z"/>
			<path class="st2" d="M40.5,168.7c3.8,0,6.9-0.4,9.8-1.6v27.8c0,1,0.6,2.1,3.1,2.1v0.2H40.5V197c2.5,0,3.1-1.1,3.1-2.1v-23.8
				c0-1.5-0.7-2.2-3-2.2V168.7z"/>
			<path class="st2" d="M63,192.4c-1.4,0-2.3,0.8-2.3,2.1c0,1.2,0.8,2.7,3.7,3v0.2c-5.5-0.2-8.5-1.7-8.5-4.1c0-1.9,1.6-3,3.5-3
				C61.1,190.6,62.4,191.4,63,192.4z M64.4,176.6c-1.5,0.3-3,1.1-3,2.8c0.1,4.8,13.4,5.5,13.4,12.1c0,4-3.4,6.1-8.7,6.3v-0.2
				c1.7-0.3,3.7-0.9,3.7-3c0-4.3-13.5-5.8-13.5-12.1c0-3.6,3.4-5.8,8-6V176.6z M74.1,180.6c0,1.3-1,2.5-3,2.5c-1.7,0-3-0.7-3.5-2
				c1.2-0.1,1.9-0.9,1.8-1.9c0-1.2-1.6-2.4-3.2-2.6v-0.2C70.8,176.6,74.1,178.3,74.1,180.6z"/>
			<path class="st2" d="M78.3,186.9c0-6.9,5.3-10.6,10.1-10.6v0.2c-2.4,0.3-3.1,2.3-3.1,10.2c0,5.9,2.6,9.2,6.3,9.2
				c2.3,0,4.1-0.7,6-2.2v0.2c-2.1,2.7-6,3.7-8.7,3.7C83.6,197.7,78.3,193.8,78.3,186.9z M87.6,185.2c3.6,0,5.1-1.1,5.1-4.6
				c0-2-0.8-3.8-2.7-4v-0.2c5.4,0,8,3.9,8,7c0,0.7-0.1,1.5-0.2,2.1H87.6V185.2z"/>
		</g>
	</g>
</g>
</svg>
