<svg id="Layer_1" data-name="Layer 1" xmlns="http://www.w3.org/2000/svg" viewBox="0 0 300 600"><defs><style>.cls-1{fill:#fb0010;}.cls-2{fill:#fff;}.cls-3{fill:none;}</style></defs><title>Artboard 1 copy</title><path class="cls-1" d="M24.62,241.31v45.6a16.26,16.26,0,0,0,8.77,14.43l68.33,35.45a20.35,20.35,0,0,0,18.72,0l68.33-35.45a16.26,16.26,0,0,0,8.77-14.43v-45.6a7.59,7.59,0,0,0-7.59-7.59H32.21A7.59,7.59,0,0,0,24.62,241.31Z"/><path class="cls-2" d="M94.06,266.26l.31-.45c.22-.31.46-.32.81-.13a3.52,3.52,0,0,0,2,.73c.93,0,1.49-.46,1.49-1.14,0-1.89-4.66-1.5-4.66-4.61,0-1.76,1.47-2.9,3.37-2.9a4.62,4.62,0,0,1,2.57.76.56.56,0,0,1,.19.8l-.26.47c-.21.4-.5.35-.8.19a3.28,3.28,0,0,0-1.73-.55c-.93,0-1.52.46-1.52,1.13,0,1.87,4.66,1.39,4.66,4.57a3,3,0,0,1-3.31,3,5.3,5.3,0,0,1-3.07-1A.53.53,0,0,1,94.06,266.26Z"/><path class="cls-2" d="M104.54,259.49h-2.69a.52.52,0,0,1-.59-.58v-.39a.53.53,0,0,1,.59-.59H109a.53.53,0,0,1,.58.59v.39a.52.52,0,0,1-.58.58h-2.69v7.84a.52.52,0,0,1-.59.59h-.63a.52.52,0,0,1-.58-.59Z"/><path class="cls-2" d="M112,258.41a.64.64,0,0,1,.66-.48h.91a.63.63,0,0,1,.66.48l3.12,8.83c.14.41,0,.68-.48.68h-.64a.63.63,0,0,1-.67-.48l-.7-2.08h-3.5l-.69,2.07a.63.63,0,0,1-.66.49h-.65c-.44,0-.62-.27-.48-.68Zm2.41,5.47-.89-2.67c-.17-.57-.39-1.55-.39-1.55h0s-.22,1-.39,1.55l-.9,2.67Z"/><path class="cls-2" d="M118.59,258.52a.53.53,0,0,1,.58-.59h2.7a4.43,4.43,0,0,1,1.9.27,2.79,2.79,0,0,1,1.68,2.73,2.9,2.9,0,0,1-1.66,2.73v0a4.73,4.73,0,0,1,.32.53l1.65,3c.23.4,0,.7-.41.7h-.76a.71.71,0,0,1-.69-.41l-1.76-3.32h-1.75v3.14a.51.51,0,0,1-.57.59h-.65a.52.52,0,0,1-.58-.59Zm3.44,4.1a1.47,1.47,0,0,0,1.57-1.6,1.34,1.34,0,0,0-.79-1.36,2.5,2.5,0,0,0-1.08-.17h-1.34v3.13Z"/><path class="cls-2" d="M94.72,270.73c0-.23.11-.36.34-.36h.29a.32.32,0,0,1,.34.36v9.19a.32.32,0,0,1-.34.35h-.29a.31.31,0,0,1-.34-.35Z"/><path class="cls-2" d="M98,273.54a.32.32,0,0,1,.35-.35h.26a.31.31,0,0,1,.33.35v.82a2.51,2.51,0,0,1,0,.5h0A3.12,3.12,0,0,1,101.8,273c1.76,0,2.38,1,2.38,2.74v4.16a.32.32,0,0,1-.35.35h-.27a.31.31,0,0,1-.34-.35V276c0-1.11-.18-2.1-1.54-2.1A2.75,2.75,0,0,0,99,276.81v3.11a.31.31,0,0,1-.34.35h-.27a.32.32,0,0,1-.35-.35Z"/><path class="cls-2" d="M105.7,279.14l.11-.14a.32.32,0,0,1,.48-.06,3.06,3.06,0,0,0,1.87.65c.79,0,1.44-.39,1.44-1.14,0-1.59-3.79-1.11-3.79-3.45,0-1.3,1.12-2,2.41-2a3.26,3.26,0,0,1,1.94.58.3.3,0,0,1,.1.46l-.1.16c-.11.19-.28.21-.48.1a2.56,2.56,0,0,0-1.52-.46c-.74,0-1.39.33-1.39,1.1,0,1.63,3.77,1.11,3.77,3.48a2.13,2.13,0,0,1-2.39,2,3.65,3.65,0,0,1-2.39-.82A.32.32,0,0,1,105.7,279.14Z"/><path class="cls-2" d="M112,273.54a.31.31,0,0,1,.34-.35h.27a.32.32,0,0,1,.35.35v3.9c0,1.11.17,2.1,1.53,2.1a2.76,2.76,0,0,0,2.62-3v-3a.32.32,0,0,1,.35-.35h.27a.31.31,0,0,1,.34.35v6.38a.31.31,0,0,1-.34.35h-.25a.31.31,0,0,1-.34-.35v-.82a3.32,3.32,0,0,1,0-.51h0a3.05,3.05,0,0,1-2.78,1.85c-1.68,0-2.37-.9-2.37-2.75Z"/><path class="cls-2" d="M120.1,273.54a.32.32,0,0,1,.35-.35h.26a.31.31,0,0,1,.33.35v1a3.18,3.18,0,0,1-.05.56h0a2.51,2.51,0,0,1,2.28-1.91c.25,0,.36.11.36.33v.26a.34.34,0,0,1-.39.35c-1.49,0-2.21,1.7-2.21,3.18v2.65a.31.31,0,0,1-.34.35h-.27a.32.32,0,0,1-.35-.35Z"/><path class="cls-2" d="M128.53,275.93h.41v-.22c0-1.37-.74-1.83-1.74-1.83a3.29,3.29,0,0,0-1.72.49.33.33,0,0,1-.48-.11l-.08-.14a.32.32,0,0,1,.1-.48,4.24,4.24,0,0,1,2.25-.62,2.41,2.41,0,0,1,2.63,2.72v4.18a.31.31,0,0,1-.34.35h-.22a.32.32,0,0,1-.36-.35v-.57a2.52,2.52,0,0,1,.05-.53h0a2.64,2.64,0,0,1-2.39,1.62,2.19,2.19,0,0,1-2.4-2.07C124.21,276.06,127.17,275.93,128.53,275.93Zm-1.75,3.7c1.36,0,2.16-1.4,2.16-2.64v-.34h-.39c-1.11,0-3.35,0-3.35,1.63A1.42,1.42,0,0,0,126.78,279.63Z"/><path class="cls-2" d="M131.91,273.54a.32.32,0,0,1,.35-.35h.25a.32.32,0,0,1,.34.35v.82a2.11,2.11,0,0,1-.06.5h0a3.15,3.15,0,0,1,2.86-1.84c1.76,0,2.38,1,2.38,2.74v4.16a.32.32,0,0,1-.36.35h-.26a.31.31,0,0,1-.34-.35V276c0-1.11-.18-2.1-1.55-2.1a2.75,2.75,0,0,0-2.69,2.89v3.11a.31.31,0,0,1-.33.35h-.27a.32.32,0,0,1-.35-.35Z"/><path class="cls-2" d="M143.35,273a3.72,3.72,0,0,1,2.35.8.31.31,0,0,1,0,.48l-.1.16c-.12.19-.28.19-.47.07a2.92,2.92,0,0,0-1.79-.65,2.85,2.85,0,0,0,0,5.7,3.1,3.1,0,0,0,2-.75.28.28,0,0,1,.46.09l.1.14a.34.34,0,0,1-.08.48,4,4,0,0,1-2.52.9,3.71,3.71,0,1,1,0-7.42Z"/><path class="cls-2" d="M150.32,273c1.89,0,3,1.37,3,3.38a.35.35,0,0,1-.36.35h-5.1a2.71,2.71,0,0,0,2.75,2.83,3.07,3.07,0,0,0,1.86-.65.28.28,0,0,1,.46.09l.11.16a.33.33,0,0,1-.1.47,4,4,0,0,1-2.36.79,3.58,3.58,0,0,1-3.7-3.7A3.46,3.46,0,0,1,150.32,273Zm2,3a2,2,0,0,0-2-2.22,2.43,2.43,0,0,0-2.43,2.22Z"/><path class="cls-2" d="M99.05,283.4a5.59,5.59,0,0,1,3.27,1,.55.55,0,0,1,.11.82l-.25.41c-.2.32-.47.35-.8.14a4.21,4.21,0,0,0-2.26-.7,3.22,3.22,0,0,0-3.35,3.43,3.36,3.36,0,0,0,3.37,3.57,4.21,4.21,0,0,0,2.45-.87c.31-.22.59-.22.81.1l.28.38a.55.55,0,0,1-.08.82,5.6,5.6,0,0,1-3.53,1.23,5.17,5.17,0,0,1,0-10.33Z"/><path class="cls-2" d="M107.91,289.13h.29V289c0-.94-.6-1.26-1.34-1.26a3.3,3.3,0,0,0-1.49.4.53.53,0,0,1-.79-.23l-.14-.27a.53.53,0,0,1,.23-.79,5.07,5.07,0,0,1,2.35-.59,2.67,2.67,0,0,1,3,2.86V293a.52.52,0,0,1-.59.59h-.48a.52.52,0,0,1-.58-.59v-.28a1.41,1.41,0,0,1,0-.31h0a2.6,2.6,0,0,1-2.25,1.35,2.2,2.2,0,0,1-2.38-2.15C103.71,289.48,106.3,289.13,107.91,289.13Zm-1.34,3.24a1.82,1.82,0,0,0,1.65-1.89v-.26h-.3c-.9,0-2.43.14-2.43,1.21A1,1,0,0,0,106.57,292.37Z"/><path class="cls-2" d="M111.68,287a.53.53,0,0,1,.58-.59h.54a.53.53,0,0,1,.58.59v.44a2.16,2.16,0,0,1,0,.32h0a2.77,2.77,0,0,1,2.35-1.52,2,2,0,0,1,2.1,1.48h0a2.83,2.83,0,0,1,2.44-1.48c1.5,0,2.35.84,2.35,2.73v4a.52.52,0,0,1-.59.59h-.6a.52.52,0,0,1-.59-.59v-3.68c0-.82-.16-1.44-1-1.44-1.21,0-1.83,1.24-1.83,2.49V293c0,.4-.19.59-.57.59h-.62a.52.52,0,0,1-.59-.59v-3.68c0-.78-.12-1.44-1-1.44-1.27,0-1.86,1.3-1.86,2.49V293a.52.52,0,0,1-.58.59h-.61a.52.52,0,0,1-.58-.59Z"/><path class="cls-2" d="M124.37,287a.53.53,0,0,1,.59-.59h.45c.38,0,.57.21.57.49v.32c0,.16,0,.29,0,.29h0a2.57,2.57,0,0,1,2.31-1.27c1.94,0,3.19,1.53,3.19,3.76s-1.41,3.75-3.29,3.75a2.34,2.34,0,0,1-2.07-1.09h0a4.33,4.33,0,0,1,0,.62v2.53a.52.52,0,0,1-.59.59H125a.53.53,0,0,1-.59-.59Zm3.51,5.25c1,0,1.81-.8,1.81-2.23s-.74-2.25-1.78-2.25-1.81.68-1.81,2.27A2,2,0,0,0,127.88,292.23Z"/><path class="cls-2" d="M136.12,286.22a3.1,3.1,0,0,1,3.18,3.42.62.62,0,0,1-.62.6H134.3a2.07,2.07,0,0,0,2.16,2,2.93,2.93,0,0,0,1.54-.46c.36-.17.61-.13.79.2l.17.28a.54.54,0,0,1-.2.79,4.58,4.58,0,0,1-2.43.71,3.67,3.67,0,0,1-3.86-3.75A3.54,3.54,0,0,1,136.12,286.22Zm1.41,2.94a1.46,1.46,0,0,0-1.45-1.59,1.75,1.75,0,0,0-1.74,1.59Z"/><path class="cls-2" d="M140.64,287a.53.53,0,0,1,.58-.59h.55a.53.53,0,0,1,.59.59v.67a3.27,3.27,0,0,1,0,.5h0a2.47,2.47,0,0,1,2.08-1.82c.39,0,.53.2.53.59v.55a.54.54,0,0,1-.6.59c-1.31,0-1.94,1.3-1.94,2.61V293a.52.52,0,0,1-.58.59h-.62a.52.52,0,0,1-.58-.59Z"/><path class="cls-2" d="M150.9,283.4a5.61,5.61,0,0,1,3.27,1,.55.55,0,0,1,.11.82l-.25.41c-.2.32-.47.35-.81.14a4.14,4.14,0,0,0-2.25-.7,3.22,3.22,0,0,0-3.35,3.43,3.35,3.35,0,0,0,3.37,3.57,4.21,4.21,0,0,0,2.45-.87c.31-.22.59-.22.81.1l.28.38a.55.55,0,0,1-.08.82,5.6,5.6,0,0,1-3.53,1.23,5.17,5.17,0,0,1,0-10.33Z"/><path class="cls-2" d="M159.75,289.13h.3V289c0-.94-.6-1.26-1.34-1.26a3.3,3.3,0,0,0-1.49.4.53.53,0,0,1-.79-.23l-.14-.27a.52.52,0,0,1,.23-.79,5.07,5.07,0,0,1,2.35-.59,2.67,2.67,0,0,1,3,2.86V293a.52.52,0,0,1-.59.59h-.48a.52.52,0,0,1-.58-.59v-.28a1.41,1.41,0,0,1,0-.31h0a2.6,2.6,0,0,1-2.25,1.35,2.2,2.2,0,0,1-2.38-2.15C155.56,289.48,158.15,289.13,159.75,289.13Zm-1.33,3.24a1.82,1.82,0,0,0,1.64-1.89v-.26h-.29c-.9,0-2.44.14-2.44,1.21A1,1,0,0,0,158.42,292.37Z"/><path class="cls-2" d="M163.53,287a.52.52,0,0,1,.57-.59h.55a.53.53,0,0,1,.59.59v.67a3.27,3.27,0,0,1,0,.5h0a2.47,2.47,0,0,1,2.08-1.82c.4,0,.54.2.54.59v.55a.55.55,0,0,1-.61.59c-1.31,0-1.94,1.3-1.94,2.61V293a.52.52,0,0,1-.58.59h-.62c-.38,0-.57-.19-.57-.59Z"/><path class="cls-2" d="M171.92,286.22a3.1,3.1,0,0,1,3.18,3.42.62.62,0,0,1-.62.6H170.1a2.06,2.06,0,0,0,2.15,2,3,3,0,0,0,1.55-.46c.35-.17.61-.13.79.2l.17.28a.54.54,0,0,1-.2.79,4.58,4.58,0,0,1-2.43.71,3.67,3.67,0,0,1-3.86-3.75A3.54,3.54,0,0,1,171.92,286.22Zm1.4,2.94a1.46,1.46,0,0,0-1.45-1.59,1.75,1.75,0,0,0-1.73,1.59Z"/><path class="cls-2" d="M60.79,289.08a1.07,1.07,0,0,1-.46-.11,1,1,0,0,1-.49-1.19l10.42-32.07a2.18,2.18,0,0,1,2.11-1.53h0a2.18,2.18,0,0,1,2.12,1.53l2.11,6.36a.75.75,0,1,1-1.43.47l-2.11-6.35a.69.69,0,0,0-.69-.5h0a.69.69,0,0,0-.68.49l-9.42,29L75.54,267a4.14,4.14,0,0,1,3.33-1.69h8.84a2.23,2.23,0,0,1,1.31,4l-8.08,5.87-.09.08L84,284.9a2.22,2.22,0,0,1-3.42,2.49l-7-5.08a2.22,2.22,0,0,1,0-3.6l5.86-4.25.09-.07,8.61-6.26a.72.72,0,0,0-.42-1.3H78.87a2.62,2.62,0,0,0-2.11,1.07L61.59,288.67A1,1,0,0,1,60.79,289.08Zm18.78-12.85-5.12,3.7a.73.73,0,0,0,0,1.16l7,5.08a.72.72,0,0,0,1.1-.8Z"/><path class="cls-2" d="M61.33,273.14a.72.72,0,0,1-.44-.14l-5.16-3.65a2.23,2.23,0,0,1,1.3-4h6.33a.76.76,0,0,1,0,1.51H57a.7.7,0,0,0-.68.5.71.71,0,0,0,.26.8l5.15,3.64a.75.75,0,0,1,.18,1.05A.74.74,0,0,1,61.33,273.14Z"/><path class="cls-2" d="M68.35,299.72a2.46,2.46,0,0,1-1.21-.32L54,291.92a.75.75,0,0,1-.38-.65V275.19a.76.76,0,0,1,1.51,0v15.64l12.79,7.26a1,1,0,0,0,1,0l9.34-5.86a.76.76,0,0,1,1,.24.75.75,0,0,1-.24,1l-9.34,5.85A2.45,2.45,0,0,1,68.35,299.72Z"/><rect class="cls-3" width="300" height="599.49"/></svg>