<svg id="Layer_1" data-name="Layer 1" xmlns="http://www.w3.org/2000/svg" viewBox="0 0 320 600"><defs><style>.cls-1{fill:#fff;}.cls-2{fill:none;}</style></defs><title>Artboard 1 copy 2</title><path class="cls-1" d="M31.19,46.51a21.36,21.36,0,0,0,8.37-1.37V61c0,.88.52,1.79,2.62,1.79V63h-11v-.21c2.1,0,2.62-.91,2.62-1.79V48.57c0-1.26-.59-1.85-2.59-1.85ZM33,39.93c0-1.83,1.47-3,3.57-3s3.57,1.22,3.57,3S38.65,43,36.55,43,33,41.78,33,39.93Z"/><path class="cls-1" d="M50.37,58.86a1.8,1.8,0,0,0-2,1.75c0,1,.7,2.31,3.12,2.56v.21c-4.66-.18-7.22-1.44-7.22-3.47a2.73,2.73,0,0,1,3-2.59A3.57,3.57,0,0,1,50.37,58.86Zm1.16-13.47c-1.3.24-2.56.91-2.52,2.34.1,4.06,11.44,4.73,11.44,10.29,0,3.4-2.87,5.18-7.38,5.36v-.21c1.47-.25,3.11-.77,3.11-2.59,0-3.64-11.48-5-11.48-10.29,0-3.08,2.91-4.94,6.83-5.11Zm8.26,3.39C59.79,49.87,59,51,57.2,51a3,3,0,0,1-3-1.68,1.56,1.56,0,0,0,1.58-1.64c0-1.05-1.33-2.07-2.73-2.24v-.21C57,45.39,59.79,46.82,59.79,48.78Z"/><path class="cls-1" d="M72.28,54.21a8.66,8.66,0,0,1,8.58-9v.21c-2.07.24-2.63,2-2.63,8.68,0,5,2.24,7.8,5.36,7.8A7.66,7.66,0,0,0,88.7,60v.21c-1.82,2.31-5.15,3.15-7.42,3.15A8.87,8.87,0,0,1,72.28,54.21Zm7.88-1.47c3.08,0,4.37-1,4.37-3.92,0-1.68-.7-3.22-2.27-3.43v-.21c4.62,0,6.86,3.29,6.86,6A9.94,9.94,0,0,1,88.94,53H80.16Z"/><path class="cls-1" d="M91.63,58.9c0-3,2.8-4.76,6.72-4.76h3.79v.21h-1a3.46,3.46,0,0,0-3.72,3.81c0,1.93.56,3.4,2.21,3.4a3.86,3.86,0,0,0,2.56-1.23v.21a7.46,7.46,0,0,1-5.57,2.84C93.59,63.38,91.6,61.7,91.63,58.9ZM93,49c0-1.78,1.61-3.6,6.37-3.81v.21a2.56,2.56,0,0,0-2.24,2.55c0,1.26.88,2,2.28,2.14a3.94,3.94,0,0,1-3.36,1.68A2.81,2.81,0,0,1,93,49Zm10.15,10.43V48.71c0-1.71-.66-3.08-2.38-3.32v-.21c5.82.21,8.13,2.41,8.13,7v8.5c0,1,.35,1.44,1,1.44s1.12-.53,1.68-1.58h.21c-.56,1.93-2.45,2.84-4.55,2.84C104.45,63.38,103.18,62.4,103.18,59.42Z"/><path class="cls-1" d="M119.6,58.86a1.79,1.79,0,0,0-2,1.75c0,1,.7,2.31,3.12,2.56v.21c-4.66-.18-7.22-1.44-7.22-3.47a2.73,2.73,0,0,1,3-2.59A3.57,3.57,0,0,1,119.6,58.86Zm1.16-13.47c-1.3.24-2.56.91-2.53,2.34.11,4.06,11.45,4.73,11.45,10.29,0,3.4-2.87,5.18-7.38,5.36v-.21c1.47-.25,3.11-.77,3.11-2.59,0-3.64-11.48-5-11.48-10.29,0-3.08,2.91-4.94,6.83-5.11ZM129,48.78c0,1.09-.84,2.17-2.59,2.17a3,3,0,0,1-3-1.68A1.56,1.56,0,0,0,125,47.63c0-1.05-1.33-2.07-2.73-2.24v-.21C126.25,45.39,129,46.82,129,48.78Z"/><path class="cls-1" d="M132.62,47a1.9,1.9,0,0,0-1.93-1.22v-.21h9.8v.21c-1.22,0-1.71.84-1.12,2.06L144,57.36,141,63h-.21Zm-1.54,21.7c0-1.5,1.19-2.76,3.08-3.29a2.6,2.6,0,0,0-.14.88,2,2,0,0,0,2.06,2.34c1.23,0,2.21-1.29,3.54-3.53h.24c-1.92,3.6-3.25,6.72-5.7,6.72A2.91,2.91,0,0,1,131.08,68.66Zm14.35-14.73a9.68,9.68,0,0,0,1-4.52,3.38,3.38,0,0,0-3.57-3.67v-.21h8.72v.21c-1.16,0-1.61.45-2.28,1.64l-3.64,6.86Z"/><path class="cls-1" d="M38.68,86.8l4.59,9.56-3,5.67h-.21L31.93,86A1.9,1.9,0,0,0,30,84.74v-.21h9.8v.21C38.58,84.74,38.09,85.58,38.68,86.8Zm11.52,0,4.58,9.56-3,5.67h-.21L46.07,91.14,45,93.24l-.21-.31A5.26,5.26,0,0,0,45,89L43.44,86a1.89,1.89,0,0,0-1.92-1.22v-.21h9.8v.21C50.09,84.74,49.6,85.58,50.2,86.8Zm12.18-2.27v.21c-1.16,0-1.65.45-2.28,1.64l-3.64,6.86-.21-.31a9.56,9.56,0,0,0,1-4.52,3.38,3.38,0,0,0-3.57-3.67v-.21Z"/><path class="cls-1" d="M62.69,85.51a21.36,21.36,0,0,0,8.37-1.37V100c0,.88.52,1.79,2.62,1.79V102h-11v-.21c2.1,0,2.62-.91,2.62-1.79V87.57c0-1.26-.59-1.85-2.59-1.85Zm1.79-6.58c0-1.83,1.47-3.05,3.57-3.05s3.57,1.22,3.57,3.05S70.15,82,68.05,82,64.48,80.78,64.48,78.93Z"/><path class="cls-1" d="M88.73,99.33v.21a7.32,7.32,0,0,1-6,2.84c-3.15,0-5.4-1.44-5.4-4.94V86H75.54l.38-.52h1.43V81.66a8.9,8.9,0,0,0,5.75-2v5.74h4.72l-.38.52H83.1V97.55c0,1.75.66,3.57,2.31,3.57A5.13,5.13,0,0,0,88.73,99.33Z"/><path class="cls-1" d="M97.76,100c0,.88.53,1.79,2.63,1.79V102h-11v-.21c2.1,0,2.62-.91,2.62-1.79V79.73c0-1.26-.59-1.85-2.59-1.85v-.21a21.32,21.32,0,0,0,8.37-1.37ZM110,89.11V100c0,.88.53,1.79,2.63,1.79V102h-11v-.21c2.06,0,2.59-.91,2.59-1.79V89.11c0-2-1-3-2.77-3a3.72,3.72,0,0,0-2.66,1.08V87a7.15,7.15,0,0,1,5.81-2.83C107.77,84.18,110,85.65,110,89.11Z"/><path class="cls-1" d="M132.34,102.17v.21a13.24,13.24,0,0,1-6.79-1.72l-1.16,1.72h-.28V93.84h.28A11.76,11.76,0,0,0,132.34,102.17Zm10.29-7c0,4.52-3.36,7-8.78,7.18v-.21c1.92-.35,3.81-1.47,3.81-3.57,0-6.13-13.37-6.69-13.37-13.79,0-4.2,3.39-6.62,8-6.93v.21c-1.61.28-3.08,1.29-3.08,3.22C129.26,87.43,142.63,88.1,142.63,95.2Zm-8.78-17.11v-.21a11.3,11.3,0,0,1,6.3,1.85l1.26-1.85h.28v7.8h-.28A11.13,11.13,0,0,0,133.85,78.09Z"/><path class="cls-1" d="M158.59,99.33v.21a7.33,7.33,0,0,1-6,2.84c-3.15,0-5.39-1.44-5.39-4.94V86h-1.82l.39-.52h1.43V81.66a8.9,8.9,0,0,0,5.75-2v5.74h4.72l-.38.52H153V97.55c0,1.75.66,3.57,2.3,3.57A5.13,5.13,0,0,0,158.59,99.33Z"/><path class="cls-1" d="M159.71,97.9c0-3.05,2.8-4.76,6.72-4.76h3.78v.21h-1.05a3.46,3.46,0,0,0-3.71,3.81c0,1.93.56,3.4,2.2,3.4a3.86,3.86,0,0,0,2.56-1.23v.21a7.46,7.46,0,0,1-5.57,2.84C161.67,102.38,159.67,100.7,159.71,97.9Zm1.4-9.91c0-1.78,1.61-3.6,6.37-3.81v.21a2.55,2.55,0,0,0-2.24,2.55c0,1.26.87,2,2.27,2.14a3.93,3.93,0,0,1-3.36,1.68A2.81,2.81,0,0,1,161.11,88Zm10.15,10.43V87.71c0-1.71-.67-3.08-2.38-3.32v-.21c5.81.21,8.12,2.41,8.12,7v8.5c0,1,.35,1.44,1,1.44s1.12-.53,1.68-1.58h.21c-.56,1.93-2.45,2.84-4.55,2.84C172.52,102.38,171.26,101.4,171.26,98.42Z"/><path class="cls-1" d="M189.35,100c0,.88.53,1.79,2.63,1.79V102H181v-.21c2.1,0,2.63-.91,2.63-1.79V87.61c0-1.26-.6-1.86-2.59-1.86v-.21a21.49,21.49,0,0,0,8.36-1.36ZM198.81,88a3.75,3.75,0,0,1-3.61,4,2.37,2.37,0,0,1-2-.77,2.57,2.57,0,0,0,1.36-2.38,1.85,1.85,0,0,0-2-1.89,2.4,2.4,0,0,0-2.1,1.33V88a4.85,4.85,0,0,1,4.55-3.78A3.56,3.56,0,0,1,198.81,88Z"/><path class="cls-1" d="M31.79,140.82c2.1,0,2.62-.84,2.62-1.79V119.22c0-.94-.52-1.78-2.62-1.78v-.21H43v.21c-2.1,0-2.63.84-2.63,1.78V139c0,.95.53,1.79,2.63,1.79V141H31.79Z"/><path class="cls-1" d="M45.33,140.82c2.1,0,2.63-.91,2.63-1.79V126.61c0-1.26-.6-1.86-2.59-1.86v-.21a21.49,21.49,0,0,0,8.36-1.36V139c0,.88.53,1.79,2.63,1.79V141h-11Zm12.32,0c2.07,0,2.59-.91,2.59-1.79V128.11c0-2-1-3-2.76-3a3.72,3.72,0,0,0-2.66,1.08V126a7.14,7.14,0,0,1,5.81-2.83c3.15,0,5.39,1.47,5.39,4.93V139c0,.88.52,1.79,2.62,1.79V141h-11Z"/><path class="cls-1" d="M76.62,136.86a1.8,1.8,0,0,0-2,1.75c0,1,.7,2.31,3.12,2.56v.21c-4.66-.18-7.22-1.44-7.22-3.47a2.73,2.73,0,0,1,3-2.59A3.57,3.57,0,0,1,76.62,136.86Zm1.16-13.47c-1.3.24-2.56.91-2.52,2.34.1,4.06,11.44,4.73,11.44,10.29,0,3.4-2.87,5.18-7.38,5.36v-.21c1.47-.25,3.11-.77,3.11-2.59,0-3.64-11.48-5-11.48-10.29,0-3.08,2.91-4.94,6.83-5.11ZM86,126.78c0,1.09-.84,2.17-2.59,2.17a3,3,0,0,1-3-1.68,1.56,1.56,0,0,0,1.58-1.64c0-1-1.33-2.07-2.73-2.24v-.21C83.27,123.39,86,124.82,86,126.78Z"/><path class="cls-1" d="M97,136.44c0,2,.66,3,2.41,3a3.09,3.09,0,0,0,2.42-1.09v.21a5.84,5.84,0,0,1-5.43,2.84c-3.15,0-5.18-1.47-5.18-4.94v-9.83c0-1.26-.59-1.86-2.59-1.86v-.21A21.54,21.54,0,0,0,97,123.18Zm11.65,2.24c0,1,.32,1.44.95,1.44s1.12-.53,1.68-1.58h.21c-.56,1.93-2.45,2.84-4.76,2.84s-3.85-1.4-3.85-3.43V126.61c0-1.26-.6-1.86-2.49-1.86v-.21a22.86,22.86,0,0,0,8.26-1.36Z"/><path class="cls-1" d="M121.32,139c0,.88.52,1.79,2.62,1.79V141h-11v-.21c2.1,0,2.63-.91,2.63-1.79V126.61c0-1.26-.6-1.86-2.59-1.86v-.21a21.54,21.54,0,0,0,8.37-1.36ZM130.77,127a3.75,3.75,0,0,1-3.61,4,2.37,2.37,0,0,1-2-.77,2.57,2.57,0,0,0,1.36-2.38,1.85,1.85,0,0,0-2-1.89,2.4,2.4,0,0,0-2.1,1.33V127a4.85,4.85,0,0,1,4.55-3.78A3.55,3.55,0,0,1,130.77,127Z"/><path class="cls-1" d="M132.27,136.9c0-3.05,2.8-4.76,6.72-4.76h3.78v.21h-1.05a3.46,3.46,0,0,0-3.71,3.81c0,1.93.56,3.4,2.21,3.4a3.83,3.83,0,0,0,2.55-1.23v.21a7.44,7.44,0,0,1-5.56,2.84C134.23,141.38,132.23,139.7,132.27,136.9Zm1.4-9.91c0-1.78,1.61-3.6,6.37-3.81v.21a2.55,2.55,0,0,0-2.24,2.55c0,1.26.88,2,2.28,2.14a3.94,3.94,0,0,1-3.36,1.68A2.81,2.81,0,0,1,133.67,127Zm10.15,10.43V126.71c0-1.71-.66-3.08-2.38-3.32v-.21c5.81.21,8.12,2.41,8.12,7v8.5c0,1,.35,1.44,1,1.44s1.12-.53,1.68-1.58h.21c-.56,1.93-2.45,2.84-4.55,2.84C145.08,141.38,143.82,140.4,143.82,137.42Z"/><path class="cls-1" d="M153.51,140.82c2.1,0,2.63-.91,2.63-1.79V126.61c0-1.26-.6-1.86-2.59-1.86v-.21a21.58,21.58,0,0,0,8.37-1.36V139c0,.88.52,1.79,2.62,1.79V141h-11Zm12.33,0c2.06,0,2.59-.91,2.59-1.79V128.11c0-2-1-3-2.77-3a3.72,3.72,0,0,0-2.66,1.08V126a7.15,7.15,0,0,1,5.81-2.83c3.15,0,5.39,1.47,5.39,4.93V139c0,.88.53,1.79,2.63,1.79V141h-11Z"/><path class="cls-1" d="M187.68,123.39c-2.07.24-3,2-3,8.68,0,5,2.56,7.8,5.67,7.8a7.62,7.62,0,0,0,5.11-1.85v.21c-1.82,2.31-5.14,3.15-7.42,3.15a9.15,9.15,0,0,1-9.35-9.17,9,9,0,0,1,9-9Zm7.77,3.74a3.25,3.25,0,0,1-3.5,3.36,3,3,0,0,1-3-2.2,3,3,0,0,0,1.68-2.56,2.08,2.08,0,0,0-1.5-2.31v-.24C193.66,123.18,195.45,125.14,195.45,127.13Z"/><path class="cls-1" d="M198.07,132.21a8.66,8.66,0,0,1,8.57-9v.21c-2.06.24-2.62,2-2.62,8.68,0,5,2.24,7.8,5.36,7.8a7.66,7.66,0,0,0,5.11-1.85v.21c-1.82,2.31-5.15,3.15-7.43,3.15A8.87,8.87,0,0,1,198.07,132.21Zm7.87-1.47c3.09,0,4.38-1,4.38-3.92,0-1.68-.7-3.22-2.27-3.43v-.21c4.62,0,6.86,3.29,6.86,5.95a9.94,9.94,0,0,1-.18,1.82h-8.79Z"/><path class="cls-1" d="M31.79,180v-.21c2.1,0,2.62-.81,2.62-1.79V158.26c0-1-.52-1.82-2.62-1.82v-.21h8.57V180Zm19.56-23.8v6.47h-.28c-1.5-4.41-3.64-5.91-9-6.26v-.21Zm-9.24,11.58v-.21l1.93-.17a5.42,5.42,0,0,0,4.62-3h.28v6.51h-.28A5.31,5.31,0,0,0,44,168Zm0,12c5.32-.35,7.81-1.86,9.7-6.27h.28V180h-10Z"/><path class="cls-1" d="M54.68,179.82c2.1,0,2.62-.91,2.62-1.79V165.61c0-1.26-.59-1.86-2.59-1.86v-.21a21.54,21.54,0,0,0,8.37-1.36V178c0,.88.52,1.79,2.62,1.79V180h-11Zm12.32,0c2.06,0,2.59-.91,2.59-1.79V167.11c0-2-1-3-2.77-3a3.72,3.72,0,0,0-2.66,1.08V165A7.15,7.15,0,0,1,70,162.18c3.15,0,5.39,1.47,5.39,4.93V178c0,.88.53,1.79,2.63,1.79V180H67Z"/><path class="cls-1" d="M92.83,177.33v.21a7.33,7.33,0,0,1-6,2.84c-3.15,0-5.39-1.44-5.39-4.94V164H79.63l.38-.52h1.44v-3.78a8.85,8.85,0,0,0,5.74-2v5.74h4.73l-.39.52H87.19v11.59c0,1.75.67,3.57,2.31,3.57A5.17,5.17,0,0,0,92.83,177.33Z"/><path class="cls-1" d="M101.86,178c0,.88.52,1.79,2.62,1.79V180h-11v-.21c2.1,0,2.63-.91,2.63-1.79v-20.3c0-1.26-.6-1.85-2.59-1.85v-.21a21.39,21.39,0,0,0,8.37-1.37Zm12.25-10.92V178c0,.88.52,1.79,2.62,1.79V180h-11v-.21c2.07,0,2.59-.91,2.59-1.79V167.11c0-2-1-3-2.76-3a3.72,3.72,0,0,0-2.66,1.08V165a7.14,7.14,0,0,1,5.81-2.83C111.87,162.18,114.11,163.65,114.11,167.11Z"/><path class="cls-1" d="M126,175.44c0,2,.66,3,2.41,3a3.09,3.09,0,0,0,2.42-1.09v.21a5.84,5.84,0,0,1-5.43,2.84c-3.15,0-5.18-1.47-5.18-4.94v-9.83c0-1.26-.59-1.86-2.59-1.86v-.21a21.58,21.58,0,0,0,8.37-1.36Zm11.65,2.24c0,1,.32,1.44,1,1.44s1.12-.53,1.68-1.58h.21c-.56,1.93-2.45,2.84-4.76,2.84s-3.85-1.4-3.85-3.43V165.61c0-1.26-.6-1.86-2.49-1.86v-.21a22.86,22.86,0,0,0,8.26-1.36Z"/><path class="cls-1" d="M148.61,175.86a1.8,1.8,0,0,0-2,1.75c0,1,.7,2.31,3.12,2.56v.21c-4.66-.18-7.21-1.44-7.21-3.47a2.73,2.73,0,0,1,3-2.59A3.57,3.57,0,0,1,148.61,175.86Zm1.16-13.47c-1.3.24-2.55.91-2.52,2.34.1,4.06,11.45,4.73,11.45,10.29,0,3.4-2.87,5.18-7.39,5.36v-.21c1.47-.25,3.12-.77,3.12-2.59,0-3.64-11.49-5-11.49-10.29,0-3.08,2.91-4.94,6.83-5.11Zm8.26,3.39c0,1.09-.84,2.17-2.59,2.17a3,3,0,0,1-3-1.68,1.55,1.55,0,0,0,1.57-1.64c0-1-1.33-2.07-2.73-2.24v-.21C155.27,162.39,158,163.82,158,165.78Z"/><path class="cls-1" d="M161.07,163.51a21.32,21.32,0,0,0,8.37-1.37V178c0,.88.53,1.79,2.63,1.79V180H161v-.21c2.1,0,2.62-.91,2.62-1.79V165.57c0-1.26-.59-1.85-2.59-1.85Zm1.79-6.58c0-1.83,1.47-3.05,3.57-3.05s3.57,1.22,3.57,3.05-1.47,3.08-3.57,3.08S162.86,158.78,162.86,156.93Z"/><path class="cls-1" d="M173.81,175.9c0-3.05,2.8-4.76,6.72-4.76h3.78v.21h-1.05a3.46,3.46,0,0,0-3.71,3.81c0,1.93.56,3.4,2.21,3.4a3.81,3.81,0,0,0,2.55-1.23v.21a7.44,7.44,0,0,1-5.56,2.84C175.77,180.38,173.78,178.7,173.81,175.9Zm1.4-9.91c0-1.78,1.61-3.6,6.37-3.81v.21a2.55,2.55,0,0,0-2.24,2.55c0,1.26.88,2,2.28,2.14a3.94,3.94,0,0,1-3.36,1.68A2.81,2.81,0,0,1,175.21,166Zm10.15,10.43V165.71c0-1.71-.66-3.08-2.38-3.32v-.21c5.82.21,8.13,2.41,8.13,7v8.5c0,1,.35,1.44,1,1.44s1.12-.53,1.68-1.58H194c-.56,1.93-2.45,2.84-4.55,2.84C186.63,180.38,185.36,179.4,185.36,176.42Z"/><path class="cls-1" d="M201.78,175.86a1.79,1.79,0,0,0-2,1.75c0,1,.7,2.31,3.11,2.56v.21c-4.65-.18-7.21-1.44-7.21-3.47a2.73,2.73,0,0,1,3-2.59A3.58,3.58,0,0,1,201.78,175.86Zm1.15-13.47c-1.29.24-2.55.91-2.52,2.34.11,4.06,11.45,4.73,11.45,10.29,0,3.4-2.87,5.18-7.39,5.36v-.21c1.47-.25,3.12-.77,3.12-2.59,0-3.64-11.48-5-11.48-10.29,0-3.08,2.9-4.94,6.82-5.11Zm8.26,3.39c0,1.09-.84,2.17-2.59,2.17a3,3,0,0,1-3-1.68,1.55,1.55,0,0,0,1.57-1.64c0-1-1.33-2.07-2.73-2.24v-.21C208.43,162.39,211.19,163.82,211.19,165.78Z"/><path class="cls-1" d="M227.75,177.33v.21a7.33,7.33,0,0,1-6,2.84c-3.15,0-5.39-1.44-5.39-4.94V164h-1.82l.39-.52h1.43v-3.78a8.85,8.85,0,0,0,5.74-2v5.74h4.73l-.39.52h-4.34v11.59c0,1.75.67,3.57,2.31,3.57A5.17,5.17,0,0,0,227.75,177.33Z"/><rect class="cls-2" width="320" height="600"/></svg>