<?xml version="1.0" encoding="utf-8"?>
<!-- Generator: Adobe Illustrator 24.0.3, SVG Export Plug-In . SVG Version: 6.00 Build 0)  -->
<svg version="1.1" id="Layer_1" xmlns="http://www.w3.org/2000/svg" xmlns:xlink="http://www.w3.org/1999/xlink" x="0px" y="0px"
	 viewBox="0 0 320 600" style="enable-background:new 0 0 320 600;" xml:space="preserve">
<style type="text/css">
	.st0{clip-path:url(#SVGID_2_);}
	.st1{enable-background:new    ;}
	.st2{fill:#263845;}
</style>
<title>Artboard 1 copy 4</title>
<g>
	<defs>
		<rect id="SVGID_1_" y="-0.1" width="320" height="600.1"/>
	</defs>
	<clipPath id="SVGID_2_">
		<use xlink:href="#SVGID_1_"  style="overflow:visible;"/>
	</clipPath>
	<g class="st0">
		<g class="st1">
			<path class="st2" d="M29.8,42.5l0.3,0.5l0.3,18.3c0,1.9,1.4,3.7,4.3,3.7v0.3h-9.6V65c2.9,0,4.2-1.8,4.3-3.7L29.8,42.5z
				 M52.9,65.3H48L29.8,38.1c-1.1-1.7-2.4-2.2-4.6-2.2v-0.3h11.6l16.1,24V65.3z M52.8,55.3l-0.3-0.5l-0.5-15.2
				c0-1.9-1.4-3.7-4.3-3.7v-0.3h9.6v0.3c-2.9,0-4.3,1.8-4.3,3.7L52.8,55.3z"/>
			<path class="st2" d="M76.7,35.6h8.3L67.8,65.3h-8.3L76.7,35.6z M60.7,35.6h13.2l-0.1,0.3c-6.5,0.3-11.6,4.8-12.7,10.3h-0.3V35.6z
				 M70.7,65c6.5-0.6,11.8-4.7,13.6-11.6h0.3v11.9H70.6L70.7,65z"/>
		</g>
		<g class="st1">
			<path class="st2" d="M97.3,37c0,2.5-2.7,5.9-7.1,7.7l-0.1-0.4c1.3-1,2.5-2.7,2.5-4.2c0-2-1.4-2.8-3-2.9c0.3-2.6,1.9-4,4.1-4
				C95.6,33.2,97.3,34.6,97.3,37z"/>
		</g>
		<g class="st1">
			<path class="st2" d="M106.2,60.1c-1.4,0-2.4,0.9-2.4,2.2c0,1.3,0.9,2.9,3.9,3.2v0.3c-5.8-0.2-9-1.8-9-4.3c0-2,1.7-3.2,3.7-3.2
				C104.1,58.2,105.5,59,106.2,60.1z M107.6,43.3c-1.6,0.3-3.2,1.1-3.1,2.9c0.1,5.1,14.3,5.9,14.3,12.8c0,4.2-3.6,6.5-9.2,6.7v-0.3
				c1.8-0.3,3.9-1,3.9-3.2c0-4.5-14.3-6.2-14.3-12.8c0-3.8,3.6-6.2,8.5-6.4V43.3z M117.9,47.6c0,1.4-1,2.7-3.2,2.7
				c-1.8,0-3.1-0.8-3.7-2.1c1.3-0.1,2-1,2-2.1c0-1.3-1.7-2.6-3.4-2.8v-0.3C114.5,43.3,117.9,45.1,117.9,47.6z"/>
			<path class="st2" d="M132.5,34.9c4.1,0,7.3-0.4,10.4-1.7v29.6c0,1.1,0.7,2.2,3.3,2.2v0.3h-13.7V65c2.6,0,3.3-1.1,3.3-2.2V37.5
				c0-1.6-0.7-2.3-3.2-2.3V34.9z"/>
			<path class="st2" d="M148.8,54.3c0-7.3,5.6-11.2,10.7-11.3v0.3c-2.6,0.3-3.3,2.5-3.3,10.8c0,6.3,2.8,9.7,6.7,9.7
				c2.5,0,4.3-0.7,6.4-2.3v0.3c-2.3,2.9-6.4,3.9-9.2,3.9C154.4,65.7,148.8,61.6,148.8,54.3z M158.6,52.5c3.8,0,5.5-1.2,5.5-4.9
				c0-2.1-0.9-4-2.8-4.3v-0.3c5.8,0,8.6,4.1,8.6,7.4c0,0.7-0.1,1.6-0.2,2.3h-11V52.5z"/>
			<path class="st2" d="M172.9,60.2c0-3.8,3.5-5.9,8.4-5.9h4.7v0.3h-1.3c-3.1,0-4.6,2.1-4.6,4.8c0,2.4,0.7,4.2,2.7,4.2
				c1.2,0,2.2-0.7,3.2-1.5v0.3c-1.4,1.7-3.8,3.5-6.9,3.5C175.4,65.7,172.9,63.7,172.9,60.2z M174.7,47.8c0-2.2,2-4.5,7.9-4.8v0.3
				c-1.7,0.3-2.8,1.7-2.8,3.2c0,1.6,1.1,2.5,2.8,2.7c-0.7,1.2-2.4,2.1-4.2,2.1C176.1,51.3,174.7,49.6,174.7,47.8z M187.3,60.8V47.5
				c0-2.1-0.8-3.8-3-4.1v-0.3c7.2,0.3,10.1,3,10.1,8.7v10.6c0,1.3,0.4,1.8,1.2,1.8c0.7,0,1.4-0.7,2.1-2h0.3
				c-0.7,2.4-3.1,3.5-5.7,3.5C188.9,65.7,187.3,64.5,187.3,60.8z"/>
			<path class="st2" d="M215.7,46.6v0.3c-1-1.1-2.3-1.6-3.6-1.6c-2.2,0-4.3,1-4.3,8.9c0,7.9,2.2,9.3,4.3,9.3c1.4,0,2.5-0.7,3.6-1.5
				v0.3c-1.1,1.8-3.8,3.5-6.3,3.5c-4.1,0-9-2.4-9-11.6c0-8.7,4.8-11.1,9-11.1C211.8,43.1,214.6,44.7,215.7,46.6z M224.2,62.4
				c0,1.3,0.4,1.8,1.2,1.8c0.7,0,1.4-0.7,2.1-2h0.3c-0.7,2.4-3.1,3.5-5.7,3.5c-3.5,0-5.1-1.2-5.1-4.9V37.5c0-1.6-0.7-2.3-3.2-2.3
				v-0.3c4.1,0,6.8-0.4,10.4-1.7V62.4z"/>
			<path class="st2" d="M229.5,44.7c4.1,0,7.3-0.4,10.4-1.7v19.8c0,1.1,0.7,2.2,3.3,2.2v0.3h-13.7V65c2.6,0,3.3-1.1,3.3-2.2V47.3
				c0-1.6-0.7-2.3-3.2-2.3V44.7z M231.8,36.5c0-2.3,1.8-3.8,4.5-3.8s4.4,1.5,4.4,3.8c0,2.3-1.8,3.8-4.4,3.8S231.8,38.8,231.8,36.5z"
				/>
			<path class="st2" d="M245.1,65c2.6,0,3.3-1.1,3.3-2.2V47.3c0-1.6-0.7-2.3-3.2-2.3v-0.3c4.1,0,7.3-0.4,10.4-1.7v19.8
				c0,1.1,0.7,2.2,3.3,2.2v0.3h-13.7V65z M260.4,65c2.6,0,3.2-1.1,3.2-2.2V49.2c0-2.4-1.3-3.7-3.4-3.7c-1.2,0-2.3,0.4-3.3,1.4v-0.3
				c1.2-1.8,4-3.5,7.2-3.5c3.9,0,6.7,1.8,6.7,6.2v13.6c0,1.1,0.7,2.2,3.3,2.2v0.3h-13.7V65z"/>
			<path class="st2" d="M276.7,51c0-5.7,5.3-7.8,9.8-7.9v0.3c-1.9,0.2-2.7,2.4-2.7,7.5c0,5.3,0.9,7.4,2.7,7.6v0.3
				C282.1,58.7,276.7,56.6,276.7,51z M288.3,76c4.4-0.5,5.8-2.9,5.8-4.5c0-6.1-17-0.7-17-8.5c0-1.8,0.9-3.2,2.9-4.4l0.1,0.2
				c-0.3,0.2-0.4,0.5-0.4,0.8c0,4.9,19.9-0.8,19.9,8.7c0,4.5-3.9,7.4-11.3,7.9V76z M277,72.3c0-2.6,3.2-3.4,6.6-3.4
				c-0.8,0.3-1.9,1.6-1.9,3.1c0,2,2.3,3.5,4.8,3.9v0.3C281.9,76.1,277,75.2,277,72.3z M288.3,58.4c2.1-0.2,3-2.3,3-7.6
				c0-5.1-0.9-7.3-3-7.5v-0.3c4.6,0.1,10,2.2,10,7.9c0,5.6-5.4,7.7-10,7.7V58.4z M290.7,42.3c0.7-2.2,2.7-5.2,5.8-5.2
				c2.3,0,3.7,1.2,3.7,3.3c0,2.1-1.9,3.4-3.5,3.4c0-1.8-1-2.9-2.4-2.9c-1.3,0-2.7,0.8-3.4,1.6L290.7,42.3z"/>
		</g>
		<g class="st1">
			<path class="st2" d="M25.2,88.3c4.1,0,7.3-0.4,10.4-1.7v19.8c0,1.1,0.7,2.2,3.3,2.2v0.3H25.1v-0.3c2.6,0,3.3-1.1,3.3-2.2V90.9
				c0-1.6-0.7-2.3-3.2-2.3V88.3z M27.4,80.1c0-2.3,1.8-3.8,4.5-3.8c2.6,0,4.4,1.5,4.4,3.8c0,2.3-1.8,3.8-4.4,3.8
				C29.2,84,27.4,82.4,27.4,80.1z"/>
			<path class="st2" d="M40.7,108.7c2.6,0,3.3-1.1,3.3-2.2V91c0-1.6-0.7-2.3-3.2-2.3v-0.3c4.1,0,7.3-0.4,10.4-1.7v19.8
				c0,1.1,0.7,2.2,3.3,2.2v0.3H40.7V108.7z M56.1,108.7c2.6,0,3.2-1.1,3.2-2.2V92.8c0-2.4-1.3-3.7-3.4-3.7c-1.2,0-2.3,0.4-3.3,1.4
				v-0.3c1.2-1.8,4-3.5,7.2-3.5c3.9,0,6.7,1.8,6.7,6.2v13.6c0,1.1,0.7,2.2,3.3,2.2v0.3H56.1V108.7z"/>
			<path class="st2" d="M79.7,103.7c-1.4,0-2.4,0.9-2.4,2.2c0,1.3,0.9,2.9,3.9,3.2v0.3c-5.8-0.2-9-1.8-9-4.3c0-2,1.7-3.2,3.7-3.2
				C77.6,101.8,79.1,102.6,79.7,103.7z M81.1,86.9c-1.6,0.3-3.2,1.1-3.1,2.9c0.1,5.1,14.3,5.9,14.3,12.8c0,4.2-3.6,6.5-9.2,6.7v-0.3
				c1.8-0.3,3.9-1,3.9-3.2c0-4.5-14.3-6.2-14.3-12.8c0-3.8,3.6-6.2,8.5-6.4V86.9z M91.4,91.2c0,1.4-1,2.7-3.2,2.7
				c-1.8,0-3.1-0.8-3.7-2.1c1.3-0.1,2-1,2-2.1c0-1.3-1.7-2.6-3.4-2.8v-0.3C88,86.9,91.4,88.7,91.4,91.2z"/>
			<path class="st2" d="M105.1,103.2c0,2.4,0.8,3.7,3,3.7c1.1,0,2.1-0.3,3-1.4v0.3c-1,1.9-3.2,3.5-6.8,3.5c-3.9,0-6.5-1.8-6.5-6.2
				V91c0-1.6-0.7-2.3-3.2-2.3v-0.3c4.1,0,7.3-0.4,10.4-1.7V103.2z M119.7,106c0,1.3,0.4,1.8,1.2,1.8c0.7,0,1.4-0.7,2.1-2h0.3
				c-0.7,2.4-3.1,3.5-5.9,3.5c-3.1,0-4.8-1.7-4.8-4.3V91c0-1.6-0.7-2.3-3.1-2.3v-0.3c3.9,0,6.6-0.4,10.3-1.7V106z"/>
		</g>
		<g class="st1">
			<path class="st2" d="M135.4,106.4c0,1.1,0.7,2.2,3.3,2.2v0.3h-13.7v-0.3c2.6,0,3.3-1.1,3.3-2.2V91c0-1.6-0.7-2.3-3.2-2.3v-0.3
				c4.1,0,7.3-0.4,10.4-1.7V106.4z M147.2,91.4c0,3-2.1,5-4.5,5c-1,0-2-0.3-2.5-1c0.8-0.4,1.7-1.4,1.7-3c0-1.3-0.9-2.4-2.4-2.4
				c-1.1,0-2.1,0.7-2.6,1.7v-0.3c0.8-2.8,3-4.7,5.7-4.7C145.5,86.7,147.2,88.8,147.2,91.4z"/>
		</g>
		<g class="st1">
			<path class="st2" d="M149.1,103.8c0-3.8,3.5-5.9,8.4-5.9h4.7v0.3h-1.3c-3.1,0-4.6,2.1-4.6,4.8c0,2.4,0.7,4.2,2.7,4.2
				c1.2,0,2.2-0.7,3.2-1.5v0.3c-1.4,1.7-3.8,3.5-6.9,3.5C151.5,109.4,149,107.3,149.1,103.8z M150.8,91.4c0-2.2,2-4.5,7.9-4.8v0.3
				c-1.7,0.3-2.8,1.7-2.8,3.2c0,1.6,1.1,2.5,2.8,2.7c-0.7,1.2-2.4,2.1-4.2,2.1C152.2,94.9,150.8,93.3,150.8,91.4z M163.5,104.4V91.1
				c0-2.1-0.8-3.8-3-4.1v-0.3c7.2,0.3,10.1,3,10.1,8.7V106c0,1.3,0.4,1.8,1.2,1.8c0.7,0,1.4-0.7,2.1-2h0.3c-0.7,2.4-3.1,3.5-5.7,3.5
				C165,109.4,163.5,108.1,163.5,104.4z"/>
			<path class="st2" d="M175.6,108.7c2.6,0,3.3-1.1,3.3-2.2V91c0-1.6-0.7-2.3-3.2-2.3v-0.3c4.1,0,7.3-0.4,10.4-1.7v19.8
				c0,1.1,0.7,2.2,3.3,2.2v0.3h-13.7V108.7z M190.9,108.7c2.6,0,3.2-1.1,3.2-2.2V92.8c0-2.4-1.3-3.7-3.4-3.7c-1.2,0-2.3,0.4-3.3,1.4
				v-0.3c1.2-1.8,4-3.5,7.2-3.5c3.9,0,6.7,1.8,6.7,6.2v13.6c0,1.1,0.7,2.2,3.3,2.2v0.3h-13.7V108.7z"/>
			<path class="st2" d="M218.1,86.9c-2.6,0.3-3.7,2.5-3.7,10.8c0,6.3,3.2,9.7,7.1,9.7c2.5,0,4.3-0.7,6.4-2.3v0.3
				c-2.3,2.9-6.4,3.9-9.2,3.9c-5.6,0-11.6-4.1-11.6-11.4s6.1-11.2,11.2-11.3V86.9z M227.8,91.6c0,2.3-1.6,4.2-4.4,4.2
				c-2.1,0-3.5-1.4-3.8-2.7c1.2-0.5,2.1-2,2.1-3.2c0-1-0.3-2.6-1.9-2.9v-0.3C225.6,86.7,227.8,89.1,227.8,91.6z"/>
			<path class="st2" d="M231.1,97.9c0-7.3,5.6-11.2,10.7-11.3v0.3c-2.6,0.3-3.3,2.5-3.3,10.8c0,6.3,2.8,9.7,6.7,9.7
				c2.5,0,4.3-0.7,6.4-2.3v0.3c-2.3,2.9-6.4,3.9-9.2,3.9C236.7,109.4,231.1,105.3,231.1,97.9z M240.9,96.1c3.8,0,5.5-1.2,5.5-4.9
				c0-2.1-0.9-4-2.8-4.3v-0.3c5.8,0,8.6,4.1,8.6,7.4c0,0.7-0.1,1.6-0.2,2.3h-10.9V96.1z"/>
		</g>
		<g class="st1">
			<path class="st2" d="M33.5,147.4c-1.4,0-2.4,0.9-2.4,2.2c0,1.3,0.9,2.9,3.9,3.2v0.3c-5.8-0.2-9-1.8-9-4.3c0-2,1.7-3.2,3.7-3.2
				C31.4,145.4,32.8,146.3,33.5,147.4z M34.9,130.6c-1.6,0.3-3.2,1.1-3.1,2.9c0.1,5.1,14.3,5.9,14.3,12.8c0,4.2-3.6,6.5-9.2,6.7
				v-0.3c1.8-0.3,3.9-1,3.9-3.2c0-4.5-14.3-6.2-14.3-12.8c0-3.8,3.6-6.2,8.5-6.4V130.6z M45.2,134.8c0,1.4-1,2.7-3.2,2.7
				c-1.8,0-3.1-0.8-3.7-2.1c1.3-0.1,2-1,2-2.1c0-1.3-1.7-2.6-3.4-2.8v-0.3C41.8,130.6,45.2,132.4,45.2,134.8z"/>
			<path class="st2" d="M59,159.2c0,1.6,0.7,2.3,3.2,2.3v0.3c-4.1,0-6.8,0.4-10.4,1.7v-28.9c0-1.6-0.7-2.3-3.2-2.3V132
				c4.1,0,6.8-0.4,10.4-1.7V159.2z M75.6,141.4c0,9.1-4.8,11.6-8.9,11.6c-2.5,0-5.3-1.7-6.4-3.5v-0.3c1.1,0.8,2.3,1.5,3.7,1.5
				c2.1,0,4.2-1.4,4.2-9.3c0-7.9-2.1-8.9-4.2-8.9c-1.4,0-2.7,0.5-3.7,1.6v-0.3c1.1-1.8,3.9-3.5,6.4-3.5
				C70.9,130.3,75.6,132.8,75.6,141.4z"/>
			<path class="st2" d="M79.4,141.6c0-7.3,5.6-11.2,10.7-11.3v0.3c-2.6,0.3-3.3,2.5-3.3,10.8c0,6.3,2.8,9.7,6.7,9.7
				c2.5,0,4.3-0.7,6.4-2.3v0.3c-2.3,2.9-6.4,3.9-9.2,3.9C85.1,153,79.4,148.9,79.4,141.6z M89.3,139.7c3.8,0,5.5-1.2,5.5-4.9
				c0-2.1-0.9-4-2.8-4.3v-0.3c5.8,0,8.6,4.1,8.6,7.4c0,0.7-0.1,1.6-0.2,2.3H89.3V139.7z"/>
			<path class="st2" d="M115.2,130.6c-2.6,0.3-3.7,2.5-3.7,10.8c0,6.3,3.2,9.7,7.1,9.7c2.5,0,4.3-0.7,6.4-2.3v0.3
				c-2.3,2.9-6.4,3.9-9.2,3.9c-5.6,0-11.6-4.1-11.6-11.4s6.1-11.2,11.2-11.3V130.6z M124.9,135.2c0,2.3-1.6,4.2-4.4,4.2
				c-2.1,0-3.5-1.4-3.8-2.7c1.2-0.5,2.1-2,2.1-3.2c0-1-0.3-2.6-1.9-2.9v-0.3C122.6,130.3,124.9,132.8,124.9,135.2z"/>
			<path class="st2" d="M127.4,132c4.1,0,7.3-0.4,10.4-1.7v19.8c0,1.1,0.7,2.2,3.3,2.2v0.3h-13.7v-0.3c2.6,0,3.3-1.1,3.3-2.2v-15.5
				c0-1.6-0.7-2.3-3.2-2.3V132z M129.7,123.8c0-2.3,1.8-3.8,4.5-3.8c2.6,0,4.4,1.5,4.4,3.8c0,2.3-1.8,3.8-4.4,3.8
				C131.5,127.6,129.7,126.1,129.7,123.8z"/>
			<path class="st2" d="M143.3,147.4c0-3.8,3.5-5.9,8.4-5.9h4.7v0.3h-1.3c-3.1,0-4.6,2.1-4.6,4.8c0,2.4,0.7,4.2,2.7,4.2
				c1.2,0,2.2-0.7,3.2-1.5v0.3c-1.4,1.7-3.8,3.5-6.9,3.5C145.7,153,143.3,150.9,143.3,147.4z M145,135.1c0-2.2,2-4.5,7.9-4.8v0.3
				c-1.7,0.3-2.8,1.7-2.8,3.2c0,1.6,1.1,2.5,2.8,2.7c-0.7,1.2-2.4,2.1-4.2,2.1C146.4,138.5,145,136.9,145,135.1z M157.7,148.1v-13.3
				c0-2.1-0.8-3.8-3-4.1v-0.3c7.2,0.3,10.1,3,10.1,8.7v10.6c0,1.3,0.4,1.8,1.2,1.8c0.7,0,1.4-0.7,2.1-2h0.3
				c-0.7,2.4-3.1,3.5-5.7,3.5C159.3,153,157.7,151.8,157.7,148.1z"/>
			<path class="st2" d="M169.6,122.2c4.1,0,7.3-0.4,10.4-1.7v29.6c0,1.1,0.7,2.2,3.3,2.2v0.3h-13.7v-0.3c2.6,0,3.3-1.1,3.3-2.2
				v-25.3c0-1.6-0.7-2.3-3.2-2.3V122.2z"/>
			<path class="st2" d="M185.2,132c4.1,0,7.3-0.4,10.4-1.7v19.8c0,1.1,0.7,2.2,3.3,2.2v0.3h-13.7v-0.3c2.6,0,3.3-1.1,3.3-2.2v-15.5
				c0-1.6-0.7-2.3-3.2-2.3V132z M187.4,123.8c0-2.3,1.8-3.8,4.5-3.8s4.5,1.5,4.5,3.8c0,2.3-1.8,3.8-4.5,3.8S187.4,126.1,187.4,123.8
				z"/>
			<path class="st2" d="M209.1,147.4c-1.4,0-2.4,0.9-2.4,2.2c0,1.3,0.9,2.9,3.9,3.2v0.3c-5.8-0.2-9-1.8-9-4.3c0-2,1.7-3.2,3.7-3.2
				C207,145.4,208.4,146.3,209.1,147.4z M210.5,130.6c-1.6,0.3-3.2,1.1-3.1,2.9c0.1,5.1,14.3,5.9,14.3,12.8c0,4.2-3.6,6.5-9.2,6.7
				v-0.3c1.8-0.3,3.9-1,3.9-3.2c0-4.5-14.3-6.2-14.3-12.8c0-3.8,3.6-6.2,8.5-6.4V130.6z M220.8,134.8c0,1.4-1,2.7-3.2,2.7
				c-1.8,0-3.1-0.8-3.7-2.1c1.3-0.1,2-1,2-2.1c0-1.3-1.7-2.6-3.4-2.8v-0.3C217.4,130.6,220.8,132.4,220.8,134.8z"/>
			<path class="st2" d="M241.5,149.2v0.3c-1.4,2-4.2,3.5-7.5,3.5c-3.9,0-6.7-1.8-6.7-6.2v-14.3H225l0.5-0.7h1.8v-4.7
				c2.7,0,5.3-0.8,7.2-2.4v7.2h5.9l-0.5,0.7h-5.4V147c0,2.2,0.8,4.5,2.9,4.5C238.5,151.4,240,150.6,241.5,149.2z"/>
		</g>
	</g>
</g>
</svg>
