<?xml version="1.0" encoding="utf-8"?>
<!-- Generator: Adobe Illustrator 24.0.3, SVG Export Plug-In . SVG Version: 6.00 Build 0)  -->
<svg version="1.1" id="Layer_1" xmlns="http://www.w3.org/2000/svg" xmlns:xlink="http://www.w3.org/1999/xlink" x="0px" y="0px"
	 viewBox="0 0 320 600" style="enable-background:new 0 0 320 600;" xml:space="preserve">
<style type="text/css">
	.st0{clip-path:url(#SVGID_2_);}
	.st1{enable-background:new    ;}
	.st2{fill:#FFFFFF;}
</style>
<title>Artboard 1 copy 3</title>
<g>
	<defs>
		<rect id="SVGID_1_" y="0" width="320" height="600"/>
	</defs>
	<clipPath id="SVGID_2_">
		<use xlink:href="#SVGID_1_"  style="overflow:visible;"/>
	</clipPath>
	<g class="st0">
		<g class="st1">
			<path class="st2" d="M52.7,57.8l0.2,0.3c-2.3,3.6-6.3,5.3-10.6,5.3c-7.1,0-16-5.1-16-15.3c0-11.1,8.7-15.2,15-15.4v0.3
				c-3.1,0.7-6.4,3.5-6.4,14.8c0,11.2,4.5,13.8,9.5,13.8C48.3,61.7,51.1,59.7,52.7,57.8z M53,32.8v10.6h-0.4
				c-1.7-5.8-4.9-9.2-9.2-10.4v-0.3c3.8,0.2,6.1,0.8,7.9,2l1.3-2H53z"/>
			<path class="st2" d="M66.2,60.5c0,1.1,0.7,2.2,3.3,2.2V63H55.7v-0.3c2.6,0,3.3-1.1,3.3-2.2V35.1c0-1.6-0.7-2.3-3.2-2.3v-0.3
				c4.1,0,7.4-0.4,10.5-1.7V60.5z M81.6,46.9v13.7c0,1.1,0.7,2.2,3.3,2.2V63H71.1v-0.3c2.6,0,3.2-1.1,3.2-2.2V46.9
				c0-2.5-1.3-3.7-3.5-3.7c-1.2,0-2.3,0.4-3.3,1.4v-0.3c1.2-1.8,4-3.5,7.3-3.5C78.8,40.7,81.6,42.5,81.6,46.9z"/>
			<path class="st2" d="M86.8,57.9c0-3.8,3.5-6,8.4-6h4.7v0.3h-1.3c-3.2,0-4.6,2.1-4.6,4.8c0,2.4,0.7,4.2,2.8,4.2
				c1.2,0,2.2-0.7,3.2-1.5v0.3c-1.4,1.7-3.8,3.5-7,3.5C89.2,63.5,86.7,61.4,86.8,57.9z M88.5,45.5c0-2.2,2-4.5,8-4.8V41
				c-1.8,0.3-2.8,1.7-2.8,3.2c0,1.6,1.1,2.5,2.8,2.7c-0.7,1.2-2.5,2.1-4.2,2.1C89.9,48.9,88.5,47.3,88.5,45.5z M101.2,58.5V45.1
				c0-2.1-0.8-3.9-3-4.2v-0.3c7.3,0.3,10.2,3,10.2,8.8v10.6c0,1.3,0.4,1.8,1.2,1.8c0.7,0,1.4-0.7,2.1-2h0.3
				c-0.7,2.4-3.1,3.5-5.7,3.5C102.8,63.5,101.2,62.2,101.2,58.5z"/>
			<path class="st2" d="M113.4,62.8c2.6,0,3.3-1.1,3.3-2.2V45c0-1.6-0.7-2.3-3.2-2.3v-0.3c4.1,0,7.4-0.4,10.5-1.7v19.8
				c0,1.1,0.7,2.2,3.3,2.2V63h-13.8V62.8z M128.8,62.8c2.6,0,3.2-1.1,3.2-2.2V46.9c0-2.5-1.3-3.7-3.5-3.7c-1.2,0-2.3,0.4-3.3,1.4
				v-0.3c1.2-1.8,4-3.5,7.3-3.5c3.9,0,6.7,1.8,6.7,6.2v13.7c0,1.1,0.7,2.2,3.3,2.2V63h-13.8V62.8z"/>
			<path class="st2" d="M145.1,48.6c0-5.7,5.3-7.8,9.8-7.9V41c-1.9,0.2-2.8,2.5-2.8,7.5c0,5.3,0.9,7.4,2.8,7.6v0.3
				C150.5,56.4,145.1,54.3,145.1,48.6z M156.8,73.7c4.4-0.5,5.8-2.9,5.8-4.5c0-6.1-17.1-0.7-17.1-8.5c0-1.8,0.9-3.2,2.9-4.5l0.1,0.2
				c-0.3,0.2-0.4,0.5-0.4,0.8c0,4.9,20-0.8,20,8.8c0,4.5-3.9,7.4-11.3,7.9V73.7z M145.5,70c0-2.6,3.2-3.4,6.7-3.4
				c-0.8,0.4-1.9,1.6-1.9,3.1c0,2,2.3,3.5,4.8,3.9V74C150.3,73.9,145.5,72.9,145.5,70z M156.8,56.1c2.1-0.2,3-2.3,3-7.6
				c0-5.1-0.9-7.4-3-7.5v-0.3c4.6,0.1,10,2.2,10,7.9c0,5.6-5.4,7.8-10,7.8V56.1z M159.1,39.9c0.7-2.2,2.8-5.3,5.8-5.3
				c2.3,0,3.7,1.2,3.7,3.3c0,2.1-1.9,3.4-3.5,3.4c0-1.8-1-2.9-2.4-2.9c-1.3,0-2.8,0.8-3.4,1.6L159.1,39.9z"/>
			<path class="st2" d="M169.9,42.4c4.1,0,7.4-0.4,10.5-1.7v19.9c0,1.1,0.7,2.2,3.3,2.2V63h-13.8v-0.3c2.6,0,3.3-1.1,3.3-2.2V44.9
				c0-1.6-0.7-2.3-3.2-2.3V42.4z M172.1,34.1c0-2.3,1.8-3.8,4.5-3.8c2.6,0,4.5,1.5,4.5,3.8c0,2.3-1.8,3.9-4.5,3.9
				C174,38,172.1,36.4,172.1,34.1z"/>
			<path class="st2" d="M185.5,62.8c2.6,0,3.3-1.1,3.3-2.2V45c0-1.6-0.7-2.3-3.2-2.3v-0.3c4.1,0,7.4-0.4,10.5-1.7v19.8
				c0,1.1,0.7,2.2,3.3,2.2V63h-13.8V62.8z M200.9,62.8c2.6,0,3.2-1.1,3.2-2.2V46.9c0-2.5-1.3-3.7-3.5-3.7c-1.2,0-2.3,0.4-3.3,1.4
				v-0.3c1.2-1.8,4-3.5,7.3-3.5c3.9,0,6.7,1.8,6.7,6.2v13.7c0,1.1,0.7,2.2,3.3,2.2V63h-13.8V62.8z"/>
			<path class="st2" d="M217.3,48.6c0-5.7,5.3-7.8,9.8-7.9V41c-1.9,0.2-2.8,2.5-2.8,7.5c0,5.3,0.9,7.4,2.8,7.6v0.3
				C222.6,56.4,217.3,54.3,217.3,48.6z M228.9,73.7c4.4-0.5,5.8-2.9,5.8-4.5c0-6.1-17.1-0.7-17.1-8.5c0-1.8,0.9-3.2,2.9-4.5l0.1,0.2
				c-0.3,0.2-0.4,0.5-0.4,0.8c0,4.9,20-0.8,20,8.8c0,4.5-3.9,7.4-11.3,7.9V73.7z M217.6,70c0-2.6,3.2-3.4,6.7-3.4
				c-0.8,0.4-1.9,1.6-1.9,3.1c0,2,2.3,3.5,4.8,3.9V74C222.5,73.9,217.6,72.9,217.6,70z M228.9,56.1c2.1-0.2,3-2.3,3-7.6
				c0-5.1-0.9-7.4-3-7.5v-0.3c4.6,0.1,10,2.2,10,7.9c0,5.6-5.4,7.8-10,7.8V56.1z M231.3,39.9c0.7-2.2,2.8-5.3,5.8-5.3
				c2.3,0,3.7,1.2,3.7,3.3c0,2.1-1.9,3.4-3.5,3.4c0-1.8-1-2.9-2.4-2.9c-1.3,0-2.8,0.8-3.4,1.6L231.3,39.9z"/>
		</g>
		<g class="st1">
			<path class="st2" d="M26.2,86.7c-0.4-0.9-1.1-1.5-2.4-1.5v-0.3h12.3v0.3c-1.5,0-2.1,1.1-1.4,2.6l5.7,12l-3.8,7.1h-0.3L26.2,86.7z
				 M42.2,95.4c0.7-1.4,1.2-3.3,1.2-5.6c0-2.4-1.4-4.6-4.5-4.6v-0.3h10.9v0.3c-1.4,0-2,0.6-2.8,2.1l-4.6,8.6L42.2,95.4z"/>
		</g>
		<g class="st1">
			<path class="st2" d="M50.2,95.8c0-7.4,5.6-11.3,10.7-11.3v0.3c-2.6,0.3-3.3,2.5-3.3,10.9c0,6.3,2.8,9.8,6.7,9.8
				c2.5,0,4.3-0.7,6.4-2.3v0.3c-2.3,2.9-6.4,3.9-9.3,3.9C55.9,107.3,50.2,103.2,50.2,95.8z M60.1,94c3.9,0,5.5-1.2,5.5-4.9
				c0-2.1-0.9-4-2.8-4.3v-0.3c5.8,0,8.6,4.1,8.6,7.4c0,0.7-0.1,1.6-0.2,2.3h-11V94z"/>
			<path class="st2" d="M84.4,104.3c0,1.1,0.7,2.2,3.3,2.2v0.3H73.9v-0.3c2.6,0,3.3-1.1,3.3-2.2V78.9c0-1.6-0.7-2.3-3.2-2.3v-0.3
				c4.1,0,7.4-0.4,10.5-1.7V104.3z M99.7,90.7v13.7c0,1.1,0.7,2.2,3.3,2.2v0.3H89.2v-0.3c2.6,0,3.2-1.1,3.2-2.2V90.7
				c0-2.5-1.3-3.7-3.5-3.7c-1.2,0-2.3,0.4-3.3,1.4V88c1.2-1.8,4-3.5,7.3-3.5C96.9,84.5,99.7,86.3,99.7,90.7z"/>
			<path class="st2" d="M104.6,86.2c4.1,0,7.4-0.4,10.5-1.7v19.9c0,1.1,0.7,2.2,3.3,2.2v0.3h-13.8v-0.3c2.6,0,3.3-1.1,3.3-2.2V88.7
				c0-1.6-0.7-2.3-3.2-2.3V86.2z M106.9,77.9c0-2.3,1.8-3.8,4.5-3.8s4.5,1.5,4.5,3.8c0,2.3-1.8,3.9-4.5,3.9S106.9,80.2,106.9,77.9z"
				/>
			<path class="st2" d="M132.2,84.8c-2.6,0.3-3.7,2.5-3.7,10.9c0,6.3,3.2,9.8,7.1,9.8c2.5,0,4.3-0.7,6.4-2.3v0.3
				c-2.3,2.9-6.4,3.9-9.3,3.9c-5.6,0-11.7-4.1-11.7-11.5c0-7.4,6.1-11.3,11.2-11.3V84.8z M142,89.4c0,2.3-1.6,4.2-4.4,4.2
				c-2.1,0-3.5-1.4-3.8-2.8c1.2-0.5,2.1-2.1,2.1-3.2c0-1-0.3-2.6-1.9-2.9v-0.3C139.7,84.5,142,86.9,142,89.4z"/>
			<path class="st2" d="M144.2,76.4c4.1,0,7.4-0.4,10.5-1.7v29.7c0,1.1,0.7,2.2,3.3,2.2v0.3h-13.8v-0.3c2.6,0,3.3-1.1,3.3-2.2V78.9
				c0-1.6-0.7-2.3-3.2-2.3V76.4z"/>
			<path class="st2" d="M160.6,95.8c0-7.4,5.6-11.3,10.7-11.3v0.3c-2.6,0.3-3.3,2.5-3.3,10.9c0,6.3,2.8,9.8,6.7,9.8
				c2.5,0,4.3-0.7,6.4-2.3v0.3c-2.3,2.9-6.4,3.9-9.3,3.9C166.3,107.3,160.6,103.2,160.6,95.8z M170.5,94c3.9,0,5.5-1.2,5.5-4.9
				c0-2.1-0.9-4-2.8-4.3v-0.3c5.8,0,8.6,4.1,8.6,7.4c0,0.7-0.1,1.6-0.2,2.3h-11V94z"/>
		</g>
		<g class="st1">
			<path class="st2" d="M25.3,130c4.1,0,7.4-0.4,10.5-1.7v19.9c0,1.1,0.7,2.2,3.3,2.2v0.3H25.2v-0.3c2.6,0,3.3-1.1,3.3-2.2v-15.6
				c0-1.6-0.7-2.3-3.2-2.3V130z M27.5,121.7c0-2.3,1.8-3.8,4.5-3.8s4.5,1.5,4.5,3.8c0,2.3-1.8,3.9-4.5,3.9S27.5,124,27.5,121.7z"/>
			<path class="st2" d="M40.9,150.4c2.6,0,3.3-1.1,3.3-2.2v-15.5c0-1.6-0.7-2.3-3.2-2.3V130c4.1,0,7.4-0.4,10.5-1.7v19.8
				c0,1.1,0.7,2.2,3.3,2.2v0.3H40.9V150.4z M56.3,150.4c2.6,0,3.2-1.1,3.2-2.2v-13.7c0-2.5-1.3-3.7-3.5-3.7c-1.2,0-2.3,0.4-3.3,1.4
				v-0.3c1.2-1.8,4-3.5,7.3-3.5c3.9,0,6.7,1.8,6.7,6.2v13.7c0,1.1,0.7,2.2,3.3,2.2v0.3H56.3V150.4z"/>
			<path class="st2" d="M80,145.4c-1.4,0-2.5,0.9-2.5,2.2c0,1.3,0.9,2.9,3.9,3.2v0.3c-5.8-0.2-9-1.8-9-4.3c0-2,1.8-3.2,3.7-3.2
				C77.9,143.5,79.4,144.3,80,145.4z M81.5,128.5c-1.6,0.3-3.2,1.1-3.2,2.9c0.1,5.1,14.3,5.9,14.3,12.9c0,4.2-3.6,6.5-9.2,6.7v-0.3
				c1.8-0.3,3.9-1,3.9-3.2c0-4.6-14.4-6.2-14.4-12.9c0-3.9,3.6-6.2,8.5-6.4V128.5z M91.8,132.8c0,1.4-1.1,2.7-3.2,2.7
				c-1.8,0-3.2-0.8-3.7-2.1c1.3-0.1,2-1,2-2.1c0-1.3-1.7-2.6-3.4-2.8v-0.3C88.4,128.5,91.8,130.3,91.8,132.8z"/>
			<path class="st2" d="M105.6,144.9c0,2.5,0.8,3.7,3,3.7c1.1,0,2.1-0.4,3-1.4v0.3c-1,1.9-3.2,3.5-6.8,3.5c-3.9,0-6.5-1.8-6.5-6.2
				v-12.3c0-1.6-0.7-2.3-3.2-2.3V130c4.1,0,7.4-0.4,10.5-1.7V144.9z M120.2,147.7c0,1.3,0.4,1.8,1.2,1.8c0.7,0,1.4-0.7,2.1-2h0.3
				c-0.7,2.4-3.1,3.5-6,3.5c-3.1,0-4.8-1.8-4.8-4.3v-14.2c0-1.6-0.7-2.3-3.1-2.3V130c3.9,0,6.7-0.4,10.3-1.7V147.7z"/>
		</g>
		<g class="st1">
			<path class="st2" d="M136,148.1c0,1.1,0.7,2.2,3.3,2.2v0.3h-13.8v-0.3c2.6,0,3.3-1.1,3.3-2.2v-15.5c0-1.6-0.7-2.3-3.2-2.3V130
				c4.1,0,7.4-0.4,10.5-1.7V148.1z M147.8,133c0,3-2.1,5-4.5,5c-1.1,0-2-0.3-2.5-1c0.8-0.4,1.7-1.4,1.7-3c0-1.3-0.9-2.4-2.5-2.4
				c-1.1,0-2.1,0.7-2.6,1.7V133c0.8-2.8,3-4.7,5.7-4.7C146.1,128.3,147.8,130.4,147.8,133z"/>
		</g>
		<g class="st1">
			<path class="st2" d="M149.7,145.5c0-3.8,3.5-6,8.4-6h4.7v0.3h-1.3c-3.2,0-4.6,2.1-4.6,4.8c0,2.4,0.7,4.2,2.8,4.2
				c1.2,0,2.2-0.7,3.2-1.5v0.3c-1.4,1.7-3.8,3.5-7,3.5C152.1,151.1,149.6,149,149.7,145.5z M151.4,133.1c0-2.2,2-4.5,8-4.8v0.3
				c-1.8,0.3-2.8,1.7-2.8,3.2c0,1.6,1.1,2.5,2.8,2.7c-0.7,1.2-2.5,2.1-4.2,2.1C152.8,136.5,151.4,134.9,151.4,133.1z M164.1,146.1
				v-13.4c0-2.1-0.8-3.9-3-4.2v-0.3c7.3,0.3,10.2,3,10.2,8.8v10.6c0,1.3,0.4,1.8,1.2,1.8c0.7,0,1.4-0.7,2.1-2h0.3
				c-0.7,2.4-3.1,3.5-5.7,3.5C165.7,151.1,164.1,149.8,164.1,146.1z"/>
			<path class="st2" d="M176.3,150.4c2.6,0,3.3-1.1,3.3-2.2v-15.5c0-1.6-0.7-2.3-3.2-2.3V130c4.1,0,7.4-0.4,10.5-1.7v19.8
				c0,1.1,0.7,2.2,3.3,2.2v0.3h-13.8V150.4z M191.7,150.4c2.6,0,3.2-1.1,3.2-2.2v-13.7c0-2.5-1.3-3.7-3.5-3.7
				c-1.2,0-2.3,0.4-3.3,1.4v-0.3c1.2-1.8,4-3.5,7.3-3.5c3.9,0,6.7,1.8,6.7,6.2v13.7c0,1.1,0.7,2.2,3.3,2.2v0.3h-13.8V150.4z"/>
			<path class="st2" d="M219,128.5c-2.6,0.3-3.7,2.5-3.7,10.9c0,6.3,3.2,9.8,7.1,9.8c2.5,0,4.3-0.7,6.4-2.3v0.3
				c-2.3,2.9-6.4,3.9-9.3,3.9c-5.6,0-11.7-4.1-11.7-11.5c0-7.4,6.1-11.3,11.2-11.3V128.5z M228.7,133.2c0,2.3-1.6,4.2-4.4,4.2
				c-2.1,0-3.5-1.4-3.8-2.8c1.2-0.5,2.1-2.1,2.1-3.2c0-1-0.3-2.6-1.9-2.9v-0.3C226.5,128.3,228.7,130.7,228.7,133.2z"/>
			<path class="st2" d="M232,139.6c0-7.4,5.6-11.3,10.7-11.3v0.3c-2.6,0.3-3.3,2.5-3.3,10.9c0,6.3,2.8,9.8,6.7,9.8
				c2.5,0,4.3-0.7,6.4-2.3v0.3c-2.3,2.9-6.4,3.9-9.3,3.9C237.7,151.1,232,146.9,232,139.6z M241.9,137.7c3.9,0,5.5-1.2,5.5-4.9
				c0-2.1-0.9-4-2.8-4.3v-0.3c5.8,0,8.6,4.1,8.6,7.4c0,0.7-0.1,1.6-0.2,2.3h-11V137.7z"/>
		</g>
	</g>
</g>
</svg>
