<svg id="Layer_1" data-name="Layer 1" xmlns="http://www.w3.org/2000/svg" viewBox="0 0 320 600"><defs><style>.cls-1{fill:#fff;}.cls-2{fill:none;}</style></defs><title>Artboard 1 copy 3</title><path class="cls-1" d="M53.07,97.86l.14.28a9.61,9.61,0,0,1-8.44,4.24c-5.7,0-12.81-4.06-12.81-12.22,0-8.85,6.93-12.14,12-12.28v.21c-2.45.52-5.11,2.83-5.11,11.83S42.43,101,46.38,101A8.58,8.58,0,0,0,53.07,97.86Zm.28-20v8.5h-.28c-1.37-4.65-4-7.35-7.39-8.29v-.21c3,.14,4.9.66,6.34,1.61l1-1.61Z"/><path class="cls-1" d="M63.92,100c0,.88.52,1.79,2.62,1.79V102h-11v-.21c2.1,0,2.63-.91,2.63-1.79V79.73c0-1.26-.6-1.85-2.59-1.85v-.21a21.36,21.36,0,0,0,8.37-1.37ZM76.17,89.11V100c0,.88.52,1.79,2.62,1.79V102h-11v-.21c2.07,0,2.59-.91,2.59-1.79V89.11c0-2-1-3-2.76-3A3.72,3.72,0,0,0,65,87.22V87a7.14,7.14,0,0,1,5.81-2.83C73.93,84.18,76.17,85.65,76.17,89.11Z"/><path class="cls-1" d="M80.33,97.9c0-3.05,2.8-4.76,6.72-4.76h3.78v.21h-1a3.46,3.46,0,0,0-3.71,3.81c0,1.93.56,3.4,2.21,3.4a3.83,3.83,0,0,0,2.55-1.23v.21a7.44,7.44,0,0,1-5.56,2.84C82.29,102.38,80.29,100.7,80.33,97.9ZM81.73,88c0-1.78,1.61-3.6,6.37-3.81v.21a2.55,2.55,0,0,0-2.24,2.55c0,1.26.87,2,2.28,2.14a3.94,3.94,0,0,1-3.36,1.68A2.81,2.81,0,0,1,81.73,88ZM91.88,98.42V87.71c0-1.71-.66-3.08-2.38-3.32v-.21c5.81.21,8.12,2.41,8.12,7v8.5c0,1,.35,1.44,1,1.44s1.12-.53,1.68-1.58h.21c-.56,1.93-2.45,2.84-4.55,2.84C93.14,102.38,91.88,101.4,91.88,98.42Z"/><path class="cls-1" d="M101.57,101.82c2.1,0,2.63-.91,2.63-1.79V87.61c0-1.26-.6-1.86-2.59-1.86v-.21A21.58,21.58,0,0,0,110,84.18V100c0,.88.52,1.79,2.62,1.79V102h-11Zm12.33,0c2.06,0,2.59-.91,2.59-1.79V89.11c0-2-1-3-2.77-3a3.72,3.72,0,0,0-2.66,1.08V87a7.15,7.15,0,0,1,5.81-2.83c3.15,0,5.39,1.47,5.39,4.93V100c0,.88.53,1.79,2.63,1.79V102h-11Z"/><path class="cls-1" d="M127,90.51c0-4.55,4.27-6.26,7.84-6.33v.21c-1.51.14-2.21,2-2.21,6,0,4.23.7,6,2.21,6.09v.21C131.25,96.71,127,95,127,90.51Zm9.31,20.06c3.5-.42,4.62-2.31,4.62-3.57,0-4.87-13.65-.53-13.65-6.79,0-1.44.73-2.56,2.34-3.57l.11.17a.82.82,0,0,0-.32.67c0,3.92,16-.63,16,7,0,3.6-3.12,6-9.07,6.3Zm-9-2.94c0-2.07,2.55-2.7,5.32-2.7a3,3,0,0,0-1.51,2.49c0,1.61,1.82,2.83,3.82,3.15v.21C131.11,110.71,127.23,109.94,127.23,107.63Zm9-11.13c1.72-.14,2.42-1.86,2.42-6.09,0-4.06-.74-5.88-2.42-6v-.21c3.71.07,8,1.78,8,6.33s-4.31,6.2-8,6.2Zm1.89-13c.6-1.79,2.21-4.2,4.62-4.2,1.86,0,3,1,3,2.66a2.8,2.8,0,0,1-2.84,2.73c0-1.47-.77-2.35-1.89-2.35a3.78,3.78,0,0,0-2.69,1.26Z"/><path class="cls-1" d="M146.76,85.51a21.3,21.3,0,0,0,8.36-1.37V100c0,.88.53,1.79,2.63,1.79V102h-11v-.21c2.1,0,2.63-.91,2.63-1.79V87.57c0-1.26-.6-1.85-2.59-1.85Zm1.78-6.58c0-1.83,1.47-3.05,3.57-3.05s3.57,1.22,3.57,3.05S154.21,82,152.11,82,148.54,80.78,148.54,78.93Z"/><path class="cls-1" d="M159.22,101.82c2.1,0,2.62-.91,2.62-1.79V87.61c0-1.26-.59-1.86-2.59-1.86v-.21a21.54,21.54,0,0,0,8.37-1.36V100c0,.88.52,1.79,2.62,1.79V102h-11Zm12.32,0c2.06,0,2.59-.91,2.59-1.79V89.11c0-2-1-3-2.77-3a3.72,3.72,0,0,0-2.66,1.08V87a7.15,7.15,0,0,1,5.81-2.83c3.15,0,5.39,1.47,5.39,4.93V100c0,.88.53,1.79,2.63,1.79V102h-11Z"/><path class="cls-1" d="M184.59,90.51c0-4.55,4.27-6.26,7.84-6.33v.21c-1.5.14-2.2,2-2.2,6,0,4.23.7,6,2.2,6.09v.21C188.9,96.71,184.59,95,184.59,90.51Zm9.31,20.06c3.5-.42,4.62-2.31,4.62-3.57,0-4.87-13.65-.53-13.65-6.79,0-1.44.74-2.56,2.35-3.57l.1.17a.81.81,0,0,0-.31.67c0,3.92,16-.63,16,7,0,3.6-3.11,6-9.07,6.3Zm-9-2.94c0-2.07,2.56-2.7,5.32-2.7a3,3,0,0,0-1.5,2.49c0,1.61,1.82,2.83,3.81,3.15v.21C188.76,110.71,184.87,109.94,184.87,107.63Zm9-11.13c1.72-.14,2.42-1.86,2.42-6.09,0-4.06-.74-5.88-2.42-6v-.21c3.71.07,8,1.78,8,6.33s-4.31,6.2-8,6.2Zm1.89-13c.6-1.79,2.21-4.2,4.62-4.2,1.86,0,3,1,3,2.66a2.8,2.8,0,0,1-2.84,2.73c0-1.47-.77-2.35-1.89-2.35A3.78,3.78,0,0,0,196,83.65Z"/><path class="cls-1" d="M31.93,125A1.91,1.91,0,0,0,30,123.74v-.21h9.8v.21c-1.22,0-1.71.84-1.12,2.06l4.59,9.56-3,5.67h-.21Zm12.81,7a9.68,9.68,0,0,0,1-4.52,3.38,3.38,0,0,0-3.57-3.67v-.21h8.71v.21c-1.15,0-1.61.45-2.27,1.64L45,132.24Z"/><path class="cls-1" d="M51.14,132.21a8.66,8.66,0,0,1,8.58-9v.21c-2.07.24-2.63,2-2.63,8.68,0,5,2.24,7.8,5.36,7.8A7.66,7.66,0,0,0,67.56,138v.21c-1.82,2.31-5.15,3.15-7.42,3.15A8.87,8.87,0,0,1,51.14,132.21ZM59,130.74c3.08,0,4.37-1,4.37-3.92,0-1.68-.7-3.22-2.27-3.43v-.21c4.62,0,6.86,3.29,6.86,5.95A9.94,9.94,0,0,1,67.8,131H59Z"/><path class="cls-1" d="M78.41,139c0,.88.52,1.79,2.62,1.79V141H70v-.21c2.11,0,2.63-.91,2.63-1.79v-20.3c0-1.26-.6-1.85-2.59-1.85v-.21a21.36,21.36,0,0,0,8.37-1.37Zm12.25-10.92V139c0,.88.52,1.79,2.62,1.79V141h-11v-.21c2.07,0,2.59-.91,2.59-1.79V128.11c0-2-1-3-2.76-3a3.72,3.72,0,0,0-2.66,1.08V126a7.14,7.14,0,0,1,5.81-2.83C88.42,123.18,90.66,124.65,90.66,128.11Z"/><path class="cls-1" d="M94.61,124.51a21.39,21.39,0,0,0,8.37-1.37V139c0,.88.52,1.79,2.62,1.79V141h-11v-.21c2.1,0,2.63-.91,2.63-1.79V126.57c0-1.26-.59-1.85-2.59-1.85Zm1.79-6.58c0-1.83,1.46-3.05,3.57-3.05s3.57,1.22,3.57,3.05S102.07,121,100,121,96.4,119.78,96.4,117.93Z"/><path class="cls-1" d="M116.66,123.39c-2.07.24-3,2-3,8.68,0,5,2.56,7.8,5.68,7.8a7.66,7.66,0,0,0,5.11-1.85v.21c-1.82,2.31-5.15,3.15-7.43,3.15a9.15,9.15,0,0,1-9.34-9.17,9,9,0,0,1,9-9Zm7.77,3.74a3.25,3.25,0,0,1-3.5,3.36,3,3,0,0,1-3-2.2,3.06,3.06,0,0,0,1.68-2.56,2.08,2.08,0,0,0-1.51-2.31v-.24C122.65,123.18,124.43,125.14,124.43,127.13Z"/><path class="cls-1" d="M126.25,116.67a21.3,21.3,0,0,0,8.36-1.37V139c0,.88.53,1.79,2.63,1.79V141h-11v-.21c2.1,0,2.63-.91,2.63-1.79v-20.3c0-1.26-.6-1.85-2.59-1.85Z"/><path class="cls-1" d="M139.34,132.21a8.66,8.66,0,0,1,8.57-9v.21c-2.06.24-2.62,2-2.62,8.68,0,5,2.24,7.8,5.36,7.8a7.66,7.66,0,0,0,5.11-1.85v.21c-1.82,2.31-5.15,3.15-7.43,3.15A8.87,8.87,0,0,1,139.34,132.21Zm7.87-1.47c3.08,0,4.38-1,4.38-3.92,0-1.68-.7-3.22-2.27-3.43v-.21c4.62,0,6.86,3.29,6.86,5.95A9.94,9.94,0,0,1,156,131h-8.79Z"/><path class="cls-1" d="M31.19,163.51a21.36,21.36,0,0,0,8.37-1.37V178c0,.88.52,1.79,2.62,1.79V180h-11v-.21c2.11,0,2.63-.91,2.63-1.79V165.57c0-1.26-.59-1.85-2.59-1.85ZM33,156.93c0-1.83,1.47-3.05,3.57-3.05s3.57,1.22,3.57,3.05S38.65,160,36.55,160,33,158.78,33,156.93Z"/><path class="cls-1" d="M43.65,179.82c2.1,0,2.63-.91,2.63-1.79V165.61c0-1.26-.6-1.86-2.6-1.86v-.21a21.51,21.51,0,0,0,8.37-1.36V178c0,.88.53,1.79,2.63,1.79V180h-11Zm12.32,0c2.07,0,2.59-.91,2.59-1.79V167.11c0-2-1-3-2.76-3a3.72,3.72,0,0,0-2.66,1.08V165A7.14,7.14,0,0,1,59,162.18c3.15,0,5.39,1.47,5.39,4.93V178c0,.88.52,1.79,2.62,1.79V180H56Z"/><path class="cls-1" d="M74.94,175.86a1.8,1.8,0,0,0-2,1.75c0,1,.7,2.31,3.12,2.56v.21c-4.66-.18-7.21-1.44-7.21-3.47a2.72,2.72,0,0,1,3-2.59A3.57,3.57,0,0,1,74.94,175.86Zm1.16-13.47c-1.3.24-2.56.91-2.52,2.34C73.68,168.79,85,169.46,85,175c0,3.4-2.87,5.18-7.38,5.36v-.21c1.47-.25,3.11-.77,3.11-2.59,0-3.64-11.48-5-11.48-10.29,0-3.08,2.91-4.94,6.83-5.11Zm8.26,3.39c0,1.09-.84,2.17-2.59,2.17a3,3,0,0,1-3-1.68,1.56,1.56,0,0,0,1.58-1.64c0-1-1.33-2.07-2.73-2.24v-.21C81.59,162.39,84.36,163.82,84.36,165.78Z"/><path class="cls-1" d="M95.35,175.44c0,2,.66,3,2.41,3a3.09,3.09,0,0,0,2.42-1.09v.21a5.84,5.84,0,0,1-5.43,2.84c-3.15,0-5.18-1.47-5.18-4.94v-9.83c0-1.26-.6-1.86-2.59-1.86v-.21a21.58,21.58,0,0,0,8.37-1.36ZM107,177.68c0,1,.32,1.44,1,1.44s1.12-.53,1.68-1.58h.21c-.56,1.93-2.45,2.84-4.76,2.84s-3.85-1.4-3.85-3.43V165.61c0-1.26-.6-1.86-2.49-1.86v-.21a22.86,22.86,0,0,0,8.26-1.36Z"/><path class="cls-1" d="M119.63,178c0,.88.53,1.79,2.63,1.79V180h-11v-.21c2.1,0,2.63-.91,2.63-1.79V165.61c0-1.26-.6-1.86-2.59-1.86v-.21a21.49,21.49,0,0,0,8.36-1.36ZM129.09,166a3.75,3.75,0,0,1-3.61,4,2.39,2.39,0,0,1-2-.77,2.56,2.56,0,0,0,1.37-2.38,1.86,1.86,0,0,0-2-1.89,2.39,2.39,0,0,0-2.1,1.33V166a4.84,4.84,0,0,1,4.55-3.78A3.55,3.55,0,0,1,129.09,166Z"/><path class="cls-1" d="M130.59,175.9c0-3.05,2.8-4.76,6.72-4.76h3.78v.21H140a3.46,3.46,0,0,0-3.71,3.81c0,1.93.56,3.4,2.2,3.4a3.84,3.84,0,0,0,2.56-1.23v.21a7.44,7.44,0,0,1-5.56,2.84C132.55,180.38,130.55,178.7,130.59,175.9ZM132,166c0-1.78,1.61-3.6,6.37-3.81v.21a2.55,2.55,0,0,0-2.24,2.55c0,1.26.87,2,2.28,2.14a3.94,3.94,0,0,1-3.37,1.68A2.81,2.81,0,0,1,132,166Zm10.15,10.43V165.71c0-1.71-.66-3.08-2.38-3.32v-.21c5.81.21,8.12,2.41,8.12,7v8.5c0,1,.35,1.44,1,1.44s1.12-.53,1.68-1.58h.21c-.56,1.93-2.45,2.84-4.55,2.84C143.4,180.38,142.14,179.4,142.14,176.42Z"/><path class="cls-1" d="M151.83,179.82c2.1,0,2.63-.91,2.63-1.79V165.61c0-1.26-.6-1.86-2.59-1.86v-.21a21.49,21.49,0,0,0,8.36-1.36V178c0,.88.53,1.79,2.63,1.79V180h-11Zm12.32,0c2.07,0,2.59-.91,2.59-1.79V167.11c0-2-1-3-2.76-3a3.72,3.72,0,0,0-2.66,1.08V165a7.14,7.14,0,0,1,5.81-2.83c3.15,0,5.39,1.47,5.39,4.93V178c0,.88.53,1.79,2.63,1.79V180h-11Z"/><path class="cls-1" d="M186,162.39c-2.06.24-3,2-3,8.68,0,5,2.55,7.8,5.67,7.8A7.64,7.64,0,0,0,193.8,177v.21c-1.82,2.31-5.15,3.15-7.42,3.15a9.15,9.15,0,0,1-9.35-9.17,9,9,0,0,1,9-9Zm7.78,3.74a3.26,3.26,0,0,1-3.51,3.36,3,3,0,0,1-3-2.2,3,3,0,0,0,1.68-2.56,2.08,2.08,0,0,0-1.51-2.31v-.24C192,162.18,193.77,164.14,193.77,166.13Z"/><path class="cls-1" d="M196.39,171.21a8.66,8.66,0,0,1,8.57-9v.21c-2.06.24-2.62,2-2.62,8.68,0,5,2.24,7.8,5.35,7.8a7.66,7.66,0,0,0,5.12-1.85v.21c-1.83,2.31-5.15,3.15-7.43,3.15A8.87,8.87,0,0,1,196.39,171.21Zm7.87-1.47c3.09,0,4.38-1,4.38-3.92,0-1.68-.7-3.22-2.28-3.43v-.21c4.62,0,6.87,3.29,6.87,5.95a9.94,9.94,0,0,1-.18,1.82h-8.79Z"/><rect class="cls-2" width="320" height="600"/></svg>