<?xml version="1.0" encoding="utf-8"?>
<!-- Generator: Adobe Illustrator 24.0.3, SVG Export Plug-In . SVG Version: 6.00 Build 0)  -->
<svg version="1.1" id="Layer_1" xmlns="http://www.w3.org/2000/svg" xmlns:xlink="http://www.w3.org/1999/xlink" x="0px" y="0px"
	 viewBox="0 0 320 600" style="enable-background:new 0 0 320 600;" xml:space="preserve">
<style type="text/css">
	.st0{clip-path:url(#SVGID_2_);}
	.st1{enable-background:new    ;}
	.st2{fill:#FFFFFF;}
</style>
<title>Artboard 1 copy 2</title>
<g>
	<defs>
		<rect id="SVGID_1_" y="0" width="320" height="600"/>
	</defs>
	<clipPath id="SVGID_2_">
		<use xlink:href="#SVGID_1_"  style="overflow:visible;"/>
	</clipPath>
	<g class="st0">
		<g class="st1">
			<path class="st2" d="M25.3,42.4c4.1,0,7.4-0.4,10.5-1.7v19.9c0,1.1,0.7,2.2,3.3,2.2V63H25.2v-0.3c2.6,0,3.3-1.1,3.3-2.2V44.9
				c0-1.6-0.7-2.3-3.2-2.3V42.4z M27.5,34.1c0-2.3,1.8-3.8,4.5-3.8s4.5,1.5,4.5,3.8c0,2.3-1.8,3.9-4.5,3.9S27.5,36.4,27.5,34.1z"/>
			<path class="st2" d="M49.3,57.8c-1.4,0-2.5,0.9-2.5,2.2c0,1.3,0.9,2.9,3.9,3.2v0.3c-5.8-0.2-9-1.8-9-4.3c0-2,1.8-3.2,3.7-3.2
				C47.2,55.9,48.6,56.7,49.3,57.8z M50.7,41c-1.6,0.3-3.2,1.1-3.2,2.9c0.1,5.1,14.3,5.9,14.3,12.9c0,4.2-3.6,6.5-9.2,6.7v-0.3
				c1.8-0.3,3.9-1,3.9-3.2c0-4.6-14.4-6.2-14.4-12.9c0-3.9,3.6-6.2,8.5-6.4V41z M61.1,45.2c0,1.4-1.1,2.7-3.2,2.7
				c-1.8,0-3.2-0.8-3.7-2.1c1.3-0.1,2-1,2-2.1c0-1.3-1.7-2.6-3.4-2.8v-0.3C57.6,41,61.1,42.8,61.1,45.2z"/>
			<path class="st2" d="M76.7,52c0-7.4,5.6-11.3,10.7-11.3V41c-2.6,0.3-3.3,2.5-3.3,10.9c0,6.3,2.8,9.8,6.7,9.8
				c2.5,0,4.3-0.7,6.4-2.3v0.3c-2.3,2.9-6.4,3.9-9.3,3.9C82.4,63.5,76.7,59.4,76.7,52z M86.6,50.2c3.9,0,5.5-1.2,5.5-4.9
				c0-2.1-0.9-4-2.8-4.3v-0.3c5.8,0,8.6,4.1,8.6,7.4c0,0.7-0.1,1.6-0.2,2.3h-11V50.2z"/>
			<path class="st2" d="M100.9,57.9c0-3.8,3.5-6,8.4-6h4.7v0.3h-1.3c-3.2,0-4.6,2.1-4.6,4.8c0,2.4,0.7,4.2,2.8,4.2
				c1.2,0,2.2-0.7,3.2-1.5v0.3c-1.4,1.7-3.8,3.5-7,3.5C103.4,63.5,100.9,61.4,100.9,57.9z M102.7,45.5c0-2.2,2-4.5,8-4.8V41
				c-1.8,0.3-2.8,1.7-2.8,3.2c0,1.6,1.1,2.5,2.8,2.7c-0.7,1.2-2.5,2.1-4.2,2.1C104.1,48.9,102.7,47.3,102.7,45.5z M115.4,58.5V45.1
				c0-2.1-0.8-3.9-3-4.2v-0.3c7.3,0.3,10.2,3,10.2,8.8v10.6c0,1.3,0.4,1.8,1.2,1.8c0.7,0,1.4-0.7,2.1-2h0.3
				c-0.7,2.4-3.1,3.5-5.7,3.5C117,63.5,115.4,62.2,115.4,58.5z"/>
		</g>
		<g class="st1">
			<path class="st2" d="M135.9,57.8c-1.4,0-2.5,0.9-2.5,2.2c0,1.3,0.9,2.9,3.9,3.2v0.3c-5.8-0.2-9-1.8-9-4.3c0-2,1.8-3.2,3.7-3.2
				C133.8,55.9,135.3,56.7,135.9,57.8z M137.4,41c-1.6,0.3-3.2,1.1-3.2,2.9c0.1,5.1,14.3,5.9,14.3,12.9c0,4.2-3.6,6.5-9.2,6.7v-0.3
				c1.8-0.3,3.9-1,3.9-3.2c0-4.6-14.4-6.2-14.4-12.9c0-3.9,3.6-6.2,8.5-6.4V41z M147.7,45.2c0,1.4-1.1,2.7-3.2,2.7
				c-1.8,0-3.2-0.8-3.7-2.1c1.3-0.1,2-1,2-2.1c0-1.3-1.7-2.6-3.4-2.8v-0.3C144.2,41,147.7,42.8,147.7,45.2z"/>
		</g>
		<g class="st1">
			<path class="st2" d="M152.2,42.9c-0.4-0.9-1.1-1.5-2.4-1.5v-0.3h12.3v0.3c-1.5,0-2.1,1.1-1.4,2.6l5.7,12l-3.8,7.1h-0.3
				L152.2,42.9z M150.3,70.1c0-1.9,1.5-3.5,3.9-4.1c-0.1,0.4-0.2,0.7-0.2,1.1c0,1.7,0.9,2.9,2.6,2.9c1.5,0,2.8-1.6,4.4-4.4h0.3
				c-2.4,4.5-4.1,8.4-7.1,8.4C151.7,74,150.3,72.3,150.3,70.1z M168.2,51.6c0.7-1.4,1.2-3.3,1.2-5.6c0-2.4-1.4-4.6-4.5-4.6v-0.3
				h10.9v0.3c-1.4,0-2,0.6-2.8,2.1l-4.6,8.6L168.2,51.6z"/>
		</g>
		<g class="st1">
			<path class="st2" d="M34.7,87.8l5.7,12l-3.8,7.1h-0.3L26.2,86.7c-0.4-0.9-1.1-1.5-2.4-1.5v-0.3h12.3v0.3
				C34.5,85.2,33.9,86.2,34.7,87.8z M49.1,87.8l5.7,12l-3.8,7.1h-0.3l-6.9-13.6l-1.4,2.6l-0.3-0.4c0.7-1.4,0.9-3.6,0.4-4.9l-2-3.9
				c-0.4-0.9-1.1-1.5-2.4-1.5v-0.3h12.3v0.3C48.9,85.2,48.3,86.2,49.1,87.8z M64.3,84.9v0.3c-1.4,0-2.1,0.6-2.8,2.1l-4.6,8.6
				l-0.3-0.4c0.7-1.4,1.2-3.3,1.2-5.6c0-2.4-1.4-4.6-4.5-4.6v-0.3H64.3z"/>
			<path class="st2" d="M64.7,86.2c4.1,0,7.4-0.4,10.5-1.7v19.9c0,1.1,0.7,2.2,3.3,2.2v0.3H64.7v-0.3c2.6,0,3.3-1.1,3.3-2.2V88.7
				c0-1.6-0.7-2.3-3.2-2.3V86.2z M66.9,77.9c0-2.3,1.8-3.8,4.5-3.8s4.5,1.5,4.5,3.8c0,2.3-1.8,3.9-4.5,3.9S66.9,80.2,66.9,77.9z"/>
			<path class="st2" d="M97.3,103.5v0.3c-1.4,2-4.2,3.5-7.5,3.5c-3.9,0-6.7-1.8-6.7-6.2V86.7h-2.3l0.5-0.7h1.8v-4.7
				c2.7,0,5.3-0.8,7.2-2.5v7.2h5.9l-0.5,0.7h-5.4v14.5c0,2.2,0.8,4.5,2.9,4.5C94.4,105.7,95.8,104.9,97.3,103.5z"/>
			<path class="st2" d="M108.6,104.3c0,1.1,0.7,2.2,3.3,2.2v0.3H98.1v-0.3c2.6,0,3.3-1.1,3.3-2.2V78.9c0-1.6-0.7-2.3-3.2-2.3v-0.3
				c4.1,0,7.4-0.4,10.5-1.7V104.3z M123.9,90.7v13.7c0,1.1,0.7,2.2,3.3,2.2v0.3h-13.8v-0.3c2.6,0,3.2-1.1,3.2-2.2V90.7
				c0-2.5-1.3-3.7-3.5-3.7c-1.2,0-2.3,0.4-3.3,1.4V88c1.2-1.8,4-3.5,7.3-3.5C121.1,84.5,123.9,86.3,123.9,90.7z"/>
		</g>
		<g class="st1">
			<path class="st2" d="M151.9,107v0.3c-3.5-0.1-6.2-0.7-8.5-2.1l-1.4,2.1h-0.4V96.6h0.4C143.4,101.5,146.5,105.2,151.9,107z
				 M164.7,98.3c0,5.6-4.2,8.7-11,9V107c2.4-0.4,4.8-1.8,4.8-4.5c0-7.7-16.7-8.4-16.7-17.3c0-5.3,4.2-8.3,10.1-8.7v0.3
				c-2,0.4-3.9,1.6-3.9,4C148,88.6,164.7,89.4,164.7,98.3z M153.7,76.9v-0.3c3.3,0.1,5.9,0.9,7.9,2.3l1.6-2.3h0.4v9.8h-0.4
				C161.8,81.7,158,77.9,153.7,76.9z"/>
		</g>
		<g class="st1">
			<path class="st2" d="M184.7,103.5v0.3c-1.4,2-4.2,3.5-7.5,3.5c-3.9,0-6.7-1.8-6.7-6.2V86.7h-2.3l0.5-0.7h1.8v-4.7
				c2.7,0,5.3-0.8,7.2-2.5v7.2h5.9l-0.5,0.7h-5.4v14.5c0,2.2,0.8,4.5,2.9,4.5C181.8,105.7,183.3,104.9,184.7,103.5z"/>
			<path class="st2" d="M186.1,101.7c0-3.8,3.5-6,8.4-6h4.7V96h-1.3c-3.2,0-4.6,2.1-4.6,4.8c0,2.4,0.7,4.2,2.8,4.2
				c1.2,0,2.2-0.7,3.2-1.5v0.3c-1.4,1.7-3.8,3.5-7,3.5C188.6,107.3,186.1,105.2,186.1,101.7z M187.9,89.3c0-2.2,2-4.5,8-4.8v0.3
				c-1.8,0.3-2.8,1.7-2.8,3.2c0,1.6,1.1,2.5,2.8,2.7c-0.7,1.2-2.5,2.1-4.2,2.1C189.3,92.7,187.9,91.1,187.9,89.3z M200.6,102.3V88.9
				c0-2.1-0.8-3.9-3-4.2v-0.3c7.3,0.3,10.2,3,10.2,8.8v10.6c0,1.3,0.4,1.8,1.2,1.8c0.7,0,1.4-0.7,2.1-2h0.3
				c-0.7,2.4-3.1,3.5-5.7,3.5C202.1,107.3,200.6,106,200.6,102.3z"/>
		</g>
		<g class="st1">
			<path class="st2" d="M223.2,104.3c0,1.1,0.7,2.2,3.3,2.2v0.3h-13.8v-0.3c2.6,0,3.3-1.1,3.3-2.2V88.8c0-1.6-0.7-2.3-3.2-2.3v-0.3
				c4.1,0,7.4-0.4,10.5-1.7V104.3z M235,89.2c0,3-2.1,5-4.5,5c-1.1,0-2-0.3-2.5-1c0.8-0.4,1.7-1.4,1.7-3c0-1.3-0.9-2.4-2.5-2.4
				c-1.1,0-2.1,0.7-2.6,1.7v-0.4c0.8-2.8,3-4.7,5.7-4.7C233.4,84.5,235,86.6,235,89.2z"/>
		</g>
		<g class="st1">
			<path class="st2" d="M26,150.4c2.6,0,3.3-1.1,3.3-2.2v-24.8c0-1.2-0.7-2.2-3.3-2.2v-0.3h14v0.3c-2.6,0-3.3,1.1-3.3,2.2v24.8
				c0,1.2,0.7,2.2,3.3,2.2v0.3H26V150.4z"/>
			<path class="st2" d="M43,150.4c2.6,0,3.3-1.1,3.3-2.2v-15.5c0-1.6-0.7-2.3-3.2-2.3V130c4.1,0,7.4-0.4,10.5-1.7v19.8
				c0,1.1,0.7,2.2,3.3,2.2v0.3H43V150.4z M58.4,150.4c2.6,0,3.2-1.1,3.2-2.2v-13.7c0-2.5-1.3-3.7-3.5-3.7c-1.2,0-2.3,0.4-3.3,1.4
				v-0.3c1.2-1.8,4-3.5,7.3-3.5c3.9,0,6.7,1.8,6.7,6.2v13.7c0,1.1,0.7,2.2,3.3,2.2v0.3H58.4V150.4z"/>
			<path class="st2" d="M82.1,145.4c-1.4,0-2.5,0.9-2.5,2.2c0,1.3,0.9,2.9,3.9,3.2v0.3c-5.8-0.2-9-1.8-9-4.3c0-2,1.8-3.2,3.7-3.2
				C80,143.5,81.5,144.3,82.1,145.4z M83.6,128.5c-1.6,0.3-3.2,1.1-3.2,2.9c0.1,5.1,14.3,5.9,14.3,12.9c0,4.2-3.6,6.5-9.2,6.7v-0.3
				c1.8-0.3,3.9-1,3.9-3.2c0-4.6-14.4-6.2-14.4-12.9c0-3.9,3.6-6.2,8.5-6.4V128.5z M93.9,132.8c0,1.4-1.1,2.7-3.2,2.7
				c-1.8,0-3.2-0.8-3.7-2.1c1.3-0.1,2-1,2-2.1c0-1.3-1.7-2.6-3.4-2.8v-0.3C90.5,128.5,93.9,130.3,93.9,132.8z"/>
			<path class="st2" d="M107.7,144.9c0,2.5,0.8,3.7,3,3.7c1.1,0,2.1-0.4,3-1.4v0.3c-1,1.9-3.2,3.5-6.8,3.5c-3.9,0-6.5-1.8-6.5-6.2
				v-12.3c0-1.6-0.7-2.3-3.2-2.3V130c4.1,0,7.4-0.4,10.5-1.7V144.9z M122.3,147.7c0,1.3,0.4,1.8,1.2,1.8c0.7,0,1.4-0.7,2.1-2h0.3
				c-0.7,2.4-3.1,3.5-6,3.5c-3.1,0-4.8-1.8-4.8-4.3v-14.2c0-1.6-0.7-2.3-3.1-2.3V130c3.9,0,6.7-0.4,10.3-1.7V147.7z"/>
		</g>
		<g class="st1">
			<path class="st2" d="M138.1,148.1c0,1.1,0.7,2.2,3.3,2.2v0.3h-13.8v-0.3c2.6,0,3.3-1.1,3.3-2.2v-15.5c0-1.6-0.7-2.3-3.2-2.3V130
				c4.1,0,7.4-0.4,10.5-1.7V148.1z M149.9,133c0,3-2.1,5-4.5,5c-1.1,0-2-0.3-2.5-1c0.8-0.4,1.7-1.4,1.7-3c0-1.3-0.9-2.4-2.5-2.4
				c-1.1,0-2.1,0.7-2.6,1.7V133c0.8-2.8,3-4.7,5.7-4.7C148.2,128.3,149.9,130.4,149.9,133z"/>
		</g>
		<g class="st1">
			<path class="st2" d="M151.8,145.5c0-3.8,3.5-6,8.4-6h4.7v0.3h-1.3c-3.2,0-4.6,2.1-4.6,4.8c0,2.4,0.7,4.2,2.8,4.2
				c1.2,0,2.2-0.7,3.2-1.5v0.3c-1.4,1.7-3.8,3.5-7,3.5C154.2,151.1,151.7,149,151.8,145.5z M153.5,133.1c0-2.2,2-4.5,8-4.8v0.3
				c-1.8,0.3-2.8,1.7-2.8,3.2c0,1.6,1.1,2.5,2.8,2.7c-0.7,1.2-2.5,2.1-4.2,2.1C154.9,136.5,153.5,134.9,153.5,133.1z M166.2,146.1
				v-13.4c0-2.1-0.8-3.9-3-4.2v-0.3c7.3,0.3,10.2,3,10.2,8.8v10.6c0,1.3,0.4,1.8,1.2,1.8c0.7,0,1.4-0.7,2.1-2h0.3
				c-0.7,2.4-3.1,3.5-5.7,3.5C167.8,151.1,166.2,149.8,166.2,146.1z"/>
			<path class="st2" d="M178.4,150.4c2.6,0,3.3-1.1,3.3-2.2v-15.5c0-1.6-0.7-2.3-3.2-2.3V130c4.1,0,7.4-0.4,10.5-1.7v19.8
				c0,1.1,0.7,2.2,3.3,2.2v0.3h-13.8V150.4z M193.8,150.4c2.6,0,3.2-1.1,3.2-2.2v-13.7c0-2.5-1.3-3.7-3.5-3.7
				c-1.2,0-2.3,0.4-3.3,1.4v-0.3c1.2-1.8,4-3.5,7.3-3.5c3.9,0,6.7,1.8,6.7,6.2v13.7c0,1.1,0.7,2.2,3.3,2.2v0.3h-13.8V150.4z"/>
			<path class="st2" d="M221.1,128.5c-2.6,0.3-3.7,2.5-3.7,10.9c0,6.3,3.2,9.8,7.1,9.8c2.5,0,4.3-0.7,6.4-2.3v0.3
				c-2.3,2.9-6.4,3.9-9.3,3.9c-5.6,0-11.7-4.1-11.7-11.5c0-7.4,6.1-11.3,11.2-11.3V128.5z M230.8,133.2c0,2.3-1.6,4.2-4.4,4.2
				c-2.1,0-3.5-1.4-3.8-2.8c1.2-0.5,2.1-2.1,2.1-3.2c0-1-0.3-2.6-1.9-2.9v-0.3C228.6,128.3,230.8,130.7,230.8,133.2z"/>
			<path class="st2" d="M234.1,139.6c0-7.4,5.6-11.3,10.7-11.3v0.3c-2.6,0.3-3.3,2.5-3.3,10.9c0,6.3,2.8,9.8,6.7,9.8
				c2.5,0,4.3-0.7,6.4-2.3v0.3c-2.3,2.9-6.4,3.9-9.3,3.9C239.8,151.1,234.1,146.9,234.1,139.6z M244,137.7c3.9,0,5.5-1.2,5.5-4.9
				c0-2.1-0.9-4-2.8-4.3v-0.3c5.8,0,8.6,4.1,8.6,7.4c0,0.7-0.1,1.6-0.2,2.3h-11V137.7z"/>
		</g>
		<g class="st1">
			<path class="st2" d="M26,194.4v-0.3c2.6,0,3.3-1,3.3-2.2v-24.7c0-1.2-0.7-2.3-3.3-2.3v-0.3h10.7v29.8H26z M50.5,164.6v8.1h-0.4
				c-1.9-5.5-4.6-7.4-11.2-7.8v-0.3H50.5z M39,179.1v-0.3l2.4-0.2c2.6-0.2,4.3-1.3,5.8-3.8h0.4v8.1h-0.4c-1.4-2.5-3.2-3.5-5.8-3.7
				L39,179.1z M39,194.2c6.7-0.4,9.8-2.3,12.1-7.8h0.4v8.1H39V194.2z"/>
			<path class="st2" d="M54.7,194.2c2.6,0,3.3-1.1,3.3-2.2v-15.5c0-1.6-0.7-2.3-3.2-2.3v-0.3c4.1,0,7.4-0.4,10.5-1.7v19.8
				c0,1.1,0.7,2.2,3.3,2.2v0.3H54.7V194.2z M70.1,194.2c2.6,0,3.2-1.1,3.2-2.2v-13.7c0-2.5-1.3-3.7-3.5-3.7c-1.2,0-2.3,0.4-3.3,1.4
				v-0.3c1.2-1.8,4-3.5,7.3-3.5c3.9,0,6.7,1.8,6.7,6.2v13.7c0,1.1,0.7,2.2,3.3,2.2v0.3H70.1V194.2z"/>
			<path class="st2" d="M102.4,191v0.3c-1.4,2-4.2,3.5-7.5,3.5c-3.9,0-6.7-1.8-6.7-6.2v-14.4h-2.3l0.5-0.7h1.8v-4.7
				c2.7,0,5.3-0.8,7.2-2.5v7.2h5.9l-0.5,0.7h-5.4v14.5c0,2.2,0.8,4.5,2.9,4.5C99.5,193.3,101,192.5,102.4,191z"/>
			<path class="st2" d="M113.7,191.9c0,1.1,0.7,2.2,3.3,2.2v0.3h-13.8v-0.3c2.6,0,3.3-1.1,3.3-2.2v-25.4c0-1.6-0.7-2.3-3.2-2.3v-0.3
				c4.1,0,7.4-0.4,10.5-1.7V191.9z M129,178.3v13.7c0,1.1,0.7,2.2,3.3,2.2v0.3h-13.8v-0.3c2.6,0,3.2-1.1,3.2-2.2v-13.7
				c0-2.5-1.3-3.7-3.5-3.7c-1.2,0-2.3,0.4-3.3,1.4v-0.3c1.2-1.8,4-3.5,7.3-3.5C126.2,172.1,129,173.9,129,178.3z"/>
			<path class="st2" d="M143.9,188.7c0,2.5,0.8,3.7,3,3.7c1.1,0,2.1-0.4,3-1.4v0.3c-1,1.9-3.2,3.5-6.8,3.5c-3.9,0-6.5-1.8-6.5-6.2
				v-12.3c0-1.6-0.7-2.3-3.2-2.3v-0.3c4.1,0,7.4-0.4,10.5-1.7V188.7z M158.5,191.5c0,1.3,0.4,1.8,1.2,1.8c0.7,0,1.4-0.7,2.1-2h0.3
				c-0.7,2.4-3.1,3.5-6,3.5c-3.1,0-4.8-1.8-4.8-4.3v-14.2c0-1.6-0.7-2.3-3.1-2.3v-0.3c3.9,0,6.7-0.4,10.3-1.7V191.5z"/>
			<path class="st2" d="M172.2,189.2c-1.4,0-2.5,0.9-2.5,2.2c0,1.3,0.9,2.9,3.9,3.2v0.3c-5.8-0.2-9-1.8-9-4.3c0-2,1.8-3.2,3.7-3.2
				C170.1,187.3,171.6,188.1,172.2,189.2z M173.7,172.3c-1.6,0.3-3.2,1.1-3.2,2.9c0.1,5.1,14.3,5.9,14.3,12.9c0,4.2-3.6,6.5-9.2,6.7
				v-0.3c1.8-0.3,3.9-1,3.9-3.2c0-4.6-14.4-6.2-14.4-12.9c0-3.9,3.6-6.2,8.5-6.4V172.3z M184,176.6c0,1.4-1.1,2.7-3.2,2.7
				c-1.8,0-3.2-0.8-3.7-2.1c1.3-0.1,2-1,2-2.1c0-1.3-1.7-2.6-3.4-2.8v-0.3C180.6,172.3,184,174.1,184,176.6z"/>
			<path class="st2" d="M187.8,173.8c4.1,0,7.4-0.4,10.5-1.7v19.9c0,1.1,0.7,2.2,3.3,2.2v0.3h-13.8v-0.3c2.6,0,3.3-1.1,3.3-2.2
				v-15.6c0-1.6-0.7-2.3-3.2-2.3V173.8z M190.1,165.5c0-2.3,1.8-3.8,4.5-3.8c2.6,0,4.5,1.5,4.5,3.8c0,2.3-1.8,3.9-4.5,3.9
				C191.9,169.4,190.1,167.8,190.1,165.5z"/>
			<path class="st2" d="M203.8,189.3c0-3.8,3.5-6,8.4-6h4.7v0.3h-1.3c-3.2,0-4.6,2.1-4.6,4.8c0,2.4,0.7,4.2,2.8,4.2
				c1.2,0,2.2-0.7,3.2-1.5v0.3c-1.4,1.7-3.8,3.5-7,3.5C206.2,194.9,203.7,192.8,203.8,189.3z M205.5,176.9c0-2.2,2-4.5,8-4.8v0.3
				c-1.8,0.3-2.8,1.7-2.8,3.2c0,1.6,1.1,2.5,2.8,2.7c-0.7,1.2-2.5,2.1-4.2,2.1C206.9,180.3,205.5,178.7,205.5,176.9z M218.2,189.9
				v-13.4c0-2.1-0.8-3.9-3-4.2v-0.3c7.3,0.3,10.2,3,10.2,8.8v10.6c0,1.3,0.4,1.8,1.2,1.8c0.7,0,1.4-0.7,2.1-2h0.3
				c-0.7,2.4-3.1,3.5-5.7,3.5C219.8,194.9,218.2,193.6,218.2,189.9z"/>
			<path class="st2" d="M238.8,189.2c-1.4,0-2.5,0.9-2.5,2.2c0,1.3,0.9,2.9,3.9,3.2v0.3c-5.8-0.2-9-1.8-9-4.3c0-2,1.8-3.2,3.7-3.2
				C236.7,187.3,238.1,188.1,238.8,189.2z M240.2,172.3c-1.6,0.3-3.2,1.1-3.2,2.9c0.1,5.1,14.3,5.9,14.3,12.9c0,4.2-3.6,6.5-9.2,6.7
				v-0.3c1.8-0.3,3.9-1,3.9-3.2c0-4.6-14.4-6.2-14.4-12.9c0-3.9,3.6-6.2,8.5-6.4V172.3z M250.5,176.6c0,1.4-1.1,2.7-3.2,2.7
				c-1.8,0-3.2-0.8-3.7-2.1c1.3-0.1,2-1,2-2.1c0-1.3-1.7-2.6-3.4-2.8v-0.3C247.1,172.3,250.5,174.1,250.5,176.6z"/>
			<path class="st2" d="M271.3,191v0.3c-1.4,2-4.2,3.5-7.5,3.5c-3.9,0-6.7-1.8-6.7-6.2v-14.4h-2.3l0.5-0.7h1.8v-4.7
				c2.7,0,5.3-0.8,7.2-2.5v7.2h5.9l-0.5,0.7h-5.4v14.5c0,2.2,0.8,4.5,2.9,4.5C268.3,193.3,269.8,192.5,271.3,191z"/>
		</g>
	</g>
</g>
</svg>
