<svg id="Layer_1" data-name="Layer 1" xmlns="http://www.w3.org/2000/svg" viewBox="0 0 320 600"><defs><style>.cls-1{fill:#263845;}.cls-2{fill:none;}</style></defs><title>Artboard 1 copy 4</title><path class="cls-1" d="M34.59,91.76l.28.42.28,14.7c0,1.5,1.12,2.94,3.43,2.94V110H30.87v-.21c2.32,0,3.4-1.47,3.44-2.94ZM53.14,110H49.25L34.62,88.22a3.81,3.81,0,0,0-3.71-1.78v-.22h9.35l12.88,19.29Zm-.07-8-.28-.39-.42-12.21c0-1.51-1.12-2.94-3.43-2.94v-.22h7.7v.22c-2.31,0-3.43,1.47-3.43,2.94Z"/><path class="cls-1" d="M72.28,86.22H79L65.07,110H58.42Zm-12.85,0H70l-.11.22c-5.18.27-9.31,3.85-10.19,8.22h-.28Zm8,23.6a12,12,0,0,0,10.92-9.35h.28V110H67.35Z"/><path class="cls-1" d="M88.73,87.34c0,2-2.17,4.73-5.67,6.17l-.1-.32a4.87,4.87,0,0,0,2-3.39,2.19,2.19,0,0,0-2.38-2.31c.28-2.07,1.51-3.19,3.33-3.19A2.81,2.81,0,0,1,88.73,87.34Z"/><path class="cls-1" d="M95.91,105.86a1.79,1.79,0,0,0-2,1.75c0,1,.7,2.31,3.11,2.56v.21c-4.65-.18-7.21-1.44-7.21-3.47a2.73,2.73,0,0,1,3-2.59A3.58,3.58,0,0,1,95.91,105.86Zm1.15-13.47c-1.29.24-2.55.91-2.52,2.34C94.65,98.79,106,99.46,106,105c0,3.4-2.87,5.18-7.39,5.36v-.21c1.47-.25,3.12-.77,3.12-2.59,0-3.64-11.48-5-11.48-10.29,0-3.08,2.9-4.94,6.82-5.11Zm8.26,3.39c0,1.09-.84,2.17-2.59,2.17a3,3,0,0,1-3-1.68,1.55,1.55,0,0,0,1.57-1.64c0-1-1.33-2.07-2.73-2.24v-.21C102.56,92.39,105.32,93.82,105.32,95.78Z"/><path class="cls-1" d="M117,85.67a21.36,21.36,0,0,0,8.37-1.37V108c0,.88.52,1.79,2.62,1.79V110H117v-.21c2.11,0,2.63-.91,2.63-1.79V87.73c0-1.26-.6-1.85-2.59-1.85Z"/><path class="cls-1" d="M130.1,101.21a8.66,8.66,0,0,1,8.57-9v.21c-2.06.24-2.62,2-2.62,8.68,0,5,2.24,7.8,5.36,7.8a7.66,7.66,0,0,0,5.11-1.85v.21c-1.82,2.31-5.15,3.15-7.43,3.15A8.87,8.87,0,0,1,130.1,101.21ZM138,99.74c3.09,0,4.38-1,4.38-3.92,0-1.68-.7-3.22-2.27-3.43v-.21c4.62,0,6.86,3.29,6.86,5.95a9.94,9.94,0,0,1-.18,1.82H138Z"/><path class="cls-1" d="M149.45,105.9c0-3.05,2.8-4.76,6.72-4.76H160v.21h-1.05a3.46,3.46,0,0,0-3.72,3.81c0,1.93.56,3.4,2.21,3.4a3.86,3.86,0,0,0,2.56-1.23v.21a7.46,7.46,0,0,1-5.57,2.84C151.41,110.38,149.42,108.7,149.45,105.9Zm1.4-9.91c0-1.78,1.61-3.6,6.37-3.81v.21A2.56,2.56,0,0,0,155,94.94c0,1.26.88,2,2.28,2.14a3.94,3.94,0,0,1-3.36,1.68A2.81,2.81,0,0,1,150.85,96ZM161,106.42V95.71c0-1.71-.66-3.08-2.38-3.32v-.21c5.82.21,8.13,2.41,8.13,7v8.5c0,1,.35,1.44,1,1.44s1.12-.53,1.68-1.58h.21c-.56,1.93-2.45,2.84-4.55,2.84C162.27,110.38,161,109.4,161,106.42Z"/><path class="cls-1" d="M183.75,95v.28a3.84,3.84,0,0,0-2.9-1.3c-1.75,0-3.43.81-3.43,7.14s1.78,7.46,3.43,7.46a4.76,4.76,0,0,0,2.9-1.23v.21a6.49,6.49,0,0,1-5.07,2.84c-3.33,0-7.21-2-7.21-9.28,0-7,3.81-8.92,7.21-8.92A6.45,6.45,0,0,1,183.75,95Zm6.83,12.7c0,1,.32,1.44.95,1.44s1.12-.53,1.68-1.58h.21c-.56,1.93-2.45,2.84-4.55,2.84-2.8,0-4.07-1-4.07-4V87.73c0-1.26-.59-1.85-2.59-1.85v-.21a22.85,22.85,0,0,0,8.37-1.37Z"/><path class="cls-1" d="M194.88,93.51a21.36,21.36,0,0,0,8.37-1.37V108c0,.88.52,1.79,2.62,1.79V110h-11v-.21c2.1,0,2.62-.91,2.62-1.79V95.57c0-1.26-.59-1.85-2.59-1.85Zm1.79-6.59c0-1.82,1.47-3,3.57-3s3.57,1.22,3.57,3S202.34,90,200.24,90,196.67,88.78,196.67,86.92Z"/><path class="cls-1" d="M207.34,109.82c2.1,0,2.63-.91,2.63-1.79V95.61c0-1.26-.6-1.86-2.59-1.86v-.21a21.49,21.49,0,0,0,8.36-1.36V108c0,.88.53,1.79,2.63,1.79V110h-11Zm12.32,0c2.07,0,2.59-.91,2.59-1.79V97.11c0-2-1-3-2.76-3a3.72,3.72,0,0,0-2.66,1.08V95a7.14,7.14,0,0,1,5.81-2.83c3.15,0,5.39,1.47,5.39,4.93V108c0,.88.53,1.79,2.63,1.79V110h-11Z"/><path class="cls-1" d="M232.72,98.51c0-4.55,4.27-6.26,7.84-6.33v.21c-1.51.14-2.21,2-2.21,6,0,4.23.7,6,2.21,6.09v.21C237,104.71,232.72,103,232.72,98.51ZM242,118.57c3.5-.42,4.62-2.31,4.62-3.57,0-4.87-13.65-.53-13.65-6.79,0-1.44.73-2.56,2.34-3.57l.11.17a.82.82,0,0,0-.32.67c0,3.92,16-.63,16,7,0,3.6-3.11,6-9.06,6.3Zm-9-2.94c0-2.07,2.55-2.7,5.32-2.7a3,3,0,0,0-1.51,2.49c0,1.61,1.82,2.83,3.82,3.15v.21C236.88,118.71,233,117.94,233,115.63Zm9-11.13c1.71-.14,2.41-1.86,2.41-6.09,0-4.06-.73-5.88-2.41-6v-.21c3.71.07,8,1.78,8,6.33s-4.3,6.2-8,6.2Zm1.89-13c.59-1.79,2.2-4.21,4.62-4.21,1.85,0,3,1,3,2.67a2.79,2.79,0,0,1-2.83,2.73c0-1.47-.77-2.35-1.89-2.35a3.8,3.8,0,0,0-2.7,1.26Z"/><path class="cls-1" d="M30.91,128.51a21.36,21.36,0,0,0,8.37-1.37V143c0,.88.52,1.79,2.62,1.79V145h-11v-.21c2.11,0,2.63-.91,2.63-1.79V130.57c0-1.26-.59-1.85-2.59-1.85Zm1.79-6.59c0-1.82,1.47-3,3.57-3s3.57,1.22,3.57,3S38.37,125,36.27,125,32.7,123.78,32.7,121.92Z"/><path class="cls-1" d="M43.37,144.82c2.1,0,2.63-.91,2.63-1.79V130.61c0-1.26-.6-1.86-2.6-1.86v-.21a21.51,21.51,0,0,0,8.37-1.36V143c0,.88.52,1.79,2.63,1.79V145h-11Zm12.32,0c2.07,0,2.59-.91,2.59-1.79V132.11c0-2-1-3-2.76-3a3.72,3.72,0,0,0-2.66,1.08V130a7.14,7.14,0,0,1,5.81-2.83c3.15,0,5.39,1.47,5.39,4.93V143c0,.88.52,1.79,2.62,1.79V145h-11Z"/><path class="cls-1" d="M74.66,140.86a1.79,1.79,0,0,0-2,1.75c0,1,.7,2.31,3.12,2.56v.21c-4.66-.18-7.22-1.44-7.22-3.47a2.73,2.73,0,0,1,3-2.59A3.57,3.57,0,0,1,74.66,140.86Zm1.16-13.47c-1.3.24-2.56.91-2.53,2.34.11,4.06,11.45,4.73,11.45,10.29,0,3.4-2.87,5.18-7.38,5.36v-.21c1.47-.25,3.11-.77,3.11-2.59,0-3.64-11.48-5-11.48-10.29,0-3.08,2.91-4.94,6.83-5.11Zm8.26,3.39c0,1.09-.84,2.17-2.59,2.17a3,3,0,0,1-3-1.68,1.56,1.56,0,0,0,1.58-1.64c0-1-1.33-2.07-2.73-2.24v-.21C81.31,127.39,84.08,128.82,84.08,130.78Z"/><path class="cls-1" d="M95.06,140.44c0,2,.67,3,2.42,3a3.1,3.1,0,0,0,2.42-1.09v.21a5.85,5.85,0,0,1-5.43,2.84c-3.15,0-5.18-1.47-5.18-4.94v-9.83c0-1.26-.6-1.86-2.59-1.86v-.21a21.49,21.49,0,0,0,8.36-1.36Zm11.66,2.24c0,1,.32,1.44,1,1.44s1.12-.53,1.68-1.58h.21c-.56,1.93-2.45,2.84-4.76,2.84S101,144,101,142V130.61c0-1.26-.6-1.86-2.49-1.86v-.21a22.86,22.86,0,0,0,8.26-1.36Z"/><path class="cls-1" d="M119.36,143c0,.88.52,1.79,2.62,1.79V145H111v-.21c2.1,0,2.63-.91,2.63-1.79V130.61c0-1.26-.6-1.86-2.59-1.86v-.21a21.54,21.54,0,0,0,8.37-1.36ZM128.81,131a3.75,3.75,0,0,1-3.61,4,2.37,2.37,0,0,1-2-.77,2.57,2.57,0,0,0,1.36-2.38,1.85,1.85,0,0,0-2-1.89,2.4,2.4,0,0,0-2.1,1.33V131a4.85,4.85,0,0,1,4.55-3.78A3.55,3.55,0,0,1,128.81,131Z"/><path class="cls-1" d="M130.31,140.9c0-3.05,2.8-4.76,6.72-4.76h3.78v.21h-1.05a3.46,3.46,0,0,0-3.71,3.81c0,1.93.56,3.4,2.2,3.4a3.86,3.86,0,0,0,2.56-1.23v.21a7.46,7.46,0,0,1-5.57,2.84C132.27,145.38,130.27,143.7,130.31,140.9Zm1.4-9.91c0-1.78,1.61-3.6,6.37-3.81v.21a2.55,2.55,0,0,0-2.24,2.55c0,1.26.87,2,2.27,2.14a3.93,3.93,0,0,1-3.36,1.68A2.81,2.81,0,0,1,131.71,131Zm10.15,10.43V130.71c0-1.71-.67-3.08-2.38-3.32v-.21c5.81.21,8.12,2.41,8.12,7v8.5c0,1,.35,1.44,1,1.44s1.12-.53,1.68-1.58h.21c-.56,1.93-2.45,2.84-4.55,2.84C143.12,145.38,141.86,144.4,141.86,141.42Z"/><path class="cls-1" d="M151.55,144.82c2.1,0,2.63-.91,2.63-1.79V130.61c0-1.26-.6-1.86-2.59-1.86v-.21a21.58,21.58,0,0,0,8.37-1.36V143c0,.88.52,1.79,2.62,1.79V145h-11Zm12.32,0c2.07,0,2.6-.91,2.6-1.79V132.11c0-2-1-3-2.77-3a3.72,3.72,0,0,0-2.66,1.08V130a7.15,7.15,0,0,1,5.81-2.83c3.15,0,5.39,1.47,5.39,4.93V143c0,.88.53,1.79,2.63,1.79V145h-11Z"/><path class="cls-1" d="M185.71,127.39c-2.06.24-3,2-3,8.68,0,5,2.55,7.8,5.67,7.8a7.66,7.66,0,0,0,5.11-1.85v.21c-1.82,2.31-5.15,3.15-7.42,3.15a9.15,9.15,0,0,1-9.35-9.17,9,9,0,0,1,9-9Zm7.78,3.74a3.26,3.26,0,0,1-3.51,3.36,3,3,0,0,1-3-2.2,3,3,0,0,0,1.68-2.56,2.08,2.08,0,0,0-1.51-2.31v-.24C191.7,127.18,193.49,129.14,193.49,131.13Z"/><path class="cls-1" d="M196.11,136.21a8.66,8.66,0,0,1,8.57-9v.21c-2.06.24-2.62,2-2.62,8.68,0,5,2.24,7.8,5.36,7.8a7.66,7.66,0,0,0,5.11-1.85v.21c-1.82,2.31-5.15,3.15-7.43,3.15A8.87,8.87,0,0,1,196.11,136.21Zm7.87-1.47c3.09,0,4.38-1,4.38-3.92,0-1.68-.7-3.22-2.28-3.43v-.21c4.63,0,6.87,3.29,6.87,5.95a9.94,9.94,0,0,1-.18,1.82H204Z"/><path class="cls-1" d="M37.56,175.86a1.8,1.8,0,0,0-2,1.75c0,1,.7,2.31,3.12,2.56v.21c-4.66-.18-7.22-1.44-7.22-3.47a2.73,2.73,0,0,1,3-2.59A3.57,3.57,0,0,1,37.56,175.86Zm1.16-13.47c-1.3.24-2.56.91-2.52,2.34.1,4.06,11.44,4.73,11.44,10.29,0,3.4-2.87,5.18-7.38,5.36v-.21c1.47-.25,3.11-.77,3.11-2.59,0-3.64-11.48-5-11.48-10.29,0-3.08,2.91-4.94,6.83-5.11ZM47,165.78c0,1.09-.84,2.17-2.59,2.17a3,3,0,0,1-3-1.68A1.56,1.56,0,0,0,43,164.63c0-1-1.33-2.07-2.73-2.24v-.21C44.21,162.39,47,163.82,47,165.78Z"/><path class="cls-1" d="M58,185.35c0,1.26.59,1.85,2.59,1.85v.21a22.85,22.85,0,0,0-8.37,1.37V165.57c0-1.26-.59-1.85-2.59-1.85v-.21A22.92,22.92,0,0,0,58,162.14ZM71.37,171.1c0,7.32-3.85,9.28-7.17,9.28a6.58,6.58,0,0,1-5.12-2.84v-.21a4.92,4.92,0,0,0,3,1.23c1.64,0,3.39-1.16,3.39-7.46S63.78,164,62,164a3.94,3.94,0,0,0-3,1.3V165a6.55,6.55,0,0,1,5.12-2.8C67.59,162.18,71.37,164.14,71.37,171.1Z"/><path class="cls-1" d="M74.45,171.21a8.66,8.66,0,0,1,8.58-9v.21c-2.07.24-2.63,2-2.63,8.68,0,5,2.24,7.8,5.36,7.8A7.66,7.66,0,0,0,90.87,177v.21c-1.82,2.31-5.15,3.15-7.42,3.15A8.87,8.87,0,0,1,74.45,171.21Zm7.88-1.47c3.08,0,4.37-1,4.37-3.92,0-1.68-.7-3.22-2.27-3.43v-.21c4.62,0,6.86,3.29,6.86,5.95a9.94,9.94,0,0,1-.18,1.82H82.33Z"/><path class="cls-1" d="M103.11,162.39c-2.06.24-3,2-3,8.68,0,5,2.55,7.8,5.67,7.8a7.64,7.64,0,0,0,5.11-1.85v.21c-1.82,2.31-5.14,3.15-7.42,3.15a9.15,9.15,0,0,1-9.35-9.17,9,9,0,0,1,9-9Zm7.78,3.74a3.26,3.26,0,0,1-3.51,3.36,3,3,0,0,1-3-2.2,3,3,0,0,0,1.68-2.56,2.08,2.08,0,0,0-1.51-2.31v-.24C109.1,162.18,110.89,164.14,110.89,166.13Z"/><path class="cls-1" d="M113,163.51a21.39,21.39,0,0,0,8.37-1.37V178c0,.88.52,1.79,2.62,1.79V180h-11v-.21c2.1,0,2.63-.91,2.63-1.79V165.57c0-1.26-.6-1.85-2.59-1.85Zm1.78-6.59c0-1.82,1.47-3,3.57-3s3.57,1.22,3.57,3S120.41,160,118.3,160,114.73,158.78,114.73,156.92Z"/><path class="cls-1" d="M125.69,175.9c0-3.05,2.8-4.76,6.72-4.76h3.78v.21h-1.05a3.46,3.46,0,0,0-3.71,3.81c0,1.93.56,3.4,2.2,3.4a3.86,3.86,0,0,0,2.56-1.23v.21a7.46,7.46,0,0,1-5.57,2.84C127.65,180.38,125.65,178.7,125.69,175.9Zm1.4-9.91c0-1.78,1.61-3.6,6.37-3.81v.21a2.55,2.55,0,0,0-2.24,2.55c0,1.26.87,2,2.27,2.14a3.93,3.93,0,0,1-3.36,1.68A2.81,2.81,0,0,1,127.09,166Zm10.15,10.43V165.71c0-1.71-.67-3.08-2.38-3.32v-.21c5.81.21,8.12,2.41,8.12,7v8.5c0,1,.35,1.44,1,1.44s1.12-.53,1.68-1.58h.21c-.56,1.93-2.45,2.84-4.55,2.84C138.5,180.38,137.24,179.4,137.24,176.42Z"/><path class="cls-1" d="M146.76,155.67a21.3,21.3,0,0,0,8.36-1.37V178c0,.88.53,1.79,2.63,1.79V180h-11v-.21c2.1,0,2.63-.91,2.63-1.79v-20.3c0-1.26-.6-1.85-2.59-1.85Z"/><path class="cls-1" d="M159.29,163.51a21.3,21.3,0,0,0,8.36-1.37V178c0,.88.53,1.79,2.63,1.79V180h-11v-.21c2.1,0,2.63-.91,2.63-1.79V165.57c0-1.26-.6-1.85-2.59-1.85Zm1.78-6.59c0-1.82,1.47-3,3.57-3s3.57,1.22,3.57,3-1.47,3.09-3.57,3.09S161.07,158.78,161.07,156.92Z"/><path class="cls-1" d="M178.47,175.86a1.79,1.79,0,0,0-2,1.75c0,1,.7,2.31,3.11,2.56v.21c-4.65-.18-7.21-1.44-7.21-3.47a2.73,2.73,0,0,1,3-2.59A3.58,3.58,0,0,1,178.47,175.86Zm1.15-13.47c-1.29.24-2.55.91-2.52,2.34.11,4.06,11.45,4.73,11.45,10.29,0,3.4-2.87,5.18-7.39,5.36v-.21c1.47-.25,3.12-.77,3.12-2.59,0-3.64-11.48-5-11.48-10.29,0-3.08,2.9-4.94,6.82-5.11Zm8.26,3.39c0,1.09-.84,2.17-2.59,2.17a3,3,0,0,1-3-1.68,1.55,1.55,0,0,0,1.57-1.64c0-1-1.33-2.07-2.73-2.24v-.21C185.12,162.39,187.88,163.82,187.88,165.78Z"/><path class="cls-1" d="M204.44,177.33v.21a7.33,7.33,0,0,1-6,2.84c-3.15,0-5.39-1.44-5.39-4.94V164h-1.82l.39-.52h1.43v-3.78a8.85,8.85,0,0,0,5.74-2v5.74h4.73l-.39.52H198.8v11.59c0,1.75.67,3.57,2.31,3.57A5.17,5.17,0,0,0,204.44,177.33Z"/><rect class="cls-2" width="320" height="600"/></svg>