<svg id="Layer_1" data-name="Layer 1" xmlns="http://www.w3.org/2000/svg" xmlns:xlink="http://www.w3.org/1999/xlink" viewBox="0 0 320 50"><defs><style>.cls-1{fill:none;}.cls-2{clip-path:url(#clip-path);}.cls-3{fill:#fff;}</style><clipPath id="clip-path"><rect class="cls-1" width="320" height="50"/></clipPath></defs><title>Artboard 1 copy 3</title><g class="cls-2"><path class="cls-3" d="M13.52,9.2v.09c-1.15.15-1.95,1.3-1.95,5.41s.8,5.46,1.95,5.61v.09a5.35,5.35,0,0,1-5.09-5.6A5.53,5.53,0,0,1,13.52,9.2Zm.78.09V9.2a6.76,6.76,0,0,1,3.28.75l.5-.75h.13v3.89h-.13A4.94,4.94,0,0,0,14.3,9.29Zm5.43,6.36v.09c-.75,0-1.19.29-1.19,1V20.4h-.12l-.58-1a6.21,6.21,0,0,1-3.52,1v-.09a1.7,1.7,0,0,0,1.71-2V16.69c0-.66-.29-1-1.2-1v-.09Z"/><path class="cls-3" d="M20.7,16.21a4,4,0,0,1,3.92-4.13v.09c-.94.12-1.2.92-1.2,4,0,2.31,1,3.57,2.45,3.57a3.47,3.47,0,0,0,2.34-.85V19a4.5,4.5,0,0,1-3.4,1.44A4.05,4.05,0,0,1,20.7,16.21Zm3.6-.68c1.41,0,2-.44,2-1.79,0-.77-.32-1.47-1-1.57v-.09A2.89,2.89,0,0,1,28.4,14.8a4.58,4.58,0,0,1-.08.83h-4Z"/><path class="cls-3" d="M35.63,19v.09a3.34,3.34,0,0,1-2.74,1.3c-1.44,0-2.46-.66-2.46-2.26V12.89H29.6l.17-.24h.66V10.93a4,4,0,0,0,2.62-.9v2.62h2.16l-.17.24h-2v5.3c0,.8.31,1.63,1.06,1.63A2.34,2.34,0,0,0,35.63,19Z"/><path class="cls-3" d="M40.2,18.35c0-1.39,1.28-2.17,3.08-2.17H45v.09h-.48A1.58,1.58,0,0,0,42.83,18c0,.88.25,1.55,1,1.55A1.77,1.77,0,0,0,45,19v.09a3.41,3.41,0,0,1-2.55,1.3A2,2,0,0,1,40.2,18.35Zm.64-4.53c0-.81.74-1.65,2.92-1.74v.09a1.18,1.18,0,0,0-1,1.17c0,.58.4.93,1,1a1.78,1.78,0,0,1-1.53.77A1.29,1.29,0,0,1,40.84,13.82Zm4.65,4.77v-4.9c0-.78-.31-1.4-1.09-1.52v-.09c2.65.09,3.71,1.1,3.71,3.2v3.89c0,.46.16.65.45.65s.51-.24.77-.72h.09a2,2,0,0,1-2.08,1.3C46.06,20.4,45.49,20,45.49,18.59Z"/><path class="cls-3" d="M58.35,20.31v.09a6.09,6.09,0,0,1-3.11-.78l-.52.78h-.13V16.5h.13A5.37,5.37,0,0,0,58.35,20.31Zm4.71-3.19c0,2.06-1.54,3.19-4,3.28v-.09c.88-.17,1.74-.68,1.74-1.64,0-2.8-6.11-3.06-6.11-6.3,0-1.93,1.55-3,3.68-3.17v.09a1.51,1.51,0,0,0-1.41,1.48C56.94,13.57,63.06,13.87,63.06,17.12ZM59,9.29V9.2a5.17,5.17,0,0,1,2.88.84l.57-.84h.13v3.57h-.13A5.09,5.09,0,0,0,59,9.29Z"/><path class="cls-3" d="M70.35,19v.09a3.34,3.34,0,0,1-2.74,1.3c-1.44,0-2.46-.66-2.46-2.26V12.89h-.83l.17-.24h.66V10.93a4.06,4.06,0,0,0,2.62-.9v2.62h2.16l-.17.24h-2v5.3c0,.8.31,1.63,1.06,1.63A2.34,2.34,0,0,0,70.35,19Z"/><path class="cls-3" d="M70.86,18.35c0-1.39,1.28-2.17,3.07-2.17h1.73v.09h-.48A1.58,1.58,0,0,0,73.49,18c0,.88.25,1.55,1,1.55A1.75,1.75,0,0,0,75.66,19v.09a3.39,3.39,0,0,1-2.54,1.3A2,2,0,0,1,70.86,18.35Zm.64-4.53c0-.81.74-1.65,2.91-1.74v.09a1.17,1.17,0,0,0-1,1.17c0,.58.4.93,1,1a1.8,1.8,0,0,1-1.54.77A1.29,1.29,0,0,1,71.5,13.82Zm4.64,4.77v-4.9c0-.78-.3-1.4-1.09-1.52v-.09c2.66.09,3.72,1.1,3.72,3.2v3.89c0,.46.16.65.44.65s.52-.24.77-.72h.1A2,2,0,0,1,78,20.4C76.72,20.4,76.14,20,76.14,18.59Z"/><path class="cls-3" d="M84.41,19.33c0,.4.24.81,1.2.81v.1h-5v-.1c1,0,1.2-.41,1.2-.81V13.65c0-.58-.27-.85-1.18-.85v-.1a9.82,9.82,0,0,0,3.82-.62Zm4.33-5.52a1.71,1.71,0,0,1-1.65,1.82,1.12,1.12,0,0,1-.92-.35,1.17,1.17,0,0,0,.63-1.09.85.85,0,0,0-.9-.86,1.12,1.12,0,0,0-1,.6v-.12A2.21,2.21,0,0,1,87,12.08,1.63,1.63,0,0,1,88.74,13.81Z"/><path class="cls-3" d="M8.35,38.24v-.1c1,0,1.2-.36,1.2-.81v-9c0-.44-.24-.83-1.2-.83v-.09h3.92V38.24Zm9-10.88v3h-.13c-.69-2-1.67-2.71-4.1-2.87v-.09Zm-4.23,5.29v-.09l.88-.08a2.45,2.45,0,0,0,2.11-1.38h.13v3h-.13A2.42,2.42,0,0,0,14,32.73Zm0,5.49c2.43-.16,3.57-.84,4.43-2.86h.13v3H13.07Z"/><path class="cls-3" d="M18.81,38.14c1,0,1.2-.41,1.2-.81V31.65c0-.58-.27-.85-1.18-.85v-.1a9.82,9.82,0,0,0,3.82-.62v7.25c0,.4.24.81,1.2.81v.1h-5Zm5.64,0c.94,0,1.18-.41,1.18-.81v-5c0-.89-.46-1.36-1.26-1.36a1.72,1.72,0,0,0-1.22.5v-.1a3.27,3.27,0,0,1,2.66-1.29c1.44,0,2.46.67,2.46,2.25v5c0,.4.24.81,1.2.81v.1h-5Z"/><path class="cls-3" d="M36.25,37v.09a3.32,3.32,0,0,1-2.73,1.3c-1.44,0-2.47-.66-2.47-2.26V30.89h-.83l.18-.24h.65V28.93a4.07,4.07,0,0,0,2.63-.9v2.62h2.16l-.18.24h-2v5.3c0,.8.3,1.63,1,1.63A2.32,2.32,0,0,0,36.25,37Z"/><path class="cls-3" d="M40.38,37.33c0,.4.24.81,1.2.81v.1h-5v-.1c1,0,1.2-.41,1.2-.81V28c0-.57-.27-.84-1.18-.84v-.1a9.89,9.89,0,0,0,3.82-.62Zm5.6-5v5c0,.4.24.81,1.2.81v.1h-5v-.1c.94,0,1.18-.41,1.18-.81v-5c0-.89-.46-1.36-1.26-1.36a1.73,1.73,0,0,0-1.22.5v-.1a3.27,3.27,0,0,1,2.66-1.29C45,30.08,46,30.75,46,32.33Z"/><path class="cls-3" d="M51.42,36.14c0,.9.3,1.36,1.11,1.36a1.4,1.4,0,0,0,1.1-.49v.09a2.66,2.66,0,0,1-2.48,1.3,2.07,2.07,0,0,1-2.37-2.26V31.65c0-.58-.27-.85-1.19-.85v-.1a9.91,9.91,0,0,0,3.83-.62Zm5.33,1c0,.46.14.65.43.65s.52-.24.77-.72h.1a2.05,2.05,0,0,1-2.18,1.3,1.55,1.55,0,0,1-1.76-1.57V31.65c0-.58-.27-.85-1.14-.85v-.1a10.49,10.49,0,0,0,3.78-.62Z"/><path class="cls-3" d="M61.76,36.34a.82.82,0,0,0-.9.8c0,.46.32,1,1.43,1.17v.09c-2.13-.08-3.3-.66-3.3-1.58a1.25,1.25,0,0,1,1.36-1.19A1.64,1.64,0,0,1,61.76,36.34Zm.53-6.17c-.6.12-1.17.42-1.16,1.08,0,1.85,5.24,2.16,5.24,4.7,0,1.55-1.32,2.37-3.38,2.45v-.09c.67-.12,1.42-.36,1.42-1.19,0-1.66-5.25-2.27-5.25-4.71,0-1.4,1.33-2.25,3.13-2.33Zm3.77,1.56a1,1,0,0,1-1.18,1A1.38,1.38,0,0,1,63.52,32a.71.71,0,0,0,.72-.75c0-.48-.61-.95-1.25-1v-.09C64.8,30.17,66.06,30.83,66.06,31.73Z"/><path class="cls-3" d="M67.45,30.69a9.72,9.72,0,0,0,3.83-.63v7.27c0,.4.24.81,1.2.81v.1h-5v-.1c1,0,1.2-.41,1.2-.81v-5.7c0-.58-.28-.85-1.19-.85Zm.82-3a1.65,1.65,0,1,1,1.63,1.41A1.45,1.45,0,0,1,68.27,27.68Z"/><path class="cls-3" d="M73.28,36.35c0-1.39,1.28-2.17,3.07-2.17h1.73v.09H77.6A1.59,1.59,0,0,0,75.9,36c0,.88.26,1.55,1,1.55A1.75,1.75,0,0,0,78.08,37v.09a3.41,3.41,0,0,1-2.55,1.3A2,2,0,0,1,73.28,36.35Zm.64-4.53c0-.81.73-1.65,2.91-1.74v.09a1.18,1.18,0,0,0-1,1.17c0,.58.4.93,1,1a1.8,1.8,0,0,1-1.54.77A1.29,1.29,0,0,1,73.92,31.82Zm4.64,4.77v-4.9c0-.78-.31-1.4-1.09-1.52v-.09c2.66.09,3.71,1.1,3.71,3.2v3.89c0,.46.16.65.45.65s.51-.24.77-.72h.1a2,2,0,0,1-2.09,1.3C79.13,38.4,78.56,38,78.56,36.59Z"/><path class="cls-3" d="M86.06,36.34a.82.82,0,0,0-.9.8c0,.46.32,1,1.43,1.17v.09c-2.13-.08-3.3-.66-3.3-1.58a1.25,1.25,0,0,1,1.36-1.19A1.64,1.64,0,0,1,86.06,36.34Zm.53-6.17c-.59.12-1.17.42-1.15,1.08,0,1.85,5.23,2.16,5.23,4.7,0,1.55-1.31,2.37-3.38,2.45v-.09c.68-.12,1.43-.36,1.43-1.19,0-1.66-5.25-2.27-5.25-4.71,0-1.4,1.33-2.25,3.12-2.33Zm3.78,1.56a1.05,1.05,0,0,1-1.19,1A1.38,1.38,0,0,1,87.82,32a.71.71,0,0,0,.72-.75c0-.48-.61-.95-1.25-1v-.09C89.1,30.17,90.37,30.83,90.37,31.73Z"/><path class="cls-3" d="M97.93,37v.09a3.32,3.32,0,0,1-2.73,1.3c-1.44,0-2.47-.66-2.47-2.26V30.89H91.9l.18-.24h.65V28.93a4.07,4.07,0,0,0,2.63-.9v2.62h2.16l-.18.24h-2v5.3c0,.8.3,1.63,1,1.63A2.32,2.32,0,0,0,97.93,37Z"/><path class="cls-3" d="M108.35,31.36v.13a1.82,1.82,0,0,0-1.35-.6c-.8,0-1.55.37-1.55,3.27s.8,3.41,1.55,3.41a2.26,2.26,0,0,0,1.35-.56v.09A3,3,0,0,1,106,38.4c-1.52,0-3.28-.9-3.28-4.24,0-3.19,1.73-4.08,3.28-4.08A3,3,0,0,1,108.35,31.36Zm3.12,9.31c0,.58.27.85,1.18.85v.1a10.56,10.56,0,0,0-3.82.62V30.67a9.88,9.88,0,0,0,2.64-.61Z"/><path class="cls-3" d="M116.83,36.14c0,.9.3,1.36,1.1,1.36A1.42,1.42,0,0,0,119,37v.09a2.67,2.67,0,0,1-2.48,1.3,2.07,2.07,0,0,1-2.37-2.26V31.65c0-.58-.28-.85-1.19-.85v-.1a9.91,9.91,0,0,0,3.83-.62Zm5.33,1c0,.46.14.65.43.65s.51-.24.77-.72h.09a2,2,0,0,1-2.17,1.3,1.55,1.55,0,0,1-1.76-1.57V31.65c0-.58-.28-.85-1.14-.85v-.1a10.53,10.53,0,0,0,3.78-.62Z"/><path class="cls-3" d="M128.37,30.17c-1,.12-1.27.92-1.27,4s.32,4,1.27,4.1v.09a4.07,4.07,0,0,1-4-4.19,4,4,0,0,1,4-4.13Zm4.6,4a4.07,4.07,0,0,1-4,4.19v-.09c.95-.1,1.25-1.11,1.25-4.1s-.32-3.94-1.25-4v-.09A4,4,0,0,1,133,34.21Z"/><path class="cls-3" d="M140.24,37v.09a3.36,3.36,0,0,1-2.74,1.3c-1.44,0-2.46-.66-2.46-2.26V30.89h-.84l.18-.24H135V28.93a4.06,4.06,0,0,0,2.62-.9v2.62h2.16l-.18.24h-2v5.3c0,.8.3,1.63,1.06,1.63A2.36,2.36,0,0,0,140.24,37Z"/><path class="cls-3" d="M140.83,34.21a4,4,0,0,1,3.92-4.13v.09c-.95.12-1.2.92-1.2,4,0,2.31,1,3.57,2.45,3.57a3.43,3.43,0,0,0,2.33-.85V37a4.47,4.47,0,0,1-3.39,1.44A4,4,0,0,1,140.83,34.21Zm3.6-.68c1.41,0,2-.44,2-1.79,0-.77-.32-1.47-1-1.57v-.09a2.89,2.89,0,0,1,3.14,2.72,5.69,5.69,0,0,1-.08.83h-4Z"/></g></svg>