<svg id="Layer_1" data-name="Layer 1" xmlns="http://www.w3.org/2000/svg" xmlns:xlink="http://www.w3.org/1999/xlink" viewBox="0 0 320 50"><defs><style>.cls-1{fill:none;}.cls-2{clip-path:url(#clip-path);}.cls-3{fill:#263845;}</style><clipPath id="clip-path"><rect class="cls-1" width="320" height="50"/></clipPath></defs><title>Artboard 1 copy</title><g class="cls-2"><path class="cls-3" d="M8.5,20.14c1,0,1.2-.38,1.2-.81V10.27c0-.43-.24-.82-1.2-.82V9.36h5.12v.09c-1,0-1.2.39-1.2.82v9.06c0,.43.24.81,1.2.81v.1H8.5Z"/><path class="cls-3" d="M17.54,18.34a.81.81,0,0,0-.89.8c0,.46.32,1.05,1.42,1.16v.1c-2.13-.08-3.3-.66-3.3-1.58a1.25,1.25,0,0,1,1.36-1.19A1.64,1.64,0,0,1,17.54,18.34Zm.53-6.17c-.59.12-1.17.42-1.15,1.08,0,1.85,5.23,2.16,5.23,4.7,0,1.55-1.31,2.37-3.38,2.45v-.1c.68-.11,1.43-.35,1.43-1.18,0-1.66-5.25-2.27-5.25-4.71,0-1.4,1.33-2.25,3.12-2.33Zm3.78,1.56a1.05,1.05,0,0,1-1.19,1A1.38,1.38,0,0,1,19.3,14,.71.71,0,0,0,20,13.2c0-.48-.61-.95-1.25-1v-.09C20.58,12.17,21.85,12.83,21.85,13.73Z"/><path class="cls-3" d="M27.16,12.89a.88.88,0,0,0-.88-.56v-.09h4.48v.09c-.56,0-.79.39-.51.95l2.09,4.37L31,20.24h-.1Zm-.71,9.93a1.69,1.69,0,0,1,1.41-1.51,1.21,1.21,0,0,0-.06.4.94.94,0,0,0,.94,1.08c.56,0,1-.6,1.62-1.62h.11c-.88,1.65-1.49,3.07-2.61,3.07A1.33,1.33,0,0,1,26.45,22.82ZM33,16.08A4.42,4.42,0,0,0,33.46,14a1.54,1.54,0,0,0-1.63-1.68v-.09h4v.09c-.53,0-.74.21-1,.76l-1.67,3.13Z"/><path class="cls-3" d="M39.88,12.17c-1,.12-1.27.92-1.27,4s.32,4,1.27,4.09v.1a4.08,4.08,0,0,1-4-4.19,4,4,0,0,1,4-4.13Zm4.61,4a4.08,4.08,0,0,1-4,4.19v-.1c.94-.09,1.25-1.1,1.25-4.09,0-3.14-.32-3.94-1.25-4v-.09A4,4,0,0,1,44.49,16.21Z"/><path class="cls-3" d="M49.21,18.14c0,.9.3,1.36,1.1,1.36a1.38,1.38,0,0,0,1.1-.49v.09a2.65,2.65,0,0,1-2.48,1.3,2.07,2.07,0,0,1-2.37-2.26V13.65c0-.58-.27-.85-1.18-.85v-.1a9.91,9.91,0,0,0,3.83-.62Zm5.33,1c0,.46.14.65.43.65s.51-.24.77-.72h.09a2,2,0,0,1-2.17,1.3,1.55,1.55,0,0,1-1.76-1.57V13.65c0-.58-.28-.85-1.14-.85v-.1a10.53,10.53,0,0,0,3.78-.62Z"/><path class="cls-3" d="M60.31,19.33c0,.4.24.81,1.2.81v.1h-5v-.1c1,0,1.2-.41,1.2-.81V13.65c0-.58-.27-.85-1.19-.85v-.1a9.91,9.91,0,0,0,3.83-.62Zm4.32-5.52A1.71,1.71,0,0,1,63,15.63a1.1,1.1,0,0,1-.91-.35,1.18,1.18,0,0,0,.63-1.09.85.85,0,0,0-.9-.86,1.1,1.1,0,0,0-1,.6v-.12a2.21,2.21,0,0,1,2.08-1.73A1.63,1.63,0,0,1,64.63,13.81Z"/><path class="cls-3" d="M73.33,12.17c-.94.12-1.36.92-1.36,4,0,2.31,1.17,3.57,2.6,3.57a3.43,3.43,0,0,0,2.33-.85V19a4.47,4.47,0,0,1-3.39,1.44,4.18,4.18,0,0,1-4.27-4.19,4.09,4.09,0,0,1,4.09-4.13Zm3.56,1.72a1.49,1.49,0,0,1-1.6,1.53,1.37,1.37,0,0,1-1.4-1,1.37,1.37,0,0,0,.77-1.16A1,1,0,0,0,74,12.19v-.11C76.07,12.08,76.89,13,76.89,13.89Z"/><path class="cls-3" d="M77.92,18.35c0-1.39,1.28-2.18,3.08-2.18h1.73v.1h-.48A1.58,1.58,0,0,0,80.55,18c0,.88.26,1.55,1,1.55A1.77,1.77,0,0,0,82.73,19v.09a3.41,3.41,0,0,1-2.55,1.3A2,2,0,0,1,77.92,18.35Zm.64-4.53c0-.81.74-1.65,2.92-1.74v.09a1.18,1.18,0,0,0-1,1.17c0,.58.4.93,1,1a1.78,1.78,0,0,1-1.53.77A1.29,1.29,0,0,1,78.56,13.82Zm4.65,4.77v-4.9c0-.78-.31-1.4-1.09-1.52v-.09c2.66.09,3.71,1.1,3.71,3.2v3.89c0,.46.16.65.45.65s.51-.24.77-.72h.09a2,2,0,0,1-2.08,1.3C83.78,20.4,83.21,20,83.21,18.59Z"/><path class="cls-3" d="M91.48,19.33c0,.4.24.81,1.2.81v.1h-5v-.1c1,0,1.2-.41,1.2-.81V13.65c0-.58-.28-.85-1.19-.85v-.1a9.91,9.91,0,0,0,3.83-.62Zm4.32-5.52a1.71,1.71,0,0,1-1.65,1.82,1.1,1.1,0,0,1-.91-.35,1.18,1.18,0,0,0,.62-1.09.84.84,0,0,0-.89-.86,1.09,1.09,0,0,0-1,.6v-.12a2.2,2.2,0,0,1,2.08-1.73A1.63,1.63,0,0,1,95.8,13.81Z"/><path class="cls-3" d="M11.27,36.34a.82.82,0,0,0-.9.8c0,.46.32,1,1.43,1.16v.1c-2.13-.08-3.3-.66-3.3-1.58a1.25,1.25,0,0,1,1.36-1.19A1.64,1.64,0,0,1,11.27,36.34Zm.53-6.17c-.59.12-1.17.42-1.15,1.08,0,1.85,5.23,2.16,5.23,4.7,0,1.55-1.31,2.37-3.38,2.45v-.1c.67-.11,1.43-.35,1.43-1.18,0-1.66-5.25-2.27-5.25-4.71,0-1.4,1.33-2.25,3.12-2.33Zm3.78,1.56a1.05,1.05,0,0,1-1.19,1A1.38,1.38,0,0,1,13,32a.71.71,0,0,0,.72-.75c0-.48-.61-.95-1.25-1v-.09C14.31,30.17,15.58,30.83,15.58,31.73Z"/><path class="cls-3" d="M20.63,40.67c0,.58.27.85,1.18.85v.1a10.56,10.56,0,0,0-3.82.62V31.63c0-.58-.27-.85-1.19-.85v-.09a10.38,10.38,0,0,0,3.83-.63Zm6.1-6.51c0,3.34-1.76,4.24-3.28,4.24a3,3,0,0,1-2.34-1.3V37a2.26,2.26,0,0,0,1.34.56c.76,0,1.56-.53,1.56-3.41s-.75-3.27-1.56-3.27a1.81,1.81,0,0,0-1.34.6v-.13a3,3,0,0,1,2.34-1.28C25,30.08,26.73,31,26.73,34.16Z"/><path class="cls-3" d="M28.13,34.21a4,4,0,0,1,3.92-4.13v.09c-.94.12-1.2.92-1.2,4,0,2.31,1,3.57,2.45,3.57a3.46,3.46,0,0,0,2.34-.85V37a4.47,4.47,0,0,1-3.39,1.44A4.06,4.06,0,0,1,28.13,34.21Zm3.6-.68c1.41,0,2-.44,2-1.79,0-.77-.32-1.47-1-1.57v-.09a2.89,2.89,0,0,1,3.14,2.72,4.58,4.58,0,0,1-.08.83h-4Z"/><path class="cls-3" d="M41.24,30.17c-1,.12-1.36.92-1.36,4,0,2.31,1.17,3.57,2.59,3.57a3.46,3.46,0,0,0,2.34-.85V37a4.49,4.49,0,0,1-3.4,1.44,4.18,4.18,0,0,1-4.27-4.19,4.1,4.1,0,0,1,4.1-4.13Zm3.55,1.72a1.48,1.48,0,0,1-1.6,1.53,1.35,1.35,0,0,1-1.39-1,1.37,1.37,0,0,0,.77-1.16,1,1,0,0,0-.69-1.06v-.11C44,30.08,44.79,31,44.79,31.89Z"/><path class="cls-3" d="M45.73,30.69a9.72,9.72,0,0,0,3.83-.63v7.27c0,.4.24.81,1.2.81v.1h-5v-.1c1,0,1.2-.41,1.2-.81v-5.7c0-.58-.28-.85-1.19-.85Zm.82-3a1.65,1.65,0,1,1,1.63,1.41A1.45,1.45,0,0,1,46.55,27.68Z"/><path class="cls-3" d="M51.56,36.35c0-1.39,1.28-2.18,3.07-2.18h1.73v.1h-.48A1.59,1.59,0,0,0,54.18,36c0,.88.26,1.55,1,1.55A1.75,1.75,0,0,0,56.36,37v.09a3.41,3.41,0,0,1-2.55,1.3A2,2,0,0,1,51.56,36.35Zm.64-4.53c0-.81.73-1.65,2.91-1.74v.09a1.18,1.18,0,0,0-1,1.17c0,.58.41.93,1.05,1a1.8,1.8,0,0,1-1.54.77A1.29,1.29,0,0,1,52.2,31.82Zm4.64,4.77v-4.9c0-.78-.31-1.4-1.09-1.52v-.09c2.66.09,3.71,1.1,3.71,3.2v3.89c0,.46.16.65.45.65s.51-.24.77-.72h.1a2,2,0,0,1-2.08,1.3C57.41,38.4,56.84,38,56.84,36.59Z"/><path class="cls-3" d="M61.19,27.1A9.82,9.82,0,0,0,65,26.48V37.33c0,.4.24.81,1.2.81v.1h-5v-.1c1,0,1.2-.41,1.2-.81V28c0-.57-.27-.84-1.18-.84Z"/><path class="cls-3" d="M67,29.36c0-1.43,1.92-2.12,3.37-2.16v.09a1.58,1.58,0,0,0-1.13,1.55,1.36,1.36,0,0,0,.89,1.38,1.74,1.74,0,0,1-1.47.64A1.5,1.5,0,0,1,67,29.36Zm2.35,8.5a1.73,1.73,0,1,1,1.71,1.47A1.52,1.52,0,0,1,69.35,37.86Zm.43-4.5c0-1.79,2.55-2.32,2.55-4.37a1.57,1.57,0,0,0-1.16-1.7V27.2c2.21.14,3.88.86,3.88,2.64,0,2.17-3.48,2.86-3.48,4.27a1,1,0,0,0,.58.93l0,.09C70.53,35.13,69.78,34.34,69.78,33.36Z"/></g></svg>