<svg id="Layer_1" data-name="Layer 1" xmlns="http://www.w3.org/2000/svg" xmlns:xlink="http://www.w3.org/1999/xlink" viewBox="0 0 320 50"><defs><style>.cls-1{fill:none;}.cls-2{clip-path:url(#clip-path);}.cls-3{fill:#fff;}</style><clipPath id="clip-path"><rect class="cls-1" width="320" height="50"/></clipPath></defs><title>Artboard 1 copy 2</title><g class="cls-2"><path class="cls-3" d="M8.35,20.14c1,0,1.2-.38,1.2-.81V10.27c0-.43-.24-.82-1.2-.82v-.1h5.12v.1c-1,0-1.2.39-1.2.82v9.06c0,.43.24.81,1.2.81v.1H8.35Z"/><path class="cls-3" d="M20.46,19v.09a3.33,3.33,0,0,1-2.74,1.3c-1.44,0-2.46-.66-2.46-2.26V12.89h-.83l.17-.24h.66V10.92A4,4,0,0,0,17.88,10v2.62h2.17l-.18.24h-2v5.3c0,.8.31,1.63,1.06,1.63A2.34,2.34,0,0,0,20.46,19Z"/><path class="cls-3" d="M24.91,20.14c1,0,1.2-.41,1.2-.81V13.64c0-.57-.27-.84-1.19-.84v-.1a9.91,9.91,0,0,0,3.83-.62v7.25c0,.4.24.81,1.2.81v.1h-5Zm5.63,0c.95,0,1.19-.41,1.19-.81v-5A1.19,1.19,0,0,0,30.46,13a1.73,1.73,0,0,0-1.22.5v-.1a3.3,3.3,0,0,1,2.66-1.29c1.44,0,2.47.67,2.47,2.25v5c0,.4.24.81,1.2.81v.1h-5Z"/><path class="cls-3" d="M36.43,16.21a4,4,0,0,1,3.92-4.13v.09c-1,.11-1.2.91-1.2,4,0,2.31,1,3.57,2.45,3.57a3.43,3.43,0,0,0,2.33-.85V19a4.47,4.47,0,0,1-3.39,1.44A4.06,4.06,0,0,1,36.43,16.21Zm3.6-.68c1.41,0,2-.44,2-1.79,0-.77-.32-1.47-1-1.57v-.09a2.89,2.89,0,0,1,3.14,2.72,5.69,5.69,0,0,1-.08.83H40Z"/><path class="cls-3" d="M45.44,16.21a4,4,0,0,1,3.92-4.13v.09c-1,.11-1.2.91-1.2,4,0,2.31,1,3.57,2.45,3.57a3.43,3.43,0,0,0,2.33-.85V19a4.47,4.47,0,0,1-3.39,1.44A4.06,4.06,0,0,1,45.44,16.21Zm3.6-.68c1.41,0,2-.44,2-1.79,0-.77-.32-1.47-1-1.57v-.09a2.88,2.88,0,0,1,3.13,2.72,4.58,4.58,0,0,1-.08.83H49Z"/><path class="cls-3" d="M60.12,13.36v.12a1.74,1.74,0,0,0-1.32-.59c-.8,0-1.57.37-1.57,3.27s.81,3.41,1.57,3.41A2.21,2.21,0,0,0,60.12,19v.09a2.94,2.94,0,0,1-2.32,1.3c-1.52,0-3.29-.9-3.29-4.24,0-3.19,1.74-4.08,3.29-4.08A2.92,2.92,0,0,1,60.12,13.36Zm3.13,5.81c0,.46.14.65.43.65s.51-.24.77-.72h.09a2,2,0,0,1-2.08,1.3c-1.28,0-1.85-.45-1.85-1.81V10c0-.57-.28-.85-1.19-.85V9.1a10.41,10.41,0,0,0,3.83-.63Z"/><path class="cls-3" d="M68.25,18.34a.8.8,0,0,0-.89.8c0,.46.32,1.05,1.42,1.16v.1c-2.13-.08-3.3-.66-3.3-1.59a1.25,1.25,0,0,1,1.36-1.18A1.61,1.61,0,0,1,68.25,18.34Zm.53-6.17c-.59.11-1.17.42-1.15,1.07.05,1.86,5.23,2.17,5.23,4.71,0,1.55-1.31,2.37-3.38,2.45v-.1c.68-.11,1.43-.35,1.43-1.18,0-1.67-5.25-2.27-5.25-4.71,0-1.41,1.33-2.25,3.12-2.33Zm3.78,1.55a1.05,1.05,0,0,1-1.19,1A1.38,1.38,0,0,1,70,14a.71.71,0,0,0,.72-.75c0-.48-.61-.95-1.25-1v-.09C71.29,12.17,72.56,12.83,72.56,13.72Z"/><path class="cls-3" d="M81.05,18.34a.8.8,0,0,0-.89.8c0,.46.32,1.05,1.42,1.16v.1c-2.13-.08-3.3-.66-3.3-1.59a1.25,1.25,0,0,1,1.36-1.18A1.61,1.61,0,0,1,81.05,18.34Zm.53-6.17c-.59.11-1.17.42-1.15,1.07,0,1.86,5.23,2.17,5.23,4.71,0,1.55-1.31,2.37-3.38,2.45v-.1c.68-.11,1.43-.35,1.43-1.18,0-1.67-5.25-2.27-5.25-4.71,0-1.41,1.33-2.25,3.12-2.33Zm3.78,1.55a1.05,1.05,0,0,1-1.19,1A1.38,1.38,0,0,1,82.81,14a.71.71,0,0,0,.72-.75c0-.48-.61-.95-1.25-1v-.09C84.09,12.17,85.36,12.83,85.36,13.72Z"/><path class="cls-3" d="M90.41,22.67c0,.58.27.85,1.19.85v.1a10.62,10.62,0,0,0-3.83.62V13.63c0-.58-.27-.85-1.18-.85v-.1a10.53,10.53,0,0,0,3.82-.62Zm6.1-6.51c0,3.34-1.76,4.24-3.28,4.24a3,3,0,0,1-2.34-1.3V19a2.26,2.26,0,0,0,1.35.56c.75,0,1.55-.53,1.55-3.41s-.75-3.27-1.55-3.27a1.81,1.81,0,0,0-1.35.59v-.12a3,3,0,0,1,2.34-1.28C94.78,12.08,96.51,13,96.51,16.16Z"/><path class="cls-3" d="M97.91,16.21a4,4,0,0,1,3.93-4.13v.09c-1,.11-1.2.91-1.2,4,0,2.31,1,3.57,2.44,3.57a3.44,3.44,0,0,0,2.34-.85V19A4.47,4.47,0,0,1,102,20.4,4.06,4.06,0,0,1,97.91,16.21Zm3.61-.68c1.4,0,2-.44,2-1.79,0-.77-.32-1.47-1-1.57v-.09a2.88,2.88,0,0,1,3.13,2.72,4.58,4.58,0,0,1-.08.83h-4Z"/><path class="cls-3" d="M111,12.17c-.94.11-1.36.91-1.36,4,0,2.31,1.17,3.57,2.59,3.57a3.46,3.46,0,0,0,2.34-.85V19a4.47,4.47,0,0,1-3.39,1.44,4.19,4.19,0,0,1-4.28-4.19,4.1,4.1,0,0,1,4.1-4.13Zm3.55,1.72a1.48,1.48,0,0,1-1.6,1.53,1.36,1.36,0,0,1-1.39-1,1.37,1.37,0,0,0,.77-1.17,1,1,0,0,0-.69-1.05v-.11C113.76,12.08,114.57,13,114.57,13.89Z"/><path class="cls-3" d="M115.51,12.68a9.91,9.91,0,0,0,3.83-.62v7.27c0,.4.24.81,1.2.81v.1h-5v-.1c1,0,1.2-.41,1.2-.81v-5.7c0-.58-.27-.85-1.19-.85Zm.82-3a1.65,1.65,0,1,1,1.63,1.4A1.45,1.45,0,0,1,116.33,9.68Z"/><path class="cls-3" d="M121.34,18.35c0-1.39,1.28-2.18,3.07-2.18h1.73v.1h-.48A1.59,1.59,0,0,0,124,18c0,.88.26,1.56,1,1.56a1.75,1.75,0,0,0,1.17-.56v.09a3.41,3.41,0,0,1-2.55,1.3A2,2,0,0,1,121.34,18.35Zm.64-4.53c0-.82.73-1.65,2.91-1.74v.09a1.17,1.17,0,0,0-1,1.17c0,.58.4.93,1,1a1.83,1.83,0,0,1-1.54.77A1.29,1.29,0,0,1,122,13.82Zm4.64,4.77v-4.9c0-.78-.3-1.41-1.09-1.52v-.09c2.66.09,3.71,1.1,3.71,3.2v3.89c0,.46.17.65.45.65s.52-.24.77-.72h.1a2,2,0,0,1-2.08,1.3C127.2,20.4,126.62,20,126.62,18.59Z"/><path class="cls-3" d="M131,9.1a9.64,9.64,0,0,0,3.82-.63V19.33c0,.4.25.81,1.21.81v.1H131v-.1c1,0,1.2-.41,1.2-.81V10c0-.57-.27-.85-1.18-.85Z"/><path class="cls-3" d="M136.7,12.68a9.82,9.82,0,0,0,3.82-.62v7.27c0,.4.24.81,1.2.81v.1h-5v-.1c1,0,1.2-.41,1.2-.81v-5.7c0-.58-.27-.85-1.18-.85Zm.81-3a1.65,1.65,0,1,1,1.64,1.4A1.46,1.46,0,0,1,137.51,9.68Z"/><path class="cls-3" d="M145.47,18.34a.81.81,0,0,0-.9.8c0,.46.32,1.05,1.42,1.16v.1c-2.12-.08-3.29-.66-3.29-1.59a1.25,1.25,0,0,1,1.36-1.18A1.61,1.61,0,0,1,145.47,18.34Zm.52-6.17c-.59.11-1.16.42-1.15,1.07,0,1.86,5.24,2.17,5.24,4.71,0,1.55-1.32,2.37-3.38,2.45v-.1c.67-.11,1.42-.35,1.42-1.18,0-1.67-5.25-2.27-5.25-4.71,0-1.41,1.33-2.25,3.12-2.33Zm3.78,1.55a1,1,0,0,1-1.18,1,1.38,1.38,0,0,1-1.36-.77.71.71,0,0,0,.72-.75c0-.48-.61-.95-1.25-1v-.09C148.51,12.17,149.77,12.83,149.77,13.72Z"/><path class="cls-3" d="M157.34,19v.09a3.34,3.34,0,0,1-2.74,1.3c-1.44,0-2.46-.66-2.46-2.26V12.89h-.83l.17-.24h.66V10.92a4.05,4.05,0,0,0,2.62-.89v2.62h2.16l-.17.24h-2v5.3c0,.8.31,1.63,1.06,1.63A2.34,2.34,0,0,0,157.34,19Z"/><path class="cls-3" d="M8.08,30.68a9.89,9.89,0,0,0,3.82-.62v7.27c0,.4.24.81,1.2.81v.1h-5v-.1c1,0,1.2-.41,1.2-.81v-5.7c0-.58-.27-.85-1.18-.85Zm.81-3a1.45,1.45,0,0,1,1.63-1.4,1.42,1.42,0,1,1,0,2.8A1.45,1.45,0,0,1,8.89,27.68Z"/><path class="cls-3" d="M13.77,38.14c1,0,1.2-.41,1.2-.81V31.64c0-.57-.27-.84-1.18-.84v-.1a9.82,9.82,0,0,0,3.82-.62v7.25c0,.4.24.81,1.2.81v.1h-5Zm5.64,0c.94,0,1.18-.41,1.18-.81v-5c0-.89-.46-1.36-1.26-1.36a1.72,1.72,0,0,0-1.22.5v-.1a3.27,3.27,0,0,1,2.66-1.29c1.44,0,2.46.67,2.46,2.25v5c0,.4.24.81,1.2.81v.1h-5Z"/><path class="cls-3" d="M28.08,36.34a.81.81,0,0,0-.9.8c0,.46.32,1,1.42,1.16v.1c-2.12-.08-3.29-.66-3.29-1.59a1.25,1.25,0,0,1,1.36-1.18A1.61,1.61,0,0,1,28.08,36.34Zm.52-6.17c-.59.11-1.16.42-1.15,1.07.05,1.86,5.24,2.17,5.24,4.71,0,1.55-1.32,2.37-3.38,2.45v-.1c.67-.11,1.42-.35,1.42-1.18,0-1.67-5.25-2.27-5.25-4.71,0-1.41,1.33-2.25,3.12-2.33Zm3.78,1.55a1,1,0,0,1-1.18,1A1.38,1.38,0,0,1,29.84,32a.71.71,0,0,0,.72-.75c0-.48-.61-.95-1.25-1v-.09C31.12,30.17,32.38,30.83,32.38,31.72Z"/><path class="cls-3" d="M37.4,36.14c0,.9.31,1.36,1.11,1.36a1.38,1.38,0,0,0,1.1-.49v.09a2.66,2.66,0,0,1-2.48,1.3,2.07,2.07,0,0,1-2.37-2.26v-4.5c0-.57-.27-.84-1.18-.84v-.1a9.82,9.82,0,0,0,3.82-.62Zm5.33,1c0,.46.15.65.44.65s.51-.24.77-.72H44a2,2,0,0,1-2.18,1.3,1.55,1.55,0,0,1-1.76-1.57V31.64c0-.57-.27-.84-1.13-.84v-.1a10.44,10.44,0,0,0,3.77-.62Z"/><path class="cls-3" d="M48.51,37.33c0,.4.24.81,1.2.81v.1h-5v-.1c1,0,1.2-.41,1.2-.81V31.64c0-.57-.27-.84-1.19-.84v-.1a9.91,9.91,0,0,0,3.83-.62Zm4.32-5.53a1.71,1.71,0,0,1-1.65,1.83,1.1,1.1,0,0,1-.91-.35,1.18,1.18,0,0,0,.62-1.09.85.85,0,0,0-.89-.87,1.08,1.08,0,0,0-1,.61V31.8a2.2,2.2,0,0,1,2.08-1.72A1.62,1.62,0,0,1,52.83,31.8Z"/><path class="cls-3" d="M53.52,36.35c0-1.39,1.28-2.18,3.07-2.18h1.73v.1h-.48A1.58,1.58,0,0,0,56.14,36c0,.88.26,1.56,1,1.56A1.77,1.77,0,0,0,58.32,37v.09a3.41,3.41,0,0,1-2.55,1.3A2,2,0,0,1,53.52,36.35Zm.64-4.53c0-.82.73-1.65,2.91-1.74v.09a1.18,1.18,0,0,0-1,1.17c0,.58.4.93,1,1a1.81,1.81,0,0,1-1.53.77A1.29,1.29,0,0,1,54.16,31.82Zm4.64,4.77v-4.9c0-.78-.31-1.41-1.09-1.52v-.09c2.66.09,3.71,1.1,3.71,3.2v3.89c0,.46.16.65.45.65s.51-.24.77-.72h.09a2,2,0,0,1-2.08,1.3C59.37,38.4,58.8,38,58.8,36.59Z"/><path class="cls-3" d="M63.23,38.14c1,0,1.2-.41,1.2-.81V31.64c0-.57-.27-.84-1.19-.84v-.1a9.91,9.91,0,0,0,3.83-.62v7.25c0,.4.24.81,1.2.81v.1h-5Zm5.63,0c1,0,1.19-.41,1.19-.81v-5A1.19,1.19,0,0,0,68.78,31a1.73,1.73,0,0,0-1.22.5v-.1a3.3,3.3,0,0,1,2.66-1.29c1.44,0,2.47.67,2.47,2.25v5c0,.4.24.81,1.2.81v.1h-5Z"/><path class="cls-3" d="M78.84,30.17c-.94.11-1.36.91-1.36,4,0,2.31,1.17,3.57,2.6,3.57a3.43,3.43,0,0,0,2.33-.85V37A4.47,4.47,0,0,1,79,38.4a4.18,4.18,0,0,1-4.27-4.19,4.09,4.09,0,0,1,4.09-4.13Zm3.56,1.72a1.49,1.49,0,0,1-1.6,1.53,1.37,1.37,0,0,1-1.4-1,1.37,1.37,0,0,0,.77-1.17.94.94,0,0,0-.69-1v-.11C81.58,30.08,82.4,31,82.4,31.89Z"/><path class="cls-3" d="M83.59,34.21a4,4,0,0,1,3.93-4.13v.09c-1,.11-1.2.91-1.2,4,0,2.31,1,3.57,2.44,3.57a3.44,3.44,0,0,0,2.34-.85V37a4.47,4.47,0,0,1-3.39,1.44A4.06,4.06,0,0,1,83.59,34.21Zm3.61-.68c1.4,0,2-.44,2-1.79,0-.77-.32-1.47-1-1.57v-.09a2.88,2.88,0,0,1,3.13,2.72,4.58,4.58,0,0,1-.08.83h-4Z"/></g></svg>