<?xml version="1.0" encoding="utf-8"?>
<!-- Generator: Adobe Illustrator 24.0.3, SVG Export Plug-In . SVG Version: 6.00 Build 0)  -->
<svg version="1.1" id="Layer_1" xmlns="http://www.w3.org/2000/svg" xmlns:xlink="http://www.w3.org/1999/xlink" x="0px" y="0px"
	 viewBox="0 0 300 250" style="enable-background:new 0 0 300 250;" xml:space="preserve">
<style type="text/css">
	.st0{clip-path:url(#SVGID_2_);}
	.st1{enable-background:new    ;}
	.st2{fill:#FFFFFF;}
</style>
<title>Artboard 1</title>
<g>
	<defs>
		<rect id="SVGID_1_" y="0" width="300" height="250"/>
	</defs>
	<clipPath id="SVGID_2_">
		<use xlink:href="#SVGID_1_"  style="overflow:visible;"/>
	</clipPath>
	<g class="st0">
		<g class="st1">
			<path class="st2" d="M44.3,49l0.1,0.3c-1.7,2.7-4.6,3.9-7.7,3.9C31.5,53.2,25,49.4,25,42c0-8.1,6.3-11.1,10.9-11.2v0.2
				c-2.2,0.5-4.7,2.6-4.7,10.8c0,8.2,3.3,10.1,6.9,10.1C41.1,51.9,43.2,50.4,44.3,49z M44.5,30.8v7.8h-0.3c-1.2-4.3-3.6-6.7-6.8-7.6
				v-0.2c2.8,0.1,4.5,0.6,5.8,1.5l1-1.5H44.5z"/>
			<path class="st2" d="M54,48.6c0,1.8,0.6,2.7,2.2,2.7c0.8,0,1.5-0.3,2.2-1v0.2c-0.7,1.4-2.4,2.6-5,2.6c-2.9,0-4.7-1.3-4.7-4.5v-9
				c0-1.2-0.5-1.7-2.4-1.7v-0.2c3,0,5.4-0.3,7.6-1.2V48.6z M64.7,50.7c0,0.9,0.3,1.3,0.9,1.3c0.5,0,1-0.5,1.5-1.4h0.2
				c-0.5,1.8-2.2,2.6-4.4,2.6c-2.2,0-3.5-1.3-3.5-3.1V39.6c0-1.2-0.5-1.7-2.3-1.7v-0.2c2.9,0,4.9-0.3,7.6-1.2V50.7z"/>
			<path class="st2" d="M74.7,49c-1.1,0-1.8,0.6-1.8,1.6c0,0.9,0.6,2.1,2.8,2.3v0.2c-4.3-0.2-6.6-1.3-6.6-3.2c0-1.5,1.3-2.4,2.7-2.4
				C73.2,47.6,74.2,48.2,74.7,49z M75.8,36.7c-1.2,0.2-2.3,0.8-2.3,2.1c0.1,3.7,10.5,4.3,10.5,9.4c0,3.1-2.6,4.7-6.8,4.9V53
				c1.3-0.2,2.8-0.7,2.8-2.4c0-3.3-10.5-4.5-10.5-9.4c0-2.8,2.7-4.5,6.2-4.7V36.7z M83.3,39.8c0,1-0.8,2-2.4,2
				c-1.3,0-2.3-0.6-2.7-1.5c1-0.1,1.5-0.7,1.4-1.5c0-1-1.2-1.9-2.5-2v-0.2C80.8,36.7,83.3,38,83.3,39.8z"/>
		</g>
		<g class="st1">
			<path class="st2" d="M98.5,50.4v0.2c-1,1.5-3.1,2.6-5.5,2.6c-2.9,0-4.9-1.3-4.9-4.5V38.1h-1.7l0.4-0.5h1.3v-3.5
				c2,0,3.9-0.6,5.2-1.8v5.2h4.3l-0.4,0.5h-4v10.6c0,1.6,0.6,3.3,2.1,3.3C96.3,52,97.4,51.4,98.5,50.4z"/>
		</g>
		<g class="st1">
			<path class="st2" d="M107.6,36.7c-1.9,0.2-2.5,1.8-2.5,8.1c0,6,0.6,8,2.5,8.2v0.2c-3.7,0-8-3-8-8.4s4.2-8.2,8-8.3V36.7z
				 M116.8,44.8c0,5.3-4.3,8.4-7.9,8.4V53c1.9-0.2,2.5-2.2,2.5-8.2c0-6.3-0.6-7.9-2.5-8.1v-0.2C112.6,36.5,116.8,39.4,116.8,44.8z"
				/>
			<path class="st2" d="M126.6,51c0,0.8,0.5,1.6,2.4,1.6v0.2h-10.1v-0.2c1.9,0,2.4-0.8,2.4-1.6V39.6c0-1.2-0.5-1.7-2.4-1.7v-0.2
				c3,0,5.4-0.3,7.6-1.2V51z M137.2,41v10c0,0.8,0.4,1.6,2.4,1.6v0.2h-10v-0.2c1.9,0,2.4-0.8,2.4-1.6V41c0-1.8-0.7-2.7-2.2-2.7
				c-0.9,0-1.7,0.4-2.1,1v-0.2c0.7-1.3,2.3-2.6,4.7-2.6C135.3,36.5,137.2,37.9,137.2,41z M147.8,41v10c0,0.8,0.5,1.6,2.4,1.6v0.2
				h-10.1v-0.2c1.9,0,2.4-0.8,2.4-1.6V41c0-1.8-0.7-2.7-2.2-2.7c-0.9,0-1.7,0.4-2.1,1v-0.2c0.7-1.3,2.3-2.6,4.7-2.6
				C145.9,36.5,147.8,37.9,147.8,41z"/>
			<path class="st2" d="M151.5,37.7c3,0,5.4-0.3,7.6-1.2V51c0,0.8,0.5,1.6,2.4,1.6v0.2h-10.1v-0.2c1.9,0,2.4-0.8,2.4-1.6V39.6
				c0-1.2-0.5-1.7-2.4-1.7V37.7z M153.1,31.7c0-1.7,1.3-2.8,3.3-2.8s3.3,1.1,3.3,2.8c0,1.7-1.3,2.8-3.3,2.8S153.1,33.4,153.1,31.7z"
				/>
			<path class="st2" d="M169,49c-1.1,0-1.8,0.6-1.8,1.6c0,0.9,0.6,2.1,2.8,2.3v0.2c-4.3-0.2-6.6-1.3-6.6-3.2c0-1.5,1.3-2.4,2.7-2.4
				C167.5,47.6,168.5,48.2,169,49z M170,36.7c-1.2,0.2-2.3,0.8-2.3,2.1c0.1,3.7,10.5,4.3,10.5,9.4c0,3.1-2.6,4.7-6.8,4.9V53
				c1.3-0.2,2.8-0.7,2.8-2.4c0-3.3-10.5-4.5-10.5-9.4c0-2.8,2.7-4.5,6.2-4.7V36.7z M177.6,39.8c0,1-0.8,2-2.4,2
				c-1.3,0-2.3-0.6-2.7-1.5c1-0.1,1.5-0.7,1.4-1.5c0-1-1.2-1.9-2.5-2v-0.2C175.1,36.7,177.6,38,177.6,39.8z"/>
			<path class="st2" d="M180.9,44.8c0-5.4,4.1-8.2,7.8-8.3v0.2c-1.9,0.2-2.4,1.8-2.4,7.9c0,4.6,2,7.1,4.9,7.1c1.8,0,3.2-0.5,4.7-1.7
				v0.2c-1.7,2.1-4.7,2.9-6.8,2.9C185,53.2,180.9,50.1,180.9,44.8z M188.1,43.4c2.8,0,4-0.9,4-3.6c0-1.5-0.6-2.9-2.1-3.1v-0.2
				c4.2,0,6.3,3,6.3,5.4c0,0.5-0.1,1.2-0.2,1.7h-8V43.4z"/>
			<path class="st2" d="M210.3,39.1v0.3c-0.7-0.8-1.7-1.2-2.7-1.2c-1.6,0-3.1,0.7-3.1,6.5c0,5.8,1.6,6.8,3.1,6.8
				c1,0,1.9-0.5,2.7-1.1v0.2c-0.8,1.3-2.8,2.6-4.6,2.6c-3,0-6.6-1.8-6.6-8.5c0-6.4,3.5-8.2,6.6-8.2
				C207.4,36.5,209.5,37.7,210.3,39.1z M216.5,50.7c0,0.9,0.3,1.3,0.9,1.3c0.5,0,1-0.5,1.5-1.4h0.2c-0.5,1.8-2.2,2.6-4.2,2.6
				c-2.6,0-3.7-0.9-3.7-3.6V32.4c0-1.2-0.5-1.7-2.4-1.7v-0.2c3,0,5-0.3,7.6-1.2V50.7z"/>
		</g>
		<g class="st1">
			<path class="st2" d="M36.6,82.4v0.2c-1,1.5-3.1,2.6-5.5,2.6c-2.9,0-4.9-1.3-4.9-4.5V70.1h-1.7l0.4-0.5h1.3v-3.5
				c2,0,3.9-0.6,5.2-1.8v5.2h4.3l-0.4,0.5h-4v10.6c0,1.6,0.6,3.3,2.1,3.3C34.5,84,35.6,83.4,36.6,82.4z"/>
		</g>
		<g class="st1">
			<path class="st2" d="M45.8,68.7c-1.9,0.2-2.5,1.8-2.5,8.1c0,6,0.6,8,2.5,8.2v0.2c-3.7,0-8-3-8-8.4s4.2-8.2,8-8.3V68.7z M55,76.8
				c0,5.3-4.3,8.4-7.9,8.4V85c1.9-0.2,2.5-2.2,2.5-8.2c0-6.3-0.6-7.9-2.5-8.1v-0.2C50.8,68.5,55,71.4,55,76.8z"/>
		</g>
		<g class="st1">
			<path class="st2" d="M65,70.1c-0.3-0.7-0.8-1.1-1.8-1.1v-0.2h9V69c-1.1,0-1.6,0.8-1,1.9l4.2,8.7l-2.8,5.2h-0.2L65,70.1z M63.6,90
				c0-1.4,1.1-2.5,2.8-3c-0.1,0.3-0.1,0.5-0.1,0.8c0,1.2,0.6,2.1,1.9,2.1c1.1,0,2-1.2,3.2-3.2h0.2c-1.8,3.3-3,6.1-5.2,6.1
				C64.6,92.8,63.6,91.6,63.6,90z M76.7,76.5c0.5-1,0.9-2.4,0.9-4.1c0-1.8-1-3.4-3.3-3.4v-0.2h8V69c-1.1,0-1.5,0.4-2.1,1.5l-3.3,6.3
				L76.7,76.5z"/>
		</g>
		<g class="st1">
			<path class="st2" d="M90.5,68.7c-1.9,0.2-2.5,1.8-2.5,8.1c0,6,0.6,8,2.5,8.2v0.2c-3.7,0-8-3-8-8.4s4.2-8.2,8-8.3V68.7z
				 M99.7,76.8c0,5.3-4.3,8.4-7.9,8.4V85c1.9-0.2,2.5-2.2,2.5-8.2c0-6.3-0.6-7.9-2.5-8.1v-0.2C95.5,68.5,99.7,71.4,99.7,76.8z"/>
			<path class="st2" d="M109.1,80.6c0,1.8,0.6,2.7,2.2,2.7c0.8,0,1.5-0.3,2.2-1v0.2c-0.7,1.4-2.4,2.6-5,2.6c-2.9,0-4.7-1.3-4.7-4.5
				v-9c0-1.2-0.5-1.7-2.4-1.7v-0.2c3,0,5.4-0.3,7.6-1.2V80.6z M119.8,82.7c0,0.9,0.3,1.3,0.9,1.3c0.5,0,1-0.5,1.5-1.4h0.2
				c-0.5,1.8-2.2,2.6-4.4,2.6c-2.2,0-3.5-1.3-3.5-3.1V71.6c0-1.2-0.5-1.7-2.3-1.7v-0.2c2.9,0,4.9-0.3,7.6-1.2V82.7z"/>
		</g>
		<g class="st1">
			<path class="st2" d="M131.3,83c0,0.8,0.5,1.6,2.4,1.6v0.2h-10.1v-0.2c1.9,0,2.4-0.8,2.4-1.6V71.6c0-1.2-0.5-1.7-2.4-1.7v-0.2
				c3,0,5.4-0.3,7.6-1.2V83z M140,72c0,2.2-1.6,3.6-3.3,3.6c-0.8,0-1.4-0.2-1.8-0.7c0.6-0.3,1.2-1,1.2-2.2c0-0.9-0.7-1.7-1.8-1.7
				c-0.8,0-1.5,0.5-1.9,1.2V72c0.6-2,2.2-3.5,4.2-3.5C138.7,68.5,140,70,140,72z"/>
		</g>
		<g class="st1">
			<path class="st2" d="M24.2,116.6c1.9,0,2.4-0.8,2.4-1.6v-11.4c0-1.2-0.5-1.7-2.4-1.7v-0.2c3,0,5.4-0.3,7.6-1.2V115
				c0,0.8,0.5,1.6,2.4,1.6v0.2H24.2V116.6z M35.5,116.6c1.9,0,2.4-0.8,2.4-1.6v-10c0-1.8-0.9-2.7-2.5-2.7c-0.9,0-1.7,0.3-2.4,1v-0.2
				c0.9-1.3,2.9-2.6,5.3-2.6c2.9,0,4.9,1.3,4.9,4.5v10c0,0.8,0.5,1.6,2.4,1.6v0.2h-10V116.6z"/>
			<path class="st2" d="M47.3,108.8c0-5.4,4.1-8.2,7.8-8.3v0.2c-1.9,0.2-2.4,1.8-2.4,7.9c0,4.6,2,7.1,4.9,7.1c1.8,0,3.2-0.5,4.7-1.7
				v0.2c-1.7,2.1-4.7,2.9-6.8,2.9C51.4,117.2,47.3,114.1,47.3,108.8z M54.5,107.4c2.8,0,4-0.9,4-3.6c0-1.5-0.6-2.9-2.1-3.1v-0.2
				c4.2,0,6.3,3,6.3,5.4c0,0.5-0.1,1.2-0.2,1.7h-8V107.4z"/>
			<path class="st2" d="M65.3,108.8c0-5.4,4.1-8.2,7.8-8.3v0.2c-1.9,0.2-2.4,1.8-2.4,7.9c0,4.6,2,7.1,4.9,7.1c1.8,0,3.2-0.5,4.7-1.7
				v0.2c-1.7,2.1-4.7,2.9-6.8,2.9C69.4,117.2,65.3,114.1,65.3,108.8z M72.5,107.4c2.8,0,4-0.9,4-3.6c0-1.5-0.6-2.9-2.1-3.1v-0.2
				c4.2,0,6.3,3,6.3,5.4c0,0.5-0.1,1.2-0.2,1.7h-8V107.4z"/>
			<path class="st2" d="M94.6,103.1v0.3c-0.7-0.8-1.7-1.2-2.7-1.2c-1.6,0-3.1,0.7-3.1,6.5c0,5.8,1.6,6.8,3.1,6.8
				c1,0,1.9-0.5,2.7-1.1v0.2c-0.8,1.3-2.8,2.6-4.6,2.6c-3,0-6.6-1.8-6.6-8.5c0-6.4,3.5-8.2,6.6-8.2
				C91.8,100.5,93.8,101.7,94.6,103.1z M100.9,114.7c0,0.9,0.3,1.3,0.9,1.3c0.5,0,1-0.5,1.5-1.4h0.2c-0.5,1.8-2.2,2.6-4.2,2.6
				c-2.6,0-3.7-0.9-3.7-3.6V96.4c0-1.2-0.5-1.7-2.4-1.7v-0.2c3,0,5-0.3,7.6-1.2V114.7z"/>
			<path class="st2" d="M110.9,113c-1.1,0-1.8,0.6-1.8,1.6c0,0.9,0.6,2.1,2.8,2.3v0.2c-4.3-0.2-6.6-1.3-6.6-3.2
				c0-1.5,1.3-2.4,2.7-2.4C109.4,111.6,110.4,112.2,110.9,113z M112,100.7c-1.2,0.2-2.3,0.8-2.3,2.1c0.1,3.7,10.5,4.3,10.5,9.4
				c0,3.1-2.6,4.7-6.8,4.9V117c1.3-0.2,2.8-0.7,2.8-2.4c0-3.3-10.5-4.5-10.5-9.4c0-2.8,2.7-4.5,6.2-4.7V100.7z M119.5,103.8
				c0,1-0.8,2-2.4,2c-1.3,0-2.3-0.6-2.7-1.5c1-0.1,1.5-0.7,1.4-1.5c0-1-1.2-1.9-2.5-2v-0.2C117,100.7,119.5,102,119.5,103.8z"/>
		</g>
	</g>
</g>
</svg>
