<?xml version="1.0" encoding="utf-8"?>
<!-- Generator: Adobe Illustrator 24.0.3, SVG Export Plug-In . SVG Version: 6.00 Build 0)  -->
<svg version="1.1" id="Layer_1" xmlns="http://www.w3.org/2000/svg" xmlns:xlink="http://www.w3.org/1999/xlink" x="0px" y="0px"
	 viewBox="0 0 300 250" style="enable-background:new 0 0 300 250;" xml:space="preserve">
<style type="text/css">
	.st0{enable-background:new    ;}
	.st1{fill:#FFFFFF;}
	.st2{fill:none;}
</style>
<title>Artboard 1 copy</title>
<g class="st0">
	<path class="st1" d="M40.2,35.5v0.2c-2,0.3-3.4,2.3-3.4,9.5c0,7.2,1.4,9.5,3.4,9.8v0.2c-4-0.2-8.9-3.2-8.9-9.8
		C31.3,39,36.5,35.7,40.2,35.5z M41.6,35.7v-0.2c2.9,0.1,4.5,0.6,5.7,1.3l0.9-1.3h0.2v6.8h-0.2C47.5,39,45,36.4,41.6,35.7z
		 M51.1,46.8V47c-1.3,0-2.1,0.5-2.1,1.7v6.5h-0.2l-1-1.7c-1.4,1-3.3,1.6-6.2,1.7v-0.2c1.9-0.1,3-1.1,3-3.4v-2.9
		c0-1.1-0.5-1.7-2.1-1.7v-0.2H51.1z"/>
	<path class="st1" d="M52.8,47.8c0-4.7,3.6-7.2,6.9-7.2v0.2c-1.7,0.2-2.1,1.6-2.1,6.9c0,4,1.8,6.2,4.3,6.2c1.6,0,2.8-0.4,4.1-1.5
		v0.2c-1.5,1.8-4.1,2.5-5.9,2.5C56.4,55.1,52.8,52.5,52.8,47.8z M59.1,46.6c2.5,0,3.5-0.8,3.5-3.1c0-1.3-0.6-2.6-1.8-2.7v-0.2
		c3.7,0,5.5,2.6,5.5,4.8c0,0.4-0.1,1-0.1,1.5h-7V46.6z"/>
	<path class="st1" d="M78.9,52.7v0.2c-0.9,1.3-2.7,2.3-4.8,2.3c-2.5,0-4.3-1.1-4.3-3.9V42h-1.5l0.3-0.4h1.1v-3
		c1.7,0,3.4-0.5,4.6-1.6v4.6h3.8L77.9,42h-3.5v9.3c0,1.4,0.5,2.9,1.8,2.9C77.1,54.1,78,53.6,78.9,52.7z"/>
	<path class="st1" d="M87,51.5c0-2.4,2.2-3.8,5.4-3.8h3v0.2h-0.8c-2,0-3,1.3-3,3.1c0,1.5,0.4,2.7,1.8,2.7c0.8,0,1.4-0.4,2-1v0.2
		c-0.9,1.1-2.4,2.3-4.5,2.3C88.5,55.1,86.9,53.8,87,51.5z M88.1,43.6c0-1.4,1.3-2.9,5.1-3.1v0.2c-1.1,0.2-1.8,1.1-1.8,2
		c0,1,0.7,1.6,1.8,1.7c-0.4,0.8-1.6,1.3-2.7,1.3C89,45.8,88.1,44.8,88.1,43.6z M96.2,51.9v-8.6c0-1.4-0.5-2.5-1.9-2.7v-0.2
		c4.6,0.2,6.5,1.9,6.5,5.6V53c0,0.8,0.3,1.1,0.8,1.1c0.4,0,0.9-0.4,1.3-1.3h0.2c-0.4,1.5-2,2.3-3.6,2.3
		C97.2,55.1,96.2,54.3,96.2,51.9z"/>
</g>
<g class="st0">
	<path class="st1" d="M118.7,54.9v0.2c-2.2-0.1-4-0.5-5.4-1.4l-0.9,1.4h-0.2v-6.8h0.2C113.3,51.4,115.3,53.8,118.7,54.9z
		 M126.9,49.4c0,3.6-2.7,5.6-7,5.7v-0.2c1.5-0.3,3.1-1.2,3.1-2.9c0-4.9-10.7-5.3-10.7-11c0-3.4,2.7-5.3,6.4-5.5v0.2
		c-1.3,0.2-2.5,1-2.5,2.6C116.2,43.2,126.9,43.7,126.9,49.4z M119.9,35.7v-0.2c2.1,0.1,3.8,0.6,5,1.5l1-1.5h0.2v6.2H126
		C125.1,38.8,122.7,36.4,119.9,35.7z"/>
</g>
<g class="st0">
	<path class="st1" d="M139.7,52.7v0.2c-0.9,1.3-2.7,2.3-4.8,2.3c-2.5,0-4.3-1.1-4.3-3.9V42h-1.5l0.3-0.4h1.1v-3
		c1.7,0,3.4-0.5,4.6-1.6v4.6h3.8l-0.3,0.4h-3.5v9.3c0,1.4,0.5,2.9,1.8,2.9C137.8,54.1,138.8,53.6,139.7,52.7z"/>
	<path class="st1" d="M140.6,51.5c0-2.4,2.2-3.8,5.4-3.8h3v0.2h-0.8c-2,0-3,1.3-3,3.1c0,1.5,0.4,2.7,1.8,2.7c0.8,0,1.4-0.4,2-1v0.2
		c-0.9,1.1-2.4,2.3-4.5,2.3C142.2,55.1,140.6,53.8,140.6,51.5z M141.7,43.6c0-1.4,1.3-2.9,5.1-3.1v0.2c-1.1,0.2-1.8,1.1-1.8,2
		c0,1,0.7,1.6,1.8,1.7c-0.4,0.8-1.6,1.3-2.7,1.3C142.6,45.8,141.7,44.8,141.7,43.6z M149.8,51.9v-8.6c0-1.4-0.5-2.5-1.9-2.7v-0.2
		c4.6,0.2,6.5,1.9,6.5,5.6V53c0,0.8,0.3,1.1,0.8,1.1c0.4,0,0.9-0.4,1.3-1.3h0.2c-0.4,1.5-2,2.3-3.6,2.3
		C150.8,55.1,149.8,54.3,149.8,51.9z"/>
</g>
<g class="st0">
	<path class="st1" d="M164.3,53.2c0,0.7,0.4,1.4,2.1,1.4v0.2h-8.8v-0.2c1.7,0,2.1-0.7,2.1-1.4v-9.9c0-1-0.5-1.5-2.1-1.5v-0.2
		c2.6,0,4.7-0.3,6.7-1.1V53.2z M171.9,43.6c0,1.9-1.4,3.2-2.9,3.2c-0.7,0-1.3-0.2-1.6-0.6c0.5-0.3,1.1-0.9,1.1-1.9
		c0-0.8-0.6-1.5-1.6-1.5c-0.7,0-1.3,0.4-1.7,1.1v-0.2c0.5-1.8,1.9-3,3.6-3C170.8,40.5,171.9,41.9,171.9,43.6z"/>
</g>
<g class="st0">
	<path class="st1" d="M48.2,81.5l0.1,0.2c-1.5,2.3-4,3.4-6.7,3.4c-4.6,0-10.2-3.2-10.2-9.8c0-7.1,5.5-9.7,9.6-9.8v0.2
		c-2,0.4-4.1,2.3-4.1,9.5c0,7.1,2.9,8.8,6,8.8C45.4,84,47.2,82.7,48.2,81.5z M48.5,65.5v6.8h-0.2c-1.1-3.7-3.2-5.9-5.9-6.6v-0.2
		c2.4,0.1,3.9,0.5,5.1,1.3l0.8-1.3H48.5z"/>
	<path class="st1" d="M50.6,81.5c0-2.4,2.2-3.8,5.4-3.8h3v0.2h-0.8c-2,0-3,1.3-3,3.1c0,1.5,0.4,2.7,1.8,2.7c0.8,0,1.4-0.4,2-1v0.2
		c-0.9,1.1-2.4,2.3-4.5,2.3C52.1,85.1,50.6,83.8,50.6,81.5z M51.7,73.6c0-1.4,1.3-2.9,5.1-3.1v0.2c-1.1,0.2-1.8,1.1-1.8,2
		c0,1,0.7,1.6,1.8,1.7c-0.4,0.8-1.6,1.3-2.7,1.3C52.6,75.8,51.7,74.8,51.7,73.6z M59.8,81.9v-8.6c0-1.4-0.5-2.5-1.9-2.7v-0.2
		c4.6,0.2,6.5,1.9,6.5,5.6V83c0,0.8,0.3,1.1,0.8,1.1c0.4,0,0.9-0.4,1.3-1.3h0.2c-0.4,1.5-2,2.3-3.6,2.3
		C60.8,85.1,59.8,84.3,59.8,81.9z"/>
	<path class="st1" d="M74.3,83.2c0,0.7,0.4,1.4,2.1,1.4v0.2h-8.8v-0.2c1.7,0,2.1-0.7,2.1-1.4v-9.9c0-1-0.5-1.5-2.1-1.5v-0.2
		c2.6,0,4.7-0.3,6.7-1.1V83.2z M83.6,74.5v8.7c0,0.7,0.4,1.4,2.1,1.4v0.2h-8.8v-0.2c1.7,0,2.1-0.7,2.1-1.4v-8.7c0-1.6-0.6-2.4-2-2.4
		c-0.8,0-1.5,0.4-1.8,0.8v-0.2c0.6-1.2,2-2.2,4.1-2.2C81.9,70.5,83.6,71.7,83.6,74.5z M92.9,74.5v8.7c0,0.7,0.4,1.4,2.1,1.4v0.2
		h-8.8v-0.2c1.7,0,2.1-0.7,2.1-1.4v-8.7c0-1.6-0.6-2.4-2-2.4c-0.8,0-1.5,0.4-1.8,0.8v-0.2c0.6-1.2,2-2.2,4.1-2.2
		C91.2,70.5,92.9,71.7,92.9,74.5z"/>
	<path class="st1" d="M102.4,89.1c0,1,0.5,1.5,2.1,1.5v0.2c-2.6,0-4.3,0.3-6.7,1.1V73.3c0-1-0.5-1.5-2.1-1.5v-0.2
		c2.6,0,4.3-0.3,6.7-1.1V89.1z M113.1,77.7c0,5.9-3.1,7.4-5.7,7.4c-1.6,0-3.4-1.1-4.1-2.3v-0.2c0.7,0.5,1.5,1,2.4,1
		c1.3,0,2.7-0.9,2.7-6c0-5.1-1.3-5.7-2.7-5.7c-0.9,0-1.7,0.3-2.4,1v-0.2c0.7-1.2,2.5-2.2,4.1-2.2C110.1,70.5,113.1,72.1,113.1,77.7z
		"/>
	<path class="st1" d="M115.6,77.8c0-4.7,3.6-7.2,6.9-7.2v0.2c-1.7,0.2-2.1,1.6-2.1,6.9c0,4,1.8,6.2,4.3,6.2c1.6,0,2.8-0.4,4.1-1.5
		v0.2c-1.5,1.8-4.1,2.5-5.9,2.5C119.2,85.1,115.6,82.5,115.6,77.8z M121.9,76.6c2.5,0,3.5-0.8,3.5-3.1c0-1.3-0.6-2.6-1.8-2.7v-0.2
		c3.7,0,5.5,2.6,5.5,4.8c0,0.4-0.1,1-0.1,1.5h-7V76.6z"/>
	<path class="st1" d="M137.5,83.2c0,0.7,0.4,1.4,2.1,1.4v0.2h-8.8v-0.2c1.7,0,2.1-0.7,2.1-1.4v-9.9c0-1-0.5-1.5-2.1-1.5v-0.2
		c2.6,0,4.7-0.3,6.7-1.1V83.2z M145.1,73.6c0,1.9-1.4,3.2-2.9,3.2c-0.7,0-1.3-0.2-1.6-0.6c0.5-0.3,1.1-0.9,1.1-1.9
		c0-0.8-0.6-1.5-1.6-1.5c-0.7,0-1.3,0.4-1.7,1.1v-0.2c0.5-1.8,1.9-3,3.6-3C144,70.5,145.1,71.9,145.1,73.6z"/>
	<path class="st1" d="M163.8,81.5l0.1,0.2c-1.5,2.3-4,3.4-6.7,3.4c-4.6,0-10.2-3.2-10.2-9.8c0-7.1,5.5-9.7,9.6-9.8v0.2
		c-2,0.4-4.1,2.3-4.1,9.5c0,7.1,2.9,8.8,6,8.8C161,84,162.9,82.7,163.8,81.5z M164.1,65.5v6.8h-0.2c-1.1-3.7-3.2-5.9-5.9-6.6v-0.2
		c2.4,0.1,3.9,0.5,5.1,1.3l0.8-1.3H164.1z"/>
	<path class="st1" d="M166.2,81.5c0-2.4,2.2-3.8,5.4-3.8h3v0.2h-0.8c-2,0-3,1.3-3,3.1c0,1.5,0.4,2.7,1.8,2.7c0.8,0,1.4-0.4,2-1v0.2
		c-0.9,1.1-2.4,2.3-4.5,2.3C167.8,85.1,166.2,83.8,166.2,81.5z M167.3,73.6c0-1.4,1.3-2.9,5.1-3.1v0.2c-1.1,0.2-1.8,1.1-1.8,2
		c0,1,0.7,1.6,1.8,1.7c-0.4,0.8-1.6,1.3-2.7,1.3C168.2,75.8,167.3,74.8,167.3,73.6z M175.4,81.9v-8.6c0-1.4-0.5-2.5-1.9-2.7v-0.2
		c4.6,0.2,6.5,1.9,6.5,5.6V83c0,0.8,0.3,1.1,0.8,1.1c0.4,0,0.9-0.4,1.3-1.3h0.2c-0.4,1.5-2,2.3-3.6,2.3
		C176.4,85.1,175.4,84.3,175.4,81.9z"/>
</g>
<g class="st0">
	<path class="st1" d="M189.9,83.2c0,0.7,0.4,1.4,2.1,1.4v0.2h-8.8v-0.2c1.7,0,2.1-0.7,2.1-1.4v-9.9c0-1-0.5-1.5-2.1-1.5v-0.2
		c2.6,0,4.7-0.3,6.7-1.1V83.2z M197.5,73.6c0,1.9-1.4,3.2-2.9,3.2c-0.7,0-1.3-0.2-1.6-0.6c0.5-0.3,1.1-0.9,1.1-1.9
		c0-0.8-0.6-1.5-1.6-1.5c-0.7,0-1.3,0.4-1.7,1.1v-0.2c0.5-1.8,1.9-3,3.6-3C196.4,70.5,197.5,71.9,197.5,73.6z"/>
</g>
<g class="st0">
	<path class="st1" d="M199,77.8c0-4.7,3.6-7.2,6.9-7.2v0.2c-1.7,0.2-2.1,1.6-2.1,6.9c0,4,1.8,6.2,4.3,6.2c1.6,0,2.8-0.4,4.1-1.5v0.2
		c-1.5,1.8-4.1,2.5-5.9,2.5C202.6,85.1,199,82.5,199,77.8z M205.3,76.6c2.5,0,3.5-0.8,3.5-3.1c0-1.3-0.6-2.6-1.8-2.7v-0.2
		c3.7,0,5.5,2.6,5.5,4.8c0,0.4-0.1,1-0.1,1.5h-7V76.6z"/>
</g>
<g class="st0">
	<path class="st1" d="M41.1,102.8v0.2c-0.6-0.7-1.5-1-2.4-1c-1.4,0-2.7,0.6-2.7,5.7c0,5,1.4,6,2.7,6c0.9,0,1.7-0.4,2.4-1v0.2
		c-0.7,1.2-2.5,2.3-4.1,2.3c-2.7,0-5.7-1.6-5.7-7.4c0-5.6,3-7.1,5.7-7.1C38.6,100.5,40.4,101.6,41.1,102.8z M46.6,119.1
		c0,1,0.5,1.5,2.1,1.5v0.2c-2.6,0-4.3,0.3-6.7,1.1v-20.2c1.5-0.1,3.4-0.5,4.6-1.1V119.1z"/>
	<path class="st1" d="M56,111.2c0,1.6,0.5,2.4,1.9,2.4c0.7,0,1.3-0.2,1.9-0.9v0.2c-0.6,1.2-2.1,2.3-4.3,2.3c-2.5,0-4.1-1.2-4.1-3.9
		v-7.9c0-1-0.5-1.5-2.1-1.5v-0.2c2.6,0,4.7-0.3,6.7-1.1V111.2z M65.3,113c0,0.8,0.3,1.1,0.8,1.1c0.4,0,0.9-0.4,1.3-1.3h0.2
		c-0.4,1.5-2,2.3-3.8,2.3c-2,0-3.1-1.1-3.1-2.7v-9.1c0-1-0.5-1.5-2-1.5v-0.2c2.5,0,4.3-0.3,6.6-1.1V113z"/>
	<path class="st1" d="M76.1,100.7c-1.7,0.2-2.2,1.6-2.2,7.1c0,5.3,0.6,7,2.2,7.2v0.2c-3.2,0-7-2.6-7-7.3s3.7-7.2,7-7.2V100.7z
		 M84.2,107.8c0,4.7-3.7,7.3-6.9,7.3v-0.2c1.7-0.2,2.2-1.9,2.2-7.2c0-5.5-0.6-6.9-2.2-7.1v-0.2C80.5,100.5,84.2,103,84.2,107.8z"/>
</g>
<g class="st0">
	<path class="st1" d="M96.9,112.7v0.2c-0.9,1.3-2.7,2.3-4.8,2.3c-2.5,0-4.3-1.1-4.3-3.9V102h-1.5l0.3-0.4h1.1v-3
		c1.7,0,3.4-0.5,4.6-1.6v4.6h3.8l-0.3,0.4h-3.5v9.3c0,1.4,0.5,2.9,1.8,2.9C95,114.1,96,113.6,96.9,112.7z"/>
</g>
<g class="st0">
	<path class="st1" d="M98,107.8c0-4.7,3.6-7.2,6.9-7.2v0.2c-1.7,0.2-2.1,1.6-2.1,6.9c0,4,1.8,6.2,4.3,6.2c1.6,0,2.8-0.4,4.1-1.5v0.2
		c-1.5,1.8-4.1,2.5-5.9,2.5C101.6,115.1,98,112.5,98,107.8z M104.3,106.6c2.5,0,3.5-0.8,3.5-3.1c0-1.3-0.6-2.6-1.8-2.7v-0.2
		c3.7,0,5.5,2.6,5.5,4.8c0,0.4-0.1,1-0.1,1.5h-7V106.6z"/>
</g>
<rect y="0" class="st2" width="300" height="250"/>
</svg>
