<?xml version="1.0" encoding="utf-8"?>
<!-- Generator: Adobe Illustrator 24.0.3, SVG Export Plug-In . SVG Version: 6.00 Build 0)  -->
<svg version="1.1" id="Layer_1" xmlns="http://www.w3.org/2000/svg" xmlns:xlink="http://www.w3.org/1999/xlink" x="0px" y="0px"
	 viewBox="0 0 300 250" style="enable-background:new 0 0 300 250;" xml:space="preserve">
<style type="text/css">
	.st0{enable-background:new    ;}
	.st1{fill:#FFFFFF;}
	.st2{fill:none;}
</style>
<title>Artboard 1</title>
<g class="st0">
	<path class="st1" d="M48.2,49.5l0.1,0.2c-1.5,2.3-4,3.4-6.7,3.4c-4.6,0-10.2-3.2-10.2-9.8c0-7.1,5.5-9.7,9.6-9.8v0.2
		c-2,0.4-4.1,2.3-4.1,9.5c0,7.1,2.9,8.8,6,8.8C45.4,52,47.2,50.7,48.2,49.5z M48.5,33.5v6.8h-0.2c-1.1-3.7-3.2-5.9-5.9-6.6v-0.2
		c2.4,0.1,3.9,0.5,5.1,1.3l0.8-1.3H48.5z"/>
	<path class="st1" d="M56.8,49.2c0,1.6,0.5,2.4,1.9,2.4c0.7,0,1.3-0.2,1.9-0.9v0.2c-0.6,1.2-2.1,2.3-4.3,2.3c-2.5,0-4.1-1.2-4.1-3.9
		v-7.9c0-1-0.5-1.5-2.1-1.5v-0.2c2.6,0,4.7-0.3,6.7-1.1V49.2z M66.1,51c0,0.8,0.3,1.1,0.8,1.1c0.4,0,0.9-0.4,1.3-1.3h0.2
		c-0.4,1.5-2,2.3-3.8,2.3c-2,0-3.1-1.1-3.1-2.7v-9.1c0-1-0.5-1.5-2-1.5v-0.2c2.5,0,4.3-0.3,6.6-1.1V51z"/>
	<path class="st1" d="M74.9,49.5c-0.9,0-1.6,0.6-1.6,1.4c0,0.8,0.6,1.8,2.5,2v0.2C72.1,53,70,52,70,50.3c0-1.3,1.1-2.1,2.4-2.1
		C73.5,48.3,74.4,48.8,74.9,49.5z M75.8,38.7c-1,0.2-2,0.7-2,1.9c0.1,3.2,9.2,3.8,9.2,8.2c0,2.7-2.3,4.1-5.9,4.3v-0.2
		c1.2-0.2,2.5-0.6,2.5-2.1c0-2.9-9.2-4-9.2-8.2c0-2.5,2.3-3.9,5.5-4.1V38.7z M82.4,41.4c0,0.9-0.7,1.7-2.1,1.7c-1.2,0-2-0.5-2.4-1.3
		c0.8-0.1,1.3-0.6,1.3-1.3c0-0.8-1.1-1.7-2.2-1.8v-0.2C80.2,38.7,82.4,39.9,82.4,41.4z"/>
</g>
<g class="st0">
	<path class="st1" d="M95.6,50.7v0.2c-0.9,1.3-2.7,2.3-4.8,2.3c-2.5,0-4.3-1.1-4.3-3.9V40h-1.5l0.3-0.4h1.1v-3
		c1.7,0,3.4-0.5,4.6-1.6v4.6h3.8L94.6,40h-3.5v9.3c0,1.4,0.5,2.9,1.8,2.9C93.8,52.1,94.7,51.6,95.6,50.7z"/>
</g>
<g class="st0">
	<path class="st1" d="M103.6,38.7c-1.7,0.2-2.2,1.6-2.2,7.1c0,5.3,0.6,7,2.2,7.2v0.2c-3.2,0-7-2.6-7-7.3s3.7-7.2,7-7.2V38.7z
		 M111.7,45.8c0,4.7-3.7,7.3-6.9,7.3v-0.2c1.7-0.2,2.2-1.9,2.2-7.2c0-5.5-0.6-6.9-2.2-7.1v-0.2C108,38.5,111.7,41,111.7,45.8z"/>
	<path class="st1" d="M120.3,51.2c0,0.7,0.4,1.4,2.1,1.4v0.2h-8.8v-0.2c1.7,0,2.1-0.7,2.1-1.4v-9.9c0-1-0.5-1.5-2.1-1.5v-0.2
		c2.6,0,4.7-0.3,6.7-1.1V51.2z M129.6,42.5v8.7c0,0.7,0.4,1.4,2.1,1.4v0.2h-8.8v-0.2c1.7,0,2.1-0.7,2.1-1.4v-8.7
		c0-1.6-0.6-2.4-2-2.4c-0.8,0-1.5,0.4-1.8,0.8v-0.2c0.6-1.2,2-2.2,4.1-2.2C127.9,38.5,129.6,39.7,129.6,42.5z M138.8,42.5v8.7
		c0,0.7,0.4,1.4,2.1,1.4v0.2h-8.8v-0.2c1.7,0,2.1-0.7,2.1-1.4v-8.7c0-1.6-0.6-2.4-2-2.4c-0.8,0-1.5,0.4-1.8,0.8v-0.2
		c0.6-1.2,2-2.2,4.1-2.2C137.2,38.5,138.8,39.7,138.8,42.5z"/>
	<path class="st1" d="M142,39.6c2.6,0,4.7-0.3,6.7-1.1v12.7c0,0.7,0.4,1.4,2.1,1.4v0.2H142v-0.2c1.7,0,2.1-0.7,2.1-1.4v-10
		c0-1-0.5-1.5-2.1-1.5V39.6z M143.4,34.4c0-1.5,1.2-2.4,2.9-2.4s2.9,1,2.9,2.4c0,1.5-1.2,2.5-2.9,2.5S143.4,35.8,143.4,34.4z"/>
	<path class="st1" d="M157.3,49.5c-0.9,0-1.6,0.6-1.6,1.4c0,0.8,0.6,1.8,2.5,2v0.2c-3.7-0.1-5.8-1.1-5.8-2.8c0-1.3,1.1-2.1,2.4-2.1
		C156,48.3,156.9,48.8,157.3,49.5z M158.3,38.7c-1,0.2-2,0.7-2,1.9c0.1,3.2,9.2,3.8,9.2,8.2c0,2.7-2.3,4.1-5.9,4.3v-0.2
		c1.2-0.2,2.5-0.6,2.5-2.1c0-2.9-9.2-4-9.2-8.2c0-2.5,2.3-3.9,5.5-4.1V38.7z M164.9,41.4c0,0.9-0.7,1.7-2.1,1.7
		c-1.2,0-2-0.5-2.4-1.3c0.8-0.1,1.3-0.6,1.3-1.3c0-0.8-1.1-1.7-2.2-1.8v-0.2C162.7,38.7,164.9,39.9,164.9,41.4z"/>
	<path class="st1" d="M167.8,45.8c0-4.7,3.6-7.2,6.9-7.2v0.2c-1.7,0.2-2.1,1.6-2.1,6.9c0,4,1.8,6.2,4.3,6.2c1.6,0,2.8-0.4,4.1-1.5
		v0.2c-1.5,1.8-4.1,2.5-5.9,2.5C171.4,53.1,167.8,50.5,167.8,45.8z M174.1,44.6c2.5,0,3.5-0.8,3.5-3.1c0-1.3-0.6-2.6-1.8-2.7v-0.2
		c3.7,0,5.5,2.6,5.5,4.8c0,0.4-0.1,1-0.1,1.5h-7V44.6z"/>
	<path class="st1" d="M193.5,40.8V41c-0.6-0.7-1.5-1-2.3-1c-1.4,0-2.7,0.6-2.7,5.7c0,5,1.4,6,2.7,6c0.9,0,1.6-0.4,2.3-1v0.2
		c-0.7,1.2-2.5,2.3-4.1,2.3c-2.7,0-5.8-1.6-5.8-7.4c0-5.6,3.1-7.1,5.8-7.1C191,38.5,192.8,39.6,193.5,40.8z M198.9,51
		c0,0.8,0.3,1.1,0.8,1.1c0.4,0,0.9-0.4,1.3-1.3h0.2c-0.4,1.5-2,2.3-3.6,2.3c-2.2,0-3.2-0.8-3.2-3.2V35c0-1-0.5-1.5-2.1-1.5v-0.2
		c2.6,0,4.3-0.3,6.7-1.1V51z"/>
</g>
<g class="st0">
	<path class="st1" d="M41.5,80.7v0.2c-0.9,1.3-2.7,2.3-4.8,2.3c-2.5,0-4.3-1.1-4.3-3.9V70H31l0.3-0.4h1.1v-3c1.7,0,3.4-0.5,4.6-1.6
		v4.6h3.8L40.5,70H37v9.3c0,1.4,0.5,2.9,1.8,2.9C39.7,82.1,40.6,81.6,41.5,80.7z"/>
</g>
<g class="st0">
	<path class="st1" d="M49.5,68.7c-1.7,0.2-2.2,1.6-2.2,7.1c0,5.3,0.6,7,2.2,7.2v0.2c-3.2,0-7-2.6-7-7.3s3.7-7.2,7-7.2V68.7z
		 M57.6,75.8c0,4.7-3.7,7.3-6.9,7.3v-0.2c1.7-0.2,2.2-1.9,2.2-7.2c0-5.5-0.6-6.9-2.2-7.1v-0.2C53.9,68.5,57.6,71,57.6,75.8z"/>
</g>
<g class="st0">
	<path class="st1" d="M66.4,70c-0.3-0.6-0.7-1-1.5-1v-0.2h7.8V69c-1,0-1.4,0.7-0.9,1.7l3.7,7.6L73,82.8h-0.2L66.4,70z M65.1,87.3
		c0-1.2,1-2.2,2.5-2.6c-0.1,0.3-0.1,0.5-0.1,0.7c0,1.1,0.6,1.9,1.7,1.9c1,0,1.8-1,2.8-2.8h0.2c-1.5,2.9-2.6,5.4-4.6,5.4
		C66,89.8,65.1,88.8,65.1,87.3z M76.6,75.5c0.5-0.9,0.8-2.1,0.8-3.6c0-1.5-0.9-2.9-2.9-2.9v-0.2h7V69c-0.9,0-1.3,0.4-1.8,1.3
		l-2.9,5.5L76.6,75.5z"/>
</g>
<g class="st0">
	<path class="st1" d="M88.6,68.7c-1.7,0.2-2.2,1.6-2.2,7.1c0,5.3,0.6,7,2.2,7.2v0.2c-3.2,0-7-2.6-7-7.3s3.7-7.2,7-7.2V68.7z
		 M96.7,75.8c0,4.7-3.7,7.3-6.9,7.3v-0.2c1.7-0.2,2.2-1.9,2.2-7.2c0-5.5-0.6-6.9-2.2-7.1v-0.2C93,68.5,96.7,71,96.7,75.8z"/>
	<path class="st1" d="M105,79.2c0,1.6,0.5,2.4,1.9,2.4c0.7,0,1.3-0.2,1.9-0.9v0.2c-0.6,1.2-2.1,2.3-4.3,2.3c-2.5,0-4.1-1.2-4.1-3.9
		v-7.9c0-1-0.5-1.5-2.1-1.5v-0.2c2.6,0,4.7-0.3,6.7-1.1V79.2z M114.3,81c0,0.8,0.3,1.1,0.8,1.1c0.4,0,0.9-0.4,1.3-1.3h0.2
		c-0.4,1.5-2,2.3-3.8,2.3c-2,0-3.1-1.1-3.1-2.7v-9.1c0-1-0.5-1.5-2-1.5v-0.2c2.5,0,4.3-0.3,6.6-1.1V81z"/>
</g>
<g class="st0">
	<path class="st1" d="M124.4,81.2c0,0.7,0.4,1.4,2.1,1.4v0.2h-8.8v-0.2c1.7,0,2.1-0.7,2.1-1.4v-9.9c0-1-0.5-1.5-2.1-1.5v-0.2
		c2.6,0,4.7-0.3,6.7-1.1V81.2z M132,71.6c0,1.9-1.4,3.2-2.9,3.2c-0.7,0-1.3-0.2-1.6-0.6c0.5-0.3,1.1-0.9,1.1-1.9
		c0-0.8-0.6-1.5-1.6-1.5c-0.7,0-1.3,0.4-1.7,1.1v-0.2c0.5-1.8,1.9-3,3.6-3C130.9,68.5,132,69.9,132,71.6z"/>
</g>
<g class="st0">
	<path class="st1" d="M30.7,112.7c1.7,0,2.1-0.7,2.1-1.4v-9.9c0-1-0.5-1.5-2.1-1.5v-0.2c2.6,0,4.7-0.3,6.7-1.1v12.7
		c0,0.7,0.4,1.4,2.1,1.4v0.2h-8.8V112.7z M40.5,112.7c1.7,0,2.1-0.7,2.1-1.4v-8.7c0-1.6-0.8-2.4-2.2-2.4c-0.8,0-1.5,0.3-2.1,0.9
		v-0.2c0.8-1.2,2.6-2.3,4.6-2.3c2.5,0,4.3,1.2,4.3,3.9v8.7c0,0.7,0.4,1.4,2.1,1.4v0.2h-8.8V112.7z"/>
	<path class="st1" d="M50.8,105.8c0-4.7,3.6-7.2,6.9-7.2v0.2c-1.7,0.2-2.1,1.6-2.1,6.9c0,4,1.8,6.2,4.3,6.2c1.6,0,2.8-0.4,4.1-1.5
		v0.2c-1.5,1.8-4.1,2.5-5.9,2.5C54.4,113.1,50.8,110.5,50.8,105.8z M57.1,104.6c2.5,0,3.5-0.8,3.5-3.1c0-1.3-0.6-2.6-1.8-2.7v-0.2
		c3.7,0,5.5,2.6,5.5,4.8c0,0.4-0.1,1-0.1,1.5h-7V104.6z"/>
	<path class="st1" d="M66.6,105.8c0-4.7,3.6-7.2,6.9-7.2v0.2c-1.7,0.2-2.1,1.6-2.1,6.9c0,4,1.8,6.2,4.3,6.2c1.6,0,2.8-0.4,4.1-1.5
		v0.2c-1.5,1.8-4.1,2.5-5.9,2.5C70.2,113.1,66.6,110.5,66.6,105.8z M72.9,104.6c2.5,0,3.5-0.8,3.5-3.1c0-1.3-0.6-2.6-1.8-2.7v-0.2
		c3.7,0,5.5,2.6,5.5,4.8c0,0.4-0.1,1-0.1,1.5h-7V104.6z"/>
	<path class="st1" d="M92.3,100.8v0.2c-0.6-0.7-1.5-1-2.3-1c-1.4,0-2.7,0.6-2.7,5.7c0,5,1.4,6,2.7,6c0.9,0,1.6-0.4,2.3-1v0.2
		c-0.7,1.2-2.5,2.3-4.1,2.3c-2.7,0-5.8-1.6-5.8-7.4c0-5.6,3.1-7.1,5.8-7.1C89.8,98.5,91.6,99.6,92.3,100.8z M97.8,111
		c0,0.8,0.3,1.1,0.8,1.1c0.4,0,0.9-0.4,1.3-1.3h0.2c-0.4,1.5-2,2.3-3.6,2.3c-2.2,0-3.2-0.8-3.2-3.2V95c0-1-0.5-1.5-2.1-1.5v-0.2
		c2.6,0,4.3-0.3,6.7-1.1V111z"/>
	<path class="st1" d="M106.5,109.5c-0.9,0-1.6,0.6-1.6,1.4c0,0.8,0.6,1.8,2.5,2v0.2c-3.7-0.1-5.8-1.1-5.8-2.8c0-1.3,1.1-2.1,2.4-2.1
		C105.2,108.3,106.1,108.8,106.5,109.5z M107.4,98.7c-1,0.2-2,0.7-2,1.9c0.1,3.2,9.2,3.8,9.2,8.2c0,2.7-2.3,4.1-5.9,4.3v-0.2
		c1.2-0.2,2.5-0.6,2.5-2.1c0-2.9-9.2-4-9.2-8.2c0-2.5,2.3-3.9,5.5-4.1V98.7z M114.1,101.4c0,0.9-0.7,1.7-2.1,1.7
		c-1.2,0-2-0.5-2.4-1.3c0.8-0.1,1.3-0.6,1.3-1.3c0-0.8-1.1-1.7-2.2-1.8v-0.2C111.8,98.7,114.1,99.9,114.1,101.4z"/>
</g>
<rect y="0" class="st2" width="300" height="250"/>
</svg>
