<?xml version="1.0" encoding="utf-8"?>
<!-- Generator: Adobe Illustrator 24.0.3, SVG Export Plug-In . SVG Version: 6.00 Build 0)  -->
<svg version="1.1" id="Layer_1" xmlns="http://www.w3.org/2000/svg" xmlns:xlink="http://www.w3.org/1999/xlink" x="0px" y="0px"
	 viewBox="0 0 300 250" style="enable-background:new 0 0 300 250;" xml:space="preserve">
<style type="text/css">
	.st0{clip-path:url(#SVGID_2_);}
	.st1{enable-background:new    ;}
	.st2{fill:#263845;}
</style>
<title>Artboard 8 copy</title>
<g>
	<defs>
		<rect id="SVGID_1_" y="0" width="300" height="250"/>
	</defs>
	<clipPath id="SVGID_2_">
		<use xlink:href="#SVGID_1_"  style="overflow:visible;"/>
	</clipPath>
	<g class="st0">
		<g class="st1">
			<path class="st2" d="M20,50.9c1.9,0,2.4-0.7,2.4-1.6V31.2c0-0.9-0.5-1.6-2.4-1.6v-0.2h7.8v19.9c0,0.9,0.5,1.6,2.4,1.6v0.2H20
				V50.9z M29.4,29.5v-0.2h8.8v6.4H38C36.5,31.2,34.3,29.8,29.4,29.5z M31.2,40.4l-1.8-0.2v-0.2l1.8-0.2c1.9-0.2,3.2-0.9,4.2-2.8
				h0.3v6h-0.3C34.4,41.3,33.1,40.6,31.2,40.4z"/>
			<path class="st2" d="M47.4,46.9c0,1.8,0.6,2.7,2.2,2.7c0.8,0,1.5-0.3,2.2-1v0.2c-0.7,1.4-2.4,2.6-5,2.6c-2.9,0-4.7-1.3-4.7-4.5
				v-9c0-1.2-0.5-1.7-2.4-1.7V36c3,0,5.4-0.3,7.6-1.2V46.9z M58,48.9c0,0.9,0.3,1.3,0.9,1.3c0.5,0,1-0.5,1.5-1.4h0.2
				c-0.5,1.8-2.2,2.6-4.4,2.6c-2.2,0-3.5-1.3-3.5-3.1V37.9c0-1.2-0.5-1.7-2.3-1.7V36c2.9,0,4.9-0.3,7.6-1.2V48.9z"/>
			<path class="st2" d="M61.7,28.8c3,0,5.4-0.3,7.6-1.2v21.7c0,0.8,0.5,1.6,2.4,1.6v0.2H61.7v-0.2c1.9,0,2.4-0.8,2.4-1.6V30.7
				c0-1.2-0.5-1.7-2.4-1.7V28.8z"/>
		</g>
		<g class="st1">
			<path class="st2" d="M73,28.8c3,0,5.4-0.3,7.6-1.2v21.7c0,0.8,0.5,1.6,2.4,1.6v0.2H72.9v-0.2c1.9,0,2.4-0.8,2.4-1.6V30.7
				c0-1.2-0.5-1.7-2.4-1.7V28.8z"/>
		</g>
		<g class="st1">
			<path class="st2" d="M85,36.4c-0.3-0.7-0.8-1.1-1.8-1.1v-0.2h9v0.2c-1.1,0-1.6,0.8-1,1.9l4.2,8.7l-2.8,5.2h-0.2L85,36.4z
				 M83.6,56.2c0-1.4,1.1-2.5,2.8-3c-0.1,0.3-0.1,0.5-0.1,0.8c0,1.2,0.6,2.1,1.9,2.1c1.1,0,2-1.2,3.2-3.2h0.2
				c-1.8,3.3-3,6.1-5.2,6.1C84.6,59.1,83.6,57.9,83.6,56.2z M96.7,42.8c0.5-1,0.9-2.4,0.9-4.1c0-1.8-1-3.4-3.3-3.4v-0.2h8v0.2
				c-1.1,0-1.5,0.4-2.1,1.5l-3.3,6.3L96.7,42.8z"/>
		</g>
		<g class="st1">
			<path class="st2" d="M27.9,67c-1.9,0.2-2.5,1.8-2.5,8.1c0,6,0.6,8,2.5,8.2v0.2c-3.7,0-8-3-8-8.4s4.2-8.2,8-8.3V67z M37.1,75
				c0,5.3-4.3,8.4-7.9,8.4v-0.2c1.9-0.2,2.5-2.2,2.5-8.2c0-6.3-0.6-7.9-2.5-8.1v-0.2C32.9,66.8,37.1,69.6,37.1,75z"/>
			<path class="st2" d="M46.7,88c0,1.2,0.5,1.7,2.4,1.7v0.2c-3,0-5,0.3-7.6,1.2V69.9c0-1.2-0.5-1.7-2.4-1.7V68c3,0,5-0.3,7.6-1.2V88
				z M58.8,74.9c0,6.7-3.5,8.5-6.6,8.5c-1.8,0-3.9-1.2-4.7-2.6v-0.2c0.8,0.6,1.7,1.1,2.7,1.1c1.5,0,3.1-1.1,3.1-6.8
				c0-5.8-1.5-6.5-3.1-6.5c-1,0-2,0.4-2.7,1.2v-0.3c0.8-1.3,2.8-2.6,4.7-2.6C55.4,66.8,58.8,68.6,58.8,74.9z"/>
			<path class="st2" d="M73.5,80.6v0.2c-1,1.5-3.1,2.6-5.5,2.6c-2.9,0-4.9-1.3-4.9-4.5V68.4h-1.7l0.4-0.5h1.3v-3.5
				c2,0,3.9-0.6,5.2-1.8v5.2h4.3l-0.4,0.5h-4V79c0,1.6,0.6,3.3,2.1,3.3C71.4,82.3,72.4,81.7,73.5,80.6z"/>
			<path class="st2" d="M74.3,68c3,0,5.4-0.3,7.6-1.2v14.5c0,0.8,0.5,1.6,2.4,1.6v0.2H74.3v-0.2c1.9,0,2.4-0.8,2.4-1.6V69.9
				c0-1.2-0.5-1.7-2.4-1.7V68z M76,62c0-1.7,1.3-2.8,3.3-2.8s3.3,1.1,3.3,2.8c0,1.7-1.3,2.8-3.3,2.8S76,63.7,76,62z"/>
			<path class="st2" d="M94.3,67c-1.9,0.2-2.5,1.8-2.5,8.1c0,6,0.6,8,2.5,8.2v0.2c-3.7,0-8-3-8-8.4s4.2-8.2,8-8.3V67z M103.5,75
				c0,5.3-4.3,8.4-7.9,8.4v-0.2C97.4,83,98,81,98,75c0-6.3-0.6-7.9-2.5-8.1v-0.2C99.3,66.8,103.5,69.6,103.5,75z"/>
			<path class="st2" d="M105.6,82.9c1.9,0,2.4-0.8,2.4-1.6V69.9c0-1.2-0.5-1.7-2.4-1.7V68c3,0,5.4-0.3,7.6-1.2v14.5
				c0,0.8,0.5,1.6,2.4,1.6v0.2h-10.1V82.9z M116.9,82.9c1.9,0,2.4-0.8,2.4-1.6v-10c0-1.8-0.9-2.7-2.5-2.7c-0.9,0-1.7,0.3-2.4,1v-0.2
				c0.9-1.3,2.9-2.6,5.3-2.6c2.9,0,4.9,1.3,4.9,4.5v10c0,0.8,0.5,1.6,2.4,1.6v0.2h-10V82.9z"/>
			<path class="st2" d="M128.6,75c0-5.4,4.1-8.2,7.8-8.3V67c-1.9,0.2-2.4,1.8-2.4,7.9c0,4.6,2,7.1,4.9,7.1c1.8,0,3.2-0.5,4.7-1.7
				v0.2c-1.7,2.1-4.7,2.9-6.8,2.9C132.8,83.4,128.6,80.4,128.6,75z M135.8,73.7c2.8,0,4-0.9,4-3.6c0-1.5-0.6-2.9-2.1-3.1v-0.2
				c4.2,0,6.3,3,6.3,5.4c0,0.5-0.1,1.2-0.2,1.7h-8V73.7z"/>
			<path class="st2" d="M158,69.3v0.3c-0.7-0.8-1.7-1.2-2.7-1.2c-1.6,0-3.1,0.7-3.1,6.5c0,5.8,1.6,6.8,3.1,6.8c1,0,1.9-0.5,2.7-1.1
				v0.2c-0.8,1.3-2.8,2.6-4.6,2.6c-3,0-6.6-1.8-6.6-8.5c0-6.4,3.5-8.2,6.6-8.2C155.2,66.8,157.2,68,158,69.3z M164.2,80.9
				c0,0.9,0.3,1.3,0.9,1.3c0.5,0,1-0.5,1.5-1.4h0.2c-0.5,1.8-2.2,2.6-4.2,2.6c-2.6,0-3.7-0.9-3.7-3.6V62.7c0-1.2-0.5-1.7-2.4-1.7
				v-0.2c3,0,5-0.3,7.6-1.2V80.9z"/>
		</g>
		<g class="st1">
			<path class="st2" d="M187.1,82.9v0.2h-10.3v-0.2c1.9,0,2.4-0.8,2.4-1.6V63.1c0-0.9-0.5-1.6-2.4-1.6v-0.2h7.8v19.9
				C184.7,82.1,185.2,82.9,187.1,82.9z M199.6,80.8c-0.5,1.8-2.4,2.6-4.7,2.6c-4.2,0-5.1-2.9-5.3-5.6c-0.2-2.6-0.4-4.7-3.3-5.1v-0.2
				c2.9,0,4.3-2.6,4.3-5.8c0-3.6-1.3-5.3-4.3-5.3v-0.2c6.5,0,9.7,1.4,9.7,5.5c0,3.5-2.6,5.6-7.3,5.9c5.8,0.3,6.7,2.5,7,5.2
				c0.3,2.6,1,4.4,2.1,4.4c0.6,0,1.1-0.5,1.6-1.4H199.6z"/>
		</g>
		<g class="st1">
			<path class="st2" d="M200.1,63.2c-0.6-1.2-1.3-1.7-2.9-1.7v-0.2h11.6v0.2c-1.5,0-2.8,1-2,2.6l6,12.7l-2.9,6.5h-0.4L200.1,63.2z
				 M214.1,73.9c1.9-4.3,2.3-6.9,2.3-8.9c0-2.3-2-3.5-3.6-3.5v-0.2h9.2v0.1c-1.5,0-2.4,1.4-3.4,3.6l-4.4,9.2L214.1,73.9z"/>
		</g>
		<g class="st1">
			<path class="st2" d="M19.5,100c3,0,5.4-0.3,7.6-1.2v14.5c0,0.8,0.5,1.6,2.4,1.6v0.2H19.4v-0.2c1.9,0,2.4-0.8,2.4-1.6v-11.4
				c0-1.2-0.5-1.7-2.4-1.7V100z M21.1,94c0-1.7,1.3-2.8,3.3-2.8s3.3,1.1,3.3,2.8c0,1.7-1.3,2.8-3.3,2.8S21.1,95.7,21.1,94z"/>
			<path class="st2" d="M30.8,114.9c1.9,0,2.4-0.8,2.4-1.6v-11.4c0-1.2-0.5-1.7-2.4-1.7V100c3,0,5.4-0.3,7.6-1.2v14.5
				c0,0.8,0.5,1.6,2.4,1.6v0.2H30.8V114.9z M42.1,114.9c1.9,0,2.4-0.8,2.4-1.6v-10c0-1.8-0.9-2.7-2.5-2.7c-0.9,0-1.7,0.3-2.4,1v-0.2
				c0.9-1.3,2.9-2.6,5.3-2.6c2.9,0,4.9,1.3,4.9,4.5v10c0,0.8,0.5,1.6,2.4,1.6v0.2h-10V114.9z"/>
			<path class="st2" d="M59.5,111.3c-1.1,0-1.8,0.6-1.8,1.6c0,0.9,0.6,2.1,2.8,2.3v0.2c-4.3-0.2-6.6-1.3-6.6-3.2
				c0-1.5,1.3-2.4,2.7-2.4C57.9,109.9,59,110.5,59.5,111.3z M60.5,99c-1.2,0.2-2.3,0.8-2.3,2.1c0.1,3.7,10.5,4.3,10.5,9.4
				c0,3.1-2.6,4.7-6.8,4.9v-0.2c1.3-0.2,2.8-0.7,2.8-2.4c0-3.3-10.5-4.5-10.5-9.4c0-2.8,2.7-4.5,6.2-4.7V99z M68.1,102.1
				c0,1-0.8,2-2.4,2c-1.3,0-2.3-0.6-2.7-1.5c1-0.1,1.5-0.7,1.4-1.5c0-1-1.2-1.9-2.5-2v-0.2C65.5,99,68.1,100.3,68.1,102.1z"/>
			<path class="st2" d="M78.1,110.9c0,1.8,0.6,2.7,2.2,2.7c0.8,0,1.5-0.3,2.2-1v0.2c-0.7,1.4-2.4,2.6-5,2.6c-2.9,0-4.7-1.3-4.7-4.5
				v-9c0-1.2-0.5-1.7-2.4-1.7V100c3,0,5.4-0.3,7.6-1.2V110.9z M88.8,112.9c0,0.9,0.3,1.3,0.9,1.3c0.5,0,1-0.5,1.5-1.4h0.2
				c-0.5,1.8-2.2,2.6-4.4,2.6c-2.2,0-3.5-1.3-3.5-3.1v-10.4c0-1.2-0.5-1.7-2.3-1.7V100c2.9,0,4.9-0.3,7.6-1.2V112.9z"/>
		</g>
		<g class="st1">
			<path class="st2" d="M100.3,113.3c0,0.8,0.5,1.6,2.4,1.6v0.2H92.6v-0.2c1.9,0,2.4-0.8,2.4-1.6v-11.4c0-1.2-0.5-1.7-2.4-1.7V100
				c3,0,5.4-0.3,7.6-1.2V113.3z M109,102.2c0,2.2-1.6,3.6-3.3,3.6c-0.8,0-1.4-0.2-1.8-0.7c0.6-0.3,1.2-1,1.2-2.2
				c0-0.9-0.7-1.7-1.8-1.7c-0.8,0-1.5,0.5-1.9,1.2v-0.3c0.6-2,2.2-3.5,4.2-3.5C107.7,98.8,109,100.3,109,102.2z"/>
		</g>
		<g class="st1">
			<path class="st2" d="M110.3,111.3c0-2.8,2.6-4.4,6.1-4.4h3.5v0.2h-1c-2.3,0-3.4,1.5-3.4,3.5c0,1.8,0.5,3.1,2,3.1
				c0.9,0,1.6-0.5,2.3-1.1v0.2c-1.1,1.2-2.8,2.6-5.1,2.6C112.1,115.4,110.3,113.9,110.3,111.3z M111.6,102.3c0-1.6,1.5-3.3,5.8-3.5
				V99c-1.3,0.2-2,1.2-2,2.3c0,1.2,0.8,1.9,2.1,2c-0.5,0.9-1.8,1.5-3.1,1.5C112.6,104.8,111.6,103.6,111.6,102.3z M120.9,111.8V102
				c0-1.6-0.6-2.8-2.2-3v-0.2c5.3,0.2,7.4,2.2,7.4,6.4v7.8c0,0.9,0.3,1.3,0.9,1.3c0.5,0,1-0.5,1.5-1.4h0.2c-0.5,1.8-2.2,2.6-4.2,2.6
				C122,115.4,120.9,114.5,120.9,111.8z"/>
			<path class="st2" d="M129.8,114.9c1.9,0,2.4-0.8,2.4-1.6v-11.4c0-1.2-0.5-1.7-2.4-1.7V100c3,0,5.4-0.3,7.6-1.2v14.5
				c0,0.8,0.5,1.6,2.4,1.6v0.2h-10.1V114.9z M141,114.9c1.9,0,2.4-0.8,2.4-1.6v-10c0-1.8-0.9-2.7-2.5-2.7c-0.9,0-1.7,0.3-2.4,1v-0.2
				c0.9-1.3,2.9-2.6,5.3-2.6c2.9,0,4.9,1.3,4.9,4.5v10c0,0.8,0.5,1.6,2.4,1.6v0.2h-10V114.9z"/>
			<path class="st2" d="M161,99c-1.9,0.2-2.7,1.8-2.7,7.9c0,4.6,2.3,7.1,5.2,7.1c1.8,0,3.2-0.5,4.7-1.7v0.2
				c-1.7,2.1-4.7,2.9-6.8,2.9c-4.1,0-8.5-3-8.5-8.4s4.4-8.2,8.2-8.3V99z M168.1,102.4c0,1.7-1.2,3.1-3.2,3.1c-1.6,0-2.6-1-2.8-2
				c0.9-0.4,1.5-1.5,1.5-2.3c0-0.7-0.2-1.9-1.4-2.1v-0.2C166.5,98.8,168.1,100.6,168.1,102.4z"/>
			<path class="st2" d="M170.5,107c0-5.4,4.1-8.2,7.8-8.3V99c-1.9,0.2-2.4,1.8-2.4,7.9c0,4.6,2,7.1,4.9,7.1c1.8,0,3.2-0.5,4.7-1.7
				v0.2c-1.7,2.1-4.7,2.9-6.8,2.9C174.6,115.4,170.5,112.4,170.5,107z M177.7,105.7c2.8,0,4-0.9,4-3.6c0-1.5-0.6-2.9-2.1-3.1v-0.2
				c4.2,0,6.3,3,6.3,5.4c0,0.5-0.1,1.2-0.2,1.7h-8V105.7z"/>
		</g>
	</g>
</g>
</svg>
