<?xml version="1.0" encoding="utf-8"?>
<!-- Generator: Adobe Illustrator 24.0.3, SVG Export Plug-In . SVG Version: 6.00 Build 0)  -->
<svg version="1.1" id="Layer_1" xmlns="http://www.w3.org/2000/svg" xmlns:xlink="http://www.w3.org/1999/xlink" x="0px" y="0px"
	 viewBox="0 0 300 250" style="enable-background:new 0 0 300 250;" xml:space="preserve">
<style type="text/css">
	.st0{clip-path:url(#SVGID_2_);}
	.st1{enable-background:new    ;}
	.st2{fill:#FFFFFF;}
</style>
<title>Artboard 1 copy</title>
<g>
	<defs>
		<rect id="SVGID_1_" y="0" width="300" height="250"/>
	</defs>
	<clipPath id="SVGID_2_">
		<use xlink:href="#SVGID_1_"  style="overflow:visible;"/>
	</clipPath>
	<g class="st0">
		<g class="st1">
			<path class="st2" d="M35.2,32.8v0.2c-2.3,0.3-3.9,2.6-3.9,10.8c0,8.3,1.6,10.9,3.9,11.2v0.2C30.6,54.9,25,51.5,25,44
				C25,36.7,30.9,33,35.2,32.8z M36.7,32.9v-0.2c3.3,0.2,5.1,0.6,6.6,1.5l1-1.5h0.3v7.8h-0.3C43.4,36.8,40.5,33.7,36.7,32.9z
				 M47.6,45.6v0.2c-1.5,0-2.4,0.6-2.4,1.9v7.4H45l-1.2-1.9c-1.6,1.2-3.8,1.8-7,1.9V55c2.2-0.2,3.4-1.3,3.4-3.9v-3.3
				c0-1.3-0.6-1.9-2.4-1.9v-0.2H47.6z"/>
			<path class="st2" d="M49.5,46.8c0-5.4,4.1-8.2,7.8-8.3v0.2c-1.9,0.2-2.4,1.8-2.4,7.9c0,4.6,2,7.1,4.9,7.1c1.8,0,3.2-0.5,4.7-1.7
				v0.2c-1.7,2.1-4.7,2.9-6.8,2.9C53.7,55.2,49.5,52.1,49.5,46.8z M56.7,45.4c2.8,0,4-0.9,4-3.6c0-1.5-0.6-2.9-2.1-3.1v-0.2
				c4.2,0,6.3,3,6.3,5.4c0,0.5-0.1,1.2-0.2,1.7h-8V45.4z"/>
			<path class="st2" d="M79.4,52.4v0.2c-1,1.5-3.1,2.6-5.5,2.6c-2.9,0-4.9-1.3-4.9-4.5V40.1h-1.7l0.4-0.5H69v-3.5
				c2,0,3.9-0.6,5.2-1.8v5.2h4.3l-0.4,0.5h-4v10.6c0,1.6,0.6,3.3,2.1,3.3C77.2,54,78.3,53.4,79.4,52.4z"/>
			<path class="st2" d="M88.5,51.1c0-2.8,2.6-4.4,6.1-4.4h3.5v0.2h-1c-2.3,0-3.4,1.5-3.4,3.5c0,1.8,0.5,3.1,2,3.1
				c0.9,0,1.6-0.5,2.3-1.1v0.2c-1.1,1.2-2.8,2.6-5.1,2.6C90.3,55.2,88.5,53.6,88.5,51.1z M89.8,42c0-1.6,1.5-3.3,5.8-3.5v0.2
				c-1.3,0.2-2,1.2-2,2.3c0,1.2,0.8,1.9,2.1,2c-0.5,0.9-1.8,1.5-3.1,1.5C90.8,44.5,89.8,43.3,89.8,42z M99.1,51.5v-9.8
				c0-1.6-0.6-2.8-2.2-3v-0.2c5.3,0.2,7.4,2.2,7.4,6.4v7.8c0,0.9,0.3,1.3,0.9,1.3c0.5,0,1-0.5,1.5-1.4h0.2c-0.5,1.8-2.2,2.6-4.2,2.6
				C100.2,55.2,99.1,54.3,99.1,51.5z"/>
		</g>
		<g class="st1">
			<path class="st2" d="M124.8,55v0.2c-2.5-0.1-4.5-0.5-6.2-1.6l-1.1,1.6h-0.3v-7.8h0.3C118.6,51,120.9,53.6,124.8,55z M134.2,48.6
				c0,4.1-3.1,6.4-8,6.6V55c1.8-0.3,3.5-1.3,3.5-3.3c0-5.6-12.2-6.1-12.2-12.6c0-3.8,3.1-6,7.4-6.3v0.2c-1.5,0.3-2.8,1.2-2.8,2.9
				C122,41.5,134.2,42.1,134.2,48.6z M126.2,32.9v-0.2c2.4,0.1,4.3,0.6,5.8,1.7l1.2-1.7h0.3v7.1h-0.3
				C132.1,36.5,129.3,33.7,126.2,32.9z"/>
		</g>
		<g class="st1">
			<path class="st2" d="M148.8,52.4v0.2c-1,1.5-3.1,2.6-5.5,2.6c-2.9,0-4.9-1.3-4.9-4.5V40.1h-1.7l0.4-0.5h1.3v-3.5
				c2,0,3.9-0.6,5.2-1.8v5.2h4.3l-0.4,0.5h-4v10.6c0,1.6,0.6,3.3,2.1,3.3C146.7,54,147.8,53.4,148.8,52.4z"/>
			<path class="st2" d="M149.8,51.1c0-2.8,2.6-4.4,6.1-4.4h3.5v0.2h-1c-2.3,0-3.4,1.5-3.4,3.5c0,1.8,0.5,3.1,2,3.1
				c0.9,0,1.6-0.5,2.3-1.1v0.2c-1.1,1.2-2.8,2.6-5.1,2.6C151.6,55.2,149.8,53.6,149.8,51.1z M151.1,42c0-1.6,1.5-3.3,5.8-3.5v0.2
				c-1.3,0.2-2,1.2-2,2.3c0,1.2,0.8,1.9,2.1,2c-0.5,0.9-1.8,1.5-3.1,1.5C152.2,44.5,151.1,43.3,151.1,42z M160.4,51.5v-9.8
				c0-1.6-0.6-2.8-2.2-3v-0.2c5.3,0.2,7.4,2.2,7.4,6.4v7.8c0,0.9,0.3,1.3,0.9,1.3c0.5,0,1-0.5,1.5-1.4h0.2c-0.5,1.8-2.2,2.6-4.2,2.6
				C161.6,55.2,160.4,54.3,160.4,51.5z"/>
		</g>
		<g class="st1">
			<path class="st2" d="M176.9,53c0,0.8,0.5,1.6,2.4,1.6v0.2h-10.1v-0.2c1.9,0,2.4-0.8,2.4-1.6V41.6c0-1.2-0.5-1.7-2.4-1.7v-0.2
				c3,0,5.4-0.3,7.6-1.2V53z M185.6,42c0,2.2-1.6,3.6-3.3,3.6c-0.8,0-1.4-0.2-1.8-0.7c0.6-0.3,1.2-1,1.2-2.2c0-0.9-0.7-1.7-1.8-1.7
				c-0.8,0-1.5,0.5-1.9,1.2V42c0.6-2,2.2-3.5,4.2-3.5C184.4,38.5,185.6,40,185.6,42z"/>
		</g>
		<g class="st1">
			<path class="st2" d="M44.3,83l0.1,0.3c-1.7,2.7-4.6,3.9-7.7,3.9C31.5,87.2,25,83.4,25,76c0-8.1,6.3-11.1,10.9-11.2v0.2
				c-2.2,0.5-4.7,2.6-4.7,10.8c0,8.2,3.3,10.1,6.9,10.1C41.1,85.9,43.2,84.4,44.3,83z M44.5,64.8v7.8h-0.3c-1.2-4.3-3.6-6.7-6.8-7.6
				v-0.2c2.8,0.1,4.5,0.6,5.8,1.5l1-1.5H44.5z"/>
			<path class="st2" d="M47,83.1c0-2.8,2.6-4.4,6.1-4.4h3.5v0.2h-1c-2.3,0-3.4,1.5-3.4,3.5c0,1.8,0.5,3.1,2,3.1
				c0.9,0,1.6-0.5,2.3-1.1v0.2c-1.1,1.2-2.8,2.6-5.1,2.6C48.8,87.2,46.9,85.6,47,83.1z M48.2,74c0-1.6,1.5-3.3,5.8-3.5v0.2
				c-1.3,0.2-2,1.2-2,2.3c0,1.2,0.8,1.9,2.1,2c-0.5,0.9-1.8,1.5-3.1,1.5C49.3,76.5,48.2,75.3,48.2,74z M57.5,83.5v-9.8
				c0-1.6-0.6-2.8-2.2-3v-0.2c5.3,0.2,7.4,2.2,7.4,6.4v7.8c0,0.9,0.3,1.3,0.9,1.3c0.5,0,1-0.5,1.5-1.4h0.2c-0.5,1.8-2.2,2.6-4.2,2.6
				C58.7,87.2,57.5,86.3,57.5,83.5z"/>
			<path class="st2" d="M74.1,85c0,0.8,0.5,1.6,2.4,1.6v0.2H66.4v-0.2c1.9,0,2.4-0.8,2.4-1.6V73.6c0-1.2-0.5-1.7-2.4-1.7v-0.2
				c3,0,5.4-0.3,7.6-1.2V85z M84.7,75v10c0,0.8,0.4,1.6,2.4,1.6v0.2H77v-0.2c1.9,0,2.4-0.8,2.4-1.6V75c0-1.8-0.7-2.7-2.2-2.7
				c-0.9,0-1.7,0.4-2.1,1v-0.2c0.7-1.3,2.3-2.6,4.7-2.6C82.8,70.5,84.7,71.9,84.7,75z M95.3,75v10c0,0.8,0.5,1.6,2.4,1.6v0.2H87.6
				v-0.2c1.9,0,2.4-0.8,2.4-1.6V75c0-1.8-0.7-2.7-2.2-2.7c-0.9,0-1.7,0.4-2.1,1v-0.2c0.7-1.3,2.3-2.6,4.7-2.6
				C93.4,70.5,95.3,71.9,95.3,75z"/>
			<path class="st2" d="M106.2,91.7c0,1.2,0.5,1.7,2.4,1.7v0.2c-3,0-5,0.3-7.6,1.2V73.6c0-1.2-0.5-1.7-2.4-1.7v-0.2
				c3,0,5-0.3,7.6-1.2V91.7z M118.4,78.7c0,6.7-3.5,8.5-6.6,8.5c-1.8,0-3.9-1.2-4.7-2.6v-0.2c0.8,0.6,1.7,1.1,2.7,1.1
				c1.5,0,3.1-1.1,3.1-6.8c0-5.8-1.5-6.5-3.1-6.5c-1,0-2,0.4-2.7,1.2v-0.3c0.8-1.3,2.8-2.6,4.7-2.6C115,70.5,118.4,72.3,118.4,78.7z
				"/>
			<path class="st2" d="M121.2,78.8c0-5.4,4.1-8.2,7.8-8.3v0.2c-1.9,0.2-2.4,1.8-2.4,7.9c0,4.6,2,7.1,4.9,7.1c1.8,0,3.2-0.5,4.7-1.7
				v0.2c-1.7,2.1-4.7,2.9-6.8,2.9C125.4,87.2,121.2,84.1,121.2,78.8z M128.4,77.4c2.8,0,4-0.9,4-3.6c0-1.5-0.6-2.9-2.1-3.1v-0.2
				c4.2,0,6.3,3,6.3,5.4c0,0.5-0.1,1.2-0.2,1.7h-8V77.4z"/>
			<path class="st2" d="M146.4,85c0,0.8,0.5,1.6,2.4,1.6v0.2h-10.1v-0.2c1.9,0,2.4-0.8,2.4-1.6V73.6c0-1.2-0.5-1.7-2.4-1.7v-0.2
				c3,0,5.4-0.3,7.6-1.2V85z M155,74c0,2.2-1.6,3.6-3.3,3.6c-0.8,0-1.4-0.2-1.8-0.7c0.6-0.3,1.2-1,1.2-2.2c0-0.9-0.7-1.7-1.8-1.7
				c-0.8,0-1.5,0.5-1.9,1.2V74c0.6-2,2.2-3.5,4.2-3.5C153.8,70.5,155,72,155,74z"/>
			<path class="st2" d="M176.4,83l0.1,0.3c-1.7,2.7-4.6,3.9-7.7,3.9c-5.2,0-11.7-3.7-11.7-11.2c0-8.1,6.3-11.1,10.9-11.2v0.2
				c-2.2,0.5-4.7,2.6-4.7,10.8c0,8.2,3.3,10.1,6.9,10.1C173.2,85.9,175.3,84.4,176.4,83z M176.7,64.8v7.8h-0.3
				c-1.2-4.3-3.6-6.7-6.8-7.6v-0.2c2.8,0.1,4.5,0.6,5.8,1.5l1-1.5H176.7z"/>
			<path class="st2" d="M179.1,83.1c0-2.8,2.6-4.4,6.1-4.4h3.5v0.2h-1c-2.3,0-3.4,1.5-3.4,3.5c0,1.8,0.5,3.1,2,3.1
				c0.9,0,1.6-0.5,2.3-1.1v0.2c-1.1,1.2-2.8,2.6-5.1,2.6C180.9,87.2,179.1,85.6,179.1,83.1z M180.4,74c0-1.6,1.5-3.3,5.8-3.5v0.2
				c-1.3,0.2-2,1.2-2,2.3c0,1.2,0.8,1.9,2.1,2c-0.5,0.9-1.8,1.5-3.1,1.5C181.4,76.5,180.4,75.3,180.4,74z M189.7,83.5v-9.8
				c0-1.6-0.6-2.8-2.2-3v-0.2c5.3,0.2,7.4,2.2,7.4,6.4v7.8c0,0.9,0.3,1.3,0.9,1.3c0.5,0,1-0.5,1.5-1.4h0.2c-0.5,1.8-2.2,2.6-4.2,2.6
				C190.8,87.2,189.7,86.3,189.7,83.5z"/>
		</g>
		<g class="st1">
			<path class="st2" d="M206.2,85c0,0.8,0.5,1.6,2.4,1.6v0.2h-10.1v-0.2c1.9,0,2.4-0.8,2.4-1.6V73.6c0-1.2-0.5-1.7-2.4-1.7v-0.2
				c3,0,5.4-0.3,7.6-1.2V85z M214.8,74c0,2.2-1.6,3.6-3.3,3.6c-0.8,0-1.4-0.2-1.8-0.7c0.6-0.3,1.2-1,1.2-2.2c0-0.9-0.7-1.7-1.8-1.7
				c-0.8,0-1.5,0.5-1.9,1.2V74c0.6-2,2.2-3.5,4.2-3.5C213.6,70.5,214.8,72,214.8,74z"/>
		</g>
		<g class="st1">
			<path class="st2" d="M216.6,78.8c0-5.4,4.1-8.2,7.8-8.3v0.2c-1.9,0.2-2.4,1.8-2.4,7.9c0,4.6,2,7.1,4.9,7.1c1.8,0,3.2-0.5,4.7-1.7
				v0.2c-1.7,2.1-4.7,2.9-6.8,2.9C220.7,87.2,216.6,84.1,216.6,78.8z M223.8,77.4c2.8,0,4-0.9,4-3.6c0-1.5-0.6-2.9-2.1-3.1v-0.2
				c4.2,0,6.3,3,6.3,5.4c0,0.5-0.1,1.2-0.2,1.7h-8V77.4z"/>
		</g>
		<g class="st1">
			<path class="st2" d="M36.2,105.1v0.3c-0.7-0.8-1.7-1.2-2.7-1.2c-1.6,0-3.1,0.7-3.1,6.5c0,5.8,1.6,6.8,3.1,6.8
				c1,0,1.9-0.5,2.7-1.1v0.2c-0.8,1.3-2.8,2.6-4.7,2.6c-3,0-6.6-1.8-6.6-8.5c0-6.4,3.5-8.2,6.6-8.2
				C33.3,102.5,35.4,103.7,36.2,105.1z M42.4,123.7c0,1.2,0.5,1.7,2.4,1.7v0.2c-3,0-5,0.3-7.6,1.2v-23.1c1.7-0.2,3.8-0.6,5.3-1.2
				V123.7z"/>
			<path class="st2" d="M53.1,114.6c0,1.8,0.6,2.7,2.2,2.7c0.8,0,1.5-0.3,2.2-1v0.2c-0.7,1.4-2.4,2.6-5,2.6c-2.9,0-4.7-1.3-4.7-4.5
				v-9c0-1.2-0.5-1.7-2.4-1.7v-0.2c3,0,5.4-0.3,7.6-1.2V114.6z M63.8,116.7c0,0.9,0.3,1.3,0.9,1.3c0.5,0,1-0.5,1.5-1.4h0.2
				c-0.5,1.8-2.2,2.6-4.4,2.6c-2.2,0-3.5-1.3-3.5-3.1v-10.4c0-1.2-0.5-1.7-2.3-1.7v-0.2c2.9,0,4.9-0.3,7.6-1.2V116.7z"/>
			<path class="st2" d="M76.2,102.7c-1.9,0.2-2.5,1.8-2.5,8.1c0,6,0.6,8,2.5,8.2v0.2c-3.7,0-8-3-8-8.4s4.2-8.2,8-8.3V102.7z
				 M85.4,110.8c0,5.3-4.3,8.4-7.9,8.4V119c1.9-0.2,2.5-2.2,2.5-8.2c0-6.3-0.6-7.9-2.5-8.1v-0.2C81.2,102.5,85.4,105.4,85.4,110.8z"
				/>
		</g>
		<g class="st1">
			<path class="st2" d="M99.9,116.4v0.2c-1,1.5-3.1,2.6-5.5,2.6c-2.9,0-4.9-1.3-4.9-4.5v-10.5h-1.7l0.4-0.5h1.3v-3.5
				c2,0,3.9-0.6,5.2-1.8v5.2h4.3l-0.4,0.5h-4v10.6c0,1.6,0.6,3.3,2.1,3.3C97.8,118,98.9,117.4,99.9,116.4z"/>
		</g>
		<g class="st1">
			<path class="st2" d="M101.1,110.8c0-5.4,4.1-8.2,7.8-8.3v0.2c-1.9,0.2-2.4,1.8-2.4,7.9c0,4.6,2,7.1,4.9,7.1
				c1.8,0,3.2-0.5,4.7-1.7v0.2c-1.7,2.1-4.7,2.9-6.8,2.9C105.2,119.2,101.1,116.1,101.1,110.8z M108.3,109.4c2.8,0,4-0.9,4-3.6
				c0-1.5-0.6-2.9-2.1-3.1v-0.2c4.2,0,6.3,3,6.3,5.4c0,0.5-0.1,1.2-0.2,1.7h-8V109.4z"/>
		</g>
	</g>
</g>
</svg>
