<svg id="Layer_1" data-name="Layer 1" xmlns="http://www.w3.org/2000/svg" xmlns:xlink="http://www.w3.org/1999/xlink" viewBox="0 0 300 600"><defs><style>.cls-1{fill:none;}.cls-2{clip-path:url(#clip-path);}.cls-3{fill:#fff;}</style><clipPath id="clip-path"><rect class="cls-1" width="300" height="600"/></clipPath></defs><title>Artboard 1 copy 4</title><g class="cls-2"><path class="cls-3" d="M33,50.16v.21c-2.52.32-4.27,2.84-4.27,11.83S30.47,74.14,33,74.45v.21c-5-.28-11.14-4-11.14-12.25A12.14,12.14,0,0,1,33,50.16Zm1.71.21v-.21c3.61.18,5.6.7,7.18,1.65L43,50.16h.28v8.51H43A10.78,10.78,0,0,0,34.7,50.37Zm11.87,13.9v.21c-1.65,0-2.59.63-2.59,2.06v8.12H43.7l-1.26-2.1c-1.75,1.26-4.17,2-7.7,2.1v-.21c2.38-.17,3.74-1.43,3.74-4.27V66.54c0-1.43-.63-2.06-2.62-2.06v-.21Z"/><path class="cls-3" d="M48.7,65.49a8.67,8.67,0,0,1,8.58-9v.21c-2.07.25-2.63,2-2.63,8.68,0,5,2.24,7.81,5.36,7.81a7.62,7.62,0,0,0,5.11-1.86v.21C63.3,73.82,60,74.66,57.7,74.66A8.87,8.87,0,0,1,48.7,65.49ZM56.58,64C59.66,64,61,63,61,60.1c0-1.68-.7-3.22-2.27-3.43v-.21c4.62,0,6.86,3.29,6.86,5.95a9.85,9.85,0,0,1-.18,1.82H56.58Z"/><path class="cls-3" d="M81.36,71.62v.21a7.32,7.32,0,0,1-6,2.83c-3.15,0-5.39-1.43-5.39-4.93V58.25H68.16l.38-.53H70V53.94a8.8,8.8,0,0,0,5.74-2v5.74h4.73l-.39.53H75.72V69.83c0,1.75.67,3.57,2.31,3.57A5.2,5.2,0,0,0,81.36,71.62Z"/><path class="cls-3" d="M91.36,70.18c0-3,2.81-4.76,6.72-4.76h3.79v.21h-1.05a3.47,3.47,0,0,0-3.72,3.82c0,1.92.57,3.39,2.21,3.39a3.84,3.84,0,0,0,2.56-1.22v.21a7.45,7.45,0,0,1-5.57,2.83C93.32,74.66,91.33,73,91.36,70.18Zm1.4-9.9c0-1.79,1.61-3.61,6.37-3.82v.21a2.57,2.57,0,0,0-2.24,2.56c0,1.26.88,2,2.28,2.13A3.93,3.93,0,0,1,95.81,63,2.8,2.8,0,0,1,92.76,60.28Zm10.16,10.43V60c0-1.72-.67-3.08-2.38-3.33v-.21c5.81.21,8.12,2.42,8.12,7V72c0,1,.35,1.43,1,1.43s1.12-.52,1.68-1.57h.21c-.56,1.92-2.45,2.83-4.55,2.83C104.18,74.66,102.92,73.68,102.92,70.71Z"/><path class="cls-3" d="M34.07,98.26v.28a3.93,3.93,0,0,0-2.94-1.29c-1.75,0-3.39.8-3.39,7.14s1.75,7.45,3.39,7.45a4.92,4.92,0,0,0,2.94-1.22v.21A6.54,6.54,0,0,1,29,113.66c-3.32,0-7.17-2-7.17-9.27,0-7,3.78-8.93,7.17-8.93A6.51,6.51,0,0,1,34.07,98.26Zm6.83,20.37c0,1.26.59,1.86,2.59,1.86v.21a23.06,23.06,0,0,0-8.37,1.36V96.76a22.57,22.57,0,0,0,5.78-1.33Z"/><path class="cls-3" d="M52.62,108.73c0,2,.67,3,2.42,3a3.09,3.09,0,0,0,2.41-1.08v.21A5.83,5.83,0,0,1,52,113.66c-3.16,0-5.19-1.47-5.19-4.93V98.89c0-1.26-.59-1.85-2.59-1.85v-.21a21.32,21.32,0,0,0,8.37-1.37ZM64.28,111c0,1,.31,1.43.94,1.43s1.12-.52,1.68-1.57h.21c-.56,1.92-2.45,2.83-4.76,2.83s-3.85-1.4-3.85-3.43V98.89C58.5,97.63,57.91,97,56,97v-.21a22.65,22.65,0,0,0,8.26-1.37Z"/><path class="cls-3" d="M77.86,95.67c-2.07.25-2.77,2-2.77,8.82,0,6.58.7,8.75,2.77,9v.21a8.92,8.92,0,0,1-8.72-9.17,8.78,8.78,0,0,1,8.72-9Zm10.08,8.82a8.92,8.92,0,0,1-8.68,9.17v-.21c2.06-.21,2.73-2.41,2.73-9,0-6.86-.7-8.61-2.73-8.82v-.21A8.72,8.72,0,0,1,87.94,104.49Z"/><path class="cls-3" d="M103.83,110.62v.21a7.32,7.32,0,0,1-6,2.83c-3.15,0-5.39-1.43-5.39-4.93V97.25H90.63l.38-.53h1.44V92.94a8.84,8.84,0,0,0,5.74-2v5.74h4.73l-.39.53H98.19v11.58c0,1.75.67,3.57,2.31,3.57A5.2,5.2,0,0,0,103.83,110.62Z"/><path class="cls-3" d="M105.12,104.49a8.67,8.67,0,0,1,8.58-9v.21c-2.07.25-2.63,2-2.63,8.68,0,5,2.24,7.81,5.36,7.81a7.62,7.62,0,0,0,5.11-1.86v.21c-1.82,2.31-5.15,3.15-7.42,3.15A8.87,8.87,0,0,1,105.12,104.49ZM113,103c3.08,0,4.37-1,4.37-3.92,0-1.68-.7-3.22-2.27-3.43v-.21c4.62,0,6.86,3.29,6.86,6a9.85,9.85,0,0,1-.18,1.82H113Z"/><path class="cls-3" d="M145.26,96.72l-.38.53h-3.43v14.07c0,.87.56,1.78,2.66,1.78v.21H133.05v-.21c2.1,0,2.62-.91,2.62-1.78V97.25H133.4l.38-.53h1.89V95.15c0-5,2.59-7.07,5.81-7.56v.21c-1.19.45-2.06,1.57-2.06,3.71S140.78,96.72,145.26,96.72Zm3-5.35a3,3,0,0,1-3.05,3.08,3.62,3.62,0,0,1-3.53-2.35,2.2,2.2,0,0,0,2.48-2.24,2,2,0,0,0-1.26-2.06v-.21C146.59,87.73,148.24,89.37,148.24,91.37Z"/><path class="cls-3" d="M154.82,111.32c0,.87.52,1.78,2.62,1.78v.21h-11v-.21c2.1,0,2.62-.91,2.62-1.78V98.89c0-1.26-.59-1.85-2.59-1.85v-.21a21.36,21.36,0,0,0,8.37-1.37Zm9.45-12.08a3.74,3.74,0,0,1-3.6,4,2.38,2.38,0,0,1-2-.77,2.56,2.56,0,0,0,1.36-2.38,1.86,1.86,0,0,0-2-1.89,2.42,2.42,0,0,0-2.1,1.33v-.28a4.85,4.85,0,0,1,4.55-3.78A3.55,3.55,0,0,1,164.27,99.24Z"/><path class="cls-3" d="M174.87,95.67c-2.06.25-2.76,2-2.76,8.82,0,6.58.7,8.75,2.76,9v.21a8.92,8.92,0,0,1-8.71-9.17,8.77,8.77,0,0,1,8.71-9ZM185,104.49a8.92,8.92,0,0,1-8.69,9.17v-.21c2.07-.21,2.73-2.41,2.73-9,0-6.86-.7-8.61-2.73-8.82v-.21A8.73,8.73,0,0,1,185,104.49Z"/><path class="cls-3" d="M195.66,111.32c0,.87.53,1.78,2.63,1.78v.21h-11v-.21c2.1,0,2.63-.91,2.63-1.78V98.89c0-1.26-.6-1.85-2.59-1.85v-.21a21.3,21.3,0,0,0,8.36-1.37Zm11.63-10.92v10.92c0,.87.49,1.78,2.58,1.78v.21h-11v-.21c2.07,0,2.63-.91,2.63-1.78V100.4c0-2-.77-3-2.45-3a3.07,3.07,0,0,0-2.31,1v-.21a5.65,5.65,0,0,1,5.11-2.8C205.18,95.46,207.29,96.93,207.29,100.4Zm11.58,0v10.92c0,.87.53,1.78,2.63,1.78v.21h-11v-.21c2.07,0,2.63-.91,2.63-1.78V100.4c0-2-.77-3-2.45-3a3.11,3.11,0,0,0-2.32,1v-.21a5.68,5.68,0,0,1,5.12-2.8C216.77,95.46,218.87,96.93,218.87,100.4Z"/><path class="cls-3" d="M21.92,136.25A1.88,1.88,0,0,0,20,135v-.21h9.8V135c-1.22,0-1.71.84-1.12,2.07l4.59,9.55-3,5.67h-.21ZM20.38,158c0-1.51,1.2-2.77,3.08-3.29a2.74,2.74,0,0,0-.13.87,2,2,0,0,0,2.06,2.35c1.23,0,2.21-1.3,3.54-3.54h.24c-1.92,3.61-3.25,6.72-5.71,6.72A2.91,2.91,0,0,1,20.38,158Zm14.36-14.74a9.64,9.64,0,0,0,1-4.51A3.39,3.39,0,0,0,32.15,135v-.21h8.71V135c-1.15,0-1.61.46-2.27,1.65L35,143.53Z"/><path class="cls-3" d="M49.75,134.67c-2.06.25-2.76,2-2.76,8.82,0,6.58.7,8.75,2.76,9v.21A8.93,8.93,0,0,1,41,143.49a8.78,8.78,0,0,1,8.72-9Zm10.08,8.82a8.91,8.91,0,0,1-8.68,9.17v-.21c2.07-.21,2.73-2.41,2.73-9,0-6.86-.7-8.61-2.73-8.82v-.21A8.72,8.72,0,0,1,59.83,143.49Z"/><path class="cls-3" d="M70.16,147.73c0,2,.66,3,2.41,3A3.11,3.11,0,0,0,75,149.62v.21a5.85,5.85,0,0,1-5.43,2.83c-3.15,0-5.18-1.47-5.18-4.93v-9.84c0-1.26-.59-1.85-2.59-1.85v-.21a21.39,21.39,0,0,0,8.37-1.37ZM81.81,150c0,1,.32,1.43,1,1.43s1.12-.52,1.68-1.57h.21c-.56,1.92-2.45,2.83-4.76,2.83S76,151.26,76,149.23V137.89c0-1.26-.6-1.85-2.49-1.85v-.21a22.65,22.65,0,0,0,8.26-1.37Z"/><path class="cls-3" d="M94.45,150.32c0,.87.52,1.78,2.62,1.78v.21H86v-.21c2.1,0,2.63-.91,2.63-1.78V137.89c0-1.26-.6-1.85-2.59-1.85v-.21a21.39,21.39,0,0,0,8.37-1.37Zm9.45-12.08a3.75,3.75,0,0,1-3.61,4,2.37,2.37,0,0,1-2-.77,2.56,2.56,0,0,0,1.36-2.38,1.86,1.86,0,0,0-2-1.89,2.42,2.42,0,0,0-2.1,1.33v-.28a4.85,4.85,0,0,1,4.55-3.78A3.55,3.55,0,0,1,103.9,138.24Z"/><path class="cls-3" d="M121.15,147.9c0,3.33-2.28,4.76-5.78,4.76V130c0-1.26-.63-1.86-2.62-1.86V128a23.26,23.26,0,0,0,8.4-1.36Zm13.34-4.51c0,7.31-3.89,9.27-7.21,9.27a6.5,6.5,0,0,1-5.08-2.83v-.21a4.86,4.86,0,0,0,2.91,1.22c1.64,0,3.43-1.15,3.43-7.45s-1.68-7.14-3.43-7.14a3.87,3.87,0,0,0-2.91,1.29v-.28a6.47,6.47,0,0,1,5.08-2.8C130.67,134.46,134.49,136.42,134.49,143.39Z"/><path class="cls-3" d="M145.33,150.32c0,.87.53,1.78,2.63,1.78v.21h-11v-.21c2.1,0,2.63-.91,2.63-1.78V137.89c0-1.26-.6-1.85-2.59-1.85v-.21a21.3,21.3,0,0,0,8.36-1.37Zm9.46-12.08a3.75,3.75,0,0,1-3.61,4,2.37,2.37,0,0,1-2-.77,2.56,2.56,0,0,0,1.36-2.38,1.86,1.86,0,0,0-2-1.89,2.42,2.42,0,0,0-2.1,1.33v-.28a4.85,4.85,0,0,1,4.55-3.78A3.55,3.55,0,0,1,154.79,138.24Z"/><path class="cls-3" d="M165.39,134.67c-2.06.25-2.77,2-2.77,8.82,0,6.58.71,8.75,2.77,9v.21a8.92,8.92,0,0,1-8.72-9.17,8.78,8.78,0,0,1,8.72-9Zm10.08,8.82a8.91,8.91,0,0,1-8.68,9.17v-.21c2.07-.21,2.73-2.41,2.73-9,0-6.86-.7-8.61-2.73-8.82v-.21A8.72,8.72,0,0,1,175.47,143.49Z"/><path class="cls-3" d="M188.59,152.1v.21h-11v-.21c2.1,0,2.62-.91,2.62-1.78V130c0-1.26-.59-1.86-2.59-1.86V128a21.54,21.54,0,0,0,8.37-1.36v23.73C186,151.19,186.49,152.1,188.59,152.1Zm11.87,0v.21a13.81,13.81,0,0,1-3.5.35,6.61,6.61,0,0,1-6.34-3.39l-3.29-5.5c2.77-2.41,5.36-5.35,5.36-7.14,0-.94-.45-1.61-2.07-1.61v-.21h9V135a3.15,3.15,0,0,0-2,.63l-6.41,5.08,6.06,9.38A3.61,3.61,0,0,0,200.46,152.1Z"/><path class="cls-3" d="M200.67,143.49a8.67,8.67,0,0,1,8.57-9v.21c-2.06.25-2.62,2-2.62,8.68,0,5,2.24,7.81,5.35,7.81a7.58,7.58,0,0,0,5.11-1.86v.21c-1.82,2.31-5.14,3.15-7.42,3.15A8.87,8.87,0,0,1,200.67,143.49Zm7.87-1.47c3.08,0,4.38-1,4.38-3.92,0-1.68-.7-3.22-2.28-3.43v-.21c4.62,0,6.86,3.29,6.86,5.95a9.85,9.85,0,0,1-.17,1.82h-8.79Z"/><path class="cls-3" d="M228.14,150.32c0,.87.53,1.78,2.63,1.78v.21h-11v-.21c2.1,0,2.63-.91,2.63-1.78V137.89c0-1.26-.6-1.85-2.59-1.85v-.21a21.3,21.3,0,0,0,8.36-1.37Zm9.46-12.08a3.75,3.75,0,0,1-3.61,4,2.37,2.37,0,0,1-2-.77,2.56,2.56,0,0,0,1.36-2.38,1.86,1.86,0,0,0-2-1.89,2.41,2.41,0,0,0-2.1,1.33v-.28a4.84,4.84,0,0,1,4.55-3.78A3.56,3.56,0,0,1,237.6,138.24Z"/></g></svg>