<?xml version="1.0" encoding="utf-8"?>
<!-- Generator: Adobe Illustrator 24.0.3, SVG Export Plug-In . SVG Version: 6.00 Build 0)  -->
<svg version="1.1" id="Layer_1" xmlns="http://www.w3.org/2000/svg" xmlns:xlink="http://www.w3.org/1999/xlink" x="0px" y="0px"
	 viewBox="0 0 300 600" style="enable-background:new 0 0 300 600;" xml:space="preserve">
<style type="text/css">
	.st0{clip-path:url(#SVGID_2_);}
	.st1{enable-background:new    ;}
	.st2{fill:#263845;}
</style>
<title>Artboard 1 copy 3</title>
<g>
	<defs>
		<rect id="SVGID_1_" y="0" width="300" height="600"/>
	</defs>
	<clipPath id="SVGID_2_">
		<use xlink:href="#SVGID_1_"  style="overflow:visible;"/>
	</clipPath>
	<g class="st0">
		<g class="st1">
			<path class="st2" d="M36.1,45.8V46c-3,0.4-5,3.3-5,13.9c0,10.6,2.1,14,5,14.4v0.2c-5.9-0.3-13.1-4.7-13.1-14.4
				C23.1,50.8,30.6,46.1,36.1,45.8z M38.1,46v-0.2c4.2,0.2,6.6,0.8,8.4,1.9l1.3-1.9h0.3v10h-0.3C46.7,50.9,43,47,38.1,46z M52,62.3
				v0.2c-1.9,0-3,0.7-3,2.4v9.5h-0.3L47.2,72c-2.1,1.5-4.9,2.3-9,2.5v-0.2c2.8-0.2,4.4-1.7,4.4-5V65c0-1.7-0.7-2.4-3.1-2.4v-0.2H52z
				"/>
			<path class="st2" d="M64.8,53.4c-2.4,0.3-3.2,2.3-3.2,10.3c0,7.7,0.8,10.3,3.2,10.5v0.2c-4.7,0-10.2-3.9-10.2-10.8
				S60,53.2,64.8,53.1V53.4z M76.6,63.7c0,6.9-5.5,10.8-10.2,10.8v-0.2c2.4-0.2,3.2-2.8,3.2-10.5c0-8-0.8-10.1-3.2-10.3v-0.2
				C71.2,53.1,76.6,56.8,76.6,63.7z"/>
			<path class="st2" d="M95.2,70.9v0.2c-1.3,1.9-3.9,3.3-7,3.3c-3.7,0-6.3-1.7-6.3-5.8V55.2h-2.1l0.5-0.6h1.7v-4.4
				c2.5,0,5-0.8,6.7-2.3v6.7h5.5l-0.5,0.6h-5.1v13.6c0,2.1,0.8,4.2,2.7,4.2C92.5,73,93.9,72.3,95.2,70.9z"/>
			<path class="st2" d="M107,69.2c0-3.6,3.3-5.6,7.9-5.6h4.4v0.2h-1.2c-3,0-4.4,1.9-4.4,4.5c0,2.3,0.7,4,2.6,4c1.1,0,2.1-0.6,3-1.4
				v0.2c-1.4,1.6-3.5,3.3-6.5,3.3C109.3,74.5,106.9,72.5,107,69.2z M108.6,57.6c0-2.1,1.9-4.2,7.5-4.5v0.2c-1.6,0.2-2.6,1.6-2.6,3
				c0,1.5,1,2.4,2.7,2.5c-0.6,1.1-2.3,2-3.9,2C109.9,60.9,108.6,59.3,108.6,57.6z M120.5,69.9V57.3c0-2-0.8-3.6-2.8-3.9v-0.2
				c6.8,0.2,9.5,2.8,9.5,8.2v10c0,1.2,0.4,1.7,1.1,1.7c0.6,0,1.3-0.6,2-1.8h0.2c-0.7,2.3-2.9,3.3-5.3,3.3
				C122,74.5,120.5,73.4,120.5,69.9z"/>
		</g>
		<g class="st1">
			<path class="st2" d="M29.9,110.3c-1.4,0-2.3,0.8-2.3,2.1c0,1.2,0.8,2.7,3.7,3v0.2c-5.5-0.2-8.5-1.7-8.5-4.1c0-1.9,1.6-3,3.5-3
				C28,108.5,29.3,109.2,29.9,110.3z M31.3,94.5c-1.5,0.3-3,1.1-3,2.8c0.1,4.8,13.4,5.5,13.4,12.1c0,4-3.4,6.1-8.7,6.3v-0.2
				c1.7-0.3,3.7-0.9,3.7-3c0-4.3-13.5-5.8-13.5-12.1c0-3.6,3.4-5.8,8-6V94.5z M41,98.4c0,1.3-1,2.5-3,2.5c-1.7,0-3-0.7-3.5-2
				c1.2-0.1,1.9-0.9,1.8-1.9c0-1.2-1.6-2.4-3.2-2.6v-0.2C37.8,94.5,41,96.1,41,98.4z"/>
			<path class="st2" d="M54,121.4c0,1.5,0.7,2.2,3,2.2v0.2c-3.8,0-6.4,0.4-9.8,1.6V98.2c0-1.5-0.7-2.2-3-2.2v-0.2
				c3.8,0,6.4-0.4,9.8-1.6V121.4z M69.6,104.7c0,8.6-4.5,10.9-8.4,10.9c-2.3,0-5-1.6-6-3.3V112c1,0.8,2.1,1.4,3.4,1.4
				c1.9,0,4-1.4,4-8.7c0-7.4-1.9-8.4-4-8.4c-1.3,0-2.5,0.5-3.4,1.5v-0.3c1-1.7,3.7-3.3,6-3.3C65.2,94.2,69.6,96.5,69.6,104.7z"/>
			<path class="st2" d="M73.2,104.8c0-6.9,5.3-10.6,10.1-10.6v0.2c-2.4,0.3-3.1,2.3-3.1,10.2c0,5.9,2.6,9.2,6.3,9.2
				c2.3,0,4.1-0.7,6-2.2v0.2c-2.1,2.7-6,3.7-8.7,3.7C78.5,115.6,73.2,111.7,73.2,104.8z M82.5,103.1c3.6,0,5.1-1.1,5.1-4.6
				c0-2-0.8-3.8-2.7-4v-0.2c5.4,0,8,3.9,8,7c0,0.7-0.1,1.5-0.2,2.1H82.5V103.1z"/>
			<path class="st2" d="M106.9,94.5c-2.4,0.3-3.5,2.3-3.5,10.2c0,5.9,3,9.2,6.7,9.2c2.3,0,4.1-0.7,6-2.2v0.2c-2.1,2.7-6,3.7-8.7,3.7
				c-5.3,0-11-3.9-11-10.8s5.7-10.6,10.5-10.6V94.5z M116,98.8c0,2.2-1.5,3.9-4.1,3.9c-2,0-3.3-1.3-3.6-2.6c1.1-0.5,2-1.9,2-3
				c0-0.9-0.2-2.4-1.8-2.7v-0.3C113.9,94.2,116,96.5,116,98.8z"/>
			<path class="st2" d="M118.4,95.8c3.8,0,6.9-0.4,9.8-1.6v18.6c0,1,0.6,2.1,3.1,2.1v0.2h-12.9v-0.2c2.5,0,3.1-1.1,3.1-2.1V98.2
				c0-1.5-0.7-2.2-3-2.2V95.8z M120.5,88c0-2.1,1.7-3.6,4.2-3.6c2.5,0,4.2,1.4,4.2,3.6c0,2.2-1.7,3.6-4.2,3.6
				C122.2,91.7,120.5,90.2,120.5,88z"/>
			<path class="st2" d="M133.3,110.3c0-3.6,3.3-5.6,7.9-5.6h4.4v0.2h-1.2c-3,0-4.4,1.9-4.4,4.5c0,2.3,0.7,4,2.6,4
				c1.1,0,2.1-0.6,3-1.4v0.2c-1.4,1.6-3.5,3.3-6.5,3.3C135.6,115.6,133.3,113.6,133.3,110.3z M135,98.7c0-2.1,1.9-4.2,7.5-4.5v0.2
				c-1.6,0.2-2.6,1.6-2.6,3c0,1.5,1,2.4,2.7,2.5c-0.6,1.1-2.3,2-3.9,2C136.3,101.9,135,100.4,135,98.7z M146.9,110.9V98.4
				c0-2-0.8-3.6-2.8-3.9v-0.2c6.8,0.2,9.5,2.8,9.5,8.2v10c0,1.2,0.4,1.7,1.1,1.7c0.6,0,1.3-0.6,2-1.8h0.2c-0.7,2.3-2.9,3.3-5.3,3.3
				C148.4,115.6,146.9,114.4,146.9,110.9z"/>
			<path class="st2" d="M158.1,86.6c3.8,0,6.9-0.4,9.8-1.6v27.8c0,1,0.6,2.1,3.1,2.1v0.2H158v-0.2c2.5,0,3.1-1.1,3.1-2.1V89
				c0-1.5-0.7-2.2-3-2.2V86.6z"/>
		</g>
		<g class="st1">
			<path class="st2" d="M23,137.4c-0.4-0.9-1-1.4-2.3-1.4v-0.2h11.5v0.2c-1.4,0-2,1-1.3,2.4l5.4,11.2l-3.5,6.7h-0.2L23,137.4z
				 M38,145.5c0.7-1.3,1.1-3.1,1.1-5.3c0-2.3-1.3-4.3-4.2-4.3v-0.2h10.2v0.2c-1.4,0-1.9,0.5-2.7,1.9l-4.3,8L38,145.5z"/>
		</g>
		<g class="st1">
			<path class="st2" d="M45.6,145.9c0-6.9,5.3-10.6,10.1-10.6v0.2c-2.4,0.3-3.1,2.3-3.1,10.2c0,5.9,2.6,9.2,6.3,9.2
				c2.3,0,4.1-0.7,6-2.2v0.2c-2.1,2.7-6,3.7-8.7,3.7C50.9,156.6,45.6,152.8,45.6,145.9z M54.8,144.1c3.6,0,5.1-1.1,5.1-4.6
				c0-2-0.8-3.8-2.7-4v-0.2c5.4,0,8,3.9,8,7c0,0.7-0.1,1.5-0.2,2.1H54.8V144.1z"/>
			<path class="st2" d="M77.5,153.9c0,1,0.6,2.1,3.1,2.1v0.2H67.7V156c2.5,0,3.1-1.1,3.1-2.1v-23.8c0-1.5-0.7-2.2-3-2.2v-0.2
				c3.8,0,6.9-0.4,9.8-1.6V153.9z M91.9,141.1v12.8c0,1,0.6,2.1,3.1,2.1v0.2H82.1V156c2.4,0,3-1.1,3-2.1v-12.8
				c0-2.3-1.2-3.5-3.2-3.5c-1.1,0-2.1,0.4-3.1,1.3v-0.2c1.1-1.7,3.8-3.3,6.8-3.3C89.3,135.3,91.9,137,91.9,141.1z"/>
			<path class="st2" d="M96.6,136.8c3.8,0,6.9-0.4,9.8-1.6v18.6c0,1,0.6,2.1,3.1,2.1v0.2H96.5V156c2.5,0,3.1-1.1,3.1-2.1v-14.6
				c0-1.5-0.7-2.2-3-2.2V136.8z M98.6,129.1c0-2.1,1.7-3.6,4.2-3.6c2.5,0,4.2,1.4,4.2,3.6c0,2.2-1.7,3.6-4.2,3.6
				C100.4,132.7,98.6,131.3,98.6,129.1z"/>
			<path class="st2" d="M122.4,135.5c-2.4,0.3-3.5,2.3-3.5,10.2c0,5.9,3,9.2,6.7,9.2c2.3,0,4.1-0.7,6-2.2v0.2
				c-2.1,2.7-6,3.7-8.7,3.7c-5.3,0-11-3.9-11-10.8s5.7-10.6,10.5-10.6V135.5z M131.5,139.9c0,2.2-1.5,3.9-4.1,3.9
				c-2,0-3.3-1.3-3.6-2.6c1.1-0.5,2-1.9,2-3c0-0.9-0.2-2.4-1.8-2.7v-0.3C129.4,135.3,131.5,137.6,131.5,139.9z"/>
			<path class="st2" d="M133.7,127.6c3.8,0,6.9-0.4,9.8-1.6v27.8c0,1,0.6,2.1,3.1,2.1v0.2h-12.9V156c2.5,0,3.1-1.1,3.1-2.1v-23.8
				c0-1.5-0.7-2.2-3-2.2V127.6z"/>
			<path class="st2" d="M149,145.9c0-6.9,5.3-10.6,10.1-10.6v0.2c-2.4,0.3-3.1,2.3-3.1,10.2c0,5.9,2.6,9.2,6.3,9.2
				c2.3,0,4.1-0.7,6-2.2v0.2c-2.1,2.7-6,3.7-8.7,3.7C154.3,156.6,149,152.8,149,145.9z M158.3,144.1c3.6,0,5.1-1.1,5.1-4.6
				c0-2-0.8-3.8-2.7-4v-0.2c5.4,0,8,3.9,8,7c0,0.7-0.1,1.5-0.2,2.1h-10.3V144.1z"/>
			<path class="st2" d="M171.7,133.4c0-3.7,4.9-5.4,8.7-5.5v0.2c-2,0.6-2.9,2.3-2.9,4c0,1.5,0.6,2.8,2.3,3.5c-0.7,1-2.1,1.6-3.8,1.6
				C173.8,137.3,171.7,136.1,171.7,133.4z M177.7,155.2c0-2.3,1.8-3.7,4.4-3.7s4.4,1.5,4.4,3.7c0,2.3-1.8,3.8-4.4,3.8
				S177.7,157.5,177.7,155.2z M178.8,143.7c0-4.6,6.5-6,6.5-11.2c0-2.2-0.8-3.6-3-4.4v-0.2c5.7,0.4,9.9,2.2,9.9,6.8
				c0,5.6-8.9,7.4-8.9,11c0,1.1,0.4,1.8,1.5,2.4l0,0.2C180.8,148.2,178.8,146.2,178.8,143.7z"/>
		</g>
	</g>
</g>
</svg>
