<svg id="Layer_1" data-name="Layer 1" xmlns="http://www.w3.org/2000/svg" xmlns:xlink="http://www.w3.org/1999/xlink" viewBox="0 0 300 600"><defs><style>.cls-1{fill:none;}.cls-2{clip-path:url(#clip-path);}.cls-3{fill:#fff;}</style><clipPath id="clip-path"><polyline class="cls-1" points="300 600 0 600 0 0 300 0"/></clipPath></defs><title>Artboard 1 copy 2</title><g class="cls-2"><path class="cls-3" d="M30.4,74.45v.21A13.31,13.31,0,0,1,23.6,73l-1.15,1.71h-.28V66.12h.28A11.71,11.71,0,0,0,30.4,74.45Zm10.29-7c0,4.51-3.36,7-8.79,7.17v-.21c1.93-.35,3.82-1.47,3.82-3.57,0-6.12-13.37-6.68-13.37-13.79,0-4.2,3.39-6.61,8-6.93v.21c-1.61.28-3.09,1.3-3.09,3.22C27.31,59.72,40.69,60.38,40.69,67.49ZM31.9,50.37v-.21A11.28,11.28,0,0,1,38.2,52l1.26-1.86h.28V58h-.28A11.14,11.14,0,0,0,31.9,50.37Z"/><path class="cls-3" d="M56.65,71.62v.21a7.32,7.32,0,0,1-6,2.83c-3.15,0-5.39-1.43-5.39-4.93V58.25H43.45l.38-.53h1.44V53.94A8.82,8.82,0,0,0,51,52v5.74h4.73l-.39.53H51V69.83c0,1.75.67,3.57,2.31,3.57A5.2,5.2,0,0,0,56.65,71.62Z"/><path class="cls-3" d="M57.76,70.18c0-3,2.8-4.76,6.72-4.76h3.78v.21h-1a3.47,3.47,0,0,0-3.72,3.82c0,1.92.56,3.39,2.21,3.39a3.8,3.8,0,0,0,2.55-1.22v.21a7.41,7.41,0,0,1-5.56,2.83C59.72,74.66,57.73,73,57.76,70.18Zm1.4-9.9c0-1.79,1.61-3.61,6.37-3.82v.21a2.57,2.57,0,0,0-2.24,2.56c0,1.26.88,2,2.28,2.13A3.94,3.94,0,0,1,62.21,63,2.8,2.8,0,0,1,59.16,60.28ZM69.31,70.71V60c0-1.72-.66-3.08-2.38-3.33v-.21c5.82.21,8.13,2.42,8.13,7V72c0,1,.35,1.43,1,1.43s1.12-.52,1.68-1.57h.21c-.56,1.92-2.45,2.83-4.55,2.83C70.58,74.66,69.31,73.68,69.31,70.71Z"/><path class="cls-3" d="M87.41,72.32c0,.87.52,1.78,2.62,1.78v.21H79V74.1c2.1,0,2.62-.91,2.62-1.78V59.89C81.63,58.63,81,58,79,58v-.21a21.36,21.36,0,0,0,8.37-1.37Zm9.45-12.08a3.74,3.74,0,0,1-3.6,4,2.38,2.38,0,0,1-2-.77,2.54,2.54,0,0,0,1.36-2.38,1.86,1.86,0,0,0-2-1.89,2.42,2.42,0,0,0-2.1,1.33v-.28a4.85,4.85,0,0,1,4.55-3.78A3.55,3.55,0,0,1,96.86,60.24Z"/><path class="cls-3" d="M21.5,113.31v-.21c2.1,0,2.63-.8,2.63-1.78V91.54c0-1-.53-1.82-2.63-1.82v-.21h8.58v23.8Zm19.57-23.8V96h-.28c-1.5-4.41-3.64-5.92-9-6.27v-.21ZM31.83,101.1v-.21l1.93-.18a5.38,5.38,0,0,0,4.62-3h.28v6.51h-.28a5.35,5.35,0,0,0-4.62-2.94Zm0,12c5.32-.35,7.81-1.85,9.7-6.26h.28v6.47h-10Z"/><path class="cls-3" d="M44.39,113.1c2.1,0,2.63-.91,2.63-1.78V98.89c0-1.26-.6-1.85-2.59-1.85v-.21a21.39,21.39,0,0,0,8.37-1.37v15.86c0,.87.52,1.78,2.62,1.78v.21h-11Zm12.33,0c2.06,0,2.59-.91,2.59-1.78V100.4c0-2-1-3-2.77-3a3.74,3.74,0,0,0-2.66,1.09V98.3a7.16,7.16,0,0,1,5.81-2.84c3.15,0,5.39,1.47,5.39,4.94v10.92c0,.87.53,1.78,2.63,1.78v.21h-11Z"/><path class="cls-3" d="M82.55,110.62v.21a7.34,7.34,0,0,1-6,2.83c-3.15,0-5.39-1.43-5.39-4.93V97.25H69.35l.38-.53h1.44V92.94a8.84,8.84,0,0,0,5.74-2v5.74h4.73l-.39.53H76.91v11.58c0,1.75.66,3.57,2.31,3.57A5.2,5.2,0,0,0,82.55,110.62Z"/><path class="cls-3" d="M91.57,111.32c0,.87.53,1.78,2.63,1.78v.21h-11v-.21c2.1,0,2.63-.91,2.63-1.78V91c0-1.26-.6-1.86-2.59-1.86V89a21.49,21.49,0,0,0,8.36-1.36Zm12.26-10.92v10.92c0,.87.52,1.78,2.62,1.78v.21h-11v-.21c2.06,0,2.59-.91,2.59-1.78V100.4c0-2-1-3-2.77-3a3.74,3.74,0,0,0-2.66,1.09V98.3a7.17,7.17,0,0,1,5.81-2.84C101.59,95.46,103.83,96.93,103.83,100.4Z"/><path class="cls-3" d="M115.72,108.73c0,2,.67,3,2.42,3a3.09,3.09,0,0,0,2.41-1.08v.21a5.83,5.83,0,0,1-5.42,2.83c-3.15,0-5.18-1.47-5.18-4.93V98.89c0-1.26-.6-1.85-2.59-1.85v-.21a21.3,21.3,0,0,0,8.36-1.37ZM127.38,111c0,1,.32,1.43,1,1.43s1.12-.52,1.68-1.57h.21c-.56,1.92-2.45,2.83-4.76,2.83s-3.86-1.4-3.86-3.43V98.89c0-1.26-.59-1.85-2.48-1.85v-.21a22.65,22.65,0,0,0,8.26-1.37Z"/><path class="cls-3" d="M138.33,109.15a1.79,1.79,0,0,0-2,1.75c0,1,.7,2.31,3.12,2.55v.21c-4.66-.17-7.21-1.43-7.21-3.46a2.73,2.73,0,0,1,3-2.59A3.55,3.55,0,0,1,138.33,109.15Zm1.16-13.48c-1.3.25-2.56.91-2.52,2.35.1,4.06,11.44,4.72,11.44,10.29,0,3.39-2.87,5.18-7.38,5.35v-.21c1.47-.24,3.11-.77,3.11-2.59,0-3.64-11.48-5-11.48-10.29,0-3.08,2.91-4.93,6.83-5.11Zm8.26,3.4a2.29,2.29,0,0,1-2.59,2.17,3,3,0,0,1-3-1.68,1.57,1.57,0,0,0,1.58-1.65c0-1-1.33-2.06-2.73-2.24v-.21C145,95.67,147.75,97.11,147.75,99.07Z"/><path class="cls-3" d="M150.79,96.79a21.54,21.54,0,0,0,8.37-1.36v15.89c0,.87.52,1.78,2.62,1.78v.21h-11v-.21c2.1,0,2.62-.91,2.62-1.78V98.86c0-1.26-.59-1.86-2.59-1.86Zm1.79-6.58c0-1.82,1.47-3,3.57-3s3.57,1.22,3.57,3-1.47,3.08-3.57,3.08S152.58,92.07,152.58,90.21Z"/><path class="cls-3" d="M163.53,109.18c0-3,2.8-4.76,6.72-4.76H174v.21H173c-2.52,0-3.71,1.65-3.71,3.82,0,1.92.56,3.39,2.21,3.39a3.82,3.82,0,0,0,2.55-1.22v.21a7.43,7.43,0,0,1-5.56,2.83C165.49,113.66,163.5,112,163.53,109.18Zm1.4-9.9c0-1.79,1.61-3.61,6.37-3.82v.21a2.56,2.56,0,0,0-2.24,2.56c0,1.26.88,2,2.28,2.13A3.94,3.94,0,0,1,168,102,2.8,2.8,0,0,1,164.93,99.28Zm10.15,10.43V99c0-1.72-.66-3.08-2.38-3.33v-.21c5.81.21,8.12,2.42,8.12,7V111c0,1,.35,1.43,1,1.43s1.12-.52,1.68-1.57h.21c-.56,1.92-2.45,2.83-4.55,2.83C176.34,113.66,175.08,112.68,175.08,109.71Z"/><path class="cls-3" d="M191.5,109.15a1.79,1.79,0,0,0-2,1.75c0,1,.7,2.31,3.11,2.55v.21c-4.65-.17-7.21-1.43-7.21-3.46a2.73,2.73,0,0,1,3-2.59A3.56,3.56,0,0,1,191.5,109.15Zm1.15-13.48c-1.29.25-2.55.91-2.52,2.35.11,4.06,11.45,4.72,11.45,10.29,0,3.39-2.87,5.18-7.39,5.35v-.21c1.47-.24,3.12-.77,3.12-2.59,0-3.64-11.48-5-11.48-10.29,0-3.08,2.9-4.93,6.82-5.11Zm8.26,3.4a2.29,2.29,0,0,1-2.59,2.17,3,3,0,0,1-3-1.68,1.55,1.55,0,0,0,1.57-1.65c0-1-1.33-2.06-2.73-2.24v-.21C198.15,95.67,200.91,97.11,200.91,99.07Z"/><path class="cls-3" d="M217.47,110.62v.21a7.32,7.32,0,0,1-6,2.83c-3.15,0-5.39-1.43-5.39-4.93V97.25h-1.82l.39-.53h1.43V92.94a8.8,8.8,0,0,0,5.74-2v5.74h4.73l-.39.53h-4.34v11.58c0,1.75.67,3.57,2.31,3.57A5.2,5.2,0,0,0,217.47,110.62Z"/><path class="cls-3" d="M21.5,152.1c2.1,0,2.63-.84,2.63-1.78V130.51c0-.95-.53-1.79-2.63-1.79v-.21H32.71v.21c-2.1,0-2.63.84-2.63,1.79v19.81c0,.94.53,1.78,2.63,1.78v.21H21.5Z"/><path class="cls-3" d="M35.05,152.1c2.1,0,2.63-.91,2.63-1.78V137.89c0-1.26-.6-1.85-2.6-1.85v-.21a21.32,21.32,0,0,0,8.37-1.37v15.86c0,.87.52,1.78,2.63,1.78v.21h-11Zm12.32,0c2.07,0,2.59-.91,2.59-1.78V139.4c0-2-1-3-2.76-3a3.74,3.74,0,0,0-2.66,1.09v-.21a7.14,7.14,0,0,1,5.81-2.84c3.15,0,5.39,1.47,5.39,4.94v10.92c0,.87.52,1.78,2.62,1.78v.21h-11Z"/><path class="cls-3" d="M66.34,148.15a1.79,1.79,0,0,0-2,1.75c0,1,.7,2.31,3.11,2.55v.21c-4.65-.17-7.21-1.43-7.21-3.46a2.73,2.73,0,0,1,3-2.59A3.56,3.56,0,0,1,66.34,148.15Zm1.15-13.48c-1.29.25-2.55.91-2.52,2.35.11,4.06,11.45,4.72,11.45,10.29,0,3.39-2.87,5.18-7.39,5.35v-.21c1.48-.24,3.12-.77,3.12-2.59,0-3.64-11.48-5-11.48-10.29,0-3.08,2.9-4.93,6.82-5.11Zm8.27,3.4a2.29,2.29,0,0,1-2.59,2.17,3,3,0,0,1-3-1.68,1.55,1.55,0,0,0,1.57-1.65c0-1-1.33-2.06-2.73-2.24v-.21C73,134.67,75.76,136.11,75.76,138.07Z"/><path class="cls-3" d="M86.74,147.73c0,2,.67,3,2.42,3a3.13,3.13,0,0,0,2.42-1.08v.21a5.86,5.86,0,0,1-5.43,2.83c-3.15,0-5.18-1.47-5.18-4.93v-9.84c0-1.26-.6-1.85-2.59-1.85v-.21a21.3,21.3,0,0,0,8.36-1.37ZM98.4,150c0,1,.32,1.43.95,1.43s1.12-.52,1.68-1.57h.21c-.56,1.92-2.45,2.83-4.76,2.83s-3.85-1.4-3.85-3.43V137.89c0-1.26-.6-1.85-2.49-1.85v-.21a22.65,22.65,0,0,0,8.26-1.37Z"/><path class="cls-3" d="M111,150.32c0,.87.53,1.78,2.63,1.78v.21h-11v-.21c2.1,0,2.63-.91,2.63-1.78V137.89c0-1.26-.6-1.85-2.59-1.85v-.21a21.3,21.3,0,0,0,8.36-1.37Zm9.46-12.08a3.75,3.75,0,0,1-3.61,4,2.36,2.36,0,0,1-2-.77,2.56,2.56,0,0,0,1.36-2.38,1.86,1.86,0,0,0-2-1.89,2.41,2.41,0,0,0-2.1,1.33v-.28a4.84,4.84,0,0,1,4.55-3.78A3.55,3.55,0,0,1,120.49,138.24Z"/><path class="cls-3" d="M122,148.18c0-3,2.8-4.76,6.72-4.76h3.78v.21h-1.05c-2.52,0-3.71,1.65-3.71,3.82,0,1.92.56,3.39,2.2,3.39a3.84,3.84,0,0,0,2.56-1.22v.21a7.45,7.45,0,0,1-5.57,2.83C124,152.66,122,151,122,148.18Zm1.4-9.9c0-1.79,1.61-3.61,6.37-3.82v.21a2.56,2.56,0,0,0-2.24,2.56c0,1.26.87,2,2.27,2.13a3.93,3.93,0,0,1-3.36,1.68A2.8,2.8,0,0,1,123.39,138.28Zm10.15,10.43V138c0-1.72-.67-3.08-2.38-3.33v-.21c5.81.21,8.12,2.42,8.12,7V150c0,1,.35,1.43,1,1.43s1.12-.52,1.68-1.57h.21c-.56,1.92-2.45,2.83-4.55,2.83C134.8,152.66,133.54,151.68,133.54,148.71Z"/><path class="cls-3" d="M143.23,152.1c2.1,0,2.63-.91,2.63-1.78V137.89c0-1.26-.6-1.85-2.59-1.85v-.21a21.3,21.3,0,0,0,8.36-1.37v15.86c0,.87.53,1.78,2.63,1.78v.21h-11Zm12.32,0c2.07,0,2.59-.91,2.59-1.78V139.4c0-2-1-3-2.76-3a3.74,3.74,0,0,0-2.66,1.09v-.21a7.14,7.14,0,0,1,5.81-2.84c3.15,0,5.39,1.47,5.39,4.94v10.92c0,.87.53,1.78,2.63,1.78v.21h-11Z"/><path class="cls-3" d="M177.39,134.67c-2.06.25-3,2-3,8.68,0,5,2.55,7.81,5.67,7.81a7.6,7.6,0,0,0,5.11-1.86v.21c-1.82,2.31-5.15,3.15-7.42,3.15a9.15,9.15,0,0,1-9.35-9.17,9,9,0,0,1,9-9Zm7.78,3.75a3.26,3.26,0,0,1-3.51,3.36,3,3,0,0,1-3-2.21A3,3,0,0,0,180.3,137a2.07,2.07,0,0,0-1.51-2.31v-.25C183.38,134.46,185.17,136.42,185.17,138.42Z"/><path class="cls-3" d="M187.79,143.49a8.67,8.67,0,0,1,8.57-9v.21c-2.06.25-2.62,2-2.62,8.68,0,5,2.24,7.81,5.35,7.81a7.58,7.58,0,0,0,5.11-1.86v.21c-1.82,2.31-5.14,3.15-7.42,3.15A8.87,8.87,0,0,1,187.79,143.49Zm7.87-1.47c3.08,0,4.38-1,4.38-3.92,0-1.68-.7-3.22-2.28-3.43v-.21c4.62,0,6.86,3.29,6.86,5.95a10.8,10.8,0,0,1-.17,1.82h-8.79Z"/></g></svg>