<svg id="Layer_1" data-name="Layer 1" xmlns="http://www.w3.org/2000/svg" xmlns:xlink="http://www.w3.org/1999/xlink" viewBox="0 0 300 600"><defs><style>.cls-1{fill:none;}.cls-2{clip-path:url(#clip-path);}.cls-3{fill:#263845;}</style><clipPath id="clip-path"><rect class="cls-1" width="300" height="600"/></clipPath></defs><title>Artboard 1 copy 3</title><g class="cls-2"><path class="cls-3" d="M33.09,49.94v.21C30.57,50.46,28.82,53,28.82,62s1.75,11.93,4.27,12.25v.21c-5-.28-11.13-4-11.13-12.25A12.13,12.13,0,0,1,33.09,49.94Zm1.72.21v-.21c3.6.17,5.6.7,7.17,1.64l1.09-1.64h.28v8.5h-.28A10.79,10.79,0,0,0,34.81,50.15ZM46.67,64v.21c-1.64,0-2.59.63-2.59,2.07v8.12H43.8l-1.26-2.1c-1.75,1.26-4.16,2-7.7,2.1v-.21c2.38-.18,3.75-1.44,3.75-4.27V66.32c0-1.44-.63-2.07-2.63-2.07V64Z"/><path class="cls-3" d="M57.52,56.45c-2.06.24-2.76,2-2.76,8.82,0,6.58.7,8.75,2.76,9v.21a8.92,8.92,0,0,1-8.72-9.17,8.78,8.78,0,0,1,8.72-9ZM67.6,65.27a8.92,8.92,0,0,1-8.68,9.17v-.21c2.07-.21,2.73-2.42,2.73-9,0-6.86-.7-8.61-2.73-8.82v-.21A8.72,8.72,0,0,1,67.6,65.27Z"/><path class="cls-3" d="M83.49,71.39v.21a7.33,7.33,0,0,1-6,2.84c-3.15,0-5.39-1.44-5.39-4.94V58H70.29l.39-.52h1.43V53.72a8.9,8.9,0,0,0,5.75-2V57.5h4.72l-.39.52H77.86V69.61c0,1.75.66,3.57,2.3,3.57A5.13,5.13,0,0,0,83.49,71.39Z"/><path class="cls-3" d="M93.5,70c0-3,2.8-4.76,6.72-4.76H104v.21h-1a3.46,3.46,0,0,0-3.71,3.81c0,1.93.56,3.4,2.2,3.4A3.86,3.86,0,0,0,104,71.39v.21a7.46,7.46,0,0,1-5.57,2.84C95.46,74.44,93.46,72.76,93.5,70Zm1.4-9.91c0-1.78,1.61-3.6,6.37-3.81v.21A2.55,2.55,0,0,0,99,59c0,1.26.87,2,2.27,2.14a3.93,3.93,0,0,1-3.36,1.68A2.81,2.81,0,0,1,94.9,60.05Zm10.15,10.43V59.77c0-1.71-.67-3.08-2.38-3.32v-.21c5.81.21,8.12,2.41,8.12,7v8.5c0,1,.35,1.44,1,1.44s1.12-.53,1.68-1.58h.21c-.56,1.93-2.45,2.84-4.55,2.84C106.31,74.44,105.05,73.46,105.05,70.48Z"/><path class="cls-3" d="M27.84,108.92a1.8,1.8,0,0,0-2,1.75c0,1,.7,2.31,3.12,2.56v.21c-4.66-.18-7.22-1.44-7.22-3.47a2.73,2.73,0,0,1,3-2.59A3.57,3.57,0,0,1,27.84,108.92ZM29,95.45c-1.3.24-2.56.91-2.52,2.34.1,4.06,11.44,4.73,11.44,10.29,0,3.4-2.87,5.18-7.38,5.36v-.21c1.47-.25,3.11-.77,3.11-2.59,0-3.64-11.48-5-11.48-10.29,0-3.08,2.91-4.94,6.83-5.11Zm8.26,3.39c0,1.09-.84,2.17-2.59,2.17a3,3,0,0,1-3-1.68,1.56,1.56,0,0,0,1.58-1.64c0-1-1.33-2.07-2.73-2.24v-.21C34.49,95.45,37.26,96.88,37.26,98.84Z"/><path class="cls-3" d="M48.32,118.41c0,1.26.59,1.85,2.59,1.85v.21a22.85,22.85,0,0,0-8.37,1.37V98.63c0-1.26-.6-1.85-2.59-1.85v-.21a22.92,22.92,0,0,0,8.37-1.37Zm13.33-14.25c0,7.32-3.85,9.28-7.17,9.28a6.58,6.58,0,0,1-5.12-2.84v-.21a4.92,4.92,0,0,0,3,1.23c1.64,0,3.39-1.16,3.39-7.46S54.06,97,52.31,97a3.94,3.94,0,0,0-3,1.3V98a6.55,6.55,0,0,1,5.12-2.8C57.87,95.24,61.65,97.2,61.65,104.16Z"/><path class="cls-3" d="M64.73,104.27a8.66,8.66,0,0,1,8.58-9v.21c-2.07.24-2.63,2-2.63,8.68,0,5,2.24,7.8,5.36,7.8a7.66,7.66,0,0,0,5.11-1.85v.21c-1.82,2.31-5.15,3.15-7.42,3.15A8.87,8.87,0,0,1,64.73,104.27Zm7.88-1.47c3.08,0,4.37-1,4.37-3.92,0-1.68-.7-3.22-2.27-3.43v-.21c4.62,0,6.86,3.29,6.86,6a9.94,9.94,0,0,1-.18,1.82H72.61Z"/><path class="cls-3" d="M93.39,95.45c-2.06.24-3,2-3,8.68,0,5,2.55,7.8,5.67,7.8a7.64,7.64,0,0,0,5.11-1.85v.21c-1.82,2.31-5.14,3.15-7.42,3.15a9.15,9.15,0,0,1-9.35-9.17,9,9,0,0,1,9-9Zm7.78,3.74a3.26,3.26,0,0,1-3.51,3.36,3,3,0,0,1-3-2.2,3,3,0,0,0,1.68-2.56,2.08,2.08,0,0,0-1.51-2.31v-.24C99.38,95.24,101.17,97.2,101.17,99.19Z"/><path class="cls-3" d="M103.23,96.57a21.39,21.39,0,0,0,8.37-1.37v15.89c0,.88.52,1.79,2.62,1.79v.21h-11v-.21c2.1,0,2.63-.91,2.63-1.79V98.63c0-1.26-.6-1.85-2.59-1.85ZM105,90c0-1.83,1.47-3,3.57-3s3.57,1.22,3.57,3-1.46,3.08-3.57,3.08S105,91.84,105,90Z"/><path class="cls-3" d="M116,109c0-3,2.8-4.76,6.72-4.76h3.78v.21h-1a3.46,3.46,0,0,0-3.71,3.81c0,1.93.56,3.4,2.2,3.4a3.86,3.86,0,0,0,2.56-1.23v.21a7.46,7.46,0,0,1-5.57,2.84C117.93,113.44,115.93,111.76,116,109Zm1.4-9.91c0-1.78,1.61-3.6,6.37-3.81v.21A2.55,2.55,0,0,0,121.5,98c0,1.26.87,2,2.27,2.14a3.93,3.93,0,0,1-3.36,1.68A2.81,2.81,0,0,1,117.37,99.05Zm10.15,10.43V98.77c0-1.71-.67-3.08-2.38-3.32v-.21c5.81.21,8.12,2.41,8.12,7v8.5c0,1,.35,1.44,1,1.44s1.12-.53,1.68-1.58h.21c-.56,1.93-2.45,2.84-4.55,2.84C128.78,113.44,127.52,112.46,127.52,109.48Z"/><path class="cls-3" d="M137,88.73a21.49,21.49,0,0,0,8.36-1.37v23.73c0,.88.53,1.79,2.63,1.79v.21H137v-.21c2.1,0,2.63-.91,2.63-1.79V90.79c0-1.26-.6-1.85-2.59-1.85Z"/><path class="cls-3" d="M21.93,136A1.92,1.92,0,0,0,20,134.8v-.21h9.8v.21c-1.22,0-1.71.84-1.12,2.06l4.59,9.56-3,5.67h-.21Zm12.81,7a9.68,9.68,0,0,0,1-4.52,3.38,3.38,0,0,0-3.57-3.67v-.21h8.71v.21c-1.15,0-1.61.45-2.27,1.64L35,143.3Z"/><path class="cls-3" d="M41.14,143.27a8.66,8.66,0,0,1,8.58-9v.21c-2.07.24-2.63,2-2.63,8.68,0,5,2.24,7.8,5.36,7.8a7.66,7.66,0,0,0,5.11-1.85v.21c-1.82,2.31-5.15,3.15-7.42,3.15A8.87,8.87,0,0,1,41.14,143.27ZM49,141.8c3.08,0,4.37-1,4.37-3.92,0-1.68-.7-3.22-2.27-3.43v-.21c4.62,0,6.86,3.29,6.86,5.95A9.94,9.94,0,0,1,57.8,142H49Z"/><path class="cls-3" d="M68.41,150.09c0,.88.52,1.79,2.62,1.79v.21H60v-.21c2.11,0,2.63-.91,2.63-1.79v-20.3c0-1.26-.6-1.85-2.59-1.85v-.21a21.54,21.54,0,0,0,8.37-1.37Zm12.25-10.92v10.92c0,.88.52,1.79,2.62,1.79v.21h-11v-.21c2.07,0,2.59-.91,2.59-1.79V139.17c0-2-1-3-2.76-3a3.72,3.72,0,0,0-2.66,1.08v-.21a7.14,7.14,0,0,1,5.81-2.83C78.42,134.24,80.66,135.71,80.66,139.17Z"/><path class="cls-3" d="M84.61,135.57A21.39,21.39,0,0,0,93,134.2v15.89c0,.88.52,1.79,2.62,1.79v.21h-11v-.21c2.1,0,2.63-.91,2.63-1.79V137.63c0-1.26-.6-1.85-2.59-1.85ZM86.39,129c0-1.83,1.47-3.05,3.57-3.05s3.57,1.22,3.57,3.05-1.46,3.08-3.57,3.08S86.39,130.84,86.39,129Z"/><path class="cls-3" d="M106.66,134.45c-2.06.24-3,2-3,8.68,0,5,2.55,7.8,5.67,7.8a7.66,7.66,0,0,0,5.11-1.85v.21c-1.82,2.31-5.15,3.15-7.42,3.15a9.15,9.15,0,0,1-9.35-9.17,9,9,0,0,1,9-9Zm7.77,3.74a3.25,3.25,0,0,1-3.5,3.36,3,3,0,0,1-3-2.2,3,3,0,0,0,1.68-2.56,2.08,2.08,0,0,0-1.51-2.31v-.24C112.65,134.24,114.43,136.2,114.43,138.19Z"/><path class="cls-3" d="M116.25,127.73a21.49,21.49,0,0,0,8.36-1.37v23.73c0,.88.53,1.79,2.63,1.79v.21h-11v-.21c2.1,0,2.63-.91,2.63-1.79v-20.3c0-1.26-.6-1.85-2.59-1.85Z"/><path class="cls-3" d="M129.34,143.27a8.66,8.66,0,0,1,8.57-9v.21c-2.06.24-2.62,2-2.62,8.68,0,5,2.24,7.8,5.36,7.8a7.66,7.66,0,0,0,5.11-1.85v.21c-1.82,2.31-5.15,3.15-7.43,3.15A8.87,8.87,0,0,1,129.34,143.27Zm7.87-1.47c3.09,0,4.38-1,4.38-3.92,0-1.68-.7-3.22-2.27-3.43v-.21c4.62,0,6.86,3.29,6.86,5.95A9.94,9.94,0,0,1,146,142h-8.79Z"/><path class="cls-3" d="M148.66,132.66c0-3.11,4.2-4.62,7.38-4.72v.21a3.46,3.46,0,0,0-2.48,3.39,3,3,0,0,0,2,3,3.86,3.86,0,0,1-3.22,1.4C150.48,136,148.66,134.94,148.66,132.66Zm5.14,18.59c0-1.93,1.54-3.19,3.75-3.19s3.74,1.26,3.74,3.19-1.54,3.22-3.74,3.22S153.8,153.21,153.8,151.25Zm.95-9.84c0-3.92,5.56-5.07,5.56-9.55a3.44,3.44,0,0,0-2.52-3.71v-.21c4.83.31,8.48,1.89,8.48,5.77,0,4.76-7.6,6.27-7.6,9.35a2.07,2.07,0,0,0,1.26,2l0,.21C156.39,145.3,154.75,143.55,154.75,141.41Z"/></g><rect class="cls-1" width="300" height="600"/></svg>