<?xml version="1.0" encoding="utf-8"?>
<!-- Generator: Adobe Illustrator 24.0.3, SVG Export Plug-In . SVG Version: 6.00 Build 0)  -->
<svg version="1.1" id="Layer_1" xmlns="http://www.w3.org/2000/svg" xmlns:xlink="http://www.w3.org/1999/xlink" x="0px" y="0px"
	 viewBox="0 0 300 600" style="enable-background:new 0 0 300 600;" xml:space="preserve">
<style type="text/css">
	.st0{clip-path:url(#SVGID_2_);}
	.st1{enable-background:new    ;}
	.st2{fill:#FFFFFF;}
</style>
<title>Artboard 1 copy 4</title>
<g>
	<defs>
		<rect id="SVGID_1_" y="0" width="300" height="600"/>
	</defs>
	<clipPath id="SVGID_2_">
		<use xlink:href="#SVGID_1_"  style="overflow:visible;"/>
	</clipPath>
	<g class="st0">
		<g class="st1">
			<path class="st2" d="M35.7,46v0.2c-3,0.4-5,3.3-5,13.9c0,10.6,2.1,14,5,14.4v0.2c-5.9-0.3-13.1-4.7-13.1-14.4
				C22.6,51.1,30.2,46.3,35.7,46z M37.7,46.2V46c4.2,0.2,6.6,0.8,8.4,1.9l1.3-1.9h0.3v10h-0.3C46.3,51.1,42.6,47.2,37.7,46.2z
				 M51.6,62.5v0.2c-1.9,0-3,0.7-3,2.4v9.5h-0.3l-1.5-2.5c-2.1,1.5-4.9,2.3-9,2.5v-0.2c2.8-0.2,4.4-1.7,4.4-5v-4.3
				c0-1.7-0.7-2.4-3.1-2.4v-0.2H51.6z"/>
			<path class="st2" d="M54.1,64c0-6.9,5.3-10.6,10.1-10.6v0.2c-2.4,0.3-3.1,2.3-3.1,10.2c0,5.9,2.6,9.2,6.3,9.2
				c2.3,0,4.1-0.7,6-2.2V71c-2.1,2.7-6,3.7-8.7,3.7C59.4,74.7,54.1,70.9,54.1,64z M63.3,62.2c3.6,0,5.1-1.1,5.1-4.6
				c0-2-0.8-3.8-2.7-4v-0.2c5.4,0,8,3.9,8,7c0,0.7-0.1,1.5-0.2,2.1H63.3V62.2z"/>
			<path class="st2" d="M92.4,71.1v0.2c-1.3,1.9-3.9,3.3-7,3.3c-3.7,0-6.3-1.7-6.3-5.8V55.5h-2.1l0.5-0.6h1.7v-4.4
				c2.5,0,5-0.8,6.7-2.3v6.7h5.5l-0.5,0.6h-5.1v13.6c0,2.1,0.8,4.2,2.7,4.2C89.7,73.2,91.1,72.5,92.4,71.1z"/>
			<path class="st2" d="M104.2,69.5c0-3.6,3.3-5.6,7.9-5.6h4.4v0.2h-1.2c-3,0-4.4,1.9-4.4,4.5c0,2.3,0.7,4,2.6,4
				c1.1,0,2.1-0.6,3-1.4v0.2c-1.4,1.6-3.5,3.3-6.5,3.3C106.5,74.7,104.1,72.7,104.2,69.5z M105.8,57.8c0-2.1,1.9-4.2,7.5-4.5v0.2
				c-1.6,0.2-2.6,1.6-2.6,3c0,1.5,1,2.4,2.7,2.5c-0.6,1.1-2.3,2-3.9,2C107.1,61.1,105.8,59.6,105.8,57.8z M117.7,70.1V57.5
				c0-2-0.8-3.6-2.8-3.9v-0.2c6.8,0.2,9.5,2.8,9.5,8.2v10c0,1.2,0.4,1.7,1.1,1.7c0.6,0,1.3-0.6,2-1.8h0.2c-0.7,2.3-2.9,3.3-5.3,3.3
				C119.2,74.7,117.7,73.6,117.7,70.1z"/>
		</g>
		<g class="st1">
			<path class="st2" d="M36.9,97.7V98c-0.9-1-2.2-1.5-3.4-1.5c-2.1,0-4,0.9-4,8.4c0,7.4,2.1,8.7,4,8.7c1.3,0,2.4-0.7,3.4-1.4v0.2
				c-1,1.7-3.7,3.3-6,3.3c-3.9,0-8.4-2.3-8.4-10.9c0-8.2,4.4-10.5,8.4-10.5C33.3,94.4,35.9,96,36.9,97.7z M44.9,121.6
				c0,1.5,0.7,2.2,3,2.2v0.2c-3.8,0-6.4,0.4-9.8,1.6V95.9c2.1-0.2,4.9-0.8,6.8-1.6V121.6z"/>
			<path class="st2" d="M58.7,110c0,2.3,0.8,3.5,2.8,3.5c1.1,0,1.9-0.3,2.8-1.3v0.2c-0.9,1.8-3,3.3-6.4,3.3c-3.7,0-6.1-1.7-6.1-5.8
				V98.5c0-1.5-0.7-2.2-3-2.2V96c3.8,0,6.9-0.4,9.8-1.6V110z M72.4,112.6c0,1.2,0.4,1.7,1.1,1.7c0.6,0,1.3-0.6,2-1.8h0.2
				c-0.7,2.3-2.9,3.3-5.6,3.3c-2.9,0-4.5-1.6-4.5-4V98.5c0-1.5-0.7-2.2-2.9-2.2V96c3.7,0,6.2-0.4,9.7-1.6V112.6z"/>
			<path class="st2" d="M88.3,94.7C85.9,95,85.1,97,85.1,105c0,7.7,0.8,10.3,3.2,10.5v0.2c-4.7,0-10.2-3.9-10.2-10.8
				s5.4-10.6,10.2-10.6V94.7z M100.1,105c0,6.9-5.5,10.8-10.2,10.8v-0.2c2.4-0.2,3.2-2.8,3.2-10.5c0-8-0.8-10.1-3.2-10.3v-0.2
				C94.7,94.4,100.1,98.1,100.1,105z"/>
		</g>
		<g class="st1">
			<path class="st2" d="M118.8,112.2v0.2c-1.3,1.9-3.9,3.3-7,3.3c-3.7,0-6.3-1.7-6.3-5.8V96.5h-2.1l0.5-0.6h1.7v-4.4
				c2.5,0,5-0.8,6.7-2.3v6.7h5.5l-0.5,0.6h-5.1v13.6c0,2.1,0.8,4.2,2.7,4.2C116,114.3,117.4,113.6,118.8,112.2z"/>
		</g>
		<g class="st1">
			<path class="st2" d="M120.3,105c0-6.9,5.3-10.6,10.1-10.6v0.2c-2.4,0.3-3.1,2.3-3.1,10.2c0,5.9,2.6,9.2,6.3,9.2
				c2.3,0,4.1-0.7,6-2.2v0.2c-2.1,2.7-6,3.7-8.7,3.7C125.6,115.8,120.3,111.9,120.3,105z M129.5,103.3c3.6,0,5.1-1.1,5.1-4.6
				c0-2-0.8-3.8-2.7-4v-0.2c5.4,0,8,3.9,8,7c0,0.7-0.1,1.5-0.2,2.1h-10.3V103.3z"/>
			<path class="st2" d="M167.4,95.9l-0.5,0.6h-4V113c0,1,0.7,2.1,3.1,2.1v0.2h-13v-0.2c2.5,0,3.1-1.1,3.1-2.1V96.5h-2.7l0.5-0.6h2.2
				v-1.8c0-5.8,3-8.3,6.8-8.9v0.2c-1.4,0.5-2.4,1.8-2.4,4.4C160.5,92.2,162.1,95.9,167.4,95.9z M170.9,89.6c0,2.3-1.7,3.6-3.6,3.6
				c-2.2,0-3.5-1.2-4.1-2.8c1.8,0,2.9-1,2.9-2.6c0-1.2-0.6-2.2-1.5-2.4v-0.2C168.9,85.4,170.9,87.3,170.9,89.6z"/>
		</g>
		<g class="st1">
			<path class="st2" d="M178.6,113c0,1,0.6,2.1,3.1,2.1v0.2h-12.9v-0.2c2.5,0,3.1-1.1,3.1-2.1V98.5c0-1.5-0.7-2.2-3-2.2V96
				c3.8,0,6.9-0.4,9.8-1.6V113z M189.7,98.9c0,2.8-2,4.7-4.2,4.7c-1,0-1.8-0.2-2.3-0.9c0.8-0.4,1.6-1.3,1.6-2.8
				c0-1.2-0.9-2.2-2.3-2.2c-1.1,0-1.9,0.6-2.5,1.6v-0.3c0.8-2.6,2.8-4.4,5.3-4.4C188.1,94.4,189.7,96.4,189.7,98.9z"/>
		</g>
		<g class="st1">
			<path class="st2" d="M202.1,94.7c-2.4,0.3-3.2,2.3-3.2,10.3c0,7.7,0.8,10.3,3.2,10.5v0.2c-4.7,0-10.2-3.9-10.2-10.8
				s5.4-10.6,10.2-10.6V94.7z M213.9,105c0,6.9-5.5,10.8-10.2,10.8v-0.2c2.4-0.2,3.2-2.8,3.2-10.5c0-8-0.8-10.1-3.2-10.3v-0.2
				C208.5,94.4,213.9,98.1,213.9,105z"/>
			<path class="st2" d="M226.5,113c0,1,0.6,2.1,3.1,2.1v0.2h-12.9v-0.2c2.5,0,3.1-1.1,3.1-2.1V98.5c0-1.5-0.7-2.2-3-2.2V96
				c3.8,0,6.9-0.4,9.8-1.6V113z M240.1,100.2V113c0,1,0.6,2.1,3,2.1v0.2h-12.9v-0.2c2.4,0,3.1-1.1,3.1-2.1v-12.8
				c0-2.3-0.9-3.5-2.9-3.5c-1.2,0-2.2,0.6-2.7,1.2v-0.2c0.9-1.7,3-3.3,6-3.3C237.7,94.4,240.1,96.2,240.1,100.2z M253.7,100.2V113
				c0,1,0.6,2.1,3.1,2.1v0.2h-12.9v-0.2c2.4,0,3.1-1.1,3.1-2.1v-12.8c0-2.3-0.9-3.5-2.9-3.5c-1.1,0-2.2,0.6-2.7,1.2v-0.2
				c0.9-1.7,3-3.3,6-3.3C251.3,94.4,253.7,96.2,253.7,100.2z"/>
		</g>
		<g class="st1">
			<path class="st2" d="M22.7,137.6c-0.4-0.9-1-1.4-2.3-1.4v-0.2h11.5v0.2c-1.4,0-2,1-1.3,2.4l5.4,11.2l-3.5,6.7h-0.2L22.7,137.6z
				 M20.9,163c0-1.8,1.4-3.2,3.6-3.9c-0.1,0.4-0.2,0.7-0.2,1c0,1.6,0.8,2.8,2.4,2.8c1.4,0,2.6-1.5,4.1-4.1h0.3
				c-2.3,4.2-3.8,7.9-6.7,7.9C22.2,166.7,20.9,165.1,20.9,163z M37.7,145.8c0.7-1.3,1.1-3.1,1.1-5.3c0-2.3-1.3-4.3-4.2-4.3v-0.2
				h10.2v0.2c-1.4,0-1.9,0.5-2.7,1.9l-4.3,8L37.7,145.8z"/>
		</g>
		<g class="st1">
			<path class="st2" d="M55.3,135.7c-2.4,0.3-3.2,2.3-3.2,10.3c0,7.7,0.8,10.3,3.2,10.5v0.2c-4.7,0-10.2-3.9-10.2-10.8
				s5.4-10.6,10.2-10.6V135.7z M67.2,146.1c0,6.9-5.5,10.8-10.2,10.8v-0.2c2.4-0.2,3.2-2.8,3.2-10.5c0-8-0.8-10.1-3.2-10.3v-0.2
				C61.7,135.5,67.2,139.1,67.2,146.1z"/>
			<path class="st2" d="M79.3,151.1c0,2.3,0.8,3.5,2.8,3.5c1.1,0,1.9-0.3,2.8-1.3v0.2c-0.9,1.8-3,3.3-6.4,3.3
				c-3.7,0-6.1-1.7-6.1-5.8v-11.5c0-1.5-0.7-2.2-3-2.2v-0.2c3.8,0,6.9-0.4,9.8-1.6V151.1z M92.9,153.7c0,1.2,0.4,1.7,1.1,1.7
				c0.6,0,1.3-0.6,2-1.8h0.2c-0.7,2.3-2.9,3.3-5.6,3.3c-2.9,0-4.5-1.6-4.5-4v-13.3c0-1.5-0.7-2.2-2.9-2.2v-0.2
				c3.7,0,6.2-0.4,9.7-1.6V153.7z"/>
		</g>
		<g class="st1">
			<path class="st2" d="M107.8,154.1c0,1,0.6,2.1,3.1,2.1v0.2H97.9v-0.2c2.5,0,3.1-1.1,3.1-2.1v-14.6c0-1.5-0.7-2.2-3-2.2v-0.2
				c3.8,0,6.9-0.4,9.8-1.6V154.1z M118.9,139.9c0,2.8-2,4.7-4.2,4.7c-1,0-1.8-0.2-2.3-0.9c0.8-0.4,1.6-1.3,1.6-2.8
				c0-1.2-0.9-2.2-2.3-2.2c-1.1,0-1.9,0.6-2.5,1.6v-0.3c0.8-2.6,2.8-4.4,5.3-4.4C117.3,135.5,118.9,137.5,118.9,139.9z"/>
		</g>
		<g class="st1">
			<path class="st2" d="M139.1,151.3c0,3.9-2.7,5.6-6.8,5.6v-26.6c0-1.5-0.7-2.2-3.1-2.2v-0.2c3.8,0,6.4-0.4,9.9-1.6V151.3z
				 M154.7,146c0,8.6-4.6,10.9-8.5,10.9c-2.3,0-4.9-1.6-6-3.3v-0.2c1,0.8,2.1,1.4,3.4,1.4c1.9,0,4-1.4,4-8.7c0-7.4-2-8.4-4-8.4
				c-1.3,0-2.5,0.5-3.4,1.5v-0.3c1-1.7,3.6-3.3,6-3.3C150.3,135.5,154.7,137.8,154.7,146z"/>
		</g>
		<g class="st1">
			<path class="st2" d="M167.5,154.1c0,1,0.6,2.1,3.1,2.1v0.2h-12.9v-0.2c2.5,0,3.1-1.1,3.1-2.1v-14.6c0-1.5-0.7-2.2-3-2.2v-0.2
				c3.8,0,6.9-0.4,9.8-1.6V154.1z M178.6,139.9c0,2.8-2,4.7-4.2,4.7c-1,0-1.8-0.2-2.3-0.9c0.8-0.4,1.6-1.3,1.6-2.8
				c0-1.2-0.9-2.2-2.3-2.2c-1.1,0-1.9,0.6-2.5,1.6v-0.3c0.8-2.6,2.8-4.4,5.3-4.4C177,135.5,178.6,137.5,178.6,139.9z"/>
		</g>
		<g class="st1">
			<path class="st2" d="M191,135.7c-2.4,0.3-3.2,2.3-3.2,10.3c0,7.7,0.8,10.3,3.2,10.5v0.2c-4.7,0-10.2-3.9-10.2-10.8
				s5.4-10.6,10.2-10.6V135.7z M202.8,146.1c0,6.9-5.5,10.8-10.2,10.8v-0.2c2.4-0.2,3.2-2.8,3.2-10.5c0-8-0.8-10.1-3.2-10.3v-0.2
				C197.4,135.5,202.8,139.1,202.8,146.1z"/>
		</g>
		<g class="st1">
			<path class="st2" d="M218.2,156.2v0.2h-12.9v-0.2c2.5,0,3.1-1.1,3.1-2.1v-23.8c0-1.5-0.7-2.2-3-2.2v-0.2c3.8,0,6.9-0.4,9.8-1.6
				v27.8C215.1,155.1,215.8,156.2,218.2,156.2z M232.1,156.2v0.2c-1.1,0.3-2.7,0.4-4.1,0.4c-2.5,0-5.3-0.5-7.4-4l-3.9-6.4
				c3.2-2.8,6.3-6.3,6.3-8.4c0-1.1-0.5-1.9-2.4-1.9v-0.2h10.5v0.2c-0.9,0-1.7,0.3-2.3,0.7l-7.5,6l7.1,11
				C229.8,155.9,230.8,156,232.1,156.2z"/>
		</g>
		<g class="st1">
			<path class="st2" d="M232.4,146.1c0-6.9,5.3-10.6,10.1-10.6v0.2c-2.4,0.3-3.1,2.3-3.1,10.2c0,5.9,2.6,9.2,6.3,9.2
				c2.3,0,4.1-0.7,6-2.2v0.2c-2.1,2.7-6,3.7-8.7,3.7C237.7,156.8,232.4,153,232.4,146.1z M241.6,144.4c3.6,0,5.1-1.1,5.1-4.6
				c0-2-0.8-3.8-2.7-4v-0.2c5.4,0,8,3.9,8,7c0,0.7-0.1,1.5-0.2,2.1h-10.3V144.4z"/>
		</g>
		<g class="st1">
			<path class="st2" d="M264.6,154.1c0,1,0.6,2.1,3.1,2.1v0.2h-12.9v-0.2c2.5,0,3.1-1.1,3.1-2.1v-14.6c0-1.5-0.7-2.2-3-2.2v-0.2
				c3.8,0,6.9-0.4,9.8-1.6V154.1z M275.7,139.9c0,2.8-2,4.7-4.2,4.7c-1,0-1.8-0.2-2.3-0.9c0.8-0.4,1.6-1.3,1.6-2.8
				c0-1.2-0.9-2.2-2.3-2.2c-1.1,0-1.9,0.6-2.5,1.6v-0.3c0.8-2.6,2.8-4.4,5.3-4.4C274.1,135.5,275.7,137.5,275.7,139.9z"/>
		</g>
	</g>
</g>
</svg>
