<svg id="Layer_1" data-name="Layer 1" xmlns="http://www.w3.org/2000/svg" viewBox="0 0 300 600"><defs><style>.cls-1{fill:#74503e;}.cls-2{fill:#fff;}.cls-3{fill:none;}</style></defs><title>Artboard 1 copy</title><path class="cls-1" d="M17.26,225.4V274a17.34,17.34,0,0,0,9.35,15.39L99.5,327.24a21.67,21.67,0,0,0,20,0l72.88-37.82A17.33,17.33,0,0,0,201.71,274V225.4a8.1,8.1,0,0,0-8.1-8.1H25.36A8.1,8.1,0,0,0,17.26,225.4Z"/><path class="cls-2" d="M99.69,252l.33-.48c.24-.33.49-.35.87-.14a3.65,3.65,0,0,0,2.16.79c1,0,1.59-.5,1.59-1.22,0-2-5-1.61-5-4.92,0-1.88,1.56-3.1,3.59-3.1a4.93,4.93,0,0,1,2.74.81.59.59,0,0,1,.2.86l-.27.5c-.23.43-.54.37-.86.21a3.42,3.42,0,0,0-1.84-.59c-1,0-1.62.48-1.62,1.2,0,2,5,1.49,5,4.88,0,1.73-1.3,3.15-3.53,3.15a5.58,5.58,0,0,1-3.27-1.08A.56.56,0,0,1,99.69,252Z"/><path class="cls-2" d="M110.87,244.79H108a.55.55,0,0,1-.63-.62v-.42a.57.57,0,0,1,.63-.63h7.66a.56.56,0,0,1,.61.63v.42a.55.55,0,0,1-.61.62h-2.87v8.36a.56.56,0,0,1-.63.63h-.68a.55.55,0,0,1-.61-.63Z"/><path class="cls-2" d="M118.81,243.63a.68.68,0,0,1,.7-.51h1a.68.68,0,0,1,.71.51l3.33,9.43c.15.44,0,.72-.51.72h-.69a.67.67,0,0,1-.71-.51l-.75-2.22h-3.73l-.74,2.21a.66.66,0,0,1-.71.52H116c-.46,0-.66-.28-.51-.72Zm2.56,5.84-.94-2.85c-.18-.6-.42-1.65-.42-1.65h0s-.24,1.05-.42,1.65l-1,2.85Z"/><path class="cls-2" d="M125.86,243.75a.56.56,0,0,1,.61-.63h2.88a4.8,4.8,0,0,1,2,.29,3,3,0,0,1,1.79,2.91,3.07,3.07,0,0,1-1.78,2.91v0a3.81,3.81,0,0,1,.35.56L133.5,253c.25.44.06.75-.44.75h-.81a.76.76,0,0,1-.74-.43l-1.87-3.55h-1.86v3.35a.55.55,0,0,1-.62.63h-.69a.55.55,0,0,1-.61-.63Zm3.66,4.37a1.56,1.56,0,0,0,1.68-1.69,1.44,1.44,0,0,0-.84-1.46,2.7,2.7,0,0,0-1.16-.18h-1.42v3.33Z"/><path class="cls-2" d="M100.39,256.77a.33.33,0,0,1,.36-.37h.32a.33.33,0,0,1,.36.37v9.81a.33.33,0,0,1-.36.37h-.32a.33.33,0,0,1-.36-.37Z"/><path class="cls-2" d="M103.92,259.78a.35.35,0,0,1,.38-.38h.27a.34.34,0,0,1,.36.38v.87a2.48,2.48,0,0,1-.06.54h0a3.35,3.35,0,0,1,3-2c1.87,0,2.53,1.07,2.53,2.93v4.43a.33.33,0,0,1-.37.37h-.29a.33.33,0,0,1-.36-.37v-4.16c0-1.19-.19-2.24-1.65-2.24a2.93,2.93,0,0,0-2.86,3.08v3.32a.33.33,0,0,1-.37.37h-.28a.34.34,0,0,1-.38-.37Z"/><path class="cls-2" d="M112.11,265.75l.12-.15c.13-.18.3-.19.51-.06a3.23,3.23,0,0,0,2,.69c.84,0,1.53-.42,1.53-1.21,0-1.7-4-1.19-4-3.68,0-1.4,1.18-2.12,2.56-2.12a3.43,3.43,0,0,1,2.07.62.32.32,0,0,1,.11.49l-.11.17c-.12.21-.3.22-.51.1a2.84,2.84,0,0,0-1.62-.48c-.79,0-1.48.35-1.48,1.17,0,1.74,4,1.19,4,3.71a2.27,2.27,0,0,1-2.55,2.13,3.9,3.9,0,0,1-2.55-.87A.33.33,0,0,1,112.11,265.75Z"/><path class="cls-2" d="M118.78,259.78a.33.33,0,0,1,.36-.38h.29a.34.34,0,0,1,.37.38v4.16c0,1.18.18,2.23,1.64,2.23a2.92,2.92,0,0,0,2.79-3.15v-3.24a.35.35,0,0,1,.38-.38h.28a.33.33,0,0,1,.36.38v6.8a.33.33,0,0,1-.36.37h-.27a.33.33,0,0,1-.36-.37v-.87a3,3,0,0,1,0-.54h0a3.29,3.29,0,0,1-3,2c-1.79,0-2.53-1-2.53-2.92Z"/><path class="cls-2" d="M127.47,259.78a.34.34,0,0,1,.37-.38h.27a.34.34,0,0,1,.36.38v1a3.08,3.08,0,0,1-.06.6h0a2.69,2.69,0,0,1,2.43-2c.27,0,.39.12.39.36V260c0,.24-.16.37-.42.37-1.59,0-2.35,1.82-2.35,3.39v2.83a.33.33,0,0,1-.36.37h-.29a.33.33,0,0,1-.37-.37Z"/><path class="cls-2" d="M136.46,262.33h.44v-.24a1.69,1.69,0,0,0-1.87-1.95,3.56,3.56,0,0,0-1.83.52.35.35,0,0,1-.51-.12l-.09-.15a.34.34,0,0,1,.11-.51,4.6,4.6,0,0,1,2.4-.66,2.57,2.57,0,0,1,2.81,2.9v4.46a.33.33,0,0,1-.36.37h-.24a.34.34,0,0,1-.38-.37V266a2.83,2.83,0,0,1,.05-.57h0a2.83,2.83,0,0,1-2.56,1.72,2.32,2.32,0,0,1-2.55-2.2C131.85,262.46,135,262.33,136.46,262.33Zm-1.88,3.95c1.46,0,2.32-1.5,2.32-2.83v-.36h-.42c-1.19,0-3.58.05-3.58,1.75A1.52,1.52,0,0,0,134.58,266.28Z"/><path class="cls-2" d="M140.06,259.78a.34.34,0,0,1,.37-.38h.27a.34.34,0,0,1,.36.38v.87a2.48,2.48,0,0,1-.06.54h0a3.35,3.35,0,0,1,3.05-2c1.88,0,2.54,1.07,2.54,2.93v4.43a.34.34,0,0,1-.38.37H146a.33.33,0,0,1-.36-.37v-4.16c0-1.19-.2-2.24-1.65-2.24a2.93,2.93,0,0,0-2.87,3.08v3.32a.33.33,0,0,1-.36.37h-.29a.33.33,0,0,1-.37-.37Z"/><path class="cls-2" d="M152.26,259.22a4,4,0,0,1,2.51.86.32.32,0,0,1,0,.51l-.11.16c-.13.21-.3.21-.51.08a3.09,3.09,0,0,0-1.91-.69,3,3,0,0,0,0,6.08,3.3,3.3,0,0,0,2.13-.8.3.3,0,0,1,.5.09l.1.15a.36.36,0,0,1-.09.51,4.17,4.17,0,0,1-2.69,1,4,4,0,1,1,0-7.91Z"/><path class="cls-2" d="M159.7,259.22c2,0,3.15,1.46,3.15,3.6a.38.38,0,0,1-.39.38H157a2.87,2.87,0,0,0,2.92,3,3.21,3.21,0,0,0,2-.69.31.31,0,0,1,.5.09l.12.18a.35.35,0,0,1-.11.49,4.27,4.27,0,0,1-2.52.84,3.81,3.81,0,0,1-3.94-3.95A3.69,3.69,0,0,1,159.7,259.22Zm2.11,3.21a2.17,2.17,0,0,0-2.14-2.37,2.6,2.6,0,0,0-2.6,2.37Z"/><path class="cls-2" d="M100.15,271.11a.56.56,0,0,1,.62-.63h5.13a.57.57,0,0,1,.63.63v.42a.55.55,0,0,1-.63.61h-3.83v2.8h3a.55.55,0,0,1,.63.61V276a.56.56,0,0,1-.63.63h-3v2.87h4.07a.55.55,0,0,1,.63.61v.43a.56.56,0,0,1-.63.63h-5.37a.55.55,0,0,1-.62-.63Z"/><path class="cls-2" d="M108.14,274.11a.56.56,0,0,1,.61-.63h.59a.57.57,0,0,1,.62.63v.47a2.43,2.43,0,0,1,0,.34h0a3,3,0,0,1,2.71-1.62c1.7,0,2.67.89,2.67,2.91v4.3a.56.56,0,0,1-.63.63h-.64a.56.56,0,0,1-.63-.63V276.6c0-.93-.24-1.56-1.2-1.56a2.3,2.3,0,0,0-2.21,2.51v3a.55.55,0,0,1-.62.63h-.66a.55.55,0,0,1-.61-.63Z"/><path class="cls-2" d="M117.38,275.1H117a.55.55,0,0,1-.62-.63v-.25a.56.56,0,0,1,.64-.63h.43V272a.57.57,0,0,1,.63-.63h.6a.57.57,0,0,1,.63.63v1.57h1.11a.57.57,0,0,1,.63.63v.25a.55.55,0,0,1-.61.63h-1.13v3a1.26,1.26,0,0,0,1.23,1.43c.47,0,.63.19.63.61v.47c0,.45-.25.63-.78.63a2.73,2.73,0,0,1-3-2.81Z"/><path class="cls-2" d="M122.38,271.11a.57.57,0,0,1,.63-.63h.64a.56.56,0,0,1,.63.63v3.09a4.91,4.91,0,0,1,0,.65h0a3,3,0,0,1,2.65-1.55c1.7,0,2.68.89,2.68,2.91v4.3a.57.57,0,0,1-.63.63h-.65a.56.56,0,0,1-.63-.63V276.6c0-.93-.24-1.56-1.2-1.56a2.28,2.28,0,0,0-2.21,2.54v2.93a.56.56,0,0,1-.63.63H123a.56.56,0,0,1-.63-.63Z"/><path class="cls-2" d="M131.32,274.11a.57.57,0,0,1,.63-.63h.64a.57.57,0,0,1,.63.63V278c0,.93.24,1.56,1.19,1.56a2.3,2.3,0,0,0,2.15-2.58v-2.88a.57.57,0,0,1,.63-.63h.64a.57.57,0,0,1,.63.63v6.4a.56.56,0,0,1-.63.63h-.58a.55.55,0,0,1-.62-.63v-.46a2.08,2.08,0,0,1,0-.34h0a3,3,0,0,1-2.66,1.61c-1.63,0-2.65-.83-2.65-2.92Z"/><path class="cls-2" d="M140,279.68l.18-.27c.23-.32.48-.35.86-.15a3.49,3.49,0,0,0,1.71.52c.66,0,1.06-.3,1.06-.78,0-1.24-3.79-.78-3.79-3.4,0-1.5,1.32-2.3,2.92-2.3a4.19,4.19,0,0,1,2.13.56.56.56,0,0,1,.23.84l-.15.27c-.18.36-.47.4-.84.24a3.43,3.43,0,0,0-1.46-.38c-.66,0-1,.27-1,.75,0,1.26,3.8.77,3.8,3.38,0,1.35-1.15,2.36-2.92,2.36a4.53,4.53,0,0,1-2.55-.78A.55.55,0,0,1,140,279.68Z"/><path class="cls-2" d="M147.05,271.56v-.45a.55.55,0,0,1,.61-.63h.66a.57.57,0,0,1,.63.63v.45a.55.55,0,0,1-.63.61h-.66A.54.54,0,0,1,147.05,271.56Zm0,2.55a.56.56,0,0,1,.61-.63h.66a.56.56,0,0,1,.62.63v6.4a.55.55,0,0,1-.62.63h-.66a.55.55,0,0,1-.61-.63Z"/><path class="cls-2" d="M154.72,276.41H155v-.18a1.25,1.25,0,0,0-1.43-1.35,3.5,3.5,0,0,0-1.59.43c-.38.17-.66.11-.84-.25l-.15-.29a.56.56,0,0,1,.24-.84,5.46,5.46,0,0,1,2.51-.63,2.84,2.84,0,0,1,3.16,3.05v4.16a.56.56,0,0,1-.63.63h-.51a.55.55,0,0,1-.61-.63v-.31a1.5,1.5,0,0,1,0-.33h0a2.79,2.79,0,0,1-2.41,1.45,2.35,2.35,0,0,1-2.53-2.3C150.25,276.78,153,276.41,154.72,276.41Zm-1.43,3.45a1.94,1.94,0,0,0,1.76-2v-.29h-.31c-1,0-2.6.15-2.6,1.29A1,1,0,0,0,153.29,279.86Z"/><path class="cls-2" d="M158.38,279.68l.18-.27c.22-.32.48-.35.85-.15a3.5,3.5,0,0,0,1.72.52c.66,0,1.06-.3,1.06-.78,0-1.24-3.8-.78-3.8-3.4,0-1.5,1.32-2.3,2.93-2.3a4.19,4.19,0,0,1,2.13.56.57.57,0,0,1,.23.84l-.15.27c-.18.36-.47.4-.84.24a3.43,3.43,0,0,0-1.46-.38c-.66,0-1,.27-1,.75,0,1.26,3.8.77,3.8,3.38,0,1.35-1.14,2.36-2.91,2.36a4.5,4.5,0,0,1-2.55-.78A.54.54,0,0,1,158.38,279.68Z"/><path class="cls-2" d="M165.77,275.1h-.41a.55.55,0,0,1-.61-.63v-.25a.56.56,0,0,1,.63-.63h.43V272a.57.57,0,0,1,.63-.63h.6a.57.57,0,0,1,.63.63v1.57h1.12a.57.57,0,0,1,.63.63v.25a.56.56,0,0,1-.62.63h-1.13v3a1.26,1.26,0,0,0,1.24,1.43c.46,0,.63.19.63.61v.47c0,.45-.26.63-.78.63a2.74,2.74,0,0,1-3-2.81Z"/><path class="cls-2" d="M64.2,276.35a1.07,1.07,0,0,1-.49-.12,1.06,1.06,0,0,1-.52-1.27l11.11-34.2a2.34,2.34,0,0,1,2.26-1.64h0a2.34,2.34,0,0,1,2.25,1.64l2.25,6.78a.8.8,0,1,1-1.52.51l-2.26-6.79a.74.74,0,0,0-.72-.53h0a.75.75,0,0,0-.73.53l-10,30.92,14.16-19.37a4.4,4.4,0,0,1,3.55-1.8h9.43a2.37,2.37,0,0,1,1.39,4.29l-8.62,6.27a.73.73,0,0,1-.09.08l3.34,10.24a2.38,2.38,0,0,1-3.66,2.66l-7.45-5.42a2.37,2.37,0,0,1,0-3.84l6.25-4.53a.39.39,0,0,1,.1-.08L93.37,254a.77.77,0,0,0-.45-1.38H83.49a2.8,2.8,0,0,0-2.25,1.14L65.05,275.91A1.08,1.08,0,0,1,64.2,276.35Zm20-13.71-5.46,3.95a.79.79,0,0,0-.31.62.77.77,0,0,0,.32.62l7.45,5.41a.76.76,0,0,0,1.17-.85Z"/><path class="cls-2" d="M64.77,259.35a.79.79,0,0,1-.46-.15l-5.5-3.89a2.37,2.37,0,0,1,1.38-4.3h6.75a.81.81,0,0,1,0,1.61H60.19a.73.73,0,0,0-.72.53.74.74,0,0,0,.27.85l5.5,3.89a.8.8,0,0,1,.19,1.12A.82.82,0,0,1,64.77,259.35Z"/><path class="cls-2" d="M72.26,287.7a2.57,2.57,0,0,1-1.29-.34l-14-8a.79.79,0,0,1-.41-.7V261.54a.81.81,0,1,1,1.61,0v16.68L71.76,286a1,1,0,0,0,1,0l10-6.24a.8.8,0,0,1,1.11.25.81.81,0,0,1-.25,1.11l-10,6.24A2.6,2.6,0,0,1,72.26,287.7Z"/><rect class="cls-3" width="300" height="600"/></svg>