<svg id="Layer_1" data-name="Layer 1" xmlns="http://www.w3.org/2000/svg" viewBox="0 0 300 600"><defs><style>.cls-1{fill:none;}.cls-2{fill:#74503e;}.cls-3{fill:#fff;}</style></defs><title>Artboard 1 copy</title><rect class="cls-1" width="300" height="600"/><path class="cls-2" d="M20,180.41V229a17.34,17.34,0,0,0,9.35,15.39l72.89,37.82a21.67,21.67,0,0,0,20,0l72.88-37.82A17.33,17.33,0,0,0,204.45,229V180.41a8.1,8.1,0,0,0-8.1-8.09H28.1A8.09,8.09,0,0,0,20,180.41Z"/><path class="cls-3" d="M102.43,207l.33-.48c.24-.33.49-.34.87-.13a3.72,3.72,0,0,0,2.16.78c1,0,1.59-.5,1.59-1.22,0-2-5-1.61-5-4.92,0-1.88,1.56-3.1,3.59-3.1a4.84,4.84,0,0,1,2.74.82.59.59,0,0,1,.2.85l-.27.5c-.23.43-.54.37-.86.21a3.42,3.42,0,0,0-1.84-.59c-1,0-1.62.48-1.62,1.2,0,2,5,1.49,5,4.88a3.19,3.19,0,0,1-3.52,3.15,5.58,5.58,0,0,1-3.27-1.08A.55.55,0,0,1,102.43,207Z"/><path class="cls-3" d="M113.61,199.8h-2.87a.55.55,0,0,1-.63-.61v-.42a.57.57,0,0,1,.63-.64h7.66a.56.56,0,0,1,.61.64v.42a.54.54,0,0,1-.61.61h-2.87v8.36a.56.56,0,0,1-.63.63h-.68a.55.55,0,0,1-.61-.63Z"/><path class="cls-3" d="M121.55,198.65a.68.68,0,0,1,.7-.52h1a.68.68,0,0,1,.71.52l3.33,9.42c.15.44,0,.72-.51.72h-.69a.67.67,0,0,1-.71-.51l-.75-2.22h-3.73l-.74,2.21a.67.67,0,0,1-.71.52h-.69c-.46,0-.66-.28-.51-.72Zm2.56,5.83-.94-2.85c-.18-.6-.42-1.65-.42-1.65h0s-.24,1.05-.42,1.65l-1,2.85Z"/><path class="cls-3" d="M128.6,198.77a.56.56,0,0,1,.61-.64h2.88a4.8,4.8,0,0,1,2,.29,3,3,0,0,1,1.79,2.91,3.09,3.09,0,0,1-1.78,2.91v0a3.81,3.81,0,0,1,.35.56l1.76,3.21c.25.44.06.75-.44.75H135a.76.76,0,0,1-.74-.43l-1.87-3.55h-1.86v3.35a.55.55,0,0,1-.62.63h-.69a.55.55,0,0,1-.61-.63Zm3.66,4.36a1.56,1.56,0,0,0,1.68-1.69,1.44,1.44,0,0,0-.84-1.46,2.7,2.7,0,0,0-1.16-.18h-1.42v3.33Z"/><path class="cls-3" d="M103.13,211.79a.33.33,0,0,1,.36-.38h.32a.34.34,0,0,1,.36.38v9.8a.33.33,0,0,1-.36.37h-.32a.33.33,0,0,1-.36-.37Z"/><path class="cls-3" d="M106.66,214.79a.35.35,0,0,1,.38-.38h.27a.34.34,0,0,1,.36.38v.87a2.48,2.48,0,0,1-.06.54h0a3.34,3.34,0,0,1,3-2c1.87,0,2.53,1.07,2.53,2.93v4.43a.33.33,0,0,1-.37.37h-.29a.33.33,0,0,1-.36-.37v-4.16c0-1.19-.19-2.24-1.65-2.24a2.93,2.93,0,0,0-2.87,3.08v3.32a.33.33,0,0,1-.36.37H107a.34.34,0,0,1-.38-.37Z"/><path class="cls-3" d="M114.85,220.76l.12-.15c.13-.18.3-.19.51-.06a3.23,3.23,0,0,0,2,.69c.84,0,1.53-.42,1.53-1.21,0-1.7-4-1.19-4-3.68,0-1.4,1.18-2.12,2.56-2.12a3.43,3.43,0,0,1,2.07.62.32.32,0,0,1,.11.49l-.11.17c-.12.21-.3.22-.51.1a2.84,2.84,0,0,0-1.62-.48c-.79,0-1.48.35-1.48,1.17,0,1.74,4,1.19,4,3.71a2.27,2.27,0,0,1-2.55,2.13,3.9,3.9,0,0,1-2.55-.87A.33.33,0,0,1,114.85,220.76Z"/><path class="cls-3" d="M121.52,214.79a.33.33,0,0,1,.36-.38h.29a.34.34,0,0,1,.37.38V219c0,1.18.18,2.23,1.64,2.23A2.92,2.92,0,0,0,127,218v-3.24a.35.35,0,0,1,.38-.38h.28a.33.33,0,0,1,.36.38v6.8a.33.33,0,0,1-.36.37h-.27a.33.33,0,0,1-.36-.37v-.87a3,3,0,0,1,0-.54h0a3.29,3.29,0,0,1-3,2c-1.79,0-2.53-1-2.53-2.92Z"/><path class="cls-3" d="M130.2,214.79a.35.35,0,0,1,.38-.38h.27a.34.34,0,0,1,.36.38v1a3.08,3.08,0,0,1-.06.6h0a2.69,2.69,0,0,1,2.43-2c.27,0,.39.12.39.36V215c0,.24-.16.37-.42.37-1.59,0-2.35,1.82-2.35,3.4v2.82a.33.33,0,0,1-.36.37h-.29a.34.34,0,0,1-.38-.37Z"/><path class="cls-3" d="M139.2,217.34h.44v-.24a1.69,1.69,0,0,0-1.87-1.95,3.56,3.56,0,0,0-1.83.52.35.35,0,0,1-.51-.12l-.09-.15a.34.34,0,0,1,.11-.51,4.6,4.6,0,0,1,2.4-.66,2.57,2.57,0,0,1,2.81,2.9v4.46a.33.33,0,0,1-.36.37h-.24a.34.34,0,0,1-.38-.37V221a2.83,2.83,0,0,1,0-.57h0a2.83,2.83,0,0,1-2.56,1.72,2.32,2.32,0,0,1-2.55-2.2C134.59,217.47,137.74,217.34,139.2,217.34Zm-1.88,3.95c1.46,0,2.32-1.5,2.32-2.82v-.37h-.43c-1.18,0-3.57.05-3.57,1.75A1.52,1.52,0,0,0,137.32,221.29Z"/><path class="cls-3" d="M142.8,214.79a.34.34,0,0,1,.37-.38h.27a.34.34,0,0,1,.36.38v.87a2.48,2.48,0,0,1-.06.54h0a3.35,3.35,0,0,1,3-2c1.88,0,2.54,1.07,2.54,2.93v4.43a.34.34,0,0,1-.38.37h-.28a.33.33,0,0,1-.36-.37v-4.16c0-1.19-.2-2.24-1.65-2.24a2.93,2.93,0,0,0-2.87,3.08v3.32a.33.33,0,0,1-.36.37h-.29a.33.33,0,0,1-.37-.37Z"/><path class="cls-3" d="M155,214.23a4,4,0,0,1,2.51.86.32.32,0,0,1,.05.51l-.11.16c-.13.21-.3.21-.51.08a3.09,3.09,0,0,0-1.91-.69,3,3,0,0,0,0,6.08,3.3,3.3,0,0,0,2.13-.8.3.3,0,0,1,.5.09l.1.15a.36.36,0,0,1-.09.51,4.17,4.17,0,0,1-2.69,1,4,4,0,1,1,0-7.91Z"/><path class="cls-3" d="M162.44,214.23c2,0,3.15,1.46,3.15,3.6a.38.38,0,0,1-.39.38h-5.43a2.87,2.87,0,0,0,2.92,3,3.21,3.21,0,0,0,2-.69.31.31,0,0,1,.5.09l.12.18a.35.35,0,0,1-.11.49,4.27,4.27,0,0,1-2.52.84,3.81,3.81,0,0,1-3.94-3.95A3.69,3.69,0,0,1,162.44,214.23Zm2.11,3.21a2.17,2.17,0,0,0-2.14-2.37,2.6,2.6,0,0,0-2.6,2.37Z"/><path class="cls-3" d="M102.89,226.12a.56.56,0,0,1,.62-.63h5.13a.57.57,0,0,1,.63.63v.42a.56.56,0,0,1-.63.61h-3.83V230h3a.55.55,0,0,1,.63.61V231a.56.56,0,0,1-.63.63h-3v2.87h4.07a.56.56,0,0,1,.63.62v.42a.57.57,0,0,1-.63.63h-5.37a.55.55,0,0,1-.62-.63Z"/><path class="cls-3" d="M110.88,229.12a.56.56,0,0,1,.61-.63h.59a.56.56,0,0,1,.61.63v.47a2.43,2.43,0,0,1,0,.34h0a3,3,0,0,1,2.72-1.62c1.7,0,2.67.89,2.67,2.91v4.3a.56.56,0,0,1-.63.63h-.64a.56.56,0,0,1-.63-.63v-3.91c0-.93-.24-1.56-1.2-1.56a2.3,2.3,0,0,0-2.21,2.51v3a.55.55,0,0,1-.62.63h-.66a.55.55,0,0,1-.61-.63Z"/><path class="cls-3" d="M120.12,230.11h-.41a.55.55,0,0,1-.62-.63v-.25a.56.56,0,0,1,.64-.63h.43V227a.57.57,0,0,1,.63-.63h.6a.57.57,0,0,1,.63.63v1.57h1.11a.57.57,0,0,1,.63.63v.25a.55.55,0,0,1-.61.63H122v3a1.26,1.26,0,0,0,1.23,1.43c.47.05.63.2.63.62v.46c0,.45-.25.63-.78.63a2.73,2.73,0,0,1-3-2.81Z"/><path class="cls-3" d="M125.11,226.12a.57.57,0,0,1,.64-.63h.64a.56.56,0,0,1,.63.63v3.09a4.91,4.91,0,0,1,0,.65h0a3,3,0,0,1,2.65-1.55c1.7,0,2.68.89,2.68,2.91v4.3a.57.57,0,0,1-.64.63h-.64a.56.56,0,0,1-.63-.63v-3.91c0-.93-.24-1.56-1.2-1.56a2.28,2.28,0,0,0-2.21,2.54v2.93a.56.56,0,0,1-.63.63h-.64a.57.57,0,0,1-.64-.63Z"/><path class="cls-3" d="M134.06,229.12a.57.57,0,0,1,.63-.63h.64a.57.57,0,0,1,.63.63V233c0,.93.24,1.57,1.19,1.57A2.31,2.31,0,0,0,139.3,232v-2.88a.57.57,0,0,1,.63-.63h.64a.57.57,0,0,1,.63.63v6.4a.56.56,0,0,1-.63.63H140a.55.55,0,0,1-.62-.63v-.45a2.29,2.29,0,0,1,0-.35h0a3,3,0,0,1-2.66,1.61c-1.63,0-2.65-.83-2.65-2.92Z"/><path class="cls-3" d="M142.75,234.69l.18-.27c.23-.32.48-.35.86-.15a3.48,3.48,0,0,0,1.71.53c.66,0,1.06-.3,1.06-.79,0-1.24-3.79-.78-3.79-3.4,0-1.5,1.32-2.3,2.92-2.3a4.19,4.19,0,0,1,2.13.56.57.57,0,0,1,.23.84l-.15.27c-.18.36-.47.4-.84.24a3.43,3.43,0,0,0-1.46-.38c-.66,0-1,.27-1,.75,0,1.26,3.79.77,3.79,3.38,0,1.35-1.14,2.36-2.91,2.36a4.53,4.53,0,0,1-2.55-.78A.55.55,0,0,1,142.75,234.69Z"/><path class="cls-3" d="M149.79,226.57v-.45a.55.55,0,0,1,.61-.63h.66a.57.57,0,0,1,.63.63v.45a.55.55,0,0,1-.63.61h-.66A.54.54,0,0,1,149.79,226.57Zm0,2.55a.56.56,0,0,1,.61-.63h.66a.56.56,0,0,1,.62.63v6.4a.55.55,0,0,1-.62.63h-.66a.55.55,0,0,1-.61-.63Z"/><path class="cls-3" d="M157.46,231.42h.32v-.18a1.25,1.25,0,0,0-1.43-1.35,3.5,3.5,0,0,0-1.59.43c-.38.17-.66.11-.84-.25l-.15-.29a.56.56,0,0,1,.24-.84,5.46,5.46,0,0,1,2.51-.63,2.84,2.84,0,0,1,3.16,3.05v4.16a.56.56,0,0,1-.63.63h-.51a.55.55,0,0,1-.61-.63v-.3a1.5,1.5,0,0,1,0-.33h0a2.79,2.79,0,0,1-2.41,1.44A2.35,2.35,0,0,1,153,234C153,231.79,155.75,231.42,157.46,231.42ZM156,234.87a1.94,1.94,0,0,0,1.76-2v-.29h-.31c-1,0-2.6.15-2.6,1.29A1,1,0,0,0,156,234.87Z"/><path class="cls-3" d="M161.12,234.69l.18-.27c.22-.32.48-.35.85-.15a3.49,3.49,0,0,0,1.72.53c.66,0,1.06-.3,1.06-.79,0-1.24-3.8-.78-3.8-3.4,0-1.5,1.32-2.3,2.93-2.3a4.19,4.19,0,0,1,2.13.56.57.57,0,0,1,.23.84l-.15.27c-.18.36-.47.4-.84.24a3.43,3.43,0,0,0-1.46-.38c-.66,0-1,.27-1,.75,0,1.26,3.8.77,3.8,3.38,0,1.35-1.14,2.36-2.91,2.36a4.5,4.5,0,0,1-2.55-.78A.54.54,0,0,1,161.12,234.69Z"/><path class="cls-3" d="M168.51,230.11h-.41a.55.55,0,0,1-.61-.63v-.25a.56.56,0,0,1,.63-.63h.43V227a.57.57,0,0,1,.63-.63h.6a.57.57,0,0,1,.63.63v1.57h1.11a.57.57,0,0,1,.63.63v.25a.55.55,0,0,1-.61.63h-1.13v3a1.26,1.26,0,0,0,1.23,1.43c.47.05.63.2.63.62v.46c0,.45-.25.63-.78.63a2.73,2.73,0,0,1-3-2.81Z"/><path class="cls-3" d="M66.94,231.36a1.07,1.07,0,0,1-.49-.12,1.06,1.06,0,0,1-.52-1.27L77,195.77a2.34,2.34,0,0,1,2.26-1.64h0a2.34,2.34,0,0,1,2.25,1.64l2.25,6.78a.8.8,0,1,1-1.52.51L80,196.27a.74.74,0,0,0-.72-.53h0a.75.75,0,0,0-.73.53l-10,30.92,14.16-19.36A4.41,4.41,0,0,1,86.23,206h9.43a2.37,2.37,0,0,1,1.39,4.29l-8.62,6.27-.09.08,3.34,10.24A2.38,2.38,0,0,1,88,229.56l-7.45-5.42a2.37,2.37,0,0,1,0-3.84l6.25-4.53.1-.08L96.11,209a.74.74,0,0,0,.27-.85.73.73,0,0,0-.72-.53H86.23A2.83,2.83,0,0,0,84,208.77L67.79,230.92A1,1,0,0,1,66.94,231.36Zm20-13.71-5.46,3.95a.79.79,0,0,0-.31.62.77.77,0,0,0,.32.62L89,228.25a.76.76,0,0,0,1.17-.85Z"/><path class="cls-3" d="M67.51,214.36a.79.79,0,0,1-.46-.15l-5.5-3.89a2.37,2.37,0,0,1,1.38-4.3h6.75a.81.81,0,0,1,0,1.61H62.93a.73.73,0,0,0-.72.53.74.74,0,0,0,.27.85L68,212.9a.8.8,0,0,1,.19,1.12A.82.82,0,0,1,67.51,214.36Z"/><path class="cls-3" d="M75,242.71a2.57,2.57,0,0,1-1.29-.34l-14-8a.78.78,0,0,1-.41-.69V216.55a.81.81,0,1,1,1.61,0v16.68L74.5,241a1,1,0,0,0,1,0l10-6.24a.8.8,0,0,1,1.11.25.81.81,0,0,1-.25,1.11l-10,6.24A2.6,2.6,0,0,1,75,242.71Z"/></svg>