<?xml version="1.0" encoding="utf-8"?>
<!-- Generator: Adobe Illustrator 24.0.3, SVG Export Plug-In . SVG Version: 6.00 Build 0)  -->
<svg version="1.1" id="Layer_1" xmlns="http://www.w3.org/2000/svg" xmlns:xlink="http://www.w3.org/1999/xlink" x="0px" y="0px"
	 viewBox="0 0 300 600" style="enable-background:new 0 0 300 600;" xml:space="preserve">
<style type="text/css">
	.st0{clip-path:url(#SVGID_2_);}
	.st1{enable-background:new    ;}
	.st2{fill:#263845;}
</style>
<title>Artboard 1 copy 2</title>
<g>
	<defs>
		<rect id="SVGID_1_" x="0.9" y="0.5" width="300" height="599.5"/>
	</defs>
	<clipPath id="SVGID_2_">
		<use xlink:href="#SVGID_1_"  style="overflow:visible;"/>
	</clipPath>
	<g class="st0">
		<g class="st1">
			<path class="st2" d="M26.6,161.6l0.3,0.5l0.3,16.2c0,1.7,1.2,3.2,3.8,3.2v0.2h-8.5v-0.2c2.5,0,3.7-1.6,3.8-3.2L26.6,161.6z
				 M47,181.7h-4.3l-16.1-24c-1-1.5-2.1-2-4.1-2v-0.2h10.3L47,176.7V181.7z M46.9,172.8l-0.3-0.4L46.1,159c0-1.7-1.2-3.2-3.8-3.2
				v-0.2h8.5v0.2c-2.5,0-3.8,1.6-3.8,3.2L46.9,172.8z"/>
			<path class="st2" d="M68,155.5h7.4l-15.3,26.2h-7.3L68,155.5z M53.9,155.5h11.6l-0.1,0.2c-5.7,0.3-10.2,4.2-11.2,9h-0.3V155.5z
				 M62.7,181.4c5.8-0.5,10.4-4.1,12-10.3H75v10.5H62.6L62.7,181.4z"/>
		</g>
		<g class="st1">
			<path class="st2" d="M86.1,156.7c0,2.2-2.4,5.2-6.2,6.8l-0.1-0.3c1.1-0.9,2.2-2.3,2.2-3.7c0-1.7-1.2-2.5-2.6-2.5
				c0.3-2.3,1.7-3.5,3.7-3.5C84.7,153.4,86.1,154.6,86.1,156.7z"/>
		</g>
		<g class="st1">
			<path class="st2" d="M94,177.1c-1.3,0-2.2,0.8-2.2,1.9c0,1.1,0.8,2.5,3.4,2.8v0.2c-5.1-0.2-7.9-1.6-7.9-3.8
				c0-1.8,1.5-2.8,3.3-2.8C92.2,175.4,93.4,176.1,94,177.1z M95.3,162.3c-1.4,0.3-2.8,1-2.8,2.6c0.1,4.5,12.6,5.2,12.6,11.3
				c0,3.7-3.2,5.7-8.1,5.9v-0.2c1.6-0.3,3.4-0.8,3.4-2.8c0-4-12.6-5.5-12.6-11.3c0-3.4,3.2-5.4,7.5-5.6V162.3z M104.4,166
				c0,1.2-0.9,2.4-2.8,2.4c-1.6,0-2.8-0.7-3.3-1.8c1.2-0.1,1.8-0.9,1.7-1.8c0-1.2-1.5-2.3-3-2.5v-0.2
				C101.3,162.3,104.4,163.9,104.4,166z"/>
			<path class="st2" d="M117.2,154.9c3.6,0,6.5-0.4,9.2-1.5v26.1c0,1,0.6,2,2.9,2v0.2h-12.1v-0.2c2.3,0,2.9-1,2.9-2v-22.3
				c0-1.4-0.7-2-2.8-2V154.9z"/>
			<path class="st2" d="M131.6,172c0-6.5,4.9-9.9,9.4-9.9v0.2c-2.3,0.3-2.9,2.2-2.9,9.5c0,5.5,2.5,8.6,5.9,8.6c2.2,0,3.8-0.6,5.6-2
				v0.2c-2,2.5-5.7,3.5-8.2,3.5C136.6,182.1,131.6,178.4,131.6,172z M140.3,170.4c3.4,0,4.8-1.1,4.8-4.3c0-1.8-0.8-3.5-2.5-3.8v-0.2
				c5.1,0,7.5,3.6,7.5,6.5c0,0.6-0.1,1.4-0.2,2h-9.7V170.4z"/>
			<path class="st2" d="M152.9,177.1c0-3.3,3.1-5.2,7.4-5.2h4.2v0.2h-1.2c-2.8,0-4.1,1.8-4.1,4.2c0,2.1,0.6,3.7,2.4,3.7
				c1.1,0,2-0.6,2.8-1.3v0.2c-1.3,1.5-3.3,3.1-6.1,3.1C155.1,182.1,152.9,180.2,152.9,177.1z M154.4,166.2c0-2,1.8-4,7-4.2v0.2
				c-1.5,0.2-2.5,1.5-2.5,2.8c0,1.4,1,2.2,2.5,2.3c-0.6,1.1-2.2,1.8-3.7,1.8C155.7,169.3,154.4,167.9,154.4,166.2z M165.6,177.7
				v-11.8c0-1.9-0.7-3.4-2.6-3.7v-0.2c6.4,0.2,8.9,2.7,8.9,7.7v9.4c0,1.1,0.4,1.6,1.1,1.6c0.6,0,1.2-0.6,1.8-1.7h0.2
				c-0.6,2.1-2.7,3.1-5,3.1C167,182.1,165.6,181,165.6,177.7z"/>
			<path class="st2" d="M190.6,165.1v0.3c-0.9-1-2-1.4-3.2-1.4c-1.9,0-3.8,0.9-3.8,7.8c0,6.9,2,8.2,3.8,8.2c1.2,0,2.2-0.6,3.2-1.3
				v0.2c-1,1.6-3.4,3.1-5.6,3.1c-3.7,0-7.9-2.2-7.9-10.2c0-7.7,4.2-9.8,7.9-9.8C187.2,162.1,189.7,163.5,190.6,165.1z M198.1,179.1
				c0,1.1,0.3,1.6,1,1.6c0.6,0,1.2-0.6,1.8-1.7h0.2c-0.6,2.1-2.7,3.1-5,3.1c-3.1,0-4.5-1.1-4.5-4.3v-20.5c0-1.4-0.7-2-2.8-2v-0.2
				c3.6,0,6-0.4,9.2-1.5V179.1z"/>
			<path class="st2" d="M202.9,163.5c3.6,0,6.5-0.4,9.2-1.5v17.5c0,1,0.6,2,2.9,2v0.2h-12.1v-0.2c2.3,0,2.9-1,2.9-2v-13.7
				c0-1.4-0.7-2-2.8-2V163.5z M204.8,156.3c0-2,1.6-3.3,3.9-3.3c2.3,0,3.9,1.3,3.9,3.3c0,2-1.6,3.4-3.9,3.4
				C206.4,159.7,204.8,158.3,204.8,156.3z"/>
			<path class="st2" d="M216.6,181.4c2.3,0,2.9-1,2.9-2v-13.7c0-1.4-0.7-2-2.8-2v-0.2c3.6,0,6.5-0.4,9.2-1.5v17.4c0,1,0.6,2,2.9,2
				v0.2h-12.1V181.4z M230.1,181.4c2.3,0,2.8-1,2.8-2v-12c0-2.2-1.1-3.3-3-3.3c-1.1,0-2,0.3-2.9,1.2v-0.2c1-1.6,3.5-3.1,6.4-3.1
				c3.5,0,5.9,1.6,5.9,5.4v12c0,1,0.6,2,2.9,2v0.2h-12.1V181.4z"/>
			<path class="st2" d="M244.5,169c0-5,4.7-6.9,8.6-7v0.2c-1.7,0.2-2.4,2.2-2.4,6.6c0,4.7,0.8,6.5,2.4,6.7v0.2
				C249.2,175.8,244.5,174,244.5,169z M254.7,191.1c3.8-0.5,5.1-2.5,5.1-3.9c0-5.3-15-0.6-15-7.5c0-1.6,0.8-2.8,2.6-3.9l0.1,0.2
				c-0.2,0.2-0.3,0.5-0.3,0.7c0,4.3,17.5-0.7,17.5,7.7c0,4-3.4,6.5-10,6.9V191.1z M244.8,187.8c0-2.3,2.8-3,5.8-3
				c-0.7,0.3-1.7,1.4-1.7,2.7c0,1.8,2,3.1,4.2,3.5v0.2C249,191.2,244.8,190.4,244.8,187.8z M254.7,175.6c1.9-0.2,2.7-2,2.7-6.7
				c0-4.5-0.8-6.5-2.7-6.6v-0.2c4.1,0.1,8.8,2,8.8,7c0,5-4.7,6.8-8.8,6.8V175.6z M256.8,161.4c0.7-2,2.4-4.6,5.1-4.6
				c2,0,3.3,1.1,3.3,2.9c0,1.9-1.7,3-3.1,3c0-1.6-0.8-2.6-2.1-2.6c-1.2,0-2.4,0.7-3,1.4L256.8,161.4z"/>
		</g>
		<g class="st1">
			<path class="st2" d="M22.5,202c3.6,0,6.5-0.4,9.2-1.5V218c0,1,0.6,2,2.9,2v0.2H22.5v-0.2c2.3,0,2.9-1,2.9-2v-13.7
				c0-1.4-0.7-2-2.8-2V202z M24.5,194.8c0-2,1.6-3.3,3.9-3.3c2.3,0,3.9,1.3,3.9,3.3c0,2-1.6,3.4-3.9,3.4
				C26.1,198.2,24.5,196.8,24.5,194.8z"/>
			<path class="st2" d="M36.2,219.9c2.3,0,2.9-1,2.9-2v-13.7c0-1.4-0.7-2-2.8-2V202c3.6,0,6.5-0.4,9.2-1.5V218c0,1,0.6,2,2.9,2v0.2
				H36.2V219.9z M49.8,219.9c2.3,0,2.8-1,2.8-2v-12c0-2.2-1.1-3.3-3-3.3c-1.1,0-2,0.3-2.9,1.2v-0.2c1-1.6,3.5-3.1,6.4-3.1
				c3.5,0,5.9,1.6,5.9,5.4v12c0,1,0.6,2,2.9,2v0.2H49.8V219.9z"/>
			<path class="st2" d="M70.6,215.6c-1.3,0-2.2,0.8-2.2,1.9c0,1.1,0.8,2.5,3.4,2.8v0.2c-5.1-0.2-7.9-1.6-7.9-3.8
				c0-1.8,1.5-2.8,3.3-2.8C68.8,213.9,70.1,214.6,70.6,215.6z M71.9,200.8c-1.4,0.3-2.8,1-2.8,2.6c0.1,4.5,12.6,5.2,12.6,11.3
				c0,3.7-3.2,5.7-8.1,5.9v-0.2c1.6-0.3,3.4-0.8,3.4-2.8c0-4-12.6-5.5-12.6-11.3c0-3.4,3.2-5.4,7.5-5.6V200.8z M81,204.5
				c0,1.2-0.9,2.4-2.8,2.4c-1.6,0-2.8-0.7-3.3-1.8c1.2-0.1,1.8-0.9,1.7-1.8c0-1.2-1.5-2.3-3-2.5v-0.2C78,200.8,81,202.4,81,204.5z"
				/>
			<path class="st2" d="M93.1,215.1c0,2.2,0.7,3.3,2.7,3.3c1,0,1.8-0.3,2.7-1.2v0.2c-0.9,1.7-2.8,3.1-6,3.1c-3.5,0-5.7-1.6-5.7-5.4
				v-10.8c0-1.4-0.7-2-2.8-2V202c3.6,0,6.5-0.4,9.2-1.5V215.1z M105.9,217.6c0,1.1,0.3,1.6,1,1.6c0.6,0,1.2-0.6,1.8-1.7h0.2
				c-0.6,2.1-2.7,3.1-5.2,3.1c-2.7,0-4.2-1.5-4.2-3.8v-12.5c0-1.4-0.7-2-2.7-2V202c3.5,0,5.8-0.4,9.1-1.5V217.6z"/>
		</g>
		<g class="st1">
			<path class="st2" d="M119.8,218c0,1,0.6,2,2.9,2v0.2h-12.1v-0.2c2.3,0,2.9-1,2.9-2v-13.7c0-1.4-0.7-2-2.8-2V202
				c3.6,0,6.5-0.4,9.2-1.5V218z M130.2,204.7c0,2.7-1.9,4.4-4,4.4c-0.9,0-1.7-0.2-2.2-0.8c0.7-0.4,1.5-1.2,1.5-2.6
				c0-1.1-0.8-2.1-2.2-2.1c-1,0-1.8,0.6-2.3,1.5v-0.3c0.7-2.5,2.6-4.2,5-4.2C128.7,200.5,130.2,202.4,130.2,204.7z"/>
		</g>
		<g class="st1">
			<path class="st2" d="M131.9,215.6c0-3.3,3.1-5.2,7.4-5.2h4.2v0.2h-1.2c-2.8,0-4.1,1.8-4.1,4.2c0,2.1,0.6,3.7,2.4,3.7
				c1.1,0,2-0.6,2.8-1.3v0.2c-1.3,1.5-3.3,3.1-6.1,3.1C134,220.6,131.8,218.7,131.9,215.6z M133.4,204.7c0-2,1.8-4,7-4.2v0.2
				c-1.5,0.2-2.5,1.5-2.5,2.8c0,1.4,1,2.2,2.5,2.3c-0.6,1.1-2.2,1.8-3.7,1.8C134.6,207.8,133.4,206.4,133.4,204.7z M144.6,216.2
				v-11.8c0-1.9-0.7-3.4-2.6-3.7v-0.2c6.4,0.2,8.9,2.7,8.9,7.7v9.4c0,1.1,0.4,1.6,1.1,1.6c0.6,0,1.2-0.6,1.8-1.7h0.2
				c-0.6,2.1-2.7,3.1-5,3.1C145.9,220.6,144.6,219.5,144.6,216.2z"/>
			<path class="st2" d="M155.2,219.9c2.3,0,2.9-1,2.9-2v-13.7c0-1.4-0.7-2-2.8-2V202c3.6,0,6.5-0.4,9.2-1.5V218c0,1,0.6,2,2.9,2v0.2
				h-12.1V219.9z M168.8,219.9c2.3,0,2.8-1,2.8-2v-12c0-2.2-1.1-3.3-3-3.3c-1.1,0-2,0.3-2.9,1.2v-0.2c1-1.6,3.5-3.1,6.4-3.1
				c3.5,0,5.9,1.6,5.9,5.4v12c0,1,0.6,2,2.9,2v0.2h-12.1V219.9z"/>
			<path class="st2" d="M192.8,200.8c-2.3,0.3-3.3,2.2-3.3,9.5c0,5.5,2.8,8.6,6.2,8.6c2.2,0,3.8-0.6,5.6-2v0.2
				c-2,2.5-5.7,3.5-8.2,3.5c-4.9,0-10.3-3.6-10.3-10.1c0-6.5,5.3-9.9,9.9-9.9V200.8z M201.3,204.9c0,2-1.4,3.7-3.8,3.7
				c-1.9,0-3.1-1.2-3.3-2.4c1.1-0.4,1.8-1.8,1.8-2.8c0-0.9-0.2-2.3-1.7-2.5v-0.3C199.4,200.5,201.3,202.7,201.3,204.9z"/>
			<path class="st2" d="M204.2,210.5c0-6.5,4.9-9.9,9.4-9.9v0.2c-2.3,0.3-2.9,2.2-2.9,9.5c0,5.5,2.5,8.6,5.9,8.6
				c2.2,0,3.8-0.6,5.6-2v0.2c-2,2.5-5.7,3.5-8.2,3.5C209.2,220.6,204.2,216.9,204.2,210.5z M212.9,208.9c3.4,0,4.8-1.1,4.8-4.3
				c0-1.8-0.8-3.5-2.5-3.8v-0.2c5.1,0,7.5,3.6,7.5,6.5c0,0.6-0.1,1.4-0.2,2h-9.7V208.9z"/>
		</g>
		<g class="st1">
			<path class="st2" d="M29.8,254.1c-1.3,0-2.2,0.8-2.2,1.9c0,1.1,0.8,2.5,3.4,2.8v0.2c-5.1-0.2-7.9-1.6-7.9-3.8
				c0-1.8,1.5-2.8,3.3-2.8C28,252.4,29.3,253.1,29.8,254.1z M31.1,239.3c-1.4,0.3-2.8,1-2.8,2.6c0.1,4.5,12.6,5.2,12.6,11.3
				c0,3.7-3.2,5.7-8.1,5.9v-0.2c1.6-0.3,3.4-0.8,3.4-2.8c0-4-12.6-5.5-12.6-11.3c0-3.4,3.2-5.4,7.5-5.6V239.3z M40.2,243
				c0,1.2-0.9,2.4-2.8,2.4c-1.6,0-2.8-0.7-3.3-1.8c1.2-0.1,1.8-0.9,1.7-1.8c0-1.2-1.5-2.3-3-2.5V239C37.2,239.3,40.2,240.9,40.2,243
				z"/>
			<path class="st2" d="M52.4,264.5c0,1.4,0.7,2,2.8,2v0.2c-3.6,0-6,0.4-9.2,1.5v-25.5c0-1.4-0.7-2-2.8-2v-0.2c3.6,0,6-0.4,9.2-1.5
				V264.5z M67,248.9c0,8-4.2,10.2-7.9,10.2c-2.2,0-4.7-1.5-5.6-3.1v-0.2c1,0.7,2,1.3,3.2,1.3c1.8,0,3.7-1.3,3.7-8.2
				c0-7-1.8-7.8-3.7-7.8c-1.2,0-2.3,0.5-3.2,1.4v-0.3c1-1.6,3.4-3.1,5.6-3.1C62.9,239,67,241.2,67,248.9z"/>
			<path class="st2" d="M70.4,249c0-6.5,4.9-9.9,9.4-9.9v0.2c-2.3,0.3-2.9,2.2-2.9,9.5c0,5.5,2.5,8.6,5.9,8.6c2.2,0,3.8-0.6,5.6-2
				v0.2c-2,2.5-5.7,3.5-8.2,3.5C75.4,259.1,70.4,255.4,70.4,249z M79.1,247.4c3.4,0,4.8-1.1,4.8-4.3c0-1.8-0.8-3.5-2.5-3.8V239
				c5.1,0,7.5,3.6,7.5,6.5c0,0.6-0.1,1.4-0.2,2h-9.7V247.4z"/>
			<path class="st2" d="M101.9,239.3c-2.3,0.3-3.3,2.2-3.3,9.5c0,5.5,2.8,8.6,6.2,8.6c2.2,0,3.8-0.6,5.6-2v0.2
				c-2,2.5-5.7,3.5-8.2,3.5c-4.9,0-10.3-3.6-10.3-10.1c0-6.5,5.3-9.9,9.9-9.9V239.3z M110.5,243.4c0,2-1.4,3.7-3.8,3.7
				c-1.9,0-3.1-1.2-3.3-2.4c1.1-0.4,1.8-1.8,1.8-2.8c0-0.9-0.2-2.3-1.7-2.5V239C108.5,239,110.5,241.2,110.5,243.4z"/>
			<path class="st2" d="M112.7,240.5c3.6,0,6.5-0.4,9.2-1.5v17.5c0,1,0.6,2,2.9,2v0.2h-12.1v-0.2c2.3,0,2.9-1,2.9-2v-13.7
				c0-1.4-0.7-2-2.8-2V240.5z M114.7,233.3c0-2,1.6-3.3,3.9-3.3c2.3,0,3.9,1.3,3.9,3.3c0,2-1.6,3.4-3.9,3.4
				C116.3,236.7,114.7,235.3,114.7,233.3z"/>
			<path class="st2" d="M126.8,254.1c0-3.3,3.1-5.2,7.4-5.2h4.2v0.2h-1.2c-2.8,0-4.1,1.8-4.1,4.2c0,2.1,0.6,3.7,2.4,3.7
				c1.1,0,2-0.6,2.8-1.3v0.2c-1.3,1.5-3.3,3.1-6.1,3.1C128.9,259.1,126.7,257.2,126.8,254.1z M128.3,243.2c0-2,1.8-4,7-4.2v0.2
				c-1.5,0.2-2.5,1.5-2.5,2.8c0,1.4,1,2.2,2.5,2.3c-0.6,1.1-2.2,1.8-3.7,1.8C129.5,246.3,128.3,244.9,128.3,243.2z M139.5,254.7
				v-11.8c0-1.9-0.7-3.4-2.6-3.7V239c6.4,0.2,8.9,2.7,8.9,7.7v9.4c0,1.1,0.4,1.6,1.1,1.6c0.6,0,1.2-0.6,1.8-1.7h0.2
				c-0.6,2.1-2.7,3.1-5,3.1C140.8,259.1,139.5,258,139.5,254.7z"/>
			<path class="st2" d="M149.9,231.9c3.6,0,6.5-0.4,9.2-1.5v26.1c0,1,0.6,2,2.9,2v0.2h-12.1v-0.2c2.3,0,2.9-1,2.9-2v-22.3
				c0-1.4-0.7-2-2.8-2V231.9z"/>
			<path class="st2" d="M163.7,240.5c3.6,0,6.5-0.4,9.2-1.5v17.5c0,1,0.6,2,2.9,2v0.2h-12.1v-0.2c2.3,0,2.9-1,2.9-2v-13.7
				c0-1.4-0.7-2-2.8-2V240.5z M165.7,233.3c0-2,1.6-3.3,3.9-3.3c2.3,0,3.9,1.3,3.9,3.3c0,2-1.6,3.4-3.9,3.4
				C167.3,236.7,165.7,235.3,165.7,233.3z"/>
			<path class="st2" d="M184.8,254.1c-1.3,0-2.2,0.8-2.2,1.9c0,1.1,0.8,2.5,3.4,2.8v0.2c-5.1-0.2-7.9-1.6-7.9-3.8
				c0-1.8,1.5-2.8,3.3-2.8C183,252.4,184.2,253.1,184.8,254.1z M186.1,239.3c-1.4,0.3-2.8,1-2.8,2.6c0.1,4.5,12.6,5.2,12.6,11.3
				c0,3.7-3.2,5.7-8.1,5.9v-0.2c1.6-0.3,3.4-0.8,3.4-2.8c0-4-12.6-5.5-12.6-11.3c0-3.4,3.2-5.4,7.5-5.6V239.3z M195.2,243
				c0,1.2-0.9,2.4-2.8,2.4c-1.6,0-2.8-0.7-3.3-1.8c1.2-0.1,1.8-0.9,1.7-1.8c0-1.2-1.5-2.3-3-2.5V239
				C192.1,239.3,195.2,240.9,195.2,243z"/>
			<path class="st2" d="M213.4,255.7v0.2c-1.2,1.8-3.7,3.1-6.6,3.1c-3.5,0-5.9-1.6-5.9-5.4V241h-2l0.4-0.6h1.6v-4.2
				c2.3,0,4.7-0.7,6.3-2.2v6.3h5.2l-0.4,0.6h-4.8v12.7c0,1.9,0.7,3.9,2.5,3.9C210.8,257.7,212.1,257,213.4,255.7z"/>
		</g>
	</g>
</g>
</svg>
