<?xml version="1.0" encoding="utf-8"?>
<!-- Generator: Adobe Illustrator 24.0.3, SVG Export Plug-In . SVG Version: 6.00 Build 0)  -->
<svg version="1.1" id="Layer_1" xmlns="http://www.w3.org/2000/svg" xmlns:xlink="http://www.w3.org/1999/xlink" x="0px" y="0px"
	 viewBox="0 0 300 600" style="enable-background:new 0 0 300 600;" xml:space="preserve">
<style type="text/css">
	.st0{clip-path:url(#SVGID_2_);}
	.st1{enable-background:new    ;}
	.st2{fill:#FFFFFF;}
</style>
<title>Artboard 1 copy 3</title>
<g>
	<defs>
		<rect id="SVGID_1_" y="0" width="300" height="600"/>
	</defs>
	<clipPath id="SVGID_2_">
		<use xlink:href="#SVGID_1_"  style="overflow:visible;"/>
	</clipPath>
	<g class="st0">
		<g class="st1">
			<path class="st2" d="M46.1,138.1l0.2,0.3c-2,3.2-5.5,4.7-9.3,4.7c-6.3,0-14.1-4.5-14.1-13.4c0-9.7,7.6-13.4,13.2-13.5v0.2
				c-2.7,0.6-5.6,3.1-5.6,13c0,9.8,4,12.2,8.3,12.2C42.3,141.6,44.8,139.8,46.1,138.1z M46.4,116.2v9.4h-0.3
				c-1.5-5.1-4.3-8.1-8.1-9.1v-0.2c3.3,0.2,5.4,0.7,7,1.8l1.2-1.8H46.4z"/>
			<path class="st2" d="M58.1,140.5c0,1,0.6,2,2.9,2v0.2H48.8v-0.2c2.3,0,2.9-1,2.9-2v-22.3c0-1.4-0.7-2-2.8-2v-0.2
				c3.6,0,6.5-0.4,9.2-1.5V140.5z M71.5,128.5v12c0,1,0.6,2,2.9,2v0.2H62.3v-0.2c2.3,0,2.8-1,2.8-2v-12c0-2.2-1.1-3.3-3-3.3
				c-1.1,0-2,0.3-2.9,1.2v-0.2c1-1.6,3.5-3.1,6.4-3.1C69.1,123.1,71.5,124.7,71.5,128.5z"/>
			<path class="st2" d="M76.1,138.2c0-3.3,3.1-5.2,7.4-5.2h4.2v0.2h-1.2c-2.8,0-4.1,1.8-4.1,4.2c0,2.1,0.6,3.7,2.4,3.7
				c1.1,0,2-0.6,2.8-1.3v0.2c-1.3,1.5-3.3,3.1-6.1,3.1C78.3,143.1,76.1,141.2,76.1,138.2z M77.7,127.3c0-2,1.8-4,7-4.2v0.2
				c-1.5,0.2-2.5,1.5-2.5,2.8c0,1.4,1,2.2,2.5,2.3c-0.6,1.1-2.2,1.8-3.7,1.8C78.9,130.3,77.7,128.9,77.7,127.3z M88.8,138.7V127
				c0-1.9-0.7-3.4-2.6-3.7v-0.2c6.4,0.2,8.9,2.7,8.9,7.7v9.4c0,1.1,0.4,1.6,1.1,1.6c0.6,0,1.2-0.6,1.8-1.7h0.2
				c-0.6,2.1-2.7,3.1-5,3.1C90.2,143.1,88.8,142,88.8,138.7z"/>
			<path class="st2" d="M99.5,142.5c2.3,0,2.9-1,2.9-2v-13.7c0-1.4-0.7-2-2.8-2v-0.2c3.6,0,6.5-0.4,9.2-1.5v17.4c0,1,0.6,2,2.9,2
				v0.2H99.5V142.5z M113,142.5c2.3,0,2.8-1,2.8-2v-12c0-2.2-1.1-3.3-3-3.3c-1.1,0-2,0.3-2.9,1.2v-0.2c1-1.6,3.5-3.1,6.4-3.1
				c3.5,0,5.9,1.6,5.9,5.4v12c0,1,0.6,2,2.9,2v0.2H113V142.5z"/>
			<path class="st2" d="M127.4,130c0-5,4.7-6.9,8.6-7v0.2c-1.7,0.2-2.4,2.2-2.4,6.6c0,4.7,0.8,6.5,2.4,6.7v0.2
				C132.1,136.9,127.4,135,127.4,130z M137.6,152.1c3.8-0.5,5.1-2.5,5.1-3.9c0-5.3-15-0.6-15-7.5c0-1.6,0.8-2.8,2.6-3.9l0.1,0.2
				c-0.2,0.2-0.3,0.5-0.3,0.7c0,4.3,17.5-0.7,17.5,7.7c0,4-3.4,6.5-10,6.9V152.1z M127.7,148.9c0-2.3,2.8-3,5.8-3
				c-0.7,0.3-1.7,1.4-1.7,2.7c0,1.8,2,3.1,4.2,3.5v0.2C132,152.3,127.7,151.4,127.7,148.9z M137.6,136.6c1.9-0.2,2.7-2,2.7-6.7
				c0-4.5-0.8-6.5-2.7-6.6v-0.2c4.1,0.1,8.8,2,8.8,7c0,5-4.7,6.8-8.8,6.8V136.6z M139.7,122.4c0.7-2,2.4-4.6,5.1-4.6
				c2,0,3.3,1.1,3.3,2.9c0,1.9-1.7,3-3.1,3c0-1.6-0.8-2.6-2.1-2.6c-1.2,0-2.4,0.7-3,1.4L139.7,122.4z"/>
			<path class="st2" d="M149.2,124.5c3.6,0,6.5-0.4,9.2-1.5v17.5c0,1,0.6,2,2.9,2v0.2h-12.1v-0.2c2.3,0,2.9-1,2.9-2v-13.7
				c0-1.4-0.7-2-2.8-2V124.5z M151.1,117.3c0-2,1.6-3.3,3.9-3.3s3.9,1.3,3.9,3.3c0,2-1.6,3.4-3.9,3.4S151.1,119.4,151.1,117.3z"/>
			<path class="st2" d="M162.9,142.5c2.3,0,2.9-1,2.9-2v-13.7c0-1.4-0.7-2-2.8-2v-0.2c3.6,0,6.5-0.4,9.2-1.5v17.4c0,1,0.6,2,2.9,2
				v0.2h-12.1V142.5z M176.4,142.5c2.3,0,2.8-1,2.8-2v-12c0-2.2-1.1-3.3-3-3.3c-1.1,0-2,0.3-2.9,1.2v-0.2c1-1.6,3.5-3.1,6.4-3.1
				c3.5,0,5.9,1.6,5.9,5.4v12c0,1,0.6,2,2.9,2v0.2h-12.1V142.5z"/>
			<path class="st2" d="M190.8,130c0-5,4.7-6.9,8.6-7v0.2c-1.7,0.2-2.4,2.2-2.4,6.6c0,4.7,0.8,6.5,2.4,6.7v0.2
				C195.5,136.9,190.8,135,190.8,130z M201,152.1c3.8-0.5,5.1-2.5,5.1-3.9c0-5.3-15-0.6-15-7.5c0-1.6,0.8-2.8,2.6-3.9l0.1,0.2
				c-0.2,0.2-0.3,0.5-0.3,0.7c0,4.3,17.5-0.7,17.5,7.7c0,4-3.4,6.5-10,6.9V152.1z M191.1,148.9c0-2.3,2.8-3,5.8-3
				c-0.7,0.3-1.7,1.4-1.7,2.7c0,1.8,2,3.1,4.2,3.5v0.2C195.4,152.3,191.1,151.4,191.1,148.9z M201,136.6c1.9-0.2,2.7-2,2.7-6.7
				c0-4.5-0.8-6.5-2.7-6.6v-0.2c4.1,0.1,8.8,2,8.8,7c0,5-4.7,6.8-8.8,6.8V136.6z M203.1,122.4c0.7-2,2.4-4.6,5.1-4.6
				c2,0,3.3,1.1,3.3,2.9c0,1.9-1.7,3-3.1,3c0-1.6-0.8-2.6-2.1-2.6c-1.2,0-2.4,0.7-3,1.4L203.1,122.4z"/>
		</g>
		<g class="st1">
			<path class="st2" d="M31.2,179c0,1,0.6,2,2.9,2v0.2H22V181c2.3,0,2.9-1,2.9-2v-13.7c0-1.4-0.7-2-2.8-2v-0.2
				c3.6,0,6.5-0.4,9.2-1.5V179z M44,167v12c0,1,0.5,2,2.8,2v0.2H34.8V181c2.3,0,2.9-1,2.9-2v-12c0-2.2-0.8-3.3-2.7-3.3
				c-1.1,0-2,0.5-2.5,1.2v-0.2c0.9-1.6,2.8-3.1,5.6-3.1C41.7,161.6,44,163.2,44,167z M56.8,167v12c0,1,0.6,2,2.9,2v0.2H47.5V181
				c2.3,0,2.9-1,2.9-2v-12c0-2.2-0.8-3.3-2.7-3.3c-1.1,0-2,0.5-2.5,1.2v-0.2c0.9-1.6,2.8-3.1,5.6-3.1
				C54.4,161.6,56.8,163.2,56.8,167z"/>
			<path class="st2" d="M71.3,161.8c-2.3,0.3-3,2.2-3,9.7c0,7.2,0.8,9.6,3,9.9v0.2c-4.4,0-9.6-3.6-9.6-10.1c0-6.5,5.1-9.9,9.6-9.9
				V161.8z M82.4,171.5c0,6.4-5.1,10.1-9.5,10.1v-0.2c2.3-0.2,3-2.7,3-9.9c0-7.5-0.8-9.5-3-9.7v-0.2C77.3,161.6,82.4,165,82.4,171.5
				z"/>
		</g>
		<g class="st1">
			<path class="st2" d="M99.9,178.2v0.2c-1.2,1.8-3.7,3.1-6.6,3.1c-3.5,0-5.9-1.6-5.9-5.4v-12.6h-2l0.4-0.6h1.6v-4.2
				c2.3,0,4.7-0.7,6.3-2.2v6.3h5.2l-0.4,0.6h-4.8v12.7c0,1.9,0.7,3.9,2.5,3.9C97.3,180.2,98.6,179.5,99.9,178.2z"/>
		</g>
		<g class="st1">
			<path class="st2" d="M110.9,161.8c-2.3,0.3-3,2.2-3,9.7c0,7.2,0.8,9.6,3,9.9v0.2c-4.4,0-9.6-3.6-9.6-10.1c0-6.5,5.1-9.9,9.6-9.9
				V161.8z M122,171.5c0,6.4-5.1,10.1-9.5,10.1v-0.2c2.3-0.2,3-2.7,3-9.9c0-7.5-0.8-9.5-3-9.7v-0.2C116.9,161.6,122,165,122,171.5z"
				/>
		</g>
		<g class="st1">
			<path class="st2" d="M133.7,179c0,1,0.6,2,2.9,2v0.2h-12.1V181c2.3,0,2.9-1,2.9-2v-13.7c0-1.4-0.7-2-2.8-2v-0.2
				c3.6,0,6.5-0.4,9.2-1.5V179z M144.1,165.7c0,2.7-1.9,4.4-4,4.4c-0.9,0-1.7-0.2-2.2-0.8c0.7-0.4,1.5-1.2,1.5-2.6
				c0-1.1-0.8-2.1-2.2-2.1c-1,0-1.8,0.6-2.3,1.5v-0.3c0.7-2.5,2.6-4.2,5-4.2C142.7,161.6,144.1,163.4,144.1,165.7z"/>
		</g>
		<g class="st1">
			<path class="st2" d="M156.1,161.8c-2.3,0.3-3.3,2.2-3.3,9.5c0,5.5,2.8,8.6,6.2,8.6c2.2,0,3.8-0.6,5.6-2v0.2
				c-2,2.5-5.7,3.5-8.2,3.5c-4.9,0-10.3-3.6-10.3-10.1c0-6.5,5.3-9.9,9.9-9.9V161.8z M164.6,165.9c0,2-1.4,3.7-3.8,3.7
				c-1.9,0-3.1-1.2-3.3-2.4c1.1-0.4,1.8-1.8,1.8-2.8c0-0.9-0.2-2.3-1.7-2.5v-0.3C162.6,161.6,164.6,163.7,164.6,165.9z"/>
		</g>
		<g class="st1">
			<path class="st2" d="M167.8,163.5c-0.4-0.8-0.9-1.3-2.1-1.3V162h10.8v0.2c-1.3,0-1.9,0.9-1.2,2.3l5,10.5l-3.3,6.2h-0.2
				L167.8,163.5z M166.1,187.4c0-1.7,1.3-3,3.4-3.6c-0.1,0.3-0.2,0.7-0.2,1c0,1.5,0.8,2.6,2.3,2.6c1.3,0,2.4-1.4,3.9-3.9h0.3
				c-2.1,4-3.6,7.4-6.3,7.4C167.4,190.8,166.1,189.4,166.1,187.4z M181.9,171.2c0.7-1.2,1.1-2.9,1.1-5c0-2.1-1.2-4-3.9-4V162h9.6
				v0.2c-1.3,0-1.8,0.5-2.5,1.8l-4,7.5L181.9,171.2z"/>
		</g>
		<g class="st1">
			<path class="st2" d="M198.7,161.8c-2.3,0.3-3.3,2.2-3.3,9.5c0,5.5,2.8,8.6,6.2,8.6c2.2,0,3.8-0.6,5.6-2v0.2
				c-2,2.5-5.7,3.5-8.2,3.5c-4.9,0-10.3-3.6-10.3-10.1c0-6.5,5.3-9.9,9.9-9.9V161.8z M207.2,165.9c0,2-1.4,3.7-3.8,3.7
				c-1.9,0-3.1-1.2-3.3-2.4c1.1-0.4,1.8-1.8,1.8-2.8c0-0.9-0.2-2.3-1.7-2.5v-0.3C205.3,161.6,207.2,163.7,207.2,165.9z"/>
			<path class="st2" d="M209.2,154.4c3.6,0,6.5-0.4,9.2-1.5V179c0,1,0.6,2,2.9,2v0.2h-12.1V181c2.3,0,2.9-1,2.9-2v-22.3
				c0-1.4-0.7-2-2.8-2V154.4z"/>
			<path class="st2" d="M223.6,171.5c0-6.5,4.9-9.9,9.4-9.9v0.2c-2.3,0.3-2.9,2.2-2.9,9.5c0,5.5,2.5,8.6,5.9,8.6
				c2.2,0,3.8-0.6,5.6-2v0.2c-2,2.5-5.7,3.5-8.2,3.5C228.6,181.6,223.6,178,223.6,171.5z M232.3,169.9c3.4,0,4.8-1.1,4.8-4.3
				c0-1.8-0.8-3.5-2.5-3.8v-0.2c5.1,0,7.5,3.6,7.5,6.5c0,0.6-0.1,1.4-0.2,2h-9.7V169.9z"/>
		</g>
		<g class="st1">
			<path class="st2" d="M22.1,201.5c3.6,0,6.5-0.4,9.2-1.5v17.5c0,1,0.6,2,2.9,2v0.2H22v-0.2c2.3,0,2.9-1,2.9-2v-13.7
				c0-1.4-0.7-2-2.8-2V201.5z M24,194.3c0-2,1.6-3.3,3.9-3.3c2.3,0,3.9,1.3,3.9,3.3c0,2-1.6,3.4-3.9,3.4
				C25.7,197.7,24,196.3,24,194.3z"/>
			<path class="st2" d="M35.8,219.5c2.3,0,2.9-1,2.9-2v-13.7c0-1.4-0.7-2-2.8-2v-0.2c3.6,0,6.5-0.4,9.2-1.5v17.4c0,1,0.6,2,2.9,2
				v0.2H35.8V219.5z M49.3,219.5c2.3,0,2.8-1,2.8-2v-12c0-2.2-1.1-3.3-3-3.3c-1.1,0-2,0.3-2.9,1.2v-0.2c1-1.6,3.5-3.1,6.4-3.1
				c3.5,0,5.9,1.6,5.9,5.4v12c0,1,0.6,2,2.9,2v0.2H49.3V219.5z"/>
			<path class="st2" d="M70.2,215.1c-1.3,0-2.2,0.8-2.2,1.9c0,1.1,0.8,2.5,3.4,2.8v0.2c-5.1-0.2-7.9-1.6-7.9-3.8
				c0-1.8,1.5-2.8,3.3-2.8C68.3,213.4,69.6,214.2,70.2,215.1z M71.5,200.3c-1.4,0.3-2.8,1-2.8,2.6c0.1,4.5,12.6,5.2,12.6,11.3
				c0,3.7-3.2,5.7-8.1,5.9v-0.2c1.6-0.3,3.4-0.8,3.4-2.8c0-4-12.6-5.5-12.6-11.3c0-3.4,3.2-5.4,7.5-5.6V200.3z M80.5,204
				c0,1.2-0.9,2.4-2.8,2.4c-1.6,0-2.8-0.7-3.3-1.8c1.2-0.1,1.8-0.9,1.7-1.8c0-1.2-1.5-2.3-3-2.5v-0.2
				C77.5,200.3,80.5,201.9,80.5,204z"/>
			<path class="st2" d="M92.6,214.7c0,2.2,0.7,3.3,2.7,3.3c1,0,1.8-0.3,2.7-1.2v0.2c-0.9,1.7-2.8,3.1-6,3.1c-3.5,0-5.7-1.6-5.7-5.4
				v-10.8c0-1.4-0.7-2-2.8-2v-0.2c3.6,0,6.5-0.4,9.2-1.5V214.7z M105.4,217.1c0,1.1,0.3,1.6,1,1.6c0.6,0,1.2-0.6,1.8-1.7h0.2
				c-0.6,2.1-2.7,3.1-5.2,3.1c-2.7,0-4.2-1.5-4.2-3.8v-12.5c0-1.4-0.7-2-2.7-2v-0.2c3.5,0,5.8-0.4,9.1-1.5V217.1z"/>
		</g>
		<g class="st1">
			<path class="st2" d="M119.3,217.5c0,1,0.6,2,2.9,2v0.2h-12.1v-0.2c2.3,0,2.9-1,2.9-2v-13.7c0-1.4-0.7-2-2.8-2v-0.2
				c3.6,0,6.5-0.4,9.2-1.5V217.5z M129.7,204.2c0,2.7-1.9,4.4-4,4.4c-0.9,0-1.7-0.2-2.2-0.8c0.7-0.4,1.5-1.2,1.5-2.6
				c0-1.1-0.8-2.1-2.2-2.1c-1,0-1.8,0.6-2.3,1.5v-0.3c0.7-2.5,2.6-4.2,5-4.2C128.3,200.1,129.7,201.9,129.7,204.2z"/>
		</g>
		<g class="st1">
			<path class="st2" d="M131.4,215.2c0-3.3,3.1-5.2,7.4-5.2h4.2v0.2h-1.2c-2.8,0-4.1,1.8-4.1,4.2c0,2.1,0.6,3.7,2.4,3.7
				c1.1,0,2-0.6,2.8-1.3v0.2c-1.3,1.5-3.3,3.1-6.1,3.1C133.6,220.1,131.4,218.2,131.4,215.2z M132.9,204.3c0-2,1.8-4,7-4.2v0.2
				c-1.5,0.2-2.5,1.5-2.5,2.8c0,1.4,1,2.2,2.5,2.3c-0.6,1.1-2.2,1.8-3.7,1.8C134.2,207.3,132.9,205.9,132.9,204.3z M144.1,215.7V204
				c0-1.9-0.7-3.4-2.6-3.7v-0.2c6.4,0.2,8.9,2.7,8.9,7.7v9.4c0,1.1,0.4,1.6,1.1,1.6c0.6,0,1.2-0.6,1.8-1.7h0.2
				c-0.6,2.1-2.7,3.1-5,3.1C145.5,220.1,144.1,219,144.1,215.7z"/>
			<path class="st2" d="M154.8,219.5c2.3,0,2.9-1,2.9-2v-13.7c0-1.4-0.7-2-2.8-2v-0.2c3.6,0,6.5-0.4,9.2-1.5v17.4c0,1,0.6,2,2.9,2
				v0.2h-12.1V219.5z M168.3,219.5c2.3,0,2.8-1,2.8-2v-12c0-2.2-1.1-3.3-3-3.3c-1.1,0-2,0.3-2.9,1.2v-0.2c1-1.6,3.5-3.1,6.4-3.1
				c3.5,0,5.9,1.6,5.9,5.4v12c0,1,0.6,2,2.9,2v0.2h-12.1V219.5z"/>
			<path class="st2" d="M192.3,200.3c-2.3,0.3-3.3,2.2-3.3,9.5c0,5.5,2.8,8.6,6.2,8.6c2.2,0,3.8-0.6,5.6-2v0.2
				c-2,2.5-5.7,3.5-8.2,3.5c-4.9,0-10.3-3.6-10.3-10.1c0-6.5,5.3-9.9,9.9-9.9V200.3z M200.9,204.4c0,2-1.4,3.7-3.8,3.7
				c-1.9,0-3.1-1.2-3.3-2.4c1.1-0.4,1.8-1.8,1.8-2.8c0-0.9-0.2-2.3-1.7-2.5v-0.3C198.9,200.1,200.9,202.2,200.9,204.4z"/>
			<path class="st2" d="M203.8,210c0-6.5,4.9-9.9,9.4-9.9v0.2c-2.3,0.3-2.9,2.2-2.9,9.5c0,5.5,2.5,8.6,5.9,8.6c2.2,0,3.8-0.6,5.6-2
				v0.2c-2,2.5-5.7,3.5-8.2,3.5C208.7,220.1,203.8,216.5,203.8,210z M212.4,208.4c3.4,0,4.8-1.1,4.8-4.3c0-1.8-0.8-3.5-2.5-3.8v-0.2
				c5.1,0,7.5,3.6,7.5,6.5c0,0.6-0.1,1.4-0.2,2h-9.7V208.4z"/>
		</g>
	</g>
</g>
</svg>
