<svg id="Layer_1" data-name="Layer 1" xmlns="http://www.w3.org/2000/svg" viewBox="0 0 300 600"><defs><style>.cls-1{fill:#fff;}.cls-2{fill:none;}</style></defs><title>Artboard 1 copy 3</title><path class="cls-1" d="M52.79,105.29l.14.28a9.62,9.62,0,0,1-8.44,4.23c-5.7,0-12.81-4.06-12.81-12.21,0-8.86,6.93-12.15,12-12.29v.21c-2.45.53-5.11,2.83-5.11,11.83s3.61,11.06,7.56,11.06A8.61,8.61,0,0,0,52.79,105.29Zm.28-20v8.51h-.28c-1.37-4.66-4-7.35-7.39-8.3V85.3c3.05.14,4.9.66,6.34,1.61l1-1.61Z"/><path class="cls-1" d="M63.64,107.46c0,.87.52,1.78,2.62,1.78v.21h-11v-.21c2.1,0,2.63-.91,2.63-1.78V87.16c0-1.27-.6-1.86-2.59-1.86v-.21a21.36,21.36,0,0,0,8.37-1.37ZM75.89,96.54v10.92c0,.87.52,1.78,2.62,1.78v.21h-11v-.21c2.07,0,2.59-.91,2.59-1.78V96.54c0-2-1-3-2.76-3a3.72,3.72,0,0,0-2.66,1.09v-.21A7.14,7.14,0,0,1,70.5,91.6C73.65,91.6,75.89,93.07,75.89,96.54Z"/><path class="cls-1" d="M80.05,105.32c0-3,2.8-4.76,6.72-4.76h3.78v.21h-1c-2.52,0-3.71,1.65-3.71,3.82,0,1.92.56,3.39,2.21,3.39a3.82,3.82,0,0,0,2.55-1.22V107A7.43,7.43,0,0,1,85,109.8C82,109.8,80,108.12,80.05,105.32Zm1.4-9.9c0-1.79,1.61-3.61,6.37-3.82v.21a2.56,2.56,0,0,0-2.24,2.56c0,1.26.87,2,2.28,2.13a3.94,3.94,0,0,1-3.37,1.68A2.8,2.8,0,0,1,81.45,95.42ZM91.6,105.85V95.14c0-1.72-.66-3.08-2.38-3.33V91.6c5.81.21,8.12,2.42,8.12,7v8.51c0,1,.35,1.43,1,1.43S99.44,108,100,107h.21c-.56,1.92-2.45,2.83-4.55,2.83C92.86,109.8,91.6,108.82,91.6,105.85Z"/><path class="cls-1" d="M101.29,109.24c2.1,0,2.63-.91,2.63-1.78V95c0-1.26-.6-1.85-2.59-1.85V93a21.3,21.3,0,0,0,8.36-1.37v15.86c0,.87.53,1.78,2.63,1.78v.21h-11Zm12.32,0c2.07,0,2.6-.91,2.6-1.78V96.54c0-2-1-3-2.77-3a3.74,3.74,0,0,0-2.66,1.09v-.21a7.16,7.16,0,0,1,5.81-2.84c3.15,0,5.39,1.47,5.39,4.94v10.92c0,.87.53,1.78,2.63,1.78v.21h-11Z"/><path class="cls-1" d="M126.67,97.94c0-4.55,4.27-6.27,7.84-6.34v.21c-1.51.14-2.21,2-2.21,6,0,4.24.7,6,2.21,6.09v.21C131,104.13,126.67,102.45,126.67,97.94ZM136,118c3.5-.42,4.62-2.31,4.62-3.57,0-4.86-13.65-.52-13.65-6.79,0-1.43.73-2.55,2.34-3.57l.11.18a.81.81,0,0,0-.32.66c0,3.92,16-.63,16,7,0,3.61-3.12,5.95-9.07,6.3Zm-9-2.94c0-2.06,2.55-2.69,5.32-2.69a2.94,2.94,0,0,0-1.51,2.48c0,1.61,1.82,2.84,3.82,3.15v.21C130.83,118.13,127,117.36,127,115.05Zm9-11.13c1.71-.14,2.41-1.85,2.41-6.09,0-4.06-.73-5.88-2.41-6V91.6c3.71.07,8,1.79,8,6.34s-4.3,6.19-8,6.19Zm1.89-13c.59-1.79,2.2-4.2,4.62-4.2,1.86,0,3,1,3,2.66a2.79,2.79,0,0,1-2.84,2.73c0-1.47-.77-2.34-1.89-2.34a3.8,3.8,0,0,0-2.7,1.26Z"/><path class="cls-1" d="M146.48,92.93a21.49,21.49,0,0,0,8.36-1.36v15.89c0,.87.53,1.78,2.63,1.78v.21h-11v-.21c2.1,0,2.63-.91,2.63-1.78V95c0-1.26-.6-1.86-2.59-1.86Zm1.78-6.58c0-1.82,1.47-3,3.57-3s3.57,1.23,3.57,3-1.47,3.08-3.57,3.08S148.26,88.21,148.26,86.35Z"/><path class="cls-1" d="M158.94,109.24c2.1,0,2.62-.91,2.62-1.78V95c0-1.26-.59-1.85-2.59-1.85V93a21.36,21.36,0,0,0,8.37-1.37v15.86c0,.87.52,1.78,2.62,1.78v.21h-11Zm12.32,0c2.06,0,2.59-.91,2.59-1.78V96.54c0-2-1-3-2.77-3a3.74,3.74,0,0,0-2.66,1.09v-.21a7.16,7.16,0,0,1,5.81-2.84c3.15,0,5.39,1.47,5.39,4.94v10.92c0,.87.53,1.78,2.63,1.78v.21h-11Z"/><path class="cls-1" d="M184.31,97.94c0-4.55,4.27-6.27,7.84-6.34v.21c-1.5.14-2.2,2-2.2,6,0,4.24.7,6,2.2,6.09v.21C188.62,104.13,184.31,102.45,184.31,97.94Zm9.31,20c3.5-.42,4.62-2.31,4.62-3.57,0-4.86-13.65-.52-13.65-6.79,0-1.43.74-2.55,2.35-3.57l.1.18a.81.81,0,0,0-.31.66c0,3.92,16-.63,16,7,0,3.61-3.12,5.95-9.07,6.3Zm-9-2.94c0-2.06,2.56-2.69,5.32-2.69a2.93,2.93,0,0,0-1.5,2.48c0,1.61,1.82,2.84,3.81,3.15v.21C188.48,118.13,184.59,117.36,184.59,115.05Zm9-11.13c1.72-.14,2.42-1.85,2.42-6.09,0-4.06-.74-5.88-2.42-6V91.6c3.71.07,8,1.79,8,6.34s-4.31,6.19-8,6.19Zm1.89-13c.6-1.79,2.21-4.2,4.62-4.2,1.86,0,3,1,3,2.66a2.79,2.79,0,0,1-2.84,2.73c0-1.47-.77-2.34-1.89-2.34a3.78,3.78,0,0,0-2.69,1.26Z"/><path class="cls-1" d="M39.24,146.46c0,.87.53,1.78,2.63,1.78v.21h-11v-.21c2.1,0,2.63-.91,2.63-1.78V134c0-1.26-.6-1.85-2.6-1.85V132a21.32,21.32,0,0,0,8.37-1.37Zm11.62-10.92v10.92c0,.87.49,1.78,2.59,1.78v.21h-11v-.21c2.07,0,2.63-.91,2.63-1.78V135.54c0-2-.77-3-2.45-3a3.07,3.07,0,0,0-2.31,1.05v-.21a5.65,5.65,0,0,1,5.11-2.8C48.76,130.6,50.86,132.07,50.86,135.54Zm11.59,0v10.92c0,.87.52,1.78,2.62,1.78v.21h-11v-.21c2.06,0,2.62-.91,2.62-1.78V135.54c0-2-.77-3-2.45-3a3.08,3.08,0,0,0-2.31,1.05v-.21A5.67,5.67,0,0,1,57,130.6C60.35,130.6,62.45,132.07,62.45,135.54Z"/><path class="cls-1" d="M75.68,130.81c-2.07.25-2.77,2-2.77,8.82,0,6.58.7,8.75,2.77,9v.21A8.92,8.92,0,0,1,67,139.63a8.78,8.78,0,0,1,8.72-9Zm10.08,8.82a8.92,8.92,0,0,1-8.69,9.17v-.21c2.07-.21,2.74-2.41,2.74-9,0-6.86-.7-8.61-2.74-8.82v-.21A8.73,8.73,0,0,1,85.76,139.63Z"/><path class="cls-1" d="M101.65,145.76V146a7.32,7.32,0,0,1-6,2.83c-3.15,0-5.39-1.43-5.39-4.93V132.39H88.45l.38-.53h1.44v-3.78a8.82,8.82,0,0,0,5.74-2v5.74h4.73l-.39.53H96V144c0,1.75.67,3.57,2.31,3.57A5.2,5.2,0,0,0,101.65,145.76Z"/><path class="cls-1" d="M111.65,130.81c-2.06.25-2.76,2-2.76,8.82,0,6.58.7,8.75,2.76,9v.21a8.92,8.92,0,0,1-8.71-9.17,8.77,8.77,0,0,1,8.71-9Zm10.09,8.82a8.92,8.92,0,0,1-8.69,9.17v-.21c2.07-.21,2.73-2.41,2.73-9,0-6.86-.7-8.61-2.73-8.82v-.21A8.73,8.73,0,0,1,121.74,139.63Z"/><path class="cls-1" d="M132.44,146.46c0,.87.53,1.78,2.63,1.78v.21H124v-.21c2.1,0,2.63-.91,2.63-1.78V134c0-1.26-.6-1.85-2.59-1.85V132a21.3,21.3,0,0,0,8.36-1.37Zm9.46-12.08a3.75,3.75,0,0,1-3.61,4,2.37,2.37,0,0,1-2-.77,2.56,2.56,0,0,0,1.36-2.38,1.86,1.86,0,0,0-2-1.89,2.42,2.42,0,0,0-2.1,1.33v-.28a4.85,4.85,0,0,1,4.55-3.78A3.55,3.55,0,0,1,141.9,134.38Z"/><path class="cls-1" d="M152.74,130.81c-2.06.25-3,2-3,8.68,0,5,2.55,7.81,5.67,7.81a7.6,7.6,0,0,0,5.11-1.86v.21c-1.82,2.31-5.15,3.15-7.42,3.15a9.15,9.15,0,0,1-9.35-9.17,9,9,0,0,1,9-9Zm7.78,3.75a3.26,3.26,0,0,1-3.51,3.36,3,3,0,0,1-3-2.21,3,3,0,0,0,1.68-2.55,2.07,2.07,0,0,0-1.51-2.31v-.25C158.73,130.6,160.52,132.56,160.52,134.56Z"/><path class="cls-1" d="M163.42,132.39a1.89,1.89,0,0,0-1.93-1.23V131h9.8v.21c-1.22,0-1.71.84-1.12,2.07l4.59,9.55-3,5.67h-.21Zm-1.54,21.7c0-1.51,1.19-2.77,3.08-3.29a2.51,2.51,0,0,0-.14.87,2,2,0,0,0,2.06,2.35c1.23,0,2.21-1.3,3.54-3.54h.24c-1.92,3.61-3.25,6.72-5.7,6.72A2.91,2.91,0,0,1,161.88,154.09Zm14.35-14.74a9.64,9.64,0,0,0,1-4.51,3.39,3.39,0,0,0-3.57-3.68V131h8.72v.21c-1.16,0-1.62.46-2.28,1.65l-3.64,6.86Z"/><path class="cls-1" d="M191.49,130.81c-2.07.25-3,2-3,8.68,0,5,2.56,7.81,5.67,7.81a7.62,7.62,0,0,0,5.12-1.86v.21c-1.82,2.31-5.15,3.15-7.43,3.15a9.15,9.15,0,0,1-9.34-9.17,9,9,0,0,1,9-9Zm7.77,3.75a3.26,3.26,0,0,1-3.5,3.36,3,3,0,0,1-3-2.21,3,3,0,0,0,1.68-2.55,2.07,2.07,0,0,0-1.5-2.31v-.25C197.48,130.6,199.26,132.56,199.26,134.56Z"/><path class="cls-1" d="M201.08,124.09a21.3,21.3,0,0,0,8.36-1.37v23.74c0,.87.53,1.78,2.63,1.78v.21H201v-.21c2.1,0,2.63-.91,2.63-1.78v-20.3c0-1.27-.6-1.86-2.59-1.86Z"/><path class="cls-1" d="M214.17,139.63a8.67,8.67,0,0,1,8.57-9v.21c-2.06.25-2.62,2-2.62,8.68,0,5,2.24,7.81,5.35,7.81a7.58,7.58,0,0,0,5.11-1.86v.21c-1.82,2.31-5.14,3.15-7.42,3.15A8.87,8.87,0,0,1,214.17,139.63Zm7.87-1.47c3.08,0,4.38-1,4.38-3.92,0-1.68-.7-3.22-2.28-3.43v-.21c4.62,0,6.86,3.29,6.86,6a9.85,9.85,0,0,1-.17,1.82H222Z"/><path class="cls-1" d="M30.91,170.93a21.58,21.58,0,0,0,8.37-1.36v15.89c0,.87.52,1.78,2.62,1.78v.21h-11v-.21c2.11,0,2.63-.91,2.63-1.78V173c0-1.26-.6-1.86-2.59-1.86Zm1.78-6.58c0-1.82,1.47-3,3.58-3s3.57,1.23,3.57,3-1.47,3.08-3.57,3.08S32.69,166.21,32.69,164.35Z"/><path class="cls-1" d="M43.37,187.24c2.1,0,2.62-.91,2.62-1.78V173c0-1.26-.59-1.85-2.59-1.85V171a21.36,21.36,0,0,0,8.37-1.37v15.86c0,.87.52,1.78,2.63,1.78v.21h-11Zm12.32,0c2.07,0,2.59-.91,2.59-1.78V174.54c0-2-1-3-2.76-3a3.7,3.7,0,0,0-2.66,1.09v-.21a7.14,7.14,0,0,1,5.81-2.84c3.15,0,5.39,1.47,5.39,4.94v10.92c0,.87.52,1.78,2.62,1.78v.21h-11Z"/><path class="cls-1" d="M74.66,183.29a1.79,1.79,0,0,0-2,1.75c0,1,.7,2.31,3.12,2.55v.21c-4.66-.17-7.22-1.43-7.22-3.46a2.73,2.73,0,0,1,3-2.59A3.55,3.55,0,0,1,74.66,183.29Zm1.16-13.48c-1.3.25-2.56.91-2.53,2.35.11,4.06,11.45,4.72,11.45,10.29,0,3.39-2.87,5.18-7.38,5.35v-.21c1.47-.24,3.11-.77,3.11-2.59,0-3.64-11.48-5-11.48-10.29,0-3.08,2.91-4.93,6.83-5.11Zm8.26,3.4a2.29,2.29,0,0,1-2.59,2.17,3,3,0,0,1-3-1.68,1.57,1.57,0,0,0,1.58-1.65c0-1.05-1.33-2.06-2.73-2.24v-.21C81.31,169.81,84.08,171.25,84.08,173.21Z"/><path class="cls-1" d="M95.06,182.87c0,2,.67,3,2.42,3a3.13,3.13,0,0,0,2.42-1.08V185a5.86,5.86,0,0,1-5.43,2.83c-3.15,0-5.18-1.47-5.18-4.93V173c0-1.26-.6-1.85-2.59-1.85V171a21.3,21.3,0,0,0,8.36-1.37Zm11.66,2.24c0,1,.32,1.43,1,1.43s1.12-.52,1.68-1.57h.21c-.56,1.92-2.45,2.83-4.76,2.83s-3.86-1.4-3.86-3.43V173c0-1.26-.59-1.85-2.48-1.85V171a22.65,22.65,0,0,0,8.26-1.37Z"/><path class="cls-1" d="M119.36,185.46c0,.87.52,1.78,2.62,1.78v.21H111v-.21c2.1,0,2.63-.91,2.63-1.78V173c0-1.26-.6-1.85-2.59-1.85V171a21.39,21.39,0,0,0,8.37-1.37Zm9.45-12.08a3.75,3.75,0,0,1-3.61,4,2.37,2.37,0,0,1-2-.77,2.56,2.56,0,0,0,1.36-2.38,1.86,1.86,0,0,0-2-1.89,2.42,2.42,0,0,0-2.1,1.33v-.28a4.85,4.85,0,0,1,4.55-3.78A3.55,3.55,0,0,1,128.81,173.38Z"/><path class="cls-1" d="M130.31,183.32c0-3,2.8-4.76,6.72-4.76h3.78v.21h-1.05c-2.52,0-3.71,1.65-3.71,3.82,0,1.92.56,3.39,2.2,3.39a3.84,3.84,0,0,0,2.56-1.22V185a7.45,7.45,0,0,1-5.57,2.83C132.27,187.8,130.27,186.12,130.31,183.32Zm1.4-9.9c0-1.79,1.61-3.61,6.37-3.82v.21a2.56,2.56,0,0,0-2.24,2.56c0,1.26.87,2,2.27,2.13a3.93,3.93,0,0,1-3.36,1.68A2.8,2.8,0,0,1,131.71,173.42Zm10.15,10.43V173.14c0-1.72-.67-3.08-2.38-3.33v-.21c5.81.21,8.12,2.42,8.12,7v8.51c0,1,.35,1.43,1,1.43s1.12-.52,1.68-1.57h.21c-.56,1.92-2.45,2.83-4.55,2.83C143.12,187.8,141.86,186.82,141.86,183.85Z"/><path class="cls-1" d="M151.55,187.24c2.1,0,2.63-.91,2.63-1.78V173c0-1.26-.6-1.85-2.59-1.85V171A21.3,21.3,0,0,0,160,169.6v15.86c0,.87.53,1.78,2.63,1.78v.21h-11Zm12.32,0c2.07,0,2.6-.91,2.6-1.78V174.54c0-2-1-3-2.77-3a3.74,3.74,0,0,0-2.66,1.09v-.21a7.14,7.14,0,0,1,5.81-2.84c3.15,0,5.39,1.47,5.39,4.94v10.92c0,.87.53,1.78,2.63,1.78v.21h-11Z"/><path class="cls-1" d="M185.71,169.81c-2.06.25-3,2-3,8.68,0,5,2.55,7.81,5.67,7.81a7.62,7.62,0,0,0,5.11-1.86v.21c-1.82,2.31-5.15,3.15-7.42,3.15a9.15,9.15,0,0,1-9.35-9.17,9,9,0,0,1,9-9Zm7.77,3.75a3.26,3.26,0,0,1-3.5,3.36,3,3,0,0,1-3-2.21,3,3,0,0,0,1.68-2.55,2.07,2.07,0,0,0-1.51-2.31v-.25C191.7,169.6,193.48,171.56,193.48,173.56Z"/><path class="cls-1" d="M196.11,178.63a8.67,8.67,0,0,1,8.57-9v.21c-2.06.25-2.62,2-2.62,8.68,0,5,2.24,7.81,5.35,7.81a7.62,7.62,0,0,0,5.12-1.86v.21c-1.83,2.31-5.15,3.15-7.43,3.15A8.87,8.87,0,0,1,196.11,178.63Zm7.87-1.47c3.09,0,4.38-1,4.38-3.92,0-1.68-.7-3.22-2.28-3.43v-.21c4.62,0,6.86,3.29,6.86,6a9.85,9.85,0,0,1-.17,1.82H204Z"/><rect class="cls-2" width="300" height="600"/></svg>