<svg id="Layer_1" data-name="Layer 1" xmlns="http://www.w3.org/2000/svg" viewBox="0 0 300 600"><defs><style>.cls-1{fill:#fff;}.cls-2{fill:none;}</style></defs><title>Artboard 1 copy 4</title><path class="cls-1" d="M31.19,53.46a21.54,21.54,0,0,0,8.37-1.36V68c0,.88.52,1.79,2.62,1.79V70h-11v-.21c2.1,0,2.62-.91,2.62-1.79V55.53c0-1.26-.59-1.86-2.59-1.86ZM33,46.88c0-1.83,1.47-3.05,3.57-3.05s3.57,1.22,3.57,3.05S38.65,50,36.55,50,33,48.73,33,46.88Z"/><path class="cls-1" d="M50.37,65.83a1.79,1.79,0,0,0-2,1.75c0,1,.7,2.31,3.12,2.56v.21c-4.66-.18-7.22-1.44-7.22-3.47a2.73,2.73,0,0,1,3-2.59A3.55,3.55,0,0,1,50.37,65.83Zm1.16-13.49c-1.3.25-2.56.91-2.53,2.35.11,4.06,11.45,4.73,11.45,10.3,0,3.4-2.87,5.18-7.38,5.36v-.21c1.47-.25,3.11-.77,3.11-2.59,0-3.65-11.48-5-11.48-10.3,0-3.09,2.91-4.94,6.83-5.12Zm8.26,3.4a2.29,2.29,0,0,1-2.59,2.17,3,3,0,0,1-3-1.68,1.57,1.57,0,0,0,1.58-1.65c0-1-1.33-2.06-2.73-2.24v-.21C57,52.34,59.79,53.78,59.79,55.74Z"/><path class="cls-1" d="M72.28,61.17a8.67,8.67,0,0,1,8.58-9v.21c-2.07.25-2.63,2-2.63,8.69,0,5,2.24,7.81,5.36,7.81A7.62,7.62,0,0,0,88.7,67v.21c-1.82,2.32-5.15,3.16-7.42,3.16A8.88,8.88,0,0,1,72.28,61.17Zm7.88-1.47c3.08,0,4.37-1,4.37-3.93,0-1.68-.7-3.22-2.27-3.43v-.21c4.62,0,6.86,3.29,6.86,6a9.94,9.94,0,0,1-.18,1.82H80.16Z"/><path class="cls-1" d="M91.63,65.86c0-3,2.8-4.76,6.72-4.76h3.78v.21h-1c-2.52,0-3.71,1.65-3.71,3.82,0,1.92.56,3.4,2.21,3.4a3.81,3.81,0,0,0,2.55-1.23v.21a7.44,7.44,0,0,1-5.56,2.84C93.59,70.35,91.6,68.67,91.63,65.86ZM93,56c0-1.79,1.61-3.61,6.37-3.82v.21a2.56,2.56,0,0,0-2.24,2.56c0,1.26.88,2,2.28,2.13a3.91,3.91,0,0,1-3.36,1.69A2.81,2.81,0,0,1,93,56Zm10.15,10.44V55.67c0-1.72-.66-3.08-2.38-3.33v-.21c5.82.21,8.13,2.42,8.13,7v8.51c0,1,.35,1.44,1,1.44s1.12-.53,1.68-1.58h.21c-.56,1.93-2.45,2.84-4.55,2.84C104.45,70.35,103.18,69.37,103.18,66.39Z"/><path class="cls-1" d="M119.6,65.83a1.79,1.79,0,0,0-2,1.75c0,1,.7,2.31,3.11,2.56v.21c-4.65-.18-7.21-1.44-7.21-3.47a2.73,2.73,0,0,1,3-2.59A3.55,3.55,0,0,1,119.6,65.83Zm1.15-13.49c-1.29.25-2.55.91-2.52,2.35.11,4.06,11.45,4.73,11.45,10.3,0,3.4-2.87,5.18-7.39,5.36v-.21c1.48-.25,3.12-.77,3.12-2.59,0-3.65-11.48-5-11.48-10.3,0-3.09,2.9-4.94,6.82-5.12Zm8.27,3.4a2.29,2.29,0,0,1-2.59,2.17,3,3,0,0,1-3-1.68A1.57,1.57,0,0,0,125,54.58c0-1-1.33-2.06-2.74-2.24v-.21C126.25,52.34,129,53.78,129,55.74Z"/><path class="cls-1" d="M132.62,53.92a1.89,1.89,0,0,0-1.93-1.23v-.21h9.8v.21c-1.22,0-1.71.84-1.12,2.07L144,64.32,141,70h-.21Zm-1.54,21.72c0-1.51,1.19-2.77,3.08-3.3a2.6,2.6,0,0,0-.14.88,2,2,0,0,0,2.06,2.35c1.23,0,2.21-1.3,3.54-3.54h.24c-1.92,3.61-3.25,6.73-5.7,6.73A2.92,2.92,0,0,1,131.08,75.64Zm14.35-14.75a9.68,9.68,0,0,0,1-4.52,3.39,3.39,0,0,0-3.57-3.68v-.21h8.72v.21c-1.16,0-1.61.46-2.28,1.65l-3.64,6.86Z"/><path class="cls-1" d="M38.68,93.79l4.59,9.57-3,5.67h-.21L31.93,93A1.9,1.9,0,0,0,30,91.72v-.21h9.8v.21C38.58,91.72,38.09,92.56,38.68,93.79Zm11.52,0,4.58,9.57-3,5.67h-.21L46.07,98.14,45,100.24l-.21-.32A5.26,5.26,0,0,0,45,96L43.44,93a1.89,1.89,0,0,0-1.92-1.23v-.21h9.8v.21C50.09,91.72,49.6,92.56,50.2,93.79Zm12.18-2.28v.21c-1.16,0-1.65.46-2.28,1.65l-3.64,6.87-.21-.32a9.56,9.56,0,0,0,1-4.52,3.39,3.39,0,0,0-3.57-3.68v-.21Z"/><path class="cls-1" d="M62.69,92.5a21.36,21.36,0,0,0,8.37-1.37V107c0,.88.52,1.79,2.62,1.79V109h-11v-.21c2.1,0,2.62-.91,2.62-1.79V94.56c0-1.26-.59-1.85-2.59-1.85Zm1.79-6.59c0-1.82,1.47-3,3.57-3s3.57,1.23,3.57,3S70.15,89,68.05,89,64.48,87.77,64.48,85.91Z"/><path class="cls-1" d="M88.73,106.33v.21a7.29,7.29,0,0,1-6,2.84c-3.16,0-5.4-1.43-5.4-4.94V93H75.54l.38-.52h1.43V88.64a8.84,8.84,0,0,0,5.75-2v5.75h4.72l-.38.52H83.1v11.6c0,1.75.66,3.57,2.31,3.57A5.13,5.13,0,0,0,88.73,106.33Z"/><path class="cls-1" d="M97.76,107c0,.88.53,1.79,2.63,1.79V109h-11v-.21c2.1,0,2.62-.91,2.62-1.79V86.71c0-1.26-.59-1.85-2.59-1.85v-.21a21.32,21.32,0,0,0,8.37-1.37ZM110,96.1V107c0,.88.53,1.79,2.63,1.79V109h-11v-.21c2.06,0,2.59-.91,2.59-1.79V96.1c0-2-1-3-2.77-3a3.72,3.72,0,0,0-2.66,1.08V94a7.16,7.16,0,0,1,5.81-2.84C107.77,91.16,110,92.64,110,96.1Z"/><path class="cls-1" d="M132.34,109.17v.21a13.24,13.24,0,0,1-6.79-1.71l-1.16,1.71h-.28v-8.55h.28A11.76,11.76,0,0,0,132.34,109.17Zm10.29-7c0,4.52-3.36,7-8.79,7.18v-.21c1.93-.35,3.82-1.47,3.82-3.57,0-6.13-13.37-6.69-13.37-13.81,0-4.2,3.39-6.62,8-6.93v.21c-1.61.28-3.08,1.29-3.08,3.22C129.26,94.42,142.63,95.09,142.63,102.2Zm-8.79-17.13v-.21a11.31,11.31,0,0,1,6.31,1.85l1.26-1.85h.28v7.81h-.28A11.13,11.13,0,0,0,133.84,85.07Z"/><path class="cls-1" d="M158.59,106.33v.21a7.3,7.3,0,0,1-6,2.84c-3.15,0-5.39-1.43-5.39-4.94V93h-1.82l.39-.52h1.43V88.64a8.84,8.84,0,0,0,5.75-2v5.75h4.72l-.39.52H153v11.6c0,1.75.66,3.57,2.3,3.57A5.13,5.13,0,0,0,158.59,106.33Z"/><path class="cls-1" d="M159.71,104.9c0-3.05,2.8-4.77,6.72-4.77h3.78v.21h-1.05c-2.52,0-3.71,1.65-3.71,3.82,0,1.93.56,3.4,2.2,3.4a3.86,3.86,0,0,0,2.56-1.23v.21a7.43,7.43,0,0,1-5.57,2.84C161.67,109.38,159.67,107.7,159.71,104.9Zm1.4-9.92c0-1.78,1.61-3.61,6.37-3.82v.21a2.56,2.56,0,0,0-2.24,2.56c0,1.26.87,2,2.27,2.14a3.93,3.93,0,0,1-3.36,1.68A2.81,2.81,0,0,1,161.11,95Zm10.15,10.44V94.7c0-1.71-.67-3.08-2.38-3.33v-.21c5.81.21,8.12,2.42,8.12,7v8.51c0,1,.35,1.44,1,1.44s1.12-.53,1.68-1.58h.21c-.56,1.93-2.45,2.84-4.55,2.84C172.52,109.38,171.26,108.4,171.26,105.42Z"/><path class="cls-1" d="M189.35,107c0,.88.53,1.79,2.63,1.79V109H181v-.21c2.1,0,2.63-.91,2.63-1.79V94.6c0-1.26-.6-1.86-2.59-1.86v-.21a21.3,21.3,0,0,0,8.36-1.37ZM198.81,95a3.75,3.75,0,0,1-3.61,4,2.36,2.36,0,0,1-2-.77,2.57,2.57,0,0,0,1.36-2.38,1.86,1.86,0,0,0-2-1.89,2.39,2.39,0,0,0-2.1,1.33V95a4.85,4.85,0,0,1,4.55-3.79A3.56,3.56,0,0,1,198.81,95Z"/><path class="cls-1" d="M31.79,147.85c2.1,0,2.62-.84,2.62-1.78V126.24c0-.95-.52-1.79-2.62-1.79v-.21H43v.21c-2.1,0-2.63.84-2.63,1.79v19.83c0,.94.53,1.78,2.63,1.78v.21H31.79Z"/><path class="cls-1" d="M45.33,147.85c2.1,0,2.63-.91,2.63-1.78V133.63c0-1.26-.6-1.86-2.59-1.86v-.21a21.49,21.49,0,0,0,8.36-1.36v15.87c0,.87.53,1.78,2.63,1.78v.21h-11Zm12.32,0c2.07,0,2.59-.91,2.59-1.78V135.14c0-2-1-3-2.76-3a3.69,3.69,0,0,0-2.66,1.09V133a7.14,7.14,0,0,1,5.81-2.83c3.15,0,5.39,1.47,5.39,4.94v10.93c0,.87.52,1.78,2.62,1.78v.21h-11Z"/><path class="cls-1" d="M76.62,143.9a1.79,1.79,0,0,0-2,1.75c0,1,.7,2.31,3.12,2.55v.21c-4.66-.17-7.22-1.43-7.22-3.46a2.73,2.73,0,0,1,3-2.6A3.55,3.55,0,0,1,76.62,143.9Zm1.16-13.49c-1.3.24-2.56.91-2.53,2.34.11,4.07,11.45,4.73,11.45,10.3,0,3.4-2.87,5.19-7.38,5.36v-.21c1.47-.24,3.11-.77,3.11-2.59,0-3.64-11.48-5-11.48-10.3,0-3.08,2.91-4.94,6.83-5.11Zm8.26,3.4A2.29,2.29,0,0,1,83.45,136a3,3,0,0,1-3-1.68,1.57,1.57,0,0,0,1.58-1.65c0-1.05-1.33-2.07-2.73-2.24v-.21C83.27,130.41,86,131.84,86,133.81Z"/><path class="cls-1" d="M97,143.48c0,2,.66,3,2.41,3a3.11,3.11,0,0,0,2.42-1.08v.21a5.85,5.85,0,0,1-5.43,2.83c-3.15,0-5.18-1.47-5.18-4.93v-9.85c0-1.26-.59-1.86-2.59-1.86v-.21A21.54,21.54,0,0,0,97,130.2Zm11.65,2.24c0,1,.32,1.43.95,1.43s1.12-.52,1.68-1.57h.21c-.56,1.92-2.45,2.83-4.76,2.83s-3.85-1.4-3.85-3.43V133.63c0-1.26-.6-1.86-2.49-1.86v-.21a22.86,22.86,0,0,0,8.26-1.36Z"/><path class="cls-1" d="M121.32,146.07c0,.87.52,1.78,2.62,1.78v.21h-11v-.21c2.1,0,2.63-.91,2.63-1.78V133.63c0-1.26-.6-1.86-2.59-1.86v-.21a21.54,21.54,0,0,0,8.37-1.36ZM130.77,134a3.75,3.75,0,0,1-3.61,4,2.37,2.37,0,0,1-2-.77,2.56,2.56,0,0,0,1.36-2.38,1.86,1.86,0,0,0-2-1.89,2.42,2.42,0,0,0-2.1,1.33V134A4.85,4.85,0,0,1,127,130.2,3.55,3.55,0,0,1,130.77,134Z"/><path class="cls-1" d="M132.27,143.93c0-3.05,2.8-4.76,6.72-4.76h3.78v.21h-1.05a3.46,3.46,0,0,0-3.71,3.81c0,1.93.56,3.4,2.21,3.4a3.82,3.82,0,0,0,2.55-1.22v.21a7.43,7.43,0,0,1-5.56,2.83C134.23,148.41,132.23,146.73,132.27,143.93Zm1.4-9.91c0-1.79,1.61-3.61,6.37-3.82v.21A2.55,2.55,0,0,0,137.8,133c0,1.27.87,2,2.28,2.14a3.94,3.94,0,0,1-3.37,1.68A2.8,2.8,0,0,1,133.67,134Zm10.15,10.44V133.74c0-1.72-.66-3.09-2.38-3.33v-.21c5.81.21,8.12,2.41,8.12,7v8.52c0,1,.35,1.43,1,1.43s1.12-.52,1.68-1.57h.21c-.56,1.92-2.45,2.83-4.55,2.83C145.08,148.41,143.82,147.43,143.82,144.46Z"/><path class="cls-1" d="M153.51,147.85c2.1,0,2.63-.91,2.63-1.78V133.63c0-1.26-.6-1.86-2.59-1.86v-.21a21.58,21.58,0,0,0,8.37-1.36v15.87c0,.87.52,1.78,2.62,1.78v.21h-11Zm12.32,0c2.07,0,2.6-.91,2.6-1.78V135.14c0-2-1-3-2.77-3a3.69,3.69,0,0,0-2.66,1.09V133a7.15,7.15,0,0,1,5.81-2.83c3.15,0,5.39,1.47,5.39,4.94v10.93c0,.87.53,1.78,2.63,1.78v.21h-11Z"/><path class="cls-1" d="M187.67,130.41c-2.06.24-3,2-3,8.69,0,5,2.55,7.81,5.67,7.81a7.58,7.58,0,0,0,5.11-1.86v.21c-1.82,2.31-5.14,3.15-7.42,3.15a9.15,9.15,0,0,1-9.35-9.17,9,9,0,0,1,9-9Zm7.78,3.75a3.26,3.26,0,0,1-3.5,3.36,3,3,0,0,1-3-2.21,3,3,0,0,0,1.68-2.56,2.08,2.08,0,0,0-1.5-2.31v-.24C193.66,130.2,195.45,132.16,195.45,134.16Z"/><path class="cls-1" d="M198.07,139.24a8.66,8.66,0,0,1,8.57-9v.21c-2.06.24-2.62,2-2.62,8.69,0,5,2.24,7.81,5.35,7.81a7.62,7.62,0,0,0,5.12-1.86v.21c-1.82,2.31-5.15,3.15-7.43,3.15A8.87,8.87,0,0,1,198.07,139.24Zm7.87-1.48c3.09,0,4.38-1,4.38-3.92,0-1.68-.7-3.22-2.28-3.43v-.21c4.63,0,6.87,3.29,6.87,6a9.85,9.85,0,0,1-.18,1.82h-8.79Z"/><path class="cls-1" d="M53.24,168.64,45.37,187.1h-.49l-10-21.83c-.56-1.19-1.93-1.79-3.71-1.79v-.21h9.41l7.28,15.84,5.39-11.18ZM38.86,186.89v.21h-7.7v-.21c2.31,0,3.39-1.47,3.43-2.95l.28-15.13.28.63.28,14.5C35.46,185.45,36.55,186.89,38.86,186.89Zm21.73-21.62V185.1c0,1,.53,1.79,2.63,1.79v.21H52v-.21c2.1,0,2.62-.84,2.62-1.79V163.27h8.58v.21C61.12,163.48,60.59,164.33,60.59,165.27Z"/><path class="cls-1" d="M74.28,169.44c-2.07.25-2.77,2-2.77,8.83,0,6.59.7,8.76,2.77,9v.21a8.92,8.92,0,0,1-8.72-9.18,8.78,8.78,0,0,1,8.72-9Zm10.08,8.83a8.93,8.93,0,0,1-8.68,9.18v-.21c2.06-.21,2.73-2.42,2.73-9,0-6.87-.7-8.62-2.73-8.83v-.21A8.73,8.73,0,0,1,84.36,178.27Z"/><path class="cls-1" d="M100.25,184.4v.21a7.33,7.33,0,0,1-6,2.84c-3.15,0-5.39-1.44-5.39-4.94V171H87.05l.39-.53h1.43v-3.78a8.85,8.85,0,0,0,5.74-2v5.74h4.73L99,171H94.61v11.59c0,1.76.67,3.58,2.31,3.58A5.17,5.17,0,0,0,100.25,184.4Z"/><path class="cls-1" d="M110.26,169.44c-2.07.25-2.77,2-2.77,8.83,0,6.59.7,8.76,2.77,9v.21a8.92,8.92,0,0,1-8.72-9.18,8.78,8.78,0,0,1,8.72-9Zm10.08,8.83a8.93,8.93,0,0,1-8.68,9.18v-.21c2.06-.21,2.73-2.42,2.73-9,0-6.87-.7-8.62-2.73-8.83v-.21A8.73,8.73,0,0,1,120.34,178.27Z"/><path class="cls-1" d="M131.05,185.1c0,.88.52,1.79,2.62,1.79v.21h-11v-.21c2.11,0,2.63-.91,2.63-1.79V172.66c0-1.26-.6-1.85-2.59-1.85v-.21a21.36,21.36,0,0,0,8.37-1.37ZM140.5,173a3.75,3.75,0,0,1-3.61,4,2.37,2.37,0,0,1-2-.77,2.57,2.57,0,0,0,1.36-2.39,1.86,1.86,0,0,0-2-1.89,2.42,2.42,0,0,0-2.1,1.33V173a4.85,4.85,0,0,1,4.55-3.78A3.55,3.55,0,0,1,140.5,173Z"/><path class="cls-1" d="M151.34,169.44c-2.06.25-3,2-3,8.69,0,5,2.55,7.81,5.67,7.81a7.62,7.62,0,0,0,5.11-1.85v.21c-1.82,2.31-5.14,3.15-7.42,3.15a9.16,9.16,0,0,1-9.35-9.18,9,9,0,0,1,9-9Zm7.78,3.75a3.25,3.25,0,0,1-3.5,3.36,3,3,0,0,1-3.05-2.2,3,3,0,0,0,1.68-2.56,2.07,2.07,0,0,0-1.5-2.31v-.25C157.33,169.23,159.12,171.19,159.12,173.19Z"/><path class="cls-1" d="M162,171a1.89,1.89,0,0,0-1.93-1.23v-.21h9.8v.21c-1.22,0-1.71.84-1.12,2.07l4.59,9.56-3,5.68h-.21Zm-1.54,21.72c0-1.51,1.19-2.77,3.08-3.29a2.51,2.51,0,0,0-.14.87,2,2,0,0,0,2.06,2.35c1.23,0,2.21-1.3,3.54-3.54h.24c-1.92,3.61-3.25,6.73-5.7,6.73A2.91,2.91,0,0,1,160.48,192.74ZM174.83,178a9.68,9.68,0,0,0,1-4.52,3.39,3.39,0,0,0-3.57-3.68v-.21H181v.21c-1.16,0-1.61.46-2.28,1.65L175,178.3Z"/><path class="cls-1" d="M190.09,169.44c-2.06.25-3,2-3,8.69,0,5,2.55,7.81,5.67,7.81a7.66,7.66,0,0,0,5.11-1.85v.21c-1.82,2.31-5.15,3.15-7.42,3.15a9.16,9.16,0,0,1-9.35-9.18,9,9,0,0,1,9-9Zm7.77,3.75a3.25,3.25,0,0,1-3.5,3.36,3,3,0,0,1-3-2.2,3,3,0,0,0,1.68-2.56,2.07,2.07,0,0,0-1.51-2.31v-.25C196.08,169.23,197.86,171.19,197.86,173.19Z"/><path class="cls-1" d="M199.68,162.71a21.49,21.49,0,0,0,8.36-1.36V185.1c0,.88.53,1.79,2.63,1.79v.21h-11v-.21c2.1,0,2.63-.91,2.63-1.79V164.78c0-1.26-.6-1.86-2.59-1.86Z"/><path class="cls-1" d="M212.77,178.27a8.67,8.67,0,0,1,8.57-9v.21c-2.06.25-2.62,2-2.62,8.69,0,5,2.24,7.81,5.36,7.81a7.66,7.66,0,0,0,5.11-1.85v.21c-1.82,2.31-5.15,3.15-7.43,3.15A8.87,8.87,0,0,1,212.77,178.27Zm7.87-1.47c3.09,0,4.38-1,4.38-3.93,0-1.68-.7-3.22-2.27-3.43v-.21c4.62,0,6.86,3.29,6.86,6a9.94,9.94,0,0,1-.18,1.82h-8.79Z"/><rect class="cls-2" width="300" height="600"/></svg>