<svg id="Layer_1" data-name="Layer 1" xmlns="http://www.w3.org/2000/svg" viewBox="0 0 300 600"><defs><style>.cls-1{fill:#ffac00;}.cls-2{fill:#fff;}</style></defs><title>Artboard 1 copy</title><path class="cls-1" d="M30,215.71V261.3a16.25,16.25,0,0,0,8.77,14.43l68.33,35.45a20.29,20.29,0,0,0,18.72,0l68.33-35.45a16.25,16.25,0,0,0,8.77-14.43V215.71a7.59,7.59,0,0,0-7.59-7.59H37.59A7.59,7.59,0,0,0,30,215.71Z"/><path class="cls-2" d="M102.92,240.66l.31-.45c.23-.31.47-.33.82-.13a3.45,3.45,0,0,0,2,.73c.93,0,1.5-.46,1.5-1.14,0-1.9-4.66-1.5-4.66-4.61,0-1.76,1.46-2.9,3.36-2.9a4.69,4.69,0,0,1,2.58.76.55.55,0,0,1,.18.8l-.25.46c-.22.41-.51.36-.81.2a3.22,3.22,0,0,0-1.73-.55c-.93,0-1.52.45-1.52,1.13,0,1.87,4.66,1.39,4.66,4.57a3,3,0,0,1-3.31,3,5.26,5.26,0,0,1-3.06-1A.51.51,0,0,1,102.92,240.66Z"/><path class="cls-2" d="M113.41,233.89h-2.69a.52.52,0,0,1-.59-.58v-.39a.52.52,0,0,1,.59-.59h7.18a.52.52,0,0,1,.57.59v.39a.51.51,0,0,1-.57.58h-2.69v7.84a.52.52,0,0,1-.59.59H114a.51.51,0,0,1-.57-.59Z"/><path class="cls-2" d="M120.85,232.8a.63.63,0,0,1,.66-.47h.9a.62.62,0,0,1,.66.47l3.12,8.84c.15.41,0,.68-.47.68h-.65a.63.63,0,0,1-.66-.48l-.71-2.08h-3.5l-.69,2.07a.63.63,0,0,1-.66.49h-.65c-.43,0-.62-.27-.48-.68Zm2.4,5.48-.88-2.67c-.17-.57-.4-1.55-.4-1.55h0s-.22,1-.39,1.55l-.9,2.67Z"/><path class="cls-2" d="M127.46,232.92a.52.52,0,0,1,.57-.59h2.7a4.63,4.63,0,0,1,1.9.26,2.78,2.78,0,0,1,1.68,2.73,2.88,2.88,0,0,1-1.66,2.73v0a3.48,3.48,0,0,1,.32.52l1.65,3c.24.41.06.71-.41.71h-.76a.73.73,0,0,1-.69-.41L131,238.59h-1.74v3.14a.52.52,0,0,1-.58.59H128a.51.51,0,0,1-.57-.59Zm3.43,4.09a1.47,1.47,0,0,0,1.58-1.59,1.34,1.34,0,0,0-.79-1.36,2.41,2.41,0,0,0-1.09-.17h-1.33V237Z"/><path class="cls-2" d="M103.58,245.12a.31.31,0,0,1,.34-.35h.3a.31.31,0,0,1,.33.35v9.19a.31.31,0,0,1-.33.36h-.3a.32.32,0,0,1-.34-.36Z"/><path class="cls-2" d="M106.9,247.94a.31.31,0,0,1,.35-.35h.25a.31.31,0,0,1,.34.35v.81a2.14,2.14,0,0,1-.06.51h0a3.13,3.13,0,0,1,2.86-1.84c1.76,0,2.38,1,2.38,2.74v4.15a.33.33,0,0,1-.36.36h-.26c-.23,0-.34-.13-.34-.36v-3.89c0-1.12-.18-2.1-1.55-2.1a2.74,2.74,0,0,0-2.69,2.88v3.11c0,.23-.11.36-.34.36h-.26a.32.32,0,0,1-.35-.36Z"/><path class="cls-2" d="M114.57,253.54l.11-.14c.12-.17.28-.18.48-.06A3,3,0,0,0,117,254c.79,0,1.43-.39,1.43-1.14,0-1.59-3.78-1.11-3.78-3.45,0-1.31,1.11-2,2.4-2a3.31,3.31,0,0,1,2,.57.32.32,0,0,1,.1.47l-.1.15a.3.3,0,0,1-.48.1,2.7,2.7,0,0,0-1.52-.45c-.75,0-1.39.33-1.39,1.1,0,1.63,3.77,1.11,3.77,3.48a2.13,2.13,0,0,1-2.4,2,3.74,3.74,0,0,1-2.39-.81A.31.31,0,0,1,114.57,253.54Z"/><path class="cls-2" d="M120.83,247.94c0-.23.11-.35.33-.35h.27a.31.31,0,0,1,.35.35v3.9c0,1.11.17,2.09,1.54,2.09a2.74,2.74,0,0,0,2.61-3v-3a.32.32,0,0,1,.36-.35h.26a.31.31,0,0,1,.34.35v6.37c0,.23-.11.36-.34.36h-.25a.32.32,0,0,1-.34-.36v-.81a3.32,3.32,0,0,1,0-.51h0a3.08,3.08,0,0,1-2.79,1.84c-1.67,0-2.36-.9-2.36-2.74Z"/><path class="cls-2" d="M129,247.94a.31.31,0,0,1,.35-.35h.25a.31.31,0,0,1,.34.35v1a2.67,2.67,0,0,1-.06.56h0a2.53,2.53,0,0,1,2.28-1.92c.25,0,.37.12.37.34v.26c0,.22-.16.35-.4.35-1.49,0-2.21,1.7-2.21,3.18v2.64c0,.23-.11.36-.34.36h-.26a.32.32,0,0,1-.35-.36Z"/><path class="cls-2" d="M137.4,250.33h.41v-.22c0-1.37-.75-1.83-1.75-1.83a3.32,3.32,0,0,0-1.72.49.32.32,0,0,1-.47-.11l-.09-.14a.32.32,0,0,1,.1-.48,4.27,4.27,0,0,1,2.25-.62,2.4,2.4,0,0,1,2.63,2.71v4.18c0,.23-.11.36-.33.36h-.23a.32.32,0,0,1-.35-.36v-.56a3.12,3.12,0,0,1,0-.53h0a2.62,2.62,0,0,1-2.39,1.61,2.17,2.17,0,0,1-2.39-2.06C133.08,250.46,136,250.33,137.4,250.33Zm-1.76,3.7c1.36,0,2.17-1.41,2.17-2.64v-.34h-.4c-1.11,0-3.35,0-3.35,1.63A1.42,1.42,0,0,0,135.64,254Z"/><path class="cls-2" d="M140.77,247.94a.32.32,0,0,1,.35-.35h.26a.31.31,0,0,1,.33.35v.81a2.55,2.55,0,0,1-.05.51h0a3.1,3.1,0,0,1,2.85-1.84c1.76,0,2.38,1,2.38,2.74v4.15a.32.32,0,0,1-.35.36h-.27a.32.32,0,0,1-.34-.36v-3.89c0-1.12-.18-2.1-1.54-2.1a2.74,2.74,0,0,0-2.69,2.88v3.11c0,.23-.11.36-.34.36h-.27a.32.32,0,0,1-.35-.36Z"/><path class="cls-2" d="M152.21,247.42a3.72,3.72,0,0,1,2.35.8.31.31,0,0,1,.05.48l-.1.15c-.13.2-.28.2-.48.07a2.92,2.92,0,0,0-1.79-.64,2.85,2.85,0,0,0,0,5.7,3.07,3.07,0,0,0,2-.75.29.29,0,0,1,.47.08l.1.14a.34.34,0,0,1-.09.48,3.89,3.89,0,0,1-2.52.9,3.71,3.71,0,1,1,0-7.41Z"/><path class="cls-2" d="M159.18,247.42c1.89,0,3,1.36,3,3.38a.36.36,0,0,1-.37.35h-5.09a2.7,2.7,0,0,0,2.74,2.83,3,3,0,0,0,1.86-.65c.2-.13.35-.1.46.08l.12.17a.33.33,0,0,1-.1.47,4.07,4.07,0,0,1-2.37.78,3.58,3.58,0,0,1-3.7-3.7A3.45,3.45,0,0,1,159.18,247.42Zm2,3a2,2,0,0,0-2-2.22,2.44,2.44,0,0,0-2.44,2.22Z"/><path class="cls-2" d="M103.75,258.53a.56.56,0,0,1,.61-.56h.88a.66.66,0,0,1,.67.48l1.78,4.46c.23.59.51,1.46.51,1.46h0s.26-.87.49-1.46l1.79-4.46a.64.64,0,0,1,.67-.48h.87a.55.55,0,0,1,.61.56l.72,8.83a.51.51,0,0,1-.57.6h-.63a.54.54,0,0,1-.6-.56l-.38-5c0-.67,0-1.55,0-1.55h0s-.31,1-.53,1.55l-1.45,3.4a.64.64,0,0,1-.66.47h-.59a.66.66,0,0,1-.68-.47l-1.43-3.4c-.23-.58-.55-1.57-.55-1.57h0s0,.9,0,1.57l-.38,5a.54.54,0,0,1-.61.56h-.63a.51.51,0,0,1-.57-.6Z"/><path class="cls-2" d="M118.62,260.62a3.76,3.76,0,1,1-3.94,3.75A3.78,3.78,0,0,1,118.62,260.62Zm0,6a2.24,2.24,0,1,0-2.13-2.24A2.14,2.14,0,0,0,118.62,266.61Z"/><path class="cls-2" d="M124.05,262.31h-.38q-.57,0-.57-.6v-.24a.52.52,0,0,1,.59-.59h.4v-1.46a.54.54,0,0,1,.6-.59h.56a.53.53,0,0,1,.59.59v1.46h1a.53.53,0,0,1,.59.59v.24a.53.53,0,0,1-.57.6h-1.06v2.78a1.18,1.18,0,0,0,1.15,1.34c.44,0,.59.18.59.58v.43c0,.42-.23.59-.73.59a2.57,2.57,0,0,1-2.8-2.63Z"/><path class="cls-2" d="M132,260.62a3.76,3.76,0,1,1-3.94,3.75A3.79,3.79,0,0,1,132,260.62Zm0,6a2.24,2.24,0,1,0-2.12-2.24A2.14,2.14,0,0,0,132,266.61Z"/><path class="cls-2" d="M137.3,261.38a.52.52,0,0,1,.57-.59h.55a.53.53,0,0,1,.59.59v.67a3.06,3.06,0,0,1,0,.49h0a2.47,2.47,0,0,1,2.08-1.81c.4,0,.54.2.54.59v.55a.55.55,0,0,1-.61.59c-1.31,0-1.94,1.29-1.94,2.6v2.31a.52.52,0,0,1-.58.59h-.62c-.38,0-.57-.19-.57-.59Z"/><path class="cls-2" d="M145.91,260.62a4.06,4.06,0,0,1,2.35.71.54.54,0,0,1,.11.81l-.18.28c-.21.32-.45.32-.79.15a2.54,2.54,0,0,0-1.39-.43,2.13,2.13,0,0,0-2.18,2.22,2.17,2.17,0,0,0,2.23,2.25,2.81,2.81,0,0,0,1.61-.55c.35-.19.62-.15.8.19l.14.26a.55.55,0,0,1-.15.79,4.31,4.31,0,0,1-2.55.83,3.76,3.76,0,1,1,0-7.51Z"/><path class="cls-2" d="M150.12,269.31a1.19,1.19,0,0,0,.51.13,1.36,1.36,0,0,0,1.14-1l.27-.63-2.73-6.38c-.19-.4,0-.68.45-.68h.76a.62.62,0,0,1,.66.47l1.35,3.66c.13.38.27,1,.27,1h0s.12-.56.23-.94l1.27-3.67a.61.61,0,0,1,.66-.49h.71c.43,0,.61.26.47.67L153.22,269a2.71,2.71,0,0,1-2.59,1.89,3,3,0,0,1-1-.21.51.51,0,0,1-.27-.76l.13-.31A.51.51,0,0,1,150.12,269.31Z"/><path class="cls-2" d="M160.47,260.62a4.09,4.09,0,0,1,2.35.71.54.54,0,0,1,.11.81l-.18.28c-.22.32-.45.32-.79.15a2.61,2.61,0,0,0-1.4-.43,2.13,2.13,0,0,0-2.18,2.22,2.18,2.18,0,0,0,2.24,2.25,2.77,2.77,0,0,0,1.6-.55c.36-.19.62-.15.81.19l.14.26a.55.55,0,0,1-.16.79,4.27,4.27,0,0,1-2.54.83,3.76,3.76,0,1,1,0-7.51Z"/><path class="cls-2" d="M164.36,258.56a.53.53,0,0,1,.58-.59h.62a.53.53,0,0,1,.58.59v7c0,.71.29.83.56.86a.47.47,0,0,1,.44.51v.48a.53.53,0,0,1-.59.6c-1,0-2.19-.25-2.19-2.31Z"/><path class="cls-2" d="M171.37,260.62a3.1,3.1,0,0,1,3.18,3.42.62.62,0,0,1-.62.6h-4.38a2.07,2.07,0,0,0,2.16,2,2.93,2.93,0,0,0,1.54-.46c.36-.17.61-.13.79.19l.17.29a.53.53,0,0,1-.2.78,4.45,4.45,0,0,1-2.43.72,3.68,3.68,0,0,1-3.86-3.76A3.54,3.54,0,0,1,171.37,260.62Zm1.41,2.94a1.46,1.46,0,0,0-1.45-1.59,1.74,1.74,0,0,0-1.73,1.59Z"/><path class="cls-2" d="M69.65,263.47a.91.91,0,0,1-.45-.11,1,1,0,0,1-.5-1.19l10.42-32.06a2.21,2.21,0,0,1,2.12-1.54h0a2.19,2.19,0,0,1,2.11,1.54l2.11,6.36a.75.75,0,0,1-.47.95.76.76,0,0,1-1-.48l-2.11-6.36a.7.7,0,0,0-.68-.5h0a.7.7,0,0,0-.68.5l-9.42,29,13.27-18.16a4.13,4.13,0,0,1,3.33-1.69h8.84a2.23,2.23,0,0,1,1.31,4l-8.09,5.88-.08.07,3.12,9.61a2.22,2.22,0,0,1-3.42,2.48l-7-5.07a2.22,2.22,0,0,1,0-3.6l5.86-4.25.09-.08L97,242.52a.69.69,0,0,0,.26-.8.7.7,0,0,0-.68-.49H87.74a2.66,2.66,0,0,0-2.12,1.07L70.45,263.07A1,1,0,0,1,69.65,263.47Zm18.78-12.85-5.11,3.71a.7.7,0,0,0-.3.58.72.72,0,0,0,.3.58l7,5.07a.67.67,0,0,0,.84,0,.69.69,0,0,0,.26-.8Z"/><path class="cls-2" d="M70.19,247.54a.82.82,0,0,1-.44-.14l-5.15-3.65a2.22,2.22,0,0,1,1.3-4h6.32a.76.76,0,0,1,0,1.51H65.9a.71.71,0,0,0-.42,1.29l5.15,3.65a.75.75,0,0,1-.44,1.37Z"/><path class="cls-2" d="M77.21,274.12A2.49,2.49,0,0,1,76,273.8l-13.18-7.48a.76.76,0,0,1-.38-.66V249.59a.76.76,0,1,1,1.51,0v15.64l12.79,7.25a.92.92,0,0,0,1,0l9.35-5.85a.75.75,0,1,1,.8,1.28l-9.35,5.85A2.45,2.45,0,0,1,77.21,274.12Z"/></svg>