<svg id="Layer_1" data-name="Layer 1" xmlns="http://www.w3.org/2000/svg" xmlns:xlink="http://www.w3.org/1999/xlink" viewBox="0 0 300 600"><defs><style>.cls-1{fill:none;}.cls-2{clip-path:url(#clip-path);}.cls-3{fill:#ffac00;}.cls-4{fill:#fff;}</style><clipPath id="clip-path"><rect class="cls-1" width="300" height="599.49"/></clipPath></defs><title>Artboard 1 copy</title><g class="cls-2"><path class="cls-3" d="M24.62,241.31v45.6a16.26,16.26,0,0,0,8.77,14.43l68.33,35.45a20.35,20.35,0,0,0,18.72,0l68.33-35.45a16.26,16.26,0,0,0,8.77-14.43v-45.6a7.59,7.59,0,0,0-7.59-7.59H32.21A7.59,7.59,0,0,0,24.62,241.31Z"/><path class="cls-4" d="M97.54,266.26l.31-.45c.23-.31.46-.32.82-.13a3.45,3.45,0,0,0,2,.73c.93,0,1.49-.46,1.49-1.14,0-1.9-4.65-1.5-4.65-4.61,0-1.76,1.46-2.9,3.36-2.9a4.69,4.69,0,0,1,2.58.76.56.56,0,0,1,.18.8l-.26.47c-.21.4-.5.35-.8.19a3.25,3.25,0,0,0-1.73-.55c-.93,0-1.52.45-1.52,1.13,0,1.87,4.66,1.39,4.66,4.57a3,3,0,0,1-3.31,3,5.33,5.33,0,0,1-3.07-1A.53.53,0,0,1,97.54,266.26Z"/><path class="cls-4" d="M108,259.49h-2.69a.52.52,0,0,1-.59-.58v-.39a.52.52,0,0,1,.59-.59h7.17a.53.53,0,0,1,.58.59v.39a.52.52,0,0,1-.58.58h-2.68v7.84a.52.52,0,0,1-.59.59h-.64a.51.51,0,0,1-.57-.59Z"/><path class="cls-4" d="M115.47,258.41a.63.63,0,0,1,.66-.48h.9a.62.62,0,0,1,.66.48l3.12,8.83c.14.41,0,.68-.47.68h-.65a.62.62,0,0,1-.66-.48l-.71-2.08h-3.5l-.69,2.07a.62.62,0,0,1-.66.49h-.65c-.44,0-.62-.27-.48-.68Zm2.4,5.47-.88-2.67c-.17-.57-.4-1.55-.4-1.55h0s-.22,1-.39,1.55l-.9,2.67Z"/><path class="cls-4" d="M122.08,258.52a.52.52,0,0,1,.57-.59h2.7a4.43,4.43,0,0,1,1.9.27,2.77,2.77,0,0,1,1.68,2.73,2.9,2.9,0,0,1-1.66,2.73v0a4.73,4.73,0,0,1,.32.53l1.65,3c.24.4,0,.7-.41.7h-.76a.73.73,0,0,1-.69-.41l-1.76-3.32h-1.74v3.14a.52.52,0,0,1-.58.59h-.65a.51.51,0,0,1-.57-.59Zm3.43,4.09a1.46,1.46,0,0,0,1.57-1.59,1.33,1.33,0,0,0-.78-1.36,2.56,2.56,0,0,0-1.09-.17h-1.33v3.12Z"/><path class="cls-4" d="M98.2,270.73c0-.23.11-.36.34-.36h.3a.31.31,0,0,1,.33.36v9.19a.31.31,0,0,1-.33.35h-.3a.31.31,0,0,1-.34-.35Z"/><path class="cls-4" d="M101.51,273.54a.32.32,0,0,1,.36-.35h.25a.32.32,0,0,1,.34.35v.82a2.11,2.11,0,0,1-.06.5h0a3.15,3.15,0,0,1,2.86-1.84c1.75,0,2.37,1,2.37,2.74v4.16a.32.32,0,0,1-.35.35H107a.31.31,0,0,1-.33-.35V276c0-1.11-.19-2.1-1.55-2.1a2.75,2.75,0,0,0-2.69,2.89v3.11a.31.31,0,0,1-.34.35h-.26a.32.32,0,0,1-.36-.35Z"/><path class="cls-4" d="M109.18,279.14l.12-.14c.12-.17.28-.18.48-.06a3,3,0,0,0,1.87.65c.79,0,1.43-.39,1.43-1.14,0-1.59-3.78-1.11-3.78-3.45,0-1.3,1.11-2,2.4-2a3.3,3.3,0,0,1,2,.58.3.3,0,0,1,.09.46l-.09.16a.31.31,0,0,1-.48.09,2.7,2.7,0,0,0-1.52-.45c-.75,0-1.4.33-1.4,1.1,0,1.63,3.78,1.11,3.78,3.48a2.14,2.14,0,0,1-2.4,2,3.65,3.65,0,0,1-2.39-.82A.32.32,0,0,1,109.18,279.14Z"/><path class="cls-4" d="M115.45,273.54a.31.31,0,0,1,.33-.35h.27a.32.32,0,0,1,.35.35v3.9c0,1.11.17,2.1,1.54,2.1a2.75,2.75,0,0,0,2.61-3v-3a.32.32,0,0,1,.36-.35h.26a.31.31,0,0,1,.34.35v6.38a.31.31,0,0,1-.34.35h-.25a.31.31,0,0,1-.34-.35v-.82a3.32,3.32,0,0,1,0-.51h0a3.08,3.08,0,0,1-2.79,1.85c-1.68,0-2.36-.9-2.36-2.75Z"/><path class="cls-4" d="M123.58,273.54a.32.32,0,0,1,.36-.35h.25a.32.32,0,0,1,.34.35v1a2.67,2.67,0,0,1-.06.56h0a2.52,2.52,0,0,1,2.28-1.91c.25,0,.36.11.36.33v.26a.34.34,0,0,1-.39.35c-1.49,0-2.21,1.7-2.21,3.18v2.65a.31.31,0,0,1-.34.35h-.26a.32.32,0,0,1-.36-.35Z"/><path class="cls-4" d="M132,275.93h.41v-.22c0-1.37-.75-1.83-1.75-1.83a3.32,3.32,0,0,0-1.72.49.34.34,0,0,1-.48-.11l-.08-.14a.32.32,0,0,1,.1-.48,4.24,4.24,0,0,1,2.25-.62,2.41,2.41,0,0,1,2.63,2.72v4.18a.31.31,0,0,1-.34.35h-.22a.31.31,0,0,1-.35-.35v-.57a3.12,3.12,0,0,1,0-.53h0a2.62,2.62,0,0,1-2.39,1.62,2.18,2.18,0,0,1-2.39-2.07C127.7,276.06,130.65,275.93,132,275.93Zm-1.76,3.7a2.46,2.46,0,0,0,2.17-2.64v-.34H132c-1.11,0-3.35,0-3.35,1.63A1.42,1.42,0,0,0,130.26,279.63Z"/><path class="cls-4" d="M135.39,273.54a.32.32,0,0,1,.35-.35H136a.31.31,0,0,1,.34.35v.82a2.51,2.51,0,0,1-.05.5h0a3.15,3.15,0,0,1,2.86-1.84c1.76,0,2.38,1,2.38,2.74v4.16a.32.32,0,0,1-.35.35h-.27a.31.31,0,0,1-.34-.35V276c0-1.11-.18-2.1-1.55-2.1a2.75,2.75,0,0,0-2.68,2.89v3.11a.31.31,0,0,1-.34.35h-.27a.32.32,0,0,1-.35-.35Z"/><path class="cls-4" d="M146.83,273a3.72,3.72,0,0,1,2.35.8.31.31,0,0,1,0,.48l-.1.16c-.13.19-.28.19-.48.07a2.92,2.92,0,0,0-1.79-.65,2.85,2.85,0,0,0,0,5.7,3.07,3.07,0,0,0,2-.75.29.29,0,0,1,.47.09l.1.14a.34.34,0,0,1-.09.48,4,4,0,0,1-2.52.9,3.71,3.71,0,1,1,0-7.42Z"/><path class="cls-4" d="M153.8,273c1.89,0,3,1.37,3,3.38a.36.36,0,0,1-.37.35H151.3a2.7,2.7,0,0,0,2.74,2.83,3,3,0,0,0,1.86-.65c.2-.13.35-.1.46.09l.12.16a.34.34,0,0,1-.1.47,4.07,4.07,0,0,1-2.37.79,3.58,3.58,0,0,1-3.7-3.7A3.46,3.46,0,0,1,153.8,273Zm2,3a2,2,0,0,0-2-2.22,2.43,2.43,0,0,0-2.43,2.22Z"/><path class="cls-4" d="M98.37,284.14a.56.56,0,0,1,.61-.57h.88a.64.64,0,0,1,.66.48l1.79,4.46c.23.59.51,1.47.51,1.47h0s.26-.88.49-1.47l1.79-4.46a.64.64,0,0,1,.67-.48h.87a.56.56,0,0,1,.61.57L108,293a.51.51,0,0,1-.57.6h-.63a.54.54,0,0,1-.6-.56l-.38-5c0-.66,0-1.55,0-1.55h0s-.31,1-.53,1.55l-1.45,3.4a.64.64,0,0,1-.66.47h-.59a.65.65,0,0,1-.68-.47l-1.43-3.4c-.23-.58-.55-1.56-.55-1.56h0s0,.9,0,1.56l-.38,5a.53.53,0,0,1-.6.56h-.63a.51.51,0,0,1-.57-.6Z"/><path class="cls-4" d="M113.24,286.22A3.76,3.76,0,1,1,109.3,290,3.78,3.78,0,0,1,113.24,286.22Zm0,6a2.24,2.24,0,1,0-2.13-2.23A2.13,2.13,0,0,0,113.24,292.21Z"/><path class="cls-4" d="M118.67,287.91h-.38a.51.51,0,0,1-.57-.59v-.24a.52.52,0,0,1,.59-.59h.4V285a.54.54,0,0,1,.6-.59h.56a.53.53,0,0,1,.59.59v1.47h1a.53.53,0,0,1,.59.59v.24a.53.53,0,0,1-.58.59h-1.05v2.78a1.18,1.18,0,0,0,1.15,1.34c.44,0,.59.18.59.58V293c0,.43-.24.59-.73.59a2.56,2.56,0,0,1-2.8-2.63Z"/><path class="cls-4" d="M126.65,286.22a3.76,3.76,0,1,1-3.94,3.76A3.79,3.79,0,0,1,126.65,286.22Zm0,6a2.24,2.24,0,1,0-2.12-2.23A2.13,2.13,0,0,0,126.65,292.21Z"/><path class="cls-4" d="M131.92,287a.52.52,0,0,1,.57-.59H133a.53.53,0,0,1,.59.59v.67a3.27,3.27,0,0,1,0,.5h0a2.47,2.47,0,0,1,2.08-1.82c.4,0,.54.2.54.59v.55a.55.55,0,0,1-.61.59c-1.31,0-1.94,1.3-1.94,2.61V293a.52.52,0,0,1-.58.59h-.62c-.38,0-.57-.19-.57-.59Z"/><path class="cls-4" d="M140.53,286.22a4,4,0,0,1,2.35.72.53.53,0,0,1,.11.8l-.18.28c-.21.32-.45.32-.79.15a2.57,2.57,0,0,0-1.39-.43,2.13,2.13,0,0,0-2.18,2.22,2.17,2.17,0,0,0,2.23,2.25,2.81,2.81,0,0,0,1.61-.55c.35-.19.62-.15.8.19l.14.27a.54.54,0,0,1-.16.78,4.18,4.18,0,0,1-2.54.83,3.76,3.76,0,1,1,0-7.51Z"/><path class="cls-4" d="M144.74,294.92a1.16,1.16,0,0,0,1.65-.83l.27-.64-2.73-6.37c-.19-.41,0-.69.45-.69h.76a.62.62,0,0,1,.66.48l1.35,3.65c.13.38.27,1,.27,1h0s.13-.57.24-.95l1.27-3.67a.61.61,0,0,1,.66-.49h.7c.44,0,.62.27.48.67l-2.95,7.57a2.67,2.67,0,0,1-3.59,1.68.51.51,0,0,1-.27-.76l.13-.31A.51.51,0,0,1,144.74,294.92Z"/><path class="cls-4" d="M155.08,286.22a4,4,0,0,1,2.35.72.53.53,0,0,1,.12.8l-.19.28c-.21.32-.45.32-.78.15a2.61,2.61,0,0,0-1.4-.43A2.13,2.13,0,0,0,153,290a2.18,2.18,0,0,0,2.24,2.25,2.77,2.77,0,0,0,1.6-.55c.36-.19.62-.15.81.19l.14.27a.54.54,0,0,1-.16.78,4.21,4.21,0,0,1-2.55.83,3.76,3.76,0,1,1,0-7.51Z"/><path class="cls-4" d="M159,284.16a.53.53,0,0,1,.58-.59h.62a.53.53,0,0,1,.58.59v7c0,.7.29.83.56.85a.47.47,0,0,1,.44.51V293a.53.53,0,0,1-.59.6c-1,0-2.19-.25-2.19-2.3Z"/><path class="cls-4" d="M166,286.22a3.1,3.1,0,0,1,3.18,3.42.62.62,0,0,1-.62.6h-4.38a2.06,2.06,0,0,0,2.16,2,2.93,2.93,0,0,0,1.54-.46c.35-.17.61-.13.79.2l.17.28a.54.54,0,0,1-.2.79,4.58,4.58,0,0,1-2.43.71,3.67,3.67,0,0,1-3.86-3.75A3.54,3.54,0,0,1,166,286.22Zm1.4,2.94a1.45,1.45,0,0,0-1.44-1.59,1.75,1.75,0,0,0-1.74,1.59Z"/><path class="cls-4" d="M64.27,289.08a1,1,0,0,1-.45-.11,1,1,0,0,1-.5-1.19l10.42-32.07a2.19,2.19,0,0,1,2.12-1.53h0A2.18,2.18,0,0,1,78,255.71l2.11,6.36a.75.75,0,0,1-1.43.47l-2.11-6.35a.69.69,0,0,0-.68-.5h0a.68.68,0,0,0-.68.49l-9.42,29L79,267a4.13,4.13,0,0,1,3.33-1.69H91.2a2.23,2.23,0,0,1,1.3,4l-8.08,5.87-.08.08,3.12,9.6A2.22,2.22,0,0,1,84,287.39l-7-5.08a2.22,2.22,0,0,1,0-3.6l5.86-4.25.09-.07,8.62-6.26a.72.72,0,0,0-.42-1.3H82.36a2.63,2.63,0,0,0-2.12,1.07L65.07,288.67A1,1,0,0,1,64.27,289.08Zm18.78-12.85-5.11,3.7a.71.71,0,0,0,0,1.16l7,5.08a.72.72,0,0,0,1.1-.8Z"/><path class="cls-4" d="M64.81,273.14a.74.74,0,0,1-.44-.14l-5.15-3.65a2.22,2.22,0,0,1,1.3-4h6.32a.76.76,0,0,1,0,1.51H60.52a.68.68,0,0,0-.68.5.69.69,0,0,0,.26.8l5.14,3.64a.75.75,0,0,1-.43,1.37Z"/><path class="cls-4" d="M71.83,299.72a2.46,2.46,0,0,1-1.21-.32l-13.18-7.48a.75.75,0,0,1-.38-.65V275.19a.76.76,0,0,1,1.51,0v15.64l12.79,7.26a1,1,0,0,0,1,0l9.34-5.86a.76.76,0,0,1,1,.24.75.75,0,0,1-.23,1l-9.35,5.85A2.45,2.45,0,0,1,71.83,299.72Z"/></g></svg>