<svg id="Layer_1" data-name="Layer 1" xmlns="http://www.w3.org/2000/svg" xmlns:xlink="http://www.w3.org/1999/xlink" viewBox="0 0 300 150"><defs><style>.cls-1{fill:none;}.cls-2{clip-path:url(#clip-path);}.cls-3{fill:#263845;}</style><clipPath id="clip-path"><rect class="cls-1" y="0.35" width="300" height="150"/></clipPath></defs><title>Artboard 1 copy</title><g class="cls-2"><path class="cls-3" d="M13.27,69.2l.2.3.2,10.5a2.18,2.18,0,0,0,2.45,2.1v.15h-5.5V82.1A2.2,2.2,0,0,0,13.07,80Zm13.25,13H23.75L13.3,66.68a2.72,2.72,0,0,0-2.65-1.28v-.15h6.67L26.52,79Zm-.05-5.75-.2-.27L26,67.5a2.18,2.18,0,0,0-2.45-2.1v-.15H29v.15a2.18,2.18,0,0,0-2.45,2.1Z"/><path class="cls-3" d="M40.2,65.25H45l-9.92,17H30.3Zm-9.18,0h7.55l-.07.15a7.71,7.71,0,0,0-7.28,5.88H31ZM36.75,82.1a8.54,8.54,0,0,0,7.8-6.67h.2v6.82H36.67Z"/><path class="cls-3" d="M52,66.05c0,1.45-1.55,3.38-4.05,4.4l-.08-.22a3.49,3.49,0,0,0,1.43-2.43,1.58,1.58,0,0,0-1.7-1.65,2.31,2.31,0,0,1,2.37-2.27A2,2,0,0,1,52,66.05Z"/><path class="cls-3" d="M57.07,79.28a1.28,1.28,0,0,0-1.4,1.25c0,.72.5,1.65,2.23,1.82v.15c-3.33-.12-5.15-1-5.15-2.47a2,2,0,0,1,2.12-1.85A2.53,2.53,0,0,1,57.07,79.28Zm.83-9.63c-.93.18-1.83.65-1.8,1.68.07,2.9,8.17,3.37,8.17,7.35,0,2.42-2,3.7-5.27,3.82v-.15c1-.17,2.22-.55,2.22-1.85,0-2.6-8.2-3.55-8.2-7.35,0-2.2,2.08-3.52,4.88-3.65Zm5.9,2.43A1.64,1.64,0,0,1,62,73.63a2.16,2.16,0,0,1-2.13-1.2A1.12,1.12,0,0,0,61,71.25c0-.75-1-1.47-2-1.6V69.5C61.82,69.65,63.8,70.68,63.8,72.08Z"/><path class="cls-3" d="M72.15,64.85a15.37,15.37,0,0,0,6-1V80.83c0,.62.38,1.27,1.88,1.27v.15H72.12V82.1c1.5,0,1.88-.65,1.88-1.27V66.33c0-.9-.43-1.33-1.85-1.33Z"/><path class="cls-3" d="M81.5,76a6.19,6.19,0,0,1,6.12-6.45v.15c-1.47.18-1.87,1.43-1.87,6.2,0,3.6,1.6,5.58,3.82,5.58a5.4,5.4,0,0,0,3.65-1.33v.15a7,7,0,0,1-5.3,2.25A6.33,6.33,0,0,1,81.5,76Zm5.62-1c2.2,0,3.13-.7,3.13-2.8,0-1.2-.5-2.3-1.63-2.45V69.5c3.3,0,4.9,2.35,4.9,4.25a7.85,7.85,0,0,1-.12,1.3H87.12Z"/><path class="cls-3" d="M95.32,79.3c0-2.17,2-3.4,4.8-3.4h2.7v.15h-.75a2.48,2.48,0,0,0-2.65,2.73c0,1.37.4,2.42,1.58,2.42a2.72,2.72,0,0,0,1.82-.87v.15a5.3,5.3,0,0,1-4,2C96.72,82.5,95.3,81.3,95.32,79.3Zm1-7.07c0-1.28,1.15-2.58,4.55-2.73v.15a1.83,1.83,0,0,0-1.6,1.83c0,.9.63,1.45,1.63,1.52a2.82,2.82,0,0,1-2.4,1.2A2,2,0,0,1,96.32,72.23Zm7.25,7.45V72c0-1.23-.47-2.2-1.7-2.38V69.5c4.15.15,5.8,1.73,5.8,5v6.08c0,.72.25,1,.7,1s.8-.37,1.2-1.12h.15a3.12,3.12,0,0,1-3.25,2C104.47,82.5,103.57,81.8,103.57,79.68Z"/><path class="cls-3" d="M119.82,71.5v.2a2.76,2.76,0,0,0-2.07-.92c-1.25,0-2.45.57-2.45,5.1s1.27,5.32,2.45,5.32a3.44,3.44,0,0,0,2.07-.87v.15a4.62,4.62,0,0,1-3.62,2c-2.38,0-5.15-1.4-5.15-6.62,0-5,2.72-6.38,5.15-6.38A4.61,4.61,0,0,1,119.82,71.5Zm4.88,9.08c0,.72.22,1,.67,1s.8-.37,1.2-1.12h.15a3.12,3.12,0,0,1-3.25,2c-2,0-2.9-.7-2.9-2.82V66.33c0-.9-.42-1.33-1.85-1.33v-.15a16.5,16.5,0,0,0,6-1Z"/><path class="cls-3" d="M127.77,70.45a15.42,15.42,0,0,0,6-1V80.83c0,.62.37,1.27,1.87,1.27v.15h-7.87V82.1c1.5,0,1.87-.65,1.87-1.27v-8.9c0-.9-.42-1.33-1.85-1.33Zm1.28-4.7A2.58,2.58,0,1,1,131.6,68,2.27,2.27,0,0,1,129.05,65.75Z"/><path class="cls-3" d="M136.67,82.1c1.5,0,1.88-.65,1.88-1.27V72c0-.9-.43-1.32-1.85-1.32v-.15a15.18,15.18,0,0,0,6-1V80.83c0,.62.38,1.27,1.88,1.27v.15h-7.88Zm8.8,0c1.48,0,1.85-.65,1.85-1.27V73c0-1.4-.72-2.13-2-2.13a2.67,2.67,0,0,0-1.9.78v-.15a5.1,5.1,0,0,1,4.15-2c2.24,0,3.84,1,3.84,3.53v7.8c0,.62.38,1.27,1.88,1.27v.15h-7.85Z"/><path class="cls-3" d="M154.8,74c0-3.25,3-4.48,5.6-4.53v.15c-1.08.1-1.58,1.4-1.58,4.3s.5,4.25,1.58,4.35v.15C157.87,78.45,154.8,77.25,154.8,74Zm6.65,14.32c2.5-.3,3.3-1.65,3.3-2.55,0-3.47-9.75-.38-9.75-4.85a3,3,0,0,1,1.67-2.55l.08.13a.58.58,0,0,0-.23.47c0,2.8,11.4-.45,11.4,5,0,2.57-2.22,4.25-6.47,4.5ZM155,86.25c0-1.48,1.82-1.93,3.8-1.93a2.11,2.11,0,0,0-1.08,1.78c0,1.15,1.3,2,2.73,2.25v.15C157.77,88.45,155,87.9,155,86.25Zm6.45-8c1.22-.1,1.72-1.32,1.72-4.35s-.52-4.2-1.72-4.3V69.5c2.65,0,5.72,1.28,5.72,4.53s-3.07,4.42-5.72,4.42Zm1.35-9.25c.42-1.27,1.57-3,3.3-3,1.32,0,2.12.7,2.12,1.9a2,2,0,0,1-2,2c0-1.05-.55-1.67-1.35-1.67a2.72,2.72,0,0,0-1.93.9Z"/><path class="cls-3" d="M19.1,107.1v.15h-8v-.15c1.5,0,1.88-.6,1.88-1.27V91.65c0-.72-.38-1.25-1.88-1.25v-.15H17.2v15.58C17.2,106.5,17.57,107.1,19.1,107.1Zm9.75-1.62c-.4,1.37-1.88,2-3.7,2-3.25,0-4-2.25-4.15-4.35s-.35-3.65-2.55-4V99c2.3,0,3.32-2,3.32-4.5,0-2.8-1-4.13-3.32-4.13v-.15c5.07,0,7.57,1.13,7.57,4.28,0,2.7-2,4.35-5.72,4.57,4.55.2,5.25,2,5.5,4.05s.8,3.45,1.65,3.45c.45,0,.85-.37,1.25-1.12Z"/><path class="cls-3" d="M29.25,91.7A2.06,2.06,0,0,0,27,90.4v-.15h9v.15c-1.15,0-2.17.75-1.55,2l4.73,10-2.28,5.1h-.27Zm10.9,8.4a17.18,17.18,0,0,0,1.77-7,2.73,2.73,0,0,0-2.85-2.73v-.15h7.2v.1c-1.15,0-1.85,1.08-2.65,2.78l-3.4,7.2Z"/><path class="cls-3" d="M51.72,95.45a15.42,15.42,0,0,0,6-1v11.35c0,.62.37,1.27,1.87,1.27v.15H51.7v-.15c1.5,0,1.87-.65,1.87-1.27v-8.9c0-.9-.42-1.33-1.85-1.33ZM53,90.75a2.27,2.27,0,0,1,2.55-2.17,2.21,2.21,0,1,1,0,4.37A2.27,2.27,0,0,1,53,90.75Z"/><path class="cls-3" d="M60.62,107.1c1.5,0,1.88-.65,1.88-1.27V97c0-.9-.43-1.32-1.85-1.32v-.15a15.18,15.18,0,0,0,6-1v11.33c0,.62.38,1.27,1.88,1.27v.15H60.62Zm8.8,0c1.48,0,1.85-.65,1.85-1.27V98c0-1.4-.72-2.13-2-2.13a2.67,2.67,0,0,0-1.9.78v-.15a5.1,5.1,0,0,1,4.15-2c2.25,0,3.85,1,3.85,3.53v7.8c0,.62.37,1.27,1.87,1.27v.15H69.42Z"/><path class="cls-3" d="M83,104.28a1.28,1.28,0,0,0-1.4,1.25c0,.72.5,1.65,2.23,1.82v.15c-3.33-.12-5.15-1-5.15-2.47a2,2,0,0,1,2.12-1.85A2.53,2.53,0,0,1,83,104.28Zm.83-9.63c-.93.18-1.83.65-1.8,1.68.07,2.9,8.17,3.37,8.17,7.35,0,2.42-2,3.7-5.27,3.82v-.15c1-.17,2.22-.55,2.22-1.85,0-2.6-8.2-3.55-8.2-7.35,0-2.2,2.08-3.52,4.88-3.65Zm5.9,2.43a1.64,1.64,0,0,1-1.85,1.55,2.16,2.16,0,0,1-2.13-1.2,1.12,1.12,0,0,0,1.13-1.18c0-.75-.95-1.47-1.95-1.6V94.5C87.72,94.65,89.7,95.68,89.7,97.08Z"/><path class="cls-3" d="M97.55,104c0,1.4.47,2.12,1.72,2.12a2.23,2.23,0,0,0,1.73-.77v.15a4.18,4.18,0,0,1-3.88,2c-2.25,0-3.7-1-3.7-3.52V97c0-.9-.42-1.32-1.85-1.32v-.15a15.23,15.23,0,0,0,6-1Zm8.32,1.6c0,.72.23,1,.68,1s.8-.37,1.19-1.12h.15c-.4,1.37-1.74,2-3.39,2s-2.75-1-2.75-2.45V97c0-.9-.43-1.32-1.78-1.32v-.15a16.15,16.15,0,0,0,5.9-1Z"/><path class="cls-3" d="M114.9,105.83c0,.62.37,1.27,1.87,1.27v.15H108.9v-.15c1.5,0,1.87-.65,1.87-1.27V97c0-.9-.42-1.32-1.85-1.32v-.15a15.23,15.23,0,0,0,6-1Zm6.75-8.63a2.68,2.68,0,0,1-2.58,2.85,1.69,1.69,0,0,1-1.42-.55,1.83,1.83,0,0,0,1-1.7,1.33,1.33,0,0,0-1.4-1.35,1.73,1.73,0,0,0-1.5,1v-.2A3.46,3.46,0,0,1,119,94.5,2.54,2.54,0,0,1,121.65,97.2Z"/><path class="cls-3" d="M122.72,104.3c0-2.17,2-3.4,4.8-3.4h2.7v.15h-.75a2.48,2.48,0,0,0-2.65,2.73c0,1.37.4,2.42,1.58,2.42a2.72,2.72,0,0,0,1.82-.87v.15a5.3,5.3,0,0,1-4,2C124.12,107.5,122.7,106.3,122.72,104.3Zm1-7.07c0-1.28,1.15-2.58,4.55-2.73v.15a1.83,1.83,0,0,0-1.6,1.83c0,.9.63,1.45,1.63,1.52a2.82,2.82,0,0,1-2.4,1.2A2,2,0,0,1,123.72,97.23Zm7.25,7.45V97c0-1.23-.47-2.2-1.7-2.38V94.5c4.15.15,5.8,1.73,5.8,5v6.08c0,.72.25,1,.7,1s.8-.37,1.2-1.12h.15a3.12,3.12,0,0,1-3.25,2C131.87,107.5,131,106.8,131,104.68Z"/><path class="cls-3" d="M137.9,107.1c1.5,0,1.87-.65,1.87-1.27V97c0-.9-.42-1.32-1.85-1.32v-.15a15.23,15.23,0,0,0,6-1v11.33c0,.62.37,1.27,1.87,1.27v.15H137.9Zm8.8,0c1.47,0,1.85-.65,1.85-1.27V98a1.86,1.86,0,0,0-2-2.13,2.67,2.67,0,0,0-1.9.78v-.15a5.12,5.12,0,0,1,4.15-2c2.25,0,3.85,1,3.85,3.53v7.8c0,.62.37,1.27,1.87,1.27v.15H146.7Z"/><path class="cls-3" d="M162.3,94.65c-1.48.18-2.13,1.43-2.13,6.2,0,3.6,1.83,5.58,4.05,5.58a5.4,5.4,0,0,0,3.65-1.33v.15a7,7,0,0,1-5.3,2.25A6.53,6.53,0,0,1,155.9,101a6.4,6.4,0,0,1,6.4-6.45Zm5.55,2.68a2.33,2.33,0,0,1-2.5,2.4,2.13,2.13,0,0,1-2.18-1.58,2.14,2.14,0,0,0,1.2-1.82,1.48,1.48,0,0,0-1.07-1.65V94.5C166.57,94.5,167.85,95.9,167.85,97.33Z"/><path class="cls-3" d="M169.72,101a6.19,6.19,0,0,1,6.13-6.45v.15c-1.48.18-1.88,1.43-1.88,6.2,0,3.6,1.6,5.58,3.83,5.58a5.44,5.44,0,0,0,3.65-1.33v.15a7,7,0,0,1-5.3,2.25A6.34,6.34,0,0,1,169.72,101Zm5.63-1c2.2,0,3.12-.7,3.12-2.8,0-1.2-.5-2.3-1.62-2.45V94.5c3.3,0,4.89,2.35,4.89,4.25a6.91,6.91,0,0,1-.12,1.3h-6.27Z"/><path class="cls-3" d="M16.37,136.05c0,.9.43,1.32,1.85,1.32v.15a16.28,16.28,0,0,0-6,1V121.93c0-.9-.43-1.33-1.85-1.33v-.15a16.48,16.48,0,0,0,6-1Zm9.53-10.17c0,5.22-2.75,6.62-5.13,6.62a4.7,4.7,0,0,1-3.65-2v-.15a3.54,3.54,0,0,0,2.1.87c1.18,0,2.43-.82,2.43-5.32s-1.18-5.1-2.43-5.1a2.84,2.84,0,0,0-2.1.92v-.2a4.68,4.68,0,0,1,3.65-2C23.2,119.5,25.9,120.9,25.9,125.88Z"/><path class="cls-3" d="M34.32,119.65c-1.47.18-2,1.43-2,6.3,0,4.7.5,6.25,2,6.4v.15A6.37,6.37,0,0,1,28.1,126a6.27,6.27,0,0,1,6.22-6.45Zm7.2,6.3a6.36,6.36,0,0,1-6.2,6.55v-.15c1.48-.15,2-1.72,2-6.4,0-4.9-.5-6.15-2-6.3v-.15A6.23,6.23,0,0,1,41.52,126Z"/><path class="cls-3" d="M43.05,114.85a15.37,15.37,0,0,0,6-1v17c0,.62.38,1.27,1.88,1.27v.15H43v-.15c1.5,0,1.88-.65,1.88-1.27v-14.5c0-.9-.43-1.33-1.85-1.33Z"/><path class="cls-3" d="M52,120.45a15.37,15.37,0,0,0,6-1v11.35c0,.62.38,1.27,1.88,1.27v.15H52v-.15c1.5,0,1.88-.65,1.88-1.27v-8.9c0-.9-.43-1.33-1.85-1.33Zm1.27-4.7a2.27,2.27,0,0,1,2.55-2.17,2.21,2.21,0,1,1,0,4.37A2.27,2.27,0,0,1,53.27,115.75Z"/><path class="cls-3" d="M67.75,119.65c-1.48.18-2.13,1.43-2.13,6.2,0,3.6,1.83,5.58,4,5.58a5.4,5.4,0,0,0,3.65-1.33v.15A7,7,0,0,1,68,132.5,6.53,6.53,0,0,1,61.35,126a6.4,6.4,0,0,1,6.4-6.45Zm5.55,2.68a2.33,2.33,0,0,1-2.5,2.4,2.13,2.13,0,0,1-2.18-1.58,2.14,2.14,0,0,0,1.2-1.82,1.48,1.48,0,0,0-1.07-1.65v-.18C72,119.5,73.3,120.9,73.3,122.33Z"/><path class="cls-3" d="M75.37,120.78A1.35,1.35,0,0,0,74,119.9v-.15h7v.15c-.88,0-1.23.6-.8,1.48l3.27,6.82-2.15,4.05h-.15Zm-1.1,15.49a2.61,2.61,0,0,1,2.2-2.34,2,2,0,0,0-.1.62,1.46,1.46,0,0,0,1.48,1.67c.87,0,1.57-.92,2.52-2.52h.18c-1.38,2.57-2.33,4.8-4.08,4.8A2.08,2.08,0,0,1,74.27,136.27Zm10.25-10.52a6.77,6.77,0,0,0,.7-3.22,2.41,2.41,0,0,0-2.55-2.63v-.15H88.9v.15c-.83,0-1.15.33-1.63,1.18l-2.6,4.9Z"/></g></svg>