<?xml version="1.0" encoding="utf-8"?>
<!-- Generator: Adobe Illustrator 24.0.3, SVG Export Plug-In . SVG Version: 6.00 Build 0)  -->
<svg version="1.1" id="Layer_1" xmlns="http://www.w3.org/2000/svg" xmlns:xlink="http://www.w3.org/1999/xlink" x="0px" y="0px"
	 viewBox="0 0 300 150" style="enable-background:new 0 0 300 150;" xml:space="preserve">
<style type="text/css">
	.st0{clip-path:url(#SVGID_2_);}
	.st1{enable-background:new    ;}
	.st2{fill:#FFFFFF;}
</style>
<title>Artboard 1 copy 3</title>
<g>
	<defs>
		<rect id="SVGID_1_" y="0" width="300" height="150"/>
	</defs>
	<clipPath id="SVGID_2_">
		<use xlink:href="#SVGID_1_"  style="overflow:visible;"/>
	</clipPath>
	<g class="st0">
		<g class="st1">
			<path class="st2" d="M26.1,48.7l-5.6,13.2h-0.4L13,46.3c-0.4-0.8-1.4-1.3-2.6-1.3v-0.2H17l5.2,11.3l3.8-8V48.7z M15.8,61.8v0.2
				h-5.5v-0.2c1.6,0,2.4-1,2.4-2.1L13,48.9l0.2,0.5l0.2,10.3C13.4,60.7,14.2,61.8,15.8,61.8z M31.3,46.3v14.1c0,0.7,0.4,1.3,1.9,1.3
				v0.2h-8v-0.2c1.5,0,1.9-0.6,1.9-1.3V44.9h6.1v0.2C31.7,45.1,31.3,45.7,31.3,46.3z"/>
		</g>
		<g class="st1">
			<path class="st2" d="M41.1,49.3c-1.5,0.2-2,1.4-2,6.3c0,4.7,0.5,6.2,2,6.4v0.2c-2.9,0-6.2-2.3-6.2-6.5c0-4.2,3.3-6.4,6.2-6.4
				V49.3z M48.3,55.6c0,4.2-3.3,6.5-6.2,6.5V62c1.5-0.1,1.9-1.7,1.9-6.4c0-4.9-0.5-6.1-1.9-6.3v-0.2C45,49.2,48.3,51.4,48.3,55.6z"
				/>
		</g>
		<g class="st1">
			<path class="st2" d="M56,60.5c0,0.6,0.4,1.3,1.9,1.3v0.2H50v-0.2c1.5,0,1.9-0.6,1.9-1.3v-8.9c0-0.9-0.4-1.3-1.8-1.3v-0.2
				c2.3,0,4.2-0.2,6-1V60.5z M62.7,51.9c0,1.7-1.2,2.8-2.6,2.8c-0.6,0-1.1-0.2-1.4-0.5c0.5-0.2,1-0.8,1-1.7c0-0.7-0.5-1.3-1.4-1.3
				c-0.6,0-1.2,0.4-1.5,0.9v-0.2c0.5-1.6,1.7-2.7,3.2-2.7C61.8,49.2,62.7,50.4,62.7,51.9z"/>
		</g>
		<g class="st1">
			<path class="st2" d="M64.1,55.6c0-4.2,3.2-6.4,6.1-6.4v0.2c-1.5,0.2-1.9,1.4-1.9,6.2c0,3.6,1.6,5.6,3.8,5.6
				c1.4,0,2.5-0.4,3.6-1.3v0.1c-1.3,1.7-3.7,2.2-5.3,2.2C67.3,62.2,64.1,59.8,64.1,55.6z M69.7,54.6c2.2,0,3.1-0.7,3.1-2.8
				c0-1.2-0.5-2.3-1.6-2.4v-0.2c3.3,0,4.9,2.3,4.9,4.2c0,0.4,0,0.9-0.1,1.3h-6.3V54.6z"/>
		</g>
		<g class="st1">
			<path class="st2" d="M10.8,79.6c0-4.2,3.2-6.4,6.1-6.4v0.2c-1.5,0.2-1.9,1.4-1.9,6.2c0,3.6,1.6,5.6,3.8,5.6
				c1.4,0,2.5-0.4,3.6-1.3v0.1c-1.3,1.7-3.7,2.2-5.3,2.2C14,86.2,10.8,83.8,10.8,79.6z M16.4,78.6c2.2,0,3.1-0.7,3.1-2.8
				c0-1.2-0.5-2.3-1.6-2.4v-0.2c3.3,0,4.9,2.3,4.9,4.2c0,0.4,0,0.9-0.1,1.3h-6.3V78.6z"/>
		</g>
		<g class="st1">
			<path class="st2" d="M24.8,74.4c-0.2-0.5-0.6-0.9-1.4-0.9v-0.2h7v0.2c-0.9,0-1.2,0.6-0.8,1.5l3.3,6.8l-2.1,4h-0.1L24.8,74.4z
				 M34,79.4c0.4-0.8,0.7-1.9,0.7-3.2c0-1.4-0.8-2.6-2.5-2.6v-0.2h6.2v0.2c-0.8,0-1.1,0.3-1.6,1.2l-2.6,4.9L34,79.4z"/>
		</g>
		<g class="st1">
			<path class="st2" d="M38.5,79.6c0-4.2,3.2-6.4,6.1-6.4v0.2c-1.5,0.2-1.9,1.4-1.9,6.2c0,3.6,1.6,5.6,3.8,5.6
				c1.4,0,2.5-0.4,3.6-1.3v0.1c-1.3,1.7-3.7,2.2-5.3,2.2C41.8,86.2,38.5,83.8,38.5,79.6z M44.2,78.6c2.2,0,3.1-0.7,3.1-2.8
				c0-1.2-0.5-2.3-1.6-2.4v-0.2c3.3,0,4.9,2.3,4.9,4.2c0,0.4,0,0.9-0.1,1.3h-6.3V78.6z"/>
			<path class="st2" d="M58.2,84.5c0,0.6,0.4,1.3,1.9,1.3v0.2h-7.9v-0.2c1.5,0,1.9-0.6,1.9-1.3v-8.9c0-0.9-0.4-1.3-1.8-1.3v-0.2
				c2.3,0,4.2-0.2,6-1V84.5z M64.9,75.9c0,1.7-1.2,2.9-2.6,2.9c-0.6,0-1.1-0.2-1.4-0.5c0.5-0.2,1-0.8,1-1.7c0-0.7-0.5-1.4-1.4-1.4
				c-0.6,0-1.2,0.4-1.5,0.9v-0.2c0.5-1.6,1.7-2.7,3.2-2.7C64,73.2,64.9,74.4,64.9,75.9z"/>
			<path class="st2" d="M66.6,74.4c-0.2-0.5-0.6-0.9-1.4-0.9v-0.2h7v0.2c-0.9,0-1.2,0.6-0.8,1.5l3.3,6.8l-2.1,4h-0.1L66.6,74.4z
				 M65.5,89.9c0-1.1,0.8-2,2.2-2.3c-0.1,0.2-0.1,0.4-0.1,0.6c0,0.9,0.5,1.7,1.5,1.7c0.9,0,1.6-0.9,2.5-2.5h0.2
				c-1.4,2.6-2.3,4.8-4.1,4.8C66.3,92.2,65.5,91.2,65.5,89.9z M75.8,79.4c0.4-0.8,0.7-1.9,0.7-3.2c0-1.4-0.8-2.6-2.5-2.6v-0.2h6.2
				v0.2c-0.8,0-1.1,0.3-1.6,1.2l-2.6,4.9L75.8,79.4z"/>
			<path class="st2" d="M89.9,84v0.2c-0.8,1.1-2.4,2-4.3,2c-2.2,0-3.8-1-3.8-3.5v-8.2h-1.3l0.3-0.4h1v-2.7c1.5,0,3-0.5,4.1-1.4v4.1
				h3.4L89,74.4h-3.1v8.3c0,1.2,0.5,2.5,1.6,2.5C88.3,85.3,89.1,84.8,89.9,84z"/>
			<path class="st2" d="M96.4,84.5c0,0.6,0.4,1.3,1.9,1.3v0.2h-7.9v-0.2c1.5,0,1.9-0.6,1.9-1.3V70c0-0.9-0.4-1.3-1.8-1.3v-0.1
				c2.3,0,4.2-0.2,6-1V84.5z M105.1,76.7v7.8c0,0.6,0.4,1.3,1.9,1.3v0.2h-7.8v-0.2c1.5,0,1.8-0.6,1.8-1.3v-7.8c0-1.4-0.7-2.1-2-2.1
				c-0.7,0-1.3,0.2-1.9,0.8v-0.2c0.7-1,2.3-2,4.1-2C103.5,73.2,105.1,74.2,105.1,76.7z"/>
			<path class="st2" d="M108,74.1c2.3,0,4.2-0.2,6-1v11.3c0,0.6,0.4,1.3,1.9,1.3v0.2h-7.9v-0.2c1.5,0,1.9-0.6,1.9-1.3v-8.9
				c0-0.9-0.4-1.3-1.8-1.3V74.1z M109.2,69.4c0-1.3,1-2.2,2.5-2.2c1.5,0,2.5,0.9,2.5,2.2c0,1.3-1,2.2-2.5,2.2
				C110.3,71.6,109.2,70.7,109.2,69.4z"/>
			<path class="st2" d="M116.9,85.8c1.5,0,1.9-0.6,1.9-1.3v-8.9c0-0.9-0.4-1.3-1.8-1.3v-0.2c2.3,0,4.2-0.2,6-1v11.3
				c0,0.6,0.4,1.3,1.9,1.3v0.2h-7.9V85.8z M125.7,85.8c1.5,0,1.8-0.6,1.8-1.3v-7.8c0-1.4-0.7-2.1-2-2.1c-0.7,0-1.3,0.2-1.9,0.8v-0.2
				c0.7-1,2.3-2,4.1-2c2.2,0,3.8,1,3.8,3.5v7.8c0,0.6,0.4,1.3,1.9,1.3v0.2h-7.8V85.8z"/>
			<path class="st2" d="M135,77.7c0-3.3,3-4.5,5.6-4.5v0.2c-1.1,0.1-1.6,1.4-1.6,4.3c0,3,0.5,4.2,1.6,4.3v0.2
				C138.1,82.1,135,80.9,135,77.7z M141.6,92c2.5-0.3,3.3-1.6,3.3-2.5c0-3.5-9.7-0.4-9.7-4.8c0-1,0.5-1.8,1.7-2.5l0.1,0.1
				c-0.1,0.1-0.2,0.3-0.2,0.5c0,2.8,11.4-0.5,11.4,5c0,2.6-2.2,4.2-6.5,4.5V92z M135.2,89.9c0-1.5,1.8-1.9,3.8-1.9
				c-0.5,0.2-1.1,0.9-1.1,1.8c0,1.2,1.3,2,2.7,2.2v0.1C138,92.1,135.2,91.6,135.2,89.9z M141.6,82c1.2-0.1,1.7-1.3,1.7-4.3
				c0-2.9-0.5-4.2-1.7-4.3v-0.2c2.6,0,5.7,1.3,5.7,4.5c0,3.2-3.1,4.4-5.7,4.4V82z M143,72.7c0.4-1.3,1.6-3,3.3-3
				c1.3,0,2.1,0.7,2.1,1.9c0,1.2-1.1,2-2,2c0-1-0.5-1.7-1.3-1.7c-0.7,0-1.6,0.5-1.9,0.9L143,72.7z"/>
		</g>
		<g class="st1">
			<path class="st2" d="M20,108v0.2c-0.8,1.1-2.4,2-4.3,2c-2.2,0-3.8-1-3.8-3.5v-8.2h-1.3l0.3-0.4h1v-2.7c1.5,0,3-0.5,4.1-1.4v4.1
				h3.4l-0.3,0.4H16v8.3c0,1.2,0.5,2.5,1.6,2.5C18.3,109.3,19.2,108.8,20,108z"/>
			<path class="st2" d="M26.4,108.5c0,0.6,0.4,1.3,1.9,1.3v0.2h-7.9v-0.2c1.5,0,1.9-0.6,1.9-1.3V94c0-0.9-0.4-1.3-1.8-1.3v-0.1
				c2.3,0,4.2-0.2,6-1V108.5z M35.2,100.7v7.8c0,0.6,0.4,1.3,1.9,1.3v0.2h-7.8v-0.2c1.5,0,1.8-0.6,1.8-1.3v-7.8c0-1.4-0.7-2.1-2-2.1
				c-0.7,0-1.3,0.2-1.9,0.8v-0.2c0.7-1,2.3-2,4.1-2C33.6,97.2,35.2,98.2,35.2,100.7z"/>
			<path class="st2" d="M38.2,107c0-2.2,2-3.4,4.8-3.4h2.7v0.2h-0.7c-1.8,0-2.6,1.2-2.6,2.7c0,1.4,0.4,2.4,1.6,2.4
				c0.7,0,1.3-0.4,1.8-0.9v0.2c-0.8,0.9-2.1,2-4,2C39.6,110.2,38.1,109,38.2,107z M39.2,99.9c0-1.3,1.1-2.6,4.5-2.7v0.2
				c-1,0.1-1.6,0.9-1.6,1.8c0,0.9,0.6,1.5,1.6,1.5c-0.4,0.7-1.4,1.2-2.4,1.2C40,101.9,39.2,100.9,39.2,99.9z M46.4,107.3v-7.6
				c0-1.2-0.5-2.2-1.7-2.4v-0.2c4.1,0.2,5.8,1.7,5.8,5v6.1c0,0.7,0.2,1,0.7,1c0.4,0,0.8-0.4,1.2-1.1h0.1c-0.4,1.4-1.7,2-3.2,2
				C47.3,110.2,46.4,109.5,46.4,107.3z"/>
			<path class="st2" d="M53.3,109.8c1.5,0,1.9-0.6,1.9-1.3v-8.9c0-0.9-0.4-1.3-1.8-1.3v-0.2c2.3,0,4.2-0.2,6-1v11.3
				c0,0.6,0.4,1.3,1.9,1.3v0.2h-7.9V109.8z M62.1,109.8c1.5,0,1.8-0.6,1.8-1.3v-7.8c0-1.4-0.7-2.1-2-2.1c-0.7,0-1.3,0.2-1.9,0.8
				v-0.2c0.7-1,2.3-2,4.1-2c2.2,0,3.8,1,3.8,3.5v7.8c0,0.6,0.4,1.3,1.9,1.3v0.2h-7.8V109.8z"/>
			<path class="st2" d="M77.4,107c0-2.2,2-3.4,4.8-3.4h2.7v0.2h-0.7c-1.8,0-2.6,1.2-2.6,2.7c0,1.4,0.4,2.4,1.6,2.4
				c0.7,0,1.3-0.4,1.8-0.9v0.2c-0.8,0.9-2.1,2-4,2C78.8,110.2,77.4,109,77.4,107z M78.4,99.9c0-1.3,1.1-2.6,4.5-2.7v0.2
				c-1,0.1-1.6,0.9-1.6,1.8c0,0.9,0.6,1.5,1.6,1.5c-0.4,0.7-1.4,1.2-2.4,1.2C79.2,101.9,78.4,100.9,78.4,99.9z M85.7,107.3v-7.6
				c0-1.2-0.5-2.2-1.7-2.4v-0.2c4.1,0.2,5.8,1.7,5.8,5v6.1c0,0.7,0.2,1,0.7,1c0.4,0,0.8-0.4,1.2-1.1h0.1c-0.4,1.4-1.7,2-3.2,2
				C86.6,110.2,85.7,109.5,85.7,107.3z"/>
		</g>
		<g class="st1">
			<path class="st2" d="M92.6,109.8c1.5,0,1.9-0.6,1.9-1.3v-8.9c0-0.9-0.4-1.3-1.8-1.3v-0.2c2.3,0,4.2-0.2,6-1v11.3
				c0,0.6,0.4,1.3,1.9,1.3v0.2h-7.9V109.8z M101.4,109.8c1.5,0,1.8-0.6,1.8-1.3v-7.8c0-1.4-0.7-2.1-2-2.1c-0.7,0-1.3,0.2-1.9,0.8
				v-0.2c0.7-1,2.3-2,4.1-2c2.2,0,3.8,1,3.8,3.5v7.8c0,0.6,0.4,1.3,1.9,1.3v0.2h-7.8V109.8z"/>
		</g>
		<g class="st1">
			<path class="st2" d="M110.2,98.4c-0.2-0.5-0.6-0.9-1.4-0.9v-0.2h7v0.2c-0.9,0-1.2,0.6-0.8,1.5l3.3,6.8l-2.1,4H116L110.2,98.4z
				 M109.1,113.9c0-1.1,0.9-2,2.2-2.3c-0.1,0.2-0.1,0.4-0.1,0.6c0,0.9,0.5,1.7,1.5,1.7c0.9,0,1.6-0.9,2.5-2.5h0.2
				c-1.4,2.6-2.3,4.8-4.1,4.8C109.9,116.2,109.1,115.2,109.1,113.9z M119.4,103.4c0.4-0.8,0.7-1.9,0.7-3.2c0-1.4-0.8-2.6-2.5-2.6
				v-0.2h6.2v0.2c-0.8,0-1.1,0.3-1.6,1.2l-2.6,4.9L119.4,103.4z"/>
		</g>
		<g class="st1">
			<path class="st2" d="M130.1,97.3c-1.5,0.2-2,1.4-2,6.3c0,4.7,0.5,6.2,2,6.4v0.2c-2.9,0-6.2-2.3-6.2-6.5c0-4.2,3.3-6.4,6.2-6.4
				V97.3z M137.3,103.6c0,4.2-3.3,6.5-6.2,6.5V110c1.5-0.1,1.9-1.7,1.9-6.4c0-4.9-0.5-6.1-1.9-6.3v-0.2
				C134,97.2,137.3,99.4,137.3,103.6z"/>
			<path class="st2" d="M139,109.8c1.5,0,1.9-0.6,1.9-1.3v-8.9c0-0.9-0.4-1.3-1.8-1.3v-0.2c2.3,0,4.2-0.2,6-1v11.3
				c0,0.6,0.4,1.3,1.9,1.3v0.2H139V109.8z M147.8,109.8c1.5,0,1.8-0.6,1.8-1.3v-7.8c0-1.4-0.7-2.1-2-2.1c-0.7,0-1.3,0.2-1.9,0.8
				v-0.2c0.7-1,2.3-2,4.1-2c2.2,0,3.8,1,3.8,3.5v7.8c0,0.6,0.4,1.3,1.9,1.3v0.2h-7.8V109.8z"/>
			<path class="st2" d="M157,103.6c0-4.2,3.2-6.4,6.1-6.4v0.2c-1.5,0.2-1.9,1.4-1.9,6.2c0,3.6,1.6,5.6,3.8,5.6
				c1.4,0,2.5-0.4,3.6-1.3v0.1c-1.3,1.7-3.7,2.2-5.3,2.2C160.2,110.2,157,107.8,157,103.6z M162.6,102.6c2.2,0,3.1-0.7,3.1-2.8
				c0-1.2-0.5-2.3-1.6-2.4v-0.2c3.3,0,4.9,2.3,4.9,4.2c0,0.4,0,0.9-0.1,1.3h-6.3V102.6z"/>
		</g>
		<g class="st1">
			<path class="st2" d="M10.8,127.6c0-4.2,3.2-6.4,6.1-6.4v0.2c-1.5,0.2-1.9,1.4-1.9,6.2c0,3.6,1.6,5.6,3.8,5.6
				c1.4,0,2.5-0.4,3.6-1.3v0.1c-1.3,1.7-3.7,2.2-5.3,2.2C14,134.2,10.8,131.8,10.8,127.6z M16.4,126.6c2.2,0,3.1-0.7,3.1-2.8
				c0-1.2-0.5-2.3-1.6-2.4v-0.2c3.3,0,4.9,2.3,4.9,4.2c0,0.4,0,0.9-0.1,1.3h-6.3V126.6z"/>
			<path class="st2" d="M24.2,116.5c2.3,0,4.2-0.2,6-1v16.9c0,0.6,0.4,1.3,1.9,1.3v0.2h-7.9v-0.2c1.5,0,1.9-0.6,1.9-1.3V118
				c0-0.9-0.4-1.3-1.8-1.3V116.5z"/>
			<path class="st2" d="M37.9,130.9c-0.8,0-1.4,0.5-1.4,1.2c0,0.7,0.5,1.6,2.2,1.8v0.2c-3.3-0.1-5.1-1-5.1-2.5c0-1.1,1-1.8,2.1-1.8
				C36.7,129.8,37.6,130.3,37.9,130.9z M38.8,121.3c-0.9,0.2-1.8,0.6-1.8,1.7c0.1,2.9,8.2,3.4,8.2,7.3c0,2.4-2,3.7-5.3,3.8V134
				c1-0.2,2.2-0.5,2.2-1.8c0-2.6-8.2-3.5-8.2-7.3c0-2.2,2.1-3.5,4.9-3.6V121.3z M44.7,123.7c0,0.8-0.6,1.5-1.8,1.5
				c-1,0-1.8-0.5-2.1-1.2c0.8-0.1,1.1-0.6,1.1-1.2c0-0.8-1-1.5-1.9-1.6v-0.2C42.7,121.3,44.7,122.3,44.7,123.7z"/>
			<path class="st2" d="M47.2,127.6c0-4.2,3.2-6.4,6.1-6.4v0.2c-1.5,0.2-1.9,1.4-1.9,6.2c0,3.6,1.6,5.6,3.8,5.6
				c1.4,0,2.5-0.4,3.6-1.3v0.1c-1.3,1.7-3.7,2.2-5.3,2.2C50.5,134.2,47.2,131.8,47.2,127.6z M52.9,126.6c2.2,0,3.1-0.7,3.1-2.8
				c0-1.2-0.5-2.3-1.6-2.4v-0.2c3.3,0,4.9,2.3,4.9,4.2c0,0.4,0,0.9-0.1,1.3h-6.3V126.6z"/>
		</g>
	</g>
</g>
</svg>
