<svg id="Layer_1" data-name="Layer 1" xmlns="http://www.w3.org/2000/svg" viewBox="0 0 300 150"><defs><style>.cls-1{fill:#fff;}.cls-2{fill:none;}</style></defs><title>Artboard 1 copy 3</title><path class="cls-1" d="M26.4,65.08,20.77,78.25h-.35L13.27,62.68a2.71,2.71,0,0,0-2.65-1.28v-.15h6.73l5.2,11.3,3.85-8Zm-10.28,13v.15h-5.5V78.1A2.2,2.2,0,0,0,13.07,76l.2-10.8.2.45L13.67,76A2.18,2.18,0,0,0,16.12,78.1ZM31.64,62.68V76.83c0,.67.38,1.27,1.88,1.27v.15h-8V78.1c1.5,0,1.88-.6,1.88-1.27V61.25h6.12v.15C32,61.4,31.64,62,31.64,62.68Z"/><path class="cls-1" d="M41.42,65.65c-1.47.18-2,1.43-2,6.3,0,4.7.5,6.25,2,6.4v.15A6.37,6.37,0,0,1,35.2,72a6.27,6.27,0,0,1,6.22-6.45Zm7.2,6.3a6.36,6.36,0,0,1-6.2,6.55v-.15c1.48-.15,1.95-1.73,1.95-6.4,0-4.9-.5-6.15-1.95-6.3V65.5A6.23,6.23,0,0,1,48.62,72Z"/><path class="cls-1" d="M56.27,76.83c0,.62.38,1.27,1.88,1.27v.15H50.27V78.1c1.5,0,1.88-.65,1.88-1.27V68c0-.9-.43-1.32-1.85-1.32v-.15a15.18,15.18,0,0,0,6-1ZM63,68.2a2.67,2.67,0,0,1-2.57,2.85A1.71,1.71,0,0,1,59,70.5a1.82,1.82,0,0,0,1-1.7,1.33,1.33,0,0,0-1.4-1.35,1.72,1.72,0,0,0-1.5,1v-.2a3.46,3.46,0,0,1,3.25-2.7A2.54,2.54,0,0,1,63,68.2Z"/><path class="cls-1" d="M64.37,72A6.19,6.19,0,0,1,70.5,65.5v.15c-1.48.18-1.88,1.43-1.88,6.2,0,3.6,1.6,5.57,3.83,5.57A5.43,5.43,0,0,0,76.1,76.1v.15a7,7,0,0,1-5.3,2.25A6.34,6.34,0,0,1,64.37,72Zm5.63-1c2.2,0,3.12-.7,3.12-2.8,0-1.2-.5-2.3-1.62-2.45V65.5c3.3,0,4.9,2.35,4.9,4.25a6.9,6.9,0,0,1-.13,1.3H70Z"/><path class="cls-1" d="M11.05,99a6.19,6.19,0,0,1,6.12-6.45v.15c-1.47.18-1.87,1.43-1.87,6.2,0,3.6,1.6,5.57,3.82,5.57a5.39,5.39,0,0,0,3.65-1.32v.15a7,7,0,0,1-5.3,2.25A6.33,6.33,0,0,1,11.05,99Zm5.62-1c2.2,0,3.13-.7,3.13-2.8,0-1.2-.5-2.3-1.63-2.45V92.5c3.3,0,4.9,2.35,4.9,4.25a7.85,7.85,0,0,1-.12,1.3H16.67Z"/><path class="cls-1" d="M25.12,93.78a1.35,1.35,0,0,0-1.37-.88v-.15h7v.15c-.88,0-1.23.6-.8,1.48l3.27,6.82-2.15,4h-.15Zm9.15,5a6.77,6.77,0,0,0,.7-3.22,2.41,2.41,0,0,0-2.55-2.63v-.15h6.23v.15c-.83,0-1.15.33-1.63,1.18L34.42,99Z"/><path class="cls-1" d="M38.85,99A6.19,6.19,0,0,1,45,92.5v.15c-1.47.18-1.87,1.43-1.87,6.2,0,3.6,1.6,5.57,3.82,5.57a5.39,5.39,0,0,0,3.65-1.32v.15a7,7,0,0,1-5.3,2.25A6.33,6.33,0,0,1,38.85,99Zm5.62-1c2.2,0,3.13-.7,3.13-2.8,0-1.2-.5-2.3-1.63-2.45V92.5c3.3,0,4.9,2.35,4.9,4.25a7.85,7.85,0,0,1-.12,1.3H44.47Z"/><path class="cls-1" d="M58.47,103.83c0,.62.38,1.27,1.88,1.27v.15H52.47v-.15c1.5,0,1.88-.65,1.88-1.27V95c0-.9-.43-1.32-1.85-1.32v-.15a15.18,15.18,0,0,0,6-1Zm6.75-8.63a2.67,2.67,0,0,1-2.57,2.85,1.71,1.71,0,0,1-1.43-.55,1.82,1.82,0,0,0,1-1.7,1.33,1.33,0,0,0-1.4-1.35,1.72,1.72,0,0,0-1.5,1v-.2a3.46,3.46,0,0,1,3.25-2.7A2.54,2.54,0,0,1,65.22,95.2Z"/><path class="cls-1" d="M66.92,93.78a1.35,1.35,0,0,0-1.37-.88v-.15h7v.15c-.88,0-1.23.6-.8,1.48L75,101.2l-2.15,4h-.15Zm-1.1,15.49a2.63,2.63,0,0,1,2.2-2.35,2.11,2.11,0,0,0-.1.63,1.46,1.46,0,0,0,1.48,1.67c.87,0,1.57-.92,2.52-2.52h.18c-1.38,2.57-2.33,4.8-4.08,4.8A2.08,2.08,0,0,1,65.82,109.27ZM76.07,98.75a6.77,6.77,0,0,0,.7-3.22,2.41,2.41,0,0,0-2.55-2.63v-.15h6.23v.15c-.83,0-1.15.33-1.63,1.18L76.22,99Z"/><path class="cls-1" d="M90.25,103.33v.15a5.26,5.26,0,0,1-4.28,2c-2.25,0-3.85-1-3.85-3.52v-8.2h-1.3l.28-.38h1V90.7a6.27,6.27,0,0,0,4.1-1.4v4.1H89.6l-.28.38h-3.1v8.27c0,1.25.48,2.55,1.65,2.55A3.72,3.72,0,0,0,90.25,103.33Z"/><path class="cls-1" d="M96.7,103.83c0,.62.37,1.27,1.87,1.27v.15H90.7v-.15c1.5,0,1.87-.65,1.87-1.27V89.33c0-.9-.42-1.33-1.85-1.33v-.15a15.42,15.42,0,0,0,6-1Zm8.75-7.8v7.8c0,.62.37,1.27,1.87,1.27v.15H99.47v-.15c1.48,0,1.85-.65,1.85-1.27V96c0-1.4-.72-2.13-2-2.13a2.67,2.67,0,0,0-1.9.78v-.15a5.1,5.1,0,0,1,4.15-2C103.85,92.5,105.45,93.55,105.45,96Z"/><path class="cls-1" d="M108.27,93.45a15.42,15.42,0,0,0,6-1v11.35c0,.62.37,1.27,1.87,1.27v.15h-7.87v-.15c1.5,0,1.87-.65,1.87-1.27v-8.9c0-.9-.42-1.33-1.85-1.33Zm1.28-4.7A2.58,2.58,0,1,1,112.1,91,2.27,2.27,0,0,1,109.55,88.75Z"/><path class="cls-1" d="M117.17,105.1c1.5,0,1.88-.65,1.88-1.27V95c0-.9-.43-1.32-1.85-1.32v-.15a15.18,15.18,0,0,0,6-1v11.33c0,.62.38,1.27,1.88,1.27v.15h-7.88Zm8.8,0c1.48,0,1.85-.65,1.85-1.27V96c0-1.4-.72-2.13-2-2.13a2.67,2.67,0,0,0-1.9.78v-.15a5.1,5.1,0,0,1,4.15-2c2.25,0,3.84,1,3.84,3.53v7.8c0,.62.38,1.27,1.88,1.27v.15H126Z"/><path class="cls-1" d="M135.3,97c0-3.25,3-4.48,5.6-4.53v.15c-1.08.1-1.58,1.4-1.58,4.3s.5,4.25,1.58,4.35v.15C138.37,101.45,135.3,100.25,135.3,97ZM142,111.35c2.5-.3,3.3-1.65,3.3-2.55,0-3.47-9.75-.38-9.75-4.85a3,3,0,0,1,1.67-2.55l.08.13a.58.58,0,0,0-.23.47c0,2.8,11.4-.45,11.4,5,0,2.57-2.22,4.25-6.47,4.5Zm-6.45-2.1c0-1.48,1.82-1.93,3.8-1.93a2.11,2.11,0,0,0-1.08,1.78c0,1.15,1.3,2,2.73,2.25v.15C138.27,111.45,135.5,110.9,135.5,109.25Zm6.45-8c1.22-.1,1.72-1.32,1.72-4.35s-.52-4.2-1.72-4.3V92.5c2.65,0,5.72,1.28,5.72,4.53s-3.07,4.42-5.72,4.42Zm1.35-9.25c.42-1.27,1.57-3,3.3-3,1.32,0,2.12.7,2.12,1.9a2,2,0,0,1-2,2c0-1.05-.55-1.67-1.35-1.67a2.72,2.72,0,0,0-1.93.9Z"/><path class="cls-1" d="M20.3,130.33v.15a5.26,5.26,0,0,1-4.28,2c-2.25,0-3.85-1-3.85-3.52v-8.2h-1.3l.28-.38h1v-2.7a6.27,6.27,0,0,0,4.1-1.4v4.1h3.38l-.28.38h-3.1v8.27c0,1.25.48,2.55,1.65,2.55A3.72,3.72,0,0,0,20.3,130.33Z"/><path class="cls-1" d="M26.75,130.83c0,.62.37,1.27,1.87,1.27v.15H20.75v-.15c1.5,0,1.87-.65,1.87-1.27v-14.5c0-.9-.42-1.33-1.85-1.33v-.15a15.42,15.42,0,0,0,6-1ZM35.5,123v7.8c0,.62.37,1.27,1.87,1.27v.15H29.52v-.15c1.48,0,1.85-.65,1.85-1.27V123c0-1.4-.72-2.13-2-2.13a2.67,2.67,0,0,0-1.9.78v-.15a5.1,5.1,0,0,1,4.15-2C33.9,119.5,35.5,120.55,35.5,123Z"/><path class="cls-1" d="M38.47,129.3c0-2.17,2-3.4,4.8-3.4H46v.15h-.75a2.48,2.48,0,0,0-2.65,2.73c0,1.37.4,2.42,1.58,2.42a2.72,2.72,0,0,0,1.82-.87v.15a5.34,5.34,0,0,1-4,2C39.87,132.5,38.45,131.3,38.47,129.3Zm1-7.07c0-1.28,1.15-2.58,4.55-2.73v.15a1.83,1.83,0,0,0-1.6,1.83c0,.9.63,1.45,1.63,1.52a2.82,2.82,0,0,1-2.4,1.2A2,2,0,0,1,39.47,122.23Zm7.25,7.45V122c0-1.23-.47-2.2-1.7-2.38v-.15c4.15.15,5.8,1.73,5.8,5v6.08c0,.72.25,1,.7,1s.8-.37,1.2-1.12h.15a3.12,3.12,0,0,1-3.25,2C47.62,132.5,46.72,131.8,46.72,129.68Z"/><path class="cls-1" d="M53.65,132.1c1.5,0,1.87-.65,1.87-1.27V122c0-.9-.42-1.32-1.85-1.32v-.15a15.23,15.23,0,0,0,6-1v11.33c0,.62.37,1.27,1.87,1.27v.15H53.65Zm8.8,0c1.47,0,1.85-.65,1.85-1.27V123a1.86,1.86,0,0,0-2-2.13,2.67,2.67,0,0,0-1.9.78v-.15a5.12,5.12,0,0,1,4.15-2c2.25,0,3.85,1,3.85,3.53v7.8c0,.62.38,1.27,1.87,1.27v.15H62.45Z"/><path class="cls-1" d="M77.75,129.3c0-2.17,2-3.4,4.8-3.4h2.7v.15H84.5a2.48,2.48,0,0,0-2.65,2.73c0,1.37.4,2.42,1.57,2.42a2.75,2.75,0,0,0,1.83-.87v.15a5.36,5.36,0,0,1-4,2C79.15,132.5,77.72,131.3,77.75,129.3Zm1-7.07c0-1.28,1.15-2.58,4.55-2.73v.15a1.83,1.83,0,0,0-1.6,1.83c0,.9.62,1.45,1.62,1.52a2.8,2.8,0,0,1-2.4,1.2A2,2,0,0,1,78.75,122.23ZM86,129.68V122c0-1.23-.48-2.2-1.7-2.38v-.15c4.15.15,5.8,1.73,5.8,5v6.08c0,.72.25,1,.7,1s.8-.37,1.2-1.12h.15a3.12,3.12,0,0,1-3.25,2C86.9,132.5,86,131.8,86,129.68Z"/><path class="cls-1" d="M92.92,132.1c1.5,0,1.88-.65,1.88-1.27V122c0-.9-.43-1.32-1.85-1.32v-.15a15.18,15.18,0,0,0,6-1v11.33c0,.62.38,1.27,1.88,1.27v.15H92.92Zm8.8,0c1.48,0,1.85-.65,1.85-1.27V123c0-1.4-.72-2.13-2-2.13a2.67,2.67,0,0,0-1.9.78v-.15a5.1,5.1,0,0,1,4.15-2c2.25,0,3.84,1,3.84,3.53v7.8c0,.62.38,1.27,1.88,1.27v.15h-7.85Z"/><path class="cls-1" d="M110.55,120.78a1.35,1.35,0,0,0-1.38-.88v-.15h7v.15c-.87,0-1.22.6-.8,1.48l3.28,6.82-2.15,4.05h-.15Zm-1.1,15.49a2.63,2.63,0,0,1,2.2-2.35,1.83,1.83,0,0,0-.1.63,1.46,1.46,0,0,0,1.47,1.67c.88,0,1.58-.92,2.53-2.52h.17c-1.37,2.57-2.32,4.8-4.07,4.8A2.08,2.08,0,0,1,109.45,136.27Zm10.25-10.52a6.89,6.89,0,0,0,.7-3.22,2.42,2.42,0,0,0-2.55-2.63v-.15h6.22v.15c-.82,0-1.15.33-1.62,1.18l-2.6,4.9Z"/><path class="cls-1" d="M130.42,119.65c-1.47.18-2,1.43-2,6.3,0,4.7.5,6.25,2,6.4v.15A6.37,6.37,0,0,1,124.2,126a6.27,6.27,0,0,1,6.22-6.45Zm7.2,6.3a6.36,6.36,0,0,1-6.2,6.55v-.15c1.48-.15,2-1.73,2-6.4,0-4.9-.5-6.15-2-6.3v-.15A6.23,6.23,0,0,1,137.62,126Z"/><path class="cls-1" d="M139.27,132.1c1.5,0,1.88-.65,1.88-1.27V122c0-.9-.43-1.32-1.85-1.32v-.15a15.18,15.18,0,0,0,6-1v11.33c0,.62.38,1.27,1.88,1.27v.15h-7.88Zm8.8,0c1.48,0,1.85-.65,1.85-1.27V123c0-1.4-.72-2.13-2-2.13a2.67,2.67,0,0,0-1.9.78v-.15a5.1,5.1,0,0,1,4.15-2c2.24,0,3.84,1,3.84,3.53v7.8c0,.62.38,1.27,1.88,1.27v.15h-7.85Z"/><path class="cls-1" d="M157.27,126a6.19,6.19,0,0,1,6.13-6.45v.15c-1.48.18-1.88,1.43-1.88,6.2,0,3.6,1.6,5.57,3.83,5.57A5.43,5.43,0,0,0,169,130.1v.15a7,7,0,0,1-5.3,2.25A6.34,6.34,0,0,1,157.27,126Zm5.63-1c2.2,0,3.12-.7,3.12-2.8,0-1.2-.5-2.3-1.62-2.45v-.15c3.3,0,4.9,2.35,4.9,4.25a6.9,6.9,0,0,1-.13,1.3H162.9Z"/><path class="cls-1" d="M177.7,126a6.19,6.19,0,0,1,6.12-6.45v.15c-1.47.18-1.87,1.43-1.87,6.2,0,3.6,1.6,5.57,3.82,5.57a5.41,5.41,0,0,0,3.65-1.32v.15a7,7,0,0,1-5.3,2.25A6.33,6.33,0,0,1,177.7,126Zm5.62-1c2.2,0,3.13-.7,3.13-2.8,0-1.2-.5-2.3-1.63-2.45v-.15c3.3,0,4.9,2.35,4.9,4.25a6.9,6.9,0,0,1-.13,1.3h-6.27Z"/><path class="cls-1" d="M191.2,114.85a15.37,15.37,0,0,0,6-1v17c0,.62.38,1.27,1.88,1.27v.15h-7.88v-.15c1.5,0,1.88-.65,1.88-1.27v-14.5c0-.9-.43-1.33-1.85-1.33Z"/><path class="cls-1" d="M204.9,129.28a1.27,1.27,0,0,0-1.4,1.25c0,.72.5,1.64,2.22,1.82v.15c-3.32-.12-5.15-1-5.15-2.47a2,2,0,0,1,2.13-1.85A2.54,2.54,0,0,1,204.9,129.28Zm.82-9.63c-.92.18-1.82.65-1.8,1.68.08,2.9,8.17,3.37,8.17,7.35,0,2.42-2.05,3.7-5.27,3.82v-.15c1.05-.18,2.23-.55,2.23-1.85,0-2.6-8.2-3.55-8.2-7.35,0-2.2,2.07-3.52,4.87-3.65Zm5.9,2.43a1.64,1.64,0,0,1-1.85,1.55,2.13,2.13,0,0,1-2.12-1.2,1.11,1.11,0,0,0,1.12-1.18c0-.75-1-1.47-2-1.6v-.15C209.64,119.65,211.62,120.68,211.62,122.08Z"/><path class="cls-1" d="M214.2,126a6.19,6.19,0,0,1,6.12-6.45v.15c-1.47.18-1.87,1.43-1.87,6.2,0,3.6,1.6,5.57,3.82,5.57a5.43,5.43,0,0,0,3.65-1.32v.15a7,7,0,0,1-5.3,2.25A6.33,6.33,0,0,1,214.2,126Zm5.62-1c2.2,0,3.12-.7,3.12-2.8,0-1.2-.49-2.3-1.62-2.45v-.15c3.3,0,4.9,2.35,4.9,4.25a6.9,6.9,0,0,1-.13,1.3h-6.27Z"/><rect class="cls-2" width="300" height="150"/></svg>