<?xml version="1.0" encoding="utf-8"?>
<!-- Generator: Adobe Illustrator 24.0.3, SVG Export Plug-In . SVG Version: 6.00 Build 0)  -->
<svg version="1.1" id="Layer_1" xmlns="http://www.w3.org/2000/svg" xmlns:xlink="http://www.w3.org/1999/xlink" x="0px" y="0px"
	 viewBox="0 0 300 150" style="enable-background:new 0 0 300 150;" xml:space="preserve">
<style type="text/css">
	.st0{clip-path:url(#SVGID_2_);}
	.st1{enable-background:new    ;}
	.st2{fill:#FFFFFF;}
</style>
<title>Artboard 1 copy 4</title>
<g>
	<defs>
		<rect id="SVGID_1_" y="0" width="300" height="150"/>
	</defs>
	<clipPath id="SVGID_2_">
		<use xlink:href="#SVGID_1_"  style="overflow:visible;"/>
	</clipPath>
	<g class="st0">
		<g class="st1">
			<path class="st2" d="M18.8,56.7v0.2c-1.8,0.2-3,2-3,8.4c0,6.4,1.2,8.5,3,8.7v0.2c-3.6-0.2-7.9-2.9-7.9-8.7
				C10.8,59.8,15.4,56.9,18.8,56.7z M20,56.8v-0.2c2.6,0.1,4,0.5,5.1,1.2l0.8-1.2h0.2v6.1h-0.2C25.2,59.8,23,57.4,20,56.8z
				 M28.5,66.7v0.1c-1.2,0-1.8,0.5-1.8,1.5v5.8h-0.2l-0.9-1.5c-1.2,0.9-3,1.4-5.5,1.5V74c1.7-0.1,2.7-1,2.7-3v-2.6
				c0-1-0.4-1.5-1.9-1.5v-0.1H28.5z"/>
			<path class="st2" d="M30,67.6c0-4.2,3.2-6.4,6.1-6.4v0.2c-1.5,0.2-1.9,1.4-1.9,6.2c0,3.6,1.6,5.6,3.8,5.6c1.4,0,2.5-0.4,3.6-1.3
				v0.1c-1.3,1.7-3.7,2.2-5.3,2.2C33.2,74.2,30,71.8,30,67.6z M35.6,66.6c2.2,0,3.1-0.7,3.1-2.8c0-1.2-0.5-2.3-1.6-2.4v-0.2
				c3.3,0,4.9,2.3,4.9,4.2c0,0.4,0,0.9-0.1,1.3h-6.3V66.6z"/>
			<path class="st2" d="M53.3,72v0.2c-0.8,1.1-2.4,2-4.3,2c-2.2,0-3.8-1-3.8-3.5v-8.2h-1.3l0.3-0.4h1v-2.7c1.5,0,3-0.5,4.1-1.4v4.1
				h3.4l-0.3,0.4h-3.1v8.3c0,1.2,0.5,2.5,1.6,2.5C51.6,73.3,52.5,72.8,53.3,72z"/>
		</g>
		<g class="st1">
			<path class="st2" d="M19.9,96v0.2c-0.8,1.1-2.4,2-4.3,2c-2.2,0-3.8-1-3.8-3.5v-8.2h-1.3l0.3-0.4h1v-2.7c1.5,0,3-0.5,4.1-1.4v4.1
				h3.4L19,86.4h-3.1v8.3c0,1.2,0.5,2.5,1.6,2.5C18.2,97.3,19.1,96.8,19.9,96z"/>
			<path class="st2" d="M26.4,96.5c0,0.6,0.4,1.3,1.9,1.3v0.2h-7.9v-0.2c1.5,0,1.9-0.6,1.9-1.3V82c0-0.9-0.4-1.3-1.8-1.3v-0.1
				c2.3,0,4.2-0.2,6-1V96.5z M35.1,88.7v7.8c0,0.6,0.4,1.3,1.9,1.3v0.2h-7.8v-0.2c1.5,0,1.8-0.6,1.8-1.3v-7.8c0-1.4-0.7-2.1-2-2.1
				c-0.7,0-1.3,0.2-1.9,0.8v-0.2c0.7-1,2.3-2,4.1-2C33.5,85.2,35.1,86.2,35.1,88.7z"/>
			<path class="st2" d="M38.3,91.6c0-4.2,3.2-6.4,6.1-6.4v0.2c-1.5,0.2-1.9,1.4-1.9,6.2c0,3.6,1.6,5.6,3.8,5.6
				c1.4,0,2.5-0.4,3.6-1.3v0.1c-1.3,1.7-3.7,2.2-5.3,2.2C41.6,98.2,38.3,95.8,38.3,91.6z M44,90.6c2.2,0,3.1-0.7,3.1-2.8
				c0-1.2-0.5-2.3-1.6-2.4v-0.2c3.3,0,4.9,2.3,4.9,4.2c0,0.4,0,0.9-0.1,1.3H44V90.6z"/>
		</g>
		<g class="st1">
			<path class="st2" d="M65.1,98v0.2c-2,0-3.5-0.4-4.8-1.2l-0.8,1.2h-0.2v-6.1h0.2C60.3,94.9,62.1,97,65.1,98z M72.5,93
				c0,3.2-2.4,5-6.3,5.1V98c1.4-0.2,2.7-1,2.7-2.5c0-4.4-9.5-4.8-9.5-9.8c0-3,2.4-4.7,5.7-4.9v0.2c-1.1,0.2-2.2,0.9-2.2,2.3
				C62.9,87.5,72.5,88,72.5,93z M66.2,80.8v-0.2c1.9,0.1,3.3,0.5,4.5,1.3l0.9-1.3h0.2v5.6h-0.2C70.8,83.6,68.7,81.4,66.2,80.8z"/>
		</g>
		<g class="st1">
			<path class="st2" d="M83.9,96v0.2c-0.8,1.1-2.4,2-4.3,2c-2.2,0-3.8-1-3.8-3.5v-8.2h-1.3l0.3-0.4h1v-2.7c1.5,0,3-0.5,4.1-1.4v4.1
				h3.4L83,86.4h-3.1v8.3c0,1.2,0.5,2.5,1.6,2.5C82.2,97.3,83.1,96.8,83.9,96z"/>
			<path class="st2" d="M84.7,95c0-2.2,2-3.4,4.8-3.4h2.7v0.2h-0.7c-1.8,0-2.6,1.2-2.6,2.7c0,1.4,0.4,2.4,1.6,2.4
				c0.7,0,1.3-0.4,1.8-0.9v0.2c-0.8,0.9-2.1,2-4,2C86.1,98.2,84.7,97,84.7,95z M85.7,87.9c0-1.3,1.1-2.6,4.5-2.7v0.2
				c-1,0.1-1.6,0.9-1.6,1.8c0,0.9,0.6,1.5,1.6,1.5c-0.4,0.7-1.4,1.2-2.4,1.2C86.5,89.9,85.7,88.9,85.7,87.9z M92.9,95.3v-7.6
				c0-1.2-0.5-2.2-1.7-2.4v-0.2c4.1,0.2,5.8,1.7,5.8,5v6.1c0,0.7,0.2,1,0.7,1c0.4,0,0.8-0.4,1.2-1.1h0.1c-0.4,1.4-1.7,2-3.2,2
				C93.8,98.2,92.9,97.5,92.9,95.3z"/>
		</g>
		<g class="st1">
			<path class="st2" d="M105.9,96.5c0,0.6,0.4,1.3,1.9,1.3v0.2h-7.9v-0.2c1.5,0,1.9-0.6,1.9-1.3v-8.9c0-0.9-0.4-1.3-1.8-1.3v-0.2
				c2.3,0,4.2-0.2,6-1V96.5z M112.6,87.9c0,1.7-1.2,2.8-2.6,2.8c-0.6,0-1.1-0.2-1.4-0.5c0.5-0.2,1-0.8,1-1.7c0-0.7-0.5-1.3-1.4-1.3
				c-0.6,0-1.2,0.4-1.5,0.9v-0.2c0.5-1.6,1.7-2.7,3.2-2.7C111.7,85.2,112.6,86.4,112.6,87.9z"/>
		</g>
		<g class="st1">
			<path class="st2" d="M19.9,120v0.2c-0.8,1.1-2.4,2-4.3,2c-2.2,0-3.8-1-3.8-3.5v-8.2h-1.3l0.3-0.4h1v-2.7c1.5,0,3-0.5,4.1-1.4v4.1
				h3.4l-0.3,0.4h-3.1v8.3c0,1.2,0.5,2.5,1.6,2.5C18.2,121.3,19.1,120.8,19.9,120z"/>
		</g>
		<g class="st1">
			<path class="st2" d="M26.5,120.5c0,0.6,0.4,1.3,1.9,1.3v0.2h-7.9v-0.2c1.5,0,1.9-0.6,1.9-1.3v-8.9c0-0.9-0.4-1.3-1.8-1.3v-0.2
				c2.3,0,4.2-0.2,6-1V120.5z M33.3,111.9c0,1.7-1.2,2.8-2.6,2.8c-0.6,0-1.1-0.2-1.4-0.5c0.5-0.2,1-0.8,1-1.7c0-0.7-0.5-1.3-1.4-1.3
				c-0.6,0-1.2,0.4-1.5,0.9v-0.2c0.5-1.6,1.7-2.7,3.2-2.7C32.3,109.2,33.3,110.4,33.3,111.9z"/>
		</g>
		<g class="st1">
			<path class="st2" d="M34.6,115.6c0-4.2,3.2-6.4,6.1-6.4v0.2c-1.5,0.2-1.9,1.4-1.9,6.2c0,3.6,1.6,5.6,3.8,5.6
				c1.4,0,2.5-0.4,3.6-1.3v0.1c-1.3,1.7-3.7,2.2-5.3,2.2C37.8,122.2,34.6,119.8,34.6,115.6z M40.2,114.6c2.2,0,3.1-0.7,3.1-2.8
				c0-1.2-0.5-2.3-1.6-2.4v-0.2c3.3,0,4.9,2.3,4.9,4.2c0,0.4,0,0.9-0.1,1.3h-6.3V114.6z"/>
			<path class="st2" d="M48.4,119c0-2.2,2-3.4,4.8-3.4h2.7v0.2h-0.7c-1.8,0-2.6,1.2-2.6,2.7c0,1.4,0.4,2.4,1.6,2.4
				c0.7,0,1.3-0.4,1.8-0.9v0.2c-0.8,0.9-2.1,2-4,2C49.8,122.2,48.4,121,48.4,119z M49.4,111.9c0-1.3,1.1-2.6,4.5-2.7v0.2
				c-1,0.1-1.6,0.9-1.6,1.8c0,0.9,0.6,1.5,1.6,1.5c-0.4,0.7-1.4,1.2-2.4,1.2C50.2,113.9,49.4,112.9,49.4,111.9z M56.7,119.3v-7.6
				c0-1.2-0.5-2.2-1.7-2.4v-0.2c4.1,0.2,5.8,1.7,5.8,5v6.1c0,0.7,0.2,1,0.7,1c0.4,0,0.8-0.4,1.2-1.1h0.1c-0.4,1.4-1.7,2-3.2,2
				C57.6,122.2,56.7,121.5,56.7,119.3z"/>
			<path class="st2" d="M73.3,120v0.2c-0.8,1.1-2.4,2-4.3,2c-2.2,0-3.8-1-3.8-3.5v-8.2h-1.3l0.3-0.4h1v-2.7c1.5,0,3-0.5,4.1-1.4v4.1
				h3.4l-0.3,0.4h-3.1v8.3c0,1.2,0.5,2.5,1.6,2.5C71.6,121.3,72.5,120.8,73.3,120z"/>
			<path class="st2" d="M79.9,120.5c0,0.6,0.4,1.3,1.9,1.3v0.2h-7.9v-0.2c1.5,0,1.9-0.6,1.9-1.3v-8.9c0-0.9-0.4-1.3-1.8-1.3v-0.2
				c2.3,0,4.2-0.2,6-1V120.5z M88.2,112.7v7.8c0,0.6,0.3,1.3,1.8,1.3v0.2h-7.8v-0.2c1.5,0,1.9-0.6,1.9-1.3v-7.8
				c0-1.4-0.5-2.1-1.7-2.1c-0.7,0-1.3,0.4-1.6,0.8v-0.1c0.6-1,1.8-2,3.6-2C86.7,109.2,88.2,110.2,88.2,112.7z M96.5,112.7v7.8
				c0,0.6,0.4,1.3,1.9,1.3v0.2h-7.9v-0.2c1.5,0,1.9-0.6,1.9-1.3v-7.8c0-1.4-0.5-2.1-1.7-2.1c-0.7,0-1.3,0.4-1.6,0.8v-0.1
				c0.6-1,1.8-2,3.6-2C95,109.2,96.5,110.2,96.5,112.7z"/>
			<path class="st2" d="M99.7,115.6c0-4.2,3.2-6.4,6.1-6.4v0.2c-1.5,0.2-1.9,1.4-1.9,6.2c0,3.6,1.6,5.6,3.8,5.6
				c1.4,0,2.5-0.4,3.6-1.3v0.1c-1.3,1.7-3.7,2.2-5.3,2.2C102.9,122.2,99.7,119.8,99.7,115.6z M105.3,114.6c2.2,0,3.1-0.7,3.1-2.8
				c0-1.2-0.5-2.3-1.6-2.4v-0.2c3.3,0,4.9,2.3,4.9,4.2c0,0.4,0,0.9-0.1,1.3h-6.3V114.6z"/>
			<path class="st2" d="M113.3,121.8c1.5,0,1.9-0.6,1.9-1.3v-8.9c0-0.9-0.4-1.3-1.8-1.3v-0.2c2.3,0,4.2-0.2,6-1v11.3
				c0,0.6,0.4,1.3,1.9,1.3v0.2h-7.9V121.8z M122.1,121.8c1.5,0,1.8-0.6,1.8-1.3v-7.8c0-1.4-0.7-2.1-2-2.1c-0.7,0-1.3,0.2-1.9,0.8
				v-0.2c0.7-1,2.3-2,4.1-2c2.2,0,3.8,1,3.8,3.5v7.8c0,0.6,0.4,1.3,1.9,1.3v0.2h-7.8V121.8z"/>
			<path class="st2" d="M140.6,120v0.2c-0.8,1.1-2.4,2-4.3,2c-2.2,0-3.8-1-3.8-3.5v-8.2h-1.3l0.3-0.4h1v-2.7c1.5,0,3-0.5,4.1-1.4
				v4.1h3.4l-0.3,0.4h-3.1v8.3c0,1.2,0.5,2.5,1.6,2.5C138.9,121.3,139.8,120.8,140.6,120z"/>
			<path class="st2" d="M141.4,108c0-2.2,3-3.3,5.3-3.4v0.2c-1.2,0.3-1.8,1.4-1.8,2.4c0,0.9,0.4,1.7,1.4,2.2c-0.4,0.6-1.2,1-2.3,1
				C142.7,110.4,141.4,109.7,141.4,108z M145,121.3c0-1.4,1.1-2.3,2.7-2.3c1.6,0,2.7,0.9,2.7,2.3c0,1.4-1.1,2.3-2.7,2.3
				C146.1,123.6,145,122.7,145,121.3z M145.7,114.3c0-2.8,4-3.6,4-6.8c0-1.3-0.5-2.2-1.8-2.6v-0.2c3.4,0.2,6,1.3,6,4.1
				c0,3.4-5.4,4.5-5.4,6.7c0,0.6,0.2,1.1,0.9,1.4l0,0.2C146.9,117.1,145.7,115.8,145.7,114.3z"/>
		</g>
	</g>
</g>
</svg>
