<?xml version="1.0" encoding="utf-8"?>
<!-- Generator: Adobe Illustrator 24.0.3, SVG Export Plug-In . SVG Version: 6.00 Build 0)  -->
<svg version="1.1" id="Layer_1" xmlns="http://www.w3.org/2000/svg" xmlns:xlink="http://www.w3.org/1999/xlink" x="0px" y="0px"
	 viewBox="0 0 300 150" style="enable-background:new 0 0 300 150;" xml:space="preserve">
<style type="text/css">
	.st0{clip-path:url(#SVGID_2_);}
	.st1{enable-background:new    ;}
	.st2{fill:#263845;}
</style>
<title>Artboard 1 copy</title>
<g>
	<defs>
		<rect id="SVGID_1_" y="0.3" width="300" height="150"/>
	</defs>
	<clipPath id="SVGID_2_">
		<use xlink:href="#SVGID_1_"  style="overflow:visible;"/>
	</clipPath>
	<g class="st0">
		<g class="st1">
			<path class="st2" d="M12.9,78.2l0.2,0.3L13.3,89c0,1.1,0.8,2.1,2.4,2.1v0.2h-5.5v-0.2c1.6,0,2.4-1,2.4-2.1L12.9,78.2z M26.2,91.3
				h-2.8L13,75.7c-0.6-1-1.4-1.3-2.6-1.3v-0.2H17L26.2,88V91.3z M26.1,85.5l-0.2-0.3l-0.3-8.7c0-1.1-0.8-2.1-2.4-2.1v-0.2h5.5v0.2
				c-1.6,0-2.4,1-2.4,2.1L26.1,85.5z"/>
			<path class="st2" d="M39.9,74.3h4.8l-9.9,17H30L39.9,74.3z M30.7,74.3h7.5l-0.1,0.2c-3.7,0.2-6.6,2.7-7.3,5.9h-0.2V74.3z
				 M36.4,91.1c3.7-0.3,6.8-2.7,7.8-6.7h0.2v6.8h-8.1L36.4,91.1z"/>
		</g>
		<g class="st1">
			<path class="st2" d="M51.6,75.1c0,1.4-1.5,3.4-4,4.4l-0.1-0.2c0.7-0.6,1.4-1.5,1.4-2.4c0-1.1-0.8-1.6-1.7-1.6
				c0.2-1.5,1.1-2.3,2.4-2.3C50.7,72.9,51.6,73.7,51.6,75.1z"/>
		</g>
		<g class="st1">
			<path class="st2" d="M56.7,88.3c-0.8,0-1.4,0.5-1.4,1.2c0,0.7,0.5,1.6,2.2,1.8v0.2c-3.3-0.1-5.1-1-5.1-2.5c0-1.1,1-1.8,2.1-1.8
				C55.5,87.2,56.4,87.7,56.7,88.3z M57.6,78.7c-0.9,0.2-1.8,0.6-1.8,1.7c0.1,2.9,8.2,3.4,8.2,7.3c0,2.4-2,3.7-5.3,3.8v-0.2
				c1-0.2,2.2-0.5,2.2-1.8c0-2.6-8.2-3.5-8.2-7.3c0-2.2,2.1-3.5,4.9-3.6V78.7z M63.5,81.1c0,0.8-0.6,1.5-1.8,1.5
				c-1,0-1.8-0.5-2.1-1.2c0.8-0.1,1.1-0.6,1.1-1.2c0-0.8-1-1.5-1.9-1.6v-0.2C61.5,78.7,63.5,79.7,63.5,81.1z"/>
			<path class="st2" d="M71.8,73.9c2.3,0,4.2-0.2,6-1v16.9c0,0.6,0.4,1.3,1.9,1.3v0.2h-7.9v-0.2c1.5,0,1.9-0.6,1.9-1.3V75.3
				c0-0.9-0.4-1.3-1.8-1.3V73.9z"/>
			<path class="st2" d="M81.2,85c0-4.2,3.2-6.4,6.1-6.4v0.2c-1.5,0.2-1.9,1.4-1.9,6.2c0,3.6,1.6,5.6,3.8,5.6c1.4,0,2.5-0.4,3.6-1.3
				v0.1c-1.3,1.7-3.7,2.2-5.3,2.2C84.4,91.5,81.2,89.2,81.2,85z M86.8,83.9c2.2,0,3.1-0.7,3.1-2.8c0-1.2-0.5-2.3-1.6-2.4v-0.2
				c3.3,0,4.9,2.3,4.9,4.2c0,0.4,0,0.9-0.1,1.3h-6.3V83.9z"/>
			<path class="st2" d="M95,88.3c0-2.2,2-3.4,4.8-3.4h2.7v0.2h-0.7c-1.8,0-2.6,1.2-2.6,2.7c0,1.4,0.4,2.4,1.6,2.4
				c0.7,0,1.3-0.4,1.8-0.9v0.2c-0.8,0.9-2.1,2-4,2C96.4,91.5,95,90.3,95,88.3z M96,81.2c0-1.3,1.1-2.6,4.5-2.7v0.2
				c-1,0.1-1.6,0.9-1.6,1.8c0,0.9,0.6,1.5,1.6,1.5c-0.4,0.7-1.4,1.2-2.4,1.2C96.8,83.2,96,82.3,96,81.2z M103.2,88.7V81
				c0-1.2-0.5-2.2-1.7-2.4v-0.2c4.1,0.2,5.8,1.7,5.8,5v6.1c0,0.7,0.2,1,0.7,1c0.4,0,0.8-0.4,1.2-1.1h0.1c-0.4,1.4-1.7,2-3.2,2
				C104.1,91.5,103.2,90.8,103.2,88.7z"/>
			<path class="st2" d="M119.5,80.5v0.2c-0.6-0.6-1.3-0.9-2.1-0.9c-1.2,0-2.4,0.6-2.4,5.1c0,4.5,1.3,5.3,2.4,5.3
				c0.8,0,1.4-0.4,2.1-0.9v0.2c-0.6,1-2.2,2-3.6,2c-2.4,0-5.1-1.4-5.1-6.6c0-5,2.7-6.4,5.1-6.4C117.3,78.5,118.9,79.5,119.5,80.5z
				 M124.4,89.6c0,0.7,0.2,1,0.7,1c0.4,0,0.8-0.4,1.2-1.1h0.1c-0.4,1.4-1.7,2-3.2,2c-2,0-2.9-0.7-2.9-2.8V75.3
				c0-0.9-0.4-1.3-1.8-1.3v-0.1c2.3,0,3.9-0.2,6-1V89.6z"/>
			<path class="st2" d="M127.4,79.5c2.3,0,4.2-0.2,6-1v11.3c0,0.6,0.4,1.3,1.9,1.3v0.2h-7.9v-0.2c1.5,0,1.9-0.6,1.9-1.3v-8.9
				c0-0.9-0.4-1.3-1.8-1.3V79.5z M128.7,74.8c0-1.3,1-2.2,2.5-2.2c1.5,0,2.5,0.9,2.5,2.2c0,1.3-1,2.2-2.5,2.2
				C129.8,77,128.7,76.1,128.7,74.8z"/>
			<path class="st2" d="M136.3,91.1c1.5,0,1.9-0.6,1.9-1.3V81c0-0.9-0.4-1.3-1.8-1.3v-0.2c2.3,0,4.2-0.2,6-1v11.3
				c0,0.6,0.4,1.3,1.9,1.3v0.2h-7.9V91.1z M145.1,91.1c1.5,0,1.8-0.6,1.8-1.3V82c0-1.4-0.7-2.1-2-2.1c-0.7,0-1.3,0.2-1.9,0.8v-0.2
				c0.7-1,2.3-2,4.1-2c2.2,0,3.8,1,3.8,3.5v7.8c0,0.6,0.4,1.3,1.9,1.3v0.2h-7.8V91.1z"/>
			<path class="st2" d="M154.5,83c0-3.2,3-4.5,5.6-4.5v0.2c-1.1,0.1-1.6,1.4-1.6,4.3c0,3,0.5,4.2,1.6,4.3v0.2
				C157.5,87.5,154.5,86.3,154.5,83z M161.1,97.4c2.5-0.3,3.3-1.6,3.3-2.5c0-3.5-9.7-0.4-9.7-4.8c0-1,0.5-1.8,1.7-2.5l0.1,0.1
				c-0.1,0.1-0.2,0.3-0.2,0.5c0,2.8,11.4-0.5,11.4,5c0,2.6-2.2,4.2-6.5,4.5V97.4z M154.7,95.3c0-1.5,1.8-1.9,3.8-1.9
				c-0.5,0.2-1.1,0.9-1.1,1.8c0,1.2,1.3,2,2.7,2.2v0.1C157.4,97.5,154.7,96.9,154.7,95.3z M161.1,87.3c1.2-0.1,1.7-1.3,1.7-4.3
				c0-2.9-0.5-4.2-1.7-4.3v-0.2c2.6,0,5.7,1.3,5.7,4.5c0,3.2-3.1,4.4-5.7,4.4V87.3z M162.5,78.1c0.4-1.3,1.6-3,3.3-3
				c1.3,0,2.1,0.7,2.1,1.9c0,1.2-1.1,2-2,2c0-1-0.5-1.7-1.3-1.7c-0.8,0-1.6,0.5-1.9,0.9L162.5,78.1z"/>
		</g>
		<g class="st1">
			<path class="st2" d="M18.8,115.1v0.2h-8v-0.2c1.5,0,1.9-0.6,1.9-1.3V99.7c0-0.7-0.4-1.2-1.9-1.2v-0.2h6.1v15.6
				C16.9,114.5,17.2,115.1,18.8,115.1z M28.5,113.5c-0.4,1.4-1.9,2-3.7,2c-3.2,0-4-2.2-4.1-4.3c-0.1-2-0.3-3.6-2.5-4V107
				c2.3,0,3.3-2,3.3-4.5c0-2.8-1-4.1-3.3-4.1v-0.2c5.1,0,7.6,1.1,7.6,4.3c0,2.7-2,4.3-5.7,4.6c4.5,0.2,5.2,2,5.5,4
				c0.2,2,0.8,3.4,1.6,3.4c0.4,0,0.8-0.4,1.2-1.1H28.5z"/>
		</g>
		<g class="st1">
			<path class="st2" d="M28.9,99.7c-0.4-1-1-1.3-2.2-1.3v-0.2h9v0.2c-1.1,0-2.2,0.8-1.5,2l4.7,9.9l-2.3,5.1h-0.3L28.9,99.7z
				 M39.8,108.1c1.4-3.3,1.8-5.4,1.8-7c0-1.8-1.5-2.7-2.8-2.7v-0.2h7.2v0.1c-1.1,0-1.8,1.1-2.6,2.8l-3.4,7.2L39.8,108.1z"/>
		</g>
		<g class="st1">
			<path class="st2" d="M51.4,103.5c2.3,0,4.2-0.2,6-1v11.3c0,0.6,0.4,1.3,1.9,1.3v0.2h-7.9v-0.2c1.5,0,1.9-0.6,1.9-1.3v-8.9
				c0-0.9-0.4-1.3-1.8-1.3V103.5z M52.7,98.8c0-1.3,1-2.2,2.5-2.2c1.5,0,2.5,0.9,2.5,2.2c0,1.3-1,2.2-2.5,2.2
				C53.7,101,52.7,100.1,52.7,98.8z"/>
			<path class="st2" d="M60.3,115.1c1.5,0,1.9-0.6,1.9-1.3V105c0-0.9-0.4-1.3-1.8-1.3v-0.2c2.3,0,4.2-0.2,6-1v11.3
				c0,0.6,0.4,1.3,1.9,1.3v0.2h-7.9V115.1z M69.1,115.1c1.5,0,1.8-0.6,1.8-1.3V106c0-1.4-0.7-2.1-2-2.1c-0.7,0-1.3,0.2-1.9,0.8v-0.2
				c0.7-1,2.3-2,4.1-2c2.2,0,3.8,1,3.8,3.5v7.8c0,0.6,0.4,1.3,1.9,1.3v0.2h-7.8V115.1z"/>
			<path class="st2" d="M82.6,112.3c-0.8,0-1.4,0.5-1.4,1.2c0,0.7,0.5,1.6,2.2,1.8v0.2c-3.3-0.1-5.1-1-5.1-2.5c0-1.1,1-1.8,2.1-1.8
				C81.4,111.2,82.3,111.7,82.6,112.3z M83.5,102.7c-0.9,0.2-1.8,0.6-1.8,1.7c0.1,2.9,8.2,3.4,8.2,7.3c0,2.4-2,3.7-5.3,3.8v-0.2
				c1-0.2,2.2-0.5,2.2-1.8c0-2.6-8.2-3.5-8.2-7.3c0-2.2,2.1-3.5,4.9-3.6V102.7z M89.4,105.1c0,0.8-0.6,1.5-1.8,1.5
				c-1,0-1.8-0.5-2.1-1.2c0.8-0.1,1.1-0.6,1.1-1.2c0-0.8-1-1.5-1.9-1.6v-0.2C87.4,102.7,89.4,103.7,89.4,105.1z"/>
			<path class="st2" d="M97.2,112c0,1.4,0.5,2.1,1.7,2.1c0.6,0,1.2-0.2,1.7-0.8v0.2c-0.6,1.1-1.8,2-3.9,2c-2.2,0-3.7-1-3.7-3.5v-7
				c0-0.9-0.4-1.3-1.8-1.3v-0.2c2.3,0,4.2-0.2,6-1V112z M105.5,113.6c0,0.7,0.2,1,0.7,1c0.4,0,0.8-0.4,1.2-1.1h0.1
				c-0.4,1.4-1.7,2-3.4,2c-1.8,0-2.7-1-2.7-2.4V105c0-0.9-0.4-1.3-1.8-1.3v-0.2c2.2,0,3.8-0.2,5.9-1V113.6z"/>
		</g>
		<g class="st1">
			<path class="st2" d="M114.6,113.8c0,0.6,0.4,1.3,1.9,1.3v0.2h-7.9v-0.2c1.5,0,1.9-0.6,1.9-1.3V105c0-0.9-0.4-1.3-1.8-1.3v-0.2
				c2.3,0,4.2-0.2,6-1V113.8z M121.3,105.2c0,1.7-1.2,2.8-2.6,2.8c-0.6,0-1.1-0.2-1.4-0.5c0.5-0.2,1-0.8,1-1.7
				c0-0.7-0.5-1.3-1.4-1.3c-0.6,0-1.2,0.4-1.5,0.9v-0.2c0.5-1.6,1.7-2.7,3.2-2.7C120.4,102.5,121.3,103.7,121.3,105.2z"/>
		</g>
		<g class="st1">
			<path class="st2" d="M122.4,112.3c0-2.2,2-3.4,4.8-3.4h2.7v0.2h-0.7c-1.8,0-2.6,1.2-2.6,2.7c0,1.4,0.4,2.4,1.6,2.4
				c0.7,0,1.3-0.4,1.8-0.9v0.2c-0.8,0.9-2.1,2-4,2C123.8,115.5,122.4,114.3,122.4,112.3z M123.4,105.2c0-1.3,1.1-2.6,4.5-2.7v0.2
				c-1,0.1-1.6,0.9-1.6,1.8c0,0.9,0.6,1.5,1.6,1.5c-0.4,0.7-1.4,1.2-2.4,1.2C124.2,107.2,123.4,106.3,123.4,105.2z M130.6,112.7V105
				c0-1.2-0.5-2.2-1.7-2.4v-0.2c4.1,0.2,5.8,1.7,5.8,5v6.1c0,0.7,0.2,1,0.7,1c0.4,0,0.8-0.4,1.2-1.1h0.1c-0.4,1.4-1.7,2-3.2,2
				C131.5,115.5,130.6,114.8,130.6,112.7z"/>
			<path class="st2" d="M137.6,115.1c1.5,0,1.9-0.6,1.9-1.3V105c0-0.9-0.4-1.3-1.8-1.3v-0.2c2.3,0,4.2-0.2,6-1v11.3
				c0,0.6,0.4,1.3,1.9,1.3v0.2h-7.9V115.1z M146.4,115.1c1.5,0,1.8-0.6,1.8-1.3V106c0-1.4-0.7-2.1-2-2.1c-0.7,0-1.3,0.2-1.9,0.8
				v-0.2c0.7-1,2.3-2,4.1-2c2.2,0,3.8,1,3.8,3.5v7.8c0,0.6,0.4,1.3,1.9,1.3v0.2h-7.8V115.1z"/>
			<path class="st2" d="M162,102.7c-1.5,0.2-2.1,1.4-2.1,6.2c0,3.6,1.8,5.6,4,5.6c1.4,0,2.5-0.4,3.6-1.3v0.1
				c-1.3,1.7-3.7,2.2-5.3,2.2c-3.2,0-6.7-2.3-6.7-6.5c0-4.2,3.5-6.4,6.4-6.4V102.7z M167.5,105.3c0,1.3-0.9,2.4-2.5,2.4
				c-1.2,0-2-0.8-2.2-1.6c0.7-0.3,1.2-1.2,1.2-1.8c0-0.6-0.2-1.5-1.1-1.7v-0.2C166.2,102.5,167.5,103.9,167.5,105.3z"/>
			<path class="st2" d="M169.4,109c0-4.2,3.2-6.4,6.1-6.4v0.2c-1.5,0.2-1.9,1.4-1.9,6.2c0,3.6,1.6,5.6,3.8,5.6
				c1.4,0,2.5-0.4,3.6-1.3v0.1c-1.3,1.7-3.7,2.2-5.3,2.2C172.6,115.5,169.4,113.2,169.4,109z M175,107.9c2.2,0,3.1-0.7,3.1-2.8
				c0-1.2-0.5-2.3-1.6-2.4v-0.2c3.3,0,4.9,2.3,4.9,4.2c0,0.4,0,0.9-0.1,1.3H175V107.9z"/>
		</g>
		<g class="st1">
			<path class="st2" d="M16,143.1c0,0.9,0.4,1.3,1.8,1.3v0.1c-2.3,0-3.9,0.2-6,1v-16.6c0-0.9-0.4-1.3-1.8-1.3v-0.1
				c2.3,0,3.9-0.2,6-1V143.1z M25.6,132.9c0,5.2-2.7,6.6-5.1,6.6c-1.4,0-3-1-3.6-2v-0.2c0.6,0.5,1.3,0.9,2.1,0.9
				c1.2,0,2.4-0.8,2.4-5.3c0-4.5-1.2-5.1-2.4-5.1c-0.8,0-1.5,0.3-2.1,0.9v-0.2c0.6-1,2.2-2,3.6-2C22.9,126.5,25.6,127.9,25.6,132.9z
				"/>
			<path class="st2" d="M34,126.7c-1.5,0.2-2,1.4-2,6.3c0,4.7,0.5,6.2,2,6.4v0.2c-2.9,0-6.2-2.3-6.2-6.5c0-4.2,3.3-6.4,6.2-6.4
				V126.7z M41.2,133c0,4.2-3.3,6.5-6.2,6.5v-0.2c1.5-0.1,1.9-1.7,1.9-6.4c0-4.9-0.5-6.1-1.9-6.3v-0.2
				C37.9,126.5,41.2,128.7,41.2,133z"/>
			<path class="st2" d="M42.7,121.9c2.3,0,4.2-0.2,6-1v16.9c0,0.6,0.4,1.3,1.9,1.3v0.2h-7.9v-0.2c1.5,0,1.9-0.6,1.9-1.3v-14.5
				c0-0.9-0.4-1.3-1.8-1.3V121.9z"/>
			<path class="st2" d="M51.7,127.5c2.3,0,4.2-0.2,6-1v11.3c0,0.6,0.4,1.3,1.9,1.3v0.2h-7.9v-0.2c1.5,0,1.9-0.6,1.9-1.3v-8.9
				c0-0.9-0.4-1.3-1.8-1.3V127.5z M52.9,122.8c0-1.3,1-2.2,2.5-2.2c1.5,0,2.5,0.9,2.5,2.2c0,1.3-1,2.2-2.5,2.2
				C54,125,52.9,124.1,52.9,122.8z"/>
			<path class="st2" d="M67.4,126.7c-1.5,0.2-2.1,1.4-2.1,6.2c0,3.6,1.8,5.6,4,5.6c1.4,0,2.5-0.4,3.6-1.3v0.1
				c-1.3,1.7-3.7,2.2-5.3,2.2c-3.2,0-6.7-2.3-6.7-6.5c0-4.2,3.5-6.4,6.4-6.4V126.7z M73,129.3c0,1.3-0.9,2.4-2.5,2.4
				c-1.2,0-2-0.8-2.2-1.6c0.7-0.3,1.2-1.2,1.2-1.8c0-0.6-0.1-1.5-1.1-1.7v-0.2C71.7,126.5,73,127.9,73,129.3z"/>
		</g>
		<g class="st1">
			<path class="st2" d="M75,127.8c-0.2-0.5-0.6-0.9-1.4-0.9v-0.2h7v0.2c-0.9,0-1.2,0.6-0.8,1.5l3.3,6.8l-2.1,4h-0.2L75,127.8z
				 M73.9,143.3c0-1.1,0.9-2,2.2-2.3c-0.1,0.2-0.1,0.4-0.1,0.6c0,0.9,0.5,1.7,1.5,1.7c0.9,0,1.6-0.9,2.5-2.5h0.2
				c-1.4,2.6-2.3,4.8-4.1,4.8C74.7,145.5,73.9,144.6,73.9,143.3z M84.2,132.8c0.4-0.8,0.7-1.9,0.7-3.2c0-1.4-0.8-2.6-2.5-2.6v-0.2
				h6.2v0.2c-0.8,0-1.2,0.3-1.6,1.2l-2.6,4.9L84.2,132.8z"/>
		</g>
	</g>
</g>
</svg>
