<svg id="Layer_1" data-name="Layer 1" xmlns="http://www.w3.org/2000/svg" xmlns:xlink="http://www.w3.org/1999/xlink" viewBox="0 0 300 150"><defs><style>.cls-1{fill:none;}.cls-2{clip-path:url(#clip-path);}.cls-3{fill:#fff;}</style><clipPath id="clip-path"><rect class="cls-1" width="300" height="150"/></clipPath></defs><title>Artboard 1 copy 4</title><g class="cls-2"><path class="cls-3" d="M19.15,61v.15c-1.8.23-3,2-3,8.45s1.25,8.52,3,8.75v.15a8.35,8.35,0,0,1-7.95-8.75A8.66,8.66,0,0,1,19.15,61Zm1.22.15V61a10.54,10.54,0,0,1,5.13,1.18L26.27,61h.2v6.08h-.2A7.7,7.7,0,0,0,20.37,61.15Zm8.48,9.93v.15c-1.18,0-1.85.45-1.85,1.47v5.8h-.2L25.9,77a9.84,9.84,0,0,1-5.5,1.5v-.15c1.7-.13,2.67-1,2.67-3V72.7c0-1-.45-1.47-1.87-1.47v-.15Z"/><path class="cls-3" d="M30.37,72A6.19,6.19,0,0,1,36.5,65.5v.15c-1.48.18-1.88,1.43-1.88,6.2,0,3.6,1.6,5.57,3.83,5.57A5.43,5.43,0,0,0,42.1,76.1v.15a7,7,0,0,1-5.3,2.25A6.34,6.34,0,0,1,30.37,72Zm5.63-1c2.2,0,3.12-.7,3.12-2.8,0-1.2-.5-2.3-1.62-2.45V65.5c3.3,0,4.9,2.35,4.9,4.25a6.9,6.9,0,0,1-.13,1.3H36Z"/><path class="cls-3" d="M53.7,76.32v.16a5.26,5.26,0,0,1-4.28,2c-2.25,0-3.85-1-3.85-3.52v-8.2h-1.3l.28-.38h1V63.7a6.27,6.27,0,0,0,4.1-1.4v4.1h3.38l-.28.38h-3.1v8.27c0,1.25.48,2.55,1.65,2.55A3.69,3.69,0,0,0,53.7,76.32Z"/><path class="cls-3" d="M20.3,103.32v.16a5.26,5.26,0,0,1-4.28,2c-2.25,0-3.85-1-3.85-3.52v-8.2h-1.3l.28-.38h1V90.7a6.27,6.27,0,0,0,4.1-1.4v4.1h3.38l-.28.38h-3.1v8.27c0,1.25.48,2.55,1.65,2.55A3.69,3.69,0,0,0,20.3,103.32Z"/><path class="cls-3" d="M26.75,103.82c0,.63.37,1.28,1.87,1.28v.15H20.75v-.15c1.5,0,1.87-.65,1.87-1.28V89.33c0-.9-.42-1.33-1.85-1.33v-.15a15.42,15.42,0,0,0,6-1ZM35.5,96v7.79c0,.63.37,1.28,1.87,1.28v.15H29.52v-.15c1.48,0,1.85-.65,1.85-1.28V96c0-1.4-.72-2.13-2-2.13a2.67,2.67,0,0,0-1.9.78v-.15a5.1,5.1,0,0,1,4.15-2C33.9,92.5,35.5,93.55,35.5,96Z"/><path class="cls-3" d="M38.72,99a6.19,6.19,0,0,1,6.13-6.45v.15c-1.48.18-1.88,1.43-1.88,6.2,0,3.6,1.6,5.57,3.83,5.57a5.43,5.43,0,0,0,3.65-1.32v.15a7,7,0,0,1-5.3,2.25A6.34,6.34,0,0,1,38.72,99Zm5.63-1c2.2,0,3.12-.7,3.12-2.8,0-1.2-.5-2.3-1.62-2.45V92.5c3.3,0,4.9,2.35,4.9,4.25a6.9,6.9,0,0,1-.13,1.3H44.35Z"/><path class="cls-3" d="M65.52,105.35v.15a9.58,9.58,0,0,1-4.85-1.22l-.82,1.22h-.2V99.4h.2A8.38,8.38,0,0,0,65.52,105.35Zm7.35-5c0,3.22-2.4,5-6.27,5.12v-.15c1.37-.25,2.72-1,2.72-2.55,0-4.37-9.55-4.77-9.55-9.85,0-3,2.43-4.72,5.75-5v.15a2.37,2.37,0,0,0-2.2,2.3C63.32,94.83,72.87,95.3,72.87,100.38ZM66.6,88.15V88a8.08,8.08,0,0,1,4.5,1.33L72,88h.2v5.58H72A8,8,0,0,0,66.6,88.15Z"/><path class="cls-3" d="M84.27,103.32v.16a5.25,5.25,0,0,1-4.27,2c-2.25,0-3.85-1-3.85-3.52v-8.2h-1.3l.27-.38h1V90.7a6.31,6.31,0,0,0,4.1-1.4v4.1h3.37l-.27.38h-3.1v8.27c0,1.25.47,2.55,1.65,2.55A3.65,3.65,0,0,0,84.27,103.32Z"/><path class="cls-3" d="M85.07,102.3c0-2.17,2-3.4,4.8-3.4h2.7v.15h-.75a2.48,2.48,0,0,0-2.65,2.73c0,1.37.4,2.42,1.58,2.42a2.74,2.74,0,0,0,1.82-.88v.16a5.34,5.34,0,0,1-4,2C86.47,105.5,85.05,104.3,85.07,102.3Zm1-7.07c0-1.28,1.15-2.58,4.55-2.73v.15A1.83,1.83,0,0,0,89,94.48c0,.9.63,1.45,1.63,1.52a2.82,2.82,0,0,1-2.4,1.2A2,2,0,0,1,86.07,95.23Zm7.25,7.45V95c0-1.23-.47-2.2-1.7-2.38V92.5c4.15.15,5.8,1.73,5.8,5v6.07c0,.73.25,1,.7,1s.8-.37,1.2-1.12h.15a3.12,3.12,0,0,1-3.25,2C94.22,105.5,93.32,104.8,93.32,102.68Z"/><path class="cls-3" d="M106.25,103.82c0,.63.37,1.28,1.87,1.28v.15h-7.87v-.15c1.5,0,1.87-.65,1.87-1.28V95c0-.9-.42-1.32-1.85-1.32v-.15a15.23,15.23,0,0,0,6-1ZM113,95.2a2.67,2.67,0,0,1-2.57,2.85A1.69,1.69,0,0,1,109,97.5a1.83,1.83,0,0,0,1-1.7,1.33,1.33,0,0,0-1.4-1.35,1.73,1.73,0,0,0-1.5,1v-.2a3.46,3.46,0,0,1,3.25-2.7A2.53,2.53,0,0,1,113,95.2Z"/><path class="cls-3" d="M20.3,130.32v.16a5.26,5.26,0,0,1-4.28,2c-2.25,0-3.85-1-3.85-3.52v-8.2h-1.3l.28-.38h1v-2.7a6.27,6.27,0,0,0,4.1-1.4v4.1h3.38l-.28.38h-3.1v8.27c0,1.25.48,2.55,1.65,2.55A3.69,3.69,0,0,0,20.3,130.32Z"/><path class="cls-3" d="M26.9,130.82c0,.63.37,1.28,1.87,1.28v.15H20.9v-.15c1.5,0,1.87-.65,1.87-1.28V122c0-.9-.42-1.32-1.85-1.32v-.15a15.23,15.23,0,0,0,6-1Zm6.75-8.62a2.68,2.68,0,0,1-2.58,2.85,1.69,1.69,0,0,1-1.42-.55,1.83,1.83,0,0,0,1-1.7,1.33,1.33,0,0,0-1.4-1.35,1.73,1.73,0,0,0-1.5,1v-.2A3.46,3.46,0,0,1,31,119.5,2.54,2.54,0,0,1,33.65,122.2Z"/><path class="cls-3" d="M35,126a6.19,6.19,0,0,1,6.12-6.45v.15c-1.47.18-1.87,1.43-1.87,6.2,0,3.6,1.6,5.57,3.82,5.57a5.39,5.39,0,0,0,3.65-1.32v.15a7,7,0,0,1-5.3,2.25A6.33,6.33,0,0,1,35,126Zm5.62-1c2.2,0,3.13-.7,3.13-2.8,0-1.2-.5-2.3-1.63-2.45v-.15c3.3,0,4.9,2.35,4.9,4.25a7.85,7.85,0,0,1-.12,1.3H40.62Z"/><path class="cls-3" d="M48.82,129.3c0-2.17,2-3.4,4.8-3.4h2.7v.15h-.75a2.48,2.48,0,0,0-2.65,2.73c0,1.37.4,2.42,1.58,2.42a2.74,2.74,0,0,0,1.82-.88v.16a5.34,5.34,0,0,1-4,2C50.22,132.5,48.8,131.3,48.82,129.3Zm1-7.07c0-1.28,1.15-2.58,4.55-2.73v.15a1.83,1.83,0,0,0-1.6,1.83c0,.9.63,1.45,1.63,1.52a2.82,2.82,0,0,1-2.4,1.2A2,2,0,0,1,49.82,122.23Zm7.25,7.45V122c0-1.23-.47-2.2-1.7-2.38v-.15c4.15.15,5.8,1.73,5.8,5v6.07c0,.73.25,1,.7,1s.8-.37,1.2-1.12h.15a3.12,3.12,0,0,1-3.25,2C58,132.5,57.07,131.8,57.07,129.68Z"/><path class="cls-3" d="M73.7,130.32v.16a5.26,5.26,0,0,1-4.28,2c-2.25,0-3.85-1-3.85-3.52v-8.2h-1.3l.28-.38h1v-2.7a6.27,6.27,0,0,0,4.1-1.4v4.1h3.38l-.28.38h-3.1v8.27c0,1.25.48,2.55,1.65,2.55A3.69,3.69,0,0,0,73.7,130.32Z"/><path class="cls-3" d="M80.3,130.82c0,.63.37,1.28,1.87,1.28v.15H74.3v-.15c1.5,0,1.87-.65,1.87-1.28V122c0-.9-.42-1.32-1.85-1.32v-.15a15.23,15.23,0,0,0,6-1ZM88.6,123v7.79c0,.63.34,1.28,1.84,1.28v.15H82.6v-.15c1.47,0,1.87-.65,1.87-1.28V123c0-1.4-.55-2.13-1.75-2.13a2.2,2.2,0,0,0-1.65.75v-.15a4.06,4.06,0,0,1,3.65-2C87.1,119.5,88.6,120.55,88.6,123Zm8.27,0v7.79c0,.63.37,1.28,1.87,1.28v.15H90.87v-.15c1.47,0,1.87-.65,1.87-1.28V123c0-1.4-.55-2.13-1.75-2.13a2.2,2.2,0,0,0-1.65.75v-.15a4.06,4.06,0,0,1,3.65-2C95.37,119.5,96.87,120.55,96.87,123Z"/><path class="cls-3" d="M100.1,126a6.19,6.19,0,0,1,6.12-6.45v.15c-1.47.18-1.87,1.43-1.87,6.2,0,3.6,1.6,5.57,3.82,5.57a5.39,5.39,0,0,0,3.65-1.32v.15a7,7,0,0,1-5.3,2.25A6.33,6.33,0,0,1,100.1,126Zm5.62-1c2.2,0,3.13-.7,3.13-2.8,0-1.2-.5-2.3-1.63-2.45v-.15c3.3,0,4.9,2.35,4.9,4.25a6.9,6.9,0,0,1-.13,1.3h-6.27Z"/><path class="cls-3" d="M113.72,132.1c1.5,0,1.88-.65,1.88-1.28V122c0-.9-.43-1.32-1.85-1.32v-.15a15.18,15.18,0,0,0,6-1v11.32c0,.63.38,1.28,1.88,1.28v.15h-7.88Zm8.8,0c1.48,0,1.85-.65,1.85-1.28V123c0-1.4-.72-2.13-2-2.13a2.67,2.67,0,0,0-1.9.78v-.15a5.09,5.09,0,0,1,4.14-2c2.25,0,3.85,1,3.85,3.53v7.79c0,.63.38,1.28,1.88,1.28v.15h-7.85Z"/><path class="cls-3" d="M141,130.32v.16a5.25,5.25,0,0,1-4.27,2c-2.25,0-3.85-1-3.85-3.52v-8.2h-1.3l.27-.38h1v-2.7a6.31,6.31,0,0,0,4.1-1.4v4.1h3.37l-.27.38H137v8.27c0,1.25.47,2.55,1.65,2.55A3.65,3.65,0,0,0,141,130.32Z"/><path class="cls-3" d="M141.75,118.38c0-2.23,3-3.3,5.27-3.38v.15a2.48,2.48,0,0,0-1.77,2.43,2.14,2.14,0,0,0,1.4,2.15,2.76,2.76,0,0,1-2.3,1A2.36,2.36,0,0,1,141.75,118.38Zm3.67,13.27c0-1.37,1.1-2.27,2.68-2.27s2.67.9,2.67,2.27a2.37,2.37,0,0,1-2.67,2.3C146.52,134,145.42,133.05,145.42,131.65Zm.68-7c0-2.8,4-3.63,4-6.83a2.46,2.46,0,0,0-1.8-2.65V115c3.45.23,6,1.35,6,4.13,0,3.4-5.42,4.47-5.42,6.67a1.47,1.47,0,0,0,.9,1.45l0,.15C147.27,127.4,146.1,126.15,146.1,124.63Z"/></g></svg>