<svg id="Layer_1" data-name="Layer 1" xmlns="http://www.w3.org/2000/svg" viewBox="0 0 320 50"><defs><style>.cls-1{fill:#fff;}.cls-2{fill:none;}</style></defs><title>Artboard 1 copy 3</title><path class="cls-1" d="M15.86,9.19v.1c-1.15.14-1.95,1.3-1.95,5.41s.8,5.46,1.95,5.6v.1a5.35,5.35,0,0,1-5.09-5.6A5.55,5.55,0,0,1,15.86,9.19Zm.78.1v-.1a6.74,6.74,0,0,1,3.28.76l.5-.76h.13v3.89h-.13A4.94,4.94,0,0,0,16.64,9.29Zm5.43,6.36v.09c-.75,0-1.19.29-1.19,1V20.4h-.12l-.58-1a6.21,6.21,0,0,1-3.52,1v-.1a1.68,1.68,0,0,0,1.71-1.95V16.69c0-.66-.29-1-1.2-1v-.09Z"/><path class="cls-1" d="M23,16.21A4,4,0,0,1,27,12.08v.09c-.94.11-1.2.91-1.2,4,0,2.31,1,3.57,2.45,3.57a3.47,3.47,0,0,0,2.34-.85V19a4.5,4.5,0,0,1-3.4,1.44A4.06,4.06,0,0,1,23,16.21Zm3.6-.68c1.41,0,2-.44,2-1.79,0-.77-.32-1.47-1-1.57v-.09a2.89,2.89,0,0,1,3.14,2.72,4.58,4.58,0,0,1-.08.83h-4Z"/><path class="cls-1" d="M38,19v.09a3.34,3.34,0,0,1-2.74,1.3c-1.44,0-2.46-.66-2.46-2.26V12.89h-.83l.17-.24h.66V10.92A4.05,4.05,0,0,0,35.39,10v2.62h2.16l-.17.24h-2v5.3c0,.8.31,1.63,1.06,1.63A2.34,2.34,0,0,0,38,19Z"/><path class="cls-1" d="M42.54,18.35c0-1.39,1.28-2.18,3.08-2.18h1.73v.1h-.48A1.58,1.58,0,0,0,45.17,18c0,.87.25,1.55,1,1.55A1.79,1.79,0,0,0,47.35,19v.09a3.41,3.41,0,0,1-2.55,1.3A2,2,0,0,1,42.54,18.35Zm.64-4.53c0-.82.74-1.65,2.92-1.74v.09a1.18,1.18,0,0,0-1,1.17c0,.58.4.93,1,1a1.78,1.78,0,0,1-1.53.77A1.29,1.29,0,0,1,43.18,13.82Zm4.65,4.77v-4.9c0-.78-.31-1.41-1.09-1.52v-.09c2.65.09,3.71,1.1,3.71,3.2v3.89c0,.46.16.65.45.65s.51-.24.77-.72h.09a2,2,0,0,1-2.08,1.3C48.4,20.4,47.83,20,47.83,18.59Z"/><path class="cls-1" d="M60.69,20.3v.1a6.09,6.09,0,0,1-3.11-.78l-.52.78h-.13V16.49h.13A5.33,5.33,0,0,0,60.69,20.3Zm4.71-3.18c0,2.06-1.54,3.18-4,3.28v-.1c.88-.16,1.74-.67,1.74-1.63,0-2.8-6.11-3.06-6.11-6.31,0-1.92,1.55-3,3.68-3.17v.1a1.51,1.51,0,0,0-1.41,1.47C59.28,13.56,65.4,13.87,65.4,17.12Zm-4-7.83v-.1a5.25,5.25,0,0,1,2.88.85l.57-.85H65v3.58h-.13A5.09,5.09,0,0,0,61.38,9.29Z"/><path class="cls-1" d="M72.69,19v.09A3.34,3.34,0,0,1,70,20.4c-1.44,0-2.46-.66-2.46-2.26V12.89h-.83l.17-.24h.66V10.92A4.05,4.05,0,0,0,70.11,10v2.62h2.16l-.17.24h-2v5.3c0,.8.31,1.63,1.06,1.63A2.34,2.34,0,0,0,72.69,19Z"/><path class="cls-1" d="M73.2,18.35c0-1.39,1.28-2.18,3.07-2.18H78v.1h-.48A1.58,1.58,0,0,0,75.83,18c0,.87.25,1.55,1,1.55A1.75,1.75,0,0,0,78,19v.09a3.41,3.41,0,0,1-2.54,1.3A2,2,0,0,1,73.2,18.35Zm.64-4.53c0-.82.74-1.65,2.91-1.74v.09a1.17,1.17,0,0,0-1,1.17c0,.58.4.93,1,1a1.8,1.8,0,0,1-1.54.77A1.29,1.29,0,0,1,73.84,13.82Zm4.64,4.77v-4.9c0-.78-.3-1.41-1.09-1.52v-.09c2.66.09,3.72,1.1,3.72,3.2v3.89c0,.46.16.65.44.65s.52-.24.77-.72h.1a2,2,0,0,1-2.08,1.3C79.06,20.4,78.48,20,78.48,18.59Z"/><path class="cls-1" d="M86.75,19.33c0,.4.24.81,1.2.81v.1h-5v-.1c1,0,1.2-.41,1.2-.81V13.64c0-.57-.27-.84-1.18-.84v-.1a9.82,9.82,0,0,0,3.82-.62Zm4.33-5.52a1.71,1.71,0,0,1-1.65,1.82,1.12,1.12,0,0,1-.92-.35,1.17,1.17,0,0,0,.63-1.09.85.85,0,0,0-.9-.87,1.11,1.11,0,0,0-1,.61v-.12a2.21,2.21,0,0,1,2.08-1.73A1.63,1.63,0,0,1,91.08,13.81Z"/><path class="cls-1" d="M20.42,36.34l.06.12a4.38,4.38,0,0,1-3.85,1.94,5.69,5.69,0,0,1-5.86-5.59,5.42,5.42,0,0,1,5.47-5.62v.1c-1.12.24-2.33,1.3-2.33,5.41s1.64,5.06,3.45,5.06A4,4,0,0,0,20.42,36.34Zm.13-9.15v3.89h-.13A5,5,0,0,0,17,27.29v-.1a5.58,5.58,0,0,1,2.9.74l.48-.74Z"/><path class="cls-1" d="M21.76,36.35c0-1.39,1.28-2.18,3.07-2.18h1.73v.1h-.48A1.58,1.58,0,0,0,24.39,36c0,.87.25,1.55,1,1.55A1.75,1.75,0,0,0,26.56,37v.09A3.39,3.39,0,0,1,24,38.4,2,2,0,0,1,21.76,36.35Zm.64-4.53c0-.82.74-1.65,2.91-1.74v.09a1.17,1.17,0,0,0-1,1.17c0,.58.4.93,1,1a1.8,1.8,0,0,1-1.54.77A1.29,1.29,0,0,1,22.4,31.82ZM27,36.59v-4.9c0-.78-.3-1.41-1.09-1.52v-.09c2.66.09,3.72,1.1,3.72,3.2v3.89c0,.46.16.65.45.65s.51-.24.76-.72H31a2,2,0,0,1-2.08,1.3C27.62,38.4,27,38,27,36.59Z"/><path class="cls-1" d="M35.31,37.33c0,.4.24.81,1.2.81v.1h-5v-.1c1,0,1.2-.41,1.2-.81V31.64c0-.57-.27-.84-1.18-.84v-.1a9.82,9.82,0,0,0,3.82-.62Zm5.32-5v5c0,.4.22.81,1.18.81v.1h-5v-.1c.94,0,1.2-.41,1.2-.81v-5c0-.89-.36-1.36-1.12-1.36a1.44,1.44,0,0,0-1.06.48v-.09a2.58,2.58,0,0,1,2.34-1.28C39.67,30.08,40.63,30.75,40.63,32.33Zm5.3,0v5c0,.4.24.81,1.2.81v.1H42.08v-.1c1,0,1.21-.41,1.21-.81v-5c0-.89-.36-1.36-1.13-1.36a1.43,1.43,0,0,0-1,.48v-.09a2.58,2.58,0,0,1,2.34-1.28C45,30.08,45.93,30.75,45.93,32.33Z"/><path class="cls-1" d="M51.39,40.67c0,.58.27.85,1.19.85v.1a10.62,10.62,0,0,0-3.83.62V31.63c0-.58-.27-.85-1.18-.85v-.1a10.53,10.53,0,0,0,3.82-.62Zm6.1-6.51c0,3.34-1.76,4.24-3.28,4.24a3,3,0,0,1-2.34-1.3V37a2.29,2.29,0,0,0,1.35.56c.75,0,1.55-.53,1.55-3.41s-.75-3.27-1.55-3.27a1.81,1.81,0,0,0-1.35.59v-.12a3,3,0,0,1,2.34-1.28C55.76,30.08,57.49,31,57.49,34.16Z"/><path class="cls-1" d="M58.9,34.21a4,4,0,0,1,3.92-4.13v.09c-1,.11-1.2.91-1.2,4,0,2.31,1,3.57,2.45,3.57a3.43,3.43,0,0,0,2.33-.85V37A4.47,4.47,0,0,1,63,38.4,4.06,4.06,0,0,1,58.9,34.21Zm3.6-.68c1.41,0,2-.44,2-1.79,0-.77-.32-1.47-1-1.57v-.09a2.88,2.88,0,0,1,3.13,2.72,4.58,4.58,0,0,1-.08.83h-4Z"/><path class="cls-1" d="M71.46,37.33c0,.4.24.81,1.2.81v.1h-5v-.1c1,0,1.2-.41,1.2-.81V31.64c0-.57-.28-.84-1.19-.84v-.1a9.91,9.91,0,0,0,3.83-.62Zm4.32-5.52a1.71,1.71,0,0,1-1.65,1.82,1.1,1.1,0,0,1-.91-.35,1.18,1.18,0,0,0,.62-1.09.85.85,0,0,0-.89-.87,1.08,1.08,0,0,0-1,.61v-.12a2.2,2.2,0,0,1,2.08-1.73A1.63,1.63,0,0,1,75.78,31.81Z"/><path class="cls-1" d="M86.48,36.34l.07.12a4.41,4.41,0,0,1-3.86,1.94,5.69,5.69,0,0,1-5.86-5.59,5.42,5.42,0,0,1,5.47-5.62v.1c-1.12.24-2.33,1.3-2.33,5.41s1.65,5.06,3.46,5.06A3.94,3.94,0,0,0,86.48,36.34Zm.13-9.15v3.89h-.13a5,5,0,0,0-3.37-3.79v-.1a5.54,5.54,0,0,1,2.89.74l.48-.74Z"/><path class="cls-1" d="M87.82,36.35c0-1.39,1.28-2.18,3.08-2.18h1.72v.1h-.48A1.58,1.58,0,0,0,90.45,36c0,.87.25,1.55,1,1.55A1.75,1.75,0,0,0,92.62,37v.09a3.37,3.37,0,0,1-2.54,1.3A2,2,0,0,1,87.82,36.35Zm.64-4.53c0-.82.74-1.65,2.92-1.74v.09a1.18,1.18,0,0,0-1,1.17c0,.58.4.93,1,1a1.78,1.78,0,0,1-1.53.77A1.29,1.29,0,0,1,88.46,31.82Zm4.64,4.77v-4.9c0-.78-.3-1.41-1.08-1.52v-.09c2.65.09,3.71,1.1,3.71,3.2v3.89c0,.46.16.65.45.65s.51-.24.77-.72H97A2,2,0,0,1,95,38.4C93.68,38.4,93.1,38,93.1,36.59Z"/><path class="cls-1" d="M101.38,37.33c0,.4.24.81,1.2.81v.1h-5v-.1c1,0,1.21-.41,1.21-.81V31.64c0-.57-.28-.84-1.19-.84v-.1a9.91,9.91,0,0,0,3.83-.62Zm4.32-5.52a1.71,1.71,0,0,1-1.65,1.82,1.09,1.09,0,0,1-.91-.35,1.18,1.18,0,0,0,.62-1.09.85.85,0,0,0-.9-.87,1.11,1.11,0,0,0-1,.61v-.12A2.22,2.22,0,0,1,104,30.08,1.63,1.63,0,0,1,105.7,31.81Z"/><path class="cls-1" d="M106.56,34.21a4,4,0,0,1,3.92-4.13v.09c-.94.11-1.2.91-1.2,4,0,2.31,1,3.57,2.45,3.57a3.47,3.47,0,0,0,2.34-.85V37a4.5,4.5,0,0,1-3.4,1.44A4.06,4.06,0,0,1,106.56,34.21Zm3.6-.68c1.41,0,2-.44,2-1.79,0-.77-.32-1.47-1-1.57v-.09a2.89,2.89,0,0,1,3.14,2.72,4.58,4.58,0,0,1-.08.83h-4Z"/><path class="cls-1" d="M125.31,31.36v.12a1.8,1.8,0,0,0-1.34-.59c-.8,0-1.56.37-1.56,3.27s.81,3.41,1.56,3.41a2.26,2.26,0,0,0,1.34-.56v.09A3,3,0,0,1,123,38.4c-1.53,0-3.29-.9-3.29-4.24,0-3.19,1.73-4.08,3.29-4.08A3,3,0,0,1,125.31,31.36Zm3.12,9.31c0,.58.28.85,1.19.85v.1a10.62,10.62,0,0,0-3.83.62V30.67a10.28,10.28,0,0,0,2.64-.61Z"/><path class="cls-1" d="M133.79,36.14c0,.9.31,1.36,1.11,1.36A1.4,1.4,0,0,0,136,37v.09a2.66,2.66,0,0,1-2.48,1.3,2.07,2.07,0,0,1-2.37-2.26v-4.5c0-.57-.27-.84-1.18-.84v-.1a9.86,9.86,0,0,0,3.82-.62Zm5.33,1c0,.46.15.65.43.65s.52-.24.77-.72h.1a2.05,2.05,0,0,1-2.18,1.3,1.55,1.55,0,0,1-1.76-1.57V31.64c0-.57-.27-.84-1.14-.84v-.1a10.46,10.46,0,0,0,3.78-.62Z"/><path class="cls-1" d="M145.33,30.17c-1,.11-1.27.91-1.27,4s.32,4,1.27,4.09v.1a4.09,4.09,0,0,1-4-4.19,4,4,0,0,1,4-4.13Zm4.61,4a4.08,4.08,0,0,1-4,4.19v-.1c.94-.09,1.25-1.1,1.25-4.09s-.32-3.94-1.25-4v-.09A4,4,0,0,1,149.94,34.21Z"/><path class="cls-1" d="M157.2,37v.09a3.34,3.34,0,0,1-2.74,1.3c-1.44,0-2.46-.66-2.46-2.26V30.89h-.83l.17-.24H152V28.92a4.05,4.05,0,0,0,2.62-.89v2.62h2.16l-.17.24h-2v5.3c0,.8.31,1.63,1.06,1.63A2.34,2.34,0,0,0,157.2,37Z"/><path class="cls-1" d="M157.79,34.21a4,4,0,0,1,3.92-4.13v.09c-.94.11-1.2.91-1.2,4,0,2.31,1,3.57,2.45,3.57a3.47,3.47,0,0,0,2.34-.85V37a4.5,4.5,0,0,1-3.4,1.44A4.06,4.06,0,0,1,157.79,34.21Zm3.6-.68c1.41,0,2-.44,2-1.79,0-.77-.32-1.47-1-1.57v-.09a2.89,2.89,0,0,1,3.14,2.72,4.58,4.58,0,0,1-.08.83h-4Z"/><rect class="cls-2" width="320" height="50"/></svg>