<svg id="Layer_1" data-name="Layer 1" xmlns="http://www.w3.org/2000/svg" viewBox="0 0 320 50"><defs><style>.cls-1{fill:#fff;}.cls-2{fill:none;}</style></defs><title>Artboard 1 copy 2</title><path class="cls-1" d="M20.5,18.34l.06.12a4.38,4.38,0,0,1-3.85,1.94,5.69,5.69,0,0,1-5.86-5.59A5.4,5.4,0,0,1,16.32,9.2v.09C15.2,9.53,14,10.59,14,14.7s1.64,5.06,3.45,5.06A4,4,0,0,0,20.5,18.34Zm.13-9.14v3.89H20.5a5,5,0,0,0-3.38-3.8V9.2a5.5,5.5,0,0,1,2.9.73l.48-.73Z"/><path class="cls-1" d="M25.38,18.14c0,.9.3,1.36,1.1,1.36A1.42,1.42,0,0,0,27.59,19v.09a2.67,2.67,0,0,1-2.48,1.3,2.06,2.06,0,0,1-2.37-2.26V13.65c0-.58-.28-.85-1.19-.85v-.1a9.91,9.91,0,0,0,3.83-.62Zm5.33,1c0,.46.14.65.43.65s.51-.24.77-.72H32a2,2,0,0,1-2.17,1.3,1.55,1.55,0,0,1-1.76-1.57V13.65c0-.58-.28-.85-1.14-.85v-.1a10.53,10.53,0,0,0,3.78-.62Z"/><path class="cls-1" d="M35.71,18.34a.81.81,0,0,0-.89.8c0,.46.32,1.05,1.42,1.16v.1c-2.13-.08-3.3-.66-3.3-1.58a1.25,1.25,0,0,1,1.36-1.19A1.64,1.64,0,0,1,35.71,18.34Zm.53-6.17c-.59.12-1.17.42-1.15,1.08,0,1.85,5.23,2.16,5.23,4.7,0,1.55-1.31,2.37-3.37,2.45v-.1c.67-.11,1.42-.35,1.42-1.18,0-1.66-5.25-2.27-5.25-4.71,0-1.4,1.33-2.25,3.12-2.33ZM40,13.73a1.05,1.05,0,0,1-1.19,1A1.38,1.38,0,0,1,37.47,14a.71.71,0,0,0,.72-.75c0-.48-.6-.95-1.24-1v-.09C38.75,12.17,40,12.83,40,13.73Z"/><path class="cls-1" d="M47.59,19v.09a3.36,3.36,0,0,1-2.74,1.3c-1.44,0-2.47-.66-2.47-2.26V12.89h-.83l.18-.24h.65V10.93A4.07,4.07,0,0,0,45,10v2.62h2.16l-.18.24H45v5.3c0,.8.3,1.63,1.06,1.63A2.36,2.36,0,0,0,47.59,19Z"/><path class="cls-1" d="M52.16,12.17c-.94.12-1.26.92-1.26,4s.32,4,1.26,4.09v.1a4.07,4.07,0,0,1-4-4.19,4,4,0,0,1,4-4.13Zm4.61,4a4.08,4.08,0,0,1-4,4.19v-.1c1-.09,1.25-1.1,1.25-4.09,0-3.14-.32-3.94-1.25-4v-.09A4,4,0,0,1,56.77,16.21Z"/><path class="cls-1" d="M61.66,19.33c0,.4.25.81,1.21.81v.1h-5v-.1c1,0,1.2-.41,1.2-.81V13.65c0-.58-.27-.85-1.18-.85v-.1a9.82,9.82,0,0,0,3.82-.62Zm5.32-5v5c0,.4.22.81,1.18.81v.1h-5v-.1c.94,0,1.2-.41,1.2-.81v-5c0-.89-.35-1.36-1.12-1.36a1.44,1.44,0,0,0-1.06.48v-.09a2.6,2.6,0,0,1,2.34-1.28C66,12.08,67,12.75,67,14.33Zm5.3,0v5c0,.4.24.81,1.2.81v.1h-5v-.1c.94,0,1.2-.41,1.2-.81v-5c0-.89-.36-1.36-1.12-1.36a1.44,1.44,0,0,0-1.06.48v-.09a2.6,2.6,0,0,1,2.34-1.28C71.32,12.08,72.28,12.75,72.28,14.33Z"/><path class="cls-1" d="M74.08,12.69a9.64,9.64,0,0,0,3.82-.63v7.27c0,.4.24.81,1.21.81v.1h-5v-.1c1,0,1.2-.41,1.2-.81v-5.7c0-.58-.27-.85-1.18-.85Zm.82-3a1.65,1.65,0,1,1,1.63,1.41A1.45,1.45,0,0,1,74.9,9.68Z"/><path class="cls-1" d="M82.85,18.34a.82.82,0,0,0-.9.8c0,.46.32,1.05,1.43,1.16v.1c-2.13-.08-3.3-.66-3.3-1.58a1.25,1.25,0,0,1,1.36-1.19A1.64,1.64,0,0,1,82.85,18.34Zm.53-6.17c-.6.12-1.17.42-1.16,1.08,0,1.85,5.24,2.16,5.24,4.7,0,1.55-1.31,2.37-3.38,2.45v-.1c.67-.11,1.43-.35,1.43-1.18,0-1.66-5.26-2.27-5.26-4.71,0-1.4,1.33-2.25,3.13-2.33Zm3.77,1.56a1,1,0,0,1-1.18,1A1.38,1.38,0,0,1,84.61,14a.71.71,0,0,0,.72-.75c0-.48-.61-.95-1.25-1v-.09C85.89,12.17,87.15,12.83,87.15,13.73Z"/><path class="cls-1" d="M88.8,16.21a4,4,0,0,1,3.92-4.13v.09c-.94.12-1.2.92-1.2,4,0,2.31,1,3.57,2.45,3.57a3.47,3.47,0,0,0,2.34-.85V19a4.5,4.5,0,0,1-3.4,1.44A4,4,0,0,1,88.8,16.21Zm3.6-.68c1.41,0,2-.44,2-1.79,0-.77-.32-1.47-1-1.57v-.09A2.89,2.89,0,0,1,96.5,14.8a4.58,4.58,0,0,1-.08.83h-4Z"/><path class="cls-1" d="M103.49,13.36v.13a1.77,1.77,0,0,0-1.33-.6c-.8,0-1.57.37-1.57,3.27s.82,3.41,1.57,3.41a2.23,2.23,0,0,0,1.33-.56v.09a3,3,0,0,1-2.32,1.3c-1.52,0-3.3-.9-3.3-4.24,0-3.19,1.75-4.08,3.3-4.08A3,3,0,0,1,103.49,13.36Zm3.12,5.81c0,.46.14.65.43.65s.51-.24.77-.72h.1a2,2,0,0,1-2.08,1.3c-1.28,0-1.86-.45-1.86-1.81V10c0-.57-.27-.84-1.18-.84V9.1a10.56,10.56,0,0,0,3.82-.62Z"/><path class="cls-1" d="M118.82,19v.09a3.36,3.36,0,0,1-2.74,1.3c-1.44,0-2.46-.66-2.46-2.26V12.89h-.84l.18-.24h.66V10.93a4.06,4.06,0,0,0,2.62-.9v2.62h2.16l-.18.24h-2v5.3c0,.8.3,1.63,1.06,1.63A2.36,2.36,0,0,0,118.82,19Z"/><path class="cls-1" d="M123.39,12.17c-.94.12-1.26.92-1.26,4s.32,4,1.26,4.09v.1a4.07,4.07,0,0,1-4-4.19,4,4,0,0,1,4-4.13Zm4.61,4a4.08,4.08,0,0,1-4,4.19v-.1c1-.09,1.25-1.1,1.25-4.09,0-3.14-.32-3.94-1.25-4v-.09A4,4,0,0,1,128,16.21Z"/><path class="cls-1" d="M10.88,30.89a.87.87,0,0,0-.88-.56v-.09h4.48v.09c-.56,0-.78.39-.51,1l2.1,4.37-1.38,2.59h-.1Zm-.7,9.93a1.67,1.67,0,0,1,1.4-1.51,1.55,1.55,0,0,0-.06.4.94.94,0,0,0,.94,1.08c.56,0,1-.6,1.62-1.62h.11c-.88,1.65-1.49,3.07-2.61,3.07A1.33,1.33,0,0,1,10.18,40.82Zm6.56-6.74A4.41,4.41,0,0,0,17.19,32a1.55,1.55,0,0,0-1.64-1.68v-.09h4v.09c-.53,0-.74.21-1,.76l-1.67,3.13Z"/><path class="cls-1" d="M23.6,30.17c-.94.12-1.26.92-1.26,4s.32,4,1.26,4.09v.1a4.07,4.07,0,0,1-4-4.19,4,4,0,0,1,4-4.13Zm4.61,4a4.08,4.08,0,0,1-4,4.19v-.1c1-.09,1.25-1.1,1.25-4.09s-.32-3.94-1.25-4v-.09A4,4,0,0,1,28.21,34.21Z"/><path class="cls-1" d="M32.93,36.14c0,.9.3,1.36,1.1,1.36A1.4,1.4,0,0,0,35.14,37v.09a2.67,2.67,0,0,1-2.48,1.3,2.07,2.07,0,0,1-2.37-2.26V31.65c0-.58-.27-.85-1.19-.85v-.1a9.91,9.91,0,0,0,3.83-.62Zm5.33,1c0,.46.14.65.43.65s.51-.24.77-.72h.1a2.05,2.05,0,0,1-2.18,1.3,1.55,1.55,0,0,1-1.76-1.57V31.65c0-.58-.27-.85-1.14-.85v-.1a10.53,10.53,0,0,0,3.78-.62Z"/><path class="cls-1" d="M44,37.33c0,.4.24.81,1.2.81v.1h-5v-.1c1,0,1.2-.41,1.2-.81V31.65c0-.58-.27-.85-1.18-.85v-.1A9.82,9.82,0,0,0,44,30.08Zm4.32-5.52a1.71,1.71,0,0,1-1.64,1.82,1.12,1.12,0,0,1-.92-.35,1.17,1.17,0,0,0,.63-1.09.85.85,0,0,0-.9-.86,1.12,1.12,0,0,0-1,.6v-.12a2.22,2.22,0,0,1,2.08-1.73A1.62,1.62,0,0,1,48.35,31.81Z"/><path class="cls-1" d="M52.67,38.14c1,0,1.2-.41,1.2-.81V31.65c0-.58-.27-.85-1.18-.85v-.1a9.82,9.82,0,0,0,3.82-.62v7.25c0,.4.24.81,1.2.81v.1h-5Zm5.64,0c.94,0,1.18-.41,1.18-.81v-5c0-.89-.46-1.36-1.26-1.36a1.72,1.72,0,0,0-1.22.5v-.1a3.27,3.27,0,0,1,2.66-1.29c1.44,0,2.46.67,2.46,2.25v5c0,.4.24.81,1.2.81v.1h-5Z"/><path class="cls-1" d="M64.19,34.21a4,4,0,0,1,3.92-4.13v.09c-.94.12-1.2.92-1.2,4,0,2.31,1,3.57,2.45,3.57a3.46,3.46,0,0,0,2.34-.85V37a4.47,4.47,0,0,1-3.39,1.44A4.06,4.06,0,0,1,64.19,34.21Zm3.6-.68c1.41,0,2-.44,2-1.79,0-.77-.32-1.47-1-1.57v-.09a2.89,2.89,0,0,1,3.14,2.72,4.58,4.58,0,0,1-.08.83h-4Z"/><path class="cls-1" d="M73.2,34.21a4,4,0,0,1,3.92-4.13v.09c-.94.12-1.2.92-1.2,4,0,2.31,1,3.57,2.45,3.57a3.47,3.47,0,0,0,2.34-.85V37a4.5,4.5,0,0,1-3.4,1.44A4,4,0,0,1,73.2,34.21Zm3.6-.68c1.41,0,2-.44,2-1.79,0-.77-.32-1.47-1-1.57v-.09A2.89,2.89,0,0,1,80.9,32.8a4.58,4.58,0,0,1-.08.83h-4Z"/><path class="cls-1" d="M87.89,31.36v.13a1.77,1.77,0,0,0-1.33-.6c-.8,0-1.57.37-1.57,3.27s.82,3.41,1.57,3.41A2.23,2.23,0,0,0,87.89,37v.09a3,3,0,0,1-2.32,1.3c-1.52,0-3.3-.9-3.3-4.24,0-3.19,1.75-4.08,3.3-4.08A3,3,0,0,1,87.89,31.36ZM91,37.17c0,.46.15.65.43.65s.51-.24.77-.72h.1a2,2,0,0,1-2.08,1.3c-1.28,0-1.86-.45-1.86-1.81V28c0-.57-.27-.84-1.18-.84v-.1A10.56,10.56,0,0,0,91,26.48Z"/><path class="cls-1" d="M96,36.34a.82.82,0,0,0-.9.8c0,.46.32,1,1.42,1.16v.1c-2.12-.08-3.29-.66-3.29-1.58a1.25,1.25,0,0,1,1.36-1.19A1.64,1.64,0,0,1,96,36.34Zm.52-6.17c-.59.12-1.16.42-1.15,1.08,0,1.85,5.24,2.16,5.24,4.7,0,1.55-1.32,2.37-3.38,2.45v-.1c.67-.11,1.42-.35,1.42-1.18,0-1.66-5.25-2.27-5.25-4.71,0-1.4,1.33-2.25,3.12-2.33Zm3.78,1.56a1,1,0,0,1-1.18,1A1.38,1.38,0,0,1,97.78,32a.71.71,0,0,0,.72-.75c0-.48-.61-.95-1.25-1v-.09C99.06,30.17,100.32,30.83,100.32,31.73Z"/><rect class="cls-2" width="320" height="50"/></svg>