<svg id="Layer_1" data-name="Layer 1" xmlns="http://www.w3.org/2000/svg" viewBox="0 0 320 50"><defs><style>.cls-1{fill:#263845;}.cls-2{fill:none;}</style></defs><title>Artboard 1 copy</title><path class="cls-1" d="M10.69,20.14c1,0,1.2-.36,1.2-.81V10.27c0-.45-.24-.82-1.2-.82V9.36h3.92v10c0,.45.24.81,1.2.81v.1H10.69ZM15.41,9.45V9.36h4.4v3.2h-.13C19,10.28,17.84,9.61,15.41,9.45Zm.88,5.44-.88-.08v-.09l.88-.08a2.48,2.48,0,0,0,2.11-1.38h.13v3H18.4A2.44,2.44,0,0,0,16.29,14.89Z"/><path class="cls-1" d="M24.37,18.14c0,.9.3,1.36,1.1,1.36A1.4,1.4,0,0,0,26.58,19v.09a2.67,2.67,0,0,1-2.48,1.3,2.07,2.07,0,0,1-2.37-2.26V13.65c0-.58-.27-.85-1.19-.85v-.1a9.91,9.91,0,0,0,3.83-.62Zm5.33,1c0,.46.14.65.43.65s.51-.24.77-.72H31a2.05,2.05,0,0,1-2.18,1.3,1.55,1.55,0,0,1-1.76-1.57V13.65c0-.58-.27-.85-1.14-.85v-.1a10.53,10.53,0,0,0,3.78-.62Z"/><path class="cls-1" d="M31.55,9.1a9.91,9.91,0,0,0,3.83-.62V19.33c0,.4.24.81,1.2.81v.1h-5v-.1c1,0,1.2-.41,1.2-.81V10c0-.57-.28-.84-1.19-.84Z"/><path class="cls-1" d="M37.17,9.1A9.82,9.82,0,0,0,41,8.48V19.33c0,.4.24.81,1.2.81v.1h-5v-.1c1,0,1.2-.41,1.2-.81V10c0-.57-.27-.84-1.18-.84Z"/><path class="cls-1" d="M43.2,12.89a.87.87,0,0,0-.88-.56v-.09H46.8v.09c-.56,0-.78.39-.51.95l2.1,4.37L47,20.24h-.1Zm-.7,9.93a1.67,1.67,0,0,1,1.4-1.51,1.55,1.55,0,0,0-.06.4.94.94,0,0,0,.94,1.08c.56,0,1-.6,1.62-1.62h.11c-.88,1.65-1.49,3.07-2.61,3.07A1.33,1.33,0,0,1,42.5,22.82Zm6.56-6.74A4.41,4.41,0,0,0,49.51,14a1.55,1.55,0,0,0-1.64-1.68v-.09h4v.09c-.53,0-.74.21-1,.76l-1.67,3.13Z"/><path class="cls-1" d="M59.73,12.17c-.94.12-1.27.92-1.27,4s.33,4,1.27,4.09v.1a4.08,4.08,0,0,1-4-4.19,4,4,0,0,1,4-4.13Zm4.61,4a4.08,4.08,0,0,1-4,4.19v-.1c.94-.09,1.25-1.1,1.25-4.09,0-3.14-.32-3.94-1.25-4v-.09A4,4,0,0,1,64.34,16.21Z"/><path class="cls-1" d="M69.09,22.67c0,.58.27.85,1.18.85v.1a10.56,10.56,0,0,0-3.82.62V13.63c0-.58-.27-.85-1.19-.85v-.09a10.41,10.41,0,0,0,3.83-.63Zm6.1-6.51c0,3.34-1.76,4.24-3.28,4.24a3,3,0,0,1-2.34-1.3V19a2.26,2.26,0,0,0,1.34.56c.76,0,1.56-.53,1.56-3.41s-.76-3.27-1.56-3.27a1.81,1.81,0,0,0-1.34.6v-.13a3,3,0,0,1,2.34-1.28C73.46,12.08,75.19,13,75.19,16.16Z"/><path class="cls-1" d="M82.51,19v.09a3.32,3.32,0,0,1-2.73,1.3c-1.44,0-2.47-.66-2.47-2.26V12.89h-.83l.18-.24h.65V10.92A4.06,4.06,0,0,0,79.94,10v2.62H82.1l-.18.24h-2v5.3c0,.8.3,1.63,1,1.63A2.32,2.32,0,0,0,82.51,19Z"/><path class="cls-1" d="M82.93,12.69a9.64,9.64,0,0,0,3.82-.63v7.27c0,.4.24.81,1.2.81v.1h-5v-.1c1,0,1.2-.41,1.2-.81v-5.7c0-.58-.27-.85-1.18-.85Zm.81-3a1.65,1.65,0,1,1,1.64,1.41A1.47,1.47,0,0,1,83.74,9.68Z"/><path class="cls-1" d="M92.9,12.17c-1,.12-1.27.92-1.27,4s.32,4,1.27,4.09v.1a4.08,4.08,0,0,1-4-4.19,4,4,0,0,1,4-4.13Zm4.61,4a4.08,4.08,0,0,1-4,4.19v-.1c.94-.09,1.25-1.1,1.25-4.09,0-3.14-.32-3.94-1.25-4v-.09A4,4,0,0,1,97.51,16.21Z"/><path class="cls-1" d="M98.56,20.14c1,0,1.2-.41,1.2-.81V13.65c0-.58-.27-.85-1.18-.85v-.1a9.89,9.89,0,0,0,3.82-.62v7.25c0,.4.24.81,1.2.81v.1h-5Zm5.63,0c1,0,1.19-.41,1.19-.81v-5A1.19,1.19,0,0,0,104.11,13a1.69,1.69,0,0,0-1.21.5v-.1a3.26,3.26,0,0,1,2.65-1.29c1.44,0,2.47.67,2.47,2.25v5c0,.4.24.81,1.2.81v.1h-5Z"/><path class="cls-1" d="M110.08,16.21A4,4,0,0,1,114,12.08v.09c-.94.12-1.2.92-1.2,4,0,2.31,1,3.57,2.45,3.57a3.47,3.47,0,0,0,2.34-.85V19a4.5,4.5,0,0,1-3.4,1.44A4,4,0,0,1,110.08,16.21Zm3.6-.68c1.41,0,2-.44,2-1.79,0-.77-.32-1.47-1-1.57v-.09a2.89,2.89,0,0,1,3.14,2.72,4.58,4.58,0,0,1-.08.83h-4Z"/><path class="cls-1" d="M124.77,13.36v.13a1.77,1.77,0,0,0-1.33-.6c-.8,0-1.57.37-1.57,3.27s.82,3.41,1.57,3.41a2.23,2.23,0,0,0,1.33-.56v.09a3,3,0,0,1-2.32,1.3c-1.52,0-3.3-.9-3.3-4.24,0-3.19,1.75-4.08,3.3-4.08A3,3,0,0,1,124.77,13.36Zm3.12,5.81c0,.46.14.65.43.65s.51-.24.77-.72h.1a2,2,0,0,1-2.08,1.3c-1.28,0-1.86-.45-1.86-1.81V10c0-.57-.27-.84-1.19-.84V9.1a10.58,10.58,0,0,0,3.83-.62Z"/><path class="cls-1" d="M139.33,20.14v.1h-5.14v-.1c1,0,1.2-.38,1.2-.81V10.25c0-.46-.24-.8-1.2-.8V9.36h3.92v10C138.11,19.76,138.35,20.14,139.33,20.14Zm6.24-1c-.25.88-1.2,1.3-2.37,1.3-2.08,0-2.56-1.44-2.65-2.78s-.23-2.34-1.64-2.55V15c1.48,0,2.13-1.28,2.13-2.88,0-1.79-.65-2.64-2.13-2.64V9.36c3.25,0,4.85.72,4.85,2.73,0,1.73-1.28,2.79-3.66,2.93,2.91.13,3.36,1.27,3.52,2.6s.51,2.2,1,2.2c.29,0,.55-.24.81-.72Z"/><path class="cls-1" d="M145.82,10.28a1.31,1.31,0,0,0-1.44-.83V9.36h5.78v.09c-.74,0-1.39.48-1,1.31l3,6.37-1.45,3.27h-.18Zm7,5.38a11,11,0,0,0,1.14-4.46,1.76,1.76,0,0,0-1.83-1.75V9.36h4.61v.06c-.73,0-1.18.69-1.69,1.78l-2.18,4.61Z"/><path class="cls-1" d="M10.42,30.69a9.7,9.7,0,0,0,3.82-.63v7.27c0,.4.24.81,1.2.81v.1h-5v-.1c1,0,1.2-.41,1.2-.81v-5.7c0-.58-.27-.85-1.18-.85Zm.81-3a1.46,1.46,0,0,1,1.64-1.4,1.42,1.42,0,1,1,0,2.81A1.46,1.46,0,0,1,11.23,27.68Z"/><path class="cls-1" d="M16.11,38.14c1,0,1.2-.41,1.2-.81V31.65c0-.58-.27-.85-1.18-.85v-.1A9.82,9.82,0,0,0,20,30.08v7.25c0,.4.24.81,1.2.81v.1h-5Zm5.64,0c.94,0,1.18-.41,1.18-.81v-5c0-.89-.46-1.36-1.26-1.36a1.72,1.72,0,0,0-1.22.5v-.1a3.27,3.27,0,0,1,2.66-1.29c1.44,0,2.46.67,2.46,2.25v5c0,.4.24.81,1.2.81v.1h-5Z"/><path class="cls-1" d="M30.42,36.34a.82.82,0,0,0-.9.8c0,.46.32,1,1.43,1.16v.1c-2.13-.08-3.3-.66-3.3-1.58A1.25,1.25,0,0,1,29,35.63,1.64,1.64,0,0,1,30.42,36.34ZM31,30.17c-.6.12-1.17.42-1.16,1.08C29.84,33.1,35,33.41,35,36c0,1.55-1.32,2.37-3.38,2.45v-.1c.67-.11,1.42-.35,1.42-1.18,0-1.66-5.25-2.27-5.25-4.71,0-1.4,1.33-2.25,3.13-2.33Zm3.77,1.56a1,1,0,0,1-1.18,1A1.38,1.38,0,0,1,32.18,32a.71.71,0,0,0,.72-.75c0-.48-.61-.95-1.25-1v-.09C33.46,30.17,34.72,30.83,34.72,31.73Z"/><path class="cls-1" d="M39.74,36.14c0,.9.31,1.36,1.11,1.36A1.38,1.38,0,0,0,42,37v.09a2.65,2.65,0,0,1-2.48,1.3,2.07,2.07,0,0,1-2.37-2.26V31.65c0-.58-.27-.85-1.18-.85v-.1a9.82,9.82,0,0,0,3.82-.62Zm5.34,1c0,.46.14.65.43.65s.51-.24.77-.72h.09a2,2,0,0,1-2.18,1.3,1.55,1.55,0,0,1-1.76-1.57V31.65c0-.58-.27-.85-1.13-.85v-.1a10.53,10.53,0,0,0,3.78-.62Z"/><path class="cls-1" d="M50.85,37.33c0,.4.24.81,1.2.81v.1H47v-.1c1,0,1.2-.41,1.2-.81V31.65c0-.58-.27-.85-1.19-.85v-.1a9.91,9.91,0,0,0,3.83-.62Zm4.32-5.52a1.71,1.71,0,0,1-1.65,1.82,1.1,1.1,0,0,1-.91-.35,1.18,1.18,0,0,0,.62-1.09.84.84,0,0,0-.89-.86,1.09,1.09,0,0,0-1,.6v-.12a2.21,2.21,0,0,1,2.08-1.73A1.63,1.63,0,0,1,55.17,31.81Z"/><path class="cls-1" d="M55.86,36.35c0-1.39,1.28-2.18,3.07-2.18h1.73v.1h-.48A1.58,1.58,0,0,0,58.48,36c0,.88.26,1.55,1,1.55A1.75,1.75,0,0,0,60.66,37v.09a3.41,3.41,0,0,1-2.55,1.3A2,2,0,0,1,55.86,36.35Zm.64-4.53c0-.81.73-1.65,2.91-1.74v.09a1.18,1.18,0,0,0-1,1.17c0,.58.4.93,1,1a1.78,1.78,0,0,1-1.53.77A1.29,1.29,0,0,1,56.5,31.82Zm4.64,4.77v-4.9c0-.78-.31-1.4-1.09-1.52v-.09c2.66.09,3.71,1.1,3.71,3.2v3.89c0,.46.16.65.45.65s.51-.24.77-.72h.1A2,2,0,0,1,63,38.4C61.71,38.4,61.14,38,61.14,36.59Z"/><path class="cls-1" d="M65.57,38.14c1,0,1.2-.41,1.2-.81V31.65c0-.58-.27-.85-1.19-.85v-.1a9.91,9.91,0,0,0,3.83-.62v7.25c0,.4.24.81,1.2.81v.1h-5Zm5.63,0c1,0,1.19-.41,1.19-.81v-5A1.19,1.19,0,0,0,71.12,31a1.69,1.69,0,0,0-1.21.5v-.1a3.26,3.26,0,0,1,2.65-1.29c1.44,0,2.47.67,2.47,2.25v5c0,.4.24.81,1.2.81v.1h-5Z"/><path class="cls-1" d="M81.18,30.17c-.94.12-1.36.92-1.36,4,0,2.31,1.17,3.57,2.6,3.57a3.43,3.43,0,0,0,2.33-.85V37a4.47,4.47,0,0,1-3.39,1.44,4.18,4.18,0,0,1-4.27-4.19,4.09,4.09,0,0,1,4.09-4.13Zm3.56,1.72a1.49,1.49,0,0,1-1.6,1.53,1.37,1.37,0,0,1-1.4-1,1.37,1.37,0,0,0,.77-1.16c0-.37-.09-.95-.68-1.06v-.11C83.92,30.08,84.74,31,84.74,31.89Z"/><path class="cls-1" d="M85.94,34.21a4,4,0,0,1,3.92-4.13v.09c-1,.12-1.2.92-1.2,4,0,2.31,1,3.57,2.45,3.57a3.43,3.43,0,0,0,2.33-.85V37a4.47,4.47,0,0,1-3.39,1.44A4,4,0,0,1,85.94,34.21Zm3.6-.68c1.41,0,2-.44,2-1.79,0-.77-.32-1.47-1-1.57v-.09a2.88,2.88,0,0,1,3.13,2.72,4.58,4.58,0,0,1-.08.83h-4Z"/><rect class="cls-2" width="320" height="50"/></svg>