<?xml version="1.0" encoding="utf-8"?>
<!-- Generator: Adobe Illustrator 24.0.3, SVG Export Plug-In . SVG Version: 6.00 Build 0)  -->
<svg version="1.1" id="Layer_1" xmlns="http://www.w3.org/2000/svg" xmlns:xlink="http://www.w3.org/1999/xlink" x="0px" y="0px"
	 viewBox="0 0 320 50" style="enable-background:new 0 0 320 50;" xml:space="preserve">
<style type="text/css">
	.st0{clip-path:url(#SVGID_2_);}
	.st1{enable-background:new    ;}
	.st2{fill:#FFFFFF;}
</style>
<title>Artboard 1 copy 3</title>
<g>
	<defs>
		<rect id="SVGID_1_" y="0" width="320" height="50"/>
	</defs>
	<clipPath id="SVGID_2_">
		<use xlink:href="#SVGID_1_"  style="overflow:visible;"/>
	</clipPath>
	<g class="st0">
		<g class="st1">
			<path class="st2" d="M20.9,7.6v0.1c-1.4,0.2-2.3,1.5-2.3,6.5c0,4.9,1,6.5,2.3,6.7v0.1c-2.7-0.2-6.1-2.2-6.1-6.7
				C14.9,9.9,18.4,7.7,20.9,7.6z M21.9,7.7V7.6c2,0.1,3.1,0.4,3.9,0.9l0.6-0.9h0.2v4.6h-0.2C25.9,10,24.2,8.1,21.9,7.7z M28.4,15.3
				v0.1c-0.9,0-1.4,0.3-1.4,1.1v4.4h-0.2l-0.7-1.1c-1,0.7-2.3,1.1-4.2,1.1v-0.1c1.3-0.1,2-0.8,2-2.3v-2c0-0.8-0.3-1.1-1.4-1.1v-0.1
				H28.4z"/>
			<path class="st2" d="M29.5,15.9c0-3.2,2.4-4.9,4.7-4.9v0.1c-1.1,0.1-1.4,1.1-1.4,4.7c0,2.8,1.2,4.3,2.9,4.3c1.1,0,1.9-0.3,2.8-1
				v0.1c-1,1.3-2.8,1.7-4.1,1.7C32,20.9,29.5,19.1,29.5,15.9z M33.8,15.1c1.7,0,2.4-0.5,2.4-2.1c0-0.9-0.4-1.8-1.2-1.9V11
				c2.5,0,3.7,1.8,3.7,3.2c0,0.3,0,0.7-0.1,1h-4.8V15.1z"/>
			<path class="st2" d="M47.4,19.3v0.1c-0.6,0.9-1.8,1.5-3.3,1.5c-1.7,0-2.9-0.8-2.9-2.7V12h-1l0.2-0.3h0.8V9.6
				c1.2,0,2.3-0.4,3.1-1.1v3.1h2.6L46.6,12h-2.4v6.3c0,1,0.4,1.9,1.3,1.9C46.1,20.3,46.7,19.9,47.4,19.3z"/>
			<path class="st2" d="M52.8,18.5c0-1.7,1.5-2.6,3.7-2.6h2.1V16H58c-1.4,0-2,0.9-2,2.1c0,1.1,0.3,1.9,1.2,1.9c0.5,0,1-0.3,1.4-0.7
				v0.1c-0.6,0.7-1.6,1.5-3,1.5C53.9,20.9,52.8,20,52.8,18.5z M53.6,13.1c0-1,0.9-2,3.5-2.1v0.1c-0.8,0.1-1.2,0.7-1.2,1.4
				c0,0.7,0.5,1.1,1.2,1.2c-0.3,0.5-1.1,0.9-1.8,0.9C54.2,14.6,53.6,13.9,53.6,13.1z M59.1,18.8v-5.8c0-0.9-0.4-1.7-1.3-1.8V11
				c3.2,0.1,4.4,1.3,4.4,3.8v4.6c0,0.6,0.2,0.8,0.5,0.8c0.3,0,0.6-0.3,0.9-0.9h0.1c-0.3,1.1-1.3,1.5-2.5,1.5
				C59.8,20.9,59.1,20.4,59.1,18.8z"/>
		</g>
		<g class="st1">
			<path class="st2" d="M74.5,20.8v0.1c-1.5,0-2.7-0.3-3.7-0.9l-0.6,0.9H70v-4.7h0.2C70.8,18.4,72.1,20,74.5,20.8z M80.1,17
				c0,2.5-1.8,3.8-4.8,3.9v-0.1c1.1-0.2,2.1-0.8,2.1-1.9c0-3.3-7.3-3.6-7.3-7.5c0-2.3,1.9-3.6,4.4-3.8v0.1c-0.9,0.2-1.7,0.7-1.7,1.8
				C72.8,12.8,80.1,13.1,80.1,17z M75.3,7.7V7.6c1.4,0.1,2.6,0.4,3.4,1l0.7-1h0.2v4.3h-0.2C78.8,9.8,77.2,8.1,75.3,7.7z"/>
		</g>
		<g class="st1">
			<path class="st2" d="M88.8,19.3v0.1c-0.6,0.9-1.8,1.5-3.3,1.5c-1.7,0-2.9-0.8-2.9-2.7V12h-1l0.2-0.3h0.8V9.6
				c1.2,0,2.3-0.4,3.1-1.1v3.1h2.6L88.1,12h-2.4v6.3c0,1,0.4,1.9,1.3,1.9C87.5,20.3,88.2,19.9,88.8,19.3z"/>
			<path class="st2" d="M89.4,18.5c0-1.7,1.5-2.6,3.7-2.6h2.1V16h-0.6c-1.4,0-2,0.9-2,2.1c0,1.1,0.3,1.9,1.2,1.9
				c0.5,0,1-0.3,1.4-0.7v0.1c-0.6,0.7-1.6,1.5-3,1.5C90.5,20.9,89.4,20,89.4,18.5z M90.2,13.1c0-1,0.9-2,3.5-2.1v0.1
				c-0.8,0.1-1.2,0.7-1.2,1.4c0,0.7,0.5,1.1,1.2,1.2c-0.3,0.5-1.1,0.9-1.8,0.9C90.8,14.6,90.2,13.9,90.2,13.1z M95.7,18.8v-5.8
				c0-0.9-0.4-1.7-1.3-1.8V11c3.2,0.1,4.4,1.3,4.4,3.8v4.6c0,0.6,0.2,0.8,0.5,0.8c0.3,0,0.6-0.3,0.9-0.9h0.1
				c-0.3,1.1-1.3,1.5-2.5,1.5C96.4,20.9,95.7,20.4,95.7,18.8z"/>
		</g>
		<g class="st1">
			<path class="st2" d="M105.6,19.7c0,0.5,0.3,1,1.4,1v0.1h-6v-0.1c1.1,0,1.4-0.5,1.4-1v-6.8c0-0.7-0.3-1-1.4-1v-0.1
				c1.8,0,3.2-0.2,4.6-0.7V19.7z M110.8,13.1c0,1.3-0.9,2.2-2,2.2c-0.5,0-0.9-0.1-1.1-0.4c0.4-0.2,0.7-0.6,0.7-1.3
				c0-0.6-0.4-1-1.1-1c-0.5,0-0.9,0.3-1.1,0.7v-0.2c0.4-1.2,1.3-2.1,2.5-2.1C110.1,11,110.8,11.9,110.8,13.1z"/>
		</g>
		<g class="st1">
			<path class="st2" d="M127.9,18.5l0.1,0.2c-1,1.6-2.8,2.3-4.6,2.3c-3.1,0-7-2.2-7-6.7c0-4.8,3.8-6.6,6.5-6.7v0.1
				c-1.3,0.3-2.8,1.5-2.8,6.5c0,4.9,2,6,4.1,6C126,20.2,127.3,19.3,127.9,18.5z M128.1,7.6v4.6h-0.2c-0.7-2.5-2.2-4-4-4.5V7.6
				c1.7,0.1,2.7,0.4,3.5,0.9l0.6-0.9H128.1z"/>
			<path class="st2" d="M129.5,18.5c0-1.7,1.5-2.6,3.7-2.6h2.1V16h-0.6c-1.4,0-2,0.9-2,2.1c0,1.1,0.3,1.9,1.2,1.9
				c0.5,0,1-0.3,1.4-0.7v0.1c-0.6,0.7-1.6,1.5-3,1.5C130.6,20.9,129.5,20,129.5,18.5z M130.3,13.1c0-1,0.9-2,3.5-2.1v0.1
				c-0.8,0.1-1.2,0.7-1.2,1.4c0,0.7,0.5,1.1,1.2,1.2c-0.3,0.5-1.1,0.9-1.8,0.9C130.9,14.6,130.3,13.9,130.3,13.1z M135.8,18.8v-5.8
				c0-0.9-0.4-1.7-1.3-1.8V11c3.2,0.1,4.4,1.3,4.4,3.8v4.6c0,0.6,0.2,0.8,0.5,0.8c0.3,0,0.6-0.3,0.9-0.9h0.1
				c-0.3,1.1-1.3,1.5-2.5,1.5C136.5,20.9,135.8,20.4,135.8,18.8z"/>
			<path class="st2" d="M145.7,19.7c0,0.5,0.3,1,1.4,1v0.1h-6v-0.1c1.1,0,1.4-0.5,1.4-1v-6.8c0-0.7-0.3-1-1.4-1v-0.1
				c1.8,0,3.2-0.2,4.6-0.7V19.7z M152.1,13.7v6c0,0.5,0.3,1,1.4,1v0.1h-6v-0.1c1.1,0,1.4-0.5,1.4-1v-6c0-1.1-0.4-1.6-1.3-1.6
				c-0.5,0-1,0.3-1.3,0.6v-0.1c0.4-0.8,1.4-1.5,2.8-1.5C150.9,11,152.1,11.8,152.1,13.7z M158.4,13.7v6c0,0.5,0.3,1,1.4,1v0.1h-6
				v-0.1c1.1,0,1.4-0.5,1.4-1v-6c0-1.1-0.4-1.6-1.3-1.6c-0.5,0-1,0.3-1.3,0.6v-0.1c0.4-0.8,1.4-1.5,2.8-1.5
				C157.2,11,158.4,11.8,158.4,13.7z"/>
			<path class="st2" d="M164.9,23.7c0,0.7,0.3,1,1.4,1v0.1c-1.8,0-3,0.2-4.6,0.7V12.9c0-0.7-0.3-1-1.4-1v-0.1c1.8,0,3-0.2,4.6-0.7
				V23.7z M172.2,15.9c0,4-2.1,5.1-3.9,5.1c-1.1,0-2.3-0.7-2.8-1.5v-0.1c0.5,0.4,1,0.7,1.6,0.7c0.9,0,1.9-0.6,1.9-4.1
				c0-3.5-0.9-3.9-1.9-3.9c-0.6,0-1.2,0.2-1.6,0.7v-0.2c0.5-0.8,1.7-1.5,2.8-1.5C170.1,11,172.2,12.1,172.2,15.9z"/>
			<path class="st2" d="M173.9,15.9c0-3.2,2.4-4.9,4.7-4.9v0.1c-1.1,0.1-1.4,1.1-1.4,4.7c0,2.8,1.2,4.3,2.9,4.3c1.1,0,1.9-0.3,2.8-1
				v0.1c-1,1.3-2.8,1.7-4,1.7C176.3,20.9,173.9,19.1,173.9,15.9z M178.2,15.1c1.7,0,2.4-0.5,2.4-2.1c0-0.9-0.4-1.8-1.2-1.9V11
				c2.5,0,3.7,1.8,3.7,3.2c0,0.3,0,0.7-0.1,1h-4.8V15.1z"/>
			<path class="st2" d="M188.9,19.7c0,0.5,0.3,1,1.4,1v0.1h-6v-0.1c1.1,0,1.4-0.5,1.4-1v-6.8c0-0.7-0.3-1-1.4-1v-0.1
				c1.8,0,3.2-0.2,4.6-0.7V19.7z M194,13.1c0,1.3-0.9,2.2-2,2.2c-0.5,0-0.9-0.1-1.1-0.4c0.4-0.2,0.7-0.6,0.7-1.3c0-0.6-0.4-1-1.1-1
				c-0.5,0-0.9,0.3-1.1,0.7v-0.2c0.4-1.2,1.3-2.1,2.5-2.1C193.3,11,194,11.9,194,13.1z"/>
			<path class="st2" d="M206.8,18.5l0.1,0.2c-1,1.6-2.8,2.3-4.6,2.3c-3.1,0-7-2.2-7-6.7c0-4.8,3.8-6.6,6.5-6.7v0.1
				c-1.3,0.3-2.8,1.5-2.8,6.5c0,4.9,2,6,4.1,6C204.9,20.2,206.2,19.3,206.8,18.5z M207,7.6v4.6h-0.2c-0.7-2.5-2.2-4-4-4.5V7.6
				c1.7,0.1,2.7,0.4,3.5,0.9l0.6-0.9H207z"/>
			<path class="st2" d="M208.4,18.5c0-1.7,1.5-2.6,3.7-2.6h2.1V16h-0.6c-1.4,0-2,0.9-2,2.1c0,1.1,0.3,1.9,1.2,1.9
				c0.5,0,1-0.3,1.4-0.7v0.1c-0.6,0.7-1.6,1.5-3,1.5C209.5,20.9,208.4,20,208.4,18.5z M209.2,13.1c0-1,0.9-2,3.5-2.1v0.1
				c-0.8,0.1-1.2,0.7-1.2,1.4c0,0.7,0.5,1.1,1.2,1.2c-0.3,0.5-1.1,0.9-1.8,0.9C209.8,14.6,209.2,13.9,209.2,13.1z M214.7,18.8v-5.8
				c0-0.9-0.4-1.7-1.3-1.8V11c3.2,0.1,4.4,1.3,4.4,3.8v4.6c0,0.6,0.2,0.8,0.5,0.8c0.3,0,0.6-0.3,0.9-0.9h0.1
				c-0.3,1.1-1.3,1.5-2.5,1.5C215.4,20.9,214.7,20.4,214.7,18.8z"/>
		</g>
		<g class="st1">
			<path class="st2" d="M224.6,19.7c0,0.5,0.3,1,1.4,1v0.1h-6v-0.1c1.1,0,1.4-0.5,1.4-1v-6.8c0-0.7-0.3-1-1.4-1v-0.1
				c1.8,0,3.2-0.2,4.6-0.7V19.7z M229.8,13.1c0,1.3-0.9,2.2-2,2.2c-0.5,0-0.9-0.1-1.1-0.4c0.4-0.2,0.7-0.6,0.7-1.3
				c0-0.6-0.4-1-1.1-1c-0.5,0-0.9,0.3-1.1,0.7v-0.2c0.4-1.2,1.3-2.1,2.5-2.1C229.1,11,229.8,11.9,229.8,13.1z"/>
		</g>
		<g class="st1">
			<path class="st2" d="M230.8,15.9c0-3.2,2.4-4.9,4.7-4.9v0.1c-1.1,0.1-1.4,1.1-1.4,4.7c0,2.8,1.2,4.3,2.9,4.3c1.1,0,1.9-0.3,2.8-1
				v0.1c-1,1.3-2.8,1.7-4.1,1.7C233.3,20.9,230.8,19.1,230.8,15.9z M235.1,15.1c1.7,0,2.4-0.5,2.4-2.1c0-0.9-0.4-1.8-1.2-1.9V11
				c2.5,0,3.7,1.8,3.7,3.2c0,0.3,0,0.7-0.1,1h-4.8V15.1z"/>
		</g>
		<g class="st1">
			<path class="st2" d="M21.5,32.7v0.2c-0.4-0.5-1-0.7-1.6-0.7c-1,0-1.9,0.4-1.9,3.9c0,3.4,1,4.1,1.9,4.1c0.6,0,1.1-0.3,1.6-0.7v0.1
				c-0.5,0.8-1.7,1.5-2.8,1.5c-1.8,0-3.9-1.1-3.9-5.1c0-3.8,2.1-4.9,3.9-4.9C19.8,31.2,21.1,31.9,21.5,32.7z M25.3,43.8
				c0,0.7,0.3,1,1.4,1V45c-1.8,0-3,0.2-4.6,0.7V31.9c1-0.1,2.3-0.4,3.2-0.7V43.8z"/>
			<path class="st2" d="M31.7,38.4c0,1.1,0.4,1.6,1.3,1.6c0.5,0,0.9-0.2,1.3-0.6v0.1c-0.4,0.8-1.4,1.5-3,1.5c-1.7,0-2.8-0.8-2.8-2.7
				v-5.4c0-0.7-0.3-1-1.4-1v-0.1c1.8,0,3.2-0.2,4.6-0.7V38.4z M38,39.6c0,0.6,0.2,0.8,0.5,0.8c0.3,0,0.6-0.3,0.9-0.9h0.1
				c-0.3,1.1-1.3,1.5-2.6,1.5c-1.3,0-2.1-0.8-2.1-1.9v-6.2c0-0.7-0.3-1-1.4-1v-0.1c1.7,0,2.9-0.2,4.5-0.7V39.6z"/>
			<path class="st2" d="M45.4,31.3c-1.1,0.1-1.5,1.1-1.5,4.8c0,3.6,0.4,4.8,1.5,4.9v0.1c-2.2,0-4.8-1.8-4.8-5c0-3.2,2.5-4.9,4.8-4.9
				V31.3z M50.9,36.1c0,3.2-2.5,5-4.7,5V41c1.1-0.1,1.5-1.3,1.5-4.9c0-3.7-0.4-4.7-1.5-4.8v-0.1C48.4,31.2,50.9,32.9,50.9,36.1z"/>
		</g>
		<g class="st1">
			<path class="st2" d="M59.6,39.5v0.1c-0.6,0.9-1.8,1.5-3.3,1.5c-1.7,0-2.9-0.8-2.9-2.7v-6.3h-1l0.2-0.3h0.8v-2.1
				c1.2,0,2.3-0.4,3.1-1.1v3.1h2.6l-0.2,0.3h-2.4v6.3c0,1,0.4,1.9,1.3,1.9C58.3,40.4,59,40.1,59.6,39.5z"/>
		</g>
		<g class="st1">
			<path class="st2" d="M60.3,36.1c0-3.2,2.4-4.9,4.7-4.9v0.1c-1.1,0.1-1.4,1.1-1.4,4.7c0,2.8,1.2,4.3,2.9,4.3c1.1,0,1.9-0.3,2.8-1
				v0.1c-1,1.3-2.8,1.7-4.1,1.7C62.8,41.1,60.3,39.3,60.3,36.1z M64.6,35.3c1.7,0,2.4-0.5,2.4-2.1c0-0.9-0.4-1.8-1.2-1.9v-0.1
				c2.5,0,3.7,1.8,3.7,3.2c0,0.3,0,0.7-0.1,1h-4.8V35.3z"/>
		</g>
	</g>
</g>
</svg>
