<?xml version="1.0" encoding="utf-8"?>
<!-- Generator: Adobe Illustrator 24.0.3, SVG Export Plug-In . SVG Version: 6.00 Build 0)  -->
<svg version="1.1" id="Layer_1" xmlns="http://www.w3.org/2000/svg" xmlns:xlink="http://www.w3.org/1999/xlink" x="0px" y="0px"
	 viewBox="0 0 320 50" style="enable-background:new 0 0 320 50;" xml:space="preserve">
<style type="text/css">
	.st0{clip-path:url(#SVGID_2_);}
	.st1{enable-background:new    ;}
	.st2{fill:#263845;}
</style>
<title>Artboard 1 copy</title>
<g>
	<defs>
		<rect id="SVGID_1_" y="0" width="320" height="50"/>
	</defs>
	<clipPath id="SVGID_2_">
		<use xlink:href="#SVGID_1_"  style="overflow:visible;"/>
	</clipPath>
	<g class="st0">
		<g class="st1">
			<path class="st2" d="M10.5,21.4c1.1,0,1.4-0.4,1.4-1V9.6c0-0.5-0.3-1-1.4-1V8.5h4.7v11.9c0,0.5,0.3,1,1.4,1v0.1h-6.1V21.4z
				 M16.1,8.6V8.5h5.3v3.8h-0.2C20.3,9.6,19,8.8,16.1,8.6z M17.2,15.1L16.1,15v-0.1l1.1-0.1c1.1-0.1,1.9-0.6,2.5-1.6h0.2v3.6h-0.2
				C19,15.6,18.3,15.2,17.2,15.1z"/>
			<path class="st2" d="M26.8,19c0,1.1,0.4,1.6,1.3,1.6c0.5,0,0.9-0.2,1.3-0.6v0.1c-0.4,0.8-1.4,1.5-3,1.5c-1.7,0-2.8-0.8-2.8-2.7
				v-5.4c0-0.7-0.3-1-1.4-1v-0.1c1.8,0,3.2-0.2,4.6-0.7V19z M33.2,20.2c0,0.6,0.2,0.8,0.5,0.8c0.3,0,0.6-0.3,0.9-0.9h0.1
				c-0.3,1.1-1.3,1.5-2.6,1.5c-1.3,0-2.1-0.8-2.1-1.9v-6.2c0-0.7-0.3-1-1.4-1v-0.1c1.7,0,2.9-0.2,4.5-0.7V20.2z"/>
			<path class="st2" d="M35.4,8.2c1.8,0,3.2-0.2,4.6-0.7v13c0,0.5,0.3,1,1.4,1v0.1h-6v-0.1c1.1,0,1.4-0.5,1.4-1V9.3
				c0-0.7-0.3-1-1.4-1V8.2z"/>
		</g>
		<g class="st1">
			<path class="st2" d="M42.1,8.2c1.8,0,3.2-0.2,4.6-0.7v13c0,0.5,0.3,1,1.4,1v0.1h-6v-0.1c1.1,0,1.4-0.5,1.4-1V9.3
				c0-0.7-0.3-1-1.4-1V8.2z"/>
		</g>
		<g class="st1">
			<path class="st2" d="M49.3,12.7c-0.2-0.4-0.5-0.7-1.1-0.7v-0.1h5.3v0.1c-0.7,0-0.9,0.5-0.6,1.1l2.5,5.2l-1.6,3.1h-0.1L49.3,12.7z
				 M48.5,24.6c0-0.8,0.6-1.5,1.7-1.8c-0.1,0.2-0.1,0.3-0.1,0.5c0,0.7,0.4,1.3,1.1,1.3c0.7,0,1.2-0.7,1.9-1.9h0.1
				c-1.1,2-1.8,3.7-3.1,3.7C49.1,26.3,48.5,25.5,48.5,24.6z M56.3,16.5c0.3-0.6,0.5-1.4,0.5-2.5c0-1.1-0.6-2-1.9-2v-0.1h4.8v0.1
				c-0.6,0-0.9,0.2-1.2,0.9l-2,3.7L56.3,16.5z"/>
		</g>
		<g class="st1">
			<path class="st2" d="M69,11.9c-1.1,0.1-1.5,1.1-1.5,4.8c0,3.6,0.4,4.8,1.5,4.9v0.1c-2.2,0-4.8-1.8-4.8-5c0-3.2,2.5-4.9,4.8-4.9
				V11.9z M74.5,16.7c0,3.2-2.5,5-4.7,5v-0.1c1.1-0.1,1.5-1.3,1.5-4.9c0-3.7-0.4-4.7-1.5-4.8v-0.1C72,11.8,74.5,13.5,74.5,16.7z"/>
			<path class="st2" d="M80.2,24.4c0,0.7,0.3,1,1.4,1v0.1c-1.8,0-3,0.2-4.6,0.7V13.6c0-0.7-0.3-1-1.4-1v-0.1c1.8,0,3-0.2,4.6-0.7
				V24.4z M87.5,16.6c0,4-2.1,5.1-3.9,5.1c-1.1,0-2.3-0.7-2.8-1.5V20c0.5,0.4,1,0.7,1.6,0.7c0.9,0,1.9-0.6,1.9-4.1
				c0-3.5-0.9-3.9-1.9-3.9c-0.6,0-1.2,0.2-1.6,0.7v-0.2c0.5-0.8,1.7-1.5,2.8-1.5C85.4,11.8,87.5,12.8,87.5,16.6z"/>
			<path class="st2" d="M96.3,20v0.1c-0.6,0.9-1.8,1.5-3.3,1.5c-1.7,0-2.9-0.8-2.9-2.7v-6.3h-1l0.2-0.3H90v-2.1
				c1.2,0,2.3-0.4,3.1-1.1v3.1h2.6l-0.2,0.3h-2.4v6.3c0,1,0.4,1.9,1.3,1.9C95,21,95.6,20.7,96.3,20z"/>
			<path class="st2" d="M96.8,12.5c1.8,0,3.2-0.2,4.6-0.7v8.7c0,0.5,0.3,1,1.4,1v0.1h-6v-0.1c1.1,0,1.4-0.5,1.4-1v-6.8
				c0-0.7-0.3-1-1.4-1V12.5z M97.7,8.9c0-1,0.8-1.7,1.9-1.7c1.1,0,1.9,0.7,1.9,1.7c0,1-0.8,1.7-1.9,1.7C98.5,10.6,97.7,9.9,97.7,8.9
				z"/>
			<path class="st2" d="M108.7,11.9c-1.1,0.1-1.5,1.1-1.5,4.8c0,3.6,0.4,4.8,1.5,4.9v0.1c-2.2,0-4.8-1.8-4.8-5
				c0-3.2,2.5-4.9,4.8-4.9V11.9z M114.2,16.7c0,3.2-2.5,5-4.7,5v-0.1c1.1-0.1,1.5-1.3,1.5-4.9c0-3.7-0.4-4.7-1.5-4.8v-0.1
				C111.6,11.8,114.2,13.5,114.2,16.7z"/>
			<path class="st2" d="M115.4,21.4c1.1,0,1.4-0.5,1.4-1v-6.8c0-0.7-0.3-1-1.4-1v-0.1c1.8,0,3.2-0.2,4.6-0.7v8.7c0,0.5,0.3,1,1.4,1
				v0.1h-6V21.4z M122.1,21.4c1.1,0,1.4-0.5,1.4-1v-6c0-1.1-0.6-1.6-1.5-1.6c-0.5,0-1,0.2-1.5,0.6v-0.1c0.5-0.8,1.8-1.5,3.2-1.5
				c1.7,0,2.9,0.8,2.9,2.7v6c0,0.5,0.3,1,1.4,1v0.1h-6V21.4z"/>
			<path class="st2" d="M129.2,16.7c0-3.2,2.4-4.9,4.7-4.9v0.1c-1.1,0.1-1.4,1.1-1.4,4.7c0,2.8,1.2,4.3,2.9,4.3c1.1,0,1.9-0.3,2.8-1
				V20c-1,1.3-2.8,1.7-4.1,1.7C131.6,21.7,129.2,19.9,129.2,16.7z M133.5,15.9c1.7,0,2.4-0.5,2.4-2.1c0-0.9-0.4-1.8-1.2-1.9v-0.1
				c2.5,0,3.7,1.8,3.7,3.2c0,0.3,0,0.7-0.1,1h-4.8V15.9z"/>
			<path class="st2" d="M146.7,13.3v0.2c-0.4-0.5-1-0.7-1.6-0.7c-1,0-1.9,0.4-1.9,3.9c0,3.4,1,4.1,1.9,4.1c0.6,0,1.1-0.3,1.6-0.7
				v0.1c-0.5,0.8-1.7,1.5-2.8,1.5c-1.8,0-3.9-1.1-3.9-5.1c0-3.8,2.1-4.9,3.9-4.9C145,11.8,146.2,12.5,146.7,13.3z M150.4,20.2
				c0,0.6,0.2,0.8,0.5,0.8c0.3,0,0.6-0.3,0.9-0.9h0.1c-0.3,1.1-1.3,1.5-2.5,1.5c-1.5,0-2.2-0.5-2.2-2.2V9.3c0-0.7-0.3-1-1.4-1V8.2
				c1.8,0,3-0.2,4.6-0.7V20.2z"/>
		</g>
		<g class="st1">
			<path class="st2" d="M164.1,21.4v0.1H158v-0.1c1.1,0,1.4-0.5,1.4-1V9.6c0-0.6-0.3-1-1.4-1V8.5h4.7v11.9
				C162.7,20.9,162.9,21.4,164.1,21.4z M171.6,20.1c-0.3,1.1-1.4,1.5-2.8,1.5c-2.5,0-3.1-1.7-3.2-3.3c-0.1-1.6-0.3-2.8-1.9-3v-0.1
				c1.8,0,2.5-1.5,2.5-3.4c0-2.1-0.8-3.2-2.5-3.2V8.5c3.9,0,5.8,0.9,5.8,3.3c0,2.1-1.5,3.3-4.4,3.5c3.5,0.2,4,1.5,4.2,3.1
				c0.2,1.5,0.6,2.6,1.3,2.6c0.3,0,0.7-0.3,1-0.9H171.6z"/>
		</g>
		<g class="st1">
			<path class="st2" d="M171.9,9.6c-0.3-0.7-0.8-1-1.7-1V8.5h6.9v0.1c-0.9,0-1.7,0.6-1.2,1.6l3.6,7.6l-1.7,3.9h-0.2L171.9,9.6z
				 M180.2,16c1.1-2.6,1.4-4.1,1.4-5.3c0-1.4-1.2-2.1-2.2-2.1V8.5h5.5v0.1c-0.9,0-1.4,0.8-2,2.1l-2.6,5.5L180.2,16z"/>
		</g>
		<g class="st1">
			<path class="st2" d="M10.1,32.7c1.8,0,3.2-0.2,4.6-0.7v8.7c0,0.5,0.3,1,1.4,1v0.1h-6v-0.1c1.1,0,1.4-0.5,1.4-1v-6.8
				c0-0.7-0.3-1-1.4-1V32.7z M11.1,29.1c0-1,0.8-1.7,1.9-1.7c1.1,0,1.9,0.7,1.9,1.7c0,1-0.8,1.7-1.9,1.7
				C11.9,30.8,11.1,30.1,11.1,29.1z"/>
			<path class="st2" d="M16.9,41.6c1.1,0,1.4-0.5,1.4-1v-6.8c0-0.7-0.3-1-1.4-1v-0.1c1.8,0,3.2-0.2,4.6-0.7v8.7c0,0.5,0.3,1,1.4,1
				v0.1h-6V41.6z M23.7,41.6c1.1,0,1.4-0.5,1.4-1v-6c0-1.1-0.6-1.6-1.5-1.6c-0.5,0-1,0.2-1.5,0.6v-0.1c0.5-0.8,1.8-1.5,3.2-1.5
				c1.7,0,2.9,0.8,2.9,2.7v6c0,0.5,0.3,1,1.4,1v0.1h-6V41.6z"/>
			<path class="st2" d="M34,39.4c-0.6,0-1.1,0.4-1.1,1c0,0.6,0.4,1.3,1.7,1.4v0.1c-2.5-0.1-3.9-0.8-3.9-1.9c0-0.9,0.8-1.4,1.6-1.4
				C33.1,38.6,33.7,38.9,34,39.4z M34.7,32.1c-0.7,0.1-1.4,0.5-1.4,1.3c0.1,2.2,6.2,2.6,6.2,5.6c0,1.9-1.6,2.8-4,2.9v-0.1
				c0.8-0.1,1.7-0.4,1.7-1.4c0-2-6.3-2.7-6.3-5.6c0-1.7,1.6-2.7,3.7-2.8V32.1z M39.2,33.9c0,0.6-0.5,1.2-1.4,1.2
				c-0.8,0-1.4-0.3-1.6-0.9c0.6,0,0.9-0.4,0.9-0.9c0-0.6-0.7-1.1-1.5-1.2v-0.1C37.7,32.1,39.2,32.8,39.2,33.9z"/>
			<path class="st2" d="M45.2,39.2c0,1.1,0.4,1.6,1.3,1.6c0.5,0,0.9-0.2,1.3-0.6v0.1c-0.4,0.8-1.4,1.5-3,1.5c-1.7,0-2.8-0.8-2.8-2.7
				v-5.4c0-0.7-0.3-1-1.4-1v-0.1c1.8,0,3.2-0.2,4.6-0.7V39.2z M51.5,40.4c0,0.6,0.2,0.8,0.5,0.8c0.3,0,0.6-0.3,0.9-0.9h0.1
				c-0.3,1.1-1.3,1.5-2.6,1.5c-1.3,0-2.1-0.8-2.1-1.9v-6.2c0-0.7-0.3-1-1.4-1v-0.1c1.7,0,2.9-0.2,4.5-0.7V40.4z"/>
		</g>
		<g class="st1">
			<path class="st2" d="M58.4,40.6c0,0.5,0.3,1,1.4,1v0.1h-6v-0.1c1.1,0,1.4-0.5,1.4-1v-6.8c0-0.7-0.3-1-1.4-1v-0.1
				c1.8,0,3.2-0.2,4.6-0.7V40.6z M63.6,34c0,1.3-0.9,2.2-2,2.2c-0.5,0-0.9-0.1-1.1-0.4c0.4-0.2,0.7-0.6,0.7-1.3c0-0.6-0.4-1-1.1-1
				c-0.5,0-0.9,0.3-1.1,0.7V34c0.4-1.2,1.3-2.1,2.5-2.1C62.9,31.9,63.6,32.9,63.6,34z"/>
		</g>
		<g class="st1">
			<path class="st2" d="M64.4,39.4c0-1.7,1.5-2.6,3.7-2.6h2.1v0.1h-0.6c-1.4,0-2,0.9-2,2.1c0,1.1,0.3,1.9,1.2,1.9
				c0.5,0,1-0.3,1.4-0.7v0.1c-0.6,0.7-1.6,1.5-3,1.5C65.5,41.9,64.4,41,64.4,39.4z M65.2,34c0-1,0.9-2,3.5-2.1v0.1
				c-0.8,0.1-1.2,0.7-1.2,1.4c0,0.7,0.5,1.1,1.2,1.2c-0.3,0.5-1.1,0.9-1.8,0.9C65.8,35.5,65.2,34.8,65.2,34z M70.7,39.7v-5.8
				c0-0.9-0.4-1.7-1.3-1.8v-0.1c3.2,0.1,4.4,1.3,4.4,3.8v4.6c0,0.6,0.2,0.8,0.5,0.8c0.3,0,0.6-0.3,0.9-0.9h0.1
				c-0.3,1.1-1.3,1.5-2.5,1.5C71.4,41.9,70.7,41.3,70.7,39.7z"/>
			<path class="st2" d="M76,41.6c1.1,0,1.4-0.5,1.4-1v-6.8c0-0.7-0.3-1-1.4-1v-0.1c1.8,0,3.2-0.2,4.6-0.7v8.7c0,0.5,0.3,1,1.4,1v0.1
				h-6V41.6z M82.7,41.6c1.1,0,1.4-0.5,1.4-1v-6c0-1.1-0.6-1.6-1.5-1.6c-0.5,0-1,0.2-1.5,0.6v-0.1c0.5-0.8,1.8-1.5,3.2-1.5
				c1.7,0,2.9,0.8,2.9,2.7v6c0,0.5,0.3,1,1.4,1v0.1h-6V41.6z"/>
			<path class="st2" d="M94.7,32.1c-1.1,0.1-1.6,1.1-1.6,4.7c0,2.8,1.4,4.3,3.1,4.3c1.1,0,1.9-0.3,2.8-1v0.1c-1,1.3-2.8,1.7-4,1.7
				c-2.4,0-5.1-1.8-5.1-5c0-3.2,2.7-4.9,4.9-4.9V32.1z M98.9,34.1c0,1-0.7,1.8-1.9,1.8c-0.9,0-1.5-0.6-1.7-1.2
				c0.5-0.2,0.9-0.9,0.9-1.4c0-0.4-0.1-1.1-0.8-1.3v-0.1C97.9,31.9,98.9,33,98.9,34.1z"/>
			<path class="st2" d="M100.3,36.9c0-3.2,2.4-4.9,4.7-4.9v0.1c-1.1,0.1-1.4,1.1-1.4,4.7c0,2.8,1.2,4.3,2.9,4.3c1.1,0,1.9-0.3,2.8-1
				v0.1c-1,1.3-2.8,1.7-4.1,1.7C102.8,41.9,100.3,40.1,100.3,36.9z M104.6,36.1c1.7,0,2.4-0.5,2.4-2.1c0-0.9-0.4-1.8-1.2-1.9v-0.1
				c2.5,0,3.7,1.8,3.7,3.2c0,0.3,0,0.7-0.1,1h-4.8V36.1z"/>
		</g>
	</g>
</g>
</svg>
