<svg id="Layer_1" data-name="Layer 1" xmlns="http://www.w3.org/2000/svg" viewBox="0 0 320 480"><defs><style>.cls-1{fill:#263845;}.cls-2{fill:none;}</style></defs><title>Artboard 1</title><path class="cls-1" d="M35.21,84.08l.28.42.28,14.7c0,1.51,1.12,2.94,3.43,2.94v.21H31.5v-.21c2.31,0,3.39-1.47,3.43-2.94Zm18.55,18.27H49.87L35.24,80.55a3.8,3.8,0,0,0-3.71-1.79v-.21h9.35L53.76,97.84Zm-.07-8-.28-.38L53,81.7c0-1.5-1.12-2.94-3.43-2.94v-.21h7.7v.21c-2.31,0-3.43,1.47-3.43,2.94Z"/><path class="cls-1" d="M72.9,78.55h6.69l-13.9,23.8H59Zm-12.84,0H70.63l-.11.21C65.34,79,61.21,82.61,60.34,87h-.28Zm8,23.59A12,12,0,0,0,79,92.8h.28v9.55H68Z"/><path class="cls-1" d="M89.35,79.67c0,2-2.17,4.73-5.67,6.16l-.1-.31a4.91,4.91,0,0,0,2-3.4,2.2,2.2,0,0,0-2.38-2.31c.28-2.06,1.51-3.18,3.33-3.18A2.81,2.81,0,0,1,89.35,79.67Z"/><path class="cls-1" d="M96.53,98.19a1.79,1.79,0,0,0-2,1.75c0,1,.7,2.31,3.11,2.55v.21c-4.65-.17-7.21-1.43-7.21-3.46a2.73,2.73,0,0,1,3-2.59A3.56,3.56,0,0,1,96.53,98.19Zm1.15-13.48c-1.29.25-2.55.91-2.52,2.35.11,4.06,11.45,4.72,11.45,10.29,0,3.39-2.87,5.18-7.39,5.35v-.21c1.47-.24,3.12-.77,3.12-2.59,0-3.64-11.48-5-11.48-10.29,0-3.08,2.9-4.93,6.82-5.11Zm8.26,3.4a2.29,2.29,0,0,1-2.59,2.17,3,3,0,0,1-3-1.68A1.55,1.55,0,0,0,102,87c0-1-1.33-2.06-2.73-2.24V84.5C103.18,84.71,105.94,86.15,105.94,88.11Z"/><path class="cls-1" d="M117.63,78A21.54,21.54,0,0,0,126,76.63v23.73c0,.87.52,1.78,2.62,1.78v.21h-11v-.21c2.1,0,2.62-.91,2.62-1.78V80.06c0-1.26-.59-1.86-2.59-1.86Z"/><path class="cls-1" d="M130.72,93.53a8.67,8.67,0,0,1,8.58-9v.21c-2.07.25-2.63,2-2.63,8.68,0,5,2.24,7.81,5.36,7.81a7.62,7.62,0,0,0,5.11-1.86v.21c-1.82,2.31-5.15,3.15-7.42,3.15A8.87,8.87,0,0,1,130.72,93.53Zm7.88-1.47c3.08,0,4.37-1,4.37-3.92,0-1.68-.7-3.22-2.27-3.43V84.5c4.62,0,6.86,3.29,6.86,6a9.85,9.85,0,0,1-.18,1.82H138.6Z"/><path class="cls-1" d="M150.08,98.22c0-3,2.8-4.76,6.72-4.76h3.78v.21h-1.05c-2.52,0-3.71,1.65-3.71,3.82,0,1.92.56,3.39,2.2,3.39a3.84,3.84,0,0,0,2.56-1.22v.21A7.45,7.45,0,0,1,155,102.7C152,102.7,150,101,150.08,98.22Zm1.4-9.9c0-1.79,1.61-3.61,6.37-3.82v.21a2.56,2.56,0,0,0-2.24,2.56c0,1.26.87,2,2.27,2.13a3.93,3.93,0,0,1-3.36,1.68A2.8,2.8,0,0,1,151.48,88.32Zm10.15,10.43V88c0-1.72-.67-3.08-2.38-3.33V84.5c5.81.21,8.12,2.42,8.12,7V100c0,1,.35,1.43,1,1.43s1.12-.52,1.68-1.57h.21c-.56,1.92-2.45,2.83-4.55,2.83C162.89,102.7,161.63,101.72,161.63,98.75Z"/><path class="cls-1" d="M184.38,87.3v.28a3.88,3.88,0,0,0-2.91-1.29c-1.75,0-3.43.8-3.43,7.14s1.79,7.45,3.43,7.45a4.86,4.86,0,0,0,2.91-1.22v.21a6.5,6.5,0,0,1-5.08,2.83c-3.32,0-7.21-2-7.21-9.27,0-7,3.82-8.93,7.21-8.93A6.47,6.47,0,0,1,184.38,87.3ZM191.2,100c0,1,.32,1.43,1,1.43s1.12-.52,1.68-1.57H194c-.56,1.92-2.45,2.83-4.55,2.83-2.8,0-4.06-1-4.06-4V80.06c0-1.26-.6-1.86-2.59-1.86V78a23,23,0,0,0,8.36-1.36Z"/><path class="cls-1" d="M195.51,85.83a21.49,21.49,0,0,0,8.36-1.36v15.89c0,.87.53,1.78,2.63,1.78v.21h-11v-.21c2.1,0,2.63-.91,2.63-1.78V87.9c0-1.26-.6-1.86-2.59-1.86Zm1.78-6.58c0-1.82,1.47-3,3.57-3s3.57,1.22,3.57,3-1.47,3.08-3.57,3.08S197.29,81.11,197.29,79.25Z"/><path class="cls-1" d="M208,102.14c2.1,0,2.62-.91,2.62-1.78V87.93c0-1.26-.59-1.85-2.59-1.85v-.21a21.36,21.36,0,0,0,8.37-1.37v15.86c0,.87.52,1.78,2.62,1.78v.21H208Zm12.32,0c2.06,0,2.59-.91,2.59-1.78V89.44c0-2-1-3-2.77-3a3.74,3.74,0,0,0-2.66,1.09v-.21a7.16,7.16,0,0,1,5.81-2.84c3.15,0,5.39,1.47,5.39,4.94v10.92c0,.87.53,1.78,2.63,1.78v.21h-11Z"/><path class="cls-1" d="M233.34,90.84c0-4.55,4.27-6.27,7.84-6.34v.21c-1.5.14-2.2,2-2.2,6,0,4.24.7,6,2.2,6.09V97C237.65,97,233.34,95.35,233.34,90.84Zm9.31,20.06c3.5-.42,4.62-2.32,4.62-3.58,0-4.86-13.65-.52-13.65-6.79,0-1.43.74-2.55,2.35-3.57l.1.18a.81.81,0,0,0-.31.66c0,3.92,16-.63,16,7,0,3.61-3.12,6-9.07,6.3Zm-9-3c0-2.06,2.56-2.69,5.32-2.69a2.93,2.93,0,0,0-1.5,2.48c0,1.61,1.82,2.84,3.81,3.16v.2C237.51,111,233.62,110.27,233.62,108Zm9-11.13c1.72-.14,2.42-1.85,2.42-6.09,0-4.06-.74-5.88-2.42-6V84.5c3.71.07,8,1.79,8,6.34s-4.31,6.19-8,6.19Zm1.89-12.95c.6-1.78,2.21-4.2,4.62-4.2,1.86,0,3,1,3,2.66a2.79,2.79,0,0,1-2.84,2.73c0-1.47-.77-2.34-1.89-2.34A3.78,3.78,0,0,0,244.72,84Z"/><path class="cls-1" d="M43.36,137.14v.21H32.13v-.21c2.1,0,2.62-.84,2.62-1.78V115.51c0-1-.52-1.75-2.62-1.75v-.21H40.7v21.81C40.7,136.3,41.23,137.14,43.36,137.14ZM57,134.87c-.56,1.92-2.63,2.83-5.19,2.83-4.55,0-5.6-3.15-5.81-6.09s-.49-5.11-3.57-5.56v-.21c3.22,0,4.66-2.8,4.66-6.3,0-3.92-1.44-5.78-4.66-5.78v-.21c7.11,0,10.61,1.58,10.61,6,0,3.78-2.8,6.09-8,6.4,6.37.28,7.36,2.77,7.7,5.67s1.13,4.83,2.32,4.83c.63,0,1.19-.52,1.75-1.57Z"/><path class="cls-1" d="M57.57,115.58c-.63-1.36-1.43-1.82-3.15-1.82v-.21H67.06v.21c-1.61,0-3,1-2.17,2.87l6.61,13.93-3.18,7.14h-.39Zm15.26,11.76c2-4.69,2.49-7.56,2.49-9.76a3.83,3.83,0,0,0-4-3.82v-.21H81.41v.14c-1.61,0-2.59,1.51-3.71,3.89l-4.76,10.08Z"/><path class="cls-1" d="M89,120.83a21.49,21.49,0,0,0,8.36-1.36v15.89c0,.87.53,1.78,2.63,1.78v.21H89v-.21c2.1,0,2.63-.91,2.63-1.78V122.9c0-1.26-.6-1.86-2.59-1.86Zm1.78-6.58c0-1.82,1.47-3,3.57-3s3.57,1.22,3.57,3-1.47,3.08-3.57,3.08S90.82,116.11,90.82,114.25Z"/><path class="cls-1" d="M101.5,137.14c2.1,0,2.62-.91,2.62-1.78V122.93c0-1.26-.59-1.85-2.59-1.85v-.21a21.36,21.36,0,0,0,8.37-1.37v15.86c0,.87.52,1.78,2.62,1.78v.21h-11Zm12.32,0c2.06,0,2.59-.91,2.59-1.78V124.44c0-2-1-3-2.77-3a3.74,3.74,0,0,0-2.66,1.09v-.21a7.16,7.16,0,0,1,5.81-2.84c3.15,0,5.39,1.47,5.39,4.94v10.92c0,.87.53,1.78,2.63,1.78v.21h-11Z"/><path class="cls-1" d="M132.79,133.19a1.79,1.79,0,0,0-2,1.75c0,1,.7,2.31,3.11,2.55v.21c-4.65-.17-7.21-1.43-7.21-3.46a2.73,2.73,0,0,1,3-2.59A3.56,3.56,0,0,1,132.79,133.19Zm1.15-13.48c-1.29.25-2.55.91-2.52,2.35.11,4.06,11.45,4.72,11.45,10.29,0,3.39-2.87,5.18-7.39,5.35v-.21c1.47-.24,3.12-.77,3.12-2.59,0-3.64-11.48-5-11.48-10.29,0-3.08,2.9-4.93,6.82-5.11Zm8.26,3.4a2.29,2.29,0,0,1-2.59,2.17,3,3,0,0,1-3-1.68,1.55,1.55,0,0,0,1.57-1.65c0-1-1.33-2.06-2.73-2.24v-.21C139.44,119.71,142.2,121.15,142.2,123.11Z"/><path class="cls-1" d="M153.19,132.77c0,2,.67,3,2.42,3a3.09,3.09,0,0,0,2.41-1.08v.21a5.83,5.83,0,0,1-5.42,2.83c-3.15,0-5.18-1.47-5.18-4.93v-9.84c0-1.26-.6-1.85-2.59-1.85v-.21a21.3,21.3,0,0,0,8.36-1.37ZM164.85,135c0,1,.31,1.43.94,1.43s1.12-.52,1.68-1.57h.21c-.56,1.92-2.45,2.83-4.76,2.83s-3.85-1.4-3.85-3.43V122.93c0-1.26-.59-1.85-2.48-1.85v-.21a22.65,22.65,0,0,0,8.26-1.37Z"/><path class="cls-1" d="M177.48,135.36c0,.87.53,1.78,2.63,1.78v.21h-11v-.21c2.1,0,2.63-.91,2.63-1.78V122.93c0-1.26-.6-1.85-2.59-1.85v-.21a21.3,21.3,0,0,0,8.36-1.37Zm9.45-12.08a3.74,3.74,0,0,1-3.6,4,2.39,2.39,0,0,1-2-.77,2.55,2.55,0,0,0,1.37-2.38,1.86,1.86,0,0,0-2-1.89,2.41,2.41,0,0,0-2.1,1.33v-.28a4.84,4.84,0,0,1,4.55-3.78A3.55,3.55,0,0,1,186.93,123.28Z"/><path class="cls-1" d="M188.44,133.22c0-3,2.8-4.76,6.72-4.76h3.78v.21h-1.05c-2.52,0-3.71,1.65-3.71,3.82,0,1.92.56,3.39,2.2,3.39a3.84,3.84,0,0,0,2.56-1.22v.21a7.45,7.45,0,0,1-5.57,2.83C190.4,137.7,188.4,136,188.44,133.22Zm1.4-9.9c0-1.79,1.61-3.61,6.37-3.82v.21a2.56,2.56,0,0,0-2.24,2.56c0,1.26.87,2,2.27,2.13a3.93,3.93,0,0,1-3.36,1.68A2.8,2.8,0,0,1,189.84,123.32ZM200,133.75V123c0-1.72-.67-3.08-2.38-3.33v-.21c5.81.21,8.12,2.42,8.12,7V135c0,1,.35,1.43,1,1.43s1.12-.52,1.68-1.57h.21c-.56,1.92-2.45,2.83-4.55,2.83C201.25,137.7,200,136.72,200,133.75Z"/><path class="cls-1" d="M209.68,137.14c2.1,0,2.63-.91,2.63-1.78V122.93c0-1.26-.6-1.85-2.59-1.85v-.21a21.3,21.3,0,0,0,8.36-1.37v15.86c0,.87.53,1.78,2.63,1.78v.21h-11Zm12.32,0c2.07,0,2.59-.91,2.59-1.78V124.44c0-2-1-3-2.76-3a3.74,3.74,0,0,0-2.66,1.09v-.21A7.14,7.14,0,0,1,225,119.5c3.15,0,5.39,1.47,5.39,4.94v10.92c0,.87.52,1.78,2.62,1.78v.21H222Z"/><path class="cls-1" d="M243.84,119.71c-2.06.25-3,2-3,8.68,0,5,2.55,7.81,5.67,7.81a7.62,7.62,0,0,0,5.11-1.86v.21c-1.82,2.31-5.15,3.15-7.42,3.15a9.15,9.15,0,0,1-9.35-9.17,9,9,0,0,1,9-9Zm7.77,3.75a3.26,3.26,0,0,1-3.5,3.36,3,3,0,0,1-3-2.21,3,3,0,0,0,1.68-2.55,2.07,2.07,0,0,0-1.51-2.31v-.25C249.83,119.5,251.61,121.46,251.61,123.46Z"/><path class="cls-1" d="M254.24,128.53a8.67,8.67,0,0,1,8.57-9v.21c-2.06.25-2.62,2-2.62,8.68,0,5,2.24,7.81,5.35,7.81a7.58,7.58,0,0,0,5.11-1.86v.21c-1.82,2.31-5.14,3.15-7.42,3.15A8.87,8.87,0,0,1,254.24,128.53Zm7.87-1.47c3.08,0,4.38-1,4.38-3.92,0-1.68-.7-3.22-2.28-3.43v-.21c4.62,0,6.86,3.29,6.86,6a10.8,10.8,0,0,1-.17,1.82h-8.79Z"/><path class="cls-1" d="M39.55,177.67c0,1.27.59,1.86,2.59,1.86v.21a23.06,23.06,0,0,0-8.37,1.36V157.9c0-1.26-.59-1.86-2.59-1.86v-.21a23.06,23.06,0,0,0,8.37-1.36Zm13.34-14.24c0,7.31-3.86,9.27-7.18,9.27a6.54,6.54,0,0,1-5.11-2.83v-.21a4.92,4.92,0,0,0,2.94,1.22c1.64,0,3.39-1.15,3.39-7.45s-1.64-7.14-3.39-7.14a3.93,3.93,0,0,0-2.94,1.29v-.28a6.51,6.51,0,0,1,5.11-2.8C49.1,154.5,52.89,156.46,52.89,163.43Z"/><path class="cls-1" d="M64.68,154.71c-2.07.25-2.77,2-2.77,8.82,0,6.58.7,8.75,2.77,9v.21A8.92,8.92,0,0,1,56,163.53a8.78,8.78,0,0,1,8.72-9Zm10.08,8.82a8.92,8.92,0,0,1-8.68,9.17v-.21c2.06-.21,2.73-2.41,2.73-9,0-6.86-.7-8.61-2.73-8.82v-.21A8.72,8.72,0,0,1,74.76,163.53Z"/><path class="cls-1" d="M76.89,148a21.54,21.54,0,0,0,8.37-1.36v23.73c0,.87.52,1.78,2.62,1.78v.21h-11v-.21c2.1,0,2.62-.91,2.62-1.78v-20.3c0-1.26-.59-1.86-2.59-1.86Z"/><path class="cls-1" d="M89.42,155.83a21.54,21.54,0,0,0,8.37-1.36v15.89c0,.87.52,1.78,2.62,1.78v.21h-11v-.21c2.1,0,2.62-.91,2.62-1.78V157.9c0-1.26-.59-1.86-2.59-1.86Zm1.79-6.58c0-1.82,1.47-3,3.57-3s3.57,1.22,3.57,3-1.47,3.08-3.57,3.08S91.21,151.11,91.21,149.25Z"/><path class="cls-1" d="M111.47,154.71c-2.06.25-3,2-3,8.68,0,5,2.55,7.81,5.67,7.81a7.62,7.62,0,0,0,5.11-1.86v.21c-1.82,2.31-5.15,3.15-7.42,3.15a9.15,9.15,0,0,1-9.35-9.17,9,9,0,0,1,9-9Zm7.77,3.75a3.26,3.26,0,0,1-3.5,3.36,3,3,0,0,1-3-2.21,3,3,0,0,0,1.68-2.55,2.07,2.07,0,0,0-1.51-2.31v-.25C117.46,154.5,119.24,156.46,119.24,158.46Z"/><path class="cls-1" d="M122.15,156.29a1.89,1.89,0,0,0-1.93-1.23v-.21H130v.21c-1.22,0-1.71.84-1.12,2.07l4.59,9.55-3,5.67h-.21ZM120.61,178c0-1.51,1.19-2.77,3.08-3.29a2.51,2.51,0,0,0-.14.87,2,2,0,0,0,2.06,2.35c1.23,0,2.21-1.3,3.54-3.54h.24c-1.92,3.61-3.25,6.72-5.7,6.72A2.91,2.91,0,0,1,120.61,178ZM135,163.25a9.64,9.64,0,0,0,1-4.51,3.39,3.39,0,0,0-3.57-3.68v-.21h8.71v.21c-1.15,0-1.61.46-2.27,1.65l-3.64,6.86Z"/><rect class="cls-2" x="0.62" width="320" height="480"/></svg>