<svg id="Layer_1" data-name="Layer 1" xmlns="http://www.w3.org/2000/svg" viewBox="0 0 320 480"><defs><style>.cls-1{fill:#fff;}.cls-2{fill:none;}</style></defs><title>Artboard 1 copy 2</title><path class="cls-1" d="M42.74,94.14v.21H31.51v-.21c2.09,0,2.62-.84,2.62-1.78V72.51c0-1-.53-1.75-2.62-1.75v-.21h8.57V92.36C40.08,93.3,40.61,94.14,42.74,94.14Zm13.65-2.27c-.56,1.92-2.62,2.83-5.18,2.83-4.55,0-5.6-3.15-5.81-6.09s-.49-5.11-3.57-5.56v-.21c3.22,0,4.66-2.8,4.66-6.3,0-3.92-1.44-5.78-4.66-5.78v-.21c7.11,0,10.61,1.58,10.61,6,0,3.78-2.8,6.09-8,6.4,6.37.28,7.35,2.77,7.7,5.67s1.12,4.83,2.31,4.83c.63,0,1.19-.52,1.75-1.57Z"/><path class="cls-1" d="M57.13,85.53a8.67,8.67,0,0,1,8.57-9v.21c-2.06.25-2.62,2-2.62,8.68,0,5,2.24,7.81,5.35,7.81a7.58,7.58,0,0,0,5.11-1.86v.21c-1.82,2.31-5.14,3.15-7.42,3.15A8.87,8.87,0,0,1,57.13,85.53ZM65,84.06c3.08,0,4.38-1,4.38-3.92,0-1.68-.7-3.22-2.28-3.43V76.5c4.62,0,6.86,3.29,6.86,6a10.8,10.8,0,0,1-.17,1.82H65Z"/><path class="cls-1" d="M76.48,90.22c0-3,2.8-4.76,6.72-4.76H87v.21h-1c-2.52,0-3.71,1.65-3.71,3.82,0,1.92.56,3.39,2.21,3.39A3.82,3.82,0,0,0,87,91.66v.21a7.43,7.43,0,0,1-5.56,2.83C78.44,94.7,76.44,93,76.48,90.22Zm1.4-9.9c0-1.79,1.61-3.61,6.37-3.82v.21A2.56,2.56,0,0,0,82,79.27c0,1.26.88,2,2.28,2.13a3.94,3.94,0,0,1-3.36,1.68A2.8,2.8,0,0,1,77.88,80.32ZM88,90.75V80c0-1.72-.66-3.08-2.38-3.33V76.5c5.81.21,8.12,2.42,8.12,7V92c0,1,.35,1.43,1,1.43s1.12-.52,1.68-1.57h.21c-.56,1.92-2.45,2.83-4.55,2.83C89.29,94.7,88,93.72,88,90.75Z"/><path class="cls-1" d="M110.78,79.3v.28a3.88,3.88,0,0,0-2.9-1.29c-1.76,0-3.44.8-3.44,7.14s1.79,7.45,3.44,7.45a4.81,4.81,0,0,0,2.9-1.22v.21a6.48,6.48,0,0,1-5.08,2.83c-3.32,0-7.21-2-7.21-9.27,0-7,3.82-8.93,7.21-8.93A6.46,6.46,0,0,1,110.78,79.3ZM117.61,92c0,1,.31,1.43.94,1.43s1.12-.52,1.68-1.57h.21c-.56,1.92-2.45,2.83-4.55,2.83-2.8,0-4.06-1-4.06-4V72.06c0-1.26-.59-1.86-2.59-1.86V70a23.06,23.06,0,0,0,8.37-1.36Z"/><path class="cls-1" d="M122.43,78.29a1.89,1.89,0,0,0-1.92-1.23v-.21h9.8v.21c-1.22,0-1.71.84-1.12,2.07l4.59,9.55-3,5.67h-.21ZM120.89,100c0-1.51,1.19-2.77,3.08-3.29a2.77,2.77,0,0,0-.14.87,2.06,2.06,0,0,0,2.07,2.35c1.22,0,2.2-1.3,3.53-3.54h.25c-1.92,3.61-3.25,6.72-5.71,6.72A2.91,2.91,0,0,1,120.89,100Zm14.36-14.74a9.64,9.64,0,0,0,1-4.51,3.39,3.39,0,0,0-3.57-3.68v-.21h8.71v.21c-1.15,0-1.61.46-2.27,1.65l-3.64,6.86Z"/><path class="cls-1" d="M161.43,77.76l-.39.53h-3.43V92.36c0,.87.56,1.78,2.66,1.78v.21H149.21v-.21c2.1,0,2.62-.91,2.62-1.78V78.29h-2.27l.38-.53h1.89V76.19c0-5,2.6-7.07,5.81-7.56v.21c-1.18.45-2.06,1.57-2.06,3.71S157,77.76,161.43,77.76Zm3-5.35a3,3,0,0,1-3,3.08,3.64,3.64,0,0,1-3.54-2.35,2.21,2.21,0,0,0,2.49-2.24,2,2,0,0,0-1.26-2.06v-.21C162.76,68.77,164.4,70.41,164.4,72.41Z"/><path class="cls-1" d="M171.79,76.71c-2.07.25-2.77,2-2.77,8.82,0,6.58.7,8.75,2.77,9v.21a8.92,8.92,0,0,1-8.72-9.17,8.78,8.78,0,0,1,8.72-9Zm10.08,8.82a8.92,8.92,0,0,1-8.68,9.17v-.21c2.06-.21,2.73-2.41,2.73-9,0-6.86-.7-8.61-2.73-8.82V76.5A8.72,8.72,0,0,1,181.87,85.53Z"/><path class="cls-1" d="M192.57,92.36c0,.87.53,1.78,2.63,1.78v.21h-11v-.21c2.1,0,2.63-.91,2.63-1.78V79.93c0-1.26-.6-1.85-2.59-1.85v-.21a21.3,21.3,0,0,0,8.36-1.37ZM202,80.28a3.75,3.75,0,0,1-3.61,4,2.37,2.37,0,0,1-2-.77,2.56,2.56,0,0,0,1.36-2.38,1.86,1.86,0,0,0-2-1.89,2.41,2.41,0,0,0-2.1,1.33v-.28a4.84,4.84,0,0,1,4.55-3.78A3.55,3.55,0,0,1,202,80.28Z"/><path class="cls-1" d="M44.42,130.66v.21a7.32,7.32,0,0,1-6,2.83c-3.15,0-5.39-1.43-5.39-4.93V117.29H31.22l.39-.53h1.44V113a8.84,8.84,0,0,0,5.74-2v5.74h4.72l-.38.53H38.79v11.58c0,1.75.66,3.57,2.31,3.57A5.15,5.15,0,0,0,44.42,130.66Z"/><path class="cls-1" d="M53.45,131.36c0,.87.52,1.78,2.63,1.78v.21h-11v-.21c2.1,0,2.62-.91,2.62-1.78v-20.3c0-1.26-.59-1.86-2.59-1.86V109a21.51,21.51,0,0,0,8.37-1.36ZM65.7,120.44v10.92c0,.87.53,1.78,2.63,1.78v.21h-11v-.21c2.06,0,2.59-.91,2.59-1.78V120.44c0-2-1-3-2.77-3a3.74,3.74,0,0,0-2.66,1.09v-.21a7.16,7.16,0,0,1,5.81-2.84C63.46,115.5,65.7,117,65.7,120.44Z"/><path class="cls-1" d="M70.21,124.53a8.67,8.67,0,0,1,8.58-9v.21c-2.07.25-2.63,2-2.63,8.68,0,5,2.24,7.81,5.36,7.81a7.58,7.58,0,0,0,5.11-1.86v.21c-1.82,2.31-5.15,3.15-7.42,3.15A8.87,8.87,0,0,1,70.21,124.53Zm7.88-1.47c3.08,0,4.38-1,4.38-3.92,0-1.68-.7-3.22-2.28-3.43v-.21c4.62,0,6.86,3.29,6.86,6a10.8,10.8,0,0,1-.17,1.82H78.09Z"/><path class="cls-1" d="M107.73,133.49v.21a13.27,13.27,0,0,1-6.79-1.71l-1.15,1.71h-.28v-8.54h.28A11.72,11.72,0,0,0,107.73,133.49Zm10.3-7c0,4.51-3.36,7-8.79,7.17v-.21c1.93-.35,3.82-1.47,3.82-3.57,0-6.12-13.38-6.68-13.38-13.79,0-4.2,3.4-6.61,8-6.93v.21a3.31,3.31,0,0,0-3.08,3.22C104.65,118.76,118,119.42,118,126.53Zm-8.79-17.12v-.21a11.3,11.3,0,0,1,6.3,1.86l1.26-1.86h.28V117h-.28A11.14,11.14,0,0,0,109.24,109.41Z"/><path class="cls-1" d="M134,130.66v.21a7.32,7.32,0,0,1-6,2.83c-3.15,0-5.39-1.43-5.39-4.93V117.29h-1.82l.38-.53h1.44V113a8.84,8.84,0,0,0,5.74-2v5.74h4.72l-.38.53h-4.34v11.58c0,1.75.66,3.57,2.31,3.57A5.15,5.15,0,0,0,134,130.66Z"/><path class="cls-1" d="M135.1,129.22c0-3,2.8-4.76,6.72-4.76h3.78v.21h-1c-2.52,0-3.71,1.65-3.71,3.82,0,1.92.56,3.39,2.21,3.39a3.82,3.82,0,0,0,2.55-1.22v.21A7.43,7.43,0,0,1,140,133.7C137.06,133.7,135.07,132,135.1,129.22Zm1.4-9.9c0-1.79,1.61-3.61,6.37-3.82v.21a2.56,2.56,0,0,0-2.24,2.56c0,1.26.88,2,2.28,2.13a3.94,3.94,0,0,1-3.36,1.68A2.8,2.8,0,0,1,136.5,119.32Zm10.15,10.43V119c0-1.72-.66-3.08-2.38-3.33v-.21c5.81.21,8.12,2.42,8.12,7V131c0,1,.35,1.43,1,1.43s1.12-.52,1.68-1.57h.21c-.56,1.92-2.46,2.83-4.55,2.83C147.91,133.7,146.65,132.72,146.65,129.75Z"/><path class="cls-1" d="M164.75,131.36c0,.87.52,1.78,2.62,1.78v.21h-11v-.21c2.1,0,2.62-.91,2.62-1.78V118.93c0-1.26-.59-1.85-2.59-1.85v-.21a21.36,21.36,0,0,0,8.37-1.37Zm9.45-12.08a3.75,3.75,0,0,1-3.61,4,2.37,2.37,0,0,1-2-.77,2.56,2.56,0,0,0,1.36-2.38,1.86,1.86,0,0,0-2-1.89,2.42,2.42,0,0,0-2.1,1.33v-.28a4.85,4.85,0,0,1,4.55-3.78A3.55,3.55,0,0,1,174.2,119.28Z"/><path class="cls-1" d="M44.42,169.66v.21a7.32,7.32,0,0,1-6,2.83c-3.15,0-5.39-1.43-5.39-4.93V156.29H31.22l.39-.53h1.44V152a8.84,8.84,0,0,0,5.74-2v5.74h4.72l-.38.53H38.79v11.58c0,1.75.66,3.57,2.31,3.57A5.15,5.15,0,0,0,44.42,169.66Z"/><path class="cls-1" d="M53.66,170.36c0,.87.52,1.78,2.63,1.78v.21h-11v-.21c2.1,0,2.62-.91,2.62-1.78V157.93c0-1.26-.59-1.85-2.59-1.85v-.21a21.32,21.32,0,0,0,8.37-1.37Zm9.45-12.08a3.74,3.74,0,0,1-3.6,4,2.39,2.39,0,0,1-2-.77,2.55,2.55,0,0,0,1.37-2.38,1.86,1.86,0,0,0-2-1.89,2.43,2.43,0,0,0-2.11,1.33v-.28a4.86,4.86,0,0,1,4.56-3.78A3.55,3.55,0,0,1,63.11,158.28Z"/><path class="cls-1" d="M65,163.53a8.67,8.67,0,0,1,8.57-9v.21c-2.06.25-2.62,2-2.62,8.68,0,5,2.24,7.81,5.36,7.81a7.62,7.62,0,0,0,5.11-1.86v.21c-1.82,2.31-5.15,3.15-7.42,3.15A8.87,8.87,0,0,1,65,163.53Zm7.88-1.47c3.08,0,4.37-1,4.37-3.92,0-1.68-.7-3.22-2.28-3.43v-.21c4.63,0,6.87,3.29,6.87,5.95a9.85,9.85,0,0,1-.18,1.82H72.88Z"/><path class="cls-1" d="M84.35,168.22c0-3,2.8-4.76,6.72-4.76h3.78v.21h-1a3.47,3.47,0,0,0-3.72,3.82c0,1.92.56,3.39,2.21,3.39a3.82,3.82,0,0,0,2.55-1.22v.21a7.43,7.43,0,0,1-5.56,2.83C86.31,172.7,84.32,171,84.35,168.22Zm1.4-9.9c0-1.79,1.61-3.61,6.37-3.82v.21a2.56,2.56,0,0,0-2.24,2.56c0,1.26.88,2,2.28,2.13a3.94,3.94,0,0,1-3.36,1.68A2.8,2.8,0,0,1,85.75,158.32ZM95.9,168.75V158c0-1.72-.66-3.08-2.38-3.33v-.21c5.82.21,8.13,2.42,8.13,7V170c0,1,.35,1.43,1,1.43s1.12-.52,1.68-1.57h.21c-.56,1.92-2.45,2.83-4.55,2.83C97.17,172.7,95.9,171.72,95.9,168.75Z"/><path class="cls-1" d="M119.18,169.66v.21a7.32,7.32,0,0,1-6,2.83c-3.15,0-5.39-1.43-5.39-4.93V156.29H106l.39-.53h1.43V152a8.8,8.8,0,0,0,5.74-2v5.74h4.73l-.39.53h-4.34v11.58c0,1.75.67,3.57,2.31,3.57A5.2,5.2,0,0,0,119.18,169.66Z"/><path class="cls-1" d="M128.42,170.36c0,.87.52,1.78,2.62,1.78v.21H120v-.21c2.1,0,2.62-.91,2.62-1.78V157.93c0-1.26-.59-1.85-2.59-1.85v-.21a21.36,21.36,0,0,0,8.37-1.37ZM140,159.44v10.92c0,.87.49,1.78,2.59,1.78v.21h-11v-.21c2.06,0,2.62-.91,2.62-1.78V159.44c0-2-.77-3-2.45-3a3.08,3.08,0,0,0-2.31,1v-.21a5.67,5.67,0,0,1,5.11-2.8C137.94,154.5,140,156,140,159.44Zm11.59,0v10.92c0,.87.52,1.78,2.62,1.78v.21h-11v-.21c2.07,0,2.63-.91,2.63-1.78V159.44c0-2-.77-3-2.45-3a3.08,3.08,0,0,0-2.31,1v-.21a5.66,5.66,0,0,1,5.11-2.8C149.53,154.5,151.63,156,151.63,159.44Z"/><path class="cls-1" d="M156.14,163.53a8.67,8.67,0,0,1,8.57-9v.21c-2.06.25-2.62,2-2.62,8.68,0,5,2.24,7.81,5.35,7.81a7.58,7.58,0,0,0,5.11-1.86v.21c-1.82,2.31-5.14,3.15-7.42,3.15A8.87,8.87,0,0,1,156.14,163.53Zm7.87-1.47c3.08,0,4.38-1,4.38-3.92,0-1.68-.7-3.22-2.28-3.43v-.21c4.62,0,6.86,3.29,6.86,5.95a10.8,10.8,0,0,1-.17,1.82H164Z"/><path class="cls-1" d="M175.21,172.14c2.1,0,2.63-.91,2.63-1.78V157.93c0-1.26-.6-1.85-2.59-1.85v-.21a21.3,21.3,0,0,0,8.36-1.37v15.86c0,.87.53,1.78,2.63,1.78v.21h-11Zm12.32,0c2.07,0,2.59-.91,2.59-1.78V159.44c0-2-1-3-2.76-3a3.74,3.74,0,0,0-2.66,1.09v-.21a7.14,7.14,0,0,1,5.81-2.84c3.15,0,5.39,1.47,5.39,4.94v10.92c0,.87.52,1.78,2.62,1.78v.21h-11Z"/><path class="cls-1" d="M213.36,169.66v.21a7.32,7.32,0,0,1-6,2.83c-3.15,0-5.39-1.43-5.39-4.93V156.29h-1.82l.38-.53H202V152a8.84,8.84,0,0,0,5.74-2v5.74h4.72l-.38.53h-4.34v11.58c0,1.75.66,3.57,2.31,3.57A5.15,5.15,0,0,0,213.36,169.66Z"/><path class="cls-1" d="M214.45,152.93c0-3.12,4.2-4.62,7.38-4.73v.21a3.47,3.47,0,0,0-2.48,3.4,3,3,0,0,0,2,3,3.86,3.86,0,0,1-3.22,1.4C216.27,156.22,214.45,155.2,214.45,152.93Zm5.14,18.58c0-1.92,1.54-3.18,3.75-3.18s3.74,1.26,3.74,3.18-1.54,3.22-3.74,3.22S219.59,173.47,219.59,171.51Zm.95-9.83c0-3.92,5.56-5.08,5.56-9.56a3.44,3.44,0,0,0-2.52-3.71v-.21c4.83.32,8.47,1.89,8.47,5.78,0,4.76-7.59,6.26-7.59,9.34a2.06,2.06,0,0,0,1.26,2l0,.21C222.18,165.56,220.54,163.81,220.54,161.68Z"/><rect class="cls-2" x="0.71" width="320" height="480"/></svg>