<svg id="Layer_1" data-name="Layer 1" xmlns="http://www.w3.org/2000/svg" viewBox="0 0 320 480"><defs><style>.cls-1{fill:#fb0010;}.cls-2{fill:#fff;}.cls-3{fill:none;}</style></defs><title>Artboard 1 copy 3</title><path class="cls-1" d="M30,210.62v51.55a18.37,18.37,0,0,0,9.92,16.32l77.25,40.08a23,23,0,0,0,21.17,0l77.26-40.08a18.38,18.38,0,0,0,9.91-16.32V210.62a8.58,8.58,0,0,0-8.58-8.58H38.58A8.58,8.58,0,0,0,30,210.62Z"/><path class="cls-2" d="M108.51,238.83l.35-.51c.26-.35.53-.37.93-.14a4,4,0,0,0,2.29.82c1,0,1.68-.52,1.68-1.28,0-2.15-5.26-1.71-5.26-5.22,0-2,1.65-3.28,3.8-3.28a5.24,5.24,0,0,1,2.91.86.63.63,0,0,1,.21.91l-.29.52c-.24.46-.57.4-.91.22a3.68,3.68,0,0,0-2-.62c-1,0-1.72.51-1.72,1.28,0,2.11,5.27,1.57,5.27,5.17,0,1.83-1.37,3.34-3.74,3.34a6,6,0,0,1-3.47-1.15A.58.58,0,0,1,108.51,238.83Z"/><path class="cls-2" d="M120.37,231.18h-3a.59.59,0,0,1-.67-.66v-.44a.6.6,0,0,1,.67-.67h8.11a.59.59,0,0,1,.65.67v.44a.58.58,0,0,1-.65.66h-3V240a.59.59,0,0,1-.66.67H121a.59.59,0,0,1-.65-.67Z"/><path class="cls-2" d="M128.78,230a.72.72,0,0,1,.75-.54h1a.7.7,0,0,1,.74.54l3.54,10c.16.46-.05.77-.54.77h-.74a.71.71,0,0,1-.74-.54l-.8-2.36h-4l-.78,2.34a.71.71,0,0,1-.75.56h-.73c-.49,0-.7-.31-.54-.77Zm2.72,6.19-1-3c-.19-.64-.45-1.75-.45-1.75h0s-.25,1.11-.44,1.75l-1,3Z"/><path class="cls-2" d="M136.25,230.08a.59.59,0,0,1,.65-.67H140a5.33,5.33,0,0,1,2.15.3A3.15,3.15,0,0,1,144,232.8a3.27,3.27,0,0,1-1.88,3.09v0a3.27,3.27,0,0,1,.37.59l1.86,3.4c.27.46.06.8-.46.8H143a.82.82,0,0,1-.78-.46l-2-3.76h-2V240a.59.59,0,0,1-.65.67h-.74a.59.59,0,0,1-.65-.67Zm3.88,4.63a1.67,1.67,0,0,0,1.79-1.8,1.51,1.51,0,0,0-.89-1.54,2.79,2.79,0,0,0-1.23-.19h-1.51v3.53Z"/><path class="cls-2" d="M109.26,243.88a.35.35,0,0,1,.38-.4H110a.36.36,0,0,1,.38.4v10.39a.36.36,0,0,1-.38.4h-.34a.35.35,0,0,1-.38-.4Z"/><path class="cls-2" d="M113,247.06a.36.36,0,0,1,.39-.4h.29a.36.36,0,0,1,.38.4V248a2.87,2.87,0,0,1-.06.58h0a3.54,3.54,0,0,1,3.23-2.09c2,0,2.69,1.13,2.69,3.11v4.69a.36.36,0,0,1-.4.4h-.3a.35.35,0,0,1-.38-.4v-4.41c0-1.25-.21-2.37-1.75-2.37a3.1,3.1,0,0,0-3,3.26v3.52a.35.35,0,0,1-.38.4h-.31a.36.36,0,0,1-.39-.4Z"/><path class="cls-2" d="M121.68,253.39l.12-.15c.15-.2.32-.21.55-.07a3.46,3.46,0,0,0,2.11.73c.89,0,1.63-.44,1.63-1.29,0-1.79-4.29-1.25-4.29-3.89,0-1.48,1.26-2.25,2.73-2.25a3.66,3.66,0,0,1,2.19.66.33.33,0,0,1,.11.52l-.11.18c-.13.22-.32.23-.54.11a3,3,0,0,0-1.72-.51c-.84,0-1.57.36-1.57,1.24,0,1.84,4.26,1.26,4.26,3.93,0,1.32-1.11,2.26-2.7,2.26a4.23,4.23,0,0,1-2.71-.92A.36.36,0,0,1,121.68,253.39Z"/><path class="cls-2" d="M128.76,247.06a.35.35,0,0,1,.38-.4h.3a.37.37,0,0,1,.4.4v4.41c0,1.26.19,2.37,1.73,2.37a3.11,3.11,0,0,0,3-3.34v-3.44a.36.36,0,0,1,.4-.4h.3a.35.35,0,0,1,.38.4v7.21a.35.35,0,0,1-.38.4H135a.36.36,0,0,1-.39-.4v-.92a3.42,3.42,0,0,1,.05-.58h0a3.46,3.46,0,0,1-3.15,2.09c-1.89,0-2.67-1-2.67-3.1Z"/><path class="cls-2" d="M138,247.06a.36.36,0,0,1,.4-.4h.28a.36.36,0,0,1,.38.4v1.08a3.53,3.53,0,0,1-.06.64h0a2.86,2.86,0,0,1,2.58-2.16c.29,0,.41.12.41.38v.28a.39.39,0,0,1-.44.4c-1.69,0-2.5,1.93-2.5,3.6v3a.35.35,0,0,1-.38.4h-.3a.36.36,0,0,1-.4-.4Z"/><path class="cls-2" d="M147.49,249.77H148v-.26c0-1.54-.84-2.07-2-2.07A3.79,3.79,0,0,0,144,248a.37.37,0,0,1-.54-.13l-.1-.16a.37.37,0,0,1,.12-.54,4.89,4.89,0,0,1,2.54-.7,2.73,2.73,0,0,1,3,3.07v4.73a.36.36,0,0,1-.39.4h-.25a.36.36,0,0,1-.4-.4v-.64a3.24,3.24,0,0,1,.05-.6h0a3,3,0,0,1-2.71,1.83,2.46,2.46,0,0,1-2.7-2.34C142.61,249.91,146,249.77,147.49,249.77Zm-2,4.18c1.55,0,2.45-1.59,2.45-3v-.38h-.44c-1.26,0-3.79,0-3.79,1.84A1.6,1.6,0,0,0,145.5,254Z"/><path class="cls-2" d="M151.31,247.06a.36.36,0,0,1,.39-.4H152a.36.36,0,0,1,.38.4V248a2.87,2.87,0,0,1-.06.58h0a3.54,3.54,0,0,1,3.23-2.09c2,0,2.69,1.13,2.69,3.11v4.69a.36.36,0,0,1-.4.4h-.3a.35.35,0,0,1-.38-.4v-4.41c0-1.25-.21-2.37-1.75-2.37a3.11,3.11,0,0,0-3,3.26v3.52a.35.35,0,0,1-.38.4h-.31a.36.36,0,0,1-.39-.4Z"/><path class="cls-2" d="M164.24,246.47a4.2,4.2,0,0,1,2.66.91.34.34,0,0,1,0,.54l-.11.18c-.14.22-.32.22-.54.08a3.3,3.3,0,0,0-2-.74,3.23,3.23,0,0,0,0,6.45,3.47,3.47,0,0,0,2.26-.85.33.33,0,0,1,.53.1l.11.16a.38.38,0,0,1-.1.54,4.46,4.46,0,0,1-2.85,1,4.2,4.2,0,1,1,0-8.39Z"/><path class="cls-2" d="M172.13,246.47c2.13,0,3.34,1.55,3.34,3.82a.41.41,0,0,1-.42.4h-5.76a3.05,3.05,0,0,0,3.11,3.2,3.49,3.49,0,0,0,2.1-.73c.22-.15.39-.12.52.09l.13.19a.38.38,0,0,1-.11.53,4.57,4.57,0,0,1-2.68.89,4,4,0,0,1-4.18-4.19A3.91,3.91,0,0,1,172.13,246.47Zm2.24,3.41a2.31,2.31,0,0,0-2.28-2.52,2.77,2.77,0,0,0-2.75,2.52Z"/><path class="cls-2" d="M114.16,258.21a6.27,6.27,0,0,1,3.69,1.13.62.62,0,0,1,.13.93l-.29.46c-.22.36-.52.4-.9.16a4.73,4.73,0,0,0-2.55-.8,3.65,3.65,0,0,0-3.79,3.88,3.8,3.8,0,0,0,3.81,4,4.71,4.71,0,0,0,2.76-1,.58.58,0,0,1,.93.11l.32.43a.62.62,0,0,1-.1.92,6.34,6.34,0,0,1-4,1.4,5.84,5.84,0,0,1,0-11.68Z"/><path class="cls-2" d="M124.17,264.69h.33v-.19a1.32,1.32,0,0,0-1.51-1.43,3.61,3.61,0,0,0-1.68.46.61.61,0,0,1-.9-.27l-.15-.3a.6.6,0,0,1,.25-.9,5.77,5.77,0,0,1,2.66-.66,3,3,0,0,1,3.35,3.23V269a.59.59,0,0,1-.66.67h-.54a.59.59,0,0,1-.66-.67v-.31a1.6,1.6,0,0,1,0-.35h0a2.94,2.94,0,0,1-2.54,1.52,2.49,2.49,0,0,1-2.69-2.43C119.43,265.09,122.36,264.69,124.17,264.69Zm-1.51,3.66a2.06,2.06,0,0,0,1.86-2.13v-.3h-.33c-1,0-2.76.15-2.76,1.36A1.11,1.11,0,0,0,122.66,268.35Z"/><path class="cls-2" d="M128.43,262.26a.6.6,0,0,1,.66-.67h.62a.59.59,0,0,1,.65.67v.49a2.7,2.7,0,0,1,0,.36h0A3.12,3.12,0,0,1,133,261.4a2.26,2.26,0,0,1,2.37,1.67h0a3.21,3.21,0,0,1,2.77-1.67c1.68,0,2.66,1,2.66,3.08V269a.6.6,0,0,1-.67.67h-.69a.59.59,0,0,1-.67-.67v-4.17c0-.92-.17-1.62-1.11-1.62-1.37,0-2.07,1.4-2.07,2.82v3a.58.58,0,0,1-.65.67h-.7a.6.6,0,0,1-.67-.67v-4.17c0-.87-.13-1.62-1.08-1.62-1.43,0-2.1,1.47-2.1,2.82v3a.58.58,0,0,1-.65.67h-.7a.59.59,0,0,1-.66-.67Z"/><path class="cls-2" d="M142.78,262.26a.61.61,0,0,1,.67-.67H144c.43,0,.65.24.65.55v.37a2.52,2.52,0,0,1,0,.32h0a2.9,2.9,0,0,1,2.61-1.43c2.19,0,3.61,1.73,3.61,4.24s-1.59,4.25-3.73,4.25a2.63,2.63,0,0,1-2.33-1.24h0a4.55,4.55,0,0,1,.05.7v2.87a.59.59,0,0,1-.67.66h-.68a.59.59,0,0,1-.67-.66Zm4,5.93c1.11,0,2-.91,2-2.51s-.82-2.55-2-2.55-2,.76-2,2.56A2.23,2.23,0,0,0,146.76,268.19Z"/><path class="cls-2" d="M156.07,261.4c2.3,0,3.59,1.64,3.59,3.86a.71.71,0,0,1-.7.69H154a2.32,2.32,0,0,0,2.43,2.22,3.33,3.33,0,0,0,1.75-.52c.4-.19.68-.14.89.22l.19.32a.6.6,0,0,1-.22.89,5.09,5.09,0,0,1-2.75.81,4.16,4.16,0,0,1-4.36-4.25A4,4,0,0,1,156.07,261.4Zm1.59,3.32a1.65,1.65,0,0,0-1.64-1.8,2,2,0,0,0-2,1.8Z"/><path class="cls-2" d="M161.18,262.26a.6.6,0,0,1,.66-.67h.62a.61.61,0,0,1,.67.67V263a3.33,3.33,0,0,1,0,.56h0a2.8,2.8,0,0,1,2.35-2.06c.45,0,.61.23.61.67v.62a.62.62,0,0,1-.69.67c-1.47,0-2.19,1.46-2.19,2.94V269a.58.58,0,0,1-.65.67h-.7a.59.59,0,0,1-.66-.67Z"/><path class="cls-2" d="M172.78,258.21a6.34,6.34,0,0,1,3.7,1.13.62.62,0,0,1,.12.93l-.28.46a.58.58,0,0,1-.91.16,4.67,4.67,0,0,0-2.55-.8,3.64,3.64,0,0,0-3.78,3.88,3.79,3.79,0,0,0,3.8,4,4.77,4.77,0,0,0,2.77-1c.35-.26.67-.26.92.11l.32.43a.61.61,0,0,1-.1.92,6.29,6.29,0,0,1-4,1.4,5.84,5.84,0,0,1,0-11.68Z"/><path class="cls-2" d="M182.79,264.69h.34v-.19a1.32,1.32,0,0,0-1.51-1.43,3.62,3.62,0,0,0-1.69.46c-.4.17-.7.11-.89-.27l-.16-.3a.6.6,0,0,1,.25-.9,5.81,5.81,0,0,1,2.66-.66,3,3,0,0,1,3.36,3.23V269a.59.59,0,0,1-.67.67h-.54a.58.58,0,0,1-.65-.67v-.31a1.6,1.6,0,0,1,0-.35h0a3,3,0,0,1-2.55,1.52,2.49,2.49,0,0,1-2.69-2.43C178.05,265.09,181,264.69,182.79,264.69Zm-1.51,3.66a2.06,2.06,0,0,0,1.86-2.13v-.3h-.33c-1,0-2.75.15-2.75,1.36A1.1,1.1,0,0,0,181.28,268.35Z"/><path class="cls-2" d="M187.06,262.26a.59.59,0,0,1,.65-.67h.62a.61.61,0,0,1,.67.67V263a3.33,3.33,0,0,1-.05.56h0a2.8,2.8,0,0,1,2.36-2.06c.44,0,.6.23.6.67v.62a.61.61,0,0,1-.68.67c-1.48,0-2.2,1.46-2.2,2.94V269a.58.58,0,0,1-.65.67h-.7a.58.58,0,0,1-.65-.67Z"/><path class="cls-2" d="M196.54,261.4c2.31,0,3.6,1.64,3.6,3.86a.71.71,0,0,1-.7.69h-4.95a2.33,2.33,0,0,0,2.43,2.22,3.33,3.33,0,0,0,1.75-.52c.4-.19.69-.14.9.22l.19.32a.61.61,0,0,1-.23.89,5.06,5.06,0,0,1-2.75.81,4.16,4.16,0,0,1-4.36-4.25A4,4,0,0,1,196.54,261.4Zm1.59,3.32a1.65,1.65,0,0,0-1.64-1.8,2,2,0,0,0-2,1.8Z"/><path class="cls-2" d="M70.89,264.63a1,1,0,0,1-.51-.13,1.12,1.12,0,0,1-.56-1.34L81.6,226.91A2.48,2.48,0,0,1,84,225.17h0a2.48,2.48,0,0,1,2.39,1.74l2.38,7.18a.85.85,0,0,1-.54,1.08.86.86,0,0,1-1.08-.54l-2.38-7.19a.79.79,0,0,0-.77-.57h0a.79.79,0,0,0-.77.56L72.57,260.21l15-20.53a4.66,4.66,0,0,1,3.76-1.91h10a2.52,2.52,0,0,1,1.48,4.55L93.68,249l-.1.09,3.54,10.86a2.52,2.52,0,0,1-3.87,2.81L85.34,257a2.53,2.53,0,0,1,0-4.07l6.63-4.8a.81.81,0,0,1,.1-.09l9.75-7.08a.81.81,0,0,0-.48-1.47h-10A3,3,0,0,0,89,240.69L71.8,264.17A1.15,1.15,0,0,1,70.89,264.63ZM92.13,250.1l-5.78,4.19a.8.8,0,0,0-.34.65.83.83,0,0,0,.34.66l7.9,5.74a.79.79,0,0,0,1,0,.8.8,0,0,0,.29-.91Z"/><path class="cls-2" d="M71.5,246.61a.82.82,0,0,1-.49-.16l-5.83-4.12a2.52,2.52,0,0,1,1.47-4.56H73.8a.85.85,0,1,1,0,1.7H66.65a.81.81,0,0,0-.48,1.47L72,245.06a.86.86,0,0,1,.2,1.19A.87.87,0,0,1,71.5,246.61Z"/><path class="cls-2" d="M79.44,276.66a2.81,2.81,0,0,1-1.37-.36l-14.89-8.45a.87.87,0,0,1-.44-.75V248.93a.86.86,0,1,1,1.71,0v17.68l14.46,8.2a1.06,1.06,0,0,0,1.1,0l10.56-6.61a.85.85,0,1,1,.91,1.44l-10.57,6.62A2.78,2.78,0,0,1,79.44,276.66Z"/><rect class="cls-3" x="0.62" width="320" height="480"/></svg>