<?xml version="1.0" encoding="utf-8"?>
<!-- Generator: Adobe Illustrator 24.0.3, SVG Export Plug-In . SVG Version: 6.00 Build 0)  -->
<svg version="1.1" id="Layer_1" xmlns="http://www.w3.org/2000/svg" xmlns:xlink="http://www.w3.org/1999/xlink" x="0px" y="0px"
	 viewBox="0 0 300 250" style="enable-background:new 0 0 300 250;" xml:space="preserve">
<style type="text/css">
	.st0{fill:none;}
	.st1{enable-background:new    ;}
	.st2{fill:#263845;}
</style>
<title>Artboard 1 copy 3</title>
<rect x="0.2" y="0" class="st0" width="300" height="250"/>
<g class="st1">
	<path class="st2" d="M21.6,35.3c0-0.9-0.5-1.6-2.4-1.6v-0.2h10.2v0.2c-1.9,0-2.4,0.8-2.4,1.6v14c0,3.1,0.9,5.9,3,6.1v0.2
		c-6.7,0-8.5-3.2-8.5-6.4V35.3z M38.4,49.1c0,3.2-1.9,6.4-6.7,6.4v-0.2c4.1-0.1,6.1-3,6.1-6.1V37.6c0-2-1.1-4-3.2-4v-0.2h7v0.2
		c-2.1,0-3.2,2-3.2,4V49.1z"/>
</g>
<g class="st1">
	<path class="st2" d="M42.2,55c1.9,0,2.4-0.8,2.4-1.6V42c0-1.2-0.5-1.7-2.4-1.7v-0.2c3,0,5.4-0.3,7.6-1.2v14.5
		c0,0.8,0.5,1.6,2.4,1.6v0.2H42.2V55z M53.5,55c1.9,0,2.4-0.8,2.4-1.6v-10c0-1.8-0.9-2.7-2.5-2.7c-0.9,0-1.7,0.3-2.4,1v-0.2
		c0.9-1.3,2.9-2.6,5.3-2.6c2.9,0,4.9,1.3,4.9,4.5v10c0,0.8,0.5,1.6,2.4,1.6v0.2h-10V55z"/>
	<path class="st2" d="M71.8,51.2c0,3-2.1,4.4-5.3,4.4V34.8c0-1.2-0.6-1.7-2.4-1.7v-0.2c3,0,5-0.3,7.7-1.2V51.2z M84,47.1
		c0,6.7-3.6,8.5-6.6,8.5c-1.8,0-3.8-1.2-4.6-2.6v-0.2c0.8,0.6,1.6,1.1,2.7,1.1c1.5,0,3.1-1.1,3.1-6.8c0-5.8-1.5-6.5-3.1-6.5
		c-1,0-1.9,0.4-2.7,1.2v-0.3c0.8-1.3,2.8-2.6,4.6-2.6C80.5,38.9,84,40.7,84,47.1z"/>
	<path class="st2" d="M86.8,47.1c0-5.4,4.1-8.2,7.8-8.3v0.2c-1.9,0.2-2.4,1.8-2.4,7.9c0,4.6,2,7.1,4.9,7.1c1.8,0,3.2-0.5,4.7-1.7
		v0.2c-1.7,2.1-4.7,2.9-6.8,2.9C91,55.5,86.8,52.5,86.8,47.1z M94,45.8c2.8,0,4-0.9,4-3.6c0-1.5-0.6-2.9-2.1-3.1v-0.2
		c4.2,0,6.3,3,6.3,5.4c0,0.5-0.1,1.2-0.2,1.7h-8V45.8z"/>
	<path class="st2" d="M104.5,51.4c0-2.8,2.6-4.4,6.1-4.4h3.5v0.2h-1c-2.3,0-3.4,1.5-3.4,3.5c0,1.8,0.5,3.1,2,3.1
		c0.9,0,1.6-0.5,2.3-1.1v0.2c-1.1,1.2-2.8,2.6-5.1,2.6C106.3,55.5,104.5,54,104.5,51.4z M105.8,42.4c0-1.6,1.5-3.3,5.8-3.5v0.2
		c-1.3,0.2-2,1.2-2,2.3c0,1.2,0.8,1.9,2.1,2c-0.5,0.9-1.8,1.5-3.1,1.5C106.8,44.9,105.8,43.7,105.8,42.4z M115.1,51.9v-9.8
		c0-1.6-0.6-2.8-2.2-3v-0.2c5.3,0.2,7.4,2.2,7.4,6.4v7.8c0,0.9,0.3,1.3,0.9,1.3c0.5,0,1-0.5,1.5-1.4h0.2c-0.5,1.8-2.2,2.6-4.2,2.6
		C116.2,55.5,115.1,54.6,115.1,51.9z"/>
	<path class="st2" d="M136.4,52.7v0.2c-1,1.5-3.1,2.6-5.5,2.6c-2.9,0-4.9-1.3-4.9-4.5V40.5h-1.7l0.4-0.5h1.3v-3.5
		c2,0,3.9-0.6,5.2-1.8V40h4.3l-0.4,0.5h-4v10.6c0,1.6,0.6,3.3,2.1,3.3C134.2,54.4,135.3,53.8,136.4,52.7z"/>
	<path class="st2" d="M137.4,51.4c0-2.8,2.6-4.4,6.1-4.4h3.5v0.2h-1c-2.3,0-3.4,1.5-3.4,3.5c0,1.8,0.5,3.1,2,3.1
		c0.9,0,1.6-0.5,2.3-1.1v0.2c-1.1,1.2-2.8,2.6-5.1,2.6C139.2,55.5,137.4,54,137.4,51.4z M138.7,42.4c0-1.6,1.5-3.3,5.8-3.5v0.2
		c-1.3,0.2-2,1.2-2,2.3c0,1.2,0.8,1.9,2.1,2c-0.5,0.9-1.8,1.5-3.1,1.5C139.7,44.9,138.7,43.7,138.7,42.4z M147.9,51.9v-9.8
		c0-1.6-0.6-2.8-2.2-3v-0.2c5.3,0.2,7.4,2.2,7.4,6.4v7.8c0,0.9,0.3,1.3,0.9,1.3c0.5,0,1-0.5,1.5-1.4h0.2c-0.5,1.8-2.2,2.6-4.2,2.6
		C149.1,55.5,147.9,54.6,147.9,51.9z"/>
	<path class="st2" d="M163.9,51.2c0,3-2.1,4.4-5.3,4.4V34.8c0-1.2-0.6-1.7-2.4-1.7v-0.2c3,0,5-0.3,7.7-1.2V51.2z M176.1,47.1
		c0,6.7-3.6,8.5-6.6,8.5c-1.8,0-3.8-1.2-4.6-2.6v-0.2c0.8,0.6,1.6,1.1,2.7,1.1c1.5,0,3.1-1.1,3.1-6.8c0-5.8-1.5-6.5-3.1-6.5
		c-1,0-1.9,0.4-2.7,1.2v-0.3c0.8-1.3,2.8-2.6,4.6-2.6C172.6,38.9,176.1,40.7,176.1,47.1z"/>
	<path class="st2" d="M178.2,32.9c3,0,5.4-0.3,7.6-1.2v21.7c0,0.8,0.5,1.6,2.4,1.6v0.2h-10.1V55c1.9,0,2.4-0.8,2.4-1.6V34.8
		c0-1.2-0.5-1.7-2.4-1.7V32.9z"/>
	<path class="st2" d="M190.2,47.1c0-5.4,4.1-8.2,7.8-8.3v0.2c-1.9,0.2-2.4,1.8-2.4,7.9c0,4.6,2,7.1,4.9,7.1c1.8,0,3.2-0.5,4.7-1.7
		v0.2c-1.7,2.1-4.7,2.9-6.8,2.9C194.3,55.5,190.2,52.5,190.2,47.1z M197.4,45.8c2.8,0,4-0.9,4-3.6c0-1.5-0.6-2.9-2.1-3.1v-0.2
		c4.2,0,6.3,3,6.3,5.4c0,0.5-0.1,1.2-0.2,1.7h-8V45.8z"/>
</g>
<g class="st1">
	<path class="st2" d="M26.8,85.4c0,0.8,0.5,1.6,2.4,1.6v0.2H19.1V87c1.9,0,2.4-0.8,2.4-1.6V74c0-1.2-0.5-1.7-2.4-1.7v-0.2
		c3,0,5.4-0.3,7.6-1.2V85.4z M37.4,75.4v10c0,0.8,0.4,1.6,2.4,1.6v0.2h-10V87c1.9,0,2.4-0.8,2.4-1.6v-10c0-1.8-0.7-2.7-2.2-2.7
		c-0.9,0-1.7,0.4-2.1,1v-0.2c0.7-1.3,2.3-2.6,4.7-2.6C35.5,70.9,37.4,72.2,37.4,75.4z M48,75.4v10c0,0.8,0.5,1.6,2.4,1.6v0.2H40.3
		V87c1.9,0,2.4-0.8,2.4-1.6v-10c0-1.8-0.7-2.7-2.2-2.7c-0.9,0-1.7,0.4-2.1,1v-0.2c0.7-1.3,2.3-2.6,4.7-2.6
		C46.1,70.9,48,72.2,48,75.4z"/>
	<path class="st2" d="M60.1,71.1c-1.9,0.2-2.5,1.8-2.5,8.1c0,6,0.6,8,2.5,8.2v0.2c-3.7,0-8-3-8-8.4s4.2-8.2,8-8.3V71.1z M69.3,79.1
		c0,5.3-4.3,8.4-7.9,8.4v-0.2c1.9-0.2,2.5-2.2,2.5-8.2c0-6.3-0.6-7.9-2.5-8.1v-0.2C65.1,70.9,69.3,73.7,69.3,79.1z"/>
</g>
<g class="st1">
	<path class="st2" d="M83.9,84.7v0.2c-1,1.5-3.1,2.6-5.5,2.6c-2.9,0-4.9-1.3-4.9-4.5V72.5h-1.7l0.4-0.5h1.3v-3.5
		c2,0,3.9-0.6,5.2-1.8V72H83l-0.4,0.5h-4v10.6c0,1.6,0.6,3.3,2.1,3.3C81.7,86.4,82.8,85.8,83.9,84.7z"/>
</g>
<g class="st1">
	<path class="st2" d="M93,71.1c-1.9,0.2-2.5,1.8-2.5,8.1c0,6,0.6,8,2.5,8.2v0.2c-3.7,0-8-3-8-8.4s4.2-8.2,8-8.3V71.1z M102.2,79.1
		c0,5.3-4.3,8.4-7.9,8.4v-0.2c1.9-0.2,2.5-2.2,2.5-8.2c0-6.3-0.6-7.9-2.5-8.1v-0.2C98,70.9,102.2,73.7,102.2,79.1z"/>
</g>
<g class="st1">
	<path class="st2" d="M112,85.4c0,0.8,0.5,1.6,2.4,1.6v0.2h-10.1V87c1.9,0,2.4-0.8,2.4-1.6V74c0-1.2-0.5-1.7-2.4-1.7v-0.2
		c3,0,5.4-0.3,7.6-1.2V85.4z M120.6,74.3c0,2.2-1.6,3.6-3.3,3.6c-0.8,0-1.4-0.2-1.8-0.7c0.6-0.3,1.2-1,1.2-2.2
		c0-0.9-0.7-1.7-1.8-1.7c-0.8,0-1.5,0.5-1.9,1.2v-0.3c0.6-2,2.2-3.5,4.2-3.5C119.4,70.9,120.6,72.4,120.6,74.3z"/>
</g>
<g class="st1">
	<path class="st2" d="M130.6,71.1c-1.9,0.2-2.7,1.8-2.7,7.9c0,4.6,2.3,7.1,5.2,7.1c1.8,0,3.2-0.5,4.7-1.7v0.2
		c-1.7,2.1-4.7,2.9-6.8,2.9c-4.1,0-8.5-3-8.5-8.4s4.4-8.2,8.2-8.3V71.1z M137.7,74.5c0,1.7-1.2,3.1-3.2,3.1c-1.6,0-2.6-1-2.8-2
		c0.9-0.4,1.5-1.5,1.5-2.3c0-0.7-0.2-1.9-1.4-2.1v-0.2C136,70.9,137.7,72.7,137.7,74.5z"/>
</g>
<g class="st1">
	<path class="st2" d="M140.3,72.5c-0.3-0.7-0.8-1.1-1.8-1.1v-0.2h9v0.2c-1.1,0-1.6,0.8-1,1.9l4.2,8.7l-2.8,5.2h-0.2L140.3,72.5z
		 M138.9,92.4c0-1.4,1.1-2.5,2.8-3c-0.1,0.3-0.1,0.5-0.1,0.8c0,1.2,0.6,2.1,1.9,2.1c1.1,0,2-1.2,3.2-3.2h0.2c-1.8,3.3-3,6.1-5.2,6.1
		C139.9,95.2,138.9,94,138.9,92.4z M152,78.9c0.5-1,0.9-2.4,0.9-4.1c0-1.8-1-3.4-3.3-3.4v-0.2h8v0.2c-1.1,0-1.5,0.4-2.1,1.5
		l-3.3,6.3L152,78.9z"/>
</g>
<g class="st1">
	<path class="st2" d="M166,71.1c-1.9,0.2-2.7,1.8-2.7,7.9c0,4.6,2.3,7.1,5.2,7.1c1.8,0,3.2-0.5,4.7-1.7v0.2
		c-1.7,2.1-4.7,2.9-6.8,2.9c-4.1,0-8.5-3-8.5-8.4s4.4-8.2,8.2-8.3V71.1z M173.1,74.5c0,1.7-1.2,3.1-3.2,3.1c-1.6,0-2.6-1-2.8-2
		c0.9-0.4,1.5-1.5,1.5-2.3c0-0.7-0.2-1.9-1.4-2.1v-0.2C171.5,70.9,173.1,72.7,173.1,74.5z"/>
	<path class="st2" d="M174.8,64.9c3,0,5.4-0.3,7.6-1.2v21.7c0,0.8,0.5,1.6,2.4,1.6v0.2h-10.1V87c1.9,0,2.4-0.8,2.4-1.6V66.8
		c0-1.2-0.5-1.7-2.4-1.7V64.9z"/>
	<path class="st2" d="M186.7,79.1c0-5.4,4.1-8.2,7.8-8.3v0.2c-1.9,0.2-2.4,1.8-2.4,7.9c0,4.6,2,7.1,4.9,7.1c1.8,0,3.2-0.5,4.7-1.7
		v0.2c-1.7,2.1-4.7,2.9-6.8,2.9C190.9,87.5,186.7,84.5,186.7,79.1z M193.9,77.8c2.8,0,4-0.9,4-3.6c0-1.5-0.6-2.9-2.1-3.1v-0.2
		c4.2,0,6.3,3,6.3,5.4c0,0.5-0.1,1.2-0.2,1.7h-8V77.8z"/>
</g>
<g class="st1">
	<path class="st2" d="M19.2,104.1c3,0,5.4-0.3,7.6-1.2v14.5c0,0.8,0.5,1.6,2.4,1.6v0.2H19.1V119c1.9,0,2.4-0.8,2.4-1.6V106
		c0-1.2-0.5-1.7-2.4-1.7V104.1z M20.8,98.1c0-1.7,1.3-2.8,3.3-2.8s3.3,1.1,3.3,2.8c0,1.7-1.3,2.8-3.3,2.8S20.8,99.8,20.8,98.1z"/>
	<path class="st2" d="M30.6,119c1.9,0,2.4-0.8,2.4-1.6V106c0-1.2-0.5-1.7-2.4-1.7v-0.2c3,0,5.4-0.3,7.6-1.2v14.5
		c0,0.8,0.5,1.6,2.4,1.6v0.2H30.6V119z M41.8,119c1.9,0,2.4-0.8,2.4-1.6v-10c0-1.8-0.9-2.7-2.5-2.7c-0.9,0-1.7,0.3-2.4,1v-0.2
		c0.9-1.3,2.9-2.6,5.3-2.6c2.9,0,4.9,1.3,4.9,4.5v10c0,0.8,0.5,1.6,2.4,1.6v0.2h-10V119z"/>
	<path class="st2" d="M59.2,115.4c-1.1,0-1.8,0.6-1.8,1.6c0,0.9,0.6,2.1,2.8,2.3v0.2c-4.3-0.2-6.6-1.3-6.6-3.2
		c0-1.5,1.3-2.4,2.7-2.4C57.6,114,58.7,114.6,59.2,115.4z M60.2,103.1c-1.2,0.2-2.3,0.8-2.3,2.1c0.1,3.7,10.5,4.3,10.5,9.4
		c0,3.1-2.6,4.7-6.8,4.9v-0.2c1.3-0.2,2.8-0.7,2.8-2.4c0-3.3-10.5-4.5-10.5-9.4c0-2.8,2.7-4.5,6.2-4.7V103.1z M67.8,106.2
		c0,1-0.8,2-2.4,2c-1.3,0-2.3-0.6-2.7-1.5c1-0.1,1.5-0.7,1.4-1.5c0-1-1.2-1.9-2.5-2v-0.2C65.3,103.1,67.8,104.4,67.8,106.2z"/>
	<path class="st2" d="M77.8,115c0,1.8,0.6,2.7,2.2,2.7c0.8,0,1.5-0.3,2.2-1v0.2c-0.7,1.4-2.4,2.6-5,2.6c-2.9,0-4.7-1.3-4.7-4.5v-9
		c0-1.2-0.5-1.7-2.4-1.7v-0.2c3,0,5.4-0.3,7.6-1.2V115z M88.5,117.1c0,0.9,0.3,1.3,0.9,1.3c0.5,0,1-0.5,1.5-1.4h0.2
		c-0.5,1.8-2.2,2.6-4.4,2.6c-2.2,0-3.5-1.3-3.5-3.1V106c0-1.2-0.5-1.7-2.3-1.7v-0.2c2.9,0,4.9-0.3,7.6-1.2V117.1z"/>
</g>
<g class="st1">
	<path class="st2" d="M100,117.4c0,0.8,0.5,1.6,2.4,1.6v0.2H92.4V119c1.9,0,2.4-0.8,2.4-1.6V106c0-1.2-0.5-1.7-2.4-1.7v-0.2
		c3,0,5.4-0.3,7.6-1.2V117.4z M108.7,106.3c0,2.2-1.6,3.6-3.3,3.6c-0.8,0-1.4-0.2-1.8-0.7c0.6-0.3,1.2-1,1.2-2.2
		c0-0.9-0.7-1.7-1.8-1.7c-0.8,0-1.5,0.5-1.9,1.2v-0.3c0.6-2,2.2-3.5,4.2-3.5C107.5,102.9,108.7,104.4,108.7,106.3z"/>
</g>
<g class="st1">
	<path class="st2" d="M110.1,115.4c0-2.8,2.6-4.4,6.1-4.4h3.5v0.2h-1c-2.3,0-3.4,1.5-3.4,3.5c0,1.8,0.5,3.1,2,3.1
		c0.9,0,1.6-0.5,2.3-1.1v0.2c-1.1,1.2-2.8,2.6-5.1,2.6C111.9,119.5,110,118,110.1,115.4z M111.3,106.4c0-1.6,1.5-3.3,5.8-3.5v0.2
		c-1.3,0.2-2,1.2-2,2.3c0,1.2,0.8,1.9,2.1,2c-0.5,0.9-1.8,1.5-3.1,1.5C112.4,108.9,111.3,107.7,111.3,106.4z M120.6,115.9v-9.8
		c0-1.6-0.6-2.8-2.2-3v-0.2c5.3,0.2,7.4,2.2,7.4,6.4v7.8c0,0.9,0.3,1.3,0.9,1.3c0.5,0,1-0.5,1.5-1.4h0.2c-0.5,1.8-2.2,2.6-4.2,2.6
		C121.8,119.5,120.6,118.6,120.6,115.9z"/>
	<path class="st2" d="M129.5,119c1.9,0,2.4-0.8,2.4-1.6V106c0-1.2-0.5-1.7-2.4-1.7v-0.2c3,0,5.4-0.3,7.6-1.2v14.5
		c0,0.8,0.5,1.6,2.4,1.6v0.2h-10.1V119z M140.8,119c1.9,0,2.4-0.8,2.4-1.6v-10c0-1.8-0.9-2.7-2.5-2.7c-0.9,0-1.7,0.3-2.4,1v-0.2
		c0.9-1.3,2.9-2.6,5.3-2.6c2.9,0,4.9,1.3,4.9,4.5v10c0,0.8,0.5,1.6,2.4,1.6v0.2h-10V119z"/>
	<path class="st2" d="M160.7,103.1c-1.9,0.2-2.7,1.8-2.7,7.9c0,4.6,2.3,7.1,5.2,7.1c1.8,0,3.2-0.5,4.7-1.7v0.2
		c-1.7,2.1-4.7,2.9-6.8,2.9c-4.1,0-8.5-3-8.5-8.4s4.4-8.2,8.2-8.3V103.1z M167.8,106.5c0,1.7-1.2,3.1-3.2,3.1c-1.6,0-2.6-1-2.8-2
		c0.9-0.4,1.5-1.5,1.5-2.3c0-0.7-0.2-1.9-1.4-2.1v-0.2C166.2,102.9,167.8,104.7,167.8,106.5z"/>
	<path class="st2" d="M170.2,111.1c0-5.4,4.1-8.2,7.8-8.3v0.2c-1.9,0.2-2.4,1.8-2.4,7.9c0,4.6,2,7.1,4.9,7.1c1.8,0,3.2-0.5,4.7-1.7
		v0.2c-1.7,2.1-4.7,2.9-6.8,2.9C174.4,119.5,170.2,116.5,170.2,111.1z M177.4,109.8c2.8,0,4-0.9,4-3.6c0-1.5-0.6-2.9-2.1-3.1v-0.2
		c4.2,0,6.3,3,6.3,5.4c0,0.5-0.1,1.2-0.2,1.7h-8V109.8z"/>
</g>
</svg>
