<svg id="Layer_1" data-name="Layer 1" xmlns="http://www.w3.org/2000/svg" xmlns:xlink="http://www.w3.org/1999/xlink" viewBox="0 0 300 250"><defs><style>.cls-1{fill:none;}.cls-2{clip-path:url(#clip-path);}.cls-3{fill:#fff;}</style><clipPath id="clip-path"><rect class="cls-1" width="300" height="250"/></clipPath></defs><title>Artboard 1 copy 4</title><g class="cls-2"><path class="cls-3" d="M24,33.34a17.19,17.19,0,0,0,6.69-1.09v19c0,.7.42,1.42,2.1,1.42v.17H24v-.17c1.68,0,2.1-.72,2.1-1.42V35c0-1-.47-1.49-2.07-1.49Z"/><path class="cls-3" d="M34,39.62a17,17,0,0,0,6.7-1.1V51.24c0,.7.42,1.42,2.1,1.42v.17H34v-.17c1.68,0,2.1-.72,2.1-1.42v-10c0-1-.48-1.49-2.08-1.49Zm1.43-5.27c0-1.45,1.18-2.43,2.86-2.43s2.85,1,2.85,2.43S40,36.82,38.29,36.82,35.43,35.84,35.43,34.35Z"/><path class="cls-3" d="M44.61,40a1.51,1.51,0,0,0-1.54-1v-.17h7.85V39c-1,0-1.38.67-.9,1.65l3.67,7.65-2.41,4.53h-.17Zm10.25,5.57a7.6,7.6,0,0,0,.79-3.61A2.71,2.71,0,0,0,52.79,39v-.17h7V39c-.92,0-1.29.36-1.82,1.32L55,45.8Z"/><path class="cls-3" d="M60,45.78a6.93,6.93,0,0,1,6.86-7.23v.17c-1.66.2-2.1,1.6-2.1,6.94,0,4,1.79,6.25,4.28,6.25a6.09,6.09,0,0,0,4.09-1.49v.17a7.86,7.86,0,0,1-5.94,2.52A7.09,7.09,0,0,1,60,45.78Zm6.3-1.18c2.46,0,3.5-.78,3.5-3.14,0-1.34-.56-2.57-1.82-2.74v-.17c3.69,0,5.49,2.63,5.49,4.76a7.77,7.77,0,0,1-.15,1.46h-7Z"/><path class="cls-3" d="M80.62,49.5a1.44,1.44,0,0,0-1.57,1.4c0,.81.56,1.85,2.5,2v.17C77.82,53,75.78,52,75.78,50.34a2.18,2.18,0,0,1,2.38-2.07A2.84,2.84,0,0,1,80.62,49.5Zm.93-10.78c-1,.2-2,.73-2,1.87.08,3.25,9.16,3.79,9.16,8.24,0,2.71-2.3,4.14-5.91,4.28v-.17c1.17-.19,2.49-.61,2.49-2.07,0-2.91-9.18-4-9.18-8.23,0-2.46,2.32-4,5.46-4.09Zm6.6,2.72a1.83,1.83,0,0,1-2.07,1.73,2.41,2.41,0,0,1-2.38-1.34A1.25,1.25,0,0,0,85,40.51c0-.84-1.06-1.65-2.18-1.79v-.17C85.94,38.72,88.15,39.87,88.15,41.44Z"/><path class="cls-3" d="M97.87,49.53c0-2.44,2.24-3.81,5.38-3.81h3v.17h-.84a2.77,2.77,0,0,0-3,3c0,1.54.45,2.72,1.77,2.72a3.08,3.08,0,0,0,2-1v.16a5.93,5.93,0,0,1-4.45,2.27C99.44,53.11,97.84,51.77,97.87,49.53ZM99,41.6c0-1.42,1.29-2.88,5.1-3.05v.17a2,2,0,0,0-1.8,2c0,1,.7,1.63,1.82,1.71a3.12,3.12,0,0,1-2.68,1.35A2.25,2.25,0,0,1,99,41.6ZM107.11,50V41.38c0-1.37-.53-2.46-1.9-2.66v-.17c4.64.17,6.49,1.93,6.49,5.6V51c0,.81.28,1.14.79,1.14s.89-.42,1.34-1.26H114c-.45,1.54-2,2.27-3.64,2.27C108.12,53.11,107.11,52.33,107.11,50Z"/><path class="cls-3" d="M125.73,50.68v.16a5.86,5.86,0,0,1-4.79,2.27c-2.52,0-4.31-1.15-4.31-4V40h-1.46l.31-.42h1.15v-3A7.09,7.09,0,0,0,121.22,35v4.59H125l-.31.42h-3.47v9.27c0,1.4.53,2.85,1.85,2.85A4.13,4.13,0,0,0,125.73,50.68Z"/><path class="cls-3" d="M141.16,52.94v.17a10.69,10.69,0,0,1-5.43-1.37l-.93,1.37h-.22V46.28h.22A9.38,9.38,0,0,0,141.16,52.94Zm8.23-5.57c0,3.61-2.69,5.57-7,5.74v-.17c1.54-.28,3-1.17,3-2.85,0-4.9-10.69-5.35-10.69-11,0-3.35,2.71-5.29,6.44-5.54v.17a2.65,2.65,0,0,0-2.47,2.58C138.69,41.16,149.39,41.69,149.39,47.37Zm-7-13.69v-.17a9,9,0,0,1,5,1.49l1-1.49h.22v6.25h-.22A8.9,8.9,0,0,0,142.36,33.68Z"/><path class="cls-3" d="M162.16,50.68v.16a5.86,5.86,0,0,1-4.79,2.27c-2.52,0-4.31-1.15-4.31-4V40H151.6l.31-.42h1.15v-3A7.09,7.09,0,0,0,157.65,35v4.59h3.78l-.31.42h-3.47v9.27c0,1.4.53,2.85,1.85,2.85A4.15,4.15,0,0,0,162.16,50.68Z"/><path class="cls-3" d="M163.05,49.53c0-2.44,2.24-3.81,5.38-3.81h3v.17h-.84a2.77,2.77,0,0,0-3,3c0,1.54.45,2.72,1.77,2.72a3.06,3.06,0,0,0,2-1v.16A5.93,5.93,0,0,1,167,53.11C164.62,53.11,163,51.77,163.05,49.53Zm1.12-7.93c0-1.42,1.29-2.88,5.1-3.05v.17a2,2,0,0,0-1.79,2c0,1,.7,1.63,1.82,1.71a3.14,3.14,0,0,1-2.69,1.35A2.25,2.25,0,0,1,164.17,41.6ZM172.29,50V41.38c0-1.37-.53-2.46-1.9-2.66v-.17c4.65.17,6.49,1.93,6.49,5.6V51c0,.81.29,1.14.79,1.14s.89-.42,1.34-1.26h.17c-.45,1.54-2,2.27-3.64,2.27C173.3,53.11,172.29,52.33,172.29,50Z"/><path class="cls-3" d="M186.77,51.24c0,.7.42,1.42,2.1,1.42v.17h-8.82v-.17c1.68,0,2.1-.72,2.1-1.42V41.3c0-1-.48-1.49-2.07-1.49v-.17a17.19,17.19,0,0,0,6.69-1.09Zm7.56-9.66a3,3,0,0,1-2.88,3.19,1.9,1.9,0,0,1-1.6-.62,2,2,0,0,0,1.09-1.9,1.49,1.49,0,0,0-1.57-1.51,1.93,1.93,0,0,0-1.68,1.06v-.22a3.88,3.88,0,0,1,3.64-3A2.85,2.85,0,0,1,194.33,41.58Z"/><path class="cls-3" d="M24.65,82.66c1.68,0,2.1-.67,2.1-1.42V65.39c0-.76-.42-1.43-2.1-1.43v-.17h9V64c-1.68,0-2.1.67-2.1,1.43V81.24c0,.75.42,1.42,2.1,1.42v.17h-9Z"/><path class="cls-3" d="M35.49,82.66c1.68,0,2.1-.72,2.1-1.42V71.3c0-1-.48-1.49-2.07-1.49v-.17a17.19,17.19,0,0,0,6.69-1.09V81.24c0,.7.42,1.42,2.1,1.42v.17H35.49Zm9.85,0c1.66,0,2.08-.72,2.08-1.42V72.5a2.08,2.08,0,0,0-2.22-2.38,3,3,0,0,0-2.13.87v-.17a5.72,5.72,0,0,1,4.65-2.27c2.52,0,4.31,1.18,4.31,4v8.74c0,.7.43,1.42,2.1,1.42v.17H45.34Z"/><path class="cls-3" d="M60.52,79.5A1.43,1.43,0,0,0,59,80.9c0,.81.56,1.85,2.49,2v.17C57.72,83,55.67,82,55.67,80.34a2.18,2.18,0,0,1,2.38-2.07A2.86,2.86,0,0,1,60.52,79.5Zm.92-10.78c-1,.2-2,.73-2,1.87.08,3.25,9.15,3.79,9.15,8.24,0,2.71-2.29,4.14-5.91,4.28v-.17c1.18-.19,2.5-.61,2.5-2.07,0-2.91-9.19-4-9.19-8.23,0-2.46,2.33-4,5.46-4.09Zm6.61,2.72A1.83,1.83,0,0,1,66,73.17a2.39,2.39,0,0,1-2.38-1.34,1.25,1.25,0,0,0,1.26-1.32c0-.84-1.07-1.65-2.19-1.79v-.17C65.84,68.72,68.05,69.87,68.05,71.44Z"/><path class="cls-3" d="M76.84,79.16c0,1.57.54,2.38,1.93,2.38a2.5,2.5,0,0,0,1.94-.86v.16a4.67,4.67,0,0,1-4.34,2.27c-2.52,0-4.15-1.17-4.15-4V71.3c0-1-.47-1.49-2.07-1.49v-.17a17.19,17.19,0,0,0,6.69-1.09ZM86.17,81c0,.81.25,1.14.75,1.14s.9-.42,1.35-1.26h.16c-.44,1.54-2,2.27-3.8,2.27S81.55,82,81.55,80.37V71.3c0-1-.48-1.49-2-1.49v-.17a18.28,18.28,0,0,0,6.61-1.09Z"/><path class="cls-3" d="M96.27,81.24c0,.7.42,1.42,2.11,1.42v.17H89.55v-.17c1.68,0,2.1-.72,2.1-1.42V71.3c0-1-.47-1.49-2.07-1.49v-.17a17.12,17.12,0,0,0,6.69-1.09Zm7.56-9.66A3,3,0,0,1,101,74.77a1.92,1.92,0,0,1-1.6-.62,2,2,0,0,0,1.1-1.9,1.49,1.49,0,0,0-1.57-1.51A1.92,1.92,0,0,0,97.2,71.8v-.22a3.87,3.87,0,0,1,3.64-3A2.84,2.84,0,0,1,103.83,71.58Z"/><path class="cls-3" d="M105,79.53c0-2.44,2.24-3.81,5.37-3.81h3v.17h-.84a2.77,2.77,0,0,0-3,3c0,1.54.45,2.72,1.76,2.72a3.08,3.08,0,0,0,2-1v.16A6,6,0,0,1,109,83.11C106.61,83.11,105,81.77,105,79.53Zm1.12-7.93c0-1.42,1.29-2.88,5.09-3v.17a2,2,0,0,0-1.79,2c0,1,.7,1.63,1.82,1.71a3.14,3.14,0,0,1-2.69,1.35A2.24,2.24,0,0,1,106.16,71.6ZM114.28,80V71.38c0-1.37-.53-2.46-1.91-2.66v-.17c4.65.17,6.5,1.93,6.5,5.6V81c0,.81.28,1.14.78,1.14s.9-.42,1.35-1.26h.17c-.45,1.54-2,2.27-3.64,2.27C115.29,83.11,114.28,82.33,114.28,80Z"/><path class="cls-3" d="M122,82.66c1.68,0,2.1-.72,2.1-1.42V71.3c0-1-.47-1.49-2.07-1.49v-.17a17.12,17.12,0,0,0,6.69-1.09V81.24c0,.7.42,1.42,2.1,1.42v.17H122Zm9.86,0c1.65,0,2.07-.72,2.07-1.42V72.5c0-1.57-.81-2.38-2.21-2.38a3,3,0,0,0-2.13.87v-.17a5.72,5.72,0,0,1,4.65-2.27c2.52,0,4.31,1.18,4.31,4v8.74c0,.7.42,1.42,2.1,1.42v.17h-8.79Z"/><path class="cls-3" d="M149.36,68.72c-1.65.2-2.38,1.6-2.38,6.94,0,4,2.05,6.25,4.54,6.25a6.1,6.1,0,0,0,4.09-1.49v.17a7.86,7.86,0,0,1-5.94,2.52,7.32,7.32,0,0,1-7.48-7.33,7.18,7.18,0,0,1,7.17-7.23Zm6.22,3a2.6,2.6,0,0,1-2.8,2.68,2.38,2.38,0,0,1-2.44-1.76,2.42,2.42,0,0,0,1.35-2,1.65,1.65,0,0,0-1.21-1.84v-.2C154.15,68.55,155.58,70.12,155.58,71.72Z"/><path class="cls-3" d="M157.68,75.78a6.93,6.93,0,0,1,6.86-7.23v.17c-1.65.2-2.1,1.6-2.1,6.94,0,4,1.79,6.25,4.28,6.25a6.09,6.09,0,0,0,4.09-1.49v.17a7.86,7.86,0,0,1-5.94,2.52A7.09,7.09,0,0,1,157.68,75.78ZM164,74.6c2.46,0,3.5-.78,3.5-3.14,0-1.34-.56-2.57-1.82-2.74v-.17c3.69,0,5.49,2.63,5.49,4.76a8.71,8.71,0,0,1-.14,1.46h-7Z"/><path class="cls-3" d="M31.76,112.94v.17a10.71,10.71,0,0,1-5.43-1.37l-.92,1.37h-.23v-6.83h.23A9.37,9.37,0,0,0,31.76,112.94ZM40,107.37c0,3.61-2.69,5.57-7,5.74v-.17c1.54-.28,3.05-1.17,3.05-2.85,0-4.9-10.7-5.35-10.7-11,0-3.35,2.72-5.29,6.44-5.54v.17a2.65,2.65,0,0,0-2.46,2.58C29.3,101.16,40,101.69,40,107.37ZM33,93.68v-.17A9,9,0,0,1,38,95l1-1.49h.22v6.25H39A8.92,8.92,0,0,0,33,93.68Z"/><path class="cls-3" d="M48.59,117.09c0,1,.48,1.48,2.07,1.48v.17A18.39,18.39,0,0,0,44,119.83V101.27c0-1-.47-1.49-2.07-1.49v-.16a18.19,18.19,0,0,0,6.69-1.1Zm10.67-11.4c0,5.85-3.08,7.42-5.74,7.42a5.24,5.24,0,0,1-4.09-2.27v-.16a4,4,0,0,0,2.35,1c1.32,0,2.72-.93,2.72-6S53.18,100,51.78,100a3.2,3.2,0,0,0-2.35,1v-.22a5.24,5.24,0,0,1,4.09-2.24C56.24,98.55,59.26,100.12,59.26,105.69Z"/><path class="cls-3" d="M61.72,105.78a6.94,6.94,0,0,1,6.86-7.23v.17c-1.65.2-2.1,1.6-2.1,6.94,0,4,1.79,6.25,4.29,6.25a6.06,6.06,0,0,0,4.08-1.49v.17a7.82,7.82,0,0,1-5.93,2.52A7.09,7.09,0,0,1,61.72,105.78ZM68,104.6c2.47,0,3.5-.78,3.5-3.14,0-1.34-.56-2.57-1.82-2.74v-.17c3.7,0,5.49,2.63,5.49,4.76a8.71,8.71,0,0,1-.14,1.46H68Z"/><path class="cls-3" d="M84.65,98.72c-1.65.2-2.38,1.6-2.38,6.94,0,4,2,6.25,4.54,6.25a6.09,6.09,0,0,0,4.09-1.49v.17A7.86,7.86,0,0,1,85,113.11a7.32,7.32,0,0,1-7.47-7.33,7.17,7.17,0,0,1,7.16-7.23Zm6.22,3a2.6,2.6,0,0,1-2.8,2.68,2.38,2.38,0,0,1-2.44-1.76,2.42,2.42,0,0,0,1.35-2,1.65,1.65,0,0,0-1.21-1.84v-.2C89.44,98.55,90.87,100.12,90.87,101.72Z"/><path class="cls-3" d="M92.52,99.62a16.94,16.94,0,0,0,6.69-1.1v12.72c0,.7.42,1.42,2.1,1.42v.17H92.49v-.17c1.68,0,2.1-.72,2.1-1.42v-10c0-1-.47-1.49-2.07-1.49ZM94,94.35c0-1.45,1.18-2.43,2.86-2.43s2.85,1,2.85,2.43-1.17,2.47-2.85,2.47S94,95.84,94,94.35Z"/><path class="cls-3" d="M102.71,109.53c0-2.44,2.24-3.81,5.38-3.81h3v.17h-.84a2.77,2.77,0,0,0-3,3c0,1.54.44,2.72,1.76,2.72a3.06,3.06,0,0,0,2-1v.16a5.92,5.92,0,0,1-4.45,2.27C104.28,113.11,102.69,111.77,102.71,109.53Zm1.12-7.93c0-1.42,1.29-2.88,5.1-3v.17a2,2,0,0,0-1.79,2c0,1,.7,1.63,1.82,1.71a3.14,3.14,0,0,1-2.69,1.35A2.25,2.25,0,0,1,103.83,101.6ZM112,110v-8.57c0-1.37-.53-2.46-1.9-2.66v-.17c4.65.17,6.5,1.93,6.5,5.6V111c0,.81.28,1.14.78,1.14s.9-.42,1.34-1.26h.17c-.45,1.54-2,2.27-3.64,2.27C113,113.11,112,112.33,112,110Z"/><path class="cls-3" d="M119.57,93.34a17.19,17.19,0,0,0,6.69-1.09v19c0,.7.42,1.42,2.1,1.42v.17h-8.82v-.17c1.68,0,2.1-.72,2.1-1.42V95c0-1-.47-1.49-2.07-1.49Z"/><path class="cls-3" d="M129.59,99.62a17,17,0,0,0,6.7-1.1v12.72c0,.7.42,1.42,2.1,1.42v.17h-8.82v-.17c1.68,0,2.1-.72,2.1-1.42v-10c0-1-.48-1.49-2.08-1.49ZM131,94.35c0-1.45,1.18-2.43,2.86-2.43s2.85,1,2.85,2.43-1.17,2.47-2.85,2.47S131,95.84,131,94.35Z"/><path class="cls-3" d="M144.94,109.5a1.43,1.43,0,0,0-1.57,1.4c0,.81.56,1.85,2.49,2v.17c-3.72-.14-5.77-1.15-5.77-2.77a2.18,2.18,0,0,1,2.38-2.07A2.86,2.86,0,0,1,144.94,109.5Zm.92-10.78c-1,.2-2,.73-2,1.87.08,3.25,9.15,3.79,9.15,8.24,0,2.71-2.29,4.14-5.91,4.28v-.17c1.18-.19,2.49-.61,2.49-2.07,0-2.91-9.18-4-9.18-8.23,0-2.46,2.33-4,5.46-4.09Zm6.61,2.72a1.83,1.83,0,0,1-2.07,1.73,2.39,2.39,0,0,1-2.38-1.34,1.25,1.25,0,0,0,1.26-1.32c0-.84-1.07-1.65-2.19-1.79v-.17C150.26,98.72,152.47,99.87,152.47,101.44Z"/><path class="cls-3" d="M165.71,110.68v.16a5.83,5.83,0,0,1-4.79,2.27c-2.52,0-4.31-1.15-4.31-4V100h-1.45l.3-.42h1.15v-3a7.14,7.14,0,0,0,4.6-1.57v4.59H165l-.3.42h-3.47v9.27c0,1.4.53,2.85,1.84,2.85A4.11,4.11,0,0,0,165.71,110.68Z"/><path class="cls-3" d="M171.76,109.5a1.44,1.44,0,0,0-1.57,1.4c0,.81.56,1.85,2.49,2v.17c-3.72-.14-5.76-1.15-5.76-2.77a2.18,2.18,0,0,1,2.38-2.07A2.84,2.84,0,0,1,171.76,109.5Zm.92-10.78c-1,.2-2,.73-2,1.87.08,3.25,9.15,3.79,9.15,8.24,0,2.71-2.29,4.14-5.9,4.28v-.17c1.17-.19,2.49-.61,2.49-2.07,0-2.91-9.19-4-9.19-8.23,0-2.46,2.33-4,5.46-4.09Zm6.61,2.72a1.83,1.83,0,0,1-2.07,1.73,2.4,2.4,0,0,1-2.38-1.34,1.25,1.25,0,0,0,1.26-1.32c0-.84-1.06-1.65-2.18-1.79v-.17C177.08,98.72,179.29,99.87,179.29,101.44Z"/></g></svg>