<svg id="Layer_1" data-name="Layer 1" xmlns="http://www.w3.org/2000/svg" xmlns:xlink="http://www.w3.org/1999/xlink" viewBox="0 0 300 250"><defs><style>.cls-1{fill:none;}.cls-2{clip-path:url(#clip-path);}.cls-3{fill:#fff;}</style><clipPath id="clip-path"><rect class="cls-1" width="300" height="250"/></clipPath></defs><title>Artboard 1 copy 5</title><g class="cls-2"><path class="cls-3" d="M41.68,51.5l.11.22A7.68,7.68,0,0,1,35,55.11c-4.56,0-10.25-3.25-10.25-9.77,0-7.08,5.55-9.72,9.58-9.83v.17c-2,.42-4.09,2.27-4.09,9.46s2.88,8.85,6,8.85A6.91,6.91,0,0,0,41.68,51.5Zm.22-16v6.81h-.22c-1.1-3.73-3.17-5.88-5.91-6.64v-.17a9.53,9.53,0,0,1,5.06,1.29l.85-1.29Z"/><path class="cls-3" d="M50.83,40.72c-1.65.2-2.21,1.6-2.21,7.06,0,5.26.56,7,2.21,7.16v.17a7.13,7.13,0,0,1-7-7.33,7,7,0,0,1,7-7.23Zm8.07,7.06A7.14,7.14,0,0,1,52,55.11v-.17c1.65-.16,2.19-1.93,2.19-7.16,0-5.49-.57-6.89-2.19-7.06v-.17A7,7,0,0,1,58.9,47.78Z"/><path class="cls-3" d="M60.74,54.66c1.68,0,2.1-.72,2.1-1.42V43.3c0-1-.47-1.49-2.07-1.49v-.17a17.19,17.19,0,0,0,6.69-1.09V53.24c0,.7.42,1.42,2.1,1.42v.17H60.74Zm9.86,0c1.65,0,2.07-.72,2.07-1.42V44.5c0-1.57-.81-2.38-2.21-2.38a3,3,0,0,0-2.13.87v-.17A5.72,5.72,0,0,1,73,40.55c2.52,0,4.31,1.18,4.31,4v8.74c0,.7.42,1.42,2.1,1.42v.17H70.6Z"/><path class="cls-3" d="M91.26,52.68v.16a5.85,5.85,0,0,1-4.79,2.27c-2.52,0-4.31-1.15-4.31-4V42H80.71l.3-.42h1.15v-3A7.09,7.09,0,0,0,86.75,37v4.59h3.78l-.3.42H86.75v9.27c0,1.4.54,2.85,1.85,2.85A4.11,4.11,0,0,0,91.26,52.68Z"/><path class="cls-3" d="M92.16,51.53c0-2.44,2.24-3.81,5.37-3.81h3v.17h-.84a2.77,2.77,0,0,0-3,3c0,1.54.45,2.72,1.76,2.72a3.08,3.08,0,0,0,2-1v.16a6,6,0,0,1-4.45,2.27C93.73,55.11,92.13,53.77,92.16,51.53Zm1.12-7.93c0-1.42,1.29-2.88,5.09-3.05v.17a2,2,0,0,0-1.79,2c0,1,.7,1.63,1.82,1.71a3.14,3.14,0,0,1-2.69,1.35A2.24,2.24,0,0,1,93.28,43.6ZM101.4,52V43.38c0-1.37-.53-2.46-1.91-2.66v-.17c4.65.17,6.5,1.93,6.5,5.6V53c0,.81.28,1.14.78,1.14s.9-.42,1.35-1.26h.17c-.45,1.54-2,2.27-3.64,2.27C102.41,55.11,101.4,54.33,101.4,52Z"/><path class="cls-3" d="M116.83,40.72c-1.66.2-2.38,1.6-2.38,6.94,0,4,2,6.25,4.53,6.25a6.09,6.09,0,0,0,4.09-1.49v.17a7.86,7.86,0,0,1-5.94,2.52,7.32,7.32,0,0,1-7.47-7.33,7.18,7.18,0,0,1,7.17-7.23Zm6.21,3a2.6,2.6,0,0,1-2.8,2.68,2.36,2.36,0,0,1-2.43-1.76,2.43,2.43,0,0,0,1.34-2,1.65,1.65,0,0,0-1.2-1.84v-.2C121.61,40.55,123,42.12,123,43.72Z"/><path class="cls-3" d="M135.5,52.68v.16a5.85,5.85,0,0,1-4.79,2.27c-2.52,0-4.31-1.15-4.31-4V42H125l.3-.42h1.15v-3A7.09,7.09,0,0,0,131,37v4.59h3.78l-.3.42H131v9.27c0,1.4.54,2.85,1.85,2.85A4.11,4.11,0,0,0,135.5,52.68Z"/><path class="cls-3" d="M143.09,42a1.51,1.51,0,0,0-1.54-1v-.17h7.84V41c-1,0-1.37.67-.9,1.65l3.67,7.65-2.41,4.53h-.16Zm-1.23,17.36a2.92,2.92,0,0,1,2.46-2.63,2.22,2.22,0,0,0-.11.7,1.63,1.63,0,0,0,1.65,1.87c1,0,1.77-1,2.83-2.82h.2c-1.54,2.88-2.61,5.37-4.57,5.37A2.32,2.32,0,0,1,141.86,59.34Zm11.48-11.79a7.73,7.73,0,0,0,.78-3.61A2.71,2.71,0,0,0,151.27,41v-.17h7V41c-.93,0-1.29.36-1.82,1.32l-2.91,5.48Z"/><path class="cls-3" d="M165.35,40.72c-1.65.2-2.21,1.6-2.21,7.06,0,5.26.56,7,2.21,7.16v.17a7.13,7.13,0,0,1-7-7.33,7,7,0,0,1,7-7.23Zm8.06,7.06a7.13,7.13,0,0,1-6.94,7.33v-.17c1.65-.16,2.18-1.93,2.18-7.16,0-5.49-.56-6.89-2.18-7.06v-.17A7,7,0,0,1,173.41,47.78Z"/><path class="cls-3" d="M181.67,51.16c0,1.57.53,2.38,1.94,2.38a2.49,2.49,0,0,0,1.93-.86v.16a4.66,4.66,0,0,1-4.34,2.27c-2.52,0-4.15-1.17-4.15-4V43.3c0-1-.47-1.49-2.07-1.49v-.17a17.12,17.12,0,0,0,6.69-1.09ZM191,53c0,.81.25,1.14.75,1.14s.9-.42,1.35-1.26h.17c-.45,1.54-2,2.27-3.81,2.27s-3.08-1.12-3.08-2.74V43.3c0-1-.48-1.49-2-1.49v-.17A18.25,18.25,0,0,0,191,40.55Z"/><path class="cls-3" d="M201.11,53.24c0,.7.42,1.42,2.1,1.42v.17h-8.82v-.17c1.68,0,2.09-.72,2.09-1.42V43.3c0-1-.47-1.49-2.07-1.49v-.17a17.21,17.21,0,0,0,6.7-1.09Zm7.56-9.66a3,3,0,0,1-2.89,3.19,1.88,1.88,0,0,1-1.59-.62,2,2,0,0,0,1.09-1.9,1.49,1.49,0,0,0-1.57-1.51A1.92,1.92,0,0,0,202,43.8v-.22a3.87,3.87,0,0,1,3.64-3A2.85,2.85,0,0,1,208.67,43.58Z"/><path class="cls-3" d="M30.36,81.3c0,2.66-1.82,3.81-4.62,3.81V67c0-1-.5-1.49-2.1-1.49v-.17a18.52,18.52,0,0,0,6.72-1.09ZM41,77.69c0,5.85-3.11,7.42-5.77,7.42a5.2,5.2,0,0,1-4.06-2.27v-.16a3.87,3.87,0,0,0,2.33,1c1.31,0,2.74-.93,2.74-6S34.93,72,33.53,72a3.14,3.14,0,0,0-2.33,1v-.22a5.2,5.2,0,0,1,4.06-2.24C38,70.55,41,72.12,41,77.69Z"/><path class="cls-3" d="M49.71,83.24c0,.7.42,1.42,2.1,1.42v.17H43v-.17c1.68,0,2.1-.72,2.1-1.42V73.3c0-1-.48-1.49-2.07-1.49v-.17a17.19,17.19,0,0,0,6.69-1.09Zm7.56-9.66a3,3,0,0,1-2.88,3.19,1.92,1.92,0,0,1-1.6-.62,2,2,0,0,0,1.09-1.9,1.48,1.48,0,0,0-1.56-1.51,1.92,1.92,0,0,0-1.68,1.06v-.22a3.87,3.87,0,0,1,3.64-3A2.84,2.84,0,0,1,57.27,73.58Z"/><path class="cls-3" d="M65.75,70.72c-1.65.2-2.21,1.6-2.21,7.06,0,5.26.56,7,2.21,7.16v.17a7.13,7.13,0,0,1-7-7.33,7,7,0,0,1,7-7.23Zm8.07,7.06a7.14,7.14,0,0,1-6.95,7.33v-.17c1.66-.16,2.19-1.93,2.19-7.16,0-5.49-.56-6.89-2.19-7.06v-.17A7,7,0,0,1,73.82,77.78Z"/><path class="cls-3" d="M84.32,84.66v.17H75.5v-.17c1.68,0,2.1-.72,2.1-1.42V67c0-1-.48-1.49-2.07-1.49v-.17a17.19,17.19,0,0,0,6.69-1.09v19C82.22,83.94,82.64,84.66,84.32,84.66Zm9.49,0v.17a11.22,11.22,0,0,1-2.8.28,5.29,5.29,0,0,1-5.07-2.71L83.31,78c2.21-1.93,4.28-4.28,4.28-5.71,0-.76-.36-1.29-1.65-1.29v-.17h7.17V71a2.56,2.56,0,0,0-1.57.5l-5.12,4.06,4.84,7.51A2.9,2.9,0,0,0,93.81,84.66Z"/><path class="cls-3" d="M94,77.78a6.93,6.93,0,0,1,6.86-7.23v.17c-1.65.2-2.1,1.6-2.1,6.94,0,4,1.79,6.25,4.28,6.25a6.09,6.09,0,0,0,4.09-1.49v.17a7.86,7.86,0,0,1-5.94,2.52A7.09,7.09,0,0,1,94,77.78Zm6.3-1.18c2.46,0,3.5-.78,3.5-3.14,0-1.34-.56-2.57-1.82-2.74v-.17c3.69,0,5.49,2.63,5.49,4.76a8.71,8.71,0,0,1-.14,1.46h-7Z"/><path class="cls-3" d="M116,83.24c0,.7.42,1.42,2.1,1.42v.17h-8.82v-.17c1.68,0,2.1-.72,2.1-1.42V73.3c0-1-.48-1.49-2.07-1.49v-.17A17.19,17.19,0,0,0,116,70.55Zm7.56-9.66a3,3,0,0,1-2.89,3.19,1.88,1.88,0,0,1-1.59-.62,2,2,0,0,0,1.09-1.9,1.49,1.49,0,0,0-1.57-1.51,1.93,1.93,0,0,0-1.68,1.06v-.22a3.88,3.88,0,0,1,3.64-3A2.85,2.85,0,0,1,123.52,73.58Z"/><path class="cls-3" d="M141.94,82.68v.16a5.85,5.85,0,0,1-4.79,2.27c-2.52,0-4.31-1.15-4.31-4V72h-1.45l.3-.42h1.15v-3A7.09,7.09,0,0,0,137.43,67v4.59h3.78l-.3.42h-3.48v9.27c0,1.4.54,2.85,1.85,2.85A4.11,4.11,0,0,0,141.94,82.68Z"/><path class="cls-3" d="M150,70.72c-1.65.2-2.21,1.6-2.21,7.06,0,5.26.56,7,2.21,7.16v.17a7.13,7.13,0,0,1-7-7.33,7,7,0,0,1,7-7.23ZM158,77.78a7.13,7.13,0,0,1-6.94,7.33v-.17c1.65-.16,2.18-1.93,2.18-7.16,0-5.49-.56-6.89-2.18-7.06v-.17A7,7,0,0,1,158,77.78Z"/><path class="cls-3" d="M170.31,72.79V73A3.14,3.14,0,0,0,168,72c-1.4,0-2.74.64-2.74,5.71s1.43,6,2.74,6a3.87,3.87,0,0,0,2.33-1v.16a5.2,5.2,0,0,1-4.06,2.27c-2.66,0-5.77-1.57-5.77-7.42,0-5.57,3.05-7.14,5.77-7.14A5.2,5.2,0,0,1,170.31,72.79ZM175.77,83c0,.81.25,1.14.75,1.14s.9-.42,1.35-1.26H178c-.44,1.54-2,2.27-3.64,2.27-2.24,0-3.24-.78-3.24-3.16V67c0-1-.48-1.49-2.08-1.49v-.17a18.45,18.45,0,0,0,6.7-1.09Z"/><path class="cls-3" d="M179.38,81.53c0-2.44,2.24-3.81,5.37-3.81h3v.17h-.84a2.77,2.77,0,0,0-3,3c0,1.54.45,2.72,1.76,2.72a3.08,3.08,0,0,0,2.05-1v.16a6,6,0,0,1-4.46,2.27C180.94,85.11,179.35,83.77,179.38,81.53Zm1.12-7.93c0-1.42,1.29-2.88,5.09-3v.17a2,2,0,0,0-1.79,2c0,1,.7,1.63,1.82,1.71a3.14,3.14,0,0,1-2.69,1.35A2.24,2.24,0,0,1,180.5,73.6ZM188.62,82V73.38c0-1.37-.53-2.46-1.91-2.66v-.17c4.65.17,6.5,1.93,6.5,5.6V83c0,.81.28,1.14.78,1.14s.9-.42,1.35-1.26h.17c-.45,1.54-2,2.27-3.65,2.27C189.63,85.11,188.62,84.33,188.62,82Z"/><path class="cls-3" d="M196.4,72a1.51,1.51,0,0,0-1.54-1v-.17h7.84V71c-1,0-1.37.67-.89,1.65l3.66,7.65-2.4,4.53h-.17Zm-1.23,17.36a2.92,2.92,0,0,1,2.46-2.63,2.22,2.22,0,0,0-.11.7,1.63,1.63,0,0,0,1.65,1.87c1,0,1.77-1,2.83-2.82h.2c-1.54,2.88-2.61,5.37-4.57,5.37A2.33,2.33,0,0,1,195.17,89.34Zm11.48-11.79a7.61,7.61,0,0,0,.78-3.61A2.7,2.7,0,0,0,204.58,71v-.17h7V71c-.92,0-1.29.36-1.82,1.32l-2.91,5.48Z"/></g></svg>