<?xml version="1.0" encoding="utf-8"?>
<!-- Generator: Adobe Illustrator 24.0.3, SVG Export Plug-In . SVG Version: 6.00 Build 0)  -->
<svg version="1.1" id="Layer_1" xmlns="http://www.w3.org/2000/svg" xmlns:xlink="http://www.w3.org/1999/xlink" x="0px" y="0px"
	 viewBox="0 0 300 250" style="enable-background:new 0 0 300 250;" xml:space="preserve">
<style type="text/css">
	.st0{clip-path:url(#SVGID_2_);}
	.st1{enable-background:new    ;}
	.st2{fill:#FFFFFF;}
</style>
<title>Artboard 1 copy 5</title>
<g>
	<defs>
		<rect id="SVGID_1_" y="0" width="300" height="250"/>
	</defs>
	<clipPath id="SVGID_2_">
		<use xlink:href="#SVGID_1_"  style="overflow:visible;"/>
	</clipPath>
	<g class="st0">
		<g class="st1">
			<path class="st2" d="M44.3,51l0.1,0.3c-1.7,2.7-4.6,3.9-7.7,3.9C31.5,55.2,25,51.4,25,44c0-8.1,6.3-11.1,10.9-11.2v0.2
				c-2.2,0.5-4.7,2.6-4.7,10.8c0,8.2,3.3,10.1,6.9,10.1C41.1,53.9,43.2,52.4,44.3,51z M44.5,32.8v7.8h-0.3c-1.2-4.3-3.6-6.7-6.8-7.6
				v-0.2c2.8,0.1,4.5,0.6,5.8,1.5l1-1.5H44.5z"/>
		</g>
		<g class="st1">
			<path class="st2" d="M54.7,38.7c-1.9,0.2-2.5,1.8-2.5,8.1c0,6,0.6,8,2.5,8.2v0.2c-3.7,0-8-3-8-8.4s4.2-8.2,8-8.3V38.7z M64,46.8
				c0,5.3-4.3,8.4-7.9,8.4V55c1.9-0.2,2.5-2.2,2.5-8.2c0-6.3-0.6-7.9-2.5-8.1v-0.2C59.7,38.5,64,41.4,64,46.8z"/>
			<path class="st2" d="M66.1,54.6c1.9,0,2.4-0.8,2.4-1.6V41.6c0-1.2-0.5-1.7-2.4-1.7v-0.2c3,0,5.4-0.3,7.6-1.2V53
				c0,0.8,0.5,1.6,2.4,1.6v0.2H66.1V54.6z M77.3,54.6c1.9,0,2.4-0.8,2.4-1.6V43c0-1.8-0.9-2.7-2.5-2.7c-0.9,0-1.7,0.3-2.4,1v-0.2
				c0.9-1.3,2.9-2.6,5.3-2.6c2.9,0,4.9,1.3,4.9,4.5v10c0,0.8,0.5,1.6,2.4,1.6v0.2h-10V54.6z"/>
			<path class="st2" d="M100.9,52.4v0.2c-1,1.5-3.1,2.6-5.5,2.6c-2.9,0-4.9-1.3-4.9-4.5V40.1h-1.7l0.4-0.5h1.3v-3.5
				c2,0,3.9-0.6,5.2-1.8v5.2h4.3l-0.4,0.5h-4v10.6c0,1.6,0.6,3.3,2.1,3.3C98.8,54,99.9,53.4,100.9,52.4z"/>
			<path class="st2" d="M102,51.1c0-2.8,2.6-4.4,6.1-4.4h3.5v0.2h-1c-2.3,0-3.4,1.5-3.4,3.5c0,1.8,0.5,3.1,2,3.1
				c0.9,0,1.6-0.5,2.3-1.1v0.2c-1.1,1.2-2.8,2.6-5.1,2.6C103.8,55.2,101.9,53.6,102,51.1z M103.3,42c0-1.6,1.5-3.3,5.8-3.5v0.2
				c-1.3,0.2-2,1.2-2,2.3c0,1.2,0.8,1.9,2.1,2c-0.5,0.9-1.8,1.5-3.1,1.5C104.3,44.5,103.3,43.3,103.3,42z M112.5,51.5v-9.8
				c0-1.6-0.6-2.8-2.2-3v-0.2c5.3,0.2,7.4,2.2,7.4,6.4v7.8c0,0.9,0.3,1.3,0.9,1.3c0.5,0,1-0.5,1.5-1.4h0.2c-0.5,1.8-2.2,2.6-4.2,2.6
				C113.7,55.2,112.5,54.3,112.5,51.5z"/>
			<path class="st2" d="M130.2,38.7c-1.9,0.2-2.7,1.8-2.7,7.9c0,4.6,2.3,7.1,5.2,7.1c1.8,0,3.2-0.5,4.7-1.7v0.2
				c-1.7,2.1-4.7,2.9-6.8,2.9c-4.1,0-8.5-3-8.5-8.4s4.4-8.2,8.2-8.3V38.7z M137.3,42.1c0,1.7-1.2,3.1-3.2,3.1c-1.6,0-2.6-1-2.8-2
				c0.9-0.4,1.5-1.5,1.5-2.3c0-0.7-0.2-1.9-1.4-2.1v-0.2C135.6,38.5,137.3,40.3,137.3,42.1z"/>
			<path class="st2" d="M151.5,52.4v0.2c-1,1.5-3.1,2.6-5.5,2.6c-2.9,0-4.9-1.3-4.9-4.5V40.1h-1.7l0.4-0.5h1.3v-3.5
				c2,0,3.9-0.6,5.2-1.8v5.2h4.3l-0.4,0.5h-4v10.6c0,1.6,0.6,3.3,2.1,3.3C149.4,54,150.5,53.4,151.5,52.4z"/>
		</g>
		<g class="st1">
			<path class="st2" d="M25.1,72.1c-0.3-0.7-0.8-1.1-1.8-1.1v-0.2h9V71c-1.1,0-1.6,0.8-1,1.9l4.2,8.7l-2.8,5.2h-0.2L25.1,72.1z
				 M23.6,92c0-1.4,1.1-2.5,2.8-3c-0.1,0.3-0.1,0.5-0.1,0.8c0,1.2,0.6,2.1,1.9,2.1c1.1,0,2-1.2,3.2-3.2h0.2c-1.8,3.3-3,6.1-5.2,6.1
				C24.7,94.8,23.6,93.6,23.6,92z M36.8,78.5c0.5-1,0.9-2.4,0.9-4.1c0-1.8-1-3.4-3.3-3.4v-0.2h8V71c-1.1,0-1.5,0.4-2.1,1.5L37,78.8
				L36.8,78.5z"/>
		</g>
		<g class="st1">
			<path class="st2" d="M50.5,70.7c-1.9,0.2-2.5,1.8-2.5,8.1c0,6,0.6,8,2.5,8.2v0.2c-3.7,0-8-3-8-8.4s4.2-8.2,8-8.3V70.7z
				 M59.7,78.8c0,5.3-4.3,8.4-7.9,8.4V87c1.9-0.2,2.5-2.2,2.5-8.2c0-6.3-0.6-7.9-2.5-8.1v-0.2C55.5,70.5,59.7,73.4,59.7,78.8z"/>
			<path class="st2" d="M69.1,82.6c0,1.8,0.6,2.7,2.2,2.7c0.8,0,1.5-0.3,2.2-1v0.2c-0.7,1.4-2.4,2.6-5,2.6c-2.9,0-4.7-1.3-4.7-4.5
				v-9c0-1.2-0.5-1.7-2.4-1.7v-0.2c3,0,5.4-0.3,7.6-1.2V82.6z M79.8,84.7c0,0.9,0.3,1.3,0.9,1.3c0.5,0,1-0.5,1.5-1.4h0.2
				c-0.5,1.8-2.2,2.6-4.4,2.6c-2.2,0-3.5-1.3-3.5-3.1V73.6c0-1.2-0.5-1.7-2.3-1.7v-0.2c2.9,0,4.9-0.3,7.6-1.2V84.7z"/>
		</g>
		<g class="st1">
			<path class="st2" d="M91.4,85c0,0.8,0.5,1.6,2.4,1.6v0.2H83.7v-0.2c1.9,0,2.4-0.8,2.4-1.6V73.6c0-1.2-0.5-1.7-2.4-1.7v-0.2
				c3,0,5.4-0.3,7.6-1.2V85z M100,74c0,2.2-1.6,3.6-3.3,3.6c-0.8,0-1.4-0.2-1.8-0.7c0.6-0.3,1.2-1,1.2-2.2c0-0.9-0.7-1.7-1.8-1.7
				c-0.8,0-1.5,0.5-1.9,1.2V74c0.6-2,2.2-3.5,4.2-3.5C98.8,70.5,100,72,100,74z"/>
		</g>
		<g class="st1">
			<path class="st2" d="M31.4,114.8c0,3-2.1,4.4-5.3,4.4V98.4c0-1.2-0.6-1.7-2.4-1.7v-0.2c3,0,5-0.3,7.7-1.2V114.8z M43.5,110.7
				c0,6.7-3.6,8.5-6.6,8.5c-1.8,0-3.8-1.2-4.6-2.6v-0.2c0.8,0.6,1.6,1.1,2.7,1.1c1.5,0,3.1-1.1,3.1-6.8c0-5.8-1.5-6.5-3.1-6.5
				c-1,0-1.9,0.4-2.7,1.2v-0.3c0.8-1.3,2.8-2.6,4.6-2.6C40.1,102.5,43.5,104.3,43.5,110.7z"/>
		</g>
		<g class="st1">
			<path class="st2" d="M53.5,117c0,0.8,0.5,1.6,2.4,1.6v0.2H45.8v-0.2c1.9,0,2.4-0.8,2.4-1.6v-11.4c0-1.2-0.5-1.7-2.4-1.7v-0.2
				c3,0,5.4-0.3,7.6-1.2V117z M62.1,106c0,2.2-1.6,3.6-3.3,3.6c-0.8,0-1.4-0.2-1.8-0.7c0.6-0.3,1.2-1,1.2-2.2c0-0.9-0.7-1.7-1.8-1.7
				c-0.8,0-1.5,0.5-1.9,1.2V106c0.6-2,2.2-3.5,4.2-3.5C60.9,102.5,62.1,104,62.1,106z"/>
		</g>
		<g class="st1">
			<path class="st2" d="M71.8,102.7c-1.9,0.2-2.5,1.8-2.5,8.1c0,6,0.6,8,2.5,8.2v0.2c-3.7,0-8-3-8-8.4s4.2-8.2,8-8.3V102.7z
				 M81,110.8c0,5.3-4.3,8.4-7.9,8.4V119c1.9-0.2,2.5-2.2,2.5-8.2c0-6.3-0.6-7.9-2.5-8.1v-0.2C76.8,102.5,81,105.4,81,110.8z"/>
		</g>
		<g class="st1">
			<path class="st2" d="M93,118.6v0.2H82.9v-0.2c1.9,0,2.4-0.8,2.4-1.6V98.4c0-1.2-0.5-1.7-2.4-1.7v-0.2c3,0,5.4-0.3,7.6-1.2V117
				C90.6,117.8,91.1,118.6,93,118.6z M103.9,118.6v0.2c-0.9,0.3-2.1,0.3-3.2,0.3c-2,0-4.1-0.4-5.8-3.1l-3-5c2.5-2.2,4.9-4.9,4.9-6.5
				c0-0.9-0.4-1.5-1.9-1.5v-0.2h8.2v0.2c-0.7,0-1.3,0.2-1.8,0.6l-5.9,4.6l5.5,8.6C102,118.4,102.8,118.5,103.9,118.6z"/>
		</g>
		<g class="st1">
			<path class="st2" d="M104.1,110.8c0-5.4,4.1-8.2,7.8-8.3v0.2c-1.9,0.2-2.4,1.8-2.4,7.9c0,4.6,2,7.1,4.9,7.1
				c1.8,0,3.2-0.5,4.7-1.7v0.2c-1.7,2.1-4.7,2.9-6.8,2.9C108.2,119.2,104.1,116.1,104.1,110.8z M111.3,109.4c2.8,0,4-0.9,4-3.6
				c0-1.5-0.6-2.9-2.1-3.1v-0.2c4.2,0,6.3,3,6.3,5.4c0,0.5-0.1,1.2-0.2,1.7h-8V109.4z"/>
		</g>
		<g class="st1">
			<path class="st2" d="M129.2,117c0,0.8,0.5,1.6,2.4,1.6v0.2h-10.1v-0.2c1.9,0,2.4-0.8,2.4-1.6v-11.4c0-1.2-0.5-1.7-2.4-1.7v-0.2
				c3,0,5.4-0.3,7.6-1.2V117z M137.8,106c0,2.2-1.6,3.6-3.3,3.6c-0.8,0-1.4-0.2-1.8-0.7c0.6-0.3,1.2-1,1.2-2.2
				c0-0.9-0.7-1.7-1.8-1.7c-0.8,0-1.5,0.5-1.9,1.2V106c0.6-2,2.2-3.5,4.2-3.5C136.6,102.5,137.8,104,137.8,106z"/>
		</g>
		<g class="st1">
			<path class="st2" d="M36.6,148.4v0.2c-1,1.5-3.1,2.6-5.5,2.6c-2.9,0-4.9-1.3-4.9-4.5v-10.5h-1.7l0.4-0.5h1.3v-3.5
				c2,0,3.9-0.6,5.2-1.8v5.2h4.3l-0.4,0.5h-4v10.6c0,1.6,0.6,3.3,2.1,3.3C34.5,150,35.6,149.4,36.6,148.4z"/>
		</g>
		<g class="st1">
			<path class="st2" d="M45.8,134.7c-1.9,0.2-2.5,1.8-2.5,8.1c0,6,0.6,8,2.5,8.2v0.2c-3.7,0-8-3-8-8.4s4.2-8.2,8-8.3V134.7z
				 M55,142.8c0,5.3-4.3,8.4-7.9,8.4V151c1.9-0.2,2.5-2.2,2.5-8.2c0-6.3-0.6-7.9-2.5-8.1v-0.2C50.8,134.5,55,137.4,55,142.8z"/>
			<path class="st2" d="M69,137.1v0.3c-0.7-0.8-1.7-1.2-2.7-1.2c-1.6,0-3.1,0.7-3.1,6.5c0,5.8,1.6,6.8,3.1,6.8c1,0,1.9-0.5,2.7-1.1
				v0.2c-0.8,1.3-2.8,2.6-4.6,2.6c-3,0-6.6-1.8-6.6-8.5c0-6.4,3.5-8.2,6.6-8.2C66.2,134.5,68.2,135.7,69,137.1z M75.3,148.7
				c0,0.9,0.3,1.3,0.9,1.3c0.5,0,1-0.5,1.5-1.4h0.2c-0.5,1.8-2.2,2.6-4.2,2.6c-2.6,0-3.7-0.9-3.7-3.6v-17.1c0-1.2-0.5-1.7-2.4-1.7
				v-0.2c3,0,5-0.3,7.6-1.2V148.7z"/>
		</g>
		<g class="st1">
			<path class="st2" d="M79.4,147.1c0-2.8,2.6-4.4,6.1-4.4H89v0.2h-1c-2.3,0-3.4,1.5-3.4,3.5c0,1.8,0.5,3.1,2,3.1
				c0.9,0,1.6-0.5,2.3-1.1v0.2c-1.1,1.2-2.8,2.6-5.1,2.6C81.2,151.2,79.4,149.6,79.4,147.1z M80.7,138c0-1.6,1.5-3.3,5.8-3.5v0.2
				c-1.3,0.2-2,1.2-2,2.3c0,1.2,0.8,1.9,2.1,2c-0.5,0.9-1.8,1.5-3.1,1.5C81.7,140.5,80.7,139.3,80.7,138z M90,147.5v-9.8
				c0-1.6-0.6-2.8-2.2-3v-0.2c5.3,0.2,7.4,2.2,7.4,6.4v7.8c0,0.9,0.3,1.3,0.9,1.3c0.5,0,1-0.5,1.5-1.4h0.2c-0.5,1.8-2.2,2.6-4.2,2.6
				C91.1,151.2,90,150.3,90,147.5z"/>
		</g>
		<g class="st1">
			<path class="st2" d="M98.9,136.1c-0.3-0.7-0.8-1.1-1.8-1.1v-0.2h9v0.2c-1.1,0-1.6,0.8-1,1.9l4.2,8.7l-2.8,5.2h-0.2L98.9,136.1z
				 M97.5,156c0-1.4,1.1-2.5,2.8-3c-0.1,0.3-0.1,0.5-0.1,0.8c0,1.2,0.6,2.1,1.9,2.1c1.1,0,2-1.2,3.2-3.2h0.2c-1.8,3.3-3,6.1-5.2,6.1
				C98.5,158.8,97.5,157.6,97.5,156z M110.6,142.5c0.5-1,0.9-2.4,0.9-4.1c0-1.8-1-3.4-3.3-3.4v-0.2h8v0.2c-1.1,0-1.5,0.4-2.1,1.5
				l-3.3,6.3L110.6,142.5z"/>
		</g>
	</g>
</g>
</svg>
