<svg id="Layer_1" data-name="Layer 1" xmlns="http://www.w3.org/2000/svg" viewBox="0 0 300 250"><defs><style>.cls-1{fill:none;}.cls-2{fill:#263845;}</style></defs><title>Artboard 1 copy 3</title><rect class="cls-1" x="0.2" width="300" height="250"/><path class="cls-2" d="M21.24,37.76c0-.75-.42-1.42-2.1-1.42v-.17h9v.17c-1.68,0-2.1.67-2.1,1.42V50c0,2.69.75,5.12,2.66,5.35v.17c-5.86,0-7.42-2.83-7.42-5.6Zm14.7,12.13c0,2.77-1.66,5.6-5.88,5.6v-.17A5.12,5.12,0,0,0,35.38,50V39.84c0-1.8-1-3.5-2.8-3.5v-.17h6.16v.17c-1.85,0-2.8,1.73-2.8,3.5Z"/><path class="cls-2" d="M39.24,55c1.68,0,2.1-.73,2.1-1.43V43.67c0-1-.48-1.48-2.07-1.48V42A17.19,17.19,0,0,0,46,40.93V53.61c0,.7.42,1.43,2.1,1.43v.17H39.24Zm9.86,0c1.65,0,2.07-.73,2.07-1.43V44.88c0-1.57-.81-2.38-2.21-2.38a3,3,0,0,0-2.13.86V43.2a5.69,5.69,0,0,1,4.64-2.27c2.52,0,4.32,1.17,4.32,4v8.73c0,.7.42,1.43,2.1,1.43v.17H49.1Z"/><path class="cls-2" d="M65.14,51.68c0,2.66-1.82,3.81-4.62,3.81V37.37c0-1-.5-1.48-2.1-1.48v-.17a18.56,18.56,0,0,0,6.72-1.09Zm10.67-3.61c0,5.85-3.11,7.42-5.77,7.42A5.18,5.18,0,0,1,66,53.22v-.17a3.87,3.87,0,0,0,2.32,1c1.32,0,2.75-.92,2.75-6s-1.35-5.71-2.75-5.71a3.08,3.08,0,0,0-2.32,1v-.22A5.15,5.15,0,0,1,70,40.93C72.76,40.93,75.81,42.5,75.81,48.07Z"/><path class="cls-2" d="M78.27,48.15a6.93,6.93,0,0,1,6.86-7.22v.16c-1.65.2-2.1,1.6-2.1,6.95,0,4,1.79,6.24,4.28,6.24A6.06,6.06,0,0,0,91.4,52.8V53a7.82,7.82,0,0,1-5.93,2.52A7.1,7.1,0,0,1,78.27,48.15ZM84.57,47c2.46,0,3.5-.78,3.5-3.13,0-1.34-.56-2.58-1.82-2.75v-.16c3.7,0,5.49,2.63,5.49,4.76a8.69,8.69,0,0,1-.14,1.45h-7Z"/><path class="cls-2" d="M93.75,51.9c0-2.43,2.24-3.81,5.38-3.81h3v.17h-.84a2.77,2.77,0,0,0-3,3.06c0,1.54.44,2.71,1.76,2.71a3.06,3.06,0,0,0,2-1v.17a6,6,0,0,1-4.45,2.27C95.32,55.49,93.73,54.14,93.75,51.9ZM94.87,44c0-1.43,1.29-2.89,5.1-3v.16a2.05,2.05,0,0,0-1.79,2c0,1,.7,1.62,1.82,1.71a3.16,3.16,0,0,1-2.69,1.34A2.24,2.24,0,0,1,94.87,44ZM103,52.32V43.76c0-1.38-.53-2.47-1.9-2.67v-.16c4.65.16,6.5,1.93,6.5,5.6v6.8c0,.81.28,1.15.78,1.15s.9-.42,1.34-1.26h.17c-.45,1.54-2,2.27-3.64,2.27C104,55.49,103,54.7,103,52.32Z"/><path class="cls-2" d="M121.61,53.05v.17a5.83,5.83,0,0,1-4.78,2.27c-2.52,0-4.32-1.15-4.32-4V42.36h-1.45l.31-.42h1.14v-3a7.09,7.09,0,0,0,4.6-1.57v4.6h3.78l-.31.42h-3.47v9.26c0,1.4.53,2.86,1.84,2.86A4.13,4.13,0,0,0,121.61,53.05Z"/><path class="cls-2" d="M122.51,51.9c0-2.43,2.24-3.81,5.38-3.81h3v.17h-.84a2.78,2.78,0,0,0-3,3.06c0,1.54.45,2.71,1.77,2.71a3.08,3.08,0,0,0,2-1v.17a6,6,0,0,1-4.45,2.27C124.08,55.49,122.48,54.14,122.51,51.9ZM123.63,44c0-1.43,1.29-2.89,5.1-3v.16a2.06,2.06,0,0,0-1.8,2c0,1,.7,1.62,1.82,1.71a3.14,3.14,0,0,1-2.68,1.34A2.24,2.24,0,0,1,123.63,44Zm8.12,8.34V43.76c0-1.38-.53-2.47-1.9-2.67v-.16c4.64.16,6.49,1.93,6.49,5.6v6.8c0,.81.28,1.15.79,1.15s.89-.42,1.34-1.26h.17c-.45,1.54-2,2.27-3.64,2.27C132.76,55.49,131.75,54.7,131.75,52.32Z"/><path class="cls-2" d="M145.75,51.68c0,2.66-1.82,3.81-4.62,3.81V37.37c0-1-.5-1.48-2.1-1.48v-.17a18.56,18.56,0,0,0,6.72-1.09Zm10.67-3.61c0,5.85-3.11,7.42-5.77,7.42a5.18,5.18,0,0,1-4.06-2.27v-.17a3.87,3.87,0,0,0,2.32,1c1.32,0,2.75-.92,2.75-6s-1.35-5.71-2.75-5.71a3.08,3.08,0,0,0-2.32,1v-.22a5.15,5.15,0,0,1,4.06-2.24C153.37,40.93,156.42,42.5,156.42,48.07Z"/><path class="cls-2" d="M158.24,35.72a17.19,17.19,0,0,0,6.69-1.09v19c0,.7.42,1.43,2.1,1.43v.17h-8.82V55c1.68,0,2.1-.73,2.1-1.43V37.37c0-1-.48-1.48-2.07-1.48Z"/><path class="cls-2" d="M168.71,48.15a6.93,6.93,0,0,1,6.86-7.22v.16c-1.65.2-2.1,1.6-2.1,6.95,0,4,1.79,6.24,4.28,6.24a6.06,6.06,0,0,0,4.09-1.48V53a7.82,7.82,0,0,1-5.93,2.52A7.1,7.1,0,0,1,168.71,48.15ZM175,47c2.46,0,3.5-.78,3.5-3.13,0-1.34-.56-2.58-1.82-2.75v-.16c3.7,0,5.49,2.63,5.49,4.76a8.69,8.69,0,0,1-.14,1.45h-7Z"/><path class="cls-2" d="M25.74,83.61c0,.7.42,1.43,2.1,1.43v.17H19V85c1.68,0,2.1-.73,2.1-1.43V73.67c0-1-.47-1.48-2.07-1.48V72a17.12,17.12,0,0,0,6.69-1.09ZM35,74.88v8.73c0,.7.39,1.43,2.07,1.43v.17H28.32V85c1.65,0,2.1-.73,2.1-1.43V74.88c0-1.57-.62-2.38-2-2.38a2.47,2.47,0,0,0-1.85.84v-.17a4.54,4.54,0,0,1,4.09-2.24C33.36,70.93,35,72.1,35,74.88Zm9.27,0v8.73c0,.7.42,1.43,2.1,1.43v.17H37.59V85c1.65,0,2.1-.73,2.1-1.43V74.88c0-1.57-.62-2.38-2-2.38a2.44,2.44,0,0,0-1.85.84v-.17A4.51,4.51,0,0,1,40,70.93C42.63,70.93,44.31,72.1,44.31,74.88Z"/><path class="cls-2" d="M54.89,71.09c-1.65.2-2.21,1.6-2.21,7.06,0,5.27.56,7,2.21,7.17v.17a7.13,7.13,0,0,1-7-7.34,7,7,0,0,1,7-7.22ZM63,78.15A7.13,7.13,0,0,1,56,85.49v-.17c1.65-.17,2.19-1.93,2.19-7.17,0-5.49-.56-6.89-2.19-7.06v-.16A7,7,0,0,1,63,78.15Z"/><path class="cls-2" d="M75.67,83.05v.17a5.86,5.86,0,0,1-4.79,2.27c-2.52,0-4.31-1.15-4.31-3.95V72.36H65.11l.31-.42h1.15v-3a7.08,7.08,0,0,0,4.59-1.57v4.6h3.78l-.31.42H71.16v9.26c0,1.4.53,2.86,1.85,2.86A4.17,4.17,0,0,0,75.67,83.05Z"/><path class="cls-2" d="M83.67,71.09c-1.65.2-2.21,1.6-2.21,7.06,0,5.27.56,7,2.21,7.17v.17a7.13,7.13,0,0,1-7-7.34,7,7,0,0,1,7-7.22Zm8.07,7.06a7.14,7.14,0,0,1-6.95,7.34v-.17c1.66-.17,2.19-1.93,2.19-7.17,0-5.49-.56-6.89-2.19-7.06v-.16A7,7,0,0,1,91.74,78.15Z"/><path class="cls-2" d="M100.31,83.61c0,.7.42,1.43,2.1,1.43v.17H93.59V85c1.68,0,2.1-.73,2.1-1.43V73.67c0-1-.48-1.48-2.08-1.48V72a17.21,17.21,0,0,0,6.7-1.09ZM107.87,74A3,3,0,0,1,105,77.14a1.91,1.91,0,0,1-1.59-.61,2.05,2.05,0,0,0,1.09-1.91,1.49,1.49,0,0,0-1.57-1.51,1.91,1.91,0,0,0-1.68,1.07V74a3.87,3.87,0,0,1,3.64-3A2.84,2.84,0,0,1,107.87,74Z"/><path class="cls-2" d="M116.55,71.09c-1.66.2-2.38,1.6-2.38,7,0,4,2,6.24,4.53,6.24a6.08,6.08,0,0,0,4.09-1.48V83a7.86,7.86,0,0,1-5.94,2.52,7.32,7.32,0,0,1-7.47-7.34,7.17,7.17,0,0,1,7.17-7.22Zm6.21,3a2.6,2.6,0,0,1-2.8,2.69A2.37,2.37,0,0,1,117.53,75a2.4,2.4,0,0,0,1.34-2,1.67,1.67,0,0,0-1.2-1.85v-.19C121.33,70.93,122.76,72.5,122.76,74.09Z"/><path class="cls-2" d="M125.09,72.36a1.52,1.52,0,0,0-1.54-1v-.17h7.84v.17c-1,0-1.38.67-.9,1.65l3.67,7.64-2.41,4.54h-.17Zm-1.24,17.36a2.94,2.94,0,0,1,2.47-2.64,2,2,0,0,0-.11.7,1.64,1.64,0,0,0,1.65,1.88c1,0,1.76-1,2.83-2.83h.19c-1.54,2.89-2.6,5.38-4.56,5.38A2.33,2.33,0,0,1,123.85,89.72Zm11.48-11.79a7.63,7.63,0,0,0,.79-3.61,2.71,2.71,0,0,0-2.86-2.94v-.17h7v.17c-.92,0-1.28.36-1.82,1.31l-2.91,5.49Z"/><path class="cls-2" d="M147.54,71.09c-1.65.2-2.38,1.6-2.38,7,0,4,2.05,6.24,4.54,6.24a6.09,6.09,0,0,0,4.09-1.48V83a7.86,7.86,0,0,1-5.94,2.52,7.33,7.33,0,0,1-7.48-7.34,7.18,7.18,0,0,1,7.17-7.22Zm6.22,3a2.6,2.6,0,0,1-2.8,2.69A2.39,2.39,0,0,1,148.52,75a2.39,2.39,0,0,0,1.35-2,1.67,1.67,0,0,0-1.21-1.85v-.19C152.33,70.93,153.76,72.5,153.76,74.09Z"/><path class="cls-2" d="M155.21,65.72a17.21,17.21,0,0,0,6.7-1.09v19c0,.7.42,1.43,2.1,1.43v.17h-8.82V85c1.68,0,2.1-.73,2.1-1.43V67.37c0-1-.48-1.48-2.08-1.48Z"/><path class="cls-2" d="M165.69,78.15a6.93,6.93,0,0,1,6.86-7.22v.16c-1.66.2-2.1,1.6-2.1,7,0,4,1.79,6.24,4.28,6.24a6.08,6.08,0,0,0,4.09-1.48V83a7.86,7.86,0,0,1-5.94,2.52A7.09,7.09,0,0,1,165.69,78.15ZM172,77c2.46,0,3.5-.78,3.5-3.13,0-1.34-.56-2.58-1.82-2.75v-.16c3.69,0,5.48,2.63,5.48,4.76a7.75,7.75,0,0,1-.14,1.45h-7Z"/><path class="cls-2" d="M19.08,102a17.19,17.19,0,0,0,6.69-1.09v12.71c0,.7.42,1.43,2.1,1.43v.17H19.05V115c1.68,0,2.1-.73,2.1-1.43v-10c0-1-.47-1.48-2.07-1.48Zm1.43-5.26c0-1.46,1.17-2.44,2.85-2.44s2.86,1,2.86,2.44S25,99.19,23.36,99.19,20.51,98.21,20.51,96.73Z"/><path class="cls-2" d="M29.05,115c1.68,0,2.1-.73,2.1-1.43v-9.94c0-1-.48-1.48-2.07-1.48V102a17.19,17.19,0,0,0,6.69-1.09v12.68c0,.7.42,1.43,2.1,1.43v.17H29.05Zm9.85,0c1.66,0,2.07-.73,2.07-1.43v-8.73c0-1.57-.81-2.38-2.21-2.38a3,3,0,0,0-2.13.86v-.16a5.72,5.72,0,0,1,4.65-2.27c2.52,0,4.31,1.17,4.31,3.95v8.73c0,.7.42,1.43,2.1,1.43v.17H38.9Z"/><path class="cls-2" d="M54.08,111.88a1.43,1.43,0,0,0-1.57,1.4c0,.81.56,1.84,2.49,2v.17c-3.72-.14-5.76-1.15-5.76-2.77a2.19,2.19,0,0,1,2.38-2.08A2.85,2.85,0,0,1,54.08,111.88ZM55,101.09c-1,.2-2,.73-2,1.88.08,3.25,9.15,3.78,9.15,8.23,0,2.72-2.29,4.15-5.9,4.29v-.17c1.17-.2,2.49-.62,2.49-2.07,0-2.91-9.19-4-9.19-8.24,0-2.46,2.33-3.94,5.46-4.08Zm6.61,2.72a1.83,1.83,0,0,1-2.07,1.74,2.4,2.4,0,0,1-2.38-1.35,1.24,1.24,0,0,0,1.26-1.31c0-.84-1.07-1.65-2.18-1.8v-.16C59.4,101.09,61.61,102.24,61.61,103.81Z"/><path class="cls-2" d="M70.4,111.54c0,1.57.53,2.38,1.93,2.38a2.47,2.47,0,0,0,1.94-.87v.17a4.69,4.69,0,0,1-4.34,2.27c-2.52,0-4.15-1.18-4.15-3.95v-7.87c0-1-.47-1.48-2.07-1.48V102a17.19,17.19,0,0,0,6.69-1.09Zm9.33,1.79c0,.81.25,1.15.75,1.15s.9-.42,1.35-1.26H82c-.44,1.54-2,2.27-3.8,2.27s-3.08-1.12-3.08-2.75v-9.07c0-1-.48-1.48-2-1.48V102a18.28,18.28,0,0,0,6.61-1.09Z"/><path class="cls-2" d="M89.83,113.61c0,.7.42,1.43,2.1,1.43v.17H83.11V115c1.68,0,2.1-.73,2.1-1.43v-9.94c0-1-.47-1.48-2.07-1.48V102a17.12,17.12,0,0,0,6.69-1.09ZM97.39,104a3,3,0,0,1-2.88,3.19,1.94,1.94,0,0,1-1.6-.61,2,2,0,0,0,1.1-1.91,1.49,1.49,0,0,0-1.57-1.51,1.91,1.91,0,0,0-1.68,1.07V104a3.87,3.87,0,0,1,3.64-3A2.84,2.84,0,0,1,97.39,104Z"/><path class="cls-2" d="M98.6,111.9c0-2.43,2.24-3.81,5.37-3.81h3v.17h-.84a2.78,2.78,0,0,0-3,3.06c0,1.54.45,2.71,1.76,2.71a3.08,3.08,0,0,0,2-1v.17a6,6,0,0,1-4.45,2.27C100.17,115.49,98.57,114.14,98.6,111.9ZM99.72,104c0-1.43,1.29-2.89,5.09-3v.16a2.05,2.05,0,0,0-1.79,2c0,1,.7,1.62,1.82,1.71a3.16,3.16,0,0,1-2.69,1.34A2.23,2.23,0,0,1,99.72,104Zm8.12,8.34v-8.56c0-1.38-.53-2.47-1.91-2.67v-.16c4.65.16,6.5,1.93,6.5,5.6v6.8c0,.81.28,1.15.78,1.15s.9-.42,1.35-1.26h.17c-.45,1.54-2,2.27-3.64,2.27C108.85,115.49,107.84,114.7,107.84,112.32Z"/><path class="cls-2" d="M115.59,115c1.68,0,2.1-.73,2.1-1.43v-9.94c0-1-.47-1.48-2.07-1.48V102a17.12,17.12,0,0,0,6.69-1.09v12.68c0,.7.42,1.43,2.1,1.43v.17h-8.82Zm9.86,0c1.65,0,2.07-.73,2.07-1.43v-8.73c0-1.57-.81-2.38-2.21-2.38a3,3,0,0,0-2.13.86v-.16a5.72,5.72,0,0,1,4.65-2.27c2.52,0,4.31,1.17,4.31,3.95v8.73c0,.7.42,1.43,2.1,1.43v.17h-8.79Z"/><path class="cls-2" d="M142.92,101.09c-1.65.2-2.38,1.6-2.38,7,0,4,2.05,6.24,4.54,6.24a6.09,6.09,0,0,0,4.09-1.48V113a7.86,7.86,0,0,1-5.94,2.52,7.33,7.33,0,0,1-7.48-7.34,7.18,7.18,0,0,1,7.17-7.22Zm6.22,3a2.6,2.6,0,0,1-2.8,2.69A2.39,2.39,0,0,1,143.9,105a2.39,2.39,0,0,0,1.35-2,1.67,1.67,0,0,0-1.21-1.85v-.19C147.71,100.93,149.14,102.5,149.14,104.09Z"/><path class="cls-2" d="M151.24,108.15a6.93,6.93,0,0,1,6.86-7.22v.16c-1.65.2-2.1,1.6-2.1,7,0,4,1.79,6.24,4.28,6.24a6.08,6.08,0,0,0,4.09-1.48V113a7.86,7.86,0,0,1-5.94,2.52A7.09,7.09,0,0,1,151.24,108.15Zm6.3-1.18c2.46,0,3.5-.78,3.5-3.13,0-1.34-.56-2.58-1.82-2.75v-.16c3.69,0,5.49,2.63,5.49,4.76a8.69,8.69,0,0,1-.14,1.45h-7Z"/></svg>