<?xml version="1.0" encoding="utf-8"?>
<!-- Generator: Adobe Illustrator 24.0.3, SVG Export Plug-In . SVG Version: 6.00 Build 0)  -->
<svg version="1.1" id="Layer_1" xmlns="http://www.w3.org/2000/svg" xmlns:xlink="http://www.w3.org/1999/xlink" x="0px" y="0px"
	 viewBox="0 0 320 50" style="enable-background:new 0 0 320 50;" xml:space="preserve">
<style type="text/css">
	.st0{clip-path:url(#SVGID_2_);}
	.st1{enable-background:new    ;}
	.st2{fill:#263845;}
</style>
<title>Artboard 1 copy 2</title>
<g>
	<defs>
		<rect id="SVGID_1_" y="0" width="320" height="50"/>
	</defs>
	<clipPath id="SVGID_2_">
		<use xlink:href="#SVGID_1_"  style="overflow:visible;"/>
	</clipPath>
	<g class="st0">
		<g class="st1">
			<path class="st2" d="M17.9,20.6v0.1h-6.1v-0.1c1.1,0,1.4-0.5,1.4-1V8.8c0-0.6-0.3-1-1.4-1V7.8h4.7v11.9
				C16.5,20.2,16.7,20.6,17.9,20.6z M25.4,19.4c-0.3,1.1-1.4,1.5-2.8,1.5c-2.5,0-3.1-1.7-3.2-3.3c-0.1-1.6-0.3-2.8-1.9-3v-0.1
				c1.8,0,2.5-1.5,2.5-3.4c0-2.1-0.8-3.2-2.5-3.2V7.8c3.9,0,5.8,0.9,5.8,3.3c0,2.1-1.5,3.3-4.4,3.5c3.5,0.2,4,1.5,4.2,3.1
				c0.2,1.5,0.6,2.6,1.3,2.6c0.3,0,0.6-0.3,1-0.9H25.4z"/>
		</g>
		<g class="st1">
			<path class="st2" d="M25.8,15.9c0-3.2,2.4-4.9,4.7-4.9v0.1c-1.1,0.1-1.4,1.1-1.4,4.7c0,2.8,1.2,4.3,2.9,4.3c1.1,0,1.9-0.3,2.8-1
				v0.1c-1,1.3-2.8,1.7-4.1,1.7C28.2,20.9,25.8,19.1,25.8,15.9z M30.1,15.1c1.7,0,2.4-0.5,2.4-2.1c0-0.9-0.4-1.8-1.2-1.9V11
				c2.5,0,3.7,1.8,3.7,3.2c0,0.3,0,0.7-0.1,1h-4.8V15.1z"/>
			<path class="st2" d="M36.3,18.5c0-1.7,1.5-2.6,3.7-2.6h2.1V16h-0.6c-1.4,0-2,0.9-2,2.1c0,1.1,0.3,1.9,1.2,1.9
				c0.5,0,1-0.3,1.4-0.7v0.1c-0.6,0.7-1.6,1.5-3,1.5C37.4,20.9,36.3,20,36.3,18.5z M37.1,13.1c0-1,0.9-2,3.5-2.1v0.1
				c-0.8,0.1-1.2,0.7-1.2,1.4c0,0.7,0.5,1.1,1.2,1.2c-0.3,0.5-1.1,0.9-1.8,0.9C37.7,14.6,37.1,13.9,37.1,13.1z M42.6,18.8v-5.8
				c0-0.9-0.4-1.7-1.3-1.8V11c3.2,0.1,4.4,1.3,4.4,3.8v4.6c0,0.6,0.2,0.8,0.5,0.8c0.3,0,0.6-0.3,0.9-0.9h0.1
				c-0.3,1.1-1.3,1.5-2.5,1.5C43.3,20.9,42.6,20.4,42.6,18.8z"/>
			<path class="st2" d="M47.8,7.5c1.8,0,3.2-0.2,4.6-0.7v13c0,0.5,0.3,1,1.4,1v0.1h-6v-0.1c1.1,0,1.4-0.5,1.4-1V8.6
				c0-0.7-0.3-1-1.4-1V7.5z"/>
		</g>
		<g class="st1">
			<path class="st2" d="M63,12.4l2.5,5.2l-1.6,3.1h-0.1L59.3,12c-0.2-0.4-0.5-0.7-1.1-0.7v-0.1h5.3v0.1C62.9,11.3,62.7,11.8,63,12.4
				z M69.3,12.4l2.5,5.2l-1.6,3.1H70l-3-5.9L66.4,16l-0.1-0.2c0.3-0.6,0.4-1.6,0.2-2.1L65.6,12c-0.2-0.4-0.5-0.7-1.1-0.7v-0.1h5.3
				v0.1C69.2,11.3,68.9,11.8,69.3,12.4z M75.9,11.2v0.1c-0.6,0-0.9,0.2-1.2,0.9l-2,3.7l-0.1-0.2c0.3-0.6,0.5-1.4,0.5-2.5
				c0-1.1-0.6-2-1.9-2v-0.1H75.9z"/>
		</g>
		<g class="st1">
			<path class="st2" d="M80.8,11.1c-1.1,0.1-1.5,1.1-1.5,4.8c0,3.6,0.4,4.8,1.5,4.9v0.1c-2.2,0-4.8-1.8-4.8-5c0-3.2,2.5-4.9,4.8-4.9
				V11.1z M86.3,15.9c0,3.2-2.5,5-4.7,5v-0.1c1.1-0.1,1.5-1.3,1.5-4.9c0-3.7-0.4-4.7-1.5-4.8V11C83.8,11,86.3,12.7,86.3,15.9z"/>
			<path class="st2" d="M92.2,19.7c0,0.5,0.3,1,1.4,1v0.1h-6v-0.1c1.1,0,1.4-0.5,1.4-1v-6.8c0-0.7-0.3-1-1.4-1v-0.1
				c1.8,0,3.2-0.2,4.6-0.7V19.7z M97.3,13.1c0,1.3-0.9,2.2-2,2.2c-0.5,0-0.9-0.1-1.1-0.4c0.4-0.2,0.7-0.6,0.7-1.3c0-0.6-0.4-1-1.1-1
				c-0.5,0-0.9,0.3-1.1,0.7v-0.2c0.4-1.2,1.3-2.1,2.5-2.1C96.6,11,97.3,11.9,97.3,13.1z"/>
			<path class="st2" d="M98.1,7.5c1.8,0,3.2-0.2,4.6-0.7v13c0,0.5,0.3,1,1.4,1v0.1h-6v-0.1c1.1,0,1.4-0.5,1.4-1V8.6
				c0-0.7-0.3-1-1.4-1V7.5z"/>
			<path class="st2" d="M112,12.5v0.2c-0.4-0.5-1-0.7-1.6-0.7c-1,0-1.9,0.4-1.9,3.9c0,3.4,1,4.1,1.9,4.1c0.6,0,1.1-0.3,1.6-0.7v0.1
				c-0.5,0.8-1.7,1.5-2.8,1.5c-1.8,0-3.9-1.1-3.9-5.1c0-3.8,2.1-4.9,3.9-4.9C110.3,11,111.5,11.7,112,12.5z M115.7,19.5
				c0,0.6,0.2,0.8,0.5,0.8c0.3,0,0.6-0.3,0.9-0.9h0.1c-0.3,1.1-1.3,1.5-2.5,1.5c-1.5,0-2.2-0.5-2.2-2.2V8.6c0-0.7-0.3-1-1.4-1V7.5
				c1.8,0,3-0.2,4.6-0.7V19.5z"/>
		</g>
		<g class="st1">
			<path class="st2" d="M129.4,20.6v0.1h-6.1v-0.1c1.1,0,1.4-0.5,1.4-1V8.8c0-0.6-0.3-1-1.4-1V7.8h4.7v11.9
				C127.9,20.2,128.2,20.6,129.4,20.6z M136.8,19.4c-0.3,1.1-1.4,1.5-2.8,1.5c-2.5,0-3.1-1.7-3.2-3.3c-0.1-1.6-0.3-2.8-1.9-3v-0.1
				c1.8,0,2.5-1.5,2.5-3.4c0-2.1-0.8-3.2-2.5-3.2V7.8c3.9,0,5.8,0.9,5.8,3.3c0,2.1-1.5,3.3-4.4,3.5c3.5,0.2,4,1.5,4.2,3.1
				c0.2,1.5,0.6,2.6,1.3,2.6c0.3,0,0.6-0.3,1-0.9H136.8z"/>
		</g>
		<g class="st1">
			<path class="st2" d="M137.1,8.9c-0.3-0.7-0.8-1-1.7-1V7.8h6.9v0.1c-0.9,0-1.7,0.6-1.2,1.6l3.6,7.6l-1.7,3.9h-0.2L137.1,8.9z
				 M145.5,15.3c1.1-2.6,1.4-4.1,1.4-5.3c0-1.4-1.2-2.1-2.2-2.1V7.8h5.5v0.1c-0.9,0-1.4,0.8-2,2.1l-2.6,5.5L145.5,15.3z"/>
		</g>
		<g class="st1">
			<path class="st2" d="M11.4,31.9c1.8,0,3.2-0.2,4.6-0.7v8.7c0,0.5,0.3,1,1.4,1v0.1h-6v-0.1c1.1,0,1.4-0.5,1.4-1V33
				c0-0.7-0.3-1-1.4-1V31.9z M12.4,28.3c0-1,0.8-1.7,1.9-1.7c1.1,0,1.9,0.7,1.9,1.7c0,1-0.8,1.7-1.9,1.7
				C13.2,30,12.4,29.3,12.4,28.3z"/>
			<path class="st2" d="M18.2,40.8c1.1,0,1.4-0.5,1.4-1v-6.8c0-0.7-0.3-1-1.4-1v-0.1c1.8,0,3.2-0.2,4.6-0.7v8.7c0,0.5,0.3,1,1.4,1
				v0.1h-6V40.8z M25,40.8c1.1,0,1.4-0.5,1.4-1v-6c0-1.1-0.6-1.6-1.5-1.6c-0.5,0-1,0.2-1.5,0.6v-0.1c0.5-0.8,1.8-1.5,3.2-1.5
				c1.7,0,2.9,0.8,2.9,2.7v6c0,0.5,0.3,1,1.4,1v0.1h-6V40.8z"/>
			<path class="st2" d="M35.3,38.7c-0.6,0-1.1,0.4-1.1,1c0,0.6,0.4,1.3,1.7,1.4v0.1C33.4,41,32,40.3,32,39.2c0-0.9,0.8-1.4,1.6-1.4
				C34.4,37.8,35,38.2,35.3,38.7z M36,31.3c-0.7,0.1-1.4,0.5-1.4,1.3c0.1,2.2,6.2,2.6,6.2,5.6c0,1.9-1.6,2.8-4,2.9V41
				c0.8-0.1,1.7-0.4,1.7-1.4c0-2-6.3-2.7-6.3-5.6c0-1.7,1.6-2.7,3.7-2.8V31.3z M40.5,33.2c0,0.6-0.5,1.2-1.4,1.2
				c-0.8,0-1.4-0.3-1.6-0.9c0.6,0,0.9-0.4,0.9-0.9c0-0.6-0.7-1.1-1.5-1.2v-0.1C39,31.3,40.5,32.1,40.5,33.2z"/>
			<path class="st2" d="M46.5,38.4c0,1.1,0.4,1.6,1.3,1.6c0.5,0,0.9-0.2,1.3-0.6v0.1c-0.4,0.8-1.4,1.5-3,1.5c-1.7,0-2.8-0.8-2.8-2.7
				v-5.4c0-0.7-0.3-1-1.4-1v-0.1c1.8,0,3.2-0.2,4.6-0.7V38.4z M52.8,39.6c0,0.6,0.2,0.8,0.5,0.8c0.3,0,0.6-0.3,0.9-0.9h0.1
				c-0.3,1.1-1.3,1.5-2.6,1.5c-1.3,0-2.1-0.8-2.1-1.9v-6.2c0-0.7-0.3-1-1.4-1v-0.1c1.7,0,2.9-0.2,4.5-0.7V39.6z"/>
		</g>
		<g class="st1">
			<path class="st2" d="M59.7,39.8c0,0.5,0.3,1,1.4,1v0.1h-6v-0.1c1.1,0,1.4-0.5,1.4-1v-6.8c0-0.7-0.3-1-1.4-1v-0.1
				c1.8,0,3.2-0.2,4.6-0.7V39.8z M64.9,33.3c0,1.3-0.9,2.2-2,2.2c-0.5,0-0.9-0.1-1.1-0.4c0.4-0.2,0.7-0.6,0.7-1.3c0-0.6-0.4-1-1.1-1
				c-0.5,0-0.9,0.3-1.1,0.7v-0.2c0.4-1.2,1.3-2.1,2.5-2.1C64.2,31.2,64.9,32.1,64.9,33.3z"/>
		</g>
		<g class="st1">
			<path class="st2" d="M65.7,38.7c0-1.7,1.5-2.6,3.7-2.6h2.1v0.1h-0.6c-1.4,0-2,0.9-2,2.1c0,1.1,0.3,1.9,1.2,1.9
				c0.5,0,1-0.3,1.4-0.7v0.1c-0.6,0.7-1.6,1.5-3,1.5C66.8,41.1,65.7,40.2,65.7,38.7z M66.5,33.3c0-1,0.9-2,3.5-2.1v0.1
				c-0.8,0.1-1.2,0.7-1.2,1.4c0,0.7,0.5,1.1,1.2,1.2c-0.3,0.5-1.1,0.9-1.8,0.9C67.1,34.8,66.5,34.1,66.5,33.3z M72,39v-5.8
				c0-0.9-0.4-1.7-1.3-1.8v-0.1c3.2,0.1,4.4,1.3,4.4,3.8v4.6c0,0.6,0.2,0.8,0.5,0.8c0.3,0,0.6-0.3,0.9-0.9h0.1
				c-0.3,1.1-1.3,1.5-2.5,1.5C72.7,41.1,72,40.6,72,39z"/>
			<path class="st2" d="M77.3,40.8c1.1,0,1.4-0.5,1.4-1v-6.8c0-0.7-0.3-1-1.4-1v-0.1c1.8,0,3.2-0.2,4.6-0.7v8.7c0,0.5,0.3,1,1.4,1
				v0.1h-6V40.8z M84,40.8c1.1,0,1.4-0.5,1.4-1v-6c0-1.1-0.6-1.6-1.5-1.6c-0.5,0-1,0.2-1.5,0.6v-0.1c0.5-0.8,1.8-1.5,3.2-1.5
				c1.7,0,2.9,0.8,2.9,2.7v6c0,0.5,0.3,1,1.4,1v0.1h-6V40.8z"/>
			<path class="st2" d="M96,31.3c-1.1,0.1-1.6,1.1-1.6,4.7c0,2.8,1.4,4.3,3.1,4.3c1.1,0,1.9-0.3,2.8-1v0.1c-1,1.3-2.8,1.7-4,1.7
				c-2.4,0-5.1-1.8-5.1-5c0-3.2,2.7-4.9,4.9-4.9V31.3z M100.2,33.3c0,1-0.7,1.8-1.9,1.8c-0.9,0-1.5-0.6-1.7-1.2
				c0.5-0.2,0.9-0.9,0.9-1.4c0-0.4-0.1-1.1-0.8-1.3v-0.1C99.2,31.2,100.2,32.3,100.2,33.3z"/>
			<path class="st2" d="M101.6,36.1c0-3.2,2.4-4.9,4.7-4.9v0.1c-1.1,0.1-1.4,1.1-1.4,4.7c0,2.8,1.2,4.3,2.9,4.3c1.1,0,1.9-0.3,2.8-1
				v0.1c-1,1.3-2.8,1.7-4.1,1.7C104.1,41.1,101.6,39.3,101.6,36.1z M105.9,35.3c1.7,0,2.4-0.5,2.4-2.1c0-0.9-0.4-1.8-1.2-1.9v-0.1
				c2.5,0,3.7,1.8,3.7,3.2c0,0.3,0,0.7-0.1,1h-4.8V35.3z"/>
		</g>
	</g>
</g>
</svg>
