<?xml version="1.0" encoding="utf-8"?>
<!-- Generator: Adobe Illustrator 24.0.3, SVG Export Plug-In . SVG Version: 6.00 Build 0)  -->
<svg version="1.1" id="Layer_1" xmlns="http://www.w3.org/2000/svg" xmlns:xlink="http://www.w3.org/1999/xlink" x="0px" y="0px"
	 viewBox="0 0 320 50" style="enable-background:new 0 0 320 50;" xml:space="preserve">
<style type="text/css">
	.st0{clip-path:url(#SVGID_2_);}
	.st1{enable-background:new    ;}
	.st2{fill:#FFFFFF;}
</style>
<title>Artboard 1 copy</title>
<g>
	<defs>
		<rect id="SVGID_1_" y="0" width="320" height="50"/>
	</defs>
	<clipPath id="SVGID_2_">
		<use xlink:href="#SVGID_1_"  style="overflow:visible;"/>
	</clipPath>
	<g class="st0">
		<g class="st1">
			<path class="st2" d="M23.4,18.5l0.1,0.2c-1,1.6-2.8,2.3-4.6,2.3c-3.1,0-7-2.2-7-6.7c0-4.8,3.8-6.6,6.5-6.7v0.1
				c-1.3,0.3-2.8,1.5-2.8,6.5c0,4.9,2,6,4.1,6C21.5,20.2,22.7,19.3,23.4,18.5z M23.5,7.6v4.6h-0.2c-0.7-2.5-2.2-4-4-4.5V7.6
				C21,7.6,22,7.9,22.8,8.4l0.6-0.9H23.5z"/>
			<path class="st2" d="M29.3,19.7c0,0.5,0.3,1,1.4,1v0.1h-6v-0.1c1.1,0,1.4-0.5,1.4-1V8.6c0-0.7-0.3-1-1.4-1V7.5
				c1.8,0,3.2-0.2,4.6-0.7V19.7z M36,13.7v6c0,0.5,0.3,1,1.4,1v0.1h-6v-0.1c1.1,0,1.4-0.5,1.4-1v-6c0-1.1-0.6-1.6-1.5-1.6
				c-0.5,0-1,0.2-1.5,0.6v-0.1c0.5-0.8,1.8-1.5,3.2-1.5C34.8,11,36,11.8,36,13.7z"/>
			<path class="st2" d="M43.2,11.1c-1.1,0.1-1.5,1.1-1.5,4.8c0,3.6,0.4,4.8,1.5,4.9v0.1c-2.2,0-4.8-1.8-4.8-5c0-3.2,2.5-4.9,4.8-4.9
				V11.1z M48.7,15.9c0,3.2-2.5,5-4.7,5v-0.1c1.1-0.1,1.5-1.3,1.5-4.9c0-3.7-0.4-4.7-1.5-4.8V11C46.2,11,48.7,12.7,48.7,15.9z"/>
			<path class="st2" d="M55.1,11.1c-1.1,0.1-1.5,1.1-1.5,4.8c0,3.6,0.4,4.8,1.5,4.9v0.1c-2.2,0-4.8-1.8-4.8-5c0-3.2,2.5-4.9,4.8-4.9
				V11.1z M60.6,15.9c0,3.2-2.5,5-4.7,5v-0.1c1.1-0.1,1.5-1.3,1.5-4.9c0-3.7-0.4-4.7-1.5-4.8V11C58.1,11,60.6,12.7,60.6,15.9z"/>
			<path class="st2" d="M65.5,18.5c-0.6,0-1.1,0.4-1.1,1c0,0.6,0.4,1.3,1.7,1.4v0.1c-2.5-0.1-3.9-0.8-3.9-1.9c0-0.9,0.8-1.4,1.6-1.4
				C64.6,17.6,65.2,18,65.5,18.5z M66.2,11.1c-0.7,0.1-1.4,0.5-1.4,1.3C64.8,14.6,71,15,71,18c0,1.9-1.6,2.8-4,2.9v-0.1
				c0.8-0.1,1.7-0.4,1.7-1.4c0-2-6.3-2.7-6.3-5.6c0-1.7,1.6-2.7,3.7-2.8V11.1z M70.7,13c0,0.6-0.5,1.2-1.4,1.2
				c-0.8,0-1.4-0.3-1.6-0.9c0.6,0,0.9-0.4,0.9-0.9c0-0.6-0.7-1.1-1.5-1.2V11C69.2,11.1,70.7,11.9,70.7,13z"/>
			<path class="st2" d="M72.6,15.9c0-3.2,2.4-4.9,4.7-4.9v0.1c-1.1,0.1-1.4,1.1-1.4,4.7c0,2.8,1.2,4.3,2.9,4.3c1.1,0,1.9-0.3,2.8-1
				v0.1c-1,1.3-2.8,1.7-4.1,1.7C75.1,20.9,72.6,19.1,72.6,15.9z M76.9,15.1c1.7,0,2.4-0.5,2.4-2.1c0-0.9-0.4-1.8-1.2-1.9V11
				c2.5,0,3.7,1.8,3.7,3.2c0,0.3,0,0.7-0.1,1h-4.8V15.1z"/>
		</g>
		<g class="st1">
			<path class="st2" d="M16.6,41v0.1c-1.5,0-2.7-0.3-3.7-0.9l-0.6,0.9h-0.2v-4.7h0.2C12.9,38.6,14.3,40.2,16.6,41z M22.2,37.2
				c0,2.5-1.8,3.8-4.8,3.9V41c1.1-0.2,2.1-0.8,2.1-1.9c0-3.3-7.3-3.6-7.3-7.5c0-2.3,1.9-3.6,4.4-3.8v0.1c-0.9,0.2-1.7,0.7-1.7,1.8
				C14.9,33,22.2,33.3,22.2,37.2z M17.4,27.9v-0.1c1.4,0.1,2.6,0.4,3.4,1l0.7-1h0.2V32h-0.2C21,30,19.3,28.3,17.4,27.9z"/>
		</g>
		<g class="st1">
			<path class="st2" d="M31,39.5v0.1c-0.6,0.9-1.8,1.5-3.3,1.5c-1.7,0-2.9-0.8-2.9-2.7v-6.3h-1l0.2-0.3h0.8v-2.1
				c1.2,0,2.3-0.4,3.1-1.1v3.1h2.6l-0.2,0.3h-2.4v6.3c0,1,0.4,1.9,1.3,1.9C29.7,40.4,30.3,40.1,31,39.5z"/>
			<path class="st2" d="M31.6,38.7c0-1.7,1.5-2.6,3.7-2.6h2.1v0.1h-0.6c-1.4,0-2,0.9-2,2.1c0,1.1,0.3,1.9,1.2,1.9
				c0.5,0,1-0.3,1.4-0.7v0.1c-0.6,0.7-1.6,1.5-3,1.5C32.6,41.1,31.5,40.2,31.6,38.7z M32.3,33.3c0-1,0.9-2,3.5-2.1v0.1
				c-0.8,0.1-1.2,0.7-1.2,1.4c0,0.7,0.5,1.1,1.2,1.2c-0.3,0.5-1.1,0.9-1.8,0.9C32.9,34.8,32.3,34.1,32.3,33.3z M37.9,39v-5.8
				c0-0.9-0.4-1.7-1.3-1.8v-0.1c3.2,0.1,4.4,1.3,4.4,3.8v4.6c0,0.6,0.2,0.8,0.5,0.8c0.3,0,0.6-0.3,0.9-0.9h0.1
				c-0.3,1.1-1.3,1.5-2.5,1.5C38.6,41.1,37.9,40.6,37.9,39z"/>
		</g>
		<g class="st1">
			<path class="st2" d="M47.8,39.8c0,0.5,0.3,1,1.4,1v0.1h-6v-0.1c1.1,0,1.4-0.5,1.4-1v-6.8c0-0.7-0.3-1-1.4-1v-0.1
				c1.8,0,3.2-0.2,4.6-0.7V39.8z M52.9,33.3c0,1.3-0.9,2.2-2,2.2c-0.5,0-0.9-0.1-1.1-0.4c0.4-0.2,0.7-0.6,0.7-1.3c0-0.6-0.4-1-1.1-1
				c-0.5,0-0.9,0.3-1.1,0.7v-0.2c0.4-1.2,1.3-2.1,2.5-2.1C52.2,31.2,52.9,32.1,52.9,33.3z"/>
		</g>
		<g class="st1">
			<path class="st2" d="M70.1,38.7l0.1,0.2c-1,1.6-2.8,2.3-4.6,2.3c-3.1,0-7-2.2-7-6.7c0-4.8,3.8-6.6,6.5-6.7v0.1
				c-1.3,0.3-2.8,1.5-2.8,6.5c0,4.9,2,6,4.1,6C68.1,40.4,69.4,39.5,70.1,38.7z M70.2,27.7v4.6h-0.2c-0.7-2.5-2.2-4-4-4.5v-0.1
				c1.7,0.1,2.7,0.4,3.5,0.9l0.6-0.9H70.2z"/>
			<path class="st2" d="M71.7,38.7c0-1.7,1.5-2.6,3.7-2.6h2.1v0.1h-0.6c-1.4,0-2,0.9-2,2.1c0,1.1,0.3,1.9,1.2,1.9
				c0.5,0,1-0.3,1.4-0.7v0.1c-0.6,0.7-1.6,1.5-3,1.5C72.7,41.1,71.6,40.2,71.7,38.7z M72.4,33.3c0-1,0.9-2,3.5-2.1v0.1
				c-0.8,0.1-1.2,0.7-1.2,1.4c0,0.7,0.5,1.1,1.2,1.2c-0.3,0.5-1.1,0.9-1.8,0.9C73,34.8,72.4,34.1,72.4,33.3z M78,39v-5.8
				c0-0.9-0.4-1.7-1.3-1.8v-0.1c3.2,0.1,4.4,1.3,4.4,3.8v4.6c0,0.6,0.2,0.8,0.5,0.8c0.3,0,0.6-0.3,0.9-0.9h0.1
				c-0.3,1.1-1.3,1.5-2.5,1.5C78.7,41.1,78,40.6,78,39z"/>
			<path class="st2" d="M87.8,39.8c0,0.5,0.3,1,1.4,1v0.1h-6v-0.1c1.1,0,1.4-0.5,1.4-1v-6.8c0-0.7-0.3-1-1.4-1v-0.1
				c1.8,0,3.2-0.2,4.6-0.7V39.8z M94.2,33.9v6c0,0.5,0.3,1,1.4,1v0.1h-6v-0.1c1.1,0,1.4-0.5,1.4-1v-6c0-1.1-0.4-1.6-1.3-1.6
				c-0.5,0-1,0.3-1.3,0.6v-0.1c0.4-0.8,1.4-1.5,2.8-1.5C93,31.2,94.2,32,94.2,33.9z M100.5,33.9v6c0,0.5,0.3,1,1.4,1v0.1h-6v-0.1
				c1.1,0,1.4-0.5,1.4-1v-6c0-1.1-0.4-1.6-1.3-1.6c-0.5,0-1,0.3-1.3,0.6v-0.1c0.4-0.8,1.4-1.5,2.8-1.5
				C99.4,31.2,100.5,32,100.5,33.9z"/>
			<path class="st2" d="M107,43.8c0,0.7,0.3,1,1.4,1V45c-1.8,0-3,0.2-4.6,0.7V33c0-0.7-0.3-1-1.4-1v-0.1c1.8,0,3-0.2,4.6-0.7V43.8z
				 M114.3,36.1c0,4-2.1,5.1-3.9,5.1c-1.1,0-2.3-0.7-2.8-1.5v-0.1c0.5,0.4,1,0.7,1.6,0.7c0.9,0,1.9-0.6,1.9-4.1
				c0-3.5-0.9-3.9-1.9-3.9c-0.6,0-1.2,0.2-1.6,0.7v-0.2c0.5-0.8,1.7-1.5,2.8-1.5C112.3,31.2,114.3,32.3,114.3,36.1z"/>
			<path class="st2" d="M116,36.1c0-3.2,2.4-4.9,4.7-4.9v0.1c-1.1,0.1-1.4,1.1-1.4,4.7c0,2.8,1.2,4.3,2.9,4.3c1.1,0,1.9-0.3,2.8-1
				v0.1c-1,1.3-2.8,1.7-4,1.7C118.5,41.1,116,39.3,116,36.1z M120.3,35.3c1.7,0,2.4-0.5,2.4-2.1c0-0.9-0.4-1.8-1.2-1.9v-0.1
				c2.5,0,3.7,1.8,3.7,3.2c0,0.3,0,0.7-0.1,1h-4.8V35.3z"/>
			<path class="st2" d="M131,39.8c0,0.5,0.3,1,1.4,1v0.1h-6v-0.1c1.1,0,1.4-0.5,1.4-1v-6.8c0-0.7-0.3-1-1.4-1v-0.1
				c1.8,0,3.2-0.2,4.6-0.7V39.8z M136.2,33.3c0,1.3-0.9,2.2-2,2.2c-0.5,0-0.9-0.1-1.1-0.4c0.4-0.2,0.7-0.6,0.7-1.3
				c0-0.6-0.4-1-1.1-1c-0.5,0-0.9,0.3-1.1,0.7v-0.2c0.4-1.2,1.3-2.1,2.5-2.1C135.4,31.2,136.2,32.1,136.2,33.3z"/>
			<path class="st2" d="M149,38.7l0.1,0.2c-1,1.6-2.8,2.3-4.6,2.3c-3.1,0-7-2.2-7-6.7c0-4.8,3.8-6.6,6.5-6.7v0.1
				c-1.3,0.3-2.8,1.5-2.8,6.5c0,4.9,2,6,4.1,6C147,40.4,148.3,39.5,149,38.7z M149.1,27.7v4.6H149c-0.7-2.5-2.2-4-4-4.5v-0.1
				c1.7,0.1,2.7,0.4,3.5,0.9l0.6-0.9H149.1z"/>
			<path class="st2" d="M150.6,38.7c0-1.7,1.5-2.6,3.7-2.6h2.1v0.1h-0.6c-1.4,0-2,0.9-2,2.1c0,1.1,0.3,1.9,1.2,1.9
				c0.5,0,1-0.3,1.4-0.7v0.1c-0.6,0.7-1.6,1.5-3,1.5C151.6,41.1,150.5,40.2,150.6,38.7z M151.3,33.3c0-1,0.9-2,3.5-2.1v0.1
				c-0.8,0.1-1.2,0.7-1.2,1.4c0,0.7,0.5,1.1,1.2,1.2c-0.3,0.5-1.1,0.9-1.8,0.9C151.9,34.8,151.3,34.1,151.3,33.3z M156.9,39v-5.8
				c0-0.9-0.4-1.7-1.3-1.8v-0.1c3.2,0.1,4.4,1.3,4.4,3.8v4.6c0,0.6,0.2,0.8,0.5,0.8c0.3,0,0.6-0.3,0.9-0.9h0.1
				c-0.3,1.1-1.3,1.5-2.5,1.5C157.6,41.1,156.9,40.6,156.9,39z"/>
		</g>
		<g class="st1">
			<path class="st2" d="M166.8,39.8c0,0.5,0.3,1,1.4,1v0.1h-6v-0.1c1.1,0,1.4-0.5,1.4-1v-6.8c0-0.7-0.3-1-1.4-1v-0.1
				c1.8,0,3.2-0.2,4.6-0.7V39.8z M171.9,33.3c0,1.3-0.9,2.2-2,2.2c-0.5,0-0.9-0.1-1.1-0.4c0.4-0.2,0.7-0.6,0.7-1.3
				c0-0.6-0.4-1-1.1-1c-0.5,0-0.9,0.3-1.1,0.7v-0.2c0.4-1.2,1.3-2.1,2.5-2.1C171.2,31.2,171.9,32.1,171.9,33.3z"/>
		</g>
		<g class="st1">
			<path class="st2" d="M172.9,36.1c0-3.2,2.4-4.9,4.7-4.9v0.1c-1.1,0.1-1.4,1.1-1.4,4.7c0,2.8,1.2,4.3,2.9,4.3c1.1,0,1.9-0.3,2.8-1
				v0.1c-1,1.3-2.8,1.7-4.1,1.7C175.4,41.1,172.9,39.3,172.9,36.1z M177.2,35.3c1.7,0,2.4-0.5,2.4-2.1c0-0.9-0.4-1.8-1.2-1.9v-0.1
				c2.5,0,3.7,1.8,3.7,3.2c0,0.3,0,0.7-0.1,1h-4.8V35.3z"/>
		</g>
	</g>
</g>
</svg>
