<?xml version="1.0" encoding="utf-8"?>
<!-- Generator: Adobe Illustrator 24.0.3, SVG Export Plug-In . SVG Version: 6.00 Build 0)  -->
<svg version="1.1" id="Layer_1" xmlns="http://www.w3.org/2000/svg" xmlns:xlink="http://www.w3.org/1999/xlink" x="0px" y="0px"
	 viewBox="0 0 320 50" style="enable-background:new 0 0 320 50;" xml:space="preserve">
<style type="text/css">
	.st0{clip-path:url(#SVGID_2_);}
	.st1{enable-background:new    ;}
	.st2{fill:#FFFFFF;}
</style>
<title>Artboard 1</title>
<g>
	<defs>
		<rect id="SVGID_1_" y="0" width="320" height="50"/>
	</defs>
	<clipPath id="SVGID_2_">
		<use xlink:href="#SVGID_1_"  style="overflow:visible;"/>
	</clipPath>
	<g class="st0">
		<g class="st1">
			<path class="st2" d="M11.8,20.6c1.1,0,1.4-0.4,1.4-1V8.8c0-0.5-0.3-1-1.4-1V7.8h4.7v11.9c0,0.5,0.3,1,1.4,1v0.1h-6.1V20.6z
				 M17.4,7.9V7.8h5.3v3.8h-0.2C21.6,8.9,20.3,8.1,17.4,7.9z M18.5,14.4l-1.1-0.1v-0.1l1.1-0.1c1.1-0.1,1.9-0.6,2.5-1.6h0.2V16H21
				C20.3,14.9,19.6,14.5,18.5,14.4z"/>
		</g>
		<g class="st1">
			<path class="st2" d="M28.2,11.1c-1.1,0.1-1.5,1.1-1.5,4.8c0,3.6,0.4,4.8,1.5,4.9v0.1c-2.2,0-4.8-1.8-4.8-5c0-3.2,2.5-4.9,4.8-4.9
				V11.1z M33.7,15.9c0,3.2-2.5,5-4.7,5v-0.1c1.1-0.1,1.5-1.3,1.5-4.9c0-3.7-0.4-4.7-1.5-4.8V11C31.2,11,33.7,12.7,33.7,15.9z"/>
		</g>
		<g class="st1">
			<path class="st2" d="M39.6,19.7c0,0.5,0.3,1,1.4,1v0.1h-6v-0.1c1.1,0,1.4-0.5,1.4-1v-6.8c0-0.7-0.3-1-1.4-1v-0.1
				c1.8,0,3.2-0.2,4.6-0.7V19.7z M44.7,13.1c0,1.3-0.9,2.2-2,2.2c-0.5,0-0.9-0.1-1.1-0.4c0.4-0.2,0.7-0.6,0.7-1.3c0-0.6-0.4-1-1.1-1
				c-0.5,0-0.9,0.3-1.1,0.7v-0.2c0.4-1.2,1.3-2.1,2.5-2.1C44,11,44.7,11.9,44.7,13.1z"/>
		</g>
		<g class="st1">
			<path class="st2" d="M54.5,19.7c0,0.5,0.3,1,1.4,1v0.1h-6v-0.1c1.1,0,1.4-0.5,1.4-1v-6.8c0-0.7-0.3-1-1.4-1v-0.1
				c1.8,0,3.2-0.2,4.6-0.7V19.7z M60.8,13.7v6c0,0.5,0.3,1,1.4,1v0.1h-6v-0.1c1.1,0,1.4-0.5,1.4-1v-6c0-1.1-0.4-1.6-1.3-1.6
				c-0.5,0-1,0.3-1.3,0.6v-0.1c0.4-0.8,1.4-1.5,2.8-1.5C59.7,11,60.8,11.8,60.8,13.7z M67.1,13.7v6c0,0.5,0.3,1,1.4,1v0.1h-6v-0.1
				c1.1,0,1.4-0.5,1.4-1v-6c0-1.1-0.4-1.6-1.3-1.6c-0.5,0-1,0.3-1.3,0.6v-0.1c0.4-0.8,1.4-1.5,2.8-1.5C66,11,67.1,11.8,67.1,13.7z"
				/>
			<path class="st2" d="M74.4,11.1c-1.1,0.1-1.5,1.1-1.5,4.8c0,3.6,0.4,4.8,1.5,4.9v0.1c-2.2,0-4.8-1.8-4.8-5c0-3.2,2.5-4.9,4.8-4.9
				V11.1z M79.9,15.9c0,3.2-2.5,5-4.7,5v-0.1c1.1-0.1,1.5-1.3,1.5-4.9c0-3.7-0.4-4.7-1.5-4.8V11C77.4,11,79.9,12.7,79.9,15.9z"/>
		</g>
		<g class="st1">
			<path class="st2" d="M85.7,19.7c0,0.5,0.3,1,1.4,1v0.1h-6v-0.1c1.1,0,1.4-0.5,1.4-1v-6.8c0-0.7-0.3-1-1.4-1v-0.1
				c1.8,0,3.2-0.2,4.6-0.7V19.7z M90.9,13.1c0,1.3-0.9,2.2-2,2.2c-0.5,0-0.9-0.1-1.1-0.4c0.4-0.2,0.7-0.6,0.7-1.3c0-0.6-0.4-1-1.1-1
				c-0.5,0-0.9,0.3-1.1,0.7v-0.2c0.4-1.2,1.3-2.1,2.5-2.1C90.2,11,90.9,11.9,90.9,13.1z"/>
		</g>
		<g class="st1">
			<path class="st2" d="M91.9,15.9c0-3.2,2.4-4.9,4.7-4.9v0.1c-1.1,0.1-1.4,1.1-1.4,4.7c0,2.8,1.2,4.3,2.9,4.3c1.1,0,1.9-0.3,2.8-1
				v0.1c-1,1.3-2.8,1.7-4.1,1.7C94.4,20.9,91.9,19.1,91.9,15.9z M96.2,15.1c1.7,0,2.4-0.5,2.4-2.1c0-0.9-0.4-1.8-1.2-1.9V11
				c2.5,0,3.7,1.8,3.7,3.2c0,0.3,0,0.7-0.1,1h-4.8V15.1z"/>
		</g>
		<g class="st1">
			<path class="st2" d="M107.5,15.9c0-3.2,2.4-4.9,4.7-4.9v0.1c-1.1,0.1-1.4,1.1-1.4,4.7c0,2.8,1.2,4.3,2.9,4.3c1.1,0,1.9-0.3,2.8-1
				v0.1c-1,1.3-2.8,1.7-4.1,1.7C110,20.9,107.5,19.1,107.5,15.9z M111.8,15.1c1.7,0,2.4-0.5,2.4-2.1c0-0.9-0.4-1.8-1.2-1.9V11
				c2.5,0,3.7,1.8,3.7,3.2c0,0.3,0,0.7-0.1,1h-4.8V15.1z"/>
		</g>
		<g class="st1">
			<path class="st2" d="M118.3,12c-0.2-0.4-0.5-0.7-1.1-0.7v-0.1h5.3v0.1c-0.7,0-0.9,0.5-0.6,1.1l2.5,5.2l-1.6,3.1h-0.1L118.3,12z
				 M125.3,15.8c0.3-0.6,0.5-1.4,0.5-2.5c0-1.1-0.6-2-1.9-2v-0.1h4.8v0.1c-0.6,0-0.9,0.2-1.2,0.9l-2,3.7L125.3,15.8z"/>
		</g>
		<g class="st1">
			<path class="st2" d="M128.8,15.9c0-3.2,2.4-4.9,4.7-4.9v0.1c-1.1,0.1-1.4,1.1-1.4,4.7c0,2.8,1.2,4.3,2.9,4.3c1.1,0,1.9-0.3,2.8-1
				v0.1c-1,1.3-2.8,1.7-4.1,1.7C131.2,20.9,128.8,19.1,128.8,15.9z M133.1,15.1c1.7,0,2.4-0.5,2.4-2.1c0-0.9-0.4-1.8-1.2-1.9V11
				c2.5,0,3.7,1.8,3.7,3.2c0,0.3,0,0.7-0.1,1h-4.8V15.1z"/>
			<path class="st2" d="M143.8,19.7c0,0.5,0.3,1,1.4,1v0.1h-6v-0.1c1.1,0,1.4-0.5,1.4-1v-6.8c0-0.7-0.3-1-1.4-1v-0.1
				c1.8,0,3.2-0.2,4.6-0.7V19.7z M148.9,13.1c0,1.3-0.9,2.2-2,2.2c-0.5,0-0.9-0.1-1.1-0.4c0.4-0.2,0.7-0.6,0.7-1.3
				c0-0.6-0.4-1-1.1-1c-0.5,0-0.9,0.3-1.1,0.7v-0.2c0.4-1.2,1.3-2.1,2.5-2.1C148.2,11,148.9,11.9,148.9,13.1z"/>
			<path class="st2" d="M150.2,12c-0.2-0.4-0.5-0.7-1.1-0.7v-0.1h5.3v0.1c-0.7,0-0.9,0.5-0.6,1.1l2.5,5.2l-1.6,3.1h-0.1L150.2,12z
				 M149.4,23.8c0-0.8,0.6-1.5,1.7-1.8c-0.1,0.2-0.1,0.3-0.1,0.5c0,0.7,0.4,1.3,1.1,1.3c0.7,0,1.2-0.7,1.9-1.9h0.1
				c-1.1,2-1.8,3.7-3.1,3.7C150,25.5,149.4,24.8,149.4,23.8z M157.2,15.8c0.3-0.6,0.5-1.4,0.5-2.5c0-1.1-0.6-2-1.9-2v-0.1h4.8v0.1
				c-0.6,0-0.9,0.2-1.2,0.9l-2,3.7L157.2,15.8z"/>
			<path class="st2" d="M168.1,19.3v0.1c-0.6,0.9-1.8,1.5-3.3,1.5c-1.7,0-2.9-0.8-2.9-2.7V12h-1l0.2-0.3h0.8V9.6
				c1.2,0,2.3-0.4,3.1-1.1v3.1h2.6l-0.2,0.3H165v6.3c0,1,0.4,1.9,1.3,1.9C166.8,20.3,167.4,19.9,168.1,19.3z"/>
			<path class="st2" d="M173,19.7c0,0.5,0.3,1,1.4,1v0.1h-6v-0.1c1.1,0,1.4-0.5,1.4-1V8.6c0-0.7-0.3-1-1.4-1V7.5
				c1.8,0,3.2-0.2,4.6-0.7V19.7z M179.7,13.7v6c0,0.5,0.3,1,1.4,1v0.1h-6v-0.1c1.1,0,1.4-0.5,1.4-1v-6c0-1.1-0.6-1.6-1.5-1.6
				c-0.5,0-1,0.2-1.5,0.6v-0.1c0.5-0.8,1.8-1.5,3.2-1.5C178.5,11,179.7,11.8,179.7,13.7z"/>
			<path class="st2" d="M181.8,11.7c1.8,0,3.2-0.2,4.6-0.7v8.7c0,0.5,0.3,1,1.4,1v0.1h-6v-0.1c1.1,0,1.4-0.5,1.4-1v-6.8
				c0-0.7-0.3-1-1.4-1V11.7z M182.8,8.1c0-1,0.8-1.7,1.9-1.7s1.9,0.7,1.9,1.7c0,1-0.8,1.7-1.9,1.7S182.8,9.2,182.8,8.1z"/>
			<path class="st2" d="M188.7,20.6c1.1,0,1.4-0.5,1.4-1v-6.8c0-0.7-0.3-1-1.4-1v-0.1c1.8,0,3.2-0.2,4.6-0.7v8.7c0,0.5,0.3,1,1.4,1
				v0.1h-6V20.6z M195.4,20.6c1.1,0,1.4-0.5,1.4-1v-6c0-1.1-0.6-1.6-1.5-1.6c-0.5,0-1,0.2-1.5,0.6v-0.1c0.5-0.8,1.8-1.5,3.2-1.5
				c1.7,0,2.9,0.8,2.9,2.7v6c0,0.5,0.3,1,1.4,1v0.1h-6V20.6z"/>
			<path class="st2" d="M202.5,14.5c0-2.5,2.3-3.4,4.3-3.5v0.1c-0.8,0.1-1.2,1.1-1.2,3.3c0,2.3,0.4,3.2,1.2,3.3v0.1
				C204.9,17.8,202.5,16.9,202.5,14.5z M207.6,25.4c1.9-0.2,2.5-1.3,2.5-1.9c0-2.7-7.5-0.3-7.5-3.7c0-0.8,0.4-1.4,1.3-1.9l0.1,0.1
				c-0.1,0.1-0.2,0.2-0.2,0.4c0,2.1,8.7-0.3,8.7,3.8c0,2-1.7,3.2-4.9,3.4V25.4z M202.7,23.8c0-1.1,1.4-1.5,2.9-1.5
				c-0.3,0.2-0.8,0.7-0.8,1.4c0,0.9,1,1.5,2.1,1.7v0.1C204.8,25.5,202.7,25.1,202.7,23.8z M207.6,17.7c0.9-0.1,1.3-1,1.3-3.3
				c0-2.2-0.4-3.2-1.3-3.3V11c2,0,4.4,1,4.4,3.5c0,2.5-2.4,3.4-4.4,3.4V17.7z M208.6,10.7c0.3-1,1.2-2.3,2.5-2.3
				c1,0,1.6,0.5,1.6,1.5c0,0.9-0.8,1.5-1.5,1.5c0-0.8-0.4-1.3-1-1.3C209.6,10,209,10.4,208.6,10.7L208.6,10.7z"/>
		</g>
		<g class="st1">
			<path class="st2" d="M18.8,39.5v0.1c-0.6,0.9-1.8,1.5-3.3,1.5c-1.7,0-2.9-0.8-2.9-2.7v-6.3h-1l0.2-0.3h0.8v-2.1
				c1.2,0,2.3-0.4,3.1-1.1v3.1h2.6l-0.2,0.3h-2.4v6.3c0,1,0.4,1.9,1.3,1.9C17.5,40.4,18.2,40.1,18.8,39.5z"/>
			<path class="st2" d="M23.8,39.8c0,0.5,0.3,1,1.4,1v0.1h-6v-0.1c1.1,0,1.4-0.5,1.4-1V28.8c0-0.7-0.3-1-1.4-1v-0.1
				c1.8,0,3.2-0.2,4.6-0.7V39.8z M30.4,33.9v6c0,0.5,0.3,1,1.4,1v0.1h-6v-0.1c1.1,0,1.4-0.5,1.4-1v-6c0-1.1-0.6-1.6-1.5-1.6
				c-0.5,0-1,0.2-1.5,0.6v-0.1c0.5-0.8,1.8-1.5,3.2-1.5C29.2,31.2,30.4,32,30.4,33.9z"/>
			<path class="st2" d="M32.7,38.7c0-1.7,1.5-2.6,3.7-2.6h2.1v0.1h-0.6c-1.4,0-2,0.9-2,2.1c0,1.1,0.3,1.9,1.2,1.9
				c0.5,0,1-0.3,1.4-0.7v0.1c-0.6,0.7-1.6,1.5-3,1.5C33.8,41.1,32.7,40.2,32.7,38.7z M33.5,33.3c0-1,0.9-2,3.5-2.1v0.1
				c-0.8,0.1-1.2,0.7-1.2,1.4c0,0.7,0.5,1.1,1.2,1.2c-0.3,0.5-1.1,0.9-1.8,0.9C34.1,34.8,33.5,34.1,33.5,33.3z M39,39v-5.8
				c0-0.9-0.4-1.7-1.3-1.8v-0.1c3.2,0.1,4.4,1.3,4.4,3.8v4.6c0,0.6,0.2,0.8,0.5,0.8c0.3,0,0.6-0.3,0.9-0.9h0.1
				c-0.3,1.1-1.3,1.5-2.5,1.5C39.7,41.1,39,40.6,39,39z"/>
			<path class="st2" d="M44.3,40.8c1.1,0,1.4-0.5,1.4-1v-6.8c0-0.7-0.3-1-1.4-1v-0.1c1.8,0,3.2-0.2,4.6-0.7v8.7c0,0.5,0.3,1,1.4,1
				v0.1h-6V40.8z M51,40.8c1.1,0,1.4-0.5,1.4-1v-6c0-1.1-0.6-1.6-1.5-1.6c-0.5,0-1,0.2-1.5,0.6v-0.1c0.5-0.8,1.8-1.5,3.2-1.5
				c1.7,0,2.9,0.8,2.9,2.7v6c0,0.5,0.3,1,1.4,1v0.1h-6V40.8z"/>
			<path class="st2" d="M62.7,38.7c0-1.7,1.5-2.6,3.7-2.6h2.1v0.1h-0.6c-1.4,0-2,0.9-2,2.1c0,1.1,0.3,1.9,1.2,1.9
				c0.5,0,1-0.3,1.4-0.7v0.1c-0.6,0.7-1.6,1.5-3,1.5C63.8,41.1,62.7,40.2,62.7,38.7z M63.5,33.3c0-1,0.9-2,3.5-2.1v0.1
				c-0.8,0.1-1.2,0.7-1.2,1.4c0,0.7,0.5,1.1,1.2,1.2c-0.3,0.5-1.1,0.9-1.8,0.9C64.1,34.8,63.5,34.1,63.5,33.3z M69,39v-5.8
				c0-0.9-0.4-1.7-1.3-1.8v-0.1c3.2,0.1,4.4,1.3,4.4,3.8v4.6c0,0.6,0.2,0.8,0.5,0.8c0.3,0,0.6-0.3,0.9-0.9h0.1
				c-0.3,1.1-1.3,1.5-2.5,1.5C69.7,41.1,69,40.6,69,39z"/>
		</g>
		<g class="st1">
			<path class="st2" d="M74.3,40.8c1.1,0,1.4-0.5,1.4-1v-6.8c0-0.7-0.3-1-1.4-1v-0.1c1.8,0,3.2-0.2,4.6-0.7v8.7c0,0.5,0.3,1,1.4,1
				v0.1h-6V40.8z M81.1,40.8c1.1,0,1.4-0.5,1.4-1v-6c0-1.1-0.6-1.6-1.5-1.6c-0.5,0-1,0.2-1.5,0.6v-0.1c0.5-0.8,1.8-1.5,3.2-1.5
				c1.7,0,2.9,0.8,2.9,2.7v6c0,0.5,0.3,1,1.4,1v0.1h-6V40.8z"/>
		</g>
		<g class="st1">
			<path class="st2" d="M87.8,32.2c-0.2-0.4-0.5-0.7-1.1-0.7v-0.1h5.3v0.1c-0.7,0-0.9,0.5-0.6,1.1l2.5,5.2l-1.6,3.1h-0.1L87.8,32.2z
				 M87,44c0-0.8,0.6-1.5,1.7-1.8c-0.1,0.2-0.1,0.3-0.1,0.5c0,0.7,0.4,1.3,1.1,1.3c0.7,0,1.2-0.7,1.9-1.9h0.1
				c-1.1,2-1.8,3.7-3.1,3.7C87.6,45.7,87,45,87,44z M94.8,36c0.3-0.6,0.5-1.4,0.5-2.5c0-1.1-0.6-2-1.9-2v-0.1h4.8v0.1
				c-0.6,0-0.9,0.2-1.2,0.9l-2,3.7L94.8,36z"/>
		</g>
		<g class="st1">
			<path class="st2" d="M103,31.3c-1.1,0.1-1.5,1.1-1.5,4.8c0,3.6,0.4,4.8,1.5,4.9v0.1c-2.2,0-4.8-1.8-4.8-5c0-3.2,2.5-4.9,4.8-4.9
				V31.3z M108.5,36.1c0,3.2-2.5,5-4.7,5V41c1.1-0.1,1.5-1.3,1.5-4.9c0-3.7-0.4-4.7-1.5-4.8v-0.1C106,31.2,108.5,32.9,108.5,36.1z"
				/>
			<path class="st2" d="M109.8,40.8c1.1,0,1.4-0.5,1.4-1v-6.8c0-0.7-0.3-1-1.4-1v-0.1c1.8,0,3.2-0.2,4.6-0.7v8.7c0,0.5,0.3,1,1.4,1
				v0.1h-6V40.8z M116.5,40.8c1.1,0,1.4-0.5,1.4-1v-6c0-1.1-0.6-1.6-1.5-1.6c-0.5,0-1,0.2-1.5,0.6v-0.1c0.5-0.8,1.8-1.5,3.2-1.5
				c1.7,0,2.9,0.8,2.9,2.7v6c0,0.5,0.3,1,1.4,1v0.1h-6V40.8z"/>
			<path class="st2" d="M123.5,36.1c0-3.2,2.4-4.9,4.7-4.9v0.1c-1.1,0.1-1.4,1.1-1.4,4.7c0,2.8,1.2,4.3,2.9,4.3c1.1,0,1.9-0.3,2.8-1
				v0.1c-1,1.3-2.8,1.7-4.1,1.7C126,41.1,123.5,39.3,123.5,36.1z M127.8,35.3c1.7,0,2.4-0.5,2.4-2.1c0-0.9-0.4-1.8-1.2-1.9v-0.1
				c2.5,0,3.7,1.8,3.7,3.2c0,0.3,0,0.7-0.1,1h-4.8V35.3z"/>
			<path class="st2" d="M139.1,36.1c0-3.2,2.4-4.9,4.7-4.9v0.1c-1.1,0.1-1.4,1.1-1.4,4.7c0,2.8,1.2,4.3,2.9,4.3c1.1,0,1.9-0.3,2.8-1
				v0.1c-1,1.3-2.8,1.7-4.1,1.7C141.6,41.1,139.1,39.3,139.1,36.1z M143.4,35.3c1.7,0,2.4-0.5,2.4-2.1c0-0.9-0.4-1.8-1.2-1.9v-0.1
				c2.5,0,3.7,1.8,3.7,3.2c0,0.3,0,0.7-0.1,1h-4.8V35.3z"/>
			<path class="st2" d="M149.5,27.6c1.8,0,3.2-0.2,4.6-0.7v13c0,0.5,0.3,1,1.4,1v0.1h-6v-0.1c1.1,0,1.4-0.5,1.4-1V28.8
				c0-0.7-0.3-1-1.4-1V27.6z"/>
			<path class="st2" d="M159.9,38.7c-0.6,0-1.1,0.4-1.1,1c0,0.6,0.4,1.3,1.7,1.4v0.1c-2.5-0.1-3.9-0.8-3.9-1.9
				c0-0.9,0.8-1.4,1.6-1.4C159,37.8,159.6,38.2,159.9,38.7z M160.6,31.3c-0.7,0.1-1.4,0.5-1.4,1.3c0.1,2.2,6.2,2.6,6.2,5.6
				c0,1.9-1.6,2.8-4,2.9V41c0.8-0.1,1.7-0.4,1.7-1.4c0-2-6.3-2.7-6.3-5.6c0-1.7,1.6-2.7,3.7-2.8V31.3z M165.1,33.2
				c0,0.6-0.5,1.2-1.4,1.2c-0.8,0-1.4-0.3-1.6-0.9c0.6,0,0.9-0.4,0.9-0.9c0-0.6-0.7-1.1-1.5-1.2v-0.1
				C163.6,31.3,165.1,32.1,165.1,33.2z"/>
			<path class="st2" d="M167,36.1c0-3.2,2.4-4.9,4.7-4.9v0.1c-1.1,0.1-1.4,1.1-1.4,4.7c0,2.8,1.2,4.3,2.9,4.3c1.1,0,1.9-0.3,2.8-1
				v0.1c-1,1.3-2.8,1.7-4,1.7C169.5,41.1,167,39.3,167,36.1z M171.3,35.3c1.7,0,2.4-0.5,2.4-2.1c0-0.9-0.4-1.8-1.2-1.9v-0.1
				c2.5,0,3.7,1.8,3.7,3.2c0,0.3,0,0.7-0.1,1h-4.8V35.3z"/>
		</g>
	</g>
</g>
</svg>
