<svg id="Layer_1" data-name="Layer 1" xmlns="http://www.w3.org/2000/svg" xmlns:xlink="http://www.w3.org/1999/xlink" viewBox="0 0 320 50"><defs><style>.cls-1{fill:none;}.cls-2{clip-path:url(#clip-path);}.cls-3{fill:#fb0010;}.cls-4{fill:#fff;}</style><clipPath id="clip-path"><rect class="cls-1" width="320" height="50"/></clipPath></defs><title>Artboard 1</title><g class="cls-2"><path class="cls-3" d="M6.44,47H79.13a6.24,6.24,0,0,0,5.53-3.36l8.19-15.78a6.25,6.25,0,0,0,0-5.74L84.66,6.35A6.24,6.24,0,0,0,79.13,3H6.44A3.78,3.78,0,0,0,2.66,6.77V43.23A3.78,3.78,0,0,0,6.44,47Z"/><path class="cls-4" d="M35.48,19.58l.15-.22c.11-.16.23-.16.4-.07a1.72,1.72,0,0,0,1,.37c.46,0,.74-.23.74-.57,0-.94-2.31-.74-2.31-2.29a1.5,1.5,0,0,1,1.67-1.43,2.33,2.33,0,0,1,1.27.37.27.27,0,0,1,.09.4l-.12.23c-.11.2-.25.18-.4.1a1.59,1.59,0,0,0-.86-.27c-.46,0-.75.22-.75.56,0,.92,2.31.69,2.31,2.26A1.49,1.49,0,0,1,37,20.49,2.58,2.58,0,0,1,35.52,20,.25.25,0,0,1,35.48,19.58Z"/><path class="cls-4" d="M40.67,16.23H39.34a.26.26,0,0,1-.29-.29v-.2a.26.26,0,0,1,.29-.29H42.9a.26.26,0,0,1,.28.29v.2a.26.26,0,0,1-.28.29H41.56v3.88a.25.25,0,0,1-.29.29H41a.26.26,0,0,1-.29-.29Z"/><path class="cls-4" d="M44.36,15.69a.32.32,0,0,1,.33-.24h.44a.32.32,0,0,1,.33.24L47,20.07c.07.2,0,.33-.24.33h-.32a.31.31,0,0,1-.33-.23l-.35-1H44l-.34,1a.31.31,0,0,1-.33.24h-.32c-.22,0-.31-.13-.24-.33Zm1.19,2.71-.44-1.32c-.08-.28-.19-.77-.19-.77h0s-.11.49-.19.77l-.45,1.32Z"/><path class="cls-4" d="M47.63,15.74a.26.26,0,0,1,.29-.29h1.34a2.28,2.28,0,0,1,.94.13A1.39,1.39,0,0,1,51,16.94a1.44,1.44,0,0,1-.82,1.35h0a2.53,2.53,0,0,1,.16.26l.81,1.49c.12.21,0,.35-.2.35H50.6a.35.35,0,0,1-.34-.2l-.87-1.65h-.86v1.56a.26.26,0,0,1-.29.29h-.32a.26.26,0,0,1-.29-.29Zm1.71,2a.72.72,0,0,0,.78-.78.67.67,0,0,0-.39-.68,1.22,1.22,0,0,0-.54-.08h-.66v1.54Z"/><path class="cls-4" d="M35.8,21.79a.15.15,0,0,1,.17-.17h.15a.16.16,0,0,1,.17.17v4.56a.16.16,0,0,1-.17.17H36a.15.15,0,0,1-.17-.17Z"/><path class="cls-4" d="M37.45,23.19a.16.16,0,0,1,.17-.18h.13a.16.16,0,0,1,.16.18v.4a1.55,1.55,0,0,1,0,.25h0a1.54,1.54,0,0,1,1.41-.91c.88,0,1.18.49,1.18,1.36v2.06a.15.15,0,0,1-.17.17h-.13a.15.15,0,0,1-.17-.17V24.41c0-.55-.09-1-.77-1a1.36,1.36,0,0,0-1.33,1.43v1.54a.15.15,0,0,1-.17.17h-.13a.15.15,0,0,1-.17-.17Z"/><path class="cls-4" d="M41.25,26l0-.07a.16.16,0,0,1,.24,0,1.49,1.49,0,0,0,.93.33c.39,0,.71-.2.71-.57,0-.79-1.88-.55-1.88-1.71,0-.65.55-1,1.19-1a1.59,1.59,0,0,1,1,.29c.09.05.1.13,0,.23l0,.07a.15.15,0,0,1-.24.05,1.3,1.3,0,0,0-.75-.22c-.37,0-.69.16-.69.54,0,.81,1.87.55,1.87,1.72a1.06,1.06,0,0,1-1.19,1,1.85,1.85,0,0,1-1.19-.4A.16.16,0,0,1,41.25,26Z"/><path class="cls-4" d="M44.35,23.19c0-.11,0-.18.17-.18h.13a.16.16,0,0,1,.17.18v1.93c0,.55.09,1,.76,1a1.37,1.37,0,0,0,1.3-1.47v-1.5a.16.16,0,0,1,.17-.18h.14c.11,0,.16.07.16.18v3.16c0,.11-.05.17-.16.17h-.13a.15.15,0,0,1-.17-.17v-.41a1.55,1.55,0,0,1,0-.25h0a1.52,1.52,0,0,1-1.38.91c-.83,0-1.17-.44-1.17-1.36Z"/><path class="cls-4" d="M48.38,23.19a.16.16,0,0,1,.18-.18h.12a.16.16,0,0,1,.17.18v.47a1.4,1.4,0,0,1,0,.28h0A1.26,1.26,0,0,1,50,23c.13,0,.19.06.19.17v.13c0,.11-.08.17-.2.17-.74,0-1.09.84-1.09,1.58v1.31a.15.15,0,0,1-.17.17h-.13c-.12,0-.18-.06-.18-.17Z"/><path class="cls-4" d="M52.56,24.37h.2v-.11c0-.68-.37-.91-.86-.91a1.62,1.62,0,0,0-.85.25.17.17,0,0,1-.24-.06l0-.07a.15.15,0,0,1,0-.23,2,2,0,0,1,1.11-.31,1.2,1.2,0,0,1,1.31,1.35v2.07a.15.15,0,0,1-.17.17H53a.16.16,0,0,1-.18-.17v-.28a1.67,1.67,0,0,1,0-.27h0a1.3,1.3,0,0,1-1.19.8,1.07,1.07,0,0,1-1.18-1C50.42,24.44,51.88,24.37,52.56,24.37Zm-.87,1.84a1.22,1.22,0,0,0,1.07-1.31v-.17h-.19c-.55,0-1.66,0-1.66.81A.71.71,0,0,0,51.69,26.21Z"/><path class="cls-4" d="M54.23,23.19a.16.16,0,0,1,.18-.18h.12a.16.16,0,0,1,.17.18v.4a1.05,1.05,0,0,1,0,.25h0a1.57,1.57,0,0,1,1.42-.91c.87,0,1.18.49,1.18,1.36v2.06c0,.11-.06.17-.18.17H57a.15.15,0,0,1-.17-.17V24.41c0-.55-.09-1-.76-1a1.35,1.35,0,0,0-1.33,1.43v1.54a.15.15,0,0,1-.17.17h-.13c-.12,0-.18-.06-.18-.17Z"/><path class="cls-4" d="M59.9,22.93a1.87,1.87,0,0,1,1.17.4.15.15,0,0,1,0,.23l-.05.08c-.06.1-.14.1-.24,0a1.42,1.42,0,0,0-.88-.33,1.42,1.42,0,0,0,0,2.83,1.51,1.51,0,0,0,1-.37.14.14,0,0,1,.23,0l0,.07a.17.17,0,0,1,0,.24,2,2,0,0,1-1.25.44,1.84,1.84,0,1,1,0-3.67Z"/><path class="cls-4" d="M63.35,22.93a1.47,1.47,0,0,1,1.47,1.67.18.18,0,0,1-.18.18H62.11a1.34,1.34,0,0,0,1.36,1.4,1.53,1.53,0,0,0,.92-.32c.1-.06.18-.05.23,0l.06.08a.16.16,0,0,1-.05.23,2,2,0,0,1-1.17.39,1.76,1.76,0,0,1-1.83-1.83A1.71,1.71,0,0,1,63.35,22.93Zm1,1.49a1,1,0,0,0-1-1.1,1.22,1.22,0,0,0-1.21,1.1Z"/><path class="cls-4" d="M38,28.07a2.74,2.74,0,0,1,1.62.5.27.27,0,0,1,.06.4l-.13.21c-.1.16-.23.17-.4.07A2,2,0,0,0,38,28.9a1.6,1.6,0,0,0-1.66,1.7A1.66,1.66,0,0,0,38,32.37a2.07,2.07,0,0,0,1.22-.43.25.25,0,0,1,.4,0l.14.18a.27.27,0,0,1,0,.41,2.79,2.79,0,0,1-1.75.61,2.56,2.56,0,0,1,0-5.12Z"/><path class="cls-4" d="M42.34,30.91h.15v-.08c0-.47-.3-.63-.67-.63a1.63,1.63,0,0,0-.74.2.26.26,0,0,1-.39-.11l-.07-.14a.27.27,0,0,1,.11-.39,2.54,2.54,0,0,1,1.17-.29,1.32,1.32,0,0,1,1.47,1.41v1.94a.26.26,0,0,1-.29.29h-.24a.26.26,0,0,1-.29-.29v-.14a.55.55,0,0,1,0-.16h0a1.28,1.28,0,0,1-1.11.67,1.09,1.09,0,0,1-1.18-1.06C40.26,31.09,41.54,30.91,42.34,30.91Zm-.66,1.61a.91.91,0,0,0,.81-.94v-.13h-.14c-.45,0-1.21.07-1.21.6A.48.48,0,0,0,41.68,32.52Z"/><path class="cls-4" d="M44.21,29.85a.26.26,0,0,1,.28-.3h.28a.26.26,0,0,1,.28.3v.21a1.48,1.48,0,0,1,0,.16h0a1.38,1.38,0,0,1,1.17-.75,1,1,0,0,1,1,.73h0a1.4,1.4,0,0,1,1.21-.73c.74,0,1.17.42,1.17,1.35v2a.27.27,0,0,1-.3.29h-.3a.26.26,0,0,1-.29-.29V31c0-.4-.08-.71-.49-.71-.6,0-.9.61-.9,1.23v1.31a.26.26,0,0,1-.29.29h-.31a.26.26,0,0,1-.29-.29V31c0-.38,0-.71-.47-.71-.63,0-.92.64-.92,1.23v1.31a.26.26,0,0,1-.29.29h-.31a.26.26,0,0,1-.28-.29Z"/><path class="cls-4" d="M50.49,29.85a.27.27,0,0,1,.3-.3H51c.19,0,.29.11.29.25V30a1.13,1.13,0,0,1,0,.14h0a1.29,1.29,0,0,1,1.15-.63A1.64,1.64,0,0,1,54,31.33a1.68,1.68,0,0,1-1.63,1.86,1.17,1.17,0,0,1-1-.54h0a2.08,2.08,0,0,1,0,.31v1.25a.25.25,0,0,1-.29.29h-.3a.26.26,0,0,1-.3-.29Zm1.75,2.6c.49,0,.89-.4.89-1.1s-.36-1.12-.88-1.12-.9.33-.9,1.12A1,1,0,0,0,52.24,32.45Z"/><path class="cls-4" d="M56.32,29.47a1.53,1.53,0,0,1,1.57,1.69.3.3,0,0,1-.3.3H55.42a1,1,0,0,0,1.07,1,1.52,1.52,0,0,0,.76-.23c.18-.08.3-.06.39.1l.09.14a.27.27,0,0,1-.1.39,2.32,2.32,0,0,1-1.21.35,1.82,1.82,0,0,1-1.91-1.86A1.76,1.76,0,0,1,56.32,29.47Zm.7,1.46a.73.73,0,0,0-.72-.79.86.86,0,0,0-.86.79Z"/><path class="cls-4" d="M58.56,29.85a.27.27,0,0,1,.29-.3h.27a.27.27,0,0,1,.29.3v.33a1.5,1.5,0,0,1,0,.24h0a1.22,1.22,0,0,1,1-.89c.19,0,.26.09.26.29v.27a.27.27,0,0,1-.3.29c-.65,0-1,.64-1,1.29v1.15a.26.26,0,0,1-.29.29h-.3a.26.26,0,0,1-.29-.29Z"/><path class="cls-4" d="M63.64,28.07a2.74,2.74,0,0,1,1.62.5.27.27,0,0,1,.06.4l-.13.21c-.1.16-.23.17-.4.07a2,2,0,0,0-1.11-.35A1.6,1.6,0,0,0,62,30.6a1.66,1.66,0,0,0,1.67,1.77,2.07,2.07,0,0,0,1.21-.43.25.25,0,0,1,.4,0l.14.18a.27.27,0,0,1,0,.41,2.79,2.79,0,0,1-1.75.61,2.56,2.56,0,0,1,0-5.12Z"/><path class="cls-4" d="M68,30.91h.15v-.08c0-.47-.3-.63-.67-.63a1.63,1.63,0,0,0-.74.2.26.26,0,0,1-.39-.11l-.07-.14a.26.26,0,0,1,.12-.39,2.49,2.49,0,0,1,1.16-.29,1.32,1.32,0,0,1,1.47,1.41v1.94a.26.26,0,0,1-.29.29h-.24c-.19,0-.28-.1-.28-.29v-.14a1.08,1.08,0,0,1,0-.16h0a1.31,1.31,0,0,1-1.12.67A1.09,1.09,0,0,1,66,32.13C66,31.09,67.24,30.91,68,30.91Zm-.66,1.61a.91.91,0,0,0,.81-.94v-.13H68c-.45,0-1.21.07-1.21.6A.48.48,0,0,0,67.37,32.52Z"/><path class="cls-4" d="M69.9,29.85a.27.27,0,0,1,.29-.3h.27a.27.27,0,0,1,.29.3v.33a1.5,1.5,0,0,1,0,.24h0a1.22,1.22,0,0,1,1-.89c.2,0,.27.09.27.29v.27a.27.27,0,0,1-.3.29c-.65,0-1,.64-1,1.29v1.15a.26.26,0,0,1-.29.29h-.3a.26.26,0,0,1-.29-.29Z"/><path class="cls-4" d="M74.06,29.47a1.53,1.53,0,0,1,1.57,1.69.3.3,0,0,1-.31.3H73.16a1,1,0,0,0,1.06,1,1.53,1.53,0,0,0,.77-.23c.17-.08.3-.06.39.1l.08.14a.26.26,0,0,1-.09.39,2.32,2.32,0,0,1-1.21.35,1.82,1.82,0,0,1-1.91-1.86A1.76,1.76,0,0,1,74.06,29.47Zm.69,1.46a.72.72,0,0,0-.72-.79.86.86,0,0,0-.85.79Z"/><path class="cls-4" d="M19,30.89a.46.46,0,0,1-.22-.06.49.49,0,0,1-.25-.59l5.16-15.89a1.1,1.1,0,0,1,1.05-.76h0a1.09,1.09,0,0,1,1.05.76l1,3.15a.38.38,0,0,1-.24.48.38.38,0,0,1-.47-.24l-1.05-3.15a.35.35,0,0,0-.34-.25h0a.34.34,0,0,0-.33.25L19.73,29l6.57-9A2.07,2.07,0,0,1,28,19.11h4.38a1.11,1.11,0,0,1,.65,2L29,24l-.05,0,1.55,4.76a1.08,1.08,0,0,1-.4,1.23,1.1,1.1,0,0,1-1.29,0l-3.47-2.52a1.11,1.11,0,0,1,0-1.78l2.91-2.11,0,0,4.27-3.11a.32.32,0,0,0,.13-.39.35.35,0,0,0-.34-.25H28a1.29,1.29,0,0,0-1,.53L19.39,30.68A.52.52,0,0,1,19,30.89Zm9.31-6.37-2.54,1.83a.37.37,0,0,0-.14.29.36.36,0,0,0,.14.29l3.47,2.51a.35.35,0,0,0,.54-.39Z"/><path class="cls-4" d="M19.26,23a.36.36,0,0,1-.22-.07l-2.55-1.81a1.1,1.1,0,0,1,.64-2h3.13a.38.38,0,0,1,.38.38.37.37,0,0,1-.38.37H17.13a.35.35,0,0,0-.34.25.36.36,0,0,0,.13.39l2.55,1.81a.37.37,0,0,1,.09.52A.37.37,0,0,1,19.26,23Z"/><path class="cls-4" d="M22.74,36.16a1.15,1.15,0,0,1-.6-.16l-6.53-3.7a.37.37,0,0,1-.19-.33V24a.38.38,0,1,1,.75,0v7.74l6.34,3.6a.46.46,0,0,0,.47,0l4.64-2.9a.37.37,0,0,1,.39.63L23.38,36A1.16,1.16,0,0,1,22.74,36.16Z"/></g></svg>