<svg id="Layer_1" data-name="Layer 1" xmlns="http://www.w3.org/2000/svg" xmlns:xlink="http://www.w3.org/1999/xlink" viewBox="0 0 300 250"><defs><style>.cls-1{fill:none;}.cls-2{clip-path:url(#clip-path);}.cls-3{fill:#fff;}</style><clipPath id="clip-path"><rect class="cls-1" width="300" height="250"/></clipPath></defs><title>Artboard 1 copy</title><g class="cls-2"><path class="cls-3" d="M33.7,35.51v.17c-2,.25-3.42,2.27-3.42,9.46s1.4,9.55,3.42,9.8v.17a9.36,9.36,0,0,1-8.91-9.8A9.7,9.7,0,0,1,33.7,35.51Zm1.37.17v-.17c2.88.14,4.48.56,5.74,1.32l.87-1.32h.22v6.81h-.22A8.63,8.63,0,0,0,35.07,35.68ZM44.56,46.8V47c-1.32,0-2.07.51-2.07,1.66v6.49h-.23l-1-1.68a11,11,0,0,1-6.16,1.68v-.17c1.9-.14,3-1.14,3-3.41V48.62c0-1.15-.5-1.66-2.1-1.66V46.8Z"/><path class="cls-3" d="M46.27,47.78a6.93,6.93,0,0,1,6.86-7.23v.17c-1.65.2-2.1,1.6-2.1,6.94,0,4,1.79,6.25,4.28,6.25a6.09,6.09,0,0,0,4.09-1.49v.17a7.86,7.86,0,0,1-5.94,2.52A7.09,7.09,0,0,1,46.27,47.78Zm6.3-1.18c2.46,0,3.5-.78,3.5-3.14,0-1.34-.56-2.57-1.82-2.74v-.17c3.69,0,5.49,2.63,5.49,4.76a8.71,8.71,0,0,1-.14,1.46h-7Z"/><path class="cls-3" d="M72.39,52.68v.16a5.85,5.85,0,0,1-4.79,2.27c-2.52,0-4.31-1.15-4.31-4V42H61.83l.31-.42h1.15v-3A7.09,7.09,0,0,0,67.88,37v4.59h3.78l-.3.42H67.88v9.27c0,1.4.54,2.85,1.85,2.85A4.11,4.11,0,0,0,72.39,52.68Z"/><path class="cls-3" d="M80.4,51.53c0-2.44,2.24-3.81,5.37-3.81h3v.17H88a2.77,2.77,0,0,0-3,3c0,1.54.45,2.72,1.76,2.72a3.08,3.08,0,0,0,2-1v.16a5.93,5.93,0,0,1-4.45,2.27C82,55.11,80.37,53.77,80.4,51.53Zm1.12-7.93c0-1.42,1.29-2.88,5.09-3.05v.17a2,2,0,0,0-1.79,2c0,1,.7,1.63,1.82,1.71A3.13,3.13,0,0,1,84,45.82,2.25,2.25,0,0,1,81.52,43.6ZM89.64,52V43.38c0-1.37-.53-2.46-1.91-2.66v-.17c4.65.17,6.5,1.93,6.5,5.6V53c0,.81.28,1.14.78,1.14s.9-.42,1.35-1.26h.17c-.45,1.54-2,2.27-3.64,2.27C90.65,55.11,89.64,54.33,89.64,52Z"/><path class="cls-3" d="M112.15,54.94v.17a10.59,10.59,0,0,1-5.43-1.37l-.93,1.37h-.22V48.28h.22A9.4,9.4,0,0,0,112.15,54.94Zm8.23-5.57c0,3.61-2.69,5.57-7,5.74v-.17c1.54-.28,3.06-1.17,3.06-2.85,0-4.9-10.7-5.35-10.7-11,0-3.35,2.72-5.29,6.44-5.54v.17a2.64,2.64,0,0,0-2.46,2.58C109.69,43.16,120.38,43.69,120.38,49.37Zm-7-13.69v-.17a9,9,0,0,1,5,1.49l1-1.49h.23v6.25h-.23A8.88,8.88,0,0,0,113.35,35.68Z"/><path class="cls-3" d="M133.15,52.68v.16a5.86,5.86,0,0,1-4.79,2.27c-2.52,0-4.31-1.15-4.31-4V42h-1.46l.31-.42h1.15v-3A7.09,7.09,0,0,0,128.64,37v4.59h3.78l-.31.42h-3.47v9.27c0,1.4.53,2.85,1.85,2.85A4.13,4.13,0,0,0,133.15,52.68Z"/><path class="cls-3" d="M134.05,51.53c0-2.44,2.24-3.81,5.37-3.81h3v.17h-.84a2.77,2.77,0,0,0-3,3c0,1.54.45,2.72,1.76,2.72a3.08,3.08,0,0,0,2-1v.16A6,6,0,0,1,138,55.11C135.61,55.11,134,53.77,134.05,51.53Zm1.12-7.93c0-1.42,1.28-2.88,5.09-3.05v.17a2,2,0,0,0-1.79,2c0,1,.7,1.63,1.82,1.71a3.14,3.14,0,0,1-2.69,1.35A2.24,2.24,0,0,1,135.17,43.6ZM143.29,52V43.38c0-1.37-.54-2.46-1.91-2.66v-.17c4.65.17,6.5,1.93,6.5,5.6V53c0,.81.28,1.14.78,1.14s.9-.42,1.35-1.26h.16c-.44,1.54-2,2.27-3.64,2.27C144.29,55.11,143.29,54.33,143.29,52Z"/><path class="cls-3" d="M157.76,53.24c0,.7.42,1.42,2.1,1.42v.17H151v-.17c1.68,0,2.1-.72,2.1-1.42V43.3c0-1-.47-1.49-2.07-1.49v-.17a17.19,17.19,0,0,0,6.69-1.09Zm7.56-9.66a3,3,0,0,1-2.88,3.19,1.92,1.92,0,0,1-1.6-.62,2,2,0,0,0,1.09-1.9,1.48,1.48,0,0,0-1.56-1.51,1.92,1.92,0,0,0-1.68,1.06v-.22a3.87,3.87,0,0,1,3.64-3A2.84,2.84,0,0,1,165.32,43.58Z"/><path class="cls-3" d="M24.65,84.83v-.17c1.68,0,2.1-.64,2.1-1.42V67.42c0-.79-.42-1.46-2.1-1.46v-.17h6.86v19Zm15.65-19V71h-.22c-1.2-3.53-2.91-4.73-7.17-5v-.17Zm-7.39,9.27v-.17l1.54-.14a4.32,4.32,0,0,0,3.7-2.41h.22v5.21h-.22a4.28,4.28,0,0,0-3.7-2.35Zm0,9.6c4.26-.28,6.25-1.48,7.76-5h.22v5.18h-8Z"/><path class="cls-3" d="M43,84.66c1.68,0,2.1-.72,2.1-1.42V73.3c0-1-.47-1.49-2.07-1.49v-.17a17.12,17.12,0,0,0,6.69-1.09V83.24c0,.7.42,1.42,2.1,1.42v.17H43Zm9.86,0c1.65,0,2.07-.72,2.07-1.42V74.5c0-1.57-.81-2.38-2.21-2.38a3,3,0,0,0-2.13.87v-.17a5.72,5.72,0,0,1,4.65-2.27c2.52,0,4.31,1.18,4.31,4v8.74c0,.7.42,1.42,2.1,1.42v.17H52.82Z"/><path class="cls-3" d="M73.48,82.68v.16a5.84,5.84,0,0,1-4.78,2.27c-2.53,0-4.32-1.15-4.32-4V72H62.93l.31-.42h1.14v-3A7.09,7.09,0,0,0,69,67v4.59h3.78l-.3.42H69v9.27c0,1.4.54,2.85,1.85,2.85A4.11,4.11,0,0,0,73.48,82.68Z"/><path class="cls-3" d="M80.71,83.24c0,.7.42,1.42,2.1,1.42v.17H74v-.17c1.68,0,2.1-.72,2.1-1.42V67c0-1-.48-1.49-2.08-1.49v-.17a17.21,17.21,0,0,0,6.7-1.09Zm9.8-8.74v8.74c0,.7.42,1.42,2.1,1.42v.17h-8.8v-.17c1.66,0,2.08-.72,2.08-1.42V74.5a2.08,2.08,0,0,0-2.22-2.38,3,3,0,0,0-2.12.87v-.17a5.69,5.69,0,0,1,4.64-2.27C88.71,70.55,90.51,71.73,90.51,74.5Z"/><path class="cls-3" d="M100,81.16c0,1.57.53,2.38,1.93,2.38a2.48,2.48,0,0,0,1.93-.86v.16a4.65,4.65,0,0,1-4.34,2.27c-2.52,0-4.14-1.17-4.14-4V73.3c0-1-.48-1.49-2.08-1.49v-.17a17.21,17.21,0,0,0,6.7-1.09Zm9.32,1.8c0,.81.25,1.14.76,1.14s.89-.42,1.34-1.26h.17c-.45,1.54-2,2.27-3.81,2.27s-3.08-1.12-3.08-2.74V73.3c0-1-.48-1.49-2-1.49v-.17a18.25,18.25,0,0,0,6.61-1.09Z"/><path class="cls-3" d="M118.11,81.5a1.43,1.43,0,0,0-1.56,1.4c0,.81.56,1.85,2.49,2v.17c-3.73-.14-5.77-1.15-5.77-2.77a2.18,2.18,0,0,1,2.38-2.07A2.84,2.84,0,0,1,118.11,81.5ZM119,70.72c-1,.2-2.05.73-2,1.88.09,3.24,9.16,3.78,9.16,8.23,0,2.71-2.3,4.14-5.91,4.28v-.17c1.18-.19,2.49-.61,2.49-2.07,0-2.91-9.18-4-9.18-8.23,0-2.46,2.32-4,5.46-4.09Zm6.61,2.72a1.84,1.84,0,0,1-2.08,1.73,2.41,2.41,0,0,1-2.38-1.34,1.27,1.27,0,0,0,1.27-1.32c0-.84-1.07-1.65-2.19-1.79v-.17C123.43,70.72,125.65,71.87,125.65,73.44Z"/><path class="cls-3" d="M128.08,71.62a16.94,16.94,0,0,0,6.69-1.1V83.24c0,.7.42,1.42,2.1,1.42v.17h-8.82v-.17c1.68,0,2.1-.72,2.1-1.42v-10c0-1-.47-1.49-2.07-1.49Zm1.43-5.27c0-1.45,1.18-2.43,2.86-2.43s2.85,1,2.85,2.43-1.17,2.47-2.85,2.47S129.51,67.84,129.51,66.35Z"/><path class="cls-3" d="M138.27,81.53c0-2.44,2.24-3.81,5.38-3.81h3v.17h-.84a2.77,2.77,0,0,0-3,3c0,1.54.44,2.72,1.76,2.72a3.06,3.06,0,0,0,2-1v.16a5.92,5.92,0,0,1-4.45,2.27C139.84,85.11,138.25,83.77,138.27,81.53Zm1.12-7.93c0-1.42,1.29-2.88,5.1-3v.17a2,2,0,0,0-1.79,2c0,1,.7,1.63,1.82,1.71a3.14,3.14,0,0,1-2.69,1.35A2.25,2.25,0,0,1,139.39,73.6ZM147.51,82V73.38c0-1.37-.53-2.46-1.9-2.66v-.17c4.65.17,6.5,1.93,6.5,5.6V83c0,.81.28,1.14.78,1.14s.9-.42,1.34-1.26h.17c-.45,1.54-2,2.27-3.64,2.27C148.52,85.11,147.51,84.33,147.51,82Z"/><path class="cls-3" d="M160.65,81.5a1.43,1.43,0,0,0-1.57,1.4c0,.81.56,1.85,2.49,2v.17c-3.72-.14-5.77-1.15-5.77-2.77a2.18,2.18,0,0,1,2.38-2.07A2.86,2.86,0,0,1,160.65,81.5Zm.92-10.78c-1,.2-2,.73-2,1.88.09,3.24,9.16,3.78,9.16,8.23,0,2.71-2.3,4.14-5.91,4.28v-.17c1.18-.19,2.49-.61,2.49-2.07,0-2.91-9.18-4-9.18-8.23,0-2.46,2.32-4,5.46-4.09Zm6.61,2.72a1.83,1.83,0,0,1-2.07,1.73,2.39,2.39,0,0,1-2.38-1.34A1.26,1.26,0,0,0,165,72.51c0-.84-1.07-1.65-2.19-1.79v-.17C166,70.72,168.18,71.87,168.18,73.44Z"/><path class="cls-3" d="M181.42,82.68v.16a5.85,5.85,0,0,1-4.79,2.27c-2.52,0-4.31-1.15-4.31-4V72h-1.45l.3-.42h1.15v-3A7.09,7.09,0,0,0,176.91,67v4.59h3.78l-.31.42h-3.47v9.27c0,1.4.54,2.85,1.85,2.85A4.13,4.13,0,0,0,181.42,82.68Z"/><path class="cls-3" d="M34.56,102.79V103a3.16,3.16,0,0,0-2.35-1c-1.4,0-2.71.64-2.71,5.71s1.4,6,2.71,6a3.92,3.92,0,0,0,2.35-1v.16a5.23,5.23,0,0,1-4.08,2.27c-2.66,0-5.74-1.57-5.74-7.42,0-5.57,3-7.14,5.74-7.14A5.23,5.23,0,0,1,34.56,102.79ZM40,119.09c0,1,.48,1.48,2.08,1.48v.17a18.45,18.45,0,0,0-6.7,1.09V101.59A17.71,17.71,0,0,0,40,100.52Z"/><path class="cls-3" d="M49.4,111.16c0,1.57.54,2.38,1.94,2.38a2.49,2.49,0,0,0,1.93-.86v.16a4.66,4.66,0,0,1-4.34,2.27c-2.52,0-4.15-1.17-4.15-4V103.3c0-1-.47-1.49-2.07-1.49v-.17a17.12,17.12,0,0,0,6.69-1.09Zm9.33,1.8c0,.81.25,1.14.75,1.14s.9-.42,1.35-1.26H61c-.45,1.54-2,2.27-3.81,2.27s-3.08-1.12-3.08-2.74V103.3c0-1-.48-1.49-2-1.49v-.17a18.25,18.25,0,0,0,6.61-1.09Z"/><path class="cls-3" d="M69.59,100.72c-1.65.2-2.21,1.6-2.21,7.06,0,5.26.56,7,2.21,7.16v.17a7.13,7.13,0,0,1-7-7.33,7,7,0,0,1,7-7.23Zm8.07,7.06a7.14,7.14,0,0,1-7,7.33v-.17c1.65-.16,2.19-1.93,2.19-7.16,0-5.49-.56-6.89-2.19-7.06v-.17A7,7,0,0,1,77.66,107.78Z"/><path class="cls-3" d="M90.37,112.68v.16a5.86,5.86,0,0,1-4.79,2.27c-2.52,0-4.31-1.15-4.31-4V102H79.81l.31-.42h1.15v-3A7.13,7.13,0,0,0,85.86,97v4.59h3.78l-.31.42H85.86v9.27c0,1.4.53,2.85,1.85,2.85A4.15,4.15,0,0,0,90.37,112.68Z"/><path class="cls-3" d="M91.4,107.78a6.94,6.94,0,0,1,6.86-7.23v.17c-1.65.2-2.1,1.6-2.1,6.94,0,4,1.8,6.25,4.29,6.25a6.1,6.1,0,0,0,4.09-1.49v.17a7.86,7.86,0,0,1-5.94,2.52A7.09,7.09,0,0,1,91.4,107.78Zm6.3-1.18c2.47,0,3.5-.78,3.5-3.14,0-1.34-.56-2.57-1.82-2.74v-.17c3.7,0,5.49,2.63,5.49,4.76a8.71,8.71,0,0,1-.14,1.46h-7Z"/></g></svg>