<svg id="Layer_1" data-name="Layer 1" xmlns="http://www.w3.org/2000/svg" xmlns:xlink="http://www.w3.org/1999/xlink" viewBox="0 0 300 250"><defs><style>.cls-1{fill:none;}.cls-2{clip-path:url(#clip-path);}.cls-3{fill:#263845;}</style><clipPath id="clip-path"><rect class="cls-1" width="300" height="250"/></clipPath></defs><title>Artboard 8 copy</title><g class="cls-2"><path class="cls-3" d="M19.83,50.92c1.68,0,2.1-.67,2.1-1.43V33.64c0-.75-.42-1.42-2.1-1.42v-.17h9v.17c-1.68,0-2.1.67-2.1,1.42V49.49c0,.76.42,1.43,2.1,1.43v.17h-9Z"/><path class="cls-3" d="M35.65,47.76a1.43,1.43,0,0,0-1.57,1.4c0,.81.56,1.84,2.49,2v.17c-3.72-.14-5.77-1.15-5.77-2.77a2.19,2.19,0,0,1,2.38-2.08A2.87,2.87,0,0,1,35.65,47.76ZM36.57,37c-1,.19-2,.72-2,1.87.08,3.25,9.15,3.78,9.15,8.23,0,2.72-2.29,4.15-5.91,4.29V51.2c1.18-.2,2.5-.62,2.5-2.07,0-2.91-9.19-4-9.19-8.23,0-2.47,2.33-3.95,5.46-4.09Zm6.61,2.71a1.83,1.83,0,0,1-2.07,1.74,2.4,2.4,0,0,1-2.38-1.35A1.24,1.24,0,0,0,40,38.77c0-.84-1.07-1.65-2.19-1.79v-.17C41,37,43.18,38.12,43.18,39.69Z"/><path class="cls-3" d="M52.48,38.24a1.52,1.52,0,0,0-1.54-1v-.17h7.84v.17c-1,0-1.38.67-.9,1.65l3.67,7.64-2.41,4.54H59ZM51.24,55.6A2.94,2.94,0,0,1,53.71,53a2,2,0,0,0-.11.7,1.64,1.64,0,0,0,1.65,1.88c1,0,1.76-1,2.83-2.83h.19c-1.54,2.89-2.6,5.38-4.56,5.38A2.33,2.33,0,0,1,51.24,55.6ZM62.72,43.81a7.63,7.63,0,0,0,.79-3.61,2.71,2.71,0,0,0-2.86-2.94v-.17h7v.17c-.92,0-1.28.36-1.82,1.31l-2.91,5.49Z"/><path class="cls-3" d="M74.74,37c-1.66.19-2.22,1.59-2.22,7.05,0,5.27.56,7,2.22,7.17v.17a7.14,7.14,0,0,1-7-7.34,7,7,0,0,1,7-7.22ZM82.8,44a7.13,7.13,0,0,1-6.94,7.34V51.2C77.51,51,78,49.27,78,44c0-5.49-.56-6.89-2.18-7.05v-.17A7,7,0,0,1,82.8,44Z"/><path class="cls-3" d="M91.06,47.42c0,1.57.53,2.38,1.93,2.38a2.44,2.44,0,0,0,1.93-.87v.17a4.67,4.67,0,0,1-4.34,2.27c-2.52,0-4.14-1.18-4.14-3.95V39.55c0-1-.48-1.48-2.07-1.48V37.9a17.19,17.19,0,0,0,6.69-1.09Zm9.32,1.79c0,.81.26,1.15.76,1.15s.9-.42,1.34-1.26h.17c-.45,1.54-2,2.27-3.81,2.27s-3.08-1.12-3.08-2.75V39.55c0-1-.47-1.48-2-1.48V37.9a18.19,18.19,0,0,0,6.6-1.09Z"/><path class="cls-3" d="M110.49,49.49c0,.7.42,1.43,2.1,1.43v.17h-8.82v-.17c1.68,0,2.1-.73,2.1-1.43V39.55c0-1-.47-1.48-2.07-1.48V37.9a17.19,17.19,0,0,0,6.69-1.09Zm7.56-9.66A3,3,0,0,1,115.17,43a1.91,1.91,0,0,1-1.6-.61,2.05,2.05,0,0,0,1.09-1.91A1.48,1.48,0,0,0,113.1,39a1.91,1.91,0,0,0-1.68,1.07v-.23a3.87,3.87,0,0,1,3.64-3A2.84,2.84,0,0,1,118.05,39.83Z"/><path class="cls-3" d="M133.28,37c-1.65.19-2.38,1.59-2.38,6.94,0,4,2,6.24,4.54,6.24a6.08,6.08,0,0,0,4.09-1.48v.17a7.86,7.86,0,0,1-5.94,2.52A7.32,7.32,0,0,1,126.12,44a7.17,7.17,0,0,1,7.16-7.22Zm6.22,3a2.6,2.6,0,0,1-2.8,2.69,2.4,2.4,0,0,1-2.44-1.76,2.42,2.42,0,0,0,1.35-2A1.67,1.67,0,0,0,134.4,37v-.19C138.07,36.81,139.5,38.38,139.5,40Z"/><path class="cls-3" d="M141.32,47.78c0-2.43,2.24-3.8,5.38-3.8h3v.16h-.84a2.78,2.78,0,0,0-3,3.06c0,1.54.45,2.71,1.77,2.71a3.08,3.08,0,0,0,2-1v.17a6,6,0,0,1-4.45,2.27C142.89,51.37,141.29,50,141.32,47.78Zm1.12-7.92c0-1.43,1.29-2.88,5.1-3V37a2,2,0,0,0-1.8,2c0,1,.7,1.62,1.82,1.71a3.14,3.14,0,0,1-2.68,1.34A2.24,2.24,0,0,1,142.44,39.86Zm8.12,8.34V39.64c0-1.38-.53-2.47-1.9-2.66v-.17c4.64.17,6.49,1.93,6.49,5.6v6.8c0,.81.28,1.15.79,1.15s.89-.42,1.34-1.26h.17c-.45,1.54-2,2.27-3.64,2.27C151.57,51.37,150.56,50.58,150.56,48.2Z"/><path class="cls-3" d="M165,49.49c0,.7.42,1.43,2.1,1.43v.17h-8.82v-.17c1.68,0,2.1-.73,2.1-1.43V39.55c0-1-.48-1.48-2.08-1.48V37.9a17.21,17.21,0,0,0,6.7-1.09Zm7.56-9.66A3,3,0,0,1,169.71,43a1.88,1.88,0,0,1-1.59-.61,2.05,2.05,0,0,0,1.09-1.91A1.49,1.49,0,0,0,167.64,39,1.91,1.91,0,0,0,166,40.06v-.23a3.87,3.87,0,0,1,3.64-3A2.84,2.84,0,0,1,172.6,39.83Z"/><path class="cls-3" d="M24.67,77.76a1.43,1.43,0,0,0-1.57,1.4c0,.81.56,1.84,2.5,2v.17c-3.73-.14-5.77-1.15-5.77-2.77a2.19,2.19,0,0,1,2.38-2.08A2.85,2.85,0,0,1,24.67,77.76ZM25.6,67c-1,.19-2.05.72-2,1.87.08,3.25,9.16,3.78,9.16,8.23,0,2.72-2.3,4.15-5.91,4.29V81.2c1.17-.2,2.49-.62,2.49-2.07,0-2.91-9.18-4-9.18-8.23,0-2.47,2.32-4,5.46-4.09Zm6.6,2.71a1.83,1.83,0,0,1-2.07,1.74,2.42,2.42,0,0,1-2.38-1.35A1.24,1.24,0,0,0,29,68.77c0-.84-1.06-1.65-2.18-1.79v-.17C30,67,32.2,68.12,32.2,69.69Z"/><path class="cls-3" d="M41.05,85.34c0,1,.48,1.49,2.07,1.49V87a18.39,18.39,0,0,0-6.69,1.09V69.52c0-1-.47-1.48-2.07-1.48v-.17a18.39,18.39,0,0,0,6.69-1.09ZM51.72,74c0,5.85-3.08,7.42-5.74,7.42a5.24,5.24,0,0,1-4.09-2.27v-.17a4,4,0,0,0,2.35,1c1.32,0,2.72-.92,2.72-6s-1.32-5.71-2.72-5.71a3.16,3.16,0,0,0-2.35,1v-.22A5.21,5.21,0,0,1,46,66.81C48.7,66.81,51.72,68.38,51.72,74Z"/><path class="cls-3" d="M54.18,74A6.94,6.94,0,0,1,61,66.81V67c-1.65.19-2.1,1.59-2.1,6.94,0,4,1.8,6.24,4.29,6.24a6.09,6.09,0,0,0,4.09-1.48v.17a7.86,7.86,0,0,1-5.94,2.52A7.1,7.1,0,0,1,54.18,74Zm6.3-1.17c2.47,0,3.5-.79,3.5-3.14,0-1.34-.56-2.58-1.82-2.74v-.17c3.7,0,5.49,2.63,5.49,4.76A7.67,7.67,0,0,1,67.51,73h-7Z"/><path class="cls-3" d="M77.12,67c-1.66.19-2.38,1.59-2.38,6.94,0,4,2,6.24,4.53,6.24a6.08,6.08,0,0,0,4.09-1.48v.17a7.86,7.86,0,0,1-5.94,2.52A7.32,7.32,0,0,1,70,74a7.17,7.17,0,0,1,7.17-7.22Zm6.21,3a2.6,2.6,0,0,1-2.8,2.69A2.37,2.37,0,0,1,78.1,70.9a2.43,2.43,0,0,0,1.34-2.05A1.67,1.67,0,0,0,78.24,67v-.19C81.9,66.81,83.33,68.38,83.33,70Z"/><path class="cls-3" d="M85,67.87a17.21,17.21,0,0,0,6.7-1.09V79.49c0,.7.42,1.43,2.1,1.43v.17H85v-.17c1.68,0,2.1-.73,2.1-1.43v-10c0-1-.48-1.48-2.08-1.48Zm1.43-5.26c0-1.46,1.18-2.44,2.86-2.44s2.85,1,2.85,2.44S91,65.07,89.27,65.07,86.41,64.09,86.41,62.61Z"/><path class="cls-3" d="M95.18,77.78c0-2.43,2.24-3.8,5.37-3.8h3v.16h-.84a2.78,2.78,0,0,0-3,3.06c0,1.54.45,2.71,1.76,2.71a3.08,3.08,0,0,0,2-1v.17a6,6,0,0,1-4.46,2.27C96.74,81.37,95.15,80,95.18,77.78Zm1.12-7.92c0-1.43,1.28-2.88,5.09-3V67a2,2,0,0,0-1.79,2c0,1,.7,1.62,1.82,1.71a3.16,3.16,0,0,1-2.69,1.34A2.23,2.23,0,0,1,96.3,69.86Zm8.12,8.34V69.64c0-1.38-.54-2.47-1.91-2.66v-.17c4.65.17,6.5,1.93,6.5,5.6v6.8c0,.81.28,1.15.78,1.15s.9-.42,1.35-1.26h.16c-.44,1.54-2,2.27-3.64,2.27C105.42,81.37,104.42,80.58,104.42,78.2Z"/><path class="cls-3" d="M112,61.6a17.19,17.19,0,0,0,6.69-1.09v19c0,.7.42,1.43,2.1,1.43v.17H112v-.17c1.68,0,2.1-.73,2.1-1.43V63.25c0-1-.47-1.48-2.07-1.48Z"/><path class="cls-3" d="M122.19,65.55c0-2.49,3.36-3.7,5.91-3.78v.17a2.77,2.77,0,0,0-2,2.71,2.41,2.41,0,0,0,1.57,2.41,3.07,3.07,0,0,1-2.57,1.12A2.65,2.65,0,0,1,122.19,65.55Zm4.12,14.87c0-1.54,1.23-2.55,3-2.55s3,1,3,2.55-1.23,2.57-3,2.57S126.31,82,126.31,80.42Zm.76-7.87c0-3.14,4.45-4.06,4.45-7.65a2.74,2.74,0,0,0-2-3v-.17c3.87.25,6.78,1.51,6.78,4.62,0,3.81-6.08,5-6.08,7.47a1.66,1.66,0,0,0,1,1.63l0,.17C128.38,75.66,127.07,74.26,127.07,72.55Z"/></g></svg>