<?xml version="1.0" encoding="utf-8"?>
<!-- Generator: Adobe Illustrator 24.0.3, SVG Export Plug-In . SVG Version: 6.00 Build 0)  -->
<svg version="1.1" id="Layer_1" xmlns="http://www.w3.org/2000/svg" xmlns:xlink="http://www.w3.org/1999/xlink" x="0px" y="0px"
	 viewBox="0 0 300 250" style="enable-background:new 0 0 300 250;" xml:space="preserve">
<style type="text/css">
	.st0{clip-path:url(#SVGID_2_);}
	.st1{enable-background:new    ;}
	.st2{fill:#FFFFFF;}
</style>
<title>Artboard 1 copy</title>
<g>
	<defs>
		<rect id="SVGID_1_" y="0" width="300" height="250"/>
	</defs>
	<clipPath id="SVGID_2_">
		<use xlink:href="#SVGID_1_"  style="overflow:visible;"/>
	</clipPath>
	<g class="st0">
		<g class="st1">
			<path class="st2" d="M35.2,32.8v0.2c-2.3,0.3-3.9,2.6-3.9,10.8c0,8.3,1.6,10.9,3.9,11.2v0.2C30.6,54.9,25,51.5,25,44
				C25,36.7,30.9,33,35.2,32.8z M36.7,32.9v-0.2c3.3,0.2,5.1,0.6,6.6,1.5l1-1.5h0.3v7.8h-0.3C43.4,36.8,40.5,33.7,36.7,32.9z
				 M47.6,45.6v0.2c-1.5,0-2.4,0.6-2.4,1.9v7.4H45l-1.2-1.9c-1.6,1.2-3.8,1.8-7,1.9V55c2.2-0.2,3.4-1.3,3.4-3.9v-3.3
				c0-1.3-0.6-1.9-2.4-1.9v-0.2H47.6z"/>
			<path class="st2" d="M49.5,46.8c0-5.4,4.1-8.2,7.8-8.3v0.2c-1.9,0.2-2.4,1.8-2.4,7.9c0,4.6,2,7.1,4.9,7.1c1.8,0,3.2-0.5,4.7-1.7
				v0.2c-1.7,2.1-4.7,2.9-6.8,2.9C53.7,55.2,49.5,52.1,49.5,46.8z M56.7,45.4c2.8,0,4-0.9,4-3.6c0-1.5-0.6-2.9-2.1-3.1v-0.2
				c4.2,0,6.3,3,6.3,5.4c0,0.5-0.1,1.2-0.2,1.7h-8V45.4z"/>
			<path class="st2" d="M79.4,52.4v0.2c-1,1.5-3.1,2.6-5.5,2.6c-2.9,0-4.9-1.3-4.9-4.5V40.1h-1.7l0.4-0.5H69v-3.5
				c2,0,3.9-0.6,5.2-1.8v5.2h4.3l-0.4,0.5h-4v10.6c0,1.6,0.6,3.3,2.1,3.3C77.2,54,78.3,53.4,79.4,52.4z"/>
			<path class="st2" d="M88.5,51.1c0-2.8,2.6-4.4,6.1-4.4h3.5v0.2h-1c-2.3,0-3.4,1.5-3.4,3.5c0,1.8,0.5,3.1,2,3.1
				c0.9,0,1.6-0.5,2.3-1.1v0.2c-1.1,1.2-2.8,2.6-5.1,2.6C90.3,55.2,88.5,53.6,88.5,51.1z M89.8,42c0-1.6,1.5-3.3,5.8-3.5v0.2
				c-1.3,0.2-2,1.2-2,2.3c0,1.2,0.8,1.9,2.1,2c-0.5,0.9-1.8,1.5-3.1,1.5C90.8,44.5,89.8,43.3,89.8,42z M99.1,51.5v-9.8
				c0-1.6-0.6-2.8-2.2-3v-0.2c5.3,0.2,7.4,2.2,7.4,6.4v7.8c0,0.9,0.3,1.3,0.9,1.3c0.5,0,1-0.5,1.5-1.4h0.2c-0.5,1.8-2.2,2.6-4.2,2.6
				C100.2,55.2,99.1,54.3,99.1,51.5z"/>
		</g>
		<g class="st1">
			<path class="st2" d="M124.8,55v0.2c-2.5-0.1-4.5-0.5-6.2-1.6l-1.1,1.6h-0.3v-7.8h0.3C118.6,51,120.9,53.6,124.8,55z M134.2,48.6
				c0,4.1-3.1,6.4-8,6.6V55c1.8-0.3,3.5-1.3,3.5-3.3c0-5.6-12.2-6.1-12.2-12.6c0-3.8,3.1-6,7.4-6.3v0.2c-1.5,0.3-2.8,1.2-2.8,2.9
				C122,41.5,134.2,42.1,134.2,48.6z M126.2,32.9v-0.2c2.4,0.1,4.3,0.6,5.8,1.7l1.2-1.7h0.3v7.1h-0.3
				C132.1,36.5,129.3,33.7,126.2,32.9z"/>
		</g>
		<g class="st1">
			<path class="st2" d="M148.8,52.4v0.2c-1,1.5-3.1,2.6-5.5,2.6c-2.9,0-4.9-1.3-4.9-4.5V40.1h-1.7l0.4-0.5h1.3v-3.5
				c2,0,3.9-0.6,5.2-1.8v5.2h4.3l-0.4,0.5h-4v10.6c0,1.6,0.6,3.3,2.1,3.3C146.7,54,147.8,53.4,148.8,52.4z"/>
			<path class="st2" d="M149.8,51.1c0-2.8,2.6-4.4,6.1-4.4h3.5v0.2h-1c-2.3,0-3.4,1.5-3.4,3.5c0,1.8,0.5,3.1,2,3.1
				c0.9,0,1.6-0.5,2.3-1.1v0.2c-1.1,1.2-2.8,2.6-5.1,2.6C151.6,55.2,149.8,53.6,149.8,51.1z M151.1,42c0-1.6,1.5-3.3,5.8-3.5v0.2
				c-1.3,0.2-2,1.2-2,2.3c0,1.2,0.8,1.9,2.1,2c-0.5,0.9-1.8,1.5-3.1,1.5C152.2,44.5,151.1,43.3,151.1,42z M160.4,51.5v-9.8
				c0-1.6-0.6-2.8-2.2-3v-0.2c5.3,0.2,7.4,2.2,7.4,6.4v7.8c0,0.9,0.3,1.3,0.9,1.3c0.5,0,1-0.5,1.5-1.4h0.2c-0.5,1.8-2.2,2.6-4.2,2.6
				C161.6,55.2,160.4,54.3,160.4,51.5z"/>
		</g>
		<g class="st1">
			<path class="st2" d="M176.9,53c0,0.8,0.5,1.6,2.4,1.6v0.2h-10.1v-0.2c1.9,0,2.4-0.8,2.4-1.6V41.6c0-1.2-0.5-1.7-2.4-1.7v-0.2
				c3,0,5.4-0.3,7.6-1.2V53z M185.6,42c0,2.2-1.6,3.6-3.3,3.6c-0.8,0-1.4-0.2-1.8-0.7c0.6-0.3,1.2-1,1.2-2.2c0-0.9-0.7-1.7-1.8-1.7
				c-0.8,0-1.5,0.5-1.9,1.2V42c0.6-2,2.2-3.5,4.2-3.5C184.4,38.5,185.6,40,185.6,42z"/>
		</g>
		<g class="st1">
			<path class="st2" d="M24.8,86.8v-0.2c1.9,0,2.4-0.7,2.4-1.6V66.9c0-0.9-0.5-1.7-2.4-1.7v-0.2h7.8v21.8H24.8z M42.7,65.1V71h-0.3
				c-1.4-4-3.3-5.4-8.2-5.7v-0.2H42.7z M34.3,75.7v-0.2l1.8-0.2c1.9-0.2,3.2-0.9,4.2-2.8h0.3v6h-0.3c-1.1-1.8-2.3-2.5-4.2-2.7
				L34.3,75.7z M34.3,86.6c4.9-0.3,7.1-1.7,8.9-5.7h0.3v5.9h-9.1V86.6z"/>
			<path class="st2" d="M45.8,86.6c1.9,0,2.4-0.8,2.4-1.6V73.6c0-1.2-0.5-1.7-2.4-1.7v-0.2c3,0,5.4-0.3,7.6-1.2V85
				c0,0.8,0.5,1.6,2.4,1.6v0.2H45.8V86.6z M57,86.6c1.9,0,2.4-0.8,2.4-1.6V75c0-1.8-0.9-2.7-2.5-2.7c-0.9,0-1.7,0.3-2.4,1v-0.2
				c0.9-1.3,2.9-2.6,5.3-2.6c2.9,0,4.9,1.3,4.9,4.5v10c0,0.8,0.5,1.6,2.4,1.6v0.2H57V86.6z"/>
			<path class="st2" d="M80.6,84.4v0.2c-1,1.5-3.1,2.6-5.5,2.6c-2.9,0-4.9-1.3-4.9-4.5V72.1h-1.7l0.4-0.5h1.3v-3.5
				c2,0,3.9-0.6,5.2-1.8v5.2h4.3l-0.4,0.5h-4v10.6c0,1.6,0.6,3.3,2.1,3.3C78.5,86,79.6,85.4,80.6,84.4z"/>
			<path class="st2" d="M88.9,85c0,0.8,0.5,1.6,2.4,1.6v0.2H81.2v-0.2c1.9,0,2.4-0.8,2.4-1.6V66.4c0-1.2-0.5-1.7-2.4-1.7v-0.2
				c3,0,5.4-0.3,7.6-1.2V85z M100.1,75v10c0,0.8,0.5,1.6,2.4,1.6v0.2h-10v-0.2c1.9,0,2.4-0.8,2.4-1.6V75c0-1.8-0.9-2.7-2.5-2.7
				c-0.9,0-1.7,0.3-2.4,1v-0.2c0.9-1.3,2.9-2.6,5.3-2.6C98,70.5,100.1,71.9,100.1,75z"/>
			<path class="st2" d="M111,82.6c0,1.8,0.6,2.7,2.2,2.7c0.8,0,1.5-0.3,2.2-1v0.2c-0.7,1.4-2.4,2.6-5,2.6c-2.9,0-4.7-1.3-4.7-4.5v-9
				c0-1.2-0.5-1.7-2.4-1.7v-0.2c3,0,5.4-0.3,7.6-1.2V82.6z M121.6,84.7c0,0.9,0.3,1.3,0.9,1.3c0.5,0,1-0.5,1.5-1.4h0.2
				c-0.5,1.8-2.2,2.6-4.4,2.6c-2.2,0-3.5-1.3-3.5-3.1V73.6c0-1.2-0.5-1.7-2.3-1.7v-0.2c2.9,0,4.9-0.3,7.6-1.2V84.7z"/>
			<path class="st2" d="M131.6,83c-1.1,0-1.8,0.6-1.8,1.6c0,0.9,0.6,2.1,2.8,2.3v0.2c-4.3-0.2-6.6-1.3-6.6-3.2
				c0-1.5,1.3-2.4,2.7-2.4C130.1,81.6,131.2,82.2,131.6,83z M132.7,70.7c-1.2,0.2-2.3,0.8-2.3,2.1c0.1,3.7,10.5,4.3,10.5,9.4
				c0,3.1-2.6,4.7-6.8,4.9V87c1.3-0.2,2.8-0.7,2.8-2.4c0-3.3-10.5-4.5-10.5-9.4c0-2.8,2.7-4.5,6.2-4.7V70.7z M140.2,73.8
				c0,1-0.8,2-2.4,2c-1.3,0-2.3-0.6-2.7-1.5c1-0.1,1.5-0.7,1.4-1.5c0-1-1.2-1.9-2.5-2v-0.2C137.7,70.7,140.2,72,140.2,73.8z"/>
			<path class="st2" d="M143,71.7c3,0,5.4-0.3,7.6-1.2V85c0,0.8,0.5,1.6,2.4,1.6v0.2H143v-0.2c1.9,0,2.4-0.8,2.4-1.6V73.6
				c0-1.2-0.5-1.7-2.4-1.7V71.7z M144.7,65.7c0-1.7,1.3-2.8,3.3-2.8s3.3,1.1,3.3,2.8c0,1.7-1.3,2.8-3.3,2.8S144.7,67.4,144.7,65.7z"
				/>
			<path class="st2" d="M154.7,83.1c0-2.8,2.6-4.4,6.1-4.4h3.5v0.2h-1c-2.3,0-3.4,1.5-3.4,3.5c0,1.8,0.5,3.1,2,3.1
				c0.9,0,1.6-0.5,2.3-1.1v0.2c-1.1,1.2-2.8,2.6-5.1,2.6C156.5,87.2,154.6,85.6,154.7,83.1z M156,74c0-1.6,1.5-3.3,5.8-3.5v0.2
				c-1.3,0.2-2,1.2-2,2.3c0,1.2,0.8,1.9,2.1,2c-0.5,0.9-1.8,1.5-3.1,1.5C157,76.5,156,75.3,156,74z M165.2,83.5v-9.8
				c0-1.6-0.6-2.8-2.2-3v-0.2c5.3,0.2,7.4,2.2,7.4,6.4v7.8c0,0.9,0.3,1.3,0.9,1.3c0.5,0,1-0.5,1.5-1.4h0.2c-0.5,1.8-2.2,2.6-4.2,2.6
				C166.4,87.2,165.2,86.3,165.2,83.5z"/>
			<path class="st2" d="M180.2,83c-1.1,0-1.8,0.6-1.8,1.6c0,0.9,0.6,2.1,2.8,2.3v0.2c-4.3-0.2-6.6-1.3-6.6-3.2
				c0-1.5,1.3-2.4,2.7-2.4C178.7,81.6,179.8,82.2,180.2,83z M181.3,70.7c-1.2,0.2-2.3,0.8-2.3,2.1c0.1,3.7,10.5,4.3,10.5,9.4
				c0,3.1-2.6,4.7-6.8,4.9V87c1.3-0.2,2.8-0.7,2.8-2.4c0-3.3-10.5-4.5-10.5-9.4c0-2.8,2.7-4.5,6.2-4.7V70.7z M188.9,73.8
				c0,1-0.8,2-2.4,2c-1.3,0-2.3-0.6-2.7-1.5c1-0.1,1.5-0.7,1.4-1.5c0-1-1.2-1.9-2.5-2v-0.2C186.3,70.7,188.9,72,188.9,73.8z"/>
			<path class="st2" d="M204,84.4v0.2c-1,1.5-3.1,2.6-5.5,2.6c-2.9,0-4.9-1.3-4.9-4.5V72.1h-1.7l0.4-0.5h1.3v-3.5
				c2,0,3.9-0.6,5.2-1.8v5.2h4.3l-0.4,0.5h-4v10.6c0,1.6,0.6,3.3,2.1,3.3C201.8,86,202.9,85.4,204,84.4z"/>
		</g>
		<g class="st1">
			<path class="st2" d="M36.2,105.1v0.3c-0.7-0.8-1.7-1.2-2.7-1.2c-1.6,0-3.1,0.7-3.1,6.5c0,5.8,1.6,6.8,3.1,6.8
				c1,0,1.9-0.5,2.7-1.1v0.2c-0.8,1.3-2.8,2.6-4.7,2.6c-3,0-6.6-1.8-6.6-8.5c0-6.4,3.5-8.2,6.6-8.2
				C33.3,102.5,35.4,103.7,36.2,105.1z M42.4,123.7c0,1.2,0.5,1.7,2.4,1.7v0.2c-3,0-5,0.3-7.6,1.2v-23.1c1.7-0.2,3.8-0.6,5.3-1.2
				V123.7z"/>
			<path class="st2" d="M53.1,114.6c0,1.8,0.6,2.7,2.2,2.7c0.8,0,1.5-0.3,2.2-1v0.2c-0.7,1.4-2.4,2.6-5,2.6c-2.9,0-4.7-1.3-4.7-4.5
				v-9c0-1.2-0.5-1.7-2.4-1.7v-0.2c3,0,5.4-0.3,7.6-1.2V114.6z M63.8,116.7c0,0.9,0.3,1.3,0.9,1.3c0.5,0,1-0.5,1.5-1.4h0.2
				c-0.5,1.8-2.2,2.6-4.4,2.6c-2.2,0-3.5-1.3-3.5-3.1v-10.4c0-1.2-0.5-1.7-2.3-1.7v-0.2c2.9,0,4.9-0.3,7.6-1.2V116.7z"/>
			<path class="st2" d="M76.2,102.7c-1.9,0.2-2.5,1.8-2.5,8.1c0,6,0.6,8,2.5,8.2v0.2c-3.7,0-8-3-8-8.4s4.2-8.2,8-8.3V102.7z
				 M85.4,110.8c0,5.3-4.3,8.4-7.9,8.4V119c1.9-0.2,2.5-2.2,2.5-8.2c0-6.3-0.6-7.9-2.5-8.1v-0.2C81.2,102.5,85.4,105.4,85.4,110.8z"
				/>
		</g>
		<g class="st1">
			<path class="st2" d="M99.9,116.4v0.2c-1,1.5-3.1,2.6-5.5,2.6c-2.9,0-4.9-1.3-4.9-4.5v-10.5h-1.7l0.4-0.5h1.3v-3.5
				c2,0,3.9-0.6,5.2-1.8v5.2h4.3l-0.4,0.5h-4v10.6c0,1.6,0.6,3.3,2.1,3.3C97.8,118,98.9,117.4,99.9,116.4z"/>
		</g>
		<g class="st1">
			<path class="st2" d="M101.1,110.8c0-5.4,4.1-8.2,7.8-8.3v0.2c-1.9,0.2-2.4,1.8-2.4,7.9c0,4.6,2,7.1,4.9,7.1
				c1.8,0,3.2-0.5,4.7-1.7v0.2c-1.7,2.1-4.7,2.9-6.8,2.9C105.2,119.2,101.1,116.1,101.1,110.8z M108.3,109.4c2.8,0,4-0.9,4-3.6
				c0-1.5-0.6-2.9-2.1-3.1v-0.2c4.2,0,6.3,3,6.3,5.4c0,0.5-0.1,1.2-0.2,1.7h-8V109.4z"/>
		</g>
	</g>
</g>
</svg>
