<svg id="Layer_1" data-name="Layer 1" xmlns="http://www.w3.org/2000/svg" viewBox="0 0 300.25 250.25"><defs><style>.cls-1{fill:none;}.cls-2{fill:#74503e;}.cls-3{fill:#fff;}</style></defs><title>Artboard 6</title><rect class="cls-1" x="-0.11" y="0.18" width="300" height="250"/><rect class="cls-1" x="0.13" y="0.13" width="300" height="250"/><path class="cls-2" d="M27.58,226.17H153.46a12,12,0,0,0,10.67-6.48l15.8-30.47a12,12,0,0,0,0-11.07l-15.8-30.47a12,12,0,0,0-10.67-6.49H27.58a7.3,7.3,0,0,0-7.3,7.3v70.38A7.3,7.3,0,0,0,27.58,226.17Z"/><path class="cls-3" d="M83.63,173.22l.29-.43c.22-.3.45-.31.78-.12a3.41,3.41,0,0,0,1.94.7c.89,0,1.43-.45,1.43-1.09,0-1.82-4.46-1.44-4.46-4.42,0-1.68,1.4-2.77,3.22-2.77a4.39,4.39,0,0,1,2.46.73.52.52,0,0,1,.18.76l-.25.45c-.2.39-.48.34-.76.19a3.13,3.13,0,0,0-1.66-.53c-.89,0-1.45.43-1.45,1.08,0,1.79,4.45,1.33,4.45,4.37A2.86,2.86,0,0,1,86.64,175a5.07,5.07,0,0,1-2.93-1A.5.5,0,0,1,83.63,173.22Z"/><path class="cls-3" d="M93.65,166.75H91.08a.5.5,0,0,1-.56-.56v-.37a.5.5,0,0,1,.56-.57H98a.5.5,0,0,1,.55.57v.37a.49.49,0,0,1-.55.56H95.38v7.49a.5.5,0,0,1-.57.57H94.2a.5.5,0,0,1-.55-.57Z"/><path class="cls-3" d="M100.77,165.71a.61.61,0,0,1,.63-.46h.86a.61.61,0,0,1,.64.46l3,8.45c.14.39,0,.65-.45.65h-.62a.61.61,0,0,1-.64-.46l-.67-2h-3.35l-.66,2a.6.6,0,0,1-.63.47h-.62c-.42,0-.59-.26-.46-.65Zm2.3,5.24-.85-2.56c-.16-.54-.37-1.48-.37-1.48h0s-.22.94-.38,1.48l-.86,2.56Z"/><path class="cls-3" d="M107.09,165.82a.5.5,0,0,1,.55-.57h2.59a4.23,4.23,0,0,1,1.81.26,2.65,2.65,0,0,1,1.6,2.61,2.76,2.76,0,0,1-1.58,2.61v0a3.11,3.11,0,0,1,.31.49l1.57,2.88c.23.4,0,.68-.39.68h-.73a.68.68,0,0,1-.66-.39l-1.68-3.18h-1.67v3a.5.5,0,0,1-.55.57h-.62a.5.5,0,0,1-.55-.57Zm3.28,3.91a1.4,1.4,0,0,0,1.51-1.52,1.28,1.28,0,0,0-.75-1.3,2.39,2.39,0,0,0-1-.16h-1.28v3Z"/><path class="cls-3" d="M84.26,177.49a.29.29,0,0,1,.32-.33h.28a.3.3,0,0,1,.33.33v8.79a.3.3,0,0,1-.33.34h-.28a.3.3,0,0,1-.32-.34Z"/><path class="cls-3" d="M87.43,180.18a.3.3,0,0,1,.33-.33H88a.3.3,0,0,1,.33.33V181a2.07,2.07,0,0,1-.06.49h0A3,3,0,0,1,91,179.69c1.69,0,2.28.95,2.28,2.62v4a.31.31,0,0,1-.34.34h-.25a.3.3,0,0,1-.33-.34v-3.73c0-1.06-.17-2-1.48-2a2.62,2.62,0,0,0-2.57,2.76v3a.3.3,0,0,1-.32.34h-.26a.3.3,0,0,1-.33-.34Z"/><path class="cls-3" d="M94.76,185.54l.11-.14c.12-.16.27-.17.46-.05a2.89,2.89,0,0,0,1.79.62c.75,0,1.37-.38,1.37-1.09,0-1.52-3.62-1.06-3.62-3.3,0-1.25,1.06-1.89,2.3-1.89a3.14,3.14,0,0,1,1.86.55.29.29,0,0,1,.09.44l-.09.15c-.11.19-.27.2-.46.09a2.58,2.58,0,0,0-1.45-.43c-.72,0-1.34.31-1.34,1,0,1.56,3.61,1.07,3.61,3.33a2,2,0,0,1-2.29,1.91,3.52,3.52,0,0,1-2.28-.78A.3.3,0,0,1,94.76,185.54Z"/><path class="cls-3" d="M100.75,180.18a.29.29,0,0,1,.32-.33h.26a.3.3,0,0,1,.33.33v3.73c0,1.06.17,2,1.47,2a2.63,2.63,0,0,0,2.5-2.83v-2.91a.31.31,0,0,1,.34-.33h.26a.29.29,0,0,1,.32.33v6.1a.3.3,0,0,1-.32.34H106a.3.3,0,0,1-.32-.34v-.78a3.06,3.06,0,0,1,0-.49h0a2.93,2.93,0,0,1-2.66,1.77c-1.6,0-2.26-.86-2.26-2.63Z"/><path class="cls-3" d="M108.53,180.18a.3.3,0,0,1,.34-.33h.24a.3.3,0,0,1,.32.33v.92a3.09,3.09,0,0,1-.05.54h0a2.4,2.4,0,0,1,2.18-1.83c.24,0,.35.1.35.32v.24c0,.22-.15.34-.38.34-1.43,0-2.11,1.63-2.11,3v2.53a.3.3,0,0,1-.33.34h-.25a.31.31,0,0,1-.34-.34Z"/><path class="cls-3" d="M116.6,182.47H117v-.21c0-1.31-.72-1.75-1.67-1.75a3.17,3.17,0,0,0-1.64.47.33.33,0,0,1-.46-.11l-.08-.14a.3.3,0,0,1,.09-.45,4.11,4.11,0,0,1,2.16-.59,2.3,2.3,0,0,1,2.51,2.59v4c0,.22-.1.34-.32.34h-.22a.3.3,0,0,1-.33-.34v-.54a2.87,2.87,0,0,1,0-.51h0a2.5,2.5,0,0,1-2.29,1.55,2.08,2.08,0,0,1-2.28-2C112.47,182.59,115.29,182.47,116.6,182.47ZM114.92,186a2.36,2.36,0,0,0,2.07-2.53v-.32h-.38c-1.06,0-3.2,0-3.2,1.56A1.36,1.36,0,0,0,114.92,186Z"/><path class="cls-3" d="M119.82,180.18a.3.3,0,0,1,.34-.33h.24a.3.3,0,0,1,.32.33V181a2.46,2.46,0,0,1,0,.49h0a3,3,0,0,1,2.73-1.76c1.68,0,2.27.95,2.27,2.62v4a.3.3,0,0,1-.33.34h-.26a.3.3,0,0,1-.32-.34v-3.73c0-1.06-.18-2-1.48-2a2.62,2.62,0,0,0-2.57,2.76v3a.3.3,0,0,1-.32.34h-.26a.31.31,0,0,1-.34-.34Z"/><path class="cls-3" d="M130.77,179.69a3.53,3.53,0,0,1,2.24.76.29.29,0,0,1,.05.46l-.1.15c-.12.19-.27.19-.46.07a2.75,2.75,0,0,0-1.71-.62,2.73,2.73,0,0,0,0,5.45,3,3,0,0,0,1.91-.72.27.27,0,0,1,.44.08l.1.14a.35.35,0,0,1-.08.46,3.78,3.78,0,0,1-2.41.86,3.55,3.55,0,1,1,0-7.09Z"/><path class="cls-3" d="M137.43,179.69c1.81,0,2.83,1.3,2.83,3.23a.34.34,0,0,1-.35.33H135a2.58,2.58,0,0,0,2.62,2.71,2.92,2.92,0,0,0,1.78-.62c.19-.12.33-.1.44.08l.11.16a.31.31,0,0,1-.09.44,3.9,3.9,0,0,1-2.27.76,3.42,3.42,0,0,1-3.53-3.54A3.3,3.3,0,0,1,137.43,179.69Zm1.9,2.88a1.94,1.94,0,0,0-1.92-2.13,2.33,2.33,0,0,0-2.33,2.13Z"/><path class="cls-3" d="M84,190.34a.5.5,0,0,1,.55-.56H89.2a.51.51,0,0,1,.56.56v.38a.5.5,0,0,1-.56.55H85.77v2.5h2.66a.51.51,0,0,1,.57.56v.37a.51.51,0,0,1-.57.57H85.77v2.57h3.64a.5.5,0,0,1,.57.55v.38a.5.5,0,0,1-.57.56H84.59a.49.49,0,0,1-.55-.56Z"/><path class="cls-3" d="M91.2,193a.5.5,0,0,1,.56-.56h.52a.5.5,0,0,1,.55.56v.42a2.9,2.9,0,0,1,0,.31h0a2.68,2.68,0,0,1,2.44-1.45c1.52,0,2.39.79,2.39,2.61v3.85a.49.49,0,0,1-.56.56h-.58a.5.5,0,0,1-.56-.56v-3.5c0-.84-.22-1.4-1.08-1.4a2.06,2.06,0,0,0-2,2.25v2.65a.49.49,0,0,1-.55.56h-.59a.5.5,0,0,1-.56-.56Z"/><path class="cls-3" d="M99.49,193.92h-.37a.49.49,0,0,1-.55-.56v-.23a.51.51,0,0,1,.57-.57h.39v-1.4a.51.51,0,0,1,.56-.56h.54a.51.51,0,0,1,.57.56v1.4h1a.52.52,0,0,1,.57.57v.23a.51.51,0,0,1-.56.56h-1v2.67a1.13,1.13,0,0,0,1.1,1.28c.42,0,.56.17.56.55v.42c0,.4-.22.56-.7.56a2.45,2.45,0,0,1-2.67-2.52Z"/><path class="cls-3" d="M104,190.34a.51.51,0,0,1,.56-.56h.58a.5.5,0,0,1,.57.56v2.78a3.84,3.84,0,0,1,0,.57h0a2.71,2.71,0,0,1,2.39-1.38c1.52,0,2.39.79,2.39,2.61v3.85a.5.5,0,0,1-.56.56h-.58a.5.5,0,0,1-.57-.56v-3.5c0-.84-.21-1.4-1.07-1.4a2,2,0,0,0-2,2.27v2.63a.5.5,0,0,1-.57.56h-.58a.5.5,0,0,1-.56-.56Z"/><path class="cls-3" d="M112,193a.51.51,0,0,1,.56-.56h.58a.5.5,0,0,1,.57.56v3.5c0,.84.21,1.4,1.06,1.4a2.06,2.06,0,0,0,1.92-2.31V193a.5.5,0,0,1,.57-.56h.58a.51.51,0,0,1,.56.56v5.74a.5.5,0,0,1-.56.56h-.53a.49.49,0,0,1-.55-.56v-.41a1.79,1.79,0,0,1,0-.31h0a2.66,2.66,0,0,1-2.38,1.44c-1.47,0-2.38-.74-2.38-2.61Z"/><path class="cls-3" d="M119.78,198l.16-.24c.21-.29.43-.31.77-.14a3,3,0,0,0,1.53.47c.6,0,1-.27,1-.7,0-1.11-3.4-.7-3.4-3,0-1.35,1.18-2.06,2.62-2.06a3.74,3.74,0,0,1,1.91.5.51.51,0,0,1,.2.75l-.13.24c-.16.32-.42.37-.76.22a3,3,0,0,0-1.3-.34c-.59,0-.93.24-.93.67,0,1.13,3.41.69,3.41,3,0,1.21-1,2.11-2.62,2.11a3.92,3.92,0,0,1-2.28-.7A.48.48,0,0,1,119.78,198Z"/><path class="cls-3" d="M126.09,190.75v-.41a.5.5,0,0,1,.55-.56h.59a.51.51,0,0,1,.57.56v.41a.5.5,0,0,1-.57.55h-.59A.49.49,0,0,1,126.09,190.75Zm0,2.28a.5.5,0,0,1,.55-.56h.59a.5.5,0,0,1,.56.56v5.74a.5.5,0,0,1-.56.56h-.59a.49.49,0,0,1-.55-.56Z"/><path class="cls-3" d="M133,195.09h.28v-.16a1.12,1.12,0,0,0-1.28-1.21,3.15,3.15,0,0,0-1.42.39.51.51,0,0,1-.76-.23l-.13-.25a.51.51,0,0,1,.21-.76,4.91,4.91,0,0,1,2.25-.56A2.55,2.55,0,0,1,135,195v3.73a.5.5,0,0,1-.56.56h-.46a.49.49,0,0,1-.55-.56v-.27a1.85,1.85,0,0,1,0-.3h0a2.51,2.51,0,0,1-2.16,1.29,2.1,2.1,0,0,1-2.27-2.05C129,195.43,131.44,195.09,133,195.09Zm-1.28,3.1a1.74,1.74,0,0,0,1.58-1.8v-.26H133c-.86,0-2.32.13-2.32,1.16A.93.93,0,0,0,131.69,198.19Z"/><path class="cls-3" d="M136.25,198l.16-.24c.2-.29.43-.31.77-.14a3,3,0,0,0,1.53.47c.59,0,1-.27,1-.7,0-1.11-3.41-.7-3.41-3,0-1.35,1.19-2.06,2.63-2.06a3.74,3.74,0,0,1,1.91.5.51.51,0,0,1,.2.75l-.13.24a.51.51,0,0,1-.76.22,3,3,0,0,0-1.3-.34c-.6,0-.93.24-.93.67,0,1.13,3.4.69,3.4,3,0,1.21-1,2.11-2.61,2.11a4,4,0,0,1-2.29-.7A.48.48,0,0,1,136.25,198Z"/><path class="cls-3" d="M142.87,193.92h-.36a.49.49,0,0,1-.55-.56v-.23a.51.51,0,0,1,.57-.57h.39v-1.4a.51.51,0,0,1,.56-.56H144a.51.51,0,0,1,.56.56v1.4h1a.52.52,0,0,1,.57.57v.23a.51.51,0,0,1-.56.56h-1v2.67a1.13,1.13,0,0,0,1.11,1.28c.42,0,.56.17.56.55v.42c0,.4-.23.56-.7.56a2.46,2.46,0,0,1-2.68-2.52Z"/><path class="cls-3" d="M51.81,195a1,1,0,0,1-.44-.1,1,1,0,0,1-.47-1.14l10-30.67a2.11,2.11,0,0,1,2-1.47h0a2.09,2.09,0,0,1,2,1.47l2,6.08a.72.72,0,0,1-1.37.46l-2-6.09a.66.66,0,0,0-.65-.47h0a.65.65,0,0,0-.65.47l-9,27.73,12.69-17.37a4,4,0,0,1,3.18-1.62h8.46a2.13,2.13,0,0,1,1.25,3.85l-7.73,5.62-.08.07,3,9.19a2.13,2.13,0,0,1-3.28,2.37L64,188.57a2.12,2.12,0,0,1,0-3.44l5.6-4.06.09-.08L78,175a.66.66,0,0,0,.25-.76.67.67,0,0,0-.65-.47H69.1a2.52,2.52,0,0,0-2,1L52.57,194.65A.94.94,0,0,1,51.81,195Zm18-12.29-4.89,3.54a.69.69,0,0,0-.28.56.67.67,0,0,0,.28.55l6.68,4.86a.68.68,0,0,0,1-.77Z"/><path class="cls-3" d="M52.32,179.8a.69.69,0,0,1-.41-.13L47,176.18a2.13,2.13,0,0,1,1.25-3.86h6a.73.73,0,0,1,0,1.45h-6a.66.66,0,0,0-.65.47.65.65,0,0,0,.24.76l4.93,3.49a.72.72,0,0,1-.42,1.31Z"/><path class="cls-3" d="M59,205.22a2.28,2.28,0,0,1-1.15-.31l-12.6-7.15a.71.71,0,0,1-.37-.62V181.76a.73.73,0,0,1,1.45,0v15l12.23,6.94a.92.92,0,0,0,.92,0l8.94-5.6a.73.73,0,0,1,1,.23.72.72,0,0,1-.23,1l-8.94,5.6A2.33,2.33,0,0,1,59,205.22Z"/></svg>