<svg id="Layer_1" data-name="Layer 1" xmlns="http://www.w3.org/2000/svg" xmlns:xlink="http://www.w3.org/1999/xlink" viewBox="0 0 320 50"><defs><style>.cls-1{fill:none;}.cls-2{clip-path:url(#clip-path);}.cls-3{fill:#fff;}</style><clipPath id="clip-path"><rect class="cls-1" width="320" height="50"/></clipPath></defs><title>Artboard 2 copy 2</title><g class="cls-2"><path class="cls-3" d="M18.37,18.34l.06.12a4.39,4.39,0,0,1-3.86,1.94,5.68,5.68,0,0,1-5.85-5.59A5.4,5.4,0,0,1,14.19,9.2v.09c-1.12.24-2.34,1.3-2.34,5.41s1.65,5.06,3.46,5.06A4,4,0,0,0,18.37,18.34ZM18.5,9.2v3.88h-.13C17.74,11,16.56,9.72,15,9.29V9.2a5.52,5.52,0,0,1,2.9.73l.48-.73Z"/><path class="cls-3" d="M23.6,12.17c-1,.11-1.27.91-1.27,4s.32,4,1.27,4.09v.1a4.08,4.08,0,0,1-4-4.19,4,4,0,0,1,4-4.13Zm4.61,4a4.08,4.08,0,0,1-4,4.19v-.1c.94-.09,1.25-1.1,1.25-4.09,0-3.14-.32-3.94-1.25-4v-.09A4,4,0,0,1,28.21,16.21Z"/><path class="cls-3" d="M29.26,20.14c1,0,1.2-.41,1.2-.81V13.65c0-.58-.27-.85-1.18-.85v-.1a9.89,9.89,0,0,0,3.82-.62v7.25c0,.4.24.81,1.2.81v.1h-5Zm5.63,0c1,0,1.19-.41,1.19-.81v-5A1.19,1.19,0,0,0,34.81,13a1.71,1.71,0,0,0-1.21.5v-.1a3.26,3.26,0,0,1,2.65-1.29c1.44,0,2.47.67,2.47,2.25v5c0,.4.24.81,1.2.81v.1h-5Z"/><path class="cls-3" d="M46.7,19v.09A3.33,3.33,0,0,1,44,20.4c-1.44,0-2.46-.66-2.46-2.26V12.89h-.83l.17-.24h.66V10.92A4,4,0,0,0,44.12,10v2.62h2.17l-.18.24h-2v5.3c0,.8.31,1.63,1.06,1.63A2.34,2.34,0,0,0,46.7,19Z"/><path class="cls-3" d="M47.21,18.35c0-1.39,1.28-2.18,3.08-2.18H52v.1h-.48A1.58,1.58,0,0,0,49.84,18c0,.88.25,1.55,1,1.55A1.75,1.75,0,0,0,52,19v.09a3.37,3.37,0,0,1-2.54,1.3A2,2,0,0,1,47.21,18.35Zm.64-4.53c0-.82.74-1.65,2.91-1.74v.09a1.17,1.17,0,0,0-1,1.17c0,.58.4.93,1,1a1.8,1.8,0,0,1-1.54.77A1.29,1.29,0,0,1,47.85,13.82Zm4.64,4.77v-4.9c0-.78-.3-1.41-1.08-1.52v-.09c2.65.09,3.71,1.1,3.71,3.2v3.89c0,.46.16.65.45.65s.51-.24.76-.72h.1a2,2,0,0,1-2.08,1.3C53.07,20.4,52.49,20,52.49,18.59Z"/><path class="cls-3" d="M61.31,12.17c-1,.11-1.36.91-1.36,4,0,2.31,1.17,3.57,2.59,3.57a3.46,3.46,0,0,0,2.34-.85V19a4.47,4.47,0,0,1-3.39,1.44,4.19,4.19,0,0,1-4.28-4.19,4.1,4.1,0,0,1,4.1-4.13Zm3.55,1.72a1.48,1.48,0,0,1-1.6,1.53,1.35,1.35,0,0,1-1.39-1,1.37,1.37,0,0,0,.77-1.17A1,1,0,0,0,62,12.19v-.11C64.05,12.08,64.86,13,64.86,13.89Z"/><path class="cls-3" d="M72,19v.09a3.34,3.34,0,0,1-2.74,1.3c-1.44,0-2.46-.66-2.46-2.26V12.89H66l.17-.24h.66V10.92A4,4,0,0,0,69.4,10v2.62h2.17l-.18.24h-2v5.3c0,.8.31,1.63,1.06,1.63A2.34,2.34,0,0,0,72,19Z"/><path class="cls-3" d="M76.32,12.89a.88.88,0,0,0-.89-.56v-.09h4.49v.09c-.56,0-.79.39-.52.95l2.1,4.37-1.38,2.59H80Zm-.71,9.93A1.69,1.69,0,0,1,77,21.31a1.18,1.18,0,0,0-.06.4.93.93,0,0,0,.94,1.07c.56,0,1-.59,1.62-1.61h.11c-.88,1.65-1.49,3.07-2.61,3.07A1.33,1.33,0,0,1,75.61,22.82Zm6.56-6.74A4.29,4.29,0,0,0,82.62,14,1.55,1.55,0,0,0,81,12.33v-.09h4v.09c-.52,0-.73.21-1,.75l-1.66,3.14Z"/><path class="cls-3" d="M89,12.17c-1,.11-1.27.91-1.27,4s.32,4,1.27,4.09v.1a4.08,4.08,0,0,1-4-4.19,4,4,0,0,1,4-4.13Zm4.61,4a4.08,4.08,0,0,1-4,4.19v-.1c.94-.09,1.25-1.1,1.25-4.09,0-3.14-.32-3.94-1.25-4v-.09A4,4,0,0,1,93.65,16.21Z"/><path class="cls-3" d="M98.36,18.14c0,.9.31,1.36,1.11,1.36a1.4,1.4,0,0,0,1.1-.49v.09a2.65,2.65,0,0,1-2.48,1.3,2.07,2.07,0,0,1-2.37-2.26V13.65c0-.58-.27-.85-1.18-.85v-.1a9.82,9.82,0,0,0,3.82-.62Zm5.33,1c0,.46.15.65.44.65s.51-.24.76-.72h.1a2.05,2.05,0,0,1-2.18,1.3,1.55,1.55,0,0,1-1.76-1.57V13.65c0-.58-.27-.85-1.13-.85v-.1a10.44,10.44,0,0,0,3.77-.62Z"/><path class="cls-3" d="M109.47,19.33c0,.4.24.81,1.2.81v.1h-5v-.1c1,0,1.2-.41,1.2-.81V13.65c0-.58-.28-.85-1.19-.85v-.1a9.91,9.91,0,0,0,3.83-.62Zm4.32-5.52a1.71,1.71,0,0,1-1.65,1.82,1.1,1.1,0,0,1-.91-.35,1.18,1.18,0,0,0,.62-1.09.84.84,0,0,0-.89-.86,1.09,1.09,0,0,0-1,.6v-.12a2.2,2.2,0,0,1,2.08-1.73A1.63,1.63,0,0,1,113.79,13.81Z"/><path class="cls-3" d="M11.9,36.22c0,1.52-1,2.18-2.64,2.18V28c0-.57-.29-.84-1.2-.84v-.1a10.64,10.64,0,0,0,3.84-.62ZM18,34.16c0,3.34-1.78,4.24-3.3,4.24a3,3,0,0,1-2.32-1.3V37a2.23,2.23,0,0,0,1.33.56c.75,0,1.57-.53,1.57-3.41s-.77-3.27-1.57-3.27a1.74,1.74,0,0,0-1.33.6v-.13a3,3,0,0,1,2.32-1.28C16.25,30.08,18,31,18,34.16Z"/><path class="cls-3" d="M23,37.33c0,.4.24.81,1.2.81v.1h-5v-.1c1,0,1.2-.41,1.2-.81V31.65c0-.58-.28-.85-1.19-.85v-.1A9.91,9.91,0,0,0,23,30.08Zm4.32-5.52a1.71,1.71,0,0,1-1.65,1.82,1.1,1.1,0,0,1-.91-.35,1.18,1.18,0,0,0,.62-1.09.84.84,0,0,0-.89-.86,1.09,1.09,0,0,0-1,.6v-.12a2.2,2.2,0,0,1,2.08-1.73A1.63,1.63,0,0,1,27.28,31.81Z"/><path class="cls-3" d="M32.12,30.17c-.94.11-1.26.91-1.26,4s.32,4,1.26,4.09v.1a4.07,4.07,0,0,1-4-4.19,4,4,0,0,1,4-4.13Zm4.61,4a4.07,4.07,0,0,1-4,4.19v-.1c1-.09,1.25-1.1,1.25-4.09s-.32-3.94-1.25-4v-.09A4,4,0,0,1,36.73,34.21Z"/><path class="cls-3" d="M42.73,38.14v.1h-5v-.1c1,0,1.2-.41,1.2-.81V28c0-.57-.27-.84-1.18-.84v-.1a9.82,9.82,0,0,0,3.82-.62V37.33C41.53,37.73,41.77,38.14,42.73,38.14Zm5.43,0v.1a6.25,6.25,0,0,1-1.6.16,3,3,0,0,1-2.9-1.55l-1.5-2.52c1.26-1.1,2.45-2.44,2.45-3.26,0-.43-.21-.74-1-.74v-.09h4.1v.09a1.49,1.49,0,0,0-.9.29l-2.93,2.32,2.77,4.29A1.65,1.65,0,0,0,48.16,38.14Z"/><path class="cls-3" d="M48.25,34.21a4,4,0,0,1,3.92-4.13v.09c-.94.11-1.2.91-1.2,4,0,2.31,1,3.57,2.45,3.57a3.46,3.46,0,0,0,2.34-.85V37a4.47,4.47,0,0,1-3.39,1.44A4.06,4.06,0,0,1,48.25,34.21Zm3.6-.68c1.41,0,2-.44,2-1.79,0-.77-.32-1.47-1-1.57v-.09A2.89,2.89,0,0,1,56,32.8a4.58,4.58,0,0,1-.08.83h-4Z"/><path class="cls-3" d="M60.81,37.33c0,.4.24.81,1.2.81v.1H57v-.1c1,0,1.2-.41,1.2-.81V31.65c0-.58-.27-.85-1.18-.85v-.1a9.82,9.82,0,0,0,3.82-.62Zm4.32-5.52a1.71,1.71,0,0,1-1.64,1.82,1.12,1.12,0,0,1-.92-.35,1.17,1.17,0,0,0,.63-1.09.85.85,0,0,0-.9-.86,1.1,1.1,0,0,0-1,.6v-.12a2.21,2.21,0,0,1,2.08-1.73A1.62,1.62,0,0,1,65.13,31.81Z"/><path class="cls-3" d="M75.66,37v.09a3.34,3.34,0,0,1-2.74,1.3c-1.44,0-2.46-.66-2.46-2.26V30.89h-.83l.17-.24h.66V28.92A4,4,0,0,0,73.08,28v2.62h2.17l-.18.24h-2v5.3c0,.8.31,1.63,1.06,1.63A2.34,2.34,0,0,0,75.66,37Z"/><path class="cls-3" d="M80.24,30.17c-.95.11-1.27.91-1.27,4s.32,4,1.27,4.09v.1a4.08,4.08,0,0,1-4-4.19,4,4,0,0,1,4-4.13Zm4.61,4a4.08,4.08,0,0,1-4,4.19v-.1c.94-.09,1.24-1.1,1.24-4.09s-.32-3.94-1.24-4v-.09A4,4,0,0,1,84.85,34.21Z"/><path class="cls-3" d="M91.87,31.36v.13a1.74,1.74,0,0,0-1.33-.6c-.8,0-1.57.37-1.57,3.27s.82,3.41,1.57,3.41A2.23,2.23,0,0,0,91.87,37v.09a3,3,0,0,1-2.32,1.3c-1.52,0-3.3-.9-3.3-4.24,0-3.19,1.75-4.08,3.3-4.08A3,3,0,0,1,91.87,31.36ZM95,37.17c0,.46.14.65.43.65s.51-.24.77-.72h.1a2,2,0,0,1-2.08,1.3c-1.28,0-1.86-.45-1.86-1.81V28c0-.57-.27-.84-1.18-.84v-.1A10.56,10.56,0,0,0,95,26.48Z"/><path class="cls-3" d="M97.05,36.35c0-1.39,1.28-2.18,3.07-2.18h1.73v.1h-.48A1.58,1.58,0,0,0,99.68,36c0,.88.25,1.55,1,1.55a1.75,1.75,0,0,0,1.17-.56v.09a3.39,3.39,0,0,1-2.54,1.3A2,2,0,0,1,97.05,36.35Zm.64-4.53c0-.82.74-1.65,2.91-1.74v.09a1.17,1.17,0,0,0-1,1.17c0,.58.4.93,1,1a1.8,1.8,0,0,1-1.54.77A1.29,1.29,0,0,1,97.69,31.82Zm4.64,4.77v-4.9c0-.78-.3-1.41-1.09-1.52v-.09c2.66.09,3.72,1.1,3.72,3.2v3.89c0,.46.16.65.45.65s.51-.24.76-.72h.1a2,2,0,0,1-2.08,1.3C102.91,38.4,102.33,38,102.33,36.59Z"/><path class="cls-3" d="M106.78,30.89a.88.88,0,0,0-.88-.56v-.09h4.48v.09c-.56,0-.78.39-.51,1L112,35.65l-1.37,2.59h-.1Zm-.71,9.93a1.69,1.69,0,0,1,1.41-1.51,1.49,1.49,0,0,0-.06.4.93.93,0,0,0,.94,1.07c.56,0,1-.59,1.62-1.61h.11c-.88,1.65-1.49,3.07-2.61,3.07A1.34,1.34,0,0,1,106.07,40.82Zm6.57-6.74a4.42,4.42,0,0,0,.44-2.07,1.54,1.54,0,0,0-1.63-1.68v-.09h4v.09c-.53,0-.74.21-1,.75l-1.67,3.14Z"/></g></svg>