<?xml version="1.0" encoding="utf-8"?>
<!-- Generator: Adobe Illustrator 24.0.3, SVG Export Plug-In . SVG Version: 6.00 Build 0)  -->
<svg version="1.1" id="Layer_1" xmlns="http://www.w3.org/2000/svg" xmlns:xlink="http://www.w3.org/1999/xlink" x="0px" y="0px"
	 viewBox="0 0 320 50" style="enable-background:new 0 0 320 50;" xml:space="preserve">
<style type="text/css">
	.st0{clip-path:url(#SVGID_2_);}
	.st1{enable-background:new    ;}
	.st2{fill:#FFFFFF;}
</style>
<title>Artboard 2 copy</title>
<g>
	<defs>
		<rect id="SVGID_1_" y="0" width="320" height="50"/>
	</defs>
	<clipPath id="SVGID_2_">
		<use xlink:href="#SVGID_1_"  style="overflow:visible;"/>
	</clipPath>
	<g class="st0">
		<g class="st1">
			<path class="st2" d="M8.3,6.7c1.8,0,3.2-0.2,4.6-0.7v13c0,0.5,0.3,1,1.4,1V20h-6v-0.1c1.1,0,1.4-0.5,1.4-1V7.8c0-0.7-0.3-1-1.4-1
				V6.7z"/>
			<path class="st2" d="M15.2,11c1.8,0,3.2-0.2,4.6-0.7v8.7c0,0.5,0.3,1,1.4,1V20h-6v-0.1c1.1,0,1.4-0.5,1.4-1v-6.8
				c0-0.7-0.3-1-1.4-1V11z M16.1,7.4c0-1,0.8-1.7,1.9-1.7c1.1,0,1.9,0.7,1.9,1.7c0,1-0.8,1.7-1.9,1.7C16.9,9,16.1,8.4,16.1,7.4z"/>
		</g>
		<g class="st1">
			<path class="st2" d="M22.4,11.2c-0.2-0.4-0.5-0.7-1.1-0.7v-0.1h5.3v0.1c-0.7,0-0.9,0.5-0.6,1.1l2.5,5.2L26.9,20h-0.1L22.4,11.2z
				 M29.4,15c0.3-0.6,0.5-1.4,0.5-2.5c0-1.1-0.6-2-1.9-2v-0.1h4.8v0.1c-0.6,0-0.9,0.2-1.2,0.9l-2,3.7L29.4,15z"/>
		</g>
		<g class="st1">
			<path class="st2" d="M32.9,15.2c0-3.2,2.4-4.9,4.7-4.9v0.1c-1.1,0.1-1.4,1.1-1.4,4.7c0,2.8,1.2,4.3,2.9,4.3c1.1,0,1.9-0.3,2.8-1
				v0.1c-1,1.3-2.8,1.7-4.1,1.7C35.4,20.2,32.9,18.4,32.9,15.2z M37.2,14.4c1.7,0,2.4-0.5,2.4-2.1c0-0.9-0.4-1.8-1.2-1.9v-0.1
				c2.5,0,3.7,1.8,3.7,3.2c0,0.3,0,0.7-0.1,1h-4.8V14.4z"/>
			<path class="st2" d="M47,17.7c-0.6,0-1.1,0.4-1.1,1c0,0.6,0.4,1.3,1.7,1.4v0.1c-2.5-0.1-3.9-0.8-3.9-1.9c0-0.9,0.8-1.4,1.6-1.4
				C46.1,16.9,46.7,17.2,47,17.7z M47.6,10.3c-0.7,0.1-1.4,0.5-1.4,1.3c0.1,2.2,6.2,2.6,6.2,5.6c0,1.9-1.6,2.8-4,2.9V20
				c0.8-0.1,1.7-0.4,1.7-1.4c0-2-6.3-2.7-6.3-5.6c0-1.7,1.6-2.7,3.7-2.8V10.3z M52.1,12.2c0,0.6-0.5,1.2-1.4,1.2
				c-0.8,0-1.4-0.3-1.6-0.9c0.6,0,0.9-0.4,0.9-0.9c0-0.6-0.7-1.1-1.5-1.2v-0.1C50.6,10.3,52.1,11.1,52.1,12.2z"/>
			<path class="st2" d="M58.7,17.7c0-1.7,1.5-2.6,3.7-2.6h2.1v0.1h-0.6c-1.4,0-2,0.9-2,2.1c0,1.1,0.3,1.9,1.2,1.9
				c0.5,0,1-0.3,1.4-0.7v0.1c-0.6,0.7-1.6,1.5-3,1.5C59.8,20.2,58.7,19.2,58.7,17.7z M59.5,12.3c0-1,0.9-2,3.5-2.1v0.1
				c-0.8,0.1-1.2,0.7-1.2,1.4c0,0.7,0.5,1.1,1.2,1.2c-0.3,0.5-1.1,0.9-1.8,0.9C60.1,13.8,59.5,13.1,59.5,12.3z M65.1,18v-5.8
				c0-0.9-0.4-1.7-1.3-1.8v-0.1c3.2,0.1,4.4,1.3,4.4,3.8v4.6c0,0.6,0.2,0.8,0.5,0.8c0.3,0,0.6-0.3,0.9-0.9h0.1
				c-0.3,1.1-1.3,1.5-2.5,1.5C65.7,20.2,65.1,19.6,65.1,18z"/>
			<path class="st2" d="M77.8,18.5v0.1c-0.6,0.9-1.8,1.5-3.3,1.5c-1.7,0-2.9-0.8-2.9-2.7v-6.3h-1l0.2-0.3h0.8V8.9
				c1.2,0,2.3-0.4,3.1-1.1v3.1h2.6l-0.2,0.3h-2.4v6.3c0,1,0.4,1.9,1.3,1.9C76.5,19.5,77.1,19.1,77.8,18.5z"/>
		</g>
		<g class="st1">
			<path class="st2" d="M88.3,20v0.1c-1.5,0-2.7-0.3-3.7-0.9l-0.6,0.9h-0.2v-4.7h0.2C84.6,17.7,85.9,19.3,88.3,20z M93.9,16.2
				c0,2.5-1.8,3.8-4.8,3.9V20c1.1-0.2,2.1-0.8,2.1-1.9c0-3.3-7.3-3.6-7.3-7.5c0-2.3,1.9-3.6,4.4-3.8v0.1c-0.9,0.2-1.7,0.7-1.7,1.8
				C86.6,12,93.9,12.4,93.9,16.2z M89.1,6.9V6.8c1.4,0.1,2.6,0.4,3.4,1l0.7-1h0.2V11h-0.2C92.6,9,91,7.4,89.1,6.9z"/>
		</g>
		<g class="st1">
			<path class="st2" d="M102.6,18.5v0.1c-0.6,0.9-1.8,1.5-3.3,1.5c-1.7,0-2.9-0.8-2.9-2.7v-6.3h-1l0.2-0.3h0.8V8.9
				c1.2,0,2.3-0.4,3.1-1.1v3.1h2.6l-0.2,0.3h-2.4v6.3c0,1,0.4,1.9,1.3,1.9C101.3,19.5,102,19.1,102.6,18.5z"/>
			<path class="st2" d="M103.2,17.7c0-1.7,1.5-2.6,3.7-2.6h2.1v0.1h-0.6c-1.4,0-2,0.9-2,2.1c0,1.1,0.3,1.9,1.2,1.9
				c0.5,0,1-0.3,1.4-0.7v0.1c-0.6,0.7-1.6,1.5-3,1.5C104.3,20.2,103.2,19.2,103.2,17.7z M104,12.3c0-1,0.9-2,3.5-2.1v0.1
				c-0.8,0.1-1.2,0.7-1.2,1.4c0,0.7,0.5,1.1,1.2,1.2c-0.3,0.5-1.1,0.9-1.8,0.9C104.6,13.8,104,13.1,104,12.3z M109.5,18v-5.8
				c0-0.9-0.4-1.7-1.3-1.8v-0.1c3.2,0.1,4.4,1.3,4.4,3.8v4.6c0,0.6,0.2,0.8,0.5,0.8c0.3,0,0.6-0.3,0.9-0.9h0.1
				c-0.3,1.1-1.3,1.5-2.5,1.5C110.2,20.2,109.5,19.6,109.5,18z"/>
		</g>
		<g class="st1">
			<path class="st2" d="M119.4,18.9c0,0.5,0.3,1,1.4,1V20h-6v-0.1c1.1,0,1.4-0.5,1.4-1v-6.8c0-0.7-0.3-1-1.4-1V11
				c1.8,0,3.2-0.2,4.6-0.7V18.9z M124.6,12.3c0,1.3-0.9,2.2-2,2.2c-0.5,0-0.9-0.1-1.1-0.4c0.4-0.2,0.7-0.6,0.7-1.3
				c0-0.6-0.4-1-1.1-1c-0.5,0-0.9,0.3-1.1,0.7v-0.2c0.4-1.2,1.3-2.1,2.5-2.1C123.8,10.2,124.6,11.1,124.6,12.3z"/>
		</g>
		<g class="st1">
			<path class="st2" d="M8.8,40c1.1,0,1.4-0.5,1.4-1V28.2c0-0.5-0.3-1-1.4-1v-0.1h6.1v0.1c-1.1,0-1.4,0.5-1.4,1v10.8
				c0,0.5,0.3,1,1.4,1v0.1H8.8V40z"/>
			<path class="st2" d="M16.2,40c1.1,0,1.4-0.5,1.4-1v-6.8c0-0.7-0.3-1-1.4-1v-0.1c1.8,0,3.2-0.2,4.6-0.7v8.7c0,0.5,0.3,1,1.4,1v0.1
				h-6V40z M22.9,40c1.1,0,1.4-0.5,1.4-1v-6c0-1.1-0.6-1.6-1.5-1.6c-0.5,0-1,0.2-1.5,0.6V32c0.5-0.8,1.8-1.5,3.2-1.5
				c1.7,0,2.9,0.8,2.9,2.7v6c0,0.5,0.3,1,1.4,1v0.1h-6V40z"/>
			<path class="st2" d="M33.3,37.9c-0.6,0-1.1,0.4-1.1,1c0,0.6,0.4,1.3,1.7,1.4v0.1c-2.5-0.1-3.9-0.8-3.9-1.9c0-0.9,0.8-1.4,1.6-1.4
				C32.3,37,33,37.4,33.3,37.9z M33.9,30.5c-0.7,0.1-1.4,0.5-1.4,1.3c0.1,2.2,6.2,2.6,6.2,5.6c0,1.9-1.6,2.8-4,2.9v-0.1
				c0.8-0.1,1.7-0.4,1.7-1.4c0-2-6.3-2.7-6.3-5.6c0-1.7,1.6-2.7,3.7-2.8V30.5z M38.4,32.4c0,0.6-0.5,1.2-1.4,1.2
				c-0.8,0-1.4-0.3-1.6-0.9c0.6,0,0.9-0.4,0.9-0.9c0-0.6-0.7-1.1-1.5-1.2v-0.1C36.9,30.5,38.4,31.3,38.4,32.4z"/>
			<path class="st2" d="M44.4,37.6c0,1.1,0.4,1.6,1.3,1.6c0.5,0,0.9-0.2,1.3-0.6v0.1c-0.4,0.8-1.4,1.5-3,1.5c-1.7,0-2.8-0.8-2.8-2.7
				v-5.4c0-0.7-0.3-1-1.4-1v-0.1c1.8,0,3.2-0.2,4.6-0.7V37.6z M50.8,38.9c0,0.6,0.2,0.8,0.5,0.8c0.3,0,0.6-0.3,0.9-0.9h0.1
				c-0.3,1.1-1.3,1.5-2.6,1.5c-1.3,0-2.1-0.8-2.1-1.9v-6.2c0-0.7-0.3-1-1.4-1v-0.1c1.7,0,2.9-0.2,4.5-0.7V38.9z"/>
		</g>
		<g class="st1">
			<path class="st2" d="M57.7,39.1c0,0.5,0.3,1,1.4,1v0.1h-6V40c1.1,0,1.4-0.5,1.4-1v-6.8c0-0.7-0.3-1-1.4-1v-0.1
				c1.8,0,3.2-0.2,4.6-0.7V39.1z M62.8,32.5c0,1.3-0.9,2.2-2,2.2c-0.5,0-0.9-0.1-1.1-0.4c0.4-0.2,0.7-0.6,0.7-1.3c0-0.6-0.4-1-1.1-1
				c-0.5,0-0.9,0.3-1.1,0.7v-0.2c0.4-1.2,1.3-2.1,2.5-2.1C62.1,30.4,62.8,31.3,62.8,32.5z"/>
		</g>
		<g class="st1">
			<path class="st2" d="M63.6,37.9c0-1.7,1.5-2.6,3.7-2.6h2.1v0.1h-0.6c-1.4,0-2,0.9-2,2.1c0,1.1,0.3,1.9,1.2,1.9
				c0.5,0,1-0.3,1.4-0.7v0.1c-0.6,0.7-1.6,1.5-3,1.5C64.7,40.3,63.6,39.4,63.6,37.9z M64.4,32.5c0-1,0.9-2,3.5-2.1v0.1
				c-0.8,0.1-1.2,0.7-1.2,1.4c0,0.7,0.5,1.1,1.2,1.2c-0.3,0.5-1.1,0.9-1.8,0.9C65,34,64.4,33.3,64.4,32.5z M69.9,38.2v-5.8
				c0-0.9-0.4-1.7-1.3-1.8v-0.1c3.2,0.1,4.4,1.3,4.4,3.8v4.6c0,0.6,0.2,0.8,0.5,0.8c0.3,0,0.6-0.3,0.9-0.9h0.1
				c-0.3,1.1-1.3,1.5-2.5,1.5C70.6,40.3,69.9,39.8,69.9,38.2z"/>
			<path class="st2" d="M75.2,40c1.1,0,1.4-0.5,1.4-1v-6.8c0-0.7-0.3-1-1.4-1v-0.1c1.8,0,3.2-0.2,4.6-0.7v8.7c0,0.5,0.3,1,1.4,1v0.1
				h-6V40z M82,40c1.1,0,1.4-0.5,1.4-1v-6c0-1.1-0.6-1.6-1.5-1.6c-0.5,0-1,0.2-1.5,0.6V32c0.5-0.8,1.8-1.5,3.2-1.5
				c1.7,0,2.9,0.8,2.9,2.7v6c0,0.5,0.3,1,1.4,1v0.1h-6V40z"/>
			<path class="st2" d="M93.9,30.5c-1.1,0.1-1.6,1.1-1.6,4.7c0,2.8,1.4,4.3,3.1,4.3c1.1,0,1.9-0.3,2.8-1v0.1c-1,1.3-2.8,1.7-4,1.7
				c-2.4,0-5.1-1.8-5.1-5c0-3.2,2.7-4.9,4.9-4.9V30.5z M98.1,32.6c0,1-0.7,1.8-1.9,1.8c-0.9,0-1.5-0.6-1.7-1.2
				c0.5-0.2,0.9-0.9,0.9-1.4c0-0.4-0.1-1.1-0.8-1.3v-0.1C97.2,30.4,98.1,31.5,98.1,32.6z"/>
			<path class="st2" d="M99.6,35.3c0-3.2,2.4-4.9,4.7-4.9v0.1c-1.1,0.1-1.4,1.1-1.4,4.7c0,2.8,1.2,4.3,2.9,4.3c1.1,0,1.9-0.3,2.8-1
				v0.1c-1,1.3-2.8,1.7-4.1,1.7C102,40.3,99.6,38.5,99.6,35.3z M103.9,34.5c1.7,0,2.4-0.5,2.4-2.1c0-0.9-0.4-1.8-1.2-1.9v-0.1
				c2.5,0,3.7,1.8,3.7,3.2c0,0.3,0,0.7-0.1,1h-4.8V34.5z"/>
			<path class="st2" d="M120.1,40.2v0.1c-1.5,0-2.7-0.3-3.7-0.9l-0.6,0.9h-0.2v-4.7h0.2C116.3,37.8,117.7,39.4,120.1,40.2z
				 M125.7,36.4c0,2.5-1.8,3.8-4.8,3.9v-0.1c1.1-0.2,2.1-0.8,2.1-1.9c0-3.3-7.3-3.7-7.3-7.5c0-2.3,1.9-3.6,4.4-3.8v0.1
				c-0.9,0.2-1.7,0.7-1.7,1.8C118.4,32.2,125.7,32.5,125.7,36.4z M120.9,27.1V27c1.4,0.1,2.6,0.4,3.4,1l0.7-1h0.2v4.3H125
				C124.4,29.2,122.7,27.5,120.9,27.1z"/>
			<path class="st2" d="M131.5,43.1c0,0.7,0.3,1,1.4,1v0.1c-1.8,0-3,0.2-4.6,0.7V32.3c0-0.7-0.3-1-1.4-1v-0.1c1.8,0,3-0.2,4.6-0.7
				V43.1z M138.8,35.3c0,4-2.1,5.1-3.9,5.1c-1.1,0-2.3-0.7-2.8-1.5v-0.1c0.5,0.4,1,0.7,1.6,0.7c0.9,0,1.9-0.6,1.9-4.1
				c0-3.5-0.9-3.9-1.9-3.9c-0.6,0-1.2,0.2-1.6,0.7v-0.2c0.5-0.8,1.7-1.5,2.8-1.5C136.8,30.4,138.8,31.5,138.8,35.3z"/>
			<path class="st2" d="M140.5,35.3c0-3.2,2.4-4.9,4.7-4.9v0.1c-1.1,0.1-1.4,1.1-1.4,4.7c0,2.8,1.2,4.3,2.9,4.3c1.1,0,1.9-0.3,2.8-1
				v0.1c-1,1.3-2.8,1.7-4.1,1.7C143,40.3,140.5,38.5,140.5,35.3z M144.8,34.5c1.7,0,2.4-0.5,2.4-2.1c0-0.9-0.4-1.8-1.2-1.9v-0.1
				c2.5,0,3.7,1.8,3.7,3.2c0,0.3,0,0.7-0.1,1h-4.8V34.5z"/>
			<path class="st2" d="M156.1,30.5c-1.1,0.1-1.6,1.1-1.6,4.7c0,2.8,1.4,4.3,3.1,4.3c1.1,0,1.9-0.3,2.8-1v0.1c-1,1.3-2.8,1.7-4,1.7
				c-2.4,0-5.1-1.8-5.1-5c0-3.2,2.7-4.9,4.9-4.9V30.5z M160.4,32.6c0,1-0.7,1.8-1.9,1.8c-0.9,0-1.5-0.6-1.7-1.2
				c0.5-0.2,0.9-0.9,0.9-1.4c0-0.4-0.1-1.1-0.8-1.3v-0.1C159.4,30.4,160.4,31.5,160.4,32.6z"/>
			<path class="st2" d="M161.5,31.1c1.8,0,3.2-0.2,4.6-0.7v8.7c0,0.5,0.3,1,1.4,1v0.1h-6V40c1.1,0,1.4-0.5,1.4-1v-6.8
				c0-0.7-0.3-1-1.4-1V31.1z M162.5,27.5c0-1,0.8-1.7,1.9-1.7s1.9,0.7,1.9,1.7c0,1-0.8,1.7-1.9,1.7S162.5,28.6,162.5,27.5z"/>
			<path class="st2" d="M168.5,37.9c0-1.7,1.5-2.6,3.7-2.6h2.1v0.1h-0.6c-1.4,0-2,0.9-2,2.1c0,1.1,0.3,1.9,1.2,1.9
				c0.5,0,1-0.3,1.4-0.7v0.1c-0.6,0.7-1.6,1.5-3,1.5C169.5,40.3,168.5,39.4,168.5,37.9z M169.2,32.5c0-1,0.9-2,3.5-2.1v0.1
				c-0.8,0.1-1.2,0.7-1.2,1.4c0,0.7,0.5,1.1,1.2,1.2c-0.3,0.5-1.1,0.9-1.8,0.9C169.9,34,169.2,33.3,169.2,32.5z M174.8,38.2v-5.8
				c0-0.9-0.4-1.7-1.3-1.8v-0.1c3.2,0.1,4.4,1.3,4.4,3.8v4.6c0,0.6,0.2,0.8,0.5,0.8c0.3,0,0.6-0.3,0.9-0.9h0.1
				c-0.3,1.1-1.3,1.5-2.5,1.5C175.5,40.3,174.8,39.8,174.8,38.2z"/>
			<path class="st2" d="M180,26.9c1.8,0,3.2-0.2,4.6-0.7v13c0,0.5,0.3,1,1.4,1v0.1h-6V40c1.1,0,1.4-0.5,1.4-1V28c0-0.7-0.3-1-1.4-1
				V26.9z"/>
			<path class="st2" d="M186.8,31.1c1.8,0,3.2-0.2,4.6-0.7v8.7c0,0.5,0.3,1,1.4,1v0.1h-6V40c1.1,0,1.4-0.5,1.4-1v-6.8
				c0-0.7-0.3-1-1.4-1V31.1z M187.8,27.5c0-1,0.8-1.7,1.9-1.7c1.1,0,1.9,0.7,1.9,1.7c0,1-0.8,1.7-1.9,1.7
				C188.6,29.2,187.8,28.6,187.8,27.5z"/>
			<path class="st2" d="M197.3,37.9c-0.6,0-1.1,0.4-1.1,1c0,0.6,0.4,1.3,1.7,1.4v0.1c-2.5-0.1-3.9-0.8-3.9-1.9
				c0-0.9,0.8-1.4,1.6-1.4C196.4,37,197,37.4,197.3,37.9z M197.9,30.5c-0.7,0.1-1.4,0.5-1.4,1.3c0.1,2.2,6.2,2.6,6.2,5.6
				c0,1.9-1.6,2.8-4,2.9v-0.1c0.8-0.1,1.7-0.4,1.7-1.4c0-2-6.3-2.7-6.3-5.6c0-1.7,1.6-2.7,3.7-2.8V30.5z M202.4,32.4
				c0,0.6-0.5,1.2-1.4,1.2c-0.8,0-1.4-0.3-1.6-0.9c0.6,0,0.9-0.4,0.9-0.9c0-0.6-0.7-1.1-1.5-1.2v-0.1
				C200.9,30.5,202.4,31.3,202.4,32.4z"/>
			<path class="st2" d="M211.5,38.7v0.1c-0.6,0.9-1.8,1.5-3.3,1.5c-1.7,0-2.9-0.8-2.9-2.7v-6.3h-1l0.2-0.3h0.8V29
				c1.2,0,2.3-0.4,3.1-1.1v3.1h2.6l-0.2,0.3h-2.4v6.3c0,1,0.4,1.9,1.3,1.9C210.2,39.7,210.8,39.3,211.5,38.7z"/>
			<path class="st2" d="M215.6,37.9c-0.6,0-1.1,0.4-1.1,1c0,0.6,0.4,1.3,1.7,1.4v0.1c-2.5-0.1-3.9-0.8-3.9-1.9
				c0-0.9,0.8-1.4,1.6-1.4C214.7,37,215.3,37.4,215.6,37.9z M216.2,30.5c-0.7,0.1-1.4,0.5-1.4,1.3c0.1,2.2,6.2,2.6,6.2,5.6
				c0,1.9-1.6,2.8-4,2.9v-0.1c0.8-0.1,1.7-0.4,1.7-1.4c0-2-6.3-2.7-6.3-5.6c0-1.7,1.6-2.7,3.7-2.8V30.5z M220.7,32.4
				c0,0.6-0.5,1.2-1.4,1.2c-0.8,0-1.4-0.3-1.6-0.9c0.6,0,0.9-0.4,0.9-0.9c0-0.6-0.7-1.1-1.5-1.2v-0.1
				C219.2,30.5,220.7,31.3,220.7,32.4z"/>
		</g>
	</g>
</g>
</svg>
