<?xml version="1.0" encoding="utf-8"?>
<!-- Generator: Adobe Illustrator 24.0.3, SVG Export Plug-In . SVG Version: 6.00 Build 0)  -->
<svg version="1.1" id="Layer_1" xmlns="http://www.w3.org/2000/svg" xmlns:xlink="http://www.w3.org/1999/xlink" x="0px" y="0px"
	 viewBox="0 0 320 50" style="enable-background:new 0 0 320 50;" xml:space="preserve">
<style type="text/css">
	.st0{clip-path:url(#SVGID_2_);}
	.st1{enable-background:new    ;}
	.st2{fill:#FFFFFF;}
</style>
<title>Artboard 2 copy 2</title>
<g>
	<defs>
		<rect id="SVGID_1_" y="0" width="320" height="50"/>
	</defs>
	<clipPath id="SVGID_2_">
		<use xlink:href="#SVGID_1_"  style="overflow:visible;"/>
	</clipPath>
	<g class="st0">
		<g class="st1">
			<path class="st2" d="M20.4,17.7l0.1,0.2c-1,1.6-2.8,2.3-4.6,2.3c-3.1,0-7-2.2-7-6.7c0-4.8,3.8-6.6,6.5-6.7v0.1
				c-1.3,0.3-2.8,1.5-2.8,6.5c0,4.9,2,6,4.1,6C18.5,19.4,19.7,18.5,20.4,17.7z M20.5,6.8v4.6h-0.2c-0.7-2.5-2.2-4-4-4.5V6.8
				C18,6.9,19,7.2,19.8,7.7l0.6-0.9H20.5z"/>
		</g>
		<g class="st1">
			<path class="st2" d="M26.6,10.3c-1.1,0.1-1.5,1.1-1.5,4.8c0,3.6,0.4,4.8,1.5,4.9v0.1c-2.2,0-4.8-1.8-4.8-5c0-3.2,2.5-4.9,4.8-4.9
				V10.3z M32.1,15.2c0,3.2-2.5,5-4.7,5V20c1.1-0.1,1.5-1.3,1.5-4.9c0-3.7-0.4-4.7-1.5-4.8v-0.1C29.6,10.2,32.1,11.9,32.1,15.2z"/>
			<path class="st2" d="M33.4,19.9c1.1,0,1.4-0.5,1.4-1v-6.8c0-0.7-0.3-1-1.4-1V11c1.8,0,3.2-0.2,4.6-0.7v8.7c0,0.5,0.3,1,1.4,1V20
				h-6V19.9z M40.1,19.9c1.1,0,1.4-0.5,1.4-1v-6c0-1.1-0.6-1.6-1.5-1.6c-0.5,0-1,0.2-1.5,0.6v-0.1c0.5-0.8,1.8-1.5,3.2-1.5
				c1.7,0,2.9,0.8,2.9,2.7v6c0,0.5,0.3,1,1.4,1V20h-6V19.9z"/>
			<path class="st2" d="M54.2,18.5v0.1c-0.6,0.9-1.8,1.5-3.3,1.5c-1.7,0-2.9-0.8-2.9-2.7v-6.3h-1l0.2-0.3H48V8.9
				c1.2,0,2.3-0.4,3.1-1.1v3.1h2.6l-0.2,0.3h-2.4v6.3c0,1,0.4,1.9,1.3,1.9C53,19.5,53.6,19.1,54.2,18.5z"/>
			<path class="st2" d="M54.8,17.7c0-1.7,1.5-2.6,3.7-2.6h2.1v0.1H60c-1.4,0-2,0.9-2,2.1c0,1.1,0.3,1.9,1.2,1.9c0.5,0,1-0.3,1.4-0.7
				v0.1c-0.6,0.7-1.6,1.5-3,1.5C55.9,20.2,54.8,19.2,54.8,17.7z M55.6,12.3c0-1,0.9-2,3.5-2.1v0.1c-0.8,0.1-1.2,0.7-1.2,1.4
				c0,0.7,0.5,1.1,1.2,1.2c-0.3,0.5-1.1,0.9-1.8,0.9C56.2,13.8,55.6,13.1,55.6,12.3z M61.2,18v-5.8c0-0.9-0.4-1.7-1.3-1.8v-0.1
				c3.2,0.1,4.4,1.3,4.4,3.8v4.6c0,0.6,0.2,0.8,0.5,0.8c0.3,0,0.6-0.3,0.9-0.9h0.1c-0.3,1.1-1.3,1.5-2.5,1.5
				C61.8,20.2,61.2,19.6,61.2,18z"/>
			<path class="st2" d="M71.7,10.3c-1.1,0.1-1.6,1.1-1.6,4.7c0,2.8,1.4,4.3,3.1,4.3c1.1,0,1.9-0.3,2.8-1v0.1c-1,1.3-2.8,1.7-4,1.7
				c-2.4,0-5.1-1.8-5.1-5c0-3.2,2.7-4.9,4.9-4.9V10.3z M75.9,12.4c0,1-0.7,1.8-1.9,1.8c-0.9,0-1.5-0.6-1.7-1.2
				c0.5-0.2,0.9-0.9,0.9-1.4c0-0.4-0.1-1.1-0.8-1.3v-0.1C74.9,10.2,75.9,11.3,75.9,12.4z"/>
			<path class="st2" d="M84.4,18.5v0.1c-0.6,0.9-1.8,1.5-3.3,1.5c-1.7,0-2.9-0.8-2.9-2.7v-6.3h-1l0.2-0.3h0.8V8.9
				c1.2,0,2.3-0.4,3.1-1.1v3.1h2.6l-0.2,0.3h-2.4v6.3c0,1,0.4,1.9,1.3,1.9C83.1,19.5,83.8,19.1,84.4,18.5z"/>
		</g>
		<g class="st1">
			<path class="st2" d="M89.6,11.2c-0.2-0.4-0.5-0.7-1.1-0.7v-0.1h5.3v0.1c-0.7,0-0.9,0.5-0.6,1.1l2.5,5.2L94.2,20H94L89.6,11.2z
				 M88.8,23c0-0.8,0.6-1.5,1.7-1.8c-0.1,0.2-0.1,0.3-0.1,0.5c0,0.7,0.4,1.3,1.1,1.3c0.7,0,1.2-0.7,1.9-1.9h0.1
				c-1.1,2-1.8,3.7-3.1,3.7C89.4,24.7,88.8,24,88.8,23z M96.6,15c0.3-0.6,0.5-1.4,0.5-2.5c0-1.1-0.6-2-1.9-2v-0.1h4.8v0.1
				c-0.6,0-0.9,0.2-1.2,0.9l-2,3.7L96.6,15z"/>
		</g>
		<g class="st1">
			<path class="st2" d="M104.8,10.3c-1.1,0.1-1.5,1.1-1.5,4.8c0,3.6,0.4,4.8,1.5,4.9v0.1c-2.2,0-4.8-1.8-4.8-5
				c0-3.2,2.5-4.9,4.8-4.9V10.3z M110.3,15.2c0,3.2-2.5,5-4.7,5V20c1.1-0.1,1.5-1.3,1.5-4.9c0-3.7-0.4-4.7-1.5-4.8v-0.1
				C107.8,10.2,110.3,11.9,110.3,15.2z"/>
			<path class="st2" d="M115.9,17.5c0,1.1,0.4,1.6,1.3,1.6c0.5,0,0.9-0.2,1.3-0.6v0.1c-0.4,0.8-1.4,1.5-3,1.5
				c-1.7,0-2.8-0.8-2.8-2.7v-5.4c0-0.7-0.3-1-1.4-1V11c1.8,0,3.2-0.2,4.6-0.7V17.5z M122.3,18.7c0,0.6,0.2,0.8,0.5,0.8
				c0.3,0,0.6-0.3,0.9-0.9h0.1c-0.3,1.1-1.3,1.5-2.6,1.5c-1.3,0-2.1-0.8-2.1-1.9v-6.2c0-0.7-0.3-1-1.4-1V11c1.7,0,2.9-0.2,4.5-0.7
				V18.7z"/>
		</g>
		<g class="st1">
			<path class="st2" d="M129.2,18.9c0,0.5,0.3,1,1.4,1V20h-6v-0.1c1.1,0,1.4-0.5,1.4-1v-6.8c0-0.7-0.3-1-1.4-1V11
				c1.8,0,3.2-0.2,4.6-0.7V18.9z M134.4,12.3c0,1.3-0.9,2.2-2,2.2c-0.5,0-0.9-0.1-1.1-0.4c0.4-0.2,0.7-0.6,0.7-1.3
				c0-0.6-0.4-1-1.1-1c-0.5,0-0.9,0.3-1.1,0.7v-0.2c0.4-1.2,1.3-2.1,2.5-2.1C133.6,10.2,134.4,11.1,134.4,12.3z"/>
		</g>
		<g class="st1">
			<path class="st2" d="M12.7,37.7c0,1.8-1.2,2.6-3.2,2.6V28c0-0.7-0.3-1-1.4-1v-0.1c1.8,0,3-0.2,4.6-0.7V37.7z M19.9,35.3
				c0,4-2.1,5.1-3.9,5.1c-1.1,0-2.3-0.7-2.8-1.5v-0.1c0.5,0.4,1,0.7,1.6,0.7c0.9,0,1.9-0.6,1.9-4.1c0-3.5-0.9-3.9-1.9-3.9
				c-0.6,0-1.1,0.2-1.6,0.7v-0.2c0.5-0.8,1.7-1.5,2.8-1.5C17.9,30.4,19.9,31.5,19.9,35.3z"/>
		</g>
		<g class="st1">
			<path class="st2" d="M25.9,39.1c0,0.5,0.3,1,1.4,1v0.1h-6V40c1.1,0,1.4-0.5,1.4-1v-6.8c0-0.7-0.3-1-1.4-1v-0.1
				c1.8,0,3.2-0.2,4.6-0.7V39.1z M31,32.5c0,1.3-0.9,2.2-2,2.2c-0.5,0-0.9-0.1-1.1-0.4c0.4-0.2,0.7-0.6,0.7-1.3c0-0.6-0.4-1-1.1-1
				c-0.5,0-0.9,0.3-1.1,0.7v-0.2c0.4-1.2,1.3-2.1,2.5-2.1C30.3,30.4,31,31.3,31,32.5z"/>
		</g>
		<g class="st1">
			<path class="st2" d="M36.8,30.5c-1.1,0.1-1.5,1.1-1.5,4.8c0,3.6,0.4,4.8,1.5,4.9v0.1c-2.2,0-4.8-1.8-4.8-5c0-3.2,2.5-4.9,4.8-4.9
				V30.5z M42.3,35.3c0,3.2-2.5,5-4.7,5v-0.1c1.1-0.1,1.5-1.3,1.5-4.9c0-3.7-0.4-4.7-1.5-4.8v-0.1C39.8,30.4,42.3,32.1,42.3,35.3z"
				/>
		</g>
		<g class="st1">
			<path class="st2" d="M49.5,40v0.1h-6V40c1.1,0,1.4-0.5,1.4-1V28c0-0.7-0.3-1-1.4-1v-0.1c1.8,0,3.2-0.2,4.6-0.7v13
				C48.1,39.5,48.3,40,49.5,40z M56,40v0.1c-0.5,0.2-1.3,0.2-1.9,0.2c-1.2,0-2.5-0.2-3.5-1.9l-1.8-3c1.5-1.3,2.9-2.9,2.9-3.9
				c0-0.5-0.2-0.9-1.1-0.9v-0.1h4.9v0.1c-0.4,0-0.8,0.1-1.1,0.3l-3.5,2.8l3.3,5.1C54.9,39.9,55.3,40,56,40z"/>
		</g>
		<g class="st1">
			<path class="st2" d="M56.1,35.3c0-3.2,2.4-4.9,4.7-4.9v0.1c-1.1,0.1-1.4,1.1-1.4,4.7c0,2.8,1.2,4.3,2.9,4.3c1.1,0,1.9-0.3,2.8-1
				v0.1c-1,1.3-2.8,1.7-4.1,1.7C58.6,40.3,56.1,38.5,56.1,35.3z M60.4,34.5c1.7,0,2.4-0.5,2.4-2.1c0-0.9-0.4-1.8-1.2-1.9v-0.1
				c2.5,0,3.7,1.8,3.7,3.2c0,0.3,0,0.7-0.1,1h-4.8V34.5z"/>
		</g>
		<g class="st1">
			<path class="st2" d="M71.1,39.1c0,0.5,0.3,1,1.4,1v0.1h-6V40c1.1,0,1.4-0.5,1.4-1v-6.8c0-0.7-0.3-1-1.4-1v-0.1
				c1.8,0,3.2-0.2,4.6-0.7V39.1z M76.2,32.5c0,1.3-0.9,2.2-2,2.2c-0.5,0-0.9-0.1-1.1-0.4c0.4-0.2,0.7-0.6,0.7-1.3c0-0.6-0.4-1-1.1-1
				c-0.5,0-0.9,0.3-1.1,0.7v-0.2c0.4-1.2,1.3-2.1,2.5-2.1C75.5,30.4,76.2,31.3,76.2,32.5z"/>
		</g>
		<g class="st1">
			<path class="st2" d="M88.8,38.7v0.1c-0.6,0.9-1.8,1.5-3.3,1.5c-1.7,0-2.9-0.8-2.9-2.7v-6.3h-1l0.2-0.3h0.8V29
				c1.2,0,2.3-0.4,3.1-1.1v3.1h2.6l-0.2,0.3h-2.4v6.3c0,1,0.4,1.9,1.3,1.9C87.5,39.7,88.2,39.3,88.8,38.7z"/>
		</g>
		<g class="st1">
			<path class="st2" d="M94.3,30.5c-1.1,0.1-1.5,1.1-1.5,4.8c0,3.6,0.4,4.8,1.5,4.9v0.1c-2.2,0-4.8-1.8-4.8-5c0-3.2,2.5-4.9,4.8-4.9
				V30.5z M99.8,35.3c0,3.2-2.5,5-4.7,5v-0.1c1.1-0.1,1.5-1.3,1.5-4.9c0-3.7-0.4-4.7-1.5-4.8v-0.1C97.3,30.4,99.8,32.1,99.8,35.3z"
				/>
			<path class="st2" d="M108.2,31.9v0.2c-0.4-0.5-1-0.7-1.6-0.7c-1,0-1.9,0.4-1.9,3.9c0,3.4,1,4.1,1.9,4.1c0.6,0,1.1-0.3,1.6-0.7
				v0.1c-0.5,0.8-1.7,1.5-2.8,1.5c-1.8,0-3.9-1.1-3.9-5.1c0-3.8,2.1-4.9,3.9-4.9C106.5,30.4,107.7,31.1,108.2,31.9z M111.9,38.9
				c0,0.6,0.2,0.8,0.5,0.8c0.3,0,0.6-0.3,0.9-0.9h0.1c-0.3,1.1-1.3,1.5-2.5,1.5c-1.5,0-2.2-0.5-2.2-2.2V28c0-0.7-0.3-1-1.4-1v-0.1
				c1.8,0,3-0.2,4.6-0.7V38.9z"/>
		</g>
		<g class="st1">
			<path class="st2" d="M114.4,37.9c0-1.7,1.5-2.6,3.7-2.6h2.1v0.1h-0.6c-1.4,0-2,0.9-2,2.1c0,1.1,0.3,1.9,1.2,1.9
				c0.5,0,1-0.3,1.4-0.7v0.1c-0.6,0.7-1.6,1.5-3,1.5C115.4,40.3,114.4,39.4,114.4,37.9z M115.1,32.5c0-1,0.9-2,3.5-2.1v0.1
				c-0.8,0.1-1.2,0.7-1.2,1.4c0,0.7,0.5,1.1,1.2,1.2c-0.3,0.5-1.1,0.9-1.8,0.9C115.7,34,115.1,33.3,115.1,32.5z M120.7,38.2v-5.8
				c0-0.9-0.4-1.7-1.3-1.8v-0.1c3.2,0.1,4.4,1.3,4.4,3.8v4.6c0,0.6,0.2,0.8,0.5,0.8c0.3,0,0.6-0.3,0.9-0.9h0.1
				c-0.3,1.1-1.3,1.5-2.5,1.5C121.4,40.3,120.7,39.8,120.7,38.2z"/>
		</g>
		<g class="st1">
			<path class="st2" d="M126,31.4c-0.2-0.4-0.5-0.7-1.1-0.7v-0.1h5.3v0.1c-0.7,0-0.9,0.5-0.6,1.1l2.5,5.2l-1.6,3.1h-0.1L126,31.4z
				 M125.2,43.2c0-0.8,0.6-1.5,1.7-1.8c-0.1,0.2-0.1,0.3-0.1,0.5c0,0.7,0.4,1.3,1.1,1.3c0.7,0,1.2-0.7,1.9-1.9h0.1
				c-1.1,2-1.8,3.7-3.1,3.7C125.8,44.9,125.2,44.2,125.2,43.2z M133,35.2c0.3-0.6,0.5-1.4,0.5-2.5c0-1.1-0.6-2-1.9-2v-0.1h4.8v0.1
				c-0.6,0-0.9,0.2-1.2,0.9l-2,3.7L133,35.2z"/>
		</g>
	</g>
</g>
</svg>
