<svg id="Layer_1" data-name="Layer 1" xmlns="http://www.w3.org/2000/svg" xmlns:xlink="http://www.w3.org/1999/xlink" viewBox="0 0 320 50"><defs><style>.cls-1{fill:none;}.cls-2{clip-path:url(#clip-path);}.cls-3{fill:#263845;}</style><clipPath id="clip-path"><rect class="cls-1" y="0.11" width="320" height="50"/></clipPath></defs><title>Artboard 2</title><g class="cls-2"><path class="cls-3" d="M9.6,10.27c0-.43-.24-.82-1.2-.82V9.36h5.12v.09c-1,0-1.2.39-1.2.82v7c0,1.53.43,2.93,1.52,3.05v.1c-3.35,0-4.24-1.62-4.24-3.2ZM18,17.2a3.06,3.06,0,0,1-3.36,3.2v-.1a2.92,2.92,0,0,0,3-3.05v-5.8c0-1-.54-2-1.6-2V9.36H19.6v.09c-1.06,0-1.6,1-1.6,2Z"/><path class="cls-3" d="M19.88,20.14c1,0,1.2-.41,1.2-.81V13.65c0-.58-.27-.85-1.18-.85v-.1a9.91,9.91,0,0,0,3.83-.62v7.25c0,.4.24.81,1.2.81v.1H19.88Zm5.64,0c.94,0,1.18-.41,1.18-.81v-5c0-.89-.46-1.36-1.26-1.36a1.73,1.73,0,0,0-1.22.5v-.1a3.27,3.27,0,0,1,2.66-1.29c1.44,0,2.46.67,2.46,2.25v5c0,.4.24.81,1.2.81v.1h-5Z"/><path class="cls-3" d="M34.69,18.22c0,1.52-1,2.18-2.65,2.18V10c0-.57-.28-.85-1.2-.85V9.1a10.73,10.73,0,0,0,3.85-.62Zm6.09-2.06c0,3.34-1.77,4.24-3.29,4.24a2.94,2.94,0,0,1-2.32-1.3V19a2.21,2.21,0,0,0,1.32.56c.76,0,1.57-.53,1.57-3.41s-.77-3.27-1.57-3.27a1.74,1.74,0,0,0-1.32.59v-.12a3,3,0,0,1,2.32-1.28C39,12.08,40.78,13,40.78,16.16Z"/><path class="cls-3" d="M42.19,16.21a4,4,0,0,1,3.92-4.13v.09c-.94.11-1.2.91-1.2,4,0,2.31,1,3.57,2.45,3.57a3.47,3.47,0,0,0,2.34-.85V19a4.5,4.5,0,0,1-3.4,1.44A4,4,0,0,1,42.19,16.21Zm3.6-.68c1.41,0,2-.44,2-1.79,0-.77-.32-1.47-1-1.57v-.09a2.89,2.89,0,0,1,3.14,2.72,4.58,4.58,0,0,1-.08.83h-4Z"/><path class="cls-3" d="M51,18.35c0-1.39,1.28-2.18,3.07-2.18h1.73v.1h-.48A1.59,1.59,0,0,0,53.66,18c0,.88.26,1.55,1,1.55A1.75,1.75,0,0,0,55.84,19v.09a3.41,3.41,0,0,1-2.55,1.3A2,2,0,0,1,51,18.35Zm.64-4.53c0-.82.73-1.65,2.91-1.74v.09a1.18,1.18,0,0,0-1,1.17c0,.58.4.93,1,1a1.8,1.8,0,0,1-1.54.77A1.29,1.29,0,0,1,51.68,13.82Zm4.64,4.77v-4.9c0-.78-.31-1.41-1.09-1.52v-.09c2.66.09,3.71,1.1,3.71,3.2v3.89c0,.46.16.65.45.65s.51-.24.77-.72h.1a2,2,0,0,1-2.09,1.3C56.89,20.4,56.32,20,56.32,18.59Z"/><path class="cls-3" d="M67,19v.09a3.34,3.34,0,0,1-2.74,1.3c-1.44,0-2.46-.66-2.46-2.26V12.89h-.84l.18-.24h.66V10.92A4.05,4.05,0,0,0,64.38,10v2.62h2.16l-.17.24h-2v5.3c0,.8.31,1.63,1.06,1.63A2.34,2.34,0,0,0,67,19Z"/><path class="cls-3" d="M67.47,18.35c0-1.39,1.28-2.18,3.07-2.18h1.73v.1h-.48A1.59,1.59,0,0,0,70.09,18c0,.88.26,1.55,1,1.55A1.75,1.75,0,0,0,72.27,19v.09a3.41,3.41,0,0,1-2.55,1.3A2,2,0,0,1,67.47,18.35Zm.64-4.53c0-.82.73-1.65,2.91-1.74v.09a1.17,1.17,0,0,0-1,1.17c0,.58.4.93,1,1a1.8,1.8,0,0,1-1.54.77A1.29,1.29,0,0,1,68.11,13.82Zm4.64,4.77v-4.9c0-.78-.3-1.41-1.09-1.52v-.09c2.66.09,3.72,1.1,3.72,3.2v3.89c0,.46.15.65.44.65s.51-.24.77-.72h.1a2,2,0,0,1-2.08,1.3C73.33,20.4,72.75,20,72.75,18.59Z"/><path class="cls-3" d="M80.75,18.22c0,1.52-1,2.18-2.64,2.18V10c0-.57-.29-.85-1.2-.85V9.1a10.67,10.67,0,0,0,3.84-.62Zm6.1-2.06c0,3.34-1.78,4.24-3.3,4.24a3,3,0,0,1-2.32-1.3V19a2.23,2.23,0,0,0,1.33.56c.75,0,1.57-.53,1.57-3.41s-.77-3.27-1.57-3.27a1.76,1.76,0,0,0-1.33.59v-.12a3,3,0,0,1,2.32-1.28C85.1,12.08,86.85,13,86.85,16.16Z"/><path class="cls-3" d="M87.88,9.1a9.91,9.91,0,0,0,3.83-.62V19.33c0,.4.24.81,1.2.81v.1h-5v-.1c1,0,1.2-.41,1.2-.81V10c0-.57-.27-.85-1.19-.85Z"/><path class="cls-3" d="M93.87,16.21a4,4,0,0,1,3.92-4.13v.09c-1,.11-1.2.91-1.2,4,0,2.31,1,3.57,2.45,3.57a3.43,3.43,0,0,0,2.33-.85V19A4.47,4.47,0,0,1,98,20.4,4,4,0,0,1,93.87,16.21Zm3.6-.68c1.41,0,2-.44,2-1.79,0-.77-.32-1.47-1-1.57v-.09a2.89,2.89,0,0,1,3.14,2.72,5.69,5.69,0,0,1-.08.83h-4Z"/><path class="cls-3" d="M12.17,37.33c0,.4.24.81,1.2.81v.1h-5v-.1c1,0,1.2-.41,1.2-.81V31.65c0-.58-.27-.85-1.18-.85v-.1a9.82,9.82,0,0,0,3.82-.62Zm5.32-5v5c0,.4.22.81,1.18.81v.1h-5v-.1c.94,0,1.2-.41,1.2-.81v-5c0-.89-.36-1.36-1.12-1.36a1.44,1.44,0,0,0-1.06.48v-.09A2.6,2.6,0,0,1,15,30.08C16.53,30.08,17.49,30.75,17.49,32.33Zm5.3,0v5c0,.4.24.81,1.2.81v.1h-5v-.1c.95,0,1.21-.41,1.21-.81v-5c0-.89-.36-1.36-1.13-1.36a1.43,1.43,0,0,0-1.05.48v-.09a2.59,2.59,0,0,1,2.33-1.28C21.83,30.08,22.79,30.75,22.79,32.33Z"/><path class="cls-3" d="M28.83,30.17c-.94.11-1.26.91-1.26,4s.32,4,1.26,4.09v.1a4.08,4.08,0,0,1-4-4.19,4,4,0,0,1,4-4.13Zm4.61,4a4.08,4.08,0,0,1-4,4.19v-.1c.94-.09,1.25-1.1,1.25-4.09s-.32-3.94-1.25-4v-.09A4,4,0,0,1,33.44,34.21Z"/><path class="cls-3" d="M40.7,37v.09A3.32,3.32,0,0,1,38,38.4c-1.45,0-2.47-.66-2.47-2.26V30.89h-.83l.17-.24h.66V28.92A4,4,0,0,0,38.12,28v2.62h2.17l-.18.24h-2v5.3c0,.8.31,1.63,1.06,1.63A2.34,2.34,0,0,0,40.7,37Z"/><path class="cls-3" d="M45.28,30.17c-1,.11-1.27.91-1.27,4s.32,4,1.27,4.09v.1a4.08,4.08,0,0,1-4-4.19,4,4,0,0,1,4-4.13Zm4.61,4a4.08,4.08,0,0,1-4,4.19v-.1c.94-.09,1.25-1.1,1.25-4.09s-.32-3.94-1.25-4v-.09A4,4,0,0,1,49.89,34.21Z"/><path class="cls-3" d="M54.78,37.33c0,.4.24.81,1.2.81v.1h-5v-.1c1,0,1.2-.41,1.2-.81V31.65c0-.58-.27-.85-1.18-.85v-.1a9.89,9.89,0,0,0,3.82-.62Zm4.32-5.52a1.71,1.71,0,0,1-1.65,1.82,1.1,1.1,0,0,1-.91-.35,1.17,1.17,0,0,0,.63-1.09.86.86,0,0,0-.9-.87,1.11,1.11,0,0,0-1,.61v-.12a2.21,2.21,0,0,1,2.08-1.73A1.63,1.63,0,0,1,59.1,31.81Z"/><path class="cls-3" d="M64.06,30.17c-.94.11-1.36.91-1.36,4,0,2.31,1.17,3.57,2.59,3.57a3.44,3.44,0,0,0,2.34-.85V37a4.47,4.47,0,0,1-3.39,1.44A4.19,4.19,0,0,1,60,34.21a4.1,4.1,0,0,1,4.1-4.13Zm3.55,1.72A1.48,1.48,0,0,1,66,33.42a1.36,1.36,0,0,1-1.39-1,1.37,1.37,0,0,0,.77-1.17,1,1,0,0,0-.69-1v-.11C66.8,30.08,67.61,31,67.61,31.89Z"/><path class="cls-3" d="M68.94,30.89a.87.87,0,0,0-.88-.56v-.09h4.48v.09c-.56,0-.78.39-.51,1l2.1,4.37-1.38,2.59h-.1Zm-.7,9.93a1.67,1.67,0,0,1,1.4-1.51,1.49,1.49,0,0,0-.06.4.93.93,0,0,0,.94,1.07c.56,0,1-.59,1.62-1.61h.11c-.88,1.65-1.49,3.07-2.61,3.07A1.33,1.33,0,0,1,68.24,40.82Zm6.56-6.74A4.41,4.41,0,0,0,75.25,32a1.55,1.55,0,0,0-1.64-1.68v-.09h4v.09c-.53,0-.74.21-1,.75l-1.67,3.14Z"/><path class="cls-3" d="M81.77,30.17c-.94.11-1.36.91-1.36,4,0,2.31,1.17,3.57,2.6,3.57a3.43,3.43,0,0,0,2.33-.85V37A4.47,4.47,0,0,1,82,38.4a4.18,4.18,0,0,1-4.27-4.19,4.09,4.09,0,0,1,4.09-4.13Zm3.56,1.72a1.49,1.49,0,0,1-1.6,1.53,1.37,1.37,0,0,1-1.4-1,1.37,1.37,0,0,0,.77-1.17.94.94,0,0,0-.69-1v-.11C84.51,30.08,85.33,31,85.33,31.89Z"/><path class="cls-3" d="M86.16,27.1A9.89,9.89,0,0,0,90,26.48V37.33c0,.4.24.81,1.2.81v.1h-5v-.1c1,0,1.2-.41,1.2-.81V28c0-.57-.27-.85-1.18-.85Z"/><path class="cls-3" d="M92.14,34.21a4,4,0,0,1,3.92-4.13v.09c-.94.11-1.2.91-1.2,4,0,2.31,1,3.57,2.45,3.57a3.47,3.47,0,0,0,2.34-.85V37a4.5,4.5,0,0,1-3.4,1.44A4,4,0,0,1,92.14,34.21Zm3.6-.68c1.41,0,2-.44,2-1.79,0-.77-.32-1.47-1-1.57v-.09a2.89,2.89,0,0,1,3.14,2.72,4.58,4.58,0,0,1-.08.83h-4Z"/><path class="cls-3" d="M105,30.69a9.7,9.7,0,0,0,3.82-.63v7.27c0,.4.24.81,1.2.81v.1h-5v-.1c1,0,1.2-.41,1.2-.81v-5.7c0-.58-.27-.85-1.18-.85Zm.81-3a1.65,1.65,0,1,1,1.63,1.4A1.45,1.45,0,0,1,105.77,27.68Z"/><path class="cls-3" d="M110.65,38.14c1,0,1.2-.41,1.2-.81V31.65c0-.58-.27-.85-1.18-.85v-.1a9.82,9.82,0,0,0,3.82-.62v7.25c0,.4.24.81,1.2.81v.1h-5Zm5.64,0c.94,0,1.18-.41,1.18-.81v-5c0-.89-.46-1.36-1.26-1.36a1.72,1.72,0,0,0-1.22.5v-.1a3.27,3.27,0,0,1,2.66-1.29c1.44,0,2.46.67,2.46,2.25v5c0,.4.24.81,1.2.81v.1h-5Z"/><path class="cls-3" d="M125,36.34a.81.81,0,0,0-.9.8c0,.46.32,1,1.42,1.16v.1c-2.12-.08-3.29-.66-3.29-1.58a1.25,1.25,0,0,1,1.36-1.19A1.64,1.64,0,0,1,125,36.34Zm.52-6.17c-.59.11-1.16.42-1.15,1.07,0,1.86,5.24,2.17,5.24,4.71,0,1.55-1.32,2.37-3.38,2.45v-.1c.67-.11,1.42-.35,1.42-1.18,0-1.67-5.25-2.27-5.25-4.71,0-1.41,1.33-2.25,3.12-2.33Zm3.78,1.56a1,1,0,0,1-1.18,1,1.37,1.37,0,0,1-1.36-.77.71.71,0,0,0,.72-.75c0-.48-.61-.95-1.25-1v-.09C128,30.17,129.26,30.83,129.26,31.73Z"/><path class="cls-3" d="M134.28,36.14c0,.9.31,1.36,1.11,1.36a1.4,1.4,0,0,0,1.1-.49v.09A2.66,2.66,0,0,1,134,38.4a2.07,2.07,0,0,1-2.37-2.26V31.65c0-.58-.27-.85-1.18-.85v-.1a9.82,9.82,0,0,0,3.82-.62Zm5.33,1c0,.46.15.65.44.65s.51-.24.76-.72h.1a2.05,2.05,0,0,1-2.18,1.3A1.55,1.55,0,0,1,137,36.83V31.65c0-.58-.27-.85-1.13-.85v-.1a10.44,10.44,0,0,0,3.77-.62Z"/><path class="cls-3" d="M145.39,37.33c0,.4.24.81,1.2.81v.1h-5v-.1c1,0,1.2-.41,1.2-.81V31.65c0-.58-.28-.85-1.19-.85v-.1a9.91,9.91,0,0,0,3.83-.62Zm4.32-5.52a1.71,1.71,0,0,1-1.65,1.82,1.1,1.1,0,0,1-.91-.35,1.18,1.18,0,0,0,.62-1.09.85.85,0,0,0-.89-.87,1.1,1.1,0,0,0-1,.61v-.12A2.2,2.2,0,0,1,148,30.08,1.63,1.63,0,0,1,149.71,31.81Z"/><path class="cls-3" d="M150.39,36.35c0-1.39,1.28-2.18,3.08-2.18h1.73v.1h-.48A1.58,1.58,0,0,0,153,36c0,.88.26,1.55,1,1.55A1.77,1.77,0,0,0,155.2,37v.09a3.41,3.41,0,0,1-2.55,1.3A2,2,0,0,1,150.39,36.35Zm.64-4.53c0-.82.74-1.65,2.92-1.74v.09a1.18,1.18,0,0,0-1,1.17c0,.58.4.93,1,1a1.78,1.78,0,0,1-1.53.77A1.29,1.29,0,0,1,151,31.82Zm4.65,4.77v-4.9c0-.78-.31-1.41-1.09-1.52v-.09c2.66.09,3.71,1.1,3.71,3.2v3.89c0,.46.16.65.45.65s.51-.24.77-.72h.09a2,2,0,0,1-2.08,1.3C156.25,38.4,155.68,38,155.68,36.59Z"/><path class="cls-3" d="M160.11,38.14c1,0,1.2-.41,1.2-.81V31.65c0-.58-.27-.85-1.19-.85v-.1a9.91,9.91,0,0,0,3.83-.62v7.25c0,.4.24.81,1.2.81v.1h-5Zm5.63,0c.95,0,1.18-.41,1.18-.81v-5c0-.89-.46-1.36-1.26-1.36a1.73,1.73,0,0,0-1.22.5v-.1a3.3,3.3,0,0,1,2.66-1.29c1.44,0,2.47.67,2.47,2.25v5c0,.4.24.81,1.2.81v.1h-5Z"/><path class="cls-3" d="M175.72,30.17c-.94.11-1.36.91-1.36,4,0,2.31,1.17,3.57,2.6,3.57a3.43,3.43,0,0,0,2.33-.85V37a4.47,4.47,0,0,1-3.39,1.44,4.18,4.18,0,0,1-4.27-4.19,4.09,4.09,0,0,1,4.09-4.13Zm3.56,1.72a1.49,1.49,0,0,1-1.6,1.53,1.37,1.37,0,0,1-1.4-1,1.37,1.37,0,0,0,.77-1.17.94.94,0,0,0-.69-1v-.11C178.46,30.08,179.28,31,179.28,31.89Z"/><path class="cls-3" d="M180.47,34.21a4,4,0,0,1,3.93-4.13v.09c-1,.11-1.2.91-1.2,4,0,2.31,1,3.57,2.44,3.57a3.44,3.44,0,0,0,2.34-.85V37a4.47,4.47,0,0,1-3.39,1.44A4.06,4.06,0,0,1,180.47,34.21Zm3.61-.68c1.4,0,2-.44,2-1.79,0-.77-.32-1.47-1-1.57v-.09a2.88,2.88,0,0,1,3.13,2.72,4.58,4.58,0,0,1-.08.83h-4Z"/></g></svg>