<svg id="Layer_1" data-name="Layer 1" xmlns="http://www.w3.org/2000/svg" xmlns:xlink="http://www.w3.org/1999/xlink" viewBox="0 0 320 50"><defs><style>.cls-1{fill:none;}.cls-2{clip-path:url(#clip-path);}.cls-3{fill:#ffac00;}.cls-4{fill:#fff;}</style><clipPath id="clip-path"><rect class="cls-1" width="320" height="50"/></clipPath></defs><title>Artboard 1</title><g class="cls-2"><path class="cls-3" d="M11.81,47.5H82.74a6.35,6.35,0,0,0,5.65-3.43l8.37-16.14a6.32,6.32,0,0,0,0-5.86L88.39,5.93A6.35,6.35,0,0,0,82.74,2.5H11.81A3.86,3.86,0,0,0,8,6.36V43.64A3.86,3.86,0,0,0,11.81,47.5Z"/><path class="cls-4" d="M41.49,19.46l.16-.23c.11-.16.23-.16.41-.06a1.8,1.8,0,0,0,1,.37c.47,0,.75-.24.75-.58,0-1-2.36-.76-2.36-2.34a1.54,1.54,0,0,1,1.71-1.47,2.29,2.29,0,0,1,1.3.39.28.28,0,0,1,.09.41l-.12.23c-.11.21-.26.18-.41.1a1.69,1.69,0,0,0-.88-.28c-.47,0-.77.23-.77.57,0,.95,2.36.71,2.36,2.32a1.52,1.52,0,0,1-1.67,1.5,2.65,2.65,0,0,1-1.56-.52A.27.27,0,0,1,41.49,19.46Z"/><path class="cls-4" d="M46.8,16H45.44a.26.26,0,0,1-.3-.29v-.2a.27.27,0,0,1,.3-.3h3.63a.27.27,0,0,1,.3.3v.2a.26.26,0,0,1-.3.29H47.71v4a.27.27,0,0,1-.3.3h-.32a.26.26,0,0,1-.29-.3Z"/><path class="cls-4" d="M50.57,15.48a.32.32,0,0,1,.33-.24h.46a.33.33,0,0,1,.34.24L53.28,20c.07.21,0,.34-.24.34h-.33a.33.33,0,0,1-.34-.24L52,19H50.24l-.35,1.05a.31.31,0,0,1-.33.25h-.33c-.22,0-.31-.13-.24-.34Zm1.22,2.78-.45-1.36c-.09-.28-.2-.78-.2-.78h0s-.11.5-.19.78l-.46,1.36Z"/><path class="cls-4" d="M53.92,15.54a.27.27,0,0,1,.29-.3h1.37a2.16,2.16,0,0,1,1,.14,1.4,1.4,0,0,1,.85,1.38,1.47,1.47,0,0,1-.84,1.38v0a1.56,1.56,0,0,1,.16.26l.83,1.52c.12.21,0,.36-.2.36H57a.36.36,0,0,1-.35-.21l-.89-1.68h-.88V20a.26.26,0,0,1-.29.3h-.33a.26.26,0,0,1-.29-.3Zm1.74,2.07a.73.73,0,0,0,.79-.8.67.67,0,0,0-.4-.69,1.17,1.17,0,0,0-.54-.09h-.68v1.58Z"/><path class="cls-4" d="M41.83,21.72c0-.11.05-.18.17-.18h.15a.17.17,0,0,1,.17.18v4.66a.16.16,0,0,1-.17.17H42a.15.15,0,0,1-.17-.17Z"/><path class="cls-4" d="M43.5,23.15a.16.16,0,0,1,.18-.18h.13c.11,0,.17.06.17.18v.41a1.2,1.2,0,0,1,0,.26h0a1.57,1.57,0,0,1,1.44-.94c.89,0,1.21.51,1.21,1.39v2.11a.16.16,0,0,1-.18.17H46.3a.15.15,0,0,1-.17-.17v-2c0-.56-.09-1.06-.78-1.06A1.39,1.39,0,0,0,44,24.8v1.58a.15.15,0,0,1-.17.17h-.14a.16.16,0,0,1-.18-.17Z"/><path class="cls-4" d="M47.39,26l0-.07a.17.17,0,0,1,.25,0,1.46,1.46,0,0,0,.94.33c.4,0,.73-.2.73-.58,0-.8-1.92-.56-1.92-1.74,0-.66.57-1,1.22-1a1.63,1.63,0,0,1,1,.3.15.15,0,0,1,.05.23l-.05.08a.16.16,0,0,1-.25.05,1.34,1.34,0,0,0-.77-.23c-.37,0-.7.17-.7.56,0,.82,1.91.56,1.91,1.76a1.08,1.08,0,0,1-1.21,1,1.84,1.84,0,0,1-1.21-.41A.16.16,0,0,1,47.39,26Z"/><path class="cls-4" d="M50.56,23.15c0-.12.06-.18.17-.18h.13a.16.16,0,0,1,.18.18v2c0,.56.09,1.06.78,1.06a1.39,1.39,0,0,0,1.33-1.49V23.15c0-.12.06-.18.17-.18h.14c.11,0,.17.06.17.18v3.23a.15.15,0,0,1-.17.17h-.13a.15.15,0,0,1-.17-.17V26a1.55,1.55,0,0,1,0-.25h0a1.56,1.56,0,0,1-1.41.93c-.85,0-1.2-.46-1.2-1.39Z"/><path class="cls-4" d="M54.68,23.15a.16.16,0,0,1,.18-.18H55a.16.16,0,0,1,.17.18v.48a1.44,1.44,0,0,1,0,.29h0a1.29,1.29,0,0,1,1.16-1c.13,0,.18.05.18.17v.13c0,.11-.07.18-.2.18-.75,0-1.11.86-1.11,1.61v1.34c0,.11-.06.17-.18.17h-.13c-.12,0-.18-.06-.18-.17Z"/><path class="cls-4" d="M59,24.36h.21v-.12a.8.8,0,0,0-.89-.92,1.73,1.73,0,0,0-.87.25.17.17,0,0,1-.24-.06l0-.07a.16.16,0,0,1,.05-.24,2.09,2.09,0,0,1,1.14-.32,1.22,1.22,0,0,1,1.33,1.38v2.12a.15.15,0,0,1-.17.17h-.11c-.12,0-.18-.05-.18-.17v-.29a1.67,1.67,0,0,1,0-.27h0a1.34,1.34,0,0,1-1.21.82,1.11,1.11,0,0,1-1.22-1.05C56.76,24.42,58.26,24.36,59,24.36Zm-.89,1.87a1.25,1.25,0,0,0,1.1-1.34v-.17H59c-.56,0-1.7,0-1.7.83A.72.72,0,0,0,58.06,26.23Z"/><path class="cls-4" d="M60.66,23.15a.16.16,0,0,1,.18-.18H61a.16.16,0,0,1,.17.18v.41a1.2,1.2,0,0,1,0,.26h0a1.6,1.6,0,0,1,1.45-.94c.89,0,1.2.51,1.2,1.39v2.11a.15.15,0,0,1-.17.17h-.14a.15.15,0,0,1-.17-.17v-2c0-.56-.09-1.06-.78-1.06a1.39,1.39,0,0,0-1.37,1.46v1.58a.15.15,0,0,1-.17.17h-.13c-.12,0-.18-.06-.18-.17Z"/><path class="cls-4" d="M66.45,22.88a1.91,1.91,0,0,1,1.2.41.16.16,0,0,1,0,.24l0,.08c-.07.1-.15.1-.25,0a1.46,1.46,0,0,0-.9-.33,1.44,1.44,0,0,0,0,2.88,1.57,1.57,0,0,0,1-.37.14.14,0,0,1,.23,0l0,.07a.17.17,0,0,1,0,.24,2,2,0,0,1-1.28.46,1.88,1.88,0,1,1,0-3.76Z"/><path class="cls-4" d="M70,22.88c1,0,1.5.7,1.5,1.71a.18.18,0,0,1-.18.18H68.72a1.36,1.36,0,0,0,1.39,1.43,1.54,1.54,0,0,0,.94-.32.14.14,0,0,1,.23,0l.06.09a.17.17,0,0,1,0,.23,2.06,2.06,0,0,1-1.2.4,1.81,1.81,0,0,1-1.87-1.87A1.75,1.75,0,0,1,70,22.88Zm1,1.53a1,1,0,0,0-1-1.13,1.23,1.23,0,0,0-1.23,1.13Z"/><path class="cls-4" d="M41.91,28.51a.28.28,0,0,1,.31-.28h.45a.32.32,0,0,1,.33.24l.91,2.26c.11.3.25.74.25.74h0s.13-.44.25-.74l.9-2.26a.33.33,0,0,1,.34-.24h.45a.27.27,0,0,1,.3.28L46.79,33a.27.27,0,0,1-.29.31h-.32a.28.28,0,0,1-.31-.29l-.19-2.54c0-.34,0-.78,0-.78h0s-.16.49-.27.78l-.74,1.72a.32.32,0,0,1-.33.24H44a.33.33,0,0,1-.34-.24L43,30.46c-.11-.29-.28-.79-.28-.79h0s0,.45,0,.79L42.46,33a.27.27,0,0,1-.31.29h-.32a.25.25,0,0,1-.28-.31Z"/><path class="cls-4" d="M49.44,29.57a1.9,1.9,0,1,1-2,1.9A1.92,1.92,0,0,1,49.44,29.57Zm0,3a1.13,1.13,0,1,0-1.08-1.13A1.08,1.08,0,0,0,49.44,32.6Z"/><path class="cls-4" d="M52.19,30.42H52a.26.26,0,0,1-.29-.3V30a.27.27,0,0,1,.3-.3h.2V29a.27.27,0,0,1,.3-.3h.29a.27.27,0,0,1,.3.3v.74h.53a.27.27,0,0,1,.29.3v.12a.26.26,0,0,1-.29.3H53.1v1.41a.59.59,0,0,0,.58.68c.22,0,.3.09.3.29V33c0,.22-.12.3-.37.3A1.3,1.3,0,0,1,52.19,32Z"/><path class="cls-4" d="M56.23,29.57a1.9,1.9,0,1,1-2,1.9A1.92,1.92,0,0,1,56.23,29.57Zm0,3a1.13,1.13,0,1,0-1.07-1.13A1.08,1.08,0,0,0,56.23,32.6Z"/><path class="cls-4" d="M58.9,30a.27.27,0,0,1,.29-.3h.28a.27.27,0,0,1,.3.3v.35a1.5,1.5,0,0,1,0,.24h0a1.25,1.25,0,0,1,1.06-.91c.2,0,.27.09.27.29v.28a.28.28,0,0,1-.31.3c-.66,0-1,.66-1,1.32V33a.26.26,0,0,1-.29.3h-.32a.26.26,0,0,1-.29-.3Z"/><path class="cls-4" d="M63.26,29.57a2,2,0,0,1,1.19.36.27.27,0,0,1,.06.41l-.09.14c-.11.16-.23.16-.4.08a1.27,1.27,0,0,0-.71-.22,1.07,1.07,0,0,0-1.1,1.12,1.09,1.09,0,0,0,1.13,1.14,1.41,1.41,0,0,0,.81-.27c.18-.1.32-.08.41.09l.07.13a.28.28,0,0,1-.08.4,2.11,2.11,0,0,1-1.29.42,1.9,1.9,0,1,1,0-3.8Z"/><path class="cls-4" d="M65.4,34a.57.57,0,0,0,.25.07.69.69,0,0,0,.58-.49l.14-.32L65,30c-.09-.2,0-.35.23-.35h.39a.32.32,0,0,1,.33.25l.69,1.85c.06.19.13.49.13.49h0s.07-.28.13-.48l.64-1.86a.31.31,0,0,1,.33-.25h.36c.22,0,.31.14.24.35L67,33.83a1.33,1.33,0,0,1-1.81.85.26.26,0,0,1-.14-.39l.07-.15A.25.25,0,0,1,65.4,34Z"/><path class="cls-4" d="M70.63,29.57a2,2,0,0,1,1.19.36.27.27,0,0,1,.06.41l-.09.14c-.11.16-.23.16-.4.08a1.27,1.27,0,0,0-.71-.22,1.07,1.07,0,0,0-1.1,1.12,1.09,1.09,0,0,0,1.13,1.14,1.47,1.47,0,0,0,.82-.27c.17-.1.31-.08.4.09l.07.13a.27.27,0,0,1-.08.4,2.11,2.11,0,0,1-1.29.42,1.9,1.9,0,1,1,0-3.8Z"/><path class="cls-4" d="M72.61,28.53a.27.27,0,0,1,.29-.3h.32a.27.27,0,0,1,.29.3v3.55c0,.36.15.42.28.44a.23.23,0,0,1,.22.26V33a.26.26,0,0,1-.3.3c-.48,0-1.1-.12-1.1-1.16Z"/><path class="cls-4" d="M76.16,29.57a1.57,1.57,0,0,1,1.61,1.73.32.32,0,0,1-.32.31H75.24a1,1,0,0,0,1.09,1,1.47,1.47,0,0,0,.78-.23c.18-.09.31-.06.4.1l.09.14a.28.28,0,0,1-.1.4,2.34,2.34,0,0,1-1.24.36,1.86,1.86,0,0,1-2-1.9A1.79,1.79,0,0,1,76.16,29.57Zm.71,1.49a.75.75,0,0,0-.74-.81.88.88,0,0,0-.87.81Z"/><path class="cls-4" d="M24.64,31a.46.46,0,0,1-.23-.06.5.5,0,0,1-.25-.6l5.28-16.24a1.11,1.11,0,0,1,1.07-.78h0a1.11,1.11,0,0,1,1.07.78l1.07,3.22a.38.38,0,0,1-.24.48.39.39,0,0,1-.49-.24l-1.07-3.22a.35.35,0,0,0-.34-.26h0a.36.36,0,0,0-.35.25L25.39,29l6.72-9.2A2.11,2.11,0,0,1,33.8,19h4.48a1.13,1.13,0,0,1,.66,2l-4.09,3-.05,0,1.59,4.86a1.13,1.13,0,0,1-1.74,1.26l-3.54-2.57a1.14,1.14,0,0,1,0-1.83l3-2.15.05,0,4.36-3.18a.34.34,0,0,0,.13-.4.35.35,0,0,0-.34-.25H33.8a1.33,1.33,0,0,0-1.07.54L25.05,30.81A.52.52,0,0,1,24.64,31Zm9.51-6.51-2.59,1.87a.38.38,0,0,0-.15.3.38.38,0,0,0,.15.29l3.54,2.57a.36.36,0,0,0,.56-.4Z"/><path class="cls-4" d="M24.91,22.94a.38.38,0,0,1-.22-.07L22.08,21A1.13,1.13,0,0,1,22.74,19h3.2a.39.39,0,0,1,.38.39.38.38,0,0,1-.38.38h-3.2a.35.35,0,0,0-.35.25.36.36,0,0,0,.14.4l2.6,1.85a.37.37,0,0,1,.09.53A.36.36,0,0,1,24.91,22.94Z"/><path class="cls-4" d="M28.47,36.41a1.29,1.29,0,0,1-.62-.17l-6.67-3.78a.39.39,0,0,1-.19-.34V24a.38.38,0,0,1,.76,0V31.9l6.48,3.68a.48.48,0,0,0,.49,0l4.73-3a.39.39,0,0,1,.53.13.38.38,0,0,1-.12.52l-4.73,3A1.3,1.3,0,0,1,28.47,36.41Z"/></g></svg>