<svg id="Layer_1" data-name="Layer 1" xmlns="http://www.w3.org/2000/svg" xmlns:xlink="http://www.w3.org/1999/xlink" viewBox="0 0 320 50"><defs><style>.cls-1{fill:none;}.cls-2{clip-path:url(#clip-path);}.cls-3{fill:#fff;}</style><clipPath id="clip-path"><rect class="cls-1" width="320" height="50"/></clipPath></defs><title>Artboard 1 copy 3</title><g class="cls-2"><path class="cls-3" d="M8.35,20.14c1,0,1.2-.36,1.2-.81V10.27c0-.45-.24-.82-1.2-.82v-.1h3.92v10c0,.45.24.81,1.2.81v.1H8.35ZM13.07,9.45v-.1h4.4v3.21h-.13C16.61,10.28,15.5,9.61,13.07,9.45ZM14,14.89l-.88-.08v-.09l.88-.08a2.45,2.45,0,0,0,2.11-1.38h.13v3h-.13A2.42,2.42,0,0,0,14,14.89Z"/><path class="cls-3" d="M22.13,12.17c-.95.11-1.27.91-1.27,4s.32,4,1.27,4.09v.1a4.09,4.09,0,0,1-4-4.19,4,4,0,0,1,4-4.13Zm4.61,4a4.08,4.08,0,0,1-4,4.19v-.1c.94-.09,1.24-1.1,1.24-4.09,0-3.14-.32-3.94-1.24-4v-.09A4,4,0,0,1,26.74,16.21Z"/><path class="cls-3" d="M31.63,19.33c0,.4.24.81,1.2.81v.1h-5v-.1c1,0,1.2-.41,1.2-.81V13.64c0-.57-.27-.84-1.19-.84v-.1a9.91,9.91,0,0,0,3.83-.62ZM36,13.81a1.71,1.71,0,0,1-1.65,1.82,1.1,1.1,0,0,1-.91-.35A1.16,1.16,0,0,0,34,14.19a.85.85,0,0,0-.89-.87,1.09,1.09,0,0,0-1,.61v-.12a2.21,2.21,0,0,1,2.08-1.73A1.63,1.63,0,0,1,36,13.81Z"/><path class="cls-3" d="M43.34,18.34a.8.8,0,0,0-.89.8c0,.46.31,1.05,1.42,1.16v.1c-2.13-.08-3.3-.66-3.3-1.59a1.25,1.25,0,0,1,1.36-1.18A1.61,1.61,0,0,1,43.34,18.34Zm.53-6.17c-.59.11-1.17.42-1.15,1.07C42.76,15.1,48,15.41,48,18c0,1.55-1.31,2.37-3.38,2.45v-.1C45.25,20.19,46,20,46,19.12c0-1.67-5.25-2.27-5.25-4.71,0-1.41,1.33-2.25,3.12-2.33Zm3.78,1.55a1.05,1.05,0,0,1-1.19,1A1.38,1.38,0,0,1,45.1,14a.71.71,0,0,0,.72-.75c0-.48-.61-.95-1.25-1v-.09C46.38,12.17,47.65,12.83,47.65,13.72Z"/><path class="cls-3" d="M52.7,22.67c0,.58.27.85,1.19.85v.1a10.58,10.58,0,0,0-3.83.62V13.63c0-.58-.27-.85-1.19-.85v-.1a10.58,10.58,0,0,0,3.83-.62Zm6.1-6.51c0,3.34-1.76,4.24-3.28,4.24a3,3,0,0,1-2.34-1.3V19a2.26,2.26,0,0,0,1.35.56c.75,0,1.55-.53,1.55-3.41s-.75-3.27-1.55-3.27a1.81,1.81,0,0,0-1.35.59v-.12a3,3,0,0,1,2.34-1.28C57.07,12.08,58.8,13,58.8,16.16Z"/><path class="cls-3" d="M60.2,16.21a4,4,0,0,1,3.92-4.13v.09c-.94.11-1.2.91-1.2,4,0,2.31,1,3.57,2.45,3.57a3.44,3.44,0,0,0,2.34-.85V19a4.47,4.47,0,0,1-3.39,1.44A4.06,4.06,0,0,1,60.2,16.21Zm3.6-.68c1.41,0,2-.44,2-1.79,0-.77-.32-1.47-1-1.57v-.09A2.88,2.88,0,0,1,67.9,14.8a4.58,4.58,0,0,1-.08.83h-4Z"/><path class="cls-3" d="M73.31,12.17c-1,.11-1.36.91-1.36,4,0,2.31,1.17,3.57,2.59,3.57a3.46,3.46,0,0,0,2.34-.85V19a4.47,4.47,0,0,1-3.39,1.44,4.19,4.19,0,0,1-4.28-4.19,4.1,4.1,0,0,1,4.1-4.13Zm3.55,1.72a1.48,1.48,0,0,1-1.6,1.53,1.35,1.35,0,0,1-1.39-1,1.37,1.37,0,0,0,.77-1.17A1,1,0,0,0,74,12.19v-.11C76.05,12.08,76.86,13,76.86,13.89Z"/><path class="cls-3" d="M77.8,12.68a9.91,9.91,0,0,0,3.83-.62v7.27c0,.4.24.81,1.2.81v.1h-5v-.1c1,0,1.2-.41,1.2-.81v-5.7c0-.58-.28-.85-1.19-.85Zm.82-3a1.65,1.65,0,1,1,1.63,1.4A1.45,1.45,0,0,1,78.62,9.68Z"/><path class="cls-3" d="M83.63,18.35c0-1.39,1.28-2.18,3.07-2.18h1.73v.1H88A1.59,1.59,0,0,0,86.25,18c0,.87.26,1.55,1,1.55A1.75,1.75,0,0,0,88.43,19v.09a3.41,3.41,0,0,1-2.55,1.3A2,2,0,0,1,83.63,18.35Zm.64-4.53c0-.82.73-1.65,2.91-1.74v.09a1.17,1.17,0,0,0-1,1.17c0,.58.4.93,1,1a1.8,1.8,0,0,1-1.54.77A1.29,1.29,0,0,1,84.27,13.82Zm4.64,4.77v-4.9c0-.78-.3-1.41-1.09-1.52v-.09c2.66.09,3.71,1.1,3.71,3.2v3.89c0,.46.16.65.45.65s.51-.24.77-.72h.1a2,2,0,0,1-2.08,1.3C89.49,20.4,88.91,20,88.91,18.59Z"/><path class="cls-3" d="M93.26,9.1a9.64,9.64,0,0,0,3.82-.63V19.33c0,.4.25.81,1.21.81v.1H93.24v-.1c1,0,1.2-.41,1.2-.81V10c0-.57-.27-.85-1.18-.85Z"/><path class="cls-3" d="M99,12.68a9.86,9.86,0,0,0,3.82-.62v7.27c0,.4.24.81,1.2.81v.1H99v-.1c1,0,1.2-.41,1.2-.81v-5.7c0-.58-.27-.85-1.18-.85Zm.81-3a1.65,1.65,0,1,1,1.64,1.4A1.46,1.46,0,0,1,99.8,9.68Z"/><path class="cls-3" d="M107.76,18.34a.81.81,0,0,0-.9.8c0,.46.32,1.05,1.42,1.16v.1c-2.12-.08-3.29-.66-3.29-1.59a1.25,1.25,0,0,1,1.36-1.18A1.61,1.61,0,0,1,107.76,18.34Zm.52-6.17c-.59.11-1.16.42-1.15,1.07.05,1.86,5.24,2.17,5.24,4.71,0,1.55-1.32,2.37-3.38,2.45v-.1c.67-.11,1.42-.35,1.42-1.18,0-1.67-5.25-2.27-5.25-4.71,0-1.41,1.33-2.25,3.12-2.33Zm3.78,1.55a1,1,0,0,1-1.18,1,1.36,1.36,0,0,1-1.36-.77.71.71,0,0,0,.72-.75c0-.48-.61-.95-1.25-1v-.09C110.8,12.17,112.06,12.83,112.06,13.72Z"/><path class="cls-3" d="M119.63,19v.09a3.34,3.34,0,0,1-2.74,1.3c-1.44,0-2.46-.66-2.46-2.26V12.89h-.84l.18-.24h.66V10.92a4.05,4.05,0,0,0,2.62-.89v2.62h2.16l-.17.24h-2v5.3c0,.8.31,1.63,1.06,1.63A2.34,2.34,0,0,0,119.63,19Z"/><path class="cls-3" d="M8.08,30.68a9.86,9.86,0,0,0,3.82-.62v7.27c0,.4.24.81,1.2.81v.1h-5v-.1c1,0,1.2-.41,1.2-.81v-5.7c0-.58-.27-.85-1.18-.85Zm.81-3a1.46,1.46,0,0,1,1.64-1.4,1.42,1.42,0,1,1,0,2.8A1.46,1.46,0,0,1,8.89,27.68Z"/><path class="cls-3" d="M13.77,38.14c1,0,1.2-.41,1.2-.81V31.64c0-.57-.27-.84-1.18-.84v-.1a9.82,9.82,0,0,0,3.82-.62v7.25c0,.4.24.81,1.2.81v.1h-5Zm5.64,0c.94,0,1.18-.41,1.18-.81v-5c0-.89-.46-1.36-1.26-1.36a1.72,1.72,0,0,0-1.22.5v-.1a3.27,3.27,0,0,1,2.66-1.29c1.44,0,2.46.67,2.46,2.25v5c0,.4.24.81,1.2.81v.1h-5Z"/><path class="cls-3" d="M28.08,36.34a.81.81,0,0,0-.9.8c0,.46.32,1,1.43,1.16v.1c-2.13-.08-3.3-.66-3.3-1.59a1.25,1.25,0,0,1,1.36-1.18A1.61,1.61,0,0,1,28.08,36.34Zm.53-6.17c-.6.11-1.17.42-1.16,1.07.05,1.86,5.24,2.17,5.24,4.71,0,1.55-1.32,2.37-3.38,2.45v-.1c.67-.11,1.42-.35,1.42-1.18,0-1.67-5.25-2.27-5.25-4.71,0-1.41,1.33-2.25,3.13-2.33Zm3.77,1.55a1,1,0,0,1-1.18,1A1.38,1.38,0,0,1,29.84,32a.71.71,0,0,0,.72-.75c0-.48-.61-.95-1.25-1v-.09C31.12,30.17,32.38,30.83,32.38,31.72Z"/><path class="cls-3" d="M37.41,36.14c0,.9.3,1.36,1.1,1.36a1.38,1.38,0,0,0,1.1-.49v.09a2.65,2.65,0,0,1-2.48,1.3,2.07,2.07,0,0,1-2.37-2.26v-4.5c0-.57-.27-.84-1.18-.84v-.1a9.91,9.91,0,0,0,3.83-.62Zm5.33,1c0,.46.14.65.43.65s.51-.24.77-.72H44a2,2,0,0,1-2.18,1.3,1.55,1.55,0,0,1-1.76-1.57V31.64c0-.57-.27-.84-1.13-.84v-.1a10.53,10.53,0,0,0,3.78-.62Z"/><path class="cls-3" d="M48.51,37.33c0,.4.24.81,1.2.81v.1h-5v-.1c1,0,1.2-.41,1.2-.81V31.64c0-.57-.27-.84-1.19-.84v-.1a9.91,9.91,0,0,0,3.83-.62Zm4.32-5.52a1.71,1.71,0,0,1-1.65,1.82,1.1,1.1,0,0,1-.91-.35,1.18,1.18,0,0,0,.62-1.09.85.85,0,0,0-.89-.87,1.08,1.08,0,0,0-1,.61v-.12a2.21,2.21,0,0,1,2.08-1.73A1.63,1.63,0,0,1,52.83,31.81Z"/><path class="cls-3" d="M53.52,36.35c0-1.39,1.28-2.18,3.07-2.18h1.73v.1h-.48A1.59,1.59,0,0,0,56.14,36c0,.87.26,1.55,1,1.55A1.75,1.75,0,0,0,58.32,37v.09a3.41,3.41,0,0,1-2.55,1.3A2,2,0,0,1,53.52,36.35Zm.64-4.53c0-.82.73-1.65,2.91-1.74v.09a1.18,1.18,0,0,0-1,1.17c0,.58.41.93,1.05,1a1.8,1.8,0,0,1-1.54.77A1.29,1.29,0,0,1,54.16,31.82Zm4.64,4.77v-4.9c0-.78-.31-1.41-1.09-1.52v-.09c2.66.09,3.71,1.1,3.71,3.2v3.89c0,.46.16.65.45.65s.51-.24.77-.72h.1a2,2,0,0,1-2.08,1.3C59.37,38.4,58.8,38,58.8,36.59Z"/><path class="cls-3" d="M63.23,38.14c1,0,1.2-.41,1.2-.81V31.64c0-.57-.27-.84-1.19-.84v-.1a9.91,9.91,0,0,0,3.83-.62v7.25c0,.4.24.81,1.2.81v.1h-5Zm5.63,0c1,0,1.19-.41,1.19-.81v-5A1.19,1.19,0,0,0,68.78,31a1.69,1.69,0,0,0-1.21.5v-.1a3.26,3.26,0,0,1,2.65-1.29c1.44,0,2.47.67,2.47,2.25v5c0,.4.24.81,1.2.81v.1h-5Z"/><path class="cls-3" d="M78.84,30.17c-.94.11-1.36.91-1.36,4,0,2.31,1.17,3.57,2.6,3.57a3.43,3.43,0,0,0,2.33-.85V37A4.47,4.47,0,0,1,79,38.4a4.18,4.18,0,0,1-4.27-4.19,4.09,4.09,0,0,1,4.09-4.13Zm3.56,1.72a1.49,1.49,0,0,1-1.6,1.53,1.35,1.35,0,0,1-1.39-1,1.38,1.38,0,0,0,.76-1.17.94.94,0,0,0-.68-1v-.11C81.58,30.08,82.4,31,82.4,31.89Z"/><path class="cls-3" d="M83.6,34.21a4,4,0,0,1,3.92-4.13v.09c-1,.11-1.2.91-1.2,4,0,2.31,1,3.57,2.45,3.57a3.43,3.43,0,0,0,2.33-.85V37a4.47,4.47,0,0,1-3.39,1.44A4.06,4.06,0,0,1,83.6,34.21Zm3.6-.68c1.41,0,2-.44,2-1.79,0-.77-.32-1.47-1-1.57v-.09a2.88,2.88,0,0,1,3.13,2.72,4.58,4.58,0,0,1-.08.83h-4Z"/></g></svg>