<?xml version="1.0" encoding="utf-8"?>
<!-- Generator: Adobe Illustrator 24.0.3, SVG Export Plug-In . SVG Version: 6.00 Build 0)  -->
<svg version="1.1" id="Layer_1" xmlns="http://www.w3.org/2000/svg" xmlns:xlink="http://www.w3.org/1999/xlink" x="0px" y="0px"
	 viewBox="0 0 320 50" style="enable-background:new 0 0 320 50;" xml:space="preserve">
<style type="text/css">
	.st0{clip-path:url(#SVGID_2_);}
	.st1{enable-background:new    ;}
	.st2{fill:#FFFFFF;}
</style>
<title>Artboard 1 copy 3</title>
<g>
	<g>
		<defs>
			<rect id="SVGID_1_" y="0" width="320" height="50"/>
		</defs>
		<clipPath id="SVGID_2_">
			<use xlink:href="#SVGID_1_"  style="overflow:visible;"/>
		</clipPath>
		<g class="st0">
			<g class="st1">
				<path class="st2" d="M8.5,20.6c1.1,0,1.4-0.4,1.4-1V8.8c0-0.5-0.3-1-1.4-1V7.8h4.7v11.9c0,0.5,0.3,1,1.4,1v0.1H8.5V20.6z
					 M14.1,7.9V7.8h5.3v3.8h-0.2C18.3,8.9,17,8.1,14.1,7.9z M15.2,14.4l-1.1-0.1v-0.1l1.1-0.1c1.1-0.1,1.9-0.6,2.5-1.6h0.2V16h-0.2
					C17.1,14.9,16.3,14.5,15.2,14.4z"/>
			</g>
			<g class="st1">
				<path class="st2" d="M24.9,11.1c-1.1,0.1-1.5,1.1-1.5,4.8c0,3.6,0.4,4.8,1.5,4.9v0.1c-2.2,0-4.8-1.8-4.8-5
					c0-3.2,2.5-4.9,4.8-4.9V11.1z M30.4,15.9c0,3.2-2.5,5-4.7,5v-0.1c1.1-0.1,1.5-1.3,1.5-4.9c0-3.7-0.4-4.7-1.5-4.8V11
					C27.9,11,30.4,12.7,30.4,15.9z"/>
			</g>
			<g class="st1">
				<path class="st2" d="M36.3,19.7c0,0.5,0.3,1,1.4,1v0.1h-6v-0.1c1.1,0,1.4-0.5,1.4-1v-6.8c0-0.7-0.3-1-1.4-1v-0.1
					c1.8,0,3.2-0.2,4.6-0.7V19.7z M41.4,13.1c0,1.3-0.9,2.2-2,2.2c-0.5,0-0.9-0.1-1.1-0.4c0.4-0.2,0.7-0.6,0.7-1.3
					c0-0.6-0.4-1-1.1-1c-0.5,0-0.9,0.3-1.1,0.7v-0.2c0.4-1.2,1.3-2.1,2.5-2.1C40.7,11,41.4,11.9,41.4,13.1z"/>
			</g>
			<g class="st1">
				<path class="st2" d="M50.3,18.5c-0.6,0-1.1,0.4-1.1,1c0,0.6,0.4,1.3,1.7,1.4v0.1C48.4,20.8,47,20.2,47,19c0-0.9,0.8-1.4,1.6-1.4
					C49.4,17.6,50,18,50.3,18.5z M50.9,11.1c-0.7,0.1-1.4,0.5-1.4,1.3c0.1,2.2,6.2,2.6,6.2,5.6c0,1.9-1.6,2.8-4,2.9v-0.1
					c0.8-0.1,1.7-0.4,1.7-1.4c0-2-6.3-2.7-6.3-5.6c0-1.7,1.6-2.7,3.7-2.8V11.1z M55.4,13c0,0.6-0.5,1.2-1.4,1.2
					c-0.8,0-1.4-0.3-1.6-0.9c0.6,0,0.9-0.4,0.9-0.9c0-0.6-0.7-1.1-1.5-1.2V11C53.9,11.1,55.4,11.9,55.4,13z"/>
				<path class="st2" d="M61.4,23.7c0,0.7,0.3,1,1.4,1v0.1c-1.8,0-3,0.2-4.6,0.7V12.9c0-0.7-0.3-1-1.4-1v-0.1c1.8,0,3-0.2,4.6-0.7
					V23.7z M68.7,15.9c0,4-2.1,5.1-3.9,5.1c-1.1,0-2.3-0.7-2.8-1.5v-0.1c0.5,0.4,1,0.7,1.6,0.7c0.9,0,1.9-0.6,1.9-4.1
					c0-3.5-0.9-3.9-1.9-3.9c-0.6,0-1.2,0.2-1.6,0.7v-0.2c0.5-0.8,1.7-1.5,2.8-1.5C66.7,11,68.7,12.1,68.7,15.9z"/>
				<path class="st2" d="M70.4,15.9c0-3.2,2.4-4.9,4.7-4.9v0.1c-1.1,0.1-1.4,1.1-1.4,4.7c0,2.8,1.2,4.3,2.9,4.3c1.1,0,1.9-0.3,2.8-1
					v0.1c-1,1.3-2.8,1.7-4.1,1.7C72.9,20.9,70.4,19.1,70.4,15.9z M74.7,15.1c1.7,0,2.4-0.5,2.4-2.1c0-0.9-0.4-1.8-1.2-1.9V11
					c2.5,0,3.7,1.8,3.7,3.2c0,0.3,0,0.7-0.1,1h-4.8V15.1z"/>
				<path class="st2" d="M86.1,11.1c-1.1,0.1-1.6,1.1-1.6,4.7c0,2.8,1.4,4.3,3.1,4.3c1.1,0,1.9-0.3,2.8-1v0.1c-1,1.3-2.8,1.7-4,1.7
					c-2.4,0-5.1-1.8-5.1-5c0-3.2,2.7-4.9,4.9-4.9V11.1z M90.3,13.2c0,1-0.7,1.8-1.9,1.8c-0.9,0-1.5-0.6-1.7-1.2
					c0.5-0.2,0.9-0.9,0.9-1.4c0-0.4-0.1-1.1-0.8-1.3V11C89.3,11,90.3,12.1,90.3,13.2z"/>
				<path class="st2" d="M91.4,11.7c1.8,0,3.2-0.2,4.6-0.7v8.7c0,0.5,0.3,1,1.4,1v0.1h-6v-0.1c1.1,0,1.4-0.5,1.4-1v-6.8
					c0-0.7-0.3-1-1.4-1V11.7z M92.4,8.1c0-1,0.8-1.7,1.9-1.7c1.1,0,1.9,0.7,1.9,1.7c0,1-0.8,1.7-1.9,1.7C93.2,9.8,92.4,9.2,92.4,8.1
					z"/>
				<path class="st2" d="M98.4,18.5c0-1.7,1.5-2.6,3.7-2.6h2.1V16h-0.6c-1.4,0-2,0.9-2,2.1c0,1.1,0.3,1.9,1.2,1.9
					c0.5,0,1-0.3,1.4-0.7v0.1c-0.6,0.7-1.6,1.5-3,1.5C99.5,20.9,98.4,20,98.4,18.5z M99.2,13.1c0-1,0.9-2,3.5-2.1v0.1
					c-0.8,0.1-1.2,0.7-1.2,1.4c0,0.7,0.5,1.1,1.2,1.2c-0.3,0.5-1.1,0.9-1.8,0.9C99.8,14.6,99.2,13.9,99.2,13.1z M104.7,18.8v-5.8
					c0-0.9-0.4-1.7-1.3-1.8V11c3.2,0.1,4.4,1.3,4.4,3.8v4.6c0,0.6,0.2,0.8,0.5,0.8c0.3,0,0.6-0.3,0.9-0.9h0.1
					c-0.3,1.1-1.3,1.5-2.5,1.5C105.4,20.9,104.7,20.4,104.7,18.8z"/>
				<path class="st2" d="M109.9,7.5c1.8,0,3.2-0.2,4.6-0.7v13c0,0.5,0.3,1,1.4,1v0.1h-6v-0.1c1.1,0,1.4-0.5,1.4-1V8.6
					c0-0.7-0.3-1-1.4-1V7.5z"/>
				<path class="st2" d="M116.7,11.7c1.8,0,3.2-0.2,4.6-0.7v8.7c0,0.5,0.3,1,1.4,1v0.1h-6v-0.1c1.1,0,1.4-0.5,1.4-1v-6.8
					c0-0.7-0.3-1-1.4-1V11.7z M117.7,8.1c0-1,0.8-1.7,1.9-1.7c1.1,0,1.9,0.7,1.9,1.7c0,1-0.8,1.7-1.9,1.7
					C118.5,9.8,117.7,9.2,117.7,8.1z"/>
				<path class="st2" d="M127.2,18.5c-0.6,0-1.1,0.4-1.1,1c0,0.6,0.4,1.3,1.7,1.4v0.1c-2.5-0.1-3.9-0.8-3.9-1.9
					c0-0.9,0.8-1.4,1.6-1.4C126.3,17.6,126.9,18,127.2,18.5z M127.8,11.1c-0.7,0.1-1.4,0.5-1.4,1.3c0.1,2.2,6.2,2.6,6.2,5.6
					c0,1.9-1.6,2.8-4,2.9v-0.1c0.8-0.1,1.7-0.4,1.7-1.4c0-2-6.3-2.7-6.3-5.6c0-1.7,1.6-2.7,3.7-2.8V11.1z M132.3,13
					c0,0.6-0.5,1.2-1.4,1.2c-0.8,0-1.4-0.3-1.6-0.9c0.6,0,0.9-0.4,0.9-0.9c0-0.6-0.7-1.1-1.5-1.2V11C130.8,11.1,132.3,11.9,132.3,13
					z"/>
				<path class="st2" d="M141.4,19.3v0.1c-0.6,0.9-1.8,1.5-3.3,1.5c-1.7,0-2.9-0.8-2.9-2.7V12h-1l0.2-0.3h0.8V9.6
					c1.2,0,2.3-0.4,3.1-1.1v3.1h2.6l-0.2,0.3h-2.4v6.3c0,1,0.4,1.9,1.3,1.9C140.1,20.3,140.8,19.9,141.4,19.3z"/>
			</g>
			<g class="st1">
				<path class="st2" d="M8.2,31.9c1.8,0,3.2-0.2,4.6-0.7v8.7c0,0.5,0.3,1,1.4,1v0.1h-6v-0.1c1.1,0,1.4-0.5,1.4-1V33
					c0-0.7-0.3-1-1.4-1V31.9z M9.1,28.3c0-1,0.8-1.7,1.9-1.7c1.1,0,1.9,0.7,1.9,1.7c0,1-0.8,1.7-1.9,1.7C9.9,30,9.1,29.3,9.1,28.3z"
					/>
				<path class="st2" d="M15,40.8c1.1,0,1.4-0.5,1.4-1v-6.8c0-0.7-0.3-1-1.4-1v-0.1c1.8,0,3.2-0.2,4.6-0.7v8.7c0,0.5,0.3,1,1.4,1
					v0.1h-6V40.8z M21.7,40.8c1.1,0,1.4-0.5,1.4-1v-6c0-1.1-0.6-1.6-1.5-1.6c-0.5,0-1,0.2-1.5,0.6v-0.1c0.5-0.8,1.8-1.5,3.2-1.5
					c1.7,0,2.9,0.8,2.9,2.7v6c0,0.5,0.3,1,1.4,1v0.1h-6V40.8z"/>
				<path class="st2" d="M32,38.7c-0.6,0-1.1,0.4-1.1,1c0,0.6,0.4,1.3,1.7,1.4v0.1c-2.5-0.1-3.9-0.8-3.9-1.9c0-0.9,0.8-1.4,1.6-1.4
					C31.1,37.8,31.8,38.2,32,38.7z M32.7,31.3c-0.7,0.1-1.4,0.5-1.4,1.3c0.1,2.2,6.2,2.6,6.2,5.6c0,1.9-1.6,2.8-4,2.9V41
					c0.8-0.1,1.7-0.4,1.7-1.4c0-2-6.3-2.7-6.3-5.6c0-1.7,1.6-2.7,3.7-2.8V31.3z M37.2,33.2c0,0.6-0.5,1.2-1.4,1.2
					c-0.8,0-1.4-0.3-1.6-0.9c0.6,0,0.9-0.4,0.9-0.9c0-0.6-0.7-1.1-1.5-1.2v-0.1C35.7,31.3,37.2,32.1,37.2,33.2z"/>
				<path class="st2" d="M43.2,38.4c0,1.1,0.4,1.6,1.3,1.6c0.5,0,0.9-0.2,1.3-0.6v0.1c-0.4,0.8-1.4,1.5-3,1.5
					c-1.7,0-2.8-0.8-2.8-2.7v-5.4c0-0.7-0.3-1-1.4-1v-0.1c1.8,0,3.2-0.2,4.6-0.7V38.4z M49.5,39.6c0,0.6,0.2,0.8,0.5,0.8
					c0.3,0,0.6-0.3,0.9-0.9h0.1c-0.3,1.1-1.3,1.5-2.6,1.5c-1.3,0-2.1-0.8-2.1-1.9v-6.2c0-0.7-0.3-1-1.4-1v-0.1
					c1.7,0,2.9-0.2,4.5-0.7V39.6z"/>
			</g>
			<g class="st1">
				<path class="st2" d="M56.4,39.8c0,0.5,0.3,1,1.4,1v0.1h-6v-0.1c1.1,0,1.4-0.5,1.4-1v-6.8c0-0.7-0.3-1-1.4-1v-0.1
					c1.8,0,3.2-0.2,4.6-0.7V39.8z M61.6,33.3c0,1.3-0.9,2.2-2,2.2c-0.5,0-0.9-0.1-1.1-0.4c0.4-0.2,0.7-0.6,0.7-1.3
					c0-0.6-0.4-1-1.1-1c-0.5,0-0.9,0.3-1.1,0.7v-0.2c0.4-1.2,1.3-2.1,2.5-2.1C60.9,31.2,61.6,32.1,61.6,33.3z"/>
			</g>
			<g class="st1">
				<path class="st2" d="M62.4,38.7c0-1.7,1.5-2.6,3.7-2.6h2.1v0.1h-0.6c-1.4,0-2,0.9-2,2.1c0,1.1,0.3,1.9,1.2,1.9
					c0.5,0,1-0.3,1.4-0.7v0.1c-0.6,0.7-1.6,1.5-3,1.5C63.5,41.1,62.4,40.2,62.4,38.7z M63.2,33.3c0-1,0.9-2,3.5-2.1v0.1
					c-0.8,0.1-1.2,0.7-1.2,1.4c0,0.7,0.5,1.1,1.2,1.2c-0.3,0.5-1.1,0.9-1.8,0.9C63.8,34.8,63.2,34.1,63.2,33.3z M68.7,39v-5.8
					c0-0.9-0.4-1.7-1.3-1.8v-0.1c3.2,0.1,4.4,1.3,4.4,3.8v4.6c0,0.6,0.2,0.8,0.5,0.8c0.3,0,0.6-0.3,0.9-0.9h0.1
					c-0.3,1.1-1.3,1.5-2.5,1.5C69.4,41.1,68.7,40.6,68.7,39z"/>
				<path class="st2" d="M74,40.8c1.1,0,1.4-0.5,1.4-1v-6.8c0-0.7-0.3-1-1.4-1v-0.1c1.8,0,3.2-0.2,4.6-0.7v8.7c0,0.5,0.3,1,1.4,1
					v0.1h-6V40.8z M80.8,40.8c1.1,0,1.4-0.5,1.4-1v-6c0-1.1-0.6-1.6-1.5-1.6c-0.5,0-1,0.2-1.5,0.6v-0.1c0.5-0.8,1.8-1.5,3.2-1.5
					c1.7,0,2.9,0.8,2.9,2.7v6c0,0.5,0.3,1,1.4,1v0.1h-6V40.8z"/>
				<path class="st2" d="M92.7,31.3c-1.1,0.1-1.6,1.1-1.6,4.7c0,2.8,1.4,4.3,3.1,4.3c1.1,0,1.9-0.3,2.8-1v0.1c-1,1.3-2.8,1.7-4,1.7
					c-2.4,0-5.1-1.8-5.1-5c0-3.2,2.7-4.9,4.9-4.9V31.3z M96.9,33.3c0,1-0.7,1.8-1.9,1.8c-0.9,0-1.5-0.6-1.7-1.2
					c0.5-0.2,0.9-0.9,0.9-1.4c0-0.4-0.1-1.1-0.8-1.3v-0.1C95.9,31.2,96.9,32.3,96.9,33.3z"/>
				<path class="st2" d="M98.4,36.1c0-3.2,2.4-4.9,4.7-4.9v0.1c-1.1,0.1-1.4,1.1-1.4,4.7c0,2.8,1.2,4.3,2.9,4.3c1.1,0,1.9-0.3,2.8-1
					v0.1c-1,1.3-2.8,1.7-4.1,1.7C100.8,41.1,98.4,39.3,98.4,36.1z M102.7,35.3c1.7,0,2.4-0.5,2.4-2.1c0-0.9-0.4-1.8-1.2-1.9v-0.1
					c2.5,0,3.7,1.8,3.7,3.2c0,0.3,0,0.7-0.1,1h-4.8V35.3z"/>
			</g>
		</g>
	</g>
</g>
</svg>
