<?xml version="1.0" encoding="utf-8"?>
<!-- Generator: Adobe Illustrator 24.0.3, SVG Export Plug-In . SVG Version: 6.00 Build 0)  -->
<svg version="1.1" id="Layer_1" xmlns="http://www.w3.org/2000/svg" xmlns:xlink="http://www.w3.org/1999/xlink" x="0px" y="0px"
	 viewBox="0 0 320 50" style="enable-background:new 0 0 320 50;" xml:space="preserve">
<style type="text/css">
	.st0{clip-path:url(#SVGID_2_);}
	.st1{enable-background:new    ;}
	.st2{fill:#FFFFFF;}
</style>
<title>Artboard 1 copy 2</title>
<g>
	<defs>
		<rect id="SVGID_1_" y="0" width="320" height="50"/>
	</defs>
	<clipPath id="SVGID_2_">
		<use xlink:href="#SVGID_1_"  style="overflow:visible;"/>
	</clipPath>
	<g class="st0">
		<g class="st1">
			<path class="st2" d="M13.3,20.6v0.1c-1.5,0-2.7-0.3-3.7-0.9L9,20.7H8.8V16H9C9.6,18.2,11,19.8,13.3,20.6z M19,16.8
				c0,2.5-1.8,3.8-4.8,3.9v-0.1c1.1-0.2,2.1-0.8,2.1-1.9c0-3.3-7.3-3.6-7.3-7.5c0-2.3,1.9-3.6,4.4-3.8v0.1c-0.9,0.2-1.7,0.7-1.7,1.8
				C11.7,12.5,19,12.9,19,16.8z M14.2,7.4V7.3c1.4,0.1,2.6,0.4,3.4,1l0.7-1h0.2v4.3h-0.2C17.7,9.6,16,7.9,14.2,7.4z"/>
		</g>
		<g class="st1">
			<path class="st2" d="M27.7,19v0.1c-0.6,0.9-1.8,1.5-3.3,1.5c-1.7,0-2.9-0.8-2.9-2.7v-6.3h-1l0.2-0.3h0.8V9.4
				c1.2,0,2.3-0.4,3.1-1.1v3.1h2.6L27,11.7h-2.4v6.3c0,1,0.4,1.9,1.3,1.9C26.4,20,27,19.7,27.7,19z"/>
			<path class="st2" d="M28.3,18.2c0-1.7,1.5-2.6,3.7-2.6H34v0.1h-0.6c-1.4,0-2,0.9-2,2.1c0,1.1,0.3,1.9,1.2,1.9
				c0.5,0,1-0.3,1.4-0.7v0.1c-0.6,0.7-1.6,1.5-3,1.5C29.4,20.7,28.3,19.8,28.3,18.2z M29,12.8c0-1,0.9-2,3.5-2.1v0.1
				c-0.8,0.1-1.2,0.7-1.2,1.4c0,0.7,0.5,1.1,1.2,1.2c-0.3,0.5-1.1,0.9-1.8,0.9C29.7,14.3,29,13.6,29,12.8z M34.6,18.5v-5.8
				c0-0.9-0.4-1.7-1.3-1.8v-0.1c3.2,0.1,4.4,1.3,4.4,3.8v4.6c0,0.6,0.2,0.8,0.5,0.8c0.3,0,0.6-0.3,0.9-0.9h0.1
				c-0.3,1.1-1.3,1.5-2.5,1.5C35.3,20.7,34.6,20.2,34.6,18.5z"/>
		</g>
		<g class="st1">
			<path class="st2" d="M44.5,19.4c0,0.5,0.3,1,1.4,1v0.1h-6v-0.1c1.1,0,1.4-0.5,1.4-1v-6.8c0-0.7-0.3-1-1.4-1v-0.1
				c1.8,0,3.2-0.2,4.6-0.7V19.4z M49.6,12.8c0,1.3-0.9,2.2-2,2.2c-0.5,0-0.9-0.1-1.1-0.4c0.4-0.2,0.7-0.6,0.7-1.3c0-0.6-0.4-1-1.1-1
				c-0.5,0-0.9,0.3-1.1,0.7v-0.2c0.4-1.2,1.3-2.1,2.5-2.1C48.9,10.8,49.6,11.7,49.6,12.8z"/>
		</g>
		<g class="st1">
			<path class="st2" d="M55.1,20.5v-0.1c1.1,0,1.4-0.4,1.4-1V8.6c0-0.5-0.3-1-1.4-1V7.5h4.7v13H55.1z M65.8,7.5V11h-0.2
				c-0.8-2.4-2-3.2-4.9-3.4V7.5H65.8z M60.8,13.8v-0.1l1.1-0.1c1.1-0.1,1.9-0.6,2.5-1.6h0.2v3.6h-0.2c-0.6-1.1-1.4-1.5-2.5-1.6
				L60.8,13.8z M60.8,20.4c2.9-0.2,4.3-1,5.3-3.4h0.2v3.5h-5.4V20.4z"/>
			<path class="st2" d="M67.6,20.4c1.1,0,1.4-0.5,1.4-1v-6.8c0-0.7-0.3-1-1.4-1v-0.1c1.8,0,3.2-0.2,4.6-0.7v8.7c0,0.5,0.3,1,1.4,1
				v0.1h-6V20.4z M74.4,20.4c1.1,0,1.4-0.5,1.4-1v-6c0-1.1-0.6-1.6-1.5-1.6c-0.5,0-1,0.2-1.5,0.6v-0.1c0.5-0.8,1.8-1.5,3.2-1.5
				c1.7,0,2.9,0.8,2.9,2.7v6c0,0.5,0.3,1,1.4,1v0.1h-6V20.4z"/>
			<path class="st2" d="M88.5,19v0.1c-0.6,0.9-1.8,1.5-3.3,1.5c-1.7,0-2.9-0.8-2.9-2.7v-6.3h-1l0.2-0.3h0.8V9.4
				c1.2,0,2.3-0.4,3.1-1.1v3.1H88l-0.2,0.3h-2.4v6.3c0,1,0.4,1.9,1.3,1.9C87.2,20,87.8,19.7,88.5,19z"/>
			<path class="st2" d="M93.4,19.4c0,0.5,0.3,1,1.4,1v0.1h-6v-0.1c1.1,0,1.4-0.5,1.4-1V8.3c0-0.7-0.3-1-1.4-1V7.2
				c1.8,0,3.2-0.2,4.6-0.7V19.4z M100.1,13.5v6c0,0.5,0.3,1,1.4,1v0.1h-6v-0.1c1.1,0,1.4-0.5,1.4-1v-6c0-1.1-0.6-1.6-1.5-1.6
				c-0.5,0-1,0.2-1.5,0.6v-0.1c0.5-0.8,1.8-1.5,3.2-1.5C98.9,10.8,100.1,11.6,100.1,13.5z"/>
			<path class="st2" d="M106.6,18c0,1.1,0.4,1.6,1.3,1.6c0.5,0,0.9-0.2,1.3-0.6v0.1c-0.4,0.8-1.4,1.5-3,1.5c-1.7,0-2.8-0.8-2.8-2.7
				v-5.4c0-0.7-0.3-1-1.4-1v-0.1c1.8,0,3.2-0.2,4.6-0.7V18z M112.9,19.2c0,0.6,0.2,0.8,0.5,0.8c0.3,0,0.6-0.3,0.9-0.9h0.1
				c-0.3,1.1-1.3,1.5-2.6,1.5c-1.3,0-2.1-0.8-2.1-1.9v-6.2c0-0.7-0.3-1-1.4-1v-0.1c1.7,0,2.9-0.2,4.5-0.7V19.2z"/>
			<path class="st2" d="M118.9,18.2c-0.6,0-1.1,0.4-1.1,1c0,0.6,0.4,1.3,1.7,1.4v0.1c-2.5-0.1-3.9-0.8-3.9-1.9
				c0-0.9,0.8-1.4,1.6-1.4C118,17.4,118.6,17.7,118.9,18.2z M119.6,10.9c-0.7,0.1-1.4,0.5-1.4,1.3c0.1,2.2,6.2,2.6,6.2,5.6
				c0,1.9-1.6,2.8-4,2.9v-0.1c0.8-0.1,1.7-0.4,1.7-1.4c0-2-6.3-2.7-6.3-5.6c0-1.7,1.6-2.7,3.7-2.8V10.9z M124.1,12.7
				c0,0.6-0.5,1.2-1.4,1.2c-0.8,0-1.4-0.3-1.6-0.9c0.6,0,0.9-0.4,0.9-0.9c0-0.6-0.7-1.1-1.5-1.2v-0.1
				C122.6,10.9,124.1,11.7,124.1,12.7z"/>
			<path class="st2" d="M125.7,11.5c1.8,0,3.2-0.2,4.6-0.7v8.7c0,0.5,0.3,1,1.4,1v0.1h-6v-0.1c1.1,0,1.4-0.5,1.4-1v-6.8
				c0-0.7-0.3-1-1.4-1V11.5z M126.7,7.9c0-1,0.8-1.7,1.9-1.7c1.1,0,1.9,0.7,1.9,1.7c0,1-0.8,1.7-1.9,1.7
				C127.5,9.6,126.7,8.9,126.7,7.9z"/>
			<path class="st2" d="M132.7,18.2c0-1.7,1.5-2.6,3.7-2.6h2.1v0.1h-0.6c-1.4,0-2,0.9-2,2.1c0,1.1,0.3,1.9,1.2,1.9
				c0.5,0,1-0.3,1.4-0.7v0.1c-0.6,0.7-1.6,1.5-3,1.5C133.8,20.7,132.7,19.8,132.7,18.2z M133.5,12.8c0-1,0.9-2,3.5-2.1v0.1
				c-0.8,0.1-1.2,0.7-1.2,1.4c0,0.7,0.5,1.1,1.2,1.2c-0.3,0.5-1.1,0.9-1.8,0.9C134.1,14.3,133.5,13.6,133.5,12.8z M139,18.5v-5.8
				c0-0.9-0.4-1.7-1.3-1.8v-0.1c3.2,0.1,4.4,1.3,4.4,3.8v4.6c0,0.6,0.2,0.8,0.5,0.8c0.3,0,0.6-0.3,0.9-0.9h0.1
				c-0.3,1.1-1.3,1.5-2.5,1.5C139.7,20.7,139,20.2,139,18.5z"/>
			<path class="st2" d="M148,18.2c-0.6,0-1.1,0.4-1.1,1c0,0.6,0.4,1.3,1.7,1.4v0.1c-2.5-0.1-3.9-0.8-3.9-1.9c0-0.9,0.8-1.4,1.6-1.4
				C147,17.4,147.7,17.7,148,18.2z M148.6,10.9c-0.7,0.1-1.4,0.5-1.4,1.3c0.1,2.2,6.2,2.6,6.2,5.6c0,1.9-1.6,2.8-4,2.9v-0.1
				c0.8-0.1,1.7-0.4,1.7-1.4c0-2-6.3-2.7-6.3-5.6c0-1.7,1.6-2.7,3.7-2.8V10.9z M153.1,12.7c0,0.6-0.5,1.2-1.4,1.2
				c-0.8,0-1.4-0.3-1.6-0.9c0.6,0,0.9-0.4,0.9-0.9c0-0.6-0.7-1.1-1.5-1.2v-0.1C151.6,10.9,153.1,11.7,153.1,12.7z"/>
			<path class="st2" d="M162.1,19v0.1c-0.6,0.9-1.8,1.5-3.3,1.5c-1.7,0-2.9-0.8-2.9-2.7v-6.3h-1l0.2-0.3h0.8V9.4
				c1.2,0,2.3-0.4,3.1-1.1v3.1h2.6l-0.2,0.3h-2.4v6.3c0,1,0.4,1.9,1.3,1.9C160.9,20,161.5,19.7,162.1,19z"/>
		</g>
		<g class="st1">
			<path class="st2" d="M8.5,40.6c1.1,0,1.4-0.5,1.4-1V28.8c0-0.5-0.3-1-1.4-1v-0.1h6.1v0.1c-1.1,0-1.4,0.5-1.4,1v10.8
				c0,0.5,0.3,1,1.4,1v0.1H8.5V40.6z"/>
			<path class="st2" d="M15.9,40.6c1.1,0,1.4-0.5,1.4-1v-6.8c0-0.7-0.3-1-1.4-1v-0.1c1.8,0,3.2-0.2,4.6-0.7v8.7c0,0.5,0.3,1,1.4,1
				v0.1h-6V40.6z M22.6,40.6c1.1,0,1.4-0.5,1.4-1v-6c0-1.1-0.6-1.6-1.5-1.6c-0.5,0-1,0.2-1.5,0.6v-0.1c0.5-0.8,1.8-1.5,3.2-1.5
				c1.7,0,2.9,0.8,2.9,2.7v6c0,0.5,0.3,1,1.4,1v0.1h-6V40.6z"/>
			<path class="st2" d="M33,38.4c-0.6,0-1.1,0.4-1.1,1c0,0.6,0.4,1.3,1.7,1.4v0.1c-2.5-0.1-3.9-0.8-3.9-1.9c0-0.9,0.8-1.4,1.6-1.4
				C32,37.6,32.7,37.9,33,38.4z M33.6,31.1c-0.7,0.1-1.4,0.5-1.4,1.3c0.1,2.2,6.2,2.6,6.2,5.6c0,1.9-1.6,2.8-4,2.9v-0.1
				c0.8-0.1,1.7-0.4,1.7-1.4c0-2-6.3-2.7-6.3-5.6c0-1.7,1.6-2.7,3.7-2.8V31.1z M38.1,32.9c0,0.6-0.5,1.2-1.4,1.2
				c-0.8,0-1.4-0.3-1.6-0.9c0.6,0,0.9-0.4,0.9-0.9c0-0.6-0.7-1.1-1.5-1.2v-0.1C36.6,31.1,38.1,31.8,38.1,32.9z"/>
			<path class="st2" d="M44.1,38.2c0,1.1,0.4,1.6,1.3,1.6c0.5,0,0.9-0.2,1.3-0.6v0.1c-0.4,0.8-1.4,1.5-3,1.5c-1.7,0-2.8-0.8-2.8-2.7
				v-5.4c0-0.7-0.3-1-1.4-1v-0.1c1.8,0,3.2-0.2,4.6-0.7V38.2z M50.5,39.4c0,0.6,0.2,0.8,0.5,0.8c0.3,0,0.6-0.3,0.9-0.9H52
				c-0.3,1.1-1.3,1.5-2.6,1.5c-1.3,0-2.1-0.8-2.1-1.9v-6.2c0-0.7-0.3-1-1.4-1v-0.1c1.7,0,2.9-0.2,4.5-0.7V39.4z"/>
		</g>
		<g class="st1">
			<path class="st2" d="M57.4,39.6c0,0.5,0.3,1,1.4,1v0.1h-6v-0.1c1.1,0,1.4-0.5,1.4-1v-6.8c0-0.7-0.3-1-1.4-1v-0.1
				c1.8,0,3.2-0.2,4.6-0.7V39.6z M62.5,33c0,1.3-0.9,2.2-2,2.2c-0.5,0-0.9-0.1-1.1-0.4c0.4-0.2,0.7-0.6,0.7-1.3c0-0.6-0.4-1-1.1-1
				c-0.5,0-0.9,0.3-1.1,0.7V33c0.4-1.2,1.3-2.1,2.5-2.1C61.8,30.9,62.5,31.9,62.5,33z"/>
		</g>
		<g class="st1">
			<path class="st2" d="M63.4,38.4c0-1.7,1.5-2.6,3.7-2.6h2.1v0.1h-0.6c-1.4,0-2,0.9-2,2.1c0,1.1,0.3,1.9,1.2,1.9
				c0.5,0,1-0.3,1.4-0.7v0.1c-0.6,0.7-1.6,1.5-3,1.5C64.4,40.9,63.3,40,63.4,38.4z M64.1,33c0-1,0.9-2,3.5-2.1v0.1
				c-0.8,0.1-1.2,0.7-1.2,1.4c0,0.7,0.5,1.1,1.2,1.2c-0.3,0.5-1.1,0.9-1.8,0.9C64.7,34.5,64.1,33.8,64.1,33z M69.7,38.7v-5.8
				c0-0.9-0.4-1.7-1.3-1.8v-0.1c3.2,0.1,4.4,1.3,4.4,3.8v4.6c0,0.6,0.2,0.8,0.5,0.8c0.3,0,0.6-0.3,0.9-0.9h0.1
				c-0.3,1.1-1.3,1.5-2.5,1.5C70.3,40.9,69.7,40.3,69.7,38.7z"/>
			<path class="st2" d="M75,40.6c1.1,0,1.4-0.5,1.4-1v-6.8c0-0.7-0.3-1-1.4-1v-0.1c1.8,0,3.2-0.2,4.6-0.7v8.7c0,0.5,0.3,1,1.4,1v0.1
				h-6V40.6z M81.7,40.6c1.1,0,1.4-0.5,1.4-1v-6c0-1.1-0.6-1.6-1.5-1.6c-0.5,0-1,0.2-1.5,0.6v-0.1c0.5-0.8,1.8-1.5,3.2-1.5
				c1.7,0,2.9,0.8,2.9,2.7v6c0,0.5,0.3,1,1.4,1v0.1h-6V40.6z"/>
			<path class="st2" d="M93.6,31.1c-1.1,0.1-1.6,1.1-1.6,4.7c0,2.8,1.4,4.3,3.1,4.3c1.1,0,1.9-0.3,2.8-1v0.1c-1,1.3-2.8,1.7-4,1.7
				c-2.4,0-5.1-1.8-5.1-5c0-3.2,2.7-4.9,4.9-4.9V31.1z M97.8,33.1c0,1-0.7,1.8-1.9,1.8c-0.9,0-1.5-0.6-1.7-1.2
				c0.5-0.2,0.9-0.9,0.9-1.4c0-0.4-0.1-1.1-0.8-1.3v-0.1C96.9,30.9,97.8,32,97.8,33.1z"/>
			<path class="st2" d="M99.3,35.9c0-3.2,2.4-4.9,4.7-4.9v0.1c-1.1,0.1-1.4,1.1-1.4,4.7c0,2.8,1.2,4.3,2.9,4.3c1.1,0,1.9-0.3,2.8-1
				v0.1c-1,1.3-2.8,1.7-4,1.7C101.7,40.9,99.3,39.1,99.3,35.9z M103.6,35.1c1.7,0,2.4-0.5,2.4-2.1c0-0.9-0.4-1.8-1.2-1.9v-0.1
				c2.5,0,3.7,1.8,3.7,3.2c0,0.3,0,0.7-0.1,1h-4.8V35.1z"/>
		</g>
	</g>
</g>
</svg>
