<?xml version="1.0" encoding="utf-8"?>
<!-- Generator: Adobe Illustrator 24.0.3, SVG Export Plug-In . SVG Version: 6.00 Build 0)  -->
<svg version="1.1" id="Layer_1" xmlns="http://www.w3.org/2000/svg" xmlns:xlink="http://www.w3.org/1999/xlink" x="0px" y="0px"
	 viewBox="0 0 320 50" style="enable-background:new 0 0 320 50;" xml:space="preserve">
<style type="text/css">
	.st0{clip-path:url(#SVGID_2_);}
	.st1{enable-background:new    ;}
	.st2{fill:#263845;}
</style>
<title>Artboard 1 copy</title>
<g>
	<defs>
		<rect id="SVGID_1_" y="0" width="320" height="50"/>
	</defs>
	<clipPath id="SVGID_2_">
		<use xlink:href="#SVGID_1_"  style="overflow:visible;"/>
	</clipPath>
	<g class="st0">
		<g class="st1">
			<path class="st2" d="M14.8,8.3v0.1c-1.4,0.2-2.3,1.5-2.3,6.5c0,4.9,1,6.5,2.3,6.7v0.1c-2.7-0.2-6.1-2.2-6.1-6.7
				C8.7,10.7,12.2,8.5,14.8,8.3z M15.7,8.4V8.3c2,0.1,3.1,0.4,3.9,0.9l0.6-0.9h0.2V13h-0.2C19.7,10.7,18,8.9,15.7,8.4z M22.2,16v0.1
				c-0.9,0-1.4,0.3-1.4,1.1v4.4h-0.2L20,20.5c-1,0.7-2.3,1.1-4.2,1.1v-0.1c1.3-0.1,2-0.8,2-2.3v-2c0-0.8-0.3-1.1-1.4-1.1V16H22.2z"
				/>
			<path class="st2" d="M28.1,11.9C27,12,26.6,13,26.6,16.7c0,3.6,0.4,4.8,1.5,4.9v0.1c-2.2,0-4.8-1.8-4.8-5c0-3.2,2.5-4.9,4.8-4.9
				V11.9z M33.6,16.7c0,3.2-2.5,5-4.7,5v-0.1c1.1-0.1,1.5-1.3,1.5-4.9c0-3.7-0.4-4.7-1.5-4.8v-0.1C31.1,11.8,33.6,13.5,33.6,16.7z"
				/>
			<path class="st2" d="M42.3,20v0.1c-0.6,0.9-1.8,1.5-3.3,1.5c-1.7,0-2.9-0.8-2.9-2.7v-6.3h-1l0.2-0.3h0.8v-2.1
				c1.2,0,2.3-0.4,3.1-1.1v3.1h2.6l-0.2,0.3h-2.4v6.3c0,1,0.4,1.9,1.3,1.9C41,21,41.7,20.7,42.3,20z"/>
			<path class="st2" d="M47.8,19.2c0-1.7,1.5-2.6,3.7-2.6h2.1v0.1h-0.6c-1.4,0-2,0.9-2,2.1c0,1.1,0.3,1.9,1.2,1.9
				c0.5,0,1-0.3,1.4-0.7v0.1c-0.6,0.7-1.6,1.5-3,1.5C48.9,21.7,47.8,20.8,47.8,19.2z M48.6,13.8c0-1,0.9-2,3.5-2.1v0.1
				c-0.8,0.1-1.2,0.7-1.2,1.4c0,0.7,0.5,1.1,1.2,1.2c-0.3,0.5-1.1,0.9-1.8,0.9C49.2,15.3,48.6,14.6,48.6,13.8z M54.1,19.5v-5.8
				c0-0.9-0.4-1.7-1.3-1.8v-0.1c3.2,0.1,4.4,1.3,4.4,3.8v4.6c0,0.6,0.2,0.8,0.5,0.8c0.3,0,0.6-0.3,0.9-0.9h0.1
				c-0.3,1.1-1.3,1.5-2.5,1.5C54.8,21.7,54.1,21.2,54.1,19.5z"/>
			<path class="st2" d="M67.9,19.2c-0.6,0-1.1,0.4-1.1,1c0,0.6,0.4,1.3,1.7,1.4v0.1c-2.5-0.1-3.9-0.8-3.9-1.9c0-0.9,0.8-1.4,1.6-1.4
				C67,18.4,67.6,18.7,67.9,19.2z M68.5,11.9c-0.7,0.1-1.4,0.5-1.4,1.3c0.1,2.2,6.2,2.6,6.2,5.6c0,1.9-1.6,2.8-4,2.9v-0.1
				c0.8-0.1,1.7-0.4,1.7-1.4c0-2-6.3-2.7-6.3-5.6c0-1.7,1.6-2.7,3.7-2.8V11.9z M73,13.7c0,0.6-0.5,1.2-1.4,1.2
				c-0.8,0-1.4-0.3-1.6-0.9c0.6,0,0.9-0.4,0.9-0.9c0-0.6-0.7-1.1-1.5-1.2v-0.1C71.5,11.9,73,12.7,73,13.7z"/>
			<path class="st2" d="M79.1,24.4c0,0.7,0.3,1,1.4,1v0.1c-1.8,0-3,0.2-4.6,0.7V13.6c0-0.7-0.3-1-1.4-1v-0.1c1.8,0,3-0.2,4.6-0.7
				V24.4z M86.4,16.6c0,4-2.1,5.1-3.9,5.1c-1.1,0-2.3-0.7-2.8-1.5V20c0.5,0.4,1,0.7,1.6,0.7c0.9,0,1.9-0.6,1.9-4.1
				c0-3.5-0.9-3.9-1.9-3.9c-0.6,0-1.2,0.2-1.6,0.7v-0.2c0.5-0.8,1.7-1.5,2.8-1.5C84.3,11.8,86.4,12.8,86.4,16.6z"/>
			<path class="st2" d="M88.1,16.7c0-3.2,2.4-4.9,4.7-4.9v0.1c-1.1,0.1-1.4,1.1-1.4,4.7c0,2.8,1.2,4.3,2.9,4.3c1.1,0,1.9-0.3,2.8-1
				V20c-1,1.3-2.8,1.7-4.1,1.7C90.5,21.7,88.1,19.9,88.1,16.7z M92.3,15.9c1.7,0,2.4-0.5,2.4-2.1c0-0.9-0.4-1.8-1.2-1.9v-0.1
				c2.5,0,3.7,1.8,3.7,3.2c0,0.3,0,0.7-0.1,1h-4.8V15.9z"/>
			<path class="st2" d="M103.7,11.9c-1.1,0.1-1.6,1.1-1.6,4.7c0,2.8,1.4,4.3,3.1,4.3c1.1,0,1.9-0.3,2.8-1V20c-1,1.3-2.8,1.7-4,1.7
				c-2.4,0-5.1-1.8-5.1-5c0-3.2,2.7-4.9,4.9-4.9V11.9z M107.9,13.9c0,1-0.7,1.8-1.9,1.8c-0.9,0-1.5-0.6-1.7-1.2
				c0.5-0.2,0.9-0.9,0.9-1.4c0-0.4-0.1-1.1-0.8-1.3v-0.1C107,11.8,107.9,12.8,107.9,13.9z"/>
			<path class="st2" d="M109.1,12.5c1.8,0,3.2-0.2,4.6-0.7v8.7c0,0.5,0.3,1,1.4,1v0.1h-6v-0.1c1.1,0,1.4-0.5,1.4-1v-6.8
				c0-0.7-0.3-1-1.4-1V12.5z M110,8.9c0-1,0.8-1.7,1.9-1.7c1.1,0,1.9,0.7,1.9,1.7c0,1-0.8,1.7-1.9,1.7C110.8,10.6,110,9.9,110,8.9z"
				/>
			<path class="st2" d="M116,19.2c0-1.7,1.5-2.6,3.7-2.6h2.1v0.1h-0.6c-1.4,0-2,0.9-2,2.1c0,1.1,0.3,1.9,1.2,1.9
				c0.5,0,1-0.3,1.4-0.7v0.1c-0.6,0.7-1.6,1.5-3,1.5C117.1,21.7,116,20.8,116,19.2z M116.8,13.8c0-1,0.9-2,3.5-2.1v0.1
				c-0.8,0.1-1.2,0.7-1.2,1.4c0,0.7,0.5,1.1,1.2,1.2c-0.3,0.5-1.1,0.9-1.8,0.9C117.4,15.3,116.8,14.6,116.8,13.8z M122.3,19.5v-5.8
				c0-0.9-0.4-1.7-1.3-1.8v-0.1c3.2,0.1,4.4,1.3,4.4,3.8v4.6c0,0.6,0.2,0.8,0.5,0.8c0.3,0,0.6-0.3,0.9-0.9h0.1
				c-0.3,1.1-1.3,1.5-2.5,1.5C123,21.7,122.3,21.2,122.3,19.5z"/>
			<path class="st2" d="M127.5,8.2c1.8,0,3.2-0.2,4.6-0.7v13c0,0.5,0.3,1,1.4,1v0.1h-6v-0.1c1.1,0,1.4-0.5,1.4-1V9.3
				c0-0.7-0.3-1-1.4-1V8.2z"/>
		</g>
		<g class="st1">
			<path class="st2" d="M8.7,32.9c-0.2-0.4-0.5-0.7-1.1-0.7v-0.1H13v0.1c-0.7,0-0.9,0.5-0.6,1.1l2.5,5.2l-1.6,3.1h-0.1L8.7,32.9z
				 M15.7,36.7c0.3-0.6,0.5-1.4,0.5-2.5c0-1.1-0.6-2-1.9-2v-0.1H19v0.1c-0.6,0-0.9,0.2-1.2,0.9l-2,3.7L15.7,36.7z"/>
		</g>
		<g class="st1">
			<path class="st2" d="M19.2,36.9c0-3.2,2.4-4.9,4.7-4.9v0.1c-1.1,0.1-1.4,1.1-1.4,4.7c0,2.8,1.2,4.3,2.9,4.3c1.1,0,1.9-0.3,2.8-1
				v0.1c-1,1.3-2.8,1.7-4.1,1.7C21.7,41.9,19.2,40.1,19.2,36.9z M23.5,36.1c1.7,0,2.4-0.5,2.4-2.1c0-0.9-0.4-1.8-1.2-1.9v-0.1
				c2.5,0,3.7,1.8,3.7,3.2c0,0.3,0,0.7-0.1,1h-4.8V36.1z"/>
			<path class="st2" d="M34.1,40.6c0,0.5,0.3,1,1.4,1v0.1h-6v-0.1c1.1,0,1.4-0.5,1.4-1V29.5c0-0.7-0.3-1-1.4-1v-0.1
				c1.8,0,3.2-0.2,4.6-0.7V40.6z M40.8,34.6v6c0,0.5,0.3,1,1.4,1v0.1h-6v-0.1c1.1,0,1.4-0.5,1.4-1v-6c0-1.1-0.6-1.6-1.5-1.6
				c-0.5,0-1,0.2-1.5,0.6v-0.1c0.5-0.8,1.8-1.5,3.2-1.5C39.6,31.9,40.8,32.7,40.8,34.6z"/>
			<path class="st2" d="M42.9,32.7c1.8,0,3.2-0.2,4.6-0.7v8.7c0,0.5,0.3,1,1.4,1v0.1h-6v-0.1c1.1,0,1.4-0.5,1.4-1v-6.8
				c0-0.7-0.3-1-1.4-1V32.7z M43.9,29.1c0-1,0.8-1.7,1.9-1.7c1.1,0,1.9,0.7,1.9,1.7c0,1-0.8,1.7-1.9,1.7
				C44.7,30.8,43.9,30.1,43.9,29.1z"/>
			<path class="st2" d="M55,32.1c-1.1,0.1-1.6,1.1-1.6,4.7c0,2.8,1.4,4.3,3.1,4.3c1.1,0,1.9-0.3,2.8-1v0.1c-1,1.3-2.8,1.7-4,1.7
				c-2.4,0-5.1-1.8-5.1-5c0-3.2,2.7-4.9,4.9-4.9V32.1z M59.2,34.1c0,1-0.7,1.8-1.9,1.8c-0.9,0-1.5-0.6-1.7-1.2
				c0.5-0.2,0.9-0.9,0.9-1.4c0-0.4-0.1-1.1-0.8-1.3v-0.1C58.2,31.9,59.2,33,59.2,34.1z"/>
			<path class="st2" d="M60.2,28.4c1.8,0,3.2-0.2,4.6-0.7v13c0,0.5,0.3,1,1.4,1v0.1h-6v-0.1c1.1,0,1.4-0.5,1.4-1V29.5
				c0-0.7-0.3-1-1.4-1V28.4z"/>
			<path class="st2" d="M67.4,36.9c0-3.2,2.4-4.9,4.7-4.9v0.1c-1.1,0.1-1.4,1.1-1.4,4.7c0,2.8,1.2,4.3,2.9,4.3c1.1,0,1.9-0.3,2.8-1
				v0.1c-1,1.3-2.8,1.7-4.1,1.7C69.8,41.9,67.4,40.1,67.4,36.9z M71.7,36.1c1.7,0,2.4-0.5,2.4-2.1c0-0.9-0.4-1.8-1.2-1.9v-0.1
				c2.5,0,3.7,1.8,3.7,3.2c0,0.3,0,0.7-0.1,1h-4.8V36.1z"/>
			<path class="st2" d="M77.9,31.1c0-1.7,2.3-2.5,4-2.6v0.1c-0.9,0.3-1.4,1.1-1.4,1.9c0,0.7,0.3,1.3,1.1,1.6c-0.3,0.5-1,0.8-1.8,0.8
				C78.9,32.9,77.9,32.3,77.9,31.1z M80.7,41.2c0-1,0.8-1.7,2-1.7s2,0.7,2,1.7c0,1.1-0.8,1.8-2,1.8S80.7,42.3,80.7,41.2z M81.2,35.9
				c0-2.1,3-2.8,3-5.2c0-1-0.4-1.7-1.4-2v-0.1c2.6,0.2,4.6,1,4.6,3.2c0,2.6-4.1,3.4-4.1,5.1c0,0.5,0.2,0.8,0.7,1.1l0,0.1
				C82.1,38,81.2,37,81.2,35.9z"/>
		</g>
	</g>
</g>
</svg>
