<?xml version="1.0" encoding="utf-8"?>
<!-- Generator: Adobe Illustrator 24.0.3, SVG Export Plug-In . SVG Version: 6.00 Build 0)  -->
<svg version="1.1" id="Layer_1" xmlns="http://www.w3.org/2000/svg" xmlns:xlink="http://www.w3.org/1999/xlink" x="0px" y="0px"
	 viewBox="0 0 320 600" style="enable-background:new 0 0 320 600;" xml:space="preserve">
<style type="text/css">
	.st0{clip-path:url(#SVGID_2_);}
	.st1{enable-background:new    ;}
	.st2{fill:#263845;}
</style>
<title>Artboard 1 copy 4</title>
<g>
	<defs>
		<rect id="SVGID_1_" y="0.5" width="320" height="600"/>
	</defs>
	<clipPath id="SVGID_2_">
		<use xlink:href="#SVGID_1_"  style="overflow:visible;"/>
	</clipPath>
	<g class="st0">
		<g class="st1">
			<path class="st2" d="M37,82.4v0.2H23.8v-0.2c2.5,0,3.1-1,3.1-2.1V57c0-1.2-0.6-2.1-3.1-2.1v-0.2h10.1v25.6
				C33.8,81.4,34.5,82.4,37,82.4z M53,79.7c-0.7,2.3-3.1,3.3-6.1,3.3c-5.3,0-6.6-3.7-6.8-7.1c-0.2-3.4-0.6-6-4.2-6.5v-0.2
				c3.8,0,5.5-3.3,5.5-7.4c0-4.6-1.7-6.8-5.5-6.8v-0.2c8.3,0,12.4,1.8,12.4,7c0,4.4-3.3,7.1-9.4,7.5c7.5,0.3,8.6,3.2,9,6.7
				c0.4,3.3,1.3,5.7,2.7,5.7c0.7,0,1.4-0.6,2.1-1.8H53z"/>
		</g>
		<g class="st1">
			<path class="st2" d="M53.8,72.3c0-6.9,5.3-10.6,10.1-10.6V62c-2.4,0.3-3.1,2.3-3.1,10.2c0,5.9,2.6,9.2,6.3,9.2
				c2.3,0,4.1-0.7,6-2.2v0.2c-2.1,2.7-6,3.7-8.7,3.7C59.1,83.1,53.8,79.2,53.8,72.3z M63.1,70.6c3.6,0,5.1-1.1,5.1-4.6
				c0-2-0.8-3.8-2.7-4v-0.2c5.4,0,8,3.9,8,7c0,0.7-0.1,1.5-0.2,2.1H63.1V70.6z"/>
			<path class="st2" d="M76.6,77.8c0-3.6,3.3-5.6,7.9-5.6h4.4v0.2h-1.2c-3,0-4.4,1.9-4.4,4.5c0,2.3,0.7,4,2.6,4c1.1,0,2.1-0.6,3-1.4
				v0.2c-1.4,1.6-3.5,3.3-6.5,3.3C78.8,83.1,76.5,81.1,76.6,77.8z M78.2,66.2c0-2.1,1.9-4.2,7.5-4.5V62C84,62.2,83,63.5,83,65
				c0,1.5,1,2.4,2.7,2.5c-0.6,1.1-2.3,2-3.9,2C79.5,69.4,78.2,67.9,78.2,66.2z M90.1,78.4V65.9c0-2-0.8-3.6-2.8-3.9v-0.2
				c6.8,0.2,9.5,2.8,9.5,8.2v10c0,1.2,0.4,1.7,1.1,1.7c0.6,0,1.3-0.6,2-1.8h0.2c-0.7,2.3-2.9,3.3-5.3,3.3
				C91.6,83.1,90.1,81.9,90.1,78.4z"/>
			<path class="st2" d="M101.3,54.1c3.8,0,6.9-0.4,9.8-1.6v27.8c0,1,0.6,2.1,3.1,2.1v0.2h-12.9v-0.2c2.5,0,3.1-1.1,3.1-2.1V56.5
				c0-1.5-0.7-2.2-3-2.2V54.1z"/>
		</g>
		<g class="st1">
			<path class="st2" d="M31.9,105.9l5.4,11.2l-3.5,6.7h-0.2l-9.5-18.8c-0.4-0.9-1-1.4-2.3-1.4v-0.2h11.5v0.2
				C31.8,103.4,31.2,104.4,31.9,105.9z M45.4,105.9l5.4,11.2l-3.5,6.7H47l-6.4-12.8l-1.3,2.5L39,113c0.7-1.4,0.9-3.4,0.3-4.6
				l-1.8-3.6c-0.4-0.9-1-1.4-2.3-1.4v-0.2h11.5v0.2C45.3,103.4,44.7,104.4,45.4,105.9z M59.7,103.2v0.2c-1.4,0-1.9,0.5-2.7,1.9
				l-4.3,8l-0.2-0.4c0.7-1.3,1.1-3.1,1.1-5.3c0-2.3-1.3-4.3-4.2-4.3v-0.2H59.7z"/>
		</g>
		<g class="st1">
			<path class="st2" d="M70.2,103c-2.4,0.3-3.2,2.3-3.2,10.3c0,7.7,0.8,10.3,3.2,10.5v0.2c-4.7,0-10.2-3.9-10.2-10.8
				s5.4-10.6,10.2-10.6V103z M82,113.4c0,6.9-5.5,10.8-10.2,10.8v-0.2c2.4-0.2,3.2-2.8,3.2-10.5c0-8-0.8-10.1-3.2-10.3v-0.2
				C76.6,102.8,82,106.4,82,113.4z"/>
			<path class="st2" d="M94.6,121.4c0,1,0.6,2.1,3.1,2.1v0.2H84.8v-0.2c2.5,0,3.1-1.1,3.1-2.1v-14.6c0-1.5-0.7-2.2-3-2.2v-0.2
				c3.8,0,6.9-0.4,9.8-1.6V121.4z M105.7,107.2c0,2.8-2,4.7-4.2,4.7c-1,0-1.8-0.2-2.3-0.9c0.8-0.4,1.6-1.3,1.6-2.8
				c0-1.2-0.9-2.2-2.3-2.2c-1.1,0-1.9,0.6-2.5,1.6v-0.3c0.8-2.6,2.8-4.4,5.3-4.4C104.1,102.8,105.7,104.7,105.7,107.2z"/>
			<path class="st2" d="M107.2,95.1c3.8,0,6.9-0.4,9.8-1.6v27.8c0,1,0.6,2.1,3.1,2.1v0.2h-12.9v-0.2c2.5,0,3.1-1.1,3.1-2.1V97.6
				c0-1.5-0.7-2.2-3-2.2V95.1z"/>
			<path class="st2" d="M137.1,106.1v0.3c-0.9-1-2.1-1.5-3.4-1.5c-2.1,0-4,0.9-4,8.4c0,7.4,2.1,8.7,4,8.7c1.3,0,2.4-0.7,3.4-1.4v0.2
				c-1,1.7-3.6,3.3-6,3.3c-3.9,0-8.5-2.3-8.5-10.9c0-8.2,4.5-10.5,8.5-10.5C133.5,102.8,136.1,104.3,137.1,106.1z M145.2,121
				c0,1.2,0.4,1.7,1.1,1.7c0.6,0,1.3-0.6,2-1.8h0.2c-0.7,2.3-2.9,3.3-5.3,3.3c-3.3,0-4.8-1.1-4.8-4.6V97.6c0-1.5-0.7-2.2-3-2.2v-0.2
				c3.8,0,6.4-0.4,9.8-1.6V121z"/>
		</g>
		<g class="st1">
			<path class="st2" d="M174.5,123.5v0.2h-13.2v-0.2c2.5,0,3.1-1,3.1-2.1V98.1c0-1.2-0.6-2.1-3.1-2.1v-0.2h10.1v25.6
				C171.4,122.5,172,123.5,174.5,123.5z M190.5,120.8c-0.7,2.3-3.1,3.3-6.1,3.3c-5.3,0-6.6-3.7-6.8-7.1c-0.2-3.4-0.6-6-4.2-6.5v-0.2
				c3.8,0,5.5-3.3,5.5-7.4c0-4.6-1.7-6.8-5.5-6.8v-0.2c8.3,0,12.4,1.8,12.4,7c0,4.4-3.3,7.1-9.4,7.5c7.5,0.3,8.6,3.2,9,6.7
				c0.4,3.3,1.3,5.7,2.7,5.7c0.7,0,1.4-0.6,2.1-1.8H190.5z"/>
		</g>
		<g class="st1">
			<path class="st2" d="M191.2,98.2c-0.7-1.6-1.7-2.1-3.7-2.1v-0.2h14.8V96c-1.9,0-3.6,1.2-2.5,3.4l7.8,16.3l-3.7,8.4h-0.5
				L191.2,98.2z M209.1,112c2.4-5.5,2.9-8.9,2.9-11.5c0-3-2.5-4.5-4.7-4.5v-0.2h11.8V96c-1.9,0-3,1.8-4.4,4.6l-5.6,11.8L209.1,112z"
				/>
		</g>
		<g class="st1">
			<path class="st2" d="M23.1,145.4c3.8,0,6.9-0.4,9.8-1.6v18.6c0,1,0.6,2.1,3.1,2.1v0.2H23v-0.2c2.5,0,3.1-1.1,3.1-2.1v-14.6
				c0-1.5-0.7-2.2-3-2.2V145.4z M25.2,137.7c0-2.1,1.7-3.6,4.2-3.6c2.5,0,4.2,1.4,4.2,3.6c0,2.2-1.7,3.6-4.2,3.6
				C26.9,141.3,25.2,139.9,25.2,137.7z"/>
			<path class="st2" d="M37.7,164.5c2.5,0,3.1-1.1,3.1-2.1v-14.6c0-1.5-0.7-2.2-3-2.2v-0.2c3.8,0,6.9-0.4,9.8-1.6v18.6
				c0,1,0.6,2.1,3.1,2.1v0.2H37.7V164.5z M52.2,164.5c2.4,0,3-1.1,3-2.1v-12.8c0-2.3-1.2-3.5-3.2-3.5c-1.1,0-2.1,0.4-3.1,1.3v-0.2
				c1.1-1.7,3.8-3.3,6.8-3.3c3.7,0,6.3,1.7,6.3,5.8v12.8c0,1,0.6,2.1,3.1,2.1v0.2H52.2V164.5z"/>
			<path class="st2" d="M74.4,159.9c-1.4,0-2.3,0.8-2.3,2.1c0,1.2,0.8,2.7,3.7,3v0.2c-5.5-0.2-8.5-1.7-8.5-4.1c0-1.9,1.6-3,3.5-3
				C72.4,158.1,73.8,158.9,74.4,159.9z M75.8,144.1c-1.5,0.3-3,1.1-3,2.8c0.1,4.8,13.4,5.5,13.4,12.1c0,4-3.4,6.1-8.7,6.3v-0.2
				c1.7-0.3,3.7-0.9,3.7-3c0-4.3-13.5-5.8-13.5-12.1c0-3.6,3.4-5.8,8-6V144.1z M85.5,148.1c0,1.3-1,2.5-3,2.5c-1.7,0-3-0.7-3.5-2
				c1.2-0.1,1.9-0.9,1.8-1.9c0-1.2-1.6-2.4-3.2-2.6v-0.2C82.2,144.1,85.5,145.8,85.5,148.1z"/>
			<path class="st2" d="M98.4,159.4c0,2.3,0.8,3.5,2.8,3.5c1.1,0,1.9-0.3,2.8-1.3v0.2c-0.9,1.8-3,3.3-6.4,3.3
				c-3.7,0-6.1-1.7-6.1-5.8v-11.5c0-1.5-0.7-2.2-3-2.2v-0.2c3.8,0,6.9-0.4,9.8-1.6V159.4z M112,162c0,1.2,0.4,1.7,1.1,1.7
				c0.6,0,1.3-0.6,2-1.8h0.2c-0.7,2.3-2.9,3.3-5.6,3.3c-2.9,0-4.5-1.6-4.5-4v-13.3c0-1.5-0.7-2.2-2.9-2.2v-0.2
				c3.7,0,6.2-0.4,9.7-1.6V162z"/>
		</g>
		<g class="st1">
			<path class="st2" d="M126.8,162.4c0,1,0.6,2.1,3.1,2.1v0.2H117v-0.2c2.5,0,3.1-1.1,3.1-2.1v-14.6c0-1.5-0.7-2.2-3-2.2v-0.2
				c3.8,0,6.9-0.4,9.8-1.6V162.4z M137.9,148.3c0,2.8-2,4.7-4.2,4.7c-1,0-1.8-0.2-2.3-0.9c0.8-0.4,1.6-1.3,1.6-2.8
				c0-1.2-0.9-2.2-2.3-2.2c-1.1,0-1.9,0.6-2.5,1.6v-0.3c0.8-2.6,2.8-4.4,5.3-4.4C136.4,143.8,137.9,145.8,137.9,148.3z"/>
		</g>
		<g class="st1">
			<path class="st2" d="M139.7,159.9c0-3.6,3.3-5.6,7.9-5.6h4.4v0.2h-1.2c-3,0-4.4,1.9-4.4,4.5c0,2.3,0.7,4,2.6,4
				c1.1,0,2.1-0.6,3-1.4v0.2c-1.4,1.6-3.5,3.3-6.5,3.3C142,165.2,139.7,163.2,139.7,159.9z M141.3,148.3c0-2.1,1.9-4.2,7.5-4.5v0.2
				c-1.6,0.2-2.6,1.6-2.6,3c0,1.5,1,2.4,2.7,2.5c-0.6,1.1-2.3,2-3.9,2C142.7,151.6,141.3,150,141.3,148.3z M153.2,160.6V148
				c0-2-0.8-3.6-2.8-3.9v-0.2c6.8,0.2,9.5,2.8,9.5,8.2v10c0,1.2,0.4,1.7,1.1,1.7c0.6,0,1.3-0.6,2-1.8h0.2c-0.7,2.3-2.9,3.3-5.3,3.3
				C154.7,165.2,153.2,164,153.2,160.6z"/>
			<path class="st2" d="M164.6,164.5c2.5,0,3.1-1.1,3.1-2.1v-14.6c0-1.5-0.7-2.2-3-2.2v-0.2c3.8,0,6.9-0.4,9.8-1.6v18.6
				c0,1,0.6,2.1,3.1,2.1v0.2h-12.9V164.5z M179.1,164.5c2.4,0,3-1.1,3-2.1v-12.8c0-2.3-1.2-3.5-3.2-3.5c-1.1,0-2.1,0.4-3.1,1.3v-0.2
				c1.1-1.7,3.8-3.3,6.8-3.3c3.7,0,6.3,1.7,6.3,5.8v12.8c0,1,0.6,2.1,3.1,2.1v0.2h-12.9V164.5z"/>
			<path class="st2" d="M204.7,144.1c-2.4,0.3-3.5,2.3-3.5,10.2c0,5.9,3,9.2,6.7,9.2c2.3,0,4.1-0.7,6-2.2v0.2
				c-2.1,2.7-6,3.7-8.7,3.7c-5.3,0-11-3.9-11-10.8s5.7-10.6,10.5-10.6V144.1z M213.8,148.5c0,2.2-1.5,3.9-4.1,3.9
				c-2,0-3.3-1.3-3.6-2.6c1.1-0.5,2-1.9,2-3c0-0.9-0.2-2.4-1.8-2.7v-0.3C211.7,143.8,213.8,146.1,213.8,148.5z"/>
			<path class="st2" d="M216.9,154.4c0-6.9,5.3-10.6,10.1-10.6v0.2c-2.4,0.3-3.1,2.3-3.1,10.2c0,5.9,2.6,9.2,6.3,9.2
				c2.3,0,4.1-0.7,6-2.2v0.2c-2.1,2.7-6,3.7-8.7,3.7C222.2,165.2,216.9,161.3,216.9,154.4z M226.1,152.7c3.6,0,5.1-1.1,5.1-4.6
				c0-2-0.8-3.8-2.7-4v-0.2c5.4,0,8,3.9,8,7c0,0.7-0.1,1.5-0.2,2.1h-10.3V152.7z"/>
		</g>
	</g>
</g>
</svg>
