<svg id="Layer_1" data-name="Layer 1" xmlns="http://www.w3.org/2000/svg" xmlns:xlink="http://www.w3.org/1999/xlink" viewBox="0 0 320 600"><defs><style>.cls-1{fill:none;}.cls-2{clip-path:url(#clip-path);}.cls-3{fill:#fff;}</style><clipPath id="clip-path"><rect class="cls-1" width="320" height="600"/></clipPath></defs><title>Artboard 1 copy 3</title><g class="cls-2"><path class="cls-3" d="M31.51,82.45c2.1,0,2.62-.81,2.62-1.79V60.85c0-1-.52-1.79-2.62-1.79v-.21h8.57V80.66c0,1,.53,1.79,2.63,1.79v.21H31.51ZM41.83,59.06v-.21h9.63v7h-.28C49.57,60.88,47.15,59.41,41.83,59.06ZM43.76,71l-1.93-.17v-.21l1.93-.17a5.41,5.41,0,0,0,4.62-3h.28v6.52h-.28A5.34,5.34,0,0,0,43.76,71Z"/><path class="cls-3" d="M61.64,65c-2.07.25-2.77,2-2.77,8.82,0,6.59.7,8.76,2.77,9V83a8.92,8.92,0,0,1-8.72-9.18,8.78,8.78,0,0,1,8.72-9Zm10.08,8.82A8.92,8.92,0,0,1,63,83V82.8c2.07-.21,2.73-2.42,2.73-9,0-6.86-.7-8.61-2.73-8.82V64.8A8.72,8.72,0,0,1,71.72,73.83Z"/><path class="cls-3" d="M82.43,80.66c0,.88.52,1.79,2.63,1.79v.21H74v-.21c2.1,0,2.62-.91,2.62-1.79V68.23c0-1.26-.59-1.85-2.59-1.85v-.21a21.36,21.36,0,0,0,8.37-1.37Zm9.45-12.08a3.75,3.75,0,0,1-3.6,4,2.37,2.37,0,0,1-2-.78,2.55,2.55,0,0,0,1.37-2.38,1.85,1.85,0,0,0-2-1.88,2.39,2.39,0,0,0-2.1,1.33v-.29a4.84,4.84,0,0,1,4.55-3.78A3.55,3.55,0,0,1,91.88,68.58Z"/><path class="cls-3" d="M109.73,80.66c0,.88.53,1.79,2.63,1.79v.21h-11v-.21c2.1,0,2.62-.91,2.62-1.79V68.23c0-1.26-.59-1.85-2.59-1.85v-.21a21.36,21.36,0,0,0,8.37-1.37Zm11.62-10.92V80.66c0,.88.49,1.79,2.59,1.79v.21H113v-.21c2.07,0,2.63-.91,2.63-1.79V69.74c0-2-.77-3-2.46-3a3.06,3.06,0,0,0-2.3,1V67.6a5.65,5.65,0,0,1,5.11-2.8C119.25,64.8,121.35,66.27,121.35,69.74Zm11.59,0V80.66c0,.88.52,1.79,2.62,1.79v.21h-11v-.21c2.06,0,2.62-.91,2.62-1.79V69.74c0-2-.77-3-2.45-3a3.08,3.08,0,0,0-2.31,1V67.6a5.67,5.67,0,0,1,5.11-2.8C130.84,64.8,132.94,66.27,132.94,69.74Z"/><path class="cls-3" d="M146.16,65c-2.06.25-2.76,2-2.76,8.82,0,6.59.7,8.76,2.76,9V83a8.92,8.92,0,0,1-8.71-9.18,8.78,8.78,0,0,1,8.71-9Zm10.09,8.82A8.93,8.93,0,0,1,147.57,83V82.8c2.06-.21,2.72-2.42,2.72-9,0-6.86-.69-8.61-2.72-8.82V64.8A8.73,8.73,0,0,1,156.25,73.83Z"/><path class="cls-3" d="M167,80.66c0,.88.53,1.79,2.63,1.79v.21h-11v-.21c2.1,0,2.63-.91,2.63-1.79V68.23c0-1.26-.6-1.85-2.59-1.85v-.21A21.3,21.3,0,0,0,167,64.8Zm9.45-12.08a3.75,3.75,0,0,1-3.6,4,2.37,2.37,0,0,1-2-.78,2.53,2.53,0,0,0,1.37-2.38,1.85,1.85,0,0,0-2-1.88,2.39,2.39,0,0,0-2.1,1.33v-.29a4.84,4.84,0,0,1,4.55-3.78A3.55,3.55,0,0,1,176.4,68.58Z"/><path class="cls-3" d="M178.29,73.83a8.67,8.67,0,0,1,8.58-9V65c-2.07.25-2.63,2-2.63,8.69,0,5,2.24,7.8,5.36,7.8a7.66,7.66,0,0,0,5.11-1.85v.21c-1.82,2.31-5.15,3.15-7.42,3.15A8.88,8.88,0,0,1,178.29,73.83Zm7.88-1.46c3.08,0,4.37-1,4.37-3.93,0-1.68-.7-3.22-2.27-3.43V64.8c4.62,0,6.86,3.29,6.86,6a10,10,0,0,1-.18,1.83h-8.78Z"/><path class="cls-3" d="M31.47,112.83a8.67,8.67,0,0,1,8.58-9V104c-2.07.25-2.63,2-2.63,8.69,0,5,2.24,7.8,5.36,7.8a7.66,7.66,0,0,0,5.11-1.85v.21c-1.82,2.31-5.15,3.15-7.42,3.15A8.88,8.88,0,0,1,31.47,112.83Zm7.88-1.46c3.08,0,4.37-1,4.37-3.93,0-1.68-.7-3.22-2.27-3.43v-.21c4.62,0,6.86,3.29,6.86,6a10,10,0,0,1-.18,1.83H39.35Z"/><path class="cls-3" d="M51.17,105.59a1.89,1.89,0,0,0-1.92-1.23v-.21h9.8v.21c-1.22,0-1.71.84-1.12,2.07L62.52,116l-3,5.67H59.3Zm12.82,7A9.68,9.68,0,0,0,65,108a3.39,3.39,0,0,0-3.57-3.68v-.21h8.71v.21c-1.15,0-1.61.46-2.27,1.65l-3.64,6.86Z"/><path class="cls-3" d="M70.39,112.83a8.67,8.67,0,0,1,8.58-9V104c-2.07.25-2.63,2-2.63,8.69,0,5,2.24,7.8,5.36,7.8a7.66,7.66,0,0,0,5.11-1.85v.21C85,121.17,81.66,122,79.39,122A8.88,8.88,0,0,1,70.39,112.83Zm7.88-1.46c3.08,0,4.37-1,4.37-3.93,0-1.68-.7-3.22-2.27-3.43v-.21c4.62,0,6.86,3.29,6.86,6a10,10,0,0,1-.18,1.83H78.27Z"/><path class="cls-3" d="M97.86,119.66c0,.88.53,1.79,2.63,1.79v.21h-11v-.21c2.1,0,2.63-.91,2.63-1.79V107.23c0-1.26-.6-1.85-2.59-1.85v-.21a21.3,21.3,0,0,0,8.36-1.37Zm9.46-12.08a3.75,3.75,0,0,1-3.61,4,2.35,2.35,0,0,1-2-.78,2.54,2.54,0,0,0,1.36-2.38,1.85,1.85,0,0,0-2-1.88,2.4,2.4,0,0,0-2.1,1.33v-.29a4.85,4.85,0,0,1,4.55-3.78A3.55,3.55,0,0,1,107.32,107.58Z"/><path class="cls-3" d="M109.69,105.59a1.89,1.89,0,0,0-1.92-1.23v-.21h9.8v.21c-1.22,0-1.71.84-1.12,2.07L121,116l-3,5.67h-.21Zm-1.54,21.7c0-1.5,1.19-2.76,3.08-3.29a2.87,2.87,0,0,0-.14.88,2,2,0,0,0,2.07,2.34c1.22,0,2.2-1.29,3.53-3.53h.25c-1.92,3.6-3.25,6.72-5.71,6.72A2.91,2.91,0,0,1,108.15,127.29Zm14.36-14.73a9.68,9.68,0,0,0,1-4.52,3.39,3.39,0,0,0-3.57-3.68v-.21h8.71v.21c-1.15,0-1.61.46-2.27,1.65l-3.64,6.86Z"/><path class="cls-3" d="M142.35,119v.21a7.33,7.33,0,0,1-6,2.84c-3.15,0-5.39-1.44-5.39-4.94V105.59h-1.82l.39-.53H131v-3.78a8.8,8.8,0,0,0,5.74-2v5.74h4.73l-.38.53h-4.35v11.59c0,1.75.67,3.57,2.32,3.57A5.15,5.15,0,0,0,142.35,119Z"/><path class="cls-3" d="M151.38,119.66c0,.88.52,1.79,2.62,1.79v.21H143v-.21c2.1,0,2.62-.91,2.62-1.79V99.36c0-1.26-.59-1.86-2.59-1.86v-.21a21.54,21.54,0,0,0,8.37-1.36Zm12.25-10.92v10.92c0,.88.53,1.79,2.63,1.79v.21h-11v-.21c2.06,0,2.59-.91,2.59-1.79V108.74c0-2-1-3-2.77-3a3.74,3.74,0,0,0-2.66,1.09v-.21a7.14,7.14,0,0,1,5.81-2.84C161.39,103.8,163.63,105.27,163.63,108.74Z"/><path class="cls-3" d="M167.58,105.13a21.54,21.54,0,0,0,8.37-1.36v15.89c0,.88.52,1.79,2.62,1.79v.21h-11v-.21c2.1,0,2.62-.91,2.62-1.79V107.2c0-1.26-.59-1.86-2.59-1.86Zm1.79-6.58c0-1.82,1.47-3,3.57-3s3.57,1.22,3.57,3-1.47,3.08-3.57,3.08S169.37,100.41,169.37,98.55Z"/><path class="cls-3" d="M180,121.45c2.1,0,2.63-.91,2.63-1.79V107.23c0-1.26-.6-1.85-2.59-1.85v-.21a21.3,21.3,0,0,0,8.36-1.37v15.86c0,.88.53,1.79,2.63,1.79v.21H180Zm12.32,0c2.07,0,2.59-.91,2.59-1.79V108.74c0-2-1-3-2.76-3a3.74,3.74,0,0,0-2.66,1.09v-.21a7.14,7.14,0,0,1,5.81-2.84c3.15,0,5.39,1.47,5.39,4.94v10.92c0,.88.53,1.79,2.63,1.79v.21h-11Z"/><path class="cls-3" d="M205.42,110.14c0-4.55,4.27-6.27,7.84-6.34V104c-1.51.14-2.21,2-2.21,6,0,4.23.7,5.95,2.21,6.09v.21C209.72,116.34,205.42,114.66,205.42,110.14Zm9.31,20.06c3.5-.42,4.62-2.31,4.62-3.57,0-4.87-13.65-.53-13.65-6.79,0-1.44.73-2.56,2.34-3.57l.11.17a.82.82,0,0,0-.32.67c0,3.92,16-.63,16,7,0,3.6-3.11,6-9.06,6.3Zm-9-2.94c0-2.07,2.55-2.7,5.32-2.7a3,3,0,0,0-1.51,2.49c0,1.61,1.82,2.83,3.82,3.15v.21C209.58,130.34,205.7,129.57,205.7,127.26Zm9-11.13c1.71-.14,2.41-1.86,2.41-6.09,0-4.07-.73-5.89-2.41-6v-.21c3.71.07,8,1.79,8,6.34s-4.3,6.2-8,6.2Zm1.89-13c.59-1.78,2.2-4.2,4.62-4.2,1.85,0,3,1,3,2.66a2.79,2.79,0,0,1-2.83,2.73c0-1.47-.77-2.34-1.89-2.34a3.8,3.8,0,0,0-2.7,1.26Z"/><path class="cls-3" d="M44.42,158v.21a7.32,7.32,0,0,1-6,2.84c-3.16,0-5.4-1.44-5.4-4.94V144.59H31.22l.39-.53H33v-3.78a8.84,8.84,0,0,0,5.75-2v5.74h4.72l-.38.53H38.79v11.59c0,1.75.66,3.57,2.31,3.57A5.13,5.13,0,0,0,44.42,158Z"/><path class="cls-3" d="M53.45,158.66c0,.88.53,1.79,2.63,1.79v.21h-11v-.21c2.1,0,2.62-.91,2.62-1.79v-20.3c0-1.26-.59-1.86-2.59-1.86v-.21a21.54,21.54,0,0,0,8.37-1.36ZM65.7,147.74v10.92c0,.88.53,1.79,2.63,1.79v.21h-11v-.21c2.06,0,2.59-.91,2.59-1.79V147.74c0-2-1-3-2.77-3a3.74,3.74,0,0,0-2.66,1.09v-.21a7.14,7.14,0,0,1,5.81-2.84C63.46,142.8,65.7,144.27,65.7,147.74Z"/><path class="cls-3" d="M69.86,156.53c0-3.05,2.8-4.76,6.72-4.76h3.78V152h-1c-2.53,0-3.71,1.64-3.71,3.81,0,1.93.55,3.4,2.2,3.4A3.81,3.81,0,0,0,80.36,158v.21A7.42,7.42,0,0,1,74.8,161C71.82,161,69.83,159.33,69.86,156.53Zm1.4-9.91c0-1.79,1.61-3.61,6.37-3.82V143a2.56,2.56,0,0,0-2.24,2.56c0,1.26.88,2,2.28,2.14a4,4,0,0,1-3.36,1.67A2.8,2.8,0,0,1,71.26,146.62Zm10.16,10.43V146.34c0-1.72-.67-3.08-2.39-3.33v-.21c5.82.21,8.13,2.42,8.13,7v8.51c0,1,.35,1.44,1,1.44s1.12-.53,1.68-1.58H90c-.56,1.93-2.45,2.84-4.55,2.84C82.68,161,81.42,160,81.42,157.05Z"/><path class="cls-3" d="M91.11,160.45c2.1,0,2.62-.91,2.62-1.79V146.23c0-1.26-.59-1.85-2.59-1.85v-.21a21.32,21.32,0,0,0,8.37-1.37v15.86c0,.88.52,1.79,2.62,1.79v.21h-11Zm12.32,0c2.07,0,2.59-.91,2.59-1.79V147.74c0-2-1-3-2.76-3a3.74,3.74,0,0,0-2.66,1.09v-.21a7.14,7.14,0,0,1,5.81-2.84c3.15,0,5.39,1.47,5.39,4.94v10.92c0,.88.52,1.79,2.62,1.79v.21h-11Z"/><path class="cls-3" d="M124.85,156.53c0-3.05,2.8-4.76,6.72-4.76h3.78V152h-1a3.46,3.46,0,0,0-3.71,3.81c0,1.93.56,3.4,2.2,3.4a3.86,3.86,0,0,0,2.56-1.23v.21a7.46,7.46,0,0,1-5.57,2.84C126.81,161,124.81,159.33,124.85,156.53Zm1.4-9.91c0-1.79,1.61-3.61,6.37-3.82V143a2.56,2.56,0,0,0-2.24,2.56c0,1.26.87,2,2.27,2.14a3.94,3.94,0,0,1-3.36,1.67A2.8,2.8,0,0,1,126.25,146.62Zm10.15,10.43V146.34c0-1.72-.67-3.08-2.38-3.33v-.21c5.81.21,8.12,2.42,8.12,7v8.51c0,1,.35,1.44,1,1.44s1.12-.53,1.68-1.58H145c-.56,1.93-2.45,2.84-4.55,2.84C137.66,161,136.4,160,136.4,157.05Z"/><path class="cls-3" d="M146.09,160.45c2.1,0,2.63-.91,2.63-1.79V146.23c0-1.26-.6-1.85-2.59-1.85v-.21a21.3,21.3,0,0,0,8.36-1.37v15.86c0,.88.53,1.79,2.63,1.79v.21h-11Zm12.32,0c2.07,0,2.59-.91,2.59-1.79V147.74c0-2-1-3-2.76-3a3.74,3.74,0,0,0-2.66,1.09v-.21a7.14,7.14,0,0,1,5.81-2.84c3.15,0,5.39,1.47,5.39,4.94v10.92c0,.88.53,1.79,2.63,1.79v.21h-11Z"/><path class="cls-3" d="M170.77,144.59a1.89,1.89,0,0,0-1.93-1.23v-.21h9.8v.21c-1.22,0-1.71.84-1.12,2.07l4.59,9.56-3,5.67h-.21Zm-1.54,21.7c0-1.5,1.19-2.76,3.08-3.29a2.6,2.6,0,0,0-.14.88,2,2,0,0,0,2.06,2.34c1.23,0,2.21-1.29,3.54-3.53H178c-1.92,3.6-3.25,6.72-5.7,6.72A2.91,2.91,0,0,1,169.23,166.29Zm14.35-14.73a9.56,9.56,0,0,0,1-4.52,3.39,3.39,0,0,0-3.57-3.68v-.21h8.71v.21c-1.15,0-1.6.46-2.27,1.65l-3.64,6.86Z"/><path class="cls-3" d="M198.59,143c-2.06.25-2.76,2-2.76,8.82,0,6.59.7,8.76,2.76,9V161a8.92,8.92,0,0,1-8.71-9.18,8.78,8.78,0,0,1,8.71-9Zm10.09,8.82A8.93,8.93,0,0,1,200,161v-.21c2.07-.21,2.73-2.42,2.73-9,0-6.86-.7-8.61-2.73-8.82v-.21A8.73,8.73,0,0,1,208.68,151.83Z"/><path class="cls-3" d="M211,160.45c2.1,0,2.63-.91,2.63-1.79V146.23c0-1.26-.6-1.85-2.59-1.85v-.21a21.3,21.3,0,0,0,8.36-1.37v15.86c0,.88.53,1.79,2.63,1.79v.21H211Zm12.32,0c2.07,0,2.59-.91,2.59-1.79V147.74c0-2-1-3-2.76-3a3.74,3.74,0,0,0-2.66,1.09v-.21a7.14,7.14,0,0,1,5.81-2.84c3.15,0,5.39,1.47,5.39,4.94v10.92c0,.88.52,1.79,2.62,1.79v.21h-11Z"/><path class="cls-3" d="M236.18,151.83a8.67,8.67,0,0,1,8.58-9V143c-2.07.25-2.63,2-2.63,8.69,0,5,2.24,7.8,5.36,7.8a7.66,7.66,0,0,0,5.11-1.85v.21c-1.82,2.31-5.15,3.15-7.42,3.15A8.88,8.88,0,0,1,236.18,151.83Zm7.88-1.46c3.08,0,4.37-1,4.37-3.93,0-1.68-.7-3.22-2.27-3.43v-.21c4.62,0,6.86,3.29,6.86,5.95a10,10,0,0,1-.18,1.83h-8.78Z"/><path class="cls-3" d="M31.47,190.83a8.67,8.67,0,0,1,8.58-9V182c-2.07.25-2.63,2-2.63,8.69,0,5,2.24,7.8,5.36,7.8a7.66,7.66,0,0,0,5.11-1.85v.21c-1.82,2.31-5.15,3.15-7.42,3.15A8.88,8.88,0,0,1,31.47,190.83Zm7.88-1.46c3.08,0,4.37-1,4.37-3.93,0-1.68-.7-3.22-2.27-3.43v-.21c4.62,0,6.86,3.29,6.86,5.95a10,10,0,0,1-.18,1.83H39.35Z"/><path class="cls-3" d="M50.37,175.29a21.49,21.49,0,0,0,8.36-1.36v23.73c0,.88.53,1.79,2.63,1.79v.21h-11v-.21c2.11,0,2.63-.91,2.63-1.79v-20.3c0-1.26-.6-1.86-2.59-1.86Z"/><path class="cls-3" d="M69.55,195.49a1.8,1.8,0,0,0-2,1.75c0,1,.7,2.31,3.11,2.56V200c-4.65-.18-7.21-1.44-7.21-3.47a2.73,2.73,0,0,1,3-2.59A3.57,3.57,0,0,1,69.55,195.49ZM70.7,182c-1.29.25-2.55.91-2.51,2.35.1,4.06,11.44,4.72,11.44,10.29,0,3.4-2.87,5.18-7.38,5.36v-.21c1.47-.25,3.11-.77,3.11-2.59,0-3.64-11.48-5-11.48-10.29,0-3.09,2.9-4.94,6.82-5.12Zm8.27,3.4c0,1.09-.84,2.17-2.59,2.17a3,3,0,0,1-3-1.68A1.57,1.57,0,0,0,75,184.25c0-1.05-1.33-2.06-2.73-2.24v-.21C76.2,182,79,183.45,79,185.41Z"/><path class="cls-3" d="M82.57,190.83a8.67,8.67,0,0,1,8.57-9V182c-2.06.25-2.62,2-2.62,8.69,0,5,2.24,7.8,5.35,7.8A7.66,7.66,0,0,0,99,196.65v.21c-1.82,2.31-5.15,3.15-7.42,3.15A8.87,8.87,0,0,1,82.57,190.83Zm7.87-1.46c3.09,0,4.38-1,4.38-3.93,0-1.68-.7-3.22-2.28-3.43v-.21c4.63,0,6.87,3.29,6.87,5.95a10,10,0,0,1-.18,1.83H90.44Z"/></g></svg>