<svg id="Layer_1" data-name="Layer 1" xmlns="http://www.w3.org/2000/svg" xmlns:xlink="http://www.w3.org/1999/xlink" viewBox="0 0 320 600"><defs><style>.cls-1{fill:none;}.cls-2{clip-path:url(#clip-path);}.cls-3{fill:#263845;}</style><clipPath id="clip-path"><rect class="cls-1" y="0.48" width="320" height="600"/></clipPath></defs><title>Artboard 1 copy 4</title><g class="cls-2"><path class="cls-3" d="M43,121.45v.21H31.79v-.21c2.1,0,2.62-.84,2.62-1.79V99.81c0-1-.52-1.75-2.62-1.75v-.21h8.57v21.81C40.36,120.61,40.89,121.45,43,121.45Zm13.65-2.28c-.56,1.93-2.62,2.84-5.18,2.84-4.55,0-5.6-3.15-5.81-6.09s-.49-5.12-3.57-5.57v-.21c3.22,0,4.66-2.8,4.66-6.3,0-3.92-1.44-5.78-4.66-5.78v-.21c7.11,0,10.61,1.58,10.61,6,0,3.78-2.8,6.09-8,6.41,6.37.28,7.35,2.76,7.7,5.67s1.12,4.83,2.31,4.83c.63,0,1.19-.53,1.75-1.58Z"/><path class="cls-3" d="M57.41,112.83a8.67,8.67,0,0,1,8.57-9V104c-2.06.25-2.62,2-2.62,8.69,0,5,2.24,7.8,5.35,7.8a7.62,7.62,0,0,0,5.11-1.85v.21C72,121.17,68.68,122,66.4,122A8.87,8.87,0,0,1,57.41,112.83Zm7.87-1.46c3.08,0,4.38-1,4.38-3.93,0-1.68-.7-3.22-2.28-3.43v-.21c4.62,0,6.86,3.29,6.86,6a10.92,10.92,0,0,1-.17,1.83H65.28Z"/><path class="cls-3" d="M76.76,117.53c0-3,2.8-4.76,6.72-4.76h3.78V113H86.21a3.46,3.46,0,0,0-3.71,3.81c0,1.93.56,3.4,2.21,3.4A3.83,3.83,0,0,0,87.26,119v.21A7.44,7.44,0,0,1,81.7,122C78.72,122,76.73,120.33,76.76,117.53Zm1.4-9.91c0-1.79,1.61-3.61,6.37-3.82V104a2.56,2.56,0,0,0-2.24,2.56c0,1.26.88,2,2.28,2.14a4,4,0,0,1-3.36,1.67A2.8,2.8,0,0,1,78.16,107.62Zm10.15,10.43V107.34c0-1.72-.66-3.08-2.38-3.33v-.21c5.81.21,8.12,2.42,8.12,7v8.51c0,1,.35,1.44,1,1.44s1.12-.53,1.68-1.58h.21c-.56,1.93-2.45,2.84-4.55,2.84C89.57,122,88.31,121,88.31,118.05Z"/><path class="cls-3" d="M97.83,97.29a21.58,21.58,0,0,0,8.37-1.36v23.73c0,.88.52,1.79,2.62,1.79v.21h-11v-.21c2.11,0,2.63-.91,2.63-1.79V99.36c0-1.26-.59-1.86-2.59-1.86Z"/><path class="cls-3" d="M38.68,145.43,43.27,155l-3,5.67h-.21l-8.13-16.07A1.88,1.88,0,0,0,30,143.36v-.21h9.8v.21C38.58,143.36,38.09,144.2,38.68,145.43Zm11.52,0L54.78,155l-3,5.67h-.21l-5.49-10.89L45,151.87l-.21-.31a5.27,5.27,0,0,0,.28-3.89l-1.58-3.08a1.89,1.89,0,0,0-1.92-1.23v-.21h9.8v.21C50.09,143.36,49.6,144.2,50.2,145.43Zm12.18-2.28v.21c-1.16,0-1.65.46-2.28,1.65l-3.64,6.86-.21-.31a9.56,9.56,0,0,0,1-4.52,3.38,3.38,0,0,0-3.57-3.68v-.21Z"/><path class="cls-3" d="M71.37,143c-2.06.25-2.76,2-2.76,8.82,0,6.59.7,8.76,2.76,9V161a8.92,8.92,0,0,1-8.71-9.18,8.78,8.78,0,0,1,8.71-9Zm10.08,8.82A8.92,8.92,0,0,1,72.77,161v-.21c2.07-.21,2.73-2.42,2.73-9,0-6.86-.7-8.61-2.73-8.82v-.21A8.72,8.72,0,0,1,81.45,151.83Z"/><path class="cls-3" d="M92.16,158.66c0,.88.53,1.79,2.63,1.79v.21h-11v-.21c2.1,0,2.62-.91,2.62-1.79V146.23c0-1.26-.59-1.85-2.59-1.85v-.21a21.36,21.36,0,0,0,8.37-1.37Zm9.45-12.08a3.75,3.75,0,0,1-3.6,4,2.37,2.37,0,0,1-2-.78,2.53,2.53,0,0,0,1.37-2.38,1.85,1.85,0,0,0-2-1.88,2.39,2.39,0,0,0-2.1,1.33v-.29a4.84,4.84,0,0,1,4.55-3.78A3.55,3.55,0,0,1,101.61,146.58Z"/><path class="cls-3" d="M102.9,136.29a21.51,21.51,0,0,0,8.37-1.36v23.73c0,.88.53,1.79,2.63,1.79v.21h-11v-.21c2.1,0,2.63-.91,2.63-1.79v-20.3c0-1.26-.6-1.86-2.6-1.86Z"/><path class="cls-3" d="M128.42,145.6v.28a3.87,3.87,0,0,0-2.91-1.29c-1.75,0-3.43.8-3.43,7.14s1.79,7.46,3.43,7.46a4.77,4.77,0,0,0,2.91-1.23v.21a6.49,6.49,0,0,1-5.08,2.84c-3.32,0-7.21-2-7.21-9.28,0-7,3.82-8.93,7.21-8.93A6.46,6.46,0,0,1,128.42,145.6Zm6.83,12.71c0,1,.31,1.44.94,1.44s1.12-.53,1.68-1.58h.21c-.56,1.93-2.45,2.84-4.55,2.84-2.8,0-4.06-1-4.06-4V138.36c0-1.26-.59-1.86-2.59-1.86v-.21a23.06,23.06,0,0,0,8.37-1.36Z"/><path class="cls-3" d="M160.27,160.45v.21H149v-.21c2.1,0,2.63-.84,2.63-1.79V138.81c0-1-.53-1.75-2.63-1.75v-.21h8.58v21.81C157.61,159.61,158.13,160.45,160.27,160.45Zm13.65-2.28c-.56,1.93-2.62,2.84-5.18,2.84-4.55,0-5.6-3.15-5.81-6.09s-.49-5.12-3.57-5.57v-.21c3.22,0,4.66-2.8,4.66-6.3,0-3.92-1.44-5.78-4.66-5.78v-.21c7.11,0,10.61,1.58,10.61,6,0,3.78-2.8,6.09-8,6.41,6.37.28,7.35,2.76,7.7,5.67s1.12,4.83,2.31,4.83c.63,0,1.19-.53,1.75-1.58Z"/><path class="cls-3" d="M174.48,138.88c-.63-1.36-1.44-1.82-3.15-1.82v-.21H184v.21c-1.61,0-3,1.05-2.17,2.87l6.62,13.94L185.23,161h-.39Zm15.26,11.77c2-4.69,2.49-7.57,2.49-9.77a3.83,3.83,0,0,0-4-3.82v-.21h10.08V137c-1.61,0-2.59,1.51-3.71,3.89L189.85,151Z"/><path class="cls-3" d="M31.19,183.13a21.54,21.54,0,0,0,8.37-1.36v15.89c0,.88.52,1.79,2.62,1.79v.21h-11v-.21c2.09,0,2.62-.91,2.62-1.79V185.2c0-1.26-.59-1.86-2.59-1.86ZM33,176.55c0-1.82,1.47-3,3.57-3s3.57,1.22,3.57,3-1.47,3.08-3.57,3.08S33,178.41,33,176.55Z"/><path class="cls-3" d="M43.65,199.45c2.1,0,2.62-.91,2.62-1.79V185.23c0-1.26-.59-1.85-2.59-1.85v-.21a21.32,21.32,0,0,0,8.37-1.37v15.86c0,.88.53,1.79,2.63,1.79v.21h-11Zm12.32,0c2.07,0,2.59-.91,2.59-1.79V186.74c0-2-1-3-2.76-3a3.74,3.74,0,0,0-2.66,1.09v-.21A7.14,7.14,0,0,1,59,181.8c3.15,0,5.39,1.47,5.39,4.94v10.92c0,.88.52,1.79,2.62,1.79v.21H56Z"/><path class="cls-3" d="M74.94,195.49a1.8,1.8,0,0,0-2,1.75c0,1,.7,2.31,3.12,2.56V200c-4.66-.18-7.21-1.44-7.21-3.47a2.73,2.73,0,0,1,3-2.59A3.57,3.57,0,0,1,74.94,195.49ZM76.1,182c-1.3.25-2.56.91-2.52,2.35.1,4.06,11.44,4.72,11.44,10.29,0,3.4-2.87,5.18-7.38,5.36v-.21c1.47-.25,3.11-.77,3.11-2.59,0-3.64-11.48-5-11.48-10.29,0-3.09,2.9-4.94,6.83-5.12Zm8.26,3.4c0,1.09-.84,2.17-2.59,2.17a3,3,0,0,1-3-1.68,1.57,1.57,0,0,0,1.58-1.65c0-1.05-1.33-2.06-2.73-2.24v-.21C81.59,182,84.36,183.45,84.36,185.41Z"/><path class="cls-3" d="M95.34,195.07c0,2,.67,3,2.42,3a3.09,3.09,0,0,0,2.42-1.09v.21A5.85,5.85,0,0,1,94.75,200c-3.15,0-5.18-1.47-5.18-4.94v-9.84c0-1.26-.6-1.85-2.59-1.85v-.21a21.27,21.27,0,0,0,8.36-1.37ZM107,197.31c0,1,.32,1.44,1,1.44s1.12-.53,1.68-1.58h.21c-.56,1.93-2.45,2.84-4.76,2.84s-3.85-1.4-3.85-3.43V185.23c0-1.26-.6-1.85-2.49-1.85v-.21A22.65,22.65,0,0,0,107,181.8Z"/><path class="cls-3" d="M119.63,197.66c0,.88.53,1.79,2.63,1.79v.21h-11v-.21c2.1,0,2.63-.91,2.63-1.79V185.23c0-1.26-.6-1.85-2.59-1.85v-.21a21.3,21.3,0,0,0,8.36-1.37Zm9.46-12.08a3.75,3.75,0,0,1-3.61,4,2.35,2.35,0,0,1-2-.78,2.54,2.54,0,0,0,1.36-2.38,1.85,1.85,0,0,0-2-1.88,2.4,2.4,0,0,0-2.1,1.33v-.29a4.85,4.85,0,0,1,4.55-3.78A3.55,3.55,0,0,1,129.09,185.58Z"/><path class="cls-3" d="M130.59,195.53c0-3.05,2.8-4.76,6.72-4.76h3.78V191H140a3.46,3.46,0,0,0-3.71,3.81c0,1.93.56,3.4,2.21,3.4a3.86,3.86,0,0,0,2.55-1.23v.21a7.44,7.44,0,0,1-5.57,2.84C132.55,200,130.55,198.33,130.59,195.53Zm1.4-9.91c0-1.79,1.61-3.61,6.37-3.82V182a2.56,2.56,0,0,0-2.24,2.56c0,1.26.88,2,2.28,2.14a4,4,0,0,1-3.37,1.67A2.8,2.8,0,0,1,132,185.62Zm10.15,10.43V185.34c0-1.72-.66-3.08-2.38-3.33v-.21c5.81.21,8.12,2.42,8.12,7v8.51c0,1,.35,1.44,1,1.44s1.12-.53,1.68-1.58h.21c-.56,1.93-2.45,2.84-4.55,2.84C143.4,200,142.14,199,142.14,196.05Z"/><path class="cls-3" d="M151.83,199.45c2.1,0,2.63-.91,2.63-1.79V185.23c0-1.26-.6-1.85-2.59-1.85v-.21a21.3,21.3,0,0,0,8.36-1.37v15.86c0,.88.53,1.79,2.63,1.79v.21h-11Zm12.33,0c2.06,0,2.59-.91,2.59-1.79V186.74c0-2-1-3-2.77-3a3.74,3.74,0,0,0-2.66,1.09v-.21a7.14,7.14,0,0,1,5.81-2.84c3.15,0,5.39,1.47,5.39,4.94v10.92c0,.88.53,1.79,2.63,1.79v.21h-11Z"/><path class="cls-3" d="M186,182c-2.07.25-3,2-3,8.69,0,5,2.56,7.8,5.67,7.8a7.64,7.64,0,0,0,5.11-1.85v.21c-1.82,2.31-5.14,3.15-7.42,3.15a9.16,9.16,0,0,1-9.35-9.18,9,9,0,0,1,9-9Zm7.77,3.75a3.26,3.26,0,0,1-3.51,3.36,3,3,0,0,1-3-2.2,3,3,0,0,0,1.68-2.56,2.07,2.07,0,0,0-1.51-2.31v-.25C192,181.8,193.77,183.76,193.77,185.76Z"/><path class="cls-3" d="M196.39,190.83a8.67,8.67,0,0,1,8.57-9V182c-2.06.25-2.62,2-2.62,8.69,0,5,2.24,7.8,5.35,7.8a7.66,7.66,0,0,0,5.12-1.85v.21c-1.82,2.31-5.15,3.15-7.43,3.15A8.87,8.87,0,0,1,196.39,190.83Zm7.87-1.46c3.08,0,4.38-1,4.38-3.93,0-1.68-.7-3.22-2.28-3.43v-.21c4.63,0,6.87,3.29,6.87,5.95a10,10,0,0,1-.18,1.83h-8.79Z"/></g></svg>