<?xml version="1.0" encoding="utf-8"?>
<!-- Generator: Adobe Illustrator 24.0.3, SVG Export Plug-In . SVG Version: 6.00 Build 0)  -->
<svg version="1.1" id="Layer_1" xmlns="http://www.w3.org/2000/svg" xmlns:xlink="http://www.w3.org/1999/xlink" x="0px" y="0px"
	 viewBox="0 0 320 600" style="enable-background:new 0 0 320 600;" xml:space="preserve">
<style type="text/css">
	.st0{clip-path:url(#SVGID_2_);}
	.st1{enable-background:new    ;}
	.st2{fill:#FFFFFF;}
</style>
<title>Artboard 1 copy 2</title>
<g>
	<defs>
		<rect id="SVGID_1_" x="0.9" y="0.5" width="320" height="600"/>
	</defs>
	<clipPath id="SVGID_2_">
		<use xlink:href="#SVGID_1_"  style="overflow:visible;"/>
	</clipPath>
	<g class="st0">
		<g class="st1">
			<path class="st2" d="M49.6,77.8l0.2,0.3c-2.1,3.4-5.9,5-9.9,5c-6.7,0-15-4.8-15-14.3c0-10.4,8.1-14.2,14-14.4v0.2
				c-2.9,0.6-6,3.3-6,13.9c0,10.5,4.2,13,8.9,13C45.5,81.4,48.2,79.5,49.6,77.8z M50,54.3v10h-0.3C48,58.8,45,55.7,41,54.6v-0.2
				c3.6,0.2,5.7,0.8,7.4,1.9l1.2-1.9H50z"/>
			<path class="st2" d="M62.4,80.3c0,1,0.6,2.1,3.1,2.1v0.2H52.5v-0.2c2.5,0,3.1-1.1,3.1-2.1V56.5c0-1.5-0.7-2.2-3-2.2v-0.2
				c3.8,0,6.9-0.4,9.8-1.6V80.3z M76.7,67.5v12.8c0,1,0.6,2.1,3.1,2.1v0.2H66.9v-0.2c2.4,0,3-1.1,3-2.1V67.5c0-2.3-1.2-3.5-3.2-3.5
				c-1.1,0-2.1,0.4-3.1,1.3V65c1.1-1.7,3.8-3.3,6.8-3.3C74.1,61.7,76.7,63.4,76.7,67.5z"/>
			<path class="st2" d="M92.3,62c-2.4,0.3-3.2,2.3-3.2,10.3c0,7.7,0.8,10.3,3.2,10.5v0.2c-4.7,0-10.2-3.9-10.2-10.8
				s5.4-10.6,10.2-10.6V62z M104.1,72.3c0,6.9-5.5,10.8-10.2,10.8v-0.2c2.4-0.2,3.2-2.8,3.2-10.5c0-8-0.8-10.1-3.2-10.3v-0.2
				C98.7,61.7,104.1,65.4,104.1,72.3z"/>
			<path class="st2" d="M117.8,62c-2.4,0.3-3.2,2.3-3.2,10.3c0,7.7,0.8,10.3,3.2,10.5v0.2c-4.7,0-10.2-3.9-10.2-10.8
				s5.4-10.6,10.2-10.6V62z M129.6,72.3c0,6.9-5.5,10.8-10.2,10.8v-0.2c2.4-0.2,3.2-2.8,3.2-10.5c0-8-0.8-10.1-3.2-10.3v-0.2
				C124.2,61.7,129.6,65.4,129.6,72.3z"/>
			<path class="st2" d="M140.2,77.8c-1.4,0-2.3,0.8-2.3,2.1c0,1.2,0.8,2.7,3.7,3v0.2c-5.5-0.2-8.5-1.7-8.5-4.1c0-1.9,1.6-3,3.5-3
				C138.2,76,139.6,76.7,140.2,77.8z M141.5,62c-1.5,0.3-3,1.1-3,2.8c0.1,4.8,13.4,5.5,13.4,12.1c0,4-3.4,6.1-8.7,6.3v-0.2
				c1.7-0.3,3.7-0.9,3.7-3c0-4.3-13.5-5.8-13.5-12.1c0-3.6,3.4-5.8,8-6V62z M151.2,65.9c0,1.3-1,2.5-3,2.5c-1.7,0-3-0.7-3.5-2
				c1.2-0.1,1.9-0.9,1.8-1.9c0-1.2-1.6-2.4-3.2-2.6v-0.2C148,62,151.2,63.6,151.2,65.9z"/>
			<path class="st2" d="M155.4,72.3c0-6.9,5.3-10.6,10.1-10.6V62c-2.4,0.3-3.1,2.3-3.1,10.2c0,5.9,2.6,9.2,6.3,9.2
				c2.3,0,4.1-0.7,6-2.2v0.2c-2.1,2.7-6,3.7-8.7,3.7C160.7,83.1,155.4,79.2,155.4,72.3z M164.7,70.6c3.6,0,5.1-1.1,5.1-4.6
				c0-2-0.8-3.8-2.7-4v-0.2c5.4,0,8,3.9,8,7c0,0.7-0.1,1.5-0.2,2.1h-10.3V70.6z"/>
		</g>
		<g class="st1">
			<path class="st2" d="M35.1,123.9v0.2c-3.2-0.1-5.8-0.7-8-2l-1.4,2h-0.3v-10h0.3C27.1,118.8,30.1,122.2,35.1,123.9z M47.2,115.7
				c0,5.3-3.9,8.2-10.3,8.4v-0.2c2.3-0.4,4.5-1.7,4.5-4.2c0-7.2-15.7-7.8-15.7-16.2c0-4.9,4-7.8,9.4-8.1v0.2
				c-1.9,0.3-3.6,1.5-3.6,3.8C31.5,106.6,47.2,107.4,47.2,115.7z M36.9,95.6v-0.2c3.1,0.1,5.5,0.8,7.4,2.2l1.5-2.2h0.3v9.2h-0.3
				C44.4,100.2,40.9,96.6,36.9,95.6z"/>
		</g>
		<g class="st1">
			<path class="st2" d="M65.9,120.6v0.2c-1.3,1.9-3.9,3.3-7,3.3c-3.7,0-6.3-1.7-6.3-5.8v-13.5h-2.1l0.5-0.6h1.7v-4.4
				c2.5,0,5-0.8,6.7-2.3v6.7h5.5l-0.5,0.6h-5.1v13.6c0,2.1,0.8,4.2,2.7,4.2C63.1,122.7,64.5,121.9,65.9,120.6z"/>
			<path class="st2" d="M67.2,118.9c0-3.6,3.3-5.6,7.9-5.6h4.4v0.2h-1.2c-3,0-4.4,1.9-4.4,4.5c0,2.3,0.7,4,2.6,4
				c1.1,0,2.1-0.6,3-1.4v0.2c-1.4,1.6-3.5,3.3-6.5,3.3C69.5,124.1,67.2,122.2,67.2,118.9z M68.9,107.3c0-2.1,1.9-4.2,7.5-4.5v0.2
				c-1.6,0.2-2.6,1.6-2.6,3c0,1.5,1,2.4,2.7,2.5c-0.6,1.1-2.3,2-3.9,2C70.2,110.5,68.9,109,68.9,107.3z M80.8,119.5v-12.6
				c0-2-0.8-3.6-2.8-3.9v-0.2c6.8,0.2,9.5,2.8,9.5,8.2v10c0,1.2,0.4,1.7,1.1,1.7c0.6,0,1.3-0.6,2-1.8h0.2c-0.7,2.3-2.9,3.3-5.3,3.3
				C82.2,124.1,80.8,123,80.8,119.5z"/>
		</g>
		<g class="st1">
			<path class="st2" d="M102,121.4c0,1,0.6,2.1,3.1,2.1v0.2H92.1v-0.2c2.5,0,3.1-1.1,3.1-2.1v-14.6c0-1.5-0.7-2.2-3-2.2v-0.2
				c3.8,0,6.9-0.4,9.8-1.6V121.4z M113.1,107.2c0,2.8-2,4.7-4.2,4.7c-1,0-1.8-0.2-2.3-0.9c0.8-0.4,1.6-1.3,1.6-2.8
				c0-1.2-0.9-2.2-2.3-2.2c-1.1,0-1.9,0.6-2.5,1.6v-0.3c0.8-2.6,2.8-4.4,5.3-4.4C111.5,102.8,113.1,104.7,113.1,107.2z"/>
		</g>
		<g class="st1">
			<path class="st2" d="M49.6,159.9l0.2,0.3c-2.1,3.4-5.9,5-9.9,5c-6.7,0-15-4.8-15-14.3c0-10.4,8.1-14.2,14-14.4v0.2
				c-2.9,0.6-6,3.3-6,13.9c0,10.5,4.2,13,8.9,13C45.5,163.5,48.2,161.7,49.6,159.9z M50,136.4v10h-0.3c-1.6-5.5-4.6-8.6-8.7-9.7
				v-0.2c3.6,0.2,5.7,0.8,7.4,1.9l1.2-1.9H50z"/>
			<path class="st2" d="M53.1,159.9c0-3.6,3.3-5.6,7.9-5.6h4.4v0.2h-1.2c-3,0-4.4,1.9-4.4,4.5c0,2.3,0.7,4,2.6,4
				c1.1,0,2.1-0.6,3-1.4v0.2c-1.4,1.6-3.5,3.3-6.5,3.3C55.4,165.2,53,163.2,53.1,159.9z M54.7,148.3c0-2.1,1.9-4.2,7.5-4.5v0.2
				c-1.6,0.2-2.6,1.6-2.6,3c0,1.5,1,2.4,2.7,2.5c-0.6,1.1-2.3,2-3.9,2C56,151.6,54.7,150,54.7,148.3z M66.6,160.6V148
				c0-2-0.8-3.6-2.8-3.9v-0.2c6.8,0.2,9.5,2.8,9.5,8.2v10c0,1.2,0.4,1.7,1.1,1.7c0.6,0,1.3-0.6,2-1.8h0.2c-0.7,2.3-2.9,3.3-5.3,3.3
				C68.1,165.2,66.6,164,66.6,160.6z"/>
			<path class="st2" d="M87.9,162.4c0,1,0.6,2.1,3.1,2.1v0.2H78v-0.2c2.5,0,3.1-1.1,3.1-2.1v-14.6c0-1.5-0.7-2.2-3-2.2v-0.2
				c3.8,0,6.9-0.4,9.8-1.6V162.4z M101.5,149.6v12.8c0,1,0.6,2.1,3,2.1v0.2H91.6v-0.2c2.4,0,3.1-1.1,3.1-2.1v-12.8
				c0-2.3-0.9-3.5-2.9-3.5c-1.1,0-2.2,0.6-2.7,1.2v-0.2c0.9-1.7,3-3.3,6-3.3C99,143.8,101.5,145.6,101.5,149.6z M115.1,149.6v12.8
				c0,1,0.6,2.1,3.1,2.1v0.2h-12.9v-0.2c2.4,0,3.1-1.1,3.1-2.1v-12.8c0-2.3-0.9-3.5-2.9-3.5c-1.1,0-2.2,0.6-2.7,1.2v-0.2
				c0.9-1.7,3-3.3,6-3.3C112.6,143.8,115.1,145.6,115.1,149.6z"/>
			<path class="st2" d="M129.1,171c0,1.5,0.7,2.2,3,2.2v0.2c-3.8,0-6.4,0.4-9.8,1.6v-27.2c0-1.5-0.7-2.2-3-2.2v-0.2
				c3.8,0,6.4-0.4,9.8-1.6V171z M144.8,154.3c0,8.6-4.5,10.9-8.4,10.9c-2.3,0-5-1.6-6-3.3v-0.2c1,0.8,2.1,1.4,3.4,1.4
				c1.9,0,4-1.4,4-8.7c0-7.4-1.9-8.4-4-8.4c-1.3,0-2.5,0.5-3.4,1.5v-0.3c1-1.7,3.7-3.3,6-3.3C140.3,143.8,144.8,146.1,144.8,154.3z"
				/>
			<path class="st2" d="M148.4,154.4c0-6.9,5.3-10.6,10.1-10.6v0.2c-2.4,0.3-3.1,2.3-3.1,10.2c0,5.9,2.6,9.2,6.3,9.2
				c2.3,0,4.1-0.7,6-2.2v0.2c-2.1,2.7-6,3.7-8.7,3.7C153.7,165.2,148.4,161.3,148.4,154.4z M157.6,152.7c3.6,0,5.1-1.1,5.1-4.6
				c0-2-0.8-3.8-2.7-4v-0.2c5.4,0,8,3.9,8,7c0,0.7-0.1,1.5-0.2,2.1h-10.3V152.7z"/>
			<path class="st2" d="M180.6,162.4c0,1,0.6,2.1,3.1,2.1v0.2h-12.9v-0.2c2.5,0,3.1-1.1,3.1-2.1v-14.6c0-1.5-0.7-2.2-3-2.2v-0.2
				c3.8,0,6.9-0.4,9.8-1.6V162.4z M191.7,148.3c0,2.8-2,4.7-4.2,4.7c-1,0-1.8-0.2-2.3-0.9c0.8-0.4,1.6-1.3,1.6-2.8
				c0-1.2-0.9-2.2-2.3-2.2c-1.1,0-1.9,0.6-2.5,1.6v-0.3c0.8-2.6,2.8-4.4,5.3-4.4C190.1,143.8,191.7,145.8,191.7,148.3z"/>
			<path class="st2" d="M219.2,159.9l0.2,0.3c-2.1,3.4-5.9,5-9.9,5c-6.7,0-15-4.8-15-14.3c0-10.4,8.1-14.2,14-14.4v0.2
				c-2.9,0.6-6,3.3-6,13.9c0,10.5,4.2,13,8.9,13C215.1,163.5,217.7,161.7,219.2,159.9z M219.5,136.4v10h-0.3
				c-1.6-5.5-4.6-8.6-8.7-9.7v-0.2c3.6,0.2,5.7,0.8,7.4,1.9l1.2-1.9H219.5z"/>
			<path class="st2" d="M222.6,159.9c0-3.6,3.3-5.6,7.9-5.6h4.4v0.2h-1.2c-3,0-4.4,1.9-4.4,4.5c0,2.3,0.7,4,2.6,4
				c1.2,0,2.1-0.6,3-1.4v0.2c-1.4,1.6-3.5,3.3-6.5,3.3C224.9,165.2,222.6,163.2,222.6,159.9z M224.3,148.3c0-2.1,1.9-4.2,7.5-4.5
				v0.2c-1.6,0.2-2.6,1.6-2.6,3c0,1.5,1,2.4,2.7,2.5c-0.6,1.1-2.3,2-3.9,2C225.6,151.6,224.3,150,224.3,148.3z M236.2,160.6V148
				c0-2-0.8-3.6-2.8-3.9v-0.2c6.8,0.2,9.5,2.8,9.5,8.2v10c0,1.2,0.4,1.7,1.1,1.7c0.6,0,1.3-0.6,2-1.8h0.2c-0.7,2.3-2.9,3.3-5.3,3.3
				C237.7,165.2,236.2,164,236.2,160.6z"/>
		</g>
		<g class="st1">
			<path class="st2" d="M257.4,162.4c0,1,0.6,2.1,3.1,2.1v0.2h-12.9v-0.2c2.5,0,3.1-1.1,3.1-2.1v-14.6c0-1.5-0.7-2.2-3-2.2v-0.2
				c3.8,0,6.9-0.4,9.8-1.6V162.4z M268.5,148.3c0,2.8-2,4.7-4.2,4.7c-1,0-1.8-0.2-2.3-0.9c0.8-0.4,1.6-1.3,1.6-2.8
				c0-1.2-0.9-2.2-2.3-2.2c-1.1,0-1.9,0.6-2.5,1.6v-0.3c0.8-2.6,2.8-4.4,5.3-4.4C266.9,143.8,268.5,145.8,268.5,148.3z"/>
		</g>
		<g class="st1">
			<path class="st2" d="M270.7,154.4c0-6.9,5.3-10.6,10.1-10.6v0.2c-2.4,0.3-3.1,2.3-3.1,10.2c0,5.9,2.6,9.2,6.3,9.2
				c2.3,0,4.1-0.7,6-2.2v0.2c-2.1,2.7-6,3.7-8.7,3.7C276,165.2,270.7,161.3,270.7,154.4z M279.9,152.7c3.6,0,5.1-1.1,5.1-4.6
				c0-2-0.8-3.8-2.7-4v-0.2c5.4,0,8,3.9,8,7c0,0.7-0.1,1.5-0.2,2.1h-10.3V152.7z"/>
		</g>
	</g>
</g>
</svg>
