<svg id="Layer_1" data-name="Layer 1" xmlns="http://www.w3.org/2000/svg" xmlns:xlink="http://www.w3.org/1999/xlink" viewBox="0 0 320 600"><defs><style>.cls-1{fill:none;}.cls-2{clip-path:url(#clip-path);}.cls-3{fill:#fff;}</style><clipPath id="clip-path"><rect class="cls-1" x="0.89" y="0.48" width="320" height="600"/></clipPath></defs><title>Artboard 1 copy 2</title><g class="cls-2"><path class="cls-3" d="M52.79,156.49l.14.28A9.61,9.61,0,0,1,44.49,161c-5.7,0-12.81-4.06-12.81-12.22,0-8.86,6.93-12.15,12-12.29v.21c-2.45.53-5.11,2.84-5.11,11.83s3.61,11.07,7.56,11.07A8.58,8.58,0,0,0,52.79,156.49Zm.28-20V145h-.28c-1.37-4.66-4-7.35-7.39-8.3v-.21c3.05.14,4.9.67,6.34,1.61l1-1.61Z"/><path class="cls-3" d="M63.64,158.66c0,.88.52,1.79,2.62,1.79v.21h-11v-.21c2.11,0,2.63-.91,2.63-1.79v-20.3c0-1.26-.6-1.86-2.59-1.86v-.21a21.58,21.58,0,0,0,8.37-1.36Zm12.25-10.92v10.92c0,.88.52,1.79,2.62,1.79v.21h-11v-.21c2.07,0,2.59-.91,2.59-1.79V147.74c0-2-1-3-2.76-3a3.74,3.74,0,0,0-2.66,1.09v-.21a7.14,7.14,0,0,1,5.81-2.84C73.65,142.8,75.89,144.27,75.89,147.74Z"/><path class="cls-3" d="M89.12,143c-2.07.25-2.77,2-2.77,8.82,0,6.59.7,8.76,2.77,9V161a8.92,8.92,0,0,1-8.72-9.18,8.78,8.78,0,0,1,8.72-9Zm10.08,8.82A8.93,8.93,0,0,1,90.52,161v-.21c2.06-.21,2.73-2.42,2.73-9,0-6.86-.7-8.61-2.73-8.82v-.21A8.72,8.72,0,0,1,99.2,151.83Z"/><path class="cls-3" d="M110.85,143c-2.06.25-2.76,2-2.76,8.82,0,6.59.7,8.76,2.76,9V161a8.92,8.92,0,0,1-8.72-9.18,8.79,8.79,0,0,1,8.72-9Zm10.08,8.82a8.92,8.92,0,0,1-8.68,9.18v-.21c2.07-.21,2.73-2.42,2.73-9,0-6.86-.7-8.61-2.73-8.82v-.21A8.72,8.72,0,0,1,120.93,151.83Z"/><path class="cls-3" d="M130,156.49a1.79,1.79,0,0,0-2,1.75c0,1,.7,2.31,3.11,2.56V161c-4.65-.18-7.21-1.44-7.21-3.47a2.73,2.73,0,0,1,3-2.59A3.58,3.58,0,0,1,130,156.49ZM131.11,143c-1.29.25-2.55.91-2.52,2.35.11,4.06,11.45,4.72,11.45,10.29,0,3.4-2.87,5.18-7.39,5.36v-.21c1.47-.25,3.12-.77,3.12-2.59,0-3.64-11.48-5-11.48-10.29,0-3.09,2.9-4.94,6.82-5.12Zm8.27,3.4c0,1.09-.84,2.17-2.59,2.17a3,3,0,0,1-3-1.68,1.57,1.57,0,0,0,1.58-1.65c0-1.05-1.34-2.06-2.74-2.24v-.21C136.61,143,139.38,144.45,139.38,146.41Z"/><path class="cls-3" d="M143,151.83a8.67,8.67,0,0,1,8.57-9V143c-2.06.25-2.62,2-2.62,8.69,0,5,2.24,7.8,5.35,7.8a7.62,7.62,0,0,0,5.11-1.85v.21c-1.82,2.31-5.14,3.15-7.42,3.15A8.87,8.87,0,0,1,143,151.83Zm7.87-1.46c3.08,0,4.38-1,4.38-3.93,0-1.68-.7-3.22-2.28-3.43v-.21c4.62,0,6.86,3.29,6.86,5.95a10.92,10.92,0,0,1-.17,1.83h-8.79Z"/><path class="cls-3" d="M180.5,160.8V161a13.24,13.24,0,0,1-6.79-1.72L172.55,161h-.28v-8.54h.28A11.76,11.76,0,0,0,180.5,160.8Zm10.29-7c0,4.52-3.36,7-8.79,7.18v-.21c1.93-.35,3.82-1.47,3.82-3.57,0-6.13-13.37-6.69-13.37-13.8,0-4.2,3.39-6.61,8.05-6.93v.21a3.31,3.31,0,0,0-3.08,3.22C177.42,146.06,190.79,146.72,190.79,153.83ZM182,136.71v-.21a11.28,11.28,0,0,1,6.3,1.86l1.26-1.86h.29v7.81h-.29A11.14,11.14,0,0,0,182,136.71Z"/><path class="cls-3" d="M206.75,158v.21a7.33,7.33,0,0,1-6,2.84c-3.15,0-5.39-1.44-5.39-4.94V144.59h-1.82l.39-.53h1.43v-3.78a8.8,8.8,0,0,0,5.74-2v5.74h4.73l-.39.53h-4.34v11.59c0,1.75.67,3.57,2.31,3.57A5.17,5.17,0,0,0,206.75,158Z"/><path class="cls-3" d="M207.87,156.53c0-3.05,2.8-4.76,6.72-4.76h3.78V152h-1.05a3.46,3.46,0,0,0-3.71,3.81c0,1.93.56,3.4,2.2,3.4a3.86,3.86,0,0,0,2.56-1.23v.21A7.46,7.46,0,0,1,212.8,161C209.83,161,207.83,159.33,207.87,156.53Zm1.4-9.91c0-1.79,1.61-3.61,6.37-3.82V143a2.56,2.56,0,0,0-2.24,2.56c0,1.26.87,2,2.27,2.14a3.94,3.94,0,0,1-3.36,1.67A2.8,2.8,0,0,1,209.27,146.62Zm10.15,10.43V146.34c0-1.72-.67-3.08-2.38-3.33v-.21c5.81.21,8.12,2.42,8.12,7v8.51c0,1,.35,1.44,1,1.44s1.12-.53,1.68-1.58H228c-.56,1.93-2.45,2.84-4.55,2.84C220.68,161,219.42,160,219.42,157.05Z"/><path class="cls-3" d="M237.51,158.66c0,.88.53,1.79,2.63,1.79v.21h-11v-.21c2.1,0,2.63-.91,2.63-1.79V146.23c0-1.26-.6-1.85-2.59-1.85v-.21a21.3,21.3,0,0,0,8.36-1.37ZM247,146.58a3.75,3.75,0,0,1-3.6,4,2.37,2.37,0,0,1-2-.78,2.53,2.53,0,0,0,1.37-2.38,1.85,1.85,0,0,0-2-1.88,2.39,2.39,0,0,0-2.1,1.33v-.29a4.84,4.84,0,0,1,4.55-3.78A3.55,3.55,0,0,1,247,146.58Z"/><path class="cls-3" d="M52.79,195.49l.14.28A9.61,9.61,0,0,1,44.49,200c-5.7,0-12.81-4.06-12.81-12.22,0-8.86,6.93-12.15,12-12.29v.21c-2.45.53-5.11,2.84-5.11,11.83s3.61,11.07,7.56,11.07A8.58,8.58,0,0,0,52.79,195.49Zm.28-20V184h-.28c-1.37-4.66-4-7.35-7.39-8.3v-.21c3.05.14,4.9.67,6.34,1.61l1-1.61Z"/><path class="cls-3" d="M55.72,195.53c0-3.05,2.8-4.76,6.73-4.76h3.78V191h-1a3.46,3.46,0,0,0-3.71,3.81c0,1.93.56,3.4,2.2,3.4A3.86,3.86,0,0,0,66.23,197v.21A7.46,7.46,0,0,1,60.66,200C57.68,200,55.69,198.33,55.72,195.53Zm1.41-9.91c0-1.79,1.6-3.61,6.37-3.82V182a2.56,2.56,0,0,0-2.24,2.56c0,1.26.87,2,2.27,2.14a3.94,3.94,0,0,1-3.36,1.67A2.8,2.8,0,0,1,57.13,185.62Zm10.15,10.43V185.34c0-1.72-.67-3.08-2.38-3.33v-.21c5.81.21,8.12,2.42,8.12,7v8.51c0,1,.35,1.44,1,1.44s1.12-.53,1.68-1.58h.21c-.56,1.93-2.45,2.84-4.55,2.84C68.54,200,67.28,199,67.28,196.05Z"/><path class="cls-3" d="M85.37,197.66c0,.88.53,1.79,2.63,1.79v.21H77v-.21c2.1,0,2.63-.91,2.63-1.79V185.23c0-1.26-.6-1.85-2.6-1.85v-.21a21.32,21.32,0,0,0,8.37-1.37ZM97,186.74v10.92c0,.88.49,1.79,2.59,1.79v.21h-11v-.21c2.07,0,2.63-.91,2.63-1.79V186.74c0-2-.77-3-2.45-3a3.07,3.07,0,0,0-2.31,1.05v-.21a5.65,5.65,0,0,1,5.11-2.8C94.89,181.8,97,183.27,97,186.74Zm11.59,0v10.92c0,.88.52,1.79,2.62,1.79v.21h-11v-.21c2.06,0,2.62-.91,2.62-1.79V186.74c0-2-.77-3-2.45-3A3.08,3.08,0,0,0,98,184.81v-.21a5.67,5.67,0,0,1,5.11-2.8C106.48,181.8,108.58,183.27,108.58,186.74Z"/><path class="cls-3" d="M120.55,205c0,1.26.59,1.85,2.59,1.85V207a22.85,22.85,0,0,0-8.37,1.37V185.2c0-1.26-.6-1.86-2.59-1.86v-.21a23.13,23.13,0,0,0,8.37-1.36Zm13.33-14.25c0,7.32-3.85,9.28-7.17,9.28a6.55,6.55,0,0,1-5.11-2.84V197a4.87,4.87,0,0,0,2.94,1.23c1.64,0,3.39-1.16,3.39-7.46s-1.64-7.14-3.39-7.14a3.93,3.93,0,0,0-2.94,1.29v-.28a6.51,6.51,0,0,1,5.11-2.8C130.1,181.8,133.88,183.76,133.88,190.73Z"/><path class="cls-3" d="M137,190.83a8.67,8.67,0,0,1,8.57-9V182c-2.06.25-2.62,2-2.62,8.69,0,5,2.24,7.8,5.35,7.8a7.66,7.66,0,0,0,5.12-1.85v.21c-1.82,2.31-5.15,3.15-7.42,3.15A8.87,8.87,0,0,1,137,190.83Zm7.88-1.46c3.08,0,4.37-1,4.37-3.93,0-1.68-.7-3.22-2.28-3.43v-.21c4.63,0,6.87,3.29,6.87,5.95a10,10,0,0,1-.18,1.83h-8.78Z"/><path class="cls-3" d="M164.43,197.66c0,.88.53,1.79,2.63,1.79v.21H156v-.21c2.1,0,2.63-.91,2.63-1.79V185.23c0-1.26-.6-1.85-2.59-1.85v-.21a21.3,21.3,0,0,0,8.36-1.37Zm9.46-12.08a3.75,3.75,0,0,1-3.61,4,2.37,2.37,0,0,1-2-.78,2.53,2.53,0,0,0,1.37-2.38,1.85,1.85,0,0,0-2-1.88,2.39,2.39,0,0,0-2.1,1.33v-.29a4.84,4.84,0,0,1,4.55-3.78A3.56,3.56,0,0,1,173.89,185.58Z"/><path class="cls-3" d="M197.3,195.49l.14.28A9.61,9.61,0,0,1,189,200c-5.7,0-12.81-4.06-12.81-12.22,0-8.86,6.93-12.15,12-12.29v.21c-2.45.53-5.11,2.84-5.11,11.83s3.61,11.07,7.56,11.07A8.56,8.56,0,0,0,197.3,195.49Zm.28-20V184h-.28c-1.37-4.66-4-7.35-7.39-8.3v-.21c3.05.14,4.9.67,6.34,1.61l1.05-1.61Z"/><path class="cls-3" d="M200.24,195.53c0-3.05,2.8-4.76,6.72-4.76h3.78V191h-1.05a3.46,3.46,0,0,0-3.71,3.81c0,1.93.56,3.4,2.2,3.4a3.86,3.86,0,0,0,2.56-1.23v.21a7.46,7.46,0,0,1-5.57,2.84C202.2,200,200.2,198.33,200.24,195.53Zm1.4-9.91c0-1.79,1.61-3.61,6.37-3.82V182a2.56,2.56,0,0,0-2.24,2.56c0,1.26.87,2,2.27,2.14a3.94,3.94,0,0,1-3.36,1.67A2.8,2.8,0,0,1,201.64,185.62Zm10.15,10.43V185.34c0-1.72-.67-3.08-2.38-3.33v-.21c5.81.21,8.12,2.42,8.12,7v8.51c0,1,.35,1.44,1,1.44s1.12-.53,1.68-1.58h.21c-.56,1.93-2.45,2.84-4.55,2.84C213.05,200,211.79,199,211.79,196.05Z"/><path class="cls-3" d="M229.88,197.66c0,.88.53,1.79,2.63,1.79v.21h-11v-.21c2.1,0,2.63-.91,2.63-1.79V185.23c0-1.26-.6-1.85-2.59-1.85v-.21a21.3,21.3,0,0,0,8.36-1.37Zm9.45-12.08a3.75,3.75,0,0,1-3.6,4,2.37,2.37,0,0,1-2-.78,2.53,2.53,0,0,0,1.37-2.38,1.85,1.85,0,0,0-2-1.88,2.39,2.39,0,0,0-2.1,1.33v-.29a4.84,4.84,0,0,1,4.55-3.78A3.55,3.55,0,0,1,239.33,185.58Z"/><path class="cls-3" d="M241.22,190.83a8.67,8.67,0,0,1,8.58-9V182c-2.07.25-2.63,2-2.63,8.69,0,5,2.24,7.8,5.36,7.8a7.66,7.66,0,0,0,5.11-1.85v.21c-1.82,2.31-5.15,3.15-7.42,3.15A8.88,8.88,0,0,1,241.22,190.83Zm7.88-1.46c3.08,0,4.37-1,4.37-3.93,0-1.68-.7-3.22-2.27-3.43v-.21c4.62,0,6.86,3.29,6.86,5.95a10,10,0,0,1-.18,1.83H249.1Z"/></g></svg>