<svg id="Layer_1" data-name="Layer 1" xmlns="http://www.w3.org/2000/svg" viewBox="0 0 320 600"><defs><style>.cls-1{fill:#fb0010;}.cls-2{fill:#fff;}.cls-3{fill:none;}</style></defs><title>Artboard 1 copy</title><path class="cls-1" d="M22.49,237.4V286a17.34,17.34,0,0,0,9.35,15.39l72.89,37.82a21.65,21.65,0,0,0,20,0l72.89-37.82A17.32,17.32,0,0,0,206.93,286V237.4a8.1,8.1,0,0,0-8.09-8.1H30.58A8.1,8.1,0,0,0,22.49,237.4Z"/><path class="cls-2" d="M96.56,264l.33-.48c.24-.33.49-.34.87-.13a3.72,3.72,0,0,0,2.16.78c1,0,1.59-.5,1.59-1.22,0-2-5-1.61-5-4.92,0-1.88,1.56-3.1,3.59-3.1a5,5,0,0,1,2.75.81.6.6,0,0,1,.19.86l-.27.5c-.22.43-.54.37-.86.21a3.42,3.42,0,0,0-1.84-.59c-1,0-1.62.48-1.62,1.2,0,2,5,1.49,5,4.88,0,1.73-1.29,3.15-3.53,3.15a5.58,5.58,0,0,1-3.27-1.08A.56.56,0,0,1,96.56,264Z"/><path class="cls-2" d="M107.74,256.79h-2.87a.55.55,0,0,1-.63-.61v-.43a.57.57,0,0,1,.63-.63h7.66a.56.56,0,0,1,.61.63v.43a.54.54,0,0,1-.61.61h-2.87v8.36a.56.56,0,0,1-.63.63h-.67a.55.55,0,0,1-.62-.63Z"/><path class="cls-2" d="M115.68,255.63a.68.68,0,0,1,.7-.51h1a.68.68,0,0,1,.71.51l3.33,9.43c.15.44,0,.72-.51.72h-.69a.67.67,0,0,1-.71-.51l-.75-2.22H115l-.74,2.21a.66.66,0,0,1-.71.52h-.69c-.46,0-.66-.28-.51-.72Zm2.56,5.84-.94-2.85c-.18-.6-.42-1.65-.42-1.65h0s-.24,1-.42,1.65l-1,2.85Z"/><path class="cls-2" d="M122.73,255.75a.56.56,0,0,1,.61-.63h2.88a4.8,4.8,0,0,1,2,.29,3,3,0,0,1,1.79,2.91,3.08,3.08,0,0,1-1.77,2.91v0a4.65,4.65,0,0,1,.34.56l1.76,3.21c.25.44.06.75-.44.75h-.81a.75.75,0,0,1-.73-.43l-1.88-3.55h-1.86v3.35a.55.55,0,0,1-.62.63h-.69a.55.55,0,0,1-.61-.63Zm3.66,4.37a1.56,1.56,0,0,0,1.68-1.69,1.44,1.44,0,0,0-.84-1.46,2.7,2.7,0,0,0-1.16-.18h-1.42v3.33Z"/><path class="cls-2" d="M97.26,268.78c0-.25.12-.38.36-.38h.32a.34.34,0,0,1,.36.38v9.8a.33.33,0,0,1-.36.37h-.32a.33.33,0,0,1-.36-.37Z"/><path class="cls-2" d="M100.8,271.78a.34.34,0,0,1,.37-.38h.27a.34.34,0,0,1,.36.38v.87a2.48,2.48,0,0,1-.06.54h0a3.35,3.35,0,0,1,3-2c1.87,0,2.53,1.07,2.53,2.93v4.43a.33.33,0,0,1-.37.37h-.29a.33.33,0,0,1-.36-.37v-4.16c0-1.19-.19-2.24-1.65-2.24a2.93,2.93,0,0,0-2.86,3.08v3.32a.33.33,0,0,1-.36.37h-.29a.33.33,0,0,1-.37-.37Z"/><path class="cls-2" d="M109,277.75l.12-.15c.13-.18.3-.19.51-.06a3.23,3.23,0,0,0,2,.69c.84,0,1.53-.42,1.53-1.21,0-1.7-4-1.19-4-3.68,0-1.4,1.18-2.12,2.56-2.12a3.43,3.43,0,0,1,2.07.62.32.32,0,0,1,.11.49l-.11.17c-.12.21-.3.22-.51.1a2.84,2.84,0,0,0-1.62-.48c-.79,0-1.48.35-1.48,1.17,0,1.74,4,1.19,4,3.71a2.27,2.27,0,0,1-2.55,2.13,3.9,3.9,0,0,1-2.55-.87A.33.33,0,0,1,109,277.75Z"/><path class="cls-2" d="M115.65,271.78a.33.33,0,0,1,.36-.38h.29a.35.35,0,0,1,.38.38v4.16c0,1.18.18,2.23,1.63,2.23A2.92,2.92,0,0,0,121.1,275v-3.24a.35.35,0,0,1,.38-.38h.28a.33.33,0,0,1,.36.38v6.8a.33.33,0,0,1-.36.37h-.27a.33.33,0,0,1-.36-.37v-.87a3,3,0,0,1,.05-.54h0a3.29,3.29,0,0,1-3,2c-1.79,0-2.53-1-2.53-2.92Z"/><path class="cls-2" d="M124.34,271.78a.34.34,0,0,1,.37-.38H125a.34.34,0,0,1,.36.38v1a3.08,3.08,0,0,1-.06.6h0a2.69,2.69,0,0,1,2.43-2c.27,0,.39.12.39.36V272c0,.24-.16.37-.42.37-1.59,0-2.35,1.82-2.35,3.39v2.83a.33.33,0,0,1-.36.37h-.29a.33.33,0,0,1-.37-.37Z"/><path class="cls-2" d="M133.33,274.33h.44v-.24a1.69,1.69,0,0,0-1.87-1.95,3.56,3.56,0,0,0-1.83.52.35.35,0,0,1-.51-.12l-.09-.15a.34.34,0,0,1,.11-.51,4.6,4.6,0,0,1,2.4-.66,2.57,2.57,0,0,1,2.81,2.9v4.46a.33.33,0,0,1-.36.37h-.24a.34.34,0,0,1-.38-.37V278a2.83,2.83,0,0,1,.05-.57h0a2.83,2.83,0,0,1-2.56,1.72,2.32,2.32,0,0,1-2.55-2.2C128.72,274.46,131.87,274.33,133.33,274.33Zm-1.88,3.95c1.46,0,2.32-1.5,2.32-2.83v-.36h-.42c-1.19,0-3.58.05-3.58,1.75A1.52,1.52,0,0,0,131.45,278.28Z"/><path class="cls-2" d="M136.93,271.78a.34.34,0,0,1,.37-.38h.27a.34.34,0,0,1,.36.38v.87a2.48,2.48,0,0,1-.06.54h0a3.35,3.35,0,0,1,3-2c1.88,0,2.54,1.07,2.54,2.93v4.43a.34.34,0,0,1-.38.37h-.28a.33.33,0,0,1-.36-.37v-4.16c0-1.19-.2-2.24-1.65-2.24a2.93,2.93,0,0,0-2.87,3.08v3.32a.33.33,0,0,1-.36.37h-.29a.33.33,0,0,1-.37-.37Z"/><path class="cls-2" d="M149.13,271.22a3.93,3.93,0,0,1,2.51.86.32.32,0,0,1,.05.51l-.11.16c-.13.21-.3.21-.51.08a3.09,3.09,0,0,0-1.91-.69,3,3,0,0,0,0,6.08,3.3,3.3,0,0,0,2.13-.8.3.3,0,0,1,.5.09l.1.15a.36.36,0,0,1-.09.51,4.17,4.17,0,0,1-2.69,1,4,4,0,1,1,0-7.91Z"/><path class="cls-2" d="M156.57,271.22c2,0,3.15,1.46,3.15,3.6a.38.38,0,0,1-.39.38H153.9a2.87,2.87,0,0,0,2.92,3,3.21,3.21,0,0,0,2-.69c.22-.14.38-.11.5.09l.12.18a.34.34,0,0,1-.1.49,4.34,4.34,0,0,1-2.53.84,3.81,3.81,0,0,1-3.94-3.95A3.69,3.69,0,0,1,156.57,271.22Zm2.11,3.21a2.17,2.17,0,0,0-2.14-2.37,2.6,2.6,0,0,0-2.6,2.37Z"/><path class="cls-2" d="M101.88,282.3a6,6,0,0,1,3.49,1.06.59.59,0,0,1,.12.87l-.27.44c-.21.35-.5.38-.86.15a4.4,4.4,0,0,0-2.4-.75,3.44,3.44,0,0,0-3.57,3.66,3.57,3.57,0,0,0,3.58,3.81,4.48,4.48,0,0,0,2.62-.93.54.54,0,0,1,.87.11l.3.4a.6.6,0,0,1-.09.88,6,6,0,0,1-3.77,1.32,5.51,5.51,0,0,1,0-11Z"/><path class="cls-2" d="M111.33,288.41h.31v-.18a1.24,1.24,0,0,0-1.42-1.35,3.5,3.5,0,0,0-1.59.43c-.38.17-.67.11-.85-.25l-.15-.29a.56.56,0,0,1,.24-.84,5.54,5.54,0,0,1,2.51-.63,2.85,2.85,0,0,1,3.17,3.05v4.16a.56.56,0,0,1-.63.63h-.51a.55.55,0,0,1-.62-.63v-.3a1.66,1.66,0,0,1,0-.34h0a2.79,2.79,0,0,1-2.4,1.45,2.35,2.35,0,0,1-2.54-2.3C106.85,288.78,109.62,288.41,111.33,288.41Zm-1.43,3.45a1.94,1.94,0,0,0,1.76-2v-.29h-.32c-1,0-2.59.15-2.59,1.29A1,1,0,0,0,109.9,291.86Z"/><path class="cls-2" d="M115.35,286.11a.56.56,0,0,1,.62-.63h.58a.56.56,0,0,1,.62.63v.47a2.43,2.43,0,0,1,0,.34h0a2.93,2.93,0,0,1,2.5-1.62,2.12,2.12,0,0,1,2.24,1.58h0a3,3,0,0,1,2.61-1.58c1.59,0,2.51.9,2.51,2.91v4.3a.57.57,0,0,1-.63.63h-.65a.56.56,0,0,1-.63-.63v-3.94c0-.87-.16-1.53-1.05-1.53-1.29,0-1.95,1.32-1.95,2.66v2.81a.55.55,0,0,1-.61.63h-.67a.57.57,0,0,1-.63-.63v-3.94c0-.82-.12-1.53-1-1.53-1.35,0-2,1.38-2,2.66v2.81a.55.55,0,0,1-.61.63H116a.55.55,0,0,1-.62-.63Z"/><path class="cls-2" d="M128.88,286.11a.58.58,0,0,1,.64-.63H130c.4,0,.61.23.61.53v.34c0,.17,0,.3,0,.3h0a2.74,2.74,0,0,1,2.46-1.35c2.07,0,3.41,1.64,3.41,4s-1.51,4-3.52,4a2.47,2.47,0,0,1-2.2-1.17h0a5,5,0,0,1,0,.66v2.7a.56.56,0,0,1-.63.63h-.64a.57.57,0,0,1-.64-.63Zm3.76,5.6c1.05,0,1.92-.86,1.92-2.37s-.78-2.4-1.89-2.4-1.94.72-1.94,2.41A2.11,2.11,0,0,0,132.64,291.71Z"/><path class="cls-2" d="M141.42,285.3c2.18,0,3.39,1.55,3.39,3.65a.66.66,0,0,1-.66.64h-4.67a2.2,2.2,0,0,0,2.3,2.1,3.19,3.19,0,0,0,1.65-.49c.38-.18.65-.14.84.21l.18.3a.57.57,0,0,1-.21.84,4.76,4.76,0,0,1-2.6.77,3.93,3.93,0,0,1-4.11-4A3.78,3.78,0,0,1,141.42,285.3Zm1.5,3.14a1.56,1.56,0,0,0-1.55-1.7,1.87,1.87,0,0,0-1.84,1.7Z"/><path class="cls-2" d="M146.25,286.11a.56.56,0,0,1,.61-.63h.59a.57.57,0,0,1,.63.63v.72a2.9,2.9,0,0,1-.05.53h0a2.63,2.63,0,0,1,2.22-1.94c.42,0,.58.21.58.63v.59a.59.59,0,0,1-.65.63c-1.4,0-2.07,1.38-2.07,2.77v2.47a.55.55,0,0,1-.62.63h-.66a.55.55,0,0,1-.61-.63Z"/><path class="cls-2" d="M157.19,282.3a6,6,0,0,1,3.48,1.06.58.58,0,0,1,.12.87l-.27.44c-.21.35-.49.38-.85.15a4.46,4.46,0,0,0-2.4-.75,3.44,3.44,0,0,0-3.58,3.66,3.57,3.57,0,0,0,3.59,3.81,4.45,4.45,0,0,0,2.61-.93.54.54,0,0,1,.87.11l.3.4a.59.59,0,0,1-.09.88,6,6,0,0,1-3.76,1.32,5.51,5.51,0,0,1,0-11Z"/><path class="cls-2" d="M166.63,288.41H167v-.18a1.25,1.25,0,0,0-1.43-1.35,3.54,3.54,0,0,0-1.59.43.56.56,0,0,1-.84-.25l-.15-.29a.56.56,0,0,1,.24-.84,5.54,5.54,0,0,1,2.51-.63,2.84,2.84,0,0,1,3.16,3.05v4.16a.56.56,0,0,1-.63.63h-.51a.55.55,0,0,1-.61-.63v-.3a1.66,1.66,0,0,1,0-.34h0a2.79,2.79,0,0,1-2.4,1.45,2.35,2.35,0,0,1-2.54-2.3C162.16,288.78,164.92,288.41,166.63,288.41Zm-1.42,3.45a1.94,1.94,0,0,0,1.75-2v-.29h-.31c-1,0-2.6.15-2.6,1.29A1,1,0,0,0,165.21,291.86Z"/><path class="cls-2" d="M170.66,286.11a.56.56,0,0,1,.61-.63h.59a.57.57,0,0,1,.63.63v.72a2.9,2.9,0,0,1-.05.53h0a2.63,2.63,0,0,1,2.22-1.94c.42,0,.57.21.57.63v.59a.58.58,0,0,1-.64.63c-1.4,0-2.07,1.38-2.07,2.77v2.47a.55.55,0,0,1-.62.63h-.66a.55.55,0,0,1-.61-.63Z"/><path class="cls-2" d="M179.6,285.3c2.18,0,3.4,1.55,3.4,3.65a.66.66,0,0,1-.66.64h-4.67a2.2,2.2,0,0,0,2.29,2.1,3.27,3.27,0,0,0,1.66-.49c.37-.18.64-.14.84.21l.18.3a.57.57,0,0,1-.21.84,4.82,4.82,0,0,1-2.6.77,3.92,3.92,0,0,1-4.11-4A3.77,3.77,0,0,1,179.6,285.3Zm1.5,3.14a1.55,1.55,0,0,0-1.54-1.7,1.87,1.87,0,0,0-1.85,1.7Z"/><path class="cls-2" d="M61.07,288.35a1.07,1.07,0,0,1-.49-.12,1.06,1.06,0,0,1-.52-1.27l11.11-34.2a2.34,2.34,0,0,1,2.26-1.64h0a2.34,2.34,0,0,1,2.25,1.64l2.25,6.78a.8.8,0,1,1-1.52.51l-2.26-6.79a.74.74,0,0,0-.72-.53h0a.75.75,0,0,0-.73.53L62.65,284.18l14.16-19.37a4.4,4.4,0,0,1,3.55-1.8h9.43a2.37,2.37,0,0,1,1.39,4.29l-8.62,6.27a.73.73,0,0,1-.09.08l3.34,10.24a2.38,2.38,0,0,1-3.66,2.66l-7.45-5.42a2.37,2.37,0,0,1,0-3.84L81,272.76a.39.39,0,0,1,.1-.08L90.24,266a.76.76,0,0,0-.45-1.38H80.36a2.8,2.8,0,0,0-2.25,1.14L61.92,287.91A1.06,1.06,0,0,1,61.07,288.35Zm20-13.71-5.45,3.95a.76.76,0,0,0,0,1.24l7.45,5.41a.76.76,0,0,0,1.17-.85Z"/><path class="cls-2" d="M61.64,271.35a.79.79,0,0,1-.46-.15l-5.5-3.89a2.37,2.37,0,0,1,1.38-4.3h6.75a.81.81,0,0,1,0,1.61H57.06a.76.76,0,0,0-.44,1.38l5.49,3.89A.8.8,0,0,1,62.3,271,.82.82,0,0,1,61.64,271.35Z"/><path class="cls-2" d="M69.13,299.7a2.57,2.57,0,0,1-1.29-.34l-14.05-8a.79.79,0,0,1-.41-.7V273.54a.81.81,0,1,1,1.61,0v16.68L68.63,298a1,1,0,0,0,1,0l10-6.24a.8.8,0,0,1,1.11.25.81.81,0,0,1-.25,1.11l-10,6.24A2.6,2.6,0,0,1,69.13,299.7Z"/><rect class="cls-3" width="320" height="600"/></svg>