<svg id="Layer_1" data-name="Layer 1" xmlns="http://www.w3.org/2000/svg" viewBox="0 0 320 600"><defs><style>.cls-1{fill:#fb0010;}.cls-2{fill:#fff;}.cls-3{fill:none;}</style></defs><title>Artboard 1 copy</title><path class="cls-1" d="M30,237.4V286a17.34,17.34,0,0,0,9.35,15.39l72.89,37.82a21.67,21.67,0,0,0,20,0l72.88-37.82A17.33,17.33,0,0,0,214.45,286V237.4a8.1,8.1,0,0,0-8.1-8.1H38.1A8.1,8.1,0,0,0,30,237.4Z"/><path class="cls-2" d="M104.07,264l.33-.48c.24-.33.49-.34.87-.13a3.72,3.72,0,0,0,2.16.78c1,0,1.59-.5,1.59-1.22,0-2-5-1.61-5-4.92,0-1.88,1.56-3.1,3.59-3.1a5,5,0,0,1,2.75.81.6.6,0,0,1,.19.86l-.27.5c-.22.43-.54.37-.85.21a3.46,3.46,0,0,0-1.85-.59c-1,0-1.62.48-1.62,1.2,0,2,5,1.49,5,4.88,0,1.73-1.29,3.15-3.53,3.15a5.58,5.58,0,0,1-3.27-1.08A.56.56,0,0,1,104.07,264Z"/><path class="cls-2" d="M115.25,256.79h-2.87a.55.55,0,0,1-.63-.61v-.43a.57.57,0,0,1,.63-.63H120a.56.56,0,0,1,.62.63v.43a.55.55,0,0,1-.62.61h-2.87v8.36a.56.56,0,0,1-.63.63h-.67a.55.55,0,0,1-.62-.63Z"/><path class="cls-2" d="M123.19,255.63a.68.68,0,0,1,.7-.51h1a.67.67,0,0,1,.71.51l3.33,9.43c.15.44,0,.72-.51.72h-.69a.66.66,0,0,1-.7-.51l-.75-2.22H122.5l-.74,2.21a.65.65,0,0,1-.7.52h-.69c-.47,0-.66-.28-.51-.72Zm2.57,5.84-1-2.85c-.18-.6-.42-1.65-.42-1.65h0s-.24,1-.42,1.65l-1,2.85Z"/><path class="cls-2" d="M130.24,255.75a.56.56,0,0,1,.61-.63h2.89a4.75,4.75,0,0,1,2,.29,3,3,0,0,1,1.79,2.91,3.08,3.08,0,0,1-1.77,2.91v0a4.65,4.65,0,0,1,.34.56l1.76,3.21c.25.44.06.75-.44.75h-.81a.75.75,0,0,1-.73-.43L134,261.8h-1.86v3.35a.55.55,0,0,1-.62.63h-.69a.55.55,0,0,1-.61-.63Zm3.66,4.37a1.56,1.56,0,0,0,1.68-1.69,1.43,1.43,0,0,0-.84-1.46,2.62,2.62,0,0,0-1.15-.18h-1.43v3.33Z"/><path class="cls-2" d="M104.77,268.78c0-.25.12-.38.36-.38h.32a.34.34,0,0,1,.36.38v9.8a.33.33,0,0,1-.36.37h-.32a.33.33,0,0,1-.36-.37Z"/><path class="cls-2" d="M108.31,271.78a.34.34,0,0,1,.37-.38H109a.34.34,0,0,1,.36.38v.87a2.48,2.48,0,0,1-.06.54h0a3.35,3.35,0,0,1,3-2c1.88,0,2.54,1.07,2.54,2.93v4.43a.34.34,0,0,1-.38.37h-.28a.33.33,0,0,1-.36-.37v-4.16c0-1.19-.2-2.24-1.66-2.24a2.93,2.93,0,0,0-2.86,3.08v3.32a.33.33,0,0,1-.36.37h-.29a.33.33,0,0,1-.37-.37Z"/><path class="cls-2" d="M116.49,277.75l.12-.15c.13-.18.3-.19.51-.06a3.24,3.24,0,0,0,2,.69c.84,0,1.53-.42,1.53-1.21,0-1.7-4-1.19-4-3.68,0-1.4,1.18-2.12,2.57-2.12a3.45,3.45,0,0,1,2.07.62.32.32,0,0,1,.1.49l-.1.17c-.12.21-.3.22-.51.1a2.9,2.9,0,0,0-1.62-.48c-.8,0-1.49.35-1.49,1.17,0,1.74,4,1.19,4,3.71a2.27,2.27,0,0,1-2.55,2.13,3.9,3.9,0,0,1-2.55-.87A.33.33,0,0,1,116.49,277.75Z"/><path class="cls-2" d="M123.17,271.78a.33.33,0,0,1,.36-.38h.28a.35.35,0,0,1,.38.38v4.16c0,1.18.18,2.23,1.63,2.23a2.93,2.93,0,0,0,2.8-3.15v-3.24a.34.34,0,0,1,.37-.38h.29a.33.33,0,0,1,.36.38v6.8a.33.33,0,0,1-.36.37H129a.33.33,0,0,1-.36-.37v-.87a3.66,3.66,0,0,1,0-.54h0a3.27,3.27,0,0,1-3,2c-1.79,0-2.52-1-2.52-2.92Z"/><path class="cls-2" d="M131.85,271.78a.34.34,0,0,1,.37-.38h.27a.34.34,0,0,1,.36.38v1a3.08,3.08,0,0,1-.06.6h0a2.69,2.69,0,0,1,2.44-2c.27,0,.39.12.39.36V272c0,.24-.17.37-.42.37-1.6,0-2.36,1.82-2.36,3.39v2.83a.33.33,0,0,1-.36.37h-.29a.33.33,0,0,1-.37-.37Z"/><path class="cls-2" d="M140.84,274.33h.44v-.24c0-1.46-.8-1.95-1.86-1.95a3.53,3.53,0,0,0-1.83.52.35.35,0,0,1-.51-.12l-.09-.15a.34.34,0,0,1,.1-.51,4.6,4.6,0,0,1,2.4-.66,2.57,2.57,0,0,1,2.81,2.9v4.46a.33.33,0,0,1-.36.37h-.24a.34.34,0,0,1-.38-.37V278a2.83,2.83,0,0,1,.05-.57h0a2.82,2.82,0,0,1-2.55,1.72,2.33,2.33,0,0,1-2.56-2.2C136.23,274.46,139.39,274.33,140.84,274.33ZM139,278.28c1.45,0,2.31-1.5,2.31-2.83v-.36h-.42c-1.19,0-3.57.05-3.57,1.75A1.51,1.51,0,0,0,139,278.28Z"/><path class="cls-2" d="M144.44,271.78a.35.35,0,0,1,.38-.38h.27a.34.34,0,0,1,.36.38v.87a2.48,2.48,0,0,1-.06.54h0a3.32,3.32,0,0,1,3-2c1.88,0,2.54,1.07,2.54,2.93v4.43a.34.34,0,0,1-.38.37h-.28a.33.33,0,0,1-.36-.37v-4.16c0-1.19-.2-2.24-1.65-2.24a2.93,2.93,0,0,0-2.87,3.08v3.32a.33.33,0,0,1-.36.37h-.28a.34.34,0,0,1-.38-.37Z"/><path class="cls-2" d="M156.65,271.22a3.92,3.92,0,0,1,2.5.86.32.32,0,0,1,0,.51l-.11.16c-.13.21-.3.21-.51.08a3.08,3.08,0,0,0-1.9-.69,3,3,0,0,0,0,6.08,3.3,3.3,0,0,0,2.13-.8.3.3,0,0,1,.5.09l.1.15a.36.36,0,0,1-.09.51,4.16,4.16,0,0,1-2.68,1,4,4,0,1,1,0-7.91Z"/><path class="cls-2" d="M164.08,271.22c2,0,3.15,1.46,3.15,3.6a.38.38,0,0,1-.39.38h-5.43a2.88,2.88,0,0,0,2.93,3,3.26,3.26,0,0,0,2-.69c.21-.14.37-.11.49.09l.12.18a.34.34,0,0,1-.1.49,4.33,4.33,0,0,1-2.52.84,3.81,3.81,0,0,1-3.95-3.95A3.69,3.69,0,0,1,164.08,271.22Zm2.12,3.21a2.17,2.17,0,0,0-2.15-2.37,2.6,2.6,0,0,0-2.6,2.37Z"/><path class="cls-2" d="M109.4,282.3a6,6,0,0,1,3.48,1.06.59.59,0,0,1,.12.87l-.27.44c-.21.35-.5.38-.86.15a4.4,4.4,0,0,0-2.4-.75,3.44,3.44,0,0,0-3.57,3.66,3.57,3.57,0,0,0,3.59,3.81,4.48,4.48,0,0,0,2.61-.93.54.54,0,0,1,.87.11l.3.4a.6.6,0,0,1-.09.88,6,6,0,0,1-3.77,1.32,5.51,5.51,0,0,1,0-11Z"/><path class="cls-2" d="M118.84,288.41h.31v-.18a1.24,1.24,0,0,0-1.42-1.35,3.5,3.5,0,0,0-1.59.43c-.38.17-.66.11-.84-.25l-.15-.29a.56.56,0,0,1,.24-.84,5.45,5.45,0,0,1,2.5-.63,2.84,2.84,0,0,1,3.17,3.05v4.16a.56.56,0,0,1-.63.63h-.51a.55.55,0,0,1-.62-.63v-.3a1.66,1.66,0,0,1,0-.34h0a2.79,2.79,0,0,1-2.4,1.45,2.35,2.35,0,0,1-2.53-2.3C114.37,288.78,117.13,288.41,118.84,288.41Zm-1.43,3.45a1.94,1.94,0,0,0,1.76-2v-.29h-.32c-1,0-2.59.15-2.59,1.29A1,1,0,0,0,117.41,291.86Z"/><path class="cls-2" d="M122.86,286.11a.56.56,0,0,1,.62-.63h.58a.56.56,0,0,1,.62.63v.47a2.43,2.43,0,0,1,0,.34h0a2.94,2.94,0,0,1,2.51-1.62,2.12,2.12,0,0,1,2.23,1.58h0a3,3,0,0,1,2.61-1.58c1.6,0,2.51.9,2.51,2.91v4.3a.56.56,0,0,1-.63.63h-.64a.56.56,0,0,1-.63-.63v-3.94c0-.87-.17-1.53-1.06-1.53-1.29,0-2,1.32-2,2.66v2.81a.55.55,0,0,1-.61.63h-.66a.56.56,0,0,1-.63-.63v-3.94c0-.82-.12-1.53-1-1.53-1.36,0-2,1.38-2,2.66v2.81a.55.55,0,0,1-.61.63h-.66a.55.55,0,0,1-.62-.63Z"/><path class="cls-2" d="M136.4,286.11a.57.57,0,0,1,.63-.63h.48c.4,0,.61.23.61.53v.34c0,.17,0,.3,0,.3h0a2.74,2.74,0,0,1,2.46-1.35c2.07,0,3.41,1.64,3.41,4s-1.5,4-3.52,4a2.47,2.47,0,0,1-2.2-1.17h0a5,5,0,0,1,0,.66v2.7a.56.56,0,0,1-.63.63H137a.56.56,0,0,1-.63-.63Zm3.75,5.6c1,0,1.92-.86,1.92-2.37s-.78-2.4-1.89-2.4-1.94.72-1.94,2.41A2.11,2.11,0,0,0,140.15,291.71Z"/><path class="cls-2" d="M148.93,285.3c2.18,0,3.39,1.55,3.39,3.65a.66.66,0,0,1-.66.64H147a2.2,2.2,0,0,0,2.29,2.1,3.19,3.19,0,0,0,1.65-.49c.38-.18.65-.14.84.21l.18.3a.57.57,0,0,1-.21.84,4.75,4.75,0,0,1-2.59.77,3.93,3.93,0,0,1-4.12-4A3.78,3.78,0,0,1,148.93,285.3Zm1.5,3.14a1.55,1.55,0,0,0-1.54-1.7,1.87,1.87,0,0,0-1.85,1.7Z"/><path class="cls-2" d="M153.76,286.11a.56.56,0,0,1,.61-.63H155a.57.57,0,0,1,.63.63v.72a3.6,3.6,0,0,1,0,.53h0a2.63,2.63,0,0,1,2.22-1.94c.42,0,.57.21.57.63v.59a.58.58,0,0,1-.65.63c-1.39,0-2.07,1.38-2.07,2.77v2.47a.55.55,0,0,1-.62.63h-.66a.55.55,0,0,1-.61-.63Z"/><path class="cls-2" d="M164.7,282.3a6,6,0,0,1,3.48,1.06.57.57,0,0,1,.12.87l-.27.44c-.21.35-.49.38-.85.15a4.46,4.46,0,0,0-2.4-.75,3.44,3.44,0,0,0-3.58,3.66,3.58,3.58,0,0,0,3.59,3.81,4.45,4.45,0,0,0,2.61-.93.54.54,0,0,1,.87.11l.31.4a.6.6,0,0,1-.09.88,6,6,0,0,1-3.77,1.32,5.51,5.51,0,0,1,0-11Z"/><path class="cls-2" d="M174.14,288.41h.32v-.18a1.25,1.25,0,0,0-1.43-1.35,3.54,3.54,0,0,0-1.59.43.56.56,0,0,1-.84-.25l-.15-.29a.56.56,0,0,1,.24-.84,5.54,5.54,0,0,1,2.51-.63,2.85,2.85,0,0,1,3.17,3.05v4.16a.56.56,0,0,1-.63.63h-.51a.55.55,0,0,1-.62-.63v-.3a1.66,1.66,0,0,1,0-.34h0a2.79,2.79,0,0,1-2.4,1.45,2.35,2.35,0,0,1-2.54-2.3C169.67,288.78,172.43,288.41,174.14,288.41Zm-1.42,3.45a1.94,1.94,0,0,0,1.75-2v-.29h-.31c-1,0-2.6.15-2.6,1.29A1,1,0,0,0,172.72,291.86Z"/><path class="cls-2" d="M178.17,286.11a.56.56,0,0,1,.61-.63h.59a.57.57,0,0,1,.63.63v.72a3.6,3.6,0,0,1,0,.53h0a2.63,2.63,0,0,1,2.22-1.94c.42,0,.57.21.57.63v.59a.58.58,0,0,1-.65.63c-1.39,0-2.07,1.38-2.07,2.77v2.47a.55.55,0,0,1-.62.63h-.66a.55.55,0,0,1-.61-.63Z"/><path class="cls-2" d="M187.12,285.3c2.17,0,3.39,1.55,3.39,3.65a.66.66,0,0,1-.66.64h-4.67a2.2,2.2,0,0,0,2.3,2.1,3.23,3.23,0,0,0,1.65-.49c.37-.18.64-.14.84.21l.18.3a.57.57,0,0,1-.21.84,4.82,4.82,0,0,1-2.6.77,3.92,3.92,0,0,1-4.11-4A3.78,3.78,0,0,1,187.12,285.3Zm1.5,3.14a1.56,1.56,0,0,0-1.55-1.7,1.88,1.88,0,0,0-1.85,1.7Z"/><path class="cls-2" d="M68.58,288.35a1,1,0,0,1-.48-.12,1.05,1.05,0,0,1-.53-1.27l11.11-34.2a2.35,2.35,0,0,1,2.26-1.64h0a2.35,2.35,0,0,1,2.26,1.64l2.25,6.78a.81.81,0,0,1-1.53.51l-2.25-6.79a.75.75,0,0,0-.73-.53h0a.75.75,0,0,0-.73.53l-10,30.92,14.16-19.37a4.4,4.4,0,0,1,3.55-1.8H97.3a2.37,2.37,0,0,1,1.4,4.29l-8.62,6.27-.1.08,3.34,10.24a2.38,2.38,0,0,1-3.65,2.66l-7.46-5.42a2.37,2.37,0,0,1,0-3.84l6.25-4.53.1-.08L97.75,266a.76.76,0,0,0-.45-1.38H87.87a2.8,2.8,0,0,0-2.25,1.14L69.43,287.91A1,1,0,0,1,68.58,288.35Zm20-13.71-5.45,3.95a.76.76,0,0,0,0,1.24l7.45,5.41a.73.73,0,0,0,.9,0,.74.74,0,0,0,.28-.85Z"/><path class="cls-2" d="M69.15,271.35a.79.79,0,0,1-.46-.15l-5.5-3.89a2.37,2.37,0,0,1,1.39-4.3h6.74a.81.81,0,0,1,0,1.61H64.58a.76.76,0,0,0-.45,1.38l5.49,3.89a.8.8,0,0,1-.47,1.46Z"/><path class="cls-2" d="M76.64,299.7a2.59,2.59,0,0,1-1.29-.34l-14-8a.81.81,0,0,1-.41-.7V273.54a.81.81,0,1,1,1.61,0v16.68L76.14,298a1,1,0,0,0,1,0l10-6.24a.8.8,0,0,1,.86,1.36L78,299.3A2.58,2.58,0,0,1,76.64,299.7Z"/><rect class="cls-3" width="320" height="600"/></svg>