<svg id="Layer_1" data-name="Layer 1" xmlns="http://www.w3.org/2000/svg" xmlns:xlink="http://www.w3.org/1999/xlink" viewBox="0 0 320 50"><defs><style>.cls-1{fill:none;}.cls-2{clip-path:url(#clip-path);}.cls-3{fill:#fff;}</style><clipPath id="clip-path"><rect class="cls-1" width="320" height="50"/></clipPath></defs><title>Artboard 1 copy 2</title><g class="cls-2"><path class="cls-3" d="M12.41,20.3v.1a6,6,0,0,1-3.1-.78l-.53.78H8.65V16.5h.13A5.36,5.36,0,0,0,12.41,20.3Zm4.71-3.18c0,2.06-1.54,3.18-4,3.28v-.1c.88-.16,1.75-.67,1.75-1.63,0-2.8-6.12-3.06-6.12-6.3,0-1.93,1.55-3,3.68-3.17v.09A1.52,1.52,0,0,0,11,10.76C11,13.57,17.12,13.87,17.12,17.12Zm-4-7.83V9.2A5.14,5.14,0,0,1,16,10l.58-.84h.13v3.57h-.13A5.1,5.1,0,0,0,13.1,9.29Z"/><path class="cls-3" d="M24.41,19v.09a3.32,3.32,0,0,1-2.73,1.3c-1.44,0-2.47-.66-2.47-2.26V12.89h-.83l.18-.24h.65V10.93a4.07,4.07,0,0,0,2.63-.9v2.62H24l-.18.24h-2v5.3c0,.8.3,1.63,1.05,1.63A2.32,2.32,0,0,0,24.41,19Z"/><path class="cls-3" d="M24.92,18.35c0-1.39,1.28-2.17,3.08-2.17h1.73v.09h-.49A1.58,1.58,0,0,0,27.55,18c0,.88.25,1.55,1,1.55A1.79,1.79,0,0,0,29.73,19v.09a3.41,3.41,0,0,1-2.55,1.3A2,2,0,0,1,24.92,18.35Zm.64-4.53c0-.81.74-1.65,2.92-1.74v.09a1.18,1.18,0,0,0-1,1.17c0,.58.4.93,1,1a1.78,1.78,0,0,1-1.53.77A1.29,1.29,0,0,1,25.56,13.82Zm4.65,4.77v-4.9c0-.78-.31-1.4-1.09-1.52v-.09c2.65.09,3.71,1.1,3.71,3.2v3.89c0,.46.16.65.45.65s.51-.24.77-.72h.09a2,2,0,0,1-2.08,1.3C30.78,20.4,30.21,20,30.21,18.59Z"/><path class="cls-3" d="M38.48,19.33c0,.4.24.81,1.2.81v.1h-5v-.1c1,0,1.2-.41,1.2-.81V13.65c0-.58-.28-.85-1.19-.85v-.1a9.91,9.91,0,0,0,3.83-.62Zm4.32-5.52a1.71,1.71,0,0,1-1.65,1.82,1.1,1.1,0,0,1-.91-.35,1.18,1.18,0,0,0,.62-1.09.84.84,0,0,0-.89-.86,1.12,1.12,0,0,0-1,.6v-.12a2.22,2.22,0,0,1,2.09-1.73A1.63,1.63,0,0,1,42.8,13.81Z"/><path class="cls-3" d="M47.42,20.24v-.1c1,0,1.2-.36,1.2-.81v-9c0-.44-.24-.83-1.2-.83V9.36h3.92V20.24ZM56.37,9.36v3h-.13c-.69-2-1.67-2.71-4.1-2.87V9.36Zm-4.23,5.29v-.09l.88-.08a2.45,2.45,0,0,0,2.11-1.38h.13v3h-.13A2.42,2.42,0,0,0,53,14.73Zm0,5.49c2.43-.16,3.57-.84,4.44-2.86h.12v3H52.14Z"/><path class="cls-3" d="M57.88,20.14c1,0,1.2-.41,1.2-.81V13.65c0-.58-.27-.85-1.18-.85v-.1a9.82,9.82,0,0,0,3.82-.62v7.25c0,.4.24.81,1.2.81v.1h-5Zm5.64,0c.94,0,1.18-.41,1.18-.81v-5c0-.89-.46-1.36-1.26-1.36a1.72,1.72,0,0,0-1.22.5v-.1a3.27,3.27,0,0,1,2.66-1.29c1.44,0,2.46.67,2.46,2.25v5c0,.4.24.81,1.2.81v.1h-5Z"/><path class="cls-3" d="M75.33,19v.09a3.36,3.36,0,0,1-2.74,1.3c-1.44,0-2.47-.66-2.47-2.26V12.89h-.83l.18-.24h.65V10.93a4.07,4.07,0,0,0,2.63-.9v2.62h2.16l-.18.24h-2v5.3c0,.8.3,1.63,1,1.63A2.36,2.36,0,0,0,75.33,19Z"/><path class="cls-3" d="M79.45,19.33c0,.4.24.81,1.2.81v.1h-5v-.1c1,0,1.2-.41,1.2-.81V10c0-.57-.27-.84-1.18-.84V9.1a9.82,9.82,0,0,0,3.82-.62Zm5.6-5v5c0,.4.24.81,1.2.81v.1h-5v-.1c.94,0,1.18-.41,1.18-.81v-5c0-.89-.46-1.36-1.26-1.36a1.73,1.73,0,0,0-1.22.5v-.1a3.28,3.28,0,0,1,2.66-1.29C84,12.08,85.05,12.75,85.05,14.33Z"/><path class="cls-3" d="M90.49,18.14c0,.9.31,1.36,1.11,1.36A1.4,1.4,0,0,0,92.7,19v.09a2.66,2.66,0,0,1-2.48,1.3,2.07,2.07,0,0,1-2.37-2.26V13.65c0-.58-.27-.85-1.18-.85v-.1a9.82,9.82,0,0,0,3.82-.62Zm5.33,1c0,.46.15.65.43.65s.52-.24.77-.72h.1a2.05,2.05,0,0,1-2.18,1.3,1.55,1.55,0,0,1-1.76-1.57V13.65c0-.58-.27-.85-1.14-.85v-.1a10.46,10.46,0,0,0,3.78-.62Z"/><path class="cls-3" d="M100.83,18.34a.82.82,0,0,0-.9.8c0,.46.32,1.05,1.43,1.16v.1c-2.13-.08-3.3-.66-3.3-1.58a1.25,1.25,0,0,1,1.36-1.19A1.64,1.64,0,0,1,100.83,18.34Zm.53-6.17c-.6.12-1.17.42-1.16,1.08,0,1.85,5.24,2.16,5.24,4.7,0,1.55-1.32,2.37-3.38,2.45v-.1c.67-.11,1.42-.35,1.42-1.18,0-1.66-5.25-2.27-5.25-4.71,0-1.4,1.33-2.25,3.13-2.33Zm3.77,1.56a1,1,0,0,1-1.18,1,1.38,1.38,0,0,1-1.36-.77.71.71,0,0,0,.72-.75c0-.48-.61-.95-1.25-1v-.09C103.87,12.17,105.13,12.83,105.13,13.73Z"/><path class="cls-3" d="M106.52,12.69a9.72,9.72,0,0,0,3.83-.63v7.27c0,.4.24.81,1.2.81v.1h-5v-.1c1,0,1.2-.41,1.2-.81v-5.7c0-.58-.28-.85-1.19-.85Zm.82-3A1.65,1.65,0,1,1,109,11.09,1.45,1.45,0,0,1,107.34,9.68Z"/><path class="cls-3" d="M112.35,18.35c0-1.39,1.28-2.17,3.07-2.17h1.73v.09h-.48A1.59,1.59,0,0,0,115,18c0,.88.26,1.55,1,1.55a1.75,1.75,0,0,0,1.17-.56v.09a3.41,3.41,0,0,1-2.55,1.3A2,2,0,0,1,112.35,18.35Zm.64-4.53c0-.81.73-1.65,2.91-1.74v.09a1.18,1.18,0,0,0-1,1.17c0,.58.41.93,1,1a1.8,1.8,0,0,1-1.54.77A1.29,1.29,0,0,1,113,13.82Zm4.64,4.77v-4.9c0-.78-.31-1.4-1.09-1.52v-.09c2.66.09,3.71,1.1,3.71,3.2v3.89c0,.46.16.65.45.65s.51-.24.77-.72h.1a2,2,0,0,1-2.08,1.3C118.2,20.4,117.63,20,117.63,18.59Z"/><path class="cls-3" d="M125.13,18.34a.82.82,0,0,0-.9.8c0,.46.32,1.05,1.43,1.16v.1c-2.13-.08-3.3-.66-3.3-1.58a1.25,1.25,0,0,1,1.36-1.19A1.64,1.64,0,0,1,125.13,18.34Zm.53-6.17c-.59.12-1.17.42-1.15,1.08,0,1.85,5.23,2.16,5.23,4.7,0,1.55-1.31,2.37-3.38,2.45v-.1c.68-.11,1.43-.35,1.43-1.18,0-1.66-5.25-2.27-5.25-4.71,0-1.4,1.33-2.25,3.12-2.33Zm3.78,1.56a1.05,1.05,0,0,1-1.19,1,1.38,1.38,0,0,1-1.36-.77.71.71,0,0,0,.72-.75c0-.48-.61-.95-1.25-1v-.09C128.17,12.17,129.44,12.83,129.44,13.73Z"/><path class="cls-3" d="M137,19v.09a3.32,3.32,0,0,1-2.73,1.3c-1.44,0-2.47-.66-2.47-2.26V12.89H131l.18-.24h.65V10.93a4.07,4.07,0,0,0,2.63-.9v2.62h2.16l-.18.24h-2v5.3c0,.8.3,1.63,1,1.63A2.32,2.32,0,0,0,137,19Z"/><path class="cls-3" d="M8.35,38.14c1,0,1.2-.38,1.2-.81V28.27c0-.43-.24-.82-1.2-.82v-.09h5.12v.09c-1,0-1.2.39-1.2.82v9.06c0,.43.24.81,1.2.81v.1H8.35Z"/><path class="cls-3" d="M14.54,38.14c1,0,1.2-.41,1.2-.81V31.65c0-.58-.27-.85-1.18-.85v-.1a9.89,9.89,0,0,0,3.82-.62v7.25c0,.4.24.81,1.2.81v.1h-5Zm5.63,0c.95,0,1.19-.41,1.19-.81v-5A1.19,1.19,0,0,0,20.09,31a1.71,1.71,0,0,0-1.21.5v-.1a3.26,3.26,0,0,1,2.65-1.29c1.44,0,2.47.67,2.47,2.25v5c0,.4.24.81,1.2.81v.1h-5Z"/><path class="cls-3" d="M28.84,36.34a.81.81,0,0,0-.89.8c0,.46.32,1,1.42,1.16v.1c-2.13-.08-3.29-.66-3.29-1.58a1.25,1.25,0,0,1,1.36-1.19A1.62,1.62,0,0,1,28.84,36.34Zm.53-6.17c-.59.12-1.17.42-1.15,1.08.05,1.85,5.23,2.16,5.23,4.7,0,1.55-1.31,2.37-3.37,2.45v-.1c.67-.11,1.42-.35,1.42-1.18,0-1.66-5.25-2.27-5.25-4.71,0-1.4,1.33-2.25,3.12-2.33Zm3.78,1.56a1,1,0,0,1-1.18,1A1.36,1.36,0,0,1,30.61,32a.71.71,0,0,0,.72-.75c0-.48-.61-.95-1.25-1v-.09C31.89,30.17,33.15,30.83,33.15,31.73Z"/><path class="cls-3" d="M38.17,36.14c0,.9.31,1.36,1.11,1.36a1.4,1.4,0,0,0,1.1-.49v.09a2.66,2.66,0,0,1-2.48,1.3,2.07,2.07,0,0,1-2.37-2.26V31.65c0-.58-.27-.85-1.18-.85v-.1a9.82,9.82,0,0,0,3.82-.62Zm5.33,1c0,.46.15.65.43.65s.52-.24.77-.72h.1a2.05,2.05,0,0,1-2.18,1.3,1.55,1.55,0,0,1-1.76-1.57V31.65c0-.58-.27-.85-1.13-.85v-.1a10.44,10.44,0,0,0,3.77-.62Z"/><path class="cls-3" d="M49.28,37.33c0,.4.24.81,1.2.81v.1h-5v-.1c1,0,1.21-.41,1.21-.81V31.65c0-.58-.28-.85-1.19-.85v-.1a9.91,9.91,0,0,0,3.83-.62Zm4.32-5.52A1.71,1.71,0,0,1,52,33.63a1.1,1.1,0,0,1-.91-.35,1.18,1.18,0,0,0,.62-1.09.84.84,0,0,0-.89-.86,1.12,1.12,0,0,0-1,.6v-.12a2.22,2.22,0,0,1,2.09-1.73A1.63,1.63,0,0,1,53.6,31.81Z"/><path class="cls-3" d="M54.28,36.35c0-1.39,1.28-2.17,3.08-2.17h1.72v.09H58.6A1.58,1.58,0,0,0,56.91,36c0,.88.25,1.55,1,1.55A1.75,1.75,0,0,0,59.08,37v.09a3.37,3.37,0,0,1-2.54,1.3A2,2,0,0,1,54.28,36.35Zm.64-4.53c0-.81.74-1.65,2.92-1.74v.09a1.18,1.18,0,0,0-1,1.17c0,.58.4.93,1,1a1.78,1.78,0,0,1-1.53.77A1.29,1.29,0,0,1,54.92,31.82Zm4.65,4.77v-4.9c0-.78-.31-1.4-1.09-1.52v-.09c2.65.09,3.71,1.1,3.71,3.2v3.89c0,.46.16.65.45.65s.51-.24.77-.72h.09a2,2,0,0,1-2.08,1.3C60.14,38.4,59.57,38,59.57,36.59Z"/><path class="cls-3" d="M64,38.14c1,0,1.21-.41,1.21-.81V31.65c0-.58-.28-.85-1.19-.85v-.1a9.91,9.91,0,0,0,3.83-.62v7.25c0,.4.24.81,1.2.81v.1H64Zm5.64,0c.94,0,1.18-.41,1.18-.81v-5c0-.89-.46-1.36-1.26-1.36a1.73,1.73,0,0,0-1.22.5v-.1A3.28,3.28,0,0,1,71,30.08c1.44,0,2.46.67,2.46,2.25v5c0,.4.24.81,1.21.81v.1h-5Z"/><path class="cls-3" d="M79.61,30.17c-.94.12-1.36.92-1.36,4,0,2.31,1.17,3.57,2.6,3.57a3.43,3.43,0,0,0,2.33-.85V37a4.47,4.47,0,0,1-3.39,1.44,4.18,4.18,0,0,1-4.27-4.19,4.09,4.09,0,0,1,4.09-4.13Zm3.56,1.72a1.49,1.49,0,0,1-1.6,1.53,1.37,1.37,0,0,1-1.4-1,1.37,1.37,0,0,0,.77-1.16,1,1,0,0,0-.69-1.06v-.11C82.35,30.08,83.17,31,83.17,31.89Z"/><path class="cls-3" d="M84.36,34.21a4,4,0,0,1,3.92-4.13v.09c-.94.12-1.2.92-1.2,4,0,2.31,1,3.57,2.45,3.57a3.44,3.44,0,0,0,2.34-.85V37a4.47,4.47,0,0,1-3.39,1.44A4.06,4.06,0,0,1,84.36,34.21Zm3.6-.68c1.41,0,2-.44,2-1.79,0-.77-.33-1.47-1-1.57v-.09a2.89,2.89,0,0,1,3.14,2.72,4.58,4.58,0,0,1-.08.83H88Z"/></g></svg>