<?xml version="1.0" encoding="utf-8"?>
<!-- Generator: Adobe Illustrator 24.0.3, SVG Export Plug-In . SVG Version: 6.00 Build 0)  -->
<svg version="1.1" id="Layer_1" xmlns="http://www.w3.org/2000/svg" xmlns:xlink="http://www.w3.org/1999/xlink" x="0px" y="0px"
	 viewBox="0 0 320 50" style="enable-background:new 0 0 320 50;" xml:space="preserve">
<style type="text/css">
	.st0{clip-path:url(#SVGID_2_);}
	.st1{enable-background:new    ;}
	.st2{fill:#FFFFFF;}
</style>
<title>Artboard 1 copy 3</title>
<g>
	<g>
		<defs>
			<rect id="SVGID_1_" y="0" width="320" height="50"/>
		</defs>
		<clipPath id="SVGID_2_">
			<use xlink:href="#SVGID_1_"  style="overflow:visible;"/>
		</clipPath>
		<g class="st0">
			<g class="st1">
				<path class="st2" d="M14.7,7.6v0.1c-1.4,0.2-2.3,1.5-2.3,6.5c0,4.9,1,6.5,2.3,6.7v0.1c-2.7-0.2-6.1-2.2-6.1-6.7
					C8.6,9.9,12.1,7.7,14.7,7.6z M15.6,7.7V7.6c2,0.1,3.1,0.4,3.9,0.9l0.6-0.9h0.2v4.6h-0.2C19.6,10,17.9,8.1,15.6,7.7z M22.1,15.3
					v0.1c-0.9,0-1.4,0.3-1.4,1.1v4.4h-0.2l-0.7-1.1c-1,0.7-2.3,1.1-4.2,1.1v-0.1c1.3-0.1,2-0.8,2-2.3v-2c0-0.8-0.3-1.1-1.4-1.1v-0.1
					H22.1z"/>
				<path class="st2" d="M23.2,15.9c0-3.2,2.4-4.9,4.7-4.9v0.1c-1.1,0.1-1.4,1.1-1.4,4.7c0,2.8,1.2,4.3,2.9,4.3c1.1,0,1.9-0.3,2.8-1
					v0.1c-1,1.3-2.8,1.7-4.1,1.7C25.7,20.9,23.2,19.1,23.2,15.9z M27.5,15.1c1.7,0,2.4-0.5,2.4-2.1c0-0.9-0.4-1.8-1.2-1.9V11
					c2.5,0,3.7,1.8,3.7,3.2c0,0.3,0,0.7-0.1,1h-4.8V15.1z"/>
				<path class="st2" d="M41.1,19.3v0.1c-0.6,0.9-1.8,1.5-3.3,1.5c-1.7,0-2.9-0.8-2.9-2.7V12h-1l0.2-0.3h0.8V9.6
					c1.2,0,2.3-0.4,3.1-1.1v3.1h2.6L40.4,12H38v6.3c0,1,0.4,1.9,1.3,1.9C39.8,20.3,40.4,19.9,41.1,19.3z"/>
				<path class="st2" d="M46.5,18.5c0-1.7,1.5-2.6,3.7-2.6h2.1V16h-0.6c-1.4,0-2,0.9-2,2.1c0,1.1,0.3,1.9,1.2,1.9
					c0.5,0,1-0.3,1.4-0.7v0.1c-0.6,0.7-1.6,1.5-3,1.5C47.6,20.9,46.5,20,46.5,18.5z M47.3,13.1c0-1,0.9-2,3.5-2.1v0.1
					c-0.8,0.1-1.2,0.7-1.2,1.4c0,0.7,0.5,1.1,1.2,1.2c-0.3,0.5-1.1,0.9-1.8,0.9C47.9,14.6,47.3,13.9,47.3,13.1z M52.8,18.8v-5.8
					c0-0.9-0.4-1.7-1.3-1.8V11c3.2,0.1,4.4,1.3,4.4,3.8v4.6c0,0.6,0.2,0.8,0.5,0.8c0.3,0,0.6-0.3,0.9-0.9h0.1
					c-0.3,1.1-1.3,1.5-2.5,1.5C53.5,20.9,52.8,20.4,52.8,18.8z"/>
				<path class="st2" d="M70.1,12.5v0.2c-0.4-0.5-1-0.7-1.6-0.7c-1,0-1.9,0.4-1.9,3.9c0,3.4,1,4.1,1.9,4.1c0.6,0,1.1-0.3,1.6-0.7
					v0.1c-0.5,0.8-1.7,1.5-2.8,1.5c-1.8,0-3.9-1.1-3.9-5.1c0-3.8,2.1-4.9,3.9-4.9C68.4,11,69.6,11.7,70.1,12.5z M73.8,23.7
					c0,0.7,0.3,1,1.4,1v0.1c-1.8,0-3,0.2-4.6,0.7V11.7c1-0.1,2.3-0.4,3.2-0.7V23.7z"/>
				<path class="st2" d="M80.2,18.2c0,1.1,0.4,1.6,1.3,1.6c0.5,0,0.9-0.2,1.3-0.6v0.1c-0.4,0.8-1.4,1.5-3,1.5
					c-1.7,0-2.8-0.8-2.8-2.7v-5.4c0-0.7-0.3-1-1.4-1v-0.1c1.8,0,3.2-0.2,4.6-0.7V18.2z M86.6,19.5c0,0.6,0.2,0.8,0.5,0.8
					c0.3,0,0.6-0.3,0.9-0.9h0.1c-0.3,1.1-1.3,1.5-2.6,1.5c-1.3,0-2.1-0.8-2.1-1.9v-6.2c0-0.7-0.3-1-1.4-1v-0.1
					c1.7,0,2.9-0.2,4.5-0.7V19.5z"/>
				<path class="st2" d="M94,11.1c-1.1,0.1-1.5,1.1-1.5,4.8c0,3.6,0.4,4.8,1.5,4.9v0.1c-2.2,0-4.8-1.8-4.8-5c0-3.2,2.5-4.9,4.8-4.9
					V11.1z M99.5,15.9c0,3.2-2.5,5-4.7,5v-0.1c1.1-0.1,1.5-1.3,1.5-4.9c0-3.7-0.4-4.7-1.5-4.8V11C97,11,99.5,12.7,99.5,15.9z"/>
			</g>
			<g class="st1">
				<path class="st2" d="M108.2,19.3v0.1c-0.6,0.9-1.8,1.5-3.3,1.5c-1.7,0-2.9-0.8-2.9-2.7V12h-1l0.2-0.3h0.8V9.6
					c1.2,0,2.3-0.4,3.1-1.1v3.1h2.6l-0.2,0.3h-2.4v6.3c0,1,0.4,1.9,1.3,1.9C106.9,20.3,107.6,19.9,108.2,19.3z"/>
			</g>
			<g class="st1">
				<path class="st2" d="M108.9,15.9c0-3.2,2.4-4.9,4.7-4.9v0.1c-1.1,0.1-1.4,1.1-1.4,4.7c0,2.8,1.2,4.3,2.9,4.3
					c1.1,0,1.9-0.3,2.8-1v0.1c-1,1.3-2.8,1.7-4.1,1.7C111.4,20.9,108.9,19.1,108.9,15.9z M113.2,15.1c1.7,0,2.4-0.5,2.4-2.1
					c0-0.9-0.4-1.8-1.2-1.9V11c2.5,0,3.7,1.8,3.7,3.2c0,0.3,0,0.7-0.1,1h-4.8V15.1z"/>
			</g>
			<g class="st1">
				<path class="st2" d="M14.8,31.9l-0.2,0.3h-1.9v7.7c0,0.5,0.3,1,1.5,1v0.1h-6v-0.1c1.1,0,1.4-0.5,1.4-1v-7.7H8.3l0.2-0.3h1V31
					c0-2.7,1.4-3.9,3.2-4.1V27c-0.6,0.2-1.1,0.9-1.1,2C11.6,30.2,12.3,31.9,14.8,31.9z M16.4,29c0,1.1-0.8,1.7-1.7,1.7
					c-1,0-1.6-0.6-1.9-1.3c0.8,0,1.4-0.5,1.4-1.2c0-0.5-0.3-1-0.7-1.1v-0.1C15.5,27,16.4,27.9,16.4,29z"/>
			</g>
			<g class="st1">
				<path class="st2" d="M20,39.8c0,0.5,0.3,1,1.4,1v0.1h-6v-0.1c1.1,0,1.4-0.5,1.4-1v-6.8c0-0.7-0.3-1-1.4-1v-0.1
					c1.8,0,3.2-0.2,4.6-0.7V39.8z M25.1,33.3c0,1.3-0.9,2.2-2,2.2c-0.5,0-0.9-0.1-1.1-0.4c0.4-0.2,0.7-0.6,0.7-1.3
					c0-0.6-0.4-1-1.1-1c-0.5,0-0.9,0.3-1.1,0.7v-0.2c0.4-1.2,1.3-2.1,2.5-2.1C24.4,31.2,25.1,32.1,25.1,33.3z"/>
			</g>
			<g class="st1">
				<path class="st2" d="M30.9,31.3c-1.1,0.1-1.5,1.1-1.5,4.8c0,3.6,0.4,4.8,1.5,4.9v0.1c-2.2,0-4.8-1.8-4.8-5
					c0-3.2,2.5-4.9,4.8-4.9V31.3z M36.4,36.1c0,3.2-2.5,5-4.7,5V41c1.1-0.1,1.5-1.3,1.5-4.9c0-3.7-0.4-4.7-1.5-4.8v-0.1
					C33.9,31.2,36.4,32.9,36.4,36.1z"/>
				<path class="st2" d="M42.3,39.8c0,0.5,0.3,1,1.4,1v0.1h-6v-0.1c1.1,0,1.4-0.5,1.4-1v-6.8c0-0.7-0.3-1-1.4-1v-0.1
					c1.8,0,3.2-0.2,4.6-0.7V39.8z M48.6,33.9v6c0,0.5,0.3,1,1.4,1v0.1h-6v-0.1c1.1,0,1.4-0.5,1.4-1v-6c0-1.1-0.4-1.6-1.3-1.6
					c-0.5,0-1,0.3-1.3,0.6v-0.1c0.4-0.8,1.4-1.5,2.8-1.5C47.5,31.2,48.6,32,48.6,33.9z M54.9,33.9v6c0,0.5,0.3,1,1.4,1v0.1h-6v-0.1
					c1.1,0,1.4-0.5,1.4-1v-6c0-1.1-0.4-1.6-1.3-1.6c-0.5,0-1,0.3-1.3,0.6v-0.1c0.4-0.8,1.4-1.5,2.8-1.5C53.8,31.2,54.9,32,54.9,33.9
					z"/>
			</g>
			<g class="st1">
				<path class="st2" d="M61.8,32.2c-0.2-0.4-0.5-0.7-1.1-0.7v-0.1h5.3v0.1c-0.7,0-0.9,0.5-0.6,1.1l2.5,5.2l-1.6,3.1h-0.1L61.8,32.2
					z M61,44c0-0.8,0.6-1.5,1.7-1.8c-0.1,0.2-0.1,0.3-0.1,0.5c0,0.7,0.4,1.3,1.1,1.3c0.7,0,1.2-0.7,1.9-1.9h0.1
					c-1.1,2-1.8,3.7-3.1,3.7C61.6,45.7,61,45,61,44z M68.8,36c0.3-0.6,0.5-1.4,0.5-2.5c0-1.1-0.6-2-1.9-2v-0.1h4.8v0.1
					c-0.6,0-0.9,0.2-1.2,0.9l-2,3.7L68.8,36z"/>
			</g>
			<g class="st1">
				<path class="st2" d="M77,31.3c-1.1,0.1-1.5,1.1-1.5,4.8c0,3.6,0.4,4.8,1.5,4.9v0.1c-2.2,0-4.8-1.8-4.8-5c0-3.2,2.5-4.9,4.8-4.9
					V31.3z M82.5,36.1c0,3.2-2.5,5-4.7,5V41c1.1-0.1,1.5-1.3,1.5-4.9c0-3.7-0.4-4.7-1.5-4.8v-0.1C80,31.2,82.5,32.9,82.5,36.1z"/>
				<path class="st2" d="M88.1,38.4c0,1.1,0.4,1.6,1.3,1.6c0.5,0,0.9-0.2,1.3-0.6v0.1c-0.4,0.8-1.4,1.5-3,1.5
					c-1.7,0-2.8-0.8-2.8-2.7v-5.4c0-0.7-0.3-1-1.4-1v-0.1c1.8,0,3.2-0.2,4.6-0.7V38.4z M94.5,39.6c0,0.6,0.2,0.8,0.5,0.8
					c0.3,0,0.6-0.3,0.9-0.9H96c-0.3,1.1-1.3,1.5-2.6,1.5c-1.3,0-2.1-0.8-2.1-1.9v-6.2c0-0.7-0.3-1-1.4-1v-0.1c1.7,0,2.9-0.2,4.5-0.7
					V39.6z"/>
			</g>
			<g class="st1">
				<path class="st2" d="M101.4,39.8c0,0.5,0.3,1,1.4,1v0.1h-6v-0.1c1.1,0,1.4-0.5,1.4-1v-6.8c0-0.7-0.3-1-1.4-1v-0.1
					c1.8,0,3.2-0.2,4.6-0.7V39.8z M106.6,33.3c0,1.3-0.9,2.2-2,2.2c-0.5,0-0.9-0.1-1.1-0.4c0.4-0.2,0.7-0.6,0.7-1.3
					c0-0.6-0.4-1-1.1-1c-0.5,0-0.9,0.3-1.1,0.7v-0.2c0.4-1.2,1.3-2.1,2.5-2.1C105.8,31.2,106.6,32.1,106.6,33.3z"/>
			</g>
			<g class="st1">
				<path class="st2" d="M116,38.5c0,1.8-1.2,2.6-3.2,2.6V28.8c0-0.7-0.3-1-1.4-1v-0.1c1.8,0,3-0.2,4.6-0.7V38.5z M123.3,36.1
					c0,4-2.1,5.1-3.9,5.1c-1.1,0-2.3-0.7-2.8-1.5v-0.1c0.5,0.4,1,0.7,1.6,0.7c0.9,0,1.9-0.6,1.9-4.1c0-3.5-0.9-3.9-1.9-3.9
					c-0.6,0-1.1,0.2-1.6,0.7v-0.2c0.5-0.8,1.7-1.5,2.8-1.5C121.2,31.2,123.3,32.3,123.3,36.1z"/>
			</g>
			<g class="st1">
				<path class="st2" d="M129.2,39.8c0,0.5,0.3,1,1.4,1v0.1h-6v-0.1c1.1,0,1.4-0.5,1.4-1v-6.8c0-0.7-0.3-1-1.4-1v-0.1
					c1.8,0,3.2-0.2,4.6-0.7V39.8z M134.3,33.3c0,1.3-0.9,2.2-2,2.2c-0.5,0-0.9-0.1-1.1-0.4c0.4-0.2,0.7-0.6,0.7-1.3
					c0-0.6-0.4-1-1.1-1c-0.5,0-0.9,0.3-1.1,0.7v-0.2c0.4-1.2,1.3-2.1,2.5-2.1C133.6,31.2,134.3,32.1,134.3,33.3z"/>
			</g>
			<g class="st1">
				<path class="st2" d="M140.1,31.3c-1.1,0.1-1.5,1.1-1.5,4.8c0,3.6,0.4,4.8,1.5,4.9v0.1c-2.2,0-4.8-1.8-4.8-5
					c0-3.2,2.5-4.9,4.8-4.9V31.3z M145.6,36.1c0,3.2-2.5,5-4.7,5V41c1.1-0.1,1.5-1.3,1.5-4.9c0-3.7-0.4-4.7-1.5-4.8v-0.1
					C143.1,31.2,145.6,32.9,145.6,36.1z"/>
			</g>
			<g class="st1">
				<path class="st2" d="M152.8,40.8v0.1h-6v-0.1c1.1,0,1.4-0.5,1.4-1V28.8c0-0.7-0.3-1-1.4-1v-0.1c1.8,0,3.2-0.2,4.6-0.7v13
					C151.4,40.3,151.7,40.8,152.8,40.8z M159.3,40.8v0.1c-0.5,0.2-1.3,0.2-1.9,0.2c-1.2,0-2.5-0.2-3.5-1.9l-1.8-3
					c1.5-1.3,2.9-2.9,2.9-3.9c0-0.5-0.2-0.9-1.1-0.9v-0.1h4.9v0.1c-0.4,0-0.8,0.1-1.1,0.3l-3.5,2.8l3.3,5.1
					C158.2,40.7,158.6,40.7,159.3,40.8z"/>
			</g>
			<g class="st1">
				<path class="st2" d="M159.4,36.1c0-3.2,2.4-4.9,4.7-4.9v0.1c-1.1,0.1-1.4,1.1-1.4,4.7c0,2.8,1.2,4.3,2.9,4.3
					c1.1,0,1.9-0.3,2.8-1v0.1c-1,1.3-2.8,1.7-4.1,1.7C161.9,41.1,159.4,39.3,159.4,36.1z M163.7,35.3c1.7,0,2.4-0.5,2.4-2.1
					c0-0.9-0.4-1.8-1.2-1.9v-0.1c2.5,0,3.7,1.8,3.7,3.2c0,0.3,0,0.7-0.1,1h-4.8V35.3z"/>
			</g>
			<g class="st1">
				<path class="st2" d="M174.4,39.8c0,0.5,0.3,1,1.4,1v0.1h-6v-0.1c1.1,0,1.4-0.5,1.4-1v-6.8c0-0.7-0.3-1-1.4-1v-0.1
					c1.8,0,3.2-0.2,4.6-0.7V39.8z M179.6,33.3c0,1.3-0.9,2.2-2,2.2c-0.5,0-0.9-0.1-1.1-0.4c0.4-0.2,0.7-0.6,0.7-1.3
					c0-0.6-0.4-1-1.1-1c-0.5,0-0.9,0.3-1.1,0.7v-0.2c0.4-1.2,1.3-2.1,2.5-2.1C178.8,31.2,179.6,32.1,179.6,33.3z"/>
			</g>
		</g>
	</g>
</g>
</svg>
