<svg id="Layer_1" data-name="Layer 1" xmlns="http://www.w3.org/2000/svg" xmlns:xlink="http://www.w3.org/1999/xlink" viewBox="0 0 320 50"><defs><style>.cls-1{fill:none;}.cls-2{clip-path:url(#clip-path);}.cls-3{fill:#fff;}</style><clipPath id="clip-path"><rect class="cls-1" width="320" height="50"/></clipPath></defs><title>Artboard 1 copy 3</title><g class="cls-2"><path class="cls-3" d="M13.52,9.19v.1c-1.15.14-1.95,1.3-1.95,5.41s.8,5.46,1.95,5.6v.1a5.35,5.35,0,0,1-5.09-5.6A5.55,5.55,0,0,1,13.52,9.19Zm.78.1v-.1a6.74,6.74,0,0,1,3.28.76l.5-.76h.13v3.89h-.13A4.94,4.94,0,0,0,14.3,9.29Zm5.43,6.36v.09c-.75,0-1.19.29-1.19,1V20.4h-.12l-.58-1a6.21,6.21,0,0,1-3.52,1v-.1A1.68,1.68,0,0,0,16,18.35V16.69c0-.66-.29-1-1.2-1v-.09Z"/><path class="cls-3" d="M20.7,16.21a4,4,0,0,1,3.92-4.13v.09c-.94.11-1.2.91-1.2,4,0,2.31,1,3.57,2.45,3.57a3.47,3.47,0,0,0,2.34-.85V19a4.5,4.5,0,0,1-3.4,1.44A4.06,4.06,0,0,1,20.7,16.21Zm3.6-.68c1.41,0,2-.44,2-1.79,0-.77-.32-1.47-1-1.57v-.09A2.89,2.89,0,0,1,28.4,14.8a4.58,4.58,0,0,1-.08.83h-4Z"/><path class="cls-3" d="M35.63,19v.09a3.34,3.34,0,0,1-2.74,1.3c-1.44,0-2.46-.66-2.46-2.26V12.89H29.6l.17-.24h.66V10.92A4,4,0,0,0,33.05,10v2.62h2.16l-.17.24h-2v5.3c0,.8.31,1.63,1.06,1.63A2.34,2.34,0,0,0,35.63,19Z"/><path class="cls-3" d="M40.2,18.35c0-1.39,1.28-2.18,3.08-2.18H45v.1h-.48A1.58,1.58,0,0,0,42.83,18c0,.87.25,1.55,1,1.55A1.77,1.77,0,0,0,45,19v.09a3.41,3.41,0,0,1-2.55,1.3A2,2,0,0,1,40.2,18.35Zm.64-4.53c0-.82.74-1.65,2.92-1.74v.09a1.18,1.18,0,0,0-1,1.17c0,.58.4.93,1,1a1.78,1.78,0,0,1-1.53.77A1.29,1.29,0,0,1,40.84,13.82Zm4.65,4.77v-4.9c0-.78-.31-1.41-1.09-1.52v-.09c2.65.09,3.71,1.1,3.71,3.2v3.89c0,.46.16.65.45.65s.51-.24.77-.72h.09a2,2,0,0,1-2.08,1.3C46.06,20.4,45.49,20,45.49,18.59Z"/><path class="cls-3" d="M60,13.36v.12a1.8,1.8,0,0,0-1.34-.59c-.8,0-1.56.37-1.56,3.27s.8,3.41,1.56,3.41A2.26,2.26,0,0,0,60,19v.09a3,3,0,0,1-2.34,1.3c-1.52,0-3.28-.9-3.28-4.24,0-3.19,1.73-4.08,3.28-4.08A3,3,0,0,1,60,13.36Zm3.12,9.31c0,.58.27.85,1.19.85v.1a10.62,10.62,0,0,0-3.83.62V12.67a10.28,10.28,0,0,0,2.64-.61Z"/><path class="cls-3" d="M68.43,18.14c0,.9.3,1.36,1.1,1.36A1.4,1.4,0,0,0,70.64,19v.09a2.67,2.67,0,0,1-2.48,1.3,2.07,2.07,0,0,1-2.37-2.26v-4.5c0-.57-.27-.84-1.19-.84v-.1a9.91,9.91,0,0,0,3.83-.62Zm5.33,1c0,.46.14.65.43.65s.51-.24.77-.72h.1a2.06,2.06,0,0,1-2.18,1.3,1.55,1.55,0,0,1-1.76-1.57V13.64c0-.57-.27-.84-1.14-.84v-.1a10.53,10.53,0,0,0,3.78-.62Z"/><path class="cls-3" d="M80,12.17c-1,.11-1.27.91-1.27,4s.32,4,1.27,4.09v.1a4.08,4.08,0,0,1-4-4.19,4,4,0,0,1,4-4.13Zm4.61,4a4.08,4.08,0,0,1-4,4.19v-.1c.94-.09,1.24-1.1,1.24-4.09,0-3.14-.32-3.94-1.24-4v-.09A4,4,0,0,1,84.58,16.21Z"/><path class="cls-3" d="M91.84,19v.09a3.34,3.34,0,0,1-2.74,1.3c-1.44,0-2.46-.66-2.46-2.26V12.89H85.8l.18-.24h.66V10.92A4.05,4.05,0,0,0,89.26,10v2.62h2.16l-.18.24h-2v5.3c0,.8.3,1.63,1.06,1.63A2.34,2.34,0,0,0,91.84,19Z"/><path class="cls-3" d="M92.43,16.21a4,4,0,0,1,3.92-4.13v.09c-.95.11-1.2.91-1.2,4,0,2.31,1,3.57,2.45,3.57a3.43,3.43,0,0,0,2.33-.85V19a4.47,4.47,0,0,1-3.39,1.44A4.06,4.06,0,0,1,92.43,16.21Zm3.6-.68c1.41,0,2-.44,2-1.79,0-.77-.32-1.47-1-1.57v-.09a2.89,2.89,0,0,1,3.14,2.72,5.69,5.69,0,0,1-.08.83H96Z"/><path class="cls-3" d="M13.61,30.65l-.17.24H11.87v6.44c0,.4.26.81,1.22.81v.1H8v-.1c1,0,1.2-.41,1.2-.81V30.89h-1l.17-.24h.87v-.72c0-2.27,1.18-3.23,2.66-3.46v.1a1.61,1.61,0,0,0-1,1.7A2.41,2.41,0,0,0,13.61,30.65ZM15,28.2a1.36,1.36,0,0,1-1.4,1.41A1.65,1.65,0,0,1,12,28.54a1,1,0,0,0,1.13-1,.94.94,0,0,0-.57-.95v-.1C14.22,26.54,15,27.29,15,28.2Z"/><path class="cls-3" d="M18,37.33c0,.4.24.81,1.2.81v.1h-5v-.1c1,0,1.2-.41,1.2-.81V31.64c0-.57-.27-.84-1.18-.84v-.1A9.89,9.89,0,0,0,18,30.08Zm4.32-5.52a1.71,1.71,0,0,1-1.65,1.82,1.1,1.1,0,0,1-.91-.35,1.17,1.17,0,0,0,.63-1.09.85.85,0,0,0-.9-.87,1.09,1.09,0,0,0-1,.61v-.12a2.21,2.21,0,0,1,2.08-1.73A1.62,1.62,0,0,1,22.3,31.81Z"/><path class="cls-3" d="M27.15,30.17c-.94.11-1.26.91-1.26,4s.32,4,1.26,4.09v.1a4.09,4.09,0,0,1-4-4.19,4,4,0,0,1,4-4.13Zm4.61,4a4.08,4.08,0,0,1-4,4.19v-.1c.94-.09,1.25-1.1,1.25-4.09s-.32-3.94-1.25-4v-.09A4,4,0,0,1,31.76,34.21Z"/><path class="cls-3" d="M36.65,37.33c0,.4.24.81,1.2.81v.1h-5v-.1c1,0,1.2-.41,1.2-.81V31.64c0-.57-.27-.84-1.18-.84v-.1a9.82,9.82,0,0,0,3.82-.62Zm5.32-5v5c0,.4.22.81,1.18.81v.1h-5v-.1c.94,0,1.2-.41,1.2-.81v-5c0-.89-.36-1.36-1.12-1.36a1.44,1.44,0,0,0-1.06.48v-.09a2.58,2.58,0,0,1,2.34-1.28C41,30.08,42,30.75,42,32.33Zm5.3,0v5c0,.4.24.81,1.2.81v.1h-5v-.1c.95,0,1.2-.41,1.2-.81v-5c0-.89-.35-1.36-1.12-1.36a1.43,1.43,0,0,0-1,.48v-.09a2.58,2.58,0,0,1,2.34-1.28C46.31,30.08,47.27,30.75,47.27,32.33Z"/><path class="cls-3" d="M53,30.89a.88.88,0,0,0-.88-.56v-.09h4.48v.09c-.56,0-.79.39-.51,1l2.09,4.37L56.8,38.24h-.1Zm-.71,9.93a1.69,1.69,0,0,1,1.41-1.51,1.18,1.18,0,0,0-.06.4.93.93,0,0,0,.94,1.07c.56,0,1-.59,1.62-1.61h.11c-.88,1.65-1.49,3.07-2.61,3.07A1.34,1.34,0,0,1,52.28,40.82Zm6.57-6.74A4.42,4.42,0,0,0,59.29,32a1.54,1.54,0,0,0-1.63-1.68v-.09h4v.09c-.53,0-.74.21-1,.75l-1.67,3.14Z"/><path class="cls-3" d="M65.71,30.17c-.94.11-1.26.91-1.26,4s.32,4,1.26,4.09v.1a4.09,4.09,0,0,1-4-4.19,4,4,0,0,1,4-4.13Zm4.61,4a4.08,4.08,0,0,1-4,4.19v-.1c.94-.09,1.25-1.1,1.25-4.09s-.32-3.94-1.25-4v-.09A4,4,0,0,1,70.32,34.21Z"/><path class="cls-3" d="M75,36.14c0,.9.3,1.36,1.1,1.36A1.42,1.42,0,0,0,77.25,37v.09a2.68,2.68,0,0,1-2.49,1.3,2.06,2.06,0,0,1-2.36-2.26v-4.5c0-.57-.28-.84-1.19-.84v-.1A9.91,9.91,0,0,0,75,30.08Zm5.33,1c0,.46.14.65.43.65s.51-.24.77-.72h.09a2,2,0,0,1-2.17,1.3,1.55,1.55,0,0,1-1.76-1.57V31.64c0-.57-.28-.84-1.14-.84v-.1a10.53,10.53,0,0,0,3.78-.62Z"/><path class="cls-3" d="M86.14,37.33c0,.4.24.81,1.2.81v.1h-5v-.1c1,0,1.2-.41,1.2-.81V31.64c0-.57-.27-.84-1.18-.84v-.1a9.89,9.89,0,0,0,3.82-.62Zm4.32-5.52a1.71,1.71,0,0,1-1.65,1.82,1.1,1.1,0,0,1-.91-.35,1.17,1.17,0,0,0,.63-1.09.85.85,0,0,0-.9-.87,1.09,1.09,0,0,0-1,.61v-.12a2.21,2.21,0,0,1,2.08-1.73A1.62,1.62,0,0,1,90.46,31.81Z"/><path class="cls-3" d="M98.35,36.22c0,1.52-1,2.18-2.64,2.18V28c0-.57-.29-.85-1.2-.85V27.1a10.47,10.47,0,0,0,3.84-.63Zm6.1-2.06c0,3.34-1.78,4.24-3.3,4.24a3,3,0,0,1-2.32-1.3V37a2.23,2.23,0,0,0,1.33.56c.75,0,1.57-.53,1.57-3.41s-.77-3.27-1.57-3.27a1.76,1.76,0,0,0-1.33.59v-.12a2.94,2.94,0,0,1,2.32-1.28C102.7,30.08,104.45,31,104.45,34.16Z"/><path class="cls-3" d="M109.41,37.33c0,.4.24.81,1.2.81v.1h-5v-.1c1,0,1.2-.41,1.2-.81V31.64c0-.57-.27-.84-1.18-.84v-.1a9.91,9.91,0,0,0,3.83-.62Zm4.32-5.52a1.71,1.71,0,0,1-1.65,1.82,1.09,1.09,0,0,1-.91-.35,1.18,1.18,0,0,0,.62-1.09.85.85,0,0,0-.9-.87,1.11,1.11,0,0,0-1,.61v-.12A2.22,2.22,0,0,1,112,30.08,1.63,1.63,0,0,1,113.73,31.81Z"/><path class="cls-3" d="M118.57,30.17c-.94.11-1.26.91-1.26,4s.32,4,1.26,4.09v.1a4.08,4.08,0,0,1-4-4.19,4,4,0,0,1,4-4.13Zm4.61,4a4.08,4.08,0,0,1-4,4.19v-.1c1-.09,1.25-1.1,1.25-4.09s-.32-3.94-1.25-4v-.09A4,4,0,0,1,123.18,34.21Z"/><path class="cls-3" d="M129.18,38.14v.1h-5v-.1c1,0,1.2-.41,1.2-.81V28c0-.57-.27-.85-1.18-.85V27.1a9.7,9.7,0,0,0,3.82-.63V37.33C128,37.73,128.22,38.14,129.18,38.14Zm5.43,0v.1a6.25,6.25,0,0,1-1.6.16,3,3,0,0,1-2.9-1.55l-1.5-2.52c1.26-1.1,2.44-2.44,2.44-3.26,0-.43-.2-.74-.94-.74v-.09h4.1v.09a1.43,1.43,0,0,0-.9.29l-2.93,2.32,2.77,4.29A1.65,1.65,0,0,0,134.61,38.14Z"/><path class="cls-3" d="M134.7,34.21a4,4,0,0,1,3.92-4.13v.09c-.94.11-1.2.91-1.2,4,0,2.31,1,3.57,2.45,3.57a3.47,3.47,0,0,0,2.34-.85V37a4.5,4.5,0,0,1-3.4,1.44A4.06,4.06,0,0,1,134.7,34.21Zm3.6-.68c1.41,0,2-.44,2-1.79,0-.77-.32-1.47-1-1.57v-.09a2.89,2.89,0,0,1,3.14,2.72,4.58,4.58,0,0,1-.08.83h-4Z"/><path class="cls-3" d="M147.26,37.33c0,.4.24.81,1.2.81v.1h-5v-.1c1,0,1.2-.41,1.2-.81V31.64c0-.57-.27-.84-1.18-.84v-.1a9.89,9.89,0,0,0,3.82-.62Zm4.32-5.52a1.71,1.71,0,0,1-1.65,1.82,1.1,1.1,0,0,1-.91-.35,1.17,1.17,0,0,0,.63-1.09.85.85,0,0,0-.9-.87,1.09,1.09,0,0,0-1,.61v-.12a2.21,2.21,0,0,1,2.08-1.73A1.63,1.63,0,0,1,151.58,31.81Z"/></g></svg>