<?xml version="1.0" encoding="utf-8"?>
<!-- Generator: Adobe Illustrator 24.0.3, SVG Export Plug-In . SVG Version: 6.00 Build 0)  -->
<svg version="1.1" id="Layer_1" xmlns="http://www.w3.org/2000/svg" xmlns:xlink="http://www.w3.org/1999/xlink" x="0px" y="0px"
	 viewBox="0 0 300 600" style="enable-background:new 0 0 300 600;" xml:space="preserve">
<style type="text/css">
	.st0{clip-path:url(#SVGID_2_);}
	.st1{enable-background:new    ;}
	.st2{fill:#FFFFFF;}
</style>
<title>Artboard 1 copy 4</title>
<g>
	<defs>
		<rect id="SVGID_1_" y="0.5" width="300" height="599.5"/>
	</defs>
	<clipPath id="SVGID_2_">
		<use xlink:href="#SVGID_1_"  style="overflow:visible;"/>
	</clipPath>
	<g class="st0">
		<g class="st1">
			<path class="st2" d="M22.3,74.3c2.3,0,2.9-0.9,2.9-2V50.3c0-1.1-0.6-2-2.9-2V48h9.6v24.3c0,1.1,0.6,2,2.9,2v0.2H22.3V74.3z
				 M33.8,48.3V48h10.7v7.8h-0.3C42.5,50.3,39.8,48.7,33.8,48.3z M36,61.5l-2.1-0.2v-0.2l2.1-0.2c2.3-0.2,3.9-1.1,5.2-3.4h0.3v7.3
				h-0.3C39.8,62.6,38.3,61.7,36,61.5z"/>
		</g>
		<g class="st1">
			<path class="st2" d="M55.9,72.3c0,1,0.6,2,2.9,2v0.2H46.5v-0.2c2.3,0,2.9-1,2.9-2V58.5c0-1.4-0.7-2.1-2.9-2.1v-0.2
				c3.6,0,6.6-0.4,9.3-1.5V72.3z M66.4,58.9c0,2.7-1.9,4.4-4,4.4c-0.9,0-1.8-0.2-2.2-0.9c0.7-0.4,1.5-1.2,1.5-2.7
				c0-1.1-0.8-2.1-2.2-2.1c-1,0-1.8,0.6-2.3,1.5v-0.3c0.7-2.5,2.7-4.2,5.1-4.2C65,54.7,66.4,56.5,66.4,58.9z"/>
		</g>
		<g class="st1">
			<path class="st2" d="M78.3,54.9c-2.3,0.3-3.1,2.2-3.1,9.8c0,7.3,0.8,9.8,3.1,10V75c-4.5,0-9.7-3.7-9.7-10.2s5.2-10,9.7-10.1V54.9
				z M89.5,64.7c0,6.5-5.2,10.2-9.7,10.2v-0.2c2.3-0.2,3-2.7,3-10c0-7.6-0.8-9.6-3-9.8v-0.2C84.3,54.7,89.5,58.1,89.5,64.7z"/>
			<path class="st2" d="M101.4,72.3c0,1,0.6,2,2.9,2v0.2H92.1v-0.2c2.3,0,2.9-1,2.9-2V58.5c0-1.4-0.7-2.1-2.9-2.1v-0.2
				c3.6,0,6.6-0.4,9.3-1.5V72.3z M114.4,60.2v12.2c0,1,0.5,2,2.9,2v0.2H105v-0.2c2.3,0,2.9-1,2.9-2V60.2c0-2.2-0.9-3.3-2.7-3.3
				c-1.1,0-2.1,0.5-2.6,1.2v-0.2c0.9-1.6,2.8-3.1,5.7-3.1C112,54.7,114.4,56.3,114.4,60.2z M127.3,60.2v12.2c0,1,0.6,2,2.9,2v0.2
				h-12.3v-0.2c2.3,0,2.9-1,2.9-2V60.2c0-2.2-0.9-3.3-2.7-3.3c-1.1,0-2.1,0.5-2.6,1.2v-0.2c0.9-1.6,2.8-3.1,5.7-3.1
				C125,54.7,127.3,56.3,127.3,60.2z"/>
			<path class="st2" d="M145.7,54.2l0.3,0.5l0.3,16.4c0,1.7,1.2,3.3,3.8,3.3v0.2h-8.6v-0.2c2.6,0,3.8-1.6,3.8-3.3L145.7,54.2z
				 M166.4,74.6H162l-16.3-24.3c-1-1.5-2.1-2-4.1-2V48H152l14.4,21.5V74.6z M166.3,65.6l-0.3-0.4l-0.5-13.6c0-1.7-1.2-3.3-3.8-3.3
				V48h8.6v0.2c-2.6,0-3.8,1.6-3.8,3.3L166.3,65.6z"/>
			<path class="st2" d="M187.7,48h7.5l-15.5,26.5h-7.4L187.7,48z M173.4,48h11.8l-0.1,0.2c-5.8,0.3-10.4,4.3-11.4,9.2h-0.3V48z
				 M182.3,74.3c5.9-0.5,10.6-4.2,12.2-10.4h0.3v10.7h-12.6L182.3,74.3z"/>
		</g>
		<g class="st1">
			<path class="st2" d="M206,49.3c0,2.3-2.4,5.3-6.3,6.9l-0.1-0.4c1.1-0.9,2.2-2.4,2.2-3.8c0-1.8-1.2-2.5-2.7-2.6
				c0.3-2.3,1.7-3.6,3.7-3.6C204.6,45.9,206,47.1,206,49.3z"/>
		</g>
		<g class="st1">
			<path class="st2" d="M214,69.9c-1.3,0-2.2,0.8-2.2,2c0,1.1,0.8,2.6,3.5,2.8V75c-5.2-0.2-8-1.6-8-3.9c0-1.8,1.6-2.9,3.3-2.9
				C212.2,68.2,213.4,69,214,69.9z M215.3,54.9c-1.4,0.3-2.8,1-2.8,2.6c0.1,4.5,12.8,5.3,12.8,11.5c0,3.8-3.2,5.8-8.2,6v-0.2
				c1.6-0.3,3.5-0.9,3.5-2.9c0-4.1-12.8-5.5-12.8-11.5c0-3.4,3.2-5.5,7.6-5.7V54.9z M224.5,58.7c0,1.2-0.9,2.4-2.9,2.4
				c-1.6,0-2.8-0.7-3.3-1.9c1.2-0.1,1.8-0.9,1.8-1.8c0-1.2-1.5-2.3-3-2.5v-0.2C221.4,54.9,224.5,56.5,224.5,58.7z"/>
		</g>
		<g class="st1">
			<path class="st2" d="M21.4,86.4c3.6,0,6.6-0.4,9.3-1.5v26.5c0,1,0.6,2,2.9,2v0.2H21.3v-0.2c2.3,0,2.9-1,2.9-2V88.7
				c0-1.4-0.7-2.1-2.9-2.1V86.4z"/>
			<path class="st2" d="M36,103.7c0-6.6,5-10,9.6-10.1v0.2c-2.3,0.3-2.9,2.2-2.9,9.7c0,5.6,2.5,8.7,6,8.7c2.2,0,3.9-0.6,5.7-2.1v0.2
				c-2,2.6-5.7,3.5-8.3,3.5C41,114,36,110.3,36,103.7z M44.8,102.1c3.4,0,4.9-1.1,4.9-4.4c0-1.9-0.8-3.6-2.5-3.8v-0.2
				c5.2,0,7.6,3.7,7.6,6.6c0,0.6-0.1,1.4-0.2,2h-9.8V102.1z"/>
			<path class="st2" d="M57.5,109c0-3.4,3.1-5.3,7.5-5.3h4.2v0.2h-1.2c-2.8,0-4.1,1.8-4.1,4.3c0,2.1,0.6,3.8,2.5,3.8
				c1.1,0,2-0.6,2.8-1.4v0.2c-1.3,1.5-3.4,3.2-6.2,3.2C59.7,114,57.5,112.1,57.5,109z M59.1,97.9c0-2,1.8-4,7.1-4.3v0.2
				c-1.6,0.2-2.5,1.5-2.5,2.8c0,1.4,1,2.3,2.5,2.4c-0.6,1.1-2.2,1.9-3.7,1.9C60.4,101,59.1,99.6,59.1,97.9z M70.4,109.6V97.6
				c0-1.9-0.7-3.4-2.7-3.7v-0.2c6.5,0.2,9.1,2.7,9.1,7.8v9.5c0,1.1,0.4,1.6,1.1,1.6c0.6,0,1.2-0.6,1.9-1.8H80
				c-0.6,2.1-2.7,3.2-5.1,3.2C71.8,114,70.4,112.9,70.4,109.6z"/>
			<path class="st2" d="M95.8,96.8v0.3c-0.9-1-2-1.4-3.2-1.4c-2,0-3.8,0.9-3.8,8c0,7,2,8.3,3.8,8.3c1.2,0,2.3-0.6,3.2-1.4v0.2
				c-1,1.6-3.4,3.2-5.7,3.2c-3.7,0-8-2.2-8-10.3c0-7.8,4.3-9.9,8-9.9C92.3,93.7,94.8,95.2,95.8,96.8z M103.4,111
				c0,1.1,0.4,1.6,1.1,1.6c0.6,0,1.2-0.6,1.9-1.8h0.2c-0.6,2.1-2.7,3.2-5.1,3.2c-3.1,0-4.5-1.1-4.5-4.4V88.7c0-1.4-0.7-2.1-2.9-2.1
				v-0.2c3.6,0,6-0.4,9.3-1.5V111z"/>
			<path class="st2" d="M108.2,95.2c3.6,0,6.6-0.4,9.3-1.5v17.7c0,1,0.6,2,2.9,2v0.2h-12.3v-0.2c2.3,0,2.9-1,2.9-2V97.5
				c0-1.4-0.7-2.1-2.9-2.1V95.2z M110.2,87.8c0-2,1.6-3.4,4-3.4c2.3,0,4,1.4,4,3.4c0,2.1-1.6,3.4-4,3.4
				C111.8,91.3,110.2,89.9,110.2,87.8z"/>
			<path class="st2" d="M122.1,113.3c2.3,0,2.9-1,2.9-2V97.5c0-1.4-0.7-2.1-2.9-2.1v-0.2c3.6,0,6.6-0.4,9.3-1.5v17.7
				c0,1,0.6,2,2.9,2v0.2h-12.3V113.3z M135.8,113.3c2.3,0,2.9-1,2.9-2V99.2c0-2.2-1.1-3.3-3.1-3.3c-1.1,0-2,0.4-3,1.2v-0.2
				c1.1-1.6,3.6-3.2,6.5-3.2c3.5,0,6,1.6,6,5.5v12.2c0,1,0.6,2,2.9,2v0.2h-12.3V113.3z"/>
			<path class="st2" d="M150.3,100.7c0-5.1,4.8-7,8.7-7.1v0.2c-1.7,0.2-2.5,2.2-2.5,6.7c0,4.7,0.8,6.6,2.5,6.8v0.2
				C155.1,107.6,150.3,105.8,150.3,100.7z M160.7,123.1c3.9-0.5,5.1-2.6,5.1-4c0-5.4-15.2-0.6-15.2-7.6c0-1.6,0.8-2.8,2.6-4l0.1,0.2
				c-0.2,0.2-0.4,0.5-0.4,0.7c0,4.4,17.8-0.7,17.8,7.8c0,4-3.5,6.6-10.1,7V123.1z M150.7,119.8c0-2.3,2.8-3,5.9-3
				c-0.7,0.3-1.7,1.4-1.7,2.8c0,1.8,2,3.2,4.3,3.5v0.2C155,123.3,150.7,122.4,150.7,119.8z M160.7,107.4c1.9-0.2,2.7-2.1,2.7-6.8
				c0-4.5-0.8-6.6-2.7-6.7v-0.2c4.1,0.1,8.9,2,8.9,7.1c0,5-4.8,6.9-8.9,6.9V107.4z M162.8,93c0.7-2,2.5-4.7,5.2-4.7
				c2.1,0,3.3,1.1,3.3,3c0,1.9-1.7,3-3.2,3c0-1.6-0.9-2.6-2.1-2.6c-1.2,0-2.5,0.7-3,1.4L162.8,93z"/>
		</g>
		<g class="st1">
			<path class="st2" d="M30.9,150.4c0,1,0.6,2,2.9,2v0.2H21.6v-0.2c2.3,0,2.9-1,2.9-2v-13.9c0-1.4-0.7-2.1-2.9-2.1v-0.2
				c3.6,0,6.6-0.4,9.3-1.5V150.4z M43.9,138.2v12.2c0,1,0.5,2,2.9,2v0.2H34.5v-0.2c2.3,0,2.9-1,2.9-2v-12.2c0-2.2-0.9-3.3-2.7-3.3
				c-1.1,0-2.1,0.5-2.6,1.2v-0.2c0.9-1.6,2.8-3.1,5.7-3.1C41.6,132.7,43.9,134.3,43.9,138.2z M56.8,138.2v12.2c0,1,0.6,2,2.9,2v0.2
				H47.4v-0.2c2.3,0,2.9-1,2.9-2v-12.2c0-2.2-0.9-3.3-2.7-3.3c-1.1,0-2.1,0.5-2.6,1.2v-0.2c0.9-1.6,2.8-3.1,5.7-3.1
				C54.5,132.7,56.8,134.3,56.8,138.2z"/>
			<path class="st2" d="M71.5,132.9c-2.3,0.3-3.1,2.2-3.1,9.8c0,7.3,0.8,9.8,3.1,10v0.2c-4.5,0-9.7-3.7-9.7-10.2s5.2-10,9.7-10.1
				V132.9z M82.8,142.7c0,6.5-5.2,10.2-9.7,10.2v-0.2c2.3-0.2,3-2.7,3-10c0-7.6-0.8-9.6-3-9.8v-0.2
				C77.6,132.7,82.8,136.2,82.8,142.7z"/>
		</g>
		<g class="st1">
			<path class="st2" d="M100.5,149.6v0.2c-1.2,1.8-3.7,3.2-6.7,3.2c-3.5,0-6-1.6-6-5.5v-12.8h-2l0.4-0.6h1.6v-4.2
				c2.4,0,4.7-0.7,6.4-2.2v6.4h5.3l-0.4,0.6h-4.8v12.9c0,2,0.7,4,2.6,4C97.9,151.6,99.2,150.9,100.5,149.6z"/>
		</g>
		<g class="st1">
			<path class="st2" d="M111.6,132.9c-2.3,0.3-3.1,2.2-3.1,9.8c0,7.3,0.8,9.8,3.1,10v0.2c-4.5,0-9.7-3.7-9.7-10.2s5.2-10,9.7-10.1
				V132.9z M122.9,142.7c0,6.5-5.2,10.2-9.7,10.2v-0.2c2.3-0.2,3-2.7,3-10c0-7.6-0.8-9.6-3-9.8v-0.2
				C117.7,132.7,122.9,136.2,122.9,142.7z"/>
		</g>
		<g class="st1">
			<path class="st2" d="M134.8,150.4c0,1,0.6,2,2.9,2v0.2h-12.3v-0.2c2.3,0,2.9-1,2.9-2v-13.9c0-1.4-0.7-2.1-2.9-2.1v-0.2
				c3.6,0,6.6-0.4,9.3-1.5V150.4z M145.3,136.9c0,2.7-1.9,4.4-4,4.4c-0.9,0-1.8-0.2-2.2-0.9c0.7-0.4,1.5-1.2,1.5-2.7
				c0-1.1-0.8-2.1-2.2-2.1c-1,0-1.8,0.6-2.3,1.5v-0.3c0.7-2.5,2.7-4.2,5.1-4.2C143.9,132.7,145.3,134.6,145.3,136.9z"/>
		</g>
		<g class="st1">
			<path class="st2" d="M157.4,132.9c-2.3,0.3-3.3,2.2-3.3,9.7c0,5.6,2.8,8.7,6.3,8.7c2.2,0,3.9-0.6,5.7-2.1v0.2
				c-2,2.6-5.7,3.5-8.3,3.5c-5,0-10.4-3.7-10.4-10.2s5.4-10,10-10.1V132.9z M166.1,137.1c0,2.1-1.4,3.7-3.9,3.7
				c-1.9,0-3.2-1.2-3.4-2.5c1.1-0.4,1.9-1.8,1.9-2.8c0-0.9-0.2-2.3-1.7-2.6v-0.3C164.1,132.7,166.1,134.9,166.1,137.1z"/>
		</g>
		<g class="st1">
			<path class="st2" d="M169.3,134.7c-0.4-0.8-0.9-1.4-2.1-1.4v-0.2h10.9v0.2c-1.4,0-1.9,0.9-1.2,2.3l5.1,10.7l-3.4,6.3h-0.2
				L169.3,134.7z M167.6,158.9c0-1.7,1.3-3.1,3.4-3.7c-0.1,0.4-0.2,0.7-0.2,1c0,1.5,0.8,2.6,2.3,2.6c1.4,0,2.5-1.4,3.9-3.9h0.3
				c-2.1,4-3.6,7.5-6.4,7.5C168.9,162.3,167.6,160.9,167.6,158.9z M183.6,142.4c0.7-1.2,1.1-2.9,1.1-5c0-2.1-1.2-4.1-4-4.1v-0.2h9.7
				v0.2c-1.3,0-1.8,0.5-2.5,1.8l-4.1,7.6L183.6,142.4z"/>
		</g>
		<g class="st1">
			<path class="st2" d="M200.6,132.9c-2.3,0.3-3.3,2.2-3.3,9.7c0,5.6,2.8,8.7,6.3,8.7c2.2,0,3.9-0.6,5.7-2.1v0.2
				c-2,2.6-5.7,3.5-8.3,3.5c-5,0-10.4-3.7-10.4-10.2s5.4-10,10-10.1V132.9z M209.3,137.1c0,2.1-1.4,3.7-3.9,3.7
				c-1.9,0-3.2-1.2-3.4-2.5c1.1-0.4,1.9-1.8,1.9-2.8c0-0.9-0.2-2.3-1.7-2.6v-0.3C207.3,132.7,209.3,134.9,209.3,137.1z"/>
			<path class="st2" d="M211.3,125.4c3.6,0,6.6-0.4,9.3-1.5v26.5c0,1,0.6,2,2.9,2v0.2h-12.3v-0.2c2.3,0,2.9-1,2.9-2v-22.6
				c0-1.4-0.7-2.1-2.9-2.1V125.4z"/>
			<path class="st2" d="M225.9,142.7c0-6.6,5-10,9.6-10.1v0.2c-2.3,0.3-2.9,2.2-2.9,9.7c0,5.6,2.5,8.7,6,8.7c2.2,0,3.9-0.6,5.7-2.1
				v0.2c-2,2.6-5.7,3.5-8.3,3.5C230.9,153,225.9,149.3,225.9,142.7z M234.7,141.1c3.4,0,4.9-1.1,4.9-4.4c0-1.9-0.8-3.6-2.5-3.8v-0.2
				c5.2,0,7.6,3.7,7.6,6.6c0,0.6-0.1,1.4-0.2,2h-9.8V141.1z"/>
		</g>
		<g class="st1">
			<path class="st2" d="M29.1,186.9c-1.3,0-2.2,0.8-2.2,2c0,1.1,0.8,2.6,3.5,2.8v0.2c-5.2-0.2-8-1.6-8-3.9c0-1.8,1.6-2.9,3.3-2.9
				C27.2,185.2,28.5,186,29.1,186.9z M30.4,171.9c-1.4,0.3-2.8,1-2.8,2.6c0.1,4.5,12.8,5.3,12.8,11.5c0,3.8-3.2,5.8-8.2,6v-0.2
				c1.6-0.3,3.5-0.9,3.5-2.9c0-4.1-12.8-5.5-12.8-11.5c0-3.4,3.2-5.5,7.6-5.7V171.9z M39.6,175.7c0,1.2-0.9,2.4-2.9,2.4
				c-1.6,0-2.8-0.7-3.3-1.9c1.2-0.1,1.8-0.9,1.8-1.8c0-1.2-1.5-2.3-3-2.5v-0.2C36.5,171.9,39.6,173.5,39.6,175.7z"/>
			<path class="st2" d="M51.9,197.5c0,1.4,0.7,2.1,2.9,2.1v0.2c-3.6,0-6,0.4-9.3,1.5v-25.9c0-1.4-0.7-2.1-2.9-2.1v-0.2
				c3.6,0,6-0.4,9.3-1.5V197.5z M66.8,181.6c0,8.2-4.3,10.3-8,10.3c-2.2,0-4.7-1.5-5.7-3.2v-0.2c1,0.7,2,1.4,3.3,1.4
				c1.8,0,3.8-1.3,3.8-8.3c0-7.1-1.8-8-3.8-8c-1.2,0-2.4,0.5-3.3,1.4v-0.3c1-1.6,3.5-3.1,5.7-3.1C62.5,171.7,66.8,173.9,66.8,181.6z
				"/>
			<path class="st2" d="M70.2,181.8c0-6.6,5-10,9.6-10.1v0.2c-2.3,0.3-2.9,2.2-2.9,9.7c0,5.6,2.5,8.7,6,8.7c2.2,0,3.9-0.6,5.7-2.1
				v0.2c-2,2.6-5.7,3.5-8.3,3.5C75.2,192,70.2,188.3,70.2,181.8z M79,180.1c3.4,0,4.9-1.1,4.9-4.4c0-1.9-0.8-3.6-2.5-3.8v-0.2
				c5.2,0,7.6,3.7,7.6,6.6c0,0.6-0.1,1.4-0.2,2H79V180.1z"/>
			<path class="st2" d="M102.1,171.9c-2.3,0.3-3.3,2.2-3.3,9.7c0,5.6,2.8,8.7,6.3,8.7c2.2,0,3.9-0.6,5.7-2.1v0.2
				c-2,2.6-5.7,3.5-8.3,3.5c-5,0-10.4-3.7-10.4-10.2s5.4-10,10-10.1V171.9z M110.8,176.1c0,2.1-1.4,3.7-3.9,3.7
				c-1.9,0-3.2-1.2-3.4-2.5c1.1-0.4,1.9-1.8,1.9-2.8c0-0.9-0.2-2.3-1.7-2.6v-0.3C108.8,171.7,110.8,173.9,110.8,176.1z"/>
			<path class="st2" d="M113.1,173.2c3.6,0,6.6-0.4,9.3-1.5v17.7c0,1,0.6,2,2.9,2v0.2h-12.3v-0.2c2.3,0,2.9-1,2.9-2v-13.9
				c0-1.4-0.7-2.1-2.9-2.1V173.2z M115.1,165.8c0-2,1.6-3.4,4-3.4c2.3,0,4,1.4,4,3.4c0,2.1-1.6,3.4-4,3.4
				C116.7,169.3,115.1,167.9,115.1,165.8z"/>
			<path class="st2" d="M127.3,187c0-3.4,3.1-5.3,7.5-5.3h4.2v0.2h-1.2c-2.8,0-4.1,1.8-4.1,4.3c0,2.1,0.6,3.8,2.5,3.8
				c1.1,0,2-0.6,2.8-1.4v0.2c-1.3,1.5-3.4,3.2-6.2,3.2C129.5,192,127.3,190.1,127.3,187z M128.9,175.9c0-2,1.8-4,7.1-4.3v0.2
				c-1.6,0.2-2.5,1.5-2.5,2.8c0,1.4,1,2.3,2.5,2.4c-0.6,1.1-2.2,1.9-3.7,1.9C130.1,179,128.9,177.6,128.9,175.9z M140.2,187.6v-11.9
				c0-1.9-0.7-3.4-2.7-3.7v-0.2c6.5,0.2,9.1,2.7,9.1,7.8v9.5c0,1.1,0.4,1.6,1.1,1.6c0.6,0,1.2-0.6,1.9-1.8h0.2
				c-0.6,2.1-2.7,3.2-5.1,3.2C141.6,192,140.2,190.9,140.2,187.6z"/>
			<path class="st2" d="M150.8,164.4c3.6,0,6.6-0.4,9.3-1.5v26.5c0,1,0.6,2,2.9,2v0.2h-12.3v-0.2c2.3,0,2.9-1,2.9-2v-22.6
				c0-1.4-0.7-2.1-2.9-2.1V164.4z"/>
			<path class="st2" d="M164.7,173.2c3.6,0,6.6-0.4,9.3-1.5v17.7c0,1,0.6,2,2.9,2v0.2h-12.3v-0.2c2.3,0,2.9-1,2.9-2v-13.9
				c0-1.4-0.7-2.1-2.9-2.1V173.2z M166.7,165.8c0-2,1.6-3.4,4-3.4s4,1.4,4,3.4c0,2.1-1.6,3.4-4,3.4S166.7,167.9,166.7,165.8z"/>
			<path class="st2" d="M186.1,186.9c-1.3,0-2.2,0.8-2.2,2c0,1.1,0.8,2.6,3.5,2.8v0.2c-5.2-0.2-8-1.6-8-3.9c0-1.8,1.6-2.9,3.3-2.9
				C184.2,185.2,185.5,186,186.1,186.9z M187.4,171.9c-1.4,0.3-2.8,1-2.8,2.6c0.1,4.5,12.8,5.3,12.8,11.5c0,3.8-3.2,5.8-8.2,6v-0.2
				c1.6-0.3,3.5-0.9,3.5-2.9c0-4.1-12.8-5.5-12.8-11.5c0-3.4,3.2-5.5,7.6-5.7V171.9z M196.6,175.7c0,1.2-0.9,2.4-2.9,2.4
				c-1.6,0-2.8-0.7-3.3-1.9c1.2-0.1,1.8-0.9,1.8-1.8c0-1.2-1.5-2.3-3-2.5v-0.2C193.5,171.9,196.6,173.5,196.6,175.7z"/>
			<path class="st2" d="M215.1,188.6v0.2c-1.2,1.8-3.7,3.2-6.7,3.2c-3.5,0-6-1.6-6-5.5v-12.8h-2l0.4-0.6h1.6v-4.2
				c2.4,0,4.7-0.7,6.4-2.2v6.4h5.3l-0.4,0.6h-4.8v12.9c0,2,0.7,4,2.6,4C212.5,190.6,213.8,189.9,215.1,188.6z"/>
		</g>
	</g>
</g>
</svg>
