<svg id="Layer_1" data-name="Layer 1" xmlns="http://www.w3.org/2000/svg" xmlns:xlink="http://www.w3.org/1999/xlink" viewBox="0 0 300 600"><defs><style>.cls-1{fill:none;}.cls-2{clip-path:url(#clip-path);}.cls-3{fill:#263845;}</style><clipPath id="clip-path"><rect class="cls-1" width="300" height="600"/></clipPath></defs><title>Artboard 1 copy 3</title><g class="cls-2"><path class="cls-3" d="M22.59,112.88c2.1,0,2.62-.84,2.62-1.79V91.28c0-.94-.52-1.78-2.62-1.78v-.21h8.57v21.8c0,1,.53,1.79,2.63,1.79v.21H22.59Zm10.32-9.1c3.22,0,4.66-3.15,4.66-7.42s-1.44-6.86-4.66-6.86v-.21c6.93,0,10.61,1.78,10.61,7.07S39.6,104,32.91,104Z"/><path class="cls-3" d="M53.67,111.09c0,.88.52,1.79,2.62,1.79v.21h-11v-.21c2.1,0,2.62-.91,2.62-1.79V98.67c0-1.26-.59-1.86-2.59-1.86V96.6a21.54,21.54,0,0,0,8.37-1.36ZM63.12,99a3.75,3.75,0,0,1-3.61,4,2.37,2.37,0,0,1-2-.77,2.57,2.57,0,0,0,1.36-2.38,1.85,1.85,0,0,0-2-1.89,2.4,2.4,0,0,0-2.1,1.33V99a4.85,4.85,0,0,1,4.55-3.78A3.55,3.55,0,0,1,63.12,99Z"/><path class="cls-3" d="M65,104.27a8.66,8.66,0,0,1,8.57-9v.21c-2.06.24-2.62,2-2.62,8.68,0,5,2.24,7.8,5.35,7.8a7.62,7.62,0,0,0,5.11-1.85v.21c-1.82,2.31-5.14,3.15-7.42,3.15A8.87,8.87,0,0,1,65,104.27Zm7.87-1.47c3.08,0,4.38-1,4.38-3.92,0-1.68-.7-3.22-2.28-3.43v-.21c4.62,0,6.86,3.29,6.86,6a10.9,10.9,0,0,1-.17,1.82H72.88Z"/><path class="cls-3" d="M92.48,111.09c0,.88.53,1.79,2.63,1.79v.21h-11v-.21c2.1,0,2.63-.91,2.63-1.79V98.67c0-1.26-.6-1.86-2.59-1.86V96.6a21.49,21.49,0,0,0,8.36-1.36Zm11.62-10.92v10.92c0,.88.49,1.79,2.59,1.79v.21h-11v-.21c2.07,0,2.63-.91,2.63-1.79V100.17c0-2-.77-3-2.45-3a3.07,3.07,0,0,0-2.31,1V98a5.65,5.65,0,0,1,5.11-2.8C102,95.24,104.1,96.71,104.1,100.17Zm11.59,0v10.92c0,.88.52,1.79,2.62,1.79v.21h-11v-.21c2.06,0,2.62-.91,2.62-1.79V100.17c0-2-.77-3-2.45-3a3.08,3.08,0,0,0-2.31,1V98a5.67,5.67,0,0,1,5.11-2.8C113.59,95.24,115.69,96.71,115.69,100.17Z"/><path class="cls-3" d="M119.64,96.57A21.36,21.36,0,0,0,128,95.2v15.89c0,.88.52,1.79,2.62,1.79v.21h-11v-.21c2.1,0,2.62-.91,2.62-1.79V98.63c0-1.26-.59-1.85-2.59-1.85ZM121.43,90c0-1.82,1.47-3,3.57-3s3.57,1.23,3.57,3-1.47,3.08-3.57,3.08S121.43,91.84,121.43,90Z"/><path class="cls-3" d="M140.11,108.5c0,2,.67,3,2.42,3a3.09,3.09,0,0,0,2.42-1.09v.21a5.84,5.84,0,0,1-5.43,2.84c-3.15,0-5.18-1.47-5.18-4.94V98.67c0-1.26-.6-1.86-2.59-1.86V96.6a21.49,21.49,0,0,0,8.36-1.36Zm11.66,2.24c0,1,.32,1.44.95,1.44s1.12-.53,1.68-1.58h.21c-.56,1.93-2.45,2.84-4.76,2.84S146,112,146,110V98.67c0-1.26-.6-1.86-2.49-1.86V96.6a22.86,22.86,0,0,0,8.26-1.36Z"/><path class="cls-3" d="M164.41,111.09c0,.88.52,1.79,2.62,1.79v.21H156v-.21c2.11,0,2.63-.91,2.63-1.79V98.67c0-1.26-.6-1.86-2.59-1.86V96.6a21.54,21.54,0,0,0,8.37-1.36ZM176,100.17v10.92c0,.88.49,1.79,2.59,1.79v.21h-11v-.21c2.06,0,2.62-.91,2.62-1.79V100.17c0-2-.77-3-2.45-3a3.08,3.08,0,0,0-2.31,1V98a5.67,5.67,0,0,1,5.11-2.8C173.93,95.24,176,96.71,176,100.17Zm11.58,0v10.92c0,.88.53,1.79,2.63,1.79v.21h-11v-.21c2.07,0,2.63-.91,2.63-1.79V100.17c0-2-.77-3-2.45-3a3.07,3.07,0,0,0-2.31,1V98a5.65,5.65,0,0,1,5.11-2.8C185.51,95.24,187.61,96.71,187.61,100.17Z"/><path class="cls-3" d="M30.32,150.09c0,.88.53,1.79,2.63,1.79v.21h-11v-.21c2.1,0,2.63-.91,2.63-1.79V137.67c0-1.26-.6-1.86-2.59-1.86v-.21a21.49,21.49,0,0,0,8.36-1.36Zm11.62-10.92v10.92c0,.88.49,1.79,2.59,1.79v.21h-11v-.21c2.07,0,2.63-.91,2.63-1.79V139.17c0-2-.77-3-2.45-3a3.07,3.07,0,0,0-2.31,1.05V137a5.65,5.65,0,0,1,5.11-2.8C39.84,134.24,41.94,135.71,41.94,139.17Zm11.59,0v10.92c0,.88.53,1.79,2.62,1.79v.21h-11v-.21c2.06,0,2.62-.91,2.62-1.79V139.17c0-2-.77-3-2.45-3A3.08,3.08,0,0,0,43,137.25V137a5.67,5.67,0,0,1,5.11-2.8C51.43,134.24,53.53,135.71,53.53,139.17Z"/><path class="cls-3" d="M66.76,134.45c-2.07.24-2.77,2-2.77,8.82,0,6.58.7,8.75,2.77,9v.21A8.92,8.92,0,0,1,58,143.27a8.77,8.77,0,0,1,8.72-9Zm10.08,8.82a8.92,8.92,0,0,1-8.68,9.17v-.21c2.06-.21,2.73-2.42,2.73-9,0-6.86-.7-8.61-2.73-8.82v-.21A8.72,8.72,0,0,1,76.84,143.27Z"/><path class="cls-3" d="M92.73,149.39v.21a7.33,7.33,0,0,1-6,2.84c-3.15,0-5.39-1.44-5.39-4.94V136H79.53l.39-.52h1.43v-3.78a8.85,8.85,0,0,0,5.74-2v5.74h4.73l-.39.52H87.09v11.59c0,1.75.67,3.57,2.31,3.57A5.17,5.17,0,0,0,92.73,149.39Z"/><path class="cls-3" d="M102.74,134.45c-2.07.24-2.77,2-2.77,8.82,0,6.58.7,8.75,2.77,9v.21A8.92,8.92,0,0,1,94,143.27a8.77,8.77,0,0,1,8.72-9Zm10.08,8.82a8.92,8.92,0,0,1-8.68,9.17v-.21c2.06-.21,2.73-2.42,2.73-9,0-6.86-.7-8.61-2.73-8.82v-.21A8.72,8.72,0,0,1,112.82,143.27Z"/><path class="cls-3" d="M123.53,150.09c0,.88.52,1.79,2.62,1.79v.21h-11v-.21c2.1,0,2.62-.91,2.62-1.79V137.67c0-1.26-.59-1.86-2.59-1.86v-.21a21.54,21.54,0,0,0,8.37-1.36ZM133,138a3.75,3.75,0,0,1-3.61,4,2.37,2.37,0,0,1-2-.77,2.57,2.57,0,0,0,1.36-2.38,1.85,1.85,0,0,0-2-1.89,2.4,2.4,0,0,0-2.1,1.33V138a4.85,4.85,0,0,1,4.55-3.78A3.55,3.55,0,0,1,133,138Z"/><path class="cls-3" d="M143.83,134.45c-2.07.24-3,2-3,8.68,0,5,2.56,7.8,5.67,7.8a7.62,7.62,0,0,0,5.11-1.85v.21c-1.82,2.31-5.14,3.15-7.42,3.15a9.15,9.15,0,0,1-9.35-9.17,9,9,0,0,1,9-9Zm7.77,3.74a3.25,3.25,0,0,1-3.5,3.36,3,3,0,0,1-3-2.2,3,3,0,0,0,1.68-2.56,2.08,2.08,0,0,0-1.5-2.31v-.24C149.81,134.24,151.6,136.2,151.6,138.19Z"/><path class="cls-3" d="M154.5,136a1.9,1.9,0,0,0-1.93-1.22v-.21h9.81v.21c-1.23,0-1.72.84-1.12,2.06l4.58,9.56-3,5.67h-.21ZM153,157.72c0-1.5,1.19-2.76,3.08-3.29a2.87,2.87,0,0,0-.14.88,2,2,0,0,0,2.07,2.34c1.22,0,2.2-1.29,3.53-3.53h.25c-1.93,3.6-3.26,6.72-5.71,6.72A2.91,2.91,0,0,1,153,157.72ZM167.31,143a9.56,9.56,0,0,0,1-4.52,3.38,3.38,0,0,0-3.57-3.67v-.21h8.72v.21c-1.16,0-1.61.45-2.28,1.64l-3.64,6.86Z"/><path class="cls-3" d="M182.57,134.45c-2.06.24-3,2-3,8.68,0,5,2.55,7.8,5.67,7.8a7.66,7.66,0,0,0,5.11-1.85v.21c-1.82,2.31-5.15,3.15-7.42,3.15a9.15,9.15,0,0,1-9.35-9.17,9,9,0,0,1,9-9Zm7.77,3.74a3.25,3.25,0,0,1-3.5,3.36,3,3,0,0,1-3-2.2,3,3,0,0,0,1.68-2.56,2.08,2.08,0,0,0-1.51-2.31v-.24C188.56,134.24,190.34,136.2,190.34,138.19Z"/><path class="cls-3" d="M192.16,127.73a21.36,21.36,0,0,0,8.37-1.37v23.73c0,.88.52,1.79,2.62,1.79v.21h-11v-.21c2.11,0,2.63-.91,2.63-1.79v-20.3c0-1.26-.6-1.85-2.59-1.85Z"/><path class="cls-3" d="M205.25,143.27a8.66,8.66,0,0,1,8.58-9v.21c-2.07.24-2.63,2-2.63,8.68,0,5,2.24,7.8,5.36,7.8a7.66,7.66,0,0,0,5.11-1.85v.21c-1.82,2.31-5.15,3.15-7.42,3.15A8.87,8.87,0,0,1,205.25,143.27Zm7.88-1.47c3.08,0,4.37-1,4.37-3.92,0-1.68-.7-3.22-2.27-3.43v-.21c4.62,0,6.86,3.29,6.86,5.95a9.94,9.94,0,0,1-.18,1.82h-8.78Z"/><path class="cls-3" d="M22,174.57a21.36,21.36,0,0,0,8.37-1.37v15.89c0,.88.52,1.79,2.62,1.79v.21H22v-.21c2.1,0,2.62-.91,2.62-1.79V176.63c0-1.26-.59-1.85-2.59-1.85ZM23.78,168c0-1.82,1.47-3.05,3.57-3.05s3.57,1.23,3.57,3.05-1.47,3.08-3.57,3.08S23.78,169.84,23.78,168Z"/><path class="cls-3" d="M34.45,190.88c2.1,0,2.63-.91,2.63-1.79V176.67c0-1.26-.6-1.86-2.59-1.86v-.21a21.49,21.49,0,0,0,8.36-1.36v15.85c0,.88.53,1.79,2.63,1.79v.21h-11Zm12.32,0c2.07,0,2.59-.91,2.59-1.79V178.17c0-2-1-3-2.76-3a3.72,3.72,0,0,0-2.66,1.08v-.21a7.14,7.14,0,0,1,5.81-2.83c3.15,0,5.39,1.47,5.39,4.93v10.92c0,.88.52,1.79,2.62,1.79v.21h-11Z"/><path class="cls-3" d="M65.74,186.92a1.8,1.8,0,0,0-2,1.75c0,1,.7,2.31,3.12,2.56v.21c-4.66-.18-7.21-1.44-7.21-3.47a2.73,2.73,0,0,1,3-2.59A3.57,3.57,0,0,1,65.74,186.92Zm1.16-13.47c-1.3.24-2.56.91-2.52,2.34.1,4.06,11.44,4.73,11.44,10.29,0,3.4-2.87,5.18-7.38,5.36v-.21c1.47-.25,3.11-.77,3.11-2.59,0-3.64-11.48-5-11.48-10.29,0-3.08,2.91-4.94,6.83-5.11Zm8.26,3.39c0,1.09-.84,2.17-2.59,2.17a3,3,0,0,1-3-1.68,1.56,1.56,0,0,0,1.58-1.64c0-1.05-1.33-2.07-2.73-2.24v-.21C72.39,173.45,75.16,174.88,75.16,176.84Z"/><path class="cls-3" d="M86.15,186.5c0,2,.66,3,2.41,3A3.09,3.09,0,0,0,91,188.39v.21a5.84,5.84,0,0,1-5.43,2.84c-3.15,0-5.18-1.47-5.18-4.94v-9.83c0-1.26-.59-1.86-2.59-1.86v-.21a21.54,21.54,0,0,0,8.37-1.36Zm11.65,2.24c0,1,.32,1.44,1,1.44s1.12-.53,1.68-1.58h.21c-.56,1.93-2.45,2.84-4.76,2.84S92,190,92,188V176.67c0-1.26-.6-1.86-2.49-1.86v-.21a22.86,22.86,0,0,0,8.26-1.36Z"/><path class="cls-3" d="M110.44,189.09c0,.88.52,1.79,2.62,1.79v.21H102v-.21c2.1,0,2.62-.91,2.62-1.79V176.67c0-1.26-.59-1.86-2.59-1.86v-.21a21.54,21.54,0,0,0,8.37-1.36ZM119.89,177a3.75,3.75,0,0,1-3.61,4,2.37,2.37,0,0,1-2-.77,2.57,2.57,0,0,0,1.36-2.38,1.85,1.85,0,0,0-2-1.89,2.4,2.4,0,0,0-2.1,1.33V177a4.85,4.85,0,0,1,4.55-3.78A3.55,3.55,0,0,1,119.89,177Z"/><path class="cls-3" d="M121.39,187c0-3.05,2.8-4.76,6.72-4.76h3.78v.21h-1a3.46,3.46,0,0,0-3.71,3.81c0,1.93.56,3.4,2.21,3.4a3.83,3.83,0,0,0,2.55-1.23v.21a7.44,7.44,0,0,1-5.56,2.84C123.35,191.44,121.36,189.76,121.39,187Zm1.4-9.91c0-1.78,1.61-3.6,6.37-3.81v.21a2.55,2.55,0,0,0-2.24,2.55c0,1.26.88,2,2.28,2.14a3.94,3.94,0,0,1-3.36,1.68A2.81,2.81,0,0,1,122.79,177.05Zm10.15,10.43V176.77c0-1.71-.66-3.08-2.38-3.32v-.21c5.81.21,8.12,2.41,8.12,7v8.5c0,1,.35,1.44,1,1.44s1.12-.53,1.68-1.58h.21c-.56,1.93-2.45,2.84-4.55,2.84C134.2,191.44,132.94,190.46,132.94,187.48Z"/><path class="cls-3" d="M142.64,190.88c2.1,0,2.62-.91,2.62-1.79V176.67c0-1.26-.59-1.86-2.59-1.86v-.21a21.54,21.54,0,0,0,8.37-1.36v15.85c0,.88.52,1.79,2.62,1.79v.21h-11Zm12.32,0c2.06,0,2.59-.91,2.59-1.79V178.17c0-2-1-3-2.77-3a3.72,3.72,0,0,0-2.66,1.08v-.21a7.15,7.15,0,0,1,5.81-2.83c3.15,0,5.39,1.47,5.39,4.93v10.92c0,.88.53,1.79,2.63,1.79v.21H155Z"/><path class="cls-3" d="M176.8,173.45c-2.07.24-3,2-3,8.68,0,5,2.56,7.8,5.67,7.8a7.62,7.62,0,0,0,5.11-1.85v.21c-1.82,2.31-5.14,3.15-7.42,3.15a9.15,9.15,0,0,1-9.35-9.17,9,9,0,0,1,9-9Zm7.77,3.74a3.25,3.25,0,0,1-3.5,3.36,3,3,0,0,1-3-2.2,3,3,0,0,0,1.68-2.56,2.08,2.08,0,0,0-1.5-2.31v-.24C182.78,173.24,184.57,175.2,184.57,177.19Z"/><path class="cls-3" d="M187.19,182.27a8.66,8.66,0,0,1,8.58-9v.21c-2.07.24-2.63,2-2.63,8.68,0,5,2.24,7.8,5.36,7.8a7.66,7.66,0,0,0,5.11-1.85v.21c-1.82,2.31-5.15,3.15-7.42,3.15A8.87,8.87,0,0,1,187.19,182.27Zm7.88-1.47c3.08,0,4.37-1,4.37-3.92,0-1.68-.7-3.22-2.27-3.43v-.21c4.62,0,6.86,3.29,6.86,5.95a9.94,9.94,0,0,1-.18,1.82h-8.78Z"/></g></svg>