<?xml version="1.0" encoding="utf-8"?>
<!-- Generator: Adobe Illustrator 24.0.3, SVG Export Plug-In . SVG Version: 6.00 Build 0)  -->
<svg version="1.1" id="Layer_1" xmlns="http://www.w3.org/2000/svg" xmlns:xlink="http://www.w3.org/1999/xlink" x="0px" y="0px"
	 viewBox="0 0 300 600" style="enable-background:new 0 0 300 600;" xml:space="preserve">
<style type="text/css">
	.st0{clip-path:url(#SVGID_2_);}
	.st1{enable-background:new    ;}
	.st2{fill:#FFFFFF;}
</style>
<title>Artboard 1 copy 2</title>
<g>
	<defs>
		<rect id="SVGID_1_" x="0.9" y="0.5" width="300" height="599.5"/>
	</defs>
	<clipPath id="SVGID_2_">
		<use xlink:href="#SVGID_1_"  style="overflow:visible;"/>
	</clipPath>
	<g class="st0">
		<g class="st1">
			<path class="st2" d="M30.9,57.6L36,68.2l-3.4,6.3h-0.2l-9.1-17.9c-0.4-0.8-0.9-1.4-2.1-1.4v-0.2h10.9v0.2
				C30.8,55.3,30.2,56.2,30.9,57.6z M43.7,57.6l5.1,10.7l-3.4,6.3h-0.2l-6.1-12.1l-1.2,2.3l-0.2-0.4c0.6-1.3,0.8-3.2,0.3-4.3
				l-1.8-3.4c-0.4-0.8-0.9-1.4-2.1-1.4v-0.2H45v0.2C43.6,55.3,43.1,56.2,43.7,57.6z M57.3,55.1v0.2c-1.3,0-1.8,0.5-2.5,1.8l-4.1,7.6
				l-0.2-0.4c0.7-1.2,1.1-2.9,1.1-5c0-2.1-1.2-4.1-4-4.1v-0.2H57.3z"/>
			<path class="st2" d="M57.7,56.2c3.6,0,6.6-0.4,9.3-1.5v17.7c0,1,0.6,2,2.9,2v0.2H57.6v-0.2c2.3,0,2.9-1,2.9-2V58.5
				c0-1.4-0.7-2.1-2.9-2.1V56.2z M59.6,48.8c0-2,1.6-3.4,4-3.4c2.3,0,4,1.4,4,3.4c0,2.1-1.6,3.4-4,3.4
				C61.3,52.3,59.6,50.9,59.6,48.8z"/>
			<path class="st2" d="M86.7,71.6v0.2C85.4,73.6,82.9,75,80,75c-3.5,0-6-1.6-6-5.5V56.7h-2l0.4-0.6H74v-4.2c2.4,0,4.7-0.7,6.4-2.2
				v6.4h5.3l-0.4,0.6h-4.8v12.9c0,2,0.7,4,2.6,4C84.1,73.6,85.4,72.9,86.7,71.6z"/>
			<path class="st2" d="M96.7,72.3c0,1,0.6,2,2.9,2v0.2H87.4v-0.2c2.3,0,2.9-1,2.9-2V49.7c0-1.4-0.7-2.1-2.9-2.1v-0.2
				c3.6,0,6.6-0.4,9.3-1.5V72.3z M110.4,60.2v12.2c0,1,0.6,2,2.9,2v0.2h-12.3v-0.2c2.3,0,2.9-1,2.9-2V60.2c0-2.2-1.1-3.3-3.1-3.3
				c-1.1,0-2,0.4-3,1.2v-0.2c1.1-1.6,3.6-3.2,6.5-3.2C107.9,54.7,110.4,56.3,110.4,60.2z"/>
			<path class="st2" d="M125.1,54.9c-2.3,0.3-3.1,2.2-3.1,9.8c0,7.3,0.8,9.8,3.1,10V75c-4.5,0-9.7-3.7-9.7-10.2s5.2-10,9.7-10.1
				V54.9z M136.4,64.7c0,6.5-5.2,10.2-9.7,10.2v-0.2c2.3-0.2,3-2.7,3-10c0-7.6-0.8-9.6-3-9.8v-0.2C131.2,54.7,136.4,58.1,136.4,64.7
				z"/>
			<path class="st2" d="M147.9,69.5c0,2.2,0.7,3.3,2.7,3.3c1,0,1.8-0.3,2.7-1.2v0.2c-0.9,1.7-2.9,3.2-6,3.2c-3.5,0-5.8-1.6-5.8-5.5
				v-11c0-1.4-0.7-2.1-2.9-2.1v-0.2c3.6,0,6.6-0.4,9.3-1.5V69.5z M160.9,72c0,1.1,0.4,1.6,1.1,1.6c0.6,0,1.2-0.6,1.9-1.8h0.2
				c-0.6,2.1-2.7,3.2-5.3,3.2c-2.7,0-4.3-1.6-4.3-3.8V58.5c0-1.4-0.7-2.1-2.8-2.1v-0.2c3.5,0,5.9-0.4,9.2-1.5V72z"/>
			<path class="st2" d="M180.7,71.6v0.2c-1.2,1.8-3.7,3.2-6.7,3.2c-3.5,0-6-1.6-6-5.5V56.7h-2l0.4-0.6h1.6v-4.2
				c2.4,0,4.7-0.7,6.4-2.2v6.4h5.3l-0.4,0.6h-4.8v12.9c0,2,0.7,4,2.6,4C178.1,73.6,179.4,72.9,180.7,71.6z"/>
		</g>
		<g class="st1">
			<path class="st2" d="M37.6,110.6v0.2c-1.2,1.8-3.7,3.2-6.7,3.2c-3.5,0-6-1.6-6-5.5V95.7h-2l0.4-0.6h1.6v-4.2
				c2.4,0,4.7-0.7,6.4-2.2v6.4h5.3l-0.4,0.6h-4.8v12.9c0,2,0.7,4,2.6,4C35,112.6,36.3,111.9,37.6,110.6z"/>
			<path class="st2" d="M47.7,111.4c0,1,0.6,2,2.9,2v0.2H38.3v-0.2c2.3,0,2.9-1,2.9-2V88.7c0-1.4-0.7-2.1-2.9-2.1v-0.2
				c3.6,0,6.6-0.4,9.3-1.5V111.4z M61.3,99.2v12.2c0,1,0.6,2,2.9,2v0.2H52v-0.2c2.3,0,2.9-1,2.9-2V99.2c0-2.2-1.1-3.3-3.1-3.3
				c-1.1,0-2,0.4-3,1.2v-0.2c1.1-1.6,3.6-3.2,6.5-3.2C58.8,93.7,61.3,95.3,61.3,99.2z"/>
			<path class="st2" d="M66.4,103.7c0-6.6,5-10,9.6-10.1v0.2c-2.3,0.3-2.9,2.2-2.9,9.7c0,5.6,2.5,8.7,6,8.7c2.2,0,3.9-0.6,5.7-2.1
				v0.2c-2,2.6-5.7,3.5-8.3,3.5C71.4,114,66.4,110.3,66.4,103.7z M75.1,102.1c3.4,0,4.9-1.1,4.9-4.4c0-1.9-0.8-3.6-2.5-3.8v-0.2
				c5.2,0,7.6,3.7,7.6,6.6c0,0.6-0.1,1.4-0.2,2h-9.8V102.1z"/>
		</g>
		<g class="st1">
			<path class="st2" d="M98.2,103.7c0-6.6,5-10,9.6-10.1v0.2c-2.3,0.3-2.9,2.2-2.9,9.7c0,5.6,2.5,8.7,6,8.7c2.2,0,3.9-0.6,5.7-2.1
				v0.2c-2,2.6-5.7,3.5-8.3,3.5C103.3,114,98.2,110.3,98.2,103.7z M107,102.1c3.4,0,4.9-1.1,4.9-4.4c0-1.9-0.8-3.6-2.5-3.8v-0.2
				c5.2,0,7.6,3.7,7.6,6.6c0,0.6-0.1,1.4-0.2,2H107V102.1z"/>
		</g>
		<g class="st1">
			<path class="st2" d="M117.7,113.3c1.4,0,3-0.9,4.1-2.6l3.5-5.2l0.2,0.4c-0.6,1-1.2,2.5-1.2,4.2c0,1.8,1.2,3.3,2.9,3.3v0.2h-9.4
				V113.3z M129,113.3c1.6,0,2.2-0.5,2.2-1.3c0-0.6-0.3-1.3-0.8-2l-9.2-14.3c-0.5-0.8-1.1-1.4-3-1.4v-0.2h11.8v0.2
				c-1.2,0-1.8,0.2-1.8,0.9c0,0.7,0.4,1.3,1.1,2.5l9.1,14.4c0.5,0.8,1.2,1.4,2.3,1.4v0.2H129V113.3z M134.2,101.5
				c0.6-1.2,0.9-2.5,0.9-3.9c0-1.9-1.1-3.3-3.1-3.3v-0.2h8.3v0.2c-1.1,0-2.1,0.8-2.8,2.2l-3,5.3L134.2,101.5z"/>
		</g>
		<g class="st1">
			<path class="st2" d="M151.8,93.9c-2.3,0.3-3.3,2.2-3.3,9.7c0,5.6,2.8,8.7,6.3,8.7c2.2,0,3.9-0.6,5.7-2.1v0.2
				c-2,2.6-5.7,3.5-8.3,3.5c-5,0-10.4-3.7-10.4-10.2s5.4-10,10-10.1V93.9z M160.5,98.1c0,2.1-1.4,3.7-3.9,3.7
				c-1.9,0-3.2-1.2-3.4-2.5c1.1-0.4,1.9-1.8,1.9-2.8c0-0.9-0.2-2.3-1.7-2.6v-0.3C158.5,93.7,160.5,95.9,160.5,98.1z"/>
			<path class="st2" d="M163.4,103.7c0-6.6,5-10,9.6-10.1v0.2c-2.3,0.3-2.9,2.2-2.9,9.7c0,5.6,2.5,8.7,6,8.7c2.2,0,3.9-0.6,5.7-2.1
				v0.2c-2,2.6-5.7,3.5-8.3,3.5C168.5,114,163.4,110.3,163.4,103.7z M172.2,102.1c3.4,0,4.9-1.1,4.9-4.4c0-1.9-0.8-3.6-2.5-3.8v-0.2
				c5.2,0,7.6,3.7,7.6,6.6c0,0.6-0.1,1.4-0.2,2h-9.8V102.1z"/>
			<path class="st2" d="M192.2,108.9c-1.3,0-2.2,0.8-2.2,2c0,1.1,0.8,2.6,3.5,2.8v0.2c-5.2-0.2-8-1.6-8-3.9c0-1.8,1.6-2.9,3.3-2.9
				C190.3,107.2,191.6,108,192.2,108.9z M193.5,93.9c-1.4,0.3-2.8,1-2.8,2.6c0.1,4.5,12.8,5.3,12.8,11.5c0,3.8-3.2,5.8-8.2,6v-0.2
				c1.6-0.3,3.5-0.9,3.5-2.9c0-4.1-12.8-5.5-12.8-11.5c0-3.4,3.2-5.5,7.6-5.7V93.9z M202.7,97.7c0,1.2-0.9,2.4-2.9,2.4
				c-1.6,0-2.8-0.7-3.3-1.9c1.2-0.1,1.8-0.9,1.8-1.8c0-1.2-1.5-2.3-3-2.5v-0.2C199.6,93.9,202.7,95.5,202.7,97.7z"/>
			<path class="st2" d="M213.5,108.9c-1.3,0-2.2,0.8-2.2,2c0,1.1,0.8,2.6,3.5,2.8v0.2c-5.2-0.2-8-1.6-8-3.9c0-1.8,1.6-2.9,3.3-2.9
				C211.6,107.2,212.9,108,213.5,108.9z M214.8,93.9c-1.4,0.3-2.8,1-2.8,2.6c0.1,4.5,12.8,5.3,12.8,11.5c0,3.8-3.2,5.8-8.2,6v-0.2
				c1.6-0.3,3.5-0.9,3.5-2.9c0-4.1-12.8-5.5-12.8-11.5c0-3.4,3.2-5.5,7.6-5.7V93.9z M224,97.7c0,1.2-0.9,2.4-2.9,2.4
				c-1.6,0-2.8-0.7-3.3-1.9c1.2-0.1,1.8-0.9,1.8-1.8c0-1.2-1.5-2.3-3-2.5v-0.2C220.9,93.9,224,95.5,224,97.7z"/>
			<path class="st2" d="M227.4,95.2c3.6,0,6.6-0.4,9.3-1.5v17.7c0,1,0.6,2,2.9,2v0.2h-12.3v-0.2c2.3,0,2.9-1,2.9-2V97.5
				c0-1.4-0.7-2.1-2.9-2.1V95.2z M229.4,87.8c0-2,1.6-3.4,4-3.4c2.3,0,4,1.4,4,3.4c0,2.1-1.6,3.4-4,3.4
				C231,91.3,229.4,89.9,229.4,87.8z"/>
		</g>
		<g class="st1">
			<path class="st2" d="M242.1,95.7c-0.4-0.8-0.9-1.4-2.1-1.4v-0.2h10.9v0.2c-1.4,0-1.9,0.9-1.2,2.3l5.1,10.7l-3.4,6.3h-0.2
				L242.1,95.7z M256.4,103.4c0.7-1.2,1.1-2.9,1.1-5c0-2.1-1.2-4.1-4-4.1v-0.2h9.7v0.2c-1.3,0-1.8,0.5-2.5,1.8l-4.1,7.6L256.4,103.4
				z"/>
		</g>
		<g class="st1">
			<path class="st2" d="M263.6,103.7c0-6.6,5-10,9.6-10.1v0.2c-2.3,0.3-2.9,2.2-2.9,9.7c0,5.6,2.5,8.7,6,8.7c2.2,0,3.9-0.6,5.7-2.1
				v0.2c-2,2.6-5.7,3.5-8.3,3.5C268.6,114,263.6,110.3,263.6,103.7z M272.3,102.1c3.4,0,4.9-1.1,4.9-4.4c0-1.9-0.8-3.6-2.5-3.8v-0.2
				c5.2,0,7.6,3.7,7.6,6.6c0,0.6-0.1,1.4-0.2,2h-9.8V102.1z"/>
		</g>
		<g class="st1">
			<path class="st2" d="M31.5,158.5c0,1.4,0.7,2.1,2.9,2.1v0.2c-3.6,0-6,0.4-9.3,1.5v-25.9c0-1.4-0.7-2.1-2.9-2.1v-0.2
				c3.6,0,6-0.4,9.3-1.5V158.5z M46.3,142.6c0,8.2-4.3,10.3-8,10.3c-2.2,0-4.7-1.5-5.7-3.2v-0.2c1,0.7,2,1.4,3.3,1.4
				c1.8,0,3.8-1.3,3.8-8.3c0-7.1-1.8-8-3.8-8c-1.2,0-2.4,0.5-3.3,1.4v-0.3c1-1.6,3.5-3.1,5.7-3.1C42.1,132.7,46.3,134.9,46.3,142.6z
				"/>
		</g>
		<g class="st1">
			<path class="st2" d="M58.4,150.4c0,1,0.6,2,2.9,2v0.2H49.1v-0.2c2.3,0,2.9-1,2.9-2v-13.9c0-1.4-0.7-2.1-2.9-2.1v-0.2
				c3.6,0,6.6-0.4,9.3-1.5V150.4z M69,136.9c0,2.7-1.9,4.4-4,4.4c-0.9,0-1.8-0.2-2.2-0.9c0.7-0.4,1.5-1.2,1.5-2.7
				c0-1.1-0.8-2.1-2.2-2.1c-1,0-1.8,0.6-2.3,1.5v-0.3c0.7-2.5,2.7-4.2,5.1-4.2C67.5,132.7,69,134.6,69,136.9z"/>
		</g>
		<g class="st1">
			<path class="st2" d="M71.1,142.7c0-6.6,5-10,9.6-10.1v0.2c-2.3,0.3-2.9,2.2-2.9,9.7c0,5.6,2.5,8.7,6,8.7c2.2,0,3.9-0.6,5.7-2.1
				v0.2c-2,2.6-5.7,3.5-8.3,3.5C76.1,153,71.1,149.3,71.1,142.7z M79.8,141.1c3.4,0,4.9-1.1,4.9-4.4c0-1.9-0.8-3.6-2.5-3.8v-0.2
				c5.2,0,7.6,3.7,7.6,6.6c0,0.6-0.1,1.4-0.2,2h-9.8V141.1z"/>
			<path class="st2" d="M101.7,150.4c0,1,0.6,2,2.9,2v0.2H92.3v-0.2c2.3,0,2.9-1,2.9-2v-13.9c0-1.4-0.7-2.1-2.9-2.1v-0.2
				c3.6,0,6.6-0.4,9.3-1.5V150.4z M114.6,138.2v12.2c0,1,0.5,2,2.9,2v0.2h-12.3v-0.2c2.3,0,2.9-1,2.9-2v-12.2c0-2.2-0.9-3.3-2.7-3.3
				c-1.1,0-2.1,0.5-2.6,1.2v-0.2c0.9-1.6,2.8-3.1,5.7-3.1C112.3,132.7,114.6,134.3,114.6,138.2z M127.6,138.2v12.2c0,1,0.6,2,2.9,2
				v0.2h-12.3v-0.2c2.3,0,2.9-1,2.9-2v-12.2c0-2.2-0.9-3.3-2.7-3.3c-1.1,0-2.1,0.5-2.6,1.2v-0.2c0.9-1.6,2.8-3.1,5.7-3.1
				C125.2,132.7,127.6,134.3,127.6,138.2z"/>
			<path class="st2" d="M132,134.2c3.6,0,6.6-0.4,9.3-1.5v17.7c0,1,0.6,2,2.9,2v0.2h-12.3v-0.2c2.3,0,2.9-1,2.9-2v-13.9
				c0-1.4-0.7-2.1-2.9-2.1V134.2z M134,126.8c0-2,1.6-3.4,4-3.4c2.3,0,4,1.4,4,3.4c0,2.1-1.6,3.4-4,3.4
				C135.6,130.3,134,128.9,134,126.8z"/>
			<path class="st2" d="M154.8,147.5c0,2.2,0.7,3.3,2.7,3.3c1,0,1.8-0.3,2.7-1.2v0.2c-0.9,1.7-2.9,3.2-6,3.2c-3.5,0-5.8-1.6-5.8-5.5
				v-11c0-1.4-0.7-2.1-2.9-2.1v-0.2c3.6,0,6.6-0.4,9.3-1.5V147.5z M167.8,150c0,1.1,0.4,1.6,1.1,1.6c0.6,0,1.2-0.6,1.9-1.8h0.2
				c-0.6,2.1-2.7,3.2-5.3,3.2c-2.7,0-4.3-1.6-4.3-3.8v-12.6c0-1.4-0.7-2.1-2.8-2.1v-0.2c3.5,0,5.9-0.4,9.2-1.5V150z"/>
			<path class="st2" d="M181.9,150.4c0,1,0.6,2,2.9,2v0.2h-12.3v-0.2c2.3,0,2.9-1,2.9-2v-13.9c0-1.4-0.7-2.1-2.9-2.1v-0.2
				c3.6,0,6.6-0.4,9.3-1.5V150.4z M194.8,138.2v12.2c0,1,0.5,2,2.9,2v0.2h-12.3v-0.2c2.3,0,2.9-1,2.9-2v-12.2c0-2.2-0.9-3.3-2.7-3.3
				c-1.1,0-2.1,0.5-2.6,1.2v-0.2c0.9-1.6,2.8-3.1,5.7-3.1C192.5,132.7,194.8,134.3,194.8,138.2z M207.7,138.2v12.2c0,1,0.6,2,2.9,2
				v0.2h-12.3v-0.2c2.3,0,2.9-1,2.9-2v-12.2c0-2.2-0.9-3.3-2.7-3.3c-1.1,0-2.1,0.5-2.6,1.2v-0.2c0.9-1.6,2.8-3.1,5.7-3.1
				C205.4,132.7,207.7,134.3,207.7,138.2z"/>
			<path class="st2" d="M219.5,147.9c-1.3,0-2.2,0.8-2.2,2c0,1.1,0.8,2.6,3.5,2.8v0.2c-5.2-0.2-8-1.6-8-3.9c0-1.8,1.6-2.9,3.3-2.9
				C217.7,146.2,219,147,219.5,147.9z M220.8,132.9c-1.4,0.3-2.8,1-2.8,2.6c0.1,4.5,12.8,5.3,12.8,11.5c0,3.8-3.2,5.8-8.2,6v-0.2
				c1.6-0.3,3.5-0.9,3.5-2.9c0-4.1-12.8-5.5-12.8-11.5c0-3.4,3.2-5.5,7.6-5.7V132.9z M230,136.7c0,1.2-0.9,2.4-2.9,2.4
				c-1.6,0-2.8-0.7-3.3-1.9c1.2-0.1,1.8-0.9,1.8-1.8c0-1.2-1.5-2.3-3-2.5v-0.2C227,132.9,230,134.5,230,136.7z"/>
		</g>
	</g>
</g>
</svg>
