<svg id="Layer_1" data-name="Layer 1" xmlns="http://www.w3.org/2000/svg" xmlns:xlink="http://www.w3.org/1999/xlink" viewBox="0 0 300 600"><defs><style>.cls-1{fill:none;}.cls-2{clip-path:url(#clip-path);}.cls-3{fill:#fff;}</style><clipPath id="clip-path"><rect class="cls-1" x="0.89" y="0.51" width="300" height="599.49"/></clipPath></defs><title>Artboard 1 copy 2</title><g class="cls-2"><path class="cls-3" d="M29.93,98.34l4.59,9.56-3,5.67H31.3L23.18,97.5a1.9,1.9,0,0,0-1.93-1.22v-.21h9.8v.21C29.83,96.28,29.34,97.12,29.93,98.34Zm11.52,0L46,107.9l-3,5.67h-.21l-5.49-10.89-1.12,2.1-.21-.31a5.26,5.26,0,0,0,.28-3.89L34.69,97.5a1.89,1.89,0,0,0-1.92-1.22v-.21h9.8v.21C41.34,96.28,40.85,97.12,41.45,98.34Zm12.18-2.27v.21c-1.16,0-1.65.45-2.28,1.64l-3.64,6.86-.21-.31a9.56,9.56,0,0,0,1-4.52,3.38,3.38,0,0,0-3.57-3.67v-.21Z"/><path class="cls-3" d="M53.94,97.05a21.36,21.36,0,0,0,8.37-1.37v15.9c0,.87.52,1.78,2.62,1.78v.21h-11v-.21c2.1,0,2.62-.91,2.62-1.78V99.11c0-1.26-.59-1.85-2.59-1.85Zm1.79-6.58c0-1.82,1.47-3,3.57-3s3.57,1.23,3.57,3-1.47,3.08-3.57,3.08S55.73,92.32,55.73,90.47Z"/><path class="cls-3" d="M80,110.88v.2a7.29,7.29,0,0,1-6,2.84c-3.15,0-5.4-1.43-5.4-4.94V97.5H66.79l.38-.52H68.6V93.2a8.9,8.9,0,0,0,5.75-2V97h4.72l-.38.52H74.35v11.59c0,1.75.66,3.57,2.31,3.57A5.15,5.15,0,0,0,80,110.88Z"/><path class="cls-3" d="M89,111.58c0,.87.53,1.78,2.63,1.78v.21h-11v-.21c2.1,0,2.62-.91,2.62-1.78V91.27c0-1.26-.59-1.85-2.59-1.85v-.21A21.32,21.32,0,0,0,89,87.84Zm12.25-10.93v10.93c0,.87.53,1.78,2.63,1.78v.21h-11v-.21c2.06,0,2.59-.91,2.59-1.78V100.65c0-2-1-3-2.77-3a3.72,3.72,0,0,0-2.66,1.08v-.21a7.15,7.15,0,0,1,5.81-2.83C99,95.72,101.26,97.19,101.26,100.65Z"/><path class="cls-3" d="M114.49,95.93c-2.06.24-2.77,2-2.77,8.82,0,6.58.71,8.75,2.77,9v.21a8.92,8.92,0,0,1-8.72-9.17,8.77,8.77,0,0,1,8.72-9Zm10.08,8.82a8.91,8.91,0,0,1-8.68,9.17v-.21c2.07-.21,2.73-2.42,2.73-9,0-6.86-.7-8.61-2.73-8.82v-.21A8.72,8.72,0,0,1,124.57,104.75Z"/><path class="cls-3" d="M134.89,109c0,2,.67,3,2.42,3a3.09,3.09,0,0,0,2.41-1.08v.2a5.82,5.82,0,0,1-5.42,2.84c-3.15,0-5.18-1.47-5.18-4.94V99.15c0-1.26-.6-1.86-2.59-1.86v-.21a21.49,21.49,0,0,0,8.36-1.36Zm11.66,2.25c0,1,.32,1.43.95,1.43s1.12-.52,1.68-1.58h.21c-.56,1.93-2.45,2.84-4.76,2.84s-3.86-1.4-3.86-3.43V99.15c0-1.26-.59-1.86-2.48-1.86v-.21a22.86,22.86,0,0,0,8.26-1.36Z"/><path class="cls-3" d="M164.37,110.88v.2a7.3,7.3,0,0,1-6,2.84c-3.15,0-5.39-1.43-5.39-4.94V97.5h-1.82l.38-.52H153V93.2a8.89,8.89,0,0,0,5.74-2V97h4.73l-.39.52h-4.34v11.59c0,1.75.66,3.57,2.31,3.57A5.2,5.2,0,0,0,164.37,110.88Z"/><path class="cls-3" d="M36,149.88v.2a7.29,7.29,0,0,1-6,2.84c-3.15,0-5.39-1.43-5.39-4.94V136.5H22.76l.38-.52h1.44V132.2a8.89,8.89,0,0,0,5.74-2V136H35l-.38.52H30.32v11.59c0,1.75.66,3.57,2.31,3.57A5.15,5.15,0,0,0,36,149.88Z"/><path class="cls-3" d="M45,150.58c0,.87.53,1.78,2.63,1.78v.21h-11v-.21c2.1,0,2.63-.91,2.63-1.78V130.27c0-1.26-.6-1.85-2.59-1.85v-.21A21.3,21.3,0,0,0,45,126.84Zm12.25-10.93v10.93c0,.87.53,1.78,2.63,1.78v.21h-11v-.21c2.06,0,2.59-.91,2.59-1.78V139.65c0-2-1-3-2.77-3A3.72,3.72,0,0,0,46,137.76v-.21a7.15,7.15,0,0,1,5.81-2.83C55,134.72,57.23,136.19,57.23,139.65Z"/><path class="cls-3" d="M61.74,143.75a8.66,8.66,0,0,1,8.58-9v.21c-2.06.24-2.62,2-2.62,8.68,0,5,2.24,7.81,5.35,7.81a7.63,7.63,0,0,0,5.11-1.86v.21c-1.82,2.31-5.14,3.15-7.42,3.15A8.87,8.87,0,0,1,61.74,143.75Zm7.88-1.47c3.08,0,4.38-1,4.38-3.92,0-1.68-.7-3.22-2.28-3.43v-.21c4.62,0,6.86,3.29,6.86,5.95a10.9,10.9,0,0,1-.17,1.82H69.62Z"/><path class="cls-3" d="M90.34,143.75a8.66,8.66,0,0,1,8.58-9v.21c-2.07.24-2.63,2-2.63,8.68,0,5,2.24,7.81,5.36,7.81a7.67,7.67,0,0,0,5.11-1.86v.21c-1.82,2.31-5.15,3.15-7.42,3.15A8.87,8.87,0,0,1,90.34,143.75Zm7.88-1.47c3.08,0,4.37-1,4.37-3.92,0-1.68-.7-3.22-2.27-3.43v-.21c4.62,0,6.86,3.29,6.86,5.95a9.94,9.94,0,0,1-.18,1.82H98.22Z"/><path class="cls-3" d="M107.8,152.36a4.72,4.72,0,0,0,3.68-2.31l3.12-4.69.2.31a7.63,7.63,0,0,0-1.12,3.75,2.75,2.75,0,0,0,2.6,2.94v.21H107.8Zm10.19,0c1.4,0,2-.45,2-1.19a3.77,3.77,0,0,0-.7-1.82L111,136.5c-.45-.7-1-1.22-2.69-1.22v-.21h10.61v.21c-1.09,0-1.58.21-1.58.77a4.44,4.44,0,0,0,1,2.2l8.15,12.89a2.37,2.37,0,0,0,2.07,1.22v.21H118Zm4.66-10.64a7.39,7.39,0,0,0,.8-3.5,2.68,2.68,0,0,0-2.8-2.94v-.21h7.42v.21a3.22,3.22,0,0,0-2.55,2L122.86,142Z"/><path class="cls-3" d="M138.47,134.93c-2.07.24-3,2-3,8.68,0,5,2.56,7.81,5.67,7.81a7.63,7.63,0,0,0,5.11-1.86v.21c-1.82,2.31-5.14,3.15-7.42,3.15a9.15,9.15,0,0,1-9.35-9.17,9,9,0,0,1,9-9Zm7.77,3.74a3.25,3.25,0,0,1-3.5,3.36,3,3,0,0,1-3.05-2.2,3,3,0,0,0,1.68-2.56,2.08,2.08,0,0,0-1.5-2.31v-.24C144.45,134.72,146.24,136.68,146.24,138.67Z"/><path class="cls-3" d="M148.86,143.75a8.66,8.66,0,0,1,8.57-9v.21c-2.06.24-2.62,2-2.62,8.68,0,5,2.24,7.81,5.36,7.81a7.67,7.67,0,0,0,5.11-1.86v.21c-1.82,2.31-5.15,3.15-7.43,3.15A8.87,8.87,0,0,1,148.86,143.75Zm7.87-1.47c3.09,0,4.38-1,4.38-3.92,0-1.68-.7-3.22-2.27-3.43v-.21c4.62,0,6.86,3.29,6.86,5.95a9.94,9.94,0,0,1-.18,1.82h-8.79Z"/><path class="cls-3" d="M174.65,148.4a1.8,1.8,0,0,0-2,1.76c0,1,.7,2.31,3.12,2.55v.21c-4.66-.17-7.21-1.43-7.21-3.46a2.73,2.73,0,0,1,3-2.6A3.57,3.57,0,0,1,174.65,148.4Zm1.16-13.47c-1.3.24-2.55.91-2.52,2.34.1,4.06,11.45,4.73,11.45,10.29,0,3.4-2.87,5.19-7.39,5.36v-.21c1.47-.24,3.12-.77,3.12-2.59,0-3.64-11.49-5-11.49-10.29,0-3.08,2.91-4.94,6.83-5.11Zm8.26,3.39c0,1.09-.84,2.17-2.59,2.17a3,3,0,0,1-3-1.68,1.55,1.55,0,0,0,1.57-1.64c0-1-1.33-2.07-2.73-2.24v-.21C181.31,134.93,184.07,136.36,184.07,138.32Z"/><path class="cls-3" d="M193.76,148.4a1.8,1.8,0,0,0-2,1.76c0,1,.7,2.31,3.12,2.55v.21c-4.66-.17-7.21-1.43-7.21-3.46a2.73,2.73,0,0,1,3-2.6A3.57,3.57,0,0,1,193.76,148.4Zm1.16-13.47c-1.3.24-2.56.91-2.52,2.34.1,4.06,11.45,4.73,11.45,10.29,0,3.4-2.88,5.19-7.39,5.36v-.21c1.47-.24,3.11-.77,3.11-2.59,0-3.64-11.48-5-11.48-10.29,0-3.08,2.91-4.94,6.83-5.11Zm8.26,3.39c0,1.09-.84,2.17-2.59,2.17a3,3,0,0,1-3-1.68,1.56,1.56,0,0,0,1.58-1.64c0-1-1.33-2.07-2.73-2.24v-.21C200.42,134.93,203.18,136.36,203.18,138.32Z"/><path class="cls-3" d="M206.22,136.05a21.36,21.36,0,0,0,8.37-1.37v15.9c0,.87.52,1.78,2.62,1.78v.21h-11v-.21c2.1,0,2.62-.91,2.62-1.78V138.11c0-1.26-.59-1.85-2.59-1.85Zm1.79-6.58c0-1.82,1.47-3,3.57-3s3.57,1.23,3.57,3-1.47,3.08-3.57,3.08S208,131.32,208,129.47Z"/><path class="cls-3" d="M219.49,136.5a1.9,1.9,0,0,0-1.93-1.22v-.21h9.8v.21c-1.22,0-1.71.84-1.12,2.06l4.59,9.56-3,5.67h-.21Zm12.81,7a9.68,9.68,0,0,0,1-4.52,3.38,3.38,0,0,0-3.57-3.67v-.21h8.72v.21c-1.16,0-1.62.45-2.28,1.64l-3.64,6.86Z"/><path class="cls-3" d="M238.7,143.75a8.66,8.66,0,0,1,8.58-9v.21c-2.07.24-2.63,2-2.63,8.68,0,5,2.24,7.81,5.36,7.81a7.67,7.67,0,0,0,5.11-1.86v.21c-1.82,2.31-5.15,3.15-7.42,3.15A8.87,8.87,0,0,1,238.7,143.75Zm7.88-1.47c3.08,0,4.37-1,4.37-3.92,0-1.68-.7-3.22-2.27-3.43v-.21c4.62,0,6.86,3.29,6.86,5.95a9.94,9.94,0,0,1-.18,1.82h-8.78Z"/><path class="cls-3" d="M30.46,196.89c0,1.26.59,1.86,2.59,1.86V199a23.06,23.06,0,0,0-8.37,1.36V177.11c0-1.26-.59-1.85-2.59-1.85v-.21a22.85,22.85,0,0,0,8.37-1.37Zm13.33-14.25c0,7.32-3.85,9.28-7.17,9.28a6.52,6.52,0,0,1-5.11-2.84v-.2a4.92,4.92,0,0,0,2.94,1.22c1.64,0,3.39-1.16,3.39-7.46s-1.64-7.14-3.39-7.14a3.91,3.91,0,0,0-2.94,1.3v-.28a6.51,6.51,0,0,1,5.11-2.8C40,173.72,43.79,175.68,43.79,182.64Z"/><path class="cls-3" d="M54.64,189.58c0,.87.53,1.78,2.63,1.78v.21h-11v-.21c2.1,0,2.63-.91,2.63-1.78V177.15c0-1.26-.6-1.86-2.59-1.86v-.21a21.49,21.49,0,0,0,8.36-1.36Zm9.45-12.08a3.74,3.74,0,0,1-3.6,4,2.39,2.39,0,0,1-2-.77,2.56,2.56,0,0,0,1.37-2.38,1.86,1.86,0,0,0-2-1.89,2.39,2.39,0,0,0-2.1,1.33v-.28a4.84,4.84,0,0,1,4.55-3.78A3.55,3.55,0,0,1,64.09,177.5Z"/><path class="cls-3" d="M66,182.75a8.66,8.66,0,0,1,8.58-9v.21c-2.07.24-2.63,2-2.63,8.68,0,5,2.24,7.81,5.36,7.81a7.67,7.67,0,0,0,5.11-1.86v.21c-1.82,2.31-5.15,3.15-7.42,3.15A8.87,8.87,0,0,1,66,182.75Zm7.88-1.47c3.08,0,4.37-1,4.37-3.92,0-1.68-.7-3.22-2.27-3.43v-.21c4.62,0,6.86,3.29,6.86,5.95a9.94,9.94,0,0,1-.18,1.82H73.86Z"/><path class="cls-3" d="M93.46,189.58c0,.87.52,1.78,2.62,1.78v.21h-11v-.21c2.1,0,2.63-.91,2.63-1.78V177.15c0-1.26-.6-1.86-2.59-1.86v-.21a21.54,21.54,0,0,0,8.37-1.36Zm11.62-10.93v10.93c0,.87.49,1.78,2.59,1.78v.21h-11v-.21c2.06,0,2.62-.91,2.62-1.78V178.65c0-2-.77-3-2.45-3a3.08,3.08,0,0,0-2.31,1v-.21a5.67,5.67,0,0,1,5.11-2.8C103,173.72,105.08,175.19,105.08,178.65Zm11.58,0v10.93c0,.87.53,1.78,2.63,1.78v.21h-11v-.21c2.07,0,2.63-.91,2.63-1.78V178.65c0-2-.77-3-2.45-3a3.07,3.07,0,0,0-2.31,1v-.21a5.65,5.65,0,0,1,5.11-2.8C114.56,173.72,116.66,175.19,116.66,178.65Z"/><path class="cls-3" d="M120.61,175.05a21.32,21.32,0,0,0,8.37-1.37v15.9c0,.87.53,1.78,2.63,1.78v.21h-11v-.21c2.1,0,2.62-.91,2.62-1.78V177.11c0-1.26-.59-1.85-2.59-1.85Zm1.79-6.58c0-1.82,1.47-3.05,3.57-3.05s3.57,1.23,3.57,3.05-1.47,3.08-3.57,3.08S122.4,170.32,122.4,168.47Z"/><path class="cls-3" d="M141.09,187c0,2,.67,3,2.42,3a3.09,3.09,0,0,0,2.41-1.08v.2a5.84,5.84,0,0,1-5.43,2.84c-3.15,0-5.18-1.47-5.18-4.94v-9.83c0-1.26-.59-1.86-2.59-1.86v-.21a21.54,21.54,0,0,0,8.37-1.36Zm11.66,2.25c0,1,.31,1.43.94,1.43s1.12-.52,1.68-1.58h.21c-.56,1.93-2.45,2.84-4.76,2.84s-3.85-1.4-3.85-3.43V177.15c0-1.26-.59-1.86-2.49-1.86v-.21a22.87,22.87,0,0,0,8.27-1.36Z"/><path class="cls-3" d="M165.38,189.58c0,.87.52,1.78,2.63,1.78v.21H157v-.21c2.1,0,2.62-.91,2.62-1.78V177.15c0-1.26-.59-1.86-2.59-1.86v-.21a21.54,21.54,0,0,0,8.37-1.36ZM177,178.65v10.93c0,.87.49,1.78,2.59,1.78v.21h-11v-.21c2.07,0,2.63-.91,2.63-1.78V178.65c0-2-.77-3-2.45-3a3.07,3.07,0,0,0-2.31,1v-.21a5.65,5.65,0,0,1,5.11-2.8C174.9,173.72,177,175.19,177,178.65Zm11.59,0v10.93c0,.87.52,1.78,2.62,1.78v.21h-11v-.21c2.06,0,2.62-.91,2.62-1.78V178.65c0-2-.77-3-2.45-3a3.08,3.08,0,0,0-2.31,1v-.21a5.67,5.67,0,0,1,5.11-2.8C186.49,173.72,188.59,175.19,188.59,178.65Z"/><path class="cls-3" d="M199.19,187.4a1.79,1.79,0,0,0-2,1.76c0,1,.7,2.31,3.11,2.55v.21c-4.65-.17-7.21-1.43-7.21-3.46a2.73,2.73,0,0,1,3-2.6A3.58,3.58,0,0,1,199.19,187.4Zm1.15-13.47c-1.29.24-2.55.91-2.52,2.34.11,4.06,11.45,4.73,11.45,10.29,0,3.4-2.87,5.19-7.39,5.36v-.21c1.47-.24,3.12-.77,3.12-2.59,0-3.64-11.48-5-11.48-10.29,0-3.08,2.9-4.94,6.82-5.11Zm8.26,3.39c0,1.09-.84,2.17-2.59,2.17a3,3,0,0,1-3-1.68,1.55,1.55,0,0,0,1.57-1.64c0-1-1.33-2.07-2.73-2.24v-.21C205.84,173.93,208.6,175.36,208.6,177.32Z"/></g></svg>