<svg id="Layer_1" data-name="Layer 1" xmlns="http://www.w3.org/2000/svg" xmlns:xlink="http://www.w3.org/1999/xlink" viewBox="0 0 300 600"><defs><style>.cls-1{fill:none;}.cls-2{clip-path:url(#clip-path);}.cls-3{fill:#fff;}</style><clipPath id="clip-path"><rect class="cls-1" y="0.51" width="300" height="599.49"/></clipPath></defs><title>Artboard 1 copy 4</title><g class="cls-2"><path class="cls-3" d="M22.15,74.36c2.1,0,2.62-.8,2.62-1.78V52.76c0-1-.52-1.78-2.62-1.78v-.21h8.57V72.58c0,1,.53,1.78,2.63,1.78v.21H22.15ZM32.47,51v-.21H42.1v7h-.28C40.21,52.8,37.79,51.33,32.47,51Zm1.93,11.9-1.93-.18v-.21l1.93-.17a5.42,5.42,0,0,0,4.62-3h.28v6.51H39A5.31,5.31,0,0,0,34.4,62.88Z"/><path class="cls-3" d="M52.28,72.58c0,.87.53,1.78,2.63,1.78v.21h-11v-.21c2.1,0,2.63-.91,2.63-1.78V60.15c0-1.26-.6-1.86-2.59-1.86v-.21a21.49,21.49,0,0,0,8.36-1.36ZM61.73,60.5a3.74,3.74,0,0,1-3.6,4,2.39,2.39,0,0,1-2-.77,2.56,2.56,0,0,0,1.37-2.38,1.86,1.86,0,0,0-2-1.89,2.39,2.39,0,0,0-2.1,1.33V60.5A4.84,4.84,0,0,1,58,56.72,3.55,3.55,0,0,1,61.73,60.5Z"/><path class="cls-3" d="M72.34,56.93c-2.07.24-2.77,2-2.77,8.82,0,6.58.7,8.75,2.77,9v.21a8.92,8.92,0,0,1-8.72-9.17,8.77,8.77,0,0,1,8.72-9Zm10.08,8.82a8.92,8.92,0,0,1-8.68,9.17v-.21c2.06-.21,2.73-2.42,2.73-9,0-6.86-.7-8.61-2.73-8.82v-.21A8.72,8.72,0,0,1,82.42,65.75Z"/><path class="cls-3" d="M93.13,72.58c0,.87.52,1.78,2.62,1.78v.21h-11v-.21c2.1,0,2.62-.91,2.62-1.78V60.15c0-1.26-.59-1.86-2.59-1.86v-.21a21.54,21.54,0,0,0,8.37-1.36Zm11.62-10.93V72.58c0,.87.49,1.78,2.59,1.78v.21h-11v-.21c2.06,0,2.62-.91,2.62-1.78V61.65c0-2-.77-3-2.45-3a3.08,3.08,0,0,0-2.31,1v-.21a5.67,5.67,0,0,1,5.11-2.8C102.65,56.72,104.75,58.19,104.75,61.65Zm11.58,0V72.58c0,.87.53,1.78,2.63,1.78v.21h-11v-.21c2.07,0,2.63-.91,2.63-1.78V61.65c0-2-.77-3-2.45-3a3.07,3.07,0,0,0-2.31,1v-.21a5.65,5.65,0,0,1,5.11-2.8C114.23,56.72,116.33,58.19,116.33,61.65Z"/><path class="cls-3" d="M132.85,56.3l.28.42.28,14.7c0,1.51,1.12,2.94,3.43,2.94v.21h-7.7v-.21c2.31,0,3.4-1.47,3.43-2.94ZM151.4,74.57h-3.88L132.89,52.76A3.82,3.82,0,0,0,129.18,51v-.21h9.34L151.4,70.05Zm-.07-8-.28-.39-.42-12.21c0-1.51-1.12-2.94-3.43-2.94v-.21h7.7V51c-2.31,0-3.43,1.47-3.43,2.94Z"/><path class="cls-3" d="M170.55,50.77h6.68l-13.89,23.8h-6.65Zm-12.85,0h10.57l-.1.21c-5.18.28-9.31,3.85-10.19,8.22h-.28Zm8,23.59A12,12,0,0,0,176.64,65h.28v9.56H165.61Z"/><path class="cls-3" d="M187,51.89c0,2-2.17,4.72-5.68,6.16l-.1-.32a4.87,4.87,0,0,0,2-3.39A2.19,2.19,0,0,0,180.83,52c.28-2.07,1.51-3.19,3.33-3.19A2.82,2.82,0,0,1,187,51.89Z"/><path class="cls-3" d="M194.17,70.4a1.8,1.8,0,0,0-2,1.76c0,1,.7,2.31,3.12,2.55v.21c-4.66-.17-7.21-1.43-7.21-3.46a2.73,2.73,0,0,1,3-2.6A3.57,3.57,0,0,1,194.17,70.4Zm1.16-13.47c-1.3.24-2.56.91-2.52,2.34.1,4.06,11.44,4.73,11.44,10.29,0,3.4-2.87,5.19-7.38,5.36v-.21c1.47-.24,3.11-.77,3.11-2.59,0-3.64-11.48-5-11.48-10.29,0-3.08,2.91-4.94,6.83-5.11Zm8.26,3.39c0,1.09-.84,2.17-2.59,2.17a3,3,0,0,1-3-1.68,1.56,1.56,0,0,0,1.58-1.64c0-1.05-1.33-2.07-2.73-2.24v-.21C200.82,56.93,203.59,58.36,203.59,60.32Z"/><path class="cls-3" d="M21.31,89.21a21.3,21.3,0,0,0,8.36-1.37v23.74c0,.87.53,1.78,2.63,1.78v.21h-11v-.21c2.1,0,2.63-.91,2.63-1.78V91.27c0-1.26-.6-1.85-2.59-1.85Z"/><path class="cls-3" d="M34.4,104.75a8.66,8.66,0,0,1,8.57-9v.21c-2.06.24-2.62,2-2.62,8.68,0,5,2.24,7.81,5.35,7.81a7.63,7.63,0,0,0,5.11-1.86v.21c-1.82,2.31-5.14,3.15-7.42,3.15A8.87,8.87,0,0,1,34.4,104.75Zm7.87-1.47c3.08,0,4.38-1,4.38-3.92,0-1.68-.7-3.22-2.28-3.43v-.21c4.62,0,6.86,3.29,6.86,6a10.9,10.9,0,0,1-.17,1.82H42.27Z"/><path class="cls-3" d="M53.75,109.44c0-3,2.8-4.76,6.72-4.76h3.78v.21h-1a3.46,3.46,0,0,0-3.71,3.81c0,1.93.56,3.4,2.21,3.4a3.82,3.82,0,0,0,2.55-1.22v.2a7.4,7.4,0,0,1-5.56,2.84C55.71,113.92,53.72,112.24,53.75,109.44Zm1.4-9.91c0-1.78,1.61-3.6,6.37-3.81v.21a2.55,2.55,0,0,0-2.24,2.55c0,1.26.88,2,2.28,2.14a3.94,3.94,0,0,1-3.36,1.68A2.81,2.81,0,0,1,55.15,99.53ZM65.3,110V99.25c0-1.71-.66-3.08-2.38-3.32v-.21c5.81.21,8.12,2.41,8.12,7v8.51c0,1,.35,1.43,1,1.43s1.12-.52,1.68-1.58h.21c-.56,1.93-2.45,2.84-4.55,2.84C66.56,113.92,65.3,112.94,65.3,110Z"/><path class="cls-3" d="M88.05,98.52v.28a3.84,3.84,0,0,0-2.9-1.3c-1.75,0-3.43.81-3.43,7.14s1.78,7.46,3.43,7.46a4.81,4.81,0,0,0,2.9-1.22v.2A6.46,6.46,0,0,1,83,113.92c-3.33,0-7.21-2-7.21-9.28,0-7,3.81-8.92,7.21-8.92A6.45,6.45,0,0,1,88.05,98.52Zm6.83,12.71c0,1,.31,1.43.94,1.43s1.12-.52,1.68-1.58h.21c-.56,1.93-2.45,2.84-4.55,2.84-2.8,0-4.06-1-4.06-4V91.27c0-1.26-.59-1.85-2.59-1.85v-.21a22.85,22.85,0,0,0,8.37-1.37Z"/><path class="cls-3" d="M99.18,97.05a21.36,21.36,0,0,0,8.37-1.37v15.9c0,.87.52,1.78,2.62,1.78v.21h-11v-.21c2.1,0,2.62-.91,2.62-1.78V99.11c0-1.26-.59-1.85-2.59-1.85ZM101,90.47c0-1.82,1.47-3,3.57-3s3.57,1.23,3.57,3-1.47,3.08-3.57,3.08S101,92.32,101,90.47Z"/><path class="cls-3" d="M111.64,113.36c2.1,0,2.63-.91,2.63-1.78V99.15c0-1.26-.6-1.86-2.6-1.86v-.21A21.51,21.51,0,0,0,120,95.72v15.86c0,.87.53,1.78,2.63,1.78v.21h-11Zm12.32,0c2.07,0,2.59-.91,2.59-1.78V100.65c0-2-1-3-2.76-3a3.72,3.72,0,0,0-2.66,1.08v-.21a7.14,7.14,0,0,1,5.81-2.83c3.15,0,5.39,1.47,5.39,4.93v10.93c0,.87.52,1.78,2.62,1.78v.21H124Z"/><path class="cls-3" d="M137,102.05c0-4.55,4.27-6.26,7.84-6.33v.21c-1.51.14-2.21,2-2.21,6,0,4.23.7,6,2.21,6.09v.21C141.32,108.25,137,106.57,137,102.05Zm9.31,20.06c3.5-.42,4.62-2.31,4.62-3.57,0-4.86-13.66-.52-13.66-6.79,0-1.44.74-2.56,2.35-3.57l.11.17a.82.82,0,0,0-.32.67c0,3.92,16-.63,16,7,0,3.61-3.11,6-9.06,6.3Zm-9-2.94c0-2.06,2.56-2.69,5.33-2.69a2.94,2.94,0,0,0-1.51,2.48c0,1.61,1.82,2.84,3.82,3.15v.21C141.18,122.25,137.29,121.48,137.29,119.17Zm9-11.13c1.71-.14,2.41-1.86,2.41-6.09,0-4.06-.73-5.88-2.41-6v-.21c3.71.07,8,1.78,8,6.33s-4.3,6.2-8,6.2Zm1.89-13c.59-1.79,2.2-4.2,4.62-4.2,1.85,0,3,1,3,2.66A2.79,2.79,0,0,1,153,96.28c0-1.47-.77-2.35-1.89-2.35a3.8,3.8,0,0,0-2.7,1.26Z"/><path class="cls-3" d="M29.88,150.58c0,.87.53,1.78,2.63,1.78v.21h-11v-.21c2.1,0,2.63-.91,2.63-1.78V138.15c0-1.26-.6-1.86-2.59-1.86v-.21a21.49,21.49,0,0,0,8.36-1.36ZM41.5,139.65v10.93c0,.87.49,1.78,2.59,1.78v.21h-11v-.21c2.07,0,2.63-.91,2.63-1.78V139.65c0-2-.77-3-2.45-3a3.07,3.07,0,0,0-2.31,1v-.21a5.65,5.65,0,0,1,5.11-2.8C39.4,134.72,41.5,136.19,41.5,139.65Zm11.59,0v10.93c0,.87.53,1.78,2.62,1.78v.21h-11v-.21c2.06,0,2.62-.91,2.62-1.78V139.65c0-2-.77-3-2.45-3a3.08,3.08,0,0,0-2.31,1v-.21a5.67,5.67,0,0,1,5.11-2.8C51,134.72,53.09,136.19,53.09,139.65Z"/><path class="cls-3" d="M66.32,134.93c-2.07.24-2.77,2-2.77,8.82,0,6.58.7,8.75,2.77,9v.21a8.92,8.92,0,0,1-8.72-9.17,8.77,8.77,0,0,1,8.72-9Zm10.08,8.82a8.92,8.92,0,0,1-8.68,9.17v-.21c2.06-.21,2.73-2.42,2.73-9,0-6.86-.7-8.61-2.73-8.82v-.21A8.72,8.72,0,0,1,76.4,143.75Z"/><path class="cls-3" d="M92.29,149.88v.2a7.3,7.3,0,0,1-6,2.84c-3.15,0-5.39-1.43-5.39-4.94V136.5H79.09l.39-.52h1.43V132.2a8.85,8.85,0,0,0,5.74-2V136h4.73l-.39.52H86.65v11.59c0,1.75.67,3.57,2.31,3.57A5.2,5.2,0,0,0,92.29,149.88Z"/><path class="cls-3" d="M102.3,134.93c-2.07.24-2.77,2-2.77,8.82,0,6.58.7,8.75,2.77,9v.21a8.92,8.92,0,0,1-8.72-9.17,8.77,8.77,0,0,1,8.72-9Zm10.08,8.82a8.92,8.92,0,0,1-8.68,9.17v-.21c2.06-.21,2.73-2.42,2.73-9,0-6.86-.7-8.61-2.73-8.82v-.21A8.72,8.72,0,0,1,112.38,143.75Z"/><path class="cls-3" d="M123.09,150.58c0,.87.52,1.78,2.62,1.78v.21h-11v-.21c2.1,0,2.62-.91,2.62-1.78V138.15c0-1.26-.59-1.86-2.59-1.86v-.21a21.54,21.54,0,0,0,8.37-1.36Zm9.45-12.08a3.75,3.75,0,0,1-3.61,4,2.37,2.37,0,0,1-2-.77,2.57,2.57,0,0,0,1.36-2.38,1.85,1.85,0,0,0-2-1.89,2.4,2.4,0,0,0-2.1,1.33v-.28a4.85,4.85,0,0,1,4.55-3.78A3.55,3.55,0,0,1,132.54,138.5Z"/><path class="cls-3" d="M143.39,134.93c-2.07.24-3,2-3,8.68,0,5,2.56,7.81,5.67,7.81a7.63,7.63,0,0,0,5.11-1.86v.21c-1.82,2.31-5.14,3.15-7.42,3.15a9.15,9.15,0,0,1-9.35-9.17,9,9,0,0,1,9-9Zm7.77,3.74a3.25,3.25,0,0,1-3.5,3.36,3,3,0,0,1-3-2.2,3,3,0,0,0,1.68-2.56,2.08,2.08,0,0,0-1.5-2.31v-.24C149.37,134.72,151.16,136.68,151.16,138.67Z"/><path class="cls-3" d="M154.06,136.5a1.9,1.9,0,0,0-1.93-1.22v-.21h9.81v.21c-1.23,0-1.72.84-1.12,2.06l4.58,9.56-3,5.67h-.21Zm-1.54,21.71c0-1.51,1.19-2.77,3.08-3.29a2.77,2.77,0,0,0-.14.87,2.05,2.05,0,0,0,2.07,2.35c1.22,0,2.2-1.3,3.53-3.54h.25c-1.93,3.61-3.26,6.72-5.71,6.72A2.91,2.91,0,0,1,152.52,158.21Zm14.35-14.74a9.56,9.56,0,0,0,1-4.52,3.38,3.38,0,0,0-3.57-3.67v-.21H173v.21c-1.16,0-1.61.45-2.28,1.64l-3.64,6.86Z"/><path class="cls-3" d="M182.13,134.93c-2.06.24-3,2-3,8.68,0,5,2.55,7.81,5.67,7.81a7.67,7.67,0,0,0,5.11-1.86v.21c-1.82,2.31-5.15,3.15-7.42,3.15a9.15,9.15,0,0,1-9.35-9.17,9,9,0,0,1,9-9Zm7.77,3.74a3.25,3.25,0,0,1-3.5,3.36,3,3,0,0,1-3-2.2,3,3,0,0,0,1.68-2.56,2.08,2.08,0,0,0-1.51-2.31v-.24C188.12,134.72,189.9,136.68,189.9,138.67Z"/><path class="cls-3" d="M191.72,128.21a21.36,21.36,0,0,0,8.37-1.37v23.74c0,.87.52,1.78,2.62,1.78v.21h-11v-.21c2.11,0,2.63-.91,2.63-1.78V130.27c0-1.26-.6-1.85-2.59-1.85Z"/><path class="cls-3" d="M204.81,143.75a8.66,8.66,0,0,1,8.58-9v.21c-2.07.24-2.63,2-2.63,8.68,0,5,2.24,7.81,5.36,7.81a7.67,7.67,0,0,0,5.11-1.86v.21c-1.82,2.31-5.15,3.15-7.42,3.15A8.87,8.87,0,0,1,204.81,143.75Zm7.88-1.47c3.08,0,4.37-1,4.37-3.92,0-1.68-.7-3.22-2.27-3.43v-.21c4.62,0,6.86,3.29,6.86,5.95a9.94,9.94,0,0,1-.18,1.82h-8.78Z"/><path class="cls-3" d="M28.2,187.4a1.8,1.8,0,0,0-2,1.76c0,1,.7,2.31,3.12,2.55v.21c-4.66-.17-7.21-1.43-7.21-3.46a2.73,2.73,0,0,1,3-2.6A3.57,3.57,0,0,1,28.2,187.4Zm1.16-13.47c-1.3.24-2.56.91-2.52,2.34.1,4.06,11.44,4.73,11.44,10.29,0,3.4-2.87,5.19-7.38,5.36v-.21c1.47-.24,3.11-.77,3.11-2.59,0-3.64-11.48-5-11.48-10.29,0-3.08,2.91-4.94,6.83-5.11Zm8.26,3.39c0,1.09-.84,2.17-2.59,2.17a3,3,0,0,1-3-1.68,1.56,1.56,0,0,0,1.58-1.64c0-1-1.33-2.07-2.73-2.24v-.21C34.85,173.93,37.62,175.36,37.62,177.32Z"/><path class="cls-3" d="M48.68,196.89c0,1.26.59,1.86,2.59,1.86V199a23.06,23.06,0,0,0-8.37,1.36V177.11c0-1.26-.59-1.85-2.59-1.85v-.21a22.85,22.85,0,0,0,8.37-1.37ZM62,182.64c0,7.32-3.85,9.28-7.17,9.28a6.52,6.52,0,0,1-5.11-2.84v-.2a4.92,4.92,0,0,0,2.94,1.22c1.64,0,3.39-1.16,3.39-7.46s-1.64-7.14-3.39-7.14a3.91,3.91,0,0,0-2.94,1.3v-.28a6.51,6.51,0,0,1,5.11-2.8C58.23,173.72,62,175.68,62,182.64Z"/><path class="cls-3" d="M65.09,182.75a8.66,8.66,0,0,1,8.58-9v.21c-2.07.24-2.63,2-2.63,8.68,0,5,2.24,7.81,5.36,7.81a7.67,7.67,0,0,0,5.11-1.86v.21c-1.82,2.31-5.15,3.15-7.42,3.15A8.87,8.87,0,0,1,65.09,182.75ZM73,181.28c3.08,0,4.37-1,4.37-3.92,0-1.68-.7-3.22-2.27-3.43v-.21c4.62,0,6.86,3.29,6.86,5.95a9.94,9.94,0,0,1-.18,1.82H73Z"/><path class="cls-3" d="M93.76,173.93c-2.07.24-3,2-3,8.68,0,5,2.56,7.81,5.67,7.81a7.63,7.63,0,0,0,5.11-1.86v.21c-1.82,2.31-5.14,3.15-7.42,3.15a9.15,9.15,0,0,1-9.35-9.17,9,9,0,0,1,9-9Zm7.77,3.74A3.25,3.25,0,0,1,98,181a3,3,0,0,1-3-2.2,3,3,0,0,0,1.68-2.56,2.08,2.08,0,0,0-1.5-2.31v-.24C99.74,173.72,101.53,175.68,101.53,177.67Z"/><path class="cls-3" d="M103.59,175.05a21.36,21.36,0,0,0,8.37-1.37v15.9c0,.87.52,1.78,2.62,1.78v.21h-11v-.21c2.1,0,2.62-.91,2.62-1.78V177.11c0-1.26-.59-1.85-2.59-1.85Zm1.79-6.58c0-1.82,1.47-3.05,3.57-3.05s3.57,1.23,3.57,3.05-1.47,3.08-3.57,3.08S105.38,170.32,105.38,168.47Z"/><path class="cls-3" d="M116.33,187.44c0-3.05,2.8-4.76,6.72-4.76h3.78v.21h-1a3.46,3.46,0,0,0-3.71,3.81c0,1.93.56,3.4,2.21,3.4a3.82,3.82,0,0,0,2.55-1.22v.2a7.4,7.4,0,0,1-5.56,2.84C118.29,191.92,116.29,190.24,116.33,187.44Zm1.4-9.91c0-1.78,1.61-3.6,6.37-3.81v.21a2.55,2.55,0,0,0-2.24,2.55c0,1.26.88,2,2.28,2.14a3.94,3.94,0,0,1-3.36,1.68A2.81,2.81,0,0,1,117.73,177.53ZM127.88,188V177.25c0-1.71-.66-3.08-2.38-3.32v-.21c5.81.21,8.12,2.41,8.12,7v8.51c0,1,.35,1.43,1,1.43s1.12-.52,1.68-1.58h.21c-.56,1.93-2.45,2.84-4.55,2.84C129.14,191.92,127.88,190.94,127.88,188Z"/><path class="cls-3" d="M137.4,167.21a21.36,21.36,0,0,0,8.37-1.37v23.74c0,.87.52,1.78,2.62,1.78v.21h-11v-.21c2.1,0,2.63-.91,2.63-1.78V169.27c0-1.26-.6-1.85-2.59-1.85Z"/><path class="cls-3" d="M149.93,175.05a21.39,21.39,0,0,0,8.37-1.37v15.9c0,.87.52,1.78,2.62,1.78v.21h-11v-.21c2.11,0,2.63-.91,2.63-1.78V177.11c0-1.26-.6-1.85-2.59-1.85Zm1.78-6.58c0-1.82,1.47-3.05,3.58-3.05s3.57,1.23,3.57,3.05-1.47,3.08-3.57,3.08S151.71,170.32,151.71,168.47Z"/><path class="cls-3" d="M169.11,187.4a1.79,1.79,0,0,0-2,1.76c0,1,.7,2.31,3.11,2.55v.21c-4.65-.17-7.21-1.43-7.21-3.46a2.73,2.73,0,0,1,3-2.6A3.58,3.58,0,0,1,169.11,187.4Zm1.15-13.47c-1.29.24-2.55.91-2.52,2.34.11,4.06,11.45,4.73,11.45,10.29,0,3.4-2.87,5.19-7.39,5.36v-.21c1.48-.24,3.12-.77,3.12-2.59,0-3.64-11.48-5-11.48-10.29,0-3.08,2.9-4.94,6.82-5.11Zm8.27,3.39c0,1.09-.84,2.17-2.59,2.17a3,3,0,0,1-3-1.68,1.56,1.56,0,0,0,1.58-1.64c0-1-1.33-2.07-2.74-2.24v-.21C175.76,173.93,178.53,175.36,178.53,177.32Z"/><path class="cls-3" d="M195.08,188.88v.2a7.3,7.3,0,0,1-6,2.84c-3.15,0-5.39-1.43-5.39-4.94V175.5h-1.82l.39-.52h1.43V171.2a8.85,8.85,0,0,0,5.74-2V175h4.73l-.39.52h-4.34v11.59c0,1.75.67,3.57,2.31,3.57A5.2,5.2,0,0,0,195.08,188.88Z"/></g></svg>