<?xml version="1.0" encoding="utf-8"?>
<!-- Generator: Adobe Illustrator 24.0.3, SVG Export Plug-In . SVG Version: 6.00 Build 0)  -->
<svg version="1.1" id="Layer_1" xmlns="http://www.w3.org/2000/svg" xmlns:xlink="http://www.w3.org/1999/xlink" x="0px" y="0px"
	 viewBox="0 0 300 600" style="enable-background:new 0 0 300 600;" xml:space="preserve">
<style type="text/css">
	.st0{clip-path:url(#SVGID_2_);}
	.st1{enable-background:new    ;}
	.st2{fill:#263845;}
</style>
<title>Artboard 1 copy 3</title>
<g>
	<defs>
		<rect id="SVGID_1_" y="0" width="300" height="600"/>
	</defs>
	<clipPath id="SVGID_2_">
		<use xlink:href="#SVGID_1_"  style="overflow:visible;"/>
	</clipPath>
	<g class="st0">
		<g class="st1">
			<path class="st2" d="M22.8,73.9c2.3,0,2.9-0.9,2.9-2V49.8c0-1.1-0.6-2-2.9-2v-0.2h9.6v24.3c0,1.1,0.6,2,2.9,2v0.2H22.8V73.9z
				 M34.3,63.7c3.6,0,5.2-3.5,5.2-8.3c0-4.6-1.6-7.6-5.2-7.6v-0.2c7.7,0,11.8,2,11.8,7.9c0,6-4.4,8.5-11.8,8.5V63.7z"/>
		</g>
		<g class="st1">
			<path class="st2" d="M57.4,71.9c0,1,0.6,2,2.9,2v0.2H48v-0.2c2.3,0,2.9-1,2.9-2V58c0-1.4-0.7-2.1-2.9-2.1v-0.2
				c3.6,0,6.6-0.4,9.3-1.5V71.9z M67.9,58.4c0,2.7-1.9,4.4-4,4.4c-0.9,0-1.8-0.2-2.2-0.9c0.7-0.4,1.5-1.2,1.5-2.7
				c0-1.1-0.8-2.1-2.2-2.1c-1,0-1.8,0.6-2.3,1.5v-0.3c0.7-2.5,2.7-4.2,5.1-4.2C66.5,54.2,67.9,56.1,67.9,58.4z"/>
		</g>
		<g class="st1">
			<path class="st2" d="M70,64.3c0-6.6,5-10,9.6-10.1v0.2c-2.3,0.3-2.9,2.2-2.9,9.7c0,5.6,2.5,8.7,6,8.7c2.2,0,3.9-0.6,5.7-2.1V71
				c-2,2.6-5.7,3.5-8.3,3.5C75.1,74.5,70,70.8,70,64.3z M78.8,62.6c3.4,0,4.9-1.1,4.9-4.4c0-1.9-0.8-3.6-2.5-3.8v-0.2
				c5.2,0,7.6,3.7,7.6,6.6c0,0.6-0.1,1.4-0.2,2h-9.8V62.6z"/>
			<path class="st2" d="M100.7,71.9c0,1,0.6,2,2.9,2v0.2H91.3v-0.2c2.3,0,2.9-1,2.9-2V58c0-1.4-0.7-2.1-2.9-2.1v-0.2
				c3.6,0,6.6-0.4,9.3-1.5V71.9z M113.6,59.7v12.2c0,1,0.5,2,2.9,2v0.2h-12.3v-0.2c2.3,0,2.9-1,2.9-2V59.7c0-2.2-0.9-3.3-2.7-3.3
				c-1.1,0-2.1,0.5-2.6,1.2v-0.2c0.9-1.6,2.8-3.1,5.7-3.1C111.3,54.2,113.6,55.8,113.6,59.7z M126.5,59.7v12.2c0,1,0.6,2,2.9,2v0.2
				h-12.3v-0.2c2.3,0,2.9-1,2.9-2V59.7c0-2.2-0.9-3.3-2.7-3.3c-1.1,0-2.1,0.5-2.6,1.2v-0.2c0.9-1.6,2.8-3.1,5.7-3.1
				C124.2,54.2,126.5,55.8,126.5,59.7z"/>
			<path class="st2" d="M130.9,55.7c3.6,0,6.6-0.4,9.3-1.5v17.7c0,1,0.6,2,2.9,2v0.2h-12.3v-0.2c2.3,0,2.9-1,2.9-2V58
				c0-1.4-0.7-2.1-2.9-2.1V55.7z M132.9,48.3c0-2,1.6-3.4,4-3.4c2.3,0,4,1.4,4,3.4c0,2.1-1.6,3.4-4,3.4
				C134.6,51.8,132.9,50.4,132.9,48.3z"/>
			<path class="st2" d="M153.7,69c0,2.2,0.7,3.3,2.7,3.3c1,0,1.8-0.3,2.7-1.2v0.2c-0.9,1.7-2.9,3.2-6,3.2c-3.5,0-5.8-1.6-5.8-5.5V58
				c0-1.4-0.7-2.1-2.9-2.1v-0.2c3.6,0,6.6-0.4,9.3-1.5V69z M166.7,71.5c0,1.1,0.4,1.6,1.1,1.6c0.6,0,1.2-0.6,1.9-1.8h0.2
				c-0.6,2.1-2.7,3.2-5.3,3.2c-2.7,0-4.3-1.6-4.3-3.8V58c0-1.4-0.7-2.1-2.8-2.1v-0.2c3.5,0,5.9-0.4,9.2-1.5V71.5z"/>
			<path class="st2" d="M180.8,71.9c0,1,0.6,2,2.9,2v0.2h-12.3v-0.2c2.3,0,2.9-1,2.9-2V58c0-1.4-0.7-2.1-2.9-2.1v-0.2
				c3.6,0,6.6-0.4,9.3-1.5V71.9z M193.8,59.7v12.2c0,1,0.5,2,2.9,2v0.2h-12.3v-0.2c2.3,0,2.9-1,2.9-2V59.7c0-2.2-0.9-3.3-2.7-3.3
				c-1.1,0-2.1,0.5-2.6,1.2v-0.2c0.9-1.6,2.8-3.1,5.7-3.1C191.4,54.2,193.8,55.8,193.8,59.7z M206.7,59.7v12.2c0,1,0.6,2,2.9,2v0.2
				h-12.3v-0.2c2.3,0,2.9-1,2.9-2V59.7c0-2.2-0.9-3.3-2.7-3.3c-1.1,0-2.1,0.5-2.6,1.2v-0.2c0.9-1.6,2.8-3.1,5.7-3.1
				C204.3,54.2,206.7,55.8,206.7,59.7z"/>
		</g>
		<g class="st1">
			<path class="st2" d="M31.4,110.9c0,1,0.6,2,2.9,2v0.2H22v-0.2c2.3,0,2.9-1,2.9-2V97c0-1.4-0.7-2.1-2.9-2.1v-0.2
				c3.6,0,6.6-0.4,9.3-1.5V110.9z M44.3,98.7v12.2c0,1,0.5,2,2.9,2v0.2H35v-0.2c2.3,0,2.9-1,2.9-2V98.7c0-2.2-0.9-3.3-2.7-3.3
				c-1.1,0-2.1,0.5-2.6,1.2v-0.2c0.9-1.6,2.8-3.1,5.7-3.1C42,93.2,44.3,94.8,44.3,98.7z M57.2,98.7v12.2c0,1,0.6,2,2.9,2v0.2H47.9
				v-0.2c2.3,0,2.9-1,2.9-2V98.7c0-2.2-0.9-3.3-2.7-3.3c-1.1,0-2.1,0.5-2.6,1.2v-0.2c0.9-1.6,2.8-3.1,5.7-3.1
				C54.9,93.2,57.2,94.8,57.2,98.7z"/>
			<path class="st2" d="M72,93.4c-2.3,0.3-3.1,2.2-3.1,9.8c0,7.3,0.8,9.8,3.1,10v0.2c-4.5,0-9.7-3.7-9.7-10.2s5.2-10,9.7-10.1V93.4z
				 M83.2,103.3c0,6.5-5.2,10.2-9.7,10.2v-0.2c2.3-0.2,3-2.7,3-10c0-7.6-0.8-9.6-3-9.8v-0.2C78.1,93.2,83.2,96.7,83.2,103.3z"/>
		</g>
		<g class="st1">
			<path class="st2" d="M100.9,110.1v0.2c-1.2,1.8-3.7,3.2-6.7,3.2c-3.5,0-6-1.6-6-5.5V95.2h-2l0.4-0.6h1.6v-4.2
				c2.4,0,4.7-0.7,6.4-2.2v6.4h5.3l-0.4,0.6h-4.8v12.9c0,2,0.7,4,2.6,4C98.3,112.1,99.6,111.4,100.9,110.1z"/>
		</g>
		<g class="st1">
			<path class="st2" d="M112.1,93.4c-2.3,0.3-3.1,2.2-3.1,9.8c0,7.3,0.8,9.8,3.1,10v0.2c-4.5,0-9.7-3.7-9.7-10.2s5.2-10,9.7-10.1
				V93.4z M123.3,103.3c0,6.5-5.2,10.2-9.7,10.2v-0.2c2.3-0.2,3-2.7,3-10c0-7.6-0.8-9.6-3-9.8v-0.2
				C118.2,93.2,123.3,96.7,123.3,103.3z"/>
		</g>
		<g class="st1">
			<path class="st2" d="M135.3,110.9c0,1,0.6,2,2.9,2v0.2h-12.3v-0.2c2.3,0,2.9-1,2.9-2V97c0-1.4-0.7-2.1-2.9-2.1v-0.2
				c3.6,0,6.6-0.4,9.3-1.5V110.9z M145.8,97.4c0,2.7-1.9,4.4-4,4.4c-0.9,0-1.8-0.2-2.2-0.9c0.7-0.4,1.5-1.2,1.5-2.7
				c0-1.1-0.8-2.1-2.2-2.1c-1,0-1.8,0.6-2.3,1.5v-0.3c0.7-2.5,2.7-4.2,5.1-4.2C144.3,93.2,145.8,95.1,145.8,97.4z"/>
		</g>
		<g class="st1">
			<path class="st2" d="M157.9,93.4c-2.3,0.3-3.3,2.2-3.3,9.7c0,5.6,2.8,8.7,6.3,8.7c2.2,0,3.9-0.6,5.7-2.1v0.2
				c-2,2.6-5.7,3.5-8.3,3.5c-5,0-10.4-3.7-10.4-10.2s5.4-10,10-10.1V93.4z M166.5,97.6c0,2.1-1.4,3.7-3.9,3.7
				c-1.9,0-3.2-1.2-3.4-2.5c1.1-0.4,1.9-1.8,1.9-2.8c0-0.9-0.2-2.3-1.7-2.6v-0.3C164.5,93.2,166.5,95.4,166.5,97.6z"/>
		</g>
		<g class="st1">
			<path class="st2" d="M169.8,95.2c-0.4-0.8-0.9-1.4-2.1-1.4v-0.2h10.9v0.2c-1.4,0-1.9,0.9-1.2,2.3l5.1,10.7l-3.4,6.3h-0.2
				L169.8,95.2z M168.1,119.4c0-1.7,1.3-3.1,3.4-3.7c-0.1,0.4-0.2,0.7-0.2,1c0,1.5,0.8,2.6,2.3,2.6c1.4,0,2.5-1.4,3.9-3.9h0.3
				c-2.1,4-3.6,7.5-6.4,7.5C169.3,122.9,168.1,121.4,168.1,119.4z M184.1,103c0.7-1.2,1.1-2.9,1.1-5c0-2.1-1.2-4.1-4-4.1v-0.2h9.7
				v0.2c-1.3,0-1.8,0.5-2.5,1.8l-4.1,7.6L184.1,103z"/>
		</g>
		<g class="st1">
			<path class="st2" d="M201.1,93.4c-2.3,0.3-3.3,2.2-3.3,9.7c0,5.6,2.8,8.7,6.3,8.7c2.2,0,3.9-0.6,5.7-2.1v0.2
				c-2,2.6-5.7,3.5-8.3,3.5c-5,0-10.4-3.7-10.4-10.2s5.4-10,10-10.1V93.4z M209.7,97.6c0,2.1-1.4,3.7-3.9,3.7
				c-1.9,0-3.2-1.2-3.4-2.5c1.1-0.4,1.9-1.8,1.9-2.8c0-0.9-0.2-2.3-1.7-2.6v-0.3C207.7,93.2,209.7,95.4,209.7,97.6z"/>
			<path class="st2" d="M211.7,85.9c3.6,0,6.6-0.4,9.3-1.5v26.5c0,1,0.6,2,2.9,2v0.2h-12.3v-0.2c2.3,0,2.9-1,2.9-2V88.2
				c0-1.4-0.7-2.1-2.9-2.1V85.9z"/>
			<path class="st2" d="M226.3,103.3c0-6.6,5-10,9.6-10.1v0.2c-2.3,0.3-2.9,2.2-2.9,9.7c0,5.6,2.5,8.7,6,8.7c2.2,0,3.9-0.6,5.7-2.1
				v0.2c-2,2.6-5.7,3.5-8.3,3.5C231.4,113.5,226.3,109.8,226.3,103.3z M235.1,101.6c3.4,0,4.9-1.1,4.9-4.4c0-1.9-0.8-3.6-2.5-3.8
				v-0.2c5.2,0,7.6,3.7,7.6,6.6c0,0.6-0.1,1.4-0.2,2h-9.8V101.6z"/>
		</g>
		<g class="st1">
			<path class="st2" d="M22.1,133.7c3.6,0,6.6-0.4,9.3-1.5v17.7c0,1,0.6,2,2.9,2v0.2H22.1v-0.2c2.3,0,2.9-1,2.9-2V136
				c0-1.4-0.7-2.1-2.9-2.1V133.7z M24.1,126.3c0-2,1.6-3.4,4-3.4c2.3,0,4,1.4,4,3.4c0,2.1-1.6,3.4-4,3.4
				C25.7,129.8,24.1,128.4,24.1,126.3z"/>
			<path class="st2" d="M36,151.9c2.3,0,2.9-1,2.9-2V136c0-1.4-0.7-2.1-2.9-2.1v-0.2c3.6,0,6.6-0.4,9.3-1.5v17.7c0,1,0.6,2,2.9,2
				v0.2H36V151.9z M49.7,151.9c2.3,0,2.9-1,2.9-2v-12.2c0-2.2-1.1-3.3-3.1-3.3c-1.1,0-2,0.4-3,1.2v-0.2c1.1-1.6,3.6-3.2,6.5-3.2
				c3.5,0,6,1.6,6,5.5v12.2c0,1,0.6,2,2.9,2v0.2H49.7V151.9z"/>
			<path class="st2" d="M70.9,147.5c-1.3,0-2.2,0.8-2.2,2c0,1.1,0.8,2.6,3.5,2.8v0.2c-5.2-0.2-8-1.6-8-3.9c0-1.8,1.6-2.9,3.3-2.9
				C69,145.7,70.3,146.5,70.9,147.5z M72.1,132.4c-1.4,0.3-2.8,1-2.8,2.6c0.1,4.5,12.8,5.3,12.8,11.5c0,3.8-3.2,5.8-8.2,6v-0.2
				c1.6-0.3,3.5-0.9,3.5-2.9c0-4.1-12.8-5.5-12.8-11.5c0-3.4,3.2-5.5,7.6-5.7V132.4z M81.4,136.2c0,1.2-0.9,2.4-2.9,2.4
				c-1.6,0-2.8-0.7-3.3-1.9c1.2-0.1,1.8-0.9,1.8-1.8c0-1.2-1.5-2.3-3-2.5v-0.2C78.3,132.4,81.4,134,81.4,136.2z"/>
			<path class="st2" d="M93.6,147c0,2.2,0.7,3.3,2.7,3.3c1,0,1.8-0.3,2.7-1.2v0.2c-0.9,1.7-2.9,3.2-6,3.2c-3.5,0-5.8-1.6-5.8-5.5
				v-11c0-1.4-0.7-2.1-2.9-2.1v-0.2c3.6,0,6.6-0.4,9.3-1.5V147z M106.6,149.5c0,1.1,0.4,1.6,1.1,1.6c0.6,0,1.2-0.6,1.9-1.8h0.2
				c-0.6,2.1-2.7,3.2-5.3,3.2c-2.7,0-4.3-1.6-4.3-3.8V136c0-1.4-0.7-2.1-2.8-2.1v-0.2c3.5,0,5.9-0.4,9.2-1.5V149.5z"/>
		</g>
		<g class="st1">
			<path class="st2" d="M120.7,149.9c0,1,0.6,2,2.9,2v0.2h-12.3v-0.2c2.3,0,2.9-1,2.9-2V136c0-1.4-0.7-2.1-2.9-2.1v-0.2
				c3.6,0,6.6-0.4,9.3-1.5V149.9z M131.2,136.4c0,2.7-1.9,4.4-4,4.4c-0.9,0-1.8-0.2-2.2-0.9c0.7-0.4,1.5-1.2,1.5-2.7
				c0-1.1-0.8-2.1-2.2-2.1c-1,0-1.8,0.6-2.3,1.5v-0.3c0.7-2.5,2.7-4.2,5.1-4.2C129.7,132.2,131.2,134.1,131.2,136.4z"/>
		</g>
		<g class="st1">
			<path class="st2" d="M132.9,147.5c0-3.4,3.1-5.3,7.5-5.3h4.2v0.2h-1.2c-2.8,0-4.1,1.8-4.1,4.3c0,2.1,0.6,3.8,2.5,3.8
				c1.1,0,2-0.6,2.8-1.4v0.2c-1.3,1.5-3.4,3.2-6.2,3.2C135.1,152.5,132.8,150.6,132.9,147.5z M134.4,136.5c0-2,1.8-4,7.1-4.3v0.2
				c-1.6,0.2-2.5,1.5-2.5,2.8c0,1.4,1,2.3,2.5,2.4c-0.6,1.1-2.2,1.9-3.7,1.9C135.7,139.5,134.4,138.1,134.4,136.5z M145.7,148.1
				v-11.9c0-1.9-0.7-3.4-2.7-3.7v-0.2c6.5,0.2,9.1,2.7,9.1,7.8v9.5c0,1.1,0.4,1.6,1.1,1.6c0.6,0,1.2-0.6,1.9-1.8h0.2
				c-0.6,2.1-2.7,3.2-5.1,3.2C147.1,152.5,145.7,151.4,145.7,148.1z"/>
			<path class="st2" d="M156.5,151.9c2.3,0,2.9-1,2.9-2V136c0-1.4-0.7-2.1-2.9-2.1v-0.2c3.6,0,6.6-0.4,9.3-1.5v17.7c0,1,0.6,2,2.9,2
				v0.2h-12.3V151.9z M170.3,151.9c2.3,0,2.9-1,2.9-2v-12.2c0-2.2-1.1-3.3-3.1-3.3c-1.1,0-2,0.4-3,1.2v-0.2c1.1-1.6,3.6-3.2,6.5-3.2
				c3.5,0,6,1.6,6,5.5v12.2c0,1,0.6,2,2.9,2v0.2h-12.3V151.9z"/>
			<path class="st2" d="M194.6,132.4c-2.3,0.3-3.3,2.2-3.3,9.7c0,5.6,2.8,8.7,6.3,8.7c2.2,0,3.9-0.6,5.7-2.1v0.2
				c-2,2.6-5.7,3.5-8.3,3.5c-5,0-10.4-3.7-10.4-10.2s5.4-10,10-10.1V132.4z M203.3,136.6c0,2.1-1.4,3.7-3.9,3.7
				c-1.9,0-3.2-1.2-3.4-2.5c1.1-0.4,1.9-1.8,1.9-2.8c0-0.9-0.2-2.3-1.7-2.6v-0.3C201.3,132.2,203.3,134.4,203.3,136.6z"/>
			<path class="st2" d="M206.2,142.3c0-6.6,5-10,9.6-10.1v0.2c-2.3,0.3-2.9,2.2-2.9,9.7c0,5.6,2.5,8.7,6,8.7c2.2,0,3.9-0.6,5.7-2.1
				v0.2c-2,2.6-5.7,3.5-8.3,3.5C211.2,152.5,206.2,148.8,206.2,142.3z M215,140.6c3.4,0,4.9-1.1,4.9-4.4c0-1.9-0.8-3.6-2.5-3.8v-0.2
				c5.2,0,7.6,3.7,7.6,6.6c0,0.6-0.1,1.4-0.2,2H215V140.6z"/>
		</g>
	</g>
</g>
</svg>
