<?xml version="1.0" encoding="utf-8"?>
<!-- Generator: Adobe Illustrator 24.0.3, SVG Export Plug-In . SVG Version: 6.00 Build 0)  -->
<svg version="1.1" id="Layer_1" xmlns="http://www.w3.org/2000/svg" xmlns:xlink="http://www.w3.org/1999/xlink" x="0px" y="0px"
	 viewBox="0 0 300 150" style="enable-background:new 0 0 300 150;" xml:space="preserve">
<style type="text/css">
	.st0{enable-background:new    ;}
	.st1{fill:#FFFFFF;}
</style>
<title>Artboard 8</title>
<g class="st0">
	<path class="st1" d="M25.9,87.9l0.1,0.2c-1.3,2.1-3.6,3-6,3c-4.1,0-9.1-2.9-9.1-8.7c0-6.3,4.9-8.7,8.5-8.8v0.2
		c-1.7,0.4-3.6,2-3.6,8.4c0,6.4,2.6,7.9,5.4,7.9C23.4,90.2,25,89,25.9,87.9z M26.1,73.7v6.1h-0.2c-1-3.3-2.8-5.2-5.3-5.9v-0.2
		c2.2,0.1,3.5,0.5,4.5,1.2l0.8-1.2H26.1z"/>
	<path class="st1" d="M33.6,89.5c0,0.6,0.4,1.3,1.9,1.3v0.2h-7.9v-0.2c1.5,0,1.9-0.6,1.9-1.3V75c0-0.9-0.4-1.3-1.8-1.3v-0.1
		c2.3,0,4.2-0.2,6-1V89.5z M42.4,81.7v7.8c0,0.6,0.4,1.3,1.9,1.3v0.2h-7.8v-0.2c1.5,0,1.8-0.6,1.8-1.3v-7.8c0-1.4-0.7-2.1-2-2.1
		c-0.7,0-1.3,0.2-1.9,0.8v-0.2c0.7-1,2.3-2,4.1-2C40.8,78.2,42.4,79.2,42.4,81.7z"/>
	<path class="st1" d="M51.8,78.3c-1.5,0.2-2,1.4-2,6.3c0,4.7,0.5,6.2,2,6.4v0.2c-2.9,0-6.2-2.3-6.2-6.5c0-4.2,3.3-6.4,6.2-6.4V78.3z
		 M59,84.6c0,4.2-3.3,6.5-6.2,6.5V91c1.5-0.1,1.9-1.7,1.9-6.4c0-4.9-0.5-6.1-1.9-6.3v-0.2C55.7,78.2,59,80.4,59,84.6z"/>
	<path class="st1" d="M67.4,78.3c-1.5,0.2-2,1.4-2,6.3c0,4.7,0.5,6.2,2,6.4v0.2c-2.9,0-6.2-2.3-6.2-6.5c0-4.2,3.3-6.4,6.2-6.4V78.3z
		 M74.6,84.6c0,4.2-3.3,6.5-6.2,6.5V91c1.5-0.1,1.9-1.7,1.9-6.4c0-4.9-0.5-6.1-1.9-6.3v-0.2C71.3,78.2,74.6,80.4,74.6,84.6z"/>
	<path class="st1" d="M81,87.9c-0.8,0-1.4,0.5-1.4,1.2c0,0.7,0.5,1.6,2.2,1.8v0.2c-3.3-0.1-5.1-1-5.1-2.5c0-1.1,1-1.8,2.1-1.8
		C79.8,86.8,80.6,87.3,81,87.9z M81.8,78.3C80.9,78.5,80,79,80,80c0.1,2.9,8.2,3.4,8.2,7.3c0,2.4-2,3.7-5.3,3.8V91
		c1-0.2,2.2-0.5,2.2-1.8c0-2.6-8.2-3.5-8.2-7.3c0-2.2,2.1-3.5,4.9-3.6V78.3z M87.7,80.7c0,0.8-0.6,1.5-1.8,1.5c-1,0-1.8-0.5-2.1-1.2
		c0.8-0.1,1.1-0.6,1.1-1.2c0-0.8-1-1.5-1.9-1.6v-0.2C85.8,78.3,87.7,79.3,87.7,80.7z"/>
	<path class="st1" d="M90.3,84.6c0-4.2,3.2-6.4,6.1-6.4v0.2c-1.5,0.2-1.9,1.4-1.9,6.2c0,3.6,1.6,5.6,3.8,5.6c1.4,0,2.5-0.4,3.6-1.3
		v0.1c-1.3,1.7-3.7,2.2-5.3,2.2C93.5,91.2,90.3,88.8,90.3,84.6z M95.9,83.6c2.2,0,3.1-0.7,3.1-2.8c0-1.2-0.5-2.3-1.6-2.4v-0.2
		c3.3,0,4.9,2.3,4.9,4.2c0,0.4,0,0.9-0.1,1.3h-6.3V83.6z"/>
</g>
<g class="st0">
	<path class="st1" d="M17,115v0.2c-2,0-3.5-0.4-4.8-1.2l-0.8,1.2h-0.2v-6.1h0.2C12.2,111.9,14,114,17,115z M24.4,110
		c0,3.2-2.4,5-6.3,5.1V115c1.4-0.2,2.7-1,2.7-2.5c0-4.4-9.5-4.8-9.5-9.8c0-3,2.4-4.7,5.7-4.9v0.2c-1.1,0.2-2.2,0.9-2.2,2.3
		C14.8,104.5,24.4,105,24.4,110z M18.1,97.8v-0.2c1.9,0.1,3.3,0.5,4.5,1.3l0.9-1.3h0.2v5.6h-0.2C22.7,100.6,20.6,98.4,18.1,97.8z"/>
</g>
<g class="st0">
	<path class="st1" d="M35.8,113v0.2c-0.8,1.1-2.4,2-4.3,2c-2.2,0-3.8-1-3.8-3.5v-8.2h-1.3l0.3-0.4h1v-2.7c1.5,0,3-0.5,4.1-1.4v4.1
		h3.4l-0.3,0.4h-3.1v8.3c0,1.2,0.5,2.5,1.6,2.5C34.1,114.3,35,113.8,35.8,113z"/>
	<path class="st1" d="M36.6,112c0-2.2,2-3.4,4.8-3.4h2.7v0.2h-0.7c-1.8,0-2.6,1.2-2.6,2.7c0,1.4,0.4,2.4,1.6,2.4
		c0.7,0,1.3-0.4,1.8-0.9v0.2c-0.8,0.9-2.1,2-4,2C38,115.2,36.6,114,36.6,112z M37.6,104.9c0-1.3,1.1-2.6,4.5-2.7v0.2
		c-1,0.1-1.6,0.9-1.6,1.8c0,0.9,0.6,1.5,1.6,1.5c-0.4,0.7-1.4,1.2-2.4,1.2C38.4,106.9,37.6,105.9,37.6,104.9z M44.8,112.3v-7.6
		c0-1.2-0.5-2.2-1.7-2.4v-0.2c4.1,0.2,5.8,1.7,5.8,5v6.1c0,0.7,0.2,1,0.7,1c0.4,0,0.8-0.4,1.2-1.1H51c-0.4,1.4-1.7,2-3.2,2
		C45.7,115.2,44.8,114.5,44.8,112.3z"/>
</g>
<g class="st0">
	<path class="st1" d="M57.8,113.5c0,0.6,0.4,1.3,1.9,1.3v0.2h-7.9v-0.2c1.5,0,1.9-0.6,1.9-1.3v-8.9c0-0.9-0.4-1.3-1.8-1.3v-0.2
		c2.3,0,4.2-0.2,6-1V113.5z M64.5,104.9c0,1.7-1.2,2.8-2.6,2.8c-0.6,0-1.1-0.2-1.4-0.5c0.5-0.2,1-0.8,1-1.7c0-0.7-0.5-1.3-1.4-1.3
		c-0.6,0-1.2,0.4-1.5,0.9v-0.2c0.5-1.6,1.7-2.7,3.2-2.7C63.6,102.2,64.5,103.4,64.5,104.9z"/>
</g>
<g class="st0">
	<path class="st1" d="M25.9,135.9l0.1,0.2c-1.3,2.1-3.6,3-6,3c-4.1,0-9.1-2.9-9.1-8.7c0-6.3,4.9-8.7,8.5-8.8v0.2
		c-1.7,0.4-3.6,2-3.6,8.4c0,6.4,2.6,7.9,5.4,7.9C23.4,138.2,25,137,25.9,135.9z M26.1,121.7v6.1h-0.2c-1-3.3-2.8-5.2-5.3-5.9v-0.2
		c2.2,0.1,3.5,0.5,4.5,1.2l0.8-1.2H26.1z"/>
	<path class="st1" d="M28,136c0-2.2,2-3.4,4.8-3.4h2.7v0.2h-0.7c-1.8,0-2.6,1.2-2.6,2.7c0,1.4,0.4,2.4,1.6,2.4
		c0.7,0,1.3-0.4,1.8-0.9v0.2c-0.8,0.9-2.1,2-4,2C29.4,139.2,28,138,28,136z M29,128.9c0-1.3,1.1-2.6,4.5-2.7v0.2
		c-1,0.1-1.6,0.9-1.6,1.8c0,0.9,0.6,1.5,1.6,1.5c-0.4,0.7-1.4,1.2-2.4,1.2C29.8,130.9,29,129.9,29,128.9z M36.2,136.3v-7.6
		c0-1.2-0.5-2.2-1.7-2.4v-0.2c4.1,0.2,5.8,1.7,5.8,5v6.1c0,0.7,0.2,1,0.7,1c0.4,0,0.8-0.4,1.2-1.1h0.1c-0.4,1.4-1.7,2-3.2,2
		C37.1,139.2,36.2,138.5,36.2,136.3z"/>
	<path class="st1" d="M49.2,137.5c0,0.6,0.4,1.3,1.9,1.3v0.2h-7.9v-0.2c1.5,0,1.9-0.6,1.9-1.3v-8.9c0-0.9-0.4-1.3-1.8-1.3v-0.2
		c2.3,0,4.2-0.2,6-1V137.5z M57.5,129.7v7.8c0,0.6,0.3,1.3,1.8,1.3v0.2h-7.8v-0.2c1.5,0,1.9-0.6,1.9-1.3v-7.8c0-1.4-0.5-2.1-1.7-2.1
		c-0.7,0-1.3,0.4-1.6,0.8v-0.1c0.6-1,1.8-2,3.6-2C56,126.2,57.5,127.2,57.5,129.7z M65.7,129.7v7.8c0,0.6,0.4,1.3,1.9,1.3v0.2h-7.9
		v-0.2c1.5,0,1.9-0.6,1.9-1.3v-7.8c0-1.4-0.5-2.1-1.7-2.1c-0.7,0-1.3,0.4-1.6,0.8v-0.1c0.6-1,1.8-2,3.6-2
		C64.2,126.2,65.7,127.2,65.7,129.7z"/>
	<path class="st1" d="M74.3,142.7c0,0.9,0.4,1.3,1.8,1.3v0.1c-2.3,0-3.9,0.2-6,1v-16.6c0-0.9-0.4-1.3-1.8-1.3v-0.1
		c2.3,0,3.9-0.2,6-1V142.7z M83.8,132.5c0,5.2-2.7,6.6-5.1,6.6c-1.4,0-3-1-3.6-2V137c0.6,0.5,1.3,0.9,2.1,0.9c1.2,0,2.4-0.8,2.4-5.3
		c0-4.5-1.2-5.1-2.4-5.1c-0.8,0-1.5,0.3-2.1,0.9v-0.2c0.6-1,2.2-2,3.6-2C81.1,126.2,83.8,127.6,83.8,132.5z"/>
	<path class="st1" d="M86,132.6c0-4.2,3.2-6.4,6.1-6.4v0.2c-1.5,0.2-1.9,1.4-1.9,6.2c0,3.6,1.6,5.6,3.8,5.6c1.4,0,2.5-0.4,3.6-1.3
		v0.1c-1.3,1.7-3.7,2.2-5.3,2.2C89.2,139.2,86,136.8,86,132.6z M91.6,131.6c2.2,0,3.1-0.7,3.1-2.8c0-1.2-0.5-2.3-1.6-2.4v-0.2
		c3.3,0,4.9,2.3,4.9,4.2c0,0.4,0,0.9-0.1,1.3h-6.3V131.6z"/>
	<path class="st1" d="M105.6,137.5c0,0.6,0.4,1.3,1.9,1.3v0.2h-7.9v-0.2c1.5,0,1.9-0.6,1.9-1.3v-8.9c0-0.9-0.4-1.3-1.8-1.3v-0.2
		c2.3,0,4.2-0.2,6-1V137.5z M112.4,128.9c0,1.7-1.2,2.8-2.6,2.8c-0.6,0-1.1-0.2-1.4-0.5c0.5-0.2,1-0.8,1-1.7c0-0.7-0.5-1.3-1.4-1.3
		c-0.6,0-1.2,0.4-1.5,0.9v-0.2c0.5-1.6,1.7-2.7,3.2-2.7C111.4,126.2,112.4,127.4,112.4,128.9z"/>
	<path class="st1" d="M129.1,135.9l0.1,0.2c-1.3,2.1-3.6,3-6,3c-4.1,0-9.1-2.9-9.1-8.7c0-6.3,4.9-8.7,8.5-8.8v0.2
		c-1.7,0.4-3.6,2-3.6,8.4c0,6.4,2.6,7.9,5.4,7.9C126.6,138.2,128.2,137,129.1,135.9z M129.3,121.7v6.1h-0.2c-1-3.3-2.8-5.2-5.3-5.9
		v-0.2c2.2,0.1,3.5,0.5,4.5,1.2l0.8-1.2H129.3z"/>
	<path class="st1" d="M131.2,136c0-2.2,2-3.4,4.8-3.4h2.7v0.2H138c-1.8,0-2.6,1.2-2.6,2.7c0,1.4,0.4,2.4,1.6,2.4
		c0.7,0,1.3-0.4,1.8-0.9v0.2c-0.8,0.9-2.1,2-4,2C132.6,139.2,131.2,138,131.2,136z M132.2,128.9c0-1.3,1.1-2.6,4.5-2.7v0.2
		c-1,0.1-1.6,0.9-1.6,1.8c0,0.9,0.6,1.5,1.6,1.5c-0.4,0.7-1.4,1.2-2.4,1.2C133,130.9,132.2,129.9,132.2,128.9z M139.5,136.3v-7.6
		c0-1.2-0.5-2.2-1.7-2.4v-0.2c4.1,0.2,5.8,1.7,5.8,5v6.1c0,0.7,0.2,1,0.7,1c0.4,0,0.8-0.4,1.2-1.1h0.1c-0.4,1.4-1.7,2-3.2,2
		C140.4,139.2,139.5,138.5,139.5,136.3z"/>
</g>
<g class="st0">
	<path class="st1" d="M152.4,137.5c0,0.6,0.4,1.3,1.9,1.3v0.2h-7.9v-0.2c1.5,0,1.9-0.6,1.9-1.3v-8.9c0-0.9-0.4-1.3-1.8-1.3v-0.2
		c2.3,0,4.2-0.2,6-1V137.5z M159.1,128.9c0,1.7-1.2,2.8-2.6,2.8c-0.6,0-1.1-0.2-1.4-0.5c0.5-0.2,1-0.8,1-1.7c0-0.7-0.5-1.3-1.4-1.3
		c-0.7,0-1.2,0.4-1.5,0.9v-0.2c0.5-1.6,1.7-2.7,3.2-2.7C158.2,126.2,159.1,127.4,159.1,128.9z"/>
</g>
<g class="st0">
	<path class="st1" d="M160.5,132.6c0-4.2,3.2-6.4,6.1-6.4v0.2c-1.5,0.2-1.9,1.4-1.9,6.2c0,3.6,1.6,5.6,3.8,5.6
		c1.4,0,2.5-0.4,3.6-1.3v0.1c-1.3,1.7-3.7,2.2-5.3,2.2C163.7,139.2,160.5,136.8,160.5,132.6z M166.1,131.6c2.2,0,3.1-0.7,3.1-2.8
		c0-1.2-0.5-2.3-1.6-2.4v-0.2c3.3,0,4.9,2.3,4.9,4.2c0,0.4,0,0.9-0.1,1.3h-6.3V131.6z"/>
</g>
</svg>
