<svg id="Layer_1" data-name="Layer 1" xmlns="http://www.w3.org/2000/svg" xmlns:xlink="http://www.w3.org/1999/xlink" viewBox="0 0 300 150"><defs><style>.cls-1{fill:none;}.cls-2{clip-path:url(#clip-path);}.cls-3{fill:#fb0010;}.cls-4{clip-path:url(#clip-path-2);}.cls-5{fill:#263845;}</style><clipPath id="clip-path"><rect class="cls-1" x="-335.2" y="-264.77" width="300" height="150"/></clipPath><clipPath id="clip-path-2"><rect class="cls-1" x="-5.2" y="-264.77" width="300" height="150"/></clipPath></defs><title>Artboard 3</title><g class="cls-2"><path class="cls-3" d="M-444.55-156l626.23,324.9c.44.23.88.41,1.32.64l0-341.72L-444.55-498.44Z"/></g><g class="cls-4"><path class="cls-5" d="M-208.55-62l626.23,324.9c.44.23.88.41,1.32.64l0-341.72L-208.55-404.44Z"/></g><path class="cls-5" d="M19.1,107.1v.15h-8v-.15c1.5,0,1.88-.6,1.88-1.27V91.65c0-.72-.38-1.25-1.88-1.25v-.15H17.2v15.58C17.2,106.5,17.57,107.1,19.1,107.1Zm9.75-1.62c-.4,1.37-1.88,2-3.7,2-3.25,0-4-2.25-4.15-4.35s-.35-3.65-2.55-4V99c2.3,0,3.32-2,3.32-4.5,0-2.8-1-4.13-3.32-4.13v-.15c5.07,0,7.57,1.13,7.57,4.28,0,2.7-2,4.35-5.72,4.57,4.55.2,5.25,2,5.5,4.05s.8,3.45,1.65,3.45c.45,0,.85-.37,1.25-1.12Z"/><path class="cls-5" d="M29.37,101A6.19,6.19,0,0,1,35.5,94.5v.15c-1.48.18-1.88,1.43-1.88,6.2,0,3.6,1.6,5.57,3.83,5.57a5.43,5.43,0,0,0,3.65-1.32v.15a7,7,0,0,1-5.3,2.25A6.34,6.34,0,0,1,29.37,101Zm5.63-1c2.2,0,3.12-.7,3.12-2.8,0-1.2-.5-2.3-1.62-2.45V94.5c3.3,0,4.9,2.35,4.9,4.25a6.9,6.9,0,0,1-.13,1.3H35Z"/><path class="cls-5" d="M43.2,104.3c0-2.17,2-3.4,4.8-3.4h2.7v.15H50a2.48,2.48,0,0,0-2.65,2.73c0,1.37.4,2.42,1.57,2.42a2.75,2.75,0,0,0,1.83-.87v.15a5.36,5.36,0,0,1-4,2C44.6,107.5,43.17,106.3,43.2,104.3Zm1-7.07c0-1.28,1.15-2.58,4.55-2.73v.15a1.83,1.83,0,0,0-1.6,1.83c0,.9.62,1.45,1.62,1.52a2.8,2.8,0,0,1-2.4,1.2A2,2,0,0,1,44.2,97.23Zm7.25,7.45V97c0-1.23-.48-2.2-1.7-2.38V94.5c4.15.15,5.8,1.73,5.8,5v6.08c0,.72.25,1,.7,1s.8-.37,1.2-1.12h.15a3.12,3.12,0,0,1-3.25,2C52.35,107.5,51.45,106.8,51.45,104.68Z"/><path class="cls-5" d="M58.25,89.85a15.37,15.37,0,0,0,6-1v17c0,.62.38,1.27,1.88,1.27v.15H58.22v-.15c1.5,0,1.88-.65,1.88-1.27V91.33c0-.9-.43-1.33-1.85-1.33Z"/><path class="cls-5" d="M78.07,96.38l3.28,6.82-2.15,4h-.15l-5.8-11.47a1.35,1.35,0,0,0-1.38-.88v-.15h7v.15C78,94.9,77.65,95.5,78.07,96.38Zm8.23,0,3.27,6.82-2.15,4h-.15l-3.92-7.77-.8,1.5-.15-.23A3.74,3.74,0,0,0,82.6,98l-1.13-2.2a1.35,1.35,0,0,0-1.37-.88v-.15h7v.15C86.22,94.9,85.87,95.5,86.3,96.38ZM95,94.75v.15c-.82,0-1.17.33-1.62,1.18l-2.6,4.9-.15-.23a6.89,6.89,0,0,0,.7-3.22,2.41,2.41,0,0,0-2.55-2.63v-.15Z"/><path class="cls-5" d="M101.42,94.65c-1.47.18-2,1.43-2,6.3,0,4.7.5,6.25,2,6.4v.15A6.37,6.37,0,0,1,95.2,101a6.27,6.27,0,0,1,6.22-6.45Zm7.2,6.3a6.36,6.36,0,0,1-6.2,6.55v-.15c1.48-.15,2-1.73,2-6.4,0-4.9-.5-6.15-2-6.3V94.5A6.23,6.23,0,0,1,108.62,101Z"/><path class="cls-5" d="M116.27,105.83c0,.62.38,1.27,1.88,1.27v.15h-7.88v-.15c1.5,0,1.88-.65,1.88-1.27V97c0-.9-.43-1.32-1.85-1.32v-.15a15.18,15.18,0,0,0,6-1ZM123,97.2a2.67,2.67,0,0,1-2.57,2.85A1.71,1.71,0,0,1,119,99.5a1.82,1.82,0,0,0,1-1.7,1.33,1.33,0,0,0-1.4-1.35,1.72,1.72,0,0,0-1.5,1v-.2a3.46,3.46,0,0,1,3.25-2.7A2.54,2.54,0,0,1,123,97.2Z"/><path class="cls-5" d="M124,89.85a15.37,15.37,0,0,0,6-1v17c0,.62.38,1.27,1.88,1.27v.15h-7.88v-.15c1.5,0,1.88-.65,1.88-1.27V91.33c0-.9-.43-1.33-1.85-1.33Z"/><path class="cls-5" d="M142.17,96.5v.2a2.76,2.76,0,0,0-2.07-.92c-1.25,0-2.45.57-2.45,5.1s1.27,5.32,2.45,5.32a3.44,3.44,0,0,0,2.07-.87v.15a4.62,4.62,0,0,1-3.62,2c-2.38,0-5.15-1.4-5.15-6.62,0-5,2.72-6.38,5.15-6.38A4.61,4.61,0,0,1,142.17,96.5Zm4.88,9.08c0,.72.22,1,.67,1s.8-.37,1.2-1.12h.15a3.12,3.12,0,0,1-3.25,2c-2,0-2.9-.7-2.9-2.82V91.33c0-.9-.42-1.33-1.85-1.33v-.15a16.5,16.5,0,0,0,6-1Z"/><path class="cls-5" d="M19.1,132.1v.15h-8v-.15c1.5,0,1.88-.6,1.88-1.27V116.65c0-.72-.38-1.25-1.88-1.25v-.15H17.2v15.58C17.2,131.5,17.57,132.1,19.1,132.1Zm9.75-1.62c-.4,1.37-1.88,2-3.7,2-3.25,0-4-2.25-4.15-4.35s-.35-3.65-2.55-4V124c2.3,0,3.32-2,3.32-4.5,0-2.8-1-4.13-3.32-4.13v-.15c5.07,0,7.57,1.13,7.57,4.28,0,2.7-2,4.35-5.72,4.57,4.55.2,5.25,2,5.5,4.05s.8,3.45,1.65,3.45c.45,0,.85-.37,1.25-1.12Z"/><path class="cls-5" d="M29.25,116.7A2.06,2.06,0,0,0,27,115.4v-.15h9v.15c-1.15,0-2.17.75-1.55,2l4.73,10-2.28,5.1h-.27Zm10.9,8.4a17.18,17.18,0,0,0,1.77-7,2.73,2.73,0,0,0-2.85-2.73v-.15h7.2v.1c-1.15,0-1.85,1.08-2.65,2.78l-3.4,7.2Z"/><path class="cls-5" d="M51.72,120.45a15.42,15.42,0,0,0,6-1v11.35c0,.62.37,1.27,1.87,1.27v.15H51.7v-.15c1.5,0,1.87-.65,1.87-1.27v-8.9c0-.9-.42-1.33-1.85-1.33Zm1.28-4.7a2.27,2.27,0,0,1,2.55-2.17,2.21,2.21,0,1,1,0,4.37A2.27,2.27,0,0,1,53,115.75Z"/><path class="cls-5" d="M60.62,132.1c1.5,0,1.88-.65,1.88-1.27V122c0-.9-.43-1.32-1.85-1.32v-.15a15.18,15.18,0,0,0,6-1v11.33c0,.62.38,1.27,1.88,1.27v.15H60.62Zm8.8,0c1.48,0,1.85-.65,1.85-1.27V123c0-1.4-.72-2.13-2-2.13a2.67,2.67,0,0,0-1.9.78v-.15a5.1,5.1,0,0,1,4.15-2c2.25,0,3.85,1,3.85,3.53v7.8c0,.62.37,1.27,1.87,1.27v.15H69.42Z"/><path class="cls-5" d="M83,129.28a1.28,1.28,0,0,0-1.4,1.25c0,.72.5,1.64,2.23,1.82v.15c-3.33-.13-5.15-1-5.15-2.47a2,2,0,0,1,2.12-1.85A2.53,2.53,0,0,1,83,129.28Zm.83-9.63c-.93.18-1.83.65-1.8,1.68.07,2.9,8.17,3.37,8.17,7.35,0,2.42-2,3.69-5.27,3.82v-.15c1-.18,2.22-.55,2.22-1.85,0-2.6-8.2-3.55-8.2-7.35,0-2.2,2.08-3.52,4.88-3.65Zm5.9,2.43a1.64,1.64,0,0,1-1.85,1.55,2.16,2.16,0,0,1-2.13-1.2,1.12,1.12,0,0,0,1.13-1.18c0-.75-.95-1.47-1.95-1.6v-.15C87.72,119.65,89.7,120.68,89.7,122.08Z"/><path class="cls-5" d="M97.55,129c0,1.39.47,2.12,1.72,2.12a2.23,2.23,0,0,0,1.73-.77v.15a4.18,4.18,0,0,1-3.88,2c-2.25,0-3.7-1.05-3.7-3.52v-7c0-.9-.42-1.32-1.85-1.32v-.15a15.23,15.23,0,0,0,6-1Zm8.32,1.6c0,.72.23,1,.68,1s.8-.37,1.19-1.12h.15c-.4,1.37-1.74,2-3.39,2s-2.75-1-2.75-2.45V122c0-.9-.43-1.32-1.78-1.32v-.15a16.15,16.15,0,0,0,5.9-1Z"/><path class="cls-5" d="M114.9,130.83c0,.62.37,1.27,1.87,1.27v.15H108.9v-.15c1.5,0,1.87-.65,1.87-1.27V122c0-.9-.42-1.32-1.85-1.32v-.15a15.23,15.23,0,0,0,6-1Zm6.75-8.63a2.68,2.68,0,0,1-2.58,2.85,1.69,1.69,0,0,1-1.42-.55,1.83,1.83,0,0,0,1-1.7,1.33,1.33,0,0,0-1.4-1.35,1.73,1.73,0,0,0-1.5,1v-.2a3.46,3.46,0,0,1,3.25-2.7A2.54,2.54,0,0,1,121.65,122.2Z"/><path class="cls-5" d="M122.72,129.3c0-2.17,2-3.4,4.8-3.4h2.7v.15h-.75a2.48,2.48,0,0,0-2.65,2.73c0,1.37.4,2.42,1.58,2.42a2.72,2.72,0,0,0,1.82-.87v.15a5.34,5.34,0,0,1-4,2C124.12,132.5,122.7,131.3,122.72,129.3Zm1-7.07c0-1.28,1.15-2.58,4.55-2.73v.15a1.83,1.83,0,0,0-1.6,1.83c0,.9.63,1.45,1.63,1.52a2.82,2.82,0,0,1-2.4,1.2A2,2,0,0,1,123.72,122.23Zm7.25,7.45V122c0-1.23-.47-2.2-1.7-2.38v-.15c4.15.15,5.8,1.73,5.8,5v6.08c0,.72.25,1,.7,1s.8-.37,1.2-1.12h.15a3.12,3.12,0,0,1-3.25,2C131.87,132.5,131,131.8,131,129.68Z"/><path class="cls-5" d="M137.9,132.1c1.5,0,1.87-.65,1.87-1.27V122c0-.9-.42-1.32-1.85-1.32v-.15a15.23,15.23,0,0,0,6-1v11.33c0,.62.37,1.27,1.87,1.27v.15H137.9Zm8.8,0c1.47,0,1.85-.65,1.85-1.27V123a1.86,1.86,0,0,0-2-2.13,2.67,2.67,0,0,0-1.9.78v-.15a5.12,5.12,0,0,1,4.15-2c2.25,0,3.85,1,3.85,3.53v7.8c0,.62.37,1.27,1.87,1.27v.15H146.7Z"/><path class="cls-5" d="M162.3,119.65c-1.48.18-2.13,1.43-2.13,6.2,0,3.6,1.83,5.57,4.05,5.57a5.39,5.39,0,0,0,3.65-1.32v.15a7,7,0,0,1-5.3,2.25A6.53,6.53,0,0,1,155.9,126a6.4,6.4,0,0,1,6.4-6.45Zm5.55,2.68a2.33,2.33,0,0,1-2.5,2.4,2.13,2.13,0,0,1-2.18-1.58,2.14,2.14,0,0,0,1.2-1.82,1.48,1.48,0,0,0-1.07-1.65v-.18C166.57,119.5,167.85,120.9,167.85,122.33Z"/><path class="cls-5" d="M169.72,126a6.19,6.19,0,0,1,6.13-6.45v.15c-1.48.18-1.88,1.43-1.88,6.2,0,3.6,1.6,5.57,3.83,5.57a5.43,5.43,0,0,0,3.65-1.32v.15a7,7,0,0,1-5.3,2.25A6.34,6.34,0,0,1,169.72,126Zm5.63-1c2.2,0,3.12-.7,3.12-2.8,0-1.2-.5-2.3-1.62-2.45v-.15c3.3,0,4.89,2.35,4.89,4.25a6.91,6.91,0,0,1-.12,1.3h-6.27Z"/></svg>