<?xml version="1.0" encoding="utf-8"?>
<!-- Generator: Adobe Illustrator 24.0.3, SVG Export Plug-In . SVG Version: 6.00 Build 0)  -->
<svg version="1.1" id="Layer_1" xmlns="http://www.w3.org/2000/svg" xmlns:xlink="http://www.w3.org/1999/xlink" x="0px" y="0px"
	 viewBox="0 0 300 150" style="enable-background:new 0 0 300 150;" xml:space="preserve">
<style type="text/css">
	.st0{enable-background:new    ;}
	.st1{fill:#FFFFFF;}
</style>
<title>Artboard 1</title>
<g class="st0">
	<path class="st1" d="M11.5,90.6c1.5,0,1.9-0.6,1.9-1.3V75.2c0-0.7-0.4-1.3-1.9-1.3v-0.2h6.1v15.6c0,0.7,0.4,1.3,1.9,1.3v0.2h-8
		V90.6z M18.8,73.9v-0.2h6.9v5h-0.2C24.4,75.2,22.6,74.2,18.8,73.9z M20.2,82.4l-1.4-0.1v-0.2l1.4-0.1c1.5-0.1,2.5-0.7,3.3-2.1h0.2
		v4.6h-0.2C22.7,83.1,21.7,82.6,20.2,82.4z"/>
</g>
<g class="st0">
	<path class="st1" d="M33,78.2c-1.5,0.2-2,1.4-2,6.3c0,4.7,0.5,6.2,2,6.4V91c-2.9,0-6.2-2.3-6.2-6.5c0-4.2,3.3-6.4,6.2-6.4V78.2z
		 M40.2,84.5c0,4.2-3.3,6.5-6.2,6.5v-0.2c1.5-0.1,1.9-1.7,1.9-6.4c0-4.9-0.5-6.1-1.9-6.3V78C36.9,78,40.2,80.3,40.2,84.5z"/>
</g>
<g class="st0">
	<path class="st1" d="M47.8,89.4c0,0.6,0.4,1.3,1.9,1.3v0.2h-7.9v-0.2c1.5,0,1.9-0.6,1.9-1.3v-8.9c0-0.9-0.4-1.3-1.8-1.3V79
		c2.3,0,4.2-0.2,6-1V89.4z M54.6,80.7c0,1.7-1.2,2.8-2.6,2.8c-0.6,0-1.1-0.2-1.4-0.5c0.5-0.2,1-0.8,1-1.7c0-0.7-0.5-1.3-1.4-1.3
		c-0.6,0-1.2,0.4-1.5,0.9v-0.2c0.5-1.6,1.7-2.7,3.2-2.7C53.6,78,54.6,79.2,54.6,80.7z"/>
</g>
<g class="st0">
	<path class="st1" d="M67.3,89.4c0,0.6,0.4,1.3,1.9,1.3v0.2h-7.9v-0.2c1.5,0,1.9-0.6,1.9-1.3v-8.9c0-0.9-0.4-1.3-1.8-1.3V79
		c2.3,0,4.2-0.2,6-1V89.4z M75.6,81.6v7.8c0,0.6,0.3,1.3,1.8,1.3v0.2h-7.8v-0.2c1.5,0,1.9-0.6,1.9-1.3v-7.8c0-1.4-0.5-2.1-1.7-2.1
		c-0.7,0-1.3,0.4-1.6,0.8V80c0.6-1,1.8-2,3.6-2C74.1,78,75.6,79.1,75.6,81.6z M83.9,81.6v7.8c0,0.6,0.4,1.3,1.9,1.3v0.2h-7.9v-0.2
		c1.5,0,1.9-0.6,1.9-1.3v-7.8c0-1.4-0.5-2.1-1.7-2.1c-0.7,0-1.3,0.4-1.6,0.8V80c0.6-1,1.8-2,3.6-2C82.4,78,83.9,79.1,83.9,81.6z"/>
	<path class="st1" d="M93.4,78.2c-1.5,0.2-2,1.4-2,6.3c0,4.7,0.5,6.2,2,6.4V91c-2.9,0-6.2-2.3-6.2-6.5c0-4.2,3.3-6.4,6.2-6.4V78.2z
		 M100.6,84.5c0,4.2-3.3,6.5-6.2,6.5v-0.2c1.5-0.1,1.9-1.7,1.9-6.4c0-4.9-0.5-6.1-1.9-6.3V78C97.3,78,100.6,80.3,100.6,84.5z"/>
</g>
<g class="st0">
	<path class="st1" d="M108.2,89.4c0,0.6,0.4,1.3,1.9,1.3v0.2h-7.9v-0.2c1.5,0,1.9-0.6,1.9-1.3v-8.9c0-0.9-0.4-1.3-1.8-1.3V79
		c2.3,0,4.2-0.2,6-1V89.4z M115,80.7c0,1.7-1.2,2.8-2.6,2.8c-0.6,0-1.1-0.2-1.4-0.5c0.5-0.2,1-0.8,1-1.7c0-0.7-0.5-1.3-1.4-1.3
		c-0.6,0-1.2,0.4-1.5,0.9v-0.2c0.5-1.6,1.7-2.7,3.2-2.7C114,78,115,79.2,115,80.7z"/>
</g>
<g class="st0">
	<path class="st1" d="M116.3,84.5c0-4.2,3.2-6.4,6.1-6.4v0.2c-1.5,0.2-1.9,1.4-1.9,6.2c0,3.6,1.6,5.6,3.8,5.6c1.4,0,2.5-0.4,3.6-1.3
		v0.1c-1.3,1.7-3.7,2.2-5.3,2.2C119.5,91,116.3,88.7,116.3,84.5z M121.9,83.4c2.2,0,3.1-0.7,3.1-2.8c0-1.2-0.5-2.3-1.6-2.4V78
		c3.3,0,4.9,2.3,4.9,4.2c0,0.4,0,0.9-0.1,1.3h-6.3V83.4z"/>
</g>
<g class="st0">
	<path class="st1" d="M11.4,108.5c0-4.2,3.2-6.4,6.1-6.4v0.2c-1.5,0.2-1.9,1.4-1.9,6.2c0,3.6,1.6,5.6,3.8,5.6c1.4,0,2.5-0.4,3.6-1.3
		v0.1c-1.3,1.7-3.7,2.2-5.3,2.2C14.7,115,11.4,112.7,11.4,108.5z M17.1,107.4c2.2,0,3.1-0.7,3.1-2.8c0-1.2-0.5-2.3-1.6-2.4V102
		c3.3,0,4.9,2.3,4.9,4.2c0,0.4,0,0.9-0.1,1.3h-6.3V107.4z"/>
</g>
<g class="st0">
	<path class="st1" d="M25.5,103.3c-0.2-0.5-0.6-0.9-1.4-0.9v-0.2h7v0.2c-0.9,0-1.2,0.6-0.8,1.5l3.3,6.8l-2.1,4h-0.1L25.5,103.3z
		 M34.7,108.3c0.4-0.8,0.7-1.9,0.7-3.2c0-1.4-0.8-2.6-2.5-2.6v-0.2H39v0.2c-0.8,0-1.1,0.3-1.6,1.2l-2.6,4.9L34.7,108.3z"/>
</g>
<g class="st0">
	<path class="st1" d="M39.2,108.5c0-4.2,3.2-6.4,6.1-6.4v0.2c-1.5,0.2-1.9,1.4-1.9,6.2c0,3.6,1.6,5.6,3.8,5.6c1.4,0,2.5-0.4,3.6-1.3
		v0.1c-1.3,1.7-3.7,2.2-5.3,2.2C42.5,115,39.2,112.7,39.2,108.5z M44.9,107.4c2.2,0,3.1-0.7,3.1-2.8c0-1.2-0.5-2.3-1.6-2.4V102
		c3.3,0,4.9,2.3,4.9,4.2c0,0.4,0,0.9-0.1,1.3h-6.3V107.4z"/>
	<path class="st1" d="M58.9,113.4c0,0.6,0.4,1.3,1.9,1.3v0.2h-7.9v-0.2c1.5,0,1.9-0.6,1.9-1.3v-8.9c0-0.9-0.4-1.3-1.8-1.3V103
		c2.3,0,4.2-0.2,6-1V113.4z M65.6,104.7c0,1.7-1.2,2.8-2.6,2.8c-0.6,0-1.1-0.2-1.4-0.5c0.5-0.2,1-0.8,1-1.7c0-0.7-0.5-1.3-1.4-1.3
		c-0.6,0-1.2,0.4-1.5,0.9v-0.2c0.5-1.6,1.7-2.7,3.2-2.7C64.7,102,65.6,103.2,65.6,104.7z"/>
	<path class="st1" d="M67.3,103.3c-0.2-0.5-0.6-0.9-1.4-0.9v-0.2h7v0.2c-0.9,0-1.2,0.6-0.8,1.5l3.3,6.8l-2.1,4h-0.1L67.3,103.3z
		 M66.2,118.8c0-1.1,0.8-2,2.2-2.3c-0.1,0.2-0.1,0.4-0.1,0.6c0,0.9,0.5,1.7,1.5,1.7c0.9,0,1.6-0.9,2.5-2.5h0.2
		c-1.4,2.6-2.3,4.8-4.1,4.8C67,121,66.2,120.1,66.2,118.8z M76.5,108.3c0.4-0.8,0.7-1.9,0.7-3.2c0-1.4-0.8-2.6-2.5-2.6v-0.2h6.2v0.2
		c-0.8,0-1.1,0.3-1.6,1.2l-2.6,4.9L76.5,108.3z"/>
	<path class="st1" d="M90.6,112.9v0.2c-0.8,1.1-2.4,2-4.3,2c-2.2,0-3.8-1-3.8-3.5v-8.2h-1.3l0.3-0.4h1v-2.7c1.5,0,3-0.5,4.1-1.4v4.1
		H90l-0.3,0.4h-3.1v8.3c0,1.2,0.5,2.5,1.6,2.5C89,114.1,89.8,113.7,90.6,112.9z"/>
	<path class="st1" d="M97.1,113.4c0,0.6,0.4,1.3,1.9,1.3v0.2h-7.9v-0.2c1.5,0,1.9-0.6,1.9-1.3V98.9c0-0.9-0.4-1.3-1.8-1.3v-0.1
		c2.3,0,4.2-0.2,6-1V113.4z M105.8,105.6v7.8c0,0.6,0.4,1.3,1.9,1.3v0.2h-7.8v-0.2c1.5,0,1.8-0.6,1.8-1.3v-7.8c0-1.4-0.7-2.1-2-2.1
		c-0.7,0-1.3,0.2-1.9,0.8v-0.2c0.7-1,2.3-2,4.1-2C104.2,102,105.8,103.1,105.8,105.6z"/>
	<path class="st1" d="M108.7,103c2.3,0,4.2-0.2,6-1v11.3c0,0.6,0.4,1.3,1.9,1.3v0.2h-7.9v-0.2c1.5,0,1.9-0.6,1.9-1.3v-8.9
		c0-0.9-0.4-1.3-1.8-1.3V103z M109.9,98.3c0-1.3,1-2.2,2.5-2.2c1.5,0,2.5,0.9,2.5,2.2c0,1.3-1,2.2-2.5,2.2
		C111,100.5,109.9,99.6,109.9,98.3z"/>
	<path class="st1" d="M117.6,114.6c1.5,0,1.9-0.6,1.9-1.3v-8.9c0-0.9-0.4-1.3-1.8-1.3V103c2.3,0,4.2-0.2,6-1v11.3
		c0,0.6,0.4,1.3,1.9,1.3v0.2h-7.9V114.6z M126.4,114.6c1.5,0,1.8-0.6,1.8-1.3v-7.8c0-1.4-0.7-2.1-2-2.1c-0.7,0-1.3,0.2-1.9,0.8v-0.2
		c0.7-1,2.3-2,4.1-2c2.2,0,3.8,1,3.8,3.5v7.8c0,0.6,0.4,1.3,1.9,1.3v0.2h-7.8V114.6z"/>
	<path class="st1" d="M135.7,106.6c0-3.2,3-4.5,5.6-4.5v0.2c-1.1,0.1-1.6,1.4-1.6,4.3c0,3,0.5,4.2,1.6,4.3v0.2
		C138.8,111,135.7,109.8,135.7,106.6z M142.3,120.9c2.5-0.3,3.3-1.6,3.3-2.5c0-3.5-9.7-0.4-9.7-4.8c0-1,0.5-1.8,1.7-2.5l0.1,0.1
		c-0.1,0.1-0.2,0.3-0.2,0.5c0,2.8,11.4-0.5,11.4,5c0,2.6-2.2,4.2-6.5,4.5V120.9z M135.9,118.8c0-1.5,1.8-1.9,3.8-1.9
		c-0.5,0.2-1.1,0.9-1.1,1.8c0,1.2,1.3,2,2.7,2.2v0.1C138.7,121,135.9,120.4,135.9,118.8z M142.3,110.8c1.2-0.1,1.7-1.3,1.7-4.3
		c0-2.9-0.5-4.2-1.7-4.3V102c2.6,0,5.7,1.3,5.7,4.5c0,3.2-3.1,4.4-5.7,4.4V110.8z M143.7,101.6c0.4-1.3,1.6-3,3.3-3
		c1.3,0,2.1,0.7,2.1,1.9c0,1.2-1.1,2-2,2c0-1-0.5-1.7-1.3-1.7c-0.7,0-1.6,0.5-1.9,0.9L143.7,101.6z"/>
</g>
<g class="st0">
	<path class="st1" d="M20.7,136.9v0.2c-0.8,1.1-2.4,2-4.3,2c-2.2,0-3.8-1-3.8-3.5v-8.2h-1.3l0.3-0.4h1v-2.7c1.5,0,3-0.5,4.1-1.4v4.1
		H20l-0.3,0.4h-3.1v8.3c0,1.2,0.5,2.5,1.6,2.5C19,138.1,19.9,137.7,20.7,136.9z"/>
	<path class="st1" d="M27.1,137.4c0,0.6,0.4,1.3,1.9,1.3v0.2h-7.9v-0.2c1.5,0,1.9-0.6,1.9-1.3v-14.5c0-0.9-0.4-1.3-1.8-1.3v-0.1
		c2.3,0,4.2-0.2,6-1V137.4z M35.9,129.6v7.8c0,0.6,0.4,1.3,1.9,1.3v0.2h-7.8v-0.2c1.5,0,1.8-0.6,1.8-1.3v-7.8c0-1.4-0.7-2.1-2-2.1
		c-0.7,0-1.3,0.2-1.9,0.8v-0.2c0.7-1,2.3-2,4.1-2C34.3,126,35.9,127.1,35.9,129.6z"/>
	<path class="st1" d="M38.9,135.8c0-2.2,2-3.4,4.8-3.4h2.7v0.2h-0.7c-1.8,0-2.6,1.2-2.6,2.7c0,1.4,0.4,2.4,1.6,2.4
		c0.7,0,1.3-0.4,1.8-0.9v0.2c-0.8,0.9-2.1,2-4,2C40.3,139,38.8,137.8,38.9,135.8z M39.9,128.8c0-1.3,1.1-2.6,4.5-2.7v0.2
		c-1,0.1-1.6,0.9-1.6,1.8c0,0.9,0.6,1.5,1.6,1.5c-0.4,0.7-1.4,1.2-2.4,1.2C40.7,130.7,39.9,129.8,39.9,128.8z M47.1,136.2v-7.6
		c0-1.2-0.5-2.2-1.7-2.4V126c4.1,0.2,5.8,1.7,5.8,5v6.1c0,0.7,0.2,1,0.7,1c0.4,0,0.8-0.4,1.2-1.1h0.1c-0.4,1.4-1.7,2-3.2,2
		C48,139,47.1,138.3,47.1,136.2z"/>
	<path class="st1" d="M54,138.6c1.5,0,1.9-0.6,1.9-1.3v-8.9c0-0.9-0.4-1.3-1.8-1.3V127c2.3,0,4.2-0.2,6-1v11.3
		c0,0.6,0.4,1.3,1.9,1.3v0.2H54V138.6z M62.8,138.6c1.5,0,1.8-0.6,1.8-1.3v-7.8c0-1.4-0.7-2.1-2-2.1c-0.7,0-1.3,0.2-1.9,0.8v-0.2
		c0.7-1,2.3-2,4.1-2c2.2,0,3.8,1,3.8,3.5v7.8c0,0.6,0.4,1.3,1.9,1.3v0.2h-7.8V138.6z"/>
	<path class="st1" d="M78.1,135.8c0-2.2,2-3.4,4.8-3.4h2.7v0.2h-0.7c-1.8,0-2.6,1.2-2.6,2.7c0,1.4,0.4,2.4,1.6,2.4
		c0.7,0,1.3-0.4,1.8-0.9v0.2c-0.8,0.9-2.1,2-4,2C79.5,139,78.1,137.8,78.1,135.8z M79.1,128.8c0-1.3,1.1-2.6,4.5-2.7v0.2
		c-1,0.1-1.6,0.9-1.6,1.8c0,0.9,0.6,1.5,1.6,1.5c-0.4,0.7-1.4,1.2-2.4,1.2C79.9,130.7,79.1,129.8,79.1,128.8z M86.4,136.2v-7.6
		c0-1.2-0.5-2.2-1.7-2.4V126c4.1,0.2,5.8,1.7,5.8,5v6.1c0,0.7,0.2,1,0.7,1c0.4,0,0.8-0.4,1.2-1.1h0.1c-0.4,1.4-1.7,2-3.2,2
		C87.3,139,86.4,138.3,86.4,136.2z"/>
</g>
<g class="st0">
	<path class="st1" d="M93.3,138.6c1.5,0,1.9-0.6,1.9-1.3v-8.9c0-0.9-0.4-1.3-1.8-1.3V127c2.3,0,4.2-0.2,6-1v11.3
		c0,0.6,0.4,1.3,1.9,1.3v0.2h-7.9V138.6z M102.1,138.6c1.5,0,1.8-0.6,1.8-1.3v-7.8c0-1.4-0.7-2.1-2-2.1c-0.7,0-1.3,0.2-1.9,0.8v-0.2
		c0.7-1,2.3-2,4.1-2c2.2,0,3.8,1,3.8,3.5v7.8c0,0.6,0.4,1.3,1.9,1.3v0.2h-7.8V138.6z"/>
</g>
<g class="st0">
	<path class="st1" d="M110.9,127.3c-0.2-0.5-0.6-0.9-1.4-0.9v-0.2h7v0.2c-0.9,0-1.2,0.6-0.8,1.5l3.3,6.8l-2.1,4h-0.1L110.9,127.3z
		 M109.9,142.8c0-1.1,0.9-2,2.2-2.3c-0.1,0.2-0.1,0.4-0.1,0.6c0,0.9,0.5,1.7,1.5,1.7c0.9,0,1.6-0.9,2.5-2.5h0.2
		c-1.4,2.6-2.3,4.8-4.1,4.8C110.6,145,109.9,144.1,109.9,142.8z M120.1,132.3c0.4-0.8,0.7-1.9,0.7-3.2c0-1.4-0.8-2.6-2.5-2.6v-0.2
		h6.2v0.2c-0.8,0-1.1,0.3-1.6,1.2l-2.6,4.9L120.1,132.3z"/>
</g>
<g class="st0">
	<path class="st1" d="M130.8,126.2c-1.5,0.2-2,1.4-2,6.3c0,4.7,0.5,6.2,2,6.4v0.2c-2.9,0-6.2-2.3-6.2-6.5c0-4.2,3.3-6.4,6.2-6.4
		V126.2z M138,132.5c0,4.2-3.3,6.5-6.2,6.5v-0.2c1.5-0.1,1.9-1.7,1.9-6.4c0-4.9-0.5-6.1-1.9-6.3V126C134.7,126,138,128.3,138,132.5z
		"/>
	<path class="st1" d="M139.7,138.6c1.5,0,1.9-0.6,1.9-1.3v-8.9c0-0.9-0.4-1.3-1.8-1.3V127c2.3,0,4.2-0.2,6-1v11.3
		c0,0.6,0.4,1.3,1.9,1.3v0.2h-7.9V138.6z M148.5,138.6c1.5,0,1.8-0.6,1.8-1.3v-7.8c0-1.4-0.7-2.1-2-2.1c-0.7,0-1.3,0.2-1.9,0.8v-0.2
		c0.7-1,2.3-2,4.1-2c2.2,0,3.8,1,3.8,3.5v7.8c0,0.6,0.4,1.3,1.9,1.3v0.2h-7.8V138.6z"/>
	<path class="st1" d="M157.7,132.5c0-4.2,3.2-6.4,6.1-6.4v0.2c-1.5,0.2-1.9,1.4-1.9,6.2c0,3.6,1.6,5.6,3.8,5.6
		c1.4,0,2.5-0.4,3.6-1.3v0.1c-1.3,1.7-3.7,2.2-5.3,2.2C160.9,139,157.7,136.7,157.7,132.5z M163.3,131.4c2.2,0,3.1-0.7,3.1-2.8
		c0-1.2-0.5-2.3-1.6-2.4V126c3.3,0,4.9,2.3,4.9,4.2c0,0.4,0,0.9-0.1,1.3h-6.3V131.4z"/>
	<path class="st1" d="M178.1,132.5c0-4.2,3.2-6.4,6.1-6.4v0.2c-1.5,0.2-1.9,1.4-1.9,6.2c0,3.6,1.6,5.6,3.8,5.6
		c1.4,0,2.5-0.4,3.6-1.3v0.1c-1.3,1.7-3.7,2.2-5.3,2.2C181.3,139,178.1,136.7,178.1,132.5z M183.7,131.4c2.2,0,3.1-0.7,3.1-2.8
		c0-1.2-0.5-2.3-1.6-2.4V126c3.3,0,4.9,2.3,4.9,4.2c0,0.4,0,0.9-0.1,1.3h-6.3V131.4z"/>
	<path class="st1" d="M191.6,121.4c2.3,0,4.2-0.2,6-1v16.9c0,0.6,0.4,1.3,1.9,1.3v0.2h-7.9v-0.2c1.5,0,1.9-0.6,1.9-1.3v-14.5
		c0-0.9-0.4-1.3-1.8-1.3V121.4z"/>
	<path class="st1" d="M205.3,135.8c-0.8,0-1.4,0.5-1.4,1.2c0,0.7,0.5,1.6,2.2,1.8v0.2c-3.3-0.1-5.1-1-5.1-2.5c0-1.1,1-1.8,2.1-1.8
		C204.1,134.7,204.9,135.2,205.3,135.8z M206.1,126.2c-0.9,0.2-1.8,0.6-1.8,1.7c0.1,2.9,8.2,3.4,8.2,7.3c0,2.4-2,3.7-5.3,3.8v-0.2
		c1-0.2,2.2-0.5,2.2-1.8c0-2.6-8.2-3.5-8.2-7.3c0-2.2,2.1-3.5,4.9-3.6V126.2z M212,128.6c0,0.8-0.6,1.5-1.8,1.5
		c-1,0-1.8-0.5-2.1-1.2c0.8-0.1,1.1-0.6,1.1-1.2c0-0.8-1-1.5-2-1.6V126C210,126.2,212,127.2,212,128.6z"/>
	<path class="st1" d="M214.6,132.5c0-4.2,3.2-6.4,6.1-6.4v0.2c-1.5,0.2-1.9,1.4-1.9,6.2c0,3.6,1.6,5.6,3.8,5.6
		c1.4,0,2.5-0.4,3.6-1.3v0.1c-1.3,1.7-3.7,2.2-5.3,2.2C217.8,139,214.6,136.7,214.6,132.5z M220.2,131.4c2.2,0,3.1-0.7,3.1-2.8
		c0-1.2-0.5-2.3-1.6-2.4V126c3.3,0,4.9,2.3,4.9,4.2c0,0.4,0,0.9-0.1,1.3h-6.3V131.4z"/>
</g>
</svg>
