<svg id="Layer_1" data-name="Layer 1" xmlns="http://www.w3.org/2000/svg" viewBox="0 0 300 150"><defs><style>.cls-1{fill:#fff;}</style></defs><title>Artboard 8</title><path class="cls-1" d="M26.27,102.28l.1.2a6.87,6.87,0,0,1-6,3c-4.08,0-9.15-2.9-9.15-8.72,0-6.33,4.95-8.68,8.55-8.78v.15c-1.75.38-3.65,2-3.65,8.45s2.57,7.9,5.4,7.9A6.13,6.13,0,0,0,26.27,102.28ZM26.47,88v6.08h-.2c-1-3.33-2.82-5.25-5.27-5.93V88a8.63,8.63,0,0,1,4.52,1.15L26.27,88Z"/><path class="cls-1" d="M34,103.83c0,.62.38,1.27,1.88,1.27v.15H28v-.15c1.5,0,1.88-.65,1.88-1.27V89.33c0-.9-.43-1.33-1.85-1.33v-.15a15.37,15.37,0,0,0,6-1ZM42.77,96v7.8c0,.62.38,1.27,1.88,1.27v.15H36.8v-.15c1.47,0,1.85-.65,1.85-1.27V96a1.86,1.86,0,0,0-2-2.13,2.67,2.67,0,0,0-1.9.78v-.15a5.12,5.12,0,0,1,4.15-2C41.17,92.5,42.77,93.55,42.77,96Z"/><path class="cls-1" d="M52.22,92.65c-1.47.18-2,1.43-2,6.3,0,4.7.5,6.25,2,6.4v.15A6.37,6.37,0,0,1,46,99a6.27,6.27,0,0,1,6.22-6.45Zm7.2,6.3a6.36,6.36,0,0,1-6.2,6.55v-.15c1.48-.15,2-1.73,2-6.4,0-4.9-.5-6.15-2-6.3V92.5A6.23,6.23,0,0,1,59.42,99Z"/><path class="cls-1" d="M67.75,92.65c-1.48.18-2,1.43-2,6.3,0,4.7.5,6.25,2,6.4v.15A6.37,6.37,0,0,1,61.52,99a6.27,6.27,0,0,1,6.23-6.45ZM75,99a6.37,6.37,0,0,1-6.2,6.55v-.15c1.47-.15,2-1.73,2-6.4,0-4.9-.5-6.15-2-6.3V92.5A6.23,6.23,0,0,1,75,99Z"/><path class="cls-1" d="M81.4,102.28a1.27,1.27,0,0,0-1.4,1.25c0,.72.5,1.64,2.22,1.82v.15c-3.32-.13-5.15-1-5.15-2.47a2,2,0,0,1,2.13-1.85A2.54,2.54,0,0,1,81.4,102.28Zm.82-9.63c-.92.18-1.82.65-1.8,1.68.08,2.9,8.18,3.37,8.18,7.35,0,2.42-2,3.69-5.28,3.82v-.15c1.05-.18,2.23-.55,2.23-1.85,0-2.6-8.2-3.55-8.2-7.35,0-2.2,2.07-3.52,4.87-3.65Zm5.9,2.43a1.64,1.64,0,0,1-1.85,1.55,2.13,2.13,0,0,1-2.12-1.2,1.11,1.11,0,0,0,1.12-1.18c0-.75-1-1.47-2-1.6V92.5C86.15,92.65,88.12,93.68,88.12,95.08Z"/><path class="cls-1" d="M90.7,99a6.19,6.19,0,0,1,6.12-6.45v.15c-1.47.18-1.87,1.43-1.87,6.2,0,3.6,1.6,5.57,3.82,5.57a5.39,5.39,0,0,0,3.65-1.32v.15a7,7,0,0,1-5.3,2.25A6.33,6.33,0,0,1,90.7,99Zm5.62-1c2.2,0,3.13-.7,3.13-2.8,0-1.2-.5-2.3-1.63-2.45V92.5c3.3,0,4.9,2.35,4.9,4.25a7.85,7.85,0,0,1-.12,1.3H96.32Z"/><path class="cls-1" d="M117.5,105.35v.15a9.46,9.46,0,0,1-4.85-1.22l-.83,1.22h-.2V99.4h.2A8.38,8.38,0,0,0,117.5,105.35Zm7.35-5c0,3.22-2.4,5-6.28,5.12v-.15c1.38-.25,2.73-1,2.73-2.55,0-4.37-9.55-4.77-9.55-9.85,0-3,2.42-4.72,5.75-5v.15a2.37,2.37,0,0,0-2.2,2.3C115.3,94.83,124.85,95.3,124.85,100.38Zm-6.28-12.23V88a8.05,8.05,0,0,1,4.5,1.33L124,88h.2v5.58H124A8,8,0,0,0,118.57,88.15Z"/><path class="cls-1" d="M136.25,103.33v.15a5.26,5.26,0,0,1-4.28,2c-2.25,0-3.85-1-3.85-3.52v-8.2h-1.3l.28-.38h1V90.7a6.27,6.27,0,0,0,4.1-1.4v4.1h3.38l-.28.38h-3.1v8.27c0,1.25.48,2.55,1.65,2.55A3.72,3.72,0,0,0,136.25,103.33Z"/><path class="cls-1" d="M137.05,102.3c0-2.17,2-3.4,4.8-3.4h2.7v.15h-.75a2.48,2.48,0,0,0-2.65,2.73c0,1.37.4,2.42,1.57,2.42a2.75,2.75,0,0,0,1.83-.87v.15a5.36,5.36,0,0,1-4,2C138.45,105.5,137,104.3,137.05,102.3Zm1-7.07c0-1.28,1.15-2.58,4.55-2.73v.15a1.83,1.83,0,0,0-1.6,1.83c0,.9.62,1.45,1.62,1.52a2.8,2.8,0,0,1-2.4,1.2A2,2,0,0,1,138.05,95.23Zm7.25,7.45V95c0-1.23-.48-2.2-1.7-2.38V92.5c4.14.15,5.79,1.73,5.79,5v6.08c0,.72.25,1,.7,1s.8-.37,1.2-1.12h.15a3.12,3.12,0,0,1-3.24,2C146.2,105.5,145.3,104.8,145.3,102.68Z"/><path class="cls-1" d="M158.22,103.83c0,.62.38,1.27,1.88,1.27v.15h-7.88v-.15c1.5,0,1.88-.65,1.88-1.27V95c0-.9-.43-1.32-1.85-1.32v-.15a15.18,15.18,0,0,0,6-1ZM165,95.2a2.67,2.67,0,0,1-2.57,2.85A1.7,1.7,0,0,1,161,97.5a1.82,1.82,0,0,0,1-1.7,1.33,1.33,0,0,0-1.4-1.35,1.72,1.72,0,0,0-1.5,1v-.2a3.44,3.44,0,0,1,3.24-2.7A2.54,2.54,0,0,1,165,95.2Z"/><path class="cls-1" d="M26.27,129.28l.1.2a6.87,6.87,0,0,1-6,3c-4.08,0-9.15-2.9-9.15-8.72,0-6.33,4.95-8.68,8.55-8.78v.15c-1.75.38-3.65,2-3.65,8.45s2.57,7.9,5.4,7.9A6.13,6.13,0,0,0,26.27,129.28Zm.2-14.28v6.08h-.2c-1-3.33-2.82-5.25-5.27-5.93V115a8.63,8.63,0,0,1,4.52,1.15l.75-1.15Z"/><path class="cls-1" d="M28.37,129.3c0-2.17,2-3.4,4.8-3.4h2.7v.15h-.75a2.48,2.48,0,0,0-2.65,2.73c0,1.37.4,2.42,1.58,2.42a2.72,2.72,0,0,0,1.82-.87v.15a5.34,5.34,0,0,1-4,2C29.77,132.5,28.35,131.3,28.37,129.3Zm1-7.07c0-1.28,1.15-2.58,4.55-2.73v.15a1.83,1.83,0,0,0-1.6,1.83c0,.9.63,1.45,1.63,1.52a2.82,2.82,0,0,1-2.4,1.2A2,2,0,0,1,29.37,122.23Zm7.25,7.45V122c0-1.23-.47-2.2-1.7-2.38v-.15c4.15.15,5.8,1.73,5.8,5v6.08c0,.72.25,1,.7,1s.8-.37,1.2-1.12h.15a3.12,3.12,0,0,1-3.25,2C37.52,132.5,36.62,131.8,36.62,129.68Z"/><path class="cls-1" d="M49.55,130.83c0,.62.37,1.27,1.87,1.27v.15H43.55v-.15c1.5,0,1.87-.65,1.87-1.27V122c0-.9-.42-1.32-1.85-1.32v-.15a15.23,15.23,0,0,0,6-1Zm8.3-7.8v7.8c0,.62.35,1.27,1.85,1.27v.15H51.85v-.15c1.47,0,1.87-.65,1.87-1.27V123c0-1.4-.55-2.13-1.75-2.13a2.2,2.2,0,0,0-1.65.75v-.15a4.06,4.06,0,0,1,3.65-2C56.35,119.5,57.85,120.55,57.85,123Zm8.27,0v7.8c0,.62.37,1.27,1.87,1.27v.15H60.12v-.15c1.48,0,1.87-.65,1.87-1.27V123c0-1.4-.54-2.13-1.74-2.13a2.19,2.19,0,0,0-1.65.75v-.15a4,4,0,0,1,3.64-2C64.62,119.5,66.12,120.55,66.12,123Z"/><path class="cls-1" d="M74.67,136.05c0,.9.43,1.32,1.85,1.32v.15a16.28,16.28,0,0,0-6,1V121.93c0-.9-.43-1.33-1.85-1.33v-.15a16.48,16.48,0,0,0,6-1Zm9.53-10.17c0,5.22-2.75,6.62-5.13,6.62a4.7,4.7,0,0,1-3.65-2v-.15a3.54,3.54,0,0,0,2.1.87c1.18,0,2.43-.83,2.43-5.32s-1.18-5.1-2.43-5.1a2.84,2.84,0,0,0-2.1.92v-.2a4.68,4.68,0,0,1,3.65-2C81.5,119.5,84.2,120.9,84.2,125.88Z"/><path class="cls-1" d="M86.4,126a6.19,6.19,0,0,1,6.12-6.45v.15c-1.47.18-1.87,1.43-1.87,6.2,0,3.6,1.6,5.57,3.82,5.57a5.39,5.39,0,0,0,3.65-1.32v.15a7,7,0,0,1-5.3,2.25A6.33,6.33,0,0,1,86.4,126Zm5.62-1c2.2,0,3.13-.7,3.13-2.8,0-1.2-.5-2.3-1.63-2.45v-.15c3.3,0,4.9,2.35,4.9,4.25a7.85,7.85,0,0,1-.12,1.3H92Z"/><path class="cls-1" d="M106,130.83c0,.62.38,1.27,1.88,1.27v.15H100v-.15c1.5,0,1.88-.65,1.88-1.27V122c0-.9-.43-1.32-1.85-1.32v-.15a15.18,15.18,0,0,0,6-1Zm6.75-8.63a2.67,2.67,0,0,1-2.57,2.85,1.71,1.71,0,0,1-1.43-.55,1.82,1.82,0,0,0,1-1.7,1.33,1.33,0,0,0-1.4-1.35,1.72,1.72,0,0,0-1.5,1v-.2a3.46,3.46,0,0,1,3.25-2.7A2.54,2.54,0,0,1,112.77,122.2Z"/><path class="cls-1" d="M129.49,129.28l.11.2a6.87,6.87,0,0,1-6,3c-4.07,0-9.15-2.9-9.15-8.72,0-6.33,5-8.68,8.55-8.78v.15c-1.75.38-3.65,2-3.65,8.45s2.58,7.9,5.4,7.9A6.12,6.12,0,0,0,129.49,129.28ZM129.7,115v6.08h-.21c-1-3.33-2.82-5.25-5.27-5.93V115a8.6,8.6,0,0,1,4.52,1.15l.75-1.15Z"/><path class="cls-1" d="M131.6,129.3c0-2.17,2-3.4,4.8-3.4h2.7v.15h-.75a2.48,2.48,0,0,0-2.65,2.73c0,1.37.4,2.42,1.57,2.42a2.75,2.75,0,0,0,1.83-.87v.15a5.36,5.36,0,0,1-4,2C133,132.5,131.57,131.3,131.6,129.3Zm1-7.07c0-1.28,1.15-2.58,4.55-2.73v.15a1.83,1.83,0,0,0-1.6,1.83c0,.9.62,1.45,1.62,1.52a2.8,2.8,0,0,1-2.4,1.2A2,2,0,0,1,132.6,122.23Zm7.25,7.45V122c0-1.23-.48-2.2-1.7-2.38v-.15c4.15.15,5.8,1.73,5.8,5v6.08c0,.72.25,1,.7,1s.8-.37,1.2-1.12H146a3.1,3.1,0,0,1-3.24,2C140.75,132.5,139.85,131.8,139.85,129.68Z"/><path class="cls-1" d="M152.77,130.83c0,.62.38,1.27,1.88,1.27v.15h-7.88v-.15c1.5,0,1.88-.65,1.88-1.27V122c0-.9-.43-1.32-1.85-1.32v-.15a15.18,15.18,0,0,0,6-1Zm6.75-8.63a2.67,2.67,0,0,1-2.57,2.85,1.71,1.71,0,0,1-1.43-.55,1.81,1.81,0,0,0,1-1.7,1.32,1.32,0,0,0-1.39-1.35,1.72,1.72,0,0,0-1.5,1v-.2a3.46,3.46,0,0,1,3.25-2.7A2.54,2.54,0,0,1,159.52,122.2Z"/><path class="cls-1" d="M160.87,126A6.19,6.19,0,0,1,167,119.5v.15c-1.48.18-1.88,1.43-1.88,6.2,0,3.6,1.6,5.57,3.83,5.57a5.39,5.39,0,0,0,3.64-1.32v.15a7,7,0,0,1-5.29,2.25A6.34,6.34,0,0,1,160.87,126Zm5.63-1c2.2,0,3.12-.7,3.12-2.8,0-1.2-.5-2.3-1.62-2.45v-.15c3.29,0,4.89,2.35,4.89,4.25a7.85,7.85,0,0,1-.12,1.3H166.5Z"/></svg>