<?xml version="1.0" encoding="utf-8"?>
<!-- Generator: Adobe Illustrator 24.0.3, SVG Export Plug-In . SVG Version: 6.00 Build 0)  -->
<svg version="1.1" id="Layer_1" xmlns="http://www.w3.org/2000/svg" xmlns:xlink="http://www.w3.org/1999/xlink" x="0px" y="0px"
	 viewBox="0 0 300 150" style="enable-background:new 0 0 300 150;" xml:space="preserve">
<style type="text/css">
	.st0{enable-background:new    ;}
	.st1{fill:#263845;}
</style>
<title>Artboard 3</title>
<g class="st0">
	<path class="st1" d="M18.8,90.8v0.2h-8v-0.2c1.5,0,1.9-0.6,1.9-1.3V75.3c0-0.7-0.4-1.2-1.9-1.2v-0.2h6.1v15.6
		C16.9,90.2,17.2,90.8,18.8,90.8z M28.5,89.1c-0.4,1.4-1.9,2-3.7,2c-3.2,0-4-2.2-4.1-4.3c-0.1-2-0.3-3.6-2.5-4v-0.1
		c2.3,0,3.3-2,3.3-4.5c0-2.8-1-4.1-3.3-4.1v-0.2c5.1,0,7.6,1.1,7.6,4.3c0,2.7-2,4.3-5.7,4.6c4.5,0.2,5.2,2,5.5,4
		c0.2,2,0.8,3.4,1.6,3.4c0.4,0,0.8-0.4,1.2-1.1H28.5z"/>
</g>
<g class="st0">
	<path class="st1" d="M29,84.6c0-4.2,3.2-6.4,6.1-6.4v0.2c-1.5,0.2-1.9,1.4-1.9,6.2c0,3.6,1.6,5.6,3.8,5.6c1.4,0,2.5-0.4,3.6-1.3
		v0.1c-1.3,1.7-3.7,2.2-5.3,2.2C32.3,91.2,29,88.8,29,84.6z M34.7,83.6c2.2,0,3.1-0.7,3.1-2.8c0-1.2-0.5-2.3-1.6-2.4v-0.2
		c3.3,0,4.9,2.3,4.9,4.2c0,0.4,0,0.9-0.1,1.3h-6.3V83.6z"/>
	<path class="st1" d="M42.9,88c0-2.2,2-3.4,4.8-3.4h2.7v0.2h-0.7c-1.8,0-2.6,1.2-2.6,2.7c0,1.4,0.4,2.4,1.6,2.4
		c0.7,0,1.3-0.4,1.8-0.9v0.2c-0.8,0.9-2.1,2-4,2C44.3,91.2,42.8,90,42.9,88z M43.9,80.9c0-1.3,1.1-2.6,4.5-2.7v0.2
		c-1,0.1-1.6,0.9-1.6,1.8c0,0.9,0.6,1.5,1.6,1.5c-0.4,0.7-1.4,1.2-2.4,1.2C44.7,82.9,43.9,81.9,43.9,80.9z M51.1,88.3v-7.6
		c0-1.2-0.5-2.2-1.7-2.4v-0.2c4.1,0.2,5.8,1.7,5.8,5v6.1c0,0.7,0.2,1,0.7,1c0.4,0,0.8-0.4,1.2-1.1h0.1c-0.4,1.4-1.7,2-3.2,2
		C52,91.2,51.1,90.5,51.1,88.3z"/>
	<path class="st1" d="M57.9,73.5c2.3,0,4.2-0.2,6-1v16.9c0,0.6,0.4,1.3,1.9,1.3v0.2h-7.9v-0.2c1.5,0,1.9-0.6,1.9-1.3V75
		c0-0.9-0.4-1.3-1.8-1.3V73.5z"/>
</g>
<g class="st0">
	<path class="st1" d="M15.7,104l3.3,6.8l-2.1,4h-0.1l-5.8-11.5c-0.2-0.5-0.6-0.9-1.4-0.9v-0.2h7v0.2C15.6,102.6,15.2,103.2,15.7,104
		z M23.9,104l3.3,6.8l-2.1,4h-0.1l-3.9-7.8l-0.8,1.5l-0.2-0.2c0.4-0.8,0.5-2,0.2-2.8l-1.1-2.2c-0.2-0.5-0.6-0.9-1.4-0.9v-0.2h7v0.2
		C23.8,102.6,23.5,103.2,23.9,104z M32.6,102.4v0.2c-0.8,0-1.2,0.3-1.6,1.2l-2.6,4.9l-0.1-0.2c0.4-0.8,0.7-1.9,0.7-3.2
		c0-1.4-0.8-2.6-2.5-2.6v-0.2H32.6z"/>
</g>
<g class="st0">
	<path class="st1" d="M39,102.3c-1.5,0.2-2,1.4-2,6.3c0,4.7,0.5,6.2,2,6.4v0.2c-2.9,0-6.2-2.3-6.2-6.5c0-4.2,3.3-6.4,6.2-6.4V102.3z
		 M46.2,108.6c0,4.2-3.3,6.5-6.2,6.5V115c1.5-0.1,1.9-1.7,1.9-6.4c0-4.9-0.5-6.1-1.9-6.3v-0.2C42.9,102.2,46.2,104.4,46.2,108.6z"/>
	<path class="st1" d="M53.9,113.5c0,0.6,0.4,1.3,1.9,1.3v0.2h-7.9v-0.2c1.5,0,1.9-0.6,1.9-1.3v-8.9c0-0.9-0.4-1.3-1.8-1.3v-0.2
		c2.3,0,4.2-0.2,6-1V113.5z M60.6,104.9c0,1.7-1.2,2.8-2.6,2.8c-0.6,0-1.1-0.2-1.4-0.5c0.5-0.2,1-0.8,1-1.7c0-0.7-0.5-1.3-1.4-1.3
		c-0.6,0-1.2,0.4-1.5,0.9v-0.2c0.5-1.6,1.7-2.7,3.2-2.7C59.7,102.2,60.6,103.4,60.6,104.9z"/>
	<path class="st1" d="M61.5,97.5c2.3,0,4.2-0.2,6-1v16.9c0,0.6,0.4,1.3,1.9,1.3v0.2h-7.9v-0.2c1.5,0,1.9-0.6,1.9-1.3V99
		c0-0.9-0.4-1.3-1.8-1.3V97.5z"/>
	<path class="st1" d="M79.8,104.2v0.2c-0.6-0.6-1.3-0.9-2.1-0.9c-1.2,0-2.4,0.6-2.4,5.1c0,4.5,1.3,5.3,2.4,5.3
		c0.8,0,1.4-0.4,2.1-0.9v0.2c-0.6,1-2.2,2-3.6,2c-2.4,0-5.1-1.4-5.1-6.6c0-5,2.7-6.4,5.1-6.4C77.6,102.2,79.1,103.1,79.8,104.2z
		 M84.6,113.2c0,0.7,0.2,1,0.7,1c0.4,0,0.8-0.4,1.2-1.1h0.1c-0.4,1.4-1.7,2-3.2,2c-2,0-2.9-0.7-2.9-2.8V99c0-0.9-0.4-1.3-1.8-1.3
		v-0.1c2.3,0,3.9-0.2,6-1V113.2z"/>
</g>
<g class="st0">
	<path class="st1" d="M102.5,114.8v0.2h-8v-0.2c1.5,0,1.9-0.6,1.9-1.3V99.3c0-0.7-0.4-1.2-1.9-1.2v-0.2h6.1v15.6
		C100.6,114.2,101,114.8,102.5,114.8z M112.3,113.1c-0.4,1.4-1.9,2-3.7,2c-3.2,0-4-2.2-4.1-4.3c-0.1-2-0.3-3.6-2.5-4v-0.1
		c2.3,0,3.3-2,3.3-4.5c0-2.8-1-4.1-3.3-4.1v-0.2c5.1,0,7.6,1.1,7.6,4.3c0,2.7-2,4.3-5.7,4.6c4.5,0.2,5.2,2,5.5,4
		c0.2,2,0.8,3.4,1.6,3.4c0.4,0,0.8-0.4,1.2-1.1H112.3z"/>
</g>
<g class="st0">
	<path class="st1" d="M112.7,99.4c-0.4-1-1-1.3-2.2-1.3v-0.2h9v0.2c-1.1,0-2.2,0.8-1.5,2l4.7,9.9l-2.3,5.1h-0.3L112.7,99.4z
		 M123.6,107.8c1.4-3.3,1.8-5.4,1.8-7c0-1.8-1.5-2.7-2.8-2.7v-0.2h7.2V98c-1.1,0-1.8,1.1-2.6,2.8l-3.4,7.2L123.6,107.8z"/>
</g>
<g class="st0">
	<path class="st1" d="M10.3,127.1c2.3,0,4.2-0.2,6-1v11.3c0,0.6,0.4,1.3,1.9,1.3v0.2h-7.9v-0.2c1.5,0,1.9-0.6,1.9-1.3v-8.9
		c0-0.9-0.4-1.3-1.8-1.3V127.1z M11.6,122.4c0-1.3,1-2.2,2.5-2.2c1.5,0,2.5,0.9,2.5,2.2c0,1.3-1,2.2-2.5,2.2
		C12.6,124.6,11.6,123.7,11.6,122.4z"/>
	<path class="st1" d="M19.2,138.8c1.5,0,1.9-0.6,1.9-1.3v-8.9c0-0.9-0.4-1.3-1.8-1.3v-0.2c2.3,0,4.2-0.2,6-1v11.3
		c0,0.6,0.4,1.3,1.9,1.3v0.2h-7.9V138.8z M28,138.8c1.5,0,1.8-0.6,1.8-1.3v-7.8c0-1.4-0.7-2.1-2-2.1c-0.7,0-1.3,0.2-1.9,0.8v-0.2
		c0.7-1,2.3-2,4.1-2c2.2,0,3.8,1,3.8,3.5v7.8c0,0.6,0.4,1.3,1.9,1.3v0.2H28V138.8z"/>
	<path class="st1" d="M41.6,135.9c-0.8,0-1.4,0.5-1.4,1.2c0,0.7,0.5,1.6,2.2,1.8v0.2c-3.3-0.1-5.1-1-5.1-2.5c0-1.1,1-1.8,2.1-1.8
		C40.4,134.8,41.2,135.3,41.6,135.9z M42.4,126.3c-0.9,0.2-1.8,0.6-1.8,1.7c0.1,2.9,8.2,3.4,8.2,7.3c0,2.4-2,3.7-5.3,3.8V139
		c1-0.2,2.2-0.5,2.2-1.8c0-2.6-8.2-3.5-8.2-7.3c0-2.2,2.1-3.5,4.9-3.6V126.3z M48.3,128.7c0,0.8-0.6,1.5-1.8,1.5
		c-1,0-1.8-0.5-2.1-1.2c0.8-0.1,1.1-0.6,1.1-1.2c0-0.8-1-1.5-1.9-1.6v-0.2C46.3,126.3,48.3,127.3,48.3,128.7z"/>
	<path class="st1" d="M56.1,135.6c0,1.4,0.5,2.1,1.7,2.1c0.6,0,1.2-0.2,1.7-0.8v0.2c-0.6,1.1-1.8,2-3.9,2c-2.2,0-3.7-1-3.7-3.5v-7
		c0-0.9-0.4-1.3-1.8-1.3v-0.2c2.3,0,4.2-0.2,6-1V135.6z M64.5,137.2c0,0.7,0.2,1,0.7,1c0.4,0,0.8-0.4,1.2-1.1h0.1
		c-0.4,1.4-1.7,2-3.4,2c-1.8,0-2.7-1-2.7-2.4v-8.1c0-0.9-0.4-1.3-1.8-1.3v-0.2c2.2,0,3.8-0.2,5.9-1V137.2z"/>
</g>
<g class="st0">
	<path class="st1" d="M73.5,137.5c0,0.6,0.4,1.3,1.9,1.3v0.2h-7.9v-0.2c1.5,0,1.9-0.6,1.9-1.3v-8.9c0-0.9-0.4-1.3-1.8-1.3v-0.2
		c2.3,0,4.2-0.2,6-1V137.5z M80.2,128.9c0,1.7-1.2,2.8-2.6,2.8c-0.6,0-1.1-0.2-1.4-0.5c0.5-0.2,1-0.8,1-1.7c0-0.7-0.5-1.3-1.4-1.3
		c-0.6,0-1.2,0.4-1.5,0.9v-0.2c0.5-1.6,1.7-2.7,3.2-2.7C79.3,126.2,80.2,127.4,80.2,128.9z"/>
</g>
<g class="st0">
	<path class="st1" d="M81.3,136c0-2.2,2-3.4,4.8-3.4h2.7v0.2h-0.7c-1.8,0-2.6,1.2-2.6,2.7c0,1.4,0.4,2.4,1.6,2.4
		c0.7,0,1.3-0.4,1.8-0.9v0.2c-0.8,0.9-2.1,2-4,2C82.7,139.2,81.3,138,81.3,136z M82.3,128.9c0-1.3,1.1-2.6,4.5-2.7v0.2
		c-1,0.1-1.6,0.9-1.6,1.8c0,0.9,0.6,1.5,1.6,1.5c-0.4,0.7-1.4,1.2-2.4,1.2C83.1,130.9,82.3,129.9,82.3,128.9z M89.6,136.3v-7.6
		c0-1.2-0.5-2.2-1.7-2.4v-0.2c4.1,0.2,5.8,1.7,5.8,5v6.1c0,0.7,0.2,1,0.7,1c0.4,0,0.8-0.4,1.2-1.1h0.1c-0.4,1.4-1.7,2-3.2,2
		C90.5,139.2,89.6,138.5,89.6,136.3z"/>
	<path class="st1" d="M96.5,138.8c1.5,0,1.9-0.6,1.9-1.3v-8.9c0-0.9-0.4-1.3-1.8-1.3v-0.2c2.3,0,4.2-0.2,6-1v11.3
		c0,0.6,0.4,1.3,1.9,1.3v0.2h-7.9V138.8z M105.3,138.8c1.5,0,1.8-0.6,1.8-1.3v-7.8c0-1.4-0.7-2.1-2-2.1c-0.7,0-1.3,0.2-1.9,0.8v-0.2
		c0.7-1,2.3-2,4.1-2c2.2,0,3.8,1,3.8,3.5v7.8c0,0.6,0.4,1.3,1.9,1.3v0.2h-7.8V138.8z"/>
	<path class="st1" d="M120.9,126.3c-1.5,0.2-2.1,1.4-2.1,6.2c0,3.6,1.8,5.6,4,5.6c1.4,0,2.5-0.4,3.6-1.3v0.1
		c-1.3,1.7-3.7,2.2-5.3,2.2c-3.2,0-6.7-2.3-6.7-6.5c0-4.2,3.5-6.4,6.4-6.4V126.3z M126.4,129c0,1.3-0.9,2.4-2.5,2.4
		c-1.2,0-2-0.8-2.2-1.6c0.7-0.3,1.2-1.2,1.2-1.8c0-0.6-0.1-1.5-1.1-1.7v-0.2C125.2,126.2,126.4,127.6,126.4,129z"/>
	<path class="st1" d="M128.3,132.6c0-4.2,3.2-6.4,6.1-6.4v0.2c-1.5,0.2-1.9,1.4-1.9,6.2c0,3.6,1.6,5.6,3.8,5.6
		c1.4,0,2.5-0.4,3.6-1.3v0.1c-1.3,1.7-3.7,2.2-5.3,2.2C131.5,139.2,128.3,136.8,128.3,132.6z M133.9,131.6c2.2,0,3.1-0.7,3.1-2.8
		c0-1.2-0.5-2.3-1.6-2.4v-0.2c3.3,0,4.9,2.3,4.9,4.2c0,0.4,0,0.9-0.1,1.3h-6.3V131.6z"/>
</g>
</svg>
