<svg id="Layer_1" data-name="Layer 1" xmlns="http://www.w3.org/2000/svg" xmlns:xlink="http://www.w3.org/1999/xlink" viewBox="0 0 300 150"><defs><style>.cls-1{fill:none;}.cls-2{clip-path:url(#clip-path);}.cls-3{fill:#fb0010;}.cls-4{clip-path:url(#clip-path-2);}.cls-5{fill:#263845;}.cls-6{clip-path:url(#clip-path-3);}.cls-7{fill:#fff;}</style><clipPath id="clip-path"><rect class="cls-1" y="-264.37" width="300" height="150"/></clipPath><clipPath id="clip-path-2"><rect class="cls-1" x="330" y="-264.37" width="300" height="150"/></clipPath><clipPath id="clip-path-3"><rect class="cls-1" width="300" height="150"/></clipPath></defs><title>Artboard 2</title><g class="cls-2"><path class="cls-3" d="M-109.35-155.59,516.88,169.32c.44.22.89.41,1.32.63l0-341.71L-109.35-498Z"/></g><g class="cls-4"><path class="cls-5" d="M126.65-61.59,752.88,263.32c.44.22.89.41,1.32.63l0-341.71L126.65-404Z"/></g><g class="cls-6"><path class="cls-3" d="M14.47,64.12H107a7.91,7.91,0,0,0,7-4.28l10.43-20.09a8,8,0,0,0,0-7.29L114,12.37a7.91,7.91,0,0,0-7-4.28H14.47A4.81,4.81,0,0,0,9.66,12.9V59.31A4.81,4.81,0,0,0,14.47,64.12Z"/><path class="cls-7" d="M51.42,29.21l.2-.29c.14-.19.29-.2.51-.08a2.18,2.18,0,0,0,1.28.47c.59,0,.94-.3.94-.72,0-1.2-2.94-.95-2.94-2.91a1.92,1.92,0,0,1,2.12-1.83,2.91,2.91,0,0,1,1.63.48.34.34,0,0,1,.11.5l-.16.3c-.13.25-.32.22-.5.12a2.1,2.1,0,0,0-1.09-.35c-.59,0-1,.29-1,.71,0,1.18,2.93.88,2.93,2.89a1.88,1.88,0,0,1-2.08,1.86,3.31,3.31,0,0,1-1.93-.64A.32.32,0,0,1,51.42,29.21Z"/><path class="cls-7" d="M58,24.94H56.34a.32.32,0,0,1-.37-.36v-.25a.34.34,0,0,1,.37-.38h4.52a.34.34,0,0,1,.37.38v.25a.33.33,0,0,1-.37.36H59.17v4.94a.33.33,0,0,1-.37.37h-.4a.33.33,0,0,1-.37-.37Z"/><path class="cls-7" d="M62.73,24.26a.4.4,0,0,1,.41-.31h.57a.4.4,0,0,1,.42.31l2,5.57c.09.26,0,.42-.3.42h-.41A.39.39,0,0,1,65,30l-.44-1.31H62.32l-.44,1.3a.38.38,0,0,1-.42.31h-.4c-.28,0-.39-.16-.3-.42Zm1.51,3.45L63.68,26c-.1-.35-.25-1-.25-1h0s-.14.62-.25,1l-.57,1.69Z"/><path class="cls-7" d="M66.89,24.33a.34.34,0,0,1,.37-.38H69a3,3,0,0,1,1.2.17,1.75,1.75,0,0,1,1,1.72,1.84,1.84,0,0,1-1,1.73h0a2.24,2.24,0,0,1,.2.33l1,1.9c.15.26,0,.44-.26.44h-.48a.46.46,0,0,1-.43-.25l-1.11-2.1H68v2a.33.33,0,0,1-.37.37h-.4a.33.33,0,0,1-.37-.37Zm2.17,2.58a.92.92,0,0,0,1-1,.84.84,0,0,0-.5-.86,1.42,1.42,0,0,0-.68-.11H68v2Z"/><path class="cls-7" d="M51.84,32a.19.19,0,0,1,.21-.22h.19a.2.2,0,0,1,.21.22v5.8a.2.2,0,0,1-.21.22h-.19a.19.19,0,0,1-.21-.22Z"/><path class="cls-7" d="M53.93,33.8a.2.2,0,0,1,.22-.22h.16a.2.2,0,0,1,.21.22v.51a1.7,1.7,0,0,1,0,.32h0a2,2,0,0,1,1.81-1.16c1.1,0,1.5.63,1.5,1.73v2.62a.2.2,0,0,1-.23.22h-.17a.19.19,0,0,1-.21-.22V35.36c0-.7-.11-1.32-1-1.32a1.73,1.73,0,0,0-1.7,1.82v2a.19.19,0,0,1-.21.22h-.17a.2.2,0,0,1-.22-.22Z"/><path class="cls-7" d="M58.76,37.33l.08-.09q.1-.15.3,0a1.92,1.92,0,0,0,1.18.4c.49,0,.9-.24.9-.71,0-1-2.38-.71-2.38-2.18,0-.82.7-1.25,1.51-1.25a2.12,2.12,0,0,1,1.23.36.2.2,0,0,1,.06.3l-.06.09a.19.19,0,0,1-.3.07,1.64,1.64,0,0,0-1-.29c-.47,0-.88.21-.88.7,0,1,2.38.7,2.38,2.19a1.35,1.35,0,0,1-1.51,1.26,2.31,2.31,0,0,1-1.51-.52A.19.19,0,0,1,58.76,37.33Z"/><path class="cls-7" d="M62.71,33.8a.19.19,0,0,1,.21-.22h.17a.2.2,0,0,1,.23.22v2.46c0,.7.1,1.32,1,1.32a1.73,1.73,0,0,0,1.65-1.86V33.8a.2.2,0,0,1,.22-.22h.17a.2.2,0,0,1,.22.22v4a.2.2,0,0,1-.22.22h-.16a.19.19,0,0,1-.21-.22V37.3A1.84,1.84,0,0,1,66,37h0a1.93,1.93,0,0,1-1.76,1.17c-1.05,0-1.49-.57-1.49-1.73Z"/><path class="cls-7" d="M67.84,33.8a.2.2,0,0,1,.23-.22h.16a.2.2,0,0,1,.21.22v.6a1.65,1.65,0,0,1,0,.36h0a1.59,1.59,0,0,1,1.44-1.21c.16,0,.23.07.23.21v.16c0,.15-.1.22-.25.22-.94,0-1.39,1.08-1.39,2v1.67a.2.2,0,0,1-.22.22h-.16a.2.2,0,0,1-.23-.22Z"/><path class="cls-7" d="M73.16,35.31h.26v-.14c0-.87-.47-1.16-1.1-1.16a2.1,2.1,0,0,0-1.08.31.22.22,0,0,1-.31-.07l-.05-.09a.2.2,0,0,1,.06-.3,2.75,2.75,0,0,1,1.42-.39A1.52,1.52,0,0,1,74,35.18v2.64a.19.19,0,0,1-.21.22h-.14a.2.2,0,0,1-.22-.22v-.36a2.4,2.4,0,0,1,0-.33h0a1.66,1.66,0,0,1-1.5,1,1.38,1.38,0,0,1-1.51-1.31C70.44,35.39,72.3,35.31,73.16,35.31Zm-1.11,2.33A1.56,1.56,0,0,0,73.42,36v-.21h-.25c-.7,0-2.11,0-2.11,1A.89.89,0,0,0,72.05,37.64Z"/><path class="cls-7" d="M75.29,33.8a.2.2,0,0,1,.22-.22h.16a.2.2,0,0,1,.21.22v.51a1.7,1.7,0,0,1,0,.32h0a2,2,0,0,1,1.81-1.16c1.11,0,1.5.63,1.5,1.73v2.62a.2.2,0,0,1-.23.22h-.16a.2.2,0,0,1-.22-.22V35.36c0-.7-.11-1.32-1-1.32a1.73,1.73,0,0,0-1.7,1.82v2a.19.19,0,0,1-.21.22h-.17a.2.2,0,0,1-.22-.22Z"/><path class="cls-7" d="M82.5,33.47A2.35,2.35,0,0,1,84,34a.19.19,0,0,1,0,.3l-.06.1c-.08.12-.18.12-.3,0A1.87,1.87,0,0,0,82.52,34a1.8,1.8,0,0,0,0,3.6,2,2,0,0,0,1.26-.47c.12-.09.21-.08.29,0l.07.09a.21.21,0,0,1-.06.3,2.45,2.45,0,0,1-1.59.57,2.34,2.34,0,0,1,0-4.68Z"/><path class="cls-7" d="M86.9,33.47c1.19,0,1.86.86,1.86,2.13a.22.22,0,0,1-.23.22H85.32a1.71,1.71,0,0,0,1.73,1.79,1.89,1.89,0,0,0,1.17-.41.18.18,0,0,1,.29,0l.07.11a.2.2,0,0,1-.06.29,2.52,2.52,0,0,1-1.49.5,2.26,2.26,0,0,1-2.33-2.34A2.18,2.18,0,0,1,86.9,33.47Zm1.25,1.9A1.28,1.28,0,0,0,86.88,34a1.53,1.53,0,0,0-1.53,1.4Z"/><path class="cls-7" d="M54.57,40a3.52,3.52,0,0,1,2.06.63.33.33,0,0,1,.07.51l-.16.26c-.12.2-.29.22-.5.09a2.64,2.64,0,0,0-1.42-.44,2,2,0,0,0-2.12,2.16,2.12,2.12,0,0,0,2.13,2.25,2.57,2.57,0,0,0,1.54-.55.32.32,0,0,1,.51.07l.18.24a.34.34,0,0,1,0,.51,3.57,3.57,0,0,1-2.23.78,3.26,3.26,0,1,1,0-6.51Z"/><path class="cls-7" d="M60.15,43.63h.19v-.11a.74.74,0,0,0-.84-.8,2.1,2.1,0,0,0-.94.26.34.34,0,0,1-.5-.15L58,42.66a.32.32,0,0,1,.14-.49,3.12,3.12,0,0,1,1.48-.38,1.68,1.68,0,0,1,1.88,1.8v2.46a.34.34,0,0,1-.38.38h-.3c-.24,0-.36-.13-.36-.38v-.18a.76.76,0,0,1,0-.19h0a1.66,1.66,0,0,1-1.42.85,1.39,1.39,0,0,1-1.5-1.36C57.51,43.85,59.14,43.63,60.15,43.63Zm-.84,2a1.15,1.15,0,0,0,1-1.19v-.17h-.19c-.57,0-1.53.09-1.53.77A.61.61,0,0,0,59.31,45.67Z"/><path class="cls-7" d="M62.53,42.27a.33.33,0,0,1,.37-.37h.34a.33.33,0,0,1,.37.37v.28a1.34,1.34,0,0,1,0,.2h0a1.74,1.74,0,0,1,1.48-1,1.26,1.26,0,0,1,1.32.93h0A1.79,1.79,0,0,1,68,41.79c.94,0,1.48.54,1.48,1.72v2.54a.34.34,0,0,1-.37.38H68.7a.33.33,0,0,1-.37-.38V43.73c0-.52-.1-.91-.62-.91-.77,0-1.16.78-1.16,1.57v1.66c0,.25-.12.38-.36.38H65.8a.34.34,0,0,1-.37-.38V43.73c0-.49-.08-.91-.61-.91-.8,0-1.17.82-1.17,1.57v1.66c0,.25-.12.38-.36.38H62.9a.34.34,0,0,1-.37-.38Z"/><path class="cls-7" d="M70.53,42.27a.34.34,0,0,1,.38-.37h.28c.24,0,.36.13.36.31v.2a1.62,1.62,0,0,1,0,.18h0a1.63,1.63,0,0,1,1.46-.8,2.09,2.09,0,0,1,2,2.37A2.14,2.14,0,0,1,73,46.53a1.49,1.49,0,0,1-1.31-.69h0a2.34,2.34,0,0,1,0,.39v1.6a.32.32,0,0,1-.37.37h-.38a.34.34,0,0,1-.38-.37Zm2.22,3.31c.62,0,1.14-.5,1.14-1.4s-.46-1.42-1.12-1.42-1.15.43-1.15,1.43A1.25,1.25,0,0,0,72.75,45.58Z"/><path class="cls-7" d="M77.94,41.79A2,2,0,0,1,80,44a.4.4,0,0,1-.39.38H76.8a1.29,1.29,0,0,0,1.36,1.24,1.89,1.89,0,0,0,1-.29.33.33,0,0,1,.5.12l.11.18a.34.34,0,0,1-.13.5,2.8,2.8,0,0,1-1.53.45,2.32,2.32,0,0,1-2.44-2.37A2.24,2.24,0,0,1,77.94,41.79Zm.89,1.86a.93.93,0,0,0-.91-1,1.11,1.11,0,0,0-1.1,1Z"/><path class="cls-7" d="M80.8,42.27a.33.33,0,0,1,.36-.37h.35a.33.33,0,0,1,.37.37v.43a1.65,1.65,0,0,1,0,.31h0a1.56,1.56,0,0,1,1.31-1.15c.25,0,.34.13.34.38v.34a.35.35,0,0,1-.38.38c-.83,0-1.23.81-1.23,1.64v1.45c0,.25-.12.38-.36.38h-.39c-.24,0-.36-.13-.36-.38Z"/><path class="cls-7" d="M87.27,40a3.46,3.46,0,0,1,2,.63.34.34,0,0,1,.08.51l-.16.26a.33.33,0,0,1-.51.09,2.61,2.61,0,0,0-1.42-.44,2,2,0,0,0-2.11,2.16,2.11,2.11,0,0,0,2.12,2.25,2.57,2.57,0,0,0,1.54-.55c.2-.14.38-.14.52.07l.18.24a.34.34,0,0,1-.06.51,3.55,3.55,0,0,1-2.23.78,3.26,3.26,0,0,1,0-6.51Z"/><path class="cls-7" d="M92.85,43.63H93v-.11a.74.74,0,0,0-.84-.8,2.1,2.1,0,0,0-.94.26.34.34,0,0,1-.5-.15l-.09-.17a.33.33,0,0,1,.15-.49,3.05,3.05,0,0,1,1.48-.38,1.68,1.68,0,0,1,1.87,1.8v2.46a.33.33,0,0,1-.37.38h-.3a.34.34,0,0,1-.37-.38v-.18a.76.76,0,0,1,0-.19h0a1.64,1.64,0,0,1-1.42.85,1.39,1.39,0,0,1-1.5-1.36C90.2,43.85,91.84,43.63,92.85,43.63Zm-.85,2a1.15,1.15,0,0,0,1-1.19v-.17h-.18c-.57,0-1.54.09-1.54.77A.61.61,0,0,0,92,45.67Z"/><path class="cls-7" d="M95.23,42.27a.33.33,0,0,1,.36-.37h.35a.33.33,0,0,1,.37.37v.43a1.65,1.65,0,0,1,0,.31h0a1.56,1.56,0,0,1,1.31-1.15c.25,0,.34.13.34.38v.34a.35.35,0,0,1-.38.38c-.83,0-1.23.81-1.23,1.64v1.45c0,.25-.12.38-.36.38h-.39c-.24,0-.36-.13-.36-.38Z"/><path class="cls-7" d="M100.52,41.79a2,2,0,0,1,2,2.16.4.4,0,0,1-.39.38H99.37a1.3,1.3,0,0,0,1.36,1.24,1.86,1.86,0,0,0,1-.29c.23-.11.39-.08.5.12l.11.18a.34.34,0,0,1-.13.5,2.8,2.8,0,0,1-1.53.45,2.32,2.32,0,0,1-2.43-2.37A2.23,2.23,0,0,1,100.52,41.79Zm.88,1.86a.92.92,0,0,0-.91-1,1.1,1.1,0,0,0-1.09,1Z"/><path class="cls-7" d="M30.44,43.59a.71.71,0,0,1-.28-.06.63.63,0,0,1-.31-.76l6.56-20.21a1.4,1.4,0,0,1,1.34-1h0a1.37,1.37,0,0,1,1.33,1l1.33,4a.47.47,0,1,1-.9.3l-1.33-4a.44.44,0,0,0-.43-.32h0a.43.43,0,0,0-.43.31L31.38,41.13l8.37-11.45a2.61,2.61,0,0,1,2.1-1.06h5.57a1.4,1.4,0,0,1,1.34,1,1.38,1.38,0,0,1-.51,1.56l-5.1,3.71-.06,0,2,6.05a1.4,1.4,0,0,1-2.16,1.57l-4.41-3.2a1.39,1.39,0,0,1-.58-1.14,1.37,1.37,0,0,1,.58-1.13l3.7-2.68s0,0,0-.05l5.44-3.95a.44.44,0,0,0,.16-.5.43.43,0,0,0-.43-.31H41.85a1.67,1.67,0,0,0-1.34.67L31,43.34A.63.63,0,0,1,30.44,43.59Zm11.85-8.1-3.23,2.34a.44.44,0,0,0-.19.36.45.45,0,0,0,.19.37l4.41,3.2a.44.44,0,0,0,.53,0,.43.43,0,0,0,.16-.5Z"/><path class="cls-7" d="M30.78,33.55a.46.46,0,0,1-.27-.09l-3.25-2.3a1.4,1.4,0,0,1,.82-2.54h4a.48.48,0,0,1,.48.47.49.49,0,0,1-.48.48h-4a.43.43,0,0,0-.43.31.41.41,0,0,0,.16.5l3.25,2.3a.49.49,0,0,1,.11.67A.47.47,0,0,1,30.78,33.55Z"/><path class="cls-7" d="M35.21,50.31a1.48,1.48,0,0,1-.76-.21l-8.31-4.71A.46.46,0,0,1,25.9,45V34.84a.48.48,0,1,1,1,0V44.7l8.06,4.58a.6.6,0,0,0,.61,0l5.9-3.69a.47.47,0,0,1,.65.15.48.48,0,0,1-.15.66L36,50.07A1.53,1.53,0,0,1,35.21,50.31Z"/></g></svg>