<svg id="Layer_1" data-name="Layer 1" xmlns="http://www.w3.org/2000/svg" xmlns:xlink="http://www.w3.org/1999/xlink" viewBox="0 0 300 150"><defs><style>.cls-1{fill:none;}.cls-2{clip-path:url(#clip-path);}.cls-3{fill:#fb0010;}.cls-4{clip-path:url(#clip-path-2);}.cls-5{fill:#263845;}.cls-6{fill:#fff;}</style><clipPath id="clip-path"><rect class="cls-1" y="-264.37" width="300" height="150"/></clipPath><clipPath id="clip-path-2"><rect class="cls-1" x="330" y="-264.37" width="300" height="150"/></clipPath></defs><title>Artboard 2</title><g class="cls-2"><path class="cls-3" d="M-109.35-155.59,516.88,169.32c.44.22.89.41,1.32.63l0-341.71L-109.35-498Z"/></g><g class="cls-4"><path class="cls-5" d="M126.65-61.59,752.88,263.32c.44.22.89.41,1.32.63l0-341.71L126.65-404Z"/></g><path class="cls-3" d="M14.81,66h92.5a7.91,7.91,0,0,0,7-4.28l10.43-20.09a8,8,0,0,0,0-7.3L114.34,14.27a7.92,7.92,0,0,0-7-4.27H14.81A4.81,4.81,0,0,0,10,14.81V61.22A4.81,4.81,0,0,0,14.81,66Z"/><path class="cls-6" d="M51.76,31.12l.2-.29c.14-.19.29-.2.51-.08a2.26,2.26,0,0,0,1.28.46c.59,0,.94-.29.94-.72,0-1.19-2.94-.95-2.94-2.91a1.91,1.91,0,0,1,2.12-1.82,3,3,0,0,1,1.63.47.36.36,0,0,1,.11.51l-.16.29c-.13.26-.32.23-.5.13a2.1,2.1,0,0,0-1.09-.35c-.59,0-1,.29-1,.71,0,1.18,2.94.88,2.94,2.89a1.89,1.89,0,0,1-2.09,1.86,3.31,3.31,0,0,1-1.93-.64A.32.32,0,0,1,51.76,31.12Z"/><path class="cls-6" d="M58.37,26.85H56.68a.33.33,0,0,1-.37-.37v-.25a.33.33,0,0,1,.37-.37H61.2a.34.34,0,0,1,.37.37v.25a.33.33,0,0,1-.37.37H59.51v4.94a.33.33,0,0,1-.37.37h-.4a.33.33,0,0,1-.37-.37Z"/><path class="cls-6" d="M63.07,26.16a.4.4,0,0,1,.41-.3h.57a.4.4,0,0,1,.42.3l2,5.58c.09.25,0,.42-.3.42h-.41a.4.4,0,0,1-.42-.3l-.44-1.31H62.66l-.44,1.3a.39.39,0,0,1-.41.31H61.4c-.28,0-.39-.17-.3-.42Zm1.51,3.46L64,27.93c-.1-.36-.24-1-.24-1h0s-.14.62-.25,1l-.57,1.69Z"/><path class="cls-6" d="M67.23,26.23a.34.34,0,0,1,.37-.37h1.7a3,3,0,0,1,1.2.17,1.75,1.75,0,0,1,1,1.72,1.81,1.81,0,0,1-1,1.72v0a2.24,2.24,0,0,1,.2.33l1,1.9c.15.26,0,.44-.26.44H71a.45.45,0,0,1-.43-.26l-1.11-2.09h-1.1v2a.33.33,0,0,1-.37.37h-.4a.33.33,0,0,1-.37-.37Zm2.17,2.59a.92.92,0,0,0,1-1,.85.85,0,0,0-.5-.86,1.58,1.58,0,0,0-.68-.1h-.84v2Z"/><path class="cls-6" d="M52.18,33.93a.19.19,0,0,1,.21-.22h.19a.2.2,0,0,1,.21.22v5.8a.2.2,0,0,1-.21.22h-.19a.19.19,0,0,1-.21-.22Z"/><path class="cls-6" d="M54.27,35.71a.2.2,0,0,1,.22-.23h.16a.2.2,0,0,1,.21.23v.51a1.7,1.7,0,0,1,0,.32h0a2,2,0,0,1,1.81-1.16c1.11,0,1.5.63,1.5,1.73v2.62a.2.2,0,0,1-.23.22h-.16a.2.2,0,0,1-.22-.22V37.27c0-.7-.11-1.32-1-1.32a1.73,1.73,0,0,0-1.7,1.81v2a.19.19,0,0,1-.21.22h-.17a.2.2,0,0,1-.22-.22Z"/><path class="cls-6" d="M59.1,39.24l.08-.09c.08-.11.17-.12.3,0a1.91,1.91,0,0,0,1.18.41c.49,0,.9-.25.9-.72,0-1-2.38-.7-2.38-2.17,0-.83.7-1.25,1.51-1.25a2.12,2.12,0,0,1,1.23.36A.19.19,0,0,1,62,36l-.06.1a.19.19,0,0,1-.3.06,1.73,1.73,0,0,0-1-.28c-.47,0-.88.2-.88.69,0,1,2.38.7,2.38,2.19a1.34,1.34,0,0,1-1.51,1.26,2.32,2.32,0,0,1-1.51-.51A.19.19,0,0,1,59.1,39.24Z"/><path class="cls-6" d="M63.05,35.71c0-.15.07-.23.21-.23h.17a.21.21,0,0,1,.23.23v2.45c0,.71.1,1.33,1,1.33a1.74,1.74,0,0,0,1.65-1.87V35.71a.2.2,0,0,1,.22-.23h.17c.15,0,.22.08.22.23v4a.2.2,0,0,1-.22.22H66.5a.19.19,0,0,1-.21-.22v-.52a1.7,1.7,0,0,1,0-.32h0a1.92,1.92,0,0,1-1.76,1.16c-1.05,0-1.49-.56-1.49-1.73Z"/><path class="cls-6" d="M68.18,35.71a.21.21,0,0,1,.23-.23h.16a.2.2,0,0,1,.21.23v.6a1.5,1.5,0,0,1,0,.35h0a1.59,1.59,0,0,1,1.44-1.2c.16,0,.23.07.23.21v.16c0,.14-.1.22-.25.22-.94,0-1.39,1.08-1.39,2v1.67a.2.2,0,0,1-.22.22h-.16a.2.2,0,0,1-.23-.22Z"/><path class="cls-6" d="M73.5,37.21h.26v-.14c0-.86-.47-1.15-1.1-1.15a2.1,2.1,0,0,0-1.08.31.22.22,0,0,1-.31-.07l0-.09a.2.2,0,0,1,.06-.3,2.75,2.75,0,0,1,1.42-.39,1.51,1.51,0,0,1,1.66,1.71v2.64a.19.19,0,0,1-.21.22H74a.2.2,0,0,1-.22-.22v-.36a2.66,2.66,0,0,1,0-.34h0a1.64,1.64,0,0,1-1.5,1,1.37,1.37,0,0,1-1.51-1.3C70.78,37.29,72.64,37.21,73.5,37.21Zm-1.11,2.34a1.56,1.56,0,0,0,1.37-1.67v-.21h-.25c-.7,0-2.11,0-2.11,1A.9.9,0,0,0,72.39,39.55Z"/><path class="cls-6" d="M75.63,35.71a.2.2,0,0,1,.22-.23H76a.2.2,0,0,1,.21.23v.51a1.7,1.7,0,0,1,0,.32h0A2,2,0,0,1,78,35.38c1.11,0,1.5.63,1.5,1.73v2.62a.2.2,0,0,1-.23.22h-.16a.2.2,0,0,1-.22-.22V37.27c0-.7-.11-1.32-1-1.32a1.73,1.73,0,0,0-1.7,1.81v2A.19.19,0,0,1,76,40h-.17a.2.2,0,0,1-.22-.22Z"/><path class="cls-6" d="M82.84,35.38a2.42,2.42,0,0,1,1.49.5.2.2,0,0,1,0,.31l-.06.09c-.08.13-.18.13-.3,0a1.87,1.87,0,0,0-1.13-.41,1.8,1.8,0,0,0,0,3.59A1.93,1.93,0,0,0,84.13,39c.12-.09.21-.07.29.06l.07.08a.22.22,0,0,1-.06.31,2.51,2.51,0,0,1-1.59.56,2.34,2.34,0,1,1,0-4.67Z"/><path class="cls-6" d="M87.24,35.38c1.19,0,1.86.86,1.86,2.13a.22.22,0,0,1-.23.22H85.66a1.7,1.7,0,0,0,1.73,1.78,1.89,1.89,0,0,0,1.17-.41c.12-.07.22-.06.29.06l.07.1a.21.21,0,0,1-.06.3,2.6,2.6,0,0,1-1.49.49A2.25,2.25,0,0,1,85,37.72,2.18,2.18,0,0,1,87.24,35.38Zm1.25,1.9a1.28,1.28,0,0,0-1.27-1.4,1.53,1.53,0,0,0-1.53,1.4Z"/><path class="cls-6" d="M54.91,41.93a3.52,3.52,0,0,1,2.06.63.33.33,0,0,1,.07.51l-.16.26c-.12.2-.29.22-.5.09A2.64,2.64,0,0,0,55,43a2,2,0,0,0-2.12,2.17A2.12,2.12,0,0,0,55,47.39a2.64,2.64,0,0,0,1.54-.55.32.32,0,0,1,.51.06l.18.24a.35.35,0,0,1-.05.52,3.57,3.57,0,0,1-2.23.78,3.26,3.26,0,1,1,0-6.51Z"/><path class="cls-6" d="M60.49,45.54h.19v-.11a.74.74,0,0,0-.84-.8,2,2,0,0,0-.94.26.34.34,0,0,1-.5-.15l-.09-.17a.33.33,0,0,1,.14-.5,3.27,3.27,0,0,1,1.49-.37,1.68,1.68,0,0,1,1.87,1.8V48a.33.33,0,0,1-.38.37h-.3a.32.32,0,0,1-.36-.37v-.18a.76.76,0,0,1,0-.19h0a1.66,1.66,0,0,1-1.42.85,1.39,1.39,0,0,1-1.5-1.36C57.85,45.76,59.48,45.54,60.49,45.54Zm-.84,2a1.15,1.15,0,0,0,1-1.19v-.17H60.5c-.56,0-1.53.09-1.53.76A.61.61,0,0,0,59.65,47.58Z"/><path class="cls-6" d="M62.87,44.18a.33.33,0,0,1,.37-.37h.34a.33.33,0,0,1,.37.37v.27a1.37,1.37,0,0,1,0,.21h0a1.74,1.74,0,0,1,1.48-1,1.26,1.26,0,0,1,1.32.93h0a1.79,1.79,0,0,1,1.54-.93c.94,0,1.48.53,1.48,1.72V48a.33.33,0,0,1-.37.37H69a.32.32,0,0,1-.37-.37V45.63c0-.51-.1-.9-.62-.9-.77,0-1.16.78-1.16,1.57V48a.32.32,0,0,1-.36.37h-.39a.33.33,0,0,1-.37-.37V45.63c0-.48-.08-.9-.61-.9-.8,0-1.17.82-1.17,1.57V48a.32.32,0,0,1-.36.37h-.39a.33.33,0,0,1-.37-.37Z"/><path class="cls-6" d="M70.87,44.18a.34.34,0,0,1,.38-.37h.28c.24,0,.36.13.36.31v.2a1.62,1.62,0,0,1,0,.18h0a1.63,1.63,0,0,1,1.46-.8,2.09,2.09,0,0,1,2,2.37,2.14,2.14,0,0,1-2.07,2.37A1.49,1.49,0,0,1,72,47.75h0a2.34,2.34,0,0,1,0,.39v1.59a.33.33,0,0,1-.37.38h-.38a.34.34,0,0,1-.38-.38Zm2.22,3.31c.62,0,1.14-.51,1.14-1.4s-.46-1.42-1.12-1.42S72,45.09,72,46.1A1.25,1.25,0,0,0,73.09,47.49Z"/><path class="cls-6" d="M78.28,43.7a2,2,0,0,1,2,2.16.4.4,0,0,1-.39.38H77.14a1.3,1.3,0,0,0,1.36,1.24,1.89,1.89,0,0,0,1-.29.33.33,0,0,1,.5.12l.11.18A.34.34,0,0,1,80,48a2.89,2.89,0,0,1-1.53.45A2.32,2.32,0,0,1,76,46.07,2.24,2.24,0,0,1,78.28,43.7Zm.89,1.86a.93.93,0,0,0-.91-1,1.1,1.1,0,0,0-1.09,1Z"/><path class="cls-6" d="M81.14,44.18a.33.33,0,0,1,.36-.37h.35a.33.33,0,0,1,.37.37v.43a1.79,1.79,0,0,1,0,.31h0a1.55,1.55,0,0,1,1.31-1.15c.25,0,.34.13.34.37v.35a.34.34,0,0,1-.38.37c-.83,0-1.23.82-1.23,1.64V48a.32.32,0,0,1-.36.37H81.5a.32.32,0,0,1-.36-.37Z"/><path class="cls-6" d="M87.61,41.93a3.46,3.46,0,0,1,2,.63.34.34,0,0,1,.08.51l-.16.26a.33.33,0,0,1-.51.09A2.58,2.58,0,0,0,87.65,43a2,2,0,0,0-2.11,2.17,2.11,2.11,0,0,0,2.12,2.25,2.64,2.64,0,0,0,1.54-.55c.2-.14.38-.14.52.06l.18.24a.35.35,0,0,1-.06.52,3.54,3.54,0,0,1-2.22.78,3.26,3.26,0,1,1,0-6.51Z"/><path class="cls-6" d="M93.19,45.54h.18v-.11a.74.74,0,0,0-.84-.8,2,2,0,0,0-.94.26.34.34,0,0,1-.5-.15L91,44.57a.33.33,0,0,1,.14-.5,3.19,3.19,0,0,1,1.48-.37,1.68,1.68,0,0,1,1.87,1.8V48a.32.32,0,0,1-.37.37h-.3a.33.33,0,0,1-.37-.37v-.18a.76.76,0,0,1,0-.19h0a1.64,1.64,0,0,1-1.42.85,1.39,1.39,0,0,1-1.5-1.36C90.54,45.76,92.18,45.54,93.19,45.54Zm-.84,2a1.14,1.14,0,0,0,1-1.19v-.17H93.2c-.57,0-1.54.09-1.54.76A.62.62,0,0,0,92.35,47.58Z"/><path class="cls-6" d="M95.57,44.18a.33.33,0,0,1,.36-.37h.35a.33.33,0,0,1,.37.37v.43a1.79,1.79,0,0,1,0,.31h0A1.55,1.55,0,0,1,98,43.77c.25,0,.34.13.34.37v.35a.34.34,0,0,1-.38.37c-.83,0-1.23.82-1.23,1.64V48a.32.32,0,0,1-.36.37h-.39a.32.32,0,0,1-.36-.37Z"/><path class="cls-6" d="M100.86,43.7a2,2,0,0,1,2,2.16.4.4,0,0,1-.39.38H99.71a1.31,1.31,0,0,0,1.36,1.24,1.86,1.86,0,0,0,1-.29c.23-.11.39-.08.5.12l.11.18a.34.34,0,0,1-.13.5,2.89,2.89,0,0,1-1.53.45,2.32,2.32,0,0,1-2.43-2.37A2.23,2.23,0,0,1,100.86,43.7Zm.88,1.86a.92.92,0,0,0-.91-1,1.1,1.1,0,0,0-1.09,1Z"/><path class="cls-6" d="M30.78,45.5a.58.58,0,0,1-.28-.07.61.61,0,0,1-.31-.75l6.56-20.21a1.4,1.4,0,0,1,1.34-1h0a1.37,1.37,0,0,1,1.33,1l1.33,4a.47.47,0,1,1-.9.3l-1.33-4a.44.44,0,0,0-.43-.31h0a.43.43,0,0,0-.43.31L31.72,43l8.37-11.45a2.61,2.61,0,0,1,2.1-1.07h5.57a1.4,1.4,0,0,1,.83,2.54l-5.1,3.7-.05.05,2,6.06a1.4,1.4,0,0,1-2.16,1.57l-4.41-3.2a1.4,1.4,0,0,1-.58-1.14A1.37,1.37,0,0,1,38.84,39l3.7-2.68a.12.12,0,0,1,.05,0l5.44-4a.44.44,0,0,0,.16-.5.42.42,0,0,0-.43-.31H42.19a1.63,1.63,0,0,0-1.33.67l-9.57,13.1A.63.63,0,0,1,30.78,45.5Zm11.85-8.1L39.4,39.74a.42.42,0,0,0-.18.36.45.45,0,0,0,.18.37l4.41,3.2a.45.45,0,0,0,.69-.51Z"/><path class="cls-6" d="M31.12,35.45a.45.45,0,0,1-.27-.08l-3.25-2.3a1.41,1.41,0,0,1,.82-2.55h4a.48.48,0,1,1,0,1h-4a.42.42,0,0,0-.43.31.41.41,0,0,0,.16.5l3.25,2.3a.47.47,0,0,1-.28.86Z"/><path class="cls-6" d="M35.55,52.21a1.47,1.47,0,0,1-.76-.2L26.48,47.3a.49.49,0,0,1-.24-.42V36.75a.48.48,0,1,1,1,0v9.86l8.07,4.57a.56.56,0,0,0,.6,0l5.9-3.69a.48.48,0,0,1,.5.81L36.37,52A1.61,1.61,0,0,1,35.55,52.21Z"/><rect class="cls-1" width="300" height="150"/></svg>