<?xml version="1.0" encoding="utf-8"?>
<!-- Generator: Adobe Illustrator 24.0.3, SVG Export Plug-In . SVG Version: 6.00 Build 0)  -->
<svg version="1.1" id="Layer_1" xmlns="http://www.w3.org/2000/svg" xmlns:xlink="http://www.w3.org/1999/xlink" x="0px" y="0px"
	 viewBox="0 0 300 600" style="enable-background:new 0 0 300 600;" xml:space="preserve">
<style type="text/css">
	.st0{clip-path:url(#SVGID_2_);}
	.st1{enable-background:new    ;}
	.st2{fill:#FFFFFF;}
</style>
<title>Artboard 2</title>
<g>
	<defs>
		<rect id="SVGID_1_" y="0.5" width="300" height="600"/>
	</defs>
	<clipPath id="SVGID_2_">
		<use xlink:href="#SVGID_1_"  style="overflow:visible;"/>
	</clipPath>
	<g class="st0">
		<g class="st1">
			<path class="st2" d="M23.7,55.2c3.8,0,6.9-0.4,9.8-1.6v18.6c0,1,0.6,2.1,3.1,2.1v0.2H23.7v-0.2c2.5,0,3.1-1.1,3.1-2.1V57.6
				c0-1.5-0.7-2.2-3-2.2V55.2z M25.8,47.5c0-2.1,1.7-3.6,4.2-3.6c2.5,0,4.2,1.4,4.2,3.6c0,2.2-1.7,3.6-4.2,3.6
				C27.5,51.1,25.8,49.6,25.8,47.5z"/>
			<path class="st2" d="M46.2,69.7c-1.4,0-2.3,0.8-2.3,2.1c0,1.2,0.8,2.7,3.7,3V75c-5.5-0.2-8.5-1.7-8.5-4.1c0-1.9,1.6-3,3.5-3
				C44.2,67.9,45.6,68.7,46.2,69.7z M47.6,53.9c-1.5,0.3-3,1.1-3,2.8C44.7,61.4,58,62.2,58,68.7c0,4-3.4,6.1-8.7,6.3v-0.2
				c1.7-0.3,3.7-0.9,3.7-3c0-4.3-13.5-5.8-13.5-12.1c0-3.6,3.4-5.8,8-6V53.9z M57.3,57.9c0,1.3-1,2.5-3,2.5c-1.7,0-3-0.7-3.5-2
				c1.2-0.1,1.9-0.9,1.8-1.9c0-1.2-1.6-2.4-3.2-2.6v-0.2C54,53.9,57.3,55.6,57.3,57.9z"/>
			<path class="st2" d="M71.9,64.2c0-6.9,5.3-10.6,10.1-10.6v0.2c-2.4,0.3-3.1,2.3-3.1,10.2c0,5.9,2.6,9.2,6.3,9.2
				c2.3,0,4.1-0.7,6-2.2v0.2C89,74,85.1,75,82.5,75C77.2,75,71.9,71.1,71.9,64.2z M81.1,62.5c3.6,0,5.1-1.1,5.1-4.6
				c0-2-0.8-3.8-2.7-4v-0.2c5.4,0,8,3.9,8,7c0,0.7-0.1,1.5-0.2,2.1H81.1V62.5z"/>
			<path class="st2" d="M94.6,69.7c0-3.6,3.3-5.6,7.9-5.6h4.4v0.2h-1.2c-3,0-4.4,1.9-4.4,4.5c0,2.3,0.7,4,2.6,4c1.1,0,2.1-0.6,3-1.4
				v0.2c-1.4,1.6-3.5,3.3-6.5,3.3C96.9,75,94.6,73,94.6,69.7z M96.3,58.1c0-2.1,1.9-4.2,7.5-4.5v0.2c-1.6,0.2-2.6,1.6-2.6,3
				c0,1.5,1,2.4,2.7,2.5c-0.6,1.1-2.3,2-3.9,2C97.6,61.3,96.3,59.8,96.3,58.1z M108.2,70.3V57.8c0-2-0.8-3.6-2.8-3.9v-0.2
				c6.8,0.2,9.5,2.8,9.5,8.2v10c0,1.2,0.4,1.7,1.1,1.7c0.6,0,1.3-0.6,2-1.8h0.2c-0.7,2.3-2.9,3.3-5.3,3.3
				C109.6,75,108.2,73.8,108.2,70.3z"/>
		</g>
		<g class="st1">
			<path class="st2" d="M127.4,69.7c-1.4,0-2.3,0.8-2.3,2.1c0,1.2,0.8,2.7,3.7,3V75c-5.5-0.2-8.5-1.7-8.5-4.1c0-1.9,1.6-3,3.5-3
				C125.4,67.9,126.8,68.7,127.4,69.7z M128.8,53.9c-1.5,0.3-3,1.1-3,2.8c0.1,4.8,13.4,5.5,13.4,12.1c0,4-3.4,6.1-8.7,6.3v-0.2
				c1.7-0.3,3.7-0.9,3.7-3c0-4.3-13.5-5.8-13.5-12.1c0-3.6,3.4-5.8,8-6V53.9z M138.5,57.9c0,1.3-1,2.5-3,2.5c-1.7,0-3-0.7-3.5-2
				c1.2-0.1,1.9-0.9,1.8-1.9c0-1.2-1.6-2.4-3.2-2.6v-0.2C135.2,53.9,138.5,55.6,138.5,57.9z"/>
		</g>
		<g class="st1">
			<path class="st2" d="M142.7,55.7c-0.4-0.9-1-1.4-2.3-1.4V54h11.5v0.2c-1.4,0-2,1-1.3,2.4l5.4,11.2l-3.5,6.7h-0.2L142.7,55.7z
				 M140.9,81.2c0-1.8,1.4-3.2,3.6-3.9c-0.1,0.4-0.2,0.7-0.2,1c0,1.6,0.8,2.8,2.4,2.8c1.4,0,2.6-1.5,4.1-4.1h0.3
				c-2.3,4.2-3.8,7.9-6.7,7.9C142.2,84.8,140.9,83.3,140.9,81.2z M157.7,63.9c0.7-1.3,1.1-3.1,1.1-5.3c0-2.3-1.3-4.3-4.2-4.3V54
				h10.2v0.2c-1.4,0-1.9,0.5-2.7,1.9l-4.3,8L157.7,63.9z"/>
		</g>
		<g class="st1">
			<path class="st2" d="M32.5,97.8l5.4,11.2l-3.5,6.7h-0.2l-9.5-18.8c-0.4-0.9-1-1.4-2.3-1.4v-0.2h11.5v0.2
				C32.4,95.3,31.8,96.3,32.5,97.8z M46,97.8l5.4,11.2l-3.5,6.7h-0.2l-6.4-12.8l-1.3,2.5l-0.2-0.4c0.7-1.4,0.9-3.4,0.3-4.6l-1.8-3.6
				c-0.4-0.9-1-1.4-2.3-1.4v-0.2h11.5v0.2C45.9,95.3,45.3,96.3,46,97.8z M60.3,95.1v0.2c-1.4,0-1.9,0.5-2.7,1.9l-4.3,8l-0.2-0.4
				c0.7-1.3,1.1-3.1,1.1-5.3c0-2.3-1.3-4.3-4.2-4.3v-0.2H60.3z"/>
			<path class="st2" d="M60.7,96.2c3.8,0,6.9-0.4,9.8-1.6v18.6c0,1,0.6,2.1,3.1,2.1v0.2H60.6v-0.2c2.5,0,3.1-1.1,3.1-2.1V98.7
				c0-1.5-0.7-2.2-3-2.2V96.2z M62.8,88.5c0-2.1,1.7-3.6,4.2-3.6c2.5,0,4.2,1.4,4.2,3.6c0,2.2-1.7,3.6-4.2,3.6
				C64.5,92.1,62.8,90.7,62.8,88.5z"/>
			<path class="st2" d="M91.2,112.5v0.2c-1.3,1.9-3.9,3.3-7,3.3c-3.7,0-6.3-1.7-6.3-5.8V96.8h-2.1l0.5-0.6h1.7v-4.4
				c2.5,0,5-0.8,6.7-2.3v6.7h5.5l-0.5,0.6h-5.1v13.6c0,2.1,0.8,4.2,2.7,4.2C88.5,114.6,89.9,113.8,91.2,112.5z"/>
			<path class="st2" d="M101.8,113.3c0,1,0.6,2.1,3.1,2.1v0.2H91.9v-0.2c2.5,0,3.1-1.1,3.1-2.1V89.5c0-1.5-0.7-2.2-3-2.2v-0.2
				c3.8,0,6.9-0.4,9.8-1.6V113.3z M116.2,100.5v12.8c0,1,0.6,2.1,3.1,2.1v0.2h-12.9v-0.2c2.4,0,3-1.1,3-2.1v-12.8
				c0-2.3-1.2-3.5-3.2-3.5c-1.1,0-2.1,0.4-3.1,1.3V98c1.1-1.7,3.8-3.3,6.8-3.3C113.5,94.7,116.2,96.4,116.2,100.5z"/>
		</g>
		<g class="st1">
			<path class="st2" d="M142.4,115.8v0.2c-3.2-0.1-5.8-0.7-8-2l-1.4,2h-0.3v-10h0.3C134.4,110.7,137.3,114.1,142.4,115.8z
				 M154.4,107.6c0,5.3-3.9,8.2-10.3,8.4v-0.2c2.3-0.4,4.5-1.7,4.5-4.2c0-7.2-15.7-7.8-15.7-16.2c0-4.9,4-7.8,9.4-8.1v0.2
				c-1.9,0.3-3.6,1.5-3.6,3.8C138.8,98.5,154.4,99.3,154.4,107.6z M144.1,87.5v-0.2c3.1,0.1,5.5,0.8,7.4,2.2l1.5-2.2h0.3v9.2H153
				C151.7,92.1,148.2,88.5,144.1,87.5z"/>
		</g>
		<g class="st1">
			<path class="st2" d="M173.2,112.5v0.2c-1.3,1.9-3.9,3.3-7,3.3c-3.7,0-6.3-1.7-6.3-5.8V96.8h-2.1l0.5-0.6h1.7v-4.4
				c2.5,0,5-0.8,6.7-2.3v6.7h5.5l-0.5,0.6h-5.1v13.6c0,2.1,0.8,4.2,2.7,4.2C170.4,114.6,171.8,113.8,173.2,112.5z"/>
			<path class="st2" d="M174.5,110.8c0-3.6,3.3-5.6,7.9-5.6h4.4v0.2h-1.2c-3,0-4.4,1.9-4.4,4.5c0,2.3,0.7,4,2.6,4
				c1.1,0,2.1-0.6,3-1.4v0.2c-1.4,1.6-3.5,3.3-6.5,3.3C176.8,116,174.4,114.1,174.5,110.8z M176.1,99.2c0-2.1,1.9-4.2,7.5-4.5v0.2
				c-1.6,0.2-2.6,1.6-2.6,3c0,1.5,1,2.4,2.7,2.5c-0.6,1.1-2.3,2-3.9,2C177.4,102.4,176.1,100.9,176.1,99.2z M188,111.4V98.8
				c0-2-0.8-3.6-2.8-3.9v-0.2c6.8,0.2,9.5,2.8,9.5,8.2v10c0,1.2,0.4,1.7,1.2,1.7c0.6,0,1.3-0.6,2-1.8h0.2c-0.7,2.3-2.9,3.3-5.3,3.3
				C189.5,116,188,114.9,188,111.4z"/>
		</g>
		<g class="st1">
			<path class="st2" d="M209.2,113.3c0,1,0.6,2.1,3.1,2.1v0.2h-12.9v-0.2c2.5,0,3.1-1.1,3.1-2.1V98.7c0-1.5-0.7-2.2-3-2.2v-0.2
				c3.8,0,6.9-0.4,9.8-1.6V113.3z M220.3,99.1c0,2.8-2,4.7-4.2,4.7c-1,0-1.8-0.2-2.3-0.9c0.8-0.4,1.6-1.3,1.6-2.8
				c0-1.2-0.9-2.2-2.3-2.2c-1.1,0-1.9,0.6-2.5,1.6v-0.3c0.8-2.6,2.8-4.4,5.3-4.4C218.8,94.7,220.3,96.7,220.3,99.1z"/>
		</g>
		<g class="st1">
			<path class="st2" d="M24.4,156.4c2.5,0,3.1-1,3.1-2.1v-23.2c0-1.1-0.6-2.1-3.1-2.1v-0.2h13.1v0.2c-2.5,0-3.1,1-3.1,2.1v23.2
				c0,1.1,0.6,2.1,3.1,2.1v0.2H24.4V156.4z"/>
			<path class="st2" d="M40.3,156.4c2.5,0,3.1-1.1,3.1-2.1v-14.6c0-1.5-0.7-2.2-3-2.2v-0.2c3.8,0,6.9-0.4,9.8-1.6v18.6
				c0,1,0.6,2.1,3.1,2.1v0.2H40.3V156.4z M54.7,156.4c2.4,0,3-1.1,3-2.1v-12.8c0-2.3-1.2-3.5-3.2-3.5c-1.1,0-2.1,0.4-3.1,1.3v-0.2
				c1.1-1.7,3.8-3.3,6.8-3.3c3.7,0,6.3,1.7,6.3,5.8v12.8c0,1,0.6,2.1,3.1,2.1v0.2H54.7V156.4z"/>
			<path class="st2" d="M77,151.8c-1.4,0-2.3,0.8-2.3,2.1c0,1.2,0.8,2.7,3.7,3v0.2c-5.5-0.2-8.5-1.7-8.5-4.1c0-1.9,1.6-3,3.5-3
				C75,150,76.4,150.8,77,151.8z M78.4,136c-1.5,0.3-3,1.1-3,2.8c0.1,4.8,13.4,5.5,13.4,12.1c0,4-3.4,6.1-8.7,6.3v-0.2
				c1.7-0.3,3.7-0.9,3.7-3c0-4.3-13.5-5.8-13.5-12.1c0-3.6,3.4-5.8,8-6V136z M88,140c0,1.3-1,2.5-3,2.5c-1.7,0-3-0.7-3.5-2
				c1.2-0.1,1.9-0.9,1.8-1.9c0-1.2-1.6-2.4-3.2-2.6v-0.2C84.8,136,88,137.7,88,140z"/>
			<path class="st2" d="M100.9,151.3c0,2.3,0.8,3.5,2.8,3.5c1.1,0,1.9-0.3,2.8-1.3v0.2c-0.9,1.8-3,3.3-6.4,3.3
				c-3.7,0-6.1-1.7-6.1-5.8v-11.5c0-1.5-0.7-2.2-3-2.2v-0.2c3.8,0,6.9-0.4,9.8-1.6V151.3z M114.6,153.9c0,1.2,0.4,1.7,1.1,1.7
				c0.6,0,1.3-0.6,2-1.8h0.2c-0.7,2.3-2.9,3.3-5.6,3.3c-2.9,0-4.5-1.6-4.5-4v-13.3c0-1.5-0.7-2.2-2.9-2.2v-0.2
				c3.7,0,6.2-0.4,9.7-1.6V153.9z"/>
		</g>
		<g class="st1">
			<path class="st2" d="M129.4,154.3c0,1,0.6,2.1,3.1,2.1v0.2h-12.9v-0.2c2.5,0,3.1-1.1,3.1-2.1v-14.6c0-1.5-0.7-2.2-3-2.2v-0.2
				c3.8,0,6.9-0.4,9.8-1.6V154.3z M140.5,140.2c0,2.8-2,4.7-4.2,4.7c-1,0-1.8-0.2-2.3-0.9c0.8-0.4,1.6-1.3,1.6-2.8
				c0-1.2-0.9-2.2-2.3-2.2c-1.1,0-1.9,0.6-2.5,1.6v-0.3c0.8-2.6,2.8-4.4,5.3-4.4C139,135.7,140.5,137.7,140.5,140.2z"/>
		</g>
		<g class="st1">
			<path class="st2" d="M142.3,151.8c0-3.6,3.3-5.6,7.9-5.6h4.4v0.2h-1.2c-3,0-4.4,1.9-4.4,4.5c0,2.3,0.7,4,2.6,4
				c1.2,0,2.1-0.6,3-1.4v0.2c-1.4,1.6-3.5,3.3-6.5,3.3C144.6,157.1,142.2,155.1,142.3,151.8z M143.9,140.2c0-2.1,1.9-4.2,7.5-4.5
				v0.2c-1.6,0.2-2.6,1.6-2.6,3c0,1.5,1,2.4,2.7,2.5c-0.6,1.1-2.3,2-3.9,2C145.2,143.5,143.9,141.9,143.9,140.2z M155.8,152.5v-12.6
				c0-2-0.8-3.6-2.8-3.9v-0.2c6.8,0.2,9.5,2.8,9.5,8.2v10c0,1.2,0.4,1.7,1.1,1.7c0.6,0,1.3-0.6,2-1.8h0.2c-0.7,2.3-2.9,3.3-5.3,3.3
				C157.3,157.1,155.8,156,155.8,152.5z"/>
			<path class="st2" d="M167.2,156.4c2.5,0,3.1-1.1,3.1-2.1v-14.6c0-1.5-0.7-2.2-3-2.2v-0.2c3.8,0,6.9-0.4,9.8-1.6v18.6
				c0,1,0.6,2.1,3.1,2.1v0.2h-12.9V156.4z M181.7,156.4c2.4,0,3-1.1,3-2.1v-12.8c0-2.3-1.2-3.5-3.2-3.5c-1.1,0-2.1,0.4-3.1,1.3v-0.2
				c1.1-1.7,3.8-3.3,6.8-3.3c3.7,0,6.3,1.7,6.3,5.8v12.8c0,1,0.6,2.1,3.1,2.1v0.2h-12.9V156.4z"/>
			<path class="st2" d="M207.3,136c-2.4,0.3-3.5,2.3-3.5,10.2c0,5.9,3,9.2,6.7,9.2c2.3,0,4.1-0.7,6-2.2v0.2c-2.1,2.7-6,3.7-8.7,3.7
				c-5.3,0-11-3.9-11-10.8s5.7-10.6,10.5-10.6V136z M216.4,140.4c0,2.2-1.5,3.9-4.1,3.9c-2,0-3.3-1.3-3.6-2.6c1.1-0.5,2-1.9,2-3
				c0-0.9-0.2-2.4-1.8-2.7v-0.3C214.3,135.7,216.4,138,216.4,140.4z"/>
			<path class="st2" d="M219.5,146.3c0-6.9,5.3-10.6,10.1-10.6v0.2c-2.4,0.3-3.1,2.3-3.1,10.2c0,5.9,2.6,9.2,6.3,9.2
				c2.3,0,4.1-0.7,6-2.2v0.2c-2.1,2.7-6,3.7-8.7,3.7C224.8,157.1,219.5,153.2,219.5,146.3z M228.7,144.6c3.6,0,5.1-1.1,5.1-4.6
				c0-2-0.8-3.8-2.7-4v-0.2c5.4,0,8,3.9,8,7c0,0.7-0.1,1.5-0.2,2.1h-10.3V144.6z"/>
		</g>
		<g class="st1">
			<path class="st2" d="M24.4,197.8v-0.2c2.5,0,3.1-0.9,3.1-2.1v-23.2c0-1.1-0.6-2.1-3.1-2.1v-0.2h10.1v27.9H24.4z M47.4,169.8v7.6
				H47c-1.8-5.2-4.3-6.9-10.5-7.4v-0.2H47.4z M36.5,183.4v-0.2l2.3-0.2c2.4-0.2,4.1-1.2,5.4-3.5h0.3v7.6h-0.3
				c-1.4-2.3-3-3.2-5.4-3.4L36.5,183.4z M36.5,197.5c6.2-0.4,9.2-2.2,11.4-7.4h0.3v7.6H36.5V197.5z"/>
			<path class="st2" d="M51.3,197.5c2.5,0,3.1-1.1,3.1-2.1v-14.6c0-1.5-0.7-2.2-3-2.2v-0.2c3.8,0,6.9-0.4,9.8-1.6v18.6
				c0,1,0.6,2.1,3.1,2.1v0.2H51.3V197.5z M65.7,197.5c2.4,0,3-1.1,3-2.1v-12.8c0-2.3-1.2-3.5-3.2-3.5c-1.1,0-2.1,0.4-3.1,1.3v-0.2
				c1.1-1.7,3.8-3.3,6.8-3.3c3.7,0,6.3,1.7,6.3,5.8v12.8c0,1,0.6,2.1,3.1,2.1v0.2H65.7V197.5z"/>
			<path class="st2" d="M96,194.6v0.2c-1.3,1.9-3.9,3.3-7,3.3c-3.7,0-6.3-1.7-6.3-5.8v-13.5h-2.1l0.5-0.6h1.7v-4.4
				c2.5,0,5-0.8,6.7-2.3v6.7h5.5l-0.5,0.6h-5.1v13.6c0,2.1,0.8,4.2,2.7,4.2C93.3,196.7,94.7,195.9,96,194.6z"/>
			<path class="st2" d="M106.6,195.4c0,1,0.6,2.1,3.1,2.1v0.2H96.8v-0.2c2.5,0,3.1-1.1,3.1-2.1v-23.8c0-1.5-0.7-2.2-3-2.2v-0.2
				c3.8,0,6.9-0.4,9.8-1.6V195.4z M121,182.6v12.8c0,1,0.6,2.1,3.1,2.1v0.2h-12.9v-0.2c2.4,0,3-1.1,3-2.1v-12.8
				c0-2.3-1.2-3.5-3.2-3.5c-1.1,0-2.1,0.4-3.1,1.3v-0.2c1.1-1.7,3.8-3.3,6.8-3.3C118.4,176.8,121,178.5,121,182.6z"/>
			<path class="st2" d="M134.9,192.4c0,2.3,0.8,3.5,2.8,3.5c1.1,0,1.9-0.3,2.8-1.3v0.2c-0.9,1.8-3,3.3-6.4,3.3
				c-3.7,0-6.1-1.7-6.1-5.8v-11.5c0-1.5-0.7-2.2-3-2.2v-0.2c3.8,0,6.9-0.4,9.8-1.6V192.4z M148.6,195c0,1.2,0.4,1.7,1.1,1.7
				c0.6,0,1.3-0.6,2-1.8h0.2c-0.7,2.3-2.9,3.3-5.6,3.3c-2.9,0-4.5-1.6-4.5-4v-13.3c0-1.5-0.7-2.2-2.9-2.2v-0.2
				c3.7,0,6.2-0.4,9.7-1.6V195z"/>
			<path class="st2" d="M161.5,192.9c-1.4,0-2.3,0.8-2.3,2.1c0,1.2,0.8,2.7,3.7,3v0.2c-5.5-0.2-8.5-1.7-8.5-4.1c0-1.9,1.6-3,3.5-3
				C159.5,191.1,160.8,191.8,161.5,192.9z M162.8,177.1c-1.5,0.3-3,1.1-3,2.8c0.1,4.8,13.4,5.5,13.4,12.1c0,4-3.4,6.1-8.7,6.3v-0.2
				c1.7-0.3,3.7-0.9,3.7-3c0-4.3-13.5-5.8-13.5-12.1c0-3.6,3.4-5.8,8-6V177.1z M172.5,181c0,1.3-1,2.5-3,2.5c-1.7,0-3-0.7-3.5-2
				c1.2-0.1,1.9-0.9,1.8-1.9c0-1.2-1.6-2.4-3.2-2.6v-0.2C169.3,177.1,172.5,178.7,172.5,181z"/>
			<path class="st2" d="M176.1,178.4c3.8,0,6.9-0.4,9.8-1.6v18.6c0,1,0.6,2.1,3.1,2.1v0.2H176v-0.2c2.5,0,3.1-1.1,3.1-2.1v-14.6
				c0-1.5-0.7-2.2-3-2.2V178.4z M178.2,170.6c0-2.1,1.7-3.6,4.2-3.6s4.2,1.4,4.2,3.6c0,2.2-1.7,3.6-4.2,3.6S178.2,172.8,178.2,170.6
				z"/>
			<path class="st2" d="M191,192.9c0-3.6,3.3-5.6,7.9-5.6h4.4v0.2h-1.2c-3,0-4.4,1.9-4.4,4.5c0,2.3,0.7,4,2.6,4c1.1,0,2.1-0.6,3-1.4
				v0.2c-1.4,1.6-3.5,3.3-6.5,3.3C193.3,198.2,191,196.2,191,192.9z M192.7,181.3c0-2.1,1.9-4.2,7.5-4.5v0.2c-1.6,0.2-2.6,1.6-2.6,3
				c0,1.5,1,2.4,2.7,2.5c-0.6,1.1-2.3,2-3.9,2C194,184.5,192.7,183,192.7,181.3z M204.6,193.5V181c0-2-0.8-3.6-2.8-3.9v-0.2
				c6.8,0.2,9.5,2.8,9.5,8.2v10c0,1.2,0.4,1.7,1.2,1.7c0.6,0,1.3-0.6,2-1.8h0.2c-0.7,2.3-2.9,3.3-5.3,3.3
				C206.1,198.2,204.6,197,204.6,193.5z"/>
			<path class="st2" d="M223.8,192.9c-1.4,0-2.3,0.8-2.3,2.1c0,1.2,0.8,2.7,3.7,3v0.2c-5.5-0.2-8.5-1.7-8.5-4.1c0-1.9,1.6-3,3.5-3
				C221.9,191.1,223.2,191.8,223.8,192.9z M225.2,177.1c-1.5,0.3-3,1.1-3,2.8c0.1,4.8,13.4,5.5,13.4,12.1c0,4-3.4,6.1-8.7,6.3v-0.2
				c1.7-0.3,3.7-0.9,3.7-3c0-4.3-13.5-5.8-13.5-12.1c0-3.6,3.4-5.8,8-6V177.1z M234.9,181c0,1.3-1,2.5-3,2.5c-1.7,0-3-0.7-3.5-2
				c1.2-0.1,1.9-0.9,1.8-1.9c0-1.2-1.6-2.4-3.2-2.6v-0.2C231.6,177.1,234.9,178.7,234.9,181z"/>
			<path class="st2" d="M254.3,194.6v0.2c-1.3,1.9-3.9,3.3-7,3.3c-3.7,0-6.3-1.7-6.3-5.8v-13.5h-2.1l0.5-0.6h1.7v-4.4
				c2.5,0,5-0.8,6.7-2.3v6.7h5.5l-0.5,0.6h-5.1v13.6c0,2.1,0.8,4.2,2.7,4.2C251.5,196.7,252.9,195.9,254.3,194.6z"/>
		</g>
	</g>
</g>
</svg>
