<svg id="Layer_1" data-name="Layer 1" xmlns="http://www.w3.org/2000/svg" xmlns:xlink="http://www.w3.org/1999/xlink" viewBox="0 0 300 600"><defs><style>.cls-1{fill:none;}.cls-2{clip-path:url(#clip-path);}.cls-3{fill:#263845;}</style><clipPath id="clip-path"><rect class="cls-1" width="300" height="600"/></clipPath></defs><title>Artboard 3</title><g class="cls-2"><path class="cls-3" d="M27.12,94.82l.28.42.27,14.7c0,1.5,1.12,2.94,3.42,2.94v.21H23.42v-.21c2.3,0,3.38-1.47,3.42-2.94ZM45.6,113.09H41.73L27.15,91.28a3.79,3.79,0,0,0-3.69-1.78v-.21h9.3L45.6,108.57Zm-.07-8-.28-.39-.42-12.21c0-1.51-1.12-2.94-3.42-2.94v-.21h7.67v.21c-2.3,0-3.41,1.47-3.41,2.94Z"/><path class="cls-3" d="M64.66,89.29h6.66l-13.84,23.8H50.86Zm-12.79,0H62.4l-.11.21a10.75,10.75,0,0,0-10.14,8.22h-.28Zm8,23.59a12,12,0,0,0,10.88-9.35H71v9.56H59.75Z"/><path class="cls-3" d="M81.05,90.41c0,2-2.16,4.72-5.65,6.16l-.11-.32a4.84,4.84,0,0,0,2-3.39,2.19,2.19,0,0,0-2.37-2.31c.28-2.07,1.5-3.19,3.31-3.19A2.82,2.82,0,0,1,81.05,90.41Z"/><path class="cls-3" d="M88.19,108.92a1.79,1.79,0,0,0-2,1.75c0,1,.7,2.31,3.1,2.56v.21c-4.63-.18-7.18-1.44-7.18-3.47a2.73,2.73,0,0,1,3-2.59A3.55,3.55,0,0,1,88.19,108.92Zm1.15-13.47c-1.29.24-2.54.91-2.51,2.34.11,4.06,11.41,4.73,11.41,10.29,0,3.4-2.86,5.18-7.36,5.36v-.21c1.46-.25,3.1-.77,3.1-2.59,0-3.64-11.43-5-11.43-10.29,0-3.08,2.89-4.94,6.79-5.11Zm8.23,3.39c0,1.09-.83,2.17-2.58,2.17a3,3,0,0,1-3-1.68,1.55,1.55,0,0,0,1.57-1.64c0-1-1.33-2.07-2.72-2.24v-.21C94.82,95.45,97.57,96.88,97.57,98.84Z"/><path class="cls-3" d="M109.21,88.73a21.2,21.2,0,0,0,8.34-1.37v23.73c0,.88.52,1.79,2.61,1.79v.21h-11v-.21c2.09,0,2.61-.91,2.61-1.79V90.79c0-1.26-.59-1.85-2.58-1.85Z"/><path class="cls-3" d="M122.25,104.27a8.65,8.65,0,0,1,8.54-9v.21c-2,.24-2.61,2-2.61,8.68,0,5,2.23,7.8,5.33,7.8a7.57,7.57,0,0,0,5.09-1.85v.21c-1.81,2.31-5.12,3.15-7.39,3.15A8.85,8.85,0,0,1,122.25,104.27Zm7.85-1.47c3.07,0,4.36-1,4.36-3.92,0-1.68-.7-3.22-2.27-3.43v-.21c4.6,0,6.83,3.29,6.83,6a10.9,10.9,0,0,1-.17,1.82H130.1Z"/><path class="cls-3" d="M141.53,109c0-3,2.79-4.76,6.7-4.76H152v.21h-1.05c-2.51,0-3.69,1.64-3.69,3.81,0,1.93.56,3.4,2.2,3.4a3.83,3.83,0,0,0,2.54-1.23v.21a7.41,7.41,0,0,1-5.54,2.84C143.48,113.44,141.5,111.76,141.53,109Zm1.4-9.91c0-1.78,1.6-3.6,6.34-3.81v.21A2.55,2.55,0,0,0,147,98c0,1.26.87,2,2.27,2.14a3.93,3.93,0,0,1-3.35,1.68A2.8,2.8,0,0,1,142.93,99.05ZM153,109.48V98.77c0-1.71-.67-3.08-2.37-3.32v-.21c5.78.21,8.08,2.41,8.08,7v8.5c0,1,.35,1.44,1,1.44s1.12-.53,1.67-1.58h.21c-.55,1.93-2.44,2.84-4.53,2.84C154.29,113.44,153,112.46,153,109.48Z"/><path class="cls-3" d="M175.7,98v.28a3.85,3.85,0,0,0-2.9-1.3c-1.74,0-3.41.81-3.41,7.14s1.77,7.46,3.41,7.46a4.76,4.76,0,0,0,2.9-1.23v.21a6.47,6.47,0,0,1-5.06,2.84c-3.31,0-7.18-2-7.18-9.28,0-7,3.8-8.92,7.18-8.92A6.43,6.43,0,0,1,175.7,98Zm6.8,12.7c0,1,.31,1.44.94,1.44s1.11-.53,1.67-1.58h.21c-.56,1.93-2.44,2.84-4.53,2.84-2.79,0-4-1-4-4V90.79c0-1.26-.59-1.85-2.58-1.85v-.21a22.69,22.69,0,0,0,8.34-1.37Z"/><path class="cls-3" d="M186.78,96.57a21.15,21.15,0,0,0,8.33-1.37v15.89c0,.88.53,1.79,2.62,1.79v.21h-11v-.21c2.09,0,2.61-.91,2.61-1.79V98.63c0-1.26-.59-1.85-2.58-1.85ZM188.56,90c0-1.82,1.46-3,3.56-3s3.55,1.23,3.55,3-1.46,3.08-3.55,3.08S188.56,91.84,188.56,90Z"/><path class="cls-3" d="M199.19,112.88c2.09,0,2.62-.91,2.62-1.79V98.67c0-1.26-.6-1.86-2.58-1.86V96.6a21.37,21.37,0,0,0,8.33-1.36v15.85c0,.88.52,1.79,2.61,1.79v.21h-11Zm12.27,0c2.06,0,2.58-.91,2.58-1.79V100.17c0-2-1-3-2.75-3a3.7,3.7,0,0,0-2.65,1.08v-.21a7.11,7.11,0,0,1,5.79-2.83c3.14,0,5.37,1.47,5.37,4.93v10.92c0,.88.52,1.79,2.61,1.79v.21H211.46Z"/><path class="cls-3" d="M224.47,101.57c0-4.55,4.25-6.26,7.81-6.33v.21c-1.5.14-2.2,2-2.2,6,0,4.23.7,6,2.2,6.09v.21C228.75,107.77,224.47,106.09,224.47,101.57Zm9.27,20.06c3.49-.42,4.6-2.31,4.6-3.57,0-4.87-13.59-.53-13.59-6.79,0-1.44.73-2.56,2.33-3.57l.11.17a.82.82,0,0,0-.32.67c0,3.92,15.9-.63,15.9,7,0,3.6-3.1,5.95-9,6.3Zm-9-2.94c0-2.07,2.54-2.7,5.29-2.7a3,3,0,0,0-1.5,2.49c0,1.61,1.82,2.83,3.81,3.15v.21C228.62,121.77,224.75,121,224.75,118.69Zm9-11.13c1.71-.14,2.41-1.86,2.41-6.09,0-4.06-.74-5.88-2.41-6v-.21c3.7.07,8,1.78,8,6.33s-4.28,6.2-8,6.2Zm1.88-13c.6-1.79,2.2-4.2,4.61-4.2,1.84,0,3,1,3,2.66a2.79,2.79,0,0,1-2.82,2.73c0-1.47-.77-2.35-1.89-2.35a3.77,3.77,0,0,0-2.68,1.26Z"/><path class="cls-3" d="M23.46,135.57a21.18,21.18,0,0,0,8.33-1.37v15.89c0,.88.52,1.79,2.61,1.79v.21h-11v-.21c2.09,0,2.62-.91,2.62-1.79V137.63c0-1.26-.6-1.85-2.58-1.85ZM25.23,129c0-1.82,1.47-3.05,3.56-3.05s3.56,1.23,3.56,3.05-1.47,3.08-3.56,3.08S25.23,130.84,25.23,129Z"/><path class="cls-3" d="M35.87,151.88c2.09,0,2.61-.91,2.61-1.79V137.67c0-1.26-.59-1.86-2.58-1.86v-.21a21.34,21.34,0,0,0,8.33-1.36v15.85c0,.88.53,1.79,2.62,1.79v.21h-11Zm12.27,0c2.06,0,2.58-.91,2.58-1.79V139.17c0-2-1-3-2.76-3a3.72,3.72,0,0,0-2.65,1.08v-.21a7.12,7.12,0,0,1,5.79-2.83c3.14,0,5.37,1.47,5.37,4.93v10.92c0,.88.53,1.79,2.62,1.79v.21h-11Z"/><path class="cls-3" d="M67,147.92a1.79,1.79,0,0,0-2,1.75c0,1,.7,2.31,3.1,2.56v.21C63.55,152.26,61,151,61,149a2.72,2.72,0,0,1,3-2.59A3.55,3.55,0,0,1,67,147.92Zm1.15-13.47c-1.29.24-2.54.91-2.51,2.34.11,4.06,11.4,4.73,11.4,10.29,0,3.4-2.85,5.18-7.35,5.36v-.21c1.46-.25,3.1-.77,3.1-2.59,0-3.64-11.44-5-11.44-10.29,0-3.08,2.9-4.94,6.8-5.11Zm8.23,3.39c0,1.09-.83,2.17-2.58,2.17a3,3,0,0,1-3-1.68,1.56,1.56,0,0,0,1.57-1.64c0-1.05-1.33-2.07-2.72-2.24v-.21C73.66,134.45,76.41,135.88,76.41,137.84Z"/><path class="cls-3" d="M87.36,147.5c0,2,.66,3,2.4,3a3.07,3.07,0,0,0,2.41-1.09v.21a5.8,5.8,0,0,1-5.41,2.84c-3.13,0-5.16-1.47-5.16-4.94v-9.83c0-1.26-.59-1.86-2.58-1.86v-.21a21.39,21.39,0,0,0,8.34-1.36ZM99,149.74c0,1,.31,1.44.94,1.44s1.12-.53,1.67-1.58h.21c-.56,1.93-2.44,2.84-4.74,2.84S93.21,151,93.21,149V137.67c0-1.26-.59-1.86-2.47-1.86v-.21A22.7,22.7,0,0,0,99,134.24Z"/><path class="cls-3" d="M111.55,150.09c0,.88.52,1.79,2.62,1.79v.21h-11v-.21c2.1,0,2.62-.91,2.62-1.79V137.67c0-1.26-.59-1.86-2.58-1.86v-.21a21.34,21.34,0,0,0,8.33-1.36ZM121,138a3.74,3.74,0,0,1-3.59,4,2.35,2.35,0,0,1-2-.77,2.57,2.57,0,0,0,1.36-2.38,1.86,1.86,0,0,0-2-1.89,2.4,2.4,0,0,0-2.09,1.33V138a4.83,4.83,0,0,1,4.53-3.78A3.54,3.54,0,0,1,121,138Z"/><path class="cls-3" d="M122.46,148c0-3.05,2.79-4.76,6.7-4.76h3.76v.21h-1c-2.5,0-3.69,1.64-3.69,3.81,0,1.93.56,3.4,2.2,3.4a3.83,3.83,0,0,0,2.54-1.23v.21a7.41,7.41,0,0,1-5.54,2.84C124.41,152.44,122.43,150.76,122.46,148Zm1.4-9.91c0-1.78,1.6-3.6,6.34-3.81v.21A2.55,2.55,0,0,0,128,137c0,1.26.87,2,2.27,2.14a3.93,3.93,0,0,1-3.35,1.68A2.8,2.8,0,0,1,123.86,138.05ZM134,148.48V137.77c0-1.71-.67-3.08-2.37-3.32v-.21c5.78.21,8.09,2.41,8.09,7v8.5c0,1,.34,1.44,1,1.44s1.12-.53,1.67-1.58h.21c-.55,1.93-2.44,2.84-4.53,2.84C135.22,152.44,134,151.46,134,148.48Z"/><path class="cls-3" d="M143.62,151.88c2.09,0,2.62-.91,2.62-1.79V137.67c0-1.26-.6-1.86-2.58-1.86v-.21a21.37,21.37,0,0,0,8.33-1.36v15.85c0,.88.52,1.79,2.61,1.79v.21h-11Zm12.27,0c2.06,0,2.58-.91,2.58-1.79V139.17c0-2-1-3-2.75-3a3.7,3.7,0,0,0-2.65,1.08v-.21a7.11,7.11,0,0,1,5.79-2.83c3.14,0,5.37,1.47,5.37,4.93v10.92c0,.88.52,1.79,2.61,1.79v.21h-11Z"/><path class="cls-3" d="M177.65,134.45c-2.06.24-3,2-3,8.68,0,5,2.55,7.8,5.65,7.8a7.59,7.59,0,0,0,5.09-1.85v.21c-1.81,2.31-5.12,3.15-7.39,3.15a9.13,9.13,0,0,1-9.31-9.17,9,9,0,0,1,8.93-9Zm7.74,3.74a3.25,3.25,0,0,1-3.49,3.36,3,3,0,0,1-3-2.2,3,3,0,0,0,1.67-2.56,2.08,2.08,0,0,0-1.5-2.31v-.24C183.61,134.24,185.39,136.2,185.39,138.19Z"/><path class="cls-3" d="M188,143.27a8.64,8.64,0,0,1,8.54-9v.21c-2,.24-2.61,2-2.61,8.68,0,5,2.23,7.8,5.33,7.8a7.59,7.59,0,0,0,5.09-1.85v.21c-1.81,2.31-5.12,3.15-7.39,3.15A8.85,8.85,0,0,1,188,143.27Zm7.85-1.47c3.06,0,4.35-1,4.35-3.92,0-1.68-.69-3.22-2.26-3.43v-.21c4.6,0,6.83,3.29,6.83,5.95a10.9,10.9,0,0,1-.17,1.82h-8.75Z"/><path class="cls-3" d="M30.08,186.92a1.79,1.79,0,0,0-1.95,1.75c0,1,.7,2.31,3.1,2.56v.21c-4.64-.18-7.18-1.44-7.18-3.47a2.72,2.72,0,0,1,3-2.59A3.55,3.55,0,0,1,30.08,186.92Zm1.15-13.47c-1.29.24-2.54.91-2.51,2.34.11,4.06,11.4,4.73,11.4,10.29,0,3.4-2.86,5.18-7.36,5.36v-.21c1.47-.25,3.11-.77,3.11-2.59,0-3.64-11.44-5-11.44-10.29,0-3.08,2.9-4.94,6.8-5.11Zm8.23,3.39A2.28,2.28,0,0,1,36.88,179a3,3,0,0,1-3-1.68,1.54,1.54,0,0,0,1.56-1.64c0-1.05-1.32-2.07-2.72-2.24v-.21C36.7,173.45,39.46,174.88,39.46,176.84Z"/><path class="cls-3" d="M50.47,196.41c0,1.26.6,1.85,2.58,1.85v.21a22.67,22.67,0,0,0-8.33,1.37V176.63c0-1.26-.59-1.85-2.58-1.85v-.21a22.67,22.67,0,0,0,8.33-1.37Zm13.29-14.25c0,7.32-3.84,9.28-7.15,9.28a6.53,6.53,0,0,1-5.09-2.84v-.21a4.84,4.84,0,0,0,2.93,1.23c1.64,0,3.38-1.16,3.38-7.46S56.19,175,54.45,175a3.9,3.9,0,0,0-2.93,1.3V176a6.49,6.49,0,0,1,5.09-2.8C60,173.24,63.76,175.2,63.76,182.16Z"/><path class="cls-3" d="M66.82,182.27a8.65,8.65,0,0,1,8.55-9v.21c-2.06.24-2.62,2-2.62,8.68,0,5,2.23,7.8,5.33,7.8a7.57,7.57,0,0,0,5.09-1.85v.21c-1.81,2.31-5.12,3.15-7.39,3.15A8.85,8.85,0,0,1,66.82,182.27Zm7.85-1.47c3.07,0,4.36-1,4.36-3.92,0-1.68-.7-3.22-2.27-3.43v-.21c4.6,0,6.83,3.29,6.83,5.95a10.9,10.9,0,0,1-.17,1.82H74.67Z"/><path class="cls-3" d="M95.38,173.45c-2.06.24-3,2-3,8.68,0,5,2.55,7.8,5.65,7.8a7.59,7.59,0,0,0,5.09-1.85v.21c-1.81,2.31-5.12,3.15-7.39,3.15a9.13,9.13,0,0,1-9.31-9.17,9,9,0,0,1,8.93-9Zm7.74,3.74a3.25,3.25,0,0,1-3.49,3.36,3,3,0,0,1-3-2.2,3,3,0,0,0,1.67-2.56,2.08,2.08,0,0,0-1.5-2.31v-.24C101.34,173.24,103.12,175.2,103.12,177.19Z"/><path class="cls-3" d="M105.17,174.57a21.15,21.15,0,0,0,8.33-1.37v15.89c0,.88.53,1.79,2.62,1.79v.21h-11v-.21c2.09,0,2.61-.91,2.61-1.79V176.63c0-1.26-.59-1.85-2.58-1.85ZM107,168c0-1.82,1.46-3.05,3.55-3.05s3.56,1.23,3.56,3.05-1.46,3.08-3.56,3.08S107,169.84,107,168Z"/><path class="cls-3" d="M117.86,187c0-3.05,2.79-4.76,6.69-4.76h3.77v.21h-1c-2.51,0-3.69,1.64-3.69,3.81,0,1.93.55,3.4,2.19,3.4a3.83,3.83,0,0,0,2.55-1.23v.21a7.41,7.41,0,0,1-5.54,2.84C119.81,191.44,117.82,189.76,117.86,187Zm1.39-9.91c0-1.78,1.61-3.6,6.35-3.81v.21a2.55,2.55,0,0,0-2.23,2.55c0,1.26.87,2,2.26,2.14a3.9,3.9,0,0,1-3.34,1.68A2.81,2.81,0,0,1,119.25,177.05Zm10.12,10.43V176.77c0-1.71-.67-3.08-2.38-3.32v-.21c5.79.21,8.09,2.41,8.09,7v8.5c0,1,.35,1.44,1,1.44s1.11-.53,1.67-1.58h.21c-.56,1.93-2.44,2.84-4.53,2.84C130.62,191.44,129.37,190.46,129.37,187.48Z"/><path class="cls-3" d="M138.84,166.73a21.2,21.2,0,0,0,8.34-1.37v23.73c0,.88.52,1.79,2.61,1.79v.21h-11v-.21c2.09,0,2.61-.91,2.61-1.79v-20.3c0-1.26-.59-1.85-2.58-1.85Z"/><path class="cls-3" d="M151.33,174.57a21.18,21.18,0,0,0,8.33-1.37v15.89c0,.88.52,1.79,2.61,1.79v.21h-11v-.21c2.09,0,2.62-.91,2.62-1.79V176.63c0-1.26-.6-1.85-2.58-1.85ZM153.1,168c0-1.82,1.47-3.05,3.56-3.05s3.56,1.23,3.56,3.05-1.47,3.08-3.56,3.08S153.1,169.84,153.1,168Z"/><path class="cls-3" d="M170.43,186.92a1.79,1.79,0,0,0-2,1.75c0,1,.7,2.31,3.1,2.56v.21c-4.64-.18-7.18-1.44-7.18-3.47a2.72,2.72,0,0,1,3-2.59A3.55,3.55,0,0,1,170.43,186.92Zm1.15-13.47c-1.29.24-2.54.91-2.51,2.34.11,4.06,11.4,4.73,11.4,10.29,0,3.4-2.86,5.18-7.35,5.36v-.21c1.46-.25,3.1-.77,3.1-2.59,0-3.64-11.44-5-11.44-10.29,0-3.08,2.9-4.94,6.8-5.11Zm8.23,3.39a2.28,2.28,0,0,1-2.58,2.17,3,3,0,0,1-3-1.68,1.54,1.54,0,0,0,1.56-1.64c0-1.05-1.32-2.07-2.71-2.24v-.21C177.05,173.45,179.81,174.88,179.81,176.84Z"/><path class="cls-3" d="M196.3,188.39v.21a7.3,7.3,0,0,1-6,2.84c-3.14,0-5.37-1.44-5.37-4.94V175h-1.82l.39-.52H185v-3.78a8.79,8.79,0,0,0,5.71-2v5.74h4.71L195,175h-4.33v11.59c0,1.75.67,3.57,2.31,3.57A5.13,5.13,0,0,0,196.3,188.39Z"/></g></svg>