<svg id="Layer_1" data-name="Layer 1" xmlns="http://www.w3.org/2000/svg" xmlns:xlink="http://www.w3.org/1999/xlink" viewBox="0 0 300 600"><defs><style>.cls-1{fill:none;}.cls-2{clip-path:url(#clip-path);}.cls-3{fill:#fff;}</style><clipPath id="clip-path"><rect class="cls-1" width="300" height="600"/></clipPath></defs><title>Artboard 1</title><g class="cls-2"><path class="cls-3" d="M45.43,109.41l.14.27a9.61,9.61,0,0,1-8.44,4.24c-5.71,0-12.81-4.06-12.81-12.22,0-8.85,6.93-12.14,12-12.28v.21c-2.45.52-5.11,2.83-5.11,11.83s3.6,11.06,7.56,11.06A8.61,8.61,0,0,0,45.43,109.41Zm.27-20v8.5h-.27c-1.37-4.65-4-7.35-7.39-8.29v-.21c3,.14,4.9.66,6.33,1.61l1.06-1.61Z"/><path class="cls-3" d="M56.27,111.58c0,.87.53,1.78,2.63,1.78v.21h-11v-.21c2.1,0,2.63-.91,2.63-1.78V91.27c0-1.26-.6-1.85-2.59-1.85v-.21a21.3,21.3,0,0,0,8.36-1.37Zm12.26-10.93v10.93c0,.87.52,1.78,2.62,1.78v.21h-11v-.21c2.06,0,2.59-.91,2.59-1.78V100.65c0-2-1-3-2.77-3a3.72,3.72,0,0,0-2.66,1.08v-.21a7.15,7.15,0,0,1,5.81-2.83C66.28,95.72,68.53,97.19,68.53,100.65Z"/><path class="cls-3" d="M72.69,109.44c0-3,2.8-4.76,6.72-4.76h3.78v.21h-1c-2.52,0-3.71,1.64-3.71,3.82,0,1.92.56,3.39,2.2,3.39a3.81,3.81,0,0,0,2.56-1.23v.21a7.43,7.43,0,0,1-5.57,2.84C74.65,113.92,72.65,112.24,72.69,109.44Zm1.4-9.91c0-1.78,1.61-3.6,6.37-3.81v.21a2.55,2.55,0,0,0-2.24,2.55c0,1.26.87,2,2.27,2.14a3.93,3.93,0,0,1-3.36,1.68A2.81,2.81,0,0,1,74.09,99.53ZM84.24,110V99.25c0-1.71-.67-3.08-2.38-3.32v-.21c5.81.21,8.12,2.41,8.12,7v8.5c0,1,.35,1.44,1,1.44s1.12-.53,1.68-1.58h.21c-.56,1.93-2.45,2.84-4.55,2.84C85.5,113.92,84.24,112.94,84.24,110Z"/><path class="cls-3" d="M93.93,113.36c2.1,0,2.63-.91,2.63-1.78V99.15c0-1.26-.6-1.86-2.59-1.86v-.21a21.49,21.49,0,0,0,8.36-1.36v15.86c0,.87.53,1.78,2.63,1.78v.21h-11Zm12.32,0c2.07,0,2.59-.91,2.59-1.78V100.65c0-2-1-3-2.76-3a3.72,3.72,0,0,0-2.66,1.08v-.21a7.14,7.14,0,0,1,5.81-2.83c3.15,0,5.39,1.47,5.39,4.93v10.93c0,.87.52,1.78,2.62,1.78v.21h-11Z"/><path class="cls-3" d="M119.31,102.05c0-4.55,4.27-6.26,7.84-6.33v.21c-1.51.14-2.21,2-2.21,6,0,4.23.7,6,2.21,6.09v.21C123.61,108.25,119.31,106.57,119.31,102.05Zm9.31,20.06c3.5-.42,4.62-2.31,4.62-3.57,0-4.86-13.65-.52-13.65-6.79,0-1.43.73-2.55,2.34-3.57l.11.17a.83.83,0,0,0-.32.67c0,3.92,16-.63,16,7,0,3.61-3.11,6-9.06,6.3Zm-9-2.94c0-2.06,2.55-2.69,5.32-2.69A2.94,2.94,0,0,0,123.4,119c0,1.61,1.82,2.84,3.82,3.15v.21C123.47,122.25,119.59,121.48,119.59,119.17Zm9-11.13c1.71-.14,2.41-1.86,2.41-6.09,0-4.06-.73-5.88-2.41-6v-.21c3.71.07,8,1.78,8,6.33s-4.3,6.2-8,6.2Zm1.89-13c.59-1.79,2.2-4.2,4.62-4.2,1.85,0,3,1,3,2.66a2.79,2.79,0,0,1-2.83,2.73c0-1.47-.77-2.35-1.89-2.35a3.8,3.8,0,0,0-2.7,1.26Z"/><path class="cls-3" d="M139.12,97.05a21.3,21.3,0,0,0,8.36-1.37v15.9c0,.87.53,1.78,2.63,1.78v.21h-11v-.21c2.1,0,2.63-.91,2.63-1.78V99.11c0-1.26-.6-1.85-2.59-1.85Zm1.78-6.58c0-1.82,1.47-3,3.57-3s3.57,1.23,3.57,3-1.47,3.08-3.57,3.08S140.9,92.32,140.9,90.47Z"/><path class="cls-3" d="M151.58,113.36c2.1,0,2.62-.91,2.62-1.78V99.15c0-1.26-.59-1.86-2.59-1.86v-.21A21.54,21.54,0,0,0,160,95.72v15.86c0,.87.52,1.78,2.62,1.78v.21h-11Zm12.32,0c2.06,0,2.59-.91,2.59-1.78V100.65c0-2-1-3-2.77-3a3.72,3.72,0,0,0-2.66,1.08v-.21a7.15,7.15,0,0,1,5.81-2.83c3.15,0,5.39,1.47,5.39,4.93v10.93c0,.87.53,1.78,2.63,1.78v.21h-11Z"/><path class="cls-3" d="M177,102.05c0-4.55,4.27-6.26,7.84-6.33v.21c-1.5.14-2.2,2-2.2,6,0,4.23.7,6,2.2,6.09v.21C181.26,108.25,177,106.57,177,102.05Zm9.31,20.06c3.5-.42,4.62-2.31,4.62-3.57,0-4.86-13.65-.52-13.65-6.79,0-1.43.74-2.55,2.35-3.57l.1.17a.82.82,0,0,0-.31.67c0,3.92,16-.63,16,7,0,3.61-3.12,6-9.07,6.3Zm-9-2.94c0-2.06,2.56-2.69,5.32-2.69a2.93,2.93,0,0,0-1.5,2.48c0,1.61,1.82,2.84,3.81,3.15v.21C181.12,122.25,177.23,121.48,177.23,119.17Zm9-11.13c1.72-.14,2.42-1.86,2.42-6.09,0-4.06-.74-5.88-2.42-6v-.21c3.71.07,8,1.78,8,6.33s-4.31,6.2-8,6.2Zm1.89-13c.6-1.79,2.21-4.2,4.62-4.2,1.86,0,3,1,3,2.66a2.8,2.8,0,0,1-2.84,2.73c0-1.47-.77-2.35-1.89-2.35a3.78,3.78,0,0,0-2.69,1.26Z"/><path class="cls-3" d="M24.28,136.5a1.89,1.89,0,0,0-1.92-1.22v-.21h9.8v.21c-1.23,0-1.72.84-1.12,2.06l4.58,9.56-3,5.67H32.4Zm12.81,7a9.56,9.56,0,0,0,1-4.52,3.38,3.38,0,0,0-3.57-3.67v-.21h8.72v.21c-1.15,0-1.61.45-2.28,1.64l-3.64,6.86Z"/><path class="cls-3" d="M43.5,143.75a8.66,8.66,0,0,1,8.57-9v.21c-2.06.24-2.62,2-2.62,8.68,0,5,2.24,7.81,5.35,7.81a7.58,7.58,0,0,0,5.11-1.86v.21c-1.81,2.31-5.14,3.15-7.42,3.15A8.87,8.87,0,0,1,43.5,143.75Zm7.87-1.47c3.08,0,4.38-1,4.38-3.92,0-1.68-.7-3.22-2.28-3.43v-.21c4.63,0,6.87,3.29,6.87,5.95a9.94,9.94,0,0,1-.18,1.82H51.37Z"/><path class="cls-3" d="M70.76,150.58c0,.87.53,1.78,2.63,1.78v.21h-11v-.21c2.1,0,2.63-.91,2.63-1.78V130.27c0-1.26-.6-1.85-2.59-1.85v-.21a21.3,21.3,0,0,0,8.36-1.37ZM83,139.65v10.93c0,.87.52,1.78,2.62,1.78v.21h-11v-.21c2.06,0,2.59-.91,2.59-1.78V139.65c0-2-1-3-2.77-3a3.72,3.72,0,0,0-2.66,1.08v-.21a7.15,7.15,0,0,1,5.81-2.83C80.78,134.72,83,136.19,83,139.65Z"/><path class="cls-3" d="M87,136.05a21.3,21.3,0,0,0,8.36-1.37v15.9c0,.87.53,1.78,2.63,1.78v.21h-11v-.21c2.1,0,2.63-.91,2.63-1.78V138.11c0-1.26-.6-1.85-2.59-1.85Zm1.78-6.58c0-1.82,1.47-3,3.57-3s3.57,1.23,3.57,3-1.47,3.08-3.57,3.08S88.75,131.32,88.75,129.47Z"/><path class="cls-3" d="M109,134.93c-2.07.24-3,2-3,8.68,0,5,2.56,7.81,5.67,7.81a7.58,7.58,0,0,0,5.11-1.86v.21c-1.82,2.31-5.14,3.15-7.42,3.15a9.15,9.15,0,0,1-9.34-9.17,9,9,0,0,1,9-9Zm7.77,3.74a3.25,3.25,0,0,1-3.5,3.36,3,3,0,0,1-3.05-2.2,3,3,0,0,0,1.68-2.56,2.08,2.08,0,0,0-1.5-2.31v-.24C115,134.72,116.79,136.68,116.79,138.67Z"/><path class="cls-3" d="M118.61,128.21a21.3,21.3,0,0,0,8.36-1.37v23.74c0,.87.53,1.78,2.63,1.78v.21h-11v-.21c2.1,0,2.63-.91,2.63-1.78V130.27c0-1.26-.6-1.85-2.59-1.85Z"/><path class="cls-3" d="M131.7,143.75a8.66,8.66,0,0,1,8.57-9v.21c-2.06.24-2.62,2-2.62,8.68,0,5,2.24,7.81,5.35,7.81a7.58,7.58,0,0,0,5.11-1.86v.21c-1.82,2.31-5.14,3.15-7.42,3.15A8.87,8.87,0,0,1,131.7,143.75Zm7.87-1.47c3.08,0,4.38-1,4.38-3.92,0-1.68-.7-3.22-2.28-3.43v-.21c4.62,0,6.86,3.29,6.86,5.95a10.9,10.9,0,0,1-.17,1.82h-8.79Z"/><path class="cls-3" d="M23.55,175.05a21.3,21.3,0,0,0,8.36-1.37v15.9c0,.87.53,1.78,2.63,1.78v.21h-11v-.21c2.1,0,2.63-.91,2.63-1.78V177.11c0-1.26-.6-1.85-2.59-1.85Zm1.78-6.58c0-1.82,1.47-3.05,3.57-3.05s3.57,1.23,3.57,3.05-1.47,3.08-3.57,3.08S25.33,170.32,25.33,168.47Z"/><path class="cls-3" d="M36,191.36c2.1,0,2.62-.91,2.62-1.78V177.15c0-1.26-.59-1.86-2.59-1.86v-.21a21.54,21.54,0,0,0,8.37-1.36v15.86c0,.87.52,1.78,2.62,1.78v.21H36Zm12.32,0c2.06,0,2.59-.91,2.59-1.78V178.65c0-2-1-3-2.77-3a3.72,3.72,0,0,0-2.66,1.08v-.21a7.15,7.15,0,0,1,5.81-2.83c3.15,0,5.39,1.47,5.39,4.93v10.93c0,.87.53,1.78,2.63,1.78v.21h-11Z"/><path class="cls-3" d="M67.3,187.41a1.78,1.78,0,0,0-2,1.75c0,1,.7,2.3,3.11,2.55v.21c-4.65-.17-7.21-1.43-7.21-3.46a2.73,2.73,0,0,1,3-2.6A3.57,3.57,0,0,1,67.3,187.41Zm1.15-13.48c-1.29.24-2.55.91-2.52,2.34.11,4.06,11.45,4.73,11.45,10.29,0,3.4-2.87,5.19-7.39,5.36v-.21c1.47-.25,3.12-.77,3.12-2.59,0-3.64-11.48-5-11.48-10.29,0-3.08,2.9-4.94,6.82-5.11Zm8.26,3.39c0,1.09-.84,2.17-2.59,2.17a3,3,0,0,1-3-1.68,1.55,1.55,0,0,0,1.57-1.64c0-1-1.33-2.07-2.73-2.24v-.21C74,173.93,76.71,175.36,76.71,177.32Z"/><path class="cls-3" d="M87.7,187c0,2,.67,3,2.42,3a3.07,3.07,0,0,0,2.41-1.09v.21a5.82,5.82,0,0,1-5.42,2.84c-3.15,0-5.18-1.47-5.18-4.94v-9.83c0-1.26-.6-1.86-2.59-1.86v-.21a21.49,21.49,0,0,0,8.36-1.36Zm11.66,2.24c0,1,.31,1.44.94,1.44s1.12-.53,1.68-1.58h.21c-.56,1.93-2.45,2.84-4.76,2.84s-3.85-1.4-3.85-3.43V177.15c0-1.26-.59-1.86-2.48-1.86v-.21a22.86,22.86,0,0,0,8.26-1.36Z"/><path class="cls-3" d="M112,189.58c0,.87.53,1.78,2.63,1.78v.21h-11v-.21c2.1,0,2.63-.91,2.63-1.78V177.15c0-1.26-.6-1.86-2.59-1.86v-.21a21.49,21.49,0,0,0,8.36-1.36Zm9.45-12.08a3.74,3.74,0,0,1-3.6,4,2.39,2.39,0,0,1-2-.77,2.56,2.56,0,0,0,1.37-2.38,1.86,1.86,0,0,0-2-1.89,2.39,2.39,0,0,0-2.1,1.33v-.28a4.84,4.84,0,0,1,4.55-3.78A3.55,3.55,0,0,1,121.44,177.5Z"/><path class="cls-3" d="M123,187.44c0-3.05,2.8-4.76,6.72-4.76h3.78v.21h-1c-2.52,0-3.71,1.64-3.71,3.82,0,1.92.56,3.39,2.2,3.39a3.81,3.81,0,0,0,2.56-1.23v.21a7.43,7.43,0,0,1-5.57,2.84C124.91,191.92,122.91,190.24,123,187.44Zm1.4-9.91c0-1.78,1.61-3.6,6.37-3.81v.21a2.55,2.55,0,0,0-2.24,2.55c0,1.26.87,2,2.27,2.14a3.93,3.93,0,0,1-3.36,1.68A2.81,2.81,0,0,1,124.35,177.53ZM134.5,188V177.25c0-1.71-.67-3.08-2.38-3.32v-.21c5.81.21,8.12,2.41,8.12,7v8.5c0,1,.35,1.44,1,1.44s1.12-.53,1.68-1.58h.21c-.56,1.93-2.45,2.84-4.55,2.84C135.76,191.92,134.5,190.94,134.5,188Z"/><path class="cls-3" d="M144.19,191.36c2.1,0,2.63-.91,2.63-1.78V177.15c0-1.26-.6-1.86-2.59-1.86v-.21a21.49,21.49,0,0,0,8.36-1.36v15.86c0,.87.53,1.78,2.63,1.78v.21h-11Zm12.32,0c2.07,0,2.59-.91,2.59-1.78V178.65c0-2-1-3-2.76-3a3.72,3.72,0,0,0-2.66,1.08v-.21a7.14,7.14,0,0,1,5.81-2.83c3.15,0,5.39,1.47,5.39,4.93v10.93c0,.87.52,1.78,2.62,1.78v.21h-11Z"/><path class="cls-3" d="M178.35,173.93c-2.06.24-3,2-3,8.68,0,5,2.55,7.81,5.67,7.81a7.62,7.62,0,0,0,5.11-1.86v.21c-1.82,2.31-5.15,3.15-7.42,3.15a9.15,9.15,0,0,1-9.35-9.17,9,9,0,0,1,9-9Zm7.77,3.74a3.25,3.25,0,0,1-3.5,3.36,3,3,0,0,1-3-2.2,3,3,0,0,0,1.68-2.56,2.08,2.08,0,0,0-1.51-2.31v-.24C184.34,173.72,186.12,175.68,186.12,177.67Z"/><path class="cls-3" d="M188.75,182.75a8.66,8.66,0,0,1,8.57-9v.21c-2.06.24-2.62,2-2.62,8.68,0,5,2.24,7.81,5.35,7.81a7.58,7.58,0,0,0,5.11-1.86v.21c-1.82,2.31-5.14,3.15-7.42,3.15A8.87,8.87,0,0,1,188.75,182.75Zm7.87-1.47c3.08,0,4.38-1,4.38-3.92,0-1.68-.7-3.22-2.28-3.43v-.21c4.62,0,6.86,3.29,6.86,5.95a10.9,10.9,0,0,1-.17,1.82h-8.79Z"/></g></svg>