<svg id="Layer_1" data-name="Layer 1" xmlns="http://www.w3.org/2000/svg" xmlns:xlink="http://www.w3.org/1999/xlink" viewBox="0 0 300 600"><defs><style>.cls-1{fill:none;}.cls-2{clip-path:url(#clip-path);}.cls-3{fill:#fff;}</style><clipPath id="clip-path"><rect class="cls-1" y="0.48" width="300" height="600"/></clipPath></defs><title>Artboard 2</title><g class="cls-2"><path class="cls-3" d="M23.55,58.05a21.3,21.3,0,0,0,8.36-1.37v15.9c0,.87.53,1.78,2.63,1.78v.21h-11v-.21c2.1,0,2.63-.91,2.63-1.78V60.11c0-1.26-.6-1.85-2.59-1.85Zm1.78-6.58c0-1.82,1.47-3,3.57-3s3.57,1.23,3.57,3S31,54.55,28.9,54.55,25.33,53.32,25.33,51.47Z"/><path class="cls-3" d="M42.73,70.41a1.78,1.78,0,0,0-2,1.75c0,1,.7,2.3,3.11,2.55v.21c-4.65-.17-7.21-1.43-7.21-3.46a2.73,2.73,0,0,1,3-2.6A3.57,3.57,0,0,1,42.73,70.41Zm1.15-13.48c-1.29.24-2.55.91-2.52,2.34.11,4.06,11.45,4.73,11.45,10.29,0,3.4-2.87,5.19-7.39,5.36v-.21c1.47-.25,3.12-.77,3.12-2.59,0-3.64-11.48-5-11.48-10.29,0-3.08,2.9-4.94,6.82-5.11Zm8.26,3.39c0,1.09-.84,2.17-2.59,2.17a3,3,0,0,1-3-1.68,1.55,1.55,0,0,0,1.57-1.64c0-1.05-1.33-2.07-2.73-2.24v-.21C49.38,56.93,52.14,58.36,52.14,60.32Z"/><path class="cls-3" d="M64.64,65.75a8.66,8.66,0,0,1,8.57-9v.21c-2.06.24-2.62,2-2.62,8.68,0,5,2.24,7.81,5.35,7.81a7.58,7.58,0,0,0,5.11-1.86v.21c-1.82,2.31-5.14,3.15-7.42,3.15A8.87,8.87,0,0,1,64.64,65.75Zm7.87-1.47c3.08,0,4.38-1,4.38-3.92,0-1.68-.7-3.22-2.28-3.43v-.21c4.62,0,6.86,3.29,6.86,6a10.9,10.9,0,0,1-.17,1.82H72.51Z"/><path class="cls-3" d="M84,70.44c0-3,2.8-4.76,6.72-4.76h3.78v.21h-1c-2.52,0-3.71,1.64-3.71,3.82,0,1.92.56,3.39,2.21,3.39a3.82,3.82,0,0,0,2.55-1.22v.2a7.4,7.4,0,0,1-5.56,2.84C86,74.92,84,73.24,84,70.44Zm1.4-9.91c0-1.78,1.61-3.6,6.37-3.81v.21a2.55,2.55,0,0,0-2.24,2.55c0,1.26.88,2,2.28,2.14a3.94,3.94,0,0,1-3.36,1.68A2.81,2.81,0,0,1,85.39,60.53ZM95.54,71V60.25c0-1.71-.66-3.08-2.38-3.32v-.21c5.81.21,8.12,2.41,8.12,7v8.5c0,1,.35,1.44,1,1.44s1.12-.53,1.68-1.58h.21c-.56,1.93-2.45,2.84-4.55,2.84C96.8,74.92,95.54,73.94,95.54,71Z"/><path class="cls-3" d="M112,70.41a1.78,1.78,0,0,0-2,1.75c0,1,.7,2.3,3.11,2.55v.21c-4.65-.17-7.21-1.43-7.21-3.46a2.73,2.73,0,0,1,3-2.6A3.57,3.57,0,0,1,112,70.41Zm1.15-13.48c-1.29.24-2.55.91-2.52,2.34C110.7,63.33,122,64,122,69.56c0,3.4-2.87,5.19-7.39,5.36v-.21c1.47-.25,3.12-.77,3.12-2.59,0-3.64-11.48-5-11.48-10.29,0-3.08,2.9-4.94,6.82-5.11Zm8.26,3.39c0,1.09-.84,2.17-2.59,2.17a3,3,0,0,1-3-1.68,1.55,1.55,0,0,0,1.57-1.64c0-1.05-1.33-2.07-2.73-2.24v-.21C118.61,56.93,121.37,58.36,121.37,60.32Z"/><path class="cls-3" d="M125,58.5a1.9,1.9,0,0,0-1.93-1.22v-.21h9.8v.21c-1.22,0-1.71.84-1.12,2.06l4.59,9.56-3,5.67h-.21Zm-1.54,21.71c0-1.51,1.19-2.77,3.08-3.29a2.51,2.51,0,0,0-.14.87,2,2,0,0,0,2.06,2.35c1.23,0,2.21-1.3,3.54-3.54h.24c-1.92,3.61-3.25,6.72-5.7,6.72A2.91,2.91,0,0,1,123.44,80.21Zm14.35-14.74a9.68,9.68,0,0,0,1-4.52,3.38,3.38,0,0,0-3.57-3.67v-.21h8.71v.21c-1.15,0-1.61.45-2.27,1.64L138,65.78Z"/><path class="cls-3" d="M31,98.34l4.58,9.56-3,5.67H32.4L24.28,97.5a1.89,1.89,0,0,0-1.92-1.22v-.21h9.8v.21C30.93,96.28,30.44,97.12,31,98.34Zm11.51,0,4.59,9.56-3,5.67h-.21l-5.5-10.89-1.12,2.1-.21-.31a5.21,5.21,0,0,0,.28-3.89L35.8,97.5a1.9,1.9,0,0,0-1.93-1.22v-.21h9.81v.21C42.45,96.28,42,97.12,42.55,98.34Zm12.19-2.27v.21c-1.16,0-1.65.45-2.28,1.64l-3.64,6.86-.21-.31a9.56,9.56,0,0,0,1-4.52A3.38,3.38,0,0,0,46,96.28v-.21Z"/><path class="cls-3" d="M55.05,97.05a21.3,21.3,0,0,0,8.36-1.37v15.9c0,.87.53,1.78,2.63,1.78v.21H55v-.21c2.1,0,2.63-.91,2.63-1.78V99.11c0-1.26-.6-1.85-2.59-1.85Zm1.78-6.58c0-1.82,1.47-3,3.57-3s3.57,1.23,3.57,3-1.47,3.08-3.57,3.08S56.83,92.32,56.83,90.47Z"/><path class="cls-3" d="M81.09,110.88v.2a7.3,7.3,0,0,1-6,2.84c-3.15,0-5.39-1.43-5.39-4.94V97.5H67.89l.39-.52h1.43V93.2a8.85,8.85,0,0,0,5.74-2V97h4.73l-.39.52H75.45v11.59c0,1.75.67,3.57,2.31,3.57A5.2,5.2,0,0,0,81.09,110.88Z"/><path class="cls-3" d="M90.12,111.58c0,.87.52,1.78,2.62,1.78v.21h-11v-.21c2.1,0,2.62-.91,2.62-1.78V91.27c0-1.26-.59-1.85-2.59-1.85v-.21a21.36,21.36,0,0,0,8.37-1.37Zm12.25-10.93v10.93c0,.87.52,1.78,2.62,1.78v.21H94v-.21c2.07,0,2.59-.91,2.59-1.78V100.65c0-2-1-3-2.76-3a3.72,3.72,0,0,0-2.66,1.08v-.21A7.14,7.14,0,0,1,97,95.72C100.13,95.72,102.37,97.19,102.37,100.65Z"/><path class="cls-3" d="M124.7,113.71v.21a13.24,13.24,0,0,1-6.79-1.71l-1.16,1.71h-.28v-8.54h.28A11.75,11.75,0,0,0,124.7,113.71Zm10.29-7c0,4.52-3.36,7-8.79,7.18v-.21c1.93-.35,3.82-1.47,3.82-3.57,0-6.13-13.37-6.69-13.37-13.79,0-4.2,3.39-6.62,8-6.93v.21c-1.61.28-3.08,1.29-3.08,3.22C121.62,99,135,99.64,135,106.74ZM126.2,89.63v-.21a11.28,11.28,0,0,1,6.3,1.85l1.26-1.85H134v7.8h-.28A11.13,11.13,0,0,0,126.2,89.63Z"/><path class="cls-3" d="M151,110.88v.2a7.3,7.3,0,0,1-6,2.84c-3.15,0-5.39-1.43-5.39-4.94V97.5h-1.82l.39-.52h1.43V93.2a8.85,8.85,0,0,0,5.74-2V97H150l-.39.52h-4.34v11.59c0,1.75.67,3.57,2.31,3.57A5.2,5.2,0,0,0,151,110.88Z"/><path class="cls-3" d="M152.07,109.44c0-3,2.8-4.76,6.72-4.76h3.78v.21h-1c-2.52,0-3.71,1.64-3.71,3.82,0,1.92.56,3.39,2.2,3.39a3.84,3.84,0,0,0,2.56-1.22v.2a7.43,7.43,0,0,1-5.57,2.84C154,113.92,152,112.24,152.07,109.44Zm1.4-9.91c0-1.78,1.61-3.6,6.37-3.81v.21a2.55,2.55,0,0,0-2.24,2.55c0,1.26.87,2,2.27,2.14a3.93,3.93,0,0,1-3.36,1.68A2.81,2.81,0,0,1,153.47,99.53ZM163.62,110V99.25c0-1.71-.67-3.08-2.38-3.32v-.21c5.81.21,8.12,2.41,8.12,7v8.5c0,1,.35,1.44,1,1.44s1.12-.53,1.68-1.58h.21c-.56,1.93-2.45,2.84-4.55,2.84C164.88,113.92,163.62,112.94,163.62,110Z"/><path class="cls-3" d="M181.71,111.58c0,.87.53,1.78,2.63,1.78v.21h-11v-.21c2.1,0,2.63-.91,2.63-1.78V99.15c0-1.26-.6-1.86-2.59-1.86v-.21a21.49,21.49,0,0,0,8.36-1.36Zm9.45-12.08a3.74,3.74,0,0,1-3.6,4,2.39,2.39,0,0,1-2-.77,2.56,2.56,0,0,0,1.37-2.38,1.86,1.86,0,0,0-2-1.89,2.39,2.39,0,0,0-2.1,1.33V99.5a4.84,4.84,0,0,1,4.55-3.78A3.55,3.55,0,0,1,191.16,99.5Z"/><path class="cls-3" d="M24.14,152.36c2.1,0,2.63-.84,2.63-1.78V130.76c0-.94-.53-1.78-2.63-1.78v-.21h11.2V129c-2.1,0-2.62.84-2.62,1.78v19.82c0,.94.52,1.78,2.62,1.78v.21H24.14Z"/><path class="cls-3" d="M37.69,152.36c2.1,0,2.62-.91,2.62-1.78V138.15c0-1.26-.59-1.86-2.59-1.86v-.21a21.54,21.54,0,0,0,8.37-1.36v15.86c0,.87.52,1.78,2.62,1.78v.21h-11Zm12.32,0c2.06,0,2.59-.91,2.59-1.78V139.65c0-2-1-3-2.77-3a3.72,3.72,0,0,0-2.66,1.08v-.21A7.15,7.15,0,0,1,53,134.72c3.15,0,5.39,1.47,5.39,4.93v10.93c0,.87.53,1.78,2.63,1.78v.21H50Z"/><path class="cls-3" d="M69,148.41a1.78,1.78,0,0,0-2,1.75c0,1,.7,2.3,3.11,2.55v.21c-4.65-.17-7.21-1.43-7.21-3.46a2.73,2.73,0,0,1,3-2.6A3.57,3.57,0,0,1,69,148.41Zm1.15-13.48c-1.29.24-2.55.91-2.52,2.34.11,4.06,11.45,4.73,11.45,10.29,0,3.4-2.87,5.19-7.39,5.36v-.21c1.47-.25,3.12-.77,3.12-2.59,0-3.64-11.48-5-11.48-10.29,0-3.08,2.9-4.94,6.82-5.11Zm8.26,3.39c0,1.09-.84,2.17-2.59,2.17a3,3,0,0,1-3-1.68,1.55,1.55,0,0,0,1.57-1.64c0-1-1.33-2.07-2.73-2.24v-.21C75.63,134.93,78.39,136.36,78.39,138.32Z"/><path class="cls-3" d="M89.38,148c0,2,.67,3,2.42,3a3.09,3.09,0,0,0,2.41-1.08v.2a5.82,5.82,0,0,1-5.42,2.84c-3.15,0-5.18-1.47-5.18-4.94v-9.83c0-1.26-.6-1.86-2.59-1.86v-.21a21.49,21.49,0,0,0,8.36-1.36ZM101,150.22c0,1,.31,1.44.94,1.44s1.12-.53,1.68-1.58h.21c-.56,1.93-2.45,2.84-4.76,2.84s-3.85-1.4-3.85-3.43V138.15c0-1.26-.59-1.86-2.48-1.86v-.21a22.86,22.86,0,0,0,8.26-1.36Z"/><path class="cls-3" d="M113.67,150.58c0,.87.53,1.78,2.63,1.78v.21h-11v-.21c2.1,0,2.63-.91,2.63-1.78V138.15c0-1.26-.6-1.86-2.59-1.86v-.21a21.49,21.49,0,0,0,8.36-1.36Zm9.45-12.08a3.74,3.74,0,0,1-3.6,4,2.39,2.39,0,0,1-2-.77,2.56,2.56,0,0,0,1.37-2.38,1.86,1.86,0,0,0-2-1.89,2.39,2.39,0,0,0-2.1,1.33v-.28a4.84,4.84,0,0,1,4.55-3.78A3.55,3.55,0,0,1,123.12,138.5Z"/><path class="cls-3" d="M124.63,148.44c0-3.05,2.8-4.76,6.72-4.76h3.78v.21h-1c-2.52,0-3.71,1.64-3.71,3.82,0,1.92.56,3.39,2.2,3.39a3.84,3.84,0,0,0,2.56-1.22v.2a7.43,7.43,0,0,1-5.57,2.84C126.59,152.92,124.59,151.24,124.63,148.44Zm1.4-9.91c0-1.78,1.61-3.6,6.37-3.81v.21a2.55,2.55,0,0,0-2.24,2.55c0,1.26.87,2,2.27,2.14a3.93,3.93,0,0,1-3.36,1.68A2.81,2.81,0,0,1,126,138.53ZM136.18,149V138.25c0-1.71-.67-3.08-2.38-3.32v-.21c5.81.21,8.12,2.41,8.12,7v8.5c0,1,.35,1.44,1,1.44s1.12-.53,1.68-1.58h.21c-.56,1.93-2.45,2.84-4.55,2.84C137.44,152.92,136.18,151.94,136.18,149Z"/><path class="cls-3" d="M145.87,152.36c2.1,0,2.63-.91,2.63-1.78V138.15c0-1.26-.6-1.86-2.59-1.86v-.21a21.49,21.49,0,0,0,8.36-1.36v15.86c0,.87.53,1.78,2.63,1.78v.21h-11Zm12.32,0c2.07,0,2.59-.91,2.59-1.78V139.65c0-2-1-3-2.76-3a3.72,3.72,0,0,0-2.66,1.08v-.21a7.14,7.14,0,0,1,5.81-2.83c3.15,0,5.39,1.47,5.39,4.93v10.93c0,.87.52,1.78,2.62,1.78v.21h-11Z"/><path class="cls-3" d="M180,134.93c-2.06.24-3,2-3,8.68,0,5,2.55,7.81,5.67,7.81a7.62,7.62,0,0,0,5.11-1.86v.21c-1.82,2.31-5.15,3.15-7.42,3.15a9.15,9.15,0,0,1-9.35-9.17,9,9,0,0,1,9-9Zm7.77,3.74a3.25,3.25,0,0,1-3.5,3.36,3,3,0,0,1-3-2.2,3,3,0,0,0,1.68-2.56,2.08,2.08,0,0,0-1.51-2.31v-.24C186,134.72,187.8,136.68,187.8,138.67Z"/><path class="cls-3" d="M190.43,143.75a8.66,8.66,0,0,1,8.57-9v.21c-2.06.24-2.62,2-2.62,8.68,0,5,2.24,7.81,5.35,7.81a7.58,7.58,0,0,0,5.11-1.86v.21c-1.82,2.31-5.14,3.15-7.42,3.15A8.87,8.87,0,0,1,190.43,143.75Zm7.87-1.47c3.08,0,4.38-1,4.38-3.92,0-1.68-.7-3.22-2.28-3.43v-.21c4.62,0,6.86,3.29,6.86,5.95a10.9,10.9,0,0,1-.17,1.82H198.3Z"/><path class="cls-3" d="M24.14,191.57v-.21c2.1,0,2.63-.8,2.63-1.78V169.8c0-1-.53-1.82-2.63-1.82v-.21h8.58v23.8Zm19.57-23.8v6.47h-.28c-1.5-4.41-3.64-5.91-9-6.26v-.21Zm-9.24,11.58v-.21l1.92-.17A5.4,5.4,0,0,0,41,176h.28v6.51H41a5.28,5.28,0,0,0-4.62-2.94Zm0,12c5.32-.35,7.8-1.86,9.7-6.27h.27v6.48h-10Z"/><path class="cls-3" d="M47,191.36c2.1,0,2.63-.91,2.63-1.78V177.15c0-1.26-.6-1.86-2.59-1.86v-.21a21.49,21.49,0,0,0,8.36-1.36v15.86c0,.87.53,1.78,2.63,1.78v.21H47Zm12.32,0c2.07,0,2.59-.91,2.59-1.78V178.65c0-2-1-3-2.76-3a3.72,3.72,0,0,0-2.66,1.08v-.21a7.14,7.14,0,0,1,5.81-2.83c3.15,0,5.39,1.47,5.39,4.93v10.93c0,.87.52,1.78,2.63,1.78v.21h-11Z"/><path class="cls-3" d="M85.18,188.88v.2a7.29,7.29,0,0,1-6,2.84c-3.15,0-5.39-1.43-5.39-4.94V175.5H72l.38-.52h1.44V171.2a8.89,8.89,0,0,0,5.74-2V175h4.72l-.38.52H79.55v11.59c0,1.75.66,3.57,2.31,3.57A5.15,5.15,0,0,0,85.18,188.88Z"/><path class="cls-3" d="M94.21,189.58c0,.87.53,1.78,2.63,1.78v.21h-11v-.21c2.1,0,2.63-.91,2.63-1.78V169.27c0-1.26-.6-1.85-2.59-1.85v-.21a21.3,21.3,0,0,0,8.36-1.37Zm12.25-10.93v10.93c0,.87.53,1.78,2.63,1.78v.21h-11v-.21c2.06,0,2.59-.91,2.59-1.78V178.65c0-2-1-3-2.77-3a3.72,3.72,0,0,0-2.66,1.08v-.21a7.15,7.15,0,0,1,5.81-2.83C104.22,173.72,106.46,175.19,106.46,178.65Z"/><path class="cls-3" d="M118.36,187c0,2,.67,3,2.42,3a3.09,3.09,0,0,0,2.41-1.08v.2a5.82,5.82,0,0,1-5.42,2.84c-3.15,0-5.18-1.47-5.18-4.94v-9.83c0-1.26-.6-1.86-2.59-1.86v-.21a21.49,21.49,0,0,0,8.36-1.36ZM130,189.22c0,1,.31,1.44.94,1.44s1.12-.53,1.68-1.58h.21c-.56,1.93-2.45,2.84-4.76,2.84s-3.85-1.4-3.85-3.43V177.15c0-1.26-.59-1.86-2.48-1.86v-.21a22.86,22.86,0,0,0,8.26-1.36Z"/><path class="cls-3" d="M141,187.41a1.79,1.79,0,0,0-2,1.75c0,1,.7,2.3,3.12,2.55v.21c-4.66-.17-7.21-1.43-7.21-3.46a2.73,2.73,0,0,1,3-2.6A3.55,3.55,0,0,1,141,187.41Zm1.16-13.48c-1.3.24-2.56.91-2.52,2.34.1,4.06,11.44,4.73,11.44,10.29,0,3.4-2.87,5.19-7.38,5.36v-.21c1.47-.25,3.11-.77,3.11-2.59,0-3.64-11.48-5-11.48-10.29,0-3.08,2.91-4.94,6.83-5.11Zm8.26,3.39c0,1.09-.84,2.17-2.59,2.17a3,3,0,0,1-3-1.68,1.56,1.56,0,0,0,1.58-1.64c0-1-1.33-2.07-2.73-2.24v-.21C147.62,173.93,150.39,175.36,150.39,177.32Z"/><path class="cls-3" d="M153.43,175.05a21.36,21.36,0,0,0,8.37-1.37v15.9c0,.87.52,1.78,2.62,1.78v.21h-11v-.21c2.1,0,2.62-.91,2.62-1.78V177.11c0-1.26-.59-1.85-2.59-1.85Zm1.79-6.58c0-1.82,1.47-3.05,3.57-3.05s3.57,1.23,3.57,3.05-1.47,3.08-3.57,3.08S155.22,170.32,155.22,168.47Z"/><path class="cls-3" d="M166.17,187.44c0-3.05,2.8-4.76,6.72-4.76h3.78v.21h-1c-2.52,0-3.71,1.64-3.71,3.82,0,1.92.56,3.39,2.21,3.39a3.82,3.82,0,0,0,2.55-1.22v.2a7.4,7.4,0,0,1-5.56,2.84C168.13,191.92,166.14,190.24,166.17,187.44Zm1.4-9.91c0-1.78,1.61-3.6,6.37-3.81v.21a2.55,2.55,0,0,0-2.24,2.55c0,1.26.88,2,2.28,2.14a3.94,3.94,0,0,1-3.36,1.68A2.81,2.81,0,0,1,167.57,177.53ZM177.72,188V177.25c0-1.71-.66-3.08-2.38-3.32v-.21c5.81.21,8.12,2.41,8.12,7v8.5c0,1,.35,1.44,1,1.44s1.12-.53,1.68-1.58h.21c-.56,1.93-2.45,2.84-4.55,2.84C179,191.92,177.72,190.94,177.72,188Z"/><path class="cls-3" d="M194.14,187.41a1.78,1.78,0,0,0-2,1.75c0,1,.7,2.3,3.11,2.55v.21c-4.65-.17-7.21-1.43-7.21-3.46a2.73,2.73,0,0,1,3-2.6A3.57,3.57,0,0,1,194.14,187.41Zm1.15-13.48c-1.29.24-2.55.91-2.52,2.34.11,4.06,11.45,4.73,11.45,10.29,0,3.4-2.87,5.19-7.39,5.36v-.21c1.47-.25,3.12-.77,3.12-2.59,0-3.64-11.48-5-11.48-10.29,0-3.08,2.9-4.94,6.82-5.11Zm8.26,3.39c0,1.09-.84,2.17-2.59,2.17a3,3,0,0,1-3-1.68,1.55,1.55,0,0,0,1.57-1.64c0-1-1.33-2.07-2.73-2.24v-.21C200.79,173.93,203.55,175.36,203.55,177.32Z"/><path class="cls-3" d="M220.11,188.88v.2a7.3,7.3,0,0,1-6,2.84c-3.15,0-5.39-1.43-5.39-4.94V175.5h-1.82l.39-.52h1.43V171.2a8.85,8.85,0,0,0,5.74-2V175h4.73l-.39.52h-4.34v11.59c0,1.75.67,3.57,2.31,3.57A5.2,5.2,0,0,0,220.11,188.88Z"/></g></svg>