<svg id="Layer_1" data-name="Layer 1" xmlns="http://www.w3.org/2000/svg" viewBox="0 0 300 600"><defs><style>.cls-1{fill:#74503e;}.cls-2{fill:#fff;}.cls-3{fill:none;}</style></defs><title>Artboard 1 copy</title><path class="cls-1" d="M20.31,220v51.4A18.32,18.32,0,0,0,30.2,287.7l77,40a22.92,22.92,0,0,0,21.1,0l77-40a18.32,18.32,0,0,0,9.89-16.27V220a8.55,8.55,0,0,0-8.56-8.55H28.87A8.55,8.55,0,0,0,20.31,220Z"/><path class="cls-2" d="M107.42,248.16l.35-.51c.26-.35.53-.37.92-.14a4,4,0,0,0,2.29.82c1,0,1.68-.52,1.68-1.28,0-2.14-5.25-1.7-5.25-5.21,0-2,1.65-3.26,3.79-3.26a5.21,5.21,0,0,1,2.9.85.63.63,0,0,1,.21.91l-.29.52c-.23.46-.57.4-.9.22a3.68,3.68,0,0,0-2-.62c-1,0-1.72.51-1.72,1.27,0,2.11,5.26,1.57,5.26,5.16,0,1.82-1.37,3.33-3.73,3.33a6,6,0,0,1-3.46-1.14A.6.6,0,0,1,107.42,248.16Z"/><path class="cls-2" d="M119.24,240.53h-3a.58.58,0,0,1-.66-.65v-.45a.59.59,0,0,1,.66-.66h8.09a.59.59,0,0,1,.66.66v.45a.59.59,0,0,1-.66.65h-3v8.83a.59.59,0,0,1-.66.67h-.72a.59.59,0,0,1-.65-.67Z"/><path class="cls-2" d="M127.63,239.31a.72.72,0,0,1,.75-.54h1a.71.71,0,0,1,.75.54l3.52,10c.16.46,0,.76-.54.76h-.73a.71.71,0,0,1-.74-.54l-.8-2.35H126.9l-.77,2.33a.72.72,0,0,1-.75.56h-.73c-.49,0-.7-.3-.54-.76Zm2.72,6.17-1-3c-.19-.63-.45-1.74-.45-1.74h0s-.25,1.11-.44,1.74l-1,3Z"/><path class="cls-2" d="M135.08,239.43a.58.58,0,0,1,.65-.66h3.05a5.07,5.07,0,0,1,2.14.3,3.12,3.12,0,0,1,1.89,3.07,3.25,3.25,0,0,1-1.87,3.08v0a4.62,4.62,0,0,1,.36.59l1.86,3.4c.27.46.06.79-.46.79h-.86a.81.81,0,0,1-.78-.46l-2-3.74h-2v3.53a.58.58,0,0,1-.65.67h-.73a.58.58,0,0,1-.65-.67Zm3.87,4.62a1.65,1.65,0,0,0,1.78-1.79,1.51,1.51,0,0,0-.89-1.54,2.77,2.77,0,0,0-1.22-.19h-1.51v3.52Z"/><path class="cls-2" d="M108.17,253.19a.35.35,0,0,1,.38-.39h.33a.35.35,0,0,1,.38.39v10.36a.35.35,0,0,1-.38.4h-.33a.35.35,0,0,1-.38-.4Z"/><path class="cls-2" d="M111.9,256.37a.36.36,0,0,1,.4-.4h.29a.36.36,0,0,1,.38.4v.92a2.45,2.45,0,0,1-.07.57h0a3.51,3.51,0,0,1,3.22-2.08c2,0,2.68,1.13,2.68,3.09v4.68a.36.36,0,0,1-.4.4h-.3c-.26,0-.38-.14-.38-.4v-4.39c0-1.26-.21-2.37-1.75-2.37a3.1,3.1,0,0,0-3,3.26v3.5c0,.26-.12.4-.38.4h-.3a.36.36,0,0,1-.4-.4Z"/><path class="cls-2" d="M120.55,262.68l.13-.16c.14-.19.31-.2.54-.06a3.46,3.46,0,0,0,2.11.73c.89,0,1.62-.45,1.62-1.29,0-1.79-4.27-1.25-4.27-3.88,0-1.48,1.25-2.24,2.71-2.24a3.67,3.67,0,0,1,2.19.65.34.34,0,0,1,.11.52l-.11.18a.35.35,0,0,1-.54.11,3,3,0,0,0-1.71-.51c-.84,0-1.57.37-1.57,1.24,0,1.84,4.25,1.25,4.25,3.92,0,1.31-1.11,2.25-2.7,2.25a4.22,4.22,0,0,1-2.7-.92A.36.36,0,0,1,120.55,262.68Z"/><path class="cls-2" d="M127.61,256.37a.35.35,0,0,1,.38-.4h.3a.36.36,0,0,1,.4.4v4.39c0,1.25.19,2.36,1.73,2.36a3.1,3.1,0,0,0,3-3.33v-3.42a.36.36,0,0,1,.39-.4h.31a.35.35,0,0,1,.38.4v7.18a.35.35,0,0,1-.38.4h-.29a.35.35,0,0,1-.38-.4v-.92a3.38,3.38,0,0,1,0-.57h0a3.45,3.45,0,0,1-3.14,2.08c-1.88,0-2.66-1-2.66-3.09Z"/><path class="cls-2" d="M136.78,256.37a.36.36,0,0,1,.4-.4h.29a.36.36,0,0,1,.38.4v1.07a3,3,0,0,1-.07.64h0a2.87,2.87,0,0,1,2.58-2.16c.28,0,.41.13.41.38v.29c0,.25-.18.39-.45.39-1.68,0-2.49,1.92-2.49,3.59v3c0,.26-.12.4-.38.4h-.3a.36.36,0,0,1-.4-.4Z"/><path class="cls-2" d="M146.29,259.06h.46v-.25c0-1.54-.84-2.06-2-2.06a3.76,3.76,0,0,0-1.93.55.37.37,0,0,1-.54-.13l-.1-.15a.37.37,0,0,1,.11-.54,4.86,4.86,0,0,1,2.54-.7c1.91,0,3,1.06,3,3.06v4.71a.35.35,0,0,1-.38.4h-.25a.35.35,0,0,1-.4-.4v-.63a3.11,3.11,0,0,1,0-.6h0a3,3,0,0,1-2.69,1.82,2.45,2.45,0,0,1-2.7-2.33C141.42,259.21,144.75,259.06,146.29,259.06Zm-2,4.18c1.54,0,2.44-1.59,2.44-3v-.38h-.44c-1.26,0-3.78.05-3.78,1.84A1.6,1.6,0,0,0,144.31,263.24Z"/><path class="cls-2" d="M150.09,256.37a.36.36,0,0,1,.4-.4h.28a.36.36,0,0,1,.39.4v.92a2.45,2.45,0,0,1-.07.57h0a3.54,3.54,0,0,1,3.22-2.08c2,0,2.69,1.13,2.69,3.09v4.68a.36.36,0,0,1-.4.4h-.3c-.26,0-.38-.14-.38-.4v-4.39c0-1.26-.21-2.37-1.75-2.37a3.1,3.1,0,0,0-3,3.26v3.5a.35.35,0,0,1-.38.4h-.3a.36.36,0,0,1-.4-.4Z"/><path class="cls-2" d="M163,255.78a4.2,4.2,0,0,1,2.65.9.34.34,0,0,1,.05.54l-.11.18c-.14.22-.32.22-.54.08a3.3,3.3,0,0,0-2-.73,3.21,3.21,0,0,0,0,6.42,3.46,3.46,0,0,0,2.25-.84.32.32,0,0,1,.53.1l.11.15a.38.38,0,0,1-.1.54,4.37,4.37,0,0,1-2.84,1,4.18,4.18,0,1,1,0-8.36Z"/><path class="cls-2" d="M170.85,255.78c2.13,0,3.33,1.54,3.33,3.81a.39.39,0,0,1-.41.39H168a3,3,0,0,0,3.09,3.19,3.37,3.37,0,0,0,2.09-.73c.23-.14.4-.11.53.1l.12.19a.36.36,0,0,1-.11.52,4.5,4.5,0,0,1-2.66.89,4,4,0,0,1-4.17-4.17A3.89,3.89,0,0,1,170.85,255.78Zm2.24,3.39a2.29,2.29,0,0,0-2.27-2.5,2.76,2.76,0,0,0-2.75,2.5Z"/><path class="cls-2" d="M107.92,268.34a.58.58,0,0,1,.65-.66H114a.6.6,0,0,1,.67.66v.45a.6.6,0,0,1-.67.65h-4v2.95h3.14a.58.58,0,0,1,.66.65v.44a.59.59,0,0,1-.66.67H110v3h4.3a.59.59,0,0,1,.66.65v.44a.59.59,0,0,1-.66.67h-5.68a.58.58,0,0,1-.65-.67Z"/><path class="cls-2" d="M116.36,271.51a.59.59,0,0,1,.65-.66h.62a.59.59,0,0,1,.65.66v.5a2.7,2.7,0,0,1,0,.36h0a3.16,3.16,0,0,1,2.87-1.71c1.79,0,2.82.93,2.82,3.08v4.53a.59.59,0,0,1-.66.67h-.69a.59.59,0,0,1-.66-.67v-4.12c0-1-.26-1.65-1.27-1.65a2.42,2.42,0,0,0-2.33,2.65v3.12a.59.59,0,0,1-.65.67H117a.58.58,0,0,1-.65-.67Z"/><path class="cls-2" d="M126.12,272.56h-.43a.58.58,0,0,1-.65-.66v-.27a.6.6,0,0,1,.67-.67h.46v-1.65a.6.6,0,0,1,.66-.67h.64a.6.6,0,0,1,.66.67V271h1.18a.61.61,0,0,1,.67.67v.27a.59.59,0,0,1-.66.66h-1.19v3.14a1.33,1.33,0,0,0,1.31,1.51c.49.05.66.21.66.65v.49c0,.48-.27.67-.82.67a2.9,2.9,0,0,1-3.16-3Z"/><path class="cls-2" d="M131.4,268.34a.6.6,0,0,1,.67-.66h.68a.59.59,0,0,1,.67.66v3.27a4.27,4.27,0,0,1,0,.68h0a3.19,3.19,0,0,1,2.81-1.63c1.79,0,2.83.93,2.83,3.08v4.53a.6.6,0,0,1-.67.67h-.68a.59.59,0,0,1-.67-.67v-4.12c0-1-.25-1.65-1.27-1.65a2.41,2.41,0,0,0-2.33,2.68v3.09a.59.59,0,0,1-.67.67h-.68a.6.6,0,0,1-.67-.67Z"/><path class="cls-2" d="M140.86,271.51a.6.6,0,0,1,.66-.66h.68a.59.59,0,0,1,.67.66v4.13c0,1,.25,1.65,1.25,1.65,1.46,0,2.27-1.29,2.27-2.73v-3.05a.59.59,0,0,1,.67-.66h.68a.6.6,0,0,1,.67.66v6.76a.6.6,0,0,1-.67.67h-.62a.58.58,0,0,1-.65-.67v-.47a2.56,2.56,0,0,1,0-.37h0a3.13,3.13,0,0,1-2.81,1.7c-1.73,0-2.8-.87-2.8-3.08Z"/><path class="cls-2" d="M150,277.4l.19-.29c.24-.33.51-.36.91-.15a3.68,3.68,0,0,0,1.81.55c.69,0,1.12-.32,1.12-.82,0-1.32-4-.83-4-3.6,0-1.59,1.4-2.43,3.09-2.43a4.51,4.51,0,0,1,2.26.59.59.59,0,0,1,.23.88l-.15.29c-.2.38-.5.43-.89.25a3.63,3.63,0,0,0-1.54-.39c-.7,0-1.1.28-1.1.79,0,1.33,4,.81,4,3.57,0,1.43-1.21,2.49-3.08,2.49a4.68,4.68,0,0,1-2.7-.83A.57.57,0,0,1,150,277.4Z"/><path class="cls-2" d="M157.48,268.82v-.48a.58.58,0,0,1,.65-.66h.7a.6.6,0,0,1,.67.66v.48a.59.59,0,0,1-.67.65h-.7A.58.58,0,0,1,157.48,268.82Zm0,2.69a.59.59,0,0,1,.65-.66h.7a.59.59,0,0,1,.65.66v6.76a.58.58,0,0,1-.65.67h-.7a.58.58,0,0,1-.65-.67Z"/><path class="cls-2" d="M165.59,273.94h.33v-.19a1.32,1.32,0,0,0-1.5-1.43,3.78,3.78,0,0,0-1.69.46.58.58,0,0,1-.88-.27l-.16-.3a.59.59,0,0,1,.25-.89,5.72,5.72,0,0,1,2.65-.66,3,3,0,0,1,3.35,3.22v4.39a.59.59,0,0,1-.67.67h-.54a.58.58,0,0,1-.65-.67V278a1.6,1.6,0,0,1,0-.35h0a2.94,2.94,0,0,1-2.54,1.52,2.48,2.48,0,0,1-2.68-2.43C160.86,274.34,163.78,273.94,165.59,273.94Zm-1.51,3.65a2.05,2.05,0,0,0,1.86-2.12v-.31h-.33c-1,0-2.75.16-2.75,1.37A1.09,1.09,0,0,0,164.08,277.59Z"/><path class="cls-2" d="M169.46,277.4l.19-.29c.23-.33.5-.36.9-.15a3.68,3.68,0,0,0,1.81.55c.7,0,1.13-.32,1.13-.82,0-1.32-4-.83-4-3.6,0-1.59,1.4-2.43,3.09-2.43a4.51,4.51,0,0,1,2.26.59.6.6,0,0,1,.24.88l-.16.29c-.19.38-.49.43-.89.25a3.59,3.59,0,0,0-1.54-.39c-.7,0-1.09.28-1.09.79,0,1.33,4,.81,4,3.57,0,1.43-1.21,2.49-3.08,2.49a4.71,4.71,0,0,1-2.7-.83A.57.57,0,0,1,169.46,277.4Z"/><path class="cls-2" d="M177.27,272.56h-.43a.58.58,0,0,1-.65-.66v-.27a.59.59,0,0,1,.66-.67h.46v-1.65a.61.61,0,0,1,.67-.67h.63a.61.61,0,0,1,.67.67V271h1.17a.61.61,0,0,1,.67.67v.27a.59.59,0,0,1-.65.66h-1.19v3.14a1.32,1.32,0,0,0,1.3,1.51c.49.05.67.21.67.65v.49c0,.48-.27.67-.83.67a2.89,2.89,0,0,1-3.15-3Z"/><path class="cls-2" d="M69.92,273.88a1.2,1.2,0,0,1-.52-.12,1.13,1.13,0,0,1-.55-1.35l11.74-36.14A2.48,2.48,0,0,1,83,234.54h0a2.46,2.46,0,0,1,2.38,1.73l2.38,7.16a.85.85,0,0,1-.54,1.08.86.86,0,0,1-1.07-.54l-2.38-7.17a.78.78,0,0,0-.77-.56h0a.79.79,0,0,0-.77.55L71.59,269.48l15-20.47a4.66,4.66,0,0,1,3.76-1.91h10a2.51,2.51,0,0,1,1.48,4.54l-9.11,6.62-.1.08,3.52,10.83A2.5,2.5,0,0,1,92.2,272l-7.88-5.72a2.52,2.52,0,0,1,0-4.06l6.61-4.78.1-.09,9.72-7.06a.81.81,0,0,0-.48-1.46h-10A3,3,0,0,0,87.92,250l-17.1,23.41A1.12,1.12,0,0,1,69.92,273.88Zm21.17-14.49-5.77,4.18a.81.81,0,0,0,0,1.3l7.88,5.73a.8.8,0,0,0,1.24-.9Z"/><path class="cls-2" d="M70.52,255.91a.88.88,0,0,1-.49-.15l-5.81-4.12a2.51,2.51,0,0,1,1.47-4.54h7.12a.85.85,0,0,1,0,1.7H65.69a.81.81,0,0,0-.48,1.46L71,254.37a.85.85,0,0,1-.5,1.54Z"/><path class="cls-2" d="M78.44,285.88a2.81,2.81,0,0,1-1.37-.36l-14.85-8.43a.86.86,0,0,1-.43-.74V258.23a.85.85,0,1,1,1.7,0v17.62L77.91,284A1.07,1.07,0,0,0,79,284l10.54-6.59a.85.85,0,0,1,.9,1.44l-10.54,6.6A2.72,2.72,0,0,1,78.44,285.88Z"/><rect class="cls-3" width="300" height="600"/></svg>