<svg id="Layer_1" data-name="Layer 1" xmlns="http://www.w3.org/2000/svg" viewBox="0 0 300 150"><defs><style>.cls-1{fill:#fff;}.cls-2{fill:none;}</style></defs><title>Artboard 9</title><path class="cls-1" d="M17.13,88.35v.15a9.46,9.46,0,0,1-4.85-1.22l-.83,1.22h-.2V82.4h.2A8.38,8.38,0,0,0,17.13,88.35Zm7.34-5c0,3.22-2.4,5-6.27,5.12v-.15c1.38-.25,2.72-1,2.72-2.55,0-4.37-9.54-4.77-9.54-9.85,0-3,2.42-4.72,5.75-5v.15a2.37,2.37,0,0,0-2.2,2.3C14.93,77.83,24.47,78.3,24.47,83.38ZM18.2,71.15V71a8.05,8.05,0,0,1,4.5,1.33L23.6,71h.2v5.58h-.2A8,8,0,0,0,18.2,71.15Z"/><path class="cls-1" d="M35.87,86.33v.15a5.22,5.22,0,0,1-4.27,2c-2.25,0-3.85-1-3.85-3.52v-8.2h-1.3l.28-.38h1V73.7a6.27,6.27,0,0,0,4.1-1.4v4.1h3.37l-.27.38h-3.1v8.27c0,1.25.48,2.55,1.65,2.55A3.68,3.68,0,0,0,35.87,86.33Z"/><path class="cls-1" d="M36.68,85.3c0-2.17,2-3.4,4.8-3.4h2.69v.15h-.74a2.48,2.48,0,0,0-2.65,2.73c0,1.37.4,2.42,1.57,2.42a2.72,2.72,0,0,0,1.82-.87v.15a5.32,5.32,0,0,1-4,2C38.08,88.5,36.65,87.3,36.68,85.3Zm1-7.07c0-1.28,1.15-2.58,4.55-2.73v.15a1.83,1.83,0,0,0-1.6,1.83c0,.9.62,1.45,1.62,1.52a2.8,2.8,0,0,1-2.4,1.2A2,2,0,0,1,37.68,78.23Zm7.24,7.45V78c0-1.23-.47-2.2-1.7-2.38V75.5c4.15.15,5.8,1.73,5.8,5v6.08c0,.72.25,1,.7,1s.8-.37,1.2-1.12h.15a3.12,3.12,0,0,1-3.25,2C45.82,88.5,44.92,87.8,44.92,85.68Z"/><path class="cls-1" d="M57.85,86.83c0,.62.37,1.27,1.87,1.27v.15H51.85V88.1c1.5,0,1.88-.65,1.88-1.27V78c0-.9-.43-1.32-1.85-1.32v-.15a15.18,15.18,0,0,0,6-1ZM64.6,78.2A2.68,2.68,0,0,1,62,81.05a1.69,1.69,0,0,1-1.42-.55,1.83,1.83,0,0,0,1-1.7,1.33,1.33,0,0,0-1.4-1.35,1.7,1.7,0,0,0-1.49,1v-.2a3.44,3.44,0,0,1,3.24-2.7A2.54,2.54,0,0,1,64.6,78.2Z"/><path class="cls-1" d="M10.78,115.25v-.15c1.5,0,1.87-.57,1.87-1.27V99.7c0-.7-.37-1.3-1.87-1.3v-.15H16.9v17Zm14-17v4.63h-.2c-1.08-3.15-2.6-4.23-6.4-4.48v-.15Zm-6.6,8.28v-.15l1.38-.13a3.81,3.81,0,0,0,3.29-2.15H23v4.65h-.2a3.8,3.8,0,0,0-3.29-2.1Zm0,8.57c3.8-.25,5.57-1.32,6.92-4.47h.2v4.62H18.15Z"/><path class="cls-1" d="M27.13,115.1c1.5,0,1.87-.65,1.87-1.27V105c0-.9-.42-1.32-1.85-1.32v-.15a15.23,15.23,0,0,0,6-1v11.33c0,.62.37,1.27,1.87,1.27v.15H27.13Zm8.79,0c1.48,0,1.85-.65,1.85-1.27V106c0-1.4-.72-2.13-2-2.13a2.67,2.67,0,0,0-1.9.78v-.15a5.12,5.12,0,0,1,4.15-2c2.25,0,3.85,1,3.85,3.53v7.8c0,.62.37,1.27,1.87,1.27v.15H35.92Z"/><path class="cls-1" d="M54.37,113.33v.15a5.25,5.25,0,0,1-4.27,2c-2.25,0-3.85-1-3.85-3.52v-8.2H45l.28-.38h1v-2.7a6.27,6.27,0,0,0,4.1-1.4v4.1h3.37l-.27.38h-3.1v8.27c0,1.25.48,2.55,1.65,2.55A3.68,3.68,0,0,0,54.37,113.33Z"/><path class="cls-1" d="M60.83,113.83c0,.62.37,1.27,1.87,1.27v.15H54.83v-.15c1.5,0,1.87-.65,1.87-1.27V99.33c0-.9-.42-1.33-1.85-1.33v-.15a15.42,15.42,0,0,0,6-1Zm8.74-7.8v7.8c0,.62.38,1.27,1.88,1.27v.15H63.6v-.15c1.47,0,1.85-.65,1.85-1.27V106a1.86,1.86,0,0,0-2-2.13,2.63,2.63,0,0,0-1.89.78v-.15a5.08,5.08,0,0,1,4.14-2C68,102.5,69.57,103.55,69.57,106Z"/><path class="cls-1" d="M78.08,112c0,1.39.47,2.12,1.72,2.12a2.21,2.21,0,0,0,1.72-.77v.15a4.16,4.16,0,0,1-3.87,2c-2.25,0-3.7-1-3.7-3.52v-7c0-.9-.42-1.32-1.85-1.32v-.15a15.23,15.23,0,0,0,6-1Zm8.32,1.6c0,.72.22,1,.67,1s.8-.37,1.2-1.12h.15c-.4,1.37-1.75,2-3.4,2s-2.75-1-2.75-2.45V105c0-.9-.42-1.32-1.77-1.32v-.15a16.15,16.15,0,0,0,5.9-1Z"/><path class="cls-1" d="M94.23,112.28a1.27,1.27,0,0,0-1.4,1.25c0,.72.5,1.64,2.22,1.82v.15c-3.32-.13-5.15-1-5.15-2.47A2,2,0,0,1,92,111.18,2.54,2.54,0,0,1,94.23,112.28Zm.82-9.63c-.92.18-1.82.65-1.8,1.68.08,2.9,8.17,3.37,8.17,7.35,0,2.42-2,3.69-5.27,3.82v-.15c1-.18,2.22-.55,2.22-1.85,0-2.6-8.19-3.55-8.19-7.35,0-2.2,2.07-3.52,4.87-3.65Zm5.9,2.43a1.64,1.64,0,0,1-1.85,1.55,2.16,2.16,0,0,1-2.13-1.2,1.12,1.12,0,0,0,1.13-1.18c0-.75-.95-1.47-1.95-1.6v-.15C99,102.65,101,103.68,101,105.08Z"/><path class="cls-1" d="M103.13,103.45a15.37,15.37,0,0,0,6-1v11.35c0,.62.37,1.27,1.87,1.27v.15H103.1v-.15c1.5,0,1.88-.65,1.88-1.27v-8.9c0-.9-.43-1.33-1.85-1.33Zm1.27-4.7A2.58,2.58,0,1,1,107,101,2.27,2.27,0,0,1,104.4,98.75Z"/><path class="cls-1" d="M112.23,112.3c0-2.17,2-3.4,4.79-3.4h2.7v.15H119a2.47,2.47,0,0,0-2.64,2.73c0,1.37.39,2.42,1.57,2.42a2.72,2.72,0,0,0,1.82-.87v.15a5.34,5.34,0,0,1-4,2C113.63,115.5,112.2,114.3,112.23,112.3Zm1-7.07c0-1.28,1.15-2.58,4.54-2.73v.15a1.82,1.82,0,0,0-1.59,1.83c0,.9.62,1.45,1.62,1.52a2.82,2.82,0,0,1-2.4,1.2A2,2,0,0,1,113.23,105.23Zm7.24,7.45V105c0-1.23-.47-2.2-1.7-2.38v-.15c4.15.15,5.8,1.73,5.8,5v6.08c0,.72.25,1,.7,1s.8-.37,1.2-1.12h.15a3.12,3.12,0,0,1-3.25,2C121.37,115.5,120.47,114.8,120.47,112.68Z"/><path class="cls-1" d="M132.2,112.28a1.27,1.27,0,0,0-1.4,1.25c0,.72.5,1.64,2.22,1.82v.15c-3.32-.13-5.14-1-5.14-2.47a2,2,0,0,1,2.12-1.85A2.54,2.54,0,0,1,132.2,112.28Zm.82-9.63c-.92.18-1.82.65-1.8,1.68.08,2.9,8.18,3.37,8.18,7.35,0,2.42-2.05,3.69-5.28,3.82v-.15c1-.18,2.23-.55,2.23-1.85,0-2.6-8.2-3.55-8.2-7.35,0-2.2,2.07-3.52,4.87-3.65Zm5.9,2.43a1.64,1.64,0,0,1-1.85,1.55,2.13,2.13,0,0,1-2.12-1.2,1.11,1.11,0,0,0,1.12-1.18c0-.75-.95-1.47-1.95-1.6v-.15C137,102.65,138.92,103.68,138.92,105.08Z"/><path class="cls-1" d="M150.75,113.33v.15a5.26,5.26,0,0,1-4.28,2c-2.25,0-3.85-1-3.85-3.52v-8.2h-1.29l.27-.38h1v-2.7a6.27,6.27,0,0,0,4.1-1.4v4.1h3.38l-.28.38h-3.1v8.27c0,1.25.48,2.55,1.65,2.55A3.72,3.72,0,0,0,150.75,113.33Z"/><path class="cls-1" d="M10.78,142.1c1.5,0,1.87-.6,1.87-1.27V126.68c0-.68-.37-1.28-1.87-1.28v-.15h8v.15c-1.5,0-1.88.6-1.88,1.28v14.15c0,.67.38,1.27,1.88,1.27v.15h-8Z"/><path class="cls-1" d="M20.45,142.1c1.5,0,1.88-.65,1.88-1.27V132c0-.9-.43-1.32-1.85-1.32v-.15a15.18,15.18,0,0,0,6-1v11.33c0,.62.38,1.27,1.88,1.27v.15H20.45Zm8.8,0c1.47,0,1.85-.65,1.85-1.27V133c0-1.4-.73-2.13-2-2.13a2.67,2.67,0,0,0-1.9.78v-.15a5.09,5.09,0,0,1,4.14-2c2.25,0,3.85,1.05,3.85,3.53v7.8c0,.62.38,1.27,1.88,1.27v.15H29.25Z"/><path class="cls-1" d="M42.8,139.28a1.28,1.28,0,0,0-1.4,1.25c0,.72.5,1.64,2.23,1.82v.15c-3.33-.13-5.15-1-5.15-2.47a2,2,0,0,1,2.12-1.85A2.53,2.53,0,0,1,42.8,139.28Zm.83-9.63c-.93.18-1.83.65-1.8,1.68.07,2.9,8.17,3.37,8.17,7.35,0,2.42-2,3.69-5.27,3.82v-.15c1.05-.18,2.22-.55,2.22-1.85,0-2.6-8.2-3.55-8.2-7.35,0-2.2,2.08-3.52,4.88-3.65Zm5.89,2.43a1.64,1.64,0,0,1-1.85,1.55,2.14,2.14,0,0,1-2.12-1.2,1.12,1.12,0,0,0,1.13-1.18c0-.75-1-1.47-2-1.6v-.15C47.55,129.65,49.52,130.68,49.52,132.08Z"/><path class="cls-1" d="M57.38,139c0,1.39.47,2.12,1.72,2.12a2.21,2.21,0,0,0,1.72-.77v.15a4.16,4.16,0,0,1-3.87,2c-2.25,0-3.7-1.05-3.7-3.52v-7c0-.9-.42-1.32-1.85-1.32v-.15a15.23,15.23,0,0,0,6-1Zm8.32,1.6c0,.72.22,1,.67,1s.8-.37,1.2-1.12h.15c-.4,1.37-1.75,2-3.4,2s-2.75-1-2.75-2.45V132c0-.9-.42-1.32-1.77-1.32v-.15a16.15,16.15,0,0,0,5.9-1Z"/><path class="cls-1" d="M74.73,140.83c0,.62.37,1.27,1.87,1.27v.15H68.73v-.15c1.5,0,1.87-.65,1.87-1.27V132c0-.9-.42-1.32-1.85-1.32v-.15a15.23,15.23,0,0,0,6-1Zm6.74-8.63a2.67,2.67,0,0,1-2.57,2.85,1.71,1.71,0,0,1-1.43-.55,1.82,1.82,0,0,0,1-1.7,1.33,1.33,0,0,0-1.4-1.35,1.72,1.72,0,0,0-1.5,1v-.2a3.46,3.46,0,0,1,3.25-2.7A2.54,2.54,0,0,1,81.47,132.2Z"/><path class="cls-1" d="M82.55,139.3c0-2.17,2-3.4,4.8-3.4h2.7v.15H89.3a2.48,2.48,0,0,0-2.65,2.73c0,1.37.4,2.42,1.58,2.42a2.72,2.72,0,0,0,1.82-.87v.15a5.35,5.35,0,0,1-4,2C84,142.5,82.53,141.3,82.55,139.3Zm1-7.07c0-1.28,1.15-2.58,4.55-2.73v.15a1.83,1.83,0,0,0-1.6,1.83c0,.9.63,1.45,1.63,1.52a2.82,2.82,0,0,1-2.4,1.2A2,2,0,0,1,83.55,132.23Zm7.25,7.45V132c0-1.23-.48-2.2-1.7-2.38v-.15c4.15.15,5.8,1.73,5.8,5v6.08c0,.72.25,1,.7,1s.8-.37,1.2-1.12H97a3.12,3.12,0,0,1-3.25,2C91.7,142.5,90.8,141.8,90.8,139.68Z"/><path class="cls-1" d="M97.73,142.1c1.5,0,1.87-.65,1.87-1.27V132c0-.9-.42-1.32-1.85-1.32v-.15a15.23,15.23,0,0,0,6-1v11.33c0,.62.37,1.27,1.87,1.27v.15H97.73Zm8.79,0c1.48,0,1.85-.65,1.85-1.27V133c0-1.4-.72-2.13-2-2.13a2.67,2.67,0,0,0-1.9.78v-.15a5.1,5.1,0,0,1,4.15-2c2.25,0,3.85,1.05,3.85,3.53v7.8c0,.62.37,1.27,1.87,1.27v.15h-7.85Z"/><path class="cls-1" d="M122.12,129.65c-1.47.18-2.12,1.43-2.12,6.2,0,3.6,1.83,5.57,4,5.57a5.43,5.43,0,0,0,3.65-1.32v.15a7,7,0,0,1-5.3,2.25,6.53,6.53,0,0,1-6.67-6.55,6.4,6.4,0,0,1,6.39-6.45Zm5.55,2.68a2.33,2.33,0,0,1-2.5,2.4,2.12,2.12,0,0,1-2.17-1.58,2.14,2.14,0,0,0,1.2-1.82,1.48,1.48,0,0,0-1.08-1.65v-.18C126.4,129.5,127.67,130.9,127.67,132.33Z"/><path class="cls-1" d="M129.55,136a6.19,6.19,0,0,1,6.12-6.45v.15c-1.47.18-1.87,1.43-1.87,6.2,0,3.6,1.6,5.57,3.82,5.57a5.39,5.39,0,0,0,3.65-1.32v.15a7,7,0,0,1-5.3,2.25A6.34,6.34,0,0,1,129.55,136Zm5.62-1c2.2,0,3.13-.7,3.13-2.8,0-1.2-.5-2.3-1.63-2.45v-.15c3.3,0,4.9,2.35,4.9,4.25a7.85,7.85,0,0,1-.12,1.3h-6.28Z"/><rect class="cls-2" width="300" height="150"/></svg>