<svg id="Layer_1" data-name="Layer 1" xmlns="http://www.w3.org/2000/svg" viewBox="0 0 300 150"><defs><style>.cls-1{fill:#fff;}.cls-2{fill:none;}</style></defs><title>Artboard 10</title><path class="cls-1" d="M18.77,71v.15c-1.8.23-3,2-3,8.45s1.25,8.52,3,8.75v.15a8.35,8.35,0,0,1-7.95-8.75A8.66,8.66,0,0,1,18.77,71Zm1.22.15V71a10.49,10.49,0,0,1,5.12,1.18L25.89,71h.2v6.08h-.2A7.72,7.72,0,0,0,20,71.15Zm8.47,9.93v.15c-1.17,0-1.85.45-1.85,1.47v5.8h-.2l-.9-1.5A9.81,9.81,0,0,1,20,88.5v-.15c1.7-.13,2.68-1,2.68-3V82.7c0-1-.45-1.47-1.88-1.47v-.15Z"/><path class="cls-1" d="M30,82a6.19,6.19,0,0,1,6.13-6.45v.15c-1.48.18-1.88,1.43-1.88,6.2,0,3.6,1.6,5.57,3.82,5.57a5.39,5.39,0,0,0,3.65-1.32v.15a7,7,0,0,1-5.29,2.25A6.34,6.34,0,0,1,30,82Zm5.63-1c2.2,0,3.12-.7,3.12-2.8,0-1.2-.5-2.3-1.62-2.45V75.5c3.29,0,4.89,2.35,4.89,4.25a7.85,7.85,0,0,1-.12,1.3H35.62Z"/><path class="cls-1" d="M53.31,86.33v.15a5.25,5.25,0,0,1-4.27,2c-2.25,0-3.85-1-3.85-3.52v-8.2h-1.3l.28-.38h1V73.7a6.27,6.27,0,0,0,4.1-1.4v4.1h3.37l-.27.38h-3.1v8.27c0,1.25.48,2.55,1.65,2.55A3.68,3.68,0,0,0,53.31,86.33Z"/><path class="cls-1" d="M60.47,85.3c0-2.17,2-3.4,4.8-3.4H68v.15h-.74a2.48,2.48,0,0,0-2.65,2.73c0,1.37.4,2.42,1.57,2.42A2.72,2.72,0,0,0,68,86.33v.15a5.32,5.32,0,0,1-4,2C61.87,88.5,60.44,87.3,60.47,85.3Zm1-7.07c0-1.28,1.15-2.58,4.55-2.73v.15a1.83,1.83,0,0,0-1.6,1.83c0,.9.62,1.45,1.62,1.52a2.8,2.8,0,0,1-2.4,1.2A2,2,0,0,1,61.47,78.23Zm7.24,7.45V78c0-1.23-.47-2.2-1.7-2.38V75.5c4.15.15,5.8,1.73,5.8,5v6.08c0,.72.25,1,.7,1s.8-.37,1.2-1.12h.15a3.12,3.12,0,0,1-3.25,2C69.61,88.5,68.71,87.8,68.71,85.68Z"/><path class="cls-1" d="M19.54,104.5v.2a2.81,2.81,0,0,0-2.1-.92c-1.25,0-2.42.57-2.42,5.1s1.25,5.32,2.42,5.32a3.52,3.52,0,0,0,2.1-.87v.15a4.67,4.67,0,0,1-3.65,2c-2.37,0-5.12-1.4-5.12-6.62,0-5,2.7-6.38,5.12-6.38A4.65,4.65,0,0,1,19.54,104.5Zm4.87,14.55c0,.9.43,1.32,1.85,1.32v.15a16.28,16.28,0,0,0-6,1V103.43a16.09,16.09,0,0,0,4.12-1Z"/><path class="cls-1" d="M32.79,112c0,1.39.48,2.12,1.73,2.12a2.21,2.21,0,0,0,1.72-.77v.15a4.16,4.16,0,0,1-3.87,2c-2.25,0-3.7-1-3.7-3.52v-7c0-.9-.43-1.32-1.85-1.32v-.15a15.18,15.18,0,0,0,6-1Zm8.32,1.6c0,.72.23,1,.68,1s.8-.37,1.2-1.12h.15c-.4,1.37-1.75,2-3.4,2s-2.75-1-2.75-2.45V105c0-.9-.42-1.32-1.77-1.32v-.15a16.13,16.13,0,0,0,5.89-1Z"/><path class="cls-1" d="M50.82,102.65c-1.48.18-2,1.43-2,6.3,0,4.7.5,6.25,2,6.4v.15A6.37,6.37,0,0,1,44.59,109a6.27,6.27,0,0,1,6.23-6.45ZM58,109a6.36,6.36,0,0,1-6.19,6.55v-.15c1.47-.15,1.94-1.73,1.94-6.4,0-4.9-.5-6.15-1.94-6.3v-.15A6.23,6.23,0,0,1,58,109Z"/><path class="cls-1" d="M69.36,113.33v.15a5.24,5.24,0,0,1-4.27,2c-2.25,0-3.85-1-3.85-3.52v-8.2h-1.3l.28-.38h1v-2.7a6.27,6.27,0,0,0,4.1-1.4v4.1h3.37l-.27.38h-3.1v8.27c0,1.25.48,2.55,1.65,2.55A3.68,3.68,0,0,0,69.36,113.33Z"/><path class="cls-1" d="M70.29,109a6.19,6.19,0,0,1,6.13-6.45v.15c-1.48.18-1.88,1.43-1.88,6.2,0,3.6,1.6,5.57,3.82,5.57A5.39,5.39,0,0,0,82,113.1v.15a7,7,0,0,1-5.29,2.25A6.34,6.34,0,0,1,70.29,109Zm5.63-1c2.2,0,3.12-.7,3.12-2.8,0-1.2-.5-2.3-1.63-2.45v-.15c3.3,0,4.9,2.35,4.9,4.25a7.85,7.85,0,0,1-.12,1.3H75.92Z"/><path class="cls-1" d="M99,103.4l-.27.38H96.24v10c0,.62.4,1.27,1.9,1.27v.15h-7.9v-.15c1.5,0,1.88-.65,1.88-1.27v-10H90.49l.28-.38h1.35v-1.12c0-3.55,1.85-5,4.15-5.4V97a2.51,2.51,0,0,0-1.48,2.65C94.79,101.15,95.77,103.4,99,103.4Zm2.13-3.82a2.12,2.12,0,0,1-2.18,2.2,2.59,2.59,0,0,1-2.52-1.68,1.57,1.57,0,0,0,1.77-1.6,1.44,1.44,0,0,0-.9-1.47v-.15C99.91,97,101.09,98.15,101.09,99.58Z"/><path class="cls-1" d="M105.79,113.83c0,.62.37,1.27,1.87,1.27v.15H99.79v-.15c1.5,0,1.88-.65,1.88-1.27V105c0-.9-.43-1.32-1.85-1.32v-.15a15.18,15.18,0,0,0,6-1Zm6.75-8.63a2.68,2.68,0,0,1-2.58,2.85,1.69,1.69,0,0,1-1.42-.55,1.83,1.83,0,0,0,1-1.7,1.33,1.33,0,0,0-1.4-1.35,1.7,1.7,0,0,0-1.49,1v-.2a3.44,3.44,0,0,1,3.24-2.7A2.54,2.54,0,0,1,112.54,105.2Z"/><path class="cls-1" d="M120.11,102.65c-1.47.18-2,1.43-2,6.3,0,4.7.5,6.25,2,6.4v.15a6.37,6.37,0,0,1-6.22-6.55,6.27,6.27,0,0,1,6.22-6.45Zm7.2,6.3a6.36,6.36,0,0,1-6.2,6.55v-.15c1.48-.15,2-1.73,2-6.4,0-4.9-.5-6.15-2-6.3v-.15A6.23,6.23,0,0,1,127.31,109Z"/><path class="cls-1" d="M135,113.83c0,.62.38,1.27,1.88,1.27v.15H129v-.15c1.5,0,1.87-.65,1.87-1.27V105c0-.9-.42-1.32-1.85-1.32v-.15a15.15,15.15,0,0,0,6-1Zm8.3-7.8v7.8c0,.62.35,1.27,1.85,1.27v.15h-7.85v-.15c1.48,0,1.88-.65,1.88-1.27V106c0-1.4-.55-2.13-1.75-2.13a2.19,2.19,0,0,0-1.65.75v-.15a4,4,0,0,1,3.65-2C141.76,102.5,143.26,103.55,143.26,106Zm8.28,0v7.8c0,.62.37,1.27,1.87,1.27v.15h-7.87v-.15c1.47,0,1.87-.65,1.87-1.27V106c0-1.4-.55-2.13-1.75-2.13a2.2,2.2,0,0,0-1.65.75v-.15a4.06,4.06,0,0,1,3.65-2C150,102.5,151.54,103.55,151.54,106Z"/><path class="cls-1" d="M10.87,130.78a1.35,1.35,0,0,0-1.38-.88v-.15h7v.15c-.87,0-1.22.6-.8,1.48L19,138.2l-2.15,4.05h-.15Zm-1.1,15.49a2.63,2.63,0,0,1,2.2-2.35,1.83,1.83,0,0,0-.1.63,1.46,1.46,0,0,0,1.47,1.67c.88,0,1.58-.92,2.53-2.52H16c-1.37,2.57-2.32,4.8-4.07,4.8A2.08,2.08,0,0,1,9.77,146.27ZM20,135.75a6.77,6.77,0,0,0,.7-3.22,2.41,2.41,0,0,0-2.54-2.63v-.15h6.22v.15c-.83,0-1.15.33-1.63,1.18l-2.6,4.9Z"/><path class="cls-1" d="M30.74,129.65c-1.47.18-2,1.43-2,6.3,0,4.7.5,6.25,2,6.4v.15A6.37,6.37,0,0,1,24.52,136a6.27,6.27,0,0,1,6.22-6.45Zm7.2,6.3a6.36,6.36,0,0,1-6.2,6.55v-.15c1.48-.15,1.95-1.73,1.95-6.4,0-4.9-.5-6.15-1.95-6.3v-.15A6.23,6.23,0,0,1,37.94,136Z"/><path class="cls-1" d="M45.32,139c0,1.39.47,2.12,1.72,2.12a2.21,2.21,0,0,0,1.72-.77v.15a4.16,4.16,0,0,1-3.87,2c-2.25,0-3.7-1.05-3.7-3.52v-7c0-.9-.42-1.32-1.85-1.32v-.15a15.23,15.23,0,0,0,6-1Zm8.32,1.6c0,.72.22,1,.67,1s.8-.37,1.2-1.12h.15c-.4,1.37-1.75,2-3.4,2s-2.75-1-2.75-2.45V132c0-.9-.42-1.32-1.77-1.32v-.15a16.15,16.15,0,0,0,5.9-1Z"/><path class="cls-1" d="M62.67,140.83c0,.62.37,1.27,1.87,1.27v.15H56.67v-.15c1.5,0,1.87-.65,1.87-1.27V132c0-.9-.42-1.32-1.85-1.32v-.15a15.23,15.23,0,0,0,6-1Zm6.74-8.63a2.67,2.67,0,0,1-2.57,2.85,1.71,1.71,0,0,1-1.43-.55,1.82,1.82,0,0,0,1-1.7,1.33,1.33,0,0,0-1.4-1.35,1.73,1.73,0,0,0-1.5,1v-.2a3.46,3.46,0,0,1,3.25-2.7A2.54,2.54,0,0,1,69.41,132.2Z"/><path class="cls-1" d="M76.64,125.25h6.13v17H76.64v-.15c1.5,0,1.88-.65,1.88-1.27V126.68c0-.63-.38-1.28-1.88-1.28ZM92.21,137.7c0,3.3-2.62,4.55-8.2,4.55v-.15c2,0,3.95-1.52,3.95-4.4a3.68,3.68,0,0,0-3.95-4v-.15c2.3,0,3.33-1.5,3.33-4.28s-1-3.9-3.33-3.9v-.15c5.08,0,7.58,1,7.58,4.05,0,2.5-2.2,4.1-5.75,4.35C89.54,133.8,92.21,135,92.21,137.7Z"/><path class="cls-1" d="M100,140.83c0,.62.37,1.27,1.87,1.27v.15H94v-.15c1.5,0,1.87-.65,1.87-1.27V132c0-.9-.42-1.32-1.85-1.32v-.15a15.23,15.23,0,0,0,6-1Zm6.74-8.63a2.67,2.67,0,0,1-2.57,2.85,1.71,1.71,0,0,1-1.43-.55,1.82,1.82,0,0,0,1-1.7,1.33,1.33,0,0,0-1.4-1.35,1.72,1.72,0,0,0-1.5,1v-.2a3.46,3.46,0,0,1,3.25-2.7A2.54,2.54,0,0,1,106.76,132.2Z"/><path class="cls-1" d="M114.34,129.65c-1.47.18-2,1.43-2,6.3,0,4.7.5,6.25,2,6.4v.15a6.37,6.37,0,0,1-6.22-6.55,6.27,6.27,0,0,1,6.22-6.45Zm7.2,6.3a6.37,6.37,0,0,1-6.2,6.55v-.15c1.47-.15,2-1.73,2-6.4,0-4.9-.5-6.15-2-6.3v-.15A6.23,6.23,0,0,1,121.54,136Z"/><path class="cls-1" d="M130.91,142.1v.15H123v-.15c1.5,0,1.88-.65,1.88-1.27v-14.5c0-.9-.43-1.33-1.85-1.33v-.15a15.4,15.4,0,0,0,6-1v17C129,141.45,129.41,142.1,130.91,142.1Zm8.48,0v.15a9.86,9.86,0,0,1-2.5.25,4.73,4.73,0,0,1-4.53-2.42L130,136.15c2-1.72,3.83-3.82,3.83-5.1,0-.67-.33-1.15-1.48-1.15v-.15h6.4v.15a2.27,2.27,0,0,0-1.4.45L132.79,134l4.32,6.7A2.61,2.61,0,0,0,139.39,142.1Z"/><path class="cls-1" d="M139.54,136a6.19,6.19,0,0,1,6.12-6.45v.15c-1.47.18-1.87,1.43-1.87,6.2,0,3.6,1.6,5.57,3.82,5.57a5.39,5.39,0,0,0,3.65-1.32v.15a7,7,0,0,1-5.3,2.25A6.34,6.34,0,0,1,139.54,136Zm5.62-1c2.2,0,3.13-.7,3.13-2.8,0-1.2-.5-2.3-1.63-2.45v-.15c3.3,0,4.9,2.35,4.9,4.25a7.85,7.85,0,0,1-.12,1.3h-6.28Z"/><path class="cls-1" d="M159.16,140.83c0,.62.38,1.27,1.88,1.27v.15h-7.87v-.15c1.5,0,1.87-.65,1.87-1.27V132c0-.9-.42-1.32-1.85-1.32v-.15a15.15,15.15,0,0,0,6-1Zm6.75-8.63a2.67,2.67,0,0,1-2.57,2.85,1.71,1.71,0,0,1-1.43-.55,1.82,1.82,0,0,0,1-1.7,1.33,1.33,0,0,0-1.4-1.35,1.72,1.72,0,0,0-1.5,1v-.2a3.46,3.46,0,0,1,3.25-2.7A2.54,2.54,0,0,1,165.91,132.2Z"/><rect class="cls-2" width="300" height="150"/></svg>