<?xml version="1.0" encoding="utf-8"?>
<!-- Generator: Adobe Illustrator 24.0.3, SVG Export Plug-In . SVG Version: 6.00 Build 0)  -->
<svg version="1.1" id="Layer_1" xmlns="http://www.w3.org/2000/svg" xmlns:xlink="http://www.w3.org/1999/xlink" x="0px" y="0px"
	 viewBox="0 0 300 150" style="enable-background:new 0 0 300 150;" xml:space="preserve">
<style type="text/css">
	.st0{enable-background:new    ;}
	.st1{fill:#FFFFFF;}
	.st2{fill:none;}
</style>
<title>Artboard 9</title>
<g class="st0">
	<path class="st1" d="M17.1,90v0.2c-2,0-3.5-0.4-4.8-1.2l-0.8,1.2h-0.2v-6.1h0.2C12.3,86.9,14,89,17.1,90z M24.5,85
		c0,3.2-2.4,5-6.3,5.1V90c1.4-0.2,2.7-1,2.7-2.5c0-4.4-9.5-4.8-9.5-9.8c0-3,2.4-4.7,5.7-4.9v0.2c-1.1,0.2-2.2,0.9-2.2,2.3
		C14.9,79.5,24.5,80,24.5,85z M18.2,72.8v-0.2c1.9,0.1,3.3,0.5,4.5,1.3l0.9-1.3h0.2v5.6h-0.2C22.8,75.6,20.6,73.4,18.2,72.8z"/>
</g>
<g class="st0">
	<path class="st1" d="M35.9,88v0.2c-0.8,1.1-2.4,2-4.3,2c-2.2,0-3.8-1-3.8-3.5v-8.2h-1.3l0.3-0.4h1v-2.7c1.5,0,3-0.5,4.1-1.4v4.1
		h3.4L35,78.4h-3.1v8.3c0,1.2,0.5,2.5,1.6,2.5C34.2,89.3,35.1,88.8,35.9,88z"/>
	<path class="st1" d="M36.7,87c0-2.2,2-3.4,4.8-3.4h2.7v0.2h-0.7c-1.8,0-2.6,1.2-2.6,2.7c0,1.4,0.4,2.4,1.6,2.4
		c0.7,0,1.3-0.4,1.8-0.9v0.2c-0.8,0.9-2.1,2-4,2C38.1,90.2,36.7,89,36.7,87z M37.7,79.9c0-1.3,1.1-2.6,4.5-2.7v0.2
		c-1,0.1-1.6,0.9-1.6,1.8c0,0.9,0.6,1.5,1.6,1.5c-0.4,0.7-1.4,1.2-2.4,1.2C38.5,81.9,37.7,80.9,37.7,79.9z M44.9,87.3v-7.6
		c0-1.2-0.5-2.2-1.7-2.4v-0.2c4.1,0.2,5.8,1.7,5.8,5v6.1c0,0.7,0.2,1,0.7,1c0.4,0,0.8-0.4,1.2-1.1h0.1c-0.4,1.4-1.7,2-3.2,2
		C45.8,90.2,44.9,89.5,44.9,87.3z"/>
</g>
<g class="st0">
	<path class="st1" d="M57.8,88.5c0,0.6,0.4,1.3,1.9,1.3v0.2h-7.9v-0.2c1.5,0,1.9-0.6,1.9-1.3v-8.9c0-0.9-0.4-1.3-1.8-1.3v-0.2
		c2.3,0,4.2-0.2,6-1V88.5z M64.6,79.9c0,1.7-1.2,2.8-2.6,2.8c-0.6,0-1.1-0.2-1.4-0.5c0.5-0.2,1-0.8,1-1.7c0-0.7-0.5-1.3-1.4-1.3
		c-0.6,0-1.2,0.4-1.5,0.9v-0.2c0.5-1.6,1.7-2.7,3.2-2.7C63.6,77.2,64.6,78.4,64.6,79.9z"/>
</g>
<g class="st0">
	<path class="st1" d="M10.8,113.9v-0.2c1.5,0,1.9-0.6,1.9-1.3V98.4c0-0.7-0.4-1.3-1.9-1.3v-0.2h6.1v17H10.8z M24.7,96.9v4.6h-0.2
		c-1.1-3.1-2.6-4.2-6.4-4.5v-0.2H24.7z M18.1,105.2V105l1.4-0.1c1.5-0.1,2.5-0.7,3.3-2.1H23v4.6h-0.2c-0.8-1.4-1.8-2-3.3-2.1
		L18.1,105.2z M18.1,113.8c3.8-0.2,5.6-1.3,6.9-4.5h0.2v4.6h-7.1V113.8z"/>
	<path class="st1" d="M27.1,113.8c1.5,0,1.9-0.6,1.9-1.3v-8.9c0-0.9-0.4-1.3-1.8-1.3v-0.2c2.3,0,4.2-0.2,6-1v11.3
		c0,0.6,0.4,1.3,1.9,1.3v0.2h-7.9V113.8z M35.9,113.8c1.5,0,1.8-0.6,1.8-1.3v-7.8c0-1.4-0.7-2.1-2-2.1c-0.7,0-1.3,0.2-1.9,0.8v-0.2
		c0.7-1,2.3-2,4.1-2c2.2,0,3.8,1,3.8,3.5v7.8c0,0.6,0.4,1.3,1.9,1.3v0.2h-7.8V113.8z"/>
	<path class="st1" d="M54.4,112v0.2c-0.8,1.1-2.4,2-4.3,2c-2.2,0-3.8-1-3.8-3.5v-8.2h-1.3l0.3-0.4h1v-2.7c1.5,0,3-0.5,4.1-1.4v4.1
		h3.4l-0.3,0.4h-3.1v8.3c0,1.2,0.5,2.5,1.6,2.5C52.7,113.3,53.5,112.8,54.4,112z"/>
	<path class="st1" d="M60.8,112.5c0,0.6,0.4,1.3,1.9,1.3v0.2h-7.9v-0.2c1.5,0,1.9-0.6,1.9-1.3V98c0-0.9-0.4-1.3-1.8-1.3v-0.1
		c2.3,0,4.2-0.2,6-1V112.5z M69.6,104.7v7.8c0,0.6,0.4,1.3,1.9,1.3v0.2h-7.8v-0.2c1.5,0,1.8-0.6,1.8-1.3v-7.8c0-1.4-0.7-2.1-2-2.1
		c-0.7,0-1.3,0.2-1.9,0.8v-0.2c0.7-1,2.3-2,4.1-2C68,101.2,69.6,102.2,69.6,104.7z"/>
	<path class="st1" d="M78.1,110.6c0,1.4,0.5,2.1,1.7,2.1c0.6,0,1.2-0.2,1.7-0.8v0.2c-0.6,1.1-1.8,2-3.9,2c-2.2,0-3.7-1-3.7-3.5v-7
		c0-0.9-0.4-1.3-1.8-1.3v-0.2c2.3,0,4.2-0.2,6-1V110.6z M86.4,112.2c0,0.7,0.2,1,0.7,1c0.4,0,0.8-0.4,1.2-1.1h0.1
		c-0.4,1.4-1.7,2-3.4,2c-1.8,0-2.7-1-2.7-2.4v-8.1c0-0.9-0.4-1.3-1.8-1.3v-0.2c2.2,0,3.8-0.2,5.9-1V112.2z"/>
	<path class="st1" d="M94.2,110.9c-0.8,0-1.4,0.5-1.4,1.2c0,0.7,0.5,1.6,2.2,1.8v0.2c-3.3-0.1-5.1-1-5.1-2.5c0-1.1,1-1.8,2.1-1.8
		C93,109.8,93.8,110.3,94.2,110.9z M95,101.3c-0.9,0.2-1.8,0.6-1.8,1.7c0.1,2.9,8.2,3.4,8.2,7.3c0,2.4-2,3.7-5.3,3.8V114
		c1-0.2,2.2-0.5,2.2-1.8c0-2.6-8.2-3.5-8.2-7.3c0-2.2,2.1-3.5,4.9-3.6V101.3z M100.9,103.7c0,0.8-0.6,1.5-1.8,1.5
		c-1,0-1.8-0.5-2.1-1.2c0.8-0.1,1.1-0.6,1.1-1.2c0-0.8-1-1.5-1.9-1.6v-0.2C99,101.3,100.9,102.3,100.9,103.7z"/>
	<path class="st1" d="M103.1,102.1c2.3,0,4.2-0.2,6-1v11.3c0,0.6,0.4,1.3,1.9,1.3v0.2h-7.9v-0.2c1.5,0,1.9-0.6,1.9-1.3v-8.9
		c0-0.9-0.4-1.3-1.8-1.3V102.1z M104.4,97.4c0-1.3,1-2.2,2.5-2.2c1.5,0,2.5,0.9,2.5,2.2c0,1.3-1,2.2-2.5,2.2
		C105.4,99.6,104.4,98.7,104.4,97.4z"/>
	<path class="st1" d="M112.2,111c0-2.2,2-3.4,4.8-3.4h2.7v0.2H119c-1.8,0-2.6,1.2-2.6,2.7c0,1.4,0.4,2.4,1.6,2.4
		c0.7,0,1.3-0.4,1.8-0.9v0.2c-0.8,0.9-2.1,2-4,2C113.6,114.2,112.2,113,112.2,111z M113.2,103.9c0-1.3,1.1-2.6,4.5-2.7v0.2
		c-1,0.1-1.6,0.9-1.6,1.8c0,0.9,0.6,1.5,1.6,1.5c-0.4,0.7-1.4,1.2-2.4,1.2C114,105.9,113.2,104.9,113.2,103.9z M120.5,111.3v-7.6
		c0-1.2-0.5-2.2-1.7-2.4v-0.2c4.1,0.2,5.8,1.7,5.8,5v6.1c0,0.7,0.2,1,0.7,1c0.4,0,0.8-0.4,1.2-1.1h0.1c-0.4,1.4-1.7,2-3.2,2
		C121.4,114.2,120.5,113.5,120.5,111.3z"/>
	<path class="st1" d="M132.2,110.9c-0.8,0-1.4,0.5-1.4,1.2c0,0.7,0.5,1.6,2.2,1.8v0.2c-3.3-0.1-5.1-1-5.1-2.5c0-1.1,1-1.8,2.1-1.8
		C131,109.8,131.8,110.3,132.2,110.9z M133,101.3c-0.9,0.2-1.8,0.6-1.8,1.7c0.1,2.9,8.2,3.4,8.2,7.3c0,2.4-2,3.7-5.3,3.8V114
		c1-0.2,2.2-0.5,2.2-1.8c0-2.6-8.2-3.5-8.2-7.3c0-2.2,2.1-3.5,4.9-3.6V101.3z M138.9,103.7c0,0.8-0.6,1.5-1.8,1.5
		c-1,0-1.8-0.5-2.1-1.2c0.8-0.1,1.1-0.6,1.1-1.2c0-0.8-1-1.5-1.9-1.6v-0.2C136.9,101.3,138.9,102.3,138.9,103.7z"/>
	<path class="st1" d="M150.7,112v0.2c-0.8,1.1-2.4,2-4.3,2c-2.2,0-3.8-1-3.8-3.5v-8.2h-1.3l0.3-0.4h1v-2.7c1.5,0,3-0.5,4.1-1.4v4.1
		h3.4l-0.3,0.4h-3.1v8.3c0,1.2,0.5,2.5,1.6,2.5C149.1,113.3,149.9,112.8,150.7,112z"/>
</g>
<g class="st0">
	<path class="st1" d="M10.8,137.8c1.5,0,1.9-0.6,1.9-1.3v-14.1c0-0.7-0.4-1.3-1.9-1.3v-0.2h8v0.2c-1.5,0-1.9,0.6-1.9,1.3v14.1
		c0,0.7,0.4,1.3,1.9,1.3v0.2h-8V137.8z"/>
	<path class="st1" d="M20.5,137.8c1.5,0,1.9-0.6,1.9-1.3v-8.9c0-0.9-0.4-1.3-1.8-1.3v-0.2c2.3,0,4.2-0.2,6-1v11.3
		c0,0.6,0.4,1.3,1.9,1.3v0.2h-7.9V137.8z M29.2,137.8c1.5,0,1.8-0.6,1.8-1.3v-7.8c0-1.4-0.7-2.1-2-2.1c-0.7,0-1.3,0.2-1.9,0.8v-0.2
		c0.7-1,2.3-2,4.1-2c2.2,0,3.8,1,3.8,3.5v7.8c0,0.6,0.4,1.3,1.9,1.3v0.2h-7.8V137.8z"/>
	<path class="st1" d="M42.8,134.9c-0.8,0-1.4,0.5-1.4,1.2c0,0.7,0.5,1.6,2.2,1.8v0.2c-3.3-0.1-5.1-1-5.1-2.5c0-1.1,1-1.8,2.1-1.8
		C41.6,133.8,42.4,134.3,42.8,134.9z M43.6,125.3c-0.9,0.2-1.8,0.6-1.8,1.7c0.1,2.9,8.2,3.4,8.2,7.3c0,2.4-2,3.7-5.3,3.8V138
		c1-0.2,2.2-0.5,2.2-1.8c0-2.6-8.2-3.5-8.2-7.3c0-2.2,2.1-3.5,4.9-3.6V125.3z M49.5,127.7c0,0.8-0.6,1.5-1.8,1.5
		c-1,0-1.8-0.5-2.1-1.2c0.8-0.1,1.1-0.6,1.1-1.2c0-0.8-1-1.5-1.9-1.6v-0.2C47.5,125.3,49.5,126.3,49.5,127.7z"/>
	<path class="st1" d="M57.4,134.6c0,1.4,0.5,2.1,1.7,2.1c0.6,0,1.2-0.2,1.7-0.8v0.2c-0.6,1.1-1.8,2-3.9,2c-2.2,0-3.7-1-3.7-3.5v-7
		c0-0.9-0.4-1.3-1.8-1.3v-0.2c2.3,0,4.2-0.2,6-1V134.6z M65.7,136.2c0,0.7,0.2,1,0.7,1c0.4,0,0.8-0.4,1.2-1.1h0.1
		c-0.4,1.4-1.7,2-3.4,2c-1.8,0-2.7-1-2.7-2.4v-8.1c0-0.9-0.4-1.3-1.8-1.3v-0.2c2.2,0,3.8-0.2,5.9-1V136.2z"/>
</g>
<g class="st0">
	<path class="st1" d="M74.7,136.5c0,0.6,0.4,1.3,1.9,1.3v0.2h-7.9v-0.2c1.5,0,1.9-0.6,1.9-1.3v-8.9c0-0.9-0.4-1.3-1.8-1.3v-0.2
		c2.3,0,4.2-0.2,6-1V136.5z M81.5,127.9c0,1.7-1.2,2.8-2.6,2.8c-0.6,0-1.1-0.2-1.4-0.5c0.5-0.2,1-0.8,1-1.7c0-0.7-0.5-1.3-1.4-1.3
		c-0.6,0-1.2,0.4-1.5,0.9v-0.2c0.5-1.6,1.7-2.7,3.2-2.7C80.5,125.2,81.5,126.4,81.5,127.9z"/>
</g>
<g class="st0">
	<path class="st1" d="M82.5,135c0-2.2,2-3.4,4.8-3.4H90v0.2h-0.7c-1.8,0-2.6,1.2-2.6,2.7c0,1.4,0.4,2.4,1.6,2.4
		c0.7,0,1.3-0.4,1.8-0.9v0.2c-0.8,0.9-2.1,2-4,2C83.9,138.2,82.5,137,82.5,135z M83.5,127.9c0-1.3,1.1-2.6,4.5-2.7v0.2
		c-1,0.1-1.6,0.9-1.6,1.8c0,0.9,0.6,1.5,1.6,1.5c-0.4,0.7-1.4,1.2-2.4,1.2C84.3,129.9,83.5,128.9,83.5,127.9z M90.8,135.3v-7.6
		c0-1.2-0.5-2.2-1.7-2.4v-0.2c4.1,0.2,5.8,1.7,5.8,5v6.1c0,0.7,0.2,1,0.7,1c0.4,0,0.8-0.4,1.2-1.1h0.1c-0.4,1.4-1.7,2-3.2,2
		C91.7,138.2,90.8,137.5,90.8,135.3z"/>
	<path class="st1" d="M97.7,137.8c1.5,0,1.9-0.6,1.9-1.3v-8.9c0-0.9-0.4-1.3-1.8-1.3v-0.2c2.3,0,4.2-0.2,6-1v11.3
		c0,0.6,0.4,1.3,1.9,1.3v0.2h-7.9V137.8z M106.5,137.8c1.5,0,1.8-0.6,1.8-1.3v-7.8c0-1.4-0.7-2.1-2-2.1c-0.7,0-1.3,0.2-1.9,0.8v-0.2
		c0.7-1,2.3-2,4.1-2c2.2,0,3.8,1,3.8,3.5v7.8c0,0.6,0.4,1.3,1.9,1.3v0.2h-7.8V137.8z"/>
	<path class="st1" d="M122.1,125.3c-1.5,0.2-2.1,1.4-2.1,6.2c0,3.6,1.8,5.6,4,5.6c1.4,0,2.5-0.4,3.6-1.3v0.1
		c-1.3,1.7-3.7,2.2-5.3,2.2c-3.2,0-6.7-2.3-6.7-6.5c0-4.2,3.5-6.4,6.4-6.4V125.3z M127.7,128c0,1.3-0.9,2.4-2.5,2.4
		c-1.2,0-2-0.8-2.2-1.6c0.7-0.3,1.2-1.2,1.2-1.8c0-0.6-0.1-1.5-1.1-1.7v-0.2C126.4,125.2,127.7,126.6,127.7,128z"/>
	<path class="st1" d="M129.5,131.6c0-4.2,3.2-6.4,6.1-6.4v0.2c-1.5,0.2-1.9,1.4-1.9,6.2c0,3.6,1.6,5.6,3.8,5.6
		c1.4,0,2.5-0.4,3.6-1.3v0.1c-1.3,1.7-3.7,2.2-5.3,2.2C132.8,138.2,129.5,135.8,129.5,131.6z M135.2,130.6c2.2,0,3.1-0.7,3.1-2.8
		c0-1.2-0.5-2.3-1.6-2.4v-0.2c3.3,0,4.9,2.3,4.9,4.2c0,0.4,0,0.9-0.1,1.3h-6.3V130.6z"/>
</g>
<rect y="0" class="st2" width="300" height="150"/>
</svg>
