<?xml version="1.0" encoding="utf-8"?>
<!-- Generator: Adobe Illustrator 24.0.3, SVG Export Plug-In . SVG Version: 6.00 Build 0)  -->
<svg version="1.1" id="Layer_1" xmlns="http://www.w3.org/2000/svg" xmlns:xlink="http://www.w3.org/1999/xlink" x="0px" y="0px"
	 viewBox="0 0 300 150" style="enable-background:new 0 0 300 150;" xml:space="preserve">
<style type="text/css">
	.st0{enable-background:new    ;}
	.st1{fill:#263845;}
	.st2{fill:none;}
</style>
<title>Artboard 1 copy</title>
<g class="st0">
	<path class="st1" d="M18.8,76v0.2c-1.8,0.2-3,2-3,8.4c0,6.4,1.2,8.5,3,8.7v0.2c-3.6-0.2-7.9-2.9-7.9-8.7
		C10.9,79.1,15.5,76.2,18.8,76z M20,76.2V76c2.6,0.1,4,0.5,5.1,1.2l0.8-1.2h0.2v6.1h-0.2C25.3,79.1,23,76.8,20,76.2z M28.5,86.1v0.1
		c-1.2,0-1.8,0.5-1.8,1.5v5.8h-0.2L25.6,92c-1.2,0.9-3,1.4-5.5,1.5v-0.2c1.7-0.1,2.7-1,2.7-3v-2.6c0-1-0.4-1.5-1.9-1.5v-0.1H28.5z"
		/>
	<path class="st1" d="M36.3,80.7c-1.5,0.2-2,1.4-2,6.3c0,4.7,0.5,6.2,2,6.4v0.2c-2.9,0-6.2-2.3-6.2-6.5c0-4.2,3.3-6.4,6.2-6.4V80.7z
		 M43.5,87c0,4.2-3.3,6.5-6.2,6.5v-0.2c1.5-0.1,1.9-1.7,1.9-6.4c0-4.9-0.5-6.1-1.9-6.3v-0.2C40.2,80.5,43.5,82.7,43.5,87z"/>
	<path class="st1" d="M54.8,91.3v0.2c-0.8,1.1-2.4,2-4.3,2c-2.2,0-3.8-1-3.8-3.5v-8.2h-1.3l0.3-0.4h1v-2.7c1.5,0,3-0.5,4.1-1.4v4.1
		h3.4l-0.3,0.4h-3.1v8.3c0,1.2,0.5,2.5,1.6,2.5C53.1,92.6,54,92.2,54.8,91.3z"/>
	<path class="st1" d="M62,90.3c0-2.2,2-3.4,4.8-3.4h2.7v0.2h-0.7c-1.8,0-2.6,1.2-2.6,2.7c0,1.4,0.4,2.4,1.6,2.4
		c0.7,0,1.3-0.4,1.8-0.9v0.2c-0.8,0.9-2.1,2-4,2C63.4,93.5,61.9,92.3,62,90.3z M63,83.2c0-1.3,1.1-2.6,4.5-2.7v0.2
		c-1,0.1-1.6,0.9-1.6,1.8c0,0.9,0.6,1.5,1.6,1.5c-0.4,0.7-1.4,1.2-2.4,1.2C63.8,85.2,63,84.3,63,83.2z M70.2,90.7V83
		c0-1.2-0.5-2.2-1.7-2.4v-0.2c4.1,0.2,5.8,1.7,5.8,5v6.1c0,0.7,0.2,1,0.7,1c0.4,0,0.8-0.4,1.2-1.1h0.1c-0.4,1.4-1.7,2-3.2,2
		C71.1,93.5,70.2,92.8,70.2,90.7z"/>
</g>
<g class="st0">
	<path class="st1" d="M15.1,114.3c-0.8,0-1.4,0.5-1.4,1.2c0,0.7,0.5,1.6,2.2,1.8v0.2c-3.3-0.1-5.1-1-5.1-2.5c0-1.1,1-1.8,2.1-1.8
		C13.9,113.2,14.7,113.7,15.1,114.3z M15.9,104.7c-0.9,0.2-1.8,0.6-1.8,1.7c0.1,2.9,8.2,3.4,8.2,7.3c0,2.4-2,3.7-5.3,3.8v-0.2
		c1-0.2,2.2-0.5,2.2-1.8c0-2.6-8.2-3.5-8.2-7.3c0-2.2,2.1-3.5,4.9-3.6V104.7z M21.8,107.1c0,0.8-0.6,1.5-1.8,1.5
		c-1,0-1.8-0.5-2.1-1.2c0.8-0.1,1.1-0.6,1.1-1.2c0-0.8-1-1.5-1.9-1.6v-0.2C19.8,104.7,21.8,105.7,21.8,107.1z"/>
	<path class="st1" d="M29.7,121.1c0,0.9,0.4,1.3,1.8,1.3v0.1c-2.3,0-3.9,0.2-6,1v-16.6c0-0.9-0.4-1.3-1.8-1.3v-0.1
		c2.3,0,3.9-0.2,6-1V121.1z M39.2,110.9c0,5.2-2.7,6.6-5.1,6.6c-1.4,0-3-1-3.6-2v-0.2c0.6,0.5,1.3,0.9,2.1,0.9
		c1.2,0,2.4-0.8,2.4-5.3c0-4.5-1.2-5.1-2.4-5.1c-0.8,0-1.5,0.3-2.1,0.9v-0.2c0.6-1,2.2-2,3.6-2C36.5,104.5,39.2,105.9,39.2,110.9z"
		/>
	<path class="st1" d="M41.4,111c0-4.2,3.2-6.4,6.1-6.4v0.2c-1.5,0.2-1.9,1.4-1.9,6.2c0,3.6,1.6,5.6,3.8,5.6c1.4,0,2.5-0.4,3.6-1.3
		v0.1c-1.3,1.7-3.7,2.2-5.3,2.2C44.6,117.5,41.4,115.2,41.4,111z M47,109.9c2.2,0,3.1-0.7,3.1-2.8c0-1.2-0.5-2.3-1.6-2.4v-0.2
		c3.3,0,4.9,2.3,4.9,4.2c0,0.4,0,0.9-0.1,1.3H47V109.9z"/>
	<path class="st1" d="M61.9,104.7c-1.5,0.2-2.1,1.4-2.1,6.2c0,3.6,1.8,5.6,4,5.6c1.4,0,2.5-0.4,3.6-1.3v0.1
		c-1.3,1.7-3.7,2.2-5.3,2.2c-3.2,0-6.7-2.3-6.7-6.5c0-4.2,3.5-6.4,6.4-6.4V104.7z M67.4,107.3c0,1.3-0.9,2.4-2.5,2.4
		c-1.2,0-2-0.8-2.2-1.6c0.7-0.3,1.2-1.2,1.2-1.8c0-0.6-0.1-1.5-1.1-1.7v-0.2C66.2,104.5,67.4,105.9,67.4,107.3z"/>
	<path class="st1" d="M68.9,105.5c2.3,0,4.2-0.2,6-1v11.3c0,0.6,0.4,1.3,1.9,1.3v0.2h-7.9v-0.2c1.5,0,1.9-0.6,1.9-1.3v-8.9
		c0-0.9-0.4-1.3-1.8-1.3V105.5z M70.2,100.8c0-1.3,1-2.2,2.5-2.2c1.5,0,2.5,0.9,2.5,2.2c0,1.3-1,2.2-2.5,2.2
		C71.2,103,70.2,102.1,70.2,100.8z"/>
	<path class="st1" d="M78,114.3c0-2.2,2-3.4,4.8-3.4h2.7v0.2h-0.7c-1.8,0-2.6,1.2-2.6,2.7c0,1.4,0.4,2.4,1.6,2.4
		c0.7,0,1.3-0.4,1.8-0.9v0.2c-0.8,0.9-2.1,2-4,2C79.4,117.5,78,116.3,78,114.3z M79,107.2c0-1.3,1.1-2.6,4.5-2.7v0.2
		c-1,0.1-1.6,0.9-1.6,1.8c0,0.9,0.6,1.5,1.6,1.5c-0.4,0.7-1.4,1.2-2.4,1.2C79.8,109.2,79,108.3,79,107.2z M86.3,114.7V107
		c0-1.2-0.5-2.2-1.7-2.4v-0.2c4.1,0.2,5.8,1.7,5.8,5v6.1c0,0.7,0.2,1,0.7,1c0.4,0,0.8-0.4,1.2-1.1h0.1c-0.4,1.4-1.7,2-3.2,2
		C87.2,117.5,86.3,116.8,86.3,114.7z"/>
	<path class="st1" d="M93.1,99.9c2.3,0,4.2-0.2,6-1v16.9c0,0.6,0.4,1.3,1.9,1.3v0.2H93v-0.2c1.5,0,1.9-0.6,1.9-1.3v-14.5
		c0-0.9-0.4-1.3-1.8-1.3V99.9z"/>
</g>
<g class="st0">
	<path class="st1" d="M10.8,129.8c-0.2-0.5-0.6-0.9-1.4-0.9v-0.2h7v0.2c-0.9,0-1.2,0.6-0.8,1.5l3.3,6.8l-2.1,4h-0.1L10.8,129.8z
		 M20,134.8c0.4-0.8,0.7-1.9,0.7-3.2c0-1.4-0.8-2.6-2.5-2.6v-0.2h6.2v0.2c-0.8,0-1.1,0.3-1.6,1.2l-2.6,4.9L20,134.8z"/>
</g>
<g class="st0">
	<path class="st1" d="M24.6,135c0-4.2,3.2-6.4,6.1-6.4v0.2c-1.5,0.2-1.9,1.4-1.9,6.2c0,3.6,1.6,5.6,3.8,5.6c1.4,0,2.5-0.4,3.6-1.3
		v0.1c-1.3,1.7-3.7,2.2-5.3,2.2C27.8,141.5,24.6,139.2,24.6,135z M30.2,133.9c2.2,0,3.1-0.7,3.1-2.8c0-1.2-0.5-2.3-1.6-2.4v-0.2
		c3.3,0,4.9,2.3,4.9,4.2c0,0.4,0,0.9-0.1,1.3h-6.3V133.9z"/>
	<path class="st1" d="M44,139.8c0,0.6,0.4,1.3,1.9,1.3v0.2H38v-0.2c1.5,0,1.9-0.6,1.9-1.3v-14.5c0-0.9-0.4-1.3-1.8-1.3v-0.1
		c2.3,0,4.2-0.2,6-1V139.8z M52.8,132v7.8c0,0.6,0.4,1.3,1.9,1.3v0.2h-7.8v-0.2c1.5,0,1.8-0.6,1.8-1.3V132c0-1.4-0.7-2.1-2-2.1
		c-0.7,0-1.3,0.2-1.9,0.8v-0.2c0.7-1,2.3-2,4.1-2C51.2,128.5,52.8,129.6,52.8,132z"/>
	<path class="st1" d="M55.6,129.5c2.3,0,4.2-0.2,6-1v11.3c0,0.6,0.4,1.3,1.9,1.3v0.2h-7.9v-0.2c1.5,0,1.9-0.6,1.9-1.3v-8.9
		c0-0.9-0.4-1.3-1.8-1.3V129.5z M56.9,124.8c0-1.3,1-2.2,2.5-2.2s2.5,0.9,2.5,2.2c0,1.3-1,2.2-2.5,2.2S56.9,126.1,56.9,124.8z"/>
	<path class="st1" d="M71.4,128.7c-1.5,0.2-2.1,1.4-2.1,6.2c0,3.6,1.8,5.6,4,5.6c1.4,0,2.5-0.4,3.6-1.3v0.1
		c-1.3,1.7-3.7,2.2-5.3,2.2c-3.2,0-6.7-2.3-6.7-6.5c0-4.2,3.5-6.4,6.4-6.4V128.7z M76.9,131.3c0,1.3-0.9,2.4-2.5,2.4
		c-1.2,0-2-0.8-2.2-1.6c0.7-0.3,1.2-1.2,1.2-1.8c0-0.6-0.1-1.5-1.1-1.7v-0.2C75.6,128.5,76.9,129.9,76.9,131.3z"/>
	<path class="st1" d="M78.2,123.9c2.3,0,4.2-0.2,6-1v16.9c0,0.6,0.4,1.3,1.9,1.3v0.2h-7.9v-0.2c1.5,0,1.9-0.6,1.9-1.3v-14.5
		c0-0.9-0.4-1.3-1.8-1.3V123.9z"/>
	<path class="st1" d="M87.6,135c0-4.2,3.2-6.4,6.1-6.4v0.2c-1.5,0.2-1.9,1.4-1.9,6.2c0,3.6,1.6,5.6,3.8,5.6c1.4,0,2.5-0.4,3.6-1.3
		v0.1c-1.3,1.7-3.7,2.2-5.3,2.2C90.8,141.5,87.6,139.2,87.6,135z M93.2,133.9c2.2,0,3.1-0.7,3.1-2.8c0-1.2-0.5-2.3-1.6-2.4v-0.2
		c3.3,0,4.9,2.3,4.9,4.2c0,0.4,0,0.9-0.1,1.3h-6.3V133.9z"/>
	<path class="st1" d="M101.4,127.4c0-2.2,3-3.3,5.3-3.4v0.2c-1.2,0.3-1.8,1.4-1.8,2.4c0,0.9,0.4,1.7,1.4,2.2c-0.4,0.6-1.2,1-2.3,1
		C102.7,129.7,101.4,129,101.4,127.4z M105,140.7c0-1.4,1.1-2.3,2.7-2.3s2.7,0.9,2.7,2.3c0,1.4-1.1,2.3-2.7,2.3S105,142.1,105,140.7
		z M105.7,133.6c0-2.8,4-3.6,4-6.8c0-1.3-0.5-2.2-1.8-2.6V124c3.4,0.2,6,1.3,6,4.1c0,3.4-5.4,4.5-5.4,6.7c0,0.6,0.2,1.1,0.9,1.4
		l0,0.2C106.9,136.4,105.7,135.2,105.7,133.6z"/>
</g>
<rect y="0" class="st2" width="300" height="150"/>
</svg>
