<svg id="Layer_1" data-name="Layer 1" xmlns="http://www.w3.org/2000/svg" viewBox="0 0 300 150"><defs><style>.cls-1{fill:#263845;}.cls-2{fill:none;}</style></defs><title>Artboard 1 copy</title><path class="cls-1" d="M18.81,75v.15c-1.8.23-3,2-3,8.45s1.25,8.52,3,8.75v.15a8.35,8.35,0,0,1-7.95-8.75A8.66,8.66,0,0,1,18.81,75Zm1.22.15V75a10.54,10.54,0,0,1,5.13,1.18L25.93,75h.2v6.08h-.2A7.7,7.7,0,0,0,20,75.15Zm8.47,9.93v.15c-1.17,0-1.84.45-1.84,1.47v5.8h-.2l-.9-1.5a9.84,9.84,0,0,1-5.5,1.5v-.15c1.7-.13,2.67-1,2.67-3V86.7c0-1-.45-1.47-1.87-1.47v-.15Z"/><path class="cls-1" d="M36.26,79.65c-1.48.18-2,1.43-2,6.3,0,4.7.5,6.25,2,6.4v.15A6.37,6.37,0,0,1,30,86a6.27,6.27,0,0,1,6.23-6.45Zm7.2,6.3a6.37,6.37,0,0,1-6.2,6.55v-.15c1.47-.15,2-1.73,2-6.4,0-4.9-.5-6.15-2-6.3V79.5A6.23,6.23,0,0,1,43.46,86Z"/><path class="cls-1" d="M54.81,90.32v.16a5.26,5.26,0,0,1-4.28,2c-2.25,0-3.85-1-3.85-3.52v-8.2h-1.3l.28-.38h1V77.7a6.27,6.27,0,0,0,4.1-1.4v4.1h3.38l-.28.38h-3.1v8.27c0,1.25.48,2.55,1.65,2.55A3.69,3.69,0,0,0,54.81,90.32Z"/><path class="cls-1" d="M62,89.3c0-2.17,2-3.4,4.8-3.4h2.7v.15h-.75a2.48,2.48,0,0,0-2.65,2.73c0,1.37.4,2.42,1.57,2.42a2.76,2.76,0,0,0,1.83-.88v.16a5.36,5.36,0,0,1-4,2C63.36,92.5,61.93,91.3,62,89.3Zm1-7.07c0-1.28,1.15-2.58,4.55-2.73v.15a1.83,1.83,0,0,0-1.6,1.83c0,.9.62,1.45,1.62,1.52a2.8,2.8,0,0,1-2.4,1.2A2,2,0,0,1,63,82.23Zm7.25,7.45V82c0-1.23-.48-2.2-1.7-2.38V79.5c4.15.15,5.8,1.73,5.8,5v6.07c0,.73.25,1,.7,1s.8-.37,1.19-1.12h.15a3.11,3.11,0,0,1-3.24,2C71.11,92.5,70.21,91.8,70.21,89.68Z"/><path class="cls-1" d="M15.06,114.28a1.27,1.27,0,0,0-1.4,1.25c0,.72.5,1.64,2.22,1.82v.15c-3.32-.13-5.15-1-5.15-2.47a2,2,0,0,1,2.13-1.85A2.54,2.54,0,0,1,15.06,114.28Zm.82-9.63c-.92.18-1.82.65-1.8,1.68.08,2.9,8.18,3.37,8.18,7.35,0,2.42-2.05,3.69-5.28,3.82v-.15c1.05-.18,2.23-.55,2.23-1.85,0-2.6-8.2-3.55-8.2-7.35,0-2.2,2.07-3.52,4.87-3.65Zm5.9,2.43a1.64,1.64,0,0,1-1.85,1.55,2.13,2.13,0,0,1-2.12-1.2,1.11,1.11,0,0,0,1.12-1.18c0-.75-.95-1.47-1.95-1.6v-.15C19.81,104.65,21.78,105.68,21.78,107.08Z"/><path class="cls-1" d="M29.68,121.05c0,.9.43,1.32,1.85,1.32v.15a16.28,16.28,0,0,0-6,1V106.93c0-.9-.43-1.33-1.85-1.33v-.15a16.48,16.48,0,0,0,6-1Zm9.53-10.17c0,5.22-2.75,6.62-5.13,6.62a4.7,4.7,0,0,1-3.65-2v-.16a3.49,3.49,0,0,0,2.1.88c1.18,0,2.43-.83,2.43-5.32s-1.18-5.1-2.43-5.1a2.84,2.84,0,0,0-2.1.92v-.2a4.68,4.68,0,0,1,3.65-2C36.51,104.5,39.21,105.9,39.21,110.88Z"/><path class="cls-1" d="M41.41,111a6.19,6.19,0,0,1,6.12-6.45v.15c-1.47.18-1.87,1.43-1.87,6.2,0,3.6,1.6,5.57,3.82,5.57a5.39,5.39,0,0,0,3.65-1.32v.15a7,7,0,0,1-5.3,2.25A6.33,6.33,0,0,1,41.41,111Zm5.62-1c2.2,0,3.13-.7,3.13-2.8,0-1.2-.5-2.3-1.63-2.45v-.15c3.3,0,4.9,2.35,4.9,4.25a7.85,7.85,0,0,1-.12,1.3H47Z"/><path class="cls-1" d="M61.88,104.65c-1.47.18-2.12,1.43-2.12,6.2,0,3.6,1.82,5.57,4.05,5.57a5.43,5.43,0,0,0,3.65-1.32v.15a7,7,0,0,1-5.3,2.25A6.54,6.54,0,0,1,55.48,111a6.41,6.41,0,0,1,6.4-6.45Zm5.55,2.68a2.33,2.33,0,0,1-2.5,2.4,2.12,2.12,0,0,1-2.17-1.58,2.14,2.14,0,0,0,1.2-1.82,1.48,1.48,0,0,0-1.08-1.65v-.18C66.16,104.5,67.43,105.9,67.43,107.33Z"/><path class="cls-1" d="M68.91,105.45a15.37,15.37,0,0,0,6-1v11.34c0,.63.38,1.28,1.88,1.28v.15H68.88v-.15c1.5,0,1.88-.65,1.88-1.28v-8.89c0-.9-.43-1.33-1.85-1.33Zm1.27-4.7a2.58,2.58,0,1,1,2.55,2.2A2.27,2.27,0,0,1,70.18,100.75Z"/><path class="cls-1" d="M78,114.3c0-2.17,2-3.4,4.8-3.4h2.7v.15h-.75a2.48,2.48,0,0,0-2.65,2.73c0,1.37.4,2.42,1.57,2.42a2.76,2.76,0,0,0,1.83-.88v.16a5.36,5.36,0,0,1-4,2C79.41,117.5,78,116.3,78,114.3Zm1-7.07c0-1.28,1.15-2.58,4.55-2.73v.15a1.83,1.83,0,0,0-1.6,1.83c0,.9.62,1.45,1.62,1.52a2.8,2.8,0,0,1-2.4,1.2A2,2,0,0,1,79,107.23Zm7.25,7.45V107c0-1.23-.48-2.2-1.7-2.38v-.15c4.15.15,5.8,1.73,5.8,5v6.07c0,.73.25,1,.7,1s.79-.37,1.19-1.12h.15a3.11,3.11,0,0,1-3.24,2C87.16,117.5,86.26,116.8,86.26,114.68Z"/><path class="cls-1" d="M93.06,99.85a15.37,15.37,0,0,0,6-1v16.94c0,.63.38,1.28,1.88,1.28v.15H93v-.15c1.5,0,1.88-.65,1.88-1.28V101.33c0-.9-.43-1.33-1.85-1.33Z"/><path class="cls-1" d="M10.83,130.78a1.35,1.35,0,0,0-1.37-.88v-.15h7v.15c-.88,0-1.23.6-.8,1.48l3.27,6.82-2.15,4.05h-.15Zm9.15,5a6.77,6.77,0,0,0,.7-3.22,2.41,2.41,0,0,0-2.55-2.63v-.15h6.23v.15c-.83,0-1.15.33-1.63,1.18l-2.6,4.9Z"/><path class="cls-1" d="M24.56,136a6.19,6.19,0,0,1,6.12-6.45v.15c-1.47.18-1.87,1.43-1.87,6.2,0,3.6,1.6,5.57,3.82,5.57a5.39,5.39,0,0,0,3.65-1.32v.15A7,7,0,0,1,31,142.5,6.33,6.33,0,0,1,24.56,136Zm5.62-1c2.2,0,3.13-.7,3.13-2.8,0-1.2-.5-2.3-1.63-2.45v-.15c3.3,0,4.9,2.35,4.9,4.25a7.85,7.85,0,0,1-.12,1.3H30.18Z"/><path class="cls-1" d="M44,140.82c0,.63.38,1.28,1.88,1.28v.15H38v-.15c1.5,0,1.88-.65,1.88-1.28V126.33c0-.9-.43-1.33-1.85-1.33v-.15a15.37,15.37,0,0,0,6-1ZM52.78,133v7.79c0,.63.38,1.28,1.88,1.28v.15H46.81v-.15c1.47,0,1.85-.65,1.85-1.28V133a1.86,1.86,0,0,0-2-2.13,2.67,2.67,0,0,0-1.9.78v-.15a5.12,5.12,0,0,1,4.15-2C51.18,129.5,52.78,130.55,52.78,133Z"/><path class="cls-1" d="M55.61,130.45a15.37,15.37,0,0,0,6-1v11.34c0,.63.38,1.28,1.88,1.28v.15H55.58v-.15c1.5,0,1.88-.65,1.88-1.28v-8.89c0-.9-.43-1.33-1.85-1.33Zm1.27-4.7a2.58,2.58,0,1,1,2.55,2.2A2.27,2.27,0,0,1,56.88,125.75Z"/><path class="cls-1" d="M71.36,129.65c-1.48.18-2.13,1.43-2.13,6.2,0,3.6,1.83,5.57,4,5.57a5.39,5.39,0,0,0,3.65-1.32v.15a7,7,0,0,1-5.3,2.25A6.53,6.53,0,0,1,65,136a6.4,6.4,0,0,1,6.4-6.45Zm5.55,2.68a2.33,2.33,0,0,1-2.5,2.4,2.13,2.13,0,0,1-2.18-1.58,2.14,2.14,0,0,0,1.2-1.82,1.48,1.48,0,0,0-1.07-1.65v-.18C75.63,129.5,76.91,130.9,76.91,132.33Z"/><path class="cls-1" d="M78.21,124.85a15.37,15.37,0,0,0,6-1v16.94c0,.63.38,1.28,1.88,1.28v.15H78.18v-.15c1.5,0,1.88-.65,1.88-1.28V126.33c0-.9-.43-1.33-1.85-1.33Z"/><path class="cls-1" d="M87.56,136a6.19,6.19,0,0,1,6.12-6.45v.15c-1.47.18-1.87,1.43-1.87,6.2,0,3.6,1.6,5.57,3.82,5.57a5.39,5.39,0,0,0,3.65-1.32v.15A7,7,0,0,1,94,142.5,6.33,6.33,0,0,1,87.56,136Zm5.62-1c2.2,0,3.13-.7,3.13-2.8,0-1.2-.5-2.3-1.63-2.45v-.15c3.3,0,4.9,2.35,4.9,4.25a7.85,7.85,0,0,1-.12,1.3H93.18Z"/><path class="cls-1" d="M101.36,128.38c0-2.23,3-3.3,5.27-3.38v.15a2.48,2.48,0,0,0-1.77,2.43,2.14,2.14,0,0,0,1.4,2.15,2.76,2.76,0,0,1-2.3,1A2.36,2.36,0,0,1,101.36,128.38ZM105,141.65c0-1.37,1.1-2.27,2.68-2.27s2.67.9,2.67,2.27a2.37,2.37,0,0,1-2.67,2.3C106.13,144,105,143.05,105,141.65Zm.68-7c0-2.8,4-3.63,4-6.83a2.46,2.46,0,0,0-1.8-2.65V125c3.45.23,6.05,1.35,6.05,4.13,0,3.4-5.42,4.47-5.42,6.67a1.47,1.47,0,0,0,.9,1.45l0,.15C106.88,137.4,105.71,136.15,105.71,134.63Z"/><rect class="cls-2" width="300" height="150"/></svg>