<svg id="Layer_1" data-name="Layer 1" xmlns="http://www.w3.org/2000/svg" viewBox="0 0 300 150"><defs><style>.cls-1{fill:none;}.cls-2{fill:#74503e;}.cls-3{fill:#fff;}</style></defs><title>Artboard 1</title><rect class="cls-1" y="-0.05" width="300" height="150"/><path class="cls-2" d="M14.47,64.05h83a7.91,7.91,0,0,0,7-4.28l10.42-20.08a7.89,7.89,0,0,0,0-7.29L104.45,12.32a7.9,7.9,0,0,0-7-4.27H14.47a4.8,4.8,0,0,0-4.81,4.8V59.24A4.81,4.81,0,0,0,14.47,64.05Z"/><path class="cls-3" d="M51.4,29.15l.2-.28c.14-.2.29-.21.51-.08a2.26,2.26,0,0,0,1.28.46c.58,0,.94-.29.94-.72,0-1.2-2.94-1-2.94-2.91a1.92,1.92,0,0,1,2.12-1.83,3,3,0,0,1,1.63.48.36.36,0,0,1,.11.51l-.16.29c-.13.26-.32.22-.5.13a2.1,2.1,0,0,0-1.09-.35c-.59,0-1,.28-1,.71,0,1.18,2.93.88,2.93,2.88a1.88,1.88,0,0,1-2.08,1.86,3.32,3.32,0,0,1-1.93-.63A.34.34,0,0,1,51.4,29.15Z"/><path class="cls-3" d="M58,24.89H56.32a.34.34,0,0,1-.38-.37v-.25a.34.34,0,0,1,.38-.37h4.52a.33.33,0,0,1,.36.37v.25a.33.33,0,0,1-.36.37H59.15v4.94a.34.34,0,0,1-.38.37h-.4a.33.33,0,0,1-.36-.37Z"/><path class="cls-3" d="M62.7,24.2a.4.4,0,0,1,.42-.3h.56a.4.4,0,0,1,.42.3l2,5.57c.09.26,0,.43-.3.43h-.41a.41.41,0,0,1-.42-.3l-.44-1.32H62.29l-.43,1.31a.4.4,0,0,1-.42.31H61c-.27,0-.39-.17-.3-.43Zm1.52,3.45L63.66,26c-.11-.36-.25-1-.25-1h0s-.14.62-.25,1l-.56,1.68Z"/><path class="cls-3" d="M66.87,24.27a.33.33,0,0,1,.36-.37h1.7a2.83,2.83,0,0,1,1.2.17,1.75,1.75,0,0,1,1.05,1.72,1.82,1.82,0,0,1-1,1.72v0a2.24,2.24,0,0,1,.2.33l1,1.89c.15.26,0,.45-.26.45h-.48a.45.45,0,0,1-.43-.26L69.1,27.85H68v2a.33.33,0,0,1-.36.37h-.41a.33.33,0,0,1-.36-.37ZM69,26.85a.92.92,0,0,0,1-1,.85.85,0,0,0-.49-.86,1.64,1.64,0,0,0-.69-.1H68v2Z"/><path class="cls-3" d="M51.82,32a.19.19,0,0,1,.21-.22h.19a.2.2,0,0,1,.21.22v5.79a.2.2,0,0,1-.21.22H52a.19.19,0,0,1-.21-.22Z"/><path class="cls-3" d="M53.91,33.74a.2.2,0,0,1,.22-.22h.16a.2.2,0,0,1,.21.22v.52a1.65,1.65,0,0,1,0,.31h0a2,2,0,0,1,1.8-1.16c1.11,0,1.5.63,1.5,1.73v2.62a.2.2,0,0,1-.22.22h-.17a.19.19,0,0,1-.21-.22V35.3c0-.7-.12-1.32-1-1.32a1.73,1.73,0,0,0-1.69,1.82v2a.19.19,0,0,1-.21.22h-.17a.2.2,0,0,1-.22-.22Z"/><path class="cls-3" d="M58.74,37.27l.07-.09a.2.2,0,0,1,.3,0,2,2,0,0,0,1.18.4c.5,0,.91-.24.91-.71,0-1-2.39-.7-2.39-2.18,0-.82.7-1.25,1.52-1.25a2,2,0,0,1,1.22.37.18.18,0,0,1,.06.29l-.06.1c-.07.12-.17.13-.3.06a1.65,1.65,0,0,0-1-.28c-.47,0-.87.2-.87.69,0,1,2.37.7,2.37,2.19a1.35,1.35,0,0,1-1.51,1.26,2.28,2.28,0,0,1-1.5-.52A.19.19,0,0,1,58.74,37.27Z"/><path class="cls-3" d="M62.69,33.74a.19.19,0,0,1,.21-.22h.17a.2.2,0,0,1,.22.22V36.2c0,.7.11,1.32,1,1.32a1.73,1.73,0,0,0,1.65-1.86V33.74a.2.2,0,0,1,.22-.22h.17a.19.19,0,0,1,.21.22v4a.19.19,0,0,1-.21.22h-.16a.2.2,0,0,1-.22-.22v-.52a1.84,1.84,0,0,1,0-.32h0a1.93,1.93,0,0,1-1.75,1.17c-1.06,0-1.49-.57-1.49-1.73Z"/><path class="cls-3" d="M67.82,33.74a.2.2,0,0,1,.22-.22h.16a.2.2,0,0,1,.21.22v.6a2.17,2.17,0,0,1,0,.36h0a1.6,1.6,0,0,1,1.44-1.21c.16,0,.23.07.23.22v.16c0,.14-.1.22-.25.22-.94,0-1.39,1.07-1.39,2v1.67a.19.19,0,0,1-.21.22H68a.2.2,0,0,1-.22-.22Z"/><path class="cls-3" d="M73.13,35.25h.26v-.14c0-.86-.47-1.16-1.1-1.16a2.1,2.1,0,0,0-1.08.31.2.2,0,0,1-.3-.07l-.06-.09a.2.2,0,0,1,.06-.3,2.75,2.75,0,0,1,1.42-.39A1.52,1.52,0,0,1,74,35.12v2.64a.19.19,0,0,1-.21.22h-.14a.2.2,0,0,1-.22-.22V37.4a2.4,2.4,0,0,1,0-.33h0a1.64,1.64,0,0,1-1.5,1,1.38,1.38,0,0,1-1.51-1.31C70.41,35.33,72.27,35.25,73.13,35.25ZM72,37.58a1.56,1.56,0,0,0,1.37-1.67V35.7h-.25c-.7,0-2.11,0-2.11,1A.89.89,0,0,0,72,37.58Z"/><path class="cls-3" d="M75.26,33.74a.2.2,0,0,1,.22-.22h.16a.2.2,0,0,1,.21.22v.52a1.65,1.65,0,0,1,0,.31h0a2,2,0,0,1,1.8-1.16c1.11,0,1.5.63,1.5,1.73v2.62a.2.2,0,0,1-.22.22h-.17a.19.19,0,0,1-.21-.22V35.3c0-.7-.12-1.32-1-1.32a1.73,1.73,0,0,0-1.69,1.82v2a.19.19,0,0,1-.21.22h-.17a.2.2,0,0,1-.22-.22Z"/><path class="cls-3" d="M82.47,33.41a2.32,2.32,0,0,1,1.48.51q.17.12,0,.3l-.06.1c-.08.12-.18.12-.31,0A1.81,1.81,0,0,0,82.49,34a1.8,1.8,0,0,0,0,3.6,2,2,0,0,0,1.26-.47.17.17,0,0,1,.29.05l.06.09a.22.22,0,0,1,0,.3,2.47,2.47,0,0,1-1.59.57,2.34,2.34,0,0,1,0-4.68Z"/><path class="cls-3" d="M86.86,33.41c1.19,0,1.86.86,1.86,2.13a.21.21,0,0,1-.23.22H85.28A1.71,1.71,0,0,0,87,37.55a1.89,1.89,0,0,0,1.17-.41c.13-.08.23-.06.3,0l.07.11a.21.21,0,0,1-.06.29,2.55,2.55,0,0,1-1.49.5,2.26,2.26,0,0,1-2.34-2.34A2.18,2.18,0,0,1,86.86,33.41Zm1.25,1.9a1.28,1.28,0,0,0-1.27-1.4,1.54,1.54,0,0,0-1.53,1.4Z"/><path class="cls-3" d="M51.68,40.44a.33.33,0,0,1,.36-.38h3a.35.35,0,0,1,.38.38v.24a.34.34,0,0,1-.38.37H52.81V42.7h1.76a.33.33,0,0,1,.37.36v.25a.33.33,0,0,1-.37.37H52.81v1.7h2.41a.33.33,0,0,1,.37.36V46a.33.33,0,0,1-.37.37H52a.32.32,0,0,1-.36-.37Z"/><path class="cls-3" d="M56.4,42.21a.33.33,0,0,1,.36-.37h.35a.33.33,0,0,1,.36.37v.28a1.34,1.34,0,0,1,0,.2h0a1.77,1.77,0,0,1,1.61-1c1,0,1.57.52,1.57,1.72V46a.32.32,0,0,1-.37.37H59.9a.33.33,0,0,1-.37-.37V43.68c0-.55-.14-.92-.71-.92a1.36,1.36,0,0,0-1.31,1.48V46a.32.32,0,0,1-.36.37h-.39A.32.32,0,0,1,56.4,46Z"/><path class="cls-3" d="M61.86,42.8h-.24a.34.34,0,0,1-.37-.38v-.15a.33.33,0,0,1,.37-.37h.26V41a.33.33,0,0,1,.37-.37h.36A.33.33,0,0,1,63,41v.92h.66a.33.33,0,0,1,.37.37v.15a.33.33,0,0,1-.36.38H63v1.75a.73.73,0,0,0,.73.84c.27,0,.37.12.37.37V46c0,.27-.15.38-.46.38a1.62,1.62,0,0,1-1.76-1.66Z"/><path class="cls-3" d="M64.81,40.44a.34.34,0,0,1,.37-.38h.38a.34.34,0,0,1,.38.38v1.82a2.14,2.14,0,0,1,0,.38h0a1.79,1.79,0,0,1,1.57-.91c1,0,1.58.52,1.58,1.72V46a.34.34,0,0,1-.38.37h-.38A.32.32,0,0,1,68,46V43.68c0-.55-.14-.92-.71-.92a1.35,1.35,0,0,0-1.3,1.5V46a.33.33,0,0,1-.38.37h-.38a.33.33,0,0,1-.37-.37Z"/><path class="cls-3" d="M70.09,42.21a.34.34,0,0,1,.38-.37h.38a.33.33,0,0,1,.37.37v2.31c0,.55.14.92.7.92a1.36,1.36,0,0,0,1.27-1.53v-1.7a.33.33,0,0,1,.37-.37h.38a.34.34,0,0,1,.38.37V46a.34.34,0,0,1-.38.37H73.6a.33.33,0,0,1-.37-.37v-.27a1.17,1.17,0,0,1,0-.2h0a1.76,1.76,0,0,1-1.57.95c-1,0-1.57-.49-1.57-1.72Z"/><path class="cls-3" d="M75.23,45.5l.11-.16c.13-.18.28-.2.5-.09a2,2,0,0,0,1,.31c.39,0,.63-.17.63-.46,0-.73-2.24-.46-2.24-2,0-.89.78-1.36,1.73-1.36a2.56,2.56,0,0,1,1.26.33.34.34,0,0,1,.13.5l-.09.16c-.1.21-.27.24-.49.14a2,2,0,0,0-.86-.22c-.4,0-.62.16-.62.44,0,.74,2.25.45,2.25,2,0,.79-.68,1.39-1.72,1.39A2.68,2.68,0,0,1,75.32,46C75.11,45.89,75.1,45.7,75.23,45.5Z"/><path class="cls-3" d="M79.39,40.7v-.26a.33.33,0,0,1,.36-.38h.39a.34.34,0,0,1,.37.38v.26a.33.33,0,0,1-.37.37h-.39A.33.33,0,0,1,79.39,40.7Zm0,1.51a.33.33,0,0,1,.36-.37h.39a.33.33,0,0,1,.37.37V46a.33.33,0,0,1-.37.37h-.39a.32.32,0,0,1-.36-.37Z"/><path class="cls-3" d="M83.92,43.57h.19v-.11a.74.74,0,0,0-.84-.8,2,2,0,0,0-1,.26.33.33,0,0,1-.49-.15l-.09-.17a.33.33,0,0,1,.14-.5,3.22,3.22,0,0,1,1.48-.37,1.68,1.68,0,0,1,1.87,1.8V46a.32.32,0,0,1-.37.37h-.3A.32.32,0,0,1,84.2,46v-.18a1.49,1.49,0,0,1,0-.19h0a1.66,1.66,0,0,1-1.42.85,1.39,1.39,0,0,1-1.5-1.36C81.28,43.79,82.91,43.57,83.92,43.57Zm-.84,2a1.15,1.15,0,0,0,1-1.19v-.17h-.19c-.57,0-1.53.09-1.53.76A.62.62,0,0,0,83.08,45.61Z"/><path class="cls-3" d="M86.08,45.5l.11-.16c.13-.18.28-.2.5-.09a2,2,0,0,0,1,.31c.39,0,.63-.17.63-.46,0-.73-2.25-.46-2.25-2,0-.89.78-1.36,1.73-1.36a2.56,2.56,0,0,1,1.26.33.34.34,0,0,1,.13.5l-.09.16c-.1.21-.27.24-.49.14a2,2,0,0,0-.86-.22c-.39,0-.61.16-.61.44,0,.74,2.24.45,2.24,2,0,.79-.67,1.39-1.72,1.39A2.71,2.71,0,0,1,86.17,46,.33.33,0,0,1,86.08,45.5Z"/><path class="cls-3" d="M90.45,42.8h-.24c-.24,0-.36-.13-.36-.38v-.15a.33.33,0,0,1,.37-.37h.26V41a.33.33,0,0,1,.37-.37h.35a.34.34,0,0,1,.38.37v.92h.65a.33.33,0,0,1,.37.37v.15a.33.33,0,0,1-.36.38h-.66v1.75a.73.73,0,0,0,.72.84c.28,0,.37.12.37.37V46c0,.27-.15.38-.46.38a1.62,1.62,0,0,1-1.76-1.66Z"/><path class="cls-3" d="M30.43,43.53a.58.58,0,0,1-.28-.07.61.61,0,0,1-.31-.75l6.56-20.2a1.39,1.39,0,0,1,1.34-1h0a1.38,1.38,0,0,1,1.33,1l1.33,4a.47.47,0,1,1-.9.3l-1.33-4a.44.44,0,0,0-.43-.31h0a.43.43,0,0,0-.43.31L31.37,41.07l8.36-11.44a2.62,2.62,0,0,1,2.1-1.07H47.4a1.4,1.4,0,0,1,.83,2.54l-5.1,3.7-.05.05,2,6a1.4,1.4,0,0,1-2.16,1.57l-4.4-3.2a1.4,1.4,0,0,1,0-2.27l3.69-2.68.06,0,5.43-3.94a.43.43,0,0,0,.16-.51.43.43,0,0,0-.43-.31H41.83a1.64,1.64,0,0,0-1.33.68L30.94,43.27A.62.62,0,0,1,30.43,43.53Zm11.84-8.1-3.22,2.34a.44.44,0,0,0-.19.36.45.45,0,0,0,.19.37l4.4,3.2a.44.44,0,0,0,.53,0,.46.46,0,0,0,.17-.51Z"/><path class="cls-3" d="M30.77,33.49a.46.46,0,0,1-.27-.09l-3.25-2.3a1.38,1.38,0,0,1-.52-1.57,1.4,1.4,0,0,1,1.34-1h4a.48.48,0,1,1,0,1h-4a.43.43,0,0,0-.43.31.44.44,0,0,0,.16.51l3.25,2.29a.49.49,0,0,1,.11.67A.47.47,0,0,1,30.77,33.49Z"/><path class="cls-3" d="M35.2,50.24a1.61,1.61,0,0,1-.77-.2l-8.3-4.71a.49.49,0,0,1-.24-.42V34.78a.48.48,0,0,1,.95,0v9.86l8.06,4.57a.6.6,0,0,0,.61,0l5.89-3.69a.48.48,0,1,1,.51.81L36,50A1.53,1.53,0,0,1,35.2,50.24Z"/></svg>